<?xml version="1.0" encoding="UTF-8" standalone="no"?>
<!-- Created with Inkscape (http://www.inkscape.org/) -->

<svg
   xmlns:dc="http://purl.org/dc/elements/1.1/"
   xmlns:cc="http://creativecommons.org/ns#"
   xmlns:rdf="http://www.w3.org/1999/02/22-rdf-syntax-ns#"
   xmlns:svg="http://www.w3.org/2000/svg"
   xmlns="http://www.w3.org/2000/svg"
   xmlns:sodipodi="http://sodipodi.sourceforge.net/DTD/sodipodi-0.dtd"
   xmlns:inkscape="http://www.inkscape.org/namespaces/inkscape"
   version="1.1"
   width="1024"
   height="768"
   id="svg3021"
   inkscape:version="0.91 r13725"
   sodipodi:docname="Flag_of_NATO.svg">
  <sodipodi:namedview
     pagecolor="#ffffff"
     bordercolor="#666666"
     borderopacity="1"
     objecttolerance="10"
     gridtolerance="10"
     guidetolerance="10"
     inkscape:pageopacity="0"
     inkscape:pageshadow="2"
     inkscape:window-width="686"
     inkscape:window-height="480"
     id="namedview7"
     showgrid="false"
     inkscape:zoom="0.28125"
     inkscape:cx="512"
     inkscape:cy="384"
     inkscape:window-x="0"
     inkscape:window-y="0"
     inkscape:window-maximized="0"
     inkscape:current-layer="svg3021" />
  <metadata
     id="metadata3031">
    <rdf:RDF>
      <cc:Work
         rdf:about="">
        <dc:format>image/svg+xml</dc:format>
        <dc:type
           rdf:resource="http://purl.org/dc/dcmitype/StillImage" />
        <dc:title />
      </cc:Work>
    </rdf:RDF>
  </metadata>
  <defs
     id="defs3029" />
  <rect
     width="1024"
     height="768"
     x="0"
     y="0"
     id="rect3023"
     style="fill:#012169;fill-opacity:1" />
  <path
     d="m 730.1,387.8 0,-8.6 217.6,0 0,8.6 -217.6,0 z m -652.8,0 0,-8.6 217.6,0 0,8.6 -217.6,0 z m 430.9,213.3 8.6,0 0,89.6 -8.6,0 0,-89.6 z m 0,-524.8 8.6,0 0,89.6 -8.6,0 0,-89.6 z m 195.4,306.9 -191.3,0 34.5,-36 -30.2,-135.5 c 0,-1.5 1.4,-1.5 1.4,0 l 40.3,126.8 145.3,44.7 0,0 z M 657.5,357.3 C 647.5,296.7 600,247.7 538.1,236.2 l 4.4,11.5 c 51.8,11.5 93.5,53.3 105,106.7 l 10,2.9 0,0 z m -145.2,216.2 0,-190.3 34.5,33.2 136.6,-28.9 c 0,0 1.5,1.5 0,1.5 l -128,40.3 -43.1,144.2 0,0 z m 24.4,-44.7 c 61.9,-10.1 110.8,-59.1 120.8,-119.6 l -11.5,4.3 c -11.5,51.9 -53.2,93.7 -105,103.8 l -4.3,11.5 0,0 z m -215.8,-145.6 191.4,0 -34.6,34.6 30.2,135.5 c 0,1.5 -1.4,1.5 -1.4,0 l -40.3,-126.8 -145.3,-43.3 0,0 z m 46.1,24.5 c 10,60.6 57.5,109.6 119.4,121.1 L 482,517.3 C 430.3,505.7 388.5,463.9 377,410.6 l -10,-2.9 0,0 z m 145.3,-216.2 0,191.7 -34.6,-34.6 -136.6,28.8 c 0,0 -1.5,-1.4 0,-1.4 l 128,-40.4 43.2,-144.1 0,0 z m -24.5,44.7 C 425.9,246.3 377,295.3 367,355.8 l 11.5,-4.3 c 11.5,-51.9 53.2,-93.7 105,-103.8 l 4.3,-11.5 0,0 z"
     id="path3025"
     style="fill:#ffffff" />
</svg>
