<?xml version="1.0" encoding="UTF-8"?>
<svg xmlns="http://www.w3.org/2000/svg" width="800" height="500">
<rect width="800" height="500" fill="#fff"/>
<g fill="#c7c2a3" stroke="#000" stroke-width="1.44">
<path fill="#000" stroke="none" d="m387.12,158.22s11.488-0.31406,15.683-0.31406c1.7987,0,5.093-1.3485,5.093-4.3441,0-3.6962-2.5959-6.2921-4.3441-6.2921h-22.021"/>
<path fill="#0060a9" d="m312.23,151.19c4.4934,1.6493,3.9806-1.0805,5.0282-3.3272,1.0498-2.2489,1.1991-1.1991,2.0974-0.90045,0.89825,0.3009,1.4978,2.6969,2.8463,2.6969s3.4458-2.8463,3.5952-2.0974c0.14933,0.74891,2.5476,5.5432,3.896,6.8917,1.3485,1.3485,2.1391,1.4692,2.1391,1.4692-0.46341,1.2606,0.9158,2.9276,1.2299,4.3551,0.53807,2.4466-1.5662,4.7423-0.60835,7.0498,1.2545,3.0222,5.2442,4.4353,7.9722,6.2679,0.67601,0.45415,1.8756,1.265,2.1918,2.4268,0.62591-0.26354,1.1969,0.23279,1.4758,0.49852,2.6684,2.563,5.2467,6.4942,9.1647,4.6252,1.366,2.1962,0.72195,3.8174,3.2196,6.5996,3.1026-0.0284,3.9786-2.1295,4.2672-4.7592,5.7145,0.0416,10.296-2.4532,13.122-7.1354,0.42166-0.70059,0.11856-2.0359,1.1398-2.3807,4.5571-1.5439,8.7606-3.5952,13.702-4.3089,0.96633-0.1383,1.0893-1.8118,2.0315-2.0622,2.5981-0.69179,5.1852,0.53588,7.8251,0.12291,0.28989-0.044,1.0783-0.44581,0.7445-1.0168-0.63909-1.0959-1.8887-1.3814-3.09-1.2189,0.10753-0.38214-0.0945-0.65227-0.40411-0.75987-3.8192-1.3353-7.836,1.052-11.291-0.34701-1.0981-0.44364-3.437-5.1984-2.1545-5.1984,2.1501,0,4.6977,0.71595,4.6977-0.78186h15.729c1.7987,0,5.093-1.3485,5.093-4.3441,0-3.6962-2.5959-6.2897-4.3441-6.2921l-22.366-0.0308c-0.42825-1.4407-0.73132-2.9429-1.6296-4.2365-0.61274-0.88286-1.3529-1.8119-2.6442-1.6581,0.44145-2.6113-0.54026-5.6157,1.052-7.6779,0.58638-0.75769,2.194,0.1515,3.3778,0.8104,1.0696,0.59297,2.2994,0.1801,3.4876-0.57101,3.2064-2.0249,6.8961-2.4949,9.6852-4.9348,1.5351-1.3441,1.8953-3.6106,3.7226-4.9151,1.691-1.2079,3.3602,0.75109,5.0359,0.19545,1.0802-1.6739,1.9886-2.169,3.9224-2.3236,4.3177-2.765,8.6926-3.0813,13.511-4.019,5.0578-0.98388,9.7291,0.74672,14.447,2.0886,2.2774,0.64786,3.0022,4.3418,5.295,4.7877,2.5344,0.49414,5.1215-1.7965,7.7064-0.22621,3.3778,2.0512,7.4451,3.3997,8.8726,7.0454,1.9305,4.937-3.7818,8.2269-6.8038,11.71,1.175,4.6164,2.4993,8.9078,4.9305,13.12-4.2552,4.6378,0.80671,12.839-0.35798,19.146-3.6961,0.94613-3.5609,5.5326-4.1442,8.8814-1.6497,9.4705-2.5132,19.436-8.5784,29.662-1.9175-3.1308-2.7019,0.23035-3.437,2.3192-1.7943,1.5659-1.59,3.8521-3.0549,5.5893-1.2782,1.5132-2.8429,3.6157-2.5652,6.0022,0.29409,2.5264,1.4468,4.7608,2.7343,6.8895,3.5405,5.8537,4.1218,13.056,7.9195,18.648,4.9765,7.327,10.523,12.892,15.433,22.856,2.2266,2.8962,4.3908,5.8324,6.2592,8.8836,3.6319,3.4347,8.5298,7.803,9.4568,12.852-0.0935,2.6071-9.8256-1.4516-13.559-3.7928,5.772,6.4828,13.167,11.99,15.371,20.789-0.66107-0.14047-3.5996-2.0732-3.5469-1.97,2.3631,4.5308,6.8477,11.747,8.3763,16.553,0.23939,0.74891-4.4495-1.4714-4.1398-1.1815,2.8594,2.6618,5.5542,7.948,6.9268,10.397,0.55781,0.99708,1.8096,2.6223,0.88286,3.6347-0.42826,0.46999-5.2489-4.2145-6.0352-3.8829,1.6204,5.0679,9.0512,13.147,5.418,15.47-1.4144-0.45682,2.3104,3.6698,1.4363,5.0337-0.26133,0.41068-3.5974-3.8983-3.604-3.1625-0.0197,2.7892,4.4737,9.5732,2.9319,11.607-1.2057,1.5944-9.0813-7.9436-7.9568-4.7086,0.78843,2.2665,2.5981,7.1113,2.4598,7.1134-11.297,0.25697-22.59-1.3397-33.885,1.8712-2.541,0.72255-3.6281,2.6047-5.5586,4.2782-0.5732,0.49632-1.4737,0.55342-1.8294-0.0264-0.54028-0.88066,0.49854-2.5959-0.55784-2.8353-1.4034-0.32065-2.7321-0.19986-4.0102,0.19766,1.522-2.0183,0.32503-4.1157-1.7723-4.7152,1.4978-1.7987-1.1991-5.6926-2.9956-6.2921-1.7987-0.59956-0.0988-1.3199,0-2.396,0.0681-0.76427,1.3133-2.2972-1.0695-3.6742-1.9524-1.1311-0.99487-1.5856-4.6076-1.9524,9.3635-1.7856,18.846-2.0527,28.307-1.1267,1.8053-2.2445-1.6318-5.2313-3.2943-6.9597-0.38432-0.4019-1.5154,0.0594-2.1808-0.2328-1.566-5.1652-3.3686-6.2269-5.3631-8.5739-0.87848-0.0242-0.79942,1.6625-1.1837,3.0549-0.3009,1.0959,0.23718,2.0095-0.62593,2.3829-0.81698,0.35579-1.7021-0.0175-2.2994-0.73132-1.5396-1.8426-3.9334-6.3756-6.0417-7.1684-2.1105-0.79503-1.4868,3.2438-1.8712,5.2226-3.5534-1.2496-6.1104-7.8917-8.9275-10.072-2.1882-1.6933,0.91401,5.2036,0.25695,6.1296-9.9632-6.5924-13.631-18.935-18.132-28.674-2.3214,0.18887-5.4597,2.899-6.1274,5.4663-0.53367,2.049,0.32503,4.9678-1.1991,5.8594-2.7277,1.5944-5.0051,4.2562-7.7745,5.675-0.71377,0.36458-2.0688-4.6977-2.6332-3.4041-0.85434,1.9546-0.6962,7.825-1.0322,9.9773-0.49193,3.1625-0.52927,5.4092-1.0388,8.5498-1.5232-1.0981-3.3496-1.5957-4.6296-0.19766-4.0563,4.4304-4.0501,11.581-6.9048,17.097-0.55565,0.77306-1.0278-0.40191-1.7679-1.0366-1.6867,2.5739-0.74012,5.5234-1.1815,8.2775-10.463-3.5301-19.546-2.6096-29.713-1.3065-2.4116,0.3091-4.5786,1.817-6.8516,3.0744-0.43484-0.19985-0.94656-2.0161-1.4605-2.1962,0,0,0.47437-0.91361-0.12525-2.7123-0.59956-1.7987-1.4978-2.5476-2.396-2.5476-0.90044,0-1.9568-2.4795-1.9568-2.4795s1.0564-1.4144,0.15819-2.9143c-0.89825-1.4956-2.0974-2.3961-3.5952-2.9956-1.4978-0.59735-0.59956-0.29866,0-2.0952,0.59956-1.7987-1.2079-7.3595-3.5249-7.5,1.6516-1.532,3.4911-2.5981,4.7438-1.3748,2.6486,2.5865,6.9378,2.2774,10.026,2.194,4.1684-0.10986,8.5893,1.6999,11.934,0.58419,1.3419-0.448,0.15367-4.1552-1.3572-5.2138-0.46339-0.32282-1.6537-0.0264-1.6757-0.14715-0.93776-5.1171,3.7621-10.599,4.6098-15.529,0.21742-1.2716-3.9817,1.2518-4.2189,0.1515-1.4696-5.0337,3.8661-9.2762,3.4305-13.748-0.37334-0.26135-2.3323,1.5769-2.8572,1.5769,0.96852-4.6252,4.0564-11.141,5.5168-15.668,0.51831-1.6054-3.2701,0.9883-3.7862,0.5205-1.0059-0.92021,0.76427-1.959,1.2826-2.8309,5.5388-9.2811,11.932-16.816,18.648-25.39,0.74231-0.94656,0.0395-2.8638,0.78623-2.8199,6.134,0.36237,12.072-0.90484,18.143-1.2299,0.67864-0.0351,0.5271-1.0388,0.29212-1.3814-1.5615-2.2489-2.6223-4.2013-2.2577-6.7753,0.38214,0.10752,0.67422-0.0901,0.74891-0.4019,0.12073-0.51391,0.21961-1.1991-0.0483-1.4846-2.0315-2.1676-2.9385-4.7306-4.1201-7.2365-0.98827-2.0974-0.23059-4.9173-2.2203-6.4876-1.1376-0.89605-2.3697,0.62151-3.2548,1.2628-4.8448,3.5139-9.8192,5.9824-13.963,10.012,0.005-1.0586-0.84029-2.2494-1.5791-1.5769-4.2171,3.839-8.888,7.1486-13.401,10.641,0.0231-1.4369-0.74908-2.0857-1.9348-1.5-4.3495,2.1484-8.5937,4.3529-13.041,6.2306-0.1757-1.0915,0.88505-2.6157-0.37115-2.5037-2.989,0.27232-5.6069,2.2906-8.418,3.3843-2.1105,0.82357-4.4934,2.0381-6.9466,1.3748-1.377-0.36894-2.0842-2.071-2.7277-2.9736-1.6735-2.3455-3.9575-4.1728-5.1852-6.9927-1.0652-2.4444-3.2416-4.5571-4.8909-7.0256-0.84116-1.2606,1.1025-2.9473,0.46998-4.5417-0.31406-0.78843-0.7533-1.3397-1.2804-1.7218,1.2386,0.24157,2.2796,0.32282,2.8045-0.99051,0.59956-1.4978-0.7489-2.9956-1.3485-3.7445-0.59956-0.7489,2.0974-1.0498,2.8463-0.7489,0.7489,0.29869,0.59957,1.948,2.2467,1.948,1.6493,0,1.4978-2.2489,2.2489-4.3463,0.59737-0.14933,2.3719,1.7504,3.8938,1.0498,1.948-0.90044,1.7987-1.0498,2.6003-5.1084-0.002,0.67203,0.5073,1.4627,0.70935,2.0446,1.1157,3.2152,4.1658,5.8975,5.3016,9.2899,0.6874,2.0532,0.6502,4.0433,2.519,4.4407,6.0906-1.3172,8.6482-9.1896,11.115-14.508,0.98609-2.2599,1.355-5.0117,2.5498-7.2079,1.5329-2.8199,4.1508-4.7789,6.7731-6.9202,0.19986-0.16254,0.20205-0.84773,0-1.0234-6.3119-5.5827-13.375-9.4085-19.111-15.575-0.27013-0.2899,0.0724-1.4868-0.0176-1.7504-1.4649-4.3836-5.3455-7.4583-7.6054-11.523,0.7533,0.19105,1.4385-0.32286,1.4341-0.78844-0.0461-4.7438-4.3463-8.3983-4.3001-13.004,0.002-0.27893,1.7789,1.1047,1.8712-0.0197,0.36018-4.4122-1.2408-8.6267-2.4158-12.92-0.69839-2.552-2.2401-4.8377-2.0249-7.5527,0.0577-0.72785,0.34314-1.0141,0.66653-1.5835z"/>
<path fill="none" d="m384.11,260.8,2.8102,5.5586m15.213,41.405-1.131-4.5527m-57.26-86.28c2.7387-3.604,0.34041-3.604,3.336-8.396,2.9956-4.7943,2.0974-4.4956,5.9934-9.8873,3.8961-5.3938,3.5952-7.1925,5.3917-9.2899,1.7987-2.0974,1.6978-3.7806,1.6978-3.7806"/>
<g fill="#ffd27c" stroke="#231f20">
<path d="m310.48,135.49c1.847,0.2907,3.8136,0.71071,5.2022,2.0591,1.2414,1.0041,1.6852,2.6265,2.1101,4.0942,0.33317,1.5788,0.86478,3.1335,0.91987,4.7574,0.0431,1.0772-0.31331,2.2244-1.2134,2.8804-0.81786,0.63031-1.6624,1.2803-2.6456,1.6252-0.66927,0.18617-1.4292-0.33227-1.7892-0.82564,0.42924-0.38188,0.51865-0.99714,0.49778-1.5653-0.15417-2.4925,0.55344-5.0308-0.1311-7.4865-0.39972-1.6171-1.5886-2.8721-2.8793-3.8529-0.51968-0.3817-1.6803-1.68-0.45563-1.8464,0.20324,0.0224,0.39173,0.1132,0.56222,0.22185"/>
<path d="m410.97,362.34c0.6921-0.8738,1.4616-1.6945,2.2876-2.443,1.9796-1.5704,4.1313-2.9349,6.3955-4.0566,2.2645-1.0016,4.8154-0.78385,7.2108-0.52167,0.76415,0.32172,1.2558,1.0597,1.6241,1.7851,0.41468,0.95588,0.59029,2.02,0.69365,3.0352,0.20318-0.39486,0.18873-1.112-0.38412-0.56992-0.61732,0.40172-1.0317,1.3202-1.8861,1.1813-2.8197-0.29834-5.4187-1.7267-8.2793-1.756-1.4993,0.26982-2.8585,1.0244-4.2376,1.6386-1.1513,0.54913-2.2852,1.1339-3.4245,1.707z"/>
<path d="m413.47,371.04c-0.10987-0.76208,0.057-1.5088,0.46778-2.1457,0.48316-0.7489,3.0461-2.3192,3.8367-2.5915,1.1838-0.4063,2.1391-1.0915,3.2043-1.724,0.71377-0.42387,1.2958-1.0476,2.0183-1.3836,2.0644-0.96414,2.5586-1.6537,4.7591-1.3287,1.9107,0.28332,5.407,3.9114,4.4495,5.877-0.57981,1.1926-2.0622,1.3507-3.2614,0.95976-2.3631-0.77088-4.6142-2.0886-7.1684-1.847-2.1237,0.20426-5.1479,3.3624-7.1179,4.0674-0.79941,0.28331-1.1244-0.47218-1.0805-1.1838"/>
<path d="m425.39,371.74c2.3038-1.2562,5.407-2.8331,6.7775-2.9099,0,0,1.0102,1.3155,1.3792,1.6032,0.72474,0.56443,1.5527,2.5256,0.95315,3.1823-1.3968,1.5264-2.8111,1.2892-5.1369,1.8382-1.3902,0.32944-6.6127,3.2987-7.8602,3.828-0.057,0.0241,0.13177-0.33383,0.10535-0.57761-0.13177-1.2211-0.27453-2.5102,0.14498-3.6786,0.90922-0.49414,1.9107-2.3477,3.6369-3.2855"/>
<path d="m307.26,349.38c-0.21238,0.69573-1.5147,0.45007-1.238-0.3116,0.04-0.98119,0.0227-1.9854,0.37955-2.9178,0.25178-0.93844,0.35297-1.912,0.6433-2.8408,2.7913-0.48113,5.6652-0.6687,8.3298-1.7035,1.1914-0.3869,2.4144-0.87175,3.6873-0.81029,0.91798,0.19642,0.9106,1.4107,1.4389,2.0387,0.58509,1.1241,1.2928,2.2262,1.5691,3.4766,0.0921,0.88619-0.28831,1.7936-0.87125,2.444-0.77634,0.54707-1.4304-0.38247-2.1471-0.57768-1.8334-0.74744-3.7-1.4215-5.5968-1.9882-1.2742-0.23532-2.6659-0.30378-3.8731,0.23157-0.55804,0.50372-1.2478,0.90698-1.5621,1.6252-0.26269,0.43899-0.53569,0.87308-0.75945,1.3339z"/>
<path d="m310.55,357.02c-0.16572-0.63859-0.0169-1.2653,0.051-1.9043,0.0433-0.60372,0.2563-1.2183,0.63193-1.6954,0.46738-0.44688,1.1538-0.53111,1.7257-0.79467,0.81049-0.26224,1.6172-0.64126,2.4823-0.62834,1.5086-0.3214,3.0114-0.69771,4.4275-1.3221,0.90214-0.40042,2.0777-0.51072,2.8534,0.21347,1.0189,0.77247,1.9646,1.7241,2.3801,2.9633,0.41296,0.71409,0.67719,1.605,0.29652,2.3928-1.0733,0.097-2.1828-0.11388-3.154-0.57369-0.5505-0.42384-1.2008-0.63892-1.8623-0.81811-1.1385-0.39776-2.3138-0.86488-3.5423-0.75526-0.71802,0.3223-1.4242,0.69021-2.1712,0.95455-1.2141,0.46834-2.4774,0.989-3.3437,2.0029-0.23741,0.23716-0.81225,0.62663-0.77501-0.0351z"/>
<path d="m316.74,367.73c-0.42606-0.39874-0.28182-1.2753-0.42103-1.8695-0.24815-0.77489-0.33183-1.5857-0.0196-2.3548,0.15485-0.63813,0.14715-1.5033,0.82713-1.8262,2.0021-0.6726,4.1348-0.83127,6.1226-1.5549,1.1751-0.35289,2.3164-0.80511,3.4837-1.1791,0.83731-0.27417,1.7215-0.0898,2.5648,0.034,0.60305,0.44018,0.77089,1.2699,1.1347,1.898,0.28161,0.71725,0.50872,1.4568,0.67002,2.2076,0.43203,0.52115,0.38247,1.7986-0.51586,1.7172-0.77636-0.16237-1.5324-0.42605-2.3248-0.52795-0.99255-0.22375-1.9174-0.8181-2.9731-0.69831-0.82537,0.15034-1.6794,0.0226-2.4575,0.31843-1.691,0.102-2.9955,1.3334-4.1473,2.4508-0.43431,0.45345-1.0219,0.77761-1.321,1.3466-0.9784,0.78802-0.39188-0.49149-0.92154-0.73709"/>
<path d="m308.93,219.11c0.52377,0.27107,1.1107,0.37277,1.6055,0.7536,1.3637,0.55021,2.8667,0.93655,3.9085,2.0494,0.56877,0.51422,1.0376,1.1874,1.0759,1.977,0.26501,1.4643,0.28335,2.956,0.17687,4.4364-0.086,1.4931-0.0336,3.0537-0.69093,4.4384-0.42856,1.0607-1.2272,2.2351-2.4794,2.3059-1.1079-0.0696-2.1446-0.99467-2.3187-2.093-0.0169-0.72476,0.76775-1.0972,0.95058-1.7592,0.39894-0.98468,0.41994-2.0856,0.31404-3.1291-0.2047-1.0366-0.71324-1.9844-1.0567-2.9786-0.40388-1.0675-0.9008-2.0991-1.2448-3.1876-0.4921-0.51193-0.17459-1.1595-0.19215-1.7616-0.14114-0.41023-0.34368-0.98243-0.0487-1.0516z"/>
<path d="m297.64,227.47c1.8261-0.59931,3.7956-0.61613,5.6725-0.26396,1.0359,0.18225,2.1049,0.24494,3.1054,0.58278,0.86797,0.36647,1.3443,1.2519,1.8121,2.0179,0.2806,0.59143,0.61004,1.1845,0.74989,1.8251,0.0134,0.58621,0.418,1.1031,0.31922,1.7085-0.15468,1.0105-0.44231,1.9993-0.6993,2.9886-0.15853,0.68182-0.61188,1.5333-1.4285,1.4647-0.69536-0.0762-1.311-0.6681-1.2994-1.3899-0.13795-0.70231-0.0878-1.4952-0.47083-2.1184-0.32981-0.47168-0.39702-1.0781-0.67852-1.5812-0.84962-1.7085-2.5381-2.8021-4.2185-3.5864-0.93987-0.45092-1.9428-0.75917-2.8952-1.1723-0.28876-0.18806-0.15585-0.59697,0.21122-0.4755"/>
<path d="m290.95,238.67c1.2691-0.75931,2.4914-1.6074,3.8171-2.2658,0.98009-0.36976,2.0114-0.58454,2.9952-0.94709,0.70471-0.25851,1.5448-0.52802,2.2329-0.0746,1.3045,0.77147,2.725,1.6409,3.3418,3.0957,0.27726,0.73122,0.3048,1.6451-0.16204,2.3031-0.62042,0.65974-1.6652,0.50186-2.4197,0.18566-1.3698-0.74204-2.7345-1.579-4.2906-1.8645-0.75798-0.18085-1.5474-0.23226-2.3094-0.0477-0.85964,0.0982-1.7253,0.15017-2.5741,0.3257-0.36159,0.0943-1.1351-0.0495-0.75585-0.55319l0.0451-0.0647,0.0796-0.0928h-0.00003z"/>
<path d="m333.93,152.6c1.6282-2.8967,2.5638-6.147,3.006-9.4283,0.2873-2.5073-0.1837-5.087-1.2126-7.3808-0.44602-0.58548-0.87584-2.2032-1.7374-1.8788-0.20963,0.84034-0.0227,1.7546-0.24637,2.6218-0.15284,1.5488-0.42824,3.1233-1.1203,4.5286-0.78758,1.377-1.8249,2.5982-3.0766,3.5751-0.99589,0.8089-2.0749,1.7795-2.2239,3.1311,0.27048,2.2338,0.9434,4.618,2.6999,6.1466,0.71322,0.30713,1.2179,1.5602,1.9002,1.4968,0.64315-0.87751,1.1792-1.83,1.9071-2.6429l0.10401-0.16911h0.00002z"/>
<path d="m321.51,132.34c0.68575,0.0781,1.2679,0.59845,1.9309,0.8125,1.2465,0.52784,2.4579,1.2621,3.2169,2.4154,0.49328,0.63881,0.90487,1.3753,0.89527,2.2086,0.0577,2.0459,0.37364,4.174-0.38018,6.1391-0.22272,0.82631-0.51748,1.6393-1.0431,2.3271-0.47846,0.77051-1.061,1.5393-1.9443,1.8646-0.54738,0.20591-1.1567,0.20449-1.5137,0.70408-0.49941-0.45452-1.2653-0.68258-1.4624-1.4046-0.41006-1.3511,0.007-2.767,0.25374-4.1098,0.29702-1.2105,0.54973-2.4367,0.92184-3.625,0.0744-1.782,0.32569-3.6957-0.5329-5.3423-0.25811-0.66391-0.9587-1.1-1.0568-1.825-0.0528-0.57243,0.57395-0.0595,0.71477-0.16488z"/>
</g>
<path fill="#ef3e42" stroke-width="0.96" d="m366.71,150.41c2.4554,1.2628,5.0534,2.967,7.8053,3.5359,0.50952,0.10535,1.2584,0.44143,1.7636,0.42387,1.9568-0.0637,3.3162-0.37775,5.396,0.0724,2.2248,0.48096,1.0234,0.26794,3.213,0.5161,0.37995,0.044,0.78406,0.0329,1.0981,0.27014,0.33601,0.25475,20.666-0.1757,20.756,0.24597,0.14933,0.71598-1.0937,1.4824-1.8799,1.724-1.7504,0.53148-19.476,1.5659-21.233,1.3748-2.5124-0.27234-3.6654-0.2394-5.7145-0.044-0.10987,0.0117-0.59737-0.34919-0.70937-0.34041-2.4925,0.19456-4.9299-0.38573-7.3419-0.91143-1.3699-0.62504-2.0457-1.8252-2.7936-3.0571-0.59078-0.8082-1.1706-2.4927-0.97951-3.369,0.0176-0.0878,0.5798-0.46119,0.61933-0.44143z"/>
<g stroke="none">
<path d="m404.82,147.92-4.5571,0.16471,2.3609,3.2943,2.1962-3.459z"/>
<path d="m392.52,148.03,2.1962,3.459,2.1962-3.459-4.3924,0z"/>
<path d="m406.18,154.36-4.5637,0,2.2818-3.5908,2.2819,3.5908"/>
<path d="m400.4,154.36-4.5615,0,2.2797-3.5908,2.2819,3.5908"/>
<path d="m394.94,154.36-4.5637,0,2.2818-3.5908,2.2819,3.5908"/>
</g>
<g stroke-width="0.94">
<path d="m382.06,147.79c0.38521,1.3066,1.0692,2.4935,1.6568,3.7145,0.28001,0.45816,0.36553,1.002,0.63966,1.4609,0.25864,0.37064,0.45382,0.87117,0.93432,0.99866,0.18476,0.003,0.4322,0.40446,0.28457,0.057-0.26237-0.97854,0.0916-1.9737,0.43624-2.8834,0.35008-0.94912,0.64509-1.9697,1.3426-2.732,0.0938-0.17528,0.57623-0.3467,0.52252-0.36454-1.938-0.0987-3.8756-0.2342-5.8167-0.25117z"/>
<path d="m387.92,152.28c-0.52642,0.60962-0.61534,1.4732-0.60391,2.2488,0.0821,0.5535,0.16522,1.1112,0.30035,1.6554,0.10184,0.5126,0.53722,0.83037,0.82011,1.2387,0.25237,0.28878,0.51725,0.71951,0.95935,0.66379,0.54292-0.0299,1.0812-0.15083,1.6268-0.0813,1.5893,0.0701,3.221,0.0861,4.7509-0.4128,0.16387-0.0482,0.56315,0.16571,0.17446,0.0406-0.90461-0.34834-1.6002-1.1041-2.5332-1.387-0.85477-0.15301-1.6398-0.53562-2.3988-0.94185-0.4782-0.19884-0.94604-0.43101-1.3325-0.78246-0.4373-0.33997-0.73828-0.82349-1.0208-1.2916-0.22923-0.4627-0.27991-0.99651-0.21351-1.5038-0.14899,0.22585-0.29296,0.41538-0.52929,0.55342z"/>
<path d="m403.39,157.75-4.8756,0,2.5014-4.1091,2.3741,4.1091z"/>
</g>
<path stroke-width="1.2" d="m403.31,138.52c-0.43457-0.27277-0.63909-0.72034-0.50511-1.1618,0.21522-0.71596,0.27889-1.4956,0.87407-1.8953,0.30307-0.20206,1.1508-0.1801,1.5176-0.30089,0.54904-0.18227,1.2145,0.64128,1.6911,0.85871,2.3719,1.0783,5.0424,1.4144,7.6098,1.2299-3.0681,2.2533-7.5107,3.5772-11.187,1.2694z"/>
<path fill="#000" stroke="none" d="m405.5,138.23c0.4678,0,0.84773-0.37994,0.84773-0.84773,0-0.46778-0.37993-0.84773-0.84773-0.84773-0.46777,0-0.84773,0.37995-0.84773,0.84773,0,0.46779,0.37996,0.84773,0.84773,0.84773"/>
<path fill="none" stroke-width="1.2" d="m452.69,133.25c0.41249,0.4517,0.12726,1.1718-0.20205,1.5856-1.9365,2.4343-6.8727,4.0019-6.5293,2.8023,0.93717-3.2739-0.0891-5.1576-2.284-7.4824-0.67572-0.71571-0.60176-1.8053-0.0988-2.3675,0.63689-0.71158,1.8372-0.2377,2.7408,0.22182,2.6056,1.325,4.5157,3.2058,6.3734,5.2401zm-50.638,1.7306c2.2467-2.5454,3.2965-2.6948,5.3939-1.1969,2.0952,1.4978,5.9934,0.14933,7.6384-1.1991m-38.174,8.7562,3.8697,0.0813,2.2467-1.0476"/>
</g>
</svg>