<?xml version="1.0" encoding="UTF-8"?>
<svg xmlns="http://www.w3.org/2000/svg" xmlns:xlink="http://www.w3.org/1999/xlink" width="960" height="600">
<rect width="960" height="600" fill="#ffd02f"/>
<g fill="#ff3517">
<path id="x" d="M621.75,104.81c-13.45,13.21-22.3,23.23-31.03,35.35l-7.72,10.72c-1.83-1.33-3.67-2.66-5.62-4.04l-10.79,14.16c-0.05,0.33,2.48,2.09,5.88,4.5l-181.69,252.12,10.28,8.88,182.32-252.75c4.46,3.72,8.35,7.64,9.4,10.84,4.03,12.24-0.63,25.22-22.59,47.16,60,10.6,107.5-51.36,78.62-112.94-12.04,25.86-27.04,50.13-44.15,44.75-3.52-1.1-6.94-2.84-10.38-4.94l4.06-5.62c14.2-19.68,16.72-31.22,23.41-48.19z"/>
<use xlink:href="#x" transform="matrix(-1,0,0,1,959.99999,-2.8e-6)"/>
<path d="m471.77,510,16.065-0.0809-0.0841-355.54,26.41,0-0.25233,16.977,14.046,0,0-16.977,17.663,0,0-13.581-17.495,0.16168-0.0841-16.977-14.214,0-0.0841,16.977-25.99,0,0-28.699,15.728-0.0809,0-15.117-15.728,0,0-16.977-15.897-0.08087,0.0841,16.896-15.897,0.16168,0,15.198,15.728,0,0.0841,28.699-26.326-0.16169,0-16.734-14.13,0,0,16.815-17.579,0,0.0841,13.582,17.579-0.16169,0,16.896,14.13-0.0809,0.0841-16.815,26.074,0.0809z"/>
</g>
</svg>