<?xml version="1.0" encoding="UTF-8"?>
<svg xmlns="http://www.w3.org/2000/svg" width="900" height="600">
<rect width="900" height="600" fill="#fff"/>
<g stroke-width="1.88259983">
<path d="M323.65,371.53c-7.52,3.32-125.37,11.73-113.14-89.32,12.24-101.01,191.42-171.95,224.76-159.5-44.64,22.91-137.07,41.18-171.8,144.03-34.22,101.46,59.34,103.39,60.18,104.79z" fill="#aa272f" stroke="#aa272f"/>
<path d="m506.09,424.82c-2.243,7.95-71.572,104.19-140.71,29.794-69.152-74.337-7.9869-257.95,23.023-275.67-11.328,49.13-56.798,132.08-0.76816,224.91,55.25,91.61,116.9,20.816,118.46,20.97z" fill="#00549f" stroke="#00549f"/>
<path d="m656.26,271.74c6.9932,4.2783,81.463,96.471-7.8644,144.37-89.281,47.913-249.87-58.977-258.86-93.661,44.288,23.646,112.14,89.308,215.9,58.903,102.23-29.946,50.19-108.15,50.829-109.61z" fill="#008542" stroke="#008542"/>
</g>
</svg>
