<?xml version="1.0" encoding="UTF-8"?>
<svg xmlns="http://www.w3.org/2000/svg" width="1200" height="600">
  <rect width="1200" height="66" fill="#d00"/>
  <rect width="1200" height="66" y="534" fill="#fff"/>
  <rect width="1200" height="480" y="60" fill="#003893"/>
<g  fill="#ffe60c">
  <path d="M600 89.04l22 70h72l-58 42 22 68-58-42-58 42 22-68-58-42h72l22-70z"/>
  <path d="M774 297.04l-36 62 48 54-70-16-36 64-8-72-70-16 66-30-8-70 48 52 66-28z"/>
  <path d="M426 297.04l66 28 48-54-6 72 66 30-72 16-6 70-38-62-70 16 48-54-36-62z"/>
</g>
</svg>
