<svg xmlns="http://www.w3.org/2000/svg" id="svg2" viewBox="0 0 1000 500"><defs><radialGradient id="radial-gradient" cx="395.8" cy="592.5" r="32.2" fx="395.8" fy="592.5" gradientTransform="matrix(.5 0 0 -2.4 444.9 1140.4)" gradientUnits="userSpaceOnUse"><stop offset="0" stop-color="#fff3c8"/><stop offset="1" stop-color="#f0c61c"/></radialGradient><radialGradient id="radial-gradient-2" cx="-527.7" cy="592.5" r="32.2" fx="-527.7" fy="592.5" gradientTransform="matrix(-.5 0 0 -2.4 582 1141.5)" gradientUnits="userSpaceOnUse"><stop offset="0" stop-color="#fff3c8"/><stop offset="1" stop-color="#f0c61c"/></radialGradient><radialGradient id="radial-gradient-3" cx="-527.7" cy="592.5" r="32.2" fx="-527.7" fy="592.5" gradientTransform="matrix(-.5 0 0 -2.4 475.9 1126.3)" gradientUnits="userSpaceOnUse"><stop offset="0" stop-color="#fff3c8"/><stop offset="1" stop-color="#f0c61c"/></radialGradient><radialGradient id="radial-gradient-4" cx="395.8" cy="592.5" r="32.2" fx="395.8" fy="592.5" gradientTransform="matrix(.5 0 0 -2.4 449.6 1139.7)" gradientUnits="userSpaceOnUse"><stop offset="0" stop-color="#fff3c8"/><stop offset="1" stop-color="#f0c61c"/></radialGradient><radialGradient id="radial-gradient-5" cx="395.8" cy="592.5" r="32.2" fx="395.8" fy="592.5" gradientTransform="matrix(.5 0 0 -2.4 555.6 1124.6)" gradientUnits="userSpaceOnUse"><stop offset="0" stop-color="#fff3c8"/><stop offset="1" stop-color="#f0c61c"/></radialGradient><radialGradient id="radial-gradient-6" cx="395.8" cy="592.5" r="32.2" fx="395.8" fy="592.5" gradientTransform="matrix(.5 0 0 -2.4 455.4 1140.9)" gradientUnits="userSpaceOnUse"><stop offset="0" stop-color="#fff3c8"/><stop offset="1" stop-color="#f0c61c"/></radialGradient><radialGradient id="radial-gradient-7" cx="395.8" cy="592.5" r="32.2" fx="395.8" fy="592.5" gradientTransform="matrix(.5 0 0 -2.4 455.4 1140.9)" gradientUnits="userSpaceOnUse"><stop offset="0" stop-color="#fff3c8"/><stop offset="1" stop-color="#f0c61c"/></radialGradient><radialGradient id="radial-gradient-8" cx="395.8" cy="592.5" r="32.2" fx="395.8" fy="592.5" gradientTransform="matrix(.5 0 0 -2.4 455.4 1140.9)" gradientUnits="userSpaceOnUse"><stop offset="0" stop-color="#fff3c8"/><stop offset="1" stop-color="#f0c61c"/></radialGradient><radialGradient id="radial-gradient-9" cx="395.8" cy="592.5" r="32.2" fx="395.8" fy="592.5" gradientTransform="matrix(.5 0 0 -2.4 455.4 1140.9)" gradientUnits="userSpaceOnUse"><stop offset="0" stop-color="#fff3c8"/><stop offset="1" stop-color="#f0c61c"/></radialGradient><radialGradient id="radial-gradient-10" cx="395.8" cy="592.5" r="32.2" fx="395.8" fy="592.5" gradientTransform="matrix(.5 0 0 -2.4 451.1 1141.9)" gradientUnits="userSpaceOnUse"><stop offset="0" stop-color="#fff3c8"/><stop offset="1" stop-color="#f0c61c"/></radialGradient><radialGradient id="radial-gradient-11" cx="395.8" cy="592.5" r="32.2" fx="395.8" fy="592.5" gradientTransform="matrix(.5 0 0 -2.4 451.1 1141.9)" gradientUnits="userSpaceOnUse"><stop offset="0" stop-color="#fff3c8"/><stop offset="1" stop-color="#f0c61c"/></radialGradient><radialGradient id="radial-gradient-12" cx="395.8" cy="592.5" r="32.2" fx="395.8" fy="592.5" gradientTransform="matrix(.5 0 0 -2.4 451.1 1141.9)" gradientUnits="userSpaceOnUse"><stop offset="0" stop-color="#fff3c8"/><stop offset="1" stop-color="#f0c61c"/></radialGradient><radialGradient id="radial-gradient-13" cx="395.8" cy="592.5" r="32.2" fx="395.8" fy="592.5" gradientTransform="matrix(.5 0 0 -2.4 451.1 1141.9)" gradientUnits="userSpaceOnUse"><stop offset="0" stop-color="#fff3c8"/><stop offset="1" stop-color="#f0c61c"/></radialGradient><radialGradient id="radial-gradient-14" cx="395.8" cy="592.5" r="32.2" fx="395.8" fy="592.5" gradientTransform="matrix(.5 0 0 -2.4 446.8 1141.2)" gradientUnits="userSpaceOnUse"><stop offset="0" stop-color="#fff3c8"/><stop offset="1" stop-color="#f0c61c"/></radialGradient><radialGradient id="radial-gradient-15" cx="395.8" cy="592.5" r="32.2" fx="395.8" fy="592.5" gradientTransform="matrix(.5 0 0 -2.4 446.8 1141.2)" gradientUnits="userSpaceOnUse"><stop offset="0" stop-color="#fff3c8"/><stop offset="1" stop-color="#f0c61c"/></radialGradient><radialGradient id="radial-gradient-16" cx="395.8" cy="592.5" r="32.2" fx="395.8" fy="592.5" gradientTransform="matrix(.5 0 0 -2.4 446.8 1141.2)" gradientUnits="userSpaceOnUse"><stop offset="0" stop-color="#fff3c8"/><stop offset="1" stop-color="#f0c61c"/></radialGradient><radialGradient id="radial-gradient-17" cx="-521.6" cy="593.6" r="32.2" fx="-521.6" fy="593.6" gradientTransform="matrix(-.5 0 0 -2.4 574.9 1151.3)" gradientUnits="userSpaceOnUse"><stop offset="0" stop-color="#fff3c8"/><stop offset="1" stop-color="#f0c61c"/></radialGradient><radialGradient id="radial-gradient-18" cx="-521.6" cy="593.6" r="32.2" fx="-521.6" fy="593.6" gradientTransform="matrix(-.5 0 0 -2.4 574.9 1151.3)" gradientUnits="userSpaceOnUse"><stop offset="0" stop-color="#fff3c8"/><stop offset="1" stop-color="#f0c61c"/></radialGradient><radialGradient id="radial-gradient-19" cx="-521.6" cy="593.6" r="32.2" fx="-521.6" fy="593.6" gradientTransform="matrix(-.5 0 0 -2.4 574.9 1151.3)" gradientUnits="userSpaceOnUse"><stop offset="0" stop-color="#fff3c8"/><stop offset="1" stop-color="#f0c61c"/></radialGradient><radialGradient id="radial-gradient-20" cx="-521.6" cy="593.6" r="32.2" fx="-521.6" fy="593.6" gradientTransform="matrix(-.5 0 0 -2.4 579.5 1152.2)" gradientUnits="userSpaceOnUse"><stop offset="0" stop-color="#fff3c8"/><stop offset="1" stop-color="#f0c61c"/></radialGradient><radialGradient id="radial-gradient-21" cx="-521.6" cy="593.6" r="32.2" fx="-521.6" fy="593.6" gradientTransform="matrix(-.5 0 0 -2.4 579.5 1152.2)" gradientUnits="userSpaceOnUse"><stop offset="0" stop-color="#fff3c8"/><stop offset="1" stop-color="#f0c61c"/></radialGradient><radialGradient id="radial-gradient-22" cx="-521.6" cy="593.6" r="32.2" fx="-521.6" fy="593.6" gradientTransform="matrix(-.5 0 0 -2.4 579.5 1152.2)" gradientUnits="userSpaceOnUse"><stop offset="0" stop-color="#fff3c8"/><stop offset="1" stop-color="#f0c61c"/></radialGradient><radialGradient id="radial-gradient-23" cx="-521.6" cy="593.6" r="32.2" fx="-521.6" fy="593.6" gradientTransform="matrix(-.5 0 0 -2.4 579.5 1152.2)" gradientUnits="userSpaceOnUse"><stop offset="0" stop-color="#fff3c8"/><stop offset="1" stop-color="#f0c61c"/></radialGradient><radialGradient id="radial-gradient-24" cx="395.8" cy="592.5" r="32.2" fx="395.8" fy="592.5" gradientTransform="matrix(.5 0 0 -2.4 638.7 1033.9)" gradientUnits="userSpaceOnUse"><stop offset="0" stop-color="#fff3c8"/><stop offset="1" stop-color="#f0c61c"/></radialGradient><radialGradient id="radial-gradient-25" cx="395.8" cy="592.5" r="32.2" fx="395.8" fy="592.5" gradientTransform="matrix(.5 0 0 -2.4 638.7 1033.9)" gradientUnits="userSpaceOnUse"><stop offset="0" stop-color="#fff3c8"/><stop offset="1" stop-color="#f0c61c"/></radialGradient><radialGradient id="radial-gradient-26" cx="395.8" cy="592.5" r="32.2" fx="395.8" fy="592.5" gradientTransform="matrix(.5 0 0 -2.4 638.7 1033.9)" gradientUnits="userSpaceOnUse"><stop offset="0" stop-color="#fff3c8"/><stop offset="1" stop-color="#f0c61c"/></radialGradient><radialGradient id="radial-gradient-27" cx="395.8" cy="592.5" r="32.2" fx="395.8" fy="592.5" gradientTransform="matrix(.5 0 0 -2.4 638.7 1033.9)" gradientUnits="userSpaceOnUse"><stop offset="0" stop-color="#fff3c8"/><stop offset="1" stop-color="#f0c61c"/></radialGradient><radialGradient id="radial-gradient-28" cx="395.8" cy="592.5" r="32.2" fx="395.8" fy="592.5" gradientTransform="matrix(.5 0 0 -2.4 638.7 1033.9)" gradientUnits="userSpaceOnUse"><stop offset="0" stop-color="#fff3c8"/><stop offset="1" stop-color="#f0c61c"/></radialGradient><radialGradient id="radial-gradient-29" cx="395.8" cy="592.5" r="32.2" fx="395.8" fy="592.5" gradientTransform="matrix(.5 0 0 -2.4 638.7 1033.9)" gradientUnits="userSpaceOnUse"><stop offset="0" stop-color="#fff3c8"/><stop offset="1" stop-color="#f0c61c"/></radialGradient><radialGradient id="radial-gradient-30" cx="395.8" cy="592.5" r="32.2" fx="395.8" fy="592.5" gradientTransform="matrix(.5 0 0 -2.4 444.9 1140.4)" gradientUnits="userSpaceOnUse"><stop offset="0" stop-color="#fff3c8"/><stop offset="1" stop-color="#f0c61c"/></radialGradient><radialGradient id="radial-gradient-31" cx="-527.7" cy="592.5" r="32.2" fx="-527.7" fy="592.5" gradientTransform="matrix(-.5 0 0 -2.4 582 1141.5)" gradientUnits="userSpaceOnUse"><stop offset="0" stop-color="#fff3c8"/><stop offset="1" stop-color="#f0c61c"/></radialGradient><radialGradient id="radial-gradient-32" cx="-527.7" cy="592.5" r="32.2" fx="-527.7" fy="592.5" gradientTransform="matrix(-.5 0 0 -2.4 475.9 1126.3)" gradientUnits="userSpaceOnUse"><stop offset="0" stop-color="#fff3c8"/><stop offset="1" stop-color="#f0c61c"/></radialGradient><radialGradient id="radial-gradient-33" cx="395.8" cy="592.5" r="32.2" fx="395.8" fy="592.5" gradientTransform="matrix(.5 0 0 -2.4 449.6 1139.7)" gradientUnits="userSpaceOnUse"><stop offset="0" stop-color="#fff3c8"/><stop offset="1" stop-color="#f0c61c"/></radialGradient><radialGradient id="radial-gradient-34" cx="395.8" cy="592.5" r="32.2" fx="395.8" fy="592.5" gradientTransform="matrix(.5 0 0 -2.4 555.6 1124.6)" gradientUnits="userSpaceOnUse"><stop offset="0" stop-color="#fff3c8"/><stop offset="1" stop-color="#f0c61c"/></radialGradient><radialGradient id="radial-gradient-35" cx="395.8" cy="592.5" r="32.2" fx="395.8" fy="592.5" gradientTransform="matrix(.5 0 0 -2.4 455.4 1140.9)" gradientUnits="userSpaceOnUse"><stop offset="0" stop-color="#fff3c8"/><stop offset="1" stop-color="#f0c61c"/></radialGradient><radialGradient id="radial-gradient-36" cx="395.8" cy="592.5" r="32.2" fx="395.8" fy="592.5" gradientTransform="matrix(.5 0 0 -2.4 455.4 1140.9)" gradientUnits="userSpaceOnUse"><stop offset="0" stop-color="#fff3c8"/><stop offset="1" stop-color="#f0c61c"/></radialGradient><radialGradient id="radial-gradient-37" cx="395.8" cy="592.5" r="32.2" fx="395.8" fy="592.5" gradientTransform="matrix(.5 0 0 -2.4 455.4 1140.9)" gradientUnits="userSpaceOnUse"><stop offset="0" stop-color="#fff3c8"/><stop offset="1" stop-color="#f0c61c"/></radialGradient><radialGradient id="radial-gradient-38" cx="395.8" cy="592.5" r="32.2" fx="395.8" fy="592.5" gradientTransform="matrix(.5 0 0 -2.4 455.4 1140.9)" gradientUnits="userSpaceOnUse"><stop offset="0" stop-color="#fff3c8"/><stop offset="1" stop-color="#f0c61c"/></radialGradient><radialGradient id="radial-gradient-39" cx="395.8" cy="592.5" r="32.2" fx="395.8" fy="592.5" gradientTransform="matrix(.5 0 0 -2.4 451.1 1141.9)" gradientUnits="userSpaceOnUse"><stop offset="0" stop-color="#fff3c8"/><stop offset="1" stop-color="#f0c61c"/></radialGradient><radialGradient id="radial-gradient-40" cx="395.8" cy="592.5" r="32.2" fx="395.8" fy="592.5" gradientTransform="matrix(.5 0 0 -2.4 451.1 1141.9)" gradientUnits="userSpaceOnUse"><stop offset="0" stop-color="#fff3c8"/><stop offset="1" stop-color="#f0c61c"/></radialGradient><radialGradient id="radial-gradient-41" cx="395.8" cy="592.5" r="32.2" fx="395.8" fy="592.5" gradientTransform="matrix(.5 0 0 -2.4 451.1 1141.9)" gradientUnits="userSpaceOnUse"><stop offset="0" stop-color="#fff3c8"/><stop offset="1" stop-color="#f0c61c"/></radialGradient><radialGradient id="radial-gradient-42" cx="395.8" cy="592.5" r="32.2" fx="395.8" fy="592.5" gradientTransform="matrix(.5 0 0 -2.4 451.1 1141.9)" gradientUnits="userSpaceOnUse"><stop offset="0" stop-color="#fff3c8"/><stop offset="1" stop-color="#f0c61c"/></radialGradient><radialGradient id="radial-gradient-43" cx="395.8" cy="592.5" r="32.2" fx="395.8" fy="592.5" gradientTransform="matrix(.5 0 0 -2.4 446.8 1141.2)" gradientUnits="userSpaceOnUse"><stop offset="0" stop-color="#fff3c8"/><stop offset="1" stop-color="#f0c61c"/></radialGradient><radialGradient id="radial-gradient-44" cx="395.8" cy="592.5" r="32.2" fx="395.8" fy="592.5" gradientTransform="matrix(.5 0 0 -2.4 446.8 1141.2)" gradientUnits="userSpaceOnUse"><stop offset="0" stop-color="#fff3c8"/><stop offset="1" stop-color="#f0c61c"/></radialGradient><radialGradient id="radial-gradient-45" cx="395.8" cy="592.5" r="32.2" fx="395.8" fy="592.5" gradientTransform="matrix(.5 0 0 -2.4 446.8 1141.2)" gradientUnits="userSpaceOnUse"><stop offset="0" stop-color="#fff3c8"/><stop offset="1" stop-color="#f0c61c"/></radialGradient><radialGradient id="radial-gradient-46" cx="-521.6" cy="593.6" r="32.2" fx="-521.6" fy="593.6" gradientTransform="matrix(-.5 0 0 -2.4 574.9 1151.3)" gradientUnits="userSpaceOnUse"><stop offset="0" stop-color="#fff3c8"/><stop offset="1" stop-color="#f0c61c"/></radialGradient><radialGradient id="radial-gradient-47" cx="-521.6" cy="593.6" r="32.2" fx="-521.6" fy="593.6" gradientTransform="matrix(-.5 0 0 -2.4 574.9 1151.3)" gradientUnits="userSpaceOnUse"><stop offset="0" stop-color="#fff3c8"/><stop offset="1" stop-color="#f0c61c"/></radialGradient><radialGradient id="radial-gradient-48" cx="-521.6" cy="593.6" r="32.2" fx="-521.6" fy="593.6" gradientTransform="matrix(-.5 0 0 -2.4 574.9 1151.3)" gradientUnits="userSpaceOnUse"><stop offset="0" stop-color="#fff3c8"/><stop offset="1" stop-color="#f0c61c"/></radialGradient><radialGradient id="radial-gradient-49" cx="-521.6" cy="593.6" r="32.2" fx="-521.6" fy="593.6" gradientTransform="matrix(-.5 0 0 -2.4 579.5 1152.2)" gradientUnits="userSpaceOnUse"><stop offset="0" stop-color="#fff3c8"/><stop offset="1" stop-color="#f0c61c"/></radialGradient><radialGradient id="radial-gradient-50" cx="-521.6" cy="593.6" r="32.2" fx="-521.6" fy="593.6" gradientTransform="matrix(-.5 0 0 -2.4 579.5 1152.2)" gradientUnits="userSpaceOnUse"><stop offset="0" stop-color="#fff3c8"/><stop offset="1" stop-color="#f0c61c"/></radialGradient><radialGradient id="radial-gradient-51" cx="-521.6" cy="593.6" r="32.2" fx="-521.6" fy="593.6" gradientTransform="matrix(-.5 0 0 -2.4 579.5 1152.2)" gradientUnits="userSpaceOnUse"><stop offset="0" stop-color="#fff3c8"/><stop offset="1" stop-color="#f0c61c"/></radialGradient><radialGradient id="radial-gradient-52" cx="-521.6" cy="593.6" r="32.2" fx="-521.6" fy="593.6" gradientTransform="matrix(-.5 0 0 -2.4 579.5 1152.2)" gradientUnits="userSpaceOnUse"><stop offset="0" stop-color="#fff3c8"/><stop offset="1" stop-color="#f0c61c"/></radialGradient><style>.cls-11,.cls-23,.cls-24,.cls-31,.cls-34,.cls-36,.cls-46,.cls-60{fill-rule:evenodd}.cls-46{stroke:#540;stroke-width:.5px}.cls-61{stroke-width:.4px}.cls-11,.cls-23,.cls-31,.cls-34,.cls-36,.cls-60,.cls-61,.cls-62,.cls-63,.cls-66,.cls-67,.cls-69,.cls-70,.cls-73{stroke:#000}.cls-61,.cls-62,.cls-66{fill:#fff}.cls-61,.cls-62,.cls-66,.cls-74{fill-opacity:1}.cls-63,.cls-76,.cls-77,.cls-80,.cls-81,.cls-82{fill:none}.cls-11,.cls-31,.cls-34,.cls-70,.cls-76,.cls-80,.cls-82{stroke-linecap:round}.cls-66,.cls-67,.cls-69,.cls-73,.cls-76,.cls-77,.cls-80,.cls-81,.cls-82,.cls-83{stroke-miterlimit:2.5}.cls-77,.cls-80,.cls-81,.cls-83{stroke:#010101}.cls-62{stroke-width:.7px}.cls-76{stroke:#1a0f05;stroke-width:.5px}.cls-63{stroke-width:1px}.cls-11,.cls-60,.cls-63,.cls-70{stroke-miterlimit:3}.cls-11,.cls-24,.cls-36,.cls-60,.cls-69,.cls-70{fill:#a05a2c}.cls-11,.cls-60,.cls-70{stroke-width:.7px}.cls-23,.cls-31,.cls-34{fill:#eac102}.cls-31,.cls-34{stroke-linejoin:round}.cls-66{stroke-width:.9px}.cls-67{fill:#3c2415}.cls-67,.cls-69,.cls-73,.cls-80,.cls-84{stroke-width:.6px}.cls-23,.cls-31{stroke-width:1.3px}.cls-24,.cls-74,.cls-85,.cls-87,.cls-88{stroke-width:0}.cls-74,.cls-85{fill:#fc0}.cls-77{stroke-width:2.2px}.cls-34{stroke-width:1.3px}.cls-36{stroke-miterlimit:3.2;stroke-width:.7px}.cls-84{fill:#f6e078;stroke:#231f20;stroke-miterlimit:6.2}.cls-83{fill:#fffdf2;stroke-width:1.2px}.cls-87{fill:#c70002}.cls-46{fill:#fd5}.cls-81{stroke-width:.6px}.cls-82{stroke:#3c2415;stroke-width:.5px}.cls-73{fill:#231f20}.cls-88{fill:navy}</style></defs><path id="rect10400" fill="#00a" stroke-width="0" d="M0 0h1000v500H0z"/><path id="rect3350-2" d="M530 0h15v500h-15z" class="cls-74"/><rect id="rect3603" width="1000" height="15" x="0" y="210" class="cls-85" rx=".1" ry=".1"/><rect id="rect3603-0" width="1000" height="15" x="0" y="287.5" class="cls-85" rx=".1" ry=".1"/><rect id="rect3428" width="80" height="500" x="450" class="cls-87" rx="0" ry="0"/><path id="rect3447" d="M0 0h1000v20H0z" class="cls-88"/><path id="rect3468" d="M0 0v20h164.3l11.2-10 11.2-10zm186.7 0v19.8h-11.2c0 .1-11.2.2-11.2.2h22.4z" class="cls-85"/><path id="rect3468-5" d="M351.3 0v19.9H498l10-9.9 10-9.9H351.3ZM498 19.9h.3zm-146.7 0V.1l-20 19.9h20z" class="cls-85"/><path id="rect3468-5-4-0" d="M679.7 0v19.9h146.7l10-9.9 10-9.9H679.7Zm146.6 19.9h.3zm-146.6 0V.1l-20 19.9h20z" class="cls-85"/><path id="rect3350" d="M435 0h15v500h-15z" class="cls-74"/><path id="rect3447-3" d="M.3 480h1000v20H.3z" class="cls-88"/><rect id="rect3428-4" width="1000" height="62.5" y="225" class="cls-87" rx=".1" ry=".1"/><path id="path3511" d="M980 250V0h20v500h-20z" class="cls-88"/><path id="rect3468-5-4-7" d="M980.3 480v19.9H833.6l-10-9.9-10-9.9h166.7Zm-146.6 19.9h-.3zm146.6 0v-19.8l20 19.9h-20Z" class="cls-85"/><path id="rect3468-5-4-7-1" d="M334.8 480v19.9H188.1l-10-9.9-10-9.9h166.7Zm-146.6 19.9h-.3zm146.6 0v-19.8l20 19.9h-20Z" class="cls-85"/><path id="rect3468-5-4-7-3" d="M655.3 480v19.9H508.6l-10-9.9-10-9.9h166.7Zm-146.6 19.9h-.3zm146.6 0v-19.8l20 19.9h-20Z" class="cls-85"/><path id="rect3468-5-4-03" d="M980 249.5v15.1h.1l18.5 3.6-18.5-3.6v110.9l9.9 9.5 9.9 9.5V269.6l-.1-19.9h-19.7l-.2-.2Zm.1 126v.2z" class="cls-85"/><path id="path10406" fill="none" stroke="#000" stroke-miterlimit="5" stroke-width="1" d="m0 20.1 981.4-.7L980 480l-980.7-.8 1.4.7"/><path id="rect3468-5-4" d="m980 18.3 19.9-3.9v110.9l-9.9 9.5-9.9 9.5v-126Zm19.9 107v.2zm0-110.8-19.8 3.8 19.9-19v15.1h-.1Z" class="cls-85"/><g id="g28419"><g id="g28421"><path id="path28423" fill="url(#radial-gradient)" fill-rule="evenodd" stroke="#2b2200" stroke-width="1" d="M811.9 340.2c-.4 2.6-3.3 5-3.3 5s2.1-.8 3-.8c1.2 0 3.8 1.5 3.8 1.5s-2.3 3.7-3.8 4.9c-1.4 1.2-5.3 2.9-5.3 2.9s1.8-.2 2.5 0c1.1.2 3.5 1.4 3.5 1.4s-2.5 3-3.8 4c-1.7 1.4-6.5 4-6.5 4l3.4-1.4 3.8.6s-2.5 3.8-4.2 5.5c-2 2-6.3 5.2-6.3 5.2l5.5-1s-2 3.4-3.2 4.6c-1.9 1.9-6.6 5.3-6.6 5.3l3.1-1h3.1s-2.3 4.6-4.1 5.9c-1.9 1.5-4.9 3.4-4.9 3.4l-30.9 79.1c-2.6 1.4-4 .4-4.9-1.7l31.7-79.3s-1.3-2.7-1.7-5c-.4-2.1.6-7.1.6-7.1l3.1 2.1 1.3 2s-1.5-5.1-1.7-7.7c0-1.6.8-5.4.8-5.4l3.8 3.8s-1.4-4.7-1.5-7.5c-.1-2.3.8-7.1.8-7.1l3.3 1.9 1.7 3.1s-1.9-4.7-2.2-6.9c-.3-1.6-.1-5.4-.1-5.4s2.7.5 3.7 1c.7.3 1.9 1.5 1.9 1.5s-1.8-3.6-2-5.3c-.3-1.8.5-6.1.5-6.1s3 .4 4 1.1c.7.5 1.7 2.3 1.7 2.3s-.5-3.2.9-5.4l5.9-6.7s.1 6.1-.3 8.5Zm-.6-5.8Z"/><g id="g28425"><g id="g28427"><path id="path28429" fill="url(#radial-gradient-2)" fill-rule="evenodd" stroke="#2b2200" stroke-width="1" d="M810.8 339.2c-1.9 2-2 5.5-2 5.5s-.6-2-1.3-2.6c-.8-.8-3.6-1.8-3.6-1.8s-1.6 4-1.7 5.8c-.1 1.7.9 5.7.9 5.7s-1-1.4-1.6-1.9c-.9-.7-3.4-1.6-3.4-1.6s-.9 3.7-1 5.3c0 2.1.7 7.2.7 7.2l-1-3.4-2.9-2.4s-1.6 4.2-2 6.5c-.4 2.7-.3 7.8-.3 7.8l-2.6-4.7s-1.6 3.6-1.9 5.2c-.4 2.5-.2 8.1-.2 8.1l-1.2-2.9-2-2.2s-2.4 4.6-2.4 6.7c0 2.3.2 5.7.2 5.7l-18.3 26.7c.5 2.7 2.2 3.2 4.5 2.5l17.9-27.4s3.1-.8 5.3-1.9c2-1 5.5-4.9 5.5-4.9l-3.7-.9-2.5.3s5.2-2.1 7.5-3.6c1.4-1 4.1-4 4.1-4l-5.6-.3s4.8-2 7.2-3.6c2-1.4 5.4-5 5.4-5l-3.7-1.2-3.7.8s5.1-1.6 7.1-2.7c1.5-.8 4.6-3.3 4.6-3.3s-2.1-1.6-3.1-2c-.7-.3-2.5-.4-2.5-.4s4.2-1 5.7-1.9c1.7-.9 4.8-4.2 4.8-4.2s-2.2-1.9-3.4-2.2c-.9-.2-3 .2-3 .2s3-1.6 4-4.1c.9-2.3 1.8-8.4 1.8-8.4s-5 3.6-6.7 5.4Z"/></g><path id="path28431" fill="url(#radial-gradient-3)" fill-rule="evenodd" stroke="#2b2200" stroke-width="1" d="M815.9 342.7c-1.9 2-2 5.5-2 5.5s-.6-2-1.3-2.6c-.8-.8-3.6-1.8-3.6-1.8s-1.6 4-1.7 5.8c-.1 1.7.9 5.7.9 5.7s-1-1.4-1.6-1.9c-.9-.7-3.4-1.6-3.4-1.6s-.9 3.7-1 5.3c0 2.1.7 7.2.7 7.2l-1-3.4-2.9-2.4s-1.6 4.2-2 6.5c-.4 2.7-.3 7.8-.3 7.8l-2.6-4.7s-1.6 3.6-1.9 5.2c-.4 2.5-.2 8.1-.2 8.1l-1.2-2.9-2-2.2s-2.4 4.6-2.4 6.7c0 2.3.2 5.7.2 5.7l-18.3 26.7c.5 2.7 2.2 3.2 4.5 2.5l18.4-26.9 4.8-2.4c2-1 5.5-4.9 5.5-4.9l-3.7-.9-2.5.3s5.2-2.1 7.5-3.6c1.4-1 4.1-4 4.1-4l-5.6-.3s4.8-2 7.2-3.6c2-1.4 5.4-5 5.4-5l-3.7-1.2-3.7.8s5.1-1.6 7.1-2.7c1.5-.8 4.6-3.3 4.6-3.3s-2.1-1.6-3.1-2c-.7-.3-2.5-.4-2.5-.4s4.2-1 5.7-1.9c1.7-.9 4.8-4.2 4.8-4.2s-2.2-1.9-3.4-2.2c-.9-.2-3 .2-3 .2s3-1.6 4-4.1c.9-2.3 1.8-8.4 1.8-8.4s-5 3.6-6.7 5.4Z"/></g><g id="g28433"><g id="g28435"><path id="path28437" fill="url(#radial-gradient-4)" fill-rule="evenodd" stroke="#2b2200" stroke-width="1" d="M718.8 337.4c1.9 2 2 5.5 2 5.5s.6-2 1.3-2.6c.8-.8 3.6-1.8 3.6-1.8s1.6 4 1.7 5.8c.1 1.7-.9 5.7-.9 5.7s1-1.4 1.6-1.9c.9-.7 3.4-1.6 3.4-1.6s.9 3.7 1 5.3c0 2.1-.7 7.2-.7 7.2l1-3.4 2.9-2.4s1.6 4.2 2 6.5c.4 2.7.3 7.8.3 7.8l2.6-4.7s1.6 3.6 1.9 5.2c.4 2.5.2 8.1.2 8.1l1.2-2.9 2-2.2s2.4 4.6 2.4 6.7c0 2.3-.2 5.7-.2 5.7l18.3 26.7c-.5 2.7-2.2 3.2-4.5 2.5L744 385.2s-3.1-.8-5.3-1.9c-2-1-5.5-4.9-5.5-4.9l3.7-.9 2.5.3s-5.2-2.1-7.5-3.6c-1.4-1-4.1-4-4.1-4l5.6-.3s-4.8-2-7.2-3.6c-2-1.4-5.4-5-5.4-5l3.7-1.2 3.7.8s-5.1-1.6-7.1-2.7c-1.5-.8-4.6-3.3-4.6-3.3s2.1-1.6 3.1-2c.7-.3 2.5-.4 2.5-.4s-4.2-1-5.7-1.9c-1.7-.9-4.8-4.2-4.8-4.2s2.2-1.9 3.4-2.2c.9-.2 3 .2 3 .2s-3-1.6-4-4.1c-.9-2.3-1.8-8.4-1.8-8.4s5 3.6 6.7 5.4Z"/></g><path id="path28439" fill="url(#radial-gradient-5)" fill-rule="evenodd" stroke="#2b2200" stroke-width="1" d="M713.7 340.9c1.9 2 2 5.5 2 5.5s.6-2 1.3-2.6c.8-.8 3.6-1.8 3.6-1.8s1.6 4 1.7 5.8c.1 1.7-.9 5.7-.9 5.7s1-1.4 1.6-1.9c.9-.7 3.4-1.6 3.4-1.6s.9 3.7 1 5.3c0 2.1-.7 7.2-.7 7.2l1-3.4 2.9-2.4s1.6 4.2 2 6.5c.4 2.7.3 7.8.3 7.8l2.6-4.7s1.6 3.6 1.9 5.2c.4 2.5.2 8.1.2 8.1l1.2-2.9 2-2.2s2.4 4.6 2.4 6.7c0 2.3-.2 5.7-.2 5.7l18.3 26.7c-.5 2.7-2.2 3.2-4.5 2.5L738 389.4s-2.3-1.4-4.5-2.6c-2-1-5.5-4.9-5.5-4.9l3.7-.9 2.5.3s-5.2-2.1-7.5-3.6c-1.4-1-4.1-4-4.1-4l5.6-.3s-4.8-2-7.2-3.6c-2-1.4-5.4-5-5.4-5l3.7-1.2 3.7.8s-5.1-1.6-7.1-2.7c-1.5-.8-4.6-3.3-4.6-3.3s2.1-1.6 3.1-2c.7-.3 2.5-.4 2.5-.4s-4.2-1-5.7-1.9c-1.7-.9-4.8-4.2-4.8-4.2s2.2-1.9 3.4-2.2c.9-.2 3 .2 3 .2s-3-1.6-4-4.1c-.9-2.3-1.8-8.4-1.8-8.4s5 3.6 6.7 5.4Z"/></g><g id="g28441"><g id="g28443"><path id="path28445" fill="url(#radial-gradient-6)" fill-rule="evenodd" stroke="#2b2200" stroke-width="1" d="M724.1 337.5c.5 2.6 3.3 4.9 3.3 4.9s-2.1-.8-3-.7c-1.2 0-3.8 1.5-3.8 1.5s2.3 3.7 3.8 4.9c1.4 1.1 5.3 2.9 5.3 2.9s-1.8-.2-2.5 0c-1.1.2-3.5 1.4-3.5 1.4s2.5 2.9 3.8 4c1.7 1.4 6.5 3.9 6.5 3.9l-3.4-1.4-3.8.6s2.5 3.8 4.2 5.5c2 2 6.4 5.1 6.4 5.1l-5.5-1s2 3.4 3.2 4.6c1.9 1.9 6.6 5.2 6.6 5.2l-3.1-.9h-3.1s2.3 4.6 4.1 5.9c1.9 1.5 4.9 3.4 4.9 3.4l30.6 80c2.6 1.4 4 .4 4.9-1.7l-31-80.3s.9-2.6 1.4-4.9c.4-2.1-.7-7.1-.7-7.1l-3.1 2.2-1.3 2s1.5-5.1 1.6-7.7c0-1.6-.8-5.4-.8-5.4l-3.7 3.8s1.4-4.7 1.5-7.5c.1-2.3-.8-7.1-.8-7.1l-3.3 1.9-1.6 3.1s1.8-4.7 2.2-6.9c.3-1.6 0-5.4 0-5.4s-2.7.5-3.7 1c-.7.3-1.8 1.5-1.8 1.5s1.8-3.6 2-5.3c.3-1.8-.5-6.1-.5-6.1s-3 .5-4 1.1c-.7.5-1.7 2.4-1.7 2.4s.5-3.2-.9-5.4l-5.9-6.7s0 6.1.3 8.5Zm.6-5.8Z"/><path id="path28447" fill="url(#radial-gradient-7)" fill-rule="evenodd" stroke="#2b2200" stroke-width="1" d="M732.1 333.1c.5 2.6 3.3 4.9 3.3 4.9s-2.1-.8-3-.7c-1.2 0-3.8 1.5-3.8 1.5s2.3 3.7 3.8 4.9c1.4 1.1 5.3 2.9 5.3 2.9s-1.8-.2-2.5 0c-1.1.2-3.5 1.4-3.5 1.4s2.5 2.9 3.8 4c1.7 1.4 6.5 3.9 6.5 3.9l-3.4-1.4-3.8.6s2.5 3.8 4.2 5.5c2 2 6.4 5.1 6.4 5.1l-5.5-1s2 3.4 3.2 4.6c1.9 1.9 6.6 5.2 6.6 5.2l-3.1-.9h-3.1s2.3 4.6 4.1 5.9c1.9 1.5 4.9 3.4 4.9 3.4l33 82.7c2.6 1.4 4 .4 4.9-1.7L756.6 381s1.3-2.7 1.7-5c.4-2.1-.7-7.1-.7-7.1l-3.1 2.2-1.3 2s1.5-5.1 1.6-7.7c0-1.6-.8-5.4-.8-5.4l-3.7 3.8s1.4-4.7 1.5-7.5c.1-2.3-.8-7.1-.8-7.1l-3.3 1.9-1.6 3.1s1.8-4.7 2.2-6.9c.3-1.6 0-5.4 0-5.4s-2.7.5-3.7 1c-.7.3-1.8 1.5-1.8 1.5s1.8-3.6 2-5.3c.3-1.8-.5-6.1-.5-6.1s-3 .5-4 1.1c-.7.5-1.7 2.4-1.7 2.4s.5-3.2-.9-5.4l-5.9-6.7s0 6.1.3 8.5Zm.6-5.8Z"/><path id="path28449" fill="url(#radial-gradient-8)" fill-rule="evenodd" stroke="#2b2200" stroke-width="1" d="M740.2 330.6c.5 2.6 3.3 4.9 3.3 4.9s-2.1-.8-3-.7c-1.2 0-3.1 2.9-3.1 2.9s1.6 2.3 3.1 3.5c1.4 1.1 5.3 2.9 5.3 2.9s-1.8-.2-2.5 0c-1.1.2-3.5 1.4-3.5 1.4s2.5 2.9 3.8 4c1.7 1.4 6.5 3.9 6.5 3.9l-3.4-1.4-3.8.6s2.5 3.8 4.2 5.5c2 2 6.4 5.1 6.4 5.1l-5.5-1s2 3.4 3.2 4.6c1.9 1.9 6.6 5.2 6.6 5.2l-3.1-.9h-3.1s2.3 4.6 4.1 5.9c1.9 1.5 4.9 3.4 4.9 3.4l32.2 80.9c2.6 1.4 4 .4 4.9-1.7l-33-81.1s1.3-2.7 1.7-5c.4-2.1-.7-7.1-.7-7.1l-3.1 2.2-1.3 2s1.5-5.1 1.6-7.7c0-1.6-.8-5.4-.8-5.4l-3.7 3.8s1.4-4.7 1.5-7.5c.1-2.3-.8-7.1-.8-7.1l-3.3 1.9-1.6 3.1s1.8-4.7 2.2-6.9c.3-1.6 0-5.4 0-5.4s-2.7.5-3.7 1c-.7.3-1.8 1.5-1.8 1.5s1.8-3.6 2-5.3c.3-1.8-.5-6.1-.5-6.1s-3 .5-4 1.1c-.7.5-1.7 2.4-1.7 2.4s.5-3.2-.9-5.4l-5.9-6.7s0 6.1.3 8.5Zm.5-5.8Z"/><path id="path28451" fill="url(#radial-gradient-9)" fill-rule="evenodd" stroke="#2b2200" stroke-width="1" d="M748.7 328.6c.5 2.6 3.3 4.9 3.3 4.9s-2.1-.8-3-.7c-1.2 0-3.8 1.5-3.8 1.5s2.3 3.7 3.8 4.9c1.4 1.1 5.3 2.9 5.3 2.9s-1.8-.2-2.5 0c-1.1.2-3.5 1.4-3.5 1.4s2.5 2.9 3.8 4c1.7 1.4 6.5 3.9 6.5 3.9l-3.4-1.4-3.8.6s2.5 3.8 4.2 5.5c2 2 6.4 5.1 6.4 5.1l-5.5-1s2 3.4 3.2 4.6c1.9 1.9 6.6 5.2 6.6 5.2l-3.1-.9h-3.1s2.3 4.6 4.1 5.9c1.9 1.5 4.9 3.4 4.9 3.4l31.4 78.9c2.6 1.4 4 .4 4.9-1.7l-32.2-79.1s1.3-2.7 1.7-5c.4-2.1-.7-7.1-.7-7.1l-3.1 2.2-1.3 2s1.5-5.1 1.6-7.7c0-1.6-.8-5.4-.8-5.4l-3.7 3.8s1.4-4.7 1.5-7.5c.1-2.3-.8-7.1-.8-7.1l-3.3 1.9-1.6 3.1s1.8-4.7 2.2-6.9c.3-1.6 0-5.4 0-5.4s-2.7.5-3.7 1c-.7.3-1.8 1.5-1.8 1.5s1.8-3.6 2-5.3c.3-1.8-.5-6.1-.5-6.1s-3 .5-4 1.1c-.7.5-1.7 2.4-1.7 2.4s.5-3.2-.9-5.4l-5.9-6.7s0 6.1.3 8.5Zm.6-5.8Z"/></g><g id="g28453"><path id="path28455" fill="url(#radial-gradient-10)" fill-rule="evenodd" stroke="#2b2200" stroke-width="1" d="M719.8 338.5c.5 2.6 3.3 4.9 3.3 4.9s-2.1-.8-3-.7c-1.2 0-3.8 1.5-3.8 1.5s2.3 3.7 3.8 4.9c1.4 1.1 5.3 2.9 5.3 2.9s-1.8-.2-2.5 0c-1.1.2-3.5 1.4-3.5 1.4s2.5 2.9 3.8 4c1.7 1.4 6.5 3.9 6.5 3.9l-3.4-1.4-3.8.6s2.5 3.8 4.2 5.5c2 2 6.4 5.1 6.4 5.1l-5.5-1s2 3.4 3.2 4.6c1.9 1.9 6.6 5.2 6.6 5.2l-3.1-.9h-3.1s2.3 4.6 4.1 5.9c1.9 1.5 6 3 6 3l28.7 80.6c2.6 1.4 4 .4 4.9-1.7l-29.7-80.6s.4-2.5.9-4.8c.4-2.1-.7-7.1-.7-7.1l1.8 1.6-1.3 2s-3.4-4.6-3.3-7.2c0-1.6-.8-5.4-.8-5.4l-.3 3.2s-2.1-4.1-1.9-6.9c.1-2.3-.8-7.1-.8-7.1l-3.3 1.9-1.6 3.1s1.8-4.7 2.2-6.9c.3-1.6 0-5.4 0-5.4s-2.7.5-3.7 1c-.7.3-1.8 1.5-1.8 1.5s1.8-3.6 2-5.3c.3-1.8-.5-6.1-.5-6.1s-3 .5-4 1.1c-.7.5-1.7 2.4-1.7 2.4s.5-3.2-.9-5.4l-5.9-6.7s0 6.1.3 8.5Zm.6-5.8Z"/><path id="path28457" fill="url(#radial-gradient-11)" fill-rule="evenodd" stroke="#2b2200" stroke-width="1" d="M727.9 334.1c.5 2.6 3.3 4.9 3.3 4.9s-2.1-.8-3-.7c-1.2 0-3.8 1.5-3.8 1.5s2.3 3.7 3.8 4.9c1.4 1.1 5.3 2.9 5.3 2.9s-1.8-.2-2.5 0c-1.1.2-3.5 1.4-3.5 1.4s2.5 2.9 3.8 4c1.7 1.4 6.5 3.9 6.5 3.9l-3.4-1.4-3.8.6s2.5 3.8 4.2 5.5c2 2 6.4 5.1 6.4 5.1l-5.5-1s2 3.4 3.2 4.6c1.9 1.9 6.6 5.2 6.6 5.2l-3.1-.9h-3.1s2.3 4.6 4.1 5.9c1.9 1.5 4.9 3.4 4.9 3.4l31.9 82.5c2.6 1.4 4 .4 4.9-1.7L752.4 382s1.3-2.7 1.7-5c.4-2.1-.7-7.1-.7-7.1l.6 1.5v1.6s-3.5-4-3.4-6.6c0-1.6-.8-5.4-.8-5.4l.9 4.4s-3.3-5.3-3.1-8c.1-2.3-.8-7.1-.8-7.1l-3.3 1.9-1.6 3.1s1.8-4.7 2.2-6.9c.3-1.6 0-5.4 0-5.4s-2.7.5-3.7 1c-.7.3-1.8 1.5-1.8 1.5s1.8-3.6 2-5.3c.3-1.8.7-3 .7-3s-3 .5-4 1.1c-.7.5-2.9-.7-2.9-.7s.5-3.2-.9-5.4l-5.9-6.7s0 6.1.3 8.5Zm.5-5.9Z"/><path id="path28459" fill="url(#radial-gradient-12)" fill-rule="evenodd" stroke="#2b2200" stroke-width="1" d="M735.9 331.6c.5 2.6 3.3 4.9 3.3 4.9s-2.1-.8-3-.7c-1.2 0-3.8 1.5-3.8 1.5s2.3 3.7 3.8 4.9c1.4 1.1 5.3 2.9 5.3 2.9s-1.8-.2-2.5 0c-1.1.2-3.5 1.4-3.5 1.4s2.5 2.9 3.8 4c1.7 1.4 6.5 3.9 6.5 3.9l-3.4-1.4-3.8.6s2.5 3.8 4.2 5.5c2 2 6.4 5.1 6.4 5.1l-5.5-1s2 3.4 3.2 4.6c1.9 1.9 6.6 5.2 6.6 5.2l-3.1-.9h-3.1s2.3 4.6 4.1 5.9c1.9 1.5 4.9 3.4 4.9 3.4l33 82.5c2.6 1.4 4 .4 4.9-1.7l-33.8-82.7s1.3-2.7 1.7-5c.4-2.1-.7-7.1-.7-7.1l-3.1 2.2-1.3 2s1.5-5.1 1.6-7.7c0-1.6-.8-5.4-.8-5.4l.6 3.8s-3-4.7-2.8-7.4c.1-2.3-.8-7.1-.8-7.1l-3.3 1.9 2.4 3.2s-2.2-4.8-1.9-6.9c.3-1.6 0-5.4 0-5.4s-2.7.5-3.7 1c-.7.3-1.8 1.5-1.8 1.5s1.8-3.6 2-5.3c.3-1.8 2.4-3.6 2.4-3.6s-3 .5-4 1.1c-.7.5-4.6-.1-4.6-.1s.8-2.5-.9-5.4l-5.9-6.7s0 6.1.3 8.5Zm.6-5.8Z"/><path id="path28461" fill="url(#radial-gradient-13)" fill-rule="evenodd" stroke="#2b2200" stroke-width="1" d="M744.4 329.6c.5 2.6 3.3 4.9 3.3 4.9s-2.1-.8-3-.7c-1.2 0-3.8 1.5-3.8 1.5s2.3 3.7 3.8 4.9c1.4 1.1 5.3 2.9 5.3 2.9s-1.8-.2-2.5 0c-1.1.2-3.5 1.4-3.5 1.4s2.5 2.9 3.8 4c1.7 1.4 6.5 3.9 6.5 3.9l-3.8-1-3.8.6s2.6 4.2 4.3 5.9c2 2 6.7 4.4 6.7 4.4l-5.5-1s2 3.4 3.2 4.6c1.9 1.9 6.6 5.2 6.6 5.2l-3.1-.9h-3.1s2.3 4.6 4.1 5.9c1.9 1.5 4.9 3.4 4.9 3.4l32.3 80c2.6 1.4 4 .4 4.9-1.7l-33.1-80.2s1.3-2.7 1.7-5c.4-2.1-.7-7.1-.7-7.1l-3.1 2.2-1.3 2s1.5-5.1 1.6-7.7c0-1.6-.8-5.4-.8-5.4l-3.7 3.8s1.4-4.7 1.5-7.5c.1-2.3-.8-7.1-.8-7.1l-3.3 1.9-1.6 3.1s1.8-4.7 2.2-6.9c.3-1.6 0-5.4 0-5.4s-2.7.5-3.7 1c-.7.3-1.8 1.5-1.8 1.5s1.8-3.6 2-5.3c.3-1.8-.5-6.1-.5-6.1s-3 .5-4 1.1c-.7.5-1.7 2.4-1.7 2.4s.5-3.2-.9-5.4l-5.9-6.7s0 6.1.3 8.5Zm.6-5.8Z"/></g></g><g id="g28463"><path id="path28465" fill="url(#radial-gradient-14)" fill-rule="evenodd" stroke="#2b2200" stroke-width="1" d="M754 325.2c-.2 2.7 2 5.8 2 5.8s-1.8-1.3-2.7-1.5c-1.2-.2-4 .7-4 .7s1.4 4.3 2.5 5.8c1 1.5 4.5 4.1 4.5 4.1s-1.7-.6-2.5-.6c-1.1 0-3.7.6-3.7.6s1.7 3.6 2.7 4.9c1.3 1.8 6.1 7.1 6.1 7.1l-4.3-1.6-2.9-.6s0 3.8 1.3 6c1.5 2.5 3 6.2 3 6.2l-2-.8-4.3-.2s1.6 3.9 3.1 4.9c3.6 2.3 8.1 5.3 8.1 5.3l-2.8-1.7-4.8-.5s2 5.2 3.4 7c1.5 1.9 4.9 4.3 4.9 4.3l2.6 49.3c2.2 2 3.8 1.3 5.2-.6l-3.3-49.7s1.9-2.5 2.9-4.7c.9-2 1.1-7.3 1.1-7.3l-3.5 1.5-1.8 1.7s2.7-4.8 3.5-7.4c.5-1.6.6-5.7.6-5.7l-4.6 3s2.5-4.5 3.3-7.2c.7-2.3 1-7.3 1-7.3l-3.7 1.1-2.4 2.8s3-4.4 3.8-6.4c.6-1.6 1.4-5.5 1.4-5.5s-2.7-.1-3.8.2c-.7.2-2.2 1.1-2.2 1.1s2.6-3.3 3.3-4.9c.7-1.8 1-6.3 1-6.3s-3-.2-4.1.2c-.8.3-2.2 2-2.2 2s1.3-3.1.4-5.7l-4.1-8.2s-1.6 6.1-1.8 8.6Zm2-5.8Z"/><path id="path28467" fill="url(#radial-gradient-15)" fill-rule="evenodd" stroke="#2b2200" stroke-width="1" d="M770.1 324.9c-.8 2.6.6 6.1.6 6.1s-1.5-1.6-2.3-2c-1.1-.4-4.1-.2-4.1-.2s.3 4.4 1.1 6.2c.7 1.6 3.4 4.9 3.4 4.9s-1.5-.9-2.3-1.1c-1.1-.3-3.8-.1-3.8-.1s.8 3.8 1.5 5.4c.9 2.1 3.9 6.5 3.9 6.5l-2.4-2.8-3.7-1.1s.4 4.7 1.2 7c.9 2.7 3.3 7.5 3.3 7.5l-4.5-3.3s.1 4.1.6 5.7c.8 2.6 3.4 7.7 3.4 7.7l-2.4-2.2-2.8-1.3s0 5.3.9 7.3c1 2.2 2.8 5.3 2.8 5.3l-7 61.9c1.7 2.4 3.4 2.1 5.2.5l6.3-62.4s2.4-2 3.9-4c1.3-1.8 2.8-6.9 2.8-6.9l-3.8.7-2.1 1.3s3.8-4.2 5.1-6.5c.9-1.5 1.9-5.5 1.9-5.5l-5.2 2s3.5-3.9 4.9-6.4c1.2-2.1 2.6-7 2.6-7l-3.9.4-3 2.3s3.9-3.7 5.2-5.5c1-1.4 2.6-5 2.6-5s-2.6-.7-3.8-.6c-.8 0-2.4.7-2.4.7s3.3-2.7 4.3-4.1c1.1-1.6 2.4-5.9 2.4-5.9s-2.9-.8-4.1-.6c-.9.2-2.7 1.5-2.7 1.5s2-2.8 1.8-5.5l-2.1-8.8s-3 5.7-3.7 8.1Zm3.3-5.2Z"/><path id="path28469" fill="url(#radial-gradient-16)" fill-rule="evenodd" stroke="#2b2200" stroke-width="1" d="M762.6 324.4c-.5 2.7 1.3 6 1.3 6s-1.7-1.5-2.5-1.7c-1.2-.3-4.1.2-4.1.2s.8 4.4 1.7 6c.8 1.6 3.9 4.6 3.9 4.6s-1.6-.8-2.4-.9c-1.1-.2-3.8.2-3.8.2s1.2 3.7 2.1 5.2c1.1 2 5.7 5.9 5.7 5.9s-2.5-1.9-3.8-2.3c-1.1-.4-3.8-.7-3.8-.7s.9 4.6 1.9 6.8c1.1 2.6 4.1 7.2 4.1 7.2l-1.1-1.1s.6 4 1.3 5.6c1.1 2.5.5 5.6.5 5.6l-2.6-2-2.9-1s.5 5.2 1.6 7.1c1.3 2.1 3.3 5 3.3 5l-.3 88.8c1.9 2.2 3.6 1.7 5.2 0l-.4-89.2s2.2-2.3 3.5-4.3c1.1-1.9 2-7.1 2-7.1l-3.7 1.1-2 1.5s3.3-4.5 4.4-7c.7-1.6 1.3-5.6 1.3-5.6l-4.9 2.5s3-4.2 4.2-6.8c1-2.2 1.9-7.2 1.9-7.2l-3.8.7-2.7 2.5s3.5-4 4.6-6c.8-1.5 2.1-5.3 2.1-5.3s-1.6-.4-2.7-.2c-.7.1 3.6-.6 3.6-.6s-4-1.5-3.2-3.1c.9-1.7 1.8-6.1 1.8-6.1s-3-.6-4.1-.2c-.9.2-2.5 1.7-2.5 1.7s1.7-2.9 1.1-5.6l-3.1-8.5s-2.3 5.9-2.8 8.4Zm2.7-5.5Z"/></g><g id="g28471"><g id="g28473"><path id="path28475" fill="url(#radial-gradient-17)" fill-rule="evenodd" stroke="#2b2200" stroke-width="1" d="M804 336.6c-.5 2.6-3.4 5-3.4 5s2.1-.8 3-.8c1.3 0 3.8 1.5 3.8 1.5s-2.4 3.7-3.8 4.9-5.4 2.9-5.4 2.9 1.8-.2 2.6 0c1.1.2 3.5 1.4 3.5 1.4s-2.5 3-3.9 4.1c-1.8 1.4-6.6 4-6.6 4l3.5-1.4 3.9.6s-2.6 3.9-4.3 5.6c-2 2-6.5 5.2-6.5 5.2l5.6-1s-2 3.5-3.2 4.7c-1.9 1.9-6.7 5.3-6.7 5.3l3.2-1h3.1s-2.4 4.7-4.1 6c-2 1.5-5 3.4-5 3.4l-31.8 80.7c-2.6 1.4-4.1.4-5-1.7l32.6-81s-1.3-2.8-1.7-5.1c-.4-2.1.7-7.1.7-7.1l3.1 2.2 1.3 2s-1.5-5.2-1.6-7.8c0-1.7.8-5.5.8-5.5l3.8 3.9s-1.4-4.8-1.5-7.6c-.1-2.3.8-7.1.8-7.1l3.4 1.9 1.7 3.2s-1.9-4.8-2.2-6.9c-.3-1.6 0-5.5 0-5.5s2.7.5 3.7 1c.7.3 1.9 1.6 1.9 1.6s-1.8-3.7-2-5.4c-.3-1.8.5-6.1.5-6.1s3 .5 4 1.1c.8.5 1.7 2.4 1.7 2.4s-.5-3.2.9-5.5l6-6.8s0 6.1-.4 8.6Zm-.6-5.9Z"/><path id="path28477" fill="url(#radial-gradient-18)" fill-rule="evenodd" stroke="#2b2200" stroke-width="1" d="M795.8 332.1c-.5 2.6-3.4 5-3.4 5s2.1-.8 3-.8c1.3 0 3.8 1.5 3.8 1.5s-2.4 3.7-3.8 4.9-5.4 2.9-5.4 2.9 1.8-.2 2.6 0c1.1.2 3.5 1.4 3.5 1.4s-2.5 3-3.9 4.1c-1.8 1.4-6.6 4-6.6 4l3.5-1.4 3.9.6s-2.6 3.9-4.3 5.6c-2 2-6.5 5.2-6.5 5.2l5.6-1s-2 3.5-3.2 4.7c-1.9 1.9-6.7 5.3-6.7 5.3l3.2-1h3.1s-2.4 4.7-4.1 6c-2 1.5-5 3.4-5 3.4l-33.4 83.6c-2.6 1.4-4.1.4-5-1.7l34.2-83.8s-1.3-2.8-1.7-5.1c-.4-2.1.7-7.1.7-7.1l3.1 2.2 1.3 2s-1.5-5.2-1.6-7.8c0-1.7.8-5.5.8-5.5l3.8 3.9s-1.4-4.8-1.5-7.6c-.1-2.3.8-7.1.8-7.1l3.4 1.9 1.7 3.2s-1.9-4.8-2.2-6.9c-.3-1.6 0-5.5 0-5.5s2.7.5 3.7 1c.7.3 1.9 1.6 1.9 1.6s-1.8-3.7-2-5.4c-.3-1.8-1-4.6-1-4.6s3 .5 4 1.1c.8.5 3.3.9 3.3.9s-.5-3.2.9-5.5l6-6.8s0 6.1-.4 8.6Zm-.6-5.9Z"/><path id="path28479" fill="url(#radial-gradient-19)" fill-rule="evenodd" stroke="#2b2200" stroke-width="1" d="M787.7 329.6c-.5 2.6-3.4 5-3.4 5s2.1-.8 3-.8c1.3 0 3.8 1.5 3.8 1.5s-2.4 3.7-3.8 4.9-5.4 2.9-5.4 2.9 1.8-.2 2.6 0c1.1.2 3.5 1.4 3.5 1.4s-2.5 3-3.9 4.1c-1.8 1.4-6.6 4-6.6 4l3.5-1.4 3.9.6s-2.6 3.9-4.3 5.6c-2 2-6.5 5.2-6.5 5.2l5.6-1s-2 3.5-3.2 4.7c-1.9 1.9-6.7 5.3-6.7 5.3l3.2-1h3.1s-2.4 4.7-4.1 6c-2 1.5-5 3.4-5 3.4l-32.6 81.7c-2.6 1.4-4.1.4-5-1.7l33.4-82s-1.3-2.8-1.7-5.1c-.4-2.1.7-7.1.7-7.1l1.8 2.6-1.1-1.3s2.2-2.3 2.1-4.9c0-1.7.8-5.5.8-5.5l-.6 4s3.1-4.9 2.9-7.7c-.1-2.3.8-7.1.8-7.1l3.4 1.9-.6 3.2s.4-4.8 0-6.9c-.3-1.6 0-5.5 0-5.5s2.7.5 3.7 1c.7.3 1.9 1.6 1.9 1.6s-1.8-3.7-2-5.4c-.3-1.8-2.7-4-2.7-4s3 .5 4 1.1c.8.5 5 .2 5 .2s-.5-3.2.9-5.5l6-6.8s0 6.1-.4 8.6Zm-.6-5.9Z"/></g><g id="g28481"><path id="path28483" fill="url(#radial-gradient-20)" fill-rule="evenodd" stroke="#2b2200" stroke-width="1" d="M808.5 337.5c-.5 2.6-3.4 5-3.4 5s2.1-.8 3-.8c1.3 0 3.8 1.5 3.8 1.5s-2.4 3.7-3.8 4.9-5.4 2.9-5.4 2.9 1.8-.2 2.6 0c1.1.2 3.5 1.4 3.5 1.4s-2.5 3-3.9 4.1c-1.8 1.4-6.6 4-6.6 4l3.5-1.4 3.9.6s-2.6 3.9-4.3 5.6c-2 2-6.5 5.2-6.5 5.2l5.6-1s-2 3.5-3.2 4.7c-1.9 1.9-6.7 5.3-6.7 5.3l3.2-1h3.1s-2.4 4.7-4.1 6c-2 1.5-5 3.4-5 3.4L756 468.6c-2.6 1.4-4.1.4-5-1.7l32.6-81s-1.3-2.8-1.7-5.1c-.4-2.1.7-7.1.7-7.1l3.1 2.2 1.3 2s-1.5-5.2-1.6-7.8c0-1.7.8-5.5.8-5.5l3.8 3.9s-1.4-4.8-1.5-7.6c-.1-2.3.8-7.1.8-7.1l3.4 1.9 1.7 3.2s-1.9-4.8-2.2-6.9c-.3-1.6 0-5.5 0-5.5s2.7.5 3.7 1c.7.3 1.9 1.6 1.9 1.6s-1.8-3.7-2-5.4c-.3-1.8.5-6.1.5-6.1s3 .5 4 1.1c.8.5 1.7 2.4 1.7 2.4s-.5-3.2.9-5.5l6-6.8s0 6.1-.4 8.6Zm-.6-5.9Z"/><path id="path28485" fill="url(#radial-gradient-21)" fill-rule="evenodd" stroke="#2b2200" stroke-width="1" d="M800.4 333c-.5 2.6-3.4 5-3.4 5s2.1-.8 3-.8c1.3 0 3.8 1.5 3.8 1.5s-2.4 3.7-3.8 4.9-5.4 2.9-5.4 2.9 1.8-.2 2.6 0c1.1.2 3.5 1.4 3.5 1.4s-2.5 3-3.9 4.1c-1.8 1.4-6.6 4-6.6 4l3.5-1.4 3.9.6s-2.6 3.9-4.3 5.6c-2 2-6.5 5.2-6.5 5.2l5.6-1s-2 3.5-3.2 4.7c-1.9 1.9-6.7 5.3-6.7 5.3l3.2-1h3.1s-2.4 4.7-4.1 6c-2 1.5-5 3.4-5 3.4L746.3 467c-2.6 1.4-4.1.4-5-1.7l34.2-83.8s-1.3-2.8-1.7-5.1c-.4-2.1.7-7.1.7-7.1l3.1 2.2 1.3 2s-1.5-5.2-1.6-7.8c0-1.7.8-5.5.8-5.5l3.8 3.9s-1.4-4.8-1.5-7.6c-.1-2.3.8-7.1.8-7.1l3.4 1.9 1.7 3.2s-1.9-4.8-2.2-6.9c-.3-1.6 0-5.5 0-5.5s2.7.5 3.7 1c.7.3 1.9 1.6 1.9 1.6s-1.8-3.7-2-5.4c-.3-1.8-1-4.6-1-4.6s3 .5 4 1.1c.8.5 3.3.9 3.3.9s-.5-3.2.9-5.5l6-6.8s0 6.1-.4 8.6Zm-.6-5.9Z"/><path id="path28487" fill="url(#radial-gradient-22)" fill-rule="evenodd" stroke="#2b2200" stroke-width="1" d="M792.3 330.5c-.5 2.6-3.4 5-3.4 5s2.1-.8 3-.8c1.3 0 3.8 1.5 3.8 1.5s-2.4 3.7-3.8 4.9-5.4 2.9-5.4 2.9 1.8-.2 2.6 0c1.1.2 3.5 1.4 3.5 1.4s-2.5 3-3.9 4.1c-1.8 1.4-6.6 4-6.6 4l3.5-1.4 3.9.6s-2.6 3.9-4.3 5.6c-2 2-6.5 5.2-6.5 5.2l5.6-1s-2 3.5-3.2 4.7c-1.9 1.9-6.7 5.3-6.7 5.3l3.2-1h3.1s-2.4 4.7-4.1 6c-2 1.5-5 3.4-5 3.4L739 462.6c-2.6 1.4-4.1.4-5-1.7l33.4-82s-1.3-2.8-1.7-5.1c-.4-2.1.7-7.1.7-7.1l1.8 2.6-1.1-1.3s2.2-2.3 2.1-4.9c0-1.7.8-5.5.8-5.5l-.6 4s3.1-4.9 2.9-7.7c-.1-2.3.8-7.1.8-7.1l3.4 1.9-.6 3.2s.4-4.8 0-6.9c-.3-1.6 0-5.5 0-5.5s2.7.5 3.7 1c.7.3 1.9 1.6 1.9 1.6s-1.8-3.7-2-5.4c-.3-1.8-2.7-4-2.7-4s3 .5 4 1.1c.8.5 5 .2 5 .2s-.5-3.2.9-5.5l6-6.8s0 6.1-.4 8.6Zm-.6-5.9Z"/><path id="path28489" fill="url(#radial-gradient-23)" fill-rule="evenodd" stroke="#2b2200" stroke-width="1" d="M783.6 328.5c-.5 2.6-3.4 5-3.4 5s2.1-.8 3-.8c1.3 0 3.8 1.5 3.8 1.5s-2.4 3.7-3.8 4.9-5.4 2.9-5.4 2.9 1.8-.2 2.6 0c1.1.2 3.5 1.4 3.5 1.4s-2.5 3-3.9 4.1c-1.8 1.4-6.6 4-6.6 4l3.5-1.4 3.9.6s-2.6 3.9-4.3 5.6c-2 2-6.5 5.2-6.5 5.2l5.6-1s-2 3.5-3.2 4.7c-1.9 1.9-6.7 5.3-6.7 5.3l3.2-1h3.1s-2.4 4.7-4.1 6c-2 1.5-5 3.4-5 3.4l-31.8 79.7c-2.6 1.4-4.1.4-5-1.7l32.6-80s-1.3-2.8-1.7-5.1c-.4-2.1.7-7.1.7-7.1l3.1 2.2 1.3 2s-1.5-5.2-1.6-7.8c0-1.7.8-5.5.8-5.5l3.8 3.9s-1.4-4.8-1.5-7.6c-.1-2.3.8-7.1.8-7.1l3.4 1.9 1.7 3.2s-1.9-4.8-2.2-6.9c-.3-1.6 0-5.5 0-5.5s2.7.5 3.7 1c.7.3 1.9 1.6 1.9 1.6s-1.8-3.7-2-5.4c-.3-1.8.5-6.1.5-6.1s3 .5 4 1.1c.8.5 1.7 2.4 1.7 2.4s-.5-3.2.9-5.5l6-6.8s0 6.1-.4 8.6Zm-.6-5.9Z"/></g></g></g><g id="g28491"><path id="path28493" fill="url(#radial-gradient-24)" fill-rule="evenodd" stroke="#2b2200" stroke-width="1" d="M790.2 407.9s-9 1.9-14.7 1.9c-3.8 0-6.2.1-14.3.2-4 0-9.3-1.7-16.9-1.6 0 0-.5.4-1 .9s-1 1.2-1 1.6c0 .5.5 1.1 1 1.6s1 .9 1 .9c5.2 1.1 11.9 1.9 17.5 1.6 4.9-.2 9.5-.1 13.4-.2 5.2 0 11.2-.6 14.6-1.9 2.1-.8 2.9-2.3 2.9-2.7 0-1.1-2.7-2.6-2.7-2.6Z"/><path id="path28495" fill="url(#radial-gradient-25)" fill-rule="evenodd" stroke="#2b2200" stroke-width="1" d="M742 397.8s11.2-2 17-2c3.8 0 6.2-.1 14.3-.2 4 0 9.3 1.7 16.9 1.6 0 0 .5-.4 1-.9s1-1.2 1-1.6c0-.5-.5-1.1-1-1.6s-1-.9-1-.9c-5.2-1.1-11.9-1.9-17.5-1.6-4.9.2-9.5.1-13.4.2-8.3 0-15.1 1.9-15.4 1.9h-.6s-3.2 1.6-3.2 2.7 2.2 2.7 2.2 2.7Z"/><path id="path28497" fill="url(#radial-gradient-26)" fill-rule="evenodd" stroke="#2b2200" stroke-width="1" d="M743.8 402.2s9-.3 14.7-.4c3.8 0 6.2-.1 14.3-.2 4 0 9.3.2 16.9 0 0 0 .5-.4 1-.9s1-1.2 1-1.6c0-.5-.5-1.1-1-1.6s-1-.9-1-.9c-5.2-1.1-11.9-1.9-17.5-1.6-4.9.2-9.5.1-13.4.2-8.3 0-15.3 2-15.4 2s-2.1 1.5-2.1 2.6 2.7 2.6 2.7 2.6Z"/><path id="path28499" fill="url(#radial-gradient-27)" fill-rule="evenodd" stroke="#2b2200" stroke-width="1" d="M789.2 404.1s-9.4.2-15.1.2c-3.8 0-6.2.1-14.3.2h-16.5s-.5.4-1 .9-1 1.2-1 1.6c0 .5.5 1.1 1 1.6s1 .9 1 .9c5.2 1.1 11.7 1.2 17.3.9 4.9-.2 9.5-.1 13.4-.2 8.3 0 14.7-1.1 15.1-1.1.2 0 2.7-1.7 2.6-2.7 0-1.1-2.7-2.6-2.7-2.6Z"/><path id="path28501" fill="url(#radial-gradient-28)" fill-rule="evenodd" stroke="#2b2200" stroke-width="1" d="M740 388.5s13.6-3.3 17.3-1.4c2.1 1.1 4.9 2.7 7.5 5.2 2 1.9 4 4.8 5.2 6 2.8 2.7 4.6 5.3 6.3 7.8 1.8 2.5 4.4 6.5 5.3 8.7s1.3 5.6 1.3 5.6.3 4.9-.8 5.3c-1.5.6-3.8-3.3-3.8-3.3s-1.2-2.3-1.9-4.7c-.6-2.3-4.7-9.6-8.2-11.8-2.6-1.7-5-7-7.1-8.9s-3.6-3.6-6.1-4.9c-1-.5-3.8-.7-6.4-.3-4 .6-7.9 2-7.9 2s-3.4-1-3-2.5c.3-1.3 2.3-2.8 2.3-2.8Z"/><path id="path28503" fill="url(#radial-gradient-29)" fill-rule="evenodd" stroke="#2b2200" stroke-width="1" d="M743.8 406.4s9.7-.3 15.4-.4c3.8 0 6.2-.1 14.3-.2 4 0 16.7-.3 17.2-.8s1-1.2 1-1.6c0-.5-.5-1.1-1-1.6s-1-.9-1-.9c-5.2-1.1-11.5-.7-17.2-.4-4.9.2-9.5.1-13.4.2-8.3 0-15.2.8-15.2.8s-2.6 1.5-2.6 2.6 2.7 2.6 2.7 2.6Z"/></g><g id="g28505"><path id="path28507" fill="url(#radial-gradient-30)" fill-rule="evenodd" stroke="#540" stroke-width=".5" d="M811.9 340.2c-.4 2.6-3.3 5-3.3 5s2.1-.8 3-.8c1.2 0 3.8 1.5 3.8 1.5s-2.3 3.7-3.8 4.9c-1.4 1.2-5.3 2.9-5.3 2.9s1.8-.2 2.5 0c1.1.2 3.5 1.4 3.5 1.4s-2.5 3-3.8 4c-1.7 1.4-6.5 4-6.5 4l3.4-1.4 3.8.6s-2.5 3.8-4.2 5.5c-2 2-6.3 5.2-6.3 5.2l5.5-1s-2 3.4-3.2 4.6c-1.9 1.9-6.6 5.3-6.6 5.3l3.1-1h3.1s-2.3 4.6-4.1 5.9c-1.9 1.5-4.9 3.4-4.9 3.4l-30.9 79.1c-2.6 1.4-4 .4-4.9-1.7l31.7-79.3s-1.3-2.7-1.7-5c-.4-2.1.6-7.1.6-7.1l3.1 2.1 1.3 2s-1.5-5.1-1.7-7.7c0-1.6.8-5.4.8-5.4l3.8 3.8s-1.4-4.7-1.5-7.5c-.1-2.3.8-7.1.8-7.1l3.3 1.9 1.7 3.1s-1.9-4.7-2.2-6.9c-.3-1.6-.1-5.4-.1-5.4s2.7.5 3.7 1c.7.3 1.9 1.5 1.9 1.5s-1.8-3.6-2-5.3c-.3-1.8.5-6.1.5-6.1s3 .4 4 1.1c.7.5 1.7 2.3 1.7 2.3s-.5-3.2.9-5.4l5.9-6.7s.1 6.1-.3 8.5Zm-.6-5.8Z"/><g id="g28509"><g id="g28511"><path id="path28513" fill="url(#radial-gradient-31)" fill-rule="evenodd" stroke="#540" stroke-width=".5" d="M810.8 339.2c-1.9 2-2 5.5-2 5.5s-.6-2-1.3-2.6c-.8-.8-3.6-1.8-3.6-1.8s-1.6 4-1.7 5.8c-.1 1.7.9 5.7.9 5.7s-1-1.4-1.6-1.9c-.9-.7-3.4-1.6-3.4-1.6s-.9 3.7-1 5.3c0 2.1.7 7.2.7 7.2l-1-3.4-2.9-2.4s-1.6 4.2-2 6.5c-.4 2.7-.3 7.8-.3 7.8l-2.6-4.7s-1.6 3.6-1.9 5.2c-.4 2.5-.2 8.1-.2 8.1l-1.2-2.9-2-2.2s-2.4 4.6-2.4 6.7c0 2.3.2 5.7.2 5.7l-18.3 26.7c.5 2.7 2.2 3.2 4.5 2.5l17.9-27.4s3.1-.8 5.3-1.9c2-1 5.5-4.9 5.5-4.9l-3.7-.9-2.5.3s5.2-2.1 7.5-3.6c1.4-1 4.1-4 4.1-4l-5.6-.3s4.8-2 7.2-3.6c2-1.4 5.4-5 5.4-5l-3.7-1.2-3.7.8s5.1-1.6 7.1-2.7c1.5-.8 4.6-3.3 4.6-3.3s-2.1-1.6-3.1-2c-.7-.3-2.5-.4-2.5-.4s4.2-1 5.7-1.9c1.7-.9 4.8-4.2 4.8-4.2s-2.2-1.9-3.4-2.2c-.9-.2-3 .2-3 .2s3-1.6 4-4.1c.9-2.3 1.8-8.4 1.8-8.4s-5 3.6-6.7 5.4Z"/></g><path id="path28515" fill="url(#radial-gradient-32)" fill-rule="evenodd" stroke="#540" stroke-width=".5" d="M815.9 342.7c-1.9 2-2 5.5-2 5.5s-.6-2-1.3-2.6c-.8-.8-3.6-1.8-3.6-1.8s-1.6 4-1.7 5.8c-.1 1.7.9 5.7.9 5.7s-1-1.4-1.6-1.9c-.9-.7-3.4-1.6-3.4-1.6s-.9 3.7-1 5.3c0 2.1.7 7.2.7 7.2l-1-3.4-2.9-2.4s-1.6 4.2-2 6.5c-.4 2.7-.3 7.8-.3 7.8l-2.6-4.7s-1.6 3.6-1.9 5.2c-.4 2.5-.2 8.1-.2 8.1l-1.2-2.9-2-2.2s-2.4 4.6-2.4 6.7c0 2.3.2 5.7.2 5.7l-18.3 26.7c.5 2.7 2.2 3.2 4.5 2.5l18.4-26.9 4.8-2.4c2-1 5.5-4.9 5.5-4.9l-3.7-.9-2.5.3s5.2-2.1 7.5-3.6c1.4-1 4.1-4 4.1-4l-5.6-.3s4.8-2 7.2-3.6c2-1.4 5.4-5 5.4-5l-3.7-1.2-3.7.8s5.1-1.6 7.1-2.7c1.5-.8 4.6-3.3 4.6-3.3s-2.1-1.6-3.1-2c-.7-.3-2.5-.4-2.5-.4s4.2-1 5.7-1.9c1.7-.9 4.8-4.2 4.8-4.2s-2.2-1.9-3.4-2.2c-.9-.2-3 .2-3 .2s3-1.6 4-4.1c.9-2.3 1.8-8.4 1.8-8.4s-5 3.6-6.7 5.4Z"/></g><g id="g28517"><g id="g28519"><path id="path28521" fill="url(#radial-gradient-33)" fill-rule="evenodd" stroke="#540" stroke-width=".5" d="M718.8 337.4c1.9 2 2 5.5 2 5.5s.6-2 1.3-2.6c.8-.8 3.6-1.8 3.6-1.8s1.6 4 1.7 5.8c.1 1.7-.9 5.7-.9 5.7s1-1.4 1.6-1.9c.9-.7 3.4-1.6 3.4-1.6s.9 3.7 1 5.3c0 2.1-.7 7.2-.7 7.2l1-3.4 2.9-2.4s1.6 4.2 2 6.5c.4 2.7.3 7.8.3 7.8l2.6-4.7s1.6 3.6 1.9 5.2c.4 2.5.2 8.1.2 8.1l1.2-2.9 2-2.2s2.4 4.6 2.4 6.7c0 2.3-.2 5.7-.2 5.7l18.3 26.7c-.5 2.7-2.2 3.2-4.5 2.5L744 385.2s-3.1-.8-5.3-1.9c-2-1-5.5-4.9-5.5-4.9l3.7-.9 2.5.3s-5.2-2.1-7.5-3.6c-1.4-1-4.1-4-4.1-4l5.6-.3s-4.8-2-7.2-3.6c-2-1.4-5.4-5-5.4-5l3.7-1.2 3.7.8s-5.1-1.6-7.1-2.7c-1.5-.8-4.6-3.3-4.6-3.3s2.1-1.6 3.1-2c.7-.3 2.5-.4 2.5-.4s-4.2-1-5.7-1.9c-1.7-.9-4.8-4.2-4.8-4.2s2.2-1.9 3.4-2.2c.9-.2 3 .2 3 .2s-3-1.6-4-4.1c-.9-2.3-1.8-8.4-1.8-8.4s5 3.6 6.7 5.4Z"/></g><path id="path28523" fill="url(#radial-gradient-34)" fill-rule="evenodd" stroke="#540" stroke-width=".5" d="M713.7 340.9c1.9 2 2 5.5 2 5.5s.6-2 1.3-2.6c.8-.8 3.6-1.8 3.6-1.8s1.6 4 1.7 5.8c.1 1.7-.9 5.7-.9 5.7s1-1.4 1.6-1.9c.9-.7 3.4-1.6 3.4-1.6s.9 3.7 1 5.3c0 2.1-.7 7.2-.7 7.2l1-3.4 2.9-2.4s1.6 4.2 2 6.5c.4 2.7.3 7.8.3 7.8l2.6-4.7s1.6 3.6 1.9 5.2c.4 2.5.2 8.1.2 8.1l1.2-2.9 2-2.2s2.4 4.6 2.4 6.7c0 2.3-.2 5.7-.2 5.7l18.3 26.7c-.5 2.7-2.2 3.2-4.5 2.5L738 389.4s-2.3-1.4-4.5-2.6c-2-1-5.5-4.9-5.5-4.9l3.7-.9 2.5.3s-5.2-2.1-7.5-3.6c-1.4-1-4.1-4-4.1-4l5.6-.3s-4.8-2-7.2-3.6c-2-1.4-5.4-5-5.4-5l3.7-1.2 3.7.8s-5.1-1.6-7.1-2.7c-1.5-.8-4.6-3.3-4.6-3.3s2.1-1.6 3.1-2c.7-.3 2.5-.4 2.5-.4s-4.2-1-5.7-1.9c-1.7-.9-4.8-4.2-4.8-4.2s2.2-1.9 3.4-2.2c.9-.2 3 .2 3 .2s-3-1.6-4-4.1c-.9-2.3-1.8-8.4-1.8-8.4s5 3.6 6.7 5.4Z"/></g><g id="g28525"><g id="g28527"><path id="path28529" fill="url(#radial-gradient-35)" fill-rule="evenodd" stroke="#540" stroke-width=".5" d="M724.1 337.5c.5 2.6 3.3 4.9 3.3 4.9s-2.1-.8-3-.7c-1.2 0-3.8 1.5-3.8 1.5s2.3 3.7 3.8 4.9c1.4 1.1 5.3 2.9 5.3 2.9s-1.8-.2-2.5 0c-1.1.2-3.5 1.4-3.5 1.4s2.5 2.9 3.8 4c1.7 1.4 6.5 3.9 6.5 3.9l-3.4-1.4-3.8.6s2.5 3.8 4.2 5.5c2 2 6.4 5.1 6.4 5.1l-5.5-1s2 3.4 3.2 4.6c1.9 1.9 6.6 5.2 6.6 5.2l-3.1-.9h-3.1s2.3 4.6 4.1 5.9c1.9 1.5 4.9 3.4 4.9 3.4l30.6 80c2.6 1.4 4 .4 4.9-1.7l-31-80.3s.9-2.6 1.4-4.9c.4-2.1-.7-7.1-.7-7.1l-3.1 2.2-1.3 2s1.5-5.1 1.6-7.7c0-1.6-.8-5.4-.8-5.4l-3.7 3.8s1.4-4.7 1.5-7.5c.1-2.3-.8-7.1-.8-7.1l-3.3 1.9-1.6 3.1s1.8-4.7 2.2-6.9c.3-1.6 0-5.4 0-5.4s-2.7.5-3.7 1c-.7.3-1.8 1.5-1.8 1.5s1.8-3.6 2-5.3c.3-1.8-.5-6.1-.5-6.1s-3 .5-4 1.1c-.7.5-1.7 2.4-1.7 2.4s.5-3.2-.9-5.4l-5.9-6.7s0 6.1.3 8.5Zm.6-5.8Z"/><path id="path28531" fill="url(#radial-gradient-36)" fill-rule="evenodd" stroke="#540" stroke-width=".5" d="M732.1 333.1c.5 2.6 3.3 4.9 3.3 4.9s-2.1-.8-3-.7c-1.2 0-3.8 1.5-3.8 1.5s2.3 3.7 3.8 4.9c1.4 1.1 5.3 2.9 5.3 2.9s-1.8-.2-2.5 0c-1.1.2-3.5 1.4-3.5 1.4s2.5 2.9 3.8 4c1.7 1.4 6.5 3.9 6.5 3.9l-3.4-1.4-3.8.6s2.5 3.8 4.2 5.5c2 2 6.4 5.1 6.4 5.1l-5.5-1s2 3.4 3.2 4.6c1.9 1.9 6.6 5.2 6.6 5.2l-3.1-.9h-3.1s2.3 4.6 4.1 5.9c1.9 1.5 4.9 3.4 4.9 3.4l33 82.7c2.6 1.4 4 .4 4.9-1.7L756.6 381s1.3-2.7 1.7-5c.4-2.1-.7-7.1-.7-7.1l-3.1 2.2-1.3 2s1.5-5.1 1.6-7.7c0-1.6-.8-5.4-.8-5.4l-3.7 3.8s1.4-4.7 1.5-7.5c.1-2.3-.8-7.1-.8-7.1l-3.3 1.9-1.6 3.1s1.8-4.7 2.2-6.9c.3-1.6 0-5.4 0-5.4s-2.7.5-3.7 1c-.7.3-1.8 1.5-1.8 1.5s1.8-3.6 2-5.3c.3-1.8-.5-6.1-.5-6.1s-3 .5-4 1.1c-.7.5-1.7 2.4-1.7 2.4s.5-3.2-.9-5.4l-5.9-6.7s0 6.1.3 8.5Zm.6-5.8Z"/><path id="path28533" fill="url(#radial-gradient-37)" fill-rule="evenodd" stroke="#540" stroke-width=".5" d="M740.2 330.6c.5 2.6 3.3 4.9 3.3 4.9s-2.1-.8-3-.7c-1.2 0-3.1 2.9-3.1 2.9s1.6 2.3 3.1 3.5c1.4 1.1 5.3 2.9 5.3 2.9s-1.8-.2-2.5 0c-1.1.2-3.5 1.4-3.5 1.4s2.5 2.9 3.8 4c1.7 1.4 6.5 3.9 6.5 3.9l-3.4-1.4-3.8.6s2.5 3.8 4.2 5.5c2 2 6.4 5.1 6.4 5.1l-5.5-1s2 3.4 3.2 4.6c1.9 1.9 6.6 5.2 6.6 5.2l-3.1-.9h-3.1s2.3 4.6 4.1 5.9c1.9 1.5 4.9 3.4 4.9 3.4l32.2 80.9c2.6 1.4 4 .4 4.9-1.7l-33-81.1s1.3-2.7 1.7-5c.4-2.1-.7-7.1-.7-7.1l-3.1 2.2-1.3 2s1.5-5.1 1.6-7.7c0-1.6-.8-5.4-.8-5.4l-3.7 3.8s1.4-4.7 1.5-7.5c.1-2.3-.8-7.1-.8-7.1l-3.3 1.9-1.6 3.1s1.8-4.7 2.2-6.9c.3-1.6 0-5.4 0-5.4s-2.7.5-3.7 1c-.7.3-1.8 1.5-1.8 1.5s1.8-3.6 2-5.3c.3-1.8-.5-6.1-.5-6.1s-3 .5-4 1.1c-.7.5-1.7 2.4-1.7 2.4s.5-3.2-.9-5.4l-5.9-6.7s0 6.1.3 8.5Zm.5-5.8Z"/><path id="path28535" fill="url(#radial-gradient-38)" fill-rule="evenodd" stroke="#540" stroke-width=".5" d="M748.7 328.6c.5 2.6 3.3 4.9 3.3 4.9s-2.1-.8-3-.7c-1.2 0-3.8 1.5-3.8 1.5s2.3 3.7 3.8 4.9c1.4 1.1 5.3 2.9 5.3 2.9s-1.8-.2-2.5 0c-1.1.2-3.5 1.4-3.5 1.4s2.5 2.9 3.8 4c1.7 1.4 6.5 3.9 6.5 3.9l-3.4-1.4-3.8.6s2.5 3.8 4.2 5.5c2 2 6.4 5.1 6.4 5.1l-5.5-1s2 3.4 3.2 4.6c1.9 1.9 6.6 5.2 6.6 5.2l-3.1-.9h-3.1s2.3 4.6 4.1 5.9c1.9 1.5 4.9 3.4 4.9 3.4l31.4 78.9c2.6 1.4 4 .4 4.9-1.7l-32.2-79.1s1.3-2.7 1.7-5c.4-2.1-.7-7.1-.7-7.1l-3.1 2.2-1.3 2s1.5-5.1 1.6-7.7c0-1.6-.8-5.4-.8-5.4l-3.7 3.8s1.4-4.7 1.5-7.5c.1-2.3-.8-7.1-.8-7.1l-3.3 1.9-1.6 3.1s1.8-4.7 2.2-6.9c.3-1.6 0-5.4 0-5.4s-2.7.5-3.7 1c-.7.3-1.8 1.5-1.8 1.5s1.8-3.6 2-5.3c.3-1.8-.5-6.1-.5-6.1s-3 .5-4 1.1c-.7.5-1.7 2.4-1.7 2.4s.5-3.2-.9-5.4l-5.9-6.7s0 6.1.3 8.5Zm.6-5.8Z"/></g><g id="g28537"><path id="path28539" fill="url(#radial-gradient-39)" fill-rule="evenodd" stroke="#540" stroke-width=".5" d="M719.8 338.5c.5 2.6 3.3 4.9 3.3 4.9s-2.1-.8-3-.7c-1.2 0-3.8 1.5-3.8 1.5s2.3 3.7 3.8 4.9c1.4 1.1 5.3 2.9 5.3 2.9s-1.8-.2-2.5 0c-1.1.2-3.5 1.4-3.5 1.4s2.5 2.9 3.8 4c1.7 1.4 6.5 3.9 6.5 3.9l-3.4-1.4-3.8.6s2.5 3.8 4.2 5.5c2 2 6.4 5.1 6.4 5.1l-5.5-1s2 3.4 3.2 4.6c1.9 1.9 6.6 5.2 6.6 5.2l-3.1-.9h-3.1s2.3 4.6 4.1 5.9c1.9 1.5 6 3 6 3l28.7 80.6c2.6 1.4 4 .4 4.9-1.7l-29.7-80.6s.4-2.5.9-4.8c.4-2.1-.7-7.1-.7-7.1l1.8 1.6-1.3 2s-3.4-4.6-3.3-7.2c0-1.6-.8-5.4-.8-5.4l-.3 3.2s-2.1-4.1-1.9-6.9c.1-2.3-.8-7.1-.8-7.1l-3.3 1.9-1.6 3.1s1.8-4.7 2.2-6.9c.3-1.6 0-5.4 0-5.4s-2.7.5-3.7 1c-.7.3-1.8 1.5-1.8 1.5s1.8-3.6 2-5.3c.3-1.8-.5-6.1-.5-6.1s-3 .5-4 1.1c-.7.5-1.7 2.4-1.7 2.4s.5-3.2-.9-5.4l-5.9-6.7s0 6.1.3 8.5Zm.6-5.8Z"/><path id="path28541" fill="url(#radial-gradient-40)" fill-rule="evenodd" stroke="#540" stroke-width=".5" d="M727.9 334.1c.5 2.6 3.3 4.9 3.3 4.9s-2.1-.8-3-.7c-1.2 0-3.8 1.5-3.8 1.5s2.3 3.7 3.8 4.9c1.4 1.1 5.3 2.9 5.3 2.9s-1.8-.2-2.5 0c-1.1.2-3.5 1.4-3.5 1.4s2.5 2.9 3.8 4c1.7 1.4 6.5 3.9 6.5 3.9l-3.4-1.4-3.8.6s2.5 3.8 4.2 5.5c2 2 6.4 5.1 6.4 5.1l-5.5-1s2 3.4 3.2 4.6c1.9 1.9 6.6 5.2 6.6 5.2l-3.1-.9h-3.1s2.3 4.6 4.1 5.9c1.9 1.5 4.9 3.4 4.9 3.4l31.9 82.5c2.6 1.4 4 .4 4.9-1.7L752.4 382s1.3-2.7 1.7-5c.4-2.1-.7-7.1-.7-7.1l.6 1.5v1.6s-3.5-4-3.4-6.6c0-1.6-.8-5.4-.8-5.4l.9 4.4s-3.3-5.3-3.1-8c.1-2.3-.8-7.1-.8-7.1l-3.3 1.9-1.6 3.1s1.8-4.7 2.2-6.9c.3-1.6 0-5.4 0-5.4s-2.7.5-3.7 1c-.7.3-1.8 1.5-1.8 1.5s1.8-3.6 2-5.3c.3-1.8.7-3 .7-3s-3 .5-4 1.1c-.7.5-2.9-.7-2.9-.7s.5-3.2-.9-5.4l-5.9-6.7s0 6.1.3 8.5Zm.5-5.9Z"/><path id="path28543" fill="url(#radial-gradient-41)" fill-rule="evenodd" stroke="#540" stroke-width=".5" d="M735.9 331.6c.5 2.6 3.3 4.9 3.3 4.9s-2.1-.8-3-.7c-1.2 0-3.8 1.5-3.8 1.5s2.3 3.7 3.8 4.9c1.4 1.1 5.3 2.9 5.3 2.9s-1.8-.2-2.5 0c-1.1.2-3.5 1.4-3.5 1.4s2.5 2.9 3.8 4c1.7 1.4 6.5 3.9 6.5 3.9l-3.4-1.4-3.8.6s2.5 3.8 4.2 5.5c2 2 6.4 5.1 6.4 5.1l-5.5-1s2 3.4 3.2 4.6c1.9 1.9 6.6 5.2 6.6 5.2l-3.1-.9h-3.1s2.3 4.6 4.1 5.9c1.9 1.5 4.9 3.4 4.9 3.4l33 82.5c2.6 1.4 4 .4 4.9-1.7l-33.8-82.7s1.3-2.7 1.7-5c.4-2.1-.7-7.1-.7-7.1l-3.1 2.2-1.3 2s1.5-5.1 1.6-7.7c0-1.6-.8-5.4-.8-5.4l.6 3.8s-3-4.7-2.8-7.4c.1-2.3-.8-7.1-.8-7.1l-3.3 1.9 2.4 3.2s-2.2-4.8-1.9-6.9c.3-1.6 0-5.4 0-5.4s-2.7.5-3.7 1c-.7.3-1.8 1.5-1.8 1.5s1.8-3.6 2-5.3c.3-1.8 2.4-3.6 2.4-3.6s-3 .5-4 1.1c-.7.5-4.6-.1-4.6-.1s.8-2.5-.9-5.4l-5.9-6.7s0 6.1.3 8.5Zm.6-5.8Z"/><path id="path28545" fill="url(#radial-gradient-42)" fill-rule="evenodd" stroke="#540" stroke-width=".5" d="M744.4 329.6c.5 2.6 3.3 4.9 3.3 4.9s-2.1-.8-3-.7c-1.2 0-3.8 1.5-3.8 1.5s2.3 3.7 3.8 4.9c1.4 1.1 5.3 2.9 5.3 2.9s-1.8-.2-2.5 0c-1.1.2-3.5 1.4-3.5 1.4s2.5 2.9 3.8 4c1.7 1.4 6.5 3.9 6.5 3.9l-3.8-1-3.8.6s2.6 4.2 4.3 5.9c2 2 6.7 4.4 6.7 4.4l-5.5-1s2 3.4 3.2 4.6c1.9 1.9 6.6 5.2 6.6 5.2l-3.1-.9h-3.1s2.3 4.6 4.1 5.9c1.9 1.5 4.9 3.4 4.9 3.4l32.3 80c2.6 1.4 4 .4 4.9-1.7l-33.1-80.2s1.3-2.7 1.7-5c.4-2.1-.7-7.1-.7-7.1l-3.1 2.2-1.3 2s1.5-5.1 1.6-7.7c0-1.6-.8-5.4-.8-5.4l-3.7 3.8s1.4-4.7 1.5-7.5c.1-2.3-.8-7.1-.8-7.1l-3.3 1.9-1.6 3.1s1.8-4.7 2.2-6.9c.3-1.6 0-5.4 0-5.4s-2.7.5-3.7 1c-.7.3-1.8 1.5-1.8 1.5s1.8-3.6 2-5.3c.3-1.8-.5-6.1-.5-6.1s-3 .5-4 1.1c-.7.5-1.7 2.4-1.7 2.4s.5-3.2-.9-5.4l-5.9-6.7s0 6.1.3 8.5Zm.6-5.8Z"/></g></g><g id="g28547"><path id="path28549" fill="url(#radial-gradient-43)" fill-rule="evenodd" stroke="#540" stroke-width=".5" d="M754 325.2c-.2 2.7 2 5.8 2 5.8s-1.8-1.3-2.7-1.5c-1.2-.2-4 .7-4 .7s1.4 4.3 2.5 5.8c1 1.5 4.5 4.1 4.5 4.1s-1.7-.6-2.5-.6c-1.1 0-3.7.6-3.7.6s1.7 3.6 2.7 4.9c1.3 1.8 5.1 6.4 5.1 6.4l-1.7-.2-2.9-.6s0 4 1.3 6.1c1.5 2.5 3.6 5.4 3.6 5.4l-3.1-1.2-5-.4s2.5 4.7 4 5.7c3.6 2.3 6.8 4.9 6.8 4.9l-2.8-1.7-4.8-.5s2 5.2 3.4 7c1.5 1.9 4.9 4.3 4.9 4.3l2.6 49.3c2.2 2 3.8 1.3 5.2-.6l-3.3-49.7s1.9-2.5 2.9-4.7c.9-2 1.1-7.3 1.1-7.3l-3.5 1.5-1.8 1.7s2.7-4.8 3.5-7.4c.5-1.6.6-5.7.6-5.7l-4.6 3s2.5-4.5 3.3-7.2c.7-2.3 1-7.3 1-7.3l-3.7 1.1-2.4 2.8s3-4.4 3.8-6.4c.6-1.6 1.4-5.5 1.4-5.5s-2.7-.1-3.8.2c-.7.2-2.2 1.1-2.2 1.1s2.6-3.3 3.3-4.9c.7-1.8 1-6.3 1-6.3s-3-.2-4.1.2c-.8.3-2.2 2-2.2 2s1.3-3.1.4-5.7l-4.1-8.2s-1.6 6.1-1.8 8.6Zm2-5.8Z"/><path id="path28551" fill="url(#radial-gradient-44)" fill-rule="evenodd" stroke="#540" stroke-width=".5" d="M770.1 324.9c-.8 2.6.6 6.1.6 6.1s-1.5-1.6-2.3-2c-1.1-.4-4.1-.2-4.1-.2s.3 4.4 1.1 6.2c.7 1.6 3.4 4.9 3.4 4.9s-1.5-.9-2.3-1.1c-1.1-.3-3.8-.1-3.8-.1s.8 3.8 1.5 5.4c.9 2.1 3.9 6.5 3.9 6.5l-2.4-2.8-3.7-1.1s.4 4.7 1.2 7c.9 2.7 3.3 7.5 3.3 7.5l-4.5-3.3s.1 4.1.6 5.7c.8 2.6 3.4 7.7 3.4 7.7l-2.4-2.2-2.8-1.3s0 5.3.9 7.3c1 2.2 2.8 5.3 2.8 5.3l-7 61.9c1.7 2.4 3.4 2.1 5.2.5l6.3-62.4s2.4-2 3.9-4c1.3-1.8 2.8-6.9 2.8-6.9l-3.8.7-2.1 1.3s3.8-4.2 5.1-6.5c.9-1.5 1.9-5.5 1.9-5.5l-5.2 2s3.5-3.9 4.9-6.4c1.2-2.1 2.6-7 2.6-7l-3.9.4-3 2.3s3.9-3.7 5.2-5.5c1-1.4 2.6-5 2.6-5s-2.6-.7-3.8-.6c-.8 0-2.4.7-2.4.7s3.3-2.7 4.3-4.1c1.1-1.6 2.4-5.9 2.4-5.9s-2.9-.8-4.1-.6c-.9.2-2.7 1.5-2.7 1.5s2-2.8 1.8-5.5l-2.1-8.8s-3 5.7-3.7 8.1Zm3.3-5.2Z"/><path id="path28553" fill="url(#radial-gradient-45)" fill-rule="evenodd" stroke="#540" stroke-width=".5" d="M762.6 324.4c-.5 2.7 1.3 6 1.3 6s-1.7-1.5-2.5-1.7c-1.2-.3-4.1.2-4.1.2s.8 4.4 1.7 6c.8 1.6 3.9 4.6 3.9 4.6s-1.6-.8-2.4-.9c-1.1-.2-3.8.2-3.8.2s1.2 3.7 2.1 5.2c1.1 2 5.7 5.9 5.7 5.9s-2.5-1.9-3.8-2.3c-1.1-.4-3.8-.7-3.8-.7s.9 4.6 1.9 6.8c1.1 2.6 4.1 7.2 4.1 7.2l-1.1-1.1s.6 4 1.3 5.6c1.1 2.5.5 5.6.5 5.6l-2.6-2-2.9-1s.5 5.2 1.6 7.1c1.3 2.1 3.3 5 3.3 5l-.3 88.8c1.9 2.2 3.6 1.7 5.2 0l-.4-89.2s2.2-2.3 3.5-4.3c1.1-1.9 2-7.1 2-7.1l-3.7 1.1-2 1.5s3.3-4.5 4.4-7c.7-1.6 1.3-5.6 1.3-5.6l-4.9 2.5s3-4.2 4.2-6.8c1-2.2 1.9-7.2 1.9-7.2l-3.8.7-2.7 2.5s3.5-4 4.6-6c.8-1.5 2.1-5.3 2.1-5.3s-1.6-.4-2.7-.2c-.7.1 3.6-.6 3.6-.6s-4-1.5-3.2-3.1c.9-1.7 1.8-6.1 1.8-6.1s-3-.6-4.1-.2c-.9.2-2.5 1.7-2.5 1.7s1.7-2.9 1.1-5.6l-3.1-8.5s-2.3 5.9-2.8 8.4Zm2.7-5.5Z"/></g><g id="g28555"><g id="g28557"><path id="path28559" fill="url(#radial-gradient-46)" fill-rule="evenodd" stroke="#540" stroke-width=".5" d="M804 336.6c-.5 2.6-3.4 5-3.4 5s2.1-.8 3-.8c1.3 0 3.8 1.5 3.8 1.5s-2.4 3.7-3.8 4.9-5.4 2.9-5.4 2.9 1.8-.2 2.6 0c1.1.2 3.5 1.4 3.5 1.4s-2.5 3-3.9 4.1c-1.8 1.4-6.6 4-6.6 4l3.5-1.4 3.9.6s-2.6 3.9-4.3 5.6c-2 2-6.5 5.2-6.5 5.2l5.6-1s-2 3.5-3.2 4.7c-1.9 1.9-6.7 5.3-6.7 5.3l3.2-1h3.1s-2.4 4.7-4.1 6c-2 1.5-5 3.4-5 3.4l-31.8 80.7c-2.6 1.4-4.1.4-5-1.7l32.6-81s-1.3-2.8-1.7-5.1c-.4-2.1.7-7.1.7-7.1l3.1 2.2 1.3 2s-1.5-5.2-1.6-7.8c0-1.7.8-5.5.8-5.5l3.8 3.9s-1.4-4.8-1.5-7.6c-.1-2.3.8-7.1.8-7.1l3.4 1.9 1.7 3.2s-1.9-4.8-2.2-6.9c-.3-1.6 0-5.5 0-5.5s2.7.5 3.7 1c.7.3 1.9 1.6 1.9 1.6s-1.8-3.7-2-5.4c-.3-1.8.5-6.1.5-6.1s3 .5 4 1.1c.8.5 1.7 2.4 1.7 2.4s-.5-3.2.9-5.5l6-6.8s0 6.1-.4 8.6Zm-.6-5.9Z"/><path id="path28561" fill="url(#radial-gradient-47)" fill-rule="evenodd" stroke="#540" stroke-width=".5" d="M795.8 332.1c-.5 2.6-3.4 5-3.4 5s2.1-.8 3-.8c1.3 0 3.8 1.5 3.8 1.5s-2.4 3.7-3.8 4.9-5.4 2.9-5.4 2.9 1.8-.2 2.6 0c1.1.2 3.5 1.4 3.5 1.4s-2.5 3-3.9 4.1c-1.8 1.4-6.6 4-6.6 4l3.5-1.4 3.9.6s-2.6 3.9-4.3 5.6c-2 2-6.5 5.2-6.5 5.2l5.6-1s-2 3.5-3.2 4.7c-1.9 1.9-6.7 5.3-6.7 5.3l3.2-1h3.1s-2.4 4.7-4.1 6c-2 1.5-5 3.4-5 3.4l-33.4 83.6c-2.6 1.4-4.1.4-5-1.7l34.2-83.8s-1.3-2.8-1.7-5.1c-.4-2.1.7-7.1.7-7.1l3.1 2.2 1.3 2s-1.5-5.2-1.6-7.8c0-1.7.8-5.5.8-5.5l3.8 3.9s-1.4-4.8-1.5-7.6c-.1-2.3.8-7.1.8-7.1l3.4 1.9 1.7 3.2s-1.9-4.8-2.2-6.9c-.3-1.6 0-5.5 0-5.5s2.7.5 3.7 1c.7.3 1.9 1.6 1.9 1.6s-1.8-3.7-2-5.4c-.3-1.8-1-4.6-1-4.6s3 .5 4 1.1c.8.5 3.3.9 3.3.9s-.5-3.2.9-5.5l6-6.8s0 6.1-.4 8.6Zm-.6-5.9Z"/><path id="path28563" fill="url(#radial-gradient-48)" fill-rule="evenodd" stroke="#540" stroke-width=".5" d="M787.7 329.6c-.5 2.6-3.4 5-3.4 5s2.1-.8 3-.8c1.3 0 3.8 1.5 3.8 1.5s-2.4 3.7-3.8 4.9-5.4 2.9-5.4 2.9 1.8-.2 2.6 0c1.1.2 3.5 1.4 3.5 1.4s-2.5 3-3.9 4.1c-1.8 1.4-6.6 4-6.6 4l3.5-1.4 3.9.6s-2.6 3.9-4.3 5.6c-2 2-6.5 5.2-6.5 5.2l5.6-1s-2 3.5-3.2 4.7c-1.9 1.9-6.7 5.3-6.7 5.3l3.2-1h3.1s-2.4 4.7-4.1 6c-2 1.5-5 3.4-5 3.4l-32.6 81.7c-2.6 1.4-4.1.4-5-1.7l33.4-82s-1.3-2.8-1.7-5.1c-.4-2.1.7-7.1.7-7.1l1.8 2.6-1.1-1.3s2.2-2.3 2.1-4.9c0-1.7.8-5.5.8-5.5l-.6 4s3.1-4.9 2.9-7.7c-.1-2.3.8-7.1.8-7.1l3.4 1.9-.6 3.2s.4-4.8 0-6.9c-.3-1.6 0-5.5 0-5.5s2.7.5 3.7 1c.7.3 1.9 1.6 1.9 1.6s-1.8-3.7-2-5.4c-.3-1.8-2.7-4-2.7-4s3 .5 4 1.1c.8.5 5 .2 5 .2s-.5-3.2.9-5.5l6-6.8s0 6.1-.4 8.6Zm-.6-5.9Z"/></g><g id="g28565"><path id="path28567" fill="url(#radial-gradient-49)" fill-rule="evenodd" stroke="#540" stroke-width=".5" d="M808.5 337.5c-.5 2.6-3.4 5-3.4 5s2.1-.8 3-.8c1.3 0 3.8 1.5 3.8 1.5s-2.4 3.7-3.8 4.9-5.4 2.9-5.4 2.9 1.8-.2 2.6 0c1.1.2 3.5 1.4 3.5 1.4s-2.5 3-3.9 4.1c-1.8 1.4-6.6 4-6.6 4l3.5-1.4 3.9.6s-2.6 3.9-4.3 5.6c-2 2-6.5 5.2-6.5 5.2l5.6-1s-2 3.5-3.2 4.7c-1.9 1.9-6.7 5.3-6.7 5.3l3.2-1h3.1s-2.4 4.7-4.1 6c-2 1.5-5 3.4-5 3.4L756 468.6c-2.6 1.4-4.1.4-5-1.7l32.6-81s-1.3-2.8-1.7-5.1c-.4-2.1.7-7.1.7-7.1l3.1 2.2 1.3 2s-1.5-5.2-1.6-7.8c0-1.7.8-5.5.8-5.5l3.8 3.9s-1.4-4.8-1.5-7.6c-.1-2.3.8-7.1.8-7.1l3.4 1.9 1.7 3.2s-1.9-4.8-2.2-6.9c-.3-1.6 0-5.5 0-5.5s2.7.5 3.7 1c.7.3 1.9 1.6 1.9 1.6s-1.8-3.7-2-5.4c-.3-1.8.5-6.1.5-6.1s3 .5 4 1.1c.8.5 1.7 2.4 1.7 2.4s-.5-3.2.9-5.5l6-6.8s0 6.1-.4 8.6Zm-.6-5.9Z"/><path id="path28569" fill="url(#radial-gradient-50)" fill-rule="evenodd" stroke="#540" stroke-width=".5" d="M800.4 333c-.5 2.6-3.4 5-3.4 5s2.1-.8 3-.8c1.3 0 3.8 1.5 3.8 1.5s-2.4 3.7-3.8 4.9-5.4 2.9-5.4 2.9 1.8-.2 2.6 0c1.1.2 3.5 1.4 3.5 1.4s-2.5 3-3.9 4.1c-1.8 1.4-6.6 4-6.6 4l3.5-1.4 3.9.6s-2.6 3.9-4.3 5.6c-2 2-6.5 5.2-6.5 5.2l5.6-1s-2 3.5-3.2 4.7c-1.9 1.9-6.7 5.3-6.7 5.3l3.2-1h3.1s-2.4 4.7-4.1 6c-2 1.5-5 3.4-5 3.4L746.3 467c-2.6 1.4-4.1.4-5-1.7l34.2-83.8s-1.3-2.8-1.7-5.1c-.4-2.1.7-7.1.7-7.1l3.1 2.2 1.3 2s-1.5-5.2-1.6-7.8c0-1.7.8-5.5.8-5.5l3.8 3.9s-1.4-4.8-1.5-7.6c-.1-2.3.8-7.1.8-7.1l3.4 1.9 1.7 3.2s-1.9-4.8-2.2-6.9c-.3-1.6 0-5.5 0-5.5s2.7.5 3.7 1c.7.3 1.9 1.6 1.9 1.6s-1.8-3.7-2-5.4c-.3-1.8-1-4.6-1-4.6s3 .5 4 1.1c.8.5 3.3.9 3.3.9s-.5-3.2.9-5.5l6-6.8s0 6.1-.4 8.6Zm-.6-5.9Z"/><path id="path28571" fill="url(#radial-gradient-51)" fill-rule="evenodd" stroke="#540" stroke-width=".5" d="M792.3 330.5c-.5 2.6-3.4 5-3.4 5s2.1-.8 3-.8c1.3 0 3.8 1.5 3.8 1.5s-2.4 3.7-3.8 4.9-5.4 2.9-5.4 2.9 1.8-.2 2.6 0c1.1.2 3.5 1.4 3.5 1.4s-2.5 3-3.9 4.1c-1.8 1.4-6.6 4-6.6 4l3.5-1.4 3.9.6s-2.6 3.9-4.3 5.6c-2 2-6.5 5.2-6.5 5.2l5.6-1s-2 3.5-3.2 4.7c-1.9 1.9-6.7 5.3-6.7 5.3l3.2-1h3.1s-2.4 4.7-4.1 6c-2 1.5-5 3.4-5 3.4l-33.7 83.5c-2.6 1.4-4.1.4-5-1.7l34.5-83.7s-1.3-2.8-1.7-5.1c-.4-2.1.7-7.1.7-7.1l1.8 2.6-1.1-1.3s2.2-2.3 2.1-4.9c0-1.7.8-5.5.8-5.5l-.6 4s3.1-4.9 2.9-7.7c-.1-2.3.8-7.1.8-7.1l3.4 1.9-.6 3.2s.4-4.8 0-6.9c-.3-1.6 0-5.5 0-5.5s2.7.5 3.7 1c.7.3 1.9 1.6 1.9 1.6s-1.8-3.7-2-5.4c-.3-1.8-2.7-4-2.7-4s3 .5 4 1.1c.8.5 5 .2 5 .2s-.5-3.2.9-5.5l6-6.8s0 6.1-.4 8.6Zm-.6-5.9Z"/><path id="path28573" fill="url(#radial-gradient-52)" fill-rule="evenodd" stroke="#540" stroke-width=".5" d="M783.6 328.5c-.5 2.6-3.4 5-3.4 5s2.1-.8 3-.8c1.3 0 3.8 1.5 3.8 1.5s-2.4 3.7-3.8 4.9-5.4 2.9-5.4 2.9 1.8-.2 2.6 0c1.1.2 3.5 1.4 3.5 1.4s-2.5 3-3.9 4.1c-1.8 1.4-6.6 4-6.6 4l3.5-1.4 3.9.6s-2.6 3.9-4.3 5.6c-2 2-6.5 5.2-6.5 5.2l5.6-1s-2 3.5-3.2 4.7c-1.9 1.9-6.7 5.3-6.7 5.3l3.2-1h3.1s-2.4 4.7-4.1 6c-2 1.5-5 3.4-5 3.4l-31.8 79.7c-2.6 1.4-4.1.4-5-1.7l32.6-80s-1.3-2.8-1.7-5.1c-.4-2.1.7-7.1.7-7.1l3.1 2.2 1.3 2s-1.5-5.2-1.6-7.8c0-1.7.8-5.5.8-5.5l3.8 3.9s-1.4-4.8-1.5-7.6c-.1-2.3.8-7.1.8-7.1l3.4 1.9 1.7 3.2s-1.9-4.8-2.2-6.9c-.3-1.6 0-5.5 0-5.5s2.7.5 3.7 1c.7.3 1.9 1.6 1.9 1.6s-1.8-3.7-2-5.4c-.3-1.8.5-6.1.5-6.1s3 .5 4 1.1c.8.5 1.7 2.4 1.7 2.4s-.5-3.2.9-5.5l6-6.8s0 6.1-.4 8.6Zm-.6-5.9Z"/></g></g></g><g id="g28575"><path id="path28577" d="M790.2 407.9s-9 1.9-14.7 1.9c-3.8 0-6.2.1-14.3.2-4 0-9.3-1.7-16.9-1.6 0 0-.5.4-1 .9s-1 1.2-1 1.6c0 .5.5 1.1 1 1.6s1 .9 1 .9c5.2 1.1 11.9 1.9 17.5 1.6 4.9-.2 9.5-.1 13.4-.2 5.2 0 11.2-.6 14.6-1.9 2.1-.8 2.9-2.3 2.9-2.7 0-1.1-2.7-2.6-2.7-2.6Z" class="cls-46"/><path id="path28579" d="M742 397.8s11.2-2 17-2c3.8 0 6.2-.1 14.3-.2 4 0 9.3 1.7 16.9 1.6 0 0 .5-.4 1-.9s1-1.2 1-1.6c0-.5-.5-1.1-1-1.6s-1-.9-1-.9c-5.2-1.1-11.9-1.9-17.5-1.6-4.9.2-9.5.1-13.4.2-8.3 0-15.1 1.9-15.4 1.9h-.6s-3.2 1.6-3.2 2.7 2.2 2.7 2.2 2.7Z" class="cls-46"/><path id="path28581" d="M743.8 402.2s9-.3 14.7-.4c3.8 0 6.2-.1 14.3-.2 4 0 9.3.2 16.9 0 0 0 .5-.4 1-.9s1-1.2 1-1.6c0-.5-.5-1.1-1-1.6s-1-.9-1-.9c-5.2-1.1-11.9-1.9-17.5-1.6-4.9.2-9.5.1-13.4.2-8.3 0-15.3 2-15.4 2s-2.1 1.5-2.1 2.6 2.7 2.6 2.7 2.6Z" class="cls-46"/><path id="path28583" d="M789.2 404.1s-9.4.2-15.1.2c-3.8 0-6.2.1-14.3.2h-16.5s-.5.4-1 .9-1 1.2-1 1.6c0 .5.5 1.1 1 1.6s1 .9 1 .9c5.2 1.1 11.7 1.2 17.3.9 4.9-.2 9.5-.1 13.4-.2 8.3 0 14.7-1.1 15.1-1.1.2 0 2.7-1.7 2.6-2.7 0-1.1-2.7-2.6-2.7-2.6Z" class="cls-46"/><path id="path28585" d="M740 388.5s13.6-3.3 17.3-1.4c2.1 1.1 4.9 2.7 7.5 5.2 2 1.9 4 4.8 5.2 6 2.8 2.7 4.6 5.3 6.3 7.8 1.8 2.5 4.4 6.5 5.3 8.7s1.3 5.6 1.3 5.6.3 4.9-.8 5.3c-1.5.6-3.8-3.3-3.8-3.3s-1.2-2.3-1.9-4.7c-.6-2.3-4.7-9.6-8.2-11.8-2.6-1.7-5-7-7.1-8.9s-3.6-3.6-6.1-4.9c-1-.5-3.8-.7-6.4-.3-4 .6-7.9 2-7.9 2s-3.4-1-3-2.5c.3-1.3 2.3-2.8 2.3-2.8Z" class="cls-46"/><path id="path28587" d="M743.8 406.4s9.7-.3 15.4-.4c3.8 0 6.2-.1 14.3-.2 4 0 16.7-.3 17.2-.8s1-1.2 1-1.6c0-.5-.5-1.1-1-1.6s-1-.9-1-.9c-5.2-1.1-11.5-.7-17.2-.4-4.9.2-9.5.1-13.4.2-8.3 0-15.2.8-15.2.8s-2.6 1.5-2.6 2.6 2.7 2.6 2.7 2.6Z" class="cls-46"/></g></g><g id="real"><path id="path8781" d="M256.7 377.1c3.7 2.9 4.8 7.3 11.8 8.5-.1-1.1-1-2.3-1.4-2.9 3.5 2 6 3 9.9 4-.5-1.2-1.6-2.1-2.2-2.9 2.8 1.3 7.3 1.8 10.6 1.3-.7-.8-1.5-1.5-2.2-2.1 2.9 0 5.6-.2 8.4-.5-.7-.8-1.5-1.7-2.5-2.4 2.1-.4 3.9-1.4 5.8-2.5-4.6-10.7-15.1-20.5-33.2-13.1-.5-3.8 2.8-3.6 7.2-5.6 4.7-2.1 33.8-19.8 10.7-36.1 12.9 19.3-21.5 24.4-54.7 25.2-33.1.8-67.9-6-58.1-23.5-21.3 13.8 7.5 31.4 11.6 33.9s7.1 2.6 6.6 6.4c-18.1-8.4-28.2 1.7-31.7 14.1 2 .5 3.5 1 5.5.7-1.2.4-2 .9-2.7 1.8 2.8.3 5.5 1 8.4.9-1.1.4-2.4.8-3.4 1.8 2.9.5 5.9.7 8.8-.1-1 .9-1.6 1.6-2.1 2.8 3.9-.9 7.7-1.8 11.1-3.8-.4.6-1.1 1.9-1.3 3 4.1-1.2 8-2.5 11.7-5.4" class="cls-60"/><path id="path8783" d="M286.5 371.5c-9.1-6-21.7 0-27.4 0 5.2 14.7-1 28.7-5.6 34.8-.9 5.3-6.4 23.1-7.9 25.7-1.6 2.6 1.3 10-4.1 18.8-5.1 8.2-4.2 11.5-16.3 11.4s-14.5-3.8-19.3-12.5c-5-9.1-1.2-16.3-3.4-19.2-1.8-2.4-5.7-15.9-5.8-21.2-7.5-7.2-13.8-24.5-8.6-37.6-8.7.2-14.9-5.2-24.3-1.7" class="cls-11"/><path id="path8785" d="M208.1 402.8c1.1 4.6 1.7 17.5-4 24.9-5.2 6.7-7.5 16.7-2.8 21.3 4.6 4.6 8.2 6.4 15.2 4.5s11.1-.8 16.5-.1c5.3.7 9 1.7 13.3-3.1 4.6-5.1 5.1-13.2-1.1-21.1-5.6-7.2-5.3-23.6-4.4-26.1" class="cls-11"/><path id="path8787" d="M217.2 336.4c3.8-3.2 9.2-2.7 13.7.4 5.1-2.1 9.2.4 10.8 2.6 4.8-.7 6.3-.8 9.7 1.8 4.3.9 8.5 1.8 7 9.1 1.4 2.7 1.7 5.2-.2 7 1.3 2.9 1.3 4.6-.4 6.8 0 2.6-1.5 5.9-4.5 6.3-.5 2.3-3.2 4.8-7.3 3.7-2 2.7-5.2 3.5-8.1 2.3-2 2.6-5.3 2.8-7.4 2.1-.8 1.3-2.5 3.3-3.8 3.5s-2.2 1.3-2.9 2.3c-.6-1.1-1.2-1.9-2.5-2.1-1.2-.2-2.7-1.6-3.4-2.6-2.4.3-5 0-7.6-1.8-2.9.4-5.1-.1-7-2.8-4.3 0-6.7-2.3-7.8-4.4-3-.4-4.8-2.2-5.4-5.5-2.4-1.6-2.4-4.7-2.2-7.9-2.4-2-1.5-4.4.5-7-1.1-6.2 3.8-6.9 7.9-8.4 2.2-3.1 5.5-4.6 10.8-3.7 2.7-1.6 5.3-3.6 10-1.7Z" class="cls-60"/><path id="path8789" d="M197.7 378.9c-1.4 1.7.2 3.6 1.9 3.9s10.9 6 10.3 11.7" class="cls-70"/><path id="path8791" d="M250.2 379.4c1.4 1.7.5 3.7-1 4.3-1.6.6-7.3 4.9-9.4 10.2" class="cls-70"/><path id="path8795" d="M219.9 431.1c2.3 1.3 7.3.8 8.9-.2" class="cls-70"/><path id="path8797" d="M238.9 439.1c-6.4 4-.7 9.6 2 7.5.7-.5 1.1-1.5 1.2-3.1" class="cls-70"/><path id="path8799" d="M207.9 439.1c10.6 4.4-2.2 13.9-3.5 5.5" class="cls-70"/><g id="g8801"><path id="path8803" d="M252.3 386.1c0 5.9-7.9 10.5-8.1 4 0-1.1 1.3-2.7 2.2-3.1 1.1-1 4.7-1.3 5.9-.9Z" class="cls-36"/><path id="path8805" d="M250 389.5c0 1.3-1 2.3-2.3 2.3s-2.3-1-2.3-2.3 1-2.3 2.3-2.3 2.3 1 2.3 2.3" class="cls-24"/></g><g id="g8807"><path id="path8809" d="M198.5 386.1c0 5.9 7.9 10.5 8.1 4 0-1.1-1.3-2.7-2.2-3.1-1.1-1-4.7-1.3-5.9-.9Z" class="cls-36"/><path id="path8811" d="M200.8 389.5c0 1.3 1 2.3 2.3 2.3s2.3-1 2.3-2.3-1-2.3-2.3-2.3-2.3 1-2.3 2.3" class="cls-24"/></g><path id="path8157" d="M201.5 391c-.8-.9-1.7-2.2-1.9-2.9-.4-1 0-1.3 1.6-1.3 2.5 0 4.5 1.8 4.2 3.8-.3 2.1-2.1 2.2-3.9.3Z" class="cls-62"/><path id="path8159" d="M245.4 392.1c-1.8-1.8.9-5.3 4.1-5.3s2.5 1.3.2 3.8c-1.7 1.9-3.3 2.4-4.2 1.4Z" class="cls-62"/><path id="path8189" d="M183.2 360.1c-9.8-4.7-19.2-12.8-22.2-19.1-1.3-2.7-1.5-5.8-.7-8.2.6-1.7 2.8-4.8 4.2-5.8.6-.4.6-.3.5 2.2-.2 2.3 0 2.9.7 4.6 2.3 4.9 8 8.3 18.7 11.1l3.9 1v2c-.2 1.2-.5 2.5-.9 3.2-1.3 2.2-1.5 3.4-.7 5 .7 1.4 1.3 5.9.8 5.9-.1 0-2-.9-4.2-1.9Z" class="cls-61"/><path id="path8191" d="M259.4 359.3c-.4-1.6-.4-2.1 0-3 .7-1.3.7-3 0-4.6-.3-.7-.5-2.2-.4-3.8 0-2.2.2-2.6.8-2.7 9.7-2.1 15.1-4.1 19-7.2 3.3-2.6 4.8-6.9 3.6-10.6-.3-1-.5-1.8-.4-1.9.4-.4 3.5 3.6 4.6 5.7 1 2 1.2 2.7 1.2 5.2 0 2.7-.1 3.1-1.5 6-3.3 6.7-13.6 15.1-21 17.3-1.2.3-2.8.8-3.5 1.1s-1.5.5-1.6.5-.5-.9-.7-1.9Z" class="cls-61"/><path id="path8793" d="M209.3 433.2c11.1-.4 9.3 1.8 14.9 1.8s6.1-2.5 14.4-2.3" class="cls-70"/><path id="path8217" fill="#fff" fill-opacity="1" stroke="#000" stroke-width=".2" d="M210.7 453.8c-3-.2-5.6-1.6-8.5-4.5-2.3-2.2-2.9-3.9-2.9-7.4s.4-4.2 1.1-4.9c1.2-1.1 2.9-2.2 4.3-2.6.3-.1.6-.2 1-.3.8-.2 1.7-.3 3.6-.4 4-.2 7.1 0 9.3.7 3 .9 3.9 1 6.3.9 1.8 0 2.6-.2 3.9-.6 3.8-1.2 4.4-1.3 6.2-1.5 3.2-.4 7.2 0 9.8 1.1.5.2 1.6.8 2.4 1.3l1.4.9.3 1.3c.5 2 .4 5 0 6.9-1 3.4-3.4 6.5-6.2 8-2.2 1.1-3.9 1.1-10.4.2-7-1-10-1-13.8-.2-4.9 1.1-6 1.3-7.5 1.1Zm-1.1-5.9c1.6-.8 2.7-2.2 2.9-3.7.1-1.2-.2-2.2-1-3.1s-2.5-2.1-3.3-2.2c-.3 0-.5-.2-.5-.3 0-.3-.9 0-1.7.5-1 .7-1.5 1.3-2 2.3-.5 1.1-.6 3-.2 3.3.1.1.4.5.5 1 .5 1.8 1.9 2.8 3.6 2.7.5 0 1.3-.2 1.7-.5Zm31.1-.7c.7-.3 1.5-1.4 1.6-2.3 0-.3.3-1 .5-1.5.7-1.8.2-3.5-1.2-4.5-1.4-.9-2.7-.7-4.3.8-1.6 1.4-2.1 3.4-1.3 5.1.5 1.1 1 1.6 2 2.1s1.8.5 2.7.2Z"/><path id="rect8231" d="M211 155.7h2.8v13.7H211z" class="cls-69"/><path id="rect8233" d="M208.5 156.2h1.4v12.6h-1.4z" class="cls-69"/><path id="polygon8235" d="m208.5 111.5 1.4-.3v7.4l-1.4.7z" class="cls-69"/><path id="polygon8237" d="m208.9 78.6 1.1-.3v7.1l-1.4.6z" class="cls-69"/><path id="polygon8239" d="m211 110.8 2.7-.6v6.7l-2.7 1.3z" class="cls-69"/><path id="polygon8241" d="m211 78 2.7-.6v6.4L211 85z" class="cls-69"/><path id="polygon8243" d="m211 41 2.7.1v16.8l-2.7 1.2z" class="cls-69"/><path id="path8245" d="M211.7 37.7c-1.6 0-2.8 1.5-2.8 3.4h5.6c0-1.9-1.3-3.4-2.8-3.4Z" class="cls-84"/><path id="rect8253" d="M167.7 144.7h2.1v13.4h-2.1z" class="cls-73"/><path id="polygon8255" d="m167.7 121.5 2.1-.7v-4.4h-2.1z" class="cls-73"/><path id="polygon8257" d="m167.7 95 2.1-.6v-5.1l-2.1.6z" class="cls-73"/><path id="polygon8259" d="m167.7 69.8 2.1-.6V52.9h-2.1z" class="cls-73"/><path id="polygon8261" d="M166.5 53h.8v16.8l-.8.6z" class="cls-73"/><path id="polygon8263" d="m166.5 89.3.8-.3v6.1l-.8.4z" class="cls-73"/><path id="polygon8265" d="m166.5 116.8.8-.2v5.1l-.8.2z" class="cls-73"/><path id="rect8267" d="M166.5 144.7h.8v13.9h-.8z" class="cls-73"/><path id="path8269" d="M168 50.3c-1.4 0-2.5 1.4-2.5 3h4.9c0-1.7-1.1-3-2.5-3Z" class="cls-84"/><path id="polygon8271" d="M166.3 53h.8v16.8l-.8.6z" class="cls-73"/><path id="polygon8276" d="m266.9 60.5 2-.5V45.6h-2z" class="cls-73"/><path id="polygon8278" d="M265.6 45.6h.9v14.9l-.9.5z" class="cls-73"/><path id="polygon8280" d="m266.3 146.4 2-.3v-3.9h-2z" class="cls-73"/><path id="rect8282" d="M264.4 142.2h.8v4.4h-.8z" class="cls-73"/><path id="polygon8284" d="m266.3 115.6 2-.4v-5.9h-2z" class="cls-73"/><path id="polygon8286" d="M264.4 109.3h.8v6.5l-.8.2z" class="cls-73"/><path id="polygon8288" d="m266.2 87.6 2-.4v-5.8h-2z" class="cls-73"/><path id="polygon8290" d="M264.3 81.4h.8v6.5l-.8.2z" class="cls-73"/><path id="path8292" d="M267.3 42.6c-1.4 0-2.5 1.4-2.5 3h4.9c0-1.7-1.1-3-2.5-3Z" class="cls-84"/><path id="path8313" d="M124.9 137.6s7.3-15 13.3-22.2c6-7.3 16.4-14.4 16.4-14.4s-6.8 13.5-9.2 21.6c-2.8 9-2.8 21.8-2.8 21.8s-2.9-9-8.9-10.5-8.7 3.8-8.7 3.8Z" class="cls-83"/><path id="path8315" d="M153.2 125.9s-3.2 7.5-3.3 11.6 2.2 10.9 2.2 10.9 5.5-4.3 13.8-4 16.4 5.6 16.4 5.6-4.5-9.9-4.3-17.4c.2-7.6 4.7-15.6 4.7-15.6l-29.6 9Z" class="cls-83"/><path id="path8317" d="M156.4 99.6s-5.3 6.6-4.1 13 4.5 11.1 4.5 11.1.9-6.1 9.4-7.4 15.1.4 15.1.4-5.1-7.2-5.2-13.1c-.1-6.5 3.2-13.1 3.2-13.1l-23 9Z" class="cls-83"/><path id="path8319" d="M159 74.4s-3.8 6.5-3.7 12.1 3.2 11.6 3.2 11.6.3-8.6 9.4-8.8 11.4.8 11.4.8-4-7-4.3-11.8 3.7-12.2 3.7-12.2L159 74.5Z" class="cls-83"/><path id="path8321" d="M194.1 125.3s-7.3 8.8-5.9 19.3c1.4 10.6 7.8 23.9 7.8 23.9s2.1-12.9 19-13.1 33.3 7.7 33.3 7.7-13-10.9-14.3-27.6c-1.2-16.6 4.9-26.9 4.9-26.9l-44.8 16.7Z" class="cls-83"/><path id="path8323" d="M197.6 90.1s-4.5 5.2-3.4 14.5c1 9.2 6.9 17 6.9 17s1.3-11.6 13.5-11.5 18.2.6 18.2.6-7.3-7.8-7.2-15.2 4.8-17.2 4.8-17.2l-32.8 11.8Z" class="cls-83"/><path id="path8325" d="M200.8 63.7s-4.3 5.8-3.2 11.6 4.8 11.2 4.8 11.2 1.7-8.1 8.9-9.1 19 0 19 0-5-4.7-6.1-10.7c-1-6.1 3.1-12.5 3.1-12.5l-26.6 9.5Z" class="cls-83"/><path id="path8327" d="M250 123.5s-3.2 6.1-2 13.7 8.3 18.3 8.3 18.3-3.2-14.8 12-13.3 21.6 2.5 21.6 2.5-8.7-8.2-9.3-18.8 2.5-17.2 2.5-17.2L250 123.5Z" class="cls-83"/><path id="path8329" d="M253.3 92.1s-3.5 6.9-3.3 13.5 5.4 15 5.4 15-2-12 12.8-12h13.9s-5.6-6.1-4.9-13.6c.7-7.6 3.4-13.8 3.4-13.8l-27.4 10.9Z" class="cls-83"/><path id="path8331" d="M255.9 64.9s-5.4 3.7-4.2 12.5c1.1 8.9 5.3 13.2 5.3 13.2s-1.2-9.1 10.1-9.5 12.5.4 12.5.4-3.6-4.2-3.3-12.7 2.2-12.6 2.2-12.6l-22.6 8.7Z" class="cls-83"/><path id="path8334" d="M236.3 149.9s3.2 5.6 5.3 7.9c2.2 2.3 5.1 4.6 5.1 4.6" class="cls-82"/><path id="polyline8340" d="m197.4 161.3-1 5.9-1.7-6.6" class="cls-82"/><path id="path8362" d="M222.7 108c.6.3 8.2 1.7 8.2 1.7" class="cls-82"/><path id="path8368" d="M201.8 114.5c-.1.7-1.4 5.3-1.4 5.3" class="cls-82"/><path id="polyline8372" d="m220.8 74.5 7.5 2-4.9-4.8" class="cls-82"/><path id="line8374" d="M201.8 81.2v3.3" class="cls-82"/><path id="polyline8378" d="m173.1 87.6 5 1.7-5.4-4.6" class="cls-82"/><path id="polyline8382" d="m155.6 118.2 1.3 4.4v-5.5" class="cls-82"/><path id="path8384" d="M172.7 110.7s2 1.9 3.3 3 4.1 2.3 4.1 2.3" class="cls-82"/><path id="polygon8399" d="m167.3 156.8-49.4-20.7v-1.3l48.8 19.3z" class="cls-73"/><path id="path9496" d="M195.7 161.9c0-.8-.6-1.7-1.3-1.9-1.6-.6-5-13.3-5-18.8 0-2.9.8-6.1 2.5-9.6l2.5-5.2 20.7-7.7c11.4-4.2 20.8-7.6 21-7.4.2.1-.3 2.3-1.1 4.8-3 10-2.6 24.4.9 31.1.7 1.4.9 2.5.4 2.5s-.6.6-.3 1.4c.5 1.2.3 1.3-1.3.4-2.5-1.4-3.3-1.2-2 .3.8.9.8 1.3.1 1.3-1.7 0-1.1 1.4 1 2.5 1.8.9 1.7 1-1.1.5-9.7-1.6-17.5-2.2-20.7-1.7-4.5.7-10.3 3.2-11.8 5.1-.6.8-1.7 1.2-2.3 1-.7-.3-1.4.3-1.6 1.2-.3 1.3-.4 1.3-.5.2Z" class="cls-66"/><path id="path9498" d="M254.8 149.6c0-.8-.9-2.3-1.8-3.4-2.4-2.8-3.9-7.7-3.9-12.8 0-7.9.9-8.7 17.1-15.9 8-3.6 14.6-6.4 14.7-6.3s-.2 1.8-.6 3.7c-1.3 5.6-.9 12.8.9 18 1.9 5.4 1.6 6.6-1 5.2-2.7-1.5-3-.3-.3 1.5 3.6 2.3 1.1 3-7.1 2-3.9-.5-8.3-.6-9.8-.4-3.2.6-6.3 3.6-7.4 7.2-.4 1.4-.8 1.9-.8 1.1Z" class="cls-66"/><path id="path9500" d="M252 110.4c-2-7 .6-18 4.3-18s1.9-.4 2.4-.8c1-.9 19-8.2 19.4-7.8.1.1-.3 3-1 6.4-.9 4.4-1 7.1-.4 9.5.9 3.6.3 4.5-2.1 3.6-1.2-.5-1.4-.3-.8.7 1.7 2.8 1.2 3.5-3 3.5-6.4 0-11 1.4-13.5 4.1-3.2 3.5-4 3.4-5.2-1.1Z" class="cls-66"/><path id="path9502" d="M253.5 81.6c-.3-1.1-.6-4.1-.6-6.6 0-6.6 1.9-8.5 13.9-13.1l9.9-3.8-.6 2.3c-.3 1.3-.6 5.6-.6 9.6 0 4.6-.3 7.2-.9 7.1-.5 0-.8.5-.7 1.3.2 1.2-.9 1.5-5.9 1.9-3.4.2-6.7.9-7.4 1.5-1.8 1.5-5 1.9-5 .7 0-.7-.2-.7-.8.1-.6.9-.9.7-1.3-.9Z" class="cls-66"/><path id="path9504" d="M196.3 109.2c-1.4-5-1.3-11 .3-15 1.2-2.8 1.9-3.3 16.2-8.5 8.2-3 15-5.4 15.1-5.4 0 0-.6 2.3-1.5 4.9-1.9 5.5-2.2 13.3-.7 16.1.8 1.4.8 2 0 2.2-.6.2-.8.7-.5 1.2.4.6-.2.7-1.5.2-1.9-.6-2-.5-.9.8.9 1 .9 1.5.2 1.5s-.8.4-.5.9c.3.6-1.8.9-5.9.9-5.2 0-7.2.4-10.2 2.1-2.1 1.2-4.9 2.1-6.3 2.1-2.3 0-2.7-.5-3.8-4.1Z" class="cls-66"/><path id="path9506" d="M201 80.1c-2.7-2.7-3.2-7.2-1.2-11.6 1.6-3.8 1.7-3.8 13.1-7.9 6.3-2.3 11.5-4.1 11.6-4 0 0-.3 2-.8 4.3-.7 3-.7 5.1 0 7.3.9 2.8.8 3.1-.8 3.1s-1.6.5-1.4 1.1c.7 2-1.8 3.3-7.3 3.9-4.3.4-6.1 1.1-8.4 3.1q-2.9 2.6-4.7.8Z" class="cls-66"/><path id="path9508" d="M156.8 87.1c0-2.8.7-6.4 1.6-8.5 1.5-3.3 2.3-3.9 9-6.6 4-1.7 7.6-3.1 8-3.3s.3 1-.3 2.5c-.5 1.5-.8 5.1-.6 8 .3 4.7.2 5.2-1.3 5.2s-1.5.3-.7 1.2c1.4 1.6.4 2.3-3.4 2.3s-4.7.7-6.4 1.7c-2.2 1.1-3.4 1.3-3.6.7-.3-.7-.7-.5-1.3.3-.7 1-.9.1-.9-3.5Z" class="cls-66"/><path id="path9510" d="M157.6 117.5c0-1.6-1.7-1.8-1.8-.2-.1 2.1-2.5-4.2-2.5-6.8 0-3.6 3.4-10.4 4.9-9.8.7.3 1.2.2 1.2-.2 0-.8 16.7-7.6 17.3-7s0 1.7-.6 3.3-.8 5.1-.5 8.1c.5 5.2.2 5.7-2.8 5.2-1.1-.2-1.1 0 0 1.3s1 1.7-.4 2.7c-.9.7-3 1.2-4.6 1.2s-4.5.8-6.4 1.8c-2.9 1.5-3.5 1.6-3.5.4Z" class="cls-66"/><path id="path9512" d="M155.9 144.8c0-.2 3.7-5.6 8.2-12 7.6-10.8 8.5-11.7 12.1-12.8 2.2-.6 4-1.2 4-1.2s-.7 2.3-1.6 5.1c-1.2 3.6-1.6 6.7-1.4 10.5.3 4.4 0 5.7-1.2 6.6-1.2.8-1.3 1.4-.6 2.3.8 1-.4 1.1-6.5.6-4.7-.4-8.6-.2-10.3.4-1.5.5-2.7.8-2.7.6Z" class="cls-66"/><path id="path9516" d="M152 143.3c-1.2-3.9-1.2-6.1 0-10.6.8-2.8 1.9-5.4 2.4-5.8 1.1-.8 13.9-4.7 14.3-4.4.4.5-14.2 20.9-15.3 21.4-.6.2-1.3 0-1.5-.6Z" class="cls-66"/><path id="path9518" d="M139 136.1c-1.7-1.9-3.4-2.7-6.3-3.1l-4-.5 4.5-7.5c4.1-6.8 16.1-20.2 17.1-19.1s-1.1 3.9-2.8 8.2c-1.9 4.5-3.9 11.4-4.7 16.2l-1.4 8.4-2.3-2.6Z" class="cls-66"/><path id="line8484" d="M227.7 160h4.9" class="cls-81"/><path id="line8510" d="M199.8 161.7h7.1" class="cls-81"/><path id="line8518" d="M215.5 80.3h2.7" class="cls-81"/><path id="line8520" d="M218.2 79.3h2.6" class="cls-81"/><path id="line8536" d="M173.2 154.1h8.6" class="cls-81"/><path id="line8538" d="M172.8 149.4h7.9" class="cls-81"/><path id="line8540" d="M173.8 157.9h8.8" class="cls-81"/><path id="line8550" d="M156 158.4v-11.8" class="cls-81"/><path id="line8562" d="M156 148.3h10.6" class="cls-81"/><path id="line8570" d="M160.4 122.8v-3.7" class="cls-81"/><path id="line8578" d="M162.9 97.1v-6.4" class="cls-81"/><path id="line8584" d="M160.4 93.1h2.5" class="cls-81"/><path id="rect8594" d="M146.3 147.1h1.1v11.4h-1.1z" class="cls-73"/><path id="Colour_Ship" fill="#603913" stroke="#000" stroke-miterlimit="2.5" stroke-width=".6" d="M260.8 147.1c-2 5.5-4.8 10.9-4.8 10.9-3.4 1.3-9.3 5.4-40 7-16 .9-28 1.1-31.5.1l-1.3-6.4-41.4-1.8v1.5c.7.4 3.8 1.4 4 1.9 1.3 3 5.6 7.1 10.5 9.2 12.5 5.2 16.2 22.1 16.2 22.1 3.2-1.5 8.5-2.8 13 .3 5.4 3 12.1 3.9 17.5.4 4.4-2.6 9.8-3.5 14.3-.4 5.4 3 12.1 3.9 17.5.4 4.4-2.6 9.8-3.5 14.3-.4 5.4 3 12.1 3.9 17.5.4 3.7-2.2 8.1-3.1 12-1.6l4.6-10.4s0-4.8 4.2-13.3 12.1-13.5 12.1-13.5l3.7-12.3-42.2 6Z" data-name="Colour Ship"/><path id="path8608" d="m302.1 144.4.8-2.7-42.2 5.9-.9 2.4 42.3-5.6Z" class="cls-67"/><path id="path8610" d="m301.2 147.4.5-1.6-42.5 5.6c-.2.4-.4.9-.6 1.3l42.6-5.3Z" class="cls-67"/><path id="polygon8612" d="m300.1 151.2-43.3 5.4 1.2-2.6 42.8-5.3z" class="cls-67"/><path id="polygon8614" d="M285.9 170.1 161 172.2l-3.6-2.2 129.5-2.5z" class="cls-67"/><path id="polygon8616" d="m184.2 163.3-37.5-1.4-.9-1.6 38 1.3z" class="cls-67"/><path id="polygon8618" d="m284.2 175.4-118.3 1.9-2-2.4 121.1-2.3z" class="cls-67"/><path id="path8620" d="m168.5 181.4 114.7-1.5s-.4 2.2-.4 2.7-.8 2.8-1 3.7c-.4 2.3-1.2 4.3-1.2 4.3l-6.4 3.3-3.5 1.2-10.8 2.5-52.6.3-34.6-1.1-.2-5.3s-.8-3-1.2-4c-1.1-2.8-2.8-6.2-2.8-6.2Z" class="cls-67"/><g id="g17724"><path id="path13146" fill="#eac102" stroke="#000" stroke-linejoin="round" stroke-width=".5" d="M756.7 53.2c-6.8 0-12.4 4-12.4 8.9s5.6 8.9 12.4 8.9 12.4-4 12.4-8.9-5.5-8.9-12.4-8.9Zm0 4.1c3.7 0 6.7 2.1 6.7 4.8s-3 4.8-6.7 4.8-6.7-2.2-6.7-4.8 3-4.8 6.7-4.8Z"/><path id="polygon3399" fill="#eac102" stroke="#000" stroke-width=".3" d="M758.1 66.5h-4.2l-3.6 21.2 11.4-.1z"/></g><g id="g3435"><g id="g3188"><path id="path2400" d="M740.3 154c-.9 8.1 2 14.2-3 24.6.4 3 .1 3.3 0 4.2 2.6-.2 3.3-.6 3-1.2l.4 1.5c1.8 0 4.2-.5 5.8-2.9-2-1.9-1.8-3.7-1.5-5.6h2.6c-2.2-9.3 2.9-11.9 2.8-23.4-3.4.6-8.3.9-10 2.7h0Z" class="cls-31"/><path id="path2402" d="M737.4 178.7c2.7-.8 5.7-.1 7.4-.7" class="cls-31"/><path id="path3186" d="M740.3 158.5c2.3.5 3.2-.4 3.5-2.1" class="cls-31"/></g><g id="g3193"><path id="path3195" d="M729.6 152c-1.5 8.1.9 14.3-4.9 24.5.2 3-.1 3.3-.3 4.2 2.7-.2 3.3-.5 3.1-1.2l.2 1.5c1.8 0 4.3-.3 6-2.7-1.9-1.9-1.5-3.8-1.1-5.6l2.6.2c-1.5-9.4 3.8-11.9 4.6-23.4-3.4.5-8.3.7-10.2 2.4h0Z" class="cls-31"/><path id="path3197" d="M724.9 176.6c2.8-.7 5.7 0 7.4-.5" class="cls-31"/><path id="path3199" d="M729.2 156.5c2.3.6 3.2-.3 3.7-2" class="cls-31"/></g><path id="path3395" d="M754.4 75c-2.4.2-5 1-7.2.4-.4 0-.7-.2-1.1-.3-1.8-.5-4.5 1.2-6.1 1.6-2 .5-5.6 1.4-7.6 1.4-2.9 0-4.6 1.7-7.4 2-.7 0-1.4 0-2.2.1-1.4 0-2.8 2.4-5.4 2.7-2.2.3-3.1 2.4-3.9 3.7-1 1.6-4.3 1.8-5.7 3.6-.2.2-.4.4-.7.5-1.3 1.1-4.2 2.5-3.7 4.2.5 1.6-3 2.8-4.3 3.7-2 1.2-3.6 2.6-3 4.4.5 1.7-3.9 3.1-3.9 4.6s-.9 2.3-.9 4.1.2 3 .2 4.6-.4 3.2-.4 4.8-1.1 3.9 0 5.6 2.8 1.6 2.8 3.8 3 4.4 5.4 4.9c3.8.8 6 3.7 10.2 4.1 8 .8 11.5 3.2 15.7 8.1 1.4 1.8 1.6 3.2 4.6 4 2.8.7 4 1.6 6.5 2.2 2.6.6 5.3 1.1 7.8-.1 0 0 .8.2 1.5-.3 2.2-1.4 9.3 1.1 9.3-2.2s1.1-3 1.1-4.4 2-1.3.9-3.1c-.5-.8 1.7-4 2.2-4.8.7-1 .8-3.7.2-4.6-.9-1.4-1.1-3.2-1.1-4.5s1-3.5 1.5-5.1c.2-.7-1.7-1.7-1.3-3 0-.2.1-.5.2-.7s.1-.5.2-.7c.5-1.7 0-2.4 0-4.2s-.8-3.6-.4-4.8c.5-1.6 1.2-3.3 1.7-4.9.5-1.5 2.6-2.6 2.6-4.2v-.7c0-1.7 0-3.3.4-4.9.6-1.9-.2-2.7-.2-4.5s-.9-3.6-1.7-4.9c-1-1.5-.9-3.6-2-5.2-1-1.6-1.1-3.4-2.2-4.8-.9-1.1-1.4-1.2-2.8-2.3Z" class="cls-23"/><g id="g3325"><path id="path3301" d="M804.9 96.1c-.3.7 1.9.7 2.8 1.1 2 .9 3.6 2.1 4.3 3.4.6 1.1 3.2 3.5 4.3 4.5 1.7 1.4.2 1.6 2.8 2.5 2.1.6 2.2 3.4 1.5 4.5-.9 1.4.3 2.4.9 4.1.7 2.4 1.5 2.4 1.5 3.5 0 4.5 3.2 2.9 0 5.6-.6.5 2.8 4.1 3 4.9.4 1.1-.8 1.6 1.3 2.6v1.6c.1 0 0 .2 0 .3 1.3.7-1.2 4.1-1.7 4.6-1.8 1.9-1.4 1.2-2.8 3.4-.2.2-.4.5-.7.7-1 1 1.1 4.1-4.6 2.7-.4 0-.7-.2-1.1-.3-2-.5-3.6 1.5-5.9 2.2-2.5.8-5.2-1.6-5.4-2.7-.4-1.6-1.3-3.1-1.3-4.8 0-2.4-2-4.6-2-7.1 0-4-1.1-7-2.4-10.9-.6-2-.9-5.3-.9-7.4s-1-3.2-2.4-5.3c-.7-1.2.3-3.5.7-4.9.4-1.7 1.1-3.3 2.2-4.6s2.9-2.8 4.6-3.8.7-.3 1.1-.4Z" class="cls-23"/><path id="path3307" d="M813.4 106.5c1.2-.9 1.7 1.7 2.1 2.4 0 .3.2.5.3.8" class="cls-31"/><path id="path3309" d="M817.5 112.6c1.7.7 1.2 2.3 1.7 3.4 1.2 1.2-1.1 2.1-1.9 3" class="cls-31"/><path id="path3311" d="M821.2 120.3c1 1.5-1.1 3-1.5 4.5" class="cls-31"/><path id="path3313" d="M820.8 132.4c.5 1.2-1.5 2.2-1.6 3.4-.3.3-.7.4-1 .7" class="cls-31"/><path id="path3315" d="M818.2 141.2c-1 .8-2.9 1.2-4.3 1.6" class="cls-31"/><path id="path3317" d="M824.9 135.6c-.3 1.3-2.3 2.1-3.4 3.1-.4.1-.8.2-1.2.2" class="cls-31"/></g><g id="g3209"><path id="path3211" d="M784.2 154.6c-2.5 8-.9 14.3-7.9 24.2-.2 3-.5 3.2-.8 4.2 2.7 0 3.4-.4 3.2-1v1.5c1.8.1 4.4-.1 6.4-2.4-1.6-2-1-3.8-.4-5.7l2.6.3c-.3-9.5 5.3-11.7 7.5-23.1-3.5.3-8.4.3-10.5 1.9h0Z" class="cls-34"/><path id="path3213" d="M776.4 178.9c2.9-.6 5.7.3 7.5 0" class="cls-34"/><path id="path3215" d="M783.3 159.1c2.2.7 3.2-.1 3.9-1.8" class="cls-34"/></g><path id="path3269" d="M761.7 120.8c.6.7-.9 1.5-.9 2.3 0 1.6.6 3.3 1.1 4.9s.9 3.2 1.3 4.8c.4 1.7.9 3.1 1.5 4.6.6 1.4 2.5 2.7 3.5 3.7 1.2 1.3 1.8 3.3 2.4 4.8s2 3.4 3.7 3.8c2.2.6 2.2 1.8 5.2 2.2 1.5.2 4.6 2.6 5.6 3.3 1.2.7 3.3 1.1 6.3 1.1s5-1.1 5.9-2.5c1.6-2.6 4.4-2.3 3.3-5.2-.2-.6-.6-1.1-.9-1.6-1-1.9-2-5.2-5-6.5-2.8-1.3-7.4-7.2-7.4-9.7s-3-7.6-3.7-8.2c-2-1.6-4.9-2.1-7.6-3.1-2.6-1-4.9-1.1-7.8-1.1s-5.1.3-6.5 2.5h0Z" class="cls-31"/><g id="g3201"><path id="path3203" d="M793.2 155.6c-1.9 8 .2 14.3-6.1 24.4 0 3-.3 3.3-.5 4.2 2.7-.1 3.3-.5 3.2-1.1l.2 1.5c1.8 0 4.3-.2 6.1-2.6-1.8-2-1.3-3.8-.8-5.7l3.9.3c-3.2-11.2 6.8-12.6 3.8-23-3.5.4-7.7.2-9.7 2Z" class="cls-34"/><path id="path3205" d="M787.2 180.1c2.8-.6 5.7.1 7.5-.3" class="cls-34"/><path id="path3207" d="M792.7 160.1c2.2.7 3.2-.2 3.8-1.9" class="cls-34"/></g><path id="path3217" d="M762.4 120.4c0 1 2.4 2 1.3 3.8-1 1.5 1.2 3.5 1.1 4-.4 1 1.2 3.9 2 4.5 1.1.9 2.1 2.9 2.6 4.1 1 2.4 1.3.6 1.3 4s.9 2.7 3.5 3.5c1.5.5 3.2 4.7 3.9 5.6s3.7.6 5 2.6c.9 1.4 5 1 6.3 1.4s4.2 1.1 6.7 1.8 5 1.4 7.6.4c3.3-1.3 3.3-3.2 4.8-3.7 1.2-.4-2.7-2.8-.9-4 1.9-1.2 4.8-2.3 2.6-4.1-1.7-1.4-.7-2.5 0-4.2 1-2.5 1.8-2.1 1.1-4.4-.8-2.6-1.1-.6.9-3.1 2.6-3.3-.2-2.4-.2-4.9s2.3-4.5 3.3-5.7c.2-.3-2.7-3.2-1.7-4.8 1.1-1.7.4-3.1.4-4.8s-2.7-2.8-1.7-5.2-.4-3.5-2-4.5c-.7-.5-4.1-3.8-4.1-4.1v-1c0-1.5-1.1-4.1-2.6-4.8-2.1-1-2.7-2.8-4.8-4.1-1.8-1.1-3.8-2.5-5.4-3.5-2.5-1.6-1-2.2-5-3.7-2.6-1-5.5-1.5-7.6-2.6-.6-.3-4.2-.4-6.1-1.6-2.3-1.5-5.3.8-7.2-1.8-.9-1.2-3.8.5-5 0s-3 .3-4.3.7l5.4 22.2-3.9 19.5 2.8 2.5h0Z" class="cls-31"/><path id="path3221" d="M765 77.4c1.6.5 4.9 1.1 4.1 2.3" class="cls-31"/><path id="path3223" d="M773.2 81c1.4 0 5.2.2 5.4.8 0 .2.9.8 1.1 1" class="cls-31"/><path id="path3225" d="M780.6 85.2c.4 1 3.2.5 4.3 1.2s.7.8.7 1.4" class="cls-31"/><path id="path3227" d="M786.9 84.5c2 1.3 5 .3 6.3 2.3" class="cls-31"/><path id="path3229" d="M801.9 91.9c.3.4-3.3-.7-6.3 0" class="cls-31"/><path id="path3231" d="M791 88.1c-1.5.4 1.5 1.9 1.5 2.9 0 2 1.5 1.4 1.1 2.6" class="cls-31"/><path id="path3233" d="M799.5 94.4c0 .9 2.4 1 3 1.8 1.2 1.5 2.4 2.5.2 3.8" class="cls-31"/><path id="path3235" d="M801 100.9c1.2 1.5 2.2.2 2.8 3.1" class="cls-31"/><path id="path3237" d="M806.6 103.1c.6.8 2.7.4 3.5 1.4" class="cls-31"/><path id="path3239" d="M802.3 106.8c1.4 1.7 3 .6 3 2.5s-.1.7-.4 1.2" class="cls-31"/><path id="path3241" d="M811.2 111c0 .8-2.2-2-5.2-3.3" class="cls-31"/><path id="path3243" d="M806.6 113.9s4 .3 4.8 2.9v.5" class="cls-31"/><path id="path3245" d="M807.7 116.9c.5 1.5.5 2-1.7 3.4" class="cls-31"/><path id="path3247" d="M807.7 122.2c.3.9 1.8 2.9-1.1 4.2" class="cls-31"/><path id="path3249" d="M803 125.6c.3.9 2.3 1.6.7 3-1 .8-.2.7-.4 1.4" class="cls-31"/><path id="path3251" d="M808.8 129c-.4.3-.8 3.1-2 4-.2.2-.7.2-1.1.3" class="cls-31"/><path id="path3253" d="M804 133.9c-.3.2-1 2.9-2 3.7" class="cls-31"/><path id="path3255" d="M805.6 139.4c-.3.2-.3 2.6-2.2 3.3" class="cls-31"/><path id="path3257" d="M804.9 147.6s-1.8 1.2-3.7 1.2" class="cls-31"/><path id="path3259" d="M802.3 151c-.7.6-2.8 1.9-5 2.5" class="cls-31"/><path id="path3261" d="M797.5 143.3c-.9.7.2 1.8-.4 2.6-.3.3-.6.6-.9 1-.3.3-.6.5-.9.8" class="cls-31"/><path id="path3263" d="M788.6 147.7c-.5.6-4.4-2.2-4.6-2.5" class="cls-31"/><path id="path3265" d="M779.5 142.9c-1 1.1-3.9-3.5-4.1-3.8-.1-.2 0-.5 0-.7" class="cls-31"/><path id="path3267" d="M769.5 125.5c-.2-.3-.3 1.1 1.7 3.7s1.7 0 2.4-.3" class="cls-31"/><path id="path2396" d="M751.1 74.6c2.3.2 3.5 1.5 7.4 0 14.8 12.3 8.5 41.4 3.8 47.2l-4.6-.7c-.3-.9-.5-1.9-3-2.5 8.6-17 3.6-37.6-3.6-44" class="cls-31"/><path id="path3360" d="M695 132.8c-.7 6.7 5 8.2 7.2 11.5 2.2 3.4 4.1 9.5 10.8 12.5 2.9.8 5.7 1.4 6.3.3 2.5-.2 3.6-.8 4.2-1.7.8-1.4-.3-3.4-.9-5.2-.4-3.3 7.3-6.1 5.7-17.6l-3-7" class="cls-31"/><path id="path3362" d="M709.2 138.9c-.6.5-.4 1.7.8 1.5 1-.4.9-1.2 1-1.9 0-.8.2-1.7 1.2-2.2-.5 0-3 1.9-3.1 2.6Z" class="cls-31"/><path id="path3371" d="M722.7 137.1c.4 2.6-.5 4.6-4.6 5.3" class="cls-31"/><path id="path3373" d="M711.6 145.6c.6 1.2 1.2 2.4.7 4.5" class="cls-31"/><path id="path3375" d="M719.2 152c.4 1.6.8 3.2.9 5" class="cls-31"/><path id="path3377" d="M716.1 154.8c.5 1.2.5 2.2-.9 2.4" class="cls-31"/><path id="path3399" d="M748.1 78.3c-.2-.3-4.4.5-5.4 1.1" class="cls-23"/><path id="path7617" d="M735.1 80.5c-.5-.6-5.4 1.2-6.3 1.5" class="cls-23"/><path id="path3403" d="M727 81.6c-1.5.6-3.4-.2-4.3 1.4" class="cls-23"/><path id="path3405" d="M719 86.2c-1.4.5-4.3 2.9-5.4 4.6" class="cls-23"/><path id="path3407" d="M704.7 97.4c-.9 1.3 2.7-3-1.1 1.2" class="cls-23"/><path id="path3409" d="M702.3 100.7c-.2.4-2.8 4.6-4.6 5.7" class="cls-23"/><path id="path3411" d="M724.4 101.8c-.6.9-1.7 2.7-1.7 4.5s-.7 3.3-.7 5.2.5 3.7 1.7 4.5 1.1 4.3 1.1 4.5" class="cls-23"/><path id="path3413" d="M726.6 105.3c1.3.8-.6 2.3-.2 3.4" class="cls-23"/><path id="path3415" d="M728.8 112.9s1 2.4 1.5 3.1" class="cls-23"/><path id="path3417" d="M751.6 115c.4.3-2.7 4.4-3.7 5.1" class="cls-23"/><path id="path3419" d="M754.4 125c.3.2-.7.2-1.1.3 0 0 .9 2.6 0 4-.1.2-.6.3-.9.4" class="cls-23"/><path id="path3421" d="M753.6 133.5c-.6 1 1.3 3-1.7 4.9-.4.2 0 .6 0 1" class="cls-23"/><path id="path3423" d="M756.2 139.9c-1.9 1.2-2.2 3.3-4.6 4.4" class="cls-23"/><path id="path3425" d="M728.1 140.2c-.7.4.4 3.2.9 4.4.9 2.3 2 1.8 2 4.1s4 2.4 4.6 3.8c.5 1.2 2 1.3 3.3 1.6" class="cls-23"/><path id="path3427" d="M733.6 141.3c.5 1.3-2.9 3 .9 4" class="cls-23"/><path id="path3429" d="M732.7 133.6c.5.1-.7 3.5 2.2 4.6.4.1.7.8.9 1" class="cls-23"/><path id="path3431" d="M743.4 150.6c2.7 1.1 4.7-1.5 5.4-2.6.3-.5.4-.9.7-1.4" class="cls-23"/><path id="path3433" d="M753.4 148.4c.2-.3-1.6 1.3-2.6 2.6" class="cls-23"/><path id="path3379" d="M706 123.4c4.3-5.1 9.7-9.4 21.5-8.3 9.9 2.4 13.7 6.7 8.8 13.7-6.5 8.7-19 2.8-18.7-1.2.3-3.9.6-4.2 4.3-6.7-5.4 1.9-7.5 4.7-8.5 7.6" class="cls-31"/><path id="path3381" d="M722 120.9c8.5-1.6 8.4 2 7.9 4.1-.7 1.6-1 2.6-4.3 1.9-1.2-1.7-.9-4.4 3.4-4.5" class="cls-31"/><path id="path3383" d="M704 121.4c1 0 2.9-.5 4.4.5 1.4.9-.2 1.2 2.2 1.8 0 0 .7 1.8.7 2.7 0 1.3.9 1.4 1.3 2.6 0 .2 0 .3.1.5 0 .2-2 2-3 2.2 0 0-.7 1.4-2 1.9-1.5.6-2.3 2.1-3.6 2.3-1.5.2-3.5.2-4.7.4-1.5.2-3.7-.3-5.5-.2-2.4.2-2-1.1-4.4-1.1s-3.6-1.7-3.6-2.6-2.9-1.5-2.9-3.3-.9-3 1.4-4.5c2-1.2 1.8-3 2.4-4.5 0 0 3-1.3 3.6-2.4.9-1.8 3.6-1.2 4.2-2.9 0-.2 0-.3.1-.5" class="cls-31"/><path id="path3385" d="M704.2 124.1c.3-1.1 1.6 1.5 1.6 2" class="cls-31"/><path id="path3387" d="M707 127s.4.5.4.9-1.7 1.6-1.9 1.7" class="cls-31"/><path id="path3389" d="M705.9 131.8c0 .5-2.6 1.5-4 1.9-.9.2-1 .2-1.4-.2" class="cls-31"/><path id="path3391" d="M689.4 127.7c-1.5.4-.3 2.1 1.1 2.5" class="cls-31"/><path id="path3393" d="M692.1 117.4c1.1.3-.9 1.4-1.1 2.2-.4 1.3 1 2.2.4 3.2" class="cls-31"/></g></g></svg>