<?xml version="1.0" encoding="UTF-8" standalone="no"?>
<!-- Created with Inkscape (http://www.inkscape.org/) -->

<svg
   xmlns:dc="http://purl.org/dc/elements/1.1/"
   xmlns:cc="http://creativecommons.org/ns#"
   xmlns:rdf="http://www.w3.org/1999/02/22-rdf-syntax-ns#"
   xmlns:svg="http://www.w3.org/2000/svg"
   xmlns="http://www.w3.org/2000/svg"
   xmlns:sodipodi="http://sodipodi.sourceforge.net/DTD/sodipodi-0.dtd"
   xmlns:inkscape="http://www.inkscape.org/namespaces/inkscape"
   width="526.56317"
   height="352.354"
   id="svg30450"
   version="1.1"
   inkscape:version="0.48.4 r9939"
   sodipodi:docname="Nieuw document 94">
  <defs
     id="defs30452" />
  <sodipodi:namedview
     id="base"
     pagecolor="#ffffff"
     bordercolor="#666666"
     borderopacity="1.0"
     inkscape:pageopacity="0.0"
     inkscape:pageshadow="2"
     inkscape:zoom="0.35"
     inkscape:cx="338.28157"
     inkscape:cy="50.462723"
     inkscape:document-units="px"
     inkscape:current-layer="layer1"
     showgrid="false"
     fit-margin-top="0"
     fit-margin-left="0"
     fit-margin-right="0"
     fit-margin-bottom="0"
     inkscape:window-width="1600"
     inkscape:window-height="837"
     inkscape:window-x="-8"
     inkscape:window-y="-8"
     inkscape:window-maximized="1" />
  <metadata
     id="metadata30455">
    <rdf:RDF>
      <cc:Work
         rdf:about="">
        <dc:format>image/svg+xml</dc:format>
        <dc:type
           rdf:resource="http://purl.org/dc/dcmitype/StillImage" />
        <dc:title></dc:title>
      </cc:Work>
    </rdf:RDF>
  </metadata>
  <g
     inkscape:label="Laag 1"
     inkscape:groupmode="layer"
     id="layer1"
     transform="translate(-36.718426,-230.47089)">
    <rect
       style="fill:#aa0000;fill-opacity:1;stroke:none"
       id="rect30411"
       width="526.5625"
       height="352.34299"
       x="36.718426"
       y="230.48192" />
    <path
       style="fill:#ffffff;stroke:none"
       d="m 36.719075,230.47089 0,51.562 449.218805,300.781 77.34369,0 0,-56.249 -449.21869,-296.094 z"
       id="path29807"
       inkscape:connector-curvature="0" />
    <path
       style="fill:#ffffff"
       d="m 306.13537,334.60589 c -1.4427,-0.369 -2.44439,-1.607 -2.9266,-3.622 -0.1723,-0.718 -0.3025,-2.011 -0.30399,-3.014 l 0,-0.954 -1.0637,0 c -0.5851,0 -1.6595,-0.06 -2.3876,-0.117 -4.83211,-0.43 -8.6642,-1.518 -12.202,-3.463 -3.24941,-1.785 -5.8487,-4.127 -7.82231,-7.045 -4.227,-6.251 -5.1183,-14.652 -2.27229,-21.418 0.52869,-1.258 0.907,-1.911 1.9959,-3.452 2.22399,-3.148 3.82849,-5.197 5.7165,-7.304 0.6946,-0.775 1.20019,-1.397 1.1502,-1.414 -0.049,-0.02 -0.2459,-0.06 -0.4376,-0.08 -0.60751,-0.09 -1.7147,-0.408 -2.5707,-0.738 -3.5956,-1.384 -6.5847,-4.279 -8.199,-7.939 -1.4604,-3.311 -1.71231,-7.176 -0.6944,-10.65 0.42959,-1.468 1.3753,-3.412 2.2504,-4.629 0.4253,-0.591 1.4829,-1.78 2.0683,-2.327 1.1716,-1.093 3.0472,-2.279 4.4882,-2.841 1.75759,-0.682 3.3167,-0.97 5.2713,-0.97 1.9923,0 3.4499,0.272 5.2282,0.976 7.2091,2.852 11.0531,10.979 8.8129,18.632 -0.2936,1.004 -0.9836,2.563 -1.5504,3.506 -0.2251,0.375 -0.6236,1.119 -0.8856,1.653 -1.0492,2.14 -2.79521,5.146 -5.2792,9.087 -1.3275,2.107 -1.4169,2.273 -2.0187,3.734 -1.569,3.811 -2.4086,6.49 -2.74891,8.772 -0.17439,1.17 -0.17229,3.31 0,4.231 0.60351,3.146 2.34571,5.448 5.46301,7.221 5.7265,3.256 14.7509,4.197 22.1134,2.306 4.2144,-1.082 8.1323,-3.031 12.1644,-6.053 2.6846,-2.012 4.94,-4.082 9.9692,-9.153 0.9972,-1.005 2.1562,-2.161 2.5755,-2.567 0.8167,-0.791 2.70519,-2.495 2.7323,-2.463 0.01,0 -0.051,2.071 -0.13331,4.582 -0.082,2.51 -0.13189,4.584 -0.11009,4.608 0.021,0.03 2.2633,-0.881 4.9811,-2.011 2.7179,-1.13 4.952,-2.045 4.965,-2.031 0.027,0.03 -1.33621,2.06 -2.5596,3.81 -7.3096,10.458 -13.9105,16.697 -21.6183,20.432 -4.1935,2.033 -9.1706,3.291 -13.6493,3.451 -0.6404,0.02 -1.3228,0.06 -1.5167,0.08 l -0.3525,0.04 -0.087,0.676 c -0.1682,1.309 -0.7405,2.892 -1.514,4.189 -0.5254,0.881 -1.6781,2.209 -2.4514,2.823 -0.7317,0.581 -1.6736,1.104 -2.3879,1.324 -0.6859,0.212 -1.6501,0.267 -2.2056,0.125 z m -16.72079,-62.194 c 3.0702,-1.075 4.4658,-4.648 3.01589,-7.721 -0.3463,-0.734 -1.1225,-1.652 -1.74619,-2.066 -2.873,-1.901 -6.5854,-0.489 -7.62871,2.9 -0.1762,0.571 -0.1937,0.728 -0.1925,1.718 0,0.982 0.02,1.145 0.18681,1.659 0.2714,0.835 0.58279,1.375 1.1731,2.033 0.74,0.825 1.5761,1.341 2.603,1.602 0.62719,0.161 1.958,0.1 2.5886,-0.125 z m 15.9637,38.618 c -2.4821,-0.21 -5.1547,-0.827 -6.8462,-1.581 -1.80561,-0.804 -3.6003,-2.288 -4.4675,-3.691 -0.8457,-1.369 -1.1934,-2.511 -1.2503,-4.107 -0.063,-1.772 0.2041,-3.103 0.9339,-4.654 0.5405,-1.148 1.0928,-1.964 1.9294,-2.852 1.5382,-1.631 4.53,-3.378 7.4351,-4.344 4.62619,-1.536 9.754,-1.66 14.54109,-0.35 3.0494,0.834 5.82171,2.29 8.1147,4.263 0.8475,0.729 2.3883,2.481 3.0218,3.435 0.2982,0.45 0.75,1.216 1.0041,1.704 0.4762,0.914 1.1481,2.561 1.0887,2.668 -0.071,0.129 -1.7783,1.549 -2.7097,2.256 -5.0381,3.823 -11.1076,6.374 -16.8699,7.093 -2.2981,0.287 -3.9054,0.33 -5.9252,0.16 z"
       id="path30346"
       inkscape:connector-curvature="0" />
    <path
       style="fill:#ffffff"
       d="m 498.39728,337.82489 c -1.4427,-0.369 -2.4444,-1.607 -2.9266,-3.622 -0.1723,-0.718 -0.3025,-2.011 -0.304,-3.014 l 0,-0.954 -1.0637,0 c -0.5851,0 -1.6595,-0.06 -2.3876,-0.117 -4.8321,-0.43 -8.6642,-1.518 -12.202,-3.463 -3.2494,-1.785 -5.8487,-4.127 -7.8223,-7.045 -4.227,-6.251 -5.1183,-14.652 -2.2723,-21.418 0.5287,-1.258 0.907,-1.911 1.9959,-3.452 2.224,-3.148 3.8285,-5.197 5.7165,-7.304 0.6946,-0.775 1.2002,-1.397 1.1502,-1.414 -0.049,-0.02 -0.2459,-0.06 -0.4376,-0.08 -0.6075,-0.09 -1.7147,-0.408 -2.5707,-0.738 -3.5956,-1.384 -6.5847,-4.279 -8.199,-7.939 -1.4604,-3.311 -1.7123,-7.176 -0.6944,-10.65 0.4296,-1.468 1.3753,-3.412 2.2504,-4.629 0.4253,-0.591 1.4829,-1.78 2.0683,-2.327 1.1716,-1.093 3.0472,-2.279 4.4882,-2.841 1.7576,-0.682 3.3167,-0.97 5.2713,-0.97 1.9923,0 3.4499,0.272 5.2282,0.976 7.2091,2.852 11.0531,10.979 8.8129,18.632 -0.2936,1.004 -0.9836,2.563 -1.5504,3.506 -0.2251,0.375 -0.6236,1.119 -0.8856,1.653 -1.0492,2.14 -2.7952,5.146 -5.2792,9.087 -1.3275,2.107 -1.4169,2.273 -2.0187,3.734 -1.569,3.811 -2.4086,6.49 -2.7489,8.772 -0.1744,1.17 -0.1723,3.31 0,4.231 0.6035,3.146 2.3457,5.448 5.463,7.221 5.7265,3.256 14.7509,4.197 22.1134,2.306 4.2144,-1.082 8.1323,-3.031 12.1644,-6.053 2.6846,-2.012 4.94,-4.082 9.9692,-9.153 0.9972,-1.005 2.1562,-2.161 2.5755,-2.567 0.8167,-0.791 2.7052,-2.495 2.7323,-2.463 0.01,0 -0.051,2.071 -0.1333,4.582 -0.082,2.51 -0.1319,4.584 -0.1101,4.608 0.021,0.03 2.2633,-0.881 4.9811,-2.011 2.7179,-1.13 4.952,-2.045 4.965,-2.031 0.027,0.03 -1.3362,2.06 -2.5596,3.81 -7.3096,10.458 -13.9105,16.697 -21.6183,20.432 -4.1935,2.033 -9.1706,3.291 -13.6493,3.451 -0.6404,0.02 -1.3228,0.06 -1.5167,0.08 l -0.3525,0.04 -0.087,0.676 c -0.1682,1.309 -0.7405,2.892 -1.514,4.189 -0.5254,0.881 -1.6781,2.209 -2.4514,2.823 -0.7317,0.581 -1.6736,1.104 -2.3879,1.324 -0.6859,0.212 -1.6501,0.267 -2.2056,0.125 z m -16.7208,-62.194 c 3.0702,-1.075 4.4658,-4.648 3.0159,-7.721 -0.3463,-0.734 -1.1225,-1.652 -1.7462,-2.066 -2.873,-1.901 -6.5854,-0.489 -7.6287,2.9 -0.1762,0.571 -0.1937,0.728 -0.1925,1.718 0,0.982 0.02,1.145 0.1868,1.659 0.2714,0.835 0.5828,1.375 1.1731,2.033 0.74,0.825 1.5761,1.341 2.603,1.602 0.6272,0.161 1.958,0.1 2.5886,-0.125 z m 15.9637,38.618 c -2.4821,-0.21 -5.1547,-0.827 -6.8462,-1.581 -1.8056,-0.804 -3.6003,-2.288 -4.4675,-3.691 -0.8457,-1.369 -1.1934,-2.511 -1.2503,-4.107 -0.063,-1.772 0.2041,-3.103 0.9339,-4.654 0.5405,-1.148 1.0928,-1.964 1.9294,-2.852 1.5382,-1.631 4.53,-3.378 7.4351,-4.344 4.6262,-1.536 9.754,-1.66 14.5411,-0.35 3.0494,0.834 5.8217,2.29 8.1147,4.263 0.8475,0.729 2.3883,2.481 3.0218,3.435 0.29819,0.45 0.75,1.216 1.0041,1.704 0.47619,0.914 1.1481,2.561 1.0887,2.668 -0.071,0.129 -1.77831,1.549 -2.7097,2.256 -5.0381,3.823 -11.1076,6.374 -16.8699,7.093 -2.2981,0.287 -3.9054,0.33 -5.92521,0.16 z"
       id="path30346-3"
       inkscape:connector-curvature="0" />
    <path
       style="fill:#ffffff"
       d="m 496.83478,460.48189 c -1.4427,-0.369 -2.4444,-1.607 -2.9266,-3.622 -0.1723,-0.718 -0.3025,-2.011 -0.304,-3.014 l 0,-0.954 -1.0637,0 c -0.5851,0 -1.6595,-0.06 -2.3876,-0.117 -4.8321,-0.43 -8.6642,-1.518 -12.202,-3.463 -3.2494,-1.785 -5.8487,-4.127 -7.8223,-7.045 -4.227,-6.251 -5.1183,-14.652 -2.2723,-21.418 0.5287,-1.258 0.907,-1.911 1.9959,-3.452 2.224,-3.148 3.8285,-5.197 5.7165,-7.304 0.6946,-0.775 1.2002,-1.397 1.1502,-1.414 -0.049,-0.02 -0.2459,-0.06 -0.4376,-0.08 -0.6075,-0.09 -1.7147,-0.408 -2.5707,-0.738 -3.5956,-1.384 -6.5847,-4.279 -8.199,-7.939 -1.4604,-3.311 -1.7123,-7.176 -0.6944,-10.65 0.4296,-1.468 1.3753,-3.412 2.2504,-4.629 0.4253,-0.591 1.4829,-1.78 2.0683,-2.327 1.1716,-1.093 3.0472,-2.279 4.4882,-2.841 1.7576,-0.682 3.3167,-0.97 5.2713,-0.97 1.9923,0 3.4499,0.272 5.2282,0.976 7.2091,2.852 11.0531,10.979 8.8129,18.632 -0.2936,1.004 -0.9836,2.563 -1.5504,3.506 -0.2251,0.375 -0.6236,1.119 -0.8856,1.653 -1.0492,2.14 -2.7952,5.146 -5.2792,9.087 -1.3275,2.107 -1.4169,2.273 -2.0187,3.734 -1.569,3.811 -2.4086,6.49 -2.7489,8.772 -0.1744,1.17 -0.1723,3.31 0,4.231 0.6035,3.146 2.3457,5.448 5.463,7.221 5.7265,3.256 14.7509,4.197 22.1134,2.306 4.2144,-1.082 8.1323,-3.031 12.1644,-6.053 2.6846,-2.012 4.94,-4.082 9.9692,-9.153 0.9972,-1.005 2.1562,-2.161 2.5755,-2.567 0.8167,-0.791 2.7052,-2.495 2.7323,-2.463 0.01,0 -0.051,2.071 -0.1333,4.582 -0.082,2.51 -0.1319,4.584 -0.1101,4.608 0.021,0.03 2.2633,-0.881 4.9811,-2.011 2.7179,-1.13 4.952,-2.045 4.965,-2.031 0.027,0.03 -1.3362,2.06 -2.5596,3.81 -7.3096,10.458 -13.9105,16.697 -21.6183,20.432 -4.1935,2.033 -9.1706,3.291 -13.6493,3.451 -0.6404,0.02 -1.3228,0.06 -1.5167,0.08 l -0.3525,0.04 -0.087,0.676 c -0.1682,1.309 -0.7405,2.892 -1.514,4.189 -0.5254,0.881 -1.6781,2.209 -2.4514,2.823 -0.7317,0.581 -1.6736,1.104 -2.3879,1.324 -0.6859,0.212 -1.6501,0.267 -2.2056,0.125 z m -16.7208,-62.194 c 3.0702,-1.075 4.4658,-4.648 3.0159,-7.721 -0.3463,-0.734 -1.1225,-1.652 -1.7462,-2.066 -2.873,-1.901 -6.5854,-0.489 -7.6287,2.9 -0.1762,0.571 -0.1937,0.728 -0.1925,1.718 0,0.982 0.02,1.145 0.1868,1.659 0.2714,0.835 0.5828,1.375 1.1731,2.033 0.74,0.825 1.5761,1.341 2.603,1.602 0.6272,0.161 1.958,0.1 2.5886,-0.125 z m 15.9637,38.618 c -2.4821,-0.21 -5.1547,-0.827 -6.8462,-1.581 -1.8056,-0.804 -3.6003,-2.288 -4.4675,-3.691 -0.8457,-1.369 -1.1934,-2.511 -1.2503,-4.107 -0.063,-1.772 0.2041,-3.103 0.9339,-4.654 0.5405,-1.148 1.0928,-1.964 1.9294,-2.852 1.5382,-1.631 4.53,-3.378 7.4351,-4.344 4.6262,-1.536 9.754,-1.66 14.5411,-0.35 3.0494,0.834 5.8217,2.29 8.1147,4.263 0.8475,0.729 2.3883,2.481 3.0218,3.435 0.29819,0.45 0.75,1.216 1.0041,1.704 0.47619,0.914 1.1481,2.561 1.0887,2.668 -0.071,0.129 -1.77831,1.549 -2.7097,2.256 -5.0381,3.823 -11.1076,6.374 -16.8699,7.093 -2.2981,0.287 -3.9054,0.33 -5.92521,0.16 z"
       id="path30346-7"
       inkscape:connector-curvature="0" />
    <path
       style="fill:#ffffff"
       d="m 291.36598,562.43389 c -1.44271,-0.369 -2.4444,-1.607 -2.9266,-3.622 -0.17231,-0.718 -0.3025,-2.011 -0.30401,-3.014 l 0,-0.954 -1.06369,0 c -0.5851,0 -1.65951,-0.06 -2.38761,-0.117 -4.83209,-0.43 -8.66419,-1.518 -12.202,-3.463 -3.2494,-1.785 -5.8487,-4.127 -7.8223,-7.045 -4.227,-6.251 -5.1183,-14.652 -2.2723,-21.418 0.5287,-1.258 0.90701,-1.911 1.9959,-3.452 2.224,-3.148 3.8285,-5.197 5.7165,-7.304 0.69461,-0.775 1.2002,-1.397 1.15021,-1.414 -0.049,-0.02 -0.2459,-0.06 -0.43761,-0.08 -0.6075,-0.09 -1.71469,-0.408 -2.57069,-0.738 -3.5956,-1.384 -6.5847,-4.279 -8.19901,-7.939 -1.46039,-3.311 -1.7123,-7.176 -0.69439,-10.65 0.42959,-1.468 1.3753,-3.412 2.2504,-4.629 0.4253,-0.591 1.4829,-1.78 2.06829,-2.327 1.17161,-1.093 3.04721,-2.279 4.48821,-2.841 1.75759,-0.682 3.3167,-0.97 5.2713,-0.97 1.9923,0 3.4499,0.272 5.22819,0.976 7.2091,2.852 11.0531,10.979 8.8129,18.632 -0.29359,1.004 -0.98359,2.563 -1.55039,3.506 -0.2251,0.375 -0.62361,1.119 -0.88561,1.653 -1.04919,2.14 -2.79519,5.146 -5.2792,9.087 -1.32749,2.107 -1.4169,2.273 -2.01869,3.734 -1.569,3.811 -2.40861,6.49 -2.74891,8.772 -0.1744,1.17 -0.17229,3.31 0,4.231 0.60351,3.146 2.3457,5.448 5.463,7.221 5.7265,3.256 14.7509,4.197 22.11341,2.306 4.2144,-1.082 8.13229,-3.031 12.1644,-6.053 2.6846,-2.012 4.94,-4.082 9.9692,-9.153 0.9972,-1.005 2.1562,-2.161 2.57549,-2.567 0.81671,-0.791 2.7052,-2.495 2.7323,-2.463 0.01,0 -0.051,2.071 -0.1333,4.582 -0.082,2.51 -0.13189,4.584 -0.1101,4.608 0.021,0.03 2.26331,-0.881 4.98111,-2.011 2.7179,-1.13 4.952,-2.045 4.96499,-2.031 0.027,0.03 -1.3362,2.06 -2.55959,3.81 -7.3096,10.458 -13.91051,16.697 -21.6183,20.432 -4.19351,2.033 -9.1706,3.291 -13.6493,3.451 -0.6404,0.02 -1.3228,0.06 -1.5167,0.08 l -0.3525,0.04 -0.087,0.676 c -0.1682,1.309 -0.7405,2.892 -1.514,4.189 -0.5254,0.881 -1.6781,2.209 -2.4514,2.823 -0.7317,0.581 -1.6736,1.104 -2.3879,1.324 -0.6859,0.212 -1.6501,0.267 -2.2056,0.125 z m -16.72081,-62.194 c 3.0702,-1.075 4.46581,-4.648 3.0159,-7.721 -0.3463,-0.734 -1.12249,-1.652 -1.74619,-2.066 -2.87301,-1.901 -6.58541,-0.489 -7.6287,2.9 -0.1762,0.571 -0.1937,0.728 -0.1925,1.718 0,0.982 0.02,1.145 0.1868,1.659 0.27139,0.835 0.5828,1.375 1.17309,2.033 0.74,0.825 1.5761,1.341 2.60301,1.602 0.6272,0.161 1.958,0.1 2.5886,-0.125 z m 15.9637,38.618 c -2.4821,-0.21 -5.15469,-0.827 -6.8462,-1.581 -1.80559,-0.804 -3.6003,-2.288 -4.4675,-3.691 -0.8457,-1.369 -1.1934,-2.511 -1.2503,-4.107 -0.063,-1.772 0.2041,-3.103 0.9339,-4.654 0.5405,-1.148 1.0928,-1.964 1.9294,-2.852 1.5382,-1.631 4.53,-3.378 7.4351,-4.344 4.6262,-1.536 9.754,-1.66 14.5411,-0.35 3.0494,0.834 5.8217,2.29 8.1147,4.263 0.8475,0.729 2.3883,2.481 3.0218,3.435 0.2982,0.45 0.75,1.216 1.0041,1.704 0.4762,0.914 1.1481,2.561 1.0887,2.668 -0.071,0.129 -1.7783,1.549 -2.7097,2.256 -5.0381,3.823 -11.1076,6.374 -16.8699,7.093 -2.2981,0.287 -3.9054,0.33 -5.9252,0.16 z"
       id="path30346-0"
       inkscape:connector-curvature="0" />
    <path
       style="fill:#ffffff"
       d="m 96.469475,562.83589 c -1.4427,-0.369 -2.4444,-1.607 -2.9266,-3.622 -0.1723,-0.718 -0.3025,-2.011 -0.304,-3.014 l 0,-0.954 -1.0637,0 c -0.5851,0 -1.6595,-0.06 -2.3876,-0.117 -4.8321,-0.43 -8.6642,-1.518 -12.202,-3.463 -3.2494,-1.785 -5.8487,-4.127 -7.8223,-7.045 -4.227,-6.251 -5.1183,-14.652 -2.2723,-21.418 0.5287,-1.258 0.907,-1.911 1.9959,-3.452 2.224,-3.148 3.8285,-5.197 5.7165,-7.304 0.6946,-0.775 1.2002,-1.397 1.1502,-1.414 -0.049,-0.02 -0.2459,-0.06 -0.4376,-0.08 -0.6075,-0.09 -1.7147,-0.408 -2.5707,-0.738 -3.5956,-1.384 -6.5847,-4.279 -8.199,-7.939 -1.4604,-3.311 -1.7123,-7.176 -0.6944,-10.65 0.4296,-1.468 1.3753,-3.412 2.2504,-4.629 0.4253,-0.591 1.4829,-1.78 2.0683,-2.327 1.1716,-1.093 3.0472,-2.279 4.4882,-2.841 1.7576,-0.682 3.3167,-0.97 5.2713,-0.97 1.9923,0 3.4499,0.272 5.2282,0.976 7.2091,2.852 11.0531,10.979 8.8129,18.632 -0.2936,1.004 -0.9836,2.563 -1.5504,3.506 -0.2251,0.375 -0.6236,1.119 -0.8856,1.653 -1.0492,2.14 -2.7952,5.146 -5.2792,9.087 -1.3275,2.107 -1.4169,2.273 -2.0187,3.734 -1.569,3.811 -2.4086,6.49 -2.7489,8.772 -0.1744,1.17 -0.1723,3.31 0,4.231 0.6035,3.146 2.3457,5.448 5.463,7.221 5.7265,3.256 14.750905,4.197 22.113405,2.306 4.2144,-1.082 8.1323,-3.031 12.1644,-6.053 2.6846,-2.012 4.94,-4.082 9.9692,-9.153 0.9972,-1.005 2.15619,-2.161 2.57549,-2.567 0.81671,-0.791 2.70521,-2.495 2.7323,-2.463 0.01,0 -0.051,2.071 -0.1333,4.582 -0.082,2.51 -0.13189,4.584 -0.1101,4.608 0.021,0.03 2.26331,-0.881 4.9811,-2.011 2.7179,-1.13 4.952,-2.045 4.965,-2.031 0.027,0.03 -1.3362,2.06 -2.5596,3.81 -7.3096,10.458 -13.9105,16.697 -21.6183,20.432 -4.1935,2.033 -9.17059,3.291 -13.6493,3.451 -0.6404,0.02 -1.3228,0.06 -1.5167,0.08 l -0.3525,0.04 -0.087,0.676 c -0.1682,1.309 -0.7405,2.892 -1.514,4.189 -0.5254,0.881 -1.6781,2.209 -2.4514,2.823 -0.7317,0.581 -1.673595,1.104 -2.387895,1.324 -0.6859,0.212 -1.6501,0.267 -2.2056,0.125 z m -16.7208,-62.194 c 3.0702,-1.075 4.4658,-4.648 3.0159,-7.721 -0.3463,-0.734 -1.1225,-1.652 -1.7462,-2.066 -2.873,-1.901 -6.5854,-0.489 -7.6287,2.9 -0.1762,0.571 -0.1937,0.728 -0.1925,1.718 0,0.982 0.02,1.145 0.1868,1.659 0.2714,0.835 0.5828,1.375 1.1731,2.033 0.74,0.825 1.5761,1.341 2.603,1.602 0.6272,0.161 1.958,0.1 2.5886,-0.125 z m 15.9637,38.618 c -2.4821,-0.21 -5.1547,-0.827 -6.8462,-1.581 -1.8056,-0.804 -3.6003,-2.288 -4.4675,-3.691 -0.8457,-1.369 -1.1934,-2.511 -1.2503,-4.107 -0.063,-1.772 0.2041,-3.103 0.9339,-4.654 0.5405,-1.148 1.0928,-1.964 1.9294,-2.852 1.5382,-1.631 4.53,-3.378 7.4351,-4.344 4.6262,-1.536 9.754005,-1.66 14.541105,-0.35 3.0494,0.834 5.8217,2.29 8.1147,4.263 0.8475,0.729 2.3883,2.481 3.0218,3.435 0.2982,0.45 0.75,1.216 1.0041,1.704 0.4762,0.914 1.1481,2.561 1.0887,2.668 -0.071,0.129 -1.7783,1.549 -2.7097,2.256 -5.0381,3.823 -11.1076,6.374 -16.8699,7.093 -2.298105,0.287 -3.905405,0.33 -5.925205,0.16 z"
       id="path30346-5"
       inkscape:connector-curvature="0" />
    <path
       style="fill:#ffffff"
       d="m 95.364675,434.12089 c -1.4427,-0.369 -2.4444,-1.607 -2.9266,-3.622 -0.1723,-0.718 -0.3025,-2.011 -0.304,-3.014 l 0,-0.954 -1.0637,0 c -0.5851,0 -1.6595,-0.06 -2.3876,-0.117 -4.8321,-0.43 -8.6642,-1.518 -12.202,-3.463 -3.2494,-1.785 -5.8487,-4.127 -7.8223,-7.045 -4.227,-6.251 -5.1183,-14.652 -2.2723,-21.418 0.5287,-1.258 0.907,-1.911 1.9959,-3.452 2.224,-3.148 3.8285,-5.197 5.7165,-7.304 0.6946,-0.775 1.2002,-1.397 1.1502,-1.414 -0.049,-0.02 -0.2459,-0.06 -0.4376,-0.08 -0.6075,-0.09 -1.7147,-0.408 -2.5707,-0.738 -3.5956,-1.384 -6.5847,-4.279 -8.199,-7.939 -1.4604,-3.311 -1.7123,-7.176 -0.6944,-10.65 0.4296,-1.468 1.3753,-3.412 2.2504,-4.629 0.4253,-0.591 1.4829,-1.78 2.0683,-2.327 1.1716,-1.093 3.0472,-2.279 4.4882,-2.841 1.7576,-0.682 3.3167,-0.97 5.2713,-0.97 1.9923,0 3.4499,0.272 5.2282,0.976 7.2091,2.852 11.0531,10.979 8.8129,18.632 -0.2936,1.004 -0.9836,2.563 -1.5504,3.506 -0.2251,0.375 -0.6236,1.119 -0.8856,1.653 -1.0492,2.14 -2.7952,5.146 -5.2792,9.087 -1.3275,2.107 -1.4169,2.273 -2.0187,3.734 -1.569,3.811 -2.4086,6.49 -2.7489,8.772 -0.1744,1.17 -0.1723,3.31 0,4.231 0.6035,3.146 2.3457,5.448 5.463,7.221 5.7265,3.256 14.7509,4.197 22.113405,2.306 4.2144,-1.082 8.1323,-3.031 12.1644,-6.053 2.6846,-2.012 4.94,-4.082 9.96919,-9.153 0.99721,-1.005 2.15621,-2.161 2.57551,-2.567 0.81669,-0.791 2.7052,-2.495 2.73229,-2.463 0.01,0 -0.051,2.071 -0.1333,4.582 -0.082,2.51 -0.1319,4.584 -0.1101,4.608 0.021,0.03 2.2633,-0.881 4.98111,-2.011 2.71789,-1.13 4.95199,-2.045 4.96499,-2.031 0.027,0.03 -1.3362,2.06 -2.5596,3.81 -7.3096,10.458 -13.91049,16.697 -21.6183,20.432 -4.1935,2.033 -9.1706,3.291 -13.6493,3.451 -0.64039,0.02 -1.3228,0.06 -1.5167,0.08 l -0.3525,0.04 -0.087,0.676 c -0.1682,1.309 -0.7405,2.892 -1.514,4.189 -0.5254,0.881 -1.6781,2.209 -2.451395,2.823 -0.7317,0.581 -1.6736,1.104 -2.3879,1.324 -0.6859,0.212 -1.6501,0.267 -2.2056,0.125 z m -16.7208,-62.194 c 3.0702,-1.075 4.4658,-4.648 3.0159,-7.721 -0.3463,-0.734 -1.1225,-1.652 -1.7462,-2.066 -2.873,-1.901 -6.5854,-0.489 -7.6287,2.9 -0.1762,0.571 -0.1937,0.728 -0.1925,1.718 0,0.982 0.02,1.145 0.1868,1.659 0.2714,0.835 0.5828,1.375 1.1731,2.033 0.74,0.825 1.5761,1.341 2.603,1.602 0.6272,0.161 1.958,0.1 2.5886,-0.125 z m 15.9637,38.618 c -2.4821,-0.21 -5.1547,-0.827 -6.8462,-1.581 -1.8056,-0.804 -3.6003,-2.288 -4.4675,-3.691 -0.8457,-1.369 -1.1934,-2.511 -1.2503,-4.107 -0.063,-1.772 0.2041,-3.103 0.9339,-4.654 0.5405,-1.148 1.0928,-1.964 1.9294,-2.852 1.5382,-1.631 4.53,-3.378 7.4351,-4.344 4.6262,-1.536 9.754005,-1.66 14.541105,-0.35 3.0494,0.834 5.8217,2.29 8.1147,4.263 0.8475,0.729 2.3883,2.481 3.0218,3.435 0.2982,0.45 0.75,1.216 1.0041,1.704 0.4762,0.914 1.1481,2.561 1.0887,2.668 -0.071,0.129 -1.7783,1.549 -2.7097,2.256 -5.0381,3.823 -11.1076,6.374 -16.8699,7.093 -2.298105,0.287 -3.905405,0.33 -5.925205,0.16 z"
       id="path30346-2"
       inkscape:connector-curvature="0" />
  </g>
</svg>
