<?xml version="1.0" encoding="UTF-8" standalone="no"?>
<!-- Created with Inkscape (http://www.inkscape.org/) -->

<svg
   xmlns:dc="http://purl.org/dc/elements/1.1/"
   xmlns:cc="http://creativecommons.org/ns#"
   xmlns:rdf="http://www.w3.org/1999/02/22-rdf-syntax-ns#"
   xmlns:svg="http://www.w3.org/2000/svg"
   xmlns="http://www.w3.org/2000/svg"
   xmlns:sodipodi="http://sodipodi.sourceforge.net/DTD/sodipodi-0.dtd"
   xmlns:inkscape="http://www.inkscape.org/namespaces/inkscape"
   width="834.38593"
   height="554.3717"
   id="svg7224"
   version="1.1"
   inkscape:version="0.48.4 r9939"
   sodipodi:docname="Nieuw document 60">
  <defs
     id="defs7226" />
  <sodipodi:namedview
     id="base"
     pagecolor="#ffffff"
     bordercolor="#666666"
     borderopacity="1.0"
     inkscape:pageopacity="0.0"
     inkscape:pageshadow="2"
     inkscape:zoom="0.35"
     inkscape:cx="515.05011"
     inkscape:cy="185.75728"
     inkscape:document-units="px"
     inkscape:current-layer="layer1"
     showgrid="false"
     fit-margin-top="0"
     fit-margin-left="0"
     fit-margin-right="0"
     fit-margin-bottom="0"
     inkscape:window-width="1600"
     inkscape:window-height="837"
     inkscape:window-x="-8"
     inkscape:window-y="-8"
     inkscape:window-maximized="1" />
  <metadata
     id="metadata7229">
    <rdf:RDF>
      <cc:Work
         rdf:about="">
        <dc:format>image/svg+xml</dc:format>
        <dc:type
           rdf:resource="http://purl.org/dc/dcmitype/StillImage" />
        <dc:title></dc:title>
      </cc:Work>
    </rdf:RDF>
  </metadata>
  <g
     inkscape:label="Laag 1"
     inkscape:groupmode="layer"
     id="layer1"
     transform="translate(140.05011,-163.74776)">
    <rect
       style="fill:#000000;fill-opacity:1;fill-rule:evenodd;stroke:none"
       id="rect4346"
       width="834.38593"
       height="554.3717"
       x="-140.05011"
       y="163.74776" />
    <rect
       style="fill:#ffffff;fill-opacity:1;fill-rule:evenodd;stroke:none"
       id="rect4348"
       width="370.52396"
       height="554.3717"
       x="89.052437"
       y="163.74776" />
    <path
       sodipodi:nodetypes="cccscccc"
       inkscape:connector-curvature="0"
       id="path3791"
       d="m 273.82132,317.90351 -113.67801,0 0,199.2618 c 0.0428,2.86341 -0.0379,6.14559 1.41226,9.04352 5.45906,10.90808 14.48162,22.31473 34.85059,24.76334 l 56.22787,0 c 9.61634,-0.27888 18.72506,7.28111 21.18729,15.90913 z"
       style="fill:#000000;fill-opacity:1;stroke:none" />
    <path
       sodipodi:nodetypes="cccscccc"
       inkscape:connector-curvature="0"
       id="path3791-1"
       d="m 273.82132,317.90662 113.67805,0 0,199.2618 c -0.0475,3.18024 -0.45043,6.68 -1.73535,10.07199 -4.17337,11.01706 -14.7603,22.14282 -34.52755,23.73487 l -56.22786,0 c -9.6163,-0.27888 -18.72502,7.28107 -21.18729,15.90909 -9.24167,-83.99494 -10.30386,-167.10271 0,-248.97775 z"
       style="fill:#000000;fill-opacity:1;stroke:none" />
    <path
       sodipodi:nodetypes="cccccccssccccccccscccccc"
       inkscape:connector-curvature="0"
       id="path3817"
       d="m 160.14331,402.81846 227.34331,0 0,63.6365 -113.6653,0 0,6.96025 c 4.74762,0.60075 9.63267,4.01857 14.57149,8.53888 9.2605,8.54317 21.31721,15.52661 35.95558,21.07003 12.83937,-9.48478 19.1003,-15.06477 26.1464,-15.23482 3.76255,-0.0908 7.74264,0.40503 10.49992,3.05771 6.95748,6.69358 12.96579,21.50175 24.766,36.39859 -4.44684,14.15915 -18.45328,23.88918 -34.65416,23.72657 l -57.524,0 c -9.12284,0.98319 -16.40856,6.52286 -19.76123,15.90913 -3.57859,-9.84355 -11.52299,-15.60438 -21.18729,-15.90913 l -56.22787,0 c -17.25613,0.31156 -31.89498,-11.68797 -34.86225,-24.83315 6.6404,-9.12274 14.13462,-18.55798 25.08352,-29.25785 2.93847,-3.04027 5.70725,-6.88852 8.53882,-10.02175 3.62905,-4.01566 10.04188,-1.87904 17.43599,8.13255 6.06825,7.10117 11.43978,11.07305 19.15008,16.5057 15.68628,-12.54067 36.60695,-40.39145 42.069,-38.06486 l 0,-6.97785 -113.67801,0 z"
       style="fill:#f9f9f9;stroke:none" />
    <path
       sodipodi:nodetypes="cccccc"
       inkscape:connector-curvature="0"
       id="path3819"
       d="m 231.75728,511.46121 c 11.80965,6.12799 25.10401,12.01442 31.47037,19.02799 21.71798,-4.85927 42.11373,-13.95945 61.14272,-27.44327 -9.37388,-4.1539 -17.44441,-6.61255 -29.26508,-15.4898 -12.9079,35.34391 -50.17127,18.99353 -42.47126,3.51546 -6.8447,7.1311 -13.6602,14.34755 -20.87675,20.38962 z"
       style="fill:#000000;fill-opacity:0.02000002;stroke:none" />
    <path
       sodipodi:nodetypes="ccscsc"
       inkscape:connector-curvature="0"
       id="path3875"
       d="m 171.62149,513.05854 c 5.07131,-5.73929 9.91982,-11.44756 16.27816,-17.36632 2.95819,-3.6 5.24593,-6.86718 7.49099,-9.00836 3.80172,-3.62587 9.22682,-1.64639 14.76547,5.56322 -6.52638,-6.75631 -14.57448,-3.5676 -20.90386,3.93006 -6.7677,8.01687 -11.94982,12.81684 -17.63076,16.8814 z"
       style="fill:#ffffff;fill-opacity:0.22641512;stroke:none" />
    <path
       style="fill:none;stroke:#000000;stroke-width:1.10000002;stroke-miterlimit:4;stroke-opacity:1;stroke-dasharray:none"
       d="m 272.26893,562.94391 c -1.45788,-3.5196 -7.82932,-9.63467 -11.85124,-11.37429 -1.80153,-0.77927 -14.49054,-1.34577 -38.19769,-1.70541 l -35.5,-0.53846 c -2.5639,-0.4148 -4.28428,-0.98909 -6.11463,-1.68387 -7.95561,-3.01991 -15.10413,-11.20739 -17.32208,-15.81022 -1.02684,-2.13095 -2.4552,-5.52865 -2.56331,-7.50592 l -0.26819,-103.24998 -0.26823,-103.25003 113.5182,0 113.5182,0 -0.0109,101.24999 c -0.0117,108.35084 -0.0627,104.88467 -3.87461,113.55396 -2.79001,6.3452 -8.02812,11.7503 -14.88826,14.9296 -2.54879,1.18123 -5.45012,1.57634 -7.72633,1.76647 l -35.49999,0.5 c -33.96298,0.47834 -35.6732,0.59343 -39.50001,2.65843 -4.5232,2.44073 -8.57137,6.48266 -10.7154,10.69892 l -1.45304,2.85738 -1.28262,-3.09657 z"
       id="path7206"
       inkscape:connector-curvature="0"
       sodipodi:nodetypes="ccscsscccccssscsssccc" />
    <path
       style="fill:none;stroke:#000000;stroke-width:1px;stroke-linecap:butt;stroke-linejoin:miter;stroke-opacity:1"
       d="m 235.53891,549.61981 c 5.9223,-9.1386 16.6431,-16.56345 37.1093,-20.50782 21.0111,-6.21196 39.1663,-14.85369 52.3729,-27.30922"
       id="path7208"
       inkscape:connector-curvature="0"
       sodipodi:nodetypes="ccc" />
    <path
       style="fill:none;stroke:#000000;stroke-width:1px;stroke-linecap:butt;stroke-linejoin:miter;stroke-opacity:1"
       d="m 231.99591,511.06227 c 10.5167,6.72392 25.1847,12.18173 30.3008,20.7841 l 0.098,0"
       id="path7210"
       inkscape:connector-curvature="0"
       sodipodi:nodetypes="ccc" />
  </g>
</svg>
