<?xml version="1.0" encoding="UTF-8" standalone="no"?>
<!-- Created with Inkscape (http://www.inkscape.org/) -->

<svg
   xmlns:dc="http://purl.org/dc/elements/1.1/"
   xmlns:cc="http://creativecommons.org/ns#"
   xmlns:rdf="http://www.w3.org/1999/02/22-rdf-syntax-ns#"
   xmlns:svg="http://www.w3.org/2000/svg"
   xmlns="http://www.w3.org/2000/svg"
   xmlns:sodipodi="http://sodipodi.sourceforge.net/DTD/sodipodi-0.dtd"
   xmlns:inkscape="http://www.inkscape.org/namespaces/inkscape"
   width="837.14282"
   height="667.14288"
   id="svg13979"
   version="1.1"
   inkscape:version="0.48.4 r9939"
   sodipodi:docname="Nieuw document 56">
  <defs
     id="defs13981" />
  <sodipodi:namedview
     id="base"
     pagecolor="#ffffff"
     bordercolor="#666666"
     borderopacity="1.0"
     inkscape:pageopacity="0.0"
     inkscape:pageshadow="2"
     inkscape:zoom="0.35"
     inkscape:cx="90.714267"
     inkscape:cy="213.57145"
     inkscape:document-units="px"
     inkscape:current-layer="layer1"
     showgrid="false"
     fit-margin-top="0"
     fit-margin-left="0"
     fit-margin-right="0"
     fit-margin-bottom="0"
     inkscape:window-width="1600"
     inkscape:window-height="837"
     inkscape:window-x="-8"
     inkscape:window-y="-8"
     inkscape:window-maximized="1" />
  <metadata
     id="metadata13984">
    <rdf:RDF>
      <cc:Work
         rdf:about="">
        <dc:format>image/svg+xml</dc:format>
        <dc:type
           rdf:resource="http://purl.org/dc/dcmitype/StillImage" />
        <dc:title></dc:title>
      </cc:Work>
    </rdf:RDF>
  </metadata>
  <g
     inkscape:label="Laag 1"
     inkscape:groupmode="layer"
     id="layer1"
     transform="translate(198.57141,-78.790733)">
    <path
       style="fill:#fbe93a;fill-opacity:1;stroke:none"
       d="m -198.57141,78.790733 0,667.142897 837.14282,0 0,-667.142897 z"
       id="path13412"
       inkscape:connector-curvature="0" />
    <path
       style="fill:#d40000;stroke:none"
       d="m -198.57141,344.50503 348.57139,0 0,-265.714297 132.85714,0 0,265.714297 355.71429,0 0,135.7143 -355.71429,0 0,265.7143 -132.85713,0 0,-265.7143 -348.5714,0 z"
       id="path13414"
       inkscape:connector-curvature="0" />
    <path
       style="fill:#d40000;fill-opacity:1"
       d="m 7.370365,338.9832 c 2.26226,-2.3032 2.90326,-3.2663 3.28327,-4.9332 0.18446,-0.8093 0.17137,-1.111 -0.0912,-2.1007 -0.20114,-0.758 -0.26908,-1.435 -0.19751,-1.9677 l 0.10911,-0.8121 -0.5747,0 c -0.86936,0 -2.46018,-0.4703 -3.63163,-1.0735 -1.78456,-0.9191 -3.41064,-0.6447 -4.39488,0.7414 -0.26663,0.3755 -0.70716,1.3903 -0.97898,2.255 l -0.49419,1.5724 -0.41079,-1.3443 c -1.16747,-3.8208 -0.42296,-6.0008 2.55088,-7.469 0.91327,-0.4509 1.75799,-1.0619 2.60241,-1.8823 l 1.25023,-1.2147 -0.44954,-0.3004 c -0.5996,-0.4008 -1.39911,-1.2924 -1.72753,-1.9266 -0.26582,-0.5133 -0.26951,-0.5142 -1.51055,-0.3895 -2.32486,0.2337 -4.07644,1.2546 -5.165,3.0102 -0.42667,0.6881 -0.6571,0.7922 -1.10879,0.5007 -0.36757,-0.2371 0.0204,-2.4358 0.68702,-3.8938 1.17181,-2.5627 3.15652,-3.8468 6.60453,-4.273 0.82945,-0.1026 0.91079,-0.1594 1.29989,-0.9076 0.52956,-1.0184 1.56364,-1.9708 2.73248,-2.5167 2.74887,-1.2838 6.92813,-0.9209 11.07171,0.9615 2.26295,1.0281 4.17123,1.4793 6.78846,1.6051 2.60982,0.1254 2.35488,0.392 2.51916,-2.6343 0.46205,-8.5112 2.17553,-15.5183 4.71616,-19.2862 l 0.61145,-0.9068 -0.41683,-2.4059 c -0.22926,-1.3233 -0.41884,-2.461 -0.42132,-2.5283 -0.003,-0.067 -0.67747,0.3087 -1.5,0.8356 -4.59613,2.9437 -9.47614,3.643 -15.07206,2.1597 -0.92945,-0.2463 -1.7753,-0.4693 -1.87967,-0.4954 -0.10438,-0.026 -0.54363,1.0247 -0.97604,2.335 -1.87709,5.688 -4.43948,9.3999 -8.18162,11.8521 -0.90075,0.5903 -1.65709,1.0534 -1.68079,1.0293 -0.0237,-0.024 0.58851,-2.4602 1.36046,-5.4133 2.37912,-9.1017 2.79123,-11.3651 2.21545,-12.1684 -0.40687,-0.5676 -0.89917,-0.1696 -2.13796,1.7286 -4.41342,6.7624 -9.04367,11.9473 -13.24498,14.8315 -1.46109,1.0031 -3.95449,2.192 -5.7894,2.7605 l -1.46316,0.4533 0.30442,-0.474 c 0.16742,-0.2606 0.95959,-1.3772 1.76035,-2.4813 4.89246,-6.7454 7.82376,-12.8475 7.82376,-16.287 0,-2.5787 -1.17215,-3.0788 -3.36583,-1.436 -1.60986,1.2056 -3.23477,3.7906 -4.56065,7.2553 -0.32067,0.838 -0.63739,1.5874 -0.70381,1.6654 -0.0664,0.078 -0.47961,-0.8094 -0.91815,-1.9717 -1.69668,-4.4972 -2.15118,-6.5576 -2.12684,-9.6418 0.0317,-4.0235 1.20678,-6.9998 4.17179,-10.5668 1.87554,-2.2562 3.26467,-4.994 3.26467,-6.4341 0,-1.2907 -0.65359,-1.711 -2.01225,-1.2938 -1.61675,0.4964 -3.42832,2.3148 -4.2932,4.3094 -0.31813,0.7337 -0.36372,0.7645 -1.27301,0.86 -0.51871,0.054 -2.72206,0.019 -4.89638,-0.078 -6.77294,-0.3032 -9.48191,0.1451 -11.36504,1.8807 -2.61141,2.4069 -2.6218,8.5962 -0.0252,14.9676 1.76786,4.3378 1.96612,5.1243 1.97291,7.8267 0.005,2.1134 -0.038,2.443 -0.46469,3.5425 -1.63211,4.2054 -6.00796,8.5273 -14.18921,14.0143 -1.49786,1.0046 -2.81754,1.8832 -2.93261,1.9526 -0.28632,0.1726 -0.15127,-0.6615 0.58274,-3.5984 0.32607,-1.3047 0.59255,-2.7566 0.59219,-3.2265 -0.002,-1.8909 -1.31119,-2.8343 -4.66665,-3.3614 -0.65874,-0.1035 -0.73134,-0.073 -0.93776,0.3909 -0.12304,0.2767 -0.97464,1.7365 -1.89247,3.2441 -1.84203,3.0258 -2.9215,5.2296 -3.22592,6.5862 -0.12058,0.5373 -0.15414,1.4412 -0.0847,2.2817 l 0.11495,1.392 -1.15936,-0.8269 c -2.75666,-1.9659 -3.32761,-4.062 -1.86122,-6.8333 l 0.49362,-0.9328 -0.98903,-0.2301 c -0.56007,-0.1303 -2.09403,-0.2302 -3.53671,-0.2303 -2.98659,-1e-4 -4.08089,0.2387 -6.31137,1.3778 -3.20134,1.6349 -5.71178,5.0098 -7.46964,10.0417 l -0.48411,1.3858 -0.62626,-0.7585 c -2.00057,-2.4228 -2.77017,-4.4401 -2.63628,-6.9103 0.0464,-0.8557 0.14667,-1.7058 0.2229,-1.8894 0.1342,-0.3231 -0.0551,-0.3295 -5.99338,-0.2031 -3.37256,0.072 -6.21201,0.1957 -6.30985,0.2754 -0.0979,0.08 -1.67918,0.3543 -3.51405,0.6101 -4.701865,0.6554 -4.212675,0.4564 -4.225655,1.7187 -0.009,0.885 -0.10074,1.2008 -0.52872,1.822 -0.79359,1.1519 -1.9187,1.6622 -3.66795,1.6638 -0.77812,0 -1.62609,-0.059 -1.88436,-0.132 -0.42895,-0.1218 -0.48764,-0.075 -0.67845,0.5388 -0.67582,2.1746 -2.34892,4.1591 -4.28632,5.084 -1.0775,0.5144 -5.547,1.8386 -5.547,1.6435 0,-0.052 0.7054,-0.8477 1.5675,-1.7677 3.2186,-3.4347 4.1537,-5.6404 3.3702,-7.95 -0.2032,-0.599 -0.3695,-1.4818 -0.3695,-1.9616 l 0,-0.8725 -1.3617,-0.084 c -0.9532,-0.059 -1.7042,-0.2324 -2.5037,-0.5795 -0.6282,-0.2728 -1.3453,-0.5348 -1.5936,-0.5824 -0.7799,-0.1493 -1.9527,0.294 -2.6445,0.9998 -0.626,0.6385 -0.8702,1.2515 -1.5079,3.7846 l -0.1579,0.6274 -0.5877,-1.6132 c -1.329,-3.6479 -0.5242,-5.9957 2.6083,-7.6088 0.5757,-0.2965 1.1609,-0.7054 1.3005,-0.9086 0.1395,-0.2033 0.6192,-0.7634 1.0659,-1.2447 l 0.8121,-0.8751 -0.6065,-0.3824 c -0.3336,-0.2104 -0.9507,-0.79 -1.3714,-1.2881 l -0.7648,-0.9056 -1.1794,0.1874 c -2.2408,0.3558 -4.0155,1.555 -4.8753,3.2943 -0.2092,0.4231 -0.3992,0.7917 -0.4222,0.8191 -0.023,0.027 -0.2514,-0.031 -0.5075,-0.1308 -0.4483,-0.1739 -0.4617,-0.2189 -0.3604,-1.2149 0.3819,-3.7578 1.9518,-5.9405 5.0564,-7.0302 0.5082,-0.1783 1.3253,-0.3806 1.8159,-0.4494 0.8365,-0.1174 0.9123,-0.1717 1.2177,-0.873 0.4472,-1.0269 1.7352,-2.3989 2.7394,-2.918 1.8618,-0.9625 4.427,-1.2005 7.4856,-0.6944 0.9002,0.1489 2.08619,0.4629 2.63554,0.6977 3.1029,1.3265 6.60314,1.8014 9.959625,1.3515 1.31673,-0.1765 2.1435,-0.092 13.07372,1.3297 l 11.66812,1.518 1.5974,-1.0873 c 4.00157,-2.7238 8.31954,-6.7363 11.62618,-10.8036 1.52945,-1.8814 4.30568,-5.6522 5.25119,-7.1325 l 0.3196,-0.5004 -0.94743,0.3903 c -3.88719,1.6014 -7.91533,2.3133 -13.08951,2.3133 -2.34726,0 -2.51234,-0.023 -2.61637,-0.3569 -0.15511,-0.4986 -0.0408,-0.6212 0.9162,-0.9836 3.07094,-1.1629 6.98154,-3.1696 9.4391,-4.8436 1.93546,-1.3184 5.19384,-4.0722 5.19384,-4.3896 0,-0.2024 -1.6655,-0.7394 -3.68975,-1.1896 -1.13876,-0.2533 -2.18203,-0.3288 -4.39254,-0.3177 -3.00214,0.015 -3.14703,0.04 -7.37874,1.2642 -0.35032,0.1013 -0.15356,-0.2131 0.97849,-1.5636 1.84501,-2.2011 3.51739,-3.6209 5.25819,-4.4641 1.62769,-0.7884 2.55108,-1.0396 4.41153,-1.2001 1.33901,-0.1154 1.33986,-0.1158 0.92416,-0.4417 -0.85131,-0.6674 -4.49901,-2.8421 -5.6871,-3.3907 -3.17408,-1.4655 -5.47797,-2.0391 -8.17015,-2.034 -3.05773,0.01 -5.38905,0.8154 -7.81874,2.7155 -0.57981,0.4534 -1.16297,0.9092 -1.29591,1.0128 -0.45134,0.3517 -0.16805,-2.1541 0.38048,-3.3657 1.19495,-2.6393 5.05123,-5.0704 9.43699,-5.9493 6.18881,-1.2402 12.06954,0.4807 14.96702,4.3799 l 0.44897,0.6042 0.1262,-1.0523 c 0.56491,-4.7098 2.66038,-9.0121 5.42747,-11.1434 2.60275,-2.0047 5.41981,-2.8866 9.69032,-3.0335 4.83599,-0.1663 7.49404,0.2068 21.96212,3.0828 0.67609,0.1344 1.25168,0.2215 1.27907,0.1935 0.0273,-0.028 -0.52577,-0.5214 -1.22928,-1.0966 -2.87126,-2.3476 -5.14704,-4.4545 -8.49745,-7.8669 -4.6054,-4.6907 -7.96223,-8.8231 -10.66077,-13.124 -0.56708,-0.9038 -1.1644,-1.6961 -1.32739,-1.7606 -0.16301,-0.065 -0.82631,-0.1633 -1.474,-0.2194 -1.99311,-0.1725 -2.51936,0.2597 -3.30634,2.7159 l -0.3985,1.2436 -0.40621,-0.5198 c -0.22344,-0.2858 -0.62581,-0.9261 -0.89417,-1.4228 -0.41788,-0.7735 -0.48835,-1.1091 -0.49087,-2.3371 -0.002,-0.7887 0.0604,-1.6664 0.13794,-1.9504 l 0.14091,-0.5165 -0.58016,0.3736 c -6.25823,4.029 -9.16632,7.841 -9.98783,13.092 l -0.20642,1.3194 -0.774,-1.3194 c -1.1835,-2.0175 -1.56147,-3.4326 -1.54929,-5.8006 0.005,-1.0844 0.11366,-2.4557 0.24016,-3.0472 0.48754,-2.2793 1.94812,-6.1541 4.04511,-10.7315 0.40061,-0.8744 0.69797,-1.6208 0.66084,-1.6587 -0.0372,-0.038 -1.36521,0.5652 -2.95128,1.3403 -5.70756,2.7892 -10.52404,4.4773 -14.17254,4.9674 -0.50734,0.068 -0.92245,0.1436 -0.92245,0.1677 0,0.024 0.16542,0.4252 0.36758,0.8915 0.43431,1.0016 0.36762,1.6054 -0.35755,3.237 -0.26811,0.6032 -0.58861,1.527 -0.71228,2.0528 l -0.22481,0.956 -0.27203,-0.5216 c -0.14961,-0.2869 -0.68641,-1.4364 -1.1929,-2.5545 -0.50649,-1.1181 -1.12819,-2.3525 -1.38157,-2.7431 -0.48064,-0.741 -2.0065,-1.866 -2.21394,-1.6324 -0.0658,0.074 -0.21902,0.4574 -0.34054,0.8517 -0.40923,1.3282 -1.08668,2.4841 -2.0759,3.5422 -0.80823,0.8644 -2.38975,2.1569 -3.29448,2.6924 -0.13342,0.079 -0.18571,-0.8587 -0.1757,-3.1507 0.0141,-3.2316 0.009,-3.2731 -0.4822,-4.2945 -0.6987,-1.4516 -1.77671,-2.2065 -3.07001,-2.1498 -1.49595,0.065 -16.403325,1.2879 -17.078545,1.4005 -1.78126,0.2968 -3.85976,1.8966 -4.67632,3.5993 -0.4118,0.8587 -0.4547,1.1222 -0.3823,2.3525 0.095,1.6159 0.5054,2.5646 2.00307,4.6307 l 0.96129,1.3261 -0.92951,-0.3675 c -1.99325,-0.7881 -4.48795,-2.1518 -5.40995,-2.9574 -1.2696,-1.1093 -2.3579,-2.6089 -2.832,-3.9023 -0.3277,-0.8938 -0.436,-1.0306 -0.752,-0.9504 -0.2031,0.052 -0.6966,0.1469 -1.0967,0.2118 l -0.7274,0.118 0.092,0.6987 c 0.1995,1.5177 -1.0613,3.3212 -2.6243,3.7539 -0.4492,0.1243 -1.4152,0.1749 -2.3769,0.1245 l -1.6201,-0.085 -0.3053,0.8261 c -0.9588,2.5953 -2.71,4.3898 -5.1079,5.2345 -0.9356,0.3295 -4.2605,1.238 -4.5311,1.238 -0.065,0 0.5419,-0.7311 1.3496,-1.6247 2.504,-2.7701 3.3445,-4.1435 3.6847,-6.0206 0.1507,-0.8316 0.1232,-1.1356 -0.185,-2.0439 -0.1991,-0.5869 -0.362,-1.47 -0.362,-1.9626 l 0,-0.8955 -0.9224,0 c -1.0927,0 -2.3953,-0.3327 -3.4192,-0.8668 -1.4462,-0.7543 -3.3225,-0.3057 -4.1671,0.9963 -0.2474,0.3813 -0.6338,1.4564 -0.8587,2.3891 l -0.409,1.6958 -0.3694,-1.0008 c -0.736,-1.9939 -0.9688,-3.0691 -0.8719,-4.0266 0.1783,-1.7629 1.2305,-3.169 3.1473,-4.2059 0.6083,-0.3291 1.2209,-0.7657 1.3613,-0.9703 0.1405,-0.2045 0.6257,-0.7709 1.0782,-1.2585 l 0.8227,-0.8867 -0.7687,-0.4973 c -0.4228,-0.2735 -0.987,-0.8265 -1.2538,-1.2289 l -0.4852,-0.7316 -1.0658,0.089 c -1.7279,0.1446 -3.007,0.7332 -4.1276,1.8993 -0.5371,0.559 -1.0803,1.272 -1.2073,1.5846 -0.2294,0.565 -0.5846,0.7041 -1.0424,0.4082 -0.5402,-0.3492 0.2873,-4.0266 1.2218,-5.4295 0.5423,-0.8142 1.6919,-1.7963 2.6583,-2.271 0.8398,-0.4125 2.6338,-0.9224 3.2456,-0.9224 0.3031,0 0.5074,-0.2175 0.8477,-0.9027 1.2905,-2.598 3.5383,-3.7601 7.2885,-3.7682 1.7269,0 4.2027,0.3472 5.2126,0.7389 2.5822,1.0015 13.1164,1.5815 28.978525,1.5956 l 7.04522,0.01 1.47633,-1.1331 c 3.89247,-2.9875 7.11381,-4.9354 14.4783,-8.7551 3.18898,-1.654 5.71033,-3.0096 5.60298,-3.0125 -0.10736,0 -1.21427,0.1578 -2.45985,0.3569 -1.24554,0.1991 -3.45061,0.4095 -4.90015,0.4677 -2.23672,0.09 -2.88815,0.051 -4.30471,-0.2533 -2.7901,-0.6001 -4.10937,-1.2404 -7.76486,-3.7687 -2.02457,-1.4003 -7.17082,-4.0424 -9.60299,-4.9301 -4.064365,-1.4835 -7.494435,-2.0947 -11.756805,-2.0947 -2.76209,0 -2.81399,-0.01 -2.91469,-0.4002 -0.1399,-0.5455 -0.032,-0.6197 1.4736,-1.0123 2.86342,-0.7468 5.53194,-0.8916 8.78965,-0.477 3.646865,0.4641 7.043275,1.3561 11.580435,3.0412 2.99412,1.112 4.28326,1.3578 7.12086,1.3578 4.22284,0 7.96277,-1.0529 11.54993,-3.2515 1.83381,-1.124 1.87304,-1.1684 1.16192,-1.3133 -0.32363,-0.066 -2.68363,-0.6337 -5.24449,-1.2617 -5.43126,-1.3319 -7.33623,-1.6078 -10.16131,-1.4721 -2.1968,0.1056 -3.36241,0.3652 -5.42758,1.2088 -0.71779,0.2933 -1.33862,0.5332 -1.37964,0.5332 -0.1897,0 -0.0456,-2.5478 0.19811,-3.5025 0.51985,-2.0366 1.70493,-3.5227 3.65463,-4.5828 l 1.07155,-0.5827 -2.19196,-0.6056 c -1.63049,-0.4504 -2.59698,-0.6133 -3.77326,-0.6358 -2.076,-0.04 -2.98356,0.2881 -5.344775,1.9309 -2.81484,1.9584 -4.04704,2.522 -6.48617,2.9667 -1.50348,0.2741 -3.44393,0.034 -5.2121,-0.6448 -1.0373,-0.3983 -4.0308,-2.0332 -3.9215,-2.1418 0.031,-0.031 0.8006,-0.1863 1.7106,-0.346 2.1861,-0.3839 3.59423,-1.087 5.12291,-2.5582 1.1833,-1.1388 2.68753,-3.2056 2.52647,-3.4715 -0.10391,-0.1715 -8.25788,-4.8261 -8.45438,-4.8261 -0.082,0 -0.2477,0.1595 -0.367,0.3543 -0.3753,0.613 -1.5145,1.0797 -2.6357,1.0797 -1.4434,0 -2.6798,-0.7657 -3.6703,-2.2731 -0.4005,-0.6094 -0.7573,-1.1974 -0.793,-1.3066 -0.046,-0.1399 -0.2718,-0.1241 -0.7654,0.054 -2.2627,0.8144 -4.6833,0.7341 -6.6744,-0.2215 -0.9349,-0.4487 -4.9333,-3.2199 -4.7972,-3.3248 0.029,-0.023 1.2376,0.041 2.6851,0.1405 3.0762,0.2122 4.8449,0.022 6.29,-0.675 1.0399,-0.5019 1.3024,-0.737 2.0693,-1.8535 0.2898,-0.4219 0.8297,-0.9865 1.1999,-1.2547 l 0.673,-0.4878 -0.5601,-0.717 c -0.6376,-0.8163 -1.2337,-2.1735 -1.417,-3.2264 -0.1617,-0.9285 -0.8048,-1.7942 -1.6657,-2.2423 -1.1273,-0.5866 -1.8259,-0.483 -4.7085,0.6984 -0.5828,0.2389 -0.885,0.2978 -0.8035,0.1567 1.1835,-2.0501 2.4017,-3.4526 3.5157,-4.0478 1.2278,-0.656 3.1611,-0.5733 4.9311,0.2108 0.7988,0.3539 1.3857,0.4661 2.6908,0.5144 l 1.6692,0.062 0.01,-1.2609 c 0,-0.6936 0.1098,-1.4477 0.2318,-1.6759 0.195,-0.3645 0.1652,-0.4905 -0.245,-1.0392 -1.3016,-1.741 -4.1398,-2.7411 -6.3172,-2.2261 -0.8092,0.1914 -0.7356,0.2224 -0.8816,-0.3712 -0.1016,-0.4131 -0.012,-0.5326 0.7889,-1.0572 3.3621,-2.201 6.6799,-2.0313 9.7514,0.4988 1.0088,0.8309 1.0845,0.8615 1.757,0.7089 1.3067,-0.2964 3.247,-0.072 4.39008,0.5083 2.47823,1.2575 5.19777,4.8857 5.97718,7.9741 0.66196,2.6231 2.485295,5.7721 4.560385,7.8761 l 1.14908,1.1651 18.5805,5.5638 18.58048,5.5638 0.0457,-1.0826 c 0.0251,-0.5955 -0.0144,-1.8417 -0.088,-2.7694 l -0.13352,-1.6867 -8.75693,-2.618 -8.75691,-2.618 -5.58815,-5.9037 c -5.45671,-5.7649 -5.58145,-5.9128 -5.30288,-6.2896 l 0.28527,-0.3858 1.93634,0.9303 c 1.06501,0.5117 4.78275,2.3029 8.26166,3.9805 l 6.32527,3.0502 7.24852,2.2051 7.24855,2.205 5.62162,-1.5819 c 3.0919,-0.87 5.62164,-1.6364 5.62164,-1.703 0,-0.241 -8.65197,-6.2985 -8.78687,-6.152 -0.0761,0.083 -0.63661,1.2595 -1.24541,2.6151 -0.60881,1.3555 -1.15665,2.4646 -1.21741,2.4646 -0.0607,0 -0.7948,-1.4721 -1.63121,-3.2712 l -1.52074,-3.2713 -2.77028,-0.2337 c -1.52365,-0.1285 -2.95856,-0.2739 -3.18868,-0.323 l -0.41842,-0.089 0.12818,-2.9931 c 0.0705,-1.6461 0.15737,-3.0416 0.19308,-3.1009 0.0357,-0.059 1.07382,-0.1651 2.30692,-0.235 1.23307,-0.07 2.27473,-0.1605 2.31479,-0.2014 0.14347,-0.1464 0.91331,-3.8948 0.81954,-3.9905 -0.18194,-0.1856 -3.46374,0.3526 -4.89524,0.8028 -5.32919,1.6761 -10.69416,2.5746 -13.88252,2.325 -3.82903,-0.2998 -5.98976,-1.5308 -7.1094,-4.0504 -0.38306,-0.8621 -0.44402,-1.2598 -0.45474,-2.9672 -0.0149,-2.3853 0.32993,-3.8764 1.76694,-7.6388 1.54436,-4.0434 1.4886,-5.77 -0.23643,-7.319 -1.22161,-1.097 -3.37475,-1.7926 -6.42567,-2.0759 -1.35019,-0.1254 -1.36168,-0.1308 -1.36168,-0.6362 0,-0.5689 -0.0202,-0.5603 3.05083,-1.2865 2.12631,-0.5028 7.07527,-0.5632 8.47703,-0.1035 1.85297,0.6076 2.95268,1.2686 4.10962,2.4698 1.98355,2.0596 2.88089,4.5178 3.17706,8.7032 0.0977,1.3802 0.25685,2.8725 0.35376,3.3161 0.61106,2.7978 4.29851,3.9641 9.9104,3.1346 2.06347,-0.305 6.3999,-0.3434 9.13649,-0.081 4.1512,0.3981 8.37762,1.5506 12.39815,3.3808 1.09403,0.498 2.00875,0.8855 2.0327,0.8611 0.024,-0.024 -0.76309,-1.8928 -1.74898,-4.152 l -1.79253,-4.1076 -1.22273,-0.3148 c -0.67253,-0.1731 -1.24817,-0.2888 -1.27926,-0.2572 -0.0312,0.032 -0.2505,1.1365 -0.4876,2.4549 -0.23711,1.3185 -0.45904,2.5183 -0.49316,2.6662 -0.0341,0.1478 -0.67726,-1.0218 -1.42915,-2.5991 -0.7519,-1.5774 -1.38281,-2.8878 -1.40203,-2.912 -0.0192,-0.024 -0.38864,-0.093 -0.82095,-0.154 l -0.786,-0.1099 -0.58652,2.5591 c -0.46059,2.0096 -0.62836,2.5004 -0.78143,2.2859 -0.10719,-0.1502 -0.78789,-1.3733 -1.51266,-2.718 -0.72478,-1.3448 -1.43637,-2.4813 -1.58134,-2.5258 -0.14494,-0.044 -0.54885,-0.1322 -0.89758,-0.1952 -0.62553,-0.1128 -0.63543,-0.1051 -0.73729,0.573 -0.0568,0.3781 -0.15787,1.4739 -0.22463,2.4351 -0.0668,0.9612 -0.16982,1.7459 -0.22907,1.7437 -0.0592,0 -0.77977,-1.1063 -1.60117,-2.4537 -0.82141,-1.3473 -1.94951,-2.9583 -2.5069,-3.5799 -3.89669,-4.3457 -3.60438,-7.0944 0.87792,-8.2552 1.82405,-0.4724 8.63118,-0.4168 12.55985,0.1026 1.61503,0.2134 3.15682,0.3883 3.42619,0.3884 0.48433,0 0.48911,-0.011 0.42913,-0.994 -0.0755,-1.2368 0.55088,-2.6734 1.48119,-3.397297 1.22267,-0.9514 2.38069,-1.2418 4.90473,-1.23 3.23382,0.015 6.05701,0.7449 10.40915,2.691397 1.65734,0.7412 2.04223,0.8458 3.12674,0.8498 1.05875,0 1.42547,-0.087 2.54768,-0.6316 2.86989,-1.3929 5.80452,-4.452197 9.69284,-10.104697 1.02389,-1.4885 1.58444,-2.151 1.81992,-2.151 0.26158,0 0.47056,0.333 0.90348,1.4394 1.67414,4.2786 1.83104,8.7463 0.49461,14.084897 -0.0996,0.3977 -0.0297,0.5201 0.46822,0.8198 1.59869,0.9623 3.93668,1.3031 6.62927,0.9663 0.9099,-0.1138 3.14351,-0.5967 4.96359,-1.0732 1.8201,-0.4764 3.30926,-0.823 3.30926,-0.77 0,0.2797 -3.73317,5.1112 -4.80884,6.2237 -1.48117,1.5318 -3.52811,2.9419 -4.91804,3.3879 l -0.99697,0.3199 0.51952,0.6037 c 1.5913,1.8489 3.02626,4.6377 3.45604,6.7165 0.45785,2.2146 0.006,4.5511 -1.27486,6.594 -0.56238,0.8969 -0.61679,1.0932 -0.55288,1.9947 0.0905,1.2761 0.65212,2.4532 1.76136,3.6914 1.53359,1.7118 4.97099,3.7918 8.74738,5.293 1.56811,0.6234 1.66917,0.6946 1.66917,1.1766 0,0.4714 -0.0571,0.5167 -0.7028,0.5587 -0.38656,0.025 -1.88881,0.1804 -3.33834,0.3451 -6.13723,0.6971 -9.26432,0.2351 -12.23358,-1.8076 l -0.94407,-0.6495 -0.0516,1.1477 c -0.0288,0.6434 0.0963,1.8861 0.28496,2.828 1.03364,5.1619 4.1732,9.6445 10.22478,14.5987 l 2.16821,1.775 -2.27206,0.056 c -2.58213,0.064 -5.57302,-0.1998 -6.92829,-0.6104 -1.57244,-0.4764 -3.37864,-1.4628 -4.55648,-2.4883 -0.62173,-0.5414 -1.15981,-0.9543 -1.19576,-0.9176 -0.18465,0.1883 -0.0273,2.9394 0.22851,3.9987 0.41195,1.7051 1.61546,3.9971 3.03863,5.7871 0.66628,0.838 2.40424,2.7194 3.86211,4.181 2.37892,2.3849 2.62904,2.6927 2.43948,3.0023 -0.11616,0.1898 -0.31385,0.345 -0.43936,0.345 -0.37528,0 -5.93308,-1.7732 -7.63743,-2.4367 -3.22501,-1.2556 -5.6047,-2.7926 -7.55557,-4.8802 l -1.01029,-1.081 0,1.0697 c 0,2.5555 0.9972,5.6372 2.66666,8.2411 0.88611,1.382 1.96846,2.5839 5.99961,6.6618 2.70513,2.7366 4.87394,5.021 4.81958,5.0765 -0.0543,0.056 -1.43077,-0.3152 -3.05869,-0.8237 -7.7933,-2.4342 -12.63933,-4.7736 -16.10906,-7.7764 -0.64375,-0.5572 -1.17046,-0.9336 -1.17046,-0.8364 0,0.3614 1.85368,4.5156 3.52449,7.8986 4.76273,9.6435 9.92627,17.3705 23.57747,35.2825 4.52143,5.9327 7.25909,9.6205 10.43306,14.0539 1.58232,2.2103 1.61668,2.2438 2.54766,2.4877 0.60356,0.158 1.89374,0.2449 3.57927,0.2409 2.20193,0 2.86624,-0.073 4.03794,-0.4141 3.18013,-0.9252 5.89706,-2.5828 8.62209,-5.2604 2.58684,-2.5419 4.17729,-4.7578 5.83385,-8.1282 1.88865,-3.8427 2.85619,-7.7087 2.98769,-11.9382 0.15647,-5.0338 -0.73209,-8.5254 -3.1041,-12.1973 -1.49804,-2.319 -3.31803,-3.9416 -7.30556,-6.5133 -5.18268,-3.3425 -10.70055,-7.9726 -14.41357,-12.0946 -8.02134,-8.9049 -10.8907,-17.9555 -7.82384,-24.6783 2.03932,-4.4702 6.28673,-7.7396 12.79888,-9.8516 1.42089,-0.4609 2.60703,-0.8561 2.63587,-0.8782 0.0288,-0.022 0.23772,-0.877 0.46422,-1.8996 1.5114,-6.8237 5.19073,-9.9364 12.48532,-10.5625 1.15962,-0.1 2.66188,-0.1308 3.33834,-0.07 1.57685,0.1429 5.58931,-0.1858 7.68463,-0.6294 1.99252,-0.4219 3.73474,-0.9312 8.36625,-2.4454 1.96683,-0.643 3.59674,-1.1438 3.62201,-1.1129 0.0254,0.031 0.13207,0.2254 0.23733,0.4323 0.17549,0.3448 -0.0351,0.5531 -2.53608,2.5094 -3.52143,2.7545 -5.88197,4.3624 -8.03847,5.4753 -1.71778,0.8865 -4.56667,1.9459 -5.23289,1.9459 -0.64967,0 -0.16718,0.2974 0.85277,0.5257 3.58763,0.8028 8.13653,2.824 10.41835,4.6291 0.72477,0.5734 1.67357,1.5235 2.10843,2.1113 0.43485,0.5879 1.51384,1.8033 2.39776,2.7008 1.35228,1.3732 1.86764,1.7611 3.25047,2.4467 2.04849,1.0158 2.95559,1.2365 5.03404,1.225 2.86119,-0.016 5.26143,-0.7719 11.53882,-3.6349 3.25972,-1.4866 3.52492,-1.5777 3.73603,-1.2832 0.32925,0.4593 0.23635,0.5857 -1.01777,1.3845 -0.62244,0.3964 -3.62229,2.3306 -6.66634,4.2981 -11.34943,7.3358 -15.24653,9.3412 -20.99638,10.8042 -2.12918,0.5418 -6.14261,0.7629 -8.11831,0.4472 -5.7337,-0.916 -11.13385,-4.7406 -15.72567,-11.1377 l -1.24541,-1.735 -1.29154,0.4065 c -1.84198,0.5798 -4.70514,2.0267 -6.01753,3.0411 -2.74384,2.1207 -3.9404,5.1501 -3.28912,8.3274 1.06061,5.1743 6.54435,11.2053 15.85286,17.4347 5.45163,3.6483 11.16277,9.5083 13.2302,13.575 0.71384,1.4042 1.42132,3.5042 1.42132,4.2191 0,0.8762 1.49571,0.7747 3.10768,-0.2109 1.21252,-0.7413 2.06193,-1.5548 3.95119,-3.7842 1.40417,-1.6569 1.59448,-1.7943 2.06445,-1.4909 0.53445,0.3451 -0.63316,4.9179 -1.7986,7.0439 -0.36459,0.6651 -1.32223,1.8717 -2.2811,2.874 -2.38603,2.4943 -3.46306,4.7623 -3.46165,7.2896 0,1.2843 0.36518,2.1459 1.07047,2.531 0.93753,0.5119 3.58652,-0.5232 4.35634,-1.7022 0.67653,-1.0361 2.64523,-2.8035 3.64057,-3.2684 1.05122,-0.491 2.37673,-0.6978 3.31788,-0.5177 l 0.64604,0.1237 -0.118,0.93 c -0.72729,5.7337 -2.7578,9.6361 -6.11539,11.753 -0.70546,0.4448 -2.93715,1.2762 -3.42563,1.2762 -1.13228,0 -3.09428,1.2605 -3.64109,2.3393 -0.60629,1.1961 -0.15088,2.5609 1.19032,3.5671 0.67608,0.5073 0.83482,0.5465 2.21078,0.5465 2.59355,0 3.74765,0.6572 4.62654,2.6347 0.42088,0.947 0.5727,1.1295 0.93952,1.1295 0.77891,0 0.46904,0.2915 -1.09989,1.0348 -5.2057,2.4661 -8.91062,3.1876 -12.63509,2.4605 -0.75743,-0.1478 -1.41566,-0.2688 -1.46274,-0.2689 -0.047,0 0.91105,0.9964 2.1292,2.2141 3.72358,3.7223 4.52927,5.7791 4.27588,10.9157 -0.0669,1.3556 -0.172,2.462 -0.2336,2.4588 -0.0616,0 -1.45614,-1.8254 -3.09895,-4.0493 -1.64284,-2.224 -3.3032,-4.3675 -3.68975,-4.7634 -0.38653,-0.3959 -1.29101,-1.0097 -2.00998,-1.3641 -1.12218,-0.5531 -1.51999,-0.6536 -2.81122,-0.7102 -1.30576,-0.057 -1.60831,-0.011 -2.29473,0.3497 -1.09722,0.5769 -1.35954,1.1828 -0.96656,2.2326 0.17028,0.4549 0.49839,0.9198 0.76426,1.0828 3.14776,1.9309 4.38905,3.1088 5.34646,5.0735 0.5201,1.0672 0.56434,1.2932 0.5436,2.7783 -0.0179,1.2775 -0.1238,1.8985 -0.50512,2.9609 -0.50806,1.4153 -1.47384,3.486 -1.57605,3.379 -0.0331,-0.035 -0.21958,-0.7494 -0.41444,-1.5883 -0.94352,-4.0623 -2.22783,-5.7579 -4.56587,-6.0283 -0.4524,-0.052 -1.15749,-0.016 -1.56683,0.08 -0.89335,0.2101 -3.25847,-0.02 -4.50678,-0.439 -1.4942,-0.5012 -2.73841,-1.9109 -3.34875,-3.7941 -0.1697,-0.5236 -0.48971,-1.1669 -0.71115,-1.4295 -0.35721,-0.4237 -0.55252,-0.4852 -1.73356,-0.546 -1.34423,-0.069 -2.97149,0.2181 -4.74132,0.8373 l -0.85117,0.2978 -0.0253,9.052 c -0.0273,9.8214 0.0508,10.9005 0.9968,13.7531 0.7389,2.228 2.06863,3.7406 3.68118,4.1873 1.1151,0.309 3.48586,0.094 5.11573,-0.4632 1.97686,-0.6762 5.21184,-2.3546 6.29622,-3.2668 2.07512,-1.7455 4.12398,-2.5661 6.7219,-2.6923 2.1585,-0.1048 3.49367,0.1348 5.09536,0.9144 2.29929,1.1192 3.95701,2.9025 5.20646,5.6008 1.02528,2.2143 1.3962,3.999 1.50728,7.2527 0.10632,3.1143 -0.095,5.4157 -0.75131,8.5916 -0.66516,3.2183 -0.52969,4.4659 0.61451,5.6597 1.71779,1.7924 5.93743,1.4578 10.38469,-0.8233 1.13166,-0.5805 1.48029,-0.689 1.67744,-0.5221 0.1369,0.1159 0.24889,0.3131 0.24889,0.4382 0,0.2268 -2.36359,2.4817 -3.86545,3.6877 -1.23773,0.9939 -2.79725,1.8897 -4.01776,2.3078 -1.3366,0.4578 -3.48352,0.5084 -4.94281,0.1164 -0.53138,-0.1427 -0.98339,-0.2419 -1.00443,-0.2204 -0.0746,0.076 1.48817,3.4929 2.14733,4.6954 0.36755,0.6705 1.19608,1.7575 1.84114,2.4156 1.41261,1.4411 2.44338,1.8965 4.98884,2.2039 l 1.73569,0.2096 -1.91139,0.9294 c -2.2792,1.1082 -2.95126,1.3053 -4.45908,1.3078 -1.40036,0 -2.52884,-0.3914 -3.68852,-1.2868 -0.48385,-0.3737 -0.8797,-0.6604 -0.87968,-0.6372 1e-5,0.023 0.12207,0.6873 0.27121,1.476 0.46461,2.4564 0.6164,4.04 0.61857,6.4528 0.005,4.7023 -1.06225,8.2767 -3.64679,12.2231 -0.92114,1.4065 -0.98005,1.4597 -1.40031,1.2643 -0.49881,-0.2318 -0.50302,-0.1748 0.18872,-2.5533 1.16222,-3.9963 1.3702,-8.1366 0.56727,-11.2925 -0.42787,-1.6818 -1.75106,-4.7501 -2.04842,-4.7501 -0.17198,0 -9.4266,13.4464 -9.64129,14.0082 -0.11537,0.3019 -3.72843,4.474 -5.35411,6.1825 -0.0134,0.014 -1.28923,0.1163 -2.8354,0.2273 -1.54619,0.1111 -3.2906,0.2486 -3.87646,0.3056 -1.06133,0.1032 -1.06495,0.1055 -0.98926,0.6316 0.10444,0.726 -0.40327,1.9939 -1.06114,2.6501 -0.89012,0.8878 -1.82314,1.1556 -3.60611,1.0349 -0.84496,-0.057 -1.69438,-0.1476 -1.88766,-0.201 -0.29457,-0.081 -0.44892,0.1128 -0.95415,1.1995 -0.77192,1.6604 -2.15492,3.0996 -3.70195,3.8526 -1.15443,0.5619 -4.18256,1.2976 -5.34063,1.2976 l -0.62932,0 2.15677,-2.1957 z m -48.10424,-206.395 c 1.30407,-0.6344 1.47791,-2.3134 0.45827,-4.4263 -0.43959,-0.911 -0.6594,-1.1776 -1.03645,-1.257 -3.346,-0.7048 -13.20312,-2.3297 -13.3324,-2.1978 -0.0349,0.036 0.47087,1.118 1.12407,2.4053 1.31092,2.5833 1.31212,2.5845 4.00116,3.9603 3.53503,1.8085 6.96634,2.4004 8.78535,1.5155 z m -15.6075,-6.2363 c 0.30777,-0.8872 0.56474,-1.6737 0.57102,-1.7476 0.006,-0.074 -0.98226,-0.1345 -2.19675,-0.1345 l -2.20818,0 0.93434,1.7982 0.93436,1.7981 0.7028,-0.051 0.7028,-0.051 0.55961,-1.6132 z m 21.66671,-20.8822 c -2.17432,-1.4786 -3.99434,-2.6885 -4.0445,-2.6886 -0.0502,-10e-5 -0.4348,0.7641 -0.85479,1.6981 -0.77183,1.7166 -0.82493,2.1626 -0.3355,2.8187 0.18994,0.2546 0.84781,0.3463 4.00487,0.5583 2.07767,0.1395 4.09386,0.2645 4.4804,0.2778 0.66264,0.023 0.47695,-0.1295 -3.25048,-2.6643 z"
       id="path13394-8"
       inkscape:connector-curvature="0" />
    <path
       style="fill:#d40000;fill-opacity:1"
       d="m 490.94179,336.12605 c 2.26226,-2.3032 2.90326,-3.2663 3.28327,-4.9332 0.18446,-0.8093 0.17137,-1.111 -0.0912,-2.1007 -0.20115,-0.758 -0.26909,-1.435 -0.19751,-1.9677 l 0.10911,-0.8121 -0.5747,0 c -0.86937,0 -2.46019,-0.4703 -3.63163,-1.0735 -1.78457,-0.9191 -3.41064,-0.6447 -4.39488,0.7414 -0.26663,0.3755 -0.70716,1.3903 -0.97898,2.255 l -0.49419,1.5724 -0.41079,-1.3443 c -1.16747,-3.8208 -0.42296,-6.0008 2.55088,-7.469 0.91327,-0.4509 1.75799,-1.0619 2.60241,-1.8823 l 1.25023,-1.2147 -0.44954,-0.3004 c -0.5996,-0.4008 -1.39911,-1.2924 -1.72753,-1.9266 -0.26582,-0.5133 -0.26951,-0.5142 -1.51055,-0.3895 -2.32486,0.2337 -4.07644,1.2546 -5.165,3.0102 -0.42667,0.6881 -0.6571,0.7922 -1.10879,0.5007 -0.36757,-0.2371 0.0204,-2.4358 0.68702,-3.8938 1.17181,-2.5627 3.15652,-3.8468 6.60453,-4.273 0.82945,-0.1026 0.91079,-0.1594 1.29989,-0.9076 0.52956,-1.0184 1.56364,-1.9708 2.73248,-2.5167 2.74887,-1.2838 6.92813,-0.9209 11.07171,0.9615 2.26295,1.0281 4.17123,1.4793 6.78846,1.6051 2.60982,0.1254 2.35488,0.392 2.51916,-2.6343 0.46205,-8.5112 2.17553,-15.5183 4.71616,-19.2862 l 0.61145,-0.9068 -0.41683,-2.4059 c -0.22926,-1.3233 -0.41884,-2.461 -0.42132,-2.5283 -0.003,-0.067 -0.67747,0.3087 -1.5,0.8356 -4.59613,2.9437 -9.47614,3.643 -15.07206,2.1597 -0.92945,-0.2463 -1.7753,-0.4693 -1.87967,-0.4954 -0.10438,-0.026 -0.54363,1.0247 -0.97604,2.335 -1.87709,5.688 -4.43948,9.3999 -8.18162,11.8521 -0.90075,0.5903 -1.65709,1.0534 -1.68079,1.0293 -0.0237,-0.024 0.58851,-2.4602 1.36046,-5.4133 2.37912,-9.1017 2.79123,-11.3651 2.21545,-12.1684 -0.40687,-0.5676 -0.89917,-0.1696 -2.13796,1.7286 -4.41342,6.7624 -9.04367,11.9473 -13.24498,14.8315 -1.46109,1.0031 -3.95449,2.192 -5.7894,2.7605 l -1.46316,0.4533 0.30442,-0.474 c 0.16742,-0.2606 0.95959,-1.3772 1.76035,-2.4813 4.89246,-6.7454 7.82376,-12.8475 7.82376,-16.287 0,-2.5787 -1.17215,-3.0788 -3.36583,-1.436 -1.60986,1.2056 -3.23477,3.7906 -4.56065,7.2553 -0.32067,0.838 -0.63739,1.5874 -0.70381,1.6654 -0.0664,0.078 -0.47961,-0.8094 -0.91815,-1.9717 -1.69668,-4.4972 -2.15118,-6.5576 -2.12684,-9.6418 0.0317,-4.0235 1.20678,-6.9998 4.17179,-10.5668 1.87554,-2.2562 3.26467,-4.994 3.26467,-6.4341 0,-1.2907 -0.65359,-1.711 -2.01225,-1.2938 -1.61675,0.4964 -3.42832,2.3148 -4.2932,4.3094 -0.31813,0.7337 -0.36372,0.7645 -1.27301,0.86 -0.51871,0.054 -2.72206,0.019 -4.89638,-0.078 -6.77294,-0.3032 -9.48191,0.1451 -11.36504,1.8807 -2.61141,2.4069 -2.6218,8.5962 -0.0252,14.9676 1.76786,4.3378 1.96612,5.1243 1.97291,7.8267 0.005,2.1134 -0.038,2.443 -0.46469,3.5425 -1.63211,4.2054 -6.00796,8.5273 -14.18921,14.0143 -1.49786,1.0046 -2.81754,1.8832 -2.93261,1.9526 -0.28632,0.1726 -0.15127,-0.6615 0.58274,-3.5984 0.32607,-1.3047 0.59255,-2.7566 0.59219,-3.2265 -0.002,-1.8909 -1.31119,-2.8343 -4.66665,-3.3614 -0.65874,-0.1035 -0.73135,-0.073 -0.93776,0.3909 -0.12304,0.2767 -0.97465,1.7365 -1.89247,3.2441 -1.84204,3.0258 -2.92151,5.2296 -3.22592,6.5862 -0.12058,0.5373 -0.15414,1.4412 -0.0847,2.2817 l 0.11495,1.392 -1.15936,-0.8269 c -2.75666,-1.9659 -3.32761,-4.062 -1.86122,-6.8333 l 0.49362,-0.9328 -0.98903,-0.2301 c -0.56007,-0.1303 -2.09403,-0.2302 -3.53671,-0.2303 -2.98659,-10e-5 -4.08089,0.2387 -6.31137,1.3778 -3.20134,1.6349 -5.71178,5.0098 -7.46964,10.0417 l -0.48411,1.3858 -0.62626,-0.7585 c -2.00057,-2.4228 -2.77017,-4.4401 -2.63628,-6.9103 0.0464,-0.8557 0.14666,-1.7058 0.2229,-1.8894 0.13419,-0.3231 -0.0551,-0.3295 -5.99339,-0.2031 -3.37256,0.072 -6.212,0.1957 -6.30984,0.2754 -0.0979,0.08 -1.67918,0.3543 -3.51405,0.6101 -4.70186,0.6554 -4.21267,0.4564 -4.22565,1.7187 -0.009,0.885 -0.10074,1.2008 -0.52872,1.822 -0.79359,1.1519 -1.9187,1.6622 -3.66795,1.6638 -0.77812,0 -1.62609,-0.059 -1.88437,-0.132 -0.42894,-0.1218 -0.48764,-0.075 -0.67845,0.5388 -0.67582,2.1746 -2.34894,4.1591 -4.28632,5.084 -1.07745,0.5144 -5.54702,1.8386 -5.54702,1.6435 0,-0.052 0.70538,-0.8477 1.56752,-1.7677 3.21865,-3.4347 4.15368,-5.6404 3.37019,-7.95 -0.2032,-0.599 -0.36947,-1.4818 -0.36947,-1.9616 l 0,-0.8725 -1.36168,-0.084 c -0.95328,-0.059 -1.70424,-0.2324 -2.50375,-0.5795 -0.62814,-0.2728 -1.34524,-0.5348 -1.59358,-0.5824 -0.77994,-0.1493 -1.95273,0.294 -2.64454,0.9998 -0.62594,0.6385 -0.87014,1.2515 -1.50783,3.7846 l -0.15796,0.6274 -0.58772,-1.6132 c -1.32896,-3.6479 -0.52413,-5.9957 2.60833,-7.6088 0.5757,-0.2965 1.1609,-0.7054 1.30048,-0.9086 0.13955,-0.2033 0.6192,-0.7634 1.0659,-1.2447 l 0.81214,-0.8751 -0.60654,-0.3824 c -0.3336,-0.2104 -0.9507,-0.79 -1.37133,-1.2881 l -0.76481,-0.9056 -1.17945,0.1874 c -2.24075,0.3558 -4.01546,1.555 -4.8753,3.2943 -0.20916,0.4231 -0.39914,0.7917 -0.42218,0.8191 -0.0231,0.027 -0.25139,-0.031 -0.50745,-0.1308 -0.44836,-0.1739 -0.4617,-0.2189 -0.36048,-1.2149 0.38193,-3.7578 1.95184,-5.9405 5.05649,-7.0302 0.50813,-0.1783 1.32527,-0.3806 1.81585,-0.4494 0.83647,-0.1174 0.91228,-0.1717 1.2177,-0.873 0.44725,-1.0269 1.73523,-2.3989 2.73936,-2.918 1.86189,-0.9625 4.42709,-1.2005 7.48565,-0.6944 0.90019,0.1489 2.08618,0.4629 2.63553,0.6977 3.1029,1.3265 6.60314,1.8014 9.95962,1.3515 1.31673,-0.1765 2.1435,-0.092 13.07372,1.3297 l 11.66812,1.518 1.5974,-1.0873 c 4.00157,-2.7238 8.31954,-6.7363 11.62618,-10.8036 1.52945,-1.8814 4.30568,-5.6522 5.25119,-7.1325 l 0.3196,-0.5004 -0.94743,0.3903 c -3.88719,1.6014 -7.91533,2.3133 -13.08951,2.3133 -2.34726,0 -2.51234,-0.023 -2.61637,-0.3569 -0.15511,-0.4986 -0.0408,-0.6212 0.9162,-0.9836 3.07094,-1.1629 6.98154,-3.1696 9.4391,-4.8436 1.93546,-1.3184 5.19384,-4.0722 5.19384,-4.3896 0,-0.2024 -1.6655,-0.7394 -3.68975,-1.1896 -1.13876,-0.2533 -2.18203,-0.3288 -4.39254,-0.3177 -3.00214,0.015 -3.14703,0.04 -7.37874,1.2642 -0.35032,0.1013 -0.15356,-0.2131 0.97849,-1.5636 1.84501,-2.2011 3.51739,-3.6209 5.25819,-4.4641 1.62769,-0.7884 2.55108,-1.0396 4.41153,-1.2001 1.33901,-0.1154 1.33986,-0.1158 0.92416,-0.4417 -0.85131,-0.6674 -4.49901,-2.8421 -5.6871,-3.3907 -3.17408,-1.4655 -5.47797,-2.0391 -8.17015,-2.034 -3.05773,0.01 -5.38905,0.8154 -7.81874,2.7155 -0.57981,0.4534 -1.16297,0.9092 -1.29592,1.0128 -0.45133,0.3517 -0.16805,-2.1541 0.38048,-3.3657 1.19495,-2.6393 5.05124,-5.0704 9.437,-5.9493 6.18881,-1.2402 12.06953,0.4807 14.96702,4.3799 l 0.44897,0.6042 0.1262,-1.0523 c 0.56491,-4.7098 2.66038,-9.0121 5.42747,-11.1434 2.60275,-2.0047 5.41981,-2.8866 9.69032,-3.0335 4.83599,-0.1663 7.49404,0.2068 21.96212,3.0828 0.67609,0.1344 1.25168,0.2215 1.27907,0.1935 0.0273,-0.028 -0.52577,-0.5214 -1.22928,-1.0966 -2.87126,-2.3476 -5.14704,-4.4545 -8.49745,-7.8669 -4.6054,-4.6907 -7.96223,-8.8231 -10.66077,-13.124 -0.56708,-0.9038 -1.1644,-1.6961 -1.32739,-1.7606 -0.16301,-0.065 -0.82631,-0.1633 -1.474,-0.2194 -1.99311,-0.1725 -2.51936,0.2597 -3.30634,2.7159 l -0.3985,1.2436 -0.40621,-0.5198 c -0.22344,-0.2858 -0.62581,-0.9261 -0.89417,-1.4228 -0.41788,-0.7735 -0.48835,-1.1091 -0.49087,-2.3371 -0.002,-0.7887 0.0604,-1.6664 0.13794,-1.9504 l 0.14091,-0.5165 -0.58016,0.3736 c -6.25823,4.029 -9.16632,7.841 -9.98783,13.092 l -0.20642,1.3194 -0.774,-1.3194 c -1.1835,-2.0175 -1.56147,-3.4326 -1.54929,-5.8006 0.005,-1.0844 0.11366,-2.4557 0.24016,-3.0472 0.48754,-2.2793 1.94812,-6.1541 4.04511,-10.7315 0.40061,-0.8744 0.69797,-1.6208 0.66084,-1.6587 -0.0372,-0.038 -1.36521,0.5652 -2.95128,1.3403 -5.70756,2.7892 -10.52404,4.4773 -14.17254,4.9674 -0.50734,0.068 -0.92245,0.1436 -0.92245,0.1677 0,0.024 0.16542,0.4252 0.36758,0.8915 0.43431,1.0016 0.36762,1.6054 -0.35755,3.237 -0.26811,0.6032 -0.58861,1.527 -0.71228,2.0528 l -0.22481,0.956 -0.27203,-0.5216 c -0.14961,-0.2869 -0.68641,-1.4364 -1.1929,-2.5545 -0.50649,-1.1181 -1.12819,-2.3525 -1.38157,-2.7431 -0.48064,-0.741 -2.0065,-1.866 -2.21394,-1.6324 -0.0658,0.074 -0.21902,0.4574 -0.34054,0.8517 -0.40923,1.3282 -1.08668,2.4841 -2.0759,3.5422 -0.80823,0.8644 -2.38976,2.1569 -3.29448,2.6924 -0.13342,0.079 -0.18571,-0.8587 -0.17571,-3.1507 0.0141,-3.2316 0.009,-3.2731 -0.4822,-4.2945 -0.6987,-1.4516 -1.77671,-2.2065 -3.07001,-2.1498 -1.49595,0.065 -16.40332,1.2879 -17.07854,1.4005 -1.78126,0.2968 -3.85976,1.8966 -4.67633,3.5993 -0.41179,0.8587 -0.45464,1.1222 -0.38231,2.3525 0.095,1.6159 0.50538,2.5646 2.0031,4.6307 l 0.96128,1.3261 -0.92951,-0.3675 c -1.99328,-0.7881 -4.48791,-2.1518 -5.40993,-2.9574 -1.26957,-1.1093 -2.35793,-2.6089 -2.83205,-3.9023 -0.32764,-0.8938 -0.43596,-1.0306 -0.752,-0.9504 -0.20308,0.052 -0.69656,0.1469 -1.09666,0.2118 l -0.72742,0.118 0.0918,0.6987 c 0.19953,1.5177 -1.06124,3.3212 -2.6243,3.7539 -0.44915,0.1243 -1.41517,0.1749 -2.37685,0.1245 l -1.62016,-0.085 -0.30524,0.8261 c -0.95882,2.5953 -2.71004,4.3898 -5.10798,5.2345 -0.93553,0.3295 -4.26044,1.238 -4.53104,1.238 -0.0654,0 0.5419,-0.7311 1.34962,-1.6247 2.50396,-2.7701 3.34449,-4.1435 3.68464,-6.0206 0.15068,-0.8316 0.12318,-1.1356 -0.18497,-2.0439 -0.19907,-0.5869 -0.36197,-1.47 -0.36197,-1.9626 l 0,-0.8955 -0.92242,0 c -1.09274,0 -2.39528,-0.3327 -3.41919,-0.8668 -1.44625,-0.7543 -3.32254,-0.3057 -4.16714,0.9963 -0.24734,0.3813 -0.63376,1.4564 -0.85872,2.3891 l -0.40901,1.6958 -0.3694,-1.0008 c -0.73595,-1.9939 -0.96877,-3.0691 -0.87189,-4.0266 0.17834,-1.7629 1.23054,-3.169 3.14736,-4.2059 0.60825,-0.3291 1.22083,-0.7657 1.36131,-0.9703 0.14046,-0.2045 0.62562,-0.7709 1.07812,-1.2585 l 0.82271,-0.8867 -0.76866,-0.4973 c -0.42277,-0.2735 -0.98698,-0.8265 -1.25382,-1.2289 l -0.48515,-0.7316 -1.06582,0.089 c -1.72788,0.1446 -3.00706,0.7332 -4.12757,1.8993 -0.53711,0.559 -1.08038,1.272 -1.20732,1.5846 -0.22937,0.565 -0.58466,0.7041 -1.04245,0.4082 -0.54019,-0.3492 0.28737,-4.0266 1.22187,-5.4295 0.54229,-0.8142 1.69186,-1.7963 2.65822,-2.271 0.83987,-0.4125 2.63386,-0.9224 3.2456,-0.9224 0.30313,0 0.50742,-0.2175 0.84776,-0.9027 1.29045,-2.598 3.53824,-3.7601 7.28843,-3.7682 1.7269,0 4.20276,0.3472 5.21267,0.7389 2.58214,1.0015 13.11635,1.5815 28.97849,1.5956 l 7.04522,0.01 1.47633,-1.1331 c 3.89247,-2.9875 7.11381,-4.9354 14.4783,-8.7551 3.18898,-1.654 5.71033,-3.0096 5.60298,-3.0125 -0.10736,0 -1.21427,0.1578 -2.45985,0.3569 -1.24554,0.1991 -3.45061,0.4095 -4.90015,0.4677 -2.23672,0.09 -2.88815,0.051 -4.30471,-0.2533 -2.7901,-0.6001 -4.10937,-1.2404 -7.76486,-3.7687 -2.02457,-1.4003 -7.17082,-4.0424 -9.60299,-4.9301 -4.06436,-1.4835 -7.49443,-2.0947 -11.7568,-2.0947 -2.76208,0 -2.81396,-0.01 -2.91472,-0.4002 -0.13984,-0.5455 -0.0319,-0.6197 1.47359,-1.0123 2.86346,-0.7468 5.53198,-0.8916 8.78969,-0.477 3.64686,0.4641 7.04327,1.3561 11.58043,3.0412 2.99412,1.112 4.28326,1.3578 7.12086,1.3578 4.22284,0 7.96277,-1.0529 11.54993,-3.2515 1.83381,-1.124 1.87304,-1.1684 1.16192,-1.3133 -0.32363,-0.066 -2.68363,-0.6337 -5.24449,-1.2617 -5.43126,-1.3319 -7.33623,-1.6078 -10.16131,-1.4721 -2.1968,0.1056 -3.36241,0.3652 -5.42758,1.2088 -0.71779,0.2933 -1.33862,0.5332 -1.37964,0.5332 -0.1897,0 -0.0456,-2.5478 0.19811,-3.5025 0.51985,-2.0366 1.70493,-3.5227 3.65463,-4.5828 l 1.07155,-0.5827 -2.19196,-0.6056 c -1.63049,-0.4504 -2.59698,-0.6133 -3.77326,-0.6358 -2.076,-0.04 -2.98356,0.2881 -5.34477,1.9309 -2.81484,1.9584 -4.04704,2.522 -6.48617,2.9667 -1.50348,0.2741 -3.44393,0.034 -5.21214,-0.6448 -1.03727,-0.3983 -4.03079,-2.0332 -3.92144,-2.1418 0.0309,-0.031 0.80058,-0.1863 1.71063,-0.346 2.18604,-0.3839 3.59418,-1.087 5.12286,-2.5582 1.1833,-1.1388 2.68753,-3.2056 2.52647,-3.4715 -0.10391,-0.1715 -8.25785,-4.8261 -8.45442,-4.8261 -0.0825,0 -0.24767,0.1595 -0.36695,0.3543 -0.37528,0.613 -1.51449,1.0797 -2.63573,1.0797 -1.44342,0 -2.6798,-0.7657 -3.67032,-2.2731 -0.40043,-0.6094 -0.75727,-1.1974 -0.79295,-1.3066 -0.0458,-0.1399 -0.2718,-0.1241 -0.76544,0.054 -2.26262,0.8144 -4.68325,0.7341 -6.67433,-0.2215 -0.9349,-0.4487 -4.93331,-3.2199 -4.79722,-3.3248 0.0294,-0.023 1.23758,0.041 2.6851,0.1405 3.07616,0.2122 4.84491,0.022 6.29002,-0.675 1.03986,-0.5019 1.30234,-0.737 2.06931,-1.8535 0.28978,-0.4219 0.8297,-0.9865 1.19985,-1.2547 l 0.673,-0.4878 -0.56005,-0.717 c -0.63766,-0.8163 -1.23374,-2.1735 -1.41706,-3.2264 -0.16166,-0.9285 -0.80476,-1.7942 -1.66573,-2.2423 -1.12723,-0.5866 -1.82587,-0.483 -4.70847,0.6984 -0.58277,0.2389 -0.88495,0.2978 -0.8035,0.1567 1.18356,-2.0501 2.40168,-3.4526 3.51574,-4.0478 1.22778,-0.656 3.16109,-0.5733 4.93105,0.2108 0.79881,0.3539 1.3857,0.4661 2.69082,0.5144 l 1.66917,0.062 0.0102,-1.2609 c 0.005,-0.6936 0.10985,-1.4477 0.23186,-1.6759 0.19494,-0.3645 0.16522,-0.4905 -0.24498,-1.0392 -1.30169,-1.741 -4.1398,-2.7411 -6.31723,-2.2261 -0.80918,0.1914 -0.73557,0.2224 -0.88162,-0.3712 -0.10161,-0.4131 -0.0123,-0.5326 0.78892,-1.0572 3.36213,-2.201 6.67993,-2.0313 9.75137,0.4988 1.00878,0.8309 1.08451,0.8615 1.75703,0.7089 1.30671,-0.2964 3.24698,-0.072 4.39006,0.5083 2.47823,1.2575 5.19777,4.8857 5.97718,7.9741 0.66196,2.6231 2.48529,5.7721 4.56038,7.8761 l 1.14908,1.1651 18.5805,5.5638 18.58048,5.5638 0.0457,-1.0826 c 0.0251,-0.5955 -0.0144,-1.8417 -0.088,-2.7694 l -0.13352,-1.6867 -8.75693,-2.618 -8.75691,-2.618 -5.58815,-5.9037 c -5.45671,-5.7649 -5.58145,-5.9128 -5.30288,-6.2896 l 0.28527,-0.3858 1.93634,0.9303 c 1.06501,0.5117 4.78275,2.3029 8.26166,3.9805 l 6.32527,3.0502 7.24852,2.2051 7.24855,2.205 5.62162,-1.5819 c 3.0919,-0.87 5.62164,-1.6364 5.62164,-1.703 0,-0.241 -8.65197,-6.2985 -8.78687,-6.152 -0.0761,0.083 -0.63661,1.2595 -1.24541,2.6151 -0.60881,1.3555 -1.15665,2.4646 -1.21741,2.4646 -0.0607,0 -0.7948,-1.4721 -1.63121,-3.2712 l -1.52074,-3.2713 -2.77028,-0.2337 c -1.52365,-0.1285 -2.95856,-0.2739 -3.18868,-0.323 l -0.41842,-0.089 0.12818,-2.9931 c 0.0705,-1.6461 0.15737,-3.0416 0.19308,-3.1009 0.0357,-0.059 1.07382,-0.1651 2.30692,-0.235 1.23307,-0.07 2.27473,-0.1605 2.31479,-0.2014 0.14347,-0.1464 0.91331,-3.8948 0.81954,-3.9905 -0.18194,-0.1856 -3.46374,0.3526 -4.89524,0.8028 -5.32919,1.6761 -10.69416,2.5746 -13.88252,2.325 -3.82903,-0.2998 -5.98976,-1.5308 -7.1094,-4.0504 -0.38306,-0.8621 -0.44402,-1.2598 -0.45474,-2.9672 -0.0149,-2.3853 0.32993,-3.8764 1.76694,-7.6388 1.54436,-4.0434 1.4886,-5.77 -0.23643,-7.319 -1.22161,-1.097 -3.37475,-1.7926 -6.42567,-2.0759 -1.35019,-0.1254 -1.36168,-0.1308 -1.36168,-0.6362 0,-0.568897 -0.0202,-0.560297 3.05083,-1.286497 2.12631,-0.5028 7.07527,-0.5632 8.47703,-0.1035 1.85297,0.6076 2.95268,1.2686 4.10962,2.469797 1.98355,2.0596 2.88089,4.5178 3.17706,8.7032 0.0977,1.3802 0.25685,2.8725 0.35376,3.3161 0.61106,2.7978 4.29851,3.9641 9.9104,3.1346 2.06347,-0.305 6.3999,-0.3434 9.13649,-0.081 4.1512,0.3981 8.37762,1.5506 12.39815,3.3808 1.09403,0.498 2.00875,0.8855 2.0327,0.8611 0.024,-0.024 -0.76309,-1.8928 -1.74898,-4.152 l -1.79253,-4.1076 -1.22273,-0.3148 c -0.67253,-0.1731 -1.24817,-0.2888 -1.27926,-0.2572 -0.0312,0.032 -0.2505,1.1365 -0.4876,2.4549 -0.23711,1.3185 -0.45904,2.5183 -0.49316,2.6662 -0.0341,0.1478 -0.67726,-1.0218 -1.42915,-2.5991 -0.7519,-1.5774 -1.38281,-2.8878 -1.40203,-2.912 -0.0192,-0.024 -0.38864,-0.093 -0.82095,-0.154 l -0.786,-0.1099 -0.58652,2.5591 c -0.46059,2.0096 -0.62836,2.5004 -0.78143,2.2859 -0.10719,-0.1502 -0.78789,-1.3733 -1.51266,-2.718 -0.72478,-1.3448 -1.43637,-2.4813 -1.58134,-2.5258 -0.14494,-0.044 -0.54885,-0.1322 -0.89758,-0.1952 -0.62553,-0.1128 -0.63543,-0.1051 -0.73729,0.573 -0.0568,0.3781 -0.15787,1.4739 -0.22463,2.4351 -0.0668,0.9612 -0.16982,1.7459 -0.22907,1.7437 -0.0592,0 -0.77977,-1.1063 -1.60117,-2.4537 -0.82141,-1.3473 -1.94951,-2.9583 -2.5069,-3.5799 -3.89669,-4.3457 -3.60438,-7.0944 0.87792,-8.2552 1.82405,-0.4724 8.63118,-0.4168 12.55985,0.1026 1.61503,0.2134 3.15682,0.3883 3.42619,0.3884 0.48433,0 0.48911,-0.011 0.42913,-0.994 -0.0755,-1.236797 0.55088,-2.673397 1.48119,-3.397297 1.22267,-0.9514 2.38069,-1.2418 4.90473,-1.23 3.23382,0.015 6.05701,0.7449 10.40915,2.6914 1.65734,0.7412 2.04223,0.8458 3.12674,0.8498 1.05875,0 1.42547,-0.087 2.54768,-0.6316 2.86989,-1.3929 5.80452,-4.4522 9.69284,-10.1047 1.02389,-1.4885 1.58444,-2.151 1.81992,-2.151 0.26158,0 0.47056,0.333 0.90348,1.4394 1.67414,4.2786 1.83104,8.7463 0.49461,14.084897 -0.0996,0.3977 -0.0297,0.5201 0.46822,0.8198 1.59869,0.9623 3.93668,1.3031 6.62927,0.9663 0.9099,-0.1138 3.14351,-0.5967 4.96359,-1.0732 1.8201,-0.4764 3.30926,-0.823 3.30926,-0.77 0,0.2797 -3.73317,5.1112 -4.80884,6.2237 -1.48117,1.5318 -3.52811,2.9419 -4.91804,3.3879 l -0.99697,0.3199 0.51952,0.6037 c 1.5913,1.8489 3.02626,4.6377 3.45604,6.7165 0.45785,2.2146 0.006,4.5511 -1.27486,6.594 -0.56238,0.8969 -0.61679,1.0932 -0.55288,1.9947 0.0905,1.2761 0.65212,2.4532 1.76136,3.6914 1.53359,1.7118 4.97099,3.7918 8.74738,5.293 1.56811,0.6234 1.66917,0.6946 1.66917,1.1766 0,0.4714 -0.0571,0.5167 -0.7028,0.5587 -0.38656,0.025 -1.88881,0.1804 -3.33834,0.3451 -6.13723,0.6971 -9.26432,0.2351 -12.23358,-1.8076 l -0.94407,-0.6495 -0.0516,1.1477 c -0.0288,0.6434 0.0963,1.8861 0.28496,2.828 1.03364,5.1619 4.1732,9.6445 10.22478,14.5987 l 2.16821,1.775 -2.27206,0.056 c -2.58213,0.064 -5.57302,-0.1998 -6.92829,-0.6104 -1.57244,-0.4764 -3.37864,-1.4628 -4.55648,-2.4883 -0.62173,-0.5414 -1.15981,-0.9543 -1.19576,-0.9176 -0.18465,0.1883 -0.0273,2.9394 0.22851,3.9987 0.41195,1.7051 1.61546,3.9971 3.03863,5.7871 0.66628,0.838 2.40424,2.7194 3.86211,4.181 2.37892,2.3849 2.62904,2.6927 2.43948,3.0023 -0.11616,0.1898 -0.31385,0.345 -0.43936,0.345 -0.37528,0 -5.93308,-1.7732 -7.63743,-2.4367 -3.22501,-1.2556 -5.6047,-2.7926 -7.55557,-4.8802 l -1.01029,-1.081 0,1.0697 c 0,2.5555 0.9972,5.6372 2.66666,8.2411 0.88611,1.382 1.96846,2.5839 5.99961,6.6618 2.70513,2.7366 4.87394,5.021 4.81958,5.0765 -0.0543,0.056 -1.43077,-0.3152 -3.05869,-0.8237 -7.7933,-2.4342 -12.63933,-4.7736 -16.10906,-7.7764 -0.64375,-0.5572 -1.17046,-0.9336 -1.17046,-0.8364 0,0.3614 1.85368,4.5156 3.52449,7.8986 4.76273,9.6435 9.92627,17.3705 23.57747,35.2825 4.52143,5.9327 7.25909,9.6205 10.43306,14.0539 1.58232,2.2103 1.61668,2.2438 2.54766,2.4877 0.60356,0.158 1.89374,0.2449 3.57927,0.2409 2.20193,0 2.86624,-0.073 4.03794,-0.4141 3.18013,-0.9252 5.89706,-2.5828 8.62209,-5.2604 2.58684,-2.5419 4.17729,-4.7578 5.83385,-8.1282 1.88865,-3.8427 2.85619,-7.7087 2.98769,-11.9382 0.15647,-5.0338 -0.73209,-8.5254 -3.1041,-12.1973 -1.49804,-2.319 -3.31803,-3.9416 -7.30556,-6.5133 -5.18268,-3.3425 -10.70055,-7.9726 -14.41357,-12.0946 -8.02134,-8.9049 -10.8907,-17.9555 -7.82384,-24.6783 2.03932,-4.4702 6.28673,-7.7396 12.79888,-9.8516 1.42089,-0.4609 2.60703,-0.8561 2.63587,-0.8782 0.0288,-0.022 0.23772,-0.877 0.46422,-1.8996 1.5114,-6.8237 5.19073,-9.9364 12.48532,-10.5625 1.15962,-0.1 2.66188,-0.1308 3.33834,-0.07 1.57685,0.1429 5.58931,-0.1858 7.68463,-0.6294 1.99252,-0.4219 3.73474,-0.9312 8.36625,-2.4454 1.96683,-0.643 3.59674,-1.1438 3.62201,-1.1129 0.0254,0.031 0.13207,0.2254 0.23733,0.4323 0.17549,0.3448 -0.0351,0.5531 -2.53608,2.5094 -3.52143,2.7545 -5.88197,4.3624 -8.03847,5.4753 -1.71778,0.8865 -4.56667,1.9459 -5.23289,1.9459 -0.64967,0 -0.16718,0.2974 0.85277,0.5257 3.58763,0.8028 8.13653,2.824 10.41835,4.6291 0.72477,0.5734 1.67357,1.5235 2.10843,2.1113 0.43485,0.5879 1.51384,1.8033 2.39776,2.7008 1.35228,1.3732 1.86764,1.7611 3.25047,2.4467 2.04849,1.0158 2.95559,1.2365 5.03404,1.225 2.86119,-0.016 5.26143,-0.7719 11.53882,-3.6349 3.25972,-1.4866 3.52492,-1.5777 3.73603,-1.2832 0.32925,0.4593 0.23635,0.5857 -1.01777,1.3845 -0.62244,0.3964 -3.62229,2.3306 -6.66634,4.2981 -11.34943,7.3358 -15.24653,9.3412 -20.99638,10.8042 -2.12918,0.5418 -6.14261,0.7629 -8.11831,0.4472 -5.7337,-0.916 -11.13385,-4.7406 -15.72567,-11.1377 l -1.24541,-1.735 -1.29154,0.4065 c -1.84198,0.5798 -4.70514,2.0267 -6.01753,3.0411 -2.74384,2.1207 -3.9404,5.1501 -3.28912,8.3274 1.06061,5.1743 6.54435,11.2053 15.85286,17.4347 5.45163,3.6483 11.16277,9.5083 13.2302,13.575 0.71384,1.4042 1.42132,3.5042 1.42132,4.2191 0,0.8762 1.49571,0.7747 3.10768,-0.2109 1.21252,-0.7413 2.06193,-1.5548 3.95119,-3.7842 1.40417,-1.6569 1.59448,-1.7943 2.06445,-1.4909 0.53445,0.3451 -0.63316,4.9179 -1.7986,7.0439 -0.36459,0.6651 -1.32223,1.8717 -2.2811,2.874 -2.38603,2.4943 -3.46306,4.7623 -3.46165,7.2896 0,1.2843 0.36518,2.1459 1.07047,2.531 0.93753,0.5119 3.58652,-0.5232 4.35634,-1.7022 0.67653,-1.0361 2.64523,-2.8035 3.64057,-3.2684 1.05122,-0.491 2.37673,-0.6978 3.31788,-0.5177 l 0.64604,0.1237 -0.118,0.93 c -0.72729,5.7337 -2.7578,9.6361 -6.11539,11.753 -0.70546,0.4448 -2.93715,1.2762 -3.42563,1.2762 -1.13228,0 -3.09428,1.2605 -3.64109,2.3393 -0.60629,1.1961 -0.15088,2.5609 1.19032,3.5671 0.67608,0.5073 0.83482,0.5465 2.21078,0.5465 2.59355,0 3.74765,0.6572 4.62654,2.6347 0.42088,0.947 0.5727,1.1295 0.93952,1.1295 0.77891,0 0.46904,0.2915 -1.09989,1.0348 -5.2057,2.4661 -8.91062,3.1876 -12.63509,2.4605 -0.75743,-0.1478 -1.41566,-0.2688 -1.46274,-0.2689 -0.047,0 0.91105,0.9964 2.1292,2.2141 3.72358,3.7223 4.52927,5.7791 4.27588,10.9157 -0.0669,1.3556 -0.172,2.462 -0.2336,2.4588 -0.0616,0 -1.45614,-1.8254 -3.09895,-4.0493 -1.64284,-2.224 -3.3032,-4.3675 -3.68975,-4.7634 -0.38653,-0.3959 -1.29101,-1.0097 -2.00998,-1.3641 -1.12218,-0.5531 -1.51999,-0.6536 -2.81122,-0.7102 -1.30576,-0.057 -1.60831,-0.011 -2.29473,0.3497 -1.09722,0.5769 -1.35954,1.1828 -0.96656,2.2326 0.17028,0.4549 0.49839,0.9198 0.76426,1.0828 3.14776,1.9309 4.38905,3.1088 5.34646,5.0735 0.5201,1.0672 0.56434,1.2932 0.5436,2.7783 -0.0179,1.2775 -0.1238,1.8985 -0.50512,2.9609 -0.50806,1.4153 -1.47384,3.486 -1.57605,3.379 -0.0331,-0.035 -0.21958,-0.7494 -0.41444,-1.5883 -0.94352,-4.0623 -2.22783,-5.7579 -4.56587,-6.0283 -0.4524,-0.052 -1.15749,-0.016 -1.56683,0.08 -0.89335,0.2101 -3.25847,-0.02 -4.50678,-0.439 -1.4942,-0.5012 -2.73841,-1.9109 -3.34875,-3.7941 -0.1697,-0.5236 -0.48971,-1.1669 -0.71115,-1.4295 -0.35721,-0.4237 -0.55252,-0.4852 -1.73356,-0.546 -1.34423,-0.069 -2.97149,0.2181 -4.74132,0.8373 l -0.85117,0.2978 -0.0253,9.052 c -0.0273,9.8214 0.0508,10.9005 0.9968,13.7531 0.7389,2.228 2.06863,3.7406 3.68118,4.1873 1.1151,0.309 3.48586,0.094 5.11573,-0.4632 1.97686,-0.6762 5.21184,-2.3546 6.29622,-3.2668 2.07512,-1.7455 4.12398,-2.5661 6.7219,-2.6923 2.1585,-0.1048 3.49367,0.1348 5.09536,0.9144 2.29929,1.1192 3.95701,2.9025 5.20646,5.6008 1.02528,2.2143 1.3962,3.999 1.50728,7.2527 0.10632,3.1143 -0.095,5.4157 -0.75131,8.5916 -0.66516,3.2183 -0.52969,4.4659 0.61451,5.6597 1.71779,1.7924 5.93743,1.4578 10.38469,-0.8233 1.13166,-0.5805 1.48029,-0.689 1.67744,-0.5221 0.1369,0.1159 0.24889,0.3131 0.24889,0.4382 0,0.2268 -2.36359,2.4817 -3.86545,3.6877 -1.23773,0.9939 -2.79725,1.8897 -4.01776,2.3078 -1.3366,0.4578 -3.48352,0.5084 -4.94281,0.1164 -0.53138,-0.1427 -0.98339,-0.2419 -1.00443,-0.2204 -0.0746,0.076 1.48817,3.4929 2.14733,4.6954 0.36755,0.6705 1.19608,1.7575 1.84114,2.4156 1.41261,1.4411 2.44338,1.8965 4.98884,2.2039 l 1.73569,0.2096 -1.91139,0.9294 c -2.2792,1.1082 -2.95126,1.3053 -4.45908,1.3078 -1.40036,0 -2.52884,-0.3914 -3.68852,-1.2868 -0.48385,-0.3737 -0.8797,-0.6604 -0.87968,-0.6372 10e-6,0.023 0.12207,0.6873 0.27121,1.476 0.46461,2.4564 0.6164,4.04 0.61857,6.4528 0.005,4.7023 -1.06225,8.2767 -3.64679,12.2231 -0.92114,1.4065 -0.98005,1.4597 -1.40031,1.2643 -0.49881,-0.2318 -0.50302,-0.1748 0.18872,-2.5533 1.16222,-3.9963 1.3702,-8.1366 0.56727,-11.2925 -0.42787,-1.6818 -1.75106,-4.7501 -2.04842,-4.7501 -0.17198,0 -9.4266,13.4464 -9.64129,14.0082 -0.11537,0.3019 -3.72843,4.474 -5.35411,6.1825 -0.0134,0.014 -1.28923,0.1163 -2.8354,0.2273 -1.54619,0.1111 -3.2906,0.2486 -3.87646,0.3056 -1.06133,0.1032 -1.06495,0.1055 -0.98926,0.6316 0.10444,0.726 -0.40327,1.9939 -1.06114,2.6501 -0.89012,0.8878 -1.82314,1.1556 -3.60611,1.0349 -0.84496,-0.057 -1.69438,-0.1476 -1.88766,-0.201 -0.29457,-0.081 -0.44892,0.1128 -0.95415,1.1995 -0.77192,1.6604 -2.15492,3.0996 -3.70195,3.8526 -1.15443,0.5619 -4.18256,1.2976 -5.34063,1.2976 l -0.62932,0 2.15677,-2.1957 z m -48.10424,-206.395 c 1.30407,-0.6344 1.47791,-2.3134 0.45827,-4.4263 -0.43959,-0.911 -0.6594,-1.1776 -1.03645,-1.257 -3.346,-0.7048 -13.20312,-2.3297 -13.3324,-2.1978 -0.0349,0.036 0.47087,1.118 1.12407,2.4053 1.31092,2.5833 1.31212,2.5845 4.00116,3.9603 3.53503,1.8085 6.96634,2.4004 8.78535,1.5155 z m -15.6075,-6.2363 c 0.30777,-0.8872 0.56475,-1.6737 0.57102,-1.7476 0.006,-0.074 -0.98226,-0.1345 -2.19674,-0.1345 l -2.20818,0 0.93434,1.7982 0.93436,1.7981 0.7028,-0.051 0.7028,-0.051 0.55961,-1.6132 z m 21.66671,-20.8822 c -2.17432,-1.4786 -3.99434,-2.688497 -4.0445,-2.688597 -0.0502,-1e-4 -0.4348,0.764097 -0.85479,1.698097 -0.77183,1.7166 -0.82492,2.1626 -0.3355,2.8187 0.18994,0.2546 0.84781,0.3463 4.00487,0.5583 2.07767,0.1395 4.09386,0.2645 4.4804,0.2778 0.66264,0.023 0.47695,-0.1295 -3.25048,-2.6643 z"
       id="path13394-1"
       inkscape:connector-curvature="0" />
    <path
       style="fill:#d40000;fill-opacity:1"
       d="m 11.679655,737.40488 c 2.26226,-2.3032 2.90326,-3.2663 3.28327,-4.9332 0.18446,-0.8093 0.17137,-1.111 -0.0912,-2.1007 -0.20114,-0.758 -0.26908,-1.435 -0.19751,-1.9677 l 0.10911,-0.8121 -0.5747,0 c -0.86936,0 -2.46018,-0.4703 -3.63163,-1.0735 -1.78456,-0.9191 -3.41064,-0.6447 -4.39488,0.7414 -0.26663,0.3755 -0.70716,1.3903 -0.97898,2.255 l -0.49419,1.5724 -0.41079,-1.3443 c -1.16747,-3.8208 -0.42296,-6.0008 2.55088,-7.469 0.91327,-0.4509 1.75799,-1.0619 2.60241,-1.8823 l 1.25023,-1.2147 -0.44954,-0.3004 c -0.5996,-0.4008 -1.39911,-1.2924 -1.72753,-1.9266 -0.26582,-0.5133 -0.26951,-0.5142 -1.51055,-0.3895 -2.32486,0.2337 -4.07644,1.2546 -5.165,3.0102 -0.42667,0.6881 -0.6571,0.7922 -1.10879,0.5007 -0.36757,-0.2371 0.0204,-2.4358 0.68702,-3.8938 1.17181,-2.5627 3.15652,-3.8468 6.60453,-4.273 0.82945,-0.1026 0.91079,-0.1594 1.29989,-0.9076 0.52956,-1.0184 1.56364,-1.9708 2.73248,-2.5167 2.74887,-1.2838 6.92813,-0.9209 11.07171,0.9615 2.26295,1.0281 4.17123,1.4793 6.78846,1.6051 2.60982,0.1254 2.35488,0.392 2.51916,-2.6343 0.46205,-8.5112 2.17553,-15.5183 4.71616,-19.2862 l 0.61145,-0.9068 -0.41683,-2.4059 c -0.22926,-1.3233 -0.41884,-2.461 -0.42132,-2.5283 -0.003,-0.067 -0.67747,0.3087 -1.5,0.8356 -4.59613,2.9437 -9.47614,3.643 -15.07206,2.1597 -0.92945,-0.2463 -1.7753,-0.4693 -1.87967,-0.4954 -0.10438,-0.026 -0.54363,1.0247 -0.97604,2.335 -1.87709,5.688 -4.43948,9.3999 -8.18162,11.8521 -0.90075,0.5903 -1.65709,1.0534 -1.68079,1.0293 -0.0237,-0.024 0.58851,-2.4602 1.36046,-5.4133 2.37912,-9.1017 2.79123,-11.3651 2.21545,-12.1684 -0.40687,-0.5676 -0.89917,-0.1696 -2.13796,1.7286 -4.41342,6.7624 -9.04367,11.9473 -13.24498,14.8315 -1.46109,1.0031 -3.95449,2.192 -5.7894,2.7605 l -1.46316,0.4533 0.30442,-0.474 c 0.16742,-0.2606 0.95959,-1.3772 1.76035,-2.4813 4.89246,-6.7454 7.82376,-12.8475 7.82376,-16.287 0,-2.5787 -1.17215,-3.0788 -3.36583,-1.436 -1.60986,1.2056 -3.23477,3.7906 -4.56065,7.2553 -0.32067,0.838 -0.63739,1.5874 -0.70381,1.6654 -0.0664,0.078 -0.47961,-0.8094 -0.91815,-1.9717 -1.69668,-4.4972 -2.15118,-6.5576 -2.12684,-9.6418 0.0317,-4.0235 1.20678,-6.9998 4.17179,-10.5668 1.87554,-2.2562 3.26467,-4.994 3.26467,-6.4341 0,-1.2907 -0.65359,-1.711 -2.01225,-1.2938 -1.61675,0.4964 -3.42832,2.3148 -4.2932,4.3094 -0.31813,0.7337 -0.36372,0.7645 -1.27301,0.86 -0.51871,0.054 -2.72206,0.019 -4.89638,-0.078 -6.77294,-0.3032 -9.48191,0.1451 -11.36504,1.8807 -2.61141,2.4069 -2.6218,8.5962 -0.0252,14.9676 1.76786,4.3378 1.96612,5.1243 1.97291,7.8267 0.005,2.1134 -0.038,2.443 -0.46469,3.5425 -1.63211,4.2054 -6.00796,8.5273 -14.18921,14.0143 -1.49786,1.0046 -2.81753,1.8832 -2.9326,1.9526 -0.28632,0.1726 -0.15127,-0.6615 0.58274,-3.5984 0.32606,-1.3047 0.59254,-2.7566 0.59218,-3.2265 -0.002,-1.8909 -1.31118,-2.8343 -4.66664,-3.3614 -0.65874,-0.1035 -0.73134,-0.073 -0.93776,0.3909 -0.12304,0.2767 -0.97464,1.7365 -1.89247,3.2441 -1.84203,3.0258 -2.9215,5.2296 -3.22592,6.5862 -0.12058,0.5373 -0.15414,1.4412 -0.0847,2.2817 l 0.11495,1.392 -1.15936,-0.8269 c -2.75666,-1.9659 -3.32761,-4.062 -1.86122,-6.8333 l 0.49362,-0.9328 -0.98903,-0.2301 c -0.56007,-0.1303 -2.09403,-0.2302 -3.53671,-0.2303 -2.98659,-10e-5 -4.08089,0.2387 -6.31137,1.3778 -3.20134,1.6349 -5.7118,5.0098 -7.4696,10.0417 l -0.4842,1.3858 -0.6262,-0.7585 c -2.0006,-2.4228 -2.7702,-4.4401 -2.6363,-6.9103 0.046,-0.8557 0.1467,-1.7058 0.2229,-1.8894 0.1342,-0.3231 -0.055,-0.3295 -5.9934,-0.2031 -3.3725,0.072 -6.212,0.1957 -6.3098,0.2754 -0.098,0.08 -1.6792,0.3543 -3.5141,0.6101 -4.7018,0.6554 -4.2126,0.4564 -4.2256,1.7187 -0.01,0.885 -0.1008,1.2008 -0.5287,1.822 -0.793605,1.1519 -1.918705,1.6622 -3.668005,1.6638 -0.7781,0 -1.6261,-0.059 -1.8844,-0.132 -0.4289,-0.1218 -0.4876,-0.075 -0.6784,0.5388 -0.6758,2.1746 -2.349,4.1591 -4.2863,5.084 -1.0775,0.5144 -5.54702,1.8386 -5.54702,1.6435 0,-0.052 0.7053,-0.8477 1.5675,-1.7677 3.21862,-3.4347 4.15372,-5.6404 3.37022,-7.95 -0.2032,-0.599 -0.3695,-1.4818 -0.3695,-1.9616 l 0,-0.8725 -1.36172,-0.084 c -0.9533,-0.059 -1.7042,-0.2324 -2.5037,-0.5795 -0.6282,-0.2728 -1.3453,-0.5348 -1.5936,-0.5824 -0.78,-0.1493 -1.9528,0.294 -2.6446,0.9998 -0.6259,0.6385 -0.8701,1.2515 -1.5078,3.7846 l -0.1579,0.6274 -0.5878,-1.6132 c -1.3289,-3.6479 -0.5241,-5.9957 2.6084,-7.6088 0.5757,-0.2965 1.1609,-0.7054 1.3004,-0.9086 0.1396,-0.2033 0.6192,-0.7634 1.0659,-1.2447 l 0.8122,-0.8751 -0.6066,-0.3824 c -0.3336,-0.2104 -0.9507,-0.79 -1.3713,-1.2881 l -0.7648,-0.9056 -1.1795,0.1874 c -2.2407,0.3558 -4.0154,1.555 -4.8753,3.2943 -0.2091,0.4231 -0.3991,0.7917 -0.4221,0.8191 -0.023,0.027 -0.2514,-0.031 -0.5075,-0.1308 -0.4483,-0.1739 -0.4617,-0.2189 -0.3605,-1.2149 0.382,-3.7578 1.9519,-5.9405 5.0565,-7.0302 0.5082,-0.1783 1.3253,-0.3806 1.8159,-0.4494 0.8364,-0.1174 0.9123,-0.1717 1.2177,-0.873 0.4472,-1.0269 1.7352,-2.3989 2.7393,-2.918 1.8619,-0.9625 4.42712,-1.2005 7.48572,-0.6944 0.9002,0.1489 2.0862,0.4629 2.6355,0.6977 3.1029,1.3265 6.603205,1.8014 9.959605,1.3515 1.3168,-0.1765 2.1435,-0.092 13.0738,1.3297 l 11.66808,1.518 1.5974,-1.0873 c 4.00157,-2.7238 8.31954,-6.7363 11.62618,-10.8036 1.52945,-1.8814 4.30568,-5.6522 5.25119,-7.1325 l 0.3196,-0.5004 -0.94743,0.3903 c -3.88719,1.6014 -7.91533,2.3133 -13.08951,2.3133 -2.34726,0 -2.51234,-0.023 -2.61637,-0.3569 -0.15511,-0.4986 -0.0408,-0.6212 0.9162,-0.9836 3.07094,-1.1629 6.98154,-3.1696 9.4391,-4.8436 1.93546,-1.3184 5.19384,-4.0722 5.19384,-4.3896 0,-0.2024 -1.6655,-0.7394 -3.68975,-1.1896 -1.13876,-0.2533 -2.18203,-0.3288 -4.39254,-0.3177 -3.00214,0.015 -3.14703,0.04 -7.37874,1.2642 -0.35032,0.1013 -0.15356,-0.2131 0.97849,-1.5636 1.84501,-2.2011 3.51739,-3.6209 5.25819,-4.4641 1.62769,-0.7884 2.55108,-1.0396 4.41153,-1.2001 1.33901,-0.1154 1.33986,-0.1158 0.92416,-0.4417 -0.85131,-0.6674 -4.49901,-2.8421 -5.6871,-3.3907 -3.17408,-1.4655 -5.47797,-2.0391 -8.17015,-2.034 -3.05773,0.01 -5.38907,0.8154 -7.81877,2.7155 -0.5798,0.4534 -1.1629,0.9092 -1.2959,1.0128 -0.4513,0.3517 -0.168,-2.1541 0.3805,-3.3657 1.1949,-2.6393 5.0512,-5.0704 9.43699,-5.9493 6.18881,-1.2402 12.06954,0.4807 14.96702,4.3799 l 0.44897,0.6042 0.1262,-1.0523 c 0.56491,-4.7098 2.66038,-9.0121 5.42747,-11.1434 2.60275,-2.0047 5.4198,-2.8866 9.69031,-3.0335 4.83599,-0.1663 7.49404,0.2068 21.96212,3.0828 0.67609,0.1344 1.25168,0.2215 1.27907,0.1935 0.0273,-0.028 -0.52577,-0.5214 -1.22928,-1.0966 -2.87126,-2.3476 -5.14704,-4.4545 -8.49745,-7.8669 -4.6054,-4.6907 -7.96223,-8.8231 -10.66077,-13.124 -0.56708,-0.9038 -1.1644,-1.6961 -1.32739,-1.7606 -0.16301,-0.065 -0.82631,-0.1633 -1.474,-0.2194 -1.99311,-0.1725 -2.51936,0.2597 -3.30634,2.7159 l -0.3985,1.2436 -0.40621,-0.5198 c -0.22344,-0.2858 -0.62581,-0.9261 -0.89417,-1.4228 -0.41788,-0.7735 -0.48835,-1.1091 -0.49087,-2.3371 -0.002,-0.7887 0.0604,-1.6664 0.13794,-1.9504 l 0.14091,-0.5165 -0.58016,0.3736 c -6.25822,4.029 -9.16631,7.841 -9.98782,13.092 l -0.20642,1.3194 -0.774,-1.3194 c -1.1835,-2.0175 -1.56147,-3.4326 -1.54929,-5.8006 0.005,-1.0844 0.11366,-2.4557 0.24016,-3.0472 0.48754,-2.2793 1.94812,-6.1541 4.04511,-10.7315 0.40061,-0.8744 0.69797,-1.6208 0.66084,-1.6587 -0.0372,-0.038 -1.36521,0.5652 -2.95128,1.3403 -5.70756,2.7892 -10.52404,4.4773 -14.17254,4.9674 -0.50734,0.068 -0.92245,0.1436 -0.92245,0.1677 0,0.024 0.16542,0.4252 0.36758,0.8915 0.43431,1.0016 0.36762,1.6054 -0.35755,3.237 -0.26811,0.6032 -0.58861,1.527 -0.71228,2.0528 l -0.22481,0.956 -0.27203,-0.5216 c -0.14961,-0.2869 -0.68641,-1.4364 -1.1929,-2.5545 -0.50649,-1.1181 -1.12818,-2.3525 -1.38158,-2.7431 -0.4806,-0.741 -2.0065,-1.866 -2.2139,-1.6324 -0.066,0.074 -0.2191,0.4574 -0.3406,0.8517 -0.4092,1.3282 -1.0867,2.4841 -2.0759,3.5422 -0.8082,0.8644 -2.3897,2.1569 -3.2945,2.6924 -0.1334,0.079 -0.1857,-0.8587 -0.1757,-3.1507 0.014,-3.2316 0.01,-3.2731 -0.4822,-4.2945 -0.6987,-1.4516 -1.7767,-2.2065 -3.07,-2.1498 -1.4959,0.065 -16.403305,1.2879 -17.078505,1.4005 -1.7813,0.2968 -3.8598,1.8966 -4.6763,3.5993 -0.4118,0.8587 -0.4547,1.1222 -0.3823,2.3525 0.095,1.6159 0.5053,2.5646 2.003,4.6307 l 0.9613,1.3261 -0.9295,-0.3675 c -1.9933,-0.7881 -4.4879,-2.1518 -5.4099,-2.9574 -1.26962,-1.1093 -2.35792,-2.6089 -2.83212,-3.9023 -0.3276,-0.8938 -0.4359,-1.0306 -0.752,-0.9504 -0.203,0.052 -0.6965,0.1469 -1.0966,0.2118 l -0.7274,0.118 0.092,0.6987 c 0.1995,1.5177 -1.0613,3.3212 -2.6243,3.7539 -0.4492,0.1243 -1.4152,0.1749 -2.3769,0.1245 l -1.6201,-0.085 -0.3053,0.8261 c -0.9588,2.5953 -2.71,4.3898 -5.108,5.2345 -0.9355,0.3295 -4.2604,1.238 -4.531,1.238 -0.065,0 0.5419,-0.7311 1.3496,-1.6247 2.504,-2.7701 3.3445,-4.1435 3.6847,-6.0206 0.1506,-0.8316 0.1231,-1.1356 -0.185,-2.0439 -0.1991,-0.5869 -0.362,-1.47 -0.362,-1.9626 l 0,-0.8955 -0.9224,0 c -1.0927,0 -2.3953,-0.3327 -3.4192,-0.8668 -1.4462,-0.7543 -3.3225,-0.3057 -4.1671,0.9963 -0.2474,0.3813 -0.6338,1.4564 -0.8588,2.3891 l -0.409,1.6958 -0.3694,-1.0008 c -0.7359,-1.9939 -0.9687,-3.0691 -0.8719,-4.0266 0.1784,-1.7629 1.2306,-3.169 3.1474,-4.2059 0.6083,-0.3291 1.2208,-0.7657 1.3613,-0.9703 0.1405,-0.2045 0.6256,-0.7709 1.0781,-1.2585 l 0.8227,-0.8867 -0.7686,-0.4973 c -0.4228,-0.2735 -0.987,-0.8265 -1.2538,-1.2289 l -0.4852,-0.7316 -1.0658,0.089 c -1.7279,0.1446 -3.0071,0.7332 -4.1276,1.8993 -0.5371,0.559 -1.0804,1.272 -1.2073,1.5846 -0.2294,0.565 -0.5847,0.7041 -1.0424,0.4082 -0.5402,-0.3492 0.2873,-4.0266 1.2218,-5.4295 0.5423,-0.8142 1.6919,-1.7963 2.6582,-2.271 0.8399,-0.4125 2.6339,-0.9224 3.2456,-0.9224 0.3032,0 0.5075,-0.2175 0.8478,-0.9027 1.2905,-2.598 3.5382,-3.7601 7.2884,-3.7682 1.7269,0 4.2028,0.3472 5.2127,0.7389 2.5821,1.0015 13.11642,1.5815 28.978525,1.5956 l 7.0452,0.01 1.4763,-1.1331 c 3.8925,-2.9875 7.1139,-4.9354 14.47835,-8.7551 3.18898,-1.654 5.71033,-3.0096 5.60298,-3.0125 -0.10736,0 -1.21427,0.1578 -2.45985,0.3569 -1.24554,0.1991 -3.45061,0.4095 -4.90015,0.4677 -2.23673,0.09 -2.88813,0.051 -4.30473,-0.2533 -2.7901,-0.6001 -4.1094,-1.2404 -7.7648,-3.7687 -2.0246,-1.4003 -7.1709,-4.0424 -9.603,-4.9301 -4.0644,-1.4835 -7.494505,-2.0947 -11.756805,-2.0947 -2.7621,0 -2.814,-0.01 -2.9148,-0.4002 -0.1398,-0.5455 -0.032,-0.6197 1.4736,-1.0123 2.8635,-0.7468 5.532,-0.8916 8.789705,-0.477 3.6469,0.4641 7.0433,1.3561 11.5805,3.0412 2.9941,1.112 4.2832,1.3578 7.1208,1.3578 4.2229,0 7.96279,-1.0529 11.54995,-3.2515 1.83381,-1.124 1.87304,-1.1684 1.16192,-1.3133 -0.32363,-0.066 -2.68363,-0.6337 -5.24449,-1.2617 -5.43128,-1.3319 -7.33628,-1.6078 -10.16128,-1.4721 -2.1968,0.1056 -3.3624,0.3652 -5.4276,1.2088 -0.7178,0.2933 -1.3386,0.5332 -1.3797,0.5332 -0.1897,0 -0.046,-2.5478 0.1982,-3.5025 0.5198,-2.0366 1.7049,-3.5227 3.6546,-4.5828 l 1.0715,-0.5827 -2.1919,-0.6056 c -1.6305,-0.4504 -2.597,-0.6133 -3.7733,-0.6358 -2.076,-0.04 -2.9835,0.2881 -5.3448,1.9309 -2.8148,1.9584 -4.047,2.522 -6.486105,2.9667 -1.5035,0.2741 -3.444,0.034 -5.2122,-0.6448 -1.0372,-0.3983 -4.03082,-2.0332 -3.9214,-2.1418 0.031,-0.031 0.8006,-0.1863 1.7106,-0.346 2.1861,-0.3839 3.5942,-1.087 5.1229,-2.5582 1.1833,-1.1388 2.6875,-3.2056 2.5265,-3.4715 -0.104,-0.1715 -8.2579,-4.8261 -8.4545,-4.8261 -0.082,0 -0.2476,0.1595 -0.3669,0.3543 -0.3753,0.613 -1.51452,1.0797 -2.63572,1.0797 -1.4435,0 -2.6798,-0.7657 -3.6704,-2.2731 -0.4004,-0.6094 -0.7572,-1.1974 -0.7929,-1.3066 -0.046,-0.1399 -0.2718,-0.1241 -0.7655,0.054 -2.2626,0.8144 -4.6832,0.7341 -6.6743,-0.2215 -0.9349,-0.4487 -4.9333,-3.2199 -4.7972,-3.3248 0.029,-0.023 1.2376,0.041 2.6851,0.1405 3.0762,0.2122 4.8449,0.022 6.29,-0.675 1.0399,-0.5019 1.3024,-0.737 2.0693,-1.8535 0.2898,-0.4219 0.8297,-0.9865 1.1999,-1.2547 l 0.673,-0.4878 -0.5601,-0.717 c -0.6376,-0.8163 -1.2337,-2.1735 -1.417,-3.2264 -0.1617,-0.9285 -0.8048,-1.7942 -1.6658,-2.2423 -1.1272,-0.5866 -1.8258,-0.483 -4.7084,0.6984 -0.5828,0.2389 -0.885,0.2978 -0.8035,0.1567 1.1835,-2.0501 2.4016,-3.4526 3.5157,-4.0478 1.2278,-0.656 3.1611,-0.5733 4.9311,0.2108 0.7988,0.3539 1.3857,0.4661 2.6908,0.5144 l 1.6691,0.062 0.01,-1.2609 c 0,-0.6936 0.1099,-1.4477 0.2319,-1.6759 0.1949,-0.3645 0.1652,-0.4905 -0.245,-1.0392 -1.3017,-1.741 -4.1398,-2.7411 -6.3172,-2.2261 -0.8092,0.1914 -0.7356,0.2224 -0.8816,-0.3712 -0.1016,-0.4131 -0.012,-0.5326 0.7889,-1.0572 3.3621,-2.201 6.6799,-2.0313 9.75142,0.4988 1.0087,0.8309 1.0845,0.8615 1.757,0.7089 1.3067,-0.2964 3.247,-0.072 4.3901,0.5083 2.4782,1.2575 5.197705,4.8857 5.977105,7.9741 0.662,2.6231 2.4853,5.7721 4.5604,7.8761 l 1.1491,1.1651 18.5805,5.5638 18.58048,5.5638 0.0457,-1.0826 c 0.0251,-0.5955 -0.0144,-1.8417 -0.088,-2.7694 l -0.13352,-1.6867 -8.75693,-2.618 -8.75691,-2.618 -5.58812,-5.9037 c -5.4567,-5.7649 -5.5815,-5.9128 -5.3029,-6.2896 l 0.2853,-0.3858 1.9363,0.9303 c 1.065,0.5117 4.7827,2.3029 8.26166,3.9805 l 6.32527,3.0502 7.24852,2.2051 7.24855,2.205 5.62162,-1.5819 c 3.09189,-0.87 5.62163,-1.6364 5.62163,-1.703 0,-0.241 -8.65196,-6.2985 -8.78686,-6.152 -0.0761,0.083 -0.63661,1.2595 -1.24541,2.6151 -0.60881,1.3555 -1.15665,2.4646 -1.21741,2.4646 -0.0607,0 -0.7948,-1.4721 -1.63121,-3.2712 l -1.52074,-3.2713 -2.77028,-0.2337 c -1.52365,-0.1285 -2.95856,-0.2739 -3.18868,-0.323 l -0.41842,-0.089 0.12818,-2.9931 c 0.0705,-1.6461 0.15737,-3.0416 0.19308,-3.1009 0.0357,-0.059 1.07382,-0.1651 2.30692,-0.235 1.23307,-0.07 2.27473,-0.1605 2.31479,-0.2014 0.14347,-0.1464 0.91331,-3.8948 0.81954,-3.9905 -0.18194,-0.1856 -3.46374,0.3526 -4.89524,0.8028 -5.32919,1.6761 -10.69416,2.5746 -13.88251,2.325 -3.829,-0.2998 -5.9898,-1.5308 -7.1094,-4.0504 -0.3831,-0.8621 -0.444,-1.2598 -0.4548,-2.9672 -0.015,-2.3853 0.33,-3.8764 1.767,-7.6388 1.5443,-4.0434 1.4886,-5.77 -0.2364,-7.319 -1.2217,-1.097 -3.3748,-1.7926 -6.4257,-2.0759 -1.3502,-0.1254 -1.3617,-0.1308 -1.3617,-0.6362 0,-0.5689 -0.02,-0.5603 3.0508,-1.2865 2.1263,-0.5028 7.0753,-0.5632 8.4771,-0.1035 1.8529,0.6076 2.9526,1.2686 4.10959,2.4698 1.98355,2.0596 2.88089,4.5178 3.17706,8.7032 0.0977,1.3802 0.25685,2.8725 0.35376,3.3161 0.61106,2.7978 4.29851,3.9641 9.9104,3.1346 2.06347,-0.305 6.3999,-0.3434 9.13649,-0.081 4.1512,0.3981 8.37761,1.5506 12.39814,3.3808 1.09403,0.498 2.00875,0.8855 2.0327,0.8611 0.024,-0.024 -0.76309,-1.8928 -1.74898,-4.152 l -1.79253,-4.1076 -1.22273,-0.3148 c -0.67253,-0.1731 -1.24817,-0.2888 -1.27926,-0.2572 -0.0312,0.032 -0.2505,1.1365 -0.4876,2.4549 -0.23711,1.3185 -0.45904,2.5183 -0.49316,2.6662 -0.0341,0.1478 -0.67726,-1.0218 -1.42914,-2.5991 -0.7519,-1.5774 -1.38281,-2.8878 -1.40203,-2.912 -0.0192,-0.024 -0.38864,-0.093 -0.82095,-0.154 l -0.786,-0.1099 -0.58652,2.5591 c -0.46059,2.0096 -0.62836,2.5004 -0.78143,2.2859 -0.10719,-0.1502 -0.78789,-1.3733 -1.51266,-2.718 -0.72478,-1.3448 -1.43637,-2.4813 -1.58134,-2.5258 -0.14494,-0.044 -0.54885,-0.1322 -0.89758,-0.1952 -0.62553,-0.1128 -0.63543,-0.1051 -0.73729,0.573 -0.0568,0.3781 -0.15787,1.4739 -0.22463,2.4351 -0.0668,0.9612 -0.16982,1.7459 -0.22907,1.7437 -0.0592,0 -0.77977,-1.1063 -1.60117,-2.4537 -0.82141,-1.3473 -1.94951,-2.9583 -2.5069,-3.5799 -3.89669,-4.3457 -3.60438,-7.0944 0.87792,-8.2552 1.82405,-0.4724 8.63118,-0.4168 12.55985,0.1026 1.61502,0.2134 3.15681,0.3883 3.42618,0.3884 0.48433,0 0.48911,-0.011 0.42913,-0.994 -0.0755,-1.2368 0.55088,-2.6734 1.48119,-3.3973 1.22267,-0.9514 2.38069,-1.2418 4.90473,-1.23 3.23382,0.015 6.05701,0.7449 10.40915,2.6914 1.65734,0.7412 2.04223,0.8458 3.12674,0.8498 1.05875,0 1.42547,-0.087 2.54768,-0.6316 2.86989,-1.3929 5.80452,-4.4522 9.69284,-10.1047 1.02389,-1.4885 1.58444,-2.151 1.81992,-2.151 0.26158,0 0.47056,0.333 0.90348,1.4394 1.67414,4.2786 1.83104,8.7463 0.49461,14.0849 -0.0996,0.3977 -0.0297,0.5201 0.46822,0.8198 1.59869,0.9623 3.93668,1.3031 6.62927,0.9663 0.9099,-0.1138 3.14351,-0.5967 4.96359,-1.0732 1.8201,-0.4764 3.30926,-0.823 3.30926,-0.77 0,0.2797 -3.73317,5.1112 -4.80884,6.2237 -1.48117,1.5318 -3.52811,2.9419 -4.91804,3.3879 l -0.99697,0.3199 0.51952,0.6037 c 1.5913,1.8489 3.02626,4.6377 3.45604,6.7165 0.45785,2.2146 0.006,4.5511 -1.27486,6.594 -0.56238,0.8969 -0.61679,1.0932 -0.55288,1.9947 0.0905,1.2761 0.65212,2.4532 1.76136,3.6914 1.53359,1.7118 4.97099,3.7918 8.74738,5.293 1.56811,0.6234 1.66917,0.6946 1.66917,1.1766 0,0.4714 -0.0571,0.5167 -0.7028,0.5587 -0.38656,0.025 -1.88881,0.1804 -3.33834,0.3451 -6.13723,0.6971 -9.26432,0.2351 -12.23358,-1.8076 l -0.94407,-0.6495 -0.0516,1.1477 c -0.0288,0.6434 0.0963,1.8861 0.28496,2.828 1.03364,5.1619 4.1732,9.6445 10.22478,14.5987 l 2.16821,1.775 -2.27206,0.056 c -2.58213,0.064 -5.57302,-0.1998 -6.92829,-0.6104 -1.57244,-0.4764 -3.37864,-1.4628 -4.55648,-2.4883 -0.62173,-0.5414 -1.15981,-0.9543 -1.19576,-0.9176 -0.18465,0.1883 -0.0273,2.9394 0.22851,3.9987 0.41195,1.7051 1.61546,3.9971 3.03863,5.7871 0.66628,0.838 2.40424,2.7194 3.86211,4.181 2.37892,2.3849 2.62904,2.6927 2.43948,3.0023 -0.11616,0.1898 -0.31385,0.345 -0.43936,0.345 -0.37528,0 -5.93308,-1.7732 -7.63743,-2.4367 -3.22501,-1.2556 -5.6047,-2.7926 -7.55557,-4.8802 l -1.01029,-1.081 0,1.0697 c 0,2.5555 0.9972,5.6372 2.66666,8.2411 0.88611,1.382 1.96846,2.5839 5.99961,6.6618 2.70513,2.7366 4.87394,5.021 4.81958,5.0765 -0.0543,0.056 -1.43077,-0.3152 -3.05869,-0.8237 -7.7933,-2.4342 -12.63933,-4.7736 -16.10906,-7.7764 -0.64375,-0.5572 -1.17046,-0.9336 -1.17046,-0.8364 0,0.3614 1.85368,4.5156 3.52449,7.8986 4.76273,9.6435 9.92627,17.3705 23.57747,35.2825 4.52143,5.9327 7.25909,9.6205 10.43306,14.0539 1.58232,2.2103 1.61668,2.2438 2.54766,2.4877 0.60356,0.158 1.89374,0.2449 3.57927,0.2409 2.20193,0 2.86624,-0.073 4.03794,-0.4141 3.18013,-0.9252 5.89706,-2.5828 8.62209,-5.2604 2.58684,-2.5419 4.17729,-4.7578 5.83385,-8.1282 1.88865,-3.8427 2.85619,-7.7087 2.98769,-11.9382 0.15647,-5.0338 -0.73209,-8.5254 -3.1041,-12.1973 -1.49804,-2.319 -3.31803,-3.9416 -7.30556,-6.5133 -5.18268,-3.3425 -10.70055,-7.9726 -14.41357,-12.0946 -8.02134,-8.9049 -10.8907,-17.9555 -7.82384,-24.6783 2.03932,-4.4702 6.28673,-7.7396 12.79888,-9.8516 1.42089,-0.4609 2.60703,-0.8561 2.63587,-0.8782 0.0288,-0.022 0.23772,-0.877 0.46422,-1.8996 1.5114,-6.8237 5.19073,-9.9364 12.48532,-10.5625 1.15962,-0.1 2.66188,-0.1308 3.33834,-0.07 1.57685,0.1429 5.58931,-0.1858 7.68463,-0.6294 1.99252,-0.4219 3.73474,-0.9312 8.36625,-2.4454 1.96683,-0.643 3.59674,-1.1438 3.62201,-1.1129 0.0254,0.031 0.13207,0.2254 0.23733,0.4323 0.17549,0.3448 -0.0351,0.5531 -2.53608,2.5094 -3.52143,2.7545 -5.88197,4.3624 -8.03847,5.4753 -1.71778,0.8865 -4.56667,1.9459 -5.23289,1.9459 -0.64967,0 -0.16718,0.2974 0.85277,0.5257 3.58763,0.8028 8.13653,2.824 10.41835,4.6291 0.72477,0.5734 1.67357,1.5235 2.10843,2.1113 0.43485,0.5879 1.51384,1.8033 2.39776,2.7008 1.35228,1.3732 1.86764,1.7611 3.25047,2.4467 2.04849,1.0158 2.95559,1.2365 5.03404,1.225 2.86119,-0.016 5.26143,-0.7719 11.53882,-3.6349 3.25972,-1.4866 3.52492,-1.5777 3.73603,-1.2832 0.32925,0.4593 0.23635,0.5857 -1.01777,1.3845 -0.62244,0.3964 -3.62229,2.3306 -6.66634,4.2981 -11.34943,7.3358 -15.24653,9.3412 -20.99638,10.8042 -2.12918,0.5418 -6.14261,0.7629 -8.11831,0.4472 -5.7337,-0.916 -11.13385,-4.7406 -15.72567,-11.1377 l -1.24541,-1.735 -1.29154,0.4065 c -1.84198,0.5798 -4.70514,2.0267 -6.01753,3.0411 -2.74384,2.1207 -3.9404,5.1501 -3.28912,8.3274 1.06061,5.1743 6.54435,11.2053 15.85286,17.4347 5.45163,3.6483 11.16277,9.5083 13.2302,13.575 0.71384,1.4042 1.42132,3.5042 1.42132,4.2191 0,0.8762 1.49571,0.7747 3.10768,-0.2109 1.21252,-0.7413 2.06193,-1.5548 3.95119,-3.7842 1.40417,-1.6569 1.59448,-1.7943 2.06445,-1.4909 0.53445,0.3451 -0.63316,4.9179 -1.7986,7.0439 -0.36459,0.6651 -1.32223,1.8717 -2.2811,2.874 -2.38603,2.4943 -3.46306,4.7623 -3.46165,7.2896 0,1.2843 0.36518,2.1459 1.07047,2.531 0.93753,0.5119 3.58652,-0.5232 4.35634,-1.7022 0.67653,-1.0361 2.64523,-2.8035 3.64057,-3.2684 1.05122,-0.491 2.37673,-0.6978 3.31788,-0.5177 l 0.64604,0.1237 -0.118,0.93 c -0.72729,5.7337 -2.7578,9.6361 -6.11539,11.753 -0.70546,0.4448 -2.93715,1.2762 -3.42563,1.2762 -1.13228,0 -3.09428,1.2605 -3.64109,2.3393 -0.60629,1.1961 -0.15088,2.5609 1.19032,3.5671 0.67608,0.5073 0.83482,0.5465 2.21078,0.5465 2.59355,0 3.74765,0.6572 4.62654,2.6347 0.42088,0.947 0.5727,1.1295 0.93952,1.1295 0.77891,0 0.46904,0.2915 -1.09989,1.0348 -5.2057,2.4661 -8.91062,3.1876 -12.63509,2.4605 -0.75743,-0.1478 -1.41566,-0.2688 -1.46274,-0.2689 -0.047,0 0.91105,0.9964 2.1292,2.2141 3.72358,3.7223 4.52927,5.7791 4.27588,10.9157 -0.0669,1.3556 -0.172,2.462 -0.2336,2.4588 -0.0616,0 -1.45614,-1.8254 -3.09895,-4.0493 -1.64284,-2.224 -3.3032,-4.3675 -3.68975,-4.7634 -0.38653,-0.3959 -1.29101,-1.0097 -2.00998,-1.3641 -1.12218,-0.5531 -1.51999,-0.6536 -2.81122,-0.7102 -1.30576,-0.057 -1.60831,-0.011 -2.29473,0.3497 -1.09722,0.5769 -1.35954,1.1828 -0.96656,2.2326 0.17028,0.4549 0.49839,0.9198 0.76426,1.0828 3.14776,1.9309 4.38905,3.1088 5.34646,5.0735 0.5201,1.0672 0.56434,1.2932 0.5436,2.7783 -0.0179,1.2775 -0.1238,1.8985 -0.50512,2.9609 -0.50806,1.4153 -1.47384,3.486 -1.57605,3.379 -0.0331,-0.035 -0.21958,-0.7494 -0.41444,-1.5883 -0.94352,-4.0623 -2.22783,-5.7579 -4.56587,-6.0283 -0.4524,-0.052 -1.15749,-0.016 -1.56683,0.08 -0.89335,0.2101 -3.25847,-0.02 -4.50678,-0.439 -1.4942,-0.5012 -2.73841,-1.9109 -3.34875,-3.7941 -0.1697,-0.5236 -0.48971,-1.1669 -0.71115,-1.4295 -0.35721,-0.4237 -0.55252,-0.4852 -1.73356,-0.546 -1.34423,-0.069 -2.97149,0.2181 -4.74132,0.8373 l -0.85117,0.2978 -0.0253,9.052 c -0.0273,9.8214 0.0508,10.9005 0.9968,13.7531 0.7389,2.228 2.06863,3.7406 3.68118,4.1873 1.1151,0.309 3.48586,0.094 5.11573,-0.4632 1.97686,-0.6762 5.21184,-2.3546 6.29622,-3.2668 2.07512,-1.7455 4.12398,-2.5661 6.7219,-2.6923 2.1585,-0.1048 3.49367,0.1348 5.09536,0.9144 2.29929,1.1192 3.95701,2.9025 5.20646,5.6008 1.02528,2.2143 1.3962,3.999 1.50728,7.2527 0.10632,3.1143 -0.095,5.4157 -0.75131,8.5916 -0.66516,3.2183 -0.52969,4.4659 0.61451,5.6597 1.71779,1.7924 5.93743,1.4578 10.38469,-0.8233 1.13166,-0.5805 1.48029,-0.689 1.67744,-0.5221 0.1369,0.1159 0.24889,0.3131 0.24889,0.4382 0,0.2268 -2.36359,2.4817 -3.86545,3.6877 -1.23773,0.9939 -2.79725,1.8897 -4.01776,2.3078 -1.3366,0.4578 -3.48352,0.5084 -4.94281,0.1164 -0.53138,-0.1427 -0.98339,-0.2419 -1.00443,-0.2204 -0.0746,0.076 1.48817,3.4929 2.14733,4.6954 0.36755,0.6705 1.19608,1.7575 1.84114,2.4156 1.41261,1.4411 2.44338,1.8965 4.98884,2.2039 l 1.73569,0.2096 -1.91139,0.9294 c -2.2792,1.1082 -2.95126,1.3053 -4.45908,1.3078 -1.40036,0 -2.52884,-0.3914 -3.68852,-1.2868 -0.48385,-0.3737 -0.8797,-0.6604 -0.87968,-0.6372 1e-5,0.023 0.12207,0.6873 0.27121,1.476 0.46461,2.4564 0.6164,4.04 0.61857,6.4528 0.005,4.7023 -1.06225,8.2767 -3.64679,12.2231 -0.92114,1.4065 -0.98005,1.4597 -1.40031,1.2643 -0.49881,-0.2318 -0.50302,-0.1748 0.18872,-2.5533 1.16222,-3.9963 1.3702,-8.1366 0.56727,-11.2925 -0.42787,-1.6818 -1.75106,-4.7501 -2.04842,-4.7501 -0.17198,0 -9.4266,13.4464 -9.64129,14.0082 -0.11537,0.3019 -3.72843,4.474 -5.35411,6.1825 -0.0134,0.014 -1.28923,0.1163 -2.8354,0.2273 -1.54619,0.1111 -3.2906,0.2486 -3.87646,0.3056 -1.06133,0.1032 -1.06495,0.1055 -0.98926,0.6316 0.10444,0.726 -0.40327,1.9939 -1.06114,2.6501 -0.89012,0.8878 -1.82314,1.1556 -3.60611,1.0349 -0.84496,-0.057 -1.69438,-0.1476 -1.88766,-0.201 -0.29457,-0.081 -0.44892,0.1128 -0.95415,1.1995 -0.77192,1.6604 -2.15492,3.0996 -3.70195,3.8526 -1.15443,0.5619 -4.18256,1.2976 -5.34063,1.2976 l -0.62932,0 2.15677,-2.1957 z m -48.10424,-206.395 c 1.30407,-0.6344 1.47791,-2.3134 0.45827,-4.4263 -0.43959,-0.911 -0.6594,-1.1776 -1.03645,-1.257 -3.346,-0.7048 -13.20311,-2.3297 -13.33239,-2.1978 -0.0349,0.036 0.47087,1.118 1.12407,2.4053 1.31092,2.5833 1.31212,2.5845 4.00116,3.9603 3.53502,1.8085 6.96633,2.4004 8.78534,1.5155 z m -15.60749,-6.2363 c 0.30777,-0.8872 0.56474,-1.6737 0.57102,-1.7476 0.006,-0.074 -0.98226,-0.1345 -2.19675,-0.1345 l -2.20818,0 0.93434,1.7982 0.93436,1.7981 0.7028,-0.051 0.7028,-0.051 0.55961,-1.6132 z m 21.6667,-20.8822 c -2.17432,-1.4786 -3.99434,-2.6885 -4.0445,-2.6886 -0.0502,-1e-4 -0.4348,0.7641 -0.85479,1.6981 -0.77183,1.7166 -0.82493,2.1626 -0.3355,2.8187 0.18994,0.2546 0.84781,0.3463 4.00487,0.5583 2.07767,0.1395 4.09386,0.2645 4.4804,0.2778 0.66264,0.023 0.47695,-0.1295 -3.25048,-2.6643 z"
       id="path13394-83"
       inkscape:connector-curvature="0" />
    <path
       style="fill:#d40000;fill-opacity:1"
       d="m 493.12733,736.30632 c 2.26225,-2.3032 2.90326,-3.2663 3.28327,-4.9332 0.18445,-0.8093 0.17137,-1.111 -0.0912,-2.1007 -0.20114,-0.758 -0.26908,-1.435 -0.19751,-1.9677 l 0.10911,-0.8121 -0.5747,0 c -0.86936,0 -2.46018,-0.4703 -3.63163,-1.0735 -1.78456,-0.9191 -3.41064,-0.6447 -4.39488,0.7414 -0.26663,0.3755 -0.70716,1.3903 -0.97898,2.255 l -0.49419,1.5724 -0.41079,-1.3443 c -1.16747,-3.8208 -0.42296,-6.0008 2.55088,-7.469 0.91327,-0.4509 1.75799,-1.0619 2.60241,-1.8823 l 1.25023,-1.2147 -0.44954,-0.3004 c -0.5996,-0.4008 -1.39911,-1.2924 -1.72753,-1.9266 -0.26582,-0.5133 -0.26951,-0.5142 -1.51055,-0.3895 -2.32486,0.2337 -4.07644,1.2546 -5.165,3.0102 -0.42667,0.6881 -0.6571,0.7922 -1.10879,0.5007 -0.36757,-0.2371 0.0204,-2.4358 0.68702,-3.8938 1.17181,-2.5627 3.15652,-3.8468 6.60453,-4.273 0.82945,-0.1026 0.91079,-0.1594 1.29989,-0.9076 0.52956,-1.0184 1.56364,-1.9708 2.73248,-2.5167 2.74887,-1.2838 6.92813,-0.9209 11.07171,0.9615 2.26295,1.0281 4.17123,1.4793 6.78846,1.6051 2.60982,0.1254 2.35488,0.392 2.51916,-2.6343 0.46205,-8.5112 2.17553,-15.5183 4.71616,-19.2862 l 0.61145,-0.9068 -0.41683,-2.4059 c -0.22926,-1.3233 -0.41884,-2.461 -0.42132,-2.5283 -0.003,-0.067 -0.67747,0.3087 -1.5,0.8356 -4.59613,2.9437 -9.47614,3.643 -15.07206,2.1597 -0.92945,-0.2463 -1.7753,-0.4693 -1.87967,-0.4954 -0.10438,-0.026 -0.54363,1.0247 -0.97604,2.335 -1.87709,5.688 -4.43948,9.3999 -8.18162,11.8521 -0.90075,0.5903 -1.65709,1.0534 -1.68079,1.0293 -0.0237,-0.024 0.58851,-2.4602 1.36046,-5.4133 2.37912,-9.1017 2.79123,-11.3651 2.21545,-12.1684 -0.40687,-0.5676 -0.89917,-0.1696 -2.13796,1.7286 -4.41342,6.7624 -9.04367,11.9473 -13.24498,14.8315 -1.46109,1.0031 -3.95449,2.192 -5.7894,2.7605 l -1.46316,0.4533 0.30442,-0.474 c 0.16742,-0.2606 0.95959,-1.3772 1.76035,-2.4813 4.89246,-6.7454 7.82376,-12.8475 7.82376,-16.287 0,-2.5787 -1.17215,-3.0788 -3.36583,-1.436 -1.60986,1.2056 -3.23477,3.7906 -4.56065,7.2553 -0.32067,0.838 -0.63739,1.5874 -0.70381,1.6654 -0.0664,0.078 -0.47961,-0.8094 -0.91815,-1.9717 -1.69668,-4.4972 -2.15118,-6.5576 -2.12684,-9.6418 0.0317,-4.0235 1.20678,-6.9998 4.17179,-10.5668 1.87554,-2.2562 3.26467,-4.994 3.26467,-6.4341 0,-1.2907 -0.65359,-1.711 -2.01225,-1.2938 -1.61675,0.4964 -3.42832,2.3148 -4.2932,4.3094 -0.31813,0.7337 -0.36372,0.7645 -1.27301,0.86 -0.51871,0.054 -2.72206,0.019 -4.89638,-0.078 -6.77294,-0.3032 -9.48191,0.1451 -11.36504,1.8807 -2.61141,2.4069 -2.6218,8.5962 -0.0252,14.9676 1.76786,4.3378 1.96612,5.1243 1.97291,7.8267 0.005,2.1134 -0.038,2.443 -0.46469,3.5425 -1.63211,4.2054 -6.00796,8.5273 -14.18921,14.0143 -1.49786,1.0046 -2.81754,1.8832 -2.93261,1.9526 -0.28632,0.1726 -0.15127,-0.6615 0.58274,-3.5984 0.32607,-1.3047 0.59255,-2.7566 0.59219,-3.2265 -0.002,-1.8909 -1.31119,-2.8343 -4.66665,-3.3614 -0.65874,-0.1035 -0.73134,-0.073 -0.93776,0.3909 -0.12304,0.2767 -0.97464,1.7365 -1.89247,3.2441 -1.84203,3.0258 -2.9215,5.2296 -3.22592,6.5862 -0.12058,0.5373 -0.15414,1.4412 -0.0847,2.2817 l 0.11495,1.392 -1.15936,-0.8269 c -2.75666,-1.9659 -3.32761,-4.062 -1.86122,-6.8333 l 0.49362,-0.9328 -0.98903,-0.2301 c -0.56007,-0.1303 -2.09403,-0.2302 -3.53671,-0.2303 -2.98659,-1e-4 -4.08089,0.2387 -6.31137,1.3778 -3.20134,1.6349 -5.71178,5.0098 -7.46964,10.0417 l -0.48411,1.3858 -0.62626,-0.7585 c -2.00057,-2.4228 -2.77017,-4.4401 -2.63628,-6.9103 0.0464,-0.8557 0.14667,-1.7058 0.2229,-1.8894 0.1342,-0.3231 -0.0551,-0.3295 -5.99338,-0.2031 -3.37256,0.072 -6.21201,0.1957 -6.30985,0.2754 -0.0979,0.08 -1.67918,0.3543 -3.51405,0.6101 -4.70186,0.6554 -4.21267,0.4564 -4.22565,1.7187 -0.009,0.885 -0.10074,1.2008 -0.52872,1.822 -0.79359,1.1519 -1.9187,1.6622 -3.66795,1.6638 -0.77812,0 -1.62609,-0.059 -1.88436,-0.132 -0.42895,-0.1218 -0.48764,-0.075 -0.67845,0.5388 -0.67582,2.1746 -2.34895,4.1591 -4.28632,5.084 -1.07745,0.5144 -5.54702,1.8386 -5.54702,1.6435 0,-0.052 0.70538,-0.8477 1.56752,-1.7677 3.21865,-3.4347 4.15368,-5.6404 3.37018,-7.95 -0.2032,-0.599 -0.36946,-1.4818 -0.36946,-1.9616 l 0,-0.8725 -1.36168,-0.084 c -0.95328,-0.059 -1.70425,-0.2324 -2.50375,-0.5795 -0.62814,-0.2728 -1.34525,-0.5348 -1.59359,-0.5824 -0.77993,-0.1493 -1.95273,0.294 -2.64453,0.9998 -0.62594,0.6385 -0.87014,1.2515 -1.50784,3.7846 l -0.15795,0.6274 -0.58772,-1.6132 c -1.32896,-3.6479 -0.52413,-5.9957 2.60832,-7.6088 0.5757,-0.2965 1.1609,-0.7054 1.30048,-0.9086 0.13956,-0.2033 0.6192,-0.7634 1.0659,-1.2447 l 0.81214,-0.8751 -0.60654,-0.3824 c -0.3336,-0.2104 -0.9507,-0.79 -1.37133,-1.2881 l -0.76481,-0.9056 -1.17945,0.1874 c -2.24075,0.3558 -4.01546,1.555 -4.8753,3.2943 -0.20916,0.4231 -0.39914,0.7917 -0.42218,0.8191 -0.0231,0.027 -0.25139,-0.031 -0.50745,-0.1308 -0.44836,-0.1739 -0.4617,-0.2189 -0.36048,-1.2149 0.38193,-3.7578 1.95184,-5.9405 5.05649,-7.0302 0.50813,-0.1783 1.32527,-0.3806 1.81585,-0.4494 0.83647,-0.1174 0.91228,-0.1717 1.2177,-0.873 0.44725,-1.0269 1.73523,-2.3989 2.73936,-2.918 1.86189,-0.9625 4.42709,-1.2005 7.48565,-0.6944 0.90019,0.1489 2.08618,0.4629 2.63553,0.6977 3.1029,1.3265 6.60314,1.8014 9.95962,1.3515 1.31673,-0.1765 2.1435,-0.092 13.07372,1.3297 l 11.66812,1.518 1.5974,-1.0873 c 4.00157,-2.7238 8.31954,-6.7363 11.62618,-10.8036 1.52945,-1.8814 4.30568,-5.6522 5.25119,-7.1325 l 0.3196,-0.5004 -0.94743,0.3903 c -3.88719,1.6014 -7.91533,2.3133 -13.08951,2.3133 -2.34726,0 -2.51234,-0.023 -2.61637,-0.3569 -0.15511,-0.4986 -0.0408,-0.6212 0.9162,-0.9836 3.07094,-1.1629 6.98154,-3.1696 9.4391,-4.8436 1.93546,-1.3184 5.19384,-4.0722 5.19384,-4.3896 0,-0.2024 -1.6655,-0.7394 -3.68975,-1.1896 -1.13876,-0.2533 -2.18203,-0.3288 -4.39254,-0.3177 -3.00214,0.015 -3.14703,0.04 -7.37874,1.2642 -0.35032,0.1013 -0.15356,-0.2131 0.97849,-1.5636 1.84501,-2.2011 3.51739,-3.6209 5.25819,-4.4641 1.62769,-0.7884 2.55108,-1.0396 4.41153,-1.2001 1.33901,-0.1154 1.33986,-0.1158 0.92416,-0.4417 -0.85131,-0.6674 -4.49901,-2.8421 -5.6871,-3.3907 -3.17408,-1.4655 -5.47797,-2.0391 -8.17015,-2.034 -3.05773,0.01 -5.38905,0.8154 -7.81874,2.7155 -0.57981,0.4534 -1.16297,0.9092 -1.29591,1.0128 -0.45134,0.3517 -0.16805,-2.1541 0.38048,-3.3657 1.19495,-2.6393 5.05123,-5.0704 9.43699,-5.9493 6.18881,-1.2402 12.06954,0.4807 14.96702,4.3799 l 0.44897,0.6042 0.1262,-1.0523 c 0.56491,-4.7098 2.66038,-9.0121 5.42747,-11.1434 2.60275,-2.0047 5.41981,-2.8866 9.69032,-3.0335 4.83599,-0.1663 7.49404,0.2068 21.96212,3.0828 0.67609,0.1344 1.25168,0.2215 1.27907,0.1935 0.0273,-0.028 -0.52577,-0.5214 -1.22928,-1.0966 -2.87126,-2.3476 -5.14704,-4.4545 -8.49745,-7.8669 -4.6054,-4.6907 -7.96223,-8.8231 -10.66077,-13.124 -0.56708,-0.9038 -1.1644,-1.6961 -1.32739,-1.7606 -0.16301,-0.065 -0.82631,-0.1633 -1.474,-0.2194 -1.99311,-0.1725 -2.51936,0.2597 -3.30634,2.7159 l -0.3985,1.2436 -0.40621,-0.5198 c -0.22344,-0.2858 -0.62581,-0.9261 -0.89417,-1.4228 -0.41788,-0.7735 -0.48835,-1.1091 -0.49087,-2.3371 -0.002,-0.7887 0.0604,-1.6664 0.13794,-1.9504 l 0.14091,-0.5165 -0.58016,0.3736 c -6.25823,4.029 -9.16632,7.841 -9.98783,13.092 l -0.20642,1.3194 -0.774,-1.3194 c -1.1835,-2.0175 -1.56147,-3.4326 -1.54929,-5.8006 0.005,-1.0844 0.11366,-2.4557 0.24016,-3.0472 0.48754,-2.2793 1.94812,-6.1541 4.04511,-10.7315 0.40061,-0.8744 0.69797,-1.6208 0.66084,-1.6587 -0.0372,-0.038 -1.36521,0.5652 -2.95128,1.3403 -5.70756,2.7892 -10.52404,4.4773 -14.17254,4.9674 -0.50734,0.068 -0.92245,0.1436 -0.92245,0.1677 0,0.024 0.16542,0.4252 0.36758,0.8915 0.43431,1.0016 0.36762,1.6054 -0.35755,3.237 -0.26811,0.6032 -0.58861,1.527 -0.71228,2.0528 l -0.22481,0.956 -0.27203,-0.5216 c -0.14961,-0.2869 -0.68641,-1.4364 -1.1929,-2.5545 -0.50649,-1.1181 -1.12819,-2.3525 -1.38157,-2.7431 -0.48064,-0.741 -2.0065,-1.866 -2.21394,-1.6324 -0.0658,0.074 -0.21902,0.4574 -0.34054,0.8517 -0.40923,1.3282 -1.08668,2.4841 -2.0759,3.5422 -0.80823,0.8644 -2.38975,2.1569 -3.29448,2.6924 -0.13342,0.079 -0.18571,-0.8587 -0.1757,-3.1507 0.0141,-3.2316 0.009,-3.2731 -0.4822,-4.2945 -0.6987,-1.4516 -1.77671,-2.2065 -3.07001,-2.1498 -1.49595,0.065 -16.40332,1.2879 -17.07854,1.4005 -1.78126,0.2968 -3.85977,1.8966 -4.67633,3.5993 -0.41179,0.8587 -0.45465,1.1222 -0.38231,2.3525 0.095,1.6159 0.50538,2.5646 2.00309,4.6307 l 0.96129,1.3261 -0.92951,-0.3675 c -1.99328,-0.7881 -4.48792,-2.1518 -5.40993,-2.9574 -1.26958,-1.1093 -2.35794,-2.6089 -2.83205,-3.9023 -0.32764,-0.8938 -0.43597,-1.0306 -0.752,-0.9504 -0.20308,0.052 -0.69657,0.1469 -1.09666,0.2118 l -0.72743,0.118 0.0918,0.6987 c 0.19952,1.5177 -1.06124,3.3212 -2.6243,3.7539 -0.44915,0.1243 -1.41518,0.1749 -2.37685,0.1245 l -1.62016,-0.085 -0.30525,0.8261 c -0.95881,2.5953 -2.71004,4.3898 -5.10798,5.2345 -0.93552,0.3295 -4.26044,1.238 -4.53103,1.238 -0.0654,0 0.5419,-0.7311 1.34961,-1.6247 2.50396,-2.7701 3.34449,-4.1435 3.68464,-6.0206 0.15068,-0.8316 0.12318,-1.1356 -0.18497,-2.0439 -0.19907,-0.5869 -0.36197,-1.47 -0.36197,-1.9626 l 0,-0.8955 -0.92242,0 c -1.09274,0 -2.39528,-0.3327 -3.41919,-0.8668 -1.44625,-0.7543 -3.32254,-0.3057 -4.16714,0.9963 -0.24734,0.3813 -0.63376,1.4564 -0.85872,2.3891 l -0.40901,1.6958 -0.3694,-1.0008 c -0.73595,-1.9939 -0.96876,-3.0691 -0.87189,-4.0266 0.17834,-1.7629 1.23054,-3.169 3.14736,-4.2059 0.60825,-0.3291 1.22083,-0.7657 1.36131,-0.9703 0.14046,-0.2045 0.62563,-0.7709 1.07813,-1.2585 l 0.82271,-0.8867 -0.76866,-0.4973 c -0.42277,-0.2735 -0.98699,-0.8265 -1.25383,-1.2289 l -0.48515,-0.7316 -1.06581,0.089 c -1.72788,0.1446 -3.00706,0.7332 -4.12758,1.8993 -0.5371,0.559 -1.08038,1.272 -1.20731,1.5846 -0.22938,0.565 -0.58467,0.7041 -1.04245,0.4082 -0.5402,-0.3492 0.28737,-4.0266 1.22187,-5.4295 0.54228,-0.8142 1.69186,-1.7963 2.65822,-2.271 0.83986,-0.4125 2.63385,-0.9224 3.2456,-0.9224 0.30313,0 0.50742,-0.2175 0.84776,-0.9027 1.29044,-2.598 3.53823,-3.7601 7.28842,-3.7682 1.7269,0 4.20276,0.3472 5.21267,0.7389 2.58214,1.0015 13.11635,1.5815 28.97849,1.5956 l 7.04522,0.01 1.47633,-1.1331 c 3.89247,-2.9875 7.11381,-4.9354 14.4783,-8.7551 3.18898,-1.654 5.71033,-3.0096 5.60298,-3.0125 -0.10736,0 -1.21427,0.1578 -2.45985,0.3569 -1.24554,0.1991 -3.45061,0.4095 -4.90015,0.4677 -2.23672,0.09 -2.88815,0.051 -4.30471,-0.2533 -2.7901,-0.6001 -4.10937,-1.2404 -7.76486,-3.7687 -2.02457,-1.4003 -7.17082,-4.0424 -9.60299,-4.9301 -4.06436,-1.4835 -7.49443,-2.0947 -11.7568,-2.0947 -2.76208,0 -2.81396,-0.01 -2.91472,-0.4002 -0.13984,-0.5455 -0.0319,-0.6197 1.47359,-1.0123 2.86346,-0.7468 5.53198,-0.8916 8.78969,-0.477 3.64686,0.4641 7.04327,1.3561 11.58043,3.0412 2.99412,1.112 4.28326,1.3578 7.12086,1.3578 4.22284,0 7.96277,-1.0529 11.54993,-3.2515 1.83381,-1.124 1.87304,-1.1684 1.16192,-1.3133 -0.32363,-0.066 -2.68363,-0.6337 -5.24449,-1.2617 -5.43126,-1.3319 -7.33623,-1.6078 -10.16131,-1.4721 -2.1968,0.1056 -3.36241,0.3652 -5.42758,1.2088 -0.71779,0.2933 -1.33862,0.5332 -1.37964,0.5332 -0.1897,0 -0.0456,-2.5478 0.19811,-3.5025 0.51985,-2.0366 1.70493,-3.5227 3.65463,-4.5828 l 1.07155,-0.5827 -2.19196,-0.6056 c -1.63049,-0.4504 -2.59698,-0.6133 -3.77326,-0.6358 -2.076,-0.04 -2.98356,0.2881 -5.34477,1.9309 -2.81484,1.9584 -4.04704,2.522 -6.48617,2.9667 -1.50348,0.2741 -3.44393,0.034 -5.21214,-0.6448 -1.03727,-0.3983 -4.03079,-2.0332 -3.92144,-2.1418 0.0309,-0.031 0.80058,-0.1863 1.71063,-0.346 2.18604,-0.3839 3.59418,-1.087 5.12286,-2.5582 1.1833,-1.1388 2.68753,-3.2056 2.52647,-3.4715 -0.10391,-0.1715 -8.25785,-4.8261 -8.45442,-4.8261 -0.0825,0 -0.24767,0.1595 -0.36695,0.3543 -0.37528,0.613 -1.51449,1.0797 -2.63573,1.0797 -1.44342,0 -2.6798,-0.7657 -3.67032,-2.2731 -0.40043,-0.6094 -0.75727,-1.1974 -0.79295,-1.3066 -0.0458,-0.1399 -0.2718,-0.1241 -0.76544,0.054 -2.26262,0.8144 -4.68325,0.7341 -6.67433,-0.2215 -0.9349,-0.4487 -4.93331,-3.2199 -4.79722,-3.3248 0.0294,-0.023 1.23758,0.041 2.6851,0.1405 3.07616,0.2122 4.84491,0.022 6.29002,-0.675 1.03986,-0.5019 1.30234,-0.737 2.06931,-1.8535 0.28978,-0.4219 0.8297,-0.9865 1.19985,-1.2547 l 0.673,-0.4878 -0.56005,-0.717 c -0.63766,-0.8163 -1.23374,-2.1735 -1.41706,-3.2264 -0.16166,-0.9285 -0.80476,-1.7942 -1.66573,-2.2423 -1.12723,-0.5866 -1.82587,-0.483 -4.70847,0.6984 -0.58277,0.2389 -0.88495,0.2978 -0.8035,0.1567 1.18356,-2.0501 2.40168,-3.4526 3.51574,-4.0478 1.22778,-0.656 3.16109,-0.5733 4.93105,0.2108 0.79881,0.3539 1.3857,0.4661 2.69082,0.5144 l 1.66917,0.062 0.0102,-1.2609 c 0.005,-0.6936 0.10985,-1.4477 0.23186,-1.6759 0.19494,-0.3645 0.16522,-0.4905 -0.24498,-1.0392 -1.30169,-1.741 -4.1398,-2.7411 -6.31723,-2.2261 -0.80918,0.1914 -0.73557,0.2224 -0.88162,-0.3712 -0.10161,-0.4131 -0.0123,-0.5326 0.78892,-1.0572 3.36213,-2.201 6.67993,-2.0313 9.75137,0.4988 1.00878,0.8309 1.08451,0.8615 1.75703,0.7089 1.30671,-0.2964 3.24698,-0.072 4.39006,0.5083 2.47823,1.2575 5.19777,4.8857 5.97718,7.9741 0.66196,2.6231 2.48529,5.7721 4.56038,7.8761 l 1.14908,1.1651 18.5805,5.5638 18.58048,5.5638 0.0457,-1.0826 c 0.0251,-0.5955 -0.0144,-1.8417 -0.088,-2.7694 l -0.13352,-1.6867 -8.75693,-2.618 -8.75691,-2.618 -5.58815,-5.9037 c -5.45671,-5.7649 -5.58145,-5.9128 -5.30288,-6.2896 l 0.28527,-0.3858 1.93634,0.9303 c 1.06501,0.5117 4.78275,2.3029 8.26166,3.9805 l 6.32527,3.0502 7.24852,2.2051 7.24855,2.205 5.62162,-1.5819 c 3.0919,-0.87 5.62164,-1.6364 5.62164,-1.703 0,-0.241 -8.65197,-6.2985 -8.78687,-6.152 -0.0761,0.083 -0.63661,1.2595 -1.24541,2.6151 -0.60881,1.3555 -1.15665,2.4646 -1.21741,2.4646 -0.0607,0 -0.7948,-1.4721 -1.63121,-3.2712 l -1.52074,-3.2713 -2.77028,-0.2337 c -1.52365,-0.1285 -2.95856,-0.2739 -3.18868,-0.323 l -0.41842,-0.089 0.12818,-2.9931 c 0.0705,-1.6461 0.15737,-3.0416 0.19308,-3.1009 0.0357,-0.059 1.07382,-0.1651 2.30692,-0.235 1.23307,-0.07 2.27473,-0.1605 2.31479,-0.2014 0.14347,-0.1464 0.91331,-3.8948 0.81954,-3.9905 -0.18194,-0.1856 -3.46374,0.3526 -4.89524,0.8028 -5.32919,1.6761 -10.69416,2.5746 -13.88252,2.325 -3.82903,-0.2998 -5.98976,-1.5308 -7.1094,-4.0504 -0.38306,-0.8621 -0.44402,-1.2598 -0.45474,-2.9672 -0.0149,-2.3853 0.32993,-3.8764 1.76694,-7.6388 1.54436,-4.0434 1.4886,-5.77 -0.23643,-7.319 -1.22161,-1.097 -3.37475,-1.7926 -6.42567,-2.0759 -1.35019,-0.1254 -1.36168,-0.1308 -1.36168,-0.6362 0,-0.5689 -0.0202,-0.5603 3.05083,-1.2865 2.12631,-0.5028 7.07527,-0.5632 8.47703,-0.1035 1.85297,0.6076 2.95268,1.2686 4.10962,2.4698 1.98355,2.0596 2.88089,4.5178 3.17706,8.7032 0.0977,1.3802 0.25685,2.8725 0.35376,3.3161 0.61106,2.7978 4.29851,3.9641 9.9104,3.1346 2.06347,-0.305 6.3999,-0.3434 9.13649,-0.081 4.1512,0.3981 8.37762,1.5506 12.39815,3.3808 1.09403,0.498 2.00875,0.8855 2.0327,0.8611 0.024,-0.024 -0.76309,-1.8928 -1.74898,-4.152 l -1.79253,-4.1076 -1.22273,-0.3148 c -0.67253,-0.1731 -1.24817,-0.2888 -1.27926,-0.2572 -0.0312,0.032 -0.2505,1.1365 -0.4876,2.4549 -0.23711,1.3185 -0.45904,2.5183 -0.49316,2.6662 -0.0341,0.1478 -0.67726,-1.0218 -1.42915,-2.5991 -0.7519,-1.5774 -1.38281,-2.8878 -1.40203,-2.912 -0.0192,-0.024 -0.38864,-0.093 -0.82095,-0.154 l -0.786,-0.1099 -0.58652,2.5591 c -0.46059,2.0096 -0.62836,2.5004 -0.78143,2.2859 -0.10719,-0.1502 -0.78789,-1.3733 -1.51266,-2.718 -0.72478,-1.3448 -1.43637,-2.4813 -1.58134,-2.5258 -0.14494,-0.044 -0.54885,-0.1322 -0.89758,-0.1952 -0.62553,-0.1128 -0.63543,-0.1051 -0.73729,0.573 -0.0568,0.3781 -0.15787,1.4739 -0.22463,2.4351 -0.0668,0.9612 -0.16982,1.7459 -0.22907,1.7437 -0.0592,0 -0.77977,-1.1063 -1.60117,-2.4537 -0.82141,-1.3473 -1.94951,-2.9583 -2.5069,-3.5799 -3.89669,-4.3457 -3.60438,-7.0944 0.87792,-8.2552 1.82405,-0.4724 8.63118,-0.4168 12.55985,0.1026 1.61503,0.2134 3.15682,0.3883 3.42619,0.3884 0.48433,0 0.48911,-0.011 0.42913,-0.994 -0.0755,-1.2368 0.55088,-2.6734 1.48119,-3.3973 1.22267,-0.9514 2.38069,-1.2418 4.90473,-1.23 3.23382,0.015 6.05701,0.7449 10.40915,2.6914 1.65734,0.7412 2.04223,0.8458 3.12674,0.8498 1.05875,0 1.42547,-0.087 2.54768,-0.6316 2.86989,-1.3929 5.80452,-4.4522 9.69284,-10.1047 1.02389,-1.4885 1.58444,-2.151 1.81992,-2.151 0.26158,0 0.47056,0.333 0.90348,1.4394 1.67414,4.2786 1.83104,8.7463 0.49461,14.0849 -0.0996,0.3977 -0.0297,0.5201 0.46822,0.8198 1.59869,0.9623 3.93668,1.3031 6.62927,0.9663 0.9099,-0.1138 3.14351,-0.5967 4.96359,-1.0732 1.8201,-0.4764 3.30926,-0.823 3.30926,-0.77 0,0.2797 -3.73317,5.1112 -4.80884,6.2237 -1.48117,1.5318 -3.52811,2.9419 -4.91804,3.3879 l -0.99697,0.3199 0.51952,0.6037 c 1.5913,1.8489 3.02626,4.6377 3.45604,6.7165 0.45785,2.2146 0.006,4.5511 -1.27486,6.594 -0.56238,0.8969 -0.61679,1.0932 -0.55288,1.9947 0.0905,1.2761 0.65212,2.4532 1.76136,3.6914 1.53359,1.7118 4.97099,3.7918 8.74738,5.293 1.56811,0.6234 1.66917,0.6946 1.66917,1.1766 0,0.4714 -0.0571,0.5167 -0.7028,0.5587 -0.38656,0.025 -1.88881,0.1804 -3.33834,0.3451 -6.13723,0.6971 -9.26432,0.2351 -12.23358,-1.8076 l -0.94407,-0.6495 -0.0516,1.1477 c -0.0288,0.6434 0.0963,1.8861 0.28496,2.828 1.03364,5.1619 4.1732,9.6445 10.22478,14.5987 l 2.16821,1.775 -2.27206,0.056 c -2.58213,0.064 -5.57302,-0.1998 -6.92829,-0.6104 -1.57244,-0.4764 -3.37864,-1.4628 -4.55648,-2.4883 -0.62173,-0.5414 -1.15981,-0.9543 -1.19576,-0.9176 -0.18465,0.1883 -0.0273,2.9394 0.22851,3.9987 0.41195,1.7051 1.61546,3.9971 3.03863,5.7871 0.66628,0.838 2.40424,2.7194 3.86211,4.181 2.37892,2.3849 2.62904,2.6927 2.43948,3.0023 -0.11616,0.1898 -0.31385,0.345 -0.43936,0.345 -0.37528,0 -5.93308,-1.7732 -7.63743,-2.4367 -3.22501,-1.2556 -5.6047,-2.7926 -7.55557,-4.8802 l -1.01029,-1.081 0,1.0697 c 0,2.5555 0.9972,5.6372 2.66666,8.2411 0.88611,1.382 1.96846,2.5839 5.99961,6.6618 2.70513,2.7366 4.87394,5.021 4.81958,5.0765 -0.0543,0.056 -1.43077,-0.3152 -3.05869,-0.8237 -7.7933,-2.4342 -12.63933,-4.7736 -16.10906,-7.7764 -0.64375,-0.5572 -1.17046,-0.9336 -1.17046,-0.8364 0,0.3614 1.85368,4.5156 3.52449,7.8986 4.76273,9.6435 9.92627,17.3705 23.57747,35.2825 4.52143,5.9327 7.25909,9.6205 10.43306,14.0539 1.58232,2.2103 1.61668,2.2438 2.54766,2.4877 0.60356,0.158 1.89374,0.2449 3.57927,0.2409 2.20193,0 2.86624,-0.073 4.03794,-0.4141 3.18013,-0.9252 5.89706,-2.5828 8.62209,-5.2604 2.58684,-2.5419 4.17729,-4.7578 5.83385,-8.1282 1.88865,-3.8427 2.85619,-7.7087 2.98769,-11.9382 0.15647,-5.0338 -0.73209,-8.5254 -3.1041,-12.1973 -1.49804,-2.319 -3.31803,-3.9416 -7.30556,-6.5133 -5.18268,-3.3425 -10.70055,-7.9726 -14.41357,-12.0946 -8.02134,-8.9049 -10.8907,-17.9555 -7.82384,-24.6783 2.03932,-4.4702 6.28673,-7.7396 12.79888,-9.8516 1.42089,-0.4609 2.60703,-0.8561 2.63587,-0.8782 0.0288,-0.022 0.23772,-0.877 0.46422,-1.8996 1.5114,-6.8237 5.19073,-9.9364 12.48532,-10.5625 1.15962,-0.1 2.66188,-0.1308 3.33834,-0.07 1.57685,0.1429 5.58931,-0.1858 7.68463,-0.6294 1.99252,-0.4219 3.73474,-0.9312 8.36625,-2.4454 1.96683,-0.643 3.59674,-1.1438 3.62201,-1.1129 0.0254,0.031 0.13207,0.2254 0.23733,0.4323 0.17549,0.3448 -0.0351,0.5531 -2.53608,2.5094 -3.52143,2.7545 -5.88197,4.3624 -8.03847,5.4753 -1.71778,0.8865 -4.56667,1.9459 -5.23289,1.9459 -0.64967,0 -0.16718,0.2974 0.85277,0.5257 3.58763,0.8028 8.13653,2.824 10.41835,4.6291 0.72477,0.5734 1.67357,1.5235 2.10843,2.1113 0.43485,0.5879 1.51384,1.8033 2.39776,2.7008 1.35228,1.3732 1.86764,1.7611 3.25047,2.4467 2.04849,1.0158 2.95559,1.2365 5.03404,1.225 2.86119,-0.016 5.26143,-0.7719 11.53882,-3.6349 3.25972,-1.4866 3.52492,-1.5777 3.73603,-1.2832 0.32925,0.4593 0.23635,0.5857 -1.01777,1.3845 -0.62244,0.3964 -3.62229,2.3306 -6.66634,4.2981 -11.34943,7.3358 -15.24653,9.3412 -20.99638,10.8042 -2.12918,0.5418 -6.14261,0.7629 -8.11831,0.4472 -5.7337,-0.916 -11.13385,-4.7406 -15.72567,-11.1377 l -1.24541,-1.735 -1.29154,0.4065 c -1.84198,0.5798 -4.70514,2.0267 -6.01753,3.0411 -2.74384,2.1207 -3.9404,5.1501 -3.28912,8.3274 1.06061,5.1743 6.54435,11.2053 15.85286,17.4347 5.45163,3.6483 11.16277,9.5083 13.2302,13.575 0.71384,1.4042 1.42132,3.5042 1.42132,4.2191 0,0.8762 1.49571,0.7747 3.10768,-0.2109 1.21252,-0.7413 2.06193,-1.5548 3.95119,-3.7842 1.40417,-1.6569 1.59448,-1.7943 2.06445,-1.4909 0.53445,0.3451 -0.63316,4.9179 -1.7986,7.0439 -0.36459,0.6651 -1.32223,1.8717 -2.2811,2.874 -2.38603,2.4943 -3.46306,4.7623 -3.46165,7.2896 0,1.2843 0.36518,2.1459 1.07047,2.531 0.93753,0.5119 3.58652,-0.5232 4.35634,-1.7022 0.67653,-1.0361 2.64523,-2.8035 3.64057,-3.2684 1.05122,-0.491 2.37673,-0.6978 3.31788,-0.5177 l 0.64604,0.1237 -0.118,0.93 c -0.72729,5.7337 -2.7578,9.6361 -6.11539,11.753 -0.70546,0.4448 -2.93715,1.2762 -3.42563,1.2762 -1.13228,0 -3.09428,1.2605 -3.64109,2.3393 -0.60629,1.1961 -0.15088,2.5609 1.19032,3.5671 0.67608,0.5073 0.83482,0.5465 2.21078,0.5465 2.59355,0 3.74765,0.6572 4.62654,2.6347 0.42088,0.947 0.5727,1.1295 0.93952,1.1295 0.77891,0 0.46904,0.2915 -1.09989,1.0348 -5.2057,2.4661 -8.91062,3.1876 -12.63509,2.4605 -0.75743,-0.1478 -1.41566,-0.2688 -1.46274,-0.2689 -0.047,0 0.91105,0.9964 2.1292,2.2141 3.72358,3.7223 4.52927,5.7791 4.27588,10.9157 -0.0669,1.3556 -0.172,2.462 -0.2336,2.4588 -0.0616,0 -1.45614,-1.8254 -3.09895,-4.0493 -1.64284,-2.224 -3.3032,-4.3675 -3.68975,-4.7634 -0.38653,-0.3959 -1.29101,-1.0097 -2.00998,-1.3641 -1.12218,-0.5531 -1.51999,-0.6536 -2.81122,-0.7102 -1.30576,-0.057 -1.60831,-0.011 -2.29473,0.3497 -1.09722,0.5769 -1.35954,1.1828 -0.96656,2.2326 0.17028,0.4549 0.49839,0.9198 0.76426,1.0828 3.14776,1.9309 4.38905,3.1088 5.34646,5.0735 0.5201,1.0672 0.56434,1.2932 0.5436,2.7783 -0.0179,1.2775 -0.1238,1.8985 -0.50512,2.9609 -0.50806,1.4153 -1.47384,3.486 -1.57605,3.379 -0.0331,-0.035 -0.21958,-0.7494 -0.41444,-1.5883 -0.94352,-4.0623 -2.22783,-5.7579 -4.56587,-6.0283 -0.4524,-0.052 -1.15749,-0.016 -1.56683,0.08 -0.89335,0.2101 -3.25847,-0.02 -4.50678,-0.439 -1.4942,-0.5012 -2.73841,-1.9109 -3.34875,-3.7941 -0.1697,-0.5236 -0.48971,-1.1669 -0.71115,-1.4295 -0.35721,-0.4237 -0.55252,-0.4852 -1.73356,-0.546 -1.34423,-0.069 -2.97149,0.2181 -4.74132,0.8373 l -0.85117,0.2978 -0.0253,9.052 c -0.0273,9.8214 0.0508,10.9005 0.9968,13.7531 0.7389,2.228 2.06863,3.7406 3.68118,4.1873 1.1151,0.309 3.48586,0.094 5.11573,-0.4632 1.97686,-0.6762 5.21184,-2.3546 6.29622,-3.2668 2.07512,-1.7455 4.12398,-2.5661 6.7219,-2.6923 2.1585,-0.1048 3.49367,0.1348 5.09536,0.9144 2.29929,1.1192 3.95701,2.9025 5.20646,5.6008 1.02528,2.2143 1.3962,3.999 1.50728,7.2527 0.10632,3.1143 -0.095,5.4157 -0.75131,8.5916 -0.66516,3.2183 -0.52969,4.4659 0.61451,5.6597 1.71779,1.7924 5.93743,1.4578 10.38469,-0.8233 1.13166,-0.5805 1.48029,-0.689 1.67744,-0.5221 0.1369,0.1159 0.24889,0.3131 0.24889,0.4382 0,0.2268 -2.36359,2.4817 -3.86545,3.6877 -1.23773,0.9939 -2.79725,1.8897 -4.01776,2.3078 -1.3366,0.4578 -3.48352,0.5084 -4.94281,0.1164 -0.53138,-0.1427 -0.98339,-0.2419 -1.00443,-0.2204 -0.0746,0.076 1.48817,3.4929 2.14733,4.6954 0.36755,0.6705 1.19608,1.7575 1.84114,2.4156 1.41261,1.4411 2.44338,1.8965 4.98884,2.2039 l 1.73569,0.2096 -1.91139,0.9294 c -2.2792,1.1082 -2.95126,1.3053 -4.45908,1.3078 -1.40036,0 -2.52884,-0.3914 -3.68852,-1.2868 -0.48385,-0.3737 -0.8797,-0.6604 -0.87968,-0.6372 10e-6,0.023 0.12207,0.6873 0.27121,1.476 0.46461,2.4564 0.6164,4.04 0.61857,6.4528 0.005,4.7023 -1.06225,8.2767 -3.64679,12.2231 -0.92114,1.4065 -0.98005,1.4597 -1.40031,1.2643 -0.49881,-0.2318 -0.50302,-0.1748 0.18872,-2.5533 1.16222,-3.9963 1.3702,-8.1366 0.56727,-11.2925 -0.42787,-1.6818 -1.75106,-4.7501 -2.04842,-4.7501 -0.17198,0 -9.4266,13.4464 -9.64129,14.0082 -0.11537,0.3019 -3.72843,4.474 -5.35411,6.1825 -0.0134,0.014 -1.28923,0.1163 -2.8354,0.2273 -1.54619,0.1111 -3.2906,0.2486 -3.87646,0.3056 -1.06133,0.1032 -1.06495,0.1055 -0.98926,0.6316 0.10444,0.726 -0.40327,1.9939 -1.06114,2.6501 -0.89012,0.8878 -1.82314,1.1556 -3.60611,1.0349 -0.84496,-0.057 -1.69438,-0.1476 -1.88766,-0.201 -0.29457,-0.081 -0.44892,0.1128 -0.95415,1.1995 -0.77192,1.6604 -2.15492,3.0996 -3.70195,3.8526 -1.15443,0.5619 -4.18256,1.2976 -5.34063,1.2976 l -0.62932,0 2.15677,-2.1957 z m -48.10424,-206.395 c 1.30407,-0.6344 1.4779,-2.3134 0.45826,-4.4263 -0.43958,-0.911 -0.6594,-1.1776 -1.03644,-1.257 -3.346,-0.7048 -13.20312,-2.3297 -13.3324,-2.1978 -0.0349,0.036 0.47087,1.118 1.12407,2.4053 1.31092,2.5833 1.31212,2.5845 4.00116,3.9603 3.53503,1.8085 6.96633,2.4004 8.78535,1.5155 z m -15.6075,-6.2363 c 0.30777,-0.8872 0.56474,-1.6737 0.57102,-1.7476 0.006,-0.074 -0.98226,-0.1345 -2.19675,-0.1345 l -2.20818,0 0.93434,1.7982 0.93436,1.7981 0.7028,-0.051 0.7028,-0.051 0.55961,-1.6132 z m 21.66671,-20.8822 c -2.17432,-1.4786 -3.99434,-2.6885 -4.0445,-2.6886 -0.0502,-10e-5 -0.4348,0.7641 -0.85479,1.6981 -0.77183,1.7166 -0.82493,2.1626 -0.3355,2.8187 0.18994,0.2546 0.84781,0.3463 4.00487,0.5583 2.07767,0.1395 4.09385,0.2645 4.4804,0.2778 0.66264,0.023 0.47695,-0.1295 -3.25048,-2.6643 z"
       id="path13394-0"
       inkscape:connector-curvature="0" />
  </g>
</svg>
