<?xml version="1.0" encoding="UTF-8" standalone="no"?>
<!-- Created with Inkscape (http://www.inkscape.org/) -->

<svg
   xmlns:dc="http://purl.org/dc/elements/1.1/"
   xmlns:cc="http://creativecommons.org/ns#"
   xmlns:rdf="http://www.w3.org/1999/02/22-rdf-syntax-ns#"
   xmlns:svg="http://www.w3.org/2000/svg"
   xmlns="http://www.w3.org/2000/svg"
   xmlns:sodipodi="http://sodipodi.sourceforge.net/DTD/sodipodi-0.dtd"
   xmlns:inkscape="http://www.inkscape.org/namespaces/inkscape"
   width="835.63617"
   height="551.91663"
   id="svg5189"
   version="1.1"
   inkscape:version="0.48.4 r9939"
   sodipodi:docname="Nieuw document 12">
  <defs
     id="defs5191" />
  <sodipodi:namedview
     id="base"
     pagecolor="#ffffff"
     bordercolor="#666666"
     borderopacity="1.0"
     inkscape:pageopacity="0.0"
     inkscape:pageshadow="2"
     inkscape:zoom="0.35"
     inkscape:cx="569.96094"
     inkscape:cy="33.101161"
     inkscape:document-units="px"
     inkscape:current-layer="layer1"
     showgrid="false"
     fit-margin-top="0"
     fit-margin-left="0"
     fit-margin-right="0"
     fit-margin-bottom="0"
     inkscape:window-width="1600"
     inkscape:window-height="837"
     inkscape:window-x="-8"
     inkscape:window-y="-8"
     inkscape:window-maximized="1" />
  <metadata
     id="metadata5194">
    <rdf:RDF>
      <cc:Work
         rdf:about="">
        <dc:format>image/svg+xml</dc:format>
        <dc:type
           rdf:resource="http://purl.org/dc/dcmitype/StillImage" />
        <dc:title></dc:title>
      </cc:Work>
    </rdf:RDF>
  </metadata>
  <g
     inkscape:label="Laag 1"
     inkscape:groupmode="layer"
     id="layer1"
     transform="translate(194.96094,-13.546738)">
    <path
       style="fill:#000000;stroke:none"
       d="m 226.63894,49.407162 c -2.43509,0.16513 -4.58346,-0.31487 -5.68211,-3.15673 -8.10609,-9.26807 -13.58618,-0.19936 -10.6066,5.55584 1.47878,-5.87879 4.67104,-5.97456 8.83883,-2.77792 3.49397,3.12973 6.92024,1.78724 7.44988,0.37881 z"
       id="path5096"
       inkscape:connector-curvature="0"
       sodipodi:nodetypes="ccccc" />
    <rect
       style="fill:#e6e6e6;fill-opacity:1;stroke:none"
       id="rect5140"
       width="835.63617"
       height="551.76611"
       x="-194.96094"
       y="13.546738" />
    <path
       style="fill:#000000"
       d="m 220.4044,564.90761 -3.23534,-0.40223 0.10323,-11.68773 c 0.12321,-13.95129 -1.07094,-19.11666 -5.22817,-22.61474 -3.31257,-2.78734 -7.11116,-3.24493 -12.91099,-1.55528 -3.19888,0.93192 -3.68267,0.78439 -5.73843,-1.75 -2.28414,-2.81593 -2.93965,-5.26772 -1.40837,-5.26772 1.65,0 8.20069,-7.17237 10.2886,-11.26501 1.82389,-3.57512 2.04992,-5.3537 1.62576,-12.79278 -0.78376,-13.74603 -1.71885,-13.86411 -6.70818,-0.84706 -6.39708,16.68981 -11.99531,21.8937 -23.55281,21.8937 -2.2,0 -5.7832,-0.49509 -7.9628,-1.10019 l -3.9628,-1.10018 3.8256,-1.31516 c 5.0687,-1.74255 9.0517,-5.69978 10.45664,-10.38905 1.42247,-4.74781 1.47587,-9.08427 0.11184,-9.08427 -2.44218,0 -13.42188,4.27433 -16.16928,6.29458 -6.4155,4.71758 -8.7732,14.01553 -6.7888,26.77235 0.6854,4.40547 1.0739,8.18211 0.8635,8.39253 -0.6696,0.66957 -14.143,-6.50457 -18.0963,-9.63566 -5.9154,-4.68505 -9.1846,-11.07515 -9.2767,-18.13271 -0.072,-5.50613 -0.2811,-6.01935 -3.039,-7.45476 -9.7152,-5.05644 -13.7912,-10.82284 -13.8855,-19.64437 -0.055,-5.10648 0.561,-7.38609 3.8052,-14.09196 l 3.8703,-8 1.1981,5 c 3.1384,13.09855 11.0529,20.82475 22.7515,22.21027 l 5.094,0.60331 -4.5526,-4.19649 c -7.3077,-6.73603 -9.2838,-12.63859 -6.2066,-18.53946 1.539,-2.95123 0.8171,-4.5203 -2.0992,-4.56232 -1.5944,-0.023 -6.17,-5.14518 -7.323,-8.19776 -1.065,-2.8195 -0.3126,-6.92555 1.9257,-10.50967 1.2659,-2.02697 1.3884,-2.00102 8.8719,1.87931 6.2681,3.25008 8.6396,3.94817 13.6307,4.01238 7.7406,0.0996 13.6752,-2.49162 18.9975,-8.29471 12.92799,-14.0957 13.63652,-35.4517 1.6761,-50.51832 -2.3205,-2.92317 -3.1528,-3.33433 -5.716,-2.82376 -6.057,1.20651 -8.2669,7.23763 -4.6576,12.71137 1.0061,1.52578 3.7032,4.15221 5.9935,5.83651 2.2902,1.68431 4.1641,3.41195 4.1641,3.83922 0,1.26011 -12.0617,3.53641 -17.7228,3.34466 -5.8146,-0.19694 -12.8871,-2.94704 -17.4475,-6.78438 l -3.0066,-2.5299 -5.8248,7.25987 -5.8247,7.25988 3.1632,0.86168 c 1.7398,0.47393 6.6914,0.59738 11.0036,0.27433 8.202,-0.61444 9.5274,-0.27559 18.0744,4.62116 2.1531,1.23356 4.8159,3.46358 5.9174,4.95561 1.8588,2.51784 1.9089,3.12864 0.6971,8.5 l -1.3056,5.78722 -1.3597,-3.89491 c -2.7506,-7.87951 -5.1164,-8.45914 -10.6261,-2.60345 -4.7999,5.10128 -8.5909,5.33622 -14.6998,0.91097 l -4.262,-3.08739 -8.6381,1.15498 c -11.3103,1.51229 -13.2685,2.20844 -21.662202,7.70107 -6.3223,4.13721 -7.876,5.85623 -14.6627,16.22314 -5.9903,9.15031 -7.7213,12.63628 -8.2083,16.53062 -0.8156,6.52108 -2.6496,9.07989 -7.7189,10.76967 -7.5341,2.51137 -7.0787,8.02535 0.9952,12.04872 l 5.0411,2.51213 -3.0861,0.61722 c -1.6973,0.33947 -5.8935,0.61722 -9.3247,0.61722 -5.3561,0 -6.5999,-0.36123 -8.7923,-2.5536 -2.4763,-2.47637 -2.5446,-2.89226 -2.2565,-13.75 0.1634,-6.15802 0.3512,-11.80265 0.4173,-12.54363 0.066,-0.74098 2.9986,-4.34098 6.5168,-8 7.7864,-8.09805 13.3735,-17.04838 11.4168,-18.28919 -3.3776,-2.14193 -6.3683,-0.81612 -12.755,5.65465 -7.9486,8.05311 -15.10315,11.76247 -23.74895,12.31299 -5.9,0.37569 -6.4201,0.61147 -8.3943,3.80605 -4.5116,7.29985 -11.5872,10.26356 -19.1195899,8.00846 -8.1762,-2.44786 -13.532,1.12159 -15.3380001,10.22222 l -0.7208,3.63205 -1.3233,-3 c -1.7431,-3.95182 -1.7628,-12.72829 -0.038,-16.85691 1.4201,-3.39865 8.1149001,-9.64309 10.3387001,-9.64309 0.6923,0 1.8877,-1.5053 2.65640004,-3.34511 1.71879996,-4.11364 6.92889996,-6.43704 17.07588986,-7.61483 3.8793,-0.45028 9.6341,-1.7984 12.7887,-2.99581 6.0376,-2.29176 18.24095,-9.9011 17.33375,-10.80832 -0.2923,-0.29227 -5.37745,0.0316 -11.30035,0.71961 -7.578,0.88032 -12.7445,2.10933 -17.4365,4.14774 -8.3666999,3.63491 -10.9176899,3.62492 -18.35778986,-0.0719 -3.28600004,-1.63274 -6.66190004,-2.98274 -7.50200004,-3 -2.9022001,-0.0596 -5.7651001,2.95026 -7.5638001,7.95218 -0.9928,2.76102 -2.1179,4.68173 -2.5002,4.26824 -1.171,-1.26672 -2.9086,-11.06182 -2.9086,-16.39672 0,-9.26701 5.3401,-13.85507 16.1259001,-13.85507 3.96550004,0 5.7397,-0.55056 8.0565,-2.5 3.7177,-3.12827 9.4378899,-3.25718 25.7314899,-0.57991 10.4658,1.71966 11.7535,1.74682 15.5,0.3269 3.14155,-1.19061 8.59955,-1.57151 23.61185,-1.64778 18.8895,-0.096 19.6879,-0.18261 24.5,-2.65856 6.892,-3.5461 6.8881,-6.39907 -0.014,-10.12672 -3.2808,-1.77189 -4.4787,-2.87389 -3.5,-3.21959 17.941202,-6.33706 24.213702,-11.4453 28.081002,-22.86878 1.6961,-5.01008 1.8434,-5.14112 7.5684,-6.73293 7.9849,-2.22015 11.611,-4.2897 15.2817,-8.72177 3.1689,-3.82612 6.4719,-12.50899 4.9784,-13.08672 -0.4491,-0.17372 -4.1948,1.96378 -8.3238,4.75 -4.1291,2.78623 -7.7527,5.06586 -8.0525,5.06586 -0.2999,0 -0.5452,-2.13349 -0.5452,-4.7411 l 0,-4.7411 -5.3887,7.9911 c -2.9639,4.39511 -7.8014,10.70086 -10.75,14.01278 -8.3657,9.39624 -25.615102,25.05785 -26.558802,24.11412 -0.2681,-0.26812 0.1932,-2.88336 1.0252,-5.81165 2.6613,-9.36671 3.9576,-20.33631 3.2186,-27.2365 -0.3868,-3.61163 -1.0221,-6.76372 -1.4119,-7.00463 -0.3898,-0.24091 -3.1297,3.91686 -6.0886,9.23948 -9.6049,17.27783 -16.1536,27.21963 -22.1578,33.63805 -3.2384,3.46187 -5.888,6.77395 -5.888,7.36018 0,1.79728 -4.2746,4.17927 -7.5,4.17927 -8.15805,0 -10.52755,-8.51569 -3.05565,-10.98165 2.26921,-0.74888 4.09535,-0.76366 5.97675,-0.0484 1.49,0.5665 2.8566,1.03001 3.0368,1.03001 0.1803,0 2.4153,-4.76672 4.9668,-10.59272 4.4558,-10.17442 6.8202,-19.41855 4.9612,-19.39702 -0.4872,0.006 -5.6109,3.86137 -11.3859,8.56829 -12.57875,10.25228 -28.71235,21.24431 -38.17885,26.01154 -6.9758899,3.51303 -24.68179,9.88253 -25.41979,9.14451 -0.2203,-0.22027 1.2984,-1.76574 3.3748001,-3.43438 6.87,-5.52094 18.1744,-22.20912 26.8662899,-39.66179 l 3.5551,-7.13843 -5.3487,5.09619 c -13.6842899,13.03809 -24.9724899,21.59002 -35.11379,26.60194 -3.4292,1.69478 -7.3082,3.91852 -8.6198,4.94165 -1.3117,1.02316 -3.6135,1.86026 -5.11521,1.86026 -3.3532,0 -8,-3.48505 -8,-6 0,-2.48689 4.6328,-6 7.9124,-6 1.4534,0 3.72591,0.75875 5.04991,1.68612 2.3858,1.67111 2.46,1.62883 8.3312,-4.75 8.4208,-9.14879 24.3084001,-31.93612 22.2663001,-31.93612 -0.2885,0 -3.53049996,1.83987 -7.2045,4.0886 -14.0426001,8.59498 -28.1257101,16.22873 -34.9473101,18.94318 -12.9548,5.15494 -27.823,7.11853 -38.908,5.13845 l -4,-0.71452 10,-6.66703 c 16.3257,-10.88435 29.9517,-24.76344 38.5725,-39.28868 2.2476,-3.78703 2.2627,-3.92014 0.2836,-2.5 -1.1497,0.825 -6.9877,5.047 -12.9732,9.38223 -5.9856,4.33523 -14.2579,9.42459 -18.3829,11.30969 -4.125,1.88509 -8.7739,4.07559 -10.331,4.86776 -5.9338,3.01886 -13.669,0.77712 -13.669,-3.9614 0,-5.46899 8.9165,-7.90426 13.4268,-3.6671 l 2.2685,2.13118 6.4024,-4.69 c 7.0598,-5.17161 20.1714,-17.95127 23.8924,-23.28756 l 2.3814,-3.4152 -2.4357,0.75338 c -1.3397,0.41435 -8.7358,0.98352 -16.4358,1.26482 -15.008,0.54827 -23.0699,-0.63641 -32.404,-4.76171 -4.997096,-2.20853 -15.344198,-9.01116 -14.694598,-9.66081 0.2211,-0.22106 3.6787,-0.85601 7.683602,-1.411 12.872296,-1.78383 26.053796,-7.58077 40.207396,-17.68241 2.6358,-1.88122 4.625,-3.58782 4.4204,-3.79243 -0.2046,-0.20462 -6.8612,1.69169 -14.7924,4.21402 -23.5599,7.49267 -41.920398,7.32297 -41.920398,-0.38745 0,-3.8286 2.8075,-6.20601 7.3288,-6.20601 4.171002,0 7.671202,2.78715 7.671202,6.10841 0,1.7499 0.4253,2.00166 2.501296,1.48063 10.2639,-2.57609 30.401,-11.77924 30.8184,-14.08483 0.099,-0.54768 -2.5036,-1.33104 -5.7839,-1.7408 -11.8898,-1.48519 -23.8966,-6.90867 -35.207398,-15.90312 -5.5482,-4.41198 -16.3284,-15.76649 -16.3284,-17.19825 0,-0.31151 2.1375,0.12265 4.75,0.9648 2.6689,0.86032 10.2267,1.75827 17.250002,2.04949 12.552196,0.52047 23.158896,-0.89934 36.999996,-4.95282 l 4.5,-1.31786 -12,-2.82658 c -19.8851,-4.68389 -42.733298,-12.99258 -47.749998,-17.3641 -4.2561,-3.70878 -0.4812,-9.21498 6.3175,-9.21498 6.2489,0 9.1382,5.69392 4.8558,9.56941 l -2.0767,1.8794 2.8267,0.79139 c 12.961398,3.62877 37.102798,7.10272 41.544598,5.97824 1.204,-0.3048 -1.1891,-2.53695 -8,-7.46184 -25.327096,-18.31392 -38.085098,-31.60515 -43.897598,-45.73244 -1.25,-3.03829 -2.2835,-6.81617 -2.2965,-8.39529 -0.023,-2.81075 0.1184,-2.73715 6.7363,3.5 8.3038,7.82606 16.524998,13.35776 25.168998,16.93533 12.3053,5.09287 12.2751,4.92241 -1.6648,-9.37883 -13.745698,-14.10211 -22.264298,-25.64219 -22.264298,-30.1615 0,-2.06611 0.7618,-2.94423 3.5734,-4.11899 3.7869,-1.58225 6.802002,-1.15587 9.676602,1.36839 3.534296,3.10349 1.279796,7.96194 -4.2162,9.08599 l -3.368502,0.68894 7.917302,6.59799 c 8.485696,7.07159 24.454996,18.80686 25.632096,18.83607 0.3931,0.01 -1.7764,-4.07122 -4.8211,-9.06884 -6.8751,-11.28521 -11.8524,-21.18008 -13.2864,-26.41342 -1.4656,-5.34893 -1.448,-15.50001 0.027,-15.50001 0.6238,0 10.8309,5.28751 22.6824,11.75001 11.8515,6.4625 21.9033,11.89573 22.3373,12.07383 0.434,0.17811 -0.789,-2.29689 -2.7178,-5.5 -5.6783,-9.42965 -7.5754,-18.37722 -5.7895,-27.30655 l 0.6465,-3.23272 4.1954,7.63798 c 4.5534,8.28982 8.4645,12.9479 12.7518,15.18738 1.5071,0.78726 7.13211,2.32745 12.50001,3.42265 19.9304001,4.0664 32.00939,9.46795 39.04439,17.46016 5.7937,6.5821 6.6938,10.86849 4.7799,22.76291 -0.8605,5.34756 -1.5547,12.76517 -1.5426,16.48359 l 0.022,6.76077 2.0329,-4.48202 c 2.9268,-6.45244 4.6645,-8.01798 8.8999,-8.01798 3.0445,0 4.9938,1.10319 11.4852,6.5 4.30005,3.575 8.36055,6.5 9.02315,6.5 2.0175,0 4.3071,-3.29262 5.0415,-7.25 0.3828,-2.0625 0.9112,-3.75 1.1743,-3.75 0.9102,0 4.3529,4.51591 6.4801,8.5 3.1408,5.88257 2.9043,12.16966 -0.5702,15.15826 -3.5184,3.02649 -7.8676,2.96768 -13.6109,-0.18404 -8.00345,-4.39202 -11.15445,-5.59316 -13.85305,-5.2807 -3.4602,0.40064 -3.8831,3.35384 -1.3125,9.16512 1.6018,3.62125 2.5799,4.56852 5.3143,5.14719 7.19345,1.52229 14.91785,6.7441 23.36095,15.79227 l 8.3238,8.92038 6.7174,-2.23538 c 12.4981,-4.15913 24.203702,-1.06774 32.227002,8.51102 3.5,4.17854 8.1348,6.50843 12.9225,6.49612 4.0101,-0.0103 12.9704,-3.669 15.0014,-6.12541 1.0342,-1.25079 0.3275,-1.39779 -5.068,-1.05424 -6.1362,0.39073 -6.3711,0.31149 -11.0291,-3.72001 -6.6624,-5.76628 -10.202,-7.40791 -14.678,-6.80755 l -3.7479,0.50269 1.0459,-3.00042 c 1.4174,-4.06589 6.1329,-5.91457 14.3158,-5.61245 7.3063,0.26976 10.1567,-1.19415 6.3217,-3.2466 -2.8064,-1.50195 -25.1602,-6.27753 -29.186702,-6.23534 -3.9166,0.041 -5.9857,2.49171 -6.6282,7.85049 l -0.5473,4.56445 -5.7875,-5.16639 c -12.4201,-11.08702 -12.8279,-21.29518 -1.0768,-26.95428 3.7737,-1.81737 7.0721,-2.44157 14.7115,-2.78409 l 9.847102,-0.44151 -5.0971,-5.16123 c -2.8035,-2.83868 -5.097202,-5.48459 -5.097202,-5.8798 0,-0.3952 1.575,-0.71855 3.500002,-0.71855 2.9675,0 3.4977,-0.34232 3.4847,-2.25 -0.01,-1.2375 -0.3459,-2.70916 -0.75,-3.27035 -1.3712,-1.90444 -6.311802,-3.47965 -10.913702,-3.47965 -6.6438,0 -10.571,2.86686 -15.5087,11.32147 l -4.1767,7.15154 -1.4838,-3.48651 c -0.816,-1.91757 -1.6819,-6.22864 -1.9243,-9.58014 -0.4979,-6.88761 0.9594,-10.75982 6.0807,-16.15636 l 3.0842,-3.25 -2.4462,-0.022 c -3.1104,-0.0279 -10.7911,-3.48727 -13.6025,-6.12644 -1.4557,-1.36652 -4.0562,-2.19654 -8.0033,-2.55445 -6.8178,-0.61821 -11.16425,0.85325 -16.58875,5.61604 l -3.6029,3.16338 -2.8677,-4.28828 c -4.185,-6.25802 -5.2811,-9.30631 -5.2811,-14.68742 0,-8.9056 7.9838,-16.10083 17.8653,-16.10083 3.96485,0 5.01535,-0.54267 9.78735,-5.05589 8.4623,-8.00323 12.1786,-9.22605 30.3474,-9.98554 8.525,-0.35636 16.625002,-1.11618 18.000002,-1.68849 4.9221,-2.04868 6.5017,-4.94369 6.4808,-11.87778 -0.011,-3.51577 0.1199,-6.39231 0.2899,-6.39231 1.5125,0 8.3729,4.49614 10.9286,7.16237 3.9854,4.1577 6.0754,9.0689 6.921,16.26385 0.3603,3.06558 0.9306,5.57269 1.2674,5.57135 0.3368,-10e-4 2.016,-3.03885 3.7315,-6.75001 l 3.1192,-6.74756 1.6811,3.83813 c 2.4787,5.65934 3.8142,14.2336 3.1224,20.04574 l -0.6091,5.11614 2.7775,-4.49095 2.7774,-4.49094 1.2638,6.49094 c 0.6951,3.57002 1.1479,11.41689 1.0062,17.43748 l -0.2577,10.94653 7.8351,1.93648 7.835,1.93648 -0.335,6.03764 -0.3351,6.03765 5.2277,1.82028 c 2.8752,1.00116 8.50017,2.07309 12.49997,2.38207 3.9998,0.30899 8.73486,0.78345 10.52236,1.05438 l 3.25,0.49259 0,12.89341 0,12.89342 4.25,0.60155 c 2.3375,0.33085 6.95,0.92454 10.25,1.31931 l 6,0.71777 -0.36133,9.24196 c -0.35609,9.10786 -0.32762,9.24196 1.96215,9.24196 1.38393,0 4.05735,-1.70167 6.61133,-4.20821 l 4.28785,-4.20821 4.28785,4.20821 c 2.55398,2.50654 5.2274,4.20821 6.61133,4.20821 2.28989,0 2.31826,-0.13372 1.96215,-9.25 l -0.36133,-9.25 9.5,-1.16442 c 5.225,-0.64044 9.8375,-1.20294 10.25,-1.25 0.4125,-0.0471 0.75,-5.9152 0.75,-13.04028 l 0,-12.95468 3.25,-0.49259 c 1.7875,-0.27093 6.52256,-0.74539 10.52236,-1.05438 3.9998,-0.30898 9.6248,-1.38091 12.5,-2.38207 l 5.22764,-1.82028 -0.33504,-6.03765 -0.33504,-6.03764 7.83504,-1.93648 7.83504,-1.93648 -0.25765,-10.94653 c -0.1417,-6.02059 0.31107,-13.86746 1.00617,-17.43748 l 1.26381,-6.49094 2.77743,4.49094 2.77744,4.49095 -0.60903,-5.11614 c -0.69193,-5.81256 0.64379,-14.387 3.12271,-20.04574 l 1.68137,-3.83813 3.05282,6.75 c 1.67905,3.7125 3.35809,6.75001 3.7312,6.75001 0.3731,0 0.97316,-2.50821 1.33346,-5.57379 0.84562,-7.19495 2.93555,-12.10615 6.92095,-16.26385 2.68315,-2.79914 9.43735,-7.16237 11.08723,-7.16237 0.25717,0 0.2534,2.3625 -0.008,5.25 -0.53835,5.93794 0.68886,8.99438 4.85247,12.08541 2.38124,1.7678 4.82067,2.10916 19,2.65875 14.93241,0.57877 16.73129,0.85299 21.91087,3.34012 3.10357,1.49028 7.50034,4.72473 9.77059,7.18767 3.7028,4.01747 4.58599,4.47806 8.58652,4.47806 15.09205,0 22.98033,13.17661 15.92494,26.60106 -1.41608,2.69442 -3.42377,5.76913 -4.46153,6.8327 -1.86301,1.90933 -1.91264,1.90096 -3.9292,-0.66268 -1.12329,-1.42804 -4.10631,-3.59558 -6.62893,-4.81676 -3.83734,-1.85762 -5.58303,-2.11617 -10.68652,-1.58275 -3.96955,0.4149 -6.81925,1.31279 -8.15953,2.57093 -2.72892,2.56167 -10.44084,6.00802 -13.50576,6.03554 l -2.44616,0.022 3.08421,3.25 c 5.12126,5.39654 6.5786,9.26875 6.08061,16.15636 -0.24232,3.3515 -1.11645,7.66864 -1.94252,9.59364 l -1.50194,3.5 -3.22479,-5.68854 c -1.77364,-3.1287 -4.99874,-7.2912 -7.1669,-9.25 -3.24472,-2.93142 -4.71127,-3.56146 -8.29,-3.56146 -4.77303,0 -10.72964,1.71153 -11.88103,3.4138 -0.40408,0.59741 -0.74158,2.0987 -0.75,3.3362 -0.013,1.90768 0.51719,2.25 3.48469,2.25 1.925,0 3.5,0.35631 3.5,0.79179 0,0.43549 -2.025,2.77918 -4.5,5.20821 -2.475,2.42903 -4.5,4.71141 -4.5,5.07195 0,0.36054 4.1625,0.8793 9.25,1.1528 24.1066,1.29594 29.9511,14.6165 13.03756,29.71471 l -5.78756,5.16639 -0.52594,-4.30292 c -1.07643,-8.80663 -2.77411,-9.30116 -20.01023,-5.82899 -7.44489,1.49975 -14.5807,3.28584 -15.85736,3.96909 -3.81075,2.03945 -0.91064,3.59621 6.13104,3.2911 9.67012,-0.41899 12.28707,0.92129 15.46556,7.92075 0.16356,0.36018 -1.42948,0.42326 -3.5401,0.14016 -4.57499,-0.61363 -8.05978,0.98995 -14.76761,6.79554 -4.65804,4.0315 -4.89296,4.11074 -11.02913,3.72001 -5.39546,-0.34355 -6.10215,-0.19655 -5.06798,1.05424 2.00627,2.42648 10.97058,6.11503 14.88665,6.12541 5.46539,0.0145 8.13709,-1.34203 13.86473,-7.0396 9.71124,-9.66027 18.53519,-11.86701 31.47296,-7.87094 l 6.73326,2.07969 7.90093,-8.52281 c 8.07715,-8.7129 14.88724,-13.42808 22.73876,-15.74389 3.74881,-1.10571 4.67785,-1.93469 6.31435,-5.63426 4.75752,-10.75518 -0.24074,-11.99874 -15.20989,-3.78421 -5.74328,3.15172 -10.09242,3.21053 -13.6109,0.18404 -2.20096,-1.89318 -2.72084,-3.18612 -2.71411,-6.75 0.009,-4.91898 2.82298,-11.18835 6.60527,-14.71757 l 2.47491,-2.30931 0.70703,3.80931 c 0.75658,4.07627 3.03185,7.30931 5.14399,7.30931 0.71291,0 4.8004,-2.925 9.08329,-6.5 6.42037,-5.35918 8.42011,-6.5 11.39382,-6.5 4.16948,0 5.92517,1.59247 8.83975,8.01798 l 2.03303,4.48202 0.022,-6.87613 c 0.0121,-3.78188 -0.70693,-11.15225 -1.5978,-16.37861 -1.33208,-7.81479 -1.40259,-10.23445 -0.39705,-13.62387 3.597,-12.12447 19.4804,-21.86559 42.64441,-26.15336 15.71064,-2.90811 19.40431,-5.46465 26.58832,-18.40288 4.59521,-8.27584 5.58179,-8.01627 5.71379,1.50334 0.092,6.63191 -2.03293,13.56007 -6.36575,20.75534 -1.92883,3.20311 -3.15718,5.67811 -2.72965,5.5 0.42748,-0.1781 10.5056,-5.61133 22.39577,-12.07383 11.89018,-6.4625 22.10256,-11.75001 22.69419,-11.75001 1.41554,0 1.39462,10.29533 -0.0315,15.50001 -1.43396,5.23334 -6.41127,15.12821 -13.28644,26.41342 -3.04465,4.99762 -5.21413,9.0786 -4.82106,9.06884 1.17706,-0.0292 17.14637,-11.76448 25.63206,-18.83607 l 7.91738,-6.59799 -3.36853,-0.68894 c -5.49599,-1.12405 -7.75049,-5.9825 -4.21624,-9.08599 2.87462,-2.52426 5.88974,-2.95063 9.6766,-1.36839 2.8116,1.17476 3.5734,2.05288 3.5734,4.11899 0,4.51756 -8.51922,16.06114 -22.16183,30.02939 -7.22328,7.39571 -12.9123,13.44674 -12.64225,13.44674 1.81794,0 13.1333,-4.55651 17.74291,-7.14478 7.07031,-3.96994 12.06095,-7.76408 19.43165,-14.77295 l 5.87046,-5.58227 -0.5465,4.40806 c -1.82917,14.75392 -17.64535,32.70126 -47.91573,54.37221 -5.76052,4.12402 -7.30573,5.68725 -6.0848,6.15577 2.4707,0.9481 20.41641,-1.24592 32.6905,-3.9967 5.98641,-1.34163 11.13377,-2.43933 11.43856,-2.43933 0.3048,0 -0.43068,-0.91753 -1.63439,-2.03896 -4.44937,-4.14522 -1.57815,-9.96105 4.91767,-9.96105 6.6889,0 10.30546,5.50748 6.10988,9.30443 -4.89396,4.42898 -31.84925,13.96647 -51.52033,18.22927 -4.29232,0.93016 -7.6658,1.82962 -7.49662,1.99881 0.16919,0.16918 5.03109,1.55947 10.80422,3.08952 9.26624,2.45583 12.31349,2.78718 25.99662,2.82676 11.92474,0.0345 16.71097,-0.34565 20.75,-1.64807 2.8875,-0.9311 5.25,-1.42957 5.25,-1.10771 0,1.58661 -12.10963,14.07997 -17.88612,18.45288 -10.68893,8.09173 -26.55501,14.81807 -35.07398,14.86943 -4.254,0.0257 -5.51897,1.441 -2.84957,3.18835 4.88033,3.1946 13.6445,7.20131 21.74726,9.94219 10.0453,3.39798 10.06241,3.39944 10.06241,0.85415 0,-3.06695 3.55754,-6 7.27749,-6 4.63001,0 7.72251,2.44585 7.72251,6.10773 0,2.47158 -0.60541,3.24728 -3.46788,4.4433 -7.88701,3.2954 -24.13548,1.26331 -43.95407,-5.49707 -4.90708,-1.67386 -9.10675,-2.85859 -9.33261,-2.63273 -0.80835,0.80835 13.95761,10.46803 22.03062,14.41211 8.14043,3.97702 16.61835,6.47616 26.13351,7.70369 l 4.90956,0.63337 -2.90956,2.36971 c -5.14403,4.18958 -14.07424,8.45474 -22.09562,10.5531 -8.74765,2.28836 -25.79293,2.74012 -35.22581,0.93361 -2.97652,-0.57004 -5.55834,-0.88995 -5.73738,-0.71091 -0.17905,0.17904 2.06588,3.22475 4.98871,6.76824 5.47048,6.63211 14.81019,15.22898 22.58062,20.78465 l 4.42009,3.16025 2.21198,-2.07806 c 4.3227,-4.061 13.44784,-1.67563 13.44784,3.51532 0,4.77255 -7.11471,7.02672 -13.52022,4.28365 -13.49506,-5.77908 -24.99095,-12.86072 -42.43616,-26.1413 -1.95029,-1.48471 2.15245,5.33076 8.18222,13.59227 6.77638,9.28447 18.68685,20.203 30.93299,28.3568 l 10.34117,6.88542 -4.5,0.84057 c -6.66281,1.24456 -21.46122,0.11286 -30,-2.29424 -9.65899,-2.7229 -18.11146,-6.82994 -35.8534,-17.42114 -7.89437,-4.71261 -14.55084,-8.56838 -14.79215,-8.56838 -1.90111,0 13.77656,22.46197 22.44584,32.15896 5.18628,5.80111 6.13905,6.47313 7.39572,5.21646 2.61065,-2.61066 7.9919,-2.80205 11.0543,-0.39316 3.45688,2.71918 3.49399,5.28711 0.11483,7.94516 -3.50363,2.75596 -7.24081,2.61541 -11.36514,-0.42742 -1.86371,-1.375 -3.88433,-2.5 -4.49026,-2.5 -3.69623,0 -23.38154,-14.40097 -36.90747,-27 l -6.97819,-6.5 5.78955,11 c 8.24945,15.67375 15.92873,27.06464 22.73722,33.72675 3.24506,3.17529 5.4745,5.77325 4.95431,5.77325 -2.04349,0 -18.95969,-6.40897 -25.10516,-9.51149 -9.47147,-4.78163 -22.80994,-13.81303 -36.66032,-24.82247 -6.68817,-5.31632 -12.48684,-9.66604 -12.88592,-9.66604 -1.70962,0 0.82604,9.59885 5.13443,19.43657 4.22333,9.64352 4.84807,10.55319 6.78184,9.87486 3.4812,-1.22115 7.5234,-0.71785 9.64339,1.20072 4.25341,3.84927 0.97681,9.48785 -5.51342,9.48785 -3.22535,0 -7.5,-2.38199 -7.5,-4.17927 0,-0.58623 -2.64961,-3.89831 -5.88802,-7.36018 -6.00412,-6.41842 -12.5529,-16.36022 -22.15778,-33.63805 -2.95889,-5.32262 -5.68819,-9.4869 -6.06511,-9.25395 -0.37692,0.23295 -0.99996,3.55669 -1.38454,7.3861 -0.72612,7.23043 0.45609,17.22659 3.17776,26.8695 0.8265,2.92829 1.28334,5.54353 1.01522,5.81165 -0.94373,0.94373 -18.19308,-14.71788 -26.55877,-24.11412 -2.94868,-3.31192 -7.78618,-9.61767 -10.75,-14.01278 l -5.38876,-7.9911 0,4.7411 c 0,2.60761 -0.24532,4.7411 -0.54516,4.7411 -0.29984,0 -3.92343,-2.27963 -8.05243,-5.06586 -4.129,-2.78622 -7.90573,-4.92372 -8.39273,-4.75 -1.63168,0.58205 2.69114,10.91197 5.99121,14.31677 3.50526,3.61652 10.15439,6.88997 16.32895,8.03896 2.10641,0.39197 3.96931,1.21835 4.13979,1.8364 2.92906,10.61949 8.3722,17.66179 17.34942,22.4466 3.2785,1.74742 6.43112,3.17713 7.00583,3.17713 0.57471,0 2.30352,0.47852 3.8418,1.06337 l 2.79688,1.06337 -4.98178,2.69059 c -6.89549,3.72415 -6.89752,6.57835 -0.007,10.12332 4.82046,2.48005 5.57959,2.56143 24.5,2.62642 16.00206,0.055 20.22501,0.37113 23.4024,1.75204 3.67408,1.59677 4.49111,1.58018 15.61109,-0.31708 16.32179,-2.78477 22.05971,-2.67414 25.82955,0.49797 2.17023,1.82613 4.14514,2.5015 7.32673,2.50558 11.22805,0.0144 16.85545,4.52878 16.85545,13.52192 0,5.60447 -1.70805,15.42567 -2.90859,16.7243 -0.38226,0.41349 -1.50735,-1.50722 -2.5002,-4.26824 -1.79867,-5.00192 -4.66152,-8.0118 -7.56372,-7.95218 -0.84012,0.0173 -4.21603,1.36726 -7.50203,3 -7.31164,3.633 -10.43942,3.69665 -17.52546,0.35668 -4.99869,-2.3561 -20.66516,-5.33297 -28,-5.32041 l -2.5,0.004 3,2.46251 c 7.49348,6.15093 19.03985,10.68512 30.5,11.97717 7.82139,0.88181 13.76878,3.71893 14.58117,6.95577 0.41098,1.63749 2.01141,3.30813 4.28731,4.47541 4.40487,2.2592 7.63532,5.5992 9.06491,9.3723 1.43408,3.78495 1.27321,12.48875 -0.29899,16.17633 l -1.27538,2.99144 -1.21405,-4.82143 c -0.66773,-2.65179 -2.36203,-5.96941 -3.76512,-7.3725 -2.36639,-2.36639 -2.96114,-2.49514 -8.21546,-1.77842 -12.41073,1.6929 -17.22927,-0.0253 -22.07955,-7.87325 -1.97436,-3.19458 -2.49437,-3.43036 -8.39446,-3.80605 -8.64576,-0.55052 -15.80024,-4.25988 -23.74881,-12.31299 -6.36752,-6.45126 -9.37995,-7.79591 -12.71858,-5.6772 -2.02543,1.28534 3.07209,9.57967 10.94098,17.80239 3.75982,3.92888 6.89009,7.75388 6.95617,8.5 0.0661,0.74612 0.25384,6.39496 0.41724,12.55298 0.28474,10.73071 0.19554,11.29795 -2.1446,13.6381 -3.58716,3.58715 -6.22324,3.88121 -18.28435,2.03961 l -3.39157,-0.51785 5.15992,-2.39063 c 8.02968,-3.7202 8.90229,-9.52429 1.79905,-11.96626 -2.03213,-0.69862 -4.35781,-1.82048 -5.16819,-2.49303 -1.63636,-1.35806 -3.49346,-7.17264 -3.50206,-10.96496 -0.003,-1.38551 -3.38823,-7.57081 -7.75558,-14.17116 -7.30266,-11.03647 -8.22272,-12.01034 -15.93979,-16.87199 -7.59853,-4.78699 -8.94967,-5.27001 -18.71505,-6.69056 l -10.52525,-1.53109 -4.0125,3.17796 c -2.23659,1.77141 -5.26663,3.21362 -6.84608,3.25852 -3.32376,0.0945 -7.4199,-2.35623 -9.6649,-5.78253 -1.75726,-2.68191 -4.68611,-3.17206 -6.42616,-1.07543 -0.61855,0.74529 -1.73647,3.10779 -2.48428,5.25 l -1.35965,3.89491 -1.30563,-5.78722 c -1.21277,-5.37564 -1.16272,-5.98016 0.70377,-8.5 1.86043,-2.51165 8.3808,-6.73899 14.32552,-9.28764 1.52419,-0.65346 4.25646,-0.77371 7,-0.30807 4.79097,0.81313 10.45453,0.63515 14.40847,-0.45277 2.36732,-0.65137 2.30163,-0.80478 -3.37468,-7.88181 l -5.78898,-7.2175 -4.38897,3.41941 c -5.21436,4.06247 -14.60479,6.82651 -20.35584,5.99165 -6.71517,-0.9748 -13.5,-2.80968 -13.5,-3.65091 0,-0.43822 1.80043,-1.98823 4.00096,-3.44447 9.739,-6.44497 10.58053,-17.00894 1.49904,-18.8179 -2.56318,-0.51057 -3.39546,-0.0994 -5.71598,2.82376 -11.94653,15.04914 -11.12158,37.61591 1.86211,50.93851 5.63578,5.78288 10.55355,7.90421 18.22143,7.85997 5.4866,-0.0317 7.65941,-0.62049 13.8108,-3.74277 8.25393,-4.18948 9.54453,-3.91623 11.28559,2.38937 1.7282,6.259 -2.67153,12.72406 -10.73184,15.7696 -0.14733,0.0557 0.4124,1.40567 1.24384,3 3.04077,5.83076 1.07718,11.79067 -6.04871,18.35908 l -4.38255,4.0397 3.72765,-0.022 c 4.55192,-0.0268 11.73935,-3.15999 15.56924,-6.78699 3.59988,-3.40917 6.67344,-9.28449 8.20849,-15.69105 l 1.19803,-5 3.87033,8 c 7.52941,15.56336 4.34231,26.22985 -10.08026,33.73633 -2.75793,1.43541 -2.96715,1.94863 -3.03903,7.45476 -0.13627,10.43726 -6.2137,17.88573 -20.26082,24.83155 -3.69828,1.82868 -6.89754,3.15147 -7.10946,2.93955 -0.21193,-0.21192 0.1754,-3.98979 0.86073,-8.39526 2.80887,-18.05626 -2.09319,-26.85789 -17.57406,-31.55412 -6.4199,-1.94752 -6.41553,-1.94829 -6.41553,1.12117 0,7.81156 4.54913,14.41534 11.60006,16.83934 l 3.82554,1.31516 -3.9628,1.10018 c -5.39457,1.49769 -12.85512,1.39263 -16.74492,-0.23579 -5.72089,-2.39499 -10.17756,-8.57829 -14.81313,-20.55216 -4.99161,-12.89354 -5.88903,-12.78024 -6.66571,0.8415 -0.42416,7.43908 -0.19813,9.21766 1.62576,12.79278 2.08791,4.09264 8.6386,11.26501 10.2886,11.26501 1.53128,0 0.87577,2.45179 -1.40837,5.26772 -2.05576,2.53439 -2.53955,2.68192 -5.73843,1.75 -5.79983,-1.68965 -9.59842,-1.23206 -12.91099,1.55528 -4.15258,3.49417 -5.35138,8.66254 -5.22887,22.54318 l 0.10253,11.61618 -4.62421,0.63382 c -4.69201,0.64311 -6.28991,0.63141 -12.08039,-0.0885 z m -60.7647,-82.06147 c 2.2,-1.34703 5.7446,-4.08425 7.8769,-6.08269 4.2018,-3.93805 12.62313,-14.78826 12.62313,-16.26387 0,-0.50068 -1.75398,-0.0155 -3.89774,1.07816 -2.14379,1.09366 -7.20629,2.90271 -11.24999,4.0201 -4.0438,1.1174 -8.4773,2.85121 -9.8523,3.85293 -3.6012,2.62355 -5.9966,7.96568 -5.9984,13.37712 l 0,4.69798 3.25,-1.11529 c 1.7875,-0.6134 5.05,-2.2174 7.25,-3.56444 z m 144.56113,-6.39253 c -1.23376,-4.13378 -5.86768,-8.53657 -9.88817,-9.39497 -4.88786,-1.0436 -12.62562,-3.60568 -16.42293,-5.43787 -2.0625,-0.99515 -3.75,-1.46772 -3.75,-1.05015 0,1.26667 5.98666,9.28939 10.3717,13.89911 5.10569,5.36728 11.46983,9.86148 16.3909,11.57485 l 3.7374,1.30125 0.32916,-3.60796 c 0.18104,-1.98438 -0.16459,-5.2623 -0.76806,-7.28426 z M 49.740198,335.58687 c 6.4158,-2.75016 16.1432,-9.72161 26.2418,-18.80708 l 8.3422,-7.50533 3.4738,1.87076 c 5.0829,2.7373 15.480202,12.58331 19.420302,18.39045 1.8818,2.77347 3.9242,5.05428 4.5387,5.06846 2.3319,0.0538 15.9747,-15.59312 19.3981,-22.24763 2.9749,-5.78258 3.2652,-6.91404 1.9846,-7.73469 -2.4183,-1.54978 -2.7218,-1.29394 -6.1913,5.2194 -1.8198,3.4162 -5.7034,8.79861 -8.6302,11.9609 l -5.3215,5.74962 -8.1785,-8.35066 C 100.32,314.6082 93.754598,309.03626 90.228298,306.81898 l -6.4114,-4.03142 -9.3688,8.67118 c -8.7814,8.12756 -23.5711,19.10006 -25.8084,19.1473 -0.55,0.0116 -1.8241,-2.79077 -2.83134,-6.22751 -2.09371,-7.14402 -9.57311,-22.77472 -11.19581,-23.39741 -0.5968,-0.229 -5.3348,0.72217 -10.529,2.1137 -5.194,1.39153 -11.0347,2.53119 -12.9791,2.53258 l -3.5353899,0.003 0.4014,-9.99343 c 0.2208,-5.49639 0.096,-12.43561 -0.2767,-15.4205 l -0.678,-5.42705 -7.68799996,-0.63928 C -14.676342,272.98565 -14.081142,273.33151 -13.341442,266.78768 c 0.3518,-3.1115 1.519,-8.97971 2.5939,-13.04047 1.0748001,-4.06075 1.7600001,-7.57748 1.5225001,-7.81496 -0.2375,-0.23747 -3.2341001,-1.08551 -6.6592001,-1.88453 -10.281,-2.39887 -13.6182,-5.25518 -11.0029,-9.4178 0.5183,-0.825 4.4489,-5.00916 8.7347,-9.29813 l 7.7922,-7.79814 -3.0764,-2.70187 c -1.692,-1.48603 -5.967,-5.21967 -9.5,-8.29698 -3.533,-3.07731 -7.0598,-6.78544 -7.8374,-8.24028 -1.26931,-2.37488 -1.21821,-2.86168 0.5,-4.7639 1.0526,-1.16529 5.2082,-3.92782 9.2346,-6.13894 4.0264,-2.21113 6.9514,-4.34191 6.5,-4.73507 -0.4514,-0.39317 -3.3809,-1.72618 -6.51,-2.96224 -3.129,-1.23607 -7.3931,-3.72029 -9.4756,-5.5205 l -3.78641,-3.2731 3.97561,-2.01171 c 2.1866,-1.10643 7.2381,-3.05595 11.2256,-4.33226 7.1059,-2.27444 8.05,-3.11772 6.4006,-5.71748 -1.1262,-1.77523 -13.7263,2.2627 -22.67311,7.26607 l -6.6892,3.74083 4.7279,4.8001 c 2.6003,2.64005 6.24801,5.61871 8.10591,6.61925 1.8578,1.00053 3.3779,2.13011 3.3779,2.51018 0,0.38008 -1.4625,1.59806 -3.25,2.70663 -1.7875,1.10858 -4.75871,3.57691 -6.60271,5.48518 l -3.3528,3.46958 4.0334,5.45982 c 2.2184,3.0029 6.65211,7.63756 9.85281,10.29924 3.2006,2.66167 6.2483,5.1996 6.7726,5.63983 0.5544,0.46552 -1.6432,3.32539 -5.2525,6.83536 -3.4132,3.31922 -7.3214,8.23648 -8.68491,10.92725 l -2.4791,4.89231 3.89341,3.08366 c 4.323,3.42386 9.9631,6.05531 12.9787,6.05531 2.8477,0 3.075,0.93254 1.607,6.59203 -0.722,2.78325 -1.6354,8.50499 -2.03,12.71498 l -0.7172,7.65452 2.8656,1.16086 c 1.5762,0.63848 5.5657,1.34413 8.8657001,1.56811 3.3,0.22399 7.06950004,0.63312 8.3766,0.90919 l 2.3766,0.50195 -0.5425,13.69918 c -0.2984,7.53455 -0.8665,14.74496 -1.2625,16.02313 l -0.72009996,2.32395 7.38599996,-0.70396 c 4.0621899,-0.38717 10.7203899,-1.54545 14.7958899,-2.57395 4.0754,-1.02849 7.9413,-1.86999 8.5909,-1.86999 1.7036,0 6.9557,11.2889 10.1807,21.88278 1.5266,5.01447 2.8604,9.11722 2.964,9.11722 0.1037,0 2.33335,-0.91937 4.95485,-2.04305 z M 412.45801,328.5127 c 3.22504,-10.59388 8.47711,-21.88278 10.18077,-21.88278 0.64957,0 4.51551,0.84779 8.59099,1.88399 4.07548,1.03619 10.73863,2.2135 14.80699,2.61625 l 7.39704,0.73227 -0.73114,-2.36625 c -1.11704,-3.61519 -1.94251,-29.8587 -0.94112,-29.92018 6.06549,-0.3724 16.4952,-1.95756 18.74388,-2.84878 l 2.86568,-1.13577 -0.71729,-7.65452 c -0.39451,-4.20999 -1.30798,-9.93173 -2.02995,-12.71498 -1.48905,-5.74046 -1.25656,-6.5831 1.82489,-6.61399 3.04887,-0.0306 9.56649,-3.14163 13.4506,-6.42041 l 3.25963,-2.75161 -2.65216,-4.87288 c -1.45868,-2.68009 -5.37696,-7.5725 -8.70727,-10.87203 -3.33032,-3.29953 -5.85368,-6.14487 -5.60747,-6.32298 4.99412,-3.61278 14.09762,-12.3802 17.16233,-16.52874 l 3.98385,-5.39274 -2.84926,-3.04276 c -1.5671,-1.67351 -4.77252,-4.2832 -7.12315,-5.79931 l -4.27388,-2.75656 4.27388,-2.5292 c 2.35063,-1.39106 6.23292,-4.54207 8.6273,-7.00224 l 4.35341,-4.47304 -6.68676,-3.73945 c -8.94475,-5.00219 -21.54452,-9.03972 -22.67066,-7.26468 -1.64936,2.59975 -0.70532,3.44303 6.40059,5.71747 9.69023,3.10162 14.80536,5.76527 14.18347,7.38589 -0.58748,1.53096 -9.39914,6.85014 -14.43347,8.7128 -1.925,0.71223 -3.87518,1.62053 -4.33373,2.01843 -0.45856,0.3979 2.49658,2.56183 6.56696,4.80873 4.07039,2.2469 8.23177,5.0036 9.24752,6.12598 3.09935,3.42475 2.01611,4.78292 -16.88909,21.17564 l -3.06119,2.65436 8.73476,9.06094 c 4.80413,4.98352 8.73477,9.87953 8.73477,10.88004 0,2.44294 -4.42358,4.90577 -11.97601,6.66763 -3.42507,0.79902 -6.4217,1.64706 -6.65917,1.88453 -0.23748,0.23748 0.44766,3.75421 1.52253,7.81496 1.07487,4.06076 2.24042,9.91551 2.59011,13.01057 0.74255,6.57207 1.18618,6.30109 -12.16107,7.42822 l -8.18362,0.69107 -0.69616,6.50064 c -0.38288,3.57535 -0.47984,10.63619 -0.21545,15.69077 l 0.4807,9.19013 -6.0273,-0.82428 c -3.31501,-0.45336 -9.14061,-1.75147 -12.94578,-2.8847 -3.80516,-1.13323 -7.45132,-1.85594 -8.10256,-1.60604 -1.70341,0.65366 -9.14068,16.08501 -11.29491,23.43542 -1.00722,3.43674 -2.31137,6.24924 -2.8981,6.25 -2.17128,0.003 -16.621,-10.76437 -25.70388,-19.15321 l -9.37063,-8.6546 -6.42809,4.087 c -6.37236,4.05158 -18.62524,15.37514 -20.79975,19.2222 -1.05851,1.87268 -1.49653,1.61672 -6.88067,-4.0208 -3.1626,-3.31144 -7.23908,-8.82394 -9.05883,-12.25 -3.46906,-6.53121 -3.77218,-6.78763 -6.19136,-5.23731 -1.28057,0.82065 -0.99025,1.95211 1.98461,7.73469 3.42343,6.65451 17.06625,22.30145 19.39807,22.24763 0.61453,-0.0142 2.6624,-2.30289 4.55084,-5.08603 3.89393,-5.7388 14.25836,-15.45963 19.48331,-18.27346 l 3.49539,-1.88239 8.29389,7.46144 c 9.74754,8.76919 19.70916,15.96957 25.88198,18.70784 2.42655,1.07641 4.64653,1.9889 4.9333,2.02775 0.28676,0.0388 1.77036,-4.03211 3.29689,-9.04658 z M 112.6435,148.50155 c 1.9154,-1.3044 3.4856,-2.89908 3.4894,-3.54372 0.01,-1.67032 -7.7443,-8.16532 -12.6199,-10.5707 -4.628002,-2.28328 -7.577702,-1.95744 -11.710802,1.29363 -3.337,2.62489 -3.3463,4.36379 -0.047,8.6899 5.815,7.6239 13.520902,9.14785 20.887902,4.13089 z M 99.825898,146.5141 c -4.9229,-2.86337 -3.0988,-10.81787 2.492402,-10.86888 4.6851,-0.0427 6.5968,7.62778 2.5989,10.42799 -2.5934,1.8165 -2.709,1.82651 -5.091302,0.44089 z m 256.948002,3.19721 c 3.64748,-2.22412 8.36583,-8.06336 8.36583,-10.35321 0,-1.85678 -4.37203,-5.53248 -7.52046,-6.32268 -3.07776,-0.77247 -8.8247,1.85999 -14.5799,6.67851 -5.3567,4.48489 -5.77311,5.49069 -3.14964,7.60757 5.53392,4.46532 11.98335,5.37819 16.88417,2.38981 z m -7.41166,-3.6381 c -4.59926,-3.22145 -1.29022,-11.43006 4.06576,-10.0858 4.73663,1.18882 5.28882,8.19292 0.83388,10.57713 -2.49519,1.33538 -2.25763,1.3592 -4.89964,-0.49133 z M 36.146848,187.03693 c -5.0297,-2.18115 -8.0072,-5.33235 -8.0072,-8.47435 0,-3.50973 2.1881,-4.29877 6.6968,-2.41492 8.9124,3.72387 20.20555,2.56269 24.83575,-2.55369 2.5922,-2.86425 3.8768,-2.45506 6.9709,2.22037 l 2.7691,4.18444 -2.5871,2.22533 c -6.6772,5.74352 -22.72615,8.26129 -30.67825,4.81282 z m 358.556572,-0.89484 c -3.26497,-1.3422 -6.79614,-3.30018 -7.84704,-4.35108 -1.88096,-1.88097 -1.8682,-1.97497 0.8192,-6.03591 2.96035,-4.47338 4.46513,-5.0365 6.59171,-2.46671 2.25149,2.72073 9.0641,5.30062 13.87244,5.25341 2.475,-0.0243 6.975,-0.85449 10,-1.84486 6.50983,-2.13129 8,-1.78377 8,1.86564 0,8.76037 -18.0042,13.1013 -31.43631,7.57951 z"
       id="path3889-2"
       inkscape:connector-curvature="0" />
    <path
       style="fill:#feeb20;fill-opacity:1;stroke:#000000;stroke-width:2.0999999;stroke-miterlimit:4;stroke-opacity:1;stroke-dasharray:none"
       d="m 228.13196,187.17057 c -22.32101,-1.91 -41.82488,-13.89051 -54.49274,-33.47289 -6.32772,-9.78158 -10.19667,-19.86212 -11.99608,-31.25573 l -0.49718,-3.14806 -0.0682,-44.466328 -0.0682,-44.46633 69.52849,0 69.52849,0 -6.6e-4,42.77987 c -6.6e-4,27.541068 -0.0814,43.700998 -0.22689,45.365768 -1.25742,14.38426 -7.08927,28.81944 -16.57916,41.0372 -2.44398,3.14651 -8.49492,9.35825 -11.48468,11.78987 -7.94851,6.46468 -17.30006,11.23526 -26.88024,13.71261 -5.34113,1.38116 -13.44478,2.40796 -16.76305,2.12402 z"
       id="path3921-2"
       inkscape:connector-curvature="0" />
    <path
       style="fill:#000000"
       d="m 267.25138,104.83156 c 0,-1.1025 0.65564,-1.3545 2.39091,-0.91898 3.02515,0.75927 3.74791,-0.42342 4.50614,-7.373638 0.33162,-3.03974 1.10977,-5.69458 1.72921,-5.89965 0.61944,-0.20508 1.83375,1.33358 2.69847,3.41923 l 1.57221,3.79209 0.0515,-3.20295 c 0.0668,-4.15206 -1.76519,-8.1041 -4.10023,-8.84522 -1.6279,-0.51667 -1.85086,-1.74095 -1.8702,-10.26922 -0.0229,-10.09397 -1.69786,-16.05786 -5.36137,-19.08976 -1.48429,-1.22838 -2.07096,-1.1331 -4.61799,0.75 -1.60473,1.18643 -3.33343,2.15715 -3.84156,2.15715 -1.04643,0 -2.12308,3.39047 -2.14347,6.75 -0.0159,2.61967 -1.51423,2.99384 -2.4302,0.60687 -0.34679,-0.90372 -0.8713,-1.40236 -1.16557,-1.10808 -1.00819,1.00819 2.47853,7.75121 4.00804,7.75121 2.17866,0 4.6615,-4.23284 5.30738,-9.04826 0.90139,-6.7204 5.40531,-6.35689 6.69931,0.54071 0.86009,4.58468 0.9241,13.60696 0.12244,17.25692 l -0.64933,2.95635 -3.50286,-3.50286 c -3.64125,-3.64125 -4.62946,-3.50982 -5.93471,0.7893 -0.66941,2.20485 -0.57213,2.33903 0.8438,1.16391 0.88024,-0.73054 2.07015,-1.03795 2.64425,-0.68314 1.71743,1.06143 1.19464,3.84082 -1.4562,7.74187 -3.02275,4.44839 -3.13509,6.7081 -0.5,10.058068 1.1,1.39842 2,3.25911 2,4.13486 0,0.87575 0.675,1.59227 1.5,1.59227 0.825,0 1.5,-0.68357 1.5,-1.51905 z"
       id="path5086-4-1"
       inkscape:connector-curvature="0" />
    <path
       style="fill:#000000"
       d="m 247.84151,170.27418 c 0.43764,-2.98182 0.30048,-3.14559 -2.31335,-2.76196 -2.59997,0.38159 -2.74088,0.21933 -2.19215,-2.5243 0.54769,-2.73848 0.44607,-2.85699 -1.53894,-1.79465 -1.84324,0.98647 -2.04343,0.90209 -1.50813,-0.63568 1.03084,-2.96131 3.50325,-4.27314 8.05364,-4.27314 3.76842,0 4.4651,-0.34581 5.34171,-2.65148 0.60379,-1.58809 0.66313,-3.69362 0.14795,-5.25 -0.68401,-2.06644 -1.60275,-2.66151 -4.48679,-2.90614 -3.45298,-0.29289 -3.7494,-0.0654 -6.18955,4.75 -2.72461,5.37676 -5.04895,6.39502 -7.95777,3.48619 -2.208,-2.208 -2.00637,-2.47015 1.67857,-2.18238 l 3.25,0.25381 0.55835,-7 c 0.3071,-3.85 0.7048,-7.45001 0.88378,-8.00001 0.44639,-1.37169 -1.0441,-7.50526 -1.81713,-7.47776 -0.34375,0.0122 -1.75,0.90222 -3.125,1.97776 -1.375,1.07554 -3.26094,1.96554 -4.19098,1.97777 -0.93004,0.0122 -1.95515,0.44966 -2.27801,0.97206 -0.72006,1.16508 2.59991,3.05017 5.37186,3.05017 3.15408,0 1.47142,2.72138 -2.4913,4.02919 -1.87636,0.61926 -3.41157,1.71617 -3.41157,2.43759 0,0.72141 -0.93136,2.37401 -2.06969,3.67245 l -2.06969,2.36078 0.57336,-2.68871 c 0.91232,-4.27823 -0.98396,-4.13566 -2.94886,0.22171 -2.10888,4.67667 -5.24022,7.92146 -4.06198,4.20916 0.84779,-2.67115 0.32462,-2.77822 -2.98359,-0.61059 -2.48767,1.62998 -2.48909,1.62894 -1.46304,-1.06979 0.93863,-2.46877 0.83491,-2.67382 -1.2046,-2.38156 -1.44443,0.20697 -2.58693,1.37805 -3.2388,3.31978 -0.96117,2.86311 -2.26735,4.45147 -3.68795,4.48469 -0.36017,0.008 -0.41342,-1.78469 -0.11833,-3.98469 0.67617,-5.04123 -1.52321,-5.47107 -3.72683,-0.72836 -0.825,1.7756 -2.4,3.38454 -3.5,3.57542 -1.61743,0.28068 -1.76089,0.099 -0.75,-0.95 0.6875,-0.71338 1.25,-2.28993 1.25,-3.50344 0,-1.78363 -0.43111,-2.10149 -2.25,-1.65897 -1.2375,0.30107 -3.0973,1.27144 -4.1329,2.15638 -1.78476,1.52511 -1.84382,1.47866 -1.13312,-0.89103 0.41238,-1.375 1.90191,-3.44371 3.31006,-4.59713 l 2.56028,-2.09713 -2.77281,-0.69593 c -1.65633,-0.41571 -3.33829,-0.22663 -4.17716,0.46958 -1.8785,1.55901 -1.7845,-0.0916 0.16361,-2.87295 1.75571,-2.50664 5.10657,-2.55333 11.69087,-0.16291 3.31967,1.2052 4.38841,1.15064 9.14731,-0.46696 7.29949,-2.48118 7.22724,-2.40808 7.98217,-8.07658 l 0.6659,-5 -2.1218,2.7655 c -1.16699,1.52102 -3.07486,3.27556 -4.23973,3.89897 l -2.11793,1.13349 1.88996,-2.88444 c 3.07147,-4.68766 4.15389,-14.5319 1.41149,-12.83701 -0.50283,0.31077 -2.08969,2.89568 -3.52636,5.74426 -2.97318,5.8951 -4.34823,7.12671 -6.02119,5.39307 -2.10823,-2.1847 -2.04684,-7.3703 0.12161,-10.27271 1.40216,-1.87674 1.43159,-1.86699 0.88728,0.29393 -0.30964,1.22928 -0.26151,3.0207 0.10697,3.98093 0.5382,1.40253 1.25283,0.80939 3.63391,-3.01615 1.63018,-2.61912 4.0298,-5.24766 5.3325,-5.8412 1.30269,-0.59355 2.85851,-2.15456 3.45737,-3.46891 1.59239,-3.49492 4.86544,-3.00594 11.06622,1.65324 5.27462,3.96328 7.99958,4.65896 8.80253,2.2473 0.39133,-1.17534 -1.49488,-2.64889 -12.52703,-9.78637 l -5.28999,-3.42247 -1.1521,2.52859 -1.1521,2.52859 -1.56731,-3.3193 c -1.26059,-2.66976 -2.15253,-3.31931 -4.5579,-3.31931 -2.53852,0 -3.03953,0.42696 -3.31421,2.82437 -0.24847,2.16868 0.1578,2.95026 1.75,3.36663 2.85944,0.74776 2.60947,2.309 -0.3697,2.309 -1.34381,0 -3.06581,-0.88878 -3.82668,-1.97506 -1.32291,-1.88872 -1.46514,-1.81222 -3.25361,1.75 -1.66528,3.31685 -1.91106,3.4785 -2.24287,1.47506 -0.64757,-3.91 -2.96204,-2.54615 -3.66799,2.16143 -0.6047,4.03246 -1.90515,5.58857 -4.67039,5.58857 -0.5177,0 -0.30316,-1.0125 0.47675,-2.25 0.84402,-1.33921 1.12213,-3.04255 0.68705,-4.2079 -0.63078,-1.6895 -1.10919,-1.31252 -3.48999,2.75 -1.80087,3.07295 -3.44026,4.7079 -4.7207,4.7079 -1.82743,0 -1.85514,-0.1521 -0.40497,-2.22251 1.63736,-2.33767 2.10129,-5.77749 0.77921,-5.77749 -0.42763,0 -1.80673,0.7209 -3.06467,1.602 -3.81154,2.6697 -3.68764,1.68184 0.70565,-5.62645 1.26327,-2.10147 1.20815,-2.22755 -0.75,-1.71548 -2.49811,0.65327 -2.87603,-1.38233 -0.60636,-3.26599 1.05034,-0.87171 3.28575,-1.04957 7.37561,-0.58686 5.57518,0.63076 6.0871,0.49746 10.24287,-2.66732 4.78239,-3.641968 8.04438,-8.849898 5.97518,-9.539638 -0.87933,-0.29311 -0.78592,-1.03187 0.34963,-2.76493 1.43046,-2.18315 1.40391,-2.44292 -0.34541,-3.37912 -2.58647,-1.38424 -4.47005,1.0033 -3.89305,4.93463 0.24291,1.65504 0.0854,3.00916 -0.34997,3.00916 -1.58307,0 -3.04838,-4.31803 -2.46135,-7.2532 0.59218,-2.9609 0.54596,-2.99981 -2.89943,-2.4407 -1.92567,0.31249 -3.50121,0.14646 -3.50121,-0.36896 0,-0.51542 0.45,-0.93713 1,-0.93713 0.55,0 1,-0.9 1,-2 0,-2.38203 -2.61349,-2.60692 -5.44113,-0.4682 -2.64334,1.99933 -4.28751,1.84375 -5.55559,-0.52566 -0.92162,-1.72207 -0.77525,-1.96062 1.07381,-1.75 1.43311,0.16324 2.4248,-0.49999 2.99968,-2.00614 0.80145,-2.09978 0.57719,-2.2619 -3.35899,-2.42828 -2.31978,-0.0981 -4.9606,-0.17963 -5.8685,-0.18127 -1.24716,-0.002 -1.46474,-0.50873 -0.88999,-2.07172 0.49897,-1.35689 1.92089,-2.24078 4.13238,-2.56873 l 3.37164,-0.50001 -2.42022,-2.25 c -1.33112,-1.2375 -3.06546,-2.25 -3.8541,-2.25 -1.16929,0 -1.2012,-0.28036 -0.17295,-1.51933 0.89635,-1.08003 2.23289,-1.337 4.62245,-0.88871 2.63613,0.49454 3.36151,0.29746 3.36151,-0.91328 0,-0.84915 -1.0125,-1.86571 -2.25,-2.25903 l -2.25,-0.71513 2.37707,-1.06178 c 2.06694,-0.92324 2.68637,-0.67564 4.74767,1.89774 1.30382,1.62774 2.87707,4.53452 3.4961,6.45952 1.6002,4.97617 4.44762,7.69594 9.98143,9.53398 2.64825,0.87961 6.40861,2.68074 8.35636,4.00252 3.84752,2.611 4.31469,1.98029 2.46447,-3.32723 -0.59229,-1.69905 -2.61729,-4.2641 -4.5,-5.70011 -2.09402,-1.59721 -3.41447,-3.46478 -3.40086,-4.81005 l 0.0222,-2.19911 1.72777,2.11691 c 0.95027,1.1643 4.55372,3.5268 8.00767,5.25001 5.90829,2.94769 9.80948,4.28923 5.9701,2.053 -1.57428,-0.91694 -1.606,-1.29771 -0.31593,-3.79244 0.78872,-1.52523 2.18741,-3.39838 3.1082,-4.16257 1.45304,-1.20592 1.86151,-1.13318 3.09283,0.55075 1.95956,2.67986 4.76175,0.82447 5.18312,-3.43183 0.39393,-3.97916 -1.11547,-5.94083 -4.12807,-5.36493 -1.74084,0.33278 -2.58996,-0.20358 -3.50635,-2.21482 -0.66507,-1.45967 -0.92043,-3.12122 -0.56746,-3.69233 1.09745,-1.77571 9.64362,-5.16575 14.88365,-5.90394 2.75,-0.38741 6.0125,-1.02764 7.25,-1.42273 1.89783,-0.60591 2.25476,-0.34792 2.28041,1.64829 0.0268,2.08916 0.14991,2.16146 1.04969,0.61663 1.36858,-2.34971 2.9199,-2.21689 2.9199,0.25 0,2.26671 1.03701,2.563 2.8,0.8 0.93333,-0.93333 1.2,-0.9262 1.2,0.0321 0,2.28299 -2.72296,7.64129 -5.87218,11.55539 -3.23498,4.02069 -4.0974,7.61249 -1.82782,7.61249 0.715,0 1.87442,-0.5625 2.57648,-1.25 1.03487,-1.0134 1.044,-0.73312 0.0482,1.48078 -0.67553,1.50193 -2.05581,2.99344 -3.06729,3.31448 -1.17598,0.37324 -2.40739,2.53872 -3.41538,6.00608 -1.83667,6.31794 -1.38083,7.75609 2.04548,6.45341 2.04868,-0.77891 2.32473,-0.65887 1.8126,0.78821 -1.00211,2.8316 -3.49743,5.20705 -5.4698,5.20705 -1.02284,0 -3.45268,1.4625 -5.39965,3.25 l -3.53996,3.24999 4.30464,6.17282 c 6.01926,8.631568 15.64917,19.327178 17.40144,19.327178 1.6359,0 3.40234,-3.81154 2.66481,-5.75 -0.26157,-0.6875 -1.32744,-1.25 -2.3686,-1.25 -1.04115,0 -1.89301,-0.49923 -1.89301,-1.10941 0,-0.67905 1.35769,-0.9509 3.5,-0.7008 3.22468,0.37647 4.24504,-0.49009 3.25,-2.76013 -0.1375,-0.31369 0.53909,-1.01194 1.50353,-1.55167 3.9287,-2.19861 8.61398,7.68485 5.74647,12.12201 -0.7582,1.17323 -0.97271,0.91378 -0.98469,-1.19098 -0.0177,-3.12043 -1.84044,-4.69437 -3.1118,-2.68714 -1.29579,2.0458 -1.09235,2.87812 0.70348,2.87812 1.05452,0 1.39831,0.5438 1,1.58179 -0.33384,0.86998 -0.61388,2.33248 -0.6223,3.25 -0.013,1.41782 -0.15504,1.44727 -0.94621,0.19623 -0.78842,-1.24669 -1.03954,-1.18884 -1.64078,0.37796 -0.50349,1.3121 -0.0103,2.38774 1.69621,3.69974 l 2.40609,1.84981 -4.14301,0.0222 c -2.86953,0.0154 -4.33272,0.5166 -4.76019,1.63057 -0.56591,1.47474 -0.82399,1.47282 -3.10699,-0.023 -2.45394,-1.6079 -2.48981,-1.59 -2.48981,1.24243 0,4.67422 1.98062,9.17228 4.03881,9.17228 2.61439,0 3.57079,-2.08108 1.61397,-3.51194 -2.19112,-1.60218 -2.0885,-2.48806 0.2882,-2.48806 2.82271,0 3.53145,1.79768 3.22025,8.16795 -0.22411,4.58751 0.0638,5.85859 1.51013,6.66802 1.70566,0.95453 1.70058,1.09557 -0.11155,3.09795 -1.84884,2.04294 -1.84985,2.13352 -0.0387,3.45783 1.75338,1.28211 1.67755,1.45419 -1.32491,3.00682 -2.72394,1.40861 -3.0197,1.91113 -2.04415,3.47323 0.6782,1.08598 0.84542,3.00234 0.41248,4.72728 -0.40044,1.59551 -0.73565,3.12593 -0.7449,3.40093 -0.009,0.275 -0.48955,1.38333 -1.06735,2.46295 -1.02323,1.91193 -1.07182,1.90543 -1.86916,-0.25 -1.1036,-2.9833 -4.36185,-2.82508 -7.55373,0.3668 l -2.57975,2.57975 0.46522,-3.16977 z m -10.25425,-39.96863 c 1.00599,-0.53839 2.31876,-2.3836 2.91726,-4.10047 0.97168,-2.78735 0.90264,-3.04817 -0.64482,-2.43603 -0.95315,0.37705 -3.23466,0.93749 -5.07001,1.24543 -3.96868,0.66587 -5.22908,3.01725 -2.63434,4.91457 2.20763,1.61426 3.01462,1.6702 5.43191,0.3765 z m 1.53944,-84.021108 c 0.33992,-0.55 -0.0835,-1 -0.94098,-1 -0.85746,0 -1.55902,0.45 -1.55902,1 0,0.55 0.42344,1 0.94098,1 0.51754,0 1.2191,-0.45 1.55902,-1 z"
       id="path5094-2-6"
       inkscape:connector-curvature="0" />
    <path
       style="fill:#000000;stroke:none"
       d="m 232.00503,58.660492 c -2.43509,0.16513 -4.58346,-0.31487 -5.68211,-3.15673 -8.10609,-9.26807 -13.58618,-0.19936 -10.6066,5.55584 1.47878,-5.87879 4.67104,-5.97456 8.83883,-2.77792 3.49397,3.12973 6.92024,1.78724 7.44988,0.37881 z"
       id="path5096-1-3-8"
       inkscape:connector-curvature="0"
       sodipodi:nodetypes="ccccc" />
  </g>
</svg>
