<?xml version="1.0" encoding="UTF-8"?>
<svg xmlns="http://www.w3.org/2000/svg" xmlns:xlink="http://www.w3.org/1999/xlink" width="172pt" height="114pt" viewBox="0 0 172 114" version="1.1">
<defs>
<clipPath id="clip0">
  <rect width="172" height="114"/>
</clipPath>
</defs>
<g id="surface0" clip-path="url(#clip0)">
<path style="fill: none; stroke-width: 0.1; stroke-linecap: butt; stroke-linejoin: miter; stroke: rgb(100%,100%,100%); opacity: 1;stroke-miterlimit: 10;" d="M 0 0 L 172 0 L 172 114 L 0 114 L 0 0 Z M 0 0 " transform="matrix(1,0,0,1,0,0)"/>
<path style="stroke: none; fill-rule: nonzero; fill: rgb(100%,100%,100%); opacity: 1;" d="M 0 0 L 172 0 L 172 114 L 0 114 L 0 0 Z M 0 0 "/>
<path style="fill: none; stroke-width: 0.1; stroke-linecap: butt; stroke-linejoin: miter; stroke: rgb(0%,0%,0%); opacity: 1;stroke-miterlimit: 10;" d="M 107.099457 14.816193 C 108.989395 11.550583 110.680344 5.53624 115.653946 7.303619 C 121.362823 9.309341 126.578964 14.65213 126.99675 20.903793 C 126.180161 25.052536 121.837326 26.891006 118.959808 29.469284 C 122.866119 35.020416 128.198486 39.307907 133.289932 43.709488 C 135.30098 45.171173 136.582825 47.899933 135.188904 50.23024 C 134.35466 53.685623 129.349335 54.789017 127.249466 51.836441 C 122.896759 47.159561 119.01445 42.080826 114.337128 37.691849 C 111.846237 40.523392 111.332443 44.973953 107.703186 46.821701 C 103.465302 48.224548 98.479889 46.751953 95.252182 43.780777 C 93.074951 41.089172 91.248779 37.73793 91.269394 34.192886 C 91.82196 28.717239 97.343872 26.191177 100.327362 22.164566 C 99.555771 21.073792 98.774765 19.99173 98.005051 18.902008 C 98.979767 16.379654 100.485474 13.832581 103.149307 12.828094 C 104.712982 12.790619 105.830124 14.098633 107.099457 14.816193 Z M 107.099457 14.816193 " transform="matrix(1,0,0,1,0,0)"/>
<path style="stroke: none; fill-rule: nonzero; fill: rgb(0%,0%,0%); opacity: 1;" d="M 107.099457 14.816193 C 108.989395 11.550583 110.680344 5.53624 115.653946 7.303619 C 121.362823 9.309341 126.578964 14.65213 126.99675 20.903793 C 126.180161 25.052536 121.837326 26.891006 118.959808 29.469284 C 122.866119 35.020416 128.198486 39.307907 133.289932 43.709488 C 135.30098 45.171173 136.582825 47.899933 135.188904 50.23024 C 134.35466 53.685623 129.349335 54.789017 127.249466 51.836441 C 122.896759 47.159561 119.01445 42.080826 114.337128 37.691849 C 111.846237 40.523392 111.332443 44.973953 107.703186 46.821701 C 103.465302 48.224548 98.479889 46.751953 95.252182 43.780777 C 93.074951 41.089172 91.248779 37.73793 91.269394 34.192886 C 91.82196 28.717239 97.343872 26.191177 100.327362 22.164566 C 99.555771 21.073792 98.774765 19.99173 98.005051 18.902008 C 98.979767 16.379654 100.485474 13.832581 103.149307 12.828094 C 104.712982 12.790619 105.830124 14.098633 107.099457 14.816193 Z M 107.099457 14.816193 "/>
<path style="fill: none; stroke-width: 0.1; stroke-linecap: butt; stroke-linejoin: miter; stroke: rgb(0%,0%,0%); opacity: 1;stroke-miterlimit: 10;" d="M 53.384155 10.483719 C 54.049774 9.267334 55.153717 8.38092 56.087524 7.38121 C 61.763229 8.503464 66.833694 12.138763 69.862167 17.037613 C 71.419128 19.291809 70.946671 22.124969 70.966446 24.696091 C 68.302902 27.276718 65.13208 29.219437 62.130722 31.366425 C 66.265671 36.101837 70.80394 40.512878 75.97818 44.109344 C 78.332184 45.579254 79.820938 48.221329 79.95578 50.981796 C 80.051544 54.545868 75.398438 58.48584 72.215652 55.716919 C 66.131317 51.142899 62.778015 43.984314 57.334808 38.754944 C 55.675507 43.131897 53.752167 49.190338 48.043686 49.124023 C 40.805817 48.027695 35.42514 40.356354 36.034119 33.196823 C 37.543213 29.042145 40.91861 25.842407 43.856094 22.636322 C 43.060837 21.725418 42.262619 20.817322 41.472946 19.903152 C 41.867111 16.197266 46.834167 11.904419 50.25325 14.625259 C 48.075043 16.772781 46.207108 19.546066 43.023239 20.229141 C 43.919296 20.435837 44.814377 20.647278 45.706284 20.876541 C 48.305008 17.443542 51.689087 14.515213 53.384155 10.483719 Z M 53.384155 10.483719 " transform="matrix(1,0,0,1,0,0)"/>
<path style="stroke: none; fill-rule: nonzero; fill: rgb(0%,0%,0%); opacity: 1;" d="M 53.384155 10.483719 C 54.049774 9.267334 55.153717 8.38092 56.087524 7.38121 C 61.763229 8.503464 66.833694 12.138763 69.862167 17.037613 C 71.419128 19.291809 70.946671 22.124969 70.966446 24.696091 C 68.302902 27.276718 65.13208 29.219437 62.130722 31.366425 C 66.265671 36.101837 70.80394 40.512878 75.97818 44.109344 C 78.332184 45.579254 79.820938 48.221329 79.95578 50.981796 C 80.051544 54.545868 75.398438 58.48584 72.215652 55.716919 C 66.131317 51.142899 62.778015 43.984314 57.334808 38.754944 C 55.675507 43.131897 53.752167 49.190338 48.043686 49.124023 C 40.805817 48.027695 35.42514 40.356354 36.034119 33.196823 C 37.543213 29.042145 40.91861 25.842407 43.856094 22.636322 C 43.060837 21.725418 42.262619 20.817322 41.472946 19.903152 C 41.867111 16.197266 46.834167 11.904419 50.25325 14.625259 C 48.075043 16.772781 46.207108 19.546066 43.023239 20.229141 C 43.919296 20.435837 44.814377 20.647278 45.706284 20.876541 C 48.305008 17.443542 51.689087 14.515213 53.384155 10.483719 Z M 53.384155 10.483719 "/>
<path style="fill: none; stroke-width: 0.1; stroke-linecap: butt; stroke-linejoin: miter; stroke: rgb(100%,100%,100%); opacity: 1;stroke-miterlimit: 10;" d="M 111.72937 20.744995 C 114.42923 17.649048 115.455231 13.490341 118.149673 10.430664 C 117.360886 14.352539 115.259552 17.841293 113.06369 21.124527 C 110.282776 24.913147 107.407562 28.891159 103.144943 31.127472 C 105.569153 27.319992 109.314453 24.582184 111.72937 20.744995 Z M 111.72937 20.744995 " transform="matrix(1,0,0,1,0,0)"/>
<path style="stroke: none; fill-rule: nonzero; fill: rgb(100%,100%,100%); opacity: 1;" d="M 111.72937 20.744995 C 114.42923 17.649048 115.455231 13.490341 118.149673 10.430664 C 117.360886 14.352539 115.259552 17.841293 113.06369 21.124527 C 110.282776 24.913147 107.407562 28.891159 103.144943 31.127472 C 105.569153 27.319992 109.314453 24.582184 111.72937 20.744995 Z M 111.72937 20.744995 "/>
<path style="fill: none; stroke-width: 0.1; stroke-linecap: butt; stroke-linejoin: miter; stroke: rgb(100%,100%,100%); opacity: 1;stroke-miterlimit: 10;" d="M 54.932037 22.896667 C 57.558807 19.792282 58.623291 15.729492 61.149765 12.562958 C 60.526413 16.482895 58.538559 20.024353 56.199615 23.170166 C 53.368576 26.527512 50.878662 30.467468 46.689438 32.290634 C 49.110794 28.876907 52.600876 26.391586 54.932037 22.896667 Z M 54.932037 22.896667 " transform="matrix(1,0,0,1,0,0)"/>
<path style="stroke: none; fill-rule: nonzero; fill: rgb(100%,100%,100%); opacity: 1;" d="M 54.932037 22.896667 C 57.558807 19.792282 58.623291 15.729492 61.149765 12.562958 C 60.526413 16.482895 58.538559 20.024353 56.199615 23.170166 C 53.368576 26.527512 50.878662 30.467468 46.689438 32.290634 C 49.110794 28.876907 52.600876 26.391586 54.932037 22.896667 Z M 54.932037 22.896667 "/>
<path style="fill: none; stroke-width: 0.1; stroke-linecap: butt; stroke-linejoin: miter; stroke: rgb(100%,100%,100%); opacity: 1;stroke-miterlimit: 10;" d="M 99.629532 19.972336 C 102.048477 18.441422 103.963669 16.399643 105.026642 13.710602 C 105.524658 16.176254 103.932114 18.028397 102.666351 19.924026 C 101.90715 19.936096 100.388733 19.960251 99.629532 19.972336 Z M 99.629532 19.972336 " transform="matrix(1,0,0,1,0,0)"/>
<path style="stroke: none; fill-rule: nonzero; fill: rgb(100%,100%,100%); opacity: 1;" d="M 99.629532 19.972336 C 102.048477 18.441422 103.963669 16.399643 105.026642 13.710602 C 105.524658 16.176254 103.932114 18.028397 102.666351 19.924026 C 101.90715 19.936096 100.388733 19.960251 99.629532 19.972336 Z M 99.629532 19.972336 "/>
<path style="fill: none; stroke-width: 0.1; stroke-linecap: butt; stroke-linejoin: miter; stroke: rgb(100%,100%,100%); opacity: 1;stroke-miterlimit: 10;" d="M 49.027939 21.054184 C 50.225739 19.337463 50.939285 17.345718 52.015854 15.556992 C 52.720245 20.005722 48.885818 23.791122 44.4935 23.42392 C 45.974701 22.576157 47.598373 21.994003 49.027939 21.054184 Z M 49.027939 21.054184 " transform="matrix(1,0,0,1,0,0)"/>
<path style="stroke: none; fill-rule: nonzero; fill: rgb(100%,100%,100%); opacity: 1;" d="M 49.027939 21.054184 C 50.225739 19.337463 50.939285 17.345718 52.015854 15.556992 C 52.720245 20.005722 48.885818 23.791122 44.4935 23.42392 C 45.974701 22.576157 47.598373 21.994003 49.027939 21.054184 Z M 49.027939 21.054184 "/>
<path style="fill: none; stroke-width: 0.1; stroke-linecap: butt; stroke-linejoin: miter; stroke: rgb(100%,100%,100%); opacity: 1;stroke-miterlimit: 10;" d="M 105.980743 19.793884 C 106.466293 18.32164 105.889359 15.840286 108.120346 15.900192 C 107.675079 17.476517 107.314545 19.09584 106.589539 20.574646 C 105.614807 22.146042 103.513336 21.942947 101.935776 22.273468 C 103.274185 21.432281 104.647385 20.64653 105.980743 19.793884 Z M 105.980743 19.793884 " transform="matrix(1,0,0,1,0,0)"/>
<path style="stroke: none; fill-rule: nonzero; fill: rgb(100%,100%,100%); opacity: 1;" d="M 105.980743 19.793884 C 106.466293 18.32164 105.889359 15.840286 108.120346 15.900192 C 107.675079 17.476517 107.314545 19.09584 106.589539 20.574646 C 105.614807 22.146042 103.513336 21.942947 101.935776 22.273468 C 103.274185 21.432281 104.647385 20.64653 105.980743 19.793884 Z M 105.980743 19.793884 "/>
<path style="fill: none; stroke-width: 0.1; stroke-linecap: butt; stroke-linejoin: miter; stroke: rgb(100%,100%,100%); opacity: 1;stroke-miterlimit: 10;" d="M 93.344681 30.37355 C 97.801102 28.13884 102.444565 31.43454 105.277328 34.754013 C 107.609268 37.767868 110.139542 41.503922 108.828781 45.49408 C 108.069214 37.676788 101.760498 29.930573 93.344681 30.37355 Z M 93.344681 30.37355 " transform="matrix(1,0,0,1,0,0)"/>
<path style="stroke: none; fill-rule: nonzero; fill: rgb(100%,100%,100%); opacity: 1;" d="M 93.344681 30.37355 C 97.801102 28.13884 102.444565 31.43454 105.277328 34.754013 C 107.609268 37.767868 110.139542 41.503922 108.828781 45.49408 C 108.069214 37.676788 101.760498 29.930573 93.344681 30.37355 Z M 93.344681 30.37355 "/>
<path style="fill: none; stroke-width: 0.1; stroke-linecap: butt; stroke-linejoin: miter; stroke: rgb(100%,100%,100%); opacity: 1;stroke-miterlimit: 10;" d="M 38.653061 29.94342 C 43.646072 30.166092 47.217819 34.294128 50.03006 37.982498 C 51.48114 40.697052 54.143372 44.072906 51.917557 47.071426 C 51.732834 39.285004 45.452805 32.908691 38.653061 29.94342 Z M 38.653061 29.94342 " transform="matrix(1,0,0,1,0,0)"/>
<path style="stroke: none; fill-rule: nonzero; fill: rgb(100%,100%,100%); opacity: 1;" d="M 38.653061 29.94342 C 43.646072 30.166092 47.217819 34.294128 50.03006 37.982498 C 51.48114 40.697052 54.143372 44.072906 51.917557 47.071426 C 51.732834 39.285004 45.452805 32.908691 38.653061 29.94342 Z M 38.653061 29.94342 "/>
<path style="fill: none; stroke-width: 0.1; stroke-linecap: butt; stroke-linejoin: miter; stroke: rgb(100%,100%,100%); opacity: 1;stroke-miterlimit: 10;" d="M 114.209549 36.565857 C 115.236267 34.245163 116.642609 32.048676 118.752914 30.56868 C 117.82489 32.445648 116.545807 34.108292 115.309235 35.785721 C 120.417938 40.438461 124.669769 45.865005 129.298965 50.963791 C 130.716293 50.914261 132.13559 50.879868 133.556808 50.86058 C 132.180893 52.855499 129.561874 52.579483 128.059402 50.948654 C 123.306107 46.289413 119.821579 40.340225 114.209549 36.565857 Z M 114.209549 36.565857 " transform="matrix(1,0,0,1,0,0)"/>
<path style="stroke: none; fill-rule: nonzero; fill: rgb(100%,100%,100%); opacity: 1;" d="M 114.209549 36.565857 C 115.236267 34.245163 116.642609 32.048676 118.752914 30.56868 C 117.82489 32.445648 116.545807 34.108292 115.309235 35.785721 C 120.417938 40.438461 124.669769 45.865005 129.298965 50.963791 C 130.716293 50.914261 132.13559 50.879868 133.556808 50.86058 C 132.180893 52.855499 129.561874 52.579483 128.059402 50.948654 C 123.306107 46.289413 119.821579 40.340225 114.209549 36.565857 Z M 114.209549 36.565857 "/>
<path style="fill: none; stroke-width: 0.1; stroke-linecap: butt; stroke-linejoin: miter; stroke: rgb(100%,100%,100%); opacity: 1;stroke-miterlimit: 10;" d="M 57.87207 37.239639 C 59.121445 35.515762 60.095306 33.499023 61.938187 32.308731 C 61.129105 34.085602 60.061218 35.725098 58.997955 37.356552 C 64.116302 42.277603 67.469086 48.699524 72.586761 53.607437 C 73.938614 54.228058 75.405182 54.523315 76.846863 54.862076 C 75.368927 54.775696 73.888718 54.794037 72.411362 54.836655 C 68.07428 51.301788 65.70015 46.096329 61.768127 42.194016 C 60.364166 40.628006 59.10463 38.940491 57.87207 37.239639 Z M 57.87207 37.239639 " transform="matrix(1,0,0,1,0,0)"/>
<path style="stroke: none; fill-rule: nonzero; fill: rgb(100%,100%,100%); opacity: 1;" d="M 57.87207 37.239639 C 59.121445 35.515762 60.095306 33.499023 61.938187 32.308731 C 61.129105 34.085602 60.061218 35.725098 58.997955 37.356552 C 64.116302 42.277603 67.469086 48.699524 72.586761 53.607437 C 73.938614 54.228058 75.405182 54.523315 76.846863 54.862076 C 75.368927 54.775696 73.888718 54.794037 72.411362 54.836655 C 68.07428 51.301788 65.70015 46.096329 61.768127 42.194016 C 60.364166 40.628006 59.10463 38.940491 57.87207 37.239639 Z M 57.87207 37.239639 "/>
<path style="fill: none; stroke-width: 0.1; stroke-linecap: butt; stroke-linejoin: miter; stroke: rgb(0%,0%,0%); opacity: 1;stroke-miterlimit: 10;" d="M 89.322495 61.031082 C 94.370407 59.450653 99.240585 62.923141 102.358734 66.594986 C 104.151031 69.177063 106.644302 72.211273 105.508972 75.55899 C 104.554108 78.983719 101.287888 80.985504 98.915573 83.39299 C 102.937332 87.277878 106.552567 91.675278 111.288406 94.739731 C 113.430908 96.302139 116.18811 98.041412 116.329437 100.986908 C 116.518021 103.718979 114.256714 105.828644 111.914642 106.781387 C 106.926682 106.677948 104.268341 102.018311 101.327377 98.723114 C 99.252472 95.848038 96.890945 93.210175 94.307877 90.78363 C 92.758209 94.445938 91.696548 99.784592 86.955338 100.398026 C 78.831711 100.555847 70.435684 92.600327 72.037994 84.235458 C 73.644943 81.258102 76.610107 79.32251 78.742661 76.739334 C 77.744766 75.259186 76.741714 73.781082 75.874176 72.221008 C 77.286743 70.17099 78.857483 68.06189 81.195343 67.008804 C 82.638123 66.835281 83.941299 67.614899 85.266556 68.045746 C 86.48175 65.636108 87.602463 63.134979 89.322495 61.031082 Z M 89.322495 61.031082 " transform="matrix(1,0,0,1,0,0)"/>
<path style="stroke: none; fill-rule: nonzero; fill: rgb(0%,0%,0%); opacity: 1;" d="M 89.322495 61.031082 C 94.370407 59.450653 99.240585 62.923141 102.358734 66.594986 C 104.151031 69.177063 106.644302 72.211273 105.508972 75.55899 C 104.554108 78.983719 101.287888 80.985504 98.915573 83.39299 C 102.937332 87.277878 106.552567 91.675278 111.288406 94.739731 C 113.430908 96.302139 116.18811 98.041412 116.329437 100.986908 C 116.518021 103.718979 114.256714 105.828644 111.914642 106.781387 C 106.926682 106.677948 104.268341 102.018311 101.327377 98.723114 C 99.252472 95.848038 96.890945 93.210175 94.307877 90.78363 C 92.758209 94.445938 91.696548 99.784592 86.955338 100.398026 C 78.831711 100.555847 70.435684 92.600327 72.037994 84.235458 C 73.644943 81.258102 76.610107 79.32251 78.742661 76.739334 C 77.744766 75.259186 76.741714 73.781082 75.874176 72.221008 C 77.286743 70.17099 78.857483 68.06189 81.195343 67.008804 C 82.638123 66.835281 83.941299 67.614899 85.266556 68.045746 C 86.48175 65.636108 87.602463 63.134979 89.322495 61.031082 Z M 89.322495 61.031082 "/>
<path style="fill: none; stroke-width: 0.1; stroke-linecap: butt; stroke-linejoin: miter; stroke: rgb(100%,100%,100%); opacity: 1;stroke-miterlimit: 10;" d="M 90.26236 75.248764 C 92.900803 72.279495 94.002014 68.344009 96.35556 65.222565 C 95.652435 70.22348 92.396057 74.450317 89.282242 78.255356 C 87.280716 80.251678 85.350296 82.666321 82.414276 83.234512 C 84.903107 80.437912 88.218262 78.45752 90.26236 75.248764 Z M 90.26236 75.248764 " transform="matrix(1,0,0,1,0,0)"/>
<path style="stroke: none; fill-rule: nonzero; fill: rgb(100%,100%,100%); opacity: 1;" d="M 90.26236 75.248764 C 92.900803 72.279495 94.002014 68.344009 96.35556 65.222565 C 95.652435 70.22348 92.396057 74.450317 89.282242 78.255356 C 87.280716 80.251678 85.350296 82.666321 82.414276 83.234512 C 84.903107 80.437912 88.218262 78.45752 90.26236 75.248764 Z M 90.26236 75.248764 "/>
<path style="fill: none; stroke-width: 0.1; stroke-linecap: butt; stroke-linejoin: miter; stroke: rgb(100%,100%,100%); opacity: 1;stroke-miterlimit: 10;" d="M 77.739563 73.530334 C 79.768967 72.269043 81.591324 70.732574 83.309311 69.079025 C 82.419464 70.694504 81.413864 72.242706 80.530975 73.86264 C 79.599594 73.750198 78.669128 73.63942 77.739563 73.530334 Z M 77.739563 73.530334 " transform="matrix(1,0,0,1,0,0)"/>
<path style="stroke: none; fill-rule: nonzero; fill: rgb(100%,100%,100%); opacity: 1;" d="M 77.739563 73.530334 C 79.768967 72.269043 81.591324 70.732574 83.309311 69.079025 C 82.419464 70.694504 81.413864 72.242706 80.530975 73.86264 C 79.599594 73.750198 78.669128 73.63942 77.739563 73.530334 Z M 77.739563 73.530334 "/>
<path style="fill: none; stroke-width: 0.1; stroke-linecap: butt; stroke-linejoin: miter; stroke: rgb(100%,100%,100%); opacity: 1;stroke-miterlimit: 10;" d="M 80.272476 77.06337 C 82.48941 74.838654 84.598145 72.518875 86.521729 70.033997 C 85.519028 73.213577 83.195175 75.556763 80.272476 77.06337 Z M 80.272476 77.06337 " transform="matrix(1,0,0,1,0,0)"/>
<path style="stroke: none; fill-rule: nonzero; fill: rgb(100%,100%,100%); opacity: 1;" d="M 80.272476 77.06337 C 82.48941 74.838654 84.598145 72.518875 86.521729 70.033997 C 85.519028 73.213577 83.195175 75.556763 80.272476 77.06337 Z M 80.272476 77.06337 "/>
<path style="fill: none; stroke-width: 0.1; stroke-linecap: butt; stroke-linejoin: miter; stroke: rgb(100%,100%,100%); opacity: 1;stroke-miterlimit: 10;" d="M 74.703705 81.975922 C 79.529099 81.756378 83.96347 84.53894 86.545929 88.492599 C 88.585999 91.19519 90.682404 94.568481 89.742355 98.092194 C 88.548599 90.260513 82.323059 83.851959 74.703705 81.975922 Z M 74.703705 81.975922 " transform="matrix(1,0,0,1,0,0)"/>
<path style="stroke: none; fill-rule: nonzero; fill: rgb(100%,100%,100%); opacity: 1;" d="M 74.703705 81.975922 C 79.529099 81.756378 83.96347 84.53894 86.545929 88.492599 C 88.585999 91.19519 90.682404 94.568481 89.742355 98.092194 C 88.548599 90.260513 82.323059 83.851959 74.703705 81.975922 Z M 74.703705 81.975922 "/>
<path style="fill: none; stroke-width: 0.1; stroke-linecap: butt; stroke-linejoin: miter; stroke: rgb(100%,100%,100%); opacity: 1;stroke-miterlimit: 10;" d="M 94.661362 89.17659 C 95.766098 87.479187 96.644577 85.596695 98.134918 84.184921 C 97.62767 85.940231 96.579391 87.463394 95.757721 89.078217 C 99.672226 93.247269 103.007706 97.902084 106.750153 102.212189 C 108.341843 104.476746 111.302765 104.051727 113.617462 104.921494 C 111.852249 104.989899 110.090775 104.861893 108.328079 104.884491 C 103.33754 100.041977 99.427887 94.237595 94.661362 89.17659 Z M 94.661362 89.17659 " transform="matrix(1,0,0,1,0,0)"/>
<path style="stroke: none; fill-rule: nonzero; fill: rgb(100%,100%,100%); opacity: 1;" d="M 94.661362 89.17659 C 95.766098 87.479187 96.644577 85.596695 98.134918 84.184921 C 97.62767 85.940231 96.579391 87.463394 95.757721 89.078217 C 99.672226 93.247269 103.007706 97.902084 106.750153 102.212189 C 108.341843 104.476746 111.302765 104.051727 113.617462 104.921494 C 111.852249 104.989899 110.090775 104.861893 108.328079 104.884491 C 103.33754 100.041977 99.427887 94.237595 94.661362 89.17659 Z M 94.661362 89.17659 "/>
</g>
</svg>
