<?xml version="1.0" encoding="UTF-8" standalone="no"?>
<!-- Created with Inkscape (http://www.inkscape.org/) -->
<svg
   xmlns:dc="http://purl.org/dc/elements/1.1/"
   xmlns:cc="http://web.resource.org/cc/"
   xmlns:rdf="http://www.w3.org/1999/02/22-rdf-syntax-ns#"
   xmlns:svg="http://www.w3.org/2000/svg"
   xmlns="http://www.w3.org/2000/svg"
   xmlns:sodipodi="http://sodipodi.sourceforge.net/DTD/sodipodi-0.dtd"
   xmlns:inkscape="http://www.inkscape.org/namespaces/inkscape"
   version="1.0"
   x="0.00000000"
   y="0.00000000"
   width="600"
   height="400"
   id="Maarkedal"
   sodipodi:version="0.32"
   inkscape:version="0.45.1"
   sodipodi:docname="Maarkdal.svg"
   inkscape:output_extension="org.inkscape.output.svg.inkscape"
   sodipodi:docbase="C:\TIIKERI\Liput\Belgia\provinssit\Oost-Vlaanderen - kunnat\Oudenaarde\svg">
  <metadata
     id="metadata9414">
    <rdf:RDF>
      <cc:Work
         rdf:about="">
        <dc:format>image/svg+xml</dc:format>
        <dc:type
           rdf:resource="http://purl.org/dc/dcmitype/StillImage" />
      </cc:Work>
    </rdf:RDF>
  </metadata>
  <defs
     id="defs9412" />
  <sodipodi:namedview
     inkscape:window-height="712"
     inkscape:window-width="1024"
     inkscape:pageshadow="2"
     inkscape:pageopacity="0.0"
     guidetolerance="10.0"
     gridtolerance="10.0"
     objecttolerance="10.0"
     borderopacity="1.0"
     bordercolor="#666666"
     pagecolor="#ffffff"
     id="base"
     inkscape:zoom="0.89125296"
     inkscape:cx="225"
     inkscape:cy="150"
     inkscape:window-x="-4"
     inkscape:window-y="-4"
     inkscape:current-layer="Maarkedal"
     width="600px"
     height="400px" />
  <g
     id="g9437"
     transform="matrix(1.3333333,0,0,1.3333333,0,5e-6)">
    <path
       id="path9435"
       d="M 405,300 L 225,100 L 45,300 L 405,300 z "
       style="fill:#fcdd09;fill-opacity:1" />
    <path
       id="gold-rect"
       d="M 0,0 L 0,250 L 225,0 L 0,0 z "
       style="fill:#fcdd09;fill-opacity:1" />
    <path
       id="path9431"
       d="M 225,0 L 450,250 L 450,0 L 225,0 z "
       style="fill:#fcdd09;fill-opacity:1" />
    <rect
       id="sable-ground"
       style="opacity:1;fill:#000000;fill-opacity:1"
       y="0"
       x="0"
       height="100"
       width="450" />
    <path
       id="sinople-rect"
       d="M 0,200 L 450,200 L 450,300 L 0,300 L 0,200 z "
       style="fill:#078930;fill-opacity:1" />
    <path
       id="path9433"
       d="M 225,0 L 0,250 L 0,300 L 45,300 L 225,100 L 405,300 L 450,300 L 450,250 L 225,0 z "
       style="fill:#da121a;fill-opacity:1" />
  </g>
</svg>
