<?xml version="1.0" encoding="UTF-8" standalone="no"?>
<!-- Created with Inkscape (http://www.inkscape.org/) -->

<svg
   xmlns:dc="http://purl.org/dc/elements/1.1/"
   xmlns:cc="http://creativecommons.org/ns#"
   xmlns:rdf="http://www.w3.org/1999/02/22-rdf-syntax-ns#"
   xmlns:svg="http://www.w3.org/2000/svg"
   xmlns="http://www.w3.org/2000/svg"
   xmlns:sodipodi="http://sodipodi.sourceforge.net/DTD/sodipodi-0.dtd"
   xmlns:inkscape="http://www.inkscape.org/namespaces/inkscape"
   width="856.61035"
   height="573.76611"
   id="svg12735"
   version="1.1"
   inkscape:version="0.48.4 r9939"
   sodipodi:docname="Nieuw document 127">
  <defs
     id="defs12737" />
  <sodipodi:namedview
     id="base"
     pagecolor="#ffffff"
     bordercolor="#666666"
     borderopacity="1.0"
     inkscape:pageopacity="0.0"
     inkscape:pageshadow="2"
     inkscape:zoom="0.35"
     inkscape:cx="104.73376"
     inkscape:cy="278.31163"
     inkscape:document-units="px"
     inkscape:current-layer="layer1"
     showgrid="false"
     fit-margin-top="0"
     fit-margin-left="0"
     fit-margin-right="0"
     fit-margin-bottom="0"
     inkscape:window-width="1600"
     inkscape:window-height="837"
     inkscape:window-x="-8"
     inkscape:window-y="-8"
     inkscape:window-maximized="1" />
  <metadata
     id="metadata12740">
    <rdf:RDF>
      <cc:Work
         rdf:about="">
        <dc:format>image/svg+xml</dc:format>
        <dc:type
           rdf:resource="http://purl.org/dc/dcmitype/StillImage" />
        <dc:title></dc:title>
      </cc:Work>
    </rdf:RDF>
  </metadata>
  <g
     inkscape:label="Laag 1"
     inkscape:groupmode="layer"
     id="layer1"
     transform="translate(171.16233,-236.90769)">
    <path
       style="fill:#ffffff;fill-opacity:1;stroke:none"
       d="m -171.16233,236.90781 0,573.766 856.61,0 z"
       id="path12616"
       inkscape:connector-curvature="0" />
    <path
       style="fill:#aa0000;fill-opacity:1;stroke:none"
       d="m -171.16195,236.90769 856.60999,573.766 0,-573.766 z"
       id="path12618"
       inkscape:connector-curvature="0" />
    <path
       style="fill:#000000;stroke:none"
       d="m -31.895958,494.50269 c -9.945,0.289 -20.444,-0.432 -14.643,28.571 -7.186,14.442 -35.403996,36.275 -11.071,39.643 -1.054,5.227 -0.612,9.52 -8.929,19.286 -7.290996,7.145 -22.984996,25.701 9.643,18.571 l 0.357,9.643 -5.866,24.126 12.295,12.66 -1.786,13.929 c -1.842,31.484 47.0080001,29.806 66.786,-16.072 -3.383,13.618 -8.5319999,26.058 -23.2149999,32.143 1.088,4.048 -3.2840001,8.095 8.21500004,12.143 10.45599986,7.644 13.84099986,12.258 17.85699986,17.143 l 72.5,-60 -13.929,-23.215 c 10.042,-1.95 19.253,-5.665 21.786,-23.571 1.993998,-9.947 18.523998,-6.973 4.999998,-30.714 0.92,-6.337 10.245,-8.694 -5.356998,-22.857 -0.08,-6.429 1.854,-12.857 -8.215,-19.286 -1.895,-9.652 -3.611,-19.484 -15.714,-18.929 -4.511,-5.38 -3.543,-12.294 -21.428,-13.928 -7.17,-4.947 -12.682,-16.189 -24.286,-4.286 -10.718,-7.952 -20.8239999,-10.09 -29.6429999,0 -10.9150001,-5.897 -21.3360001,-7.1 -30.3570001,5 z"
       id="path12502-4"
       inkscape:connector-curvature="0"
       sodipodi:nodetypes="cccccccccccccccccccccccc" />
    <path
       style="fill:#ffffff;stroke:none"
       d="m -34.228958,566.08769 32.3250001,16.667 -30.8090001,-3.03 c -3.235,-4.156 -7.385,-8.181 -1.516,-13.637 z"
       id="path12504-4"
       inkscape:connector-curvature="0"
       sodipodi:nodetypes="cccc" />
    <path
       sodipodi:type="arc"
       style="fill:#000000;fill-opacity:1;stroke:none"
       id="path12506-4"
       sodipodi:cx="13972.114"
       sodipodi:cy="-16253.986"
       sodipodi:rx="5.6189737"
       sodipodi:ry="6.3134537"
       d="m 13977.733,-16253.986 c 0,3.486 -2.515,6.313 -5.619,6.313 -3.103,0 -5.619,-2.827 -5.619,-6.313 0,-3.487 2.516,-6.314 5.619,-6.314 3.104,0 5.619,2.827 5.619,6.314 z"
       transform="translate(-13998.324,16828.535)" />
    <path
       sodipodi:type="arc"
       style="fill:#ffffff;fill-opacity:1;stroke:none"
       id="path12508-4"
       sodipodi:cx="13970.473"
       sodipodi:cy="-16255.754"
       sodipodi:rx="1.5783634"
       sodipodi:ry="1.5152289"
       d="m 13972.051,-16255.754 c 0,0.837 -0.707,1.515 -1.578,1.515 -0.872,0 -1.579,-0.678 -1.579,-1.515 0,-0.837 0.707,-1.515 1.579,-1.515 0.871,0 1.578,0.678 1.578,1.515 z"
       transform="translate(-13998.324,16828.535)" />
    <path
       style="fill:#ffffff;stroke:none"
       d="m -45.971958,564.31969 c 13.703,-5.544 27.808,-6.67 43.1840001,6.187 6.163,4.835 11.966,4.64 17.8039999,4.925 -5.0929999,-1.873 -10.1849999,-3.526 -15.27799986,-8.334 -17.12300014,-16.113 -33.20500014,-22.12 -46.97200014,-5.682 l -3.031,-1.136 z"
       id="path12510-2"
       inkscape:connector-curvature="0"
       sodipodi:nodetypes="ccccccc" />
    <path
       style="fill:#ffffff;stroke:none"
       d="m -33.470958,580.86069 c -2.917,5.113 1.335,13.281 8.586,11.365 -4.466,-3.075 -7.148,-6.944 -8.586,-11.365 z"
       id="path12512-9"
       inkscape:connector-curvature="0"
       sodipodi:nodetypes="ccc" />
    <path
       style="fill:#ffffff;stroke:none"
       d="m -30.566958,564.57269 c 8.202,1.857 14.317,4.813 20.077,7.955 -4.487,-7.356 -10.555,-11.339 -20.077,-7.955 z"
       id="path12514-3"
       inkscape:connector-curvature="0"
       sodipodi:nodetypes="ccc" />
    <path
       style="fill:#ffffff;stroke:none"
       d="m -56.451958,600.05369 c 12.744,4.593 12.945,-5.64 15.784,-12.753 0.586,5.446 -2.429,15.127 5.573,11.848 5.301,1.463 8.377,6.97 8.443,17.952 -2.894,-14.473 -9.55,-15.154 -16.668,-14.143 -5.441,4.587 -9.991,4.522 -13.132,-2.904 z"
       id="path12516-0"
       inkscape:connector-curvature="0"
       sodipodi:nodetypes="cccccc" />
    <path
       style="fill:#ffffff;stroke:none"
       d="m -30.467958,622.00269 c 9.667,7.202 5.768,14.405 1.965,21.607 14.34,-3.563 11.34,-23.35 -1.965,-21.607 z"
       id="path12518-7"
       inkscape:connector-curvature="0"
       sodipodi:nodetypes="ccc" />
    <path
       style="fill:#ffffff;stroke:none"
       d="m 32.568042,581.64569 c 1.378,-5.986 3.956,-11.316 10.536,-14.464 -6.224,0.903 -12.657,1.506 -10.536,14.464 z"
       id="path12520-7"
       inkscape:connector-curvature="0"
       sodipodi:nodetypes="ccc" />
    <path
       style="fill:#ffffff;stroke:none"
       d="m 38.463042,602.74269 c 5.886,-0.121 10.713,-7.963 5.347,-13.202 -0.347,5.411 -2.291,9.699 -5.347,13.202 z"
       id="path12512-7-8"
       inkscape:connector-curvature="0"
       sodipodi:nodetypes="ccc" />
    <path
       style="fill:#ffffff;stroke:none"
       d="m 53.486042,589.68169 c 5.131,-10.041 -0.64,-19.222 -11.414,-9.1 6.897,-2.57 12.293,-1.928 11.414,9.1 z"
       id="path12512-5-7"
       inkscape:connector-curvature="0"
       sodipodi:nodetypes="ccc" />
    <path
       style="fill:#ffffff;stroke:none"
       d="m 65.961042,584.32369 c -6.096,6.833 -7.088,5.645 -19.107,21.786 -2.739,3.977 -7.628,13.943 -19.107,-2.5 1.229,5.95 8.104,26.338 22.678,9.107 2.254,7.856 7.775,7.728 14.286,5.179 7.175,9.998 12.554,4.437 18.393,2.857 -8.897,1.194 -13.122,-1.675 -11.072,-10 -3.577,3.459 -19.149,10.17 -16.428,-6.071 z"
       id="path12547-3"
       inkscape:connector-curvature="0"
       sodipodi:nodetypes="ccccccccc" />
    <path
       style="fill:#aa0000;stroke:none"
       d="m -32.333958,630.35869 -12.249,-5.051 c -13.685,-25.117 -29.075996,-0.426 -17.551,9.217 12.162,-4.206 21.871,-4.733 30.683,-3.914 -34.657,-0.858 -48.548996,19.717 -19.066,20.456 l 18.814,-20.834 z"
       id="path12549-0"
       inkscape:connector-curvature="0"
       sodipodi:nodetypes="ccccccc" />
    <path
       style="fill:#aa0000;stroke:none"
       d="m -24.038958,516.64569 -7.321,-0.893 3.035,9.286 2.322,11.25 -0.179,7.321 6.607,3.75 1.429,-2.143 4.107,1.607 3.393,3.215 4.8210001,0.178 1.072,-5.535 -2.322,-16.429 -3.5710001,-6.25 -3.214,-6.25 -3.393,-1.607 -4.822,2.143 z"
       id="path12551-3"
       inkscape:connector-curvature="0" />
    <path
       style="fill:#aa0000;stroke:none"
       d="m 0.49404214,524.74569 -7.21200004,-1.542 2.195,9.519 1.311,11.412 -0.831,7.276 6.246,4.324 1.615,-2.007 3.947,1.967 3.0929999,3.504 4.786,0.607 1.561,-5.417 -0.849,-16.571 -2.999,-6.543 -2.645,-6.512 -3.2359999,-1.903 -4.994,1.705 z"
       id="path12551-8-8"
       inkscape:connector-curvature="0" />
    <path
       style="fill:#aa0000;stroke:none"
       d="m 22.806042,533.62669 -7.196,-1.617 2.095,9.542 1.19,11.425 -0.907,7.267 6.201,4.389 1.635,-1.99 3.927,2.008 3.056,3.537 4.779,0.658 1.618,-5.401 -0.674,-16.579 -2.931,-6.574 -2.576,-6.539 -3.216,-1.937 -5.011,1.652 z"
       id="path12551-1-2"
       inkscape:connector-curvature="0" />
    <path
       style="fill:#aa0000;stroke:none"
       d="m 46.603042,543.14869 -7.043,-2.188 1.325,9.679 0.274,11.484 -1.485,7.171 5.83,4.871 1.789,-1.853 3.753,2.315 2.764,3.77 4.711,1.037 2.045,-5.254 0.652,-16.579 -2.396,-6.788 -2.044,-6.724 -3.051,-2.188 -5.128,1.247 z"
       id="path12551-2-5"
       inkscape:connector-curvature="0" />
    <path
       style="fill:#aa0000;stroke:none"
       d="m 69.566042,562.31969 -6.504,-3.477 -0.524,9.755 -1.898,11.329 -2.811,6.762 4.806,5.884 2.106,-1.482 3.25,2.982 2.002,4.223 4.432,1.907 2.998,-4.774 3.77,-16.158 -1.073,-7.118 -0.739,-6.989 -2.584,-2.724 -5.27,0.256 z"
       id="path12551-5-2"
       inkscape:connector-curvature="0" />
    <path
       style="fill:#aa0000;stroke:none"
       d="m 89.179042,578.22769 -6.355,-3.741 -0.925,9.725 -2.363,11.242 -3.087,6.64 4.56,6.076 2.166,-1.394 3.124,3.113 1.827,4.303 4.349,2.088 3.193,-4.647 4.429998,-15.99 -0.777998,-7.156 -0.452,-7.013 -2.469,-2.828 -5.276,0.04 z"
       id="path12551-7-0"
       inkscape:connector-curvature="0" />
    <path
       style="fill:#aa0000;stroke:none"
       d="m -47.520958,509.68169 -7.321,-0.893 -2.144,9.286 3.215,10.714 4.107,7.857 6.607,3.75 1.429,-2.143 4.107,1.607 3.393,3.215 4.821,0.178 1.072,-5.535 -2.322,-16.429 -3.571,-6.25 -3.214,-6.25 -3.393,-1.607 -4.822,2.143 z"
       id="path12551-4-3"
       inkscape:connector-curvature="0"
       sodipodi:nodetypes="ccccccccccccccccc" />
    <path
       style="fill:#aa0000;fill-opacity:1;stroke:none"
       d="m 96.839042,595.63469 c 11.069998,-11.56 24.472998,-24.617 13.636998,-47.477 -17.473998,-26.134 -10.584998,-40.641 1.263,-52.781 l 18.687,17.173 c -16.299,9.078 -28.16,19.716 -8.586,41.416 12.798,23.178 0.611,35.253 -10.101,47.982 2.086,8.852 5.828,18.448 -5.051,21.466 19.673,44.383 -18.300998,38.047 -34.092998,31.315 -20.941,-5.591 -14.509,10.717 -16.92,19.95 l -20.203,1.263 c -1.981,-18.612 4.713,-31.027 26.264,-32.83 25.956,4.233 45.463998,3.286 34.093,-22.476 -7.458,-8.334 -0.701,-16.667 1.01,-25.001 z"
       id="path12606-7"
       inkscape:connector-curvature="0"
       sodipodi:nodetypes="ccccccccccccc" />
  </g>
</svg>
