<?xml version="1.0" encoding="UTF-8" standalone="no"?>
<!-- Created with Inkscape (http://www.inkscape.org/) -->

<svg
   xmlns:dc="http://purl.org/dc/elements/1.1/"
   xmlns:cc="http://creativecommons.org/ns#"
   xmlns:rdf="http://www.w3.org/1999/02/22-rdf-syntax-ns#"
   xmlns:svg="http://www.w3.org/2000/svg"
   xmlns="http://www.w3.org/2000/svg"
   xmlns:sodipodi="http://sodipodi.sourceforge.net/DTD/sodipodi-0.dtd"
   xmlns:inkscape="http://www.inkscape.org/namespaces/inkscape"
   width="859.99994"
   height="564.28571"
   id="svg22048"
   version="1.1"
   inkscape:version="0.48.4 r9939"
   sodipodi:docname="Nieuw document 104">
  <defs
     id="defs22050" />
  <sodipodi:namedview
     id="base"
     pagecolor="#ffffff"
     bordercolor="#666666"
     borderopacity="1.0"
     inkscape:pageopacity="0.0"
     inkscape:pageshadow="2"
     inkscape:zoom="0.35"
     inkscape:cx="447.85709"
     inkscape:cy="110.71428"
     inkscape:document-units="px"
     inkscape:current-layer="layer1"
     showgrid="false"
     fit-margin-top="0"
     fit-margin-left="0"
     fit-margin-right="0"
     fit-margin-bottom="0"
     inkscape:window-width="1600"
     inkscape:window-height="837"
     inkscape:window-x="-8"
     inkscape:window-y="-8"
     inkscape:window-maximized="1" />
  <metadata
     id="metadata22053">
    <rdf:RDF>
      <cc:Work
         rdf:about="">
        <dc:format>image/svg+xml</dc:format>
        <dc:type
           rdf:resource="http://purl.org/dc/dcmitype/StillImage" />
        <dc:title></dc:title>
      </cc:Work>
    </rdf:RDF>
  </metadata>
  <g
     inkscape:label="Laag 1"
     inkscape:groupmode="layer"
     id="layer1"
     transform="translate(72.857094,-78.790756)">
    <rect
       style="fill:#aa0000;fill-opacity:1;stroke:none"
       id="rect21115"
       width="434.28571"
       height="564.28571"
       x="-72.857094"
       y="78.790756" />
    <rect
       style="fill:#294b7b;fill-opacity:1;stroke:none"
       id="rect21117"
       width="428.57144"
       height="564.28571"
       x="358.57138"
       y="78.790756" />
    <path
       style="fill:#e69319;fill-opacity:1;stroke:none"
       d="m 358.29634,218.56744 -117.8808,0 0,216.7363 c 1.4919,19.1364 16.5084,33.6124 33.1725,33.546 l 65.7526,0 c 9.9646,-0.04 19.0441,9.6216 18.9557,14.0018 l 0,-264.2841 115.4817,0 z"
       id="path3012-0"
       inkscape:connector-curvature="0"
       sodipodi:nodetypes="ccccccccc" />
    <path
       style="fill:#294b7b;fill-opacity:1;stroke:none"
       d="m 240.41554,292.48094 112.9288,182.3735 c 1.7112,1.6796 4.5278,4.4526 4.952,7.9971 l 0,-101.8824 0,-0.8251 -58.0767,0 58.0767,-87.6631 -58.0767,0 0,176.3688 -26.6316,0 c -8.3609,0.1284 -16.2828,-3.864 -21.8391,-9.0999 l 48.4707,-79.6058 -59.8041,0 z"
       id="path3020-0"
       inkscape:connector-curvature="0"
       sodipodi:nodetypes="cccccccccccccc" />
    <path
       style="fill:#aa0000;fill-opacity:1;stroke:none"
       d="m 358.29854,218.56784 117.8809,0 0,216.7363 c -1.4919,19.1364 -16.5085,33.6124 -33.1726,33.546 l -65.7525,0 c -9.9646,-0.04 -19.0442,9.6216 -18.9558,14.0018 z"
       id="path3012-1-6"
       inkscape:connector-curvature="0"
       sodipodi:nodetypes="ccccccc" />
    <path
       style="fill:#e69319;fill-opacity:1;stroke:none"
       d="m 358.29634,482.85154 c 2.8848,-9.6763 13.5422,-13.8727 17.939,-14.0018 0.856,0 -0.3324,0 -0.016,0 l 39.7325,0 0,-21.4111 -57.6559,0 0,-21.0319 57.6559,0 0,-19.8067 -57.6559,0 0,-21.0318 57.6559,0 0,-42.1395 60.2538,0 0,-21.658 -60.2538,0 0,-19.9252 60.2538,0 0,-21.658 -60.2538,0 0,-18.4815 60.2538,0 0,-21.0804 -60.2538,0 0,124.461 -57.6559,0 z"
       id="path3838-8"
       inkscape:connector-curvature="0"
       sodipodi:nodetypes="ccccccccccccccccccccccccccc" />
    <path
       style="fill:#1a1a1a"
       d="m 251.81074,237.18754 c -1.3079,-0.1095 -2.4308,-0.4871 -3.3515,-1.1272 -1.4041,-0.9759 -2.2878,-2.4252 -2.5745,-4.2218 -0.1845,-1.156 -0.1425,-2.4762 0.1133,-3.5686 0.5408,-2.3078 2.161,-3.9753 4.5503,-4.6832 1.7399,-0.5154 3.8438,-0.5058 5.8446,0.027 l 0.2671,0.071 -0.017,0.087 c -0.028,0.1471 -0.079,1.3037 -0.1022,2.3344 l -0.022,0.9788 -0.085,0.01 c -0.047,0 -0.1577,0.014 -0.2471,0.02 -0.09,0.01 -0.2015,0.016 -0.249,0.022 -0.086,0.01 -0.086,0.01 -0.1072,-0.138 -0.012,-0.082 -0.043,-0.2671 -0.069,-0.4129 -0.2602,-1.4235 -1.0531,-2.2384 -2.3406,-2.4052 -0.3359,-0.044 -0.9988,-0.03 -1.3407,0.028 -0.5101,0.086 -0.9422,0.2452 -1.3723,0.5055 -1.0333,0.6254 -1.744,1.7897 -2.0441,3.3484 -0.1243,0.6457 -0.1482,0.9583 -0.1482,1.9404 2e-4,1.5746 0.1838,2.6451 0.6342,3.6973 0.6379,1.4895 1.6146,2.3379 2.9152,2.5323 0.3164,0.047 0.8485,0.051 1.1311,0.01 1.3056,-0.1986 2.2677,-1.0699 2.926,-2.6502 0.078,-0.1874 0.167,-0.4157 0.1976,-0.5074 0.045,-0.138 0.064,-0.1645 0.1071,-0.1548 0.028,0.01 0.1808,0.038 0.3381,0.07 0.2728,0.055 0.2852,0.06 0.2694,0.1076 -0.063,0.1851 -0.2956,1.4687 -0.3919,2.1602 -0.041,0.2886 -0.1473,1.2003 -0.1473,1.2533 0,0.018 -0.7547,0.2395 -1.1288,0.33 -0.6122,0.1481 -1.2767,0.2621 -1.8625,0.3196 -0.4311,0.042 -1.3027,0.052 -1.6945,0.019 z m 7.638,0 c -0.3977,-0.083 -0.7761,-0.448 -0.9208,-0.8888 -0.1145,-0.347 -0.094,-0.7742 0.052,-1.1077 0.142,-0.3242 0.4931,-0.6445 0.8061,-0.7353 0.1862,-0.054 0.473,-0.046 0.6631,0.019 0.3056,0.1043 0.5983,0.391 0.763,0.7474 0.079,0.1708 0.085,0.2121 0.086,0.5907 0,0.3825 0,0.4184 -0.086,0.5963 -0.1047,0.2278 -0.3284,0.4994 -0.5095,0.6192 -0.2411,0.1595 -0.5621,0.2193 -0.8531,0.1588 z m 10.4014,0.01 c -0.1248,-0.022 -0.3296,-0.1129 -0.4512,-0.2006 -0.1455,-0.1048 -0.3754,-0.3939 -0.4525,-0.569 -0.1588,-0.3607 -0.1572,-0.8652 0,-1.2277 0.1,-0.2255 0.3203,-0.4825 0.5171,-0.6036 0.6299,-0.3879 1.3704,-0.1189 1.7138,0.6226 0.082,0.1779 0.087,0.2136 0.087,0.5962 0,0.3816 0,0.419 -0.087,0.5964 -0.1047,0.2277 -0.3281,0.4993 -0.5092,0.6192 -0.2292,0.1516 -0.5439,0.2152 -0.8225,0.1665 z m 14.0933,-0.029 c -0.094,-0.028 -0.2305,-0.09 -0.3039,-0.1387 -0.1791,-0.1184 -0.4011,-0.3896 -0.5076,-0.6198 -0.081,-0.1763 -0.086,-0.2132 -0.086,-0.595 0,-0.3795 0,-0.4194 0.085,-0.5907 0.1651,-0.3567 0.4576,-0.643 0.7631,-0.7474 0.1902,-0.065 0.477,-0.074 0.6632,-0.019 0.3147,0.091 0.6695,0.4162 0.8101,0.7421 0.296,0.6862 0.044,1.5148 -0.5677,1.8714 -0.1592,0.093 -0.2881,0.1283 -0.5035,0.1388 -0.1511,0.01 -0.2103,4e-4 -0.3519,-0.042 z m -21.7251,-0.5328 0,-0.2868 0.2425,-0.032 c 0.3052,-0.04 0.608,-0.1269 0.7732,-0.223 0.2185,-0.1273 0.329,-0.3098 0.4209,-0.6958 0.053,-0.2252 0.079,-10.0909 0.027,-10.4249 -0.058,-0.3716 -0.206,-0.6227 -0.437,-0.7407 -0.1207,-0.062 -0.4169,-0.1246 -0.6875,-0.1455 -0.089,-0.01 -0.2006,-0.016 -0.2497,-0.022 l -0.09,-0.01 0,-0.2777 0,-0.2777 2.6449,0 2.6449,0 0.018,0.274 c 0.012,0.1507 0.016,0.2758 0.012,0.2779 0,0 -0.1529,0.017 -0.3313,0.035 -0.6804,0.063 -0.9062,0.1866 -1.0779,0.5878 -0.053,0.1236 -0.058,0.463 -0.068,5.2436 -0.012,3.622 0,5.1831 0.025,5.3576 0.044,0.3 0.131,0.5424 0.2401,0.6679 0.1579,0.1813 0.517,0.3192 0.9857,0.3784 l 0.2456,0.031 -0.02,0.141 c -0.012,0.078 -0.02,0.2057 -0.02,0.2849 l 0,0.1439 -2.6496,0 -2.6495,0 0,-0.2869 z m 10.3913,0.1353 c -0.012,-0.084 -0.02,-0.2116 -0.02,-0.2854 l -2e-4,-0.134 0.2529,-0.032 c 0.6736,-0.084 1.0462,-0.2783 1.1877,-0.6184 0.1394,-0.3349 0.1361,-0.1969 0.1361,-5.6415 l 0,-5.1967 -0.071,-0.1548 c -0.1924,-0.4194 -0.4547,-0.551 -1.2242,-0.6136 l -0.2816,-0.022 2e-4,-0.1344 c 2e-4,-0.074 0.012,-0.2026 0.02,-0.2858 l 0.02,-0.1515 2.7429,0 2.7428,0 0,0.2295 c 0,0.1264 0.012,0.2541 0.018,0.2841 l 0.019,0.054 -0.287,0.04 c -0.3603,0.05 -0.6333,0.1245 -0.8165,0.2229 -0.24,0.1289 -0.3564,0.3 -0.4533,0.667 -0.049,0.1876 -0.055,0.6292 -0.066,4.92 -0.012,4.886 -0.012,5.1117 0.1207,5.4741 0.147,0.4179 0.3801,0.5435 1.1075,0.5968 0.3488,0.025 1.0147,0.01 1.333,-0.033 0.6977,-0.092 1.1687,-0.3229 1.4511,-0.7127 0.1921,-0.2653 0.4798,-0.8568 0.7439,-1.5297 0.047,-0.1197 0.091,-0.2207 0.097,-0.2245 0.012,0 0.1532,0.02 0.3257,0.054 l 0.3139,0.061 -0.018,0.059 c -0.038,0.1267 -0.2478,1.1389 -0.3113,1.5077 -0.085,0.4955 -0.1548,1.0402 -0.1837,1.4433 l -0.023,0.3169 -4.4285,0 -4.4285,0 -0.02,-0.1515 z"
       id="path3846-3"
       inkscape:connector-curvature="0" />
    <path
       style="fill:#aa0000;fill-opacity:1;stroke:#ffffff;stroke-width:0.24541366px;stroke-linecap:butt;stroke-linejoin:miter;stroke-opacity:0"
       d="m 300.13784,358.00464 19.8044,0 0,25.4429 c -0.1109,8.4002 -6.1669,19.5241 -19.8044,19.5849 -8.2572,-13.6087 -5.9578,-28.284 0,-43.6147 0.079,-0.2033 -18.9733,-1.1121 -18.9725,-1.3289 0,-0.061 1.6813,-0.079 3.3544,-0.073 5.2619,0.019 15.6217,0.181 15.6222,-0.011 z"
       id="path2836-5-6-1-7-1-1-9-1-3-0"
       sodipodi:nodetypes="ccccssscc"
       inkscape:connector-curvature="0" />
    <path
       style="fill:#aa0000;fill-opacity:1;stroke:#ffffff;stroke-width:0.24541366px;stroke-linecap:butt;stroke-linejoin:miter;stroke-opacity:0"
       d="m 300.13834,358.00754 -15.8808,0 -3.9235,0 0,25.443 c 0.1108,8.4002 6.1669,19.5242 19.8043,19.5849 0.1913,-14.8657 0.042,-29.7908 0,-45.0279 z"
       id="path2836-5-6-1-7-7-4-3-9-6"
       sodipodi:nodetypes="cccccc"
       inkscape:connector-curvature="0" />
    <path
       style="fill:#ffffff;fill-opacity:0.31603777;stroke:#000000;stroke-width:0.24543412px;stroke-linecap:butt;stroke-linejoin:miter;stroke-opacity:0"
       d="m 280.33624,357.99784 0.9066,0.8468 37.7738,-0.014 0.9219,-0.8455 z"
       id="path4533-2-0-2-9-2-4"
       inkscape:connector-curvature="0"
       sodipodi:nodetypes="ccccc" />
    <path
       style="fill:#ffffff;fill-opacity:0.18396229;stroke:#000000;stroke-width:0.24543412px;stroke-linecap:butt;stroke-linejoin:miter;stroke-opacity:0"
       d="m 280.33864,357.99454 0.9089,0.8557 0,26.158 c 1.1663,7.9896 6.5987,17.3065 18.8912,17.2073 l 0,0.8239 c -12.9321,0.1545 -19.3744,-10.4517 -19.8001,-18.3782 z"
       id="path4509-9-6-3-0-3-3-2-3"
       sodipodi:nodetypes="ccccccc"
       inkscape:connector-curvature="0" />
    <path
       style="fill:#000000;fill-opacity:0.19571868;stroke:#000000;stroke-width:0.24543412px;stroke-linecap:butt;stroke-linejoin:miter;stroke-opacity:0"
       d="m 319.94244,357.98814 -0.9089,0.8557 0,26.1581 c -1.1665,7.9896 -6.5988,17.3064 -18.8914,17.2073 l 0,0.8238 c 12.9232,0.248 19.3726,-10.4324 19.8003,-18.3781 l 0,-26.6668 z"
       id="path4509-9-2-6-2-9-5-7"
       sodipodi:nodetypes="ccccccc"
       inkscape:connector-curvature="0" />
    <rect
       style="fill:#000000;fill-opacity:1;stroke:none"
       id="rect7882-0"
       width="1.6169492"
       height="264.00009"
       x="357.57861"
       y="218.63806" />
    <rect
       style="fill:#000000;fill-opacity:1;stroke:none"
       id="rect7882-1-5"
       width="1.6169492"
       height="250.4904"
       x="414.87402"
       y="218.66193" />
    <rect
       style="fill:#000000;fill-opacity:1;stroke:none"
       id="rect7882-6-2"
       width="1.5924976"
       height="117.71963"
       x="290.38074"
       y="-358.50034"
       transform="matrix(-6.5230471e-4,0.99999979,-0.99999491,-0.00319032,0,0)" />
    <rect
       style="fill:#000000;fill-opacity:1;stroke:none"
       id="rect7882-6-4-0"
       width="1.5924976"
       height="117.71963"
       x="341.2948"
       y="-476.336"
       transform="matrix(-6.5230471e-4,0.99999979,-0.99999491,-0.00319032,0,0)" />
    <path
       style="fill:#1a1a1a;fill-opacity:1;stroke:none"
       d="m 250.97944,243.48144 c -0.3302,1.8484 -4.1558,2.6511 -0.5583,5.674 0.3317,1.2109 1.3842,2.1268 -0.1524,4.1027 -1.2868,0.2354 -3.1782,-0.4613 -1.8274,3.8409 1.1999,2.1682 2.4276,4.9751 3.3503,0.7855 0.7482,-0.05 1.5356,-0.4546 2.1319,0.873 -0.9681,0.4885 -1.3247,1.5714 -0.1009,4.1899 1.545,0.4132 2.2809,-0.069 2.4873,-1.1348 0.7068,-0.232 1.3326,-0.6495 1.4721,-2.1822 l 1.3197,1.4838 c 0.6727,2.5606 0.012,5.1211 2.7411,7.6817 0.3951,-2.5365 2.5402,-7.9521 0.7107,2.1823 l 1.9796,-1.6585 0.8122,0.7856 c -1.4202,2.7336 -3.8719,4.7544 -7.7018,3.8046 -0.6881,-4.7638 -1.0767,-7.9292 -3.5671,-5.0267 -1.735,2.0397 -3.1,4.1225 0.7107,6.8087 -0.4585,1.9629 -1.27,1.3639 -2.0304,1.1348 -2.9922,-2.9424 -3.6065,0.8884 -3.0457,3.1425 0.8706,5.3756 2.0495,4.6569 3.2995,2.5315 0.207,0.3915 1.8009,-2.1978 0.5583,1.3093 -1.4759,2.9066 0.4975,2.336 1.6243,2.6187 3.8675,-0.172 2.5419,-1.7031 2.2335,-2.9678 l -0.3553,-0.9602 2.4873,-2.2696 c 0.014,1.804 -0.5309,3.608 0.8629,5.4121 1.331,0.1156 2.886,1.387 3.4518,-2.4443 l -0.1523,-2.0949 c 0.7588,0.9187 1.5932,0.5353 2.4873,-0.8729 l 1.9797,0 c 0.2105,3.2061 0.967,5.5358 3.1979,5.4992 -0.4215,-2.3075 -0.7474,-4.5601 1.2182,-5.4992 2.1057,-0.509 2.9117,4.0784 0.4061,5.5866 2.839,-0.1104 5.5798,-0.6489 6.4277,-9.4327 0.331,1.4793 0.7641,2.9059 -0.2154,5.0614 4.1223,0.7923 7.9185,0.5857 8.9734,-8.0242 0.5347,1.4403 0.5911,2.8805 -0.3589,4.3207 4.7702,4.7642 12.4511,-4.0977 19.526,-10.1227 2.6577,-1.0106 5.2046,-3.2598 8.1119,-1.4814 l -2.0818,0.8641 2.3689,0.6173 c -0.3236,1.0733 -0.8186,1.9699 -0.5025,3.7034 -0.5754,4.7965 -1.533,7.5027 -3.5893,4.1972 0.5119,-3.8069 -0.9345,-4.9196 -3.8047,-4.0737 -1.1916,1.5649 -0.3387,3.6708 0.1436,5.6786 -1.8802,-0.5259 -4.454,-6.3527 -5.2405,1.4813 0.3969,2.3203 1.4896,3.77 4.8446,2.3905 -0.458,1.6438 -2.872,1.6334 -1.3987,4.5226 2.4535,4.8757 2.6684,-0.1456 3.661,-1.7282 1.2504,-2.2236 2.32,-1.9601 3.4458,-2.469 -0.3873,1.4755 -2.3403,2.3841 -0.4307,4.6911 2.3642,1.3697 3.8462,0.1713 4.4508,-3.5801 1.9822,-1.1659 1.8568,1.4944 1.4357,4.6911 1.9847,-2.6584 4.6804,-5.2678 3.4458,-8.1476 1.3054,-7.6963 5.2501,-8.332 8.9015,-9.7524 3.3945,-0.5444 6.3371,0.2371 8.1119,4.4442 2.3497,3.8676 -0.6172,10.4004 -3.3021,4.4441 -1.0149,-2.6551 -1.9671,-5.9272 -3.5535,-2.9628 -0.7601,0.9362 -2.4763,1.4373 -0.1795,3.7652 0.1157,0.7641 0.091,1.4749 -0.646,1.9134 -0.9653,-1.075 -1.9018,-1.72 -2.5844,1.4197 0.4506,3.4494 1.189,5.9563 3.6253,2.901 l 1.3279,-1.7283 0.7539,1.111 c -0.5445,0.7993 -1.4603,1.4071 -0.1794,3.1481 1.4611,1.6212 2.5297,1.9409 2.656,-0.8643 l 4.4508,-2.5924 1.9382,2.469 c 1.5027,0.3032 5.2393,-5.5277 1.9026,-7.3347 l -0.6853,-4.321 c 0.9038,-6.4504 5.4933,-5.3416 3.8832,0.6984 5.1585,-12.8649 -3.7816,-12.3135 -6.9035,-8.991 -1.0517,-2.8302 -2.0736,-5.6707 -2.4618,-8.7291 2.9118,-10.2747 -2.0576,-14.0705 -8.8722,-16.0726 -0.56,-1.6157 -0.8583,-3.147 0.7179,-4.0737 -1.3167,-1.5631 -4.1741,-0.2443 -3.7328,4.8144 l -6.8916,3.4565 c -2.1318,-2.6223 -1.5824,-4.8758 -0.359,-7.0366 -2.7856,2.1959 -3.8921,5.6135 -3.1585,10.3697 -4.6279,2.6021 -11.8582,5.7355 -13.9985,2.8394 -4.0242,-3.8584 0.082,-8.2664 1.6512,-5.4317 3.4078,3.2065 6.8759,4.6506 10.5525,0 -1.6725,0.2953 -3.3078,1.0072 -5.2404,-1.6049 2.5942,1.1776 4.3693,0.2423 6.1737,-0.6173 -2.2494,-0.064 -4.0103,-0.6091 -5.3123,-1.6048 3.5743,-0.3972 5.8631,-3.4069 7.9684,-6.7896 -2.5498,1.5784 -4.8256,3.8048 -8.399,2.9627 -3.4515,-0.8446 -6.9317,-2.1083 -10.122,0.8642 -5.5212,7.6687 -0.863,20.0485 5.2404,17.5296 6.2589,-0.9268 10.8948,-2.8685 15.7213,-4.691 8.7451,-6.8026 19.6793,-2.8028 11.0552,5.4317 -12.8264,0.6692 -25.6527,1.3137 -38.4776,0.6172 0.7432,-3.4807 0.7193,-6.5847 -0.4308,-9.1351 -1.1334,7.8373 -3.5963,4.9986 -3.5017,1.8433 0.2429,-2.5928 0.6788,-5.1302 0.1523,-7.9435 -0.141,-2.0621 -0.2206,-4.1029 0.3045,-5.9359 -2.1827,3.095 -4.3654,3.3812 -6.5481,4.0154 -4.6776,-3.6691 -8.7777,-4.7677 -11.1675,1.7458 l -4.8222,0.3492 0.6598,1.484 1.2183,6.9833 c 0.5462,-1.728 2.1102,-4.0449 4.6193,-0.611 0.2289,4.6751 -1.3465,6.1181 -4.3655,4.9755 l -0.05,3.1425 1.5227,1.7458 -2.1319,-0.8729 c -4.624,-2.9388 -6.12,-5.8776 -8.4771,-8.8164 1.1923,-3.1095 1.6986,-5.9241 -0.8629,-7.4197 -1.3678,-0.02 -4.075,-2.6003 -3.2487,1.5713 -0.6317,3.0954 -1.3144,3.6456 -2.0812,0 -0.7302,-3.9786 -2.0665,-3.9623 -3.6041,-2.6189 z"
       id="path17640-9-7"
       inkscape:connector-curvature="0"
       sodipodi:nodetypes="ccccccccccccccccccccccccccccccccccccccccccccccccccccccccccccccccccccccccccccccccccccccccccccccccccccccccccccccc" />
    <path
       style="fill:#333333;stroke:none"
       d="m 258.69094,238.60984 c 0.1854,2.3588 0.052,4.553 -0.7179,6.4193 0,1.4884 0.9792,3.5435 2.2254,1.0493 0.2845,-2.4895 0.3741,-4.9791 -1.5075,-7.4686 z"
       id="path17642-4-5"
       inkscape:connector-curvature="0"
       sodipodi:nodetypes="cccc" />
    <path
       style="fill:#333333;stroke:none"
       d="m 247.16354,242.03254 c 1.3029,0.804 2.3737,2.0192 2.9823,4.0533 0.7665,0.6919 2.2801,0.1383 1.567,-2.9129 -1.1538,-1.5812 -2.3974,-2.8651 -4.5493,-1.1404 z"
       id="path17642-1-9-6"
       inkscape:connector-curvature="0"
       sodipodi:nodetypes="cccc" />
    <path
       style="fill:#333333;stroke:none"
       d="m 247.41134,260.91004 c 0.8781,-1.84 1.9035,-3.166 3.2221,-3.4685 0.6365,-1.0087 0.8417,-3.6464 -1.069,-3.5166 -1.2536,1.3377 -2.3747,2.9204 -2.1531,6.9851 z"
       id="path17642-10-2-1"
       inkscape:connector-curvature="0"
       sodipodi:nodetypes="cccc" />
    <path
       style="fill:#333333;stroke:none"
       d="m 250.99944,264.12504 c 1.2393,-1.0604 2.2201,-2.4826 2.6865,-4.625 0.714,-0.8412 2.2549,-0.5957 1.7541,2.578 -1.0385,1.8022 -2.1862,3.3274 -4.4406,2.047 z"
       id="path17642-8-4-8"
       inkscape:connector-curvature="0"
       sodipodi:nodetypes="cccc" />
    <path
       style="fill:#333333;stroke:none"
       d="m 250.46584,269.16374 c 1.3796,0.1895 2.5981,0.8805 3.4952,2.5697 0.845,0.3228 2.2216,-0.8929 1.069,-3.5168 -1.3545,-1.0066 -2.75,-1.686 -4.5642,0.9471 z"
       id="path17642-18-9-1"
       inkscape:connector-curvature="0"
       sodipodi:nodetypes="cccc" />
    <path
       style="fill:#333333;stroke:none"
       d="m 248.01014,283.85084 c 0.977,-1.6862 2.0718,-2.8361 3.4013,-2.9188 0.6899,-0.8988 1.042,-3.4902 -0.8672,-3.6774 -1.3227,1.1238 -2.5272,2.5136 -2.5341,6.5962 z"
       id="path17642-7-0-8"
       inkscape:connector-curvature="0"
       sodipodi:nodetypes="cccc" />
    <path
       style="fill:#333333;stroke:none"
       d="m 255.23654,289.46214 c -0.06,-1.5648 0.1891,-2.9889 1.0539,-4.1327 0.082,-0.9749 -0.7881,-2.4227 -2.1608,-0.9162 -0.4147,1.6021 -0.6354,3.2242 1.1069,5.0489 z"
       id="path17642-2-4-5"
       inkscape:connector-curvature="0"
       sodipodi:nodetypes="cccc" />
    <path
       style="fill:#333333;stroke:none"
       d="m 259.72244,288.67004 c 0.5472,-1.2513 0.7788,-2.6395 0.3829,-4.3 0.2357,-0.8781 1.4559,-1.3668 2.1824,1.0119 -0.143,1.6721 -0.4622,3.2015 -2.5653,3.2881 z"
       id="path17642-89-4-6"
       inkscape:connector-curvature="0"
       sodipodi:nodetypes="cccc" />
    <path
       style="fill:#333333;stroke:none"
       d="m 305.80774,269.81274 c 1.2611,0.9812 2.2717,2.3404 2.7835,4.452 0.7316,0.7954 2.2661,0.4525 1.6979,-2.6873 -1.0764,-1.7353 -2.256,-3.1867 -4.4814,-1.7647 z"
       id="path17642-23-9-5"
       inkscape:connector-curvature="0"
       sodipodi:nodetypes="cccc" />
    <path
       style="fill:#333333;stroke:none"
       d="m 300.97474,280.19754 c 1.1948,-1.2013 2.4243,-1.8325 3.7219,-1.3288 0.8006,-0.566 1.5256,-2.9171 -0.2924,-3.9362 -1.4458,0.5059 -2.8168,1.3208 -3.4295,5.265 z"
       id="path17642-0-8-9"
       inkscape:connector-curvature="0"
       sodipodi:nodetypes="cccc" />
    <path
       style="fill:#333333;stroke:none"
       d="m 304.71294,289.09014 c 0.9456,-1.7383 2.0187,-2.9473 3.346,-3.1022 0.6732,-0.9357 0.9773,-3.545 -0.9343,-3.6284 -1.3014,1.1952 -2.4797,2.6497 -2.4117,6.7306 z"
       id="path17642-28-5-2"
       inkscape:connector-curvature="0"
       sodipodi:nodetypes="cccc" />
    <path
       style="fill:#333333;stroke:none"
       d="m 309.84934,285.63734 c 1.3759,-0.2613 2.5815,-1.0155 3.4484,-2.7507 0.8389,-0.3668 2.2363,0.7765 1.1305,3.4594 -1.336,1.0767 -2.719,1.8287 -4.5789,-0.7087 z"
       id="path17642-25-3-6"
       inkscape:connector-curvature="0"
       sodipodi:nodetypes="cccc" />
    <path
       style="fill:#333333;stroke:none"
       d="m 328.22214,275.18534 c 1.3788,0.2081 2.5941,0.9155 3.4836,2.6168 0.8434,0.3342 2.2255,-0.8629 1.0848,-3.5023 -1.3496,-1.0248 -2.7422,-1.7231 -4.5684,0.8855 z"
       id="path17642-5-2-5"
       inkscape:connector-curvature="0"
       sodipodi:nodetypes="cccc" />
    <path
       style="fill:#333333;stroke:none"
       d="m 326.48094,283.64264 c 1.3533,-0.4991 2.6359,-0.4381 3.777,0.7377 0.8633,-0.1074 1.9794,-1.9512 0.4374,-3.8963 -1.4651,-0.2962 -2.9155,-0.2588 -4.2144,3.1586 z"
       id="path17642-81-3-2"
       inkscape:connector-curvature="0"
       sodipodi:nodetypes="cccc" />
    <path
       style="fill:#333333;stroke:none"
       d="m 331.84654,290.03214 c 1.0361,-1.5783 2.1704,-2.609 3.5003,-2.5495 0.7211,-0.8231 1.1663,-3.3719 -0.7324,-3.7629 -1.3609,0.9803 -2.6133,2.2385 -2.7679,6.3124 z"
       id="path17642-24-0-3"
       inkscape:connector-curvature="0"
       sodipodi:nodetypes="cccc" />
    <path
       style="fill:#333333;stroke:none"
       d="m 340.52574,287.88744 c 1.2013,-1.1823 2.1325,-2.6999 2.5255,-4.8855 0.6844,-0.9111 2.2311,-0.8199 1.8384,2.3984 -0.9759,1.9029 -2.0701,3.5402 -4.3639,2.4871 z"
       id="path17642-9-1-2"
       inkscape:connector-curvature="0"
       sodipodi:nodetypes="cccc" />
    <path
       style="fill:#333333;fill-opacity:1;stroke:none"
       d="m 273.77104,252.47254 c -8.7913,9.6445 -13.1592,-3.2735 -7.9948,-8.7728 -1.4944,11.0416 2.7922,10.8745 8.1217,8.6855 z"
       id="path17760-7-1"
       inkscape:connector-curvature="0"
       sodipodi:nodetypes="cccc" />
    <path
       style="fill:#000000;stroke:none"
       d="m 269.92554,265.15124 c 1.7366,-2.7338 3.78,-3.9496 6.2814,-2.9011 6.9171,3.2006 7.6314,-2.9219 7.6453,-7.4068 -0.7534,4.5034 -2.2757,7.7158 -7.1069,5.3699 -3.0134,-0.9701 -5.5224,-0.1577 -6.8198,4.938 z"
       id="path17762-1-2"
       inkscape:connector-curvature="0"
       sodipodi:nodetypes="ccccc" />
    <path
       style="fill:#ffffff;stroke:none"
       d="m 276.41064,247.49684 c 2.3421,-3.528 4.1906,0.5419 5.1015,4.3646 -1.8853,-0.9273 -4.3743,1.2799 -5.1015,-4.3646 z"
       id="path17764-9-2"
       inkscape:connector-curvature="0"
       sodipodi:nodetypes="ccc" />
    <path
       sodipodi:type="arc"
       style="fill:#000000;fill-opacity:1;stroke:none"
       id="path17766-8-8"
       sodipodi:cx="1348.8693"
       sodipodi:cy="-873.15027"
       sodipodi:rx="5.2401662"
       sodipodi:ry="6.1240497"
       d="m 1354.1094,-873.15027 c 0,3.38222 -2.3461,6.12405 -5.2401,6.12405 -2.8941,0 -5.2402,-2.74183 -5.2402,-6.12405 0,-3.38222 2.3461,-6.12405 5.2402,-6.12405 2.894,0 5.2401,2.74183 5.2401,6.12405 z"
       transform="matrix(0.22279856,0,0,0.38485337,-21.983552,584.66664)" />
    <path
       transform="matrix(0.20100305,0,0,0.34565534,7.5807479,550.24434)"
       sodipodi:type="arc"
       style="fill:#ffffff;fill-opacity:1;stroke:none"
       id="path17768-8-8"
       sodipodi:cx="1346.9753"
       sodipodi:cy="-874.79181"
       sodipodi:rx="1.5783633"
       sodipodi:ry="1.8309015"
       d="m 1348.5537,-874.79181 c 0,1.01118 -0.7067,1.8309 -1.5784,1.8309 -0.8717,0 -1.5783,-0.81972 -1.5783,-1.8309 0,-1.01118 0.7066,-1.8309 1.5783,-1.8309 0.8717,0 1.5784,0.81972 1.5784,1.8309 z" />
    <path
       style="fill:#333333;stroke:none"
       d="m 273.97404,242.34674 c -0.782,1.199 -0.8218,4.2185 2.1321,4.8883 -1.4943,-0.9807 -2.4578,-2.4008 -2.1321,-4.8883 z"
       id="path17770-3-8"
       inkscape:connector-curvature="0"
       sodipodi:nodetypes="ccc" />
    <path
       style="fill:#000000;stroke:none"
       d="m 274.12644,241.82294 c -0.5273,1.7344 -0.572,4.0042 2.3349,5.7613 2.4675,-2.5094 3.7005,-0.077 5.0254,4.2336 0.06,1.4143 0.7442,1.9953 1.3959,2.6187 -0.4695,-0.6874 -0.9648,-1.3086 -1.0405,-3.0116 -0.5107,-4.1187 -1.7483,-8.0882 -5.1016,-5.8921 -1.9412,1.13 -2.9637,-1.9854 -2.6141,-3.7099 z"
       id="path17772-2-7"
       inkscape:connector-curvature="0"
       sodipodi:nodetypes="ccccccc" />
    <path
       style="fill:#333333;stroke:none"
       d="m 274.83704,249.98464 c 1.2097,2.3709 0.5397,5.0003 0.127,7.5944 1.139,-2.8783 1.4965,-5.5272 -0.127,-7.5944 z"
       id="path17774-9-4"
       inkscape:connector-curvature="0"
       sodipodi:nodetypes="ccc" />
    <path
       style="fill:#000000;stroke:none"
       d="m 284.71364,244.59714 c 2.4541,-1.7613 4.071,-1.6305 3.1945,4.1354 0.4012,-1.7919 0.9593,-3.314 0.5378,-6.5208 -1.65,0.2136 -2.628,1.39 -3.7323,2.3854 z"
       id="path17776-3-0"
       inkscape:connector-curvature="0"
       sodipodi:nodetypes="cccc" />
    <path
       style="fill:#000000;stroke:none"
       d="m 281.56284,265.26064 c 1.9109,2.1364 0.608,7.0374 -1.3959,7.5943 1.8446,-1.9384 2.2584,-4.492 1.3959,-7.5943 z"
       id="path17778-32-0"
       inkscape:connector-curvature="0"
       sodipodi:nodetypes="ccc" />
    <path
       style="fill:#333333;stroke:none"
       d="m 279.50704,264.93334 c -0.1273,1.0682 -0.3916,2.6017 0.9137,3.9499 0.8348,1.3416 0.2039,2.4024 -0.4188,3.9717 0.8536,-1.5263 1.5922,-3.0204 1.0153,-4.1463 -0.7386,-1.1429 -1.4664,-2.2911 -1.5102,-3.7753 z"
       id="path17780-83-5"
       inkscape:connector-curvature="0"
       sodipodi:nodetypes="ccccc" />
    <path
       style="fill:#000000;stroke:none"
       d="m 270.66934,267.50564 c 0.5876,3.787 -2.2884,5.9271 -3.9937,4.0336 2.1249,0.684 3.4264,-0.7364 3.9937,-4.0336 z"
       id="path17778-8-4-9"
       inkscape:connector-curvature="0"
       sodipodi:nodetypes="ccc" />
    <path
       style="fill:#333333;stroke:none"
       d="m 269.26984,264.89544 c -0.5105,0.6468 -1.3039,1.4816 -0.8593,3.9859 0.097,1.9576 -0.7839,2.0191 -1.8574,2.4679 1.2283,-0.1509 2.3586,-0.4102 2.3685,-1.9109 -0.1035,-1.6992 -0.1972,-3.39 0.3482,-4.5429 z"
       id="path17780-8-0-9"
       inkscape:connector-curvature="0"
       sodipodi:nodetypes="ccccc" />
    <path
       style="fill:#000000;stroke:none"
       d="m 273.90424,267.51564 c 1.145,3.389 -1.3037,6.7523 -3.2381,5.6948 2.1548,-0.2991 3.1939,-2.257 3.2381,-5.6948 z"
       id="path17778-2-2-5"
       inkscape:connector-curvature="0"
       sodipodi:nodetypes="ccc" />
    <path
       style="fill:#333333;stroke:none"
       d="m 272.15544,265.62864 c -0.394,0.8546 -1.0321,2.0181 -0.2208,4.234 0.393,1.8448 -0.4484,2.3022 -1.4158,3.2197 1.1624,-0.7 2.2135,-1.4604 1.9939,-2.9128 -0.3593,-1.5929 -0.7075,-3.1823 -0.3573,-4.5409 z"
       id="path17780-7-0-3"
       inkscape:connector-curvature="0"
       sodipodi:nodetypes="ccccc" />
    <path
       style="fill:#000000;stroke:none"
       d="m 277.23054,266.47174 c 1.9109,2.1363 0.6079,7.0374 -1.3959,7.5944 1.8446,-1.9384 2.2584,-4.492 1.3959,-7.5944 z"
       id="path17778-1-1-0"
       inkscape:connector-curvature="0"
       sodipodi:nodetypes="ccc" />
    <path
       style="fill:#333333;stroke:none"
       d="m 275.17474,266.14454 c -0.1275,1.0682 -0.3916,2.6016 0.9137,3.9499 0.8347,1.3416 0.2038,2.4023 -0.4188,3.9717 0.8536,-1.5264 1.5922,-3.0204 1.0151,-4.1463 -0.7384,-1.1429 -1.4662,-2.2911 -1.51,-3.7753 z"
       id="path17780-79-2-9"
       inkscape:connector-curvature="0"
       sodipodi:nodetypes="ccccc" />
    <path
       style="fill:#000000;stroke:none"
       d="m 284.10594,263.09624 c 2.2154,0.9203 1.9358,6.2878 0.1542,7.9603 1.364,-2.884 1.2597,-5.5289 -0.1542,-7.9603 z"
       id="path17778-5-1-9"
       inkscape:connector-curvature="0"
       sodipodi:nodetypes="ccc" />
    <path
       style="fill:#333333;stroke:none"
       d="m 282.10404,263.96454 c 0.086,1.0803 0.1345,2.6776 1.6263,3.2015 1.0469,0.787 0.6574,2.1486 0.3741,3.9849 0.5095,-1.928 0.9166,-3.7598 0.1546,-4.491 -0.9177,-0.6549 -1.8263,-1.3209 -2.155,-2.6954 z"
       id="path17780-0-0-5"
       inkscape:connector-curvature="0"
       sodipodi:nodetypes="ccccc" />
    <path
       style="fill:#000000;stroke:none"
       d="m 287.42764,260.82474 c 2.2711,-0.3309 2.9922,4.9133 1.6092,7.4685 0.7641,-3.4775 0.1792,-5.9302 -1.6092,-7.4685 z"
       id="path17778-3-7-1"
       inkscape:connector-curvature="0"
       sodipodi:nodetypes="ccc" />
    <path
       style="fill:#333333;stroke:none"
       d="m 285.68804,262.73664 c 0.2808,0.9777 0.6197,2.4672 2.1313,2.1534 1.1379,0.1778 1.0185,1.6812 1.0874,3.5773 0.1289,-2.1059 0.1785,-4.0651 -0.6789,-4.3448 -0.9909,-0.1225 -1.9753,-0.2606 -2.5398,-1.3859 z"
       id="path17780-4-6-1"
       inkscape:connector-curvature="0"
       sodipodi:nodetypes="ccccc" />
    <path
       style="fill:#000000;stroke:none"
       d="m 290.09034,256.79884 c 2.1901,-1.0851 3.4913,3.8173 2.4241,6.7867 0.3557,-3.6669 -0.4958,-5.8766 -2.4241,-6.7867 z"
       id="path17778-0-6-1"
       inkscape:connector-curvature="0"
       sodipodi:nodetypes="ccc" />
    <path
       style="fill:#333333;stroke:none"
       d="m 288.60044,259.25674 c 0.3862,0.865 0.8873,2.2125 2.3344,1.3985 1.1362,-0.2067 1.1894,1.3079 1.4717,3.1447 -0.1121,-2.1089 -0.2852,-4.0472 -1.1579,-4.0343 -0.9859,0.2116 -1.9671,0.4058 -2.6482,-0.5089 z"
       id="path17780-1-8-2"
       inkscape:connector-curvature="0"
       sodipodi:nodetypes="ccccc" />
    <path
       style="fill:#000000;stroke:none"
       d="m 285.51644,252.63634 c 1.619,0.3984 1.6002,3.9229 0.3797,5.1752 0.8801,-2.0041 0.716,-3.7188 -0.3797,-5.1752 z"
       id="path17778-53-0-3"
       inkscape:connector-curvature="0"
       sodipodi:nodetypes="ccc" />
    <path
       style="fill:#333333;stroke:none"
       d="m 284.11104,253.38454 c 0.099,0.6963 0.1869,1.7333 1.274,1.9391 0.7769,0.4178 0.5436,1.3408 0.4028,2.5637 0.2999,-1.3032 0.5297,-2.5344 -0.041,-2.9417 -0.6798,-0.3434 -1.3535,-0.6949 -1.6356,-1.5611 z"
       id="path17780-42-5-3"
       inkscape:connector-curvature="0"
       sodipodi:nodetypes="ccccc" />
    <path
       style="fill:#000000;stroke:none"
       d="m 286.85584,250.14584 c 1.5852,-0.6925 2.3485,2.5784 1.4977,4.536 0.3696,-2.4296 -0.162,-3.9074 -1.4977,-4.536 z"
       id="path17778-53-3-8-9"
       inkscape:connector-curvature="0"
       sodipodi:nodetypes="ccc" />
    <path
       style="fill:#333333;stroke:none"
       d="m 285.72214,251.75844 c 0.2456,0.5791 0.5569,1.48 1.6075,0.9581 0.8109,-0.1228 0.7998,0.8834 0.9406,2.1063 -0.012,-1.4014 -0.072,-2.6903 -0.6899,-2.6929 -0.7047,0.128 -1.4054,0.2444 -1.8582,-0.3715 z"
       id="path17780-42-2-8-7"
       inkscape:connector-curvature="0"
       sodipodi:nodetypes="ccccc" />
    <path
       style="fill:#000000;stroke:none"
       d="m 315.40264,266.07704 c 1.6477,-0.024 2.5266,0.9418 3.4295,1.8775 2.3731,2.7803 4.6649,3.459 6.9436,3.8011 -1.5833,1.5168 -3.0179,3.3088 -3.3739,7.0983 l 0,0 c -0.1084,-3.9637 -1.1482,-4.9031 -2.9792,-3.2713 0.3931,-1.6417 -2.2629,-5.5071 -3.322,-2.8669 -0.6066,1.5121 -0.7638,4.8634 -2.8517,4.4717 1.689,-1.4968 1.7652,-3.7332 2.0799,-5.8601 -0.5603,-1.5717 0.014,-2.6113 0.4686,-3.7071 l -2.369,-0.4321 z"
       id="path17878-9-2"
       inkscape:connector-curvature="0"
       sodipodi:nodetypes="ccccccsccccc" />
    <path
       style="fill:#000000;fill-opacity:0.29716982;stroke:none"
       d="m 268.23814,280.49294 c 4.6719,-1.7746 3.9121,-4.3795 2.5888,-7.0706 2.1593,0.1598 3.2711,-2.0822 3.6041,-6.1104 0.3627,0.9567 0.4971,1.9463 1.6242,2.7934 0.5074,0.5777 0.1476,2.3028 -0.203,4.0154 2.5628,-1.4495 2.2213,-4.9279 2.7918,-7.7689 0.5224,0.932 0.7644,1.9846 1.7767,2.706 0.7069,1.0916 0.2966,2.5492 -0.4061,4.1027 1.9205,-0.6616 2.1649,-3.975 2.4366,-7.2451 0.2951,0.4613 0.1817,0.925 1.1163,0.981 0.4156,0.024 0.6571,0.8697 0.7111,1.9868 l -0.3046,2.7933 c 1.7064,-1.5153 1.7331,-4.5782 1.5736,-7.8125 0.6635,0.5299 0.9104,1.5973 2.3095,1.1783 1.088,0.044 1.0652,1.8887 1.2184,3.4481 1.2663,-3.7215 0.3464,-5.9235 -0.5838,-8.118 0.762,0.1723 1.309,0.5502 2.4619,0.3491 0.889,-0.046 1.276,1.491 1.599,3.2297 l 1.1929,-4.9755 10.0276,0.1265 c -8.5943,1.6958 -25.4412,21.7762 3.607,8.1853 -6.8375,5.7726 -14.3962,15.5968 -19.3453,10.7613 0.7277,-1.6706 0.6186,-2.9528 0.3554,-4.3645 -1.7707,7.173 -4.711,10.2229 -9.1877,7.8561 0.7961,-2.0846 0.6801,-3.581 0.4061,-4.9756 -0.9082,5.0911 -1.9115,10.0308 -6.3959,9.4275 2.8957,-7.8712 -3.5709,-6.8235 -1.8782,0 -1.8617,-0.626 -2.9932,-2.3146 -3.0964,-5.4994 z"
       id="path17880-5-3"
       inkscape:connector-curvature="0"
       sodipodi:nodetypes="cccccccccscccccccccccccccccc" />
    <path
       style="fill:#ffffff;fill-opacity:1"
       d="m 386.79994,336.03514 c -0.3304,-1.3261 -0.9221,-2.6238 -1.8819,-4.1271 l -0.8648,-1.3543 0.3459,-0.5831 c 0.5269,-0.8883 1.0246,-2.4066 1.2955,-3.9531 0.3537,-2.0185 0.3283,-2.0337 -0.5822,-0.3486 -0.7314,1.3534 -2.2321,3.3736 -2.2321,3.0046 0,-0.076 0.3111,-0.8787 0.6913,-1.784 0.8191,-1.95 1.2751,-3.4681 1.6113,-5.365 0.1356,-0.7645 0.2464,-1.4493 0.2464,-1.5213 0,-0.073 -0.3747,0.5994 -0.8328,1.4923 -0.9352,1.8232 -2.0073,3.2043 -2.9322,3.7772 -1.2951,0.8022 -1.8192,2.2993 -1.5196,4.341 0.1,0.6766 0.1529,1.2635 0.1195,1.304 -0.034,0.041 -0.3012,-0.2894 -0.5943,-0.7336 -1.3515,-2.0484 -1.3955,-4.0883 -0.1194,-5.5197 0.5424,-0.6085 0.5461,-0.7085 0.037,-0.9869 -0.614,-0.3358 -1.621,-1.4638 -1.9138,-2.1437 -0.174,-0.4037 -0.2239,-0.8457 -0.1495,-1.322 l 0.112,-0.7155 0.5405,0.6155 c 2.1528,2.4515 4.7789,1.3369 6.3268,-2.6851 0.5516,-1.4332 1.0961,-4.199 1.0961,-5.5674 l 0,-0.7085 -0.7222,0.6711 c -2.0701,1.924 -4.0361,5.0518 -4.0361,6.4216 0,0.9498 -0.303,0.6473 -0.4842,-0.4835 -0.1737,-1.0835 -0.1071,-1.9848 0.2158,-2.9158 0.074,-0.2145 -0.032,-0.41 -0.325,-0.5984 -0.4184,-0.2688 -1.4458,-1.9054 -1.4458,-2.3032 0,-0.1058 0.2103,-0.026 0.4673,0.1753 1.4021,1.1035 2.1893,1.1867 3.2351,0.3422 1.2746,-1.0297 1.8666,-2.201 2.5003,-4.947 0.9848,-4.2679 1.0681,-5.9363 0.3614,-7.231 -0.4827,-0.8845 -0.9563,-0.8807 -1.6002,0.012 -0.5154,0.715 -0.5648,0.8923 -0.5047,1.8126 0.037,0.561 0.1271,1.1806 0.2011,1.3769 0.112,0.2975 0.047,0.357 -0.3877,0.357 -0.7055,0 -2.0695,-0.566 -2.4941,-1.0348 -0.3423,-0.3779 -0.3512,-0.3697 -0.8922,0.8114 -0.8327,1.8184 -0.6943,2.9642 0.4067,3.3658 0.2251,0.082 0.4382,0.015 0.5731,-0.1798 0.34,-0.4917 0.5675,-0.3725 1.0619,0.5564 0.2538,0.4768 0.6214,1.1032 0.8168,1.3919 0.2645,0.391 0.3248,0.6707 0.2359,1.0959 l -0.1195,0.5709 -0.2133,-0.609 c -0.2994,-0.8548 -1.032,-1.0102 -1.618,-0.343 -0.6061,0.69 -1.0243,0.6206 -1.493,-0.2474 -0.3838,-0.7111 -0.4246,-0.7323 -1.1708,-0.6096 -0.4252,0.071 -0.9396,0.1273 -1.1429,0.1273 -0.8093,0 -1.4521,2.4901 -1.4521,5.6256 0,1.2366 -0.062,1.7029 -0.2348,1.7828 -0.129,0.059 -0.2703,0.4595 -0.3139,0.8888 -0.061,0.6094 0.012,0.907 0.3198,1.3573 0.2195,0.3172 0.3989,0.6603 0.3989,0.7625 0,0.1022 -0.3089,0.4197 -0.6864,0.7059 -1.0304,0.7808 -1.1971,1.6295 -0.5198,2.6469 0.2715,0.408 0.2715,0.408 -0.1506,0 -0.7264,-0.7023 -0.8414,-0.9887 -0.8469,-2.1099 0,-0.7735 -0.1047,-1.2402 -0.3453,-1.6084 -0.4824,-0.7361 -0.4356,-0.94 0.4248,-1.849 l 0.7647,-0.808 0,-2.11 0,-2.1098 -1.0106,1.2005 c -0.5559,0.6602 -1.3328,1.7708 -1.7266,2.4679 -0.8733,1.546 -1.3503,1.9127 -2.4246,1.8638 -0.7028,-0.032 -0.872,0.042 -1.2261,0.5363 -0.292,0.4075 -0.3858,0.7319 -0.3244,1.1219 0.079,0.4997 0.064,0.4901 -0.1672,-0.1072 -0.3061,-0.7908 -0.1953,-1.2226 0.6586,-2.5655 0.3371,-0.5302 0.6131,-1.1367 0.6131,-1.3477 0,-0.7071 0.5941,-1.2848 1.7933,-1.744 l 1.1805,-0.4521 1.1471,-2.0136 c 0.6308,-1.1075 1.1472,-2.0639 1.1474,-2.1253 3e-4,-0.061 -0.5724,-0.082 -1.2724,-0.045 -1.184,0.062 -1.2975,0.1087 -1.6263,0.663 -0.4455,0.751 -1.0477,0.7783 -1.8964,0.086 -0.7819,-0.6379 -1.0606,-0.6395 -1.5855,-0.01 l -0.4172,0.5007 0,-0.4651 c 0,-0.5667 0.5968,-1.272 1.2381,-1.4631 0.3207,-0.095 0.55,-0.3614 0.711,-0.8239 0.3067,-0.881 0.795,-1.0217 2.1262,-0.6122 2.1051,0.6473 2.3056,0.5775 4.9983,-1.7409 1.3184,-1.1352 2.4897,-2.1679 2.603,-2.295 0.1545,-0.1734 -0.1639,-0.2318 -1.2745,-0.2336 -0.8914,0 -1.6348,-0.1071 -1.8681,-0.2655 -0.373,-0.2532 -0.3442,-0.2895 0.7647,-0.9625 1.4615,-0.887 3.0722,-2.3467 4.6664,-4.2289 3.2835,-3.8769 4.2871,-8.1149 3.2724,-13.8184 -0.4537,-2.5509 -0.4987,-2.4668 -0.5199,0.9736 -0.018,2.9714 -0.078,3.6725 -0.4624,5.4248 -0.411,1.8733 -1.3432,4.3159 -1.9177,5.0255 -0.1364,0.1683 -0.015,-0.1989 0.2695,-0.816 1.251,-2.7132 1.808,-6.2815 1.6182,-10.3656 -0.064,-1.3814 -0.1523,-2.469 -0.1958,-2.4168 -0.043,0.052 -0.147,1.2467 -0.2301,2.6547 -0.2549,4.3175 -0.7533,6.873 -1.8483,9.4769 l -0.5404,1.2854 0.3696,0.3593 c 0.3198,0.3109 0.3418,0.4222 0.1622,0.825 -0.1721,0.386 -0.3139,0.4502 -0.8299,0.3757 -0.5101,-0.074 -0.7448,0.029 -1.302,0.5672 -0.3739,0.3613 -1.0075,0.8552 -1.4081,1.0975 l -0.7285,0.4405 0.4496,-1.065 c 0.7054,-1.671 1.5606,-4.6748 1.9513,-6.8524 0.2707,-1.5097 0.3731,-2.9311 0.4226,-5.8683 0.069,-4.1288 -0.025,-4.1021 -0.5068,0.1453 -0.1492,1.3142 -0.4638,3.2878 -0.699,4.386 -0.4552,2.1249 -1.7213,5.4667 -2.3119,6.1018 -0.2829,0.3043 -0.2339,0.09 0.2394,-1.0452 1.2074,-2.8964 2.1369,-7.1575 2.4918,-11.4239 0.084,-1.0097 0.1284,-1.8662 0.099,-1.9031 -0.03,-0.037 -0.1422,0.4679 -0.2497,1.1219 -0.8285,5.0416 -1.937,9.2289 -3.0585,11.5543 -0.7455,1.5457 -0.8031,1.7728 -0.4502,1.7728 0.388,0 0.5906,0.4653 0.4276,0.982 -0.1207,0.3824 -0.2542,0.4599 -0.7027,0.408 -0.4394,-0.051 -0.5658,-0.167 -0.6124,-0.5626 -0.032,-0.2742 0.047,-0.5955 0.1756,-0.714 0.1536,-0.1411 0.1995,-0.4264 0.1336,-0.8274 -0.097,-0.5895 -0.1219,-0.5595 -0.6854,0.816 -0.7721,1.8852 -1.8521,3.1808 -3.1306,3.7549 -0.5478,0.2461 -1.2684,0.4199 -1.6013,0.3863 l -0.6052,-0.061 0.6126,-0.8159 c 1.4843,-1.977 3.2279,-5.8615 4.4551,-9.9255 0.8382,-2.7761 2.0372,-8.0541 1.912,-8.4168 -0.046,-0.1325 -0.081,-0.1154 -0.09,0.043 -0.028,0.5547 -1.2792,4.3102 -2.0738,6.2253 -0.9399,2.2657 -2.3924,4.9902 -3.2351,6.0685 -0.312,0.3992 -0.4415,0.5369 -0.2879,0.306 0.712,-1.07 2.2395,-4.0972 2.9426,-5.8314 0.9674,-2.386 2.7232,-8.7986 2.1209,-7.7463 -0.096,0.1683 -0.8885,1.677 -1.7603,3.3527 -1.7165,3.2989 -4.158,7.4794 -5.1306,8.7852 l -0.608,0.8159 0.096,-0.661 c 0.092,-0.6338 0.05,-0.6024 -1.0235,0.7639 -1.481,1.8847 -2.7775,2.6747 -4.6115,2.8098 l -1.3119,0.096 0.5098,-0.4672 c 2.6958,-2.4704 5.4271,-7.5384 10.11,-18.7599 0.8834,-2.117 0.8328,-2.0689 -2.4875,2.3617 -2.5463,3.3978 -4.1941,5.2038 -5.4491,5.9721 -1.1747,0.7193 -1.2311,0.4932 -0.094,-0.3735 0.5834,-0.4443 1.7229,-1.5679 2.5323,-2.497 1.4724,-1.6903 6.0085,-7.5954 6.0085,-7.8221 0,-0.066 -0.793,0.6147 -1.7624,1.5129 -2.5964,2.4061 -3.6005,3.09 -5.2441,3.5716 -0.4442,0.1303 -0.4568,0.1129 -0.2927,-0.4051 0.095,-0.2977 0.1437,-0.5746 0.1095,-0.6153 -0.034,-0.041 -0.5157,0.1981 -1.0707,0.531 -1.1985,0.719 -2.6475,0.9773 -3.5273,0.6287 -0.3396,-0.1346 -0.617,-0.3065 -0.6161,-0.3819 0,-0.076 0.5461,-0.5405 1.2118,-1.0336 2.3899,-1.7701 4.7473,-4.4636 6.2353,-7.1241 0.7511,-1.343 1.728,-3.3824 1.728,-3.6076 0,-0.085 -0.4397,0.3696 -0.9773,1.0101 -1.2913,1.5392 -3.0195,2.5602 -4.3336,2.5602 -1.2738,0 -3.3559,-1.2246 -3.3559,-1.9737 0,-0.6273 0.7118,-1.0696 1.0996,-0.6833 0.313,0.3119 0.3443,1.1588 0.048,1.2861 -0.5356,0.2295 0.7818,0.7448 1.9276,0.754 1.345,0.01 3.4095,-1.2516 5.1671,-3.1593 l 0.6799,-0.7378 -0.5099,0.1154 c -2.2853,0.5173 -4.3689,0.7683 -5.2637,0.6341 l -1.006,-0.1509 0.4158,-0.3837 0.416,-0.3838 -0.6686,0 c -0.8163,-0.01 -2.0136,-0.6723 -2.4769,-1.3795 -0.1887,-0.2878 -0.3113,-0.5613 -0.2725,-0.6079 0.038,-0.046 0.5919,-0.2154 1.2295,-0.3756 1.8503,-0.4647 3.4278,-1.482 4.8495,-3.1275 l 1.2474,-1.4436 -1.0586,0.5068 c -1.1436,0.5475 -2.7107,0.6766 -3.5521,0.2926 -0.7908,-0.361 -1.9156,-1.2953 -2.0255,-1.6825 -0.2144,-0.7548 0.7543,-1.3087 1.2493,-0.7144 0.2776,0.3332 0.2562,0.6835 -0.065,1.0696 -0.2462,0.2955 -0.2137,0.3517 0.3747,0.6467 0.9926,0.4981 2.7965,0.3197 4.0157,-0.3969 0.5375,-0.3158 0.9772,-0.6375 0.9772,-0.715 0,-0.078 -0.4015,-0.2541 -0.8921,-0.3928 -2.1345,-0.6031 -4.2035,-2.4178 -5.3673,-4.7077 l -0.5536,-1.0891 0.5601,0.144 0.5601,0.144 -0.3611,-0.4827 c -0.6233,-0.8334 -0.7697,-1.3582 -0.6487,-2.3266 0.063,-0.5006 0.1549,-0.9102 0.2054,-0.9102 0.05,0 0.5005,0.4639 0.9998,1.0309 1.1193,1.2707 2.4696,2.0121 3.95,2.1685 l 1.1225,0.1186 -1.4152,-0.8801 c -1.7888,-1.1124 -3.8147,-3.4207 -3.734,-4.2546 0.044,-0.4612 0.1305,-0.5293 0.6676,-0.5293 l 0.6165,0 -0.5006,-0.8728 c -0.9194,-1.6033 -1.3692,-3.0864 -1.4592,-4.8103 -0.082,-1.5758 0.189,-3.8028 0.4633,-3.8028 0.075,0 0.3087,0.482 0.5189,1.071 0.5695,1.5963 1.7768,3.7421 2.7716,4.9264 0.8173,0.9728 2.3937,2.3666 2.6767,2.3666 0.068,0 -0.022,-0.3408 -0.1991,-0.7572 -0.6159,-1.4507 -0.2891,-2.4064 0.9024,-2.6385 0.8939,-0.1741 1.5142,0.744 0.9096,1.3463 -0.3724,0.3711 -0.9952,0.1723 -1.2288,-0.3923 l -0.2084,-0.5036 -0.1546,0.5017 c -0.3005,0.9753 0.2881,2.5468 1.108,2.9581 0.9451,0.4741 1.7137,1.3097 2.1218,2.3067 0.333,0.8138 0.4057,1.399 0.4981,4.0127 0.059,1.6829 0.198,3.407 0.3079,3.8311 0.2929,1.1319 1.5134,2.8105 2.5531,3.5118 1.2094,0.8158 1.4974,1.3453 1.706,3.1384 0.2137,1.8378 0.5314,2.6873 1.1761,3.1445 0.6857,0.4862 1.3586,0.434 2.0893,-0.162 0.756,-0.6167 1.1399,-0.6396 1.7092,-0.1022 0.523,0.4938 1.434,0.5286 1.9729,0.076 0.8819,-0.7414 1.1331,-2.9285 0.5222,-4.5449 l -0.34,-0.8997 -0.4803,0.8997 c -0.746,1.3973 -1.1283,1.7157 -2.0611,1.7157 -0.8209,0 -1.3611,-0.3635 -1.7126,-1.152 -0.1351,-0.303 -0.097,-0.3155 0.3494,-0.1133 1.1535,0.5227 1.9062,-0.5201 2.2885,-3.1702 0.117,-0.8143 0.1942,-1.5098 0.1704,-1.5458 -0.023,-0.036 -0.3534,0.1248 -0.7326,0.357 -0.4891,0.2996 -1.0123,0.4223 -1.8008,0.4223 -1.51,0 -1.8489,0.38 -1.6884,1.8932 l 0.1133,1.0647 -0.3269,-0.51 c -1.2711,-1.9822 -0.855,-3.898 0.975,-4.4899 2.3657,-0.7651 2.8821,-1.317 3.0136,-3.2214 l 0.078,-1.1187 -0.4904,0.165 c -0.2697,0.091 -0.6723,0.1586 -0.8947,0.151 -0.4567,-0.016 -1.1196,-0.7473 -1.286,-1.4195 -0.1035,-0.4162 -0.074,-0.435 0.4106,-0.2681 0.4319,0.1486 0.6007,0.098 0.9821,-0.2961 0.403,-0.4162 0.4396,-0.5484 0.2923,-1.0579 -0.4859,-1.6813 -3.163,-1.5754 -4.5391,0.1795 l -0.5223,0.6663 0.1251,-0.612 c 0.222,-1.087 0.8094,-1.9711 1.8417,-2.772 0.5553,-0.4308 1.155,-0.8388 1.3326,-0.9065 0.1776,-0.067 0.3229,-0.1905 0.3229,-0.2729 0,-0.2244 -1.5432,-0.8447 -2.0985,-0.8436 -0.6408,0 -1.561,0.54 -1.8616,1.0896 -0.1328,0.2428 -0.5005,0.7478 -0.8172,1.1222 -0.5112,0.6047 -0.6563,0.6702 -1.2968,0.5862 -0.4275,-0.056 -0.9683,-0.321 -1.3282,-0.6503 -0.7142,-0.654 -0.6895,-0.7847 0.097,-0.514 0.8494,0.2924 1.7783,-0.09 2.6947,-1.1085 1.3831,-1.5378 1.7352,-1.6199 3.559,-0.8302 0.6477,0.2806 1.2259,0.51 1.2846,0.51 0.1961,0 0.1096,-1.432 -0.1268,-2.1128 -0.2156,-0.6192 -1.3653,-1.9671 -1.6779,-1.9671 -0.074,0 -0.2186,0.2207 -0.3211,0.4905 l -0.186,0.4904 -0.7284,-0.6673 c -1.5028,-1.3772 -2.5204,-1.0688 -2.9655,0.8984 l -0.1182,0.522 -0.3045,-0.7021 c -0.1675,-0.3862 -0.3646,-0.9534 -0.438,-1.2605 -0.1661,-0.6953 0.1,-2.1866 0.4831,-2.7041 0.4712,-0.6373 1.5838,-1.1379 2.5391,-1.1429 l 0.8922,0 0,-0.8112 c 0,-1.174 0.4544,-1.4648 2.4884,-1.5925 l 1.6251,-0.1022 0.5964,-1.1442 c 0.3279,-0.6291 0.7916,-1.5095 1.0304,-1.9562 l 0.4342,-0.8121 0.2135,0.7101 c 0.2919,0.9703 0.2869,1.8233 -0.016,2.8553 -0.1994,0.6781 -0.2112,0.9349 -0.053,1.1629 0.1688,0.2443 0.336,0.1134 1.0132,-0.7938 l 0.8108,-1.0863 0.012,0.9485 c 0,0.7571 -0.1145,1.1657 -0.5956,2.0244 -0.4884,0.8712 -0.5935,1.2341 -0.5523,1.9075 l 0.051,0.8316 1.0621,0.1708 c 0.5842,0.094 1.0621,0.2465 1.0621,0.339 0,0.092 -0.2676,0.9186 -0.5948,1.8362 l -0.5947,1.6681 1.2735,2.2061 c 1.6019,2.7747 1.6045,2.7833 0.9362,2.9596 -0.2933,0.078 -0.57,0.2554 -0.6149,0.3958 -0.069,0.2164 1.5888,5.8009 1.9612,6.6059 0.076,0.1643 0.5423,-1.0457 1.1921,-3.0939 0.587,-1.8501 1.0196,-3.4562 0.9615,-3.569 -0.058,-0.1129 -0.3342,-0.2656 -0.6135,-0.3392 -0.2794,-0.074 -0.5078,-0.2218 -0.5078,-0.3292 0,-0.1074 0.6104,-1.242 1.3566,-2.5215 l 1.3567,-2.3262 -0.6123,-1.7558 c -0.3368,-0.9657 -0.5744,-1.8014 -0.528,-1.857 0.047,-0.055 0.3805,-0.1491 0.7425,-0.2077 1.435,-0.2321 1.423,-0.2227 1.423,-1.1216 0,-0.6049 -0.1446,-1.0715 -0.5341,-1.7226 -0.3771,-0.6304 -0.5588,-1.2005 -0.618,-1.9394 -0.08,-0.9976 -0.068,-1.0349 0.2483,-0.7976 0.1825,0.1368 0.5087,0.5585 0.7248,0.9371 0.7065,1.2377 1.2057,0.702 0.7428,-0.7974 -0.1877,-0.6078 -0.2369,-1.1647 -0.1583,-1.7893 0.1207,-0.9554 0.4152,-1.662 0.5485,-1.3152 0.043,0.1123 0.4849,0.9843 0.9816,1.9381 l 0.9032,1.7339 1.0872,0.049 c 2.5281,0.1137 3.0413,0.3789 3.0413,1.5712 0,0.6679 0.012,0.6741 0.9772,0.8073 1.085,0.149 2.1399,0.7736 2.6199,1.5511 0.4557,0.7383 0.4517,2.1391 -0.012,3.3654 l -0.3838,1.02 -0.236,-0.816 c -0.2613,-0.9039 -0.7914,-1.5301 -1.2955,-1.5301 -0.4473,0 -1.3173,0.5464 -1.8845,1.1835 -0.257,0.2886 -0.4673,0.4335 -0.4673,0.3218 0,-0.1118 -0.1059,-0.3775 -0.2358,-0.5902 -0.2292,-0.3764 -0.2528,-0.3732 -0.8521,0.1139 -0.3392,0.2755 -0.7683,0.8742 -0.9539,1.3305 -0.3283,0.8071 -0.4657,2.3334 -0.2099,2.3316 0.07,0 0.5862,-0.2278 1.1471,-0.5052 0.5608,-0.2773 1.3452,-0.5063 1.7433,-0.509 0.6427,0 0.8369,0.1201 1.735,1.1112 1.1271,1.2438 1.5135,1.4255 2.7336,1.2847 0.4622,-0.053 0.8404,-0.062 0.8404,-0.02 0,0.042 -0.3591,0.3499 -0.7979,0.684 -1.2145,0.9246 -1.6526,0.8316 -2.767,-0.5868 -0.5161,-0.6569 -1.1054,-1.2995 -1.3096,-1.428 -0.5389,-0.3392 -1.7391,-0.2769 -2.4815,0.1287 l -0.6434,0.3517 1.4081,1.122 c 0.9768,0.7782 1.5246,1.372 1.7878,1.938 0.5527,1.1882 0.4808,1.469 -0.194,0.7576 -0.7516,-0.792 -2.1437,-1.3481 -3.0214,-1.2068 -1.1663,0.1878 -1.749,1.182 -1.2397,2.1152 0.248,0.4543 0.3745,0.51 0.9488,0.4175 0.7718,-0.1243 0.7981,-0.037 0.2695,0.8953 -0.3734,0.658 -0.4422,0.6919 -1.3596,0.6695 l -0.9662,-0.024 0,0.6734 c 0,1.7499 0.7664,2.776 2.4403,3.2664 2.1064,0.6174 2.8189,2.024 1.9846,3.9185 -0.6291,1.4286 -0.7185,1.4635 -0.6049,0.2362 0.1398,-1.5133 -0.085,-1.7455 -1.813,-1.8713 -0.8115,-0.059 -1.4696,-0.2231 -1.736,-0.4326 -0.2359,-0.1855 -0.4971,-0.3374 -0.5803,-0.3374 -0.2336,0 0.2583,3.0194 0.6094,3.741 0.4553,0.9359 1.0866,1.3091 1.725,1.0198 l 0.5087,-0.2305 -0.2726,0.4993 c -0.8951,1.6401 -2.5814,1.3296 -3.5496,-0.6538 l -0.4656,-0.9537 -0.2986,0.4754 c -0.1644,0.2614 -0.3432,0.7422 -0.3976,1.0684 -0.4957,2.9754 1.0372,5.132 2.7051,3.806 0.6514,-0.5179 1.1159,-0.5145 1.6739,0.012 1.4115,1.3329 3.0153,0.1414 3.2565,-2.4195 0.06,-0.6395 0.1846,-1.4565 0.2764,-1.8155 0.1662,-0.6498 1.1765,-1.8972 1.5366,-1.8972 0.4862,0 1.6831,-1.5157 2.2084,-2.7966 0.5374,-1.3103 0.5605,-1.4695 0.6548,-4.5336 0.1034,-3.3487 0.1974,-3.7896 1.0778,-5.0456 0.2286,-0.3261 0.7976,-0.8077 1.2646,-1.0703 0.9362,-0.5263 1.4557,-1.5083 1.4275,-2.6978 -0.017,-0.7426 -0.3764,-1.3448 -0.3764,-0.6319 0,0.8987 -1.2218,1.094 -1.4497,0.2318 -0.2271,-0.8587 0.7895,-1.3236 1.6733,-0.7652 0.7254,0.4584 0.8233,1.2546 0.3045,2.4763 -0.1768,0.4164 -0.2901,0.7571 -0.2515,0.7571 0.1775,0 1.4456,-1.065 2.2009,-1.8485 1.173,-1.217 2.2038,-2.8672 3.0184,-4.8324 0.3836,-0.9257 0.7515,-1.683 0.8174,-1.683 0.2617,0 0.526,2.2702 0.443,3.8027 -0.1512,2.7871 -1.0198,4.5952 -3.9435,8.2081 -1.956,2.4172 -1.9737,2.5895 -0.1556,1.5168 0.8469,-0.4997 2.6452,-2.1288 2.7452,-2.4868 0.027,-0.097 -0.112,-0.2277 -0.3098,-0.2898 -0.2779,-0.087 -0.3469,-0.2435 -0.3044,-0.689 0.049,-0.5098 0.1234,-0.5761 0.6498,-0.5761 0.5091,0 0.6019,0.074 0.6446,0.5139 0.039,0.3995 -0.1879,0.7965 -1.0196,1.784 -1.2576,1.4936 -1.5251,1.7288 -3.0084,2.6435 l -1.12,0.6906 1.1046,-0.1192 c 1.456,-0.1571 3.2747,-1.2084 4.2198,-2.4392 0.3845,-0.5007 0.732,-0.8464 0.7722,-0.7681 0.041,0.079 0.1244,0.5556 0.1872,1.0604 0.1009,0.8164 0.055,1.0146 -0.4124,1.7902 l -0.5267,0.8721 0.429,-0.1293 c 0.236,-0.072 0.429,-0.043 0.429,0.062 0,0.4224 -1.0968,2.1389 -2.0278,3.1738 -1.0817,1.2021 -2.1002,1.8681 -3.6651,2.3965 l -1.0196,0.3443 0.5948,0.4367 c 1.4492,1.0642 3.3734,1.3259 4.6319,0.63 0.4346,-0.2403 0.4489,-0.285 0.1972,-0.619 -0.1611,-0.2136 -0.2283,-0.5229 -0.1655,-0.7606 0.1923,-0.7275 1.1888,-0.7187 1.3821,0.012 0.087,0.3312 -0.019,0.5623 -0.4594,1.0012 -1.4659,1.4593 -3.1469,1.7729 -4.9129,0.9166 -0.595,-0.2885 -1.1066,-0.4946 -1.137,-0.4582 -0.1309,0.1571 2.2062,2.5707 3.0369,3.1363 1.026,0.6987 2.9904,1.4751 3.7322,1.4751 0.658,0 0.6197,0.3145 -0.1397,1.1496 -0.6671,0.7334 -1.7094,1.1897 -2.371,1.0378 -0.4716,-0.1082 -0.505,0.018 -0.099,0.3744 0.1634,0.1434 0.2431,0.3258 0.1768,0.4052 -0.2339,0.281 -3.625,0.09 -5.0197,-0.2828 -0.7711,-0.206 -1.3976,-0.3205 -1.3923,-0.2543 0,0.066 0.4625,0.579 1.0163,1.14 2.1304,2.1586 4.0498,3.0002 5.8298,2.5567 0.5288,-0.1319 0.9614,-0.2803 0.9614,-0.3299 0,-0.05 -0.095,-0.273 -0.2112,-0.4962 -0.1565,-0.3008 -0.1627,-0.4983 -0.025,-0.7622 0.2414,-0.4594 0.9089,-0.459 1.1505,4e-4 0.2766,0.5265 -0.014,0.9401 -1.1697,1.667 -2.0357,1.2799 -4.0342,0.7161 -6.3009,-1.7773 -0.6005,-0.6604 -1.0918,-1.155 -1.0918,-1.099 0,0.2659 1.4933,3.2439 2.2265,4.4401 1.1792,1.9241 3.4644,4.4797 5.2909,5.9165 0.8658,0.6813 1.5987,1.3195 1.6287,1.4186 0.084,0.2749 -0.7959,0.5015 -1.8564,0.4785 -0.7152,-0.015 -1.2578,-0.1977 -2.1794,-0.7315 -1.2421,-0.7193 -1.2916,-0.7049 -0.9537,0.2769 0.101,0.2942 0.038,0.3175 -0.4828,0.1766 -1.2007,-0.3251 -2.7863,-1.4083 -4.9483,-3.38 -2.0852,-1.9016 -2.1696,-1.9579 -1.5057,-1.0031 1.6161,2.324 5.7034,7.4351 6.73,8.4158 1.0572,1.0098 2.4494,2.074 2.7202,2.0792 0.07,0 0.1275,-0.1698 0.1275,-0.3805 0,-0.8524 1.0453,-1.1229 1.4271,-0.3692 0.1513,0.2987 0.1145,0.4411 -0.1885,0.7402 -0.3147,0.3103 -0.5074,0.341 -1.1895,0.1887 -1.9478,-0.4348 -3.4367,-1.906 -8.4366,-8.3366 l -1.8241,-2.3459 1.6505,3.8759 c 4.2217,9.9141 6.7141,14.4344 9.1558,16.6051 l 0.5098,0.4532 -1.2395,-0.088 c -1.7666,-0.125 -3.3987,-1.1172 -4.7505,-2.8881 -0.9696,-1.2704 -0.9983,-1.2909 -0.9215,-0.659 0.079,0.6444 0.07,0.639 -0.7019,-0.4455 -1.1773,-1.6543 -3.275,-5.2708 -5.0428,-8.6942 -0.8691,-1.6829 -1.6442,-3.1448 -1.7224,-3.2485 -0.078,-0.1038 0.048,0.665 0.2807,1.7083 0.8887,3.986 2.5301,8.1571 4.4287,11.2532 0.5821,0.9493 0.6969,1.205 0.3101,0.6909 -1.6797,-2.232 -3.8702,-6.9319 -5.087,-10.9138 -0.7661,-2.5072 -0.6052,-1.2701 0.3651,2.8061 0.8151,3.4235 1.6371,6.0683 2.6185,8.4246 0.7244,1.7393 2.4937,4.9939 3.0336,5.5805 0.5769,0.6268 0.4385,0.7981 -0.5213,0.6453 -1.0639,-0.1695 -1.8169,-0.5307 -2.599,-1.2467 -0.6728,-0.6161 -1.6374,-2.2837 -1.9716,-3.409 -0.125,-0.4207 -0.2884,-0.765 -0.363,-0.765 -0.2032,0 -0.1638,1.1089 0.048,1.3637 0.101,0.1217 0.1587,0.4384 0.1275,0.7037 -0.075,0.6349 -1.0992,0.8285 -1.2736,0.2406 -0.06,-0.2035 -0.4392,-0.9737 -0.8417,-1.7114 -1.5456,-2.8316 -2.3143,-5.8656 -2.8785,-11.3593 -0.1462,-1.4238 -0.2996,-2.6293 -0.3409,-2.6789 -0.042,-0.05 -0.074,1.2332 -0.073,2.8508 0,4.9167 0.6183,8.7331 2.038,12.6861 0.3674,1.0232 0.6391,1.8951 0.6038,1.9376 -0.1121,0.1351 -1.0309,-0.5135 -1.9159,-1.3533 -0.5989,-0.5684 -0.9103,-0.7484 -1.0352,-0.5984 -0.2754,0.3305 -1.0164,0.011 -1.1505,-0.4953 -0.065,-0.2493 -0.3747,-0.9146 -0.6862,-1.4786 -1.4056,-2.5443 -2.0095,-5.5503 -2.016,-10.0351 0,-1.7018 -0.025,-3.0702 -0.049,-3.0409 -0.1332,0.1599 -0.7184,3.9114 -0.8174,5.2406 -0.1746,2.3445 0.2808,4.9559 1.2694,7.2786 1.1244,2.6419 5.0655,6.9184 7.5368,8.1784 l 0.6935,0.3536 -0.5805,0.2937 c -0.3357,0.1699 -1.132,0.2937 -1.889,0.2937 -0.7197,0 -1.255,0.056 -1.1895,0.1261 0.065,0.069 1.2473,1.102 2.6263,2.2949 2.7914,2.4147 3.0298,2.5053 4.8653,1.8511 1.3086,-0.4666 1.9165,-0.34 2.2288,0.4642 0.1529,0.3938 0.4558,0.7422 0.7574,0.8711 0.6634,0.2835 1.2819,0.9981 1.2819,1.4809 0,0.3713 -0.019,0.3699 -0.4479,-0.036 -0.572,-0.5401 -0.8408,-0.5253 -1.6764,0.093 -0.8776,0.649 -1.1923,0.6345 -1.7514,-0.081 -0.3984,-0.5096 -0.6176,-0.6007 -1.6898,-0.7022 -0.6776,-0.064 -1.232,-0.081 -1.232,-0.036 0,0.044 0.4938,0.9942 1.0972,2.1106 l 1.0972,2.0297 1.1443,0.457 c 1.2457,0.4977 1.9293,1.1499 1.9293,1.8409 0,0.2427 0.239,0.768 0.5311,1.1673 0.2921,0.3994 0.6368,1.03 0.766,1.4014 0.2031,0.5834 0.2001,0.7657 -0.022,1.3408 -0.2307,0.5969 -0.2483,0.609 -0.1707,0.1169 0.06,-0.3868 -0.031,-0.7126 -0.3118,-1.1046 -0.3368,-0.47 -0.5463,-0.562 -1.3568,-0.596 -1.0975,-0.046 -1.274,-0.1839 -2.2363,-1.7485 -0.8992,-1.4619 -2.5036,-3.6521 -2.6753,-3.6521 -0.073,0 -0.1321,0.9038 -0.1321,2.0086 l 0,2.0086 0.7647,0.8354 c 0.4207,0.4596 0.7647,0.9203 0.7647,1.0238 0,0.1038 -0.1528,0.4219 -0.3397,0.7072 -0.2477,0.3778 -0.34,0.8276 -0.34,1.6562 0,0.9837 -0.07,1.2278 -0.5145,1.8039 l -0.5146,0.6661 0.2862,-0.7523 c 0.269,-0.7077 0.2685,-0.7843 -0.012,-1.2908 -0.1617,-0.296 -0.556,-0.7239 -0.8762,-0.9506 -0.6941,-0.4917 -0.7234,-0.7539 -0.1556,-1.3943 0.3556,-0.401 0.409,-0.6023 0.3209,-1.2085 -0.058,-0.4 -0.2118,-0.8293 -0.3416,-0.9539 -0.1688,-0.1619 -0.2361,-0.7314 -0.2361,-1.9996 0,-1.9905 -0.3747,-4.2756 -0.8134,-4.96 -0.235,-0.3667 -0.5203,-0.4768 -1.4807,-0.5719 l -1.1895,-0.1177 -0.3421,0.6717 c -0.4411,0.8657 -0.7623,0.9237 -1.4227,0.2566 -0.6862,-0.6932 -1.3036,-0.5565 -1.6247,0.3599 l -0.2242,0.6402 -0.1195,-0.6556 c -0.1194,-0.6501 0.058,-1.1409 0.5486,-1.5169 0.117,-0.09 0.3676,-0.5262 0.5558,-0.9689 0.3334,-0.7847 0.8578,-1.0713 1.0999,-0.6012 0.1712,0.3328 0.8603,0.2326 1.1631,-0.169 0.4272,-0.5667 0.3388,-1.5822 -0.2539,-2.9174 -0.4753,-1.0704 -0.5658,-1.1735 -0.8073,-0.9201 -0.509,0.5342 -1.3215,0.9238 -2.2276,1.068 -0.8463,0.1348 -0.8951,0.1193 -0.7611,-0.2436 0.079,-0.2133 0.1748,-0.8179 0.2136,-1.3437 0.06,-0.815 -0.012,-1.0931 -0.4631,-1.887 -0.2936,-0.512 -0.5895,-0.9311 -0.6577,-0.9311 -0.2693,0 -0.8934,0.666 -1.1109,1.1855 -0.5643,1.3478 -0.486,2.5683 0.4275,6.6684 0.5637,2.5298 1.009,3.5603 2.0395,4.7196 1.1741,1.3206 2.5025,1.3671 3.7269,0.1305 l 0.5396,-0.5452 -0.1268,0.4996 c -0.1707,0.6722 -0.8637,1.7584 -1.3818,2.1658 -0.2822,0.222 -0.3846,0.4403 -0.309,0.6588 0.3255,0.9407 0.3925,1.8375 0.2184,2.9239 -0.2159,1.3467 -0.3965,1.3671 -0.5593,0.063 -0.2001,-1.6015 -2.1545,-4.4982 -4.2432,-6.2887 l -0.4947,-0.424 0.1109,1.4141 c 0.553,7.0866 4.1973,10.9173 7.2875,7.6602 0.5033,-0.5304 0.6239,-0.5838 0.7099,-0.3147 0.3902,1.2202 -0.4843,2.7442 -2.2755,3.966 -0.2091,0.1425 -0.1522,0.2946 0.3163,0.8456 0.6818,0.8019 0.8733,1.3426 0.8733,2.4659 0,0.9803 -0.4539,2.2048 -1.1909,3.2131 l -0.522,0.714 0.1342,-0.918 c 0.2208,-1.5105 0.1158,-3.0599 -0.2487,-3.6517 -0.1795,-0.2917 -0.7482,-0.8682 -1.264,-1.2812 -1.1444,-0.9167 -2.1831,-2.2998 -2.9931,-3.986 -0.3353,-0.6979 -0.6342,-1.2395 -0.6643,-1.2034 -0.095,0.1142 0.4303,2.8324 0.7837,4.0544 0.1867,0.6458 0.6745,1.9487 1.0839,2.8955 0.5129,1.1858 0.6531,1.6627 0.4511,1.5328 -0.4728,-0.3036 -1.6856,-2.0459 -2.2379,-3.2146 -0.2807,-0.5942 -0.5404,-1.0443 -0.577,-1.0005 -0.117,0.1398 0.4108,3.0698 0.6998,3.8888 0.1531,0.4334 0.4701,1.1362 0.7049,1.5619 l 0.4265,0.7739 -0.8538,1.2721 c -0.9151,1.3631 -1.2374,2.0641 -1.8068,3.9302 l -0.362,1.1864 -0.2193,-0.8804 z m 11.9446,-41.225 c 0.2728,-0.2393 0.2311,-0.4058 -0.5475,-2.1929 -1.1167,-2.5634 -1.7457,-4.7853 -2.4931,-8.8055 -0.614,-3.3032 -0.8561,-4.2611 -0.6844,-2.7086 0.049,0.4446 0.1712,1.6345 0.2712,2.6442 0.345,3.4832 1.3066,7.5565 2.3958,10.1489 0.5262,1.2523 0.5999,1.316 1.058,0.9139 z m -5.5421,-0.3817 c 0.1453,-0.1745 0.048,-0.5817 -0.3897,-1.6242 -0.7849,-1.8711 -1.4185,-4.8826 -1.6264,-7.7309 -0.094,-1.2903 -0.2282,-2.8049 -0.2979,-3.3659 -0.1145,-0.92 -0.1401,-0.7859 -0.2637,1.3669 -0.2321,4.0437 0.3606,7.9296 1.6038,10.5159 0.5388,1.1207 0.6551,1.2208 0.9739,0.8382 z m -28.8082,-46.4439 c -1.2192,-1.4763 -1.8403,-2.1 -1.8789,-1.8869 -0.032,0.175 -0.2098,0.4617 -0.3956,0.6371 -0.3275,0.309 -0.307,0.3496 0.6525,1.3035 0.9293,0.924 2.7752,2.151 3.2364,2.1514 0.1133,0 -0.6129,-0.9921 -1.6144,-2.2051 z m 15.1755,-11.706 0.4738,-0.4474 -0.5784,-0.2361 c -0.5523,-0.2254 -0.5822,-0.2121 -0.6649,0.2944 -0.065,0.4015 -0.1897,0.5305 -0.5098,0.5305 -0.3353,0 -0.4344,-0.1165 -0.477,-0.5609 -0.043,-0.4535 -0.1395,-0.561 -0.5006,-0.561 l -0.4469,0 0.5764,0.714 c 0.6888,0.853 1.4104,0.9435 2.1274,0.2665 z m 16.0983,0.2371 c -0.2554,-0.1232 -0.3824,-0.3561 -0.3824,-0.7011 0,-0.6002 0.041,-0.5835 -0.6835,-0.2804 l -0.5643,0.2362 0.4964,0.4767 c 0.2841,0.2729 0.7146,0.4718 1.0063,0.465 0.4751,-0.011 0.4838,-0.024 0.1275,-0.1964 z m 1.0621,-0.6056 0.4883,-0.612 -0.4372,0 c -0.3562,0 -0.4514,0.1137 -0.5122,0.612 -0.041,0.3365 -0.064,0.6119 -0.052,0.6119 0.014,0 0.2434,-0.2754 0.5121,-0.6119 z m -18.4381,-0.204 c 0,-0.1122 -0.076,-0.204 -0.17,-0.204 -0.094,0 -0.1699,0.092 -0.1699,0.204 0,0.1121 0.076,0.204 0.1699,0.204 0.094,0 0.17,-0.092 0.17,-0.204 z m 17.8433,0.012 c 0,-0.1055 -0.076,-0.2487 -0.17,-0.318 -0.093,-0.069 -0.1699,0.017 -0.1699,0.1919 0,0.175 0.076,0.3181 0.1699,0.3181 0.094,0 0.17,-0.086 0.17,-0.192 z m -29.025,59.3104 c -0.5121,-0.6147 0,-1.5246 0.7285,-1.3041 0.706,0.2128 0.488,1.5489 -0.2527,1.5489 -0.1496,0 -0.3636,-0.1101 -0.4758,-0.2448 z m 38.9666,-0.036 c -0.1721,-0.1512 -0.2641,-0.4527 -0.229,-0.7511 0.049,-0.4204 0.1519,-0.4986 0.6534,-0.4986 0.5424,0 0.5947,0.052 0.5947,0.5886 0,0.7019 -0.5592,1.0646 -1.0191,0.6611 z m -45.531,-10.4442 c -0.316,-0.3792 -0.3187,-0.4065 -0.091,-0.9169 0.3219,-0.722 1.3534,-0.3827 1.3534,0.4453 0,0.1926 0.058,0.3887 0.1275,0.4357 0.07,0.047 0.034,0.059 -0.08,0.026 -0.1133,-0.033 -0.2521,0.029 -0.3074,0.1354 -0.1547,0.3004 -0.7056,0.2314 -1.0029,-0.1254 z"
       id="path22968-2-3"
       inkscape:connector-curvature="0" />
    <path
       style="fill:#ffffff;stroke:none"
       d="m 376.54244,235.11294 c 1.5,2.5649 2.2583,1.1796 3.1407,0.4554 -1.1183,-0.5804 -2.1838,-0.8437 -3.1407,-0.4554 z"
       id="path22669-3-9-0"
       inkscape:connector-curvature="0"
       sodipodi:nodetypes="ccc" />
    <path
       sodipodi:type="arc"
       style="fill:#000000;fill-opacity:1;stroke:none"
       id="path22671-0-0-4"
       sodipodi:cx="225.53572"
       sodipodi:cy="-1305.7979"
       sodipodi:rx="3.5714285"
       sodipodi:ry="3.8839285"
       d="m 229.10715,-1305.7979 c 0,2.1451 -1.59898,3.884 -3.57143,3.884 -1.97244,0 -3.57143,-1.7389 -3.57143,-3.884 0,-2.145 1.59899,-3.8839 3.57143,-3.8839 1.97245,0 3.57143,1.7389 3.57143,3.8839 z"
       transform="matrix(0.16993551,0,0,0.20399754,339.56624,501.99344)" />
    <path
       transform="matrix(0.16993551,0,0,0.20399754,339.67254,502.13914)"
       sodipodi:type="arc"
       style="fill:#ffffff;fill-opacity:1;stroke:none"
       id="path22673-7-4-8"
       sodipodi:cx="224.01785"
       sodipodi:cy="-1307.2264"
       sodipodi:rx="1.25"
       sodipodi:ry="1.3839285"
       d="m 225.26785,-1307.2264 c 0,0.7643 -0.55964,1.3839 -1.25,1.3839 -0.69035,0 -1.25,-0.6196 -1.25,-1.3839 0,-0.7644 0.55965,-1.384 1.25,-1.384 0.69036,0 1.25,0.6196 1.25,1.384 z" />
    <path
       style="fill:#000000;stroke:none"
       d="m 375.98104,233.27334 c -0.6153,0.2944 -0.8056,1.6163 0.5007,1.8214 0.9096,-0.084 1.7281,-0.3353 3.1408,0.51 0.6036,0.4316 1.1117,0.1759 1.6386,0.054 -0.4055,-0.059 -0.7791,0.072 -1.2593,-0.4372 -0.6191,-0.8582 -1.709,-1.0274 -3.1104,-0.7104 -0.6315,0.3329 -1.3206,-0.4541 -0.9104,-1.2385 z"
       id="path22675-3-9-4"
       inkscape:connector-curvature="0"
       sodipodi:nodetypes="ccccccc" />
    <path
       style="fill:#ffffff;fill-opacity:0.10377359;stroke:none"
       d="m 374.32724,234.83974 c 0.9502,0.075 1.535,1.4662 2.0028,3.2785 2.4253,0.2344 3.3205,3.712 2.0027,7.3585 2.5118,-5.5605 -0.729,-7.8363 -1.7903,-7.9413 -0.3976,-1.4649 -0.7912,-2.9368 -2.2152,-2.6957 z"
       id="path22677-0-3-3"
       inkscape:connector-curvature="0"
       sodipodi:nodetypes="ccccc" />
    <path
       style="fill:#ffffff;fill-opacity:0.13207547;stroke:none"
       d="m 371.55844,274.79604 c -0.4926,1.0518 -0.7981,2.1628 -0.2145,3.5547 -1.864,5.6869 -3.667,11.4437 -7.9822,14.3218 4.1716,-2.0885 6.3439,-8.0771 8.7546,-13.6006 1.6276,0.5012 2.6176,-0.8203 3.4332,-2.0607 -2.5055,2.4364 -4.9042,1.8492 -3.9911,-2.2152 z"
       id="path22679-7-1-9"
       inkscape:connector-curvature="0"
       sodipodi:nodetypes="cccccc" />
    <path
       style="fill:#ffffff;fill-opacity:0.13207547;stroke:none"
       d="m 375.89804,278.31164 c -0.1996,0.8498 -0.2788,1.723 0.2138,2.7072 -0.5895,4.5038 -1.1348,9.0534 -3.4982,11.7155 2.3521,-2.0498 3.1012,-6.8163 4.0412,-11.2589 1.0455,0.1935 1.5235,-0.9164 1.9027,-1.9451 -1.2981,2.1233 -2.8242,1.9525 -2.6595,-1.2187 z"
       id="path22679-9-36-1-2"
       inkscape:connector-curvature="0"
       sodipodi:nodetypes="cccccc" />
    <path
       style="fill:#ffffff;fill-opacity:0.13207547;stroke:none"
       d="m 380.08384,279.55484 c -0.099,0.875 -0.075,1.753 0.5267,2.6449 -0.059,4.5585 -0.07,9.1549 -2.1007,12.1873 2.0906,-2.4243 2.2776,-7.2696 2.6916,-11.8262 1.0578,0.016 1.402,-1.1629 1.6577,-2.2451 -1.0383,2.3202 -2.5693,2.4069 -2.7753,-0.7609 z"
       id="path22679-9-6-4-9-4"
       inkscape:connector-curvature="0"
       sodipodi:nodetypes="cccccc" />
    <path
       style="fill:#ffffff;stroke:none"
       d="m 396.74914,235.06224 c -1.4999,2.5649 -2.2584,1.1796 -3.1408,0.4553 1.1184,-0.5804 2.1838,-0.8437 3.1408,-0.4553 z"
       id="path22669-8-0-9-9"
       inkscape:connector-curvature="0"
       sodipodi:nodetypes="ccc" />
    <path
       sodipodi:type="arc"
       style="fill:#000000;fill-opacity:1;stroke:none"
       id="path22671-2-1-5-0"
       sodipodi:cx="225.53572"
       sodipodi:cy="-1305.7979"
       sodipodi:rx="3.5714285"
       sodipodi:ry="3.8839285"
       d="m 229.10715,-1305.7979 c 0,2.1451 -1.59898,3.884 -3.57143,3.884 -1.97244,0 -3.57143,-1.7389 -3.57143,-3.884 0,-2.145 1.59899,-3.8839 3.57143,-3.8839 1.97245,0 3.57143,1.7389 3.57143,3.8839 z"
       transform="matrix(-0.16993551,0,0,0.20399754,433.72534,501.94264)" />
    <path
       transform="matrix(-0.16993551,0,0,0.20399754,433.61904,502.08834)"
       sodipodi:type="arc"
       style="fill:#ffffff;fill-opacity:1;stroke:none"
       id="path22673-4-6-5-5"
       sodipodi:cx="224.01785"
       sodipodi:cy="-1307.2264"
       sodipodi:rx="1.25"
       sodipodi:ry="1.3839285"
       d="m 225.26785,-1307.2264 c 0,0.7643 -0.55964,1.3839 -1.25,1.3839 -0.69035,0 -1.25,-0.6196 -1.25,-1.3839 0,-0.7644 0.55965,-1.384 1.25,-1.384 0.69036,0 1.25,0.6196 1.25,1.384 z" />
    <path
       style="fill:#000000;stroke:none"
       d="m 397.31054,233.22264 c 0.6152,0.2943 0.8055,1.6162 -0.5007,1.8213 -0.9096,-0.084 -1.7282,-0.3353 -3.1408,0.51 -0.6036,0.4316 -1.1118,0.1759 -1.6386,0.055 0.4054,-0.059 0.7791,0.072 1.2593,-0.4372 0.6191,-0.8583 1.709,-1.0275 3.1105,-0.7104 0.6313,0.3329 1.3204,-0.4541 0.9103,-1.2385 z"
       id="path22675-6-9-5-7"
       inkscape:connector-curvature="0"
       sodipodi:nodetypes="ccccccc" />
    <path
       style="fill:#ffffff;fill-opacity:0.10377359;stroke:none"
       d="m 398.96434,234.78894 c -0.9503,0.075 -1.5349,1.4662 -2.0027,3.2786 -2.4255,0.2343 -3.3207,3.7119 -2.0029,7.3584 -2.5117,-5.5604 0.7291,-7.8362 1.7904,-7.9412 0.3977,-1.465 0.7911,-2.9368 2.2152,-2.6958 z"
       id="path22677-3-3-6-4"
       inkscape:connector-curvature="0"
       sodipodi:nodetypes="ccccc" />
    <path
       style="fill:#ffffff;fill-opacity:0.13207547;stroke:none"
       d="m 401.73304,274.74524 c 0.4927,1.0519 0.7981,2.1629 0.2146,3.5547 1.8639,5.687 3.667,11.4437 7.9823,14.3218 -4.1717,-2.0885 -6.344,-8.077 -8.7547,-13.6006 -1.6276,0.5012 -2.6176,-0.8202 -3.4333,-2.0606 2.5057,2.4363 4.9042,1.8491 3.9911,-2.2153 z"
       id="path22679-0-7-0-7"
       inkscape:connector-curvature="0"
       sodipodi:nodetypes="cccccc" />
    <path
       style="fill:#ffffff;fill-opacity:0.13207547;stroke:none"
       d="m 397.39354,278.26084 c 0.1995,0.8498 0.2788,1.723 -0.2137,2.7072 0.5893,4.5038 1.1346,9.0535 3.498,11.7156 -2.3521,-2.0499 -3.101,-6.8164 -4.0412,-11.259 -1.0455,0.1935 -1.5235,-0.9163 -1.9025,-1.9451 1.2979,2.1233 2.8239,1.9525 2.6594,-1.2187 z"
       id="path22679-9-9-9-5-6"
       inkscape:connector-curvature="0"
       sodipodi:nodetypes="cccccc" />
    <path
       style="fill:#ffffff;fill-opacity:0.13207547;stroke:none"
       d="m 393.20764,279.50414 c 0.098,0.875 0.075,1.7529 -0.5267,2.6448 0.059,4.5586 0.07,9.155 2.1007,12.1873 -2.0906,-2.4242 -2.2776,-7.2696 -2.6915,-11.8262 -1.0578,0.016 -1.4019,-1.1628 -1.6577,-2.2451 1.0382,2.3202 2.5692,2.4069 2.7752,-0.7608 z"
       id="path22679-9-6-1-1-9-6"
       inkscape:connector-curvature="0"
       sodipodi:nodetypes="cccccc" />
    <path
       style="fill:#ffffff;fill-opacity:1"
       d="m 445.04084,455.96864 c -0.3304,-1.326 -0.9222,-2.6238 -1.8819,-4.1271 l -0.8647,-1.3542 0.3457,-0.583 c 0.527,-0.8884 1.0246,-2.4067 1.2956,-3.9532 0.3537,-2.0185 0.3283,-2.0337 -0.5823,-0.3487 -0.7314,1.3535 -2.2321,3.3736 -2.2321,3.0048 0,-0.076 0.3112,-0.8789 0.6915,-1.7842 0.819,-1.95 1.275,-3.4681 1.6111,-5.3648 0.1356,-0.7648 0.2464,-1.4493 0.2464,-1.5215 0,-0.072 -0.3747,0.5994 -0.8326,1.4923 -0.9353,1.8232 -2.0075,3.2044 -2.9324,3.7772 -1.2949,0.8023 -1.819,2.2994 -1.5195,4.341 0.1,0.6767 0.1529,1.2635 0.1194,1.3042 -0.034,0.041 -0.3012,-0.2895 -0.5942,-0.7336 -1.3515,-2.0485 -1.3956,-4.0885 -0.1194,-5.5199 0.5424,-0.6084 0.5463,-0.7084 0.037,-0.9868 -0.6139,-0.3359 -1.621,-1.4639 -1.9138,-2.1437 -0.1739,-0.4037 -0.2239,-0.8457 -0.1495,-1.322 l 0.1121,-0.7154 0.5404,0.6154 c 2.153,2.4515 4.7791,1.3368 6.3269,-2.6852 0.5515,-1.4332 1.096,-4.1989 1.096,-5.5673 l 0,-0.7086 -0.7222,0.6712 c -2.0701,1.9239 -4.0359,5.0518 -4.0359,6.4216 0,0.9499 -0.3031,0.6473 -0.4843,-0.4834 -0.1737,-1.0836 -0.1072,-1.985 0.2157,-2.9158 0.074,-0.2146 -0.032,-0.4101 -0.325,-0.5985 -0.4184,-0.2688 -1.4456,-1.9054 -1.4456,-2.3032 0,-0.1059 0.2102,-0.027 0.4673,0.1753 1.402,1.1034 2.1892,1.1867 3.2349,0.342 1.2747,-1.0295 1.8668,-2.2009 2.5004,-4.9468 0.9847,-4.2679 1.0681,-5.9363 0.3614,-7.2311 -0.4827,-0.8844 -0.9562,-0.8807 -1.6002,0.012 -0.5155,0.7152 -0.5649,0.8923 -0.5048,1.8126 0.037,0.561 0.1272,1.1807 0.2011,1.377 0.1121,0.2975 0.047,0.357 -0.3876,0.357 -0.7054,0 -2.0694,-0.5659 -2.4941,-1.0348 -0.3424,-0.3779 -0.3512,-0.3698 -0.8922,0.8114 -0.8328,1.8183 -0.6942,2.9641 0.4068,3.3659 0.2249,0.082 0.4382,0.015 0.573,-0.18 0.34,-0.4917 0.5676,-0.3724 1.0619,0.5564 0.2538,0.4769 0.6214,1.1033 0.8168,1.392 0.2646,0.391 0.3247,0.6706 0.2358,1.0959 l -0.1195,0.5709 -0.2132,-0.6089 c -0.2995,-0.855 -1.0319,-1.0103 -1.6181,-0.343 -0.6061,0.6898 -1.0243,0.6205 -1.493,-0.2476 -0.3838,-0.7111 -0.4245,-0.7322 -1.1708,-0.6095 -0.4252,0.071 -0.9394,0.1272 -1.1428,0.1272 -0.8093,0 -1.4521,2.4903 -1.4521,5.6256 0,1.2367 -0.062,1.703 -0.2347,1.7828 -0.1292,0.059 -0.2704,0.4595 -0.3139,0.8889 -0.062,0.6095 0.012,0.9071 0.3197,1.3573 0.2194,0.3171 0.3988,0.6602 0.3988,0.7624 0,0.1022 -0.3088,0.4199 -0.6862,0.7059 -1.0305,0.7808 -1.1972,1.6295 -0.5199,2.6469 0.2715,0.408 0.2715,0.408 -0.1505,0 -0.7266,-0.7022 -0.8416,-0.9887 -0.8471,-2.1097 0,-0.7737 -0.1034,-1.2403 -0.3453,-1.6086 -0.4823,-0.736 -0.4354,-0.9399 0.4248,-1.849 l 0.7647,-0.808 0,-2.1098 0,-2.11 -1.0106,1.2005 c -0.5557,0.6603 -1.3327,1.7708 -1.7264,2.4679 -0.8734,1.546 -1.3505,1.9127 -2.4248,1.8639 -0.7027,-0.032 -0.8719,0.042 -1.2261,0.5362 -0.2919,0.4075 -0.3858,0.732 -0.3242,1.122 0.079,0.4996 0.064,0.4901 -0.1673,-0.1071 -0.3062,-0.7908 -0.1954,-1.2227 0.6586,-2.5657 0.3372,-0.5302 0.613,-1.1366 0.613,-1.3476 0,-0.7071 0.5942,-1.2849 1.7933,-1.7441 l 1.1806,-0.4519 1.147,-2.0137 c 0.6309,-1.1075 1.1473,-2.0639 1.1474,-2.1253 3e-4,-0.061 -0.5723,-0.082 -1.2724,-0.045 -1.1838,0.062 -1.2975,0.1087 -1.6263,0.6631 -0.4454,0.7508 -1.0475,0.7782 -1.8962,0.086 -0.782,-0.6378 -1.0608,-0.6395 -1.5857,-0.01 l -0.4171,0.5007 0,-0.4651 c 0,-0.5667 0.5969,-1.272 1.2381,-1.4631 0.3206,-0.096 0.55,-0.3614 0.711,-0.8239 0.3066,-0.8811 0.795,-1.0217 2.1261,-0.6123 2.1052,0.6475 2.3056,0.5776 4.9983,-1.7409 1.3185,-1.1351 2.4898,-2.1679 2.6031,-2.295 0.1545,-0.1733 -0.1639,-0.2316 -1.2745,-0.2334 -0.8914,0 -1.6347,-0.1071 -1.8681,-0.2657 -0.3731,-0.2531 -0.3443,-0.2894 0.7647,-0.9624 1.4615,-0.887 3.0721,-2.3466 4.6664,-4.229 3.2835,-3.8769 4.2872,-8.1149 3.2725,-13.8183 -0.4539,-2.551 -0.4988,-2.4668 -0.5199,0.9736 -0.019,2.9714 -0.078,3.6724 -0.4625,5.4249 -0.4111,1.8732 -1.3431,4.3158 -1.9178,5.0253 -0.1362,0.1684 -0.015,-0.1988 0.2696,-0.8159 1.2509,-2.7133 1.8079,-6.2815 1.6181,-10.3657 -0.064,-1.3813 -0.1523,-2.469 -0.1957,-2.4168 -0.043,0.052 -0.1471,1.2468 -0.2302,2.6547 -0.2549,4.3176 -0.7533,6.8731 -1.8482,9.477 l -0.5405,1.2853 0.3697,0.3595 c 0.3198,0.3108 0.3417,0.4221 0.1622,0.8248 -0.1722,0.3861 -0.3139,0.4502 -0.8299,0.3757 -0.51,-0.073 -0.7447,0.029 -1.3019,0.5673 -0.3739,0.3613 -1.0076,0.8552 -1.4083,1.0975 l -0.7285,0.4405 0.4497,-1.0651 c 0.7054,-1.6709 1.5607,-4.6747 1.9512,-6.8523 0.2708,-1.5098 0.3731,-2.9312 0.4226,-5.8683 0.069,-4.1289 -0.023,-4.1021 -0.5066,0.1454 -0.1494,1.3141 -0.464,3.2877 -0.6992,4.3859 -0.455,2.1248 -1.7211,5.4667 -2.3118,6.1018 -0.283,0.3043 -0.2339,0.09 0.2394,-1.0452 1.2074,-2.8964 2.1368,-7.1575 2.4917,-11.4239 0.084,-1.0098 0.1284,-1.8662 0.099,-1.9032 -0.03,-0.037 -0.1422,0.468 -0.2496,1.122 -0.8286,5.0416 -1.9371,9.2289 -3.0585,11.5542 -0.7455,1.5457 -0.8032,1.7728 -0.4503,1.7728 0.3881,0 0.5906,0.4654 0.4276,0.9821 -0.1207,0.3823 -0.2542,0.4599 -0.7026,0.408 -0.4394,-0.051 -0.5659,-0.167 -0.6124,-0.5626 -0.032,-0.2743 0.047,-0.5956 0.1756,-0.714 0.1535,-0.1412 0.1996,-0.4264 0.1336,-0.8274 -0.097,-0.5895 -0.1219,-0.5595 -0.6854,0.8159 -0.772,1.8852 -1.8522,3.1808 -3.1305,3.755 -0.548,0.2461 -1.2686,0.4199 -1.6014,0.3862 l -0.6052,-0.061 0.6127,-0.816 c 1.4843,-1.977 3.2279,-5.8614 4.4549,-9.9255 0.8383,-2.776 2.0373,-8.054 1.9122,-8.4167 -0.046,-0.1325 -0.082,-0.1154 -0.09,0.043 -0.028,0.5546 -1.2792,4.3102 -2.0737,6.2253 -0.9401,2.2658 -2.3925,4.9902 -3.2352,6.0685 -0.312,0.3992 -0.4415,0.5369 -0.2879,0.306 0.7119,-1.0702 2.2396,-4.0973 2.9426,-5.8314 0.9674,-2.386 2.7231,-8.7988 2.1209,-7.7463 -0.096,0.1682 -0.8885,1.6769 -1.7603,3.3526 -1.7165,3.299 -4.1579,7.4794 -5.1307,8.7853 l -0.6078,0.8159 0.096,-0.661 c 0.092,-0.6339 0.05,-0.6025 -1.0234,0.7638 -1.4811,1.8848 -2.7777,2.6748 -4.6116,2.8099 l -1.3119,0.096 0.5098,-0.4671 c 2.6959,-2.4704 5.427,-7.5384 10.1099,-18.7599 0.8834,-2.1169 0.8328,-2.069 -2.4874,2.3617 -2.5463,3.3978 -4.1941,5.2039 -5.449,5.9722 -1.1747,0.7192 -1.2313,0.493 -0.094,-0.3736 0.5834,-0.4443 1.7229,-1.5679 2.5323,-2.497 1.4725,-1.6903 6.0085,-7.5954 6.0085,-7.8221 0,-0.066 -0.793,0.6146 -1.7622,1.5129 -2.5965,2.4061 -3.6007,3.09 -5.2444,3.5716 -0.444,0.1302 -0.4566,0.1128 -0.2925,-0.4051 0.095,-0.2977 0.1435,-0.5746 0.1096,-0.6154 -0.034,-0.041 -0.5159,0.1982 -1.0708,0.5311 -1.1986,0.719 -2.6476,0.9772 -3.5273,0.6287 -0.3398,-0.1346 -0.6171,-0.3064 -0.6162,-0.3819 0,-0.076 0.5461,-0.5406 1.2118,-1.0337 2.3899,-1.7699 4.7475,-4.4635 6.2354,-7.124 0.751,-1.3431 1.7279,-3.3825 1.7279,-3.6076 0,-0.085 -0.4398,0.3694 -0.9771,1.01 -1.2915,1.5393 -3.0196,2.5603 -4.3339,2.5603 -1.2737,0 -3.3558,-1.2246 -3.3558,-1.9737 0,-0.6273 0.7118,-1.0697 1.0997,-0.6834 0.313,0.312 0.3443,1.1589 0.047,1.2861 -0.5356,0.2296 0.7819,0.745 1.9276,0.7541 1.3449,0.01 3.4096,-1.2517 5.1672,-3.1594 l 0.6798,-0.7378 -0.5098,0.1154 c -2.2854,0.5174 -4.3691,0.7684 -5.2638,0.6342 l -1.0061,-0.151 0.416,-0.3837 0.4158,-0.3837 -0.6685,0 c -0.8163,-0.01 -2.0136,-0.6723 -2.477,-1.3795 -0.1885,-0.2878 -0.3111,-0.5614 -0.2725,-0.6078 0.038,-0.046 0.5921,-0.2155 1.2296,-0.3757 1.8504,-0.4647 3.4277,-1.482 4.8496,-3.1275 l 1.2475,-1.4436 -1.0588,0.5068 c -1.1436,0.5475 -2.7107,0.6765 -3.552,0.2926 -0.7908,-0.361 -1.9157,-1.2952 -2.0257,-1.6826 -0.2142,-0.7547 0.7544,-1.3087 1.2494,-0.7144 0.2776,0.3332 0.2562,0.6835 -0.065,1.0697 -0.2462,0.2954 -0.2137,0.3518 0.3747,0.6468 0.9926,0.4979 2.7965,0.3196 4.0158,-0.3969 0.5374,-0.3159 0.9772,-0.6377 0.9772,-0.715 0,-0.078 -0.4016,-0.2542 -0.8922,-0.3929 -2.1344,-0.6031 -4.2034,-2.4179 -5.3672,-4.7077 l -0.5536,-1.0893 0.56,0.1441 0.56,0.1442 -0.361,-0.4828 c -0.6233,-0.8334 -0.7696,-1.3582 -0.6487,-2.3267 0.063,-0.5005 0.155,-0.9102 0.2055,-0.9102 0.051,0 0.5003,0.464 0.9998,1.031 1.1192,1.2708 2.4696,2.0121 3.9498,2.1684 l 1.1227,0.1187 -1.4154,-0.8802 c -1.7887,-1.1123 -3.8146,-3.4206 -3.734,-4.2544 0.044,-0.4613 0.1306,-0.5294 0.6677,-0.5294 l 0.6165,0 -0.5005,-0.8728 c -0.9194,-1.6033 -1.3693,-3.0865 -1.4592,-4.8103 -0.082,-1.5758 0.189,-3.8028 0.4631,-3.8028 0.075,0 0.3089,0.482 0.5189,1.071 0.5696,1.5962 1.7768,3.7421 2.7718,4.9264 0.8172,0.9727 2.3936,2.3665 2.6767,2.3665 0.068,0 -0.022,-0.3407 -0.1991,-0.7571 -0.6161,-1.4506 -0.2893,-2.4064 0.9023,-2.6385 0.894,-0.1742 1.5143,0.7439 0.9097,1.3463 -0.3725,0.3711 -0.9952,0.1723 -1.2288,-0.3923 l -0.2085,-0.5036 -0.1545,0.5017 c -0.3006,0.9753 0.288,2.5469 1.108,2.958 0.945,0.4741 1.7136,1.3097 2.1217,2.3069 0.3331,0.8136 0.4058,1.3989 0.4981,4.0125 0.059,1.683 0.198,3.407 0.3079,3.8313 0.2929,1.1317 1.5134,2.8105 2.5532,3.5118 1.2095,0.8158 1.4972,1.3452 1.7058,3.1384 0.2138,1.8377 0.5316,2.6872 1.1763,3.1443 0.6856,0.4863 1.3585,0.4341 2.0892,-0.162 0.7559,-0.6165 1.1399,-0.6394 1.7092,-0.1022 0.5229,0.4939 1.4339,0.5286 1.9729,0.076 0.8818,-0.7414 1.133,-2.9285 0.5221,-4.5449 l -0.34,-0.8996 -0.4802,0.8996 c -0.7459,1.3974 -1.1282,1.7156 -2.061,1.7156 -0.8209,0 -1.3612,-0.3634 -1.7128,-1.1519 -0.1351,-0.303 -0.097,-0.3155 0.3495,-0.1133 1.1536,0.5226 1.9062,-0.5201 2.2886,-3.1702 0.117,-0.8143 0.194,-1.5099 0.1703,-1.5457 -0.023,-0.036 -0.3533,0.1247 -0.7326,0.3569 -0.4891,0.2996 -1.0122,0.4223 -1.8008,0.4223 -1.5101,0 -1.849,0.38 -1.6884,1.8932 l 0.1133,1.0647 -0.327,-0.51 c -1.271,-1.9822 -0.8549,-3.898 0.9751,-4.4899 2.3655,-0.7651 2.882,-1.3171 3.0135,-3.2213 l 0.078,-1.1188 -0.4904,0.165 c -0.2696,0.091 -0.6723,0.1587 -0.8947,0.151 -0.4567,-0.016 -1.1196,-0.7474 -1.286,-1.4196 -0.1034,-0.4161 -0.074,-0.4349 0.4106,-0.268 0.4318,0.1487 0.6007,0.098 0.9822,-0.2961 0.403,-0.4162 0.4396,-0.5484 0.2923,-1.0579 -0.486,-1.6813 -3.1631,-1.5754 -4.5391,0.1795 l -0.5225,0.6662 0.1251,-0.612 c 0.2222,-1.087 0.8094,-1.971 1.8417,-2.7719 0.5554,-0.4308 1.1551,-0.8388 1.3327,-0.9065 0.1775,-0.067 0.3229,-0.1905 0.3229,-0.273 0,-0.2243 -1.5432,-0.8447 -2.0985,-0.8434 -0.6408,0 -1.5611,0.5399 -1.8615,1.0895 -0.1328,0.2428 -0.5006,0.7477 -0.8172,1.1222 -0.5114,0.6046 -0.6565,0.6702 -1.2969,0.5862 -0.4276,-0.056 -0.9684,-0.3209 -1.3282,-0.6504 -0.7142,-0.654 -0.6896,-0.7847 0.097,-0.514 0.8494,0.2924 1.7784,-0.09 2.6947,-1.1084 1.3831,-1.5377 1.7351,-1.6199 3.559,-0.8302 0.6477,0.2805 1.2258,0.51 1.2846,0.51 0.196,0 0.1096,-1.4321 -0.1269,-2.1127 -0.2156,-0.6194 -1.3651,-1.9672 -1.6779,-1.9672 -0.074,0 -0.2185,0.2207 -0.3209,0.4905 l -0.1862,0.4904 -0.7282,-0.6673 c -1.5029,-1.3772 -2.5206,-1.0689 -2.9656,0.8984 l -0.1182,0.5219 -0.3046,-0.702 c -0.1674,-0.3862 -0.3646,-0.9533 -0.4378,-1.2604 -0.1663,-0.6954 0.1,-2.1867 0.4829,-2.7043 0.4713,-0.6372 1.5838,-1.1379 2.5392,-1.1427 l 0.8921,0 0,-0.8113 c 0,-1.1739 0.4545,-1.4647 2.4885,-1.5925 l 1.625,-0.1022 0.5964,-1.1441 c 0.3281,-0.6293 0.7917,-1.5095 1.0304,-1.9561 l 0.4342,-0.8122 0.2136,0.7101 c 0.2918,0.9703 0.2869,1.8232 -0.016,2.8553 -0.1994,0.6782 -0.2111,0.935 -0.053,1.1629 0.169,0.2443 0.3361,0.1134 1.0132,-0.7938 l 0.8109,-1.0863 0.012,0.9485 c 0,0.7571 -0.1145,1.1657 -0.5957,2.0243 -0.4884,0.8712 -0.5935,1.2341 -0.5523,1.9075 l 0.051,0.8316 1.062,0.1708 c 0.5841,0.094 1.0621,0.2465 1.0621,0.339 0,0.092 -0.2677,0.9188 -0.5947,1.8363 l -0.5948,1.6681 1.2734,2.206 c 1.6019,2.7748 1.6046,2.7834 0.9362,2.9596 -0.2933,0.078 -0.57,0.2555 -0.6148,0.3959 -0.069,0.2164 1.5887,5.8008 1.9612,6.6059 0.076,0.1642 0.5422,-1.0458 1.192,-3.094 0.5871,-1.85 1.0198,-3.456 0.9616,-3.5689 -0.058,-0.113 -0.3343,-0.2657 -0.6136,-0.3392 -0.2792,-0.074 -0.5078,-0.2218 -0.5078,-0.3292 0,-0.1073 0.6105,-1.2421 1.3566,-2.5214 l 1.3567,-2.3262 -0.6123,-1.756 c -0.3368,-0.9657 -0.5743,-1.8014 -0.528,-1.857 0.047,-0.055 0.3805,-0.149 0.7425,-0.2075 1.435,-0.2322 1.4231,-0.2228 1.4231,-1.1217 0,-0.6049 -0.1447,-1.0716 -0.5342,-1.7226 -0.3771,-0.6304 -0.5587,-1.2006 -0.6179,-1.9394 -0.08,-0.9976 -0.068,-1.0349 0.2482,-0.7976 0.1826,0.1368 0.5087,0.5585 0.7248,0.937 0.7066,1.2378 1.2057,0.7021 0.7428,-0.7972 -0.1877,-0.6078 -0.2369,-1.1648 -0.1582,-1.7895 0.1206,-0.9553 0.4151,-1.662 0.5484,-1.315 0.043,0.1121 0.485,0.9843 0.9817,1.9379 l 0.9031,1.734 1.0872,0.049 c 2.5281,0.1138 3.0415,0.379 3.0415,1.5713 0,0.6679 0.012,0.6741 0.9771,0.8073 1.085,0.149 2.1398,0.7735 2.6198,1.5511 0.4559,0.7383 0.4518,2.1391 -0.012,3.3654 l -0.3838,1.0199 -0.2358,-0.8159 c -0.2615,-0.9039 -0.7916,-1.53 -1.2956,-1.53 -0.4473,0 -1.3174,0.5464 -1.8846,1.1834 -0.2569,0.2887 -0.4673,0.4334 -0.4673,0.3216 0,-0.1117 -0.1059,-0.3772 -0.2358,-0.5901 -0.2292,-0.3763 -0.2528,-0.3731 -0.8521,0.114 -0.3391,0.2756 -0.7683,0.8743 -0.9539,1.3304 -0.3283,0.8073 -0.4657,2.3336 -0.2098,2.3316 0.07,-4e-4 0.5863,-0.2278 1.1471,-0.5051 0.5607,-0.2773 1.3453,-0.5064 1.7433,-0.5091 0.6426,0 0.8368,0.1202 1.7349,1.1112 1.1271,1.2439 1.5136,1.4255 2.7336,1.2848 0.4623,-0.053 0.8404,-0.062 0.8404,-0.02 0,0.042 -0.3591,0.3499 -0.7979,0.684 -1.2143,0.9245 -1.6525,0.8316 -2.7669,-0.5867 -0.5162,-0.657 -1.1054,-1.2995 -1.3096,-1.4281 -0.5388,-0.3392 -1.7391,-0.277 -2.4815,0.1287 l -0.6435,0.3517 1.4082,1.1219 c 0.9767,0.7783 1.5245,1.3721 1.7878,1.9381 0.5527,1.1882 0.4808,1.469 -0.1941,0.7577 -0.7515,-0.7922 -2.1437,-1.3483 -3.0213,-1.2069 -1.1664,0.1878 -1.7489,1.182 -1.2396,2.1152 0.2479,0.4542 0.3743,0.5099 0.9486,0.4174 0.7718,-0.1242 0.7982,-0.037 0.2695,0.8953 -0.3734,0.6581 -0.4422,0.692 -1.3595,0.6695 l -0.9663,-0.024 0,0.6734 c 0,1.75 0.7666,2.776 2.4403,3.2666 2.1066,0.6174 2.8189,2.0239 1.9847,3.9184 -0.629,1.4286 -0.7186,1.4635 -0.605,0.2362 0.1399,-1.5133 -0.085,-1.7455 -1.813,-1.8713 -0.8115,-0.059 -1.4696,-0.2231 -1.7359,-0.4325 -0.236,-0.1856 -0.4972,-0.3375 -0.5804,-0.3375 -0.2335,0 0.2583,3.0193 0.6094,3.7411 0.4554,0.9357 1.0867,1.309 1.7251,1.0197 l 0.5087,-0.2305 -0.2725,0.4992 c -0.8953,1.6402 -2.5815,1.3297 -3.5498,-0.6538 l -0.4656,-0.9536 -0.2986,0.4753 c -0.1643,0.2615 -0.3432,0.7423 -0.3975,1.0685 -0.4958,2.9753 1.0372,5.1321 2.7051,3.806 0.6515,-0.5179 1.1159,-0.5144 1.6738,0.012 1.4115,1.3328 3.0153,0.1412 3.2565,-2.4196 0.06,-0.6395 0.1848,-1.4565 0.2765,-1.8155 0.1661,-0.6498 1.1765,-1.8972 1.5365,-1.8972 0.4862,0 1.6831,-1.5157 2.2085,-2.7966 0.5373,-1.3102 0.5604,-1.4696 0.6548,-4.5337 0.1034,-3.3486 0.1973,-3.7895 1.0777,-5.0455 0.2286,-0.3262 0.7977,-0.8077 1.2647,-1.0703 0.9361,-0.5263 1.4556,-1.5083 1.4274,-2.6977 -0.017,-0.7427 -0.3764,-1.3451 -0.3764,-0.6319 0,0.8985 -1.2218,1.0939 -1.4497,0.2317 -0.2271,-0.8587 0.7895,-1.3236 1.6733,-0.7652 0.7254,0.4584 0.8235,1.2546 0.3045,2.4762 -0.1768,0.4165 -0.2899,0.7572 -0.2514,0.7572 0.1776,0 1.4455,-1.065 2.2009,-1.8486 1.173,-1.2168 2.2037,-2.867 3.0183,-4.8324 0.3837,-0.9256 0.7515,-1.6829 0.8175,-1.6829 0.2616,0 0.5261,2.2702 0.443,3.8028 -0.1513,2.787 -1.0199,4.5951 -3.9436,8.208 -1.956,2.4172 -1.9737,2.5895 -0.1556,1.5168 0.8469,-0.4997 2.6452,-2.1287 2.7453,-2.4868 0.027,-0.097 -0.112,-0.2277 -0.3099,-0.2897 -0.2778,-0.087 -0.3469,-0.2436 -0.3044,-0.689 0.049,-0.51 0.1234,-0.5762 0.6498,-0.5762 0.5091,0 0.6019,0.074 0.6448,0.5139 0.039,0.3995 -0.1881,0.7964 -1.0196,1.7841 -1.2577,1.4936 -1.5253,1.7286 -3.0086,2.6433 l -1.12,0.6907 1.1047,-0.1192 c 1.456,-0.1571 3.2747,-1.2084 4.2197,-2.4392 0.3846,-0.5008 0.7321,-0.8464 0.7722,-0.768 0.041,0.079 0.1245,0.5554 0.1872,1.0603 0.101,0.8164 0.055,1.0146 -0.4124,1.7902 l -0.5267,0.8721 0.429,-0.1292 c 0.236,-0.072 0.429,-0.043 0.429,0.062 0,0.4224 -1.0968,2.139 -2.0278,3.1738 -1.0817,1.2022 -2.1002,1.8681 -3.6649,2.3965 l -1.0196,0.3443 0.5947,0.4367 c 1.4493,1.0641 3.3733,1.3258 4.632,0.63 0.4345,-0.2403 0.4487,-0.2851 0.197,-0.6191 -0.161,-0.2136 -0.2283,-0.5228 -0.1655,-0.7605 0.1923,-0.7275 1.1889,-0.7187 1.3821,0.012 0.087,0.3314 -0.018,0.5624 -0.4593,1.0013 -1.466,1.4592 -3.147,1.7729 -4.9129,0.9165 -0.5949,-0.2884 -1.1067,-0.4946 -1.1371,-0.458 -0.1308,0.157 2.2063,2.5706 3.0369,3.1362 1.026,0.6987 2.9904,1.4751 3.7324,1.4751 0.6578,0 0.6196,0.3145 -0.1399,1.1495 -0.667,0.7334 -1.7093,1.1898 -2.371,1.0379 -0.4716,-0.1082 -0.505,0.018 -0.098,0.3744 0.1634,0.1435 0.243,0.3258 0.1768,0.4052 -0.234,0.2809 -3.625,0.09 -5.0197,-0.2827 -0.7711,-0.2061 -1.3977,-0.3206 -1.3924,-0.2545 0,0.067 0.4625,0.5792 1.0162,1.1402 2.1306,2.1585 4.0499,3.0002 5.83,2.5565 0.5287,-0.1317 0.9612,-0.2802 0.9612,-0.3299 0,-0.05 -0.095,-0.2729 -0.2111,-0.4961 -0.1564,-0.3008 -0.1627,-0.4983 -0.023,-0.7623 0.2413,-0.4594 0.9087,-0.4589 1.1503,4e-4 0.2767,0.5266 -0.014,0.9402 -1.1697,1.6671 -2.0356,1.2798 -4.0342,0.7161 -6.3008,-1.7773 -0.6006,-0.6604 -1.0918,-1.155 -1.0918,-1.099 0,0.2658 1.4932,3.2439 2.2264,4.44 1.1793,1.9243 3.4646,4.4797 5.2908,5.9167 0.866,0.6811 1.5989,1.3194 1.6288,1.4184 0.084,0.2749 -0.796,0.5016 -1.8564,0.4785 -0.7152,-0.015 -1.2578,-0.1976 -2.1794,-0.7313 -1.242,-0.7194 -1.2916,-0.705 -0.9537,0.2767 0.101,0.2943 0.038,0.3176 -0.4827,0.1766 -1.2006,-0.325 -2.7863,-1.4081 -4.9484,-3.3799 -2.085,-1.9017 -2.1696,-1.958 -1.5057,-1.0031 1.6161,2.324 5.7034,7.4352 6.73,8.4158 1.0572,1.0099 2.4494,2.0741 2.7202,2.0793 0.07,0 0.1275,-0.17 0.1275,-0.3806 0,-0.8525 1.0453,-1.1229 1.427,-0.3692 0.1514,0.2987 0.1146,0.4409 -0.1882,0.7402 -0.3148,0.3104 -0.5076,0.3409 -1.1896,0.1886 -1.9479,-0.4347 -3.4368,-1.9059 -8.4367,-8.3365 l -1.8241,-2.3459 1.6505,3.8759 c 4.2217,9.9141 6.7141,14.4343 9.1558,16.6051 l 0.5098,0.4533 -1.2394,-0.088 c -1.7667,-0.125 -3.3988,-1.1172 -4.7505,-2.8881 -0.9697,-1.2704 -0.9984,-1.2909 -0.9214,-0.6589 0.079,0.6442 0.07,0.6388 -0.7021,-0.4456 -1.1773,-1.6544 -3.275,-5.2709 -5.0428,-8.6942 -0.869,-1.6829 -1.6441,-3.1447 -1.7224,-3.2486 -0.078,-0.1037 0.048,0.6651 0.2808,1.7083 0.8886,3.9861 2.53,8.1571 4.4286,11.2533 0.5821,0.9494 0.6968,1.205 0.3101,0.6909 -1.6797,-2.2322 -3.8702,-6.9319 -5.087,-10.9139 -0.7662,-2.5073 -0.6051,-1.27 0.3653,2.8062 0.8149,3.4235 1.637,6.0683 2.6184,8.4246 0.7243,1.7393 2.4936,4.9939 3.0335,5.5804 0.5769,0.6268 0.4385,0.7982 -0.5212,0.6453 -1.064,-0.1694 -1.817,-0.5306 -2.599,-1.2466 -0.6729,-0.6161 -1.6374,-2.2837 -1.9717,-3.409 -0.125,-0.4207 -0.2883,-0.7649 -0.363,-0.7649 -0.2032,0 -0.1638,1.1088 0.048,1.3635 0.101,0.1218 0.1587,0.4385 0.1275,0.7039 -0.075,0.6348 -1.0992,0.8283 -1.2736,0.2405 -0.06,-0.2035 -0.4391,-0.9736 -0.8417,-1.7114 -1.5456,-2.8317 -2.3144,-5.8656 -2.8785,-11.3594 -0.1461,-1.4237 -0.2996,-2.6292 -0.3409,-2.6788 -0.042,-0.05 -0.074,1.2332 -0.073,2.8507 0,4.9168 0.6183,8.7332 2.038,12.6862 0.3674,1.0232 0.6392,1.8951 0.6039,1.9375 -0.1121,0.1351 -1.0308,-0.5134 -1.9159,-1.3532 -0.599,-0.5685 -0.9103,-0.7484 -1.0353,-0.5984 -0.2754,0.3305 -1.0164,0.011 -1.1504,-0.4954 -0.066,-0.2492 -0.3747,-0.9146 -0.6863,-1.4784 -1.4056,-2.5444 -2.0095,-5.5504 -2.016,-10.0353 0,-1.7016 -0.025,-3.0701 -0.049,-3.0409 -0.1332,0.1601 -0.7184,3.9115 -0.8174,5.2407 -0.1746,2.3445 0.2808,4.9559 1.2694,7.2785 1.1245,2.642 5.0655,6.9185 7.5368,8.1784 l 0.6935,0.3537 -0.5804,0.2937 c -0.3358,0.1698 -1.1321,0.2937 -1.8891,0.2937 -0.7196,0 -1.2549,0.056 -1.1895,0.126 0.065,0.07 1.2473,1.1021 2.6263,2.295 2.7914,2.4147 3.0299,2.5054 4.8653,1.851 1.3086,-0.4664 1.9165,-0.3398 2.2289,0.4643 0.1529,0.3938 0.4558,0.7422 0.7573,0.8711 0.6633,0.2835 1.2819,0.9981 1.2819,1.4809 0,0.3713 -0.019,0.3699 -0.4478,-0.036 -0.5719,-0.5402 -0.8409,-0.5253 -1.6764,0.093 -0.8777,0.6489 -1.1922,0.6344 -1.7514,-0.081 -0.3984,-0.5096 -0.6177,-0.6007 -1.6899,-0.7021 -0.6776,-0.064 -1.232,-0.081 -1.232,-0.036 0,0.044 0.4938,0.9942 1.0973,2.1105 l 1.0972,2.0297 1.1442,0.4571 c 1.2457,0.4976 1.9294,1.1499 1.9294,1.8409 0,0.2427 0.2389,0.768 0.531,1.1674 0.292,0.3993 0.6368,1.0299 0.766,1.4013 0.2031,0.5834 0.2001,0.7657 -0.022,1.3408 -0.2306,0.5969 -0.2482,0.609 -0.1706,0.1169 0.062,-0.3868 -0.031,-0.7127 -0.3117,-1.1045 -0.3369,-0.47 -0.5462,-0.5621 -1.3569,-0.596 -1.0975,-0.046 -1.2739,-0.184 -2.2363,-1.7486 -0.8992,-1.4618 -2.5036,-3.6522 -2.6751,-3.6522 -0.073,0 -0.1322,0.904 -0.1322,2.0087 l 0,2.0086 0.7647,0.8355 c 0.4206,0.4594 0.7647,0.9202 0.7647,1.0238 0,0.1036 -0.1529,0.4218 -0.3398,0.707 -0.2477,0.3779 -0.3399,0.8277 -0.3399,1.6563 0,0.9837 -0.07,1.2278 -0.5146,1.8039 l -0.5146,0.6661 0.2862,-0.7523 c 0.2692,-0.7077 0.2687,-0.7843 -0.012,-1.2907 -0.1617,-0.2962 -0.5559,-0.724 -0.8762,-0.9508 -0.6941,-0.4917 -0.7234,-0.7538 -0.1556,-1.3942 0.3556,-0.4009 0.409,-0.6023 0.321,-1.2085 -0.058,-0.4001 -0.2119,-0.8293 -0.3417,-0.9539 -0.1689,-0.162 -0.236,-0.7314 -0.236,-1.9997 0,-1.9903 -0.3748,-4.2754 -0.8134,-4.9599 -0.2351,-0.3666 -0.5204,-0.4769 -1.4808,-0.5719 l -1.1895,-0.1177 -0.3421,0.6716 c -0.4411,0.8658 -0.7623,0.9237 -1.4225,0.2568 -0.6864,-0.6934 -1.3039,-0.5565 -1.6249,0.3598 l -0.2241,0.6403 -0.1194,-0.6557 c -0.1195,-0.6501 0.058,-1.1408 0.5485,-1.5169 0.117,-0.09 0.3676,-0.5262 0.5558,-0.969 0.3334,-0.7847 0.8579,-1.0712 1.0999,-0.6011 0.1714,0.3328 0.8605,0.2326 1.1633,-0.1691 0.4272,-0.5666 0.3387,-1.5821 -0.2541,-2.9173 -0.4753,-1.0704 -0.5657,-1.1735 -0.8071,-0.9201 -0.5091,0.5342 -1.3217,0.9238 -2.2277,1.0681 -0.8464,0.1347 -0.8952,0.1192 -0.7612,-0.2438 0.079,-0.2132 0.1748,-0.8179 0.2136,-1.3436 0.06,-0.8151 -0.012,-1.0931 -0.4631,-1.8869 -0.2934,-0.5122 -0.5895,-0.9312 -0.6576,-0.9312 -0.2694,0 -0.8935,0.6659 -1.1109,1.1853 -0.5643,1.348 -0.4861,2.5685 0.4275,6.6686 0.5636,2.5298 1.0089,3.5602 2.0395,4.7195 1.174,1.3207 2.5025,1.3672 3.7268,0.1305 l 0.5396,-0.5451 -0.1268,0.4996 c -0.1707,0.6721 -0.8636,1.7582 -1.3818,2.1658 -0.2821,0.222 -0.3846,0.4403 -0.3089,0.6588 0.3254,0.9407 0.3924,1.8375 0.2183,2.924 -0.2159,1.3466 -0.3965,1.3669 -0.5593,0.063 -0.2001,-1.6016 -2.1545,-4.498 -4.2432,-6.2886 l -0.4945,-0.424 0.1108,1.4142 c 0.553,7.0865 4.1975,10.9172 7.2876,7.6601 0.5033,-0.5304 0.6238,-0.5839 0.7099,-0.3148 0.3901,1.2203 -0.4843,2.7443 -2.2755,3.9661 -0.2091,0.1426 -0.1522,0.2946 0.3163,0.8456 0.6817,0.8018 0.8732,1.3426 0.8732,2.4659 0,0.9803 -0.4538,2.2048 -1.1909,3.2131 l -0.5219,0.714 0.1343,-0.918 c 0.2208,-1.5105 0.1145,-3.0599 -0.2489,-3.6517 -0.1794,-0.2916 -0.7481,-0.8682 -1.2638,-1.2813 -1.1446,-0.9165 -2.1831,-2.2996 -2.9933,-3.9859 -0.3353,-0.6979 -0.6342,-1.2395 -0.6642,-1.2034 -0.095,0.1141 0.4304,2.8324 0.7837,4.0544 0.1868,0.6458 0.6745,1.9487 1.0838,2.8955 0.5129,1.1858 0.6533,1.6627 0.4511,1.5328 -0.4727,-0.3037 -1.6854,-2.0459 -2.2378,-3.2147 -0.2808,-0.5941 -0.5405,-1.0444 -0.5771,-1.0004 -0.117,0.1399 0.411,3.0698 0.7,3.8887 0.1529,0.4335 0.4701,1.1364 0.7047,1.562 l 0.4266,0.7739 -0.8539,1.2721 c -0.9151,1.3631 -1.2373,2.0641 -1.8067,3.9302 l -0.3619,1.1864 -0.2193,-0.8804 z m 11.9445,-41.2248 c 0.2728,-0.2394 0.2312,-0.4059 -0.5473,-2.1931 -1.1168,-2.5634 -1.7459,-4.7852 -2.4933,-8.8054 -0.6139,-3.3033 -0.8559,-4.2611 -0.6844,-2.7087 0.049,0.4446 0.1712,1.6345 0.2713,2.6444 0.345,3.483 1.3065,7.5564 2.3958,10.1488 0.5261,1.2523 0.6,1.316 1.0579,0.914 z m -5.542,-0.3818 c 0.1453,-0.1745 0.048,-0.5818 -0.3898,-1.6242 -0.7849,-1.8711 -1.4184,-4.8826 -1.6263,-7.7308 -0.094,-1.2903 -0.2283,-2.8051 -0.298,-3.366 -0.1145,-0.92 -0.1401,-0.7859 -0.2636,1.3669 -0.2322,4.0437 0.3605,7.9296 1.6039,10.5159 0.5386,1.1206 0.6549,1.2208 0.9738,0.8382 z m -28.8083,-46.4439 c -1.2192,-1.4763 -1.8402,-2.1 -1.8789,-1.8869 -0.032,0.175 -0.2098,0.4617 -0.3956,0.6371 -0.3273,0.3089 -0.307,0.3496 0.6525,1.3036 0.9293,0.9239 2.7753,2.1509 3.2364,2.1513 0.1133,10e-5 -0.6128,-0.9923 -1.6144,-2.2051 z m 15.1756,-11.706 0.4739,-0.4475 -0.5784,-0.236 c -0.5524,-0.2254 -0.5824,-0.2122 -0.6651,0.2945 -0.065,0.4013 -0.1895,0.5304 -0.5098,0.5304 -0.3353,0 -0.4343,-0.1165 -0.4769,-0.561 -0.043,-0.4533 -0.1394,-0.561 -0.5007,-0.561 l -0.4469,0 0.5765,0.714 c 0.6888,0.8531 1.4105,0.9435 2.1274,0.2666 z m 16.0982,0.2371 c -0.2554,-0.1233 -0.3824,-0.3561 -0.3824,-0.7011 0,-0.6003 0.041,-0.5835 -0.6835,-0.2805 l -0.5643,0.2362 0.4965,0.4769 c 0.284,0.2729 0.7145,0.4716 1.0062,0.4649 0.4751,-0.011 0.4838,-0.024 0.1275,-0.1964 z m 1.0621,-0.6057 0.4885,-0.612 -0.4374,0 c -0.356,0 -0.4513,0.1138 -0.5122,0.612 -0.041,0.3366 -0.064,0.612 -0.052,0.612 0.012,0 0.2436,-0.2754 0.5122,-0.612 z m -18.438,-0.204 c 0,-0.1122 -0.076,-0.204 -0.1699,-0.204 -0.094,0 -0.17,0.092 -0.17,0.204 0,0.1122 0.076,0.204 0.17,0.204 0.094,0 0.1699,-0.092 0.1699,-0.204 z m 17.8432,0.012 c 0,-0.1056 -0.076,-0.2488 -0.1699,-0.3181 -0.094,-0.07 -0.17,0.017 -0.17,0.192 0,0.1749 0.076,0.318 0.17,0.318 0.094,0 0.1699,-0.086 0.1699,-0.1919 z m -29.025,59.3105 c -0.5121,-0.6149 0,-1.5248 0.7285,-1.3042 0.7061,0.2128 0.488,1.549 -0.2527,1.549 -0.1495,0 -0.3636,-0.1102 -0.4758,-0.2448 z m 38.9666,-0.036 c -0.1721,-0.1511 -0.264,-0.4526 -0.2289,-0.7511 0.049,-0.4203 0.1518,-0.4985 0.6534,-0.4985 0.5423,0 0.5948,0.052 0.5948,0.5886 0,0.7019 -0.5593,1.0646 -1.0193,0.661 z m -45.531,-10.4441 c -0.3158,-0.3793 -0.3186,-0.4065 -0.091,-0.9168 0.3219,-0.7221 1.3536,-0.3828 1.3536,0.4452 0,0.1925 0.057,0.3887 0.1274,0.4358 0.07,0.047 0.035,0.058 -0.08,0.025 -0.1133,-0.033 -0.2522,0.029 -0.3075,0.1355 -0.1545,0.3003 -0.7056,0.2314 -1.0028,-0.1255 z"
       id="path22968-28-3"
       inkscape:connector-curvature="0" />
    <path
       style="fill:#ffffff;stroke:none"
       d="m 434.78324,355.04664 c 1.5,2.5649 2.2584,1.1796 3.1408,0.4553 -1.1183,-0.5804 -2.1838,-0.8437 -3.1408,-0.4553 z"
       id="path22669-3-8-0"
       inkscape:connector-curvature="0"
       sodipodi:nodetypes="ccc" />
    <path
       sodipodi:type="arc"
       style="fill:#000000;fill-opacity:1;stroke:none"
       id="path22671-0-1-9"
       sodipodi:cx="225.53572"
       sodipodi:cy="-1305.7979"
       sodipodi:rx="3.5714285"
       sodipodi:ry="3.8839285"
       d="m 229.10715,-1305.7979 c 0,2.1451 -1.59898,3.884 -3.57143,3.884 -1.97244,0 -3.57143,-1.7389 -3.57143,-3.884 0,-2.145 1.59899,-3.8839 3.57143,-3.8839 1.97245,0 3.57143,1.7389 3.57143,3.8839 z"
       transform="matrix(0.16993551,0,0,0.20399754,397.80724,621.92694)" />
    <path
       transform="matrix(0.16993551,0,0,0.20399754,397.91334,622.07274)"
       sodipodi:type="arc"
       style="fill:#ffffff;fill-opacity:1;stroke:none"
       id="path22673-7-8-0"
       sodipodi:cx="224.01785"
       sodipodi:cy="-1307.2264"
       sodipodi:rx="1.25"
       sodipodi:ry="1.3839285"
       d="m 225.26785,-1307.2264 c 0,0.7643 -0.55964,1.3839 -1.25,1.3839 -0.69035,0 -1.25,-0.6196 -1.25,-1.3839 0,-0.7644 0.55965,-1.384 1.25,-1.384 0.69036,0 1.25,0.6196 1.25,1.384 z" />
    <path
       style="fill:#000000;stroke:none"
       d="m 434.22184,353.20694 c -0.6152,0.2944 -0.8055,1.6161 0.5007,1.8214 0.9096,-0.084 1.7283,-0.3354 3.1408,0.5099 0.6037,0.4316 1.1119,0.1759 1.6386,0.054 -0.4053,-0.059 -0.7791,0.072 -1.2593,-0.4371 -0.619,-0.8583 -1.709,-1.0274 -3.1104,-0.7104 -0.6314,0.333 -1.3205,-0.4542 -0.9104,-1.2385 z"
       id="path22675-3-6-8"
       inkscape:connector-curvature="0"
       sodipodi:nodetypes="ccccccc" />
    <path
       style="fill:#ffffff;fill-opacity:0.10377359;stroke:none"
       d="m 432.56804,354.77334 c 0.9503,0.075 1.535,1.4661 2.0028,3.2785 2.4255,0.2343 3.3206,3.7119 2.0029,7.3585 2.5117,-5.5606 -0.7292,-7.8362 -1.7905,-7.9414 -0.3976,-1.4648 -0.7912,-2.9367 -2.2152,-2.6956 z"
       id="path22677-0-0-0"
       inkscape:connector-curvature="0"
       sodipodi:nodetypes="ccccc" />
    <path
       style="fill:#ffffff;fill-opacity:0.13207547;stroke:none"
       d="m 429.79934,394.72964 c -0.4927,1.0518 -0.798,2.1628 -0.2146,3.5547 -1.864,5.6868 -3.667,11.4436 -7.9822,14.3217 4.1716,-2.0886 6.3439,-8.077 8.7547,-13.6005 1.6275,0.5012 2.6176,-0.8204 3.4332,-2.0607 -2.5056,2.4364 -4.9042,1.849 -3.9911,-2.2152 z"
       id="path22679-7-2-1"
       inkscape:connector-curvature="0"
       sodipodi:nodetypes="cccccc" />
    <path
       style="fill:#ffffff;fill-opacity:0.13207547;stroke:none"
       d="m 434.13884,398.24514 c -0.1996,0.8498 -0.2788,1.723 0.2138,2.7072 -0.5894,4.5038 -1.1348,9.0534 -3.4981,11.7157 2.3521,-2.0501 3.1011,-6.8165 4.0413,-11.259 1.0453,0.1934 1.5234,-0.9164 1.9025,-1.9451 -1.2979,2.1233 -2.824,1.9524 -2.6595,-1.2188 z"
       id="path22679-9-36-4-5"
       inkscape:connector-curvature="0"
       sodipodi:nodetypes="cccccc" />
    <path
       style="fill:#ffffff;fill-opacity:0.13207547;stroke:none"
       d="m 438.32474,399.48844 c -0.099,0.8749 -0.075,1.7528 0.5267,2.6449 -0.059,4.5584 -0.07,9.155 -2.1007,12.1873 2.0906,-2.4243 2.2776,-7.2696 2.6915,-11.8263 1.0578,0.016 1.402,-1.1627 1.6577,-2.245 -1.0382,2.3202 -2.5692,2.4068 -2.7752,-0.7609 z"
       id="path22679-9-6-4-90-1"
       inkscape:connector-curvature="0"
       sodipodi:nodetypes="cccccc" />
    <path
       style="fill:#ffffff;stroke:none"
       d="m 454.99004,354.99584 c -1.5,2.5649 -2.2583,1.1796 -3.1409,0.4553 1.1184,-0.5803 2.1839,-0.8437 3.1409,-0.4553 z"
       id="path22669-8-0-2-0"
       inkscape:connector-curvature="0"
       sodipodi:nodetypes="ccc" />
    <path
       sodipodi:type="arc"
       style="fill:#000000;fill-opacity:1;stroke:none"
       id="path22671-2-1-2-3"
       sodipodi:cx="225.53572"
       sodipodi:cy="-1305.7979"
       sodipodi:rx="3.5714285"
       sodipodi:ry="3.8839285"
       d="m 229.10715,-1305.7979 c 0,2.1451 -1.59898,3.884 -3.57143,3.884 -1.97244,0 -3.57143,-1.7389 -3.57143,-3.884 0,-2.145 1.59899,-3.8839 3.57143,-3.8839 1.97245,0 3.57143,1.7389 3.57143,3.8839 z"
       transform="matrix(-0.16993551,0,0,0.20399754,491.96614,621.87624)" />
    <path
       transform="matrix(-0.16993551,0,0,0.20399754,491.85984,622.02194)"
       sodipodi:type="arc"
       style="fill:#ffffff;fill-opacity:1;stroke:none"
       id="path22673-4-6-1-9"
       sodipodi:cx="224.01785"
       sodipodi:cy="-1307.2264"
       sodipodi:rx="1.25"
       sodipodi:ry="1.3839285"
       d="m 225.26785,-1307.2264 c 0,0.7643 -0.55964,1.3839 -1.25,1.3839 -0.69035,0 -1.25,-0.6196 -1.25,-1.3839 0,-0.7644 0.55965,-1.384 1.25,-1.384 0.69036,0 1.25,0.6196 1.25,1.384 z" />
    <path
       style="fill:#000000;stroke:none"
       d="m 455.55144,353.15614 c 0.6153,0.2944 0.8055,1.6162 -0.5007,1.8215 -0.9097,-0.084 -1.7282,-0.3354 -3.1409,0.51 -0.6036,0.4316 -1.1118,0.1758 -1.6386,0.054 0.4055,-0.059 0.7791,0.072 1.2594,-0.4371 0.619,-0.8583 1.7089,-1.0274 3.1104,-0.7103 0.6314,0.3329 1.3204,-0.4542 0.9104,-1.2386 z"
       id="path22675-6-9-54-5"
       inkscape:connector-curvature="0"
       sodipodi:nodetypes="ccccccc" />
    <path
       style="fill:#ffffff;fill-opacity:0.10377359;stroke:none"
       d="m 457.20514,354.72264 c -0.9501,0.075 -1.5349,1.4661 -2.0027,3.2785 -2.4254,0.2343 -3.3205,3.7118 -2.0028,7.3585 -2.5118,-5.5606 0.729,-7.8363 1.7904,-7.9414 0.3976,-1.4649 0.7911,-2.9368 2.2151,-2.6956 z"
       id="path22677-3-3-4-8"
       inkscape:connector-curvature="0"
       sodipodi:nodetypes="ccccc" />
    <path
       style="fill:#ffffff;fill-opacity:0.13207547;stroke:none"
       d="m 459.97394,394.67884 c 0.4926,1.0519 0.7981,2.1629 0.2146,3.5547 1.8639,5.687 3.667,11.4436 7.9822,14.3217 -4.1717,-2.0884 -6.344,-8.0769 -8.7547,-13.6005 -1.6276,0.5012 -2.6176,-0.8204 -3.4332,-2.0607 2.5056,2.4364 4.9042,1.8491 3.9911,-2.2152 z"
       id="path22679-0-7-4-9"
       inkscape:connector-curvature="0"
       sodipodi:nodetypes="cccccc" />
    <path
       style="fill:#ffffff;fill-opacity:0.13207547;stroke:none"
       d="m 455.63434,398.19434 c 0.1997,0.8499 0.2788,1.723 -0.2137,2.7073 0.5895,4.5038 1.1347,9.0533 3.4982,11.7156 -2.3522,-2.05 -3.1012,-6.8164 -4.0413,-11.259 -1.0454,0.1935 -1.5235,-0.9164 -1.9026,-1.9451 1.298,2.1233 2.8241,1.9524 2.6594,-1.2188 z"
       id="path22679-9-9-9-2-6"
       inkscape:connector-curvature="0"
       sodipodi:nodetypes="cccccc" />
    <path
       style="fill:#ffffff;fill-opacity:0.13207547;stroke:none"
       d="m 451.44864,399.43774 c 0.099,0.8749 0.075,1.7529 -0.5267,2.6449 0.059,4.5585 0.07,9.1549 2.1006,12.1873 -2.0905,-2.4243 -2.2776,-7.2696 -2.6916,-11.8263 -1.0577,0.016 -1.4019,-1.1628 -1.6577,-2.245 1.0382,2.3202 2.5692,2.4068 2.7754,-0.7609 z"
       id="path22679-9-6-1-1-5-2"
       inkscape:connector-curvature="0"
       sodipodi:nodetypes="cccccc" />
  </g>
</svg>
