<?xml version="1.0" encoding="UTF-8" standalone="no"?>
<!-- Created with Inkscape (http://www.inkscape.org/) -->

<svg
   xmlns:dc="http://purl.org/dc/elements/1.1/"
   xmlns:cc="http://creativecommons.org/ns#"
   xmlns:rdf="http://www.w3.org/1999/02/22-rdf-syntax-ns#"
   xmlns:svg="http://www.w3.org/2000/svg"
   xmlns="http://www.w3.org/2000/svg"
   xmlns:sodipodi="http://sodipodi.sourceforge.net/DTD/sodipodi-0.dtd"
   xmlns:inkscape="http://www.inkscape.org/namespaces/inkscape"
   width="846.31866"
   height="557.95142"
   id="svg16567"
   version="1.1"
   inkscape:version="0.48.4 r9939"
   sodipodi:docname="Nieuw document 34">
  <defs
     id="defs16569" />
  <sodipodi:namedview
     id="base"
     pagecolor="#ffffff"
     bordercolor="#666666"
     borderopacity="1.0"
     inkscape:pageopacity="0.0"
     inkscape:pageshadow="2"
     inkscape:zoom="0.35"
     inkscape:cx="472.44505"
     inkscape:cy="273.26143"
     inkscape:document-units="px"
     inkscape:current-layer="layer1"
     showgrid="false"
     fit-margin-top="0"
     fit-margin-left="0"
     fit-margin-right="0"
     fit-margin-bottom="0"
     inkscape:window-width="1600"
     inkscape:window-height="837"
     inkscape:window-x="-8"
     inkscape:window-y="-8"
     inkscape:window-maximized="1" />
  <metadata
     id="metadata16572">
    <rdf:RDF>
      <cc:Work
         rdf:about="">
        <dc:format>image/svg+xml</dc:format>
        <dc:type
           rdf:resource="http://purl.org/dc/dcmitype/StillImage" />
        <dc:title></dc:title>
      </cc:Work>
    </rdf:RDF>
  </metadata>
  <g
     inkscape:label="Laag 1"
     inkscape:groupmode="layer"
     id="layer1"
     transform="translate(97.445045,-247.6722)">
    <rect
       style="fill:#eac608;fill-opacity:1;stroke:none"
       id="rect15905"
       width="422.05499"
       height="557.95142"
       x="326.81863"
       y="247.6722" />
    <rect
       style="fill:#2c559f;fill-opacity:1;stroke:none"
       id="rect15907"
       width="424.26401"
       height="557.95142"
       x="-97.445045"
       y="247.6722" />
    <path
       style="fill:#eac608;fill-opacity:1"
       d="m 82.465483,775.04856 -0.784,-0.09 -0.136,-1.941 c -0.153,-2.204 -0.549,-3.735 -1.509,-5.839 -0.877,-1.921 -3.417,-4.533 -5.323,-5.473 l -1.35,-0.665 1.568,-0.778 c 2.05,-1.018 3.878,-2.848 4.427,-4.433 0.22,-0.636 0.5,-1.158 0.622,-1.158 0.122,0 0.907,0.143 1.745,0.315 0.839,0.173 2.505,0.384 3.702,0.467 2.066,0.146 2.312,0.218 4.792,1.435 6.348,3.117 9.184,6.753 7.757,9.946 -1.19,2.667 -5.615,5.467 -11.946,7.561 -1.345,0.445 -2.521,0.793 -2.613,0.772 -0.09,-0.02 -0.52,-0.08 -0.952,-0.123 z m -7.273,-0.412 c -5.654,-0.555 -16.871,-2.49 -17.393,-3 -0.105,-0.104 0.172,-0.796 0.629,-1.566 1.179,-1.989 2.43,-4.989 2.861,-6.861 l 0.374,-1.62 0.668,0.113 c 0.366,0.06 1.99,0.16 3.607,0.216 6.103,0.212 10.112,2.361 12.108,6.491 0.727,1.503 1.368,4.212 1.385,5.851 0,0.849 0.317,0.822 -4.239,0.376 z m 17.527,-0.445 c 3.603,-1.769 6.293,-4.144 7.333997,-6.475 0.473,-1.06 0.542,-1.479 0.465,-2.846 -0.06,-1.077 -0.261,-1.962 -0.608997,-2.699 -0.983,-2.084 -3.861,-4.779 -6.936,-6.494 l -1.136,-0.634 2.022,-0.606 c 4.989,-1.495 7.945997,-3.795 8.369997,-6.511 0.07,-0.461 0.192,-0.84 0.267,-0.839 0.471,0 4.352,1.197 5.802,1.786 6.937,2.82 10.709,6.602 12.069,12.102 0.5,2.018 0.747,5.577 0.507,7.292 -0.201,1.441 0.11,1.289 -6.048,2.944 -6.708,1.801 -13.52,2.996 -20.251997,3.552 -3.67,0.302 -3.649,0.308 -1.855,-0.572 z m -41.807,-4.343 c -4.568,-1.404 -7.208,-2.344 -12.029,-4.281 l -3.862,-1.553 0.32,-0.634 c 1.375,-2.725 2.08,-5.819 2.222,-9.748 0.118,-3.285 -0.213,-6.598 -0.829,-8.275 -0.239,-0.653 -0.158,-0.644 2.167,0.266 5.117,2.002 9.931,3.307 13.256,3.596 l 1.789,0.155 1.491,1.503 c 4.289,4.329 5.104,8.365 2.866,14.195 -0.903,2.351 -2.89,5.775 -3.386,5.832 -0.227,0.02 -2.029,-0.449 -4.005,-1.056 z m 72.232997,-4.499 c -0.132,-3.37 -0.453,-5.118 -1.375,-7.48 -0.309,-0.792 -0.526,-1.476 -0.483,-1.522 0.04,-0.05 1.842,-0.361 3.996,-0.703 5.286,-0.838 10.019,-0.881 11.922,-0.106 2.126,0.865 3.234,2.182 3.552,4.217 l 0.137,0.882 -1.383,0.791 c -3.084,1.762 -13.622,6.451 -15.672,6.973 l -0.568,0.145 -0.126,-3.197 z m -96.418997,-5.372 c -5.684,-2.937 -8.873,-4.764 -13.642,-7.825 l -2.44,-1.566 1.315,-0.797 c 2.811,-1.704 5.041,-4.636 6.172,-8.115 0.619,-1.905 1.198,-5.401 1.21,-7.309 l 0,-1.228 0.92,1.785 c 1.774,3.446 3.818,5.929 6.224,7.57 2.073,1.412 3.512,1.937 5.777,2.106 l 1.936,0.145 0.29,1.004 c 1.069,3.703 1.199,8.675 0.318,12.211 -0.602,2.414 -1.585,4.844 -1.994,4.925 -0.186,0.04 -2.928,-1.27 -6.094,-2.906 z m 39.212,-0.611 c -0.779,-0.1 -2.015,-0.187 -2.747,-0.201 l -1.331,-0.02 -0.143,-1.244 c -0.298,-2.599 -1.553,-5.221 -3.586,-7.494 -0.785,-0.877 -1.07,-1.338 -0.872,-1.408 2.445,-0.877 2.921,-1.147 4.091,-2.319 1.377,-1.382 1.962,-2.392 2.514,-4.337 0.199,-0.702 0.429,-1.275 0.51,-1.274 0.444,0 2.343,0.727 4.026,1.526 2.697,1.279 4.632,2.661 6.403,4.572 3.14,3.387 3.704,6.67 1.574,9.151 -1.953,2.274 -6.352,3.56 -10.439,3.055 z m 76.766997,-1.175 c -0.204,-0.645 -0.768,-1.703 -1.253,-2.349 -0.485,-0.649 -0.844,-1.215 -0.797,-1.259 0.329,-0.31 4.64,-2.366 6.647,-3.17 3.165,-1.268 5.228,-1.585 7.103,-1.093 0.747,0.196 1.445,0.447 1.553,0.557 0.281,0.288 -12.05,8.485 -12.763,8.485 -0.07,0 -0.285,-0.527 -0.49,-1.171 z m -24.395,-5.593 c -2.544,-2.712 -5.977,-4.751 -11.294,-6.708 -0.321,-0.117 -0.116,-0.3 0.975,-0.87 3.706,-1.938 6.499,-6.162 6.506,-9.836 l 0,-1.301 0.708,0.145 c 1.615,0.33 4.741,1.515 6.053,2.294 2.04,1.209 3.988,3.268 4.824,5.099 1.579,3.458 0.513,7.252 -2.875,10.233 -1.053,0.926 -3.18,2.357 -3.484,2.342 -0.06,0 -0.697,-0.632 -1.416,-1.398 z m 7.589,-0.365 c 2.763,-3.026 3.773,-6.559 2.879,-10.064 -0.171,-0.671 -0.235,-1.3 -0.142,-1.398 0.09,-0.1 0.894,-0.481 1.781,-0.851 4.805,-2.007 10.074,-1.717 13.073,0.716 1.948,1.582 2.342,3.954 1.063,6.413 -0.838,1.611 -3.044,3.85 -5.21,5.286 l -1.449,0.961 -1.191,-0.327 c -1.579,-0.433 -6.417,-0.42 -9.308,0.02 -1.222,0.187 -2.285,0.341 -2.363,0.341 -0.07,0 0.313,-0.495 0.867,-1.102 z m -40.688997,0.285 c -0.959,-0.299 -2.548,-0.602 -3.533,-0.676 l -1.79,-0.134 -0.329,-1.139 c -0.872,-3.012 -3.866,-6.468 -7.523,-8.687 l -0.98,-0.594 2.069,0 c 3.727,0 6.197,-0.803 8.053,-2.583 l 1.098,-1.052 1.903,0.505 c 5.453,1.448 10.702,3.622 13.252,5.486 3.533997,2.584 3.344997,5.007 -0.55,7.105 -1.81,0.975 -3.618,1.565 -6.2,2.025 -2.503,0.446 -3.355,0.407 -5.47,-0.25 z m 60.646997,-3.108 c 0,-0.05 0.239,-0.476 0.53,-0.933 1.628,-2.564 1.546,-6.026 -0.201,-8.443 -0.33,-0.458 -0.292,-0.489 1.354,-1.202 2.305,-0.999 3.624,-1.336 5.228,-1.34 1.19,0 1.445,0.08 2.061,0.641 0.646,0.593 0.709,0.772 0.792,2.269 0.09,1.684 -0.105,2.973 -0.88,5.736 l -0.454,1.618 -1.439,0 c -1.772,0 -3.848,0.441 -5.635,1.186 -0.746,0.31 -1.356,0.519 -1.356,0.463 z m 11.597,-0.363 c -0.27,-0.134 -0.491,-0.377 -0.491,-0.539 0,-0.411 2.088,-2.064 3.267,-2.584 1.155,-0.51 3.194,-0.822 2.972,-0.453 -0.242,0.401 -4.751,3.848 -5.014,3.832 -0.135,0 -0.465,-0.123 -0.734,-0.256 z m -152.0549966,-2.127 c -1.497,-1.065 -3.439999,-2.694 -4.316999,-3.62 -2.934,-3.095 -7.142,-8.979 -9.662,-13.511 -1.384,-2.489 -3.2250004,-6.291 -3.2250004,-6.66 0,-0.21 0.404,-0.357 1.253,-0.459 4.4910004,-0.539 9.0500004,-3.244 11.8460004,-7.029 1.042,-1.41 2.991999,-5.107 3.308999,-6.273 0.125,-0.464 0.274,-0.18 0.873,1.673 1.379,4.261 3.419,7.67 5.7569996,9.622 1.439,1.202 2.358,1.706 3.997,2.194 l 1.216,0.362 0.239,2.282 c 1.037,9.926 0.101,15.989 -3.066,19.867 -1.175,1.438 -4.2899996,3.521 -5.2329996,3.497 -0.146,0 -1.49,-0.878 -2.987,-1.945 z m 47.0369996,0 c -3.316,-0.375 -6.682,-1.252 -11.359,-2.959 l -2.538,-0.927 1.366,-1.401 c 3.054,-3.13 4.552,-7.536 4.573,-13.453 0,-2.894 0.02,-2.941 0.445,-2.657 4.578,3.047 9.847,4.993 14.086,5.205 l 2.545,0.127 0.279,1.586 c 0.153,0.873 0.283,2.992 0.286,4.711 0,4.163 -0.459,5.834 -2.127,7.576 -1.391,1.453 -2.818,2.04 -5.269,2.166 -0.958,0.05 -1.987,0.06 -2.287,0.03 z m 105.063997,-2.461 c 0.07,-0.206 0.232,-1.122 0.345,-2.035 0.227,-1.839 0,-3.816 -0.537,-4.903 l -0.339,-0.671 2.577,-1.347 c 5.531,-2.89 8.877,-3.924 12.21,-3.774 1.718,0.08 2.282,0.198 3.212,0.69 0.62,0.328 1.202,0.718 1.292,0.867 0.185,0.308 -2.68,3.18 -7.262,7.277 l -2.883,2.578 -2.805,0.01 c -2.792,0.02 -2.812,0.02 -4.377,0.846 -1.166,0.613 -1.537,0.73 -1.433,0.454 z m -57.118,-1.291 c -1.551997,-1.691 -4.609997,-3.469 -8.617997,-5.013 l -2.157,-0.831 1.032,-0.158 c 3.436,-0.528 5.083,-2.17 5.301,-5.283 l 0.103,-1.476 2.603,-0.376 c 2.727997,-0.396 8.759997,-1.7 9.844997,-2.13 0.566,-0.224 0.7,-0.185 1.267,0.371 0.654,0.642 1.749,2.47 2.011,3.36 0.127,0.432 0.02,0.561 -0.683,0.875 l -0.833,0.367 0.762,0.21 c 0.419,0.115 0.885,0.245 1.034,0.291 0.37,0.109 0.347,1.907 -0.04,3.407 -0.407,1.565 -1.529,3.452 -2.671,4.488 -1.835,1.667 -4.842,2.912 -7.029,2.912 -0.897,0 -1.084,-0.1 -1.926,-1.014 z m -69.340997,-1.013 c -2.619,-0.633 -6.071,-3.595 -7.974,-6.843 -1.806,-3.079 -3.854,-8.859 -4.005,-11.298 l -0.05,-0.862 1.173,-0.312 c 3.305,-0.883 6.814,-3.961 9.964,-8.742 l 1.221,-1.852 0.532,1.628 c 0.848,2.597 1.923,4.357 3.857,6.322 1.792,1.82 3.25,2.729 5.259,3.279 0.906,0.25 0.962,0.311 1.097,1.236 0.08,0.534 0.09,2.448 0.03,4.252 -0.161,4.868 -1.127,7.89 -3.358,10.504 -0.986,1.155 -2.539,2.26 -3.176,2.26 -0.19,0 -0.806,-0.203 -1.373,-0.452 -0.566,-0.248 -1.075,-0.404 -1.131,-0.346 -0.06,0.06 0,0.412 0.128,0.786 l 0.231,0.682 -0.805,-0.02 c -0.443,-0.02 -1.173,-0.112 -1.621,-0.22 z m 36.856,-3.433 c -1.617,-0.167 -3.062,-0.312 -3.212,-0.323 -0.195,-0.01 -0.273,-0.572 -0.276,-1.973 0,-1.8 -0.258,-4.29 -0.565,-5.545 -0.105,-0.43 -0.02,-0.542 0.493,-0.668 0.87,-0.211 3.452,-1.547 4.352,-2.251 l 0.754,-0.589 1.677,0.582 c 2.491,0.864 4.79,1.473 7.171,1.898 2.073,0.371 2.127,0.396 2.263,1.05 0.225,1.076 0.208,3.725 -0.02,4.598 -0.792,2.923 -5.024,4.002 -12.628,3.221 z m 58.494997,-1.109 c -1.531,-1.914 -4.799,-4.04 -7.592,-4.938 -0.689,-0.221 -1.249,-0.46 -1.246,-0.53 0,-0.07 0.496,-0.468 1.097,-0.885 2.303,-1.601 3.342,-3.611 3.327,-6.426 l 0,-1.828 1.039,-0.459 c 2.598,-1.145 5.907,-1.21 8.146,-0.157 1.597,0.749 2.119,1.21 1.96,1.726 -0.09,0.284 0.02,0.412 0.372,0.465 0.738,0.108 1.297,1.726 1.143,3.308 -0.284,2.911 -1.966,5.794 -5.135,8.802 -2.212,2.098 -2.17,2.086 -3.101,0.922 z m 16.406,-0.119 c -1.837,-0.995 -5.261,-1.484 -7.921,-1.131 -0.948,0.126 -1.768,0.184 -1.823,0.127 -0.06,-0.05 0.287,-0.583 0.761,-1.171 2.083,-2.586 3.24,-5.764 3.058,-8.398 -0.06,-0.879 -0.187,-1.79 -0.28,-2.023 -0.164,-0.405 -0.08,-0.417 1.74,-0.265 2.089,0.174 5.428,0.967 6.925,1.646 1.144,0.519 2.466,1.671 2.897,2.525 0.854,1.692 -0.07,4.202 -2.671,7.25 -0.881,1.033 -1.672,1.874 -1.758,1.869 -0.09,0 -0.503,-0.198 -0.928,-0.429 z m 6.144,-1.96 c 0.04,-0.09 0.452,-0.955 0.915,-1.918 0.738,-1.536 0.843,-1.951 0.852,-3.38 0,-1.292 -0.09,-1.803 -0.471,-2.464 l -0.481,-0.837 0.48,-0.523 c 0.764,-0.833 4.274,-2.492 5.912,-2.794 1.131,-0.207 1.786,-0.211 2.828,-0.01 3.141,0.599 4.167,2.853 2.588,5.685 -0.812,1.453 -3.394,3.987 -5.276,5.178 -1.242,0.785 -1.334,0.808 -2.755,0.668 -1.025,-0.102 -1.919,-0.04 -2.953,0.208 -1.706,0.41 -1.735,0.413 -1.639,0.188 z m -65.837997,-1.552 c 0.04,-0.6 -0.02,-1.589 -0.124,-2.197 l -0.195,-1.106 5.404,0 5.405,0 0,1.143 c 0,1.389 -0.474,2.095 -1.793,2.67 -0.749,0.326 -1.69,0.421 -4.849,0.492 l -3.92,0.09 0.07,-1.09 z m 94.220997,-2.837 c -0.36,-0.296 -0.597,-0.596 -0.528,-0.667 0.184,-0.192 5.24,-3.035 5.395,-3.035 0.07,0 -0.794,0.954 -1.927,2.12 -1.133,1.166 -2.112,2.12 -2.174,2.119 -0.07,0 -0.407,-0.243 -0.766,-0.537 z m -63.662,-0.97 c -0.25,-0.582 -0.751,-1.51 -1.114,-2.063 -0.738,-1.119 -0.798,-1.339 -0.368,-1.339 0.161,0 1.899,-0.602 3.861,-1.339 1.961,-0.736 3.592,-1.339 3.625,-1.339 0.03,0 0.06,0.47 0.06,1.046 0,2.117 -1.284,3.762 -4.131,5.296 l -1.479,0.797 -0.453,-1.059 z m 50.183,-0.283 c 0.743,-1.515 0.919,-3.514 0.431,-4.904 l -0.352,-1.004 1.147,-1.079 c 5.643,-5.306 12.463,-6.412 14.005,-2.272 1.045,2.805 -0.584,6.21 -3.837,8.026 -1.073,0.597 -1.33,0.642 -3.887,0.688 -2.687,0.05 -3.736,0.264 -7.697,1.593 -0.331,0.109 -0.303,-0.04 0.19,-1.048 z m -106.460997,-1.576 c -2.483,-0.372 -8.008,-2.601 -10.354,-4.176 -0.509,-0.343 -0.487,-0.358 1.131,-0.75 2.346,-0.567 5.167,-1.914 8.333,-3.977 0.43,-0.282 0.607,-0.179 2.395,1.374 2.272,1.974 4.047,3.224 6.455,4.543 l 1.752,0.96 -0.743,0.467 c -2.43,1.526 -5.56,2.069 -8.969,1.559 z m 124.053997,-3.738 c 0.573,-2.633 0.21,-4.697 -1.101,-6.268 -0.399,-0.478 -0.727,-0.958 -0.727,-1.067 0,-0.523 3.15,-3.499 5.01,-4.731 3.39,-2.248 5.476,-2.816 5.62,-1.535 0.169,1.508 -1.536,5.88 -4.01,10.278 -0.537,0.955 -0.927,1.817 -0.867,1.917 0.06,0.1 -0.828,0.59 -1.973,1.092 l -2.082,0.91 0.13,-0.596 z m -35.06,-0.283 c -1.727,-0.852 -5.124,-1.728 -7.4,-1.907 l -1.803,-0.142 0.941,-1.408 c 1.861,-2.786 2.482,-4.702 1.979,-6.115 -0.152,-0.431 -0.346,-0.946 -0.429,-1.147 -0.113,-0.273 0.136,-0.543 1.005,-1.089 0.637,-0.4 2.3,-1.567 3.697,-2.594 1.398,-1.027 2.598,-1.867 2.668,-1.867 0.07,0 0.496,0.413 0.944,0.918 4.372,4.92 4.623,9.113 0.887,14.76 -0.467,0.706 -0.919,1.276 -1.004,1.265 -0.09,0 -0.754,-0.313 -1.485,-0.674 z m 6.125,-2.376 c 1.021,-2.491 1.053,-2.645 1.069,-5.078 0,-1.35 -0.06,-2.724 -0.149,-3.053 -0.154,-0.563 -0.06,-0.667 1.633,-1.739 0.989,-0.628 2.385,-1.567 3.105,-2.087 2.498,-1.809 5.813,-2.458 7.317,-1.432 2.796,1.91 1.724,8.266 -2.13,12.625 l -1.05,1.187 -1.089,-0.518 c -0.946,-0.451 -1.417,-0.517 -3.593,-0.509 -2.026,0 -2.752,0.104 -3.803,0.503 -1.561,0.591 -1.509,0.587 -1.31,0.101 z m -18.564,-0.597 c -0.72,-0.621 -2.17,-1.312 -3.556,-1.694 l -0.892,-0.246 3.883,-2.289 c 4.064,-2.398 4.643,-2.566 4.643,-1.352 0,0.86 -1.87,4.27 -3.273,5.967 -0.08,0.1 -0.444,-0.08 -0.805,-0.386 z m -91.451997,-0.1 c -0.433,-0.281 -0.724,-0.359 -0.773,-0.207 -0.119,0.367 -1.438,-0.145 -2.943,-1.142 -2.062,-1.365 -3.765,-3.801 -4.696,-6.714 -0.702,-2.199 -0.885,-3.429 -0.488,-3.272 1.073,0.422 3.228,0.642 5.195,0.53 2.62,-0.148 5.568,-0.881 8.672,-2.158 1.219,-0.501 2.232,-0.884 2.252,-0.851 0.02,0.03 0.304,0.712 0.631,1.51 0.826,2.017 2.364,4.708 3.85,6.738 l 1.257,1.717 -1.45,0.896 c -3.353,2.073 -6.114,3.071 -9.072,3.281 -1.501,0.105 -1.838,0.06 -2.435,-0.328 z m -26.588,-0.588 c -4.769,-1.356 -8.6149996,-7.927 -9.4019996,-16.068 -0.118,-1.219 -0.07,-2.599 0.14,-4.349 0.173,-1.409 0.34,-2.589 0.373,-2.623 0.03,-0.03 0.579,0.04 1.214,0.164 4.6369996,0.901 11.9879996,-1.083 18.4999996,-4.994 0.756,-0.454 1.414,-0.788 1.46,-0.741 0.05,0.05 -0.07,0.529 -0.26,1.07 -0.189,0.541 -0.484,1.786 -0.655,2.769 -0.805,4.614 0.1,8.743 2.537,11.576 l 0.934,1.085 -0.53,1.027 c -1.166,2.257 -3.62,5.781 -5.083,7.3 -3.189,3.313 -6.34,4.604 -9.228,3.784 z m -28.856999,-0.257 c -0.301,-0.5 -1.327,-3.524 -1.994,-5.879 -2.148,-7.587 -3.135,-15.652 -2.865,-23.412 0.07,-2.135 0.197,-4.416 0.271,-5.067 l 0.136,-1.184 0.788,0.41 c 2.011,1.047 4.426,1.629 7.2120004,1.737 3.956,0.155 6.656,-0.539 10.30900004,-2.648 0.81899996,-0.473 1.52499996,-0.86 1.56899996,-0.86 0.04,0 -0.16,0.528 -0.452,1.172 -1.93599996,4.276 -1.33499996,8.912 1.434999,11.061 0.842,0.651 1.042,0.928 0.957,1.322 -0.06,0.273 -0.197,1.83 -0.309,3.459 -0.215,3.129 -0.792,5.735 -1.942999,8.772 -2.44799996,6.46 -7.466,10.571 -13.6590004,11.189 -0.734,0.08 -1.387,0.04 -1.455,-0.07 z m 181.243996,-2.827 c 0,-0.05 0.201,-0.674 0.446,-1.399 0.585,-1.725 0.794,-4.655 0.428,-5.994 -0.267,-0.977 -0.253,-1.057 0.349,-1.965 0.345,-0.521 1.656,-2.008 2.914,-3.304 3.157,-3.252 5.519,-4.456 7.456,-3.801 2.851,0.964 3.378,5.522 1.162,10.031 -0.922,1.877 -3.515,4.857 -4.152,4.774 -2.625,-0.342 -5.562,0.154 -7.786,1.313 -0.449,0.235 -0.817,0.39 -0.817,0.345 z m 22.485,-0.16 c 1.432,-3.406 2.061,-6.037 1.733,-7.236 -0.144,-0.527 0.06,-1.404 0.954,-4.242 0.625,-1.968 1.243,-3.578 1.374,-3.578 0.13,0 0.693,-0.703 1.252,-1.562 1.234,-1.901 2.656,-3.683 2.937,-3.683 0.29,0 0.05,2.637 -0.572,6.362 -0.979,5.825 -0.839,5.478 -3.716,9.192 -2.775,3.581 -4.178,5.263 -3.962,4.747 z m -39.221,-7.561 c -0.377,-0.599 -1.129,-1.591 -1.668,-2.206 l -0.981,-1.119 3.214,-2.679 c 1.768,-1.475 4.047,-3.44 5.065,-4.369 2.095,-1.91 2.041,-1.915 2.831,0.251 1.205,3.3 -0.06,6.115 -3.808,8.479 -1.08,0.68 -2.413,1.573 -2.964,1.984 l -1.001,0.745 -0.688,-1.086 z m 32.417,0.168 c 0,-0.04 0.156,-0.577 0.342,-1.19 0.396,-1.303 0.44,-4.137 0.09,-5.512 -0.135,-0.529 -0.484,-1.401 -0.773,-1.938 -0.289,-0.536 -0.526,-0.994 -0.526,-1.016 0,-0.125 4.027,-3.567 5.226,-4.468 2.58,-1.939 4.548,-2.657 4.876,-1.779 0.535,1.43 -0.252,6.043 -1.863,10.917 l -0.944,2.857 -0.981,0.08 c -1.259,0.104 -2.19,0.417 -3.811,1.276 -1.587,0.843 -1.633,0.865 -1.631,0.771 z m -148.698997,-2.077 c -2.573,-0.598 -4.379,-2.154 -5.299,-4.564 -0.361,-0.944 -0.498,-1.871 -0.569,-3.841 -0.114,-3.2 0.348,-5.357 1.793,-8.363 0.8,-1.664 1.231,-2.259 2.381,-3.294 l 1.404,-1.264 1.597,1.236 c 2.046,1.584 5.533,3.414 8.51,4.468 l 2.342,0.828 0,1.814 c 0,2.403 0.357,5.275 0.983,7.918 0.281,1.185 0.443,2.215 0.362,2.289 -0.08,0.08 -1.063,0.51 -2.181,0.967 -4.304,1.76 -8.588,2.443 -11.324,1.806 z m 130.970997,-1.614 c -0.88,-0.468 -1.363,-0.565 -2.755,-0.56 l -1.689,0 0.457,-1.039 c 0.588,-1.341 0.614,-3.691 0.06,-5.375 -0.475,-1.441 -0.541,-1.359 2.165,-2.696 2.414,-1.194 4.304,-1.793 6.122,-1.942 1.404,-0.115 1.596,-0.08 2.037,0.371 0.418,0.429 0.465,0.641 0.335,1.536 -0.287,1.989 -1.803,5.039 -4.425,8.906 -0.52,0.768 -1.011,1.387 -1.091,1.377 -0.08,0 -0.627,-0.273 -1.214,-0.586 z m 34.351,-1.55 c 0.07,-0.472 0.293,-2.065 0.482,-3.538 0.189,-1.473 0.678,-4.085 1.085,-5.803 1.238,-5.215 1.668,-7.713 1.702,-9.875 0.02,-1.362 0.116,-2.064 0.278,-2.064 0.269,0 1.29,-2.798 2.14,-5.865 0.695,-2.509 0.904,-4.546 0.57,-5.582 -0.24,-0.742 -0.192,-0.923 0.719,-2.784 1.354,-2.765 3.084,-7.078 3.401,-8.486 0.701,-3.111 -0.895,-4.271 -3.589,-2.608 -1.625,1.002 -3.238,2.459 -6.635,5.988 -1.492,1.551 -2.801,2.819 -2.908,2.819 -0.466,0 -2.462,1.202 -4.019,2.417 -0.927,0.724 -2.985,2.429 -4.574,3.789 -1.589,1.359 -3.108,2.543 -3.375,2.629 -0.861,0.277 -2.821,1.981 -5.3,4.605 -2.236,2.367 -2.493,2.571 -3.408,2.699 -1.365,0.193 -3.429,0.943 -5.498,2.001 -1.979,1.011 -6.318,3.519 -7.621,4.405 -0.48,0.325 -0.985,0.66 -1.124,0.742 -0.179,0.105 -0.162,-0.193 0.06,-1.022 2.55,-9.723 3.441,-24.031 2.282,-36.661 -0.124,-1.349 -0.33,-4.966 -0.458,-8.034 -0.942,-22.676 3.474,-45.362 13.187,-67.737 2.19,-5.046 8.425,-17.31 9.22,-18.134 0.332,-0.345 1.833,10.203 2.23,15.679 0.314,4.317 0.129,14.517 -0.344,18.97 -0.397,3.737 -1.275,9.701 -1.856,12.61 -0.22,1.104 -0.372,2.037 -0.337,2.073 0.03,0.04 0.388,-0.768 0.784,-1.785 1.467,-3.772 3.107,-6.954 4.203,-8.155 1.759,-1.928 2.819,-0.133 3.397,5.748 0.214,2.174 0.882,15.36 0.882,17.398 0,1.201 0.29,1.141 0.759,-0.157 0.796,-2.2 2.939,-6.442 3.568,-7.058 0.772,-0.759 1.556,-0.689 1.938,0.172 0.815,1.832 1.351,7.243 1.354,13.66 0,2.468 0.07,5.098 0.141,5.844 l 0.138,1.357 1.104,-0.446 c 0.607,-0.245 1.46,-0.452 1.897,-0.457 1.948,-0.03 2.483,1.059 2.488,5.061 0,1.596 -0.07,3.806 -0.165,4.911 l -0.17,2.008 0.529,-1.004 c 0.796,-1.513 2.224,-3.059 3.097,-3.354 1.047,-0.355 2.036,-0.123 3.352,0.785 l 1.105,0.762 0.81,-1.352 c 1.305,-2.175 2.767,-4.069 3.412,-4.423 0.544,-0.298 0.627,-0.292 0.881,0.06 0.153,0.216 0.348,1.144 0.432,2.064 l 0.153,1.671 2.036,-3.144 c 5.958,-9.197 8.873,-10.683 9.986,-5.091 l 0.268,1.346 1.356,-1.798 c 4.457,-5.904 8.113,-9.402 9.827,-9.402 1.437,0 1.983,1.182 2.135,4.625 l 0.111,2.504 2.427,-4.066 c 6.282,-10.525 10.374,-15.837 18.277,-23.723 l 5.041,-5.03 0.07,3.416 c 0.114,5.628 -0.572,13.317 -1.726,19.373 -3.735,19.586 -12.671,35.988 -27.934,51.27 -9.796,9.81 -21.242,18.632 -42.576,32.817 l -1.828,1.216 0.138,-0.859 z m -25.732,-6.243 c 0.398,-1.358 0.453,-2.94 0.15,-4.369 -0.06,-0.276 0.93,-1.064 3.721,-2.963 3.615,-2.46 4.65,-3.026 4.957,-2.71 0.357,0.365 -1.081,5.781 -2.402,9.048 l -0.49,1.21 -1.471,-0.05 c -1.451,-0.06 -4.107,0.615 -4.405,1.11 -0.07,0.112 -0.207,0.205 -0.308,0.205 -0.101,0 0,-0.664 0.248,-1.477 z m 20.745,-2.968 c 0,-0.931 -0.132,-1.917 -0.278,-2.193 -0.239,-0.447 -0.137,-0.69 0.982,-2.342 1.956,-2.888 3.654,-5.122 4.541,-5.973 l 0.813,-0.782 -0.145,2.121 c -0.08,1.167 -0.412,3.373 -0.737,4.904 l -0.59,2.782 -0.976,0.198 c -0.792,0.161 -1.22,0.458 -2.286,1.587 l -1.311,1.39 -0.02,-1.692 z m -10.957,-0.654 c 0.769,-2.284 1.303,-4.756 1.308,-6.063 l 0,-1.287 2.215,-2.238 c 3.106,-3.138 4.865,-4.507 5.793,-4.507 0.903,0 0.794,2.685 -0.315,7.697 -0.298,1.348 -0.541,2.513 -0.541,2.592 0,0.08 -0.44,0.202 -0.976,0.277 -1.378,0.194 -3.592,1.4 -5.919,3.226 l -1.995,1.564 0.424,-1.261 z m -175.2199966,0.633 c -4.193,-0.378 -6.27,-2.307 -6.247,-5.8 0.02,-4.004 2.902,-8.899 8.6809996,-14.782 l 3.01,-3.063 1.361,0.435 c 4.436,1.419 9.891,0.838 15.544,-1.655 0.289,-0.127 0.236,0.188 -0.286,1.698 -1.384,4.005 -0.981,8.059 1.117,11.245 l 0.629,0.956 -1.515,1.562 c -3.928,4.049 -12.298,8.382 -17.721,9.172 -2.503,0.365 -2.878,0.384 -4.5729996,0.232 z m 151.7739966,-0.388 c 0.08,-0.337 0.279,-0.823 0.441,-1.08 0.288,-0.458 3.202,-2.389 7.319,-4.853 3.652,-2.186 8.221,-4.113 9.011,-3.803 0.322,0.126 0.09,1.512 -0.413,2.503 -0.255,0.498 -0.251,0.614 0.03,0.826 0.269,0.201 -0.05,0.498 -1.76,1.632 -2.226,1.478 -3.69,2.132 -4.368,1.951 -1.233,-0.327 -6.076,1.137 -8.762,2.651 -0.769,0.432 -1.454,0.787 -1.522,0.787 -0.07,0 -0.06,-0.277 0.02,-0.614 z m -115.624997,-5.094 c -0.838,-0.298 -2.602,-1.091 -3.919,-1.761 -5.044,-2.568 -7.976,-5.931 -8.643,-9.917 -0.22,-1.317 -0.206,-1.813 0.102,-3.267 0.756,-3.567 2.426,-6.21 5.404,-8.553 l 1.975,-1.555 0.799,0.907 c 1.734,1.968 5.262,3.986 8.885,5.083 l 1.553,0.47 -0.959,2.892 c -1.658,4.999 -2.726,9.895 -3.243,14.881 -0.08,0.767 -0.209,1.387 -0.287,1.378 -0.08,0 -0.828,-0.26 -1.667,-0.558 z m 134.798997,-4.496 0,-1.652 2.176,-2.243 c 1.196,-1.233 2.557,-2.552 3.024,-2.933 l 0.849,-0.69 -0.159,0.882 c -0.165,0.909 -1.284,4.112 -2.085,5.968 -0.285,0.659 -0.592,1.051 -0.825,1.052 -0.204,0 -0.959,0.286 -1.677,0.633 l -1.308,0.634 0,-1.651 z m 16.116,0.551 c 0.09,-0.276 0.186,-1.812 0.213,-3.413 l 0.05,-2.912 2.371,-2.334 c 2.281,-2.247 4.924,-4.453 5.332,-4.453 0.415,0 0.166,2.077 -0.554,4.611 -1.119,3.948 -1.299,4.316 -2.099,4.316 -0.959,0 -2.41,1.117 -3.946,3.033 -0.728,0.91 -1.37,1.654 -1.427,1.654 -0.06,0 -0.03,-0.226 0.06,-0.502 z m -208.077996,-1.602 c -1.442,-0.313 -3.772,-1.146 -4.947,-1.769 l -0.652,-0.346 0.411,-2.725 c 1.375,-9.125 4.686,-20.194 8.7920004,-29.4 l 0.816,-1.829 0.877,1.399 c 1.323,2.106 4.116,4.836 5.80900004,5.68 3.52999896,1.757 6.65799896,1.507 12.13799856,-0.969 0.148,-0.07 -0.07,0.46 -0.49,1.171 -1.5579996,2.651 -2.1719996,5.08 -2.0119996,7.956 0.134,2.412 0.9039996,4.2 2.5019996,5.809 l 1.056,1.062 -3.9289996,4.085 c -5.439,5.656 -8.95199896,8.212 -13.075999,9.516 -1.953,0.617 -5.342,0.785 -7.2950004,0.36 z m 199.337996,-2.471 c 0.471,-1.286 1.006,-3.675 1.006,-4.492 0,-0.913 0.05,-0.972 2.45,-3.031 3.967,-3.4 6.565,-5.296 6.854,-5.001 0.427,0.439 -3.12,8.68 -3.789,8.803 -1.823,0.334 -3.082,1.052 -5.501,3.144 -0.806,0.697 -1.131,0.881 -1.02,0.577 z m 11.343,-8.058 c 0.873,-2.152 1.274,-3.702 1.28,-4.96 l 0,-1.411 2.816,-2.782 c 2.549,-2.516 5.138,-4.773 5.474,-4.773 0.367,0 -0.893,3.352 -2.881,7.662 -1.204,2.613 -1.23,2.647 -2.429,3.27 -0.666,0.346 -1.937,1.257 -2.825,2.023 -0.888,0.766 -1.537,1.203 -1.442,0.971 z m -181.477997,-3.671 c -3.769,-1.011 -5.954,-3.353 -6.261,-6.711 -0.412,-4.526 3.107,-10.176 9.678,-15.541 l 2.023,-1.652 0.835,0.772 c 3.838,3.554 10.217,4.122 16.622,1.479 0.809,-0.333 1.47,-0.54 1.47,-0.46 0,0.08 -0.322,0.647 -0.715,1.259 -1.167,1.815 -2.285,4.556 -2.673,6.552 -0.397,2.037 -0.321,3.634 0.266,5.658 l 0.34,1.177 -0.6,0.447 c -0.329,0.246 -1.325,1.06 -2.213,1.812 -2.808,2.373 -7.493,4.559 -11.401,5.32 -2.419,0.47 -5.371,0.425 -7.371,-0.112 z m 32.642,-1.745 c -4.478,-1.507 -7.419,-3.668 -8.743,-6.424 -0.89,-1.854 -1.084,-4.31 -0.515,-6.55 0.962,-3.79 4.219,-8.513 8.64,-12.531 l 1.513,-1.374 0.805,0.779 c 1.152,1.116 1.911,1.598 3.603,2.285 2.691,1.094 6.097,1.029 9.824,-0.183 l 1.574,-0.513 -1.196,1.696 c -1.471,2.084 -2.954,5.218 -3.449,7.285 -0.509,2.132 -0.466,5.524 0.1,7.648 l 0.434,1.631 -0.577,0.234 c -0.318,0.13 -1.509,0.563 -2.647,0.966 -1.137,0.403 -2.793,1.011 -3.679,1.352 l -1.609,0.621 -0.851,1.859 c -0.467,1.023 -0.968,1.856 -1.111,1.85 -0.145,0 -1.095,-0.288 -2.114,-0.631 z m 14.704,-7.212 c -0.803,-2.291 -0.976,-5.38 -0.435,-7.734 0.397,-1.728 1.5,-4.184 2.639,-5.88 1.347,-2.004 4.431,-5.495 6.873,-7.778 1.233,-1.154 3.273,-3.127 4.534,-4.386 l 2.292,-2.289 0.648,0.452 c 2.88,2.005 7.648,3.682 12.381,4.353 l 1.063,0.151 -1.695,0.907 c -5.303,2.836 -7.014,7.287 -5.229,13.601 0.518,1.837 0.526,2.172 0.05,2.172 -0.628,0 -16.198,4.541 -22.638,6.603 -0.213,0.07 -0.428,0 -0.485,-0.172 z m -63.2989986,-7.413 c -2.691,-0.984 -5.391,-3.724 -7.134,-7.237 l -0.479,-0.964 2.23,-4.281 c 3.01700004,-5.789 9.027999,-15.861 9.733999,-16.308 0.105,-0.07 0.572,0.166 1.04,0.516 2.666,2 5.2749996,2.81 8.4709996,2.63 2.393,-0.135 4.07,-0.616 6.473,-1.856 l 1.482,-0.765 -0.998,1.892 c -1.927,3.652 -2.903,7.726 -2.634,10.991 0.138,1.667 0.959,4.573 1.557,5.508 0.316,0.495 0.251,0.561 -2.888,2.976 -1.765,1.357 -3.917,2.935 -4.782,3.506 -2.086,1.378 -5.3059996,2.944 -6.9119996,3.364 -1.574,0.412 -4.076,0.426 -5.159999,0.03 z m 88.6159986,-1.529 c -0.721,-2.352 -0.715,-6.106 0,-7.502 1.593,-3.064 6.102,-5.252 14.975997,-7.266 1.305,-0.296 3.201,-0.848 4.211,-1.227 1.011,-0.379 1.901,-0.688 1.976,-0.688 0.07,0 0.635,0.636 1.243,1.415 2.015,2.576 5.227,4.637 8.703,5.582 l 1.867,0.509 -3.349,1.371 c -4.571,1.871 -8.128,3.147 -13.911,4.99 -4.605,1.469 -14.675997,4.433 -15.057997,4.433 -0.09,0 -0.396,-0.728 -0.67,-1.617 z m -60.249,-4.65 c -2.528,-0.509 -5.458,-2.652 -6.611,-4.833 -1.041,-1.973 -1.321,-3.444 -1.196,-6.296 0.09,-2.085 0.239,-2.95 0.768,-4.518 1.183,-3.503 3.318,-6.894 6.646,-10.559 1.542,-1.698 1.642,-1.768 2.03,-1.416 0.697,0.631 2.957,1.699 4.399,2.079 1.796,0.473 5.115,0.475 7.332,0 2.086,-0.444 5.079,-1.596 7.23,-2.783 l 1.568,-0.867 -1.061,2.05 c -1.279,2.469 -2.464,6.059 -2.84,8.608 -0.486,3.287 0.05,7.542 1.242,9.921 0.31,0.62 0.297,0.654 -0.6,1.451 -2.853,2.539 -7.264,5.248 -10.22,6.28 -3.037,1.06 -6.201,1.38 -8.687,0.879 z m 28.02,-4.663 c -3.355,-0.621 -5.99,-3.137 -7.143,-6.82 -0.706,-2.254 -0.678,-5.891 0.07,-8.821 0.896,-3.517 2.605,-7.017 5.068,-10.375 1.253,-1.708 2.522,-3.028 5.851,-6.086 l 2.164,-1.988 1.289,0.854 c 1.487,0.985 3.11,1.651 5.272,2.165 2.184,0.518 8.463,0.499 11.076,-0.03 1.062,-0.217 1.96,-0.364 1.996,-0.327 0.03,0.04 -0.671,0.711 -1.572,1.497 -6.623,5.782 -8.097,12.542 -3.844,17.634 l 0.822,0.985 -2.624,2.586 c -5.539,5.459 -10.98,8.486 -15.842,8.815 -0.855,0.06 -2.016,0.02 -2.582,-0.09 z m 63.681997,-2.689 c -3.313,-0.889 -6.332,-3.097 -8.165,-5.973 -1.87,-2.934 -2.588,-5.516 -2.588,-9.31 0,-3.846 0.723,-6.831 2.677,-11.048 0.978,-2.11 3.649,-6.515 4.139,-6.826 0.107,-0.07 0.685,0.318 1.288,0.858 2.377,2.131 6.304,3.752 12.293,5.072 1.797,0.396 3.534,0.784 3.861,0.864 l 0.593,0.144 -0.765,0.99 c -1.139,1.474 -2.212,3.913 -2.609,5.929 -0.747,3.795 0.313,8.173 3.129,12.911 0.5,0.842 0.909,1.61 0.909,1.708 0,0.239 -3.336,2.35 -6.143,3.885 l -2.278,1.247 -2.378,0 c -1.605,0 -2.891,-0.151 -3.963,-0.439 z m -28.645997,-4.794 c -3.54,-0.591 -6.988,-1.782 -9.469,-3.272 -0.681,-0.409 -1.983,-1.498 -2.893,-2.419 -1.293,-1.308 -1.757,-1.956 -2.123,-2.966 -0.857,-2.36 -0.445,-5.071 1.16,-7.643 1.687,-2.702 5.674,-6.284 9.918,-8.911 l 1.789,-1.106 0.79,0.503 c 1.473,0.937 4.269,2.216 5.691,2.602 1.898,0.515 6.393997,0.695 8.369997,0.335 1.716,-0.312 4.378,-1.173 5.621,-1.817 0.868,-0.45 1.008,-0.346 0.511,0.381 -0.754,1.103 -2.385,5.283 -2.986,7.654 -1.177,4.644 -1.056,9.275 0.344,13.087 l 0.539,1.469 -0.592,0.242 c -0.325,0.133 -1.915,0.644 -3.532,1.135 -2.908,0.883 -2.984,0.893 -7.076997,0.97 -2.887,0.05 -4.719,-0.02 -6.061,-0.244 z m 44.615997,-2.501 c -2.288,-3.714 -3.288,-6.996 -3.113,-10.212 0.174,-3.185 1.18,-5.271 4.069,-8.433 0.87,-0.952 1.457,-1.73 1.305,-1.73 -0.151,0 -0.224,-0.05 -0.162,-0.116 0.115,-0.118 12.357,-0.772 14.51,-0.775 1.361,0 1.36,-0.16 0,3.012 -3,7.035 -8.449,13.902 -15.027,18.939 l -0.793,0.607 -0.796,-1.292 z m -124.886997,-7.213 c -1.273,-0.275 -3.8599996,-1.565 -4.7459996,-2.368 l -0.704,-0.639 2.7729996,-3.8 c 1.525,-2.09 4.011,-5.354 5.522,-7.254 2.887,-3.628 8.035,-9.665 8.141,-9.548 0.03,0.04 0.219,1.173 0.412,2.524 0.71,4.983 2.411,9.697 4.443,12.313 l 0.897,1.154 -1.461,1.198 c -3.867,3.17 -6.926,5.068 -9.628,5.971 -1.63,0.544 -4.244,0.753 -5.649,0.449 z m 23.862,-5.928 c -5.568,-1.381 -9.273,-7.236 -10.365,-16.379 -0.434,-3.638 -0.435,-3.633 1.348,-5.56 0.864,-0.935 3.319,-3.433 5.456,-5.551 l 3.883,-3.852 2.002,1.816 c 3.239,2.937 5.717,4.516 8.753,5.577 2.203,0.769 6.079,0.768 8.275,0 1.541,-0.541 3.571,-1.587 4.338,-2.235 0.384,-0.325 0.407,-0.323 0.284,0.02 -1.482,4.174 -1.063,9.255 1.027,12.437 l 0.716,1.091 -1.005,0.801 c -0.552,0.44 -1.69,1.476 -2.529,2.301 -3.925,3.864 -8.522,6.916 -13.045,8.66 -3.062,1.182 -6.552,1.516 -9.138,0.874 z m 101.340997,-7.72 c -0.539,-0.119 -2.793,-0.612 -5.008,-1.096 -2.216,-0.485 -4.862,-1.138 -5.88,-1.452 -4.451,-1.371 -7.42,-3.494 -8.624,-6.165 -0.58,-1.288 -0.63,-1.603 -0.618,-3.858 0,-1.862 0.136,-2.886 0.516,-4.241 0.509,-1.814 2.105,-6.121 2.372,-6.403 0.425,-0.445 7.417,-1.722 12.125,-2.214 2.905,-0.303 13.734,-0.368 17.365,-0.103 l 2.34,0.17 -0.128,0.593 c -0.314,1.458 -2.765,8.625 -3.674,10.747 -1.227,2.865 -2.983,6.078 -4.44,8.126 -1.17,1.644 -5.042,6.175 -5.244,6.135 -0.07,-0.02 -0.563,-0.121 -1.102,-0.239 z m -38.217997,-1.839 c -3.277,-0.658 -5.647,-1.856 -7.849,-3.967 -3.465,-3.322 -4.105,-7.781 -1.771,-12.345 0.793,-1.553 4.402,-5.411 6.213,-6.643 l 1.166,-0.794 1.301,1.075 c 2.226997,1.839 4.320997,2.795 7.907997,3.61 0.862,0.196 2.868,0.297 5.88,0.296 l 4.573,0 -0.511,1.558 c -1.241,3.78 -1.491,7.662 -0.66,10.257 l 0.463,1.443 -0.626,0.574 c -2.25,2.067 -5.556,3.856 -8.683,4.7 -1.836,0.495 -5.533,0.614 -7.403997,0.238 z m -27.003,-0.384 c -8.271,-1.074 -12.286,-6.791 -10.244,-14.589 0.589,-2.248 2.356,-5.638 4.193,-8.046 l 1.712,-2.244 1.163,0.522 c 1.571,0.706 4.831,1.555 7.151,1.863 2.343,0.31 9.053,0.317 11.704,0.01 1.079,-0.124 2.548,-0.294 3.267,-0.378 l 1.306,-0.152 -1.542,1.645 c -1.957,2.086 -2.701,3.093 -3.529,4.78 -2.229,4.544 -1.903,9.176 0.917,13.034 0.309,0.424 0.489,0.842 0.399,0.929 -0.282,0.274 -4.421,1.513 -6.589,1.971 -2.256,0.477 -6.051,0.922 -7.481,0.878 -0.497,-0.01 -1.588,-0.117 -2.427,-0.226 z m 72.088997,-0.443 c 0.1,-0.169 0.583,-0.86 1.079,-1.535 3.531,-4.807 6.42,-11.603 9.111,-21.426 l 0.521,-1.897 -1.985,-0.182 c -1.091,-0.1 -5.855,-0.2 -10.586,-0.223 -8.837,-0.05 -10.597,0.06 -16.214,0.969 -1.433,0.231 -2.642,0.383 -2.686,0.337 -0.05,-0.05 0.377,-0.77 0.939,-1.609 2.754,-4.109 5.022,-10.597 5.759,-16.478 0.331,-2.632 0.598,-6.598 0.451,-6.689 -0.07,-0.04 -3.154,-0.197 -6.868,-0.35 -10.21,-0.422 -15.574,-0.106 -20.852,1.229 -1.211,0.307 -2.246,0.512 -2.3,0.457 -0.06,-0.05 0.313,-2.966 0.815,-6.468 0.502,-3.503 0.853,-6.469 0.779,-6.592 -0.07,-0.122 -0.418,-0.223 -0.764,-0.223 l -0.628,0 0.722,-1.31 c 2.73,-4.949 7.057,-8.499 13.494,-11.07 l 1.766,-0.707 9.749,-14.157 c 5.363,-7.787 9.874,-14.345 10.024,-14.573 0.238,-0.36 1.077,-0.496 6.365,-1.035 5.841,-0.594 6.167,-0.652 7.943,-1.416 2.101,-0.905 2.081,-0.935 -0.327,-0.503 -6.37,1.144 -12.348,0.415 -15.726,-1.919 -3.317,-2.292 -4.841,-6.026 -4.565,-11.188 0.148,-2.781 0.605,-4.842 1.792,-8.09 0.77,-2.107 0.786,-2.213 0.437,-2.762 -1.428,-2.242 -1.574,-4.404 -0.394,-5.84 0.893,-1.089 2.059,-1.527 4.073,-1.533 l 1.732,0 9.228,-4.034 9.228,-4.034 2.373,-0.127 c 8.832,-0.478 15.721,2.905 20.175,9.908 1.303,2.048 3.273,6.168 3.877,8.108 0.211,0.675 0.422,1.297 0.469,1.382 0.05,0.09 0.531,-0.01 1.076,-0.222 0.915,-0.347 0.982,-0.425 0.868,-1.008 -0.07,-0.348 -0.523,-1.654 -1.011,-2.903 -3.877,-9.908 -10.188,-15.65 -18.933,-17.226 -2.362,-0.425 -7.485,-0.426 -10.344,0 -5.973,0.887 -31.811,-0.08 -44.533,-1.676 -11.686997,-1.461 -23.488997,-4.183 -30.486997,-7.03 -1.271,-0.517 -1.865,-0.597 -5.804,-0.777 -5.048,-0.233 -9.577,-0.926 -14.575,-2.23 -9.137,-2.385 -15.964,-5.098 -34.825,-13.836 -5.509,-2.554 -11.78,-5.392 -13.937,-6.309 l -3.9199996,-1.668 -10.016999,-0.96 c -5.509,-0.529 -10.0680004,-1.04 -10.1310004,-1.135 -0.07,-0.1 -2.881,-0.245 -6.261,-0.331 -5.833,-0.151 -6.147,-0.138 -6.147,0.243 0,0.362 -0.155,0.389 -1.579,0.271 -0.868,-0.07 -4.055,-0.307 -7.083,-0.521 l -5.503,-0.39 -1.56,-1.799 c -0.858,-0.99 -1.747,-2.018 -1.977,-2.286 -0.412,-0.48 -0.412,-0.504 0.05,-1.931 l 0.469,-1.446 1.786,0.578 c 1.308,0.423 2.281,0.582 3.636,0.593 2.411,0.01 2.621,-0.118 2.247,-1.447 l -0.287,-1.015 -1.436,0.09 c -1.543,0.101 -3.32,-0.285 -5.655,-1.228 -0.969,-0.391 -1.546,-0.808 -2.164,-1.567 l -0.843,-1.033 0.748,-1.436 c 0.412,-0.789 0.811,-1.475 0.889,-1.524 0.07,-0.05 0.542,0.05 1.035,0.234 1.462,0.529 3.506,0.832 4.585,0.68 1.546,-0.218 1.652,-0.338 1.332,-1.508 l -0.271,-0.991 -1.559,0.09 c -1.209,0.07 -1.953,-0.03 -3.302,-0.443 l -1.742,-0.533 -0.907,-1.765 c -0.991,-1.929 -0.994,-1.875 0.233,-3.324 l 0.748,-0.882 1.097,0.612 c 1.328,0.74 3.086,1.391 5.194,1.92 1.755,0.441 1.634,0.512 1.915,-1.119 l 0.138,-0.798 -1.27,-0.282 c -1.546,-0.343 -4.053,-1.24 -4.895,-1.749 -0.601,-0.365 -0.62,-0.431 -0.62,-2.201 0,-1.3 0.08,-1.857 0.286,-1.938 0.157,-0.06 1.434,0.376 2.838,0.972 4.825,2.048 10.523,3.736 15.532,4.601 3.29,0.568 11.258,0.573 14.2260004,0.01 2.485,-0.472 5.444,-1.337 7.488,-2.188 l 1.49900004,-0.625 11.44599856,7.911 11.445,7.91 8.727,0 c 8.805,0 13.423,0.198 18.41,0.787 14.446,1.708 25.751,6.659 36.775,16.106 l 1.824,1.563 1.987,-0.418 c 5.999,-1.261 14.460997,-2.543 21.149997,-3.204 5.004,-0.494 18.079,-0.688 23.132,-0.343 10.819,0.739 21.271,2.677 30.143,5.589 1.465,0.481 2.769,0.814 2.896,0.739 0.127,-0.08 4.929,-3.303 10.671,-7.175 9.168,-6.181 10.573,-7.058 11.541,-7.2 1.715,-0.251 9.048,-0.221 10.915,0.05 4.548,0.649 9.314,2.896 12.477,5.885 l 0.955,0.902 0.755,-0.89 0.754,-0.891 -1.053,-0.964 c -1.246,-1.14 -4.095,-3.112 -5.626,-3.896 -1.158,-0.592 -3.774,-1.559 -5.243,-1.938 l -0.886,-0.229 0.07,-1.843 c 0.03,-1.014 0.129,-4.228 0.204,-7.143 l 0.135,-5.3 1.336,-0.825 c 1.505,-0.929 3.624,-2.511 3.624,-2.707 0,-0.07 -0.26,-0.513 -0.578,-0.982 -0.503,-0.746 -0.625,-0.818 -0.958,-0.57 -4.003,2.978 -7.28,4.561 -11.206,5.414 -2.299,0.498 -3.026,0.433 -4.789,-0.437 -2.044,-1.007 -3.608,-2.458 -4.271,-3.962 -0.463,-1.05 -0.516,-1.47 -0.487,-3.856 0.02,-1.473 0.123,-2.979 0.233,-3.348 0.188,-0.626 0.289,-0.68 1.588,-0.828 3.607,-0.412 7.397,-2.287 10.645,-5.267 l 1.174,-1.078 -1.132,-1.595 c -2.634,-3.712 -5.259,-5.309 -10.526,-6.405 l -0.6,-0.124 0.141,-3.196 0.142,-3.196 -2.046,-0.145 c -2.989,-0.211 -5.015,-0.931 -5.717,-2.028 -0.521,-0.816 -0.453,-2.484 0.158,-3.813 0.867,-1.893 2.471,-3.867 6.316,-7.775 l 3.697,-3.757 -0.348,-5.231 -0.348,-5.231 0.545,-1.375 c 1.423,-3.589 3.981,-8.222 6.675,-12.089 1.42,-2.039 1.566,-2.181 1.831,-1.791 2.113,3.093 3.426,4.554 9.228,10.256 5.213,5.124 9.005,13.448 10.315,22.64 0.761,5.342 0.662,12.763 -0.247,18.637 -0.468,3.023 -0.458,9.786 0.02,13.614 0.999,7.996 2.563,13.79 6.78,25.109 4.437,11.914 6.174,22.261 5.913,35.239 -0.207,10.296 -1.547,18.787 -4.845,30.712 -2.945,10.647 -6.882,21.174 -16.884,45.141 l -1.141,2.732 -2.199,1.206 c -19.302,10.585 -34.96,25.949 -46.089,45.224 l -1.573,2.725 0.248,3.49 c 0.137,1.92 0.248,4.504 0.248,5.745 0,4.762 -0.752,11.137 -1.811,15.377 l -0.503,2.008 -1.535,0.142 c -0.844,0.08 -3.473,0.217 -5.841,0.308 -3.63,0.139 -4.28,0.116 -4.13,-0.143 z m -56.587997,-160.807 c 0.904,-0.44 1.222,-0.748 1.602,-1.553 0.421,-0.89 0.447,-1.12 0.226,-2.017 -0.523,-2.127 -2.374,-4.12 -5.415,-5.828 -2.167,-1.216 -4.278,-1.869 -6.524,-2.015 l -1.796,-0.118 0,1.148 0,1.147 0.938,0 c 1.451,0 4.453,0.855 6.139,1.75 2.574,1.365 4.807,3.93 4.39,5.043 -0.437,1.169 -5.338,1.031 -10.878,-0.305 -1.052,-0.254 -1.997,-0.461 -2.098,-0.461 -0.102,0 -0.251,0.358 -0.331,0.796 -0.08,0.438 -0.196,0.929 -0.256,1.091 -0.08,0.214 0.56,0.451 2.353,0.871 5.942,1.391 9.439,1.526 11.65,0.451 z m 116.437997,-82.994 c 4.297,-0.177 7.847,-0.359 7.891,-0.403 0.09,-0.1 -4.367,-3.796 -5.904,-4.897 -0.599,-0.429 -2.079,-1.344 -3.29,-2.034 -1.211,-0.69 -2.338,-1.423 -2.504,-1.629 -0.422,-0.52 -1.563,-0.975 -2.446,-0.975 -0.409,0 -1.159,-0.151 -1.668,-0.335 -0.509,-0.184 -0.992,-0.335 -1.073,-0.335 -0.08,0 -0.354,0.438 -0.608,0.973 -0.454,0.958 -0.455,0.98 -0.05,1.399 0.41,0.42 0.409,0.446 -0.04,1.65 -0.693,1.868 -1.032,4.014 -0.831,5.269 0.1,0.598 0.18,1.213 0.188,1.366 0.02,0.356 0.574,0.353 10.329,-0.05 z m -3.115,-2.989 c 0.23,-0.442 0.479,-1.132 0.553,-1.533 0.07,-0.401 0.199,-0.729 0.278,-0.729 0.296,0 4.263,2.747 4.053,2.805 -0.12,0.03 -1.362,0.106 -2.761,0.16 l -2.544,0.1 0.421,-0.803 z m -4.17,-0.386 c -0.494,-0.61 -0.382,-2.553 0.195,-3.383 0.713,-1.023 1.682,-1.023 2.1,0 0.462,1.132 0.03,2.89 -0.863,3.567 -0.376,0.283 -1.132,0.186 -1.432,-0.184 z m 15.043,-5.597 c 0,-0.328 0.169,-0.788 0.376,-1.022 0.36,-0.409 0.332,-0.464 -0.708,-1.414 -2.835,-2.588 -6.303,-4.697 -8.815,-5.359 -2.429,-0.641 -6.752,-0.372 -6.749,0.421 0,0.149 0.106,0.657 0.234,1.129 0.201,0.741 0.297,0.838 0.707,0.708 1.17,-0.373 3.777,-0.384 5.158,-0.02 2.414,0.634 5.397,2.502 8.172,5.118 1.247,1.176 1.625,1.279 1.625,0.441 z m -163.323997,237.182 c -2.996,-0.82 -6.085,-2.749 -9.034,-5.643 l -1.31,-1.285 0.979,-0.925 c 3.324,-3.138 11.957,-10.205 16.846,-13.79 2.124,-1.558 2.173,-1.554 2.428,0.193 0.219,1.499 1.555,4.825 2.607,6.492 0.896,1.417 3.005,3.698 4.102,4.436 l 0.55,0.37 -1.627,2.228 c -2.024,2.77 -2.412,3.194 -4.408,4.834 -3.712,3.051 -7.466,4.093 -11.133,3.09 z m 185.178997,-5.456 c -13.68,-8.272 -20.21,-20.121 -19.063,-34.588 0.374,-4.715 1.314,-9.389 2.77,-13.778 0.294,-0.885 0.503,-1.64 0.465,-1.679 -0.04,-0.04 -0.492,0.955 -1.009,2.208 -4.192,10.16 -5.329,19.021 -3.571,27.844 1.19,5.973 4.532,13.26 8.815,19.222 0.584,0.813 1.061,1.533 1.061,1.6 0,0.243 -4.044,-2.138 -6.278,-3.696 -2.549,-1.779 -5.675,-4.821 -7.392,-7.194 -3.605,-4.98 -5.232,-11.111 -4.979,-18.747 0.189,-5.68 0.876,-9.863 3.085,-18.784 1.029,-4.153 1.457,-5.417 3.555,-10.49 10.576,-25.57 13.266,-32.775 16.36,-43.821 3.628,-12.946 5.09,-22.649 5.096,-33.813 0,-12.56 -1.811,-22.421 -6.398,-34.706 -4.084,-10.936 -5.915,-18.209 -6.549,-26.001 -0.308,-3.793 -0.16,-8.785 0.36,-12.165 0.577,-3.745 0.588,-14.649 0.02,-18.301 -1.277,-8.185 -4.289,-15.59 -8.526,-20.957 -1.643,-2.081 -2.55,-3.015 -4.844,-4.992 -3.085,-2.656 -6.473,-7.062 -8.28,-10.766 -0.975,-2 -1.949,-5.091 -2.355,-7.476 -0.845,-4.96 0.485,-10.315 3.174,-12.793 1.968,-1.812 7.223,-4.233 11.713,-5.397 4.708,-1.219 7.508,-1.528 13.983,-1.54 6.192,-0.01 7.971,0.127 14.288,1.113 6.311,0.985 9.139,1.71 11.652,2.985 3.776,1.916 6.3,3.802 9.564,7.144 2.148,2.2 3.381,3.686 4.541,5.474 4.981,7.681 7.797,17.225 8.754,29.668 0.326,4.241 0.141,15.617 -0.337,20.773 -1.342,14.464 -4.823,31.997 -10.014,50.441 -3.599,12.788 -6.663,32.77 -8.28,54.012 -1.312,17.219 -1.993,46.518 -1.425,61.265 0.546,14.171 3.519,22.857 8.485,24.791 2.94,1.145 7.105,-0.226 11.864,-3.906 l 1.83,-1.414 0.157,1.926 c 0.197,2.413 -0.03,7.89 -0.451,10.937 -1.09,7.866 -4.046,14.118 -8.182,17.305 -2.846,2.192 -4.967,2.922 -8.475,2.915 -3.863,0 -7.045,-1.143 -10.794,-3.855 -2.638,-1.909 -6.111,-5.781 -7.946,-8.859 l -0.532,-0.893 -0.07,0.637 c -0.109,0.967 0.547,3.677 1.266,5.234 1.319,2.859 3.868,5.468 7.397,7.569 0.664,0.396 1.109,0.722 0.989,0.725 -0.425,0.01 -4.818,-1.128 -6.533,-1.697 -4.186,-1.388 -8.84,-4.221 -10.974,-6.679 -3.633,-4.185 -5.137,-8.673 -5.129,-15.31 l 0,-3.496 -0.422,0.706 c -2.82,4.714 -2.687,9.992 0.416,16.631 1.329,2.843 1.678,3.455 5.548,9.741 3.171,5.151 3.761,6.139 3.661,6.134 -0.04,0 -0.968,-0.545 -2.062,-1.207 z m -124.641,0.845 c -4.82,-0.461 -8.21,-1.919 -10.448997,-4.494 -2.186,-2.514 -3.345,-5.984 -3.725,-11.156 -0.124,-1.683 -0.257,-3.09 -0.296,-3.131 -0.04,-0.04 -1.234,-0.165 -2.654,-0.278 -6.916,-0.549 -10.858,-3.22 -13.751,-9.316 -0.54,-1.137 -0.944,-2.1 -0.896,-2.138 0.441,-0.354 3.621,-2.006 6.532,-3.394 4.422,-2.109 9.146,-4.064 13.199,-5.464 l 3.092997,-1.069 -0.105,0.594 c -0.161,0.912 -2.270997,15.861 -2.270997,16.096 0,0.114 0.978,-0.142 2.173997,-0.568 6.18,-2.2 12.312,-2.765 24.23,-2.233 l 4.082,0.182 0,1.093 c 0,2.568 -1.032,7.882 -2.184,11.246 -1.456,4.252 -3.309,7.518 -6.433,11.345 -1.771,2.168 -1.898,2.276 -2.878,2.412 -1.464,0.205 -6.508,0.384 -7.668,0.273 z m -32.554997,-4.127 c -4.242,-0.543 -8.266,-2.149 -10.813,-4.316 -2.433,-2.07 -4.356,-5.509 -5.098,-9.117 -0.531,-2.581 -0.728,-2.282 3.226,-4.907 3.575,-2.373 10.93,-6.851 11.254,-6.851 0.09,0 0.388,0.526 0.649,1.172 1.105,2.734 3.233,5.72 5.354,7.512 2.293,1.937 5.946,3.44 9.028,3.714 2.492,0.222 2.329,0.09 2.499,2.088 0.236,2.766 0.887,5.637 1.733,7.643 0.426,1.011 0.739,1.874 0.695,1.919 -0.15,0.154 -3.942,0.726 -7.035,1.06 -3.324,0.36 -9.012,0.4 -11.492,0.08 z m -99.718999,-117.841 c 0.263,-2.458 -0.467,-5.474 -2.314,-9.571 -1.656,-3.675 -2.217,-5.889 -2.233,-8.816 -0.02,-3.146 0.467,-4.839 2.216,-7.767 1.367,-2.29 1.864,-3.662 2.283,-6.295 0.141,-0.888 -0.228,-3.872 -0.619,-5.008 l -0.312,-0.906 5.202,0 c 4.767,0 5.212,0.03 5.315,0.391 0.297,1.031 0.376,3.696 0.153,5.198 -0.524,3.523 -1.599,5.735 -4.205,8.645 -1.584,1.769 -2.827,4.027 -3.36,6.104 -0.379,1.479 -0.458,4.451 -0.281,10.686 0.08,2.961 0.07,3.048 -0.652,5.133 -0.406,1.166 -0.87,2.422 -1.033,2.789 -0.278,0.633 -0.286,0.601 -0.16,-0.583 z m 214.914996,-53.354 1.304,-5.282 1.913,-0.359 c 1.544,-0.29 4.425,-1.099 5.697,-1.6 0.245,-0.1 0.245,0.879 0,8.506 l -0.131,4.017 -5.042,0 -5.042,0 1.305,-5.282 z m -211.121996,-13.483 c -7.532,-0.907 -12.754,-2.298 -19.598,-5.218 -1.715,-0.733 -3.199,-1.28 -3.298,-1.218 -0.1,0.06 -0.794,-0.308 -1.545,-0.825 -8.97,-6.177 -14.588,-14.807 -15.39,-23.643 -0.589,-6.491 1.398,-12.237 5.671,-16.407 1.609,-1.569 2.806,-2.439 4.713,-3.423 1.658,-0.856 4.789,-1.943 6.2,-2.152 0.569,-0.08 1.035,-0.195 1.035,-0.245 0,-0.09 -7.113,-10.515 -7.424,-10.879 -0.1,-0.113 -1.879,-0.02 -4.157,0.213 -3.007,0.308 -5.872,0.412 -11.629,0.419 l -7.64,0.01 -0.943,-0.67 c -4.328,-3.067 -6.641,-7.706 -5.9,-11.829 0.548,-3.044 2.585,-5.686 5.464,-7.085 2.059,-1.002 3.393,-1.284 6.062,-1.284 2.058,0 2.196,0.03 4.725,1.128 4.47,1.935 7.948,4.068 10.989,6.736 2.746,2.412 4.466,4.72 5.903,7.924 0.483,1.076 0.999,2.206 1.148,2.514 0.149,0.306 2.152,3.072 4.451,6.144 l 4.18,5.588 4.252,0.86 c 2.338,0.473 4.308,0.802 4.376,0.731 0.07,-0.07 0.05,-2.693 -0.03,-5.828 l -0.16,-5.701 -1.115,-0.864 c -4.312,-3.346 -8.344,-8.207 -10.591,-12.767 -1.86,-3.777 -3.698,-10.239 -3.698,-13.002 0,-4.462 1.513,-9.275 3.726,-11.851 1.759,-2.048 4.428,-3.208 6.798,-2.955 1.558,0.167 3.977,1.304 5.352,2.514 2.717,2.393 5.759,7.833 6.409,11.464 0.795,4.438 0.896,5.617 0.896,10.49 0,6.345 -0.465,9.46 -2.292,15.359 l -0.644,2.079 0.06,5.509 0.06,5.509 3.048,0.12 c 1.677,0.07 3.115,0.07 3.196,0 0.08,-0.07 0.218,-2.704 0.304,-5.864 l 0.156,-5.745 -0.586,-0.867 c -1.165,-1.723 -1.511,-3.04 -1.501,-5.722 0.02,-3.696 0.977,-7.431 3.537,-13.726 1.477,-3.631 5.8270004,-12.332 7.3200004,-14.642 1.561,-2.414 3.58,-4.318 5.701,-5.378 1.60900004,-0.803 1.79300004,-0.843 3.867999,-0.846 2.001,0 2.296,0.05 3.652,0.714 2.645,1.284 4.5399996,3.841 5.3019996,7.151 0.671,2.918 0.03,7.573 -1.458,10.573 -0.4809996,0.971 -10.51999856,13.408 -13.4689986,16.687 -2.342,2.604 -5.452,5.382 -7.4190004,6.626 l -1.312,0.83 0.118,2.478 c 0.07,1.363 0.174,3.521 0.242,4.795 l 0.126,2.318 1.447,-0.13 c 0.7960004,-0.07 3.3720004,-0.252 5.7260004,-0.402 l 4.27900004,-0.271 0.1,-7.273 c 0.09,-6.484 0.147,-7.458 0.552,-8.98 0.77999996,-2.931 2.18699896,-5.175 3.96699896,-6.327 6.3819996,-4.129 14.5659996,-7.241 24.6959996,-9.39 2.467,-0.523 2.98,-0.568 4.194,-0.362 4.906,0.834 7.707,4.725 7.422,10.31 -0.134,2.611 -0.712,4.282 -1.973,5.7 l -0.912,1.025 -16.929,4.186 c -9.311,2.303 -16.9669996,4.23 -17.0129996,4.282 -0.05,0.05 -0.151,1.3 -0.233,2.773 l -0.149,2.679 1.739,1.173 c 3.177,2.142 5.8309996,5.179 7.4329996,8.505 1.705,3.541 2.269,6.233 2.252,10.744 0,2.609 -0.122,3.755 -0.577,5.915 -1.757,8.347 -5.8579996,15.994 -12.4689986,23.251 l -2.27299996,2.495 -2.23100004,0.873 c -2.681,1.048 -4.204,1.484 -6.805,1.948 -1.9080004,0.339 -7.9430004,0.612 -9.4720004,0.429 z m -31.413,-66.939 c 0.27,-0.426 0.49,-0.863 0.49,-0.97 0,-0.349 -6.217,-4.48 -8.089,-5.375 -3.573,-1.707 -6.06,-2.303 -9.768,-2.337 l -2.286,-0.02 -0.07,1.172 -0.07,1.172 2.026,0 c 5.148,0.01 8.611,1.276 14.051,5.133 1.53,1.086 2.88,1.979 3,1.986 0.12,0 0.439,-0.336 0.708,-0.762 z m 25.945,-0.315 c 0.245,-0.159 0.274,-0.629 0.149,-2.396 -0.667,-9.457 -3.057,-19.493 -6.413,-26.939 l -0.88,-1.95 -0.934,0.483 c -0.515,0.266 -0.962,0.506 -0.993,0.533 -0.03,0.02 0.371,1.044 0.893,2.26 3.229,7.521 5.172,15.65 6.023,25.2 0.12,1.35 0.219,2.58 0.219,2.734 0,0.324 1.466,0.38 1.936,0.08 z m 32.1389994,-2.671 c 1.152,-1.263 3.4029996,-2.929 5.2309996,-3.874 2.629,-1.357 8.951,-3.349 13.344,-4.205 0.751,-0.147 1.396,-0.328 1.434,-0.403 0.04,-0.08 -0.02,-0.576 -0.133,-1.112 l -0.199,-0.976 -1.124,0.154 c -1.877,0.255 -8.393,2.03 -10.708,2.916 -5.11,1.955 -8.5369996,4.302 -10.7179996,7.34 l -0.947,1.318 0.933,0.635 0.932,0.635 0.431,-0.614 c 0.236,-0.337 0.922,-1.153 1.524,-1.814 z m -18.9329994,0.03 c 1.2110004,-5.761 2.2820004,-9.248 3.9110004,-12.727 1.683,-3.594 3.355,-6.098 5.693,-8.525 1.12100004,-1.164 2.03600004,-2.17 2.03300004,-2.234 0,-0.06 -0.303,-0.45 -0.666,-0.858 l -0.658,-0.743 -0.97100004,0.816 c -3.246,2.726 -6.683,7.969 -8.6550004,13.2 -1.281,3.399 -3.455,11.943 -3.127,12.281 0.122,0.125 1.324,0.453 1.819,0.498 0.15,0.01 0.408,-0.699 0.621,-1.708 z m 198.703996,58.72 0,-1.906 2.94,0.08 2.94,0.08 0,-1.138 0,-1.139 -2.878,-0.155 c -1.583,-0.09 -2.901,-0.179 -2.927,-0.206 -0.03,-0.03 0,-0.833 0.08,-1.789 l 0.128,-1.738 0.893,0.14 c 2.7,0.427 5.089,1.675 6.899,3.606 l 1.345,1.436 -0.518,0.566 c -1.369,1.494 -5.654,3.589 -8.085,3.95 l -0.817,0.122 0,-1.905 z m -2.26,-45.34 c -0.336,-0.554 -0.615,-5.471 -0.504,-8.86 0.277,-8.487 2.394,-15.774 6.354,-21.872 1.194,-1.838 3.721,-4.771 3.509,-4.072 -0.733,2.414 -0.707,7.564 0.05,10.556 0.528,2.08 1.338,4.357 2.091,5.881 l 0.528,1.067 -1.84,2.628 c -3.184,4.549 -5.572,8.791 -7.062,12.546 -0.706,1.779 -0.747,1.83 -1.656,2.065 -1.114,0.287 -1.332,0.296 -1.474,0.06 z"
       id="path16534-9"
       inkscape:connector-curvature="0" />
  </g>
</svg>
