<?xml version="1.0" encoding="UTF-8" standalone="no"?>
<!-- Created with Inkscape (http://www.inkscape.org/) -->

<svg
   xmlns:dc="http://purl.org/dc/elements/1.1/"
   xmlns:cc="http://creativecommons.org/ns#"
   xmlns:rdf="http://www.w3.org/1999/02/22-rdf-syntax-ns#"
   xmlns:svg="http://www.w3.org/2000/svg"
   xmlns="http://www.w3.org/2000/svg"
   xmlns:sodipodi="http://sodipodi.sourceforge.net/DTD/sodipodi-0.dtd"
   xmlns:inkscape="http://www.inkscape.org/namespaces/inkscape"
   width="428.12891"
   height="452.17798"
   id="svg23180"
   version="1.1"
   inkscape:version="0.48.4 r9939"
   sodipodi:docname="Nieuw document 91">
  <defs
     id="defs23182" />
  <sodipodi:namedview
     id="base"
     pagecolor="#ffffff"
     bordercolor="#666666"
     borderopacity="1.0"
     inkscape:pageopacity="0.0"
     inkscape:pageshadow="2"
     inkscape:zoom="0.35"
     inkscape:cx="240.49302"
     inkscape:cy="186.089"
     inkscape:document-units="px"
     inkscape:current-layer="layer1"
     showgrid="false"
     fit-margin-top="0"
     fit-margin-left="0"
     fit-margin-right="0"
     fit-margin-bottom="0"
     inkscape:window-width="1600"
     inkscape:window-height="837"
     inkscape:window-x="-8"
     inkscape:window-y="-8"
     inkscape:window-maximized="1" />
  <metadata
     id="metadata23185">
    <rdf:RDF>
      <cc:Work
         rdf:about="">
        <dc:format>image/svg+xml</dc:format>
        <dc:type
           rdf:resource="http://purl.org/dc/dcmitype/StillImage" />
        <dc:title></dc:title>
      </cc:Work>
    </rdf:RDF>
  </metadata>
  <g
     inkscape:label="Laag 1"
     inkscape:groupmode="layer"
     id="layer1"
     transform="translate(-134.50698,-266.27319)">
    <path
       style="fill:#ffca00;fill-opacity:1"
       d="m 198.07428,718.38168 c -0.034,-0.0374 -0.062,-1.82316 -0.062,-3.96881 l 0,-3.9011 -1.4292,0 -1.4292,0 0,3.91746 0,3.91747 -1.4292,0 -1.4291,0 0,-3.91747 0,-3.91746 -1.5185,0 -1.5185,0 0,3.91746 0,3.91747 -1.4292,0 -1.4291,0 0,-3.91993 0,-3.91994 -1.4069,0.0268 -1.4068,0.0268 -0.023,3.89299 -0.023,3.89299 -1.4282,0 -1.4281,0 0,-3.92015 0,-3.92014 -1.2729,0.0268 -1.2728,0.0275 -0.023,3.89299 -0.023,3.89299 -1.4283,0 -1.4281,0 0,-3.91747 0,-3.91746 -1.4728,0 -1.4728,0 -0.023,3.89299 -0.023,3.89292 -1.4292,0 -1.4292,0 -0.023,-3.89292 -0.023,-3.89299 -1.3834,0 -1.3835,0 0,3.91746 0,3.91747 -1.4282,0 -1.4281,0 -0.023,-3.89299 -0.023,-3.89299 -14.2247,-0.0247 -14.2247,-0.0247 0,-13.417 0,-13.41693 12.5945,0 12.5946,0 0,-19.68516 0,-19.68515 -12.5946,0 -12.5945,0 0,-13.41729 0,-13.41728 12.5945,0 12.5946,0 0,-14.15176 0,-14.15175 -12.2373,0 -12.2372,0 0,-13.41729 0,-13.41721 12.2372,0 12.2373,0 0,-14.20078 0,-14.20077 -12.9519,0 -12.9518,0 0,-13.36827 0,-13.36826 12.9518,0 12.9519,0 0,-13.75972 0,-13.75966 -12.6616,-0.0247 -12.6615,-0.0247 -0.023,-13.39281 -0.023,-13.39274 12.6841,0 12.6842,0 0,-13.90693 0,-13.90693 -12.4159,0 -12.4159,0 0,-13.41729 0,-13.41721 12.4159,0 12.4159,0 0,-16.25741 0,-16.25742 -12.4159,0 -12.4159,0 0,-13.36834 0,-13.36826 12.4159,0 12.4159,0 0,-15.66979 0,-15.66979 -12.2819,0 -12.2819,0 0,-13.41721 0,-13.41729 14.0237,0 14.0237,0 0,-7.14933 0,-7.14934 1.4292,0 1.4292,0 0,7.14934 0,7.14933 1.4291,0 1.4292,0 0,-7.19828 0,-7.19836 1.4292,0 1.4291,0 0,7.19836 0,7.19828 1.4739,0 1.4738,0 0,-7.14933 0,-7.14934 1.4738,0 1.4738,0 0,7.14934 0,7.14933 1.2506,0 1.2505,0 0,-7.14933 0,-7.14934 1.4738,0 1.4739,0 0,7.14934 0,7.14933 1.3845,0 1.3845,0 0,-7.20075 0,-7.20069 1.4515,0.0268 1.4515,0.0268 0.023,7.17382 0.023,7.1738 1.4733,0 1.4732,0 0,-7.14933 0,-7.14934 1.4292,0 1.4291,0 0,7.15174 0,7.1518 1.4515,-0.0268 1.4515,-0.0268 0.023,-7.12485 0.023,-7.12486 1.4286,0 1.4286,0 0,7.14934 0,7.14932 1.3845,0 1.3845,0 0,-7.14932 0,-7.14934 1.4738,0 1.4738,0 0,7.14934 0,7.14932 1.4739,0 1.4739,0 0,-7.14932 0,-7.14934 1.4285,0 1.4286,0 0.023,7.12486 0.023,7.12485 1.4068,0.0268 1.4069,0.0268 0,-7.15187 0,-7.15181 1.4291,0 1.4292,0 0,7.14934 0,7.14933 1.4292,0 1.4291,0 0,-7.19828 0,-7.19836 1.4292,0 1.4292,0 0,7.19836 0,7.19828 1.5185,0 1.5185,0 0,-7.14933 0,-7.14934 1.4291,0 1.4292,0 0,7.14934 0,7.14933 1.3398,0 1.3399,0 0,-7.14933 0,-7.14934 1.4285,0 1.4287,0 0.023,7.12487 0.023,7.12485 1.4068,0.0268 1.4069,0.0268 0,-7.15187 0,-7.15181 1.4291,0 1.4292,0 0,7.14934 0,7.14933 1.5185,0 1.5185,0 0,-7.14933 0,-7.14934 1.4292,0 1.4291,0 0,7.14934 0,7.14933 1.2952,0 1.2952,0 0,-7.14933 0,-7.14934 1.4292,0 1.4291,0 0,7.15181 0,7.15187 1.4069,-0.0268 1.4068,-0.0268 0.023,-7.12485 0.023,-7.12487 1.4285,0 1.4286,0 0,7.14934 0,7.14933 1.4739,0 1.4738,0 0,-7.14933 0,-7.14934 1.4738,0 1.4739,0 0,7.14934 0,7.14933 1.4291,0 1.4292,0 0,-7.10038 0,-7.10038 1.4292,0 1.4291,0 0,7.10038 0,7.10038 1.4292,0 1.4292,0 0,-7.14933 0,-7.14934 1.4291,0 1.4292,0 0,7.14934 0,7.14933 1.4738,0 1.4739,0 0,-7.10038 0,-7.10038 1.4738,0 1.4738,0 0,7.10038 0,7.10038 1.3845,0 1.3845,0 0,-7.14933 0,-7.14934 1.4739,0 1.4738,0 0,7.14934 0,7.14933 1.3845,0 1.3845,0 0,-7.14933 0,-7.14934 1.4739,0 1.4738,0 0,7.14934 0,7.14933 1.4738,0 1.4738,0 0,-7.14933 0,-7.14934 1.4292,0 1.4292,0 0,7.14934 0,7.14933 1.5185,0 1.5185,0 0,-7.10038 0,-7.10038 1.4286,0 1.4285,0 0.023,7.07591 0.023,7.0759 1.4068,0.0268 1.4069,0.0268 0,-7.15187 0,-7.15181 1.4291,0 1.4292,0 0,7.14934 0,7.14933 1.5185,0 1.5185,0 0,-7.10038 0,-7.10039 1.4291,0 1.4292,0 0,7.10039 0,7.10038 1.2952,0 1.2952,0 0,-7.10038 0,-7.10039 1.4292,0 1.4291,0 0,7.10293 0,7.10285 1.4069,-0.0268 1.4068,-0.0268 0.023,-7.12485 0.023,-7.12487 1.4287,0 1.4285,0 0,7.14934 0,7.14933 1.4738,0 1.4739,0 0,-7.10038 0,-7.10038 1.4738,0 1.4738,0 0,7.10038 0,7.10038 1.3845,0 1.3846,0 0,-7.19828 0,-7.19836 1.4738,0 1.4738,0 0,7.19836 0,7.19828 1.2505,0 1.2506,0 0,-7.19828 0,-7.19836 1.4291,0 1.4292,0 0,7.19836 0,7.19828 1.6971,0 1.6972,0 0,-7.14933 0,-7.14934 1.4291,0 1.4293,0 0,7.14934 0,7.14933 1.3845,0 1.3845,0 0,-7.10038 0,-7.10038 1.4738,0 1.4739,0 0,7.10038 0,7.10038 1.3838,0 1.384,0 0.023,-7.12485 0.023,-7.12487 1.4292,0 1.4292,0 0.023,7.12487 0.023,7.12485 1.4732,0 1.4733,0 0,-7.10038 0,-7.10038 1.4292,0 1.4292,0 0,7.10038 0,7.10038 1.3845,0 1.3845,0 0,-7.14933 0,-7.14934 1.4291,0 1.4292,0 0,7.14934 0,7.14933 1.4292,0 1.4292,0 0,-7.19828 0,-7.19836 1.4291,0 1.4292,0 0,7.19836 0,7.19828 1.4738,0 1.4738,0 0,-7.14933 0,-7.14934 1.4739,0 1.4738,0 0,7.14934 0,7.14933 1.2505,0 1.2506,0 0,-7.14933 0,-7.14934 1.4738,0 1.4738,0 0,7.14934 0,7.14933 1.3845,0 1.3845,0 0,-7.20075 0,-7.20068 1.4515,0.0268 1.4515,0.0268 0.023,7.17381 0.023,7.17381 1.4732,0 1.4733,0 0,-7.14933 0,-7.14934 1.4291,0 1.4292,0 0,7.14934 0,7.14933 1.4286,0 1.4286,0 0.023,-7.12486 0.023,-7.12486 1.4515,-0.0268 1.4515,-0.0268 0,7.1518 0,7.15173 1.3845,0 1.3845,0 0,-7.14933 0,-7.14934 1.4739,0 1.4738,0 0,7.14934 0,7.14933 1.4738,0 1.4739,0 0,-7.14933 0,-7.14934 1.4291,0 1.4292,0 0,7.14934 0,7.14933 1.4292,0 1.4291,0 0,-7.14933 0,-7.14934 1.4292,0 1.4292,0 0,7.14934 0,7.14933 1.4291,0 1.4292,0 0,-7.19828 0,-7.19836 1.4292,0 1.4291,0 0,7.20069 0,7.20068 1.4962,-0.0268 1.4962,-0.0268 0.023,-7.12485 0.023,-7.12487 1.4286,0 1.4286,0 0,7.14934 0,7.14933 1.3398,0 1.3399,0 0,-7.14933 0,-7.14934 1.4291,0 1.4292,0 0,7.14934 0,7.14933 1.4292,0 1.4292,0 0,-7.19828 0,-7.19836 1.4291,0 1.4292,0 0,7.20069 0,7.20068 1.4962,-0.0268 1.4961,-0.0268 0.023,-7.12485 0.023,-7.12487 1.4286,0 1.4285,0 0,7.15202 0,7.15201 1.2729,-0.0275 1.2728,-0.0268 0.023,-7.12485 0.023,-7.12487 1.4286,0 1.4286,0 0,7.14934 0,7.14933 1.3839,0 1.3839,0 0.023,-7.1738 0.023,-7.17382 1.4291,0 1.4292,0 0.023,7.17382 0.023,7.1738 1.4733,0 1.4732,0 0,-7.14933 0,-7.14934 1.4287,0 1.4285,0 0.023,7.12487 0.023,7.12485 1.4515,0.0268 1.4515,0.0268 0,-7.1518 0,-7.15174 1.4292,0 1.4292,0 0,7.14934 0,7.14933 1.3839,0 1.3839,0 0.023,-7.12485 0.023,-7.12487 1.4515,-0.0268 1.4515,-0.0268 0,7.15181 0,7.15173 1.4733,0 1.4732,0 0.023,-7.12485 0.023,-7.12487 1.4292,0 1.4292,0 0.023,7.12487 0.023,7.12485 1.3839,0 1.3839,0 0,-7.14933 0,-7.14934 1.4739,0 1.4738,0 0,7.14934 0,7.14933 1.3845,0 1.3845,0 0,-7.19828 0,-7.19836 1.4292,0 1.4292,0 0,7.19836 0,7.19828 1.5185,0 1.5184,0 0,-7.14933 0,-7.14934 1.4292,0 1.4292,0 0,7.14934 0,7.14933 1.3392,0 1.3393,0 0.023,-7.22276 0.023,-7.22283 1.4291,0 1.4292,0 0.023,7.22283 0.023,7.22276 1.384,0 1.384,0 0,-7.24723 0,-7.24731 1.4738,0 1.4738,0 0,7.24731 0,7.24723 1.4739,0 1.4738,0 0,-7.24723 0,-7.24731 1.4291,0 1.4292,0 0,7.24731 0,7.24723 1.2952,0 1.2952,0 0,-7.24723 0,-7.24731 1.4292,0 1.4291,0 0,7.24731 0,7.24723 1.4292,0 1.4292,0 0,-7.24723 0,-7.24731 1.4291,0 1.4292,0 0,7.24964 0,7.24963 1.4962,-0.0268 1.4961,-0.0268 0.023,-7.22283 0.023,-7.22276 1.4285,0 1.4286,0 0,7.24731 0,7.24723 1.4292,0 1.4292,0 0,-7.19828 0,-7.19836 1.4285,0 1.4286,0 0.023,7.17388 0.023,7.17381 1.4068,0.0268 1.4069,0.0268 0,-7.20082 0,-7.20083 1.4291,0 1.4292,0 0,7.19836 c 0,7.13297 0,7.19828 0.1787,7.19828 0.119,0 0.1786,0.0656 0.1786,0.19587 0,0.19376 0.06,0.19588 5.538,0.19588 l 5.5381,0 0,1.46901 0,1.46909 -5.5381,0 -5.538,0 0,1.42006 0,1.42006 5.538,0 5.5381,0 0,1.46909 0,1.46901 -5.5381,0 -5.538,0 0,1.46902 0,1.46908 5.4934,0 5.4933,0 0,1.46902 0,1.46908 -5.4933,0 -5.4934,0 0,1.45321 0,1.45329 2.6127,0.0642 c 1.437,0.0353 3.8889,0.0649 5.4487,0.0649 l 2.836,0 0,1.48382 0,1.48376 -5.4487,-0.0712 -5.4487,-0.0713 0,1.41329 0,1.41322 0.6834,0.0635 c 0.3758,0.0346 2.8278,0.0635 5.4487,0.0635 l 4.7653,0 0,1.48227 0,1.4822 -5.4487,-0.0451 c -2.9968,-0.0247 -5.4487,-0.008 -5.4487,0.036 0,0.0444 -0.1005,0.0809 -0.2233,0.0809 l -0.2233,0 0,1.22419 0,1.22419 5.672,0 5.672,0 0,1.46901 0,1.46909 -5.6743,0 -5.6744,0 0.025,1.49349 0.025,1.49356 5.6497,0.0254 5.6497,0.0254 0,1.46831 0,1.46831 -5.6721,0 -5.672,0 0,1.42006 0,1.42007 5.672,0 5.6721,0 0,1.46908 0,1.46902 -5.6721,0 -5.672,0 0,1.37111 0,1.37111 5.7167,0 5.7167,0 0,1.46902 0,1.46908 -5.719,0 -5.719,0 0.025,1.49349 0.025,1.49356 5.6944,0.0254 5.6944,0.0254 0,1.16227 c 0,0.63925 -0.025,1.29994 -0.056,1.4683 l -0.056,0.30605 -5.6609,0 -5.6609,0 0,1.1787 c 0,0.92005 0.032,1.23159 0.1443,1.42006 l 0.1442,0.24137 5.5725,0 5.5724,0 0,1.46901 0,1.46909 -5.6298,0 -5.6298,0 0.025,1.39559 0.025,1.39558 5.6051,0.0254 5.605,0.0254 0,1.46831 0,1.46831 -5.6297,0 -5.6297,0 0.025,1.49356 0.025,1.49349 5.6051,0.0254 5.605,0.0254 0,1.46831 0,1.46831 -5.6298,0 -5.6299,0 0.025,1.39559 0.025,1.39559 5.605,0.0254 5.6051,0.0254 0,1.46831 0,1.46831 -5.6298,0 -5.6297,0 0.025,1.44454 0.025,1.44461 5.5603,0.0254 5.5604,0.0254 0,1.16226 c 0,0.63925 -0.025,1.29995 -0.056,1.46831 l -0.056,0.30605 -5.509,0 c -4.1657,0 -5.5352,0.0289 -5.6162,0.11751 -0.073,0.0799 -0.1072,0.54516 -0.1072,1.45428 l 0,1.33676 0.8709,0.0635 c 0.479,0.0346 3.0113,0.0635 5.6274,0.0635 l 4.7564,0 0,1.48241 0,1.48242 -5.605,-0.0381 -5.605,-0.0381 0,1.42006 0,1.42014 5.605,0.0254 5.605,0.0254 0,1.46831 0,1.46831 -5.6273,0 -5.6274,0 0,1.27314 0,1.27321 5.6274,0 5.6273,0 0,1.46902 0,1.46901 -5.6273,0 -5.6274,0 0,1.51733 0,1.51726 5.605,0.0254 5.6051,0.0254 0.028,0.93041 c 0.015,0.51166 0,1.16177 -0.029,1.44454 l -0.056,0.51412 -5.5763,0 -5.5762,0 0,1.41936 0,1.41936 5.605,0.0254 5.605,0.0254 0.027,1.12629 c 0.015,0.61943 0,1.26948 -0.026,1.44454 l -0.053,0.31832 -5.5812,0 -5.5811,0 0.025,1.34657 0.025,1.34664 5.5604,0.0254 5.5604,0.0254 0,1.46831 0,1.46831 -5.4957,0 -5.4957,0 0.025,1.49356 0.025,1.49349 5.471,0.0254 5.4711,0.0254 0,1.4748 0,1.4748 -5.4711,-0.0205 -5.471,-0.0205 0,1.40977 0,1.40969 5.471,0.0254 5.4711,0.0254 0,1.4683 0,1.46824 -5.4959,0 -5.4958,0 0.025,1.39559 0.025,1.39559 5.4711,0.0254 5.471,0.0254 0,1.46831 0,1.46824 -5.4956,0 -5.4957,0 0.025,1.49356 0.025,1.49356 5.471,0.0254 5.471,0.0254 0,1.4683 0,1.46831 -5.4933,0 -5.4934,0 0,0.63657 c 0,0.37623 -0.038,0.63657 -0.093,0.63657 -0.059,0 -0.083,0.2796 -0.067,0.75902 l 0.026,0.75902 5.5603,0.0254 5.5604,0.0254 0,1.46831 0,1.46831 -5.5827,0 -5.5827,0 0,1.40554 0,1.40553 0.7369,0.0628 c 0.4053,0.0346 2.8974,0.0635 5.538,0.0635 l 4.8011,0 0,1.48199 0,1.48199 -5.5156,-0.0374 -5.5157,-0.0374 -0.025,1.48136 -0.025,1.48129 5.4956,0.0729 5.4957,0.0729 0,1.45865 0,1.45864 -5.4711,-0.0261 -5.471,-0.0261 -0.025,1.37979 -0.025,1.37986 2.2946,0.0649 c 1.262,0.036 3.7351,0.0649 5.4957,0.0649 l 3.2012,0 0,1.48354 0,1.48355 -5.4711,-0.0388 -5.471,-0.0388 -0.025,1.29762 -0.025,1.29768 5.496,0 5.4959,0 0,1.46902 0,1.46908 -5.4957,0 -5.4957,0 0.025,1.49349 0.025,1.49356 5.4711,0.0254 5.471,0.0254 0,1.46831 0,1.46831 -5.4958,0 -5.4959,0 0.025,1.39558 0.025,1.39559 5.4711,0.0254 5.471,0.0254 0,1.46831 0,1.4683 -5.4934,0 -5.4933,0 0,1.37034 0,1.37034 5.5157,0.0254 5.5157,0.0254 0.025,1.44454 0.025,1.44454 -5.5404,0 -5.5404,0 0,1.51804 0,1.51803 5.4934,0 5.4934,0 0,1.46902 0,1.46908 -5.4934,0 -5.4934,0 0,1.42006 0,1.42007 5.4934,0 5.4934,0 0,1.46901 0,1.46909 -5.4959,0 -5.4958,0 0.025,1.39558 0.025,1.39559 5.4263,0.0254 5.4264,0.0254 0,1.46824 0,1.4683 -5.4508,0 -5.4508,0 0.025,1.68937 0.025,1.68943 5.3817,0.0254 5.3817,0.0254 0,1.46823 0,1.46831 -5.4067,0 -5.4068,0 0.025,1.24867 0.025,1.24866 5.3371,0.0254 5.337,0.0254 0,1.46824 0,1.46831 -5.3594,0 -5.3593,0 0,1.42006 0,1.42006 5.4487,0 5.4487,0 0,1.46902 0,1.46908 -5.4511,0 -5.451,0 0.025,1.49349 0.025,1.49356 5.4264,0.0254 5.4264,0.0254 0,1.46831 0,1.4683 -5.4512,0 -5.4512,0 0.025,1.39559 0.025,1.39559 5.4264,0.0254 5.4263,0.0254 0,1.46823 0,1.46831 -5.4487,0 -5.4487,0 0,1.27314 0,1.27322 3.7739,0 c 2.0757,0 4.5286,0.0289 5.4511,0.0642 l 1.677,0.0642 -0.025,1.42408 -0.025,1.42409 -5.4264,-0.0282 -5.4264,-0.0282 0,1.52671 0,1.52671 5.4041,0 5.404,0 0,1.46901 0,1.46909 -5.404,0 -5.4041,0 0,1.42006 0,1.42007 5.125,0 c 2.8187,0 5.2504,0.0275 5.404,0.0614 l 0.2791,0.0614 0,1.40779 0,1.40786 -5.404,0 -5.4041,0 0,1.50237 0,1.50238 2.0768,0.0642 c 1.1422,0.0353 3.5539,0.0642 5.3594,0.0649 l 3.2826,0 0,1.48383 0,1.48382 -5.3371,-0.0395 -5.337,-0.0395 -0.025,1.49349 -0.025,1.49356 3.017,0 c 1.6593,0 4.0731,0.0296 5.364,0.0649 l 2.3471,0.0642 -0.025,1.42542 -0.025,1.42543 -5.3371,-0.0303 -5.337,-0.0303 0,1.41343 0,1.41344 3.7662,0.0649 c 2.0714,0.036 4.4842,0.0649 5.3618,0.0649 l 1.5956,0 -0.025,1.44454 -0.025,1.44454 -5.3147,0 -5.3148,0 -0.025,1.36356 c -0.019,1.02515 0.01,1.38332 0.089,1.44306 0.062,0.0437 2.4757,0.0802 5.362,0.081 l 5.2478,0 0,1.47925 0,1.47924 -5.3371,-0.0339 -5.3371,-0.0339 -0.025,1.47671 -0.025,1.4767 3.7684,0.0649 c 2.0727,0.036 4.4854,0.0649 5.3616,0.0649 l 1.5932,0 0,1.47875 0,1.47882 -5.0467,-0.0724 -5.0468,-0.0724 0,1.41844 0,1.41845 1.3541,0.0642 c 0.7447,0.0353 3.0157,0.0642 5.0467,0.0642 l 3.6927,0 0,1.48481 0,1.48489 -5.0467,-0.0607 -5.0468,-0.0607 0,1.46464 0,1.46464 3.38,0 c 1.8589,0 4.1109,0.0289 5.0043,0.0642 l 1.6245,0.0642 -0.025,1.41259 -0.025,1.41251 -4.9797,-0.012 -4.9798,-0.012 0,1.52178 0,1.52177 4.9574,0 4.9575,0 0,1.46902 0,1.46908 -4.9575,0 -4.9574,0 0,1.42006 0,1.42007 4.9574,0 4.9575,0 0,1.46901 0,1.46909 -4.9575,0 -4.9574,0 0,1.02831 0,1.02832 -0.3185,0 c -0.2949,0 -0.3165,0.0205 -0.2903,0.26937 l 0.028,0.2693 5.2478,0.0254 5.2477,0.0254 0,1.46831 0,1.46824 -5.2701,0 -5.27,0 0,1.45336 0,1.45328 2.2922,0.0649 c 1.2607,0.036 3.6322,0.0649 5.2701,0.0649 l 2.9778,0 0,1.48369 0,1.48369 -5.2477,-0.0388 -5.2478,-0.0388 -0.025,1.38233 -0.025,1.38239 0.3373,0.0614 c 0.1855,0.0339 2.5581,0.0614 5.2724,0.0621 l 4.9351,0 0,1.48023 0,1.48023 -5.2477,-0.036 -5.2477,-0.036 -0.025,1.33084 -0.025,1.33084 2.2946,0.0649 c 1.2621,0.036 3.6147,0.0649 5.2279,0.0649 l 2.9332,0 0,1.48213 0,1.48221 -5.2031,-0.0374 -5.2031,-0.0374 -0.025,1.49349 -0.025,1.49356 3.5529,0 c 1.954,0 4.3076,0.0289 5.23,0.0642 l 1.6771,0.0642 -0.025,1.42606 -0.025,1.42613 -5.2031,-0.031 -5.2031,-0.031 0,1.42959 0,1.42951 1.5931,0 c 0.8763,0 3.2288,0.0289 5.2278,0.0649 l 3.6345,0.0649 -0.025,1.42859 -0.025,1.4286 -5.1808,0 -5.1807,0 -0.025,1.38282 -0.025,1.38283 0.2815,0.0614 c 0.1548,0.0339 2.5073,0.0621 5.2277,0.0621 l 4.9463,0 0,1.47988 0,1.47987 -5.203,-0.0353 -5.2031,-0.0353 -0.025,1.47755 -0.025,1.47755 3.6869,0.0649 c 2.0277,0.036 4.3812,0.0649 5.23,0.0649 l 1.5432,0 -0.025,1.44454 -0.025,1.44454 -5.1807,0 -5.1807,0 -0.025,1.38 -0.025,1.37993 1.8111,0.0642 c 0.9962,0.0353 3.3487,0.0642 5.2278,0.0649 l 3.4166,0 0,1.48411 0,1.48418 -5.203,-0.0395 -5.2031,-0.0395 -0.025,1.44454 -0.025,1.44454 4.1782,0 c 2.2981,0 4.6305,0.0289 5.1832,0.0642 l 1.0048,0.0635 0,1.40511 0,1.40511 -5.1807,0 -5.1807,0 0,1.51803 0,1.51797 5.136,0 5.1361,0 0,1.46908 0,1.46902 -5.1361,0 -5.136,0 0,1.42006 0,1.42007 5.136,0 5.1361,0 0,1.46908 0,1.46902 -5.1386,0 -5.1387,0 0.025,1.29768 0.025,1.29762 5.1137,0.0254 5.1138,0.0254 0,1.46824 0,1.46824 -5.1361,0 -5.1361,0 0,1.45336 0,1.45335 2.2923,0.0649 c 1.2607,0.0353 3.5729,0.0649 5.1384,0.0649 l 2.8462,0 -0.025,1.44454 -0.025,1.44454 -5.0914,0 -5.0914,0 -0.025,1.38191 -0.025,1.38197 0.4168,0.0628 c 0.2293,0.0346 2.5427,0.0628 5.1409,0.0628 l 4.724,0 -0.025,1.44454 -0.025,1.44454 -5.0914,0 -5.0915,0 -0.025,1.15076 -0.025,1.15077 4.8486,0 c 2.6667,0 4.9993,0.0282 5.1835,0.0621 l 0.335,0.0607 0,1.40722 0,1.4073 -5.1807,0 -5.1808,0 0,1.50252 0,1.50252 1.6748,0.0642 c 0.9212,0.0353 3.2324,0.0642 5.1361,0.0642 l 3.4613,0 0,1.48425 0,1.48418 -5.1138,-0.0395 -5.1137,-0.0395 -0.025,1.49356 -0.025,1.49349 2.8015,0 c 1.5409,0 3.8331,0.0289 5.0938,0.0649 l 2.2922,0.0649 0,1.42881 0,1.42888 -5.0914,-0.0346 -5.0914,-0.0346 0,1.41414 0,1.41407 3.4166,0.0649 c 1.8792,0.0353 4.1703,0.0649 5.0914,0.0649 l 1.6748,0 0,1.47275 0,1.47275 -5.0691,-0.0282 -5.069,-0.0282 0,1.42006 0,1.42013 5.1137,0.0254 5.1137,0.0254 0,1.47621 0,1.47628 -5.1137,-0.0261 -5.1137,-0.0261 -0.025,1.47092 -0.025,1.47099 3.4189,0.0649 c 1.8803,0.036 4.1973,0.0649 5.1487,0.0649 l 1.7299,0 -0.054,0.22035 c -0.03,0.12118 -0.054,0.78617 -0.055,1.47776 l 0,1.25741 -5.136,-0.0719 -5.1361,-0.0719 0,4.66619 0,4.66618 -1.4292,0 -1.4292,0 0,-3.86844 0,-3.86851 -1.4291,0 -1.4292,0 0,3.86851 0,3.86844 -1.4292,0 -1.4291,0 0,-3.86844 0,-3.86851 -1.4282,0 -1.4281,0 -0.023,3.84403 -0.023,3.84397 -1.4292,0 -1.4292,0 -0.023,-3.84397 -0.023,-3.84403 -1.4728,0 -1.4728,0 0,3.81949 0,3.81956 -1.4738,0 -1.4738,0 0,-3.81956 0,-3.81949 -1.3845,0 -1.3845,0 0,3.81949 0,3.81956 -1.4292,0 -1.4292,0 0,-3.81956 0,-3.81949 -1.2952,0 -1.2951,0 0,3.86851 0,3.86844 -1.4292,0 -1.4292,0 0,-3.86844 0,-3.86851 -1.5185,0 -1.5185,0 0,3.81949 0,3.81956 -1.4291,0 -1.4292,0 0,-3.82203 0,-3.82196 -1.4068,0.0268 -1.4069,0.0268 -0.023,3.84404 -0.023,3.84397 -1.4281,0 -1.4282,0 0,-3.86844 0,-3.86852 -1.3398,0 -1.3399,0 0,3.91747 0,3.91746 -1.4738,0 -1.4738,0 0,-3.91746 0,-3.91747 -1.4739,0 -1.4738,0 0,3.91747 0,3.91746 -1.4292,0 -1.4291,0 0,-3.91746 0,-3.91747 -1.4292,0 -1.4292,0 0,3.91747 0,3.91746 -1.4291,0 -1.4292,0 0,-3.91746 0,-3.91747 -1.4292,0 -1.4291,0 0,3.96642 0,3.96642 -1.4292,0 -1.4292,0 0,-3.96642 0,-3.96642 -1.4738,0 -1.4738,0 0,3.91747 0,3.91746 -1.4739,0 -1.4738,0 0,-3.91746 0,-3.91747 -1.3835,0 -1.3834,0 -0.023,3.94194 -0.023,3.94194 -1.4291,0 -1.4292,0 -0.023,-3.94194 -0.023,-3.94194 -1.4282,0 -1.4281,0 0,3.91747 0,3.91746 -1.4292,0 -1.4291,0 0,-3.91986 0,-3.91979 -1.4962,0.0268 -1.4962,0.0268 -0.023,3.89299 -0.023,3.89299 -1.4281,0 -1.4282,0 0,-3.91746 0,-3.91747 -1.3845,0 -1.3845,0 0,3.91747 0,3.91746 -1.4738,0 -1.4738,0 0,-3.91746 0,-3.91747 -1.2506,0 -1.2505,0 0,3.91747 0,3.91746 -1.4738,0 -1.4738,0 0,-3.91746 0,-3.91747 -1.4739,0 -1.4738,0 0,3.91747 0,3.91746 -1.4281,0 -1.4282,0 -0.023,-3.89299 -0.023,-3.89299 -1.4068,-0.0268 -1.4069,-0.0268 0,3.91993 0,3.91994 -1.4292,0 -1.4291,0 0,-3.91747 0,-3.91747 -1.3399,0 -1.3398,0 0,3.91747 0,3.91747 -1.4738,0 -1.4739,0 0,-3.91747 0,-3.91747 -1.4738,0 -1.4738,0 0,3.91747 0,3.91747 -1.4282,0 -1.4282,0 -0.023,-3.89299 -0.023,-3.89299 -1.4068,-0.0268 -1.4069,-0.0268 0,3.91993 0,3.91994 -1.4291,0 -1.4292,0 0,-3.91747 0,-3.91746 -1.4292,0 -1.4292,0 0,3.96641 0,3.96642 -1.4291,0 -1.4292,0 0,-3.96874 0,-3.96882 -1.4961,0.0268 -1.4962,0.0268 -0.023,3.89299 -0.023,3.89299 -1.4282,0 -1.4281,0 0,-3.91747 0,-3.91746 -1.3836,0 -1.3834,0 -0.023,3.94194 -0.023,3.94194 -1.4291,0 -1.4293,0 -0.023,-3.94194 -0.023,-3.94194 -1.4281,0 -1.4282,0 0,3.91746 0,3.91747 -1.4292,0 -1.4292,0 0,-3.91747 0,-3.91746 -1.5185,0 -1.5184,0 0,3.91746 0,3.91747 -1.4292,0 -1.4292,0 0,-3.91994 0,-3.91993 -1.4068,0.0268 -1.4069,0.0268 -0.023,3.89299 -0.023,3.89299 -1.4282,0 -1.4281,0 0,-3.92014 0,-3.92015 -1.2729,0.0275 -1.2728,0.0268 -0.023,3.89299 -0.023,3.89299 -1.4282,0 -1.4281,0 0,-3.91746 0,-3.91747 -1.4728,0 -1.4728,0 -0.023,3.89299 -0.023,3.89292 -1.4292,0 -1.4292,0 -0.023,-3.89292 -0.023,-3.89299 -1.3835,0 -1.3835,0 0,3.91747 0,3.91746 -1.4281,0 -1.4282,0 -0.023,-3.89299 -0.023,-3.89299 -1.3622,-0.0268 -1.3622,-0.0268 0,3.96895 0,3.96896 -1.4281,0 -1.4281,0 -0.023,-3.94194 -0.023,-3.94194 -1.4961,-0.0268 -1.4962,-0.0268 0,3.96882 0,3.96874 -1.4292,0 -1.4291,0 0,-3.96642 0,-3.96641 -1.4292,0 -1.4292,0 0,3.96641 0,3.96642 -1.4291,0 -1.4292,0 0,-3.96642 0,-3.96641 -1.3845,0 -1.3845,0 0,3.91986 0,3.91986 -1.4515,-0.0268 -1.4515,-0.0268 -0.023,-3.89292 -0.023,-3.89299 -1.6504,0 -1.6505,0 -0.023,3.89299 -0.023,3.89292 -1.4292,0 -1.4291,0 -0.023,-3.89292 -0.023,-3.89299 -1.2495,0 -1.2495,0 0,3.86851 0,3.86845 -1.4292,0 -1.4292,0 0,-3.86845 0,-3.86851 -1.4291,0 -1.4292,0 0,3.96642 0,3.96641 -1.4292,0 -1.4291,0 0,-3.96641 0,-3.96642 -1.4728,0 -1.4729,0 -0.023,3.94194 -0.023,3.94194 -1.4292,0 -1.4292,0 -0.023,-3.94194 -0.023,-3.94194 -1.3835,0 -1.3834,0 0,3.96642 0,3.96641 -1.4739,0 -1.4738,0 0,-3.96641 0,-3.96642 -1.2505,0 -1.2506,0 0,3.96642 0,3.96641 -1.4738,0 -1.4738,0 0,-3.96641 0,-3.96642 -1.4738,0 -1.4739,0 0,3.96642 0,3.96641 -1.4291,0 -1.4292,0 0,-3.96641 0,-3.96642 -1.4292,0 -1.4291,0 0,3.96642 0,3.96641 -1.4292,0 -1.4292,0 0,-3.96641 0,-3.96642 -1.5185,0 -1.5185,0 0,3.91746 0,3.91747 -1.4291,0 -1.4292,0 0,-3.91747 0,-3.91746 -1.5185,0 -1.5185,0 0,3.91746 0,3.91747 -1.4292,0 -1.4291,0 0,-3.91993 0,-3.91994 -1.4069,0.0268 -1.4068,0.0268 -0.023,3.89299 -0.023,3.89299 -1.4282,0 -1.4281,0 0,-3.91994 0,-3.91993 -1.4068,0.0268 -1.4069,0.0268 -0.023,3.94194 -0.023,3.94194 -1.4281,0 -1.4282,0 0,-3.96642 0,-3.96641 -1.4738,0 -1.4738,0 0,3.96888 0,3.96881 -1.4515,-0.0268 -1.4515,-0.0268 -0.023,-3.94194 -0.023,-3.94194 -1.3834,0 -1.3835,0 0,3.96641 0,3.96642 -1.4282,0 -1.4282,0 -0.023,-3.94194 -0.023,-3.94194 -1.4515,-0.0268 -1.4515,-0.0268 0,3.91994 0,3.91986 -1.4292,0 -1.4292,0 0,-3.91747 0,-3.91746 -1.4738,0 -1.4738,0 0,3.91746 0,3.91747 -1.4739,0 -1.4738,0 0,-3.91747 0,-3.91746 -1.3845,0 -1.3845,0 0,3.91746 0,3.91747 -1.4739,0 -1.4738,0 0,-3.91747 0,-3.91746 -1.2505,0 -1.2505,0 0,3.91746 0,3.91747 -1.4739,0 -1.4738,0 0,-3.91747 0,-3.91746 -1.4738,0 -1.4738,0 0,3.91746 0,3.91747 -1.4292,0 -1.4292,0 0,-3.91747 0,-3.91746 -1.4292,0 -1.4291,0 0,3.91746 0,3.91747 -1.4292,0 -1.4292,0 0,-3.91747 0,-3.91746 -1.3398,0 -1.3399,0 0,3.91746 0,3.91747 -1.4738,0 -1.4738,0 0,-3.91747 0,-3.91746 -1.4738,0 -1.4739,0 0,3.91746 0,3.91747 -1.4281,0 -1.4281,0 -0.023,-3.89299 -0.023,-3.89299 -1.4068,-0.0268 -1.4068,-0.0268 0,3.91994 0,3.91993 -1.4292,0 -1.4292,0 0,-3.91746 0,-3.91747 -1.4292,0 -1.4291,0 0,3.96642 0,3.96641 -1.4292,0 -1.4292,0 0,-3.96874 0,-3.96882 -1.4961,0.0268 -1.4962,0.0268 -0.023,3.89299 -0.023,3.89299 -1.4281,0 -1.4282,0 0,-3.91746 0,-3.91747 -1.3835,0 -1.3834,0 -0.023,3.94194 -0.023,3.94194 -1.3898,0.0268 c -0.7643,0.0148 -1.4174,-0.007 -1.4515,-0.0409 z"
       id="path22852"
       inkscape:connector-curvature="0" />
    <path
       style="fill:#aa0000;fill-opacity:1;stroke:#000000;stroke-width:2.46569061;stroke-miterlimit:4;stroke-opacity:1;stroke-dasharray:none"
       d="m 238.12188,330.35722 c 1.5862,-12.18513 0.7939,-21.80093 -12.2407,-18.19276 l 0,0 c -6.7714,2.78418 -18.9199,1.24609 -14.0884,13.35671 -4.4218,-1.56075 -7.6802,-5.27577 -16.167,0.69087 -15.1519,13.5402 0.067,22.83685 10.3931,15.65959 -9.3551,0.69412 -9.8125,8.2886 -2.5406,21.87739 12.9389,12.0668 14.7516,-1.84281 14.5504,-8.29038 -2.0173,7.40499 2.947,10.6797 9.7001,12.89615 -4.8783,4.15586 -11.5004,8.11715 -2.5404,13.8173 9.1053,10.75689 14.9787,10.695 15.4741,-7.36922 7.8069,11.68102 16.1579,22.65678 30.0244,26.48314 -9.0517,4.59698 -16.5872,1.63463 -24.4813,0.46058 7.0595,9.30872 15.7457,16.91833 35.5673,12.89614 -3.0161,7.13108 -7.3868,8.40938 -12.2407,7.59952 13.3851,6.54382 25.707,-0.69426 37.877,-9.9024 -8.3418,11.89704 -14.4468,27.19825 -33.9508,22.10767 10.1963,14.94731 23.0241,10.47784 36.2604,2.99375 -7.1438,6.08599 -14.625,11.44268 -25.4054,9.6721 7.1597,9.2388 14.3194,8.09335 21.4791,8.52067 l -61.6656,22.33796 -22.6338,4.37547 c 11.7188,-12.3388 8.4304,-19.20303 -5.0811,-22.33796 -9.0396,1.45942 -20.012,1.48897 -10.624,16.58076 -2.8843,-6.59368 -6.5093,-5.06123 -10.6241,1.8423 -0.9655,7.03919 -9.5096,19.00662 2.3096,17.7322 -1.4076,3.17248 -4.468,5.86025 4.1572,11.97498 7.4937,9.76575 14.7908,17.52245 19.8624,2.53318 -4.3629,2.66325 3.5435,1.40083 13.8573,3.45432 8.3629,6.52312 16.0981,11.64554 11.7789,-10.13268 11.0392,8.59755 33.6818,-2.89981 56.1227,-14.04759 -6.3129,7.91479 -12.6257,10.87975 -18.9386,13.35672 24.4652,8.32851 37.0357,-17.6056 50.8106,-40.07014 -3.2315,12.20837 -1.9857,23.83444 -18.4765,37.76726 20.8975,-4.83576 32.9803,-29.44715 46.8843,-49.97255 -11.6674,16.51566 -11.3494,32.1461 -6.4667,47.43938 l 2.5404,-4.60576 10.3931,4.37547 13.8575,9.44183 9.7002,14.50815 c -15.2932,8.01213 -31.2076,9.70665 -48.0391,2.07259 -27.5936,-12.11689 -51.119,-5.97669 -70.8975,16.97956 -14.7282,3.7235 -25.894,2.18456 -28.9062,-11.39869 -6.6356,5.33367 -11.6567,10.95353 0.9799,19.70344 -11.5819,6.03096 -23.1109,13.37715 -35.112,8.95611 11.2262,17.24423 23.9402,19.23117 38.2149,5.21084 4.7136,13.02055 13.5891,13.86803 24.8234,7.81624 -9.1875,-0.315 -12.6331,-4.79369 -12.2484,-12.05005 5.6037,1.55623 10.5642,-0.30784 14.8614,-5.69933 -2.6475,8.48844 -4.8026,16.89336 12.5749,21.98317 -1.713,6.90558 -0.9741,13.48699 3.7562,19.54061 l -5.5526,16.44668 -17.311,13.35275 -8.6555,-2.60543 c 10.0273,-15.32322 -0.2078,-14.17245 -9.6353,-13.67841 -6.3991,1.39126 -13.1328,2.31533 -13.555,12.05004 l -4.5727,8.79327 c 3.5201,5.58803 -1.3937,22.4526 14.2081,11.8872 l 6.859,11.56152 c 10.0868,2.65524 16.1519,-0.80995 17.9644,-10.74733 0.4078,6.10236 1.2158,12.11267 7.1856,16.9352 12.357,-4.70825 7.7112,-10.04442 9.4721,-15.14398 4.7184,4.92683 9.3763,7.9885 13.5548,-3.74528 3.9679,4.44058 7.7237,9.50779 14.3715,6.02501 -5.3838,-8.68449 -5.3403,-17.15252 0.1634,-25.40278 2.7325,2.62754 5.6427,4.87122 10.9419,1.95407 -7.1551,-6.13358 -6.8621,-12.26716 -5.8793,-18.40074 6.8422,5.09461 12.0471,3.42567 15.8412,-4.07096 -7.1619,-4.90052 -14.1585,-10.03193 -14.9288,-23.85494 -0.7915,-7.77086 -5.2481,-12.64584 -10.5478,-16.85466 l 19.7607,-5.04798 c 15.0867,13.23429 29.7048,3.10533 44.3718,-4.58772 -6.5883,12.45029 -14.0421,24.25333 -13.5111,42.0276 1.2349,11.42477 -8.339,20.94077 -18.4766,3.91491 -4.6705,10.42745 -2.6338,16.9427 8.43,18.19277 0.2134,18.3937 -11.6497,19.34809 -19.6314,25.90742 13.0974,7.94537 22.6388,1.70848 29.447,-15.42931 6.6083,13.26133 14.6293,7.08123 22.7493,-0.46057 -12.9358,-0.33735 -16.5065,-8.19873 -12.2407,-17.96249 7.5061,7.94448 15.0122,4.88003 22.5184,1.72716 5.0425,4.27004 10.0851,4.78788 15.1276,1.38173 0.5409,9.07119 -1.3823,18.35603 12.7027,26.25287 l -15.4741,13.01128 -12.2407,4.26033 c -7.1447,-17.69146 -19.2581,-8.69996 -19.5159,1.72717 -7.0132,-1.69867 -15.5161,-5.37796 -10.9705,8.29037 4.529,-1.39732 -10.611,13.86592 10.1621,20.95623 11.7019,3.30082 15.7051,-1.6888 12.0098,-14.96874 l 3.8109,0.57573 c 4.4825,8.02384 9.2562,14.94423 18.2455,5.87234 7.7754,-0.63129 9.0773,-5.74505 5.7739,-14.04758 8.3858,4.78083 13.6621,0.2602 19.054,-3.9149 7.2688,0.37242 12.4457,-1.94942 12.3562,-11.05384 5.9665,5.784 11.9328,3.75692 17.8993,2.76346 -10.7909,-5.14418 -12.4176,-10.45065 -13.0492,-15.77474 0.7699,-5.36127 -1.7341,-11.06615 -6.8132,-17.04133 3.8507,2.68375 8.9219,2.9339 13.9729,3.22403 -6.0629,-6.55356 -8.6425,-13.686 -11.0859,-20.84108 5.4061,-2.86239 8.8293,-7.35288 9.0074,-14.50816 -4.1888,1.76589 -8.2444,2.07084 -12.1254,0.46058 -6.5707,-4.36736 -11.4041,-2.84435 -14.8966,3.22404 -7.5166,-10.50114 -18.5312,-6.41634 -29.3316,-3.22404 10.0682,-7.23252 19.9322,-14.66874 26.6755,-25.21656 31.8402,20.88915 54.7539,13.22242 71.8278,-13.12644 20.4701,1.71067 19.3602,-13.56607 16.8599,-29.93746 -2.5063,-20.47636 16.4254,-23.07474 15.705,-4.60577 10.8417,-31.50389 -11.89,-32.33428 -22.8647,-19.5745 1.3523,-23.71506 1.765,-46.86797 6.0049,-72.31051 4.4867,-39.8663 8.4776,-88.9475 -33.7199,-73.69225 -11.3031,5.23417 -14.1551,-0.50601 -12.2407,-12.43556 -15.8344,8.06741 -13.3369,22.02574 -0.2309,26.02256 -17.9715,19.49352 -11.7936,37.24214 -9.4692,55.2692 9.3482,29.12034 14.5104,53.13491 -10.1622,40.76102 32.474,36.51601 38.5582,-27.14884 20.3243,-65.40187 14.3576,16.93656 23.2694,9.53833 29.3316,-10.59326 -19.5612,22.22173 -29.438,-5.20403 -14.7813,-20.72594 6.0495,-5.00182 20.6174,-7.82656 21.7099,23.71969 l -0.8942,19.37737 c -3.6761,19.42111 -12.1105,40.28624 -2.5701,55.6966 -6.9153,8.94946 -7.4776,17.07266 -0.231,24.18026 l -9.2383,12.20527 c -26.1267,-33.0599 -54.3979,23.55489 -14.7812,28.32546 -17.4371,-13.3521 -0.4959,-38.21766 10.1621,-13.587 -0.954,10.86323 -6.2112,21.04898 3.6954,33.62208 -12.6816,18.89437 -29.598,25.35601 -53.3513,11.74471 -0.2461,-20.49859 4.5642,-44.22053 -13.3955,-53.42688 -1.7923,-8.2789 -4.5512,-15.8005 -10.624,-20.72594 l 0.2309,-2.99375 6.9288,1.84231 c -1.6506,-8.9084 -3.0997,-17.76317 -9.2384,-27.86488 -5.8286,-11.60131 -4.1344,-19.02614 -4.1572,-27.4043 3.2629,8.4158 3.1936,15.66874 12.0098,26.02256 5.8063,5.47035 8.7142,11.4224 10.855,17.50192 0.4648,-18.33829 -9.4746,-33.3794 -15.2432,-49.74226 2.9729,3.91489 5.0588,7.82979 10.6241,11.7447 -1.6565,-11.08895 -1.0282,-21.76372 0.6929,-32.24036 4.2579,11.30534 10.7822,10.80953 17.7836,7.82981 -10.2855,-6.85832 -9.2545,-14.03008 -8.7763,-21.18652 4.7731,2.70302 9.5463,2.8223 14.3193,0.92115 -9.4761,-8.46972 -8.7434,-17.2307 -6.9286,-26.02259 1.1515,-9.09012 2.2341,-18.1959 -3.2335,-28.78603 7.7653,0.0847 12.8385,-2.80259 12.0097,-12.20527 0.7729,-6.67278 7.0719,-20.28848 -6.4667,-8.98124 -6.126,-3.2147 -12.2583,-6.52688 -17.7838,-0.46058 -3.9401,-6.14498 -9.5394,-5.87931 -15.936,-2.53317 -8.5515,-1.03027 -12.3237,3.34013 -16.3979,7.36922 -4.8501,2.49155 -9.7003,4.31153 -14.5504,3.45433 -8.9233,-1.80103 -17.8461,-0.75549 -11.5478,11.28412 -0.3656,9.12376 1.002,16.41158 10.3931,15.19902 l 13.8574,-5.98749 c 9.9962,0.0781 12.6631,9.31588 8.3145,24.64084 -8.5062,6.42799 -17.7471,4.61384 -27.484,-2.76346 -6.4983,-3.21252 -6.3664,0.84709 -6.9286,4.14519 l -8.7765,10.82356 14.3194,-0.23029 c 10.4192,5.7806 1.5704,24.27009 -13.3955,15.6596 -10.8446,-4.31012 -8.113,-9.42677 -10.3931,-14.27786 -1.9407,4.48693 -3.4591,9.21456 -1.1548,16.12017 -6.7873,-1.54011 -9.9862,-9.0434 -13.1646,-16.58076 -3.6601,7.41178 -2.9337,14.38617 -0.4619,21.18652 -6.4507,-10.95259 -13.8737,-14.14788 -22.1719,-10.36296 -13.4423,-1.0419 -21.4704,-5.19824 -18.9385,-15.42932 -3.4161,1.64288 -6.3283,4.09002 -6.6978,10.59326 -8.0462,-8.74531 -12.1217,-18.05621 -15.9361,-27.40431 l -3.6953,18.88364 c -7.9077,-17.82147 -18.8874,-20.93925 -29.7934,-24.41056 6.1215,-7.68864 3.3355,-12.60174 -0.2311,-17.27162 z"
       id="path20726-4-0"
       inkscape:connector-curvature="0"
       sodipodi:nodetypes="ccccccccccccccccccccccccccccccccccccccccccccccccccccccccccccccccccccccccccccccccccccccccccccccccccccccccccccccccccccccccccccccccccccccccccccccccccccccccccccccccccccccc" />
    <path
       style="fill:#005fb9;fill-opacity:1;stroke:#000000;stroke-width:2.46569061;stroke-linecap:butt;stroke-linejoin:miter;stroke-miterlimit:4;stroke-opacity:1;stroke-dasharray:none"
       d="m 283.62058,328.05434 c 20.8482,-4.93431 37.7926,0.0785 53.1202,9.21152 27.4111,20.37617 44.7161,15.4562 65.3609,13.35674 -15.4655,-3.56477 -30.4105,-4.53452 -49.4249,-25.7923 -23.5278,-23.28691 -51.0275,-10.9679 -69.0562,3.22404 z"
       id="path20728-1-7"
       inkscape:connector-curvature="0"
       sodipodi:nodetypes="ccccc" />
    <path
       style="fill:none;stroke:#000000;stroke-width:2.46569061;stroke-linecap:butt;stroke-linejoin:miter;stroke-miterlimit:4;stroke-opacity:1;stroke-dasharray:none"
       d="m 430.04758,342.5625 c -0.1326,16.89224 -0.9396,33.4034 -19.1695,40.07017"
       id="path20730-0-8"
       inkscape:connector-curvature="0"
       sodipodi:nodetypes="cc" />
    <path
       style="fill:none;stroke:#000000;stroke-width:2.46569061;stroke-linecap:butt;stroke-linejoin:miter;stroke-miterlimit:4;stroke-opacity:1;stroke-dasharray:none"
       d="m 437.43818,334.7327 c 4.5345,10.35648 2.2139,20.18717 -1.1549,29.93747"
       id="path20732-1-6"
       inkscape:connector-curvature="0"
       sodipodi:nodetypes="cc" />
    <path
       style="fill:none;stroke:#000000;stroke-width:2.46569061;stroke-linecap:butt;stroke-linejoin:miter;stroke-miterlimit:4;stroke-opacity:1;stroke-dasharray:none"
       d="m 286.85398,379.63891 c -2.6236,12.2317 2.0751,20.12219 22.1718,18.88364 -14.2576,0.75352 -21.3336,8.11713 -27.7148,16.12018"
       id="path20734-2-4"
       inkscape:connector-curvature="0"
       sodipodi:nodetypes="ccc" />
    <path
       style="fill:none;stroke:#000000;stroke-width:2.46569061;stroke-linecap:butt;stroke-linejoin:miter;stroke-miterlimit:4;stroke-opacity:1;stroke-dasharray:none"
       d="m 305.56158,413.49129 c 6.4037,-9.78586 14.2298,-13.54422 23.0957,-12.89614"
       id="path20736-2-9"
       inkscape:connector-curvature="0"
       sodipodi:nodetypes="cc" />
    <path
       style="fill:none;stroke:#000000;stroke-width:2.46569061;stroke-linecap:butt;stroke-linejoin:miter;stroke-miterlimit:4;stroke-opacity:1;stroke-dasharray:none"
       d="m 308.10198,437.90184 c 7.2301,-10.76877 15.7179,-20.08148 27.715,-25.3317"
       id="path20738-8-1"
       inkscape:connector-curvature="0"
       sodipodi:nodetypes="cc" />
    <path
       style="fill:none;stroke:#000000;stroke-width:2.46569061;stroke-linecap:butt;stroke-linejoin:miter;stroke-miterlimit:4;stroke-opacity:1;stroke-dasharray:none"
       d="m 305.32218,455.91218 c 5.3618,-2.00888 9.0898,-7.27603 13.2282,-11.72437 -4.2539,15.00378 -10.4004,22.45963 -16.3311,30.77646 14.1082,-5.46439 25.8479,-15.65186 35.6019,-29.79943 -5.9103,14.98814 -13.6389,27.50398 -24.3334,35.98729 8.2656,-3.92782 16.0561,-8.77823 21.5571,-18.07507"
       id="path20740-5-4"
       inkscape:connector-curvature="0"
       sodipodi:nodetypes="cccccc" />
    <path
       style="fill:none;stroke:#000000;stroke-width:2.46569061;stroke-linecap:butt;stroke-linejoin:miter;stroke-miterlimit:4;stroke-opacity:1;stroke-dasharray:none"
       d="m 359.37838,493.85351 c 4.6025,-12.71901 13.8379,-25.768 24.4967,-38.91836 -1.1232,11.25643 0.5626,21.23968 8.9822,28.17104 -2.6196,-9.71602 -3.7424,-19.43205 0.9798,-29.14808 5.465,8.35629 5.6013,18.96059 21.3939,22.96022"
       id="path20742-4-8"
       inkscape:connector-curvature="0"
       sodipodi:nodetypes="ccccc" />
    <path
       style="fill:none;stroke:#000000;stroke-width:2.46569061;stroke-linecap:butt;stroke-linejoin:miter;stroke-miterlimit:4;stroke-opacity:1;stroke-dasharray:none"
       d="m 381.42538,417.48232 12.0851,-16.77235"
       id="path20744-6-0"
       inkscape:connector-curvature="0" />
    <path
       style="fill:none;stroke:#000000;stroke-width:2.46569061;stroke-linecap:butt;stroke-linejoin:miter;stroke-miterlimit:4;stroke-opacity:1;stroke-dasharray:none"
       d="m 385.01828,433.76616 14.0448,-34.3589"
       id="path20746-7-8"
       inkscape:connector-curvature="0" />
    <path
       style="fill:none;stroke:#000000;stroke-width:2.46569061;stroke-linecap:butt;stroke-linejoin:miter;stroke-miterlimit:4;stroke-opacity:1;stroke-dasharray:none"
       d="m 409.84158,393.70792 0.9798,0 c 7.7833,-2.56996 13.5485,-10.31386 18.2909,-20.68048"
       id="path20748-7-9"
       inkscape:connector-curvature="0"
       sodipodi:nodetypes="ccc" />
    <path
       style="fill:none;stroke:#000000;stroke-width:2.46569061;stroke-linecap:butt;stroke-linejoin:miter;stroke-miterlimit:4;stroke-opacity:1;stroke-dasharray:none"
       d="m 416.86398,418.45935 -1.9597,-16.60951"
       id="path20750-3-9"
       inkscape:connector-curvature="0" />
    <path
       style="fill:none;stroke:#000000;stroke-width:2.46569061;stroke-linecap:butt;stroke-linejoin:miter;stroke-miterlimit:4;stroke-opacity:1;stroke-dasharray:none"
       d="m 437.11458,384.10045 c -2.9943,-2.83878 -4.2953,-5.84642 -2.9396,-9.11895"
       id="path20752-4-7"
       inkscape:connector-curvature="0"
       sodipodi:nodetypes="cc" />
    <path
       style="fill:none;stroke:#000000;stroke-width:2.46569061;stroke-linecap:butt;stroke-linejoin:miter;stroke-miterlimit:4;stroke-opacity:1;stroke-dasharray:none"
       d="m 439.74778,322.64256 c -13.8889,0.46525 -10.8286,-14.44283 2.1941,-10.4781 l 4.7346,-3.56947"
       id="path20754-4-9"
       inkscape:connector-curvature="0"
       sodipodi:nodetypes="ccc" />
    <path
       style="fill:none;stroke:#000000;stroke-width:2.46569061;stroke-linecap:butt;stroke-linejoin:miter;stroke-miterlimit:4;stroke-opacity:1;stroke-dasharray:none"
       d="m 373.34748,321.89413 2.2518,5.06634 -0.2887,-2.30289 3.1758,-0.0575 -3.7531,-0.92116 2.0208,0 -2.5405,-0.97872"
       id="path20756-9-9"
       inkscape:connector-curvature="0" />
    <path
       style="fill:none;stroke:#000000;stroke-width:2.46569061;stroke-linecap:butt;stroke-linejoin:miter;stroke-miterlimit:4;stroke-opacity:1;stroke-dasharray:none"
       d="m 393.79628,318.27302 c 7.688,-6.93721 22.4274,-12.45119 28.2121,6.55425"
       id="path20758-1-9"
       inkscape:connector-curvature="0"
       sodipodi:nodetypes="cc" />
    <path
       style="fill:#ffffff;stroke:none"
       d="m 394.89848,317.98806 c 9.8525,-8.73554 23.0981,-7.87317 26.8648,7.08348 -9.3379,0.61749 -18.5966,0.61937 -26.8648,-7.08348 z"
       id="path20760-8-6"
       inkscape:connector-curvature="0"
       sodipodi:nodetypes="ccc" />
    <path
       sodipodi:type="arc"
       style="fill:#000000;fill-opacity:1;stroke:none"
       id="path20762-3-0"
       sodipodi:cx="1032.9464"
       sodipodi:cy="43.501953"
       sodipodi:rx="5.625"
       sodipodi:ry="6.1160712"
       d="m 1038.5714,43.501953 c 0,3.377813 -2.5184,6.116071 -5.625,6.116071 -3.1066,0 -5.625,-2.738258 -5.625,-6.116071 0,-3.377813 2.5184,-6.116071 5.625,-6.116071 3.1066,0 5.625,2.738258 5.625,6.116071 z"
       transform="matrix(0.91454454,0,0,0.9118949,-537.20199,278.60382)" />
    <path
       transform="matrix(0.91454454,0,0,0.9118949,-537.20199,279.33659)"
       sodipodi:type="arc"
       style="fill:#ffffff;fill-opacity:1;stroke:none"
       id="path20764-8-6"
       sodipodi:cx="1031.9642"
       sodipodi:cy="41.671597"
       sodipodi:rx="2.1428571"
       sodipodi:ry="2.1428571"
       d="m 1034.1071,41.671597 c 0,1.183467 -0.9594,2.142857 -2.1429,2.142857 -1.1834,0 -2.1428,-0.95939 -2.1428,-2.142857 0,-1.183468 0.9594,-2.142858 2.1428,-2.142858 1.1835,0 2.1429,0.95939 2.1429,2.142858 z" />
    <path
       style="fill:none;stroke:#000000;stroke-width:2.46569061;stroke-linecap:butt;stroke-linejoin:miter;stroke-miterlimit:4;stroke-opacity:1;stroke-dasharray:none"
       d="m 491.17068,349.74154 c -11.2727,4.12465 -14.3857,9.41156 -16.6577,14.8183"
       id="path20766-7-3"
       inkscape:connector-curvature="0"
       sodipodi:nodetypes="cc" />
    <path
       style="fill:none;stroke:#000000;stroke-width:2.46569061;stroke-linecap:butt;stroke-linejoin:miter;stroke-miterlimit:4;stroke-opacity:1;stroke-dasharray:none"
       d="m 473.20648,380.84368 3.2662,5.86219"
       id="path20768-9-8"
       inkscape:connector-curvature="0" />
    <path
       style="fill:none;stroke:#000000;stroke-width:2.46569061;stroke-linecap:butt;stroke-linejoin:miter;stroke-miterlimit:4;stroke-opacity:1;stroke-dasharray:none"
       d="m 497.21328,539.77394 c 13.4875,1.0322 10.0757,-20.40266 11.4317,-35.49876"
       id="path20770-7-0"
       inkscape:connector-curvature="0"
       sodipodi:nodetypes="cc" />
    <path
       style="fill:none;stroke:#000000;stroke-width:2.46569061;stroke-linecap:butt;stroke-linejoin:miter;stroke-miterlimit:4;stroke-opacity:1;stroke-dasharray:none"
       d="m 406.08548,485.06025 c 8.1902,4.0038 11.7876,11.17811 14.3714,19.05209"
       id="path20772-1-3"
       inkscape:connector-curvature="0"
       sodipodi:nodetypes="cc" />
    <path
       style="fill:none;stroke:#000000;stroke-width:2.46569061;stroke-linecap:butt;stroke-linejoin:miter;stroke-miterlimit:4;stroke-opacity:1;stroke-dasharray:none"
       d="m 426.17278,509.81168 c 4.8261,11.40675 6.6602,24.09204 5.3892,38.10418"
       id="path20774-1-6"
       inkscape:connector-curvature="0"
       sodipodi:nodetypes="cc" />
    <path
       style="fill:none;stroke:#000000;stroke-width:2.46569061;stroke-linecap:butt;stroke-linejoin:miter;stroke-miterlimit:4;stroke-opacity:1;stroke-dasharray:none"
       d="m 393.75538,522.43165 1.6331,3.09393"
       id="path20776-4-9"
       inkscape:connector-curvature="0" />
    <path
       style="fill:none;stroke:#000000;stroke-width:2.46569061;stroke-linecap:butt;stroke-linejoin:miter;stroke-miterlimit:4;stroke-opacity:1;stroke-dasharray:none"
       d="m 377.50478,550.5128 c 7.5047,-8.07532 18.068,-15.82389 17.5527,-24.756"
       id="path20778-3-4"
       inkscape:connector-curvature="0"
       sodipodi:nodetypes="cc" />
    <path
       style="fill:none;stroke:#000000;stroke-width:2.46569061;stroke-linecap:butt;stroke-linejoin:miter;stroke-miterlimit:4;stroke-opacity:1;stroke-dasharray:none"
       d="m 391.93958,547.28876 c -11.3234,11.7447 -16.2425,23.4894 -19.6313,35.2341"
       id="path20780-5-2"
       inkscape:connector-curvature="0"
       sodipodi:nodetypes="cc" />
    <path
       style="fill:none;stroke:#000000;stroke-width:2.46569061;stroke-linecap:butt;stroke-linejoin:miter;stroke-miterlimit:4;stroke-opacity:1;stroke-dasharray:none"
       d="m 394.94198,579.75939 c 9.3552,-4.71672 17.8972,-11.86584 25.4053,-22.10766"
       id="path20782-2-0"
       inkscape:connector-curvature="0"
       sodipodi:nodetypes="cc" />
    <path
       style="fill:none;stroke:#000000;stroke-width:2.46569061;stroke-linecap:butt;stroke-linejoin:miter;stroke-miterlimit:4;stroke-opacity:1;stroke-dasharray:none"
       d="m 304.86858,550.28251 c 7.737,0.45911 15.0488,-3.32078 22.1719,-8.98125"
       id="path20784-9-4"
       inkscape:connector-curvature="0"
       sodipodi:nodetypes="cc" />
    <path
       style="fill:none;stroke:#000000;stroke-width:2.46569061;stroke-linecap:butt;stroke-linejoin:miter;stroke-miterlimit:4;stroke-opacity:1;stroke-dasharray:none"
       d="m 307.17818,563.17865 c 5.1966,6.35468 8.2639,14.35511 10.1622,23.25911"
       id="path20786-1-4"
       inkscape:connector-curvature="0"
       sodipodi:nodetypes="cc" />
    <path
       style="fill:none;stroke:#000000;stroke-width:2.46569061;stroke-linecap:butt;stroke-linejoin:miter;stroke-miterlimit:4;stroke-opacity:1;stroke-dasharray:none"
       d="m 363.76278,614.76321 6.9287,-11.7447"
       id="path20788-5-3"
       inkscape:connector-curvature="0" />
    <path
       style="fill:none;stroke:#000000;stroke-width:2.46569061;stroke-linecap:butt;stroke-linejoin:miter;stroke-miterlimit:4;stroke-opacity:1;stroke-dasharray:none"
       d="m 347.36478,638.7132 c 6.0682,-2.8792 9.833,-8.29259 12.2407,-15.19903"
       id="path20790-5-6"
       inkscape:connector-curvature="0"
       sodipodi:nodetypes="cc" />
    <path
       style="fill:none;stroke:#000000;stroke-width:2.46569061;stroke-linecap:butt;stroke-linejoin:miter;stroke-miterlimit:4;stroke-opacity:1;stroke-dasharray:none"
       d="m 427.73788,594.72814 c 8.4867,3.29552 11.0213,10.24324 11.5479,18.42305"
       id="path20792-6-9"
       inkscape:connector-curvature="0"
       sodipodi:nodetypes="cc" />
    <path
       style="fill:none;stroke:#000000;stroke-width:2.46569061;stroke-linecap:butt;stroke-linejoin:miter;stroke-miterlimit:4;stroke-opacity:1;stroke-dasharray:none"
       d="m 449.21698,599.10362 -4.3881,-3.45434"
       id="path20794-7-1"
       inkscape:connector-curvature="0" />
    <path
       style="fill:none;stroke:#000000;stroke-width:2.46569061;stroke-linecap:butt;stroke-linejoin:miter;stroke-miterlimit:4;stroke-opacity:1;stroke-dasharray:none"
       d="m 444.36698,626.96848 2.5405,14.50817"
       id="path20796-9-8"
       inkscape:connector-curvature="0" />
    <path
       style="fill:none;stroke:#000000;stroke-width:2.46569061;stroke-linecap:butt;stroke-linejoin:miter;stroke-miterlimit:4;stroke-opacity:1;stroke-dasharray:none"
       d="m 377.73558,654.83337 2.0787,2.41803"
       id="path20798-0-9"
       inkscape:connector-curvature="0" />
    <path
       style="fill:none;stroke:#000000;stroke-width:2.46569061;stroke-linecap:butt;stroke-linejoin:miter;stroke-miterlimit:4;stroke-opacity:1;stroke-dasharray:none"
       d="m 379.00598,667.72951 c -7.9636,1.99169 -13.8126,8.581 -7.2752,14.16273"
       id="path20800-2-1"
       inkscape:connector-curvature="0"
       sodipodi:nodetypes="cc" />
    <path
       style="fill:none;stroke:#000000;stroke-width:2.46569061;stroke-linecap:butt;stroke-linejoin:miter;stroke-miterlimit:4;stroke-opacity:1;stroke-dasharray:none"
       d="m 286.50758,640.5555 12.7026,-5.75721 0,0"
       id="path20802-3-1"
       inkscape:connector-curvature="0" />
    <path
       style="fill:none;stroke:#000000;stroke-width:2.46569061;stroke-linecap:butt;stroke-linejoin:miter;stroke-miterlimit:4;stroke-opacity:1;stroke-dasharray:none"
       d="m 303.48288,640.67064 c -2.7413,-11.1625 0.2776,-22.2529 5.4275,-26.13771"
       id="path20804-1-8"
       inkscape:connector-curvature="0"
       sodipodi:nodetypes="cc" />
    <path
       style="fill:none;stroke:#000000;stroke-width:2.46569061;stroke-linecap:butt;stroke-linejoin:miter;stroke-miterlimit:4;stroke-opacity:1;stroke-dasharray:none"
       d="m 238.93028,620.52042 c 6.6014,-3.14557 9.5743,0.66669 12.2408,5.06633"
       id="path20806-9-6"
       inkscape:connector-curvature="0"
       sodipodi:nodetypes="cc" />
    <path
       style="fill:none;stroke:#000000;stroke-width:2.46569061;stroke-linecap:butt;stroke-linejoin:miter;stroke-miterlimit:4;stroke-opacity:1;stroke-dasharray:none"
       d="m 256.48308,631.57425 -6.5822,11.51442"
       id="path20808-8-3"
       inkscape:connector-curvature="0" />
    <path
       style="fill:none;stroke:#000000;stroke-width:2.46569061;stroke-linecap:butt;stroke-linejoin:miter;stroke-miterlimit:4;stroke-opacity:1;stroke-dasharray:none"
       d="m 264.22008,552.93082 9.7002,-2.41802"
       id="path20810-7-5"
       inkscape:connector-curvature="0" />
    <path
       style="fill:none;stroke:#000000;stroke-width:2.46569061;stroke-linecap:butt;stroke-linejoin:miter;stroke-miterlimit:4;stroke-opacity:1;stroke-dasharray:none"
       d="m 229.80738,565.13609 6.5824,0.46058 7.968,-4.7209"
       id="path20812-8-0"
       inkscape:connector-curvature="0" />
    <path
       style="fill:none;stroke:#000000;stroke-width:2.46569061;stroke-linecap:butt;stroke-linejoin:miter;stroke-miterlimit:4;stroke-opacity:1;stroke-dasharray:none"
       d="m 203.94028,473.36623 1.963,4.83605 2.6561,0.46058 0.3464,5.64205 2.7715,1.61203"
       id="path20814-4-9"
       inkscape:connector-curvature="0" />
    <path
       style="fill:none;stroke:#000000;stroke-width:2.46569061;stroke-linecap:butt;stroke-linejoin:miter;stroke-miterlimit:4;stroke-opacity:1;stroke-dasharray:none"
       d="m 208.55938,492.24987 -8.0834,1.49687 -3.1181,2.76346"
       id="path20816-4-1"
       inkscape:connector-curvature="0" />
    <path
       style="fill:none;stroke:#000000;stroke-width:2.46569061;stroke-linecap:butt;stroke-linejoin:miter;stroke-miterlimit:4;stroke-opacity:1;stroke-dasharray:none"
       d="m 215.71908,511.59408 1.6168,-5.41177 -0.693,-4.49062"
       id="path20818-4-0"
       inkscape:connector-curvature="0" />
    <path
       style="fill:none;stroke:#000000;stroke-width:2.46569061;stroke-linecap:butt;stroke-linejoin:miter;stroke-miterlimit:4;stroke-opacity:1;stroke-dasharray:none"
       d="m 221.03118,512.1698 0.3464,-5.18149 3.3489,-3.68461 3.8107,-3.10889"
       id="path20820-3-8"
       inkscape:connector-curvature="0" />
    <path
       style="fill:none;stroke:#000000;stroke-width:2.46569061;stroke-linecap:butt;stroke-linejoin:miter;stroke-miterlimit:4;stroke-opacity:1;stroke-dasharray:none"
       d="m 247.82218,495.24362 6.1204,2.99374 3.3489,-0.46057 27.8302,-9.32668"
       id="path20822-5-2"
       inkscape:connector-curvature="0" />
    <path
       style="fill:none;stroke:#000000;stroke-width:2.46569061;stroke-linecap:butt;stroke-linejoin:miter;stroke-miterlimit:4;stroke-opacity:1;stroke-dasharray:none"
       d="m 246.69338,370.2592 10.1253,13.35274 15.0247,13.35274"
       id="path20824-8-2"
       inkscape:connector-curvature="0" />
    <path
       style="fill:none;stroke:#000000;stroke-width:2.46569061;stroke-linecap:butt;stroke-linejoin:miter;stroke-miterlimit:4;stroke-opacity:1;stroke-dasharray:none"
       d="m 210.86888,362.59758 4.1573,-2.41803 1.6167,-8.8661 1.1549,7.82981 3.1178,4.7209"
       id="path20826-0-6"
       inkscape:connector-curvature="0" />
    <path
       style="fill:none;stroke:#000000;stroke-width:2.46569061;stroke-linecap:butt;stroke-linejoin:miter;stroke-miterlimit:4;stroke-opacity:1;stroke-dasharray:none"
       d="m 199.89848,344.51995 5.6584,-2.87861"
       id="path20828-2-8"
       inkscape:connector-curvature="0" />
    <path
       style="fill:none;stroke:#000000;stroke-width:2.46569061;stroke-linecap:butt;stroke-linejoin:miter;stroke-miterlimit:4;stroke-opacity:1;stroke-dasharray:none"
       d="m 211.21548,325.52117 3.0023,4.9512 1.6168,4.95119"
       id="path20830-9-9"
       inkscape:connector-curvature="0" />
    <path
       style="fill:none;stroke:#000000;stroke-width:2.46569061;stroke-linecap:butt;stroke-linejoin:miter;stroke-miterlimit:4;stroke-opacity:1;stroke-dasharray:none"
       d="m 228.88368,327.9392 3.8108,-2.87861 1.5012,-4.9512"
       id="path20832-4-7"
       inkscape:connector-curvature="0" />
    <path
       style="fill:none;stroke:#000000;stroke-width:2.46569061;stroke-linecap:butt;stroke-linejoin:miter;stroke-miterlimit:4;stroke-opacity:1;stroke-dasharray:none"
       d="m 233.61828,332.31467 3.118,-2.64831 1.3856,-3.45432"
       id="path20834-9-7"
       inkscape:connector-curvature="0" />
    <path
       style="fill:#ffffff;stroke:#000000;stroke-width:2.46569061;stroke-linecap:butt;stroke-linejoin:miter;stroke-miterlimit:4;stroke-opacity:1;stroke-dasharray:none"
       d="m 390.90028,338.59003 c 0.4085,8.81285 2.1089,12.26922 7.8525,-1.0363 l -3.984,-0.92116 z"
       id="path20836-8-8"
       inkscape:connector-curvature="0"
       sodipodi:nodetypes="cccc" />
    <path
       style="fill:#ffffff;stroke:#000000;stroke-width:2.46569061;stroke-linecap:butt;stroke-linejoin:miter;stroke-miterlimit:4;stroke-opacity:1;stroke-dasharray:none"
       d="m 382.93218,341.98679 c 2.0216,1.80664 4.1541,8.53095 5.8896,-2.36047 z"
       id="path20838-3-9"
       inkscape:connector-curvature="0"
       sodipodi:nodetypes="ccc" />
    <path
       style="fill:#ffffff;stroke:#000000;stroke-width:2.46569061;stroke-linecap:butt;stroke-linejoin:miter;stroke-miterlimit:4;stroke-opacity:1;stroke-dasharray:none"
       d="m 375.94588,359.6614 c 1.8319,-4.09193 3.3233,-13.84401 6.4667,3.85733 z"
       id="path20840-5-3"
       inkscape:connector-curvature="0"
       sodipodi:nodetypes="ccc" />
    <path
       style="fill:#ffffff;stroke:#000000;stroke-width:2.46569061;stroke-linecap:butt;stroke-linejoin:miter;stroke-miterlimit:4;stroke-opacity:1;stroke-dasharray:none"
       d="m 385.70368,364.95803 c 3.0271,1.42065 5.6251,1.27206 8.199,1.0363 -1.7452,-18.07406 -4.608,-16.08956 -8.199,-1.0363 z"
       id="path20842-0-0"
       inkscape:connector-curvature="0"
       sodipodi:nodetypes="ccc" />
    <path
       style="fill:#005fb9;fill-opacity:1;stroke:#000000;stroke-width:2.46569061;stroke-linecap:butt;stroke-linejoin:miter;stroke-miterlimit:4;stroke-opacity:1;stroke-dasharray:none"
       d="m 224.61088,376.87545 c -3.8672,5.23865 -8.0038,9.72563 -13.3954,10.70842 8.2387,3.51664 15.3568,3.12173 21.1325,-1.95746 2.1914,-3.84082 -1.6155,-9.44168 -7.7371,-8.75096 z"
       id="path20844-4-5"
       inkscape:connector-curvature="0"
       sodipodi:nodetypes="cccc" />
    <path
       style="fill:#005fb9;fill-opacity:1;stroke:#000000;stroke-width:2.46569061;stroke-linecap:butt;stroke-linejoin:miter;stroke-miterlimit:4;stroke-opacity:1;stroke-dasharray:none"
       d="m 202.49738,354.12158 c -5.8705,2.83712 -11.6278,4.88411 -16.8573,3.24753 5.645,6.94062 12.1269,9.89971 19.6112,8.09069 3.7343,-2.37946 2.9849,-9.10397 -2.7539,-11.33822 z"
       id="path20844-7-3-6"
       inkscape:connector-curvature="0"
       sodipodi:nodetypes="cccc" />
    <path
       style="fill:#005fb9;fill-opacity:1;stroke:#000000;stroke-width:2.46569061;stroke-linecap:butt;stroke-linejoin:miter;stroke-miterlimit:4;stroke-opacity:1;stroke-dasharray:none"
       d="m 192.33778,331.5431 c -3.2711,-5.62799 -6.8921,-10.53807 -12.1442,-12.10138 8.5744,-2.59964 15.6067,-1.43295 20.7924,4.24408 1.7582,4.05624 -2.6386,9.20966 -8.6482,7.8573 z"
       id="path20844-5-5-3"
       inkscape:connector-curvature="0"
       sodipodi:nodetypes="cccc" />
    <path
       style="fill:#005fb9;fill-opacity:1;stroke:#000000;stroke-width:2.46569061;stroke-linecap:butt;stroke-linejoin:miter;stroke-miterlimit:4;stroke-opacity:1;stroke-dasharray:none"
       d="m 218.69208,318.83882 c -0.7792,-6.45828 -2.1639,-12.39449 -6.3714,-15.89693 8.9075,0.98402 14.9079,4.82231 17.4269,12.07874 0.011,4.41881 -6.0684,7.42477 -11.0555,3.81819 z"
       id="path20844-5-4-2-9"
       inkscape:connector-curvature="0"
       sodipodi:nodetypes="cccc" />
    <path
       style="fill:#005fb9;fill-opacity:1;stroke:#000000;stroke-width:2.46569061;stroke-linecap:butt;stroke-linejoin:miter;stroke-miterlimit:4;stroke-opacity:1;stroke-dasharray:none"
       d="m 211.09158,461.92139 c 1.5593,-6.31627 2.3673,-12.35747 -0.328,-17.11622 7.9844,4.05838 12.2379,9.76292 12.0233,17.43876 -1.5556,4.13763 -8.3078,4.80825 -11.6953,-0.32254 z"
       id="path20844-5-1-5-7"
       inkscape:connector-curvature="0"
       sodipodi:nodetypes="cccc" />
    <path
       style="fill:#005fb9;fill-opacity:1;stroke:#000000;stroke-width:2.46569061;stroke-linecap:butt;stroke-linejoin:miter;stroke-miterlimit:4;stroke-opacity:1;stroke-dasharray:none"
       d="m 195.79218,487.05106 c -6.153,-2.16151 -12.1045,-3.55057 -17.1165,-1.33853 4.8271,-7.52904 10.9346,-11.19552 18.5754,-10.23639 3.9788,1.94604 3.9917,8.71194 -1.4589,11.57492 z"
       id="path20844-5-8-7-7"
       inkscape:connector-curvature="0"
       sodipodi:nodetypes="cccc" />
    <path
       style="fill:#005fb9;fill-opacity:1;stroke:#000000;stroke-width:2.46569061;stroke-linecap:butt;stroke-linejoin:miter;stroke-miterlimit:4;stroke-opacity:1;stroke-dasharray:none"
       d="m 201.10458,502.92261 c -3.2712,5.62799 -6.8922,10.53807 -12.1443,12.10138 8.5744,2.59963 15.6068,1.43295 20.7925,-4.24409 1.7581,-4.05623 -2.6387,-9.20965 -8.6482,-7.85729 z"
       id="path20844-5-2-7-4"
       inkscape:connector-curvature="0"
       sodipodi:nodetypes="cccc" />
    <path
       style="fill:#005fb9;fill-opacity:1;stroke:#000000;stroke-width:2.46569061;stroke-linecap:butt;stroke-linejoin:miter;stroke-miterlimit:4;stroke-opacity:1;stroke-dasharray:none"
       d="m 231.53748,512.67054 c -1.3566,6.36265 -3.2692,12.15124 -7.7747,15.26359 8.9602,-0.18404 15.2814,-3.47068 18.4425,-10.4728 0.4078,-4.40009 -5.3766,-7.93721 -10.6678,-4.79079 z"
       id="path20844-5-2-9-7-3"
       inkscape:connector-curvature="0"
       sodipodi:nodetypes="cccc" />
    <path
       style="fill:#005fb9;fill-opacity:1;stroke:#000000;stroke-width:2.46569061;stroke-linecap:butt;stroke-linejoin:miter;stroke-miterlimit:4;stroke-opacity:1;stroke-dasharray:none"
       d="m 274.72228,653.73539 c -0.822,6.45299 -2.2461,12.37995 -6.4768,15.85453 8.9139,-0.9252 14.9396,-4.7238 17.5068,-11.96345 0.04,-4.41865 -6.0191,-7.46467 -11.03,-3.89108 z"
       id="path20844-5-2-6-4-5"
       inkscape:connector-curvature="0"
       sodipodi:nodetypes="cccc"
       inkscape:transform-center-y="-32.644851"
       inkscape:transform-center-x="12.85747" />
    <path
       style="fill:#005fb9;fill-opacity:1;stroke:#000000;stroke-width:2.46569061;stroke-linecap:butt;stroke-linejoin:miter;stroke-miterlimit:4;stroke-opacity:1;stroke-dasharray:none"
       d="m 255.84148,645.47103 c -3.2712,5.62798 -6.8922,10.53806 -12.1443,12.10138 8.5744,2.59963 15.6068,1.43294 20.7924,-4.2441 1.7582,-4.05622 -2.6386,-9.20965 -8.6481,-7.85728 z"
       id="path20844-5-2-8-4-8"
       inkscape:connector-curvature="0"
       sodipodi:nodetypes="cccc" />
    <path
       style="fill:#005fb9;fill-opacity:1;stroke:#000000;stroke-width:2.46569061;stroke-linecap:butt;stroke-linejoin:miter;stroke-miterlimit:4;stroke-opacity:1;stroke-dasharray:none"
       d="m 239.43018,635.73076 c -6.5145,-0.34853 -12.6175,-0.0123 -16.8031,3.51611 2.5082,-8.5789 7.3349,-13.81029 14.9378,-15.03288 4.3671,0.75158 6.2881,7.24067 1.8653,11.51677 z"
       id="path20844-5-2-98-0-3"
       inkscape:connector-curvature="0"
       sodipodi:nodetypes="cccc" />
    <path
       style="fill:#005fb9;fill-opacity:1;stroke:#000000;stroke-width:2.46569061;stroke-linecap:butt;stroke-linejoin:miter;stroke-miterlimit:4;stroke-opacity:1;stroke-dasharray:none"
       d="m 249.31528,613.07575 c -1.576,-6.31216 -3.688,-12.03147 -8.2985,-14.98687 8.9611,-0.12449 15.3924,2.9426 18.794,9.83174 0.5599,4.38341 -5.0987,8.11753 -10.4955,5.15513 z"
       id="path20844-5-2-98-1-4-3"
       inkscape:connector-curvature="0"
       sodipodi:nodetypes="cccc" />
    <path
       style="fill:#005fb9;fill-opacity:1;stroke:#000000;stroke-width:2.46569061;stroke-linecap:butt;stroke-linejoin:miter;stroke-miterlimit:4;stroke-opacity:1;stroke-dasharray:none"
       d="m 382.12368,646.41273 c 1.4805,-6.33514 2.213,-12.38585 -0.5413,-17.11079 8.0343,3.95903 12.3585,9.61047 12.2398,17.28836 -1.504,4.15654 -8.2472,4.91081 -11.6985,-0.17757 z"
       id="path20844-5-2-98-6-1-3"
       inkscape:connector-curvature="0"
       sodipodi:nodetypes="cccc" />
    <path
       style="fill:#005fb9;fill-opacity:1;stroke:#000000;stroke-width:2.46569061;stroke-linecap:butt;stroke-linejoin:miter;stroke-miterlimit:4;stroke-opacity:1;stroke-dasharray:none"
       d="m 370.90828,669.19667 c -6.5143,-0.34853 -12.6174,-0.0123 -16.803,3.51612 2.5083,-8.5789 7.3349,-13.8103 14.9378,-15.03289 4.367,0.75158 6.2883,7.24067 1.8652,11.51677 z"
       id="path20844-5-2-98-3-1-6"
       inkscape:connector-curvature="0"
       sodipodi:nodetypes="cccc" />
    <path
       style="fill:#005fb9;fill-opacity:1;stroke:#000000;stroke-width:2.46569061;stroke-linecap:butt;stroke-linejoin:miter;stroke-miterlimit:4;stroke-opacity:1;stroke-dasharray:none"
       d="m 384.08488,683.99997 c -4.028,5.11676 -7.2577,10.29126 -6.7652,15.73428 -5.6021,-6.97498 -7.1243,-13.91946 -3.7609,-20.8272 3.1255,-3.13266 9.5562,-0.97337 10.5261,5.09292 z"
       id="path20844-5-2-98-7-5-1"
       inkscape:connector-curvature="0"
       sodipodi:nodetypes="cccc" />
    <path
       style="fill:#005fb9;fill-opacity:1;stroke:#000000;stroke-width:2.46569061;stroke-linecap:butt;stroke-linejoin:miter;stroke-miterlimit:4;stroke-opacity:1;stroke-dasharray:none"
       d="m 404.91608,671.62541 c 0.6572,6.47168 0.6089,12.5662 -2.7278,16.90185 8.4756,-2.90392 13.4881,-7.95852 14.3534,-15.5887 -0.9595,-4.31409 -7.551,-5.92062 -11.6256,-1.31315 z"
       id="path20844-5-2-98-5-4-0"
       inkscape:connector-curvature="0"
       sodipodi:nodetypes="cccc" />
  </g>
</svg>
