<?xml version="1.0" encoding="UTF-8" standalone="no"?>
<!-- Created with Inkscape (http://www.inkscape.org/) -->

<svg
   xmlns:dc="http://purl.org/dc/elements/1.1/"
   xmlns:cc="http://creativecommons.org/ns#"
   xmlns:rdf="http://www.w3.org/1999/02/22-rdf-syntax-ns#"
   xmlns:svg="http://www.w3.org/2000/svg"
   xmlns="http://www.w3.org/2000/svg"
   xmlns:sodipodi="http://sodipodi.sourceforge.net/DTD/sodipodi-0.dtd"
   xmlns:inkscape="http://www.inkscape.org/namespaces/inkscape"
   width="1091.4285"
   height="728.57141"
   id="svg4113"
   version="1.1"
   inkscape:version="0.48.4 r9939"
   sodipodi:docname="Buggenhout vlag.svg">
  <defs
     id="defs4115" />
  <sodipodi:namedview
     id="base"
     pagecolor="#ffffff"
     bordercolor="#666666"
     borderopacity="1.0"
     inkscape:pageopacity="0.0"
     inkscape:pageshadow="2"
     inkscape:zoom="0.24748737"
     inkscape:cx="173.02974"
     inkscape:cy="810.62801"
     inkscape:document-units="px"
     inkscape:current-layer="layer1"
     showgrid="false"
     fit-margin-top="0"
     fit-margin-left="0"
     fit-margin-right="0"
     fit-margin-bottom="0"
     inkscape:window-width="1600"
     inkscape:window-height="837"
     inkscape:window-x="-8"
     inkscape:window-y="-8"
     inkscape:window-maximized="1" />
  <metadata
     id="metadata4118">
    <rdf:RDF>
      <cc:Work
         rdf:about="">
        <dc:format>image/svg+xml</dc:format>
        <dc:type
           rdf:resource="http://purl.org/dc/dcmitype/StillImage" />
        <dc:title></dc:title>
      </cc:Work>
    </rdf:RDF>
  </metadata>
  <g
     inkscape:label="Laag 1"
     inkscape:groupmode="layer"
     id="layer1"
     transform="translate(325.71426,-28.076477)">
    <rect
       style="fill:#0050a1;fill-opacity:1;stroke:none"
       id="rect3960"
       width="547.14288"
       height="728.57141"
       x="-325.71426"
       y="28.076477" />
    <rect
       style="fill:#fcc309;fill-opacity:1;stroke:none"
       id="rect3962"
       width="544.28571"
       height="728.57141"
       x="221.42856"
       y="28.076477" />
    <path
       style="fill:#ffffff;fill-opacity:1;stroke:none"
       d="m 221.43099,235.57335 -138.571504,0 0,222.31785 c 6.6289,34.9102 41.337004,55.3186 80.762504,59.09392 23.1693,2.07409 44.9798,6.24826 57.809,24.30252 z"
       id="path3012-16"
       inkscape:connector-curvature="0"
       sodipodi:nodetypes="cccccc" />
    <path
       style="fill:#000000;fill-opacity:1;stroke:none"
       d="m 221.42629,235.57962 138.5714,0 0,222.31785 c -6.62891,34.9102 -41.33692,55.3186 -80.7625,59.09392 -23.1693,2.07409 -44.9797,6.24826 -57.8089,24.30252 z"
       id="path3012-1-8"
       inkscape:connector-curvature="0"
       sodipodi:nodetypes="cccccc" />
    <path
       style="fill:#800000;stroke:none"
       d="m 82.859486,235.57335 57.500004,11.42858 -30.7142,47.85714 59.4063,11.25671 -30.8349,47.67186 55.3571,9.28571 -29.9518,49.64286 57.809,12.5 -30.3572,46.78572 30.3572,9.64285 0,59.64286 c -16.3644,-20.18068 -38.8579,-21.98462 -57.809,-24.30252 l 27.4072,-44.80462 -59.2411,-9.46429 31.8339,-50 -58.441,-10.17857 33.0357,-48.57143 -55.357204,-8.03571 0,-8.21429 26.719404,-42.96464 -26.719404,-5.05077 z"
       id="path3800-5"
       inkscape:connector-curvature="0"
       sodipodi:nodetypes="cccccccccccccccccccccc" />
    <path
       style="fill:#ffffff;stroke:none"
       d="m 265.14239,318.74269 -15.1523,-26.76904 c 4.7762,-1.5151 11.8886,-0.56419 8.5863,-10.60661 -8.6495,-6.52406 -9.819,1.912 -12.6269,7.07107 -0.7985,-5.28362 1.603,-14.08715 -8.0812,-9.59645 -10.1326,3.95643 -0.1549,7.91287 3.788,11.8693 -8.8751,-3.32492 -12.8959,-1.87308 -11.8693,4.54568 -0.4355,10.88961 6.4343,6.60641 11.8693,5.3033 -3.5542,1.96514 -8.3719,1.93881 -9.5964,7.57615 3.0826,8.80178 7.3972,2.82019 11.3642,1.01015 l 1.0101,5.3033 c -8.779,2.66162 -3.6535,7.64066 1.5153,12.62691 5.082,8.03942 6.1936,2.40255 7.071,-4.04061 l 7.3236,6.81853 c -1.9129,9.90701 -7.2566,11.237 -11.8692,14.39467 5.4716,3.19451 10.9433,2.14945 16.4149,-2.27284 -2.2822,5.24018 -5.163,9.13334 -9.3439,10.10152 5.5474,4.18528 9.7116,4.49763 12.8795,2.02031 -8.2999,1.38163 -15.0224,12.22815 -22.4759,18.68782 -11.554,-6.73382 -15.5217,-4.56208 -16.1625,1.51523 2.0208,1.73504 1.166,5.46091 8.8389,3.28299 -5.6735,2.27168 -4.8782,5.92954 -4.0406,9.59645 2.9462,4.60826 5.8925,2.82557 8.8388,-3.03045 -0.3784,3.10769 -1.5726,6.07942 3.5355,10.10152 6.036,-0.38956 7.1002,-3.4112 5.0508,-8.08122 1.4293,3.3166 3.8143,5.9715 11.3642,5.05076 2.5974,-7.00714 -1.5688,-6.57435 -3.283,-8.83883 2.6815,-2.78626 5.3597,-5.50577 7.5762,1.01015 3.5933,-2.88796 2.8402,-5.41372 0.7576,-7.82868 3.6093,-0.98588 6.4049,-0.0731 8.5863,2.27284 1.1731,-2.35702 1.7939,-4.71405 -1.2627,-7.07107 l 5.8083,-7.3236 c 0.332,5.23197 -0.4555,10.03342 5.7899,17.53979 6.5321,7.09052 6.2321,8.97559 2.7964,8.47164 l -5.3033,-0.25254 2.2729,5.3033 -14.6472,4.79822 c -5.7154,1.87831 -12.1398,1.62976 -15.1523,11.61676 -2.9406,7.85561 -8.6935,6.96195 -15.9099,1.51523 -0.7206,2.38755 -2.1361,4.72877 4.0406,7.57614 3.417,7.50217 -0.7312,8.79105 -4.5457,10.35407 4.5772,1.95682 8.7491,1.48172 12.3744,-2.27285 3.5521,-0.54932 8.3647,-2.62913 5.5558,4.54569 -3.8017,5.93592 -7.1038,13.37036 -13.637,11.11168 -2.884,-4.58275 -5.4011,-11.36722 -10.1016,-5.05077 -4.4516,3.19572 -1.9128,6.68271 5.0508,10.35407 -3.6842,0.96514 -8.9133,0.17938 -5.8084,8.83883 3.9549,7.93895 6.494,1.01192 9.5965,0 -0.5653,4.04724 -7.0668,7.88979 5.0507,12.37437 2.682,-0.44437 3.652,-4.31273 2.5254,-12.37437 2.8794,3.97265 3.1812,11.81155 10.3541,9.34391 5.1196,-3.11464 2.5515,-6.22927 -0.2526,-9.34391 3.7701,2.22795 7.7423,6.37655 10.6066,0 3.8795,-7.29571 -1.7537,-7.33929 -5.8083,-8.58629 2.3213,-2.3731 1.2863,-11.79444 7.8286,-5.30331 -0.1756,-2.47486 0.1804,-5.28796 -5.0507,-4.54568 3.407,-2.14885 6.7147,-4.39701 7.3236,-9.34391 -4.3807,0.8014 -4.6068,-0.47454 -4.2932,-2.02031 3.7119,-1.64753 2.4076,-4.7999 1.5153,-7.82868 0.8012,4.5738 4.8045,6.26569 10.354,6.56599 0.077,7.61869 -1.8501,11.09516 -6.0609,9.84899 2.4536,4.7909 4.3044,1.74604 6.3135,0.75761 -3.3381,3.95643 0.9973,7.91287 4.5457,11.8693 0.5259,-4.50238 -0.033,-10.07595 7.071,-8.08122 3.0027,4.55569 6.36554,8.88223 4.29317,16.66751 -0.78817,7.1459 -2.25787,12.67294 -6.81857,10.85914 -5.9383,-6.44602 -9.7391,-6.21224 -11.8693,-0.75761 1.9518,3.66916 4.6273,6.70508 10.3541,7.07107 -5.7311,0.2588 -7.6667,2.52693 -5.3033,7.07106 4.2101,2.97338 8.033,3.91343 10.3541,-3.03045 -2.4922,5.56762 1.8783,7.0681 7.07104,8.08122 6.93019,-2.43983 2.60368,-5.44249 0.50508,-8.33376 3.6195,3.81774 7.84655,5.03612 13.8896,-1.51523 4.16867,-7.01823 -3.73358,-5.41438 -7.07107,-7.07107 3.1524,1.60255 5.9045,-0.39762 8.5863,-3.03046 -2.58,-0.11374 -5.70179,0.31431 -5.55584,-2.52538 3.23132,-1.39771 6.97214,1.02581 9.34391,-6.81853 l -7.57614,0 c 4.65435,-2.12717 10.42775,-3.54221 10.10152,-8.83883 -14.36119,-2.09598 -7.14677,-10.43424 0.75762,-11.8693 -5.03883,-1.53704 -8.02237,-4.19515 -7.82869,-8.58629 -3.11348,1.8121 -13.13179,4.32354 -9.59645,-5.05076 2.79813,-6.06092 3.30173,-12.12183 2.77792,-18.18275 4.19383,0.59336 13.08084,-2.985 6.06092,7.57614 -1.17942,7.47005 2.54742,13.72557 10.6066,10.10153 -4.28104,-0.88394 -5.73237,-3.74867 -3.28299,-9.34391 3.58864,-4.96658 4.98691,-9.93317 2.52538,-14.89975 8.95214,-5.84377 5.58842,-19.60487 5.80837,-31.06219 1.49828,5.4549 4.99966,9.5744 9.34391,13.13198 -2.34176,-5.47166 -3.51021,-10.94332 -2.52538,-16.41498 6.53018,-12.87433 1.48951,-24.09568 -8.58629,-34.59772 -4.25853,-6.74589 -6.93157,-14.02028 -8.33376,-21.71828 0.0847,-8.89008 8.67904,-2.60625 7.07107,7.57614 6.51883,-9.0452 1.28404,-12.70334 -3.283,-16.66752 0.58897,-18.66324 -6.99327,-17.77988 -8.08122,-16.66751 5.39542,5.27418 3.85283,11.47343 2.27284,17.67767 -2.14965,8.26908 -1.28353,18.04606 6.06092,31.06219 3.47484,5.95291 8.98988,11.04247 8.08122,22.47589 -3.55171,10.86846 -12.47481,5.5834 -12.62691,-0.50507 -1.04391,-7.51487 0.57681,-12.12677 7.82868,-20.20306 5.62626,-4.59084 13.88849,-18.65129 13.58105,-31.42241 1.02058,1.39249 3.72635,2.84907 1.13432,10.48318 -1.63923,4.82789 2.75135,9.81958 4.98261,11.34279 -1.05319,-4.03935 -4.11909,-5.39508 -1.26269,-14.64722 2.7751,-8.37809 1.98492,-13.40618 -6.06092,-11.61675 -3.19894,-12.23512 -14.53188,-9.20792 -10.10152,2.0203 0.6092,-8.81877 8.58946,-5.62168 6.56599,2.27285 l -1.26269,9.84898 c -1.75327,8.86493 -6.34811,12.61505 -10.35407,17.42514 -8.4257,6.25215 -13.66559,14.62819 -12.12183,27.52665 0.93274,7.48616 2.35938,15.10702 -1.76776,21.21321 4.83914,-1.65369 7.30002,-5.6766 5.80837,-13.63706 4.413,-0.74082 14.06774,34.06701 -11.61675,30.80965 -0.52463,-14.47897 2.28256,-25.86411 -4.29315,-45.96194 l 4.29315,-1.26269 -1.26269,-9.09137 8.5863,-2.77792 -4.04061,-13.63706 4.79822,-4.04061 -4.29315,-7.57615 5.05077,-8.08122 -4.54569,-0.75761 c 2.96705,-7.66603 7.86052,-16.99379 -4.29315,-11.61676 2.52935,-2.15588 -12.21767,-9.48185 -20.96067,-10.85914 l -3.0305,3.03046 c -3.6427,1.01353 -12.2341,-0.8438 -8.3337,4.54569 l -0.5051,10.35406 c 8.2928,-5.34129 22.2016,6.0479 8.5863,12.37437 l -4.2931,-5.3033 -2.5254,3.28299 -3.283,-1.01015 2.2728,5.55584 z"
       id="path3802-7"
       inkscape:connector-curvature="0"
       sodipodi:nodetypes="cccccccccccccccccccccccccccccccccccccccccccccccccccccccccccccccccccccccccccccccccccccccccccccccccccccsccccccccccccccccccccccccccccccc" />
    <path
       style="fill:none;stroke:#000000;stroke-width:2.0999999;stroke-linecap:butt;stroke-linejoin:miter;stroke-miterlimit:4;stroke-opacity:1;stroke-dasharray:none"
       d="m 255.35949,355.93049 c 9.4259,2.33173 18.5781,-3.79618 23.75,-13.74999 3.0961,5.71428 0.7053,11.42857 -1.7857,17.14285 5.758,-4.3299 11.3047,-8.79563 10.5357,-17.32142 1.4523,5.59617 2.7043,11.22315 10.1786,15.89285 -0.5928,-3.69048 -4.6242,-13.63095 -0.8928,-17.32143 3.991,6.16398 8.39655,8.59734 12.8571,10.53572"
       id="path3804-6"
       inkscape:connector-curvature="0"
       sodipodi:nodetypes="ccccccc" />
    <path
       style="fill:#ffffff;stroke:#000000;stroke-width:1px;stroke-linecap:butt;stroke-linejoin:miter;stroke-opacity:1"
       d="m 286.22929,286.29154 c 2.5789,-2.07028 5.8538,-2.05251 11.1117,3.91434 -3.9014,0.73599 -8.1514,5.07404 -11.1117,-3.91434 z"
       id="path3806-1"
       inkscape:connector-curvature="0"
       sodipodi:nodetypes="ccc" />
    <path
       sodipodi:type="arc"
       style="fill:#000000;fill-opacity:1;stroke:none"
       id="path3808-8"
       sodipodi:cx="82.138031"
       sodipodi:cy="352.2002"
       sodipodi:rx="2.4622469"
       sodipodi:ry="2.5253813"
       d="m 84.600278,352.2002 c 0,1.39472 -1.102386,2.52538 -2.462247,2.52538 -1.359861,0 -2.462247,-1.13066 -2.462247,-2.52538 0,-1.39473 1.102386,-2.52539 2.462247,-2.52539 1.359861,0 2.462247,1.13066 2.462247,2.52539 z"
       transform="translate(208.57379,-64.645978)" />
    <path
       sodipodi:type="arc"
       style="fill:#ffffff;fill-opacity:1;stroke:none"
       id="path3810-9"
       sodipodi:cx="81.380417"
       sodipodi:cy="351.63199"
       sodipodi:rx="0.66291261"
       sodipodi:ry="0.75761443"
       d="m 82.043329,351.63199 c 0,0.41842 -0.296796,0.75761 -0.662912,0.75761 -0.366117,0 -0.662913,-0.33919 -0.662913,-0.75761 0,-0.41842 0.296796,-0.75762 0.662913,-0.75762 0.366116,0 0.662912,0.3392 0.662912,0.75762 z"
       transform="translate(208.57379,-64.645978)" />
    <path
       style="fill:none;stroke:#000000;stroke-width:2.0999999;stroke-linecap:butt;stroke-linejoin:miter;stroke-miterlimit:4;stroke-opacity:1;stroke-dasharray:none"
       d="m 296.43099,297.53764 c 2.7492,3.18452 3.4706,6.36905 2.4107,9.55357 l -3.3036,-1.51786 c 1.1412,3.11048 2.4034,6.21165 0.5357,9.55358 l -4.0178,-2.32143 c 0.5978,6.64207 -0.7624,9.36806 -2.7679,10.80357 l -3.0357,-6.51786"
       id="path3812-2"
       inkscape:connector-curvature="0"
       sodipodi:nodetypes="ccccccc" />
    <path
       style="fill:none;stroke:#000000;stroke-width:2.0999999;stroke-linecap:butt;stroke-linejoin:miter;stroke-miterlimit:4;stroke-opacity:1;stroke-dasharray:none"
       d="m 258.57639,332.63229 c 0.9344,-6.18719 3.1263,-12.37437 10.7329,-18.56156"
       id="path3814-7"
       inkscape:connector-curvature="0"
       sodipodi:nodetypes="cc" />
    <path
       style="fill:none;stroke:#000000;stroke-width:2.0999999;stroke-linecap:butt;stroke-linejoin:miter;stroke-miterlimit:4;stroke-opacity:1;stroke-dasharray:none"
       d="m 292.14529,386.64478 c 1.5288,6.0261 2.6593,11.98191 -3.75,16.60715 -10.4647,12.08233 -6.968,19.52167 -5.5358,24.82142"
       id="path3816-9"
       inkscape:connector-curvature="0"
       sodipodi:nodetypes="ccc" />
    <path
       style="fill:#fddc35;fill-opacity:1;stroke:none"
       d="m 288.03809,279.23407 -0.1786,-8.75 -2.5,-6.875 10.2679,1.78571 -0.4464,6.33929 c -3.0007,4.72891 3.0863,7.20431 5.71426,2.14286 l -0.35715,-5.26786 6.07143,-3.21429 3.92858,6.78572 -4.55358,4.19643 c -4.37681,4.40512 4.22156,8.56671 6.42858,3.30357 l 4.55357,-4.73215 8.75,4.55358 -8.57143,3.125 -7.14286,7.76785 c -6.07321,-5.26418 -13.704,-8.60172 -21.9643,-11.16071 z"
       id="path3818-5"
       inkscape:connector-curvature="0"
       sodipodi:nodetypes="cccccccccccccccc" />
    <path
       style="fill:#fddc35;fill-opacity:1;stroke:none"
       d="m 229.64529,275.48407 c 4.5995,0.14183 5.3615,3.35364 6.5178,6.25 2.8062,3.32382 5.949,0.048 4.375,-1.60714 -0.055,-1.88917 -3.0395,-9.31081 -10.8928,-4.64286 z"
       id="path3820-43"
       inkscape:connector-curvature="0"
       sodipodi:nodetypes="cccc" />
    <path
       style="fill:#fddc35;fill-opacity:1;stroke:none"
       d="m 252.87099,273.06163 c 3.5462,2.93255 2.1786,5.93688 1.3159,8.93383 0.1784,4.34634 4.6697,3.68597 4.4414,1.41336 1.1153,-1.5258 3.3087,-9.21858 -5.7573,-10.34719 z"
       id="path3820-7-1"
       inkscape:connector-curvature="0"
       sodipodi:nodetypes="cccc" />
    <path
       style="fill:#fddc35;fill-opacity:1;stroke:none"
       d="m 223.16689,296.67103 c 3.8048,-2.58826 6.3088,-0.43742 8.9465,1.22646 4.2238,1.04016 4.8415,-3.45724 2.5953,-3.87142 -1.1544,-1.4964 -7.9309,-5.74711 -11.5418,2.64496 z"
       id="path3820-4-2"
       inkscape:connector-curvature="0"
       sodipodi:nodetypes="cccc" />
    <path
       style="fill:#fddc35;fill-opacity:1;stroke:none"
       d="m 229.79619,316.92599 c 0.4203,-4.58244 3.6724,-5.1484 6.6335,-6.12707 3.4878,-2.59958 0.4085,-5.93513 -1.339,-4.46436 -1.889,-0.0599 -9.4779,2.46957 -5.2945,10.59143 z"
       id="path3820-0-3"
       inkscape:connector-curvature="0"
       sodipodi:nodetypes="cccc" />
    <path
       style="fill:#fddc35;fill-opacity:1;stroke:none"
       d="m 235.86319,326.87096 c 4.5995,-0.14183 5.3615,-3.35364 6.5179,-6.25 2.8061,-3.32382 5.9489,-0.048 4.375,1.60714 -0.055,1.88917 -3.0395,9.31081 -10.8929,4.64286 z"
       id="path3820-9-3"
       inkscape:connector-curvature="0"
       sodipodi:nodetypes="cccc" />
    <path
       style="fill:#fddc35;fill-opacity:1;stroke:none"
       d="m 227.51309,382.69037 c 0.094,-4.60071 3.2984,-5.39569 6.1827,-6.58173 3.2948,-2.84019 -0.013,-5.94915 -1.652,-4.35826 -1.8885,0.0741 -9.2791,3.13499 -4.5307,10.93999 z"
       id="path3820-48-4"
       inkscape:connector-curvature="0"
       sodipodi:nodetypes="cccc" />
    <path
       style="fill:#fddc35;fill-opacity:1;stroke:none"
       d="m 236.11969,394.85461 c -1.7584,-4.25246 0.8576,-6.26556 3.0242,-8.50876 1.8793,-3.92313 -2.3978,-5.44453 -3.2611,-3.32992 -1.7003,0.82521 -7.243,6.59309 0.2369,11.83868 z"
       id="path3820-8-1"
       inkscape:connector-curvature="0"
       sodipodi:nodetypes="cccc" />
    <path
       style="fill:#fddc35;fill-opacity:1;stroke:none"
       d="m 249.73729,400.49711 c -3.6408,-2.81433 -2.3727,-5.86202 -1.609,-8.88573 -0.3212,-4.33811 -4.7884,-3.53039 -4.4855,-1.26652 -1.0645,1.56165 -3.0037,9.32241 6.0945,10.15225 z"
       id="path3820-2-1"
       inkscape:connector-curvature="0"
       sodipodi:nodetypes="cccc" />
    <path
       style="fill:#fddc35;fill-opacity:1;stroke:none"
       d="m 257.89089,397.87268 c 2.5002,-3.86321 0.2925,-6.31722 -1.4315,-8.91604 -1.1369,-4.1988 3.3451,-4.9196 3.8108,-2.68352 1.5225,1.11979 5.9277,7.79692 -2.3793,11.59956 z"
       id="path3820-45-3"
       inkscape:connector-curvature="0"
       sodipodi:nodetypes="cccc" />
    <path
       style="fill:#fddc35;fill-opacity:1;stroke:none"
       d="m 227.78079,440.70867 c 3.6448,-2.80905 6.2719,-0.81028 9.0035,0.69447 4.278,0.78819 4.6282,-3.73789 2.3615,-4.01832 -1.2411,-1.4254 -8.2574,-5.26734 -11.365,3.32385 z"
       id="path3820-5-8"
       inkscape:connector-curvature="0"
       sodipodi:nodetypes="cccc" />
    <path
       style="fill:#fddc35;fill-opacity:1;stroke:none"
       d="m 231.93189,463.17693 c -0.431,-4.58145 2.6612,-5.73678 5.3913,-7.24416 2.9493,-3.19756 -0.6918,-5.90881 -2.1384,-4.14131 -1.8678,0.28905 -8.8608,4.1732 -3.2529,11.38547 z"
       id="path3820-1-7"
       inkscape:connector-curvature="0"
       sodipodi:nodetypes="cccc" />
    <path
       style="fill:#fddc35;fill-opacity:1;stroke:none"
       d="m 249.71069,474.17224 c -3.7135,-2.71762 -2.526,-5.7976 -1.8421,-8.84034 -0.4352,-4.32817 -4.8796,-3.40325 -4.5172,-1.14813 -1.0231,1.5891 -2.7575,9.39817 6.3593,9.98847 z"
       id="path3820-71-4"
       inkscape:connector-curvature="0"
       sodipodi:nodetypes="cccc" />
    <path
       style="fill:#fddc35;fill-opacity:1;stroke:none"
       d="m 264.20409,471.54701 c -4.4269,-1.25614 -4.385,-4.55684 -4.8023,-7.64746 -1.9136,-3.90647 -5.7587,-1.4933 -4.6345,0.49493 -0.4064,1.84574 0.6839,9.77045 9.4368,7.15253 z"
       id="path3820-15-2"
       inkscape:connector-curvature="0"
       sodipodi:nodetypes="cccc" />
    <path
       style="fill:#fddc35;fill-opacity:1;stroke:none"
       d="m 271.56829,466.2453 c 1.5156,-4.34492 -1.2099,-6.20717 -3.4996,-8.32453 -2.0976,-3.81082 2.0868,-5.57117 3.068,-3.50865 1.7442,0.72794 7.6036,6.17382 0.4316,11.83318 z"
       id="path3820-27-7"
       inkscape:connector-curvature="0"
       sodipodi:nodetypes="cccc" />
    <path
       style="fill:#fddc35;fill-opacity:1;stroke:none"
       d="m 276.13309,470.62941 c 2.8367,-3.62329 5.8765,-2.33642 8.8955,-1.55408 4.34,-0.29445 3.5599,-4.76653 1.2942,-4.47757 -1.5551,-1.07414 -9.3037,-3.06123 -10.1897,6.03165 z"
       id="path3820-6-7"
       inkscape:connector-curvature="0"
       sodipodi:nodetypes="cccc" />
    <path
       style="fill:#fddc35;fill-opacity:1;stroke:none"
       d="m 285.26889,486.35031 c 0.4734,-4.57727 3.7318,-5.10553 6.704,-6.04985 3.5177,-2.55901 0.4772,-5.93 -1.2872,-4.47957 -1.8882,-0.0818 -9.5059,2.35965 -5.4168,10.52942 z"
       id="path3820-14-9"
       inkscape:connector-curvature="0"
       sodipodi:nodetypes="cccc" />
    <path
       style="fill:#fddc35;fill-opacity:1;stroke:none"
       d="m 299.40339,493.17368 c -0.8108,-4.52968 2.17451,-5.93839 4.76974,-7.66779 2.67285,-3.43195 -1.18124,-5.83071 -2.47576,-3.94893 -1.83718,0.44351 -8.48268,4.89626 -2.29398,11.61672 z"
       id="path3820-23-3"
       inkscape:connector-curvature="0"
       sodipodi:nodetypes="cccc" />
    <path
       style="fill:#fddc35;fill-opacity:1;stroke:none"
       d="m 320.97028,484.37116 c -0.92477,-4.5078 -4.21951,-4.71047 -7.27073,-5.35551 -3.754,-2.19772 -1.06263,-5.85349 0.83686,-4.58511 1.87078,-0.26853 9.69295,1.40576 6.43387,9.94062 z"
       id="path3820-22-1"
       inkscape:connector-curvature="0"
       sodipodi:nodetypes="cccc" />
  </g>
</svg>
