<?xml version="1.0"?>
<svg xmlns="http://www.w3.org/2000/svg" version="1.1"
 xmlns:xlink="http://www.w3.org/1999/xlink"
 width="600" height="400" viewBox="0 0 72 48">

<rect fill="#fcdd09" width="72" height="48"/>
<path stroke="#da121a" stroke-width="48" stroke-dasharray="8,8" d="M8,24 H64"/>

<g id="bord1">
<path id="bord2" fill="#0f47af" d="M0,0 V3 H6 a3,3 0 0 1 3,3 a3,3 0 0 1 6,0 a3,3 0 0 1 6,0 a3,3 0 0 1 6,0 a3,3 0 0 1 6,0 a3,3 0 0 1 6,0 a3,3 0 0 1 6,0 a3,3 0 0 1 6,0 a3,3 0 0 1 6,0 a3,3 0 0 1 6,0 a3,3 0 0 1 3,-3 h6 V0 z"/>
<use transform="matrix(0 1 1 0 0 -12)" xlink:href="#bord2"/>
</g>
<use transform="matrix(-1 0 0 -1 72 48)" xlink:href="#bord1"/>

</svg>