<?xml version="1.0" encoding="UTF-8" standalone="no"?>
<svg xmlns="http://www.w3.org/2000/svg" width="601.13959" height="401.01947">
  <path fill="#c8272c" d="M0 0h600.78461v400.87161H0z"/>
  <path fill="#e6e6e6" d="M88.854037 401.32395c-.31303-.40277-.976114-1.82416-1.294713-2.77552-.789009-2.35594-.863086-5.20981-.204064-7.86111.783896-3.15356 2.745462-6.0635 5.21716-7.73951 2.200687-1.49228 4.796541-2.21086 7.665646-2.12212 1.630184.0502 2.785445.25359 4.27183.75147 2.130985.71367 4.28144 2.10686 5.685249 3.68322.6936912.77899.6885659.77438.5022422.45357-.081985-.14109-.2738052-.54549-.4262022-.89842-1.368323-3.16857-1.466135-6.76774-.27759-10.21316.7991513-2.31652 2.1898768-4.36534 3.9710782-5.85018.997817-.83178 1.7638332-1.29451 2.9959138-1.8097 1.0950281-.45786 1.922408-.69204 3.12357653-.88411.94860595-.15166 3.24314077-.14551 4.15206557.0107 2.4759934.42665 4.3388596 1.17545 6.2090534 2.49577.8130655.574 1.8648585 1.55386 2.4253805 2.25955.219929.27697.269801.26397.09299-.0222-.219829-.35813-.657604-1.40282-.876791-2.09251-.459357-1.44538-.618213-2.51778-.622588-4.2033-.01411-5.32986 2.937534-10.26439 7.346897-12.28347 1.825317-.83584 3.945581-1.2499 5.999275-1.17154 3.920715.14958 7.572681 1.78286 9.933044 4.44241.248819.28036.478868.53601.511242.56818.03264.0318-.0959-.27113-.284966-.67382-.616251-1.31242-.984134-2.62947-1.176893-4.2133-.113599-.93328-.05756-2.85957.112487-3.86673.774093-4.5853 3.549228-8.37395 7.349168-10.0332.943981-.41218 1.394559-.56249 2.331123-.77768 4.071901-.93548 8.680152.11012 11.928918 2.70664.598753.47853 1.482821 1.34013 1.995554 1.94483l.13502.15924-.111705-.19844c-.23098-.41016-.661217-1.42929-.878033-2.07967-1.214563-3.64355-.716195-8.15501 1.272482-11.51899 2.043905-3.45741 5.139383-5.53917 9.084582-6.10954 1.09614-.15846 3.00093-.13975 4.105458.0401 3.198024.52144 6.063522 2.00999 8.09155 4.20334.30843.33355.568301.60013.5775.59238.009-.008-.121386-.30197-.290191-.65376-.385671-.80375-.766667-1.9626-.983092-2.9902-.238838-1.13406-.295598-3.46171-.114039-4.67636.620325-4.14982 2.773683-7.64552 5.937322-9.63844 2.057538-1.29614 4.993629-2.02649 7.549777-1.87803 3.850381.22367 7.268354 1.80348 9.713222 4.48957.48635.53429.57939.62212.47175.44526-.18081-.2971-.70182-1.53652-.88831-2.1131-.897307-2.77443-.852712-6.0179.12206-8.87601 1.32395-3.88194 4.02358-6.75564 7.56027-8.04772 4.15885-1.5194 9.23585-.79343 12.92349 1.84792.92277.66095 1.74704 1.42183 2.53487 2.33995.13266.15461.13296.15369.0152-.0546-.24538-.43328-.63284-1.34967-.86004-2.03412-1.74266-5.24944.0122-11.55206 4.17206-14.98431.9421-.77732 1.8607-1.32633 3.01359-1.80118 1.61543-.66535 3.15899-.95615 5.10438-.96162 3.99986-.0107 7.85618 1.64986 10.36195 4.46338.28296.31763.52413.58715.53605.59888.0118.0111-.14979-.34834-.35934-.80021-.43978-.9483-.83165-2.18004-1.02891-3.23418-.17111-.91435-.19621-3.75544-.0407-4.61816.63854-3.54387 2.08635-6.2554 4.43265-8.30162 1.91721-1.67204 4.16699-2.63738 6.834-2.93236.88105-.0974 2.96818-.0457 3.78245.0938 1.85808.31834 3.44772.88528 5.0384 1.79694.89898.5152 2.34931 1.70024 3.06632 2.50538.67398.75689.68791.77024.53098.51013-.21759-.36062-.72271-1.54736-.91755-2.15548-1.07253-3.34815-.79875-7.19853.74127-10.42575 1.52018-3.18558 3.78249-5.20533 7.21439-6.44088 1.5323-.55164 2.95585-.79851 4.60468-.79851.69117 0 1.44989.037 1.75225.0848 3.81259.60673 6.99038 2.42212 8.83636 5.04806 2.56299 3.64582 3.30584 8.36747 1.97174 12.53221-.19482.60812-.69997 1.79483-.91754 2.15548-.15693.26012-.143.24676.53098-.51012.717-.80515 2.16733-1.99018 3.06631-2.50539 1.59069-.91166 3.18031-1.47858 5.03841-1.79694.81427-.13952 2.90139-.19128 3.78245-.0938 2.667.29497 4.9168 1.26032 6.834 2.93235 2.3463 2.04623 3.79411 4.75776 4.43266 8.30163.15541.86272.13038 3.70381-.0407 4.61815-.19729 1.05414-.58914 2.28589-1.02892 3.23418-.20954.45185-.37125.81195-.35934.80021.0118-.0111.25312-.2812.53606-.59887 2.50574-2.81353 6.36208-4.47462 10.36194-4.46338 1.94538.006 3.48895.29628 5.10437.96162 1.15291.47485 2.07149 1.02386 3.01359 1.80118 4.15987 3.43225 5.91471 9.73487 4.17207 14.98431-.2272.68445-.61467 1.60084-.86005 2.03412-.11789.20826-.11763.20919.0152.0546 1.68289-1.96117 3.64066-3.30776 6.03936-4.15392 3.49338-1.23234 7.52801-1.05064 10.63746.47907 5.59759 2.7537 8.49872 10.11918 6.46386 16.41071-.18649.57658-.70756 1.81601-.88834 2.11311-.10751.17683-.0148.089.47175-.44527.65588-.72059 1.3641-1.36034 2.01858-1.82355 3.56204-2.52082 8.00654-3.30693 12.14693-2.14847 4.78779 1.33956 8.21454 5.51123 9.03483 10.99893.1813 1.21464.12458 3.54229-.11382 4.67634-.21652 1.02761-.59744 2.18646-.98309 2.99022-.16907.35178-.2992.64599-.2903.65375.0111.008.26879-.25882.57748-.59238 2.02804-2.19335 4.89354-3.6819 8.0916-4.20334 1.10447-.18007 3.00928-.19881 4.10542-.0402 3.94517.57036 7.04065 2.65212 9.08459 6.10953 1.4158 2.39495 2.15835 5.72187 1.89062 8.47079-.18019 1.85252-.74888 3.80069-1.49614 5.12787l-.11197.19845.13495-.15924c2.58826-3.05246 6.22541-4.80232 10.34821-4.97859 3.24444-.13877 6.36601.88342 8.69881 2.84846 2.35394 1.98277 3.99778 4.97255 4.55778 8.28954.17017 1.00716.22616 2.93345.11233 3.86673-.19279 1.58382-.56065 2.90087-1.17688 4.2133-.18909.40271-.31737.70594-.28511.67381.0333-.0319.26248-.28785.51119-.56818.60389-.68036 1.23006-1.24009 2.01403-1.80032 4.04231-2.88848 9.55085-3.4705 13.91835-1.47054 4.4094 2.01907 7.3608 6.9536 7.34689 12.28347-.004 1.68552-.16313 2.75791-.62256 4.2033-.21913.6897-.65699 1.73447-.87684 2.09251-.17648.28811-.1268.30074.0931.0222.56047-.70563 1.61231-1.68549 2.42534-2.25951 1.87021-1.32032 3.73305-2.06911 6.20908-2.49576.90886-.15662 3.2034-.16278 4.15201-.0107 1.20123.19206 2.02857.42624 3.12358.8841 1.2321.51519 1.99812.97792 2.99597 1.8097 4.10645 3.42324 5.84566 9.6325 4.15765 14.84409-.20985.64717-.66398 1.72789-.89037 2.11766-.18649.32078-.19131.32524.50224-.45352 1.40378-1.5764 3.55428-2.96955 5.68523-3.68326 1.48641-.49777 2.64163-.70105 4.27188-.75147 3.92624-.1214 7.43678 1.317 9.81573 4.02194 1.74978 1.98964 2.83457 4.29748 3.33311 7.09108.16385.91928.22393 2.98241.11344 3.91532-.21727 1.8392-.80136 3.64078-1.63953 5.05869l-.30921.52355-211.62025.0148-211.620265.0148-.112227-.14443zM10.14968 347.712c-1.26113-.092-3.00469-.503-4.25448-1.00272-2.28116-.9121-4.15342-2.30802-5.60061-4.1757l-.39174-.50559V59.1238l.39174-.50556c1.44418-1.86382 3.32043-3.26408 5.58876-4.17096 3.11885-1.24692 6.63186-1.37869 9.71996-.36464 5.093657 1.67268 8.602456 6.87863 8.602456 12.76331 0 2.23456-.364795 3.93266-1.248574 5.81205-.182186.38745-.307531.68079-.278535.65191.02903-.0289.289061-.31244.577927-.63008.971944-1.06881 1.980028-1.8592 3.310907-2.59602 2.004352-1.10964 4.170424-1.69681 6.566662-1.7801 4.011877-.13941 7.591327 1.3726 10.020055 4.23269 2.772923 3.26538 3.93387 7.83041 3.063844 12.04745-.242214 1.17394-.60911 2.2243-1.176879 3.36907-.146672.29576-.129467.28268.423158-.3209 2.06333-2.25353 4.837973-3.73801 7.989719-4.27461.974224-.16588 2.903666-.22893 3.831656-.12527 4.20255.46958 7.390253 2.53724 9.573366 6.20967 1.716543 2.88758 2.335048 6.82725 1.599856 10.19048-.245292 1.12213-.765648 2.53602-1.244609 3.38179-.118123.20858-.117863.2094.0152.0527 2.220248-2.61847 5.166007-4.27372 8.629628-4.84909.964996-.16036 2.972019-.19578 3.969757-.0701.941811.11858 2.321042.45694 3.123561.76619 4.819727 1.85747 8.083557 6.94689 8.073135 12.58878-.0044 2.2314-.374037 3.94777-1.254274 5.81963-.182189.38745-.307913.68078-.279364.6519.02856-.0289.25545-.28214.504209-.56282 1.967682-2.21956 4.771827-3.71498 8.070856-4.30406.834585-.14903 2.901172-.19942 3.882052-.0947 1.723501.18404 3.673067.82461 5.106707 1.67794 4.6780024 2.78443 7.2218163 9.12174 5.9315853 14.7771-.2212299.96966-.5905137 2.03067-.9718501 2.79225-.2840352.56728-.3116238.70759-.080183.40741.2639343-.34221 1.3177596-1.39994 1.684641-1.69083 2.0273571-1.60755 4.3979511-2.63519 6.95958354-3.01697.62351806-.0929 1.20561316-.13043 2.01889836-.13013 1.258358 0 1.9026576.0652 3.0473874.30612 5.0430014 1.06148 8.7937104 5.22521 9.7600444 10.83475.162469.94327.220559 2.93427.112417 3.85065-.205554 1.74059-.821164 3.73706-1.497817 4.85747-.166653.27592-.136802.24845.4242-.39055 2.359453-2.6876 5.893736-4.34824 9.766361-4.58891.720209-.0448 2.277598.0505 3.081974.18824 1.541963.26431 3.252981.90607 4.491678 1.68477 3.723621 2.34079 6.068958 6.82012 6.06046 11.57484-.004 2.25276-.369264 3.94578-1.25986 5.83964-.182179.38744-.30843.68077-.280542.6519.02782-.0289.303986-.33601.613618-.68264 2.397062-2.68305 6.294773-4.35558 10.171963-4.36486 1.35738-.003 2.193369.0907 3.428303.38538 5.487944 1.30939 9.303179 6.31095 9.61096 12.59942.106621 2.17889-.443642 4.73262-1.42255 6.60187-.122357.23357-.163459.3539-.09149.26735 1.874728-2.25248 4.507524-3.87205 7.444697-4.57961 1.222822-.29458 1.968697-.38152 3.314025-.38643 2.144549-.008 3.6567.29194 5.494821 1.08906 3.779298 1.63885 6.525182 5.37567 7.34994 10.00237.161838.90783.224082 3.05286.114639 3.95123-.181969 1.49393-.610034 2.99082-1.216925 4.25528-.167364.34874-.277959.60867-.245706.57756.03224-.0311.226866-.2443.43243-.47371 1.840623-2.05408 4.23427-3.4612 7.026313-4.13041 3.097379-.74244 6.281299-.47064 8.980644.76664 4.352394 1.99498 7.337374 6.90087 7.337374 12.05916 0 5.15831-2.98498 10.06416-7.337374 12.05915-2.699335 1.23729-5.883265 1.50911-8.980634.76668-2.792043-.66923-5.18569-2.07637-7.026313-4.13044-.205584-.22941-.400166-.44257-.43243-.47369-.03223-.0311.07828.22878.245706.57756.606881 1.26443 1.034956 2.76131 1.216925 4.25525.109443.8984.04715 3.04341-.114639 3.95123-.824758 4.62671-3.570652 8.36353-7.34995 10.00241-1.838111.79707-3.350272 1.09678-5.494811 1.08905-1.345328-.005-2.091213-.0918-3.314035-.38639-2.937163-.70759-5.569969-2.32714-7.444697-4.57964-.07207-.0865-.03073.0333.09149.26735 1.857181 3.54632 1.902028 8.24697.115932 12.15356-1.900697 4.15732-5.461547 6.80017-9.904245 7.35086-1.070483.1327-2.804294.10578-3.85847-.06-1.829061-.28748-3.774523-.97624-5.240027-1.85516-.964852-.57864-2.214742-1.59837-2.901896-2.36753-.309622-.34654-.585759-.65371-.613618-.68263-.02782-.0289.0984.26447.280552.65193.890576 1.89383 1.255825 3.58684 1.25985 5.83962.01001 5.43194-3.006376 10.36775-7.550618 12.35655-1.428595.62521-2.843796.95708-4.549089 1.06672-4.259927.27385-8.587916-1.47416-11.300766-4.56432-.561002-.63901-.590863-.66651-.4242-.3905.218257.3614.639995 1.3347.875459 2.02048.821454 2.39242.909326 5.29292.241221 7.96114-.832524 3.32473-2.883406 6.25562-5.5725113 7.96361-2.0466272 1.29992-4.2526101 1.90279-6.9661605 1.90376-3.2813405 0-6.376017-1.08357-8.9784919-3.14711-.3668614-.29095-1.4206767-1.34858-1.684641-1.69083-.2314906-.30017-.2038719-.15988.080183.4074 1.8772812 3.74921 1.7109083 8.6928-.4280549 12.71909-1.0481103 1.97293-2.7401183 3.78388-4.5316903 4.85024-1.43363.85332-3.383196 1.4939-5.106707 1.67796-.98088.10471-3.047458.0544-3.882048-.0947-3.299029-.58908-6.103169-2.08449-8.070855-4.30407-.248815-.28066-.475702-.53392-.504209-.56282-.02855-.0289.09721.26449.279364.65192.880237 1.87186 1.250162 3.5882 1.254278 5.8196.01038 5.64189-3.253412 10.73133-8.073139 12.58877-.80252.30928-2.18175.64762-3.123561.76623-.997738.12559-3.004761.0902-3.969753-.0701-3.463621-.57536-6.409384-2.23064-8.629628-4.8491-.132916-.15675-.133175-.15593-.0152.0528.717317 1.26665 1.283483 3.1124 1.490075 4.85771.109522.92538.0518 2.84545-.114859 3.82023-.571687 3.34394-2.158644 6.25332-4.501094 8.2519-1.90135 1.62225-4.119644 2.55228-6.802749 2.85206-.92799.10369-2.857428.0405-3.831656-.12524-3.151687-.53654-5.926334-2.02102-7.98966-4.27455-.552622-.60356-.569841-.61662-.423158-.32085 1.894674 3.82016 1.951599 8.16268.159833 12.1916-2.148845 4.83158-6.699652 7.64411-12.066916 7.45755-2.396238-.0833-4.56231-.67045-6.566662-1.7801-1.330879-.73679-2.338963-1.52721-3.310907-2.59601-.288867-.31767-.548934-.60119-.577927-.63008-.02903-.0289.09634.26449.278538.65192.883779 1.87939 1.248574 3.5775 1.248574 5.81204 0 2.95369-.860845 5.74771-2.502932 8.12366-2.579018 3.73161-6.739488 5.63393-11.553148 5.2825zm577.99532-.0489c-.86154-.1198-1.84357-.3421-2.58419-.58497-5.12814-1.68159-8.63509-6.86875-8.63509-12.77232 0-2.23454.36483-3.93265 1.24851-5.81204.18205-.38745.30736-.68081.27881-.65192-.0296.0289-.28919.31241-.57793.63008-.97194 1.06879-1.97999 1.85922-3.31092 2.59601-2.00434 1.10964-4.17041 1.69682-6.56668 1.7801-4.01183.13941-7.5913-1.37258-10.02001-4.23265-2.77291-3.26542-3.9339-7.83042-3.06384-12.04749.24209-1.17393.60911-2.22429 1.17685-3.36906.14682-.29576.12939-.2827-.42315.32089-2.0633 2.25353-4.83795 3.73801-7.98971 4.27463-.97424.16589-2.90364.22893-3.83164.12523-4.20257-.46958-7.39025-2.53725-9.57337-6.20968-1.71656-2.88756-2.33501-6.82723-1.59988-10.19046.24543-1.12213.76565-2.536 1.24462-3.38176.11828-.20858.11791-.20943-.0148-.0527-2.22024 2.61846-5.16604 4.27373-8.6296 4.84909-.96505.16033-2.97202.19574-3.96983.0701-.94175-.11859-2.32101-.45694-3.12351-.76623-4.81975-1.85744-8.08359-6.94687-8.07313-12.58876.004-2.23141.37405-3.94775 1.25423-5.81961.18204-.38744.30773-.6808.27955-.65192-.0296.0289-.25545.28217-.50422.56282-1.96772 2.21959-4.77185 3.71499-8.07091 4.30407-.83454.14904-2.90113.19946-3.88201.0947-1.72353-.18408-3.6731-.82464-5.10667-1.67797-4.67805-2.78443-7.22188-9.12174-5.93166-14.77709.22098-.96966.59055-2.03068.97187-2.79224.284-.56729.31182-.70757.0801-.4074-.26397.34228-1.31776 1.3999-1.68463 1.69083-2.02737 1.60752-4.39794 2.63517-6.9596 3.01694-.62354.0929-1.20555.13048-2.01888.13021-1.25839 0-1.90268-.0652-3.04742-.30612-5.04296-1.06152-8.79367-5.22522-9.76-10.83479-.16277-.94326-.2206-2.93423-.11235-3.85061.20541-1.7406.82119-3.73707 1.49782-4.85746.16685-.27598.13681-.24847-.42418.3905-2.35945 2.68759-5.89372 4.34824-9.76637 4.58891-.72023.0448-2.27759-.0504-3.08202-.18823-1.54194-.26431-3.25294-.90609-4.4916-1.68477-3.72365-2.34078-6.06901-6.82013-6.06052-11.57486.004-2.25279.36929-3.94579 1.25991-5.83962.18205-.38744.3081-.68081.28066-.65193-.0296.0289-.30401.33605-.61368.68263-2.39703 2.68309-6.29476 4.35561-10.17193 4.36488-1.35737.003-2.19339-.0907-3.42831-.38536-5.48796-1.30939-9.30319-6.31096-9.61094-12.59943-.10679-2.17887.4436-4.7326 1.42255-6.60186.12272-.23357.1635-.3539.0916-.26736-1.87473 2.2525-4.50755 3.87205-7.44471 4.57964-1.22282.29458-1.96875.38151-3.31408.38639-2.14449.008-3.65664-.29197-5.49477-1.08905-3.77926-1.63888-6.5252-5.37569-7.34997-10.0024-.16166-.90783-.22395-3.05284-.11457-3.95123.18167-1.49394.61004-2.99083 1.21685-4.25525.16758-.34875.27807-.60868.24582-.57756-.0333.0311-.22691.2443-.43241.47368-1.84062 2.05408-4.23423 3.46121-7.0263 4.13044-3.09741.74244-6.28127.47061-8.98065-.76667-4.3524-1.995-7.33739-6.90084-7.33739-12.05916 0-5.15829 2.98499-10.06418 7.33739-12.05916 2.69938-1.23727 5.88324-1.50907 8.98065-.76664 2.79207.66922 5.18568 2.07634 7.0263 4.13042.20576.22944.40018.44259.43241.4737.0333.0311-.0782-.22877-.24582-.57755-.60681-1.26446-1.03492-2.76135-1.21685-4.25529-.10938-.89837-.047-3.04339.11457-3.95122.82477-4.62671 3.57071-8.36353 7.34997-10.00237 1.83813-.7971 3.35028-1.09678 5.49477-1.08906 1.34533.005 2.09126.0918 3.31408.38638 2.93716.70756 5.56998 2.32714 7.44471 4.57962.0719.0865.0333-.0333-.0916-.26736-1.8572-3.54632-1.90206-8.24697-.11605-12.15356 1.90068-4.15732 5.46153-6.80013 9.90421-7.35084 1.07048-.13268 2.80429-.10576 3.85845.06 1.82908.28749 3.77456.97627 5.24005 1.85516.96484.57864 2.21475 1.59841 2.90186 2.36752.30958.34659.58576.65376.61368.68264.0296.0289-.0979-.26447-.28067-.6519-.89059-1.89386-1.25587-3.58688-1.2599-5.83964-.0111-5.43195 3.00639-10.36776 7.55067-12.35654 1.42859-.62523 2.84377-.95707 4.54905-1.06671 4.25992-.27393 8.58793 1.47417 11.30079 4.56429.56103.63901.59083.6665.42418.39055-.21801-.36148-.63995-1.33471-.87543-2.02052-.82152-2.39243-.90938-5.29292-.24099-7.96113.83249-3.32472 2.8834-6.25562 5.5725-7.96361 2.04665-1.29992 4.25259-1.90277 6.96616-1.90375 3.28131-.002 6.37603 1.08357 8.97848 3.14713.36706.29088 1.42067 1.34857 1.68468 1.69083.23136.30013.20391.15986-.0801-.40741-1.87729-3.7492-1.71088-8.69282.42803-12.71911 1.04814-1.9729 2.74015-3.78385 4.53176-4.85024 1.43356-.85333 3.38314-1.49391 5.1067-1.67795.98084-.10474 3.04743-.0544 3.88197.0946 3.29906.58908 6.10319 2.08449 8.07091 4.30405.24878.28066.47571.53395.50422.56282.0296.0289-.0971-.26445-.27955-.65189-.88021-1.87187-1.25019-3.58823-1.25426-5.81963-.0111-5.64189 3.25338-10.73131 8.07312-12.58878.80251-.30923 2.18176-.64759 3.12357-.76619.99777-.12565 3.00473-.0902 3.96977.0701 3.46357.57537 6.4094 2.23062 8.6296 4.84909.13311.15676.13348.15595.0148-.0527-.71731-1.26667-1.28348-3.11241-1.4901-4.85775-.10976-.92536-.0519-2.84541.11494-3.8202.57169-3.34396 2.15863-6.25334 4.50112-8.25192 1.90133-1.62223 4.1196-2.55225 6.80273-2.85206.92801-.1037 2.8574-.0405 3.83164.12527 3.15177.5366 5.92642 2.02108 7.98972 4.27461.55265.60355.56981.61663.42315.3209-1.89468-3.82015-1.95159-8.16269-.1598-12.1916 2.14875-4.83162 6.69959-7.64414 12.0668-7.45761 2.39627.0833 4.56234.67046 6.56668 1.7801 1.33093.73682 2.33898 1.52721 3.31092 2.59602.28919.31762.54894.6012.57793.63008.0296.0289-.0968-.26447-.27881-.6519-.88381-1.87939-1.24855-3.5775-1.24855-5.81206 0-1.22714.11086-2.19406.38554-3.35258.94915-4.0079 3.56653-7.35102 6.98348-8.91994 2.82187-1.29567 6.27156-1.52648 9.44557-.63199 2.94665.83045 5.33662 2.40548 7.0966 4.67679l.39174.50556v282.90418l-.39174.50559c-1.44423 1.8638-3.32043 3.26406-5.58875 4.17094-.90416.36144-2.14586.70724-3.1077.8654-1.01835.16745-3.11065.21631-3.99542.0932zM299.57533 154.23899c-2.81864-.32477-5.00323-1.1275-7.09616-2.60753-2.19787-1.55424-3.93331-4.25549-4.67825-7.28179-.65606-2.66523-.58667-5.30384.20447-7.77354.19484-.60814.69997-1.79483.91754-2.15551.15695-.26008.14301-.24676-.53096.51012-.71702.80518-2.16736 1.9902-3.06633 2.50543-1.59069.91162-3.18032 1.47858-5.0384 1.7969-.81428.13952-2.9014.19128-3.78246.0938-2.66701-.29494-4.91679-1.2603-6.83399-2.93235-2.34629-2.04623-3.79412-4.75777-4.43265-8.30164-.15547-.86271-.1304-3.70381.0407-4.61812.19727-1.05417.58913-2.28591 1.02891-3.23418.20956-.45187.37126-.81197.35934-.80024-.0119.0111-.25311.28121-.53605.59887-2.50576 2.81352-6.36208 4.47463-10.36196 4.46337-1.94538-.006-3.48894-.29627-5.10437-.96158-1.1529-.47485-2.07148-1.02388-3.01357-1.80121-4.15988-3.43222-5.91474-9.73487-4.17208-14.98431.2272-.68446.61467-1.60086.86003-2.03413.11791-.20817.11765-.20914-.0152-.0546-1.6829 1.96119-3.64068 3.30777-6.03936 4.15395-3.49338 1.23231-7.52801 1.0506-10.63746-.47908-5.59759-2.75372-8.498692-10.1192-6.46384-16.41074.18648-.57655.7075-1.81601.8883-2.11311.1076-.17683.0148-.089-.47175.44528-.65587.72058-1.364072 1.36035-2.018592 1.82354-3.562013 2.52084-8.006492 3.30696-12.146905 2.14849-4.787806-1.33958-8.214538-5.51123-9.034841-10.99894-.181559-1.21464-.124789-3.54231.114049-4.67636.216444-1.02759.597411-2.18643.983091-2.99019.168796-.35182.299381-.646.290182-.65375-.009-.008-.26905.25883-.577501.59236-2.028017 2.19336-4.893515 3.68192-8.091549 4.20334-1.104528.18007-3.009308.19881-4.105458.0401-3.94519-.57036-7.040667-2.65214-9.084572-6.10954-1.415821-2.39492-2.158363-5.72188-1.890614-8.47078.180436-1.85252.748838-3.80067 1.496155-5.12788l.111745-.19844-.13503.15923c-2.58824 3.05246-6.2254 4.80235-10.348185 4.97862-3.244463.1387-6.365997-.88346-8.698832-2.84846-2.353926-1.9828-3.997765-4.97258-4.557727-8.28957-.169997-1.00713-.226055-2.93345-.112487-3.86671.19275-1.58382.560633-2.90088 1.176894-4.21329.189116-.40273.31736-.70594.284956-.67381-.03264.0319-.262423.28782-.511242.56817-.603828.68035-1.229998 1.24007-2.014003 1.8003-4.042301 2.88848-9.550827 3.47051-13.918327 1.47058-4.409352-2.01911-7.36075-6.95363-7.346886-12.2835.004-1.68551.163241-2.75791.622588-4.2033.219227-.68967.656962-1.73448.876781-2.09254.176813-.288.126952-.30086-.09299-.0241-.560522.70564-1.612295 1.68549-2.4253706 2.25951-1.8701938 1.32033-3.73306 2.06914-6.2090535 2.49577-.9089247.15662-3.20345958.16275-4.15207554.0109-1.20107836-.19202-2.02845826-.42622-3.12348646-.88411-1.2320806-.51516-1.9980968-.97789-2.9959139-1.80966-4.106508-3.42327-5.845666-9.63252-4.157691-14.84407.209618-.64722.664-1.72793.8903951-2.11769.1863037-.32083.191449-.32545-.5022521.45352-1.403799 1.57638-3.554264 2.96958-5.685249 3.68329-1.486385.49778-2.641636.701-4.27183.75143-3.926289.12145-7.436818-1.31696-9.815711-4.02191-1.749787-1.98927-2.834582-4.2971-3.333111-7.09066-.16406-.91929-.223899-2.98241-.113599-3.91536.217447-1.83916.801359-3.64075 1.639555-5.05866l.309507-.52352h423.28214l.30921.52352c.83817 1.41791 1.4221 3.2195 1.63953 5.05866.11049.93295.0504 2.99607-.11345 3.91536-.49853 2.79356-1.58332 5.10139-3.33314 7.09108-2.37892 2.70495-5.88943 4.14337-9.81573 4.02191-1.63021-.0505-2.78544-.25362-4.27184-.75143-2.13098-.7137-4.28149-2.1069-5.68524-3.68328-.69372-.77898-.68857-.77435-.50226-.45353.0823.14118.27399.54547.42625.89842 1.36828 3.16856 1.46605 6.76771.2777 10.21312-.79913 2.31654-2.18986 4.36538-3.97106 5.85023-.99782.83176-1.76387 1.29449-2.99593 1.80965-1.09497.45789-1.92241.69207-3.12358.88411-.94857.15168-3.24315.14556-4.15205-.0109-2.47602-.42662-4.33885-1.17543-6.20905-2.49576-.81307-.57402-1.8649-1.55387-2.42537-2.25951-.21987-.27683-.26954-.26397-.0931.0241.21948.35806.65757 1.40287.87676 2.09254.45937 1.44539.61823 2.5178.62257 4.2033.0148 5.32987-2.93749 10.26438-7.34689 12.2835-1.82527.83584-3.94558 1.24987-5.99928 1.17152-3.9207-.14959-7.57267-1.78287-9.93306-4.4424-.24915-.28039-.47886-.53603-.51123-.56817-.0333-.0319.096.27106.2851.67381.61628 1.31241.98419 2.62947 1.17694 4.21329.11345.93326.0574 2.85958-.11235 3.86672-.77409 4.58529-3.54923 8.37394-7.34923 10.03319-.94391.41221-1.39452.56251-2.33109.77768-4.07189.9355-8.68013-.11008-11.92888-2.70663-.59876-.47855-1.4828-1.34014-1.99558-1.94484l-.13496-.15923.11159.19844c.23099.41016.66121 1.4293.87798 2.07967 1.21461 3.64358.71624 8.15501-1.27245 11.51899-2.04391 3.4574-5.13939 5.53918-9.08455 6.10954-1.09619.15845-3.00095.13978-4.10546-.0402-3.19807-.52142-6.06355-2.00998-8.09155-4.20334-.3081-.33351-.56835-.60013-.57752-.59236-.0111.008.1216.30196.29029.65375.38567.80376.76669 1.96259.9831 2.99019.23913 1.13404.29549 3.46171.11382 4.67636-.62031 4.14982-2.7737 7.64552-5.93729 9.63846-2.05753 1.29615-4.99367 2.0265-7.54976 1.87802-3.85045-.22365-7.26838-1.80348-9.71325-4.48958-.48635-.53431-.57938-.62211-.47175-.44527.18056.29713.70184 1.53656.88829 2.11311.89731 2.77442.8527 6.01792-.12235 8.87601-1.32393 3.88197-4.02358 6.75565-7.56026 8.04775-4.15886 1.51937-9.23585.79344-12.9235-1.84795-.92276-.66094-1.74703-1.42184-2.53485-2.33994-.13266-.15463-.13296-.15367-.0152.0546.24537.43328.63286 1.34967.86005 2.03413 1.74265 5.24945-.0122 11.55209-4.17207 14.98432-.9421.77732-1.86067 1.32634-3.01358 1.8012-1.61542.66535-3.15898.95613-5.10438.96159-3.99986.0107-7.85619-1.64986-10.36193-4.46338-.28296-.31763-.52416-.58713-.53607-.59887-.0118-.0111.14979.34841.35934.80023.43978.94828.83166 2.18002 1.02892 3.23418.1711.91432.19619 3.75541.0407 4.61812-.63854 3.54388-2.08636 6.25542-4.43265 8.30164-1.9172 1.67206-4.167 2.6374-6.83399 2.93236-.88107.0974-2.96819.0457-3.78246-.0938-1.8581-.3183-3.44773-.88527-5.0384-1.7969-.89898-.51523-2.34931-1.70025-3.06633-2.50543-.67397-.75685-.68792-.77023-.53099-.51011.0661.1096.25653.505.42321.87875 1.23362 2.76644 1.47528 5.89599.6988 9.05029-.74494 3.02631-2.48037 5.72755-4.67823 7.28179-1.8189 1.28623-3.84928 2.11076-6.12404 2.48687-.57537.0951-2.49395.17351-2.95292.12068z"/>
</svg>