<?xml version="1.0" encoding="UTF-8" standalone="no"?>
<!-- Created with Inkscape (http://www.inkscape.org/) -->

<svg
   xmlns:dc="http://purl.org/dc/elements/1.1/"
   xmlns:cc="http://creativecommons.org/ns#"
   xmlns:rdf="http://www.w3.org/1999/02/22-rdf-syntax-ns#"
   xmlns:svg="http://www.w3.org/2000/svg"
   xmlns="http://www.w3.org/2000/svg"
   xmlns:sodipodi="http://sodipodi.sourceforge.net/DTD/sodipodi-0.dtd"
   xmlns:inkscape="http://www.inkscape.org/namespaces/inkscape"
   width="558.61438"
   height="376.7869"
   id="svg27519"
   version="1.1"
   inkscape:version="0.48.4 r9939"
   sodipodi:docname="De_Panne_vlag.svg">
  <defs
     id="defs27521" />
  <sodipodi:namedview
     id="base"
     pagecolor="#ffffff"
     bordercolor="#666666"
     borderopacity="1.0"
     inkscape:pageopacity="0.0"
     inkscape:pageshadow="2"
     inkscape:zoom="1.4"
     inkscape:cx="287.12837"
     inkscape:cy="197.47575"
     inkscape:document-units="px"
     inkscape:current-layer="layer1"
     showgrid="false"
     fit-margin-top="0"
     fit-margin-left="0"
     fit-margin-right="0"
     fit-margin-bottom="0"
     inkscape:window-width="1600"
     inkscape:window-height="837"
     inkscape:window-x="-8"
     inkscape:window-y="-8"
     inkscape:window-maximized="1" />
  <metadata
     id="metadata27524">
    <rdf:RDF>
      <cc:Work
         rdf:about="">
        <dc:format>image/svg+xml</dc:format>
        <dc:type
           rdf:resource="http://purl.org/dc/dcmitype/StillImage" />
        <dc:title />
      </cc:Work>
    </rdf:RDF>
  </metadata>
  <g
     inkscape:label="Laag 1"
     inkscape:groupmode="layer"
     id="layer1"
     transform="translate(5.0214657,-218.25445)">
    <path
       style="fill:#ffffff;stroke:none"
       d="m 273.78059,218.25445 0,376.7869 279.8123,0 0,-376.7869 z"
       id="path26774"
       inkscape:connector-curvature="0" />
    <path
       style="fill:#0e44af;fill-opacity:1;stroke:none"
       d="m 273.78059,218.25445 0,376.7869 -278.8020557,0 0,-376.7869 z"
       id="path26776"
       inkscape:connector-curvature="0" />
    <path
       style="fill:#fcdd04;fill-opacity:1;stroke:none"
       d="m 69.729824,238.4575 -56.06347,84.85281 55.05332,85.86296 58.588836,-83.33758 z"
       id="path26778"
       inkscape:connector-curvature="0" />
    <path
       style="fill:#fcdd04;fill-opacity:1;stroke:none"
       d="m 199.78691,237.95242 -56.0634,84.85281 55.0533,85.86296 58.5888,-83.33758 z"
       id="path26778-6"
       inkscape:connector-curvature="0" />
    <path
       style="fill:#fcdd04;fill-opacity:1;stroke:none"
       d="m 135.13721,407.15298 -56.063496,84.85281 55.053296,85.86296 58.5889,-83.33758 z"
       id="path26778-0"
       inkscape:connector-curvature="0" />
    <path
       style="fill:#007f00;stroke:none;fill-opacity:1"
       d="m 418.99009,264.7846 c -0.4878,10.62553 1.8354,10.73232 6.566,1.8309 -2.0587,-1.39 -4.1741,-2.44022 -6.566,-1.8309 z"
       id="path27313"
       inkscape:connector-curvature="0"
       sodipodi:nodetypes="ccc" />
    <path
       style="fill:#007f00;fill-opacity:1;stroke:none"
       d="m 435.53129,271.9188 c -6.6769,-4.33905 -12.9782,-8.84705 -24.4962,-6.69226 3.2656,-14.99665 16.5544,-14.58728 32.5774,-9.97526 13.0758,3.25469 21.3618,-3.06998 28.7894,-11.11168 6.2592,4.04061 3.227,8.08122 1.7678,12.12183 4.8482,-1.1832 9.9732,4.83076 14.3946,-7.44987 3.1668,11.39543 -0.8919,17.84719 -6.6922,23.10724 5.9585,1.29681 10.3187,-1.80176 14.3946,-5.68211 -1.4601,7.12071 -3.4432,13.7706 -9.5964,16.66752 -5.5328,2.10627 -3.3402,5.72525 1.894,5.80837 3.0037,0.1647 5.5423,-3.39149 8.0812,-6.94479 2.4493,13.31111 -4.8468,20.11825 -15.026,25.00127 7.2554,9.74573 12.2475,5.45964 17.1726,0.75762 -1.4541,15.98445 -8.0152,19.95238 -17.5514,16.92005 -0.874,15.05945 2.4818,22.56586 14.8998,13.8896 -8.7014,20.18992 -19.388,17.8808 -30.936,5.80837 -0.965,6.93846 -0.2805,13.59254 12.3744,18.18275 -17.0631,7.88992 -26.1736,-2.29441 -32.8299,-18.05648 -18.3404,-2.3274 -21.4616,6.30297 -16.0362,21.08694 -15.1819,-4.77874 -16.5935,-11.27877 -16.7938,-17.93021 -4.6221,2.05149 -9.0809,4.75614 -12.3744,12.12183 -4.7833,7.58446 -11.3081,10.6907 -18.4352,12.2481 4.291,-2.79981 7.8415,-6.54195 8.46,-14.01587 1.1342,-6.86425 3.7902,-11.19222 7.9549,-13.00571 -7.6051,0.88697 -14.9193,4.68305 -21.8513,12.30152 -7.5217,5.91439 -15.4737,9.89237 -25,6.78572 6.7853,-0.60003 13.5195,-1.81422 19.6429,-10.35715 5.3791,-7.07016 13.7048,-14.11403 24.1071,-14.28571 -8.8519,-0.47068 -18.0247,-0.48958 -24.2857,11.60714 -5.2442,0.35 -10.5237,0.99954 -16.4285,6.96429 -10.2507,4.86054 -20.7699,5.55779 -31.6934,-0.0101 7.5341,0.24994 15.0681,-0.23331 22.6022,-5.3033 7.4264,-8.23099 18.3688,-12.94595 29.4207,-17.5514 -5.0752,-1.43022 -7.4752,-1.60787 -16.7938,4.29315 -8.7387,5.97898 -16.346,2.15236 -24.1174,-0.25254 7.7646,0.90145 15.0757,0.14014 20.8344,-6.31345 8.0371,-9.51686 17.2694,-7.87946 26.264,-8.46003 -10.7705,-0.95703 -19.6153,-3.19784 -17.6777,-12.6269 3.8619,3.5439 8.0374,3.01052 12.3744,0.3788 6.7366,-4.11762 13.3127,-10.2023 20.9606,-3.15672 7.3854,5.57845 4.3546,0.45136 3.6618,-2.27285 0.018,-3.46559 -1.2282,-7.69014 3.283,-8.46002 7.0617,9.15029 13.1863,6.35313 19.3192,3.6618 -9.1675,-4.78091 -19.8476,-7.3348 -37.5019,0.37881 -33.855,10.87461 -28.4699,-21.20131 -17.6777,-22.60217 -3.5089,10.85189 2.7728,18.34813 24.4962,13.13199 13.8521,-3.45744 25.9993,-3.70581 31.8198,7.95495 9.8128,-16.91086 -13.014,-21.96204 -24.875,-9.34391 -3.7561,-4.65688 -3.1597,-9.2493 -2.6516,-11.61676 l 6.9448,-4.04061 -7.0711,1.38896 c -3.3075,-11.34884 5.6433,-11.40074 14.1421,-11.86929 l 4.2935,0.1023 0,0.98215 c 4.0853,14.33288 13.4945,8.14876 21.875,5.71428 z"
       id="path27315"
       inkscape:connector-curvature="0"
       sodipodi:nodetypes="cccccccccccccccccccccccccccccccccccccccccccccccccccccccc" />
    <path
       style="fill:#ffffff;stroke:none"
       d="m 456.99709,274.06537 c 13.9719,-16.01351 26.6456,6.69629 4.4194,15.5311 36.7953,-8.82303 2.2574,-39.02138 -4.4194,-15.5311 z"
       id="path27317"
       inkscape:connector-curvature="0"
       sodipodi:nodetypes="ccc" />
    <path
       style="fill:#ffffff;stroke:none;fill-opacity:1"
       d="m 468.86639,273.9391 c -1.0496,0.23805 -1.9606,0.21455 -4.0407,2.39912 -2.1077,2.12117 -4.0642,1.51885 -6.0609,1.64149 2.078,-0.40062 4.0754,-1.12355 5.6821,-3.40926 1.3189,-1.29057 2.868,-0.96911 4.4195,-0.63135 z"
       id="path27319"
       inkscape:connector-curvature="0"
       sodipodi:nodetypes="ccccc" />
    <path
       style="fill:#ffffff;stroke:none;fill-opacity:1"
       d="m 428.88729,280.47043 c 9.2371,12.22837 6.0827,21.97844 -1.25,30.89286 9.5867,-8.49958 15.659,-17.68824 1.25,-30.89286 z"
       id="path27321"
       inkscape:connector-curvature="0"
       sodipodi:nodetypes="ccc" />
    <path
       style="fill:#ffffff;stroke:none;fill-opacity:1"
       d="m 447.72659,298.149 c 0.416,3.15488 1.3902,6.21126 5.8036,8.66072 4.5002,-6.10855 4.4491,-11.92659 -2.2322,-17.32143 0.9825,3.66399 3.6583,7.15329 0.4465,11.25 -2.5265,-0.18468 -3.0691,-1.50305 -4.0179,-2.58929 z"
       id="path27323"
       inkscape:connector-curvature="0"
       sodipodi:nodetypes="ccccc" />
    <path
       style="fill:#ffffff;stroke:none;fill-opacity:1"
       d="m 443.14971,307.57426 c -0.1225,3.17982 0.3217,6.3568 4.2583,9.51616 5.4668,-5.26116 6.3986,-11.00432 0.724,-17.44965 0.3498,3.77726 2.3982,7.66821 -1.4591,11.16391 -2.4591,-0.60855 -2.7713,-1.9996 -3.5232,-3.23042 z"
       id="path27323-7"
       inkscape:connector-curvature="0"
       sodipodi:nodetypes="ccccc" />
    <path
       style="fill:#ffffff;stroke:none;fill-opacity:1"
       d="m 434.62121,312.20934 c -1.6672,2.7105 -2.8391,5.69666 -0.9595,10.3812 7.3451,-1.90149 10.9753,-6.44836 9.1937,-14.84895 -1.5488,3.46289 -1.6733,7.85829 -6.7497,9.01133 -1.844,-1.73694 -1.4334,-3.10221 -1.4845,-4.54358 z"
       id="path27323-2"
       inkscape:connector-curvature="0"
       sodipodi:nodetypes="ccccc" />
    <path
       style="fill:#ffffff;stroke:none;fill-opacity:1"
       d="m 432.90519,311.18472 c 0.7667,7.8612 2.1837,16.17565 -12.3214,13.39285 5.506,-1.49346 11.5246,-1.89808 12.3214,-13.39285 z"
       id="path27350"
       inkscape:connector-curvature="0"
       sodipodi:nodetypes="ccc" />
    <path
       style="fill:#007f00;fill-opacity:1;stroke:none"
       d="m 326.20879,267.79186 c 1.7588,6.23069 8.4254,6.34917 7.6785,2.14286 -0.5034,-7.82926 3.4994,-7.61158 9.6429,-3.57143 9.0925,2.39302 13.4922,5.59944 4.8214,11.07143 -4.9233,4.60142 -6.6862,10.29935 0,18.92857 l 11.7857,13.21428 c -2.1665,3.84598 -3.6526,7.85205 2.1429,13.57143 -3.654,0.90684 -8.4023,3.18152 -16.7857,10 -8.5334,3.05859 -14.363,1.20107 -20.3572,-0.35714 l 7.6786,6.96428 c -7.6786,5.44753 -15.3571,4.6064 -23.0357,-0.89285 5.2273,0.36221 9.4657,-0.49277 11.6071,-3.92857 -7.6417,-3.08853 -15,-6.35415 -15.1785,-14.10715 5.7056,2.46228 10.4947,0.95346 15.5357,0.53572 -5.1815,-3.11312 -10.6306,-6.04783 -13.75,-10.53572 16.4461,-6.53412 5.9022,-8.18027 2.8571,-6.25 -3.6704,2.87376 -7.5286,6.42817 -7.5,-4.10714 -4.043,-7.97159 -0.5809,-8.43803 3.5714,-8.21429 10.2768,-2.50029 4.7321,-7.29606 0,-6.07142 -2.8656,0.41915 -7.4229,7.73517 -7.5,-3.21429 -1.4738,-5.919 -2.5926,-14.04967 7.6786,-8.03571 6.7556,5.43047 8.338,-1.19854 3.5714,-3.75 -2.5421,-3.02907 -7.1897,-6.02762 6.0715,-9.28572 5.2758,-0.97255 12.9582,-5.2773 9.4643,5.89286 z"
       id="path27352"
       inkscape:connector-curvature="0"
       sodipodi:nodetypes="cccccccccccccccccccccccc" />
    <path
       style="fill:#007f00;fill-opacity:1;stroke:none"
       d="m 307.74699,252.41023 c 4.1893,2.01193 6.1596,5.16702 4.7982,10.03839 l 8.2075,-2.02031 c -2.2707,-4.02939 -4.9468,-7.79234 -13.0057,-8.01808 z"
       id="path27354"
       inkscape:connector-curvature="0"
       sodipodi:nodetypes="cccc" />
    <path
       style="fill:#007f00;fill-opacity:1;stroke:none"
       d="m 286.96451,287.53721 c 2.7954,-3.71265 6.276,-5.02502 10.7852,-2.73353 l -0.3693,-8.44443 c -4.3968,1.43524 -8.612,3.3203 -10.4159,11.17796 z"
       id="path27354-0"
       inkscape:connector-curvature="0"
       sodipodi:nodetypes="cccc" />
    <path
       style="fill:#007f00;fill-opacity:1;stroke:none"
       d="m 289.44561,294.08321 c 3.5108,3.04505 7.189,3.59956 11.1185,0.41472 l 1.407,8.33456 c -4.5999,-0.4828 -9.1163,-1.44349 -12.5255,-8.74928 z"
       id="path27354-9"
       inkscape:connector-curvature="0"
       sodipodi:nodetypes="cccc" />
    <path
       style="fill:#007f00;fill-opacity:1;stroke:none"
       d="m 342.14331,252.17197 c 2.0975,4.14709 1.7389,7.84953 -2.3076,10.88425 l 7.7403,3.39594 c 0.6528,-4.57885 0.8219,-9.19325 -5.4327,-14.28019 z"
       id="path27354-5"
       inkscape:connector-curvature="0"
       sodipodi:nodetypes="cccc" />
    <path
       style="fill:#007f00;fill-opacity:1;stroke:none"
       d="m 292.33591,391.61366 c 4.5313,-1.03224 8.0371,0.21127 10.003,4.87161 l 5.1672,-6.68914 c -4.285,-1.74093 -8.7215,-3.02102 -15.1702,1.81753 z"
       id="path27354-4"
       inkscape:connector-curvature="0"
       sodipodi:nodetypes="cccc" />
    <path
       style="fill:#007f00;fill-opacity:1;stroke:none"
       d="m 304.90361,433.54933 c -2.4783,-3.93146 -2.4693,-7.65122 1.2738,-11.05302 l -8.0253,-2.653 c -0.2194,4.61995 0.046,9.2298 6.7515,13.70602 z"
       id="path27354-3"
       inkscape:connector-curvature="0"
       sodipodi:nodetypes="cccc" />
    <path
       style="fill:#007f00;fill-opacity:1;stroke:none"
       d="m 336.64421,440.94547 c -4.4426,-1.3645 -6.8615,-4.19038 -6.242,-9.21033 l -7.8143,3.22203 c 2.8464,3.64558 6.0539,6.96724 14.0563,5.9883 z"
       id="path27354-2"
       inkscape:connector-curvature="0"
       sodipodi:nodetypes="cccc" />
    <path
       style="fill:#007f00;fill-opacity:1;stroke:none"
       d="m 347.27021,437.34653 c 1.7211,-4.31691 1.0352,-7.97289 -3.2646,-10.63646 l 7.4083,-4.06958 c 1.0567,4.50283 1.6346,9.08402 -4.1437,14.70604 z"
       id="path27354-56"
       inkscape:connector-curvature="0"
       sodipodi:nodetypes="cccc" />
    <path
       style="fill:#007f00;fill-opacity:1;stroke:none"
       d="m 304.20501,490.2603 c 4.5576,-0.9094 8.0284,0.42841 9.8677,5.14019 l 5.3461,-6.54704 c -4.2364,-1.85611 -8.6367,-3.25564 -15.2138,1.40685 z"
       id="path27354-08"
       inkscape:connector-curvature="0"
       sodipodi:nodetypes="cccc" />
    <path
       style="fill:#007f00;fill-opacity:1;stroke:none"
       d="m 296.76191,525.36564 c 1.3157,-4.45724 4.1149,-6.90698 9.1413,-6.34254 l -3.3075,-7.77851 c -3.6141,2.88615 -6.9004,6.12985 -5.8338,14.12105 z"
       id="path27354-8"
       inkscape:connector-curvature="0"
       sodipodi:nodetypes="cccc" />
    <path
       style="fill:#007f00;fill-opacity:1;stroke:none"
       d="m 328.63321,543.97494 c -3.2854,-3.28693 -4.0984,-6.91677 -1.1991,-11.06138 l -8.4132,-0.81473 c 0.8066,4.55428 2.0839,8.99159 9.6123,11.87611 z"
       id="path27354-1"
       inkscape:connector-curvature="0"
       sodipodi:nodetypes="cccc" />
    <path
       style="fill:#007f00;fill-opacity:1;stroke:none"
       d="m 338.38251,540.19273 c 3.9188,-2.49829 5.4978,-5.86628 3.5638,-10.53998 l 8.3902,1.02472 c -1.7728,4.27193 -3.9799,8.32779 -11.954,9.51526 z"
       id="path27354-57"
       inkscape:connector-curvature="0"
       sodipodi:nodetypes="cccc" />
    <path
       style="fill:#007f00;fill-opacity:1;stroke:none"
       d="m 414.52501,541.6926 c 3.4654,-3.0967 7.135,-3.70562 11.1111,-0.57932 l 1.2835,-8.35448 c -4.5922,0.55086 -9.094,1.57833 -12.3946,8.9338 z"
       id="path27354-579"
       inkscape:connector-curvature="0"
       sodipodi:nodetypes="cccc" />
    <path
       style="fill:#007f00;fill-opacity:1;stroke:none"
       d="m 431.06241,578.03489 c -1.949,-4.21892 -1.4592,-7.9063 2.6925,-10.79549 l -7.6149,-3.66851 c -0.815,4.55279 -1.1477,9.15828 4.9224,14.464 z"
       id="path27354-23"
       inkscape:connector-curvature="0"
       sodipodi:nodetypes="cccc" />
    <path
       style="fill:#007f00;fill-opacity:1;stroke:none"
       d="m 469.86031,575.5958 c -4.1556,-2.0805 -6.0738,-5.26754 -4.6326,-10.11588 l -8.2395,1.88517 c 2.2041,4.06616 4.818,7.87257 12.8721,8.23071 z"
       id="path27354-7"
       inkscape:connector-curvature="0"
       sodipodi:nodetypes="cccc"
       inkscape:transform-center-x="4.0178571" />
    <path
       style="fill:#007f00;fill-opacity:1;stroke:none"
       d="m 491.98781,561.39152 c -0.042,-4.64719 -2.0616,-7.77101 -7.0499,-8.60755 l 5.315,-6.5723 c 2.6834,3.76712 4.9535,7.7881 1.7349,15.17985 z"
       id="path27354-27"
       inkscape:connector-curvature="0"
       sodipodi:nodetypes="cccc" />
    <path
       style="fill:#007f00;fill-opacity:1;stroke:none"
       d="m 427.45009,536.57876 0.8839,0.12627 c -1.6546,-7.98061 5.1794,-10.05281 8.46,-3.40926 4.942,4.47327 8.3378,0.44299 11.9956,-2.14658 9.5453,-12.66057 10.4431,-23.61438 1.894,-32.70368 -5.8533,2.95843 -10.8092,2.02852 -14.5209,-4.29315 -2.4874,2.82772 -5.4758,5.20003 -2.9042,12.6269 2.4682,5.7242 0.6941,11.4484 -2.2729,17.1726 -0.7784,-3.95643 -0.6449,-7.91287 -4.7982,-11.8693 -7.0439,-4.5333 -6.5762,-9.52185 -5.9346,-14.52094 -9.5144,-0.1088 -14.5593,-4.45178 -15.0261,-13.13198 11.2762,2.21895 19.0919,-5.11867 17.6777,-15.02602 0.03,-10.2063 4.3221,-18.61803 10.7329,-26.1377 8.7231,-9.50033 10.5361,-18.86777 1.7677,-28.03173 1.8034,8.17161 2.2314,16.2332 -4.2931,23.73858 -8.7771,10.43624 -13.5258,22.31117 -12.8794,36.11296 -14.4471,-15.07628 -39.0614,-2.48029 -20.2031,7.3236 -9.6481,7.2886 -2.7168,13.0168 4.2932,14.89975 -4.5886,6.53432 -11.3463,7.7477 -19.0217,6.7098 1.4021,5.65936 5.9887,7.49732 10.6879,9.20011 -5.6574,1.66747 -11.2698,4.32376 -17.2508,-1.12978 -9.1099,-7.92756 -10.239,5.0379 -4.2792,8.91693 -5.6696,-1.21991 -11.1681,-0.72813 -17.1429,-5 -6.4927,-2.85854 -6.9372,1.67037 -5.5357,3.92858 3.6894,3.93422 5.6728,7.39932 -3.9286,7.67857 -6.6025,2.91139 -9.2339,1.25587 -9.1071,-3.57143 -5.4591,-6.17671 -5.2723,-2.56715 -5.8929,-0.35714 2.5146,5.95078 2.6839,10.23159 -8.75,6.25 -8.6802,0.85547 -9.9448,-1.18297 -4.8214,-5.71429 2.8262,-6.14239 0.079,-6.18101 -4.1072,-4.64286 -4.9323,4.30722 -7.8156,3.34559 -8.0357,-4.46428 -5.1536,-12.58164 0.1899,-9.41758 4.8215,-7.32143 4.2886,0.73114 8.9798,1.73547 4.1071,-3.75 -8.9039,-4.21514 -5.4999,-7.48351 3.0357,-10.35714 3.2738,-3.93644 6.5476,-12.37946 9.8214,-1.42858 14.0491,9.02119 21.3723,0.0744 19.6429,-9.64285 -2.4206,-0.38496 -4.7654,-0.87603 -5.5357,-3.57143 -3.5768,-4.32892 -4.5956,-2.26274 -5.5357,0 -1.671,2.8964 -5.4799,3.12041 -9.8215,2.67857 -5.4666,-0.72043 -7.6078,0.55436 -8.0357,2.85714 -2.3626,-5.91052 2.8275,-8.90644 7.8572,-11.96428 -4.2353,-8.5098 -7.3554,-16.97314 4.2857,-24.82143 1.1135,15.41703 7.6823,19.62875 21.25,9.46428 11.9162,-22.11839 28.8582,-29.73969 49.5246,-26.61712 16.8208,0.79709 19.0254,-9.43696 18.1827,-21.97082 5.591,5.36991 9.3927,11.63447 11.6168,18.68782 -0.2486,-6.76986 -1.5983,-13.69704 -8.8388,-21.46574 l -16.415,-16.16244 c 6.7795,-5.68809 12.047,-12.08775 13.132,-20.45559 5.9456,2.31955 11.5666,1.48609 17.1725,0.50508 -5.9887,-11.2627 -9.0952,-21.2064 4.5457,-23.48605 2.1336,5.49054 2.7423,10.72693 10.6066,17.17259 11.1797,2.76472 17.3488,10.12239 16.415,23.99113 -5.8912,49.13199 27.8971,64.13988 39.1532,40.61094 0.881,-1.8417 0.4621,-4.34721 -0.095,-7.0598 -6.3574,-20.23908 -12.887,-40.5153 -2.5,-57.14285 6.7376,-19.07667 18.0198,-36.00063 12.8571,-60.71429 -13.2388,-6.26844 -8.2162,-20.21716 0.7143,-23.92857 1.5336,-8.49267 -7.5755,-13.61389 -7.3241,-2.25087 0.013,4.32635 -1.9129,5.85122 -4.9245,5.80838 1.4119,-1.05752 2.9701,-1.91398 1.7678,-6.56599 -7.6018,-17.3575 21.1766,-27.9652 17.8022,3.54419 15.2889,4.78566 8.6611,21.39888 2.6786,23.03572 6.0988,19.50393 -0.9785,37.51056 -9.4643,55.35714 8.9587,-5.558 14.9797,-15.09048 18.2143,-28.39286 3.285,15.32589 -2.0726,26.06039 -9.4643,35.71429 7.4868,1.25975 12.3469,5.69913 7.1429,22.32143 -0.7552,3.26563 -1.2656,6.58022 -0.3572,10.17857 1.857,4.04893 0.1213,7.69866 -0.8928,11.42857 l -3.2143,8.39286 c -0.082,-5 0.9329,-10 -1.9643,-15 -3.8621,-3.66395 -2.1654,-9.40495 0,-13.92857 2.6219,-9.42885 -15.2686,-10.93504 -14.1071,4.82143 1.4875,18.27365 8.1917,37.85149 -4.1072,52.67857 8.3218,7.25024 7.1248,15.83311 -1.3826,25.43944 -2.2983,3.49344 -2.4519,6.98689 -1.389,10.48033 -3.4389,-4.29315 -3.7516,-8.58629 -2.1465,-12.87944 3.3214,-19.91757 -15.063,-16.00138 -27.7792,-18.30901 1.4934,14.79437 1.1588,31.85674 20.203,24.875 0.9788,19.8826 11.9723,16.78624 18.1828,12.75318 -2.27,7.62973 -3.6702,16.25432 -14.8998,13.63706 5.301,8.86022 9.1162,4.34832 13.5108,5.05076 -7.2301,6.03031 -13.6424,14.92336 -25.3801,5.17703 2.1546,5.80712 5.3304,10.38888 14.1421,8.20749 -4.353,3.1224 -7.2094,9.83688 -14.6472,5.55584 1.9537,5.5458 6.5279,4.86769 11.1117,4.16688 -4.3872,3.71131 -8.7694,7.45447 -14.1421,4.92449 -4.9125,-4.01961 -8.5076,2.80798 -2.6517,3.91434 10.075,2.52434 7.5571,5.75837 3.283,9.09138 -1.4978,4.46651 -2.1023,10.2731 -10.7328,4.04061 -5.7884,-8.3709 -14.7892,-3.83876 -9.4702,3.15672 4.3914,3.7968 6.5426,7.24515 -4.0406,8.71257 -4.4572,1.20876 -11.4582,7.02069 -9.3439,-3.6618 -3.435,-10.01933 -10.9842,-6.69075 -10.2278,-0.37881 1.7974,8.0205 -1.9337,8.46499 -9.2177,4.04061 -6.7959,-5.25464 -13.1298,-10.40703 -0.5051,-11.36422 3.6099,-3.30282 10.1425,-7.66108 2.2729,-6.81853 -7.3377,2.24133 -9.6235,-0.72709 -6.1872,-9.59645 z"
       id="path27472"
       inkscape:connector-curvature="0"
       sodipodi:nodetypes="cccccccccccccccccccccccccccccccccccccccccccccccccccccscccccccccccccccccccccccccccccccccccccccccccc" />
    <path
       style="fill:#007f00;fill-opacity:1;stroke:none"
       d="m 306.56589,393.50614 c -7.5047,6.676 -7.1879,9.91815 -0.8929,10.53572 5.2738,0.46215 4.2515,4.94998 -0.5357,6.25 -11.4476,0.907 -9.2433,8.10637 -3.5714,9.10714 6.9923,3.33261 12.2502,4.79206 10.8929,-0.89286 0.3682,-6.64344 10.0082,-2.13285 6.25,2.5 -8.9194,11.09982 4.2611,10.85328 7.3214,10.17858 8.9831,-0.45579 11.0517,-4.03951 5.8928,-10.89286 -0.3927,-7.56927 4.2578,-4.66428 8.0358,-3.57143 -5.445,11.8642 4.0978,10.67606 7.6785,6.60714 7.0931,-1.70773 10.2969,-4.45259 2.3215,-10.17857 -1.934,-3.06588 2.2186,-5.33138 5.7142,-2.67857 2.3219,5.60176 7.6686,8.35675 15.7143,8.57143 -3.8921,-3.86905 -6.9691,-7.73809 -5.5357,-11.60714 5.1588,5.75145 11.2603,8.32101 19.1072,5 -6.2504,-3.60017 -11.0251,-7.39078 -6.9643,-12.32143 6.25,5.59302 12.5,3.57225 18.75,0.17857 -5.2722,-2.39679 -6.6664,-8.30946 2.6785,-13.92857 4.881,-4.16053 9.7619,-7.40041 14.6429,-17.5 l 5.3571,0.71428 -10.1785,-13.57143 c -12.5433,16.40646 -24.5964,24.97007 -35.7143,18.57143 l 15.5357,-22.85714 -25,16.60714 c -14.6059,12.24502 -28.0042,28.00299 -46.0714,30.17857 -2.7827,-6.80075 -5.0838,-16.00964 -11.4286,-5 z"
       id="path27474"
       inkscape:connector-curvature="0"
       sodipodi:nodetypes="cccccccccccccccccccccccccc" />
  </g>
</svg>
