<?xml version="1.0" encoding="UTF-8" standalone="no"?>
<!-- Created with Inkscape (http://www.inkscape.org/) -->

<svg
   xmlns:dc="http://purl.org/dc/elements/1.1/"
   xmlns:cc="http://creativecommons.org/ns#"
   xmlns:rdf="http://www.w3.org/1999/02/22-rdf-syntax-ns#"
   xmlns:svg="http://www.w3.org/2000/svg"
   xmlns="http://www.w3.org/2000/svg"
   xmlns:sodipodi="http://sodipodi.sourceforge.net/DTD/sodipodi-0.dtd"
   xmlns:inkscape="http://www.inkscape.org/namespaces/inkscape"
   width="553.57141"
   height="370.71429"
   id="svg6302"
   version="1.1"
   inkscape:version="0.48.4 r9939"
   sodipodi:docname="Nieuw document 29">
  <defs
     id="defs6304" />
  <sodipodi:namedview
     id="base"
     pagecolor="#ffffff"
     bordercolor="#666666"
     borderopacity="1.0"
     inkscape:pageopacity="0.0"
     inkscape:pageshadow="2"
     inkscape:zoom="0.35"
     inkscape:cx="408.92856"
     inkscape:cy="105.35714"
     inkscape:document-units="px"
     inkscape:current-layer="layer1"
     showgrid="false"
     fit-margin-top="0"
     fit-margin-left="0"
     fit-margin-right="0"
     fit-margin-bottom="0"
     inkscape:window-width="1600"
     inkscape:window-height="837"
     inkscape:window-x="-8"
     inkscape:window-y="-8"
     inkscape:window-maximized="1" />
  <metadata
     id="metadata6307">
    <rdf:RDF>
      <cc:Work
         rdf:about="">
        <dc:format>image/svg+xml</dc:format>
        <dc:type
           rdf:resource="http://purl.org/dc/dcmitype/StillImage" />
        <dc:title></dc:title>
      </cc:Work>
    </rdf:RDF>
  </metadata>
  <g
     inkscape:label="Laag 1"
     inkscape:groupmode="layer"
     id="layer1"
     transform="translate(33.928562,-267.00504)">
    <rect
       style="fill:#ffffff;fill-opacity:1;stroke:none"
       id="rect5519"
       width="553.57141"
       height="370.71426"
       x="-33.928562"
       y="267.00504" />
    <rect
       style="fill:#df3746;fill-opacity:1;stroke:none"
       id="rect6029"
       width="553.57141"
       height="47.14286"
       x="-33.928562"
       y="312.00504" />
    <rect
       style="fill:#df3746;fill-opacity:1;stroke:none"
       id="rect6031"
       width="553.57141"
       height="43.57143"
       x="-33.928562"
       y="405.57645" />
    <rect
       style="fill:#df3746;fill-opacity:1;stroke:none"
       id="rect6033"
       width="553.57141"
       height="46.42857"
       x="-33.928562"
       y="496.29074" />
    <rect
       style="fill:#df3746;fill-opacity:1;stroke:none"
       id="rect6035"
       width="553.57141"
       height="47.85714"
       x="-33.928562"
       y="589.86218" />
    <path
       style="fill:#efd520;fill-opacity:1;stroke:#a88b38;stroke-width:2.0999999;stroke-linecap:butt;stroke-linejoin:miter;stroke-miterlimit:4;stroke-opacity:1;stroke-dasharray:none"
       d="m 274.62336,294.95384 c 4.6115,-2.12021 3.56,-5.11165 4.1072,-7.85715 -0.1827,-5.94218 1.4449,-10.90387 9.2857,-12.5 1.1984,-2.38283 9.9972,-3.49388 3.3928,1.96429 2.0102,4.33478 7.6074,9.18201 -3.75,11.60714 0.028,3.80054 -0.4078,7.81552 6.9643,8.21429 2.8595,-7.8196 5.791,-14.46221 9.6429,-6.07143 4.3901,-6.32775 19.669,-0.14038 5.7143,5.71429 2.173,2.82248 7.7183,10.5112 -6.7857,6.25 -2.4486,2.97291 -2.8931,8.50517 5.7142,12.32142 4.6802,-8.22211 7.2848,-6.06658 9.6429,-2.67857 4.0081,-2.1328 10.0635,3.49274 -1.9643,6.42857 l -13.9286,3.39286 -8.2142,3.75 c -15.2201,-7.29849 -22.021,-18.97145 -19.8215,-30.53571 z"
       id="path6237-5"
       inkscape:connector-curvature="0"
       sodipodi:nodetypes="ccccccccccccccc" />
    <path
       style="fill:#ffffff"
       d="m 310.75996,629.62704 c 0.3897,-3.45738 0.084,-4.68276 -1.5323,-6.14559 -1.5943,-1.44282 -2.4433,-1.60004 -4.0364,-0.74744 -1.1096,0.59383 -3.42,1.0797 -5.1342,1.0797 -2.6113,0 -3.3517,-0.56241 -4.5657,-3.46788 -0.797,-1.90734 -1.449,-4.74633 -1.449,-6.30887 0,-1.56255 -0.675,-3.7145 -1.5,-4.78211 -1.4848,-1.92151 -1.5152,-1.92151 -3,0 -0.825,1.06761 -1.5,2.72959 -1.5,3.69329 0,2.46731 -3.8389,4.86557 -7.7883,4.86557 -4.586,0 -6.8723,1.43148 -9.0426,5.66196 l -1.847,3.60021 -1.6611,-4.15132 c -2.0874,-5.21709 -2.086,-7.41291 0.01,-11.82492 1.3565,-2.85858 1.4393,-3.88352 0.4426,-5.47947 -0.938,-1.50204 -0.9513,-2.2941 -0.057,-3.37207 1.6457,-1.98299 0.5679,-4.06117 -3.0863,-5.95086 -2.4886,-1.28689 -3.7695,-1.39981 -6.2136,-0.54778 -1.6934,0.59031 -3.2786,0.87353 -3.5228,0.62939 -1.1059,-1.10593 5.101,-5.66179 9.2114,-6.76118 2.5063,-0.67032 4.5568,-1.74533 4.5568,-2.38891 0,-2.87145 2.8572,-3.69916 7.4967,-2.17177 2.4768,0.81542 4.5033,1.27773 4.5033,1.02738 0,-0.25036 -0.9,-1.59936 -2,-2.99778 -2.8307,-3.59875 -2.5109,-5.81857 1.0508,-7.29388 l 3.0507,-1.26366 -2.7378,-2.85766 c -1.5063,-1.57172 -3.3291,-2.85767 -4.0512,-2.85767 -0.7221,0 -1.3129,-0.45 -1.3129,-1 0,-1.73904 6.6785,-1.08092 9.1237,0.89908 1.5945,1.29112 3.318,1.74122 5.3839,1.40598 4.8475,-0.78664 7.6219,2.18217 8.5702,9.17079 0.4348,3.20359 1.3826,6.20019 2.1063,6.65911 2.4269,1.53892 6.4484,0.88509 8.5923,-1.39695 2.767,-2.94539 5.2236,-12.53189 5.2236,-20.3847 l 0,-6.22649 -8.75,3.0776 c -11.674,4.10606 -23.4939,4.48739 -30.0969,0.97098 -2.3908,-1.27321 -4.4482,-2.17103 -4.572,-1.99516 -0.1239,0.17587 -1.4647,2.48363 -2.9796,5.12835 -3.2071,5.59879 -5.3102,5.82751 -7.668,0.83395 l -1.573,-3.3313 -1.2986,5.84438 c -1.5286,6.87947 -3.8621,11.7744 -7.4583,15.64509 -2.8,3.01375 -8.2667,5.69929 -11.6014,5.69929 -2.0573,0 -2.057,-0.007 0.1124,-2.94121 1.856,-2.51022 2.08,-3.74589 1.5292,-8.43272 -0.355,-3.02033 -0.2062,-6.64679 0.3306,-8.05879 1.1,-2.89322 0.4238,-3.18308 -2.4155,-1.03548 -5.8664,4.43707 -13.4695,-2.1928 -10.7976,-9.41545 l 0.8643,-2.33665 1.768,2.69828 c 2.5332,3.86619 4.4637,3.05056 19.3054,-8.15678 7.0406,-5.31645 12.8655,-9.70113 12.9444,-9.74374 0.079,-0.0426 -0.6827,-3.22746 -1.6923,-7.07746 -2.6473,-10.09448 -2.4793,-20.07828 0.4941,-29.35133 0.715,-2.23017 0.5813,-2.3148 -2.5957,-1.64249 -5.2246,1.10563 -13.8441,6.06747 -19.5607,11.26019 -3.2143,2.91978 -10.1841,12.14194 -18.1893,24.06725 -11.9081,17.73968 -13.0821,19.16711 -14.2393,17.31409 -1.1763,-1.88343 -1.6462,-1.46785 -6.9728,6.16638 -7.0229,10.06544 -10.3958,13.33709 -17.1422,16.62759 -4.0823,1.99111 -5.7334,3.52604 -7.4473,6.9231 l -2.2022,4.36478 -0.6929,-2.76077 c -0.4275,-1.70353 -0.061,-4.52388 0.9571,-7.36478 0.9075,-2.5322 1.6478,-4.97984 1.645,-5.43918 0,-0.69133 -8.1545,4.6455 -11.4313,7.48513 -0.5459,0.47312 -0.166,1.64291 0.9251,2.84863 1.8052,1.99473 1.7942,2.22074 -0.4435,9.04624 -1.2623,3.8502 -3.5466,8.34021 -5.0763,9.97778 -3.2242,3.4515 -5.6388,4.079 -4.0141,1.04314 1.251,-2.33752 1.327,-7.05693 0.1436,-8.92454 -0.6216,-0.9811 -1.9863,-1.16868 -4.9095,-0.67481 -3.386,0.57207 -4.4089,0.32365 -6.2505,-1.51801 -1.9064,-1.9064 -2.1264,-2.9346 -1.6388,-7.65913 0.9239,-8.95208 -1.434,-11.13336 -5.1771,-4.78926 -2.1025,3.56344 -2.7961,3.82445 -9.3592,3.52211 -5.3648,-0.24714 -7.6622,0.74687 -9.7818,4.23228 -1.8695,3.07421 -1.8708,3.07456 -2.3683,0.66072 -0.2737,-1.32832 -0.7517,-3.62138 -1.0621,-5.09571 -0.6823,-3.24087 0.6355,-7.01603 3.4219,-9.80238 1.679,-1.67902 1.8577,-2.44622 0.9602,-4.12313 -0.8728,-1.63078 -0.7458,-2.4545 0.6089,-3.95145 1.5936,-1.7609 1.5982,-2.0641 0.067,-4.40094 -1.6403,-2.50353 -3.4437,-3.24855 -9.1191,-3.76729 l -3,-0.27421 2.8068,-1.90225 c 1.5438,-1.04624 5.1253,-2.12503 7.959,-2.39732 3.5437,-0.3405 5.6637,-1.12677 6.7907,-2.51849 1.636,-2.02041 1.6454,-2.01955 6.291,0.57692 2.5589,1.43019 4.6525,2.20858 4.6525,1.72976 0,-0.47882 -0.3963,-1.11549 -0.8806,-1.41483 -1.4085,-0.87052 -2.0393,-5.95627 -0.9083,-7.32379 0.5686,-0.6875 2.1037,-1.25 3.4113,-1.25 1.3077,0 2.3617,-0.3375 2.3422,-0.75 -0.087,-1.85221 -2.8976,-5.64782 -5.0747,-6.85449 -2.3244,-1.28835 -2.2859,-1.32561 1.4078,-1.36007 2.7388,-0.0256 4.4119,0.62519 6,2.33366 1.2113,1.30301 3.6181,2.67852 5.3486,3.05669 5.2136,1.13935 6.5956,3.52892 6.1995,10.71925 -0.3266,5.92812 -0.1972,6.35938 2.3361,7.78241 7.2034,4.04635 12.5506,-3.37137 17.4073,-24.14782 3.8811,-16.60283 4.0524,-18.88907 1.5821,-21.12465 -2.2575,-2.04295 -4.2047,-2.097 -6.7302,-0.18679 -2.9815,2.25514 -3.7466,1.82878 -3.0832,-1.7182 0.4341,-2.32134 0.3336,-2.78715 -0.3519,-1.63019 -1.776,2.99766 -6.2428,5.10251 -12.8951,6.07654 -3.636,0.53237 -8.014,1.19828 -9.7288,1.47979 -3.6279,0.59555 -8.8127,-1.74359 -10.3876,-4.68649 -0.9487,-1.7725 -0.75,-1.98965 1.8203,-1.98965 4.4649,0 15.5261,-8.70584 12.3983,-9.75827 -2.3766,-0.79964 -7.3771,-5.54288 -8.2421,-7.81795 -1.218,-3.20365 0.6737,-9.14488 3.5018,-10.99793 2.2446,-1.47067 8.0092,-2.27717 9.0239,-1.26248 0.2577,0.25769 -0.055,1.85593 -0.6952,3.55165 -0.9674,2.56295 -0.878,3.51928 0.53,5.66818 2.3908,3.64883 5.6536,4.15932 11.1225,1.74019 7.3491,-3.25087 10.5217,-3.49792 16.1963,-1.26122 l 5.0831,2.00355 3.597,-2.44425 c 5.2808,-3.58843 12.521,-5.07045 38.5426,-7.88942 12.8552,-1.39262 23.7677,-2.53204 24.25,-2.53204 2.7662,0 -1.2759,-8.95685 -6.2264,-13.79681 -1.7951,-1.75505 -7.4432,-5.19749 -12.5513,-7.64988 -9.675,-4.64487 -17.3771,-10.78292 -20.0789,-16.00144 -0.8691,-1.67853 -1.847,-5.5002 -2.1733,-8.49261 l -0.5931,-5.44074 -6,-2.40627 c -3.3,-1.32346 -8.3009,-4.36975 -11.113,-6.76955 l -5.113,-4.36326 -2.1842,2.32493 -2.1841,2.32493 4.0143,0.64192 c 4.137,0.66153 7.5166,3.36626 8.3928,6.71688 0.4266,1.63151 -0.05,1.9119 -3.2499,1.9119 -3.2801,0 -4.2878,0.63795 -8.0445,5.09323 -3.6826,4.3674 -4.7086,5.03247 -7.1993,4.66691 -2.7327,-0.40108 -2.8679,-0.25859 -2.2824,2.40677 0.3422,1.5582 0.3091,4.25862 -0.074,6.00093 -0.6306,2.87146 -0.795,2.98841 -1.7568,1.25 -1.2516,-2.26219 -3.7619,-4.34126 -5.2958,-4.38604 -0.5992,-0.0175 -1.5937,1.07487 -2.21,2.42747 -0.6163,1.3526 -3.051,3.42838 -5.4105,4.61285 -2.3595,1.18447 -5.3007,3.07957 -6.5361,4.21134 -2.8144,2.57847 -3.7539,1.67643 -3.7539,-3.60413 0,-3.15619 -0.4189,-4.23031 -1.75,-4.48766 -1.4242,-0.27534 -1.75,0.38433 -1.75,3.54388 0,2.1352 -0.5625,4.56609 -1.25,5.40196 -2.2039,2.67957 -11.3443,7.863 -13.8375,7.84718 -1.363,-0.009 -1.9339,-0.33492 -1.3122,-0.75 1.0899,-0.72775 3.3997,-4.5793 3.3997,-5.66895 0,-0.31116 -1.2375,-0.57263 -2.75,-0.58105 -5.4073,-0.0301 -5.9884,-1.39672 -3.7141,-8.73469 0.8805,-2.84079 -1.0894,-3.00777 -3.9714,-0.33665 -3.4282,3.17722 -7.1865,3.0959 -11.2378,-0.24316 -3.9842,-3.28381 -5.7002,-3.70785 -8.702303,-2.15036 -2.453,1.27264 -2.6244,1.21669 -2.6244,-0.85663 0,-3.18053 2.7492,-6.66045 6.499903,-8.22761 2.6826,-1.12085 3.1566,-1.78145 2.7615,-3.84826 -0.401,-2.09787 -0.022,-2.59156 2.3808,-3.10079 4.0207,-0.85212 5.8578,-1.97975 5.8578,-3.59553 0,-1.00255 -1.3963,-1.39101 -5,-1.39101 -4.8147,0 -5.0124,-0.11116 -5.3337,-3 -0.4492,-4.03911 -2.5637,-6.16438 -6.952403,-6.98769 -2.8573,-0.53604 -3.3044,-0.88216 -2.0479,-1.58534 2.1838,-1.22211 18.835503,-0.6024 21.374203,0.79546 1.8951,1.04348 2.0125,0.88621 1.6509,-2.21152 -0.3175,-2.71962 0.09,-3.6491 2.2098,-5.03791 4.0068,-2.6254 3.126,-7.38227 -1.9009,-10.26518 -1.9554,-1.12142 -1.9509,-1.14768 0.2029,-1.17741 3.4572,-0.0477 6.8167,1.88628 8.6409,4.9745 1.0498,1.77707 3.2338,3.35429 5.8545,4.22784 2.299,0.76634 5.0651,2.5788 6.1468,4.02767 1.8818,2.52043 1.8952,2.82179 0.3109,6.97038 -5.1591,13.50875 2.4882,20.78162 8.6471,8.22382 3.1274,-6.37679 8.8408,-14.4426 15.8344,-22.35401 3.7723,-4.26734 4.5754,-5.76861 3.8305,-7.16043 -0.6356,-1.18767 -0.4548,-3.14331 0.5554,-6.00659 0.8239,-2.33506 1.3269,-4.41661 1.1179,-4.62567 -0.2091,-0.20906 -2.1187,-0.53611 -4.2435,-0.72677 -3.6036,-0.32336 -3.9135,-0.60674 -4.6084,-4.21391 -1.7152,-8.90426 -2.8225,-11.1534 -7.2948,-14.81814 -3.6139,-2.96135 -4.4945,-4.30671 -4.494,-6.86606 l 6e-4,-3.18305 -4.9259,0.34148 c -2.7093,0.18781 -5.7471,-0.13601 -6.7506,-0.71959 -1.7059,-0.99196 -1.6882,-1.06305 0.2703,-1.09148 2.1609,-0.0314 5.405,-2.87882 5.405,-4.74414 0,-0.58094 -1.1671,-1.82096 -2.5935,-2.7556 -1.4265,-0.93465 -3.4656,-3.6708 -4.5315,-6.08034 -1.0659,-2.40955 -2.8725,-5.03563 -4.0149,-5.83574 -2.9881,-2.09295 -1.431,-3.61459 3.6989,-3.61459 3.8255,0 4.441,-0.28712 4.441,-2.07157 0,-1.53562 -0.5821,-2.02441 -2.25,-1.8893 -5.8402,0.47307 -6.6781,-0.0144 -10.7221,-6.23796 -2.2153,-3.40936 -4.0279,-7.03488 -4.0279,-8.05671 0,-1.72015 0.1647,-1.74248 2.2225,-0.30116 3.3243,2.3284 4.7775,1.92662 4.7775,-1.32085 0,-4.34999 2.3319,-5.80754 6.298,-3.93657 5.2258,2.46521 6.0998,1.19505 2.5649,-3.72726 -2.8704,-3.99702 -3.0349,-4.62917 -1.9105,-7.34376 0.6767,-1.63365 2.0892,-3.74755 3.139,-4.69755 2.3482,-2.12508 2.4668,-6.143 0.2536,-8.58857 -1.5536,-1.7167 -1.5258,-1.82874 0.453,-1.82874 3.7999,0 7.3293,2.32921 9.258,6.10977 1.4249,2.79303 2.3702,3.59154 3.8069,3.21582 2.1803,-0.57016 3.1865,0.68091 4.0864,5.08108 0.3529,1.7251 1.359,3.2216 2.286,3.40013 1.3447,0.25896 1.713,-0.67955 1.9603,-4.99396 0.2971,-5.18539 0.3821,-5.32033 3.5414,-5.62523 3.9527,-0.38145 6.2485,-3.3537 6.303,-8.16012 l 0.04,-3.52749 1.4292,2.63037 c 1.6451,3.02764 1.4484,18.21313 -0.2777,21.43473 -0.9372,1.74925 -0.6862,1.9349 2.6159,1.9349 2.8286,0 3.8752,0.50752 4.6396,2.25 1.4766,3.36567 5.7277,2.97185 8.924,-0.82672 l 2.5889,-3.07673 0,2.5 c 0,2.78525 -4.4287,8.65345 -6.5308,8.65345 -0.7548,0 -1.9329,2.05351 -2.6649,4.6449 -0.8047,2.84936 -2.3531,5.4223 -4.0054,6.65596 -2.5854,1.93024 -2.8679,1.94451 -7.0297,0.3551 -5.4307,-2.07402 -12.1093,-2.15602 -13.7584,-0.16895 -0.6813,0.82084 -0.9645,2.5613 -0.6323,3.88499 0.491,1.95628 1.4632,2.52713 5.2782,3.09922 10.8412,1.62574 21.1412,8.78109 28.9397,20.10427 3.7277,5.41238 3.7643,5.43467 5.8274,3.55251 4.689,-4.2776 8.8046,-5.6157 17.0762,-5.55191 6.6299,0.0511 9.3701,0.61852 16,3.31289 13.8481,5.62781 28.8778,5.41526 41.1249,-0.58159 5.3247,-2.60725 5.4134,-2.71779 3.1764,-3.95933 -3.2462,-1.80159 -6.0945,-1.65134 -14.7375,0.77745 -8.9999,2.52906 -16.3571,2.88366 -20.8138,1.00317 -3.1496,-1.32895 -3.25,-1.55542 -3.25,-7.32946 l 0,-5.95813 3.0008,0.65909 c 2.3229,0.51019 3.1517,0.26598 3.6686,-1.08101 0.6015,-1.56742 0.7436,-1.53505 1.4321,0.32618 0.7828,2.11616 5.9777,3.94175 7.8768,2.76806 3.875,-2.39488 -7.8178,-7.56526 -24.9783,-11.04507 -14.1565,-2.87066 -15.5266,-4.35282 -14.4186,-15.59745 1.1376,-11.54522 -2.5417,-14.39216 -12.0596,-9.3314 -2.6269,1.39672 -4.9789,2.33673 -5.2267,2.08893 -0.8643,-0.86426 7.0701,-8.75814 11.287,-11.2294 8.5936,-5.03621 14.7226,-5.01756 15.9941,0.0487 0.3477,1.38513 -0.123,5.91249 -1.0459,10.06081 -2.824,12.69308 -1.3368,15.01477 11.4784,17.91938 4.1202,0.93386 10.0628,2.8489 13.2058,4.25565 5.8916,2.63702 8.7855,2.56525 8.7855,-0.21787 0,-3.29194 -2.1205,-5.29182 -8.4742,-7.9922 -6.2942,-2.67506 -6.5942,-2.96466 -8.0103,-7.73334 -1.9224,-6.47315 -0.9242,-8.27227 5.3342,-9.61445 2.6787,-0.57448 7.1408,-1.93941 9.9157,-3.03317 2.7749,-1.09376 7.8262,-2.70927 11.2251,-3.59001 9.6914,-2.51131 11.6011,-1.46748 19.2093,10.49995 6.1763,9.71501 6.3358,9.87025 9.9943,9.72436 2.0448,-0.0815 3.9958,0.12976 4.3356,0.46955 0.9049,0.90489 -1.9385,5.92889 -4.9454,8.73804 -1.9308,1.80386 -2.2792,2.64165 -1.345,3.23468 1.9166,1.21668 4.9561,0.97751 8.0434,-0.63289 l 2.7828,-1.45152 -0.664,8.7951 c -0.752,9.96126 0.29,14.54234 4.1275,18.14752 1.3591,1.27675 2.471,3.11783 2.471,4.09129 0,3.25244 -4.2305,6.96854 -8.6003,7.55467 -3.4296,0.45999 -4.5293,1.21587 -6.7485,4.63833 -3.5983,5.54947 -3.4631,9.69414 0.4621,14.1647 2.7046,3.08036 2.9343,3.7621 1.75,5.19328 -1.868,2.25729 -8.7695,5.28181 -12.1133,5.30852 -2.2724,0.0182 -2.75,0.46306 -2.75,2.5618 0,2.86478 2.6,8.29669 6.4042,13.37969 3.0176,4.0319 2.3348,5.47916 -3.3946,7.19574 -4.5655,1.36786 -9.3989,0.0378 -15.8299,-4.35622 -2.3761,-1.62351 -4.5576,-2.71445 -4.8478,-2.42433 -0.7272,0.72726 3.4173,18.57766 6.241,26.87966 2.5066,7.3698 7.2777,16.78561 8.5054,16.78561 1.772,0 12.5648,10.95044 15.9611,16.19426 2.0285,3.13184 4.9463,9.65684 6.484,14.5 1.5378,4.84316 3.4068,9.31099 4.1534,9.92851 2.1644,1.79022 12.7754,2.60182 17.4742,1.33656 8.0901,-2.17843 13.193,-11.18369 7.099,-12.52775 -6.2061,-1.36877 -7.8096,-2.20156 -9.0207,-4.68469 -1.3479,-2.76387 -6.8439,-5.21573 -9.4499,-4.21573 -0.8392,0.32203 -2.0024,1.57176 -2.5849,2.77718 -0.9933,2.05535 -1.0634,1.99873 -1.1268,-0.91046 -0.08,-3.66877 3.4823,-9.35763 6.9623,-11.11857 4.1924,-2.12138 11.2416,-1.58423 15.2933,1.16535 l 3.6024,2.44466 4.5372,-13.88253 c 5.285,-16.1708 5.8221,-22.40138 2.2855,-26.51285 -1.5239,-1.77172 -3.6244,-2.80174 -6.5,-3.18743 -7.1334,-0.9568 -4.5407,-5.83054 2.7328,-5.1369 2.2103,0.21079 4.0188,0.0941 4.0188,-0.25928 0,-0.3534 -3.3704,-6.66529 -7.4899,-14.02643 -9.3479,-16.7041 -15.3873,-31.76309 -16.1912,-40.3721 -0.886,-9.48753 0.9459,-14.88513 7.1673,-21.11863 3.7982,-3.80548 4.8617,-5.4799 4.1735,-6.57089 -1.4194,-2.25028 1.6733,-7.75863 9.1839,-16.35676 10.1807,-11.65508 11.9383,-14.21528 12.6498,-18.42645 0.8292,-4.90771 -0.7401,-8.03907 -4.0286,-8.03907 -3.2007,0 -3.1583,-2.02238 0.1241,-5.92327 4.7232,-5.61323 11.6609,-3.39573 14.4553,4.62035 1.2793,3.66958 -0.1526,10.24203 -3.1476,14.44812 -2.3683,3.32603 -2.3609,3.50012 0.1776,4.16396 1.1408,0.29833 2.3077,1.43534 2.5931,2.5267 0.4901,1.87424 0.7168,1.90159 4.0875,0.49324 8.0841,-3.37777 16.2452,2.76919 16.2452,12.236 0,3.09477 -0.5582,3.06005 -3.3707,-0.20965 -1.9602,-2.27894 -2.7747,-2.55075 -5.8914,-1.96605 -2.6273,0.49287 -4.1785,1.58747 -5.6702,4.00103 -3.561,5.76192 -11.8794,12.6527 -19.555,16.19904 -4.0599,1.87579 -7.7532,3.41053 -8.2074,3.41053 -0.4542,0 -2.0626,1.14689 -3.5743,2.54865 -10.3057,9.556 -8.4858,19.6105 8.6709,47.90312 9.8165,16.18809 11.0269,19.84457 10.9395,33.04824 -0.054,8.18768 -0.6138,12.77291 -2.1892,17.93449 -2.1326,6.98719 -2.1141,8.9274 0.064,6.74884 0.6508,-0.65083 2.8319,-1.18333 4.8469,-1.18333 6.5856,0 10.8346,6.88985 8.3086,13.47246 -0.5508,1.43541 -0.9242,1.35757 -3.0449,-0.63475 -3.4137,-3.20694 -5.1839,-1.70457 -8.3713,7.10482 -1.4492,4.00497 -3.8899,8.85476 -5.424,10.77731 l -2.7891,3.49554 3.0449,-0.66876 c 4.3966,-0.96567 11.1475,1.17257 14.2761,4.52174 4.6825,5.0127 4.2936,12.29885 -0.9234,17.29701 l -2.9124,2.79025 0.4979,-4.41717 c 0.442,-3.92173 0.1898,-4.65952 -2.2489,-6.57781 -3.6858,-2.89925 -5.4206,-2.74652 -14.3512,1.26351 -4.1943,1.88328 -9.3134,3.73336 -11.3759,4.11129 -4.0642,0.74471 -4.5766,1.53369 -2.25,3.46456 2.7391,2.27327 1.567,2.73775 -5.6126,2.22406 -6.9382,-0.49643 -7.0957,-0.45581 -6.425,1.65732 0.6517,2.05334 0.4665,2.13089 -3.5521,1.48828 l -4.2396,-0.67794 1.6646,2.37665 c 0.9156,1.30715 1.6647,3.82211 1.6647,5.5888 l 0,3.21217 14.25,-0.55958 c 15.9711,-0.62716 21.0385,0.2395 24.7978,4.24113 3.267,3.47756 3.138,11.71014 -0.3175,20.26509 -1.3578,3.36171 -2.2276,6.35336 -1.9329,6.64811 0.2948,0.29476 1.531,0.53592 2.7471,0.53592 5.8419,0 11.4555,4.26852 11.4555,8.71068 0,1.53156 -0.6439,1.78076 -3.819,1.47797 -5.8667,-0.55948 -9.2041,2.87999 -13.6448,14.06223 -4.5307,11.40892 -7.6483,16.29271 -12.0638,18.89791 -4.0855,2.41052 -7.4724,7.55113 -7.4724,11.34168 0,2.42985 -0.1916,2.5954 -1.626,1.40495 -1.3314,-1.10496 -1.5199,-2.61479 -1.0406,-8.33275 l 0.5855,-6.98329 -5.3867,5.96031 -5.3868,5.9603 2.5022,1.88794 c 2.284,1.72339 2.4451,2.33353 1.8475,7 -1.0693,8.34989 -2.3326,12.11078 -4.8684,14.49308 l -2.3959,2.25077 0.4868,-4.31846 z"
       id="path6214-1-2"
       inkscape:connector-curvature="0" />
    <path
       style="fill:#000000;stroke:#050505;stroke-width:1.89999998;stroke-miterlimit:4;stroke-opacity:1;stroke-dasharray:none"
       d="m 310.46156,629.43291 c 0.4847,-3.03088 0.1921,-4.46666 -1.2808,-6.28561 -1.6113,-1.98985 -2.239,-2.18076 -4.0262,-1.22432 -1.1644,0.62322 -3.4713,1.13312 -5.1262,1.13312 -3.8797,0 -6.1225,-3.13855 -6.1225,-8.56752 0,-4.74446 -2.7436,-8.28891 -4.8137,-6.21883 -0.6524,0.65249 -1.1863,1.99635 -1.1863,2.98635 0,3.07876 -3.649,5.8 -7.7775,5.8 -4.5962,0 -7.9836,2.21473 -9.7554,6.3783 l -1.3285,3.1217 -1.5693,-3.71788 c -1.9791,-4.68868 -1.9966,-9.05516 -0.051,-12.81671 1.1962,-2.31311 1.2687,-3.3343 0.3422,-4.81786 -0.7022,-1.12445 -0.8491,-2.64071 -0.3646,-3.76507 0.4462,-1.03536 0.8708,-2.33247 0.9437,-2.88247 0.073,-0.55 0.9645,-2.63986 1.9814,-4.64414 1.5039,-2.96416 1.6483,-4.21954 0.7739,-6.72789 -0.5913,-1.69607 -0.7042,-3.31293 -0.251,-3.59303 0.4532,-0.28009 2.9004,0.11565 5.4382,0.87942 l 4.6142,1.38868 -1.9979,-2.80589 c -3.4314,-4.81899 -1.9282,-10.05396 1.8938,-6.59511 0.9711,0.87888 2.5178,1.59796 3.4369,1.59796 2.4867,0 5.6713,-3.65 5.6713,-6.5 0,-1.375 0.4132,-2.5 0.9182,-2.5 4.0105,0 7.0818,4.7338 7.0818,10.91516 0,4.3546 1.7855,6.08484 6.2793,6.08484 4.988,0 7.9033,-5.8908 8.6456,-17.46986 l 0.5751,-8.96986 5,-1.39296 c 2.75,-0.76612 5.1688,-1.54843 5.375,-1.73847 0.2062,-0.19003 -3.7898,-10.26426 -8.88,-22.38718 -8.2645,-19.68247 -9.5021,-22.04168 -11.5632,-22.04168 -2.2742,0 -2.2419,0.15764 2.2017,10.75001 10.502,25.03395 12.6189,30.32813 12.2529,30.6438 -0.2125,0.1833 -5.5614,2.07626 -11.8864,4.20659 -14.8097,4.98806 -23.5866,5.27891 -31.7863,1.05334 l -5.2863,-2.72421 -1.5633,3.78524 c -0.8598,2.08188 -2.2927,4.60535 -3.1842,5.6077 -1.5442,1.7361 -1.6738,1.66502 -2.7346,-1.5 -0.7066,-2.10857 -1.8637,-3.43382 -3.1668,-3.62726 -1.7979,-0.26688 -2.2602,0.62509 -3.7162,7.16936 -1.7522,7.87581 -5.2719,13.90466 -9.8805,16.92435 -1.4363,0.9411 -2.7398,1.71067 -2.8966,1.71015 -0.7473,-0.002 -0.1721,-16.67469 0.6176,-17.90076 0.6189,-0.96094 0.3264,-1.82315 -0.9302,-2.74197 -1.5392,-1.12551 -2.0844,-1.11368 -3.4027,0.0738 -2.6646,2.40015 -6.5971,2.89987 -8.4261,1.07077 -2.5026,-2.50251 -1.9814,-3.42909 1.6062,-2.85604 2.9172,0.46596 4.7603,-0.61728 18,-10.57908 8.1125,-6.104 14.7442,-11.2034 14.7371,-11.33198 -0.01,-0.12859 -0.9071,-3.08639 -2,-6.57289 -2.7782,-8.86278 -2.6532,-21.49797 0.2983,-30.16092 l 2.2146,-6.49999 12.3047,-1.63804 c 6.7676,-0.90091 12.5004,-1.83377 12.7397,-2.073 0.2392,-0.23923 -0.1229,-1.17874 -0.8047,-2.0878 -1.1364,-1.51514 -2.0728,-1.53253 -11.2397,-0.20871 -15.4473,2.23079 -14.4477,2.57624 -12.6386,-4.3678 1.4109,-5.41513 1.3985,-6.0076 -0.1577,-7.56376 -1.7624,-1.76249 -4.1045,-1.22565 -3.4061,0.78075 0.2218,0.6371 -0.4294,4.19016 -1.4472,7.8957 -1.0177,3.70554 -1.8504,7.84148 -1.8504,9.19098 0,1.3495 -0.45,2.73175 -1,3.07167 -0.6178,0.38181 -1.0084,-1.41121 -1.022,-4.69097 -0.022,-5.3174 -2.149,-11.39295 -5.8228,-16.63166 -1.0327,-1.47255 -2.4151,-4.33517 -3.0722,-6.36139 -1.6783,-5.17574 -7.8664,-10.34812 -17.8997,-14.96161 -8.7986,-4.04572 -16.0743,-9.23219 -18.8115,-13.40975 -0.8461,-1.29131 -2.1564,-4.40121 -2.9117,-6.91088 -1.34,-4.45243 -1.3056,-4.64147 1.4193,-7.79839 3.6928,-4.27831 6.1206,-9.38335 6.1206,-12.86993 0,-3.07573 -0.1447,-3.00863 10.4337,-4.83881 8.7844,-1.51983 9.1337,-1.42064 12.2245,3.47161 1.563,2.47402 3.4035,4.49902 4.09,4.5 0.9908,10e-4 6.2138,-7.08546 7.4816,-10.15161 0.1486,-0.35938 3.2591,-0.9691 6.9122,-1.35494 l 6.6421,-0.70153 2.0806,8.85493 c 4.6124,19.62953 9.1789,29.72712 15.3903,34.03163 9.026,6.25507 17.4222,18.98382 21.1342,32.03997 l 1.4832,5.21665 -3.6862,0.61524 c -2.0274,0.33838 -4.1353,0.72808 -4.6842,0.866 -1.6825,0.42278 17.6638,1.98229 23.231,1.87266 6.0344,-0.11884 11.2926,-2.85314 13.0953,-6.8097 2.2755,-4.99419 1.8828,-5.47822 -5.6837,-7.00546 -2.2438,-0.45289 -3.9002,-1.63614 -5,-3.57168 -1.776,-3.12571 -6.7734,-5.36378 -9.5757,-4.28845 -0.9549,0.36645 -2.1201,1.61619 -2.5892,2.77718 -0.7003,1.73321 -0.8643,1.43732 -0.9163,-1.65379 -0.05,-2.94277 0.684,-4.58018 3.3598,-7.5 3.262,-3.55945 3.721,-3.73531 9.75,-3.73531 4.9659,0 7.0075,0.48554 9.4915,2.25737 l 3.1647,2.25737 4.2948,-12.75737 c 3.3207,-9.86419 4.3039,-14.28129 4.3353,-19.47703 0.049,-8.18309 -1.7508,-10.54847 -8.8204,-11.58998 -4.6806,-0.68957 -4.6841,-0.69304 -3.042,-3.03147 1.3804,-1.96575 2.3461,-2.28526 6.0234,-1.99279 2.4087,0.19157 4.3785,0.12007 4.3772,-0.15889 -10e-4,-0.27897 -2.2889,-4.55721 -5.0838,-9.50721 -13.521,-23.9476 -18.9305,-37.92134 -18.8919,-48.80163 0.028,-7.90103 2.3687,-13.11181 8.1927,-18.23834 3.7727,-3.32083 4.3228,-4.24622 3.3968,-5.71422 -1.6469,-2.6108 1.959,-8.64996 11.2737,-18.88104 8.7561,-9.61761 12.0896,-16.17958 10.512,-20.69273 -0.6537,-1.87022 -1.7537,-2.767 -3.6656,-2.98847 -3.4196,-0.39613 -3.461,-2.16335 -0.1427,-6.10685 4.8167,-5.72435 12.0729,-3.22967 14.4211,4.95799 1.1141,3.88476 0.044,8.79061 -2.9978,13.73945 -2.4609,4.00422 -2.4605,3.87533 -0.012,4.51558 1.1001,0.28766 2,1.22119 2,2.07452 0,2.3091 -6.8075,8.93439 -12.5,12.16544 -12.171,6.90825 -14.7509,10.67704 -10.461,15.28173 3.7164,3.98905 9.4515,2.21917 12.9438,-3.9945 1.5259,-2.71508 2.0525,-4.89062 1.6594,-6.85602 -0.495,-2.47493 -0.054,-3.25482 3.141,-5.55741 2.0443,-1.47316 4.9327,-4.39214 6.4186,-6.48663 6.2139,-8.75844 17.9592,-4.59121 19.5032,6.9197 0.6507,4.8514 0.047,5.14941 -3.0756,1.51887 -3.3295,-3.87078 -8.3818,-2.76315 -12.1413,2.66177 -4.5723,6.59786 -11.2633,12.0139 -19.3348,15.65049 -11.9969,5.40523 -12.3062,5.60588 -15.0544,9.76688 -2.1295,3.2242 -2.5788,5.03017 -2.4879,10.00011 0.1452,7.93493 2.8804,14.39493 13.7684,32.51856 4.7756,7.94929 9.4545,16.94929 10.3976,20 2.4841,8.03619 2.2349,22.46533 -0.5524,31.98671 -2.1914,7.4859 -2.1935,9.42902 -0.01,7.24337 0.6509,-0.65083 2.832,-1.18333 4.847,-1.18333 6.5856,0 10.8346,6.88985 8.3086,13.47246 -0.5541,1.44385 -0.9005,1.37986 -2.9491,-0.54473 -3.9959,-3.75394 -5.0977,-2.59599 -9.8588,10.36176 -0.9679,2.63422 -2.9269,6.17636 -4.3531,7.87142 l -2.5933,3.08193 3.1074,-0.6825 c 4.5163,-0.99195 11.2025,1.1508 14.4548,4.63245 3.8945,4.16908 3.9985,11.25303 0.231,15.73047 -3.3302,3.95773 -4.1032,3.8793 -3.6076,-0.366 0.3173,-2.71806 -0.1614,-4.00606 -2.2742,-6.11891 -3.2808,-3.28074 -6.3793,-2.99913 -15.6778,1.42484 -3.4933,1.66204 -8.039,3.32283 -10.1015,3.69064 -4.063,0.72456 -4.5783,1.51383 -2.25,3.44616 2.7391,2.27327 1.567,2.73775 -5.6126,2.22406 -6.9382,-0.49643 -7.0957,-0.45581 -6.425,1.65732 0.6504,2.04955 0.4626,2.13026 -3.4875,1.49862 l -4.175,-0.66761 1.6,3.09414 c 0.8801,1.70178 1.6001,4.2076 1.6001,5.56847 l 0,2.47434 14.75,-0.52598 c 16.4417,-0.5863 21.1924,0.33427 24.4603,4.73989 2.6846,3.61925 2.4968,10.96217 -0.4901,19.15554 -1.3471,3.69533 -2.2103,6.95783 -1.9181,7.25 0.2922,0.29217 1.5263,0.53122 2.7424,0.53122 5.8419,0 11.4555,4.26852 11.4555,8.71068 0,1.53156 -0.6439,1.78076 -3.819,1.47797 -5.7849,-0.55168 -9.082,2.81844 -13.7164,14.02053 -4.6589,11.26121 -8.5621,17.27274 -12.556,19.33807 -3.6692,1.89741 -6.8998,6.96232 -6.9049,10.82518 0,2.53329 -0.1948,2.71384 -1.6223,1.52916 -1.3083,-1.08582 -1.5223,-2.68897 -1.1162,-8.36389 l 0.5023,-7.02061 -5.3245,5.99146 -5.3246,5.99144 2.4995,2.00267 c 2.4489,1.96214 2.4773,2.14179 1.4016,8.87556 -1.1567,7.24032 -2.833,11.39214 -5.4898,13.59709 -1.4371,1.1927 -1.5374,0.92503 -0.974,-2.59851 z m -29.5557,-21.91036 c 0,-0.70876 -1.3631,-2.43562 -3.0291,-3.83748 -2.3636,-1.98882 -2.8951,-3.08294 -2.419,-4.9798 0.3486,-1.38889 0.1197,-2.73406 -0.5339,-3.13803 -1.5685,-0.96942 -5.018,2.3419 -5.018,4.81708 0,2.82894 8.1115,10.63452 9.75,9.38225 0.6875,-0.52545 1.25,-1.53526 1.25,-2.24402 z m 27.3729,0.48676 c 4.9566,-2.19256 5.4739,-3.00554 3.143,-4.94001 -1.1975,-0.99379 -2.2657,-0.82429 -5.5308,0.87756 -2.2257,1.16009 -4.7078,2.10924 -5.5159,2.10924 -1.6511,0 -1.7181,0.18783 -0.8622,2.41821 0.8133,2.11945 3.2108,1.99226 8.7659,-0.465 z m 28.9235,-51.2032 c 3.3302,-3.12286 4.4844,-5.61708 5.242,-11.32768 0.5803,-4.37495 0.3692,-5.23002 -1.8949,-7.67298 -2.6223,-2.82948 -4.6435,-3.5616 -4.6435,-1.68195 0,0.5888 -0.8412,0.80041 -1.876,0.47195 -2.6467,-0.84002 -3.6348,3.11692 -1.1151,4.46543 2.9101,1.55743 3.4772,6.46154 1.1851,10.24774 -3.2655,5.39406 -3.6643,7.74749 -1.3129,7.74749 1.1087,0 3.0956,-1.0125 4.4153,-2.25 z m -31.2964,-14.85564 c 0,-1.15811 -1.125,-3.44263 -2.5,-5.07673 -1.375,-1.63409 -2.5,-3.79981 -2.5,-4.8127 0,-1.01289 -2.025,-4.21397 -4.5,-7.11351 -3.7775,-4.42551 -4.5,-5.94415 -4.5,-9.45922 0,-3.94596 -1.8927,-7.20622 -3.342,-5.75687 -0.3619,0.3619 -0.658,3.07383 -0.658,6.02651 0,5.61989 1.2503,8.46212 6.0698,13.79816 1.4903,1.65 3.0339,4.125 3.4302,5.5 0.7369,2.5565 6.2469,9 7.6962,9 0.4421,0 0.8038,-0.94754 0.8038,-2.10564 z m -58.8697,-92.17954 c 1.7542,-1.27646 2.4648,-2.54701 2.1334,-3.81441 -0.6136,-2.34623 -0.8176,-2.34802 -4.1093,-0.0362 -1.4599,1.02534 -4.3419,2.46574 -6.4044,3.20089 -3.445,1.22792 -4.8266,3.52489 -3.1367,5.21478 0.7991,0.79909 8.1489,-2.1142 11.517,-4.5651 z m -7.1915,-4.619 c 1.8913,-0.95058 3.6035,-2.22283 3.805,-2.82721 0.5058,-1.51735 -3.5621,-2.66426 -5.0551,-1.42523 -0.6684,0.55474 -3.3356,1.54251 -5.927,2.19504 -4.2338,1.06609 -4.6058,1.38439 -3.6672,3.13819 1.2038,2.2493 4.9642,1.87451 10.8443,-1.08079 z m -7.5953,-5.48418 c 6.09,-2.69328 7.2356,-3.88617 5.2859,-5.50422 -1.0134,-0.84106 -2.4396,-0.6542 -5.739,0.75189 -2.4147,1.02911 -5.1973,2.15008 -6.1835,2.49106 -1.4556,0.50325 -1.5902,0.99924 -0.7148,2.63479 1.3255,2.47679 0.8519,2.50085 7.3514,-0.37352 z m 0.6565,-10.56214 c 0.275,-0.36598 1.468,-1.32556 2.6512,-2.13239 1.8778,-1.28053 1.9794,-1.70183 0.7997,-3.31513 -1.2888,-1.76258 -1.5481,-1.70354 -5.5981,1.27492 -2.3358,1.71771 -4.9721,3.1231 -5.8587,3.1231 -2.9223,0 -4.89,2.29619 -3.9755,4.6391 l 0.8349,2.1391 5.3233,-2.53163 c 2.9277,-1.3924 5.5482,-2.83108 5.8232,-3.19707 z m -76,170.0913 c 0,-0.53747 -0.2731,-1.68903 -0.607,-2.55901 -0.3983,-1.03799 -0.054,-1.58179 1,-1.58179 1.7657,0 2.2368,3.49273 0.607,4.5 -0.55,0.33992 -1,0.17828 -1,-0.3592 z m 98,-4.04709 c 0,-2.48288 10.1557,-8.2713 11.7372,-6.68982 0.3493,0.34933 0.1912,1.86385 -0.3514,3.36562 -0.665,1.84057 -1.622,2.66409 -2.9362,2.52677 -1.0723,-0.11205 -3.4121,0.18918 -5.1996,0.66939 -1.7875,0.48021 -3.25,0.53783 -3.25,0.12804 z m -111.0083,-2.0993 c -1.118,-0.69132 -1.4258,-2.50722 -1.2285,-7.24915 0.3187,-7.65799 -1.1416,-10.36907 -5.056,-9.38663 -1.4541,0.36497 -3.1819,1.86513 -3.9129,3.39746 -1.6397,3.43698 -6.7943,4.5379 -6.7943,1.45112 0,-1.0591 -1.8,-3.97054 -4,-6.46987 -4.5468,-5.16541 -4.8557,-6.33097 -1.9246,-7.26126 1.1414,-0.36228 1.8311,-0.90286 1.5327,-1.2013 -0.2984,-0.29843 0.3582,-1.68775 1.4591,-3.08738 1.6271,-2.06853 1.8755,-3.38665 1.3272,-7.04322 l -0.6746,-4.49844 4.4465,2.60581 c 5.7145,3.34895 7.8541,2.45914 6.0543,-2.51793 -1.9204,-5.31099 -1.6677,-5.82745 2.5294,-5.16845 2.979,0.46776 4.2189,0.14794 6.0306,-1.55562 4.6128,-4.33741 7.4482,-0.68726 6.1504,7.91756 -0.5741,3.80669 -0.3422,4.75265 1.6552,6.75 2.9729,2.97293 8.1917,3.072 11.8121,0.22424 4.3219,-3.39963 7.3343,-10.77344 11.0237,-26.98442 3.1562,-13.868 3.3446,-15.5399 2.0894,-18.54399 -1.4879,-3.56101 -4.7982,-5.05147 -8.5645,-3.85611 -1.5322,0.48631 -1.982,0.34903 -1.486,-0.45351 0.3912,-0.63302 0.1662,-1.8077 -0.5,-2.61042 -1.0337,-1.24554 -1.7705,-0.95425 -5.0264,1.9873 -2.3642,2.13591 -5.2641,3.67007 -7.6248,4.03389 -2.0954,0.32291 -6.1458,1.08887 -9.001,1.70214 -4.0475,0.86936 -5.8834,0.82834 -8.3327,-0.18617 l -3.1413,-1.30119 3.3326,-1.39268 c 3.1719,-1.32547 12.8327,-9.93112 12.8327,-11.43106 0,-0.39052 -1.568,-1.22751 -3.4844,-1.85997 -6.8846,-2.27213 -9.7672,-9.82957 -5.327,-13.9662 3.5391,-3.29719 5.3569,-2.65885 5.3569,1.88117 0,7.63262 6.5898,10.88301 14.7478,7.27431 7.5798,-3.35289 9.7428,-3.46468 16.7482,-0.86554 4.9067,1.82048 10.1828,2.67482 21.9585,3.55567 8.525,0.6377 17.5382,1.40311 20.0294,1.70093 l 4.5293,0.54149 3.2483,9.68649 c 1.7865,5.32758 3.2358,9.9825 3.2206,10.34426 -0.015,0.36177 -5.2671,8.40932 -11.671,17.88343 -10.7245,15.86619 -11.7347,17.05521 -12.7994,15.06573 -1.0772,-2.0128 -1.6609,-1.43531 -8.5691,8.47777 -7.4378,10.6732 -11.3368,14.55416 -15.9881,15.9142 -1.375,0.40205 -3.5125,1.65772 -4.75,2.79038 -2.7669,2.53247 -2.7775,2.19571 -0.1523,-4.82074 1.1537,-3.08358 1.9412,-5.75285 1.75,-5.93171 -0.335,-0.31331 -17.3722,11.62406 -19.2845,13.51191 -0.5799,0.57257 -0.1038,1.81136 1.25,3.2525 3.5295,3.75697 2.8893,5.69879 -1.8789,5.69879 -2.2362,0 -4.8237,0.38775 -5.75,0.86167 -3.0661,1.56857 -6.6797,2.06822 -8.1926,1.13274 z m 51.993,-42.83361 c 0.01,-0.73655 2.0638,-3.33012 4.5675,-5.76347 5.2254,-5.07846 9.4339,-13.3015 9.4158,-18.39733 l -0.013,-3.5 -1.9612,2.5 c -1.0787,1.375 -2.2554,3.4 -2.6148,4.5 -1.0404,3.18404 -6.4838,10.67932 -10.5983,14.59337 -4.1446,3.94259 -5.1523,8.47136 -2.0312,9.12837 1.8687,0.39337 3.2097,-0.87562 3.2347,-3.06094 z m -80.9847,32.36772 c 0,-1.89141 0.783,-3.92713 1.8989,-4.93698 1.8057,-1.63421 1.9773,-1.6064 3.5,0.56752 2.2742,3.24693 1.9885,4.12903 -1.9315,5.96447 l -3.4674,1.62353 0,-3.21854 z m 165.0173,-12.01573 c -1.8732,-1.38203 -4.02,-2.51279 -4.7706,-2.51279 -0.7506,0 -1.0866,-0.45 -0.7467,-1 1.1203,-1.81266 7.3832,-1.11677 9.5625,1.0625 2.053,2.05305 2.1957,4.01811 0.3366,4.63779 -0.5367,0.17891 -2.5085,-0.80546 -4.3818,-2.1875 z m -163.5178,-12.10301 -2.9995,-2.39985 3.75,-0.005 c 3.047,-0.004 3.75,0.35888 3.75,1.93601 0,2.97123 -1.2146,3.09776 -4.5005,0.4688 z m 22.0648,-19.11665 c -0.5427,-1.4252 -0.4278,-1.54006 0.5598,-0.5598 0.6834,0.67834 0.9907,1.48524 0.6828,1.79313 -0.3079,0.30789 -0.8671,-0.24711 -1.2426,-1.23333 z m 91.8333,-33.19991 c -4.4837,-12.76828 -1.2943,-11.26985 -28.1476,-13.22414 -9.4875,-0.69047 -17.25,-1.60692 -17.25,-2.03656 0,-1.19198 5.2834,-3.6641 10.1479,-4.7482 2.3937,-0.53346 13.1271,-1.89017 23.8521,-3.01492 10.725,-1.12474 21.1279,-2.27128 23.1176,-2.54785 3.5992,-0.50028 3.6321,-0.47092 6.4457,5.7378 1.7593,3.88237 2.9821,8.52464 3.2357,12.2847 l 0.4078,6.04405 -5.8534,3.61781 c -3.2194,1.9898 -6.9443,4.78247 -8.2777,6.20595 -1.3334,1.42347 -2.7447,2.58813 -3.1362,2.58813 -0.3915,0 -2.4354,-4.90804 -4.5419,-10.90677 z m -99.3976,-48.09322 c 0,-1.92166 1.9556,-2.71105 3.3247,-1.34201 0.757,0.75703 -1.1358,3.34201 -2.4471,3.34201 -0.4827,0 -0.8776,-0.9 -0.8776,-2 z m -7.4872,-3.97933 c -0.3329,-0.53864 -0.1345,-1.85905 0.441,-2.93426 1.5641,-2.92272 1.2627,-6.78937 -0.5847,-7.49827 -0.9725,-0.3732 -2.964,0.39098 -4.9333,1.89301 -6.2416,4.76075 -8.9757,3.24213 -8.968,-4.98115 0,-3.3 -0.374,-6.7875 -0.838,-7.75 -0.6887,-1.42839 -0.3778,-1.75 1.6918,-1.75 4.709,0 7.4863,-5.25472 4.213,-7.9713 -0.9556,-0.7931 -2.869,-0.97905 -5.5,-0.53454 -5.024,0.84879 -5.3008,-0.63335 -0.9793,-5.24416 3.5807,-3.8204 3.8842,-3.87206 7.2399,-1.2324 3.0685,2.41368 4.2048,1.32799 4.2048,-4.0176 0,-3.44873 0.056,-3.49507 3.8253,-3.1632 2.5884,0.22789 4.4395,-0.21897 5.7245,-1.38189 1.6252,-1.47073 2.3309,-1.53988 4.8914,-0.47926 3.8222,1.58321 4.5382,3.94131 2.6029,8.57307 -3.2163,7.69776 -1.1248,16.45128 3.9308,16.45128 4.113,0 5.5509,-1.11702 8.206,-6.37479 3.2424,-6.4208 7.0627,-12.01164 13.4625,-19.70176 l 5.0011,-6.00947 2.0003,2.54301 c 3.7483,4.7651 10.7265,2.86399 13.6069,-3.70699 0.663,-1.5125 1.7625,-2.75 2.4434,-2.75 1.1922,0 9.8327,2.98135 10.7551,3.71098 0.2477,0.19588 -4.7024,5.56687 -11,11.93555 l -11.4502,11.57942 5,-0.59879 c 3.1458,-0.37674 5.8978,-0.1405 7.421,0.63702 3.4919,1.78242 3.7986,3.73582 0.5867,3.73582 -1.6531,0 -3.4816,0.99462 -4.8334,2.6291 -6.4943,7.8526 -7.0282,8.09101 -12.9937,5.80184 -1.289,-0.49466 -1.3554,0.0125 -0.4621,3.53164 1.1173,4.40194 0.6094,5.92645 -1.4443,4.33516 -3.1618,-2.44985 -4.6427,-2.18581 -6.6298,1.1821 -1.2605,2.13639 -3.8427,4.25519 -7.0654,5.79755 l -5.079,2.4307 0,-2.27226 c 0,-4.19098 -1.055,-5.43583 -4.607,-5.43583 l -3.393,0 0,5 c 0,2.75 -0.2665,5 -0.5923,5 -0.3257,0 -1.7364,-0.9 -3.1348,-2 -1.3985,-1.1 -3.3212,-2 -4.2729,-2 -0.9517,0 -2.8744,0.9 -4.2729,2 -2.8901,2.27338 -3.3685,2.38924 -4.2143,1.02067 z M 98.905857,441.86281 c 0,-1.02464 4.233003,-3.8067 5.792103,-3.8067 0.8249,0 1.2231,0.87207 1.0275,2.25 -0.2566,1.80625 -0.9606,2.25 -3.5696,2.25 -1.7875,0 -3.250003,-0.31198 -3.250003,-0.6933 z m 99.258903,-16.17742 c -2.8826,-1.2208 -6.8281,-3.75783 -8.7677,-5.63784 l -3.5267,-3.4182 9.2677,-9.31194 c 8.4174,-8.45752 9.0606,-9.3664 7.0096,-9.90539 l -2.2581,-0.59344 2.0081,-3.24927 c 1.1045,-1.7871 2.0082,-4.86248 2.0082,-6.83418 0,-3.76673 1.7637,-8.67902 3.1161,-8.67902 0.4373,0 2.4529,1.125 4.479,2.5 4.1641,2.82582 8.8007,3.19712 13.8063,1.10563 4.3462,-1.81593 6.5986,-5.15062 6.5986,-9.76912 0,-4.67938 1.3138,-5.52142 4.5918,-2.94293 4.123,3.24314 12.4082,0.61761 12.4082,-3.93208 0,-1.41673 1.1622,-1.80252 6.4434,-2.1388 5.9861,-0.38117 10.5566,-2.48576 10.5566,-4.86107 0,-1.30448 -3.8009,-1.76072 -4.9651,-0.59597 -0.6392,0.63957 -4.7825,1.19468 -9.4991,1.27268 -4.601,0.0761 -8.8538,0.44016 -9.4506,0.80902 -1.8309,1.13151 -1.2122,2.48265 1.4417,3.14873 2.0159,0.50596 2.2944,0.91424 1.3775,2.01905 -1.4888,1.79389 -4.0246,1.76119 -6.4633,-0.0834 -2.6685,-2.01838 -7.4386,-1.90336 -9.0491,0.2182 -0.7306,0.9625 -1.3427,3.43751 -1.3602,5.50001 -0.035,4.15782 -2.7931,7.75 -5.95,7.75 -1.055,0 -2.5474,0.24145 -3.3165,0.53657 -0.769,0.29511 -3.1495,-0.85516 -5.29,-2.55616 -6.5494,-5.20484 -11.8733,-2.32373 -13.4348,7.27049 -1.1174,6.86573 -2.5492,9.75394 -4.8257,9.73432 -0.9431,-0.008 -4.5602,-0.68559 -8.038,-1.50546 -5.6189,-1.32465 -6.5625,-1.323 -8.4725,0.0148 -1.1821,0.828 -1.5992,1.50546 -0.9268,1.50546 1.8198,0 1.478,3.46292 -0.5945,6.02234 -1.547,1.91047 -2.1414,2.0703 -4,1.0756 -1.2007,-0.64259 -2.183,-1.79717 -2.183,-2.56576 0,-0.76858 -0.9,-1.68307 -2,-2.0322 -2.5999,-0.82518 -2.568,-3.83765 0.1148,-10.84837 1.8055,-4.71807 2.6831,-5.75371 6,-7.08089 2.7182,-1.08762 3.8852,-2.16126 3.8852,-3.57446 0,-1.77536 -0.4557,-1.94705 -3.7636,-1.4181 -2.9911,0.4783 -4.1363,0.18992 -5.5797,-1.40499 -1.498,-1.65529 -1.6101,-2.39175 -0.64,-4.20437 0.71,-1.32662 0.9248,-3.87337 0.542,-6.42588 -0.4901,-3.2686 -0.2214,-4.73793 1.1841,-6.47361 l 1.8181,-2.24529 4.588,4.58798 c 3.8877,3.88771 5.1804,4.5853 8.4695,4.57046 3.2797,-0.0148 4.657,-0.77142 8.8816,-4.87906 2.75,-2.67385 5.5646,-5.57418 6.2546,-6.44517 3.3726,-4.25725 16.1672,-4.56895 26.7454,-0.65158 18.2915,6.77381 31.3169,6.70506 44.9458,-0.23722 3.7095,-1.8895 3.8328,-2.09257 2.0589,-3.38969 -2.5394,-1.85687 -5.7288,-1.73827 -14.0248,0.52154 -10.4928,2.85823 -14.8453,3.34667 -19.2508,2.16038 -5.3684,-1.44556 -6.1032,-2.63581 -5.486,-8.88636 0.5008,-5.07262 0.6427,-5.29531 2.9976,-4.70427 1.7336,0.43511 2.8787,0.0841 3.8338,-1.17532 1.2849,-1.69425 1.3637,-1.67486 1.3937,0.34297 0.025,1.65483 0.8468,2.2916 3.634,2.81448 4.1676,0.78186 4.8103,0.42173 3.9702,-2.22494 -0.693,-2.18343 -16.8389,-7.59751 -27.7556,-9.30708 -3.4742,-0.54407 -7.4418,-1.81487 -8.8168,-2.82401 -2.3144,-1.69854 -2.5033,-2.45719 -2.5445,-10.21598 -0.024,-4.60965 -0.392,-9.39263 -0.8167,-10.62886 -1.234,-3.59243 -5.1531,-3.90718 -11.2735,-0.90541 -2.9509,1.44725 -5.3653,2.24694 -5.3653,1.77708 0,-3.38207 10.6389,-11.60913 17.799,-13.76402 3.9953,-1.2024 4.8355,-1.17428 6.9845,0.23381 2.6433,1.73194 2.6212,1.07789 0.6274,18.58385 -0.5847,5.13416 -0.4139,5.91025 1.7837,8.10789 1.673,1.67295 4.9037,2.97554 10.3678,4.18011 4.3657,0.96242 10.231,2.82636 13.0341,4.14211 5.9419,2.78907 8.234,2.99756 9.0678,0.8248 1.147,-2.98918 -1.7757,-6.09669 -8.5759,-9.11817 -6.4622,-2.87128 -6.7938,-3.19061 -8.0789,-7.78045 -1.5208,-5.43182 -0.7425,-7.6242 3.0941,-8.71568 1.318,-0.37497 7.3464,-2.25342 13.3964,-4.17434 20.5529,-6.52571 20.5394,-6.52912 29.382,7.40227 5.9051,9.30341 6.5791,10.01147 9.0195,9.47548 1.4999,-0.32945 3.4126,-0.0125 4.4348,0.73498 1.6789,1.22767 1.5255,1.65563 -2.3277,6.49514 l -4.1251,5.18088 2.6638,0.66857 c 1.6763,0.42073 3.9599,0.0505 6.1602,-0.99877 l 3.4964,-1.66733 -0.7427,6.28244 c -1.4213,12.023 -0.6797,15.64058 4.3022,20.98451 2.3096,2.4775 2.4124,2.95931 1.2369,5.79716 -1.3858,3.34573 -5.4841,6.00077 -9.2626,6.00077 -3.3467,0 -6.9635,5.29439 -7.5113,10.99542 -0.3994,4.15644 -0.1195,4.95764 2.7255,7.8026 l 3.1705,3.17052 -2.4335,2.43347 c -2.4111,2.4111 -8.2268,4.58167 -12.3046,4.59242 -1.9327,0.005 -2.0507,0.36129 -1.3639,4.1172 0.4135,2.26139 2.5825,6.76451 4.82,10.00693 l 4.0681,5.89532 -2.5722,1.68537 c -4.0515,2.65462 -11.1513,2.18527 -16.7721,-1.10876 -2.6223,-1.53678 -5.5853,-3.61159 -6.5844,-4.6107 -1.6651,-1.66507 -2.4697,-1.71613 -9.6482,-0.61224 -7.4285,1.14233 -7.9568,1.39671 -10.2649,4.94275 l -2.4333,3.73844 -1.9191,-3.03102 c -2.3389,-3.69405 -5.4549,-4.59576 -11.0049,-3.18465 -2.3152,0.58864 -6.4594,1.357 -9.2094,1.70746 -5.826,0.74247 -8.4887,2.72965 -8.5282,6.36447 -0.037,3.39238 -4.2284,11.54579 -6.0506,11.76947 -0.7816,0.0959 -3.7797,-0.82439 -6.6623,-2.04518 z m 83.7811,-97.6809 c 3.8974,-3.5405 5.0269,-6.15245 3.3903,-7.83966 -0.4121,-0.42491 -9.4658,6.66972 -10.665,8.35736 -0.4041,0.56865 -0.7416,1.59641 -0.75,2.28391 -0.03,2.46194 3.6418,1.17996 8.0247,-2.80161 z m -18.04,-3.31776 c 0,-0.75316 -1.8715,-3.7199 -4.1589,-6.59276 -4.5057,-5.65894 -4.2225,-6.99167 1.4922,-7.02256 3.6555,-0.0198 3.0491,-2.39313 -0.7251,-2.83797 -3.1706,-0.37371 -7.6082,2.17813 -7.6082,4.37513 0,0.8285 1.8,3.78354 4,6.56675 2.2,2.7832 4,5.46997 4,5.97058 0,0.50061 0.675,0.9102 1.5,0.9102 0.825,0 1.5,-0.61622 1.5,-1.36937 z m 6.836,-19.99533 c -0.9152,-0.67653 -1.8152,-2.55873 -2,-4.18268 -0.4738,-4.16327 -3.7326,-4.43631 -6.6035,-0.55326 l -2.2041,2.98124 5.2358,2.42619 c 3.2936,1.52621 5.6067,2.0798 6.2358,1.49238 0.6561,-0.61271 0.4278,-1.35678 -0.664,-2.16387 z m -168.336,110.36471 c -0.3399,-0.55 -0.1415,-1 0.441,-1 0.5824,0 1.059,0.45 1.059,1 0,0.55 -0.1984,1 -0.441,1 -0.2425,0 -0.7191,-0.45 -1.059,-1 z m 22.2292,-10.60417 c -0.4011,-0.40104 -0.7155,-1.66666 -0.6988,-2.8125 0.028,-1.92359 0.1102,-1.94626 1.0708,-0.29565 1.1186,1.92211 0.8325,4.31265 -0.372,3.10815 z m 35.8131,-23.78163 c -2.1656,-10.70516 -3.0467,-13.20096 -5.3213,-15.07342 -5.8855,-4.84479 -7.221,-6.55598 -7.221,-9.25254 0,-2.70928 -0.1504,-2.7907 -4.5136,-2.44368 -2.4825,0.19744 -5.2789,0.0653 -6.2144,-0.29369 -1.473,-0.56525 -1.3852,-0.81325 0.6556,-1.85177 1.296,-0.65951 2.9948,-2.17005 3.7751,-3.35675 1.3127,-1.99663 1.1911,-2.29201 -1.6299,-3.95843 -1.6767,-0.99043 -3.9395,-3.69636 -5.0285,-6.01317 -1.0891,-2.31681 -2.9433,-4.88706 -4.1206,-5.71165 -3.0472,-2.13433 -1.5323,-3.65911 3.6353,-3.65911 3.7264,0 4.441,-0.31172 4.441,-1.93732 0,-1.60318 -0.6908,-1.92779 -4.0054,-1.88204 -6.4585,0.0891 -8.8865,-3.15853 -4.9946,-6.68064 2.4294,-2.19856 2.51,-3.79196 0.3581,-7.07615 -1.3118,-2.00209 -1.4166,-3.00006 -0.5214,-4.96481 1.3139,-2.88375 2.2037,-3.00663 6.3279,-0.87394 4.3407,2.24467 5.6044,0.48222 2.3917,-3.33579 -2.8792,-3.42171 -3.2715,-7.71875 -0.9814,-10.74931 1.2771,-1.68993 2.4402,-1.94667 7.5025,-1.65601 3.7187,0.21351 6.5471,-0.11742 7.4569,-0.87245 1.9424,-1.61205 4.4657,0.38168 4.4657,3.52846 0,2.59725 2.3973,4.99052 4.0042,3.99742 0.6921,-0.42775 0.8502,-2.28538 0.432,-5.07456 -0.5467,-3.64514 -0.3601,-4.51485 1.0879,-5.07048 0.9613,-0.36887 2.4741,-0.13617 3.3618,0.51712 0.8878,0.65328 2.8642,1.9624 4.392,2.90915 3.4331,2.12727 4.4189,5.51003 2.4709,8.47864 -1.4427,2.19859 -1.3907,2.24271 2.6398,2.24271 l 4.1114,0 0,4.59213 c 0,2.61001 0.6474,5.37404 1.4999,6.40363 1.7218,2.0794 1.4806,4.84123 -0.7154,8.19283 -2.0687,3.15714 -5.2491,3.77085 -9.7646,1.88417 -4.8317,-2.01881 -10.9304,-2.01944 -12.9485,-10e-4 -0.8643,0.86428 -1.5714,1.90328 -1.5714,2.30887 0,2.07478 3.0515,4.04341 7.783,5.0211 10.0097,2.06833 17.2046,6.8697 24.6364,16.44039 l 4.4757,5.7637 -2.1279,2.44725 c -1.4366,1.65227 -3.1774,2.44726 -5.3586,2.44726 -3.2169,0 -5.4757,-1.89352 -9.4527,-7.92406 -2.048,-3.10552 -4.7144,-2.21634 -8.5183,2.84065 -1.6133,2.14472 -3.1592,3.5817 -3.4354,3.19327 -0.2762,-0.38842 -1.9153,-1.69247 -3.6423,-2.89789 -1.7271,-1.20542 -5.3271,-5.55768 -8,-9.6717 -2.673,-4.11403 -5.3743,-7.49359 -6.0029,-7.51016 -5.1569,-0.13586 1.8005,11.72234 12.9851,22.1317 5.7754,5.37513 6.9165,6.91062 5.9079,7.95 -1.9669,2.02701 -1.5365,7.90513 0.7223,9.86417 1.7158,1.48808 1.8213,2.11067 0.8111,4.78682 -1.4571,3.86046 -5.5869,5.08554 -6.2411,1.85141 z m 177.6577,-44.81421 c -2.0144,-2.01443 -1.3679,-3.6138 2.5321,-6.26395 7.0334,-4.77929 10.0707,-1.74792 4.3667,4.3582 -3.0979,3.31629 -4.9709,3.83369 -6.8988,1.90575 z m -214.5861,-21.20113 c -2.3242,-4.89807 -2.0214,-5.73843 1.3704,-3.80236 3.5233,2.01113 4.4836,3.93476 2.9105,5.83024 -1.7205,2.07306 -2.513,1.69765 -4.2809,-2.02788 z m 58.9898,-6.18911 c -0.7651,-1.99387 0.066,-3.40976 2.0008,-3.40976 0.8175,0 2.591,-1.10454 3.941,-2.45454 l 2.4545,-2.45455 0,2.5 c 0,2.71187 -4.0242,7.40909 -6.3476,7.40909 -0.7911,0 -1.713,-0.71561 -2.0487,-1.59024 z m -12.6037,-21.90976 c -0.8512,-1.02565 -0.9264,-1.89529 -0.2379,-2.75 0.5538,-0.6875 1.3328,-2.77241 1.7311,-4.63314 0.9866,-4.60912 2.4712,-2.14625 2.4915,4.13314 0.016,5.00025 -1.5035,6.23967 -3.9847,3.25 z m -28.0062,-0.75 c 0,-0.6875 -0.6811,-2.54431 -1.5062,-4.12624 l -1.5,-2.87624 3.2562,0.62811 c 2.8864,0.55678 7.7379,4.85942 7.7512,6.87437 0,0.4125 -1.795,0.75 -3.995,0.75 -2.53,0 -4.0023,-0.45936 -4.0062,-1.25 z"
       id="path6210-1-7"
       inkscape:connector-curvature="0" />
  </g>
</svg>
