<?xml version="1.0" encoding="UTF-8" standalone="no"?>
<!-- Created with Inkscape (http://www.inkscape.org/) -->

<svg
   xmlns:dc="http://purl.org/dc/elements/1.1/"
   xmlns:cc="http://creativecommons.org/ns#"
   xmlns:rdf="http://www.w3.org/1999/02/22-rdf-syntax-ns#"
   xmlns:svg="http://www.w3.org/2000/svg"
   xmlns="http://www.w3.org/2000/svg"
   xmlns:xlink="http://www.w3.org/1999/xlink"
   xmlns:sodipodi="http://sodipodi.sourceforge.net/DTD/sodipodi-0.dtd"
   xmlns:inkscape="http://www.inkscape.org/namespaces/inkscape"
   width="820"
   height="550"
   id="svg7569"
   version="1.1"
   inkscape:version="0.48.4 r9939"
   sodipodi:docname="Pittem vlag.svg">
  <defs
     id="defs7571">
    <linearGradient
       inkscape:collect="always"
       xlink:href="#linearGradient7200-3-0"
       id="linearGradient7206-8-9"
       x1="-43.721809"
       y1="-446.621"
       x2="69.283447"
       y2="-446.621"
       gradientUnits="userSpaceOnUse"
       gradientTransform="matrix(-0.47169612,0.37813548,0.38871113,0.45886269,560.77873,798.31629)" />
    <linearGradient
       inkscape:collect="always"
       id="linearGradient7200-3-0">
      <stop
         style="stop-color:#ffffff;stop-opacity:1;"
         offset="0"
         id="stop7202-4-7" />
      <stop
         style="stop-color:#ffffff;stop-opacity:0;"
         offset="1"
         id="stop7204-8-8" />
    </linearGradient>
    <linearGradient
       gradientTransform="matrix(0.61122302,0,0,0.59459348,372.02181,860.15943)"
       inkscape:collect="always"
       xlink:href="#linearGradient7140-9-8"
       id="linearGradient7146-4-2"
       x1="-104.31092"
       y1="-634.96521"
       x2="8.8082819"
       y2="-634.96521"
       gradientUnits="userSpaceOnUse" />
    <linearGradient
       inkscape:collect="always"
       id="linearGradient7140-9-8">
      <stop
         style="stop-color:#000000;stop-opacity:1;"
         offset="0"
         id="stop7142-9-2" />
      <stop
         style="stop-color:#000000;stop-opacity:0;"
         offset="1"
         id="stop7144-2-8" />
    </linearGradient>
    <linearGradient
       inkscape:collect="always"
       xlink:href="#linearGradient7200-3"
       id="linearGradient7206-8"
       x1="-43.721809"
       y1="-446.621"
       x2="69.283447"
       y2="-446.621"
       gradientUnits="userSpaceOnUse"
       gradientTransform="matrix(-0.47169612,0.37813548,0.38871113,0.45886269,761.49302,528.67349)" />
    <linearGradient
       inkscape:collect="always"
       id="linearGradient7200-3">
      <stop
         style="stop-color:#ffffff;stop-opacity:1;"
         offset="0"
         id="stop7202-4" />
      <stop
         style="stop-color:#ffffff;stop-opacity:0;"
         offset="1"
         id="stop7204-8" />
    </linearGradient>
    <linearGradient
       gradientTransform="matrix(0.61122302,0,0,0.59459348,572.7361,590.51659)"
       inkscape:collect="always"
       xlink:href="#linearGradient7140-9"
       id="linearGradient7146-4"
       x1="-104.31092"
       y1="-634.96521"
       x2="8.8082819"
       y2="-634.96521"
       gradientUnits="userSpaceOnUse" />
    <linearGradient
       inkscape:collect="always"
       id="linearGradient7140-9">
      <stop
         style="stop-color:#000000;stop-opacity:1;"
         offset="0"
         id="stop7142-9" />
      <stop
         style="stop-color:#000000;stop-opacity:0;"
         offset="1"
         id="stop7144-2" />
    </linearGradient>
  </defs>
  <sodipodi:namedview
     id="base"
     pagecolor="#ffffff"
     bordercolor="#666666"
     borderopacity="1.0"
     inkscape:pageopacity="0.0"
     inkscape:pageshadow="2"
     inkscape:zoom="0.175"
     inkscape:cx="-582.29253"
     inkscape:cy="408.74686"
     inkscape:document-units="px"
     inkscape:current-layer="layer1"
     showgrid="false"
     fit-margin-top="0"
     fit-margin-left="0"
     fit-margin-right="0"
     fit-margin-bottom="0"
     inkscape:window-width="1600"
     inkscape:window-height="837"
     inkscape:window-x="-8"
     inkscape:window-y="-8"
     inkscape:window-maximized="1" />
  <metadata
     id="metadata7574">
    <rdf:RDF>
      <cc:Work
         rdf:about="">
        <dc:format>image/svg+xml</dc:format>
        <dc:type
           rdf:resource="http://purl.org/dc/dcmitype/StillImage" />
        <dc:title></dc:title>
      </cc:Work>
    </rdf:RDF>
  </metadata>
  <g
     inkscape:label="Laag 1"
     inkscape:groupmode="layer"
     id="layer1"
     transform="translate(175.71428,-137.36218)">
    <rect
       style="fill:#aa0000;fill-opacity:1;stroke:none"
       id="rect7291"
       width="412.85715"
       height="550"
       x="-175.71428"
       y="137.36218" />
    <rect
       style="opacity:1;fill:#e6e6e6;fill-opacity:1;stroke:none"
       id="rect7293"
       width="407.14285"
       height="550"
       x="237.14287"
       y="137.36218" />
    <path
       style="fill:#aa0000;stroke:none"
       d="m 485.56394,199.41939 c 1.89505,5.5533 2.49737,11.3001 0.61743,17.4183 -30.69257,22.2377 -29.86508,55.4887 -22.84486,81.0851 -4.25014,1.4269 -8.7514,3.4645 -13.58342,6.3066 5.55686,-0.7925 11.11372,0.7353 16.67058,3.9041 12.308,25.4021 34.22576,44.3571 70.38684,53.7564 2.9309,0.8145 6.85386,7.5947 7.40914,15.316 3.40171,-4.1197 4.74491,-9.8415 5.24814,-16.2169 20.10861,-3.2813 57.04764,-8.2804 67.91713,-54.9577 4.32549,-1.7209 8.4529,-3.7789 13.89215,-3.6038 -0.48909,-4.1342 -3.76473,-7.1842 -7.10043,-10.2107 8.10223,-29.5783 4.36894,-56.6732 -29.32785,-77.4813 2.71627,-4.8273 3.58516,-10.9126 3.39586,-17.7186 -2.93468,3.8529 -6.82014,7.1509 -12.65729,9.3098 -28.29881,-13.6851 -56.59761,-17.6335 -84.89642,0.6006 -3.84159,-3.0737 -8.77753,-5.627 -15.127,-7.5079 z"
       id="path6608-5"
       inkscape:connector-curvature="0"
       sodipodi:nodetypes="cccccccccccccccc" />
    <path
       style="fill:#ffffff;fill-opacity:0.15094341;stroke:none"
       d="m 536.49932,248.31449 c -17.89975,7.081 -35.9605,12.9875 -55.01007,11.6795 12.69643,5.5407 25.81212,10.3337 35.14533,21.8725 -25.30704,7.4601 -58.50332,12.4407 -47.80638,31.2162 -4.68592,-14.6711 20.79536,-18.7775 44.31367,-23.5714 1.58728,12.9562 -1.00728,24.4172 -8.73175,33.9769 7.74606,-2.12 13.9792,-8.9495 15.93545,-29.0927 3.25654,5.8809 10.53295,10.4584 18.99157,14.6525 2.5023,18.3094 -5.64562,47.8674 15.28058,46.718 -17.05282,-7.8278 -8.96171,-30.3316 -10.25982,-47.3551 11.66985,1.0193 22.82622,3.1625 29.90627,14.2278 -2.59486,-12.0702 -16.43904,-16.1817 -31.65262,-19.3244 -18.98643,-5.4742 -19.92953,-18.8952 -27.28674,-29.5172 l -12.44275,-10.4055 18.33669,-5.5211 c -6.73507,3.7672 -8.03002,10.1803 -5.45736,18.4749 l 4.80247,7.4323 c -5.99359,-24.2853 4.86301,-29.9931 15.93546,-35.4632 z"
       id="path6610-5"
       inkscape:connector-curvature="0"
       sodipodi:nodetypes="cccccccccccccccccc" />
    <path
       style="fill:#000000;fill-opacity:0.22169812;stroke:none"
       d="m 502.66376,234.72389 c -18.31837,-18.0135 -43.2749,40.0817 -23.79404,57.7604 -29.40572,-2.7234 5.70773,-91.8432 23.79404,-57.7604 z"
       id="path7120-3"
       inkscape:connector-curvature="0"
       sodipodi:nodetypes="ccc" />
    <path
       style="opacity:0.32539685;fill:url(#linearGradient7146-4);fill-opacity:1;stroke:none"
       d="m 572.65839,225.24849 c 13.17065,-21.8604 -50.96378,-30.3454 -63.50242,-7.4786 -4.87347,-28.3413 92.69354,-18.305 63.50242,7.4786 z"
       id="path7120-4-3"
       inkscape:connector-curvature="0"
       sodipodi:nodetypes="ccc" />
    <path
       style="opacity:0.32539685;fill:#ffffff;fill-opacity:0.36792453;stroke:none"
       d="m 599.18021,288.26139 c 25.22999,6.2968 15.95303,-56.017 -10.09746,-61.4455 26.66524,-12.3625 43.61638,81.6438 10.09746,61.4455 z"
       id="path7120-4-0-3"
       inkscape:connector-curvature="0"
       sodipodi:nodetypes="ccc" />
    <path
       style="opacity:0.20238097;fill:url(#linearGradient7206-8);fill-opacity:1;stroke:none"
       d="m 597.24992,301.42999 c 23.89585,10.0833 -22.72543,53.7589 -46.72178,42.5004 13.26288,25.6757 85.93002,-38.4494 46.72178,-42.5004 z"
       id="path7120-4-0-9-7"
       inkscape:connector-curvature="0"
       sodipodi:nodetypes="ccc" />
    <path
       style="fill:#000000;fill-opacity:0.15566035;stroke:none"
       d="m 547.41402,328.37229 c 4.70347,13.7508 12.70693,16.2658 22.04769,14.2277 -12.24368,6.4465 -21.387,5.8053 -22.04769,-14.2277 z"
       id="path7208-4"
       inkscape:connector-curvature="0"
       sodipodi:nodetypes="ccc" />
    <path
       style="fill:#000000;fill-opacity:0.12735847;stroke:none"
       d="m 534.53467,307.56149 c -9.95602,1.7316 -20.10786,6.2253 -31.21603,24.2084 10.40535,-10.4901 20.81069,-18.8122 31.21603,-24.2084 z"
       id="path7210-3"
       inkscape:connector-curvature="0"
       sodipodi:nodetypes="ccc" />
    <path
       style="fill:#000000;fill-opacity:0.16509435;stroke:none"
       d="m 542.82984,219.64659 c 6.79236,30.2674 23.14071,45.9269 54.3552,38.8609 -27.37061,18.3018 -24.04747,40.4741 -20.73793,62.6447 l -8.95005,-25.6949 c -5.89394,6.828 -11.78787,6.7686 -17.68181,8.9188 29.39933,-17.2609 12.95922,-48.0131 -9.82323,-55.6369 19.27391,4.0498 35.86549,10.7684 29.90627,39.9227 3.52665,-10.7992 9.29328,-20.4099 19.20987,-27.8185 -39.26541,6.5596 -43.51518,-16.6859 -46.27832,-41.1968 z"
       id="path7212-8"
       inkscape:connector-curvature="0"
       sodipodi:nodetypes="ccccccccc" />
    <path
       style="fill:#ffffff;fill-opacity:0.04245282;stroke:none"
       d="m 541.73837,218.37249 c -2.54827,14.1258 -7.5087,25.7097 -17.02692,32.4903 11.34025,-5.8309 17.88006,-15.8983 17.02692,-32.4903 z"
       id="path7214-0"
       inkscape:connector-curvature="0"
       sodipodi:nodetypes="ccc" />
    <path
       style="fill:#000000;fill-opacity:0.09433965;stroke:none"
       d="m 487.81978,218.79709 c 13.19942,-3.6752 23.7176,20.4714 35.36361,32.9151 -11.62467,-12.3212 -20.64055,-46.2137 -35.36361,-32.9151 z"
       id="path7216-8"
       inkscape:connector-curvature="0"
       sodipodi:nodetypes="ccc" />
    <path
       style="fill:#ffffff;fill-opacity:0.14150941;stroke:none"
       d="m 567.93365,209.45359 c 4.81466,3.9629 11.18614,7.0778 1.96464,18.6872 4.78168,-8.0957 3.12842,-13.982 -1.96464,-18.6872 z"
       id="path7218-8"
       inkscape:connector-curvature="0"
       sodipodi:nodetypes="ccc" />
    <path
       style="fill:#ffffff;fill-opacity:0.15566035;stroke:none"
       d="m 501.79058,218.16009 c -0.69642,-11.586 11.7231,-15.6405 21.8294,-21.0231 -6.59442,1.5131 -13.6439,3.9115 -22.54646,9.9153 -1.03232,5.5577 -0.57478,8.9415 0.71706,11.1078 z"
       id="path7220-0"
       inkscape:connector-curvature="0"
       sodipodi:nodetypes="cccc" />
    <path
       style="fill:#000000;fill-opacity:0.08490565;stroke:none"
       d="m 574.70076,203.93229 c 26.84096,9.1543 -5.7631,33.3116 -15.71716,46.2934 13.01545,-18.9404 29.85183,-37.2573 15.71716,-46.2934 z"
       id="path7222-6"
       inkscape:connector-curvature="0"
       sodipodi:nodetypes="ccc" />
    <path
       style="fill:#000000;fill-opacity:0.10849053;stroke:none"
       d="m 583.43252,289.51129 c 16.10188,0.9538 36.80916,14.8209 43.87708,-9.5559 l -3.4927,12.9536 c 4.29174,2.0256 6.46257,5.7016 7.85858,9.9806 -5.52272,-1.6382 -9.78791,1.0052 -14.1891,3.1854 -7.53536,27.8804 -20.97457,39.4145 -36.01851,46.5057 29.6314,-28.8912 46.58,-54.3386 1.96465,-63.0694 z"
       id="path7224-8"
       inkscape:connector-curvature="0"
       sodipodi:nodetypes="ccccccc" />
    <path
       style="fill:#000000;fill-opacity:0.22169812;stroke:none"
       d="m 488.35794,302.47119 c -23.81266,10.2677 23.16414,53.5814 47.06771,42.1377 -13.05259,25.7773 -86.2416,-37.7835 -47.06771,-42.1377 z"
       id="path7120-9-1"
       inkscape:connector-curvature="0"
       sodipodi:nodetypes="ccc" />
    <path
       style="fill:#ffffff;fill-opacity:0.15566035;stroke:none"
       d="m 533.61331,329.83019 c 6.08955,13.2261 1.93955,20.3427 -6.35996,24.9833 13.50204,-3.3011 19.79418,-9.7864 6.35996,-24.9833 z"
       id="path7208-6-9"
       inkscape:connector-curvature="0"
       sodipodi:nodetypes="ccc" />
    <path
       style="fill:#ffffff;fill-opacity:0.22641512;stroke:none"
       d="m 463.37085,297.58079 5.56649,1.3803 c -5.67721,-6.7107 -7.75084,-18.0955 -10.04151,-29.1988 0.56815,9.4012 1.87306,18.7 4.47502,27.8185 z"
       id="path7262-8"
       inkscape:connector-curvature="0"
       sodipodi:nodetypes="cccc" />
    <path
       style="fill:#ffffff;fill-opacity:0.10849053;stroke:none"
       d="m 516.08884,354.49189 c 5.58702,2.5244 10.52562,5.1328 20.30133,7.1138 5.73775,3.252 6.37927,10.1395 7.96773,16.3514 2.32556,-11.3291 -2.00762,-16.4122 -7.74943,-20.1738 -11.24759,0.257 -14.21409,-2.0301 -20.51963,-3.2914 z"
       id="path7264-9"
       inkscape:connector-curvature="0"
       sodipodi:nodetypes="ccccc" />
    <path
       style="fill:#000000;fill-opacity:0.11320753;stroke:none"
       d="m 545.76322,358.36119 c 1.32442,6.3817 0.83655,12.7634 -1.54357,19.1451 2.63702,-4.0917 4.80907,-8.9975 5.4025,-16.6676 7.07227,-0.3545 11.78863,-2.1841 17.51953,-3.3785 -8.27261,0.8315 -17.24506,1.987 -21.37846,0.901 z"
       id="path7266-7"
       inkscape:connector-curvature="0"
       sodipodi:nodetypes="ccccc" />
    <path
       style="fill:#000000;fill-opacity:0.12264153;stroke:none"
       d="m 598.05821,196.39379 c -1.05541,10.3876 -5.90102,20.0839 -16.2629,28.774 7.66995,-7.2048 16.01697,-8.8111 25.43125,-1.5926 -3.47368,-2.9023 -6.93803,-5.8044 -12.11532,-8.7066 2.05473,-5.2099 4.0252,-10.4943 2.94697,-18.4748 z"
       id="path7268-2"
       inkscape:connector-curvature="0"
       sodipodi:nodetypes="ccccc" />
    <path
       style="fill:#aa0000;stroke:none"
       d="m 284.84965,469.06219 c 1.89504,5.5533 2.49737,11.3001 0.61743,17.4183 -30.69257,22.2377 -29.86508,55.4887 -22.84486,81.0851 -4.25015,1.4269 -8.7514,3.4645 -13.58342,6.3066 5.55686,-0.7925 11.11372,0.7353 16.67057,3.9041 12.30801,25.4021 34.22577,44.3571 70.38685,53.7564 2.9309,0.8145 6.85385,7.5947 7.40914,15.316 3.4017,-4.1197 4.7449,-9.8415 5.24814,-16.2169 20.10861,-3.2813 57.04764,-8.2804 67.91713,-54.9577 4.32549,-1.7209 8.4529,-3.7789 13.89215,-3.6038 -0.4891,-4.1342 -3.76473,-7.1842 -7.10043,-10.2107 8.10223,-29.5783 4.36893,-56.6732 -29.32786,-77.4813 2.71628,-4.8273 3.58517,-10.9126 3.39586,-17.7186 -2.93467,3.8529 -6.82013,7.1509 -12.65728,9.3098 -28.29881,-13.6851 -56.59762,-17.6335 -84.89642,0.6006 -3.84159,-3.0737 -8.77753,-5.627 -15.127,-7.5079 z"
       id="path6608-5-1"
       inkscape:connector-curvature="0"
       sodipodi:nodetypes="cccccccccccccccc" />
    <path
       style="fill:#ffffff;fill-opacity:0.15094341;stroke:none"
       d="m 335.78503,517.95729 c -17.89976,7.081 -35.9605,12.9875 -55.01007,11.6795 12.69643,5.5407 25.81212,10.3337 35.14532,21.8725 -25.30703,7.4601 -58.50331,12.4407 -47.80637,31.2162 -4.68592,-14.6711 20.79536,-18.7775 44.31367,-23.5714 1.58728,12.9562 -1.00729,24.4172 -8.73176,33.9769 7.74607,-2.12 13.97921,-8.9495 15.93545,-29.0927 3.25655,5.8809 10.53296,10.4584 18.99158,14.6525 2.5023,18.3094 -5.64562,47.8674 15.28057,46.718 -17.05281,-7.8278 -8.9617,-30.3316 -10.25981,-47.3551 11.66984,1.0193 22.82622,3.1625 29.90627,14.2278 -2.59486,-12.0702 -16.43904,-16.1817 -31.65262,-19.3244 -18.98643,-5.4742 -19.92954,-18.8952 -27.28674,-29.5172 l -12.44276,-10.4055 18.33669,-5.5211 c -6.73507,3.7672 -8.03002,10.1803 -5.45735,18.4749 l 4.80247,7.4323 c -5.9936,-24.2853 4.86301,-29.9931 15.93546,-35.4632 z"
       id="path6610-5-5"
       inkscape:connector-curvature="0"
       sodipodi:nodetypes="cccccccccccccccccc" />
    <path
       style="fill:#000000;fill-opacity:0.22169812;stroke:none"
       d="m 301.94947,504.36669 c -18.31838,-18.0135 -43.2749,40.0817 -23.79405,57.7604 -29.40571,-2.7234 5.70774,-91.8432 23.79405,-57.7604 z"
       id="path7120-3-8"
       inkscape:connector-curvature="0"
       sodipodi:nodetypes="ccc" />
    <path
       style="opacity:0.32539685;fill:url(#linearGradient7146-4-2);fill-opacity:1;stroke:none"
       d="m 371.94409,494.89129 c 13.17065,-21.8604 -50.96377,-30.3454 -63.50241,-7.4786 -4.87347,-28.3413 92.69354,-18.305 63.50241,7.4786 z"
       id="path7120-4-3-6"
       inkscape:connector-curvature="0"
       sodipodi:nodetypes="ccc" />
    <path
       style="opacity:0.32539685;fill:#ffffff;fill-opacity:0.36792453;stroke:none"
       d="m 398.46592,557.90419 c 25.22999,6.2968 15.95303,-56.017 -10.09746,-61.4455 26.66524,-12.3625 43.61638,81.6438 10.09746,61.4455 z"
       id="path7120-4-0-3-1"
       inkscape:connector-curvature="0"
       sodipodi:nodetypes="ccc" />
    <path
       style="opacity:0.20238097;fill:url(#linearGradient7206-8-9);fill-opacity:1;stroke:none"
       d="m 396.53563,571.07279 c 23.89584,10.0833 -22.72543,53.7589 -46.72178,42.5004 13.26288,25.6757 85.93002,-38.4494 46.72178,-42.5004 z"
       id="path7120-4-0-9-7-2"
       inkscape:connector-curvature="0"
       sodipodi:nodetypes="ccc" />
    <path
       style="fill:#000000;fill-opacity:0.15566035;stroke:none"
       d="m 346.69973,598.01509 c 4.70347,13.7508 12.70692,16.2658 22.04768,14.2277 -12.24367,6.4465 -21.38699,5.8053 -22.04768,-14.2277 z"
       id="path7208-4-4"
       inkscape:connector-curvature="0"
       sodipodi:nodetypes="ccc" />
    <path
       style="fill:#000000;fill-opacity:0.12735847;stroke:none"
       d="m 333.82038,577.20429 c -9.95603,1.7316 -20.10787,6.2253 -31.21603,24.2084 10.40534,-10.4901 20.81069,-18.8122 31.21603,-24.2084 z"
       id="path7210-3-2"
       inkscape:connector-curvature="0"
       sodipodi:nodetypes="ccc" />
    <path
       style="fill:#000000;fill-opacity:0.16509435;stroke:none"
       d="m 342.11555,489.28939 c 6.79235,30.2674 23.1407,45.9269 54.35519,38.8609 -27.37061,18.3018 -24.04746,40.4741 -20.73792,62.6447 l -8.95005,-25.6949 c -5.89394,6.828 -11.78787,6.7686 -17.68181,8.9188 29.39933,-17.2609 12.95922,-48.0131 -9.82323,-55.6369 19.2739,4.0498 35.86549,10.7684 29.90627,39.9227 3.52665,-10.7992 9.29328,-20.4099 19.20986,-27.8185 -39.2654,6.5596 -43.51518,-16.6859 -46.27831,-41.1968 z"
       id="path7212-8-5"
       inkscape:connector-curvature="0"
       sodipodi:nodetypes="ccccccccc" />
    <path
       style="fill:#ffffff;fill-opacity:0.04245282;stroke:none"
       d="m 341.02408,488.01529 c -2.54828,14.1258 -7.5087,25.7097 -17.02693,32.4903 11.34026,-5.8309 17.88006,-15.8983 17.02693,-32.4903 z"
       id="path7214-0-8"
       inkscape:connector-curvature="0"
       sodipodi:nodetypes="ccc" />
    <path
       style="fill:#000000;fill-opacity:0.09433965;stroke:none"
       d="m 287.10548,488.43989 c 13.19942,-3.6752 23.71761,20.4714 35.36362,32.9151 -11.62467,-12.3212 -20.64055,-46.2137 -35.36362,-32.9151 z"
       id="path7216-8-6"
       inkscape:connector-curvature="0"
       sodipodi:nodetypes="ccc" />
    <path
       style="fill:#ffffff;fill-opacity:0.14150941;stroke:none"
       d="m 367.21936,479.09639 c 4.81466,3.9629 11.18614,7.0778 1.96464,18.6872 4.78168,-8.0957 3.12842,-13.982 -1.96464,-18.6872 z"
       id="path7218-8-2"
       inkscape:connector-curvature="0"
       sodipodi:nodetypes="ccc" />
    <path
       style="fill:#ffffff;fill-opacity:0.15566035;stroke:none"
       d="m 301.07629,487.80289 c -0.69643,-11.586 11.72309,-15.6405 21.8294,-21.0231 -6.59443,1.5131 -13.6439,3.9115 -22.54647,9.9153 -1.03231,5.5577 -0.57477,8.9415 0.71707,11.1078 z"
       id="path7220-0-6"
       inkscape:connector-curvature="0"
       sodipodi:nodetypes="cccc" />
    <path
       style="fill:#000000;fill-opacity:0.08490565;stroke:none"
       d="m 373.98647,473.57509 c 26.84096,9.1543 -5.76311,33.3116 -15.71717,46.2934 13.01546,-18.9404 29.85183,-37.2573 15.71717,-46.2934 z"
       id="path7222-6-5"
       inkscape:connector-curvature="0"
       sodipodi:nodetypes="ccc" />
    <path
       style="fill:#000000;fill-opacity:0.10849053;stroke:none"
       d="m 382.71822,559.15409 c 16.10189,0.9538 36.80917,14.8209 43.87708,-9.5559 l -3.4927,12.9536 c 4.29175,2.0256 6.46257,5.7016 7.85859,9.9806 -5.52273,-1.6382 -9.78791,1.0052 -14.18911,3.1854 -7.53535,27.8804 -20.97456,39.4145 -36.0185,46.5057 29.63139,-28.8912 46.58,-54.3386 1.96464,-63.0694 z"
       id="path7224-8-3"
       inkscape:connector-curvature="0"
       sodipodi:nodetypes="ccccccc" />
    <path
       style="fill:#000000;fill-opacity:0.22169812;stroke:none"
       d="m 287.64365,572.11399 c -23.81266,10.2677 23.16414,53.5814 47.06771,42.1377 -13.05259,25.7773 -86.2416,-37.7835 -47.06771,-42.1377 z"
       id="path7120-9-1-9"
       inkscape:connector-curvature="0"
       sodipodi:nodetypes="ccc" />
    <path
       style="fill:#ffffff;fill-opacity:0.15566035;stroke:none"
       d="m 332.89901,599.47299 c 6.08956,13.2261 1.93956,20.3427 -6.35996,24.9833 13.50205,-3.3011 19.79419,-9.7864 6.35996,-24.9833 z"
       id="path7208-6-9-2"
       inkscape:connector-curvature="0"
       sodipodi:nodetypes="ccc" />
    <path
       style="fill:#ffffff;fill-opacity:0.22641512;stroke:none"
       d="m 262.65656,567.22359 5.56649,1.3803 c -5.67721,-6.7107 -7.75085,-18.0955 -10.04151,-29.1988 0.56815,9.4012 1.87306,18.7 4.47502,27.8185 z"
       id="path7262-8-4"
       inkscape:connector-curvature="0"
       sodipodi:nodetypes="cccc" />
    <path
       style="fill:#ffffff;fill-opacity:0.10849053;stroke:none"
       d="m 315.37455,624.13469 c 5.58702,2.5244 10.52562,5.1328 20.30133,7.1138 5.73775,3.252 6.37927,10.1395 7.96773,16.3514 2.32556,-11.3291 -2.00762,-16.4122 -7.74943,-20.1738 -11.24759,0.257 -14.21409,-2.0301 -20.51963,-3.2914 z"
       id="path7264-9-6"
       inkscape:connector-curvature="0"
       sodipodi:nodetypes="ccccc" />
    <path
       style="fill:#000000;fill-opacity:0.11320753;stroke:none"
       d="m 345.04893,628.00399 c 1.32441,6.3817 0.83654,12.7634 -1.54357,19.1451 2.63701,-4.0917 4.80907,-8.9975 5.40249,-16.6676 7.07228,-0.3545 11.78864,-2.1841 17.51954,-3.3785 -8.27262,0.8315 -17.24506,1.987 -21.37846,0.901 z"
       id="path7266-7-1"
       inkscape:connector-curvature="0"
       sodipodi:nodetypes="ccccc" />
    <path
       style="fill:#000000;fill-opacity:0.12264153;stroke:none"
       d="m 397.34392,466.03659 c -1.05542,10.3876 -5.90102,20.0839 -16.2629,28.774 7.66994,-7.2048 16.01697,-8.8111 25.43124,-1.5926 -3.47368,-2.9023 -6.93803,-5.8044 -12.11531,-8.7066 2.05473,-5.2099 4.0252,-10.4943 2.94697,-18.4748 z"
       id="path7268-2-8"
       inkscape:connector-curvature="0"
       sodipodi:nodetypes="ccccc" />
  </g>
</svg>
