<?xml version="1.0" encoding="UTF-8" standalone="no"?>
<!-- Created with Inkscape (http://www.inkscape.org/) -->

<svg
   xmlns:dc="http://purl.org/dc/elements/1.1/"
   xmlns:cc="http://creativecommons.org/ns#"
   xmlns:rdf="http://www.w3.org/1999/02/22-rdf-syntax-ns#"
   xmlns:svg="http://www.w3.org/2000/svg"
   xmlns="http://www.w3.org/2000/svg"
   xmlns:sodipodi="http://sodipodi.sourceforge.net/DTD/sodipodi-0.dtd"
   xmlns:inkscape="http://www.inkscape.org/namespaces/inkscape"
   width="899.03577"
   height="601.04077"
   id="svg3971"
   version="1.1"
   inkscape:version="0.48.4 r9939"
   sodipodi:docname="Nieuw document 7">
  <defs
     id="defs3973" />
  <sodipodi:namedview
     id="base"
     pagecolor="#ffffff"
     bordercolor="#666666"
     borderopacity="1.0"
     inkscape:pageopacity="0.0"
     inkscape:pageshadow="2"
     inkscape:zoom="0.35"
     inkscape:cx="570.23218"
     inkscape:cy="351.94896"
     inkscape:document-units="px"
     inkscape:current-layer="layer1"
     showgrid="false"
     fit-margin-top="0"
     fit-margin-left="0"
     fit-margin-right="0"
     fit-margin-bottom="0"
     inkscape:window-width="1600"
     inkscape:window-height="837"
     inkscape:window-x="-8"
     inkscape:window-y="-8"
     inkscape:window-maximized="1" />
  <metadata
     id="metadata3976">
    <rdf:RDF>
      <cc:Work
         rdf:about="">
        <dc:format>image/svg+xml</dc:format>
        <dc:type
           rdf:resource="http://purl.org/dc/dcmitype/StillImage" />
        <dc:title></dc:title>
      </cc:Work>
    </rdf:RDF>
  </metadata>
  <g
     inkscape:label="Laag 1"
     inkscape:groupmode="layer"
     id="layer1"
     transform="translate(195.23218,-283.27036)">
    <rect
       style="fill:#da0e19;fill-opacity:1;fill-rule:evenodd;stroke:none"
       id="rect3004"
       width="899.03577"
       height="601.04077"
       x="-195.23218"
       y="283.27036" />
    <path
       style="fill:#ffffff;stroke:none"
       d="m -195.23217,788.34665 c 25.6477,-14.33751 43.34765,-36.62276 61.11423,-58.84139 C -99.022055,681.7769 -54.785791,652.53159 4.7780393,647.93544 77.205439,640.065 119.07852,607.19556 147.20955,563.08263 c 34.06535,-51.26411 78.25475,-87.34213 146.47212,-87.3782 64.01674,-0.4696 107.78506,-36.52922 141.83349,-90.51322 30.39036,-52.01447 78.437,-75.33749 139.28571,-77.85714 33.55061,-3.69585 49.6644,-10.92829 66.78572,-24.0637 l 62.21701,0 0,97.27799 c -21.50278,12.54912 -44.38807,25.36448 -85.78844,24.64285 -60.58793,0.41476 -95.44113,31.10567 -123.92857,69.28572 -34.82098,50.32957 -71.16486,92.85695 -171.42858,102.85714 -57.93853,5.81927 -89.47255,37.1047 -107.5,66.78572 -36.43401,61.1387 -88.29353,87.9985 -148.928571,95.35714 -57.0479297,5.62275 -103.23003,32.97716 -138.72807,81.69968 -18.7306,28.16683 -37.155129,52.35486 -54.548239,63.13453 l -68.1853,0 z"
       id="path3774"
       inkscape:connector-curvature="0"
       sodipodi:nodetypes="ccccccccccccccccccc" />
    <path
       sodipodi:type="arc"
       style="fill:#fcdd04;fill-opacity:1;fill-rule:evenodd;stroke:none"
       id="path3776"
       sodipodi:cx="427.5"
       sodipodi:cy="442.89789"
       sodipodi:rx="38.214287"
       sodipodi:ry="36.964287"
       d="m 465.71429,442.89789 c 0,20.41481 -17.10912,36.96428 -38.21429,36.96428 -21.10517,0 -38.21429,-16.54947 -38.21429,-36.96428 0,-20.41481 17.10912,-36.96429 38.21429,-36.96429 21.10517,0 38.21429,16.54948 38.21429,36.96429 z"
       transform="translate(-42.699131,178.90046)" />
    <path
       sodipodi:type="arc"
       style="fill:#fcdd04;fill-opacity:1;fill-rule:evenodd;stroke:none"
       id="path3776-1"
       sodipodi:cx="427.5"
       sodipodi:cy="442.89789"
       sodipodi:rx="38.214287"
       sodipodi:ry="36.964287"
       d="m 465.71429,442.89789 c 0,20.41481 -17.10912,36.96428 -38.21429,36.96428 -21.10517,0 -38.21429,-16.54947 -38.21429,-36.96428 0,-20.41481 17.10912,-36.96429 38.21429,-36.96429 21.10517,0 38.21429,16.54948 38.21429,36.96429 z"
       transform="translate(76.943729,179.79333)" />
    <path
       sodipodi:type="arc"
       style="fill:#fcdd04;fill-opacity:1;fill-rule:evenodd;stroke:none"
       id="path3776-7"
       sodipodi:cx="427.5"
       sodipodi:cy="442.89789"
       sodipodi:rx="38.214287"
       sodipodi:ry="36.964287"
       d="m 465.71429,442.89789 c 0,20.41481 -17.10912,36.96428 -38.21429,36.96428 -21.10517,0 -38.21429,-16.54947 -38.21429,-36.96428 0,-20.41481 17.10912,-36.96429 38.21429,-36.96429 21.10517,0 38.21429,16.54948 38.21429,36.96429 z"
       transform="translate(201.58659,180.15047)" />
    <path
       sodipodi:type="arc"
       style="fill:#fcdd04;fill-opacity:1;fill-rule:evenodd;stroke:none"
       id="path3776-4"
       sodipodi:cx="427.5"
       sodipodi:cy="442.89789"
       sodipodi:rx="38.214287"
       sodipodi:ry="36.964287"
       d="m 465.71429,442.89789 c 0,20.41481 -17.10912,36.96428 -38.21429,36.96428 -21.10517,0 -38.21429,-16.54947 -38.21429,-36.96428 0,-20.41481 17.10912,-36.96429 38.21429,-36.96429 21.10517,0 38.21429,16.54948 38.21429,36.96429 z"
       transform="translate(18.015149,273.36476)" />
    <path
       sodipodi:type="arc"
       style="fill:#fcdd04;fill-opacity:1;fill-rule:evenodd;stroke:none"
       id="path3776-0"
       sodipodi:cx="427.5"
       sodipodi:cy="442.89789"
       sodipodi:rx="38.214287"
       sodipodi:ry="36.964287"
       d="m 465.71429,442.89789 c 0,20.41481 -17.10912,36.96428 -38.21429,36.96428 -21.10517,0 -38.21429,-16.54947 -38.21429,-36.96428 0,-20.41481 17.10912,-36.96429 38.21429,-36.96429 21.10517,0 38.21429,16.54948 38.21429,36.96429 z"
       transform="translate(138.3723,273.00761)" />
    <path
       sodipodi:type="arc"
       style="fill:#fcdd04;fill-opacity:1;fill-rule:evenodd;stroke:none"
       id="path3776-9"
       sodipodi:cx="427.5"
       sodipodi:cy="442.89789"
       sodipodi:rx="38.214287"
       sodipodi:ry="36.964287"
       d="m 465.71429,442.89789 c 0,20.41481 -17.10912,36.96428 -38.21429,36.96428 -21.10517,0 -38.21429,-16.54947 -38.21429,-36.96428 0,-20.41481 17.10912,-36.96429 38.21429,-36.96429 21.10517,0 38.21429,16.54948 38.21429,36.96429 z"
       transform="translate(77.051009,369.69242)" />
    <path
       style="fill:#ffd400;fill-opacity:1"
       d="m -44.358891,597.40564 c -4.31189,-0.9661 -7.31431,-4.0859 -7.9584,-8.2695 -0.16536,-1.0739 -0.25151,-41.62587 -0.20362,-95.83176 l 0.0831,-93.97008 10.48699,-0.0753 10.48695,-0.0753 -0.0819,95.75911 -0.0819,95.75913 -0.76254,1.5052 c -0.96153,1.8981 -3.63073,4.1224 -5.70924,4.7577 -1.94517,0.5945 -4.70552,0.7889 -6.25936,0.4408 z M 160.30551,393.29625 c -25.54713,-12.75843 -58.9659,-21.70475 -96.847061,-25.92629 -20.09385,-2.23929 -34.76662,-3.02521 -61.0698897,-3.27113 l -19.4497103,-0.18183 2.6e-4,1.78515 2.2e-4,1.78514 -3.20155,0 -3.20156,0 0,13.56711 0,13.56712 -19.04612,0 -19.04612,0 -0.0832,-13.49571 -0.0832,-13.49571 -13.68665,-0.0745 -13.68665,-0.0745 0,-15.56339 0,-15.56341 13.76669,0 13.76669,0 0,-2.71342 0,-2.71343 4.48218,0 4.48217,0 0.003,-3.35607 c 0.004,-6.02371 0.86432,-8.57967 3.66043,-10.87902 2.18426,-1.7962 3.98046,-2.41078 7.06238,-2.41638 2.1468,-0.004 2.85732,0.12282 4.39106,0.78318 2.12388,0.9144 4.17681,2.77566 5.16062,4.6788 0.60496,1.17028 0.7037,1.94495 0.7983,6.26249 l 0.1078,4.927 3.9755,0 3.9755,0 0,2.71343 0,2.71342 3.20156,0 3.20155,0 0,1.42811 0,1.42812 4.93626,0 c 10.0396303,0 26.28496,0.86353 37.96459,2.01804 49.40359,4.88345 92.799171,19.72481 129.823081,44.3997 5.44847,3.63119 10.88528,7.54331 10.88528,7.83265 0,0.20705 -1.6504,2.02553 -1.82021,2.00559 -0.0554,-0.007 -2.04566,-0.98314 -4.42282,-2.17031 z"
       id="path3940"
       inkscape:connector-curvature="0" />
  </g>
</svg>
