<?xml version="1.0" encoding="UTF-8" standalone="no"?>
<!-- Created with Inkscape (http://www.inkscape.org/) -->

<svg
   version="1.1"
   id="svg1"
   width="324"
   height="216"
   viewBox="0 0 324 216"
   sodipodi:docname="Flag_of_Jalhay.svg"
   inkscape:version="1.4.2 (f4327f4, 2025-05-13)"
   xmlns:inkscape="http://www.inkscape.org/namespaces/inkscape"
   xmlns:sodipodi="http://sodipodi.sourceforge.net/DTD/sodipodi-0.dtd"
   xmlns="http://www.w3.org/2000/svg"
   xmlns:svg="http://www.w3.org/2000/svg">
  <defs
     id="defs1" />
  <sodipodi:namedview
     id="namedview1"
     pagecolor="#505050"
     bordercolor="#eeeeee"
     borderopacity="1"
     inkscape:showpageshadow="0"
     inkscape:pageopacity="0"
     inkscape:pagecheckerboard="0"
     inkscape:deskcolor="#505050"
     inkscape:zoom="2.32"
     inkscape:cx="153.23276"
     inkscape:cy="109.48276"
     inkscape:window-width="1276"
     inkscape:window-height="1008"
     inkscape:window-x="637"
     inkscape:window-y="0"
     inkscape:window-maximized="0"
     inkscape:current-layer="svg1" />
  <rect
     style="fill:#ffffff;fill-opacity:1;stroke-width:0.500001"
     id="rect3"
     width="324"
     height="216"
     x="0"
     y="0" />
  <rect
     style="fill:#0000ff;fill-opacity:1;stroke-width:0.500001"
     id="rect1"
     width="81"
     height="216"
     x="242.839"
     y="0" />
  <rect
     style="fill:#000000;fill-opacity:1;stroke-width:0.500001"
     id="rect2"
     width="81"
     height="216"
     x="0"
     y="0" />
  <g
     transform="matrix(2.5636384,0,0,2.5242708,-2167.5683,-1946.5157)"
     id="g4582"
     style="stroke-width:0.402442">
    <ellipse
       style="fill:#0000ff;fill-opacity:1;fill-rule:evenodd;stroke:#000003;stroke-width:1.56391;stroke-linecap:butt;stroke-linejoin:miter;stroke-miterlimit:4;stroke-dasharray:none;stroke-opacity:1"
       id="path3169-9"
       transform="matrix(0.16263745,0,0,0.19259938,898.30257,768.96249)"
       cx="-33.314785"
       cy="426.00955"
       rx="17.575518"
       ry="15.214626" />
    <ellipse
       style="fill:#0000ff;fill-opacity:1;fill-rule:evenodd;stroke:#000003;stroke-width:1.56391;stroke-linecap:butt;stroke-linejoin:miter;stroke-miterlimit:4;stroke-dasharray:none;stroke-opacity:1"
       id="path3169-1-4"
       transform="matrix(0.16263745,0,0,0.19259938,929.86334,768.95443)"
       cx="-33.314785"
       cy="426.00955"
       rx="17.575518"
       ry="15.214626" />
    <g
       id="g4555"
       transform="translate(0,2)"
       style="stroke-width:0.402442">
      <path
         inkscape:connector-curvature="0"
         style="fill:#0000ff;fill-opacity:1;fill-rule:evenodd;stroke:#000000;stroke-width:0.282208;stroke-linecap:butt;stroke-linejoin:miter;stroke-miterlimit:4;stroke-dasharray:none;stroke-opacity:1"
         id="path7364-8"
         d="m 909.12963,778.5683 c 0,-2.79241 0,-2.96337 0,-2.96337 l 2.36196,0.74084 -0.0492,-2.3935 -2.26354,0.5129 0.34445,-2.67844 h -1.82067 l 0.19683,2.62145 -2.26355,-0.56988 v 2.56446 l 2.31275,-0.79783 0.0492,2.96337 z" />
      <path
         inkscape:connector-curvature="0"
         style="fill:#0000ff;fill-opacity:1;fill-rule:evenodd;stroke:#000000;stroke-width:0.282208;stroke-linecap:butt;stroke-linejoin:miter;stroke-miterlimit:4;stroke-dasharray:none;stroke-opacity:1"
         id="path7344-2"
         d="m 902.24059,786.94554 c 12.89235,-0.17096 12.89235,-0.17096 12.89235,-0.17096 -0.19135,-3.38787 -1.91868,-6.88665 -5.9049,-8.32025 h -1.23018 c -4.32288,1.80965 -5.32383,5.02994 -5.75727,8.49121 z" />
      <path
         inkscape:connector-curvature="0"
         style="fill:#0000ff;fill-opacity:1;fill-rule:evenodd;stroke:#000000;stroke-width:0.282208;stroke-linecap:butt;stroke-linejoin:miter;stroke-miterlimit:4;stroke-dasharray:none;stroke-opacity:1"
         id="path7362-4"
         d="m 907.23352,784.95096 c 1.67306,-3.02037 1.67306,-3.02037 1.67306,-3.02037 -0.13859,-1.63003 -1.0632,-2.48298 -1.9683,-2.79241 -1.03755,0.3741 -1.47692,1.5795 -1.86988,2.8494 l 2.21433,3.19133 -0.0492,-0.22795 z" />
      <path
         inkscape:connector-curvature="0"
         style="fill:#0000ff;fill-opacity:1;fill-rule:evenodd;stroke:#000000;stroke-width:0.282208;stroke-linecap:butt;stroke-linejoin:miter;stroke-miterlimit:4;stroke-dasharray:none;stroke-opacity:1"
         id="path7360-5"
         d="m 910.35981,784.60903 c 1.67306,-3.02036 1.67306,-3.02036 1.67306,-3.02036 -0.13859,-1.63004 -1.0632,-2.48299 -1.9683,-2.79242 -1.03755,0.3741 -1.47692,1.5795 -1.86988,2.84941 l 2.21433,3.19133 -0.0492,-0.22796 z" />
      <path
         inkscape:connector-curvature="0"
         style="fill:#0000ff;fill-opacity:1;fill-rule:evenodd;stroke:#000000;stroke-width:0.282208;stroke-linecap:butt;stroke-linejoin:miter;stroke-miterlimit:4;stroke-dasharray:none;stroke-opacity:1"
         id="path7356-5"
         d="m 905.19303,786.77457 c 1.67306,-3.02036 1.67306,-3.02036 1.67306,-3.02036 -0.13859,-1.63003 -1.0632,-2.48298 -1.9683,-2.79241 -1.03755,0.3741 -1.47692,1.57949 -1.86988,2.8494 l 2.21433,3.19133 -0.0492,-0.22796 z" />
      <path
         inkscape:connector-curvature="0"
         style="fill:#0000ff;fill-opacity:1;fill-rule:evenodd;stroke:#000000;stroke-width:0.282208;stroke-linecap:butt;stroke-linejoin:miter;stroke-miterlimit:4;stroke-dasharray:none;stroke-opacity:1"
         id="path7354-1"
         d="m 908.78518,786.60361 c 1.67305,-3.02036 1.67305,-3.02036 1.67305,-3.02036 -0.13859,-1.63004 -1.0632,-2.48299 -1.9683,-2.79242 -1.03754,0.3741 -1.47692,1.5795 -1.86988,2.84941 l 2.21433,3.19132 z" />
      <path
         inkscape:connector-curvature="0"
         style="fill:#0000ff;fill-opacity:1;fill-rule:evenodd;stroke:#000000;stroke-width:0.282208;stroke-linecap:butt;stroke-linejoin:miter;stroke-miterlimit:4;stroke-dasharray:none;stroke-opacity:1"
         id="path7358-7"
         d="m 912.42652,786.77457 c 1.67306,-3.02036 1.67306,-3.02036 1.67306,-3.02036 -0.13859,-1.63003 -1.0632,-2.48298 -1.9683,-2.79241 -1.03755,0.3741 -1.47692,1.57949 -1.86988,2.8494 l 2.21433,3.19133 -0.0492,-0.22796 z" />
      <path
         inkscape:connector-curvature="0"
         style="fill:#0000ff;fill-opacity:1;fill-rule:evenodd;stroke:#000000;stroke-width:0.282208;stroke-linecap:butt;stroke-linejoin:miter;stroke-miterlimit:4;stroke-dasharray:none;stroke-opacity:1"
         id="path7352-1"
         d="m 902.2898,786.77458 c 2.90324,0 2.90324,0 2.90324,0 -0.13408,-1.68733 -0.88466,-2.43273 -2.06671,-2.90639 -0.80208,0.66866 -0.94638,1.63423 -0.83653,2.90639 z" />
      <path
         inkscape:connector-curvature="0"
         style="fill:#0000ff;fill-opacity:1;fill-rule:evenodd;stroke:#000000;stroke-width:0.282208;stroke-linecap:butt;stroke-linejoin:miter;stroke-miterlimit:4;stroke-dasharray:none;stroke-opacity:1"
         id="path7350-1"
         d="m 905.34066,786.71759 c 3.24768,0 3.24768,0 3.24768,0 0.11139,-1.74247 -0.52289,-2.86725 -1.57463,-3.13434 -1.57835,0.1392 -1.4558,1.86971 -1.67305,3.13434 z" />
      <path
         inkscape:connector-curvature="0"
         style="fill:#0000ff;fill-opacity:1;fill-rule:evenodd;stroke:#000000;stroke-width:0.282208;stroke-linecap:butt;stroke-linejoin:miter;stroke-miterlimit:4;stroke-dasharray:none;stroke-opacity:1"
         id="path7348-5"
         d="m 912.08208,786.88856 c -3.49373,0 -3.49373,0 -3.49373,0 0.36035,-1.22978 0.0449,-2.74417 1.72226,-3.41929 1.75263,0.46682 1.48375,2.1042 1.77147,3.41929 z" />
      <path
         inkscape:connector-curvature="0"
         style="fill:#0000ff;fill-opacity:1;fill-rule:evenodd;stroke:#000000;stroke-width:0.282208;stroke-linecap:butt;stroke-linejoin:miter;stroke-miterlimit:4;stroke-dasharray:none;stroke-opacity:1"
         id="path7346-2"
         d="m 912.08208,786.83156 c 3.05086,0 3.00165,0 3.00165,0 0.0684,-1.02578 -0.10233,-2.05156 -0.68891,-3.07735 -1.52176,0.23527 -2.2339,1.32293 -2.31274,3.07735 z" />
      <path
         inkscape:connector-curvature="0"
         style="fill:#0000ff;fill-opacity:1;fill-rule:evenodd;stroke:#000000;stroke-width:0.269562;stroke-linecap:butt;stroke-linejoin:miter;stroke-miterlimit:4;stroke-dasharray:none;stroke-opacity:1"
         id="path7344-2-7"
         d="m 902.23005,786.77155 c 12.92377,0.15561 12.92377,0.15561 12.92377,0.15561 -0.19182,3.08355 -1.92336,6.26805 -5.91929,7.57288 h -1.23318 c -4.33341,-1.6471 -5.3368,-4.57813 -5.7713,-7.72849 z" />
      <path
         inkscape:connector-curvature="0"
         style="fill:#0000ff;fill-opacity:1;fill-rule:evenodd;stroke:#000000;stroke-width:0.282208;stroke-linecap:butt;stroke-linejoin:miter;stroke-miterlimit:4;stroke-dasharray:none;stroke-opacity:1"
         id="path7362-4-6"
         d="m 907.1665,787.9877 c 1.67306,3.02037 1.67306,3.02037 1.67306,3.02037 -0.13859,1.63003 -1.0632,2.48298 -1.9683,2.79241 -1.03755,-0.3741 -1.47692,-1.5795 -1.86988,-2.8494 l 2.21433,-3.19133 -0.0492,0.22795 z" />
      <path
         inkscape:connector-curvature="0"
         style="fill:#0000ff;fill-opacity:1;fill-rule:evenodd;stroke:#000000;stroke-width:0.282208;stroke-linecap:butt;stroke-linejoin:miter;stroke-miterlimit:4;stroke-dasharray:none;stroke-opacity:1"
         id="path7360-5-1"
         d="m 910.36498,788.32963 c 1.67306,3.02036 1.67306,3.02036 1.67306,3.02036 -0.13859,1.63004 -1.0632,2.48299 -1.9683,2.79242 -1.03755,-0.3741 -1.47692,-1.5795 -1.86988,-2.84941 l 2.21433,-3.19133 -0.0492,0.22796 z" />
      <path
         inkscape:connector-curvature="0"
         style="fill:#0000ff;fill-opacity:1;fill-rule:evenodd;stroke:#000000;stroke-width:0.282208;stroke-linecap:butt;stroke-linejoin:miter;stroke-miterlimit:4;stroke-dasharray:none;stroke-opacity:1"
         id="path7356-5-8"
         d="m 905.1982,786.16409 c 1.67306,3.02036 1.67306,3.02036 1.67306,3.02036 -0.13859,1.63003 -1.0632,2.48298 -1.9683,2.79241 -1.03755,-0.3741 -1.47692,-1.57949 -1.86988,-2.8494 l 2.21433,-3.19133 -0.0492,0.22796 z" />
      <path
         inkscape:connector-curvature="0"
         style="fill:#0000ff;fill-opacity:1;fill-rule:evenodd;stroke:#000000;stroke-width:0.282208;stroke-linecap:butt;stroke-linejoin:miter;stroke-miterlimit:4;stroke-dasharray:none;stroke-opacity:1"
         id="path7354-1-9"
         d="m 908.79035,786.33505 c 1.67305,3.02036 1.67305,3.02036 1.67305,3.02036 -0.13859,1.63004 -1.0632,2.48299 -1.9683,2.79242 -1.03754,-0.3741 -1.47692,-1.5795 -1.86988,-2.84941 l 2.21433,-3.19132 z" />
      <path
         inkscape:connector-curvature="0"
         style="fill:#0000ff;fill-opacity:1;fill-rule:evenodd;stroke:#000000;stroke-width:0.282208;stroke-linecap:butt;stroke-linejoin:miter;stroke-miterlimit:4;stroke-dasharray:none;stroke-opacity:1"
         id="path7358-7-2"
         d="m 912.43169,786.16409 c 1.67306,3.02036 1.67306,3.02036 1.67306,3.02036 -0.13859,1.63003 -1.0632,2.48298 -1.9683,2.79241 -1.03755,-0.3741 -1.47692,-1.57949 -1.86988,-2.8494 l 2.21433,-3.19133 -0.0492,0.22796 z" />
      <path
         inkscape:connector-curvature="0"
         style="fill:#0000ff;fill-opacity:1;fill-rule:evenodd;stroke:#000000;stroke-width:0.282208;stroke-linecap:butt;stroke-linejoin:miter;stroke-miterlimit:4;stroke-dasharray:none;stroke-opacity:1"
         id="path7352-1-7"
         d="m 902.29497,786.16408 c 2.90324,0 2.90324,0 2.90324,0 -0.13408,1.68733 -0.88466,2.43273 -2.06671,2.90639 -0.80208,-0.66866 -0.94638,-1.63423 -0.83653,-2.90639 z" />
      <path
         inkscape:connector-curvature="0"
         style="fill:#0000ff;fill-opacity:1;fill-rule:evenodd;stroke:#000000;stroke-width:0.282208;stroke-linecap:butt;stroke-linejoin:miter;stroke-miterlimit:4;stroke-dasharray:none;stroke-opacity:1"
         id="path7350-1-9"
         d="m 905.34583,786.22107 c 3.24768,0 3.24768,0 3.24768,0 0.11139,1.74247 -0.52289,2.86725 -1.57463,3.13434 -1.57835,-0.1392 -1.4558,-1.86971 -1.67305,-3.13434 z" />
      <path
         inkscape:connector-curvature="0"
         style="fill:#0000ff;fill-opacity:1;fill-rule:evenodd;stroke:#000000;stroke-width:0.282208;stroke-linecap:butt;stroke-linejoin:miter;stroke-miterlimit:4;stroke-dasharray:none;stroke-opacity:1"
         id="path7348-5-5"
         d="m 912.08725,786.0501 c -3.49373,0 -3.49373,0 -3.49373,0 0.36035,1.22978 0.0449,2.74417 1.72226,3.41929 1.75263,-0.46682 1.48375,-2.1042 1.77147,-3.41929 z" />
      <path
         inkscape:connector-curvature="0"
         style="fill:#0000ff;fill-opacity:1;fill-rule:evenodd;stroke:#000000;stroke-width:0.282208;stroke-linecap:butt;stroke-linejoin:miter;stroke-miterlimit:4;stroke-dasharray:none;stroke-opacity:1"
         id="path7346-2-4"
         d="m 912.08725,786.1071 c 3.05086,0 3.00165,0 3.00165,0 0.0684,1.02578 -0.10233,2.05156 -0.68891,3.07735 -1.52176,-0.23527 -2.2339,-1.32293 -2.31274,-3.07735 z" />
      <path
         sodipodi:nodetypes="cccc"
         inkscape:connector-curvature="0"
         style="fill:#0000ff;fill-opacity:1;fill-rule:evenodd;stroke:none;stroke-width:0.402442"
         id="path7352-1-7-3"
         d="m 902.59278,785.53899 c 2.15729,0 1.47303,-0.57756 1.47303,-0.57756 0.95283,0.25708 1.49005,1.55085 -0.44074,3.12835 -0.596,-0.54533 -1.11392,-1.51328 -1.03229,-2.55079 z" />
      <path
         sodipodi:nodetypes="cccc"
         inkscape:connector-curvature="0"
         style="fill:#0000ff;fill-opacity:1;fill-rule:evenodd;stroke:none;stroke-width:0.402442"
         id="path7352-1-7-3-1"
         d="m 905.935,785.34314 c 2.61836,0.83024 1.47474,-0.54146 1.47474,-0.54146 1.07677,0.25708 1.63368,2.12841 -0.40386,3.48933 -0.67352,-0.54533 -1.48801,-1.26061 -1.07088,-2.94787 z" />
      <path
         sodipodi:nodetypes="cccc"
         inkscape:connector-curvature="0"
         style="fill:#0000ff;fill-opacity:1;fill-rule:evenodd;stroke:none;stroke-width:0.402442"
         id="path7352-1-7-3-1-2"
         d="m 909.22472,785.3612 c 2.61836,0.83024 1.47474,-0.54146 1.47474,-0.54146 1.07677,0.25708 1.63368,2.12841 -0.40386,3.48933 -0.67352,-0.54533 -1.48801,-1.26061 -1.07088,-2.94787 z" />
      <path
         sodipodi:nodetypes="cccc"
         inkscape:connector-curvature="0"
         style="fill:#0000ff;fill-opacity:1;fill-rule:evenodd;stroke:none;stroke-width:0.402442"
         id="path7352-1-7-3-3"
         d="m 914.73531,785.70412 c -1.65193,-0.36097 -1.40084,-0.68585 -1.40084,-0.68585 -0.95283,0.25708 -1.49005,1.58695 0.44074,3.16445 0.596,-0.54533 1.04173,-1.44109 0.9601,-2.4786 z" />
    </g>
    <path
       d="m 903.42414,797.50415 c 7.87319,0.057 10.72722,0 10.72722,0 1.42556,0.0215 1.35201,-2.33355 -0.0492,-2.3935 l -10.82563,0.057 c -1.39498,-0.0166 -1.56164,2.33306 0.14762,2.33651 z"
       id="path7334-1"
       style="fill:#0000ff;fill-opacity:1;fill-rule:evenodd;stroke:#000000;stroke-width:0.282208;stroke-linecap:butt;stroke-linejoin:miter;stroke-miterlimit:4;stroke-dasharray:none;stroke-opacity:1"
       inkscape:connector-curvature="0" />
    <rect
       width="9.6938696"
       height="10.143863"
       x="903.83984"
       y="797.54529"
       id="rect7338-4"
       style="display:inline;overflow:visible;visibility:visible;opacity:0.96;fill:#0000ff;fill-opacity:1;fill-rule:nonzero;stroke:#000000;stroke-width:0.282208;stroke-linecap:round;stroke-linejoin:round;stroke-miterlimit:4;stroke-dasharray:none;stroke-dashoffset:0;stroke-opacity:1;marker:none;enable-background:accumulate" />
    <path
       d="m 903.40023,810.51008 c 7.87319,0.057 10.72722,0 10.72722,0 1.42556,0.0215 1.35202,-2.73246 -0.0492,-2.79241 l -10.72721,0.11398 c -1.39498,-0.0166 -1.66005,2.67499 0.0492,2.67843 z"
       id="path7332-2"
       style="fill:#0000ff;fill-opacity:1;fill-rule:evenodd;stroke:#000000;stroke-width:0.282208;stroke-linecap:butt;stroke-linejoin:miter;stroke-miterlimit:4;stroke-dasharray:none;stroke-opacity:1"
       inkscape:connector-curvature="0" />
    <rect
       width="10.100945"
       height="26.938805"
       x="903.63629"
       y="810.6225"
       id="rect7330-3"
       style="display:inline;overflow:visible;visibility:visible;opacity:0.96;fill:#0000ff;fill-opacity:1;fill-rule:nonzero;stroke:#000000;stroke-width:0.395622;stroke-linecap:round;stroke-linejoin:round;stroke-miterlimit:4;stroke-dasharray:none;stroke-dashoffset:0;stroke-opacity:1;marker:none;enable-background:accumulate" />
    <rect
       width="23.816389"
       height="3.1343496"
       x="896.77856"
       y="837.63641"
       id="rect7324-1"
       style="display:inline;overflow:visible;visibility:visible;opacity:0.96;fill:#0000ff;fill-opacity:1;fill-rule:nonzero;stroke:#000003;stroke-width:0.282208;stroke-linecap:round;stroke-linejoin:round;stroke-miterlimit:4;stroke-dasharray:none;stroke-dashoffset:0;stroke-opacity:1;marker:none;enable-background:accumulate" />
    <rect
       width="28.737135"
       height="3.191298"
       x="894.31818"
       y="840.77069"
       id="rect7322-6"
       style="display:inline;overflow:visible;visibility:visible;opacity:0.96;fill:#0000ff;fill-opacity:1;fill-rule:nonzero;stroke:#000003;stroke-width:0.282208;stroke-linecap:round;stroke-linejoin:round;stroke-miterlimit:4;stroke-dasharray:none;stroke-dashoffset:0;stroke-opacity:1;marker:none;enable-background:accumulate" />
    <rect
       width="31.689579"
       height="3.4762692"
       x="892.84198"
       y="843.99054"
       id="rect7320-8"
       style="display:inline;overflow:visible;visibility:visible;opacity:0.96;fill:#0000ff;fill-opacity:1;fill-rule:nonzero;stroke:#000003;stroke-width:0.282208;stroke-linecap:round;stroke-linejoin:round;stroke-miterlimit:4;stroke-dasharray:none;stroke-dashoffset:0;stroke-opacity:1;marker:none;enable-background:accumulate" />
    <ellipse
       style="fill:#0000ff;fill-opacity:1;fill-rule:evenodd;stroke:#000003;stroke-width:1.56391;stroke-linecap:butt;stroke-linejoin:miter;stroke-miterlimit:4;stroke-dasharray:none;stroke-opacity:1"
       id="path3169-7-5"
       transform="matrix(0.16263745,0,0,0.19259938,913.52222,769.03351)"
       cx="-33.314785"
       cy="426.00955"
       rx="17.575518"
       ry="15.214626" />
  </g>
</svg>
