<svg xmlns="http://www.w3.org/2000/svg" viewBox="0 0 900 600">
  <g transform="translate(-40.313 -124.813)">
    <path fill="#fff" d="M40.313 124.813h900v600h-900z"/>
    <path fill="#d40000" fill-rule="evenodd" d="m588.13 310.61 58.113-73.371 5.63 4.46-58.112 73.37z"/>
    <path fill="#d40000" d="M636.73 264.726c3.586 7.034 14.026 12.054 13.072.224l9.71-12.475c14.936 37.156-14.963 53.52-37.2 47.06l7.77-9.337c6.26 2.719 11.82-3.316-1.868-14.716z"/>
    <path fill="#d40000" fill-rule="evenodd" d="m606.17 280.67 25-31.811 13.123 10.313-25 31.812zm-28.225 29.728-58.112-73.37-5.631 4.46 58.113 73.37z"/>
    <path fill="#d40000" d="M529.346 264.514c-3.586 7.034-14.027 12.054-13.073.224l-9.71-12.474c-14.936 37.156 14.963 53.52 37.2 47.06l-7.77-9.338c-6.26 2.72-11.82-3.315 1.868-14.715z"/>
    <path fill="#d40000" fill-rule="evenodd" d="m559.905 280.46-25-31.812-13.123 10.313 25 31.812zm66.211 126.07-58.112-73.37-5.63 4.46 58.112 73.37z"/>
    <path fill="#d40000" d="M577.517 360.646c-3.586 7.034-14.026 12.054-13.072.224l-9.71-12.474c-14.936 37.156 14.963 53.52 37.2 47.06l-7.77-9.337c-6.26 2.718-11.82-3.316 1.868-14.716z"/>
    <path fill="#d40000" fill-rule="evenodd" d="m608.077 376.592-25-31.812-13.123 10.313 25 31.812zM400.766 515.677l58.112-73.371 5.631 4.46-58.112 73.37z"/>
    <path fill="#d40000" d="M449.365 469.792c3.586 7.034 14.027 12.054 13.072.224l9.711-12.474c14.936 37.155-14.963 53.52-37.2 47.06l7.769-9.338c6.26 2.72 11.82-3.315-1.868-14.715z"/>
    <path fill="#d40000" fill-rule="evenodd" d="m418.805 485.737 25-31.812 13.124 10.313-25 31.812zm-28.225 29.728-58.112-73.372-5.631 4.46 58.112 73.371z"/>
    <path fill="#d40000" d="M341.981 469.58c-3.586 7.035-14.026 12.055-13.072.225l-9.71-12.475c-14.936 37.156 14.963 53.52 37.199 47.06l-7.769-9.337c-6.26 2.719-11.82-3.316 1.868-14.716z"/>
    <path fill="#d40000" fill-rule="evenodd" d="m372.54 485.526-25-31.812-13.123 10.313 25 31.812zm66.212 126.071-58.113-73.37-5.63 4.46 58.112 73.37z"/>
    <path fill="#d40000" d="M390.153 565.713c-3.586 7.034-14.027 12.054-13.072.224l-9.711-12.475c-14.936 37.156 14.963 53.52 37.2 47.06l-7.769-9.337c-6.26 2.719-11.82-3.316 1.868-14.716z"/>
    <path fill="#d40000" fill-rule="evenodd" d="m420.713 581.658-25-31.812-13.124 10.313 25 31.812zM302.378 246.45h188.406v30.316H302.378zm0 60.637h188.404v30.316H302.378zm0 60.277h188.4v30.682h-188.4zm188.385 92.751h187.484v30.316H490.763z"/>
    <rect width="187.485" height="30.316" x="490.761" y="520.751" fill="#d40000" fill-rule="evenodd" rx="0" ry="0"/>
    <path fill="#d40000" d="M490.643 581.304h187.604v13.004c-.29 6.384.157 12.303-3.236 17.473H490.643z"/>
    <path fill="none" stroke="#000" stroke-width="3" d="M302.378 214.629v381.18c-.62 21.707 18.38 39.936 41.926 37.96h102.139c18.3 1.11 35.868 4.265 44.24 33.214 8.339-28.949 25.839-32.105 44.066-33.215h101.738c23.454 1.977 42.378-16.252 41.76-37.959v-381.18H490.683Z"/>
    <path fill="#ececec" stroke="#000" stroke-width="3" d="M490.683 214.629v451.987M678.247 429.08H302.378"/>
  </g>
</svg>
