<?xml version="1.0" encoding="UTF-8" standalone="no"?>
<!-- Created with Inkscape (http://www.inkscape.org/) -->

<svg
   width="920.5"
   height="613.34375"
   id="svg7075"
   version="1.1"
   inkscape:version="1.2.2 (b0a8486, 2022-12-01)"
   sodipodi:docname="Marchin_vlag.svg"
   xml:space="preserve"
   xmlns:inkscape="http://www.inkscape.org/namespaces/inkscape"
   xmlns:sodipodi="http://sodipodi.sourceforge.net/DTD/sodipodi-0.dtd"
   xmlns="http://www.w3.org/2000/svg"
   xmlns:svg="http://www.w3.org/2000/svg"
   xmlns:rdf="http://www.w3.org/1999/02/22-rdf-syntax-ns#"
   xmlns:cc="http://creativecommons.org/ns#"
   xmlns:dc="http://purl.org/dc/elements/1.1/"><defs
     id="defs7077" /><sodipodi:namedview
     id="base"
     pagecolor="#ffffff"
     bordercolor="#666666"
     borderopacity="1.0"
     inkscape:pageopacity="0.0"
     inkscape:pageshadow="2"
     inkscape:zoom="0.65943137"
     inkscape:cx="429.91585"
     inkscape:cy="286.61057"
     inkscape:document-units="px"
     inkscape:current-layer="layer1"
     showgrid="false"
     fit-margin-top="0"
     fit-margin-left="0"
     fit-margin-right="0"
     fit-margin-bottom="0"
     inkscape:window-width="1440"
     inkscape:window-height="900"
     inkscape:window-x="0"
     inkscape:window-y="0"
     inkscape:window-maximized="0"
     inkscape:showpageshadow="2"
     inkscape:pagecheckerboard="0"
     inkscape:deskcolor="#d1d1d1" /><metadata
     id="metadata7080"><rdf:RDF><cc:Work
         rdf:about=""><dc:format>image/svg+xml</dc:format><dc:type
           rdf:resource="http://purl.org/dc/dcmitype/StillImage" /></cc:Work></rdf:RDF></metadata><g
     inkscape:label="Laag 1"
     inkscape:groupmode="layer"
     id="layer1"
     transform="translate(214.96875,-71.40625)"><rect
       style="fill:#da121a;fill-opacity:1;fill-rule:evenodd;stroke:#ededed;stroke-width:0.20009519;stroke-linecap:round;stroke-miterlimit:4;stroke-opacity:0.07547171;stroke-dasharray:none;stroke-dashoffset:0"
       id="rect5822"
       width="920.28363"
       height="613.16248"
       x="-214.8654"
       y="71.495216" /><rect
       style="fill:#ffffff;fill-opacity:1;fill-rule:evenodd;stroke:none"
       id="rect5824"
       width="927.89331"
       height="325.26913"
       x="-219.64661"
       y="216.95721" /><g
       inkscape:label="Calque 1"
       id="layer1-9"
       transform="matrix(0.51506424,0,0,0.51821722,-19.418256,201.11137)"
       style="display:inline;stroke-width:1.93559"><g
         id="layer3"
         style="display:inline;stroke-width:1.93559"
         transform="translate(512.73922,340.55015)"><path
           class="cls-1"
           d="m -55.241695,-211.99346 c -10.52229,23.10777 -11.55388,29.91631 -3.71375,20.63194 2.0632,-2.68215 3.71375,-4.74535 5.36431,-6.80854 -1.0316,7.4275 -0.82528,11.34756 0.41263,11.55388 1.23792,0.20632 3.09479,-1.44423 6.18958,-5.3643 4.95167,-5.98326 7.84014,-9.69701 9.07806,-10.72861 3.3011,-3.50742 6.18958,-4.74534 8.25277,-3.71374 13.792339,-5.9875 26.0806272,-25.2384 37.7564396,-24.552 4.4531674,-4.13728 6.8666714,-10.0202 6.6022204,-16.09291 -0.343523,-4.97514 -3.22946,-9.42105 -7.6338204,-11.76021 -17.1245066,-8.87173 -41.8828266,-1.23791 -74.2749596,22.90145 -3.09479,4.74535 5.15798,3.71375 24.75832,-2.68215"
           id="path455-3"
           style="display:inline;fill:#e20909;fill-opacity:1;stroke:#000000;stroke-width:5.80677;stroke-linecap:round;stroke-linejoin:round;stroke-miterlimit:4;stroke-dasharray:none;stroke-opacity:1" /><path
           class="cls-1"
           d="m -22.436915,-240.67184 a 50.589502,50.589502 0 0 0 7.22117,-4.95167 28.26575,28.26575 0 0 1 14.0297196,-3.09479"
           id="path419-7"
           style="display:inline;fill:none;fill-opacity:1;stroke:#000000;stroke-width:5.80677;stroke-linecap:round;stroke-linejoin:round;stroke-miterlimit:4;stroke-dasharray:none;stroke-opacity:1" /><path
           class="cls-1"
           d="m -53.591135,-198.17006 c 4.3327,-5.15798 7.01485,-8.04645 7.63381,-8.66541 0.61896,-0.61896 2.06319,-1.65056 3.92007,-3.09479 2.305816,-1.85683 4.716885,-3.57903 7.22118,-5.15799"
           id="path421-2"
           style="display:inline;fill:none;stroke:#000000;stroke-width:5.80677;stroke-linecap:round;stroke-linejoin:round;stroke-miterlimit:4;stroke-dasharray:none;stroke-opacity:1" /><path
           class="cls-1"
           d="m -55.241695,-211.99346 c -28.472065,16.91819 -24.34568,8.25278 12.7918,-26.61519 6.16374,-3.21488 13.32299,-3.95294 20.01298,-2.06319 -6.075747,3.10323 -11.475502,7.38096 -15.88659,12.58548 -5.31458,5.69574 -10.963999,11.06957 -16.91819,16.0929"
           id="path425-2"
           style="display:inline;fill:#e20909;fill-opacity:1;stroke:#000000;stroke-width:5.80677;stroke-linecap:round;stroke-linejoin:round;stroke-miterlimit:4;stroke-dasharray:none;stroke-opacity:1" /><path
           class="cls-1"
           d="m -22.849555,-167.01584 c -4.12639,13.20444 -12.7918,21.04457 -25.37728,23.93304 -15.47395,3.71375 -26.40888,8.66542 -33.21742,15.26764 -8.45909,8.25277 -10.7286,14.44235 -6.39589,18.1561 3.92006,3.50743 11.7602,4.3327 23.31408,2.06319 3.847903,-1.00285 7.879488,-1.07358 11.7602,-0.20632 3.09479,1.23792 4.53903,4.12639 4.53903,8.871735 0,30.32895 0,55.91254 0.20632,76.54448 -10.93493,20.8382508 -27.02784,20.8382508 -48.07241,0 0.61896,21.86984783 20.092925,58.59469 49.51664,58.59469 v 0 c -2.063193,43.120743 -14.992537,55.362358 -38.78803,36.724843 0.41264,21.869848 15.47395,38.581712 45.18393,50.135602 4.95167,42.50178 2.0632,73.656 -8.66541,93.05001 -5.77694,10.93493 -15.68027,15.68027 -29.50367,14.64868 -12.417993,-0.70999 -24.152625,-5.91723 -33.011095,-14.64868 -5.15798,-4.95166 -8.45909,-6.60221 -10.10964,-4.95166 -1.65056,1.65056 -0.61896,4.74535 2.47583,10.10965 24.345685,41.26387 54.055665,50.75456 89.129955,28.88471 13.20444,14.23603 31.9795,17.74346 55.912545,10.52228 22.69513,-6.80854 46.00921,-21.66353 69.73593,-44.56498 2.68216,-2.88847 3.92007,-5.57062 3.30111,-7.84013 -0.82528,-2.88847 -4.95167,-2.26951 -11.96652,1.23792 l -29.09102,14.44235 c -9.25707,4.94623 -19.62912,7.43268 -30.12263,7.22118 -8.470918,-0.47264 -16.441483,-4.16272 -22.282485,-10.31597 -5.332664,-5.87557 -7.821225,-13.79371 -6.80854,-21.66353 0.61896,-5.98326 3.50743,-15.68027 8.66541,-28.8847 9.078053,-22.48881 15.680275,-39.407 19.806665,-50.75456 6.61331,-17.82833 11.38353,-36.287036 14.23603,-55.087266 6.67448,-44.509403 9.16119,-89.546557 7.42749,-134.520214 -0.39586,-18.985415 -1.9115,-37.93094 -4.53902,-56.73782 v 0 c -2.26951,-14.23603 -4.95166,-27.64679 -8.25277,-40.43859 -7.22118,-27.64679 -16.505555,-48.89768 -28.059435,-63.75267 -2.750686,-2.21643 -6.014139,-3.70627 -9.49069,-4.33271 -3.713747,-0.41264 -7.633813,1.0316 -11.7602,4.33271 -8.4591,6.60221 -15.68027,11.7602 -21.66353,15.88658 1.85687,2.88848 3.50742,5.77695 5.15798,8.66542 7.84013,15.47395 10.10965,28.47207 6.80854,39.40699 z"
           id="path431-5"
           style="display:inline;fill:#e20909;fill-opacity:1;stroke:#000000;stroke-width:5.80677;stroke-linecap:round;stroke-linejoin:round;stroke-miterlimit:4;stroke-dasharray:none;stroke-opacity:1" /><path
           class="cls-1"
           d="m -7.16929,-193.2184 a 10.13028,10.13028 0 0 0 -3.09479,7.4275 10.315967,10.315967 0 0 0 3.09479,7.63382 10.13028,10.13028 0 0 0 7.4275,3.09479 10.56355,10.56355 0 0 0 10.72861,-10.72861 10.13028,10.13028 0 0 0 -3.09479,-7.4275 10.315967,10.315967 0 0 0 -7.63382,-3.09479 10.13028,10.13028 0 0 0 -7.4275,3.09479"
           id="path433-2"
           style="display:inline;fill:#ffffff;stroke:#000000;stroke-width:5.80677;stroke-linecap:round;stroke-linejoin:round;stroke-miterlimit:4;stroke-dasharray:none;stroke-opacity:1" /><path
           class="cls-1"
           d="m -47.40156,7.9429658 c -0.20632,-8.66541197 -0.41263,-18.5687408 -0.61896,-30.3289408"
           id="path443-0"
           style="display:inline;fill:none;stroke:#000000;stroke-width:5.80677;stroke-linecap:round;stroke-linejoin:round;stroke-miterlimit:4;stroke-dasharray:none;stroke-opacity:1" /><path
           class="cls-1"
           d="m 18.82694,-162.68313 c 0.61896,40.43859 -17.33082,50.75455 -53.4367,30.74158"
           id="path445-6"
           style="display:inline;fill:none;stroke:#000000;stroke-width:5.80677;stroke-linecap:round;stroke-linejoin:round;stroke-miterlimit:4;stroke-dasharray:none;stroke-opacity:1" /><path
           class="cls-1"
           d="m -33.57817,-110.27802 c 42.08916,12.791805 62.10212,-1.0316 60.45157,-41.05755"
           id="path447-7"
           style="display:inline;fill:none;stroke:#000000;stroke-width:5.80677;stroke-linecap:round;stroke-linejoin:round;stroke-miterlimit:4;stroke-dasharray:none;stroke-opacity:1" /><path
           class="cls-1"
           d="m 48.94957,-70.045745 c -0.39585,-18.985417 -1.91149,-37.930945 -4.53902,-56.737825 41.05755,31.566865 66.43482,82.321425 76.33815,151.851041 -7.22118,-0.206319 -13.61708,-3.301109 -19.39402,-9.903328 4.53903,9.490689 5.98326,17.949782 4.12639,25.583598 -7.22117,-0.825277 -14.23603,-4.745345 -20.83825,-11.966522 2.26903,8.306934 2.26903,17.070345 0,25.377279 -7.23126,-2.608654 -13.44532,-7.44984 -17.74346,-13.823396 3.09621,7.891158 3.09621,16.660844 0,24.552002 -5.81001,-3.244992 -10.38095,-8.323806 -12.99812,-14.442354 -3.5626,5.145317 -7.71748,9.854177 -12.37916,14.029715 6.67449,-44.509401 9.1612,-89.546554 7.42749,-134.52021 z"
           id="path449-0"
           style="display:inline;fill:#e20909;fill-opacity:1;stroke:#000000;stroke-width:5.80677;stroke-linecap:round;stroke-linejoin:round;stroke-miterlimit:4;stroke-dasharray:none;stroke-opacity:1" /><path
           class="cls-1"
           d="M -43.06886,95.009727 C -44.51309,76.647306 -45.95732,57.046969 -46.57629,36.208715"
           id="path451-7"
           style="display:inline;fill:none;stroke:#000000;stroke-width:5.80677;stroke-linecap:round;stroke-linejoin:round;stroke-miterlimit:4;stroke-dasharray:none;stroke-opacity:1" /></g></g></g></svg>
