<?xml version="1.0" encoding="UTF-8"?>
<!-- Created with Inkscape (http://www.inkscape.org/) -->
<svg width="900" height="600" version="1.1" xmlns="http://www.w3.org/2000/svg" xmlns:cc="http://creativecommons.org/ns#" xmlns:dc="http://purl.org/dc/elements/1.1/" xmlns:rdf="http://www.w3.org/1999/02/22-rdf-syntax-ns#" xmlns:xlink="http://www.w3.org/1999/xlink">
 <metadata>
  <rdf:RDF>
   <cc:Work rdf:about="">
    <dc:format>image/svg+xml</dc:format>
    <dc:type rdf:resource="http://purl.org/dc/dcmitype/StillImage"/>
   </cc:Work>
  </rdf:RDF>
 </metadata>
 <g transform="translate(-234.57143,-627.39732)">
  <rect x="234.57143" y="627.39734" width="900" height="600" fill="#fff" stroke-linecap="round" stroke-linejoin="round" stroke-width="3.54031" style="paint-order:stroke fill markers"/>
  <g fill="#0045bd">
   <rect x="234.57143" y="627.39734" width="900" height="300" stroke-linecap="round" stroke-linejoin="round" stroke-width="2.50338" style="paint-order:stroke fill markers"/>
   <path d="m684.59031 727.52805h-179.03916v363.60515c-0.5898 20.7059 17.47456 38.0956 39.86231 36.2095h97.11339c17.39879 1.0587 34.10369 4.0695 42.06346 31.6835z"/>
   <path d="m684.52133 727.44225h179.03917v363.60525c0.58979 20.7057-17.47457 38.0956-39.86234 36.2095h-97.11337c-17.39879 1.0585-34.10369 4.0695-42.06346 31.6835-6.33537-143.8328-13.9357-287.66545 0-431.49825z"/>
  </g>
  <rect x="505.55627" y="727.39734" width="358.00424" height="200.00003" fill="#fff" fill-rule="evenodd"/>
  <path d="m535.15559 1017.9174v-5.1109h10.61807l0.16146-0.688c0.62786-2.6758 1.92036-6.2556 3.27637-9.0747 2.98194-6.19925 7.47116-11.58715 13.31956-15.98605 0.56269-0.4232 1.02309-0.8039 1.02309-0.8462 0-0.043-1.0045-1.1369-2.2322-2.4328-1.22771-1.296-2.2322-2.3997-2.2322-2.4529 0-0.054 1.144-1.2859 2.54222-2.7395 1.39823-1.4536 2.54223-2.6846 2.54223-2.7356s-0.28263-0.2781-0.62803-0.5051c-0.81802-0.5373-3.69082-2.8201-4.64244-3.6889-1.23327-1.126-3.754-3.7945-4.70436-4.9802-4.05753-5.0623-6.62401-10.2891-8.44581-17.2004l-0.19862-0.7535h-10.64735v-10.2219h13.39319c7.36626 0 13.39319 0.015 13.39318 0.032-2e-5 0.018-0.0857 0.5045-0.19037 1.0812-0.90606 4.9905-0.80097 9.893 0.30919 14.4227 1.21641 4.9634 3.884 9.8376 7.61983 13.9233l1.11421 1.2186 2.87848-3.0399 2.87846-3.0397 2.87879 3.099c1.58332 1.7044 2.9225 3.099 2.97592 3.099 0.13798 0 2.69114-3.0213 3.54395-4.1937 3.38322-4.6512 5.39022-10.0091 5.89079-15.726 0.18569-2.121 0.0692-5.5806-0.26462-7.8631-0.14236-0.9731-0.29072-1.9904-0.32974-2.2606l-0.0709-0.4915h26.69503v10.222h-10.61805l-0.16109 0.688c-0.0886 0.3784-0.41209 1.5136-0.71891 2.5227-2.88172 9.4779-8.50921 17.2766-16.69311 23.1334l-0.97074 0.6947 2.09023 2.2394c1.14961 1.2318 2.25097 2.4293 2.44748 2.6614l0.35726 0.422-2.08773 2.2305c-1.14826 1.2267-2.06392 2.2545-2.03479 2.2838 0.029 0.029 0.72259 0.5689 1.54106 1.1991 1.92118 1.4793 2.93675 2.3608 4.46545 3.876 5.92749 5.8751 9.50522 12.20625 11.78499 20.85495l0.19862 0.7536h10.64737v10.222h-13.39318c-7.36626 0-13.39319-0.015-13.39318-0.032 1e-5 -0.018 0.0856-0.5046 0.19037-1.0811 0.90606-4.9907 0.80097-9.8931-0.30919-14.4228-1.03813-4.236-3.07456-8.30525-6.04159-12.07255-0.55766-0.7081-1.25782-1.5385-1.55592-1.8455l-0.54198-0.5582-2.54513 2.7205c-1.3998 1.4962-2.8623 3.0743-3.25 3.5067l-0.70492 0.7863-3.07091-3.3301c-1.68902-1.8315-3.12919-3.3058-3.2004-3.2762-0.21419 0.089-2.00805 2.2049-2.87892 3.3956-3.13583 4.28755-4.94653 8.69495-5.81463 14.15345-0.33781 2.1241-0.30186 7.05 0.0694 9.5011 0.15281 1.0091 0.3098 2.056 0.34886 2.3262l0.071 0.4915h-26.69505v-5.111zm44.00215-39.53485c-1.52151-1.609-2.82311-2.9256-2.89246-2.9256-0.0694 0-1.38077 1.3269-2.91428 2.9487l-2.78818 2.9486 2.85123 3.0235 2.85123 3.0236 5.65884-6.0932z" fill="#ffd700"/>
  <path d="m535.14674 1022.6166v-0.4587h25.92304l-0.0588-0.2948c-0.38479-1.9279-0.68992-5.4431-0.68992-7.9485 0-6.0677 1.97427-12.3226 5.46687-17.32025 0.84105-1.2034 2.46807-3.2391 3.07254-3.8442l0.37953-0.3798 0.44319 0.3572 0.4432 0.3571-0.7922 0.8746c-1.16962 1.2912-1.56183 1.7833-2.59236 3.2531-2.86069 4.07995-4.64221 8.53335-5.36578 13.41305-0.42491 2.8656-0.36684 7.3241 0.13399 10.2875 0.0975 0.5767 0.21222 1.2991 0.25502 1.6054l0.0778 0.557h-26.69611zm55.97485-0.098c0.0412-0.1622 0.0756-0.3686 0.0764-0.4587 2e-3 -0.13 2.66469-0.1638 12.89884-0.1638h12.89715v-9.3045h0.86809v10.2218h-26.81533zm14.71344-12.7119c-1.81454-6.3285-4.58241-11.75745-8.23495-16.15205-0.47927-0.5766-0.68678-0.8715-0.46115-0.6553 0.59552 0.5707 2.1911 2.5591 3.20738 3.9971 2.49555 3.53085 4.66495 8.04625 6.01366 12.51685 0.64733 2.1457 0.64947 2.1608 0.30221 2.1608-0.26759 0-0.33601-0.1544-0.82715-1.8674zm-29.94375-10.44375-0.3533-0.3897 1.00189-1.1522c0.55104-0.6338 2.00991-2.2129 3.24195-3.5093l2.24002-2.3569 6.40614-6.8654 0.83552 0.6294-6.4553 7.067-3.19723 3.4486c-1.75847 1.8967-3.23528 3.4642-3.28179 3.4834-0.0465 0.019-0.24356-0.1406-0.4379-0.3549zm12.98327-13.9152c-0.22167-0.1495-0.40302-0.3222-0.40302-0.384 0-0.062 0.91732-1.1094 2.0385-2.3279l2.03851-2.2156 0.4071 0.444 0.40708 0.4438-2.04256 2.1556-2.04257 2.1557zm-29.68548-3.8826c-0.15425-0.2078-0.14987-0.2125 0.0468-0.05 0.11936 0.099 0.21702 0.2021 0.21702 0.2293 0 0.1079-0.10186 0.038-0.26386-0.1799zm10.9443-0.6056-0.39378-0.4294 2.78819-2.9061c1.53352-1.5985 2.83449-2.9062 2.89109-2.9062s0.27996 0.1621 0.49641 0.3603l0.39355 0.3604-2.89083 2.9752-2.89081 2.9752zm10.51606-0.8359-0.30065-0.3604 0.34103 0.3177c0.18758 0.1748 0.34104 0.3369 0.34104 0.3604 0 0.1028-0.10038 0.019-0.38142-0.3177zm7.38727-4.4893c-0.21318-0.2352-0.31005-0.4379-0.24022-0.5028 0.0644-0.06 0.70294-0.5399 1.4191-1.067 5.00416-3.6826 9.16986-8.3114 12.11231-13.4588 0.98255-1.7189 2.4357-4.8542 3.11682-6.725 0.54248-1.49 1.63638-5.1278 1.63638-5.4418 0-0.1675 0.71408-0.1934 5.33248-0.1934h5.33249v-9.4357h0.86808v10.222l-5.30149 8e-4 -5.30147 8e-4 -0.53364 1.9975c-2.27438 8.5133-7.00355 15.9988-13.73798 21.7451-1.44435 1.2324-4.08991 3.2519-4.26009 3.2519-0.047 0-0.2463-0.1774-0.44277-0.3941zm-25.86159-1.2223c-0.58033-0.4445-1.47208-1.1529-1.98167-1.5742-0.96095-0.7944-4.06292-3.7265-4.3559-4.1172-0.27693-0.3695 0.78855 0.5611 1.32118 1.1539 0.59013 0.6566 2.90255 2.6214 4.46439 3.7932 1.44539 1.0844 1.82087 1.4129 1.70312 1.4898-0.0528 0.034-0.5708-0.301-1.15112-0.7455zm-7.37261-6.902c-0.19603-0.2163-0.32854-0.3932-0.29443-0.3932 0.0341 0 0.22241 0.1769 0.41844 0.3932 0.19603 0.2161 0.32853 0.3931 0.29444 0.3931-0.0341 0-0.22242-0.177-0.41845-0.3931zm13.19136-1.0157c-0.15425-0.2079-0.14987-0.2125 0.0468-0.05 0.20657 0.1711 0.27226 0.2788 0.17018 0.2788-0.0258 0-0.12341-0.1032-0.21701-0.2294zm-1.45041-1.8464c-3.5021-4.6455-5.59986-9.7866-6.21144-15.2229-0.34992-3.1102-0.2701-6.6527 0.21556-9.5667l0.20747-1.245 0.46503-0.041c0.25577-0.022 0.46503-0.022 0.46502 0s-0.0856 0.5124-0.19035 1.0891c-1.05033 5.7851-0.74815 11.5212 0.86424 16.4066 1.09742 3.325 2.45232 5.9759 4.49156 8.7878 0.43123 0.5947 0.75727 1.0812 0.72453 1.0812-0.0328 0-0.49697-0.5802-1.03162-1.2894zm-31.64473-16.2714v-0.3931h4.94717c4.39679 0 4.95556 0.023 5.02245 0.2073 0.21702 0.5976 0.37611 0.579-4.94718 0.579h-5.02244z" fill-opacity=".235849"/>
  <path d="m535.027 1017.9439v-5.044l5.29603-0.034 5.296-0.034 0.46587-1.7286c1.76338-6.5425 4.8724-12.46575 9.06676-17.27375 1.40338-1.6088 3.62122-3.801 5.11159-5.0526 1.33982-1.1253 2.97061-2.3518 3.12697-2.3518 0.21142 0 0.83113 0.7845 0.71036 0.8992-0.0644 0.062-0.87036 0.7188-1.79114 1.4614-5.72089 4.6136-9.50058 9.2659-12.40233 15.26565-1.32525 2.7402-2.67854 6.4646-3.34522 9.2063l-0.13543 0.557h-10.65539v9.1736h-0.74407zm56.05597 4.4872c2e-3 -0.1621 0.0561-0.5308 0.12101-0.8191 0.58056-2.5781 0.75219-8.4184 0.3273-11.1393-0.55809-3.5742-1.48707-6.5681-2.94811-9.5012-0.34108-0.6847-0.50545-1.09755-0.36528-0.9173 0.52708 0.6775 2.3343 4.6976 2.84733 6.3338 1.47135 4.6925 1.82105 9.633 1.05664 14.9292l-0.20332 1.4088h-0.41925c-0.35301 0-0.41879-0.046-0.41632-0.2949zm16.62667-9.2915c-0.0749-0.2268-0.13614-0.4333-0.13614-0.4586 0-0.025 2.31591-0.047 5.14648-0.047h5.14645v0.9173h-10.02063zm-7.71664-16.46005c-0.15426-0.2078-0.14987-0.2125 0.0468-0.049 0.20658 0.1713 0.27226 0.2788 0.1702 0.2788-0.0258 0-0.12342-0.1032-0.21702-0.2293zm-0.9857-1.2449c-2.20641-2.655-4.35144-4.7386-7.24521-7.0378-1.0231-0.8129-1.88211-1.4993-1.90891-1.5253-0.0269-0.026 0.0449-0.085 0.15907-0.1316 0.14327-0.059 0.64802 0.2686 1.6254 1.0521 2.55576 2.0491 5.12408 4.6057 6.97959 6.9477 0.51689 0.6525 1.02221 1.2895 1.12291 1.4156 0.1007 0.1262 0.15468 0.2293 0.11994 0.2293-0.0347 0-0.4185-0.4274-0.85278-0.95zm-24.94847-10.0262c-1.55133-1.6404-2.82058-3.0407-2.82058-3.1115 0-0.071 1.11732 1.0502 2.48295 2.491l2.48294 2.6198 2.75652-2.9949 2.75654-2.9949 0.43047 0.4756 0.43048 0.4755-2.84938 3.0111-2.84936 3.0112zm-14.72673-3.637-0.42503-0.4635 2.47054-2.6132 2.47053-2.6133 6.57801-6.8695c0.0774 0.061 1.65243-0.1322 0.86366 0.9274-1.67336 2.2483-6.53013 6.6594-6.51102 6.6752 0.0465 0.039-4.79858 5.3054-4.95461 5.3858-0.0368 0.019-0.25832-0.174-0.49208-0.4289zm31.76021-2.5608c-1.10839-1.2218-1.96855-2.2215-1.91145-2.2215 0.18968 0 4.16102 4.2899 4.04282 4.3671-0.0638 0.041-1.02296-0.9238-2.13137-2.1456zm-11.2973-11.9847-2.9123-3.0797-2.85527 3.0153-2.85528 3.0153-0.86766-0.9512c-1.45923-1.5999-1.91124-2.1897-0.83101-1.0844l1.02261 1.0464 2.89147-3.0536 2.89146-3.0535 2.87424 3.1211 2.87423 3.1211 1.08496-1.1825c4.73071-5.1556 7.61342-11.41 8.33417-18.0819 0.29714-2.7508 0.11228-7.1597-0.4231-10.091-0.10531-0.5765-0.19149-1.0926-0.1915-1.1467-2e-5 -0.053 6.02691-0.098 13.39318-0.098h13.39317v1.0484h-26.06202l0.0686 0.3603c0.36819 1.9385 0.69049 5.5657 0.69335 7.8027 8e-3 6.0452-1.96864 12.3636-5.43998 17.3919-1.05302 1.5253-3.89367 4.9799-4.09489 4.9799-0.0418 0-1.38655-1.3858-2.9883-3.0797zm-11.60681-0.4915-0.23624-0.2948 0.27901 0.2496c0.15347 0.1373 0.27903 0.2701 0.27903 0.2949 0 0.1049-0.0998 0.027-0.3218-0.2497zm-16.32923-3.0519c-2.4954-3.7053-4.71157-8.6326-5.96957-13.2724-0.18609-0.6863-0.18504-0.6959 0.0716-0.6552 0.21936 0.034 0.34395 0.3309 0.78913 1.8759 0.93652 3.2503 1.58537 5.0006 2.8177 7.601 0.76395 1.6121 1.99699 3.8612 2.53253 4.6196 0.16545 0.2342 0.26891 0.4258 0.22993 0.4258-0.039 0-0.25108-0.2676-0.47134-0.5947zm-17.07999-20.1113v-5.111h13.3932c7.57058 0 13.3932 0.05 13.3932 0.1147 0 0.063-0.0349 0.2989-0.0775 0.5242l-0.0774 0.4095h-25.88732v9.1736h-0.74408z" fill="#f9f9f9" fill-opacity=".349057"/>
  <path d="m644.53861 1017.3862v-5.111h10.61807l0.16146-0.688c0.62786-2.6758 1.92036-6.2556 3.27637-9.0746 2.98196-6.19915 7.47117-11.58705 13.31957-15.98595 0.5627-0.4233 1.02309-0.804 1.02309-0.8462 0-0.043-1.0045-1.137-2.23219-2.4329-1.22773-1.296-2.23221-2.3997-2.23221-2.4529 0-0.053 1.14399-1.2859 2.54222-2.7394 1.39823-1.4537 2.54223-2.6847 2.54223-2.7356 0-0.051-0.28262-0.2782-0.62804-0.5052-0.81802-0.5373-3.69082-2.82-4.64242-3.6889-1.23329-1.126-3.75402-3.7945-4.70438-4.9801-4.05751-5.0624-6.62401-10.2892-8.44581-17.2005l-0.19862-0.7535h-10.64735v-10.2219h13.39319c7.36626 0 13.39319 0.015 13.39318 0.032-2e-5 0.018-0.0857 0.5045-0.19036 1.0812-0.90606 4.9905-0.80098 9.893 0.30919 14.4228 1.2164 4.9633 3.88399 9.8375 7.61983 13.9233l1.11422 1.2185 5.75692-6.0796 2.87879 3.099c1.58334 1.7045 2.9225 3.099 2.97593 3.099 0.13798 0 2.69114-3.0212 3.54394-4.1937 3.38323-4.6512 5.39022-10.0091 5.89079-15.726 0.18569-2.121 0.0694-5.5805-0.26462-7.8631-0.14236-0.9731-0.29072-1.9903-0.32973-2.2606l-0.0709-0.4915h26.69502v10.222h-10.61805l-0.16107 0.688c-0.0886 0.3784-0.41211 1.5137-0.71892 2.5228-2.88173 9.4778-8.50922 17.2765-16.69312 23.1333l-0.97073 0.6947 2.09022 2.2394c1.14961 1.2318 2.25097 2.4294 2.44749 2.6615l0.35726 0.422-2.08773 2.2304c-1.14826 1.2268-2.06393 2.2545-2.0348 2.2838 0.029 0.029 0.72259 0.5689 1.54106 1.1992 1.92118 1.4793 2.93676 2.3608 4.46545 3.8759 5.92749 5.8751 9.50523 12.20635 11.78499 20.85505l0.19863 0.7535h10.64737v10.222h-13.39321c-7.36627 0-13.39319-0.015-13.39318-0.032 1e-5 -0.018 0.0856-0.5047 0.19036-1.0812 0.90607-4.9907 0.80097-9.8931-0.30918-14.4228-1.03813-4.236-3.07457-8.30515-6.0416-12.07245-0.55766-0.7082-1.25782-1.5386-1.55592-1.8456l-0.54198-0.5581-2.54513 2.7204c-1.39978 1.4962-2.8623 3.0743-3.25 3.5067l-0.7049 0.7864-3.07093-3.3302c-1.68902-1.8315-3.12918-3.3058-3.2004-3.2762-0.21417 0.089-2.00802 2.2049-2.87891 3.3956-3.13582 4.28765-4.94654 8.69495-5.81463 14.15345-0.33781 2.1242-0.30187 7.05 0.0693 9.5012 0.15281 1.009 0.3098 2.0559 0.34888 2.3261l0.071 0.4915h-26.69506zm44.00215-39.53485c-1.52151-1.609-2.82309-2.9256-2.89246-2.9256-0.0694 0-1.38077 1.3269-2.91428 2.9487l-2.78818 2.9486 2.85123 3.0236 2.85123 3.0235 2.82942-3.0466 2.82943-3.0466z" fill="#ffd700"/>
  <path d="m644.52977 1022.0853v-0.4585h25.92305l-0.0589-0.295c-0.3848-1.9278-0.68992-5.4431-0.68992-7.9484 0-6.0678 1.97426-12.3226 5.46686-17.32015 0.84105-1.2035 2.46808-3.2391 3.07255-3.8442l0.37953-0.3799 0.44319 0.3572 0.44319 0.3573-0.7922 0.8744c-1.16962 1.2912-1.56183 1.7833-2.59236 3.2532-2.86069 4.07985-4.64221 8.53315-5.36577 13.41285-0.42492 2.8657-0.36685 7.3241 0.13399 10.2876 0.0975 0.5766 0.21221 1.299 0.25502 1.6053l0.0779 0.557h-26.69611zm55.97485-0.098c0.0412-0.1622 0.0755-0.3685 0.0764-0.4585 2e-3 -0.1301 2.6647-0.1639 12.89883-0.1639h12.89714v-9.3045h0.86811v10.2219h-26.81534zm14.71343-12.7119c-1.81453-6.3285-4.58241-11.75725-8.23495-16.15185-0.47927-0.5767-0.68678-0.8715-0.46114-0.6553 0.59551 0.5706 2.1911 2.5591 3.20737 3.997 2.49556 3.5309 4.66496 8.04635 6.01366 12.51695 0.64734 2.1457 0.64947 2.1609 0.30221 2.1609-0.26758 0-0.33601-0.1546-0.82715-1.8677zm-29.94374-10.44365-0.3533-0.3896 1.00189-1.1523c0.55103-0.6337 2.00991-2.2128 3.24195-3.5092l2.24002-2.357 6.40613-6.8654 0.83554 0.6295-6.4553 7.067-3.19725 3.4485c-1.75847 1.8967-3.23528 3.4643-3.28179 3.4834-0.0465 0.019-0.24356-0.1405-0.43789-0.3549zm12.98327-13.9151c-0.22167-0.1494-0.40302-0.3222-0.40302-0.3841 0-0.062 0.91732-1.1093 2.0385-2.3278l2.03852-2.2155 0.40709 0.4438 0.40708 0.4438-2.04256 2.1557-2.04258 2.1557zm-29.68549-3.8826c-0.15423-0.2078-0.14987-0.2125 0.0468-0.049 0.11937 0.099 0.21704 0.2021 0.21704 0.2293 0 0.1079-0.10187 0.038-0.26387-0.1799zm10.94432-0.6056-0.3938-0.4293 2.7882-2.9062c1.53352-1.5985 2.83449-2.9063 2.89108-2.9063 0.0566 0 0.27996 0.1621 0.49641 0.3604l0.39357 0.3603-2.89085 2.9753-2.89081 2.9752zm10.51605-0.836-0.30064-0.3603 0.34102 0.3177c0.18757 0.1747 0.34104 0.3368 0.34104 0.3604 0 0.1027-0.1004 0.019-0.38142-0.3178zm7.38726-4.4893c-0.21318-0.2352-0.31004-0.4379-0.24022-0.5027 0.0644-0.06 0.70294-0.5399 1.4191-1.0669 5.00416-3.6827 9.16986-8.3116 12.11232-13.459 0.98254-1.7187 2.4357-4.8542 3.11681-6.7249 0.54248-1.4901 1.63639-5.1278 1.63639-5.4419 0-0.1675 0.71407-0.1934 5.33247-0.1934h5.33249v-9.4356h0.86809v10.222l-10.60297 0.0016-0.53364 1.9975c-2.27438 8.5133-7.00355 15.9988-13.73797 21.745-1.44436 1.2324-4.08992 3.2519-4.26009 3.2519-0.047 0-0.24631-0.1773-0.44278-0.394zm-25.86159-1.2223c-0.58033-0.4444-1.47207-1.1528-1.98167-1.5741-0.96095-0.7945-4.06291-3.7265-4.3559-4.1173-0.27693-0.3693 0.78855 0.5612 1.32118 1.1539 0.59013 0.6567 2.90255 2.6216 4.46439 3.7933 1.44539 1.0845 1.82087 1.4128 1.70312 1.4898-0.0528 0.034-0.57079-0.301-1.15112-0.7456zm-7.3726-6.902c-0.19604-0.2163-0.32855-0.3931-0.29443-0.3931 0.0341 0 0.2224 0.1768 0.41843 0.3931 0.19604 0.2162 0.32853 0.3932 0.29444 0.3932-0.0341 0-0.22241-0.177-0.41844-0.3932zm13.19136-1.0157c-0.15424-0.2078-0.14988-0.2124 0.0468-0.049 0.20656 0.1711 0.27226 0.2787 0.17017 0.2787-0.0258 0-0.1234-0.1032-0.217-0.2293zm-1.45042-1.8463c-3.5021-4.6456-5.59986-9.7867-6.21143-15.223-0.34992-3.1102-0.2701-6.6526 0.21555-9.5667l0.20747-1.245 0.46503-0.041c0.25577-0.022 0.46504-0.022 0.46503 0s-0.0856 0.5125-0.19036 1.0891c-1.05032 5.7851-0.74815 11.5213 0.86424 16.4066 1.09742 3.3251 2.45232 5.976 4.49156 8.7879 0.43123 0.5947 0.75728 1.0812 0.72453 1.0812-0.0328 0-0.49697-0.5803-1.03162-1.2894zm-31.64473-16.2715v-0.393h4.94718c4.39678 0 4.95555 0.023 5.02245 0.2072 0.21703 0.5976 0.3761 0.579-4.94718 0.579h-5.02245z" fill-opacity=".235849"/>
  <path d="m644.41002 1017.4129v-5.0442l5.29603-0.034 5.29601-0.034 0.46587-1.7285c1.76338-6.5426 4.8724-12.46575 9.06675-17.27375 1.40339-1.6088 3.62122-3.8011 5.11159-5.0527 1.33982-1.1253 2.97062-2.3518 3.12697-2.3518 0.21142 0 0.83113 0.7845 0.71036 0.8992-0.0644 0.062-0.87035 0.7188-1.79114 1.4614-5.72089 4.6137-9.50057 9.266-12.40232 15.26575-1.32525 2.7401-2.67855 6.4645-3.34523 9.2063l-0.13543 0.557h-10.65539v9.1736h-0.74407zm56.05598 4.4871c2e-3 -0.1622 0.0561-0.5308 0.12099-0.8191 0.58059-2.5782 0.75221-8.4185 0.32732-11.1393-0.5581-3.5742-1.48709-6.5682-2.94811-9.5012-0.34108-0.68475-0.50546-1.09755-0.36529-0.91735 0.52708 0.67745 2.33431 4.69765 2.84732 6.33375 1.47136 4.6925 1.82105 9.6331 1.05665 14.9292l-0.20331 1.4088h-0.41926c-0.35299 0-0.4188-0.046-0.41631-0.2948zm16.62666-9.2915c-0.0749-0.2269-0.13614-0.4333-0.13614-0.4587 0-0.025 2.31591-0.046 5.14647-0.046h5.14647v0.9173h-10.02064zm-7.71664-16.46005c-0.15426-0.2079-0.14987-0.2125 0.0468-0.05 0.20657 0.1713 0.27226 0.2789 0.17019 0.2789-0.0258 0-0.12341-0.1033-0.21702-0.2293zm-0.98571-1.245c-2.20641-2.655-4.35143-4.7385-7.2452-7.0378-1.02311-0.8128-1.8821-1.4993-1.90891-1.5253-0.0269-0.026 0.0449-0.085 0.15906-0.1316 0.14327-0.059 0.64803 0.2687 1.6254 1.0522 2.55576 2.049 5.12409 4.6056 6.97959 6.9476 0.5169 0.6525 1.02222 1.2896 1.12291 1.4156 0.1007 0.1262 0.15468 0.2294 0.11994 0.2294-0.0347 0-0.4185-0.4275-0.85277-0.9501zm-24.94846-10.026c-1.55133-1.6406-2.82059-3.0408-2.82059-3.1117 0-0.071 1.11733 1.0502 2.48295 2.4911l2.48294 2.6198 2.75652-2.9949 2.75654-2.995 0.43047 0.4756 0.43049 0.4756-2.84937 3.0111-2.84936 3.0112zm-14.72673-3.6372-0.42503-0.4635 2.47054-2.6132 2.47053-2.6133 6.57801-6.8694c0.0774 0.061 1.65243-0.1323 0.86367 0.9275-1.67337 2.2481-6.53015 6.6592-6.51103 6.675 0.0465 0.038-4.79859 5.3054-4.95462 5.3858-0.0368 0.019-0.25831-0.174-0.49207-0.4289zm31.76022-2.5607c-1.1084-1.2219-1.96856-2.2215-1.91146-2.2215 0.18968 0 4.16103 4.2898 4.04284 4.3671-0.0639 0.041-1.02298-0.9239-2.13138-2.1456zm-11.29732-11.9848-2.9123-3.0797-2.85527 3.0153-2.85528 3.0154-0.86765-0.9513c-1.45924-1.5999-1.91124-2.1897-0.83102-1.0843l1.02261 1.0463 2.89148-3.0535 2.89146-3.0536 2.87425 3.1211 2.87422 3.1212 1.08496-1.1824c4.73072-5.1558 7.61342-11.4102 8.33417-18.0821 0.29714-2.7507 0.11229-7.1597-0.42309-10.0909-0.10532-0.5766-0.1915-1.0927-0.19151-1.1467s6.02692-0.098 13.39318-0.098h13.39318v1.0484h-26.06202l0.0685 0.3604c0.36819 1.9384 0.69049 5.5656 0.69336 7.8027 8e-3 6.0451-1.96865 12.3635-5.43998 17.3918-1.05304 1.5253-3.89368 4.98-4.09489 4.98-0.0419 0-1.38656-1.3859-2.98831-3.0798zm-11.6068-0.4914-0.23625-0.2949 0.27901 0.2496c0.15348 0.1373 0.27904 0.2701 0.27904 0.295 0 0.1048-0.0998 0.027-0.3218-0.2497zm-16.32924-3.0518c-2.4954-3.7055-4.71157-8.6328-5.96956-13.2726-0.18609-0.6863-0.18505-0.6959 0.0716-0.6552 0.21935 0.034 0.34395 0.331 0.78912 1.876 0.93652 3.2502 1.58537 5.0005 2.81771 7.6009 0.76396 1.6122 1.99699 3.8613 2.53253 4.6196 0.16545 0.2342 0.2689 0.4259 0.22992 0.4259-0.0389 0-0.25108-0.2676-0.47134-0.5946zm-17.07998-20.1114v-5.111h13.39321c7.57056 0 13.39318 0.05 13.39318 0.1147 0 0.063-0.0349 0.2989-0.0776 0.5242l-0.0774 0.4095h-25.8873v9.1736h-0.74407z" fill="#f9f9f9" fill-opacity=".349057"/>
  <g transform="translate(-.00886 94.281608)">
   <path d="m644.54747 1017.3311v-5.111h10.61807l0.16146-0.688c0.62786-2.6758 1.92036-6.2556 3.27637-9.0746 2.98196-6.19915 7.47117-11.58705 13.31957-15.98595 0.5627-0.4233 1.02309-0.804 1.02309-0.8462 0-0.043-1.0045-1.137-2.23219-2.4329-1.22773-1.296-2.23221-2.3997-2.23221-2.4529 0-0.053 1.14399-1.2859 2.54222-2.7394 1.39823-1.4537 2.54223-2.6847 2.54223-2.7356 0-0.051-0.28262-0.2782-0.62804-0.5052-0.81802-0.5373-3.69082-2.82-4.64242-3.6889-1.23329-1.126-3.75402-3.7945-4.70438-4.9801-4.05751-5.0624-6.62401-10.2892-8.44581-17.2005l-0.19862-0.7535h-10.64735v-10.2219h13.39319c7.36626 0 13.39319 0.015 13.39318 0.032-2e-5 0.018-0.0857 0.5045-0.19036 1.0812-0.90606 4.9905-0.80098 9.893 0.30919 14.4228 1.2164 4.9633 3.88399 9.8375 7.61983 13.9233l1.11422 1.2185 5.75692-6.0796 2.87879 3.099c1.58334 1.7045 2.9225 3.099 2.97593 3.099 0.13798 0 2.69114-3.0212 3.54394-4.1937 3.38323-4.6512 5.39022-10.0091 5.89079-15.726 0.18569-2.121 0.0694-5.5805-0.26462-7.8631-0.14236-0.9731-0.29072-1.9903-0.32973-2.2606l-0.0709-0.4915h26.69502v10.222h-10.61805l-0.16107 0.688c-0.0886 0.3784-0.41211 1.5137-0.71892 2.5228-2.88173 9.4778-8.50922 17.2765-16.69312 23.1333l-0.97073 0.6947 2.09022 2.2394c1.14961 1.2318 2.25097 2.4294 2.44749 2.6615l0.35726 0.422-2.08773 2.2304c-1.14826 1.2268-2.06393 2.2545-2.0348 2.2838 0.029 0.029 0.72259 0.5689 1.54106 1.1992 1.92118 1.4793 2.93676 2.3608 4.46545 3.8759 5.92749 5.8751 9.50523 12.20635 11.78499 20.85505l0.19863 0.7535h10.64737v10.222h-13.39321c-7.36627 0-13.39319-0.015-13.39318-0.032 1e-5 -0.018 0.0856-0.5047 0.19036-1.0812 0.90607-4.9907 0.80097-9.8931-0.30918-14.4228-1.03813-4.236-3.07457-8.3051-6.0416-12.07245-0.55766-0.7082-1.25782-1.5386-1.55592-1.8456l-0.54198-0.5581-2.54513 2.7204c-1.39978 1.4962-2.8623 3.07435-3.25 3.50675l-0.7049 0.7864-3.07093-3.33025c-1.68902-1.8315-3.12918-3.3058-3.2004-3.2762-0.21417 0.089-2.00802 2.2049-2.87891 3.3956-3.13582 4.28765-4.94654 8.69495-5.81463 14.15345-0.33781 2.1242-0.30187 7.05 0.0693 9.5012 0.15281 1.009 0.3098 2.0559 0.34888 2.3261l0.071 0.4915h-26.69506zm44.00215-39.53485c-1.52151-1.609-2.82309-2.9256-2.89246-2.9256-0.0694 0-1.38077 1.3269-2.91428 2.9487l-2.78818 2.9486 2.85123 3.0236 2.85123 3.0235 2.82942-3.0466 2.82943-3.0466z" fill="#ffd700"/>
   <path d="m644.53863 1022.0302v-0.4585h25.92305l-0.0589-0.295c-0.3848-1.9278-0.68992-5.4431-0.68992-7.9484 0-6.0678 1.97426-12.3226 5.46686-17.32015 0.84105-1.2035 2.46808-3.2391 3.07255-3.8442l0.37953-0.3799 0.44319 0.3572 0.44319 0.3573-0.7922 0.8744c-1.16962 1.2912-1.56183 1.7833-2.59236 3.2532-2.86069 4.07985-4.64221 8.53315-5.36577 13.41285-0.42492 2.8657-0.36685 7.3241 0.13399 10.2876 0.0975 0.5766 0.21221 1.299 0.25502 1.6053l0.0779 0.557h-26.69611zm55.97485-0.098c0.0412-0.1622 0.0755-0.3685 0.0764-0.4585 2e-3 -0.1301 2.6647-0.1639 12.89883-0.1639h12.89714v-9.3045h0.86811v10.2219h-26.81534zm14.71343-12.7119c-1.81453-6.3285-4.58241-11.7573-8.23495-16.15185-0.47927-0.5767-0.68678-0.8715-0.46114-0.6553 0.59551 0.5706 2.1911 2.5591 3.20737 3.997 2.49556 3.53085 4.66496 8.04635 6.01366 12.51695 0.64734 2.1457 0.64947 2.1609 0.30221 2.1609-0.26758 0-0.33601-0.1546-0.82715-1.8677zm-29.94374-10.4437-0.3533-0.3896 1.00189-1.15225c0.55103-0.6337 2.00991-2.2128 3.24195-3.5092l2.24002-2.357 6.40613-6.8654 0.83554 0.6295-6.4553 7.067-3.19725 3.4485c-1.75847 1.89665-3.23528 3.46425-3.28179 3.48335-0.0465 0.019-0.24356-0.1405-0.43789-0.3549zm12.98327-13.91505c-0.22167-0.1494-0.40302-0.3222-0.40302-0.3841 0-0.062 0.91732-1.1093 2.0385-2.3278l2.03852-2.2155 0.40709 0.4438 0.40708 0.4438-2.04256 2.1557-2.04258 2.1557zm-29.68549-3.8826c-0.15423-0.2078-0.14987-0.2125 0.0468-0.049 0.11937 0.099 0.21704 0.2021 0.21704 0.2293 0 0.1079-0.10187 0.038-0.26387-0.1799zm10.94432-0.6056-0.3938-0.4293 2.7882-2.9062c1.53352-1.5985 2.83449-2.9063 2.89108-2.9063 0.0566 0 0.27996 0.1621 0.49641 0.3604l0.39357 0.3603-2.89085 2.9753-2.89081 2.9752zm10.51605-0.836-0.30064-0.3603 0.34102 0.3177c0.18757 0.1747 0.34104 0.3368 0.34104 0.3604 0 0.1027-0.1004 0.019-0.38142-0.3178zm7.38726-4.4893c-0.21318-0.2352-0.31004-0.4379-0.24022-0.5027 0.0644-0.06 0.70294-0.5399 1.4191-1.0669 5.00416-3.6827 9.16986-8.3116 12.11232-13.459 0.98254-1.7187 2.4357-4.8542 3.11681-6.7249 0.54248-1.4901 1.63639-5.1278 1.63639-5.4419 0-0.1675 0.71407-0.1934 5.33247-0.1934h5.33249v-9.4356h0.86809v10.222l-10.60297 0.0016-0.53364 1.9975c-2.27438 8.5133-7.00355 15.9988-13.73797 21.745-1.44436 1.2324-4.08992 3.2519-4.26009 3.2519-0.047 0-0.24631-0.1773-0.44278-0.394zm-25.86159-1.2223c-0.58033-0.4444-1.47207-1.1528-1.98167-1.5741-0.96095-0.7945-4.06291-3.7265-4.3559-4.1173-0.27693-0.3693 0.78855 0.5612 1.32118 1.1539 0.59013 0.6567 2.90255 2.6216 4.46439 3.7933 1.44539 1.0845 1.82087 1.4128 1.70312 1.4898-0.0528 0.034-0.57079-0.301-1.15112-0.7456zm-7.3726-6.902c-0.19604-0.2163-0.32855-0.3931-0.29443-0.3931 0.0341 0 0.2224 0.1768 0.41843 0.3931 0.19604 0.2162 0.32853 0.3932 0.29444 0.3932-0.0341 0-0.22241-0.177-0.41844-0.3932zm13.19136-1.0157c-0.15424-0.2078-0.14988-0.2124 0.0468-0.049 0.20656 0.1711 0.27226 0.2787 0.17017 0.2787-0.0258 0-0.1234-0.1032-0.217-0.2293zm-1.45042-1.8463c-3.5021-4.6456-5.59986-9.7867-6.21143-15.223-0.34992-3.1102-0.2701-6.6526 0.21555-9.5667l0.20747-1.245 0.46503-0.041c0.25577-0.022 0.46504-0.022 0.46503 0s-0.0856 0.5125-0.19036 1.0891c-1.05032 5.7851-0.74815 11.5213 0.86424 16.4066 1.09742 3.3251 2.45232 5.976 4.49156 8.7879 0.43123 0.5947 0.75728 1.0812 0.72453 1.0812-0.0328 0-0.49697-0.5803-1.03162-1.2894zm-31.64473-16.2715v-0.393h4.94718c4.39678 0 4.95555 0.023 5.02245 0.2072 0.21703 0.5976 0.3761 0.579-4.94718 0.579h-5.02245z" fill-opacity=".235849"/>
   <path d="m644.41888 1017.3578v-5.0442l5.29603-0.034 5.29601-0.034 0.46587-1.7285c1.76338-6.5426 4.8724-12.4658 9.06675-17.27375 1.40339-1.6088 3.62122-3.8011 5.11159-5.0527 1.33982-1.1253 2.97062-2.3518 3.12697-2.3518 0.21142 0 0.83113 0.7845 0.71036 0.8992-0.0644 0.062-0.87035 0.7188-1.79114 1.4614-5.72089 4.6137-9.50057 9.26595-12.40232 15.26575-1.32525 2.7401-2.67855 6.4645-3.34523 9.2063l-0.13543 0.557h-10.65539v9.1736h-0.74407zm56.05598 4.4871c2e-3 -0.1622 0.0561-0.5308 0.12099-0.8191 0.58059-2.5782 0.75221-8.4185 0.32732-11.1393-0.5581-3.5742-1.48709-6.5682-2.94811-9.5012-0.34108-0.6848-0.50546-1.0976-0.36529-0.9174 0.52708 0.6775 2.33431 4.6977 2.84732 6.3338 1.47136 4.6925 1.82105 9.6331 1.05665 14.9292l-0.20331 1.4088h-0.41926c-0.35299 0-0.4188-0.046-0.41631-0.2948zm16.62666-9.2915c-0.0749-0.2269-0.13614-0.4333-0.13614-0.4587 0-0.025 2.31591-0.046 5.14647-0.046h5.14647v0.9173h-10.02064zm-7.71664-16.46005c-0.15426-0.2079-0.14987-0.2125 0.0468-0.05 0.20657 0.1713 0.27226 0.2789 0.17019 0.2789-0.0258 0-0.12341-0.1033-0.21702-0.2293zm-0.98571-1.245c-2.20641-2.655-4.35143-4.7385-7.2452-7.0378-1.02311-0.8128-1.8821-1.4993-1.90891-1.5253-0.0269-0.026 0.0449-0.085 0.15906-0.1316 0.14327-0.059 0.64803 0.2687 1.6254 1.0522 2.55576 2.049 5.12409 4.6056 6.97959 6.9476 0.5169 0.6525 1.02222 1.2896 1.12291 1.4156 0.1007 0.1262 0.15468 0.2294 0.11994 0.2294-0.0347 0-0.4185-0.4275-0.85277-0.9501zm-24.94846-10.026c-1.55133-1.6406-2.82059-3.0408-2.82059-3.1117 0-0.071 1.11733 1.0502 2.48295 2.4911l2.48294 2.6198 2.75652-2.9949 2.75654-2.995 0.43047 0.4756 0.43049 0.4756-2.84937 3.0111-2.84936 3.0112zm-14.72673-3.6372-0.42503-0.4635 2.47054-2.6132 2.47053-2.6133 6.57801-6.8694c0.0774 0.061 1.65243-0.1323 0.86367 0.9275-1.67337 2.2481-6.53015 6.6592-6.51103 6.675 0.0465 0.038-4.79859 5.3054-4.95462 5.3858-0.0368 0.019-0.25831-0.174-0.49207-0.4289zm31.76022-2.5607c-1.1084-1.2219-1.96856-2.2215-1.91146-2.2215 0.18968 0 4.16103 4.2898 4.04284 4.3671-0.0639 0.041-1.02298-0.9239-2.13138-2.1456zm-11.29732-11.9848-2.9123-3.0797-2.85527 3.0153-2.85528 3.0154-0.86765-0.9513c-1.45924-1.5999-1.91124-2.1897-0.83102-1.0843l1.02261 1.0463 2.89148-3.0535 2.89146-3.0536 2.87425 3.1211 2.87422 3.1212 1.08496-1.1824c4.73072-5.1558 7.61342-11.4102 8.33417-18.0821 0.29714-2.7507 0.11229-7.1597-0.42309-10.0909-0.10532-0.5766-0.1915-1.0927-0.19151-1.1467s6.02692-0.098 13.39318-0.098h13.39318v1.0484h-26.06202l0.0685 0.3604c0.36819 1.9384 0.69049 5.5656 0.69336 7.8027 8e-3 6.0451-1.96865 12.3635-5.43998 17.3918-1.05304 1.5253-3.89368 4.98-4.09489 4.98-0.0419 0-1.38656-1.3859-2.98831-3.0798zm-11.6068-0.4914-0.23625-0.2949 0.27901 0.2496c0.15348 0.1373 0.27904 0.2701 0.27904 0.295 0 0.1048-0.0998 0.027-0.3218-0.2497zm-16.32924-3.0518c-2.4954-3.7055-4.71157-8.6328-5.96956-13.2726-0.18609-0.6863-0.18505-0.6959 0.0716-0.6552 0.21935 0.034 0.34395 0.331 0.78912 1.876 0.93652 3.2502 1.58537 5.0005 2.81771 7.6009 0.76396 1.6122 1.99699 3.8613 2.53253 4.6196 0.16545 0.2342 0.2689 0.4259 0.22992 0.4259-0.0389 0-0.25108-0.2676-0.47134-0.5946zm-17.07998-20.1114v-5.111h13.39321c7.57056 0 13.39318 0.05 13.39318 0.1147 0 0.063-0.0349 0.2989-0.0776 0.5242l-0.0774 0.4095h-25.8873v9.1736h-0.74407z" fill="#f9f9f9" fill-opacity=".349057"/>
  </g>
  <path d="m754.27678 1017.3862v-5.111h10.61807l0.16146-0.688c0.62787-2.6758 1.92038-6.2556 3.27638-9.0746 2.98194-6.19915 7.47117-11.58705 13.31956-15.98605 0.56269-0.4232 1.02309-0.8039 1.02309-0.8461 0-0.043-1.00449-1.137-2.23221-2.4329-1.22771-1.296-2.2322-2.3997-2.2322-2.4529 0-0.053 1.14401-1.2859 2.54223-2.7395 1.39824-1.4536 2.54223-2.6846 2.54223-2.7355 0-0.051-0.28262-0.2782-0.62805-0.5052-0.818-0.5373-3.6908-2.8201-4.64243-3.6889-1.23327-1.126-3.75399-3.7945-4.70437-4.9801-4.05752-5.0624-6.624-10.2892-8.44579-17.2005l-0.19864-0.7535h-10.64734v-10.2219h13.39319c7.36626 0 13.3932 0.015 13.39319 0.032-2e-5 0.018-0.0857 0.5045-0.19037 1.0812-0.90606 4.9905-0.80097 9.893 0.30918 14.4228 1.21642 4.9633 3.88399 9.8375 7.61983 13.9232l1.11422 1.2186 2.87848-3.0398 2.87845-3.0398 2.8788 3.099c1.58332 1.7045 2.92248 3.099 2.97592 3.099 0.13798 0 2.69114-3.0213 3.54395-4.1937 3.38321-4.6512 5.39022-10.0091 5.89078-15.726 0.18569-2.121 0.0693-5.5805-0.26462-7.8631-0.14235-0.9731-0.29072-1.9903-0.32973-2.2606l-0.0709-0.4915h26.69503v10.222h-10.61804l-0.16109 0.688c-0.0886 0.3784-0.41209 1.5137-0.71892 2.5227-2.88172 9.4779-8.5092 17.2766-16.6931 23.1334l-0.97074 0.6947 2.09021 2.2394c1.14962 1.2318 2.25098 2.4293 2.44749 2.6615l0.35727 0.422-2.08774 2.2304c-1.14825 1.2268-2.06391 2.2545-2.03479 2.2838 0.029 0.029 0.72258 0.5689 1.54107 1.1992 1.92117 1.4792 2.93674 2.3607 4.46544 3.8759 5.92749 5.8751 9.50523 12.20625 11.78499 20.85495l0.19863 0.7536h10.64737v10.222h-13.39321c-7.36626 0-13.39319-0.015-13.39318-0.032 1e-5 -0.018 0.0856-0.5047 0.19036-1.0812 0.90607-4.9907 0.80098-9.8931-0.30918-14.4228-1.03815-4.236-3.07457-8.30525-6.04161-12.07245-0.55765-0.7082-1.25781-1.5386-1.55591-1.8456l-0.54198-0.5582-2.54512 2.7205c-1.3998 1.4962-2.86231 3.0743-3.25 3.5067l-0.70493 0.7863-3.0709-3.3301c-1.68903-1.8316-3.1292-3.3058-3.2004-3.2762-0.2142 0.089-2.00805 2.2049-2.87892 3.3956-3.13583 4.28755-4.94653 8.69495-5.81463 14.15345-0.33781 2.1242-0.30187 7.05 0.0693 9.5011 0.1528 1.0091 0.30981 2.056 0.34887 2.3262l0.071 0.4915h-26.69505v-5.111zm44.00216-39.53485c-1.52151-1.609-2.82312-2.9256-2.89247-2.9256-0.0694 0-1.38076 1.3269-2.91427 2.9487l-2.78818 2.9486 2.85122 3.0236 2.85123 3.0235 2.82943-3.0466 2.82942-3.0466z" fill="#ffd700"/>
  <path d="m754.26794 1022.0853v-0.4585h25.92303l-0.0588-0.295c-0.38481-1.9278-0.68993-5.4431-0.68993-7.9484 0-6.0678 1.97428-12.3226 5.46688-17.32015 0.84104-1.2035 2.46806-3.2391 3.07253-3.8442l0.37953-0.3799 0.44321 0.3572 0.44319 0.3573-0.7922 0.8744c-1.16962 1.2912-1.56183 1.7833-2.59236 3.2532-2.86069 4.07985-4.6422 8.53315-5.36577 13.41285-0.42491 2.8657-0.36684 7.3241 0.13398 10.2875 0.0975 0.5767 0.21221 1.2991 0.25502 1.6054l0.0779 0.557h-26.69612zm55.97486-0.098c0.0412-0.1622 0.0756-0.3685 0.0764-0.4585 2e-3 -0.1301 2.66471-0.1639 12.89886-0.1639h12.89714v-9.3045h0.86809v10.2219h-26.81534zm14.71342-12.7119c-1.81454-6.3285-4.5824-11.75735-8.23495-16.15195-0.47927-0.5766-0.68676-0.8714-0.46115-0.6553 0.59553 0.5707 2.1911 2.5592 3.20739 3.9971 2.49555 3.5309 4.66496 8.04625 6.01366 12.51685 0.64734 2.1458 0.64946 2.1609 0.30222 2.1609-0.26761 0-0.33601-0.1545-0.82717-1.8676zm-29.94373-10.44365-0.35331-0.3896 1.0019-1.1523c0.55102-0.6337 2.0099-2.2128 3.24194-3.5092l2.24003-2.357 6.40613-6.8654 0.83553 0.6295-6.4553 7.0669-3.19723 3.4486c-1.75849 1.8967-3.23529 3.4642-3.28181 3.4834-0.0465 0.019-0.24355-0.1405-0.43788-0.3549zm12.98327-13.9151c-0.22169-0.1494-0.40303-0.3222-0.40303-0.3841 0-0.062 0.91733-1.1093 2.0385-2.3279l2.03852-2.2154 0.40709 0.4438 0.40708 0.4438-2.04256 2.1557-2.04257 2.1557zm-29.6855-3.8827c-0.15425-0.2078-0.14985-0.2124 0.0468-0.049 0.11936 0.099 0.21702 0.2022 0.21702 0.2294 0 0.1079-0.10185 0.038-0.26385-0.1799zm10.94432-0.6055-0.39379-0.4293 2.78819-2.9063c1.53351-1.5985 2.83449-2.9062 2.89109-2.9062s0.27995 0.1621 0.49641 0.3604l0.39356 0.3603-2.89084 2.9753-2.89081 2.9751zm10.51606-0.836-0.30065-0.3604 0.34103 0.3178c0.18758 0.1747 0.34104 0.3368 0.34104 0.3603 0 0.1028-0.10039 0.019-0.38142-0.3177zm7.38725-4.4893c-0.21317-0.2352-0.31003-0.4379-0.24022-0.5027 0.0644-0.06 0.70294-0.5399 1.41911-1.0669 5.00415-3.6827 9.16986-8.3116 12.11232-13.459 0.98254-1.7188 2.43569-4.8542 3.11681-6.725 0.54249-1.49 1.63638-5.1277 1.63638-5.4418 0-0.1675 0.71408-0.1934 5.33249-0.1934h5.33248v-9.4357h0.86809v10.222l-5.3015 8e-4 -5.30147 8e-4 -0.53364 1.9976c-2.27437 8.5132-7.00355 15.9987-13.73798 21.745-1.44434 1.2324-4.0899 3.2519-4.26009 3.2519-0.047 0-0.24629-0.1774-0.44277-0.394zm-25.86158-1.2223c-0.58033-0.4445-1.47209-1.1528-1.98167-1.5741-0.96096-0.7945-4.06292-3.7265-4.35589-4.1173-0.27694-0.3694 0.78854 0.5612 1.32116 1.1539 0.59015 0.6567 2.90256 2.6216 4.46441 3.7933 1.44538 1.0844 1.82086 1.4128 1.7031 1.4898-0.0528 0.034-0.57078-0.3011-1.15111-0.7456zm-7.37261-6.902c-0.19603-0.2163-0.32853-0.3931-0.29442-0.3931 0.0341 0 0.22241 0.1768 0.41842 0.3931 0.19605 0.2162 0.32855 0.3932 0.29444 0.3932-0.0341 0-0.2224-0.177-0.41844-0.3932zm13.19137-1.0157c-0.15425-0.2078-0.14987-0.2124 0.0468-0.049 0.20658 0.1712 0.27228 0.2788 0.1702 0.2788-0.0258 0-0.12341-0.1032-0.21701-0.2293zm-1.45043-1.8463c-3.50208-4.6456-5.59986-9.7867-6.21142-15.223-0.34992-3.1102-0.2701-6.6526 0.21555-9.5667l0.20747-1.245 0.46504-0.041c0.25577-0.022 0.46502-0.022 0.46501 0s-0.0856 0.5125-0.19035 1.0891c-1.05033 5.7851-0.74815 11.5213 0.86425 16.4066 1.09742 3.3251 2.45231 5.976 4.49155 8.7879 0.43124 0.5946 0.75728 1.0812 0.72454 1.0812-0.0328 0-0.49697-0.5803-1.03163-1.2894zm-31.64472-16.2715v-0.393h4.94718c4.39678 0 4.95556 0.023 5.02245 0.2072 0.21701 0.5976 0.37611 0.579-4.94718 0.579h-5.02245z" fill-opacity=".235849"/>
  <path d="m754.14819 1017.4129v-5.0442l5.29602-0.034 5.29601-0.034 0.46587-1.7285c1.7634-6.5426 4.8724-12.46575 9.06678-17.27385 1.40338-1.6087 3.62122-3.801 5.11159-5.0526 1.3398-1.1253 2.9706-2.3518 3.12694-2.3518 0.21144 0 0.83114 0.7845 0.71037 0.8992-0.0644 0.062-0.87035 0.7188-1.79114 1.4614-5.72089 4.6137-9.50057 9.266-12.40232 15.26575-1.32526 2.7401-2.67856 6.4645-3.34524 9.2063l-0.13541 0.557h-10.6554v9.1736h-0.74407zm56.05599 4.4871c2e-3 -0.1622 0.0561-0.5308 0.12099-0.8191 0.58057-2.5782 0.7522-8.4185 0.32731-11.1393-0.55811-3.5742-1.4871-6.5682-2.94811-9.5012-0.34108-0.68475-0.50546-1.09755-0.36528-0.91735 0.52708 0.67745 2.3343 4.69765 2.84731 6.33375 1.47136 4.6925 1.82104 9.6331 1.05666 14.9292l-0.20333 1.4088h-0.41925c-0.353 0-0.4188-0.046-0.4163-0.2948zm16.62665-9.2915c-0.0749-0.2269-0.13612-0.4334-0.13612-0.4587 0-0.025 2.31588-0.046 5.14644-0.046h5.14647v0.9173h-10.02064zm-7.71663-16.46005c-0.15426-0.2079-0.14989-0.2125 0.0468-0.05 0.20657 0.1713 0.27228 0.2789 0.17018 0.2789-0.0258 0-0.12339-0.1033-0.21701-0.2293zm-0.98572-1.245c-2.2064-2.655-4.35142-4.7385-7.24519-7.0378-1.02311-0.8129-1.88211-1.4993-1.90893-1.5253-0.0268-0.026 0.0449-0.085 0.15908-0.1316 0.14327-0.059 0.64801 0.2686 1.6254 1.0522 2.55577 2.049 5.12409 4.6056 6.9796 6.9476 0.51688 0.6525 1.0222 1.2896 1.12291 1.4156 0.1007 0.1262 0.15468 0.2294 0.11993 0.2294-0.0347 0-0.4185-0.4275-0.85278-0.9501zm-24.94844-10.026c-1.55134-1.6406-2.8206-3.0408-2.8206-3.1117 0-0.071 1.11733 1.0502 2.48293 2.4911l2.48295 2.6198 2.75653-2.9949 2.75652-2.995 0.43049 0.4756 0.43048 0.4756-2.84937 3.0111-2.84937 3.0112zm-14.72676-3.6372-0.42502-0.4635 2.47053-2.6132 2.47054-2.6133 6.578-6.8694c0.0774 0.061 1.65244-0.1323 0.86367 0.9274-1.67337 2.2482-6.53013 6.6593-6.51102 6.6751 0.0465 0.038-4.79859 5.3054-4.95462 5.3858-0.0368 0.019-0.25831-0.174-0.49208-0.4289zm31.76021-2.5607c-1.10838-1.2219-1.96853-2.2215-1.91142-2.2215 0.18967 0 4.16102 4.2898 4.0428 4.3671-0.0638 0.041-1.02296-0.9239-2.13138-2.1456zm-11.29731-11.9848-2.91228-3.0797-2.85528 3.0153-2.85528 3.0154-0.86764-0.9513c-1.45925-1.5999-1.91125-2.1897-0.83102-1.0844l1.02261 1.0464 2.89147-3.0536 2.89147-3.0535 2.87423 3.1211 2.87424 3.1212 1.08495-1.1824c4.73071-5.1558 7.61343-11.4102 8.33418-18.0821 0.29713-2.7507 0.11228-7.1597-0.4231-10.0909-0.10534-0.5766-0.19151-1.0927-0.19152-1.1467-2e-5 -0.054 6.02692-0.098 13.39318-0.098h13.39318v1.0484h-26.06201l0.0685 0.3604c0.3682 1.9384 0.69051 5.5656 0.69336 7.8027 8e-3 6.0451-1.96866 12.3635-5.43998 17.3918-1.05301 1.5253-3.89369 4.9799-4.09489 4.9799-0.0419 0-1.38655-1.3858-2.9883-3.0797zm-11.6068-0.4914-0.23624-0.2949 0.27902 0.2496c0.15347 0.1373 0.27903 0.2701 0.27903 0.295 0 0.1048-0.0998 0.027-0.32181-0.2497zm-16.32924-3.0518c-2.49539-3.7055-4.71156-8.6328-5.96955-13.2726-0.18609-0.6863-0.18505-0.6959 0.0716-0.6552 0.21935 0.034 0.34395 0.331 0.78914 1.8759 0.93651 3.2503 1.58536 5.0006 2.8177 7.601 0.76395 1.6121 1.99699 3.8613 2.53253 4.6196 0.16544 0.2342 0.2689 0.4259 0.22992 0.4259-0.039 0-0.25107-0.2676-0.47135-0.5946zm-17.07997-20.1114v-5.111h13.3932c7.57057 0 13.3932 0.05 13.3932 0.1147 0 0.063-0.0349 0.2989-0.0775 0.5242l-0.0774 0.4095h-25.88731v9.1736h-0.74408z" fill="#f9f9f9" fill-opacity=".349057"/>
  <path d="m592.14394 736.74545c-0.15143-0.1539-12.6233 14.7245-12.5055 14.9186 0.0576 0.094 3.31502 2.8198 7.23908 6.0562l7.13444 5.8845 4.27909-3.4576c2.35259-1.9017 5.71071-4.6118 7.4642-6.0227 1.75331-1.411 3.14438-2.6122 3.08837-2.6678-0.0556-0.057-1.47919 0.068-3.16341 0.2745-3.68597 0.4535-4.8182 0.3333-5.7423-0.6062-0.64543-0.6563-0.66189-0.7198-0.54105-2.344 0.0862-1.1587 0.36647-2.2808 0.91228-3.6629 0.4327-1.0956 0.75883-2.0193 0.72668-2.0517-0.0322-0.032-0.72473 0.3022-1.54024 0.7425-1.90124 1.0264-4.3948 1.9115-5.38489 1.9115-2.51854 0-3.30321-2.4594-2.2669-7.1009 0.21802-0.976 0.35343-1.8194 0.30015-1.874z" fill="#ffd700" stop-color="#000000"/>
  <path d="m807.69948 734.69375c-0.0296-0.03-2.89365 3.3183-6.36433 7.4405-5.82246 6.9153-6.28355 7.5238-5.94964 7.8632 0.19903 0.2023 3.39427 2.883 7.09889 5.9575 3.70444 3.0743 6.8442 5.5999 6.97845 5.61 0.13424 0.011 3.58543-2.6841 7.66956-5.9872 6.21178-5.0241 7.32094-6.0111 6.779-6.001-0.35634 0-1.85204 0.1485-3.32335 0.3239-3.89539 0.4642-5.20113 0.1011-5.65542-1.5718-0.28053-1.0327 0.0913-3.0858 0.95376-5.2724 0.40577-1.0285 0.70043-1.87 0.65362-1.87-0.0465 0-0.86126 0.3937-1.8088 0.8749-4.40858 2.2384-6.6836 2.3105-7.49974 0.2368-0.4661-1.1845-0.43978-2.8023 0.0889-5.4065 0.239-1.1784 0.40947-2.1686 0.37914-2.1979z" fill="#ffd700" stop-color="#000000"/>
  <path d="m564.43065 780.46215c0.76965-0.6969-1.1768-3.695-2.86615-6.4752-2.70499-3.9446-5.84056-6.6856-9.39478-8.2558 2.85174 2.7149 5.75888 5.2768 7.1654 11.979-4.29556-3.2244-8.70828-5.1389-13.21629-5.9896-5.16122-2.59-7.45657-5.18-9.71296-7.7704 3.01354-4.0661-1.3501-12.1976-5.73241-7.1225-4.84063-6.0733-9.71435 0.2972-6.84691 3.7232-5.75749-0.585-3.91817 7.9708 0.79602 6.8799 1.11754 0.1094 2.61577 0.01 1.08162 1.5712-1.57974 0.9813-1.9087 4.9013 2.89923 4.1755 7.03106-2.0193 10.96393 4.0041 4.61772 9.0655 3.37199 0.3271 5.75336-1.3605 7.64321-4.0472 2.33348 3.0766 0.13461 8.0729-2.54787 13.2743 3.226-1.8423 6.20619-4.0061 7.96169-7.7703 1.19316-2.0629 3.17665-1.5399 3.0254 0 0.85051 2.8307 0.61555 6.3003-2.54768 11.4935 3.42521-1.3743 5.44021-4.1821 7.64321-6.799 11.05748 3.8481 13.07625-1.8423 10.03155-7.9321z" fill="#008000"/>
  <path d="m524.01152 760.32895c2.43576 1.787 4.03635 4.4037 0.61932 6.9253 0.48379 0.4098 2.76508 0.089 1.23838 1.3163 3.66419-3.8676 7.84848 1.4339 5.40464 4.0635 2.96778 0.1877 6.11558 0.8401 5.29189-8.7567-8.56658 2.5054-7.38049-4.064-5.686-7.0397-1.41985 2.1352-3.82197 5.1279-6.86823 3.4913z" fill-opacity=".174528"/>
  <path d="m568.14833 785.33995c-4.6315 3.201-9.22285 6.4632-12.38524 11.9046-2.84696-0.3161-4.61478 1.0133-5.96756 2.976-1.26822 2.2252-5.77246 2.4355-9.12001 1.6026 1.88195 1.882 4.09635 2.8143 6.98078 1.8314-0.86705 4.9412-3.71418 6.9601-9.23267 5.0366-3.73394-6.4543-12.55423 0.3469-3.82822 5.6089-2.17756 3.9031 6.07019 10.0958 7.88156 1.3735h2.58966c1.22017 6.4779 12.85213 0.9701 4.95412-2.9761-0.0101-0.6106-0.0977-1.2209 2.81488-1.8314 0.53736 1.8449 2.32596 2.1867 4.50369 2.0605-2.11029-2.322-2.2019-4.7373-1.01334-7.2116 3.02136-1.9271 5.11475 0.8634 7.43132 2.5184 1.18783-3.5015-0.0726-5.3433-2.4771-6.4103l3.82822-3.2048c2.68292 0.9386 5.174 2.4872 9.00746-0.2291-4.22517 0.8746-6.12541-2.4957-4.27857-4.5787 6.70982-1.2633 6.48699-11.7784-1.68898-8.4705z" fill="#008000"/>
  <path d="m534.42652 814.01375c2.66014-1.1036 2.85587-3.9215 2.70223-6.9823l1.35112 1.5453c3.6505 1.5991 4.61707 0.6519 6.13634 0.2288 0.5266 0.2103 1.93239-1.4793 0.22889 3.5482-0.36884 1.3249-0.15437 2.4124 0.22153 3.4344l-2.58966-0.1146c-1.2629-4.7958-5.80518-2.9073-8.05045-1.6598z" fill-opacity=".212264"/>
  <path d="m592.13098 815.10135c-12.79396-1.8101-26.82768-5.3847-29.49967 7.2114-4.42218 2.3647-9.10863 4.2517-10.92166 11.3322 2.88085-3.7163 6.95451-6.7077 10.13354-6.1812-0.66563 3.8992-0.3783 9.5682 9.45789 7.8981 2.28479 8.4717-7.25544 13.4953-14.86244 14.9952-2.88987-4.4222-9.73337-5.269-9.79567 0.9158-4.2849 2.5579-0.0331 9.0036 4.67257 5.9523-0.40449 3.7339 3.98433 6.1995 9.17644 1.259 1.96263 3.1207 11.06345 3.212 8.44474-4.0064l5.96737-3.2049c0.51476 3.5701-0.17725 6.1592-1.9142 7.898 3.56919-0.1126 3.93858-5.7854 4.84164-10.5308 1.50834 2.992 3.67992 5.085 7.43123 5.0365-4.24925-1.6423-3.88896-4.4938-3.603-7.3258 0.8823-2.6997-0.17027-4.4158-1.35112-6.0668 4.243 1.0746 7.67306-0.3307 9.79567-5.7233-4.59034 4.9469-11.02246 3.6291-13.51133-1.4879-3.22985-4.7208 0.93064-12.3166 8.44456-10.3021 1.96493 2.2239-0.0469 5.4993-3.26523 6.1812 4.06135 0.9998 5.63345-2.2829 6.98089-5.9523 2.69928 0.9401 5.38782 1.9783 8.29322 1.0327z" fill="#008000"/>
  <path d="m546.69929 851.10105c5.39307-1.7394 6.65312 3.7505 4.72882 5.9523 2.48849-3.4572 7.31617-4.1538 9.23285 1.4308-0.78912-3.1367 2.27643-4.5134 5.8548-3.7774-2.12728-0.8775-4.94115-0.9795-8.28485-0.7187-1.85319 0.1447-4.51775-2.1438-1.79227-3.5164-3.6393-4.9769-9.38154-4.9083-9.73935 0.6294z" fill-opacity=".193396"/>
  <path d="m577.66264 813.15545c8.23726 1.3566 7.76175 6.2016 1.126 10.359 2.37556-1.5606 4.44671-1.1114 6.53036-0.7438 0.78554 1.724 0.99321 4.9973-3.54669 6.2956 4.08542 1.0023 5.66644-2.4884 7.26243-5.9523 3.86699 1.6454 6.00062 1.3816 8.10668 1.0875l-4.95412-8.9857c-4.41281-0.766-8.53358-1.5862-14.52466-2.0603z" fill-opacity=".122642"/>
  <path d="m611.88166 845.06865c-2.69194 1.6759-5.29291 3.4329-9.63349 3.6425-4.1206-6.5638-9.11203-3.2233-9.71317 0.7283-3.39772 3.0871-1.55307 8.8772 4.9363 5.8278-0.0368 6.875 6.66671 4.7612 8.59856 1.8617 5.17336 3.7415 11.11215 1.6443 8.83729-4.1281z" fill="#008000"/>
  <path d="m592.9191 849.31155c5.39316-1.7393 6.65321 3.7504 4.72899 5.9524 2.48841-3.4573 7.31609-4.154 9.23277 1.4307-0.78904-3.1366 2.27652-4.5134 5.85481-3.7773-2.12739-0.8775-4.94107-0.9796-8.28486-0.7187-1.85319 0.1447-4.51775-2.1438-1.79228-3.5165-3.6392-4.977-9.38163-4.9084-9.73943 0.6294z" fill="#006700"/>
  <g fill="#008000">
   <g>
    <path d="m623.60109 838.28075c0.87239 0.034 1.59701-0.4165 3.49035 2.9763 2.04744 3.1669 4.41888 1.891 6.75576 1.0874-5.02092 4.633-11.63949 2.1806-10.24611-4.0637z"/>
    <path d="m620.80118 834.38695c0.80678-0.3388 1.28018-1.0561 4.39334 1.2237 3.16093 2.0095 4.79202-0.1558 6.58585-1.8776-2.66125 6.3405-9.68247 6.9195-10.97919 0.6539z"/>
    <path d="m617.52778 831.20535c0.66233-0.5779 0.89168-1.4098 4.54963-0.2321 3.61982 0.9053 4.50452-1.6696 5.67948-3.8749-0.58036 6.8683-7.07222 9.6475-10.22911 4.107z"/>
    <path d="m624.9591 841.90825c0.53957 0.6978 1.34698 0.9666 0.0322 4.6311-1.04586 3.6377 1.4464 4.647 3.56285 5.9356-6.72461-0.8854-9.1758-7.5992-3.59492-10.5667z"/>
    <path d="m571.18853 793.12375c1.61923 4.4167 5.80233 9.0938 11.66356 13.9417 1.98358 1.1596 5.76961 4.1833 6.91444 8.2649 3.33689 12.6452 8.28081 22.3342 19.92913 19.6883 1.73355-0.043 6.0076 4.4397 2.22606 10.1147l-0.95563 3.5209 4.02072 5.5039c9.60851-3.5561 13.01947-16.4251 4.06034-22.9465l-8.20024-1.1333c-1.84859-8.5746-4.54209-17.1516-10.51993-23.1951-6.89028-6.9663-11.3958-13.2814-13.2058-19.7032z"/>
   </g>
   <path d="m605.07674 818.69215c-0.0625-0.4147-0.154-1.2142-0.20279-1.7765l-0.0892-1.0224 1.80752-0.36c2.41526-0.4814 4.21625-1.4028 5.70521-2.919 1.76258-1.7947 2.30012-3.0376 2.41158-5.5744 0.15593-3.5422-0.69449-6.1209-3.94317-11.9575-3.05793-5.4934-3.89667-8.2684-3.91634-12.9523-0.011-2.4866 0.078-3.4915 0.4123-4.6461 1.35966-4.7062 4.45627-7.7791 7.8222-7.7625 2.71528 0.013 6.02902 0.2595 6.92483 0.5144 1.44604 0.4117 2.97018 1.7336 3.82014 3.3138 1.0522 1.9556 1.39504 3.8836 1.4056 7.9006 0.011 4.1626 0.29965 5.0755 1.83049 5.7817 1.18986 0.5491 3.47878 0.5909 5.35016 0.098 0.73629-0.1939 1.38263-0.3081 1.43611-0.2536 0.1654 0.1678-2.41719 2.149-3.73165 2.8627-3.58573 1.9468-6.69006 1.7584-9.00746-0.5466-2.0025-1.9922-2.73559-4.0493-3.66016-10.2746-0.317-2.1326-1.06975-3.615-2.40552-4.737-1.47406-1.238-1.51036-1.2525-2.459-0.9928-1.76994 0.4846-3.55899 3.117-4.09819 6.0308-0.3262 1.7618-0.11146 5.2163 0.45025 7.25 0.57761 2.09 1.45724 4.0537 3.158 7.0486 2.84621 5.0132 3.97854 8.2459 4.15754 11.8691 0.14306 2.8936-0.13839 4.425-1.21614 6.615-1.8587 3.7772-5.70851 6.2809-10.91431 7.0982-0.92338 0.145-0.93532 0.138-1.04816-0.6075z"/>
  </g>
  <path d="m569.76491 793.69585 18.23205-12.0197c-0.42995 4.042 1.88681 14.2559 6.52852 18.94-7.95149-7.4627-21.08653-5.486-10.58894 7.1228-6.52989-4.8024-11.66273-9.2407-14.17163-14.0431z" fill="#006500"/>
  <path d="m555.71282 797.29775c6.90507-7.3842 10.9938-1.0268 5.45352 4.6136l3.78182-3.1972c0.1281-2.2459 3.24014-7.3507 6.6341-7.3045 0.28761 0.01-1.69165 1.8372-1.84437 2.4178-0.0616 0.233 1.39945-0.48 1.53058-0.4492 1.71636-0.6271 1.45292-0.6466 2.09751-1.3797 5.36026-6.0956-3.81517-10.9392-8.13921-4.5351 1.19545-2.3643-0.0487-4.5379-0.68135-6.7594 0.66131-2.252-4.23179-12.5647-12.44158-14.9952 3.13364 3.1131 5.75327 6.8357 7.09335 12.0763-4.05812-3.1726-8.63559-4.8938-13.28611-6.4101 12.13265 3.5688 14.84187 17.4408 3.60291 12.3051 0.74384 4.535-0.62419 8.3191-2.87102 11.7901 2.88168-1.1422 5.43119-3.5516 7.71267-6.9826 3.14935 1.4017 5.93328 1.689 8.33199 0.8014-3.29747 2.8673-5.14441 5.4396-6.97481 8.0087z" fill="#006500"/>
  <path d="m569.1126 779.24515c-10.57378-0.2324-12.69207 8.1686-10.10754 15.2126 2.06628-3.3678 2.07325-8.8518 8.24287-8.0041-5.36431 2.6736-5.4312 10.0765 0.50648 13.5791-2.44246-4.1797-0.72877-9.0986 6.26876-7.2307 8.34118 1.8579 11.49091-1.8594 14.22813-9.6322-0.52155 4.9713 4.98894 11.3195 12.19724 7.8929-9.12122-2.7195-4.8035-9.4812-3.48372-11.3869 2.46865-3.6724 2.67328-7.3893-0.56392-11.1732 2.75341 2.6785 5.49552 3.0484 8.22964 1.7496-4.26653-0.2476-6.16152-5.0523-6.49324-8.738-2.50118-11.1312-22.52513-17.1631-21.18026-11.7631l-8.04099 2.9833c-0.32161 0.8634-1.39614 1.7265 1.09925 2.5913-2.75102 3.0236 2.16901 10.146 6.97749 3.4943l3.14439 0.2301c-0.5347 2.1185 1.49327 4.1 3.2938 6.0936-1.27265 2.7315-2.85486 5.2895-0.48627 10.0636-4.27736 0.3659-4.88134 2.1116-5.90616 3.6995-3.54521-14.1016-17.05379-10.868-7.92595 0.3383z" fill="#008000"/>
  <g>
   <path d="m579.93457 758.66295c0.62253 1.9465 1.76221 3.8981 4.77309 5.8674-1.03529 3.5489-2.0342 7.1005-0.28907 10.8529-2.96411 0.4228-5.80463 1.0357-7.4327 3.5137 0.42967-2.9828 2.95042-3.6401 6.00909-3.6991-2.62974-3.6575-1.96401-6.9749 0.47588-10.1088-4.03203-2.9013-3.71575-4.6454-3.53629-6.4261z" fill="#006500"/>
   <path d="m588.10594 766.79255c1.59728 0.7732 2.27274 1.9006 1.19499 3.7014-1.79612 2.4533-0.4926 4.8975 2.10193 5.4944-2.84539-1.6275-2.72364-3.6249-1.13408-5.8051 0.86494-1.6522-0.30864-3.1756-2.16284-3.3907z" fill="#006500"/>
   <path d="m584.7367 768.25725c1.75589 0.2218 2.74643 1.0752 2.28203 3.1296-0.94341 2.9041 1.05155 4.8055 3.69884 4.5402-3.20494-0.6323-3.70886-2.5668-2.87673-5.1452 0.30846-1.8452-1.27778-2.9148-3.10414-2.5246z" fill="#188c18"/>
   <path d="m593.00116 761.42305c1.67373 0.5826 2.4715 1.6242 1.60316 3.5384-1.50843 2.646 0.0616 4.9225 2.70581 5.214-3.00969-1.286-3.11306-3.2845-1.77913-5.635 0.67354-1.7419-0.66361-3.119-2.52984-3.1174z" fill="#006500"/>
   <path d="m589.81871 763.26975c1.76913 0.017 2.84907 0.7491 2.6189 2.8437-0.61096 2.9949 1.58487 4.6519 4.18502 4.081-3.25512-0.2558-3.97322-2.1191-3.43632-4.7773 0.099-1.869-1.5971-2.7471-3.3676-2.1474z" fill="#188c18"/>
   <path d="m594.16969 772.53375c1.36361 1.146 1.74825 2.4068 0.27097 3.8859-2.33027 1.9341-1.65242 4.6276 0.72049 5.8498-2.36895-2.2839-1.77177-4.1907 0.29276-5.911 1.23506-1.388 0.46246-3.1564-1.28422-3.8247z" fill="#006500"/>
   <path d="m590.55097 773.11895c1.64929 0.6505 2.40534 1.7237 1.4623 3.6009-1.61162 2.5823-0.13306 4.9212 2.49796 5.3204-2.95657-1.4081-2.9812-3.409-1.55556-5.7032 0.74181-1.7132-0.53994-3.1436-2.4047-3.2181z" fill="#188c18"/>
   <path d="m586.37597 776.31495c0.93707 1.7663 0.90951 3.294-0.95223 4.3684-2.8124 1.2563-3.00756 4.4668-1.13692 6.6925-1.53663-3.3903-0.37664-5.2619 2.11709-6.3824 1.60371-1.0644 1.42094-3.2941-0.0276-4.6785z" fill="#006500"/>
   <path d="m582.76094 775.61025c1.36223 1.3286 1.74558 2.7885 0.26674 4.499-2.33247 2.236-1.65764 5.3549 0.71397 6.7729-2.36657-2.6469-1.76727-4.8535 0.2991-6.8425 1.2369-1.6051 0.46605-3.6534-1.27981-4.4294z" fill="#188c18"/>
   <path d="m580.07029 781.13195c-0.0753 2.0053-0.8632 3.3069-3.00372 3.2705-3.05021-0.3711-4.82309 2.2933-4.32423 5.1765 0.37114-3.7136 2.30564-4.7265 5.01357-4.4032 1.9131-0.088 2.8703-2.1031 2.31438-4.0438z" fill="#006500"/>
   <path d="m577.30907 778.65735c0.50923 1.8481 0.10943 3.3035-2.01924 4.0127-3.12647 0.7207-4.10415 3.7557-2.77041 6.2022-0.71507-3.5023 0.904-5.0934 3.67789-5.7388 1.86744-0.7434 2.22745-2.9057 1.11176-4.4761z" fill="#188c18"/>
   <path d="m582.32713 786.14515c0.0459 2.0061-0.66214 3.3543-2.80072 3.4515-3.06694-0.1801-4.67571 2.5896-4.00401 5.4364 0.14638-3.7297 2.01638-4.8612 4.73855-4.7074 1.90419-0.2074 2.73816-2.278 2.06618-4.1805z" fill="#006500"/>
   <path d="m579.42183 783.84735c0.61978 1.8129 0.30856 3.2905-1.77324 4.131-3.07723 0.9142-3.87012 4.0046-2.39129 6.3631-0.92484-3.451 0.59516-5.1399 3.32487-5.957 1.81919-0.8586 2.04789-3.0392 0.83966-4.5371z" fill="#188c18"/>
   <path d="m571.16711 786.73145c0.27677 1.9869-0.2696 3.4104-2.38227 3.7624-3.06638 0.1877-4.34372 3.1305-3.34746 5.8773-0.28587-3.7214 1.44015-5.0686 4.16121-5.2412 1.86716-0.4334 2.45579-2.5895 1.56852-4.3985z" fill="#006500"/>
   <path d="m568.0161 784.79685c0.82515 1.7262 0.68705 3.2308-1.28321 4.3144-2.95005 1.2756-3.38007 4.4392-1.63881 6.6048-1.31757-3.3168-9e-3 -5.1756 2.61282-6.3133 1.70727-1.0699 1.68247-3.2629 0.3092-4.6059z" fill="#188c18"/>
   <path d="m570.67478 782.01295c-0.80135 1.834-2.0071 2.7463-3.98176 1.9062-2.6981-1.4934-5.3156 0.3135-5.90332 3.1793 1.69817-3.3096 3.86414-3.5216 6.26149-2.2013 1.80918 0.6387 3.43264-0.8722 3.62359-2.8842z" fill="#006500"/>
   <path d="m569.01189 778.67425c-0.2004 1.9084-1.10229 3.1097-3.3379 2.9665-3.16654-0.5081-5.181 1.9425-4.83366 4.7173 0.61224-3.5223 2.69598-4.3903 5.50755-3.9447 2.00554 0.013 3.12786-1.8602 2.66401-3.7391z" fill="#188c18"/>
  </g>
  <path d="m577.51999 752.30185c-0.48188 1.2101-0.14816 2.7241 0.54867 3.236 1.81767-1.5338 4.027-1.5987 6.11175-2.1313-2.00918-1.215-4.36154-1.9094-6.66047-1.1047z" fill="#fff"/>
  <ellipse transform="matrix(.94217535 -.33512029 .21336992 .97697148 0 0)" cx="407.53357" cy="911.16968" rx="1.0747405" ry="1.3763975" fill-rule="evenodd"/>
  <ellipse transform="matrix(.94217533 -.33512035 .21336993 .97697148 0 0)" cx="407.21747" cy="910.85583" rx=".33068937" ry=".44530511" fill="#fff" fill-rule="evenodd"/>
  <path d="m578.79167 748.76345c-1.89586 0.019-4.35101 3.2077-1.17138 3.4609 3.52806-0.7009 5.64197 0.5822 7.79686 1.8077-1.96494-1.4399-3.486-3.4239-7.27704-2.6257-1.46534 0.3488-2.1162-1.2947 0.65177-2.643z"/>
  <path d="m577.64133 756.79775c0.24891-2.0216 2.05653-1.851 3.76415-1.821-1.55817 0.2534-3.27154 0.3262-3.76415 1.821z" fill="#fff" fill-opacity=".462264"/>
  <path d="m548.47621 860.85925c0.4848-3.1181 2.98736-5.8347 6.14517-6.6709 1.08096-0.2863 1.31427-0.2857 1.86752 0.01 1.29636 0.6816 1.70847 2.0734 0.91061 3.0751-0.37628 0.4724-0.61188 0.5263-2.39634 0.5473-2.52488 0.028-3.9123 0.6044-5.32957 2.2072-0.5482 0.6196-0.99661 1.2627-0.99661 1.4288 0 0.1662-0.0845 0.3553-0.18828 0.4204-0.10374 0.066-0.10926-0.3907-0.0128-1.013zm11.51416 0.7985c-0.58238-0.1892-1.05883-0.3785-1.05883-0.4206 0-0.043 0.55914-0.082 1.24242-0.087 2.41113-0.022 4.50855-1.5699 5.88586-4.3436 0.75274-1.5161 1.3354-1.8427 2.37878-1.3341 0.7374 0.3594 1.18554 1.1656 1.19004 2.1415 9e-3 0.9862-1.3955 2.5358-3.15753 3.4942-1.25647 0.6835-1.62651 0.7734-3.41547 0.8304-1.33796 0.043-2.35903-0.051-3.06527-0.2799zm34.61781-0.9184c-0.0128-1.0052 0.71892-3.1127 1.45522-4.193 1.10522-1.6213 3.05149-2.9561 4.94272-3.3897 1.89913-0.4356 3.49825 1.7269 2.34313 3.1684-0.32987 0.4117-0.66526 0.4973-2.17331 0.5539-1.38273 0.053-2.06711 0.2047-3.04553 0.6783-1.34257 0.6502-2.70664 1.9982-3.20835 3.1709l-0.30516 0.7126-9e-3 -0.7014zm12.02936 0.1348c-0.54269-0.1766-0.53928-0.182 0.1235-0.2039 1.033-0.034 2.90291-1.0848 3.77538-2.121 0.82378-0.9786 1.52038-2.6124 1.77362-4.1611 0.15612-0.9531 0.72343-1.4461 1.66436-1.4461 0.63044 0 1.52212 0.8348 1.79741 1.6828 0.32437 0.9994-0.24745 2.3034-1.67336 3.8163-1.93368 2.0517-5.2805 3.1432-7.46091 2.433zm-66.74849-3.3021c0.7726-3.2537 3.88859-5.9255 7.18037-6.1566 1.41828-0.099 1.52716-0.072 2.09328 0.5407 0.84243 0.9114 0.95527 1.6249 0.40137 2.5368l-0.46008 0.7579-1.38374-0.1906c-3.29204-0.4532-5.29556 0.1304-6.97802 2.0328-0.93579 1.058-0.9991 1.0935-0.85318 0.479zm48.02493-0.6795c-9e-3 -3.131 2.47416-6.5226 5.48596-7.4978 1.34111-0.4341 2.02586-0.31 2.83658 0.514 0.71341 0.7252 0.76588 1.6147 0.14279 2.42-0.38602 0.499-0.62447 0.5811-1.68725 0.5811-2.7422 0-5.20928 1.4846-6.25294 3.7631l-0.52293 1.1417v-0.9221zm-1.11679-5.8501c0-0.092 0.26693-0.7419 0.59332-1.4431 1.20822-2.5966 3.99517-4.5249 6.87998-4.7602 1.69238-0.1381 2.41462 0.2192 2.91779 1.4435 0.28614 0.6962 0.28164 0.871-0.0404 1.5603-0.46881 1.0046-0.90444 1.123-2.44954 0.6665-2.69148-0.7956-5.57077-0.066-7.14995 1.8086-0.4133 0.491-0.75154 0.8169-0.75154 0.7244zm-46.67915-1.4853c0.66361-1.1515 2.43695-2.7113 3.808-3.3493 1.47451-0.6865 3.73908-0.92 5.15121-0.5318 1.67769 0.4615 2.38549 2.4148 1.28183 3.537-0.69145 0.7027-1.01306 0.6969-2.55218-0.047-2.25253-1.0875-5.16811-0.9807-6.82081 0.2499-1.21162 0.9021-1.31702 0.9191-0.86805 0.1402zm8.83837-24.9286c-2.45909-1.8109-3.81305-5.4019-3.18904-8.4578 0.21906-1.0722 0.38335-1.3596 0.99909-1.7464 1.25426-0.7882 2.38761-0.5486 3.00822 0.6355 0.24341 0.4643 0.1937 0.695-0.39007 1.813-1.47038 2.8162-1.35938 5.5294 0.32372 7.9102 0.47589 0.6731 0.33144 0.6435-0.75192-0.1545zm-17.98716-1.517c-0.19407-1.163 0.20739-3.5014 0.81008-4.7186 0.73464-1.4837 1.92156-2.8126 3.15322-3.5308 1.2969-0.7562 1.88691-0.8255 2.82554-0.3319 0.77378 0.4067 1.11018 0.9747 1.11018 1.8739 0 0.8423-0.5379 1.3122-1.708 1.4926-1.91466 0.2949-3.87389 1.5114-4.98159 3.0929-0.24268 0.3465-0.57899 1.1759-0.74732 1.8433l-0.30618 1.2135zm-5.1922-8.9353c0.30323-3.2262 3.30336-6.5392 6.46025-7.1338 1.86311-0.3509 3.31705 1.7245 2.27127 3.2423-0.30046 0.4361-0.54948 0.5037-1.85438 0.5037-2.91982 0-5.03957 1.0887-6.28125 3.2262l-0.69311 1.1932 0.0973-1.0316zm53.36894-40.8807c-4.60283-5.0322-8.38593-7.1376-14.24745-7.9292-3.09303-0.4178-4.48383-0.829-6.63584-1.9625-2.38329-1.2552-3.84081-2.6307-4.72753-4.462-0.63292-1.307-0.73417-1.7509-0.73417-3.2204 0-1.4411 0.10732-1.9322 0.69412-3.1776 1.52367-3.2341 4.78853-5.0936 7.59496-4.3254 1.1383 0.3116 2.86873 1.4861 3.56294 2.4182l0.52082 0.6991-1.74118-0.1025c-1.45642-0.086-1.8905-0.025-2.65418 0.3711-1.67557 0.8689-2.4068 2.3556-2.24921 4.5722 0.11761 1.6518 0.95719 3.1072 2.55731 4.4336 1.40019 1.1602 2.96881 1.7781 6.04925 2.3824 1.29221 0.2535 2.84226 0.6513 3.44468 0.884 3.04983 1.1782 5.88484 3.5515 10.25446 8.5846 2.55089 2.9384 2.64132 3.1881 1.15622 3.1957-0.58082 0-1.00341-0.3479-2.8452-2.3613zm-56.49118 0.086c-1.49557-0.3003-2.75479-0.9681-4.0256-2.1354-0.64863-0.5958-1.14593-1.117-1.10522-1.1582 0.0404-0.042 0.57117 0.1723 1.17901 0.475 0.78931 0.3928 1.48748 0.552 2.44264 0.5561 1.7829 0.01 2.67806-0.2726 4.32257-1.3532 1.60096-1.0519 2.07216-1.1102 2.82123-0.3486 0.96198 0.9779 0.5483 2.9693-0.72407 3.4859-1.64644 0.6683-3.20605 0.8203-4.91056 0.4784zm-8.65288-8.7942c0.59397-1.1869 2.25033-2.7288 3.64454-3.3931 1.11947-0.5335 1.54307-0.6053 3.57333-0.6053h2.30325l0.65047 0.7401c0.8428 0.959 0.8835 2.103 0.10328 2.8962-0.70303 0.715-0.88138 0.7031-2.71592-0.1802-2.64471-1.2733-5.48551-0.9611-7.40981 0.8142l-0.53001 0.4891zm19.93271-6.0404c-0.76487-0.4223-0.88643-0.7968-0.60057-1.8492 0.35569-1.3096 0.12157-4.0964-0.43656-5.1996-0.25959-0.5127-0.98108-1.3976-1.60353-1.9665l-1.13169-1.0345 0.84197 0.2355c3.23049 0.9033 5.69373 3.8822 6.00394 7.2612 0.13204 1.4367 0.13103 1.4401-0.68337 2.1672-0.88681 0.7915-1.48206 0.8876-2.39019 0.3859zm-8.7952-0.5111c-0.13314-0.091-0.50024-0.7454-0.81605-1.4527-1.12618-2.5232-3.07428-4.0713-5.54201-4.4041l-1.19068-0.1606 0.88589-0.321c0.59221-0.2145 1.51954-0.2927 2.79861-0.2359 2.35508 0.1044 4.02817 0.85 5.61094 2.5007 0.85454 0.8912 1.05872 1.2573 1.05872 1.8975 0 0.8679-0.3228 1.6302-0.87219 2.0591-0.39209 0.3059-1.55648 0.3765-1.93323 0.117z" fill="#a00"/>
  <path d="m780.64632 780.48625c0.76975-0.697-1.17671-3.6948-2.86615-6.4753-2.70518-3.9445-5.84057-6.6854-9.39468-8.2558 2.85154 2.715 5.75877 5.277 7.16548 11.9791-4.29574-3.2242-8.70845-5.1388-13.21628-5.9895-5.16141-2.59-7.45686-5.1801-9.71324-7.7703 3.01345-4.0663-1.35002-12.1976-5.73241-7.1227-4.84064-6.0732-9.71427 0.2973-6.84691 3.7231-5.7574-0.5849-3.91799 7.9709 0.7962 6.88 1.11735 0.1094 2.61558 0.01 1.08142 1.5712-1.57954 0.9814-1.90841 4.9014 2.89934 4.1756 7.03105-2.0193 10.96411 4.0042 4.61762 9.0654 3.37218 0.327 5.75345-1.3606 7.64321-4.0471 2.33358 3.0765 0.13471 8.073-2.54768 13.2743 3.22599-1.8423 6.20609-4.0061 7.96152-7.7703 1.19325-2.063 3.17673-1.5399 3.02538 0 0.85061 2.8307 0.61575 6.3002-2.54767 11.4935 3.42529-1.3742 5.44039-4.1821 7.64331-6.7991 11.05738 3.8482 13.07623-1.8424 10.03154-7.9321z" fill="#008000"/>
  <path d="m740.22719 760.35315c2.43576 1.7871 4.03634 4.4036 0.61932 6.9253 0.48369 0.4097 2.76499 0.089 1.23846 1.3163 3.66402-3.8675 7.8483 1.4339 5.40455 4.0636 2.9677 0.1875 6.11558 0.8399 5.2919-8.7567-8.56659 2.5052-7.38069-4.0642-5.68591-7.0399-1.41985 2.1352-3.82216 5.128-6.86832 3.4914z" fill-opacity=".174528"/>
  <path d="m784.36418 785.36415c-4.63159 3.2009-9.22302 6.4632-12.38552 11.9044-2.84686-0.316-4.61469 1.0135-5.96745 2.9763-1.26842 2.2253-5.77256 2.4354-9.12012 1.6024 1.88195 1.882 4.09635 2.8144 6.98088 1.8315-0.86705 4.941-3.7141 6.96-9.23277 5.0366-3.73394-6.4544-12.55413 0.3469-3.82822 5.6088-2.17746 3.9032 6.07018 10.096 7.88166 1.3737h2.58967c1.22017 6.4777 12.85204 0.9702 4.95412-2.9763-0.011-0.6104-0.0976-1.221 2.81488-1.8313 0.53736 1.8448 2.32585 2.1866 4.50368 2.0604-2.11029-2.322-2.20181-4.7372-1.01324-7.2115 3.02127-1.9271 5.11446 0.8633 7.43122 2.5183 1.18774-3.5014-0.0735-5.3431-2.4771-6.4102l3.82821-3.205c2.68294 0.9389 5.1741 2.4873 9.00747-0.229-4.22499 0.8749-6.12541-2.4957-4.27847-4.5785 6.70972-1.2635 6.4869-11.7785-1.6889-8.4706z" fill="#008000"/>
  <path d="m750.64209 814.03805c2.66024-1.1036 2.85586-3.9217 2.70232-6.9825l1.35121 1.5453c3.65033 1.5991 4.61708 0.6519 6.13625 0.2289 0.52652 0.2102 1.9324-1.4794 0.22889 3.5483-0.36892 1.3247-0.15445 2.4123 0.22155 3.4342l-2.58967-0.1144c-1.26281-4.7959-5.80509-2.9074-8.05055-1.6598z" fill-opacity=".212264"/>
  <path d="m808.34656 815.12555c-12.79386-1.8102-26.82749-5.3849-29.49958 7.2114-4.42209 2.3647-9.10872 4.2517-10.92157 11.3323 2.88077-3.7164 6.95442-6.7079 10.13336-6.1812-0.66536 3.8992-0.3783 9.5681 9.4579 7.8981 2.28478 8.4717-7.25535 13.495-14.86236 14.9951-2.88986-4.4222-9.73338-5.2691-9.79577 0.9157-4.28462 2.558-0.034 9.0036 4.67277 5.9524-0.40468 3.7339 3.98415 6.1995 9.17635 1.259 1.96272 3.1206 11.06344 3.2121 8.44456-4.0063l5.96745-3.2051c0.51475 3.5704-0.17706 6.1591-1.91402 7.8982 3.5691-0.1127 3.93839-5.7856 4.84147-10.5308 1.50833 2.9918 3.67981 5.085 7.43131 5.0364-4.24915-1.6423-3.88886-4.4938-3.60301-7.3259 0.88231-2.6996-0.17035-4.4157-1.3512-6.0667 4.2431 1.0745 7.67298-0.3308 9.79576-5.7234-4.59015 4.947-11.02246 3.629-13.51133-1.488-3.22984-4.7208 0.93064-12.3165 8.44457-10.3019 1.96501 2.2237-0.0478 5.4993-3.26523 6.1812 4.06143 0.9997 5.63353-2.283 6.98079-5.9524 2.69929 0.9402 5.38792 1.9785 8.29331 1.0326z" fill="#008000"/>
  <path d="m762.91487 851.12525c5.39316-1.7394 6.65331 3.7505 4.72899 5.9524 2.48842-3.4574 7.316-4.154 9.23278 1.4307-0.78914-3.1367 2.27642-4.5134 5.8548-3.7775-2.12739-0.8774-4.94098-0.9796-8.28486-0.7185-1.85319 0.1446-4.51765-2.1439-1.79227-3.5166-3.6393-4.9768-9.38163-4.9084-9.73944 0.6295z" fill-opacity=".193396"/>
  <path d="m793.87832 813.17955c8.23726 1.3567 7.76174 6.2016 1.1259 10.3591 2.37548-1.5606 4.4469-1.1115 6.53044-0.7438 0.78537 1.724 0.99322 4.9972-3.54667 6.2955 4.0855 1.0026 5.66634-2.4884 7.26233-5.9523 3.867 1.6455 6.00072 1.3817 8.1067 1.0875l-4.95412-8.9855c-4.41272-0.7661-8.53342-1.5862-14.52458-2.0605z" fill-opacity=".122642"/>
  <path d="m828.09734 845.09275c-2.69203 1.676-5.293 3.4329-9.63349 3.6424-4.12079-6.5636-9.11204-3.2232-9.71316 0.7285-3.39773 3.087-1.55318 8.8772 4.9362 5.8277-0.0368 6.8751 6.66681 4.7613 8.59857 1.8617 5.17345 3.7415 11.11224 1.6443 8.83746-4.1281z" fill="#008000"/>
  <path d="m809.13478 849.33585c5.39316-1.7395 6.65331 3.7504 4.72899 5.9522 2.48832-3.4573 7.31609-4.1539 9.23268 1.4309-0.78904-3.1367 2.27652-4.5134 5.85508-3.7774-2.12747-0.8777-4.94117-0.9797-8.28496-0.7187-1.85328 0.1446-4.51783-2.1437-1.79244-3.5166-3.63921-4.9768-9.38163-4.9083-9.73935 0.6296z" fill="#006700"/>
  <g fill="#008000">
   <g>
    <path d="m839.81677 838.30495c0.87229 0.034 1.59692-0.4165 3.49026 2.9762 2.04763 3.167 4.41887 1.8911 6.75586 1.0874-5.02102 4.6331-11.63931 2.1807-10.24612-4.0636z"/>
    <path d="m837.01678 834.41105c0.80686-0.3387 1.28036-1.0562 4.39332 1.2239 3.16094 2.0094 4.79213-0.156 6.58605-1.8778-2.66125 6.3406-9.68256 6.9195-10.97937 0.6539z"/>
    <path d="m833.74337 831.22955c0.66233-0.5779 0.89177-1.4097 4.54982-0.2323 3.61982 0.9054 4.50423-1.6696 5.67939-3.8748-0.58027 6.8684-7.07231 9.6477-10.22921 4.1071z"/>
    <path d="m841.17487 841.93245c0.53938 0.6978 1.3469 0.9666 0.0322 4.631-1.04596 3.6376 1.4464 4.6471 3.56276 5.9357-6.72452-0.8855-9.1758-7.5993-3.59483-10.5667z"/>
    <path d="m787.4041 793.14795c1.61934 4.4166 5.80243 9.0938 11.66376 13.9415 1.98338 1.1598 5.76943 4.1834 6.91435 8.265 3.33708 12.6452 8.28091 22.3343 19.92921 19.6883 1.73337-0.042 6.00753 4.4399 2.2258 10.1148l-0.95535 3.5209 4.02063 5.504c9.6085-3.5561 13.01955-16.4253 4.06032-22.9467l-8.20022-1.1332c-1.8486-8.5746-4.54219-17.1516-10.51984-23.1951-6.89047-6.9664-11.3959-13.2815-13.20581-19.7031z"/>
   </g>
   <path d="m821.29243 818.71635c-0.0634-0.4148-0.15401-1.2141-0.2028-1.7767l-0.0892-1.0222 1.80734-0.3601c2.41536-0.4814 4.21636-1.4028 5.70539-2.919 1.76241-1.7946 2.30004-3.0375 2.41159-5.5743 0.15575-3.5422-0.69476-6.121-3.94335-11.9576-3.05792-5.4934-3.89668-8.2683-3.91625-12.9522-0.0119-2.4868 0.0781-3.4916 0.41239-4.6459 1.35957-4.7062 4.45619-7.7795 7.82221-7.7629 2.7151 0.013 6.02892 0.2597 6.92465 0.5144 1.44622 0.4118 2.97027 1.7336 3.82031 3.314 1.05221 1.9555 1.39513 3.8834 1.40542 7.9006 0.0119 4.1625 0.29974 5.0755 1.83059 5.7817 1.18995 0.5491 3.47896 0.5909 5.35015 0.098 0.7363-0.1938 1.38254-0.308 1.43611-0.2534 0.16531 0.1678-2.41729 2.149-3.73155 2.8627-3.58582 1.9469-6.69033 1.7584-9.00765-0.5467-2.00242-1.9922-2.7354-4.0491-3.66015-10.2745-0.31702-2.1327-1.06986-3.6151-2.40553-4.7371-1.47398-1.2379-1.51036-1.2525-2.45901-0.9926-1.76994 0.4845-3.55889 3.1169-4.09809 6.0306-0.3262 1.7619-0.11155 5.2164 0.45025 7.25 0.57751 2.09 1.45734 4.0536 3.15799 7.0488 2.8464 5.0131 3.97865 8.2457 4.15755 11.869 0.14307 2.8937-0.13847 4.425-1.21604 6.6148-1.85879 3.7773-5.7087 6.281-10.91431 7.0983-0.92338 0.1449-0.93542 0.1379-1.04826-0.6076z"/>
  </g>
  <path d="m785.98058 793.71995 18.23206-12.0196c-0.43012 4.042 1.88682 14.2557 6.52861 18.94-7.95149-7.4628-21.08673-5.4861-10.58894 7.1228-6.53008-4.8024-11.66274-9.2407-14.17173-14.0432z" fill="#006500"/>
  <path d="m771.92831 797.32175c6.90535-7.3841 10.99398-1.0266 5.45371 4.6136l3.78173-3.197c0.12817-2.2458 3.24014-7.3509 6.63401-7.3046 0.28787 0.01-1.69148 1.8373-1.84419 2.4179-0.0616 0.2329 1.39963-0.4801 1.53057-0.4493 1.71637-0.627 1.45274-0.6466 2.09743-1.3797 5.36053-6.0956-3.81508-10.939-8.13913-4.5351 1.19545-2.3643-0.0487-4.5379-0.68134-6.7594 0.66122-2.252-4.23189-12.5647-12.44168-14.995 3.13383 3.1129 5.75355 6.8356 7.09345 12.0762-4.05821-3.1725-8.63551-4.8937-13.28612-6.4102 12.13274 3.569 14.84196 17.4407 3.6031 12.3052 0.74355 4.5351-0.62438 8.3189-2.87131 11.79 2.88188-1.1422 5.43139-3.5514 7.71268-6.9824 3.14945 1.4016 5.93327 1.6889 8.33209 0.8013-3.29739 2.8673-5.14451 5.4395-6.975 8.0085z" fill="#006500"/>
  <path d="m785.32818 779.26935c-10.57359-0.2325-12.69206 8.1686-10.10745 15.2127 2.06618-3.368 2.07326-8.852 8.24296-8.0042-5.36449 2.6734-5.43129 10.0765 0.50639 13.5789-2.44256-4.1794-0.72885-9.0986 6.26875-7.2305 8.34119 1.8578 11.49109-1.8596 14.22806-9.6322-0.52137 4.9714 4.98885 11.3197 12.19725 7.8928-9.12122-2.7194-4.80343-9.4811-3.48365-11.3869 2.46866-3.6724 2.67311-7.3892-0.564-11.1732 2.7536 2.6786 5.49552 3.0486 8.22973 1.7495-4.26643-0.2474-6.16152-5.0522-6.49333-8.7379-2.50099-11.1311-22.52486-17.1631-21.18018-11.763l-8.04099 2.9833c-0.32178 0.8635-1.39623 1.7264 1.09925 2.5913-2.75093 3.0235 2.16919 10.1459 6.9773 3.4942l3.14449 0.2301c-0.53479 2.1186 1.49345 4.1 3.29389 6.0937-1.27255 2.7315-2.85476 5.2895-0.48626 10.0635-4.27719 0.3659-4.88144 2.1118-5.90608 3.6996-3.54539-14.1017-17.05378-10.868-7.92613 0.3383z" fill="#008000"/>
  <g>
   <path d="m796.15024 758.68705c0.62263 1.9466 1.76222 3.898 4.77319 5.8675-1.0353 3.5489-2.03421 7.1004-0.28926 10.8528-2.96392 0.4229-5.80445 1.0357-7.43269 3.5138 0.42975-2.9828 2.95041-3.6401 6.00916-3.6993-2.6299-3.6574-1.964-6.9747 0.47589-10.1087-4.03202-2.9013-3.71565-4.6454-3.53629-6.4261z" fill="#006500"/>
   <path d="m804.32171 766.81665c1.59737 0.7731 2.27266 1.9005 1.19481 3.7013-1.79603 2.4534-0.49243 4.8977 2.10193 5.4945-2.8452-1.6275-2.72345-3.6249-1.13407-5.805 0.86502-1.6523-0.30857-3.1758-2.16267-3.3908z" fill="#006500"/>
   <path d="m800.95247 768.28135c1.7556 0.2218 2.74624 1.0753 2.28193 3.1297-0.9435 2.904 1.05147 4.8055 3.69884 4.5403-3.20495-0.6324-3.70885-2.5668-2.87672-5.1453 0.30847-1.8452-1.2777-2.9147-3.10405-2.5247z" fill="#188c18"/>
   <path d="m809.21665 761.44705c1.674 0.5827 2.47168 1.6244 1.60334 3.5386-1.50852 2.6459 0.0616 4.9224 2.70591 5.214-3.00959-1.2861-3.11324-3.2845-1.77931-5.635 0.67354-1.742-0.66361-3.1192-2.52994-3.1176z" fill="#006500"/>
   <path d="m806.0344 763.29395c1.76902 0.016 2.84925 0.749 2.6188 2.8439-0.61087 2.9946 1.58488 4.6518 4.18492 4.0808-3.25502-0.2557-3.97303-2.119-3.43622-4.7774 0.099-1.8689-1.5971-2.7472-3.3675-2.1473z" fill="#188c18"/>
   <path d="m810.38556 772.55805c1.36351 1.1459 1.74806 2.4065 0.27088 3.8857-2.33045 1.9343-1.65251 4.6275 0.7203 5.8498-2.36895-2.2839-1.77159-4.1906 0.29276-5.911 1.23525-1.3879 0.46256-3.1562-1.28394-3.8245z" fill="#006500"/>
   <path d="m806.76656 773.14315c1.64957 0.6505 2.40543 1.7236 1.46239 3.6008-1.61161 2.5824-0.13287 4.9212 2.49788 5.3205-2.95631-1.4081-2.98112-3.409-1.55557-5.7032 0.7418-1.7131-0.53984-3.1435-2.4047-3.2181z" fill="#188c18"/>
   <path d="m802.59174 776.33915c0.9368 1.7662 0.90932 3.2939-0.95223 4.3684-2.81268 1.2563-3.00767 4.4667-1.13702 6.6923-1.53654-3.39-0.37656-5.2617 2.1171-6.3823 1.60361-1.0643 1.42103-3.2941-0.0276-4.6784z" fill="#006500"/>
   <path d="m798.97652 775.63435c1.36251 1.3285 1.74558 2.7885 0.26666 4.4992-2.33238 2.2359-1.65748 5.3548 0.71405 6.7728-2.36647-2.6469-1.76718-4.8537 0.29928-6.8425 1.23662-1.6052 0.46596-3.6534-1.27999-4.4295z" fill="#188c18"/>
   <path d="m796.28595 781.15595c-0.0753 2.0053-0.86328 3.3071-3.00371 3.2706-3.05029-0.371-4.8229 2.2932-4.32431 5.1766 0.37112-3.7136 2.30573-4.7264 5.01356-4.4032 1.9132-0.088 2.87038-2.1032 2.31446-4.044z" fill="#006500"/>
   <path d="m793.52464 778.68155c0.50934 1.8479 0.10954 3.3034-2.01913 4.0126-3.12648 0.7207-4.10417 3.756-2.7705 6.2021-0.71498-3.5022 0.90407-5.0931 3.67789-5.7386 1.86733-0.7434 2.22754-2.9057 1.11174-4.4761z" fill="#188c18"/>
   <path d="m798.54281 786.16925c0.0459 2.0062-0.66205 3.3545-2.80065 3.4515-3.06702-0.1799-4.67569 2.5896-4.00409 5.4364 0.14638-3.7296 2.0163-4.8612 4.73855-4.7074 1.90429-0.2073 2.73825-2.278 2.06619-4.1805z" fill="#006500"/>
   <path d="m795.6376 783.87155c0.61978 1.8128 0.30847 3.2904-1.77344 4.1309-3.07712 0.9143-3.86992 4.0046-2.39118 6.3633-0.92495-3.4512 0.59515-5.1401 3.32486-5.9573 1.819-0.8585 2.04799-3.0391 0.83976-4.5369z" fill="#188c18"/>
   <path d="m787.38279 786.75565c0.27695 1.9869-0.26969 3.4103-2.38219 3.7623-3.06647 0.1878-4.3438 3.1305-3.34765 5.8773-0.28595-3.7215 1.44015-5.0685 4.16132-5.241 1.86715-0.4337 2.45579-2.5897 1.56852-4.3986z" fill="#006500"/>
   <path d="m784.23187 784.82115c0.82506 1.7261 0.68686 3.2306-1.28339 4.3143-2.95005 1.2756-3.38009 4.4392-1.63873 6.6047-1.31757-3.3166-9e-3 -5.1757 2.61292-6.3131 1.70708-1.0701 1.68237-3.2629 0.3092-4.6059z" fill="#188c18"/>
   <path d="m786.89045 782.03705c-0.80144 1.834-2.007 2.7464-3.98186 1.9062-2.69791-1.4934-5.3156 0.3135-5.90322 3.1793 1.69808-3.3095 3.86424-3.5214 6.26159-2.2012 1.80908 0.6387 3.43237-0.8723 3.62349-2.8843z" fill="#006500"/>
   <path d="m785.22738 778.69865c-0.20032 1.9083-1.1021 3.1095-3.33773 2.9664-3.16663-0.5083-5.18089 1.9424-4.83374 4.717 0.61234-3.5222 2.69598-4.3901 5.50756-3.9447 2.00545 0.013 3.12804-1.8601 2.66391-3.7387z" fill="#188c18"/>
  </g>
  <path d="m793.73557 752.32605c-0.48187 1.2101-0.14815 2.7242 0.54867 3.236 1.81768-1.5339 4.02701-1.5987 6.11176-2.1314-2.00918-1.2149-4.36154-1.9092-6.66048-1.1046z" fill="#fff"/>
  <ellipse transform="matrix(.94217535 -.33512029 .21336992 .97697148 0 0)" cx="620.47198" cy="984.23657" rx="1.0747405" ry="1.3763975" fill-rule="evenodd"/>
  <ellipse transform="matrix(.94217533 -.33512035 .21336993 .97697148 0 0)" cx="620.15588" cy="983.92273" rx=".33068937" ry=".44530511" fill="#fff" fill-rule="evenodd"/>
  <path d="m795.00726 748.78775c-1.89586 0.019-4.35102 3.2076-1.17138 3.4607 3.52806-0.7008 5.64197 0.5823 7.79685 1.8077-1.96493-1.4399-3.486-3.4238-7.27704-2.6257-1.46533 0.3488-2.11619-1.2946 0.65177-2.6429z"/>
  <path d="m793.85692 756.82195c0.24891-2.0216 2.05653-1.8511 3.76415-1.8211-1.55817 0.2535-3.27154 0.3263-3.76415 1.8211z" fill="#fff" fill-opacity=".462264"/>
  <path d="m764.69188 860.88335c0.48489-3.118 2.98745-5.8346 6.14517-6.6707 1.08097-0.2864 1.31427-0.2858 1.86744 0.01 1.29634 0.6814 1.70864 2.0733 0.91078 3.075-0.37628 0.4724-0.61197 0.5263-2.39652 0.5474-2.5248 0.029-3.9122 0.6043-5.32957 2.2069-0.54802 0.6198-0.99652 1.2627-0.99652 1.429 0 0.1661-0.0845 0.3554-0.18837 0.4204-0.10356 0.066-0.10916-0.3906-0.0128-1.0131zm11.51416 0.7984c-0.58238-0.189-1.05873-0.3783-1.05873-0.4205 0-0.042 0.55896-0.082 1.24241-0.087 2.41113-0.022 4.50847-1.5699 5.88568-4.3436 0.75293-1.516 1.33549-1.8426 2.37888-1.3342 0.73749 0.3596 1.18553 1.1659 1.19003 2.1417 9e-3 0.9862-1.39558 2.5358-3.15763 3.4941-1.25637 0.6835-1.62649 0.7735-3.41536 0.8304-1.33807 0.042-2.35903-0.051-3.06528-0.28zm34.61791-0.9182c-0.0128-1.0053 0.71893-3.1127 1.45523-4.1931 1.10513-1.6213 3.05149-2.9561 4.94253-3.3897 1.89932-0.4355 3.49835 1.7268 2.34332 3.1685-0.32988 0.4117-0.66535 0.4972-2.17351 0.5539-1.38273 0.053-2.06692 0.2047-3.04552 0.6784-1.34239 0.65-2.70646 1.9981-3.20825 3.1707l-0.30517 0.7129-9e-3 -0.7016zm12.02919 0.1348c-0.5426-0.1766-0.53929-0.1821 0.12358-0.204 1.03301-0.034 2.90283-1.0848 3.77548-2.121 0.82368-0.9784 1.52037-2.6124 1.77352-4.1611 0.15603-0.953 0.72334-1.446 1.66427-1.446 0.63053 0 1.52221 0.8348 1.7976 1.6827 0.32427 0.9994-0.24746 2.3034-1.67355 3.8163-1.93368 2.0518-5.2806 3.1431-7.4609 2.4331zm-66.74842-3.302c0.77249-3.2538 3.88859-5.9255 7.18027-6.1567 1.4182-0.1001 1.52736-0.072 2.09339 0.5407 0.84224 0.9113 0.95517 1.6249 0.40155 2.5368l-0.46009 0.7578-1.38401-0.1905c-3.29215-0.4534-5.29556 0.1304-6.97785 2.0327-0.93578 1.0581-0.99918 1.0937-0.85326 0.4792zm48.02494-0.6795c-9e-3 -3.1312 2.47408-6.5228 5.48597-7.4979 1.341-0.4342 2.02593-0.3101 2.83666 0.514 0.71332 0.7253 0.76579 1.6146 0.14261 2.42-0.38593 0.4989-0.62438 0.581-1.68724 0.581-2.7422 0-5.2092 1.4847-6.25286 3.7631l-0.52293 1.1419v-0.9221zm-1.11689-5.8501c0-0.092 0.26712-0.742 0.59341-1.4432 1.20823-2.5968 3.99518-4.5249 6.87999-4.7603 1.69221-0.1381 2.41462 0.2191 2.9178 1.4436 0.28614 0.6962 0.28163 0.871-0.0404 1.5603-0.46881 1.0045-0.90445 1.123-2.44954 0.6664-2.69121-0.7954-5.57068-0.067-7.14986 1.8087-0.41341 0.4909-0.75155 0.8169-0.75155 0.7245zm-46.67906-1.4855c0.6636-1.1515 2.43685-2.7111 3.80781-3.3493 1.4748-0.6863 3.73927-0.92 5.1514-0.5316 1.67759 0.4614 2.3855 2.4146 1.28184 3.5368-0.69137 0.7028-1.01307 0.6969-2.55227-0.047-2.25245-1.0875-5.16804-0.9808-6.82082 0.2499-1.21172 0.9022-1.31684 0.9192-0.86796 0.1403zm8.8382-24.9286c-2.45891-1.8108-3.81279-5.402-3.18878-8.4579 0.21878-1.0719 0.38336-1.3594 0.999-1.7461 1.25427-0.7882 2.38761-0.5488 3.00822 0.6354 0.24332 0.4644 0.1937 0.695-0.39015 1.8131-1.47039 2.8161-1.3593 5.5293 0.3239 7.91 0.47588 0.6732 0.33134 0.6435-0.75219-0.1545zm-17.98699-1.517c-0.19416-1.163 0.2072-3.5014 0.81008-4.7186 0.73464-1.4836 1.92136-2.8125 3.15303-3.5308 1.29708-0.7562 1.8869-0.8256 2.82572-0.332 0.77379 0.4068 1.11019 0.9748 1.11019 1.8741 0 0.8422-0.53782 1.3122-1.70801 1.4924-1.91476 0.2951-3.87389 1.5114-4.98178 3.0931-0.24248 0.3463-0.57889 1.176-0.74714 1.8434l-0.30616 1.2134zm-5.19239-8.9352c0.30341-3.2261 3.30345-6.5391 6.46034-7.1338 1.8633-0.351 3.31714 1.7244 2.27137 3.2422-0.30038 0.4361-0.54939 0.5038-1.85438 0.5038-2.91991 0-5.03976 1.0889-6.28125 3.2263l-0.69302 1.193 0.097-1.0315zm53.36904-40.8808c-4.60265-5.0322-8.38585-7.1374-14.24744-7.9292-3.09294-0.4177-4.48366-0.8289-6.63567-1.9624-2.38329-1.255-3.8408-2.6307-4.7277-4.4619-0.63283-1.3072-0.73401-1.7509-0.73401-3.2205 0-1.4411 0.10733-1.9322 0.69403-3.1778 1.52369-3.2339 4.78855-5.0935 7.59488-4.3253 1.1383 0.3117 2.86891 1.4861 3.56312 2.4182l0.52055 0.6991-1.74109-0.1024c-1.45623-0.086-1.8904-0.025-2.65417 0.371-1.67557 0.8691-2.40681 2.3557-2.24904 4.5721 0.11753 1.652 0.95701 3.1074 2.55732 4.4338 1.4 1.1602 2.9687 1.778 6.04905 2.3825 1.2924 0.2534 2.84236 0.6512 3.44468 0.8838 3.05003 1.1782 5.88503 3.5516 10.25447 8.5847 2.55089 2.9384 2.64131 3.1882 1.15623 3.1956-0.58064 0-1.00332-0.3477-2.84521-2.3613zm-56.49111 0.086c-1.49556-0.3001-2.7547-0.9681-4.02568-2.1353-0.64835-0.5958-1.14575-1.117-1.10513-1.1583 0.0404-0.041 0.57117 0.1724 1.17901 0.4751 0.78941 0.393 1.48747 0.5519 2.44274 0.5561 1.7828 0.01 2.67797-0.2725 4.32248-1.3532 1.60114-1.0521 2.07216-1.1102 2.82131-0.3486 0.96179 0.978 0.54821 2.9693-0.72416 3.4858-1.64644 0.6684-3.20614 0.8203-4.91057 0.4784zm-8.65286-8.7943c0.59396-1.1867 2.25015-2.7286 3.64481-3.3931 1.11928-0.5333 1.54271-0.6052 3.57295-0.6052h2.30335l0.65047 0.7401c0.8427 0.9591 0.8836 2.1031 0.10338 2.8963-0.70331 0.7149-0.88139 0.7032-2.71592-0.1802-2.64489-1.2734-5.48551-0.9613-7.41 0.8141l-0.53 0.489zm19.93262-6.0402c-0.7646-0.4223-0.88635-0.7968-0.60058-1.8492 0.3557-1.3097 0.12166-4.0966-0.43665-5.1995-0.25949-0.5128-0.9809-1.3977-1.60334-1.9665l-1.13169-1.0345 0.84197 0.2354c3.23048 0.9032 5.69362 3.8822 6.00402 7.2611 0.13194 1.4368 0.13094 1.4401-0.68365 2.1673-0.88662 0.7914-1.48196 0.8875-2.39008 0.3859zm-8.7953-0.5111c-0.13287-0.092-0.50014-0.7453-0.81586-1.4527-1.12627-2.5233-3.07419-4.0714-5.54211-4.4042l-1.19059-0.1605 0.88588-0.321c0.59222-0.2146 1.51955-0.2928 2.79872-0.236 2.3548 0.1044 4.02807 0.8502 5.61075 2.5008 0.85446 0.8912 1.05891 1.2573 1.05891 1.8975 0 0.8679-0.32298 1.6301-0.87239 2.059-0.39189 0.306-1.55639 0.3765-1.93331 0.1171z" fill="#a00"/>
  <g transform="translate(57.240879,-571.12199)">
   <path d="m652.07591 1364.0082c-0.15143-0.1539-12.62329 14.7245-12.5055 14.9186 0.0576 0.094 3.31503 2.8198 7.23909 6.0562l7.13443 5.8845 4.27909-3.4576c2.3526-1.9017 5.71071-4.6118 7.4642-6.0227 1.75331-1.411 3.14438-2.6122 3.08837-2.6678-0.0556-0.057-1.47919 0.068-3.1634 0.2745-3.68598 0.4535-4.8182 0.3333-5.74231-0.6062-0.64543-0.6563-0.66189-0.7198-0.54105-2.344 0.0862-1.1587 0.36648-2.2808 0.91229-3.6629 0.4327-1.0956 0.75882-2.0193 0.72667-2.0517-0.0322-0.032-0.72473 0.3022-1.54023 0.7425-1.90124 1.0264-4.3948 1.9114-5.38489 1.9114-2.51854 0-3.30322-2.4593-2.26691-7.1008 0.21803-0.976 0.35343-1.8194 0.30015-1.874z" fill="#ffd700" stop-color="#000000"/>
   <path d="m624.36305 1407.7248c0.76965-0.6969-1.1768-3.695-2.86625-6.4752-2.70499-3.9446-5.84047-6.6857-9.39468-8.2561 2.85173 2.7152 5.75878 5.277 7.16549 11.9793-4.29565-3.2244-8.70846-5.139-13.21629-5.9894-5.16132-2.5903-7.45668-5.1804-9.71324-7.7705 3.01363-4.0662-1.35002-12.1976-5.73223-7.1227-4.84073-6.0733-9.71435 0.2974-6.847 3.7234-5.75731-0.5852-3.91809 7.9707 0.79611 6.8797 1.11745 0.1095 2.61567 0.01 1.08161 1.5713-1.57973 0.9812-1.90859 4.9014 2.89924 4.1754 7.03105-2.0193 10.96384 4.0043 4.61762 9.0655 3.37209 0.3272 5.75345-1.3605 7.64331-4.0471 2.33348 3.0765 0.13461 8.0729-2.54787 13.2743 3.22599-1.8424 6.20619-4.006 7.96161-7.7705 1.19325-2.0628 3.17664-1.5398 3.02549 0 0.8505 2.8307 0.61564 6.3005-2.54777 11.4936 3.42529-1.3742 5.44029-4.1819 7.64311-6.799 11.05757 3.8483 13.07643-1.8425 10.03174-7.932z" fill="#008000"/>
   <path d="m583.94391 1387.5915c2.43585 1.7871 4.03625 4.4038 0.61923 6.9253 0.48379 0.4099 2.76517 0.089 1.23846 1.3162 3.66411-3.8673 7.84849 1.434 5.40464 4.0637 2.96779 0.1875 6.11549 0.8401 5.29181-8.7568-8.56659 2.5054-7.38051-4.064-5.686-7.0396-1.41967 2.1352-3.82197 5.1279-6.86814 3.4912z" fill-opacity=".174528"/>
   <path d="m628.08073 1412.6026c-4.63151 3.2009-9.22285 6.4631-12.38535 11.9045-2.84686-0.3161-4.61469 1.0135-5.96745 2.9761-1.26833 2.2253-5.77265 2.4355-9.12011 1.6026 1.88204 1.8819 4.09634 2.8143 6.98097 1.8314-0.86715 4.9411-3.71428 6.9601-9.23278 5.0367-3.73402-6.4546-12.55431 0.3467-3.82839 5.6089-2.17738 3.9031 6.07027 10.0958 7.88174 1.3735h2.58967c1.22017 6.4777 12.85204 0.97 4.95412-2.9762-0.0101-0.6104-0.0976-1.2209 2.81488-1.8314 0.53736 1.8448 2.32585 2.1865 4.50368 2.0603-2.11019-2.3219-2.2019-4.7371-1.01333-7.2115 3.02127-1.9269 5.11464 0.8636 7.43132 2.5184 1.18783-3.5015-0.0735-5.3432-2.47711-6.4101l3.82822-3.2051c2.68293 0.9388 5.17392 2.4874 9.00747-0.2288-4.22518 0.8746-6.12551-2.496-4.27857-4.5788 6.70982-1.2633 6.48681-11.7786-1.68898-8.4705z" fill="#008000"/>
   <path d="m594.35891 1441.2765c2.66014-1.1037 2.85577-3.9215 2.70222-6.9825l1.35103 1.5453c3.65051 1.5992 4.61726 0.652 6.13653 0.2289 0.52642 0.2102 1.9323-1.4792 0.2287 3.5482-0.36883 1.3249-0.15427 2.4123 0.22164 3.4343l-2.58967-0.1144c-1.26281-4.796-5.80509-2.9073-8.05045-1.6598z" fill-opacity=".212264"/>
   <path d="m652.06339 1442.3638c-12.79397-1.81-26.82769-5.3846-29.49977 7.2115-4.42209 2.3648-9.10864 4.2518-10.92158 11.3322 2.88077-3.7161 6.9546-6.7076 10.13354-6.1812-0.66562 3.8994-0.37848 9.5682 9.45781 7.8983 2.28488 8.4715-7.25544 13.495-14.86245 14.9949-2.88986-4.4221-9.73328-5.2688-9.79567 0.916-4.28471 2.558-0.034 9.0036 4.67267 5.9521-0.40458 3.7341 3.98424 6.1998 9.17644 1.2591 1.96272 3.1206 11.06345 3.2122 8.44465-4.0062l5.96736-3.205c0.51475 3.5702-0.17725 6.1592-1.91411 7.8981 3.5691-0.1127 3.93858-5.7856 4.84156-10.531 1.50842 2.992 3.67991 5.0851 7.43131 5.0365-4.24924-1.6422-3.88886-4.4937-3.60309-7.3257 0.88231-2.6997-0.17027-4.4157-1.35112-6.0668 4.2431 1.0745 7.67307-0.3309 9.79577-5.7234-4.59034 4.947-11.02246 3.6292-13.51133-1.4879-3.22994-4.721 0.93064-12.3165 8.44456-10.3022 1.96492 2.2241-0.0478 5.4995-3.26523 6.1813 4.06134 0.9999 5.63344-2.2828 6.98089-5.9522 2.69929 0.9401 5.38773 1.9782 8.29322 1.0325z" fill="#008000"/>
   <path d="m606.63169 1478.3637c5.39297-1.7394 6.65321 3.7503 4.72881 5.9522 2.4885-3.4573 7.31617-4.154 9.23277 1.4308-0.78913-3.1367 2.27651-4.5132 5.85489-3.7772-2.12729-0.8775-4.94126-0.9797-8.28495-0.7188-1.85309 0.1447-4.51766-2.1438-1.79227-3.5164-3.6392-4.9769-9.38154-4.9083-9.73925 0.6294z" fill-opacity=".193396"/>
   <path d="m637.59504 1440.418c8.23726 1.3567 7.76184 6.2015 1.12599 10.3592 2.37548-1.5607 4.44672-1.1115 6.53027-0.7441 0.78545 1.7243 0.99321 4.9974-3.54659 6.2958 4.08532 1.0024 5.66643-2.4884 7.26233-5.9523 3.86709 1.6454 6.00073 1.3815 8.1067 1.0874l-4.95412-8.9857c-4.41272-0.766-8.53342-1.586-14.52458-2.0603z" fill-opacity=".122642"/>
   <path d="m671.81406 1472.3314c-2.69193 1.6757-5.2929 3.4328-9.63349 3.6423-4.1207-6.5637-9.11203-3.2233-9.71316 0.7283-3.39773 3.0872-1.55317 8.8771 4.9362 5.8278-0.0368 6.8752 6.66672 4.7613 8.59866 1.8616 5.17327 3.7416 11.11206 1.6444 8.83728-4.1278z" fill="#008000"/>
   <path d="m652.85141 1476.5742c5.39325-1.7394 6.6534 3.7504 4.729 5.9524 2.48849-3.4574 7.31608-4.1541 9.23276 1.4307-0.78894-3.1367 2.27653-4.5133 5.85489-3.7773-2.12737-0.8775-4.94106-0.9796-8.28486-0.7187-1.85309 0.1446-4.51774-2.1439-1.79226-3.5165-3.6393-4.9768-9.38163-4.9084-9.73953 0.6294z" fill="#006700"/>
   <g fill="#008000">
    <g>
     <path d="m683.05577 1466.4927c0.8722 0.034 1.59701-0.4164 3.49035 2.9763 2.04753 3.167 4.41888 1.8911 6.75576 1.0873-5.0211 4.6332-11.6394 2.1808-10.24611-4.0636z"/>
     <path d="m680.25577 1462.5988c0.80678-0.3389 1.28027-1.0562 4.39361 1.2239 3.16075 2.0095 4.79193-0.156 6.58567-1.8777-2.66125 6.3404-9.68247 6.9196-10.97928 0.6538z"/>
     <path d="m677.46019 1458.4681c0.66223-0.5781 0.89158-1.4099 4.54963-0.2323 3.61982 0.9054 4.50442-1.6696 5.67948-3.8748-0.58037 6.8682-7.07231 9.6476-10.22911 4.1071z"/>
     <path d="m684.41387 1470.1203c0.53938 0.6978 1.34689 0.9665 0.0322 4.6311-1.04586 3.6375 1.44641 4.6469 3.56285 5.9357-6.72451-0.8857-9.17571-7.5996-3.59483-10.5668z"/>
     <path d="m631.12083 1420.3862c1.61933 4.4167 5.80243 9.094 11.66366 13.9417 1.98339 1.1597 5.76952 4.1833 6.91435 8.265 3.33699 12.6452 8.281 22.3342 19.92912 19.6882 1.73365-0.043 6.00771 4.4398 2.22599 10.115l-0.95545 3.5208 4.02072 5.504c9.6086-3.556 13.01955-16.4253 4.06033-22.9465l-8.20023-1.1333c-1.8486-8.5747-4.54219-17.1517-10.51993-23.1952-6.89047-6.9663-11.39589-13.2813-13.20581-19.7031z"/>
    </g>
    <path d="m665.00906 1445.9548c-0.0625-0.4148-0.15392-1.2141-0.20271-1.7765l-0.0892-1.0225 1.80743-0.36c2.41535-0.4813 4.21635-1.4028 5.7053-2.919 1.7625-1.7946 2.30013-3.0376 2.41149-5.5745 0.15603-3.5419-0.69448-6.1209-3.94316-11.9573-3.05784-5.4935-3.89678-8.2684-3.91626-12.9523-0.0119-2.4867 0.0782-3.4915 0.41231-4.6461 1.35956-4.7061 4.45636-7.7791 7.8222-7.7625 2.71528 0.013 6.02902 0.2594 6.92465 0.5144 1.44622 0.4116 2.97045 1.7335 3.82032 3.3138 1.05229 1.9553 1.39503 3.8835 1.4055 7.9004 0.0119 4.1627 0.29965 5.0754 1.83059 5.7818 1.18986 0.549 3.47887 0.5909 5.35006 0.098 0.73639-0.1939 1.38264-0.3081 1.4362-0.2537 0.16532 0.168-2.41718 2.1491-3.73164 2.8628-3.58573 1.9469-6.69015 1.7585-9.00747-0.5466-2.00259-1.9921-2.73558-4.0492-3.66024-10.2744-0.31692-2.1327-1.06975-3.6154-2.40553-4.7371-1.47396-1.238-1.51026-1.2526-2.45891-0.9929-1.77003 0.4848-3.55908 3.1171-4.09819 6.0308-0.3262 1.7618-0.11155 5.2163 0.45025 7.2501 0.57761 2.0898 1.45716 4.0537 3.158 7.0487 2.84621 5.013 3.97846 8.2456 4.15754 11.8689 0.14307 2.8935-0.13856 4.4252-1.21604 6.6151-1.85879 3.7771-5.7087 6.2809-10.9144 7.0981-0.92338 0.145-0.93533 0.138-1.04826-0.6075z"/>
   </g>
   <path d="m629.6973 1420.9585 18.23206-12.0197c-0.43012 4.042 1.88682 14.2558 6.52852 18.94-7.95158-7.4629-21.08654-5.4861-10.58894 7.1227-6.52999-4.8024-11.66265-9.2406-14.17164-14.043z" fill="#006500"/>
   <path d="m615.64503 1424.5603c6.90526-7.3843 10.99399-1.0268 5.45371 4.6136l3.78182-3.1972c0.12809-2.2458 3.23995-7.3509 6.63401-7.3044 0.2877 0.01-1.69166 1.8371-1.84428 2.4177-0.0625 0.233 1.39954-0.4799 1.53057-0.4492 1.71637-0.6269 1.45274-0.6465 2.09743-1.3796 5.36044-6.0956-3.81508-10.9391-8.13913-4.5352 1.19536-2.3644-0.0487-4.5379-0.68134-6.7593 0.66131-2.252-4.23198-12.5647-12.44168-14.9951 3.13383 3.1128 5.75336 6.8356 7.09345 12.0763-4.05821-3.1727-8.63559-4.8938-13.28611-6.4103 12.13264 3.5689 14.84186 17.4409 3.6029 12.3051 0.74374 4.5352-0.62418 8.319-2.87111 11.7901 2.88187-1.1421 5.4312-3.5516 7.71268-6.9824 3.14935 1.4016 5.93336 1.689 8.33208 0.8012-3.29738 2.8673-5.14441 5.4396-6.975 8.0087z" fill="#006500"/>
   <path d="m629.04499 1406.5079c-10.57378-0.2326-12.69206 8.1684-10.10753 15.2126 2.06627-3.368 2.07316-8.852 8.24286-8.0043-5.36431 2.6737-5.4312 10.0765 0.50648 13.5791-2.44255-4.1797-0.72876-9.0986 6.26876-7.2306 8.34118 1.8579 11.49091-1.8595 14.22814-9.6322-0.52164 4.9714 4.98886 11.3195 12.19716 7.8928-9.12113-2.7195-4.80342-9.481-3.48364-11.387 2.46856-3.6722 2.6732-7.389-0.564-11.173 2.75341 2.6785 5.49551 3.0484 8.22972 1.7494-4.26652-0.2475-6.16143-5.0521-6.49333-8.7378-2.50108-11.1311-22.52504-17.1631-21.18017-11.763l-8.04108 2.9833c-0.3217 0.8633-1.39624 1.7265 1.09943 2.5912-2.75111 3.0236 2.16891 10.1459 6.97721 3.4942l3.14448 0.23c-0.53479 2.1186 1.49336 4.1001 3.29389 6.0938-1.27264 2.7315-2.85485 5.2894-0.48626 10.0636-4.27728 0.3658-4.88144 2.1116-5.90617 3.6994-3.54529-14.1014-17.05378-10.8679-7.92595 0.3385z" fill="#008000"/>
   <g>
    <path d="m639.86697 1385.9257c0.62253 1.9464 1.76221 3.898 4.77309 5.8673-1.03521 3.5489-2.0343 7.1005-0.28908 10.8527-2.9641 0.423-5.80462 1.0358-7.43269 3.5138 0.42967-2.9826 2.95032-3.64 6.00908-3.699-2.62982-3.6575-1.96401-6.9748 0.47589-10.1089-4.03203-2.9013-3.71566-4.6455-3.53629-6.4259z" fill="#006500"/>
    <path d="m648.03834 1394.0552c1.59728 0.7732 2.27275 1.9004 1.19482 3.7013-1.79595 2.4534-0.49243 4.8973 2.10211 5.4944-2.8454-1.6276-2.72364-3.6247-1.13417-5.805 0.86502-1.6523-0.30866-3.1757-2.16276-3.3907z" fill="#006500"/>
    <path d="m644.6691 1395.5198c1.75569 0.2218 2.74643 1.0753 2.28202 3.1296-0.9435 2.9041 1.05157 4.8056 3.69885 4.5404-3.20495-0.6325-3.70895-2.5668-2.87672-5.1453 0.30846-1.8453-1.2778-2.9148-3.10415-2.5247z" fill="#188c18"/>
    <path d="m652.93346 1388.6857c1.67383 0.5825 2.4716 1.6242 1.60317 3.5384-1.50843 2.646 0.0616 4.9225 2.70599 5.214-3.00968-1.2861-3.11323-3.2844-1.77922-5.6351 0.67346-1.7418-0.6636-3.119-2.52994-3.1173z" fill="#006500"/>
    <path d="m649.75103 1390.5324c1.76911 0.016 2.84916 0.749 2.61898 2.8439-0.61105 2.9947 1.58488 4.6517 4.18493 4.0807-3.25512-0.2558-3.97313-2.1189-3.43623-4.7772 0.099-1.8691-1.59719-2.7472-3.36768-2.1474z" fill="#188c18"/>
    <path d="m654.10209 1399.7963c1.36362 1.1461 1.74825 2.4068 0.27098 3.886-2.33036 1.934-1.65242 4.6275 0.72049 5.8497-2.36904-2.2838-1.77187-4.1907 0.29275-5.9109 1.23507-1.388 0.46238-3.1565-1.28422-3.8248z" fill="#006500"/>
    <path d="m650.48338 1400.3816c1.64928 0.6505 2.40534 1.7236 1.46229 3.6009-1.6117 2.5824-0.13314 4.921 2.49788 5.3202-2.95649-1.4079-2.98112-3.4088-1.55548-5.703 0.74172-1.7131-0.53993-3.1437-2.40469-3.2181z" fill="#188c18"/>
    <path d="m646.30828 1403.5776c0.93707 1.7662 0.90959 3.2939-0.95214 4.3684-2.8125 1.2563-3.00767 4.4667-1.13693 6.6924-1.53663-3.3902-0.37674-5.2619 2.1171-6.3824 1.60361-1.0643 1.42094-3.294-0.0276-4.6784z" fill="#006500"/>
    <path d="m642.69333 1402.8729c1.36224 1.3284 1.7455 2.7886 0.26666 4.499-2.33247 2.2359-1.65756 5.3549 0.71397 6.773-2.36639-2.6471-1.76718-4.8537 0.29918-6.8426 1.23681-1.6051 0.46596-3.6534-1.27981-4.4294z" fill="#188c18"/>
    <path d="m640.00268 1408.3946c-0.0753 2.0052-0.86319 3.3067-3.00372 3.2703-3.05029-0.371-4.82308 2.2935-4.32431 5.1768 0.37113-3.7138 2.30573-4.7265 5.01357-4.4034 1.91319-0.088 2.87047-2.1031 2.31446-4.0437z" fill="#006500"/>
    <path d="m637.24137 1405.92c0.50933 1.8481 0.10944 3.3034-2.01914 4.0127-3.12647 0.7207-4.10416 3.7556-2.7705 6.2022-0.71498-3.5024 0.90417-5.0935 3.67798-5.7387 1.86734-0.7436 2.22745-2.9059 1.11166-4.4762z" fill="#188c18"/>
    <path d="m642.25953 1413.4077c0.0459 2.0062-0.66215 3.3546-2.80074 3.4515-3.06684-0.18-4.67569 2.5896-4.004 5.4365 0.14638-3.7298 2.0163-4.8612 4.73865-4.7075 1.90419-0.2072 2.73806-2.2779 2.06609-4.1805z" fill="#006500"/>
    <path d="m639.35413 1411.1101c0.61988 1.8126 0.30866 3.2904-1.77324 4.1309-3.07704 0.9143-3.87012 4.0044-2.39119 6.363-0.92485-3.4511 0.59515-5.1399 3.32477-5.957 1.81918-0.8585 2.04808-3.0391 0.83966-4.5369z" fill="#188c18"/>
    <path d="m631.0996 1413.9941c0.27667 1.987-0.26978 3.4103-2.38236 3.7623-3.06657 0.1878-4.34372 3.1305-3.34757 5.8775-0.28585-3.7217 1.44016-5.0686 4.16132-5.2413 1.86706-0.4335 2.45579-2.5895 1.56861-4.3985z" fill="#006500"/>
    <path d="m627.9485 1412.0595c0.82515 1.7261 0.68695 3.2308-1.2833 4.3143-2.95005 1.2757-3.38009 4.4394-1.63873 6.6049-1.31757-3.3167-9e-3 -5.1757 2.61283-6.3132 1.70718-1.0701 1.68237-3.263 0.3092-4.606z" fill="#188c18"/>
    <path d="m630.60708 1409.2755c-0.80134 1.834-2.007 2.7464-3.98176 1.9063-2.698-1.4935-5.31552 0.3132-5.90322 3.1792 1.69817-3.3094 3.86405-3.5215 6.26149-2.2013 1.80926 0.6388 3.43255-0.8721 3.62349-2.8842z" fill="#006500"/>
    <path d="m628.94419 1405.937c-0.20049 1.9083-1.10219 3.1096-3.33781 2.9663-3.16663-0.5081-5.18099 1.9425-4.83374 4.7173 0.61224-3.5223 2.69597-4.3903 5.50755-3.9448 2.00554 0.013 3.12794-1.8599 2.664-3.7388z" fill="#188c18"/>
   </g>
   <path d="m637.45239 1379.5645c-0.48188 1.21-0.14816 2.7241 0.54867 3.2359 1.81767-1.5338 4.027-1.5986 6.11175-2.1313-2.00918-1.215-4.36154-1.9093-6.66047-1.1047z" fill="#fff"/>
   <ellipse transform="matrix(.94217535 -.33512029 .21336992 .97697148 0 0)" cx="331.6384" cy="1527.1842" rx="1.0747405" ry="1.3763975" fill-rule="evenodd"/>
   <ellipse transform="matrix(.94217533 -.33512035 .21336993 .97697148 0 0)" cx="331.3223" cy="1526.8704" rx=".33068937" ry=".44530511" fill="#fff" fill-rule="evenodd"/>
   <path d="m638.72407 1376.0261c-1.89586 0.019-4.35101 3.2077-1.17138 3.4608 3.52806-0.7009 5.64197 0.5822 7.79686 1.8077-1.96494-1.4399-3.486-3.4239-7.27704-2.6258-1.46534 0.3489-2.1162-1.2945 0.65177-2.6429z"/>
   <path d="m637.57373 1384.0603c0.24891-2.0216 2.05653-1.851 3.76415-1.821-1.55817 0.2534-3.27154 0.3262-3.76415 1.821z" fill="#fff" fill-opacity=".462264"/>
   <path d="m608.40861 1488.1219c0.48479-3.1181 2.98744-5.8347 6.14517-6.671 1.08087-0.2862 1.31417-0.2855 1.86752 0.01 1.29616 0.6813 1.70846 2.0733 0.9106 3.075-0.37627 0.4724-0.61196 0.5263-2.39633 0.5473-2.52498 0.029-3.91221 0.6044-5.32958 2.2071-0.54819 0.6196-0.99669 1.2626-0.99669 1.4289s-0.0845 0.3554-0.18829 0.4204c-0.10374 0.065-0.10916-0.3908-0.0128-1.013zm11.51415 0.7984c-0.58229-0.1892-1.05882-0.3785-1.05882-0.4206 0-0.043 0.55914-0.082 1.24241-0.087 2.41104-0.022 4.50856-1.5698 5.88586-4.3434 0.75275-1.5162 1.3354-1.843 2.3787-1.3343 0.73749 0.3594 1.18553 1.1657 1.19013 2.1415 9e-3 0.9864-1.39559 2.5359-3.15753 3.4943-1.25647 0.6833-1.6266 0.7734-3.41547 0.8303-1.33807 0.043-2.35903-0.051-3.06528-0.2797zm34.61782-0.9184c-0.0128-1.0053 0.71884-3.1126 1.45523-4.1929 1.10522-1.6216 3.05149-2.9562 4.94262-3.3898 1.89914-0.4355 3.49835 1.7268 2.34323 3.1684-0.32987 0.4118-0.66536 0.4973-2.17342 0.554-1.38263 0.052-2.067 0.2045-3.04542 0.6784-1.34257 0.65-2.70656 1.9981-3.20844 3.1707l-0.30508 0.7128-9e-3 -0.7016zm12.02937 0.1349c-0.54269-0.1764-0.53938-0.182 0.12331-0.2039 1.03319-0.034 2.90301-1.0847 3.77557-2.1211 0.82369-0.9785 1.52037-2.6123 1.77352-4.1612 0.15622-0.9529 0.72343-1.4459 1.66445-1.4459 0.63036 0 1.52212 0.8347 1.79742 1.6828 0.32436 0.9993-0.24737 2.3033-1.67346 3.8163-1.93359 2.0515-5.28051 3.1429-7.46081 2.433zm-66.74851-3.3021c0.77249-3.2538 3.88859-5.9255 7.18037-6.1566 1.41819-0.099 1.52717-0.072 2.09329 0.5408 0.84234 0.9111 0.95526 1.6247 0.40146 2.5368l-0.46018 0.7578-1.38383-0.1906c-3.29204-0.4533-5.29566 0.1304-6.97794 2.0326-0.93578 1.0582-0.99918 1.0938-0.85317 0.4792zm48.02494-0.6795c-9e-3 -3.1312 2.47408-6.5226 5.48597-7.4978 1.3411-0.4343 2.02594-0.31 2.83656 0.5141 0.71333 0.7252 0.7659 1.6146 0.1428 2.4198-0.38611 0.4991-0.62447 0.5811-1.68742 0.5811-2.74211 0-5.20911 1.4847-6.25286 3.7631l-0.52293 1.1418v-0.9221zm-1.11679-5.8501c0-0.092 0.26702-0.742 0.59323-1.4431 1.20831-2.5966 3.99517-4.5249 6.88017-4.7604 1.6922-0.138 2.41453 0.2193 2.9177 1.4437 0.28614 0.6962 0.28163 0.8711-0.0404 1.5603-0.4689 1.0046-0.90454 1.123-2.44963 0.6664-2.6913-0.7955-5.57068-0.067-7.14986 1.8085-0.41341 0.4911-0.75156 0.8172-0.75156 0.7246zm-46.67917-1.4855c0.66352-1.1514 2.43695-2.7112 3.80792-3.3491 1.4747-0.6865 3.73917-0.9203 5.1513-0.5317 1.67759 0.4613 2.38559 2.4146 1.28175 3.5368-0.69137 0.7028-1.01298 0.6971-2.55227-0.047-2.25235-1.0875-5.16795-0.9808-6.82073 0.2499-1.21172 0.9021-1.31702 0.9192-0.86797 0.1403zm8.8383-24.9284c-2.459-1.8111-3.81296-5.4021-3.18887-8.4578 0.21888-1.0722 0.38336-1.3596 0.999-1.7466 1.25427-0.7879 2.38771-0.5486 3.00813 0.6356 0.24341 0.4645 0.19379 0.6951-0.39006 1.8132-1.47039 2.8162-1.3593 5.5294 0.32381 7.91 0.47588 0.673 0.33144 0.6434-0.75201-0.1544zm-17.98699-1.517c-0.19416-1.163 0.20721-3.5014 0.8099-4.7186 0.73473-1.4837 1.92155-2.8125 3.15321-3.5307 1.297-0.7563 1.88691-0.8256 2.82563-0.3321 0.77379 0.4068 1.1101 0.9748 1.1101 1.874 0 0.8422-0.53781 1.3123-1.70791 1.4925-1.91476 0.295-3.8739 1.5114-4.9817 3.093-0.24266 0.3464-0.57888 1.1759-0.74731 1.8432l-0.30608 1.2135zm-5.19238-8.9354c0.30323-3.2262 3.30344-6.5392 6.46034-7.1338 1.86311-0.3508 3.31704 1.7246 2.27127 3.2423-0.30046 0.436-0.54948 0.5037-1.85438 0.5037-2.91991 0-5.03966 1.0889-6.28134 3.2263l-0.69293 1.1931 0.0971-1.0316zm53.36904-40.8808c-4.60284-5.032-8.38585-7.1374-14.24745-7.9289-3.09303-0.4178-4.48393-0.8292-6.63576-1.9625-2.38338-1.2553-3.84089-2.6309-4.72761-4.4622-0.63292-1.307-0.73418-1.7508-0.73418-3.2202 0-1.4414 0.10733-1.9324 0.69411-3.1778 1.5236-3.2342 4.78864-5.0937 7.59488-4.3253 1.1383 0.3115 2.86882 1.486 3.56294 2.4182l0.52082 0.699-1.74118-0.1026c-1.45642-0.086-1.8904-0.025-2.65417 0.3713-1.67548 0.869-2.40672 2.3556-2.24913 4.572 0.11771 1.6521 0.9572 3.1075 2.55732 4.4338 1.40009 1.1602 2.9688 1.778 6.04914 2.3823 1.29232 0.2537 2.84237 0.6513 3.44478 0.8839 3.04984 1.1784 5.88485 3.5518 10.25428 8.5847 2.55099 2.9384 2.64131 3.1883 1.15632 3.1959-0.58064 0-1.00341-0.348-2.84511-2.3616zm-56.4912 0.086c-1.49556-0.3002-2.75488-0.9681-4.02569-2.1355-0.64854-0.5957-1.14584-1.1169-1.10513-1.1582 0.0404-0.041 0.57127 0.1725 1.17901 0.475 0.78922 0.393 1.48747 0.5521 2.44265 0.5562 1.78271 0.01 2.67797-0.2725 4.32257-1.3531 1.60096-1.0521 2.07216-1.1103 2.82123-0.3485 0.96197 0.9779 0.5483 2.9692-0.72417 3.4858-1.64644 0.6683-3.20605 0.8203-4.91047 0.4783zm-8.65296-8.7942c0.59396-1.1868 2.25033-2.7288 3.64462-3.3931 1.11947-0.5335 1.54289-0.6051 3.57333-0.6051h2.30325l0.65048 0.7399c0.84279 0.9589 0.8835 2.1032 0.10328 2.8963-0.70322 0.7149-0.88139 0.7032-2.71601-0.1802-2.64462-1.2733-5.48542-0.9612-7.40991 0.8142l-0.52982 0.4891zm19.93271-6.0402c-0.76478-0.4225-0.88634-0.797-0.60049-1.8494 0.35561-1.3095 0.12157-4.0964-0.43665-5.1996-0.25958-0.5125-0.98098-1.3975-1.60352-1.9663l-1.13169-1.0346 0.84206 0.2355c3.23039 0.9033 5.69362 3.8821 6.00393 7.2611 0.13204 1.4367 0.13104 1.4402-0.68356 2.1672-0.88661 0.7915-1.48196 0.8876-2.39008 0.3861zm-8.7952-0.5112c-0.13314-0.091-0.50024-0.7454-0.81605-1.4527-1.12609-2.5234-3.07419-4.0714-5.54202-4.4042l-1.19058-0.1606 0.88578-0.3209c0.59231-0.2145 1.51974-0.2928 2.79872-0.2361 2.35499 0.1044 4.02808 0.8503 5.61094 2.5009 0.85445 0.8911 1.05881 1.2573 1.05881 1.8974 0 0.868-0.32289 1.6302-0.87238 2.0592-0.392 0.3059-1.55648 0.3763-1.93322 0.117z" fill="#a00"/>
  </g>
 </g>
</svg>
