<?xml version="1.0" encoding="UTF-8" standalone="no"?>
<!-- Created with Inkscape (http://www.inkscape.org/) -->

<svg
   xmlns:dc="http://purl.org/dc/elements/1.1/"
   xmlns:cc="http://creativecommons.org/ns#"
   xmlns:rdf="http://www.w3.org/1999/02/22-rdf-syntax-ns#"
   xmlns:svg="http://www.w3.org/2000/svg"
   xmlns="http://www.w3.org/2000/svg"
   xmlns:sodipodi="http://sodipodi.sourceforge.net/DTD/sodipodi-0.dtd"
   xmlns:inkscape="http://www.inkscape.org/namespaces/inkscape"
   width="451.60068"
   height="292.16003"
   id="svg4900"
   version="1.1"
   inkscape:version="0.48.4 r9939"
   sodipodi:docname="Nieuw document 27">
  <defs
     id="defs4902" />
  <sodipodi:namedview
     id="base"
     pagecolor="#ffffff"
     bordercolor="#666666"
     borderopacity="1.0"
     inkscape:pageopacity="0.0"
     inkscape:pageshadow="2"
     inkscape:zoom="0.98994949"
     inkscape:cx="432.10656"
     inkscape:cy="63.805867"
     inkscape:document-units="px"
     inkscape:current-layer="layer1"
     showgrid="false"
     fit-margin-top="0"
     fit-margin-left="0"
     fit-margin-right="0"
     fit-margin-bottom="0"
     inkscape:window-width="1600"
     inkscape:window-height="837"
     inkscape:window-x="-8"
     inkscape:window-y="-8"
     inkscape:window-maximized="1" />
  <metadata
     id="metadata4905">
    <rdf:RDF>
      <cc:Work
         rdf:about="">
        <dc:format>image/svg+xml</dc:format>
        <dc:type
           rdf:resource="http://purl.org/dc/dcmitype/StillImage" />
        <dc:title></dc:title>
      </cc:Work>
    </rdf:RDF>
  </metadata>
  <g
     inkscape:label="Laag 1"
     inkscape:groupmode="layer"
     id="layer1"
     transform="translate(-125.62823,-317.71072)">
    <rect
       style="fill:#ffffff;fill-opacity:1;fill-rule:evenodd;stroke:none"
       id="rect4547"
       width="451.60052"
       height="292.15991"
       x="125.62839"
       y="317.71072" />
    <path
       style="fill:#000000;fill-opacity:1;stroke:none"
       d="m 229.37733,317.71087 123.2013,146.4442 -226.9504,-65.7549 0,134.9778 226.9504,-69.2229 -119.9483,145.7157 119.9483,0 0,-145.7157 120.7687,145.7157 103.8814,0 0,-75.4623 -224.6501,-70.2534 224.6501,-67.3003 0,-79.1439 -102.2548,0 -122.3953,146.4442 0,-146.4442 z"
       id="path4553"
       inkscape:connector-curvature="0" />
    <path
       style="fill:#fcdd04;fill-opacity:1"
       d="m 318.69973,601.26747 c -0.6924,-0.3988 -0.8072,-1.1651 -0.4326,-2.8863 0.117,-0.5375 0.1834,-1.0498 0.1476,-1.1383 -0.035,-0.089 -0.5089,-0.2359 -1.0512,-0.327 -1.5539,-0.261 -2.0961,-0.6283 -2.2197,-1.5039 -0.061,-0.4363 -0.014,-0.5532 0.3962,-0.9661 0.4006,-0.4036 0.5493,-0.4696 1.0543,-0.4679 0.3233,0 0.9757,0.089 1.4497,0.1948 0.4738,0.1062 0.9034,0.1484 0.9544,0.094 0.1221,-0.1303 1.1225,-5.3819 1.0402,-5.46 -0.1163,-0.1106 -7.2232,-1.4267 -7.2747,-1.3474 -0.028,0.043 -0.1562,0.6233 -0.2851,1.2894 -0.2022,1.0465 -0.2935,1.2677 -0.6702,1.6257 -0.5266,0.5004 -1.2151,0.5584 -1.8143,0.153 -0.611,-0.4136 -0.7105,-1.0107 -0.4041,-2.4298 0.1644,-0.7617 0.2098,-1.2235 0.1253,-1.2732 -0.073,-0.043 -0.5507,-0.1489 -1.0615,-0.2357 -1.2534,-0.2129 -1.7362,-0.6221 -1.7362,-1.4709 0,-0.489 0.07,-0.6633 0.3922,-0.9689 0.4439,-0.4217 1.0619,-0.4838 2.3013,-0.2313 0.832,0.1696 0.8285,0.1732 1.0579,-1.0747 0.2144,-1.166 0.481,-1.7076 0.9561,-1.941 1.0526,-0.5172 2.1434,0.1189 2.1307,1.2423 0,0.2315 -0.091,0.7937 -0.1965,1.2495 -0.1053,0.4558 -0.1939,0.9215 -0.1966,1.0349 -0.011,0.1681 0.6578,0.3308 3.6114,0.888 1.989,0.3753 3.639,0.6555 3.6667,0.6229 0.028,-0.033 1.1276,-5.6824 2.4438,-12.5546 1.3164,-6.8724 2.4823,-12.6841 2.5907,-12.9152 0.2265,-0.482 0.7642,-0.7913 1.3755,-0.7913 0.6246,0 1.335,0.7106 1.335,1.3353 0,0.2574 -1.0858,6.0972 -2.4131,12.9772 -1.3274,6.8799 -2.3935,12.5279 -2.3692,12.5509 0.025,0.022 1.6583,0.3496 3.6316,0.7258 2.4434,0.4657 3.6034,0.6381 3.6377,0.5406 0.028,-0.079 0.1499,-0.6744 0.2717,-1.3236 0.2835,-1.5111 0.6393,-1.9435 1.5991,-1.9435 0.5146,0 0.698,0.068 1.0196,0.3728 0.4656,0.4422 0.505,0.9577 0.1923,2.5099 -0.2264,1.1251 -0.2253,1.1271 0.7235,1.2622 1.2078,0.1721 1.7574,0.6533 1.7574,1.5388 0,0.3801 -0.089,0.6192 -0.324,0.8589 -0.4382,0.4494 -0.898,0.5351 -1.9154,0.357 -0.472,-0.083 -0.9056,-0.1223 -0.9638,-0.088 -0.059,0.034 -0.1835,0.4809 -0.278,0.9924 -0.234,1.2636 -0.4485,1.7072 -0.9722,2.0106 -0.6462,0.3745 -1.0841,0.3289 -1.642,-0.1711 -0.4102,-0.3677 -0.4786,-0.51 -0.4745,-0.9882 0,-0.3072 0.092,-0.9316 0.1965,-1.3874 0.1064,-0.4558 0.1939,-0.8924 0.1966,-0.97 0.011,-0.1549 -7.0574,-1.5419 -7.1934,-1.4128 -0.065,0.062 -1.1163,5.1819 -1.1199,5.4543 0,0.041 0.4367,0.1493 0.9719,0.24 2.2332,0.3781 2.7868,0.7186 2.7812,1.7101 -0.011,0.8186 -0.6013,1.3565 -1.4978,1.3504 -0.2447,0 -0.958,-0.1108 -1.5853,-0.2423 -0.6274,-0.1318 -1.157,-0.2248 -1.1772,-0.2067 -0.02,0.018 -0.16,0.6516 -0.3109,1.4075 -0.297,1.4891 -0.4953,1.8901 -1.0746,2.1747 -0.4743,0.2332 -0.8937,0.2188 -1.3541,-0.046 z m -48.2203,-0.6568 c -0.1529,-0.058 -0.3862,-0.264 -0.5186,-0.456 -0.3905,-0.5664 -0.2215,-1.233 0.6437,-2.5381 0.4162,-0.6274 0.7564,-1.1885 0.7564,-1.2468 0,-0.058 -0.447,-0.3744 -0.9936,-0.7022 -0.5464,-0.3279 -1.0899,-0.7511 -1.2075,-0.9404 -0.3389,-0.5449 -0.2742,-1.1932 0.1655,-1.6606 0.3145,-0.3345 0.4835,-0.4059 0.9855,-0.4165 0.5105,-0.01 0.7566,0.083 1.5643,0.5928 0.5272,0.3331 1.0126,0.6057 1.0784,0.6057 0.066,0 0.8193,-1.0631 1.674,-2.3626 l 1.5542,-2.3625 -0.9469,-0.5766 c -0.5209,-0.3173 -1.8827,-1.1514 -3.0265,-1.8537 -1.1441,-0.7022 -2.1497,-1.302 -2.2352,-1.3328 -0.086,-0.031 -0.4779,0.4333 -0.8723,1.0316 -0.7531,1.1419 -1.1725,1.464 -1.9061,1.464 -0.3047,0 -0.5546,-0.1254 -0.8958,-0.4496 -0.4281,-0.4068 -0.4671,-0.5023 -0.4081,-0.9991 0.044,-0.3723 0.2873,-0.8784 0.755,-1.571 0.3794,-0.5621 0.6898,-1.0552 0.6898,-1.0957 0,-0.04 -0.3605,-0.2817 -0.8011,-0.536 -0.4407,-0.2544 -0.9237,-0.6261 -1.0734,-0.8259 -0.3811,-0.5085 -0.3525,-1.1701 0.07,-1.6486 0.6316,-0.7132 1.4613,-0.6407 2.8177,0.2462 0.3381,0.2209 0.6282,0.3819 0.6448,0.3575 0.016,-0.024 0.35,-0.5142 0.7407,-1.0887 0.8014,-1.1791 1.1358,-1.4416 1.8354,-1.4416 0.3792,0 0.5931,0.1001 0.961,0.4496 0.4264,0.4052 0.4668,0.503 0.4074,0.9883 -0.044,0.3585 -0.3027,0.8904 -0.775,1.5925 -0.39,0.5799 -0.6849,1.0715 -0.6555,1.0927 0.8483,0.6106 6.2254,3.7663 6.294,3.6937 0.053,-0.056 3.2507,-4.9226 7.1047,-10.8131 3.8542,-5.8906 7.1841,-10.8679 7.3997,-11.0607 0.5861,-0.5242 1.3393,-0.492 1.9443,0.083 0.5018,0.4769 0.5694,0.8516 0.2729,1.515 -0.1011,0.2256 -3.3625,5.2527 -7.2482,11.1711 -3.8855,5.9185 -7.0484,10.7706 -7.0286,10.7825 0.02,0.011 1.4105,0.8638 3.0901,1.8936 1.6798,1.0297 3.0782,1.8721 3.1077,1.8721 0.03,0 0.3895,-0.5059 0.8001,-1.1242 0.7461,-1.1238 1.0624,-1.3929 1.6926,-1.44 0.9073,-0.068 1.5439,0.4919 1.538,1.3529 0,0.399 -0.1691,0.7563 -0.7648,1.642 l -0.7616,1.1319 0.7691,0.4725 c 0.9033,0.5547 1.232,0.9775 1.232,1.5845 0,0.577 -0.5365,1.1898 -1.1348,1.2966 -0.4675,0.083 -1.1941,-0.1676 -2.0369,-0.703 l -0.4209,-0.2676 -0.7867,1.1192 c -0.6641,0.9447 -0.8691,1.1447 -1.3163,1.2833 -1.1619,0.3606 -2.1465,-0.6201 -1.7572,-1.7501 0.059,-0.171 0.3711,-0.7023 0.6939,-1.1807 0.3226,-0.4784 0.5867,-0.9169 0.5867,-0.9743 0,-0.057 -1.2527,-0.8695 -2.7841,-1.8046 -1.5314,-0.9351 -2.9095,-1.777 -3.0627,-1.8707 -0.2653,-0.1623 -0.3495,-0.062 -1.7573,2.0928 -0.8133,1.2448 -1.5213,2.3343 -1.5734,2.4213 -0.062,0.1043 0.2838,0.3907 1.0194,0.8432 1.3011,0.8006 1.5716,1.0598 1.707,1.6352 0.1443,0.6143 -0.1397,1.1701 -0.7357,1.4388 -0.6828,0.3079 -1.1305,0.1913 -2.4389,-0.6354 -0.6082,-0.3842 -1.1516,-0.6968 -1.2076,-0.6945 -0.055,0 -0.4341,0.5235 -0.84,1.1587 -0.4058,0.6351 -0.8982,1.2643 -1.0942,1.3985 -0.3689,0.2526 -1.0495,0.3062 -1.5316,0.1208 z m 210.005,-4.0837 -1.0989,-1.0191 -0.4542,0.4454 c -0.2497,0.2448 -0.6859,0.5979 -0.9693,0.7844 -1.0948,0.7212 -2.3863,0.1369 -2.3832,-1.0782 0,-0.4501 0.3831,-0.9879 1.1522,-1.623 l 0.6219,-0.5134 -0.953,-0.9697 c -1.0796,-1.0985 -1.2278,-1.3758 -1.077,-2.0143 0.1411,-0.5969 0.6751,-1.0256 1.2776,-1.0256 0.6477,0 0.9194,0.1554 1.9531,1.1173 l 0.8957,0.8336 0.4375,-0.3497 c 0.2405,-0.1924 1.4584,-1.2866 2.7065,-2.4319 l 2.2691,-2.0818 -9.5216,-9.0945 c -5.2368,-5.002 -9.6171,-9.2721 -9.7339,-9.4892 -0.4867,-0.9061 0.271,-1.964 1.4066,-1.964 0.4021,0 1.2537,0.7738 10.1727,9.2438 5.3536,5.0842 9.7829,9.2438 9.8431,9.2438 0.06,0 1.2812,-1.0749 2.7138,-2.3886 l 2.6047,-2.3886 -0.9231,-0.8946 c -0.5077,-0.4919 -0.9904,-1.0197 -1.0723,-1.1728 -0.2753,-0.5139 -0.1803,-1.1292 0.24,-1.5569 0.3292,-0.3348 0.4872,-0.396 1.0227,-0.396 0.6121,0 0.6717,0.036 1.7603,1.045 l 1.1267,1.0451 0.721,-0.6766 c 0.6093,-0.5717 0.8165,-0.687 1.3357,-0.7425 0.5657,-0.061 0.6518,-0.03 1.0875,0.3838 0.3856,0.3664 0.4732,0.5453 0.4732,0.9652 0,0.4494 -0.097,0.6148 -0.7534,1.2888 -0.8593,0.882 -0.8905,0.7179 0.3798,2.0033 0.4269,0.4322 0.7829,0.8912 0.7912,1.02 0.056,0.9043 -0.3275,1.5216 -1.0259,1.6459 -0.7515,0.134 -1.1268,-0.038 -2.1614,-0.9914 l -0.9797,-0.9028 -2.2512,2.046 c -1.2382,1.1253 -2.4303,2.2254 -2.6492,2.4446 l -0.3979,0.3984 2.1073,2.0026 2.1073,2.0023 0.9742,-0.9083 c 1.1085,-1.0335 1.4567,-1.2374 2.0757,-1.2153 0.8054,0.029 1.3819,0.6139 1.3799,1.4002 0,0.4605 -0.289,0.8374 -1.4079,1.8435 l -0.9394,0.8445 1.1257,1.0799 c 1.0609,1.0181 1.1291,1.1168 1.1904,1.7232 0.059,0.5864 0.029,0.6774 -0.3436,1.0315 -0.3375,0.3208 -0.5167,0.3883 -1.0289,0.3883 -0.5988,0 -0.6628,-0.038 -1.864,-1.1434 l -1.244,-1.1436 -0.729,0.7074 c -1.0095,0.9792 -1.581,1.2464 -2.2815,1.0672 -0.6336,-0.162 -1.0629,-0.7202 -1.0637,-1.3828 0,-0.3618 0.1569,-0.5828 1.0017,-1.4078 l 1.0025,-0.9788 -2.1106,-2.0026 -2.1106,-2.0027 -2.6821,2.4743 -2.6824,2.4742 0.8906,0.8725 c 1.0216,1.0007 1.191,1.2653 1.1847,1.8521 -0.011,0.722 -0.6618,1.2515 -1.546,1.2515 -0.4375,0 -0.6225,-0.1183 -1.5937,-1.0191 z m 28.1531,-40.0278 c -0.4398,-0.178 -0.8571,-0.7664 -0.8571,-1.2086 0,-0.2205 0.2091,-0.8157 0.4648,-1.3226 l 0.4649,-0.9217 -1.1885,-0.5672 c -0.6537,-0.312 -1.3157,-0.7209 -1.4712,-0.9087 -0.6243,-0.7542 -0.1361,-1.9872 0.8566,-2.1641 0.3613,-0.064 0.7247,0.036 1.8071,0.4974 l 1.3548,0.5779 1.6635,-3.1592 1.6634,-3.1594 -12.0994,-5.5252 c -7.5441,-3.445 -12.2637,-5.6701 -12.5357,-5.91 -1.0627,-0.9378 -0.1053,-2.577 1.3171,-2.2538 0.2534,0.058 5.8623,2.5784 12.4638,5.6019 6.6019,3.0235 12.0508,5.4972 12.109,5.4972 0.091,0 3.3272,-6.0111 3.3272,-6.1815 0,-0.035 -0.537,-0.3198 -1.1932,-0.6329 -0.6563,-0.3133 -1.3205,-0.7232 -1.4761,-0.911 -0.6243,-0.7542 -0.1361,-1.9872 0.8566,-2.1641 0.362,-0.064 0.727,0.037 1.826,0.5054 0.7555,0.3223 1.3847,0.5718 1.3981,0.5544 0.014,-0.017 0.2171,-0.3759 0.4526,-0.7967 0.4985,-0.8907 0.9009,-1.2123 1.5452,-1.2352 0.9323,-0.033 1.6448,0.8066 1.4334,1.6898 -0.057,0.2408 -0.2349,0.6796 -0.394,0.9748 -0.159,0.2953 -0.2891,0.5849 -0.2891,0.6438 0,0.059 0.4845,0.3315 1.0767,0.6059 1.2459,0.5772 1.5892,0.8776 1.69,1.4784 0.1486,0.8852 -0.486,1.5859 -1.4154,1.5626 -0.2746,-0.01 -0.953,-0.2377 -1.5837,-0.539 -0.6069,-0.2899 -1.1348,-0.5273 -1.173,-0.5273 -0.079,0 -3.2913,6.0674 -3.2897,6.2147 0,0.089 5.0867,2.4554 5.2778,2.4554 0.047,0 0.3565,-0.513 0.688,-1.14 0.7546,-1.4279 1.1438,-1.7925 1.9124,-1.7925 0.436,0 0.6695,0.084 0.9957,0.3619 0.6437,0.5464 0.5896,1.2308 -0.2086,2.6333 -0.3385,0.5954 -0.6159,1.1111 -0.6159,1.1461 0,0.035 0.6138,0.3566 1.3636,0.7142 1.4342,0.6837 1.7864,0.9713 1.9113,1.5593 0.085,0.3975 -0.1668,1.0814 -0.4914,1.337 -0.5205,0.41 -1.0871,0.3359 -2.6531,-0.347 -0.8285,-0.3614 -1.522,-0.6406 -1.5408,-0.6204 -0.018,0.021 -0.2829,0.5089 -0.5864,1.0858 -0.6138,1.1658 -1.0069,1.4953 -1.7835,1.4953 -0.3973,0 -0.6098,-0.091 -0.9346,-0.3994 -0.5948,-0.5653 -0.5664,-1.1039 0.1275,-2.4153 l 0.5477,-1.0352 -2.6907,-1.2354 c -1.4799,-0.6794 -2.7077,-1.2175 -2.7284,-1.1957 -0.073,0.075 -3.2879,6.2217 -3.2879,6.2845 0,0.035 0.537,0.3198 1.1932,0.633 1.4704,0.7017 1.8104,1.0652 1.7193,1.8388 -0.043,0.3688 -0.1809,0.6666 -0.4075,0.8818 -0.5256,0.4994 -1.2486,0.4417 -2.6026,-0.2079 -0.6073,-0.2913 -1.1541,-0.5296 -1.2152,-0.5296 -0.061,0 -0.3093,0.3872 -0.5513,0.8606 -0.2421,0.4734 -0.5874,0.9649 -0.7677,1.0923 -0.3917,0.2771 -1.0836,0.3818 -1.4756,0.2231 z m -188.2608,-13.1424 c -0.4326,-0.1656 -0.7705,-0.7343 -0.7478,-1.2597 0.011,-0.2532 0.2678,-1.0264 0.5712,-1.7182 0.3034,-0.6919 0.5182,-1.2896 0.4773,-1.3283 -0.04,-0.039 -0.5675,-0.2784 -1.1708,-0.5327 -0.6276,-0.2648 -1.2092,-0.6058 -1.3598,-0.7974 -0.3711,-0.4724 -0.3517,-1.2957 0.04,-1.6917 0.6321,-0.6395 1.326,-0.6162 2.9729,0.1 l 0.7573,0.3291 1.0849,-2.4709 c 0.5968,-1.3589 1.1013,-2.5409 1.1213,-2.6265 0.032,-0.1395 -6.2978,-2.8975 -6.6877,-2.9136 -0.083,0 -0.3754,0.5058 -0.6516,1.1316 -0.2762,0.6259 -0.6454,1.2659 -0.8204,1.422 -0.4243,0.379 -1.3262,0.4052 -1.8282,0.053 -0.7424,-0.5203 -0.734,-1.1438 0.037,-2.8254 0.2374,-0.5177 0.408,-0.9616 0.3788,-0.9865 -0.029,-0.025 -0.5098,-0.2446 -1.0681,-0.488 -0.852,-0.3716 -1.0537,-0.5202 -1.2564,-0.9264 -0.3259,-0.6526 -0.1182,-1.3692 0.501,-1.7278 0.5818,-0.3372 0.8843,-0.3154 2.0551,0.1479 0.5522,0.2183 1.0199,0.3761 1.0394,0.3505 0.019,-0.026 0.2375,-0.5055 0.4842,-1.0665 0.6078,-1.3818 1.0276,-1.7888 1.8274,-1.7725 0.7726,0.015 1.2501,0.4244 1.3538,1.1593 0.056,0.4025 -0.03,0.7328 -0.4125,1.572 -0.2665,0.5843 -0.4844,1.1238 -0.4844,1.1993 0,0.1815 6.7442,2.9627 6.8075,2.8073 0.027,-0.067 2.3908,-5.4538 5.2529,-11.9723 5.6213,-12.8027 5.3951,-12.3675 6.4296,-12.3675 0.969,0 1.6151,0.8032 1.3796,1.7155 -0.063,0.2455 -2.4164,5.6876 -5.2291,12.094 -2.8127,6.4063 -5.113,11.6848 -5.112,11.73 0,0.097 6.6986,2.8761 6.7643,2.8071 0.025,-0.026 0.2672,-0.542 0.5391,-1.1468 0.6143,-1.3669 1.0562,-1.804 1.8241,-1.804 0.4456,0 0.6409,0.081 0.9799,0.4025 0.5672,0.5391 0.5442,1.1392 -0.098,2.5444 -0.267,0.5847 -0.4853,1.1022 -0.4853,1.1497 0,0.048 0.3656,0.2245 0.8126,0.3932 1.4661,0.5534 1.9119,1.5718 1.0767,2.46 -0.3294,0.3503 -0.4835,0.4159 -0.9726,0.4135 -0.3199,0 -0.9278,-0.1411 -1.3514,-0.3097 -0.4234,-0.1687 -0.7895,-0.2822 -0.8138,-0.252 -0.024,0.03 -0.246,0.5137 -0.4929,1.0746 -0.5678,1.2906 -0.8716,1.6032 -1.637,1.6852 -0.5013,0.053 -0.6576,0.011 -1.0176,-0.2768 -0.672,-0.5373 -0.6962,-1.0281 -0.1165,-2.3747 0.2678,-0.6225 0.4871,-1.1823 0.4871,-1.2439 0,-0.1721 -6.5877,-2.8657 -6.7081,-2.7428 -0.1177,0.1204 -2.2901,5.052 -2.2439,5.094 0.016,0.014 0.6802,0.316 1.4757,0.6694 1.2932,0.5748 1.4681,0.6925 1.6528,1.1124 0.4351,0.9896 -0.2207,1.9186 -1.3314,1.8855 -0.3135,-0.01 -0.9738,-0.1972 -1.4995,-0.4264 -1.6443,-0.7177 -1.4224,-0.7938 -2.0723,0.71 -0.6412,1.4839 -1.0872,1.9698 -1.7956,1.9564 -0.2342,0 -0.5581,-0.058 -0.7199,-0.1208 z m 106.8321,-8.4409 c -0.9284,-0.5114 -0.9698,-1.2508 -0.1386,-2.4701 0.3305,-0.4849 0.6021,-0.9174 0.6039,-0.9611 0,-0.044 -0.4663,-0.3722 -1.0398,-0.7299 -1.3911,-0.8679 -1.7937,-1.5668 -1.3529,-2.3493 0.546,-0.9696 1.495,-0.9615 2.9973,0.025 0.558,0.3666 1.0747,0.6474 1.1481,0.624 0.074,-0.023 1.0613,-1.3042 2.1946,-2.8466 1.5222,-2.0711 2.0212,-2.841 1.9094,-2.9455 -0.084,-0.078 -5.1328,-3.3101 -11.221,-7.1833 -6.0883,-3.873 -11.1712,-7.1651 -11.2954,-7.3157 -0.3402,-0.4125 -0.4205,-1.0404 -0.1879,-1.4677 0.2542,-0.4673 1.047,-0.8376 1.5773,-0.7366 0.2171,0.041 5.4179,3.2774 11.5573,7.1917 6.1393,3.9144 11.2251,7.1527 11.3016,7.1964 0.1043,0.059 3.6307,-4.5637 4.2504,-5.5718 0.062,-0.1017 -0.3028,-0.4155 -1.0511,-0.9035 -0.6306,-0.4111 -1.2321,-0.9049 -1.3368,-1.0971 -0.3771,-0.6934 -0.169,-1.4436 0.5061,-1.8225 0.6375,-0.3579 1.2739,-0.2021 2.5276,0.6183 0.6002,0.3929 1.1128,0.7144 1.1389,0.7144 0.026,0 0.2961,-0.3364 0.5996,-0.7473 0.3034,-0.411 0.7026,-0.8127 0.887,-0.8925 0.9991,-0.4326 2.052,0.1618 2.0924,1.1813 0.016,0.3975 -0.2795,0.9889 -0.9079,1.8192 -0.2035,0.2687 -0.18,0.2959 0.7941,0.9205 1.1215,0.7191 1.5648,1.2164 1.5639,1.7547 0,0.9111 -1.0153,1.624 -1.8951,1.3325 -0.2265,-0.075 -0.7832,-0.3857 -1.2373,-0.6904 -0.4538,-0.3048 -0.8962,-0.5932 -0.9831,-0.6413 -0.101,-0.056 -0.9136,0.9488 -2.2591,2.793 -1.156,1.5843 -2.0812,2.8965 -2.0563,2.9162 0.055,0.044 4.5372,2.9015 4.7662,3.0391 0.1106,0.067 0.441,-0.2748 1.0092,-1.0429 0.4645,-0.6279 1.0048,-1.2317 1.2008,-1.3418 0.9661,-0.5432 2.1126,0.085 2.1217,1.1624 0.011,0.5142 -0.4594,1.3149 -1.4929,2.5776 l -0.2507,0.3063 1.2648,0.8036 c 1.411,0.8967 1.6908,1.1934 1.6908,1.7935 0,0.5701 -0.2236,0.9813 -0.6696,1.2316 -0.6589,0.3699 -1.0868,0.2703 -2.4262,-0.5655 -0.6859,-0.4279 -1.3195,-0.8045 -1.4085,-0.8369 -0.089,-0.033 -0.4692,0.3559 -0.8452,0.8631 -0.9999,1.3485 -1.5636,1.6251 -2.4372,1.1958 -0.5219,-0.2567 -0.8494,-0.8735 -0.7556,-1.4235 0.04,-0.2364 0.3359,-0.787 0.6568,-1.2235 0.3209,-0.4364 0.6284,-0.863 0.6836,-0.948 0.067,-0.1041 -0.6891,-0.6556 -2.3172,-1.6895 -1.3295,-0.8441 -2.4638,-1.5324 -2.5206,-1.5298 -0.1094,0.01 -4.0034,5.3131 -4.1327,5.6328 -0.051,0.1278 0.2429,0.3964 0.9295,0.8475 0.5528,0.3631 1.1293,0.8102 1.281,0.9935 0.5899,0.7125 0.1631,1.8381 -0.7893,2.0817 -0.6142,0.1572 -0.8593,0.069 -2.1859,-0.7843 -0.423,-0.272 -0.8502,-0.5242 -0.9496,-0.5605 -0.1112,-0.04 -0.3983,0.2288 -0.7469,0.7013 -0.3114,0.422 -0.6979,0.8546 -0.8583,0.9614 -0.3426,0.2281 -1.1257,0.2487 -1.5052,0.039 z m -259.1132,-30.7594 c -0.6916,-0.2809 -0.8557,-0.6298 -0.8557,-1.8184 l 0,-1.0553 -1.2031,0 c -1.4076,0 -2.0125,-0.2119 -2.3613,-0.8273 -0.3176,-0.5605 -0.173,-1.2262 0.359,-1.6514 0.3827,-0.3062 0.4982,-0.3264 1.8566,-0.3264 l 1.4484,0 0.083,-1.3706 c 0.045,-0.7539 0.1211,-2.3229 0.1687,-3.4869 l 0.086,-2.1164 -2.9001,-0.092 c -1.5951,-0.051 -2.9614,-0.056 -3.036,-0.011 -0.078,0.045 -0.1359,0.6443 -0.1359,1.3922 0,1.156 -0.036,1.3641 -0.3067,1.7457 -0.192,0.271 -0.5002,0.4938 -0.8231,0.5949 -0.4478,0.1402 -0.5806,0.1318 -1.0004,-0.064 -0.7185,-0.3346 -0.8277,-0.6494 -0.8068,-2.3291 l 0.018,-1.4662 -1.5932,-0.064 c -1.6785,-0.068 -2.0481,-0.1756 -2.4156,-0.7085 -0.3075,-0.4458 -0.1719,-1.2735 0.2785,-1.7017 0.335,-0.3184 0.418,-0.3328 2.157,-0.3755 l 1.8084,-0.045 0,-1.067 c 0,-1.5556 0.3287,-2.1078 1.3588,-2.2824 0.5533,-0.094 1.2673,0.2819 1.4622,0.769 0.071,0.1798 0.1308,0.8593 0.1308,1.51 l 0,1.1832 1.9121,0.083 c 1.0515,0.045 2.3721,0.083 2.9346,0.083 l 1.0225,0 0.082,-0.9882 c 0.045,-0.5434 0.1206,-2.1446 0.1694,-3.5579 l 0.088,-2.5698 -1.4173,-0.044 c -1.1835,-0.037 -1.48,-0.088 -1.7958,-0.3112 -0.5396,-0.381 -0.7666,-1.0872 -0.5257,-1.6354 0.3199,-0.7269 0.6267,-0.8387 2.3057,-0.8387 l 1.4949,0 0.086,-0.5914 c 0.047,-0.3254 0.086,-0.8189 0.086,-1.0965 0,-0.4079 0.092,-0.5916 0.4733,-0.9548 0.434,-0.4123 0.5233,-0.4443 1.0788,-0.3848 0.333,0.036 0.7243,0.1669 0.8692,0.2915 0.3881,0.3337 0.5696,1.1373 0.4654,2.0612 l -0.089,0.8023 0.9833,0.01 c 2.0936,0.011 2.862,0.4042 2.862,1.4613 0,0.4679 -0.074,0.6396 -0.4239,0.971 l -0.4239,0.4029 -1.5312,-0.022 -1.5311,-0.021 -0.1519,3.5371 c -0.083,1.9453 -0.1399,3.5459 -0.1248,3.5568 0.015,0.011 6.0351,0.1475 13.3778,0.3036 8.8588,0.1882 13.5272,0.3333 13.8755,0.4311 0.2885,0.081 0.6414,0.2974 0.7842,0.4809 0.5453,0.7008 0.2143,1.8 -0.6278,2.0849 -0.2409,0.082 -4.82,0.025 -13.4711,-0.1645 -7.2083,-0.1585 -13.3244,-0.2857 -13.5914,-0.2829 l -0.4854,0.01 -0.087,2.1356 c -0.048,1.1747 -0.1235,2.7433 -0.168,3.486 l -0.082,1.3504 1.4295,0.083 c 2.0503,0.1193 2.6154,0.4914 2.4564,1.6178 -0.1452,1.03 -0.7463,1.2912 -2.7137,1.1796 l -1.2746,-0.072 0,0.7878 c 0,0.4334 -0.086,0.9824 -0.19,1.2201 -0.3193,0.7261 -1.173,1.0735 -1.906,0.7758 z m 77.0337,-24.2822 c -0.6698,-0.278 -0.9132,-0.7251 -0.9784,-1.7955 l -0.062,-1.0213 -1.2487,0 c -0.6869,0 -1.4098,-0.058 -1.6065,-0.1292 -0.9303,-0.3362 -1.1739,-1.4533 -0.4781,-2.1932 0.3881,-0.4126 0.3937,-0.4141 1.8785,-0.4623 l 1.4892,-0.049 0,-3.4924 0,-3.4921 -2.3146,0 c -1.2729,0 -2.6267,0.037 -3.0083,0.081 l -0.6939,0.08 -0.044,1.5643 c -0.05,1.7624 -0.1552,1.9879 -1.0504,2.2428 -0.4021,0.1144 -0.5714,0.1019 -0.9162,-0.068 -0.7419,-0.3646 -0.8896,-0.7299 -0.9432,-2.3325 l -0.048,-1.4403 -1.5197,0 c -0.836,0 -1.6717,-0.055 -1.857,-0.1218 -0.7998,-0.2889 -1.0764,-1.5118 -0.4788,-2.1161 0.4238,-0.4287 1.0434,-0.5656 2.5634,-0.5664 l 1.2953,0 0.097,-1.3477 c 0.083,-1.154 0.1424,-1.3994 0.4148,-1.707 0.6125,-0.6917 1.7456,-0.5857 2.2972,0.2152 0.1837,0.2665 0.2361,0.613 0.2361,1.5592 l 0,1.2166 0.369,-0.01 c 0.203,0 1.5463,-0.019 2.9854,-0.032 l 2.6165,-0.023 0,-3.57 0,-3.5701 -1.3486,0 c -1.3978,0 -1.8461,-0.1175 -2.3114,-0.6061 -0.3336,-0.3503 -0.3364,-1.1113 -0.011,-1.5349 0.4323,-0.5535 0.8011,-0.66 2.2899,-0.6621 l 1.3753,0 0,-1.0649 c 0,-0.8974 0.048,-1.1327 0.3062,-1.4964 0.3808,-0.537 0.8633,-0.7126 1.5222,-0.5538 0.8022,0.1931 1.0481,0.6377 1.104,1.9949 l 0.047,1.1566 1.2003,-0.082 c 1.8118,-0.1221 2.5956,0.2989 2.5956,1.3939 0,1.0628 -0.7392,1.4129 -3.0525,1.4452 l -0.7716,0.01 0,3.5063 0,3.5063 1.845,0 c 1.0148,0 6.1923,-0.086 11.5058,-0.1886 5.3132,-0.1023 10.6781,-0.1874 11.9215,-0.1888 l 2.2609,0 0.4562,0.4335 c 0.6785,0.6447 0.5996,1.495 -0.1902,2.0507 -0.2915,0.2053 -0.6126,0.2598 -1.7015,0.2887 -2.6975,0.072 -22.9905,0.4154 -24.521,0.415 l -1.5767,0 0,3.57 0,3.57 1.5566,0 1.5563,0 0.4733,0.4498 c 0.4364,0.4145 0.4679,0.4954 0.4039,1.036 -0.052,0.4461 -0.1614,0.6561 -0.4533,0.8785 -0.4837,0.3685 -0.8664,0.4408 -2.332,0.4408 l -1.1772,0 -0.047,1.0809 c -0.041,0.9572 -0.087,1.1182 -0.3901,1.4065 -0.3697,0.3513 -1.1037,0.5087 -1.5358,0.3293 z m -77.1661,-24.8099 c -0.7309,-0.2962 -0.9007,-0.6106 -0.9657,-1.7895 l -0.06,-1.0802 -1.1951,0 c -1.462,0 -1.9968,-0.1858 -2.3039,-0.8003 -0.2905,-0.5818 -0.2822,-0.8291 0.045,-1.3385 0.3596,-0.5604 0.7208,-0.6661 2.2757,-0.6661 l 1.3195,0 0.078,-1.5619 c 0.043,-0.859 0.1043,-2.4369 0.1377,-3.5064 l 0.061,-1.9443 -2.9888,0 -2.9886,0 -0.077,1.3934 c -0.043,0.7664 -0.1512,1.5243 -0.2411,1.6841 -0.5273,0.9362 -1.8696,1.0194 -2.4794,0.1535 -0.2209,-0.3136 -0.25,-0.5629 -0.2178,-1.8604 l 0.037,-1.4981 -1.5565,0 c -1.8044,0 -2.1911,-0.1289 -2.5514,-0.8499 -0.2136,-0.4281 -0.2189,-0.532 -0.051,-0.9808 0.2971,-0.7956 0.7927,-0.9743 2.7011,-0.9743 l 1.5787,0 0,-1.0878 c 0,-1.6682 0.4525,-2.3548 1.5518,-2.3548 0.3759,0 0.5925,0.099 0.9439,0.4336 l 0.4562,0.4335 0,1.3515 0,1.3515 2.9437,0 2.9436,0 0.069,-0.5419 c 0.037,-0.2981 0.1043,-1.9047 0.1452,-3.5701 l 0.077,-3.028 -1.261,0 c -1.4288,0 -2.068,-0.1876 -2.4301,-0.7129 -0.3504,-0.508 -0.2042,-1.2926 0.3248,-1.7416 0.3997,-0.3394 0.4623,-0.3507 1.9539,-0.3507 l 1.5409,0 0,-0.9626 c 0,-1.4442 0.4682,-2.0974 1.5036,-2.0974 0.368,0 0.6234,0.1008 0.943,0.372 0.4288,0.3639 0.4391,0.3979 0.4848,1.5937 l 0.046,1.2219 1.2683,0 c 1.3597,0 1.8752,0.1523 2.2533,0.6651 0.3456,0.4689 0.2675,1.1815 -0.1819,1.6598 l -0.391,0.4164 -1.5407,0.042 -1.5404,0.042 -0.08,2.0613 c -0.044,1.1337 -0.1001,2.7017 -0.1241,3.4845 l -0.045,1.4232 1.4854,0.07 c 0.8171,0.039 6.9373,0.1295 13.6005,0.2018 13.1437,0.1427 12.623,0.1095 13.1262,0.8393 0.2861,0.4148 0.1765,1.254 -0.2157,1.6504 -0.1589,0.1607 -0.4777,0.3282 -0.7088,0.372 -0.3674,0.069 -15.9194,-0.075 -24.3393,-0.2268 l -2.9747,-0.053 -0.072,1.0389 c -0.041,0.5713 -0.1054,2.1719 -0.1444,3.5569 l -0.07,2.5181 1.3476,0 c 1.3893,0 1.8568,0.121 2.29,0.5927 0.3119,0.3394 0.3897,0.9375 0.1833,1.407 -0.2838,0.6456 -0.7746,0.8054 -2.474,0.8054 l -1.4826,0 0,0.8989 c 0,0.5254 -0.079,1.0437 -0.1898,1.2475 -0.3133,0.5758 -1.1359,0.8525 -1.7702,0.5956 z m 245.7859,-26.538 c -0.7559,-0.3627 -1.0174,-1.1209 -0.6312,-1.8305 0.1185,-0.2179 4.4071,-3.6082 10.4993,-8.3005 5.6643,-4.3625 10.4109,-8.0313 10.5478,-8.153 0.2404,-0.2132 0.1697,-0.3173 -1.9997,-2.9452 -1.2369,-1.4982 -2.2665,-2.7449 -2.2881,-2.7704 -0.021,-0.025 -0.5241,0.3181 -1.1169,0.7636 -0.5927,0.4455 -1.2379,0.8507 -1.4336,0.9005 -0.941,0.2391 -1.8001,-0.4035 -1.7923,-1.3408 0.011,-0.631 0.1408,-0.7998 1.438,-1.7925 0.535,-0.4096 0.9728,-0.7752 0.9728,-0.8127 0,-0.038 -0.2019,-0.3034 -0.4489,-0.5912 -0.6103,-0.7116 -0.7587,-1.0063 -0.7587,-1.5064 0,-0.8224 0.8212,-1.456 1.6873,-1.3016 0.3518,0.063 0.6488,0.2751 1.1665,0.8339 0.382,0.4124 0.7334,0.7497 0.7809,0.7497 0.047,0 0.502,-0.3165 1.0101,-0.7034 1.0155,-0.7733 1.5246,-0.9664 2.1263,-0.8067 0.5962,0.1581 0.8985,0.5201 0.9753,1.1688 0.084,0.7002 -0.095,0.9515 -1.33,1.8879 -0.4665,0.3533 -0.8669,0.6909 -0.8896,0.7503 -0.04,0.1047 4.1763,5.2842 4.417,5.4255 0.088,0.052 3.4893,-2.4573 4.5816,-3.3798 0.055,-0.047 -0.3129,-0.6047 -0.8193,-1.2395 -0.9754,-1.2224 -1.108,-1.5279 -0.9364,-2.1572 0.145,-0.532 0.5216,-0.8266 1.1605,-0.908 0.7452,-0.095 1.1769,0.1856 2.1198,1.3771 0.4341,0.5486 0.8269,0.9996 0.873,1.0024 0.046,0 0.6101,-0.3948 1.2532,-0.8837 1.4931,-1.135 2.0802,-1.2651 2.8726,-0.6362 0.4167,0.3305 0.5476,1.2563 0.2409,1.7013 -0.1171,0.1698 -0.6834,0.6684 -1.2583,1.1078 -0.575,0.4394 -1.0991,0.8433 -1.1646,0.8972 -0.065,0.054 0.182,0.4628 0.5506,0.9082 0.8586,1.0382 0.9775,1.2583 0.9775,1.8088 0,0.3201 -0.1148,0.5749 -0.3915,0.8691 -0.3359,0.3572 -0.4805,0.4164 -1.0153,0.4164 -0.568,0 -0.6742,-0.052 -1.1851,-0.5778 -0.3088,-0.3179 -0.7424,-0.7965 -0.9638,-1.0637 l -0.4026,-0.4861 -2.3118,1.7865 -2.3118,1.7865 2.2447,2.7211 c 1.2345,1.4965 2.3052,2.7382 2.3789,2.7591 0.073,0.022 0.587,-0.3019 1.1406,-0.7176 0.5534,-0.4157 1.1996,-0.7959 1.4361,-0.845 0.6185,-0.1285 1.3627,0.237 1.6053,0.7884 0.3446,0.7836 0.037,1.3298 -1.3104,2.3373 l -1.0442,0.7801 0.6965,0.842 c 0.6143,0.7427 0.6964,0.9126 0.6964,1.4404 0,0.7126 -0.2837,1.0721 -1.0089,1.2785 -0.7013,0.1997 -1.2901,-0.099 -2.0661,-1.0489 l -0.6233,-0.7625 -0.8043,0.6108 c -1.1886,0.9029 -1.4834,1.0558 -2.0364,1.0567 -0.3647,0 -0.6202,-0.1007 -0.9392,-0.3714 -0.3759,-0.3192 -0.4382,-0.4566 -0.4382,-0.9648 0,-0.5389 0.054,-0.6414 0.6049,-1.1261 0.3328,-0.2935 0.8698,-0.7366 1.1934,-0.985 l 0.5884,-0.4516 -2.2667,-2.7596 c -1.2469,-1.5178 -2.2971,-2.7623 -2.334,-2.7658 -0.036,0 -4.7162,3.584 -10.3987,7.9722 -5.6822,4.3883 -10.4555,8.0585 -10.6069,8.1563 -0.4536,0.2928 -1.0294,0.3312 -1.5094,0.1008 z m -76.2177,-1.3287 c -0.1727,-0.067 -0.4253,-0.2501 -0.5612,-0.4077 -0.1361,-0.1577 -2.6514,-5.5782 -5.5897,-12.0452 -2.9385,-6.4674 -5.3974,-11.7603 -5.4645,-11.7621 -0.1092,0 -6.6605,2.5283 -6.7633,2.6132 -0.023,0.02 0.2032,0.5829 0.5032,1.2527 0.5986,1.3366 0.6392,1.5809 0.3509,2.1106 -0.4096,0.7527 -1.2668,0.9796 -2.0302,0.5372 -0.4212,-0.244 -0.5598,-0.4666 -1.1982,-1.927 -0.1992,-0.4558 -0.3786,-0.8456 -0.3987,-0.8661 -0.02,-0.021 -0.3832,0.1086 -0.8075,0.2869 -1.1242,0.4724 -1.7343,0.4375 -2.2987,-0.1311 -0.8486,-0.8549 -0.4712,-1.7393 1.0198,-2.391 l 0.9272,-0.405 -0.455,-1.02 c -0.6823,-1.5302 -0.5963,-2.406 0.2753,-2.7989 0.5435,-0.2451 0.7784,-0.2474 1.256,-0.013 0.4716,0.2317 0.6765,0.529 1.2208,1.7717 0.3411,0.7785 0.4816,0.9753 0.6535,0.9148 0.4555,-0.1602 6.5276,-2.5336 6.5782,-2.5713 0.039,-0.029 -2.2104,-5.1048 -2.317,-5.2285 -0.011,-0.011 -0.5827,0.2043 -1.2738,0.4782 -1.6032,0.635 -2.2429,0.659 -2.8254,0.1056 -0.5972,-0.5676 -0.544,-1.5149 0.1121,-1.9947 0.1897,-0.1388 1.5396,-0.7107 2.4724,-1.0478 l 0.345,-0.1246 -0.5977,-1.2988 c -0.6794,-1.476 -0.7444,-2.0429 -0.2952,-2.5752 0.3978,-0.4717 1.2077,-0.6548 1.7397,-0.3935 0.4637,0.228 0.7591,0.67 1.3384,2.0034 0.2411,0.555 0.5026,1.0324 0.5809,1.0611 0.079,0.028 0.5861,-0.1217 1.128,-0.3342 1.4507,-0.5684 2.2755,-0.4929 2.7376,0.2501 0.5655,0.9096 0.07,1.6603 -1.5258,2.3175 -0.7175,0.2951 -1.1196,0.5299 -1.0923,0.6374 0.1414,0.5545 2.2438,4.9516 2.3676,4.9516 0.1462,0 6.661,-2.5255 6.7663,-2.6231 0.029,-0.026 -0.1681,-0.5524 -0.4381,-1.1674 -0.2702,-0.6151 -0.4903,-1.3258 -0.4892,-1.5792 0,-0.599 0.413,-1.0868 1.0725,-1.2747 0.4492,-0.1277 0.58,-0.1145 0.9656,0.098 0.4637,0.2558 0.6566,0.5469 1.3138,1.9839 l 0.3919,0.8562 0.9652,-0.3782 c 0.531,-0.2081 1.1231,-0.378 1.316,-0.3778 0.9569,0 1.6953,1.0054 1.3407,1.8239 -0.2301,0.5313 -0.5516,0.7722 -1.509,1.1316 -0.433,0.1625 -0.8136,0.3589 -0.8459,0.4369 -0.032,0.078 0.156,0.634 0.4182,1.2358 0.2621,0.6019 0.4767,1.2658 0.4767,1.4752 0,0.5504 -0.7634,1.2912 -1.3307,1.2912 -0.9387,0 -1.4227,-0.5101 -2.0912,-2.2036 -0.1323,-0.3353 -0.2858,-0.6362 -0.3411,-0.6688 -0.1086,-0.064 -6.5612,2.433 -6.7505,2.6123 -0.063,0.06 2.2665,5.3349 5.2213,11.8189 2.935,6.4406 5.3636,11.8688 5.397,12.0626 0.1676,0.9762 -0.9975,1.8611 -1.9619,1.4894 z m 183.5762,-26.1894 c -0.3357,-0.1388 -0.5317,-0.3873 -0.9257,-1.1744 -0.275,-0.5491 -0.5132,-1.0148 -0.5296,-1.035 -0.016,-0.021 -0.5837,0.195 -1.2605,0.4782 -0.6771,0.283 -1.3834,0.5147 -1.5694,0.5147 -0.7997,0 -1.3866,-0.5775 -1.391,-1.3687 -0.011,-0.7237 0.4435,-1.1608 1.7414,-1.7014 0.5534,-0.2304 1.0577,-0.4603 1.1204,-0.5106 0.093,-0.074 -2.4556,-5.7493 -2.8459,-6.3386 -0.083,-0.1249 -3.1306,1.1715 -12.3649,5.2594 -8.307,3.6772 -12.3969,5.4249 -12.695,5.4249 -0.6331,0 -1.0645,-0.2257 -1.331,-0.6959 -0.2933,-0.5176 -0.1826,-1.1911 0.2614,-1.5872 0.175,-0.1563 5.8021,-2.7123 12.505,-5.68 6.7028,-2.9679 12.2068,-5.4533 12.2315,-5.5234 0.045,-0.1278 -2.7177,-6.1397 -2.893,-6.2957 -0.051,-0.045 -0.6002,0.1406 -1.2195,0.4144 -1.4516,0.6415 -2.1359,0.669 -2.725,0.1093 -0.3741,-0.3556 -0.4031,-0.4438 -0.3427,-1.0414 0.079,-0.7705 0.2837,-0.9509 1.8414,-1.6148 0.5557,-0.2367 1.0577,-0.4709 1.1153,-0.5205 0.057,-0.05 -0.047,-0.4005 -0.2334,-0.7804 -0.6232,-1.272 -0.3508,-2.2569 0.7004,-2.5327 0.8183,-0.2145 1.3422,0.1207 1.9104,1.2222 l 0.4695,0.9105 1.126,-0.4962 c 0.6719,-0.2958 1.3274,-0.4959 1.6256,-0.4959 0.6454,0 1.1559,0.3829 1.3559,1.0173 0.256,0.8117 -0.084,1.2155 -1.6431,1.9521 l -1.2922,0.6108 1.4583,3.0868 c 0.8021,1.6978 1.4776,3.1396 1.5014,3.2042 0.032,0.086 5.2068,-2.0859 5.4306,-2.2794 0.019,-0.017 -0.2359,-0.6277 -0.5681,-1.357 -0.6685,-1.4677 -0.6975,-1.6211 -0.4078,-2.1534 0.2779,-0.5105 0.7104,-0.7664 1.2952,-0.7664 0.7377,0 1.1881,0.439 1.7889,1.7441 0.2848,0.6186 0.5572,1.1689 0.6053,1.223 0.048,0.054 0.6636,-0.1611 1.3682,-0.4782 1.7691,-0.7963 2.6778,-0.7585 3.1215,0.13 0.498,0.9971 0.1264,1.4898 -1.7892,2.3725 l -1.4809,0.6824 0.4643,0.9933 c 0.6232,1.3334 0.6318,2.007 0.032,2.539 -0.377,0.3345 -0.5056,0.3755 -1.0117,0.3213 -0.7761,-0.083 -1.0502,-0.3465 -1.6552,-1.5905 -0.2815,-0.5785 -0.5389,-1.0519 -0.5722,-1.0519 -0.08,0 -5.2176,2.284 -5.2886,2.3511 -0.077,0.072 2.9372,6.4466 3.0474,6.4466 0.049,0 0.629,-0.2286 1.2896,-0.5082 0.6605,-0.2793 1.3399,-0.5089 1.5096,-0.51 0.9994,-0.01 1.7142,1.056 1.3172,1.9584 -0.1704,0.3879 -0.3766,0.5302 -1.5153,1.0462 -0.7249,0.3286 -1.3437,0.619 -1.3751,0.6454 -0.032,0.027 0.1347,0.4637 0.3692,0.9713 0.2346,0.5077 0.4264,1.055 0.4262,1.2164 0,0.482 -0.3614,0.9978 -0.8533,1.2196 -0.5531,0.2493 -0.6949,0.2519 -1.2501,0.023 z m -194.4533,-28.7958 c -0.2514,-0.084 -0.5747,-0.3032 -0.7187,-0.4877 -0.193,-0.2474 -0.9847,-3.6433 -3.0174,-12.9413 -1.5156,-6.9333 -2.7702,-12.6233 -2.7879,-12.6445 -0.03,-0.036 -7.2131,1.2419 -7.2613,1.2913 -0.012,0.013 0.095,0.5961 0.2351,1.2973 0.1413,0.7012 0.2231,1.4184 0.1819,1.5937 -0.1603,0.68 -0.9833,1.239 -1.5892,1.079 -0.977,-0.2579 -1.1749,-0.548 -1.5114,-2.2155 l -0.2382,-1.1812 -0.7432,0.1028 c -1.5672,0.2165 -2.1233,0.046 -2.486,-0.7625 -0.2645,-0.5895 0.051,-1.3963 0.6693,-1.7073 0.1477,-0.074 0.6458,-0.2056 1.1071,-0.2917 0.4613,-0.086 0.8363,-0.221 0.8338,-0.2996 0,-0.079 -0.092,-0.5157 -0.1965,-0.9715 -0.3758,-1.6235 -0.2072,-2.2734 0.6813,-2.6262 0.3637,-0.1442 0.5361,-0.1478 0.9425,-0.019 0.7022,0.2233 0.9623,0.6326 1.2248,1.9265 0.1261,0.6215 0.3059,1.1579 0.3997,1.1921 0.1841,0.068 6.8891,-1.1013 7.0409,-1.2269 0.095,-0.078 -1.0094,-5.3256 -1.1472,-5.4564 -0.042,-0.039 -0.6151,0.022 -1.2738,0.1359 -1.668,0.2899 -2.0658,0.2715 -2.5533,-0.1182 -0.7371,-0.5894 -0.6739,-1.5603 0.1388,-2.1315 0.2071,-0.1456 0.8933,-0.3425 1.6485,-0.4731 0.7117,-0.1229 1.3253,-0.2533 1.3635,-0.2898 0.038,-0.037 -0.063,-0.718 -0.2248,-1.5146 -0.2762,-1.3582 -0.2813,-1.4785 -0.079,-1.9312 0.3575,-0.8023 1.3426,-1.032 2.1904,-0.5109 0.3634,0.2236 0.4956,0.5566 0.8477,2.1356 0.1558,0.6981 0.2966,1.2819 0.3127,1.2972 0.016,0.015 0.512,-0.059 1.1018,-0.1651 1.6931,-0.3054 2.3387,-0.1421 2.702,0.6836 0.1452,0.3305 0.1476,0.4974 0.012,0.8804 -0.2345,0.6657 -0.6658,0.9144 -2.0119,1.1611 -0.6456,0.1182 -1.174,0.2754 -1.1744,0.3492 0,0.2836 1.1083,5.2392 1.1933,5.3272 0.084,0.086 7.1213,-1.1294 7.2516,-1.2532 0.033,-0.031 -0.041,-0.5625 -0.1668,-1.1805 -0.2796,-1.3854 -0.2797,-1.467 -0.011,-2.0174 0.4977,-0.9968 2.0399,-0.9206 2.5291,0.125 0.1053,0.2245 0.2847,0.8632 0.3993,1.4195 0.1144,0.5563 0.2337,1.0354 0.2646,1.0648 0.031,0.029 0.4885,-0.016 1.0169,-0.1005 0.5282,-0.084 1.1481,-0.1184 1.3775,-0.075 0.9252,0.1758 1.384,1.0705 0.9721,1.8954 -0.2504,0.5012 -0.781,0.7656 -1.9846,0.9879 -0.4243,0.079 -0.7714,0.2102 -0.7715,0.293 0,0.083 0.1,0.6288 0.222,1.2136 0.2794,1.338 0.1688,1.8671 -0.4766,2.2793 -0.5423,0.3463 -0.8226,0.362 -1.447,0.081 -0.5451,-0.2459 -0.66,-0.477 -1.0007,-2.0115 -0.139,-0.6261 -0.2671,-1.1499 -0.2847,-1.1638 -0.017,-0.014 -1.6622,0.273 -3.6547,0.6376 -3.6005,0.6588 -3.6226,0.6647 -3.577,0.9725 0.024,0.1703 1.2477,5.8056 2.7171,12.5229 1.4692,6.7173 2.6712,12.3573 2.6712,12.5333 0,0.5188 -0.3853,1.0787 -0.8767,1.2737 -0.2509,0.1 -0.4734,0.178 -0.4943,0.1741 -0.021,0 -0.2434,-0.076 -0.4948,-0.1593 z m -32.8188,-6.5544 c -0.1475,-0.034 -0.4244,-0.201 -0.6152,-0.3715 -0.1907,-0.1705 -3.9041,-4.8968 -8.2518,-10.5029 -4.3477,-5.6059 -7.9581,-10.1943 -8.023,-10.1963 -0.1317,0 -5.9871,3.9384 -5.9871,4.0312 0,0.033 0.3396,0.4952 0.7546,1.0285 0.9446,1.2137 1.0936,1.6636 0.7629,2.3048 -0.2998,0.5818 -0.7561,0.8198 -1.4274,0.744 -0.6324,-0.071 -0.8641,-0.2653 -1.7984,-1.5032 l -0.7376,-0.9772 -0.8859,0.5763 c -0.7979,0.5191 -0.9447,0.5702 -1.4756,0.5133 -0.6612,-0.07 -1.045,-0.3641 -1.2096,-0.9246 -0.1977,-0.6728 0.052,-1.1623 0.9232,-1.8047 0.44,-0.3247 0.8002,-0.6373 0.8002,-0.6947 0,-0.057 -0.3041,-0.5003 -0.6757,-0.9843 -0.7658,-0.9974 -0.9384,-1.4407 -0.7804,-2.0046 0.1552,-0.5528 0.543,-0.8381 1.2408,-0.9129 0.7509,-0.081 1.0491,0.1236 1.9918,1.3633 0.3759,0.4943 0.7187,0.8983 0.7617,0.8979 0.1465,0 5.8262,-3.8874 5.869,-4.0156 0.041,-0.1239 -3.2337,-4.4307 -3.418,-4.4944 -0.051,-0.018 -0.6032,0.3143 -1.2275,0.7374 -1.2738,0.8636 -1.5814,0.9741 -2.2578,0.8109 -0.6319,-0.1524 -1.0012,-0.6471 -0.9914,-1.3276 0.011,-0.6543 0.2337,-0.905 1.6733,-1.871 0.7194,-0.4827 1.0073,-0.7473 0.9233,-0.8484 -0.068,-0.082 -0.4923,-0.6303 -0.9448,-1.2213 -0.6897,-0.9011 -0.8225,-1.1588 -0.8225,-1.5974 0,-0.9944 0.8669,-1.6128 1.8378,-1.3112 0.4123,0.1281 0.6982,0.3974 1.4904,1.4051 l 0.9804,1.2467 1.0647,-0.713 c 0.8345,-0.5588 1.1766,-0.7146 1.5824,-0.7197 0.6555,-0.01 1.0378,0.1854 1.2948,0.6576 0.4723,0.8679 0.1451,1.4899 -1.2848,2.4431 -0.4366,0.2909 -0.7937,0.58 -0.7937,0.6421 0,0.16 3.3544,4.4399 3.4796,4.4399 0.074,0 5.7153,-3.764 6.0213,-4.0182 0.023,-0.019 -0.3279,-0.5255 -0.7798,-1.1256 -0.8646,-1.1489 -1.0338,-1.7336 -0.682,-2.3582 0.2319,-0.4119 0.9125,-0.6973 1.4603,-0.6128 0.5682,0.087 0.934,0.4002 1.7383,1.4847 0.338,0.4559 0.6345,0.8527 0.659,0.8818 0.025,0.029 0.4614,-0.2204 0.971,-0.5543 1.0623,-0.6961 1.6608,-0.7948 2.2602,-0.3731 1.0266,0.722 0.8649,1.6667 -0.4439,2.5934 -0.4473,0.3168 -0.8244,0.6334 -0.838,0.7036 -0.014,0.069 0.3104,0.5722 0.7199,1.1157 0.5679,0.7535 0.7495,1.1051 0.7651,1.4801 0.036,0.8728 -0.5706,1.4265 -1.553,1.4159 -0.5404,-0.01 -0.9532,-0.3414 -1.7592,-1.4299 -0.3504,-0.4733 -0.6939,-0.8606 -0.7633,-0.8606 -0.127,0 -6.0226,3.9355 -6.0226,4.0201 0,0.025 3.6031,4.6817 8.0071,10.3484 5.1156,6.5823 8.0568,10.4744 8.1444,10.7774 0.1883,0.6509 -0.145,1.3184 -0.7853,1.5726 -0.4827,0.1917 -0.503,0.1937 -0.9422,0.094 z m 172.8197,-0.2586 c -1.2384,-0.2129 -1.6512,-1.3526 -0.8386,-2.3144 0.2398,-0.2839 4.6778,-4.4012 9.8619,-9.1494 5.1843,-4.7481 9.426,-8.6842 9.426,-8.7466 0,-0.1244 -4.8363,-5.0682 -4.9573,-5.0675 -0.04,0 -0.5434,0.4076 -1.1166,0.905 -0.8195,0.7112 -1.1536,0.9186 -1.5628,0.9708 -0.9514,0.1212 -1.6216,-0.4813 -1.6216,-1.4582 0,-0.4117 0.1229,-0.5762 1.1196,-1.5004 l 1.1197,-1.0379 -0.6668,-0.7272 c -0.8583,-0.9362 -0.9892,-1.5999 -0.4382,-2.2222 0.3833,-0.4328 1.0399,-0.6303 1.5673,-0.4712 0.1703,0.052 0.6337,0.4089 1.0298,0.7944 l 0.7203,0.701 0.8937,-0.8392 c 0.4918,-0.4615 1.0744,-0.9034 1.295,-0.982 0.9571,-0.3407 1.9471,0.3221 1.9471,1.3034 0,0.4744 -0.088,0.6026 -1.0623,1.547 l -1.0621,1.0298 1.4497,1.4714 c 0.7972,0.8093 1.9303,1.9579 2.5177,2.5527 l 1.0684,1.0812 2.1501,-1.9691 2.1501,-1.9691 -0.9558,-0.9969 c -0.5257,-0.5485 -1.0304,-1.1646 -1.1216,-1.3696 -0.2999,-0.6746 0.089,-1.5166 0.823,-1.7817 0.6944,-0.2508 1.1591,-0.029 2.3,1.0961 l 1.079,1.0645 1.1708,-1.0315 c 0.9635,-0.8487 1.2668,-1.0436 1.7128,-1.1005 0.958,-0.122 1.6003,0.4555 1.6003,1.439 0,0.4144 -0.1312,0.5916 -1.2003,1.6222 l -1.2005,1.1571 0.3829,0.4561 c 0.2106,0.2507 0.5683,0.6232 0.7948,0.8275 1.1243,1.0145 0.7334,2.4372 -0.7121,2.592 l -0.61,0.066 -1.024,-0.9733 -1.0243,-0.9731 -1.695,1.5191 c -0.9322,0.8355 -1.8978,1.7199 -2.1457,1.9654 l -0.4507,0.4462 2.1144,2.1471 c 1.1629,1.1809 2.312,2.3424 2.5533,2.5811 l 0.4389,0.434 1.0504,-0.9119 c 1.1826,-1.0262 1.6684,-1.2023 2.4013,-0.8703 0.5919,0.2683 0.9155,0.8651 0.7962,1.4688 -0.07,0.3555 -0.3298,0.675 -1.1444,1.4079 l -1.0535,0.9481 0.75,0.8119 c 0.6441,0.6971 0.7573,0.8969 0.8013,1.4135 0.054,0.6389 -0.1428,0.9878 -0.7254,1.2841 -0.7224,0.3673 -1.4665,0.084 -2.3558,-0.8968 l -0.6074,-0.6699 -1.0116,0.9131 c -1.1769,1.0622 -1.7057,1.2459 -2.4662,0.8567 -0.5495,-0.2812 -0.754,-0.6083 -0.7319,-1.1701 0.023,-0.5986 0.2196,-0.8825 1.2558,-1.8183 l 0.9188,-0.8298 -2.57,-2.5936 -2.5701,-2.5936 -1.4903,1.3968 c -6.0793,5.697 -18.1004,16.5913 -18.4173,16.6908 -0.2099,0.066 -0.5026,0.099 -0.6502,0.074 z"
       id="path4861"
       inkscape:connector-curvature="0" />
  </g>
</svg>
