<?xml version="1.0" encoding="UTF-8" standalone="no"?>
<svg
   width="448.61661"
   height="298.69653"
   viewBox="-2.25 -1.5 4.4861661 2.9869653"
   version="1.1"
   id="svg48"
   sodipodi:docname="Vresse-sur-Semois vlag.svg"
   inkscape:version="1.2.2 (b0a8486, 2022-12-01)"
   xml:space="preserve"
   xmlns:inkscape="http://www.inkscape.org/namespaces/inkscape"
   xmlns:sodipodi="http://sodipodi.sourceforge.net/DTD/sodipodi-0.dtd"
   xmlns="http://www.w3.org/2000/svg"
   xmlns:svg="http://www.w3.org/2000/svg"><defs
     id="defs52"><filter
       id="filter3952-3-7-3"
       inkscape:collect="always"
       color-interpolation-filters="sRGB"
       x="-0.03231039"
       y="-0.091408987"
       width="1.0662131"
       height="1.1711115"><feGaussianBlur
         id="feGaussianBlur3954-1-4-2"
         stdDeviation="1.2362535"
         inkscape:collect="always" /></filter><filter
       id="filter3764-8-5-2-2"
       inkscape:collect="always"
       color-interpolation-filters="sRGB"
       x="-0.082516108"
       y="-0.17195483"
       width="1.1196602"
       height="1.3468111"><feGaussianBlur
         id="feGaussianBlur3766-8-4-5-5"
         stdDeviation="0.46664745"
         inkscape:collect="always" /></filter><filter
       height="1.2996009"
       y="-0.15220478"
       width="1.4075513"
       x="-0.25048888"
       id="filter3794-9-7-8-5"
       inkscape:collect="always"
       color-interpolation-filters="sRGB"><feGaussianBlur
         id="feGaussianBlur3796-4-9-1-4"
         stdDeviation="0.5619833"
         inkscape:collect="always" /></filter><filter
       id="filter3812-4-9-7-6"
       inkscape:collect="always"
       color-interpolation-filters="sRGB"
       x="-0.08748291"
       y="-0.15818158"
       width="1.2648804"
       height="1.3321435"><feGaussianBlur
         id="feGaussianBlur3814-0-2-5-4"
         stdDeviation="0.39036188"
         inkscape:collect="always" /></filter><filter
       id="filter3826-1-1-8-1"
       inkscape:collect="always"
       color-interpolation-filters="sRGB"
       x="-0.058242769"
       y="-0.13548886"
       width="1.1562708"
       height="1.3037209"><feGaussianBlur
         id="feGaussianBlur3828-7-8-8-9"
         stdDeviation="0.2628757"
         inkscape:collect="always" /></filter><clipPath
       clipPathUnits="userSpaceOnUse"
       id="clipPath3899"><path
         inkscape:connector-curvature="0"
         sodipodi:nodetypes="cssccccssc"
         d="m 300.00002,658.5 c 0,-38.50407 31.20315,-69.75369 69.64997,-69.75369 38.44679,0 120.75317,0 159.19993,0 38.44682,0 69.65008,-31.24956 69.65008,-69.75358 V 1.4999995 l -596.9999695,5e-5 -3e-5,517.4926805 c 0,38.50402 31.2031795,69.75358 69.6500295,69.75358 38.44679,0 120.75317,0 159.19998,0 38.4468,0 69.65001,31.24962 69.65001,69.75369 z"
         style="fill:none;stroke:#000000;stroke-width:3;stroke-linecap:round;stroke-linejoin:round;stroke-miterlimit:4;stroke-dasharray:none;stroke-dashoffset:0;stroke-opacity:1"
         id="path3901" /></clipPath></defs><sodipodi:namedview
     id="namedview50"
     pagecolor="#ffffff"
     bordercolor="#000000"
     borderopacity="0.25"
     inkscape:showpageshadow="2"
     inkscape:pageopacity="0.0"
     inkscape:pagecheckerboard="0"
     inkscape:deskcolor="#d1d1d1"
     showgrid="false"
     inkscape:zoom="1.0254601"
     inkscape:cx="11.702064"
     inkscape:cy="191.6213"
     inkscape:window-width="1440"
     inkscape:window-height="777"
     inkscape:window-x="0"
     inkscape:window-y="25"
     inkscape:window-maximized="0"
     inkscape:current-layer="svg48" /><path
     fill="#fff"
     d="M-2.25-1.5h4.486166v2.9869654H-2.25z"
     id="path44" /><g
     id="g11239"
     transform="matrix(0.00289204,0,0,0.00289408,-0.874529,-0.96145834)"
     style="stroke-width:3.45655"><g
       id="layer5"
       inkscape:label="manteau"
       style="stroke-width:3.45655" /><g
       id="layer8"
       inkscape:label="collier"
       style="stroke-width:3.45655" /><g
       id="layer1"
       inkscape:label="Fond écu"
       style="stroke-width:3.45655"><path
         id="path1572-8"
         style="fill:#ffffff;fill-opacity:1;stroke:#000000;stroke-width:10.3696;stroke-linecap:round;stroke-linejoin:round;stroke-miterlimit:4;stroke-dasharray:none;stroke-dashoffset:0;stroke-opacity:1"
         d="m 300.00002,658.5 c 0,-38.50407 31.20315,-69.75369 69.64997,-69.75369 38.44679,0 120.75317,0 159.19993,0 38.44682,0 69.65008,-31.24956 69.65008,-69.75358 V 1.5 L 1.50003,1.50005 1.5,518.99273 c 0,38.50402 31.20318,69.75358 69.65003,69.75358 38.44679,0 120.75317,0 159.19998,0 38.4468,0 69.65001,31.24962 69.65001,69.75369 z"
         sodipodi:nodetypes="cssccccssc"
         inkscape:connector-curvature="0" /></g><g
       id="layer2"
       inkscape:label="Meubles"
       style="stroke-width:3.45655"><g
         style="display:inline;stroke-width:3.45655"
         inkscape:label="Meubles"
         id="g8656"
         transform="matrix(-1,0,0,0.9995753,600,0.2803174)"><g
           transform="matrix(-1,0,0,1,600,1.1578949e-6)"
           id="g69122"
           inkscape:label="Meubles"
           style="display:inline;stroke-width:3.45655"><g
             style="display:inline;stroke-width:3.45655"
             inkscape:label="Meubles"
             id="g17779" /></g></g><path
         style="fill:none;stroke-width:10.3696;stroke-miterlimit:4;stroke-dasharray:none"
         d="m 299.47826,639.65772 c -0.14608,-3.42596 -6.45198,-16.63961 -10.94129,-22.92683 -7.64272,-10.70355 -17.84684,-18.9223 -29.76277,-23.972 -13.01087,-5.5137 -7.6086,-5.21839 -106.93549,-5.84563 C 49.61793,586.26775 56.018338,586.69505 41.405578,579.54062 24.267637,571.14986 11.381348,555.53961 5.5529813,536.10933 3.8974074,530.59007 3.7977769,517.33746 3.5386601,268.16934 L 3.2660601,6.0358005 133.19755,135.5226 c 126.61274,126.17942 329.46785,326.39398 390.72187,385.63589 16.75729,16.20683 34.82987,33.72551 40.16129,38.9304 l 9.6935,9.46343 -2.77749,2.14947 c -6.32758,4.89682 -15.06745,9.621 -22.3634,12.08812 l -7.76233,2.62483 -92.41936,0.50708 -92.41936,0.50708 -6.77419,2.27388 c -23.6971,7.95437 -39.60504,23.54838 -47.96107,47.0146 -0.95493,2.6817 -1.77336,4.00485 -1.81875,2.94034 z"
         id="path8531"
         inkscape:connector-curvature="0" /><path
         style="fill:none;stroke:none;stroke-width:3.45655"
         d="M 465.77421,570.73499 C 415.65161,522.90249 256.43525,365.86725 109.40323,219.24596 L 3.6774196,113.81549 V 60.13128 6.4470725 L 133.59678,135.90536 c 162.25448,161.67867 353.15137,349.87019 418.16587,412.23967 l 22.11746,21.21764 -3.24649,2.73099 c -4.82581,4.05952 -12.40944,8.18914 -20.3663,11.09031 -7.00923,2.55568 -7.3518,2.58227 -37.55763,2.91508 l -30.48387,0.33588 z"
         id="path8557"
         inkscape:connector-curvature="0" /><path
         style="fill:none;stroke:none;stroke-width:3.45655"
         d="M 465.77421,570.73499 C 415.65161,522.90249 256.43525,365.86725 109.40323,219.24596 L 3.6774196,113.81549 V 60.13128 6.4470725 L 133.59678,135.90536 c 162.25448,161.67867 353.15137,349.87019 418.16587,412.23967 l 22.11746,21.21764 -3.24649,2.73099 c -4.82581,4.05952 -12.40944,8.18914 -20.3663,11.09031 -7.00923,2.55568 -7.3518,2.58227 -37.55763,2.91508 l -30.48387,0.33588 z"
         id="path8559"
         inkscape:connector-curvature="0" /><path
         style="fill:#93251d;fill-opacity:1;stroke:none;stroke-width:3.45655"
         d="M 451.02198,557.95203 C 383.00208,491.7374 240.00178,349.37362 85.303339,193.86127 L -0.19354827,107.91457 V 54.424646 0.93471671 L 74.585781,76.087388 C 233.64209,235.9378 446.41244,447.67275 531.15432,530.43412 l 41.7058,40.73109 -3.24227,2.77064 c -4.66547,3.9868 -20.33124,11.36402 -26.35412,12.41047 -2.82895,0.49153 -17.81318,1.0475 -33.29828,1.2355 l -28.15475,0.3418 z"
         id="path8563"
         inkscape:connector-curvature="0" /><path
         style="fill:#ff0000;fill-opacity:1;stroke:none;stroke-width:3.45655"
         d="M 60.137286,588.20219 C 45.777019,585.9709 32.704977,579.30425 22.270203,568.89025 12.571574,559.21093 6.6228348,548.38295 3.3772033,534.50096 2.3745423,530.21245 2.3567358,529.1328 2.2080752,463.61386 2.1250474,427.02112 2.1170945,392.42007 2.1904023,386.72265 L 2.3236893,376.3637 49.30105,426.39471 c 52.25589,55.65267 146.76199,156.06038 150.59709,160.00141 l 2.47203,2.54033 -69.11068,-0.0555 c -53.752907,-0.0432 -70.002114,-0.19398 -73.122204,-0.67878 v 0 z"
         id="path8569"
         inkscape:connector-curvature="0" /><path
         style="fill:#93251d;fill-opacity:1;stroke:none;stroke-width:3.45655"
         d="m 299.68265,643.61387 c -0.13733,-0.3992 -0.92598,-2.79825 -1.75255,-5.33123 -3.59826,-11.02665 -9.23508,-20.18157 -17.43731,-28.32044 -9.23528,-9.16394 -20.77701,-15.65008 -33.12083,-18.61302 -2.41381,-0.5794 -4.87732,-1.30485 -5.47449,-1.61213 C 155.26215,499.67029 83.679169,423.67038 6.8389899,344.07561 l -5.97918992,-6.19612 0.12753687,-19.18297 1.09527885,-15.312 C 110.9608,416.15136 207.5921,505.48018 312.65698,613.98229 l 1.40449,1.50957 -2.19327,3.05294 c -4.964,6.90967 -8.89458,15.07723 -11.24934,23.37552 -0.38441,1.35469 -0.7964,2.09996 -0.93621,1.69355 z"
         id="path8575"
         inkscape:connector-curvature="0"
         sodipodi:nodetypes="cssscccccccssc" /><path
         style="fill:#93251d;fill-opacity:1;stroke:none;stroke-width:3.45655"
         d="m 2.8344505,177.51267 v -13.86178 c 0,-10.63489 0.1105876,-19.1402 0.2457502,-18.90068 C 158.16497,301.24987 276.50476,420.35505 443.6745,588.7429 H 424.3788 405.08311 C 266.93431,445.5572 148.69606,323.70318 2.8344505,177.51267 Z"
         id="path8601"
         inkscape:connector-curvature="0"
         sodipodi:nodetypes="csccccc" /><path
         style="fill:#293f3b;fill-opacity:1;stroke:#000000;stroke-width:6.91309;stroke-miterlimit:4;stroke-dasharray:none;stroke-opacity:0"
         d="m 288.62053,292.31536 -39.31256,-39.33009 9.39545,-23.23046 c 15.53852,-38.41938 21.36135,-52.52122 21.57014,-52.23899 0.10906,0.14743 6.50345,20.59168 14.20975,45.43165 7.7063,24.83998 18.61523,59.22868 24.24207,76.41935 5.62683,17.19065 10.00045,31.48589 9.71915,31.76719 -0.28129,0.2813 -18.2021,-17.18709 -39.824,-38.81865 z"
         id="path8605"
         inkscape:connector-curvature="0" /><path
         style="fill:#293f3b;fill-opacity:1;stroke:#000000;stroke-width:6.91309;stroke-miterlimit:4;stroke-dasharray:none;stroke-opacity:0"
         d="m 375.02383,376.62502 -70.72132,-70.82473 16.1353,-41.74211 c 14.96894,-38.7247 31.41462,-79.28701 34.62504,-85.4006 1.0868,-2.06958 4.78083,7.99172 18.08938,49.26938 9.19803,28.52853 29.06619,88.20621 44.15146,132.61708 29.75889,87.60984 29.52489,86.90571 28.88077,86.90571 -0.24161,0 -32.2639,-31.87113 -71.16063,-70.82473 z"
         id="path8609"
         inkscape:connector-curvature="0" /><path
         style="fill:#293f3b;fill-opacity:1;stroke:#000000;stroke-width:6.91309;stroke-miterlimit:4;stroke-dasharray:none;stroke-opacity:0"
         d="m 460.86791,463.81647 c -54.60477,-54.0086 -99.2814,-98.70772 -99.2814,-99.33135 0,-2.61712 45.61379,-117.54527 66.05363,-166.42822 l 8.69092,-20.78479 11.41887,35.83932 c 18.38957,57.71761 48.26149,149.34601 82.13245,251.93102 17.37064,52.61049 31.28688,95.95154 30.92496,96.31347 -0.36192,0.36191 -45.33467,-43.53084 -99.93943,-97.53945 z"
         id="path8613"
         inkscape:connector-curvature="0" /><path
         style="fill:#293f3b;fill-opacity:1;stroke:#000000;stroke-width:6.91309;stroke-miterlimit:4;stroke-dasharray:none;stroke-opacity:0"
         d="M 501.02756,503.39506 C 461.24767,464.1614 428.85066,431.3466 429.0342,430.4733 c 1.69845,-8.0815 98.3877,-251.22249 100.90342,-253.73821 0.28209,-0.28209 5.83715,16.0169 12.34458,36.21998 6.50743,20.20308 21.64348,66.92398 33.63566,103.82423 l 21.80397,67.09136 v 76.02044 c 0,82.77387 -0.043,83.29851 -7.94397,97.04615 -4.87098,8.47543 -12.5521,17.79172 -14.66895,17.79172 -0.96486,0 -34.30147,-32.10025 -74.08135,-71.33391 z"
         id="path8615"
         inkscape:connector-curvature="0"
         clip-path="url(#clipPath3899)" /><path
         style="fill:#ff0000;fill-opacity:1;stroke:none;stroke-width:3.45655"
         d="M 57.387099,585.30228 C 53.661292,584.51839 46.475808,581.88316 41.419356,579.4462 33.659503,575.70634 30.931847,573.71491 23.928302,566.67616 14.760519,557.46229 10.982783,551.53522 6.8937748,539.94985 l -2.7324842,-7.74193 -0.2751341,-76.69441 -0.2751341,-76.6944 8.0957436,8.46859 c 4.452659,4.65773 46.554192,49.40408 93.558964,99.43634 47.00476,50.03226 87.453,93.0363 89.88494,95.56452 l 4.42174,4.59678 -67.70556,-0.0789 c -55.687515,-0.0649 -68.908008,-0.33191 -74.479751,-1.50419 z"
         id="path8725"
         inkscape:connector-curvature="0" /><path
         style="fill:#93251d;fill-opacity:1;stroke:none;stroke-width:3.45655"
         d="M 57.387099,585.30228 C 53.661292,584.51839 46.475808,581.88316 41.419356,579.4462 33.659503,575.70634 30.931847,573.71491 23.928302,566.67616 14.760519,557.46229 10.982783,551.53522 6.8937748,539.94985 L 4.1612906,532.20792 3.885857,455.28732 C 3.7251494,410.40636 3.9684974,378.76361 4.4700855,379.31957 6.1140799,381.14178 191.72358,578.68596 195.63129,582.77243 l 3.93299,4.11291 -67.70149,-0.0789 c -55.683938,-0.0649 -68.903971,-0.33192 -74.475691,-1.50419 z"
         id="path8727"
         inkscape:connector-curvature="0" /><path
         sodipodi:nodetypes="cccccccccccccccccccccccccccccccccccccccccccccccccccccccccccccccccccccccccccccccccccccccccccccccccccccccccccccccccccccccccccccccccccccccccccccccccccccccccccccccccccccccccccccccccccccccccccccccccccccccccsccccccccccccccccccccccccccccsccccccccsccccccccsccccccccccccccccccccccccccccccccccccccscccccccccccccccccccccccccccccccccccccccccccccccccccccccccccccccccccccccscccccccccccccccccccccccccccccc"
         id="path4023-0"
         d="m 289.08046,414.06862 -1.36069,1.74947 -1.94386,0.19439 -2.7214,-3.11017 -18.46663,-9.91367 -2.7214,-2.13824 v -1.55508 l 1.55509,-0.97193 1.74947,-1.16632 0.97193,-1.36069 -0.19439,-1.55509 -2.91578,-2.52701 -2.13824,-0.97193 h -2.13824 l -3.69333,1.55508 3.88771,0.77755 0.38877,1.55508 -1.55508,0.38877 h -2.33263 l -1.74947,-0.97192 -1.94386,0.19438 -1.16631,1.16631 -0.58316,1.94386 h 1.94386 l 2.52701,0.97193 v 2.33263 l -1.94385,0.19438 -2.91579,0.97193 -1.55508,0.97193 -0.97193,3.11017 4.66525,-0.58316 v 1.74947 l 1.16632,1.3607 0.58315,1.74947 v 2.13824 l 0.77755,1.55509 v 2.13824 l -1.55509,1.16631 h 2.7214 l 1.55508,-0.58316 h 2.33263 l 1.55509,-0.58315 0.58315,-1.94386 0.77755,3.30456 1.3607,3.30455 0.97192,-1.3607 1.55509,-0.58315 0.58315,0.77754 -0.58315,1.55508 v 1.94386 l 0.19438,1.16631 1.3607,-1.3607 h 1.16632 l 0.38877,1.74947 1.16631,0.97193 -0.77754,0.77754 h -1.74947 l -1.94386,-0.77754 1.55509,1.94386 1.16631,0.97193 2.91578,0.19438 h 1.16632 l -1.74947,2.13824 -2.33263,2.52702 -0.58316,2.13824 0.38877,3.49894 0.97193,1.16631 0.58316,-1.94386 1.55508,-1.94385 1.74947,-0.19439 h 5.83157 l -2.52701,2.7214 -4.27648,4.0821 -3.30456,1.74947 -3.69332,2.52701 h -2.7214 l -0.97193,-1.55508 1.16631,-1.74947 2.13824,-1.55509 -0.97192,-1.94385 -0.97193,-0.77755 -1.3607,-0.19438 -1.16631,0.19438 -1.3607,-1.16631 h -2.13825 l -1.16631,1.3607 -1.3607,1.16631 v 1.3607 l 1.94386,-0.19438 1.55508,1.74947 -1.55508,0.97193 h -1.55509 l -1.3607,0.38877 -1.74947,1.74947 -0.19438,2.52701 3.88771,-0.58316 -0.77754,1.16632 0.77754,2.72139 -2.33263,1.55509 v 1.74947 l 1.3607,2.33263 1.3607,-1.3607 3.30456,-0.58316 1.16631,1.94386 4.0821,0.38877 1.74947,-0.38877 1.74947,-1.55509 0.58315,-1.16631 1.3607,0.97193 h 0.97193 l 0.97193,1.74947 -0.38877,2.33262 2.7214,-1.94385 0.38877,-1.74947 v -1.3607 l 0.97193,-3.30456 3.49894,0.58316 h 2.33262 l 0.77755,0.38877 v 1.16631 l 1.55508,-1.55508 -0.58316,-1.94386 -0.97192,-3.49894 2.52701,2.7214 h 2.33263 l 1.3607,1.94386 0.97192,-2.33263 -0.58315,-2.13824 0.19438,-2.13824 h 3.11017 l 1.94386,0.97193 0.77754,1.74947 v 0.97192 l 1.16631,-2.33262 1.16632,-4.0821 1.94385,1.16631 h 1.74947 l 1.3607,1.3607 1.94386,1.3607 -0.19439,-2.13824 -0.58315,-2.52701 5.24841,1.55508 4.85964,0.19439 4.85964,0.19438 2.52701,-0.58315 5.05402,-2.91579 4.27648,-2.13824 7.58104,-1.16631 8.35858,-1.3607 -4.66526,3.30455 -3.30455,3.11017 -3.69333,1.74947 3.88771,0.38877 1.74947,-0.58315 2.13824,-0.58316 v 2.13824 l -1.55508,1.94386 -2.33263,2.33262 -5.24841,2.91579 h -3.30455 l -0.58316,-2.91579 -1.3607,-2.13824 h -1.74947 l -1.3607,0.77755 -1.3607,0.97192 -1.65227,0.0972 -1.06912,0.87473 -0.97192,1.3607 v 2.42982 l 1.2635,-0.77754 h 1.3607 l 1.84665,0.87473 v 0.77755 l -1.2635,0.19438 -1.36069,0.38877 -0.87474,0.77754 v 1.84667 l 0.87474,1.06912 1.36069,0.87473 v -1.2635 l 0.87473,-0.77754 h 1.16632 l 1.2635,1.16631 -1.06912,0.68035 -0.48596,0.97193 0.0972,1.16631 0.58316,1.16631 1.2635,0.87474 0.0972,-1.06912 1.06912,-0.58316 1.26351,-0.58316 0.48596,-0.68035 0.38877,1.3607 2.13825,0.97193 2.33262,-0.19438 1.3607,-1.26351 0.58316,-0.87474 0.58316,0.87474 0.68034,0.68035 v 0.97193 l -0.48596,1.06912 c 0,0 1.26351,-0.29158 1.74947,-0.29158 0.48597,0 1.84666,-1.16631 1.84666,-1.16631 l 0.48597,-1.3607 -0.38877,-1.94386 -0.38877,-0.87473 1.2635,0.19438 2.62421,1.06912 2.23543,-0.19438 -1.74947,-1.74947 -0.29158,-1.26351 0.77755,-1.26351 h 1.94385 l 1.16632,1.3607 1.45789,1.94386 1.94385,0.38877 2.23544,-0.68035 -1.94386,-0.77754 -0.48596,-1.45789 1.06912,-1.4579 h 2.04105 l 1.3607,1.06912 1.55508,1.3607 2.23544,0.48597 -0.48597,-1.16632 v -1.2635 l 0.29158,-1.65228 h 4.0821 l 0.68035,-1.65228 -0.38877,-1.06912 c 0,0 -0.48597,-0.48596 -0.48597,-0.87473 0,-0.38877 0.29158,-1.45789 0.29158,-1.45789 l 1.84666,-1.4579 0.48597,-1.2635 -2.04105,0.87473 h -1.55509 l -1.3607,-1.16631 1.06913,-3.30456 1.16631,-1.2635 c 0,0 1.3607,-0.19439 1.74947,0 0.38877,0.19438 3.20736,1.55508 3.20736,1.55508 l 3.11017,1.55509 1.65228,1.55508 v 1.65228 l 1.16631,2.33263 1.16632,0.38877 v 1.16631 l -0.68035,1.06912 c 0,0 0.97192,-0.58316 1.3607,-0.58316 0.38877,0 1.74947,-1.55508 1.74947,-1.55508 l 0.0972,-1.45789 0.58315,-1.26351 1.26351,-0.38877 1.55508,-1.06912 0.29158,-2.04105 0.87474,-0.38877 2.42982,1.06912 9.35825,5.24552 1.09961,2.19922 -2.06177,0.96216 -2.19922,0.13745 -1.09961,-1.78687 -1.64942,-2.06177 h -1.51196 l -1.78687,0.82471 v 1.51196 l -1.51196,0.68726 -0.41236,0.68726 -0.68725,1.37451 0.13745,2.19922 0.96216,-0.96216 1.09961,-0.41235 h 1.51196 l 0.41236,0.96216 -1.78687,0.82471 -0.96216,0.5498 -0.96216,1.51197 v 2.33667 l 1.09961,-0.82471 1.92432,-0.5498 1.37451,-0.13745 -1.09961,1.78686 -0.2749,1.51197 0.2749,1.64942 1.92432,1.64941 0.13745,-2.19922 1.09961,-1.23706 c 0,0 1.23707,-0.68726 1.51197,0.13745 0.2749,0.82471 2.61157,2.33667 2.61157,2.33667 l 2.61158,-1.23706 2.74903,-1.51197 1.23706,-2.33667 0.82471,-0.2749 0.13745,-1.64942 0.13745,-2.33667 1.51197,2.61157 2.19922,0.68726 1.37451,0.2749 1.78687,1.23707 v 1.37451 l 1.51197,-1.78687 v -1.78687 l -0.68726,-2.06177 -0.96216,-0.68725 1.78687,-0.27491 0.41235,-1.78686 -0.41235,-1.51197 -1.64942,-1.51196 0.13745,-1.37452 2.47413,0.13745 1.78686,-0.8247 0.82471,-1.92432 -1.64941,0.13745 -1.64942,-0.96216 -0.13745,-1.23706 0.68726,-1.37452 1.37451,-0.5498 -0.68726,-1.51197 -1.51196,-0.96216 -1.51197,-0.13745 h -2.19922 l 0.82471,-1.51196 1.78687,-1.09962 1.23706,-2.33667 -0.13745,-1.92432 -1.23707,0.82471 -2.06177,0.13745 -1.23706,-0.96216 -0.96216,-1.23706 v -1.78687 -1.23706 l -1.51196,0.96216 h -1.09961 l -0.96216,-1.51197 -1.92432,-1.37451 h -2.61158 l -0.96216,1.64942 2.06177,-0.41236 0.82471,1.51197 -0.13745,1.51196 -2.19922,1.37452 -1.64942,-0.82471 -5.91041,-5.91041 1.09961,-1.09961 0.27491,-2.47413 c 9.49808,-3.2126 11.04491,-14.33388 1.64941,-17.59377 -11.54591,-2.86964 -23.09183,0.67006 -34.63774,1.37451 -6.35887,-1.17293 -17.15287,2.30206 -18.96829,-8.38453 6.40125,-2.07496 5.59449,1.58765 3.71118,3.16138 4.01644,0.93738 5.8887,-1.97066 3.84864,-4.8108 6.5364,3.3055 12.38594,2.83326 17.45633,-1.92432 -2.69348,0.15002 -5.46482,-0.1671 -8.52199,-2.19922 -2.51994,-2.87071 -5.03988,-2.39675 -7.55982,-2.06177 1.14996,-3.53094 -0.87818,-4.94315 -5.22316,-4.8108 1.57413,0.95399 5.19088,0.88667 2.74903,3.84864 -14.59268,-1.6467 -16.20452,15.25178 -6.18531,18.00613 11.371,5.99113 24.49847,3.90244 37.66168,1.64942 h 10.03395 c 7.06591,1.07342 5.0724,8.00366 -0.27491,7.28492 -7.15833,0.1979 -14.03972,0.14724 -20.75676,1.90539 -16.38501,4.2887 -32.82889,-3.08473 -49.48088,-3.82971 l -1.23706,-1.37451 -1.64942,-13.19533 4.12354,-1.92432 -4.39844,-1.92432 -6.04786,-5.91041 0.41235,-4.12354 -3.29883,3.57373 c -4.35481,0.85016 -11.14887,0.27743 -11.54591,3.43629 l -7.42238,2.33667 0.13745,2.06177 h 0.68726 l 0.68726,3.84864 1.09961,2.06177 1.23706,-2.47413 c 3.95412,0.14196 7.08547,0.85354 6.32276,4.261 l -10.99611,0.68725 c -4.9874,-2.03673 -1.05492,-3.02406 -0.41235,-4.39844 -2.90418,-1.69132 -11.49833,5.59066 -1.51197,7.69728 5.41761,-1.4371 10.33992,-2.13128 14.29495,-1.37452 v 1.51197 l -1.23707,1.23706 h -3.02393 l -0.96215,-1.51196 -0.82471,1.51196 h -3.43629 v 1.64942 l 1.09961,0.82471 h 3.57374 l -1.55202,0.95904 z"
         style="fill:#000000;fill-opacity:0.274419;stroke:#000000;stroke-width:3.38675;stroke-linecap:butt;stroke-linejoin:miter;stroke-miterlimit:4;stroke-dasharray:none;stroke-opacity:0;filter:url(#filter3952-3-7-3)"
         inkscape:connector-curvature="0"
         transform="matrix(1.9927024,-0.05610807,0.06279109,2.0891431,-269.87405,-768.21667)" /><path
         sodipodi:nodetypes="cccccccccccccccccccccccccccccccccccccccccccccccccccccccccccccccccccccccccccccccccccccccccccccccccccccccccccccccccccccccccccccccccccccccccccccccccccccccccccccccccccccccccccccccccccccccccccccccccccccccccsccccccccccccccccccccccccccccsccccccccsccccccccsccccccccccccccccccccccccccccccccccccccscccccccccccccccccccccccccccccccccccccccccccccccccccccccccccccccccccccccscccccccccccccccccccccccccccccc"
         id="path4023-2-0"
         d="m 325.0289,79.623893 -2.6016,3.731239 -3.86131,0.515174 -5.61823,-6.344898 -37.42099,-19.674948 -5.5572,-4.314397 -0.0976,-3.248785 3.0378,-2.117754 3.41294,-2.534768 1.85131,-2.897209 -0.48499,-3.237899 -5.96898,-5.115687 -4.3219,-1.910528 -4.26088,0.119973 -7.26204,3.456009 7.79587,1.406282 0.87235,3.226971 -3.07442,0.899449 -4.64822,0.130879 -3.5472,-1.93232 -3.86133,0.515154 -2.25087,2.502027 -1.04001,4.093722 3.87353,-0.109066 5.09661,1.888715 0.14647,4.873198 -3.86133,0.515154 -5.74925,2.194099 -3.03781,2.117754 -1.74145,6.552123 9.25984,-1.480063 0.10985,3.654894 2.40955,2.777257 1.27191,3.622173 0.13426,4.46709 1.64706,3.205179 0.13426,4.467089 -3.02558,2.523841 5.42294,-0.152692 3.06219,-1.305557 4.64824,-0.13088 3.0622,-1.305536 1.04,-4.093722 1.75691,6.860073 2.91896,6.827331 1.85133,-2.89723 3.0622,-1.305536 1.21088,1.591672 -1.06442,3.281505 0.12206,4.061001 0.4606,2.425685 2.62603,-2.919046 2.3241,-0.06544 0.88456,3.633076 2.38516,1.96507 -1.50061,1.66801 -3.48617,0.0982 -3.92234,-1.51532 3.22087,3.97375 2.38516,1.96506 5.82249,0.24249 2.3241,-0.0654 -3.35191,4.56525 -4.48954,5.41018 -1.0278,4.49981 0.9944,7.28797 2.01001,2.38206 1.04,-4.09372 2.97676,-4.14824 3.47396,-0.50426 11.62059,-0.3272 -4.8647,5.82718 -8.26545,8.76803 -6.47514,3.84031 -7.20103,5.48651 -5.42294,0.15269 -2.03439,-3.19425 2.21425,-3.72033 4.16323,-3.36878 -2.05882,-4.00645 -1.98559,-1.56988 -2.72366,-0.32974 -2.31192,0.47153 -2.7847,-2.36024 -4.26088,0.11997 -2.23867,2.90813 -2.63823,2.51294 0.0854,2.8427 3.86131,-0.51516 3.20868,3.56764 -3.03781,2.11776 -3.09881,0.0872 -2.68706,0.88854 -3.37632,3.75305 -0.22869,5.2902 7.71046,-1.43644 -1.47619,2.48024 1.7203,5.64174 -4.55059,3.37969 0.10985,3.65489 2.85794,4.79685 2.62603,-2.91904 6.54837,-1.40372 2.44618,3.99556 8.1588,0.58316 3.46177,-0.91035 3.38852,-3.34697 1.08883,-2.46931 2.7725,1.95416 1.93677,-0.0545 2.04662,3.60036 -0.62826,4.89499 5.30089,-4.21367 0.66485,-3.6767 -0.0854,-2.8427 1.72927,-6.95823 7.00896,1.02198 4.64824,-0.13088 1.57382,0.76857 0.0732,2.43659 3.00119,-3.33604 -1.28413,-4.02828 -2.15646,-7.25525 5.20647,5.54361 4.64822,-0.13088 2.83353,3.98465 1.7903,-4.92773 -1.29633,-4.43437 0.2531,-4.47799 6.19764,-0.17451 3.93455,1.92144 1.65927,3.61126 0.061,2.03048 2.17764,-4.93861 2.06779,-8.59353 3.94677,2.32752 3.48617,-0.0982 2.79691,2.76635 3.95896,2.73363 -0.52161,-4.45618 -1.32074,-5.24657 10.55617,2.95431 9.69602,0.13344 9.69602,0.13342 4.99899,-1.36007 9.88805,-6.37507 8.38749,-4.70703 15.03352,-2.86195 16.57072,-3.31168 -9.08896,7.16544 -6.38971,6.683 -7.24984,3.86212 7.77146,0.59406 3.44956,-1.31644 4.22426,-1.33828 0.13426,4.46709 -2.97675,4.14825 -4.50177,5.00406 -10.27544,6.38598 -6.585,0.18541 -1.34513,-6.05878 -2.84573,-4.39074 -3.48618,0.0982 -2.66262,1.70076 -2.65045,2.10682 -3.28639,0.29577 -2.07552,1.88743 -1.85132,2.89723 0.15257,5.07624 2.46897,-1.69529 2.71147,-0.0763 3.73477,1.72382 0.0488,1.62441 -2.5056,0.47698 -2.68704,0.88855 -1.69427,1.67347 0.11595,3.85796 1.81023,2.18446 2.76638,1.75109 -0.0793,-2.63963 1.69427,-1.67347 2.32411,-0.0654 2.59102,2.36569 -2.0877,1.48134 -0.90737,2.05776 0.26693,2.43114 1.2353,2.40387 2.5727,1.75656 0.12656,-2.239 2.09382,-1.27829 2.48116,-1.28919 0.92568,-1.44862 0.86014,2.82088 4.3219,1.91053 4.63604,-0.53696 2.63213,-2.716 1.10712,-1.86018 1.21699,1.79474 1.39845,1.38317 0.061,2.0305 -0.90124,2.26081 c 0,0 2.49947,-0.68004 3.46786,-0.70731 0.96838,-0.0273 3.60661,-2.5402 3.60661,-2.5402 l 0.88294,-2.86996 -0.89676,-4.03919 -0.82963,-1.80562 2.53,0.33519 5.29638,2.08631 4.44237,-0.53152 -3.59603,-3.55673 -0.66037,-2.62329 1.47007,-2.68328 3.87354,-0.10907 2.40956,2.77726 3.0272,3.9792 3.89793,0.70313 4.41184,-1.54677 -3.92235,-1.51533 -1.05992,-3.01848 2.0389,-3.10574 4.0672,-0.11452 2.7786,2.1572 3.18425,2.75544 4.48509,0.88983 -1.04163,-2.40934 -0.0793,-2.63963 0.47728,-3.46821 8.13441,-0.22904 1.25199,-3.49002 -0.84183,-2.21173 c 0,0 -0.99891,-0.98798 -1.02332,-1.80017 -0.0244,-0.8122 0.48949,-3.0621 0.48949,-3.0621 l 3.5883,-3.14938 0.88906,-2.6669 -4.01228,1.94196 -3.09884,0.0873 -2.7847,-2.36024 1.92296,-6.96369 2.24477,-2.70507 c 0,0 2.69927,-0.48245 3.48618,-0.0982 0.7869,0.38428 6.48896,3.06883 6.48896,3.06883 l 6.29528,3.0743 3.39015,3.15608 0.10375,3.45185 2.47058,4.80776 2.34854,0.74675 0.0732,2.43659 -1.2886,2.27172 c 0,0 1.90013,-1.27284 2.67485,-1.29465 0.7747,-0.0218 3.38853,-3.34695 3.38853,-3.34695 l 0.10215,-3.05119 1.0827,-2.67237 2.49339,-0.88309 3.03168,-2.3208 0.45287,-4.28041 1.71869,-0.86127 4.90904,2.09721 18.97758,10.43357 2.32929,4.53279 -4.04808,2.12577 -4.37376,0.41055 -2.3034,-3.67133 -3.41626,-4.21479 -3.01289,0.0848 -3.50891,1.8232 0.0949,3.1587 -2.96973,1.52062 -0.77856,1.45892 -1.28317,2.9101 0.41198,4.58678 1.85689,-2.06408 2.1653,-0.92315 3.01289,-0.0848 0.88212,1.98695 -3.50891,1.82319 -1.88278,1.2026 -1.82236,3.21271 0.14672,4.88163 2.13941,-1.78463 3.80008,-1.25658 2.73036,-0.36428 -2.079,3.79471 -0.45285,3.17414 0.65136,3.43045 3.93816,3.33789 0.13581,-4.6022 2.11352,-2.64609 c 0,0 2.42196,-1.5052 3.02154,0.20232 0.59957,1.70751 5.3508,4.73511 5.3508,4.73511 l 5.12642,-2.73093 5.38306,-3.31297 2.31838,-4.95104 1.62614,-0.62058 0.17032,-3.45359 0.12718,-4.88935 3.17689,5.37111 4.42554,1.31239 2.75625,0.49719 3.63838,2.48416 0.0863,2.87154 2.9007,-3.81786 -0.1122,-3.73302 -1.49896,-4.26878 -1.96045,-1.38177 3.54344,-0.67459 0.70949,-3.75614 -0.91663,-3.13559 -3.38174,-3.06615 0.18759,-2.87928 4.93883,0.14833 3.5089,-1.82317 1.52257,-4.06646 -3.27815,0.3797 -3.34722,-1.91754 -0.35157,-2.57668 1.28319,-2.91013 2.70447,-1.22574 -1.46444,-3.12016 -3.0733,-1.92525 -3.02154,-0.20232 -4.38239,0.12339 1.54846,-3.20497 3.49166,-2.39752 2.31837,-4.95105 -0.39473,-4.01247 -2.41333,1.79235 -4.09986,0.40283 -2.52551,-1.94068 -1.99497,-2.53041 -0.1122,-3.73303 -0.0777,-2.58439 -2.95247,2.09492 -2.1912,0.0617 -2.01223,-3.10474 -3.92091,-2.76358 -5.2041,0.14653 -1.81373,3.49986 4.0826,-0.97716 1.73834,3.11245 -0.17896,3.16641 -4.29608,2.99497 -3.33859,-1.63039 -12.14881,-12.01607 2.12215,-2.358944 0.39246,-5.184236 c 18.72513,-7.2445 21.10918,-30.565235 2.18205,-36.848449 -23.18775,-5.34727 -45.97307,2.695489 -68.9364,4.815005 -12.74498,-2.093635 -34.03601,5.771747 -38.32465,-16.452208 12.6255,-4.69405 11.24787,3.002931 7.59381,6.396347 8.0624,1.732967 11.61068,-4.447394 7.36711,-10.266389 13.23266,6.538918 24.8594,5.224134 34.66445,-4.999621 -5.35789,0.464539 -10.90026,-0.04247 -17.11989,-4.116333 -5.20174,-5.855935 -10.19347,-4.724376 -15.19395,-3.883165 2.06982,-7.441161 -2.06034,-10.277675 -10.71028,-9.757388 3.19666,1.904701 10.39954,1.561131 5.71966,7.886117 -29.18228,-2.621424 -31.33313,32.772356 -11.19486,37.964428 23.03521,11.878323 49.0632,6.778194 75.15209,1.33275 l 19.99468,-0.562985 c 14.14766,1.846073 10.61034,16.436188 -0.0904,15.234665 -14.25199,0.815081 -27.96773,1.095347 -41.2424,5.145254 -32.38116,9.879039 -65.6119,-4.602477 -98.84114,-5.224536 l -2.5514,-2.802139 -4.11535,-27.474387 8.09616,-4.251543 -8.88562,-3.773392 -12.4227,-12.008359 0.56277,-8.637801 -6.34919,7.651124 c -8.62446,2.020446 -22.19898,1.205133 -22.79182,7.826721 l -14.64385,5.298093 0.40336,4.29962 1.3695,-0.03856 1.61115,8.001799 2.32066,4.245636 2.30976,-5.238222 c 7.88829,0.07472 14.1728,1.385616 12.86693,8.547081 l -21.86882,2.052734 c -10.0663,-3.975187 -2.29205,-6.258504 -1.09788,-9.165834 -5.89336,-3.370462 -22.5617,12.324838 -2.52958,16.165553 10.70542,-3.306279 20.47055,-5.032702 28.39925,-3.67363 l 0.0949,3.158721 -2.38742,2.653805 -6.02579,0.169667 -2.01224,-3.104716 -1.54846,3.204973 -6.84748,0.192803 0.10356,3.445875 2.24298,1.66124 7.1214,-0.200516 -3.03251,2.090654 z"
         style="fill:#aa0000;fill-opacity:1;stroke:#000000;stroke-width:6.91309;stroke-linecap:butt;stroke-linejoin:miter;stroke-miterlimit:4;stroke-dasharray:none;stroke-opacity:0"
         inkscape:connector-curvature="0" /><path
         id="path4029-4-5"
         d="m 268.47683,33.227172 -0.0161,4.024035 -4.7803,0.565681 1.95182,1.094647 -0.0808,1.870357 -3.67176,0.965594 -2.87593,0.08098 -2.73901,0.07712 -1.0136,2.75881 -1.95068,3.503715 2.05425,-0.05784 0.57482,5.444397 -4.50207,0.701555 0.67726,4.291908 -1.62932,5.075354 0.0863,2.871548 2.73152,4.234067 1.07947,3.993188 1.49466,4.125206 2.87594,-0.08098 2.23004,1.230501 1.71676,2.394536 0.0691,2.297263 0.46693,1.854935 4.08262,-0.97714 1.46761,-1.334635 0.87234,-2.898541 0.007,-4.311187 -1.36406,4.780489 -2.66994,2.374364 -1.65203,-0.24088 -0.70315,-5.153387 -1.69087,-1.533078 -3.30405,-0.48176 -1.0956,0.03085 -1.06222,-3.418882 1.87846,-1.346183 1.83099,-2.925533 -2.53732,2.226921 -2.1912,0.0617 -1.74265,-3.256015 -1.71245,-2.250969 1.00499,-3.045984 0.8335,-4.190738 -0.0647,-2.153677 2.32815,-0.06555 1.66496,0.67162 0.74085,1.847222 0.0561,1.866524 -0.63297,1.742197 1.16034,2.122828 1.26707,1.113927 2.19983,0.225456 2.13509,-1.928221 -3.01288,0.08483 -1.54962,-1.393346 -0.082,-2.727982 0.35475,-1.878093 -0.61252,-2.138232 -1.2757,-1.401079 -1.26707,-1.113907 -0.10788,-3.589461 -0.0647,-2.153656 -1.00181,-1.408792 1.42877,-2.626812 2.87164,-0.224501 2.48235,0.504917 1.14739,1.692067 -0.58981,3.178003 -1.45466,1.765353 0.59958,1.707513 c 0,0 2.3713,1.370211 2.53845,2.3714 0.16711,1.00119 0.75811,2.421549 0.75811,2.421549 l 2.93637,1.929112 -2.1492,-3.10088 -0.77106,-2.852268 -1.14737,-1.692089 0.73538,-2.894684 0.76561,-1.889661 -0.47558,-2.142087 -1.14737,-1.692089 2.42625,-1.361607 0.20917,-2.161389 2.70015,-1.369318 0.22211,-1.730629 -1.32317,-2.98043 z"
         style="fill:#000000;fill-opacity:0.218605;stroke:#000000;stroke-width:6.91309;stroke-linecap:butt;stroke-linejoin:miter;stroke-miterlimit:4;stroke-dasharray:none;stroke-opacity:0"
         inkscape:connector-curvature="0" /><path
         id="path4031-5-3"
         d="m 320.3082,84.074314 -5.4564,0.872113 -3.57796,-0.474047 -3.06901,-1.78167 -0.0518,-1.722937 0.87665,-2.754974 0.79582,-0.884595 -2.60205,0.07327 -2.84574,1.086022 -1.72424,1.916632 -1.57004,2.487102 -0.86371,3.185694 1.07516,3.849621 1.83644,1.816375 -2.70446,1.225753 c 0,0 -1.9173,0.05398 -2.3109,0.639858 -0.39359,0.585874 -2.10489,2.933245 -2.10489,2.933245 0,0 -0.88097,2.611388 -1.81372,3.499854 -0.93276,0.88845 -4.39421,4.291 -4.39421,4.291 l -1.7415,1.34232 -2.43057,1.21804 -2.47372,-0.21774 -3.07332,-1.92526 2.30771,3.8149 3.63837,2.48414 5.62357,0.12907 1.50644,-0.0424 3.59409,-3.54999 2.82417,-1.80392 4.88271,-1.71817 -3.29541,-0.1946 -2.43491,1.07445 -1.87414,1.48975 -3.73103,3.55384 -2.46509,0.0694 -3.20163,-1.63424 4.56998,-3.00266 4.66379,-4.44229 2.3227,-4.80748 3.21774,-2.389788 2.87595,-0.08098 2.12761,2.382988 0.74517,1.990809 -0.21889,-2.724127 -0.46264,-1.711369 -1.4256,-1.827942 -1.80624,-0.811351 -1.57117,-2.111239 -0.1122,-3.733027 1.27455,-3.197282 1.85688,-2.064075 2.15667,-1.210308 -0.87234,2.898541 1.04064,2.700989 2.94068,2.0727 3.01291,-0.08483 3.13258,-0.663016 3.38059,-1.532165 z"
         style="fill:#000000;fill-opacity:0.213953;stroke:#000000;stroke-width:6.91309;stroke-linecap:butt;stroke-linejoin:miter;stroke-miterlimit:4;stroke-dasharray:none;stroke-opacity:0"
         inkscape:connector-curvature="0" /><path
         id="path4033-5-1"
         d="m 268.90416,134.09204 0.21458,2.58055 -0.90255,1.89349 -2.40899,1.93593 -3.42375,0.0964 2.12329,2.2394 -2.64405,3.23582 -1.64341,0.0463 0.74517,1.99081 0.32137,1.57166 -0.32455,2.88312 -0.79148,1.02818 -0.62866,1.88578 -0.21348,2.0178 0.35157,2.57669 1.31023,2.54971 2.57729,3.66362 3.40332,3.78404 2.9752,3.22131 4.55387,1.02137 4.52364,0.0163 2.71744,-0.79501 4.13323,-3.85257 1.86551,-1.7769 2.32816,-0.0656 3.96722,-0.25535 3.53481,-0.96172 1.18507,-1.61407 1.28752,-2.76653 0.20485,-2.30497 -0.74517,-1.99079 -2.70128,-3.22904 1.31022,2.54971 0.60821,1.99466 -0.88097,2.61139 -2.25048,2.64995 -2.86732,0.36813 -3.42374,0.0964 -1.95182,-1.09463 -0.73222,-1.56009 0.31591,-3.17027 -0.91981,1.31919 -0.88097,2.61139 0.48422,2.42926 0.4583,1.56779 -3.03764,3.82171 -4.76304,1.14001 -4.79323,0.13496 -3.77533,-2.48028 -3.2491,-3.2136 -3.0011,-4.08279 c 0,0 0.0851,-1.72679 0.7613,-2.03322 0.6761,-0.30644 2.55456,-1.65262 2.55456,-1.65262 l 3.53481,-0.96171 2.11467,1.95222 0.0906,3.01514 3.0431,0.92021 -1.84076,-1.95996 -0.49284,-2.71639 -2.27751,-2.80988 -2.3411,-0.36516 -1.89572,0.77185 -2.30224,0.92704 -1.05677,1.32304 -1.46329,1.4782 -1.43423,-2.11511 0.47013,-2.59982 1.30476,-2.19224 0.33318,-2.59596 -0.22321,-2.8677 2.30226,-0.92703 2.63224,0.93178 0.34296,2.28953 c 0,0 -1.19372,1.32693 -1.17646,1.90123 0.0173,0.57431 0.19731,2.00624 0.19731,2.00624 l 3.9845,0.31889 -2.68404,-2.6547 1.86551,-1.77692 -0.0777,-2.58439 -1.55823,-1.68053 -3.0388,-0.77664 0.49603,-1.73834 -0.45401,-1.42422 2.56753,-1.22189 2.14804,-1.49747 0.35474,-1.87809 -1.32749,-3.12399 z"
         style="fill:#000000;fill-opacity:0.204651;stroke:#000000;stroke-width:6.91309;stroke-linecap:butt;stroke-linejoin:miter;stroke-miterlimit:4;stroke-dasharray:none;stroke-opacity:0"
         inkscape:connector-curvature="0" /><path
         id="path4035-1-0"
         d="m 349.85485,82.092772 -1.3813,4.206162 -3.49166,2.397521 -5.19113,0.577249 -6.65876,1.911885 -5.52002,3.316821 -4.38124,4.721735 -1.92911,4.221585 0.10357,3.44588 2.00792,2.96115 0.36452,3.00742 -3.05491,3.24739 -4.33492,1.70276 -1.80942,3.64343 0.26205,4.15989 c 0,0 2.09854,5.97629 2.12012,6.69418 0.0216,0.71789 1.21212,3.84574 1.21212,3.84574 l 2.22888,-3.36784 4.31335,-2.42063 c 0,0 4.60021,-1.99761 5.13505,-2.44378 0.53485,-0.44616 6.49591,-2.76948 6.49591,-2.76948 l 5.9697,-2.0362 5.96969,-2.03617 1.63909,-0.18979 2.41014,2.66241 4.20775,3.1866 4.05353,2.61616 2.50826,1.36637 3.29973,0.3382 -1.86983,1.63333 -3.83028,0.2515 1.6995,1.82025 2.63657,1.07534 -3.25659,1.09759 -4.26701,-0.59835 2.64952,1.5061 3.44532,0.6215 2.72604,-0.50786 2.52869,-2.5141 -3.18005,-0.91636 -1.80625,-0.81132 2.72175,-0.65143 0.77422,-1.60251 1.44604,-2.05251 -3.97586,-0.0317 c 0,0 -4.74692,-2.88403 -5.30768,-3.29935 -0.56074,-0.41531 -4.64016,-3.89293 -4.64016,-3.89293 l -2.83826,-3.22516 3.26841,-5.2652 5.75393,-9.21507 -0.15536,-5.168809 4.16891,1.894409 2.53414,2.22783 0.0906,3.01514 2.37016,-3.22811 -0.082,-2.72799 -0.92958,-3.566299 -1.32317,-2.980431 2.34108,0.365187 2.23435,1.374067 0.60823,1.994665 0.5639,-4.03946 -0.48851,-2.572827 -1.03201,-2.413837 -2.13625,-2.67012 -1.31885,-2.836865 2.00679,-1.637191 2.33676,0.2216 1.84509,2.103547 3.02583,0.345886 2.15236,-1.353895 -3.67721,-3.776335 -2.84256,-3.368754 -1.7245,-16.333167 -1.81715,-10.295186 4.1807,-2.273193 3.23934,-1.671897 -6.52612,1.764442 -2.27637,1.78849 -0.18327,3.022847 2.15146,12.297564 0.51124,7.889019 0.94252,3.997044 2.69699,3.085435 1.31454,2.693278 -2.64952,-1.506085 -3.32131,-1.056087 -2.44035,-3.667453 0.39904,4.156034 -1.15056,2.762687 0.3861,3.725315 2.27319,2.666264 1.63161,4.121349 -3.32996,-1.343238 -1.69519,-1.676665 -1.59706,-2.972718 0.0906,3.015135 2.21822,5.398124 1.75992,3.83032 0.069,2.297244 -2.82098,-2.650842 -3.63406,-2.340571 -1.42992,-1.971529 -2.87276,-4.373799 1.92706,4.831531 -0.54551,9.21211 -8.0044,11.86502 -3.60702,3.11924 -9.93691,2.29159 -12.8592,5.39155 -4.68536,3.7244 -2.03381,-3.82261 0.97475,-4.05103 3.6243,-2.54494 3.0247,-4.25243 0.70949,-3.75617 -0.83147,-4.86235 -1.04496,-2.84458 0.83782,-4.04717 4.96358,-3.588531 5.79823,-3.180947 6.11094,-1.896459 6.08508,-2.757919 1.43308,-2.483246 0.14444,-4.315045 z"
         style="fill:#000000;fill-opacity:0.172093;stroke:#000000;stroke-width:6.91309;stroke-linecap:butt;stroke-linejoin:miter;stroke-miterlimit:4;stroke-dasharray:none;stroke-opacity:0"
         inkscape:connector-curvature="0" /><path
         id="path4037-7-6"
         d="m 327.92448,77.537095 5.61062,-0.301622 5.45211,-1.015701 2.2591,-2.362817 0.85077,-3.616433 0.36883,3.15101 -0.33749,2.452377 0.6341,2.856144 -1.97771,-1.956105 -1.43308,2.483226 -1.57436,2.343536 0.3116,-3.313856 -4.4503,2.424493 1.97226,-2.785823 -6.10665,2.040026 1.45035,-1.90892 -5.82842,2.175901 2.79827,-2.665373 z"
         style="fill:#000000;fill-opacity:0.190698;stroke:#000000;stroke-width:6.91309;stroke-linecap:butt;stroke-linejoin:miter;stroke-miterlimit:4;stroke-dasharray:none;stroke-opacity:0"
         inkscape:connector-curvature="0" /><path
         id="path4039-1-7"
         d="m 315.45404,45.699566 5.05852,-0.429827 -2.34973,-0.652339 -2.19551,-0.08183 -0.59095,-1.42036 1.18508,-1.614055 12.1917,-4.797966 2.80259,-2.521806 3.07648,-2.529498 16.07809,-3.182998 -17.87137,2.802387 -2.29363,1.214185 -1.19803,1.183315 -0.90686,1.74993 -14.89618,6.023697 0.66,3.717603 1.24981,0.539601 z"
         style="fill:#000000;fill-opacity:0.195349;stroke:#000000;stroke-width:6.91309;stroke-linecap:butt;stroke-linejoin:miter;stroke-miterlimit:4;stroke-dasharray:none;stroke-opacity:0"
         inkscape:connector-curvature="0" /><path
         id="path4041-1-5"
         d="m 395.60284,151.10134 2.40955,2.77726 0.26693,2.43113 -1.01335,1.75592 -1.39458,1.96987 1.39845,1.38317 1.01335,-1.75592 0.73503,-1.34163 2.22421,-0.16424 2.68786,2.36297 0.8693,3.12546 -1.62184,0.85855 -1.41899,1.15767 -1.81246,0.96553 -0.0328,2.13476 2.60852,-0.27668 c 0,0 1.50749,1.78656 2.29745,2.27236 0.78998,0.48581 3.61738,4.26742 3.61738,4.26742 l -0.15707,1.22374 1.1224,-1.35254 -0.53607,-1.71229 -1.80107,-1.87989 -2.00693,-2.28054 0.71062,-2.15383 3.19261,-0.19151 3.63182,1.52351 0.84186,2.21173 3.02942,0.8292 0.71145,1.09769 2.08852,1.7702 2.07023,1.16102 1.51889,-1.05887 0.33854,-1.6353 1.69425,-1.67347 2.13044,-0.06 2.13349,0.0415 1.08658,0.68069 -1.51054,-1.88806 -2.24864,-0.64798 -2.42096,0.0682 -1.20396,1.8629 -0.61685,2.04957 -1.83077,0.35638 -2.59408,-2.46723 -2.09157,-1.8717 -1.87654,-1.1665 -1.51361,-1.98958 -1.41982,-2.09386 -1.87043,-0.96344 -2.9204,-0.42582 -1.03858,-2.30781 -1.61959,-2.29145 -2.26082,-1.05406 -2.02749,0.26033 0.69231,-2.76298 -1.20781,-1.49014 -3.05386,-1.6414 z"
         style="fill:#000000;fill-opacity:0.167442;stroke:#000000;stroke-width:6.91309;stroke-linecap:butt;stroke-linejoin:miter;stroke-miterlimit:4;stroke-dasharray:none;stroke-opacity:0"
         inkscape:connector-curvature="0" /><path
         id="path4043-5-0"
         d="m 459.57238,144.72767 c -0.31172,0.009 0.16467,-0.0287 -0.19064,0.10699 -0.0605,0.023 -0.13315,-0.0176 -0.19369,0.005 -0.0428,0.0159 -0.0625,0.0695 -0.0938,0.10426 -0.0625,0.0695 -0.11619,0.14901 -0.18759,0.20852 -0.0564,0.047 -0.14123,0.0521 -0.19064,0.10699 -0.0494,0.0549 -0.0493,0.14399 -0.0907,0.20579 -0.0525,0.0782 -0.12506,0.13901 -0.18759,0.20852 -0.0625,0.0695 -0.11804,0.14676 -0.18759,0.20852 -0.0886,0.0788 -0.19581,0.13243 -0.28441,0.21124 -0.0695,0.0618 -0.12506,0.13901 -0.18759,0.20852 -0.0625,0.0695 -0.12505,0.13901 -0.18758,0.20852 -0.0313,0.0348 -0.0697,0.0636 -0.0938,0.10426 -0.0763,0.12823 -0.10516,0.28337 -0.18148,0.41156 -0.0241,0.0406 -0.0746,0.0608 -0.0938,0.10426 -0.013,0.0307 0.0161,0.0708 0.003,0.10153 -0.019,0.0434 -0.0748,0.0609 -0.0938,0.10426 -0.013,0.0307 0.025,0.0769 0.003,0.10153 -0.022,0.0245 -0.0646,0.002 -0.0968,0.003 -0.0969,0.003 -0.19369,0.005 -0.29052,0.008 -0.41962,0.0118 -0.83926,0.0236 -1.25889,0.0354 -0.0968,0.003 -0.19369,0.005 -0.29051,0.008 -0.0323,9.1e-4 -0.0646,0.002 -0.0969,0.003 -0.0323,9.1e-4 -0.0684,-0.0127 -0.0968,0.003 -0.0402,0.0225 -0.0625,0.0695 -0.0938,0.10426 -0.0625,0.0695 -0.12506,0.13901 -0.18759,0.20852 -0.0313,0.0348 -0.0625,0.0695 -0.0938,0.10426 -0.0313,0.0348 -0.0746,0.0608 -0.0938,0.10425 -0.013,0.0307 0.0161,0.0709 0.003,0.10154 -0.0695,0.15752 -0.17018,0.0842 -0.28441,0.21124 -0.0494,0.0549 -0.0413,0.15087 -0.0907,0.20579 -0.0494,0.0549 -0.14123,0.0521 -0.19063,0.10699 -0.0494,0.0549 -0.0413,0.15087 -0.0908,0.20579 -0.0494,0.0549 -0.13421,0.06 -0.19064,0.10699 -0.0714,0.0595 -0.12505,0.13901 -0.18758,0.20852 -0.0313,0.0348 -0.0697,0.0636 -0.0938,0.10425 -0.0382,0.064 -0.0413,0.15088 -0.0907,0.2058 -0.0494,0.0549 -0.14123,0.0521 -0.19064,0.10698 -0.36603,0.40687 0.0242,0.0539 -0.0877,0.30731 -0.019,0.0434 -0.0625,0.0695 -0.0938,0.10425 -0.0313,0.0348 -0.0625,0.0695 -0.0938,0.10426 -0.0938,0.10426 -0.18758,0.20852 -0.28136,0.31274 -0.0313,0.0348 -0.0565,0.0767 -0.0938,0.10426 -0.0587,0.0437 -0.13172,0.0633 -0.19064,0.10698 -0.0373,0.0276 -0.0625,0.0695 -0.0938,0.10426 -0.0313,0.0348 -0.0625,0.0695 -0.0938,0.10426 -0.0313,0.0348 -0.0536,0.0818 -0.0938,0.10426 -0.0285,0.0154 -0.0646,0.002 -0.0969,0.003 -0.0968,0.003 -0.19369,0.005 -0.29051,0.008 -0.32278,0.009 -0.64558,0.0182 -0.96838,0.0273 -0.0968,0.003 -0.19369,0.005 -0.29051,0.008 -0.0323,9.1e-4 -0.0646,0.002 -0.0968,0.003 -0.0323,9.1e-4 -0.0684,-0.0127 -0.0968,0.003 -0.0402,0.0225 -0.0625,0.0695 -0.0938,0.10426 -0.0625,0.0695 -0.12506,0.13901 -0.18759,0.20852 -0.0313,0.0348 -0.0536,0.0818 -0.0938,0.10426 -0.0898,0.0504 -0.19766,0.0593 -0.28746,0.10971 -0.4665,0.26178 -0.12026,0.12633 -0.47199,0.41972 -0.0564,0.047 -0.14123,0.0521 -0.19063,0.10698 -0.0494,0.0549 -0.0526,0.14179 -0.0908,0.2058 -0.0241,0.0406 -0.0625,0.0695 -0.0938,0.10426 -0.0313,0.0348 -0.0625,0.0695 -0.0938,0.10425 -0.0313,0.0348 -0.0748,0.0609 -0.0938,0.10426 -0.013,0.0307 0.0253,0.0769 0.003,0.10154 -0.022,0.0245 -0.0646,0.002 -0.0968,0.003 -0.12913,0.004 -0.25824,0.007 -0.38736,0.0109 -0.77471,0.0218 -1.54941,0.0436 -2.32411,0.0654 -0.16141,0.005 -0.3228,0.009 -0.48419,0.0136 -0.0323,9.1e-4 -0.0747,-0.0219 -0.0968,0.003 -0.022,0.0245 0.0252,0.0769 0.003,0.10153 -0.0442,0.0491 -0.1495,-0.0437 -0.19369,0.005 -0.022,0.0245 0.025,0.0769 0.003,0.10153 -0.022,0.0247 -0.0747,-0.0217 -0.0969,0.003 -0.0222,0.0247 0.0161,0.0709 0.003,0.10154 -0.0131,0.0296 -0.1811,0.18554 -0.18759,0.20852 -0.0184,0.0647 0.0245,0.13835 0.006,0.20306 -0.0126,0.0457 -0.0697,0.0636 -0.0938,0.10426 -0.0382,0.064 -0.0605,0.13719 -0.0907,0.20579 -0.0303,0.0686 -0.07,0.13328 -0.0908,0.20579 -0.009,0.0325 0.0161,0.0709 0.003,0.10153 -0.019,0.0434 -0.0806,0.0585 -0.0938,0.10426 -0.0184,0.0647 0.004,0.13538 0.006,0.20307 10e-4,0.0338 0.0161,0.0709 0.003,0.10153 -0.019,0.0434 -0.0748,0.0609 -0.0938,0.10426 -0.013,0.0307 0.0161,0.0708 0.003,0.10153 -0.20762,0.47089 0.0271,-0.43193 -0.18453,0.31003 -0.007,0.0222 0.0136,0.1878 0.006,0.20307 -0.019,0.0434 -0.0625,0.0695 -0.0938,0.10426 -0.0313,0.0348 -0.0625,0.0695 -0.0938,0.10426 -0.0313,0.0348 -0.0625,0.0695 -0.0938,0.10425 -0.0313,0.0348 -0.0536,0.0818 -0.0938,0.10426 -0.0285,0.0154 -0.0646,0.002 -0.0969,0.003 -0.0323,9.1e-4 -0.0646,0.002 -0.0968,0.003 -0.19369,0.005 -0.38737,0.0109 -0.58104,0.0164 -0.38736,0.0109 -0.7747,0.0218 -1.16206,0.0327 -0.0969,0.003 -0.19369,0.005 -0.29052,0.008 -0.0323,9.1e-4 -0.0646,0.002 -0.0968,0.003 -0.0323,9.1e-4 -0.0684,-0.0127 -0.0969,0.003 -0.01,0.004 -0.17471,0.19896 -0.18758,0.20852 -0.0587,0.0437 -0.1271,0.0713 -0.19064,0.10699 -0.0625,0.0695 -0.11619,0.149 -0.18759,0.20851 -0.0564,0.047 -0.12709,0.0713 -0.19064,0.10699 -0.0635,0.0357 -0.14123,0.0521 -0.19064,0.10699 -0.0222,0.0247 0.0161,0.0708 0.003,0.10153 -0.004,0.008 -0.17923,0.19448 -0.18758,0.20852 -0.0382,0.064 -0.0605,0.13719 -0.0908,0.20579 -0.0302,0.0686 -0.0605,0.13719 -0.0907,0.20579 -0.0303,0.0686 -0.0526,0.14157 -0.0907,0.20579 -0.0283,0.0476 -0.1591,0.16088 -0.18759,0.20852 -0.0382,0.064 -0.0526,0.14178 -0.0907,0.20579 -0.0241,0.0406 -0.0697,0.0636 -0.0938,0.10426 -0.22342,0.3754 0.0305,0.0711 -0.18454,0.31003 -0.0313,0.0348 -0.0536,0.0818 -0.0938,0.10426 -0.0285,0.0154 -0.0684,-0.0127 -0.0969,0.003 -0.0402,0.0225 -0.0565,0.0767 -0.0938,0.10426 -0.0587,0.0437 -0.1271,0.0713 -0.19064,0.10698 -0.0635,0.0357 -0.12105,0.0866 -0.19064,0.10699 -0.0621,0.0185 -0.12913,0.004 -0.19369,0.005 -0.0969,0.003 -0.19369,0.005 -0.29052,0.008 -0.0968,0.003 -0.19539,-0.0112 -0.29051,0.008 -0.10013,0.0196 -0.19166,0.0731 -0.28747,0.10971 -0.12811,0.0375 -0.25314,0.0891 -0.38431,0.11244 -0.58543,0.10472 0.0251,-0.14644 -0.6748,0.12062 -0.0678,0.0257 -0.12035,0.0902 -0.19064,0.10699 -0.0942,0.0236 -0.19369,0.005 -0.29052,0.008 -0.0323,9.1e-4 -0.0684,-0.0127 -0.0968,0.003 -0.0402,0.0227 -0.051,0.088 -0.0938,0.10425 -0.0605,0.023 -0.12913,0.004 -0.19369,0.005 -0.0323,9.1e-4 -0.0684,-0.0127 -0.0968,0.003 -0.0402,0.0225 -0.051,0.088 -0.0938,0.10426 -0.0605,0.023 -0.13316,-0.0178 -0.19369,0.005 -0.0428,0.0158 -0.0536,0.0816 -0.0938,0.10426 -0.0285,0.0154 -0.0684,-0.0127 -0.0968,0.003 -0.0402,0.0225 -0.051,0.0878 -0.0938,0.10426 -0.0605,0.023 -0.14102,-0.0337 -0.19369,0.005 -0.0587,0.0437 -0.0413,0.15087 -0.0907,0.20579 -0.0222,0.0247 -0.0646,0.002 -0.0969,0.003 -0.0636,0.0357 -0.14123,0.0521 -0.19064,0.10698 -0.0494,0.0549 -0.0413,0.15087 -0.0907,0.20579 -0.50833,0.28528 0.0938,-0.10426 -0.28136,0.31276 -0.0494,0.0549 -0.15248,0.043 -0.19064,0.10698 -0.0342,0.0572 0.0245,0.13815 0.006,0.20307 -0.0126,0.0457 -0.0697,0.0636 -0.0938,0.10426 -0.0382,0.064 -0.0526,0.14178 -0.0907,0.20579 -0.11259,0.18905 -0.12324,0.0139 -0.18454,0.31003 -0.014,0.066 0.004,0.13538 0.006,0.20307 0.001,0.0338 0.002,0.0677 0.003,0.10153 10e-4,0.0338 0.0161,0.0708 0.003,0.10153 -0.0131,0.0294 -0.1811,0.18554 -0.18759,0.20852 -0.0186,0.0647 0.0245,0.13835 0.006,0.20306 -0.007,0.023 -0.17452,0.17888 -0.18759,0.20852 -0.013,0.0307 0.0253,0.0769 0.003,0.10153 -0.0222,0.0245 -0.0665,-0.009 -0.0968,0.003 -0.0678,0.0258 -0.13172,0.0633 -0.19064,0.10699 -0.0373,0.0276 -0.051,0.088 -0.0938,0.10426 -0.0605,0.0232 -0.13162,-0.013 -0.19369,0.005 -0.0694,0.0208 -0.12105,0.0866 -0.19064,0.10699 -0.0621,0.0185 -0.12913,0.004 -0.19369,0.005 -0.0323,9.1e-4 -0.0646,0.002 -0.0969,0.003 -0.0646,0.002 -0.13316,-0.0178 -0.19369,0.005 -0.0428,0.0158 -0.051,0.0878 -0.0938,0.10426 -0.0605,0.0232 -0.12913,0.004 -0.19369,0.005 -0.0323,9.1e-4 -0.0665,-0.009 -0.0969,0.003 -0.0678,0.0259 -0.12281,0.081 -0.19064,0.10699 -0.0304,0.0113 -0.0646,0.002 -0.0968,0.003 -0.0646,0.002 -0.12913,0.004 -0.19369,0.005 -0.0323,9.1e-4 -0.0684,-0.0127 -0.0968,0.003 -0.23555,0.1323 0.0365,0.10059 -0.19064,0.10699 -0.10023,0.003 -0.13463,-0.0203 -0.19064,0.10699 -0.013,0.0307 0.0252,0.0769 0.003,0.10153 -0.0222,0.0245 -0.0747,-0.022 -0.0969,0.003 -0.0222,0.0245 0.002,0.0677 0.003,0.10154 10e-4,0.0338 -0.0206,0.0781 0.003,0.10153 0.0234,0.0234 0.0675,-0.0165 0.0968,-0.003 0.0415,0.0202 0.0584,0.0784 0.0999,0.0988 0.0526,0.0257 0.14086,-0.0311 0.19369,-0.005 0.0415,0.0202 0.0562,0.0848 0.0999,0.0988 0.0618,0.0198 0.13188,-0.025 0.19369,-0.005 0.0437,0.0134 0.0584,0.0786 0.0999,0.0988 0.31993,0.15618 0.23113,0.0192 0.49029,0.18943 0.0389,0.0255 0.0584,0.0787 0.0999,0.0988 0.23821,0.11624 0.26565,0.0941 0.48726,0.0879 0.16141,-0.005 0.32277,-0.009 0.48418,-0.0136 0.12913,-0.004 0.25824,-0.007 0.38735,-0.0109 0.0646,-0.002 0.13315,0.0176 0.19369,-0.005 0.0428,-0.0158 0.0625,-0.0695 0.0938,-0.10426 0.0313,-0.0348 0.0565,-0.0767 0.0938,-0.10425 0.0587,-0.0437 0.13172,-0.0633 0.19064,-0.10699 0.0373,-0.0276 0.0536,-0.0818 0.0938,-0.10426 0.0285,-0.0154 0.0747,0.0219 0.0968,-0.003 0.0222,-0.0245 -0.002,-0.0677 -0.003,-0.10153 -0.003,-0.10153 -0.006,-0.20306 -0.009,-0.30455 -10e-4,-0.0339 -0.0251,-0.0769 -0.003,-0.10154 0.0222,-0.0247 0.0747,0.0217 0.0969,-0.003 0.0218,-0.0242 -0.025,-0.16009 -0.006,-0.20307 0.019,-0.0434 0.0625,-0.0695 0.0938,-0.10426 0.0313,-0.0348 0.0625,-0.0695 0.0938,-0.10426 0.0313,-0.0348 0.0625,-0.0695 0.0938,-0.10426 0.0313,-0.0348 0.0536,-0.0818 0.0938,-0.10426 0.0285,-0.0154 0.0684,0.0127 0.0969,-0.003 0.0402,-0.0225 0.0536,-0.0816 0.0938,-0.10426 0.0284,-0.0154 0.0646,-0.002 0.0968,-0.003 0.0635,-0.0357 0.13172,-0.0633 0.19063,-0.10698 0.0137,-0.009 0.17876,-0.20367 0.18759,-0.20852 0.0285,-0.0154 0.0747,0.0219 0.0969,-0.003 0.0222,-0.0245 -0.0252,-0.0769 -0.003,-0.10153 0.0222,-0.0247 0.0684,0.0127 0.0968,-0.003 0.0402,-0.0227 0.0536,-0.0818 0.0938,-0.10426 0.0285,-0.0154 0.0646,-0.002 0.0968,-0.003 0.0313,-0.0348 0.0536,-0.0818 0.0938,-0.10426 0.0285,-0.0154 0.0665,0.009 0.0969,-0.003 0.0678,-0.026 0.12281,-0.081 0.19064,-0.10699 0.0574,-0.0225 0.13633,0.0171 0.19369,-0.005 0.0678,-0.0257 0.12105,-0.0866 0.19064,-0.10699 0.0621,-0.0185 0.1307,0.009 0.19369,-0.005 0.0994,-0.0237 0.18738,-0.0893 0.28746,-0.10971 0.095,-0.0194 0.19369,-0.005 0.29052,-0.008 0.0958,-0.0366 0.18922,-0.081 0.28746,-0.10971 0.031,-0.009 0.0646,-0.002 0.0969,-0.003 0.0968,-0.003 0.19369,-0.005 0.29051,-0.008 0.0323,-9.1e-4 0.0665,0.009 0.0969,-0.003 0.002,-0.001 0.37658,-0.21175 0.38126,-0.21397 0.0937,-0.0424 0.19765,-0.0593 0.28744,-0.10971 0.0402,-0.0225 0.0536,-0.0818 0.0938,-0.10426 0.0898,-0.0504 0.19382,-0.0674 0.28746,-0.10971 0.0661,-0.0301 0.12709,-0.0713 0.19064,-0.10699 0.0636,-0.0357 0.12709,-0.0713 0.19064,-0.10699 0.0635,-0.0357 0.13421,-0.06 0.19064,-0.10698 0.0714,-0.0595 0.12506,-0.13901 0.18759,-0.20852 0.0938,-0.10426 0.18758,-0.20852 0.28136,-0.31276 0.0313,-0.0348 0.0565,-0.0767 0.0938,-0.10426 0.0587,-0.0437 0.13172,-0.0633 0.19064,-0.10698 0.0373,-0.0276 0.0746,-0.0609 0.0938,-0.10426 0.0484,-0.10967 -0.0999,-0.1331 0.0908,-0.20579 0.0605,-0.023 0.13316,0.0178 0.19369,-0.005 0.0428,-0.0158 0.0625,-0.0695 0.0938,-0.10426 0.0313,-0.0348 0.0565,-0.0767 0.0938,-0.10425 0.0421,-0.22504 0.19766,-0.0593 0.28747,-0.10972 0.29066,-0.16312 -0.17957,-0.0754 0.28441,-0.21124 0.0621,-0.0185 0.13162,0.013 0.19369,-0.005 0.10637,-0.031 0.27493,-0.18295 0.38126,-0.21397 0.0621,-0.0185 0.12913,-0.004 0.19369,-0.005 0.0635,-0.0357 0.12281,-0.081 0.19064,-0.10699 0.0304,-0.0113 0.0705,0.0168 0.0968,-0.003 0.0743,-0.0552 0.12506,-0.13902 0.18759,-0.20852 0.0313,-0.0348 0.0625,-0.0695 0.0938,-0.10426 0.0625,-0.0695 0.11804,-0.14676 0.18758,-0.20852 0.0886,-0.0788 0.19735,-0.13059 0.28442,-0.21124 0.66834,-0.74293 -0.0913,0.0603 0.56577,-0.52398 0.0695,-0.0618 0.12506,-0.13902 0.18759,-0.20852 0.0938,-0.10426 0.18759,-0.20852 0.28136,-0.31274 0.0625,-0.0695 0.12506,-0.13901 0.18759,-0.20852 0.0313,-0.0348 0.0536,-0.0818 0.0938,-0.10426 0.0285,-0.0154 0.0747,0.0217 0.0969,-0.003 0.022,-0.0247 -0.0161,-0.0708 -0.003,-0.10153 0.019,-0.0434 0.0745,-0.0609 0.0938,-0.10426 0.0271,-0.0614 -0.0332,-0.14167 -0.006,-0.20307 0.019,-0.0434 0.0625,-0.0695 0.0938,-0.10426 0.0313,-0.0348 0.0536,-0.0816 0.0938,-0.10426 0.0285,-0.0154 0.0746,0.0217 0.0968,-0.003 0.0222,-0.0247 -0.002,-0.0677 -0.003,-0.10154 -10e-4,-0.0338 -0.002,-0.0677 -0.003,-0.10153 -0.001,-0.0338 -0.0252,-0.0769 -0.003,-0.10153 0.0218,-0.0242 0.15388,0.0168 0.19369,-0.005 0.0402,-0.0225 0.0536,-0.0816 0.0938,-0.10426 0.0284,-0.0154 0.0684,0.0127 0.0968,-0.003 0.0259,-0.0154 0.1617,-0.19399 0.18759,-0.20852 0.0285,-0.0154 0.0684,0.0127 0.0968,-0.003 0.0402,-0.0225 0.051,-0.0878 0.0938,-0.10426 0.0605,-0.023 0.13316,0.0178 0.19369,-0.005 0.0215,-0.009 0.16013,-0.19311 0.18759,-0.20852 0.0285,-0.0154 0.0746,0.0217 0.0968,-0.003 0.0494,-0.0549 0.0413,-0.15088 0.0908,-0.2058 0.19405,-0.2157 0.002,0.32123 0.19063,-0.10698 0.013,-0.0307 -0.025,-0.0769 -0.003,-0.10153 0.0222,-0.0247 0.0665,0.009 0.0968,-0.003 0.0678,-0.026 0.12281,-0.081 0.19064,-0.10699 0.0304,-0.0113 0.0684,0.0127 0.0968,-0.003 0.0402,-0.0225 0.0536,-0.0818 0.0938,-0.10426 0.0285,-0.0154 0.0646,-0.002 0.0968,-0.003 0.0323,-9.1e-4 0.0646,-0.002 0.0968,-0.003 0.0323,-9.1e-4 0.0665,0.009 0.0968,-0.003 0.0678,-0.0257 0.12281,-0.081 0.19064,-0.10699 0.0304,-0.0113 0.0646,-0.002 0.0969,-0.003 0.0968,-0.003 0.19369,-0.005 0.29051,-0.008 0.19369,-0.005 0.38734,-0.0109 0.58103,-0.0164 0.12973,-0.004 0.25756,-0.007 0.38735,-0.0109 0.0646,-0.002 0.13315,0.0176 0.19369,-0.005 0.0428,-0.0158 0.0536,-0.0818 0.0938,-0.10426 0.0285,-0.0154 0.0684,0.0127 0.0969,-0.003 0.0402,-0.0225 0.0536,-0.0816 0.0938,-0.10426 0.0284,-0.0154 0.0684,0.0127 0.0968,-0.003 0.43622,-0.24479 -0.40965,0.0536 0.28442,-0.21124 0.0304,-0.0113 0.0684,0.0127 0.0968,-0.003 0.0275,-0.0154 0.1661,-0.20039 0.18759,-0.20852 0.0605,-0.0232 0.13681,0.0265 0.19369,-0.005 0.0285,-0.0154 -0.0252,-0.0769 -0.003,-0.10153 0.022,-0.0245 0.0746,0.0217 0.0968,-0.003 0.022,-0.0245 -0.025,-0.0769 -0.003,-0.10153 0.022,-0.0245 0.0684,0.0127 0.0969,-0.003 0.0804,-0.0451 0.10717,-0.16339 0.18759,-0.20852 0.0285,-0.0154 0.0684,0.0127 0.0968,-0.003 0.0402,-0.0225 0.0536,-0.0818 0.0938,-0.10426 0.0285,-0.0154 0.0747,0.0219 0.0969,-0.003 0.022,-0.0245 -0.0251,-0.0769 -0.003,-0.10153 0.022,-0.0247 0.0684,0.0127 0.0968,-0.003 0.0402,-0.0225 0.0536,-0.0816 0.0938,-0.10426 0.0569,-0.0319 0.13681,0.0265 0.19369,-0.005 0.0402,-0.0225 0.0536,-0.0818 0.0938,-0.10426 0.0285,-0.0154 0.0665,0.009 0.0969,-0.003 0.0678,-0.026 0.12281,-0.081 0.19064,-0.10699 0.0304,-0.0113 0.0684,0.0127 0.0968,-0.003 0.0402,-0.0227 0.051,-0.088 0.0938,-0.10426 0.0605,-0.023 0.13162,0.013 0.19369,-0.005 0.10497,-0.0308 0.2762,-0.1832 0.38125,-0.21397 0.0621,-0.0185 0.13163,0.013 0.19369,-0.005 0.0694,-0.0208 0.12282,-0.081 0.19064,-0.10699 0.0304,-0.0113 0.0646,-0.002 0.0969,-0.003 0.0635,-0.0357 0.12709,-0.0713 0.19064,-0.10699 0.0635,-0.0357 0.12105,-0.0866 0.19064,-0.10699 0.0621,-0.0185 0.13315,0.0176 0.19369,-0.005 0.0428,-0.0158 0.0625,-0.0695 0.0938,-0.10426 0.0625,-0.0695 0.12506,-0.13901 0.18759,-0.20852 0.0625,-0.0695 0.12506,-0.13901 0.18759,-0.20852 0.0313,-0.0348 0.0745,-0.0608 0.0938,-0.10426 0.013,-0.0307 -0.0161,-0.0708 -0.003,-0.10153 0.019,-0.0434 0.0747,-0.0609 0.0938,-0.10426 0.013,-0.0307 -0.025,-0.0769 -0.003,-0.10153 0.022,-0.0245 0.0747,0.0219 0.0969,-0.003 0.0222,-0.0245 -0.002,-0.0677 -0.003,-0.10153 -0.001,-0.0338 -0.002,-0.0677 -0.003,-0.10153 -0.001,-0.0338 -0.0161,-0.0709 -0.003,-0.10153 0.18882,-0.42819 -0.003,0.1088 0.19064,-0.10699 0.0222,-0.0247 -0.0252,-0.0769 -0.003,-0.10153 0.0494,-0.0549 0.13192,-0.0633 0.19064,-0.10699 0.0137,-0.009 0.17876,-0.20367 0.18758,-0.20852 0.0285,-0.0154 0.0665,0.009 0.0968,-0.003 0.59104,-0.33168 -0.0478,-0.0112 0.28746,-0.10972 0.0958,-0.0366 0.19166,-0.0731 0.28747,-0.10971 0.0323,-9.1e-4 0.0658,0.007 0.0968,-0.003 0.0983,-0.0287 0.18808,-0.086 0.28747,-0.10972 0.063,-0.0143 0.13316,0.0178 0.19369,-0.005 0.0428,-0.0158 0.051,-0.0878 0.0938,-0.10426 0.0605,-0.023 0.13163,0.013 0.19369,-0.005 0.1772,0.0563 0.1752,-0.16949 0.28442,-0.21125 0.0605,-0.023 0.13315,0.0176 0.19369,-0.005 0.0215,-0.009 0.16013,-0.19311 0.18758,-0.20852 0.0285,-0.0154 0.0684,0.0127 0.0969,-0.003 0.0402,-0.0225 0.0625,-0.0695 0.0938,-0.10426 0.0313,-0.0348 0.0625,-0.0695 0.0938,-0.10426 0.0625,-0.0695 0.11618,-0.149 0.18758,-0.20851 0.0564,-0.047 0.13422,-0.06 0.19064,-0.10699 0.0714,-0.0595 0.12506,-0.13901 0.18759,-0.20852 0.1073,-0.11927 0.1315,-0.12393 0.18454,-0.31003 0.009,-0.0325 -0.0161,-0.0709 -0.003,-0.10153 0.019,-0.0434 0.0745,-0.0609 0.0938,-0.10426 0.013,-0.0307 -0.002,-0.0677 -0.003,-0.10153 -0.002,-0.0677 -0.004,-0.13538 -0.006,-0.20307 -10e-4,-0.0338 -0.0161,-0.0708 -0.003,-0.10153 0.18881,-0.4282 -0.003,0.1086 0.19064,-0.10699 0.022,-0.0245 -0.0252,-0.0769 -0.003,-0.10153 0.022,-0.0247 0.0684,0.0127 0.0969,-0.003 0.0402,-0.0227 0.0536,-0.0818 0.0938,-0.10426 0.0284,-0.0154 0.0746,0.0217 0.0968,-0.003 0.022,-0.0247 -0.0252,-0.0769 -0.003,-0.10153 0.022,-0.0247 0.0684,0.0127 0.0969,-0.003 0.31106,-0.34575 -0.0898,0.0504 0.19064,-0.10699 0.0804,-0.0451 0.10717,-0.16339 0.18758,-0.20851 0.0508,-0.0284 0.14289,0.0229 0.1937,-0.005 0.0402,-0.0225 0.0536,-0.0818 0.0938,-0.10426 0.0137,-0.009 0.17295,0.001 0.19369,-0.005 0.0678,-0.026 0.12105,-0.0866 0.19064,-0.10699 0.0621,-0.0185 0.12913,-0.004 0.19369,-0.005 0.12913,-0.004 0.25823,-0.007 0.38736,-0.0109 0.0323,-9.1e-4 0.0646,-0.002 0.0968,-0.003 0.0323,-9.1e-4 0.0747,0.0219 0.0968,-0.003 0.022,-0.0245 -0.0252,-0.0769 -0.003,-0.10153 0.022,-0.0245 0.0684,0.0127 0.0969,-0.003 0.0402,-0.0225 0.0536,-0.0818 0.0938,-0.10426 0.0284,-0.0154 0.0746,0.0217 0.0968,-0.003 0.022,-0.0247 -0.025,-0.0769 -0.003,-0.10153 0.022,-0.0245 0.0747,0.0219 0.0969,-0.003 0.0222,-0.0245 -0.0251,-0.0769 -0.003,-0.10153 0.0222,-0.0247 0.0684,0.0127 0.0968,-0.003 0.0402,-0.0227 0.0536,-0.0818 0.0938,-0.10426 0.0285,-0.0154 0.0746,0.0217 0.0968,-0.003 0.022,-0.0247 -0.025,-0.0769 -0.003,-0.10153 0.022,-0.0245 0.0746,0.0219 0.0968,-0.003 0.0222,-0.0245 -0.025,-0.0769 -0.003,-0.10153 0.0222,-0.0247 0.0646,-0.002 0.0968,-0.003 0.0323,-9.1e-4 0.0646,-0.002 0.0968,-0.003 0.0323,-9e-4 0.0747,0.0217 0.0969,-0.003 0.022,-0.0247 -0.0252,-0.0769 -0.003,-0.10154 0.022,-0.0245 0.0684,0.0127 0.0968,-0.003 0.0402,-0.0227 0.0536,-0.0818 0.0938,-0.10426 0.0285,-0.0154 0.0747,0.0219 0.0968,-0.003 0.022,-0.0245 -0.025,-0.0769 -0.003,-0.10153 0.022,-0.0247 0.0746,0.0217 0.0968,-0.003 0.022,-0.0247 -0.002,-0.0677 -0.003,-0.10153 -0.003,-0.10153 -0.006,-0.20306 -0.009,-0.30458 -0.004,-0.13537 -0.008,-0.27073 -0.0122,-0.40608 -0.001,-0.0339 0.0204,-0.0781 -0.003,-0.10154 -0.0526,-0.052 -0.13116,-0.0641 -0.19674,-0.0961 -0.0656,-0.032 -0.12747,-0.074 -0.19674,-0.0961 -0.031,-0.01 -0.0675,0.0165 -0.0969,0.003 -0.0415,-0.0202 -0.0562,-0.085 -0.0999,-0.0988 -0.0618,-0.0196 -0.13187,0.0252 -0.1937,0.005 -0.0437,-0.0134 -0.0666,-0.0659 -0.0999,-0.0988 -0.0656,-0.032 -0.12605,-0.0797 -0.19674,-0.0961 -0.0631,-0.0149 -0.12913,0.004 -0.1937,0.005 -0.0323,9.1e-4 -0.0675,0.0165 -0.0968,0.003 -0.24309,-0.11861 0.0304,-0.10248 -0.19674,-0.0961"
         style="fill:#000000;fill-opacity:0.153488;stroke:#000000;stroke-width:6.91309;stroke-linecap:butt;stroke-linejoin:miter;stroke-miterlimit:4;stroke-dasharray:none;stroke-opacity:0"
         inkscape:connector-curvature="0" /><path
         id="path4045-2-0"
         d="m 432.12895,137.77797 2.45982,-1.99986 1.6851,-1.97805 2.3172,-3.52002 -1.26114,3.18545 -3.11552,5.98114 -1.56386,2.78752 0.3713,-3.77004 z"
         style="fill:#000000;fill-opacity:0.213953;stroke:#000000;stroke-width:6.91309;stroke-linecap:butt;stroke-linejoin:miter;stroke-miterlimit:4;stroke-dasharray:none;stroke-opacity:0"
         inkscape:connector-curvature="0" /><path
         id="path4047-7-4"
         d="m 378.27732,120.23499 0.053,6.32128 -1.82236,3.21271 -3.34175,2.82436 4.47188,-1.7066 1.70698,-2.49096 1.10742,-4.19845 -0.21026,-2.43697 -1.96477,-1.52537 z"
         style="fill:#000000;fill-opacity:0.190698;stroke:#000000;stroke-width:6.91309;stroke-linecap:butt;stroke-linejoin:miter;stroke-miterlimit:4;stroke-dasharray:none;stroke-opacity:0"
         inkscape:connector-curvature="0" /><path
         id="path4047-3-6-5"
         d="m 391.40631,115.71031 -0.55733,7.92818 -2.15456,3.75447 -3.65451,3.04201 4.69007,-1.4735 1.96804,-2.8673 1.52634,-5.09585 0.0228,-3.08469 -1.84075,-2.20332 z"
         style="fill:#000000;fill-opacity:0.190698;stroke:#000000;stroke-width:6.91309;stroke-linecap:butt;stroke-linejoin:miter;stroke-miterlimit:4;stroke-dasharray:none;stroke-opacity:0"
         inkscape:connector-curvature="0" /><path
         id="path4047-3-8-1-4"
         d="m 404.0819,110.65502 -0.55734,7.92818 -2.15455,3.75447 -3.65447,3.04201 4.69003,-1.4735 1.96806,-2.86729 1.52634,-5.09585 0.0228,-3.0847 -1.84077,-2.20332 z"
         style="fill:#000000;fill-opacity:0.190698;stroke:#000000;stroke-width:6.91309;stroke-linecap:butt;stroke-linejoin:miter;stroke-miterlimit:4;stroke-dasharray:none;stroke-opacity:0"
         inkscape:connector-curvature="0" /><path
         id="path4093-4-9"
         d="m 409.26135,115.91379 7.7932,-0.65051 c 0,0 9.40638,-1.70185 10.49336,-2.01986 1.08696,-0.318 10.38661,-1.01095 10.38661,-1.01095 0,0 7.77594,-1.22484 8.32374,-1.24026 0.54779,-0.0154 7.96898,0.6378 7.96898,0.6378 l 3.74079,1.33167 5.5525,6.88493 -10.53218,0.72766 -9.17995,0.11483 -4.7458,1.71431 7.66058,-0.50309 c 0,0 10.5667,0.42098 11.11452,0.40555 0.54779,-0.0154 7.42548,0.79682 7.42548,0.79682 l 4.49461,3.60963 4.09237,3.90836 2.09307,1.23435 -6.24154,-7.00921 -4.31996,-6.91963 c 0,0 -6.05714,-5.43374 -6.48525,-5.99648 -0.4281,-0.56274 -6.80117,-2.82619 -6.80117,-2.82619 l -8.06709,0.65825 c 0,0 -10.51493,1.30196 -11.06274,1.31739 -0.5478,0.0154 -9.96712,1.28653 -9.96712,1.28653 l -6.53044,1.62088 -7.20657,1.92729 z"
         style="fill:#000000;fill-opacity:0.190698;stroke:#000000;stroke-width:6.91309;stroke-linecap:butt;stroke-linejoin:miter;stroke-miterlimit:4;stroke-dasharray:none;stroke-opacity:0"
         inkscape:connector-curvature="0" /><path
         id="path3748-2-5"
         d="m 295.94085,79.223583 c -0.6959,-0.266087 -1.43464,-0.357088 -2.14874,-0.549167 -0.19805,-0.05318 -0.38907,-0.133318 -0.58714,-0.186704 -0.25823,-0.06947 -0.52562,-0.100201 -0.7808,-0.181252 -0.13834,-0.04399 -0.25773,-0.139734 -0.39345,-0.192158 -0.19572,-0.06224 -0.39143,-0.12447 -0.58713,-0.186705 -0.0666,-0.06587 -0.11681,-0.157084 -0.1998,-0.197611 -0.0587,-0.02867 -0.14662,0.05201 -0.19369,0.0055 -0.0471,-0.04656 0.041,-0.156509 -0.006,-0.203065 -0.0941,-0.09311 -0.29318,0.104019 -0.38736,0.01091 -0.0471,-0.04656 0.041,-0.156508 -0.006,-0.203065 -0.0471,-0.04656 -0.14662,0.05201 -0.19369,0.0055 -0.0471,-0.04656 0.041,-0.156508 -0.006,-0.203065 -0.0465,-0.04595 -0.30528,0.05104 -0.38734,0.01091 -0.083,-0.04053 -0.11681,-0.157084 -0.1998,-0.197611 -0.0587,-0.02867 -0.13499,0.03412 -0.19369,0.0055 -0.083,-0.04053 -0.1168,-0.157084 -0.19979,-0.197611 -0.0587,-0.02867 -0.13499,0.03412 -0.19369,0.0055 -0.083,-0.04053 -0.11681,-0.157084 -0.1998,-0.197611 -0.0587,-0.02867 -0.14662,0.05201 -0.19369,0.0055 -0.0471,-0.04656 0.041,-0.156509 -0.006,-0.203065 -0.0941,-0.09311 -0.29318,0.104019 -0.38736,0.01091 -0.0471,-0.04656 0.041,-0.156509 -0.006,-0.203065 -0.0471,-0.04656 -0.135,0.03412 -0.1937,0.0055 -0.0565,-0.02747 -0.35585,-0.381295 -0.39954,-0.395203 -0.12384,-0.03938 -0.27005,0.06824 -0.38736,0.01091 -0.0587,-0.02867 0.0246,-0.143293 -0.006,-0.203064 -0.0434,-0.08451 -0.1168,-0.157084 -0.19979,-0.197611 -0.51647,0.01454 0.0666,0.06587 -0.1998,-0.197611 -0.41333,-0.408823 0.0352,0.641544 -0.39344,-0.192159 -0.0307,-0.05977 0.041,-0.156508 -0.006,-0.203065 -0.0471,-0.04656 -0.14662,0.05201 -0.19369,0.0055 -0.0471,-0.04656 0.041,-0.156508 -0.006,-0.203065 -0.0471,-0.04656 -0.14662,0.05201 -0.19369,0.0055 -0.0471,-0.04656 0.041,-0.156508 -0.006,-0.203065 -0.0471,-0.04656 -0.14662,0.05201 -0.19369,0.0055 -0.0471,-0.04656 0.041,-0.156508 -0.006,-0.203065 -0.0941,-0.09311 -0.29318,0.104019 -0.38736,0.01091 -0.0471,-0.04656 0.041,-0.156508 -0.006,-0.203064 -0.0471,-0.04656 -0.14662,0.05201 -0.19369,0.0055 -0.0471,-0.04656 0.041,-0.156508 -0.006,-0.203064 -0.0471,-0.04656 -0.135,0.03412 -0.19369,0.0055 -0.083,-0.04053 -0.1332,-0.13174 -0.1998,-0.197611 -0.0666,-0.06587 -0.13319,-0.13174 -0.19979,-0.197611 -0.0666,-0.06587 -0.1122,-0.169759 -0.1998,-0.197611 -0.12383,-0.03938 -0.27004,0.06824 -0.38736,0.01091 -0.0587,-0.02867 0.041,-0.156508 -0.006,-0.203065 -0.0471,-0.04656 -0.13499,0.03412 -0.19369,0.0055 -0.083,-0.04053 -0.1332,-0.131741 -0.1998,-0.197611 -0.0666,-0.06587 -0.15636,-0.113106 -0.19979,-0.197611 -0.0163,-0.541464 0.0666,0.06587 -0.19979,-0.197611 -0.0471,-0.04656 0.041,-0.156508 -0.006,-0.203065 -0.0471,-0.04656 -0.14662,0.05201 -0.19369,0.0055 -0.0471,-0.04656 0.041,-0.156508 -0.006,-0.203065 -0.0471,-0.04656 -0.13499,0.03412 -0.19369,0.0055 -0.083,-0.04053 -0.11681,-0.157084 -0.1998,-0.197611 -0.0587,-0.02867 -0.13499,0.03412 -0.19369,0.0055 -0.2201,-0.107548 -0.17936,-0.287719 -0.39954,-0.395203 -0.0587,-0.02867 -0.135,0.03412 -0.19369,0.0055 -0.083,-0.04053 -0.11681,-0.157084 -0.1998,-0.197611 -0.0587,-0.02866 -0.14662,0.05201 -0.19369,0.0055 -0.0471,-0.04656 0.041,-0.156508 -0.006,-0.203065 -0.0471,-0.04656 -0.14662,0.05201 -0.19369,0.0055 -0.0471,-0.04656 0.041,-0.156508 -0.006,-0.203065 -0.0471,-0.04656 -0.13499,0.03412 -0.19369,0.0055 -0.16597,-0.08105 -0.23367,-0.314166 -0.39956,-0.395181 -0.0587,-0.02867 -0.135,0.03412 -0.19369,0.0055 -0.083,-0.04053 -0.11681,-0.157084 -0.1998,-0.197611 -0.0587,-0.02867 -0.14662,0.05201 -0.19369,0.0055 -0.0471,-0.04656 0.041,-0.156508 -0.006,-0.203064 -0.0471,-0.04656 -0.1495,-0.04367 -0.19369,0.0055 -0.12931,0.143732 0.15468,0.375626 0.20589,0.400655 0.0587,0.02867 0.14662,-0.05201 0.19369,-0.0055 0.0471,0.04656 0.004,0.135376 0.006,0.203064 0.006,0.203065 0.0122,0.406109 0.0183,0.609153 0.002,0.06769 -0.0246,0.143293 0.006,0.203064 0.0434,0.08451 0.1332,0.131741 0.19979,0.197611 0.0666,0.06587 0.12228,0.146685 0.1998,0.197611 0.12268,0.0806 0.28816,0.08807 0.39346,0.192158 0.0471,0.04656 -0.0246,0.143293 0.006,0.203065 0.0434,0.0845 0.13319,0.131741 0.19979,0.197611 0.19979,0.197611 0.39955,0.395202 0.59934,0.592792 0.33295,0.329332 0.66592,0.658664 0.99889,0.987995 0.0666,0.06587 0.1168,0.157084 0.19979,0.197611 0.0587,0.02866 0.13499,-0.03412 0.19369,-0.0055 0.30131,0.14708 0.16232,0.357576 0.40567,0.598246 0.0471,0.04656 0.13499,-0.03412 0.19369,-0.0055 0.083,0.04053 0.1332,0.131741 0.1998,0.197611 0.0666,0.06587 0.15637,0.113106 0.19979,0.197611 0.0307,0.05977 -0.041,0.156508 0.006,0.203065 0.0471,0.04656 0.14661,-0.05201 0.19369,-0.0055 0.0941,0.09311 -0.0819,0.312954 0.0122,0.406088 0.0471,0.04656 0.14662,-0.05201 0.19369,-0.0055 0.0471,0.04656 -0.041,0.156508 0.006,0.203065 0.0471,0.04656 0.12913,-0.0036 0.1937,-0.0055 0.0646,-0.0018 0.12912,-0.0036 0.19369,-0.0055 0.0646,-0.0018 0.14662,-0.05201 0.19369,-0.0055 0.0471,0.04656 -0.041,0.156508 0.006,0.203064 0.0471,0.04656 0.13499,-0.03412 0.19369,-0.0055 0.083,0.04053 0.11681,0.157084 0.19979,0.197611 0.0587,0.02867 0.135,-0.03412 0.1937,-0.0055 0.26226,0.128106 0.13726,0.267117 0.39954,0.395202 0.0587,0.02867 0.14662,-0.05201 0.19369,-0.0055 0.0471,0.04656 -0.041,0.156509 0.006,0.203065 0.0464,0.04595 0.30528,-0.05104 0.38736,-0.01091 0.083,0.04053 0.1168,0.157084 0.19979,0.197611 0.0587,0.02867 0.12913,-0.0036 0.19369,-0.0055 0.0646,-0.0018 0.12913,-0.0036 0.19369,-0.0055 0.0646,-0.0018 0.135,-0.03412 0.19369,-0.0055 0.22023,0.107545 0.17937,0.287636 0.39955,0.395202 0.0587,0.02867 0.13499,-0.03412 0.19369,-0.0055 0.083,0.04053 0.1332,0.13174 0.1998,0.197611 0.0666,0.06587 0.13319,0.13174 0.19979,0.197611 0.0666,0.06587 0.11681,0.157084 0.19979,0.197611 0.0587,0.02867 0.14662,-0.05201 0.1937,-0.0055 0.0471,0.04656 -0.041,0.156508 0.006,0.203065 0.0471,0.04656 0.13499,-0.03412 0.19369,-0.0055 0.083,0.04053 0.1332,0.131741 0.19979,0.197611 0.0666,0.06587 0.15637,0.113106 0.1998,0.197611 0.0307,0.05977 -0.041,0.156508 0.006,0.203065 0.0464,0.04595 0.30528,-0.05104 0.38736,-0.01091 0.083,0.04053 0.1332,0.131741 0.1998,0.197611 0.0666,0.06587 0.15636,0.113106 0.19979,0.197611 0.0307,0.05977 -0.0246,0.143293 0.006,0.203065 0.0434,0.0845 0.1332,0.13174 0.1998,0.197611 0.0666,0.06587 0.1168,0.157084 0.19979,0.197611 0.0587,0.02867 0.13499,-0.03412 0.19369,-0.0055 0.083,0.04053 0.1332,0.131741 0.1998,0.197611 0.0666,0.06587 0.13319,0.131741 0.19979,0.197611 0.0666,0.06587 0.11681,0.157084 0.19979,0.197611 0.0587,0.02867 0.12913,-0.0036 0.19369,-0.0055 0.0646,-0.0018 0.12913,-0.0036 0.19369,-0.0055 0.0646,-0.0018 0.14662,-0.05201 0.1937,-0.0055 0.0471,0.04656 -0.041,0.156508 0.006,0.203064 0.0471,0.04656 0.12913,-0.0036 0.19369,-0.0055 0.12913,-0.0036 0.25823,-0.0073 0.38734,-0.01091 0.12893,-0.0036 0.25835,-0.0073 0.38736,-0.01091 0.0646,-0.0018 0.13499,-0.03412 0.19369,-0.0055 0.16598,0.08105 0.23366,0.314188 0.39955,0.395202 0.0587,0.02867 0.12913,-0.0036 0.19369,-0.0055 0.0666,0.06587 0.11681,0.157084 0.1998,0.197611 0.0587,0.02867 0.12912,-0.0036 0.19369,-0.0055 0.12912,-0.0036 0.25823,-0.0073 0.38736,-0.01091 0.38734,-0.01091 0.7747,-0.02181 1.16206,-0.03272 0.38734,-0.01091 0.7747,-0.02181 1.16205,-0.03272 0.12912,-0.0036 0.25823,-0.0073 0.38736,-0.01091 0.0646,-0.0018 0.13499,-0.03412 0.19369,-0.0055 0.083,0.04053 0.1168,0.157084 0.19979,0.197611 0.0587,0.02867 0.12913,-0.0036 0.19369,-0.0055 0.0646,-0.0018 0.19166,-0.07314 0.19369,-0.0055 0.002,0.06769 -0.12912,0.0036 -0.19369,0.0055 -0.0646,0.0018 -0.12912,0.0036 -0.19369,0.0055 -0.0646,0.0018 -0.14662,0.05201 -0.19369,0.0055 -0.0471,-0.04656 0.041,-0.156509 -0.006,-0.203065 -0.0471,-0.04656 -0.14662,0.05201 -0.19369,0.0055 -0.0471,-0.04656 0.041,-0.156509 -0.006,-0.203065 -0.0471,-0.04656 -0.13499,0.03412 -0.19369,0.0055 -0.083,-0.04053 -0.13319,-0.131741 -0.19979,-0.197611 -0.0666,-0.06587 -0.15637,-0.113107 -0.19979,-0.197611 -0.0307,-0.05977 0.041,-0.156509 -0.006,-0.203065 -0.0471,-0.04656 -0.17894,0.07153 -0.19369,0.0055 -0.0733,-0.330056 -0.0203,-0.676841 -1.00501,-1.191038 z"
         style="fill:#000000;fill-opacity:0.251163;stroke:#000000;stroke-width:6.91309;stroke-linecap:butt;stroke-linejoin:miter;stroke-miterlimit:4;stroke-dasharray:none;stroke-opacity:0"
         inkscape:connector-curvature="0" /><path
         id="path3750-3-6"
         d="m 518.68576,154.13881 1.8979,1.87716 0.25777,2.12656 -0.83188,1.34436 -1.80636,1.16857 2.42706,0.1349 1.67982,1.07042 1.0286,-1.2483 2.43316,0.33795 1.59212,1.37772 1.7378,2.99939 -0.32328,2.14292 -2.41485,0.27123 -1.50669,1.46497 -0.73503,1.34163 2.76254,-1.60195 1.61043,1.98687 0.18229,2.83997 0.64816,2.21719 2.89069,2.66209 4.35852,3.12883 4.00617,-2.14502 5.79118,-4.02426 2.77088,-4.54889 1.22839,-1.05071 -0.37677,-6.08603 -0.85099,-2.5163 -1.3291,-2.29963 3.01195,3.47156 3.6174,4.26742 4.49727,1.29592 -0.0641,-2.13203 1.09188,-2.36778 1.78805,-1.77773 3.2925,-0.0927 -4.38824,-0.89256 -2.31192,0.47155 -0.90429,2.15928 0.60624,4.04737 -3.5411,-1.72928 -7.31025,-7.82143 0.96309,3.0212 -0.3011,6.10514 -2.63744,5.76445 -3.7004,2.64446 -4.42404,1.14068 c 0,0 -4.37297,-0.38492 -4.77862,-0.98316 -0.40567,-0.59825 -1.7317,-2.79635 -1.7317,-2.79635 l -1.05688,-2.91696 2.09689,-1.17676 2.33937,0.44218 1.85598,3.70735 3.08357,-0.59488 1.56386,-2.78751 -2.38738,1.18494 -2.36075,-1.15287 -1.61349,-2.08839 -0.0336,-1.11677 1.1285,-1.14951 1.03775,-0.9437 -3.85827,0.61668 -2.58491,-2.16265 -1.71644,-2.28872 -1.68592,-1.27346 -2.42095,0.0682 -1.54941,0.0436 -0.0488,-1.62439 -0.94478,-2.41207 z"
         style="fill:#000000;fill-opacity:0.186047;stroke:#000000;stroke-width:6.91309;stroke-linecap:butt;stroke-linejoin:miter;stroke-miterlimit:4;stroke-dasharray:none;stroke-opacity:0"
         inkscape:connector-curvature="0" /><path
         id="path3752-2-4"
         d="m 509.13827,142.82401 -1.31769,-5.14506 -4.00169,-4.15497 -5.20951,-5.64512 -4.35547,-3.02731 -4.50337,-1.49896 3.37407,-0.60308 6.87632,3.05794 4.49198,4.34439 2.91815,3.57583 3.62269,1.21893 2.65734,1.34772 -2.1998,0.97645 -1.20623,5.01288 z"
         style="fill:#000000;fill-opacity:0.144186;stroke:#000000;stroke-width:6.91309;stroke-linecap:butt;stroke-linejoin:miter;stroke-miterlimit:4;stroke-dasharray:none;stroke-opacity:0"
         inkscape:connector-curvature="0" /><path
         id="path3754-2-8"
         d="m 321.67403,51.990909 7.08312,0.806457 3.88422,1.543164 1.93945,2.963078 0.5209,3.649675 1.64238,4.480265 0.59368,3.791314 -2.10921,2.789679 2.68074,-2.015407 0.33317,-2.595985 -0.9598,-4.571348 -1.10103,-4.71108 -0.83739,-2.778557 -2.12329,-2.239402 -4.63313,-1.378389 -6.91381,0.266598 z"
         style="fill:#000000;fill-opacity:0.232558;stroke:#000000;stroke-width:6.91309;stroke-linecap:butt;stroke-linejoin:miter;stroke-miterlimit:4;stroke-dasharray:none;stroke-opacity:0"
         inkscape:connector-curvature="0" /><path
         id="path3756-1-2"
         d="m 332.71118,33.861414 -0.22427,1.658867 1.93672,0.592103 8.0094,-0.297446 1.95182,1.094626 1.15818,2.051045 -2.24945,-1.87661 -0.41459,2.167152 -2.40902,1.935934 -2.34539,-0.508753 -1.07029,-1.406864 -0.50146,-3.003567 1.98793,0.01595 0.56131,2.714486 1.63103,1.822158 1.66872,-1.483964 0.34826,-2.093441 -7.60933,-0.07316 -3.03448,-0.633038 -0.64216,-0.844127 z"
         style="fill:#000000;fill-opacity:0.427907;stroke:#000000;stroke-width:6.91309;stroke-linecap:butt;stroke-linejoin:miter;stroke-miterlimit:4;stroke-dasharray:none;stroke-opacity:0"
         inkscape:connector-curvature="0" /><path
         id="path3758-6-1"
         d="m 311.52958,414.19007 3.02393,2.47412 31.20145,5.22316 8.93434,0.82471 6.04786,-1.78687 12.92043,-1.92432 11.54592,-0.96216 3.02393,-2.74903 0.41235,-3.84864 -2.47412,-4.12354 -4.8108,-0.82471 2.88648,2.06177 1.92432,2.61158 0.2749,2.33667 -1.92432,2.19923 -7.42237,0.13745 -11.68337,1.23706 -8.10963,1.92432 -5.0857,0.2749 H 344.243 l -15.25711,-2.47412 -10.30884,-2.06177 z"
         style="fill:#ffffff;fill-opacity:0.15814;stroke:#000000;stroke-width:3.38675;stroke-linecap:butt;stroke-linejoin:miter;stroke-miterlimit:4;stroke-dasharray:none;stroke-opacity:0;filter:url(#filter3764-8-5-2-2)"
         inkscape:connector-curvature="0"
         transform="matrix(1.9927024,-0.05610807,0.06279109,2.0891431,-269.87405,-768.21667)" /><path
         sodipodi:nodetypes="cccc"
         id="path3768-8-6"
         d="m 339.84455,389.03647 c -13.06543,4.54779 -11.8368,13.91866 -1.09961,19.93045 -5.93127,-2.09784 -11.53482,-4.46878 -10.99611,-11.95827 1.83546,-5.76903 5.86182,-8.43427 12.09572,-7.97218 z"
         style="fill:#ffffff;fill-opacity:0.172093;stroke:#000000;stroke-width:3.38675;stroke-linecap:butt;stroke-linejoin:miter;stroke-miterlimit:4;stroke-dasharray:none;stroke-opacity:0;filter:url(#filter3794-9-7-8-5)"
         inkscape:connector-curvature="0"
         transform="matrix(1.9927024,-0.05610807,0.06279109,2.0891431,-269.87405,-768.21667)" /><path
         id="path3798-5-8"
         d="m 258.3359,400.71984 6.18531,5.77295 10.1714,4.8108 4.39844,1.92432 2.06177,2.61158 h 1.09962 l -2.47413,-3.43629 -14.9822,-7.83473 z"
         style="fill:#ffffff;fill-opacity:0.195349;stroke:#000000;stroke-width:3.38675;stroke-linecap:butt;stroke-linejoin:miter;stroke-miterlimit:4;stroke-dasharray:none;stroke-opacity:0;filter:url(#filter3812-4-9-7-6)"
         inkscape:connector-curvature="0"
         transform="matrix(1.9927024,-0.05610807,0.06279109,2.0891431,-269.87405,-768.21667)" /><path
         id="path3816-7-3"
         d="m 258.74825,446.35369 3.57374,1.23706 7.14747,-3.84863 7.69728,-8.24709 1.92431,-2.61157 -3.16138,2.33667 -6.59766,7.01002 -4.94825,2.74903 -2.33668,1.37451 z"
         style="fill:#ffffff;fill-opacity:0.134884;stroke:#000000;stroke-width:3.38675;stroke-linecap:butt;stroke-linejoin:miter;stroke-miterlimit:4;stroke-dasharray:none;stroke-opacity:0;filter:url(#filter3826-1-1-8-1)"
         inkscape:connector-curvature="0"
         transform="matrix(1.9927024,-0.05610807,0.06279109,2.0891431,-269.87405,-768.21667)" /><path
         id="path3831-6-1"
         d="m 555.88882,151.30256 c -0.0259,-0.86148 -0.0518,-1.72294 -0.0777,-2.58442 -0.003,-0.0957 -0.006,-0.19136 -0.009,-0.28715 -0.003,-0.0957 0.0348,-0.20275 -0.009,-0.28715 -0.0614,-0.11955 -0.22116,-0.16 -0.28253,-0.27944 -0.0434,-0.0845 0.058,-0.22129 -0.009,-0.28716 -0.0666,-0.0659 -0.20732,0.0736 -0.2739,0.008 -0.0666,-0.0659 0.058,-0.2213 -0.009,-0.28715 -0.0666,-0.0659 -0.20732,0.0736 -0.27392,0.008 -0.13319,-0.13174 0.11594,-0.44258 -0.0173,-0.57432 -0.0666,-0.0659 -0.2073,0.0736 -0.2739,0.008 -0.0658,-0.0651 0.0435,-0.45612 -0.0173,-0.5743 -0.0614,-0.11955 -0.22114,-0.16001 -0.28253,-0.27945 -0.0434,-0.0845 -0.006,-0.19136 -0.009,-0.28715 -0.003,-0.0957 -0.006,-0.19136 -0.009,-0.28715 -0.0173,-0.57433 -0.0345,-1.14863 -0.0518,-1.72294 -0.003,-0.0957 -0.006,-0.19136 -0.009,-0.28715 -0.003,-0.0957 0.0348,-0.20275 -0.009,-0.28715 -0.60587,-1.17903 0.0291,0.30641 -0.55643,-0.27173 -0.58456,-0.5782 0.86671,-0.001 -0.29116,-0.56662 -0.083,-0.0405 -0.20731,0.0736 -0.27389,0.008 -0.0666,-0.0659 0.0348,-0.20276 -0.009,-0.28716 -0.12286,-0.2389 -0.4423,-0.31998 -0.56508,-0.55888 -0.0434,-0.0845 -0.006,-0.19136 -0.009,-0.28715 -0.003,-0.0957 -0.006,-0.19137 -0.009,-0.28715 -0.003,-0.0957 0.058,-0.22131 -0.009,-0.28718 -0.0666,-0.0659 -0.2073,0.0736 -0.2739,0.008 -0.0666,-0.0659 -0.006,-0.19137 -0.009,-0.28716 -0.003,-0.0957 -0.006,-0.19136 -0.009,-0.28715 -0.003,-0.0957 -0.0712,-0.21765 -0.009,-0.28715 0.13973,-0.15532 0.39936,-0.14716 0.53918,-0.30258 0.0625,-0.0695 -0.0469,-0.20045 -0.009,-0.28715 0.0541,-0.1228 0.21116,-0.17218 0.26527,-0.29487 0.0383,-0.0868 -0.006,-0.19136 -0.009,-0.28717 -0.003,-0.0957 -0.006,-0.19137 -0.009,-0.28715 -0.009,-0.28716 -0.0173,-0.57431 -0.0259,-0.86146 -0.023,-0.76576 -0.046,-1.53149 -0.069,-2.29725 -0.003,-0.0957 0.058,-0.2213 -0.009,-0.28715 -0.0666,-0.0659 -0.20732,0.0736 -0.2739,0.008 -0.13319,-0.13174 0.11594,-0.44258 -0.0173,-0.57432 -0.0666,-0.0659 -0.20732,0.0736 -0.27392,0.008 -0.0666,-0.0659 -0.006,-0.19136 -0.009,-0.28715 -0.0115,-0.38288 -0.023,-0.76574 -0.0345,-1.14861 -0.0115,-0.38288 -0.023,-0.76576 -0.0345,-1.14863 -0.003,-0.0957 0.058,-0.22129 -0.009,-0.28716 -0.0666,-0.0659 -0.2073,0.0736 -0.2739,0.008 -0.58456,-0.57817 0.86671,-0.001 -0.29116,-0.56659 -0.7304,0.0206 0.0941,0.0931 -0.28253,-0.27944 -0.0666,-0.0659 -0.2073,0.0736 -0.27389,0.008 -0.0666,-0.0659 0.058,-0.2213 -0.009,-0.28717 -0.0666,-0.0659 -0.20732,0.0736 -0.2739,0.008 -0.0666,-0.0659 0.058,-0.22128 -0.009,-0.28715 -0.0666,-0.0659 -0.20732,0.0736 -0.2739,0.008 -0.0666,-0.0659 0.058,-0.22128 -0.009,-0.28715 -0.0666,-0.0659 -0.20732,0.0736 -0.27392,0.008 -0.0666,-0.0659 0.058,-0.22128 -0.009,-0.28715 -0.0666,-0.0659 -0.2073,0.0736 -0.27389,0.008 -0.0666,-0.0659 0.058,-0.22128 -0.009,-0.28715 -0.0666,-0.0659 -0.2073,0.0736 -0.2739,0.008 -0.0666,-0.0659 0.058,-0.22128 -0.009,-0.28715 -0.73041,0.0206 0.0941,0.0931 -0.28253,-0.27944 -0.0666,-0.0659 -0.2073,0.0736 -0.2739,0.008 -0.0666,-0.0659 0.058,-0.22131 -0.009,-0.28716 -0.0666,-0.0659 -0.20732,0.0736 -0.27389,0.008 -0.0666,-0.0659 0.058,-0.22131 -0.009,-0.28718 -0.0666,-0.0659 -0.20731,0.0736 -0.27389,0.008 -0.0666,-0.0659 0.058,-0.22129 -0.009,-0.28716 -0.0666,-0.0659 -0.20732,0.0736 -0.27392,0.008 -0.0658,-0.0651 0.0435,-0.45613 -0.0173,-0.57431 -0.93702,-0.9268 0.13726,0.2671 -0.29116,-0.56659 -0.0614,-0.11955 -0.22114,-0.16 -0.28253,-0.27944 -0.0434,-0.0845 0.058,-0.22131 -0.009,-0.28718 -0.0666,-0.0659 -0.2073,0.0736 -0.2739,0.008 -0.0666,-0.0659 0.058,-0.22128 -0.009,-0.28715 -0.0666,-0.0659 -0.20729,0.0736 -0.27389,0.008 -0.0666,-0.0659 0.058,-0.22128 -0.009,-0.28715 -0.0666,-0.0659 -0.2073,0.0736 -0.2739,0.008 -0.0666,-0.0659 -0.006,-0.19136 -0.009,-0.28715 -0.003,-0.0957 -0.006,-0.19137 -0.009,-0.28715 -0.003,-0.0957 0.058,-0.22128 -0.009,-0.28716 -0.0666,-0.0659 -0.20732,0.0736 -0.2739,0.008 -0.0666,-0.0659 0.058,-0.22131 -0.009,-0.28716 -0.0666,-0.0659 -0.20732,0.0736 -0.27392,0.008 -0.0666,-0.0659 0.0348,-0.20276 -0.009,-0.28718 -0.0614,-0.11933 -0.22114,-0.16 -0.28253,-0.27944 -0.0434,-0.0845 0.058,-0.22128 -0.009,-0.28715 -0.0666,-0.0659 -0.2073,0.0736 -0.27389,0.008 -0.0658,-0.0651 0.0435,-0.45612 -0.0173,-0.5743 -0.60588,-1.17903 0.0291,0.30641 -0.55643,-0.27173 -0.0666,-0.0659 0.058,-0.22131 -0.009,-0.28716 -0.0666,-0.0659 -0.2073,0.0736 -0.2739,0.008 -0.0666,-0.0659 0.058,-0.22131 -0.009,-0.28716 -0.0666,-0.0659 -0.20732,0.0736 -0.27389,0.008 -0.0666,-0.0659 0.058,-0.22131 -0.009,-0.28718 -0.0666,-0.0659 -0.20731,0.0736 -0.27389,0.008 -0.0666,-0.0659 0.058,-0.22128 -0.009,-0.28715 -0.0666,-0.0659 -0.20732,0.0736 -0.27392,0.008 -0.0666,-0.0659 0.058,-0.22128 -0.009,-0.28715 -0.0666,-0.0659 -0.19101,0.0482 -0.2739,0.008 -0.1174,-0.0573 -0.18828,-0.18622 -0.28253,-0.27944 -0.0941,-0.0931 -0.22114,-0.16 -0.28252,-0.27944 -0.0434,-0.0845 0.058,-0.2213 -0.009,-0.28715 -0.0666,-0.0659 -0.2073,0.0736 -0.2739,0.008 -0.0666,-0.0659 0.058,-0.2213 -0.009,-0.28715 -0.0666,-0.0659 -0.20732,0.0736 -0.2739,0.008 -0.0666,-0.0659 0.058,-0.2213 -0.009,-0.28717 -0.0666,-0.0659 -0.19101,0.0482 -0.2739,0.008 -0.11739,-0.0573 -0.16523,-0.22215 -0.28254,-0.27944 -0.083,-0.0405 -0.2073,0.0736 -0.2739,0.008 -0.0666,-0.0659 0.058,-0.22128 -0.009,-0.28715 -0.0666,-0.0659 -0.19101,0.0482 -0.2739,0.008 -0.1174,-0.0573 -0.16523,-0.22215 -0.28253,-0.27944 -0.083,-0.0405 -0.20729,0.0736 -0.27389,0.008 -0.0666,-0.0659 0.058,-0.22128 -0.009,-0.28715 -0.0666,-0.0659 -0.19101,0.0482 -0.2739,0.008 -0.1174,-0.0573 -0.16523,-0.22217 -0.28253,-0.27944 -0.083,-0.0405 -0.20732,0.0736 -0.27391,0.008 -0.0666,-0.0659 0.058,-0.2213 -0.009,-0.28715 -0.0666,-0.0659 -0.20729,0.0736 -0.27389,0.008 -0.0666,-0.0659 0.058,-0.2213 -0.009,-0.28717 -0.0666,-0.0659 -0.18253,0.005 -0.2739,0.008 -0.0913,0.003 -0.18253,0.005 -0.2739,0.008 -0.0913,0.003 -0.3652,0.0103 -0.27389,0.008 0.18253,-0.005 0.41461,-0.14717 0.54779,-0.0154 0.0941,0.0931 -0.26933,0.15959 -0.26527,0.29489 0.004,0.13537 0.23784,0.15221 0.28253,0.27944 0.0633,0.17992 -0.046,0.39432 0.0173,0.5743 0.0223,0.0636 0.52328,0.47755 0.56506,0.55888 0.0869,0.16901 -0.0696,0.40541 0.0173,0.57433 0.0614,0.11954 0.18828,0.18623 0.28255,0.27944 0.0941,0.0931 0.16523,0.22215 0.28252,0.27944 0.083,0.0405 0.19101,-0.0482 0.2739,-0.008 0.1174,0.0573 0.16523,0.22215 0.28253,0.27944 0.083,0.0405 0.19101,-0.0482 0.2739,-0.008 0.11739,0.0573 0.16523,0.22215 0.28252,0.27944 0.11599,0.0567 0.48204,-0.0805 0.54782,-0.0154 0.13319,0.13174 -0.11594,0.44259 0.0173,0.57431 0.0941,0.0931 0.45363,-0.10854 0.54779,-0.0154 0.0658,0.065 -0.0435,0.45614 0.0173,0.57432 0.0614,0.11934 0.22115,0.16 0.28253,0.27944 0.0777,0.15129 -0.0605,0.42296 0.0173,0.57431 0.60588,1.17902 -0.0292,-0.30642 0.55643,0.27173 0.0666,0.0659 0.006,0.19136 0.009,0.28715 0.006,0.19199 0.0115,0.38238 0.0173,0.57433 0.003,0.0957 -0.058,0.22128 0.009,0.28715 0.0666,0.0659 0.20732,-0.0736 0.2739,-0.008 0.0658,0.065 -0.0435,0.45612 0.0173,0.5743 0.0614,0.11954 0.18828,0.18623 0.28255,0.27944 0.0941,0.0931 0.16523,0.22217 0.28252,0.27944 0.083,0.0405 0.2073,-0.0736 0.2739,-0.008 0.0666,0.0659 -0.058,0.2213 0.009,0.28715 0.0666,0.0659 0.2073,-0.0736 0.2739,-0.008 0.0666,0.0659 -0.058,0.2213 0.009,0.28717 0.0666,0.0659 0.2073,-0.0736 0.2739,-0.008 0.0666,0.0659 -0.058,0.22129 0.009,0.28716 0.13319,0.13174 0.41462,-0.14717 0.54779,-0.0154 0.0666,0.0659 -0.058,0.22128 0.009,0.28715 0.0658,0.0651 0.43175,-0.0722 0.54782,-0.0154 0.34379,0.16784 0.28223,0.26954 0.29115,0.56659 0.003,0.0957 -0.058,0.22131 0.009,0.28716 0.58456,0.57817 -0.0494,-0.9073 0.55642,0.27172 0.0608,0.1181 -0.0485,0.50927 0.0173,0.57433 0.0943,0.0931 0.45355,-0.10874 0.5478,-0.0154 0.0666,0.0659 0.006,0.19136 0.009,0.28715 0.003,0.0957 0.006,0.19136 0.009,0.28715 0.003,0.0957 -0.058,0.22128 0.009,0.28715 0.0658,0.0651 0.43175,-0.0722 0.54781,-0.0154 0.61515,0.30041 0.0905,0.17581 0.29116,0.56659 0.0614,0.11955 0.22114,0.16 0.28253,0.27944 0.0434,0.0845 0.006,0.19137 0.009,0.28718 0.006,0.19136 0.0115,0.38285 0.0173,0.5743 0.023,0.76576 0.046,1.53149 0.069,2.29725 0.006,0.19136 0.0115,0.38294 0.0173,0.5743 0.003,0.0957 -0.0348,0.20275 0.009,0.28715 0.60587,1.17903 -0.0292,-0.30641 0.55642,0.27175 0.0666,0.0659 -0.058,0.22129 0.009,0.28716 0.0666,0.0659 0.20732,-0.0736 0.2739,-0.008 0.0666,0.0659 -0.058,0.22129 0.009,0.28716 0.0666,0.0659 0.18253,-0.005 0.2739,-0.008 0.003,0.0957 -0.058,0.22129 0.009,0.28716 0.0666,0.0659 0.20732,-0.0736 0.27392,-0.008 0.0666,0.0659 0.006,0.19137 0.009,0.28716 0.006,0.19178 0.0115,0.38256 0.0173,0.5743 0.003,0.0957 -0.058,0.22131 0.009,0.28718 0.0666,0.0659 0.2073,-0.0736 0.2739,-0.008 0.0658,0.0651 -0.0435,0.45613 0.0173,0.57431 0.60587,1.17903 -0.0292,-0.30642 0.55642,0.27173 0.0666,0.0659 0.006,0.19136 0.009,0.28715 0.0115,0.38288 0.023,0.76576 0.0345,1.14863 0.0259,0.86146 0.0518,1.72292 0.0777,2.5844 0.003,0.0957 0.006,0.19136 0.009,0.28715 0.003,0.0957 -0.058,0.22128 0.009,0.28715 0.0943,0.0933 0.45355,-0.10874 0.5478,-0.0154 0.0666,0.0659 0.006,0.19137 0.009,0.28715 0.0144,0.4786 0.0288,0.95718 0.0432,1.43579 0.003,0.0957 -0.058,0.22128 0.009,0.28715 0.0666,0.0659 0.20732,-0.0736 0.2739,-0.008 0.0666,0.0659 0.006,0.19136 0.009,0.28715 0.0913,-0.003 0.20732,-0.0736 0.27392,-0.008 0.0941,0.0931 -0.0769,0.48129 0.0173,0.5743 0.0943,0.0933 0.45355,-0.10853 0.54779,-0.0154 0.0666,0.0659 -0.058,0.2213 0.009,0.28717 0.58456,0.57818 -0.0494,-0.9073 0.55643,0.27173 0.0434,0.0845 -0.058,0.22128 0.009,0.28715 0.0666,0.0659 0.18253,-0.005 0.27389,-0.008 0.0913,-0.003 0.18254,-0.005 0.2739,-0.008 0.0913,-0.003 0.20732,-0.0736 0.2739,-0.008 0.0666,0.0659 0.006,0.19136 0.009,0.28715 0.003,0.0957 0.006,0.19137 0.009,0.28715 0.023,0.76576 0.046,1.53151 0.0691,2.29725 0.0201,0.67003 0.0403,1.34006 0.0604,2.01009 0.003,0.0957 0.006,0.19136 0.009,0.28715 0.003,0.0957 0.0999,0.2846 0.009,0.28717 -0.0913,0.003 -0.0679,-0.3603 -0.009,-0.28717 0.42749,0.52742 0.9029,1.04974 1.14739,1.69209 0.16955,0.4454 -0.0462,0.96581 0.0432,1.43578 0.0251,0.1329 0.18828,0.18623 0.28252,0.27944 0.0551,0.0545 0.36128,0.48866 0.55643,0.27173 0.0625,-0.0695 -0.006,-0.19136 -0.009,-0.28715"
         style="fill:#000000;fill-opacity:0.2;stroke:#000000;stroke-width:6.91309;stroke-linecap:butt;stroke-linejoin:miter;stroke-miterlimit:4;stroke-dasharray:none;stroke-opacity:0"
         inkscape:connector-curvature="0" /><path
         inkscape:connector-curvature="0"
         style="display:inline;fill:#ffcc00;fill-opacity:1;stroke:#000000;stroke-width:6.91309;stroke-miterlimit:4;stroke-dasharray:none;stroke-opacity:1"
         id="path4161"
         d="m 332.58012,6.9640235 1.96569,24.9617685 c 12.28374,-0.542877 23.98851,1.649181 34.53109,9.329605 l 13.34628,-20.995132 -9.58881,2.502389 c -0.0201,4.20514 -0.62264,7.879382 -2.61278,9.512676 -1.67876,1.37788 -6.16774,-1.410273 -6.31559,-6.177525 -2.15701,3.935828 -4.83251,2.444586 -6.26124,0.891827 -1.14841,-1.249483 -1.03008,-4.730654 0.34419,-6.122286 l 3.12936,-3.16755 -3.40307,-6.91519 -6.03805,3.843283 1.62138,5.349011 c 0.63562,2.098208 -1.07476,4.918277 -2.28115,5.755778 -1.25845,0.872808 -4.6393,1.367169 -5.5684,-3.749532 -1.67485,3.381746 -6.75767,4.410846 -8.00835,2.966938 -1.59026,-1.836646 1.75468,-10.459915 1.75468,-10.459915 z" /></g><g
       id="layer3"
       inkscape:label="Reflet final"
       style="stroke-width:3.45655" /><g
       id="layer4"
       inkscape:label="Contour final"
       style="stroke-width:3.45655"><path
         id="path1572"
         style="fill:none;stroke:#000000;stroke-width:10.3696;stroke-linecap:round;stroke-linejoin:round;stroke-miterlimit:4;stroke-dasharray:none;stroke-dashoffset:0;stroke-opacity:1"
         d="m 300.00002,658.5 c 0,-38.50407 31.20315,-69.75369 69.64997,-69.75369 38.44679,0 120.75317,0 159.19993,0 38.44682,0 69.65008,-31.24956 69.65008,-69.75358 V 1.4999995 l -596.9999695,5e-5 -3e-5,517.4926805 c 0,38.50402 31.2031795,69.75358 69.6500295,69.75358 38.44679,0 120.75317,0 159.19998,0 38.4468,0 69.65001,31.24962 69.65001,69.75369 z"
         sodipodi:nodetypes="cssccccssc"
         inkscape:connector-curvature="0" /></g></g></svg>
