<svg xmlns="http://www.w3.org/2000/svg" height="400" width="600"><path d="m 0 0.4 h 599.6 v 399.6 h -599.6 z" fill="#fff" stroke="#000" stroke-width="0.4"/><path d="m 189.44 69.05 h 221.4 v 118.8 c 0 70.2 -59.4 126.9 -110.7 143.1 c -51.3 -16.2 -110.7 -72.9 -110.7 -143.1 z" fill="#da121a"/><path stroke="#000" stroke-linejoin="round" stroke-linecap="round" stroke-width="2.16" d="m 189.44 69.05 h 221.4 v 62.1 h -221.4 z"/><g fill="#fff"><path d="m 249.03 112.41 h 18.16 c 5.116 0 5.116 19.17 0 19.17 h -17.906 c -5.116 0 -5.116 -19.17 -0.256 -19.17 z"/><path d="m 220.94 112.41 h 18.16 c 5.116 0 5.116 19.17 0 19.17 h -17.906 c -5.116 0 -5.116 -19.17 -0.256 -19.17 z"/><path d="m 192.85 112.41 h 18.16 c 5.116 0 5.116 19.17 0 19.17 h -17.906 c -5.116 0 -5.116 -19.17 -0.256 -19.17 z"/><path d="m 277.12 112.41 h 18.16 c 5.116 0 5.116 19.17 0 19.17 h -17.906 c -5.116 0 -5.116 -19.17 -0.256 -19.17 z"/><path d="m 305.21 112.41 h 18.16 c 5.116 0 5.116 19.17 0 19.17 h -17.906 c -5.116 0 -5.116 -19.17 -0.256 -19.17 z"/><path d="m 333.3 112.41 h 18.16 c 5.116 0 5.116 19.17 0 19.17 h -17.906 c -5.116 0 -5.116 -19.17 -0.256 -19.17 z"/><path d="m 361.39 112.41 h 18.16 c 5.116 0 5.116 19.17 0 19.17 h -17.906 c -5.116 0 -5.116 -19.17 -0.256 -19.17 z"/><path d="m 389.48 112.41 h 18.16 c 5.116 0 5.116 19.17 0 19.17 h -17.906 c -5.116 0 -5.116 -19.17 -0.256 -19.17 z"/><path d="m 234.49 90.7 h 18.16 c 5.116 0 5.116 19.17 0 19.17 h -17.906 c -5.116 0 -5.116 -19.17 -0.256 -19.17 z"/><path d="m 206.4 90.7 h 18.16 c 5.116 0 5.116 19.17 0 19.17 h -17.906 c -5.116 0 -5.116 -19.17 -0.256 -19.17 z"/><path d="m 188.81 90.7 h 7.66 c 5.116 0 5.116 19.17 0 19.17 h -7.66 c 0 0 0.147 -19.235 0 -19.17 z"/><path d="m 262.58 90.7 h 18.16 c 5.116 0 5.116 19.17 0 19.17 h -17.906 c -5.116 0 -5.116 -19.17 -0.256 -19.17 z"/><path d="m 290.67 90.7 h 18.16 c 5.116 0 5.116 19.17 0 19.17 h -17.906 c -5.116 0 -5.116 -19.17 -0.256 -19.17 z"/><path d="m 318.76 90.7 h 18.16 c 5.116 0 5.116 19.17 0 19.17 h -17.906 c -5.116 0 -5.116 -19.17 -0.256 -19.17 z"/><path d="m 346.85 90.7 h 18.16 c 5.116 0 5.116 19.17 0 19.17 h -17.906 c -5.116 0 -5.116 -19.17 -0.256 -19.17 z"/><path d="m 374.94 90.7 h 18.16 c 5.116 0 5.116 19.17 0 19.17 h -17.906 c -5.116 0 -5.116 -19.17 -0.256 -19.17 z"/><path d="m 403.03 90.7 c 1.437 0.195 8.806 0.382 8.806 0.382 0 0 -0.065 18.696 -0.038 18.788 h -8.512 c -5.116 0 -5.116 -19.17 -0.256 -19.17 z"/><path d="m 248.79 69.21 h 18.16 c 5.116 0 5.116 19.17 0 19.17 h -17.906 c -5.116 0 -5.116 -19.17 -0.256 -19.17 z"/><path d="m 220.7 69.21 h 18.16 c 5.116 0 5.116 19.17 0 19.17 h -17.906 c -5.116 0 -5.116 -19.17 -0.256 -19.17 z"/><path d="m 192.61 69.21 h 18.16 c 5.116 0 5.116 19.17 0 19.17 h -17.906 c -5.116 0 -5.116 -19.17 -0.256 -19.17 z"/><path d="m 276.88 69.21 h 18.16 c 5.116 0 5.116 19.17 0 19.17 h -17.906 c -5.116 0 -5.116 -19.17 -0.256 -19.17 z"/><path d="m 304.97 69.21 h 18.16 c 5.116 0 5.116 19.17 0 19.17 h -17.906 c -5.116 0 -5.116 -19.17 -0.256 -19.17 z"/><path d="m 333.07 69.21 h 18.16 c 5.116 0 5.116 19.17 0 19.17 h -17.906 c -5.116 0 -5.116 -19.17 -0.256 -19.17 z"/><path d="m 361.16 69.21 h 18.16 c 5.116 0 5.116 19.17 0 19.17 h -17.906 c -5.116 0 -5.116 -19.17 -0.256 -19.17 z"/><path d="m 389.25 69.21 h 18.16 c 5.116 0 5.116 19.17 0 19.17 h -17.906 c -5.116 0 -5.116 -19.17 -0.256 -19.17 z"/></g><path d="m 315.56 115.61 c -2.496 -2.914 -11.339 -0.434 -16.61 -0.573 10.826 -1.158 16.329 -6.239 20.05 -12.982 -10.41 -0.273 -19.02 -6.298 -27.558 0.187 5.357 -7.404 10.653 -15.325 5.984 -21.761 -2.722 -3.751 -8.255 -2.424 -10.971 -0.168 1.964 2.664 0.733 5.788 -0.293 8.95 1.032 0.622 2.929 0.38 4.964 0.955 -5.737 5.151 -10.629 10.969 -9.737 18.328 1.157 9.538 7.96 14.15 15.846 14.13 6.766 -0.016 13.54 -1.737 18.328 -7.06 z" fill="#da121a" stroke="#000" stroke-linejoin="round" stroke-linecap="round" stroke-width="2.16"/><path d="m 205.5 30.625 a 2 2.125 0 1 1 -4 0 2 2.125 0 1 1 4 0 z" transform="matrix(0.81 0 0 0.76235 127.27 59.6)"/><path d="m 248.06 115.61 c -2.496 -2.914 -11.339 -0.434 -16.61 -0.573 10.826 -1.158 16.329 -6.239 20.05 -12.982 -10.41 -0.273 -19.02 -6.298 -27.558 0.187 5.357 -7.404 10.653 -15.325 5.984 -21.761 -2.722 -3.751 -8.255 -2.424 -10.971 -0.168 1.964 2.664 0.733 5.788 -0.293 8.95 1.032 0.622 2.929 0.38 4.964 0.955 -5.737 5.151 -10.629 10.969 -9.737 18.328 1.157 9.538 7.96 14.15 15.846 14.13 6.766 -0.016 13.54 -1.737 18.328 -7.06 z" fill="#da121a" stroke="#000" stroke-linejoin="round" stroke-linecap="round" stroke-width="2.16"/><path d="m 205.5 30.625 a 2 2.125 0 1 1 -4 0 2 2.125 0 1 1 4 0 z" transform="matrix(0.81 0 0 0.76235 59.771 59.6)"/><path d="m 383.06 115.61 c -2.495 -2.914 -11.339 -0.434 -16.61 -0.573 10.826 -1.158 16.329 -6.239 20.05 -12.982 -10.41 -0.273 -19.02 -6.298 -27.558 0.187 5.357 -7.404 10.653 -15.325 5.984 -21.761 -2.722 -3.751 -8.255 -2.424 -10.971 -0.168 1.964 2.664 0.733 5.788 -0.293 8.95 1.032 0.622 2.929 0.38 4.964 0.955 -5.737 5.151 -10.629 10.969 -9.737 18.328 1.157 9.538 7.96 14.15 15.846 14.13 6.766 -0.016 13.54 -1.737 18.328 -7.06 z" fill="#da121a" stroke="#000" stroke-linejoin="round" stroke-linecap="round" stroke-width="2.16"/><path d="m 205.5 30.625 a 2 2.125 0 1 1 -4 0 2 2.125 0 1 1 4 0 z" transform="matrix(0.81 0 0 0.76235 194.77 59.6)"/><g stroke="#000"><g stroke-linejoin="round" stroke-linecap="round"><g stroke-width="2.16"><g fill="#fcdd09"><path d="m 319.39 146.92 c 11.366 -0.164 20.424 -9.29 30.659 -4.555 12.635 5.845 14.789 17.573 13.542 28.16 -1.772 15.05 -21.469 26.383 -19.447 50.34 l -19.995 -24.893 c 11.594 0.072 18.981 -5.093 24.12 -13.792 7.214 -12.208 9.724 -25.375 -0.606 -31.573 -8.845 -5.307 -21.392 0.839 -28.21 14.575 z"/><path d="m 277.83 139.25 v 37.8 c 0 10.8 -4.25 17.902 -10.8 24.3 -9.603 9.38 -14.967 20.792 -13.5 32.4 1.823 14.423 9.451 29.01 18.9 43.2 8.06 12.1 2.794 16.16 -2.7 24.3 -2.136 3.165 -2.7 8.1 0 8.1 h 61.45 c 2.7 0 0.487 -5.992 -1.242 -8.1 -4.963 -6.05 -6.433 -11.742 -0.81 -24.3 6.657 -14.867 17.755 -28.761 18.9 -43.2 0.855 -10.775 -3.911 -22.846 -13.5 -32.4 -8.607 -8.575 -13.5 -13.5 -13.5 -24.3 v -37.8 z"/></g><path d="m 263.57 205.75 c 13.222 18.615 12.364 38.31 -1.875 52.697 m 40.43 -57.1 c 24.3 0 24.3 59.4 0 59.4 -24.3 0 -24.3 -59.4 0 -59.4 m -31.32 99.36 h 58.05 m -55.35 -4.32 h 53.46 m -51.3 -4.32 h 49.734 m -48.654 -4.32 h 48.816 m -47.736 -137.7 h 42.93 m -42.93 3.78 h 42.93 m -42.93 4.32 h 42.93 m -42.93 3.78 h 42.93 m -42.93 4.32 h 42.93 m -42.93 3.78 h 42.93 m -42.93 3.78 h 42.93 m -42.93 3.78 h 42.93 m -42.93 4.32 h 43.47 m -44.28 5.4 h 45.954 m -48.38 5.4 h 51.3" fill="none"/></g><path d="m 189.44 69.05 h 221.4 v 118.8 c 0 70.2 -59.4 126.9 -110.7 143.1 c -51.3 -16.2 -110.7 -72.9 -110.7 -143.1 z" fill="none" stroke-width="3.24"/></g><path d="m 188.9 131.69 h 221.4" fill="none" stroke-width="2.7"/></g></svg>