<?xml version="1.0" encoding="UTF-8" standalone="no"?>
<svg
   xmlns:dc="http://purl.org/dc/elements/1.1/"
   xmlns:cc="http://web.resource.org/cc/"
   xmlns:rdf="http://www.w3.org/1999/02/22-rdf-syntax-ns#"
   xmlns:svg="http://www.w3.org/2000/svg"
   xmlns="http://www.w3.org/2000/svg"
   xmlns:xlink="http://www.w3.org/1999/xlink"
   xmlns:sodipodi="http://sodipodi.sourceforge.net/DTD/sodipodi-0.dtd"
   xmlns:inkscape="http://www.inkscape.org/namespaces/inkscape"
   version="1.0"
   width="600"
   height="400"
   id="svg3568"
   sodipodi:version="0.32"
   inkscape:version="0.45.1"
   sodipodi:docname="Nandrin.svg"
   inkscape:output_extension="org.inkscape.output.svg.inkscape"
   sodipodi:docbase="C:\TIIKERI\Liput\Belgia\provinssit\Liège - kunnat\Huy\svg">
  <metadata
     id="metadata3593">
    <rdf:RDF>
      <cc:Work
         rdf:about="">
        <dc:format>image/svg+xml</dc:format>
        <dc:type
           rdf:resource="http://purl.org/dc/dcmitype/StillImage" />
      </cc:Work>
    </rdf:RDF>
  </metadata>
  <sodipodi:namedview
     inkscape:window-height="712"
     inkscape:window-width="1024"
     inkscape:pageshadow="2"
     inkscape:pageopacity="0.0"
     guidetolerance="10.0"
     gridtolerance="10.0"
     objecttolerance="10.0"
     borderopacity="1.0"
     bordercolor="#666666"
     pagecolor="#ffffff"
     id="base"
     showguides="true"
     inkscape:guide-bbox="true"
     inkscape:zoom="0.83554965"
     inkscape:cx="276.40459"
     inkscape:cy="246.99897"
     inkscape:window-x="-4"
     inkscape:window-y="-4"
     inkscape:current-layer="svg3568"
     width="600px"
     height="400px">
    <sodipodi:guide
       orientation="vertical"
       position="44.137931"
       id="guide3764" />
    <sodipodi:guide
       orientation="vertical"
       position="436.28647"
       id="guide3766" />
  </sodipodi:namedview>
  <defs
     id="defs3570">
    <pattern
       id="ermine"
       x="15"
       width="90"
       height="128"
       viewBox="-45 -22 90 128"
       patternUnits="userSpaceOnUse">
      <path
         d="M0,0 C-4,10 -4,20 -16,34 Q-9,34 -5,29 Q-4,35 0,39     Q4,35 5,29 Q9,34 16,34 C4,20 4,10 0,0"
         id="path3573" />
      <path
         id="spot"
         d="M8,4 a4,4 0 0 1 0,-8 c4,0 4,4 11,4 c-7,0 -7,4 -11,4" />
      <use
         transform="scale(-1)"
         xlink:href="#spot"
         id="use3576" />
      <use
         transform="rotate(-90)"
         xlink:href="#spot"
         id="use3578" />
    </pattern>
  </defs>
  <g
     id="g4187">
    <rect
       y="0"
       x="0"
       height="400"
       width="600"
       id="rect3762"
       style="fill:#da121a;fill-opacity:1;stroke:none;stroke-opacity:1" />
    <rect
       y="0"
       x="0"
       height="80"
       width="600"
       id="rect3781"
       style="fill:#ffffff;fill-opacity:1;stroke:none;stroke-opacity:1" />
    <rect
       y="159.82634"
       x="0"
       height="80"
       width="600"
       id="rect3783"
       style="fill:#ffffff;fill-opacity:1;stroke:none;stroke-opacity:1" />
    <rect
       y="320"
       x="0"
       height="80"
       width="600"
       id="rect3779"
       style="fill:#ffffff;fill-opacity:1;stroke:none;stroke-opacity:1" />
    <g
       transform="matrix(1.25,0,0,1.25,-0.2652452,0.5980456)"
       id="g3833">
      <g
         transform="matrix(0.1797052,0,0,0.1797052,-7.7300592,250.13115)"
         style="display:inline"
         id="layer2"
         inkscape:transform-center-x="28.041478"
         inkscape:transform-center-y="-52.077026">
        <g
           style="fill:#000000;fill-opacity:1"
           id="g4564">
          <path
             d="M 377.12803,135.62208 C 363.02661,205.73306 336.73998,255.37403 308.18363,291.06095 C 320.05424,287.49883 333.39868,277.37136 346.30099,268.51112 C 338.41058,286.89606 330.52017,302.95607 322.62976,319.17879 C 327.34089,317.4313 342.29073,301.0571 362.59516,277.03346 C 365.77841,310.06027 370.08215,347.25496 376.51201,369.64909 C 381.63098,347.29082 385.41835,310.2849 389.48097,276.30682 C 401.72195,291.50121 413.61062,306.87175 430.17301,319.90544 L 406.92042,267.5871 C 418.92697,275.98511 432.19471,287.10163 444.92715,291.7876 C 414.7385,254.31996 389.31682,205.74061 377.12803,135.62208 z "
             style="fill:#000000;fill-opacity:1;fill-rule:evenodd;stroke:#000000;stroke-width:3;stroke-linecap:round;stroke-linejoin:round;stroke-miterlimit:4;stroke-dasharray:none;stroke-opacity:1"
             id="path1883" />
          <path
             d="M 319.72318,139.69782 C 318.42725,135.61998 300.18538,148.67252 290.12817,121.31047 C 314.11958,148.89422 338.90845,92.268711 358.96194,130.25146 C 365.15076,145.92197 338.0398,173.11186 319.72318,139.69782 z "
             style="fill:#000000;fill-opacity:1;fill-rule:evenodd;stroke:#000000;stroke-width:3;stroke-linecap:round;stroke-linejoin:round;stroke-miterlimit:4;stroke-dasharray:none;stroke-opacity:1"
             id="path1887" />
          <path
             d="M 431.71563,139.34811 C 433.01156,135.27027 451.25343,148.32281 461.31064,120.96076 C 437.31923,148.54451 412.53036,91.919 392.47687,129.90175 C 386.28805,145.57226 413.39901,172.76215 431.71563,139.34811 z "
             style="fill:#000000;fill-opacity:1;fill-rule:evenodd;stroke:#000000;stroke-width:3;stroke-linecap:round;stroke-linejoin:round;stroke-miterlimit:4;stroke-dasharray:none;stroke-opacity:1;display:inline"
             id="path1893" />
          <path
             d="M 383.38239,79.374824 C 379.68544,77.220552 396.40299,62.265328 371.89381,46.481478 C 393.57969,75.912309 332.91037,87.751712 365.60384,115.60792 C 379.5469,125.06613 411.99605,104.53936 383.38239,79.374824 z "
             style="fill:#000000;fill-opacity:1;fill-rule:evenodd;stroke:#000000;stroke-width:3;stroke-linecap:round;stroke-linejoin:round;stroke-miterlimit:4;stroke-dasharray:none;stroke-opacity:1;display:inline"
             id="path1895" />
        </g>
      </g>
      <g
         transform="matrix(0.1797052,0,0,0.1797052,172.69347,250.13115)"
         style="display:inline"
         id="g3785"
         inkscape:transform-center-x="28.041478"
         inkscape:transform-center-y="-52.077026">
        <g
           style="fill:#000000;fill-opacity:1"
           id="g3787">
          <path
             d="M 377.12803,135.62208 C 363.02661,205.73306 336.73998,255.37403 308.18363,291.06095 C 320.05424,287.49883 333.39868,277.37136 346.30099,268.51112 C 338.41058,286.89606 330.52017,302.95607 322.62976,319.17879 C 327.34089,317.4313 342.29073,301.0571 362.59516,277.03346 C 365.77841,310.06027 370.08215,347.25496 376.51201,369.64909 C 381.63098,347.29082 385.41835,310.2849 389.48097,276.30682 C 401.72195,291.50121 413.61062,306.87175 430.17301,319.90544 L 406.92042,267.5871 C 418.92697,275.98511 432.19471,287.10163 444.92715,291.7876 C 414.7385,254.31996 389.31682,205.74061 377.12803,135.62208 z "
             style="fill:#000000;fill-opacity:1;fill-rule:evenodd;stroke:#000000;stroke-width:3;stroke-linecap:round;stroke-linejoin:round;stroke-miterlimit:4;stroke-dasharray:none;stroke-opacity:1"
             id="path3789" />
          <path
             d="M 319.72318,139.69782 C 318.42725,135.61998 300.18538,148.67252 290.12817,121.31047 C 314.11958,148.89422 338.90845,92.268711 358.96194,130.25146 C 365.15076,145.92197 338.0398,173.11186 319.72318,139.69782 z "
             style="fill:#000000;fill-opacity:1;fill-rule:evenodd;stroke:#000000;stroke-width:3;stroke-linecap:round;stroke-linejoin:round;stroke-miterlimit:4;stroke-dasharray:none;stroke-opacity:1"
             id="path3791" />
          <path
             d="M 431.71563,139.34811 C 433.01156,135.27027 451.25343,148.32281 461.31064,120.96076 C 437.31923,148.54451 412.53036,91.919 392.47687,129.90175 C 386.28805,145.57226 413.39901,172.76215 431.71563,139.34811 z "
             style="fill:#000000;fill-opacity:1;fill-rule:evenodd;stroke:#000000;stroke-width:3;stroke-linecap:round;stroke-linejoin:round;stroke-miterlimit:4;stroke-dasharray:none;stroke-opacity:1;display:inline"
             id="path3793" />
          <path
             d="M 383.38239,79.374824 C 379.68544,77.220552 396.40299,62.265328 371.89381,46.481478 C 393.57969,75.912309 332.91037,87.751712 365.60384,115.60792 C 379.5469,125.06613 411.99605,104.53936 383.38239,79.374824 z "
             style="fill:#000000;fill-opacity:1;fill-rule:evenodd;stroke:#000000;stroke-width:3;stroke-linecap:round;stroke-linejoin:round;stroke-miterlimit:4;stroke-dasharray:none;stroke-opacity:1;display:inline"
             id="path3795" />
        </g>
      </g>
      <g
         transform="matrix(0.1797052,0,0,0.1797052,82.48171,250.13115)"
         style="display:inline"
         id="g3797"
         inkscape:transform-center-x="28.041478"
         inkscape:transform-center-y="-52.077026">
        <g
           style="fill:#000000;fill-opacity:1"
           id="g3799">
          <path
             d="M 377.12803,135.62208 C 363.02661,205.73306 336.73998,255.37403 308.18363,291.06095 C 320.05424,287.49883 333.39868,277.37136 346.30099,268.51112 C 338.41058,286.89606 330.52017,302.95607 322.62976,319.17879 C 327.34089,317.4313 342.29073,301.0571 362.59516,277.03346 C 365.77841,310.06027 370.08215,347.25496 376.51201,369.64909 C 381.63098,347.29082 385.41835,310.2849 389.48097,276.30682 C 401.72195,291.50121 413.61062,306.87175 430.17301,319.90544 L 406.92042,267.5871 C 418.92697,275.98511 432.19471,287.10163 444.92715,291.7876 C 414.7385,254.31996 389.31682,205.74061 377.12803,135.62208 z "
             style="fill:#000000;fill-opacity:1;fill-rule:evenodd;stroke:#000000;stroke-width:3;stroke-linecap:round;stroke-linejoin:round;stroke-miterlimit:4;stroke-dasharray:none;stroke-opacity:1"
             id="path3801" />
          <path
             d="M 319.72318,139.69782 C 318.42725,135.61998 300.18538,148.67252 290.12817,121.31047 C 314.11958,148.89422 338.90845,92.268711 358.96194,130.25146 C 365.15076,145.92197 338.0398,173.11186 319.72318,139.69782 z "
             style="fill:#000000;fill-opacity:1;fill-rule:evenodd;stroke:#000000;stroke-width:3;stroke-linecap:round;stroke-linejoin:round;stroke-miterlimit:4;stroke-dasharray:none;stroke-opacity:1"
             id="path3803" />
          <path
             d="M 431.71563,139.34811 C 433.01156,135.27027 451.25343,148.32281 461.31064,120.96076 C 437.31923,148.54451 412.53036,91.919 392.47687,129.90175 C 386.28805,145.57226 413.39901,172.76215 431.71563,139.34811 z "
             style="fill:#000000;fill-opacity:1;fill-rule:evenodd;stroke:#000000;stroke-width:3;stroke-linecap:round;stroke-linejoin:round;stroke-miterlimit:4;stroke-dasharray:none;stroke-opacity:1;display:inline"
             id="path3805" />
          <path
             d="M 383.38239,79.374824 C 379.68544,77.220552 396.40299,62.265328 371.89381,46.481478 C 393.57969,75.912309 332.91037,87.751712 365.60384,115.60792 C 379.5469,125.06613 411.99605,104.53936 383.38239,79.374824 z "
             style="fill:#000000;fill-opacity:1;fill-rule:evenodd;stroke:#000000;stroke-width:3;stroke-linecap:round;stroke-linejoin:round;stroke-miterlimit:4;stroke-dasharray:none;stroke-opacity:1;display:inline"
             id="path3807" />
        </g>
      </g>
      <g
         transform="matrix(0.1797052,0,0,0.1797052,262.90523,250.13115)"
         style="display:inline"
         id="g3809"
         inkscape:transform-center-x="28.041478"
         inkscape:transform-center-y="-52.077026">
        <g
           style="fill:#000000;fill-opacity:1"
           id="g3811">
          <path
             d="M 377.12803,135.62208 C 363.02661,205.73306 336.73998,255.37403 308.18363,291.06095 C 320.05424,287.49883 333.39868,277.37136 346.30099,268.51112 C 338.41058,286.89606 330.52017,302.95607 322.62976,319.17879 C 327.34089,317.4313 342.29073,301.0571 362.59516,277.03346 C 365.77841,310.06027 370.08215,347.25496 376.51201,369.64909 C 381.63098,347.29082 385.41835,310.2849 389.48097,276.30682 C 401.72195,291.50121 413.61062,306.87175 430.17301,319.90544 L 406.92042,267.5871 C 418.92697,275.98511 432.19471,287.10163 444.92715,291.7876 C 414.7385,254.31996 389.31682,205.74061 377.12803,135.62208 z "
             style="fill:#000000;fill-opacity:1;fill-rule:evenodd;stroke:#000000;stroke-width:3;stroke-linecap:round;stroke-linejoin:round;stroke-miterlimit:4;stroke-dasharray:none;stroke-opacity:1"
             id="path3813" />
          <path
             d="M 319.72318,139.69782 C 318.42725,135.61998 300.18538,148.67252 290.12817,121.31047 C 314.11958,148.89422 338.90845,92.268711 358.96194,130.25146 C 365.15076,145.92197 338.0398,173.11186 319.72318,139.69782 z "
             style="fill:#000000;fill-opacity:1;fill-rule:evenodd;stroke:#000000;stroke-width:3;stroke-linecap:round;stroke-linejoin:round;stroke-miterlimit:4;stroke-dasharray:none;stroke-opacity:1"
             id="path3815" />
          <path
             d="M 431.71563,139.34811 C 433.01156,135.27027 451.25343,148.32281 461.31064,120.96076 C 437.31923,148.54451 412.53036,91.919 392.47687,129.90175 C 386.28805,145.57226 413.39901,172.76215 431.71563,139.34811 z "
             style="fill:#000000;fill-opacity:1;fill-rule:evenodd;stroke:#000000;stroke-width:3;stroke-linecap:round;stroke-linejoin:round;stroke-miterlimit:4;stroke-dasharray:none;stroke-opacity:1;display:inline"
             id="path3817" />
          <path
             d="M 383.38239,79.374824 C 379.68544,77.220552 396.40299,62.265328 371.89381,46.481478 C 393.57969,75.912309 332.91037,87.751712 365.60384,115.60792 C 379.5469,125.06613 411.99605,104.53936 383.38239,79.374824 z "
             style="fill:#000000;fill-opacity:1;fill-rule:evenodd;stroke:#000000;stroke-width:3;stroke-linecap:round;stroke-linejoin:round;stroke-miterlimit:4;stroke-dasharray:none;stroke-opacity:1;display:inline"
             id="path3819" />
        </g>
      </g>
      <g
         transform="matrix(0.1797052,0,0,0.1797052,353.11699,250.13115)"
         style="display:inline"
         id="g3821"
         inkscape:transform-center-x="28.041478"
         inkscape:transform-center-y="-52.077026">
        <g
           style="fill:#000000;fill-opacity:1"
           id="g3823">
          <path
             d="M 377.12803,135.62208 C 363.02661,205.73306 336.73998,255.37403 308.18363,291.06095 C 320.05424,287.49883 333.39868,277.37136 346.30099,268.51112 C 338.41058,286.89606 330.52017,302.95607 322.62976,319.17879 C 327.34089,317.4313 342.29073,301.0571 362.59516,277.03346 C 365.77841,310.06027 370.08215,347.25496 376.51201,369.64909 C 381.63098,347.29082 385.41835,310.2849 389.48097,276.30682 C 401.72195,291.50121 413.61062,306.87175 430.17301,319.90544 L 406.92042,267.5871 C 418.92697,275.98511 432.19471,287.10163 444.92715,291.7876 C 414.7385,254.31996 389.31682,205.74061 377.12803,135.62208 z "
             style="fill:#000000;fill-opacity:1;fill-rule:evenodd;stroke:#000000;stroke-width:3;stroke-linecap:round;stroke-linejoin:round;stroke-miterlimit:4;stroke-dasharray:none;stroke-opacity:1"
             id="path3825" />
          <path
             d="M 319.72318,139.69782 C 318.42725,135.61998 300.18538,148.67252 290.12817,121.31047 C 314.11958,148.89422 338.90845,92.268711 358.96194,130.25146 C 365.15076,145.92197 338.0398,173.11186 319.72318,139.69782 z "
             style="fill:#000000;fill-opacity:1;fill-rule:evenodd;stroke:#000000;stroke-width:3;stroke-linecap:round;stroke-linejoin:round;stroke-miterlimit:4;stroke-dasharray:none;stroke-opacity:1"
             id="path3827" />
          <path
             d="M 431.71563,139.34811 C 433.01156,135.27027 451.25343,148.32281 461.31064,120.96076 C 437.31923,148.54451 412.53036,91.919 392.47687,129.90175 C 386.28805,145.57226 413.39901,172.76215 431.71563,139.34811 z "
             style="fill:#000000;fill-opacity:1;fill-rule:evenodd;stroke:#000000;stroke-width:3;stroke-linecap:round;stroke-linejoin:round;stroke-miterlimit:4;stroke-dasharray:none;stroke-opacity:1;display:inline"
             id="path3829" />
          <path
             d="M 383.38239,79.374824 C 379.68544,77.220552 396.40299,62.265328 371.89381,46.481478 C 393.57969,75.912309 332.91037,87.751712 365.60384,115.60792 C 379.5469,125.06613 411.99605,104.53936 383.38239,79.374824 z "
             style="fill:#000000;fill-opacity:1;fill-rule:evenodd;stroke:#000000;stroke-width:3;stroke-linecap:round;stroke-linejoin:round;stroke-miterlimit:4;stroke-dasharray:none;stroke-opacity:1;display:inline"
             id="path3831" />
        </g>
      </g>
    </g>
    <g
       transform="matrix(1.25,0,0,1.25,-0.2652452,-159.5756)"
       id="g3865">
      <g
         transform="matrix(0.1797052,0,0,0.1797052,-7.7300592,250.13115)"
         style="display:inline"
         id="g3867"
         inkscape:transform-center-x="28.041478"
         inkscape:transform-center-y="-52.077026">
        <g
           style="fill:#000000;fill-opacity:1"
           id="g3869">
          <path
             d="M 377.12803,135.62208 C 363.02661,205.73306 336.73998,255.37403 308.18363,291.06095 C 320.05424,287.49883 333.39868,277.37136 346.30099,268.51112 C 338.41058,286.89606 330.52017,302.95607 322.62976,319.17879 C 327.34089,317.4313 342.29073,301.0571 362.59516,277.03346 C 365.77841,310.06027 370.08215,347.25496 376.51201,369.64909 C 381.63098,347.29082 385.41835,310.2849 389.48097,276.30682 C 401.72195,291.50121 413.61062,306.87175 430.17301,319.90544 L 406.92042,267.5871 C 418.92697,275.98511 432.19471,287.10163 444.92715,291.7876 C 414.7385,254.31996 389.31682,205.74061 377.12803,135.62208 z "
             style="fill:#000000;fill-opacity:1;fill-rule:evenodd;stroke:#000000;stroke-width:3;stroke-linecap:round;stroke-linejoin:round;stroke-miterlimit:4;stroke-dasharray:none;stroke-opacity:1"
             id="path3871" />
          <path
             d="M 319.72318,139.69782 C 318.42725,135.61998 300.18538,148.67252 290.12817,121.31047 C 314.11958,148.89422 338.90845,92.268711 358.96194,130.25146 C 365.15076,145.92197 338.0398,173.11186 319.72318,139.69782 z "
             style="fill:#000000;fill-opacity:1;fill-rule:evenodd;stroke:#000000;stroke-width:3;stroke-linecap:round;stroke-linejoin:round;stroke-miterlimit:4;stroke-dasharray:none;stroke-opacity:1"
             id="path3873" />
          <path
             d="M 431.71563,139.34811 C 433.01156,135.27027 451.25343,148.32281 461.31064,120.96076 C 437.31923,148.54451 412.53036,91.919 392.47687,129.90175 C 386.28805,145.57226 413.39901,172.76215 431.71563,139.34811 z "
             style="fill:#000000;fill-opacity:1;fill-rule:evenodd;stroke:#000000;stroke-width:3;stroke-linecap:round;stroke-linejoin:round;stroke-miterlimit:4;stroke-dasharray:none;stroke-opacity:1;display:inline"
             id="path3875" />
          <path
             d="M 383.38239,79.374824 C 379.68544,77.220552 396.40299,62.265328 371.89381,46.481478 C 393.57969,75.912309 332.91037,87.751712 365.60384,115.60792 C 379.5469,125.06613 411.99605,104.53936 383.38239,79.374824 z "
             style="fill:#000000;fill-opacity:1;fill-rule:evenodd;stroke:#000000;stroke-width:3;stroke-linecap:round;stroke-linejoin:round;stroke-miterlimit:4;stroke-dasharray:none;stroke-opacity:1;display:inline"
             id="path3877" />
        </g>
      </g>
      <g
         transform="matrix(0.1797052,0,0,0.1797052,172.69347,250.13115)"
         style="display:inline"
         id="g3879"
         inkscape:transform-center-x="28.041478"
         inkscape:transform-center-y="-52.077026">
        <g
           style="fill:#000000;fill-opacity:1"
           id="g3881">
          <path
             d="M 377.12803,135.62208 C 363.02661,205.73306 336.73998,255.37403 308.18363,291.06095 C 320.05424,287.49883 333.39868,277.37136 346.30099,268.51112 C 338.41058,286.89606 330.52017,302.95607 322.62976,319.17879 C 327.34089,317.4313 342.29073,301.0571 362.59516,277.03346 C 365.77841,310.06027 370.08215,347.25496 376.51201,369.64909 C 381.63098,347.29082 385.41835,310.2849 389.48097,276.30682 C 401.72195,291.50121 413.61062,306.87175 430.17301,319.90544 L 406.92042,267.5871 C 418.92697,275.98511 432.19471,287.10163 444.92715,291.7876 C 414.7385,254.31996 389.31682,205.74061 377.12803,135.62208 z "
             style="fill:#000000;fill-opacity:1;fill-rule:evenodd;stroke:#000000;stroke-width:3;stroke-linecap:round;stroke-linejoin:round;stroke-miterlimit:4;stroke-dasharray:none;stroke-opacity:1"
             id="path3883" />
          <path
             d="M 319.72318,139.69782 C 318.42725,135.61998 300.18538,148.67252 290.12817,121.31047 C 314.11958,148.89422 338.90845,92.268711 358.96194,130.25146 C 365.15076,145.92197 338.0398,173.11186 319.72318,139.69782 z "
             style="fill:#000000;fill-opacity:1;fill-rule:evenodd;stroke:#000000;stroke-width:3;stroke-linecap:round;stroke-linejoin:round;stroke-miterlimit:4;stroke-dasharray:none;stroke-opacity:1"
             id="path3885" />
          <path
             d="M 431.71563,139.34811 C 433.01156,135.27027 451.25343,148.32281 461.31064,120.96076 C 437.31923,148.54451 412.53036,91.919 392.47687,129.90175 C 386.28805,145.57226 413.39901,172.76215 431.71563,139.34811 z "
             style="fill:#000000;fill-opacity:1;fill-rule:evenodd;stroke:#000000;stroke-width:3;stroke-linecap:round;stroke-linejoin:round;stroke-miterlimit:4;stroke-dasharray:none;stroke-opacity:1;display:inline"
             id="path3887" />
          <path
             d="M 383.38239,79.374824 C 379.68544,77.220552 396.40299,62.265328 371.89381,46.481478 C 393.57969,75.912309 332.91037,87.751712 365.60384,115.60792 C 379.5469,125.06613 411.99605,104.53936 383.38239,79.374824 z "
             style="fill:#000000;fill-opacity:1;fill-rule:evenodd;stroke:#000000;stroke-width:3;stroke-linecap:round;stroke-linejoin:round;stroke-miterlimit:4;stroke-dasharray:none;stroke-opacity:1;display:inline"
             id="path3889" />
        </g>
      </g>
      <g
         transform="matrix(0.1797052,0,0,0.1797052,82.48171,250.13115)"
         style="display:inline"
         id="g3891"
         inkscape:transform-center-x="28.041478"
         inkscape:transform-center-y="-52.077026">
        <g
           style="fill:#000000;fill-opacity:1"
           id="g3893">
          <path
             d="M 377.12803,135.62208 C 363.02661,205.73306 336.73998,255.37403 308.18363,291.06095 C 320.05424,287.49883 333.39868,277.37136 346.30099,268.51112 C 338.41058,286.89606 330.52017,302.95607 322.62976,319.17879 C 327.34089,317.4313 342.29073,301.0571 362.59516,277.03346 C 365.77841,310.06027 370.08215,347.25496 376.51201,369.64909 C 381.63098,347.29082 385.41835,310.2849 389.48097,276.30682 C 401.72195,291.50121 413.61062,306.87175 430.17301,319.90544 L 406.92042,267.5871 C 418.92697,275.98511 432.19471,287.10163 444.92715,291.7876 C 414.7385,254.31996 389.31682,205.74061 377.12803,135.62208 z "
             style="fill:#000000;fill-opacity:1;fill-rule:evenodd;stroke:#000000;stroke-width:3;stroke-linecap:round;stroke-linejoin:round;stroke-miterlimit:4;stroke-dasharray:none;stroke-opacity:1"
             id="path3895" />
          <path
             d="M 319.72318,139.69782 C 318.42725,135.61998 300.18538,148.67252 290.12817,121.31047 C 314.11958,148.89422 338.90845,92.268711 358.96194,130.25146 C 365.15076,145.92197 338.0398,173.11186 319.72318,139.69782 z "
             style="fill:#000000;fill-opacity:1;fill-rule:evenodd;stroke:#000000;stroke-width:3;stroke-linecap:round;stroke-linejoin:round;stroke-miterlimit:4;stroke-dasharray:none;stroke-opacity:1"
             id="path3897" />
          <path
             d="M 431.71563,139.34811 C 433.01156,135.27027 451.25343,148.32281 461.31064,120.96076 C 437.31923,148.54451 412.53036,91.919 392.47687,129.90175 C 386.28805,145.57226 413.39901,172.76215 431.71563,139.34811 z "
             style="fill:#000000;fill-opacity:1;fill-rule:evenodd;stroke:#000000;stroke-width:3;stroke-linecap:round;stroke-linejoin:round;stroke-miterlimit:4;stroke-dasharray:none;stroke-opacity:1;display:inline"
             id="path3899" />
          <path
             d="M 383.38239,79.374824 C 379.68544,77.220552 396.40299,62.265328 371.89381,46.481478 C 393.57969,75.912309 332.91037,87.751712 365.60384,115.60792 C 379.5469,125.06613 411.99605,104.53936 383.38239,79.374824 z "
             style="fill:#000000;fill-opacity:1;fill-rule:evenodd;stroke:#000000;stroke-width:3;stroke-linecap:round;stroke-linejoin:round;stroke-miterlimit:4;stroke-dasharray:none;stroke-opacity:1;display:inline"
             id="path3901" />
        </g>
      </g>
      <g
         transform="matrix(0.1797052,0,0,0.1797052,262.90523,250.13115)"
         style="display:inline"
         id="g3903"
         inkscape:transform-center-x="28.041478"
         inkscape:transform-center-y="-52.077026">
        <g
           style="fill:#000000;fill-opacity:1"
           id="g3905">
          <path
             d="M 377.12803,135.62208 C 363.02661,205.73306 336.73998,255.37403 308.18363,291.06095 C 320.05424,287.49883 333.39868,277.37136 346.30099,268.51112 C 338.41058,286.89606 330.52017,302.95607 322.62976,319.17879 C 327.34089,317.4313 342.29073,301.0571 362.59516,277.03346 C 365.77841,310.06027 370.08215,347.25496 376.51201,369.64909 C 381.63098,347.29082 385.41835,310.2849 389.48097,276.30682 C 401.72195,291.50121 413.61062,306.87175 430.17301,319.90544 L 406.92042,267.5871 C 418.92697,275.98511 432.19471,287.10163 444.92715,291.7876 C 414.7385,254.31996 389.31682,205.74061 377.12803,135.62208 z "
             style="fill:#000000;fill-opacity:1;fill-rule:evenodd;stroke:#000000;stroke-width:3;stroke-linecap:round;stroke-linejoin:round;stroke-miterlimit:4;stroke-dasharray:none;stroke-opacity:1"
             id="path3907" />
          <path
             d="M 319.72318,139.69782 C 318.42725,135.61998 300.18538,148.67252 290.12817,121.31047 C 314.11958,148.89422 338.90845,92.268711 358.96194,130.25146 C 365.15076,145.92197 338.0398,173.11186 319.72318,139.69782 z "
             style="fill:#000000;fill-opacity:1;fill-rule:evenodd;stroke:#000000;stroke-width:3;stroke-linecap:round;stroke-linejoin:round;stroke-miterlimit:4;stroke-dasharray:none;stroke-opacity:1"
             id="path3909" />
          <path
             d="M 431.71563,139.34811 C 433.01156,135.27027 451.25343,148.32281 461.31064,120.96076 C 437.31923,148.54451 412.53036,91.919 392.47687,129.90175 C 386.28805,145.57226 413.39901,172.76215 431.71563,139.34811 z "
             style="fill:#000000;fill-opacity:1;fill-rule:evenodd;stroke:#000000;stroke-width:3;stroke-linecap:round;stroke-linejoin:round;stroke-miterlimit:4;stroke-dasharray:none;stroke-opacity:1;display:inline"
             id="path3911" />
          <path
             d="M 383.38239,79.374824 C 379.68544,77.220552 396.40299,62.265328 371.89381,46.481478 C 393.57969,75.912309 332.91037,87.751712 365.60384,115.60792 C 379.5469,125.06613 411.99605,104.53936 383.38239,79.374824 z "
             style="fill:#000000;fill-opacity:1;fill-rule:evenodd;stroke:#000000;stroke-width:3;stroke-linecap:round;stroke-linejoin:round;stroke-miterlimit:4;stroke-dasharray:none;stroke-opacity:1;display:inline"
             id="path3913" />
        </g>
      </g>
      <g
         transform="matrix(0.1797052,0,0,0.1797052,353.11699,250.13115)"
         style="display:inline"
         id="g3915"
         inkscape:transform-center-x="28.041478"
         inkscape:transform-center-y="-52.077026">
        <g
           style="fill:#000000;fill-opacity:1"
           id="g3917">
          <path
             d="M 377.12803,135.62208 C 363.02661,205.73306 336.73998,255.37403 308.18363,291.06095 C 320.05424,287.49883 333.39868,277.37136 346.30099,268.51112 C 338.41058,286.89606 330.52017,302.95607 322.62976,319.17879 C 327.34089,317.4313 342.29073,301.0571 362.59516,277.03346 C 365.77841,310.06027 370.08215,347.25496 376.51201,369.64909 C 381.63098,347.29082 385.41835,310.2849 389.48097,276.30682 C 401.72195,291.50121 413.61062,306.87175 430.17301,319.90544 L 406.92042,267.5871 C 418.92697,275.98511 432.19471,287.10163 444.92715,291.7876 C 414.7385,254.31996 389.31682,205.74061 377.12803,135.62208 z "
             style="fill:#000000;fill-opacity:1;fill-rule:evenodd;stroke:#000000;stroke-width:3;stroke-linecap:round;stroke-linejoin:round;stroke-miterlimit:4;stroke-dasharray:none;stroke-opacity:1"
             id="path3919" />
          <path
             d="M 319.72318,139.69782 C 318.42725,135.61998 300.18538,148.67252 290.12817,121.31047 C 314.11958,148.89422 338.90845,92.268711 358.96194,130.25146 C 365.15076,145.92197 338.0398,173.11186 319.72318,139.69782 z "
             style="fill:#000000;fill-opacity:1;fill-rule:evenodd;stroke:#000000;stroke-width:3;stroke-linecap:round;stroke-linejoin:round;stroke-miterlimit:4;stroke-dasharray:none;stroke-opacity:1"
             id="path3921" />
          <path
             d="M 431.71563,139.34811 C 433.01156,135.27027 451.25343,148.32281 461.31064,120.96076 C 437.31923,148.54451 412.53036,91.919 392.47687,129.90175 C 386.28805,145.57226 413.39901,172.76215 431.71563,139.34811 z "
             style="fill:#000000;fill-opacity:1;fill-rule:evenodd;stroke:#000000;stroke-width:3;stroke-linecap:round;stroke-linejoin:round;stroke-miterlimit:4;stroke-dasharray:none;stroke-opacity:1;display:inline"
             id="path3923" />
          <path
             d="M 383.38239,79.374824 C 379.68544,77.220552 396.40299,62.265328 371.89381,46.481478 C 393.57969,75.912309 332.91037,87.751712 365.60384,115.60792 C 379.5469,125.06613 411.99605,104.53936 383.38239,79.374824 z "
             style="fill:#000000;fill-opacity:1;fill-rule:evenodd;stroke:#000000;stroke-width:3;stroke-linecap:round;stroke-linejoin:round;stroke-miterlimit:4;stroke-dasharray:none;stroke-opacity:1;display:inline"
             id="path3925" />
        </g>
      </g>
    </g>
    <g
       transform="matrix(1.25,0,0,1.25,-0.2652452,-319.33441)"
       id="g3927">
      <g
         transform="matrix(0.1797052,0,0,0.1797052,-7.7300592,250.13115)"
         style="display:inline"
         id="g3929"
         inkscape:transform-center-x="28.041478"
         inkscape:transform-center-y="-52.077026">
        <g
           style="fill:#000000;fill-opacity:1"
           id="g3931">
          <path
             d="M 377.12803,135.62208 C 363.02661,205.73306 336.73998,255.37403 308.18363,291.06095 C 320.05424,287.49883 333.39868,277.37136 346.30099,268.51112 C 338.41058,286.89606 330.52017,302.95607 322.62976,319.17879 C 327.34089,317.4313 342.29073,301.0571 362.59516,277.03346 C 365.77841,310.06027 370.08215,347.25496 376.51201,369.64909 C 381.63098,347.29082 385.41835,310.2849 389.48097,276.30682 C 401.72195,291.50121 413.61062,306.87175 430.17301,319.90544 L 406.92042,267.5871 C 418.92697,275.98511 432.19471,287.10163 444.92715,291.7876 C 414.7385,254.31996 389.31682,205.74061 377.12803,135.62208 z "
             style="fill:#000000;fill-opacity:1;fill-rule:evenodd;stroke:#000000;stroke-width:3;stroke-linecap:round;stroke-linejoin:round;stroke-miterlimit:4;stroke-dasharray:none;stroke-opacity:1"
             id="path3933" />
          <path
             d="M 319.72318,139.69782 C 318.42725,135.61998 300.18538,148.67252 290.12817,121.31047 C 314.11958,148.89422 338.90845,92.268711 358.96194,130.25146 C 365.15076,145.92197 338.0398,173.11186 319.72318,139.69782 z "
             style="fill:#000000;fill-opacity:1;fill-rule:evenodd;stroke:#000000;stroke-width:3;stroke-linecap:round;stroke-linejoin:round;stroke-miterlimit:4;stroke-dasharray:none;stroke-opacity:1"
             id="path3935" />
          <path
             d="M 431.71563,139.34811 C 433.01156,135.27027 451.25343,148.32281 461.31064,120.96076 C 437.31923,148.54451 412.53036,91.919 392.47687,129.90175 C 386.28805,145.57226 413.39901,172.76215 431.71563,139.34811 z "
             style="fill:#000000;fill-opacity:1;fill-rule:evenodd;stroke:#000000;stroke-width:3;stroke-linecap:round;stroke-linejoin:round;stroke-miterlimit:4;stroke-dasharray:none;stroke-opacity:1;display:inline"
             id="path3937" />
          <path
             d="M 383.38239,79.374824 C 379.68544,77.220552 396.40299,62.265328 371.89381,46.481478 C 393.57969,75.912309 332.91037,87.751712 365.60384,115.60792 C 379.5469,125.06613 411.99605,104.53936 383.38239,79.374824 z "
             style="fill:#000000;fill-opacity:1;fill-rule:evenodd;stroke:#000000;stroke-width:3;stroke-linecap:round;stroke-linejoin:round;stroke-miterlimit:4;stroke-dasharray:none;stroke-opacity:1;display:inline"
             id="path3939" />
        </g>
      </g>
      <g
         transform="matrix(0.1797052,0,0,0.1797052,172.69347,250.13115)"
         style="display:inline"
         id="g3941"
         inkscape:transform-center-x="28.041478"
         inkscape:transform-center-y="-52.077026">
        <g
           style="fill:#000000;fill-opacity:1"
           id="g3943">
          <path
             d="M 377.12803,135.62208 C 363.02661,205.73306 336.73998,255.37403 308.18363,291.06095 C 320.05424,287.49883 333.39868,277.37136 346.30099,268.51112 C 338.41058,286.89606 330.52017,302.95607 322.62976,319.17879 C 327.34089,317.4313 342.29073,301.0571 362.59516,277.03346 C 365.77841,310.06027 370.08215,347.25496 376.51201,369.64909 C 381.63098,347.29082 385.41835,310.2849 389.48097,276.30682 C 401.72195,291.50121 413.61062,306.87175 430.17301,319.90544 L 406.92042,267.5871 C 418.92697,275.98511 432.19471,287.10163 444.92715,291.7876 C 414.7385,254.31996 389.31682,205.74061 377.12803,135.62208 z "
             style="fill:#000000;fill-opacity:1;fill-rule:evenodd;stroke:#000000;stroke-width:3;stroke-linecap:round;stroke-linejoin:round;stroke-miterlimit:4;stroke-dasharray:none;stroke-opacity:1"
             id="path3945" />
          <path
             d="M 319.72318,139.69782 C 318.42725,135.61998 300.18538,148.67252 290.12817,121.31047 C 314.11958,148.89422 338.90845,92.268711 358.96194,130.25146 C 365.15076,145.92197 338.0398,173.11186 319.72318,139.69782 z "
             style="fill:#000000;fill-opacity:1;fill-rule:evenodd;stroke:#000000;stroke-width:3;stroke-linecap:round;stroke-linejoin:round;stroke-miterlimit:4;stroke-dasharray:none;stroke-opacity:1"
             id="path3947" />
          <path
             d="M 431.71563,139.34811 C 433.01156,135.27027 451.25343,148.32281 461.31064,120.96076 C 437.31923,148.54451 412.53036,91.919 392.47687,129.90175 C 386.28805,145.57226 413.39901,172.76215 431.71563,139.34811 z "
             style="fill:#000000;fill-opacity:1;fill-rule:evenodd;stroke:#000000;stroke-width:3;stroke-linecap:round;stroke-linejoin:round;stroke-miterlimit:4;stroke-dasharray:none;stroke-opacity:1;display:inline"
             id="path3949" />
          <path
             d="M 383.38239,79.374824 C 379.68544,77.220552 396.40299,62.265328 371.89381,46.481478 C 393.57969,75.912309 332.91037,87.751712 365.60384,115.60792 C 379.5469,125.06613 411.99605,104.53936 383.38239,79.374824 z "
             style="fill:#000000;fill-opacity:1;fill-rule:evenodd;stroke:#000000;stroke-width:3;stroke-linecap:round;stroke-linejoin:round;stroke-miterlimit:4;stroke-dasharray:none;stroke-opacity:1;display:inline"
             id="path3951" />
        </g>
      </g>
      <g
         transform="matrix(0.1797052,0,0,0.1797052,82.48171,250.13115)"
         style="display:inline"
         id="g3953"
         inkscape:transform-center-x="28.041478"
         inkscape:transform-center-y="-52.077026">
        <g
           style="fill:#000000;fill-opacity:1"
           id="g3955">
          <path
             d="M 377.12803,135.62208 C 363.02661,205.73306 336.73998,255.37403 308.18363,291.06095 C 320.05424,287.49883 333.39868,277.37136 346.30099,268.51112 C 338.41058,286.89606 330.52017,302.95607 322.62976,319.17879 C 327.34089,317.4313 342.29073,301.0571 362.59516,277.03346 C 365.77841,310.06027 370.08215,347.25496 376.51201,369.64909 C 381.63098,347.29082 385.41835,310.2849 389.48097,276.30682 C 401.72195,291.50121 413.61062,306.87175 430.17301,319.90544 L 406.92042,267.5871 C 418.92697,275.98511 432.19471,287.10163 444.92715,291.7876 C 414.7385,254.31996 389.31682,205.74061 377.12803,135.62208 z "
             style="fill:#000000;fill-opacity:1;fill-rule:evenodd;stroke:#000000;stroke-width:3;stroke-linecap:round;stroke-linejoin:round;stroke-miterlimit:4;stroke-dasharray:none;stroke-opacity:1"
             id="path3957" />
          <path
             d="M 319.72318,139.69782 C 318.42725,135.61998 300.18538,148.67252 290.12817,121.31047 C 314.11958,148.89422 338.90845,92.268711 358.96194,130.25146 C 365.15076,145.92197 338.0398,173.11186 319.72318,139.69782 z "
             style="fill:#000000;fill-opacity:1;fill-rule:evenodd;stroke:#000000;stroke-width:3;stroke-linecap:round;stroke-linejoin:round;stroke-miterlimit:4;stroke-dasharray:none;stroke-opacity:1"
             id="path3959" />
          <path
             d="M 431.71563,139.34811 C 433.01156,135.27027 451.25343,148.32281 461.31064,120.96076 C 437.31923,148.54451 412.53036,91.919 392.47687,129.90175 C 386.28805,145.57226 413.39901,172.76215 431.71563,139.34811 z "
             style="fill:#000000;fill-opacity:1;fill-rule:evenodd;stroke:#000000;stroke-width:3;stroke-linecap:round;stroke-linejoin:round;stroke-miterlimit:4;stroke-dasharray:none;stroke-opacity:1;display:inline"
             id="path3961" />
          <path
             d="M 383.38239,79.374824 C 379.68544,77.220552 396.40299,62.265328 371.89381,46.481478 C 393.57969,75.912309 332.91037,87.751712 365.60384,115.60792 C 379.5469,125.06613 411.99605,104.53936 383.38239,79.374824 z "
             style="fill:#000000;fill-opacity:1;fill-rule:evenodd;stroke:#000000;stroke-width:3;stroke-linecap:round;stroke-linejoin:round;stroke-miterlimit:4;stroke-dasharray:none;stroke-opacity:1;display:inline"
             id="path3963" />
        </g>
      </g>
      <g
         transform="matrix(0.1797052,0,0,0.1797052,262.90523,250.13115)"
         style="display:inline"
         id="g3965"
         inkscape:transform-center-x="28.041478"
         inkscape:transform-center-y="-52.077026">
        <g
           style="fill:#000000;fill-opacity:1"
           id="g3967">
          <path
             d="M 377.12803,135.62208 C 363.02661,205.73306 336.73998,255.37403 308.18363,291.06095 C 320.05424,287.49883 333.39868,277.37136 346.30099,268.51112 C 338.41058,286.89606 330.52017,302.95607 322.62976,319.17879 C 327.34089,317.4313 342.29073,301.0571 362.59516,277.03346 C 365.77841,310.06027 370.08215,347.25496 376.51201,369.64909 C 381.63098,347.29082 385.41835,310.2849 389.48097,276.30682 C 401.72195,291.50121 413.61062,306.87175 430.17301,319.90544 L 406.92042,267.5871 C 418.92697,275.98511 432.19471,287.10163 444.92715,291.7876 C 414.7385,254.31996 389.31682,205.74061 377.12803,135.62208 z "
             style="fill:#000000;fill-opacity:1;fill-rule:evenodd;stroke:#000000;stroke-width:3;stroke-linecap:round;stroke-linejoin:round;stroke-miterlimit:4;stroke-dasharray:none;stroke-opacity:1"
             id="path3969" />
          <path
             d="M 319.72318,139.69782 C 318.42725,135.61998 300.18538,148.67252 290.12817,121.31047 C 314.11958,148.89422 338.90845,92.268711 358.96194,130.25146 C 365.15076,145.92197 338.0398,173.11186 319.72318,139.69782 z "
             style="fill:#000000;fill-opacity:1;fill-rule:evenodd;stroke:#000000;stroke-width:3;stroke-linecap:round;stroke-linejoin:round;stroke-miterlimit:4;stroke-dasharray:none;stroke-opacity:1"
             id="path3971" />
          <path
             d="M 431.71563,139.34811 C 433.01156,135.27027 451.25343,148.32281 461.31064,120.96076 C 437.31923,148.54451 412.53036,91.919 392.47687,129.90175 C 386.28805,145.57226 413.39901,172.76215 431.71563,139.34811 z "
             style="fill:#000000;fill-opacity:1;fill-rule:evenodd;stroke:#000000;stroke-width:3;stroke-linecap:round;stroke-linejoin:round;stroke-miterlimit:4;stroke-dasharray:none;stroke-opacity:1;display:inline"
             id="path3973" />
          <path
             d="M 383.38239,79.374824 C 379.68544,77.220552 396.40299,62.265328 371.89381,46.481478 C 393.57969,75.912309 332.91037,87.751712 365.60384,115.60792 C 379.5469,125.06613 411.99605,104.53936 383.38239,79.374824 z "
             style="fill:#000000;fill-opacity:1;fill-rule:evenodd;stroke:#000000;stroke-width:3;stroke-linecap:round;stroke-linejoin:round;stroke-miterlimit:4;stroke-dasharray:none;stroke-opacity:1;display:inline"
             id="path3975" />
        </g>
      </g>
      <g
         transform="matrix(0.1797052,0,0,0.1797052,353.11699,250.13115)"
         style="display:inline"
         id="g3977"
         inkscape:transform-center-x="28.041478"
         inkscape:transform-center-y="-52.077026">
        <g
           style="fill:#000000;fill-opacity:1"
           id="g3979">
          <path
             d="M 377.12803,135.62208 C 363.02661,205.73306 336.73998,255.37403 308.18363,291.06095 C 320.05424,287.49883 333.39868,277.37136 346.30099,268.51112 C 338.41058,286.89606 330.52017,302.95607 322.62976,319.17879 C 327.34089,317.4313 342.29073,301.0571 362.59516,277.03346 C 365.77841,310.06027 370.08215,347.25496 376.51201,369.64909 C 381.63098,347.29082 385.41835,310.2849 389.48097,276.30682 C 401.72195,291.50121 413.61062,306.87175 430.17301,319.90544 L 406.92042,267.5871 C 418.92697,275.98511 432.19471,287.10163 444.92715,291.7876 C 414.7385,254.31996 389.31682,205.74061 377.12803,135.62208 z "
             style="fill:#000000;fill-opacity:1;fill-rule:evenodd;stroke:#000000;stroke-width:3;stroke-linecap:round;stroke-linejoin:round;stroke-miterlimit:4;stroke-dasharray:none;stroke-opacity:1"
             id="path3981" />
          <path
             d="M 319.72318,139.69782 C 318.42725,135.61998 300.18538,148.67252 290.12817,121.31047 C 314.11958,148.89422 338.90845,92.268711 358.96194,130.25146 C 365.15076,145.92197 338.0398,173.11186 319.72318,139.69782 z "
             style="fill:#000000;fill-opacity:1;fill-rule:evenodd;stroke:#000000;stroke-width:3;stroke-linecap:round;stroke-linejoin:round;stroke-miterlimit:4;stroke-dasharray:none;stroke-opacity:1"
             id="path3983" />
          <path
             d="M 431.71563,139.34811 C 433.01156,135.27027 451.25343,148.32281 461.31064,120.96076 C 437.31923,148.54451 412.53036,91.919 392.47687,129.90175 C 386.28805,145.57226 413.39901,172.76215 431.71563,139.34811 z "
             style="fill:#000000;fill-opacity:1;fill-rule:evenodd;stroke:#000000;stroke-width:3;stroke-linecap:round;stroke-linejoin:round;stroke-miterlimit:4;stroke-dasharray:none;stroke-opacity:1;display:inline"
             id="path3985" />
          <path
             d="M 383.38239,79.374824 C 379.68544,77.220552 396.40299,62.265328 371.89381,46.481478 C 393.57969,75.912309 332.91037,87.751712 365.60384,115.60792 C 379.5469,125.06613 411.99605,104.53936 383.38239,79.374824 z "
             style="fill:#000000;fill-opacity:1;fill-rule:evenodd;stroke:#000000;stroke-width:3;stroke-linecap:round;stroke-linejoin:round;stroke-miterlimit:4;stroke-dasharray:none;stroke-opacity:1;display:inline"
             id="path3987" />
        </g>
      </g>
    </g>
    <path
       style="fill:#fcdd09;fill-opacity:1;stroke:none"
       id="path3590"
       d="M 127.5,112.5 L 472.5,112.5 L 482.5,172.5 L 455,172.5 L 462.5,127.5 L 306.25,127.5 L 313.75,172.5 L 286.25,172.5 L 293.75,127.5 L 137.5,127.5 L 145,172.5 L 117.5,172.5 L 127.5,112.5 z " />
  </g>
</svg>
