<?xml version="1.0" encoding="UTF-8" standalone="no"?>
<!-- Created with Inkscape (http://www.inkscape.org/) -->
<svg
   xmlns:dc="http://purl.org/dc/elements/1.1/"
   xmlns:cc="http://web.resource.org/cc/"
   xmlns:rdf="http://www.w3.org/1999/02/22-rdf-syntax-ns#"
   xmlns:svg="http://www.w3.org/2000/svg"
   xmlns="http://www.w3.org/2000/svg"
   xmlns:sodipodi="http://sodipodi.sourceforge.net/DTD/sodipodi-0.dtd"
   xmlns:inkscape="http://www.inkscape.org/namespaces/inkscape"
   id="svg5013"
   sodipodi:version="0.32"
   inkscape:version="0.45.1"
   width="600"
   height="400"
   version="1.0"
   sodipodi:docbase="C:\TIIKERI\Liput\Belgia\provinssit\Hainaut - kunnat\Mons\svg"
   sodipodi:docname="Quiévrain.svg"
   inkscape:output_extension="org.inkscape.output.svg.inkscape">
  <metadata
     id="metadata5018">
    <rdf:RDF>
      <cc:Work
         rdf:about="">
        <dc:format>image/svg+xml</dc:format>
        <dc:type
           rdf:resource="http://purl.org/dc/dcmitype/StillImage" />
      </cc:Work>
    </rdf:RDF>
  </metadata>
  <defs
     id="defs5016" />
  <sodipodi:namedview
     inkscape:window-height="712"
     inkscape:window-width="1024"
     inkscape:pageshadow="2"
     inkscape:pageopacity="0.0"
     guidetolerance="10.0"
     gridtolerance="10.0"
     objecttolerance="10.0"
     borderopacity="1.0"
     bordercolor="#666666"
     pagecolor="#ffffff"
     id="base"
     width="600px"
     height="400px"
     inkscape:zoom="0.94342432"
     inkscape:cx="293.9186"
     inkscape:cy="191.09808"
     inkscape:window-x="-4"
     inkscape:window-y="-4"
     inkscape:current-layer="svg5013" />
  <g
     id="g5061"
     transform="scale(2,2)">
    <rect
       y="0"
       x="100"
       height="200"
       width="200"
       id="rect5022"
       style="opacity:1;fill:#fcdd09;fill-opacity:1;stroke:none;stroke-opacity:1" />
    <path
       id="path5037"
       d="M 96.65625,200 L 0,160.46875 L 0,200 L 96.65625,200 z "
       style="fill:#ffffff;fill-opacity:1;stroke:none;stroke-opacity:1" />
    <path
       id="path5035"
       d="M 100,161.25 L 0,119.875 L 0,160.46875 L 96.65625,200 L 100,200 L 100,161.25 z "
       style="fill:#da121a;fill-opacity:1;stroke:none;stroke-opacity:1" />
    <path
       id="path5042"
       d="M 100,121.4375 L 0,80.53125 L 0,119.875 L 100,161.25 L 100,121.4375 z "
       style="fill:#ffffff;fill-opacity:1;stroke:none;stroke-opacity:1" />
    <path
       id="path5040"
       d="M 100,81.28125 L 0,39.9375 L 0,80.53125 L 100,121.4375 L 100,81.28125 z "
       style="fill:#da121a;fill-opacity:1;stroke:none;stroke-opacity:1" />
    <path
       id="path5059"
       d="M 100,0.3125 L 100,0 L 99.21875,0 L 100,0.3125 z "
       style="fill:#ffffff;fill-opacity:1;stroke:none;stroke-opacity:1" />
    <path
       id="path5057"
       d="M 1.09375,0 L 0,0 L 0,39.9375 L 100,81.28125 L 100,40.84375 L 1.09375,0 z "
       style="fill:#ffffff;fill-opacity:1;stroke:none;stroke-opacity:1" />
    <path
       id="rect5024"
       d="M 1.09375,0 L 100,40.84375 L 100,0.3125 L 99.21875,0 L 1.09375,0 z "
       style="fill:#da121a;fill-opacity:1;stroke:none;stroke-opacity:1" />
  </g>
</svg>
