<?xml version="1.0" encoding="UTF-8" standalone="no"?>
<!-- Created with Inkscape (http://www.inkscape.org/) -->

<svg
   width="601.01105"
   height="400"
   id="svg4633"
   version="1.1"
   inkscape:version="1.4.2 (ebf0e940, 2025-05-08)"
   sodipodi:docname="Tinlot_vlag.svg"
   xmlns:inkscape="http://www.inkscape.org/namespaces/inkscape"
   xmlns:sodipodi="http://sodipodi.sourceforge.net/DTD/sodipodi-0.dtd"
   xmlns="http://www.w3.org/2000/svg"
   xmlns:svg="http://www.w3.org/2000/svg"
   xmlns:rdf="http://www.w3.org/1999/02/22-rdf-syntax-ns#"
   xmlns:cc="http://creativecommons.org/ns#"
   xmlns:dc="http://purl.org/dc/elements/1.1/">
  <defs
     id="defs4635" />
  <sodipodi:namedview
     id="base"
     pagecolor="#ffffff"
     bordercolor="#666666"
     borderopacity="1.0"
     inkscape:pageopacity="0.0"
     inkscape:pageshadow="2"
     inkscape:zoom="0.52524027"
     inkscape:cx="306.52638"
     inkscape:cy="303.67054"
     inkscape:document-units="px"
     inkscape:current-layer="layer1"
     showgrid="false"
     fit-margin-top="0"
     fit-margin-left="0"
     fit-margin-right="0"
     fit-margin-bottom="0"
     inkscape:window-width="1440"
     inkscape:window-height="872"
     inkscape:window-x="0"
     inkscape:window-y="28"
     inkscape:window-maximized="0"
     inkscape:showpageshadow="0"
     inkscape:pagecheckerboard="0"
     inkscape:deskcolor="#d1d1d1" />
  <metadata
     id="metadata4638">
    <rdf:RDF>
      <cc:Work
         rdf:about="">
        <dc:format>image/svg+xml</dc:format>
        <dc:type
           rdf:resource="http://purl.org/dc/dcmitype/StillImage" />
        <dc:title />
      </cc:Work>
    </rdf:RDF>
  </metadata>
  <g
     inkscape:label="Laag 1"
     inkscape:groupmode="layer"
     id="layer1"
     transform="translate(43.362667,-212.36218)">
    <rect
       style="fill:#ffffff;fill-opacity:1;fill-rule:evenodd;stroke:none"
       id="rect4472"
       width="601.01105"
       height="399.98895"
       x="-43.362667"
       y="212.37323" />
    <path
       style="fill:#da0e19;fill-opacity:1;stroke:none"
       d="m -43.362667,212.36218 0,60.25774 512.220297,339.74226 88.7797,0 0,-60.78864 L 47.775533,212.36218 z"
       id="path4474"
       inkscape:connector-curvature="0" />
    <path
       style="fill:#da0e19;fill-opacity:1;stroke:none"
       d="m 256.53483,248.94098 -0.5303,13.6118 7.071,0 c -10.8522,17.1342 -18.6153,43.4338 23.3346,57.2757 l -3.3588,5.4801 8.1317,0 c 11.4023,-12.4464 21.4467,-5.428 31.4663,1.9445 l 9.1924,0 -5.4801,-8.1317 c 11.5587,0.8141 19.88,-2.3802 21.5667,-13.7886 19.4077,-13.0564 33.7199,-23.9212 9.8995,-18.3848 0.6614,-1.7749 1.6597,-3.1709 1.0607,-6.3639 l -8.8388,3.1819 c 1.025,-1.9802 2.0575,-3.9528 1.9445,-7.071 l -7.2478,4.5962 1.0606,-3.182 c -5.9353,2.9196 -13.5118,2.557 -22.2738,-0.1768 -12.9469,-3.9647 -26.1253,-7.698 -47.3762,-3.3587 0.059,-1.3165 2.2687,-4.6667 6.7175,-8.3086 14.8554,-13.1843 -11.6493,-37.5099 -26.3397,-17.3241 z"
       id="path4476-0"
       inkscape:connector-curvature="0"
       sodipodi:nodetypes="cccccccccccccccccccc" />
    <path
       transform="translate(2386.5173,1021.0911)"
       sodipodi:type="arc"
       style="fill:#ffffff;fill-opacity:1;fill-rule:evenodd;stroke:none"
       id="path4478-9"
       sodipodi:cx="-2118.9338"
       sodipodi:cy="-768.12842"
       sodipodi:rx="3.4471455"
       sodipodi:ry="3.314563"
       d="m -2115.4867,-768.12842 c 0,1.83058 -1.5433,3.31457 -3.4471,3.31457 -1.9038,0 -3.4472,-1.48399 -3.4472,-3.31457 0,-1.83058 1.5434,-3.31456 3.4472,-3.31456 1.9038,0 3.4471,1.48398 3.4471,3.31456 z" />
    <path
       style="fill:none;stroke:#ebebeb;stroke-width:2.0999999;stroke-linecap:round;stroke-linejoin:miter;stroke-miterlimit:4;stroke-opacity:1;stroke-dasharray:none"
       d="m 276.68733,289.15768 c -4.328,26.5423 69.7702,11.1405 82.6431,-6.0988"
       id="path4480-4"
       inkscape:connector-curvature="0"
       sodipodi:nodetypes="cc" />
    <path
       style="fill:none;stroke:#ebebeb;stroke-width:2.0999999;stroke-linecap:round;stroke-linejoin:miter;stroke-miterlimit:4;stroke-opacity:1;stroke-dasharray:none"
       d="m 308.86073,293.57708 c 26.6447,0.2077 37.6108,-6.248 45.6084,-13.9653"
       id="path4482-8"
       inkscape:connector-curvature="0"
       sodipodi:nodetypes="cc" />
    <path
       style="fill:none;stroke:#fdfdfd;stroke-width:2.0999999;stroke-linecap:round;stroke-linejoin:miter;stroke-miterlimit:4;stroke-opacity:1;stroke-dasharray:none"
       d="m 320.70473,285.53378 c 13.1674,0.3569 20.922,-3.0191 27.312,-7.3362"
       id="path4484-8"
       inkscape:connector-curvature="0"
       sodipodi:nodetypes="cc" />
    <path
       style="fill:#da0e19;fill-opacity:1;stroke:none"
       d="m 415.53483,247.44098 -0.5303,13.6118 7.071,0 c -10.8522,17.1342 -18.6153,43.4338 23.3346,57.2757 l -3.3588,5.4801 8.1317,0 c 11.4023,-12.4464 21.4467,-5.428 31.4663,1.9445 l 9.1924,0 -5.4801,-8.1317 c 11.55874,0.8141 19.88004,-2.3802 21.56674,-13.7886 19.4077,-13.0564 33.7199,-23.9212 9.8995,-18.3848 0.6614,-1.7749 1.6597,-3.1709 1.0607,-6.3639 l -8.8388,3.1819 c 1.025,-1.9802 2.0575,-3.9528 1.9445,-7.071 l -7.2478,4.5962 1.0606,-3.182 c -5.9353,2.9196 -13.51184,2.557 -22.27384,-0.1768 -12.9469,-3.9647 -26.1253,-7.698 -47.3762,-3.3587 0.059,-1.3165 2.2687,-4.6667 6.7175,-8.3086 14.8554,-13.1843 -11.6493,-37.5099 -26.3397,-17.3241 z"
       id="path4476-2"
       inkscape:connector-curvature="0"
       sodipodi:nodetypes="cccccccccccccccccccc" />
    <path
       transform="translate(2545.5172,1019.5911)"
       sodipodi:type="arc"
       style="fill:#ffffff;fill-opacity:1;fill-rule:evenodd;stroke:none"
       id="path4478-4"
       sodipodi:cx="-2118.9338"
       sodipodi:cy="-768.12842"
       sodipodi:rx="3.4471455"
       sodipodi:ry="3.314563"
       d="m -2115.4867,-768.12842 c 0,1.83058 -1.5433,3.31457 -3.4471,3.31457 -1.9038,0 -3.4472,-1.48399 -3.4472,-3.31457 0,-1.83058 1.5434,-3.31456 3.4472,-3.31456 1.9038,0 3.4471,1.48398 3.4471,3.31456 z" />
    <path
       style="fill:none;stroke:#ebebeb;stroke-width:2.0999999;stroke-linecap:round;stroke-linejoin:miter;stroke-miterlimit:4;stroke-opacity:1;stroke-dasharray:none"
       d="m 435.68733,287.65768 c -4.328,26.5423 69.77024,11.1405 82.64314,-6.0988"
       id="path4480-5"
       inkscape:connector-curvature="0"
       sodipodi:nodetypes="cc" />
    <path
       style="fill:none;stroke:#ebebeb;stroke-width:2.0999999;stroke-linecap:round;stroke-linejoin:miter;stroke-miterlimit:4;stroke-opacity:1;stroke-dasharray:none"
       d="m 467.86073,292.07708 c 26.6447,0.2077 37.61084,-6.248 45.60844,-13.9653"
       id="path4482-5"
       inkscape:connector-curvature="0"
       sodipodi:nodetypes="cc" />
    <path
       style="fill:none;stroke:#fdfdfd;stroke-width:2.0999999;stroke-linecap:round;stroke-linejoin:miter;stroke-miterlimit:4;stroke-opacity:1;stroke-dasharray:none"
       d="m 479.70473,284.03378 c 13.1674,0.3569 20.92204,-3.0191 27.31204,-7.3362"
       id="path4484-1"
       inkscape:connector-curvature="0"
       sodipodi:nodetypes="cc" />
    <path
       style="fill:#da0e19;fill-opacity:1;stroke:none"
       d="m 417.03483,369.94098 -0.5303,13.6118 7.071,0 c -10.8522,17.1342 -18.6153,43.4338 23.3346,57.2757 l -3.3588,5.4801 8.1317,0 c 11.4023,-12.4464 21.4467,-5.428 31.4663,1.9445 l 9.1924,0 -5.4801,-8.1317 c 11.55874,0.8141 19.88004,-2.3802 21.56674,-13.7886 19.4077,-13.0564 33.7199,-23.9212 9.8995,-18.3848 0.6614,-1.7749 1.6597,-3.1709 1.0607,-6.3639 l -8.8388,3.1819 c 1.025,-1.9802 2.0575,-3.9528 1.9445,-7.071 l -7.2478,4.5962 1.0606,-3.182 c -5.9353,2.9196 -13.51184,2.557 -22.27384,-0.1768 -12.9469,-3.9647 -26.1253,-7.698 -47.3762,-3.3587 0.059,-1.3165 2.2687,-4.6667 6.7175,-8.3086 14.8554,-13.1843 -11.6493,-37.5099 -26.3397,-17.3241 z"
       id="path4476-7"
       inkscape:connector-curvature="0"
       sodipodi:nodetypes="cccccccccccccccccccc" />
    <path
       transform="translate(2547.0172,1142.0911)"
       sodipodi:type="arc"
       style="fill:#ffffff;fill-opacity:1;fill-rule:evenodd;stroke:none"
       id="path4478-1"
       sodipodi:cx="-2118.9338"
       sodipodi:cy="-768.12842"
       sodipodi:rx="3.4471455"
       sodipodi:ry="3.314563"
       d="m -2115.4867,-768.12842 c 0,1.83058 -1.5433,3.31457 -3.4471,3.31457 -1.9038,0 -3.4472,-1.48399 -3.4472,-3.31457 0,-1.83058 1.5434,-3.31456 3.4472,-3.31456 1.9038,0 3.4471,1.48398 3.4471,3.31456 z" />
    <path
       style="fill:none;stroke:#ebebeb;stroke-width:2.0999999;stroke-linecap:round;stroke-linejoin:miter;stroke-miterlimit:4;stroke-opacity:1;stroke-dasharray:none"
       d="m 437.18733,410.15768 c -4.328,26.5423 69.77024,11.1405 82.64314,-6.0988"
       id="path4480-1"
       inkscape:connector-curvature="0"
       sodipodi:nodetypes="cc" />
    <path
       style="fill:none;stroke:#ebebeb;stroke-width:2.0999999;stroke-linecap:round;stroke-linejoin:miter;stroke-miterlimit:4;stroke-opacity:1;stroke-dasharray:none"
       d="m 469.36073,414.57708 c 26.6447,0.2077 37.61084,-6.248 45.60844,-13.9653"
       id="path4482-52"
       inkscape:connector-curvature="0"
       sodipodi:nodetypes="cc" />
    <path
       style="fill:none;stroke:#fdfdfd;stroke-width:2.0999999;stroke-linecap:round;stroke-linejoin:miter;stroke-miterlimit:4;stroke-opacity:1;stroke-dasharray:none"
       d="m 481.20473,406.53378 c 13.1674,0.3569 20.92204,-3.0191 27.31204,-7.3362"
       id="path4484-7"
       inkscape:connector-curvature="0"
       sodipodi:nodetypes="cc" />
    <path
       style="fill:#da0e19;fill-opacity:1;stroke:none"
       d="m -5.8791665,377.40208 -0.5303,13.6118 7.07099996,0 c -10.85220046,17.1341 -18.61530046,43.4338 23.33459954,57.2756 l -3.3588,5.4801 8.1317,0 c 11.4023,-12.4463 21.4467,-5.4279 31.4663,1.9446 l 9.1924,0 -5.4801,-8.1318 c 11.5587,0.8141 19.88,-2.3801 21.5667,-13.7886 19.407697,-13.0563 33.719897,-23.9211 9.8995,-18.3847 0.6614,-1.775 1.6597,-3.171 1.0607,-6.364 l -8.8388,3.182 c 1.025,-1.9802 2.0575,-3.9529 1.9445,-7.0711 l -7.2478,4.5962 1.0606,-3.182 c -5.9353,2.9197 -13.5118,2.5571 -22.2738,-0.1767 -12.9469,-3.9648 -26.1253,-7.698 -47.3762,-3.3588 0.059,-1.3165 2.2687,-4.6666 6.7175,-8.3085 14.8554,-13.1843 -11.6492995,-37.51 -26.3396995,-17.3241 z"
       id="path4476-6"
       inkscape:connector-curvature="0"
       sodipodi:nodetypes="cccccccccccccccccccc" />
    <path
       transform="translate(2124.1032,1149.5522)"
       sodipodi:type="arc"
       style="fill:#ffffff;fill-opacity:1;fill-rule:evenodd;stroke:none"
       id="path4478-14"
       sodipodi:cx="-2118.9338"
       sodipodi:cy="-768.12842"
       sodipodi:rx="3.4471455"
       sodipodi:ry="3.314563"
       d="m -2115.4867,-768.12842 c 0,1.83058 -1.5433,3.31457 -3.4471,3.31457 -1.9038,0 -3.4472,-1.48399 -3.4472,-3.31457 0,-1.83058 1.5434,-3.31456 3.4472,-3.31456 1.9038,0 3.4471,1.48398 3.4471,3.31456 z" />
    <path
       style="fill:none;stroke:#ebebeb;stroke-width:2.0999999;stroke-linecap:round;stroke-linejoin:miter;stroke-miterlimit:4;stroke-opacity:1;stroke-dasharray:none"
       d="m 14.273333,417.61878 c -4.3279995,26.5423 69.7702,11.1405 82.6431,-6.0988"
       id="path4480-2"
       inkscape:connector-curvature="0"
       sodipodi:nodetypes="cc" />
    <path
       style="fill:none;stroke:#ebebeb;stroke-width:2.0999999;stroke-linecap:round;stroke-linejoin:miter;stroke-miterlimit:4;stroke-opacity:1;stroke-dasharray:none"
       d="m 46.446733,422.03818 c 26.6447,0.2077 37.6108,-6.248 45.6084,-13.9654"
       id="path4482-3"
       inkscape:connector-curvature="0"
       sodipodi:nodetypes="cc" />
    <path
       style="fill:none;stroke:#fdfdfd;stroke-width:2.0999999;stroke-linecap:round;stroke-linejoin:miter;stroke-miterlimit:4;stroke-opacity:1;stroke-dasharray:none"
       d="m 58.290733,413.99488 c 13.1674,0.3569 20.922,-3.0191 27.312,-7.3363"
       id="path4484-2"
       inkscape:connector-curvature="0"
       sodipodi:nodetypes="cc" />
    <path
       style="fill:#da0e19;fill-opacity:1;stroke:none"
       d="m -3.4042665,498.31738 -0.5303,13.6118 7.071,0 c -10.8522,17.1342 -18.6153005,43.4338 23.3345995,57.2757 l -3.3588,5.4801 8.1317,0 c 11.4023,-12.4464 21.4467,-5.428 31.4663,1.9445 l 9.1924,0 -5.4801,-8.1317 c 11.5587,0.8141 19.88,-2.3802 21.5667,-13.7886 19.407697,-13.0564 33.719897,-23.9212 9.8995,-18.3848 0.6614,-1.7749 1.6597,-3.1709 1.0607,-6.364 l -8.8388,3.182 c 1.025,-1.9802 2.0575,-3.9528 1.9445,-7.071 l -7.2478,4.5962 1.0606,-3.182 c -5.9353,2.9196 -13.5118,2.557 -22.2738,-0.1768 -12.9469,-3.9648 -26.1253,-7.698 -47.3762,-3.3588 0.059,-1.3164 2.2687,-4.6666 6.7175,-8.3085 14.8554,-13.1843 -11.6493,-37.5099 -26.3396995,-17.3241 z"
       id="path4476-21"
       inkscape:connector-curvature="0"
       sodipodi:nodetypes="cccccccccccccccccccc" />
    <path
       transform="translate(2126.5781,1270.4675)"
       sodipodi:type="arc"
       style="fill:#ffffff;fill-opacity:1;fill-rule:evenodd;stroke:none"
       id="path4478-6"
       sodipodi:cx="-2118.9338"
       sodipodi:cy="-768.12842"
       sodipodi:rx="3.4471455"
       sodipodi:ry="3.314563"
       d="m -2115.4867,-768.12842 c 0,1.83058 -1.5433,3.31457 -3.4471,3.31457 -1.9038,0 -3.4472,-1.48399 -3.4472,-3.31457 0,-1.83058 1.5434,-3.31456 3.4472,-3.31456 1.9038,0 3.4471,1.48398 3.4471,3.31456 z" />
    <path
       style="fill:none;stroke:#ebebeb;stroke-width:2.0999999;stroke-linecap:round;stroke-linejoin:miter;stroke-miterlimit:4;stroke-opacity:1;stroke-dasharray:none"
       d="m 16.748233,538.53408 c -4.328,26.5423 69.7702,11.1405 82.6431,-6.0988"
       id="path4480-8"
       inkscape:connector-curvature="0"
       sodipodi:nodetypes="cc" />
    <path
       style="fill:none;stroke:#ebebeb;stroke-width:2.0999999;stroke-linecap:round;stroke-linejoin:miter;stroke-miterlimit:4;stroke-opacity:1;stroke-dasharray:none"
       d="m 48.921633,542.95348 c 26.6447,0.2077 37.6108,-6.248 45.6084,-13.9653"
       id="path4482-57"
       inkscape:connector-curvature="0"
       sodipodi:nodetypes="cc" />
    <path
       style="fill:none;stroke:#fdfdfd;stroke-width:2.0999999;stroke-linecap:round;stroke-linejoin:miter;stroke-miterlimit:4;stroke-opacity:1;stroke-dasharray:none"
       d="m 60.765633,534.91018 c 13.1674,0.3569 20.922,-3.0191 27.312,-7.3362"
       id="path4484-6"
       inkscape:connector-curvature="0"
       sodipodi:nodetypes="cc" />
    <path
       style="fill:#da0e19;fill-opacity:1;stroke:none"
       d="m 150.03783,497.96388 -0.5303,13.6118 7.071,0 c -10.8522,17.1341 -18.6153,43.4338 23.3346,57.2756 l -3.3588,5.4801 8.1317,0 c 11.4023,-12.4463 21.4467,-5.4279 31.4663,1.9445 l 9.1924,0 -5.4801,-8.1317 c 11.5587,0.8141 19.88,-2.3801 21.5667,-13.7886 19.4077,-13.0563 33.7199,-23.9211 9.8995,-18.3847 0.6614,-1.775 1.6597,-3.171 1.0607,-6.364 l -8.8388,3.182 c 1.025,-1.9802 2.0575,-3.9529 1.9445,-7.0711 l -7.2478,4.5962 1.0606,-3.182 c -5.9353,2.9197 -13.5118,2.5571 -22.2738,-0.1768 -12.9469,-3.9647 -26.1253,-7.698 -47.3762,-3.3587 0.059,-1.3165 2.2687,-4.6666 6.7175,-8.3085 14.8554,-13.1844 -11.6493,-37.51 -26.3397,-17.3241 z"
       id="path4476-1"
       inkscape:connector-curvature="0"
       sodipodi:nodetypes="cccccccccccccccccccc" />
    <path
       transform="translate(2280.0203,1270.1139)"
       sodipodi:type="arc"
       style="fill:#ffffff;fill-opacity:1;fill-rule:evenodd;stroke:none"
       id="path4478-8"
       sodipodi:cx="-2118.9338"
       sodipodi:cy="-768.12842"
       sodipodi:rx="3.4471455"
       sodipodi:ry="3.314563"
       d="m -2115.4867,-768.12842 c 0,1.83058 -1.5433,3.31457 -3.4471,3.31457 -1.9038,0 -3.4472,-1.48399 -3.4472,-3.31457 0,-1.83058 1.5434,-3.31456 3.4472,-3.31456 1.9038,0 3.4471,1.48398 3.4471,3.31456 z" />
    <path
       style="fill:none;stroke:#ebebeb;stroke-width:2.0999999;stroke-linecap:round;stroke-linejoin:miter;stroke-miterlimit:4;stroke-opacity:1;stroke-dasharray:none"
       d="m 170.19033,538.18058 c -4.328,26.5422 69.7702,11.1405 82.6431,-6.0988"
       id="path4480-9"
       inkscape:connector-curvature="0"
       sodipodi:nodetypes="cc" />
    <path
       style="fill:none;stroke:#ebebeb;stroke-width:2.0999999;stroke-linecap:round;stroke-linejoin:miter;stroke-miterlimit:4;stroke-opacity:1;stroke-dasharray:none"
       d="m 202.36373,542.59998 c 26.6447,0.2077 37.6108,-6.248 45.6084,-13.9654"
       id="path4482-2"
       inkscape:connector-curvature="0"
       sodipodi:nodetypes="cc" />
    <path
       style="fill:none;stroke:#fdfdfd;stroke-width:2.0999999;stroke-linecap:round;stroke-linejoin:miter;stroke-miterlimit:4;stroke-opacity:1;stroke-dasharray:none"
       d="m 214.20773,534.55658 c 13.1674,0.357 20.922,-3.0191 27.312,-7.3362"
       id="path4484-79"
       inkscape:connector-curvature="0"
       sodipodi:nodetypes="cc" />
  </g>
</svg>
