<?xml version="1.0" encoding="UTF-8"?>
<!DOCTYPE svg PUBLIC "-//W3C//DTD SVG 1.1//EN" "http://www.w3.org/Graphics/SVG/1.1/DTD/svg11.dtd">
<svg xmlns="http://www.w3.org/2000/svg" xmlns:xlink="http://www.w3.org/1999/xlink" width="760" height="520" viewBox="-950 -650 1900 1300" >
<defs>
  <style type="text/css">
 .str0 {stroke:#000000;stroke-width:1}
 .str1 {stroke:#000000;stroke-width:2.5}
 .fil2 {fill:none;fill-rule:nonzero}
 .fil1 {fill:#F21E2B} <!-- goles -->
 .fil3 {fill:#F5E410} <!-- ouro -->
 .fil0 {fill:#0070B8} <!-- blau -->
 .fil6 {fill:#3D9064} <!-- sinople -->
 .fil4 {fill:#FFFFFF} <!-- prata -->
  </style>
 <clipPath id="escudocut">
 <path id="campo" class="fil0" d="M-400,-220 h800 v300 a400,400 0 0,1 -800,0 z"/>
 </clipPath>
</defs>
<rect class="fil4" x="-50%" y="-50%" width="100%" height="100%" />
<g id="brasao_de_armas" transform="translate(0,85) scale(0.375)">
 <g id="escudo">
  <use xlink:href="#campo"/>
  <rect id="chefe" class="fil3" x="-400" y="-480" width="800" height="260"/>
  <polygon id="triangulo" class="fil1" points="0,-450 120,-242.154 -120,-242.154"/>
  <path class="fil3" id="sol" d="M-149.132 61.5721c-6.52442,-12.8221 -51.515,-17.7118 -57.5646,-45.2032 28.663,18.8717 59.8725,-7.69607 118.373,34.5l-84.8316 -102.768 113.022 80.1544c-1.62166,-46.8497 -41.6989,-82.4989 -25.3961,-131.196 12.124,47.5359 46.3642,53.1367 55.9312,105.101 0.935434,5.81339 9.09214,19.5603 14.9055,19.0984l13.7469 -131.421 19.1091 125.832c32.6422,-19.1091 34.7374,-97.4056 66.8824,-104.639 -17.2512,13.2721 8.86773,50.5784 -17.0138,82.9607 -11.1768,14.2193 -6.98505,24.7087 -8.14607,39.6272l95.073 -72.4832 -60.5954 96.4702c48.0095,13.5213 66.8824,-30.5221 119.783,-24.4607 -37.7457,10.715 -32.1685,38.9292 -52.2012,47.3115 -18.3992,7.68426 -41.7119,16.0666 -53.8359,22.3772l120.954 19.5591 -106.486 18.8729c29.3504,13.0583 23.0634,44.9906 95.2974,37.2945l-14.6929 14.4449c-75.9639,15.6047 -73.6312,-19.1091 -113.946,-21.4418l53.1367 69.1914 -162.879 -81.7773 -128.626 -97.4056z"/>
  <path class="fil6 str0" id="serra" clip-path="url(#escudocut)" d="m 400,166.757 c -69.6887,-18.4229 -112.347,-49.656 -167.792,-7.00867 -39.391,34.7256 -69.7005,57.789 -102.082,109.304 -20.7555,-41.7237 -78.7702,-71.5359 -108.37,-98.3411 -30.0721,-27.515 -55.9418,-53.1367 -74.5784,-59.4473 -25.6205,-8.84411 -25.6205,-36.3591 -34.4764,-44.269 -13.0595,-10.4894 -27.978,-17.0008 -49.1823,-14.6811 -31.2331,18.8729 -32.4059,51.0414 -61.9926,69.6887 -32.8678,24.2363 -99.5127,33.7902 -117.676,81.5635 -1.8815,5.36339 -4.77374,8.4764 -7.10524,7.76655 l -44.65619,-14.05198 -16.50437,-5.19343 7.43424,402.16112 800,0 z"/>
  <g id="contorno_serra"  clip-path="url(#escudocut)">
   <path class="fil2 str0" d="m399.141,166.757 c -69.6769,-18.4347 -112.335,-49.656 -167.781,-7.02048 -39.391,34.7374 -68.9764,57.8009 -101.3579,109.316 -20.7555,-41.7237 -79.4943,-71.5477 -109.0941,-98.3411 -30.0721,-27.515 -55.9418,-53.1485 -74.5784,-59.4473 -25.6323,-8.84411 -25.6323,-36.3591 -34.4764,-44.269 -13.0595,-10.5012 -27.978,-17.0126 -49.1823,-14.6811 -31.2331,18.8729 -32.4059,51.0414 -61.9808,69.6769 -32.8796,24.2363 -99.5245,33.7902 -117.699,81.5635 -1.86969,5.36339 -4.41615,9.09332 -6.74765,8.38348 l -61.24556,-20.24496"/>
   <path class="fil2 str0" d="M-322.134 211.014c26.8052,8.86773 61.9926,17.4874 89.2596,21.4418 10.9512,1.40906 20.4945,1.85788 30.7595,6.31064 10.265,4.17875 27.0414,12.561 33.7902,21.6662 27.0426,36.3367 82.7245,60.1217 142.846,70.1269 17.2512,2.8063 32.1685,18.1973 49.656,21.9154"/>
   <path class="fil2 str0" d="M130,269 C 116.89973,282.77696 100.8514,297.2416 82.6777,307.9684"/>
   <path class="fil2 str0" d="M351.356 279.755c-44.9552,1.17166 -84.5836,9.79135 -127.691,30.3095 -6.98505,6.28702 -16.3264,15.3673 -25.1835,19.7953 -23.0516,2.58189 -46.1386,2.34449 -69.4395,8.15788 -30.9969,33.5894 -69.4513,55.943 -111.637,73.8922"/>
  </g>
 </g>
 <g id="mural_crown">
  <path class="fil3" d="M-537.712 -822.297l23.3126 -12.8339 9.55395 18.1973 27.4926 -13.5331 -8.60788 -20.7307 37.0583 -17.2512 42.1725 86.9281 0.935434 25.3961 20.5063 -10.0051 11.426 24.2244 18.6473 -7.70788 -10.9748 -24.4488 18.8953 -8.84411 -20.9918 -17.961 -37.0347 -87.8623 41.9363 -15.6047 7.45985 22.1398 27.0414 -9.34135 -6.31064 -23.0634 65.0233 -19.1091 6.06261 23.3244 26.3433 -6.53623 -5.12717 -21.9154 39.1548 -7.90867 19.5591 92.5041 -4.66536 26.5678 24.4725 -4.19174 4.90158 24.7099 30.5233 -3.49252 -3.0189 -25.1717 32.8548 -3.96615 -17.7 -23.537 -12.1358 -94.1493 43.3453 -4.42796 2.79449 22.8508 33.5646 -3.26811 -1.63347 -20.9681 83.4344 0 0 20.0209 30.7713 1.40906 0 -20.7555 47.5371 3.27993 -8.86773 97.1682 -14.8949 22.141 26.3315 3.48071 -1.40906 22.637 27.978 4.42796 3.95434 -21.9154 28.9004 4.19174 -7.93229 -24.9461 14.4437 -94.8367 42.6473 6.0508 -4.42796 23.537 24.7087 6.07442 5.60079 -24.0118 72.2458 19.5839 -6.53505 23.2878 22.8496 8.40592 7.45985 -23.087 39.3662 12.8221 -35.8855 90.6568 -19.5827 18.6603 21.228 9.08033 -10.2532 22.1174 20.7201 8.16851 11.674 -21.4418 16.5272 6.0508 -1.39606 -29.126 38.6918 -86.6907 44.967 20.5063 -8.15788 21.9154 27.978 14.2075 11.1768 -20.7425 26.3315 14.4685 -49.6205 84.345 -24.7217 14.4567 -7.22245 11.426c-22.1398,-7.23426 -36.5729,-4.45276 -43.1079,15.6047l-35.6493 72.0084 37.5083 20.2819c13.9831,13.9819 0.709843,29.5748 -18.8729,26.3315l-37.5201 65.2607c24.6981,17.0126 -0.461812,44.2678 -20.0445,33.7902 -223.96,-117.947 -427.401,-120.493 -667.901,0.236221 -23.3008,3.95434 -30.0733,-12.5977 -17.2512,-28.9004l-36.1229 -66.906c-21.2044,3.51615 -36.1229,-9.08151 -22.3654,-26.5571l35.4248 -20.2689 -35.1874 -65.4969c-10.0169,-21.6674 -23.0646,-30.9851 -40.0772,-21.4299l-6.53623 -13.7469 -26.5678 -15.1547 -49.1823 -81.0899z"/>
  <path class="fil2 str0" d="M-537.712 -822.309l23.3126 -12.8221 9.56576 18.1855 27.4807 -13.5213 -8.6197 -20.7425 37.0701 -17.2394 42.1725 86.9281 0.935434 25.3961 20.5063 -10.0051 11.426 24.2126 18.6473 -7.69607 -10.963 -24.4488 18.8835 -8.85592 -20.9799 -17.9492 -37.0465 -87.8741 41.9363 -15.5929 7.45985 22.1398 27.0414 -9.34135 -6.31064 -23.0634 65.0233 -19.1091 6.07442 23.3244 26.3315 -6.54804 -5.13898 -21.9036 39.1666 -7.90867 19.5591 92.5041 -4.66536 26.5678 24.4725 -4.19174 4.90158 24.7099 30.5233 -3.50434 -3.0189 -25.1599 32.8548 -3.96615 -17.7 -23.537 -12.1358 -94.1611 43.3453 -4.41615 2.79449 22.8508 33.5646 -3.26811 -1.62166 -20.9799 83.4107 0 0 20.0327 30.7831 1.40906 0 -20.7555 47.5371 3.26811 -8.86773 97.18 -14.8949 22.141 26.3315 3.48071 -1.40906 22.637 27.978 4.41615 3.95434 -21.9036 28.9004 4.19174 -7.93229 -24.9461 14.4555 -94.8367 42.6355 6.0508 -4.42796 23.5252 24.7087 6.07442 5.60079 -24 72.2458 19.5709 -6.53505 23.3008 22.8378 8.40592 7.47166 -23.087 39.3662 12.8221 -35.8855 90.6568 -19.5827 18.6484 21.228 9.09214 -10.265 22.1174 20.7437 8.16851 11.6622 -21.4418 16.5272 6.0508 -1.38425 -29.126 38.68 -86.7025 44.967 20.5181 -8.15788 21.9154 27.978 14.2075 11.1768 -20.7544 26.3315 14.4673 -49.6323 84.3462 -24.6981 14.4685 -7.23426 11.413c-22.1398,-7.22127 -36.5729,-4.43977 -43.1079,15.6047l-35.6493 72.0214 37.5083 20.2701c13.9831,13.9819 0.698032,29.5867 -18.8729,26.3433l-37.5083 65.2477c24.6863,17.0138 -0.473623,44.269 -20.0563,33.8032 -223.96,-117.947 -427.401,-120.493 -667.901,0.22441 -23.3008,3.95434 -30.0733,-12.5858 -17.2512,-28.8886l-36.1229 -66.906c-21.2044,3.50434 -36.1229,-9.08151 -22.3654,-26.5689l35.4248 -20.2571 -35.1874 -65.4969c-10.0169,-21.6792 -23.0646,-30.9851 -40.0772,-21.4418l-6.53623 -13.7351 -26.5678 -15.1547 -49.1823 -81.1017z"/>
  <path class="fil2 str0" d="M-526.985 -803.2c26.8052,-19.8071 55.4694,-32.6185 87.6379,-44.0552m42.6461 -19.5473c66.4087,-25.8933 129.799,-46.1753 198.54,-58.2757m71.3103 -10.7268c78.3084,-8.84411 157.315,-8.37048 236.546,0.947245m65.9599 9.08151c65.9706,12.1122 132.143,30.0733 198.552,54.9957m40.5508 16.5402c34.0276,12.5965 68.5158,29.8359 100.436,47.7969"/>
  <path class="fil2 str0" d="M-513.713 -782.527c27.587,-14.5866 56.5229,-31.4351 84.3225,-43.5355m42.1725 -18.2327c64.5154,-25.2898 126.508,-43.9843 191.71,-56.0729m72.4702 -10.7032c75.9048,-8.91497 150.684,-8.67875 227.489,0m67.6985 10.2532c63.828,11.615 126.97,29.3859 191.46,53.3375m41.0363 16.174c32.8193,12.7866 66.1017,26.8996 100.306,45.8079"/>
  <path class="fil2 str0" d="M-500.63 -758.576c27.6815,-14.6221 55.8355,-31.6831 83.517,-43.878m41.6528 -15.9366c62.9162,-26.817 125.18,-44.967 186.996,-55.4091m69.8068 -9.05789c74.6375,-9.32954 147.76,-9.98151 222.883,-1.98898m64.2308 9.08033c62.4662,10.6205 123.843,27.6815 186.771,50.9705m40.1126 15.711c32.5595,12.8469 63.3426,29.6823 93.9131,45.619"/>
  <path class="fil2 str0" d="M-488.281 -740.899c27.8823,-14.6575 53.3741,-28.0725 81.4572,-40.3855m41.6764 -17.2736c59.6363,-23.3362 120.776,-42.339 181.053,-54.0012m66.7406 -9.30592c73.0277,-8.85592 145.604,-8.41773 219.058,-0.426378m64.3725 9.50789c59.8619,10.8095 120.137,27.4205 180.188,49.4658m40.6229 14.2666c31.0914,12.515 60.6898,28.0843 91.3667,43.4044"/>
  <path class="fil2 str0" d="M-463.121 -727.225c19.2154,-10.2295 38.4201,-20.8618 57.8363,-29.6351m57.2103 -25.5496c51.3012,-21.6555 106.901,-36.1819 160.238,-44.9434m87.8623 -13.7103c62.5383,-6.34607 124.069,-6.13347 186.997,0.827954m84.8198 13.2851c51.9166,10.6193 104.214,25.9406 156.545,45.7831m59.6717 19.8083c21.2528,9.40041 42.1028,23.4898 62.9517,34.1339"/>
  <path class="fil2 str0" d="M-433.013 -713.265c273.958,-141.378 569.798,-142.575 850.671,-4.64174"/>
  <path class="fil2 str0" d="M-417.445 -694.121c271.876,-133.043 543.941,-136.927 819.687,-5.11536"/>
  <path class="fil2 str0" d="M-403.817 -671.116c263.612,-129.183 528.099,-130.958 793.474,-3.3626"/>
  <path class="fil2 str0" d="M-391.634 -648.242c256.46,-123.252 513.761,-124.589 769.013,-2.86536"/>
  <path class="fil2 str0" d="M-381.393 -625.652c246.847,-120.303 496.061,-121.593 748.259,-2.98347"/>
  <path class="fil2 str0" d="M-392.593 -578.85c246.692,-144.267 525.447,-140.36 778,-2.60433"/>
  <path class="fil2 str0" d="M-382.221 -556.744c247.19,-137.968 503.389,-133.683 755.421,-2.04922"/>
  <path class="fil2 str0" d="M-368.689 -535.231c248.681,-135.517 495.043,-129.397 728.545,0.200788"/>
  <path class="fil2 str0" d="M-357.665 -509.966c248.172,-138.702 473.826,-131.811 706.321,-6.32127"/>
  <path class="fil4 str0" d="M-277.155 -755.663l25.1717 78.7926 42.4099 -12.8221 -21.6792 -80.1781c-6.98505,-36.1229 -59.1981,-26.8052 -45.9024,14.2075z"/>
  <path class="fil4 str0" d="M-31.0548 -797.517l3.59882 82.5225 44.3044 -0.153544 4.60512 -82.2981c3.6,-36.6083 -53.5264,-43.1788 -52.5083,-0.0708662z"/>
  <path class="fil4 str0" d="M211.387 -775.33l-20.1626 82.9135 42.3378 13.4268 25.7516 -82.108c13.5921,-32.2642 -36.3709,-52.8296 -47.9268,-14.2323z"/>
  <line class="fil2 str0" x1="-486.908" y1="-826.501" x2="-474.322" y2= "-802.027" />
  <line class="fil2 str0" x1="-501.803" y1="-788.045" x2="-487.82" y2= "-764.745" />
  <line class="fil2 str0" x1="-439.134" y1="-821.374" x2="-429.343" y2= "-796.901" />
  <line class="fil2 str0" x1="-461.962" y1="-778.964" x2="-451.235" y2= "-760.091" />
  <line class="fil2 str0" x1="-378.539" y1="-872.178" x2="-370.843" y2= "-850.524" />
  <line class="fil2 str0" x1="-296.028" y1="-901.778" x2="-288.568" y2= "-878.003" />
  <line class="fil2 str0" x1="-215.387" y1="-921.36" x2="-211.197" y2= "-897.124" />
  <line class="fil2 str0" x1="-334.246" y1="-864.257" x2="-326.089" y2= "-837.688" />
  <line class="fil2 str0" x1="-240.571" y1="-890.837" x2="-235.219" y2= "-864.269" />
  <line class="fil2 str0" x1="-360.59" y1="-824.878" x2="-352.42" y2= "-804.136" />
  <line class="fil2 str0" x1="-280.897" y1="-852.145" x2="-276.694" y2= "-830.23" />
  <line class="fil2 str0" x1="-205.833" y1="-871.018" x2="-200.256" y2= "-849.114" />
  <line class="fil2 str0" x1="-268.761" y1="-810.185" x2="-263.398" y2= "-791.55" />
  <line class="fil2 str0" x1="-397.175" y1="-730.504" x2="-386.21" y2= "-709.749" />
  <line class="fil2 str0" x1="-374.797" y1="-685.039" x2="-364.556" y2= "-661.502" />
  <line class="fil2 str0" x1="-364.308" y1="-745.872" x2="-354.303" y2= "-722.559" />
  <line class="fil2 str0" x1="-344.748" y1="-698.336" x2="-333.796" y2= "-674.337" />
  <polyline class="fil2 str0" points="-406.256,-756.125 -325.165,-652.422 -346.371,-782.468 "/>
  <line class="fil2 str0" x1="-302.102" y1="-771.268" x2="-294.157" y2= "-746.345" />
  <line class="fil2 str0" x1="-326.089" y1="-733.748" x2="-315.847" y2= "-709.051" />
  <line class="fil2 str0" x1="-286.011" y1="-720.228" x2="-276.456" y2= "-695.778" />
  <line class="fil2 str0" x1="-319.802" y1="-679.227" x2="-310.484" y2= "-656.376" />
  <line class="fil2 str0" x1="-298.597" y1="-626.564" x2="-289.042" y2= "-601.854" />
  <line class="fil2 str0" x1="-100.034" y1="-938.137" x2="-99.5836" y2= "-912.729" />
  <line class="fil2 str0" x1="-95.8419" y1="-885.237" x2="-94.9182" y2= "-864.505" />
  <line class="fil2 str0" x1="-51.0993" y1="-916.221" x2="-49.2414" y2= "-888.955" />
  <line class="fil2 str0" x1="-6.13229" y1="-941.855" x2="-6.13229" y2= "-917.168" />
  <line class="fil2 str0" x1="-5.65867" y1="-890.363" x2="-5.65867" y2= "-868.461" />
  <line class="fil2 str0" x1="36.5138" y1="-916.695" x2="35.5902" y2= "-889.653" />
  <line class="fil2 str0" x1="84.5363" y1="-937.675" x2="82.4399" y2= "-913.428" />
  <line class="fil2 str0" x1="79.6466" y1="-885.924" x2="78.2493" y2= "-864.269" />
  <line class="fil2 str0" x1="-5.65867" y1="-845.846" x2="-5.67048" y2= "-827.199" />
  <polyline class="fil2 str0" points="-189.991,-828.821 -128.697,-707.654 -98.8726,-840.235 "/>
  <line class="fil2 str0" x1="-217.956" y1="-795.504" x2="-210.747" y2= "-770.344" />
  <line class="fil2 str0" x1="-205.383" y1="-744.25" x2="-200.02" y2= "-718.131" />
  <line class="fil2 str0" x1="-180.673" y1="-777.331" x2="-175.074" y2= "-750.762" />
  <line class="fil2 str0" x1="-143.603" y1="-809.475" x2="-138.039" y2= "-785.251" />
  <line class="fil2 str0" x1="-134.534" y1="-758.221" x2="-133.836" y2= "-731.902" />
  <line class="fil2 str0" x1="-147.357" y1="-727.911" x2="-143.864" y2= "-704.386" />
  <line class="fil2 str0" x1="-92.8348" y1="-842.129" x2="-91.1777" y2= "-815.999" />
  <line class="fil2 str0" x1="-88.3714" y1="-792.012" x2="-85.6123" y2= "-764.756" />
  <line class="fil2 str0" x1="-82.0844" y1="-738.164" x2="-79.5391" y2= "-713.005" />
  <line class="fil2 str0" x1="-44.8005" y1="-818.355" x2="-45.0142" y2= "-795.729" />
  <line class="fil2 str0" x1="-44.8005" y1="-768.249" x2="-42.7052" y2= "-740.508" />
  <line class="fil2 str0" x1="31.8733" y1="-820.45" x2="31.1741" y2= "-795.492" />
  <line class="fil2 str0" x1="29.067" y1="-768.923" x2="29.0552" y2= "-740.272" />
  <polyline class="fil2 str0" points="84.2871,-840.033 111.116,-708.115 173.784,-826.501 "/>
  <line class="fil2 str0" x1="71.9623" y1="-792.462" x2="68.908" y2= "-765.905" />
  <line class="fil2 str0" x1="66.3509" y1="-738.413" x2="66.3509" y2= "-713.691" />
  <line class="fil2 str0" x1="190.572" y1="-922.982" x2="187.305" y2= "-898.059" />
  <line class="fil2 str0" x1="180.769" y1="-873.113" x2="177.513" y2= "-850.286" />
  <line class="fil2 str0" x1="221.332" y1="-890.837" x2="213.873" y2= "-865.891" />
  <line class="fil2 str0" x1="276.091" y1="-903.187" x2="268.869" y2= "-878.015" />
  <line class="fil2 str0" x1="263.032" y1="-854.94" x2="257.455" y2= "-832.325" />
  <line class="fil2 str0" x1="311.741" y1="-864.719" x2="302.896" y2= "-842.827" />
  <line class="fil2 str0" x1="355.56" y1="-877.541" x2="346.714" y2= "-854.004" />
  <line class="fil2 str0" x1="338.546" y1="-830.929" x2="331.323" y2= "-809.973" />
  <line class="fil2 str0" x1="125.525" y1="-812.292" x2="121.357" y2= "-788.27" />
  <line class="fil2 str0" x1="117.853" y1="-760.091" x2="113.649" y2= "-733.05" />
  <line class="fil2 str0" x1="164.253" y1="-779.888" x2="158.889" y2= "-754.03" />
  <line class="fil2 str0" x1="145.344" y1="-728.384" x2="141.166" y2= "-702.988" />
  <line class="fil2 str0" x1="199.44" y1="-797.825" x2="193.829" y2= "-772.192" />
  <line class="fil2 str0" x1="186.37" y1="-747.495" x2="181.266" y2= "-719.754" />
  <line class="fil2 str0" x1="248.824" y1="-806.941" x2="245.332" y2= "-794.806" />
  <line class="fil2 str0" x1="280.993" y1="-773.601" x2="273.297" y2= "-751.473" />
  <line class="fil2 str0" x1="264.453" y1="-726.289" x2="257.218" y2= "-699.496" />
  <line class="fil2 str0" x1="305.702" y1="-740.746" x2="295.91" y2= "-713.941" />
  <line class="fil2 str0" x1="286.592" y1="-690.178" x2="278.423" y2= "-665.468" />
  <polyline class="fil2 str0" points="326.67,-784.801 309.182,-657.323 387.952,-759.855 "/>
  <line class="fil2 str0" x1="348.811" y1="-750.064" x2="339.493" y2= "-727.686" />
  <line class="fil2 str0" x1="329.228" y1="-701.355" x2="318.501" y2= "-676.669" />
  <line class="fil2 str0" x1="359.987" y1="-687.372" x2="348.811" y2= "-664.071" />
  <line class="fil2 str0" x1="382.352" y1="-734.932" x2="371.638" y2= "-713.703" />
  <line class="fil2 str0" x1="445.529" y1="-786.66" x2="436.188" y2= "-766.84" />
  <line class="fil2 str0" x1="423.389" y1="-823.955" x2="412.887" y2= "-802.265" />
  <line class="fil2 str0" x1="469.765" y1="-830.692" x2="457.866" y2= "-809.273" />
  <line class="fil2 str0" x1="494.462" y1="-790.851" x2="483.511" y2= "-766.604" />
  <line class="fil2 str0" x1="-364.793" y1="-594.395" x2="-354.515" y2= "-572.716" />
  <line class="fil2 str0" x1="-341.717" y1="-549.889" x2="-329.357" y2= "-527.039" />
  <line class="fil2 str0" x1="-328.433" y1="-584.84" x2="-317.47" y2= "-561.279" />
  <line class="fil2 str0" x1="-279.026" y1="-577.618" x2="-269.459" y2= "-556.176" />
  <line class="fil2 str0" x1="-248.965" y1="-616.772" x2="-242.666" y2= "-592.299" />
  <line class="fil2 str0" x1="-224.019" y1="-654.043" x2="-215.625" y2= "-627.948" />
  <line class="fil2 str0" x1="-208.165" y1="-603.026" x2="-201.879" y2= "-581.572" />
  <line class="fil2 str0" x1="-179.502" y1="-638.213" x2="-173.215" y2= "-612.331" />
  <line class="fil2 str0" x1="-128.472" y1="-621.65" x2="-126.851" y2= "-601.617" />
  <line class="fil2 str0" x1="-139.897" y1="-673.626" x2="-133.611" y2= "-648.218" />
  <line class="fil2 str0" x1="-90.7277" y1="-654.043" x2="-87.6958" y2= "-628.883" />
  <line class="fil2 str0" x1="-40.3725" y1="-685.276" x2="-44.1142" y2= "-656.376" />
  <line class="fil2 str0" x1="-5.19686" y1="-657.548" x2="-5.89607" y2= "-635.17" />
  <line class="fil2 str0" x1="-37.8272" y1="-634.022" x2="-35.2465" y2= "-611.409" />
  <line class="fil2 str0" x1="46.069" y1="-683.879" x2="43.7363" y2= "-657.761" />
  <line class="fil2 str0" x1="42.8127" y1="-633.075" x2="40.0193" y2= "-611.87" />
  <line class="fil2 str0" x1="81.2682" y1="-654.043" x2="78.4737" y2= "-629.807" />
  <line class="fil2 str0" x1="134.642" y1="-672.691" x2="129.74" y2= "-646.585" />
  <line class="fil2 str0" x1="125.323" y1="-622.348" x2="122.281" y2= "-601.38" />
  <line class="fil2 str0" x1="161.896" y1="-638.889" x2="156.782" y2= "-616.535" />
  <line class="fil2 str0" x1="205.941" y1="-655.441" x2="200.127" y2= "-629.109" />
  <line class="fil2 str0" x1="230.887" y1="-620.489" x2="222.019" y2= "-596.491" />
  <line class="fil2 str0" x1="193.118" y1="-606.506" x2="187.068" y2= "-584.13" />
  <line class="fil2 str0" x1="280.046" y1="-630.518" x2="270.728" y2= "-605.572" />
  <line class="fil2 str0" x1="260.937" y1="-581.336" x2="252.779" y2= "-562.227" />
  <line class="fil2 str0" x1="302.659" y1="-592.299" x2="291.932" y2= "-569.448" />
  <line class="fil2 str0" x1="349.971" y1="-599.995" x2="338.546" y2= "-576.209" />
  <line class="fil2 str0" x1="328.055" y1="-553.133" x2="317.566" y2= "-533.799" />
 </g>
 <g id="listel">
  <path class="fil1 str0" id="laco_esquerdo" d="M-165 516c-115.792,-51.4902 -216.678,-174.978 -253.961,-280.992 -27.9544,-79.9182 -48.7087,-147.937 -58.0265,-131.408 -6.76064,27.267 -3.49252,54.9946 -10.9524,65.4733 -9.55395,-9.0697 -80.3682,-65.0115 -107.41,-69.4276 -1.38543,3.26693 52.2012,43.7941 70.6005,118.586 20.9799,84.5706 124.897,315.256 325.497,388.627 12.124,-28.8662 27.0189,-61.0347 34.252,-90.8588z"/>
  <use xlink:href="#laco_esquerdo" transform="matrix(-1 0 0 1 0 0)"/>
  <path class="fil1 str0" d="M -220,470 C -50,550 50,550 220,470 l 50,90 C 100,650 -100,650 -270,560z"/>
  <path class="fil4" d="M-444.166 224.427l-55.0784 20.2465 -4.49882 -12.9177 28.663 -11.2358c4.50001,-1.70433 7.87324,-2.24882 7.87324,-3.39804 1.68189,0 1.68189,-0.544489 2.25,-2.24882 -0.568111,-1.11378 -0.568111,-2.79449 -2.25,-6.15709l0 -1.69252 6.18072 -2.25c3.37441,5.62324 8.98702,10.0996 15.1784,11.804l1.68189 7.84962zm13.4847 32.0504l-11.804 6.19253 -47.2052 8.98584 -5.04331 -13.4858 48.8859 -8.44135 -6.19135 -13.4858 9.55395 -3.9189 11.804 24.1536zm-16.8473 36.5374l-8.98702 3.37441 -7.87324 -17.4284 8.41773 -4.49882 8.44253 18.5528zm41.0127 13.4847l-51.1359 28.1079 -6.73702 -13.4977 27.528 -14.6103c4.49882,-1.69252 6.74765,-3.93071 6.74765,-3.93071 1.1374,-0.568111 1.1374,-1.68071 1.1374,-2.24882 0,-1.68189 -0.579922,-3.93071 -1.70551,-6.76064l-0.544489 -0.544489 5.05631 -3.3626c4.49882,5.04331 9.55395,8.41773 15.7347,9.55513l3.9189 7.29214zm-20.791 60.7028l-9.55395 5.05512 -15.1784 -28.663 7.30513 -3.37441c17.4272,0.568111 28.1185,0.568111 32.6174,0 4.48819,0 6.73702,-0.54567 8.98702,-1.68189 1.68071,-1.12441 2.81811,-1.68071 2.81811,-2.24882 1.1126,-0.569292 1.1126,-1.68189 0.5563,-2.82992 -1.6937,-0.544489 -2.8063,-1.65827 -3.37441,-1.65827 -1.1374,0 -2.81811,0.544489 -4.49882,1.65827l-4.48819 2.82992 -6.74765 -11.2358 1.68071 -1.1374c2.25,-1.69252 5.06694,-2.8063 6.74883,-3.35079 1.12441,0 3.9189,-1.13622 6.16772,0 1.70551,-0.568111 4.51182,0 6.19253,1.11378 1.68189,2.23701 3.93071,3.37441 5.61261,6.19135 2.24882,5.04449 3.37441,10.6677 2.24882,13.4858 -1.1126,5.05512 -3.93071,7.87324 -7.86143,10.0996 -1.68071,1.12441 -5.62324,2.82874 -9.55395,2.82874 -3.93071,0.54567 -13.4977,0 -28.0961,-0.579922l8.41773 13.4977zm32.0504 13.4858l-9.01064 5.62324 -10.6665 -16.291 8.41773 -5.63623 11.2595 16.304zm41.0127 7.87324l-46.0678 34.8556 -8.99883 -11.2713 25.2898 -19.0973c3.37441,-2.8063 5.62442,-3.9189 5.62442,-4.48701 1.1126,-1.11378 1.68071,-1.68189 1.68071,-3.3626 -0.568111,-0.579922 -2.25,-2.82992 -3.93071,-5.64804l-0.5563 -1.1126 4.48701 -3.93071c5.62442,4.49882 12.3721,7.30513 18.541,7.30513l3.93071 6.74883zm3.95434 43.8426c0.5563,1.1126 0.5563,3.3626 0,6.17954 0,1.11378 -3.38622,4.4752 -7.88505,8.98702 -3.9189,3.37441 -6.73702,4.49882 -9.55513,6.17954 -1.68071,0.581103 -4.48701,0.581103 -7.87324,-1.12441 -1.68071,-0.5563 -4.4752,-2.8063 -7.84962,-6.16891 -2.81811,-3.39804 -4.49882,-6.19135 -5.06694,-7.87324 -0.568111,-2.81693 -0.568111,-5.62324 0.568111,-7.87324 0.544489,-2.81811 3.93071,-5.61142 7.87324,-8.99765 2.79449,-2.23819 5.04331,-3.9189 7.29332,-5.60079 1.6937,-0.568111 5.05512,-2.26063 8.44135,0 -0.568111,-2.82992 -0.568111,-3.96615 0,-6.76064 1.11378,-1.1126 2.79449,-3.3626 4.50001,-5.05512 3.9189,-2.8063 7.84962,-3.95434 11.7921,-3.95434 3.3626,0.591733 7.31694,1.70433 10.6677,6.21615 4.49882,5.04331 5.06694,9.55395 5.06694,12.9166 -0.568111,3.3626 -2.81811,6.19253 -6.18072,9.55513 -2.23701,2.23701 -4.48701,3.37441 -6.19135,3.93071 -1.11378,0 -3.3626,-0.5563 -5.60079,-0.5563l0 0zm3.9189 -15.1795c0.568111,-1.1126 1.68189,-1.68071 1.68189,-3.37323 0.568111,-0.569292 0.568111,-1.12559 0,-1.70551l-1.11378 0c-0.568111,0 -2.24882,0.579922 -3.38622,3.39804l-3.34961 1.68071c-1.1374,1.68189 -1.70551,2.81811 -1.70551,3.3626 -1.68071,0 0,0 0,0.569292 0,0.5563 0.568111,1.68071 1.13622,0.5563 1.11378,0 2.23819,-1.12559 3.9189,-1.67008l2.81811 -2.81811zm-17.9729 16.2921c1.11378,-1.1126 2.79449,-2.8063 2.79449,-3.9189 0,-0.568111 0,-1.70551 0,-1.70551 -0.544489,-0.544489 -1.68071,-0.544489 -1.68071,0 -1.11378,0 -2.81811,0 -4.50001,1.70551l-5.62324 5.05512c-2.25,1.68189 -3.3626,3.93071 -3.3626,3.93071 0,1.11378 0,1.11378 0,1.68189 1.1126,0.544489 1.68071,1.69252 2.25,0 0,0 2.24882,0 4.48701,-1.68189l5.63505 -5.06694zm11.8051 22.4953l10.6665 10.0996c-2.24882,1.70433 -3.36142,2.81693 -3.93071,3.3626 0,0.568111 -0.568111,1.14803 -0.568111,1.70433 0.568111,0.5563 0.568111,1.6937 0.568111,1.6937 0.569292,1.1126 1.11378,1.1126 2.81811,1.1126 0,0 0.5563,0 1.1126,-1.1126 0.557481,-1.1374 1.1374,-1.1374 3.37441,-2.82992l5.61261 -6.72521c-1.1126,0.568111 -3.3626,0.568111 -4.49882,0 -1.11378,0 -3.35079,-0.579922 -3.93071,-2.26181 -1.67008,-2.24882 -3.37441,-3.37441 -3.9189,-6.72402 0,-2.26181 0,-4.51182 2.24882,-6.19253 0.5563,-1.68189 2.25,-3.93071 4.48701,-6.18072l3.3626 -3.37441c2.81811,-2.81693 4.51064,-5.06694 7.30513,-5.62324 1.1374,-1.6937 2.25,-2.25 5.06812,-2.25 1.13622,0 3.94252,0 6.73584,1.1126 1.70551,1.1374 4.51182,1.6937 6.19253,4.51182 2.81811,2.24882 5.06812,5.62324 5.62442,7.87324 1.12441,2.24882 1.12441,5.61142 0.5563,7.29332 0,2.82992 -1.1126,4.51064 -2.81811,6.73702 -1.68071,0.568111 -4.49882,4.49882 -7.84962,8.98584l-7.30513 5.64804c-4.49882,5.04331 -7.88505,7.86143 -8.99883,10.1102 -2.26063,1.6937 -4.51064,1.6937 -7.30395,2.8063 -2.8063,0 -4.50001,0 -7.30513,-1.1126 -2.81811,-0.568111 -4.50001,-3.39804 -7.30513,-5.64804 -2.81811,-2.2252 -4.50001,-5.04331 -5.63623,-7.84962 0,-3.3626 0,-5.06694 0,-7.86143 1.13622,-2.26181 2.81811,-4.51064 5.63623,-7.30513zm23.5961 -3.38622c-1.68189,1.70551 -3.37441,3.38622 -2.23819,4.49882 0,0.5563 0.5563,1.11378 0.5563,1.11378 0,0.568111 0.54567,0.568111 1.11378,0.568111 1.68071,0 2.81811,-0.568111 3.93071,-1.68189l7.30513 -7.30513c1.13622,-2.24882 3.38622,-3.3626 3.38622,-3.93071 0.568111,-1.12441 0.568111,-1.68071 -0.568111,-2.82992 0,0 -1.68189,0 -2.81811,0 0,0 -1.68189,0 -3.35079,2.82992l-7.31694 6.73702zm40.4682 37.6619c1.1126,2.26181 1.68071,3.93071 1.68071,6.19253 -0.568111,1.1126 -1.68071,5.05512 -5.62324,10.6677 -3.3626,2.79449 -6.18072,5.62324 -7.86143,7.87324 -2.8063,0.568111 -5.62442,0.568111 -7.87324,0.568111 -2.81811,-0.568111 -6.16891,-2.81811 -8.98702,-4.49882 -3.94252,-2.8063 -6.19253,-5.62442 -7.87324,-7.88505 -0.568111,-2.8063 -1.1126,-6.72521 0,-8.43072 0,-2.2252 2.81811,-5.59961 6.19253,-10.0984l3.3626 -3.39804 11.2477 7.89686 -6.19253 8.41773c-1.6689,2.25 -1.6689,2.8063 -2.8063,3.94252 0,1.67008 0,1.67008 1.1374,2.25 1.10079,0.544489 1.6689,0.544489 2.23701,0 1.68189,0 2.81811,-2.25 5.06812,-5.62442l2.24882 -2.24882c2.23819,-2.25 2.8063,-3.3626 2.8063,-3.94252 0,-1.68189 0,-2.79449 0,-3.93071 -0.568111,0 -2.8063,-1.68189 -5.05512,-3.3626l5.05512 -6.76064c3.3626,1.1126 5.04331,3.3626 5.04331,3.3626 1.70551,0 2.25,0 2.8063,-0.544489 1.13622,-0.568111 2.25,-1.70551 3.38622,-2.81811l1.68071 -2.25c1.68189,-1.68071 1.68189,-2.79331 2.25,-3.93071 0,0 0,-1.1126 -1.1126,-1.1126 -1.1374,-1.14803 -2.25,-1.14803 -2.81811,-1.14803 -0.568111,0.568111 -1.13622,1.70433 -2.81811,3.39804l-2.8063 3.93071 -10.6665 -9.57875 2.24882 -3.90709c3.9189,-4.51064 7.30513,-6.19253 10.0996,-6.19253 2.8063,0 7.30513,1.68189 11.8158,5.05631 4.49882,4.49882 7.84962,8.44135 7.84962,11.804 0,3.93071 -0.544489,7.29332 -3.35079,11.804 -2.81693,2.25 -3.95434,3.38622 -5.63505,4.49882 -1.6937,0 -3.9189,0 -6.73702,0z"/>
  <path class="fil4" d="M290 455l34.8449 46.6595 -11.8051 7.87324 -18.541 -24.1878c-3.38622,-3.90709 -4.49882,-5.60079 -5.07875,-6.72521 -1.6689,-0.579922 -2.22638,-0.579922 -2.79449,-0.579922 -1.13622,0 -3.38622,1.70433 -5.63505,4.51064l-1.68189 0 -4.48701 -5.05512c6.16891,-5.61261 7.87324,-11.2595 7.87324,-17.9965l7.30513 -4.49882zm62.3717 11.2358l6.19253 7.32875 -24.7335 20.7898 -5.06694 -5.62324c-3.35079,-18.541 -5.05631,-29.7886 -5.60079,-33.7311 -1.13622,-3.90709 -2.81811,-6.16891 -4.51064,-8.41891 0,-1.68071 -1.1126,-2.24882 -2.25,-2.24882 -1.68071,-0.568111 -1.68071,0 -2.24882,0.568111 -1.11378,1.68071 -1.11378,2.2252 -1.11378,3.3626 0,0.568111 1.11378,2.24882 1.68189,3.94252l3.93071 3.3626 -10.1114 9.00946 -0.568111 -0.591733c-2.8063,-3.33898 -3.9189,-5.5878 -5.62442,-7.29332 0,-1.12441 -1.1126,-2.8063 -1.1126,-5.59961 0,-2.26181 0,-3.96733 1.1126,-6.76064 0.569292,-1.68189 2.81811,-4.51182 4.50001,-5.61261 5.05512,-3.37441 9.55395,-6.19135 13.4965,-5.62324 4.50001,0.568111 7.87442,2.24882 11.2358,5.62324 1.1374,2.25 3.38622,5.61261 4.50001,10.1114 1.12441,3.37441 2.80512,12.9284 3.37441,26.9587l12.9166 -9.55395zm6.76064 -34.8213l7.30513 7.30513 -14.6103 14.054 -7.30513 -7.87324 14.6103 -13.4858zm-1.13622 -41.6044l43.8532 39.3556 -10.6902 10.6547 -23.041 -21.3461c-2.80512,-2.23819 -5.05512,-4.48819 -5.62324,-4.48819 -0.568111,-1.1126 -1.68189,-0.568111 -3.3626,0 -0.568111,0.569292 -3.37441,1.68189 -4.51064,3.93189l-1.68189 1.68071 -4.49882 -3.93071c3.38622,-6.76064 4.49882,-14.054 3.38622,-18.5646l6.16891 -7.29332zm63.508 -0.5563l7.87324 6.19135 -20.2229 24.7335 -6.19135 -4.51064c-6.19253,-17.4166 -10.1232,-28.1079 -11.804,-31.4587 -1.68189,-3.95434 -3.93071,-5.63505 -5.06812,-7.89686 -1.12441,-1.1126 -1.6689,-1.1126 -3.35079,-1.1126 -0.568111,-0.544489 -1.70433,0 -2.81693,0.568111 0,0.544489 0,2.8063 0,3.3626 0,0 1.1126,2.82992 3.36142,3.37441l3.94371 3.93071 -7.30513 10.6677 -2.25 -2.22638c-3.37441,-2.24882 -4.48701,-3.93071 -5.62442,-4.51064 -1.68071,-2.25 -2.24882,-3.93071 -2.81693,-6.15709 -1.11378,-1.70433 -1.11378,-3.95434 0,-6.75946 0.568111,-2.25 1.70433,-5.05631 2.81693,-6.18072 3.93071,-4.48701 7.87442,-7.30513 12.9177,-7.87324 3.37441,-0.544489 7.32875,0.568111 11.2595,3.38622 2.23819,1.65709 4.48701,4.48701 5.62324,8.41773 2.79449,3.93071 5.60079,12.3603 10.0996,26.4142l9.55513 -12.3603zm0 -34.2756l7.87324 5.05512 -10.1232 16.2792 -7.84962 -5.04331 10.0996 -16.291zm-7.86143 -42.1501l50.5784 30.3449 -7.86143 12.3732 -26.9823 -16.3158c-3.94252,-2.24882 -6.19253,-3.3626 -6.19253,-3.3626 -2.2252,-0.568111 -2.79331,-0.568111 -3.3626,0 -0.568111,0.568111 -2.81693,2.25 -3.93071,4.48819l-0.5563 1.68071 -6.18072 -2.8063c2.79449,-6.74883 2.79449,-14.054 0,-20.2453l4.48819 -6.15709zm38.2063 -19.6772c0.568111,-1.6937 2.81811,-1.6937 4.51064,-2.25 2.25,0 6.74883,0.5563 12.9177,3.93071 3.93071,2.25 7.30513,3.93071 7.87324,6.18072 2.25,1.12441 3.3626,3.94252 3.3626,5.62324 0,3.3626 -1.1126,6.73702 -2.22638,11.2358 -1.70433,3.94371 -4.49882,6.76064 -6.76064,7.87442 -2.24882,0.568111 -5.04331,2.81693 -7.30513,2.81693 -2.24882,0 -6.17954,-2.24882 -10.1102,-3.93071 -3.37441,-1.70433 -6.19253,-3.39804 -7.87324,-3.95434 -2.8063,-2.23701 -3.94371,-4.48701 -3.94371,-7.84962 -2.2252,0.544489 -3.36142,1.68189 -5.61142,1.68189 -1.6937,0 -4.48701,-0.569292 -7.30513,-1.68189 -4.48701,-2.26181 -7.87324,-6.19253 -8.98584,-9.00946 0,-3.93071 0,-7.84962 2.79331,-12.9177 2.25,-4.48701 5.62442,-7.87324 9.01064,-10.1351 3.37441,0 7.30513,0 12.3603,2.82992 2.25,1.1126 3.3626,2.81811 5.06694,3.3626 1.11378,1.13622 1.11378,3.94252 2.22638,6.19253l0 0zm-15.7347 2.24882c-1.67008,-0.568111 -2.8063,-0.568111 -3.37441,-0.568111 -0.544489,-0.568111 -1.1126,0 -1.68189,0 0,0.568111 0,2.25 1.1374,2.25 0,0.568111 1.1126,1.13622 2.79331,1.68071l3.94371 2.25c1.13622,0.5563 2.24882,1.12441 3.36142,1.12441 0.569292,0 0.569292,-0.568111 1.1374,-1.12441 0,-1.12441 0,-1.68189 -0.568111,-1.68189 0,-0.568111 -1.68189,-0.568111 -3.3626,-1.68071l-3.38622 -2.25zm21.9272 10.1232c-1.68189,-0.568111 -3.37441,-0.568111 -3.93071,-1.70433 -1.6937,1.13622 -1.6937,1.13622 -2.26181,1.70433 0,0.544489 0,1.1126 0.568111,1.1126 1.1374,0.569292 1.6937,2.79449 3.94252,2.79449l6.74883 3.94252c2.79449,1.1374 3.37441,1.1374 4.48701,1.1374 1.1374,0 1.68189,0 1.68189,-1.1374 1.13622,-0.544489 0.568111,-1.12441 0,-1.12441 0,-1.12441 -2.25,-2.25 -3.93071,-3.3626l-7.30513 -3.3626zm16.291 -18.5646l4.49882 -14.054c2.25,0 3.94252,1.12559 3.94252,1.70551 0.557481,-0.579922 1.70551,0 2.25,-0.579922 0.5563,-1.12559 1.1126,-1.12559 1.1126,-1.68189 0,-0.568111 0,-1.12441 0,-1.68071 -0.5563,-0.569292 -1.1126,-1.68189 -1.65709,-1.68189 0,0 -1.70551,-0.568111 -3.96615,-1.13622l-9.55513 -2.8063c1.70551,1.6937 2.82992,2.8063 2.82992,3.94252 0.544489,2.23819 0.544489,3.3626 0,5.62442 -0.579922,2.24882 -2.82992,3.93071 -4.51064,5.61142 -1.68189,0.544489 -3.93071,2.23819 -6.16891,2.23819 -1.13622,-0.544489 -4.49882,-1.6937 -7.88505,-1.6937l-4.48701 -1.1126c-3.93071,-1.68071 -6.18072,-2.79449 -7.87324,-3.93071 -2.25,-1.1126 -3.93071,-2.81811 -4.50001,-3.94252 -1.68071,-1.68189 -2.79331,-3.3626 -2.79331,-6.73702 0,-1.69252 0,-4.49882 1.1126,-7.86143 1.68071,-3.94252 2.81811,-5.62442 4.49882,-8.44135 2.25,-1.11378 5.05631,-2.79449 6.73702,-3.93071 2.25,-0.569292 4.49882,0 6.74883,0 1.69252,0.568111 7.30513,1.68071 11.8158,3.38622l8.42954 2.79331c6.73702,1.6937 10.6677,3.94252 12.9295,4.51182 2.2252,0.544489 3.93071,2.24882 5.61142,3.93071 2.23819,1.68071 2.8063,4.48701 2.8063,7.87324 0.568111,2.79331 0,5.04331 -0.568111,8.41773 -2.23819,3.93071 -3.37441,6.73702 -5.62442,8.44135 -1.68071,2.25 -4.48701,3.3626 -7.29332,3.3626 -2.26063,0.568111 -4.48701,0 -8.44135,-0.568111zm-14.0421 -19.6536c2.81811,0.544489 3.93071,1.1126 5.05631,0.544489 0.5563,-0.544489 1.13622,-1.1126 1.13622,-1.1126 0,-1.6937 0,-1.6937 0,-2.81811 -0.579922,-0.568111 -2.26181,-1.12559 -4.51064,-1.12559l-9.55513 -3.36142c-1.68071,-0.569292 -2.79449,-1.68189 -4.49882,-0.569292 -1.1126,-1.1126 -1.1126,0 -1.68071,0.569292 0,0.568111 0,1.68071 0.568111,1.68071 0,0.5563 1.1126,2.23819 3.93071,2.8063l9.55395 3.38622zm-1.1126 -65.7698l11.7803 4.48701 38.7875 25.8579 -5.04449 12.9295 -40.48 -27.528 -5.61142 13.474 -8.98702 -2.8063 9.55513 -26.4142z"/>
  <path class="fil4" d="M-220 500 l12.9402 6.18072c3.9189,1.1126 7.30513,3.3626 9.55513,4.48701 2.23701,1.13622 2.80512,3.38622 3.9189,5.61261 0,2.26063 -1.11378,6.75946 -2.8063,10.1339 -1.1126,2.8063 -2.25,4.50001 -3.93071,5.06812 -0.568111,1.1126 -3.3626,1.1126 -6.19253,0 2.26181,2.2252 3.94252,5.04331 4.51064,6.73702 0,2.24882 -0.568111,4.4752 -1.68071,7.87324l-2.25 4.49882c-1.12441,3.90709 -2.82874,6.15709 -3.94252,7.30513 -1.1126,2.25 -3.94252,2.25 -5.61142,2.25 -1.12559,0 -5.62442,-1.70551 -10.6795,-3.39804l-15.1902 -6.72521 21.3591 -50.0233zm9.55395 14.054l-5.04331 10.6677c0.544489,0.568111 1.1126,0.568111 1.6689,1.1126 1.12559,0 2.26181,0.579922 3.37441,0 0.568111,-0.544489 1.68189,-2.79449 2.81811,-6.15591 0.568111,-0.569292 0.568111,-1.6937 0.568111,-2.25 0,-1.14803 -0.568111,-1.6937 -0.568111,-2.26181 0,-0.544489 -1.13622,-1.1126 -2.81811,-1.1126zm-8.41773 18.541l-6.19253 15.1666c2.25,0 3.37441,0.579922 5.05631,0 0.568111,0 1.13622,-1.6689 1.68071,-2.81811l2.25 -4.4752c1.12441,-3.3626 1.12441,-5.06694 1.12441,-5.62324 -0.544489,-1.1374 -1.67008,-1.1374 -3.9189,-2.25zm35.9693 -16.8603l23.0398 8.98702 -3.93071 8.98584 -8.98702 -2.79331 -3.37441 9.55395 8.41891 3.93071 -2.81811 8.98702 -8.98584 -3.3626 -4.50001 11.804 10.1232 3.3626 -3.3626 11.2358 -23.6197 -8.98702 17.9965 -51.704zm43.8426 15.1795l-13.4977 41.5808 7.87324 2.81811 -2.26181 10.0984 -21.9036 -6.72402 15.724 -52.2733 14.0658 4.50001zm36.5245 41.5808c-1.13622,6.19253 -1.68071,9.00946 -2.81693,11.2358 0,1.68071 -1.67008,4.51064 -2.8063,5.07875 -2.81811,2.79449 -4.49882,3.3626 -7.30513,3.3626 -2.25,1.68189 -4.49882,0.544489 -7.86143,0 -2.81811,-0.568111 -4.49882,-1.1126 -7.30513,-3.3626 -1.70551,-1.13622 -3.38622,-3.39804 -4.49882,-5.07875 -0.569292,-2.79449 -1.1374,-3.93071 -1.1374,-6.18072 0.568111,-2.23701 1.1374,-6.73702 2.25,-12.3603l2.24882 -8.44135c1.1374,-6.15709 2.25,-8.98702 2.25,-11.8051 1.6937,-2.24882 2.8063,-3.3626 5.05512,-4.4752 1.1374,-2.24882 3.93189,-3.3626 5.63623,-3.94252 2.8063,0 5.60079,0 7.84962,0 2.81811,1.12441 5.62442,1.6937 7.87324,3.94252 2.25,1.1126 3.38622,2.81811 3.93071,4.4752 0.568111,2.81811 2.26181,5.07993 0.568111,7.30513 0,1.70551 -0.568111,5.64804 -1.68071,11.8051l-2.25 8.44135zm-9.55395 -20.2465c1.1126,-2.2252 1.1126,-4.48701 1.1126,-4.48701 0,-1.1126 -0.544489,-1.6689 -1.68071,-1.6689 0,-0.579922 -1.68189,0 -1.68189,0 -1.12441,0.5563 -1.12441,2.24882 -1.12441,4.49882l-6.18072 25.8343c-0.568111,2.82992 -1.13622,4.51064 -1.13622,5.07875 0,1.11378 0.568111,1.68189 1.13622,1.68189 1.68189,0.544489 1.68189,0 2.25,-0.568111 0.568111,-1.11378 1.1126,-2.81811 1.68071,-6.19253l5.62442 -24.1772zm64.0643 -3.3626l-8.98584 53.954 -13.4977 -2.22638 3.94252 -23.0634 -5.62324 -0.5563 -2.81811 22.4835 -14.5984 -1.68071 8.42954 -53.3977 14.6103 1.6937 -2.8063 18.5528 3.9189 0.544489 3.38622 -18.541 14.0421 2.23701zm35.413 33.7323c0,5.62324 -0.568111,9.55395 -0.568111,11.804 0,1.68071 -1.68189,3.94252 -2.79449,6.19135 -1.13622,1.65827 -3.38622,2.79449 -6.19253,3.92008 -1.68071,1.12441 -4.49882,1.68071 -7.87324,1.68071 -2.25,0 -5.61142,-0.5563 -7.86143,-2.23819 -1.6937,-0.568111 -3.94252,-1.70433 -5.05512,-4.49882 -0.569292,-1.68071 -2.25,-3.37441 -2.81811,-5.62324 0,-2.25 0,-6.74883 0,-12.9177l0.568111 -8.98584c0,-5.06812 1.68071,-9.55513 1.68071,-11.2595 0,-2.79449 1.1374,-3.94252 2.25,-6.19253 1.68071,-1.65709 3.37441,-2.79449 5.62442,-4.4752 1.68071,-0.568111 4.49882,-0.568111 7.30513,-0.568111 3.36142,0 5.61142,0.568111 8.42954,1.13622 2.8063,1.65709 3.94252,2.79449 5.05512,3.90709 1.68189,2.82992 2.25,5.07875 2.25,6.76064 0.568111,2.79449 0.568111,6.17954 0,12.3721l0 8.98702zm-13.4858 -17.9729c0,-2.81811 0,-4.49882 -0.568111,-4.49882 0,-1.70551 -0.568111,-1.70551 -1.68071,-1.70551 0,0 -1.6937,0 -1.6937,1.13622 0,0.569292 0,1.68189 0,5.06812l-1.1126 25.8461c0,3.3626 0,4.4752 0,5.61142l1.1126 0.5563c1.6937,0 1.6937,-0.5563 2.26181,-0.5563 0.544489,-1.13622 0.544489,-3.38622 0.544489,-7.29332l1.13622 -24.1642zm22.4717 -14.6221l10.6914 0c6.73702,0 11.2358,0 14.0421,0.568111 1.13622,0 4.49882,1.65709 5.63623,3.3626 2.23701,2.79449 2.23701,6.19253 2.23701,10.6914 0,3.9189 0,6.73702 -0.5563,7.84962 -1.68071,2.24882 -3.38622,2.81811 -6.74883,3.93071 2.25,0 5.06812,1.12441 5.61261,2.26181 1.69252,1.1126 1.69252,2.24882 1.69252,2.24882 0.5563,1.68189 0.5563,3.93071 0.5563,7.87324l0.5563 15.1666 -12.9047 0 -1.13622 -18.5646c0,-2.2252 0,-4.4752 0,-4.4752 -1.11378,-1.13622 -2.25,-1.13622 -4.50001,-1.13622l0.569292 24.176 -14.0421 0.557481 -1.70551 -54.5103zm15.1784 9.55395l0 11.2358c1.68189,0 2.81811,0 3.38622,-1.12441 1.11378,0 1.11378,-1.12441 1.11378,-3.93071l0 -2.25c0,-2.24882 0,-3.36142 -1.11378,-3.36142 -0.568111,-0.569292 -1.70433,-0.569292 -3.38622,-0.569292zm38.7875 -11.8158l5.06694 54.5103 -14.054 0.568111 -5.05512 -53.954 14.0421 -1.12441zm32.0268 -5.06694l1.13622 10.6914 -4.51064 34.2874 9.56576 -2.26181 1.68189 11.2477 -25.8461 3.95434 -0.568111 -6.75946 4.48701 -37.6512 -10.1114 1.6937 -1.1126 -11.2477 25.278 -3.95434zm43.8544 23.0634c1.12441,5.62442 2.23701,9.55513 2.23701,11.7921 0.568111,2.25 0,5.06812 -1.1126,6.76064 -0.568111,2.25 -2.26181,3.93071 -4.51064,6.18072 -1.68189,1.1126 -4.50001,1.68071 -7.30513,2.2252 -2.25,1.1374 -5.04449,1.1374 -7.86261,1.1374 -2.26063,-1.1374 -4.48701,-2.25 -6.19135,-3.3626 -1.68189,-2.25 -2.8063,-3.38622 -3.3626,-6.18072 -0.5563,-1.69252 -2.25,-5.62324 -3.37441,-11.8158l-1.1126 -8.44135c-1.70551,-5.61261 -2.25,-9.55513 -2.81811,-11.8051 0,-2.2252 0.568111,-3.90709 1.1126,-6.15591 1.70551,-1.6937 2.81811,-3.94252 4.49882,-5.62442 2.25,-1.13622 3.94252,-2.81811 6.76064,-2.81811 3.3626,-1.12441 6.16891,-1.12441 9.55513,-0.544489 1.68071,0.544489 3.93071,1.11378 5.59961,3.3626 1.1374,1.1126 2.81811,2.81811 3.38622,5.04449 0.568111,2.24882 1.11378,6.19135 3.3626,11.8158l1.1374 8.42954zm-16.8721 -13.5095c-1.12441,-2.79331 -1.12441,-4.48701 -1.68189,-4.48701 -1.12441,-1.6689 -1.12441,-1.6689 -1.69252,-1.6689 -0.568111,0 -1.68071,1.6689 -1.68071,1.6689 0,0.579922 0,2.26181 1.1126,4.48701l5.07875 25.3016c0.544489,3.38622 0.544489,5.06812 2.25,5.63623 0,0.544489 0.544489,0.544489 1.1126,0.544489 0.568111,0 1.1126,-0.544489 1.68189,-1.1126 0,-1.68189 -0.569292,-2.81811 -1.11378,-6.19253l-5.06694 -24.1772zm47.7851 -27.5268l15.7229 51.704 -11.804 3.37441 -14.6103 -21.9036 7.30513 23.6079 -11.2358 3.90709 -16.291 -52.2721 11.7921 -2.79449 14.6221 19.6784 -6.76064 -23.0516 11.2595 -2.25zm35.9693 -12.9177l2.80512 9.55513 -7.87324 3.3626 14.6221 41.0363 -12.3721 5.05512 -15.1784 -41.5926 -8.41891 3.37441 -3.38504 -9.55513 29.8004 -11.2358zm5.62324 -2.26063l21.3355 -10.1114 5.07875 10.1114 -8.44135 2.82992 3.3626 10.6665 9.00946 -4.49882 3.3626 10.1232 -8.41773 2.81811 5.05512 11.804 8.98702 -3.95434 5.06694 10.1232 -23.0634 8.98584 -21.3355 -48.8977z"/>
 </g>
</g>
</svg>
