<svg height="1000" width="2000" xmlns="http://www.w3.org/2000/svg"><path d="m2000 0v1000h-2000v-1000" fill="#ce1126" fill-rule="evenodd"/><path d="m0 .000427h999.99951v499.99945h-999.99951z" fill="#002369" fill-rule="evenodd"/><path d="m0 0v55.90168l888.19668 444.09832h111.80332v-55.90168l-888.19667-444.09832zm1000 0v55.90084l-888.19667 444.09916h-111.80333v-55.90336l888.19668-444.09664z" fill="#fff"/><path d="m416.66668 0v500h166.66664v-500zm-416.66668 166.66668v166.66664h1000v-166.66664z" fill="#fff"/><path d="m0 200v100h1000v-100zm449.99998-200v500h100.00002v-500z" fill="#ce1126"/><path d="m0 500 333.33334-166.66668h74.535l-333.332674 166.66668zm0-500 333.33334 166.66668h-74.535l-258.79834-129.39884zm592.13168 166.66668 333.33332-166.66668h74.535l-333.33332 166.66668zm407.86832 333.33332-333.33332-166.66668h74.53498l258.79834 129.39834z" fill="#ce1126"/><g fill-rule="evenodd"><g transform="matrix(3.587797 0 0 3.587797 -100.07623 -55.85204)"><g transform="matrix(1.0127 0 0 1 -107.165637 -19.799)"><path d="m503.31 169.47s.1414 27.49833 0 37c-.74908 23.0404 8.51066 28.52079 33.5 28.11583 3.71282.14028 8.75705 1.87183 13.48588 4.39011l.23412-69.50594z" fill="#f4c600"/><path d="m503.30362 192.99166s5.75638-2.94166 11.67638-2.94166c5.93 0 5.93 2.59 11.85 2.59 5.93 0 5.93-2.59 11.85-2.59 5.93 0 11.85 2.59 11.85 2.59v22.82s-5.92-2.59-11.85-2.59c-5.92 0-5.92 2.59-11.85 2.59-5.92 0-5.92-2.59-11.85-2.59-5.92 0-11.30276 2.63051-11.30276 2.63051-.58923-1.36133-.24908-15.0059-.37362-22.50885z" fill="#002369" stroke="#000" stroke-width=".498545"/></g><g stroke="#000"><g stroke-width=".12" transform="matrix(.59060664 0 0 .6915 90.931648 187.354)"><g fill="#ccc" transform="translate(-3.4471 4.4194)"><path d="m580.98-13.955c-12.29-4.95-30.41-4.066-32.27-3.801-1.85.265-9.72 6.364-9.72 6.364l3.54 1.6792c-2.3 1.1491-3.98.9723-3.98.9723s22.89 7.3362 29.79 7.1595c6.89-.1768 19.8-3.8891 21.92-4.0659s4.51.5303 6.63 1.2374 5.3 1.5026 6.1 2.6517c.79 1.14903.17 2.56324.79 1.14903.62-1.41423-.18-5.21493-1.41-6.09883-1.24-.8838-2.66-1.6793-2.66-1.6793s-2.29 1.5026 0 0c2.3-1.5026 4.51-3.6241 4.42-4.9501-.08-1.326-1.41-3.977-1.41-3.977s.8-1.68 0 0c-.8 1.679-2.92 3.27-4.68 3.977-1.77.707-7.69 1.503-9.02 1.238s-7.95-1.68-8.04-1.856z"/><path d="m567.01-16.077c5.3-2.828 8.49-2.828 9.46-2.651.97.176.62 1.325-.18 1.591-.79.265-3.18 1.856-3.18 1.856"/><path d="m565.33-2.5533c2.21.9723 3.27 2.74003 3.27 2.74003s-.53 1.23747 0 0c.53-1.23743-.17-3.27033-.17-3.27033"/><path d="m579.74-5.9854c3.09 3.5206 7.25 3.5206 7.25 3.5206s0 .9601 0 0c0-.9602-.89-1.7069-1.42-3.0938"/><path d="m581.95-12.63c2.83-.176 6.72-2.209 6.72-2.209.97 1.149-.36 3.8-.36 3.8"/></g><path d="m541.82-9.2708c0 .2846-.13.5479-.35.6904s-.49.1425-.71 0-.35-.4058-.35-.6904c0-.2847.13-.5479.35-.6904.22-.1428.49-.1428.71 0 .22.1425.35.4057.35.6904z" fill="#232323" transform="translate(.4419 .2652)"/><path d="m544.56-13.16c2.48 2.475 2.3 7.0712 1.95 7.5131-.36.4419-.98 1.2374-.98 1.2374 1.68-.1767 2.48-1.0606 2.74-1.9445.27-.8839-.26-4.861-.62-5.568-.35-.708-.61-1.591-.61-1.591" fill="none"/></g><g transform="matrix(.4217 0 0 .4868 280.46 182.94)"><g stroke-width=".12"><g transform="translate(0 .1424)"><path d="m318.55-33.666c-2.38-1.856-2.92 1.414-2.92 1.414s1.6 3.889 0 0c-1.59-3.889-2.65-2.121-2.65-2.121l-.26 1.591-.27-2.475s.98-.442 0 0c-.97.442-1.5 2.121-1.5 2.121v-2.298s2.3-.884 0 0-8.04-2.917-8.04-2.917-2.12-.883 0 0c2.12.884 4.33.354 3.89-.53-.45-.884-.62-.265-2.92-1.061-2.3-.795-5.04-4.419-3.71-3.8 1.32.618 3.97 1.679 4.15.795s.62-.707-1.68-2.209c-2.3-1.503-3.89-2.475-3.89-2.475 1.86 0 2.3-2.033 2.3-2.033-.79-3.271-3-4.42-3-4.42s-2.04-.353 0 0c2.03.354 3.27 2.829 4.33 3.536s.44-1.326 1.23-1.061c.8.265 1.59 2.121 1.86 2.829.27.707-.35.707.44 1.237.8.53 2.12-.619 1.95-1.591-.18-.972-1.68-2.121-.62-1.503 1.06.619 2.38 2.564 2.47 3.448.09.883-.09 1.767.53 2.298.62.53.8-.177.89-.884s-.8-2.21-.8-2.21-.97-.353 0 0c.97.354 1.95 2.121 2.21 3.182.27 1.061-.09 2.563.27 3.182.35.619 1.68.796 1.59-.088s.7-2.21.7-2.21-.17 2.298 0 3.535c.18 1.238 1.68 3.978 2.57 4.066.88.089 1.06 2.74.88 2.652z" fill="#006939"/><g fill="none"><path d="m318.29-34.815c-4.25-.53-4.51-1.856-6.1-3.624s-9.37-9.811-9.37-9.811"/><path d="m307.68-43.212.8-4.066"/><path d="m309.18-41.444-5.3-.089"/><path d="m312.45-37.997-3.97.53"/></g></g><g transform="matrix(-1 0 0 1 637.57 .1424)"><path d="m318.55-33.666c-2.38-1.856-2.92 1.414-2.92 1.414s1.6 3.889 0 0c-1.59-3.889-2.65-2.121-2.65-2.121l-.26 1.591-.27-2.475s.98-.442 0 0c-.97.442-1.5 2.121-1.5 2.121v-2.298s2.3-.884 0 0-8.04-2.917-8.04-2.917-2.12-.883 0 0c2.12.884 4.33.354 3.89-.53-.45-.884-.62-.265-2.92-1.061-2.3-.795-5.04-4.419-3.71-3.8 1.32.618 3.97 1.679 4.15.795s.62-.707-1.68-2.209c-2.3-1.503-3.89-2.475-3.89-2.475 1.86 0 2.3-2.033 2.3-2.033-.79-3.271-3-4.42-3-4.42s-2.04-.353 0 0c2.03.354 3.27 2.829 4.33 3.536s.44-1.326 1.23-1.061c.8.265 1.59 2.121 1.86 2.829.27.707-.35.707.44 1.237.8.53 2.12-.619 1.95-1.591-.18-.972-1.68-2.121-.62-1.503 1.06.619 2.38 2.564 2.47 3.448.09.883-.09 1.767.53 2.298.62.53.8-.177.89-.884s-.8-2.21-.8-2.21-.97-.353 0 0c.97.354 1.95 2.121 2.21 3.182.27 1.061-.09 2.563.27 3.182.35.619 1.68.796 1.59-.088s.7-2.21.7-2.21-.17 2.298 0 3.535c.18 1.238 1.68 3.978 2.57 4.066.88.089 1.06 2.74.88 2.652z" fill="#006939"/><g fill="none"><path d="m318.29-34.815c-4.25-.53-4.51-1.856-6.1-3.624s-9.37-9.811-9.37-9.811"/><path d="m307.68-43.212.8-4.066"/><path d="m309.18-41.444-5.3-.089"/><path d="m312.45-37.997-3.97.53"/></g></g><path d="m318.20999-47.455002h1.149v18.915001h-1.149z" fill="#006939"/></g><g stroke-width=".06"><path d="m310.69-61.406 4.69 8.562.43.188 3 .562.1.031v-.031l3-.562.43-.188 4.69-8.562c-3.05-3.05-8.15-3.188-8.15-3.188s-5.62.615-8.19 3.188z" fill="#a034b0"/><g fill="none"><g transform="translate(.121)"><path d="m310.95-61.619 5.2 9.01"/><path d="m311.61-62.104 5.27 9.715"/><path d="m312.27-62.591 5.27 10.429"/><path d="m313.12-63.077 4.77 10.96"/><path d="m314.04-63.519 3.94 11.535"/><path d="m315.05-63.828 3.29 12.152"/><path d="m316.08-64.182 2.69 12.905"/><path d="m317.4-64.403 1.51 12.949"/><g transform="matrix(-1 0 0 1 637.32 0)"><path d="m310.95-61.619 5.2 9.01"/><path d="m311.61-62.104 5.27 9.715"/><path d="m312.27-62.591 5.27 10.429"/><path d="m313.12-63.077 4.77 10.96"/><path d="m314.04-63.519 3.94 11.535"/><path d="m315.05-63.828 3.29 12.152"/><path d="m316.08-64.182 2.69 12.905"/><path d="m317.4-64.403 1.51 12.949"/></g></g><path d="m318.73-64.69v12.315"/></g></g><g fill="#006939"><path d="m324.65-49.841c0 3.075-2.49 5.568-5.57 5.568-3.07 0-5.57-2.493-5.57-5.568s2.5-5.569 5.57-5.569c3.08 0 5.57 2.494 5.57 5.569z" stroke-width=".12" transform="translate(-.2989 -.5303)"/><g stroke-width=".06" transform="translate(-.2326)"><path d="m315.75-51.625-3.37-2.125 3.62 1.688"/><path d="m316.06-48.937-3 2.687 3.38-2"/><g transform="matrix(-1 0 0 1 638.03 0)"><path d="m315.75-51.625-3.37-2.125 3.62 1.688"/><path d="m316.06-48.937-3 2.687 3.38-2"/></g></g></g></g><g transform="matrix(.4217 0 0 .4866 303.42 182.94)"><g stroke-width=".12"><g transform="translate(0 .1424)"><path d="m318.55-33.666c-2.38-1.856-2.92 1.414-2.92 1.414s1.6 3.889 0 0c-1.59-3.889-2.65-2.121-2.65-2.121l-.26 1.591-.27-2.475s.98-.442 0 0c-.97.442-1.5 2.121-1.5 2.121v-2.298s2.3-.884 0 0-8.04-2.917-8.04-2.917-2.12-.883 0 0c2.12.884 4.33.354 3.89-.53-.45-.884-.62-.265-2.92-1.061-2.3-.795-5.04-4.419-3.71-3.8 1.32.618 3.97 1.679 4.15.795s.62-.707-1.68-2.209c-2.3-1.503-3.89-2.475-3.89-2.475 1.86 0 2.3-2.033 2.3-2.033-.79-3.271-3-4.42-3-4.42s-2.04-.353 0 0c2.03.354 3.27 2.829 4.33 3.536s.44-1.326 1.23-1.061c.8.265 1.59 2.121 1.86 2.829.27.707-.35.707.44 1.237.8.53 2.12-.619 1.95-1.591-.18-.972-1.68-2.121-.62-1.503 1.06.619 2.38 2.564 2.47 3.448.09.883-.09 1.767.53 2.298.62.53.8-.177.89-.884s-.8-2.21-.8-2.21-.97-.353 0 0c.97.354 1.95 2.121 2.21 3.182.27 1.061-.09 2.563.27 3.182.35.619 1.68.796 1.59-.088s.7-2.21.7-2.21-.17 2.298 0 3.535c.18 1.238 1.68 3.978 2.57 4.066.88.089 1.06 2.74.88 2.652z" fill="#006939"/><g fill="none"><path d="m318.29-34.815c-4.25-.53-4.51-1.856-6.1-3.624s-9.37-9.811-9.37-9.811"/><path d="m307.68-43.212.8-4.066"/><path d="m309.18-41.444-5.3-.089"/><path d="m312.45-37.997-3.97.53"/></g></g><g transform="matrix(-1 0 0 1 637.57 .1424)"><path d="m318.55-33.666c-2.38-1.856-2.92 1.414-2.92 1.414s1.6 3.889 0 0c-1.59-3.889-2.65-2.121-2.65-2.121l-.26 1.591-.27-2.475s.98-.442 0 0c-.97.442-1.5 2.121-1.5 2.121v-2.298s2.3-.884 0 0-8.04-2.917-8.04-2.917-2.12-.883 0 0c2.12.884 4.33.354 3.89-.53-.45-.884-.62-.265-2.92-1.061-2.3-.795-5.04-4.419-3.71-3.8 1.32.618 3.97 1.679 4.15.795s.62-.707-1.68-2.209c-2.3-1.503-3.89-2.475-3.89-2.475 1.86 0 2.3-2.033 2.3-2.033-.79-3.271-3-4.42-3-4.42s-2.04-.353 0 0c2.03.354 3.27 2.829 4.33 3.536s.44-1.326 1.23-1.061c.8.265 1.59 2.121 1.86 2.829.27.707-.35.707.44 1.237.8.53 2.12-.619 1.95-1.591-.18-.972-1.68-2.121-.62-1.503 1.06.619 2.38 2.564 2.47 3.448.09.883-.09 1.767.53 2.298.62.53.8-.177.89-.884s-.8-2.21-.8-2.21-.97-.353 0 0c.97.354 1.95 2.121 2.21 3.182.27 1.061-.09 2.563.27 3.182.35.619 1.68.796 1.59-.088s.7-2.21.7-2.21-.17 2.298 0 3.535c.18 1.238 1.68 3.978 2.57 4.066.88.089 1.06 2.74.88 2.652z" fill="#006939"/><g fill="none"><path d="m318.29-34.815c-4.25-.53-4.51-1.856-6.1-3.624s-9.37-9.811-9.37-9.811"/><path d="m307.68-43.212.8-4.066"/><path d="m309.18-41.444-5.3-.089"/><path d="m312.45-37.997-3.97.53"/></g></g><path d="m318.20999-47.455002h1.149v18.915001h-1.149z" fill="#006939"/></g><g stroke-width=".06"><path d="m310.69-61.406 4.69 8.562.43.188 3 .562.1.031v-.031l3-.562.43-.188 4.69-8.562c-3.05-3.05-8.15-3.188-8.15-3.188s-5.62.615-8.19 3.188z" fill="#a034b0"/><g fill="none"><g transform="translate(.121)"><path d="m310.95-61.619 5.2 9.01"/><path d="m311.61-62.104 5.27 9.715"/><path d="m312.27-62.591 5.27 10.429"/><path d="m313.12-63.077 4.77 10.96"/><path d="m314.04-63.519 3.94 11.535"/><path d="m315.05-63.828 3.29 12.152"/><path d="m316.08-64.182 2.69 12.905"/><path d="m317.4-64.403 1.51 12.949"/><g transform="matrix(-1 0 0 1 637.32 0)"><path d="m310.95-61.619 5.2 9.01"/><path d="m311.61-62.104 5.27 9.715"/><path d="m312.27-62.591 5.27 10.429"/><path d="m313.12-63.077 4.77 10.96"/><path d="m314.04-63.519 3.94 11.535"/><path d="m315.05-63.828 3.29 12.152"/><path d="m316.08-64.182 2.69 12.905"/><path d="m317.4-64.403 1.51 12.949"/></g></g><path d="m318.73-64.69v12.315"/></g></g><g fill="#006939"><path d="m324.65-49.841c0 3.075-2.49 5.568-5.57 5.568-3.07 0-5.57-2.493-5.57-5.568s2.5-5.569 5.57-5.569c3.08 0 5.57 2.494 5.57 5.569z" stroke-width=".12" transform="translate(-.2989 -.5303)"/><g stroke-width=".06" transform="translate(-.2326)"><path d="m315.75-51.625-3.37-2.125 3.62 1.688"/><path d="m316.06-48.937-3 2.687 3.38-2"/><g transform="matrix(-1 0 0 1 638.03 0)"><path d="m315.75-51.625-3.37-2.125 3.62 1.688"/><path d="m316.06-48.937-3 2.687 3.38-2"/></g></g></g></g><g transform="matrix(.5907 0 0 .5304 39.198 181.86)"><g stroke-width=".12" transform="matrix(1.71907355 0 0 1.21173428 107.472058 93.01046)"><path d="m318.55-33.666c-2.38-1.856-2.92 1.414-2.92 1.414s1.6 3.889 0 0c-1.59-3.889-2.65-2.121-2.65-2.121l-.26 1.591-.27-2.475s.98-.442 0 0c-.97.442-1.5 2.121-1.5 2.121v-2.298s2.3-.884 0 0-8.04-2.917-8.04-2.917-2.12-.883 0 0c2.12.884 4.33.354 3.89-.53-.45-.884-.62-.265-2.92-1.061-2.3-.795-5.04-4.419-3.71-3.8 1.32.618 3.97 1.679 4.15.795s.62-.707-1.68-2.209c-2.3-1.503-3.89-2.475-3.89-2.475 1.86 0 2.3-2.033 2.3-2.033-.79-3.271-3-4.42-3-4.42s-2.04-.353 0 0c2.03.354 3.27 2.829 4.33 3.536s.44-1.326 1.23-1.061c.8.265 1.59 2.121 1.86 2.829.27.707-.35.707.44 1.237.8.53 2.12-.619 1.95-1.591-.18-.972-1.68-2.121-.62-1.503 1.06.619 2.38 2.564 2.47 3.448.09.883-.09 1.767.53 2.298.62.53.8-.177.89-.884s-.8-2.21-.8-2.21-.97-.353 0 0c.97.354 1.95 2.121 2.21 3.182.27 1.061-.09 2.563.27 3.182.35.619 1.68.796 1.59-.088s.7-2.21.7-2.21-.17 2.298 0 3.535c.18 1.238 1.68 3.978 2.57 4.066.88.089 1.06 2.74.88 2.652z" fill="#006939"/><g fill="none"><path d="m318.29-34.815c-4.25-.53-4.51-1.856-6.1-3.624s-9.37-9.811-9.37-9.811"/><path d="m307.68-43.212.8-4.066"/><path d="m309.18-41.444-5.3-.089"/><path d="m312.45-37.997-3.97.53"/></g></g><g stroke-width=".12" transform="matrix(-1.71907355 0 0 1.21173428 1203.54248 93.01046)"><path d="m318.55-33.666c-2.38-1.856-2.92 1.414-2.92 1.414s1.6 3.889 0 0c-1.59-3.889-2.65-2.121-2.65-2.121l-.26 1.591-.27-2.475s.98-.442 0 0c-.97.442-1.5 2.121-1.5 2.121v-2.298s2.3-.884 0 0-8.04-2.917-8.04-2.917-2.12-.883 0 0c2.12.884 4.33.354 3.89-.53-.45-.884-.62-.265-2.92-1.061-2.3-.795-5.04-4.419-3.71-3.8 1.32.618 3.97 1.679 4.15.795s.62-.707-1.68-2.209c-2.3-1.503-3.89-2.475-3.89-2.475 1.86 0 2.3-2.033 2.3-2.033-.79-3.271-3-4.42-3-4.42s-2.04-.353 0 0c2.03.354 3.27 2.829 4.33 3.536s.44-1.326 1.23-1.061c.8.265 1.59 2.121 1.86 2.829.27.707-.35.707.44 1.237.8.53 2.12-.619 1.95-1.591-.18-.972-1.68-2.121-.62-1.503 1.06.619 2.38 2.564 2.47 3.448.09.883-.09 1.767.53 2.298.62.53.8-.177.89-.884s-.8-2.21-.8-2.21-.97-.353 0 0c.97.354 1.95 2.121 2.21 3.182.27 1.061-.09 2.563.27 3.182.35.619 1.68.796 1.59-.088s.7-2.21.7-2.21-.17 2.298 0 3.535c.18 1.238 1.68 3.978 2.57 4.066.88.089 1.06 2.74.88 2.652z" fill="#006939"/><g fill="none"><path d="m318.29-34.815c-4.25-.53-4.51-1.856-6.1-3.624s-9.37-9.811-9.37-9.811"/><path d="m307.68-43.212.8-4.066"/><path d="m309.18-41.444-5.3-.089"/><path d="m312.45-37.997-3.97.53"/></g></g><path d="m654.65002 40.181999h1.6713v17.591999h-1.6713z" fill="#006939" stroke-width=".138"/><g stroke-width=".06" transform="matrix(.9505 0 0 .9505 352.4 88.83)"><path d="m310.69-61.406 4.69 8.562.43.188 3 .562.1.031v-.031l3-.562.43-.188 4.69-8.562c-3.05-3.05-8.15-3.188-8.15-3.188s-5.62.615-8.19 3.188z" fill="#a034b0"/><g fill="none"><g transform="translate(.121)"><path d="m310.95-61.619 5.2 9.01"/><path d="m311.61-62.104 5.27 9.715"/><path d="m312.27-62.591 5.27 10.429"/><path d="m313.12-63.077 4.77 10.96"/><path d="m314.04-63.519 3.94 11.535"/><path d="m315.05-63.828 3.29 12.152"/><path d="m316.08-64.182 2.69 12.905"/><path d="m317.4-64.403 1.51 12.949"/><g transform="matrix(-1 0 0 1 637.32 0)"><path d="m310.95-61.619 5.2 9.01"/><path d="m311.61-62.104 5.27 9.715"/><path d="m312.27-62.591 5.27 10.429"/><path d="m313.12-63.077 4.77 10.96"/><path d="m314.04-63.519 3.94 11.535"/><path d="m315.05-63.828 3.29 12.152"/><path d="m316.08-64.182 2.69 12.905"/><path d="m317.4-64.403 1.51 12.949"/></g></g><path d="m318.73-64.69v12.315"/></g></g><g fill="#006939"><path d="m324.65-49.841c0 3.075-2.49 5.568-5.57 5.568-3.07 0-5.57-2.493-5.57-5.568s2.5-5.569 5.57-5.569c3.08 0 5.57 2.494 5.57 5.569z" stroke-width=".12" transform="matrix(.9505 0 0 .9505 352.11 88.326)"/><g stroke-width=".06" transform="matrix(.9505 0 0 .9505 352.18 88.83)"><path d="m315.75-51.625-3.37-2.125 3.62 1.688"/><path d="m316.06-48.937-3 2.687 3.38-2"/><g transform="matrix(-1 0 0 1 638.03 0)"><path d="m315.75-51.625-3.37-2.125 3.62 1.688"/><path d="m316.06-48.937-3 2.687 3.38-2"/></g></g></g></g></g></g><path d="m1344.1378 233.42487h171.20012v249.00746h-171.20012z" fill="#006939"/><path d="m1313.5893 233.42486h201.8605l-1.0038 83.4127-170.6651.89998c4.2332-53.72348-12.3023-70.9268-30.1916-84.31268z" fill="#fff"/><path d="m1340.928 267.2812c1.5509 4.64634 3.143 10.77068 2.878 15.444h174.5927v-15.444z" fill="#ce1126"/><path d="m1777.5 300.06v200.1h45v-200.1z" fill="#ce1126" transform="matrix(.34321344 0 0 .41382978 812.87878 109.42578)"/><g fill="#f4c600"><g transform="matrix(.3689769 0 0 .4402227 766.17056 90.93909)"><path d="m1835.5 635.98v5.29l-29.7-17.11v237.06l-5.8-.04-5.8.04v-237.06l-29.7 17.11.1-5.29-19.9-1.73 8.4-18.03-4.6-2.62 14.8-8.55-33.9-19.54 5.3-2.99-9.7-20.61 22.8-1.97-.1-6.05 34 19.55v-39.07l5.2 3.05 13.1-18.64 13.1 18.64 5.2-3.05v39.07l34-19.55-.1 6.05 22.8 1.97-9.7 20.61 5.3 2.99-33.9 19.54 14.8 8.55-4.6 2.62 8.4 18.03z"/><path d="m1920.5 679.49-10.1-5.79-34.2-.04 2.6-4.56-16.3-11.44 16.3-11.4-2.7-4.56 17.2.01-19.7-33.88 6.1.04 2-22.67 20.6 9.65 3-5.26 19.6 33.9 19.5-33.84 3 5.26 20.7-9.58 2.1 22.7 6-.03-19.5 33.84 39.1.03-3 5.22 18.7 13.06-18.7 13.03 3.1 5.22-39.2-.04 8.6 14.83-5.3-.04-1.7 19.84-18.1-8.44-2.6 4.59z"/><path d="m1679.6 679.18 10-5.8 34.2-.03-2.6-4.57 16.3-11.43-16.3-11.4 2.7-4.57-17.2.02 19.7-33.89-6.1.05-2-22.68-20.6 9.65-3-5.25-19.6 33.9-19.5-33.85-3 5.27-20.7-9.59-2.1 22.71-6-.03 19.5 33.84-39.1.03 3 5.22-18.7 13.06 18.7 13.03-3.1 5.22 39.2-.04-8.6 14.83 5.3-.04 1.7 19.84 18.1-8.45 2.6 4.6z"/><g stroke="#f7d300" stroke-linecap="round" stroke-linejoin="round" stroke-width="1.2"><path d="m1841.85 613.465-24.06.057 11.97 20.001"/><path d="m1757.89 613.541 24.06.058-11.97 20.001"/></g></g><path d="m1430.4028 439.69232c16.7515-13.78778 32.3592-32.2023 43.8344-53.18772" stroke="#f4c600" stroke-width="2.659988"/><path d="m1430.4397 439.69232c-16.7885-13.78778-32.3962-32.2023-43.8714-53.18772" stroke="#f4c600" stroke-width="2.659988"/><path d="m1514.8594 561.48994v169.02038h.6817c6.0633-3.18164 27.9489-14.19228 48.6505-14.19228 118.8637 0 120.2988-43.7923 120.2988-99.0957 0-9.83092 0-37.92948 0-55.7324z"/></g><path d="m1566.0931 606.39044c-.1794-1.1082.2153-2.5739-.072-3.03864l-3.7672-9.83092c-2.332.57198-2.7626-2.60966-.8252-3.50338 1.5428-.32174 20.4146-4.25412 20.4146-4.25412 4.2695-2.6454 8.6107-5.25508 12.9161-7.86474-.287-.71496-.897-2.25216-.8252-2.25216 1.1481-.75074 2.4397-1.28696 3.9824-1.39422 0 0 .5741 1.93044.5741 1.8947 0 0 .7893-.1788.8252-.143-.036.0716-.2512-2.10918-.2512-2.32368 1.3275-.50048 3.5161-.35748 4.7718-.0716 0 0-.2153 2.35944-.2511 2.35944.2152.0714.7534.1788.7534.1788.036 0 .4664-1.85894.4664-1.8947 1.3634 0 3.229.67924 4.3412 1.35846l-.4664 1.17972s5.8123 1.93042 5.7405 2.03768l29.2406-6.4348c.7893-.1788 1.2557.1072 1.4351.96522.3229 1.35846-1.3634 2.25218-3.9107 2.75266-2.7626 9.61644-6.8527 19.59036-11.3733 28.8493 4.1259 4.93334 25.6168 16.65894 25.6168 16.65894h21.3115c1.1123 0 2.655 1.3227 2.655 2.8599.6099.25024 1.3634.143 1.7939.96522.1436 1.71594-1.6504 1.3227-2.4038 2.28792-.8611 1.78744-2.368 3.46764-3.4443 5.04058v1.10822c1.0763.32174 2.7626-.21448 3.1573 1.21546 0 .50048-.036 1.00096-.5023 1.3227-.3947.0716-1.0405-.1788-1.1122.5005.3587 1.21546-.6459 1.85894-1.1481 2.75266-1.5787.28598-1.1123 1.85892-1.1123 1.85892.1794 1.85894.5023 4.00388.036 5.79132h-1.9374v-6.93528c-.072 0-.9687.0358-1.5427 0 0 0 0 6.86378-.036 6.93528l-2.5832 2.89564c-.5741 4.64736 1.5427 11.15364-2.942 13.33432-1.1122.42898-2.0092.42898-3.1932-.57198-.861-.89372-1.2916-2.35942-.6817-3.57488.5023-1.21546 1.8298-1.6802 3.0497-1.78744-.1794-1.03672-1.3275-.64348-1.9733-.96522l.1794-1.32272c2.4397-4.54008 5.274-9.86666 6.3863-14.943h-1.2917c-.8969 3.93238-2.619 7.829-4.7358 11.26088.6458-3.11014 1.0045-7.50724.6099-11.26088h-1.2557c1.1122 14.44252-5.2024 23.91596-13.4902 28.95654 0 0-1.6862.67924-5.0946.67924-1.2199 0-21.778 0-21.8856 0l-1.6863-4.9691h24.9711c4.8435 0 15.6069-9.15168 12.1268-24.66668.072 0-.7176 0-1.0764 0 2.9779 14.44252-6.745 23.27248-12.1626 23.27248h-22.8543c-.8252-.67922.3588-1.42996.1436-2.96714h22.065c3.7672 0 11.7321-6.89952 8.6107-20.30534.036.0358-1.3634 0-1.2916 0 3.0137 9.79518-3.0497 19.30436-8.4672 18.91112-1.2916 0-21.2039 0-21.2039 0-.9328-1.57294-2.6191-2.35942-4.8077-2.00192-1.0045.32174-2.1168.82222-2.5114 2.00192h-3.4802c-.9328-1.4657-2.8343-2.5739-5.0229-2.00192-.9328.32174-2.045.82222-2.4397 2.00192 0 0-2.5115-.0358-3.8031.0358-.8969-1.5372-2.8343-2.60966-4.987-2.03768-.9687.32174-2.0809.82222-2.4756 2.00192-.9687-.0716-2.4756-.0716-2.4756-.0716-.2511-.143-.6458-1.00096-.8969-1.1797-1.4351-1.10822-3.9825-1.2512-5.1306-.42898-.9687.67922-1.2916 1.3227-1.2198 1.64444-10.1176-.25024-21.5985 1.4657-26.5497-9.04446-1.5786-3.46762-1.9374-7.61448-1.5069-11.9401 0 .0358-1.3275-.0358-1.3275-.0358-.6816 8.54396 1.2558 15.55074 7.4627 19.37586 6.171 3.82512 13.3107 2.82414 21.5626 3.0744-.072 1.75168 1.0763 2.60966 1.5786 3.0029 0 .0358-9.4359.0714-9.4359 0-5.884-.1788-12.8443-.75074-16.9702-2.89566-7.1756-4.57586-10.1894-13.26282-9.5436-22.52176 0-.0358-.8611.0358-1.2916-.0358-.5023 9.47344 2.0451 18.55364 9.6153 23.66572 4.2695 2.53816 11.4092 3.03864 17.6878 3.14588-.036 0 11.6245 0 11.6245 0 .4664 1.5372 1.184 4.9691 1.2557 4.9691-.072-.0358-14.7817-.0358-14.7817-.0358-8.3596-.0358-16.9703-1.14396-22.8901-7.97198-5.5611-6.3633-8.1085-15.33624-7.7497-23.73722 0-.0358-1.3992 0-1.3633-.0358-.2871 12.1546 4.3771 24.1662 14.5664 29.77876 7.3909 3.46764 12.4497 2.89566 19.4459 3.18164l13.0596-.0358 1.0763 4.28984c-17.4008 3.93238-30.4963 2.32368-40.1475-10.0454-6.2786-8.11498-11.3733-17.44542-15.3916-27.27634-.9687-.1072-2.0809.21448-2.655-1.07248-.036-1.71594-1.9015-2.39516-2.0091-3.78936 2.332 0 .8252-2.46668.5023-3.2174-1.2558-2.43092-3.3367-4.3256-5.7405-5.11208-.6458-.1072-.5023-1.5372 0-1.50144 2.5473-.39324 3.7672-3.64638 6.1351-3.32464h22.1367z" stroke="#000" stroke-width=".085952"/><g fill="#f4c600" stroke="#f4c600"><path d="m1602.5451 576.93342c.9329-.0714 2.5833.429 2.5833.46474l.3946-1.57294 1.758.50048-1.1481 2.96716c-2.6908-.96522-6.4939-.92948-9.1488.0358l-1.2199-2.89566c.4305-.25024 1.2199-.53622 1.6145-.60772-.036 0 .5741 1.5372.5741 1.5372.8252-.25024 2.332-.429 2.3679-.429l-.1076-2.00192c.5741-.143 1.9015-.143 2.368 0 0 .67922-.036 2.00192-.036 2.00192z" stroke-width=".085952"/><path d="m1639.5353 576.43294c-2.6908 9.50918-6.458 18.87538-10.8351 27.56234 0 0-4.0901-4.00386-5.4535-6.0058 2.8703-7.65024 7.2474-14.22802 13.4543-20.8773-.072 0 2.045-.57198 2.8343-.67924z" stroke-width=".085952"/><path d="m1009.6 484.21 31.5 8.12-37.5 7.63z" stroke-width=".54" transform="matrix(.15152702 0 0 .16715072 1455.3019 496.82034)"/></g><g stroke-width=".085952"><g fill="#f4c600" stroke="#f4c600"><path d="m1632.7544 578.0059c-3.7672 1.3942-8.9336 5.36232-13.0955 2.82414-.072-.1072 13.0955-2.8599 13.0955-2.82414z"/><path d="m1603.0474 581.29478v-.75072c1.0046 0 2.1527.1072 2.4397.28598-.5023.1788-2.4397.46474-2.4397.46474z"/><path d="m1615.8917 581.79526c-3.1931 3.18166-7.9649 4.8261-12.0908 2.85992 0-.0358 12.0908-2.89566 12.0908-2.85992z"/><path d="m1600.3207 585.29866c-1.2198 3.03864-4.8076 4.3971-7.2115 4.57584-2.0809.1788-3.7313-.75072-4.987-2.14494 4.0901-.71496 8.1084-1.78744 12.1985-2.4309z"/><path d="m1576.713 592.9489c-2.0809.32174-4.1977-.39324-5.8481-1.3942l12.5214-2.89566c-1.2198 2.75266-4.126 3.71788-6.6733 4.28986z"/><path d="m1566.2366 601.6001c-1.0404-2.89564-2.0809-5.5768-3.229-8.32946l4.7359-1.17972c-.7176 2.32368-1.2198 6.18454-1.5069 9.50918z"/><path d="m1627.9826 605.53248c-2.655 4.28986-4.5565 8.47246-7.4985 12.36908-.5381-6.18454.4306-12.94106 2.1527-18.23188 0 0 3.4084 4.14686 5.3458 5.8628z"/><path d="m1578.3993 643.31896c1.6862 2.18068 3.5519 4.71886 5.7046 6.4348h-14.7459c-4.3053.143-5.8122-4.36136-5.5252-11.47538 1.3275-.1072 3.6954.32174 3.8748-1.68018v-1.39422c.6817.143 1.6145-.35748 1.6145-1.1797-.036-1.07246-.4664-1.17972-1.0404-1.42996l-1.2916-.143v-6.89952c.5381.0714 1.3633-.3575 1.2916-1.21546-.036-.64348-.287-1.07248-1.0046-1.17972-1.2557.42898-1.758-2.7169-3.4443-3.03864.072.0714-11.4092 0-11.4092 0l13.5978-11.72562c1.3992 12.97682 5.884 24.52368 12.3779 34.92658z"/><path d="m1563.5458 621.86968c.5382.2145.8611 1.07246.8611 1.07246h-38.1024l2.0809-1.14396z"/></g><path d="m1629.2025 648.86004c-6.3146-5.36232-11.9115-11.54688-18.4413-16.26572 2.7626-3.25314 6.3145-7.22126 8.2878-10.2599 1.6145 7.3285 4.3054 19.01836 10.1535 26.52562z" fill="#fff" stroke="#fff"/><g fill="#f4c600" stroke="#f4c600"><path d="m1676.669 623.29964c.8252.143.7893.85796.9329 1.1797h-38.8918s.1076-1.1082.6458-1.2512c2.5115-.0716 37.3131.0714 37.3131.0714z"/><path d="m1564.5145 625.44456c.6817.0716.4664 1.28696.3946 1.3227h-36.9184s-.4305-.78646-1.2557-1.3227c1.1122.0358 37.7795 0 37.7795 0z"/><path d="m1676.8843 626.98176c-.3947.42898-.6458 1.21546-1.1481 1.3227h-37.0261c-.1436-.50048.036-1.14396.3947-1.3227z"/><path d="m1598.6344 641.42428-3.7671-3.03864c-.036-.53624.072-5.64832.072-5.54108 1.2557-.57198 2.6191-.92946 3.7313-.82222z"/><path d="m1605.5948 632.45134c.072.0358.3946 3.25314.4664 3.21738 0 0-2.8344 2.53816-3.8031 3.53914v-7.32852c1.0405-.143 2.5115.1788 3.3367.572z"/><path d="m1606.8146 634.95374-.3588-2.25216s1.3993.32174 1.8298.78646z"/><path d="m1592.5711 636.49094c0-.21448.2152-2.25216.2152-2.25216.4664-.39324.61-.64348 1.2558-.96522l-.072 4.28986z"/><path d="m1612.1246 636.1692-2.1886.25024-.3588-2.28792c.9687.46474 1.7939 1.25122 2.5474 2.03768z"/><path d="m1607.1734 636.91994c-.036 0-.1076-.3575-.072-.39324.3229-.46474 1.3275-1.35846 1.6504-1.78744l.3229 1.85894z"/><path d="m1565.6985 635.061c.287.32174.3229 1.0367-.072 1.21546h-34.5505c-.3947 0-.5023-1.14396 0-1.17972 1.3275 0 34.6222-.0358 34.6222-.0358z"/><path d="m1591.423 637.34892c.072-.0358.072.28598.072.46474-.036 0-1.7222-.1072-1.6863-.1072l.1794-1.0367s.8611.42898 1.4351.67922z"/><path d="m1674.4446 636.5267c.4305 0-.072 1.2512-.5382 1.28696-.3229.0358-34.1199 0-34.1199 0-.8611-.143-.5023-1.28696 0-1.21546 1.2557-.0716 32.6489-.1072 34.6581-.0716z"/><path d="m1627.0139 649.75376h-11.0145l-2.7626-12.83382c4.7 4.36134 9.1847 8.5797 13.7771 12.83382z"/><path d="m1613.0215 640.13732-2.2603.32174-.6458-3.1459c-.072.0358 2.1527-.35748 2.1527-.32174z"/><path d="m1607.7474 646.7151c-1.1481-.50048-3.9824-1.71594-5.4893-2.89564.036 0 0-2.68116 0-2.68116l4.0183-3.75364c.6458 3.0029 1.0764 6.25604 1.471 9.33044z"/><path d="m1609.936 640.56632c.072.0358-2.1168.42898-2.0809.46472 0-.0358-.5741-3.21738-.5741-3.21738 2.0092-.39324 2.0092-.39324 2.0092-.39324s.6458 3.18164.6458 3.1459z"/><path d="m1586.9741 648.89578c-.287.143-.5382.3575-.897.3575-.4664-4.39712.8252-8.0435 2.7268-11.11788z"/><path d="m1558.2717 638.27838c-1.0404 14.72852 7.6779 16.37296 12.4497 16.37296h69.4238c2.8344 0 8.0367-5.18358 5.7405-14.26378h1.2916c2.655 10.04542-3.4084 15.80098-6.2786 15.515h-70.7155c-14.2794.0714-13.3825-14.12078-13.2031-17.62418z"/><path d="m1561.8595 638.27838c-.1794 11.33238 2.655 13.5488 9.7229 13.37006l65.8361-.0358c4.1977.0358 6.2069-6.2918 4.7-11.22514h1.1481c2.1527 6.2203-1.2198 12.4406-5.1305 12.4406h-68.5628c-9.113.143-8.7901-9.18746-8.7901-14.58552z"/></g></g><path d="m886.89 848.45 10.98.71-2.32 15.32-11.84-.77z" fill="#f4c600" stroke="#f4c600" stroke-width=".54" transform="matrix(.15152702 0 0 .16715072 1455.3019 496.82034)"/><g stroke-width=".085952"><g fill="#f4c600" stroke="#f4c600"><path d="m1593.8985 639.42234s-.036 1.5372-.1076 2.21644c-.036 0-1.758-.143-1.7939-.1072l.2871-2.7169s1.0404.0716 1.0045.0716c0 0 .5741.46474.61.53622z"/><path d="m1594.652 645.35666c-.036-.5005.072-5.46958.072-5.46958l3.5519 2.71692s-3.0496 2.68116-3.6237 2.75266z"/><path d="m1613.8108 643.6407-2.3679.32174-.4306-2.6454c.6817-.1788 1.5069-.1072 2.1886-.32174z"/><path d="m1610.6894 644.10544-2.332.50048-.3947-2.6454c-.036-.0358 2.1527-.57198 2.1886-.50048z"/><path d="m1590.8848 642.28226-.287 2.43092-1.9016-.143c-.072.0358.4306-2.46668.3947-2.46668 0 0 1.758.143 1.7939.1788z"/><path d="m1593.7909 642.5325c-.072.0358-.072 1.68018-.1076 2.50242 0 0-2.1527-.1788-2.0809-.1788l.287-2.43092c.6458.0716 1.8657.1072 1.9016.1072z"/><path d="m1594.5802 649.75376c0-.0358.036-2.57392.072-2.64542 1.2199-.75072 2.5474-1.82318 3.9825-3.0744l.036 5.71982z"/><path d="m1612.1963 647.85906-.5382-3.11014c-.036 0 2.1886-.32174 2.2245-.35748l.6458 3.0744z"/></g><path d="m1534.5205 646.89384c-.287.71498-2.7626 2.07344-3.8748 1.7517.036.89372.574 1.5372.8611 1.96618 3.4801 3.25314 8.9336 5.04058 9.7946 10.65316.8252 2.9314-2.9061 11.90434-2.7984 11.9401-.897-.1072-2.4756-.50048-2.5474-.57198 1.6504-3.75364 4.2336-10.11692 2.4397-13.04832-2.942-4.89758-11.2657-5.9343-10.0099-13.3343 1.7939.57198 3.6954-.0714 5.0588-1.8232z" stroke="#000"/><g fill="#f4c600" stroke="#f4c600"><path d="m1611.3711 648.07356c-.036-.0358-2.655-.92946-2.655-.96522.036-.0358-.2152-1.6802-.1794-1.6802 0 .0358 2.2604-.42898 2.2962-.42898z"/><path d="m1590.4901 645.6069-.1794 1.89468-2.1885.92946.4664-2.96714s1.8298.1072 1.9015.143z"/><path d="m1607.9986 649.75376h-5.7405v-4.50436c.6458.64348 5.5611 2.82416 5.5611 2.82416z"/><path d="m1593.6115 646.07162c-.4664.286-1.471.85798-2.332 1.10822l.1436-1.42996c.072 0 1.6145.1072 2.1885.2145-.036.0358 0 .0358 0 .1072z"/><path d="m1614.9948 649.43202c-.5382-.1788-2.3321-.92948-2.2603-.89372.036.0714 1.9733-.32174 1.9374-.25024.036-.0716.287 1.1797.3229 1.14396z"/></g><path d="m1537.2831 652.14892c-1.2557.0358-3.2649-1.3227-3.8748-2.53816.6099.143 1.9733-.96522 1.9733-.96522z" stroke="#000"/><g fill="#f4c600" stroke="#f4c600"><path d="m1593.5039 647.64458-.1076 2.10918h-2.368c-.036 0 .072-1.10822.1436-1.10822.1436-.2145 1.6145-.57198 2.3321-1.00096z"/><path d="m1612.1963 649.75376h-3.229l-.1794-1.32272c0-.0358 2.045.82224 3.4084 1.32272z"/></g></g><path d="m889.52 910.27-.48 4.53h-13.13z" fill="#f4c600" stroke="#f4c600" stroke-width=".54" transform="matrix(.15152702 0 0 .16715072 1455.3019 496.82034)"/><g stroke="#000"><g stroke-width=".085952"><path d="m1667.8072 672.7045-3.3008.60772c-.7176-4.21836-6.4939-5.75556-6.2428-10.3314l1.9733-2.60966c-.574 6.04154 7.642 6.64926 7.5703 12.33334z"/><path d="m1593.2886 663.66004h-4.0183c-.036-.32174-.1794-.50048-.1794-1.00096l.6817-1.96618c-.036.0714 1.9374 0 1.9374 0-.1436 1.14396.3229 2.39516 1.5786 2.96714z"/><path d="m1602.8322 660.6929c.036.85796.036 1.71594 1.3633 2.96714h-5.0588c-.574-.82222.6817-1.28696.4306-2.96714 0-.0716 3.229 0 3.2649 0z"/><path d="m1563.8328 677.45908c-9.0412-.39324-17.1138-2.43092-23.5001-3.86086 1.2558-2.46668 2.8703-8.72272 3.2291-11.26088 5.0229 9.47344 13.5618 13.5488 20.271 15.12174z"/><path d="m1663.1789 673.52672c-5.4893 1.42994-15.3558 3.32464-19.3382 3.57488 5.5611-2.32368 10.1176-8.36522 13.3107-12.61934.8611 4.36136 5.5611 5.79132 6.0275 9.04446z"/></g><path d="m878.78 1006.5h43.68l9.31 29.6h-42.73z" stroke-width=".54" transform="matrix(.15152702 0 0 .16715072 1455.3019 496.82034)"/><path d="m944.89 1006.5h50.13l9.28 29.6h-48.67z" stroke-width=".54" transform="matrix(.15152702 0 0 .16715072 1455.3019 496.82034)"/><path d="m1650.227 670.45232c-3.3726 4.07536-8.6108 6.72078-12.4497 6.93526 0 0-10.0458-.71498-13.7413-2.07342-.2152-.71498-1.3274-4.14686-1.3274-4.14686h24.6122c1.0046 0 1.9733-.39324 2.9062-.71498z" stroke-width=".085952"/></g><g fill="#1f1a17" stroke="#1f1a17"><path d="m958.5 1043h47.5l4.3 15.3-46.55-.5z" stroke-width=".54" transform="matrix(.15152702 0 0 .16715072 1455.3019 496.82034)"/><path d="m1030.3 1043h50.4l6.9 21-52-4.8z" stroke-width=".54" transform="matrix(.15152702 0 0 .16715072 1455.3019 496.82034)"/><path d="m1596.8764 671.1673c.1436.53622.6458 2.46666.8252 2.89564-1.3275-.143-6.458.57198-6.458.53624l-.897-3.43188z" stroke-width=".085952"/></g><path d="m1536.7091 669.2726c-7.6779.46474-16.6115 2.21644-21.8497 3.3604v14.19228c6.0634-1.32272 17.1138-3.3604 25.4375-3.3604 12.1985 0 22.4596 4.36136 29.9581 4.36136s22.4237-4.36136 29.9222-4.36136 22.5672 4.36136 30.0657 4.36136c7.4626 0 17.7596-4.36136 29.9223-4.36136 3.4084 0 7.2114.39324 10.9786.89372 2.9779-4.07536 5.2741-8.50822 7.068-13.1913-5.7046-1.00098-12.4497-1.8947-18.0466-1.8947-12.1627 0-22.4597 4.36136-29.9223 4.36136-7.4985 0-22.5672-4.36136-30.0657-4.36136s-22.4237 4.36136-29.9222 4.36136-17.7596-4.36136-29.9581-4.36136c-.6458 0-1.4352-.0358-2.1168 0-.5023.0358-.9329-.0358-1.471 0z" fill="#002369"/><path d="m1599.8902 573.35854c-1.4352-.53622-4.5924-1.1082-6.0275-1.3227-2.4039-.35748-8.539-.71498-12.2703 1.78744-.9328 1.00096 1.2557 2.68116 1.0046 3.93238-.6817 2.25216-1.5428 2.7884-3.8031 3.28888-6.8168.64348-11.3015-4.93334-17.4367-6.2203-1.5068-.21448-2.7626 0-2.6549 1.28696.9328 2.10918 1.2916 4.4686.3946 7.00678-2.4397 7.00676-17.6161 1.82318-27.6978 1.28696-4.413-.25026-9.4 1.96618-11.0145 3.0029 6.0275-5.86282 11.9832-6.1488 22.3878-4.6116 9.113 1.35844 13.3108.64348 13.526-2.43092-.1436-3.1459-2.1526-3.53914-1.471-5.89856.6458-2.28792 2.5474-2.96716 4.7001-3.39614 5.0946-1.03672 17.1855 9.0087 19.1947 6.25604.6816-1.5372-2.4756-2.50242-1.2199-4.57584 2.4038-3.32464 5.884-3.93238 10.0817-4.36136 3.6955-.35748 8.5749.75072 12.2703 2.07344.1076-.2145.036 3.18164.036 2.89564z" fill="#ce1126"/><g stroke-width=".085952"><path d="m1598.7421 568.17498c0-1.17972 1.2557-2.14494 2.7985-2.14494 1.5427 0 2.7984.96522 2.7984 2.14494 0 1.14396-1.2557 2.10918-2.7984 2.10918-1.5428 0-2.7985-.96522-2.7985-2.10918z" stroke="#000"/><path d="m1596.123 581.40204c.7175-.32174 2.5114-.82224 3.7672-.78648v1.1082c-.036-.0714-10.0459 1.93044-14.997 3.25316l10.1893-6.11306z" fill="#f4c600" stroke="#f4c600"/><path d="m1546.2885 594.70058c0-1.07246 1.1481-1.96618 2.5114-1.96618 1.3634 0 2.5115.89372 2.5115 1.96618 0 1.07248-1.1481 1.93044-2.5115 1.93044-1.3633 0-2.5114-.85796-2.5114-1.93044z" stroke="#000"/></g><path d="m624.34 737.46h-15.04v-142.02h15.04z" stroke="#000" stroke-width=".54" transform="matrix(.15152702 0 0 .16715072 1455.3019 496.82034)"/><path d="m1547.6518 607.10542c-3.2649-2.35942-4.6641.429-7.4626-.57198-3.1214-1.1082-4.8435-.50048-6.8168.64348.8611-2.28792.2512-8.47246-.4305-9.40194.9687-.64348 2.7985-1.64444 6.8527.2145 2.1168.96522 4.3053-2.75266 7.8572-.143z" fill="#ce1126"/><path d="m609.3 674.45-27.93 63.01h-7.16l35.09-78.53z" stroke="#000" stroke-width=".54" transform="matrix(.15152702 0 0 .16715072 1455.3019 496.82034)"/><path d="m624.34 674.45 27.92 63.01h7.16l-35.08-78.53z" stroke="#000" stroke-width=".54" transform="matrix(.15152702 0 0 .16715072 1455.3019 496.82034)"/><path d="m1637.5979 621.61944c-1.2916.25024-1.6863 1.64444-1.4351 2.8599-.9328 0-1.8298.53624-1.7221 1.3942-.072 1.10822.861 1.35846 1.7221 1.35846v6.64928c-.7534 0-1.5786-.21448-2.0809.57198-.2512.3575 0 .82222-.072 1.25122.4664.82222 1.3992.64348 2.1527.71496-.2512 1.5372.8969 2.75266 1.9732 3.39614.897.25024 1.9375 1.07246 2.1886 2.14494.3229 1.28696.4664 2.75266.1076 4.14686-1.4351 3.78936-3.2649 3.93236-8.1443 3.64638-4.5565-4.8261-5.7046-8.72272-8.0725-14.97876-2.0092-5.36232-2.4756-8.29372-3.5878-14.33526 3.0137-4.5401 6.5656-10.29566 8.4672-14.0493 7.1397 6.2203 15.9298 11.15364 23.8588 15.229z" fill="#f4c600" stroke="#f4c600" stroke-width=".085952"/><path d="m1654.5682 596.30928c0-1.07246 1.1122-1.93044 2.4756-1.93044 1.3992 0 2.5114.85798 2.5114 1.93044 0 1.10822-1.1122 1.96618-2.5114 1.96618-1.3634 0-2.4756-.85796-2.4756-1.96618z" stroke="#000" stroke-width=".085952"/><path d="m1338.7 747.24h-15v-142.01h15z" stroke="#000" stroke-width=".54" transform="matrix(.15152702 0 0 .16715072 1455.3019 496.82034)"/><path d="m1655.8957 608.74986c-3.2649-2.35942-4.6642.429-7.4268-.57198-3.1572-1.1082-4.8794-.50048-6.8527.64348.897-2.28792.2512-8.47246-.3946-9.43768.9328-.60772 2.7626-1.6087 6.8168.25024 2.1527.96522 4.3054-2.75266 7.8573-.143z" fill="#ce1126"/><path d="m1323.7 684.23-27.9 63.01h-7.2l35.1-78.52z" stroke="#000" stroke-width=".54" transform="matrix(.15152702 0 0 .16715072 1455.3019 496.82034)"/><path d="m1338.7 684.23 28 63.01h7.1l-35.1-78.52z" stroke="#000" stroke-width=".54" transform="matrix(.15152702 0 0 .16715072 1455.3019 496.82034)"/><g fill="#f4c600" stroke="#f4c600"><path d="m1536.0274 631.52186-1.5428-2.7884c.4664-.286 1.1481-.3575 1.5428-.429z" stroke-width=".085952"/><path d="m1535.4892 631.87934-2.9061-1.3942c.1794-.57198.7176-.96522 1.0763-1.2512-.072.0358 1.8298 2.6454 1.8298 2.6454z" stroke-width=".085952"/><path d="m507.16 804.9 19.56 6.49h-20.71z" stroke-width=".54" transform="matrix(.15152702 0 0 .16715072 1455.3019 496.82034)"/><path d="m1536.8167 631.55762 1.5786-2.78842c-.5023-.28598-1.1839-.35748-1.5786-.42898z" stroke-width=".085952"/><path d="m1537.3549 631.9151 2.942-1.3942c-.2153-.57198-.7176-.96522-1.0764-1.25122.072.0358-1.8656 2.64542-1.8656 2.64542z" stroke-width=".085952"/><path d="m563.46 805.14-19.56 6.49h20.71z" stroke-width=".54" transform="matrix(.15152702 0 0 .16715072 1455.3019 496.82034)"/><path d="m1547.8671 631.48612-1.5786-2.78842c.5023-.28598 1.184-.35748 1.5786-.42898z" stroke-width=".085952"/><path d="m1547.3289 631.8436-2.942-1.3942c.2153-.57198.7176-.96522 1.0764-1.25122-.072.0358 1.8656 2.64542 1.8656 2.64542z" stroke-width=".085952"/><path d="m585.21 804.66 19.56 6.49h-20.71z" stroke-width=".54" transform="matrix(.15152702 0 0 .16715072 1455.3019 496.82034)"/><path d="m1548.6564 631.52186 1.5428-2.7884c-.4664-.286-1.1481-.3575-1.5428-.429z" stroke-width=".085952"/><path d="m1549.1946 631.87934 2.9061-1.3942c-.1794-.57198-.7175-.96522-1.0763-1.2512.072.0358-1.8298 2.6454-1.8298 2.6454z" stroke-width=".085952"/><path d="m641.51 804.9-19.56 6.49h20.7z" stroke-width=".54" transform="matrix(.15152702 0 0 .16715072 1455.3019 496.82034)"/><path d="m1559.671 631.45036-1.5428-2.82416c.4664-.25024 1.1481-.35748 1.5786-.39322z" stroke-width=".085952"/><path d="m1559.1328 631.80786-2.9061-1.39422c.2152-.57198.7175-.9652 1.0763-1.2512-.072.0358 1.8298 2.64542 1.8298 2.64542z" stroke-width=".085952"/><path d="m663.26 804.42 19.56 6.5h-20.71z" stroke-width=".54" transform="matrix(.15152702 0 0 .16715072 1455.3019 496.82034)"/><path d="m1560.4962 631.48612 1.5427-2.78842c-.5023-.28598-1.1481-.35748-1.5786-.42898z" stroke-width=".085952"/><path d="m1561.0343 631.8436 2.9061-1.3942c-.2152-.57198-.7175-.96522-1.0763-1.25122.072.0358-1.8298 2.64542-1.8298 2.64542z" stroke-width=".085952"/><path d="m719.56 804.66-19.56 6.49h20.71z" stroke-width=".54" transform="matrix(.15152702 0 0 .16715072 1455.3019 496.82034)"/><path d="m1644.6659 632.88032-1.5428-2.78842c.4664-.28598 1.1481-.35748 1.5787-.42898z" stroke-width=".085952"/><path d="m1644.1277 633.2378-2.9061-1.3942c.2153-.57198.7175-.96522 1.0763-1.2512-.072.0358 1.8298 2.6454 1.8298 2.6454z" stroke-width=".085952"/><path d="m1224.2 813.01 19.5 6.5h-20.7z" stroke-width=".54" transform="matrix(.15152702 0 0 .16715072 1455.3019 496.82034)"/><path d="m1645.4911 632.91606 1.5427-2.7884c-.5023-.286-1.1481-.3575-1.5786-.42898z" stroke-width=".085952"/><path d="m1646.0292 633.27356 2.9062-1.39422c-.2153-.57198-.7176-.9652-1.0764-1.2512.072.0358-1.8656 2.64542-1.8298 2.64542z" stroke-width=".085952"/><path d="m1280.5 813.26-19.6 6.49h20.7z" stroke-width=".54" transform="matrix(.15152702 0 0 .16715072 1455.3019 496.82034)"/><path d="m1656.5056 632.84456-1.5427-2.7884c.4664-.286 1.148-.39324 1.5427-.42898z" stroke-width=".085952"/><path d="m1655.9674 633.20206-2.942-1.3942c.2153-.57198.7176-.96522 1.0764-1.25122-.036.0358 1.8656 2.64542 1.8656 2.64542z" stroke-width=".085952"/><path d="m1302.2 812.78 19.6 6.49h-20.7z" stroke-width=".54" transform="matrix(.15152702 0 0 .16715072 1455.3019 496.82034)"/><path d="m1657.2949 632.88032 1.5428-2.78842c-.4664-.28598-1.1481-.35748-1.5428-.42898z" stroke-width=".085952"/><path d="m1657.8331 633.2378 2.942-1.3942c-.2153-.57198-.7176-.96522-1.0764-1.2512.072.0358-1.8656 2.6454-1.8656 2.6454z" stroke-width=".085952"/><path d="m1358.5 813.01-19.5 6.5h20.7z" stroke-width=".54" transform="matrix(.15152702 0 0 .16715072 1455.3019 496.82034)"/><path d="m1668.3453 632.80882-1.5786-2.82416c.5023-.25024 1.184-.35748 1.5786-.39324z" stroke-width=".085952"/><path d="m1667.7713 633.1663-2.9061-1.3942c.2152-.57198.7175-.96522 1.0763-1.2512-.072.0358 1.8657 2.6454 1.8298 2.6454z" stroke-width=".085952"/><path d="m1380.3 812.54 19.5 6.49h-20.7z" stroke-width=".54" transform="matrix(.15152702 0 0 .16715072 1455.3019 496.82034)"/><path d="m1669.1346 632.84456 1.5428-2.7884c-.4664-.286-1.1481-.39324-1.5428-.42898z" stroke-width=".085952"/><path d="m1669.6728 633.20206 2.9061-1.3942c-.1794-.57198-.7175-.96522-1.0763-1.25122.072.0358-1.8298 2.64542-1.8298 2.64542z" stroke-width=".085952"/><path d="m1436.6 812.78-19.6 6.49h20.7z" stroke-width=".54" transform="matrix(.15152702 0 0 .16715072 1455.3019 496.82034)"/></g><path d="m1613.9185 660.6929c.036.89372.036 1.71594 1.3992 3.0029h-5.0588c-.574-.82224.6817-1.32272.4305-3.0029-.036-.0358 3.1932 0 3.2291 0z" stroke="#000" stroke-width=".085952"/><g stroke-width=".54"><g transform="matrix(.15152702 0 0 .16715072 1455.3019 496.82034)"><path d="m1017.5 1006.5h50.8l10.3 29.6h-50.4z" stroke="#000"/><g fill="#f4c600" stroke="#f4c600"><path d="m703.34 849.4h-180.45v-3.34h180.45z"/><path d="m1448.1 862.05h-213v-3.34h213z"/><path d="m901.93 824.1-7.64 5.25 6.45 3.82z"/></g><path d="m974.97 463.21h-20.77v-28.88h20.77z" stroke="#000"/></g><g fill="#f4c600" stroke="#f4c600"><path d="m903.36 1146.6-27.92-102.1h9.55l29.83 101.6z" transform="matrix(.15590148 0 0 .17868842 1451.2975 483.589)"/><path d="m974.49 1141.3-30.92-97.5h9.15l33.71 97.5z" transform="matrix(.1718037 0 0 .19792886 1435.2915 461.68622)"/><path d="m1044.7 1143.5-29.9-98.3h8.1l32.3 98.7z" transform="matrix(.15718812 0 0 .18505082 1449.3245 476.34114)"/><path d="m1139.4 1157.3-10.2-1.9-38.7-110.5h7.4z" transform="matrix(.15152702 0 0 .16715072 1455.3019 496.82034)"/></g></g><path d="m1619.6589 602.70832c-1.5068 6.57778-1.5068 11.54686-.9687 17.37392-2.4397 4.21836-6.0634 7.93624-9.2206 11.83286-6.1351-2.96716-13.813-2.50242-18.6924 1.42996-4.3413 3.39612-6.3504 8.61546-6.5298 13.79904-7.1756-8.11498-9.1848-12.58358-11.9833-20.48408-3.229-9.18744-5.0946-15.69372-4.3053-24.84542.2511-2.9314.7893-5.7913 1.3992-8.54396 2.5115 2.18068 6.1351 2.21642 9.3283 1.64444 2.8343-.92946 6.2069-2.60966 7.2473-6.11304 2.5474 3.64638 6.6016 3.75362 10.3329 2.75266 2.4038-.71498 4.5206-2.93142 6.1351-5.0406 3.8748 2.21644 9.8665 1.25122 13.4901-1.53718.9329-.78648 1.7939-1.78744 2.1886-2.93142 2.1527 2.68116 6.6374 1.64446 8.539 1.07248 1.8656-.57198 4.4488-2.43092 4.4488-2.43092-5.4893 6.25604-9.6512 14.29952-11.4092 22.02126z" fill="#fff" stroke="#fff" stroke-width=".085952"/><path d="m1537.4984 697.65716c-7.8573.35748-17.2214 2.28792-22.639 3.46764v14.19228c6.0634-1.32272 17.1138-3.46764 25.4375-3.46764 11.0504 0 20.558 3.68212 27.8054 4.36136.036-.0358.072 0 .1436 0 .072 0 .1076-.0358.2152 0 .2153-.0358.4306 0 .6817 0 .7176-.0358 1.471 0 2.2245 0 .287-.0358.6099 0 .8969 0 .1076-.0358.1434 0 .2153 0 7.9649-.67924 20.9168-4.36136 27.6978-4.36136 2.7985 0 6.6733.67922 10.7634 1.42996h.1076c20.4863-3.03866 35.2321-8.40098 45.852-15.515-10.7993.64348-19.8405 4.25412-26.6573 4.25412-7.4985 0-22.5673-4.36136-30.0658-4.36136s-22.4237 4.36136-29.9222 4.36136-17.7596-4.36136-29.9581-4.36136c-.6458 0-1.4351-.0358-2.1168 0-.2511 0-.4305-.0358-.6817 0z" fill="#002369"/><path d="m1538.1801 711.84944c-8.0367.28598-17.7238 2.25218-23.3207 3.46764v15.19324h.6817c6.0633-3.2174 27.9489-14.33528 48.6505-14.29952h3.9107c-7.2474-.67924-16.755-4.36136-27.8054-4.36136-.6458 0-1.4352-.0358-2.1168 0zm61.6742 0c-6.8886.1072-19.5535 3.68212-27.3749 4.36136 14.6382-.286 27.4108-1.28696 38.4612-2.9314-4.0901-.75074-7.9649-1.42996-10.7634-1.42996-.1076 0-.2153 0-.3229 0z" fill="#fff"/><g stroke="#000" stroke-width=".054" transform="matrix(1.5223023 0 0 1.7770733 915.73316 338.27438)"><path d="m441.76 181.32c.16.67-.18.91-.32 1.23 1.63 4.27 3.48 10.11 5.16 14.39l-1.1.09-4.84-14.75c.38-.14.92-.97-.15-1.29-.54-.1-1.16-.06-1.3.51-.07.5.46.61.73.86 1.55 4.67 3.16 9.98 4.49 14.76l-.83.16-4.2-14.42c-.6-.39-1.27-1.18-.81-1.86.72-1.04 2.83-.88 3.17.32z"/><path d="m448.32 181.38c.15.67-.18.91-.32 1.23 1.63 4.27 3.86 9.7 5.53 13.97h-.95l-5.37-14.24c.38-.14.93-.97-.15-1.29-.53-.1-1.15-.06-1.29.51-.08.5.46.61.72.86 1.56 4.67 3.67 9.38 5 14.16l-.86.09-4.67-13.75c-.61-.39-1.27-1.18-.81-1.86.72-1.04 2.82-.88 3.17.32z"/><path d="m455.59 181.44c.15.67-.18.91-.32 1.23 1.63 4.27 3.67 10.08 5.34 14.36l-1.11-.16-5.02-14.47c.38-.13.93-.97-.15-1.29-.53-.1-1.15-.06-1.29.51-.08.5.46.61.72.86 1.56 4.67 3.36 9.5 4.69 14.28l-.93-.07-4.29-13.71c-.61-.39-1.27-1.18-.81-1.86.72-1.04 2.82-.88 3.17.32z"/><path d="m462.86 181.5c.15.67-.18.92-.32 1.23 1.63 4.27 4.74 11.28 6.41 15.56l-1.09-.18-6.11-15.65c.38-.13.93-.97-.15-1.28-.53-.11-1.15-.07-1.29.5-.08.5.46.61.72.86 1.56 4.67 4.45 10.63 5.78 15.41l-1.07-.2-5.24-14.71c-.61-.39-1.27-1.18-.81-1.86.72-1.04 2.82-.88 3.17.32z"/></g><path d="m1537.0678 683.46488c-7.7855.39324-16.8626 2.21642-22.2084 3.3604v14.29952c6.0634-1.32272 17.1138-3.46764 25.4375-3.46764 12.1985 0 22.4596 4.36136 29.9581 4.36136s22.4237-4.36136 29.9222-4.36136 22.5672 4.36136 30.0657 4.36136c6.8168 0 15.8581-3.61064 26.6574-4.25412 5.9557-3.96812 10.6198-8.43672 14.2435-13.4058-3.7672-.50048-7.5702-.89372-10.9786-.89372-12.1627 0-22.4597 4.36136-29.9223 4.36136-7.4985 0-22.5672-4.36136-30.0657-4.36136s-22.4237 4.36136-29.9222 4.36136-17.7596-4.36136-29.9581-4.36136c-.6458 0-1.4352-.0358-2.1168 0-.3588 0-.7535-.0358-1.1123 0z" fill="#fff"/><path d="m1514.4288 480.71732h170.42036v82.172218h-170.42036z" fill="#ce1126"/><path d="m1678.0767 232.95384c7.292 61.54424 0 0 7.292 61.54424-.1202-24.40758 8.2738-45.08064 30.4425-60.7505z" fill="#f4c600"/><path d="m1514.4459 233.42487h170.41838v248.99312h-170.41838z" fill="#f4c600"/><path d="m1514.4459 316.83755h170.41838v82.167732h-170.41838z" fill="#ce1126"/><path d="m1878.8 669.1-16.3-11.44 16.3-11.4-2.7-4.56 17.2.01-19.7-33.88 6.1.04 2-22.67 20.6 9.65 3-5.26 19.6 33.9 19.5-33.84 3 5.26 20.7-9.58 2.1 22.7 6-.03-19.5 33.84 39.1.03-3 5.22 18.7 13.06-18.7 13.03 3.1 5.22-39.2-.04 8.6 14.83-5.3-.04-1.7 19.84-18.1-8.44-2.6 4.59-17.1-29.65-10.1-5.79-34.2-.04z" fill="#006939" transform="matrix(.30930646 0 0 .36711546 1049.2408 201.8371)"/><g fill="none" stroke="#f7d300" stroke-linecap="round" stroke-linejoin="round" transform="matrix(1.6773669 0 0 1.991945 675.48988 166.85655)"><g stroke-width=".222"><path d="m584.42999 127.74-7.60998 13.18"/><path d="m582.96002 147.3-11.86999-19.77"/><path d="m568.17999 138.78999 23.14002.38001"/></g><g stroke-width="1.2" transform="matrix(.1844 0 0 .1843 222.82 17.561)"><path d="m1944.51 602.065.06 24.054 20.87-11.973"/><path d="m1884.35 612.396 20.86 11.977-.37-23.308"/><path d="m1986.66 671.265-20.8-12.076 20.37-11.335"/><path d="m1957.03 688.248-20.86-11.977.36 23.309"/><path d="m1884.28 646.339 20.81 12.077-20.37 11.335"/></g></g><g fill="#006939"><path d="m1721.2 668.78 16.3-11.43-16.3-11.4 2.7-4.57-17.2.02 19.7-33.89-6.1.05-2-22.68-20.6 9.65-3-5.25-19.6 33.9-19.5-33.85-3 5.27-20.7-9.59-2.1 22.71-6-.03 19.5 33.84-39.1.03 3 5.22-18.7 13.06 18.7 13.03-3.1 5.22 39.2-.04-8.6 14.83 5.3-.04 1.7 19.84 18.1-8.45 2.6 4.6 17.2-29.65 10-5.8 34.2-.03z" transform="matrix(.30930646 0 0 .36711546 1036.4508 201.8097)"/><g stroke="#f7d300" stroke-linecap="round" stroke-linejoin="round" stroke-width=".405794"><path d="m1543.4852 421.16071 12.7816 26.25381"/><path d="m1545.9679 460.12314 19.9103-39.38074"/><path d="m1570.7424 443.17166-38.7975.75696"/></g></g></g><g stroke-width="1.2"><g fill="none" stroke="#f7d300" stroke-linecap="round" stroke-linejoin="round" transform="matrix(.30930646 0 0 .36711546 1036.4508 201.8097)"><path d="m1655.49 601.752-.06 24.054-20.87-11.973"/><path d="m1715.65 612.081-20.86 11.978.37-23.308"/><path d="m1613.34 670.952 20.8-12.078-20.37-11.335"/><path d="m1642.97 687.935 20.87-11.977-.37 23.308"/><path d="m1715.72 646.026-20.81 12.077 20.37 11.335"/></g><g fill="#006939" fill-rule="evenodd" stroke="#006939" transform="matrix(2.0967086 0 0 .9195316 436.45588 316.16278)"><path d="m554.8 163.57c8.37-5.78 16.19-13.49 21.91-22.27"/><path d="m554.81 163.57c-8.37-5.78-16.18-13.49-21.91-22.27"/></g></g><path d="m1598.7755 421.28766h1.901442v57.372993h-1.901442z" fill="#006939" fill-rule="evenodd" stroke="#006939" stroke-width=".685463"/><path d="m1597.8873 439.57858-9.1864 6.28136.031-1.94204-6.1552-.63512 2.5982-6.6191-1.4228-.96184 4.5777-3.13884-10.4855-7.17342 1.6394-1.09768-3.0003-7.56626 7.0522-.7232-.031-2.22106 10.5164 7.1771v-14.3432l1.6084 1.11972 4.0519-6.84304 4.0519 6.84304 1.6084-1.11972v14.3432l10.5164-7.1771-.031 2.22106 7.0522.7232-3.0002 7.56626 1.6393 1.09768-10.4855 7.17342 4.5777 3.13884-1.4228.96184 2.5982 6.6191-6.1243.63512v1.94204l-9.1864-6.28136z" fill="#006939" fill-rule="evenodd" stroke-width=".336974"/><g fill="none" stroke="#f7d300" stroke-linecap="round" stroke-linejoin="round"><g stroke-width=".405794"><path d="m1599.7148 406.18625v30.31741"/><path d="m1613.9893 441.40381-33.8326-22.28983"/><path d="m1585.3901 441.42377 33.9164-22.36957"/></g><g stroke-width="1.2" transform="matrix(.30930646 0 0 .36711546 1042.9297 210.4398)"><path d="m1787.92 545.083 12.08 20.803 12.08-20.803"/><path d="m1740.98 584.112 24.06-.058-11.98-20.001"/><path d="m1859.02 583.941-24.06-.058 11.98-20.001"/><path d="m1841.85 613.465-24.06.057 11.97 20.001"/><path d="m1757.89 613.541 24.06.058-11.97 20.001"/></g></g><g fill="#002369" fill-rule="evenodd" stroke="#f4c600" stroke-width=".639397" transform="matrix(2.0967086 0 0 2.4702608 496.43936 361.86796)"><g transform="matrix(.2098 0 0 .2347 455.39 -29.727)"><path d="m243.66 11.202c-2.22 2.098-12.68 7.915-21.26 7.915 11.19-8.701 15.23-11.3193 16.55-17.9178 1.32-6.5986-2.94-13.8612-6-15.3662-1.9-1.26-5.96-1.833-9.56-.368-4.7 2.201-4.91 8.4379-2.55 11.2865-22.23-3.3611-20.03-20.8375-12.46-27.1815 6.13-5.125 12.8-5.927 17.94-4.311 11.69 3.412 21.06 14.784 21.44 31.7703 0 0-2.02 12.1947-4.1 14.1727z"/><path d="m257.85 11.202c2.21 2.098 12.68 7.915 21.26 7.915-11.19-8.701-15.24-11.3193-16.56-17.9178-1.32-6.5986 2.94-13.8612 6-15.3662 1.9-1.26 5.97-1.833 9.56-.368 4.71 2.201 4.91 8.4379 2.56 11.2865 22.23-3.3611 20.02-20.8375 12.45-27.1815-6.12-5.125-12.79-5.927-17.94-4.311-11.69 3.412-21.06 14.784-21.44 31.7703 0 0 2.02 12.1947 4.11 14.1727z"/><path d="m250.86-81.472c-.09-.077-.12-.071-.22.045-3.96 3.605-7.49 6.939-10.26 10.671-7.74 10.434-10.32 21.767-5.99 30.933 8.6 19.392 11.88 24.317 11.88 39.758391l-2.05 9.590609c-.29 4.937-3.57 8.875-9.72 11.076.79 2.08 4.46 6.32 9.56 6.034 1 4.485 2 6.999 6.58 11.076.12.098.12.098.22 0 4.59-4.077 5.58-6.591 6.59-11.076 5.09.286 8.77-3.954 9.56-6.034-6.15-2.201-9.43-6.139-9.72-11.076l-2.05-9.590609c0-15.441391 3.28-20.366391 11.88-39.758391 4.33-9.166 1.74-20.499-6-30.933-2.77-3.74-6.28-7.102-10.26-10.716z"/><path d="m232.61-6.9073h36.293999v10.086h-36.293999z"/></g><g transform="matrix(.2098 0 0 .2347 491.71 -29.727)"><path d="m243.66 11.202c-2.22 2.098-12.68 7.915-21.26 7.915 11.19-8.701 15.23-11.3193 16.55-17.9178 1.32-6.5986-2.94-13.8612-6-15.3662-1.9-1.26-5.96-1.833-9.56-.368-4.7 2.201-4.91 8.4379-2.55 11.2865-22.23-3.3611-20.03-20.8375-12.46-27.1815 6.13-5.125 12.8-5.927 17.94-4.311 11.69 3.412 21.06 14.784 21.44 31.7703 0 0-2.02 12.1947-4.1 14.1727z"/><path d="m257.85 11.202c2.21 2.098 12.68 7.915 21.26 7.915-11.19-8.701-15.24-11.3193-16.56-17.9178-1.32-6.5986 2.94-13.8612 6-15.3662 1.9-1.26 5.97-1.833 9.56-.368 4.71 2.201 4.91 8.4379 2.56 11.2865 22.23-3.3611 20.02-20.8375 12.45-27.1815-6.12-5.125-12.79-5.927-17.94-4.311-11.69 3.412-21.06 14.784-21.44 31.7703 0 0 2.02 12.1947 4.11 14.1727z"/><path d="m250.86-81.472c-.09-.077-.12-.071-.22.045-3.96 3.605-7.49 6.939-10.26 10.671-7.74 10.434-10.32 21.767-5.99 30.933 8.6 19.392 11.88 24.317 11.88 39.758391l-2.05 9.590609c-.29 4.937-3.57 8.875-9.72 11.076.79 2.08 4.46 6.32 9.56 6.034 1 4.485 2 6.999 6.58 11.076.12.098.12.098.22 0 4.59-4.077 5.58-6.591 6.59-11.076 5.09.286 8.77-3.954 9.56-6.034-6.15-2.201-9.43-6.139-9.72-11.076l-2.05-9.590609c0-15.441391 3.28-20.366391 11.88-39.758391 4.33-9.166 1.74-20.499-6-30.933-2.77-3.74-6.28-7.102-10.26-10.716z"/><path d="m232.61-6.9073h36.293999v10.086h-36.293999z"/></g></g><path d="m1312.583 233.25264s31.7161 16.6474 31.7161 56.17774v325.8509c0 55.93376 1.3634 100.24306 120.263 100.24306 24.2894 0 50.265 15.284 50.3368 15.14048.036.1436 25.9039-15.14048 50.2291-15.14048 118.8637 0 120.3348-44.3093 120.3348-100.24306 0-57.36888 0-279.02298 0-325.8509 0-39.53034 31.6443-56.17774 31.6443-56.17774z" fill="none" stroke="#000" stroke-width="1.93741"/><path d="m1513.9454 231.95746h1.8v498.25955h-1.8z"/><path d="m-482.85745 1344.3037h1.8v341.08344h-1.8z" transform="rotate(-90)"/><path d="m-317.73755 1343.7809h1.8v341.08344h-1.8z" transform="rotate(-90)"/><g style="fill-rule:evenodd;fill:none;stroke:#006939;stroke-width:1.2;stroke-linecap:round;stroke-linejoin:round" transform="matrix(.3689769 0 0 .4402227 766.17056 90.93909)"><path d="m1799.9 533.21997v82.57001"/><path d="m1846.1 629.14001-109.4-60.70001"/><path d="m1753.6 629.21997 109.7-60.94995"/><path d="m1787.92 545.083 12.08 20.803 12.08-20.803"/><path d="m1740.98 584.112 24.06-.058-11.98-20.001"/><path d="m1859.02 583.941-24.06-.058 11.98-20.001"/><path d="m1841.85 613.465-24.06.057 11.97 20.001"/><path d="m1757.89 613.541 24.06.058-11.97 20.001"/><path d="m1960.9 597.79999-41.3 71.52002"/><path d="m1952.9 703.96002-64.4-107.27002"/><path d="m1872.8 657.78003 125.4 2.03998"/><path d="m1944.51 602.065.06 24.054 20.87-11.973"/><path d="m1884.35 612.396 20.86 11.977-.37-23.308"/><path d="m1986.66 671.265-20.8-12.076 20.37-11.335"/><path d="m1957.03 688.248-20.86-11.977.36 23.309"/><path d="m1884.28 646.339 20.81 12.077-20.37 11.335"/><path d="m1639.1 597.48999 41.3 71.51001"/><path d="m1647.1 703.64001 64.4-107.26001"/><path d="m1727.3 657.46997-125.5 2.04004"/><path d="m1655.49 601.752-.06 24.054-20.87-11.973"/><path d="m1715.65 612.081-20.86 11.978.37-23.308"/><path d="m1613.34 670.952 20.8-12.078-20.37-11.335"/><path d="m1642.97 687.935 20.87-11.977-.37 23.308"/><path d="m1715.72 646.026-20.81 12.077 20.37 11.335"/></g><g transform="matrix(3.216676 0 0 3.216676 -1962.0745 -1.9438)"><g stroke="#000"><g fill-rule="evenodd" stroke-width=".12"><g fill="#0139ab"><path d="m1106.2943 167.83435c.4633.0936.875-.009.9193-.22851.044-.21973-.2957-.47353-.7591-.56669-.4633-.0936-.875.009-.9193.22851-.044.21973.2957.47353.7591.56669z"/><path d="m1105.3444 169.44887c.4594-.11113.7892-.37798.7364-.59582-.053-.21783-.4682-.30406-.9275-.19253-.4594.11113-.7892.37797-.7364.59581.053.21784.4682.30407.9275.19254z"/><path d="m1109.2772 172.25837c.023-.47264-.1402-.85729-.3643-.85885-.2241-.002-.4241.38055-.4466.8532-.023.47264.1402.85729.3643.85885.224.002.4241-.38055.4466-.8532z"/><path d="m1106.3883 171.26738c.3242-.34388.4549-.74749.2918-.9012-.1632-.1537-.5583.00076-.8823.34495-.3242.34388-.4549.7475-.2918.9012.1632.15371.5583-.00076.8823-.34495z"/></g><path d="m1118.0257 162.16514c-.6645.0949-7.9742.2848-8.259 3.0378-.2848 2.75301 2.9429 2.37328 2.9429 2.37328l-.095.94932s-2.0884.37972-3.3225.37972-1.1392-1.42397-1.8037-1.61383c-.6646-.18986-.8544 1.04424-.8544 1.04424l-1.0443.0949.095 1.04425.6645.37972.095.75945.5696.85438.8544-.47465.2848 1.2341s.2848-.28479.6645-.37972c.3797-.0949.6645.47465.6645.47465s-.095-1.2341 1.0443-1.32903c1.1391-.0949 1.8986 1.2341 1.8986 1.2341v-1.32904l1.0442 1.04425.1899-1.42397 1.2341 1.2341.2848-1.2341.6645.56959v-1.23411l2.0885 1.04424.2848-1.2341 1.7087.47466-.5695-.56959h1.8037s-.6645-1.5189-1.2342-2.08849c-.5695-.56959-3.6073-1.5189-3.7023-2.37328s1.8037-2.94287 1.8037-2.94287z" fill="#f4c600"/><g fill="#0139ab"><path d="m1123.9736 171.27188c.4523-.1371.7664-.42228.7013-.63676-.065-.21448-.4847-.27693-.9369-.13944-.4524.13709-.7665.42228-.7014.63676.065.21448.4848.27693.937.13944z"/><path d="m1126.3587 172.04067c.1187-.45753.039-.8742-.1781-.93037-.217-.0562-.4889.26948-.6072.72711-.1186.45753-.039.8742.1782.93037.217.0562.4889-.26948.6071-.72711z"/><path d="m1129.025 171.81144c.4252.20656.8494.21053.9472.009.098-.20165-.1677-.53247-.593-.73865-.4251-.20656-.8494-.21054-.9472-.009-.098.20165.1677.53246.593.73865z"/><path d="m1123.7771 169.31871c.4716-.0312.8421-.23786.8272-.46151-.015-.22365-.4094-.37945-.881-.34788-.4717.0312-.8421.23786-.8273.46151.015.22365.4095.37945.8811.34788z"/><path d="m1088.3634 154.19806c.1486-.44869.097-.86973-.1163-.94011-.2128-.0704-.5056.23658-.6538.68539-.1486.44868-.097.86972.1162.94011.2128.0704.5057-.23658.6539-.68539z"/><path d="m1086.0619 152.95445c-.1939-.43106-.517-.70606-.7213-.61402-.2044.092-.2126.5162-.018.94709.1939.43106.5169.70606.7213.61402.2044-.092.2126-.5162.018-.94709z"/><path d="m1082.8038 157.25283c-.4727.004-.8543.18994-.852.41407 0 .22414.3874.40197.86.39707.4726-.005.8542-.18994.852-.41407 0-.22414-.3874-.40197-.86-.39707z"/><path d="m1083.3039 153.44548c-.4417-.16839-.8646-.13507-.9444.0744-.08.20947.2139.51567.6557.68368.4416.16839.8646.13507.9443-.0744.08-.20947-.2139-.51566-.6556-.68368z"/><path d="m1083.8158 167.13686c-.4724.0137-.8503.20661-.8437.43066.01.22405.3952.39431.8677.38016.4724-.0137.8503-.20661.8437-.43066-.01-.22405-.3952-.39431-.8677-.38016z"/><path d="m1082.9304 169.66977c-.3902.26688-.6039.63337-.4772.81831.1266.18494.5456.11821.9354-.14901.3901-.26688.6039-.63337.4772-.81831-.1266-.18494-.5456-.1182-.9354.14901z"/><path d="m1085.1236 171.86631c.1614-.44423.1214-.86659-.089-.94306-.2108-.0765-.5123.22196-.6734.66633-.1614.44423-.1214.86659.089.94306.2107.0765.5122-.22196.6733-.66633z"/><path d="m1087.4694 172.46663c.0002-.47266-.1814-.85605-.4056-.85605-.2241 0-.4058.38339-.4056.85605-.0002.47265.1815.85605.4056.85605.2242 0 .4058-.3834.4056-.85605z"/></g><g fill="#f4c600"><path d="m1114.1334 152.76699s-4.4617-.2848-5.1262 0c-.6645.28479-.7595 1.2341-1.424 1.2341s-2.9429-.18986-3.5125-.0949c-.5695.0949-1.8037.75945-1.8037 1.70876s.2372 2.56807 3.7024 2.65808c3.6548.0949 9.8728-2.27835 9.8728-2.27835l.095.94931s1.4239-1.61383 2.1834-1.70876c.7594-.0949 1.5189.37972 1.2341.75945-.2848.37972-.5696.66452-.5696.66452s1.7088-.47466 1.7088-1.04425-.3798-.66452-.3798-.66452 1.0443.0949 1.424 0 .7594.47466.5696.85438c-.1899.37973-.5696.94932-.5696.94932s1.7088-.47466 1.5189-.94932c-.1899-.47465-.1899-.75945-.1899-.75945s1.5189-.28479 1.8037.18987c.2848.47465-.6645 2.84793-.6645 2.84793s.5696-1.5189 1.8037-1.80369 1.8986-.56959 2.6581-.0949c.7594.47466 3.3226 1.5189 3.2276 2.84794 0 .66451-1.1392 1.2341-2.9428 1.32903-1.8037.0949-7.6895-1.32903-11.8664-1.32903-4.177 0-6.0756.75944-8.7337.94931-2.6581.18986-16.8028 0-16.8028 0s-3.5125-1.23411-4.177-2.46821c-.6645-1.23411.8544-2.56315.8544-2.56315l-.5696-.47465-.6645.47465s.5696-1.42396-.5696-1.42396-1.0443 1.42396-1.0443 1.42396-.7594-1.42396-1.2341-1.5189c-.4746-.0949-.7594 1.5189-.7594 1.5189s1.329.47466 1.2341 1.13918c-.095.66452-1.7088.66452-1.7088.66452s-.095 1.2341.2848 1.5189c.3797.28479 1.1392-.75945 1.5189-.66452.3797.0949.2848 3.13273.2848 3.13273l.5696-.66452.095 2.65807.5696-1.32904.095 2.94287 2.0885-1.42397-.9493 3.13273 1.3291-1.32903v1.89862l7.2147-1.5189-.7594 1.32904s-1.8986 1.61383-3.8922 1.80369-3.5124.37973-4.4618.2848c-.9493-.0949-1.8986-1.8037-2.2783-1.70877-.3797.0949.2848 1.04425-.095 1.5189-.3798.47466-1.8987.85438-1.424 1.13918.4746.28479 2.0885.18986 2.0885.66452 0 .47465-1.0443 1.13917-.2848 1.51889.7594.37973 1.7087-1.13917 1.8986-.75945.1899.37973-.1899 1.23411.5696 1.23411.7594 0 .7594-1.04424.7594-1.04424l3.7023 1.13917-.8543-1.42397s1.2341.75945 1.8037.94931c.5696.18987 1.4239.18987 1.4239.18987l-1.1391-1.5189 2.4682 1.32903-.5696-1.51889 2.0885 1.2341-.3798-1.32903s.8544.75944 1.519.75944c.6645 0 1.0442-.56958 1.0442-.56958l-.6645-.85438s.7594.47465 1.7087.56958c.9493.0949 2.4683-.56958 2.4683-.56958l-1.8037-.56959 1.7087-.56959-.8544-.56958 1.2341-2.08849s.4747.0949 2.1835 0c1.7087-.0949 7.1198-3.70232 9.3981-3.60739 2.2784.0949 6.4554 4.46177 8.354 4.36684 1.8986-.0949 5.4111-.37973 5.4111-.37973s-.5696 1.13918-.8544 1.70877c-.2848.56958-.2848 1.32903-.2848 1.32903l-1.8037-.28479s.095-.37973-.6645-.37973-.3797 1.42397-.3797 1.42397-.5696.94931-.095 1.04424c.4747.0949 1.1392-.66451 1.5189-.28479.3798.37973-.1898 1.13917.3798 1.23411.5695.0949.2847-1.42397 1.0442-1.32904.7594.0949 1.1392 1.04424 1.6138.94931.4747-.0949.6645-.94931.6645-.94931s-.6645-.28479-.6645-.75945.7595-1.70876 1.2341-1.70876c.4747 0 .3797.94931.3797.94931l.4747-1.04424.5696.18986-.7595-1.42397 1.6139.18986-.9493-1.04424 1.0442-.0949s-.7594-.37973-.7594-.94931c0-.56959.2848-1.42397.2848-1.42397s-2.0885.75945-4.272.18986c-2.1834-.56959-4.9364-3.22766-4.9364-3.22766s5.0314.85438 6.4554.75945c1.4239-.0949 3.2276-.18986 3.5124-1.32904.2848-1.13917-1.7087-4.2719-1.7087-4.2719v1.23411s-1.8987-1.99356-8.2591-2.46821c-6.3604-.47466-11.1069 3.79724-16.6129 3.32259-4.9365-.56959-2.753-3.51246-.2848-3.22766 1.5189.18986 3.8921 1.04424 5.0313 1.04424s3.0378-1.23411 3.4175-2.65807z"/><path d="m1093.1537 157.60848c-.3798 0-4.0821 3.51245-4.5567 4.17697-.4747.66452-.1899 1.70876-.1899 1.70876l1.6138-1.61383s-.4746.94931-.4746 1.70876.2848 1.61383.2848 1.61383l.8543-2.08848v3.70231l1.2341-1.80369-.7594 3.60739 1.6138-2.65808s-.8544 1.23411-.4746 2.08849c.3797.85438.6645 1.04424.6645 1.04424l.7594-3.13273s-.095 1.89863.2848 2.56315c.3798.66451 1.0443 1.04424 1.0443 1.04424s.095-1.23411.1898-2.18342c.095-.94931-.1898-1.70876-.1898-1.70876s.8544 1.13917.7594 1.80369-.3797 1.5189-.3797 1.5189 1.0442-1.04424 1.2341-1.89862-.1899-1.61383-.1899-1.61383.1899 1.80369.5696 2.27835c.3798.47465 1.0443 1.04424 1.0443 1.04424v-3.22766s.095 1.80369.5696 2.27835c.4746.47465 1.4239.47465 1.4239.47465s-.7594-1.32903-.8544-2.46821c-.095-1.13917.1899-1.61383.1899-1.61383s.2848 1.5189.3798 2.08849c.095.56958.2847 1.2341.2847 1.2341s.1899-1.61383.2848-2.27835c.095-.66452-.095-1.13917-.095-1.13917s.8544 1.32904.6645 1.70876c-.1898.37973 0 .75945 0 .75945s.4747-1.70876.4747-2.46821-.4747-1.42397-.4747-1.42397l1.2341 1.70876s.3798-1.61383-.1899-3.13273c-.5695-1.5189-3.5124-3.22766-3.5124-3.22766z"/><path d="m1091.8246 155.51999s-1.0442.85438-1.0442 1.89863c0 1.04424.6645 1.32903.6645 1.32903l-.3797 1.89863.6645-.37973.095 1.89862.6645-.94931.2848 1.80369.6645-.66451v1.80369l.6646-.85438.3797.94931.5696-1.04424.5696.94931.4746-.94931 1.1392.28479-.1899-.56959.7595.0949-.2848-1.5189.7594 1.04425.095-1.23411.8543.56959s.5697-2.46821.5697-3.98711-.4747-2.37328-.4747-2.37328l.9493-1.42397-1.6138.47466-.4747-1.32904-.9493.75945-.2848-.56959-.3797.47466-.4747-1.13917-.6645 1.13917-1.0442-.75945-.1899 1.04424-.8544-.37972-.095.94931s-1.424-1.04424-1.8986-1.04424c-.4747 0 .4746 1.80369.4746 1.80369z"/></g></g><path d="m1092.4891 158.36793c.6646-.18987.2848 1.70876 1.0443 1.89862.7594.18986 1.8037-.66452 1.8037-.66452s.2848.94931 1.1391.85438c.8544-.0949 1.3291-1.99355 1.3291-1.99355" fill="none" stroke-width=".171635"/></g><path d="m1094.008 161.78545s.9643-1.22369 1.0034-2.03375c.038-.78866-.5079-.87228-.5031-1.20638 0-.33411.2213-.45196.686-.46842.487-.0172.8217.19898.8454.53147.022.31043-.7026.32914-.7026 1.18352 0 .85439 1.0442 1.99356 1.0442 1.99356s-.598-.0949-.7878 0c-.1899.0949-.3514.75945-.3514.75945s.044-.59176-.4303-.68669c-.4746-.0949-.8038-.0728-.8038-.0728z" fill-rule="evenodd"/><path d="m1095.5876 161.12711c.0002-.47266-.1814-.85605-.4055-.85605-.2242 0-.4058.38339-.4056.85605-.0002.47265.1814.85604.4056.85604.2241 0 .4057-.38339.4055-.85604z" fill="#0139ab" fill-rule="evenodd"/><g stroke="#000"><path d="m1095.0398 155.91338c-.4725.39795-.8473.27236-1.5064-.0137-.037.32333.2848 1.42397.8544 1.32904.5696-.0949.652-1.31537.652-1.31537zm-.4244.6728c0 .17505-.1421.31712-.3171.31712-.1751 0-.3172-.14207-.3172-.31712 0-.17504.1421-.31711.3172-.31711.175 0 .3171.14207.3171.31711z" fill="#fff" fill-rule="evenodd" stroke-width=".08"/><path d="m1096.0929 155.98779c.4726.39794.8225.0485 1.4816-.23752.037.32333-.2724 1.58564-.842 1.49071-.5695-.0949-.6396-1.10396-.6396-1.25319zm.412.61062c0 .17504.1421.31711.3172.31711.175 0 .3171-.14207.3171-.31711 0-.17505-.1421-.31712-.3171-.31712-.1751 0-.3172.14207-.3172.31712z" fill="#fff" fill-rule="evenodd" stroke-width=".08"/><g fill="none" stroke-width=".12"><path d="m1101.2037 166.9795c.07-.14069.809-1.82904.809-1.82904s.035 1.02004.1759.84417c.1407-.17587.4924-1.26626.4924-1.26626s.4925.70348.6332.45726c.1406-.24621.3517-.56278.3517-.56278s.3166.91452.3869.6683c.07-.24621.3517-.80899.3517-.80899s.4573.91452.4573.70347c0-.21104.1407-.87934.1407-.87934l.3517.49243.598-.809s-.07.9497.07.70348c.1407-.24622.3869-.77383.3869-.77383s.387.59796.5628.35174c.1759-.24621.2814-.45726.2814-.45726h.4573l.3165-.52761.387.42209.2814-.38691"/><path d="m1114.7808 166.41672c1.4774-.0352 1.5477-.56278 1.5477-.56278"/><path d="m1116.0119 166.94433s.6683-.10552.9145-.45726"/><path d="m1116.9264 167.33124c.9146-.0352.8794-.49243.8794-.49243"/><path d="m1117.9465 167.61263c.8793.21105.7387-.49243.7387-.49243"/><path d="m1118.5796 168.35128c.4573-.0352.5276-.59795.5276-.59795"/><path d="m1123.0467 162.40689c1.1608-.21104.9145-.0352.9145-.0352"/><path d="m1123.6798 163.00485c.5628.0352.9146-.42209.9146-.42209"/><path d="m1124.3481 163.42694c.598-.0703.6684-.42209.6684-.42209"/><path d="m1125.1571 163.77868c.5628-.0703.6332-.38692.6332-.38692"/><path d="m1125.8255 164.09524c.5979-.24621.4924-.42209.4924-.42209"/></g></g><g fill-rule="evenodd"><path d="m1113.701 153.01264c-2.0876-.26548-2.4134.97742-2.4134.97742s1.2429-.49474 1.3515-.37407-.2414.82055-.097.74815c.1448-.0724.9895-.66369 1.1585-1.3515z"/><g stroke="#000" stroke-width=".045366"><path d="m1094.1942 156.85109c-.1965-.073-.2505-.30476-.105-.45027.1881-.18813.499-.059.499.20721 0 .16969-.2224.30686-.394.24306z" opacity=".99"/><path d="m1096.6297 156.80912c-.116-.116-.116-.2923 0-.4083.1266-.12661.292-.11485.405.0288.1218.15487.1185.22302-.017.35888-.135.13501-.2663.14199-.3876.0206z" opacity=".99"/></g></g></g><g transform="matrix(3.216676 0 0 3.216676 -1962.0584 -165.82581)"><g stroke="#000"><g fill-rule="evenodd" stroke-width=".12"><g fill="#0139ab"><path d="m1106.2943 167.83435c.4633.0936.875-.009.9193-.22851.044-.21973-.2957-.47353-.7591-.56669-.4633-.0936-.875.009-.9193.22851-.044.21973.2957.47353.7591.56669z"/><path d="m1105.3444 169.44887c.4594-.11113.7892-.37798.7364-.59582-.053-.21783-.4682-.30406-.9275-.19253-.4594.11113-.7892.37797-.7364.59581.053.21784.4682.30407.9275.19254z"/><path d="m1109.2772 172.25837c.023-.47264-.1402-.85729-.3643-.85885-.2241-.002-.4241.38055-.4466.8532-.023.47264.1402.85729.3643.85885.224.002.4241-.38055.4466-.8532z"/><path d="m1106.3883 171.26738c.3242-.34388.4549-.74749.2918-.9012-.1632-.1537-.5583.00076-.8823.34495-.3242.34388-.4549.7475-.2918.9012.1632.15371.5583-.00076.8823-.34495z"/></g><path d="m1118.0257 162.16514c-.6645.0949-7.9742.2848-8.259 3.0378-.2848 2.75301 2.9429 2.37328 2.9429 2.37328l-.095.94932s-2.0884.37972-3.3225.37972-1.1392-1.42397-1.8037-1.61383c-.6646-.18986-.8544 1.04424-.8544 1.04424l-1.0443.0949.095 1.04425.6645.37972.095.75945.5696.85438.8544-.47465.2848 1.2341s.2848-.28479.6645-.37972c.3797-.0949.6645.47465.6645.47465s-.095-1.2341 1.0443-1.32903c1.1391-.0949 1.8986 1.2341 1.8986 1.2341v-1.32904l1.0442 1.04425.1899-1.42397 1.2341 1.2341.2848-1.2341.6645.56959v-1.23411l2.0885 1.04424.2848-1.2341 1.7087.47466-.5695-.56959h1.8037s-.6645-1.5189-1.2342-2.08849c-.5695-.56959-3.6073-1.5189-3.7023-2.37328s1.8037-2.94287 1.8037-2.94287z" fill="#f4c600"/><g fill="#0139ab"><path d="m1123.9736 171.27188c.4523-.1371.7664-.42228.7013-.63676-.065-.21448-.4847-.27693-.9369-.13944-.4524.13709-.7665.42228-.7014.63676.065.21448.4848.27693.937.13944z"/><path d="m1126.3587 172.04067c.1187-.45753.039-.8742-.1781-.93037-.217-.0562-.4889.26948-.6072.72711-.1186.45753-.039.8742.1782.93037.217.0562.4889-.26948.6071-.72711z"/><path d="m1129.025 171.81144c.4252.20656.8494.21053.9472.009.098-.20165-.1677-.53247-.593-.73865-.4251-.20656-.8494-.21054-.9472-.009-.098.20165.1677.53246.593.73865z"/><path d="m1123.7771 169.31871c.4716-.0312.8421-.23786.8272-.46151-.015-.22365-.4094-.37945-.881-.34788-.4717.0312-.8421.23786-.8273.46151.015.22365.4095.37945.8811.34788z"/><path d="m1088.3634 154.19806c.1486-.44869.097-.86973-.1163-.94011-.2128-.0704-.5056.23658-.6538.68539-.1486.44868-.097.86972.1162.94011.2128.0704.5057-.23658.6539-.68539z"/><path d="m1086.0619 152.95445c-.1939-.43106-.517-.70606-.7213-.61402-.2044.092-.2126.5162-.018.94709.1939.43106.5169.70606.7213.61402.2044-.092.2126-.5162.018-.94709z"/><path d="m1082.8038 157.25283c-.4727.004-.8543.18994-.852.41407 0 .22414.3874.40197.86.39707.4726-.005.8542-.18994.852-.41407 0-.22414-.3874-.40197-.86-.39707z"/><path d="m1083.3039 153.44548c-.4417-.16839-.8646-.13507-.9444.0744-.08.20947.2139.51567.6557.68368.4416.16839.8646.13507.9443-.0744.08-.20947-.2139-.51566-.6556-.68368z"/><path d="m1083.8158 167.13686c-.4724.0137-.8503.20661-.8437.43066.01.22405.3952.39431.8677.38016.4724-.0137.8503-.20661.8437-.43066-.01-.22405-.3952-.39431-.8677-.38016z"/><path d="m1082.9304 169.66977c-.3902.26688-.6039.63337-.4772.81831.1266.18494.5456.11821.9354-.14901.3901-.26688.6039-.63337.4772-.81831-.1266-.18494-.5456-.1182-.9354.14901z"/><path d="m1085.1236 171.86631c.1614-.44423.1214-.86659-.089-.94306-.2108-.0765-.5123.22196-.6734.66633-.1614.44423-.1214.86659.089.94306.2107.0765.5122-.22196.6733-.66633z"/><path d="m1087.4694 172.46663c.0002-.47266-.1814-.85605-.4056-.85605-.2241 0-.4058.38339-.4056.85605-.0002.47265.1815.85605.4056.85605.2242 0 .4058-.3834.4056-.85605z"/></g><g fill="#f4c600"><path d="m1114.1334 152.76699s-4.4617-.2848-5.1262 0c-.6645.28479-.7595 1.2341-1.424 1.2341s-2.9429-.18986-3.5125-.0949c-.5695.0949-1.8037.75945-1.8037 1.70876s.2372 2.56807 3.7024 2.65808c3.6548.0949 9.8728-2.27835 9.8728-2.27835l.095.94931s1.4239-1.61383 2.1834-1.70876c.7594-.0949 1.5189.37972 1.2341.75945-.2848.37972-.5696.66452-.5696.66452s1.7088-.47466 1.7088-1.04425-.3798-.66452-.3798-.66452 1.0443.0949 1.424 0 .7594.47466.5696.85438c-.1899.37973-.5696.94932-.5696.94932s1.7088-.47466 1.5189-.94932c-.1899-.47465-.1899-.75945-.1899-.75945s1.5189-.28479 1.8037.18987c.2848.47465-.6645 2.84793-.6645 2.84793s.5696-1.5189 1.8037-1.80369 1.8986-.56959 2.6581-.0949c.7594.47466 3.3226 1.5189 3.2276 2.84794 0 .66451-1.1392 1.2341-2.9428 1.32903-1.8037.0949-7.6895-1.32903-11.8664-1.32903-4.177 0-6.0756.75944-8.7337.94931-2.6581.18986-16.8028 0-16.8028 0s-3.5125-1.23411-4.177-2.46821c-.6645-1.23411.8544-2.56315.8544-2.56315l-.5696-.47465-.6645.47465s.5696-1.42396-.5696-1.42396-1.0443 1.42396-1.0443 1.42396-.7594-1.42396-1.2341-1.5189c-.4746-.0949-.7594 1.5189-.7594 1.5189s1.329.47466 1.2341 1.13918c-.095.66452-1.7088.66452-1.7088.66452s-.095 1.2341.2848 1.5189c.3797.28479 1.1392-.75945 1.5189-.66452.3797.0949.2848 3.13273.2848 3.13273l.5696-.66452.095 2.65807.5696-1.32904.095 2.94287 2.0885-1.42397-.9493 3.13273 1.3291-1.32903v1.89862l7.2147-1.5189-.7594 1.32904s-1.8986 1.61383-3.8922 1.80369-3.5124.37973-4.4618.2848c-.9493-.0949-1.8986-1.8037-2.2783-1.70877-.3797.0949.2848 1.04425-.095 1.5189-.3798.47466-1.8987.85438-1.424 1.13918.4746.28479 2.0885.18986 2.0885.66452 0 .47465-1.0443 1.13917-.2848 1.51889.7594.37973 1.7087-1.13917 1.8986-.75945.1899.37973-.1899 1.23411.5696 1.23411.7594 0 .7594-1.04424.7594-1.04424l3.7023 1.13917-.8543-1.42397s1.2341.75945 1.8037.94931c.5696.18987 1.4239.18987 1.4239.18987l-1.1391-1.5189 2.4682 1.32903-.5696-1.51889 2.0885 1.2341-.3798-1.32903s.8544.75944 1.519.75944c.6645 0 1.0442-.56958 1.0442-.56958l-.6645-.85438s.7594.47465 1.7087.56958c.9493.0949 2.4683-.56958 2.4683-.56958l-1.8037-.56959 1.7087-.56959-.8544-.56958 1.2341-2.08849s.4747.0949 2.1835 0c1.7087-.0949 7.1198-3.70232 9.3981-3.60739 2.2784.0949 6.4554 4.46177 8.354 4.36684 1.8986-.0949 5.4111-.37973 5.4111-.37973s-.5696 1.13918-.8544 1.70877c-.2848.56958-.2848 1.32903-.2848 1.32903l-1.8037-.28479s.095-.37973-.6645-.37973-.3797 1.42397-.3797 1.42397-.5696.94931-.095 1.04424c.4747.0949 1.1392-.66451 1.5189-.28479.3798.37973-.1898 1.13917.3798 1.23411.5695.0949.2847-1.42397 1.0442-1.32904.7594.0949 1.1392 1.04424 1.6138.94931.4747-.0949.6645-.94931.6645-.94931s-.6645-.28479-.6645-.75945.7595-1.70876 1.2341-1.70876c.4747 0 .3797.94931.3797.94931l.4747-1.04424.5696.18986-.7595-1.42397 1.6139.18986-.9493-1.04424 1.0442-.0949s-.7594-.37973-.7594-.94931c0-.56959.2848-1.42397.2848-1.42397s-2.0885.75945-4.272.18986c-2.1834-.56959-4.9364-3.22766-4.9364-3.22766s5.0314.85438 6.4554.75945c1.4239-.0949 3.2276-.18986 3.5124-1.32904.2848-1.13917-1.7087-4.2719-1.7087-4.2719v1.23411s-1.8987-1.99356-8.2591-2.46821c-6.3604-.47466-11.1069 3.79724-16.6129 3.32259-4.9365-.56959-2.753-3.51246-.2848-3.22766 1.5189.18986 3.8921 1.04424 5.0313 1.04424s3.0378-1.23411 3.4175-2.65807z"/><path d="m1093.1537 157.60848c-.3798 0-4.0821 3.51245-4.5567 4.17697-.4747.66452-.1899 1.70876-.1899 1.70876l1.6138-1.61383s-.4746.94931-.4746 1.70876.2848 1.61383.2848 1.61383l.8543-2.08848v3.70231l1.2341-1.80369-.7594 3.60739 1.6138-2.65808s-.8544 1.23411-.4746 2.08849c.3797.85438.6645 1.04424.6645 1.04424l.7594-3.13273s-.095 1.89863.2848 2.56315c.3798.66451 1.0443 1.04424 1.0443 1.04424s.095-1.23411.1898-2.18342c.095-.94931-.1898-1.70876-.1898-1.70876s.8544 1.13917.7594 1.80369-.3797 1.5189-.3797 1.5189 1.0442-1.04424 1.2341-1.89862-.1899-1.61383-.1899-1.61383.1899 1.80369.5696 2.27835c.3798.47465 1.0443 1.04424 1.0443 1.04424v-3.22766s.095 1.80369.5696 2.27835c.4746.47465 1.4239.47465 1.4239.47465s-.7594-1.32903-.8544-2.46821c-.095-1.13917.1899-1.61383.1899-1.61383s.2848 1.5189.3798 2.08849c.095.56958.2847 1.2341.2847 1.2341s.1899-1.61383.2848-2.27835c.095-.66452-.095-1.13917-.095-1.13917s.8544 1.32904.6645 1.70876c-.1898.37973 0 .75945 0 .75945s.4747-1.70876.4747-2.46821-.4747-1.42397-.4747-1.42397l1.2341 1.70876s.3798-1.61383-.1899-3.13273c-.5695-1.5189-3.5124-3.22766-3.5124-3.22766z"/><path d="m1091.8246 155.51999s-1.0442.85438-1.0442 1.89863c0 1.04424.6645 1.32903.6645 1.32903l-.3797 1.89863.6645-.37973.095 1.89862.6645-.94931.2848 1.80369.6645-.66451v1.80369l.6646-.85438.3797.94931.5696-1.04424.5696.94931.4746-.94931 1.1392.28479-.1899-.56959.7595.0949-.2848-1.5189.7594 1.04425.095-1.23411.8543.56959s.5697-2.46821.5697-3.98711-.4747-2.37328-.4747-2.37328l.9493-1.42397-1.6138.47466-.4747-1.32904-.9493.75945-.2848-.56959-.3797.47466-.4747-1.13917-.6645 1.13917-1.0442-.75945-.1899 1.04424-.8544-.37972-.095.94931s-1.424-1.04424-1.8986-1.04424c-.4747 0 .4746 1.80369.4746 1.80369z"/></g></g><path d="m1092.4891 158.36793c.6646-.18987.2848 1.70876 1.0443 1.89862.7594.18986 1.8037-.66452 1.8037-.66452s.2848.94931 1.1391.85438c.8544-.0949 1.3291-1.99355 1.3291-1.99355" fill="none" stroke-width=".171635"/></g><path d="m1094.008 161.78545s.9643-1.22369 1.0034-2.03375c.038-.78866-.5079-.87228-.5031-1.20638 0-.33411.2213-.45196.686-.46842.487-.0172.8217.19898.8454.53147.022.31043-.7026.32914-.7026 1.18352 0 .85439 1.0442 1.99356 1.0442 1.99356s-.598-.0949-.7878 0c-.1899.0949-.3514.75945-.3514.75945s.044-.59176-.4303-.68669c-.4746-.0949-.8038-.0728-.8038-.0728z" fill-rule="evenodd"/><path d="m1095.5876 161.12711c.0002-.47266-.1814-.85605-.4055-.85605-.2242 0-.4058.38339-.4056.85605-.0002.47265.1814.85604.4056.85604.2241 0 .4057-.38339.4055-.85604z" fill="#0139ab" fill-rule="evenodd"/><g stroke="#000"><path d="m1095.0398 155.91338c-.4725.39795-.8473.27236-1.5064-.0137-.037.32333.2848 1.42397.8544 1.32904.5696-.0949.652-1.31537.652-1.31537zm-.4244.6728c0 .17505-.1421.31712-.3171.31712-.1751 0-.3172-.14207-.3172-.31712 0-.17504.1421-.31711.3172-.31711.175 0 .3171.14207.3171.31711z" fill="#fff" fill-rule="evenodd" stroke-width=".08"/><path d="m1096.0929 155.98779c.4726.39794.8225.0485 1.4816-.23752.037.32333-.2724 1.58564-.842 1.49071-.5695-.0949-.6396-1.10396-.6396-1.25319zm.412.61062c0 .17504.1421.31711.3172.31711.175 0 .3171-.14207.3171-.31711 0-.17505-.1421-.31712-.3171-.31712-.1751 0-.3172.14207-.3172.31712z" fill="#fff" fill-rule="evenodd" stroke-width=".08"/><g fill="none" stroke-width=".12"><path d="m1101.2037 166.9795c.07-.14069.809-1.82904.809-1.82904s.035 1.02004.1759.84417c.1407-.17587.4924-1.26626.4924-1.26626s.4925.70348.6332.45726c.1406-.24621.3517-.56278.3517-.56278s.3166.91452.3869.6683c.07-.24621.3517-.80899.3517-.80899s.4573.91452.4573.70347c0-.21104.1407-.87934.1407-.87934l.3517.49243.598-.809s-.07.9497.07.70348c.1407-.24622.3869-.77383.3869-.77383s.387.59796.5628.35174c.1759-.24621.2814-.45726.2814-.45726h.4573l.3165-.52761.387.42209.2814-.38691"/><path d="m1114.7808 166.41672c1.4774-.0352 1.5477-.56278 1.5477-.56278"/><path d="m1116.0119 166.94433s.6683-.10552.9145-.45726"/><path d="m1116.9264 167.33124c.9146-.0352.8794-.49243.8794-.49243"/><path d="m1117.9465 167.61263c.8793.21105.7387-.49243.7387-.49243"/><path d="m1118.5796 168.35128c.4573-.0352.5276-.59795.5276-.59795"/><path d="m1123.0467 162.40689c1.1608-.21104.9145-.0352.9145-.0352"/><path d="m1123.6798 163.00485c.5628.0352.9146-.42209.9146-.42209"/><path d="m1124.3481 163.42694c.598-.0703.6684-.42209.6684-.42209"/><path d="m1125.1571 163.77868c.5628-.0703.6332-.38692.6332-.38692"/><path d="m1125.8255 164.09524c.5979-.24621.4924-.42209.4924-.42209"/></g></g><g fill-rule="evenodd"><path d="m1113.701 153.01264c-2.0876-.26548-2.4134.97742-2.4134.97742s1.2429-.49474 1.3515-.37407-.2414.82055-.097.74815c.1448-.0724.9895-.66369 1.1585-1.3515z"/><g stroke="#000" stroke-width=".045366"><path d="m1094.1942 156.85109c-.1965-.073-.2505-.30476-.105-.45027.1881-.18813.499-.059.499.20721 0 .16969-.2224.30686-.394.24306z" opacity=".99"/><path d="m1096.6297 156.80912c-.116-.116-.116-.2923 0-.4083.1266-.12661.292-.11485.405.0288.1218.15487.1185.22302-.017.35888-.135.13501-.2663.14199-.3876.0206z" opacity=".99"/></g></g></g><g transform="rotate(-90)"><path d="m-563.78955 1514.3492h1.8v170.5h-1.8z"/><path d="m-399.90527 1514.3643h1.8v170.5h-1.8z"/></g></svg>