<?xml version="1.0" encoding="UTF-8" standalone="no"?>
<!-- Created with Inkscape (http://www.inkscape.org/) -->

<svg
   xmlns:dc="http://purl.org/dc/elements/1.1/"
   xmlns:cc="http://creativecommons.org/ns#"
   xmlns:rdf="http://www.w3.org/1999/02/22-rdf-syntax-ns#"
   xmlns:svg="http://www.w3.org/2000/svg"
   xmlns="http://www.w3.org/2000/svg"
   xmlns:sodipodi="http://sodipodi.sourceforge.net/DTD/sodipodi-0.dtd"
   xmlns:inkscape="http://www.inkscape.org/namespaces/inkscape"
   width="601"
   height="401"
   id="svg2"
   inkscape:label="Pozadí"
   version="1.1"
   inkscape:version="0.48.1 "
   sodipodi:docname="Flag of Ostrata.svg">
  <defs
     id="defs3869" />
  <sodipodi:namedview
     id="base"
     pagecolor="#ffffff"
     bordercolor="#666666"
     borderopacity="1.0"
     inkscape:pageopacity="0.0"
     inkscape:pageshadow="2"
     inkscape:zoom="0.98994949"
     inkscape:cx="380.52341"
     inkscape:cy="128.9412"
     inkscape:document-units="px"
     inkscape:current-layer="layer5"
     showgrid="false"
     fit-margin-top="0"
     fit-margin-left="0"
     fit-margin-right="0"
     fit-margin-bottom="0"
     inkscape:snap-page="true"
     inkscape:window-width="1280"
     inkscape:window-height="1002"
     inkscape:window-x="1272"
     inkscape:window-y="18"
     inkscape:window-maximized="1" />
  <metadata
     id="metadata3872">
    <rdf:RDF>
      <cc:Work
         rdf:about="">
        <dc:format>image/svg+xml</dc:format>
        <dc:type
           rdf:resource="http://purl.org/dc/dcmitype/StillImage" />
        <dc:title></dc:title>
      </cc:Work>
    </rdf:RDF>
  </metadata>
  <g
     inkscape:groupmode="layer"
     id="layer5"
     inkscape:label="vlajka"
     style="display:inline"
     transform="translate(0.5,0.5)">
    <path
       style="fill:#ffffff;fill-opacity:1;fill-rule:nonzero;stroke:#000000;stroke-width:1;stroke-linecap:round;stroke-linejoin:round;stroke-miterlimit:4;stroke-opacity:1;stroke-dasharray:none"
       d="m 600,320.90625 -600,0 0,77.78125 C 0,399.41417 0.58583293,400 1.3125,400 l 597.375,0 c 0.72667,0 1.3125,-0.58583 1.3125,-1.3125 l 0,-77.78125 z"
       id="path4457"
       inkscape:connector-curvature="0" />
    <path
       style="fill:#0055fe;fill-opacity:1;fill-rule:nonzero;stroke:#000000;stroke-width:1;stroke-linecap:round;stroke-linejoin:round;stroke-miterlimit:4;stroke-opacity:1;stroke-dasharray:none"
       d="m 600,80.125 -600,0 0,240.78125 600,0 0,-240.78125 z"
       id="path4455"
       inkscape:connector-curvature="0" />
    <path
       style="fill:#ffffff;fill-opacity:1;fill-rule:nonzero;stroke:#000000;stroke-width:1;stroke-linecap:round;stroke-linejoin:round;stroke-miterlimit:4;stroke-opacity:1;stroke-dasharray:none"
       d="M 1.3125,0 C 0.58583293,0 0,0.58583293 0,1.3125 l 0,78.8125 600,0 0,-78.8125 C 600,0.58583293 599.41417,0 598.6875,0 L 1.3125,0 z"
       id="rect4450"
       inkscape:connector-curvature="0" />
  </g>
  <g
     inkscape:groupmode="layer"
     id="layer4"
     inkscape:label="obr"
     style="display:inline"
     transform="translate(0.5,0.5)">
    <path
       sodipodi:type="star"
       style="fill:#fed504;fill-opacity:1;stroke:#000000;stroke-width:1;stroke-linecap:round;stroke-linejoin:round;stroke-miterlimit:4;stroke-opacity:1;stroke-dasharray:none"
       id="path4397"
       sodipodi:sides="8"
       sodipodi:cx="238.396"
       sodipodi:cy="107.56084"
       sodipodi:r1="60"
       sodipodi:r2="10.536843"
       sodipodi:arg1="0.78539817"
       sodipodi:arg2="1.1111914"
       inkscape:flatsided="false"
       inkscape:rounded="0"
       inkscape:randomized="0"
       d="m 280.8224,149.98724 -37.75232,-32.98299 -4.67408,50.55659 -3.37243,-50.01743 -39.05398,32.44383 32.98299,-37.75232 -50.55658,-4.67408 50.01742,-3.37243 -32.44383,-39.05398 37.75232,32.982995 4.67409,-50.556588 3.37242,50.017425 39.05398,-32.443832 -32.98299,37.75233 50.55659,4.67408 -50.01743,3.37242 z"
       transform="matrix(0.87056559,0,0,0.87898353,94.243717,107.71844)" />
    <path
       style="fill:#fed504;fill-opacity:1;stroke:#000000;stroke-width:1px;stroke-linecap:butt;stroke-linejoin:miter;stroke-opacity:1"
       d="m 381.07143,293.21429 c 36.75955,-8.08018 40.95891,-26.56895 19.64286,-53.21429 16.61085,4.61264 30.76242,14.45127 43.57142,27.14286 12.71818,-33.06401 -5.76006,-43.84486 -25.71428,-53.57143 13.22551,-4.7799 26.89364,-5.57627 41.07143,-1.78572 -6.64361,-19.88895 -22.1008,-26.21855 -41.07143,-27.14285 11.17014,-7.31615 23.11582,-12.56416 35.71429,-16.07143 -17.52635,-24.5812 -38.87077,-12.32326 -52.14286,-9.64286 6.13255,-9.4268 14.82409,-17.47567 27.14285,-23.57143 -21.20387,-11.09179 -35.52709,-0.2747 -50.35714,8.92857 4.43198,-9.8828 12.49151,-17.12738 22.14286,-23.21428 -23.66683,-9.11199 -30.5383,4.47212 -41.78572,12.14286 0.45028,-4.72853 1.39554,-9.84204 6.07143,-17.85715 -20.24869,3.85381 -24.23347,12.81914 -28.21428,21.78572 39.55182,18.46719 60.6082,39.28102 55.28709,58.80154 -2.59865,9.53318 -21.62475,15.17797 -32.51522,17.80489 -7.01638,1.69244 -10.28099,7.17177 -7.36895,11.8704 13.43747,21.68162 41.56357,39.83878 28.52565,67.5946 z"
       id="path4399"
       inkscape:connector-curvature="0"
       sodipodi:nodetypes="ccccccccccccccsssc" />
    <path
       style="fill:none;stroke:#000000;stroke-width:1px;stroke-linecap:butt;stroke-linejoin:miter;stroke-opacity:1"
       d="m 383.85797,246.70935 -11.36422,-15.65736 c 84.56338,-25.27203 20.84754,-83.26261 -21.97082,-98.23734 l 4.79823,-6.81853"
       id="path4401"
       inkscape:connector-curvature="0"
       sodipodi:nodetypes="cccc" />
    <path
       style="fill:none;stroke:#000000;stroke-width:1px;stroke-linecap:butt;stroke-linejoin:miter;stroke-opacity:1"
       d="m 367.8881,140.24286 c 2.03682,-4.01056 4.76002,-8.07916 9.15134,-10.20613"
       id="path4403"
       inkscape:connector-curvature="0"
       sodipodi:nodetypes="cc" />
    <path
       style="fill:none;stroke:#000000;stroke-width:1px;stroke-linecap:butt;stroke-linejoin:miter;stroke-opacity:1"
       d="m 386.81183,152.91572 c 5.21933,-4.27185 11.69446,-9.80876 18.76442,-11.76731"
       id="path4405"
       inkscape:connector-curvature="0"
       sodipodi:nodetypes="cc" />
    <path
       style="fill:none;stroke:#000000;stroke-width:1px;stroke-linecap:butt;stroke-linejoin:miter;stroke-opacity:1"
       d="m 408.071,175.39031 c 5.32111,-5.90676 14.44396,-9.67507 24.02175,-12.27108"
       id="path4407"
       inkscape:connector-curvature="0"
       sodipodi:nodetypes="cc" />
    <path
       style="fill:none;stroke:#000000;stroke-width:1px;stroke-linecap:butt;stroke-linejoin:miter;stroke-opacity:1"
       d="m 414.17655,197.43509 c 8.3224,-2.24348 16.61803,0.46831 24.48219,2.80724"
       id="path4409"
       inkscape:connector-curvature="0"
       sodipodi:nodetypes="cc" />
    <path
       style="fill:none;stroke:#000000;stroke-width:1px;stroke-linecap:butt;stroke-linejoin:miter;stroke-opacity:1"
       d="m 398.861,219.46456 c 12.70291,2.79968 22.67869,9.19216 29.19114,18.65849"
       id="path4411"
       inkscape:connector-curvature="0"
       sodipodi:nodetypes="cc" />
    <path
       style="fill:#fed504;fill-opacity:1;stroke:#000000;stroke-width:1px;stroke-linecap:butt;stroke-linejoin:miter;stroke-opacity:1"
       d="m 223.03571,293.21428 c -36.75955,-8.08018 -40.95891,-26.56895 -19.64286,-53.21429 -16.61085,4.61264 -30.76242,14.45127 -43.57142,27.14286 -12.71818,-33.06401 5.76006,-43.84486 25.71428,-53.57143 -13.22551,-4.7799 -26.89364,-5.57627 -41.07143,-1.78572 6.64361,-19.88895 22.1008,-26.21855 41.07143,-27.14285 -11.17014,-7.31615 -23.11582,-12.56416 -35.71429,-16.07143 17.52635,-24.5812 38.87077,-12.32326 52.14286,-9.64286 -6.13255,-9.4268 -14.82409,-17.47567 -27.14285,-23.57143 21.20387,-11.09179 35.52709,-0.2747 50.35714,8.92857 -4.43198,-9.8828 -12.49151,-17.12738 -22.14286,-23.21428 23.66683,-9.11199 30.5383,4.47212 41.78572,12.14286 -0.45028,-4.72853 -1.39554,-9.84204 -6.07143,-17.85715 20.24869,3.85381 24.23347,12.81914 28.21428,21.78572 -39.55182,18.46719 -60.6082,39.28102 -55.28709,58.80154 2.59865,9.53318 21.62475,15.17797 32.51522,17.80489 7.01638,1.69244 10.28099,7.17177 7.36895,11.8704 -13.43747,21.68162 -41.56357,39.83878 -28.52565,67.5946 z"
       id="path4399-0"
       inkscape:connector-curvature="0"
       sodipodi:nodetypes="ccccccccccccccsssc" />
    <path
       style="fill:none;stroke:#000000;stroke-width:1px;stroke-linecap:butt;stroke-linejoin:miter;stroke-opacity:1"
       d="m 220.24917,246.70934 11.36422,-15.65736 c -84.56338,-25.27203 -20.84754,-83.26261 21.97082,-98.23734 l -4.79823,-6.81853"
       id="path4401-6"
       inkscape:connector-curvature="0"
       sodipodi:nodetypes="cccc" />
    <path
       style="fill:none;stroke:#000000;stroke-width:1px;stroke-linecap:butt;stroke-linejoin:miter;stroke-opacity:1"
       d="m 236.21904,140.24285 c -2.03682,-4.01056 -4.76002,-8.07916 -9.15134,-10.20613"
       id="path4403-0"
       inkscape:connector-curvature="0"
       sodipodi:nodetypes="cc" />
    <path
       style="fill:none;stroke:#000000;stroke-width:1px;stroke-linecap:butt;stroke-linejoin:miter;stroke-opacity:1"
       d="m 217.29531,152.91571 c -5.21933,-4.27185 -11.69446,-9.80876 -18.76442,-11.76731"
       id="path4405-9"
       inkscape:connector-curvature="0"
       sodipodi:nodetypes="cc" />
    <path
       style="fill:none;stroke:#000000;stroke-width:1px;stroke-linecap:butt;stroke-linejoin:miter;stroke-opacity:1"
       d="m 196.03614,175.3903 c -5.32111,-5.90676 -14.44396,-9.67507 -24.02175,-12.27108"
       id="path4407-0"
       inkscape:connector-curvature="0"
       sodipodi:nodetypes="cc" />
    <path
       style="fill:none;stroke:#000000;stroke-width:1px;stroke-linecap:butt;stroke-linejoin:miter;stroke-opacity:1"
       d="m 189.93059,197.43508 c -8.3224,-2.24348 -16.61803,0.46831 -24.48219,2.80724"
       id="path4409-8"
       inkscape:connector-curvature="0"
       sodipodi:nodetypes="cc" />
    <path
       style="fill:none;stroke:#000000;stroke-width:1px;stroke-linecap:butt;stroke-linejoin:miter;stroke-opacity:1"
       d="m 205.24614,219.46455 c -12.70291,2.79968 -22.67869,9.19216 -29.19114,18.65849"
       id="path4411-4"
       inkscape:connector-curvature="0"
       sodipodi:nodetypes="cc" />
  </g>
</svg>
