<svg xmlns="http://www.w3.org/2000/svg" width="1000" height="600"><path d="M0 0h1000L800 200H0V0z"/><path d="M0 200h800L700 300l100 100H0V200z" fill="#d00000"/><path d="M0 400h800l200 200H0V400z" fill="#ffce00"/><path d="M522.446 335.629V158.502H304.032V335.63c0 57.006 56.315 105.869 109.205 105.869 52.892 0 109.209-48.863 109.209-105.87z" fill="#ffce00" fill-rule="evenodd" stroke="#000" stroke-width="4.067"/><path d="M374.404 354.92c-.28-2.016-7.84.476-5.229 2.3 3.973 2.783.433 5.556.61 8.702 5.181-2.924 5.165-7.073 4.619-11.003zm-26.66 17.606c-.033-2.034 7.82-.739 5.52 1.468-3.497 3.361.425 5.554.732 8.692-5.566-2.091-6.187-6.192-6.252-10.16zm-20.376-11.782c1.02-1.757 7.073 3.42 3.97 4.119-4.73 1.065-2.503 4.974-3.856 7.818-3.69-4.675-2.107-8.506-.114-11.937zm3.42-17.004c1.953-.554 2.719 7.387 0 5.725-4.14-2.526-5.246 1.837-8.192 2.938.587-5.93 4.382-7.582 8.193-8.663z" fill-rule="evenodd" stroke="#000" stroke-width="2.034"/><path d="M382.57 326.058c-11.928 9.27-22.016 14.16-28.114 15.815-5.814 1.576-10.35 1.376-20.919-.336-4.235-.684-3.524 3.062-3.29 5.803.272 3.176-3.783 5.51 9.098 4.035-3.393 3.367-12.278 4.459-13 8.964-.202 1.262 1.777.7 2.15 1.82.803 2.41.646 4.37 3.766 4.095 8.081-4.225 12.79-6.469 14.244-9.59-.386 6.181-2.425 13.279-.426 17.26.985 1.955 2.756-.683 4.469-.667 1.395.012 2.754 3.003 3.611 1.733 4.841-7.177-.528-17.513 5.952-23.864 2.864 3.63 7.47 12.864 8.503 8.948 1.148-4.34 3.539-5.578 6.517-5.564 2.535.01-4.936-4.99-8.004-7.645 9.37-5.886 19.381-12.596 20.822-15.074" fill="#d00000" fill-rule="evenodd" stroke="#000" stroke-width="2.034" stroke-linecap="round" stroke-linejoin="round"/><path d="M495.14 343.74c-1.952-.554-2.717 7.387 0 5.725 4.14-2.526 5.247 1.837 8.193 2.938-.587-5.93-4.382-7.582-8.193-8.663zm3.421 17.004c-1.02-1.757-7.073 3.42-3.969 4.119 4.731 1.065 2.503 4.974 3.855 7.818 3.691-4.675 2.107-8.506.116-11.937zm-20.378 11.782c.035-2.034-7.816-.739-5.519 1.468 3.498 3.361-.424 5.554-.731 8.692 5.566-2.091 6.188-6.192 6.253-10.16zm-26.657-17.607c.28-2.015 7.84.477 5.23 2.301-3.975 2.783-.434 5.556-.613 8.702-5.18-2.924-5.164-7.073-4.617-11.003z" fill-rule="evenodd" stroke="#000" stroke-width="2.034"/><path d="M443.662 326.058c11.924 9.27 21.713 14.16 27.813 15.815 5.81 1.576 10.348 1.376 20.917-.336 4.235-.684 3.524 3.062 3.29 5.803-.271 3.176 3.783 5.51-9.098 4.035 3.393 3.367 12.28 4.459 13.001 8.964.201 1.262-1.777.7-2.151 1.82-.803 2.41-.646 4.37-3.766 4.095-8.08-4.225-12.79-6.469-14.244-9.59.386 6.181 2.425 13.279.427 17.26-.986 1.955-2.757-.683-4.47-.667-1.395.012-2.754 3.003-3.611 1.733-4.839-7.177.528-17.513-5.952-23.864-2.864 3.63-7.47 12.864-8.503 8.948-1.148-4.34-3.539-5.578-6.517-5.564-2.535.01 4.936-4.99 8.004-7.645-9.37-5.886-20.584-13.498-22.024-15.978" fill="#d00000" fill-rule="evenodd" stroke="#000" stroke-width="2.034" stroke-linecap="round" stroke-linejoin="round"/><path d="M448.292 219.85c2.221-5.066 4.5-10.124 10.648-14.628-9.993-14.554 10.435-20.451 20.183-17.676 7.658 2.18 15.311 8.645 27.277 14.628-2.9 30.584 3.8 63.636 7.606 91.427l-13.476-5.575-6.3-48.976c-.779-6.246-6.905-8.772-5.171 3.962l12.777 93.85-14.655-3.926-9.379-82c-.77-7.222-6.881-3.543-6.389 1.523l7.91 81.37-12.169-4.876-6.085-73.751c-.32-3.888-6.862-6.497-6.388 1.524l3.65 61.865-7.91-7.01-2.738-51.503c-.28-5.284-6.824-2.689-6.64 2.438l1.468 41.142-8.214-7.314-.913-21.333c-.317-7.408-3.643-5.825-4.437-.431-1.244 8.45-3.82 22.113-.29 26.03 6.585 7.305 17.61 16.081 30.565 24.412 4.454 2.863-11.113 3.966-16.71 1.797.373 9.508-1.09 19.19-2.524 16.703-5.443-9.448-9.318-17.75-17.556-23.102-.083 12.146 7.603 22.663 20.672 33.523-4.436 2.418-9.64 2.59-14.32 2.884 7.183 6.916 12 7.879 21.548 7.188l-.215 6.385c8.387 2.171 10.691 7.999 7.606 17.066-2.112-5.74-5.59-9.692-10.27-5.917 1.172 13.973-18.085-8.135-26.438-11.654 1.787 12.295 8.038 18.832 20.494 24.097-4.75 5.273-13.87 8.207-19.685 4.14 1.997 14.533-1.46 21.135-13.17 26.499 4.703-12.462-8.129-13.794-6.13-28.327-5.816 4.067-12.807 2.961-17.557-2.312 12.457-5.265 18.708-11.802 20.494-24.097-8.353 3.52-27.61 25.627-26.437 11.654-4.681-3.775-8.159.176-10.27 5.917-3.086-9.067-.781-14.895 7.605-17.066l-.215-6.385c9.55.69 14.366-.272 21.548-7.188-4.68-.295-9.884-.466-14.32-2.884 13.069-10.86 20.755-21.377 20.672-33.523-8.238 5.352-12.113 13.654-17.556 23.102-1.433 2.488-2.896-7.195-2.523-16.703-5.597 2.169-21.165 1.066-16.711-1.797 12.956-8.33 23.98-17.107 30.564-24.412 3.532-3.917.955-17.58-.289-26.03-.793-5.394-4.12-6.977-4.437.43l-.913 21.334-8.214 7.314 1.469-41.142c.183-5.127-6.36-7.722-6.64-2.438l-2.739 51.504-7.91 7.01 3.65-61.866c.474-8.021-6.067-5.412-6.388-1.524l-6.085 73.75-12.169 4.877 7.91-81.37c.493-5.066-5.618-8.745-6.389-1.524l-9.379 82.001-14.655 3.925 12.778-93.85c1.733-12.733-4.393-10.207-5.172-3.961l-6.3 48.976-13.475 5.575c3.806-27.791 10.506-60.843 7.606-91.427 11.965-5.983 19.618-12.448 27.276-14.628 9.748-2.775 30.176 3.122 20.184 17.676 6.146 4.504 8.426 9.562 10.648 14.628 7.526-.245 11.319 1.648 14.907 3.657 3.409-4.953 9.338-10.773 12.747-21.067 3.394-2.702 4.985-4.646 8.379-3.337-2.962-4.964-7.199-16.973-10.577-22.908-2.757-4.843-3.34-5.214-6.008-7.244 14.916-6.373 23.624 3.18 38.84 2.36-2.917 2.414-2.1 3.322-8.97 5.737 7.642 1.27 5.572 13.773 5.972 21.483.423 8.107 5.932 17.451-.09 24.976 3.588-2.01 7.38-3.902 14.907-3.657z" fill-rule="evenodd" stroke="#000" stroke-width="2.034" stroke-linecap="round" stroke-linejoin="round"/><path d="M401.05 172.067c4.512 6.556 9.05 16.922 11.36 25.383-1.902 2.621-6.336 5.393-11.6 6.029-3.966.479-8.97-2.497-9.46-5.145 7.228 1.15 14.29 1.4 21.06-.884-9.096 3.556-29.243 1.484-32.705-4.723 13.086 2.205 25.586 2.966 27.448-.685-4.88-9.046-16.767-11.34-22.548-4.741-.315-10.533 3.422-17.253 16.445-15.234z" fill="#d00000" fill-rule="evenodd" stroke="#000" stroke-width="2.038" stroke-linecap="round" stroke-linejoin="round"/><path d="M407.305 172.135c.634 2.209.252 4.418 2.704 6.629 1.869-1.977 4.215-3.003 6.464-4.219-3.057-2.24-6.115-2.07-9.17-2.41z" fill="#fff" fill-rule="evenodd" stroke="#000" stroke-width=".61"/></svg>