<svg xmlns="http://www.w3.org/2000/svg" version="1.0" width="500" height="500" xml:space="preserve">
  <path style="fill:#b0081c" d="M250 250h250v250H250z"/>
  <path d="M250 250h250V0H250v250z" style="fill:#fff"/>
  <path d="M0 250h250V0H0v250z" style="fill:#b0081c"/>
  <path style="fill:#fb0" d="M0 250h27.777v250H0z"/>
  <path style="fill:#b0081c" d="M27.777 250h27.778v250H27.777z"/>
  <path style="fill:#fb0" d="M55.556 250h27.778v250H55.556z"/>
  <path style="fill:#b0081c" d="M83.333 250h27.777v250H83.333z"/>
  <path style="fill:#fb0" d="M111.111 250h27.778v250h-27.778z"/>
  <path style="fill:#b0081c" d="M138.88901 250h27.777v250h-27.777z"/>
  <path style="fill:#fb0" d="M166.66701 250h27.778v250h-27.778z"/>
  <path style="fill:#b0081c" d="M194.444 250h27.778v250h-27.778z"/>
  <path style="fill:#fb0" d="M222.22301 250h27.777v250h-27.777z"/>
  <path d="M380.406 144.003c-42.594 28.862-41.902 16.491-53.773 23.363-5.672 3.291-7.679 6.873-11.171 13.06-3.485 6.186-10.473 13.058-10.473 13.058s5.582-2.061 11.873-2.75c0 0 .697 4.811-5.586 11.684 0 0 8.374 3.434 16.759.686 4.683-1.538 2.792 2.749 16.757.688 6.938-1.022-17.922 21.298-26.999 25.423-9.074 4.122-15.596-.46-23.744 7.332-8.614 8.239-3.491 8.704-3.491 8.704s29.929.237 30.97-.284c4.742-2.371 9.076-1.514 13.488-6.13 11.176-11.682-.06-5.979 11.176-14.429 11.874-8.935 17.456-6.873 22.347-17.87 2.4-5.415-6.988-10.304-6.988-17.175 0-6.873 4.194-15.81 25.142-24.743 20.953-8.937-6.287-20.617-6.287-20.617zM361.55 84.216s-1.86-5.27-7.445-8.016c-5.586-2.751-17.806-3.983-26.069-18.098-15.828-27.023.098-27.594-14.444-38.676-3.947-3.008-14.314 4.352-14.314 4.352s.97 2.753-1.503 8.439c-.703 1.604-3.023.685-2.323 3.436 0 0 1.474 1.323 2.323 2.752 3.263 5.496 6.279 4.578 9.778 10.992 2.832 5.209 9.123 20.136 9.546 27.031.695 11.452 2.322 15.348 2.322 15.348s.933-3.439 7.213 0c6.291 3.434 15.605 4.121 15.605 4.121l19.311-11.681z" style="fill:#b0081c;stroke:#000;stroke-width:1;stroke-miterlimit:4;stroke-dasharray:none"/>
  <path d="m381.233 40.176 1.886.838-1.689 1.065-.197-1.903" style="stroke:#000;stroke-width:1;stroke-miterlimit:4;stroke-dasharray:none"/>
  <path d="M402.054 213.41s12.033 1.298 16.762-1.373c1.63-.918 2.557-2.062 2.557-2.062s.237.688 3.03 3.435c2.79 2.751 6.986 4.812 6.986 4.812s-2.098-.688 1.394-4.123c3.489-3.437 6.98-8.933 6.98-8.933s5.592 2.06 9.781 2.06c4.186 0 8.374-.69 12.566 8.245 4.187 8.935 6.289 12.371 2.792 15.807-3.488 3.435-3.04-1.05-11.87 2.976-9.548 4.353-9.673 10.654-1.99 10.884 11.881.355 24.131 0 24.131 0s.9-5.611 5.096-10.425c4.185-4.809 1.391-8.931-2.095-17.865-3.496-8.933-3.496-17.182-2.101-19.932 1.4-2.748-5.582-7.556-10.475-7.556-4.886 0-15.361 5.494-18.854 2.061-3.488-3.439-6.276-6.875-6.276-6.875s3.72-6.651 3.72-12.146c0-5.499-.932-9.845-.932-9.845s20.239-6.039 27.937-19.928c9.772-17.638-10.245-53.15-10.245-53.15s5.822-9.844 13.03-8.011c4.02 1.017.938 5.497.938 8.246 0 2.748 3.951 5.495 3.951 5.495s2.792-4.809 6.98-8.244c4.193-3.437 2.565-12.14-.223-15.577-2.801-3.437-12.105-5.27-18.394-1.147-6.283 4.125-8.847 14.659-8.847 14.659S447.911 69.566 448.61 51.7c.701-17.87 19.789-27.957 21.178-21.771 0 0-3.719 13.988-.927 19.933 1.852 3.946 9.08 4.126 12.57 8.939 0 0 2.363-3.152 2.566-6.877.229-4.351 5.811-8.702 3.72-17.407-2.07-8.594-12.802-14.266-20.018-13.513-13.268 1.371-23.039 14.097-25.375 28.858-1.632 10.3 5.173 28.596 12.562 42.599 9.321 17.636 9.553 25.657 9.553 25.657s-8.058-9.765-20.956-5.729c-10.238 3.207-13.497 18.559-6.513 21.992 6.981 3.439 10.01-2.064 10.01-2.064s-6.514-.682-3.028-7.554c3.492-6.873 14.828-9.842 19.317 2.746 7.457 20.846-23.976 24.735-23.976 24.735s-8.147-4.349-12.337-5.727c-4.19-1.373-17.22.237-25.602-5.948-8.379-6.187-14.665-16.493-13.965-23.363.697-6.873-34.221-20.619-41.9-17.868-7.679 2.746-3.484-2.75-12.567 4.812-9.077 7.555-22.105 17.406-30.491 20.155-8.379 2.75-16.994-2.979-23.98-5.038-2.498-.738-12.659-1.363-15.36 2.985-4.527 7.287 2.1 9.385-.226 15.111-.393.951.223 4.354 2.325 5.954 2.088 1.606 6.048 1.613 7.913 4.359 1.366 2.027 6.743-5.734 17.225-6.419 10.466-.688 30.729 2.977 30.729 2.977 9.545-6.873 15.134-3.665 29.321-6.412 0 0 .461 12.133 21.649 21.302 17.182 7.437 18.154 6.185 17.454 8.936-.698 2.745 1.631 4.345 8.384 4.123 6.436-.213 7.678 1.371 7.678 1.371s-1.396 5.498-2.795 11.687c-1.394 6.185 2.795 10.307 3.494 15.118.705 4.808-4.188 13.051-4.188 13.051z" style="fill:#b0081c;stroke:#000;stroke-width:1;stroke-miterlimit:4;stroke-dasharray:none"/>
  <path d="m391.29803 49.168588-.37096 1.95776s-4.09937-2.270563-6.49926-2.892904c-2.3984-.624003-4.0455-.887579-6.63508-.645463-1.44128.134754-2.62314.308726-3.65456.315766-3.17255.021655-6.14857-1.987913-8.17616-4.054023 5.1205.685183 6.54168-.940894 9.857-.750295 3.81965.219592 7.19364 2.49256 10.54912 4.110325 1.49372.663039 4.93026 1.953747 4.93026 1.953747l-.00132.004821.00096.000266z" style="fill:#fb0;fill-opacity:1;stroke:#000;stroke-width:1;stroke-miterlimit:4;stroke-dasharray:none"/>
  <path d="m380.366 52.022.745-1.246.665 1.193-1.41.053" style="stroke:#000;stroke-width:1;stroke-miterlimit:4;stroke-dasharray:none"/>
  <path d="M352.243 69.094s2.561 3.892 7.919 5.729c-1.936 2.624-19.09 4.807-19.09 4.807s-1.166 4.356 1.39 6.418c-4.187 2.522-4.425 1.609-13.737 3.436 5.59 4.124 9.093 5.265 9.093 5.265s-10.485 5.273-19.797 5.961c1.047 2.404 8.097 3.911 11.678 4.969 1.63.485-10.736 8.998-20.244 6.478 7.313 11.877 24.495 3.082 28.046 4.08-.464 9.623 8.229 7.377 7.77 17.454 0 0 6.746-10.537 6.977-15.805-.7 7.329 2.564 15.118 2.797 19.698 4.88-2.033 6.708-7.432 6.708-7.432s7.486 2.62 13.308 11.558c2.562-5.956 5.82-8.477 8.38-14.434 8.616 8.017 16.296-.687 23.515.687-1.4-7.331-9.593-2.247-1.677-19.884 17.065 7.196 17.065.96 23.41-1.92 0 0-5.363-.96-3.903-7.677 0 0 2.185-4.191 2.647-7.169 0 0 .276-3.388-1.864-7.333 8.846 4.705 10.122-1.939 14.084-1.711 0 0-2.164-3.196-4.887-3.665-2.682-.458-3.842-2.061-3.842-2.061s2.878-6.494 9.824-8.654c-2.56-4.68-5.121-3.598-5.524-5.206-.323-25.025-4.837-27.074-4.837-27.074s-1.758-3.755-8.31-7.286c-7.123-4.902-14.203-5.961-14.203-5.961s-4.648-1.479-6.285-.455c-1.164 2.064-3.485 2.75-6.279 3.667-3.033.458-9.568.177-13.74.458-3.258.23-2.781 2.043-3.989 3.068-1.187 1.067-1.485 4.591-.428 8.388 1.024 3.815 6.749 2.29 11.873 4.806 2.554.918 2.784 4.354 1.398 6.418-3.269 4.123-4.658 4.808-13.74 2.52-4.007.137-3.523 3.68-2.797 5.725 1.63 4.125 6.521.918 8.39 4.81 0 0 .227 1.149-5.124 2.29-4.883.919-6.254.234-10.937 2.06-9.632 3.754-13.973 2.977-13.973 2.977" style="fill:#b0081c;stroke:#000;stroke-width:1;stroke-miterlimit:4;stroke-dasharray:none"/>
  <path d="M377.019 30.739s.879-1.971 1.178-2.583c.3-.593 1.541-1.605 1.541-1.605s3.639 2.827 2.695 3.761c-.952.948-2.002.125-2.55.344-.574.243-3.34.302-3.34.302M398.172 31.849l-.82-1.969s3.932-.907 6.12-.134c3.381 1.203 5.979 3.69 5.876 3.845-.396.579-3.067-.603-4.782-.721 0 0-1.094.534-2.257.819-1.158.278-1.863-.087-2.149-.559-.258-.495-.197-1.447-.197-1.447l-1.785.185" style="stroke:#000;stroke-width:1;stroke-miterlimit:4;stroke-dasharray:none"/>
  <path d="m376.39 51.231.824-1.348.806 1.22-1.63.128" style="fill:none;stroke:#000;stroke-width:1;stroke-miterlimit:4;stroke-dasharray:none"/>
  <path d="m385.683 41.383 1.305.312-1.049.761-.256-1.073" style="stroke:#000;stroke-width:1;stroke-miterlimit:4;stroke-dasharray:none"/>
  <path d="m423.142 15.547-1.297.377c-.027.173-.408 1.246-.854 1.895-.908 1.37-2.632 1.875-3.831 1.133-.586-.39-.979-1.032-1.048-1.756-.677.559-1.483.725-2.333.459-1.318-.437-1.966-2.013-1.406-3.55.081-.292.133-.663.295-.906l-.4-1.465-1.512.706-.261.981c-.745 1.343-2.147 1.939-3.024 1.434-.431-.238-.879-1.052-.859-1.086.019.026-.3.469-.687.648-2.298 1.125-4.464-4.106-4.824-5.503l-.548 1.32s1.428 3.104 1.671 5.927c.242 2.833-.115 5.781-.115 5.781 3.594.167 9.282 1.886 15.188 4.768 5.906 2.846 10.802 6.265 13.089 8.899 0 0 2.298-2.026 4.842-3.491 2.522-1.477 5.97-2.225 5.97-2.225l.776-1.188c-1.404.521-7.096 1.984-7.509-.483-.059-.4.131-.885.177-.894-.021.036-.963.153-1.43-.027-.96-.381-1.245-1.806-.587-3.181l.666-.756-.279-1.579-1.495.539c-.097.218-.398.522-.564.767-.971 1.325-2.693 1.762-3.873.972-.7-.454-1.045-1.183-.969-2.04-.656.36-1.405.452-2.1.221-1.332-.472-1.929-2.112-1.303-3.611.274-.731.949-1.658 1.089-1.77l-.624-1.31" style="fill:#fb0;stroke:#000;stroke-width:1;stroke-miterlimit:4;stroke-dasharray:none"/>
  <path d="m423.142 15.547-1.297.377c-.027.173-.408 1.246-.854 1.895-.908 1.37-2.632 1.875-3.831 1.133-.586-.39-.979-1.032-1.048-1.756-.677.559-1.483.725-2.333.459-1.318-.437-1.966-2.013-1.406-3.55.081-.292.133-.663.295-.906l-.4-1.465-1.512.706-.261.981c-.745 1.343-2.147 1.939-3.024 1.434-.431-.238-.879-1.052-.859-1.086.019.026-.3.469-.687.648-2.298 1.125-4.464-4.106-4.824-5.503l-.548 1.32s1.428 3.104 1.671 5.927c.242 2.833-.115 5.781-.115 5.781 3.594.167 9.282 1.886 15.188 4.768 5.906 2.846 10.802 6.265 13.089 8.899 0 0 2.298-2.026 4.842-3.491 2.522-1.477 5.97-2.225 5.97-2.225l.776-1.188c-1.404.521-7.096 1.984-7.509-.483-.059-.4.131-.885.177-.894-.021.036-.963.153-1.43-.027-.96-.381-1.245-1.806-.587-3.181l.666-.756-.279-1.579-1.495.539c-.097.218-.398.522-.564.767-.971 1.325-2.693 1.762-3.873.972-.7-.454-1.045-1.183-.969-2.04-.656.36-1.405.452-2.1.221-1.332-.472-1.929-2.112-1.303-3.611.274-.731.949-1.658 1.089-1.77l-.624-1.31-.031-.006z" style="fill:#fb0;stroke:#000;stroke-width:1;stroke-miterlimit:4;stroke-dasharray:none"/>
  <path d="M413.596 20.886c.163-.327.641-.415 1.063-.213.421.206.621.629.453.934-.163.309-.627.411-1.061.193-.399-.186-.614-.612-.455-.914" style="fill:#fb0;stroke:#000;stroke-width:1;stroke-miterlimit:4;stroke-dasharray:none"/>
  <path d="M413.596 20.886c.163-.327.641-.415 1.063-.213.421.206.621.629.453.934-.163.309-.627.411-1.061.193-.399-.186-.614-.612-.455-.914zM418.714 23.655l-1.738-.853c-.314-.148-.479-.481-.345-.706.13-.224.489-.298.807-.162l1.736.873 1.776.842c.3.139.472.464.352.709-.154.217-.5.276-.838.146l-1.75-.849" style="fill:#fb0;stroke:#000;stroke-width:1;stroke-miterlimit:4;stroke-dasharray:none"/>
  <path d="m418.714 23.655-1.738-.853c-.314-.148-.479-.481-.345-.706.13-.224.489-.298.807-.162l1.736.873 1.776.842c.3.139.472.464.352.709-.154.217-.5.276-.838.146l-1.75-.849M409.583 19.831l-1.325-.452c-.326-.119-.562-.437-.476-.693.069-.266.421-.38.743-.259l1.338.458 1.346.449c.32.105.534.416.469.688-.084.245-.42.355-.759.255l-1.336-.446" style="fill:#fb0;stroke:#000;stroke-width:1;stroke-miterlimit:4;stroke-dasharray:none"/>
  <path d="m409.583 19.831-1.325-.452c-.326-.119-.562-.437-.476-.693.069-.266.421-.38.743-.259l1.338.458 1.346.449c.32.105.534.416.469.688-.084.245-.42.355-.759.255l-1.336-.446M404.181 17.533c.168-.293.651-.397 1.062-.188.427.197.62.627.465.922-.174.311-.651.394-1.072.216-.417-.223-.611-.624-.455-.95" style="fill:#fb0;stroke:#000;stroke-width:1;stroke-miterlimit:4;stroke-dasharray:none"/>
  <path d="M404.181 17.533c.168-.293.651-.397 1.062-.188.427.197.62.627.465.922-.174.311-.651.394-1.072.216-.417-.223-.611-.624-.455-.95zM424.225 26.021c.17-.316-.033-.712-.448-.936-.42-.204-.895-.118-1.06.208-.169.306.025.73.449.931.41.206.893.105 1.059-.203" style="fill:#fb0;stroke:#000;stroke-width:1;stroke-miterlimit:4;stroke-dasharray:none"/>
  <path d="M424.187 25.931c.154-.282-.033-.642-.41-.845-.374-.186-.815-.104-.966.191-.141.275.027.656.415.843.378.181.805.09.961-.189zM427.493 28.49l1.188.751c.288.178.679.186.842-.041.175-.21.085-.533-.203-.714l-1.165-.762-1.213-.776c-.287-.179-.671-.164-.835.062-.195.189-.081.544.226.719l1.16.761" style="fill:#fb0;stroke:#000;stroke-width:1;stroke-miterlimit:4;stroke-dasharray:none"/>
  <path d="m427.493 28.49 1.188.751c.288.178.679.186.842-.041.175-.21.085-.533-.203-.714l-1.165-.762-1.213-.776c-.287-.179-.671-.164-.835.062-.195.189-.081.544.226.719l1.16.761M432.617 31.315c.165-.329-.027-.729-.448-.947-.412-.205-.905-.116-1.054.21-.169.32.029.725.455.945.412.186.899.1 1.047-.208" style="fill:#fb0;stroke:#000;stroke-width:1;stroke-miterlimit:4;stroke-dasharray:none"/>
  <path d="M432.617 31.315c.165-.329-.027-.729-.448-.947-.412-.205-.905-.116-1.054.21-.169.32.029.725.455.945.412.186.899.1 1.047-.208zM414.049 6.129l-2.675.652.355 4.122.425.574.69-.191 2.93-3.078-1.725-2.079" style="fill:#fb0;stroke:#000;stroke-width:1;stroke-miterlimit:4;stroke-dasharray:none"/>
  <path d="m414.049 6.129-2.675.652.355 4.122.425.574.69-.191 2.93-3.078-1.725-2.079" style="fill:#fb0;stroke:#000;stroke-width:1;stroke-miterlimit:4;stroke-dasharray:none"/>
  <path d="m407.243 9.9.477 2.512 4.289-.36.594-.413-.203-.68-3.16-2.773-1.997 1.714" style="fill:#fb0;stroke:#000;stroke-width:1;stroke-miterlimit:4;stroke-dasharray:none"/>
  <path d="m407.243 9.9.477 2.512 4.289-.36.594-.413-.203-.68-3.16-2.773-1.997 1.714" style="fill:#fb0;stroke:#000;stroke-width:1;stroke-miterlimit:4;stroke-dasharray:none"/>
  <path d="m416.976 13.063-1.953 1.729-3.168-2.786-.193-.661.594-.416 4.296-.385.424 2.519" style="fill:#fb0;stroke:#000;stroke-width:1;stroke-miterlimit:4;stroke-dasharray:none"/>
  <path d="m416.976 13.063-1.953 1.729-3.168-2.786-.193-.661.594-.416 4.296-.385.424 2.519" style="fill:#fb0;stroke:#000;stroke-width:1;stroke-miterlimit:4;stroke-dasharray:none"/>
  <path d="M410.895 11.113c.241-.691 1-1.059 1.688-.804.699.206 1.069.939.823 1.611-.242.681-1.004 1.029-1.688.811-.696-.223-1.066-.954-.823-1.618" style="fill:#fb0;stroke:#000;stroke-width:1;stroke-miterlimit:4;stroke-dasharray:none"/>
  <path d="M410.895 11.113c.241-.691 1-1.059 1.688-.804.699.206 1.069.939.823 1.611-.242.681-1.004 1.029-1.688.811-.696-.223-1.066-.954-.823-1.618zM400.214 9.039c-.081.033-1.052-1.987-1.886-3.038-.58-.779-2.21-1.6-2.21-1.6.087-.289 1.69-1.298 4.051-.409 1.993 1.055.734 4.02.734 4.02s-.301.721-.678 1.023" style="fill:#fb0;stroke:#000;stroke-width:1;stroke-miterlimit:4;stroke-dasharray:none"/>
  <path d="M400.214 9.039c-.081.033-1.052-1.987-1.886-3.038-.58-.779-2.21-1.6-2.21-1.6.087-.289 1.69-1.298 4.051-.409 1.993 1.055.734 4.02.734 4.02s-.301.721-.678 1.023l-.011.004z" style="fill:#fb0;stroke:#000;stroke-width:1;stroke-miterlimit:4;stroke-dasharray:none"/>
  <path d="m405.214 9.48-1.535 2.077-3.711-2.077.194-.451-.04-.699 4.15-1.199.942 2.349" style="fill:#fb0;stroke:#000;stroke-width:1;stroke-miterlimit:4;stroke-dasharray:none"/>
  <path d="m405.214 9.48-1.535 2.077-3.711-2.077.194-.451-.04-.699 4.15-1.199.942 2.349" style="fill:#fb0;stroke:#000;stroke-width:1;stroke-miterlimit:4;stroke-dasharray:none"/>
  <path d="M399.582 8.897c.093-.74.592-1.271 1.108-1.23.512.073.854.706.777 1.428-.079.743-.601 1.255-1.107 1.228-.533-.077-.862-.704-.778-1.426" style="fill:#fb0;stroke:#000;stroke-width:1;stroke-miterlimit:4;stroke-dasharray:none"/>
  <path d="M399.582 8.897c.093-.74.592-1.271 1.108-1.23.512.073.854.706.777 1.428-.079.743-.601 1.255-1.107 1.228-.533-.077-.862-.704-.778-1.426zM425.778 10.48l-2.747.271-.267 4.155.345.625.719-.129 3.333-2.646-1.383-2.276" style="fill:#fb0;stroke:#000;stroke-width:1;stroke-miterlimit:4;stroke-dasharray:none"/>
  <path d="m425.778 10.48-2.747.271-.267 4.155.345.625.719-.129 3.333-2.646-1.383-2.276" style="fill:#fb0;stroke:#000;stroke-width:1;stroke-miterlimit:4;stroke-dasharray:none"/>
  <path d="m418.481 13.289.122 2.561 4.293.225.645-.343-.1-.678-2.717-3.213-2.243 1.448" style="fill:#fb0;stroke:#000;stroke-width:1;stroke-miterlimit:4;stroke-dasharray:none"/>
  <path d="m418.481 13.289.122 2.561 4.293.225.645-.343-.1-.678-2.717-3.213-2.243 1.448" style="fill:#fb0;stroke:#000;stroke-width:1;stroke-miterlimit:4;stroke-dasharray:none"/>
  <path d="m427.664 17.725-2.194 1.473-2.715-3.2-.101-.693.643-.327 4.292.231.075 2.516" style="fill:#fb0;stroke:#000;stroke-width:1;stroke-miterlimit:4;stroke-dasharray:none"/>
  <path d="m427.664 17.725-2.194 1.473-2.715-3.2-.101-.693.643-.327 4.292.231.075 2.516" style="fill:#fb0;stroke:#000;stroke-width:1;stroke-miterlimit:4;stroke-dasharray:none"/>
  <path d="M421.927 14.993c.32-.65 1.149-.875 1.788-.563.655.309.906 1.075.59 1.706-.342.635-1.149.878-1.805.574-.645-.315-.918-1.08-.573-1.717" style="fill:#fb0;stroke:#000;stroke-width:1;stroke-miterlimit:4;stroke-dasharray:none"/>
  <path d="M421.927 14.993c.32-.65 1.149-.875 1.788-.563.655.309.906 1.075.59 1.706-.342.635-1.149.878-1.805.574-.645-.315-.918-1.08-.573-1.717zM436.61 17.048l1.052 2.464-3.678 2.18-.729.012-.225-.664.829-4.065 2.751.073" style="fill:#fb0;stroke:#000;stroke-width:1;stroke-miterlimit:4;stroke-dasharray:none"/>
  <path d="m436.61 17.048 1.052 2.464-3.678 2.18-.729.012-.225-.664.829-4.065 2.751.073" style="fill:#fb0;stroke:#000;stroke-width:1;stroke-miterlimit:4;stroke-dasharray:none"/>
  <path d="m437.497 24.546-2.405 1.114-2.25-3.537.017-.687.678-.247 4.228.785-.268 2.572" style="fill:#fb0;stroke:#000;stroke-width:1;stroke-miterlimit:4;stroke-dasharray:none"/>
  <path d="m437.497 24.546-2.405 1.114-2.25-3.537.017-.687.678-.247 4.228.785-.268 2.572" style="fill:#fb0;stroke:#000;stroke-width:1;stroke-miterlimit:4;stroke-dasharray:none"/>
  <path d="m429.062 18.893-.31 2.555 4.221.763.694-.24-.003-.68-2.22-3.534-2.382 1.136" style="fill:#fb0;stroke:#000;stroke-width:1;stroke-miterlimit:4;stroke-dasharray:none"/>
  <path d="m429.062 18.893-.31 2.555 4.221.763.694-.24-.003-.68-2.22-3.534-2.382 1.136" style="fill:#fb0;stroke:#000;stroke-width:1;stroke-miterlimit:4;stroke-dasharray:none"/>
  <path d="M434.315 22.445c.418-.601.269-1.392-.322-1.799-.603-.385-1.454-.241-1.876.334-.406.593-.271 1.373.339 1.795.587.406 1.425.238 1.859-.33" style="fill:#fb0;stroke:#000;stroke-width:1;stroke-miterlimit:4;stroke-dasharray:none"/>
  <path d="M434.315 22.445c.418-.601.269-1.392-.322-1.799-.603-.385-1.454-.241-1.876.334-.406.593-.271 1.373.339 1.795.587.406 1.425.238 1.859-.33zM442.383 29.445c.003.063 2.298-.371 3.668-.353.983 0 2.663.754 2.663.754.212-.243.087-2.056-2.069-3.365-2.07-.912-3.811 1.836-3.811 1.836s-.421.656-.451 1.128" style="fill:#fb0;stroke:#000;stroke-width:1;stroke-miterlimit:4;stroke-dasharray:none"/>
  <path d="M442.383 29.445c.003.063 2.298-.371 3.668-.353.983 0 2.663.754 2.663.754.212-.243.087-2.056-2.069-3.365-2.07-.912-3.811 1.836-3.811 1.836s-.421.656-.451 1.128z" style="fill:#fb0;stroke:#000;stroke-width:1;stroke-miterlimit:4;stroke-dasharray:none"/>
  <path d="m439.03 25.835-.854 2.416 3.965 1.634.338-.458.524-.323-1.408-3.914-2.565.645" style="fill:#fb0;stroke:#000;stroke-width:1;stroke-miterlimit:4;stroke-dasharray:none"/>
  <path d="m439.03 25.835-.854 2.416 3.965 1.634.338-.458.524-.323-1.408-3.914-2.565.645" style="fill:#fb0;stroke:#000;stroke-width:1;stroke-miterlimit:4;stroke-dasharray:none"/>
  <path d="M442.859 29.838c.549-.491.715-1.214.378-1.568-.378-.373-1.115-.271-1.669.231-.542.508-.719 1.193-.349 1.582.345.349 1.091.246 1.64-.245" style="fill:#fb0;stroke:#000;stroke-width:1;stroke-miterlimit:4;stroke-dasharray:none"/>
  <path d="M442.859 29.838c.549-.491.715-1.214.378-1.568-.378-.373-1.115-.271-1.669.231-.542.508-.719 1.193-.349 1.582.345.349 1.091.246 1.64-.245z" style="fill:#fb0;stroke:#000;stroke-width:1;stroke-miterlimit:4;stroke-dasharray:none"/>
  <path d="M309.627 20.581s1.378.055 2.2-.283c.819-.333 1.638-.803 1.764-.872.116-.069-.218-1.185-.741-1.784-1.7-1.956-4.283-1.131-4.283-1.131s1.476.937 1.5 1.743c.04 1.141-.44 2.327-.44 2.327zM303.659 21.177s1.715.301 2.786-.003c1.071-.29 2.173-.766 2.327-.833.158-.066-.132-1.568-.722-2.428-1.901-2.82-5.243-2.182-5.243-2.182s1.733 1.462 1.67 2.506c-.075 1.486-.818 2.94-.818 2.94zM299.276 23.778s1.627-.687 2.378-1.531c.758-.841 1.434-1.842 1.53-1.989.09-.138-.981-1.263-1.955-1.679-3.194-1.36-5.699 1.017-5.699 1.017s2.297.294 2.817 1.221c.757 1.308.929 2.961.929 2.961zM297.658 32.389s.294 1.602-.064 2.467c-.339.874-.882 1.71-.96 1.831-.07.118-1.707-.559-2.637-1.315-3.038-2.479-2.276-5.263-2.276-5.263s1.56 1.949 2.701 2.185c1.628.348 3.236.095 3.236.095zM262.524 126.428s.833-1.538.874-2.661c.062-1.122-.057-2.321-.074-2.493-.016-.167-1.567-.38-2.596-.098-3.35.91-3.784 4.307-3.784 4.307s1.972-1.188 2.971-.786c1.424.55 2.609 1.731 2.609 1.731zM263.271 132.777s.141-1.936-.382-2.941c-.511-1.018-1.262-1.971-1.363-2.108-.105-.133-1.961.817-2.961 1.808-3.291 3.23-2.035 6.495-2.035 6.495s1.602-2.469 2.925-2.848c1.884-.563 3.816-.406 3.816-.406zM265.682 142.662s-.2-1.921-.89-2.82c-.679-.917-1.573-1.741-1.703-1.859-.12-.112-1.764 1.094-2.568 2.211-2.643 3.656-.842 6.655-.842 6.655s1.123-2.652 2.352-3.221c1.736-.833 3.651-.966 3.651-.966zM275.813 147.359s-1.454-1-2.586-1.176c-1.12-.19-2.346-.224-2.524-.227-.169-.005-.575 1.493-.407 2.525.514 3.385 3.891 4.215 3.891 4.215s-.961-2.07-.438-2.995c.722-1.325 2.064-2.342 2.064-2.342z" style="fill:#fb0;fill-opacity:1;stroke:#000;stroke-width:1;stroke-miterlimit:4;stroke-dasharray:none"/>
  <path d="M295.66 245.138c-4.515-.868 3.979-9.269 7.234-9.269" style="fill:none;stroke:#000;stroke-width:1;stroke-miterlimit:4;stroke-dasharray:none"/>
  <path d="M453.299 244.965c-2.792-1.375-2.824-4.057 1.366-6.806M350.38 137.819c3.228-1.803 4.161-2.261 3.695-5.01" style="fill:#b0081c;stroke:#000;stroke-width:1;stroke-miterlimit:4;stroke-dasharray:none"/>
  <path d="M391.63962 375.60876c0 10.19844-8.26747 18.46591-18.46591 18.46591-10.19844 0-18.46591-8.26747-18.46591-18.46591 0-10.19844 8.26747-18.46591 18.46591-18.46591 10.19844 0 18.46591 8.26747 18.46591 18.46591z" transform="translate(1.5268761 -.0679346)" style="opacity:1;fill:#007a50;fill-opacity:1;fill-rule:nonzero;stroke:none;stroke-width:1.39999998;stroke-linecap:round;stroke-linejoin:round;stroke-miterlimit:4;stroke-dasharray:none;stroke-opacity:1"/>
  <path d="M374.3125 354.59375c-11.505 0-20.84374 9.30549-20.84375 20.8125 0 11.509 9.33875 20.84376 20.84375 20.84375 11.505 0 20.81249-9.33476 20.8125-20.84375 0-11.507-9.3075-20.81251-20.8125-20.8125zm0 4.75c8.879 0 16.0625 7.1815 16.0625 16.0625 0 8.87899-7.1835 16.09375-16.0625 16.09375-8.878 0-16.09375-7.21475-16.09375-16.09375.00001-8.88101 7.21575-16.0625 16.09375-16.0625z" style="fill:#fb0;fill-opacity:1;stroke:#000;stroke-opacity:1" transform="translate(.3945822 .12083)"/>
  <path d="M475.827 283.875c4.821-1.157 9.456-4.662 9.321-9.876-.155-6.291-6.316-10.315-11.157-9.914-5.451.452-8.499 3.322-9.654 7.966-1.14 4.602-8.34 2.426-8.372 12.155-.014 5.665 3.986 9.015 10.067 8.286 7.027-.849 6.166-7.74 9.795-8.617z" style="fill:#fb0;stroke:#000" transform="translate(.3945822 .12083)"/>
  <path d="M474.032 280.32c3.224-.773 6.233-2.475 6.616-5.63.352-2.933-2.31-6.432-6.311-6.381-4.009.056-5.664 2.803-6.475 6.53-.932 4.306-5.732 2.559-7.477 6.592-1.909 4.408 2.168 8.786 6.801 6.413 3.889-1.99 1.837-6.325 6.846-7.524z" style="fill:#b0081c;stroke:#000" transform="translate(.3945822 .12083)"/>
  <path d="M476.752 465.788c4.821 1.157 9.456 4.663 9.324 9.878-.158 6.292-6.317 10.317-11.16 9.917-5.453-.453-8.499-3.326-9.652-7.968-1.145-4.601-8.344-2.429-8.377-12.156-.014-5.663 3.989-9.014 10.071-8.283 7.025.848 6.165 7.738 9.794 8.612z" style="fill:#fb0;stroke:#000" transform="translate(.3945822 .12083)"/>
  <path d="M474.954 469.344c3.228.776 6.236 2.478 6.619 5.632.353 2.932-2.31 6.432-6.31 6.38-4.01-.055-5.667-2.802-6.473-6.529-.934-4.307-5.732-2.561-7.477-6.591-1.912-4.409 2.169-8.787 6.798-6.414 3.889 1.99 1.837 6.324 6.843 7.522z" style="fill:#b0081c;stroke:#000" transform="translate(.3945822 .12083)"/>
  <path d="M469.559 318.414c3.347 3.263 4.178 7.291.269 10.562-3.009 2.515-2.73 8.518.715 11.476 4.154 3.562 9.457 3.944 13.64.466 3.355-2.789 3.883-8.401.712-11.556-3.681-3.667-3.839-7.083-.261-10.563 2.417-2.35 3.616-8.403-1.061-12.083-3.863-3.048-9.498-3.338-13.194-.162-3.799 3.274-4.049 8.906-.82 11.86z" style="fill:#fb0;stroke:#000" transform="translate(.3945822 .12083)"/>
  <path d="M473.601 317.033c3.587 2.913 4.106 9.752.112 13.631-1.872 1.823-2.134 4.755-.325 6.787 1.68 1.891 5.531 2.499 7.89.342 2.365-2.167 1.956-4.917-.337-7.231-4.112-4.148-3.494-10.151 0-13.629 1.913-1.907 2.133-4.66.226-6.613-2.273-2.336-5.69-2.707-8.02-.519-2.122 1.996-1.967 5.02.454 7.232z" style="fill:#b0081c;stroke:#000" transform="translate(.3945822 .12083)"/>
  <path d="M479.582 309.657c0 2.751-1.118 4.985-2.488 4.985-1.369 0-2.484-2.234-2.484-4.985V280.27c0-2.753 1.115-4.98 2.484-4.98 1.37 0 2.488 2.228 2.488 4.98v29.387zM472.131 381.681c3.945 2.439 9.312 3.207 12.654-.331 4.021-4.262 2.598-11.019-.868-13.979-3.899-3.323-7.8-3.452-11.612-1.148-3.774 2.277-7.109-3.944-13.523 2.465-3.73 3.733-3.285 8.61 1.215 12.169 5.198 4.112 9.159-1.015 12.134.824z" style="fill:#fb0;stroke:#000" transform="translate(.3945822 .12083)"/>
  <path d="M473.277 378.136c2.643 1.634 5.748 2.509 8.074.678 2.16-1.702 2.695-5.786.018-8.417-2.686-2.626-5.583-1.912-8.567.014-3.447 2.224-5.467-2.118-9.271-.615-4.161 1.644-4.341 7.251.278 8.76 3.88 1.267 5.373-2.962 9.468-.42z" style="fill:#b0081c;stroke:#000" transform="translate(.3945822 .12083)"/>
  <path d="M479.812 368.199c0 2.749-1.11 4.979-2.483 4.979-1.371 0-2.484-2.23-2.484-4.979v-29.387c0-2.755 1.113-4.983 2.484-4.983 1.373 0 2.483 2.229 2.483 4.983v29.387zM470.252 419.705c3.349 3.26 4.178 7.291.27 10.562-3.012 2.513-2.734 8.519.713 11.475 4.155 3.561 9.459 3.942 13.644.464 3.354-2.785 3.877-8.398.706-11.553-3.681-3.667-3.838-7.086-.26-10.566 2.419-2.35 3.616-8.4-1.059-12.08-3.865-3.048-9.498-3.338-13.196-.162-3.797 3.274-4.045 8.906-.818 11.86z" style="fill:#fb0;stroke:#000" transform="translate(.3945822 .12083)"/>
  <path d="M474.295 418.32c3.586 2.914 4.104 9.753.114 13.635-1.875 1.822-2.136 4.755-.325 6.785 1.679 1.893 5.53 2.501 7.885.345 2.368-2.171 1.955-4.918-.337-7.232-4.109-4.148-3.493-10.151 0-13.632 1.912-1.904 2.133-4.658.227-6.611-2.272-2.336-5.689-2.709-8.016-.515-2.122 1.991-1.967 5.017.452 7.225z" style="fill:#b0081c;stroke:#000" transform="translate(.3945822 .12083)"/>
  <path d="M480.272 410.949c0 2.75-1.114 4.982-2.484 4.982-1.371 0-2.485-2.232-2.485-4.982v-29.387c0-2.753 1.114-4.981 2.485-4.981 1.37 0 2.484 2.229 2.484 4.981v29.387zM480.507 469.491c0 2.747-1.108 4.979-2.484 4.979-1.373 0-2.482-2.232-2.482-4.979v-29.387c0-2.756 1.109-4.986 2.482-4.986 1.376 0 2.484 2.23 2.484 4.986v29.387zM273.386 283.875c-4.819-1.157-9.456-4.662-9.323-9.876.154-6.291 6.315-10.315 11.16-9.914 5.449.452 8.495 3.322 9.651 7.966 1.139 4.602 8.34 2.426 8.371 12.155.017 5.665-3.987 9.015-10.063 8.286-7.027-.849-6.168-7.74-9.796-8.617z" style="fill:#fb0;stroke:#000" transform="translate(.3945822 .12083)"/>
  <path d="M275.179 280.32c-3.226-.773-6.233-2.475-6.612-5.63-.356-2.933 2.308-6.432 6.309-6.381 4.007.056 5.662 2.803 6.473 6.53.934 4.306 5.731 2.559 7.477 6.592 1.909 4.408-2.168 8.786-6.799 6.413-3.888-1.99-1.84-6.325-6.848-7.524z" style="fill:#b0081c;stroke:#000" transform="translate(.3945822 .12083)"/>
  <path d="M272.461 465.788c-4.82 1.157-9.459 4.663-9.324 9.878.158 6.292 6.319 10.317 11.161 9.917 5.449-.453 8.499-3.326 9.651-7.968 1.142-4.601 8.342-2.429 8.373-12.156.015-5.663-3.986-9.014-10.069-8.283-7.025.848-6.162 7.738-9.792 8.612z" style="fill:#fb0;stroke:#000" transform="translate(.3945822 .12083)"/>
  <path d="M274.256 469.344c-3.225.776-6.236 2.478-6.615 5.632-.353 2.932 2.306 6.432 6.31 6.38 4.009-.055 5.665-2.802 6.473-6.529.934-4.307 5.731-2.561 7.477-6.591 1.912-4.409-2.168-8.787-6.799-6.414-3.89 1.99-1.837 6.324-6.846 7.522z" style="fill:#b0081c;stroke:#000" transform="translate(.3945822 .12083)"/>
  <path d="M279.652 318.414c-3.345 3.263-4.175 7.291-.269 10.562 3.009 2.515 2.734 8.518-.717 11.476-4.152 3.562-9.456 3.944-13.639.466-3.356-2.789-3.88-8.401-.71-11.556 3.683-3.667 3.84-7.083.26-10.563-2.414-2.35-3.614-8.403 1.063-12.083 3.859-3.048 9.494-3.338 13.191-.162 3.802 3.274 4.052 8.906.821 11.86z" style="fill:#fb0;stroke:#000" transform="translate(.3945822 .12083)"/>
  <path d="M275.612 317.033c-3.585 2.913-4.106 9.752-.113 13.631 1.875 1.823 2.135 4.755.325 6.787-1.679 1.891-5.531 2.499-7.891.342-2.363-2.167-1.953-4.917.339-7.231 4.113-4.148 3.494-10.151 0-13.629-1.916-1.907-2.135-4.66-.228-6.613 2.276-2.336 5.691-2.707 8.018-.519 2.124 1.996 1.968 5.02-.45 7.232z" style="fill:#b0081c;stroke:#000" transform="translate(.3945822 .12083)"/>
  <path d="M269.632 309.657c0 2.751 1.114 4.985 2.487 4.985 1.37 0 2.481-2.234 2.481-4.985V280.27c0-2.753-1.111-4.98-2.481-4.98-1.373 0-2.487 2.228-2.487 4.98v29.387zM277.08 381.681c-3.944 2.439-9.312 3.207-12.653-.331-4.023-4.262-2.6-11.019.868-13.979 3.899-3.323 7.798-3.452 11.612-1.148 3.776 2.277 7.107-3.944 13.522 2.465 3.73 3.733 3.288 8.61-1.216 12.169-5.198 4.112-9.156-1.015-12.133.824z" style="fill:#fb0;stroke:#000" transform="translate(.3945822 .12083)"/>
  <path d="M275.934 378.136c-2.64 1.634-5.748 2.509-8.073.678-2.159-1.702-2.697-5.786-.019-8.417 2.686-2.626 5.582-1.912 8.568.014 3.446 2.224 5.467-2.118 9.272-.615 4.161 1.644 4.34 7.251-.281 8.76-3.878 1.267-5.373-2.962-9.467-.42z" style="fill:#b0081c;stroke:#000" transform="translate(.3945822 .12083)"/>
  <path d="M269.399 368.199c0 2.749 1.111 4.979 2.481 4.979 1.373 0 2.486-2.23 2.486-4.979v-29.387c0-2.755-1.113-4.983-2.486-4.983-1.37 0-2.481 2.229-2.481 4.983v29.387zM278.958 419.705c-3.346 3.26-4.176 7.291-.27 10.562 3.012 2.513 2.738 8.519-.713 11.475-4.156 3.561-9.459 3.942-13.642.464-3.356-2.785-3.877-8.398-.709-11.553 3.685-3.667 3.842-7.086.262-10.566-2.418-2.35-3.613-8.4 1.061-12.08 3.862-3.048 9.497-3.338 13.194-.162 3.798 3.274 4.047 8.906.817 11.86z" style="fill:#fb0;stroke:#000" transform="translate(.3945822 .12083)"/>
  <path d="M274.919 418.32c-3.586 2.914-4.104 9.753-.114 13.635 1.874 1.822 2.135 4.755.325 6.785-1.679 1.893-5.53 2.501-7.889.345-2.365-2.171-1.953-4.918.34-7.232 4.109-4.148 3.493-10.151 0-13.632-1.916-1.904-2.135-4.658-.228-6.611 2.272-2.336 5.688-2.709 8.016-.515 2.121 1.991 1.967 5.017-.45 7.225z" style="fill:#b0081c;stroke:#000" transform="translate(.3945822 .12083)"/>
  <path d="M268.939 410.949c0 2.75 1.112 4.982 2.485 4.982 1.373 0 2.481-2.232 2.481-4.982v-29.387c0-2.753-1.108-4.981-2.481-4.981-1.373 0-2.485 2.229-2.485 4.981v29.387zM268.704 469.491c0 2.747 1.112 4.979 2.484 4.979 1.373 0 2.484-2.232 2.484-4.979v-29.387c0-2.756-1.111-4.986-2.484-4.986-1.372 0-2.484 2.23-2.484 4.986v29.387zM319.563 469.646c3.242 3.368 7.248 4.2 10.498.267 2.501-3.026 8.467-2.748 11.405.722 3.538 4.181 3.922 9.517.462 13.724-2.771 3.378-8.349 3.906-11.484.714-3.644-3.703-7.039-3.859-10.498-.262-2.336 2.435-8.35 3.639-12.007-1.064-3.032-3.891-3.32-9.557-.162-13.278 3.255-3.821 8.851-4.074 11.786-.823z" style="fill:#fb0;stroke:#000" transform="translate(.3945822 .12083)"/>
  <path d="M318.191 473.711c2.895 3.608 9.692 4.132 13.547.115 1.812-1.886 4.728-2.149 6.747-.325 1.877 1.686 2.481 5.562.339 7.934-2.155 2.382-4.889 1.967-7.189-.34-4.12-4.136-10.085-3.515-13.544 0-1.895 1.927-4.631 2.146-6.57.229-2.322-2.286-2.693-5.727-.516-8.067 1.983-2.136 4.988-1.98 7.186.454z" style="fill:#b0081c;stroke:#000" transform="translate(.3945822 .12083)"/>
  <path d="M310.861 479.728c2.735 0 4.953-1.122 4.953-2.5s-2.218-2.498-4.953-2.498h-29.205c-2.739 0-4.952 1.12-4.952 2.498 0 1.378 2.213 2.5 4.952 2.5h29.205zM382.444 472.23c2.422 3.971 3.188 9.37-.329 12.734-4.237 4.048-10.951 2.613-13.892-.873-3.307-3.923-3.431-7.85-1.146-11.685 2.266-3.799-3.922-7.15 2.453-13.604 3.709-3.755 8.557-3.307 12.093 1.22 4.089 5.235-1.005 9.217.821 12.208z" style="fill:#fb0;stroke:#000" transform="translate(.3945822 .12083)"/>
  <path d="M378.92 473.385c1.625 2.659 2.493 5.785.673 8.122-1.693 2.179-5.751 2.717-8.364.019-2.611-2.698-1.901-5.614.014-8.614 2.211-3.469-2.107-5.506-.612-9.331 1.634-4.186 7.204-4.367 8.705.277 1.263 3.906-2.941 5.407-.416 9.527z" style="fill:#b0081c;stroke:#000" transform="translate(.3945822 .12083)"/>
  <path d="M369.044 479.964c2.733 0 4.949-1.117 4.949-2.501 0-1.381-2.216-2.498-4.949-2.498h-29.205c-2.741 0-4.953 1.117-4.953 2.498 0 1.384 2.212 2.501 4.953 2.501h29.205zM420.233 470.342c3.239 3.369 7.246 4.202 10.499.271 2.498-3.03 8.463-2.75 11.402.719 3.541 4.181 3.922 9.517.465 13.724-2.772 3.377-8.35 3.906-11.484.714-3.646-3.703-7.043-3.86-10.501-.26-2.336 2.433-8.35 3.637-12.005-1.066-3.032-3.888-3.319-9.558-.162-13.276 3.252-3.823 8.852-4.071 11.786-.826z" style="fill:#fb0;stroke:#000" transform="translate(.3945822 .12083)"/>
  <path d="M418.858 474.409c2.895 3.606 9.691 4.131 13.549.113 1.812-1.886 4.729-2.146 6.745-.326 1.88 1.69 2.484 5.564.342 7.936-2.156 2.382-4.889 1.97-7.188-.336-4.12-4.137-10.089-3.516-13.547 0-1.892 1.923-4.628 2.142-6.569.224-2.32-2.286-2.695-5.726-.515-8.066 1.981-2.133 4.989-1.978 7.183.455z" style="fill:#b0081c;stroke:#000" transform="translate(.3945822 .12083)"/>
  <path d="M411.532 480.427c2.733 0 4.95-1.125 4.95-2.504 0-1.377-2.217-2.498-4.95-2.498h-29.206c-2.739 0-4.953 1.121-4.953 2.498 0 1.379 2.214 2.504 4.953 2.504h29.206zM469.713 480.662c2.733 0 4.951-1.118 4.951-2.502 0-1.381-2.218-2.498-4.951-2.498h-29.205c-2.739 0-4.951 1.117-4.951 2.498 0 1.384 2.212 2.502 4.951 2.502h29.205zM319.563 280.113c3.242-3.369 7.248-4.202 10.498-.266 2.501 3.025 8.467 2.745 11.405-.722 3.538-4.181 3.922-9.517.462-13.723-2.771-3.381-8.349-3.909-11.484-.715-3.644 3.7-7.039 3.858-10.498.262-2.336-2.437-8.35-3.642-12.007 1.062-3.032 3.893-3.32 9.56-.162 13.279 3.255 3.821 8.851 4.073 11.786.823z" style="fill:#fb0;stroke:#000" transform="translate(.3945822 .12083)"/>
  <path d="M318.191 276.047c2.895-3.607 9.692-4.131 13.547-.113 1.812 1.885 4.728 2.148 6.747.325 1.877-1.687 2.481-5.564.339-7.935-2.155-2.382-4.889-1.968-7.189.339-4.12 4.137-10.085 3.516-13.544 0-1.895-1.927-4.631-2.142-6.57-.225-2.322 2.284-2.693 5.723-.516 8.067 1.983 2.13 4.988 1.978 7.186-.458z" style="fill:#b0081c;stroke:#000" transform="translate(.3945822 .12083)"/>
  <path d="M310.861 270.031c2.735 0 4.953 1.123 4.953 2.5 0 1.378-2.218 2.501-4.953 2.501h-29.205c-2.739 0-4.952-1.123-4.952-2.501 0-1.377 2.213-2.5 4.952-2.5h29.205zM382.444 277.53c2.422-3.973 3.188-9.369-.329-12.732-4.237-4.051-10.951-2.615-13.892.87-3.307 3.92-3.431 7.85-1.146 11.688 2.266 3.794-3.922 7.149 2.453 13.604 3.709 3.751 8.557 3.304 12.093-1.222 4.089-5.233-1.005-9.215.821-12.208z" style="fill:#fb0;stroke:#000" transform="translate(.3945822 .12083)"/>
  <path d="M378.92 276.375c1.625-2.661 2.493-5.783.673-8.122-1.693-2.18-5.751-2.715-8.364-.021-2.611 2.701-1.901 5.618.014 8.615 2.211 3.473-2.107 5.506-.612 9.332 1.634 4.185 7.204 4.367 8.705-.277 1.263-3.909-2.941-5.407-.416-9.527z" style="fill:#b0081c;stroke:#000" transform="translate(.3945822 .12083)"/>
  <path d="M369.044 269.795c2.733 0 4.949 1.117 4.949 2.503 0 1.378-2.216 2.496-4.949 2.496h-29.205c-2.741 0-4.953-1.118-4.953-2.496 0-1.386 2.212-2.503 4.953-2.503h29.205zM420.233 279.417c3.239-3.37 7.246-4.203 10.499-.27 2.498 3.027 8.463 2.749 11.402-.719 3.541-4.181 3.922-9.516.465-13.724-2.772-3.38-8.35-3.908-11.484-.713-3.646 3.7-7.043 3.857-10.501.26-2.336-2.436-8.35-3.64-12.005 1.063-3.032 3.891-3.319 9.561-.162 13.276 3.252 3.823 8.852 4.073 11.786.827z" style="fill:#fb0;stroke:#000" transform="translate(.3945822 .12083)"/>
  <path d="M418.858 275.351c2.895-3.608 9.691-4.133 13.549-.115 1.812 1.887 4.729 2.146 6.745.326 1.88-1.69 2.484-5.563.342-7.935-2.156-2.382-4.889-1.97-7.188.336-4.12 4.137-10.089 3.517-13.547 0-1.892-1.923-4.628-2.14-6.569-.222-2.32 2.283-2.695 5.723-.515 8.066 1.981 2.131 4.989 1.978 7.183-.456z" style="fill:#b0081c;stroke:#000" transform="translate(.3945822 .12083)"/>
  <path d="M411.532 269.333c2.733 0 4.95 1.123 4.95 2.501 0 1.379-2.217 2.502-4.95 2.502h-29.206c-2.739 0-4.953-1.123-4.953-2.502 0-1.378 2.214-2.501 4.953-2.501h29.206zM469.713 269.098c2.733 0 4.951 1.117 4.951 2.503 0 1.379-2.218 2.495-4.951 2.495h-29.205c-2.739 0-4.951-1.116-4.951-2.495 0-1.386 2.212-2.503 4.951-2.503h29.205zM422.144 381.971c3.103-3.368 6.939-4.202 10.054-.265 2.393 3.024 8.104 2.745 10.921-.722 3.388-4.18 3.754-9.517.444-13.724-2.656-3.38-7.994-3.909-11-.714-3.49 3.7-6.743 3.857-10.056.261-2.234-2.436-7.996-3.641-11.496 1.063-2.901 3.893-3.18 9.559-.157 13.278 3.116 3.821 8.478 4.073 11.29.823z" style="fill:#fb0;stroke:#000" transform="translate(.3945822 .12083)"/>
  <path d="M420.828 377.905c2.771-3.608 9.282-4.131 12.972-.114 1.741 1.886 4.531 2.149 6.462.328 1.801-1.689 2.382-5.565.329-7.937-2.065-2.382-4.683-1.967-6.886.338-3.947 4.138-9.662 3.517-12.975 0-1.81-1.925-4.432-2.143-6.291-.224-2.219 2.283-2.579 5.722-.49 8.067 1.895 2.133 4.777 1.978 6.879-.458z" style="fill:#b0081c;stroke:#000" transform="translate(.3945822 .12083)"/>
  <path d="M414.552 371.889c2.208 0 4 1.123 4 2.501 0 1.381-1.792 2.502-4 2.502h-23.595c-2.209 0-3.997-1.121-3.997-2.502 0-1.378 1.788-2.501 3.997-2.501h23.595zM461.704 371.655c1.991 0 3.609 1.115 3.609 2.5 0 1.38-1.618 2.497-3.609 2.497h-21.28c-1.996 0-3.61-1.117-3.61-2.497 0-1.385 1.614-2.5 3.61-2.5h21.28zM318.484 381.971c3.104-3.368 6.938-4.202 10.054-.265 2.392 3.024 8.103 2.745 10.921-.722 3.388-4.18 3.754-9.517.444-13.724-2.656-3.38-7.997-3.909-11-.714-3.491 3.7-6.744 3.857-10.056.261-2.235-2.436-7.997-3.641-11.497 1.063-2.901 3.893-3.179 9.559-.156 13.278 3.115 3.821 8.477 4.073 11.29.823z" style="fill:#fb0;stroke:#000" transform="translate(.3945822 .12083)"/>
  <path d="M317.166 377.905c2.774-3.608 9.282-4.131 12.975-.114 1.739 1.886 4.53 2.149 6.462.328 1.798-1.689 2.379-5.565.325-7.937-2.064-2.382-4.68-1.967-6.885.338-3.946 4.138-9.66 3.517-12.972 0-1.81-1.925-4.433-2.143-6.291-.224-2.222 2.283-2.58 5.722-.494 8.067 1.897 2.133 4.78 1.978 6.88-.458z" style="fill:#b0081c;stroke:#000" transform="translate(.3945822 .12083)"/>
  <path d="M310.892 371.889c2.208 0 4.001 1.123 4.001 2.501 0 1.381-1.793 2.502-4.001 2.502h-23.596c-2.208 0-3.995-1.121-3.995-2.502 0-1.378 1.787-2.501 3.995-2.501h23.596zM358.043 371.655c1.991 0 3.607 1.115 3.607 2.5 0 1.38-1.616 2.497-3.607 2.497h-21.28c-1.995 0-3.611-1.117-3.611-2.497 0-1.385 1.616-2.5 3.611-2.5h21.28zM382.085 432.056c-3.347-3.123-4.177-6.982-.266-10.115 3.005-2.409 2.729-8.157-.715-10.989-4.154-3.413-9.457-3.776-13.641-.444-3.357 2.669-3.884 8.042-.711 11.062 3.679 3.516 3.836 6.787.261 10.121-2.419 2.246-3.618 8.047 1.058 11.566 3.869 2.92 9.5 3.201 13.194.155 3.8-3.134 4.048-8.527.82-11.356z" style="fill:#fb0;stroke:#000" transform="translate(.3945822 .12083)"/>
  <path d="M378.043 433.379c-3.585-2.788-4.106-9.339-.113-13.055 1.875-1.747 2.135-4.557.325-6.5-1.679-1.809-5.53-2.392-7.889-.325-2.365 2.075-1.953 4.708.337 6.923 4.113 3.97 3.494 9.721 0 13.056-1.913 1.821-2.129 4.458-.223 6.327 2.271 2.236 5.689 2.598 8.02.497 2.118-1.906 1.966-4.807-.457-6.923z" style="fill:#b0081c;stroke:#000" transform="translate(.3945822 .12083)"/>
  <path d="M372.061 439.691c0-2.218 1.118-4.022 2.488-4.022 1.37 0 2.488 1.805 2.488 4.022v23.741c0 2.225-1.118 4.023-2.488 4.023-1.37 0-2.488-1.799-2.488-4.023v-23.741zM371.832 392.253c0-2.008 1.108-3.633 2.484-3.633 1.37 0 2.481 1.625 2.481 3.633v21.407c0 2.008-1.111 3.633-2.481 3.633-1.376 0-2.484-1.625-2.484-3.633v-21.407zM382.433 327.757c-3.35-3.123-4.178-6.982-.266-10.116 3.005-2.409 2.729-8.157-.715-10.988-4.157-3.413-9.46-3.776-13.64-.448-3.359 2.672-3.885 8.046-.712 11.064 3.679 3.516 3.835 6.787.261 10.118-2.423 2.25-3.619 8.049 1.058 11.57 3.865 2.918 9.5 3.198 13.195.155 3.797-3.134 4.048-8.526.819-11.355z" style="fill:#fb0;stroke:#000" transform="translate(.3945822 .12083)"/>
  <path d="M378.391 329.08c-3.587-2.792-4.106-9.343-.113-13.056 1.874-1.748 2.134-4.556.325-6.501-1.68-1.809-5.531-2.392-7.889-.327-2.366 2.077-1.956 4.709.336 6.925 4.112 3.972 3.495 9.723 0 13.054-1.912 1.823-2.129 4.462-.222 6.331 2.271 2.235 5.689 2.597 8.02.497 2.115-1.907 1.963-4.807-.457-6.923z" style="fill:#b0081c;stroke:#000" transform="translate(.3945822 .12083)"/>
  <path d="M372.409 335.393c0-2.22 1.118-4.023 2.487-4.023 1.37 0 2.485 1.804 2.485 4.023v23.741c0 2.225-1.115 4.022-2.485 4.022-1.369 0-2.487-1.798-2.487-4.022v-23.741zM372.177 287.951c0-2.005 1.111-3.63 2.487-3.63 1.37 0 2.482 1.625 2.482 3.63v21.409c0 2.008-1.112 3.633-2.482 3.633-1.376 0-2.487-1.625-2.487-3.633v-21.409zM424.649 335.492c.396-5.094 3.179-9.07 8.616-9.087 4.176-.009 8.987-5.266 9.062-10.173.093-5.916-3.261-9.955-9.057-9.955-4.65-.003-9.688 4.361-10.119 9.247-.511 5.67-3.247 8.659-8.623 9.091-3.635.281-9.508 4.541-9.334 10.916.14 5.281 3.803 9.474 9.009 9.382 5.358-.095 10.222-4.671 10.446-9.421z" style="fill:#fb0;stroke:#000" transform="translate(.3945822 .12083)"/>
  <path d="M420.698 333.826c-.058-4.97 5.28-11.099 11.278-11.572 2.815-.222 5.443-2.512 5.879-5.492.415-2.765-1.747-5.977-5.177-5.813-3.444.171-5.451 2.778-5.791 6.331-.61 6.378-6.038 11.006-11.358 11.492-2.91.262-5.356 2.433-5.66 5.414-.375 3.556 1.679 6.271 5.121 6.052 3.127-.196 5.545-2.852 5.708-6.412z" style="fill:#b0081c;stroke:#000" transform="translate(.3945822 .12083)"/>
  <path d="M410.411 335.851c2.292-2.316 4.928-3.418 5.876-2.455.949.957-.142 3.625-2.431 5.938l-24.481 24.772c-2.298 2.321-4.928 3.412-5.876 2.455-.947-.961.135-3.619 2.433-5.941l24.479-24.769zM459.022 286.345c2.292-2.316 4.923-3.418 5.876-2.455.946.96-.139 3.621-2.434 5.938l-24.481 24.77c-2.298 2.322-4.925 3.421-5.873 2.464-.953-.966.135-3.624 2.428-5.943l24.484-24.774zM323.972 436.236c.398-5.016 3.19-8.937 8.646-8.955 4.19-.009 9.02-5.187 9.096-10.018.089-5.831-3.277-9.809-9.09-9.809-4.666-.004-9.723 4.296-10.151 9.108-.513 5.583-3.261 8.528-8.653 8.954-3.648.277-9.541 4.479-9.364 10.757.139 5.205 3.814 9.338 9.036 9.248 5.375-.095 10.252-4.604 10.48-9.285z" style="fill:#fb0;stroke:#000" transform="translate(.3945822 .12083)"/>
  <path d="M320.006 434.597c-.057-4.896 5.304-10.934 11.317-11.403 2.827-.217 5.464-2.472 5.9-5.408.414-2.729-1.755-5.893-5.192-5.73-3.461.166-5.472 2.736-5.812 6.236-.61 6.285-6.062 10.843-11.397 11.323-2.921.26-5.373 2.398-5.68 5.333-.377 3.508 1.682 6.183 5.138 5.966 3.135-.194 5.564-2.811 5.726-6.317z" style="fill:#b0081c;stroke:#000" transform="translate(.3945822 .12083)"/>
  <path d="M309.687 436.592c2.301-2.285 4.94-3.37 5.893-2.421.954.944-.138 3.57-2.436 5.853l-24.566 24.405c-2.306 2.29-4.942 3.366-5.895 2.417-.947-.941.136-3.562 2.438-5.851l24.566-24.403zM358.464 387.812c2.294-2.281 4.938-3.368 5.895-2.417.949.941-.141 3.564-2.441 5.852l-24.566 24.401c-2.306 2.289-4.939 3.374-5.892 2.428-.955-.951.136-3.571 2.436-5.856l24.568-24.408zM424.859 415.654c.398 5.02 3.189 8.937 8.645 8.954 4.192.01 9.021 5.188 9.096 10.021.087 5.83-3.276 9.807-9.09 9.807-4.667.003-9.723-4.294-10.153-9.106-.511-5.585-3.258-8.531-8.651-8.958-3.648-.276-9.541-4.476-9.363-10.756.138-5.205 3.811-9.336 9.035-9.246 5.372.097 10.253 4.602 10.481 9.284z" style="fill:#fb0;stroke:#000" transform="translate(.3945822 .12083)"/>
  <path d="M420.893 417.293c-.056 4.896 5.304 10.938 11.318 11.404 2.826.22 5.463 2.474 5.899 5.411.415 2.727-1.755 5.893-5.192 5.728-3.462-.166-5.471-2.735-5.812-6.232-.611-6.289-6.062-10.846-11.396-11.325-2.923-.262-5.373-2.398-5.681-5.335-.377-3.506 1.682-6.179 5.139-5.966 3.133.196 5.562 2.811 5.725 6.315z" style="fill:#b0081c;stroke:#000" transform="translate(.3945822 .12083)"/>
  <path d="M410.574 415.303c2.3 2.283 4.938 3.366 5.893 2.418.954-.945-.14-3.568-2.437-5.85l-24.565-24.408c-2.308-2.291-4.944-3.364-5.896-2.418-.95.945.136 3.562 2.439 5.852l24.566 24.406zM459.351 464.081c2.295 2.278 4.937 3.367 5.896 2.416.948-.943-.142-3.564-2.442-5.85l-24.565-24.403c-2.306-2.289-4.94-3.372-5.893-2.429-.954.952.137 3.571 2.437 5.857l24.567 24.409zM324.316 314.493c.402 5.019 3.193 8.938 8.648 8.959 4.19.007 9.016 5.183 9.093 10.018.089 5.831-3.274 9.806-9.088 9.806-4.666.003-9.723-4.294-10.153-9.107-.511-5.585-3.259-8.531-8.65-8.953-3.649-.28-9.541-4.479-9.364-10.759.136-5.204 3.812-9.337 9.033-9.245 5.376.094 10.257 4.6 10.481 9.281z" style="fill:#fb0;stroke:#000" transform="translate(.3945822 .12083)"/>
  <path d="M320.353 316.133c-.057 4.898 5.304 10.938 11.317 11.406 2.827.218 5.464 2.471 5.9 5.409.415 2.726-1.755 5.893-5.191 5.726-3.461-.165-5.472-2.733-5.813-6.232-.61-6.289-6.06-10.846-11.396-11.323-2.922-.263-5.374-2.397-5.679-5.333-.378-3.507 1.68-6.183 5.137-5.968 3.135.194 5.562 2.809 5.725 6.315z" style="fill:#b0081c;stroke:#000" transform="translate(.3945822 .12083)"/>
  <path d="M310.034 314.142c2.301 2.284 4.939 3.368 5.892 2.42.955-.948-.138-3.57-2.436-5.852l-24.569-24.406c-2.303-2.29-4.939-3.367-5.892-2.42-.949.944.136 3.562 2.437 5.851l24.568 24.407zM358.812 362.92c2.295 2.282 4.937 3.366 5.895 2.418.948-.945-.142-3.564-2.441-5.852l-24.567-24.403c-2.305-2.287-4.939-3.372-5.891-2.429-.955.953.135 3.57 2.436 5.856l24.568 24.41z" style="fill:#fb0;stroke:#000" transform="translate(.3945822 .12083)"/>
  <path d="M290.93309 243.85224s.833-1.538.874-2.661c.062-1.122-.057-2.321-.074-2.493-.016-.167-1.567-.38-2.596-.098-3.35.91-3.784 4.307-3.784 4.307s1.972-1.188 2.971-.786c1.424.55 2.609 1.731 2.609 1.731z" style="fill:#fb0;fill-opacity:1;stroke:#000;stroke-width:1;stroke-miterlimit:4;stroke-dasharray:none"/>
  <path d="M297.15604 244.1228s.833-1.538.874-2.661c.062-1.122-.057-2.321-.074-2.493-.016-.167-1.567-.38-2.596-.098-3.35.91-3.784 4.307-3.784 4.307s1.972-1.188 2.971-.786c1.424.55 2.609 1.731 2.609 1.731zM446.50669 243.58167s.833-1.538.874-2.661c.062-1.122-.057-2.321-.074-2.493-.016-.167-1.567-.38-2.596-.098-3.35.91-3.784 4.307-3.784 4.307s1.972-1.188 2.971-.786c1.424.55 2.609 1.731 2.609 1.731z" style="fill:#fb0;fill-opacity:1;stroke:#000;stroke-width:1;stroke-miterlimit:4;stroke-dasharray:none"/>
  <path d="M452.45907 243.85223s.833-1.538.874-2.661c.062-1.122-.057-2.321-.074-2.493-.016-.167-1.567-.38-2.596-.098-3.35.91-3.784 4.307-3.784 4.307s1.972-1.188 2.971-.786c1.424.55 2.609 1.731 2.609 1.731z" style="fill:#fb0;fill-opacity:1;stroke:#000;stroke-width:1;stroke-miterlimit:4;stroke-dasharray:none"/>
  <path transform="translate(.125 3.194375)" style="fill:#fb0;stroke:#000;stroke-width:1;stroke-miterlimit:4;stroke-dasharray:none" d="M81.741 83.293V32.316l6.077-6.018V14.262h-4.289v7.435H72.802v-7.081h-8.223v7.081H53.853v-7.435h-4.29v12.036l6.078 6.018v50.977h26.1z"/>
  <path d="M60.177 43.789375c0-2.734 1.014-4.952 2.265-4.952 1.25 0 2.262 2.217 2.262 4.952v10.736h-4.527v-10.736zM77.457 43.789375c0-2.734-1.015-4.952-2.265-4.952-1.25 0-2.264 2.217-2.264 4.952v10.736h4.529v-10.736z" style="fill:#0044ad;stroke:#000;stroke-width:1;stroke-miterlimit:4;stroke-dasharray:none"/>
  <path transform="translate(.125 3.194375)" style="fill:#fb0;stroke:#000;stroke-width:1;stroke-miterlimit:4;stroke-dasharray:none" d="M139.723 85.939V28.353l6.866-6.801V7.955h-4.846v8.4h-12.118V8.356h-9.289v7.999h-12.118v-8.4h-4.846v13.597l6.869 6.801v57.586h29.482z"/>
  <path d="M115.346 40.899375c0-3.091 1.146-5.596 2.556-5.596 1.414 0 2.559 2.504 2.559 5.596v12.127h-5.115v-12.127zM134.865 40.899375c0-3.091-1.144-5.596-2.555-5.596-1.415 0-2.56 2.504-2.56 5.596v12.127h5.115v-12.127z" style="fill:#0044ad;stroke:#000;stroke-width:1;stroke-miterlimit:4;stroke-dasharray:none"/>
  <path transform="translate(.125 3.194375)" style="fill:#fb0;stroke:#000;stroke-width:1;stroke-miterlimit:4;stroke-dasharray:none" d="M168.024 83.293V32.316l-6.077-6.018V14.262h4.289v7.435h10.727v-7.081h8.223v7.081h10.726v-7.435h4.29v12.036l-6.077 6.018v50.977h-26.101z"/>
  <path d="M35.28125 77.069375v21.375l21.5 12.093745c-.000002 82.97601-16.30325 89.01176-44.15625 99.46876v28.84375h224.75v-28.84375c-27.853-10.457-44.125-16.49275-44.125-99.46876l21.46875-12.093745v-21.375h-15.5625v9.3125H178.375v-8.375h-21.5v9.28125H137.75v-10.21875h-25.5v10.21875H93.125v-9.28125H71.65625v8.375H50.875v-9.3125H35.28125z" style="fill:#fb0;stroke:#000;stroke-width:1;stroke-miterlimit:4;stroke-dasharray:none;stroke-opacity:1"/>
  <path d="M93.31221 166.83449v10.28067" style="fill:#fb0;fill-opacity:1;fill-rule:nonzero;stroke:#000;stroke-width:1.00000012;stroke-linecap:round;stroke-linejoin:round;stroke-miterlimit:4;stroke-dasharray:none;stroke-opacity:1"/>
  <path d="M12.847565 210.01737h82.138667" style="fill:#fb0;fill-opacity:1;fill-rule:nonzero;stroke:#000;stroke-width:1;stroke-linecap:round;stroke-linejoin:round;stroke-miterlimit:4;stroke-dasharray:none;stroke-opacity:1"/>
  <path d="M12.88347 219.66837h73.62577M86.50924 229.32442H12.88347" style="fill:#fb0;fill-opacity:1;fill-rule:nonzero;stroke:#000;stroke-width:.99999994;stroke-linecap:round;stroke-linejoin:round;stroke-miterlimit:4;stroke-dasharray:none;stroke-opacity:1"/>
  <path d="M35.391058 229.64804v8.77351" style="fill:#fb0;fill-opacity:1;fill-rule:nonzero;stroke:#000;stroke-width:1;stroke-linecap:round;stroke-linejoin:round;stroke-miterlimit:4;stroke-dasharray:none;stroke-opacity:1"/>
  <path d="M70.657116 229.51327v9.08928" style="fill:#fb0;fill-opacity:1;fill-rule:nonzero;stroke:#000;stroke-width:.99999994;stroke-linecap:round;stroke-linejoin:round;stroke-miterlimit:4;stroke-dasharray:none;stroke-opacity:1"/>
  <path d="M53.582094 219.8383v9.37452M70.768717 210.43858v8.82067" style="fill:#fb0;fill-opacity:1;fill-rule:nonzero;stroke:#000;stroke-width:1;stroke-linecap:round;stroke-linejoin:round;stroke-miterlimit:4;stroke-dasharray:none;stroke-opacity:1"/>
  <path d="M35.279456 210.46376v8.67784M34.163442 200.14479v9.44513" style="fill:#fb0;fill-opacity:1;fill-rule:nonzero;stroke:#000;stroke-width:.99999994;stroke-linecap:round;stroke-linejoin:round;stroke-miterlimit:4;stroke-dasharray:none;stroke-opacity:1"/>
  <path d="M62.733413 195.83512v13.58689" style="fill:#fb0;fill-opacity:1;fill-rule:nonzero;stroke:#000;stroke-width:1;stroke-linecap:round;stroke-linejoin:round;stroke-miterlimit:4;stroke-dasharray:none;stroke-opacity:1"/>
  <path d="M39.609998 195.41738h55.713807" style="fill:#fb0;fill-opacity:1;fill-rule:nonzero;stroke:#000;stroke-width:.99999994;stroke-linecap:round;stroke-linejoin:round;stroke-miterlimit:4;stroke-dasharray:none;stroke-opacity:1"/>
  <path d="M48.58171 181.001h42.392269" style="fill:#fb0;fill-opacity:1;fill-rule:nonzero;stroke:#000;stroke-width:1;stroke-linecap:round;stroke-linejoin:round;stroke-miterlimit:4;stroke-dasharray:none;stroke-opacity:1"/>
  <path d="M79.362029 181.30164v13.58563" style="fill:#fb0;fill-opacity:1;fill-rule:nonzero;stroke:#000;stroke-width:.99999994;stroke-linecap:round;stroke-linejoin:round;stroke-miterlimit:4;stroke-dasharray:none;stroke-opacity:1"/>
  <path d="M48.67163 181.001v14.28498" style="fill:#fb0;fill-opacity:1;fill-rule:nonzero;stroke:#000;stroke-width:1;stroke-linecap:round;stroke-linejoin:round;stroke-miterlimit:4;stroke-dasharray:none;stroke-opacity:1"/>
  <path d="M62.733413 166.7004v13.7311" style="fill:#fb0;fill-opacity:1;fill-rule:nonzero;stroke:#000;stroke-width:.99999994;stroke-linecap:round;stroke-linejoin:round;stroke-miterlimit:4;stroke-dasharray:none;stroke-opacity:1"/>
  <path d="M52.676745 166.49281h68.667325M79.362029 152.49294v13.36642M90.081192 152.09622H55.087257M62.733413 137.69962v14.3966M56.470292 137.69962h33.724913M56.995022 123.41464h35.879197M79.362029 123.81894v13.36479" style="fill:#fb0;fill-opacity:1;fill-rule:nonzero;stroke:#000;stroke-width:1;stroke-linecap:round;stroke-linejoin:round;stroke-miterlimit:4;stroke-dasharray:none;stroke-opacity:1"/>
  <path d="M62.733413 110.90757v11.95678M93.31221 110.92467v11.94964M125 110.90757v11.95678" style="fill:#fb0;fill-opacity:1;fill-rule:nonzero;stroke:#000;stroke-width:.99999994;stroke-linecap:round;stroke-linejoin:round;stroke-miterlimit:4;stroke-dasharray:none;stroke-opacity:1"/>
  <path d="M125 137.79089v13.91757M109.38282 137.69962h30.9136M109.334 123.41464v43.07817M109.94083 152.09622h30.24399M107.03919 123.41464h36.15887" style="fill:#fb0;fill-opacity:1;fill-rule:nonzero;stroke:#000;stroke-width:1;stroke-linecap:round;stroke-linejoin:round;stroke-miterlimit:4;stroke-dasharray:none;stroke-opacity:1"/>
  <path d="M189.839 43.789375c0-2.734-1.015-4.952-2.264-4.952-1.25 0-2.264 2.217-2.264 4.952v10.736h4.528v-10.736zM172.559 43.789375c0-2.734 1.014-4.952 2.265-4.952 1.251 0 2.264 2.217 2.264 4.952v10.736h-4.529v-10.736z" style="fill:#0044ad;stroke:#000;stroke-width:1;stroke-miterlimit:4;stroke-dasharray:none"/>
  <path style="fill:none;stroke:#000;stroke-width:1;stroke-miterlimit:4;stroke-dasharray:none" d="M110.366 31.547375h29.48201M103.497 24.746374h43.217M49.688 29.492374h38.255001M55.765999 35.510376h26.099998M162.07201 29.492374H200.327M168.149 35.510376h26.101M35.287998 98.454376H214.72701"/>
  <path style="fill:none;stroke:#000;stroke-width:1;stroke-linecap:round;stroke-linejoin:round;stroke-miterlimit:4;stroke-dasharray:none" d="M56.775002 110.54337H193.24001"/>
  <path d="M156.68779 166.83449v10.28067" style="fill:#fb0;fill-opacity:1;fill-rule:nonzero;stroke:#000;stroke-width:1.00000012;stroke-linecap:round;stroke-linejoin:round;stroke-miterlimit:4;stroke-dasharray:none;stroke-opacity:1"/>
  <path d="M237.15243 210.01737h-82.13866" style="fill:#fb0;fill-opacity:1;fill-rule:nonzero;stroke:#000;stroke-width:1;stroke-linecap:round;stroke-linejoin:round;stroke-miterlimit:4;stroke-dasharray:none;stroke-opacity:1"/>
  <path d="M237.11653 219.66837h-73.62577M163.49076 229.32442h73.62577" style="fill:#fb0;fill-opacity:1;fill-rule:nonzero;stroke:#000;stroke-width:.99999994;stroke-linecap:round;stroke-linejoin:round;stroke-miterlimit:4;stroke-dasharray:none;stroke-opacity:1"/>
  <path d="M214.60894 229.64804v8.77351" style="fill:#fb0;fill-opacity:1;fill-rule:nonzero;stroke:#000;stroke-width:1;stroke-linecap:round;stroke-linejoin:round;stroke-miterlimit:4;stroke-dasharray:none;stroke-opacity:1"/>
  <path d="M179.34288 229.51327v9.08928" style="fill:#fb0;fill-opacity:1;fill-rule:nonzero;stroke:#000;stroke-width:.99999994;stroke-linecap:round;stroke-linejoin:round;stroke-miterlimit:4;stroke-dasharray:none;stroke-opacity:1"/>
  <path d="M196.41791 219.8383v9.37452M179.23128 210.43858v8.82067" style="fill:#fb0;fill-opacity:1;fill-rule:nonzero;stroke:#000;stroke-width:1;stroke-linecap:round;stroke-linejoin:round;stroke-miterlimit:4;stroke-dasharray:none;stroke-opacity:1"/>
  <path d="M214.72054 210.46376v8.67784M215.83656 200.14479v9.44513" style="fill:#fb0;fill-opacity:1;fill-rule:nonzero;stroke:#000;stroke-width:.99999994;stroke-linecap:round;stroke-linejoin:round;stroke-miterlimit:4;stroke-dasharray:none;stroke-opacity:1"/>
  <path d="M187.26659 195.83512v13.58689" style="fill:#fb0;fill-opacity:1;fill-rule:nonzero;stroke:#000;stroke-width:1;stroke-linecap:round;stroke-linejoin:round;stroke-miterlimit:4;stroke-dasharray:none;stroke-opacity:1"/>
  <path d="M210.39 195.41738h-55.7138" style="fill:#fb0;fill-opacity:1;fill-rule:nonzero;stroke:#000;stroke-width:.99999994;stroke-linecap:round;stroke-linejoin:round;stroke-miterlimit:4;stroke-dasharray:none;stroke-opacity:1"/>
  <path d="M201.41829 181.001h-42.39227" style="fill:#fb0;fill-opacity:1;fill-rule:nonzero;stroke:#000;stroke-width:1;stroke-linecap:round;stroke-linejoin:round;stroke-miterlimit:4;stroke-dasharray:none;stroke-opacity:1"/>
  <path d="M170.63797 181.30164v13.58563" style="fill:#fb0;fill-opacity:1;fill-rule:nonzero;stroke:#000;stroke-width:.99999994;stroke-linecap:round;stroke-linejoin:round;stroke-miterlimit:4;stroke-dasharray:none;stroke-opacity:1"/>
  <path d="M201.32837 181.001v14.28498" style="fill:#fb0;fill-opacity:1;fill-rule:nonzero;stroke:#000;stroke-width:1;stroke-linecap:round;stroke-linejoin:round;stroke-miterlimit:4;stroke-dasharray:none;stroke-opacity:1"/>
  <path d="M187.26659 166.7004v13.7311" style="fill:#fb0;fill-opacity:1;fill-rule:nonzero;stroke:#000;stroke-width:.99999994;stroke-linecap:round;stroke-linejoin:round;stroke-miterlimit:4;stroke-dasharray:none;stroke-opacity:1"/>
  <path d="M197.32326 166.49281h-68.66733M159.91881 152.09622h34.99393M187.26659 137.69962v14.3966M193.52971 137.69962H159.8048M193.00498 123.41464h-35.8792" style="fill:#fb0;fill-opacity:1;fill-rule:nonzero;stroke:#000;stroke-width:1;stroke-linecap:round;stroke-linejoin:round;stroke-miterlimit:4;stroke-dasharray:none;stroke-opacity:1"/>
  <path d="M187.26659 110.90757v11.95678M156.68779 110.92467v11.94964" style="fill:#fb0;fill-opacity:1;fill-rule:nonzero;stroke:#000;stroke-width:.99999994;stroke-linecap:round;stroke-linejoin:round;stroke-miterlimit:4;stroke-dasharray:none;stroke-opacity:1"/>
  <path d="M140.666 123.41464v43.07817" style="fill:#fb0;fill-opacity:1;fill-rule:nonzero;stroke:#000;stroke-width:1;stroke-linecap:round;stroke-linejoin:round;stroke-miterlimit:4;stroke-dasharray:none;stroke-opacity:1"/>
  <g>
    <path d="m-166.96875 173.25-6.0625-9.90625c-4.74262 2.16889-8.82417 5.54355-11.875 9.71875l7.5625 8.1875" style="fill:#fb0;fill-opacity:1;stroke:#000;stroke-width:1;stroke-linecap:round;stroke-linejoin:round;stroke-miterlimit:4;stroke-dasharray:none;stroke-opacity:1" transform="translate(285.6875 3.194375)"/>
    <path d="m-180.6875 192.21875-9.4375.03125v24.21875h9.4375v-24.25z" style="fill:#fb0;stroke:#000;stroke-width:1;stroke-linecap:round;stroke-linejoin:round;stroke-miterlimit:4;stroke-dasharray:none;stroke-opacity:1" transform="translate(285.6875 3.194375)"/>
    <path d="M-160.6875 154.15625c-5.83866 0-11.3887 1.40657-16.3125 3.90625l9.5 15.1875h13.625l9.5-15.1875c-4.9238-2.49968-10.47384-3.90625-16.3125-3.90625zM-199.18751 216.46875v19.1875h22.13005v-19.1875h-22.13005z" style="fill:#fb0;fill-opacity:1;stroke:#000;stroke-width:1;stroke-linecap:round;stroke-linejoin:round;stroke-miterlimit:4;stroke-dasharray:none;stroke-opacity:1" transform="translate(285.6875 3.194375)"/>
    <path d="M-189.1875 168.0625c-4.97968 6.24411-8 14.09543-8 22.59375V192.25l18.09375-.03125 2.6875-10-12.78125-14.15625z" style="fill:#fb0;stroke:#000;stroke-width:1;stroke-linecap:round;stroke-linejoin:round;stroke-miterlimit:4;stroke-dasharray:none;stroke-opacity:1" transform="translate(285.6875 3.194375)"/>
    <path d="m-154.40625 173.25 6.0625-9.90625c4.74262 2.16889 8.82417 5.54355 11.875 9.71875l-7.5625 8.1875" style="fill:#fb0;fill-opacity:1;stroke:#000;stroke-width:1;stroke-linecap:round;stroke-linejoin:round;stroke-miterlimit:4;stroke-dasharray:none;stroke-opacity:1" transform="translate(285.6875 3.194375)"/>
    <path d="m-140.6875 192.21875 9.4375.03125v24.21875h-9.4375v-24.25z" style="fill:#fb0;stroke:#000;stroke-width:1;stroke-linecap:round;stroke-linejoin:round;stroke-miterlimit:4;stroke-dasharray:none;stroke-opacity:1" transform="translate(285.6875 3.194375)"/>
    <path d="M-122.18749 216.46875v19.1875h-22.13005v-19.1875h22.13005z" style="fill:#fb0;fill-opacity:1;stroke:#000;stroke-width:1;stroke-linecap:round;stroke-linejoin:round;stroke-miterlimit:4;stroke-dasharray:none;stroke-opacity:1" transform="translate(285.6875 3.194375)"/>
    <path d="M-132.1875 168.0625c4.97968 6.24411 8 14.09543 8 22.59375V192.25l-18.09375-.03125-2.6875-10 12.78125-14.15625z" style="fill:#fb0;stroke:#000;stroke-width:1;stroke-linecap:round;stroke-linejoin:round;stroke-miterlimit:4;stroke-dasharray:none;stroke-opacity:1" transform="translate(285.6875 3.194375)"/>
    <path d="M-160.6875 170.646c-11.04001 0-20 8.96-20 20v45h40v-45c0-11.04-8.96-20-20-20z" style="fill:#0044ad;stroke:#000;stroke-width:1;stroke-linecap:round;stroke-linejoin:round;stroke-miterlimit:4;stroke-dasharray:none;stroke-opacity:1" transform="translate(285.6875 3.194375)"/>
  </g>
  <g>
    <path d="M90.261 127.286c0-5.877 4.24-10.638 9.477-10.638 5.234 0 9.471 4.761 9.471 10.638v23.06H90.261v-23.06z" style="fill:#fb0;stroke:#000;stroke-width:1;stroke-linecap:round;stroke-linejoin:round;stroke-miterlimit:4;stroke-dasharray:none" transform="translate(50.405 3.194375)"/>
    <path d="M99.719375 122.15625c-2.6665 0-4.812792 2.35085-4.8125 7.15625v16.375h9.656245v-16.375c.0003-4.8054-2.17725-7.15625-4.843745-7.15625z" style="fill:#0044ad;fill-opacity:1;stroke:#000;stroke-width:1;stroke-linecap:round;stroke-linejoin:round;stroke-miterlimit:4;stroke-dasharray:none;stroke-opacity:1" transform="translate(50.405 3.194375)"/>
    <path style="fill:none;stroke:#000;stroke-width:1;stroke-linecap:round;stroke-linejoin:round;stroke-miterlimit:4;stroke-dasharray:none" d="m90.261002 150.34599 4.767997-4.64799M104.682 145.698l4.527 4.64799" transform="translate(50.405 3.194375)"/>
  </g>
  <g>
    <path d="M90.261 127.286c0-5.877 4.24-10.638 9.477-10.638 5.234 0 9.471 4.761 9.471 10.638v23.06H90.261v-23.06z" style="fill:#fb0;stroke:#000;stroke-width:1;stroke-linecap:round;stroke-linejoin:round;stroke-miterlimit:4;stroke-dasharray:none" transform="translate(.125 3.194375)"/>
    <path d="M99.719375 122.15625c-2.6665 0-4.812792 2.35085-4.8125 7.15625v16.375h9.656245v-16.375c.0003-4.8054-2.17725-7.15625-4.843745-7.15625z" style="fill:#0044ad;fill-opacity:1;stroke:#000;stroke-width:1;stroke-linecap:round;stroke-linejoin:round;stroke-miterlimit:4;stroke-dasharray:none;stroke-opacity:1" transform="translate(.125 3.194375)"/>
    <path style="fill:none;stroke:#000;stroke-width:1;stroke-linecap:round;stroke-linejoin:round;stroke-miterlimit:4;stroke-dasharray:none" d="m90.261002 150.34599 4.767997-4.64799M104.682 145.698l4.527 4.64799" transform="translate(.125 3.194375)"/>
  </g>
  <path d="M170.63797 123.81894v13.36479M170.63797 152.49294v13.36642" style="fill:#fb0;fill-opacity:1;fill-rule:nonzero;stroke:#000;stroke-width:1;stroke-linecap:round;stroke-linejoin:round;stroke-miterlimit:4;stroke-dasharray:none;stroke-opacity:1"/>
</svg>
