<?xml version="1.0" encoding="UTF-8" standalone="no"?>
<svg
   xmlns:dc="http://purl.org/dc/elements/1.1/"
   xmlns:cc="http://creativecommons.org/ns#"
   xmlns:rdf="http://www.w3.org/1999/02/22-rdf-syntax-ns#"
   xmlns:svg="http://www.w3.org/2000/svg"
   xmlns="http://www.w3.org/2000/svg"
   xmlns:sodipodi="http://sodipodi.sourceforge.net/DTD/sodipodi-0.dtd"
   xmlns:inkscape="http://www.inkscape.org/namespaces/inkscape"
   version="1.1"
   width="1200"
   height="600"
   id="svg10"
   sodipodi:docname="flag.svg"
   inkscape:version="1.0.1 (3bc2e813f5, 2020-09-07)"
   inkscape:export-filename="C:\Users\MrEuroBlue\Desktop\Countrys\Eurasian Union\Symbols\Flag.png"
   inkscape:export-xdpi="800"
   inkscape:export-ydpi="800">
  <sodipodi:namedview
     pagecolor="#ffffff"
     bordercolor="#666666"
     borderopacity="1"
     objecttolerance="10"
     gridtolerance="10"
     guidetolerance="10"
     inkscape:pageopacity="0"
     inkscape:pageshadow="2"
     inkscape:window-width="1920"
     inkscape:window-height="1017"
     id="namedview10"
     showgrid="false"
     inkscape:zoom="0.83379674"
     inkscape:cx="608.77444"
     inkscape:cy="261.41275"
     inkscape:window-x="-8"
     inkscape:window-y="-8"
     inkscape:window-maximized="1"
     inkscape:current-layer="svg10"
     inkscape:document-rotation="0" />
  <metadata
     id="metadata16">
    <rdf:RDF>
      <cc:Work
         rdf:about="">
        <dc:format>image/svg+xml</dc:format>
        <dc:type
           rdf:resource="http://purl.org/dc/dcmitype/StillImage" />
        <dc:title />
      </cc:Work>
    </rdf:RDF>
  </metadata>
  <defs
     id="defs14" />
  <path
     fill="#bc0000"
     fill-opacity="1"
     d="M0 0h1200v600H0z"
     id="path2"
     style="fill:#750075;fill-opacity:1" />
  <g
     id="g38"
     transform="matrix(0.65425758,0,0,0.65427898,55.522752,41.069092)"
     style="fill:#fbf8c5;fill-opacity:1">
    <path
       d="m 335.46,166.5 -18,-7 A 224.24,224.24 0 0 1 266.69,131.65 223.85,223.85 0 0 1 283,76.11 L 290.75,58.44 273,66.19 A 224.18,224.18 0 0 1 217.43,82.39 224.17,224.17 0 0 1 189.6,31.65 l -7,-18 -7,18 A 224.24,224.24 0 0 1 147.78,82.4 224,224 0 0 1 92.23,66.19 l -17.66,-7.75 7.75,17.67 a 224.35,224.35 0 0 1 16.21,55.54 224.74,224.74 0 0 1 -50.76,27.84 l -18,7 18,7 a 224.45,224.45 0 0 1 50.75,27.84 224.1,224.1 0 0 1 -16.2,55.56 l -7.75,17.67 17.66,-7.75 a 224.35,224.35 0 0 1 55.53,-16.25 224.06,224.06 0 0 1 27.85,50.77 l 7,18 7,-18 a 224.06,224.06 0 0 1 27.85,-50.77 225.48,225.48 0 0 1 55.54,16.27 l 17.67,7.75 -7.67,-17.67 a 224.12,224.12 0 0 1 -16.25,-55.55 224.45,224.45 0 0 1 50.77,-27.85 z m -72.79,-80 a 239.4,239.4 0 0 0 -9.39,34.5 228.09,228.09 0 0 1 -25.2,-25.21 237.13,237.13 0 0 0 34.59,-9.33 z m -160.08,0 A 238.87,238.87 0 0 0 137.16,95.87 225.61,225.61 0 0 1 112,121 239,239 0 0 0 102.59,86.46 Z m 0,160.08 A 238.62,238.62 0 0 0 112,212 a 225.44,225.44 0 0 1 25.2,25.2 238.3,238.3 0 0 0 -34.61,9.34 z m 160.08,0 a 241.91,241.91 0 0 0 -34.58,-9.39 227,227 0 0 1 25.19,-25.19 239.53,239.53 0 0 0 9.39,34.55 z m -80,33.15 A 241,241 0 0 0 69.42,166.5 241,241 0 0 0 182.63,53.3 240.89,240.89 0 0 0 295.83,166.5 240.89,240.89 0 0 0 182.63,279.7 Z"
       id="path25"
       style="fill:#fbf8c5;fill-opacity:1" />
    <circle
       cx="182.63"
       cy="166.5"
       r="28.33"
       id="circle27"
       style="fill:#fbf8c5;fill-opacity:1" />
  </g>
</svg>
