<?xml version="1.0" encoding="UTF-8"?>
<svg xmlns="http://www.w3.org/2000/svg" width="600" height="600">
<rect width="600" height="600" fill="#000"/>
<rect width="600" height="400" fill="#f00000"/>
<g transform="translate(4.43121 -1.71758)">
<g transform="translate(60)">
<path d="m323.088 49.6477c-10.4202-0.432851-23.7524 20.9574-18.8198 27.5216 12.7987-0.02013 34.1283 34.9971 34.1283 34.9971 4.27748-2.09962 9.44249-7.89506 13.6392-13.1026 0 0-29.5166-40.5238-28.9477-49.4161z" stroke="#bf9f4f" stroke-width=".708662" fill="#ffe700"/>
<path d="m344.05 309.858c19.4871-14.9956 41.0769-38.4911 52.2508-68.7348-7.81229-12.4367-62.9212-32.3632-93.2417-30.9813 7.76098-19.2433 11.8908-67.5326 11.8908-67.5326s3.8554-9.03714 7.53279-19.243c-18.9462-9.02778-29.592-27.8201-29.592-27.8201-49.534 83.3865-54.6316 119.154-49.8246 144.467 0.6565 14.9496 43.2465 38.1223 65.6167 46.9123 22.5703 8.86876 35.3673 22.9329 35.3673 22.9329z" stroke="#333" stroke-width=".708662" fill="#fff"/>
<path d="m371.324 96.88c2.92337-13.4867-10.4216-14.1817-12.7514-8.56744-2.38847 5.75518 0.12104 9.32315-11.9441 21.1663-12.1513 11.9271-17.8764 8.60939-20.3377 16.4628-2.46161 7.85311 5.19818 14.4547 12.1056 12.9348 7.06167-1.55367 2.34028-8.0212 5.97203-13.7747 6.04262-12.5986 24.0401-14.7722 26.9555-28.2217z" stroke="#bf9f4f" stroke-width=".708662" fill="#ffe700"/>
<path d="m365.187 105.917c39.8242 59.349 24.2232 118.262 24.2232 118.262s-14.5358-13.2724-29.7082-16.2964c0 0 8.24514-67.4416-8.19015-88.873 0.91304-8.84948 13.6752-13.093 13.6752-13.093z" stroke="#333" stroke-width=".708662" fill="#fff"/>
<path d="m321.359 125.373c-13.3645-8.65446-22.9924-17.9464-28.6659-29.6762 1.13046-0.432284 2.41795-0.974835 3.24709-1.59902 5.80848-4.37046 5.07997-12.7568 9.44504-15.4568 8.65389 0.578551 17.3081 7.50133 22.5017 15.5778l19.0383-2.30797c-4.3458-0.58904-6.38448-1.94797-6.11518-4.07566-4.33304 0.05953-6.35896-1.41902-6.07805-4.43679-3.80069 0.03005-4.91046-0.324567-5.63414-3.37181-3.67285 0.114803-5.80762-1.30791-6.40403-4.26983-1.46239-11.4114-2.07695-10.194 6.92533-14.4238 3.51213-0.915591 5.43374-1.31811 7.85963 3.57109 2.31874-1.13187 12.3866 1.19594 7.94382 5.40907 11.3737-3.03137 9.99553 5.98933 9.61909 6.30822 4.30413-2.63764 6.23396 1.67981 5.72996 8.36646-5.74129 21.1825-21.3185 31.5559-39.4126 40.3852z" stroke="#333" stroke-width=".708662" fill="#fff"/>
<line stroke-width=".708662" x1="329.015" y1="79.8636" stroke="#333" x2="337.666" y2="64.8683" fill="none"/>
<line stroke-width=".708662" x1="354.968" y1="75.8265" stroke="#333" x2="340.55" y2="87.9381" fill="none"/>
<line stroke-width=".708662" x1="346.317" y1="68.9057" stroke="#333" x2="334.205" y2="82.1707" fill="none"/>
<polygon transform="translate(0,5)" stroke="#333" points="311.136 86.3986 328.438 89.2823 325.554 85.8218" stroke-width="0.216" fill="#333"/>
<path d="m378.615 205.017c-3.21846-28.0712-5.32148-66.4696-20.7629-92.2791 12.1836 15.1756 18.4558 46.908 20.7629 92.2791z" stroke="#333" stroke-width="0.216" fill="#666"/>
<g stroke="#333" stroke-width=".708662" fill="none">
<line y2="268.321" x2="271.764" y1="228.801" x1="272.703"/>
<path d="m241.737 228.923c16.2972-14.3751 39.9972-27.6928 67.0632-40.5306"/>
<path d="m284.19 216.534c-0.91134 21.5068-2.32498 42.3992 0.11764 58.9604"/>
<path d="m242.358 213.314c17.4334-12.9668 40.2494-25.164 68.4494-36.5933"/>
<path d="m295.491 213.594c-0.67295 24.3397-4.10854 51.6736 6.33005 70.4588"/>
<line y2="165.648" x2="312.388" y1="196.69" x1="245.587"/>
<line y2="154.27" x2="313.769" y1="179.135" x1="251.082"/>
<line y2="142.609" x2="314.95" y1="164.533" x1="256.848"/>
<line y2="133.465" x2="318.715" y1="147.088" x1="264.805"/>
<line y2="125.164" x2="320.558" y1="136.693" x1="268.907"/>
<path d="m317.341 290.091c-10.7215-24.2107-11.257-52.278-11.4137-82.0228"/>
<line y2="117.555" x2="314.564" y1="124.934" x1="275.133"/>
<line y2="106.487" x2="301.881" y1="107.524" x1="286.317"/>
<path d="m329.83 297.665c-4.45096-32.8147-11.433-44.3563-12.3851-87.4177"/>
<path d="m326.518 211.978c4.27805 32.2305 15.6558 61.8656 17.3857 97.492"/>
<path d="m337.477 214.19c0.71121 28.9233 18.7903 45.2361 18.4238 85.4884"/>
<path d="m350.649 218.781c1.81531 25.6592 16.9475 37.2501 19.7788 65.6564"/>
<path d="m364.138 222.31c1.03748 18.1142 11.1753 17.4217 16.1476 49.8059"/>
<path d="m378.203 228.003c5.12362 8.40841 8.71824 13.307 11.2907 28.3538"/>
<path d="m325.283 211.746c-24.8131 3.49994-53.8949 24.728-79.6916 35.0124"/>
<path d="m252.076 252.79c29.4834-13.568 58.8005-27.3558 90.9315-37.3949"/>
<line y2="279.767" x2="374.514" y1="293.256" x1="321.596"/>
<line y2="285.941" x2="308.211" y1="263.166" x1="385.928"/>
<line y2="250.715" x2="392.153" y1="278.73" x1="290.467"/>
<line y2="271.467" x2="278.016" y1="240.338" x1="395.266"/>
<line y2="265.851" x2="268.313" y1="229.962" x1="381.777"/>
<path d="m363.684 222.374c-35.7404 11.5203-70.5087 24.3377-104.952 36.8314"/>
<path d="m304.819 202.662c-1.21748-31.8195 0.83395-65.8185-3.65273-95.459"/>
<path d="m253.462 254.592c-1.53893-17.8849-4.80813-38.0767-8.65446-54.2311"/>
<path d="m261.54 236.132c-1.05846-20.6748-5.09613-41.2535-9.23131-58.8529"/>
<path d="m283.404 214.849c-2.30797-29.236-3.39903-61.996-8.01411-88.3489"/>
<line y2="153.301" x2="261.413" y1="228.632" x1="272.952"/>
<line y2="260.385" x2="260.959" y1="236.162" x1="261.536"/>
<line y2="121.929" x2="315.75" y1="142.729" x1="314.596"/>
<line y2="111.332" x2="303.819" y1="115.045" x1="281.722"/>
<line y2="100.05" x2="295.564" y1="98.8963" x1="290.373"/>
<path d="m296.077 207.324c-1.13187-35.6511-1.17468-70.2119-9.93459-101.505"/>
<path d="m243.657 241.352c18.8402-20.9546 38.8338-34.9889 63.4417-46.7161"/>
</g>
<path d="m263.142 236.304c13.9893-9.955 26.2477-22.9652 41.3912-26.9779l0.57657-8.3007c-20.4157 11.4137-35.1794 22.597-41.9678 35.2786z" stroke="#333" stroke-width=".708662" fill="#333"/>
</g>
<g transform="translate(60)">
<path d="m147.759 69.4199l13.6055 6.96558s3.31597-9.5573 2.94832-10.4658c-0.35206-0.869953-10.0077-5.01931-11.1733-4.79055-1.15285 0.226488-5.38044 8.29078-5.38044 8.29078z" stroke="#bf9f4f" stroke-width=".708662" fill="#ffe700"/>
<path d="m126.759 313.665c-20.092-16.0036-38.7003-39.657-48.2766-67.97 29.4894-13.3461 61.6215-31.8269 89.8166-32.4063-11.0622-18.0391-13.8764-70.4923-13.8764-70.4923-4.03739-1.72999-1.82126-13.2018-3.17707-14.5157-2.59455-0.28488-22.1596-11.0032-24.232-14.1888-12.9251-4.02066-14.4831-11.7335-7.3817-17.7163-0.0573-5.78098 5.25912-13.1145 9.65339-10.9885-0.002-5.48958 2.69632-10.5945 9.74297-10.1537 0.52157-7.46504 3.76243-8.08328 8.68479-6.88592 6.84341-1.81474 25.5473 13.8025 22.4416 17.947 1.72006 1.21918 7.14728 13.9689 10.4647 16.8401 16.9492 2.48995 13.3668 19.1792 13.3668 19.1792 37.5979 48.8486 25.6266 98.2897 24.9704 113.227-0.65707 14.9499-34.0458 36.5145-53.8336 49.3362-20.0208 12.9728-38.3638 28.7881-38.3638 28.7881z" stroke="#333" stroke-width=".708662" fill="#fff"/>
<polygon transform="translate(0,5)" stroke="#333" points="98.108 209.33 138.303 127.706 119.335 117.1 78.0067 192.587 74.869 224.79" stroke-width=".708662" fill="#fff"/>
<path d="m150.674 210.655l8.43336-10.7918 0.57713-11.2694c6.62684-1.35865 12.5654 8.31204 20.4783 11.4429 17.9907-10.6532 35.97-17.8464 44.7106-18.4995l4.69729 8.31345c-10.1914 13.6375 2.73827 39.9345-3.49087 56.8959-0.7285 1.98255-29.8828 17.0175-31.2812 17.6411-1.41931 0.63298-3.63997 9.18851-3.63997 9.18851l-9.66275-2.22265c-1.48989 0.74466-9.60492-36.4966-13.953-49.5366l-16.869-11.162z" stroke="#bf9f4f" stroke-width="2.83465" fill="#ffd90f"/>
<path d="m108.484 125.065c-0.57487-0.61342 1.24356-10.6574 1.70646-11.3723 0.43625-0.6738 13.0567 0.21317 14.0125 0.45184 0.90199 0.22536 21.0422 11.4398 21.5515 12.549 0.47792 1.04003 4.29421 10.474 3.89395 10.861-0.42236 0.40848-9.036 5.89918-9.41273 5.24013-0.39458-0.69052-3.00104-8.4773-3.46167-9.23811-0.47169-0.78009-12.1592-7.80832-12.7069-8.09632-0.57203-0.30075-14.9791 0.24917-15.5832-0.39515z" stroke="#bf9f4f" stroke-width=".708662" fill="#ffd90f"/>
<path d="m174.049 211.394c8.64539-2.85534 35.9331-11.8488 52.259-15.1061-3.11301 13.6287 5.2217 35.6179-0.22876 50.459-0.7285 1.98255-29.8828 17.0175-31.2812 17.6411-4.78942-14.4632-15.6285-40.6701-20.749-52.994z" stroke="#bf9f4f" stroke-width="2.83465" fill="#ffd90f"/>
<circle stroke-width="2.83465" stroke="#bf9f4f" cy="209.631" cx="171.563" r="7.49768" fill="#ffd90f"/>
<polygon transform="translate(0,5)" stroke="#333" points="194.129 115.164 189.443 133.115 154.838 139.711 152.207 134.808 186.378 129.906 193.947 107.376" stroke-width="0.216" fill="#333"/>
<path d="m165.796 122.543l14.4187-20.1861-4.0371-4.61396c-1.73027 7.69011-4.03739 14.2265-10.3816 24.8z" stroke="#333" stroke-width="0.216" fill="#333"/>
<polygon transform="translate(0,5)" stroke="#333" points="126.973 95.5174 119.295 91.4083 119.962 90.6069" stroke-width=".708662" fill="#333"/>
<polygon transform="translate(0,5)" stroke="#333" points="135.229 82.9381 128.884 80.0544 129.366 78.9327" stroke-width=".708662" fill="#333"/>
<polygon transform="translate(0,5)" stroke="#333" points="144.132 72.6282 139.266 69.6731 138.771 70.5016" stroke-width=".708662" fill="#333"/>
<path d="m86.2053 207.324c8.2698-13.7475 25.4435-48.0767 38.3273-71.6287l-0.83877-1.04088c-12.496 24.2232-29.6059 53.0603-37.4885 72.6696z" stroke="#333" stroke-width="0.216" fill="#333"/>
<path d="m139.419 303.473c-21.119-19.7949-33.253-42.5761-37.9412-68.4238-0.003 30.7001 15.4548 51.5622 37.9412 68.4238z" stroke="#333" stroke-width="0.216" fill="#333"/>
<path d="m157.255 290.826c-19.8893-19.849-29.6192-39.2797-35.6712-65.181 2.22633 31.146 15.2787 48.7381 35.6712 65.181z" stroke="#333" stroke-width="0.216" fill="#333"/>
<path d="m171.848 280.449c-18.2869-20.2173-23.9777-36.2103-32.7526-61.6139 4.54621 31.3095 14.3365 45.8527 32.7526 61.6139z" stroke="#333" stroke-width="0.216" fill="#333"/>
</g>
</g>
<path d="m600 430c-20 0-40 20-60 20s-40-20-60-20-40 20-60 20-40-20-60-20-40 20-60 20-40-20-60-20-40 20-60 20-40-20-60-20-40 20-60 20-40-20-60-20v-80c20 0 40 20 60 20s40-20 60-20 40 20 60 20 40-20 60-20 40 20 60 20 40-20 60-20 40 20 60 20 40-20 60-20 40 20 60 20 40-20 60-20z" stroke-width="1px" fill="#fff"/>
</svg>
