<?xml version="1.0" encoding="UTF-8" standalone="no"?>
<!-- Created with Inkscape (http://www.inkscape.org/) -->

<svg
   width="1200"
   height="800"
   id="svg2"
   sodipodi:version="0.32"
   inkscape:version="1.2 (dc2aeda, 2022-05-15)"
   sodipodi:docname="Drapeau_fr_département_Loiret.svg"
   inkscape:output_extension="org.inkscape.output.svg.inkscape"
   version="1.0"
   xmlns:inkscape="http://www.inkscape.org/namespaces/inkscape"
   xmlns:sodipodi="http://sodipodi.sourceforge.net/DTD/sodipodi-0.dtd"
   xmlns="http://www.w3.org/2000/svg"
   xmlns:svg="http://www.w3.org/2000/svg"
   xmlns:rdf="http://www.w3.org/1999/02/22-rdf-syntax-ns#"
   xmlns:cc="http://creativecommons.org/ns#"
   xmlns:dc="http://purl.org/dc/elements/1.1/">
  <defs
     id="defs4" />
  <sodipodi:namedview
     id="base"
     pagecolor="#ffffff"
     bordercolor="#666666"
     borderopacity="1.0"
     inkscape:pageopacity="0.0"
     inkscape:pageshadow="2"
     inkscape:zoom="0.49497475"
     inkscape:cx="636.3961"
     inkscape:cy="311.12698"
     inkscape:document-units="px"
     inkscape:current-layer="layer1"
     inkscape:window-width="1920"
     inkscape:window-height="1080"
     inkscape:window-x="0"
     inkscape:window-y="0"
     showguides="true"
     inkscape:guide-bbox="true"
     inkscape:showpageshadow="2"
     inkscape:pagecheckerboard="0"
     inkscape:deskcolor="#d1d1d1"
     showgrid="false"
     inkscape:window-maximized="0">
    <sodipodi:guide
       orientation="vertical"
       position="-745.69752,3.0083952"
       id="guide28349"
       inkscape:locked="false" />
  </sodipodi:namedview>
  <metadata
     id="metadata7">
    <rdf:RDF>
      <cc:Work
         rdf:about="">
        <dc:format>image/svg+xml</dc:format>
        <dc:type
           rdf:resource="http://purl.org/dc/dcmitype/StillImage" />
      </cc:Work>
    </rdf:RDF>
  </metadata>
  <g
     inkscape:label="Calque 1"
     inkscape:groupmode="layer"
     id="layer1"
     transform="translate(1125.856,-137.67847)"
     style="display:inline">
    <path
       sodipodi:nodetypes="ccccc"
       id="rect2239"
       d="m -1125.856,137.67847 h 1200 v 800 h -1200 z"
       style="fill:#2b5df2;fill-opacity:1;stroke:none;stroke-width:0.400276;stroke-miterlimit:4;stroke-dasharray:none;stroke-opacity:1" />
    <path
       sodipodi:nodetypes="csccsssssssssccsssssssc"
       style="fill:#ffffff;fill-opacity:1;stroke:none;stroke-width:0.364821;stroke-miterlimit:4;stroke-dasharray:none;stroke-opacity:1"
       d="m -907.2491,489.90563 c -62.79042,0 -64.77706,29.82472 -127.5674,29.82472 -47.6478,0 -60.2818,-17.17193 -91.0395,-25.45254 V 638.8145 c 42.6395,5.87244 51.2887,28.4454 105.9062,28.4454 62.7904,0 64.74592,-29.82472 127.53623,-29.82472 62.79033,0 64.77707,29.82472 127.56739,29.82472 62.79031,0 64.77705,-29.82472 127.56738,-29.82472 62.79032,0 64.74595,29.82472 127.53626,29.82472 62.79031,0 64.77707,-29.82472 127.56738,-29.82472 62.79028,0 64.77701,29.82472 127.56742,29.82472 62.7904,0 39.25511,-29.82472 127.5362,-29.82472 88.281019,0 49.353334,29.82472 127.56745349,29.82472 C 52.759993,667.2599 53.590995,653.94632 74.144,645.11256 V 493.05461 c -37.058065,7.65443 -26.002333,26.67574 -88.483673,26.67574 -78.214229,0 -39.286535,-29.82472 -127.567447,-29.82472 -88.28109,0 -64.74581,29.82472 -127.53622,29.82472 -62.7904,0 -64.77704,-29.82472 -127.56735,-29.82472 -62.79042,0 -64.77717,29.82472 -127.56749,29.82472 -62.79031,0 -64.77696,-29.82472 -127.56738,-29.82472 -62.79032,0 -64.74584,29.82472 -127.53616,29.82472 -62.79041,0 -64.77706,-29.82472 -127.56738,-29.82472 z"
       id="path6030" />
    <g
       id="g525">
      <path
         id="path3415"
         style="fill:#fcef3c;fill-opacity:1;fill-rule:evenodd;stroke:none;stroke-width:0.797616;stroke-linecap:butt;stroke-linejoin:miter;stroke-miterlimit:4;stroke-dasharray:none;stroke-opacity:1"
         d="M -526.44389 681.5691 C -543.98957 699.5119 -556.57743 718.5611 -556.53373 743.59644 C -556.48445 771.32228 -539.19149 796.29404 -535.07475 824.05542 C -534.40517 828.57065 -533.82491 837.09179 -534.11577 842.18433 L -538.78764 842.18433 C -538.97974 837.87928 -539.01708 829.15219 -539.93998 823.8191 C -541.9561 812.16882 -548.41076 791.68444 -559.61186 780.33472 C -570.80818 768.98984 -588.55131 761.63066 -604.37358 767.56519 C -618.70929 774.17978 -620.06389 792.86045 -615.98491 806.52027 C -610.87641 823.62775 -591.35387 835.46745 -573.85209 836.62769 C -577.32002 829.76964 -585.62054 810.19443 -576.61772 810.97144 C -566.20307 811.87028 -554.63692 830.02173 -551.38334 842.18433 L -564.1353 842.18433 C -566.57356 842.18433 -568.53764 844.14646 -568.53764 846.58472 L -568.53764 851.59253 C -568.53764 854.03079 -566.57356 855.99292 -564.1353 855.99292 L -544.17827 855.99292 C -549.14182 869.01949 -560.417 878.06392 -570.38139 887.56714 C -559.25752 888.49177 -548.25317 883.25721 -538.54741 878.27027 C -538.34311 894.55882 -537.34943 909.03789 -526.44389 920.91089 C -514.69496 909.38057 -512.7542 888.26598 -513.16459 878.27027 C -503.45884 883.25721 -492.45447 888.49177 -481.33061 887.56714 C -491.295 878.06392 -502.57018 869.01949 -507.53373 855.99292 L -487.5767 855.99292 C -485.13844 855.99292 -483.17436 854.03079 -483.17436 851.59253 L -483.17436 846.58472 C -483.17436 844.14646 -485.13844 842.18433 -487.5767 842.18433 L -501.30717 842.18433 C -501.27548 842.05249 -501.25932 841.89251 -501.22514 841.76441 C -497.97975 829.60169 -485.5153 811.87085 -475.09428 810.97144 C -466.09146 810.19443 -474.39198 829.76964 -477.85991 836.62769 C -460.35812 835.46745 -440.83559 823.62775 -435.72709 806.52027 C -431.64811 792.86045 -433.0027 774.17979 -447.33842 767.56519 C -463.16068 761.63066 -480.90382 768.98985 -492.10014 780.33472 C -503.30124 791.68444 -509.7559 812.16882 -511.77202 823.8191 C -512.69205 829.13561 -513.00744 837.65665 -513.30131 842.18433 L -517.59623 842.18433 C -517.88709 837.09179 -517.30682 828.57066 -516.63725 824.05542 C -512.52051 796.29402 -493.42001 772.29841 -495.17827 743.59644 C -497.07821 712.58149 -507.95142 701.5578 -526.44389 681.5691 z " />
      <path
         id="path5561"
         style="fill:#fcef3c;fill-opacity:1;fill-rule:evenodd;stroke:none;stroke-width:0.797615;stroke-linecap:butt;stroke-linejoin:miter;stroke-miterlimit:4;stroke-dasharray:none;stroke-opacity:1"
         d="M -787.2935 268.64136 C -804.83918 286.58416 -817.42714 305.63143 -817.38334 330.66675 C -817.33405 358.39259 -800.0411 383.36631 -795.92436 411.12769 C -795.25477 415.64292 -794.67452 424.16406 -794.96537 429.2566 L -799.63725 429.2566 C -799.82935 424.95155 -799.86669 416.22446 -800.78959 410.89136 C -802.8057 399.24108 -809.26037 378.75475 -820.46147 367.40503 C -831.65778 356.06016 -849.40091 348.70293 -865.22319 354.63745 C -879.55889 361.25205 -880.91349 379.93075 -876.83452 393.59058 C -871.72601 410.69806 -852.20349 422.53972 -834.7017 423.69995 C -838.16963 416.8419 -846.47016 397.26669 -837.46733 398.0437 C -827.05269 398.94255 -815.48653 417.094 -812.23295 429.2566 L -824.98491 429.2566 C -827.42317 429.2566 -829.38725 431.21872 -829.38725 433.65699 L -829.38725 438.66285 C -829.38725 441.10111 -827.42317 443.06519 -824.98491 443.06519 L -805.02787 443.06519 C -809.99143 456.09174 -821.26661 465.13618 -831.231 474.63941 C -820.10713 475.56405 -809.10277 470.32948 -799.39702 465.34253 C -799.19272 481.63109 -798.19904 496.11016 -787.2935 507.98316 C -775.54457 496.45284 -773.60381 475.33824 -774.0142 465.34253 C -764.30845 470.32948 -753.30409 475.56405 -742.18022 474.63941 C -752.14461 465.13618 -763.41978 456.09174 -768.38334 443.06519 L -748.42631 443.06519 C -745.98805 443.06519 -744.02397 441.10111 -744.02397 438.66285 L -744.02397 433.65699 C -744.02397 431.21872 -745.98805 429.2566 -748.42631 429.2566 L -762.15678 429.2566 C -762.12509 429.12475 -762.10893 428.96477 -762.07475 428.83667 C -758.82936 416.67397 -746.36295 398.94311 -735.94194 398.0437 C -726.93912 397.26669 -735.24159 416.8419 -738.70952 423.69995 C -721.20774 422.53972 -701.68521 410.69806 -696.5767 393.59058 C -692.49773 379.93075 -693.85232 361.25206 -708.18803 354.63745 C -724.0103 348.70293 -741.75344 356.06016 -752.94975 367.40503 C -764.15086 378.75475 -770.60552 399.24108 -772.62162 410.89136 C -773.54166 416.20787 -773.85705 424.72892 -774.15092 429.2566 L -778.44584 429.2566 C -778.73669 424.16406 -778.15643 415.64292 -777.48686 411.12769 C -773.37012 383.3663 -754.26962 359.36872 -756.02787 330.66675 C -757.92782 299.6518 -768.80103 288.63006 -787.2935 268.64136 z " />
      <path
         id="path5555"
         style="fill:#fcef3c;fill-opacity:1;fill-rule:evenodd;stroke:none;stroke-width:0.797616;stroke-linecap:butt;stroke-linejoin:miter;stroke-miterlimit:4;stroke-dasharray:none;stroke-opacity:1"
         d="M -265.59428 270.65503 C -283.13996 288.59783 -295.72782 307.64705 -295.68412 332.68238 C -295.63485 360.40823 -278.34188 385.37998 -274.22514 413.14136 C -273.55556 417.6566 -272.9753 426.17773 -273.26616 431.27027 L -277.93803 431.27027 C -278.1301 426.96492 -278.16753 418.23781 -279.09037 412.90503 C -281.10649 401.25475 -287.56115 380.77039 -298.76225 369.42066 C -309.95857 358.07579 -327.7017 350.7166 -343.52397 356.65113 C -357.85968 363.26572 -359.21428 381.94638 -355.1353 395.6062 C -350.0268 412.71368 -330.50426 424.55339 -313.00248 425.71363 C -316.47041 418.85558 -324.77288 399.28037 -315.77006 400.05738 C -305.35589 400.95618 -293.78793 419.10768 -290.53373 431.27027 L -303.28764 431.27027 C -305.7259 431.27027 -307.68803 433.23435 -307.68803 435.67261 L -307.68803 440.67847 C -307.68803 443.11673 -305.7259 445.07886 -303.28764 445.07886 L -283.3267 445.07886 C -288.2901 458.10585 -299.56718 467.14966 -309.53178 476.65308 C -298.40791 477.57771 -287.40355 472.34316 -277.6978 467.3562 C -277.4935 483.64476 -276.49982 498.12577 -265.59428 509.99878 C -253.84535 498.46845 -251.90459 477.35192 -252.31498 467.3562 C -242.60923 472.34316 -231.60486 477.57771 -220.481 476.65308 C -230.4456 467.14966 -241.72269 458.10585 -246.68608 445.07886 L -226.72709 445.07886 C -224.28883 445.07886 -222.32475 443.11673 -222.32475 440.67847 L -222.32475 435.67261 C -222.32475 433.23435 -224.28883 431.27027 -226.72709 431.27027 L -240.45756 431.27027 C -240.42589 431.13849 -240.4097 430.97838 -240.37553 430.85035 C -237.13014 418.68764 -224.66569 400.95679 -214.24467 400.05738 C -205.24185 399.28037 -213.54237 418.85558 -217.0103 425.71363 C -199.50851 424.55339 -179.98598 412.71368 -174.87748 395.6062 C -170.7985 381.94638 -172.15309 363.26572 -186.48881 356.65113 C -202.31107 350.7166 -220.05421 358.07579 -231.25053 369.42066 C -242.45163 380.77039 -248.90629 401.25475 -250.92241 412.90503 C -251.84244 418.22153 -252.15782 426.74259 -252.4517 431.27027 L -256.74662 431.27027 C -257.03748 426.17773 -256.45721 417.6566 -255.78764 413.14136 C -251.6709 385.37997 -232.5704 361.38436 -234.32866 332.68238 C -236.2286 301.66744 -247.10181 290.64374 -265.59428 270.65503 z " />
    </g>
    <path
       style="fill:#ffffff;fill-opacity:1;fill-rule:evenodd;stroke:none;stroke-width:0.869468px;stroke-linecap:butt;stroke-linejoin:miter;stroke-opacity:1"
       d="m -974.84122,291.29817 c 8.27272,0 134.20258,0 134.20258,0 l -30.41697,-81.62647 h 312.94324 l -30.89729,81.62647 h 133.34596 l -33.09098,-81.62647 h 311.1486 l -31.39921,81.62647 h 132.13451 l -49.03071,-115.2482 h -798.32117 z"
       id="path12492"
       sodipodi:nodetypes="ccccccccccccc" />
  </g>
  <g
     inkscape:groupmode="layer"
     id="layer2"
     transform="translate(-1.4220171,-1.4643155)">
    <path
       id="path3430"
       d="M 799.5926,1303.6645 Z"
       style="fill:none;fill-rule:evenodd;stroke:#000000;stroke-width:0.982804px;stroke-linecap:butt;stroke-linejoin:miter;stroke-opacity:1" />
  </g>
</svg>
