<?xml version="1.0" encoding="UTF-8" standalone="no"?>
<svg
   width="1200"
   height="800"
   sodipodi:docname="Flag_of_Vendée.svg"
   version="1.1"
   id="svg325"
   inkscape:version="1.2 (dc2aeda, 2022-05-15)"
   xmlns:inkscape="http://www.inkscape.org/namespaces/inkscape"
   xmlns:sodipodi="http://sodipodi.sourceforge.net/DTD/sodipodi-0.dtd"
   xmlns="http://www.w3.org/2000/svg"
   xmlns:svg="http://www.w3.org/2000/svg"
   xmlns:rdf="http://www.w3.org/1999/02/22-rdf-syntax-ns#"
   xmlns:cc="http://creativecommons.org/ns#"
   xmlns:dc="http://purl.org/dc/elements/1.1/">
  <defs
     id="defs329" />
  <sodipodi:namedview
     id="namedview327"
     pagecolor="#ffffff"
     bordercolor="#666666"
     borderopacity="1.0"
     inkscape:showpageshadow="2"
     inkscape:pageopacity="0.0"
     inkscape:pagecheckerboard="0"
     inkscape:deskcolor="#d1d1d1"
     showgrid="false"
     inkscape:zoom="4.7377666"
     inkscape:cx="529.36335"
     inkscape:cy="626.24444"
     inkscape:window-width="1920"
     inkscape:window-height="1080"
     inkscape:window-x="0"
     inkscape:window-y="0"
     inkscape:window-maximized="0"
     inkscape:current-layer="svg325" />
  <metadata
     id="metadata315">
    <rdf:RDF>
      <cc:Work
         rdf:about="">
        <dc:format>image/svg+xml</dc:format>
        <dc:type
           rdf:resource="http://purl.org/dc/dcmitype/StillImage" />
      </cc:Work>
    </rdf:RDF>
  </metadata>
  <rect
     style="fill:#ffffff;stroke-width:1"
     x="0"
     width="1200"
     height="800"
     id="rect317"
     y="0" />
  <path
     d="m 0,0 h 600.00004 v 141.37325 c -6.16264,7.31961 -19.61712,21.03843 -24.82783,29.0781 -2.38478,3.6795 -2.19097,7.08747 -4.57054,8.6475 -5.23451,3.43172 -9.09382,2.00712 -13.78023,4.9136 -2.81333,1.74482 -6.35636,8.08103 -11.30848,15.17735 -3.79216,6.98706 -14.12716,14.38425 -15.96135,19.15934 -2.45828,6.39986 2.34881,14.40586 9.44257,13.67329 9.05334,-0.93492 31.46714,-2.48004 31.48467,0.13064 0.11849,17.65457 0.78117,14.90009 3.23132,21.31388 1.35085,3.53615 -28.94624,3.67179 -31.60462,3.98303 -21.91964,2.5663 -65.74506,15.39861 -75.25933,34.88292 -3.05991,6.26641 -11.74025,28.44733 -11.78772,44.84641 l 0.62701,30.53349 0.87525,22.82761 c -6.16998,11.49667 -31.95696,18.61103 -47.70241,48.5858 -25.87233,49.25342 -11.34088,114.28633 51.36071,175.52553 l 53.32902,49.33775 42.09211,-27.86888 44.35985,40.65753 V 800 H 0 Z"
     sodipodi:nodetypes="cccssscsssssscccsccccccc"
     id="path319"
     style="fill:#ff0000;fill-opacity:1;stroke-width:1" />
  <path
     d="m 587.83565,639.8584 c -52.19897,-46.42407 -90.24902,-97.71019 -104.45607,-140.7922 -3.39131,-10.28391 -4.38694,-17.57377 -4.40666,-32.26508 -0.0243,-18.03613 0.32089,-19.69015 6.94369,-33.27807 8.26738,-16.96212 18.93827,-29.67965 31.33947,-37.35029 4.96421,-3.07056 16.808,-10.42775 26.31952,-16.34934 9.51152,-5.92159 19.35852,-10.76652 21.88226,-10.76652 2.52373,0 9.02653,2.21615 14.45064,4.92476 16.70777,8.34334 30.53124,29.31626 30.61346,46.44663 l 0.0416,8.66759 -17.25128,12.66902 c -9.4882,6.96794 -18.01105,12.19844 -18.93969,11.6233 -0.92863,-0.57512 -1.68841,-3.09845 -1.68841,-5.60735 0,-13.66538 -15.86815,-39.01086 -28.53236,-45.57354 -12.3998,-6.42564 -23.13889,-0.89912 -26.50575,13.64032 -3.43788,14.84614 -2.1065,37.92481 3.08126,53.41133 9.40323,28.07055 33.46504,68.86639 60.23606,102.12781 13.34037,16.57467 47.36373,49.96295 56.30944,55.25842 3.01852,1.78681 5.4882,3.7808 5.4882,4.43112 0,1.59807 -31.42075,26.4684 -33.43975,26.4684 -8.74323,-6.40205 -14.87207,-11.81889 -21.48563,-17.68631 z m -94.38354,-20.66958 c -41.67762,-38.75948 -65.36591,-74.155 -75.3107,-112.53083 -5.21199,-20.11246 -4.8735,-53.60445 0.68185,-67.4623 5.48486,-13.68203 19.98189,-29.81744 35.76362,-39.80542 l 12.58579,-7.96537 -1.62414,-20.19923 c -2.6542,-33.00955 -2.11203,-43.50155 2.9922,-57.90333 10.68633,-30.15188 32.52246,-42.0544 86.15074,-46.95933 12.5002,-1.14327 22.83745,-2.20546 22.97164,-2.36042 0.1342,-0.15494 -0.19281,-9.036 -0.7267,-19.73567 l -0.97072,-19.45396 h -15.76153 l -14.33479,-0.71697 1.37213,-7.23243 c 1.53939,-4.3722 6.21674,-12.48591 10.3942,-18.03051 6.52312,-8.65796 8.49167,-10.08105 13.94504,-10.08105 4.8566,0 7.13314,-1.22729 9.68146,-5.21936 0.80099,-1.25481 0.82738,-4.72569 1.89815,-6.10636 1.37884,-1.77791 3.32105,-3.45251 6.66345,-5.503 4.62364,-2.83651 22.81018,-13.52603 25.01442,-13.53355 0.78853,-0.003 0.87921,5.97365 0.20152,13.28075 l -1.23219,13.28562 18.73818,-0.0452 c 10.306,-0.0249 22.1234,-0.83179 26.26088,-1.79307 4.13747,-0.96128 7.65925,-1.58145 7.82615,-1.37818 0.16689,0.20328 -3.71018,7.62924 -8.61571,16.50214 -10.44027,18.88393 -15.98538,22.76781 -32.51252,22.7724 l -10.62762,0.003 -0.96407,16.94372 c -0.77839,13.68035 -1.7719,17.97289 -5.15839,22.28717 l -4.19433,5.34343 6.31616,1.48271 c 10.27127,2.41113 67.33007,3.68537 87.13509,1.94586 12.44831,-1.09334 17.94639,-0.98377 17.15844,0.3419 -0.6377,1.07295 -5.73662,8.07445 -11.33087,15.55891 l -10.17138,13.60811 -13.61596,2.52442 c -9.67966,1.79465 -25.93545,2.30543 -56.23025,1.76687 -23.43788,-0.41668 -58.23921,-0.84372 -77.33633,-0.94898 l -34.72205,-0.19141 -5.77477,6.47863 c -5.59834,6.28067 -5.73928,6.8895 -4.61363,19.92844 0.6386,7.39741 1.71203,19.87862 2.38538,27.73602 l 1.22424,14.28621 -10.50862,3.31951 c -19.54925,6.17528 -36.22084,25.94825 -40.94225,48.5586 -3.04012,14.5589 -2.72703,39.17248 0.66026,51.90415 8.95823,33.67105 36.57108,76.3456 75.36874,116.4793 11.21683,11.6031 20.3601,21.85561 20.31838,22.78342 -0.0607,1.35019 -29.5146,22.88791 -34.2082,25.01421 -9.22217,-6.86433 -15.34967,-12.60669 -22.22039,-18.97957 z m 158.77877,-8.50061 c 1.56254,-2.23429 7.75561,-10.49619 13.76241,-18.35976 31.03836,-40.63272 54.45377,-89.64549 54.39802,-113.8651 -0.0411,-17.86282 -9.89596,-44.81385 -23.29016,-63.69394 -5.87531,-8.28169 -14.56676,-22.46118 -14.56676,-23.76466 0,-0.33579 6.46401,-5.48595 14.36446,-11.44479 16.16419,-12.19169 18.63476,-12.41892 28.93455,-2.66105 18.2847,17.3226 32.74415,53.44553 32.67334,81.62528 -0.0815,32.42108 -26.46305,79.17504 -68.39647,121.21361 -20.99878,21.05143 -44.23303,40.03565 -37.87939,30.95041 z m -23.7995,-81.16458 c 26.28379,-36.71102 31.31113,-66.59859 16.29702,-96.88555 -5.65543,-11.40834 -19.09798,-27.28086 -29.06096,-34.31423 l -5.31295,-3.75068 14.42488,-12.75813 c 7.93365,-7.01697 15.43817,-12.75014 16.67673,-12.74035 5.16681,0.0409 22.19076,11.8156 30.66055,21.20654 31.71147,35.16034 27.74256,77.98384 -10.99029,118.58203 -8.1285,8.51997 -21.12474,19.88682 -28.88054,25.25964 l -14.10143,9.7688 z m -13.1329,-177.82266 c -55.12347,-3.64282 -56.75342,-3.90644 -57.37897,-9.28064 -0.81226,-6.97833 6.85592,-17.28154 16.67394,-22.40358 8.1895,-4.27245 9.64046,-4.39731 38.81107,-3.34009 16.66693,0.60403 39.67864,2.02888 51.13716,3.1663 11.45852,1.13744 32.84173,2.21343 47.51824,2.39115 l 26.68457,0.32309 -10.50352,11.92442 c -5.77694,6.5584 -12.24513,12.3085 -14.37378,12.77797 -2.12863,0.4695 -12.92861,2.14962 -23.99998,3.73369 -21.70389,3.10527 -36.20575,3.2429 -74.56873,0.70769 z"
     id="path321"
     style="fill:#ff0000;fill-opacity:1;stroke-width:1"
     sodipodi:nodetypes="csssssssscssssssssscccssscsssssccccssssscscssssscsscsssscssscssscsssssccssssssssssssscssssscssssssscssss" />
</svg>
