<?xml version="1.0" encoding="utf-8"?>
<!-- Generator: Adobe Illustrator 24.1.2, SVG Export Plug-In . SVG Version: 6.00 Build 0)  -->
<svg version="1.1" id="Слой_1" xmlns="http://www.w3.org/2000/svg" xmlns:xlink="http://www.w3.org/1999/xlink" x="0px" y="0px"
	 viewBox="0 0 900 600" style="enable-background:new 0 0 900 600;" xml:space="preserve">
<style type="text/css">
	.st0{fill:#FFFFFF;}
	.st1{fill:#0083D6;}
	.st2{fill:#364334;stroke:#FFFFFE;stroke-width:2.8346;stroke-miterlimit:11.3386;}
	.st3{fill:#FFFFFF;stroke:#D6D6D6;stroke-width:0.3118;stroke-miterlimit:11.3386;}
	.st4{fill:#07819B;stroke:#077B93;stroke-width:1.9264;}
	.st5{fill:#FFFFFF;stroke:#F4F4F4;stroke-width:2.0841;}
</style>
<path class="st0" d="M0,0h900v600H0V0z"/>
<path class="st1" d="M0,200h900v200H0V200z"/>
<g id="layer1" transform="translate(-90.270982,-237.17744)">
	<g id="layer1-9" transform="translate(27.66325,57.698222)">
		<path id="path4555" class="st2" d="M506.1,578.8c-19.6-14.8-44.2-41.3-56.1-60.7c-8-13.1-16-31.7-19.7-46.5c-3-12-3.2-14.5-3.2-53
			v-40.4h85.7h85.7v39.9c0,31.2-0.4,42.1-2.1,49.9c-7.1,34.5-33.9,75.1-69,104.3c-7.3,6.1-13.7,11.1-14.1,11.1
			C512.8,583.6,509.6,581.4,506.1,578.8L506.1,578.8z"/>
	</g>
	<path id="path4555-4" class="st3" d="M540.5,601.4c15.2-7.1,19.9-10.5,21-15.5c1-4.6,5.6-8.1,11.5-8.7c9.1-1,15.2-11.7,15.3-26.8
		c0-3.8,0.9-8.4,1.9-10.2c2.7-4.7,2.4-8.4-1.3-15.4c-6.2-11.9-10.2-14.7-20.7-14.7c-4.7,0-9.2-0.9-11.8-2.3c-2.3-1.2-8.6-2.7-14-3.2
		c-5.4-0.5-13.2-1.3-17.4-1.8l-7.6-0.9l-5.7,6c-4,4.2-7.2,6.3-10.7,6.9c-2.8,0.5-6.6,2.6-8.8,4.7c-3.7,3.7-3.8,4-3,14.5
		c0.8,11.2,6.4,35.6,9.6,41.7c1,1.9,3.3,5,5.1,6.8c1.8,1.8,3.3,4.2,3.3,5.3c0,3.4,6.3,14.7,9.4,16.9
		C521.4,608.2,527.9,607.3,540.5,601.4L540.5,601.4z M517.4,599.3c-1.8-2.2-4.1-6.6-5.1-9.9c-1-3.3-3.6-8.1-5.9-10.7
		c-4.7-5.3-8.2-16.4-11.8-38c-2.8-16.4-1.8-18.9,8.8-21.4c5.4-1.3,7.3-2.5,9.3-5.9c3.8-6.4,8.9-8.1,17.2-5.6
		c3.7,1.1,9.2,1.7,12.1,1.4c3.7-0.4,7.2,0.2,11.4,2.1c3.6,1.7,8.7,2.7,12.8,2.7c9.2,0,14.2,3.3,18.8,12.4c3.6,7,3.6,7.4,1.6,12.1
		c-1.1,2.7-2.3,9.1-2.7,14.3c-1,13.6-5.1,19.9-13,20c-2,0-5.2,1.2-7,2.6c-1.8,1.4-4.1,2.6-5.1,2.6c-1.2,0-1.8,1.6-1.8,4.5
		c0,3.5-0.9,5.1-3.8,7.2c-5.9,4.2-22.7,11.9-27.8,12.7C521.3,603.1,520.2,602.7,517.4,599.3L517.4,599.3z M534.8,596.4
		c8-3.7,17.1-9.6,17.7-11.4c0.3-0.8-0.9-2.4-2.6-3.6c-2.4-1.6-4.1-1.7-7.6-0.7c-2.5,0.7-6.9,0.9-9.9,0.5c-4-0.6-7-0.1-11.4,1.9
		c-6.8,3-7.4,5.1-3.4,11.6c2.1,3.5,3.4,4.3,7.1,4.3C527.1,599,531.7,597.9,534.8,596.4L534.8,596.4z M522.1,579.4
		c4.5-1.7,4.3-5-1.2-20.6c-7.8-21.9-4.1-17.9,4.5,4.8c5,13.4,7.6,15.8,15,13.9c4.5-1.1,4.5-5.1,0.1-23.8c-1.8-7.7-3-14.3-2.7-14.6
		c0.8-0.8,3.9,9.7,6,20c3.4,16.6,9.3,21,17.7,13.5c2.5-2.2,2.6-3.2,1.6-11.9c-0.6-5.2-0.9-10.6-0.7-12.1c0.3-1.5,0.9,1.5,1.5,6.5
		c1.4,11.7,2.5,13.7,7.3,13.7c5.6,0,9.1-6.1,9.1-16.1c0-4.2-0.6-8.8-1.4-10.3c-1-2-1-2.4,0-1.8c0.9,0.5,1.4-0.2,1.4-1.8
		c0-1.5,0.5-2.7,1.2-2.7c3.8,0,1.2-9.4-4.2-15.4c-3.3-3.6-12.7-4.1-15.4-0.9c-1.6,1.9-1.8,1.8-2.7-0.5c-1.1-3-13.4-8.1-17.1-7.1
		c-1.3,0.3-3.2,2.2-4.2,4.1c-1.7,3.2-1.9,3.3-2.8,0.8c-1.9-5.3-4.7-7.2-10.6-7.2c-5,0-6,0.5-8.3,4.3c-1.4,2.3-2.6,5.6-2.6,7.2
		c0,2.5-0.4,2.8-2.5,1.6c-7.3-3.9-14.5,0-14.5,7.8c0,6.8,6.2,36.1,8.7,41C510.3,581.8,512.9,582.9,522.1,579.4L522.1,579.4z"/>
	<g id="flowRoot1420" transform="matrix(0.26458333,0,0,0.26458333,90.270982,237.17744)">
	</g>
	<g id="g1522" transform="matrix(0.13056653,0,0,0.10171617,71.436376,218.48059)">
		<g id="g1511">
			<g id="g1501">
				<g id="g1492">
					<path id="path1460" class="st4" d="M3143.4,2588.4h57c5.4,0,10.1-1.3,14.2-3.8s7.2-6.1,9.4-10.8c2.3-4.7,3.4-10,3.4-16.1l0,0
						c0-6.1-1.1-11.5-3.4-16.2c-2.2-4.7-5.4-8.3-9.4-10.8c-4.1-2.6-8.8-3.9-14.2-3.9h-57v-23.8h56.2c10.6,0,20,2.3,28.1,6.9
						c8.1,4.5,14.3,10.9,18.8,19.1c4.5,8.3,6.7,17.8,6.7,28.7l0,0c0,10.9-2.2,20.4-6.7,28.7c-4.4,8.2-10.7,14.5-18.8,19
						c-8.1,4.5-17.4,6.7-28.1,6.7h-56.2V2588.4z M3130.5,2503.1h25v178.3h-25V2503.1z"/>
					<path id="path1462" class="st4" d="M3343.4,2683.2c-12.4,0-23.4-2.7-32.9-8.1c-9.5-5.5-16.8-13.2-22.1-23
						c-5.1-10-7.7-21.5-7.7-34.6V2567c0-13.1,2.6-24.6,7.7-34.5c5.2-10,12.6-17.7,22.1-23c9.5-5.5,20.4-8.2,32.9-8.2
						s23.4,2.7,32.9,8.2c9.5,5.4,16.8,13.1,21.9,23c5.2,9.9,7.8,21.4,7.8,34.5v50.5c0,13.1-2.6,24.6-7.8,34.6
						c-5.1,9.9-12.5,17.6-21.9,23C3366.8,2680.5,3355.9,2683.2,3343.4,2683.2z M3343.4,2658.6c7.4,0,13.8-1.6,19.4-4.9
						c5.6-3.4,10-8.1,13-14.1c3.1-6.1,4.7-13.2,4.7-21.2v-52.2c0-8-1.6-15-4.7-21.1c-3-6.1-7.4-10.8-13-14.1c-5.6-3.4-12-5-19.4-5
						s-13.9,1.7-19.5,5c-5.6,3.3-9.9,8-13,14.1c-3,6-4.5,13.1-4.5,21.1v52.2c0,8,1.5,15.1,4.5,21.2c3.1,6,7.4,10.7,13,14.1
						C3329.6,2656.9,3336.1,2658.6,3343.4,2658.6z"/>
					<path id="path1464" class="st4" d="M3500.2,2683.2c-12.3,0-23.2-2.7-32.6-8.2c-9.3-5.5-16.6-13.2-21.7-23.3
						c-5.1-10.1-7.7-21.7-7.7-34.9v-48.9c0-13.2,2.6-24.9,7.7-34.9c5.1-10.1,12.4-17.8,21.7-23.3c9.4-5.6,20.3-8.3,32.6-8.3
						c10.2,0,19.6,2.2,28.2,6.6c8.6,4.3,15.7,10.5,21.5,18.5c5.8,8,9.7,17.3,11.8,27.8l0,0H3536l0,0c-1.6-5.6-4.2-10.5-7.8-14.8
						c-3.6-4.4-7.8-7.8-12.8-10.2c-4.9-2.4-10-3.6-15.2-3.6c-7.3,0-13.6,1.8-19.1,5.3s-9.7,8.5-12.8,14.8c-3,6.3-4.5,13.6-4.5,22.1
						v48.9c0,8.3,1.5,15.7,4.5,22.1c3,6.4,7.3,11.3,12.8,14.8c5.5,3.4,11.9,5.1,19.1,5.1c5.3,0,10.4-1.1,15.2-3.3
						c4.9-2.2,9.2-5.5,12.8-9.8c3.7-4.3,6.3-9.5,7.8-15.4l0,0h25.6l0,0c-2,10.5-6,19.8-11.8,27.8c-5.8,8-13,14.2-21.6,18.6
						C3519.7,2681,3510.4,2683.2,3500.2,2683.2L3500.2,2683.2z"/>
					<path id="path1466" class="st4" d="M3650.8,2683.2c-12.3,0-23.2-2.7-32.6-8.2c-9.3-5.5-16.6-13.2-21.7-23.3
						c-5.1-10.1-7.7-21.7-7.7-34.9v-48.9c0-13.2,2.6-24.9,7.7-34.9c5.1-10.1,12.4-17.8,21.7-23.3c9.4-5.6,20.3-8.3,32.6-8.3
						c10.2,0,19.6,2.2,28.2,6.6c8.6,4.3,15.7,10.5,21.5,18.5c5.8,8,9.7,17.3,11.8,27.8l0,0h-25.6l0,0c-1.6-5.6-4.2-10.5-7.8-14.8
						c-3.6-4.4-7.8-7.8-12.8-10.2c-4.9-2.4-10-3.6-15.2-3.6c-7.3,0-13.6,1.8-19.1,5.3s-9.7,8.5-12.8,14.8c-3,6.3-4.5,13.6-4.5,22.1
						v48.9c0,8.3,1.5,15.7,4.5,22.1s7.3,11.3,12.8,14.8c5.5,3.4,11.9,5.1,19.1,5.1c5.3,0,10.4-1.1,15.2-3.3
						c4.9-2.2,9.2-5.5,12.8-9.8c3.7-4.3,6.3-9.5,7.8-15.4l0,0h25.6l0,0c-2,10.5-6,19.8-11.8,27.8c-5.8,8-13,14.2-21.6,18.6
						C3670.3,2681,3660.9,2683.2,3650.8,2683.2L3650.8,2683.2z"/>
					<path id="path1468" class="st4" d="M3852.3,2681.2v-140.1l2.9,3.2l-89.4,136.9h-20.5v-178.1h24.8v142.2l-2.9-3.2l89.6-139h20.2
						v178.1H3852.3z"/>
					<path id="path1470" class="st4" d="M4028.4,2681.2v-140.1l2.9,3.2l-89.4,136.9h-20.5v-178.1h24.8v142.2l-2.9-3.2l89.6-139h20.2
						v178.1H4028.4z"/>
				</g>
			</g>
		</g>
	</g>
	<g id="g1531" transform="matrix(0.12060192,0,0,0.09402215,74.042743,221.8169)">
		<path id="path1446" class="st5" d="M3370.3,2600.1c-12.3,0-23.2-2.7-32.6-8.2c-9.3-5.5-16.6-13.2-21.7-23.3
			c-5.1-10.1-7.7-21.7-7.7-34.9v-48.9c0-13.2,2.6-24.9,7.7-34.9c5.1-10.1,12.4-17.8,21.7-23.3c9.4-5.6,20.3-8.3,32.6-8.3
			c10.2,0,19.6,2.2,28.2,6.6c8.6,4.3,15.7,10.5,21.5,18.5c5.8,8,9.7,17.3,11.8,27.8l0,0h-25.6l0,0c-1.6-5.6-4.2-10.5-7.8-14.8
			c-3.6-4.4-7.8-7.8-12.8-10.2c-4.9-2.4-10-3.6-15.2-3.6c-7.3,0-13.6,1.8-19.1,5.3c-5.5,3.5-9.7,8.5-12.8,14.8
			c-3,6.3-4.5,13.6-4.5,22.1v48.9c0,8.3,1.5,15.7,4.5,22.1c3,6.4,7.3,11.3,12.8,14.8c5.5,3.4,11.9,5.1,19.1,5.1
			c5.3,0,10.4-1.1,15.2-3.3c4.9-2.2,9.2-5.5,12.8-9.8c3.7-4.3,6.3-9.5,7.8-15.4l0,0h25.6l0,0c-2,10.5-6,19.8-11.8,27.8
			c-5.8,8-13,14.2-21.6,18.6C3389.8,2597.9,3380.5,2600.1,3370.3,2600.1z"/>
		<path id="path1448" class="st5" d="M3479.7,2575.1h48.3c12.7,0,21.9-2.4,27.7-7.2s8.7-11.6,8.7-20.4v-0.4c0-6-1.1-11.2-3.2-15.6
			c-2-4.3-5.3-7.6-9.8-9.9c-4.5-2.4-10.3-3.6-17.3-3.6h-54.4v-22.6h54.4c9.2,0,16.2-2.2,20.8-6.5c4.7-4.3,7.1-10.7,7.1-19.2l0,0
			c0-8.9-2.6-15.6-7.8-20c-5.2-4.4-13.1-6.6-23.5-6.6h-51V2420h55.5c11.5,0,21.2,2,28.9,5.9c7.8,3.9,13.6,9.5,17.4,16.7
			c3.8,7.2,5.8,15.8,5.8,25.7l0,0c0,6.1-1.2,11.9-3.6,17.3c-2.4,5.3-6,9.9-10.9,13.7c-4.8,3.8-10.8,6.3-18,7.6
			c7.2,1.1,13.4,3.6,18.6,7.7c5.2,4,9.2,9,12,15.1c2.8,6,4.2,12.6,4.2,19.6v0.4c0,9.6-2.1,18.1-6.4,25.5c-4.3,7.4-10.3,13-18.3,17
			c-7.9,4-17.2,6-27.7,6h-57.6L3479.7,2575.1z M3465,2420h24.9v178.3H3465V2420z"/>
		<path id="path1450" class="st5" d="M3682.8,2600.1c-12.4,0-23.4-2.7-32.9-8.1c-9.5-5.5-16.8-13.2-22.1-23
			c-5.1-10-7.7-21.5-7.7-34.6v-50.5c0-13.1,2.6-24.6,7.7-34.5c5.2-10,12.6-17.7,22.1-23c9.5-5.5,20.4-8.2,32.9-8.2
			c12.4,0,23.4,2.7,32.9,8.2c9.5,5.4,16.8,13.1,21.9,23c5.2,9.9,7.8,21.4,7.8,34.5v50.5c0,13.1-2.6,24.6-7.8,34.6
			c-5.1,9.9-12.5,17.6-21.9,23C3706.2,2597.4,3695.3,2600.1,3682.8,2600.1z M3682.8,2575.4c7.4,0,13.8-1.6,19.4-4.9
			c5.6-3.4,10-8.1,13-14.1c3.1-6.1,4.7-13.2,4.7-21.2V2483c0-8-1.6-15-4.7-21.1c-3-6.1-7.4-10.8-13-14.1c-5.6-3.4-12-5-19.4-5
			s-13.9,1.7-19.5,5c-5.6,3.3-9.9,8-13,14.1c-3,6-4.5,13.1-4.5,21.1v52.2c0,8,1.5,15.1,4.5,21.2c3.1,6,7.4,10.7,13,14.1
			C3669,2573.8,3675.5,2575.4,3682.8,2575.4z"/>
		<path id="path1452" class="st5" d="M3796.6,2574.4h57c5.7,0,10.6-1.1,14.6-3.4c4.1-2.3,7.2-5.6,9.3-10.1c2.1-4.4,3.2-9.7,3.2-15.9
			l0,0c0-6.3-1.1-11.6-3.2-16.1c-2.1-4.4-5.2-7.8-9.3-10.1c-4-2.4-8.9-3.6-14.6-3.6h-57v-23.8h56.2c11.3,0,20.9,2.1,28.9,6.3
			c8,4.2,14.1,10.3,18.3,18.3c4.3,8,6.4,17.7,6.4,28.9l0,0c0,11.2-2.1,20.8-6.4,28.8c-4.2,7.9-10.3,14-18.3,18.1
			c-8,4.2-17.7,6.3-28.9,6.3h-56.2L3796.6,2574.4z M3783.7,2420h25v178.3h-25V2420z M3795.9,2420h97.5v23.8h-97.5V2420z"/>
		<path id="path1454" class="st5" d="M3999.1,2600.1c-12.4,0-23.4-2.7-32.9-8.1c-9.5-5.5-16.8-13.2-22.1-23
			c-5.1-10-7.7-21.5-7.7-34.6v-50.5c0-13.1,2.6-24.6,7.7-34.5c5.2-10,12.6-17.7,22.1-23c9.5-5.5,20.4-8.2,32.9-8.2
			c12.4,0,23.4,2.7,32.9,8.2c9.5,5.4,16.8,13.1,21.9,23c5.2,9.9,7.8,21.4,7.8,34.5v50.5c0,13.1-2.6,24.6-7.8,34.6
			c-5.1,9.9-12.5,17.6-21.9,23C4022.5,2597.4,4011.6,2600.1,3999.1,2600.1z M3999.1,2575.4c7.4,0,13.8-1.6,19.4-4.9
			c5.6-3.4,10-8.1,13-14.1c3.1-6.1,4.7-13.2,4.7-21.2V2483c0-8-1.6-15-4.7-21.1c-3-6.1-7.4-10.8-13-14.1c-5.6-3.4-12-5-19.4-5
			c-7.4,0-13.9,1.7-19.5,5c-5.6,3.3-9.9,8-13,14.1c-3,6-4.5,13.1-4.5,21.1v52.2c0,8,1.5,15.1,4.5,21.2c3.1,6,7.4,10.7,13,14.1
			C3985.3,2573.8,3991.8,2575.4,3999.1,2575.4z"/>
		<path id="path1456" class="st5" d="M4083,2574.4h1.1c10.3,0,18.3-4.2,23.9-12.5c5.7-8.3,8.6-20.1,8.6-35.2V2420h25v109
			c0,13.1-2.2,24.2-6.5,33.5c-4.3,9.2-10.6,16.3-18.9,21.2c-8.2,4.8-18.1,7.2-29.7,7.2h-3.6V2574.4z M4082.9,2574.4h25v60.7h-25
			V2574.4z M4082.9,2574.4h154.6v23.8h-154.6V2574.4z M4223.6,2574.4h25v60.7h-25V2574.4z M4199.7,2420h25v178.3h-25V2420z
			 M4132.2,2420h80.8v23.8h-80.8L4132.2,2420z"/>
		<path id="path1458" class="st5" d="M4336.4,2420h21.3l65.7,178.3h-27l-49.4-143.8l-49.4,143.8h-27L4336.4,2420z M4301,2535.3h93.8
			v23.8H4301V2535.3z"/>
	</g>
	<g id="flowRoot1434" transform="matrix(0.26458333,0,0,0.26458333,90.270982,237.17744)">
	</g>
</g>
</svg>
