<?xml version="1.0" encoding="UTF-8" standalone="no"?>
<!-- Created with Inkscape (http://www.inkscape.org/) -->

<svg
   width="1000.0001"
   height="600"
   viewBox="0 0 264.58332 158.75"
   version="1.1"
   id="svg5"
   xml:space="preserve"
   xmlns="http://www.w3.org/2000/svg"
   xmlns:svg="http://www.w3.org/2000/svg"><defs
     id="defs2" /><path
     id="rect1396"
     style="fill:#012169;stroke-width:0.806198;stroke-linejoin:round;stroke-miterlimit:10;stop-color:#000000"
     d="m 1e-6,0 H 264.58334 V 91.42565 H 0 Z" /><path
     style="font-variation-settings:normal;vector-effect:none;fill:#ffc72c;fill-opacity:1;stroke:none;stroke-width:0.179155;stroke-linecap:butt;stroke-linejoin:miter;stroke-miterlimit:10;stroke-dasharray:none;stroke-dashoffset:0;stroke-opacity:1;-inkscape-stroke:none;stop-color:#000000"
     d="M 264.58332,91.42565 220.4861,55.59044 176.38888,91.42565 132.29166,55.59044 88.19444,91.42565 44.09722,55.59044 0,91.42565 V 158.75 h 264.58332 z"
     id="path1408" /><path
     style="font-variation-settings:normal;vector-effect:none;fill:#007a33;fill-opacity:1;stroke:none;stroke-width:0.179155;stroke-linecap:butt;stroke-linejoin:miter;stroke-miterlimit:10;stroke-dasharray:none;stroke-dashoffset:0;stroke-opacity:1;-inkscape-stroke:none;stop-color:#000000"
     d="M 0,158.75 44.09722,122.91479 88.19444,158.75 132.29166,122.91479 176.38888,158.75 220.4861,122.91479 264.58332,158.75 Z"
     id="path1400" /><path
     style="font-variation-settings:normal;vector-effect:none;fill:#007a33;fill-opacity:1;stroke:none;stroke-width:0.179155;stroke-linecap:butt;stroke-linejoin:miter;stroke-miterlimit:10;stroke-dasharray:none;stroke-dashoffset:0;stroke-opacity:1;-inkscape-stroke:none;stop-color:#000000"
     d="M 264.58332,136.30855 220.4861,100.47333 176.38888,136.30855 132.29166,100.47333 88.19444,136.30855 44.09722,100.47333 0,136.30855 v -22.44144 l 44.09722,-35.83522 44.09722,35.83522 44.09722,-35.83522 44.09722,35.83522 44.09722,-35.83522 44.09722,35.83522 z"
     id="path1402" /><g
     id="g5110"
     transform="matrix(0.67704806,0,0,0.67720089,45.831783,184.86543)"
     style="stroke-width:1.17224;stroke-dasharray:none"><path
       id="path1040"
       style="font-variation-settings:normal;opacity:1;fill:#ffc72c;fill-opacity:1;stroke:#000000;stroke-width:1.17224;stroke-linecap:butt;stroke-linejoin:miter;stroke-miterlimit:10;stroke-dasharray:none;stroke-dashoffset:0;stroke-opacity:1;stop-color:#000000;stop-opacity:1"
       d="m 171.94868,-196.87273 c 1.43559,0.42828 1.57904,-0.74783 1.98644,-1.94769 0.38189,-1.12472 0.34418,-2.25307 -0.70022,-2.64325 -0.35303,-3.72667 0.45268,-7.32959 1.57458,-9.53223 l 1.5751,-4.79041 c 0.9977,-5.31268 2.59609,-10.58083 4.14393,-15.84916 0.79243,-0.91509 1.59281,-1.81424 2.39831,-2.69131 l 6.2761,-19.60449 c -9.07045,11.27352 -17.28026,23.94733 -25.33747,35.88308 -2.9949,-11.7554 -5.36666,-24.24307 -7.25434,-35.55493 -5.95589,11.00944 -11.63824,21.84639 -17.24081,32.73805 -3.61982,-13.05097 -7.57799,-26.39645 -11.66905,-39.68026 -4.09108,13.28381 -8.04923,26.62929 -11.66906,39.68026 -5.60256,-10.89166 -11.28491,-21.72861 -17.240805,-32.73805 -1.887679,11.31186 -4.259441,23.79953 -7.254338,35.55493 -8.057212,-11.93575 -16.26702,-24.60956 -25.337471,-35.88308 l 6.276102,19.60449 c 0.8055,0.87707 1.605874,1.77622 2.398304,2.69131 1.547838,5.26833 3.146234,10.53648 4.143933,15.84916 l 1.574581,4.79041 c 1.121898,2.20264 1.928117,5.80556 1.575097,9.53223 -1.044407,0.39018 -1.082104,1.51853 -0.700215,2.64325 0.407406,1.19986 0.550841,2.37597 1.986442,1.94769 z" /><path
       id="path1056"
       style="font-variation-settings:normal;opacity:1;fill:none;fill-opacity:1;stroke:#000000;stroke-width:1.17224;stroke-linecap:butt;stroke-linejoin:miter;stroke-miterlimit:10;stroke-dasharray:none;stroke-dashoffset:0;stroke-opacity:1;stop-color:#000000;stop-opacity:1"
       d="m 180.52827,-231.63567 c -4.1318,4.77136 -8.04458,9.98571 -11.30724,14.87357 m -10.91129,-1.57459 c -1.65718,-5.24126 -3.33669,-11.03696 -4.76813,-16.54436 -3.01072,5.01883 -5.9933,10.23185 -8.51613,15.25807 m -70.151269,-12.01269 c 4.131801,4.77136 8.044584,9.98571 11.30724,14.87357 m 10.91129,-1.57459 c 1.657189,-5.24126 3.336699,-11.03696 4.768139,-16.54436 3.01072,5.01883 5.9933,10.23185 8.51613,15.25807 m 10.57325,-0.35326 c 2.21617,-6.3967 4.58542,-13.20861 6.75098,-19.89472 2.16557,6.68611 4.53482,13.49802 6.75099,19.89472" /><path
       style="font-variation-settings:normal;opacity:1;fill:#ffc72c;fill-opacity:1;stroke:#000000;stroke-width:1.17224;stroke-linecap:butt;stroke-linejoin:miter;stroke-miterlimit:10;stroke-dasharray:none;stroke-dashoffset:0;stroke-opacity:1;stop-color:#000000;stop-opacity:1"
       d="m 176.38434,-215.78629 c 1.51391,0.33593 1.0946,1.59153 0.69995,2.75382 -0.39465,1.16229 -0.89569,2.36004 -2.27455,2.0365 -1.37885,-0.32354 -24.20306,-5.21169 -47.10849,-5.21169 -22.90544,0 -45.729653,4.88815 -47.108509,5.21169 -1.378856,0.32354 -1.879897,-0.87421 -2.274545,-2.0365 -0.394648,-1.16229 -0.813958,-2.41789 0.699949,-2.75382 1.513908,-0.33592 19.874551,-4.39113 48.683095,-4.39113 28.80855,0 47.16919,4.05521 48.6831,4.39113 z"
       id="path1036" /><path
       style="font-variation-settings:normal;opacity:1;fill:#ffb81c;fill-opacity:1;stroke:#000000;stroke-width:1.17224;stroke-linecap:butt;stroke-linejoin:round;stroke-miterlimit:10;stroke-dasharray:none;stroke-dashoffset:0;stroke-opacity:1;stop-color:#000000;stop-opacity:1"
       d="m 127.70125,-202.3506 c -27.923614,0 -42.81202,5.04953 -44.247622,5.47782 0,0 19.022962,1.38 44.247612,1.38 25.22465,0 44.24762,-1.38 44.24762,-1.38 -1.43561,-0.42829 -16.32401,-5.47782 -44.24761,-5.47782 z"
       id="path5100" /><path
       style="font-variation-settings:normal;opacity:1;fill:none;fill-opacity:1;stroke:#000000;stroke-width:1.17224;stroke-linecap:butt;stroke-linejoin:miter;stroke-miterlimit:10;stroke-dasharray:none;stroke-dashoffset:0;stroke-opacity:1;stop-color:#000000;stop-opacity:1"
       d="m 82.167339,-201.4635 c 1.044407,-0.39018 17.390679,-5.92137 45.533911,-5.92137 28.14322,0 44.48949,5.53119 45.5339,5.92137"
       id="path5102" /></g></svg>
