<?xml version="1.0" encoding="UTF-8" standalone="no"?>
<!-- Created with Inkscape (http://www.inkscape.org/) -->

<svg
   xmlns:dc="http://purl.org/dc/elements/1.1/"
   xmlns:cc="http://creativecommons.org/ns#"
   xmlns:rdf="http://www.w3.org/1999/02/22-rdf-syntax-ns#"
   xmlns:svg="http://www.w3.org/2000/svg"
   xmlns="http://www.w3.org/2000/svg"
   xmlns:sodipodi="http://sodipodi.sourceforge.net/DTD/sodipodi-0.dtd"
   xmlns:inkscape="http://www.inkscape.org/namespaces/inkscape"
   id="svg4136"
   version="1.1"
   inkscape:version="0.91 r13725"
   width="250mm"
   height="150mm"
   viewBox="0 0 885.82676 531.49606"
   sodipodi:docname="Coventry city flag.svg">
  <metadata
     id="metadata4142">
    <rdf:RDF>
      <cc:Work
         rdf:about="">
        <dc:format>image/svg+xml</dc:format>
        <dc:type
           rdf:resource="http://purl.org/dc/dcmitype/StillImage" />
        <dc:title />
      </cc:Work>
    </rdf:RDF>
  </metadata>
  <defs
     id="defs4140" />
  <sodipodi:namedview
     pagecolor="#ffffff"
     bordercolor="#666666"
     borderopacity="1"
     objecttolerance="10"
     gridtolerance="10"
     guidetolerance="10"
     inkscape:pageopacity="0"
     inkscape:pageshadow="2"
     inkscape:window-width="1920"
     inkscape:window-height="1017"
     id="namedview4138"
     showgrid="false"
     inkscape:zoom="1.4142136"
     inkscape:cx="396.87914"
     inkscape:cy="313.59831"
     inkscape:window-x="-8"
     inkscape:window-y="-8"
     inkscape:window-maximized="1"
     inkscape:current-layer="svg4136"
     inkscape:object-paths="true"
     inkscape:object-nodes="true"
     inkscape:snap-global="false"
     units="mm"
     inkscape:snap-page="true"
     inkscape:snap-grids="false">
    <inkscape:grid
       type="xygrid"
       id="grid4393"
       units="mm"
       spacingx="0.7086614"
       spacingy="0.70866145" />
  </sodipodi:namedview>
  <rect
     style="color:#000000;clip-rule:nonzero;display:inline;overflow:visible;visibility:visible;opacity:1;isolation:auto;mix-blend-mode:normal;color-interpolation:sRGB;color-interpolation-filters:linearRGB;solid-color:#000000;solid-opacity:1;fill:#ffffff;fill-opacity:1;fill-rule:nonzero;stroke:none;stroke-width:1.5;stroke-linecap:round;stroke-linejoin:round;stroke-miterlimit:4;stroke-dasharray:none;stroke-dashoffset:0;stroke-opacity:1;color-rendering:auto;image-rendering:auto;shape-rendering:auto;text-rendering:auto;enable-background:accumulate"
     id="rect4395"
     width="885.82678"
     height="531.49609"
     x="0"
     y="-3.0277282e-005" />
  <rect
     style="color:#000000;clip-rule:nonzero;display:inline;overflow:visible;visibility:visible;opacity:1;isolation:auto;mix-blend-mode:normal;color-interpolation:sRGB;color-interpolation-filters:linearRGB;solid-color:#000000;solid-opacity:1;fill:#5b97b1;fill-opacity:1;fill-rule:nonzero;stroke:none;stroke-width:1.5;stroke-linecap:round;stroke-linejoin:round;stroke-miterlimit:4;stroke-dasharray:none;stroke-dashoffset:0;stroke-opacity:1;color-rendering:auto;image-rendering:auto;shape-rendering:auto;text-rendering:auto;enable-background:accumulate"
     id="rect4397"
     width="221.4567"
     height="531.49609"
     x="0"
     y="-3.0757874e-005" />
  <rect
     style="color:#000000;clip-rule:nonzero;display:inline;overflow:visible;visibility:visible;opacity:1;isolation:auto;mix-blend-mode:normal;color-interpolation:sRGB;color-interpolation-filters:linearRGB;solid-color:#000000;solid-opacity:1;fill:#5b97b1;fill-opacity:1;fill-rule:nonzero;stroke:none;stroke-width:1.5;stroke-linecap:round;stroke-linejoin:round;stroke-miterlimit:4;stroke-dasharray:none;stroke-dashoffset:0;stroke-opacity:1;color-rendering:auto;image-rendering:auto;shape-rendering:auto;text-rendering:auto;enable-background:accumulate"
     id="rect4397-0"
     width="221.4567"
     height="531.49609"
     x="664.37006"
     y="-3.0757874e-005" />
  <g
     id="g4251">
    <g
       transform="translate(0,0.07320086)"
       id="g4192">
      <path
         style="fill:#000000;fill-rule:evenodd;stroke:#a9aaab;stroke-width:1.5;stroke-linecap:round;stroke-linejoin:round;stroke-miterlimit:4;stroke-dasharray:none;stroke-opacity:1"
         d="m 469.375,306.29785 c 5.5,18.08333 13.625,36.41667 35.125,54.375 -2.93185,5.18153 -9.27536,10.08508 -14.25775,14.45109 -7.77284,6.81124 -20.59805,14.22818 -26.99225,22.42391 -3.79661,4.86629 -5.54167,13.20833 -4,24.5 l 25.90468,-9.92613 c 0.375,-2.625 0.63951,-5.54484 1.01451,-8.16984 l -2.66226,-1.63886 c 2.2191,-2.71845 2.96048,-4.11704 4.11807,-4.14017 0.30159,-0.006 3.09532,2.19887 4.72032,3.19887 5.13489,-5.27462 8.1028,-11.30206 15.02968,-18.82387 4.15532,-4.51222 18.95834,-17.58333 24.12501,-17.375 0.33333,-11.16667 1.04167,-21.83333 5.8125,-33.6875 l -17.40437,-38.85557 z"
         id="path4172"
         inkscape:connector-curvature="0"
         sodipodi:nodetypes="ccssccccscscccc" />
      <path
         style="fill:none;fill-rule:evenodd;stroke:#a9aaab;stroke-width:2;stroke-linecap:butt;stroke-linejoin:miter;stroke-miterlimit:4;stroke-dasharray:none;stroke-opacity:1"
         d="m 459.84038,406.35334 c 15.15861,-4.77297 24.04163,-3.8007 24.04163,-3.8007"
         id="path4168"
         inkscape:connector-curvature="0"
         sodipodi:nodetypes="cc" />
    </g>
    <g
       id="g4247">
      <path
         style="fill:#000000;fill-rule:evenodd;stroke:#a9aaab;stroke-width:1.5;stroke-linecap:butt;stroke-linejoin:round;stroke-miterlimit:4;stroke-dasharray:none;stroke-opacity:1"
         d="m 377.57343,326.41571 c 0,0 -19.19923,25.71443 -22.22973,60.82947 -1.72127,19.94468 1.63347,35.47088 -4.16908,49.66168 l -6.07094,-2.11504 c -0.39905,-0.13902 -0.41478,0.77312 -0.30435,0.96587 2.53689,4.42779 1.75354,4.24339 1.75354,4.24339 l -4.30841,10.34018 c -6.60623,-0.41778 -17.5992,-0.83556 -27.80883,-0.31333 2.97672,-13.63025 17.86032,-26.32048 17.86032,-26.32048 2.17785,-8.03718 9.24001,-37.89274 9.58155,-53.11037 0.28437,-12.67029 -1.14901,-23.74178 -5.97815,-42.30134 l -22.73943,-29.70298 c -9.63433,-17.38305 -10.78338,-36.44547 -3.35876,-62.49057"
         id="path4152"
         inkscape:connector-curvature="0"
         sodipodi:nodetypes="cscssccccsccc" />
      <path
         style="fill:#000000;fill-rule:evenodd;stroke:#a9aaab;stroke-width:2;stroke-linecap:butt;stroke-linejoin:round;stroke-miterlimit:4;stroke-dasharray:none;stroke-opacity:1"
         d="m 324.5625,431.80855 c 14.25,5.25 21.375,9.46875 21.375,9.46875"
         id="path4166"
         inkscape:connector-curvature="0"
         sodipodi:nodetypes="cc" />
    </g>
    <path
       sodipodi:nodetypes="ccsscsccssssccccsccssc"
       inkscape:connector-curvature="0"
       id="path4162"
       d="m 306.25,251.62105 c -1.70833,-18 0.55192,-37.53406 -9.375,-63 -4.34293,6.85897 -8.36697,21.94484 -9.25,26.25 -0.54924,2.67779 -5.78586,9.92493 -8.5,10.25 -1.76188,0.21102 -3.58182,-0.59021 -5.5,0 -0.13425,1.62784 -1.75451,3.28674 -3.875,2.75 -1.71727,-0.43468 -8.37627,-7.05893 -12.125,-13.5 0.4524,-10.68275 0.35992,-17.8356 1.875,-30.5 -2.33757,-3.77428 -6.76796,-10.3258 -6.125,-18.375 0.98139,-12.28597 1.34543,-29.34141 4.875,-33.5 1.32636,-1.56274 3.46127,-2.96203 5.5,-2.75 19.1453,1.99111 40.15372,-0.0618 57,9.25 21.24845,11.74513 47.79167,47.125 65.125,64.125 l 94.125,11.875 c 26.625,-3.08333 47.75001,0.45833 63.75001,8.375 10.40954,-0.3389 16.85165,12.93503 17.44004,20.1965 1.85397,8.95385 1.42761,20.15887 0.37067,31.16769 -1.56301,16.27989 -5.06282,32.50263 -9.14416,43.40698 l -49.82089,-12.8469 c -32.6917,3.02895 -59.73649,8.91623 -83.34816,15.35361 -12.06877,3.29038 -16.4794,6.38944 -36.19065,6.73679 -6.67393,0.11761 -14.98804,-2.45449 -20.36703,-4.85675"
       style="fill:#000000;fill-rule:evenodd;stroke:#a9aaab;stroke-width:1.5;stroke-linecap:round;stroke-linejoin:round;stroke-miterlimit:4;stroke-dasharray:none;stroke-opacity:1" />
    <path
       sodipodi:nodetypes="csssscscsssssc"
       inkscape:connector-curvature="0"
       id="path4158"
       d="m 561.44279,244.05714 c 4.89279,-1.04024 9.88744,0.16314 12.60842,4.88055 3.80334,6.59389 3.93146,22.26034 2.59438,31.53545 -3.26878,22.67496 -2.64489,28.89711 1.34796,39.4456 3.60652,9.52787 13.81734,18.72311 25.16854,19.95137 16.15863,1.74846 28.51997,-4.47834 33.23402,-16.26345 -4.9569,1.82496 -8.92037,2.87917 -14.49569,2.47487 -3.58085,-0.25967 -7.0821,-4.01555 -9.45531,-5.14353 -2.78647,-1.54123 -4.63363,-0.23386 -6.21602,-1.8287 -5.26655,-5.30797 -4.67481,-11.21137 -5.16687,-23.2477 -0.67743,-16.57058 14.84225,-25.33415 14.24569,-50.67946 -0.28249,-12.00199 -4.00568,-22.75071 -12.16001,-30.33206 -13.10262,-12.18194 -23.60915,-15.33589 -31.32707,-15.56922 -11.89744,-0.35969 -23.87642,5.6683 -31.27088,21.88873"
       style="fill:#000000;fill-rule:evenodd;stroke:#a9aaab;stroke-width:1.5;stroke-linecap:round;stroke-linejoin:round;stroke-miterlimit:4;stroke-dasharray:none;stroke-opacity:1" />
    <path
       sodipodi:nodetypes="csssccsccccccc"
       inkscape:connector-curvature="0"
       id="path4178"
       d="m 488.125,285.24605 c 6.25,16.41667 16.32838,29.79288 34.5,39.5 10.9921,5.87188 32.07365,24.20242 39.07004,40.52574 6.68342,15.59312 8.75044,32.49457 9.42996,50.59926 0.16568,4.41437 -10.34215,15.82062 -11.57322,22.75758 l 0,1.125 c 6.91667,2.58333 21.68076,2.86816 31.07322,0.11742 0.66251,-0.19403 1.30936,-4.04419 1.5,-6 l -4.5,-8.375 1.75,-9 c 0.1515,-0.48614 0.83333,-0.26517 1.25,0 2.08333,0.91667 5.54167,2.33333 6.25,1.25 -9.125,-21.95833 -13.77275,-47.31442 -13.41161,-67.85983 -7.5226,-6.01234 -21.58594,-20.68674 -30.03661,-34.875"
       style="fill:#000000;fill-rule:evenodd;stroke:#a9aaab;stroke-width:1.5;stroke-linecap:round;stroke-linejoin:round;stroke-miterlimit:4;stroke-dasharray:none;stroke-opacity:1" />
    <path
       sodipodi:nodetypes="csc"
       inkscape:connector-curvature="0"
       id="path4148"
       d="m 561.19005,243.06755 c 1.85397,8.95385 1.42761,20.15887 0.37067,31.16769 -1.56301,16.27989 -5.06282,32.50263 -9.14416,43.40698"
       style="fill:none;fill-rule:evenodd;stroke:#a9aaab;stroke-width:1.5;stroke-linecap:round;stroke-linejoin:round;stroke-miterlimit:4;stroke-dasharray:none;stroke-opacity:1" />
    <path
       style="fill:none;fill-rule:evenodd;stroke:#a9aaab;stroke-width:1.5;stroke-linecap:round;stroke-linejoin:round;stroke-miterlimit:4;stroke-dasharray:none;stroke-opacity:1"
       d="m 480.00001,214.49605 c 26.625,-3.08333 47.75001,0.45833 63.75001,8.375 m 17.44004,20.1965 c 1.85397,8.95385 1.4276,20.15887 0.37067,31.16769 -1.56301,16.27989 -5.06282,32.50263 -9.14417,43.40698"
       id="path4162-2"
       inkscape:connector-curvature="0"
       sodipodi:nodetypes="cccsc" />
    <path
       sodipodi:nodetypes="sssssssscccs"
       inkscape:connector-curvature="0"
       id="path4160"
       d="m 378.625,210.24605 c -1.70363,14.63409 -8.09547,29.47319 -9.13405,43.87435 -0.27447,3.80589 -0.48613,7.60261 -0.24095,11.12565 0.4713,6.77202 5.99961,7.60768 9,8 32.15999,4.2051 68.97633,5.46713 97.75,1.5 4.42443,-0.61001 8.12557,-0.93627 8,-6.25 -0.42625,-18.03754 -1.84831,-29.73744 2.5,-53.375 0.43573,-2.36865 -6.49052,-3.53648 -10,-3.875 -20.98288,-2.02399 -41.04775,-5.05934 -64.33091,-8.36175 -5.91804,-6.63286 -14.97386,-13.00057 -21.37804,-17.44582 -7.99517,6.16134 -9.27282,6.99729 -11.47855,12.12007 0,0 -0.19775,8.48054 -0.6875,12.6875 z"
       style="fill:#000000;fill-rule:evenodd;stroke:#a9aaab;stroke-width:1.5;stroke-linecap:butt;stroke-linejoin:miter;stroke-miterlimit:4;stroke-dasharray:none;stroke-opacity:1" />
    <path
       sodipodi:nodetypes="csccscc"
       inkscape:connector-curvature="0"
       id="path4157"
       d="m 369.75,194.74605 c -19.39962,11.73069 -32.91821,16.94935 -44.78808,19.79866 -7.5169,1.8044 -27.86143,2.26392 -45.58692,-2.29866 -1.68737,3.109 -1.87473,4.343 -2.4371,6.702 12.35049,4.18758 27.60888,4.99102 35.33692,4.79866 31.41631,-0.782 48.22613,-10.05884 73.66308,-31.42366 2.82415,-6.08662 -15.03457,-3.15764 -16.1879,2.423 z"
       style="fill:#000000;fill-rule:evenodd;stroke:#a9aaab;stroke-width:1.5;stroke-linecap:round;stroke-linejoin:round;stroke-miterlimit:4;stroke-dasharray:none;stroke-opacity:1" />
    <circle
       r="5.6875"
       cy="214.43355"
       cx="273.5625"
       id="path4153"
       style="color:#000000;clip-rule:nonzero;display:inline;overflow:visible;visibility:visible;opacity:1;isolation:auto;mix-blend-mode:normal;color-interpolation:sRGB;color-interpolation-filters:linearRGB;solid-color:#000000;solid-opacity:1;fill:#000000;fill-opacity:1;fill-rule:nonzero;stroke:#a9aaab;stroke-width:1.75;stroke-linecap:round;stroke-linejoin:round;stroke-miterlimit:4;stroke-dasharray:none;stroke-dashoffset:0;stroke-opacity:1;color-rendering:auto;image-rendering:auto;shape-rendering:auto;text-rendering:auto;enable-background:accumulate" />
    <path
       sodipodi:nodetypes="cscc"
       inkscape:connector-curvature="0"
       id="path4155"
       d="m 263.25,129.24605 c -7.125,1.08333 -7.51253,9.69025 -9.75,16.375 -0.66561,1.9886 -1,3.41667 -4.125,4.75 9,3.45833 14.375,1.04167 19.5,-9.5"
       style="fill:#000000;fill-rule:evenodd;stroke:#a9aaab;stroke-width:1.5;stroke-linecap:round;stroke-linejoin:round;stroke-miterlimit:4;stroke-dasharray:none;stroke-opacity:1" />
    <g
       transform="translate(0,0.07320086)"
       style="fill:#000000"
       id="g4204">
      <path
         style="fill:#000000;fill-rule:evenodd;stroke:#a9aaab;stroke-width:1.5;stroke-linecap:round;stroke-linejoin:round;stroke-miterlimit:4;stroke-dasharray:none;stroke-opacity:1"
         d="m 373.81336,279.49834 c 3.08117,24.96267 -6.37122,36.7651 -12.53355,46.06082 -32.37836,1.98448 -54.5732,8.66904 -78.64808,15.04027 -2.29782,12.58578 -4.07341,25.62979 -4.07341,37.75735 0,2.7757 5.37899,9.81795 12.37689,20.05369 -2.0367,2.97672 -5.32676,14.72693 -7.6768,25.22379 -8.0367,-6.11295 -13.28362,-14.95956 -14.57026,-23.6571 -1.35566,-9.16414 -2.97672,-14.10025 -7.99015,-21.15038 3.02894,-13.47357 4.80453,-32.58725 4.38675,-46.06082 -0.0333,-1.07482 -0.94002,-2.82005 -0.94002,-2.82005 0.69381,-3.1558 3.52149,-6.90061 6.11011,-8.61682 23.86599,-12.53356 38.3318,-14.8836 54.52098,-36.974"
         id="path4150"
         inkscape:connector-curvature="0"
         sodipodi:nodetypes="cccsccscsccc" />
      <path
         style="fill:#000000;fill-rule:evenodd;stroke:#a9aaab;stroke-width:2;stroke-linecap:butt;stroke-linejoin:round;stroke-miterlimit:4;stroke-dasharray:none;stroke-opacity:1"
         d="m 270.625,407.04785 c 3.625,-6.58333 8.05936,-13.26264 13.43436,-18.22097"
         id="path4164"
         inkscape:connector-curvature="0"
         sodipodi:nodetypes="cc" />
    </g>
    <path
       sodipodi:nodetypes="cc"
       inkscape:connector-curvature="0"
       id="path4170"
       d="m 566.83448,425.80569 c 13.78858,1.32582 21.80983,2.58536 21.80983,2.58536"
       style="fill:none;fill-rule:evenodd;stroke:#a9aaab;stroke-width:2;stroke-linecap:round;stroke-linejoin:miter;stroke-miterlimit:4;stroke-dasharray:none;stroke-opacity:1" />
    <path
       sodipodi:nodetypes="cc"
       inkscape:connector-curvature="0"
       id="path4177"
       d="m 273.65033,220.28068 -0.26517,5.48007"
       style="fill:none;fill-rule:evenodd;stroke:#a9aaab;stroke-width:1.5;stroke-linecap:round;stroke-linejoin:round;stroke-miterlimit:4;stroke-dasharray:none;stroke-opacity:1" />
    <g
       transform="translate(0,0.07320086)"
       id="g4186">
      <path
         style="fill:none;fill-rule:evenodd;stroke:#a9aaab;stroke-width:1.5;stroke-linecap:round;stroke-linejoin:round;stroke-miterlimit:4;stroke-dasharray:none;stroke-opacity:1"
         d="m 268.17025,183.79148 -2.2981,2.38648 c -0.97227,5.21491 -1.32582,11.84404 -1.85615,18.82672"
         id="path4175"
         inkscape:connector-curvature="0"
         sodipodi:nodetypes="ccc" />
      <path
         transform="matrix(0.92096113,0.38965445,-0.38965445,0.92096113,0,0)"
         style="color:#000000;clip-rule:nonzero;display:inline;overflow:visible;visibility:visible;opacity:1;isolation:auto;mix-blend-mode:normal;color-interpolation:sRGB;color-interpolation-filters:linearRGB;solid-color:#000000;solid-opacity:1;fill:none;fill-opacity:1;fill-rule:nonzero;stroke:#a9aaab;stroke-width:2;stroke-linecap:round;stroke-linejoin:round;stroke-miterlimit:4;stroke-dasharray:none;stroke-dashoffset:0;stroke-opacity:1;color-rendering:auto;image-rendering:auto;shape-rendering:auto;text-rendering:auto;enable-background:accumulate"
         d="m 308.90145,47.759123 c 2.18066,0.563585 3.39176,1.474935 4.05092,3.285968 0.48304,1.327135 0.37673,2.959033 -0.0439,4.361891 -0.40458,1.349394 -1.62746,2.457562 -3.13385,2.97688"
         id="path4179"
         inkscape:connector-curvature="0"
         sodipodi:nodetypes="cssc" />
      <path
         style="fill:none;fill-rule:evenodd;stroke:#a9aaab;stroke-width:2;stroke-linecap:round;stroke-linejoin:round;stroke-miterlimit:4;stroke-dasharray:none;stroke-opacity:1"
         d="m 266.53507,159.88243 c 0.20624,2.75477 -1.53207,5.95148 -4.02167,7.46881 -0.5683,0.34636 -0.95556,1.99629 -0.83969,2.65165 0.4714,2.66639 0.63345,5.28857 0.53033,8.30851"
         id="path4182"
         inkscape:connector-curvature="0"
         sodipodi:nodetypes="cssc" />
      <circle
         style="color:#000000;clip-rule:nonzero;display:inline;overflow:visible;visibility:visible;opacity:1;isolation:auto;mix-blend-mode:normal;color-interpolation:sRGB;color-interpolation-filters:linearRGB;solid-color:#000000;solid-opacity:1;fill:#a9aaab;fill-opacity:1;fill-rule:nonzero;stroke:none;stroke-width:2;stroke-linecap:round;stroke-linejoin:round;stroke-miterlimit:4;stroke-dasharray:none;stroke-dashoffset:0;stroke-opacity:1;color-rendering:auto;image-rendering:auto;shape-rendering:auto;text-rendering:auto;enable-background:accumulate"
         id="path4184"
         cx="265.07181"
         cy="169.52162"
         r="1.1" />
    </g>
    <path
       sodipodi:nodetypes="sscscs"
       inkscape:connector-curvature="0"
       id="path4171-7-0-1-6"
       d="m 359.61574,175.21905 c 2.09156,3.58111 3.1984,1.07071 3.3451,5.20079 0.2974,8.37273 4.49632,14.20857 10.72332,16.15952 -3.97232,-4.80636 -0.63529,-9.91072 -2.39323,-15.2964 -1.18064,-3.61704 -5.96893,-9.02069 -12.54654,-8.41363 -0.44312,1.13109 0.25872,1.30074 0.87135,2.34972 z"
       style="fill:#000000;fill-rule:evenodd;stroke:#a9aaab;stroke-width:1.5;stroke-linecap:round;stroke-linejoin:round;stroke-miterlimit:4;stroke-dasharray:none;stroke-opacity:1" />
    <path
       sodipodi:nodetypes="sscscs"
       inkscape:connector-curvature="0"
       id="path4171-7-0-1"
       d="m 348.57028,166.27258 c 2.7029,3.14536 2.37397,0.77794 3.14387,4.83828 1.4434,7.61224 7.37362,11.82295 13.85031,12.61931 -4.77374,-4.01146 -2.44641,-10.517 -5.14649,-15.4975 -1.81339,-3.34493 -6.76799,-5.89716 -13.12838,-4.11422 -0.23194,1.19244 0.48898,1.23279 1.28069,2.15413 z"
       style="fill:#000000;fill-rule:evenodd;stroke:#a9aaab;stroke-width:1.5;stroke-linecap:round;stroke-linejoin:round;stroke-miterlimit:4;stroke-dasharray:none;stroke-opacity:1" />
    <path
       sodipodi:nodetypes="sscscs"
       inkscape:connector-curvature="0"
       id="path4171-7-0"
       d="m 337.72642,157.34569 c 2.88252,2.98161 2.32088,0.66247 3.42191,4.64579 2.31248,8.36614 9.10312,12.18559 14.41172,11.29443 -8.0613,-4.67223 -3.23437,-11.2218 -7.56463,-17.58454 -2.14073,-3.14552 -6.63961,-4.01509 -11.78353,-2.30287 -0.16168,1.20398 0.6702,3.07381 1.51453,3.94719 z"
       style="fill:#000000;fill-rule:evenodd;stroke:#a9aaab;stroke-width:1.5;stroke-linecap:round;stroke-linejoin:round;stroke-miterlimit:4;stroke-dasharray:none;stroke-opacity:1" />
    <path
       sodipodi:nodetypes="sscscs"
       inkscape:connector-curvature="0"
       id="path4171-7"
       d="m 327.46085,146.91065 c 2.88252,2.98161 1.59675,1.68797 3.42191,5.39579 3.68748,7.49114 9.10312,10.68559 14.41172,9.79443 -8.0613,-4.67223 -2.29905,-9.97582 -7.56463,-16.83454 -2.7409,-3.57019 -7.26461,-4.89009 -11.78353,-2.30287 -0.16168,1.20398 0.6702,3.07381 1.51453,3.94719 z"
       style="fill:#000000;fill-rule:evenodd;stroke:#a9aaab;stroke-width:1.5;stroke-linecap:round;stroke-linejoin:round;stroke-miterlimit:4;stroke-dasharray:none;stroke-opacity:1" />
    <path
       sodipodi:nodetypes="sscscs"
       inkscape:connector-curvature="0"
       id="path4171"
       d="m 314,137.24605 c 3.08851,2.76769 4.46211,2.19811 5.75,6.125 2.16559,6.60309 7.89379,9.01879 13.125,7.75 -8.375,-4.08333 -3.00708,-9.78571 -8.75,-16.25 -2.98938,-3.36488 -7.23852,-4.22307 -12.125,-1.125 -0.0751,1.21246 1.09532,2.68929 2,3.5 z"
       style="fill:#000000;fill-rule:evenodd;stroke:#a9aaab;stroke-width:1.5;stroke-linecap:round;stroke-linejoin:round;stroke-miterlimit:4;stroke-dasharray:none;stroke-opacity:1" />
    <g
       id="g4865">
      <path
         style="fill:none;fill-rule:evenodd;stroke:#a9aaab;stroke-width:1.5;stroke-linecap:round;stroke-linejoin:round;stroke-miterlimit:4;stroke-dasharray:none;stroke-opacity:1"
         d="m 301.625,150.62105 c 4.94274,2.11574 7.78505,7.58138 8.23823,13.12857 0.5129,6.27816 -5.69806,21.88268 -17.73823,27.74643"
         id="path4149"
         inkscape:connector-curvature="0"
         sodipodi:nodetypes="csc" />
      <path
         style="fill:none;fill-rule:evenodd;stroke:#a9aaab;stroke-width:1.5;stroke-linecap:round;stroke-linejoin:round;stroke-miterlimit:4;stroke-dasharray:none;stroke-opacity:1"
         d="m 309.875,161.74605 c 9.25,11.79167 9,30.45833 22.875,50"
         id="path4151"
         inkscape:connector-curvature="0"
         sodipodi:nodetypes="cc" />
    </g>
    <path
       sodipodi:nodetypes="sscscs"
       inkscape:connector-curvature="0"
       id="path4171-72"
       d="m 296.48769,131.36412 c 3.3884,2.39119 4.93159,1.07317 7.67097,4.16751 5.91609,6.68269 10.51061,7.79341 16.93457,6.17704 -8.79172,-3.08544 -6.19695,-12.74067 -12.32392,-16.37671 -5.77533,-3.42736 -11.80408,-0.73092 -15.54868,3.53747 0.0659,1.213 2.27454,1.79427 3.26706,2.49469 z"
       style="fill:#000000;fill-rule:evenodd;stroke:#a9aaab;stroke-width:1.5;stroke-linecap:round;stroke-linejoin:round;stroke-miterlimit:4;stroke-dasharray:none;stroke-opacity:1" />
    <path
       sodipodi:nodetypes="scscs"
       inkscape:connector-curvature="0"
       id="path4171-72-6"
       d="m 282.84356,131.35015 c 6.10064,3.84591 11.82163,8.25781 20.80003,2.81711 -10.19954,-1.97743 -12.10813,-11.81478 -16.78279,-13.43165 -6.34683,-2.19524 -9.62161,0.62397 -12.04992,5.36377 0.27997,1.18208 7.00506,4.60295 8.03268,5.25077 z"
       style="fill:#000000;fill-rule:evenodd;stroke:#a9aaab;stroke-width:1.5;stroke-linecap:round;stroke-linejoin:round;stroke-miterlimit:4;stroke-dasharray:none;stroke-opacity:1" />
    <path
       sodipodi:nodetypes="ccc"
       inkscape:connector-curvature="0"
       id="path4263"
       d="m 279.125,135.37105 c 2.08333,-0.5 5.29167,-1.125 6.25,-4.125 -4.08333,-0.5 -6.91667,-1.75 -10.75,-3.75"
       style="fill:#000000;fill-rule:evenodd;stroke:#a9aaab;stroke-width:1.5;stroke-linecap:round;stroke-linejoin:round;stroke-miterlimit:4;stroke-dasharray:none;stroke-opacity:1" />
    <path
       sodipodi:nodetypes="cscc"
       inkscape:connector-curvature="0"
       id="path4174"
       d="m 270.75,141.49605 c -4.04167,-0.75 -5.82914,-4.40028 -6.5,-8.625 -0.62959,-3.96486 -1,-6 -6,-10.125 6.83333,-3.08333 17.54167,3.33333 20.375,12.75"
       style="fill:#000000;fill-opacity:1;fill-rule:evenodd;stroke:#a9aaab;stroke-width:1.5;stroke-linecap:round;stroke-linejoin:round;stroke-miterlimit:4;stroke-dasharray:none;stroke-opacity:1" />
    <path
       sodipodi:nodetypes="ccscc"
       inkscape:connector-curvature="0"
       id="path4180"
       d="m 445,134.74606 c 0,0 0,0 -14.1875,21.24999 0.8333,6.75 2.29167,8.125 7.375,8.5625 -4.73949,4.32998 -4.8915,6.99972 -4.9375,10.9375 -0.088,7.52884 7.5625,9.95833 3.75,20.375 4.77083,-5.22917 0.54167,-13.83333 7.75,-18.75 6.875,-7.62499 7,-7.74999 7,-7.74999"
       style="fill:#000000;fill-rule:evenodd;stroke:#a9aaab;stroke-width:1.5;stroke-linecap:round;stroke-linejoin:round;stroke-miterlimit:4;stroke-dasharray:none;stroke-opacity:1" />
    <path
       sodipodi:nodetypes="cssccsssc"
       inkscape:connector-curvature="0"
       id="path4183"
       d="m 470.04923,168.21994 c 2.71058,2.74004 4.9954,8.14782 8.30851,13.87697 0.46102,0.79722 0.589,1.84973 0.35356,2.74004 -0.89423,3.38143 -2.38649,8.75045 -4.77298,12.99309 l -1.76776,12.1092 c 1.44368,-0.97227 3.50559,-1.38445 4.33103,-2.91682 5.318,-9.8725 8.20041,-17.80633 15.29118,-26.95844 0.59983,-0.77421 0.41498,-1.93936 0.35355,-2.91682 -0.241,-3.83497 -13.3146,-25.67451 -21.30159,-44.19417"
       style="fill:#000000;fill-rule:evenodd;stroke:#a9aaab;stroke-width:1.5;stroke-linecap:butt;stroke-linejoin:miter;stroke-miterlimit:4;stroke-dasharray:none;stroke-opacity:1" />
    <g
       transform="translate(0,0.07320086)"
       id="g4189">
      <path
         style="fill:#000000;fill-rule:evenodd;stroke:#a9aaab;stroke-width:1.5;stroke-linecap:round;stroke-linejoin:round;stroke-miterlimit:4;stroke-dasharray:none;stroke-opacity:1"
         d="m 394.125,189.23535 c 0,0 0,0 6.9375,17.625 8.59021,2.41042 20.23068,3.7698 32.3125,3.75 12.1875,-17.3125 12.1875,-17.3125 12.1875,-17.3125"
         id="path4187"
         inkscape:connector-curvature="0"
         sodipodi:nodetypes="cc" />
      <path
         style="fill:#000000;fill-rule:evenodd;stroke:#a9aaab;stroke-width:1.5;stroke-linecap:round;stroke-linejoin:round;stroke-miterlimit:4;stroke-dasharray:none;stroke-opacity:1"
         d="m 403.33839,203.93043 c -2.17812,1.74407 -2.72211,3.88279 -3.28662,7.22197 -0.44586,2.6374 -1.60568,5.28347 -3.17677,6.77045 -8.12857,7.69344 -16.57583,11.50881 -22.875,18.125 -0.20833,1.29167 -0.16809,3.36258 -0.84597,4.09597 -1.77029,1.91523 -2.52819,2.74492 -5.49112,4.33709 -0.51384,0.27612 -1.83408,0.36954 -2.41291,0.44194 -0.43165,0.054 -0.88214,0.1428 -1.25,0.375 -2.15406,1.35967 -4.57322,3.52397 -6.94822,5.44064 -1.07813,0.36147 -4.39763,-0.46467 -5.43628,-0.81741 -0.74896,-0.25435 -2.31351,-1.35185 -3.2405,-2.37323 0.41414,-2.072 1.09344,-4.01141 1.64017,-4.89017 4.04167,-2.56564 7.87654,-5.40448 11.85983,-8.35983 1.18685,-0.88057 2.73614,-2.49119 3.94952,-3.71469 L 379.75,209.42285 c 3.95833,-5.625 8.55449,-14.36495 14.125,-22.5 0.49493,-0.72278 1.50027,-1.078 2.375,-1.125 6.94842,-0.37357 13.95312,-0.83755 20.875,-0.125 7.32404,0.75395 18.39437,4.80135 21.625,4.5 3.35862,-0.31329 6.41667,-2.08333 9.625,-3.125 -9.25,18.875 -9.25,18.875 -9.25,18.875"
         id="path4185"
         inkscape:connector-curvature="0"
         sodipodi:nodetypes="cssssccsccscsssscssc" />
    </g>
    <g
       transform="translate(0,0.07320086)"
       id="g4209">
      <path
         style="fill:#000000;fill-rule:evenodd;stroke:#a9aaab;stroke-width:1.5;stroke-linecap:round;stroke-linejoin:round;stroke-miterlimit:4;stroke-dasharray:none;stroke-opacity:1"
         d="m 434.26266,122.55889 c -2.17846,-1.07138 -3.97007,-1.83121 -6.84787,-2.9954 -0.71402,-0.28885 -0.7097,-2.07732 -1.23744,-3.3007 -0.13203,-0.30607 -0.50531,-0.67132 -0.88389,-1.06065 -1.27152,0.77304 -2.46965,1.65493 -3.15072,1.59098 -1.53357,-0.144 -0.68914,-5.26937 -1.23744,-7.86656 -0.57274,-2.71299 -1.96698,-7.06868 -2.02757,-8.26209 -0.0827,-1.629012 0.80552,-4.778181 1.72135,-6.789816 18.77591,-8.826791 18.90091,-9.076791 18.90091,-9.076791 16.75,15.624997 16.75,15.624997 16.75,15.624997 0.375,5.5 0.375,5.5 0.375,5.5 l 0,0 0,0 c 5,10.125 5,10.125 5,10.125 0.625,5 0.625,5 0.625,5"
         id="path4198"
         inkscape:connector-curvature="0"
         sodipodi:nodetypes="csccsssc" />
      <path
         style="fill:none;fill-rule:evenodd;stroke:#a9aaab;stroke-width:1.5;stroke-linecap:round;stroke-linejoin:round;stroke-miterlimit:4;stroke-dasharray:none;stroke-opacity:1"
         d="m 434.25194,122.53837 c -2.20971,-3.38822 0.20993,-6.07046 3.62393,-8.92722 2.61549,-2.18859 5.15019,-4.32771 3.09359,-8.92723"
         id="path4190"
         inkscape:connector-curvature="0"
         sodipodi:nodetypes="csc" />
      <path
         style="fill:#000000;fill-rule:evenodd;stroke:#a9aaab;stroke-width:1.5;stroke-linecap:round;stroke-linejoin:round;stroke-miterlimit:4;stroke-dasharray:none;stroke-opacity:1"
         d="m 429.39058,98.231571 c -7.24784,-1.502602 -10.34143,-5.126524 -10.34143,-6.894291 0.0585,-1.017151 1.6596,-3.221819 4.76521,-4.875927 4.72065,-2.514311 11.87491,-4.45155 14.14989,-4.493238 5.48727,-0.100552 13.24889,7.07109 16.32022,12.394236 1.35151,2.342402 2.49067,4.592509 2.94844,6.609259 0.22211,0.97858 0.2357,2.09186 0.17678,3.09359"
         id="path4194"
         inkscape:connector-curvature="0"
         sodipodi:nodetypes="ccssssc" />
      <path
         style="fill:#000000;fill-rule:evenodd;stroke:#a9aaab;stroke-width:1.5;stroke-linecap:round;stroke-linejoin:round;stroke-miterlimit:4;stroke-dasharray:none;stroke-opacity:1"
         d="m 452.97419,98.377098 c 1.71282,3.275962 3.01933,3.924152 4.76723,5.999542 3.32934,3.95314 5.65619,6.32382 4.76826,15.61623 C 462,125.42285 462,125.42285 462,125.42285 c -8.9375,0.3125 -9,0.375 -9,0.375"
         id="path4188"
         inkscape:connector-curvature="0"
         sodipodi:nodetypes="csc" />
      <path
         style="fill:none;fill-rule:evenodd;stroke:#a9aaab;stroke-width:1.5;stroke-linecap:round;stroke-linejoin:round;stroke-miterlimit:4;stroke-dasharray:none;stroke-opacity:1"
         d="m 427.44604,94.961202 c 1.88562,1.060661 2.38849,2.480345 3.18198,5.391688 1.15706,4.24536 5.17674,5.14326 9.01561,7.42462 0.74491,0.44269 1.5026,2.12132 1.5026,2.12132"
         id="path4192"
         inkscape:connector-curvature="0"
         sodipodi:nodetypes="cssc" />
      <ellipse
         style="color:#000000;clip-rule:nonzero;display:inline;overflow:visible;visibility:visible;opacity:1;isolation:auto;mix-blend-mode:normal;color-interpolation:sRGB;color-interpolation-filters:linearRGB;solid-color:#000000;solid-opacity:1;fill:#a9aaab;fill-opacity:1;fill-rule:nonzero;stroke:none;stroke-width:1.5;stroke-linecap:round;stroke-linejoin:round;stroke-miterlimit:4;stroke-dasharray:none;stroke-dashoffset:0;stroke-opacity:1;color-rendering:auto;image-rendering:auto;shape-rendering:auto;text-rendering:auto;enable-background:accumulate"
         id="path4196"
         cx="424.30826"
         cy="106.27491"
         rx="1.3700193"
         ry="0.70710677" />
    </g>
    <path
       sodipodi:nodetypes="cccssscccsscscssssccsssscccsscssscsc"
       inkscape:connector-curvature="0"
       id="path4265"
       d="m 443.875,141.62105 c -16.375,23.58333 -26.00331,31.08316 -55.125,49.75 -0.78309,0.50195 -2.58333,0.41665 -4.3125,0.40625 -2,-0.83333 -3.1722,-1.93205 -5.9375,-1.90625 -1.72645,0.0161 -5.0518,0.9996 -5.125,3 -0.0518,1.41633 0.4167,2.95833 0.375,4.375 -3.28949,-0.94418 -3.43839,-5.70894 -2.6875,-8.96875 4.70788,-2.76929 8.79745,-2.89932 12.5625,-3.03125 12.66373,-11.68887 21.5,-19.29167 27,-25.375 5.50156,-6.08506 8.25637,-14.18164 12.625,-21.125 3.53868,-5.62426 6.69102,-10.29911 11,-16.625 1.16461,-1.70973 3.43379,-2.77366 5.5,-2.875 2.55504,-0.12531 9.4375,0 9.4375,0 1.72917,-3.16667 3.83333,-8.45833 3.3125,-10.875 6.52739,11.43489 13.20451,12.06087 18.52151,21.04641 2.74933,4.64627 4.65612,12.95984 4.86135,16.61701 0.65493,11.67083 -6.02852,22.95479 -6.09879,32.08497 -0.0949,12.32738 7.07671,15.92303 6.8059,24.39518 -0.37755,11.81163 -12.55114,16.49916 -18.56155,16.52862 -4.41942,5.12652 -7.77817,10.96015 -11.66726,16.44023 7.07107,3.71231 8.86389,15.54076 9.01561,23.33453 0.11584,5.95035 1.34742,11.96625 3.53553,17.50089 1.40611,3.55663 4.80197,5.96214 6.98268,9.104 1.4249,2.05293 1.10656,4.82362 -0.0884,6.71752 -1.46324,2.3191 -4.9792,3.65338 -6.76169,4.59619 -1.87089,2.85789 -3.91855,5.539 -5.78944,8.39689 l -9.01561,4.33103 c -0.14732,-1.2669 -0.60952,-2.53632 -0.44195,-3.8007 0.16676,-1.25829 0.81766,-2.41516 1.41422,-3.53553 1.82407,-3.42568 3.88909,-6.71751 5.83363,-10.07627 -2.41595,-8.10227 -3.63228,-16.66408 -7.24785,-24.3068 -7.0228,-14.84503 -21.99238,-32.32194 -21.65514,-38.09538 0.40732,-6.97318 6.41112,-15.01013 12.28598,-23.77647 6.16554,-9.20008 11.78327,-15.49188 11.66726,-19.35704 0.10646,-1.07791 -1.26658,-5.97447 -4.3793,-9.95861 -4.9649,-6.35485 -7.38861,-10.17177 -6.58085,-16.82306"
       style="fill:#000000;fill-rule:evenodd;stroke:#a9aaab;stroke-width:1.5;stroke-linecap:round;stroke-linejoin:round;stroke-miterlimit:4;stroke-dasharray:none;stroke-opacity:1" />
    <path
       sodipodi:nodetypes="csc"
       inkscape:connector-curvature="0"
       id="path4269"
       d="m 457.94003,130.65489 c 3.15252,7.27731 3.77218,14.47573 3.35876,21.03643 -0.39145,6.21214 1.56153,11.37264 3.27037,18.38478"
       style="fill:none;fill-rule:evenodd;stroke:#a9aaab;stroke-width:1.5;stroke-linecap:round;stroke-linejoin:round;stroke-miterlimit:4;stroke-dasharray:none;stroke-opacity:1" />
    <path
       sodipodi:nodetypes="ccc"
       inkscape:connector-curvature="0"
       id="path4223"
       d="m 618,329.87105 c 3.30599,-2.32149 5.19286,-3.45356 7.25,-7.125 -2.99888,1.93277 -9.97613,0.95769 -14.5,-3.125"
       style="fill:#000000;fill-rule:evenodd;stroke:#a9aaab;stroke-width:1.5;stroke-linecap:round;stroke-linejoin:round;stroke-miterlimit:4;stroke-dasharray:none;stroke-opacity:1" />
    <path
       sodipodi:nodetypes="ccc"
       inkscape:connector-curvature="0"
       id="path4225"
       d="m 600.125,308.87105 c 2.39247,4.50122 9.64686,9.71498 14.125,9.25 -1.29167,2.5 -4.33333,3.375 -9.375,3.75"
       style="fill:#000000;fill-rule:evenodd;stroke:#a9aaab;stroke-width:1.5;stroke-linecap:round;stroke-linejoin:round;stroke-miterlimit:4;stroke-dasharray:none;stroke-opacity:1" />
    <path
       sodipodi:nodetypes="ccc"
       inkscape:connector-curvature="0"
       id="path4227"
       d="m 601.09797,296.73167 c 0.54167,5 1.11036,7.13938 7.40203,9.88938 -1.03074,2.42963 -6.11272,3.72804 -10.625,1.875"
       style="fill:#000000;fill-rule:evenodd;stroke:#a9aaab;stroke-width:1.5;stroke-linecap:round;stroke-linejoin:round;stroke-miterlimit:4;stroke-dasharray:none;stroke-opacity:1" />
  </g>
</svg>
