<?xml version="1.0" encoding="UTF-8"?>
<!-- Created with Inkscape (http://www.inkscape.org/) -->
<svg id="svg2" width="2e3" height="1200" version="1.1" xmlns="http://www.w3.org/2000/svg" xmlns:cc="http://creativecommons.org/ns#" xmlns:dc="http://purl.org/dc/elements/1.1/" xmlns:rdf="http://www.w3.org/1999/02/22-rdf-syntax-ns#">
 <metadata id="metadata7">
  <rdf:RDF>
   <cc:Work rdf:about="">
    <dc:format>image/svg+xml</dc:format>
    <dc:type rdf:resource="http://purl.org/dc/dcmitype/StillImage"/>
   </cc:Work>
  </rdf:RDF>
 </metadata>
 <g id="layer1" transform="translate(291.98932,621.50604)">
  <rect id="rect3013" transform="scale(1,-1)" x="-291.98932" y="-578.49396" width="1999.9928" height="1200" color="#000000" fill="#ffffff"/>
  <path id="path3325" d="m-291.98211-621.49816v125.92863c55.39897-11.9843 71.02773-39.2497 109.39024-68.05091 0.10429-0.072 0.20861-0.148 0.31282-0.21912 53.08564-36.45796 94.26422-14.57078 134.884394 21.47329v-0.68865c0.260129 0.23169 0.52198 0.45616 0.782029 0.68865 32.643747 29.17012 58.11851 47.03695 85.991933 46.85935 24.594105-0.15671 51.080867-14.36524 85.960654-47.20367v0.34432c1.81748-1.86301 3.59354-3.6605 5.38036-5.38397 55.44001-50.73396 97.9642-39.35935 138.41917-8.35768 5.41483 4.33021 10.75898 8.96008 16.1098 13.74165 61.44705 54.90855 97.54228 69.71094 171.95258-0.34432v0.34432c1.81741-1.86301 3.62493-3.6605 5.41165-5.38397 54.99831-50.32959 97.25241-39.55077 137.41817-9.10894 0.01 8e-3 0.0213 0.0213 0.0312 0.0313 0.10136 0.077 0.21128 0.14198 0.31281 0.21911 5.62131 4.46895 11.18439 9.28202 16.73543 14.24249 61.40828 54.8739 97.48078 69.68504 171.79623-0.21912v0.21912c1.06706-1.09402 2.13412-2.17858 3.19068-3.22412 54.87717-51.61182 97.12657-42.5687 137.04264-13.30343 6.62441 5.10762 13.18895 10.70274 19.70724 16.52755 30.06896 26.86971 54.03948 44.12703 79.42288 46.54633v0.18781c0.7592 0.0427 1.5209 0.078 2.2836 0.0939 0.9371 0.0197 1.8726-0.0103 2.8152-0.0313 24.9421 0.40693 51.6911-13.56657 87.1182-46.85934v0.0626c0.3318-0.34047 0.6388-0.66601 0.9695-1.00167 0.4102-0.38795 0.839-0.76533 1.2513-1.15818 27.9529-26.63006 52.609-37.562 75.3565-38.06344 0.301 4e-3 0.6063-7e-3 0.9072 0 28.5991 0.67932 54.2228 17.69574 79.6105 40.22329v-0.68865c0.2602 0.23169 0.5222 0.45616 0.7819 0.68865 31.8304 28.443 56.8283 46.12816 83.8962 46.82805 1.0002 0.0421 1.9965 0.0673 3.003 0.0626 1.8554-9e-3 3.7506-0.11105 5.6306-0.28172v-0.15651c22.7703-2.43733 47.5909-16.85724 79.3915-46.79674v0.34432c1.8177-1.86301 3.6248-3.6605 5.4118-5.38397 55.44-50.73396 97.9328-39.35935 138.3879-8.35768 5.4148 4.33021 10.7591 8.96008 16.1096 13.74165 36.8051 32.88852 64.5197 51.36303 96.8154 45.85768v-124.98956h-1999.99286zm165.25841 228.03631c-0.94967-0.0159-1.91987 8e-3 -2.87787 0.0313-16.05777 0.39193-33.31279 6.39045-52.30211 20.37771-0.0792 0.0583-0.13959 0.12931-0.21897 0.18781-0.0511 0.0349-0.10543 0.059-0.1564 0.0939-7.58369 5.20828-15.39031 11.62624-23.49216 19.34474-35.04419 33.38596-61.62621 48.17759-86.2109 48.95659v143.80217c55.39902-11.98422 71.02767-39.24985 109.39024-68.05091 0.1042-0.072 0.20861-0.1476 0.31282-0.21912 53.08555-36.45799 94.26422-14.57066 134.884394 21.47329v-0.68865c0.260129 0.23167 0.5219 0.45625 0.782029 0.68865 32.643657 29.17022 58.11851 47.03695 85.991933 46.85935 24.594196-0.15671 51.080787-14.36524 85.960654-47.20367v0.34432c1.81739-1.86293 3.59363-3.66037 5.38036-5.38397 55.44009-50.73383 97.96429-39.35935 138.41917-8.35768 5.41491 4.33028 10.7589 8.96016 16.1098 13.74165 61.44697 54.90864 97.54221 69.71093 171.95258-0.34432v0.34432c1.81741-1.86293 3.62493-3.66037 5.41165-5.38397 54.99831-50.32955 97.25241-39.55072 137.41817-9.10894 0.01 8e-3 0.0213 0.0233 0.0312 0.0313 0.10136 0.0769 0.21128 0.14188 0.31281 0.21911 5.62131 4.46889 11.18439 9.28211 16.73543 14.24249 61.40828 54.87404 97.48078 69.68503 171.79623-0.21912v0.21912c1.06706-1.09383 2.13412-2.17856 3.19068-3.22412 54.87717-51.61186 97.12657-42.56846 137.04264-13.30343 6.62441 5.10771 13.18895 10.70295 19.70724 16.52755 30.06896 26.86973 54.03948 44.12704 79.42288 46.54633v0.18781c0.7591 0.0427 1.5209 0.0778 2.2836 0.0939 0.9371 0.0197 1.8726-0.0102 2.8152-0.0313 24.9421 0.40692 51.6911-13.5666 87.1182-46.85935v0.0626c0.3318-0.34034 0.6388-0.66602 0.9695-1.00167 0.4102-0.3877 0.839-0.76536 1.2513-1.15818 27.9529-26.63006 52.609-37.56199 75.3565-38.06344 0.301 4e-3 0.6063-7e-3 0.9072 0 28.5991 0.67935 54.2228 17.69582 79.6105 40.22329v-0.68865c0.2602 0.23167 0.5221 0.45625 0.7819 0.68865 31.8303 28.4431 56.8283 46.12817 83.8962 46.82805 1.0002 0.0421 1.9965 0.0673 3.003 0.0626 1.8554-9e-3 3.7506-0.11105 5.6306-0.28172v-0.15651c22.7705-2.43733 47.5909-16.85724 79.3915-46.79674v0.34432c1.8177-1.86293 3.6249-3.66037 5.4118-5.38397 55.4401-50.73383 97.9328-39.35935 138.3879-8.35768 5.4148 4.33028 10.7589 8.96016 16.1096 13.74165 36.8049 32.88858 64.5196 51.36304 96.8154 45.85768v-143.77087c-32.1769 5.47973-59.7915-12.87184-96.3772-45.51336v-0.40692c-5.1904-4.60534-10.4085-8.93949-15.6406-12.9904-39.3733-31.76127-81.2655-48.1186-138.9511 7.2934-1.2709 1.15829-2.5314 2.34429-3.8162 3.56845-34.3132 32.68924-60.5296 47.55577-84.6782 48.89399-0.274 0.0152-0.5397 0.0197-0.8133 0.0312-28.1912 0.75191-53.807-16.8965-86.6177-46.1394v-0.65734c-7.663-6.80005-15.3363-13.06667-23.1166-18.56219-17.9655-13.42678-36.6315-23.01673-57.182-23.53923-0.083-3e-3 -0.1673 3e-3 -0.2502 0-1.3928-0.0503-2.781-0.0659-4.1917-0.0312-16.0577 0.39193-33.313 6.39045-52.3021 20.37771-0.079 0.0583-0.1709 0.12931-0.2503 0.18781-0.051 0.0349-0.1058 0.059-0.1563 0.0939-7.584 5.20828-15.3904 11.62623-23.4922 19.34474-35.1638 33.49965-61.8079 48.27069-86.4612 48.95659-27.2739-0.31204-52.3737-17.85332-84.30292-46.32721v-0.50083c-6.59377-5.85122-13.19074-11.29853-19.86339-16.21453-38.81407-30.05423-80.4932-43.42605-137.57458 13.14691-0.33183 0.31239-0.66847 0.62224-1.001 0.93907-75.55188 71.97675-111.70457 57.57381-173.42285 2.50417v-0.37562c-5.39503-4.78723-10.8243-9.27572-16.2662-13.45994-39.20004-31.44563-80.93071-47.36996-138.32533 7.76294-1.27123 1.15829-2.53136 2.34429-3.8163 3.56845-75.53956 71.96521-111.75393 57.58324-173.45408 2.53547v-0.40692c-5.19005-4.60534-10.40817-8.93949-15.64059-12.9904-39.37292-31.76127-81.26569-48.1186-138.95095 7.2934-1.27123 1.15829-2.56265 2.34429-3.84758 3.56845-75.724904 72.14178-111.883322 57.51121-173.860737 2.12855-25.188167-22.50796-50.671409-41.66991-80.111073-42.16403zm0 332.804678c-0.94967-0.01593-1.91987 8e-3 -2.87787 0.03125-16.05777 0.391933-33.31279 6.390451-52.30211 20.377713-0.0792 0.0583-0.13959 0.129316-0.21897 0.187813-0.0511 0.03496-0.10543 0.059-0.1564 0.09386-7.58369 5.20828-15.39031 11.626237-23.49216 19.344741-35.04419 33.385963-61.62627 48.177586-86.2109 48.956594v143.802171c55.39888-11.98439 71.02779-39.24963 109.39024-68.05092 0.10429-0.072 0.20861-0.1476 0.31282-0.21912 53.08564-36.457988 94.26422-14.570659 134.884394 21.47329v-0.68864c0.260129 0.23166 0.52198 0.45625 0.782029 0.68864 32.643747 29.17021 58.11851 47.03696 85.991933 46.85935 24.594105-0.15671 51.080867-14.36525 85.960654-47.20367v0.34432c1.81748-1.86292 3.59354-3.66037 5.38036-5.38397 55.44001-50.733826 97.9642-39.359348 138.41917-8.35768 5.41483 4.33029 10.75898 8.96016 16.1098 13.74165 61.44705 54.90864 97.54228 69.71098 171.95258-0.34432v0.34432c1.81741-1.86292 3.62493-3.66037 5.41165-5.38397 54.99831-50.329542 97.25241-39.550717 137.41817-9.10893 0.01 8e-3 0.0213 0.0236 0.0312 0.0312 0.10136 0.0769 0.21128 0.14189 0.31281 0.21912 5.62131 4.46888 11.18439 9.28211 16.73543 14.24248 61.40828 54.87403 97.48078 69.68513 171.79623-0.21911v0.21911c1.06706-1.09383 2.13412-2.17856 3.19068-3.22412 54.87717-51.61186 97.12657-42.568457 137.04264-13.30342 6.62441 5.1077 13.18895 10.70295 19.70724 16.52754 30.06896 26.86973 54.03948 44.12705 79.42288 46.54633v0.18781c0.7591 0.0428 1.5209 0.0777 2.2836 0.0939 0.9371 0.0197 1.8726-0.0101 2.8152-0.0312 24.9421 0.40692 51.6911-13.56661 87.1182-46.85935v0.0626c0.3318-0.34033 0.6388-0.66602 0.9695-1.00167 0.4102-0.38769 0.839-0.76535 1.2513-1.15818 27.9529-26.630059 52.609-37.561989 75.3565-38.063435 0.301 4e-3 0.6063-7e-3 0.9072 0 28.5991 0.679352 54.2228 17.695815 79.6105 40.223285v-0.68864c0.2602 0.23166 0.5222 0.45625 0.7819 0.68864 31.8304 28.4431 56.8283 46.12817 83.8962 46.82805 1.0002 0.0421 1.9965 0.0673 3.003 0.0626 1.8554-9e-3 3.7506-0.11105 5.6306-0.28171v-0.15652c22.7703-2.43733 47.5909-16.85724 79.3915-46.79674v0.34432c1.8177-1.86292 3.6248-3.66037 5.4118-5.38397 55.44-50.733826 97.9328-39.359349 138.3879-8.35768 5.4148 4.33029 10.7591 8.96016 16.1096 13.74165 36.8051 32.88858 64.5197 51.36305 96.8154 45.85768v-143.770905c-32.1769 5.479733-59.7915-12.871843-96.3772-45.513356v-0.406928c-5.1904-4.605335-10.4083-8.939489-15.6406-12.9904-39.3733-31.761266-81.2655-48.118608-138.9511 7.293405-1.2709 1.158291-2.5314 2.344287-3.8162 3.568448-34.3132 32.689242-60.5297 47.555769-84.6782 48.89399-0.274 0.01523-0.5397 0.01963-0.8133 0.03125-28.1912 0.751913-53.807-16.896501-86.6177-46.139399v-0.657346c-7.663-6.800043-15.3363-13.066668-23.1166-18.562187-17.9655-13.426778-36.6315-23.016731-57.182-23.539232-0.083-3e-3 -0.1673 3e-3 -0.2502 0-1.3928-0.05028-2.781-0.06581-4.1917-0.03125-16.0577 0.391933-33.313 6.390451-52.3021 20.377713-0.079 0.0583-0.1709 0.129315-0.2503 0.187813-0.051 0.03496-0.1058 0.059-0.1563 0.09386-7.584 5.208281-15.3904 11.626237-23.4922 19.344742-35.1638 33.499652-61.808 48.270691-86.4612 48.956594-27.2739-0.31204-52.3737-17.853326-84.30292-46.327212v-0.500835c-6.59377-5.851212-13.19074-11.298531-19.86339-16.214524-38.81407-30.05423-80.4933-43.426067-137.57458 13.146911-0.33183 0.312391-0.66847 0.622238-1.001 0.939066-75.55188 71.976751-111.70464 57.573806-173.42285 2.504173v-0.375626c-5.39511-4.787229-10.82439-9.275719-16.2662-13.459933-39.20004-31.445629-80.93063-47.36997-138.32533 7.762938-1.27123 1.158291-2.53136 2.344287-3.8163 3.568448-75.53962 71.965212-111.75393 57.583242-173.45408 2.535475v-0.406928c-5.19005-4.605335-10.40808-8.939489-15.64059-12.990401-39.37292-31.761265-81.26578-48.118607-138.95095 7.293406-1.27123 1.158291-2.56265 2.344287-3.84758 3.568448-75.724904 72.141776-111.883232 57.511212-173.860737 2.128547-25.188117-22.507953-50.671409-41.66991-80.111073-42.164023zm0 329.987482c-0.94967-0.0159-1.91987 8e-3 -2.87787 0.0312-16.05777 0.39193-33.31279 6.39045-52.30211 20.37771-0.0792 0.0583-0.13959 0.12932-0.21897 0.18782-0.0511 0.0349-0.10543 0.059-0.1564 0.0938-7.58369 5.20828-15.39031 11.62624-23.49216 19.34474-35.04419 33.38597-61.62627 48.17758-86.2109 48.9566v143.80222c55.39921-11.98378 71.0273-39.25022 109.39024-68.05082 0.10429-0.0721 0.20861-0.14755 0.31282-0.21917 53.08564-36.45796 94.26422-14.57068 134.884394 21.47329v-0.68864c0.260129 0.23168 0.52198 0.45616 0.782029 0.68864 32.643747 29.17012 58.11851 47.0368 85.991933 46.8594 24.594105-0.15706 51.080867-14.36544 85.960654-47.20367v0.34427c1.81748-1.863 3.59354-3.6604 5.38036-5.38397 55.44001-50.73386 97.9642-39.3596 138.41917-8.35763 5.41483 4.33012 10.75898 8.96003 16.1098 13.7416 61.44705 54.90862 97.54228 69.71089 171.95258-0.34427v0.34427c1.81741-1.863 3.62493-3.6604 5.41165-5.38397 54.99831-50.32958 97.25241-39.55092 137.41817-9.10888 0.01 0.01 0.0213 0.023 0.0312 0.031 0.10136 0.0771 0.21128 0.14184 0.31281 0.21917 5.62131 4.46844 11.18439 9.28197 16.73543 14.24243 61.40828 54.87396 97.48078 69.68504 171.79623-0.21906v0.21906c1.06706-1.09392 2.13412-2.17873 3.19068-3.22407 54.87717-51.61212 97.12657-42.56855 137.04264-13.30347 6.62441 5.10761 13.18895 10.70293 19.70724 16.52754 30.06896 26.86969 54.03948 44.12735 79.42288 46.54628v0.18791c0.7591 0.0421 1.5209 0.0781 2.2836 0.0942 0.9371 0.02 1.8726-0.01 2.8152-0.031 24.9421 0.40718 51.6911-13.56651 87.1182-46.8593v0.0621c0.3318-0.34036 0.6388-0.66611 0.9695-1.00167 0.4102-0.38774 0.839-0.76517 1.2513-1.15823 27.9529-26.62968 52.609-37.5616 75.3565-38.06344 0.301 0 0.6063-0.01 0.9072 0 28.5991 0.67964 54.2228 17.6959 79.6105 40.22334v-0.68865c0.2602 0.23169 0.5222 0.45617 0.7819 0.68865 31.8304 28.44301 56.8283 46.12818 83.8962 46.82805 1.0002 0.0421 1.9965 0.0681 3.003 0.0621 1.8554-0.01 3.7506-0.11128 5.6306-0.28167v-0.15656c22.7703-2.43726 47.5909-16.85739 79.3915-46.79669v0.34427c1.8177-1.863 3.6248-3.6604 5.4118-5.38397 55.44-50.73386 97.9328-39.3595 138.3879-8.35763 5.4148 4.33012 10.7591 8.96003 16.1096 13.7416 36.8051 32.88862 64.5197 51.36301 96.8154 45.85773v-143.77096c-32.1769 5.47974-59.7915-12.87186-96.3772-45.51335v-0.40693c-5.1904-4.60534-10.4083-8.93949-15.6406-12.9904-39.3733-31.76127-81.2655-48.1186-138.9511 7.2934-1.2709 1.15829-2.5314 2.34429-3.8162 3.56845-34.3132 32.68922-60.5296 47.55586-84.6782 48.89399-0.274 0.015-0.5397 0.0203-0.8133 0.0312-28.1912 0.75196-53.807-16.8965-86.6177-46.1394v-0.65734c-7.663-6.80004-15.3363-13.06667-23.1166-18.56219-17.9655-13.42678-36.6315-23.01673-57.182-23.53923-0.083-3e-3 -0.1673 3e-3 -0.2502 0-1.3928-0.0503-2.781-0.0658-4.1917-0.0312-16.0577 0.39193-33.313 6.39045-52.3021 20.37771-0.079 0.0583-0.1709 0.12932-0.2503 0.18781-0.051 0.035-0.1058 0.059-0.1563 0.0939-7.584 5.20828-15.3904 11.62624-23.4922 19.34474-35.1638 33.49965-61.808 48.27065-86.4612 48.9566-27.2739-0.31212-52.3737-17.85333-84.30292-46.32722v-0.50083c-6.59377-5.85121-13.19074-11.29853-19.86339-16.21452-38.81407-30.05424-80.4933-43.42606-137.57458 13.14691-0.33183 0.31239-0.66847 0.62223-1.001 0.93906-75.55188 71.97686-111.70464 57.57381-173.42285 2.50418v-0.37563c-5.39511-4.78723-10.82439-9.27572-16.2662-13.45993-39.20004-31.44563-80.93063-47.36996-138.32533 7.76293-1.27123 1.15829-2.53136 2.34429-3.8163 3.56845-75.5396 71.96605-111.75388 57.58398-173.45403 2.53623v-0.40693c-5.19005-4.60533-10.40808-8.93949-15.64059-12.9904-39.37292-31.76127-81.26578-48.1186-138.95095 7.29341-1.27123 1.15829-2.56265 2.34428-3.84758 3.56844-75.724854 72.14279-111.883232 57.51121-173.860737 2.12855-25.188117-22.50795-50.671409-41.66991-80.111073-42.16402z" color="#000000" fill="#005eb8"/>
  <g id="g3252" transform="matrix(1.0009974 0 0 1.0016694 .29122851 1.0375727)">
   <g>
    <path id="path3061" d="m355.04696-417.35433h694.19184v387.338945c-2.9287 202.359825-252.54417 369.750715-345.08377 391.363245-136.89999-39.11041-340.70772-240.76802-345.08377-391.363245z" color="#000000" fill="#ffcd00" stroke="#000000" stroke-width="8"/>
    <path id="path3231" transform="translate(-297.85712,-632.65442)" d="m904.72292 657.15833c-22.39046 2.40294-46.4925 1.19616-67.43165-6.38597-9.20063-3.40777-15.1453-11.18576-22.87054-1.80473-2.95098 3.58348-7.97823 5.94164-11.59144 8.78071-23.0113 18.08103-51.53358 28.40262-73.08856 47.99885-2.92732 2.66131-14.67712 9.52897-15.47839 13.53546-0.10061 0.50307 8.69507 0.63248 8.97999 0.63248 5.32745 0 7.62727 2.59399 13.11957 2.59399 19.21188 0 9.86006-3.50966 18.22755-17.45606 9.43268-9.58225 13.72844-5.1663 19.26123-6.5942 6.72309-1.83365 16.76034-6.76518 21.44764-12.39016 6.53684-5.89847 17.24606-17.42814 23.91169-20.06026 16.44862 6.72877 42.02033 12.55301 64.32501 16.6427 15.51192 2.8442 33.23639 14.42279 35.34751 12.19826 7.86472-12.4593-10.01784-26.56257-14.15961-37.69107z" color="#000000" fill="#944c00" stroke="#000000" stroke-linecap="round" stroke-linejoin="round" stroke-width="4"/>
    <path id="path3237" transform="translate(-297.85712,-632.65442)" d="m820.96875 656c-24.53918 20.43896-47.19296 33.67395-76.3125 45.5-1.35976 0.6799-3.54992 0.0129-4.375-0.8125-1.12307-1.12313-3.29221-0.43287-4.875 0.25-1.93236 1.54722-3.81754 3.14088-5.65625 4.8125-2.92732 2.66131-14.69873 9.52476-15.5 13.53125-0.10061 0.50307 8.71508 0.625 9 0.625 5.32745 0 7.6327 2.59375 13.125 2.59375 19.21188 0 9.85126-3.4911 18.21875-17.4375 9.43268-9.58225 13.71721-5.16585 19.25-6.59375 6.72309-1.83365 16.78145-6.78127 21.46875-12.40625 6.53684-5.89847 17.24062-17.43038 23.90625-20.0625 16.44862 6.72877 42.00782 12.56656 64.3125 16.65625 15.51192 2.8442 33.23263 14.41203 35.34375 12.1875 3.5241-5.58289 1.85624-11.48499-1.40625-17.3125-0.16883-0.0497-0.33266-0.10168-0.5-0.15625-27.7419-5.22471-64.90463-18.39106-96-21.375z" color="#000000" fill="#4e0400"/>
   </g>
   <path id="path3250" transform="translate(-297.85712,-632.65442)" d="m904.72292 657.15833c-22.39046 2.40294-46.4925 1.19616-67.43165-6.38597-9.20063-3.40777-15.1453-11.18576-22.87054-1.80473-2.95098 3.58348-7.97823 5.94164-11.59144 8.78071-23.0113 18.08103-51.53358 28.40262-73.08856 47.99885-2.92732 2.66131-14.67712 9.52897-15.47839 13.53546-0.10061 0.50307 8.69507 0.63248 8.97999 0.63248 5.32745 0 7.62727 2.59399 13.11957 2.59399 19.21188 0 9.86006-3.50966 18.22755-17.45606 9.43268-9.58225 13.72844-5.1663 19.26123-6.5942 6.72309-1.83365 16.76034-6.76518 21.44764-12.39016 6.53684-5.89847 17.24606-17.42814 23.91169-20.06026 16.44862 6.72877 42.02033 12.55301 64.32501 16.6427 15.51192 2.8442 33.23639 14.42279 35.34751 12.19826 7.86472-12.4593-10.01784-26.56257-14.15961-37.69107z" color="#000000" fill="none" stroke="#000000" stroke-linecap="round" stroke-linejoin="round" stroke-width="4"/>
   <g>
    <path id="path3107" transform="translate(-297.85712,-632.65442)" d="m998.65625 425.3125c-5.10578 0.0344-13.30891 11.80548-15.125 13.9375-12.86649 15.10476-20.87357 28.09727-40.1875 36.375-4.66667 2.00008-8.15038 10.83222-12.96875 13.9375-20.82091 40.68693-31.52944 96.86247-36.875 126.5-4.52636 4.52654-8.68951 6.11865-5.96875 14.28125 2.61686 7.85092 10.23548 9.98738 12.78125 17.625 6.54688 19.64144-6.50826 21.74094 13.125 41.375 0.69158 0.69161 1.36191 1.74956 2.15625 2.90625-17.42866 2.72594-44.42073 5.1963-32.46875 23.125 15.767 23.65147 35.78768 2.36646 55.3125 8.875 8.28525 2.76186 15.39015 3.81867 23.53125 4.71875 16.04168 1.77356 54.89445 2.96236 59.81245-4.78125 0.3252-0.51185-20.3387-16.93589-21.99995-16.4375-1.8211 0.54635-17.2851 12.16651-25.55515 6.94441 0.88925-0.26622 2.96259-1.30867 3.8989-1.81941 3.88597-2.1197 7.73876-4.73863 10.90625-7.90625 0.55477-0.55479 1.14605-1.10346 1.71875-1.65625 18.8485 2.21629 53.7354 2.58905 66.2812 2.6875 9.6537 0.76147 9.1003-0.61832 13.9063-0.1875-11.0194 5.56334-16.2813 14.0625-16.2813 14.0625s11.9422 5.78217 19.625 7.0625c-1.3688 5.70013 2.4385 5.60515 10.7188 8.5625 18.4385 6.58546 20.3271-6.53685 32.9688-11.59375 2.9416-1.17667 14.0298 4.50525 17.5624 5.46875 10.3816 2.83144 24.9991-0.46875 36.25-0.46875 26.6386-1.24585 41.7965 2.31876 69.75-1.3125 6.7076-0.87134 19.1368-4.16778 23.6563-8.6875 14.6853-14.6859 13.1508-56.61607 8.625-75.625-2.0589-8.64807-18.6875-41.7426-18.6875-43.21875 21.6468 19.91977 15.8992 59.24043 34.0312 76.34375 1.8206 1.61827 14.4129 12.77105 15.0626 8.46875 0.2297-1.52098-4.9071-20.29108-5.4376-25.65625-0.8712-8.81113-2.9006-21.24562-5.6104-29.83376-11.7948-37.38083-35.678-55.47183-77.1083-67.00999-16.8209-4.68456-26.0283-4.88077-43.5046-5.23531-46.2626-0.93852-93.2477 8.60543-125.4017 7.79781-17.9984-13.17099-28.178-11.42834-44.5312-15.34375-4.50338-40.74058 26.6218-103.31766-2.5-123.90625-0.45165-0.27101-0.94057-0.37856-1.46875-0.375z" color="#000000" fill="#944c00" stroke="#000000" stroke-linecap="round" stroke-linejoin="round" stroke-width="4"/>
    <path id="path3207" transform="translate(-297.85712,-632.65442)" d="m1274.8125 667.09375c-3.7544 0.15905-5.3274 6.96703-6.6875 9.6875-2.0157 4.03149-9.9708 15.99449-11.7986 20.19878-5.5284 12.71576-22.1135 16.62784-34.7599 18.93621-35.4581 9.30367-71.8036 1.28731-103.504 6.20876-3.0078 0.66842-4.8296 3.99044-7.875 4.59375h2.0937c-1.1934 0-0.8169 0.13589-0.062 0.40625 1.6916-1.22117 3.5515-2.33935 5.75-3.21875 2.9416-1.17667 14.0298 4.50525 17.5624 5.46875 10.3816 2.83144 24.9991-0.46875 36.25-0.46875 26.6386-1.24585 41.7965 2.31876 69.75-1.3125 6.7076-0.87134 19.1368-4.16778 23.6563-8.6875 9.868-9.86845 12.3909-32.03026 11.625-51.28125-0.089-0.048-0.157-0.11492-0.25-0.15625-0.6308-0.28038-1.2137-0.39772-1.75-0.375z" color="#000000" fill="#54261c"/>
    <path id="path3188" transform="translate(-297.85712,-632.65442)" d="m1067.4262 706.88583c4.8966-1.3124 9.226-4.2452 13.7425-5.93894 7.6924-2.88479 69.8389-0.68715 82.4056-0.68715 6.1441 0 17.9351-3.51795 23.1658-1.27614 2.5021 1.07235 8.9539-1.96328 8.0982-1.96328-0.6157 0-1.8716-3.70203-2.9938-4.12291-6.5973-2.47405-15.9532-17.44612-20.9947-21.4795-6.143-4.91457-22.7595-0.18171-30.3432-3.5524-7.5725-3.36569-16.2013-4.39807-23.9511-7.16599-6.8885-2.46026-11.5079-6.61167-18.6014-8.63846-20.7591-5.93141-77.224 10.53155-95.9026 20.909-6.66787 3.7045-8.65171 13.57728-16.68729 16.04986-9.83365 3.02586-20.56229 4.74088-30.47879 6.72426-8.16008 4e-3 -40.8667 10.98821-45.30099 15.36272-2.35997 1.87126 24.08197 3.55031 27.92661 5.44812 8.3061 4.10008 12.74414 4.02473 19.33759 4.02473 10.05748 0 18.87295-3.38616 28.76098-0.34357 4.35985 1.34154 5.48782 6.27027 9.03075 8.29488 4.65503 2.66013 22.23394-1.15387 25.66894-3.73024 1.0933-0.82006-6.6712-4.02104-6.9694-4.31923-2.4046-2.40465-10.2953-13.89539-15.60749-11.53431-7.18532 3.1936-11.56848 5.44812-20.22103 5.44812-0.21281 0-2.71771 0.22836-2.50309-0.14725 1.35478-2.37095 6.19467-2.72292 8.14731-4.02473 1.93772-1.29187 3.47382-4.50535 5.98778-5.44812 1.24483-0.46683 0.95321-3.37892 2.89575-2.65044 7.2178 2.7068 26.09587 0.56771 32.78557 2.79768 4.915 1.63842 37.7053 2.89594 42.6015 1.96329z" color="#000000" fill="#4e0400"/>
    <path id="path3212" transform="translate(-297.85712,-632.65442)" d="m947.25 473.8125c-1.25089 0.62719-2.54935 1.23095-3.90625 1.8125-4.66667 2.00008-8.15038 10.83222-12.96875 13.9375-6.73048 13.15229-12.37871 27.93661-17.15625 42.90625 0.65585-0.0671 1.3481-0.15697 2.09375-0.28125 25.61424-4.26922 35.23081-23.18885 45.53125-46.78125 0.20416-4.59365-6.29484-9.23329-13.59375-11.59375z" color="#000000" fill="#4e0400"/>
    <path id="path2999" transform="translate(-297.85712,-632.65442)" d="m871.50726 494.62814c-2.3416 32.22358 45.69692 12.22855 52.12678-3.05416" color="#000000" fill="#673701" stroke="#000000" stroke-linecap="round" stroke-linejoin="round" stroke-width="4"/>
   </g>
   <g id="g3090">
    <path id="path3073" transform="translate(-297.85712,-632.65442)" d="m973.46517 406.81048c-7.25728-23.30399-77.55475-34.26148-95.78557-75.83332 1.23215-1.2322 10.48568-3.57955 14.71488-7.80893 8.6959-8.69625 11.77508-25.0145 13.25728-33.90808-6.071 5.20492-17.67326 28.12841-31.40795 29.22273-0.89737 0.0715-3.54193 2.10076-4.44223 1.45767-6.14059-4.38632-4.54414-42.51305-10.16854-48.13768-2.36168-2.36178-2.48302 8.22916-2.53346 8.88482-0.30971 4.02646 1.81591 36.29532 0.24294 37.34401-19.50478-0.69375-27.07549-18.01514-35.989-24.32914 10.47977 33.63658 32.30791 35.87978 40.36182 39.35698 8.73089 13.09688 16.76259 26.68709 29.15213 36.754 1.7561 1.42689 20.02473 13.82779 20.02473 14.88901 0 5.45174-16.13299 3.3753-19.29593 2.67239-10.01237-2.22506-17.33514-16.64195-18.67125-25.99504-0.22279-1.55959-0.19238-6.30071-1.24937-7.35774-1.94366-1.94374-4.67193 7.93489-4.78928 8.43364-5.08476 21.61112 14.10484 37.81316 35.42535 36.0645 10.57699-1.93389 15.15025-4.76661 21.66856-7.29697 3.72988 1.48019 19.12565 8.17787 21.40861 9.20117 1.40051 1.32275 9.79549 5.92998 7.32274 4.373" color="#000000" fill="#673701" stroke="#000000" stroke-linecap="round" stroke-linejoin="round" stroke-width="4"/>
    <path id="path3077" transform="translate(-297.85712,-632.65442)" d="m867.65625 320.15625c-1.59039 0.18224-4.62283 2.21101-5.90625 2.4375-4.72084 0.83313-8.45739-0.59375-12.875-0.59375-1.9959 0-3.94791 0.3125-5.9375 0.3125-0.93285 0-3.7141 0.0625-2.78125 0.0625 1.52937 0 2.35187 1.75831 4 2.5 4.19694 1.8887 7.27004 3.6168 9.9375 5.53125 3.07945 1.10037 5.73642 1.84087 7.625 2.65625 2.31633 3.47464 4.59391 6.96842 6.90625 10.4375 2.0295 1.23791 4.29634 2.30923 7.03125 4.6875 2.40043 2.08742 3.86755 4.89044 6 7.15625 7.83558 9.40774 18.30117 15.34677 26.15625 22.21875 3.28931 2.90518 3.85357 3.56253 3.09375 7.125-1.0431 4.89066-13.46905 3.70359-18.15625 2.90625-2.17266-0.1195-4.28681-0.47403-6.00038-1.03125 5.04744 1.71168 10.04673 2.92573 12.43788 3.125 3.75102 0.31259 14.91711 1.23242 18.03125-0.84375 0.73917-0.4928 2.54119-2.88719 3.4375-2.375 3.45738 1.97573 7.58492 3.40994 10.625 6.28125 0.83675 0.79029 1.57731 1.68025 2.3125 2.5625 5.15912 2.22251 10.50064 4.55099 11.78125 5.125 1.40051 1.32275 9.8165 5.93198 7.34375 4.375l13.28125 1.28125c-0.0917-0.0637-0.24671-0.16633-0.25-0.1875-0.0528-0.33959 0.33337-1.1146 0-1.03125-8.99953-8.46789-18.99552-15.56725-30.09375-20.5-5.44911-2.42192-11.24556-3.59885-16.59375-6.71875-9.2367-5.3883-16.85589-13.34771-25.46875-19.5-5.0282-3.59172-10.32331-6.81018-14.25-11.71875-5.83783-7.29759-4.76466-10.28891-0.84375-13.65625-0.28798-0.59398-0.54635-1.20561-0.8125-1.8125 0.71365-0.71368 4.12684-1.79538 7.6875-3.40625 2.56029-1.80449 7.30143-5.32857 5.78125-6.46875-0.17905-0.13429-0.99378 0.7633-1.15625 0.875-2.67618 1.83995-7.63459 3.69564-10.875 4.34375-6.80901 1.36186-7.57935-4.85783-10.875-6.09375-0.15839-0.0594-0.36655-0.0885-0.59375-0.0625z" color="#000000" fill="#4e0400"/>
    <path id="path3082" transform="translate(-297.85712,-632.65442)" d="m973.46517 406.81048c-7.25728-23.30399-77.55475-34.26148-95.78557-75.83332 1.23215-1.2322 10.48568-3.57955 14.71488-7.80893 8.6959-8.69625 11.77508-25.0145 13.25728-33.90808-6.071 5.20492-17.67326 28.12841-31.40795 29.22273-0.89737 0.0715-3.54193 2.10076-4.44223 1.45767-6.14059-4.38632-4.54414-42.51305-10.16854-48.13768-2.36168-2.36178-2.48302 8.22916-2.53346 8.88482-0.30971 4.02646 1.81591 36.29532 0.24294 37.34401-19.50478-0.69375-27.07549-18.01514-35.989-24.32914 10.47977 33.63658 32.30791 35.87978 40.36182 39.35698 8.73089 13.09688 16.76259 26.68709 29.15213 36.754 1.7561 1.42689 20.02473 13.82779 20.02473 14.88901 0 5.45174-16.13299 3.3753-19.29593 2.67239-10.01237-2.22506-17.33514-16.64195-18.67125-25.99504-0.22279-1.55959-0.19238-6.30071-1.24937-7.35774-1.94366-1.94374-4.67193 7.93489-4.78928 8.43364-5.08476 21.61112 14.10484 37.81316 35.42535 36.0645 10.57699-1.93389 15.15025-4.76661 21.66856-7.29697 3.72988 1.48019 19.12565 8.17787 21.40861 9.20117 1.40051 1.32275 9.79549 5.92998 7.32274 4.373" color="#000000" fill="none" stroke="#000000" stroke-linecap="round" stroke-linejoin="round" stroke-width="4"/>
    <path id="path3075" transform="translate(-297.85712,-632.65442)" d="m942.85262 395.91163c-4.0169-10.09009 10.56545-46.23858 13.28251-44.27221-4.89232 12.83508-3.68965 39.89608-3.55831 45.18012-0.22148 1.93766-3.1374 4.2186-8.71813 2.11035z" color="#000000" fill="#673701" stroke="#000000" stroke-linecap="round" stroke-linejoin="round" stroke-width="4"/>
   </g>
   <path id="path3011" transform="translate(-297.85712,-632.65442)" d="m937.04684 419.00644c-3.10176-1.69774-7.02368-3.73911-9.1621-6.73303-1.03054-1.44281-11.34936-13.83343-10.51559-14.33371 3.79469-2.27691 28.10189 1.34665 32.51851 2.49886 2.4689 0.64408 15.07048 6.6595 12.77141 8.08657" color="#000000" fill="#944c00" stroke="#000000" stroke-linecap="round" stroke-linejoin="round" stroke-width="4"/>
   <path id="path2986" d="m683.01788-141.49817c-6.47701 12.76151-8.31986 27.42856-16.32786 39.5565-14.9241 28.456908-40.45353 50.92888-50.66012 81.854955-3.58419 15.8515662 6.54581 1.730046 6.29251-5.899248 13.93189-30.60392 40.13791-53.855103 53.22474-85.046767 2.41885-8.35345 11.90691-23.54045 7.47073-30.46544z" color="#000000" fill="#000000" style="text-decoration-line:none;text-indent:0;text-transform:none"/>
   <path id="path2988" transform="translate(-297.85712,-632.65442)" d="m969.66852 577.03484c-6.95641 2.24834-19.47776 14.11697-23.18288 20.26849-12.31371 20.44414-23.07006 37.12836-13.32669 66.77498 1.58571 4.82491 3.71061 11.13792 6.66334 14.09077 4.32725 4.32742-10.3352 9.56589-11.86908 10.75896-7.83977 6.09784-60.71459 2.63149-44.83875 26.44622 15.767 23.65147 35.79482 2.37628 55.31964 8.88482 8.28525 2.76186 15.38883 3.81998 23.52993 4.72006 16.04168 1.77356 54.91327 2.95414 59.83127-4.78947 0.3251-0.51185-20.3417-16.94919-22.00291-16.4508-1.8211 0.54635-19.69105 9.41085-26.27153 7.03435 3.02347-0.44406 3.67935-1.38708 4.61566-1.89782 3.88597-2.1197 7.72985-4.74542 10.89734-7.91304 15.03994-15.04053 37.17014-29.18864 39.21654-51.0183" color="#000000" fill="none" stroke="#000000" stroke-linecap="round" stroke-linejoin="round" stroke-width="4"/>
   <g fill="#000000">
    <path id="path2990" d="m660.11163 70.87683c-8.1547 0.31472-15.62101 4.06384-23.59578 5.390225-2.14405 0.404272-4.325 0.654006-6.50937 0.611893-1.61531-1.496045-5.98644-0.48082-4.63207 2.180991 1.56901 2.200703 4.59381 1.763505 6.94219 1.728005 9.04555-0.483205 17.36983-4.574387 26.27022-5.847228 2.8757-0.03803 4.9318 2.300531 7.19318 3.729071 2.75141 1.991877 5.57475 3.988799 8.80523 5.126592 1.57572 1.841068 5.16908-0.616712 3.51224-2.653491-1.84028-1.635618-4.6543-1.544423-6.47973-3.268128-3.76417-2.428318-7.0826-5.772462-11.50611-6.99793z" color="#000000" style="text-decoration-line:none;text-indent:0;text-transform:none"/>
    <path id="path2992" d="m712.23668 80.06433a2.0002 2.0002 0 0 0-1.25 0.5625c-0.5234 0.49933-1.3149 1.3157-2.125 2.09375-0.8102 0.77805-1.7768 1.54015-1.875 1.59375-0.9936 0.54192-3.5264 1.49764-4.93755 2.125-0.35278 0.15684-0.60103 0.26131-1 0.53125-0.0997 0.06749-0.19458 0.124-0.375 0.3125s-0.61928 0.54736-0.59375 1.5c0.0128 0.47632 0.24721 1.00612 0.53125 1.3125s0.55654 0.42274 0.75 0.5c0.38693 0.15452 0.56606 0.14841 0.71875 0.15625 0.6108 0.03136 0.8646-0.02785 1.4063-0.125 0.5416-0.09715 1.2526-0.26099 2.1874-0.46875 1.5056-0.33457 3.6386-0.52608 5.6563-0.71875s3.8374-0.31033 5.3437-0.8125a2.0110091 2.0110091 0 0 0-1.2812-3.8125c-0.109 0.03632-0.6718 0.08458-0.875 0.125 0.2074-1.05453 0.4076-2.43137-0.4375-3.875a2.0002 2.0002 0 0 0-1.8437-1z" color="#000000" style="text-decoration-line:none;text-indent:0;text-transform:none"/>
    <path id="path2994" d="m688.76788 80.09558a2.0002 2.0002 0 0 0-1.59375 2.65625c2.39109 7.1426 9.06271 12.73785 12.4375 16.40625a2.001263 2.001263 0 0 0 2.93745-2.71875c-3.7009-4.02294-9.74415-9.44383-11.5937-14.96875a2.0002 2.0002 0 0 0-2.1875-1.375z" color="#000000" style="text-decoration-line:none;text-indent:0;text-transform:none"/>
   </g>
   <path id="path2997" transform="translate(-297.85712,-632.65442)" d="m875.3248 497.82112c2.32168 12.84232 25.17916 0.91987 29.638-2.29062" color="#000000" fill="#673701" stroke="#000000" stroke-linecap="round" stroke-linejoin="round" stroke-width="4"/>
   <path id="path3202" transform="translate(-297.85712,-632.65442)" d="m1075.0938 703.875c-2.7152 0.22254-5.0968 3.45294-7.5626 4.09375-0.2107 0.0617-0.4139 0.0934-0.625 0.125-8.2832 5.33447-12.25 11.78125-12.25 11.78125s11.9422 5.78217 19.625 7.0625c-1.3687 5.70013 2.4385 5.60515 10.7188 8.5625 16.0986 5.74973 19.5866-3.53182 28.625-9.34375-0.9386-1.59421-2.6361-3.23084-5.0312-5.0625-1.3743-1.05088-3.6575-3.37538-5.25-3.90625-4.0699-1.3567-8.7808-0.23413-12.4063-1.59375-5.7419-2.15327-8.5187-9.98827-14.6563-11.625-0.4028-0.10743-0.7996-0.12554-1.1874-0.0937z" color="#000000" fill="#4e0400"/>
   <path id="path3217" transform="translate(-297.85712,-632.65442)" d="m998.65625 425.3125c-5.10578 0.0344-13.30891 11.80548-15.125 13.9375-12.86649 15.10476-20.87357 28.09727-40.1875 36.375-4.66667 2.00008-8.15038 10.83222-12.96875 13.9375-20.82091 40.68693-31.52944 96.86247-36.875 126.5-4.52636 4.52654-8.68951 6.11865-5.96875 14.28125 2.61686 7.85092 10.23548 9.98738 12.78125 17.625 6.54688 19.64144-6.50826 21.74094 13.125 41.375 0.69158 0.69161 1.36191 1.74956 2.15625 2.90625-17.42866 2.72594-44.42073 5.1963-32.46875 23.125 15.767 23.65147 35.78768 2.36646 55.3125 8.875 8.28525 2.76186 15.39015 3.81867 23.53125 4.71875 16.04168 1.77356 54.89445 2.96236 59.81245-4.78125 0.3252-0.51185-20.3387-16.93589-21.99995-16.4375-1.8211 0.54635-17.2851 12.16651-25.55515 6.94441 0.88925-0.26622 2.96259-1.30867 3.8989-1.81941 3.88597-2.1197 7.73876-4.73863 10.90625-7.90625 0.55477-0.55479 1.14605-1.10346 1.71875-1.65625 18.8485 2.21629 53.7354 2.58905 66.2812 2.6875 9.6537 0.76147 9.1003-0.61832 13.9063-0.1875-11.0194 5.56334-16.2813 14.0625-16.2813 14.0625s11.9422 5.78217 19.625 7.0625c-1.3688 5.70013 2.4385 5.60515 10.7188 8.5625 18.4385 6.58546 20.3271-6.53685 32.9688-11.59375 2.9416-1.17667 14.0298 4.50525 17.5624 5.46875 10.3816 2.83144 24.9991-0.46875 36.25-0.46875 26.6386-1.24585 41.7965 2.31876 69.75-1.3125 6.7076-0.87134 19.1368-4.16778 23.6563-8.6875 14.6853-14.6859 13.1508-56.61607 8.625-75.625-2.0589-8.64807-18.6875-41.7426-18.6875-43.21875 0-0.0833 4.0725 6.36393 7.6562 10.84375 4.0336 5.04197 6.023 10.11778 7.8438 16.1875 4.5823 15.27482 6.733 38.82479 18.5312 49.3125 1.8206 1.61827 14.4129 12.77105 15.0626 8.46875 0.2297-1.52098-5.7834-20.27602-5.4376-25.65625-1.7363-8.68219-0.1339-17.72436-2.8437-26.3125-11.7948-37.38083-39.6398-55.34154-79.875-70.53125-8.6398-3.26175-24.9612-3.45796-42.4375-3.8125-46.2626-0.93852-94.3148 7.18262-126.4688 6.375-17.9984-13.17099-28.178-11.42834-44.5312-15.34375-4.50338-40.74058 26.6218-103.31766-2.5-123.90625-0.45165-0.27101-0.94057-0.37856-1.46875-0.375z" color="#000000" fill="none"/>
   <g>
    <path id="path3001" transform="translate(-297.85712,-632.65442)" d="m1004.1494 448.81578c-3.1405 16.4776-11.91522 33.30647-27.34743 41.02288-17.00254 8.50162-39.45112 1.88655-40.39652 1.73532-7.0822-1.13291-8.35667-2.30711-12.0079-1.18002-14.43325 4.45537-56.03702 12.06327-63.33554-4.96732-0.78951-1.84227-1.7843-4.72807-1.70147-7.11048 0.21608-6.21538 41.00478-28.11564 51.03677-31.76233 2.52984-0.91961 4.72388-1.84834 5.73939-2.86962 0.19245-1.88768 1.09448-5.36768 1.73632-7.29329 1.37041-4.11142 6.65368-11.23131 9.0927-14.64607 15.64377-20.94179 65.47047-26.64246 73.01914-5.90008" color="#000000" fill="#944c00" stroke="#000000" stroke-linecap="round" stroke-linejoin="round" stroke-width="4"/>
    <path id="path3009" transform="translate(-297.85712,-632.65442)" d="m972.53298 408.06253c23.1874-33.09326 71.71772-27.00345 103.69832-44.77116 9.1476-5.08222 38.7307-18.89547 38.7307-30.05568 0-1.28006 2.5374 0.41648 3.8175 0.41648 1.7352 0-3.3511-0.97614-5.0278-1.42281-2.1008-0.55962-9.9627-5.90135-11.7-7.67025-3.6476-3.71401-16.5944-27.2788-11.9298-37.73426 0.1604-0.16044 5.7399 12.58199 6.3076 13.71748 2.0494 4.09893 22.3399 27.77517 28.1804 21.9344 2.4553-2.45536 14.6877-42.89702 15.409-42.89702 1.8169 0-2.5389 28.85123-3.054 31.58276-1.1799 6.25662-4.7199 13.6137-4.7199 13.04958 13.1687 1.63682 35.8703-22.18461 38.6613-22.97559 0.575 0-7.5727 14.10736-8.6068 15.27078-6.5234 7.3391-14.9591 17.28375-26.6534 17.28375-2.4552 0-5.6164-0.0108-8.468-0.41647-2.2003 2.3673-6.0913 10.33297-10.3421 14.09077-7.3118 6.46372-30.569 32.41571-37.8283 32.41571-1.3043 0 7.541 4.37299 10.6891 4.37299 7.1798 0 12.05-0.99284 18.5324-4.23417 8.7522-4.37629 5.366-29.39048 8.3986-25.05797 4.3788 6.25568 5.1386 17.62627 1.6658 24.57208-12.236 24.47304-38.8746 19.01525-56.0831 6.10832-3.3516-2.51377-15.3099 2.92525-18.8795 3.81769-19.7461 4.93673-41.6204 11.65481-56.29137 23.39207-1.9634 1.57079-8.10716 6.81622-11.66085 3.26239-3.49463-3.49477-2.96026-8.79586-2.29052-4.44241-0.18509-1.20315-0.37019-2.40631-0.55528-3.60946z" color="#000000" fill="#673701"/>
    <path id="path3005" transform="translate(-297.85712,-632.65442)" d="m1000.3319 433.73588c8.478-10.98323 20.5954-7.75108 32.4144-11.29691 4.4603-1.33815 9.448-1.86775 13.6737-3.67887 6.1686-2.64376 13.7934-5.02861 16.9014-11.24484 1.0785-2.15714 1.7286-2.68792 3.4705-6.75039-0.6951-1.6388-11.6953-5.20396-13.934-1.61382-7.1871 11.52533-61.60431 14.51616-52.526 34.58483z" color="#000000" fill="#4e0400" stroke="#000000" stroke-linecap="round" stroke-linejoin="round" stroke-width="4"/>
    <g>
     <path id="path3064" transform="translate(-297.85712,-632.65442)" d="m1101.5312 322.4375c-0.3714 0.32504 0.662 1.79676 1.8438 3.25 2.8588 2.26906 8.6154 6.06251 10.375 6.53125 1.6767 0.44667 6.7665 1.4375 5.0312 1.4375-1.1062 0-3.1524-1.26341-3.6874-0.78125 5.1748 1.42082 8.1895 2.34131-0.1563 10.6875-11.7069 11.70733-28.1965 22.58232-43.0313 30-5.3579 2.67908-12.6693 2.72414-18.4687 4.0625-18.5498 4.2809-50.8429 13.33935-65.96875 25.28125-4.67308 3.68942-8.84617 7.94841-12.78125 12.40625 0.21544 0.27275 0.42981 0.5548 0.6875 0.8125 3.55369 3.55383 9.69285-1.71046 11.65625-3.28125 14.67095-11.73726 36.56645-18.43827 56.31255-23.375 3.5696-0.89244 15.5234-6.32627 18.875-3.8125 10.262 7.69685 23.8663 12.7438 35.7812 10.375 0.3136-0.25701 0.6223-0.52851 0.9062-0.8125 2.4262-2.42635-14.3633-2.4568-15.0937-2.59375-2.3882-0.44782-13.1232-10.68834-8.9375-12.78125 2.8256-1.41286 7.4948-1.15538 10.5938-3.0625 9.6374-6.84105 24.6274-23.15495 30.7812-28.78125 1.8999-3.43258 4.0107-6.64366 6.7188-8.75 0.103-0.0802 0.2658-0.18789 0.4062-0.28125 1.5068-2.37004 2.8457-4.55356 3.8125-5.59375 2.8516 0.40567 6.0135 0.40625 8.4687 0.40625 3.4965 0 6.6752-0.90123 9.625-2.34375 0.4716-0.44726 0.9322-0.98412 1.4063-1.59375 0.1631-0.20975 1.2647-1.0221 1.0937-1.25-5.4492 1.29355-11.547 1.47969-17.9529 0.83735-1.2308-0.12342 7.0961-18.84345 6.2109-17.94058-0.9488 0.96789-10.1703 17.20881-13.1049 16.96107-6.5053-0.54919-14.5275-3.05847-21.4031-6.01409z" color="#000000" fill="#4e0400"/>
     <path id="path3013" transform="translate(-297.85712,-632.65442)" d="m876.38658 481.13735c-4.56692 0.90511-1.88823 2.84992-0.6288 2.89247 7.55993 0.25536 3.66023-4.19694 0.6288-2.89247z" color="#000000" fill="#944c00" stroke="#000000" stroke-linecap="round" stroke-linejoin="round" stroke-width="4"/>
     <path id="path3015" d="m640.42022-184.31371c-8.7606 8.08819-45.89037 19.97152-45.88049 25.85522 14.9152-6.72569 38.8112-15.4645 45.88049-25.85522z" color="#000000" fill="#000000" style="text-decoration-line:none;text-indent:0;text-transform:none"/>
     <path id="path3017" d="m648.33906-189.70134c-0.5421-1.52455-0.55009-1.62051-0.31029-2.65973 1.63718-7.09472 11.51428-5.10186 16.13506-3.36899 3.15049 1.18147 7.25866 0.72025 6.91503 1.06389-6.6169 6.61717-17.22915 21.89108-22.7398 4.96483z" color="#000000" fill="#b1b1b1"/>
     <path id="path3019" d="m649.21647-192.26405c-0.38428 0.34663-0.76089 0.74656-0.92999 1.49362s0.20777 1.71913 0.67636 2.1418c0.93718 0.84532 1.68055 0.80287 2.50816 0.87362 0.82761 0.0708 1.73253 0.0617 2.62088-0.0281 0.88834-0.0899 1.75397-0.24177 2.53634-0.47909 0.78236-0.23732 1.58398-0.29159 2.2827-1.54998 0.34936-0.62921 0.27887-1.7388-0.11272-2.31089-0.3916-0.57209-0.83678-0.81193-1.29635-1.04272-3.28636-1.44732-5.34508-1.6957-8.28538 0.90177z" color="#000000" fill="#000000" style="text-decoration-line:none;text-indent:0;text-transform:none"/>
    </g>
    <path id="path3047" d="m655.01227-199.00516c-5.07665 0.014-9.82063 4.82742-7.94513 10.03027 1.51554 4.20429 4.84881 8.14476 9.9282 6.70209 6.26023-1.72239 9.96412-5.65662 14.41783-9.89685 3.17722-3.66479-2.872-4.23756-5.40684-4.55718-3.66621-0.46228-7.17883-2.2888-10.99406-2.27833zm-0.084 2.02202c3.23173 0.50219 11.94883 3.57018 13.85621 4.25919-2.71885 3.14323-10.12069 8.68342-13.87407 8.90426-4.10607-0.11064-7.67747-6.63649-5.94364-10.16397 0.79616-1.61978 4.22716-3.26899 5.9615-2.99948z" color="#000000" fill="#000000" style="text-decoration-line:none;text-indent:0;text-transform:none"/>
    <path id="path3003" transform="translate(-297.85712,-632.65442)" d="m993.87679 446.24751c7.09831-4.98679 5.3825-18.90548 12.28551-23.94736 7.4865-5.46805 18.7084-9.83724 31.6509-12.49428 9.7244-1.99638 17.7689-13.00038 17.7689-12.49428-22.5967-1.5174-53.1555 8.49048-67.04987 26.3074" color="#000000" fill="#944c00" stroke="#000000" stroke-linecap="round" stroke-linejoin="round" stroke-width="4"/>
   </g>
   <path id="path3069" transform="translate(-297.85712,-632.65442)" d="m972.53298 408.06253c23.1874-33.09326 71.71772-27.00345 103.69832-44.77116 9.1476-5.08222 38.7307-18.89547 38.7307-30.05568 0-1.28006 2.5374 0.41648 3.8175 0.41648 1.7352 0-3.3511-0.97614-5.0278-1.42281-2.1008-0.55962-9.9627-5.90135-11.7-7.67025-3.6476-3.71401-16.5944-27.2788-11.9298-37.73426 0.1604-0.16044 5.7399 12.58199 6.3076 13.71748 2.0494 4.09893 22.3399 27.77517 28.1804 21.9344 2.4553-2.45536 14.6877-42.89702 15.409-42.89702 1.8169 0-2.5389 28.85123-3.054 31.58276-1.1799 6.25662-4.7199 13.6137-4.7199 13.04958 13.1687 1.63682 35.8703-22.18461 38.6613-22.97559 0.575 0-7.5727 14.10736-8.6068 15.27078-6.5234 7.3391-14.9591 17.28375-26.6534 17.28375-2.4552 0-5.6164-0.0108-8.468-0.41647-2.2003 2.3673-6.0913 10.33297-10.3421 14.09077-7.3118 6.46372-30.569 32.41571-37.8283 32.41571-1.3043 0 7.541 4.37299 10.6891 4.37299 7.1798 0 12.05-0.99284 18.5324-4.23417 8.7522-4.37629 5.366-29.39048 8.3986-25.05797 4.3788 6.25568 5.1386 17.62627 1.6658 24.57208-12.236 24.47304-38.8746 19.01525-56.0831 6.10832-3.3516-2.51377-15.3099 2.92525-18.8795 3.81769-19.7461 4.93673-41.6204 11.65481-56.29137 23.39207-1.9634 1.57079-8.10716 6.81622-11.66085 3.26239-3.49463-3.49477-2.96026-8.79586-2.29052-4.44241-0.18509-1.20315-0.37019-2.40631-0.55528-3.60946z" color="#000000" fill="none" stroke="#000000" stroke-linecap="round" stroke-linejoin="round" stroke-width="4"/>
   <path id="path3007" transform="translate(-297.85712,-632.65442)" d="m1002.518 393.6247c5.6167-13.48549 2.8937-29.46561 3.9564-42.51525 5.2323 12.32288 6.4652 33.80026 2.6376 47.09649-2.5769 0.79902-6.6181 1.04792-6.594-4.58124z" color="#000000" fill="#673701" stroke="#000000" stroke-linecap="round" stroke-linejoin="round" stroke-width="4"/>
   <g fill="#000000">
    <path id="path3109" d="m597.98663-31.68567c-4.39295 10.646316-0.17968 22.3263219 2.46676 32.8426836 0.0576 4.941654 11.7689 14.5691464 6.73784 5.9610554-6.0703-9.4425665-8.67516-24.314549-7.69967-35.274348-0.22046-1.592158-0.13815-2.621889-1.50493-3.529391z" color="#000000" style="text-decoration-line:none;text-indent:0;text-transform:none"/>
    <g>
     <path id="path3132" d="m703.01788-86.12317c-12.3769 8.471275-25.65625 15.60948-39.49587 21.38242-7.68459 3.034691 1.54586 3.738964 6.46783 1.734247 11.86922-6.031713 26.49784-11.204205 36.94802-19.607045 1.01981-1.204526-2.28947-3.705788-3.91998-3.509622z" color="#000000" style="text-decoration-line:none;text-indent:0;text-transform:none"/>
     <path id="path3134" d="m750.86168-68.56067c-4.53731 0.700036-0.9001 11.832015-2.32714 17.471301-1.99875 7.898523-3.56261 13.696171-7.02606 21.01783 1.84169 3.600916 6.99534-8.013962 6.90694-7.393774 4.16578-10.100543 6.64413-19.07846 4.34728-29.978031-0.33598-0.692803-1.09482-1.26783-1.90102-1.117326z" color="#000000" style="text-decoration-line:none;text-indent:0;text-transform:none"/>
     <path id="path3161" d="m846.36168 23.43933c-5.58498 4.851345 6.21572 4.436388 9.35926 5.36069 6.31912 1.110881 12.45192 4.398639 15.68795 10.117872 6.97542 8.497201 14.16546 16.997912 23.04649 23.583938-13.37323 6.253333-28.51564 3.878377-42.78091 4.223507-23.88622-0.424946-48.13255-3.322312-71.76516 1.292496-3.45701 0.422715-14.57455 3.609255-8.83416 7.389892 6.56504-2.141918 15.16527 1.634654 18.58793 7.607845-4.90904 3.899005-13.8745 7.581743-14.1556 14.105041 4.91667 1.402716 7.42975-5.965936 11.7958-7.861825 4.45649-3.128409 10.45278-7.912129 15.59346-3.43979 5.32944 1.673017 8.60778 8.178436 13.34669 9.257229 3.07552-5.367987-5.41278-8.741729-9.22029-11.18492-6.95584-3.973505 4.93557-4.093138 7.7807-4.546115 22.30518-1.936652 44.71495 3.770804 66.93861-0.173554 13.95488-1.721222 27.8563-3.912056 41.86883-5.138506 1.10876-8.037915-11.53597-1.376239-15.04688-6.572472-5.38169-2.860212-9.80985-7.20236-14.86349-10.581057-9.91916-8.011362-16.88059-18.94897-25.96306-27.750924-6.32011-4.145732-14.08857-4.74324-21.37617-5.689347zm51.4062 41.5625c1.80243 2.844941 9.49211 3.961669 8.61545 7.123831-15.49609 1.657983-30.98085 4.501284-46.64878 4.42982-19.068-0.0092-38.5789-4.396417-57.33117 0.979732-4.74248 1.455323-8.56737 4.555672-11.99254-0.62103-1.80483-1.387546-12.00084-5.46797-4.83246-5.875122 33.16064-4.506193 66.64616 2.530258 99.82569-1.325494 4.37183-0.742607 8.69381-2.170896 12.36381-4.711737z" color="#000000" style="text-decoration-line:none;text-indent:0;text-transform:none"/>
    </g>
    <path id="path3233" d="m435.26788 73.68933c-8.9e-4 -5e-5 -0.41029 0.0063-0.53125 0.03125-0.24191 0.04988-0.32325 0.11881-0.40625 0.15625-0.16601 0.07487-0.22556 0.08972-0.28125 0.125-0.11137 0.07056-0.18212 0.13661-0.25 0.1875-0.13576 0.10177-0.29249 0.19972-0.46875 0.34375-0.35251 0.28806-0.81265 0.70561-1.375 1.1875-1.1247 0.96378-2.59392 2.2577-4.09375 3.59375s-3.02207 2.68676-4.21875 3.8125c-0.59834 0.56287-1.12221 1.08372-1.53125 1.5s-0.60116 0.52151-1 1.21875a2.0002 2.0002 0 0 0 3.375 2.125 2.0002 2.0002 0 0 0 3.15625 0.8125c0.28292-0.23766 0.33379-0.31771 0.5-0.5s0.3665-0.39408 0.59375-0.65625c0.45449-0.52434 1.01727-1.20319 1.625-1.9375 1.21546-1.46863 2.57358-3.14381 3.4375-4.34375 0.93051-1.29242 1.56582-2.49312 2.28125-3.46875-0.18188 0.24804-0.0191 0.0062 0.0625-0.09375 0.0816-0.09992 0.20139-0.22964 0.3125-0.375s0.21087-0.30996 0.34375-0.53125c0.0664-0.11064 0.15107-0.20147 0.25-0.5 0.0495-0.14927 0.14238-0.34373 0.125-0.75-0.0174-0.40627-0.29106-1.18374-0.90625-1.59375-5.4e-4 -3.6e-4 -0.99911-0.3437-1-0.34375z" color="#000000" style="text-decoration-line:none;text-indent:0;text-transform:none"/>
    <path id="path3235" d="m440.14288 64.50183a2.0002 2.0002 0 0 0-0.40625 3.875c2.14784 0.79733 5.0005 1.71942 7.59375 2.75s4.95823 2.30285 5.65625 3.03125a2.0002 2.0002 0 1 0 2.875-2.75c-1.71028-1.78472-4.2716-2.90329-7.03125-4s-5.71081-2.03586-7.71875-2.78125a2.0002 2.0002 0 0 0-0.96875-0.125z" color="#000000" style="text-decoration-line:none;text-indent:0;text-transform:none"/>
   </g>
  </g>
 </g>
</svg>
