<?xml version="1.0" encoding="UTF-8"?>
<!-- Created with Inkscape (http://www.inkscape.org/) -->
<svg id="svg2" width="500" height="300" version="1.0" xmlns="http://www.w3.org/2000/svg">
 <g id="layer1" transform="translate(-160.7205 -405.6522)">
  <rect id="rect3318" x="160.7205" y="405.6522" width="500" height="150" style="fill:#ffffff"/>
  <rect id="rect3279" x="160.7205" y="555.6522" width="500" height="150" style="fill:#9bcbeb"/>
  <g id="g3307" transform="matrix(1.199506 0 0 1.199506 -38.03396 -82.12955)">
   <path id="path3281" d="m164.1161 624.1522s10.25658 5 15 5 10.25658-5 15-5 10.25658 5 15 5 10.25658-5 15-5 10.25658 5 15 5 10.25658-5 15-5 10.25658 5 15 5 10.25658-5 15-5 10.25658 5 15 5 10.25658-5 15-5 10.25658 5 15 5 10.25658-5 15-5 10.25658 5 15 5 10.25658-5 15-5 10.25658 5 15 5 10.25658-5 15-5 10.25658 5 15 5 10.25658-5 15-5 10.25658 5 15 5 10.25658-5 15-5 10.25658 5 15 5 10.25658-5 15-5 10.25658 5 15 5 10.25658-5 15-5 10.25658 5 15 5 10.25658-5 15-5 10.25658 5 15 5 15-5 15-5" style="fill:none;stroke-linecap:square;stroke-width:5;stroke:#a4d3ce"/>
   <path id="path3295" d="m164.1161 629.1522s10.25658 5 15 5 10.25658-5 15-5 10.25658 5 15 5 10.25658-5 15-5 10.25658 5 15 5 10.25658-5 15-5 10.25658 5 15 5 10.25658-5 15-5 10.25658 5 15 5 10.25658-5 15-5 10.25658 5 15 5 10.25658-5 15-5 10.25658 5 15 5 10.25658-5 15-5 10.25658 5 15 5 10.25658-5 15-5 10.25658 5 15 5 10.25658-5 15-5 10.25658 5 15 5 10.25658-5 15-5 10.25658 5 15 5 10.25658-5 15-5 10.25658 5 15 5 10.25658-5 15-5 10.25658 5 15 5 10.25658-5 15-5 10.25658 5 15 5 15-5 15-5" style="fill:none;stroke-linecap:square;stroke-width:5;stroke:#7bc4c4"/>
   <path id="path3297" d="m164.1161 634.1522s10.25658 5 15 5 10.25658-5 15-5 10.25658 5 15 5 10.25658-5 15-5 10.25658 5 15 5 10.25658-5 15-5 10.25658 5 15 5 10.25658-5 15-5 10.25658 5 15 5 10.25658-5 15-5 10.25658 5 15 5 10.25658-5 15-5 10.25658 5 15 5 10.25658-5 15-5 10.25658 5 15 5 10.25658-5 15-5 10.25658 5 15 5 10.25658-5 15-5 10.25658 5 15 5 10.25658-5 15-5 10.25658 5 15 5 10.25658-5 15-5 10.25658 5 15 5 10.25658-5 15-5 10.25658 5 15 5 10.25658-5 15-5 10.25658 5 15 5 15-5 15-5" style="fill:none;stroke-linecap:square;stroke-width:5;stroke:#a4d3ce"/>
   <path id="path3299" d="m164.1161 639.1522s10.25658 5 15 5 10.25658-5 15-5 10.25658 5 15 5 10.25658-5 15-5 10.25658 5 15 5 10.25658-5 15-5 10.25658 5 15 5 10.25658-5 15-5 10.25658 5 15 5 10.25658-5 15-5 10.25658 5 15 5 10.25658-5 15-5 10.25658 5 15 5 10.25658-5 15-5 10.25658 5 15 5 10.25658-5 15-5 10.25658 5 15 5 10.25658-5 15-5 10.25658 5 15 5 10.25658-5 15-5 10.25658 5 15 5 10.25658-5 15-5 10.25658 5 15 5 10.25658-5 15-5 10.25658 5 15 5 10.25658-5 15-5 10.25658 5 15 5 15-5 15-5" style="fill:none;stroke-linecap:square;stroke-width:5;stroke:#7bc4c4"/>
   <path id="path3301" d="m164.1161 644.1522s10.25658 5 15 5 10.25658-5 15-5 10.25658 5 15 5 10.25658-5 15-5 10.25658 5 15 5 10.25658-5 15-5 10.25658 5 15 5 10.25658-5 15-5 10.25658 5 15 5 10.25658-5 15-5 10.25658 5 15 5 10.25658-5 15-5 10.25658 5 15 5 10.25658-5 15-5 10.25658 5 15 5 10.25658-5 15-5 10.25658 5 15 5 10.25658-5 15-5 10.25658 5 15 5 10.25658-5 15-5 10.25658 5 15 5 10.25658-5 15-5 10.25658 5 15 5 10.25658-5 15-5 10.25658 5 15 5 10.25658-5 15-5 10.25658 5 15 5 15-5 15-5" style="fill:none;stroke-linecap:square;stroke-width:5;stroke:#a4d3ce"/>
   <path id="path3303" d="m164.1161 649.1522s10.25658 5 15 5 10.25658-5 15-5 10.25658 5 15 5 10.25658-5 15-5 10.25658 5 15 5 10.25658-5 15-5 10.25658 5 15 5 10.25658-5 15-5 10.25658 5 15 5 10.25658-5 15-5 10.25658 5 15 5 10.25658-5 15-5 10.25658 5 15 5 10.25658-5 15-5 10.25658 5 15 5 10.25658-5 15-5 10.25658 5 15 5 10.25658-5 15-5 10.25658 5 15 5 10.25658-5 15-5 10.25658 5 15 5 10.25658-5 15-5 10.25658 5 15 5 10.25658-5 15-5 10.25658 5 15 5 10.25658-5 15-5 10.25658 5 15 5 15-5 15-5" style="fill:none;stroke-linecap:square;stroke-width:5;stroke:#7bc4c4"/>
   <path id="path3305" d="m164.1161 654.1522s10.25658 5 15 5 10.25658-5 15-5 10.25658 5 15 5 10.25658-5 15-5 10.25658 5 15 5 10.25658-5 15-5 10.25658 5 15 5 10.25658-5 15-5 10.25658 5 15 5 10.25658-5 15-5 10.25658 5 15 5 10.25658-5 15-5 10.25658 5 15 5 10.25658-5 15-5 10.25658 5 15 5 10.25658-5 15-5 10.25658 5 15 5 10.25658-5 15-5 10.25658 5 15 5 10.25658-5 15-5 10.25658 5 15 5 10.25658-5 15-5 10.25658 5 15 5 10.25658-5 15-5 10.25658 5 15 5 10.25658-5 15-5 10.25658 5 15 5 15-5 15-5" style="fill:none;stroke-linecap:square;stroke-width:5;stroke:#a4d3ce"/>
   <path id="path3316" d="m164.1161 621.1522s10.25658 5 15 5 10.25658-5 15-5 10.25658 5 15 5 10.25658-5 15-5 10.25658 5 15 5 10.25658-5 15-5 10.25658 5 15 5 10.25658-5 15-5 10.25658 5 15 5 10.25658-5 15-5 10.25658 5 15 5 10.25658-5 15-5 10.25658 5 15 5 10.25658-5 15-5 10.25658 5 15 5 10.25658-5 15-5 10.25658 5 15 5 10.25658-5 15-5 10.25658 5 15 5 10.25658-5 15-5 10.25658 5 15 5 10.25658-5 15-5 10.25658 5 15 5 10.25658-5 15-5 10.25658 5 15 5 10.25658-5 15-5 10.25658 5 15 5 15-5 15-5" style="fill:none;stroke-linecap:square;stroke:#6ba4b8"/>
  </g>
  <rect id="rect3277" x="160.7602" y="405.6522" width="100" height="100" style="fill:#ef3340"/>
  <g id="g3247" transform="matrix(1.171875 0 0 1.190476 -27.6968 -77.26712)">
   <path id="path3245" d="m374.1161 531.6522-128-126h256z" style="fill:#0033a0"/>
   <g id="g1886" transform="matrix(1.002849 0 0 1.008 -1.065857 -3.245175)">
    <path id="path2398" d="m289.1161 411.6522v13l-6 6h26l-6-6v-13l-7-6z" style="fill:#ffffff"/>
    <path id="path3175" d="m315.1161 411.6522v13l-6 6h26l-6-6v-13l-7-6z" style="fill:#ffffff"/>
    <path id="path3177" d="m341.1161 411.6522v13l-6 6h26l-6-6v-13l-7-6z" style="fill:#ffffff"/>
    <path id="path3179" d="m367.1161 411.6522v13l-6 6h26l-6-6v-13l-7-6z" style="fill:#ffffff"/>
    <path id="path3181" d="m393.1161 411.6522v13l-6 6h26l-6-6v-13l-7-6z" style="fill:#ffffff"/>
    <path id="path3183" d="m419.1161 411.6522v13l-6 6h26l-6-6v-13l-7-6z" style="fill:#ffffff"/>
    <path id="path3185" d="m445.1161 411.6522v13l-6 6h26l-6-6v-13l-7-6z" style="fill:#ffffff"/>
    <path id="path3187" d="m471.1161 411.6522v13l-6 6h26l-6-6v-13l-7-6z" style="fill:#ffffff"/>
    <path id="path3189" d="m263.1161 411.6522v13l-6 6h26l-6-6v-13l-7-6z" style="fill:#ffffff"/>
    <path id="path3191" d="m367.1161 511.6522v13l-6 6h26l-6-6v-13l-7-6z" style="fill:#ffffff"/>
    <path id="path3193" d="m315.1161 461.6522v13l-6 6h26l-6-6v-13l-7-6z" style="fill:#ffffff"/>
    <path id="path3195" d="m341.1161 461.6522v13l-6 6h26l-6-6v-13l-7-6z" style="fill:#ffffff"/>
    <path id="path3197" d="m367.1161 461.6522v13l-6 6h26l-6-6v-13l-7-6z" style="fill:#ffffff"/>
    <path id="path3199" d="m393.1161 461.6522v13l-6 6h26l-6-6v-13l-7-6z" style="fill:#ffffff"/>
    <path id="path3201" d="m419.1161 461.6522v13l-6 6h26l-6-6v-13l-7-6z" style="fill:#ffffff"/>
    <path id="path3209" d="m302.1161 436.6522v13l-6 6h26l-6-6v-13l-7-6z" style="fill:#ffffff"/>
    <path id="path3211" d="m328.1161 436.6522v13l-6 6h26l-6-6v-13l-7-6z" style="fill:#ffffff"/>
    <path id="path3213" d="m354.1161 436.6522v13l-6 6h26l-6-6v-13l-7-6z" style="fill:#ffffff"/>
    <path id="path3215" d="m380.1161 436.6522v13l-6 6h26l-6-6v-13l-7-6z" style="fill:#ffffff"/>
    <path id="path3217" d="m406.1161 436.6522v13l-6 6h26l-6-6v-13l-7-6z" style="fill:#ffffff"/>
    <path id="path3219" d="m432.1161 436.6522v13l-6 6h26l-6-6v-13l-7-6z" style="fill:#ffffff"/>
    <path id="path3221" d="m458.1161 436.6522v13l-6 6h26l-6-6v-13l-7-6z" style="fill:#ffffff"/>
    <path id="path3225" d="m276.1161 436.6522v13l-6 6h26l-6-6v-13l-7-6z" style="fill:#ffffff"/>
    <path id="path3229" d="m328.1161 486.6522v13l-6 6h26l-6-6v-13l-7-6z" style="fill:#ffffff"/>
    <path id="path3231" d="m354.1161 486.6522v13l-6 6h26l-6-6v-13l-7-6z" style="fill:#ffffff"/>
    <path id="path3233" d="m380.1161 486.6522v13l-6 6h26l-6-6v-13l-7-6z" style="fill:#ffffff"/>
    <path id="path3235" d="m406.1161 486.6522v13l-6 6h26l-6-6v-13l-7-6z" style="fill:#ffffff"/>
   </g>
  </g>
  <g id="g3412" transform="matrix(1.199998 0 0 1.199998 -35.3787 -79.12937)">
   <path id="path3342" d="m205.1161 465.1522c-14 0-24.48149 1.04691-24.5 3-0.0191 2.01431 7.5 7 24.5 7s24.51909-4.98569 24.5-7c-0.0185-1.95309-10.5-3-24.5-3z" style="fill:#808080;stroke-linecap:square;stroke:#333333"/>
   <path id="path3351" d="m204.1161 464.6522v5.125c-2.00085 0.45687-3.5 2.23635-3.5 4.375 0 2.484 2.016 4.5 4.5 4.5s4.5-2.016 4.5-4.5c0-2.13865-1.49915-3.91813-3.5-4.375v-5.125z" style="fill:#ffffff;stroke-linecap:square;stroke-linejoin:round;stroke:#333333"/>
   <path id="path3344" d="m205.1161 424.6522c-12.09694 0-11 8-13 21-1.02409 6.65657-7.09629 17.38922-10.75 21.65625 2.61495-1.41025 11.91947-2.15625 23.75-2.15625s21.13505 0.746 23.75 2.15625c-3.65371-4.26703-9.72591-14.99968-10.75-21.65625-2-13-0.90306-21-13-21z" style="fill:#ffffff;stroke-linecap:square;stroke-linejoin:round;stroke:#333333"/>
   <rect id="rect3360" x="199.1161" y="418.6522" width="4.333334" height="7" style="fill:#ffffff;stroke-linecap:square;stroke-linejoin:round;stroke:#333333"/>
   <rect id="rect3398" transform="scale(-1,1)" x="-211.1161" y="418.6522" width="4.333334" height="7" style="fill:#ffffff;stroke-linecap:square;stroke-linejoin:round;stroke:#333333"/>
   <path id="path3356" d="m194.1161 413.6522v5h9v6h4v-6h9v-5z" style="fill:#ffffff;stroke-linecap:square;stroke-linejoin:round;stroke:#333333"/>
   <rect id="rect3358" x="196.1161" y="412.6522" width="3" height="7" style="fill:#ffffff;stroke-linecap:square;stroke-linejoin:round;stroke:#808080"/>
   <rect id="rect3396" transform="scale(-1,1)" x="-214.1161" y="412.6522" width="3" height="7" style="fill:#ffffff;stroke-linecap:square;stroke-linejoin:round;stroke:#808080"/>
  </g>
  <g id="g3794" transform="matrix(1.191692 0 0 1.191692 -30.41112 -76.73676)">
   <g id="g3513">
    <path id="path3503" transform="translate(164.1161 405.6522)" d="m179.75 158.375 26.75-17" style="fill:#ffffff;stroke-linecap:square;stroke-linejoin:round;stroke-width:.5;stroke:#000000"/>
    <path id="path3505" transform="translate(164.1161 405.6522)" d="m192.625 159 13.75-17.5" style="fill:#ffffff;stroke-linecap:square;stroke-linejoin:round;stroke-width:.5;stroke:#000000"/>
    <path id="path3507" transform="translate(164.1161 405.6522)" d="m226.5 141.125-24 17.75" style="fill:#ffffff;stroke-linecap:square;stroke-linejoin:round;stroke-width:.5;stroke:#000000"/>
    <path id="path3509" transform="translate(164.1161 405.6522)" d="M 207.375,141.375 223.75,160" style="fill:#ffffff;stroke-linecap:square;stroke-linejoin:round;stroke-width:.5;stroke:#000000"/>
    <path id="path3511" transform="translate(164.1161 405.6522)" d="m227.875 140.875 32.375 18.5" style="fill:#ffffff;stroke-linecap:square;stroke-linejoin:round;stroke-width:.5;stroke:#000000"/>
   </g>
   <g id="g3789">
    <rect id="rect3442" x="369.4911" y="547.5272" width="3.125" height="73.375" style="fill:#b93800;stroke-linecap:square;stroke-linejoin:round;stroke-width:.5;stroke:#000000"/>
    <rect id="rect3444" x="389.8661" y="545.6522" width="2.625" height="75.875" style="fill:#b93800;stroke-linecap:square;stroke-linejoin:round;stroke-width:.5;stroke:#000000"/>
    <path id="rect3450" d="m362.6161 536.9022h16.125l-3.25 11h-8.625z" style="fill:#b93800;stroke-linecap:square;stroke-linejoin:round;stroke-width:.5;stroke:#000000"/>
   </g>
   <g id="g3472">
    <path id="path3470" d="m383.2 564.5057c-14.68924 14.1918-13.17089 27.09846-8.16789 47.2019 6.88133-4.33736 22.54555-4.63822 36.084-1.80545l4.60489 3.55393-4.60489-3.55393c-2.31733-8.90152-6.37322-27.2998 13.2481-44.77145z" style="fill:#ffffff;stroke-linecap:square;stroke-linejoin:round;stroke-width:.5;stroke:#000000"/>
    <path id="path3468" transform="translate(164.1161 405.6522)" d="m183.375 158.5c-14.68924 14.1918-13.878 29.39656-8.875 49.5 9.86382-5.00869 38.2359-3.34331 50.5 6.875-17.66786-11.82115-7.16801-46.55155-1.875-55.75z" style="fill:#ffffff;stroke-linecap:square;stroke-linejoin:round;stroke-width:.5;stroke:#000000"/>
    <path id="path3466" transform="translate(164.1161 405.6522)" d="m124 182.5 59.25-24 9 0.125c-10.28249 11.06404-22.43543 24.35239-29 39.75-7.61775-9.92089-28.3854-15.66665-39.25-15.875z" style="fill:#ffffff;stroke-linecap:square;stroke-linejoin:round;stroke-width:.5;stroke:#000000"/>
   </g>
   <rect id="rect3446" transform="matrix(-.9997457 -.02254931 0 1 0 0)" x="-426.7246" y="554.4636" width="46.88692" height="1.689574" style="fill:#b93800;stroke-linecap:square;stroke-linejoin:round;stroke-width:.500064;stroke:#000000"/>
   <rect id="rect3448" transform="matrix(-.9997457 -.02254931 0 1 0 0)" x="-389.5901" y="555.551" width="46.88692" height="1.689574" style="fill:#b93800;stroke-linecap:square;stroke-linejoin:round;stroke-width:.500064;stroke:#000000"/>
   <g id="g3489">
    <path id="path3477" transform="translate(164.1161 405.6522)" d="m151.072 144.6652c40.702-12.23534 28.79964 5.62969 55.30296-2.79022v11c-32.51198 6.62552-16.00931-9.68815-53-0.5 0.98073-2.78376 5.51611-4.26882 9.125-6.125-3.17225-0.83147-6.76452-1.25037-11.42796-1.58478z" style="fill:#ffffff;stroke-linecap:square;stroke-linejoin:round;stroke-width:.5;stroke:#000000"/>
    <path id="path3486" transform="translate(164.1161 405.6522)" d="m206.125 142.2188c-1.26512 0.39509-2.43145 0.71904-3.53125 1l-3.68031 3.54069-3.47594-2.32194c-2.8402 0.161-4.95083-0.21038-6.875-0.78125l7.95313 5.4375-5.98438 5.03125c1.30476 0.11333 2.78323 0.14838 4.53125 0.0625l4.16752-3.91118 4.23873 2.87993c0.85439-0.15104 1.72491-0.31269 2.65625-0.5v-1.5l-4.07813-2.98828 4.07813-3.73047z" style="fill:#ef3340"/>
   </g>
   <rect id="rect3493" x="418.6161" y="581.1522" width="15" height="15" style="fill:#ffffff;stroke-linecap:square;stroke-linejoin:round;stroke-width:.5;stroke:#000000"/>
   <path id="path3426" d="m427.4911 617.7147-4.625 9.0625s4.21977 8.66116 7.9375 2.5625c1.84156-3.02094-3.3125-11.625-3.3125-11.625z" style="fill:#b93800;stroke-linecap:square;stroke-linejoin:round;stroke-width:.5;stroke:#000000"/>
   <path id="path3424" d="m311.4911 612.5272c2.74409 0.0452 9.7421 5.04327 15.02243 9.78347 6.13498 5.50743 6.86415 10.44121 17.10257 10.59153 4.75568 0.0694 10.8699-2.47671 15.625-2.375 3.45431 0.0739 7.91989 1.76136 11.37472 1.80469 3.82065 0.0479 8.80523-1.59659 12.62528-1.67969 3.9546-0.086 9.18091 1.32869 13.13322 1.16885 4.55145-0.18407 12.42056-2.84343 15.11678-2.54385 7.14465 0.79385 16.92738 4.75193 16.625-11.5-24.68961 0.47675-58.09776 16.57777-81.62212 3.0562-24.87489-14.29783-43.14846-14.25255-35.00288-8.3062z" style="fill:#b93800;stroke-linecap:square;stroke-linejoin:round;stroke-width:.5;stroke:#000000"/>
   <path id="path3422" d="m287.4286 585.5897c-1.13278 0.12634-1.29541 2.0335-0.0625 2.9375 7.25959 5.32292 23.625 18.5 23.625 18.5-2.65475 0.39444-7.20927 4.78633 0.375 5v-2.375h5.375c22.43016 19.15573 26.28652 20.04224 64.375 19 21.18764-0.57977 44.35567-1.26856 50.125-12.5h-20.625c-4.0512 1.96065-66.26848 10.39087-75.625-9h-12.625v2c-7.20674-0.30028-24.03208-15.4652-33.5-23-0.57887-0.46068-1.05991-0.60461-1.4375-0.5625z" style="fill:#b93800;stroke-linecap:square;stroke-linejoin:round;stroke-width:.5;stroke:#000000"/>
   <rect id="rect3428" x="319.6161" y="601.9022" width="18" height="5.75" style="fill:#b93800;stroke-linecap:square;stroke-linejoin:round;stroke-width:.5;stroke:#000000"/>
   <rect id="rect3440" x="433.6161" y="580.5272" width="3.125" height="26.125" style="fill:#b93800;stroke-linecap:square;stroke-linejoin:round;stroke-width:.5;stroke:#000000"/>
   <path id="path3432" d="m419.8661 609.6522c-1.44332 1.88082-6.82768 5.32768-9.25 6.5h25.5v-6.5h2.25v-7.5h-18.5z" style="fill:#b93800;stroke-linecap:square;stroke-linejoin:round;stroke-width:.5;stroke:#000000"/>
   <path id="rect3495" d="m418.8036 581.3397v2.71172l4.93594 4.9664-4.93594 4.93594v2.01094h3.83906l4.02188-4.02188 4.05234 4.02188h2.71172v-3.13828l-3.83906-3.8086 3.83906-3.83906v-3.83906h-2.01094l-4.75312 4.75313-4.72266-4.75313z" style="fill:#ef3340"/>
  </g>
 </g>
</svg>
