<?xml version="1.0" encoding="UTF-8"?>
<svg   width="1000" height="500" viewBox="0 0 1000 500" xmlns="http://www.w3.org/2000/svg" xmlns:xlink="http://www.w3.org/1999/xlink"><path fill="#a00000" d="M500 250h500v250H500z"/><g fill="#ffd128"><g fill="#0a2662" fill-rule="evenodd" stroke="#000" stroke-width=".696" color="#000"><path d="M781.22-80.943c-2.973-2.506-6.117-4.82-11.081-5.097 7.479-3.762 12.591-1.956 18.063 1.02M771.9-73.564c-4.803-1.521-9.605-1.94-14.408.614 2.92-7.572 8.198-10.392 16.604-6.911M776-66.884c-5.72.687-8.903 4.5-10.978 9.676 6.243-3.743 11.108-4.016 15.918-4.147M796.31-60.812c-.468 3.548-1.318 7.92-3.98 11.058 6.444-2.208 9.832-5.731 11.527-9.983M971.26-69.699c-6.36 3.85-4.89 8.375-3.457 12.896 2.527-5.197 5.628-7.816 8.757-10.317M566.39-84.189c-6.059.84-10.245 4.833-13.891 7.774 5.968-1.434 10.598-1.824 14.402-.229M568.52-97.329c-1.79-4.237-6.777-8.008-13.891-.588 5.968.06 10.598 3.85 14.402 5.446M576.94-96.741c-1.594-3.643-3.633-6.987-7.47-9.122 5.317.168 10.334.773 11.205 7.412M595.42-108.4c-3.85-.562-7.043-.155-11.291 1.068 1.751-4.384 3.887-8.462 10.018-9.344M590.81-124.68c-2.261-4.117-5.372-6.65-9.54-7.208 4.194-2.576 8.705-3.74 14.787 2.136M599.16-135.7c-.252-3.801-2.806-7.03-8.296-9.53 6.864-.677 11.69.925 13.317 6.11M611.17-133.26c1.041-2.825 2.376-5.322 1.746-10.018 3.545 1.082 4.824 4.7 3.712 10.995M984.42-61.922c-3.728 3.71-2.896 7.989-1.152 12.38 2.074-4.478 4.148-7.372 6.221-9.8M1013.4-74.393c4.99.284 7.874-1.452 8.97-4.903h-10.222M1005.5-60.442c2.922 4.917 7.823 3.19 12.734 1.425-3.725-.792-6.866-2.075-7.895-5.13-3.024.445-4.532 1.74-4.84 3.705zM583.63-64.775c-3.691 1.485-6.466 3.511-9.935 6.83.157-4.902.764-9.724 6.06-13.708" transform="matrix(.95621 0 0 .77667 -3.095 532.84)"/></g><g fill="#ffd214" stroke="#000" color="#000"><path d="M820.47-103.67c-.249 6.362-.1 12.663 11.288 17.289-9.771 6.13-24.584 7.314-39.21 7.314-7.715-12.38-14.878-8.623-15.149 0-2.761-.251-4.076-2.256-8.648-2.256-2.85 0-7.197 11.17 6.267 11.17-6.496 14.986 14.819 11.49 18.535 4.335-3.809 10.124 12.879 10.66 14.939 4.335 3.888-1.021 4.782-4.276 6.64-6.812.05 6.826-1.385 10.319-2.767 13.934 8.773-.888 14.812-8.538 19.918-16.411.395 6.259-1.624 11.167-4.15 15.79 12.343.526 13.957-7.755 15.492-16.1 2.108 3.512 2.411 7.428.83 11.766 9.193-1.431 8.201-8.52 12.458-12.298 3.974-3.528 12.163-1.095 12.163-9.686 0-8.056-13.832-4.078-13.832-12.076 0-4.143 5.036-6.305 9.143-8.972l-6.377-7.13-37.539 5.808zm-43.072 24.603c3.725.589 6.405.734 10.13.346m-12.511 8.567 16.736-.095" fill-rule="evenodd" stroke-width="1.625" transform="matrix(.95621 0 0 .77667 -3.095 532.84)"/><path d="M732.89-109.02c32.537 0 132.76-26.06 157.01-26.06 19.444 0 37.814 3.78 37.814 11.825 0 10.557-36.767 4.759-51.253 4.759-69.945 0-159.39 28.386-188.31 16.16L673.567-74.1c56.098 24.303 86.192-28.811 148.46-28.811 12.649 0 28.144 8.988 35.836-1.34 19.997 29.31 66.918 13.03 99.661 13.03 16.458 0 25.304 3.467 29.276 13.827-30.378 2.584-13.477 17.715-3.767 14.182 5.274 8.3 10.791 12.23 17.282-1.29 2.432 9.022 15.706 4.712 9.703-7.276 7.825-1.923 4.67-12.968.316-14.32 5.464-1.892-2.1-7.784-11.97-6.272 2.225-2.917 2.53-6.371 12.48-7.127-5.233-5.503-13.182-6.823-22.86-5.485 2.156-2.346 4.312-5.765 6.468-9.34-18.842-2.828-16.028 10.974-23.365 10.974-5.71 0-4.878-6.07-13.56-6.07-12.58 0-31.008 20.998-72.253-1.736 46.86 7.537 57.14-13.458 82.489-14.187-10.308-2.959-21.024-2.49-32.371 3.274-2.785-12.93-14.323-17.725-41.446-17.725-33.095 0-72.324 12.883-86.693 12.883-7.376 0-12.87-6.275-25.96-4.934 3.138 3.015 5.956 6.03 5.878 9.045-7.075-6.058-15.402-6.513-23.755-6.853 3.814 3.016 4.213 6.03 4.163 9.046-7.918-5.31-15.837-8.348-23.755-4.934 9.573 4.86 9.818 9.654-10.934 9.654" fill-rule="evenodd" stroke-linecap="round" stroke-width="1.625" transform="matrix(.95621 0 0 .77667 -3.095 532.84)"/><path d="M675.42-74.126c2.514 3.858 2.148 8.52 2.038 13.113-5.141.515-7.707-1.133-10.188-2.85-2.713 6.474-6.734 6.844-11.206 7.411.158-3.136.02-3.136-.51-6.271-3.271 5.593-9.215 8.629-15.28 7.696 1.63-4.095.783-6.805-.256-9.407-2.793 5.364-6.652 9.336-13.498 9.407.544-2.743 1.41-5.365 0-8.837-4.298 8.347-10.205 7.695-15.79 8.837 1.902-3.04 2.846-6.081 2.037-9.122-6.052 5.12-12.28 7.4-19.688 5.4 2.776-1.796 5.434-3.725 6.571-7.356-4.578 2.746-14.089 4.7-12.204-3.852-2.244 9.114-12.208 5.982-12.517-1.051-6.302 2.368-14.263-3.367-9.387-15.06-6.896-4.777 1.309-19.554 8.242-10.451 4.152-3.975 9.513-6.214 9.513 1.908 0 15.146 28.645 24.376 35.884 10.66-7.642 3.19-14.608 4.494-18.154-3.775 3.235-.48 6.397-1.124 8.279-4.634-10.685 2.586-14.306-1.253-13.972-8.688 2.948.666 5.757.558 8.02-2.606-4.047 2.16-5.812-2.603-1.517-4.213-11.008 6.491-10.802-8.962-8.298-10.312-9.967-4.37-1.708-14.43 4.35-13.353-4.337-5.473 10.723-16.457 11.153-2.479 7.014-4.74 13.683 2.662 6.628 8.594-9.713 8.169 2.88 27.061 6.823 30.936 8.156 8.014 17.626 10.99 28.798 11.672l19.865-.739 4.264 9.423z" stroke-width="1.508" transform="matrix(.95621 0 0 .77667 -3.095 532.84)"/></g><g fill="none" stroke="#000" color="#000"><g stroke-width="1.508"><path d="M582.38-72.658c-2.72.231-5.328.615-7.45 1.65M583.63-76.835c-7.074-1.297-10.956-9.118-18.09-9.233M573.78-96.52l9.852 11.236M593.54-118.18c2.634-1.953 4.318 1.053 6.274 2.638M597.89-131.53c2.526 1.29 4.304 5.416 3.175 8.688M608.95-133.07c.58.849 1.9 5.324 1.562 10.571" transform="matrix(.95621 0 0 .77667 -3.095 532.84)"/></g><path d="M605.45-77.216c14.106 2.659 29.034 1.579 42.222-1.929" stroke-width="1.591" transform="matrix(.95621 0 0 .77667 -3.095 532.84)"/></g><path d="M676.25-133.33c2.965-7.603 9.342-15.892 8.843 2.2 4.254-5.737 8.737-6.52 5.185 4.888 5.2-5.573 7.475-1.14 2.348 10.142 7.127-3.392 6.37 16.236-1.997 14.857 2.246 10.835-.9 22.353-7.568 13.176 5.176 7.66-5.328 22.669-9.67 11.059-4.625 9.162-9.25 13.71-13.874.47-5.307 11.265-16.06-1.89-9.67-9.412-7.209 7.92-8.156-6.481-.938-13.665l-.134-.276c-6.378 1.855-1.517-10.454 2.684-9.662.455-2.08.01-3.328.634-4.409-7.9-3.625-.878-24.044 6.11-14.46 1.51-9.612 3.745-14.709 8.032-4.105 3.767-13.403 8.266-11.116 10.016-.803z" fill="#ffd214" fill-rule="evenodd" stroke="#000" stroke-width="1.393" transform="matrix(.95621 0 0 .77667 -3.095 532.84)"/><g fill="none" stroke="#000" color="#000"><path d="M655.59-124.34c-2.666-4.056-3.76 2.68-1.843 5.932M690.39-110.93c4.467-2.68 2.57 4.223.692 6.19" stroke-linecap="square" stroke-width="1.508" transform="matrix(.95621 0 0 .77667 -3.095 532.84)"/><path d="M661.21-125.08c3.873 4.33 7.346 5.086 10.664 4.447-3.608 8.665-11.445 7.711-10.664-4.447z" stroke-width="1.409" transform="matrix(.95621 0 0 .77667 -3.095 532.84)"/></g><g fill-rule="evenodd"><path d="M634.956 440.781a1.4 2.363 0 1 1-2.8 0 1.4 2.363 0 1 1 2.8 0z" color="#000" fill="#000"/><g stroke="#000"><path d="M667.84-108.46c3.133-.868 5.641.009 7.327 3.19-1.386 2.17-3.5 3.8-5.97 5.163.005-2.784.675-5.568-1.357-8.353z" color="#000" fill="#000" stroke-width="1.493" transform="matrix(.95621 0 0 .77667 -3.095 532.84)"/><path d="M661.08-99.089c-.938 3.8-.702 8.213-4.494 12.013 6.969-.753 11.453.749 16.968 5.42-1.046-5.227.162-9.967 4.444-15.194-5.31 4.82-6.174-.203-8.916-2.63-2.667.745-5.335 1.187-8.002.39z" fill="#a00000" stroke-width="1.393" transform="matrix(.95621 0 0 .77667 -3.095 532.84)"/><path d="M662.9-98.886c-.04 7.908-.981 12.86-1.902 19.289 4.866-4.548 7.977-5.444 13.727-15.421-2.459-1.049-4.071-3.045-5.458-5.294-1.837 1.034-3.816 1.79-6.367 1.425z" fill="#0a2662" stroke-width=".928" transform="matrix(.95621 0 0 .77667 -3.095 532.84)"/></g></g><g fill="none" stroke="#000" color="#000"><path d="M653.54-107.57h4.245c-.148 10.008 5.163 9.83 11.744 7.285 4.834 7.347 7.946 6.741 9.763.158 4.693 5.829 7.11 3.28 9.197-.475" stroke-width="1.508" transform="matrix(.95621 0 0 .77667 -3.095 532.84)"/><g stroke-width="1.625"><path d="M844.89-109.79c7.282-.192 11.012 2.151 12.971 5.537M987.81-72.74c.188 4.24-1.521 5.736-4.808 9.394M996.34-76.712c0 5.69 3.363 6.12 3.963 12.142M1002.2-79.53c.956 3.81.1 7.976 7.719 7.939" transform="matrix(.95621 0 0 .77667 -3.095 532.84)"/></g></g><path d="M1010.5-86.068c-3.413-.08-4.59.675-6.467 1.167" color="#000" fill-rule="evenodd" stroke="#000" stroke-width="1.625" transform="matrix(.95621 0 0 .77667 -3.095 532.84)"/><path d="M733.09-109.02c-34.866 0-13.085-24.581-25.794-36.18 1.34.222 9.6-.834 10.962 13.019 4.871-4.546 12.485-9.372 23.118-10.573 28.068-3.17 92.008 4.963 108.61 4.963 29.472 0 43.848-23.51 61.028-20.523-9.272 4.53-16.052 15.063-24.011 18.338 14.777 0 56.177-20.594 74.57-7.035-33.238-4.102-59.618 25.676-84.285 17.908 1.664 1.917 4.134 3.232 8.079 3.447-14.827 10.135-22.834-2.305-61.956-8.787-18.046-2.99-41.047-3.543-72.298-3.543-30.23 0-43.947 22.1-18.022 22.1" color="#000" fill="#ffd214" fill-rule="evenodd" stroke="#000" stroke-linecap="round" stroke-width="1.625" transform="matrix(.95621 0 0 .77667 -3.095 532.84)"/><g fill="none" stroke="#000" color="#000"><path d="M798.09-68.506c-1.758.463-4.089 1.57-4.763 3.095M806.59-66.5c-.02 2.389.684 3.973 1.895 4.987" stroke-width="1.625" transform="matrix(.95621 0 0 .77667 -3.095 532.84)"/><path d="M687.86-111.6c-5.153-.689-7.935-3.411-9.791-6.928-2.67 9.186 3.163 15.835 9.791 6.928z" stroke-width="1.409" transform="matrix(.95621 0 0 .77667 -3.095 532.84)"/></g><path d="M647.052 445.2a2.336 1.415-43.583 1 0 1.883 2.115 2.336 1.415-43.583 1 0-1.883-2.114z" color="#000" fill="#000" fill-rule="evenodd"/><g><g fill="#0a2662" fill-rule="evenodd" stroke="#000" stroke-width=".696" color="#000"><path d="M781.22-80.943c-2.973-2.506-6.117-4.82-11.081-5.097 7.479-3.762 12.591-1.956 18.063 1.02M771.9-73.564c-4.803-1.521-9.605-1.94-14.408.614 2.92-7.572 8.198-10.392 16.604-6.911M776-66.884c-5.72.687-8.903 4.5-10.978 9.676 6.243-3.743 11.108-4.016 15.918-4.147M796.31-60.812c-.468 3.548-1.318 7.92-3.98 11.058 6.444-2.208 9.832-5.731 11.527-9.983M971.26-69.699c-6.36 3.85-4.89 8.375-3.457 12.896 2.527-5.197 5.628-7.816 8.757-10.317M566.39-84.189c-6.059.84-10.245 4.833-13.891 7.774 5.968-1.434 10.598-1.824 14.402-.229M568.52-97.329c-1.79-4.237-6.777-8.008-13.891-.588 5.968.06 10.598 3.85 14.402 5.446M576.94-96.741c-1.594-3.643-3.633-6.987-7.47-9.122 5.317.168 10.334.773 11.205 7.412M595.42-108.4c-3.85-.562-7.043-.155-11.291 1.068 1.751-4.384 3.887-8.462 10.018-9.344M590.81-124.68c-2.261-4.117-5.372-6.65-9.54-7.208 4.194-2.576 8.705-3.74 14.787 2.136M599.16-135.7c-.252-3.801-2.806-7.03-8.296-9.53 6.864-.677 11.69.925 13.317 6.11M611.17-133.26c1.041-2.825 2.376-5.322 1.746-10.018 3.545 1.082 4.824 4.7 3.712 10.995M984.42-61.922c-3.728 3.71-2.896 7.989-1.152 12.38 2.074-4.478 4.148-7.372 6.221-9.8M1013.4-74.393c4.99.284 7.874-1.452 8.97-4.903h-10.222M1005.5-60.442c2.922 4.917 7.823 3.19 12.734 1.425-3.725-.792-6.866-2.075-7.895-5.13-3.024.445-4.532 1.74-4.84 3.705zM583.63-64.775c-3.691 1.485-6.466 3.511-9.935 6.83.157-4.902.764-9.724 6.06-13.708" transform="matrix(.95621 0 0 .77667 -3.095 378.8)"/></g><g fill="#ffd214" stroke="#000" color="#000"><path d="M820.47-103.67c-.249 6.362-.1 12.663 11.288 17.289-9.771 6.13-24.584 7.314-39.21 7.314-7.715-12.38-14.878-8.623-15.149 0-2.761-.251-4.076-2.256-8.648-2.256-2.85 0-7.197 11.17 6.267 11.17-6.496 14.986 14.819 11.49 18.535 4.335-3.809 10.124 12.879 10.66 14.939 4.335 3.888-1.021 4.782-4.276 6.64-6.812.05 6.826-1.385 10.319-2.767 13.934 8.773-.888 14.812-8.538 19.918-16.411.395 6.259-1.624 11.167-4.15 15.79 12.343.526 13.957-7.755 15.492-16.1 2.108 3.512 2.411 7.428.83 11.766 9.193-1.431 8.201-8.52 12.458-12.298 3.974-3.528 12.163-1.095 12.163-9.686 0-8.056-13.832-4.078-13.832-12.076 0-4.143 5.036-6.305 9.143-8.972l-6.377-7.13-37.539 5.808zm-43.072 24.603c3.725.589 6.405.734 10.13.346m-12.511 8.567 16.736-.095" fill-rule="evenodd" stroke-width="1.625" transform="matrix(.95621 0 0 .77667 -3.095 378.8)"/><path d="M732.89-109.02c32.537 0 132.76-26.06 157.01-26.06 19.444 0 37.814 3.78 37.814 11.825 0 10.557-36.767 4.759-51.253 4.759-69.945 0-159.39 28.386-188.31 16.16L673.567-74.1c56.098 24.303 86.192-28.811 148.46-28.811 12.649 0 28.144 8.988 35.836-1.34 19.997 29.31 66.918 13.03 99.661 13.03 16.458 0 25.304 3.467 29.276 13.827-30.378 2.584-13.477 17.715-3.767 14.182 5.274 8.3 10.791 12.23 17.282-1.29 2.432 9.022 15.706 4.712 9.703-7.276 7.825-1.923 4.67-12.968.316-14.32 5.464-1.892-2.1-7.784-11.97-6.272 2.225-2.917 2.53-6.371 12.48-7.127-5.233-5.503-13.182-6.823-22.86-5.485 2.156-2.346 4.312-5.765 6.468-9.34-18.842-2.828-16.028 10.974-23.365 10.974-5.71 0-4.878-6.07-13.56-6.07-12.58 0-31.008 20.998-72.253-1.736 46.86 7.537 57.14-13.458 82.489-14.187-10.308-2.959-21.024-2.49-32.371 3.274-2.785-12.93-14.323-17.725-41.446-17.725-33.095 0-72.324 12.883-86.693 12.883-7.376 0-12.87-6.275-25.96-4.934 3.138 3.015 5.956 6.03 5.878 9.045-7.075-6.058-15.402-6.513-23.755-6.853 3.814 3.016 4.213 6.03 4.163 9.046-7.918-5.31-15.837-8.348-23.755-4.934 9.573 4.86 9.818 9.654-10.934 9.654" fill-rule="evenodd" stroke-linecap="round" stroke-width="1.625" transform="matrix(.95621 0 0 .77667 -3.095 378.8)"/><path d="M675.42-74.126c2.514 3.858 2.148 8.52 2.038 13.113-5.141.515-7.707-1.133-10.188-2.85-2.713 6.474-6.734 6.844-11.206 7.411.158-3.136.02-3.136-.51-6.271-3.271 5.593-9.215 8.629-15.28 7.696 1.63-4.095.783-6.805-.256-9.407-2.793 5.364-6.652 9.336-13.498 9.407.544-2.743 1.41-5.365 0-8.837-4.298 8.347-10.205 7.695-15.79 8.837 1.902-3.04 2.846-6.081 2.037-9.122-6.052 5.12-12.28 7.4-19.688 5.4 2.776-1.796 5.434-3.725 6.571-7.356-4.578 2.746-14.089 4.7-12.204-3.852-2.244 9.114-12.208 5.982-12.517-1.051-6.302 2.368-14.263-3.367-9.387-15.06-6.896-4.777 1.309-19.554 8.242-10.451 4.152-3.975 9.513-6.214 9.513 1.908 0 15.146 28.645 24.376 35.884 10.66-7.642 3.19-14.608 4.494-18.154-3.775 3.235-.48 6.397-1.124 8.279-4.634-10.685 2.586-14.306-1.253-13.972-8.688 2.948.666 5.757.558 8.02-2.606-4.047 2.16-5.812-2.603-1.517-4.213-11.008 6.491-10.802-8.962-8.298-10.312-9.967-4.37-1.708-14.43 4.35-13.353-4.337-5.473 10.723-16.457 11.153-2.479 7.014-4.74 13.683 2.662 6.628 8.594-9.713 8.169 2.88 27.061 6.823 30.936 8.156 8.014 17.626 10.99 28.798 11.672l19.865-.739 4.264 9.423z" stroke-width="1.508" transform="matrix(.95621 0 0 .77667 -3.095 378.8)"/></g><g fill="none" stroke="#000" color="#000"><g stroke-width="1.508"><path d="M582.38-72.658c-2.72.231-5.328.615-7.45 1.65M583.63-76.835c-7.074-1.297-10.956-9.118-18.09-9.233M573.78-96.52l9.852 11.236M593.54-118.18c2.634-1.953 4.318 1.053 6.274 2.638M597.89-131.53c2.526 1.29 4.304 5.416 3.175 8.688M608.95-133.07c.58.849 1.9 5.324 1.562 10.571" transform="matrix(.95621 0 0 .77667 -3.095 378.8)"/></g><path d="M605.45-77.216c14.106 2.659 29.034 1.579 42.222-1.929" stroke-width="1.591" transform="matrix(.95621 0 0 .77667 -3.095 378.8)"/></g><path d="M676.25-133.33c2.965-7.603 9.342-15.892 8.843 2.2 4.254-5.737 8.737-6.52 5.185 4.888 5.2-5.573 7.475-1.14 2.348 10.142 7.127-3.392 6.37 16.236-1.997 14.857 2.246 10.835-.9 22.353-7.568 13.176 5.176 7.66-5.328 22.669-9.67 11.059-4.625 9.162-9.25 13.71-13.874.47-5.307 11.265-16.06-1.89-9.67-9.412-7.209 7.92-8.156-6.481-.938-13.665l-.134-.276c-6.378 1.855-1.517-10.454 2.684-9.662.455-2.08.01-3.328.634-4.409-7.9-3.625-.878-24.044 6.11-14.46 1.51-9.612 3.745-14.709 8.032-4.105 3.767-13.403 8.266-11.116 10.016-.803z" fill="#ffd214" fill-rule="evenodd" stroke="#000" stroke-width="1.393" transform="matrix(.95621 0 0 .77667 -3.095 378.8)"/><g fill="none" stroke="#000" color="#000"><path d="M655.59-124.34c-2.666-4.056-3.76 2.68-1.843 5.932M690.39-110.93c4.467-2.68 2.57 4.223.692 6.19" stroke-linecap="square" stroke-width="1.508" transform="matrix(.95621 0 0 .77667 -3.095 378.8)"/><path d="M661.21-125.08c3.873 4.33 7.346 5.086 10.664 4.447-3.608 8.665-11.445 7.711-10.664-4.447z" stroke-width="1.409" transform="matrix(.95621 0 0 .77667 -3.095 378.8)"/></g><g fill-rule="evenodd"><path d="M634.956 286.741a1.4 2.363 0 1 1-2.8 0 1.4 2.363 0 1 1 2.8 0z" color="#000" fill="#000"/><g stroke="#000"><path d="M667.84-108.46c3.133-.868 5.641.009 7.327 3.19-1.386 2.17-3.5 3.8-5.97 5.163.005-2.784.675-5.568-1.357-8.353z" color="#000" fill="#000" stroke-width="1.493" transform="matrix(.95621 0 0 .77667 -3.095 378.8)"/><path d="M661.08-99.089c-.938 3.8-.702 8.213-4.494 12.013 6.969-.753 11.453.749 16.968 5.42-1.046-5.227.162-9.967 4.444-15.194-5.31 4.82-6.174-.203-8.916-2.63-2.667.745-5.335 1.187-8.002.39z" fill="#a00000" stroke-width="1.393" transform="matrix(.95621 0 0 .77667 -3.095 378.8)"/><path d="M662.9-98.886c-.04 7.908-.981 12.86-1.902 19.289 4.866-4.548 7.977-5.444 13.727-15.421-2.459-1.049-4.071-3.045-5.458-5.294-1.837 1.034-3.816 1.79-6.367 1.425z" fill="#0a2662" stroke-width=".928" transform="matrix(.95621 0 0 .77667 -3.095 378.8)"/></g></g><g fill="none" stroke="#000" color="#000"><path d="M653.54-107.57h4.245c-.148 10.008 5.163 9.83 11.744 7.285 4.834 7.347 7.946 6.741 9.763.158 4.693 5.829 7.11 3.28 9.197-.475" stroke-width="1.508" transform="matrix(.95621 0 0 .77667 -3.095 378.8)"/><g stroke-width="1.625"><path d="M844.89-109.79c7.282-.192 11.012 2.151 12.971 5.537M987.81-72.74c.188 4.24-1.521 5.736-4.808 9.394M996.34-76.712c0 5.69 3.363 6.12 3.963 12.142M1002.2-79.53c.956 3.81.1 7.976 7.719 7.939" transform="matrix(.95621 0 0 .77667 -3.095 378.8)"/></g></g><path d="M1010.5-86.068c-3.413-.08-4.59.675-6.467 1.167" color="#000" fill-rule="evenodd" stroke="#000" stroke-width="1.625" transform="matrix(.95621 0 0 .77667 -3.095 378.8)"/><path d="M733.09-109.02c-34.866 0-13.085-24.581-25.794-36.18 1.34.222 9.6-.834 10.962 13.019 4.871-4.546 12.485-9.372 23.118-10.573 28.068-3.17 92.008 4.963 108.61 4.963 29.472 0 43.848-23.51 61.028-20.523-9.272 4.53-16.052 15.063-24.011 18.338 14.777 0 56.177-20.594 74.57-7.035-33.238-4.102-59.618 25.676-84.285 17.908 1.664 1.917 4.134 3.232 8.079 3.447-14.827 10.135-22.834-2.305-61.956-8.787-18.046-2.99-41.047-3.543-72.298-3.543-30.23 0-43.947 22.1-18.022 22.1" color="#000" fill="#ffd214" fill-rule="evenodd" stroke="#000" stroke-linecap="round" stroke-width="1.625" transform="matrix(.95621 0 0 .77667 -3.095 378.8)"/><g fill="none" stroke="#000" color="#000"><path d="M798.09-68.506c-1.758.463-4.089 1.57-4.763 3.095M806.59-66.5c-.02 2.389.684 3.973 1.895 4.987" stroke-width="1.625" transform="matrix(.95621 0 0 .77667 -3.095 378.8)"/><path d="M687.86-111.6c-5.153-.689-7.935-3.411-9.791-6.928-2.67 9.186 3.163 15.835 9.791 6.928z" stroke-width="1.409" transform="matrix(.95621 0 0 .77667 -3.095 378.8)"/></g><path d="M647.052 291.16a2.336 1.415-43.583 1 0 1.883 2.115 2.336 1.415-43.583 1 0-1.883-2.114z" color="#000" fill="#000" fill-rule="evenodd"/></g><g><g fill="#0a2662" fill-rule="evenodd" stroke="#000" stroke-width=".696" color="#000"><path d="M781.22-80.943c-2.973-2.506-6.117-4.82-11.081-5.097 7.479-3.762 12.591-1.956 18.063 1.02M771.9-73.564c-4.803-1.521-9.605-1.94-14.408.614 2.92-7.572 8.198-10.392 16.604-6.911M776-66.884c-5.72.687-8.903 4.5-10.978 9.676 6.243-3.743 11.108-4.016 15.918-4.147M796.31-60.812c-.468 3.548-1.318 7.92-3.98 11.058 6.444-2.208 9.832-5.731 11.527-9.983M971.26-69.699c-6.36 3.85-4.89 8.375-3.457 12.896 2.527-5.197 5.628-7.816 8.757-10.317M566.39-84.189c-6.059.84-10.245 4.833-13.891 7.774 5.968-1.434 10.598-1.824 14.402-.229M568.52-97.329c-1.79-4.237-6.777-8.008-13.891-.588 5.968.06 10.598 3.85 14.402 5.446M576.94-96.741c-1.594-3.643-3.633-6.987-7.47-9.122 5.317.168 10.334.773 11.205 7.412M595.42-108.4c-3.85-.562-7.043-.155-11.291 1.068 1.751-4.384 3.887-8.462 10.018-9.344M590.81-124.68c-2.261-4.117-5.372-6.65-9.54-7.208 4.194-2.576 8.705-3.74 14.787 2.136M599.16-135.7c-.252-3.801-2.806-7.03-8.296-9.53 6.864-.677 11.69.925 13.317 6.11M611.17-133.26c1.041-2.825 2.376-5.322 1.746-10.018 3.545 1.082 4.824 4.7 3.712 10.995M984.42-61.922c-3.728 3.71-2.896 7.989-1.152 12.38 2.074-4.478 4.148-7.372 6.221-9.8M1013.4-74.393c4.99.284 7.874-1.452 8.97-4.903h-10.222M1005.5-60.442c2.922 4.917 7.823 3.19 12.734 1.425-3.725-.792-6.866-2.075-7.895-5.13-3.024.445-4.532 1.74-4.84 3.705zM583.63-64.775c-3.691 1.485-6.466 3.511-9.935 6.83.157-4.902.764-9.724 6.06-13.708" transform="matrix(.95621 0 0 .77667 -3.095 455.84)"/></g><g fill="#ffd214" stroke="#000" color="#000"><path d="M820.47-103.67c-.249 6.362-.1 12.663 11.288 17.289-9.771 6.13-24.584 7.314-39.21 7.314-7.715-12.38-14.878-8.623-15.149 0-2.761-.251-4.076-2.256-8.648-2.256-2.85 0-7.197 11.17 6.267 11.17-6.496 14.986 14.819 11.49 18.535 4.335-3.809 10.124 12.879 10.66 14.939 4.335 3.888-1.021 4.782-4.276 6.64-6.812.05 6.826-1.385 10.319-2.767 13.934 8.773-.888 14.812-8.538 19.918-16.411.395 6.259-1.624 11.167-4.15 15.79 12.343.526 13.957-7.755 15.492-16.1 2.108 3.512 2.411 7.428.83 11.766 9.193-1.431 8.201-8.52 12.458-12.298 3.974-3.528 12.163-1.095 12.163-9.686 0-8.056-13.832-4.078-13.832-12.076 0-4.143 5.036-6.305 9.143-8.972l-6.377-7.13-37.539 5.808zm-43.072 24.603c3.725.589 6.405.734 10.13.346m-12.511 8.567 16.736-.095" fill-rule="evenodd" stroke-width="1.625" transform="matrix(.95621 0 0 .77667 -3.095 455.84)"/><path d="M732.89-109.02c32.537 0 132.76-26.06 157.01-26.06 19.444 0 37.814 3.78 37.814 11.825 0 10.557-36.767 4.759-51.253 4.759-69.945 0-159.39 28.386-188.31 16.16L673.567-74.1c56.098 24.303 86.192-28.811 148.46-28.811 12.649 0 28.144 8.988 35.836-1.34 19.997 29.31 66.918 13.03 99.661 13.03 16.458 0 25.304 3.467 29.276 13.827-30.378 2.584-13.477 17.715-3.767 14.182 5.274 8.3 10.791 12.23 17.282-1.29 2.432 9.022 15.706 4.712 9.703-7.276 7.825-1.923 4.67-12.968.316-14.32 5.464-1.892-2.1-7.784-11.97-6.272 2.225-2.917 2.53-6.371 12.48-7.127-5.233-5.503-13.182-6.823-22.86-5.485 2.156-2.346 4.312-5.765 6.468-9.34-18.842-2.828-16.028 10.974-23.365 10.974-5.71 0-4.878-6.07-13.56-6.07-12.58 0-31.008 20.998-72.253-1.736 46.86 7.537 57.14-13.458 82.489-14.187-10.308-2.959-21.024-2.49-32.371 3.274-2.785-12.93-14.323-17.725-41.446-17.725-33.095 0-72.324 12.883-86.693 12.883-7.376 0-12.87-6.275-25.96-4.934 3.138 3.015 5.956 6.03 5.878 9.045-7.075-6.058-15.402-6.513-23.755-6.853 3.814 3.016 4.213 6.03 4.163 9.046-7.918-5.31-15.837-8.348-23.755-4.934 9.573 4.86 9.818 9.654-10.934 9.654" fill-rule="evenodd" stroke-linecap="round" stroke-width="1.625" transform="matrix(.95621 0 0 .77667 -3.095 455.84)"/><path d="M675.42-74.126c2.514 3.858 2.148 8.52 2.038 13.113-5.141.515-7.707-1.133-10.188-2.85-2.713 6.474-6.734 6.844-11.206 7.411.158-3.136.02-3.136-.51-6.271-3.271 5.593-9.215 8.629-15.28 7.696 1.63-4.095.783-6.805-.256-9.407-2.793 5.364-6.652 9.336-13.498 9.407.544-2.743 1.41-5.365 0-8.837-4.298 8.347-10.205 7.695-15.79 8.837 1.902-3.04 2.846-6.081 2.037-9.122-6.052 5.12-12.28 7.4-19.688 5.4 2.776-1.796 5.434-3.725 6.571-7.356-4.578 2.746-14.089 4.7-12.204-3.852-2.244 9.114-12.208 5.982-12.517-1.051-6.302 2.368-14.263-3.367-9.387-15.06-6.896-4.777 1.309-19.554 8.242-10.451 4.152-3.975 9.513-6.214 9.513 1.908 0 15.146 28.645 24.376 35.884 10.66-7.642 3.19-14.608 4.494-18.154-3.775 3.235-.48 6.397-1.124 8.279-4.634-10.685 2.586-14.306-1.253-13.972-8.688 2.948.666 5.757.558 8.02-2.606-4.047 2.16-5.812-2.603-1.517-4.213-11.008 6.491-10.802-8.962-8.298-10.312-9.967-4.37-1.708-14.43 4.35-13.353-4.337-5.473 10.723-16.457 11.153-2.479 7.014-4.74 13.683 2.662 6.628 8.594-9.713 8.169 2.88 27.061 6.823 30.936 8.156 8.014 17.626 10.99 28.798 11.672l19.865-.739 4.264 9.423z" stroke-width="1.508" transform="matrix(.95621 0 0 .77667 -3.095 455.84)"/></g><g fill="none" stroke="#000" color="#000"><g stroke-width="1.508"><path d="M582.38-72.658c-2.72.231-5.328.615-7.45 1.65M583.63-76.835c-7.074-1.297-10.956-9.118-18.09-9.233M573.78-96.52l9.852 11.236M593.54-118.18c2.634-1.953 4.318 1.053 6.274 2.638M597.89-131.53c2.526 1.29 4.304 5.416 3.175 8.688M608.95-133.07c.58.849 1.9 5.324 1.562 10.571" transform="matrix(.95621 0 0 .77667 -3.095 455.84)"/></g><path d="M605.45-77.216c14.106 2.659 29.034 1.579 42.222-1.929" stroke-width="1.591" transform="matrix(.95621 0 0 .77667 -3.095 455.84)"/></g><path d="M676.25-133.33c2.965-7.603 9.342-15.892 8.843 2.2 4.254-5.737 8.737-6.52 5.185 4.888 5.2-5.573 7.475-1.14 2.348 10.142 7.127-3.392 6.37 16.236-1.997 14.857 2.246 10.835-.9 22.353-7.568 13.176 5.176 7.66-5.328 22.669-9.67 11.059-4.625 9.162-9.25 13.71-13.874.47-5.307 11.265-16.06-1.89-9.67-9.412-7.209 7.92-8.156-6.481-.938-13.665l-.134-.276c-6.378 1.855-1.517-10.454 2.684-9.662.455-2.08.01-3.328.634-4.409-7.9-3.625-.878-24.044 6.11-14.46 1.51-9.612 3.745-14.709 8.032-4.105 3.767-13.403 8.266-11.116 10.016-.803z" fill="#ffd214" fill-rule="evenodd" stroke="#000" stroke-width="1.393" transform="matrix(.95621 0 0 .77667 -3.095 455.84)"/><g fill="none" stroke="#000" color="#000"><path d="M655.59-124.34c-2.666-4.056-3.76 2.68-1.843 5.932M690.39-110.93c4.467-2.68 2.57 4.223.692 6.19" stroke-linecap="square" stroke-width="1.508" transform="matrix(.95621 0 0 .77667 -3.095 455.84)"/><path d="M661.21-125.08c3.873 4.33 7.346 5.086 10.664 4.447-3.608 8.665-11.445 7.711-10.664-4.447z" stroke-width="1.409" transform="matrix(.95621 0 0 .77667 -3.095 455.84)"/></g><g fill-rule="evenodd"><path d="M634.956 363.781a1.4 2.363 0 1 1-2.8 0 1.4 2.363 0 1 1 2.8 0z" color="#000" fill="#000"/><g stroke="#000"><path d="M667.84-108.46c3.133-.868 5.641.009 7.327 3.19-1.386 2.17-3.5 3.8-5.97 5.163.005-2.784.675-5.568-1.357-8.353z" color="#000" fill="#000" stroke-width="1.493" transform="matrix(.95621 0 0 .77667 -3.095 455.84)"/><path d="M661.08-99.089c-.938 3.8-.702 8.213-4.494 12.013 6.969-.753 11.453.749 16.968 5.42-1.046-5.227.162-9.967 4.444-15.194-5.31 4.82-6.174-.203-8.916-2.63-2.667.745-5.335 1.187-8.002.39z" fill="#a00000" stroke-width="1.393" transform="matrix(.95621 0 0 .77667 -3.095 455.84)"/><path d="M662.9-98.886c-.04 7.908-.981 12.86-1.902 19.289 4.866-4.548 7.977-5.444 13.727-15.421-2.459-1.049-4.071-3.045-5.458-5.294-1.837 1.034-3.816 1.79-6.367 1.425z" fill="#0a2662" stroke-width=".928" transform="matrix(.95621 0 0 .77667 -3.095 455.84)"/></g></g><g fill="none" stroke="#000" color="#000"><path d="M653.54-107.57h4.245c-.148 10.008 5.163 9.83 11.744 7.285 4.834 7.347 7.946 6.741 9.763.158 4.693 5.829 7.11 3.28 9.197-.475" stroke-width="1.508" transform="matrix(.95621 0 0 .77667 -3.095 455.84)"/><g stroke-width="1.625"><path d="M844.89-109.79c7.282-.192 11.012 2.151 12.971 5.537M987.81-72.74c.188 4.24-1.521 5.736-4.808 9.394M996.34-76.712c0 5.69 3.363 6.12 3.963 12.142M1002.2-79.53c.956 3.81.1 7.976 7.719 7.939" transform="matrix(.95621 0 0 .77667 -3.095 455.84)"/></g></g><path d="M1010.5-86.068c-3.413-.08-4.59.675-6.467 1.167" color="#000" fill-rule="evenodd" stroke="#000" stroke-width="1.625" transform="matrix(.95621 0 0 .77667 -3.095 455.84)"/><path d="M733.09-109.02c-34.866 0-13.085-24.581-25.794-36.18 1.34.222 9.6-.834 10.962 13.019 4.871-4.546 12.485-9.372 23.118-10.573 28.068-3.17 92.008 4.963 108.61 4.963 29.472 0 43.848-23.51 61.028-20.523-9.272 4.53-16.052 15.063-24.011 18.338 14.777 0 56.177-20.594 74.57-7.035-33.238-4.102-59.618 25.676-84.285 17.908 1.664 1.917 4.134 3.232 8.079 3.447-14.827 10.135-22.834-2.305-61.956-8.787-18.046-2.99-41.047-3.543-72.298-3.543-30.23 0-43.947 22.1-18.022 22.1" color="#000" fill="#ffd214" fill-rule="evenodd" stroke="#000" stroke-linecap="round" stroke-width="1.625" transform="matrix(.95621 0 0 .77667 -3.095 455.84)"/><g fill="none" stroke="#000" color="#000"><path d="M798.09-68.506c-1.758.463-4.089 1.57-4.763 3.095M806.59-66.5c-.02 2.389.684 3.973 1.895 4.987" stroke-width="1.625" transform="matrix(.95621 0 0 .77667 -3.095 455.84)"/><path d="M687.86-111.6c-5.153-.689-7.935-3.411-9.791-6.928-2.67 9.186 3.163 15.835 9.791 6.928z" stroke-width="1.409" transform="matrix(.95621 0 0 .77667 -3.095 455.84)"/></g><path d="M647.052 368.2a2.336 1.415-43.583 1 0 1.883 2.115 2.336 1.415-43.583 1 0-1.883-2.114z" color="#000" fill="#000" fill-rule="evenodd"/></g></g><path fill="#a00000" d="M0 0h500v250H0z"/><g fill="#ffd128"><g fill="#0a2662" fill-rule="evenodd" stroke="#000" stroke-width=".696" color="#000"><path d="M781.22-80.943c-2.973-2.506-6.117-4.82-11.081-5.097 7.479-3.762 12.591-1.956 18.063 1.02M771.9-73.564c-4.803-1.521-9.605-1.94-14.408.614 2.92-7.572 8.198-10.392 16.604-6.911M776-66.884c-5.72.687-8.903 4.5-10.978 9.676 6.243-3.743 11.108-4.016 15.918-4.147M796.31-60.812c-.468 3.548-1.318 7.92-3.98 11.058 6.444-2.208 9.832-5.731 11.527-9.983M971.26-69.699c-6.36 3.85-4.89 8.375-3.457 12.896 2.527-5.197 5.628-7.816 8.757-10.317M566.39-84.189c-6.059.84-10.245 4.833-13.891 7.774 5.968-1.434 10.598-1.824 14.402-.229M568.52-97.329c-1.79-4.237-6.777-8.008-13.891-.588 5.968.06 10.598 3.85 14.402 5.446M576.94-96.741c-1.594-3.643-3.633-6.987-7.47-9.122 5.317.168 10.334.773 11.205 7.412M595.42-108.4c-3.85-.562-7.043-.155-11.291 1.068 1.751-4.384 3.887-8.462 10.018-9.344M590.81-124.68c-2.261-4.117-5.372-6.65-9.54-7.208 4.194-2.576 8.705-3.74 14.787 2.136M599.16-135.7c-.252-3.801-2.806-7.03-8.296-9.53 6.864-.677 11.69.925 13.317 6.11M611.17-133.26c1.041-2.825 2.376-5.322 1.746-10.018 3.545 1.082 4.824 4.7 3.712 10.995M984.42-61.922c-3.728 3.71-2.896 7.989-1.152 12.38 2.074-4.478 4.148-7.372 6.221-9.8M1013.4-74.393c4.99.284 7.874-1.452 8.97-4.903h-10.222M1005.5-60.442c2.922 4.917 7.823 3.19 12.734 1.425-3.725-.792-6.866-2.075-7.895-5.13-3.024.445-4.532 1.74-4.84 3.705zM583.63-64.775c-3.691 1.485-6.466 3.511-9.935 6.83.157-4.902.764-9.724 6.06-13.708" transform="matrix(.95621 0 0 .77667 -503.09 282.8)"/></g><g fill="#ffd214" stroke="#000" color="#000"><path d="M820.47-103.67c-.249 6.362-.1 12.663 11.288 17.289-9.771 6.13-24.584 7.314-39.21 7.314-7.715-12.38-14.878-8.623-15.149 0-2.761-.251-4.076-2.256-8.648-2.256-2.85 0-7.197 11.17 6.267 11.17-6.496 14.986 14.819 11.49 18.535 4.335-3.809 10.124 12.879 10.66 14.939 4.335 3.888-1.021 4.782-4.276 6.64-6.812.05 6.826-1.385 10.319-2.767 13.934 8.773-.888 14.812-8.538 19.918-16.411.395 6.259-1.624 11.167-4.15 15.79 12.343.526 13.957-7.755 15.492-16.1 2.108 3.512 2.411 7.428.83 11.766 9.193-1.431 8.201-8.52 12.458-12.298 3.974-3.528 12.163-1.095 12.163-9.686 0-8.056-13.832-4.078-13.832-12.076 0-4.143 5.036-6.305 9.143-8.972l-6.377-7.13-37.539 5.808zm-43.072 24.603c3.725.589 6.405.734 10.13.346m-12.511 8.567 16.736-.095" fill-rule="evenodd" stroke-width="1.625" transform="matrix(.95621 0 0 .77667 -503.09 282.8)"/><path d="M732.89-109.02c32.537 0 132.76-26.06 157.01-26.06 19.444 0 37.814 3.78 37.814 11.825 0 10.557-36.767 4.759-51.253 4.759-69.945 0-159.39 28.386-188.31 16.16L673.567-74.1c56.098 24.303 86.192-28.811 148.46-28.811 12.649 0 28.144 8.988 35.836-1.34 19.997 29.31 66.918 13.03 99.661 13.03 16.458 0 25.304 3.467 29.276 13.827-30.378 2.584-13.477 17.715-3.767 14.182 5.274 8.3 10.791 12.23 17.282-1.29 2.432 9.022 15.706 4.712 9.703-7.276 7.825-1.923 4.67-12.968.316-14.32 5.464-1.892-2.1-7.784-11.97-6.272 2.225-2.917 2.53-6.371 12.48-7.127-5.233-5.503-13.182-6.823-22.86-5.485 2.156-2.346 4.312-5.765 6.468-9.34-18.842-2.828-16.028 10.974-23.365 10.974-5.71 0-4.878-6.07-13.56-6.07-12.58 0-31.008 20.998-72.253-1.736 46.86 7.537 57.14-13.458 82.489-14.187-10.308-2.959-21.024-2.49-32.371 3.274-2.785-12.93-14.323-17.725-41.446-17.725-33.095 0-72.324 12.883-86.693 12.883-7.376 0-12.87-6.275-25.96-4.934 3.138 3.015 5.956 6.03 5.878 9.045-7.075-6.058-15.402-6.513-23.755-6.853 3.814 3.016 4.213 6.03 4.163 9.046-7.918-5.31-15.837-8.348-23.755-4.934 9.573 4.86 9.818 9.654-10.934 9.654" fill-rule="evenodd" stroke-linecap="round" stroke-width="1.625" transform="matrix(.95621 0 0 .77667 -503.09 282.8)"/><path d="M675.42-74.126c2.514 3.858 2.148 8.52 2.038 13.113-5.141.515-7.707-1.133-10.188-2.85-2.713 6.474-6.734 6.844-11.206 7.411.158-3.136.02-3.136-.51-6.271-3.271 5.593-9.215 8.629-15.28 7.696 1.63-4.095.783-6.805-.256-9.407-2.793 5.364-6.652 9.336-13.498 9.407.544-2.743 1.41-5.365 0-8.837-4.298 8.347-10.205 7.695-15.79 8.837 1.902-3.04 2.846-6.081 2.037-9.122-6.052 5.12-12.28 7.4-19.688 5.4 2.776-1.796 5.434-3.725 6.571-7.356-4.578 2.746-14.089 4.7-12.204-3.852-2.244 9.114-12.208 5.982-12.517-1.051-6.302 2.368-14.263-3.367-9.387-15.06-6.896-4.777 1.309-19.554 8.242-10.451 4.152-3.975 9.513-6.214 9.513 1.908 0 15.146 28.645 24.376 35.884 10.66-7.642 3.19-14.608 4.494-18.154-3.775 3.235-.48 6.397-1.124 8.279-4.634-10.685 2.586-14.306-1.253-13.972-8.688 2.948.666 5.757.558 8.02-2.606-4.047 2.16-5.812-2.603-1.517-4.213-11.008 6.491-10.802-8.962-8.298-10.312-9.967-4.37-1.708-14.43 4.35-13.353-4.337-5.473 10.723-16.457 11.153-2.479 7.014-4.74 13.683 2.662 6.628 8.594-9.713 8.169 2.88 27.061 6.823 30.936 8.156 8.014 17.626 10.99 28.798 11.672l19.865-.739 4.264 9.423z" stroke-width="1.508" transform="matrix(.95621 0 0 .77667 -503.09 282.8)"/></g><g fill="none" stroke="#000" color="#000"><g stroke-width="1.508"><path d="M582.38-72.658c-2.72.231-5.328.615-7.45 1.65M583.63-76.835c-7.074-1.297-10.956-9.118-18.09-9.233M573.78-96.52l9.852 11.236M593.54-118.18c2.634-1.953 4.318 1.053 6.274 2.638M597.89-131.53c2.526 1.29 4.304 5.416 3.175 8.688M608.95-133.07c.58.849 1.9 5.324 1.562 10.571" transform="matrix(.95621 0 0 .77667 -503.09 282.8)"/></g><path d="M605.45-77.216c14.106 2.659 29.034 1.579 42.222-1.929" stroke-width="1.591" transform="matrix(.95621 0 0 .77667 -503.09 282.8)"/></g><path d="M676.25-133.33c2.965-7.603 9.342-15.892 8.843 2.2 4.254-5.737 8.737-6.52 5.185 4.888 5.2-5.573 7.475-1.14 2.348 10.142 7.127-3.392 6.37 16.236-1.997 14.857 2.246 10.835-.9 22.353-7.568 13.176 5.176 7.66-5.328 22.669-9.67 11.059-4.625 9.162-9.25 13.71-13.874.47-5.307 11.265-16.06-1.89-9.67-9.412-7.209 7.92-8.156-6.481-.938-13.665l-.134-.276c-6.378 1.855-1.517-10.454 2.684-9.662.455-2.08.01-3.328.634-4.409-7.9-3.625-.878-24.044 6.11-14.46 1.51-9.612 3.745-14.709 8.032-4.105 3.767-13.403 8.266-11.116 10.016-.803z" fill="#ffd214" fill-rule="evenodd" stroke="#000" stroke-width="1.393" transform="matrix(.95621 0 0 .77667 -503.09 282.8)"/><g fill="none" stroke="#000" color="#000"><path d="M655.59-124.34c-2.666-4.056-3.76 2.68-1.843 5.932M690.39-110.93c4.467-2.68 2.57 4.223.692 6.19" stroke-linecap="square" stroke-width="1.508" transform="matrix(.95621 0 0 .77667 -503.09 282.8)"/><path d="M661.21-125.08c3.873 4.33 7.346 5.086 10.664 4.447-3.608 8.665-11.445 7.711-10.664-4.447z" stroke-width="1.409" transform="matrix(.95621 0 0 .77667 -503.09 282.8)"/></g><g fill-rule="evenodd"><path d="M134.96 190.741a1.4 2.363 0 1 1-2.799 0 1.4 2.363 0 1 1 2.8 0z" color="#000" fill="#000"/><g stroke="#000"><path d="M667.84-108.46c3.133-.868 5.641.009 7.327 3.19-1.386 2.17-3.5 3.8-5.97 5.163.005-2.784.675-5.568-1.357-8.353z" color="#000" fill="#000" stroke-width="1.493" transform="matrix(.95621 0 0 .77667 -503.09 282.8)"/><path d="M661.08-99.089c-.938 3.8-.702 8.213-4.494 12.013 6.969-.753 11.453.749 16.968 5.42-1.046-5.227.162-9.967 4.444-15.194-5.31 4.82-6.174-.203-8.916-2.63-2.667.745-5.335 1.187-8.002.39z" fill="#a00000" stroke-width="1.393" transform="matrix(.95621 0 0 .77667 -503.09 282.8)"/><path d="M662.9-98.886c-.04 7.908-.981 12.86-1.902 19.289 4.866-4.548 7.977-5.444 13.727-15.421-2.459-1.049-4.071-3.045-5.458-5.294-1.837 1.034-3.816 1.79-6.367 1.425z" fill="#0a2662" stroke-width=".928" transform="matrix(.95621 0 0 .77667 -503.09 282.8)"/></g></g><g fill="none" stroke="#000" color="#000"><path d="M653.54-107.57h4.245c-.148 10.008 5.163 9.83 11.744 7.285 4.834 7.347 7.946 6.741 9.763.158 4.693 5.829 7.11 3.28 9.197-.475" stroke-width="1.508" transform="matrix(.95621 0 0 .77667 -503.09 282.8)"/><g stroke-width="1.625"><path d="M844.89-109.79c7.282-.192 11.012 2.151 12.971 5.537M987.81-72.74c.188 4.24-1.521 5.736-4.808 9.394M996.34-76.712c0 5.69 3.363 6.12 3.963 12.142M1002.2-79.53c.956 3.81.1 7.976 7.719 7.939" transform="matrix(.95621 0 0 .77667 -503.09 282.8)"/></g></g><path d="M1010.5-86.068c-3.413-.08-4.59.675-6.467 1.167" color="#000" fill-rule="evenodd" stroke="#000" stroke-width="1.625" transform="matrix(.95621 0 0 .77667 -503.09 282.8)"/><path d="M733.09-109.02c-34.866 0-13.085-24.581-25.794-36.18 1.34.222 9.6-.834 10.962 13.019 4.871-4.546 12.485-9.372 23.118-10.573 28.068-3.17 92.008 4.963 108.61 4.963 29.472 0 43.848-23.51 61.028-20.523-9.272 4.53-16.052 15.063-24.011 18.338 14.777 0 56.177-20.594 74.57-7.035-33.238-4.102-59.618 25.676-84.285 17.908 1.664 1.917 4.134 3.232 8.079 3.447-14.827 10.135-22.834-2.305-61.956-8.787-18.046-2.99-41.047-3.543-72.298-3.543-30.23 0-43.947 22.1-18.022 22.1" color="#000" fill="#ffd214" fill-rule="evenodd" stroke="#000" stroke-linecap="round" stroke-width="1.625" transform="matrix(.95621 0 0 .77667 -503.09 282.8)"/><g fill="none" stroke="#000" color="#000"><path d="M798.09-68.506c-1.758.463-4.089 1.57-4.763 3.095M806.59-66.5c-.02 2.389.684 3.973 1.895 4.987" stroke-width="1.625" transform="matrix(.95621 0 0 .77667 -503.09 282.8)"/><path d="M687.86-111.6c-5.153-.689-7.935-3.411-9.791-6.928-2.67 9.186 3.163 15.835 9.791 6.928z" stroke-width="1.409" transform="matrix(.95621 0 0 .77667 -503.09 282.8)"/></g><path d="M147.056 195.16a2.336 1.415-43.583 1 0 1.884 2.115 2.336 1.415-43.583 1 0-1.884-2.114z" color="#000" fill="#000" fill-rule="evenodd"/><g><g fill="#0a2662" fill-rule="evenodd" stroke="#000" stroke-width=".696" color="#000"><path d="M781.22-80.943c-2.973-2.506-6.117-4.82-11.081-5.097 7.479-3.762 12.591-1.956 18.063 1.02M771.9-73.564c-4.803-1.521-9.605-1.94-14.408.614 2.92-7.572 8.198-10.392 16.604-6.911M776-66.884c-5.72.687-8.903 4.5-10.978 9.676 6.243-3.743 11.108-4.016 15.918-4.147M796.31-60.812c-.468 3.548-1.318 7.92-3.98 11.058 6.444-2.208 9.832-5.731 11.527-9.983M971.26-69.699c-6.36 3.85-4.89 8.375-3.457 12.896 2.527-5.197 5.628-7.816 8.757-10.317M566.39-84.189c-6.059.84-10.245 4.833-13.891 7.774 5.968-1.434 10.598-1.824 14.402-.229M568.52-97.329c-1.79-4.237-6.777-8.008-13.891-.588 5.968.06 10.598 3.85 14.402 5.446M576.94-96.741c-1.594-3.643-3.633-6.987-7.47-9.122 5.317.168 10.334.773 11.205 7.412M595.42-108.4c-3.85-.562-7.043-.155-11.291 1.068 1.751-4.384 3.887-8.462 10.018-9.344M590.81-124.68c-2.261-4.117-5.372-6.65-9.54-7.208 4.194-2.576 8.705-3.74 14.787 2.136M599.16-135.7c-.252-3.801-2.806-7.03-8.296-9.53 6.864-.677 11.69.925 13.317 6.11M611.17-133.26c1.041-2.825 2.376-5.322 1.746-10.018 3.545 1.082 4.824 4.7 3.712 10.995M984.42-61.922c-3.728 3.71-2.896 7.989-1.152 12.38 2.074-4.478 4.148-7.372 6.221-9.8M1013.4-74.393c4.99.284 7.874-1.452 8.97-4.903h-10.222M1005.5-60.442c2.922 4.917 7.823 3.19 12.734 1.425-3.725-.792-6.866-2.075-7.895-5.13-3.024.445-4.532 1.74-4.84 3.705zM583.63-64.775c-3.691 1.485-6.466 3.511-9.935 6.83.157-4.902.764-9.724 6.06-13.708" transform="matrix(.95621 0 0 .77667 -503.09 128.8)"/></g><g fill="#ffd214" stroke="#000" color="#000"><path d="M820.47-103.67c-.249 6.362-.1 12.663 11.288 17.289-9.771 6.13-24.584 7.314-39.21 7.314-7.715-12.38-14.878-8.623-15.149 0-2.761-.251-4.076-2.256-8.648-2.256-2.85 0-7.197 11.17 6.267 11.17-6.496 14.986 14.819 11.49 18.535 4.335-3.809 10.124 12.879 10.66 14.939 4.335 3.888-1.021 4.782-4.276 6.64-6.812.05 6.826-1.385 10.319-2.767 13.934 8.773-.888 14.812-8.538 19.918-16.411.395 6.259-1.624 11.167-4.15 15.79 12.343.526 13.957-7.755 15.492-16.1 2.108 3.512 2.411 7.428.83 11.766 9.193-1.431 8.201-8.52 12.458-12.298 3.974-3.528 12.163-1.095 12.163-9.686 0-8.056-13.832-4.078-13.832-12.076 0-4.143 5.036-6.305 9.143-8.972l-6.377-7.13-37.539 5.808zm-43.072 24.603c3.725.589 6.405.734 10.13.346m-12.511 8.567 16.736-.095" fill-rule="evenodd" stroke-width="1.625" transform="matrix(.95621 0 0 .77667 -503.09 128.8)"/><path d="M732.89-109.02c32.537 0 132.76-26.06 157.01-26.06 19.444 0 37.814 3.78 37.814 11.825 0 10.557-36.767 4.759-51.253 4.759-69.945 0-159.39 28.386-188.31 16.16L673.567-74.1c56.098 24.303 86.192-28.811 148.46-28.811 12.649 0 28.144 8.988 35.836-1.34 19.997 29.31 66.918 13.03 99.661 13.03 16.458 0 25.304 3.467 29.276 13.827-30.378 2.584-13.477 17.715-3.767 14.182 5.274 8.3 10.791 12.23 17.282-1.29 2.432 9.022 15.706 4.712 9.703-7.276 7.825-1.923 4.67-12.968.316-14.32 5.464-1.892-2.1-7.784-11.97-6.272 2.225-2.917 2.53-6.371 12.48-7.127-5.233-5.503-13.182-6.823-22.86-5.485 2.156-2.346 4.312-5.765 6.468-9.34-18.842-2.828-16.028 10.974-23.365 10.974-5.71 0-4.878-6.07-13.56-6.07-12.58 0-31.008 20.998-72.253-1.736 46.86 7.537 57.14-13.458 82.489-14.187-10.308-2.959-21.024-2.49-32.371 3.274-2.785-12.93-14.323-17.725-41.446-17.725-33.095 0-72.324 12.883-86.693 12.883-7.376 0-12.87-6.275-25.96-4.934 3.138 3.015 5.956 6.03 5.878 9.045-7.075-6.058-15.402-6.513-23.755-6.853 3.814 3.016 4.213 6.03 4.163 9.046-7.918-5.31-15.837-8.348-23.755-4.934 9.573 4.86 9.818 9.654-10.934 9.654" fill-rule="evenodd" stroke-linecap="round" stroke-width="1.625" transform="matrix(.95621 0 0 .77667 -503.09 128.8)"/><path d="M675.42-74.126c2.514 3.858 2.148 8.52 2.038 13.113-5.141.515-7.707-1.133-10.188-2.85-2.713 6.474-6.734 6.844-11.206 7.411.158-3.136.02-3.136-.51-6.271-3.271 5.593-9.215 8.629-15.28 7.696 1.63-4.095.783-6.805-.256-9.407-2.793 5.364-6.652 9.336-13.498 9.407.544-2.743 1.41-5.365 0-8.837-4.298 8.347-10.205 7.695-15.79 8.837 1.902-3.04 2.846-6.081 2.037-9.122-6.052 5.12-12.28 7.4-19.688 5.4 2.776-1.796 5.434-3.725 6.571-7.356-4.578 2.746-14.089 4.7-12.204-3.852-2.244 9.114-12.208 5.982-12.517-1.051-6.302 2.368-14.263-3.367-9.387-15.06-6.896-4.777 1.309-19.554 8.242-10.451 4.152-3.975 9.513-6.214 9.513 1.908 0 15.146 28.645 24.376 35.884 10.66-7.642 3.19-14.608 4.494-18.154-3.775 3.235-.48 6.397-1.124 8.279-4.634-10.685 2.586-14.306-1.253-13.972-8.688 2.948.666 5.757.558 8.02-2.606-4.047 2.16-5.812-2.603-1.517-4.213-11.008 6.491-10.802-8.962-8.298-10.312-9.967-4.37-1.708-14.43 4.35-13.353-4.337-5.473 10.723-16.457 11.153-2.479 7.014-4.74 13.683 2.662 6.628 8.594-9.713 8.169 2.88 27.061 6.823 30.936 8.156 8.014 17.626 10.99 28.798 11.672l19.865-.739 4.264 9.423z" stroke-width="1.508" transform="matrix(.95621 0 0 .77667 -503.09 128.8)"/></g><g fill="none" stroke="#000" color="#000"><g stroke-width="1.508"><path d="M582.38-72.658c-2.72.231-5.328.615-7.45 1.65M583.63-76.835c-7.074-1.297-10.956-9.118-18.09-9.233M573.78-96.52l9.852 11.236M593.54-118.18c2.634-1.953 4.318 1.053 6.274 2.638M597.89-131.53c2.526 1.29 4.304 5.416 3.175 8.688M608.95-133.07c.58.849 1.9 5.324 1.562 10.571" transform="matrix(.95621 0 0 .77667 -503.09 128.8)"/></g><path d="M605.45-77.216c14.106 2.659 29.034 1.579 42.222-1.929" stroke-width="1.591" transform="matrix(.95621 0 0 .77667 -503.09 128.8)"/></g><path d="M676.25-133.33c2.965-7.603 9.342-15.892 8.843 2.2 4.254-5.737 8.737-6.52 5.185 4.888 5.2-5.573 7.475-1.14 2.348 10.142 7.127-3.392 6.37 16.236-1.997 14.857 2.246 10.835-.9 22.353-7.568 13.176 5.176 7.66-5.328 22.669-9.67 11.059-4.625 9.162-9.25 13.71-13.874.47-5.307 11.265-16.06-1.89-9.67-9.412-7.209 7.92-8.156-6.481-.938-13.665l-.134-.276c-6.378 1.855-1.517-10.454 2.684-9.662.455-2.08.01-3.328.634-4.409-7.9-3.625-.878-24.044 6.11-14.46 1.51-9.612 3.745-14.709 8.032-4.105 3.767-13.403 8.266-11.116 10.016-.803z" fill="#ffd214" fill-rule="evenodd" stroke="#000" stroke-width="1.393" transform="matrix(.95621 0 0 .77667 -503.09 128.8)"/><g fill="none" stroke="#000" color="#000"><path d="M655.59-124.34c-2.666-4.056-3.76 2.68-1.843 5.932M690.39-110.93c4.467-2.68 2.57 4.223.692 6.19" stroke-linecap="square" stroke-width="1.508" transform="matrix(.95621 0 0 .77667 -503.09 128.8)"/><path d="M661.21-125.08c3.873 4.33 7.346 5.086 10.664 4.447-3.608 8.665-11.445 7.711-10.664-4.447z" stroke-width="1.409" transform="matrix(.95621 0 0 .77667 -503.09 128.8)"/></g><g fill-rule="evenodd"><path d="M134.96 36.741a1.4 2.363 0 1 1-2.799 0 1.4 2.363 0 1 1 2.8 0z" color="#000" fill="#000"/><g stroke="#000"><path d="M667.84-108.46c3.133-.868 5.641.009 7.327 3.19-1.386 2.17-3.5 3.8-5.97 5.163.005-2.784.675-5.568-1.357-8.353z" color="#000" fill="#000" stroke-width="1.493" transform="matrix(.95621 0 0 .77667 -503.09 128.8)"/><path d="M661.08-99.089c-.938 3.8-.702 8.213-4.494 12.013 6.969-.753 11.453.749 16.968 5.42-1.046-5.227.162-9.967 4.444-15.194-5.31 4.82-6.174-.203-8.916-2.63-2.667.745-5.335 1.187-8.002.39z" fill="#a00000" stroke-width="1.393" transform="matrix(.95621 0 0 .77667 -503.09 128.8)"/><path d="M662.9-98.886c-.04 7.908-.981 12.86-1.902 19.289 4.866-4.548 7.977-5.444 13.727-15.421-2.459-1.049-4.071-3.045-5.458-5.294-1.837 1.034-3.816 1.79-6.367 1.425z" fill="#0a2662" stroke-width=".928" transform="matrix(.95621 0 0 .77667 -503.09 128.8)"/></g></g><g fill="none" stroke="#000" color="#000"><path d="M653.54-107.57h4.245c-.148 10.008 5.163 9.83 11.744 7.285 4.834 7.347 7.946 6.741 9.763.158 4.693 5.829 7.11 3.28 9.197-.475" stroke-width="1.508" transform="matrix(.95621 0 0 .77667 -503.09 128.8)"/><g stroke-width="1.625"><path d="M844.89-109.79c7.282-.192 11.012 2.151 12.971 5.537M987.81-72.74c.188 4.24-1.521 5.736-4.808 9.394M996.34-76.712c0 5.69 3.363 6.12 3.963 12.142M1002.2-79.53c.956 3.81.1 7.976 7.719 7.939" transform="matrix(.95621 0 0 .77667 -503.09 128.8)"/></g></g><path d="M1010.5-86.068c-3.413-.08-4.59.675-6.467 1.167" color="#000" fill-rule="evenodd" stroke="#000" stroke-width="1.625" transform="matrix(.95621 0 0 .77667 -503.09 128.8)"/><path d="M733.09-109.02c-34.866 0-13.085-24.581-25.794-36.18 1.34.222 9.6-.834 10.962 13.019 4.871-4.546 12.485-9.372 23.118-10.573 28.068-3.17 92.008 4.963 108.61 4.963 29.472 0 43.848-23.51 61.028-20.523-9.272 4.53-16.052 15.063-24.011 18.338 14.777 0 56.177-20.594 74.57-7.035-33.238-4.102-59.618 25.676-84.285 17.908 1.664 1.917 4.134 3.232 8.079 3.447-14.827 10.135-22.834-2.305-61.956-8.787-18.046-2.99-41.047-3.543-72.298-3.543-30.23 0-43.947 22.1-18.022 22.1" color="#000" fill="#ffd214" fill-rule="evenodd" stroke="#000" stroke-linecap="round" stroke-width="1.625" transform="matrix(.95621 0 0 .77667 -503.09 128.8)"/><g fill="none" stroke="#000" color="#000"><path d="M798.09-68.506c-1.758.463-4.089 1.57-4.763 3.095M806.59-66.5c-.02 2.389.684 3.973 1.895 4.987" stroke-width="1.625" transform="matrix(.95621 0 0 .77667 -503.09 128.8)"/><path d="M687.86-111.6c-5.153-.689-7.935-3.411-9.791-6.928-2.67 9.186 3.163 15.835 9.791 6.928z" stroke-width="1.409" transform="matrix(.95621 0 0 .77667 -503.09 128.8)"/></g><path d="M147.056 41.16a2.336 1.415-43.583 1 0 1.884 2.115 2.336 1.415-43.583 1 0-1.884-2.114z" color="#000" fill="#000" fill-rule="evenodd"/></g><g><g fill="#0a2662" fill-rule="evenodd" stroke="#000" stroke-width=".696" color="#000"><path d="M781.22-80.943c-2.973-2.506-6.117-4.82-11.081-5.097 7.479-3.762 12.591-1.956 18.063 1.02M771.9-73.564c-4.803-1.521-9.605-1.94-14.408.614 2.92-7.572 8.198-10.392 16.604-6.911M776-66.884c-5.72.687-8.903 4.5-10.978 9.676 6.243-3.743 11.108-4.016 15.918-4.147M796.31-60.812c-.468 3.548-1.318 7.92-3.98 11.058 6.444-2.208 9.832-5.731 11.527-9.983M971.26-69.699c-6.36 3.85-4.89 8.375-3.457 12.896 2.527-5.197 5.628-7.816 8.757-10.317M566.39-84.189c-6.059.84-10.245 4.833-13.891 7.774 5.968-1.434 10.598-1.824 14.402-.229M568.52-97.329c-1.79-4.237-6.777-8.008-13.891-.588 5.968.06 10.598 3.85 14.402 5.446M576.94-96.741c-1.594-3.643-3.633-6.987-7.47-9.122 5.317.168 10.334.773 11.205 7.412M595.42-108.4c-3.85-.562-7.043-.155-11.291 1.068 1.751-4.384 3.887-8.462 10.018-9.344M590.81-124.68c-2.261-4.117-5.372-6.65-9.54-7.208 4.194-2.576 8.705-3.74 14.787 2.136M599.16-135.7c-.252-3.801-2.806-7.03-8.296-9.53 6.864-.677 11.69.925 13.317 6.11M611.17-133.26c1.041-2.825 2.376-5.322 1.746-10.018 3.545 1.082 4.824 4.7 3.712 10.995M984.42-61.922c-3.728 3.71-2.896 7.989-1.152 12.38 2.074-4.478 4.148-7.372 6.221-9.8M1013.4-74.393c4.99.284 7.874-1.452 8.97-4.903h-10.222M1005.5-60.442c2.922 4.917 7.823 3.19 12.734 1.425-3.725-.792-6.866-2.075-7.895-5.13-3.024.445-4.532 1.74-4.84 3.705zM583.63-64.775c-3.691 1.485-6.466 3.511-9.935 6.83.157-4.902.764-9.724 6.06-13.708" transform="matrix(.95621 0 0 .77667 -503.09 205.8)"/></g><g fill="#ffd214" stroke="#000" color="#000"><path d="M820.47-103.67c-.249 6.362-.1 12.663 11.288 17.289-9.771 6.13-24.584 7.314-39.21 7.314-7.715-12.38-14.878-8.623-15.149 0-2.761-.251-4.076-2.256-8.648-2.256-2.85 0-7.197 11.17 6.267 11.17-6.496 14.986 14.819 11.49 18.535 4.335-3.809 10.124 12.879 10.66 14.939 4.335 3.888-1.021 4.782-4.276 6.64-6.812.05 6.826-1.385 10.319-2.767 13.934 8.773-.888 14.812-8.538 19.918-16.411.395 6.259-1.624 11.167-4.15 15.79 12.343.526 13.957-7.755 15.492-16.1 2.108 3.512 2.411 7.428.83 11.766 9.193-1.431 8.201-8.52 12.458-12.298 3.974-3.528 12.163-1.095 12.163-9.686 0-8.056-13.832-4.078-13.832-12.076 0-4.143 5.036-6.305 9.143-8.972l-6.377-7.13-37.539 5.808zm-43.072 24.603c3.725.589 6.405.734 10.13.346m-12.511 8.567 16.736-.095" fill-rule="evenodd" stroke-width="1.625" transform="matrix(.95621 0 0 .77667 -503.09 205.8)"/><path d="M732.89-109.02c32.537 0 132.76-26.06 157.01-26.06 19.444 0 37.814 3.78 37.814 11.825 0 10.557-36.767 4.759-51.253 4.759-69.945 0-159.39 28.386-188.31 16.16L673.567-74.1c56.098 24.303 86.192-28.811 148.46-28.811 12.649 0 28.144 8.988 35.836-1.34 19.997 29.31 66.918 13.03 99.661 13.03 16.458 0 25.304 3.467 29.276 13.827-30.378 2.584-13.477 17.715-3.767 14.182 5.274 8.3 10.791 12.23 17.282-1.29 2.432 9.022 15.706 4.712 9.703-7.276 7.825-1.923 4.67-12.968.316-14.32 5.464-1.892-2.1-7.784-11.97-6.272 2.225-2.917 2.53-6.371 12.48-7.127-5.233-5.503-13.182-6.823-22.86-5.485 2.156-2.346 4.312-5.765 6.468-9.34-18.842-2.828-16.028 10.974-23.365 10.974-5.71 0-4.878-6.07-13.56-6.07-12.58 0-31.008 20.998-72.253-1.736 46.86 7.537 57.14-13.458 82.489-14.187-10.308-2.959-21.024-2.49-32.371 3.274-2.785-12.93-14.323-17.725-41.446-17.725-33.095 0-72.324 12.883-86.693 12.883-7.376 0-12.87-6.275-25.96-4.934 3.138 3.015 5.956 6.03 5.878 9.045-7.075-6.058-15.402-6.513-23.755-6.853 3.814 3.016 4.213 6.03 4.163 9.046-7.918-5.31-15.837-8.348-23.755-4.934 9.573 4.86 9.818 9.654-10.934 9.654" fill-rule="evenodd" stroke-linecap="round" stroke-width="1.625" transform="matrix(.95621 0 0 .77667 -503.09 205.8)"/><path d="M675.42-74.126c2.514 3.858 2.148 8.52 2.038 13.113-5.141.515-7.707-1.133-10.188-2.85-2.713 6.474-6.734 6.844-11.206 7.411.158-3.136.02-3.136-.51-6.271-3.271 5.593-9.215 8.629-15.28 7.696 1.63-4.095.783-6.805-.256-9.407-2.793 5.364-6.652 9.336-13.498 9.407.544-2.743 1.41-5.365 0-8.837-4.298 8.347-10.205 7.695-15.79 8.837 1.902-3.04 2.846-6.081 2.037-9.122-6.052 5.12-12.28 7.4-19.688 5.4 2.776-1.796 5.434-3.725 6.571-7.356-4.578 2.746-14.089 4.7-12.204-3.852-2.244 9.114-12.208 5.982-12.517-1.051-6.302 2.368-14.263-3.367-9.387-15.06-6.896-4.777 1.309-19.554 8.242-10.451 4.152-3.975 9.513-6.214 9.513 1.908 0 15.146 28.645 24.376 35.884 10.66-7.642 3.19-14.608 4.494-18.154-3.775 3.235-.48 6.397-1.124 8.279-4.634-10.685 2.586-14.306-1.253-13.972-8.688 2.948.666 5.757.558 8.02-2.606-4.047 2.16-5.812-2.603-1.517-4.213-11.008 6.491-10.802-8.962-8.298-10.312-9.967-4.37-1.708-14.43 4.35-13.353-4.337-5.473 10.723-16.457 11.153-2.479 7.014-4.74 13.683 2.662 6.628 8.594-9.713 8.169 2.88 27.061 6.823 30.936 8.156 8.014 17.626 10.99 28.798 11.672l19.865-.739 4.264 9.423z" stroke-width="1.508" transform="matrix(.95621 0 0 .77667 -503.09 205.8)"/></g><g fill="none" stroke="#000" color="#000"><g stroke-width="1.508"><path d="M582.38-72.658c-2.72.231-5.328.615-7.45 1.65M583.63-76.835c-7.074-1.297-10.956-9.118-18.09-9.233M573.78-96.52l9.852 11.236M593.54-118.18c2.634-1.953 4.318 1.053 6.274 2.638M597.89-131.53c2.526 1.29 4.304 5.416 3.175 8.688M608.95-133.07c.58.849 1.9 5.324 1.562 10.571" transform="matrix(.95621 0 0 .77667 -503.09 205.8)"/></g><path d="M605.45-77.216c14.106 2.659 29.034 1.579 42.222-1.929" stroke-width="1.591" transform="matrix(.95621 0 0 .77667 -503.09 205.8)"/></g><path d="M676.25-133.33c2.965-7.603 9.342-15.892 8.843 2.2 4.254-5.737 8.737-6.52 5.185 4.888 5.2-5.573 7.475-1.14 2.348 10.142 7.127-3.392 6.37 16.236-1.997 14.857 2.246 10.835-.9 22.353-7.568 13.176 5.176 7.66-5.328 22.669-9.67 11.059-4.625 9.162-9.25 13.71-13.874.47-5.307 11.265-16.06-1.89-9.67-9.412-7.209 7.92-8.156-6.481-.938-13.665l-.134-.276c-6.378 1.855-1.517-10.454 2.684-9.662.455-2.08.01-3.328.634-4.409-7.9-3.625-.878-24.044 6.11-14.46 1.51-9.612 3.745-14.709 8.032-4.105 3.767-13.403 8.266-11.116 10.016-.803z" fill="#ffd214" fill-rule="evenodd" stroke="#000" stroke-width="1.393" transform="matrix(.95621 0 0 .77667 -503.09 205.8)"/><g fill="none" stroke="#000" color="#000"><path d="M655.59-124.34c-2.666-4.056-3.76 2.68-1.843 5.932M690.39-110.93c4.467-2.68 2.57 4.223.692 6.19" stroke-linecap="square" stroke-width="1.508" transform="matrix(.95621 0 0 .77667 -503.09 205.8)"/><path d="M661.21-125.08c3.873 4.33 7.346 5.086 10.664 4.447-3.608 8.665-11.445 7.711-10.664-4.447z" stroke-width="1.409" transform="matrix(.95621 0 0 .77667 -503.09 205.8)"/></g><g fill-rule="evenodd"><path d="M134.96 113.741a1.4 2.363 0 1 1-2.799 0 1.4 2.363 0 1 1 2.8 0z" color="#000" fill="#000"/><g stroke="#000"><path d="M667.84-108.46c3.133-.868 5.641.009 7.327 3.19-1.386 2.17-3.5 3.8-5.97 5.163.005-2.784.675-5.568-1.357-8.353z" color="#000" fill="#000" stroke-width="1.493" transform="matrix(.95621 0 0 .77667 -503.09 205.8)"/><path d="M661.08-99.089c-.938 3.8-.702 8.213-4.494 12.013 6.969-.753 11.453.749 16.968 5.42-1.046-5.227.162-9.967 4.444-15.194-5.31 4.82-6.174-.203-8.916-2.63-2.667.745-5.335 1.187-8.002.39z" fill="#a00000" stroke-width="1.393" transform="matrix(.95621 0 0 .77667 -503.09 205.8)"/><path d="M662.9-98.886c-.04 7.908-.981 12.86-1.902 19.289 4.866-4.548 7.977-5.444 13.727-15.421-2.459-1.049-4.071-3.045-5.458-5.294-1.837 1.034-3.816 1.79-6.367 1.425z" fill="#0a2662" stroke-width=".928" transform="matrix(.95621 0 0 .77667 -503.09 205.8)"/></g></g><g fill="none" stroke="#000" color="#000"><path d="M653.54-107.57h4.245c-.148 10.008 5.163 9.83 11.744 7.285 4.834 7.347 7.946 6.741 9.763.158 4.693 5.829 7.11 3.28 9.197-.475" stroke-width="1.508" transform="matrix(.95621 0 0 .77667 -503.09 205.8)"/><g stroke-width="1.625"><path d="M844.89-109.79c7.282-.192 11.012 2.151 12.971 5.537M987.81-72.74c.188 4.24-1.521 5.736-4.808 9.394M996.34-76.712c0 5.69 3.363 6.12 3.963 12.142M1002.2-79.53c.956 3.81.1 7.976 7.719 7.939" transform="matrix(.95621 0 0 .77667 -503.09 205.8)"/></g></g><path d="M1010.5-86.068c-3.413-.08-4.59.675-6.467 1.167" color="#000" fill-rule="evenodd" stroke="#000" stroke-width="1.625" transform="matrix(.95621 0 0 .77667 -503.09 205.8)"/><path d="M733.09-109.02c-34.866 0-13.085-24.581-25.794-36.18 1.34.222 9.6-.834 10.962 13.019 4.871-4.546 12.485-9.372 23.118-10.573 28.068-3.17 92.008 4.963 108.61 4.963 29.472 0 43.848-23.51 61.028-20.523-9.272 4.53-16.052 15.063-24.011 18.338 14.777 0 56.177-20.594 74.57-7.035-33.238-4.102-59.618 25.676-84.285 17.908 1.664 1.917 4.134 3.232 8.079 3.447-14.827 10.135-22.834-2.305-61.956-8.787-18.046-2.99-41.047-3.543-72.298-3.543-30.23 0-43.947 22.1-18.022 22.1" color="#000" fill="#ffd214" fill-rule="evenodd" stroke="#000" stroke-linecap="round" stroke-width="1.625" transform="matrix(.95621 0 0 .77667 -503.09 205.8)"/><g fill="none" stroke="#000" color="#000"><path d="M798.09-68.506c-1.758.463-4.089 1.57-4.763 3.095M806.59-66.5c-.02 2.389.684 3.973 1.895 4.987" stroke-width="1.625" transform="matrix(.95621 0 0 .77667 -503.09 205.8)"/><path d="M687.86-111.6c-5.153-.689-7.935-3.411-9.791-6.928-2.67 9.186 3.163 15.835 9.791 6.928z" stroke-width="1.409" transform="matrix(.95621 0 0 .77667 -503.09 205.8)"/></g><path d="M147.056 118.16a2.336 1.415-43.583 1 0 1.884 2.115 2.336 1.415-43.583 1 0-1.884-2.114z" color="#000" fill="#000" fill-rule="evenodd"/></g></g><path fill="#0a2662" d="M0 250h500v250H0z"/><path fill="#ffdc19" d="M500 0h500v250H500z"/><g transform="translate(7.97 3.69) scale(.99926)" fill="#ffdd28" stroke="#000" stroke-width="1.501"><path d="m348.29 290.94-42.34 180.15-42.024 16.275 82.812-214.35z" fill="#ffd214"/><path id="a" d="m293.5 470.41-26.873 10.314" fill="none" stroke="#000" stroke-width="1.501"/><g fill="none"><use x="13.187" y="-87.079" width="100%" height="100%" xlink:href="#a"/><use x="1.256" y="-8.293" width="100%" height="100%" xlink:href="#a"/><use x="1.884" y="-12.44" width="100%" height="100%" xlink:href="#a"/><use x="2.512" y="-16.586" width="100%" height="100%" xlink:href="#a"/><use x="3.14" y="-20.733" width="100%" height="100%" xlink:href="#a"/><use x="3.768" y="-24.88" width="100%" height="100%" xlink:href="#a"/><use x="4.396" y="-29.026" width="100%" height="100%" xlink:href="#a"/><use x="5.024" y="-33.173" width="100%" height="100%" xlink:href="#a"/><use x="5.652" y="-37.32" width="100%" height="100%" xlink:href="#a"/><use x="6.28" y="-41.466" width="100%" height="100%" xlink:href="#a"/><use x="6.908" y="-45.613" width="100%" height="100%" xlink:href="#a"/><use x="7.536" y="-49.759" width="100%" height="100%" xlink:href="#a"/><use x="8.164" y="-53.906" width="100%" height="100%" xlink:href="#a"/><use x="8.792" y="-58.053" width="100%" height="100%" xlink:href="#a"/><use x="9.42" y="-62.199" width="100%" height="100%" xlink:href="#a"/><use x="10.048" y="-66.346" width="100%" height="100%" xlink:href="#a"/><use x="10.676" y="-70.493" width="100%" height="100%" xlink:href="#a"/><use x="11.304" y="-74.639" width="100%" height="100%" xlink:href="#a"/><use x="11.932" y="-78.786" width="100%" height="100%" xlink:href="#a"/><use x="12.559" y="-82.932" width="100%" height="100%" xlink:href="#a"/><use x=".628" y="-4.147" width="100%" height="100%" xlink:href="#a"/></g><path d="m333.03 283.14-95.92 200.99 26.811 3.233 82.812-214.35z" fill="#ffd214"/><path d="M278.87 295.87a637.638 637.638 0 0 1-6.031 5.281l34.469 44.094a4.007 4.007 0 1 0 6.312-4.937zm-12.75 11a481.123 481.123 0 0 1-6.188 5.094l39.531 50.562a4.007 4.007 0 0 0 6.313-4.938zm-13.094 10.562a360.069 360.069 0 0 1-6.375 4.844l44.969 57.53a4.007 4.007 0 0 0 6.313-4.937zm-13.562 9.969c-2.22 1.544-4.428 3.069-6.625 4.5l50.937 65.156a4.007 4.007 0 1 0 6.313-4.938zm-14.156 9.187a186.026 186.026 0 0 1-7.031 4l57.656 73.75a4.007 4.007 0 0 0 6.312-4.937zm-15.094 8.031a126.731 126.731 0 0 1-7.594 3.25l65.468 83.75a4.007 4.007 0 1 0 6.313-4.937zm-16.437 6.282a82.881 82.881 0 0 1-8.594 1.968l75.062 96.031a4.007 4.007 0 0 0 6.313-4.937z" fill="#fff" stroke-linecap="round" stroke-width="1.201"/><g fill="#ffd214"><path d="M170.68 355.73c8.611 13.803 14.052 9.641 18.839 1.771l-9.017-16.102-12.559 4.67z"/><path d="M180.79 347.23c8.997 16.824 14.642 18.001 21.08 10.664l-12.648-16.12z"/><path d="M189.36 347.27c20.33 23.108 27.807 16.452 34.096 7.045l-35.505-20.852z"/><path d="M205.48 345.85c10.744 10.151 36.879 21.539 38.254-.758l-27.839-11.552z"/></g><path d="M214.19 342.82c2.29 4.41 10.245 4.283 11.552 8.333" fill="none"/><path d="M217.38 338.27c10.079.288 37.497 23.588 39.433-7.238l-29.7-4.492z" fill="#ffd214"/><g fill="none"><path d="m199.22 346.71 7.045 8.453M186.24 349.47c2.119 2.18 4.5 4.097 4.712 8.184M176.48 348.16c1.75 2.789 2.806 5.855 2.415 9.5"/></g><g fill="#ffd214"><path d="M210.55 342.77c-1.86 6.816-9.97 9.416-18.352.248 1.491 8.557-12.768 13.185-13.392-1.984 1.807 23.1-14.934.488-16.12-3.472l-.992-7.44 41.911 3.72z"/><path d="M201.37 336.32c10.001 16.377 21.187 6.06 26.039-3.72l-17.112-3.968zM231.86 327.79c26.279 10.856 35.896 4.745 36.688-7.987l-34.442-4.741z"/></g><path d="M226.87 332.53c3.052 3.133 6.172 6.253 12.479 8.735" fill="none"/><path d="M209.8 331.36c19.521 9.418 24.332-.185 27.527-8.928l-26.535-6.2zM240.35 317.6c13.94 7.937 36.593 9.71 33.725-9.738l-25.65-4.037z" fill="#ffd214"/><path d="m256.98 317.12-14.488-5.463M235.85 322.55c3.66 2.541 7.321 4.02 10.981 5.241" fill="none"/><path d="M218.99 320.69c16.701 10.452 24.622 2.068 27.309-11.336l-25.763-3.864zM250.01 305.79c36.973 11.273 59.156-3.581 64.56-12.487l-61.638.797z" fill="#ffd214"/><path d="M252.93 301.8c4.546 2.507 8.363 2.102 12.221 1.86" fill="none"/><path d="M223.65 309.92c23.576 9.98 27.586-1.63 33.089-11.593l-34.055 1.45zM256.24 296.44c34.759 11.375 80.196-3.338 92.525-23.388h.771l-87.384 2.056z" fill="#ffd214"/><path d="M292.48 290.02c-9.547 1.095-18.528 2.984-31.356-.514" fill="none"/><g fill="#ffd214"><path d="M266.09 285.39c-5.478 9.629-8.198 21.801-39.256 16.295l-2.222-15.554zM345.72 275.7l-5.184 14.326c9.862 12.129 22.28.199 11.05-7.777 8.43-9.074.752-12.74-5.866-6.549z"/><path d="M306.52 266.88c23.39.59 42.711-2.2 64.479-6.944 4.592-1 6.374 2.267 2.232 5.394-27.102 20.462-94.122 21.208-103.49 15.947l3.422-8.4z"/><path d="M225.27 290.91c22.228 5.05 44.161-1.98 51.876-13.54l-13.716-9.496-39.215 15.475z"/></g><g fill="none"><path d="M226.5 284.93c4.338 2.027 9.203 1.898 13.54 1.583M235.54 297.98c-3.038-.376-6.177-.352-8.703-2.778M225.83 306.54c4.683.368 5.909 1.427 7.487 2.415M222.85 318.11c2.7 1.69 5.89 1.907 9.275 1.546M214.52 328.14c3.39 1.62 6.779 1.58 10.168 1.24M205.59 335.08a69.39 69.39 0 0 1 7.192 4.216M182.52 333.1c2.273 3.152 2.325 6.859 1.984 10.664M195.67 337.31c1.513 2.905 2.51 5.913 7.192 8.184M171.86 332.35l3.224 9.176"/></g><g fill="#ffd214"><ellipse transform="rotate(-65.103)" cx="-316.73" cy="424.89" rx="11.889" ry="10.108" stroke-linecap="square"/><path d="M129.93 356.8c0-8.565-7.058-9.351-7.058-15.248 0-7.074 5.65-10.035 11.938-12.95 4.105-1.903 8.052-13.61 11.787-10.068 0-6.945.048-14.909-6.083-14.909-6.642 0-5.129-7.008-2.511-7.682-2.085-1.364-1.214-7.036-5.648-7.612 10.47-6.684 3.1-18.396 11.094-20.459-2.987-15.146 16.867-12.874 20.708-.853 9.91-2.087 13.89 2.359 19.002 7.149l6.229 14.455-8.752 10.546c-.978 2.066-2.47 1.559-4.039.673-2.094 2.92-4.722 1.567-7.404-.225-1.992 5.024-2.13 9.76-.473 16.911 9.475.334 15.077 6.817 22.646 6.817 9.66 0 22.467-17.888 20.263-28.38-4.71-22.424 19.563-30.458 42.382-30.458 21.905 0 35.81 6.77 57.487-4.242-3.008 15.304-21.908 19.278-42.272 17.623-10.956 13.058-42.155-9.986-42.155 16.295 1.73 6.374 3.16 12.649-1.992 16.729 1.53 4.027 1.073 7.79-4.389 10.885-1.506 4.698-5.053 8.231-9.832 11.06-8.65 8.397-17.769 6.546-26.346 2.821-6.299-2.735-12.053-4.707-17.822.981 14.913 21.383-2.684 24.145 5.668 37.871 8.7 14.298 20.518 67.913 73.946 79.888 8.156-.213 9.555 21.407-8.387 17.608-89.08-12.087-107.98-96.3-107.98-115.23z" stroke-linejoin="round"/><path d="M182.44 272.66c.503 5.693-1.736 10.969 4.243 15.446-5.536.803-5.903 6.128-6.24 11.481l.218-.165 3.9 1.026c-18.04 17.1 26.306 6.425 7.391-11.086 12.634-12.48 1.372-21.964-9.512-16.702z"/></g><g fill="none"><path d="M186.41 279.71c3.753 5.012 6.154 10.539.205 16.629M177.94 274.04c.315 8.55.873 17.16-1.122 25.132M140.84 303.67h7.946M153.74 270.45c8.9-3.972 14.718 1.306 21.432 3.897M154.63 274.35c6.49-3.545 12.368 1.482 18.42 4.074"/><path d="M156.22 296.84c10.585-1.569 9.289-12.727 7.085-12.93-4.845-.445-.354 3.852-2.126 7.085-1.77 3.232-4.959 5.845-4.959 5.845z" stroke-linejoin="bevel"/><path d="M137.69 295.88c1.098.094 1.596.34 2.303.531M164.56 295.77c1.252 1.844 2.697 3.211 4.677 3.963"/><g><path d="M143.47 267.58c19.253 16.706 8.75 23.355 9.694 24.518.887 1.094 3.327-.957 4.447-2.851M145.74 276.28c-2.036-.064-3.846.718-5.043 1.828M141.01 279.56c2.36 0 3.581 1.805 5.106 2.774-1.567 1.087-2.877 2.536-5.232 2.521"/></g></g><ellipse cx="141.2" cy="282.21" rx="1.387" ry="2.143" fill="#000" stroke="none"/><g fill="none"><path d="M142.89 323.56c2.444-.817 3.78-2.826 3.658-5.276M168.63 316.41c-4.288 3.004-6.548 6.713-7.363 10.925M136.46 334.23c-12.739 18.239 18.807 29.459 18.807 10.934"/><path d="M141.41 343.36c-.153 2.905 1.057 3.653 2.922 3.653M293.67 271.87c8.276 8.686 18.226 1.234 31.105 2.515M266.43 274.06l3.47 3.818"/></g><g><path d="M138.4 385.52c-13.185 13.087 8.127 24.199 5.659 36.442 9.312-6.257 3.167-16.727 1.804-26.809 4.455.7 4.316 9.111 5.402 16.698.619 4.318 3.684 3.923 6.455.968 4.213 12.536 16.341 10.456 9.506-4.16 8.136 10.972 6.54 2.781 3.126-5.334-2.713-6.448-10.552-10.221-4.353-12.346 3.875-1.329 3.098 22.443 12.535 18.05 5.615-2.614-6.44-14.95-.878-15.78 3.23-.482-.046 20.892 15.035 14.918l-.909-3.04c-9.526-3.14-1.963-24.74-19.464-24.744z" fill="#ffd214"/><path d="M152.79 386.6c1.162 1.688 2.79 5.236 4.554 9.336-.247-3.643-2.248-7.287.228-10.93z" fill="#000"/><path d="m139 386.28.588 5.583" fill="none" stroke-linecap="square"/><path d="M168.05 382.96c4.396.745 5.858 2.077 7.287 3.416" fill="none"/><path d="M173.75 373.37a3.5 3.5 0 0 0-2.094.906c-6.686 5.984-17.066 9.036-35.312 5.969a3.501 3.501 0 1 0-1.156 6.906c19.463 3.272 32.573-.003 41.125-7.656a3.5 3.5 0 0 0-2.562-6.125z" fill="#ffd214" stroke-linecap="round"/><path d="M141.86 395.26c-3.345 9.655 6.65 6.558 5.576 23.063" fill="none" stroke-linecap="round"/></g></g><g fill="#b4001e" stroke="#000" stroke-width=".6"><path d="M959.51 127.4c-11.301 0-15.572 9.891-11.737 13.726 2.75 2.748 10.7 1.861 11.612-7.009-1.489 1.554-3.382 2.333-4.334 1.383-1.706-1.705 1.536-7.011 5.446-7.011v-6.968c-3.91 0-7.15-5.305-5.446-7.01.95-.95 2.844-.172 4.334 1.381-.912-8.869-8.862-9.756-11.612-7.008-3.836 3.835.436 13.726 11.737 13.726z"/><path d="M960.5 127s-11.079 3.997-17.261 4.002c-3.397 0-6.714-1.558-11.699-6 4.984-4.442 8.302-6.004 11.699-6 6.182 0 17.261 4.002 17.261 4.002zM986 125c-1.745-1.946-4.502-2.52-7.328-2.52.933-1.732 1.638-4.05 1.488-5.98-1.653 2.204-3.229 4.428-6.826 4.428-1.54 0-3.643-.736-4.834-1.729v11.602c1.19-.993 3.294-1.728 4.834-1.728 3.597 0 5.174 2.224 6.826 4.427.15-1.93-.555-4.248-1.488-5.98 2.826 0 5.583-.573 7.328-2.52zM643.25 16c-1.946 1.745-2.52 4.502-2.52 7.328-1.732-.933-4.05-1.638-5.98-1.488 2.204 1.653 4.428 3.229 4.428 6.826 0 1.54-.736 3.643-1.729 4.834h11.602c-.993-1.19-1.728-3.294-1.728-4.834 0-3.597 2.224-5.174 4.427-6.826-1.93-.15-4.247.555-5.98 1.488 0-2.826-.573-5.583-2.52-7.328zM645.64 42.49c0 11.301 9.891 15.572 13.726 11.737 2.748-2.75 1.861-10.7-7.009-11.612 1.554 1.489 2.333 3.382 1.383 4.334-1.705 1.706-7.011-1.536-7.011-5.446h-6.968c0 3.91-5.305 7.15-7.01 5.446-.95-.951-.172-2.844 1.381-4.334-8.869.912-9.756 8.862-7.008 11.612 3.835 3.836 13.726-.436 13.726-11.737z"/><path d="M645.25 41.5s3.997 11.079 4.002 17.261c0 3.397-1.558 6.714-6 11.699-4.442-4.984-6.004-8.302-6-11.699 0-6.182 4.002-17.261 4.002-17.261zM854.36 42.49c0 11.301-9.891 15.572-13.726 11.737-2.748-2.75-1.861-10.7 7.009-11.612-1.554 1.489-2.333 3.382-1.383 4.334 1.705 1.706 7.011-1.536 7.011-5.446h6.968c0 3.91 5.305 7.15 7.01 5.446.95-.951.172-2.844-1.381-4.334 8.869.912 9.756 8.862 7.008 11.612-3.835 3.836-13.726-.436-13.726-11.737z"/><path d="M854.75 41.5s-3.997 11.079-4.002 17.261c0 3.397 1.558 6.714 6 11.699 4.442-4.984 6.004-8.302 6-11.699 0-6.182-4.002-17.261-4.002-17.261zM753.48 30.5c0-2.764 5.305-5.687 7.01-4.48.95.672.17 2.143-1.383 3.197 8.87-.645 9.758-6.27 7.01-8.213-3.835-2.713-13.727.51-13.727 8.5h-4.79c0-7.99-9.891-11.213-13.726-8.5-2.748 1.944-1.86 7.568 7.01 8.213-1.554-1.054-2.334-2.525-1.383-3.197 1.705-1.207 7.01 1.716 7.01 4.48z"/><path d="M748 30.5s-3.997-7.849-4.002-12.219c0-2.402 1.558-4.756 6-8.28 4.442 3.524 6.004 5.878 6 8.28 0 4.37-4.002 12.219-4.002 12.219zM750 56c-1.946-1.745-2.52-4.502-2.52-7.328-1.732.933-4.05 1.638-5.98 1.488 2.204-1.652 4.428-3.229 4.428-6.826 0-1.54-.736-3.643-1.729-4.834h11.602c-.993 1.19-1.728 3.294-1.728 4.834 0 3.597 2.224 5.174 4.427 6.826-1.93.15-4.248-.555-5.98-1.488 0 2.826-.573 5.583-2.52 7.328zM856.75 16c1.946 1.745 2.52 4.502 2.52 7.328 1.732-.933 4.05-1.638 5.98-1.488-2.204 1.653-4.428 3.229-4.428 6.826 0 1.54.736 3.643 1.729 4.834h-11.602c.993-1.19 1.728-3.294 1.728-4.834 0-3.597-2.224-5.174-4.427-6.826 1.93-.15 4.248.555 5.98 1.488 0-2.826.573-5.583 2.52-7.328zM971.91 33.48c7.99-7.99 18.006-4.017 18.005 1.407 0 3.888-6.25 8.882-13.167 3.255 2.152.046 4.041-.742 4.042-2.087 0-2.412-6.044-3.871-8.808-1.107l-4.927-4.926c2.765-2.765 1.305-8.808-1.107-8.808-1.344 0-2.131 1.89-2.087 4.04-5.627-6.915-.632-13.164 3.256-13.165 5.424 0 9.397 10.014 1.407 18.005z"/><path d="M970.93 33.89s10.66-5.008 15.035-9.375c2.402-2.402 3.646-5.85 4.03-12.515-6.665.383-10.116 1.624-12.515 4.03-4.371 4.37-9.375 15.035-9.375 15.035zM946.28 55.72c-.143-2.61 1.402-4.965 3.4-6.963-1.884-.566-4.023-1.706-5.281-3.177 2.727.39 5.414.848 7.958-1.696 1.088-1.089 2.056-3.096 2.196-4.64l8.203 8.203c-1.544.14-3.551 1.108-4.64 2.196-2.544 2.544-2.086 5.231-1.696 7.958-1.47-1.258-2.611-3.396-3.177-5.281-1.998 1.998-4.353 3.543-6.963 3.4zM528.09 33.48c-7.99-7.99-18.006-4.017-18.005 1.407 0 3.888 6.25 8.882 13.167 3.255-2.152.046-4.041-.742-4.042-2.087 0-2.412 6.044-3.871 8.808-1.107l4.927-4.926c-2.765-2.765-1.305-8.808 1.107-8.808 1.344 0 2.131 1.89 2.087 4.04 5.627-6.915.632-13.164-3.256-13.165-5.424 0-9.397 10.014-1.407 18.005z"/><path d="M529.06 33.89s-10.66-5.008-15.035-9.375c-2.402-2.402-3.646-5.85-4.03-12.515 6.665.383 10.116 1.624 12.515 4.03 4.371 4.37 9.375 15.035 9.375 15.035zM553.72 55.72c.143-2.61-1.402-4.965-3.4-6.963 1.884-.566 4.023-1.706 5.281-3.177-2.727.39-5.414.848-7.958-1.696-1.088-1.089-2.056-3.096-2.196-4.64l-8.203 8.203c1.544.14 3.551 1.108 4.64 2.196 2.544 2.544 2.086 5.231 1.696 7.958 1.47-1.258 2.611-3.396 3.177-5.281 1.998 1.998 4.353 3.543 6.963 3.4zM540.49 127.4c11.301 0 15.572 9.891 11.737 13.726-2.75 2.748-10.7 1.861-11.612-7.009 1.489 1.554 3.382 2.333 4.334 1.383 1.706-1.705-1.536-7.011-5.446-7.011v-6.968c3.91 0 7.15-5.305 5.446-7.01-.95-.95-2.844-.172-4.334 1.381.912-8.869 8.862-9.756 11.612-7.008 3.836 3.835-.436 13.726-11.737 13.726z"/><path d="M539.5 127s11.079 3.997 17.261 4.002c3.397 0 6.714-1.558 11.699-6-4.984-4.442-8.302-6.004-11.699-6-6.182 0-17.261 4.002-17.261 4.002zM514 125c1.745-1.946 4.502-2.52 7.328-2.52-.933-1.732-1.638-4.05-1.488-5.98 1.653 2.204 3.229 4.428 6.826 4.428 1.54 0 3.643-.736 4.834-1.729v11.602c-1.19-.993-3.294-1.728-4.834-1.728-3.597 0-5.174 2.224-6.826 4.427-.15-1.93.555-4.248 1.488-5.98-2.826 0-5.583-.573-7.328-2.52zM643.25 234c-1.946-1.745-2.52-4.502-2.52-7.328-1.732.933-4.05 1.638-5.98 1.488 2.204-1.652 4.428-3.229 4.428-6.826 0-1.54-.736-3.643-1.729-4.834h11.602c-.993 1.19-1.728 3.294-1.728 4.834 0 3.597 2.224 5.173 4.427 6.826-1.93.15-4.247-.555-5.98-1.488 0 2.826-.573 5.583-2.52 7.328zM645.64 207.51c0-11.301 9.891-15.572 13.726-11.737 2.748 2.75 1.861 10.7-7.009 11.612 1.554-1.489 2.333-3.382 1.383-4.333-1.705-1.706-7.011 1.536-7.011 5.445h-6.968c0-3.91-5.305-7.15-7.01-5.445-.95.95-.172 2.843 1.381 4.333-8.869-.912-9.756-8.862-7.008-11.612 3.835-3.836 13.726.436 13.726 11.737z"/><path d="M645.25 208.5s3.997-11.079 4.002-17.261c0-3.397-1.558-6.714-6-11.699-4.442 4.984-6.004 8.302-6 11.699 0 6.182 4.002 17.261 4.002 17.261zM854.36 207.51c0-11.301-9.891-15.572-13.726-11.737-2.748 2.75-1.861 10.7 7.009 11.612-1.554-1.489-2.333-3.382-1.383-4.333 1.705-1.706 7.011 1.536 7.011 5.445h6.968c0-3.91 5.305-7.15 7.01-5.445.95.95.172 2.843-1.381 4.333 8.869-.912 9.756-8.862 7.008-11.612-3.835-3.836-13.726.436-13.726 11.737z"/><path d="M854.75 208.5s-3.997-11.079-4.002-17.261c0-3.397 1.558-6.714 6-11.699 4.442 4.984 6.004 8.302 6 11.699 0 6.182-4.002 17.261-4.002 17.261zM753.48 219.5c0 2.764 5.305 5.687 7.01 4.48.95-.672.17-2.143-1.383-3.197 8.87.645 9.758 6.27 7.01 8.213-3.835 2.713-13.727-.51-13.727-8.5h-4.79c0 7.99-9.891 11.213-13.726 8.5-2.748-1.944-1.86-7.568 7.01-8.213-1.554 1.054-2.334 2.525-1.383 3.197 1.705 1.207 7.01-1.716 7.01-4.48z"/><path d="M748 219.5s-3.997 7.849-4.002 12.219c0 2.402 1.558 4.756 6 8.28 4.442-3.524 6.004-5.878 6-8.28 0-4.37-4.002-12.219-4.002-12.219zM750 194c-1.946 1.745-2.52 4.502-2.52 7.328-1.732-.933-4.05-1.638-5.98-1.488 2.204 1.652 4.428 3.229 4.428 6.826 0 1.54-.736 3.643-1.729 4.834h11.602c-.993-1.19-1.728-3.294-1.728-4.834 0-3.597 2.224-5.174 4.427-6.826-1.93-.15-4.248.555-5.98 1.488 0-2.826-.573-5.583-2.52-7.328zM856.75 234c1.946-1.745 2.52-4.502 2.52-7.328 1.732.933 4.05 1.638 5.98 1.488-2.204-1.652-4.428-3.229-4.428-6.826 0-1.54.736-3.643 1.729-4.834h-11.602c.993 1.19 1.728 3.294 1.728 4.834 0 3.597-2.224 5.173-4.427 6.826 1.93.15 4.248-.555 5.98-1.488 0 2.826.573 5.583 2.52 7.328zM971.91 216.53c7.99 7.99 18.006 4.017 18.005-1.407 0-3.888-6.25-8.882-13.167-3.255 2.152-.046 4.041.742 4.042 2.087 0 2.412-6.044 3.871-8.808 1.107l-4.927 4.926c2.765 2.765 1.305 8.808-1.107 8.808-1.344 0-2.131-1.89-2.087-4.04-5.627 6.915-.632 13.164 3.256 13.165 5.424 0 9.397-10.014 1.407-18.005z"/><path d="M970.93 216.11s10.66 5.008 15.035 9.375c2.402 2.402 3.646 5.85 4.03 12.515-6.665-.383-10.116-1.624-12.515-4.03-4.371-4.37-9.375-15.035-9.375-15.035zM946.28 194.29c-.143 2.61 1.402 4.965 3.4 6.963-1.884.566-4.023 1.706-5.281 3.177 2.727-.39 5.414-.848 7.958 1.696 1.088 1.089 2.056 3.096 2.196 4.64l8.203-8.203c-1.544-.14-3.551-1.108-4.64-2.196-2.544-2.544-2.086-5.231-1.696-7.958-1.47 1.258-2.611 3.397-3.177 5.281-1.998-1.998-4.353-3.543-6.963-3.4zM528.09 216.53c-7.99 7.99-18.006 4.017-18.005-1.407 0-3.888 6.25-8.882 13.167-3.255-2.152-.046-4.041.742-4.042 2.087 0 2.412 6.044 3.871 8.808 1.107l4.927 4.926c-2.765 2.765-1.305 8.808 1.107 8.808 1.344 0 2.131-1.89 2.087-4.04 5.627 6.915.632 13.164-3.256 13.165-5.424 0-9.397-10.014-1.407-18.005z"/><path d="M529.06 216.11s-10.66 5.008-15.035 9.375c-2.402 2.402-3.646 5.85-4.03 12.515 6.665-.383 10.116-1.624 12.515-4.03 4.371-4.37 9.375-15.035 9.375-15.035zM553.72 194.29c.143 2.61-1.402 4.965-3.4 6.963 1.884.566 4.023 1.706 5.281 3.177-2.727-.39-5.414-.848-7.958 1.696-1.088 1.089-2.056 3.096-2.196 4.64l-8.203-8.203c1.544-.14 3.551-1.108 4.64-2.196 2.544-2.544 2.086-5.231 1.696-7.958 1.47 1.258 2.611 3.397 3.177 5.281 1.998-1.998 4.353-3.543 6.963-3.4z"/><path d="M963.5 38.5h-427v173h427zm-422 5h417v163h-417z"/><path d="M973.5 28.5h-447v193h447zm-442 5h437v183h-437z"/></g><path d="M725.786 106.1c4.55-3.702 9.338-5.132 9.338-5.132s-3.174 1.83-5 4.229-3.81 3.093-3.81 3.093c5.397.883 6.667-1.2 8.254-2.588.329-.288.776-.578 1.275-.858l-.005-.026.005.026c1.907-1.07 4.598-1.983 4.598-1.983s-2.69.913-4.598 1.983c.056.266.607 2.998.154 4.14-.477 1.199-2.144 2.524-.398 3.597s3.572.757 3.572.757-.833-2.43 3.255-5.048c-4.088 2.619-3.255 5.048-3.255 5.048.318 1.767-1.191 3.408-1.191 3.408 6.825-.505 10.715-5.932 10.715-5.932 0 1.452-.715 5.364-.715 5.364 2.698-.442 4.365-1.514 5-2.714s1.35-3.345 2.461-.252 5 3.471 5 3.471l-.238-5.112c1.667 2.701 5.485 2.688 7.104 2.55l-.758-.73.758.73c.461-.04.753-.09.753-.09-3.254-2.271-4.285-13.63-1.27-7.888s7.54 1.767 7.54 1.767c-4.048-.442-2.222-5.175-2.222-5.175 3.492 1.074 4.683-2.083 4.683-2.083-5.476-.947-3.492-7.825-3.492-7.825 4.603.947 5.636-1.957 5.636-1.957-5.477-.064-4.92-4.733-5.714-6.058s-.24-2.083-.24-2.083c4.049.316 4.843-1.83 4.843-1.83-5.556 0-5.873-3.977-5.873-5.744s-1.102-3.432-1.191-4.67c-.107-1.493 1.032-4.165 1.032-4.165s-2.222 2.02-4.207 2.21-1.428-2.651-2.857-3.725-3.015-2.398-5.238-2.461-1.587-3.913-1.587-3.913-2.302 1.767-3.73 2.777-2.381 1.073-4.366 1.136-3.333-.758-6.35 1.2-5.634 1.514-8.888 1.514-2.46 1.578-1.746 2.335-.08 2.714-.08 4.67 1.746 1.767 3.651 2.903 4.048.064 5.397-.82c1.291-.846 5.837-.767 6.23-.76-.308-.453-.52-.941-.543-1.45.023.509.235.996.544 1.45l.038.002.543.027.033-.331-.033.331.707.037-.707-.037-.063.62c1.222 1.304 3.065 2.192 3.065 2.192s-1.843-.888-3.065-2.193l-.002.01c-.106 4.208 1.594 6.812 1.585 8.241-.008 1.249-1.905 1.263-1.905 1.263s-8.888 0-11.428-.084-2.01.926-2.01 2.777-1.482 2.44-1.482 2.44c2.645.252 3.281-.505 3.916-1.178s2.433-1.094 4.762-.337c2.328.758 5.397-.083 7.09-.336s.846 1.683.846 1.683-1.799 2.693-4.656 2.86-4.974-.168-6.772 1.432c-1.211 1.077-3.372 1.469-5.115 1.942l1.14.405-1.14-.405c-.843.23-1.597.477-2.08.834-1.483 1.094-8.042 2.525-11.746.758 0 0-.318 3.534 4.126 4.039 0 0 2.645.336-.847 2.608-1.832 1.193-2.954 3.288-4.464 4.098l.099.067.616.362.672-.257-.672.257.054.032-.054-.032-.502.192c1.429.41 4.298.768 7.215-1.604z" fill="#b4001e"/><path d="M722.822 102.988c3.492-2.272.847-2.608.847-2.608-4.444-.505-4.126-4.04-4.126-4.04 3.704 1.768 10.263.337 11.745-.757.484-.357 1.238-.603 2.081-.834l-.077-.027s-11.59-3.848-16.429-13.778S701.112 66 701.112 66s-3.378-1.163-1.24-5.459-.113-5.457-1.013-4.921-2.025 1.073-3.039.716c-1.012-.358-2.024 1.79-3.6.447s-1.913-2.058-3.376-.716c-1.461 1.342-3.262 2.06-2.587 2.685.196.183.207.297.113.363.529.098 3.649.803 6.803 4.348-3.154-3.545-6.274-4.25-6.803-4.348-.23.16-1.149-.008-2.026-.453-1.238-.626-3.039.716-2.138 1.61s-.675 4.295 1.8 3.938 5.063-1.612 5.176.088 3.6 3.58 0 3.759-5.4.626-5.176 2.146 2.025 6.532 3.938 3.758c1.915-2.773 5.74-2.684 6.864-.178s2.701 5.28 2.701 5.28l.63-.814s1.191 2.966 1.111 4.86l1.191-.57.874 5.618 1.35-1.073.397 6.879 2.222-1.515s.239 3.345.556 4.481l1.191-.694s.398 2.02 2.302 4.039c1.777 1.884 8.177 6.235 9.027 6.812 1.508-.81 2.63-2.906 4.462-4.098zm-29.666-45.733 2.727 4.475-2.727-4.475z" fill="#b4001e"/><path d="m748.06 73.39-.038-.001c.152.225.325.442.518.647l.063-.619-.543-.027zM718.457 107.153l-.1-.067c-.229.124-.468.221-.72.277 0 0 .349.175.935.343l.502-.192-.617-.361z" fill="#ed312e"/><path d="M759.861 138.997c.169-.66.198-1.32.164-1.973-.335.011-9.398.295-12.29-.96-2.946-1.278-8.17-1.17-11.517 1.28s-9.375 5.217-12.321 1.915c-.763-.855-1.158-1.617-1.323-2.276-.475-1.889.921-2.94.921-2.94s-8.568 2.128-2.81 7.346c-6.295 1.491-9.777-3.727-9.777-3.727s-1.714 5.532 3.03 6.341c4.274.73 7.952.368 7.952.368s-4.222 5.312-9.3 4.996c0 0 2.221 2.966 9.603-1.2 0 0-.398 1.389.397 2.967 0 0 6.112-3.787 6.667 1.01s.634 4.29 1.667 5.048 2.62 3.786-.476 3.724-6.667-.947-9.128-1.01-10.238 1.2-11.904-.316-3.81-2.524-4.127-4.355-1.508-2.083-2.46-2.02-2.62.632-2.064 2.336c0 0-.241 1.008-.936.846l5.82 4.43-5.82-4.43a1.019 1.019 0 0 1-.334-.151c-.952-.631-3.254-1.578-3.572-.064s.239 2.84-.239 3.598-1.11 1.01-1.032 2.21-.874 4.48.952 4.543 1.985-1.389 4.842-1.262 7.699-.379 5.556.947-4.603 1.767-4.842 2.903.793.82 1.826.883 1.984 1.01 2.222 1.893 1.905 1.579 2.38-.19.874-4.527 2.938-4.67c2.34-.16 3.291 1.516 3.291 1.516 1.521 2.136 2.73 3.132 3.448 3.31 0 0 .133-1.565 1.97-2.028s2.908.817 3.402 1.636c.492.82 1.521 2.35 3.671 2.671 0 0-.18-2.314 1.656-2.279s2.642 2.813 6.134 3.383c0 0 .09-1.424 1.387-1.816 1.299-.392 1.97-1.352 2.015-1.85 0 0 .403 2.953 3.717 3.522 0 0 .176-.836 1.342-1.886 1.345-1.21 1.855-1.797 5.27-1.824 3.427-.027 5.952-2.777 5.952-2.777s-4.206 1.388-7.222-.253-7.46-11.864 4.524-15.335c3.575-.931 5.477-.845 6.057-.784-.116-3.311 1.423-8.152 2.721-13.246zm-60.869 20.773c-1.828-1.124-3.16-.331-3.16-.331s1.332-.793 3.16.33 4.076 2.58 4.076 2.58-2.246-1.455-4.076-2.58z" fill="#b4001e"/><path d="M817.523 62.347c-1.798-2.693-3.6-6.227-7.514-6.227 0 0 5.291-4.291.74-7.573 0 0-1.35 5.722-9.099 5.722-15.21 0-19.444 7.713-18.121 23.16 1.032 12.055 12.46 18.113 20.238 24.297 6.654 5.291 8.015 15.146 8.015 15.146l-.126-.168c-3.308-4.316-7.242-4.466-12.412-6.647-5.238-2.21-1.191-7.447-1.191-7.447-10.873 2.903-3.65 9.34-3.65 9.34l-2.858 2.398c-4.285 3.029-8.888-2.588-8.888-2.588-.477 5.932 5.476 6.058 5.476 6.058-11.11 7.384.794 11.676.794 11.676-4.762-4.418 2.302-8.394 2.302-8.394 1.826 5.932 7.857 2.02 7.857 2.02-2.937-.064-7.698-5.933 2.381-7.069s13.81 14.262 2.302 20.006c-11.508 5.743-23.967-3.03-26.27-8.52s-10.157-13.379-10.157-13.379l-.039-.037c-1.617.138-5.436.15-7.104-2.55l.239 5.112s-3.89-.378-5-3.471-1.827-.947-2.462.252-2.302 2.272-5 2.714c0 0 .715-3.912.715-5.364 0 0-3.89 5.427-10.715 5.932 0 0 1.509-1.64 1.191-3.408 0 0-1.826.316-3.572-.757s-.08-2.398.398-3.598c.452-1.14-.098-3.872-.154-4.139-.499.28-.946.569-1.275.858-1.587 1.388-2.857 3.471-8.253 2.588 0 0 1.984-.695 3.809-3.093s5-4.229 5-4.229-4.788 1.431-9.338 5.133c-2.916 2.372-5.786 2.015-7.213 1.605l-.036.014c-4.232 1.515-16.27 8.899-16.27 8.899-5.238 3.092-9.206 5.806-14.761 6.69s-8.571-.57-11.428-2.147-2.381 1.515-2.381 1.515v1.957c0 1.957 3.492.694 5.555 1.2s-4.92 3.47-8.73 3.85-1.826 2.65-.952 2.65 1.111-.316 2.302 1.2 2.62 1.325 3.89-.38 3.968-2.208 5.635-3.092 1.746-.064 1.746 1.64-1.111 2.525-2.857 3.598.556 1.515 1.508 1.831 1.509.631 2.222 1.64 2.303.19 2.303-3.723 2.222-3.976 4.048-5.68 1.826.695 1.746 2.903.476 2.525 1.746 2.65 2.62-.315 3.492-3.028 3.65-1.767 3.65-1.767c.715.504 1.746.252 1.746.252-.556-1.515.635-2.84.635-2.84 1.111 2.209 4.366 2.272 4.366 2.272-.715-1.389.397-2.715.397-2.715 1.826 3.22 5.477 2.715 5.477 2.715-.794-1.2-.398-3.03-.398-3.03 1.27 1.767 3.572 1.074 3.572 1.074-1.19-1.515-.08-3.534-.08-3.534 1.826 3.093 5 2.524 5 2.524-1.587-2.714.874-3.093 2.382-2.21s3.73 0 3.73 0c2.144-.504 2.54 1.453 2.54 1.453s2.485-1.448 4.285-2.272c.913-.418 1.958-.572 2.936-.6l-.687-1.353.687 1.353c1.829-.051 3.413.348 3.413.348s-1.584-.4-3.413-.348l.08.158c3.255 5.806 11.11 6.941 15 7.51s6.508 3.093 6.508 3.093l.19.228c-1.965-4.711-7.438-8.495-7.438-8.495s5.474 3.784 7.438 8.495l1.247 1.487-1.247-1.487a8.54 8.54 0 0 1 .662 2.827l.03-.001h1.205-1.205l-.03.001c.034.653.005 1.313-.164 1.973-1.296 5.094-2.837 9.935-2.726 13.246.128.015.213.027.213.027l1.137.063-1.137-.063s-.085-.013-.213-.027c.033 1.011.214 1.884.61 2.572 1.693 2.946 8.148 8.415 4.02 12.538s-5.184 4.46-4.76 8.499c0 0 .502-3.198 3.518-4.208 0 0-.794 4.355 1.428 6.437 0 0-.556-3.282 1.826-4.67 0 0 2.144 3.471 5.873 2.272 0 0-2.778-2.02-2.778-4.67s1.19-3.85 2.857-1.83 4.524 2.019 6.666.82 6.508-5.112 6.508-1.957.715 4.103 1.508 4.544.635 1.705-.715 3.093-2.54 3.534-3.174 4.986-3.81 4.796-5.16 3.534-3.967-2.083-4.76-1.262-2.78 1.073-1.668 1.83 1.11 2.146.873 3.282 1.27 1.262.635 2.524c0 0 1.26-1.774 3.93-3.138-2.67 1.365-3.93 3.138-3.93 3.138-.635 1.262-1.984 1.2-.158 2.336s2.063 2.524 4.048 1.956 2.62-.063 2.698 1.074 2.222 3.029 3.096.757.635-5.427.556-6.248.874-1.01 2.222-1.767 3.65-1.452 3.81.19-.318 4.986.634 5.364 2.223.569 2.303-.883.634-1.83 2.143-2.083 2.698-.442 2.778-1.767-.08-2.336-2.46-2.336-2.62-.252-2.62-1.514-.476-2.777 2.54-2.967 6.084-.588 7.037-1.41c0 0-2.383-.378-3.387-1.682s-2.54-1.136-2.54-1.136.054-.421 1.641-.631 6.72-.884 7.83-3.45c0 0-1.958.63-3.598-.463s-2.274-1.052-2.274-1.052.794-.589 3.121-.589 4.867-2.02 4.867-2.02-2.17-.084-2.963-.841-1.798-1.389-3.227-1.473c0 0 1.693-1.303 3.862-1.472 2.17-.168 3.491-2.062 3.491-2.062s-1.639.338-3.226-.462-4.075-.463-4.075-.463 1.166-1.304 3.864-1.43 5.449-1.852 5.449-1.852-2.274.084-3.65-.884c0 0-2.911-1.766-3.282-3.449-.37-1.683.424-2.02-.132-2.84-.707-1.044-3.413-2.714-3.016-5.553 0 0-.873-.443-3.413 1.704s-7 5.125-10.937 3.743c0 0-5.674-1.565-3.666-12.515 0 0 38.465 12.137 38.676-17.986.21-27.431-26.56-27.431-29.946-42.577 0 0-5.607-23.392 14.075-21.204 0 0 2.222.336.422 3.113s-2.01 9.761-2.01 9.761 1.734.195 3.003-.31c0 0 .488.899-.887 2.246s-2.328 5.384.53 8.077 9.1 2.946 9.1 2.946-2.54-2.44-1.164-5.049 2.751-3.198 3.174-5.385c0 0 2.964 6.816 8.782 3.534 0 0-3.916-2.188-3.068-5.132.846-2.945 1.48-3.87 1.48-5.301 0 0 4.559-.336 4.559-5.47-.009-.004-7.21 3.362-9.011.67zM775.27 191.529c-1.24.91-1.24 3.373-1.24 3.373s0-2.463 1.24-3.373 2.526-2.046 2.526-2.046-1.288 1.136-2.526 2.046z" fill="#b4001e"/><g fill="none" stroke="#000"><path d="M-168.09 327.38s.12-1.837 2.632-3.795c2.51-1.958 5.862-5.877 6.7-8.94M-154.49 354.23s-9.81-.488-7.895-15.428" stroke-width="2.038" transform="matrix(.55683 0 0 .43261 897.83 -70.11)"/><path d="M-240.49 519.74s2.565 9.336 12.257 8.752M-199.15 523.82l4.846-.584s2.565-.291 2.565 2.626v5.835" stroke-width="2.445" transform="matrix(.55683 0 0 .43261 897.83 -70.11)"/><path stroke-width="2.038" d="m-355.62 523.59 10.46 10.24" transform="matrix(.55683 0 0 .43261 897.83 -70.11)"/></g><path d="M-353.38 517.63s-6.273-8.867-14.188-1.835c0 0 6.273.002 8.216 5.81l4.144 2.48 1.338-2.284c-.002 0-1.028-2.857.49-4.171z" fill="#1e82d2" stroke="#000" stroke-width="1.425" transform="matrix(.55683 0 0 .43261 897.83 -70.11)"/><path d="M-362.79 530.62c4.494.442 9.181 3.93 12.994 6.727" fill="none" stroke="#000" stroke-width="2.038" transform="matrix(.55683 0 0 .43261 897.83 -70.11)"/><g fill="#1e82d2" stroke="#000" stroke-width="1.425"><path d="M-364.73 533.99c-2.24-5.35-11.352-5.044-11.352-5.044 3.434-7.947 13.443-4.892 13.443-4.892s-.157 3.464.064 5.14c.221 1.676-2.155 4.796-2.155 4.796zM-345.46 560.74c-6.421 2.446-6.72 11.619-6.72 11.619-7.617-11.313-.748-17.883-.748-17.883s.474.61 2.707.534c2.232-.074 3.347 1.679 3.794 3.049.447 1.37.967 2.681.967 2.681zM-365.03 536.13s-13.443-3.517-12.994 10.393c0 0 5.824-7.182 12.544-3.82" transform="matrix(.55683 0 0 .43261 897.83 -70.11)"/></g><path d="M-228.8 602.6s2.264-4.1 7.056-7.254M-222.34 612.6s1.105-4.269 3.33-6.374c2.226-2.105 3.431-6.153 3.431-6.153" fill="none" stroke="#000" stroke-width="2.038" transform="matrix(.55683 0 0 .43261 897.83 -70.11)"/><g fill="#1e82d2" stroke="#000" stroke-width="1.425"><path d="M-229.88 597.36c-6.761-.35-9.755 5.17-9.755 5.17-2.31-12.263 7.958-13.843 7.958-13.843s2.1 2.712 2.1 4.192-.303 4.48-.303 4.48zM-230.81 606.29s-9.158 8.412 2.052 16.469c0 0-1.197-8.232 3.083-10.86M-214.88 617.59c-5.99 2.367-2.994 11.301-2.994 11.301-12.494-5.256-5.393-16.382-5.393-16.382s2.054.49 4.054-.42c2-.91 3.665.565 3.777 2.159.111 1.594.556 3.342.556 3.342zM-186.57 602.87c2.654 12.788-7.019 16.294-7.019 16.294 3.594-4.817-1.37-7.97-1.37-7.97s.82-1.72.82-3.882c0-2.161 1.446-2.957 3-3.184 1.552-.226 4.569-1.258 4.569-1.258z" transform="matrix(.55683 0 0 .43261 897.83 -70.11)"/></g><g fill="none" stroke="#000"><path d="M-249.04 471.75s-4.704-5.835-11.687-7.149c-6.982-1.314-21.093-3.94-26.938-17.36M-312.53 394.14s9.477 1.606 17.032-5.252 14.966-8.46 22.662-8.46" stroke-width="2.445" transform="matrix(.55683 0 0 .43261 897.83 -70.11)"/><path d="M-284.95 424.05s-1.496-5.616 5.845-11.67" stroke-width="2.035" transform="matrix(.55683 0 0 .43261 897.83 -70.11)"/><g stroke-width="2.241"><path d="M-246.95 420.45s-2.47-5.543-2.47-14.489M-257.68 419.96v-14M-267.85 418.21s2.661-9.142 2.661-14.587" transform="matrix(.55683 0 0 .43261 897.83 -70.11)"/></g></g><g fill="#1e82d2" stroke="#000" stroke-width="1.425"><path d="M-404.53 472.48c-5.56 1.022-9.406 11.67-9.406 11.67-4.99-10.211 2.565-16.777 2.565-16.777s.96.75 2.185.439 2.14.754 2.752 1.755 1.904 2.913 1.904 2.913zM-384.01 482.83c-5.845 2.042-7.696 11.525-7.696 11.525-4.135-7.877.855-16.193.855-16.193s1.785.161 3.498 1.102 2.465 2.502 3.343 3.566M-402.54 443.01s-11.117-3.064-12.257 8.752c0 0 7.126-3.356 12.257-1.167M-368.9 472.18l-1.995 10.65s4.846-3.793 6.556-8.9" transform="matrix(.55683 0 0 .43261 897.83 -70.11)"/></g><g fill="none" stroke="#000" stroke-width="2.241"><path d="M-238.11 404.01s2.28-7.487.38-17.505M-225.95 399.83s2.85-10.697-6.556-18.088M-223.76 376.68s-5.037-2.236-8.362-7.196M-224.42 353.26s-2.481-.303-5.046-3.804c-2.11-2.88-5.797-4.57-7.792-8.363M-235.62 319.95s-3.895-2.042-10.166-3.111" transform="matrix(.55683 0 0 .43261 897.83 -70.11)"/></g><g stroke="#000"><path d="M-267.79 316.07s-4.401-5.52-6.884-2.614c-2.484 2.906-6.103 4.574-3.193 6.029 2.91 1.454 4.155.819 6.78.891 2.624.073 6.348-1.183 3.297-4.306z" stroke-width=".814" transform="matrix(.55683 0 0 .43261 897.83 -70.11)"/><path d="m-265.35 348.88-29.962-.618s-19.287.802-10.166-23.412c0 0-.627 19.748 15.144 19.748s23.052.273 23.052.273" fill="#1e82d2" stroke-linejoin="round" stroke-width="1.426" transform="matrix(.55683 0 0 .43261 897.83 -70.11)"/><path transform="matrix(1.2698 0 0 1.00971 625.072 15.443)" fill="#fff" stroke-width=".353" d="m88.475 67.073.791-1.644 1.042 1.686"/><path transform="matrix(1.2698 0 0 1.00971 625.072 15.914)" fill="#fff" stroke-width=".353" d="m87.808 58.823 1.125 2.267.958-1.975"/></g><g fill="#1e82d2" stroke="#000" stroke-width="1.425"><path d="M-380.26 334.62s-12.022 3.597-17.158-7.329c0 0 7.835 2.766 13.915.276M-386.74 306.69s-9.188-3.454-13.374-.275c0 0 2.837-8.435 12.565-7.051M-379.04 295.21s-4.054-7.191-11.213-4.7c0 0 6.485-9.127 16.483-.278M-361.88 292.72s-1.218-8.988-7.566-12.167c0 0 7.837-1.66 12.97 9.817" transform="matrix(.55683 0 0 .43261 897.83 -70.11)"/></g><g fill="none" stroke="#000"><path d="M-379.93 298.67s6.16 1.1 12.373 10.088M-367.59 294.41l4.9 10.34" stroke-width="2.038" transform="matrix(.55683 0 0 .43261 897.83 -70.11)"/><g stroke-width="2.445"><path d="M-267.03 332.44s-10.793-1.03-13.217 1.013c-2.424 2.042-6.271 4.523-9.692 1.897-3.42-2.625-6.556-2.189-6.556-6.71 0-4.52 1.426-9.044.144-10.795s-2.71-5.398 3.135-5.398 10.547 1.022 15.963-3.501 7.84-2.626 11.402-2.773c3.562-.147 5.275-.292 7.84-2.626s6.7-6.418 6.7-6.418-1.14 8.9 2.85 9.044c3.991.144 6.842 3.209 9.407 5.69s1.569 9.044 5.13 8.608c3.563-.437 7.556-5.107 7.556-5.107s-2.043 6.176-1.854 9.628c.157 2.861 2.139 6.71 2.139 10.795 0 4.084.57 13.276 10.547 13.276 0 0-1.425 4.96-8.695 4.231 0 0-1 1.75.428 4.815 1.428 3.065.43 13.86 10.262 14.004 0 0-1.854 6.71-10.12 4.524 0 0-3.564 15.9 6.271 18.088 0 0-2.139 7.293-8.41 4.815 0 0-3.279 10.942 3.991 11.962 0 0-8.125 9.19-13.541-4.085-5.416-13.276-3.564 12.984 2.28 18.235 0 0-10.262 2.334-14.11-5.69l.428 11.817s-6.985-.875-8.98-8.024c-1.995-7.15-3.28-2.19-4.42.583-1.14 2.773-4.134 5.252-8.98 6.274 0 0 1.284-9.044 1.284-12.4 0 0-6.985 12.545-19.242 13.712 0 0 2.71-3.793 2.14-7.877 0 0-3.28.73-6.415-1.75-3.136-2.482-.144-5.544.713-8.317.858-2.773-.285-9.628-.285-9.628" transform="matrix(.55683 0 0 .43261 897.83 -70.11)"/><path d="M-282.67 399.83s-7.696 3.356-10.547 6.566c-2.85 3.209-5.13 8.024-14.822 5.981 0 0 3.564-1.605 6.841-7.149 3.277-5.543 8.98-9.774 8.98-9.774s-8.6 3.307-16.77 11.864c-7.386 7.735-13.052 3.935-13.052 3.935 1.84-1.991 3.933-7.954 7.73-11.13 6.27-5.252 1.52-6.03 1.52-6.03-7.98-1.167-7.41-9.336-7.41-9.336 6.651 4.085 18.431.778 21.092-1.75 2.661-2.528 9.692-2.724 12.923-6.419 3.232-3.694 7.03-2.917 12.161-3.307 5.131-.39 8.362-6.612 8.362-6.612s1.521-4.474-1.52-3.89c-3.043.583-8.552 2.527-12.732.776-4.18-1.75-7.41-.78-8.551.778s-2.28 3.307-7.03 2.723c0 0 2.66-1.363 2.66-5.64s-.95-6.613 3.61-6.42c4.561.194 20.524.194 20.524.194s3.407-.032 3.42-2.917c.016-3.307-3.037-9.324-2.846-19.05" transform="matrix(.55683 0 0 .43261 897.83 -70.11)"/><path d="M-295.51 381.01s-20.813-8.895-29.503-31.85c-8.69-22.955-28.29-34.541-28.29-34.541s-6.064-2.689-2.223-12.618c3.84-9.929-.201-12.615-1.818-11.376-1.617 1.24-3.637 2.481-5.457 1.655s-3.637 4.136-6.465 1.034-3.436-4.757-6.063-1.655-5.86 4.759-4.648 6.206c1.214 1.447-1.213 1.24-3.434-.208-2.22-1.447-5.457 1.655-3.84 3.723 1.617 2.068-1.21 9.926 3.234 9.1s9.094-3.725 9.294.206c.201 3.93 6.468 8.274 0 8.687-6.467.413-9.698 1.447-9.294 4.962.403 3.515 3.635 15.099 7.071 8.687 3.437-6.412 10.307-6.206 12.328-.413 2.02 5.793 4.848 12.204 4.848 12.204l1.133-1.881s2.14 6.857 1.996 11.233l2.139-1.314 1.569 12.984 2.424-2.481.713 15.9 3.991-3.5s.429 7.732.999 10.358l2.139-1.606s.714 4.668 4.134 9.336c3.42 4.668 16.391 15.9 16.391 15.9M-252.32 514.05s-3.42-.875-11.26 1.75c-21.522 8.025-13.541 31.656-8.125 35.45s12.971.583 12.971.583-4.536 6.358-10.69 6.418c-6.132.061-7.05 1.42-9.464 4.218-2.093 2.427-2.412 4.36-2.412 4.36-5.95-1.317-6.673-8.143-6.673-8.143-.082 1.153-1.286 3.372-3.616 4.278-2.33.905-2.493 4.196-2.493 4.196-6.27-1.314-7.719-7.735-11.016-7.819-3.297-.084-2.973 5.268-2.973 5.268-3.859-.74-5.708-4.278-6.593-6.173-.885-1.895-2.814-4.855-6.109-3.784s-3.537 4.69-3.537 4.69c-1.286-.414-3.457-2.715-6.189-7.651 0 0-1.635-3.898-5.91-3.504-3.701.341-4.42 6.71-5.275 10.795s-3.85 2.481-4.276.44-2.139-4.232-3.99-4.377c-1.852-.145-3.706.583-3.28-2.042.427-2.626 4.846-3.648 8.696-6.71s-4.846-1.898-9.977-2.19-5.416 3.065-8.695 2.918c-3.28-.147-1.569-7.733-1.71-10.503-.142-2.77.998-3.357 1.854-5.107s-.144-4.815.428-8.316c.573-3.501 4.705-1.314 6.415.147s2.28-1.606 2.28-1.606c-.998-3.94 1.996-5.251 3.706-5.398s3.85.439 4.42 4.668c.57 4.229 4.419 6.565 7.41 10.066s16.962.583 21.379.73c4.417.147 10.832 2.19 16.39 2.334s2.71-6.857.856-8.608c-1.854-1.75-1.996-.583-2.994-11.67-1-11.086-11.972-2.334-11.972-2.334-1.426-3.648-.714-6.857-.714-6.857-13.256 9.628-17.246 2.773-17.246 2.773 9.121.73 16.704-11.549 16.704-11.549s-6.604.833-14.282-.85c-8.517-1.869-5.441-14.657-5.441-14.657s6.253 12.062 17.557 8.615c-10.341-12.062 5.049-16.982 5.049-16.982s-2.509 2.432-1.656 6.797c.297 1.524 1.006 3.286 2.376 5.263 5.29 7.632 16.113 1.23 22.126-4.43 6.014-5.66 15.393-5.907 20.683-2.955 5.29 2.953 22.126 2.215 22.126 2.215M-281.68 447.68s-6.7-2.19-11.402.583c-3.231 1.905-7.696 5.252-7.696 5.252s-.714-4.523-4.561-3.356c0 0-3.99 2.042-6.7 0-2.709-2.043-7.126-1.167-4.275 5.106 0 0-5.701 1.314-8.98-5.835 0 0-1.996 4.668.143 8.17 0 0-4.134 1.605-6.415-2.482 0 0-.713 4.232.714 7.002 0 0-6.556 1.167-9.835-6.273 0 0-1.995 3.064-.714 6.273 0 0-5.844-.147-7.84-5.251 0 0-2.139 3.064-1.14 6.565 0 0-1.854.584-3.135-.583 0 0-4.99-2.19-6.557 4.085-1.566 6.273-3.99 7.293-6.27 7.002s-3.28-1.023-3.136-6.127c.144-5.105.144-10.65-3.136-6.71-3.279 3.94-7.27 4.084-7.27 13.129s-2.85 10.942-4.134 8.607c-1.283-2.334-2.28-3.064-3.99-3.792-1.71-.729-5.845-1.75-2.71-4.232 3.136-2.48 5.131-4.376 5.131-8.316 0-3.94-.143-5.835-3.135-3.792s-7.84 3.209-10.12 7.149c-2.28 3.94-4.846 4.376-6.985.875-2.139-3.501-2.565-2.773-4.134-2.773s-5.13-5.252 1.71-6.127c6.841-.875 19.383-7.732 15.678-8.9-3.705-1.166-9.976 1.751-9.976-2.772v-4.523s-.856-7.15 4.275-3.501c5.131 3.648 10.547 7.002 20.523 4.96s17.103-8.317 26.51-15.464c0 0 21.615-17.068 29.217-20.569" transform="matrix(.55683 0 0 .43261 897.83 -70.11)"/><path d="M-234.36 425.94s14.111 18.235 18.243 30.925c4.132 12.69 26.509 32.968 47.176 19.694s13.967-48.869-4.134-46.243c-18.102 2.626-9.55 16.193-4.276 16.338 0 0-10.832 9.044-14.111-4.668 0 0-12.686 9.191-4.134 19.402 0 0-21.378-9.92-1.426-26.988 0 0-10.69-.292-9.835-14.004 0 0 8.267 12.984 15.963 5.982l5.131-5.543s-12.97-14.88 6.556-21.59c0 0-7.27 12.11 2.14 17.214 9.287 5.041 16.35 5.389 22.29 15.365.078.128.153.259.228.39 0 0-2.447-22.78-14.396-35.01-13.967-14.296-34.49-28.3-36.345-56.163-2.376-35.708 5.227-53.537 32.543-53.537 13.92 0 16.343-13.227 16.343-13.227 8.17 7.585-1.33 17.505-1.33 17.505 7.031 0 10.263 8.169 13.494 14.394 3.231 6.224 16.165-1.557 16.165-1.557 0 11.864-8.184 12.643-8.184 12.643 0 3.307-1.14 5.445-2.661 12.253-1.521 6.808 5.512 11.864 5.512 11.864-10.451 7.585-15.773-8.17-15.773-8.17-.76 5.059-3.232 6.42-5.701 12.448-2.47 6.028 2.09 11.67 2.09 11.67s-11.212-.584-16.342-6.808c-5.131-6.225-3.42-15.561-.951-18.672 2.47-3.112 1.594-5.191 1.594-5.191-2.28 1.167-5.393.716-5.393.716s.38-16.144 3.61-22.563c3.229-6.418-.76-7.195-.76-7.195-35.346-5.058-25.273 49.014-25.273 49.014 6.082 35.01 54.16 35.01 53.78 98.417-.378 69.63-69.458 41.575-69.458 41.575-3.61 25.312 6.584 28.93 6.584 28.93 7.069 3.195 15.08-3.693 19.64-8.652 4.561-4.96 6.13-3.94 6.13-3.94-.714 6.565 4.146 10.424 5.416 12.837.999 1.897-.429 2.675.237 6.565.666 3.891 5.89 7.973 5.89 7.973 2.47 2.236 6.557 2.042 6.557 2.042s-4.942 3.99-9.788 4.28-6.937 3.306-6.937 3.306 4.465-.778 7.316 1.071 5.796 1.069 5.796 1.069-2.376 4.376-6.27 4.766c-3.896.39-6.938 3.403-6.938 3.403 2.566.194 4.372 1.653 5.797 3.403 1.425 1.75 5.32 1.947 5.32 1.947s-4.56 4.668-8.74 4.668c-4.18 0-5.606 1.36-5.606 1.36s1.14-.095 4.087 2.432c2.946 2.528 6.46 1.07 6.46 1.07-1.995 5.932-11.213 7.489-14.063 7.974s-2.946 1.46-2.946 1.46 2.755-.39 4.56 2.625c1.807 3.015 6.082 3.89 6.082 3.89-1.71 1.898-7.221 2.82-12.638 3.259s-4.56 3.94-4.56 6.857c0 2.918.428 3.501 4.704 3.501s4.56 2.334 4.42 5.399c-.142 3.064-2.281 3.5-4.99 4.084-2.71.583-3.706 1.459-3.85 4.815-.143 3.356-2.423 2.918-4.134 2.042-1.71-.875-.855-8.607-1.14-12.4-.285-3.792-4.42-2.19-6.841-.439-2.422 1.75-4.134 2.19-3.99 4.085.143 1.895.57 9.191-1 14.443-1.568 5.251-5.415.875-5.56-1.75-.143-2.626-1.283-3.793-4.845-2.482-3.562 1.312-3.99-1.897-7.27-4.523-3.279-2.626-.855-2.48.285-5.398 1.14-2.918-1.569-3.21-1.14-5.835s.429-5.835-1.569-7.586c-1.997-1.75 1.57-2.334 2.994-4.231 1.426-1.898 6.13 0 8.552 2.917 2.422 2.918 8.125-4.815 9.265-8.169 1.14-3.354 3.28-8.316 5.7-11.525 2.423-3.21 2.71-6.127 1.285-7.149s-2.71-3.21-2.71-10.503-7.84 1.75-11.686 4.523-8.98 2.773-11.972-1.897-5.131-1.898-5.131 4.231 4.99 10.795 4.99 10.795c-6.7 2.773-10.548-5.251-10.548-5.251-4.276 3.21-3.279 10.795-3.279 10.795-3.99-4.815-2.565-14.88-2.565-14.88-5.416 2.335-6.32 9.727-6.32 9.727-.759-9.336 1.14-10.116 8.552-19.645 7.411-9.53-4.18-22.173-7.222-28.981-3.042-6.809.76-21.2 3.802-36.564 3.042-15.365-14.252-30.732-14.252-30.732" transform="matrix(.55683 0 0 .43261 897.83 -70.11)"/></g></g></svg>
