<?xml version="1.0" encoding="UTF-8" standalone="no"?>
<!-- Created with Inkscape (http://www.inkscape.org/) -->

<svg
   width="800"
   height="470"
   viewBox="0 0 211.66666 124.35417"
   version="1.1"
   id="svg1"
   xml:space="preserve"
   inkscape:version="1.4.2 (f4327f4, 2025-05-13)"
   sodipodi:docname="Flag_of_Quetzaltenango_Department.svg"
   xmlns:inkscape="http://www.inkscape.org/namespaces/inkscape"
   xmlns:sodipodi="http://sodipodi.sourceforge.net/DTD/sodipodi-0.dtd"
   xmlns="http://www.w3.org/2000/svg"
   xmlns:svg="http://www.w3.org/2000/svg"><sodipodi:namedview
     id="namedview1"
     pagecolor="#ffffff"
     bordercolor="#999999"
     borderopacity="1"
     inkscape:showpageshadow="2"
     inkscape:pageopacity="0"
     inkscape:pagecheckerboard="0"
     inkscape:deskcolor="#d1d1d1"
     inkscape:document-units="px"
     inkscape:zoom="1.2725"
     inkscape:cx="400"
     inkscape:cy="235.36346"
     inkscape:window-width="1600"
     inkscape:window-height="837"
     inkscape:window-x="-8"
     inkscape:window-y="-8"
     inkscape:window-maximized="1"
     inkscape:current-layer="layer1" /><defs
     id="defs1"><inkscape:path-effect
       effect="spiro"
       id="path-effect29"
       is_visible="true"
       lpeversion="1" /><inkscape:path-effect
       effect="spiro"
       id="path-effect15"
       is_visible="true"
       lpeversion="1" /><inkscape:path-effect
       effect="spiro"
       id="path-effect6"
       is_visible="true"
       lpeversion="1" /><pattern
       id="EMFhbasepattern"
       patternUnits="userSpaceOnUse"
       width="6"
       height="6"
       x="0"
       y="0" /><inkscape:path-effect
       effect="spiro"
       id="path-effect29-4"
       is_visible="true"
       lpeversion="1" /><inkscape:path-effect
       effect="spiro"
       id="path-effect15-1"
       is_visible="true"
       lpeversion="1" /><inkscape:path-effect
       effect="spiro"
       id="path-effect6-1"
       is_visible="true"
       lpeversion="1" /><pattern
       id="EMFhbasepattern-3"
       patternUnits="userSpaceOnUse"
       width="6"
       height="6"
       x="0"
       y="0" /></defs><g
     inkscape:label="Capa 1"
     inkscape:groupmode="layer"
     id="layer1"><rect
       style="fill:#ffffff;fill-opacity:1;stroke-width:0.280708;stroke-linejoin:bevel"
       id="rect3"
       width="211.51515"
       height="124.35416"
       x="0.15151565"
       y="4.9404298e-06"
       ry="3.5172745e-06"
       inkscape:label="rect1" /><rect
       style="fill:#033198;fill-opacity:1;stroke-width:0.15875;stroke-linejoin:bevel"
       id="rect1"
       width="211.51514"
       height="43.599709"
       x="0.15151565"
       y="4.9404298e-06"
       inkscape:label="rect2" /><rect
       style="fill:#ff0000;fill-opacity:1;stroke-width:0.15875;stroke-linejoin:bevel"
       id="rect4"
       width="211.51515"
       height="40.953884"
       x="0.15151565"
       y="83.400284"
       inkscape:label="rect3" /><g
       inkscape:label="Capa 1"
       id="layer1-7-8"
       transform="matrix(1.2920221,0,0,1.2919805,71.445463,29.516079)"
       style="stroke-width:0.773992"><g
         inkscape:label="Layer 1"
         id="layer1-8-7"
         transform="matrix(0.12768748,0,0,0.12748711,-11.762346,-56.776442)"
         style="opacity:1;stroke-width:1.60505"><path
           style="display:inline;overflow:visible;visibility:visible;opacity:1;fill:#9cffff;fill-opacity:1;fill-rule:evenodd;stroke:#000000;stroke-width:1.12777;stroke-opacity:1;marker:none;marker-start:none;marker-mid:none;marker-end:none;enable-background:accumulate"
           d="m 230.60382,451.8767 c -19.33446,35.80782 -55.29344,58.60353 -76.41075,58.60353 v 149.50596 c 0,9.19253 42.51619,112.50824 146.8272,112.50824 104.31101,0 146.84916,-103.31571 146.84916,-112.50824 V 510.48023 c -21.11731,0 -57.0763,-22.79571 -76.41075,-58.60353 h -70.43841 z"
           id="path2414-4" /><path
           style="display:inline;overflow:visible;visibility:visible;opacity:1;fill:#00ceff;fill-opacity:1;fill-rule:evenodd;stroke:#000000;stroke-width:1.69164;stroke-linecap:butt;stroke-linejoin:miter;stroke-miterlimit:4;stroke-dasharray:none;stroke-dashoffset:0;stroke-opacity:1;marker:none;marker-start:none;marker-mid:none;marker-end:none;enable-background:accumulate"
           d="m 154.19307,602.37073 v 57.61546 c 0,9.19253 42.51619,112.50824 146.8272,112.50824 104.31101,0 146.84916,-103.31571 146.84916,-112.50824 v -57.61546 z"
           id="path3242-2" /><path
           style="display:inline;overflow:visible;visibility:visible;opacity:1;fill:#ffffff;fill-opacity:1;fill-rule:evenodd;stroke-width:1.60505;marker:none;marker-start:none;marker-mid:none;marker-end:none;enable-background:accumulate"
           d="m 167.78453,691.09942 c 5.88366,9.94484 13.77246,21.1523 23.8015,32.01346 h 218.89044 c 10.0276,-10.85785 17.89503,-22.07123 23.77955,-32.01346 z"
           id="path3240-7" /><path
           style="display:inline;overflow:visible;visibility:visible;opacity:1;fill:#009c31;fill-opacity:1;fill-rule:evenodd;stroke:#000000;stroke-width:1.69164;stroke-linecap:butt;stroke-linejoin:miter;stroke-miterlimit:4;stroke-dasharray:none;stroke-dashoffset:0;stroke-opacity:1;marker:none;marker-start:none;marker-mid:none;marker-end:none;enable-background:accumulate"
           d="m 447.86943,614.40323 -148.6716,12.66925 -21.03491,-0.9222 -43.91422,1.82245 -42.06983,9.15611 -32.67939,19.53063 8.16435,3.81792 40.06068,-1.39144 55.79302,-5.48928 h 184.3519 z"
           id="path3189-7"
           sodipodi:nodetypes="ccccccccccc" /><path
           style="display:inline;overflow:visible;visibility:visible;opacity:1;fill:#ffffff;fill-opacity:1;fill-rule:evenodd;stroke:#000000;stroke-width:1.69164;stroke-linecap:butt;stroke-linejoin:miter;stroke-miterlimit:4;stroke-dasharray:none;stroke-dashoffset:0;stroke-opacity:1;marker:none;marker-start:none;marker-mid:none;marker-end:none;enable-background:accumulate"
           d="m 407.13062,574.01576 c 8.69724,-1.59474 15.40499,-4.33881 20.12324,-8.23223 l 2.74407,-14.63508 8.23223,-6.40284 -1.82939,-7.31754 c -1.99926,-14.67611 -13.46299,-18.91398 -21.03791,-27.44076 l -3.65877,-12.80569 -12.8057,-6.40285 -10.06161,-6.40284 -13.72038,-0.9147 -21.03792,-18.29384 c -10.87289,0.39271 -20.3247,2.22209 -28.35545,5.48815 l -3.65878,3.65877 c -5.95851,2.82066 -14.19074,1.90597 -24.69668,-2.74408 l -10.97631,3.65877 -3.65877,6.40285 c -7.17275,-5.42424 -12.356,-4.81445 -15.54976,1.82938 l -6.40284,-2.74407 -12.8057,3.65877 c -6.40284,-4.32759 -12.80569,-4.63249 -19.20853,-0.9147 l -6.40285,1.82939 c -4.97642,1.34253 -7.11071,4.6964 -6.40285,10.06161 l 23.782,17.37915 64.94315,65.85784 19.20853,10.9763 z"
           id="path3208-9"
           sodipodi:nodetypes="cccccccccccccccccccccccccc" /><path
           style="display:inline;overflow:visible;visibility:visible;opacity:1;fill:#319c63;fill-opacity:1;fill-rule:evenodd;stroke:#000000;stroke-width:1.69164;stroke-linecap:butt;stroke-linejoin:miter;stroke-miterlimit:4;stroke-dasharray:none;stroke-dashoffset:0;stroke-opacity:1;marker:none;marker-start:none;marker-mid:none;marker-end:none;enable-background:accumulate"
           d="m 282.73249,626.15321 70.4313,-89.63983 24.69669,-3.65877 66.77252,85.06637 -16.46446,10.06161 -38.41706,-1.82938 -20.12323,6.40285 -52.13745,-0.9147 z"
           id="path3200-3" /><path
           style="display:inline;overflow:visible;visibility:visible;opacity:1;fill:#e7e7bd;fill-opacity:1;fill-rule:evenodd;stroke:none;stroke-width:1.69164;stroke-linecap:butt;stroke-linejoin:miter;stroke-miterlimit:4;stroke-dasharray:none;stroke-dashoffset:0;stroke-opacity:1;marker:none;marker-start:none;marker-mid:none;marker-end:none;enable-background:accumulate"
           d="m 300.11165,616.0916 30.18483,-31.09954 -2.74407,10.9763 6.40285,-3.65876 -0.9147,12.80569 30.18484,-47.56399 v 15.54976 l 5.48816,-5.48815 -12.80569,61.28437 h -8.23223 l 0.91469,-28.35545 -21.95261,30.18484 -7.31754,-4.57346 8.23223,-10.06161 -2.74408,-0.9147 -8.23223,9.14693 -5.48815,-2.74408 10.06162,-14.63508 -21.03792,14.63508 z"
           id="path3202-1" /><path
           style="display:inline;overflow:visible;visibility:visible;opacity:1;fill:#e7e7bd;fill-opacity:1;fill-rule:evenodd;stroke:none;stroke-width:1.69164;stroke-linecap:butt;stroke-linejoin:miter;stroke-miterlimit:4;stroke-dasharray:none;stroke-dashoffset:0;stroke-opacity:1;marker:none;marker-start:none;marker-mid:none;marker-end:none;enable-background:accumulate"
           d="m 374.20171,584.99206 5.48815,-6.40284 1.82939,-16.46446 9.14692,10.9763 0.91469,32.01423 17.37915,17.37915 h -10.9763 l -24.69669,5.48815 z"
           id="path3204-9" /><path
           style="display:inline;overflow:visible;visibility:visible;opacity:1;fill:#e7e7bd;fill-opacity:1;fill-rule:evenodd;stroke:none;stroke-width:1.69164;stroke-linecap:butt;stroke-linejoin:miter;stroke-miterlimit:4;stroke-dasharray:none;stroke-dashoffset:0;stroke-opacity:1;marker:none;marker-start:none;marker-mid:none;marker-end:none;enable-background:accumulate"
           d="m 396.15432,581.33329 25.61138,38.41707 -3.65877,3.65877 -13.72038,-19.20854 -8.23223,-15.54976 z"
           id="path3206-8" /><path
           style="display:inline;overflow:visible;visibility:visible;opacity:1;fill:#aaaca7;fill-opacity:1;fill-rule:evenodd;stroke:#000000;stroke-width:1.69164;stroke-linecap:butt;stroke-linejoin:bevel;stroke-miterlimit:4;stroke-dasharray:none;stroke-dashoffset:0;stroke-opacity:1;marker:none;marker-start:none;marker-mid:none;marker-end:none;enable-background:accumulate"
           d="M 357.73725,542.00153 H 340.3581 c -10.21205,-2.24495 -11.0439,-6.72123 -12.80569,-10.97631 -0.98484,-3.22941 -2.92476,-6.33813 0,-10.06161 -5.22039,-1.56872 -10.03769,-2.72993 -13.72038,-2.74407 l -1.82939,-7.31754 c -6.13344,-1.08341 -12.08941,-2.07711 -19.20853,-3.65877 l -9.14692,-1.82938 c -9.4926,-4.46509 -8.13271,-10.08509 -8.23223,-15.54978 15.50042,2.28581 18.07245,6.66288 21.03792,10.97631 10.26242,1.1152 10.00815,-3.5501 13.72038,-4.57346 h 7.31754 l 5.48815,7.31754 12.80569,-3.65877 11.891,0.91469 5.48815,9.14693 c 7.01264,-3.11259 15.18476,-7.5574 22.1974,-4.43132 l 8.90213,2.60193 c 9.96379,2.72764 12.80515,5.90533 14.63507,9.14692 2.63791,4.26856 1.1186,8.53713 0.9147,12.80569 l -2.74408,5.48815 c -5.37046,3.08815 -12.33953,1.86655 -19.20853,0.9147 z"
           id="path3210-6"
           sodipodi:nodetypes="ccccccccccccccccccccccc" /><path
           style="display:inline;overflow:visible;visibility:visible;opacity:1;fill:#ff6b31;fill-opacity:1;fill-rule:evenodd;stroke:#000000;stroke-width:1.69164;stroke-linecap:butt;stroke-linejoin:miter;stroke-miterlimit:4;stroke-dasharray:none;stroke-dashoffset:0;stroke-opacity:1;marker:none;marker-start:none;marker-mid:none;marker-end:none;enable-background:accumulate"
           d="m 375.1164,541.08684 c 6.12252,-3.32471 6.83881,-9.38221 9.14692,-14.63507 l -10.06161,-3.65878 -5.48815,6.40285 -10.06161,-11.891 -0.9147,10.06161 -13.72038,-7.31753 v 8.23223 c 2.94999,7.75263 11.55778,9.78534 17.37915,14.63507 z"
           id="path3212-5"
           sodipodi:nodetypes="cccccccccc" /><path
           style="display:inline;overflow:visible;visibility:visible;opacity:1;fill:#672d00;fill-opacity:1;fill-rule:evenodd;stroke:#000000;stroke-width:1.69164;stroke-linecap:butt;stroke-linejoin:miter;stroke-miterlimit:4;stroke-dasharray:none;stroke-dashoffset:0;stroke-opacity:1;marker:none;marker-start:none;marker-mid:none;marker-end:none;enable-background:accumulate"
           d="m 220.53343,581.33329 12.80569,21.95262 1.82938,20.12322 -2.74408,32.01423 15.54977,-1.82939 v -30.18484 l 2.74408,-11.89099 17.37915,-21.03793 -10.06161,-2.74407 -9.14693,14.63507 -2.74407,-30.18484 -6.40285,6.40285 -2.74407,16.46446 -7.31754,-12.80569 z"
           id="path3244-0" /><path
           style="display:inline;overflow:visible;visibility:visible;opacity:1;fill:#009c31;fill-opacity:1;fill-rule:evenodd;stroke:#000000;stroke-width:1.69164;stroke-linecap:butt;stroke-linejoin:miter;stroke-miterlimit:4;stroke-dasharray:none;stroke-dashoffset:0;stroke-opacity:1;marker:none;marker-start:none;marker-mid:none;marker-end:none;enable-background:accumulate"
           d="m 265.35335,599.62714 17.37914,-2.74408 13.72039,-9.14692 3.65877,-24.69669 -10.06162,-25.61138 -9.14692,-8.23223 -9.14692,-10.9763 -12.80569,-8.23223 -26.52608,0.91469 h -16.46446 l -16.46445,9.14692 -6.40285,13.72038 v 19.20854 l -9.14691,7.31753 0.91468,10.06162 18.29385,24.69669 8.23223,4.57346 10.9763,-8.23223 10.06161,-3.65877 4.57347,4.57346 6.40284,-2.74408 8.23223,4.57346 8.23223,0.9147 z"
           id="path3214-2" /><path
           style="display:inline;overflow:visible;visibility:visible;opacity:1;fill:none;fill-opacity:0.651741;fill-rule:evenodd;stroke:#000000;stroke-width:1.69164;stroke-linecap:butt;stroke-linejoin:miter;stroke-miterlimit:4;stroke-dasharray:none;stroke-dashoffset:0;stroke-opacity:1;marker:none;marker-start:none;marker-mid:none;marker-end:none;enable-background:accumulate"
           d="m 278.15903,588.65083 -10.06161,2.74408 -2.74407,4.57345"
           id="path3218-8" /><path
           style="display:inline;overflow:visible;visibility:visible;opacity:1;fill:none;fill-opacity:0.651741;fill-rule:evenodd;stroke:#000000;stroke-width:1.69164;stroke-linecap:butt;stroke-linejoin:miter;stroke-miterlimit:4;stroke-dasharray:none;stroke-dashoffset:0;stroke-opacity:1;marker:none;marker-start:none;marker-mid:none;marker-end:none;enable-background:accumulate"
           d="m 269.01211,571.27168 -12.80569,9.14692 -0.91469,5.48815 -5.48815,1.82939 -6.40285,-2.74408"
           id="path3222-6" /><path
           style="display:inline;overflow:visible;visibility:visible;opacity:1;fill:none;fill-opacity:0.651741;fill-rule:evenodd;stroke:#000000;stroke-width:1.69164;stroke-linecap:butt;stroke-linejoin:miter;stroke-miterlimit:4;stroke-dasharray:none;stroke-dashoffset:0;stroke-opacity:1;marker:none;marker-start:none;marker-mid:none;marker-end:none;enable-background:accumulate"
           d="m 236.99789,579.50391 -7.31754,-9.14692 -12.80569,-2.74408 -16.46446,-5.48815"
           id="path3224-0" /><path
           style="display:inline;overflow:visible;visibility:visible;opacity:1;fill:none;fill-opacity:0.651741;fill-rule:evenodd;stroke:#000000;stroke-width:1.69164;stroke-linecap:butt;stroke-linejoin:miter;stroke-miterlimit:4;stroke-dasharray:none;stroke-dashoffset:0;stroke-opacity:1;marker:none;marker-start:none;marker-mid:none;marker-end:none;enable-background:accumulate"
           d="m 220.53343,584.07737 h -10.97631 l -3.65877,-6.40285"
           id="path3226-2" /><path
           style="display:inline;overflow:visible;visibility:visible;opacity:1;fill:none;fill-opacity:0.651741;fill-rule:evenodd;stroke:#000000;stroke-width:1.69164;stroke-linecap:butt;stroke-linejoin:miter;stroke-miterlimit:4;stroke-dasharray:none;stroke-dashoffset:0;stroke-opacity:1;marker:none;marker-start:none;marker-mid:none;marker-end:none;enable-background:accumulate"
           d="m 244.31543,541.08684 0.91468,12.80569 10.06162,4.57346 19.20853,5.48816 1.82939,10.06161 9.14692,0.91469"
           id="path3228-4" /><path
           id="path3255-8"
           d="m 230.60382,451.8767 c -19.33446,35.80782 -55.29344,58.60353 -76.41075,58.60353 v 149.50596 c 0,9.19253 42.51619,112.50824 146.8272,112.50824 104.31101,0 146.84916,-103.31571 146.84916,-112.50824 V 510.48023 c -21.11731,0 -57.0763,-22.79571 -76.41075,-58.60353 h -70.43841 z"
           style="display:inline;overflow:visible;visibility:visible;opacity:1;fill:none;fill-opacity:1;fill-rule:evenodd;stroke:#f90000;stroke-width:6.42025;stroke-miterlimit:4;stroke-dasharray:none;stroke-opacity:1;marker:none;marker-start:none;marker-mid:none;marker-end:none;enable-background:accumulate" /></g><path
         style="opacity:1;fill:#393108;fill-opacity:1;stroke:#000000;stroke-width:0.122872;stroke-linejoin:round;stroke-dasharray:none;stroke-opacity:1"
         id="path1-6"
         sodipodi:type="arc"
         sodipodi:cx="29.258032"
         sodipodi:cy="22.808037"
         sodipodi:rx="0.86146742"
         sodipodi:ry="1.6961379"
         sodipodi:start="5.2528084"
         sodipodi:end="5.2451139"
         sodipodi:open="true"
         sodipodi:arc-type="arc"
         d="m 29.701253,21.35361 a 0.86146742,1.6961379 0 0 1 0.296332,2.324283 0.86146742,1.6961379 0 0 1 -1.179929,0.587917 0.86146742,1.6961379 0 0 1 -0.300872,-2.322021 0.86146742,1.6961379 0 0 1 1.178772,-0.59685"
         transform="matrix(0.95320352,0.30232937,-0.3049639,0.95236391,0,0)" /><path
         style="opacity:1;fill:#ffce00;fill-opacity:1;stroke:#000000;stroke-width:0.122871;stroke-linejoin:round;stroke-dasharray:none;stroke-opacity:1"
         d="m 21.450492,28.951774 13.84258,7.748537 -0.323789,0.934009 -13.472853,-6.212824 c 0.540903,-0.82981 0.52559,-1.653051 -0.04594,-2.469722 z"
         id="path2-5"
         sodipodi:nodetypes="ccccc" /><path
         style="opacity:1;fill:#ce9c32;fill-opacity:1;stroke:#000000;stroke-width:0.122871;stroke-linejoin:round;stroke-dasharray:none;stroke-opacity:1"
         d="M 20.672724,32.282185 34.296797,38.219631 34.969283,37.63432 21.49643,31.421496 c -0.172778,0.324965 -0.447346,0.611861 -0.823706,0.860689 z"
         id="path3-0"
         sodipodi:nodetypes="ccccc" /><path
         style="opacity:1;fill:#ce9c32;fill-opacity:1;stroke:#000000;stroke-width:0.122871;stroke-linejoin:round;stroke-dasharray:none;stroke-opacity:1"
         d="m 26.770084,31.929474 c 1.778302,-1.225269 3.639627,-1.421052 5.583975,-0.587351 2.453112,1.161633 4.371807,0.890208 4.931565,-0.398357 0.460777,0.511608 0.556254,1.023217 0.286429,1.534825 -0.299563,0.441883 -0.748567,0.701116 -1.347013,0.777698 h -1.654267 l -2.851841,-0.889781 c -1.014396,-0.190375 -2.784592,-0.352092 -3.739271,0.24004 z"
         id="path4-9"
         sodipodi:nodetypes="ccccccccc" /><path
         style="opacity:1;fill:#9c6330;fill-opacity:1;stroke:#000000;stroke-width:0.122871;stroke-linejoin:miter;stroke-dasharray:none;stroke-opacity:1"
         d="m 13.636526,29.128615 0.934008,3.356215 2.668284,-2.28326 z"
         id="path6-0"
         transform="matrix(0.99883247,-0.04831,0.04830689,0.99883247,-1.1717021,0.65188761)"
         sodipodi:nodetypes="cccc"
         inkscape:original-d="m 13.636526,29.128615 0.934008,3.356215 c 2.668284,-2.28326 0,0 2.668284,-2.28326 z"
         inkscape:path-effect="#path-effect6-1" /><path
         style="opacity:1;fill:#9c6330;fill-opacity:1;stroke:#000000;stroke-width:0.122871;stroke-linejoin:round;stroke-dasharray:none;stroke-opacity:1"
         d="m 15.975762,31.428493 11.010859,5.657875 0.410964,-0.485683 -10.623429,-5.925158 z"
         id="path7-0"
         sodipodi:nodetypes="ccccc" /><path
         style="opacity:1;fill:#ce9c32;fill-opacity:1;stroke:#000000;stroke-width:0.122871;stroke-linejoin:miter;stroke-dasharray:none;stroke-opacity:1"
         d="m 20.184275,32.018956 c -0.439101,0.468699 -1.243502,0.721539 -2.413205,0.758519 -0.892497,0.0166 -1.602343,-0.215859 -2.129539,-0.697392 l 0.01245,-0.39851 -0.236616,-0.921557 -0.535498,0.846836 -0.01245,0.747207 c 0.7223,0.664184 1.693668,1.129113 2.914106,1.394786 1.948474,-0.271552 2.488543,-0.809559 3.26517,-1.302811 z"
         id="path5-6"
         sodipodi:nodetypes="cccccccccc"
         inkscape:label="path1" /><path
         style="opacity:0;fill:#9c6330;fill-opacity:1;stroke:#000000;stroke-width:0.122871;stroke-linejoin:round;stroke-dasharray:none;stroke-opacity:1"
         d="m 24.259317,29.265602 0.186802,0.149442"
         id="path8-1"
         inkscape:label="path1254352578465986246992'436859467894368595948'543986689546895339'459898606'965860986896439698453980" /><path
         style="opacity:1;fill:#9c6330;fill-opacity:1;stroke:#000000;stroke-width:0.122871;stroke-linejoin:miter;stroke-dasharray:none;stroke-opacity:1"
         d="m 26.850298,36.588229 0.269493,1.710776 2.332615,1.066343 -0.236613,-1.315411 1.4446,-0.336245 -2.288603,-1.523972 z"
         id="path9-3"
         sodipodi:nodetypes="ccccccc" /><path
         style="opacity:1;fill:#005a18;fill-opacity:1;stroke:#000000;stroke-width:0.122871;stroke-linejoin:round;stroke-dasharray:none;stroke-opacity:1"
         id="path11-8"
         sodipodi:type="arc"
         sodipodi:cx="16.703543"
         sodipodi:cy="7.2416801"
         sodipodi:rx="0.99627584"
         sodipodi:ry="0.99627584"
         sodipodi:start="5.2528084"
         sodipodi:end="5.2451139"
         sodipodi:open="true"
         sodipodi:arc-type="arc"
         d="M 17.216122,6.3873806 A 0.99627584,0.99627584 0 0 1 17.558827,7.7526155 0.99627584,0.99627584 0 0 1 16.194254,8.0979454 0.99627584,0.99627584 0 0 1 15.846299,6.7340391 0.99627584,0.99627584 0 0 1 17.209534,6.3834619" /><path
         d="m 15.707051,7.2419351 -0.177767,1.0753866 0.168982,0.8609293 c -1.824664,1.270301 -2.985145,3.105159 -3.481441,5.504573 -0.237284,1.096799 -0.224881,1.973403 0.03721,2.629814 0.500083,1.036415 0.874579,2.236305 1.434135,3.183512 -0.422727,-1.452236 -1.098694,-3.524404 -0.960688,-5.065215 0.265197,0.444863 0.379349,3.435606 1.544001,4.448471 l -0.682129,-1.658813 c -0.205871,-1.537829 -0.03473,-1.803254 0,-2.529045 0.127828,-1.328429 0.587749,-2.656857 1.379761,-3.985286 0.311368,-0.01664 0.639341,-0.03329 0.983919,-0.249188 0.477329,-0.244962 0.81352,-0.481621 1.045931,-0.697524 0.260161,-0.195631 0.405372,-0.494493 0.435632,-0.8965863 C 17.45123,9.609505 17.318422,9.2896279 17.036172,8.9033324 L 17.297655,8.3571125 17.073896,8.0201822 17.698335,7.2960343 16.703376,8.2377399 Z"
         style="opacity:1;fill:#005a18;stroke:#000000;stroke-width:0.122871;stroke-linejoin:round"
         id="path14-9"
         sodipodi:nodetypes="cccccccccccccccccccc" /><path
         style="opacity:1;fill:#005a18;fill-opacity:1;stroke:none;stroke-width:0.122871;stroke-linejoin:round;stroke-dasharray:none;stroke-opacity:1"
         d="m 15.903053,7.1109188 -0.112081,0.099628 -0.04981,0.4981375 0.821924,1.2827052 0.236615,-0.4607776 c 0.01004,-0.087987 0.04322,-0.1732297 0.09531,-0.2448498 0.05209,-0.07162 0.122959,-0.1294515 0.203572,-0.166114 0.02878,-0.013089 0.05874,-0.023522 0.08717,-0.03736 0.0959,-0.046682 0.169738,-0.1300753 0.224836,-0.221401 0.0551,-0.091326 0.09359,-0.1914628 0.136314,-0.2891904 0.01911,-0.04372 0.03926,-0.087458 0.04936,-0.1340927 0.0101,-0.046635 0.0094,-0.097234 -0.012,-0.1398831 -0.01544,-0.030773 -0.04098,-0.05588 -0.07051,-0.073584 -0.02953,-0.017704 -0.06294,-0.028284 -0.09688,-0.03404 -0.06789,-0.011513 -0.137352,-0.00416 -0.20621,-0.00446 -0.16263,-7.023e-4 -0.321649,-0.044102 -0.478882,-0.085657 -0.157233,-0.041555 -0.317499,-0.081881 -0.480033,-0.076238 -0.120624,0.00419 -0.240293,0.034105 -0.348697,0.087174 z"
         id="path15-3"
         inkscape:original-d="m 15.903053,7.1109188 -0.112081,0.099628 -0.04981,0.4981375 0.821924,1.2827052 0.236615,-0.4607776 c 0.196748,-0.085519 0.226665,-0.2665272 0.298883,-0.4109638 0.01024,-0.020481 0.0637,-0.02171 0.08717,-0.03736 0.197021,-0.1313469 0.296814,-0.3175824 0.36115,-0.5105914 0.0089,-0.026655 0.06897,-0.242363 0.03736,-0.2739758 C 17.546794,7.2602489 17.27616,7.2183899 17.21066,7.1856398 17.010669,7.0856438 16.482324,6.9661001 16.251745,7.023745 16.124513,7.055553 16.019292,7.094313 15.903048,7.110919 Z"
         inkscape:path-effect="#path-effect15-1" /><path
         style="opacity:1;fill:#c70000;fill-opacity:1;stroke:#000000;stroke-width:0.122871;stroke-linejoin:round;stroke-dasharray:none;stroke-opacity:1"
         d="m 15.267927,11.006678 0.685107,0.450396 c 0.90072,-0.398662 1.394575,-0.930032 1.481563,-1.5941102 C 17.422151,9.5426066 17.289342,9.2227295 17.036172,8.9033325 L 16.681393,8.7610007 C 16.492516,9.6590012 16.02136,10.40756 15.267927,11.006678 Z"
         id="path16-4"
         sodipodi:nodetypes="cccccc" /><path
         style="opacity:1;fill:#000000;fill-opacity:1;stroke:none;stroke-width:0.122871;stroke-linejoin:round;stroke-dasharray:none;stroke-opacity:1"
         id="path17-4"
         sodipodi:type="arc"
         sodipodi:cx="16.8965"
         sodipodi:cy="7.2647057"
         sodipodi:rx="0.16472292"
         sodipodi:ry="0.16472292"
         sodipodi:start="5.2528084"
         sodipodi:end="5.2451139"
         sodipodi:open="true"
         sodipodi:arc-type="arc"
         d="M 16.981249,7.1234569 A 0.16472292,0.16472292 0 0 1 17.037911,7.349183 0.16472292,0.16472292 0 0 1 16.812294,7.4062794 0.16472292,0.16472292 0 0 1 16.754764,7.180773 0.16472292,0.16472292 0 0 1 16.98016,7.122809" /><path
         style="opacity:1;fill:#ffd42a;fill-opacity:1;stroke:#000000;stroke-width:0.122871;stroke-linejoin:round;stroke-dasharray:none;stroke-opacity:1"
         d="m 17.185776,8.1886474 0.361128,-0.6169506 0.46228,0.7852807 z"
         id="path18-6" /><path
         style="opacity:1;fill:none;fill-opacity:1;stroke:#000000;stroke-width:0.122871;stroke-linejoin:round;stroke-dasharray:none;stroke-opacity:1"
         d="m 17.182573,6.4345219 0.05763,-0.098738"
         id="path19-0"
         sodipodi:nodetypes="cc" /><path
         style="opacity:1;fill:#4997d0;fill-opacity:1;stroke:#000000;stroke-width:0.122871;stroke-linejoin:round;stroke-dasharray:none;stroke-opacity:1"
         d="m 24.682734,56.812629 c 0.577211,0.340073 1.258666,0.513356 2.166901,0.323791 0.532156,-1.190683 0.73784,-2.369515 0.597765,-3.561686 -0.168896,-0.348697 -0.115611,-0.523046 -0.473233,-0.871743 H 25.35522 c 0.131366,0.433997 0.216014,0.852421 0.149442,1.220438 -0.138866,1.017111 -0.353282,2.004001 -0.821928,2.8892 z"
         id="path20-6"
         sodipodi:nodetypes="ccccccc" /><path
         style="opacity:1;fill:#4997d0;fill-opacity:1;stroke:#000000;stroke-width:0.122871;stroke-linejoin:round;stroke-dasharray:none;stroke-opacity:1"
         d="m 31.955546,52.0056 0.17435,1.469506 c -0.630974,0.913253 -0.963066,1.859715 -0.996275,2.839387 l 1.793296,-0.298884 c 0,-1.145717 0.39851,-2.158598 1.19553,-3.038642 0.199255,-0.871741 0.199255,-1.677064 0,-2.415968 z"
         id="path21-6"
         sodipodi:nodetypes="ccccccc" /><path
         style="opacity:1;fill:#4997d0;fill-opacity:1;stroke:#000000;stroke-width:0.122871;stroke-linejoin:round;stroke-dasharray:none;stroke-opacity:1"
         d="m 23.985341,51.333114 c 0.356999,0.456626 0.813625,0.913251 1.369879,1.369877 h 1.618947 l 1.419694,-0.896646 c 0.423418,-0.697393 0.614371,-1.527623 0.57286,-2.49069 -0.631809,0.141139 -1.097572,-0.116233 -1.397289,-0.772115 l -0.501099,0.0249 c -0.429898,1.917834 -1.457562,2.839392 -3.082992,2.764674 z"
         id="path22-1"
         sodipodi:nodetypes="cccccccc" /><path
         style="opacity:1;fill:#4997d0;fill-opacity:1;stroke:#000000;stroke-width:0.122871;stroke-linejoin:round;stroke-dasharray:none;stroke-opacity:1"
         d="m 27.569432,48.54354 c 0.590297,-0.763811 0.815294,-1.62725 0.674989,-2.590316 0.523045,0.863439 0.846834,1.760087 0.971368,2.689945 l -0.249068,0.672486 c -0.78799,0.04016 -1.253753,-0.217208 -1.397289,-0.772115 z"
         id="path23-8"
         sodipodi:nodetypes="ccccc" /><path
         style="opacity:1;fill:#4997d0;fill-opacity:1;stroke:#000000;stroke-width:0.122871;stroke-linejoin:round;stroke-dasharray:none;stroke-opacity:1"
         d="m 23.985341,51.333114 c -1.004578,-0.923107 -1.710273,-1.879423 -2.117086,-2.868949 l 0.04981,-1.589386 c 0.463378,-1.253647 1.358476,-2.108784 2.685293,-2.565411 h 1.6236 c 0.474811,0.223347 0.877708,0.467241 0.892829,0.821928 0.222839,0.454437 0.0986,0.770044 0,1.095904 -0.264401,0.348696 -0.528801,0.630974 -0.793202,0.846834 -0.747207,0.348697 -1.195531,0.896649 -1.344972,1.643856 0.03617,0.701544 0.404428,1.336669 1.10478,1.905376 -0.543714,0.508399 -1.244065,0.745015 -2.101052,0.709848 z"
         id="path24-4"
         sodipodi:nodetypes="ccccccccccc" /><path
         style="opacity:1;fill:#4997d0;fill-opacity:1;stroke:#000000;stroke-width:0.122871;stroke-linejoin:round;stroke-dasharray:none;stroke-opacity:1"
         d="m 26.426217,47.074034 c 0.224162,0.44473 0.448325,0.88097 0.672487,1.519319 h 0.448323 c 0.585564,-0.725813 0.823222,-1.612767 0.712976,-2.660861 -0.371239,-0.484591 -0.742477,-0.542863 -1.113716,-0.643004 0.260962,0.556311 -0.122748,1.162213 -0.72007,1.784546 z"
         id="path25-9"
         sodipodi:nodetypes="cccccc" /><path
         style="opacity:1;fill:#4997d0;fill-opacity:1;stroke:#000000;stroke-width:0.122871;stroke-linejoin:round;stroke-dasharray:none;stroke-opacity:1"
         d="m 29.190883,48.668074 h 0.647579 c 0.489836,-0.547951 0.880044,-1.129112 1.170625,-1.743482 -0.06642,-0.43172 -0.232465,-0.863439 -0.498139,-1.295159 -0.415115,-0.589463 -1.029485,-1.046089 -1.843111,-1.369878 -0.39851,-0.09133 -0.830229,-0.08303 -1.295157,0.0249 l -0.423418,0.448326 0.273976,0.622673 c 0.964766,0.0095 1.575975,0.949884 1.967645,3.31262 z"
         id="path26-6"
         sodipodi:nodetypes="ccccccccc" /><path
         style="opacity:1;fill:#4997d0;fill-opacity:1;stroke:#000000;stroke-width:0.122871;stroke-linejoin:round;stroke-dasharray:none;stroke-opacity:1"
         d="m 29.215789,48.643169 h 0.697394 c 0.09963,1.021183 0.730602,1.710273 1.892924,2.067272 -0.471133,0.929857 -1.002481,1.494414 -1.594043,1.693669 -0.282278,0.199255 -0.763811,0.199255 -1.444599,0 l -0.547952,-0.473231 c 0.58554,-0.735777 0.826307,-1.607518 0.7223,-2.615224 z"
         id="path27-3"
         sodipodi:nodetypes="cccccccc" /><path
         style="opacity:1;fill:#4997d0;fill-opacity:1;stroke:#000000;stroke-width:0.122871;stroke-linejoin:bevel;stroke-dasharray:none;stroke-opacity:1"
         d="m 31.806107,50.710441 c -0.471133,0.797021 -1.002481,1.361577 -1.594043,1.693669 l 1.743482,-0.39851 2.166901,-1.444601 c 0.474781,-0.398511 0.783517,-0.896649 0.926206,-1.494415 0.166046,-0.841224 0.166046,-1.549611 0,-2.125162 -0.375153,-0.786026 -0.982771,-1.505634 -1.822853,-2.158823 -1.004578,-0.182651 -1.909529,0.09963 -2.714852,0.846834 0.283603,0.479117 0.449649,0.910837 0.498139,1.295159 0.770012,1.189327 1.168522,2.185603 1.19553,2.988828 z"
         id="path28-7"
         sodipodi:nodetypes="ccccccccccc" /><path
         style="opacity:1;fill:#009b31;fill-opacity:1;stroke:#000000;stroke-width:0.122871;stroke-linejoin:bevel;stroke-dasharray:none;stroke-opacity:1"
         d="M 3.5865929,9.9129447 C 2.7646654,11.141685 2.2748298,12.337216 2.1170862,13.499538 c -0.074721,0.352291 -0.083023,0.771001 -0.024907,1.256129 0.2739758,0.602473 0.7139976,1.072109 1.3200654,1.408909 l 0.024908,2.839386 0.7472068,-0.472739 -0.049814,-2.416461 c 0.5479517,-0.253776 0.9298575,-0.706808 1.1457173,-1.359095 0.049814,-0.510035 0.066419,-1.02007 0.049814,-1.530105 C 5.180635,11.95531 4.5994737,10.851104 3.5865929,9.9129447 Z"
         id="path29-8"
         sodipodi:nodetypes="cccccccccc" /><path
         style="opacity:1;fill:#009b31;fill-opacity:1;stroke:#000000;stroke-width:0.122871;stroke-linejoin:bevel;stroke-dasharray:none;stroke-opacity:1"
         d="m 1.6438551,16.65776 -0.049814,2.413279 c 0.091325,1.413939 0.7139977,2.495785 1.8680172,3.24554 l 0.2330886,1.793296 0.3148632,0.249069 0.249069,-0.448324 -0.049814,-1.469506 c 0.8854103,-1.001213 1.3642978,-2.408949 1.5193205,-4.14055 l 0.099628,-2.438021 C 5.313714,16.785555 4.8254554,17.734808 4.1843592,18.531223 L 3.4371524,19.003962 C 2.8808981,18.622056 2.3163414,17.252176 1.6936687,15.940413 Z"
         id="path30-8"
         sodipodi:nodetypes="ccccccccccccc" /><path
         style="opacity:1;fill:#009b31;fill-opacity:1;stroke:#000000;stroke-width:0.122871;stroke-linejoin:bevel;stroke-dasharray:none;stroke-opacity:1"
         d="M 3.695147,24.109875 3.6115,23.611738 C 2.9307115,23.470599 2.4823873,23.163413 2.2665275,22.690182 c -0.1509307,1.331059 0.094328,2.503944 0.6724864,4.08473 1.02481,0.290581 1.8503648,0.780417 2.4766645,1.469509 -0.7674389,-0.929858 -1.235995,-2.225017 -1.4056683,-3.885477 z"
         id="path31-2"
         sodipodi:nodetypes="ccccccc" /><path
         style="opacity:1;fill:#009b31;fill-opacity:1;stroke:#000000;stroke-width:0.122871;stroke-linejoin:bevel;stroke-dasharray:none;stroke-opacity:1"
         d="M 4.0100101,24.358944 4.2590791,23.91062 6.7497689,21.269327 6.3512585,28.918474 5.4768964,29.390139 5.4156784,28.244421 C 4.5365521,26.987495 4.067996,25.692336 4.0100101,24.358944 Z"
         id="path32-9"
         sodipodi:nodetypes="ccccccc" /><path
         style="fill:#009b31;stroke:#000000;stroke-width:0.122871;stroke-linejoin:bevel"
         d="m 5.4768964,29.390139 c 0.2333381,0.564556 0.3338393,1.261949 0.3015038,2.092179 l -0.5479518,0.124534 -0.099628,0.996275 -0.8717414,0.07472 0.1743482,-0.996275 C 3.0952112,30.39473 2.1222963,29.04147 1.5146826,27.621792 l -0.294245,-1.71862 1.6438551,1.12081 0.1494415,-0.199255 c 0.8383143,0.175877 1.6389622,0.649108 2.4019438,1.419693 z"
         id="path10-1"
         sodipodi:nodetypes="cccccccccccc" /><path
         style="fill:#009b31;stroke:#000000;stroke-width:0.122871;stroke-linejoin:bevel"
         d="m 2.1437093,31.756294 c 0.5888912,1.303461 1.5098743,2.606922 2.7629494,3.910383 1.2788711,1.180891 3.2044237,1.530334 4.906659,2.1669 C 9.4480165,36.316849 8.6842049,34.999377 7.5218829,33.88116 L 5.1308203,32.603127 4.2590791,32.677847 C 3.3185785,32.720621 2.6930216,32.227782 2.1437093,31.756294 Z"
         id="path12-3"
         sodipodi:nodetypes="ccccccc" /><path
         style="opacity:1;fill:#009b31;stroke:#000000;stroke-width:0.122871;stroke-linejoin:bevel"
         d="m 6.8290365,33.54959 v -1.853526 c 1.3434568,0.802846 2.5208676,1.838156 3.5322325,3.105931 0.220089,0.949325 0.2616,1.984634 0.124535,3.105928 L 9.8133177,37.833573 C 9.5249092,36.451787 8.7610976,35.134315 7.5218829,33.881156 Z"
         id="path13-5"
         sodipodi:nodetypes="ccccccc" /><path
         style="opacity:1;fill:#009b31;stroke:#000000;stroke-width:0.122871;stroke-linejoin:bevel"
         d="m 11.980218,38.299006 c -1.295159,-0.620577 -2.8892004,-0.620577 -4.7821248,0 -0.9630667,0.54225 -1.4944138,1.018082 -1.5940413,1.427496 1.6223914,0.199255 2.9092477,0.199255 3.860569,0 1.1540191,-0.166046 2.2416201,-0.166046 3.2628031,0 l 0.02491,-1.195531 z"
         id="path33-9"
         sodipodi:nodetypes="ccccccc" /><path
         style="fill:#009b31;stroke:#000000;stroke-width:0.122871;stroke-linejoin:bevel"
         d="m 12.445551,36.732233 c -0.155111,0.04605 -0.310222,0.568306 -0.465333,1.566773 l 0.772116,0.231965 -0.02491,1.195531 c 0.666146,0.764124 1.588712,1.454986 2.767699,2.072584 0.931204,0.298461 1.752513,0.578453 2.463928,0.839975 0.03953,-0.2866 -0.43378,-1.119966 -1.419931,-2.500098 -1.987258,-0.879156 -3.351781,-2.014733 -4.093569,-3.40673 z"
         id="path34-8"
         sodipodi:nodetypes="cccccccc" /><path
         style="fill:#009b31;stroke:#000000;stroke-width:0.122871;stroke-linejoin:bevel"
         d="m 9.5058734,40.331278 c 0.5899656,0.929042 1.5729256,1.808959 2.7473626,2.664942 l 0.578456,-0.521999 c 1.70912,-0.343428 3.418239,0.04442 5.127359,0.16484 -1.128134,-0.323149 -3.146145,-1.119966 -4.724317,-2.390452 -1.286316,-0.189258 -2.515222,-0.09146 -3.7288606,0.08267 z"
         id="path35-4"
         sodipodi:nodetypes="cccccc" /><path
         style="fill:#009b31;stroke:#000000;stroke-width:0.122871;stroke-linejoin:bevel"
         d="m 12.198288,42.99622 -2.170416,0.329682 c 0.60442,0.723473 1.859048,1.804102 3.48915,2.307785 5.336082,-0.344886 5.027288,-0.798327 6.950827,-1.208839 l -2.508798,-1.785787 c -1.699272,-0.286073 -3.408391,-0.341019 -5.127359,-0.16484 0,0 -0.688351,0.521996 -0.633404,0.521999 z"
         id="path36-0"
         sodipodi:nodetypes="ccccccc" /><path
         style="fill:#009b31;stroke:#000000;stroke-width:0.122871;stroke-linejoin:bevel"
         d="m 17.665539,45.210118 -3.077045,3.802825 c 2.846137,0.239698 5.289327,-0.473024 7.329571,-2.138164 0.500252,-1.288534 1.395349,-2.143671 2.685293,-2.565411 -1.598292,-0.144327 -2.976795,-0.105833 -4.135509,0.11548 z"
         id="path37-7"
         sodipodi:nodetypes="cccccc" /><path
         style="fill:#009b31;stroke:#000000;stroke-width:0.122871;stroke-linejoin:bevel"
         d="m 17.568529,41.457696 c 2.501622,0.319325 5.605698,1.742368 7.846629,2.851672 l -0.75747,0.05495 c -0.769734,-0.223703 -1.725463,-0.23216 -4.272874,0 l -2.362732,-1.725253 z"
         id="path38-6"
         sodipodi:nodetypes="cccccc" /><path
         style="fill:#009b31;stroke:#000000;stroke-width:0.122871;stroke-linejoin:bevel"
         d="m 49.397572,22.914989 -2.390205,-6.039066 c -0.476209,-2.682237 -0.329683,-5.364474 0.439578,-8.0467114 1.226672,2.1376224 2.695585,4.1820754 3.0221,6.6659114 -0.317773,1.758998 0.542894,5.034625 -1.071473,7.419866 z"
         id="path39-3"
         sodipodi:nodetypes="ccccc" /><path
         style="fill:#009b31;stroke:#000000;stroke-width:0.122871;stroke-linejoin:bevel"
         d="m 50.469045,15.495123 c 0.576946,-1.047977 1.410312,-2.059323 2.500098,-3.034038 -0.137368,2.9345 -0.750945,5.722473 -1.840732,8.363921 l -0.951701,0.277126 c 0.230972,-1.429391 0.328417,-3.298394 0.292335,-5.607009 z"
         id="path40-6"
         sodipodi:nodetypes="ccccc" /><path
         style="fill:#009b31;stroke:#000000;stroke-width:0.122871;stroke-linejoin:bevel"
         d="m 47.227157,28.490147 c 0.756894,-1.791542 1.551888,-3.506884 2.170416,-5.575158 l -2.390206,-6.039066 -0.76926,2.438034 c -0.378069,1.236313 -0.378069,2.692415 0,4.368306 z"
         id="path41-1"
         sodipodi:nodetypes="cccccc" /><path
         style="fill:#009b31;stroke:#000000;stroke-width:0.122871;stroke-linejoin:bevel"
         d="m 47.227156,28.490148 -0.05495,0.631891 2.926141,-2.555047 c 1.71753,-2.284893 2.097545,-4.261128 2.95008,-6.346406 l -1.92002,0.60442 -0.951701,0.277126 c -0.095,0.516221 -0.354714,1.120506 -0.779137,1.812857 -0.623078,1.919892 -1.346549,3.778278 -2.170413,5.575159 z"
         id="path42-5"
         sodipodi:nodetypes="cccccccc" /><path
         style="fill:#009b31;stroke:#000000;stroke-width:0.122871;stroke-linejoin:bevel"
         d="m 46.654942,32.528769 -0.700387,-0.481928 c 0.405884,-1.451143 0.811768,-2.426077 1.217652,-2.924802 l 2.926141,-2.555047 -0.288671,2.140299 c -0.256421,1.090668 -0.915788,2.2546 -1.978102,3.491794 z"
         id="path43-4"
         sodipodi:nodetypes="ccccccc" /><path
         style="fill:#009b31;stroke:#000000;stroke-width:0.122871;stroke-linejoin:bevel"
         d="m 46.654942,32.528769 -3.356512,2.291794 c 0.175583,-0.730964 0.418716,-1.57451 0.388281,-1.96211 0.350508,-1.930449 1.463925,-3.479443 2.523921,-5.055148 l 0.961575,1.318734 c -0.531441,0.811705 -0.937325,1.786639 -1.217652,2.924802 z"
         id="path44-2"
         sodipodi:nodetypes="ccccccc" /><path
         style="fill:#009b31;stroke:#000000;stroke-width:0.122871;stroke-linejoin:bevel"
         d="m 43.29843,34.820563 -0.30221,0.785252 c 2.120388,-0.284876 2.97926,-0.906513 3.658722,-1.263788 1.014947,-0.622735 2.029893,-1.501891 3.04484,-2.637467 l -1.868207,0.494525 -1.176633,0.329684 z"
         id="path45-0"
         sodipodi:nodetypes="ccccccc" /><path
         style="fill:#009b31;stroke:#000000;stroke-width:0.122871;stroke-linejoin:bevel"
         d="m 43.325901,34.396976 -0.54947,-0.08242 c -1.349141,1.573593 -0.0175,1.78328 -5.082622,5.24746 l 0.796737,0.219789 -0.08242,0.549473 c 1.923154,-0.393789 3.809676,-1.043998 5.659567,-1.950627 l 1.895681,-2.582521 3.901252,-1.126419 -3.209681,-0.329684 c -1.042477,0.665413 -2.262051,1.086676 -3.658722,1.263788 z"
         id="path46-9"
         sodipodi:nodetypes="ccccccccccc" /><path
         style="fill:#009b31;stroke:#000000;stroke-width:0.122871;stroke-linejoin:bevel"
         d="m 38.408125,40.331278 -0.759126,1.904114 c 0.732426,0.136272 1.441698,0.480921 2.242701,0 l 2.225362,-0.856432 c 1.436138,0.731151 2.529972,1.570398 2.582522,2.738471 0.123128,-1.120408 0.03223,-2.057366 -0.357159,-2.738471 -0.513984,-0.513908 -1.11716,-0.894027 -1.923153,-0.969921 -0.831495,-0.171713 -2.222659,-0.44115 -4.011147,-0.07776 z"
         id="path47-7"
         sodipodi:nodetypes="ccccccccc" /><path
         style="fill:#009b31;stroke:#000000;stroke-width:0.122871;stroke-linejoin:bevel"
         d="m 42.419272,40.409039 c 0.643835,-0.859287 1.580722,-1.278997 2.810661,-1.259128 1.609002,0.650344 2.338848,1.678838 2.189538,3.085481 l 0.608092,-0.856432 c 0.174,-0.751685 0.238105,-1.293227 0.192315,-1.624628 -0.388793,-0.716845 -1.1439,-1.397058 -2.265323,-2.04064 l -1.886863,0.666959 c -1.425458,0.670854 -2.844929,1.23449 -4.258413,1.690907 z"
         id="path48-3"
         sodipodi:nodetypes="ccccccccc" /><path
         style="fill:#009b31;stroke:#000000;stroke-width:0.122871;stroke-linejoin:bevel"
         d="m 49.809677,28.707291 c 0.481338,0.521941 1.585412,0.632717 3.312221,0.332328 -1.189344,1.002661 -2.635108,1.639006 -4.337293,1.909037 0.536025,-0.824647 0.877716,-1.571768 1.025072,-2.241365 z"
         id="path49-7"
         sodipodi:nodetypes="cccc" /><path
         style="fill:#009b31;stroke:#000000;stroke-width:0.122871;stroke-linejoin:bevel"
         d="m 44.067692,38.380651 1.886863,-0.666959 0.700844,0.439648 c 0.144797,-0.294698 0.546014,-0.68598 1.203651,-1.173846 0.439578,0.07326 0.787577,0.293048 1.043998,0.659361 V 37.16574 c -0.06816,-0.263555 -0.264532,-0.48132 -0.589113,-0.653296 -0.766151,-0.155684 -1.578091,-0.119052 -2.435821,0.109895 l -0.862581,0.467053 z"
         id="path50-2"
         sodipodi:nodetypes="cccccccccc" /><path
         style="fill:#009b31;stroke:#000000;stroke-width:0.122871;stroke-linejoin:bevel"
         d="m 29.887986,44.961553 c 0.553034,-0.992786 1.408676,-1.910876 2.127563,-2.862723 2.166443,-0.614021 3.903428,-1.59143 5.67826,-2.536814 l 0.796737,0.219789 -0.08242,0.549473 -0.759126,1.904114 c -0.459062,0.604099 -1.042849,1.192607 -1.751362,1.765525 -1.044578,0.08575 -2.151518,0.09355 -3.320822,0.02339 l -1.252543,1.025692 -0.813324,0.57944 c -0.187796,-0.261464 -0.39545,-0.484093 -0.622963,-0.667886 z"
         id="path51-6"
         sodipodi:nodetypes="ccccccccccc" /><path
         style="fill:#009b31;stroke:#000000;stroke-width:0.122871;stroke-linejoin:bevel"
         d="m 31.324272,45.05 c 0.813113,-0.326612 1.446956,-0.415745 1.901528,-0.267401 l 1.327137,0.609788 c 1.118691,0.790324 2.320138,1.545181 3.02233,2.514005 0.325572,0.966625 0.323738,1.917659 -0.0055,2.853102 -0.124125,0.778803 -0.724259,1.451826 -1.099145,2.174904 1.02475,-0.561222 2.190838,-1.055494 2.654321,-1.882579 0.452131,-1.123069 0.452131,-2.199365 0,-3.22889 -0.561267,-1.564454 -1.637027,-2.838458 -3.227281,-3.822012 -1.11446,0.04262 -2.236835,0.121884 -3.32082,0.02339 z"
         id="path52-0"
         sodipodi:nodetypes="ccccccccccc" /><path
         style="fill:#009b31;stroke:#000000;stroke-width:0.122871;stroke-linejoin:bevel"
         d="m 35.897661,44.000917 c 1.237732,0.326567 2.822125,0.283362 3.645066,1.052372 1.226882,1.000398 1.606862,2.411415 1.815561,3.905478 0.422249,-1.403512 0.410763,-2.778109 0.374179,-4.151032 -0.407157,-0.937357 -0.526207,-1.986239 -1.840767,-2.572343 -0.591659,0.183298 -1.339225,0.250988 -2.242699,0 -0.482496,0.627657 -1.066276,1.216166 -1.75134,1.765525 z"
         id="path53-1"
         sodipodi:nodetypes="ccccccc" /><path
         style="fill:#ffffff;stroke:none;stroke-width:0.122871;stroke-linejoin:bevel"
         d="m 25.383927,57.034347 c 0.480934,-1.399011 0.732922,-2.816338 0.755962,-4.251981 h 0.538078 c -0.01547,1.459515 -0.195776,2.909872 -0.540927,4.351071 -0.271444,0.0029 -0.522481,-0.03009 -0.753113,-0.09909 z"
         id="path54-6"
         sodipodi:nodetypes="ccccc" /><path
         style="fill:#ffffff;stroke:none;stroke-width:0.122871;stroke-linejoin:bevel"
         d="m 31.710135,56.142854 0.743405,-0.12619 c 0.188964,-0.644763 0.442703,-1.267934 0.561669,-1.93603 0.353258,-1.09981 0.521709,-2.138017 0.782564,-3.207026 l -1.288115,0.858741 c 0.218522,0.511925 0.299238,1.520911 0.07885,2.161927 z"
         id="path55-5"
         sodipodi:nodetypes="ccccccc" /><path
         style="fill:#ffffff;fill-opacity:1;stroke:none;stroke-width:0.122871;stroke-linejoin:bevel"
         d="m 24.690934,51.998715 c 1.282778,-0.755974 2.803347,-1.287536 3.351762,-2.739351 0.174418,0.110479 0.364113,0.168704 0.570587,0.170667 -0.739528,1.326442 -2.134847,2.135155 -3.461308,2.998229 -0.162838,-0.140892 -0.316518,-0.284074 -0.461041,-0.429545 z"
         id="path56-7"
         sodipodi:nodetypes="ccccc" /><path
         style="fill:#ffffff;fill-opacity:1;stroke:none;stroke-width:0.122871;stroke-linejoin:bevel"
         d="m 24.78711,51.202381 c 0.31402,-0.06693 0.596768,-0.179039 0.852515,-0.330146 -0.617244,-0.969573 -1.759257,-1.789212 -1.73365,-2.942457 0.311916,-1.281368 1.940087,-1.977733 3.097711,-2.883231 -0.09668,-0.362556 -0.427769,-0.53759 -0.813153,-0.669185 -1.370486,0.764673 -2.770306,1.48744 -3.435874,3.259139 0.06211,1.325377 1.063458,2.442033 2.032451,3.56588 z"
         id="path57-5"
         sodipodi:nodetypes="ccccccc" /><path
         style="fill:#ffffff;fill-opacity:1;stroke:none;stroke-width:0.122871;stroke-linejoin:bevel"
         d="m 27.224978,48.519288 c 0.358997,-1.357417 0.467022,-2.319134 0.374929,-3.017754 0.242123,0.117626 0.427213,0.264454 0.585305,0.459646 -0.06414,0.89123 -0.350664,1.740099 -0.799211,2.558108 z"
         id="path58-4"
         sodipodi:nodetypes="ccccc" /><path
         style="fill:#ffffff;fill-opacity:1;stroke:none;stroke-width:0.122871;stroke-linejoin:bevel"
         d="m 29.497675,48.721498 c -0.189147,0.901946 -0.701074,1.440527 0.06223,2.645063 0.72606,0.380732 0.839898,0.210569 1.449421,0.291635 0.188641,-0.182793 0.32424,-0.384529 0.469822,-0.582701 -0.968342,0.271196 -1.313869,0.07056 -1.696064,-0.102293 -0.576677,-0.208935 -0.08597,-1.409488 0.04446,-2.256559 z"
         id="path59-1"
         sodipodi:nodetypes="ccccccc" /><path
         style="fill:#ffffff;fill-opacity:1;stroke:none;stroke-width:0.122871;stroke-linejoin:bevel"
         d="m 27.214201,44.568717 c 0.710815,0.388821 1.439113,0.745173 1.901472,1.595412 0.331335,0.473087 0.403088,1.34173 0.350921,2.399202 l 0.353866,0.0026 c -0.0062,-0.993733 0.06118,-2.033447 -0.365689,-2.764255 -0.517144,-0.708299 -1.277912,-1.085966 -2.046032,-1.453656 z"
         id="path60-2"
         sodipodi:nodetypes="ccccccc" /><path
         style="fill:#ffffff;fill-opacity:1;stroke:none;stroke-width:0.122871;stroke-linejoin:bevel"
         d="m 31.460664,52.036015 1.431862,-2.141806 c 0.05632,-0.862461 0.50449,-1.528996 -0.80682,-3.075271 l -1.177392,-1.391941 c 0.557383,-0.512114 1.307263,-0.615601 1.738676,-0.63022 l 0.993891,1.449204 c 0.602658,1.122666 0.803691,2.281844 0.268939,3.507911 l -1.963987,2.176429 z"
         id="path61-0"
         sodipodi:nodetypes="ccccccccc" /></g></g></svg>
