<?xml version="1.0" encoding="UTF-8" standalone="no"?>
<svg
   width="600"
   height="300"
   version="1.1"
   id="svg15"
   sodipodi:docname="Flag_of_Lika-Senj.svg"
   inkscape:version="1.1 (c68e22c387, 2021-05-23)"
   xmlns:inkscape="http://www.inkscape.org/namespaces/inkscape"
   xmlns:sodipodi="http://sodipodi.sourceforge.net/DTD/sodipodi-0.dtd"
   xmlns="http://www.w3.org/2000/svg"
   xmlns:svg="http://www.w3.org/2000/svg">
  <defs
     id="defs19" />
  <sodipodi:namedview
     id="namedview17"
     pagecolor="#505050"
     bordercolor="#eeeeee"
     borderopacity="1"
     inkscape:pageshadow="0"
     inkscape:pageopacity="0"
     inkscape:pagecheckerboard="0"
     showgrid="false"
     showguides="true"
     inkscape:guide-bbox="true"
     inkscape:zoom="1.8116667"
     inkscape:cx="295.86017"
     inkscape:cy="146.55014"
     inkscape:window-width="1920"
     inkscape:window-height="1009"
     inkscape:window-x="-8"
     inkscape:window-y="-8"
     inkscape:window-maximized="1"
     inkscape:current-layer="svg15">
    <sodipodi:guide
       position="0,300"
       orientation="1,0"
       id="guide21" />
    <sodipodi:guide
       position="0,300"
       orientation="0,-1"
       id="guide23" />
    <sodipodi:guide
       position="600,0"
       orientation="0,-1"
       id="guide25" />
    <sodipodi:guide
       position="600,0"
       orientation="1,0"
       id="guide27" />
  </sodipodi:namedview>
  <rect
     style="fill:#ffffff;fill-opacity:1;stroke:none;stroke-width:4.89971;stroke-dasharray:19.5988, 9.79942, 4.89971, 9.79942;-inkscape-stroke:none;paint-order:fill markers stroke;stop-color:#000000"
     id="rect3053"
     width="600"
     height="300"
     x="0"
     y="0"
     ry="3.2168062" />
  <g
     fill-rule="nonzero"
     fill="none"
     id="g20"
     transform="matrix(1.4331068,0,0,1.4331068,228.90015,60.229071)">
    <path
       d="M 50.282,125.796 C 42.125,120.926 32.728,115.15 24.425,108.21 16.78,101.889 11.045,94.895 7.379,87.425 3.115,78.92 1.016,68.742 0.775,55.399 V 0 h 99.408 v 61.376 c -0.3,6.604 -1.42,12.897 -3.333,18.703 -2.085,6.332 -5.082,11.974 -8.91,16.771 -10.057,12.72 -24.357,21.34 -36.974,28.944 L 50.625,126 Z M 3.613,2.544 V 24.85 c 0,10.04 0,20.42 0.005,30.63 0.054,12.523 2.137,22.664 6.367,31 3.232,6.504 8.282,12.761 15.011,18.601 8.104,6.974 17.108,12.627 25.656,17.693 13.223,-8.053 26.85,-16.412 36.188,-29.039 3.662,-4.925 6.433,-10.76 8.24,-17.343 1.604,-5.86 2.455,-12.317 2.523,-19.191 C 97.63,47.194 97.627,37.013 97.623,27.169 97.62,19.097 97.616,10.757 97.63,2.543 87.883,2.547 77.312,2.55 64.437,2.55 H 17.765 C 13.045,2.545 8.328,2.543 3.613,2.545 Z"
       fill="#f4e600"
       id="path2" />
    <path
       d="m 21.4,21.035 c 3.97,0.023 6.687,-3.677 10.61,-3.767 3.344,0.017 6.127,2.207 8.499,4.338 5.66,5.4 9.185,12.901 10.085,20.643 1.027,-7.782 4.511,-15.352 10.27,-20.758 2.301,-2.033 4.967,-4.106 8.169,-4.235 4.004,0 6.779,3.745 10.784,3.808 -0.087,2.937 2.407,5.002 2.78,7.824 0.566,3.67 -0.2,7.985 -3.392,10.292 -5.527,4.34 -12.486,6.381 -19.288,7.697 6.855,0.869 13.899,2.948 19.167,7.61 2.97,2.596 5.227,6.696 3.975,10.708 -0.664,2.948 -3.935,4.702 -3.705,7.933 -3.865,-0.548 -5.97,4.027 -9.813,3.566 -4.754,-0.272 -8.458,-3.797 -10.87,-7.634 -0.473,4.916 -0.837,9.941 -2.567,14.609 -0.543,1.656 -1.783,2.919 -3.168,3.906 0.067,4.16 0.34,8.308 0.566,12.456 3.343,-8.32 12.006,-12.52 16.506,-20.038 1.345,1.824 2.372,4.126 1.5,6.399 -1.592,4.604 -5.282,8.054 -8.677,11.39 -2.868,2.56 -6.127,4.66 -8.799,7.453 0.064,1.598 0.401,3.213 0.145,4.806 -0.681,1.01 -1.69,1.73 -2.597,2.533 -0.911,-0.78 -1.927,-1.489 -2.567,-2.522 -0.277,-1.154 -0.046,-2.36 -0.058,-3.53 -3.565,-3.364 -7.835,-5.937 -11.042,-9.682 -2.735,-3.142 -5.516,-6.658 -6.093,-10.916 -0.34,-2.024 0.704,-3.865 1.805,-5.469 1.645,2.499 3.225,5.054 5.187,7.328 3.427,4.17 7.875,7.511 10.466,12.34 0,-4.356 0.046,-8.706 0.029,-13.062 -1.327,-0.889 -2.55,-2.025 -3.099,-3.565 -1.961,-4.956 -2.25,-10.364 -2.763,-15.613 -1.974,2.654 -3.785,5.648 -6.797,7.241 -2.573,1.477 -6.063,2.389 -8.688,0.542 -1.829,-1.28 -3.681,-2.803 -6.082,-2.526 0.272,-3.21 -2.942,-4.94 -3.657,-7.824 -1.28,-3.911 0.802,-8.02 3.698,-10.61 5.268,-4.783 12.4,-6.946 19.334,-7.812 -6.058,-1.194 -12.122,-3 -17.366,-6.34 -2.002,-1.385 -4.136,-3.035 -4.806,-5.493 -0.877,-3 -0.963,-6.428 0.664,-9.196 0.882,-1.484 1.69,-3.053 1.655,-4.83 m 9.191,-2.884 c -2.925,0.888 -5.282,3.121 -8.354,3.635 -0.462,2.786 -2.77,4.863 -3,7.707 -0.248,2.977 0.138,6.462 2.544,8.533 2.954,2.735 6.704,4.397 10.443,5.759 5.149,1.73 10.512,3.138 15.993,2.896 a 50.51,50.51 0 0 0 -4.408,-4.347 c -3.78,1.096 -8.008,-2.983 -6.381,-6.779 -2.787,-2.931 -6.324,-5.025 -9.052,-7.985 3.61,1.823 6.508,4.76 9.473,7.466 3.445,-1.39 7.431,1.783 7.35,5.371 1.818,0.797 3.468,1.904 4.968,3.19 C 49.215,35.042 45.471,26.52 38.726,20.97 36.481,19.143 33.606,17.354 30.591,18.15 m 31.727,2.98 c -6.624,5.571 -10.257,14 -11.28,22.475 a 20.142,20.142 0 0 1 4.996,-3.172 c -0.051,-3.611 3.912,-6.785 7.39,-5.395 2.932,-2.742 5.868,-5.608 9.434,-7.507 -2.66,3.03 -6.271,5.066 -9.027,8.024 1.628,3.812 -2.613,7.858 -6.375,6.754 a 50.86,50.86 0 0 0 -4.413,4.368 c 4.46,0.19 8.857,-0.704 13.106,-1.962 4.702,-1.43 9.439,-3.283 13.177,-6.553 2.49,-2.05 2.936,-5.576 2.691,-8.607 -0.196,-2.88 -2.562,-4.962 -2.96,-7.783 -3.202,-0.462 -5.59,-2.908 -8.671,-3.681 -3.035,-0.669 -5.827,1.203 -8.066,3.035 M 37.924,38.592 c 0.75,1.823 2.573,3.121 4.524,3.323 0.922,-0.485 1.476,-1.413 2.186,-2.134 -0.664,-2.28 -2.603,-4.403 -5.1,-4.476 -1.512,0.11 -2.123,2.054 -1.61,3.289 m 23.615,-3.266 c -2.441,0.168 -4.305,2.245 -4.933,4.5 0.652,0.687 1.28,1.405 2.002,2.032 2.169,0.028 4.212,-1.61 4.823,-3.659 0.352,-1.229 -0.461,-2.953 -1.892,-2.875 M 43.685,40.93 c 2.054,2.573 4.858,4.505 6.375,7.512 -1.419,-0.37 -2.988,-1.524 -4.471,-0.71 -1.702,1.07 -2.163,3.213 -2.382,5.065 1.24,-1.05 2.215,-2.533 3.796,-3.098 1.73,-0.484 2.7,1.304 3.61,2.412 0.866,-1.102 1.739,-2.596 3.358,-2.504 1.702,0.502 2.763,2.082 4.145,3.092 -0.386,-1.77 -0.735,-3.854 -2.383,-4.921 -1.465,-0.888 -3.076,0.26 -4.494,0.664 1.517,-2.92 4.084,-5.003 6.323,-7.334 -3.029,0.116 -5.914,2.228 -6.923,5.095 -1.056,-2.942 -3.952,-4.814 -6.954,-5.273 m -19.7,12.917 c -3.156,2.366 -6.075,6.085 -5.35,10.276 0.359,3.214 3.584,5.054 4.051,8.233 3.404,0.058 5.309,3.761 8.707,3.687 3.357,-0.191 6.53,-2.031 8.585,-4.656 4.153,-5.406 8.625,-11.037 9.784,-17.96 0.401,-1.271 -0.628,-2.459 -1.671,-3.024 -1.633,-0.438 -2.631,1.356 -3.722,2.238 0.87,3.133 -1.125,6.577 -4.16,7.593 -1.27,0.427 -2.526,-0.208 -3.715,-0.588 -3.825,2.798 -6.912,6.433 -10.535,9.432 2.573,-4.067 6.588,-6.928 10.177,-10.044 -0.957,-3.9 2.875,-6.773 6.341,-7.189 0.473,-1.62 1.183,-3.155 2.193,-4.511 -7.281,0.323 -14.718,2.18 -20.684,6.513 m 32.591,-6.536 c 1.003,1.373 1.72,2.919 2.193,4.551 3.484,0.362 7.326,3.324 6.33,7.201 3.577,3.076 7.667,5.897 10.09,10.021 -3.502,-3.127 -6.68,-6.62 -10.448,-9.462 -1.137,0.375 -2.325,0.999 -3.548,0.647 -3.122,-0.906 -5.17,-4.431 -4.339,-7.604 -0.882,-0.895 -1.707,-1.95 -2.931,-2.389 -1.263,-0.017 -1.892,1.24 -2.665,2.025 1.048,7.737 6.004,14.031 10.718,19.945 2.12,2.181 5.062,3.74 8.138,3.797 3.248,-0.156 5.117,-3.659 8.434,-3.641 0.402,-3.133 3.532,-4.916 4.016,-8.014 0.87,-4.084 -1.863,-7.852 -4.927,-10.235 -5.989,-4.587 -13.633,-6.456 -21.059,-6.842 m -16.313,5.838 c -2.192,0.86 -4.91,3.865 -2.82,6.081 3.138,1.662 6.444,-1.898 6.485,-4.933 -0.028,-1.932 -2.417,-1.8 -3.663,-1.148 m 17.366,0.122 c -1.27,3.317 2.989,7.99 6.335,5.832 1.465,-1.777 -0.08,-4.13 -1.667,-5.204 -1.304,-0.865 -3.289,-1.863 -4.668,-0.628 m -7.033,0.034 c -1.074,5.025 -3.429,9.664 -6.497,13.763 0.358,5.015 0.762,10.097 2.256,14.926 0.617,1.73 1.454,3.883 3.496,4.27 0.993,-0.722 0.869,-2.007 0.912,-3.088 -0.012,-4.875 -0.014,-9.752 -0.006,-14.631 l 0.687,0.023 c 0.005,4.863 -0.006,9.727 -0.006,14.591 -0.067,1.31 0.352,2.562 0.796,3.767 2.417,-0.836 3.335,-3.398 3.94,-5.648 1.097,-4.264 1.547,-8.66 1.846,-13.039 C 54.541,63.843 51.841,58.811 50.6,53.307 M 33.69,81.984 c 0.167,1.448 0.16,2.977 0.795,4.322 0.987,2.197 2.856,3.824 4.034,5.901 -3.324,-2.198 -5.24,-6.011 -5.822,-9.883 -0.311,2.303 -0.346,4.737 0.75,6.855 3.272,6.98 9.6,11.717 15.572,16.264 -1.471,-3.306 -4.213,-5.75 -6.099,-8.776 2.77,1.806 4.34,4.864 6.353,7.397 -0.145,-1.16 -0.04,-2.407 -0.602,-3.473 -2.193,-4.512 -6.286,-7.605 -9.491,-11.343 -2.06,-2.244 -3.716,-4.806 -5.492,-7.264 m 24.554,11.835 c -2.325,2.689 -4.408,5.868 -4.644,9.525 2.14,-3.029 4.05,-6.352 6.97,-8.723 -1.812,3.363 -4.766,5.983 -6.445,9.456 5.695,-4.84 12.122,-9.213 15.895,-15.86 1.125,-1.88 1.396,-4.172 0.628,-6.242 -0.2,3.848 -2.307,7.564 -5.527,9.658 1.137,-2.006 2.948,-3.56 3.93,-5.66 0.675,-1.38 0.663,-2.954 0.836,-4.437 -3.283,4.638 -7.83,8.118 -11.643,12.283 m -8.254,-5.5 c 0.023,7.137 -0.017,14.28 -0.485,21.41 0.658,0.681 1.322,1.362 2.006,2.02 a 67.357,67.357 0 0 0 2.158,-1.98 C 53.09,102.333 52.311,94.908 52.263,87.442 51.911,87.04 51.201,86.259 50.849,85.861 c -0.456,0.756 -0.998,1.523 -0.865,2.458"
       fill="#010202"
       id="path4" />
    <path
       d="M 2.95,1.88 C 34.734,1.874 66.515,1.873 98.296,1.874 98.261,20.314 98.319,38.759 98.266,57.204 98.14,70.176 95.233,83.559 87.374,94.129 77.907,106.931 64.043,115.392 50.658,123.55 41.57,118.173 32.588,112.49 24.562,105.584 18.452,100.282 13.012,94.062 9.394,86.781 4.502,77.138 3.001,66.175 2.955,55.479 2.944,37.61 2.942,19.745 2.95,1.88"
       fill="#528ecb"
       id="path6"
       style="fill:#3399ff;fill-opacity:1"
       sodipodi:nodetypes="ccccccccc" />
  </g>
  <rect
     style="fill:#3399ff;stroke:none;stroke-width:2;stroke-dasharray:8, 4, 2, 4;-inkscape-stroke:none;paint-order:fill markers stroke;stop-color:#000000;fill-opacity:1"
     id="rect143"
     width="600"
     height="49.985046"
     x="0"
     y="0"
     ry="0.53597403" />
  <rect
     style="fill:#3399ff;fill-opacity:1;stroke:none;stroke-width:2;stroke-dasharray:8, 4, 2, 4;-inkscape-stroke:none;paint-order:fill markers stroke;stop-color:#000000"
     id="rect3051"
     width="600"
     height="49.985046"
     x="0"
     y="250.01495"
     ry="0.53597403" />
  <g
     id="g858480"
     transform="matrix(0.37729056,0,0,0.37729056,-979.14953,1755.0334)"
     style="fill:#ffff00;fill-opacity:1;stroke:#000000;stroke-opacity:1"
     inkscape:export-filename="C:\Users\Luis\Desktop\test4.png"
     inkscape:export-xdpi="180.785"
     inkscape:export-ydpi="180.785">
    <path
       id="path858424"
       style="fill:#ffff00;fill-opacity:1;stroke:#000000;stroke-width:1.96748;stroke-linecap:butt;stroke-linejoin:miter;stroke-miterlimit:4;stroke-dasharray:none;stroke-opacity:1"
       d="m 3393.9998,-4329.4509 -5.3285,247.3197 5.3285,6.4763 5.3287,-6.4763 z" />
    <path
       style="fill:#ffff00;fill-opacity:1;stroke:#000000;stroke-width:1.96748;stroke-linecap:butt;stroke-linejoin:miter;stroke-miterlimit:4;stroke-dasharray:none;stroke-opacity:1"
       d="m 3394.0001,-4244.6934 10e-5,59.7675 c -1.7751,10.2172 -2.6744,10.6409 -7.3317,8.3327 -23.2905,-11.5437 -24.5321,-151.2895 7.3315,-152.8568"
       id="path858426"
       sodipodi:nodetypes="ccsc" />
    <g
       id="g858434"
       transform="matrix(-1.4829797,0,0,1.4829797,3133.4913,-781.48833)"
       style="fill:#ffff00;fill-opacity:1;stroke:#000000;stroke-width:1.3267;stroke-miterlimit:4;stroke-dasharray:none;stroke-opacity:1">
      <path
         style="fill:#ffff00;fill-opacity:1;stroke:#000000;stroke-width:1.3267;stroke-linecap:butt;stroke-linejoin:miter;stroke-miterlimit:4;stroke-dasharray:none;stroke-opacity:1"
         d="m -173.88096,-2389.6963 c -0.99992,-5.1386 -4.44097,-18.2632 0.83418,-33.046 8.32978,-23.3431 29.05268,-49.7703 44.34142,-47.4199 11.96101,2.3974 14.31381,11.0638 27.20542,9.5376 -0.99668,10.0452 7.363516,16.5989 7.742919,25.9119 1.374211,33.3418 -54.914289,40.2199 -80.123939,45.0164 z"
         id="path858428"
         sodipodi:nodetypes="cscccc" />
      <path
         style="fill:#ffff00;fill-opacity:1;stroke:#000000;stroke-width:1.3267;stroke-linecap:butt;stroke-linejoin:miter;stroke-miterlimit:4;stroke-dasharray:none;stroke-opacity:1"
         d="m -144.52787,-2422.2559 c -4.77486,-3.8022 -11.23288,1.5142 -12.43782,2.3218 -6.1031,5.2363 -4.50121,9.5536 -3.92483,11.7744 4.36995,6.4528 12.99387,1.0655 14.48316,-1.2713 5.09928,-5.8641 2.987,-11.6334 1.87949,-12.8249 z"
         id="path858430"
         sodipodi:nodetypes="ccccc" />
      <path
         style="fill:#ffff00;fill-opacity:1;stroke:#000000;stroke-width:1.3267;stroke-linecap:butt;stroke-linejoin:miter;stroke-miterlimit:4;stroke-dasharray:none;stroke-opacity:1"
         d="m -120.48141,-2442.0458 c -9.38354,5.9981 -17.00749,12.766 -24.04646,19.7899"
         id="path858432"
         sodipodi:nodetypes="cc" />
    </g>
    <g
       id="g858442"
       style="fill:#ffff00;fill-opacity:1;stroke:#000000;stroke-width:1.3267;stroke-miterlimit:4;stroke-dasharray:none;stroke-opacity:1"
       transform="matrix(-1.4829797,0,0,1.4829797,3133.4913,-781.48833)">
      <path
         style="fill:#ffff00;fill-opacity:1;stroke:#000000;stroke-width:1.3267;stroke-linecap:butt;stroke-linejoin:miter;stroke-miterlimit:4;stroke-dasharray:none;stroke-opacity:1"
         d="m -173.88096,-2389.6962 c 33.32473,-5.0352 82.853603,10.4713 81.757791,38.9164 -4.237992,18.9765 -13.024251,17.0684 -10.613611,27.4185 -12.60938,-0.9702 -12.61659,6.8299 -24.43341,9.3974 -18.29638,2.5446 -52.04434,-44.7436 -46.71077,-75.7323 z"
         id="path858436"
         sodipodi:nodetypes="ccccc" />
      <path
         style="fill:#ffff00;fill-opacity:1;stroke:#000000;stroke-width:1.3267;stroke-linecap:butt;stroke-linejoin:miter;stroke-miterlimit:4;stroke-dasharray:none;stroke-opacity:1"
         d="m -159.78493,-2377.4244 c 3.67228,-1.5991 9.47124,-1.999 14.48315,2.6534 7.14367,7.0868 5.87217,13.5944 5.08569,14.8148 -5.89434,4.5295 -12.45915,0.4858 -14.70427,-0.995 -6.95742,-5.7809 -6.39795,-13.2288 -4.86457,-16.4732 z"
         id="path858438"
         sodipodi:nodetypes="ccccc" />
      <path
         style="fill:#ffff00;fill-opacity:1;stroke:#000000;stroke-width:1.3267;stroke-linecap:butt;stroke-linejoin:miter;stroke-miterlimit:4;stroke-dasharray:none;stroke-opacity:1"
         d="m -140.21609,-2359.9562 c 10.69636,6.6922 17.72141,15.387 25.31788,23.7701"
         id="path858440"
         sodipodi:nodetypes="cc" />
    </g>
    <g
       id="g858450"
       style="fill:#ffff00;fill-opacity:1;stroke:#000000;stroke-width:1.3267;stroke-miterlimit:4;stroke-dasharray:none;stroke-opacity:1"
       transform="matrix(-1.4829797,0,0,1.4829797,3130.8093,-781.48833)">
      <path
         style="fill:#ffff00;fill-opacity:1;stroke:#000000;stroke-width:1.3267;stroke-linecap:butt;stroke-linejoin:miter;stroke-miterlimit:4;stroke-dasharray:none;stroke-opacity:1"
         d="m -173.88104,-2235.8277 c 14.3593,-11.6753 57.02422,-42.6986 41.0323,-66.4892 -13.77649,23.7804 -25.15188,26.6494 -41.0323,51.6747 z"
         id="path858444"
         sodipodi:nodetypes="cccc" />
      <path
         style="fill:#ffff00;fill-opacity:1;stroke:#000000;stroke-width:1.3267;stroke-linecap:butt;stroke-linejoin:miter;stroke-miterlimit:4;stroke-dasharray:none;stroke-opacity:1"
         d="m -132.84874,-2302.3169 c 0,0 3.90961,12.6759 -10.6841,26.9379"
         id="path858446" />
      <path
         style="fill:#ffff00;fill-opacity:1;stroke:#000000;stroke-width:1.3267;stroke-linecap:butt;stroke-linejoin:miter;stroke-miterlimit:4;stroke-dasharray:none;stroke-opacity:1"
         d="m -173.88104,-2240.332 c 0,0 10.88991,-15.1465 14.98058,-19.016"
         id="path858448" />
    </g>
    <path
       style="fill:#ffff00;fill-opacity:1;stroke:#000000;stroke-width:1.96748;stroke-linecap:butt;stroke-linejoin:miter;stroke-miterlimit:4;stroke-dasharray:none;stroke-opacity:1"
       d="m 3394.0001,-4244.6934 v 59.7675 c 1.7749,10.2172 2.6742,10.6409 7.3315,8.3327 23.2905,-11.5437 24.5322,-151.2895 -7.3314,-152.8568"
       id="path858452"
       sodipodi:nodetypes="ccsc" />
    <g
       id="g858460"
       transform="matrix(1.4829797,0,0,1.4829797,3654.5087,-781.48833)"
       style="fill:#ffff00;fill-opacity:1;stroke:#000000;stroke-width:1.3267;stroke-miterlimit:4;stroke-dasharray:none;stroke-opacity:1">
      <path
         style="fill:#ffff00;fill-opacity:1;stroke:#000000;stroke-width:1.3267;stroke-linecap:butt;stroke-linejoin:miter;stroke-miterlimit:4;stroke-dasharray:none;stroke-opacity:1"
         d="m -173.88096,-2389.6963 c -0.99992,-5.1386 -4.44097,-18.2632 0.83418,-33.046 8.32978,-23.3431 29.05268,-49.7703 44.34142,-47.4199 11.96101,2.3974 14.31381,11.0638 27.20542,9.5376 -0.99668,10.0452 7.363516,16.5989 7.742919,25.9119 1.374211,33.3418 -54.914289,40.2199 -80.123939,45.0164 z"
         id="path858454"
         sodipodi:nodetypes="cscccc" />
      <path
         style="fill:#ffff00;fill-opacity:1;stroke:#000000;stroke-width:1.3267;stroke-linecap:butt;stroke-linejoin:miter;stroke-miterlimit:4;stroke-dasharray:none;stroke-opacity:1"
         d="m -144.52787,-2422.2559 c -4.77486,-3.8022 -11.23288,1.5142 -12.43782,2.3218 -6.1031,5.2363 -4.50121,9.5536 -3.92483,11.7744 4.36995,6.4528 12.99387,1.0655 14.48316,-1.2713 5.09928,-5.8641 2.987,-11.6334 1.87949,-12.8249 z"
         id="path858456"
         sodipodi:nodetypes="ccccc" />
      <path
         style="fill:#ffff00;fill-opacity:1;stroke:#000000;stroke-width:1.3267;stroke-linecap:butt;stroke-linejoin:miter;stroke-miterlimit:4;stroke-dasharray:none;stroke-opacity:1"
         d="m -120.48141,-2442.0458 c -9.38354,5.9981 -17.00749,12.766 -24.04646,19.7899"
         id="path858458"
         sodipodi:nodetypes="cc" />
    </g>
    <g
       id="g858468"
       style="fill:#ffff00;fill-opacity:1;stroke:#000000;stroke-width:1.3267;stroke-miterlimit:4;stroke-dasharray:none;stroke-opacity:1"
       transform="matrix(1.4829797,0,0,1.4829797,3654.5087,-781.48833)">
      <path
         style="fill:#ffff00;fill-opacity:1;stroke:#000000;stroke-width:1.3267;stroke-linecap:butt;stroke-linejoin:miter;stroke-miterlimit:4;stroke-dasharray:none;stroke-opacity:1"
         d="m -173.88096,-2389.6962 c 33.32473,-5.0352 82.853603,10.4713 81.757791,38.9164 -4.237992,18.9765 -13.024251,17.0684 -10.613611,27.4185 -12.60938,-0.9702 -12.61659,6.8299 -24.43341,9.3974 -18.29638,2.5446 -52.04434,-44.7436 -46.71077,-75.7323 z"
         id="path858462"
         sodipodi:nodetypes="ccccc" />
      <path
         style="fill:#ffff00;fill-opacity:1;stroke:#000000;stroke-width:1.3267;stroke-linecap:butt;stroke-linejoin:miter;stroke-miterlimit:4;stroke-dasharray:none;stroke-opacity:1"
         d="m -159.78493,-2377.4244 c 3.67228,-1.5991 9.47124,-1.999 14.48315,2.6534 7.14367,7.0868 5.87217,13.5944 5.08569,14.8148 -5.89434,4.5295 -12.45915,0.4858 -14.70427,-0.995 -6.95742,-5.7809 -6.39795,-13.2288 -4.86457,-16.4732 z"
         id="path858464"
         sodipodi:nodetypes="ccccc" />
      <path
         style="fill:#ffff00;fill-opacity:1;stroke:#000000;stroke-width:1.3267;stroke-linecap:butt;stroke-linejoin:miter;stroke-miterlimit:4;stroke-dasharray:none;stroke-opacity:1"
         d="m -140.21609,-2359.9562 c 10.69636,6.6922 17.72141,15.387 25.31788,23.7701"
         id="path858466"
         sodipodi:nodetypes="cc" />
    </g>
    <g
       id="g858476"
       style="fill:#ffff00;fill-opacity:1;stroke:#000000;stroke-width:1.3267;stroke-miterlimit:4;stroke-dasharray:none;stroke-opacity:1"
       transform="matrix(1.4829797,0,0,1.4829797,3657.1907,-781.48833)">
      <path
         style="fill:#ffff00;fill-opacity:1;stroke:#000000;stroke-width:1.3267;stroke-linecap:butt;stroke-linejoin:miter;stroke-miterlimit:4;stroke-dasharray:none;stroke-opacity:1"
         d="m -173.88104,-2235.8277 c 14.3593,-11.6753 57.02422,-42.6986 41.0323,-66.4892 -13.77649,23.7804 -25.15188,26.6494 -41.0323,51.6747 z"
         id="path858470"
         sodipodi:nodetypes="cccc" />
      <path
         style="fill:#ffff00;fill-opacity:1;stroke:#000000;stroke-width:1.3267;stroke-linecap:butt;stroke-linejoin:miter;stroke-miterlimit:4;stroke-dasharray:none;stroke-opacity:1"
         d="m -132.84874,-2302.3169 c 0,0 3.90961,12.6759 -10.6841,26.9379"
         id="path858472" />
      <path
         style="fill:#ffff00;fill-opacity:1;stroke:#000000;stroke-width:1.3267;stroke-linecap:butt;stroke-linejoin:miter;stroke-miterlimit:4;stroke-dasharray:none;stroke-opacity:1"
         d="m -173.88104,-2240.332 c 0,0 10.88991,-15.1465 14.98058,-19.016"
         id="path858474" />
    </g>
    <path
       id="path858478"
       style="fill:#ffff00;fill-opacity:1;stroke:#000000;stroke-width:1.96748;stroke-linecap:butt;stroke-linejoin:miter;stroke-miterlimit:4;stroke-dasharray:none;stroke-opacity:1"
       d="m 3361.0448,-4358.4787 c 9.5888,10.7793 21.7431,19.804 27.6265,33.119 -19.456,-9.2849 -24.3083,2.3149 -23.5276,21.97 10.6975,-12.6188 21.5559,-27.335 28.8561,4.4269 7.3,-31.7619 18.1585,-17.0457 28.8563,-4.4269 0.7803,-19.6551 -4.0719,-31.2549 -23.5276,-21.97 5.8832,-13.315 18.0374,-22.3397 27.6265,-33.119 -15.0695,5.0303 -28.4772,11.3492 -32.9552,24.5934 -4.4778,-13.2442 -17.8859,-19.5631 -32.955,-24.5934 z" />
  </g>
</svg>
