<svg width="1200" height="600" version="1.1" viewBox="0 0 1200 600.00002" xmlns="http://www.w3.org/2000/svg">
 <g transform="translate(0,-522.51965)">
  <path d="m0 522.5197h1200l-400 300 400 300h-1200z" fill="#006d33" style="paint-order:fill markers stroke"/>
  <g transform="matrix(.31822556 0 0 .31822556 298.168 615.30522)">
   <g stroke="#1f1a17" stroke-width="4">
    <g>
     <path d="m2 181.79219v603.86719c0 157.11356 123.77717 263.40992 236.30273 292.01562 42.30884 10.7556 57.04845 13.8951 81.69727 41.8223 24.64882-27.9272 39.38843-31.0667 81.69727-41.8223 112.52556-28.6057 236.30273-134.90206 236.30273-292.01562v-603.86719h-318z" fill="#005ca1"/>
     <path d="m2 181.79219v454.22746h636v-454.22746h-318z" fill="#f6b801"/>
     <path transform="translate(0,522.51965)" d="m320.08984-302.54492c-48.1978 0-71.11837 29.8925-84.82226 53.57226-65.76297-41.42479-141.716295 39.3166-100.53516 112.29102-64.992288 93.794549 52.06136 179.268238 120 81.480468 9.61961 55.39439013 14.41872 110.955762-11.69726 168.701172l77.05468-0.0449 77.05274 0.0449c-26.11598-57.74541-21.31492-113.3067819-11.69531-168.701172 67.93864 97.78777 184.99229 12.314081 120-81.480468 41.18113-72.97442-34.77414-153.71581-100.53711-112.29102-13.70389-23.67976-36.62252-53.57226-84.82032-53.57226z" fill="#006d33"/>
    </g>
    <path transform="translate(0,522.51965)" d="m320-205.10352c-1.62649 6.07014-10.77588 12.22254-11.62109 19.38672-0.45541 3.86021 3.75323 7.45362 4.76562 10.3086 1.78908 5.04529-0.48883 5.72526-4.48047 4.12695-2.00431-0.80256-6.17137-3.39407-9.875-2.88281-5.36198 0.74019-11.81358 7.36507-17.60156 9.75195 5.64078 3.79543 10.23782 7.70014 15.57422 9.09766 6.43355 1.68485 8.22767-1.9796 14.53516-2.43555-9.51799 74.44152-61.83109 50.43149-77.15626 23.43359 4.87434-1.91196 10.41566-0.17639 13.58008-2.41797 4.82211-3.41586 4.9603-11.56264 10.7461-17.13085-8.24069 0.73488-14.22381-2.05835-19.51758-1.04688-4.62258 0.88323-7.3403 6.26516-11.83594 7.64649-2.14151-5.27617-0.54164-10.28863-2.71875-13.92774-3.30617-5.52637-12.35451-6.2044-16.79883-12.66797 0.39653 8.07813-2.5032 15.33746-1.05468 21.28711 1.14002 4.68245 8.84499 6.93099 10.07421 10.49024-4.27823 3.45226-9.84214 1.74612-13.78906 4.79101-4.03213 3.11063-3.38892 10.38742-8.96094 16.40039 9.35077-1.1709 14.78728 2.40295 19.01563 1.08203 4.23271-1.32228 5.04441-8.38552 8.84766-9.39257 14.26802 24.44979 29.13213 48.859078 33.0039 74.001948h130.53516c3.87177-25.14287 18.73588-49.552158 33.0039-74.001948 3.80325 1.00705 4.61495 8.07029 8.84766 9.39257 4.22835 1.32092 9.66486-2.25293 19.01563-1.08203-5.57202-6.01297-4.92881-13.28976-8.96094-16.40039-3.94692-3.04489-9.51083-1.33875-13.78906-4.79101 1.22922-3.55925 8.93419-5.80779 10.07421-10.49024 1.44852-5.94965-1.45121-13.20898-1.05468-21.28711-4.44432 6.46357-13.49266 7.1416-16.79883 12.66797-2.17711 3.63911-0.57724 8.65157-2.71875 13.92774-4.49564-1.38133-7.21336-6.76326-11.83594-7.64649-5.29377-1.01147-11.27689 1.78176-19.51758 1.04688 5.7858 5.56821 5.92399 13.71499 10.7461 17.13085 3.16442 2.24158 8.70573 0.50601 13.58008 2.41797-15.32518 26.9979-67.63827 51.00793-77.15626-23.43359 6.30748 0.45595 8.10161 4.1204 14.53516 2.43555 5.3364-1.39752 9.93344-5.30223 15.57422-9.09766-5.78798-2.38688-12.23958-9.01176-17.60156-9.75195-3.70363-0.51126-7.87069 2.08025-9.875 2.88281-3.99164 1.59831-6.26955 0.91834-4.48047-4.12695 1.01239-2.85498 5.22103-6.44839 4.76562-10.3086-0.84521-7.16418-9.9946-13.31658-11.62109-19.38672z" fill="#f6b801" stroke-linejoin="bevel"/>
    <g>
     <path d="m335.92999 781.2362c-74.82568-3.73867-103.00866 57.04779-88.69189 95.87777 8.22825 22.31665 64.70499 52.27079 100.11948 67.60884 12.42926-14.16057 31.85694-16.15857 56.77762-6.43445-13.93742-6.62315-10.91292-15.44309-2.32927-17.97787-11.29169-0.28326-15.78075-4.90795-11.878-13.52522-19.10492 1.22666-14.49896-21.69226-2.77969-22.13452 2.58947 5.8133 3.59102 8.92656 6.33561 12.66818 1.7643 2.40522 5.48463 2.65373 10.5848-1.55827 0.55489-10.98605-2.72363-15.42768-6.01016-20.09424 3.10026-6.10891 7.85468-11.30363 13.12887-9.57339 9.02209 2.95975 14.86635 13.09664 8.19239 25.95728 3.58375-4.70845 10.70395-6.96996 14.1657 5.0653 9.06688-10.49353 20.02764-1.14682 17.80799 24.12504 7.02205-10.60779 22.80007 8.97065 34.19703 3.1144-18.73823 25.60258-33.07742 19.1692-39.82296 16.50709-34.21768 58.37571-76.2255 89.03526-110.44097 90.82876-24.71724 1.2957-72.74065 0.1544-94.79238-14.3875-41.43258-27.32243-70.62354-69.82638-71.96293-117.10701-1.54384-54.49757 32.2636-106.61391 69.09641-125.24181 31.3021-15.8308 65.4299-19.23862 86.73688-17.64253z" fill="#da251c"/>
     <path d="m318.63418 789.31787c2.98302 17.1435 16.3844 22.14471 28.84909 19.72766 16.79594-3.25691 21.63428-20.87143 17.27307-33.11132-2.70951-7.60432-10.07021-17.20974-29.49554-13.43514-12.36014 2.40174-17.85762 19.74422-16.62662 26.8188z" fill="none"/>
     <path d="m355.32479 776.80413c24.534-21.80535 45.77217-5.8562 62.71508 1.92914-16.22668-22.01535-39.99191-46.63353-84.91833-17.07102z" fill="#da251c"/>
     <path d="m299.76331 815.61675c-27.10363 8.87175-31.14396 62.29052-52.8347 61.87888 1.68247 9.91199 3.51061 14.37084 4.97257 20.66662 5.40972 23.29638-8.16936 34.77909-30.76185 34.56674 47.24338 4.64678 59.26203 52.11918-4.22101 43.291 29.8855 10.75086 32.51444 20.02957 23.50456 42.00571-10.1542 24.7672 32.02841 15.7135 55.88335 13.6505 1.36273 6.002 1.80484 12.0087 8.3983 15.0651-2.47486 7.405-6.14155 11.867-11.48469 17.0899 5.45105 1.2078 15.30039-1.4703 20.20236-7.997-1.38999 7.2601-5.08684 13.1071-9.31879 17.1181 11.62315-3.4762 18.81639-10.3409 19.19265-16.9039 2.67127 6.643 1.79611 10.0905-0.67801 14.4819 7.6533-4.7247 13.89849-13.5588 9.39764-23.7662 4.80073 3.6996 8.15804 11.4521 6.74697 17.5903 10.74083-12.4202 5.83232-21.6939-3.14153-28.9315-6.03319-22.4934-31.75298-26.3443-50.31213-27.9425 20.81639 4e-4 40.68452 0.8966 56.12899-7.0083 14.93993-7.64663 23.09333-34.21608 5.91959-55.74929-47.64191-24.6684-71.03009-73.45015-47.59427-129.10606z" fill="#da251c"/>
    </g>
   </g>
   <path d="m433.12716 901.9249c0.6566 0.69999 1.27859 1.36999 1.72894 2.00194-2.70321 0.20459-4.04717 2.29854-3.63988 4.89563 0.3901 2.48749 2.30516 4.51128 5.20503 2.96651 0.7114 4.65596 1.95289 8.29804 4.20406 9.39088l2.05653-2.82091c-2.19196-2.31571-2.6148-5.82513-2.78451-9.97327-0.27128-6.63071-2.64268-9.94442-6.77017-6.46078z" fill="#1f1a17"/>
   <g stroke="#1f1a17" stroke-width="4">
    <path transform="translate(0,522.51965)" d="m359.81641 279.86328c-2.56773 2.76035-5.93996 4.92412-10.15235 6.13086l44.70703 89.69727c1.98224 1.48625 5.33155 1.15427 9.69727-2.45118 0.0977-1.93495 0.0723-3.65674-0.0469-5.22265z" fill="#f6b801"/>
    <path d="m318.63418 789.31787c2.98302 17.1435 16.3844 22.14471 28.84909 19.72766 16.79594-3.25691 21.63428-20.87143 17.27307-33.11132-2.70951-7.60432-10.07021-17.20974-29.49554-13.43514-12.36014 2.40174-17.85762 19.74422-16.62662 26.8188z" fill="#da251c"/>
    <path d="m336.71826 782.54037-34.17168-68.56052c-23.0982 18.20592-33.25372 20.30193-38.1121 29.91979l-12.84618-25.59092c14.01022 0.53489 26.06096-6.88798 45.35287-13.35576-10.91963-14.88458-21.83926-35.92492-32.75889-44.5521l28.86485-13.10945c-2.56791 10.45021 8.57357 30.97889 14.64406 51.39553 13.12725-9.67351 29.90839-19.71356 36.65582-27.96528l13.0998 24.75612c-13.63969 1.40275-27.23963 7.78859-44.65512 13.12629l27.87201 55.58402c12.57063 25.0691 4.24435 34.7839-3.94544 18.35228z" fill="#f6b801"/>
   </g>
  </g>
 </g>
</svg>
