<svg xmlns="http://www.w3.org/2000/svg" viewBox="0 0 2286 1600"><rect width="2286" height="1600" style="fill:#13652f"/><path d="M1640.72,1054.4886l-84.2379-52.222c1.2424-47.389-16.3015-103.4338,61.2192-115.7213-30.61,24.7525-27.7425,50.3789-22.5135,63.1716,11.9326-31.9476,35.0468-48.14,66.5712-49.4368-17.6667,16.8885-38.6921,27.6606-32.9306,86.9958,1.6929,17.4482,38.0777,48.3036,11.8916,67.2128Zm-881.44,0,84.2379-52.222c-1.2424-47.389,16.3015-103.4338-61.2193-115.7214,30.61,24.7526,27.7426,50.379,22.5135,63.1716-11.9325-31.9476-35.0468-48.14-66.5711-49.4368,17.6667,16.8885,38.6921,27.6606,32.9306,86.9957C769.4787,1004.7241,733.094,1035.58,759.28,1054.4886Z" transform="translate(-57)" style="fill:#fbea26;stroke:#968f1d;stroke-miterlimit:36.43996975005575;stroke-width:1.1409445307994013px;isolation:isolate;opacity:0.9980000257492065"/><path d="M772.0455,1014.718l67.363-42.72c-7.4,10.3352,11.7824,15.6871,4.1231,30.2683l-84.2379,52.2221c4.601-2.8535,11.25-9.3249,8.41-14.3764-8.6559-15.414,4.3552-25.3943,4.3552-25.3943Z" transform="translate(-57)" style="fill:#e8db00;stroke:#968f1d;stroke-miterlimit:36.43996975005575;stroke-width:1.1409445307994013px;isolation:isolate;opacity:0.9980000257492065"/><path d="M839.4085,971.9982c24.971,11.3182,5.857,73.22,20.7932,90.3134l-68.3187,46.87c-12.1783,7.0312-15.25-25.4625-14.9635-55.3895.15-15.9192,9.4205-26.1451-4.874-39.0743Z" transform="translate(-57)" style="fill:#fbea26;stroke:#968f1d;stroke-miterlimit:36.43996975005575;stroke-width:1.1409445307994013px;isolation:isolate;opacity:0.9980000257492065"/><path d="M861.7991,996.546c-20.684,14.1853,13.5846,54.2973-1.611,65.7793l-68.3187,46.87c17.2162-20.1106-23.06-42.57,1.611-65.7792Z" transform="translate(-57)" style="fill:#e8db00;stroke:#968f1d;stroke-miterlimit:36.43996975005575;stroke-width:1.1409445307994013px;isolation:isolate;opacity:0.9980000257492065"/><path d="M1627.9545,1014.718l-67.363-42.72c7.4,10.3352-11.7824,15.6871-4.1232,30.2683l84.2379,52.2221c-4.6009-2.8535-11.25-9.3249-8.41-14.3764,8.6559-15.414-4.3552-25.3943-4.3552-25.3943Z" transform="translate(-57)" style="fill:#e8db00;stroke:#968f1d;stroke-miterlimit:36.43996975005575;stroke-width:1.1409445307994013px;isolation:isolate;opacity:0.9980000257492065"/><path d="M1560.5915,971.9982c-24.971,11.3182-5.8571,73.22-20.7933,90.3134l68.3187,46.87c12.1784,7.0312,15.25-25.4624,14.9635-55.3894-.15-15.9192-9.42-26.1452,4.8741-39.0744Z" transform="translate(-57)" style="fill:#fbea26;stroke:#968f1d;stroke-miterlimit:36.43996975005575;stroke-width:1.1409445307994013px;isolation:isolate;opacity:0.9980000257492065"/><path d="M1538.2008,996.546c20.684,14.1853-13.5846,54.2973,1.611,65.7793l68.3187,46.87c-17.2162-20.1106,23.06-42.57-1.611-65.7792Z" transform="translate(-57)" style="fill:#e8db00;stroke:#968f1d;stroke-miterlimit:36.43996975005575;stroke-width:1.1409445307994013px;isolation:isolate;opacity:0.9980000257492065"/><path d="M872.1343,993.7608a28.0726,28.0726,0,0,0-10.3352,2.7852L793.48,1043.4025a23.9669,23.9669,0,0,1,21.5441,10.6765c66.2981,133.2516,212.97,232.5076,384.9687,232.5076h.0136c171.9982-.0137,318.67-99.2424,384.9686-232.5076a23.9542,23.9542,0,0,1,21.5441-10.6765l-68.3187-46.87c-16.6018-7.4271-20.7386,1.6111-26.4045,7.8231-46.8565,104.7172-171.1382,194.8121-311.7895,194.9486-140.665-.1361-264.9466-90.2314-311.8031-194.9486-4.2461-4.6557-7.632-10.9086-16.0694-10.6083Z" transform="translate(-57)" style="fill:#fbea26;stroke:#968f1d;stroke-linejoin:round;stroke-width:1.1409445307994013px;isolation:isolate;opacity:0.9950000047683716"/><path d="M926.3087,1098.8329l16.3561,15.2912-4.3416,4.6419-1.4882-1.3925a5.5937,5.5937,0,0,0-1.9523-1.379,1.93,1.93,0,0,0-1.2971.1362,8.2014,8.2014,0,0,0-1.9524,1.6928l-17.3527,18.5679a9.2266,9.2266,0,0,0-1.652,2.1025,1.5515,1.5515,0,0,0-.0137,1.16,4.2294,4.2294,0,0,0,1.2425,1.7066l1.7748,1.6657-4.3416,4.6419-16.356-15.2911,4.3415-4.6419,1.3244,1.2424a7.7783,7.7783,0,0,0,2.0342,1.5428,1.7356,1.7356,0,0,0,1.2288-.0681,6.7455,6.7455,0,0,0,1.8841-1.5838l17.421-18.6362a8.3188,8.3188,0,0,0,1.6928-2.2527,1.9812,1.9812,0,0,0,.0409-1.3925,5.5545,5.5545,0,0,0-1.4608-1.72l-1.4882-1.3925Zm33.1081,31.21,16.8066,12.2194-9.9939,27.292,23.1279-17.7487,17.0934,12.4377-3.7409,5.1335-1.8431-1.3379a3.4266,3.4266,0,0,0-2.5395-.8739,4.3991,4.3991,0,0,0-2.2663,1.9388l-15.3322,21.0935a6.7822,6.7822,0,0,0-1.1059,1.8432,1.7859,1.7859,0,0,0,.1225,1.2288,3.9807,3.9807,0,0,0,1.3107,1.4471l2.1025,1.5292-3.7408,5.1335-17.8716-12.9975,3.7409-5.1335,1.3789,1.01a7.1513,7.1513,0,0,0,2.2254,1.2561,1.8589,1.8589,0,0,0,1.2971-.1634,5.4916,5.4916,0,0,0,1.5974-1.6383l16.6155-22.8412-31.4425,24.1928-5.1334-3.7408,12.9019-36.1663-16.4244,22.5817a2.8109,2.8109,0,0,0-.6007,1.3925,2.451,2.451,0,0,0,.314,1.2425,6.0744,6.0744,0,0,0,1.5292,1.4335l1.7885,1.2971-3.7409,5.1335L932.3839,1167.18l3.7408-5.1335,1.4882,1.0785a6.4541,6.4541,0,0,0,2.0889,1.16,1.9936,1.9936,0,0,0,1.3517-.2322,6.6039,6.6039,0,0,0,1.7339-1.8294l15.141-20.8206a7.03,7.03,0,0,0,1.1742-1.9933,2.02,2.02,0,0,0-.0953-1.3789,4.0254,4.0254,0,0,0-1.3243-1.3653l-2.0206-1.4746Zm79.514,50.7066,9.38,4.2734-2.1435,37.9821a9.1471,9.1471,0,0,0,.355,4,5.5517,5.5517,0,0,0,2.6759,1.9114l-2.635,5.7888-19.7692-9.0109,2.635-5.7888,1.215.5189a4.9956,4.9956,0,0,0,2.4984.6279,1.4206,1.4206,0,0,0,1.1468-.7782,9.9782,9.9782,0,0,0,.4369-2.4711l.5052-4.3689-12.7381-5.8025-3.4814,3.5088a8.0964,8.0964,0,0,0-1.2835,1.5428,1.4586,1.4586,0,0,0-.068,1.0239,2.3434,2.3434,0,0,0,.8738,1.0921,19.3307,19.3307,0,0,0,2.7579,1.4064l-2.635,5.7888-16.1786-7.3725,2.635-5.7888a7.5912,7.5912,0,0,0,2.4029.7646,3.1,3.1,0,0,0,1.5428-.273,8.1062,8.1062,0,0,0,1.966-1.5292Zm-11.5366,21.9128,8.3555,3.8091,1.16-13.3661Zm55.2939-4.1914,18.1309,4.4644,6.6489,29.2444,3.932-15.9192a8.819,8.819,0,0,0,.41-2.6077,2.11,2.11,0,0,0-.6007-1.27,4.816,4.816,0,0,0-2.0343-.8328l-2.1708-.5324,1.5154-6.1711,18.4177,4.5464-1.5154,6.1711-2.0479-.5051a5.1176,5.1176,0,0,0-2.2937-.1911,2.0066,2.0066,0,0,0-1.1332.7372,8.4167,8.4167,0,0,0-.901,2.5531l-8.5057,34.487-9.1747-2.2664-8.4511-36.9445-5.6659,22.9777a8.5287,8.5287,0,0,0-.396,2.58,1.97,1.97,0,0,0,.6553,1.0786,5.4335,5.4335,0,0,0,2.0889.86l2.1435.5325-1.5154,6.1711-18.5133-4.56,1.5154-6.1711,1.9114.4778a6.106,6.106,0,0,0,2.2391.2731,2.1454,2.1454,0,0,0,1.2015-.7235,4.598,4.598,0,0,0,.8464-1.9251l6.3076-25.5718a5.2879,5.2879,0,0,0,.2049-2.2253,2.1073,2.1073,0,0,0-.6143-1.2014,3.9415,3.9415,0,0,0-1.7476-.7646l-2.4029-.5871Zm109.2362,16.438,4.3416-.15.5051,1.5292,25.8994-.86.5051-1.57,4.3825-.15,6.2257,15.9056-6.0482,2.3483a46.6259,46.6259,0,0,0-3.0992-5.1335,13.8863,13.8863,0,0,0-4.1368-3.6453,6.453,6.453,0,0,0-3.4268-.9421,1.2911,1.2911,0,0,0-1.0786.4369,3.0924,3.0924,0,0,0-.2457,1.72l.8875,26.3909a15.7378,15.7378,0,0,0,.2593,2.9218,1.9637,1.9637,0,0,0,.5871.942,2.4083,2.4083,0,0,0,1.106.4233,35.3781,35.3781,0,0,0,3.6862-.0272l.2185,6.3486-22.377.7509-.2185-6.3486,1.3517-.0408a9.2045,9.2045,0,0,0,2.8534-.355,1.9533,1.9533,0,0,0,.9147-1.0239,8.7143,8.7143,0,0,0,.2321-2.9763l-.9011-26.978a2.49,2.49,0,0,0-.3139-1.4335,1.5332,1.5332,0,0,0-1.1332-.2593,7.48,7.48,0,0,0-3.7682,1.4063,12.7561,12.7561,0,0,0-3.6317,3.7409,55.1293,55.1293,0,0,0-2.6213,5.2564l-6.0892-1.9387Zm77.0429-5.4748,10.13-1.9114,20.1106,32.3026a8.9834,8.9834,0,0,0,2.58,3.0583,5.6211,5.6211,0,0,0,3.29.0136l1.1742,6.2393-21.353,4.014-1.1742-6.2393,1.2833-.2731a4.9838,4.9838,0,0,0,2.4029-.9147,1.4313,1.4313,0,0,0,.4915-1.2971,9.8421,9.8421,0,0,0-1.0649-2.28l-2.1026-3.8638-13.7484,2.5941-.8192,4.8741a7.9085,7.9085,0,0,0-.1634,2.0069,1.435,1.435,0,0,0,.5325.8738,2.4588,2.4588,0,0,0,1.3517.3823,20.1259,20.1259,0,0,0,3.0719-.4369l1.1742,6.2394-17.4756,3.29-1.1742-6.2393a7.6926,7.6926,0,0,0,2.4029-.751,2.9556,2.9556,0,0,0,1.0921-1.1059,7.7567,7.7567,0,0,0,.7236-2.3756Zm3.1811,24.5615,9.0245-1.6929-6.7445-11.5913Zm77.1248,1.7885a21.63,21.63,0,0,1-14.199-1.6929q-8.0823-3.8775-11.6595-13.1477-3.7682-9.8027.1775-18.4859,3.9865-8.697,14.3491-12.6835,10.2669-3.9456,18.95-.1634,8.7242,3.7681,12.4651,13.5027a25.2994,25.2994,0,0,1,1.7612,11.1816,21.3771,21.3771,0,0,1-3.2631,9.8574,24.0469,24.0469,0,0,1-8.0688,7.6182,5.404,5.404,0,0,0,3.5224,3.3723,7.8487,7.8487,0,0,0,5.0243-.3414,15.0288,15.0288,0,0,0,3.8637-2.2254,14.8035,14.8035,0,0,0,3.1265-3.2494l5.0242,4.0686a28.1651,28.1651,0,0,1-5.4475,5.6523,25.7,25.7,0,0,1-6.5124,3.6043,19.892,19.892,0,0,1-8.5057,1.4746,11.58,11.58,0,0,1-6.7991-2.717,14.4457,14.4457,0,0,1-3.8227-5.6249Zm-8.5194-39.2655a10.054,10.054,0,0,0-6.3622,6.6489q-1.8567,6.0074.9557,13.2842,2.7988,7.277,7.8231,10.226a10.7387,10.7387,0,0,0,15.4276-5.939q1.7477-5.6523-1.0513-12.9019a23.424,23.424,0,0,0-4.7785-8.0006,12.1641,12.1641,0,0,0-5.9389-3.6726A10.011,10.011,0,0,0,1340.7537,1196.5189Zm35.6612-22.063,16.8885-11.1134,3.4951,5.311a12.945,12.945,0,0,0-1.966,1.4471,1.6716,1.6716,0,0,0-.0818,1.9524,11.9213,11.9213,0,0,0,1.5291,1.5564l18.2539,16.5336-4.8331-17.1207-5.5431-4.5873a7.4182,7.4182,0,0,1-.6689-.5461,4.0013,4.0013,0,0,0-2.321-1.1878,4.143,4.143,0,0,0-2.4848.7235l-3.4952-5.311,16.0284-10.5536,3.4952,5.311-1.2971.8464q-1.4064.9285-1.5974,1.5292a1.7115,1.7115,0,0,0,.2047,1.5564,13.0759,13.0759,0,0,0,1.8022,1.8432l16.1786,14.7041-6.9629-20.766a16.3283,16.3283,0,0,0-.9831-2.6214,1.3592,1.3592,0,0,0-1.1468-.6689,4.113,4.113,0,0,0-2.1025.8738l-1.4063.9285-3.4952-5.311,14.5812-9.5979,3.4952,5.311a6.69,6.69,0,0,0-2.0343,1.8158,3.3153,3.3153,0,0,0-.4915,1.7066,14.9021,14.9021,0,0,0,.751,3.4814l10.5809,34.5826-8.3009,5.4611-14.5676-12.4377,5.3383,18.5269-8.6423,5.6795-27.9473-23.7832a11.01,11.01,0,0,0-2.5941-1.8432,3.1559,3.1559,0,0,0-1.7339-.1225,6.8139,6.8139,0,0,0-2.4029,1.1879Zm79.0634-58.7208,7.6183-6.9356,34.0775,16.9295a8.9622,8.9622,0,0,0,3.8091,1.2424,5.5439,5.5439,0,0,0,2.8125-1.7065l4.2733,4.6966L1492,1144.5973l-4.2734-4.6966.9557-.9146a5.0631,5.0631,0,0,0,1.57-2.0479,1.4285,1.4285,0,0,0-.2593-1.3654,9.92,9.92,0,0,0-2.1026-1.3789l-3.8091-2.1844-10.3488,9.4205,1.8568,4.5873a8.33,8.33,0,0,0,.9146,1.7885,1.4138,1.4138,0,0,0,.9147.4642,2.3874,2.3874,0,0,0,1.3517-.3822,18.7485,18.7485,0,0,0,2.3756-1.9933l4.2733,4.6966-13.1477,11.9735-4.2733-4.6966a7.5485,7.5485,0,0,0,1.652-1.8977,3.0632,3.0632,0,0,0,.355-1.5154,8.0059,8.0059,0,0,0-.6279-2.403Zm15.6052,19.2369,6.7855-6.1847-11.8233-6.335Z" transform="translate(-57)" style="fill:#010101;isolation:isolate;opacity:0.9980000257492065"/><path d="M883.0293,327.9947h633.9551l.0282,156.8163H1375.2544c-32.1523-85.2482-129.6335-13.83-175.2476-60.6459-45.6141,46.8019-143.0952-24.6023-175.2476,60.6459H883.0156l.0275-156.8163Z" transform="translate(-57)" style="fill:#fff;isolation:isolate;opacity:0.9950000047683716"/><path d="M919.1409,358.9183v-9.3249h36.3985q8.3554,0,13.134,2.0753a16.1181,16.1181,0,0,1,7.3452,5.898,14.77,14.77,0,0,1,2.5668,8.41,15.0075,15.0075,0,0,1-1.379,6.3349,15.8412,15.8412,0,0,1-3.9047,5.311,20.1242,20.1242,0,0,1-6.7035,3.7682,27.3021,27.3021,0,0,1,6.881,2.6622A14.72,14.72,0,0,1,978.94,389.76a16.4223,16.4223,0,0,1,2.0206,8.1235,17.3455,17.3455,0,0,1-3.0719,9.9119,19.3028,19.3028,0,0,1-8.7242,6.8674q-5.5977,2.3619-16.438,2.3619h-33.6V407.7h2.5257a8.7272,8.7272,0,0,0,3.4-.4368,2.7113,2.7113,0,0,0,1.2832-1.3107,12.196,12.196,0,0,0,.3687-3.8228v-37.6a11.9586,11.9586,0,0,0-.3687-3.8228,2.7884,2.7884,0,0,0-1.2832-1.3106,8.04,8.04,0,0,0-3.4-.4779Zm23.4556,17.9808h7.0176a25.1134,25.1134,0,0,0,8.1234-.9694,8.0347,8.0347,0,0,0,4-2.8944,8.5413,8.5413,0,0,0,.0546-9.0928,6.6489,6.6489,0,0,0-3.6316-2.6623q-2.3894-.8191-8.5331-.8191H942.61Zm0,9.9119v14.5949a18.57,18.57,0,0,0,.2321,3.6316,1.6745,1.6745,0,0,0,.7372.9694,9.6877,9.6877,0,0,0,2.8944.2458h4.683a24.51,24.51,0,0,0,6.7445-.7783,8.9059,8.9059,0,0,0,4.5873-3.3312,9.7925,9.7925,0,0,0,1.8841-6.0482,9.2228,9.2228,0,0,0-1.3379-5.0789,8.2076,8.2076,0,0,0-4-3.14,23.2139,23.2139,0,0,0-8.1234-1.065Zm99.3516-37.2176h14.3628l19.2368,52.0582q1.5564,4.1505,2.7578,5.12,1.2425.9694,4.5055.9148v9.3249h-30.2956v-9.3249l1.83-.0544a6.66,6.66,0,0,0,3.536-.6826,2.0992,2.0992,0,0,0,1.01-1.7339,15.22,15.22,0,0,0-.8739-3.5771l-1.884-6.1437h-19.51l-2.3892,6.8127a11.7977,11.7977,0,0,0-.7372,2.8535,2.187,2.187,0,0,0,.5052,1.4062,3.25,3.25,0,0,0,1.7476.9148,26.83,26.83,0,0,0,4.3142.1911v9.3246h-24.7936v-9.3249a10.2336,10.2336,0,0,0,3.4951-.4368,4.1539,4.1539,0,0,0,1.7885-1.3107,11.7035,11.7035,0,0,0,1.611-3.2357Zm-1.98,36.3029h12.8064l-6.2394-18.5542Zm78.4492-36.3029H1144.44l18.7726,39.3475v-24.07a13.1676,13.1676,0,0,0-.3277-3.8637,3.02,3.02,0,0,0-1.2424-1.5974,6.4655,6.4655,0,0,0-3.031-.4778h-3.1263v-9.3249h26.4455v9.3249h-2.9354a6.9574,6.9574,0,0,0-3.1674.5324,2.9079,2.9079,0,0,0-1.2835,1.4472,13.1246,13.1246,0,0,0-.3686,3.9593v52.1538h-13.1749l-23.7832-49.6826v34.7464a13.3833,13.3833,0,0,0,.3277,3.8228,2.8263,2.8263,0,0,0,1.2425,1.3107,7.2992,7.2992,0,0,0,3.1265.4778h3.0718v9.3249h-26.5685V407.7h2.7579a8.5435,8.5435,0,0,0,3.1265-.3823,3.0934,3.0934,0,0,0,1.3789-1.4472,7.0779,7.0779,0,0,0,.5051-3.0446v-38.692a8.2823,8.2823,0,0,0-.4642-3.2357,3.0222,3.0222,0,0,0-1.2425-1.5018,5.2819,5.2819,0,0,0-2.6213-.4779h-3.44Zm105.9595-2.28h6.0618l.6418,2.2664h36.1254l.7781-2.2664h6.1029l7.9459,23.633-8.5331,3.14a68.7059,68.7059,0,0,0-4.0821-7.6865,19.917,19.917,0,0,0-5.5977-5.5567,8.6753,8.6753,0,0,0-4.7239-1.5428,1.7461,1.7461,0,0,0-1.5154.5734,4.8111,4.8111,0,0,0-.41,2.5121v38.76a22.9807,22.9807,0,0,0,.2321,4.3006,2.9848,2.9848,0,0,0,.7783,1.4063,3.2984,3.2984,0,0,0,1.5154.6826,49.15,49.15,0,0,0,5.1471.15v9.3248h-31.21v-9.3248h1.8842a12.6381,12.6381,0,0,0,4-.3823,2.8968,2.8968,0,0,0,1.3379-1.4472,13.0117,13.0117,0,0,0,.4642-4.3553V361.8673a3.83,3.83,0,0,0-.3686-2.13,2.0345,2.0345,0,0,0-1.5564-.4369,10.1072,10.1072,0,0,0-5.3246,1.8841,18.1983,18.1983,0,0,0-5.229,5.3109,84.4517,84.4517,0,0,0-3.9047,7.591l-8.3965-3.14Zm93.3307,2.28h53.4372l7.3042,21.3121-8.3146,3.14a28.954,28.954,0,0,0-4.956-8.41,13.289,13.289,0,0,0-6.2393-4.2051,26.6578,26.6578,0,0,0-7.9459-1.0649h-9.7755v16.82h3.2085a14.3639,14.3639,0,0,0,4.86-.5325,3.5187,3.5187,0,0,0,1.8295-1.7339,13.44,13.44,0,0,0,.546-4.7375v-2.5667h8.1781v28.5207h-8.178v-2.8944a10.0832,10.0832,0,0,0-.6827-4.3006,3.5418,3.5418,0,0,0-1.7886-1.8432,16.5767,16.5767,0,0,0-5.0924-.4778h-2.8944v15.4686a10.5956,10.5956,0,0,0,.2322,2.99,1.6144,1.6144,0,0,0,.8738.8192,9.1243,9.1243,0,0,0,2.8944.2867h5.3656a25.5539,25.5539,0,0,0,10.144-1.7885,19.7014,19.7014,0,0,0,7.3452-5.8434,28.8619,28.8619,0,0,0,4.9969-9.6116l8.3966,3.0446-8.3966,25.0392h-55.3622V407.7h1.611a12.6987,12.6987,0,0,0,4.3143-.4779,2.8152,2.8152,0,0,0,1.5564-1.6929,19.9442,19.9442,0,0,0,.2322-4.11V364.6661a11.7591,11.7591,0,0,0-.41-3.9183,2.5567,2.5567,0,0,0-1.1879-1.3516,7.3583,7.3583,0,0,0-3.263-.4779h-2.84Zm99.652,0h26.0223l18.7726,39.3475v-24.07a13.1727,13.1727,0,0,0-.3276-3.8637,3.0232,3.0232,0,0,0-1.2424-1.5974,6.4656,6.4656,0,0,0-3.0309-.4778h-3.1265v-9.3249h26.4455v9.3249h-2.9354a6.9581,6.9581,0,0,0-3.1675.5324,2.9082,2.9082,0,0,0-1.2834,1.4472,13.1246,13.1246,0,0,0-.3686,3.9593v52.1538h-13.1751L1436.16,367.3421v34.7464a13.3833,13.3833,0,0,0,.3277,3.8228,2.8261,2.8261,0,0,0,1.2424,1.3107,7.2992,7.2992,0,0,0,3.1265.4778h3.072v9.3249H1417.346V407.7h2.7579a8.5427,8.5427,0,0,0,3.1265-.3823,3.0935,3.0935,0,0,0,1.379-1.4472,7.0781,7.0781,0,0,0,.505-3.0446v-38.692a8.28,8.28,0,0,0-.4642-3.2357,3.0226,3.0226,0,0,0-1.2424-1.5018,5.2827,5.2827,0,0,0-2.6213-.4779h-3.4406Z" transform="translate(-57)" style="fill:#e5252b;isolation:isolate;opacity:0.9980000257492065"/><path d="M868.448,313.4135l-.041,171.3838h-.15l.1228,431.9889c0,136.3507,152.543,282.3813,331.6271,282.3813S1531.62,1053.1369,1531.62,916.7862l.1229-431.9889h-.15l-.0282-171.3839Zm14.5949,14.5675H1516.998l.0283,156.8163h-141.772c-32.1523-85.2482-129.6334-13.83-175.2475-60.6458-45.6141,46.8019-143.0952-24.6024-175.2476,60.6458H883.0156Zm316.9776,115.1479c12.6015,8.41,27.0735,11.9872,40.9857,13.0384,18.0081,1.3653,35.907-.6553,52.2767-1.297s30.828.1639,41.7367,4.7375,19.4826,12.0691,26.4045,30.4322a14.82,14.82,0,0,0,13.8576,9.5843h141.689l-.1222,417.1893c0,62.6528-35.6612,129.9066-93.6584,181.2275s-137.634,86.3405-223.1553,86.3405-165.1582-35.02-223.1554-86.3405S883.234,979.48,883.22,916.8409l-.15-417.23h141.689a14.8009,14.8009,0,0,0,13.8577-9.5843c6.9219-18.3631,15.4959-25.8585,26.4045-30.4322s25.3669-5.3792,41.7367-4.7375,34.2686,2.6623,52.2766,1.297c13.9122-1.0512,28.3842-4.6283,40.9858-13.0384Z" transform="translate(-57)" style="fill:#fbea26;stroke:#968f1d;stroke-linejoin:round;stroke-width:1.7404191172223022px;isolation:isolate;opacity:0.9950000047683716"/><path d="M1200.0068,443.1289c12.6015,8.41,27.0735,11.9872,40.9858,13.0384,18.008,1.3653,35.9069-.6553,52.2766-1.297s30.8281.1639,41.7366,4.7375,19.4826,12.0691,26.4046,30.4322a14.82,14.82,0,0,0,13.8577,9.5843h141.689l-.1229,417.1893c0,62.6528-35.6611,129.9066-93.6583,181.2275s-137.6341,86.3405-223.1554,86.3405-165.1582-35.02-223.1553-86.3405S883.22,979.48,883.2067,916.8409l-.1364-417.23h141.6889a14.8006,14.8006,0,0,0,13.8576-9.5843c6.922-18.3631,15.496-25.8585,26.4046-30.4322s25.367-5.3792,41.7367-4.7375,34.2686,2.6623,52.2766,1.297c13.9123-1.0512,28.3842-4.6283,40.9858-13.0384Z" transform="translate(-57)" style="fill:#059758;stroke:#968f1d;stroke-linejoin:round;stroke-width:1.7404191172223022px;isolation:isolate;opacity:0.9950000047683716"/><path d="M1200.0068,458.4474l-4.97,15.2911h-16.083l13.0112,9.4478-4.97,15.2911,12.9974-9.4477,12.9975,9.4477-4.97-15.2911,12.9975-9.4478h-16.0694Z" transform="translate(-57)" style="fill:#fbea26;isolation:isolate;opacity:0.9950000047683716"/><path d="M1200.0068,458.4474v22.1175l-4.97-6.84h-16.083l21.039,6.84-8.0415,2.6077-4.97,15.2912,12.9975-17.8989v8.4511l12.9974,9.4478L1199.98,480.5649l8.0415,2.6077,12.9975-9.4477-21.039,6.84,4.97-6.84Z" transform="translate(-57)" style="fill:#e8db00;isolation:isolate;opacity:0.9950000047683716"/><path d="M982.25,732.0743c1.6354-24-3.013-39.6977-24.324-45.77C957.1564,704.0354,959.7114,718.4946,982.25,732.0743Z" transform="translate(-57)" style="fill:#ffe108;stroke:#b19d10;stroke-width:0.2645829916000366px"/><path d="M972.0345,710.1135c-6.5084-13.0332-2.3237-18.3975,2.6586-13.8721,0,0-9.2632-7.7988-16.7672-9.9368-.2968,6.8387-.099,13.1907,1.5491,19.1933.1895-6.23,4.5569-7.142,12.5595,4.6156Z" transform="translate(-57)" style="fill:#14130d"/><path d="M962.3335,704.6379c10.7735,2.8037,12.069,13.3739,16.484,21.3879C972.5893,719.48,964.2058,714.65,962.3335,704.6379Z" transform="translate(-57)" style="fill:#ffed69"/><path d="M981.535,731.32l11.7463,15.0869" transform="translate(-57)" style="fill:none;stroke:#b19d10;stroke-miterlimit:15.118106977122915"/><path d="M997.2163,746.9994c18.8955-14.3832,28.0382-28.5588,20.5971-50.3109C1004.1,707.6806,994.7078,719.2979,997.2163,746.9994Z" transform="translate(-57)" style="fill:#ffe108;stroke:#b19d10;stroke-width:0.2645829916000366px"/><path d="M1007.9178,724.0732c6.1-13.9778,12.4723-14.0085,11.8858-6.8852,0,0,.63-12.84-1.99-20.5-5.2892,4.24-9.9355,8.5722-13.5042,13.8848,4.7727-3.93,7.9129-.8867,3.6086,13.5Z" transform="translate(-57)" style="fill:#14130d"/><path d="M1006.5614,712.3923c3.961,10.8221-3.2272,18.8375-6.7459,27.7768C1001.2142,730.6816,1000.1158,720.5224,1006.5614,712.3923Z" transform="translate(-57)" style="fill:#ffed69"/><path d="M1035.7907,825.8667c14.9767-21.1659,19.8517-38.896,4.9443-59.0134C1030.048,782.7888,1024.0717,797.9465,1035.7907,825.8667Z" transform="translate(-57)" style="fill:#ffe108;stroke:#b19d10;stroke-miterlimit:15.118106842041016"/><path d="M1039.4157,798.5405c1.7676-16.52,8.402-18.6562,10.1312-11.07,0,0-3.5627-13.5335-8.8119-20.6172-4.122,6.1463-7.5431,12.1768-9.5185,18.8686,3.6854-5.654,7.96-3.533,8.1992,12.8187Z" transform="translate(-57)" style="fill:#14130d"/><path d="M1034.1627,786.866c7.6867,9.9232,2.8252,20.6151,2.0939,31.054C1034.5972,807.6121,1030.1133,797.4316,1034.1627,786.866Z" transform="translate(-57)" style="fill:#ffed69"/><path d="M1023.5533,823.19c-9.0481-24.2987-20.9493-38.316-45.9688-37.335C984.7283,803.6629,993.8838,817.1406,1023.5533,823.19Z" transform="translate(-57)" style="fill:#ffe108;stroke:#b19d10;stroke-miterlimit:15.118106615375819"/><path d="M1003.02,804.7988c-12.6525-10.7685-10.679-17.4529-3.4373-14.6073,0,0-13.1882-4.6819-21.998-4.3364,2.7553,6.8684,5.81,13.0927,10.2253,18.4951-2.5946-6.23,1.566-8.5667,15.21.4486Z" transform="translate(-57)" style="fill:#14130d"/><path d="M990.4151,802.5607c12.5291-.7593,18.6232,9.2812,26.8354,15.7671C1007.8,813.8909,996.8625,811.8592,990.4151,802.5607Z" transform="translate(-57)" style="fill:#ffed69"/><path d="M1015.8537,792.4688c15.0677-19.1209,19.9724-35.1379,4.9744-53.3115C1010.076,753.5531,1004.0634,767.2462,1015.8537,792.4688Z" transform="translate(-57)" style="fill:#ffe108;stroke:#b19d10;stroke-width:0.2645829916000366px"/><path d="M1019.5007,767.7829c1.7784-14.9242,8.4531-16.8537,10.1928-10,0,0-3.5843-12.226-8.8654-18.6252-4.1471,5.5524-7.5891,11-9.5765,17.0455,3.7078-5.1078,8.0082-3.1917,8.2491,11.58Z" transform="translate(-57)" style="fill:#010101"/><path d="M1014.2158,757.2363c7.7334,8.9645,2.8424,18.6233,2.1065,28.0536C1014.6529,775.9779,1010.1417,766.7811,1014.2158,757.2363Z" transform="translate(-57)" style="fill:#ffed69"/><path d="M994.3,774.1012c-4.623-23.6069-13.1707-37.57-35.327-37.928C962.8125,753.5005,969.0178,766.8081,994.3,774.1012Z" transform="translate(-57)" style="fill:#ffe108;stroke:#b19d10;stroke-width:0.2645829916000366px"/><path d="M978.756,755.5268c-9.6558-10.9082-7-17.1719-1.017-14.088,0,0-10.9641-5.14-18.7657-5.2656,1.4807,6.6831,3.3135,12.7681,6.4571,18.1409-1.4271-6.0672,2.5561-8.0771,13.3257,1.2127Z" transform="translate(-57)" style="fill:#14130d"/><path d="M967.9694,752.7445c11.1322-.076,15.1155,9.8,21.4518,16.4009C981.7128,764.432,972.3657,761.9324,967.9694,752.7445Z" transform="translate(-57)" style="fill:#ffed69"/><path d="M993.4146,773.557l11.4358,8.084" transform="translate(-57)" style="fill:none;stroke:#b19d10;stroke-miterlimit:15.118106842041016"/><path d="M983.0045,684.1942c6.8625-23.0556,5.7725-39.3911-13.6863-49.9921C964.6762,651.3318,963.9957,665.9992,983.0045,684.1942Z" transform="translate(-57)" style="fill:#ffe108;stroke:#b19d10;stroke-width:0.2645829916000366px"/><path d="M977.8577,660.5269c-3.49-14.1438,1.77-18.459,5.6382-12.95,0,0-7.3259-9.6416-14.1777-13.3743-1.79,6.6069-2.9915,12.8474-2.7009,19.0654,1.5521-6.0364,6.0132-5.9678,11.24,7.2594Z" transform="translate(-57)" style="fill:#14130d"/><path d="M969.5949,653.0558c9.8955,5.1,8.84,15.6966,11.3883,24.4841C976.3433,669.7871,969.2242,663.2346,969.5949,653.0558Z" transform="translate(-57)" style="fill:#ffed69"/><path d="M982.4726,683.3011,988.85,695.77" transform="translate(-57)" style="fill:none;stroke:#b19d10;stroke-miterlimit:15.118107158426854"/><path d="M993.8484,640.3341c11.9765-20.8619,14.6691-37.0108-1.8333-51.7993C983.5614,604.14,979.5289,618.2583,993.8484,640.3341Z" transform="translate(-57)" style="fill:#ffe108;stroke:#b19d10;stroke-width:0.2645829916000366px"/><path d="M994.2774,616.1175c-.1463-14.5672,5.9645-17.5583,8.463-11.3085,0,0-4.9145-11.0669-10.7253-16.2741-3.2606,6.0187-5.8634,11.8163-7.0093,17.9347,2.8976-5.5183,7.2236-4.4265,9.2716,9.6479Z" transform="translate(-57)" style="fill:#14130d"/><path d="M987.9523,606.9477c8.4591,7.237,4.9965,17.3077,5.4579,26.4458C990.6758,624.782,985.2528,616.769,987.9523,606.9477Z" transform="translate(-57)" style="fill:#ffed69"/><path d="M993.536,639.3427l3.3415,13.6" transform="translate(-57)" style="fill:none;stroke:#b19d10;stroke-miterlimit:15.118107246205522"/><path d="M1012.1282,603.31c15.5137-18.3842,21.05-33.7914,7.4583-51.2923C1008.4788,565.8592,1001.9868,579.0292,1012.1282,603.31Z" transform="translate(-57)" style="fill:#ffe108;stroke:#b19d10;stroke-width:0.2645829916000366px"/><path d="M1016.88,579.56c2.4608-14.3586,9.0079-16.2089,10.3487-9.613,0,0-2.8565-11.7673-7.6426-17.93-4.2842,5.3387-7.8817,10.5774-10.1032,16.3923,3.8376-4.9112,7.8987-3.0635,7.3971,11.15Z" transform="translate(-57)" style="fill:#14130d"/><path d="M1012.2969,569.4071c7.0286,8.6329,1.8212,17.9222.6412,26.9955C1011.7875,587.4409,1007.8847,578.5874,1012.2969,569.4071Z" transform="translate(-57)" style="fill:#ffed69"/><path d="M1011.9981,602.2785l.8559,13.9783" transform="translate(-57)" style="fill:none;stroke:#b19d10;stroke-miterlimit:15.118106929374534"/><path d="M1037.5736,569.5383c19.427-14.1862,28.4557-27.8434,19.3959-48.0658C1042.8992,532.2891,1033.4723,543.5466,1037.5736,569.5383Z" transform="translate(-57)" style="fill:#ffe108;stroke:#b19d10;stroke-width:0.2645829916000366px"/><path d="M1047.8163,547.59c5.7919-13.367,12.5909-13.6138,12.3312-6.888,0,0,.0122-12.109-3.178-19.23-5.4269,4.1719-10.163,8.4094-13.6986,13.5327,4.8917-3.8625,8.3995-1.1054,4.5453,12.5851Z" transform="translate(-57)" style="fill:#14130d"/><path d="M1045.7682,536.6405c4.7837,10.0521-2.476,17.8435-5.7716,26.3791C1041.0016,554.04,1039.307,544.5144,1045.7682,536.6405Z" transform="translate(-57)" style="fill:#ffed69"/><path d="M1037.6915,568.5056l-2.48,13.7833" transform="translate(-57)" style="fill:none;stroke:#b19d10;stroke-miterlimit:15.118107086325987"/><path d="M1070.8408,539.3762c18.4506-8.8946,28.1736-19.8847,23.931-41.7856C1081.3206,504.5587,1071.6566,513.12,1070.8408,539.3762Z" transform="translate(-57)" style="fill:#ffe108;stroke:#b19d10;stroke-width:0.2645829916000366px"/><path d="M1082.92,520.6436c6.986-11.5206,12.6765-10.0542,11.3675-3.5915,0,0,1.9782-11.75.4842-19.4615-5.1881,2.6875-9.8128,5.6121-13.5837,9.6975,4.693-2.5215,7.16,1.0347,1.732,13.3555Z" transform="translate(-57)" style="fill:#14130d"/><path d="M1082.9976,509.5019c2.3419,10.9569-4.9576,16.6976-9.0837,24.1552C1076.2084,525.1942,1076.3483,515.5231,1082.9976,509.5019Z" transform="translate(-57)" style="fill:#ffed69"/><path d="M1071.1066,538.4034l-4.3008,12.7558" transform="translate(-57)" style="fill:none;stroke:#b19d10;stroke-width:0.2645829916000366px"/><path d="M990.3643,702.0806c23.1744-6.611,37.0958-16.854,38.26-41.0137C1011.5979,666.4053,998.4016,674.0528,990.3643,702.0806Z" transform="translate(-57)" style="fill:#ffe108;stroke:#b19d10;stroke-width:0.2645829916000366px"/><path d="M1009.0366,683.9084c10.9851-11.2462,16.9911-8.7708,13.7658-2.0478,0,0,5.4119-12.2866,5.8218-20.7937-6.567,2.059-12.5642,4.4615-17.9154,8.2443,5.9648-1.9593,7.7768,2.2457-1.6722,14.5972Z" transform="translate(-57)" style="fill:#14130d"/><path d="M1012.1448,671.9725c-.3356,12.1216-10.1064,17.12-16.7717,24.4626C1000.25,687.7235,1003.03,677.3745,1012.1448,671.9725Z" transform="translate(-57)" style="fill:#ffed69"/><path d="M994.76,656.6153c24.0963-.3534,40.2034-6.6214,47.6136-29.646C1024.5445,627.6936,1009.813,631.6442,994.76,656.6153Z" transform="translate(-57)" style="fill:#ffe108;stroke:#b19d10;stroke-width:0.2645829916000366px"/><path d="M1017.5173,643.9275c13.5329-8.0006,18.688-4.0477,13.8244,1.6045,0,0,8.4225-10.4553,11.0317-18.5627-6.8765.2793-13.2923,1.0387-19.4435,3.2989,6.2692-.34,6.9247,4.1918-5.4127,13.6593Z" transform="translate(-57)" style="fill:#14130d"/><path d="M1023.6241,633.2114c-3.478,11.6168-14.2128,13.9-22.559,19.2561C1008.0405,645.325,1013.4173,636.0557,1023.6241,633.2114Z" transform="translate(-57)" style="fill:#ffed69"/><path d="M1011.4623,619.6715c23.912,2.9961,40.7334-.9743,51.2692-22.7469C1044.9748,595.1661,1029.8374,597.0327,1011.4623,619.6715Z" transform="translate(-57)" style="fill:#ffe108;stroke:#b19d10;stroke-width:0.2645829916000366px"/><path d="M1035.7612,610.2668c14.5129-6.0438,19.0691-1.4133,13.4677,3.5087,0,0,9.7928-9.1843,13.5026-16.8508-6.8487-.6783-13.3077-.8173-19.7132.5668,6.2556.534,6.2755,5.1128-7.2571,12.7754Z" transform="translate(-57)" style="fill:#14130d"/><path d="M1043.297,600.5026c-5.0575,11.0213-16.0054,11.7922-25.0145,15.9369C1026.1823,610.3348,1032.7941,601.902,1043.297,600.5026Z" transform="translate(-57)" style="fill:#ffed69"/><path d="M1042.0307,585.53c21.4492,6.7278,36.7409,5.9737,46.9618-11.9081C1073.0491,569.047,1059.3452,568.1852,1042.0307,585.53Z" transform="translate(-57)" style="fill:#ffe108;stroke:#b19d10;stroke-width:0.2645829916000366px"/><path d="M1064.2423,581.1286c13.28-3.0142,17.2318,1.9324,12.02,5.4332,0,0,9.1315-6.6433,12.73-12.94-6.1493-1.7646-11.9655-2.9767-17.7842-2.805,5.62,1.5346,5.4849,5.6713-6.9661,10.3116Z" transform="translate(-57)" style="fill:#14130d"/><path d="M1071.3591,573.5821c-4.9254,9.0982-14.8172,7.9521-23.0743,10.1779C1055.6076,579.5783,1061.8473,573.0782,1071.3591,573.5821Z" transform="translate(-57)" style="fill:#ffed69"/><path d="M1042.8742,585.0509l-6.5967.2316" transform="translate(-57)" style="fill:none;stroke:#b19d10;stroke-width:0.2645829916000366px"/><path d="M1068.7453,556.5523c21.3107,8.4112,37.0227,9.0149,49.1494-7.4659C1102.0143,543.2481,1088.0775,541.2131,1068.7453,556.5523Z" transform="translate(-57)" style="fill:#ffe108;stroke:#b19d10;stroke-width:0.2645829916000366px"/><path d="M1091.8764,554.2168c13.866-1.7679,17.4454,3.3835,11.7868,6.3294,0,0,9.9615-5.6566,14.2314-11.46-6.1249-2.2519-11.9608-3.9379-17.9286-4.2795,5.6047,1.9821,5.08,5.9895-8.09,9.41Z" transform="translate(-57)" style="fill:#14130d"/><path d="M1099.8616,547.5066c-5.8887,8.4094-15.8995,6.4314-24.5537,7.8724C1083.1892,551.956,1090.1794,546.1858,1099.8616,547.5066Z" transform="translate(-57)" style="fill:#ffed69"/><path d="M1069.6529,556.16l-6.7693-.3515" transform="translate(-57)" style="fill:none;stroke:#b19d10;stroke-width:0.2645829916000366px"/><path d="M1093.4326,537.083c23.482,4.1812,39.6534,1.6338,48.6793-17.377C1124.7012,517.0222,1110.0512,517.7736,1093.4326,537.083Z" transform="translate(-57)" style="fill:#ffe108;stroke:#b19d10;stroke-width:0.2645829916000366px"/><path d="M1116.5828,530.09c13.8023-4.5621,18.5086-.0995,13.33,4,0,0,9.0214-7.6893,12.2-14.3834-6.7152-1.0352-13.02-1.5592-19.185-.7046,6.1288.8682,6.41,5.0042-6.3442,11.0885Z" transform="translate(-57)" style="fill:#14130d"/><path d="M1123.3707,521.7376c-4.3,9.64-14.9286,9.6609-23.4742,12.8477C1107.2486,529.56,1113.212,522.3531,1123.3707,521.7376Z" transform="translate(-57)" style="fill:#ffed69"/><path d="M1094.7856,530.5543C1015.8925,574.19,988.39,644.4978,988.4706,707.25c.0423,31.3759,6.902,60.896,17.609,84.5s25.1812,41.3933,41.1333,49.007l2.4131-5.0607c-14.0383-6.7-28.0926-23.4273-38.4444-46.2491s-17.0733-51.6365-17.1125-82.1977c-.0783-61.1224,26.2808-129.1132,103.4331-171.7864Z" transform="translate(-57)" style="fill:#89272a;stroke:#5c1b1d;stroke-miterlimit:15.118106842041016;stroke-width:0.5000011568069738px"/><path d="M1255.0718,546.3857c-11.4971-6.7466-9.1814-11.23-8.9217-16.05-3.4729-3.8567-3.2325-8.0493.1824-12.529-2.87-9.6272,7.9587-13.4432,8.2665-12.788.0853-5,4.9038-8.0443,7.7744-6.2445,6.3948-8.9129,15.7128-.1589,15.756,2.3495,6.7355,22.0949-.2629,37.5164-23.0575,45.2623Z" transform="translate(-57)" style="fill:#fff;stroke:#dcdcdc;stroke-width:0.2645829916000366px"/><path d="M1255.0718,546.3857c-11.4971-6.7466-3.4736-9.2607-3.2139-14.0809-3.4729-3.8568-2.2112-10.3823,1.2037-14.8619-2.87-9.6272,5.7894-9.22,6.0972-8.565.0853-5,4.2238-9.15,7.0944-7.35,6.3948-8.913,11.833-2.9128,11.8761-.4046,6.7356,22.0949-.2628,37.5164-23.0575,45.2624Z" transform="translate(-57)" style="fill:#dcdcdc"/><path d="M1286.0125,537.1491l11.8778,11.0774,2.0477-2.9884L1287.6522,534.79c-4.6655-8.38-.0446-28.2162-9.5229-33.6662-1.5776,3.9617-4.9751,7.2388-3.7708,12.2471-3.5915-2.696-6.7863-2.4954-9.94-1.9925a19.4253,19.4253,0,0,0,3.9274,10.6437,14.8964,14.8964,0,0,0-13.1535,1.1583c2.7558,4.0611,5.3434,8.7689,8.755,10.3078-4.82,2.6231-6.53,8.0472-8.8758,12.8978C1264.7688,548.1155,1278.9058,533.7264,1286.0125,537.1491Z" transform="translate(-57)" style="fill:#9e282c;stroke:#7a1e22;stroke-width:0.2645829916000366px"/><path d="M1263.701,540.0742c17.7751-.5008,21.51-16.5906,16.1834-31.7136-1.659,3.6775-4.7965,6.3087-4.08,11.6668-1.4653-2.4578-4.5065-3.1265-7.1911-4.2.5754,3.9537,1.7022,7.6862,4.3759,10.7984-3.41-3.0893-7.2113-1.7658-10.98-.8117,2.0944,2.6568,3.4752,6.5635,7.2271,6.3167-2.441,1.3015-4.201,4.1416-5.5351,7.9435Z" transform="translate(-57)" style="fill:#b33031"/><path d="M1289.2985,558.2662c-10.161-8.6287-7.1068-12.6454-6.02-17.3487-2.7556-4.398-1.7956-8.4862,2.3407-12.31-1.166-9.9779,10.1582-11.869,10.3484-11.17.9465-4.91,6.2179-7.0779,8.735-4.81,7.8363-7.6763,15.5048,2.5537,15.1146,5.032,2.8235,22.9255-6.73,36.9087-30.5192,40.6068Z" transform="translate(-57)" style="fill:#fff;stroke:#dcdcdc;stroke-width:0.2645829916000366px"/><path d="M1289.2985,558.2662c-10.161-8.6287-1.8242-9.7211-.7369-14.4243-2.7556-4.398-.3873-10.6081,3.7491-14.4315-1.166-9.9779,7.293-8.0835,7.4832-7.385.9465-4.91,5.7387-8.2842,8.2558-6.0161,7.8363-7.6764,12.1581-.8281,11.7679,1.65,2.8236,22.9255-6.73,36.9087-30.5191,40.6068Z" transform="translate(-57)" style="fill:#dcdcdc"/><path d="M1321.3686,554.5049l9.7891,12.96,2.5324-2.59-10.2994-12.4109c-3.15-9.06,4.8231-27.801-3.5731-34.8043-2.2374,3.63-6.1492,6.2723-5.8268,11.4131-3.0726-3.275-6.2541-3.6285-9.4471-3.677a19.4253,19.4253,0,0,0,2.0326,11.1616,14.8967,14.8967,0,0,0-13.1561-1.128c2.014,4.4756,3.7507,9.5592,6.8458,11.6635-5.2,1.7524-7.82,6.8-10.9675,11.1736C1298.5517,561.6426,1314.9588,549.9076,1321.3686,554.5049Z" transform="translate(-57)" style="fill:#9e282c;stroke:#7a1e22;stroke-width:0.2645829916000366px"/><path d="M1298.8871,553.5377c17.595,2.5727,24.049-12.6318,21.4109-28.4469-2.2684,3.3362-5.8127,5.3868-6.0316,10.7882-1.0194-2.6737-3.9-3.857-6.3588-5.3776-.1152,3.9937.3509,7.8646,2.4477,11.3913-2.826-3.6311-6.7986-2.9831-10.6752-2.6934,1.6047,2.9783,2.291,7.0646,6.0292,7.4687-2.6289.8609-4.8524,3.3548-6.8223,6.87Z" transform="translate(-57)" style="fill:#b33031"/><path d="M1318.6613,585.7475c-11.2863-9.6441-7.4651-13.6793-5.8925-18.5495-2.9273-4.7741-1.543-9.0065,3.5272-12.7759-.7123-10.5345,12.6122-11.8574,12.7886-11.1136,1.4219-5.0956,7.708-7.0617,10.4954-4.5358,9.6335-7.595,17.91,3.5835,17.2944,6.16,1.8049,24.213-10.2395,38.3235-38.213,40.8145Z" transform="translate(-57)" style="fill:#fff;stroke:#dcdcdc;stroke-width:0.2645829916000366px"/><path d="M1318.6613,585.7475c-11.2863-9.6441-1.4962-10.3036.0763-15.1736-2.9273-4.7741.2365-11.15,5.3067-14.9195-.7123-10.5345,9.0265-8.0537,9.2029-7.31,1.4219-5.0956,7.2276-8.355,10.015-5.829,9.6335-7.595,14.2277-.1592,13.6122,2.4175,1.8049,24.2129-10.24,38.3234-38.2131,40.8144Z" transform="translate(-57)" style="fill:#dcdcdc"/><path d="M1356.2931,583.6733l10.5717,14.1661,3.12-2.57-11.2024-13.62c-3.0848-9.6871,7.4257-28.881-1.9085-36.7171-2.8437,3.6775-7.5756,6.2206-7.5331,11.632-3.37-3.6146-7.0559-4.1711-10.7751-4.4084a18.56,18.56,0,0,0,1.6458,11.8268,19.0322,19.0322,0,0,0-15.2644-1.9508c2.0577,4.8122,3.7527,10.2461,7.2244,12.6341-6.1762,1.5347-9.5573,6.6769-13.5106,11.0807C1329.23,589.8292,1349.1186,578.477,1356.2931,583.6733Z" transform="translate(-57)" style="fill:#9e282c;stroke:#7a1e22;stroke-width:0.2645829916000366px"/><path d="M1330.1464,581.347c20.3457,3.7253,28.856-11.8471,26.8061-28.5905-2.8609,3.3672-7.1259,5.3113-7.7314,10.9644-1.015-2.8641-4.2961-4.2734-7.0644-6.0119-.3933,4.1825-.101,8.27,2.1148,12.0919-3.0591-3.9738-7.7325-3.5259-12.2706-3.4482,1.6776,3.2178,2.2127,7.5442,6.5445,8.1863-3.1207.75-5.8745,3.2359-8.399,6.808Z" transform="translate(-57)" style="fill:#b33031"/><path d="M1347.0052,615.7166c-9.534-12.2658-4.9062-15.836-2.3861-20.7-2.037-5.5856.1709-9.81,6.0076-12.8705,1.3017-11.2745,14.9946-10.2378,15.03-9.4187,2.4113-5.1306,9.1285-6.0611,11.4555-2.8794,11.1728-6.2732,17.3769,7.0655,16.2618,9.679-2.8227,25.9444-17.6768,38.6694-46.3687,36.19Z" transform="translate(-57)" style="fill:#fff;stroke:#dcdcdc;stroke-width:0.2645829916000366px"/><path d="M1347.0052,615.7166c-9.534-12.2658.4668-11.1735,2.9868-16.0379-2.037-5.5857,2.3767-11.7523,8.2133-14.8128,1.3018-11.2744,10.6487-6.87,10.684-6.05,2.4113-5.1306,8.8919-7.5172,11.2189-4.3353,11.1728-6.2733,14.3807,2.4329,13.2657,5.0461-2.8228,25.9445-17.6768,38.6695-46.3687,36.19Z" transform="translate(-57)" style="fill:#dcdcdc"/><path d="M1385.3585,620.4028l7.9461,16.9189,3.64-2.1478-8.6869-16.4561c-1.2537-10.8118,13.0281-29.195,5.1163-39.1913-3.5735,3.37-8.8337,5.1956-9.8286,10.928-2.7055-4.44-6.3167-5.7027-10.0224-6.6336a20.8226,20.8226,0,0,0-.6081,12.8122,18.7246,18.7246,0,0,0-15.0216-4.8546c1.1525,5.467,1.82,11.5253,4.8638,14.6863-6.5237.4943-10.92,5.316-15.7518,9.2518C1356.882,621.9669,1379.1187,613.5939,1385.3585,620.4028Z" transform="translate(-57)" style="fill:#9e282c;stroke:#7a1e22;stroke-width:0.2645829916000366px"/><path d="M1359.433,613.1613c19.8064,7.6609,31.3761-7.257,32.5194-25.3443-3.5312,3.039-8.2058,4.3159-9.9,10.1855-.4745-3.2155-3.5136-5.3062-5.9723-7.6515-1.1988,4.3527-1.6878,8.73-.1859,13.1785-2.3234-4.7632-7.1228-5.1438-11.7149-5.8913,1.075,3.7107.785,8.3854,5.031,9.8566-3.2913.2225-6.5456,2.3492-9.7769,5.6665Z" transform="translate(-57)" style="fill:#b33031"/><path d="M1366.4445,652.2029c-5.8292-15.0462-.1094-17.1461,3.8915-21.1729-.3457-6.1422,3.1482-9.6331,9.9244-10.8576,4.7255-10.7308,18.129-5.4909,17.9158-4.6713,3.9727-4.323,10.9846-3.1734,12.35.6846,13.0971-2.7534,15.2647,12.3267,13.3546,14.5637-10.7013,24.7465-29.4442,32.7364-57.4365,21.4535Z" transform="translate(-57)" style="fill:#fff;stroke:#dcdcdc;stroke-width:0.2645829916000366px"/><path d="M1366.4445,652.2029c-5.8292-15.0462,3.8585-10.8882,7.8593-14.915-.3457-6.1422,5.9475-10.8715,12.7236-12.096,4.7256-10.7308,12.7529-3.5035,12.54-2.6839,3.9727-4.3231,11.1895-4.6839,12.5552-.8258,13.0971-2.7534,13.6688,6.83,11.7588,9.0671-10.7012,24.7465-29.4442,32.7364-57.4365,21.4535Z" transform="translate(-57)" style="fill:#dcdcdc"/><path d="M1403.4463,668.64l2.8264,19.1513,4.2984-1-3.709-18.9225c2.025-11.0609,21.9117-24.8134,17.0189-37.1192-4.6029,2.2273-10.4266,2.4095-13.163,7.7629-1.3631-5.2168-4.5977-7.5754-8.0277-9.6356a21.2135,21.2135,0,0,0-4.4973,12.4626,19.8089,19.8089,0,0,0-13.576-9.4187c-.5044,5.7527-1.6741,11.94.4159,15.9979-6.6856-1.5207-12.5533,1.8861-18.5884,4.2843C1374.4427,661.4153,1399.2613,659.9957,1403.4463,668.64Z" transform="translate(-57)" style="fill:#9e282c;stroke:#7a1e22;stroke-width:0.2645829916000366px"/><path d="M1379.6707,653.5068c17.5179,13.6627,33.636,2.4964,40.27-15.01-4.46,1.9131-9.5306,1.7344-13.01,7.0078.5-3.3208-1.91-6.3209-3.6613-9.3936-2.5219,3.9284-4.34,8.1-4.1854,12.9543-.8822-5.4183-5.575-7.2719-9.9487-9.424-.0491,3.9948-1.7582,8.5209,2.0492,11.281-3.3649-.7938-7.2706.3038-11.5145,2.584Z" transform="translate(-57)" style="fill:#b33031"/><path d="M1374.2126,695.6588c-1.7781-17.1493,4.7863-17.6475,10.1092-20.6241,1.395-6.4107,6.0359-8.9838,13.4517-8.2763,7.9945-9.6539,20.4733-.3824,20.0167.3978,5.3781-3.2891,12.3612-.074,12.6826,4.2859,14.4439.97,12.3941,17.0924,9.7629,18.8366-18.2314,22.32-40.0591,25.0921-66.0231,5.38Z" transform="translate(-57)" style="fill:#fff;stroke:#dcdcdc;stroke-miterlimit:15.118106999663814"/><path d="M1374.2126,695.6588c-1.7781-17.1493,7.1352-10.0672,12.458-13.0438,1.395-6.4107,9.3089-9.4441,16.7246-8.7365,7.9945-9.654,14.2994.1,13.8428.88,5.3781-3.2891,13.0065-1.5663,13.3278,2.7936,14.4439.97,12.301,10.9825,9.67,12.7265-18.2314,22.32-40.0591,25.0921-66.0231,5.38Z" transform="translate(-57)" style="fill:#dcdcdc"/><path d="M1408.0981,723.2793l-2.5263,20.4959,4.7678.22,1.5407-20.5168c5.2728-10.7765,29.94-19.1371,28.3553-33.1994-5.4362.9532-11.5609-.5489-15.9443,4.1574.07-5.7551-2.6291-9.1167-5.6169-12.2284a22.4162,22.4162,0,0,0-8.2514,11.5,21.4374,21.4374,0,0,0-11.4644-13.6148c-2.17,5.7639-5.1581,11.7812-4.1386,16.5568-6.5368-3.5018-13.629-1.7037-20.6074-.99C1379.92,707.4437,1406.2048,713.1845,1408.0981,723.2793Z" transform="translate(-57)" style="fill:#9e282c;stroke:#7a1e22;stroke-miterlimit:15.118106999663814"/><path d="M1387.6314,700.835c14.3618,19.1186,34.36,12.322,46.2815-3.7392-5.1974.6718-10.4337-.9827-15.5687,3.426,1.4709-3.2667-.1848-7.0481-1.133-10.7131-3.7525,3.3046-6.8408,7.063-8.0668,12.0952.6287-5.8227-3.7349-9.0883-7.68-12.5681-1.1929,4.09-4.2686,8.2443-1.0874,12.1844-3.2819-1.7916-7.6682-1.7969-12.7452-.6852Z" transform="translate(-57)" style="fill:#b33031"/><path d="M1371.3993,740.7423c4.2083-16.72,10.5458-14.9375,16.5666-15.909,3.508-5.5441,8.75-6.37,15.4737-3.1636,10.82-6.3285,19.3639,6.659,18.6675,7.2354,6.18-1.2462,11.6376,4.1679,10.445,8.3738,13.236,5.8629,5.7838,20.3055,2.7142,21.042-24.7781,14.7181-46.2334,9.8395-63.867-17.5785Z" transform="translate(-57)" style="fill:#fff;stroke:#dcdcdc;stroke-miterlimit:15.118106569781148"/><path d="M1371.3993,740.7423c4.2083-16.72,10.1539-7.0113,16.1745-7.9828,3.5081-5.5441,11.9823-5.6808,18.7062-2.474,10.8194-6.3285,13.3987,4.9956,12.7023,5.572,6.18-1.2462,12.7554,2.9872,11.5627,7.1931,13.236,5.8629,7.7908,14.5337,4.7214,15.27-24.7781,14.7181-46.2334,9.84-63.867-17.5785Z" transform="translate(-57)" style="fill:#dcdcdc"/><path d="M1393.7634,778.3052l-9.3993,18.388,4.4037,1.8408,8.48-18.7456c8.6474-8.316,34.6861-7.714,38.0179-21.4676-5.4336-.9681-10.6723-4.4787-16.4034-1.56,2.0383-5.3825.6554-9.4655-1.0847-13.4129a22.4155,22.4155,0,0,0-11.6935,7.9743,21.4372,21.4372,0,0,0-6.1026-16.72c-4.0145,4.6707-8.8842,9.2991-9.5635,14.1349-4.94-5.53-12.2191-6.2725-19.0192-7.9947C1372.7207,753.77,1395.4452,768.1731,1393.7634,778.3052Z" transform="translate(-57)" style="fill:#9e282c;stroke:#7a1e22;stroke-miterlimit:15.118106569781148"/><path d="M1382.2306,750.2049c6.9378,22.8834,28.0544,23.354,44.7591,12.3525-5.1128-1.1505-9.4647-4.5-15.8-2.1185,2.5016-2.5645,2.2424-6.6844,2.608-10.4523-4.6578,1.818-8.8475,4.29-11.7242,8.597,2.5866-5.2543-.3931-9.8179-2.9068-14.4394-2.5226,3.4332-6.8361,6.2815-5.1983,11.0733-2.4688-2.808-6.5876-4.3166-11.738-5.0127Z" transform="translate(-57)" style="fill:#b33031"/><path d="M1352.0644,785.3872c8.5507-14.9715,14.1752-11.55,20.2354-10.8665,4.87-4.3961,10.1409-3.7819,15.7544,1.1154,12.123-3.185,16.859,11.6222,16.0332,11.99,6.2872.462,10.0875,7.1447,7.8075,10.8747,11.1711,9.2073.1087,21.1129-3.0459,20.9966-27.8239,7.5106-47.1761-2.9595-56.7846-34.11Z" transform="translate(-57)" style="fill:#fff;stroke:#dcdcdc;stroke-miterlimit:15.118106842041016"/><path d="M1352.0644,785.3872c8.5507-14.9715,11.6657-4.0216,17.7257-3.3379,4.87-4.3961,13.0688-2.2483,18.6822,2.649,12.123-3.1849,11.5611,8.4156,10.7353,8.7834,6.2872.462,11.4817,6.3082,9.2017,10.0382,11.1711,9.2072,3.5942,16.0938.44,15.9774-27.8239,7.5107-47.1761-2.9594-56.7846-34.11Z" transform="translate(-57)" style="fill:#dcdcdc"/><path d="M1363.5,827.5813l-13.999,15.1819,3.7461,2.9576,13.21-15.7735c10.5657-5.6835,35.4828,1.9,42.3913-10.45-4.9728-2.394-9.0742-7.1844-15.3791-5.915,3.411-4.6359,3.1773-8.94,2.5632-13.21a22.4147,22.4147,0,0,0-13.4075,4.5349,21.437,21.437,0,0,0-1.38-17.7452c-5.1229,3.4187-11.0581,6.5667-13.0131,11.0414-3.2707-6.6554-10.0816-9.3281-16.1678-12.8159C1349.8329,798.29,1367.8455,818.275,1363.5,827.5813Z" transform="translate(-57)" style="fill:#9e282c;stroke:#7a1e22;stroke-miterlimit:15.118106842041016"/><path d="M1359.9512,797.4145c.5267,23.9061,20.7383,30.04,39.7867,23.937-4.6149-2.4834-7.9055-6.88-14.6476-6.29,3.0992-1.7971,3.9578-5.8349,5.3235-9.3656-4.9753.4981-9.6755,1.752-13.6046,5.1265,3.9046-4.3649,2.2623-9.5619,1.0844-14.6891-3.3532,2.6281-8.2739,4.2111-7.9854,9.2669-1.6225-3.3687-5.1837-5.93-9.957-7.9854Z" transform="translate(-57)" style="fill:#b33031"/><path d="M1200.0068,755.1232c-88.2109,0-56.55,85.5213-93.7266,94.8052-25.7765-.9011-19.51-67.5951-76.3056-2.7033C972.5918,903.98,896.4773,926.2476,894.7434,949.7305h610.5542c-1.7476-23.4692-77.8621-45.7369-135.2313-102.5054-56.7957-64.8782-50.5427,1.8022-76.3055,2.7033-37.1767-9.2839-5.5158-94.8052-93.7267-94.8052Z" transform="translate(-57)" style="fill:#010101;isolation:isolate;opacity:0.9980000257492065"/><path d="M949.655,942.14h500.6216a215.1642,215.1642,0,0,1-12.5606,34.9785c-40.9993,89.18-136.8285,142.945-237.7092,142.6993-100.949.2457-196.7781-53.5191-237.7776-142.6993a215.1584,215.1584,0,0,1-8.5315-21.5226q-2.2328-6.6575-4.029-13.456Z" transform="translate(-57)" style="fill:#2e3488;isolation:isolate;opacity:0.9980000257492065"/><path d="M1052.72,985.3507c-7.3588.0136-12.5742,2.6077-17.5984,4.7239a44.3713,44.3713,0,0,1-19.2778,4c-8.847,0-12.4787-2.4985-18.404-5.0925s-17.3118-4.6829-30.4185-2.0752l1.7885,8.9016c11.7141-2.321,19.8239-.7645,24.9847,1.4882s11.3182,5.8707,22.0493,5.8707a55.2937,55.2937,0,0,0,22.8-4.7239c5.3656-2.2527,8.8061-3.9866,14.0761-4,9.0791-.0136,16.438,2.3483,23.4419,4.9013s13.6665,5.4611,21.2574,5.4611c7.4954,0,12.8883-2.8807,17.68-5.1471s9.12-4.15,16.479-3.891,11.4137,2.321,16.7247,4.7785a48.1183,48.1183,0,0,0,21.8445,5.1744h.1906c10.226-.4232,15.2638-3.0718,18.4313-5.0652s3.9457-3.0718,11.168-3.0718,8.0415,1.0649,11.1953,3.0718,8.1917,4.642,18.4313,5.0652h.1906c10.0212,0,16.5336-2.7305,21.8446-5.1744s9.2839-4.5191,16.6974-4.7785,11.7141,1.6246,16.5063,3.891,10.1577,5.1471,17.6531,5.1471c7.5909,0,14.2535-2.908,21.2574-5.4611s14.3491-4.9286,23.4419-4.9013c5.2836.0137,8.7378,1.7475,14.1034,4a55.2934,55.2934,0,0,0,22.8,4.7239c10.7311,0,16.8612-3.6043,22.022-5.8707s13.4071-3.8092,25.1212-1.4882l1.7612-8.9016c-13.1067-2.5941-24.63-.5189-30.5413,2.0752s-9.5161,5.0925-18.3768,5.0925a44.5085,44.5085,0,0,1-19.3052-4c-5.0242-2.1025-10.2123-4.71-17.5711-4.7239-10.69-.0272-19.3461,2.8261-26.5821,5.4611s-13.0247,4.9287-18.1309,4.9287c-5.2017,0-8.7242-1.8977-13.7894-4.287s-11.5366-5.0652-20.6977-4.7512-15.0454,3.2221-20.1925,5.5977-9.53,4.3006-17.9125,4.3143c-8.9153-.3823-10.9222-1.8022-13.8712-3.6589s-7.4272-4.4509-16.0558-4.4509-13.0657,2.58-16.0284,4.4509-4.9559,3.2766-13.8712,3.6589c-8.3828-.0272-12.8337-1.966-17.94-4.3143s-11.0861-5.2837-20.1925-5.5977-15.6325,2.3483-20.6977,4.7512-8.5877,4.287-13.7894,4.287c-5.1061,0-10.8949-2.2937-18.1309-4.9287s-15.8782-5.4884-26.5547-5.4611Z" transform="translate(-57)" style="fill:#fff;isolation:isolate;opacity:0.9990000128746033"/><path d="M1159.1712,1042.2011c-10.5946,0-17.3937,4.1641-22.691,7.3588s-9.3112,5.6523-18.8,5.6523a38.7729,38.7729,0,0,1-19.8648-4.8058c-5.229-2.6076-11.1-6.1028-19.701-6.2939-19.0594,1.98-34.1457,9.9529-52.932,14.4038l5.543,10.458c16.2059-1.4471,31.0739-13.0384,47.1159-13.0384,5.6523.1225,8.97,2.1844,14.69,5.0379a53.11,53.11,0,0,0,25.1484,6.0482c11.8917,0,19.4007-4.0412,24.9028-7.3589s8.7788-5.6523,16.5881-5.6523,11.5094,2.4576,17.38,5.8161,13.7211,7.3862,25.8175,7.3862,19.9331-4.0276,25.8175-7.3862,9.5979-5.8161,17.38-5.8161,11.0861,2.3347,16.5882,5.6523,13.0248,7.3589,24.9027,7.3589a53.1637,53.1637,0,0,0,25.1485-6.0482c5.72-2.8535,9.0382-4.9151,14.69-5.0379,15.4141,1.98,27.47,8.2873,42.3374,13.0384l5.543-10.458c-16.0693-4.287-32.3162-14.4993-48.1535-14.4038-8.6013.1911-14.4856,3.6863-19.701,6.2939a38.7729,38.7729,0,0,1-19.8648,4.8058c-9.4887,0-13.53-2.4575-18.8273-5.6523s-12.069-7.3588-22.6636-7.3588-17.5849,4.15-23.2508,7.3862-10.24,5.816-19.9468,5.816-14.2808-2.58-19.9468-5.816-12.6425-7.3862-23.2507-7.3862Zm-47.4982,35.7567c-21.4212,0-33.6269,6.0072-48.6177,8.7242l2.1026,11.6322c16.7247-3.0309,27.3192-8.533,46.5015-8.533,6.4441,0,7.9459,1.3789,12.6971,3.7272s11.7551,4.9833,24.343,4.9833,18.363-2.7033,23.7559-4.7512,11.6049-3.973,29.886-3.973,24.4795,1.925,29.8723,3.973,11.1681,4.7512,23.7559,4.7512,19.6328-2.635,24.37-4.9833,6.2257-3.7272,12.67-3.7272c19.1822,0,29.8042,5.5021,46.5288,8.533l2.1025-11.6322c-14.9907-2.717-27.2237-8.7242-48.6313-8.7242-8.7105,0-13.8713,2.9763-17.9125,4.9833s-7.9733,3.7272-19.114,3.7272-13.448-1.6521-19.5781-3.973-14.8543-4.7512-34.05-4.7512-27.9609,2.43-34.0774,4.7512-8.4238,3.973-19.5781,3.973-15.0591-1.72-19.114-3.7272-9.2156-4.9833-17.9125-4.9833Z" transform="translate(-57)" style="fill:#fff;isolation:isolate;opacity:0.9980000257492065"/><path d="M983.4321,944.1328a67.5436,67.5436,0,0,0-21.6807,3.14c-4.4918,1.42-6.3349,2.2663-12.9565,2.2663v12.22a56.2084,56.2084,0,0,0,18.5815-3.14c4.0822-1.2833,7.1267-2.2664,16.0557-2.2664s11.9735.9693,16.0557,2.2664a56.5479,56.5479,0,0,0,37.163,0c4.0822-1.2833,7.1268-2.2664,16.0557-2.2664s11.9735.9693,16.0557,2.2664a56.5479,56.5479,0,0,0,37.163,0c4.0822-1.2833,7.14-2.2664,16.0557-2.2664s11.9735.9693,16.0557,2.2664a56.1115,56.1115,0,0,0,18.6088,3.14c8.8061,0,15.0045-1.5974,21.0663-2.908a122.7811,122.7811,0,0,1,49.2867,0c6.0755,1.2971,12.2465,2.908,21.0662,2.908a56.4012,56.4012,0,0,0,18.6088-3.14c4.0822-1.2833,7.14-2.2664,16.0557-2.2664s11.9736.9693,16.0558,2.2664a56.5882,56.5882,0,0,0,37.1766,0c4.0821-1.2833,7.1268-2.2664,16.0557-2.2664s11.9735.9693,16.0557,2.2664a56.5885,56.5885,0,0,0,37.1767,0c4.0822-1.2833,7.1268-2.2664,16.0557-2.2664s11.9735.9693,16.0557,2.2664a55.9442,55.9442,0,0,0,18.5952,3.14v-12.22c-6.6353,0-8.4648-.8464-12.9565-2.2663a76.4145,76.4145,0,0,0-43.3614,0c-4.4918,1.42-6.3212,2.2663-12.9565,2.2663s-8.4648-.8464-12.9565-2.2663a76.4142,76.4142,0,0,0-43.3613,0c-4.4918,1.42-6.335,2.2663-12.9566,2.2663s-8.4647-.8464-12.9565-2.2663a76.4142,76.4142,0,0,0-43.3613,0c-4.4918,1.42-6.3623,2.2663-12.9839,2.2663s-10.5809-1.0921-17.1479-2.4984a141.7124,141.7124,0,0,0-57.1234,0c-6.567,1.4063-10.5127,2.4984-17.1479,2.4984s-8.5057-.8464-12.9838-2.2663a76.4145,76.4145,0,0,0-43.3614,0c-4.4918,1.42-6.3349,2.2663-12.9565,2.2663s-8.4784-.8464-12.9566-2.2663a76.4142,76.4142,0,0,0-43.3613,0c-4.4918,1.42-6.3349,2.2663-12.9565,2.2663s-8.4784-.8464-12.9566-2.2663a67.4461,67.4461,0,0,0-21.6806-3.14Z" transform="translate(-57)" style="fill:#fff;isolation:isolate;opacity:0.9960039854049683"/><path d="M949.655,942.14l-45,6.28,16.7793,46.5288,18.6088-5.4475,10.54,19.7147L934.3092,1019.1l30.3639,40.5489,16.083-9.7754,16.22,16.3561-12.506,13.4344,41.5865,31.4424,12.4514-13.38,20.5884,11.6868-7.905,16.0147,49.6008,19.8922,7.823-15.8509,23.401,6.1847-2.676,17.1889,53.7512,6.7991,2.635-16.9432,14.1989.314,14.3081-.314,2.635,16.9432,53.7512-6.7991-2.69-17.1889,23.4146-6.1847,7.8231,15.8509,49.6007-19.8922-7.9187-16.0147,20.5885-11.6868,12.465,13.38,41.5865-31.4424-12.52-13.4344,16.2195-16.3561,16.0831,9.7754,30.35-40.5489-16.2742-9.8846,10.54-19.7147,18.6224,5.4475,16.7657-46.5288-45-6.28a215.1642,215.1642,0,0,1-12.5606,34.9785c-40.9994,89.18-136.8286,142.945-237.7093,142.6993-100.9489.2457-196.7781-53.5191-237.7775-142.6993A215.1642,215.1642,0,0,1,949.6687,942.14Z" transform="translate(-57)" style="fill:#a8a8a8;stroke:#797c7c;stroke-miterlimit:36.43996975005575;stroke-width:1.5787161955397973px;isolation:isolate;opacity:0.9980000257492065"/><path d="M1149.9384,659.8348l-21.19,250.6582h142.5031l-21.19-250.6582H1149.9384Z" transform="translate(-57)" style="fill:#fff;stroke:#d3d3d3;stroke-linecap:round;stroke-miterlimit:15.118106842041016;fill-rule:evenodd;isolation:isolate;opacity:0.9950000047683716"/><path d="M1058.4358,910.5976h283.1284v12.6657H1058.4358Z" transform="translate(-57)" style="fill:#fff;stroke:#d3d3d3;stroke-linecap:round;stroke-miterlimit:15.118106842041016;stroke-width:0.8802139566333693px;fill-rule:evenodd;isolation:isolate;opacity:0.9950000047683716"/><path d="M1072.4857,923.1076h255.0286v12.7445H1072.4857Z" transform="translate(-57)" style="fill:#fff;stroke:#d3d3d3;stroke-linecap:round;stroke-miterlimit:15.118106842041016;stroke-width:0.8379890970985997px;fill-rule:evenodd;isolation:isolate;opacity:0.9950000047683716"/><path d="M1182.2837,659.8348l-15.6132,242.7393" transform="translate(-57)" style="fill:#fff;stroke:#d3d3d3;stroke-miterlimit:15.118106842041016"/><path d="M1217.7163,659.8348,1233.33,902.5741" transform="translate(-57)" style="fill:#fff;stroke:#d3d3d3;stroke-miterlimit:15.118106842041016"/><path d="M1179.2457,707.0658l6.9181-10.3513,6.9181,10.3513" transform="translate(-57)" style="fill:none;stroke:#d3d3d3;stroke-linecap:round;stroke-miterlimit:15.118106842041016;stroke-width:0.4087558057668659px;isolation:isolate;opacity:0.9950000047683716"/><path d="M1193.0819,707.0658,1200,696.7145l6.9182,10.3513" transform="translate(-57)" style="fill:none;stroke:#d3d3d3;stroke-linecap:round;stroke-miterlimit:15.118106842041016;stroke-width:0.4087558057668659px;isolation:isolate;opacity:0.9950000047683716"/><path d="M1206.9181,707.0658l6.918-10.3513,6.9181,10.3513" transform="translate(-57)" style="fill:none;stroke:#d3d3d3;stroke-linecap:round;stroke-miterlimit:15.118106842041016;stroke-width:0.4087558057668659px;isolation:isolate;opacity:0.9950000047683716"/><path d="M1220.7542,707.0658l5.5717-10.3514,5.5717,10.3514" transform="translate(-57)" style="fill:none;stroke:#d3d3d3;stroke-linecap:round;stroke-miterlimit:15.118106842041016;stroke-width:0.3668318041290135px;isolation:isolate;opacity:0.9950000047683716"/><path d="M1231.8976,707.0658l5.5718-10.3514,5.5718,10.3514" transform="translate(-57)" style="fill:none;stroke:#d3d3d3;stroke-linecap:round;stroke-miterlimit:15.118106842041016;stroke-width:0.3668318041290135px;isolation:isolate;opacity:0.9950000047683716"/><path d="M1243.0412,707.0658l5.5716-10.3514,5.5718,10.3514" transform="translate(-57)" style="fill:none;stroke:#d3d3d3;stroke-linecap:round;stroke-miterlimit:15.118106842041016;stroke-width:0.3668318041290135px;isolation:isolate;opacity:0.9950000047683716"/><path d="M1145.8154,707.0658l5.5716-10.3513,5.5718,10.3513" transform="translate(-57)" style="fill:none;stroke:#d3d3d3;stroke-linecap:round;stroke-miterlimit:15.118106842041016;stroke-width:0.3668318041290135px;isolation:isolate;opacity:0.9950000047683716"/><path d="M1156.9588,707.0658l5.5717-10.3514,5.5718,10.3514" transform="translate(-57)" style="fill:none;stroke:#d3d3d3;stroke-linecap:round;stroke-miterlimit:15.118106842041016;stroke-width:0.3668318041290135px;isolation:isolate;opacity:0.9950000047683716"/><path d="M1168.1023,707.0658l5.5717-10.3514,5.5717,10.3514" transform="translate(-57)" style="fill:none;stroke:#d3d3d3;stroke-linecap:round;stroke-miterlimit:15.118106842041016;stroke-width:0.3668318041290135px;isolation:isolate;opacity:0.9950000047683716"/><path d="M1147.6505,686.0434H1252.35l-2.2879-26.2086H1149.9384Z" transform="translate(-57)" style="fill:#fff;stroke:#d3d3d3;stroke-miterlimit:15.118106842041016;stroke-width:0.5000011568069738px"/><path d="M1147.9264,682.8831h104.1472" transform="translate(-57)" style="fill:#fff;stroke:#d3d3d3;stroke-miterlimit:15.118106842041016;stroke-width:0.5000011568069738px"/><path d="M1251.8293,680.0844H1148.1707" transform="translate(-57)" style="fill:#fff;stroke:#d3d3d3;stroke-miterlimit:15.118106842041016;stroke-width:0.5000011568069738px"/><path d="M1251.6083,677.5534H1148.3917" transform="translate(-57)" style="fill:#fff;stroke:#d3d3d3;stroke-miterlimit:15.118106842041016;stroke-width:0.5000011568069738px"/><path d="M1251.438,675.6029H1148.5619" transform="translate(-57)" style="fill:#fff;stroke:#d3d3d3;stroke-miterlimit:15.118106842041016"/><path d="M1148.8642,672.1405h102.2716" transform="translate(-57)" style="fill:#fff;stroke:#d3d3d3;stroke-miterlimit:15.118106842041016;stroke-width:0.5000011568069738px"/><path d="M1250.8759,669.1638H1149.124" transform="translate(-57)" style="fill:#fff;stroke:#d3d3d3;stroke-miterlimit:15.118106842041016;stroke-width:0.5000011568069738px"/><path d="M1149.4166,665.8118h101.1667" transform="translate(-57)" style="fill:#fff;stroke:#d3d3d3;stroke-miterlimit:15.118106842041016;stroke-width:0.5000011568069738px"/><path d="M1250.2867,662.4135H1149.7133" transform="translate(-57)" style="fill:#fff;stroke:#d3d3d3;stroke-miterlimit:15.118106842041016;stroke-width:0.5000011568069738px"/><path d="M1135.7266,635.3649v12.0033l14.2105,12.4666H1250.06l14.2141-12.4666V635.3649H1135.7266Z" transform="translate(-57)" style="fill:#fff;stroke:#d3d3d3"/><path d="M1253.0179,657.2418H1146.9821" transform="translate(-57)" style="fill:#fff;stroke:#d3d3d3;stroke-miterlimit:15.118106842041016;stroke-width:0.5000011568069738px"/><path d="M1255.7963,654.8047H1144.2037" transform="translate(-57)" style="fill:#fff;stroke:#d3d3d3;stroke-miterlimit:15.118106842041016;stroke-width:0.5000011568069738px"/><path d="M1141.35,652.3021H1258.65" transform="translate(-57)" style="fill:#fff;stroke:#d3d3d3;stroke-miterlimit:15.118106842041016;stroke-width:0.5000011568069738px"/><path d="M1134.1621,902.627h42.46V840.5993c-9.12-6.8858-18.1445-15.9021-27.8379-9.1262l-.2323,3.5186c7.591-1.8418,8.4375,1.8829,9.5979,5.3465-1.8158,1.5531-2.5531-1.4019-5.98,6.9271-3.0992-1.3058-4.2323-3.5461-12.0827-2.6114l-.1087,6.13c9.2156-.2475,10.772,7.0645,6.5533,9.2086-2.2664,4.0408,1.0785,3.1887,2.1435,4.4257v38.4151" transform="translate(-57)" style="fill:#fff;stroke:#d3d3d3;stroke-miterlimit:15.118106842041016;stroke-width:0.24566922717207262px;isolation:isolate;opacity:0.9980000257492065"/><path d="M1159.4471,863.5109h33.3536V902.627h-33.3536Z" transform="translate(-57)" style="fill:#fff;stroke:#d3d3d3;stroke-miterlimit:15.118106842041016;stroke-width:0.7333264243889062px;isolation:isolate;opacity:0.9990000128746033"/><path d="M1159.5016,857.0374h33.2991v6.4735h-33.2991Z" transform="translate(-57)" style="fill:#fff;stroke:#d3d3d3;stroke-miterlimit:15.118106842041016;stroke-width:0.7333264243889062px;isolation:isolate;opacity:0.9990000128746033"/><path d="M1159.5152,852.8317h33.2718v4.192h-33.2718Z" transform="translate(-57)" style="fill:#fff;stroke:#d3d3d3;stroke-miterlimit:15.118106842041016;stroke-width:0.7333264243889062px;isolation:isolate;opacity:0.9990000128746033"/><path d="M1192.8007,852.8317v-7.6143h-27.0735c-4.0275,1.2232-5.7751,3.9721-6.1983,7.6143Z" transform="translate(-57)" style="fill:#fff;stroke:#d3d3d3;stroke-miterlimit:15.118106842041016;stroke-width:0.7333264243889062px;isolation:isolate;opacity:0.9990000128746033"/><path d="M1192.8007,845.2173V837.603h-22.4452c-4.0275,1.2232-5.7751,3.9721-6.1983,7.6143Z" transform="translate(-57)" style="fill:#fff;stroke:#d3d3d3;stroke-miterlimit:15.118106842041016;stroke-width:0.7333264243889062px;isolation:isolate;opacity:0.9990000128746033"/><path d="M1192.8007,837.603v-7.6143h-18.1582c-4.0276,1.2232-5.7751,3.9721-6.1983,7.6143Z" transform="translate(-57)" style="fill:#fff;stroke:#d3d3d3;stroke-miterlimit:15.118106842041016;stroke-width:0.7333264243889062px;isolation:isolate;opacity:0.9990000128746033"/><path d="M1192.8007,830.0025v-7.6143h-13.1886c-4.0275,1.2232-5.7751,3.9721-6.1983,7.6143Z" transform="translate(-57)" style="fill:#fff;stroke:#d3d3d3;stroke-miterlimit:15.118106842041016;stroke-width:0.7333264243889062px;isolation:isolate;opacity:0.9990000128746033"/><path d="M1192.8007,822.3882v-5.5389h-8.9835c-2.7442.8934-3.932,2.8863-4.2187,5.5389Z" transform="translate(-57)" style="fill:#fff;stroke:#d3d3d3;stroke-miterlimit:15.118106842041016;stroke-width:0.7333264243889062px;isolation:isolate;opacity:0.9990000128746033"/><path d="M1165.5225,869.5447v27.0624h21.3529V869.5447Z" transform="translate(-57)" style="fill:#fff;stroke:#d3d3d3;stroke-miterlimit:15.118106842041016;stroke-width:0.7333264243889062px;isolation:isolate;opacity:0.9990000128746033"/><path d="M1171.7345,875.7983v14.5551h8.9289V875.7983Z" transform="translate(-57)" style="fill:#fff;stroke:#d3d3d3;stroke-miterlimit:15.118106842041016;stroke-width:0.7333264243889062px;isolation:isolate;opacity:0.9990000128746033"/><rect x="1022.3052" y="902.627" width="113.55" height="7.866" style="fill:#fff;stroke:#d3d3d3;stroke-linecap:round;stroke-miterlimit:15.118106842041016;stroke-width:0.7062347959161457px;isolation:isolate;opacity:0.9950000047683716"/><path d="M1265.8378,902.627h-42.46V840.5993c9.12-6.8858,18.1445-15.9021,27.838-9.1262l.2322,3.5186c-7.5909-1.8418-8.4374,1.8829-9.5979,5.3465,1.8159,1.5531,2.5531-1.4019,5.98,6.9271,3.0993-1.3058,4.2324-3.5461,12.0827-2.6114l.1088,6.13c-9.2156-.2475-10.7721,7.0645-6.5534,9.2086,2.2665,4.0408-1.0785,3.1887-2.1434,4.4257v38.4151" transform="translate(-57)" style="fill:#fff;stroke:#d3d3d3;stroke-miterlimit:15.118106842041016;stroke-width:0.24566922717207262px;isolation:isolate;opacity:0.9980000257492065"/><path d="M1240.5529,863.5109h-33.3536V902.627h33.3536Z" transform="translate(-57)" style="fill:#fff;stroke:#d3d3d3;stroke-miterlimit:15.118106842041016;stroke-width:0.7333264243889062px;isolation:isolate;opacity:0.9990000128746033"/><path d="M1240.4983,857.0374h-33.299v6.4735h33.299Z" transform="translate(-57)" style="fill:#fff;stroke:#d3d3d3;stroke-miterlimit:15.118106842041016;stroke-width:0.7333264243889062px;isolation:isolate;opacity:0.9990000128746033"/><path d="M1240.4847,852.8317H1207.213v4.192h33.2717Z" transform="translate(-57)" style="fill:#fff;stroke:#d3d3d3;stroke-miterlimit:15.118106842041016;stroke-width:0.7333264243889062px;isolation:isolate;opacity:0.9990000128746033"/><path d="M1207.1993,852.8317v-7.6143h27.0734c4.0275,1.2232,5.7751,3.9721,6.1984,7.6143Z" transform="translate(-57)" style="fill:#fff;stroke:#d3d3d3;stroke-miterlimit:15.118106842041016;stroke-width:0.7333264243889062px;isolation:isolate;opacity:0.9990000128746033"/><path d="M1207.1993,845.2173V837.603h22.4451c4.0276,1.2232,5.7751,3.9721,6.1984,7.6143Z" transform="translate(-57)" style="fill:#fff;stroke:#d3d3d3;stroke-miterlimit:15.118106842041016;stroke-width:0.7333264243889062px;isolation:isolate;opacity:0.9990000128746033"/><path d="M1207.1993,837.603v-7.6143h18.1582c4.0275,1.2232,5.775,3.9721,6.1983,7.6143Z" transform="translate(-57)" style="fill:#fff;stroke:#d3d3d3;stroke-miterlimit:15.118106842041016;stroke-width:0.7333264243889062px;isolation:isolate;opacity:0.9990000128746033"/><path d="M1207.1993,830.0025v-7.6143h13.1886c4.0275,1.2232,5.775,3.9721,6.1983,7.6143Z" transform="translate(-57)" style="fill:#fff;stroke:#d3d3d3;stroke-miterlimit:15.118106842041016;stroke-width:0.7333264243889062px;isolation:isolate;opacity:0.9990000128746033"/><path d="M1207.1993,822.3882v-5.5389h8.9835c2.7442.8934,3.932,2.8863,4.2187,5.5389Z" transform="translate(-57)" style="fill:#fff;stroke:#d3d3d3;stroke-miterlimit:15.118106842041016;stroke-width:0.7333264243889062px;isolation:isolate;opacity:0.9990000128746033"/><path d="M1234.4775,869.5447v27.0624h-21.3529V869.5447Z" transform="translate(-57)" style="fill:#fff;stroke:#d3d3d3;stroke-miterlimit:15.118106842041016;stroke-width:0.7333264243889062px;isolation:isolate;opacity:0.9990000128746033"/><path d="M1228.2654,875.7983v14.5551h-8.9289V875.7983Z" transform="translate(-57)" style="fill:#fff;stroke:#d3d3d3;stroke-miterlimit:15.118106842041016;stroke-width:0.7333264243889062px;isolation:isolate;opacity:0.9990000128746033"/><rect x="1150.1447" y="902.627" width="113.55" height="7.866" style="fill:#fff;stroke:#d3d3d3;stroke-linecap:round;stroke-miterlimit:15.118106842041016;stroke-width:0.7062347959161457px;isolation:isolate;opacity:0.9950000047683716"/><rect x="1078.7266" y="643.6229" width="128.5479" height="3.7453" style="fill:#fff;stroke:#d3d3d3;stroke-linecap:round;stroke-miterlimit:3.779526710510254;isolation:isolate;opacity:0.9950000047683716"/><path d="M1180.598,686.0434l1.6857-26.2086-14.2018-16.2119.0177-8.2566" transform="translate(-57)" style="fill:none;stroke:#d3d3d3;stroke-miterlimit:15.118106842041016"/><path d="M1219.402,686.0434l-1.6857-26.2086,14.2018-16.2119-.0177-8.2566" transform="translate(-57)" style="fill:none;stroke:#d3d3d3;stroke-miterlimit:15.118106842041016"/><rect x="1111.6189" y="614.8464" width="31.3812" height="20.5055" style="fill:#fff;stroke:#d3d3d3;stroke-linecap:round;stroke-miterlimit:15.118106842041016;stroke-width:0.987722558067702px;isolation:isolate;opacity:0.9890300035476685"/><rect x="1085.3954" y="614.8464" width="26.2235" height="20.5055" style="fill:#fff;stroke:#d3d3d3;stroke-linecap:round;stroke-miterlimit:15.118106842041016;isolation:isolate;opacity:0.9890300035476685"/><rect x="1089.9201" y="614.8334" width="2.9609" height="20.5315" style="fill:none;stroke:#d3d3d3;stroke-linecap:round;stroke-miterlimit:15.118106842041016;stroke-width:0.4860811568972281px;isolation:isolate;opacity:0.9890300035476685"/><rect x="1092.8809" y="614.8334" width="2.9609" height="20.5315" style="fill:none;stroke:#d3d3d3;stroke-linecap:round;stroke-miterlimit:15.118106842041016;stroke-width:0.4860811568972281px;isolation:isolate;opacity:0.9890300035476685"/><rect x="1095.8419" y="614.8334" width="2.9609" height="20.5315" style="fill:none;stroke:#d3d3d3;stroke-linecap:round;stroke-miterlimit:15.118106842041016;stroke-width:0.4860811568972281px;isolation:isolate;opacity:0.9890300035476685"/><rect x="1098.8028" y="614.8334" width="2.9609" height="20.5315" style="fill:none;stroke:#d3d3d3;stroke-linecap:round;stroke-miterlimit:15.118106842041016;stroke-width:0.4860811568972281px;isolation:isolate;opacity:0.9890300035476685"/><rect x="1101.7639" y="614.8334" width="2.9609" height="20.5315" style="fill:none;stroke:#d3d3d3;stroke-linecap:round;stroke-miterlimit:15.118106842041016;stroke-width:0.4860811568972281px;isolation:isolate;opacity:0.9890300035476685"/><rect x="1104.7248" y="614.8334" width="2.9609" height="20.5315" style="fill:none;stroke:#d3d3d3;stroke-linecap:round;stroke-miterlimit:15.118106842041016;stroke-width:0.4860811568972281px;isolation:isolate;opacity:0.9890300035476685"/><rect x="1089.9201" y="614.8334" width="2.9609" height="20.5315" style="fill:none;stroke:#d3d3d3;stroke-linecap:round;stroke-miterlimit:15.118106842041016;stroke-width:0.4860811568972281px;isolation:isolate;opacity:0.9890300035476685"/><rect x="1092.8809" y="614.8334" width="2.9609" height="20.5315" style="fill:none;stroke:#d3d3d3;stroke-linecap:round;stroke-miterlimit:15.118106842041016;stroke-width:0.4860811568972281px;isolation:isolate;opacity:0.9890300035476685"/><rect x="1095.8419" y="614.8334" width="2.9609" height="20.5315" style="fill:none;stroke:#d3d3d3;stroke-linecap:round;stroke-miterlimit:15.118106842041016;stroke-width:0.4860811568972281px;isolation:isolate;opacity:0.9890300035476685"/><rect x="1098.8028" y="614.8334" width="2.9609" height="20.5315" style="fill:none;stroke:#d3d3d3;stroke-linecap:round;stroke-miterlimit:15.118106842041016;stroke-width:0.4860811568972281px;isolation:isolate;opacity:0.9890300035476685"/><rect x="1101.7639" y="614.8334" width="2.9609" height="20.5315" style="fill:none;stroke:#d3d3d3;stroke-linecap:round;stroke-miterlimit:15.118106842041016;stroke-width:0.4860811568972281px;isolation:isolate;opacity:0.9890300035476685"/><rect x="1104.7248" y="614.8334" width="2.9609" height="20.5315" style="fill:none;stroke:#d3d3d3;stroke-linecap:round;stroke-miterlimit:15.118106842041016;stroke-width:0.4860811568972281px;isolation:isolate;opacity:0.9890300035476685"/><rect x="1115.224" y="614.3488" width="2.9482" height="20.9879" style="fill:none;stroke:#d3d3d3;stroke-linecap:round;stroke-miterlimit:15.118106842041016;stroke-width:0.5163589392079331px;isolation:isolate;opacity:0.9890300035476685"/><rect x="1118.1722" y="614.3488" width="2.9482" height="20.9879" style="fill:none;stroke:#d3d3d3;stroke-linecap:round;stroke-miterlimit:15.118106842041016;stroke-width:0.5163627126034953px;isolation:isolate;opacity:0.9890300035476685"/><rect x="1121.1204" y="614.3488" width="2.9482" height="20.9879" style="fill:none;stroke:#d3d3d3;stroke-linecap:round;stroke-miterlimit:15.118106842041016;stroke-width:0.5163627126034953px;isolation:isolate;opacity:0.9890300035476685"/><rect x="1124.0686" y="614.3488" width="2.9482" height="20.9879" style="fill:none;stroke:#d3d3d3;stroke-linecap:round;stroke-miterlimit:15.118106842041016;stroke-width:0.5163627126034953px;isolation:isolate;opacity:0.9890300035476685"/><rect x="1127.0168" y="614.3488" width="2.9482" height="20.9879" style="fill:none;stroke:#d3d3d3;stroke-linecap:round;stroke-miterlimit:15.118106842041016;stroke-width:0.5163627126034953px;isolation:isolate;opacity:0.9890300035476685"/><rect x="1129.965" y="614.3488" width="2.9482" height="20.9879" style="fill:none;stroke:#d3d3d3;stroke-linecap:round;stroke-miterlimit:15.118106842041016;stroke-width:0.5163627126034953px;isolation:isolate;opacity:0.9890300035476685"/><rect x="1132.9132" y="614.3488" width="2.9482" height="20.9879" style="fill:none;stroke:#d3d3d3;stroke-linecap:round;stroke-miterlimit:15.118106842041016;stroke-width:0.5163627126034953px;isolation:isolate;opacity:0.9890300035476685"/><rect x="1135.8614" y="614.3488" width="2.9482" height="20.9879" style="fill:none;stroke:#d3d3d3;stroke-linecap:round;stroke-miterlimit:15.118106842041016;stroke-width:0.5163627126034953px;isolation:isolate;opacity:0.9890300035476685"/><rect x="1143" y="614.8464" width="31.3812" height="20.5055" style="fill:#fff;stroke:#d3d3d3;stroke-linecap:round;stroke-miterlimit:15.118106842041016;stroke-width:0.987722558067702px;isolation:isolate;opacity:0.9890300035476685"/><rect x="1174.3812" y="614.8464" width="26.2235" height="20.5055" style="fill:#fff;stroke:#d3d3d3;stroke-linecap:round;stroke-miterlimit:15.118106842041016;isolation:isolate;opacity:0.9890300035476685"/><rect x="1193.1191" y="614.8334" width="2.9609" height="20.5315" style="fill:none;stroke:#d3d3d3;stroke-linecap:round;stroke-miterlimit:15.118106842041016;stroke-width:0.4860811568972281px;isolation:isolate;opacity:0.9890300035476685"/><rect x="1190.1583" y="614.8334" width="2.9609" height="20.5315" style="fill:none;stroke:#d3d3d3;stroke-linecap:round;stroke-miterlimit:15.118106842041016;stroke-width:0.4860811568972281px;isolation:isolate;opacity:0.9890300035476685"/><rect x="1187.1973" y="614.8334" width="2.9609" height="20.5315" style="fill:none;stroke:#d3d3d3;stroke-linecap:round;stroke-miterlimit:15.118106842041016;stroke-width:0.4860811568972281px;isolation:isolate;opacity:0.9890300035476685"/><rect x="1184.2363" y="614.8334" width="2.9609" height="20.5315" style="fill:none;stroke:#d3d3d3;stroke-linecap:round;stroke-miterlimit:15.118106842041016;stroke-width:0.4860811568972281px;isolation:isolate;opacity:0.9890300035476685"/><rect x="1181.2753" y="614.8334" width="2.9609" height="20.5315" style="fill:none;stroke:#d3d3d3;stroke-linecap:round;stroke-miterlimit:15.118106842041016;stroke-width:0.4860811568972281px;isolation:isolate;opacity:0.9890300035476685"/><rect x="1178.3144" y="614.8334" width="2.9609" height="20.5315" style="fill:none;stroke:#d3d3d3;stroke-linecap:round;stroke-miterlimit:15.118106842041016;stroke-width:0.4860811568972281px;isolation:isolate;opacity:0.9890300035476685"/><rect x="1193.1191" y="614.8334" width="2.9609" height="20.5315" style="fill:none;stroke:#d3d3d3;stroke-linecap:round;stroke-miterlimit:15.118106842041016;stroke-width:0.4860811568972281px;isolation:isolate;opacity:0.9890300035476685"/><rect x="1190.1583" y="614.8334" width="2.9609" height="20.5315" style="fill:none;stroke:#d3d3d3;stroke-linecap:round;stroke-miterlimit:15.118106842041016;stroke-width:0.4860811568972281px;isolation:isolate;opacity:0.9890300035476685"/><rect x="1187.1973" y="614.8334" width="2.9609" height="20.5315" style="fill:none;stroke:#d3d3d3;stroke-linecap:round;stroke-miterlimit:15.118106842041016;stroke-width:0.4860811568972281px;isolation:isolate;opacity:0.9890300035476685"/><rect x="1184.2363" y="614.8334" width="2.9609" height="20.5315" style="fill:none;stroke:#d3d3d3;stroke-linecap:round;stroke-miterlimit:15.118106842041016;stroke-width:0.4860811568972281px;isolation:isolate;opacity:0.9890300035476685"/><rect x="1181.2753" y="614.8334" width="2.9609" height="20.5315" style="fill:none;stroke:#d3d3d3;stroke-linecap:round;stroke-miterlimit:15.118106842041016;stroke-width:0.4860811568972281px;isolation:isolate;opacity:0.9890300035476685"/><rect x="1178.3144" y="614.8334" width="2.9609" height="20.5315" style="fill:none;stroke:#d3d3d3;stroke-linecap:round;stroke-miterlimit:15.118106842041016;stroke-width:0.4860811568972281px;isolation:isolate;opacity:0.9890300035476685"/><rect x="1167.8279" y="614.3488" width="2.9482" height="20.9879" style="fill:none;stroke:#d3d3d3;stroke-linecap:round;stroke-miterlimit:15.118106842041016;stroke-width:0.5163589392079331px;isolation:isolate;opacity:0.9890300035476685"/><rect x="1164.8797" y="614.3488" width="2.9482" height="20.9879" style="fill:none;stroke:#d3d3d3;stroke-linecap:round;stroke-miterlimit:15.118106842041016;stroke-width:0.5163627126034953px;isolation:isolate;opacity:0.9890300035476685"/><rect x="1161.9315" y="614.3488" width="2.9482" height="20.9879" style="fill:none;stroke:#d3d3d3;stroke-linecap:round;stroke-miterlimit:15.118106842041016;stroke-width:0.5163627126034953px;isolation:isolate;opacity:0.9890300035476685"/><rect x="1158.9833" y="614.3488" width="2.9482" height="20.9879" style="fill:none;stroke:#d3d3d3;stroke-linecap:round;stroke-miterlimit:15.118106842041016;stroke-width:0.5163627126034953px;isolation:isolate;opacity:0.9890300035476685"/><rect x="1156.0351" y="614.3488" width="2.9482" height="20.9879" style="fill:none;stroke:#d3d3d3;stroke-linecap:round;stroke-miterlimit:15.118106842041016;stroke-width:0.5163627126034953px;isolation:isolate;opacity:0.9890300035476685"/><rect x="1153.0869" y="614.3488" width="2.9482" height="20.9879" style="fill:none;stroke:#d3d3d3;stroke-linecap:round;stroke-miterlimit:15.118106842041016;stroke-width:0.5163627126034953px;isolation:isolate;opacity:0.9890300035476685"/><rect x="1150.1387" y="614.3488" width="2.9482" height="20.9879" style="fill:none;stroke:#d3d3d3;stroke-linecap:round;stroke-miterlimit:15.118106842041016;stroke-width:0.5163627126034953px;isolation:isolate;opacity:0.9890300035476685"/><rect x="1147.1905" y="614.3488" width="2.9482" height="20.9879" style="fill:none;stroke:#d3d3d3;stroke-linecap:round;stroke-miterlimit:15.118106842041016;stroke-width:0.5163627126034953px;isolation:isolate;opacity:0.9890300035476685"/><path d="M1167.3686,602.123c-5.4472,3.261-9.1619,7.13-9.3654,12.2258h83.9935c-.2035-5.0962-3.9182-8.9648-9.3654-12.2258h-65.2627Z" transform="translate(-57)" style="fill:#fff;stroke:#d3d3d3;stroke-miterlimit:15.118106842041016"/><path d="M1157.3976,584.0816c0,9.5224,9.971,10.4463,9.971,18.0414h65.2627c0-7.5951,9.9711-8.519,9.9711-18.0414h-85.2048Z" transform="translate(-57)" style="fill:#fff;stroke:#d3d3d3;stroke-miterlimit:15.118106842041016"/><rect x="1100.154" y="574.4298" width="24.5696" height="9.6518" style="fill:#fff;stroke:#d3d3d3;stroke-linecap:round;stroke-miterlimit:15.118106842041016;isolation:isolate;opacity:0.9940000176429749"/><rect x="1103.1039" y="574.4517" width="2.713" height="9.608" style="fill:none;stroke:#d3d3d3;stroke-linecap:round;stroke-miterlimit:15.118106842041016;stroke-width:0.5691476167368563px;isolation:isolate;opacity:0.9940000176429749"/><rect x="1105.8169" y="574.4517" width="2.713" height="9.608" style="fill:none;stroke:#d3d3d3;stroke-linecap:round;stroke-miterlimit:15.118106842041016;stroke-width:0.5691476167368563px;isolation:isolate;opacity:0.9940000176429749"/><rect x="1108.53" y="574.4517" width="2.713" height="9.608" style="fill:none;stroke:#d3d3d3;stroke-linecap:round;stroke-miterlimit:15.118106842041016;stroke-width:0.5691476167368563px;isolation:isolate;opacity:0.9940000176429749"/><rect x="1111.2431" y="574.4517" width="2.713" height="9.608" style="fill:none;stroke:#d3d3d3;stroke-linecap:round;stroke-miterlimit:15.118106842041016;stroke-width:0.5691476167368563px;isolation:isolate;opacity:0.9940000176429749"/><rect x="1113.7749" y="574.4517" width="2.713" height="9.608" style="fill:none;stroke:#d3d3d3;stroke-linecap:round;stroke-miterlimit:15.118106842041016;stroke-width:0.5691476167368563px;isolation:isolate;opacity:0.9940000176429749"/><rect x="1116.4882" y="574.4517" width="2.713" height="9.608" style="fill:none;stroke:#d3d3d3;stroke-linecap:round;stroke-miterlimit:15.118106842041016;stroke-width:0.5691476167368563px;isolation:isolate;opacity:0.9940000176429749"/><rect x="1119.2013" y="574.4517" width="2.713" height="9.608" style="fill:none;stroke:#d3d3d3;stroke-linecap:round;stroke-miterlimit:15.118106842041016;stroke-width:0.5691476167368563px;isolation:isolate;opacity:0.9940000176429749"/><rect x="1161.2763" y="574.4298" width="24.5696" height="9.6518" style="fill:#fff;stroke:#d3d3d3;stroke-linecap:round;stroke-miterlimit:15.118106842041016;isolation:isolate;opacity:0.9940000176429749"/><rect x="1164.2262" y="574.4517" width="2.713" height="9.608" style="fill:none;stroke:#d3d3d3;stroke-linecap:round;stroke-miterlimit:15.118106842041016;stroke-width:0.5691476167368563px;isolation:isolate;opacity:0.9940000176429749"/><rect x="1166.9392" y="574.4517" width="2.713" height="9.608" style="fill:none;stroke:#d3d3d3;stroke-linecap:round;stroke-miterlimit:15.118106842041016;stroke-width:0.5691476167368563px;isolation:isolate;opacity:0.9940000176429749"/><rect x="1169.6523" y="574.4517" width="2.713" height="9.608" style="fill:none;stroke:#d3d3d3;stroke-linecap:round;stroke-miterlimit:15.118106842041016;stroke-width:0.5691476167368563px;isolation:isolate;opacity:0.9940000176429749"/><rect x="1172.3654" y="574.4517" width="2.713" height="9.608" style="fill:none;stroke:#d3d3d3;stroke-linecap:round;stroke-miterlimit:15.118106842041016;stroke-width:0.5691476167368563px;isolation:isolate;opacity:0.9940000176429749"/><rect x="1174.8972" y="574.4517" width="2.713" height="9.608" style="fill:none;stroke:#d3d3d3;stroke-linecap:round;stroke-miterlimit:15.118106842041016;stroke-width:0.5691476167368563px;isolation:isolate;opacity:0.9940000176429749"/><rect x="1177.6105" y="574.4517" width="2.713" height="9.608" style="fill:none;stroke:#d3d3d3;stroke-linecap:round;stroke-miterlimit:15.118106842041016;stroke-width:0.5691476167368563px;isolation:isolate;opacity:0.9940000176429749"/><rect x="1180.3236" y="574.4517" width="2.713" height="9.608" style="fill:none;stroke:#d3d3d3;stroke-linecap:round;stroke-miterlimit:15.118106842041016;stroke-width:0.5691476167368563px;isolation:isolate;opacity:0.9940000176429749"/><rect x="1124.7236" y="574.4298" width="36.5527" height="9.6518" style="fill:#fff;stroke:#d3d3d3;stroke-linecap:round;stroke-miterlimit:15.118106842041016;isolation:isolate;opacity:0.9940000176429749"/><rect x="1128.9713" y="574.4264" width="2.5721" height="9.6587" style="fill:none;stroke:#d3d3d3;stroke-linecap:round;stroke-miterlimit:15.118106842041016;stroke-width:0.4962972029869519px;isolation:isolate;opacity:0.9940000176429749"/><rect x="1131.5433" y="574.4264" width="2.5721" height="9.6587" style="fill:none;stroke:#d3d3d3;stroke-linecap:round;stroke-miterlimit:15.118106842041016;stroke-width:0.4962972029869519px;isolation:isolate;opacity:0.9940000176429749"/><rect x="1134.1156" y="574.4264" width="2.5721" height="9.6587" style="fill:none;stroke:#d3d3d3;stroke-linecap:round;stroke-miterlimit:15.118106842041016;stroke-width:0.4962972029869519px;isolation:isolate;opacity:0.9940000176429749"/><rect x="1136.6876" y="574.4264" width="2.5721" height="9.6587" style="fill:none;stroke:#d3d3d3;stroke-linecap:round;stroke-miterlimit:15.118106842041016;stroke-width:0.4962972029869519px;isolation:isolate;opacity:0.9940000176429749"/><rect x="1139.2598" y="574.4264" width="2.5721" height="9.6587" style="fill:none;stroke:#d3d3d3;stroke-linecap:round;stroke-miterlimit:15.118106842041016;stroke-width:0.4962972029869519px;isolation:isolate;opacity:0.9940000176429749"/><rect x="1141.8319" y="574.4264" width="2.5721" height="9.6587" style="fill:none;stroke:#d3d3d3;stroke-linecap:round;stroke-miterlimit:15.118106842041016;stroke-width:0.4962972029869519px;isolation:isolate;opacity:0.9940000176429749"/><rect x="1144.4041" y="574.4264" width="2.5721" height="9.6587" style="fill:none;stroke:#d3d3d3;stroke-linecap:round;stroke-miterlimit:15.118106842041016;stroke-width:0.4962972029869519px;isolation:isolate;opacity:0.9940000176429749"/><rect x="1146.9761" y="574.4264" width="2.5721" height="9.6587" style="fill:none;stroke:#d3d3d3;stroke-linecap:round;stroke-miterlimit:15.118106842041016;stroke-width:0.4962972029869519px;isolation:isolate;opacity:0.9940000176429749"/><rect x="1149.5482" y="574.4264" width="2.5721" height="9.6587" style="fill:none;stroke:#d3d3d3;stroke-linecap:round;stroke-miterlimit:15.118106842041016;stroke-width:0.4962972029869519px;isolation:isolate;opacity:0.9940000176429749"/><rect x="1152.1203" y="574.4264" width="2.5721" height="9.6587" style="fill:none;stroke:#d3d3d3;stroke-linecap:round;stroke-miterlimit:15.118106842041016;stroke-width:0.4962972029869519px;isolation:isolate;opacity:0.9940000176429749"/><rect x="1154.6925" y="574.4264" width="2.5721" height="9.6587" style="fill:none;stroke:#d3d3d3;stroke-linecap:round;stroke-miterlimit:15.118106842041016;stroke-width:0.4962972029869519px;isolation:isolate;opacity:0.9940000176429749"/><path d="M1193.1445,536.9242c-3.1034-4.2915-1.851-9.0955-.5916-13.9l.7887,4.042c1.6119-1.8086,2.1542-7.04,2.4646-13.0131l1.4787,3.9434c1.4221-1.144,2.1119-5.4609,2.76-9.9571.6912,3.75,1.1665,7.3734,2.9082,10.2035,0,0,1.35-3.343,1.0355-3.1054-.358.27,1.8127,12.5618,2.3659,11.5344l.0989-3.549c.3254,4.6006,4.8676,9.2012.3947,13.8018Z" transform="translate(-57)" style="fill:#e52521;stroke:#bd1818;stroke-miterlimit:15.118106842041016;stroke-width:0.399998655776308px"/><path d="M1187.1722,560.6279c-7.9859,2.08-10.8067,9.6722-11.43,13.8019h48.5164c-.6237-4.13-3.4482-11.7215-11.4341-13.8019h-25.6519Z" transform="translate(-57)" style="fill:#fff;stroke:#d3d3d3"/><path d="M1191.3533,542.9222c-9.2121,6.0182-7.0613,13.8309-4.1811,17.7057h25.6556c2.88-3.8748,5.031-11.6875-4.1811-17.7057h-17.2934Z" transform="translate(-57)" style="fill:#fff;stroke:#d3d3d3"/><path d="M1191.076,536.9242v5.998h17.848v-5.998Z" transform="translate(-57)" style="fill:#fff;stroke:#d3d3d3;stroke-linecap:round;fill-rule:evenodd;isolation:isolate;opacity:0.9940000176429749"/><path d="M1200.0068,910.493,1012.813,1038.42h374.3876Z" transform="translate(-57)" style="fill:#a8a8a8;stroke:#bdbebe;stroke-miterlimit:36.43996975005575;stroke-width:0.5921494867184914px;isolation:isolate;opacity:0.9980000257492065"/><path d="M1063.7107,1013.9541h19.4826l116.8135-99.1331Z" transform="translate(-57)" style="fill:#fff;isolation:isolate;opacity:0.9980000257492065"/><path d="M1194.5339,949.0735v.0443q-1.5406-.0222-3.0779.1055c-8.2053,1.0239-7.492,7.5365-14.7826,8.5741-1.3517-2.2937-2.5789-4.5818-5.76-6.6571.71,3.29,1.7974,6.8491-.9058,7.6683-1.5564-2.4848-3.8091-3.4651-5.98-4.6256.2457,1.8977-1.3767,2.3614,2.1457,6.7713-1.6247.2459-3.41-1.6656-5.4171,0s-.3429,6.6511-6.3228,11.6344c.4778-5.1881-2.3192-8.8382-3.0428-12.9886-3.8773,4.97-2.1424,9.3156-1.46,13.78a5.1079,5.1079,0,0,0-3.0515,3.3857c-.3822,3.1948.636,6.1557,1.4686,9.1457,32.2343.7646,28.5821-14.0474,31.5175-17.3241,2.5394,3.5907,1.9931,10.9781-5.5842,15.1695,2.8125,3.2631,3.1956,4.4788,8.4246,2.8405,3.0719,3.8774,6.8706,7.2636,9.1369,11.6872,1.2015,2.2391.8871,4.4619.7915,6.7009l4.1507,1.5916-.3165,2.8757c-9.5569-4.0686-5.91,1.28-7.9849,2.55,3.7682-.6963,6.8441-.4475,9.1105.9586,2.4439,2.28,6.3271,1.3919,11.01-1.284l-1.1168-2.559c-2.2254-4.9287-1.4991-9.2138-1.1169-13.5691-2.321.0545-1.9428.5978-6.6394.9938l1.9962,13.059c.15.9831-1.4987,1.2635-1.9083.308l-2.7173-10.6846c-2.3483-4.9423-3.4951-9.5421-7.0175-14.853a44.9844,44.9844,0,0,1,8.46,10.5352,21.4338,21.4338,0,0,1,8.4686-2.55c1.611-14.8543,10.049-11.0781,4.7927-28.4308,9.2157,9.5706,5.1038,11.2823-.1937,20.6481-1.3106,2.3074-.74,5.3927-1.0816,9.3656l13.4108-3.8341c2.6486,1.8567,6.8258,6.6174,2.2249,13.8944,2.7578.0681,3.949,1.392,5.7512,2.2248,1.256-4.1368,3.7652-7.7562.4749-13.7361l-3.8342-2.6991c4.9424-7.864,5.3388-15.2349,6.2262-22.662,1.27-.8054,2.3181-1.0918,2.55.6419-2.84,18.9092-3.2255,19.4924-5.7512,21.5539l8.4686,3.1923-3.034,1.4333-1.2839,9.7349,3.4472,1.0289.2815,2.7877c-4.8741,2.3619-6.9652-.81-9.1633-1.4247-3.0036,2.6487-5.022.5734-7.343,0l-2.0753,3.0339c3.9593.7918,6.6906,1.7412,10.3768-.3341,2.6077,5.2154,6.1587,2.1571,11.6608,1.4334l-1.6005-6.2174c3.8228-2.8261,4.5395-8.7826,4.4849-15.4861.6143-3.4678.4043-7.288,2.2337-10.21l1.5829-2.3743,2.5679,8.9082c.7509-27.7425-15.5491-32.3415-22.2663-31.5086-11.1817.9011-15.5269.2191-25.3706-1.0641-4.1094-.5325-3.8316-3.0742-10.0162-3.1835ZM1185.23,961.13a1.03,1.03,0,0,1,.95.3607c6.1983,10.5263.2125,16.9006-1.0025,18.2386-.4369.4915-1.4416.5189-.5541-.5189,4.6556-5.42,3.653-11.0627.4309-17.0427-.3686-.6826-.16-.9762.1757-1.0377Zm-21.466,8.82a21.7921,21.7921,0,0,1,4.2123.5628c-2.4166,5.3382-3.3043,4.7744-8.6972,3.8869-.0086-3.5583,2.0962-4.4447,4.4849-4.45Zm-.66,1.31a1.3653,1.3653,0,1,0,.0337,0h-.0073c-.0091,0-.0181,0-.0272,0Z" transform="translate(-57)" style="fill:#010101;isolation:isolate;opacity:0.9980000257492065"/><path d="M1336.3029,1013.9541H1316.82L1200.0068,914.821Z" transform="translate(-57)" style="fill:#fff;isolation:isolate;opacity:0.9980000257492065"/><circle cx="999.8433" cy="1026.3918" r="6.8264" style="fill:#f5e836;stroke:#8e891f;stroke-linejoin:round;stroke-width:0.7544403486814591px;isolation:isolate;opacity:0.9950000047683716"/><circle cx="1142.9795" cy="1026.3918" r="6.8264" style="fill:#f5e836;stroke:#8e891f;stroke-linejoin:round;stroke-width:0.7544403486814591px;isolation:isolate;opacity:0.9950000047683716"/><circle cx="1286.1157" cy="1026.3918" r="6.8264" style="fill:#f5e836;stroke:#8e891f;stroke-linejoin:round;stroke-width:0.7544403486814591px;isolation:isolate;opacity:0.9950000047683716"/></svg>