<?xml version="1.0" encoding="UTF-8" standalone="no"?>
<!-- Created with Inkscape (http://www.inkscape.org/) -->
<svg
   xmlns:svg="http://www.w3.org/2000/svg"
   xmlns="http://www.w3.org/2000/svg"
   xmlns:xlink="http://www.w3.org/1999/xlink"
   version="1.0"
   width="900"
   height="630"
   id="svg2">
  <defs
     id="defs5" />
  <rect
     width="900"
     height="630"
     x="0"
     y="0"
     id="rect2407"
     style="fill:#007524;stroke:none" />
  <g
     id="g2409">
    <path
       d="M 445.375,106.34375 C 422.56661,108.66237 404.75,127.92688 404.75,151.34375 C 404.75,174.80254 422.63293,194.11311 445.5,196.375 L 445.5,106.34375 C 445.45914,106.34779 445.41583,106.3396 445.375,106.34375 z M 454.5,106.34375 L 454.5,196.375 C 477.36707,194.1131 495.25,174.80255 495.25,151.34375 C 495.25,127.88496 477.36707,108.60565 454.5,106.34375 z"
       id="path2384"
       style="fill:#ffffff;stroke:none" />
    <use
       transform="matrix(0.8091025,-0.5879309,0.5878474,0.8092174,-99.064936,324.83998)"
       id="use2389"
       x="0"
       y="0"
       width="900"
       height="630"
       xlink:href="#path2384" />
    <use
       transform="matrix(1,0,0,1.005193,0,326.60522)"
       id="use2391"
       x="0"
       y="0"
       width="900"
       height="630"
       xlink:href="#path2384" />
    <use
       transform="matrix(0.3089302,-0.950848,0.9510079,0.3090202,11.544151,645.86279)"
       id="use2393"
       x="0"
       y="0"
       width="900"
       height="630"
       xlink:href="#path2384" />
    <use
       transform="matrix(-0.3089981,-0.9508499,0.9511222,-0.30899,289.58871,840.39636)"
       id="use2395"
       x="0"
       y="0"
       width="900"
       height="630"
       xlink:href="#path2384" />
    <use
       transform="matrix(-0.8090543,-0.5877685,0.5879807,-0.8092256,629.08369,834.72198)"
       id="use2397"
       x="0"
       y="0"
       width="900"
       height="630"
       xlink:href="#path2384" />
    <use
       transform="matrix(-0.8091025,-0.5879309,-0.5878474,0.8092174,999.56494,324.83998)"
       id="use2399"
       x="0"
       y="0"
       width="900"
       height="630"
       xlink:href="#path2384" />
    <use
       transform="matrix(-0.3089302,-0.950848,-0.9510079,0.3090202,888.95585,645.86279)"
       id="use2401"
       x="0"
       y="0"
       width="900"
       height="630"
       xlink:href="#path2384" />
    <use
       transform="matrix(0.3089981,-0.9508499,-0.9511222,-0.30899,610.91129,840.39636)"
       id="use2403"
       x="0"
       y="0"
       width="900"
       height="630"
       xlink:href="#path2384" />
    <use
       transform="matrix(0.8090543,-0.5877685,-0.5879807,-0.8092256,271.41631,834.72198)"
       id="use2405"
       x="0"
       y="0"
       width="900"
       height="630"
       xlink:href="#path2384" />
  </g>
</svg>
