<?xml version="1.0" encoding="UTF-8" standalone="no"?>
<!-- Creator: CorelDRAW -->

<svg
   xmlns:dc="http://purl.org/dc/elements/1.1/"
   xmlns:cc="http://creativecommons.org/ns#"
   xmlns:rdf="http://www.w3.org/1999/02/22-rdf-syntax-ns#"
   xmlns:svg="http://www.w3.org/2000/svg"
   xmlns="http://www.w3.org/2000/svg"
   xmlns:sodipodi="http://sodipodi.sourceforge.net/DTD/sodipodi-0.dtd"
   xmlns:inkscape="http://www.inkscape.org/namespaces/inkscape"
   xml:space="preserve"
   width="800"
   height="400"
   style="fill-rule:evenodd"
   viewBox="0 0 2480 3507.9997"
   id="svg2403"
   sodipodi:version="0.32"
   inkscape:version="0.91 r13725"
   sodipodi:docname="Flag_of_Hungary_(11th_-_12th_century).svg"
   inkscape:output_extension="org.inkscape.output.svg.inkscape"
   version="1.0"><metadata
     id="metadata2425"><rdf:RDF><cc:Work
         rdf:about=""><dc:format>image/svg+xml</dc:format><dc:type
           rdf:resource="http://purl.org/dc/dcmitype/StillImage" /><dc:title></dc:title></cc:Work></rdf:RDF></metadata><sodipodi:namedview
     inkscape:window-height="997"
     inkscape:window-width="1680"
     inkscape:pageshadow="2"
     inkscape:pageopacity="0.0"
     guidetolerance="10.0"
     gridtolerance="10.0"
     objecttolerance="10.0"
     borderopacity="1.0"
     bordercolor="#666666"
     pagecolor="#ffffff"
     id="base"
     showgrid="false"
     showguides="true"
     inkscape:guide-bbox="true"
     inkscape:zoom="1.965"
     inkscape:cx="400"
     inkscape:cy="200.00002"
     inkscape:current-layer="svg2403"
     inkscape:object-nodes="true"
     inkscape:window-x="-8"
     inkscape:window-y="-8"
     inkscape:window-maximized="1" /><defs
     id="defs2405"><style
       type="text/css"
       id="style2407">
   
    .str0 {stroke:#D70000;stroke-width:2}
    .fil2 {fill:none}
    .fil1 {fill:#D70000}
    .fil0 {fill:#F5F5F5}
   
  </style><pattern
       y="0"
       x="0"
       height="6"
       width="6"
       patternUnits="userSpaceOnUse"
       id="EMFhbasepattern" /></defs><path
     inkscape:connector-curvature="0"
     style="fill:#cd2a3e;fill-opacity:1;stroke:#cd2a3e;stroke-width:8.7699976;stroke-miterlimit:4;stroke-dasharray:none;stroke-opacity:1"
     id="path2422"
     d="m -2263.6147,4.3850561 0,3499.2296439 2630.9985,0 0,-2630.99972 L 4709.268,43.399275 c 33.6742,-6.431041 34.103,-9.038362 34.3433,-21.474221 0.2105,-10.638009 -8.77,-17.5399979 -35.08,-17.5399979 l -4341.1475,0 -2630.9985,0 z"
     class="fil2 str0"
     sodipodi:nodetypes="ccccssccc" /><path
     inkscape:connector-curvature="0"
     id="path3341"
     d="m -1181.8007,422.0371 c 62.4686,148.45673 100.6856,290.29837 105.83,443.16476 l 0.7349,304.02284 -166.8298,0 c -166.0942,0 -318.9602,-39.6868 -478.4407,-106.5663 10.289,68.3496 16.1683,146.9881 16.1683,229.3008 0,83.0483 -5.8793,160.9516 -16.1683,230.0357 159.4805,-67.6143 312.3465,-107.3008 478.4407,-107.3008 55.1203,0.7352 110.9756,0 166.8298,0 l 0,973.2922 c 0,166.0862 -39.6867,318.2186 -106.5649,477.7 69.083,-10.289 146.9867,-16.1688 229.29865,-16.1688 83.04771,0 160.95054,5.8798 230.03162,16.1688 -66.87665,-159.4814 -106.56327,-311.6138 -106.56327,-477.7 l 0,-973.2922 c 55.85527,0 110.97294,0.7352 166.82822,0 166.09576,0 318.9629,39.6865 477.70977,107.3008 -10.28937,-69.0841 -16.16865,-146.9874 -16.16865,-230.0357 0,-82.3127 5.87928,-160.9512 16.16865,-229.3008 -158.74687,66.8795 -312.52448,89.1991 -477.70977,106.5663 l -166.82822,0 0.73519,-304.02284 c 5.1445,-152.86639 43.36109,-294.70803 105.82808,-443.16476 -69.08108,10.28908 -146.98391,16.16889 -230.03162,16.16889 -82.31195,0 -160.21565,-5.87981 -229.29865,-16.16889 z"
     style="fill:#ffffff;fill-opacity:1;fill-rule:evenodd;stroke:none;stroke-width:9.55412292px;stroke-linecap:butt;stroke-linejoin:miter;stroke-miterlimit:4;stroke-dasharray:none;stroke-opacity:1"
     sodipodi:nodetypes="cccscscccscscscccscscccsc" /></svg>