<?xml version="1.0" encoding="UTF-8"?>
<svg id="svg138" width="900" height="600" version="1.0" viewBox="0 0 900 600" xml:space="preserve" xmlns="http://www.w3.org/2000/svg">
  <path id="path132" d="m0 0h900v600h-900z" fill="#00237e"/>
  
  <path id="path136" d="m173.596 300c0-97.3215 78.8937-176.215 176.215-176.215 20.4651 0 40.1086 3.50058 58.3813 9.91523-31.0614-20.2029-68.1283-31.9498-107.943-31.9498-109.49 0-198.25 88.7588-198.25 198.25 0 109.49 88.7588 198.25 198.25 198.25 39.8162 0 76.8835-11.7473 107.945-31.9502-18.2727 6.41466-37.918 9.91557-58.3831 9.91557-97.3215-9e-4 -176.215-78.8937-176.215-176.215z" fill="#ffffff"/>
<g id="g480" fill="#ffffff"><path id="path308-6" d="m396.192 386.477-8.49759 26.1564h-27.5018l22.2485 16.1649-8.49878 26.1552 22.2497-16.1649 22.2497 16.1649-8.49877-26.1564 22.2497-16.1637h-27.5018z"/><path id="path306-7" d="m396.192 306-8.49758 26.1564h-27.5018l22.2485 16.1661-8.49878 26.154 22.2497-16.1649 22.2497 16.1653-8.49878-26.1556 22.2497-16.1649h-27.5018z"/><path id="path304-8" d="m396.192 225.523-8.49758 26.1566h-27.5018l22.2485 16.1649-8.49878 26.1552 22.2497-16.1661 22.2497 16.1664-8.49878-26.1555 22.2497-16.1649h-27.5018z"/><path id="path134-2" d="m396.193 145.046-8.49817 26.1564h-27.5018l22.2485 16.1637-8.49878 26.1552 22.2497-16.1649 22.2496 16.166-8.49867-26.1563 22.2497-16.1637h-27.5018z"/></g></svg>
