<?xml version="1.0" encoding="UTF-8" standalone="no"?>
<svg version="1.0" height="450" width="545" 
	xmlns:svg="http://www.w3.org/2000/svg" 
	xmlns="http://www.w3.org/2000/svg"
	xmlns:xlink="http://www.w3.org/1999/xlink">


<!--background-->
<rect style="fill:#0466b4" x="0" y="0" height="450" width="545"/>
<rect style="fill:#dddddd" x="62" y="62" height="326" width="421"/>

<g id="cross">
<g transform="scale(1.18)">
<path style="fill:#f9d40b;stroke:black;stroke-width:1.2px;stroke-linejoin:miter" 
	d="M 31.5,14 h 7 c 1.1,-0.1 2.1,-0.3 2.6,-1 v 10 c -0.5,-0.7 -1.5,-0.9 -2.6,-1 h -7 v 9 
	h 7 c 1.1,-0.1 2.1,-0.3 2.6,-1 v 10 c -0.5,-0.7 -1.5,-0.9 -2.6,-1 h -7 
	v 7 c 0.1,1 0.4,2 1.2,2.5 h -10 c 0.7,-0.5 1,-1.5 0.9,-2.4 v -7 
	h -7 c -1.1,0.1 -2.1,0.3 -2.6,1 v -10 c 0.5,0.7 1.5,0.9 2.6,1 h 7 
	v -9 h -7 c -1.1,0.1 -2.1,0.3 -2.6,1 v -10 c 0.5,0.7 1.5,0.9 2.6,1 h 7 
	v -7 c -0.1,-1 -0.4,-2 -1.2,-2.5 h 10 c -0.7,0.5 -1,1.5 -0.9,2.4 v 7 z"/>
</g>
</g>

<use xlink:href="#cross" transform="translate(162,0)"/>
<use xlink:href="#cross" transform="translate(319,0)"/>
<use xlink:href="#cross" transform="translate(480,0)"/>

<use xlink:href="#cross" transform="translate(0,194)"/>
<use xlink:href="#cross" transform="translate(480,194)"/>

<use xlink:href="#cross" transform="translate(0,387)"/>
<use xlink:href="#cross" transform="translate(162,387)"/>
<use xlink:href="#cross" transform="translate(319,387)"/>
<use xlink:href="#cross" transform="translate(480,387)"/>



<!--tongue and teeth-->
<g style="fill:#b22;stroke:#202020;stroke-width:1px">
<path d="m 264.1,123.2 c -1.6,1.6 -2.9,3.4 -3.8,5.4 h7.9 c -1.1,-2.1 -2.3,-4 -4.1,-5.4 z" />
<path d="m 272.5,122.4 c -3.9,1.6 -2.8,4.4 -1.8,7.3 l 4.7,-0.9 c -0.5,-2.5 -1.1,-4.9 -2.9,-6.4 z" />
<path d="m 258.4,116.1 c -2.7,-1.5 -3,-4.7 -3.5,-7 h7.3 c -0.9,2.6 -2,5.1 -3.8,7 z" />
<path d="m 265.9,116.1 c -2.2,-1.9 -2.8,-4.5 -3.7,-7 h7.4 c -1,2.4 -1.7,4.9 -3.7,7 z" />
<path d="m 274.4,116.2 c -3.1,-1.8 -3.5,-4.6 -4.8,-7.1 h9.6 c -1.3,2.5 -2.6,5.1 -4.8,7.1 z" />

<path d="m 237.6,99.2 c -6.4,12.3 7.9,18.5 18.2,18.6 l 44.8,-0.2 -45.5,5.1 c -21,2.6 -31.2,-11.9 -17.5,-23.4 z"/>
</g>

<!--bear-->
<g fill="#202020">
<path d="m 274,250.8 c -24.9,2.3 -79.8,31 -46.1,76.2 4.1,5.6 -1,12.2 -9.5,5.8 l -13.6,-9.2 c -10.9,-5.6 -21,14.3 -15,19.4 
	l 12.7,9.9 c 12.2,6.2 25.2,0.8 38,9.7 6,3.9 12.7,1.3 12.7,-4.4 0.1,-47.2 19,-64.1 44.9,-74.6 z"/>
<path d="m 263.2,162 c -41.7,4.7 -50.3,-12.8 -50.2,-21.6 l -0.2,-18.2 c 0.1,-5.9 -20.5,-10 -24.7,9 -1.7,8.4 -0,16.2 
	3,23.7 0.1,4.9 3.4,7.9 8.5,9.4 18.3,12.4 23.2,36.3 57.8,34.5 z"/>
<path style="fill:none;stroke:#dddddd;stroke-width:4px;stroke-linecap:round" 
	d="m 320.2,320.3 c -23.9,4.2 -30.7,-13.9 -35.2,-36.2 c -36.1,-18.2 -56,-127.4 -6.2,-139.8"/>
<path d="m 287.4,133.4 c -10.2,4.5 -18.7,4.6 -26.2,2.2 -3.1,-0.9 -2.5,-9.9 1.2,-9.5 5.6,0.6 10.7,1.7 19,-0.4 8.5,-2.8 
	4,-13.5 -3.4,-13.5 -10.3,-0.2 -16.3,-1.2 -23,-2 -5.1,-0.8 -10.1,-9.3 -3.4,-17.4 3.3,-3.6 11.9,0.7 17.5,1.6 
	7.7,-9.9 19.7,-10.2 33.8,-6.2 0.3,-6.8 8.5,-9.2 15.1,-4.6 2.3,2.3 1.1,6.2 0.6,9.1 18.4,11.9 35.7,50.4 
	23.6,81 -10.5,26 -15.5,53.7 3,69.8 6.7,5 14,9.6 14.3,18.5 -0.1,3.7 -3.6,5.5 -6.2,3.2 l -6.2,-6.2 c -2.4,14.4 
	-2.9,28.8 -2,43.2 7,6.7 12.5,14.1 15.3,22.8 1.2,3.9 2.6,10 -1.2,12 -7.4,4.1 -15,8.1 -19,14.5 -8,10.7 
	-19.8,15.4 -35.5,13.8 -12.5,-1.8 -9.5,-23.2 -1,-25 7.5,-1.4 15.1,-3 23,-6 5.1,-2.1 0,-15.5 -6.5,-14 -23.9,4.2 
	-30.7,-13.9 -35.2,-36.2 -36.1,-18.2 -56,-127.4 -6.2,-139.8 6.6,-1.4 8,-6 8.9,-10.9 z"/>
<path style="fill:none;stroke:#dddddd;stroke-width:4px;stroke-linecap:butt" d="
	M 311.7,152.5 c -15.7,3.8 -25.5,14.6 -34.8,25.5 c -8.1,7.9 -17.9,17.2 -28.1,20.5 
	M 253.4,233.5 c 19.5,-1.2 37.1,-12.3 53.2,-28.5"/>
<path d="m 316.7,152.5 h-5 c -15.7,3.8 -25.5,14.6 -34.8,25.5 -8.1,7.9 -17.9,17.2 -28.1,20.5 -13.5,4.4 -27,8.9 -38.2,15.6 
	-6,-4.2 -7.4,-9 -10.4,-13.6 -6.7,-10.2 -26.3,-1.8 -23.2,8 2.4,10.6 8.4,19.9 20.7,26.7 2.7,2.5 5.9,4.4 13.8,0.4 
	l 41.9,-2.1 c 19.5,-1.2 37.1,-12.3 53.2,-28.5 z" />
</g>

<g style="fill:none;stroke:#dddddd;stroke-linecap:round">
<path stroke-width="2px" d="m 290,256.6 c -8.5,4.1 -7.1,16.2 -6,27.4"/>
<path stroke-width="1px" d="m 259.4,99.2 c 0,4.9 -2.1,8.3 -6.4,10.2"/>
<path stroke-width="1px" d="m 307.3,89.7 c -1.6,-5.6 5,-8.1 11.8,-3.1"/>
</g>

<!--eye-->
<path fill="#dddddd" d="m 287.7,96.2 -8.8,-0.9 c -5,-0.4 -5.7,9.8 2,7.3 3.2,-1.4 5.4,-3.6 6.7,-6.5 z"/>
<circle fill="#202020" cx="280" cy="99" r="2"/>

<!--nails-->
<g id="nails">
<g style="fill:#b22;stroke:#202020;stroke-width:1px">
<path d="m 202,107.2 c 6.4,1.4 10.5,5 10.4,10.2 l -0.2,6.6 c -0,2.6 -4.1,-2.2 -4.5,-5.1 -0.4,-4.6 -3.2,-8.1 -5.7,-11.6 z" />
<path d="m 190.4,110.5 c 9,-1.9 12.7,2 15,7.5 1.6,4 -4.7,5.6 -5,2.8 -0.7,-4.8 -4.5,-8 -10,-10.3 z" />
<path d="m 181.8,116.7 c 7.9,-5 12.2,-1 16.4,3.4 2.2,2.4 -3.3,6.7 -4.9,4.1 -2.1,-4 -5.2,-7 -11.4,-7.5 z" />
<path d="m 177.5,123.7 c 4,-2.9 8.9,-5.2 14.5,1.9 1.8,2.3 -2.5,7.6 -3.1,6.2 -2,-4.9 -6.5,-6.7 -11.4,-8 z" />
</g>
</g>

<use xlink:href="#nails" transform="translate(19,78) rotate(-22 190,205)"/>
<use id="n2" xlink:href="#nails" transform="translate(134,160) rotate(-40 200,335)"/>
<use xlink:href="#n2" transform="translate(102,-33) rotate(-26 310,353)"/>

</svg>