<?xml version="1.0" encoding="UTF-8" standalone="no"?>
<svg xmlns:dc="http://purl.org/dc/elements/1.1/" xmlns:cc="http://creativecommons.org/ns#" xmlns:rdf="http://www.w3.org/1999/02/22-rdf-syntax-ns#" xmlns:svg="http://www.w3.org/2000/svg" xmlns="http://www.w3.org/2000/svg" xmlns:xlink="http://www.w3.org/1999/xlink" xmlns:sodipodi="http://sodipodi.sourceforge.net/DTD/sodipodi-0.dtd" xmlns:inkscape="http://www.inkscape.org/namespaces/inkscape" version="1.0" height="382" width="458" id="svg594" sodipodi:docname="Vilnius_County_flag.svg" inkscape:version="1.0.1 (3bc2e813f5, 2020-09-07)">
  <metadata id="metadata598">
    <rdf:RDF>
      <cc:Work rdf:about="">
        <dc:format>image/svg+xml</dc:format>
        <dc:type rdf:resource="http://purl.org/dc/dcmitype/StillImage"/>
      </cc:Work>
    </rdf:RDF>
  </metadata>
  <sodipodi:namedview pagecolor="#ffffff" bordercolor="#666666" borderopacity="1" objecttolerance="10" gridtolerance="10" guidetolerance="10" inkscape:pageopacity="0" inkscape:pageshadow="2" inkscape:window-width="1280" inkscape:window-height="961" id="namedview596" showgrid="false" showguides="true" inkscape:guide-bbox="true" inkscape:zoom="0.69151641" inkscape:cx="215.20543" inkscape:cy="30.58118" inkscape:window-x="-8" inkscape:window-y="-8" inkscape:window-maximized="1" inkscape:current-layer="svg594"/>
  <!--background-->
  <rect style="fill:#0466b4" x="0" y="0" height="382" width="458" id="rect417"/>
  <rect style="fill:#ed1b25" x="52" y="52" height="278" width="354" id="rect419"/>
  <g id="cross">
    <path style="fill:#f9d40b;stroke:black;stroke-width:1.2px;stroke-linejoin:miter" d="M 31.5,14 h 7 c 1.1,-0.1 2.1,-0.3 2.6,-1 v 10 c -0.5,-0.7 -1.5,-0.9 -2.6,-1 h -7 v 9   h 7 c 1.1,-0.1 2.1,-0.3 2.6,-1 v 10 c -0.5,-0.7 -1.5,-0.9 -2.6,-1 h -7   v 7 c 0.1,1 0.4,2 1.2,2.5 h -10 c 0.7,-0.5 1,-1.5 0.9,-2.4 v -7   h -7 c -1.1,0.1 -2.1,0.3 -2.6,1 v -10 c 0.5,0.7 1.5,0.9 2.6,1 h 7   v -9 h -7 c -1.1,0.1 -2.1,0.3 -2.6,1 v -10 c 0.5,0.7 1.5,0.9 2.6,1 h 7   v -7 c -0.1,-1 -0.4,-2 -1.2,-2.5 h 10 c -0.7,0.5 -1,1.5 -0.9,2.4 v 7 z" id="path421"/>
  </g>
  <use xlink:href="#cross" transform="translate(137,0)" id="use424"/>
  <use xlink:href="#cross" transform="translate(269,0)" id="use426"/>
  <use xlink:href="#cross" transform="translate(405,0)" id="use428"/>
  <use xlink:href="#cross" transform="translate(0,164)" id="use430"/>
  <use xlink:href="#cross" transform="translate(405,164)" id="use432"/>
  <use xlink:href="#cross" transform="translate(0,328)" id="use434"/>
  <use xlink:href="#cross" transform="translate(137,328)" id="use436"/>
  <use xlink:href="#cross" transform="translate(269,328)" id="use438"/>
  <use xlink:href="#cross" transform="translate(405,328)" id="use440"/>
  <!--absolutely black spherical horse in vacuum-->
  <!--horse eye-->
  <!--gap between tail and body-->
  <path style="fill:#ed1b25;stroke:none;" d="m 316.2,230.3 c -1.1,2.2 0.9,2.4 1.7,1.7 l 6,-4.2 1.2,-0 0.1,-3.8 c 7.7,-7.3 6.3,-14.5 3,-17.4 -7.1,-5.9   -16.9,3.3 -9.4,10.1 1.3,1.5 0.2,8.7 -2.8,13.6 z" id="path446"/>
  <!--horse bridle-->
  <!--horseshoes-->
  <defs id="defs475">
    <g id="horseshoe_frontal">
      <path style="fill:#f9d40b;stroke:black;stroke-width:0.5px;" d="M 272,311 h15 a1,1,0,0,1,0,2 h-15 a1,1,0,0,1,0,-2 z" id="path472"/>
    </g>
    <style id="style4326" type="text/css"/>
    <style id="style6" type="text/css"/>
  </defs>
  <!--bridle connections-->
  <!--saddle-->
  <!--spear-->
  <!--knight-->
  <!--leg-->
  <!--right hand-->
  <!--body-->
  <!--left hand-->
  <!--head-->
  <!--shield-->
  <g id="g4935" transform="matrix(0.39115157,0,0,0.39115172,-531.62894,-39.290373)">
    <g id="g3919" transform="translate(2205.0417,-43.879141)">
      <g id="g4466">
        <path sodipodi:nodetypes="sccscs" transform="translate(-634.66868,207.23547)" inkscape:connector-curvature="0" id="path4450" d="m 181.07143,275.58765 c 0,28.39286 0,126.67857 0,126.67857 h 34.38013 c 0,0 0,-98.28571 0,-126.67857 0,-28.39286 -5.89285,-113.57143 -17.19006,-135 -11.29722,21.42857 -17.19007,106.60714 -17.19007,135 z" style="color:#000000;display:inline;overflow:visible;visibility:visible;fill:#dcdddf;fill-opacity:1;stroke:#000000;stroke-width:2;stroke-linecap:butt;stroke-linejoin:miter;stroke-miterlimit:4;stroke-dasharray:none;stroke-dashoffset:0;stroke-opacity:1;marker:none;enable-background:accumulate"/>
        <path style="color:#000000;display:inline;overflow:visible;visibility:visible;fill:#000000;stroke:none;stroke-width:2;marker:none;enable-background:accumulate" d="m -437.52583,507.71969 c 0,22.81271 0,101.782 0,101.782 h 2.23729 c 0,0 0,-78.96929 0,-101.782 0,-22.81272 -0.38348,-91.25086 -1.11864,-108.468 -0.73517,17.21714 -1.11865,85.65528 -1.11865,108.468 z" id="path4464" inkscape:connector-curvature="0" sodipodi:nodetypes="sccscs"/>
        <path sodipodi:nodetypes="cczccc" transform="translate(-634.66868,207.23547)" inkscape:connector-curvature="0" id="path4448" d="m 139.65359,411.74098 v -21.30511 c 0,0 16.23867,8.34918 58.60791,8.34918 42.36923,0 58.6079,-8.34918 58.6079,-8.34918 v 21.30511 z" style="color:#000000;display:inline;overflow:visible;visibility:visible;fill:#dcdddf;fill-opacity:1;stroke:#000000;stroke-width:2;stroke-linecap:butt;stroke-linejoin:miter;stroke-miterlimit:4;stroke-dasharray:none;stroke-dashoffset:0;stroke-opacity:1;marker:none;enable-background:accumulate"/>
      </g>
      <g id="g3929">
        <path sodipodi:nodetypes="ccccccccccsccssccsc" transform="translate(-634.66868,207.23547)" inkscape:connector-curvature="0" id="path3927" d="m 313.21428,211.65908 c 0,0 -2.52166,11.72072 6.04977,15.73858 0,-0.26786 1.71809,-8.50644 2.25381,-12.79215 0,0 0.80357,7.54596 4.28571,10.76024 0,0 3.75,-4.33167 4.82143,-11.29596 z m 10.17858,36.16071 c 0,0 -0.53572,-2.94643 0.80357,-9.64286 0,0 5.35714,5.08929 8.30357,7.23215 0,0 -1.45024,-5.73595 -1.18239,-11.09309 0,0 5.20025,3.32523 8.14667,7.61095 2.94643,4.28571 -11.7857,10.44642 -16.07142,5.89285 z m -38.02477,-26.33193 c 0,0 -1.13642,14.77348 12.87945,20.07678 14.01586,5.3033 28.41054,-7.19734 36.7443,-10.22779 8.33375,-3.03046 20.45558,4.54568 20.45558,4.54568 l 3.03046,-6.06091 c 0,0 -11.25327,-13.12827 -30.57243,-4.76759 -18.48104,7.99798 -32.30956,5.14639 -42.53736,-3.56617 z" style="color:#000000;display:inline;overflow:visible;visibility:visible;fill:#dcdddf;fill-opacity:1;stroke:#000000;stroke-width:2;stroke-linecap:butt;stroke-linejoin:miter;stroke-miterlimit:4;stroke-dasharray:none;stroke-dashoffset:0;stroke-opacity:1;marker:none;enable-background:accumulate"/>
      </g>
      <g id="g3912">
        <path sodipodi:nodetypes="cccsccscssccscscsccczscsssscscsscssssccssccccsccssscsscsccsccccscscscccccscscccscsccccscsccccsscsssscscscsssscssscc" style="color:#000000;display:inline;overflow:visible;visibility:visible;fill:#ffd30d;fill-opacity:1;stroke:#000000;stroke-width:2;stroke-linecap:butt;stroke-linejoin:miter;stroke-miterlimit:4;stroke-dasharray:none;stroke-dashoffset:0;stroke-opacity:1;marker:none;enable-background:accumulate" d="m 491.25,273.44479 c 0,0 3.75,-7.5 2.14285,-17.67857 0,0 14.46429,0 15,-15 0,0 -6.72584,4.9653 -9.3775,0.41961 -2.65165,-4.54568 -5.6821,-14.39467 -15.53109,-19.69797 0,0 5.3033,-3.03046 10.6066,-3.40927 0,0 -8.98541,-6.78829 -19.69798,-16.28871 -9.77065,-8.66508 -14.77347,-17.42513 -31.8198,-21.2132 0,0 10.8526,-14.80394 16.28872,-27.65292 5.43609,-12.84899 23.00127,-15.18263 29.54695,-18.94037 5.69087,-3.26699 6.43973,-6.43972 6.43973,-6.43972 0,0 -7.95496,-1.51523 -23.10724,7.19734 0,0 2.01529,-5.06092 5.3033,-10.2278 3.28801,-5.16688 0.75761,-8.71256 0.75761,-8.71256 0,0 -6.95495,4.81852 -11.74302,14.39468 -4.78807,9.57613 -15.9099,14.01586 -26.89531,15.15228 0,0 0.75761,-9.47018 11.74302,-12.87944 10.98541,-3.40927 10.98541,-7.95496 10.98541,-7.95496 0,0 -8.71257,-1.51522 -18.18275,5.68211 2.26886,-6.36152 8.3987,-9.27732 4.9245,-15.9099 0,0 -4.91677,0.37646 -11.47517,12.83349 -6.5584,12.45703 -19.20822,13.68301 -32.46647,20.12274 -9.375,4.55357 -19.31917,11.74302 -18.18274,19.31916 0,0 -5.55584,-0.25253 -13.51079,-5.93464 -7.95496,-5.68211 -20.45559,-4.54569 -24.24367,3.78807 -3.78807,8.33376 -10.36421,10.25877 -20.07678,13.63706 -9.71256,3.37829 -15.94506,4.57206 -22.23077,5.75064 -6.28571,1.17857 -5.64404,12.58928 0.51667,12.85714 0,0 -0.76179,15.10606 11.36004,17.3789 12.12183,2.27285 20.07678,-3.40926 20.07678,-3.40926 0,0 15.5311,1.13642 18.18275,12.12183 2.65165,10.98541 -2.16547,13.09603 -12.12183,16.66751 -9.92824,3.5614 -11.74303,8.71258 -23.10724,6.81854 0,0 -0.65165,12.49201 10.22779,13.13198 10.87945,0.63997 10.98541,-6.43972 18.18275,-11.74303 7.19733,-5.3033 20.07678,0 19.31916,9.84899 -0.75761,9.84899 -16.56154,30.39767 -31.81981,32.57742 -15.25824,2.17975 -18.18274,-8.71256 -18.18274,-8.71256 -6.96315,8.58306 -2.07828,25.60118 16.28871,29.16815 0,0 -32.66677,5.67581 -41.44207,26.15153 -8.56474,19.98441 -1.91354,27.35714 0,45.53571 1.91354,18.17857 -3.75,30 -3.75,30 0,0 -38.75,-1.25 -59.10714,0.35714 0,0 -12.36969,-9.48915 -26.38556,-3.80704 l -14.65092,3.91434 c 0,0 -9.84899,-4.16688 -15.90991,3.40926 -5.58488,6.98109 -0.75761,14.01587 -0.75761,14.01587 0,0 -8.71257,9.84898 0.75761,20.07678 0,0 -4.67195,5.17703 -1.64149,12.75317 3.03045,7.57615 13.01586,8.58376 18.56155,7.19734 5.54569,-1.38642 13.42424,-1.06257 23.10724,-1.13642 10.33375,-0.0788 28.41054,-4.92449 29.92577,-16.28871 0,0 6.87337,0.63346 16.03617,3.6618 10.71257,3.54054 15.9099,1.13643 18.94036,5.68211 3.03046,4.54569 0.3788,9.84899 -4.92449,12.87945 0,0 7.7363,2.99265 12.50063,-1.13643 5.68211,-4.92449 4.16688,-14.77348 4.16688,-14.77348 0,0 10.2278,8.33376 1.13642,21.21321 0,0 17.04633,0.3788 17.80394,-14.39468 0.75762,-14.77348 4.16688,-17.42513 10.2278,-17.04632 0,0 3.6618,7.57614 10.85914,11.74302 0,0 12.5514,-3.55212 29.29813,14.90347 0,0 7.01977,34.45469 -50.30166,41.95469 0,0 -25.17857,-6.42857 -43.39286,16.60715 -18.21429,23.03571 -13.39286,42.32142 -3.75,46.60714 0,0 2.9814,11.01508 -4.83713,15.79307 -7.81853,4.77799 -12.84099,-0.92495 -14.77349,-3.78807 -3.44773,4.71301 -0.3788,17.42512 9.84899,19.31916 10.22779,1.89404 15.9099,-7.57614 15.9099,-7.57614 0,0 3.78808,12.12183 -8.71256,17.42513 0,0 12.87944,10.6066 30.30458,-6.81853 0,0 1.51522,8.33376 -3.40927,14.01586 0,0 13.25825,0.75762 16.66752,-9.47017 0,0 11.35284,14.74255 4.53718,32.34969 -6.81567,17.60714 -34.82143,19.28571 -41.25001,17.14285 0,0 -3.69327,-14.51601 -17.70914,-11.86436 -14.01587,2.65165 -10.2278,25.00128 -10.2278,25.00128 l 18.18275,29.16815 c 0,0 9.47018,8.33376 25.00128,-0.37881 0,0 35.22907,3.40927 43.56282,-4.92449 8.33376,-8.33376 -0.75761,-14.39467 -0.75761,-14.39467 0,0 25.30484,-29.25341 43.37628,-41.53567 17.31812,-11.77027 16.07143,-37.49999 -11.25,-41.78571 0,0 -10.71429,-13.39286 -15.53572,-29.46429 0,0 24.10714,-20.89285 62.67857,-8.57142 0,0 -6.42857,42.14285 18.21429,49.64285 0,0 -0.11982,16.27173 -6.31715,18.55496 -6.19734,2.28323 -4.9245,-6.81853 -4.9245,-6.81853 0,0 -9.25494,1.09771 -4.16688,12.12183 5.00335,10.84059 27.27412,6.43972 29.92577,-7.57614 0,0 5.3033,12.87944 -5.3033,19.69797 0,0 15.5311,5.3033 27.27412,-18.56155 0,0 4.16688,5.68211 2.65165,12.12183 0,0 9.29371,0.10596 10.6066,-14.77348 1.31289,-14.87945 24.99328,-12.5025 38.25953,7.57614 14.01587,21.2132 3.03046,31.441 -6.06092,31.81981 0,0 -14.77348,-9.09138 -26.13769,5.3033 -11.36422,14.39467 5.3033,39.77475 14.77348,43.94163 9.47018,4.16688 20.07678,4.16688 33.71384,-14.39467 13.63706,-18.56155 37.50191,-20.8344 40.53237,-34.09265 3.03046,-13.25825 -10.22779,-17.80394 -10.22779,-17.80394 0,0 -1.51523,-14.52094 -8.71257,-25.50635 -7.19734,-10.98541 -10.22779,-30.30458 -10.22779,-30.30458 0,0 6.06091,-14.39467 -5.30331,-23.48604 -11.36421,-9.09138 -24.24366,-0.37881 -24.24366,-0.37881 0,0 -22.72843,3.78807 -29.92577,-10.22779 -7.19733,-14.01587 -0.3788,-21.97082 -0.3788,-32.19862 0,-10.22779 6.06091,-14.39467 10.6066,-10.98541 4.54569,3.40927 4.92449,11.36422 18.94036,16.28871 14.01587,4.9245 17.42513,-7.19733 17.42513,-7.19733 0,0 -11.35075,-3.12029 -14.56504,-16.51314 -3.21428,-13.39286 -16.07143,-13.92858 -24.64285,-16.60715 -8.57143,-2.67857 -30,-33.21428 -35.89286,-46.07143 -5.89286,-12.85714 9.64286,-44.46428 9.64286,-44.46428 z" id="path3910" inkscape:connector-curvature="0" transform="translate(-634.66868,207.23547)"/>
        <path sodipodi:nodetypes="ccccccsccsccccccsccscccccccccccccccsccccscczccccccccccccccccccsccccccccccccccccsccsccccccccsc" transform="translate(-634.66868,207.23547)" inkscape:connector-curvature="0" id="path3915" d="m 306.60714,196.48051 c 0,0 6.69643,-0.53572 9.91072,-5.08929 0,0 -1.07143,-2.14286 -2.41072,-2.94643 m 23.97322,22.23215 c 0,0 2.94642,-2.54465 4.15178,-6.69643 m 0.17857,-15.625 c 0,0 3.75,-4.82143 19.28572,-4.28572 15.53571,0.53572 31.33928,5.35715 38.03571,21.16072 0,0 -4.01786,0 -7.23214,2.14285 0,0 17.30313,8.88719 17.87447,29.20551 0.56364,20.04453 -7.35424,22.99629 -7.35424,22.99629 0,0 -4.34283,-12.99039 -13.10135,-15.86395 0,0 0.12627,3.72494 -4.04061,7.51301 0,0 -2.84105,-6.25032 -8.52316,-8.71256 m 8.64943,-75.76145 c 0,0 7.38674,0.94702 16.09931,0.56822 0,0 6.19972,-11.64149 21.19972,-16.46292 15,-4.82143 19.82143,-5.89286 19.82143,-5.89286 m -32.14286,31.875 c 0,0 5.35714,5.35714 10.44643,-2.41071 5.08929,-7.76786 4.82143,-19.82143 19.55357,-21.96429 m -8.83928,42.32143 c 0,0 -1.32025,-4.88085 -6.16072,-8.57143 0,0 11.12559,2.18882 17.28631,-6.91832 m 4.60793,105.32806 c 0,0 3.78807,-15.9099 1.89404,-35.60788 0,0 6.06091,0.37881 9.09137,3.03046 0,0 1.51523,-9.84898 -3.78807,-18.56155 m -120.58696,76.64532 1.89404,0.1894 c 0,0 -2.46225,10.60661 -10.98541,18.75096 0,0 19.2059,4.02343 41.66879,-3.21986 0,0 2.93582,6.97055 -4.83204,17.41698 0,0 21.42857,-2.14286 30.80357,-7.76786 m -71.91012,114.78631 c 0,0 -13.90536,-23.17779 -11.4507,-45.391 2.43751,-22.05808 13.82646,-37.69131 5.1139,-56.25286 m 44.49692,125.51827 c 0,0 29.55357,20.89285 30.89286,48.75 0,0 -10.80357,-5.71429 -19.64286,-4.375 0,0 8.57143,4.28571 10.71429,13.92857 2.14286,9.64286 6.96428,15.80357 13.92857,13.66071 m 9.11966,25.38235 c 0,0 2.75425,-13.95256 2.87356,-27.25508 0.11931,-13.30252 -1.09047,-33.35407 -10.18184,-38.27856 m -131.57237,60.23034 c 0,0 3.40926,18.94036 33.33503,3.40927 m 37.05096,19.72597 c 0,0 0.53571,-6.16072 6.69643,-11.78572 m -17.9885,91.4335 c 0,0 25.62496,-19.23119 33.20111,-30.2166 m 64.90996,-19.02833 c 0,0 21.59201,9.47018 29.54696,-12.87945 m 52.02286,-21.46574 c 0,0 0.3788,-4.54569 5.6821,-8.33376 m 11.36422,32.57742 c 0,0 12.12183,0.75762 16.66752,-9.09137 m -10.98541,8.71256 c 0,0 9.84899,12.87945 12.87944,30.68339 m 12.07474,18.50124 c 0,0 4.28571,-1.875 7.5,-0.26786 M 350.27039,184.55416 c 0,0 -0.69725,-19.0398 11.55362,-18.56156 12.74303,0.49746 9.65959,16.47812 15.15229,20.26619 M 230.94612,412.65923 c 0,0 3.59867,3.78807 3.97748,8.90197 m 8.87105,31.66037 c 0,0 0.80357,-5.49106 0.13392,-11.65178 m -27.05357,13.125 c 0,0 1.60714,-10.71428 14.19643,-10.17857 m -11.51786,4.01786 c 0,0 -9.91071,-0.80357 -13.66071,-14.19643 m 0,-4.28572 c 0,-0.53571 1.33928,-4.01785 6.96428,-4.28571 m -39.375,4.01786 c 0,0 3.75,4.01785 10.71429,5.625 m -9.91072,14.73214 c 0,0 3.75,2.67857 10.71429,2.94643 m 65.44643,246.42857 c 0,0 5.35714,-12.32143 16.60714,-12.85714 11.25,-0.53572 13.66071,7.76785 13.66071,7.76785 m -39.64285,-11.25 c 0,0 4.82143,-9.375 14.73214,-9.375 9.91071,0 12.05357,4.28572 12.05357,4.28572 m 235.66561,-4.44558 c 0,0 3.8129,2.60569 6.66742,6.32877 m -22.33303,35.34895 c 0,0 -4.82143,-19.01786 19.01786,-18.75 m -29.46429,0 c 0,0 5.08929,-15.53571 18.21429,-9.91071 M 351.51786,621.30193 c 0,0 -3.625,13.83929 5.625,17.14286 9.25,3.30357 13.39285,-0.53571 13.39285,-0.53571" style="color:#000000;display:inline;overflow:visible;visibility:visible;fill:none;stroke:#000000;stroke-width:1.5;stroke-linecap:round;stroke-linejoin:miter;stroke-miterlimit:4;stroke-dasharray:none;stroke-dashoffset:0;stroke-opacity:1;marker:none;enable-background:accumulate"/>
        <path transform="translate(-634.66868,207.23547)" inkscape:connector-curvature="0" id="path3917" d="m 353.83928,169.69479 c 0,0 0.80358,10.98215 7.23215,13.92857 l 1.875,-0.26785 c 0,0 1.33928,-9.91072 3.48214,-15.80357 0,0 -5.62501,-4.55358 -12.58929,2.14285 z" style="color:#000000;display:inline;overflow:visible;visibility:visible;fill:#000000;stroke:none;stroke-width:2;stroke-linecap:butt;stroke-linejoin:miter;stroke-miterlimit:4;stroke-dasharray:none;stroke-dashoffset:0;stroke-opacity:1;marker:none;enable-background:accumulate"/>
      </g>
      <path inkscape:connector-curvature="0" id="path4462" d="m -428.85997,622.11998 v 91.06028 h -15.09443 v -91.06028 z" style="color:#000000;display:inline;overflow:visible;visibility:visible;fill:#dcdddf;fill-opacity:1;stroke:#000000;stroke-width:2;stroke-linecap:butt;stroke-linejoin:miter;stroke-miterlimit:4;stroke-dasharray:none;stroke-dashoffset:0;stroke-opacity:1;marker:none;enable-background:accumulate" sodipodi:nodetypes="ccccc"/>
      <g id="g3952">
        <g id="g3955">
          <path style="color:#000000;display:inline;overflow:visible;visibility:visible;fill:#dcdddf;fill-opacity:1;stroke:#000000;stroke-width:2;stroke-linecap:butt;stroke-linejoin:miter;stroke-miterlimit:4;stroke-dasharray:none;stroke-dashoffset:0;stroke-opacity:1;marker:none;enable-background:accumulate" d="m -442.97225,617.55526 c 6.96428,-4.55357 14.79366,-4.09343 16.875,2.41072 2.14286,6.69643 0,13.39285 -6.42857,13.39285 -6.42858,0 -7.5,-5.625 -7.5,-5.625 0,0 -3.29275,0.23536 -7.36607,4.37763 -1.74107,-4.28572 -2.54465,-10.00263 4.41964,-14.5562 z m 8.94512,59.16052 c 0,0 -9.47018,1.26269 -5.68211,-8.20749 0,0 5.3033,-1.13642 6.06092,-6.06092 0,0 -9.47018,0.37881 -5.68211,-8.33376 0,0 5.3033,-1.51523 6.81853,-6.06091 0,0 -8.26555,-0.89404 -7.57615,-4.54569 0.67883,-3.59563 4.35628,-8.01809 -4.73509,-10.54347 0,0 -6.06821,-1.48846 -7.76554,4.73509 -1.70464,6.25033 1.89403,9.84899 1.89403,9.84899 0,0 -7.19734,6.06092 -0.75761,15.9099 0,0 -4.16688,6.43973 0.75761,13.63706 4.92449,7.19734 14.39467,6.06092 16.66752,-0.3788" id="path3932" inkscape:connector-curvature="0" sodipodi:nodetypes="sssccscccccscsccsc"/>
          <path style="color:#000000;display:inline;overflow:visible;visibility:visible;fill:none;stroke:#000000;stroke-width:2;stroke-linecap:butt;stroke-linejoin:miter;stroke-miterlimit:4;stroke-dasharray:none;stroke-dashoffset:0;stroke-opacity:1;marker:none;enable-background:accumulate" d="m 183.84776,440.12275 c 0,0 4.16688,5.68211 11.93243,6.62912 m -12.87945,9.28078 c 0,0 5.49271,6.06092 11.74303,5.3033" id="path3958" inkscape:connector-curvature="0" transform="translate(-634.66868,207.23547)" sodipodi:nodetypes="cccc"/>
        </g>
      </g>
      <g id="g3984">
        <path sodipodi:nodetypes="sssccs" id="path3964" d="m -409.26305,876.48524 c 6.17467,-5.23395 14.68003,-4.02414 17.30323,0.73807 2.70075,4.903 1.70302,11.14722 -4.41336,12.34752 -6.11638,1.20031 -8.18604,-3.95146 -8.18604,-3.95146 0,0 -3.88651,0.43992 -7.78621,6.7368 -2.45672,-3.75249 -3.07188,-10.65425 3.08238,-15.87093 z" style="color:#000000;display:inline;overflow:visible;visibility:visible;fill:#dcdddf;fill-opacity:1;stroke:#000000;stroke-width:2;stroke-linecap:butt;stroke-linejoin:miter;stroke-miterlimit:4;stroke-dasharray:none;stroke-dashoffset:0;stroke-opacity:1;marker:none;enable-background:accumulate" inkscape:connector-curvature="0"/>
        <use x="0" y="0" xlink:href="#path3964" id="use3987" transform="translate(9.2482799,15.798952)" width="773.6181" height="890.58765"/>
        <use height="890.58765" width="773.6181" transform="translate(18.94036,31.440998)" id="use3991" xlink:href="#path3964" y="0" x="0"/>
      </g>
      <g id="g4015">
        <path inkscape:connector-curvature="0" style="color:#000000;display:inline;overflow:visible;visibility:visible;fill:#dcdddf;fill-opacity:1;stroke:#000000;stroke-width:2;stroke-linecap:butt;stroke-linejoin:miter;stroke-miterlimit:4;stroke-dasharray:none;stroke-dashoffset:0;stroke-opacity:1;marker:none;enable-background:accumulate" d="m -173.38294,896.0671 c 5.06443,-6.31445 13.6445,-6.74718 17.12692,-2.57195 3.58537,4.29867 3.79553,10.6186 -1.98015,12.96218 -5.77568,2.34358 -8.78892,-2.31954 -8.78892,-2.31954 0,0 -3.73152,1.1723 -6.36015,8.09679 -3.12662,-3.21572 -5.0454,-9.87387 0.002,-16.16748 z" id="path3964-7" sodipodi:nodetypes="sssccs"/>
        <use height="890.58765" width="773.6181" transform="rotate(-31.979905,-131.83991,901.92702)" id="use4011" xlink:href="#path3964-7" y="0" x="0"/>
        <use x="0" y="0" xlink:href="#path3964-7" id="use4013" transform="rotate(-48.498145,-123.43705,894.83755)" width="773.6181" height="890.58765"/>
      </g>
      <g id="g4022">
        <circle transform="matrix(0.91538214,-0.40258604,0.50610286,1.1507541,-706.7108,344.43291)" id="path4020" style="color:#000000;display:inline;overflow:visible;visibility:visible;fill:#000000;stroke:none;stroke-width:2;marker:none;enable-background:accumulate" cx="419.78152" cy="210.9444" r="2.0834396"/>
        <use x="0" y="0" xlink:href="#path4020" id="use4025" transform="translate(-8.5714285,3.75)" width="773.6181" height="890.58765"/>
        <use height="890.58765" width="773.6181" transform="translate(-1.3392857,8.0357143)" id="use4027" xlink:href="#path4020" y="0" x="0"/>
        <use x="0" y="0" xlink:href="#path4020" id="use4029" transform="translate(6.4285714,10.714286)" width="773.6181" height="890.58765"/>
        <use height="890.58765" width="773.6181" transform="translate(1.0714286,15.535715)" id="use4031" xlink:href="#path4020" y="0" x="0"/>
        <use x="0" y="0" xlink:href="#path4020" id="use4033" transform="translate(5.8928571,20.625001)" width="773.6181" height="890.58765"/>
        <use height="890.58765" width="773.6181" transform="translate(-0.26785716,24.642858)" id="use4035" xlink:href="#path4020" y="0" x="0"/>
        <use x="0" y="0" xlink:href="#path4020" id="use4037" transform="translate(-6.1607143,14.464287)" width="773.6181" height="890.58765"/>
        <use height="890.58765" width="773.6181" transform="matrix(-1,0,0,1,-418.98062,52.345007)" id="use4039" xlink:href="#path4020" y="0" x="0"/>
        <use x="0" y="0" xlink:href="#path4020" id="use4041" transform="matrix(-0.90081417,-0.43420483,-0.43420483,0.90081417,-224.72401,6.9870986)" width="773.6181" height="890.58765"/>
        <use height="890.58765" width="773.6181" transform="matrix(-0.90081417,-0.43420483,-0.43420483,0.90081417,-221.24187,15.558527)" id="use4043" xlink:href="#path4020" y="0" x="0"/>
        <use x="0" y="0" xlink:href="#path4020" id="use4045" transform="matrix(-0.7591861,-0.65087362,-0.65087362,0.7591861,-91.248197,26.176084)" width="773.6181" height="890.58765"/>
        <use height="890.58765" width="773.6181" transform="matrix(-0.7591861,-0.65087362,-0.65087362,0.7591861,-96.069626,20.551084)" id="use4047" xlink:href="#path4020" y="0" x="0"/>
        <use x="0" y="0" xlink:href="#path4020" id="use4049" transform="matrix(-0.93370826,-0.35803477,-0.35803477,0.93370826,-248.67175,8.3213444)" width="773.6181" height="890.58765"/>
        <use x="0" y="0" xlink:href="#path4020" id="use4051" transform="matrix(-0.90372594,0.42811147,0.42811147,0.90372594,-566.26065,185.21241)" width="773.6181" height="890.58765"/>
        <use height="890.58765" width="773.6181" transform="matrix(-0.98224294,-0.18761347,-0.18761347,0.98224294,-324.9087,28.679163)" id="use4053" xlink:href="#path4020" y="0" x="0"/>
        <use x="0" y="0" xlink:href="#path4020" id="use4055" transform="matrix(-0.98224294,-0.18761347,-0.18761347,0.98224294,-397.26088,53.680438)" width="773.6181" height="890.58765"/>
        <use height="890.58765" width="773.6181" transform="matrix(-0.83272998,-0.55367931,-0.55367931,0.83272998,-213.40417,29.077094)" id="use4057" xlink:href="#path4020" y="0" x="0"/>
        <use height="890.58765" width="773.6181" transform="matrix(-0.98224294,-0.18761347,-0.18761347,0.98224294,-392.03767,46.582224)" id="use4059" xlink:href="#path4020" y="0" x="0"/>
        <use x="0" y="0" xlink:href="#path4020" id="use4061" transform="matrix(-0.98224294,-0.18761347,-0.18761347,0.98224294,-387.08231,51.403653)" width="773.6181" height="890.58765"/>
        <use height="890.58765" width="773.6181" transform="matrix(-0.98224294,-0.18761347,-0.18761347,0.98224294,-384.53767,43.769724)" id="use4063" xlink:href="#path4020" y="0" x="0"/>
        <use x="0" y="0" xlink:href="#path4020" id="use4065" transform="matrix(-0.98224294,-0.18761347,-0.18761347,0.98224294,-390.56446,38.54651)" width="773.6181" height="890.58765"/>
        <use height="890.58765" width="773.6181" transform="matrix(-0.98224294,-0.18761347,-0.18761347,0.98224294,-381.32339,37.876867)" id="use4067" xlink:href="#path4020" y="0" x="0"/>
        <use x="0" y="0" xlink:href="#path4020" id="use4069" transform="matrix(-0.98224294,-0.18761347,-0.18761347,0.98224294,-377.30553,46.582224)" width="773.6181" height="890.58765"/>
        <use x="0" y="0" xlink:href="#path4020" id="use4069-4" transform="matrix(-0.87507469,-0.48398791,-0.48398791,0.87507469,-276.55589,72.705188)" width="773.6181" height="890.58765"/>
        <use height="890.58765" width="773.6181" transform="matrix(-0.87507469,-0.48398791,-0.48398791,0.87507469,-275.60888,80.470737)" id="use4089" xlink:href="#path4020" y="0" x="0"/>
        <use x="0" y="0" xlink:href="#path4020" id="use4091" transform="matrix(-0.87507469,-0.48398791,-0.48398791,0.87507469,-282.6168,83.31179)" width="773.6181" height="890.58765"/>
        <use height="890.58765" width="773.6181" transform="matrix(-0.87507469,-0.48398791,-0.48398791,0.87507469,-291.13996,82.743579)" id="use4093" xlink:href="#path4020" y="0" x="0"/>
        <use x="0" y="0" xlink:href="#path4020" id="use4095" transform="matrix(-0.87507469,-0.48398791,-0.48398791,0.87507469,-284.13203,74.788628)" width="773.6181" height="890.58765"/>
        <use height="890.58765" width="773.6181" transform="matrix(-0.87507469,-0.48398791,-0.48398791,0.87507469,-286.97308,91.645548)" id="use4097" xlink:href="#path4020" y="0" x="0"/>
        <use x="0" y="0" xlink:href="#path4020" id="use4099" transform="matrix(-0.87507469,-0.48398791,-0.48398791,0.87507469,-278.07111,91.645548)" width="773.6181" height="890.58765"/>
        <use height="890.58765" width="773.6181" transform="matrix(-0.87507469,-0.48398791,-0.48398791,0.87507469,-270.49497,87.478669)" id="use4101" xlink:href="#path4020" y="0" x="0"/>
        <use x="0" y="0" xlink:href="#path4020" id="use4103" transform="matrix(-0.87507469,-0.48398791,-0.48398791,0.87507469,-267.84332,78.387296)" width="773.6181" height="890.58765"/>
        <use x="0" y="0" xlink:href="#path4020" id="use4105" transform="matrix(-0.97414263,-0.22593395,-0.22593395,0.97414263,-386.11526,118.85316)" width="773.6181" height="890.58765"/>
        <use height="890.58765" width="773.6181" transform="matrix(-0.97414263,-0.22593395,-0.22593395,0.97414263,-391.74026,126.88887)" id="use4107" xlink:href="#path4020" y="0" x="0"/>
        <use x="0" y="0" xlink:href="#path4020" id="use4109" transform="matrix(-0.97414263,-0.22593395,-0.22593395,0.97414263,-393.07955,137.3353)" width="773.6181" height="890.58765"/>
        <use height="890.58765" width="773.6181" transform="matrix(-0.97414263,-0.22593395,-0.22593395,0.97414263,-387.45455,144.8353)" id="use4111" xlink:href="#path4020" y="0" x="0"/>
        <use x="0" y="0" xlink:href="#path4020" id="use4113" transform="matrix(-0.97414263,-0.22593395,-0.22593395,0.97414263,-385.04384,134.38887)" width="773.6181" height="890.58765"/>
        <use height="890.58765" width="773.6181" transform="matrix(-0.97414263,-0.22593395,-0.22593395,0.97414263,-381.82955,126.0853)" id="use4115" xlink:href="#path4020" y="0" x="0"/>
        <use x="0" y="0" xlink:href="#path4020" id="use4117" transform="matrix(-0.97414263,-0.22593395,-0.22593395,0.97414263,-374.86526,122.60316)" width="773.6181" height="890.58765"/>
        <use height="890.58765" width="773.6181" transform="matrix(-0.97414263,-0.22593395,-0.22593395,0.97414263,-376.74026,133.04959)" id="use4119" xlink:href="#path4020" y="0" x="0"/>
        <use x="0" y="0" xlink:href="#path4020" id="use4121" transform="matrix(-0.97414263,-0.22593395,-0.22593395,0.97414263,-370.31169,130.37102)" width="773.6181" height="890.58765"/>
        <use height="890.58765" width="773.6181" transform="matrix(-0.97414263,-0.22593395,-0.22593395,0.97414263,-378.07955,141.88888)" id="use4123" xlink:href="#path4020" y="0" x="0"/>
        <use x="0" y="0" xlink:href="#path4020" id="use4125" transform="matrix(-0.99539522,0.09585601,0.09585601,0.99539522,-557.94391,214.73002)" width="773.6181" height="890.58765"/>
        <use height="890.58765" width="773.6181" transform="matrix(-0.99539522,0.09585601,0.09585601,0.99539522,-567.05105,218.21216)" id="use4127" xlink:href="#path4020" y="0" x="0"/>
        <use x="0" y="0" xlink:href="#path4020" id="use4129" transform="matrix(-0.99539522,0.09585601,0.09585601,0.99539522,-573.47962,211.24787)" width="773.6181" height="890.58765"/>
        <use height="890.58765" width="773.6181" transform="matrix(-0.99539522,0.09585601,0.09585601,0.99539522,-564.64033,208.30144)" id="use4131" xlink:href="#path4020" y="0" x="0"/>
        <use x="0" y="0" xlink:href="#path4020" id="use4133" transform="matrix(-0.99539522,0.09585601,0.09585601,0.99539522,-553.12247,206.6943)" width="773.6181" height="890.58765"/>
        <use x="0" y="0" xlink:href="#path4020" id="use4135" transform="matrix(-0.99539522,0.09585601,0.09585601,0.99539522,-561.42604,200.53358)" width="773.6181" height="890.58765"/>
        <use height="890.58765" width="773.6181" transform="matrix(-0.99539522,0.09585601,0.09585601,0.99539522,-570.80104,201.06929)" id="use4137" xlink:href="#path4020" y="0" x="0"/>
        <use x="0" y="0" xlink:href="#path4020" id="use4139" transform="matrix(-0.99539522,0.09585601,0.09585601,0.99539522,-566.24747,193.56929)" width="773.6181" height="890.58765"/>
        <use height="890.58765" width="773.6181" transform="matrix(-0.99539522,0.09585601,0.09585601,0.99539522,-553.92604,196.51572)" id="use4141" xlink:href="#path4020" y="0" x="0"/>
        <use x="0" y="0" xlink:href="#path4020" id="use4143" transform="rotate(10.979276,-1223.5747,339.86543)" width="773.6181" height="890.58765"/>
        <use height="890.58765" width="773.6181" transform="rotate(10.979276,-1232.5005,378.69645)" id="use4145" xlink:href="#path4020" y="0" x="0"/>
        <use x="0" y="0" xlink:href="#path4020" id="use4147" transform="rotate(10.979276,-1197.3687,407.66758)" width="773.6181" height="890.58765"/>
        <use height="890.58765" width="773.6181" transform="rotate(10.979276,-1224.5445,446.84613)" id="use4149" xlink:href="#path4020" y="0" x="0"/>
        <use x="0" y="0" xlink:href="#path4020" id="use4151" transform="rotate(10.979276,-1259.6763,417.875)" width="773.6181" height="890.58765"/>
        <use height="890.58765" width="773.6181" transform="rotate(10.979276,-1279.6132,386.03711)" id="use4153" xlink:href="#path4020" y="0" x="0"/>
        <use x="0" y="0" xlink:href="#path4020" id="use4155" transform="matrix(-0.98169614,0.19045392,0.19045392,0.98169614,-541.2445,250.2376)" width="773.6181" height="890.58765"/>
        <use height="890.58765" width="773.6181" transform="matrix(-0.98169614,0.19045392,0.19045392,0.98169614,-539.10164,261.75546)" id="use4157" xlink:href="#path4020" y="0" x="0"/>
        <use x="0" y="0" xlink:href="#path4020" id="use4159" transform="rotate(10.979276,-1308.53,407.09961)" width="773.6181" height="890.58765"/>
        <use height="890.58765" width="773.6181" transform="rotate(10.979276,-1362.7443,413.71638)" id="use4161" xlink:href="#path4020" y="0" x="0"/>
        <use x="0" y="0" xlink:href="#path4020" id="use4163" transform="rotate(10.979276,-1317.0541,450.11127)" width="773.6181" height="890.58765"/>
        <use height="890.58765" width="773.6181" transform="rotate(10.979276,-1266.673,462.14629)" id="use4165" xlink:href="#path4020" y="0" x="0"/>
        <use height="890.58765" width="773.6181" transform="rotate(10.979276,-1359.596,139.16297)" id="use4167" xlink:href="#path4020" y="0" x="0"/>
        <use x="0" y="0" xlink:href="#path4020" id="use4169" transform="rotate(10.979276,-1403.7333,133.55996)" width="773.6181" height="890.58765"/>
        <use height="890.58765" width="773.6181" transform="rotate(10.979276,-1394.6193,82.053122)" id="use4171" xlink:href="#path4020" y="0" x="0"/>
        <use x="0" y="0" xlink:href="#path4020" id="use4173" transform="rotate(10.979276,-1439.9908,107.50984)" width="773.6181" height="890.58765"/>
        <use height="890.58765" width="773.6181" transform="rotate(10.979276,-1476.1144,82.853262)" id="use4175" xlink:href="#path4020" y="0" x="0"/>
        <use x="0" y="0" xlink:href="#path4020" id="use4177" transform="rotate(10.979276,-1488.6055,143.12314)" width="773.6181" height="890.58765"/>
        <use height="890.58765" width="773.6181" transform="rotate(10.979276,-1441.4132,151.24538)" id="use4179" xlink:href="#path4020" y="0" x="0"/>
        <use x="0" y="0" xlink:href="#path4020" id="use4181" transform="rotate(10.979276,-1487.2407,186.59083)" width="773.6181" height="890.58765"/>
        <use height="890.58765" width="773.6181" transform="rotate(10.979276,-1437.8514,202.9404)" id="use4183" xlink:href="#path4020" y="0" x="0"/>
        <use x="0" y="0" xlink:href="#path4020" id="use4185" transform="rotate(10.979276,-1391.2745,190.02557)" width="773.6181" height="890.58765"/>
        <use x="0" y="0" xlink:href="#path4020" id="use4187" transform="matrix(-0.98169614,0.19045392,0.19045392,0.98169614,-542.88971,293.19646)" width="773.6181" height="890.58765"/>
        <use height="890.58765" width="773.6181" transform="matrix(-0.98169614,0.19045392,0.19045392,0.98169614,-531.14669,296.60572)" id="use4189" xlink:href="#path4020" y="0" x="0"/>
        <use x="0" y="0" xlink:href="#path4020" id="use4191" transform="matrix(-0.98169614,0.19045392,0.19045392,0.98169614,-537.58641,300.7726)" width="773.6181" height="890.58765"/>
        <use height="890.58765" width="773.6181" transform="matrix(-0.98169614,0.19045392,0.19045392,0.98169614,-544.78375,303.42425)" id="use4193" xlink:href="#path4020" y="0" x="0"/>
        <use x="0" y="0" xlink:href="#path4020" id="use4195" transform="matrix(-0.98169614,0.19045392,0.19045392,0.98169614,-551.60228,301.53021)" width="773.6181" height="890.58765"/>
        <use height="890.58765" width="773.6181" transform="matrix(-0.98169614,0.19045392,0.19045392,0.98169614,-550.46586,312.51562)" id="use4197" xlink:href="#path4020" y="0" x="0"/>
        <use x="0" y="0" xlink:href="#path4020" id="use4199" transform="matrix(-0.98169614,0.19045392,0.19045392,0.98169614,-544.40494,319.71296)" width="773.6181" height="890.58765"/>
        <use height="890.58765" width="773.6181" transform="matrix(-0.98169614,0.19045392,0.19045392,0.98169614,-540.23806,309.48517)" id="use4201" xlink:href="#path4020" y="0" x="0"/>
        <use x="0" y="0" xlink:href="#path4020" id="use4203" transform="matrix(-0.98169614,0.19045392,0.19045392,0.98169614,-535.69237,316.3037)" width="773.6181" height="890.58765"/>
        <use height="890.58765" width="773.6181" transform="matrix(-0.98169614,0.19045392,0.19045392,0.98169614,-529.25265,306.83352)" id="use4205" xlink:href="#path4020" y="0" x="0"/>
        <use x="0" y="0" xlink:href="#path4020" id="use4207" transform="matrix(-0.98169614,0.19045392,0.19045392,0.98169614,-501.97853,300.3938)" width="773.6181" height="890.58765"/>
        <use height="890.58765" width="773.6181" transform="matrix(-0.98169614,0.19045392,0.19045392,0.98169614,-503.87257,311.75802)" id="use4209" xlink:href="#path4020" y="0" x="0"/>
        <use x="0" y="0" xlink:href="#path4020" id="use4211" transform="matrix(-0.98169614,0.19045392,0.19045392,0.98169614,-498.19046,318.95536)" width="773.6181" height="890.58765"/>
        <use height="890.58765" width="773.6181" transform="matrix(-0.98169614,0.19045392,0.19045392,0.98169614,-495.53881,307.59114)" id="use4213" xlink:href="#path4020" y="0" x="0"/>
        <use x="0" y="0" xlink:href="#path4020" id="use4215" transform="matrix(-0.98169614,0.19045392,0.19045392,0.98169614,-496.29642,292.06004)" width="773.6181" height="890.58765"/>
        <use height="890.58765" width="773.6181" transform="matrix(-0.98169614,0.19045392,0.19045392,0.98169614,-492.12954,299.63618)" id="use4217" xlink:href="#path4020" y="0" x="0"/>
        <use x="0" y="0" xlink:href="#path4020" id="use4219" transform="rotate(10.979276,-1488.4657,654.78911)" width="773.6181" height="890.58765"/>
        <use height="890.58765" width="773.6181" transform="rotate(10.979276,-1545.0498,666.19412)" id="use4221" xlink:href="#path4020" y="0" x="0"/>
        <use x="0" y="0" xlink:href="#path4020" id="use4223" transform="rotate(10.979276,-1590.6795,646.71179)" width="773.6181" height="890.58765"/>
        <use height="890.58765" width="773.6181" transform="rotate(10.979276,-1597.9584,695.14661)" id="use4225" xlink:href="#path4020" y="0" x="0"/>
        <use height="890.58765" width="773.6181" transform="matrix(-0.98169614,0.19045392,0.19045392,0.98169614,-514.26189,348.41964)" id="use4227" xlink:href="#path4020" y="0" x="0"/>
        <use x="0" y="0" xlink:href="#path4020" id="use4229" transform="matrix(-0.98169614,0.19045392,0.19045392,0.98169614,-514.79761,359.66964)" width="773.6181" height="890.58765"/>
        <use height="890.58765" width="773.6181" transform="matrix(-0.98169614,0.19045392,0.19045392,0.98169614,-510.24404,367.16964)" id="use4231" xlink:href="#path4020" y="0" x="0"/>
        <use x="0" y="0" xlink:href="#path4020" id="use4233" transform="matrix(-0.98169614,0.19045392,0.19045392,0.98169614,-507.29761,352.97321)" width="773.6181" height="890.58765"/>
        <use height="890.58765" width="773.6181" transform="matrix(-0.98169614,0.19045392,0.19045392,0.98169614,-504.8869,360.47321)" id="use4235" xlink:href="#path4020" y="0" x="0"/>
        <use x="0" y="0" xlink:href="#path4020" id="use4237" transform="matrix(-0.98169614,0.19045392,0.19045392,0.98169614,-501.1369,371.72321)" width="773.6181" height="890.58765"/>
        <use height="890.58765" width="773.6181" transform="rotate(10.979276,-1850.0029,634.56782)" id="use4239" xlink:href="#path4020" y="0" x="0"/>
        <use x="0" y="0" xlink:href="#path4020" id="use4241" transform="rotate(10.979276,-1795.3326,618.06234)" width="773.6181" height="890.58765"/>
        <use height="890.58765" width="773.6181" transform="rotate(10.979276,-1758.992,586.44148)" id="use4243" xlink:href="#path4020" y="0" x="0"/>
        <use x="0" y="0" xlink:href="#path4020" id="use4245" transform="rotate(10.979276,-1863.6519,814.4942)" width="773.6181" height="890.58765"/>
        <use height="890.58765" width="773.6181" transform="rotate(10.979276,-1914.9994,836.30603)" id="use4247" xlink:href="#path4020" y="0" x="0"/>
        <use x="0" y="0" xlink:href="#path4020" id="use4249" transform="rotate(10.979276,-1963.4513,829.71124)" width="773.6181" height="890.58765"/>
        <use height="890.58765" width="773.6181" transform="rotate(20.162794,-1140.2547,693.82365)" id="use4251" xlink:href="#path4020" y="0" x="0"/>
        <use x="0" y="0" xlink:href="#path4020" id="use4253" transform="rotate(20.162794,-1116.0156,690.29123)" width="773.6181" height="890.58765"/>
        <use x="0" y="0" xlink:href="#path4020" id="use4255" transform="matrix(-0.98169614,0.19045392,0.19045392,0.98169614,-476.22618,379.2232)" width="773.6181" height="890.58765"/>
        <use height="890.58765" width="773.6181" transform="matrix(-0.98169614,0.19045392,0.19045392,0.98169614,-474.35118,370.38391)" id="use4257" xlink:href="#path4020" y="0" x="0"/>
        <use x="0" y="0" xlink:href="#path4020" id="use4259" transform="matrix(-0.98169614,0.19045392,0.19045392,0.98169614,-475.42261,389.66962)" width="773.6181" height="890.58765"/>
        <use x="0" y="0" xlink:href="#path4020" id="use4261" transform="rotate(20.162794,-1171.4074,697.80816)" width="773.6181" height="890.58765"/>
        <use height="890.58765" width="773.6181" transform="rotate(28.298593,-901.69355,621.45254)" id="use4263" xlink:href="#path4020" y="0" x="0"/>
        <use x="0" y="0" xlink:href="#path4020" id="use4265" transform="rotate(28.298593,-922.84463,626.86574)" width="773.6181" height="890.58765"/>
        <use height="890.58765" width="773.6181" transform="rotate(28.298593,-941.20163,621.45931)" id="use4267" xlink:href="#path4020" y="0" x="0"/>
        <use x="0" y="0" xlink:href="#path4020" id="use4269" transform="rotate(37.482111,-746.33976,603.84772)" width="773.6181" height="890.58765"/>
        <use height="890.58765" width="773.6181" transform="rotate(37.482111,-732.99451,603.93348)" id="use4271" xlink:href="#path4020" y="0" x="0"/>
        <use height="890.58765" width="773.6181" transform="matrix(-0.99388403,-0.11042893,-0.11042893,0.99388403,-386.10262,332.88739)" id="use4273" xlink:href="#path4020" y="0" x="0"/>
        <use x="0" y="0" xlink:href="#path4020" id="use4275" transform="matrix(-0.99388403,-0.11042893,-0.11042893,0.99388403,-381.6812,325.00705)" width="773.6181" height="890.58765"/>
        <use height="890.58765" width="773.6181" transform="matrix(-0.99388403,-0.11042893,-0.11042893,0.99388403,-388.44534,343.0994)" id="use4277" xlink:href="#path4020" y="0" x="0"/>
        <use height="890.58765" width="773.6181" transform="rotate(37.482111,-763.4458,603.43834)" id="use4279" xlink:href="#path4020" y="0" x="0"/>
        <use x="0" y="0" xlink:href="#path4020" id="use4299" transform="rotate(17.083753,-1440.6302,781.1366)" width="773.6181" height="890.58765"/>
        <use height="890.58765" width="773.6181" transform="rotate(17.083753,-1473.8671,796.97088)" id="use4301" xlink:href="#path4020" y="0" x="0"/>
        <use x="0" y="0" xlink:href="#path4020" id="use4303" transform="rotate(17.083753,-1504.8033,791.06774)" width="773.6181" height="890.58765"/>
        <use height="890.58765" width="773.6181" transform="rotate(26.267271,-1027.7797,709.76145)" id="use4305" xlink:href="#path4020" y="0" x="0"/>
        <use x="0" y="0" xlink:href="#path4020" id="use4307" transform="rotate(26.267271,-1010.4494,708.4831)" width="773.6181" height="890.58765"/>
        <use x="0" y="0" xlink:href="#path4020" id="use4309" transform="matrix(-0.99638278,0.08497867,0.08497867,0.99638278,-427.86865,403.48999)" width="773.6181" height="890.58765"/>
        <use height="890.58765" width="773.6181" transform="matrix(-0.99638278,0.08497867,0.08497867,0.99638278,-426.13573,395.97164)" id="use4311" xlink:href="#path4020" y="0" x="0"/>
        <use x="0" y="0" xlink:href="#path4020" id="use4313" transform="matrix(-0.99638278,0.08497867,0.08497867,0.99638278,-428.18052,413.96263)" width="773.6181" height="890.58765"/>
        <use x="0" y="0" xlink:href="#path4020" id="use4315" transform="rotate(26.267271,-1051.9084,711.5488)" width="773.6181" height="890.58765"/>
        <use height="890.58765" width="773.6181" transform="rotate(40.892258,-662.60727,489.47421)" id="use4263-0" xlink:href="#path4020" y="0" x="0"/>
        <use x="0" y="0" xlink:href="#path4020" id="use4265-9" transform="rotate(40.892258,-677.73441,491.616)" width="773.6181" height="890.58765"/>
        <use height="890.58765" width="773.6181" transform="rotate(40.892258,-690.08769,486.44664)" id="use4267-4" xlink:href="#path4020" y="0" x="0"/>
        <use x="0" y="0" xlink:href="#path4020" id="use4269-8" transform="rotate(50.075776,-595.01105,496.7191)" width="773.6181" height="890.58765"/>
        <use height="890.58765" width="773.6181" transform="rotate(50.075776,-585.7857,499.27416)" id="use4271-8" xlink:href="#path4020" y="0" x="0"/>
        <use height="890.58765" width="773.6181" transform="matrix(-0.94589464,-0.32447394,-0.32447394,0.94589464,-363.63708,263.52155)" id="use4273-2" xlink:href="#path4020" y="0" x="0"/>
        <use x="0" y="0" xlink:href="#path4020" id="use4275-4" transform="matrix(-0.94589464,-0.32447394,-0.32447394,0.94589464,-357.60384,256.79483)" width="773.6181" height="890.58765"/>
        <use height="890.58765" width="773.6181" transform="matrix(-0.94589464,-0.32447394,-0.32447394,0.94589464,-368.15002,272.97707)" id="use4277-5" xlink:href="#path4020" y="0" x="0"/>
        <use height="890.58765" width="773.6181" transform="rotate(50.075776,-607.88491,494.98585)" id="use4279-5" xlink:href="#path4020" y="0" x="0"/>
        <use height="890.58765" width="773.6181" transform="rotate(51.640068,-606.63611,462.05582)" id="use4263-1" xlink:href="#path4020" y="0" x="0"/>
        <use x="0" y="0" xlink:href="#path4020" id="use4265-7" transform="rotate(51.640068,-618.87628,462.6298)" width="773.6181" height="890.58765"/>
        <use height="890.58765" width="773.6181" transform="rotate(51.640068,-628.3523,457.57405)" id="use4267-1" xlink:href="#path4020" y="0" x="0"/>
        <use x="0" y="0" xlink:href="#path4020" id="use4269-1" transform="rotate(60.823587,-559.74937,471.51195)" width="773.6181" height="890.58765"/>
        <use height="890.58765" width="773.6181" transform="rotate(60.823587,-552.26493,476.35116)" id="use4271-5" xlink:href="#path4020" y="0" x="0"/>
        <use height="890.58765" width="773.6181" transform="matrix(-0.8687913,-0.49517844,-0.49517844,0.8687913,-327.00867,268.94814)" id="use4273-27" xlink:href="#path4020" y="0" x="0"/>
        <use x="0" y="0" xlink:href="#path4020" id="use4275-6" transform="matrix(-0.8687913,-0.49517844,-0.49517844,0.8687913,-319.06922,263.08573)" width="773.6181" height="890.58765"/>
        <use height="890.58765" width="773.6181" transform="matrix(-0.8687913,-0.49517844,-0.49517844,0.8687913,-333.20576,277.39619)" id="use4277-1" xlink:href="#path4020" y="0" x="0"/>
        <use height="890.58765" width="773.6181" transform="rotate(60.823587,-571.37471,470.97628)" id="use4279-4" xlink:href="#path4020" y="0" x="0"/>
        <use height="890.58765" width="773.6181" transform="rotate(28.298593,-985.84185,425.69533)" id="use4263-2" xlink:href="#path4020" y="0" x="0"/>
        <use x="0" y="0" xlink:href="#path4020" id="use4265-3" transform="rotate(28.298593,-1011.8859,427.54768)" width="773.6181" height="890.58765"/>
        <use height="890.58765" width="773.6181" transform="rotate(28.298593,-1030.2366,425.3359)" id="use4267-2" xlink:href="#path4020" y="0" x="0"/>
        <use x="0" y="0" xlink:href="#path4020" id="use4269-2" transform="rotate(37.482111,-825.06114,460.90129)" width="773.6181" height="890.58765"/>
        <use height="890.58765" width="773.6181" transform="rotate(37.482111,-810.75892,465.64247)" id="use4271-1" xlink:href="#path4020" y="0" x="0"/>
        <use height="890.58765" width="773.6181" transform="matrix(-0.99388403,-0.11042893,-0.11042893,0.99388403,-485.93077,350.89938)" id="use4273-6" xlink:href="#path4020" y="0" x="0"/>
        <use x="0" y="0" xlink:href="#path4020" id="use4275-8" transform="matrix(-0.99388403,-0.11042893,-0.11042893,0.99388403,-484.5398,341.50381)" width="773.6181" height="890.58765"/>
        <use height="890.58765" width="773.6181" transform="matrix(-0.99388403,-0.11042893,-0.11042893,0.99388403,-494.3344,361.86901)" id="use4277-57" xlink:href="#path4020" y="0" x="0"/>
        <use height="890.58765" width="773.6181" transform="rotate(37.482111,-843.08432,463.29313)" id="use4279-6" xlink:href="#path4020" y="0" x="0"/>
        <use x="0" y="0" xlink:href="#path4020" id="use4423" transform="matrix(-0.99388403,-0.11042893,-0.11042893,0.99388403,-494.71321,350.50479)" width="773.6181" height="890.58765"/>
        <use height="890.58765" width="773.6181" transform="rotate(62.547044,-455.37068,407.23031)" id="use4263-18" xlink:href="#path4020" y="0" x="0"/>
        <use x="0" y="0" xlink:href="#path4020" id="use4265-92" transform="rotate(62.547044,-461.2832,413.90601)" width="773.6181" height="890.58765"/>
        <use height="890.58765" width="773.6181" transform="rotate(62.547044,-473.99631,407.39165)" id="use4267-7" xlink:href="#path4020" y="0" x="0"/>
        <use x="0" y="0" xlink:href="#path4020" id="use4269-9" transform="rotate(71.730562,-439.91408,419.91401)" width="773.6181" height="890.58765"/>
        <use height="890.58765" width="773.6181" transform="rotate(71.730562,-435.72731,426.52678)" id="use4271-54" xlink:href="#path4020" y="0" x="0"/>
        <use height="890.58765" width="773.6181" transform="matrix(-0.759402,-0.65062172,-0.65062172,0.759402,-263.02245,166.48947)" id="use4273-3" xlink:href="#path4020" y="0" x="0"/>
        <use x="0" y="0" xlink:href="#path4020" id="use4275-1" transform="matrix(-0.759402,-0.65062172,-0.65062172,0.759402,-254.55396,168.52476)" width="773.6181" height="890.58765"/>
        <use height="890.58765" width="773.6181" transform="matrix(-0.759402,-0.65062172,-0.65062172,0.759402,-268.81206,172.47591)" id="use4277-2" xlink:href="#path4020" y="0" x="0"/>
        <use height="890.58765" width="773.6181" transform="rotate(71.730562,-447.67648,418.50925)" id="use4279-3" xlink:href="#path4020" y="0" x="0"/>
      </g>
      <path style="color:#000000;display:inline;overflow:visible;visibility:visible;fill:#dcdddf;fill-opacity:1;stroke:#000000;stroke-width:2;stroke-linecap:butt;stroke-linejoin:miter;stroke-miterlimit:4;stroke-dasharray:none;stroke-dashoffset:0;stroke-opacity:1;marker:none;enable-background:accumulate" d="m 178.92857,504.33765 c 0,0 -0.53571,16.07143 19.33293,16.07143 19.86863,0 19.33292,-16.07143 19.33292,-16.07143 z" id="path4452" inkscape:connector-curvature="0" transform="translate(-634.66868,207.23547)" sodipodi:nodetypes="czcc"/>
    </g>
    <g id="g3807" transform="translate(2205.0417,-43.879141)">
      <path sodipodi:nodetypes="ccscsc" transform="translate(-634.66868,207.23547)" inkscape:connector-curvature="0" id="path3805" d="m 384.61558,303.68902 191.67644,-63.63961 c 0,0 44.11192,68.00653 27.90703,149.51013 -16.23207,81.64035 -47.90046,105.44381 -47.90046,105.44381 0,0 -57.20021,-11.38929 -105.94145,-57.98713 -58.82088,-56.23423 -65.74156,-133.3272 -65.74156,-133.3272 z" style="color:#000000;display:inline;overflow:visible;visibility:visible;fill:#dcdddf;fill-opacity:1;stroke:#000000;stroke-width:4;stroke-linecap:butt;stroke-linejoin:miter;stroke-miterlimit:4;stroke-dasharray:none;stroke-dashoffset:0;stroke-opacity:1;marker:none;enable-background:accumulate"/>
      <g id="g3082">
        <path sodipodi:nodetypes="zssscccccsccscccccccccszccccccz" transform="translate(-634.66868,207.23547)" inkscape:connector-curvature="0" id="path3810" d="m 430.30966,386.47557 c -0.73921,-2.51909 -2.7626,-10.56064 16.17776,-24.1977 18.94036,-13.63706 33.49225,-12.73119 35.22907,-7.95495 1.51523,4.16688 -0.57642,9.95495 1.51523,17.42513 2.09165,7.47018 9.09137,17.42513 9.09137,17.42513 0,0 1.89404,-9.47018 10.60661,-9.47018 l -1.51523,7.57614 c -3.49425,3.11544 -3.47383,6.97985 -3.47383,6.97985 l 6.88309,4.38436 c 0,0 7.19734,-4.16687 3.78807,-9.84897 -3.40926,-5.68211 2.65165,-4.9245 2.65165,-4.9245 0,0 12.12183,8.33376 -0.75761,19.69797 0,0 7.19734,4.67196 22.72843,3.91434 15.5311,-0.75761 26.51651,-15.53109 26.51651,-15.53109 0,0 -7.95495,-2.65165 -7.57615,-15.5311 l 5.3033,-1.51523 c 0,0 0.75762,8.33376 6.43973,10.98541 0,0 4.16687,-3.40926 4.54568,-11.74302 0,0 -5.3033,-1.13642 -9.47018,-0.37881 l -1.13642,-4.92449 c 0,0 7.95495,-2.65165 14.01587,0.75761 0,0 4.54568,-15.15228 4.54568,-27.65292 0,0 -4.32449,-1.30738 -2.65165,-6.88352 1.67285,-5.57615 12.07362,-4.56551 13.813,0.084 1.73939,4.64953 -1.69117,6.42069 -1.69117,6.42069 0,0 2.27285,19.69798 -1.51523,34.47146 0,0 0.37881,15.53109 -7.57614,24.24366 0,0 -21.43996,58.51707 -89.47567,28.51707 0,0 -9.51928,-0.86415 -19.36827,-14.1224 0,0 -14.39467,-15.15229 -27.27411,-22.72843 -7.57614,0 -9.63017,-2.95644 -10.36939,-5.47553 z" style="color:#000000;display:inline;overflow:visible;visibility:visible;fill:#da2c27;fill-opacity:1;stroke:#000000;stroke-width:2;stroke-linecap:butt;stroke-linejoin:miter;stroke-miterlimit:4;stroke-dasharray:none;stroke-dashoffset:0;stroke-opacity:1;marker:none;enable-background:accumulate"/>
        <g id="g3893">
          <path id="path3855" transform="translate(-634.66868,207.23547)" d="m 504.375,289.71875 c -15.25432,0.28887 -26.85521,14.25363 -24.9375,26.71875 1.84935,12.02081 13.23061,25.55134 27.40625,33.03125 -2.85258,4.18575 -5.47263,8.86522 -6.9375,14.71875 -3.54636,14.17102 1.5,23.46875 1.5,23.46875 3.03046,5.30331 11.375,3.41609 11.375,-3.78125 0,-5.73631 1.12455,-16.17295 7.78125,-29.09375 16.3852,6.30359 26.24793,21.30658 30.84375,23.78125 4.92449,2.65165 11.76142,0.0174 10.625,-7.9375 -1.00351,-7.02455 -15.60696,-18.47987 -34.65625,-27.0625 11.41962,-17.7229 4.74521,-46.32567 -14.21875,-52.5 -3.01386,-0.98126 -5.95638,-1.39724 -8.78125,-1.34375 z m 1,12.625 c 8.15695,0.0346 13.84375,10.89571 13.84375,22.4375 0,5.17189 -1.84165,9.38039 -4.40625,13.4375 -18.22144,-8.8673 -27.76764,-25.101 -16.8125,-33.15625 2.59863,-1.91076 5.09106,-2.72844 7.375,-2.71875 z" style="color:#000000;display:inline;overflow:visible;visibility:visible;fill:#da2c27;fill-opacity:1;stroke:#000000;stroke-width:2;stroke-linecap:butt;stroke-linejoin:miter;stroke-miterlimit:4;stroke-dasharray:none;stroke-dashoffset:0;stroke-opacity:1;marker:none;enable-background:accumulate"/>
          <path sodipodi:nodetypes="cccsc" inkscape:connector-curvature="0" id="path3855-1" transform="translate(-634.66868,207.23547)" d="m 514.8125,338.21875 c -2.32625,3.68005 -5.24346,7.25103 -7.96875,11.25 m 13.71875,5.3125 c 1.69545,-3.2909 3.73247,-6.73225 6.21875,-10.3125 0.20621,-0.29694 0.39819,-0.60275 0.59375,-0.90625" style="color:#000000;display:inline;overflow:visible;visibility:visible;fill:none;stroke:#000000;stroke-width:2;stroke-linecap:butt;stroke-linejoin:miter;stroke-miterlimit:4;stroke-dasharray:none;stroke-dashoffset:0;stroke-opacity:1;marker:none;enable-background:accumulate"/>
        </g>
        <path style="color:#000000;display:inline;overflow:visible;visibility:visible;fill:none;stroke:#000000;stroke-width:2;stroke-linecap:butt;stroke-linejoin:miter;stroke-miterlimit:4;stroke-dasharray:none;stroke-dashoffset:0;stroke-opacity:1;marker:none;enable-background:accumulate" d="m 440.0477,391.82483 c 0,0 32.19861,-5.68211 42.42641,-30.30458 m -14.77348,53.41182 c 0,0 24.24366,-9.51614 24.62246,-26.18365 m -4.92449,40.19952 c 0.75761,0 20.61807,-7.04552 22.49307,-25.12847 m 49.4803,-11.99464 c 0,0 11.74302,0 17.42513,8.71257 m -4.41176,-30.54946 c 0,0 7.44222,0.24488 11.9879,6.6846" id="path3897" inkscape:connector-curvature="0" transform="translate(-634.66868,207.23547)" sodipodi:nodetypes="cccccccccc"/>
      </g>
    </g>
  </g>
</svg>