<?xml version="1.0" encoding="UTF-8"?>
<!-- Created with Inkscape (http://www.inkscape.org/) -->
<svg id="svg2" width="700" height="350" version="1.1" viewBox="0 0 700 350" xmlns="http://www.w3.org/2000/svg" xmlns:cc="http://creativecommons.org/ns#" xmlns:dc="http://purl.org/dc/elements/1.1/" xmlns:rdf="http://www.w3.org/1999/02/22-rdf-syntax-ns#">
 <metadata id="metadata7">
  <rdf:RDF>
   <cc:Work rdf:about="">
    <dc:format>image/svg+xml</dc:format>
    <dc:type rdf:resource="http://purl.org/dc/dcmitype/StillImage"/>
   </cc:Work>
  </rdf:RDF>
 </metadata>
 <g id="layer2">
  <rect id="rect7280" y="262" width="700" height="88" style="fill:#003399;stroke-width:0"/>
  <rect id="rect7282" x="5e-6" y="245" width="700" height="17" style="fill:#ffffff;stroke-width:0"/>
  <rect id="rect7284" x="5e-6" y="4.99402e-6" width="700" height="245" ry="0" style="fill:#0099ff;stroke-width:0"/>
  <g id="g319" transform="translate(-.315834)">
   <path id="path7288" d="m186.701 186.993-15.7574 4.24264-4.24264 15.7574-4.24264-15.7574-15.7574-4.24264 15.7574-4.24264 4.24264-15.7574 4.24264 15.7574z" style="fill:#ffffff;stroke-width:0"/>
   <path id="path8102" d="m208.525 138.206-15.7574 4.24264-4.24264 15.7574-4.24264-15.7574-15.7574-4.24264 15.7574-4.24264 4.24264-15.7574 4.24264 15.7574z" style="fill:#ffffff;stroke-width:0"/>
   <path id="path8104" d="m243.943 97.5042-15.7574 4.24264-4.24264 15.7574-4.24264-15.7574-15.7574-4.24264 15.7574-4.24264 4.24264-15.7574 4.24264 15.7574z" style="fill:#ffffff;stroke-width:0"/>
   <path id="path8106" d="m289.979 68.3076-15.7574 4.24264-4.24264 15.7574-4.24264-15.7574-15.7574-4.24264 15.7574-4.24264 4.24264-15.7574 4.24264 15.7574z" style="fill:#ffffff;stroke-width:0"/>
   <path id="path8108" d="m342.765 53.0692-15.7574 4.24264-4.24264 15.7574-4.24264-15.7574-15.7574-4.24264 15.7574-4.24264 4.24264-15.7574 4.24264 15.7574z" style="fill:#ffffff;stroke-width:0"/>
   <path id="path8110" d="m397.866 53.0692-15.7574 4.24264-4.24264 15.7574-4.24264-15.7574-15.7574-4.24264 15.7574-4.24264 4.24264-15.7574 4.24264 15.7574z" style="fill:#ffffff;stroke-width:0"/>
   <path id="path8112" d="m450.652 68.3076-15.7574 4.24264-4.24264 15.7574-4.24264-15.7574-15.7574-4.24264 15.7574-4.24264 4.24264-15.7574 4.24264 15.7574z" style="fill:#ffffff;stroke-width:0"/>
   <path id="path8114" d="m496.688 97.5042-15.7574 4.24264-4.24264 15.7574-4.24264-15.7574-15.7574-4.24264 15.7574-4.24264 4.24264-15.7574 4.24264 15.7574z" style="fill:#ffffff;stroke-width:0"/>
   <path id="path8116" d="m532.106 138.206-15.7574 4.24264-4.24264 15.7574-4.24264-15.7574-15.7574-4.24264 15.7574-4.24264 4.24264-15.7574 4.24263 15.7574z" style="fill:#ffffff;stroke-width:0"/>
   <path id="path8118" d="m553.931 186.992-15.7574 4.24264-4.24264 15.7574-4.24264-15.7574-15.7574-4.24264 15.7574-4.24264 4.24264-15.7574 4.24264 15.7574z" style="fill:#ffffff;stroke-width:0"/>
  </g>
 </g>
</svg>
