<?xml version="1.0" encoding="utf-8"?>
<!-- Generator: Adobe Illustrator 26.4.1, SVG Export Plug-In . SVG Version: 6.00 Build 0)  -->
<svg version="1.1"
	 id="svg2" xmlns:inkscape="http://www.inkscape.org/namespaces/inkscape" xmlns:sodipodi="http://sodipodi.sourceforge.net/DTD/sodipodi-0.dtd" xmlns:rdf="http://www.w3.org/1999/02/22-rdf-syntax-ns#" xmlns:svg="http://www.w3.org/2000/svg" xmlns:cc="http://creativecommons.org/ns#" xmlns:dc="http://purl.org/dc/elements/1.1/"
	 xmlns="http://www.w3.org/2000/svg" xmlns:xlink="http://www.w3.org/1999/xlink" x="0px" y="0px" viewBox="0 0 1920 1097"
	 style="enable-background:new 0 0 1920 1097;" xml:space="preserve">
<style type="text/css">
	.st0{fill:#FFFFFF;}
	.st1{fill-rule:evenodd;clip-rule:evenodd;fill:#FFFFFF;}
	.st2{fill:#36312F;}
	.st3{fill-rule:evenodd;clip-rule:evenodd;fill:#FFFFFF;stroke:#36312F;stroke-width:1.6015;stroke-miterlimit:10;}
	.st4{fill-rule:evenodd;clip-rule:evenodd;fill:#36312F;}
	.st5{fill-rule:evenodd;clip-rule:evenodd;fill:#FFFFFF;stroke:#36312F;stroke-width:1.7439;stroke-miterlimit:10;}
	.st6{fill-rule:evenodd;clip-rule:evenodd;fill:#FFFFFF;stroke:#36312F;stroke-width:1.8028;stroke-miterlimit:10;}
	.st7{fill-rule:evenodd;clip-rule:evenodd;fill:#FFFFFF;stroke:#36312F;stroke-width:1.6656;stroke-miterlimit:10;}
	.st8{fill-rule:evenodd;clip-rule:evenodd;fill:#FFFFFF;stroke:#36312F;stroke-width:1.6654;stroke-miterlimit:10;}
	.st9{fill-rule:evenodd;clip-rule:evenodd;fill:#FFFFFF;stroke:#36312F;stroke-width:1.6954;stroke-miterlimit:10;}
	.st10{fill-rule:evenodd;clip-rule:evenodd;fill:#FFFFFF;stroke:#36312F;stroke-width:1.7032;stroke-miterlimit:10;}
	.st11{fill-rule:evenodd;clip-rule:evenodd;fill:#FFFFFF;stroke:#36312F;stroke-width:1.7588;stroke-miterlimit:10;}
	.st12{fill-rule:evenodd;clip-rule:evenodd;fill:#FFFFFF;stroke:#36312F;stroke-width:1.6967;stroke-miterlimit:10;}
</style>
<rect class="st0" width="1920" height="1097"/>
<g>
	<g id="g5736_00000086660804832295402040000011775164472033952446_" transform="translate(413.8613,338.71)">
		<path id="path5738_00000103229292895516155090000017922656656226705077_" class="st1" d="M633.8,115.9l52.9,0.1
			c0,0,0.1,128.6,0,128.5c21,33.5,71.9,75.8,72.4,76.3l2.9,2.4V33.6c0-4.2-1.4-5.6-4.4-8.2c-1.1-1-6.5-5-13.3-10.2
			C733.2,6.9,718-4.5,714.8-7.5c-3.8-3.6-6.4-2.5-8.3-1.7L706-9.1c-2.1,0.8-37.9,15.3-40.3,16.5l-0.9,0.5c-1.9,0.9-3.6,1.7-4.8,3.9
			c-1.9,3.4-27.6,48-30,52.2L604,80.4L577.4-9l1.9-2.1c-1.1-1.8-3.2-2.5-6-2.5c-3.8,0-9,1.5-14.9,3.7C551.5-7.4,545.1-4.7,539-2
			c-6,2.7-11.7,5.4-17.5,8.1c-10.6-1.4-20.1-1.9-28.1-1.4c-3,1.5-4.8,4-6.3,6.8l-0.7,1.1l-4.8,6c2.2,8.9,5.5,17.7,9.9,28.5
			l-6.1,32.3l-22.1-14.9l-6.5-10.2l-27.8-48l-47-18.1l-52.2,39.6l0.8,295.5c14.6-12.8,29.5-25.5,42.2-38.9
			c12-12.8,23-25.4,32.1-37.8V115.8L633.8,115.9z"/>
	</g>
	<g id="g5740_00000044868701868305306140000012106463997959219881_" transform="translate(406.8672,360.9453)">
		<path id="path5742_00000139271846651415197060000008673002519391557798_" class="st2" d="M610.3-3.2c-0.7,0-1.2-0.5-1.2-1.2
			s0.5-1.2,1.2-1.2c0.7,0,1.2,0.5,1.2,1.2S610.9-3.2,610.3-3.2 M557.8-3.6L557.8-3.6c1.5,1.3,3.4,2,5.5,2c4.7,0,8.6-3.8,8.6-8.6
			c0-1.2-0.3-2.4-0.8-3.5l4.8-3.7c0.5,1.6,0.8,3.2,0.8,4.9c0,8.3-6.8,15.2-15.2,15.2c-3.1,0-6-0.9-8.5-2.7L557.8-3.6z M561.2,5.6
			c-4.2,0-8.2-1.4-11.5-4l-0.9-0.7l0.9-0.7l6.1-4.6l0.5-0.4l14-10.6l0.6-0.5l6.1-4.6l0.9-0.7l0.5,1.1c1,2.3,1.5,4.7,1.5,7.2
			C579.8-2.8,571.4,5.6,561.2,5.6 M767,53L767,53c-2.8-1.3-7.3-3.8-9.8-6.5V32.2c0-1.1-0.1-1.9-0.3-2.6c0.2-0.3,0.4-0.5,0.4-0.5
			l-0.8-0.7c-0.6-1.1-1.5-2-2.7-3.1c-0.9-0.9-5.4-4.6-11.1-9.4c-9.2-7.8-21.9-18.4-24.5-21.1c-0.9-0.9-3.2-2.8-7-2
			c-2.5,0.5-19.4,5.4-21.3,6.4c-2,1-5.3,3.8-7.3,6l-21,23.2L616.9,74l-4.3-14.5l24.2-15.5l0.3-0.2l0.2-0.4
			c1.2-2,29.2-49.9,31.2-53.6c0.6-1.1,1.5-1.6,3.3-2.4l1-0.5c1.9-1,37.5-15.2,41.2-16.6l0.4-0.2c1.7-0.7,2.5-1,4.8,1
			c3.4,3.1,18.6,14.4,30.8,23.4c6.7,5,12.5,9.3,13.6,10.2c2.7,2.3,3.2,2.9,3.2,5.5V53z M767,110.4L767,110.4
			c-2.8-1.3-7.3-3.8-9.8-6.5V90.2c0,0,0-0.1,0-0.1l0,0V49.9c3.2,2.7,7.6,4.8,9.8,5.9V110.4z M767,171.8L767,171.8
			c-2.8-1.3-7.3-3.8-9.8-6.5v-14c0,0,0-0.1,0-0.1l0,0v-43.9c3.2,2.7,7.6,4.9,9.8,5.9V171.8z M767,233.8L767,233.8
			c-2.8-1.3-7.3-3.8-9.8-6.5v-12.5c0,0,0-0.1,0-0.1l0,0v-46.1c3.2,2.7,7.6,4.9,9.8,5.9V233.8z M767,296.9L767,296.9
			c-2.3-1.9-5.6-4.8-9.8-8.5v-57.9c3.2,2.7,7.6,4.8,9.8,5.8V296.9z M728.1,29.5L728.1,29.5V6.9c4.1,3.5,8.7,7.4,12.9,10.9
			c5.4,4.6,10.1,8.5,11,9.3c0.9,0.9,1.5,1.5,2,2.1c-2.1,2.4-6.7,7.3-12.4,10.9C732.6,35.1,728.2,29.5,728.1,29.5L728.1,29.5z
			 M754.7,47.4L754.7,47.4L754.7,47.4C754.7,47.4,754.7,47.4,754.7,47.4v42c-1.6,1.9-6.7,7.6-13.2,11.8c-9-4.9-13.3-10.5-13.4-10.6
			l-0.1,0v-37c0,0,0,0,0.1-0.1l-0.1,0V33c2.2,2.3,6.4,6.1,12.9,9.5l0.6,0.3l0.6-0.4c5.5-3.3,9.9-7.7,12.5-10.5c0,0.1,0,0.1,0,0.2
			V47.4z M754.7,104.8L754.7,104.8L754.7,104.8C754.7,104.8,754.7,104.8,754.7,104.8v45.6c-1.6,1.9-6.7,7.6-13.2,11.8
			c-9-4.9-13.3-10.5-13.4-10.6l-0.1,0V94.1c2.2,2.3,6.4,6.1,12.9,9.5l0.6,0.3l0.6-0.4c5.5-3.3,9.9-7.7,12.5-10.5V104.8z
			 M754.7,166.2L754.7,166.2L754.7,166.2C754.7,166.2,754.7,166.2,754.7,166.2v47.8c-1.6,1.9-6.7,7.6-13.2,11.7
			c-9-4.9-13.3-10.5-13.4-10.6l-0.1,0.1v-59.9c2.2,2.3,6.4,6.1,12.9,9.5l0.6,0.3l0.6-0.4c5.5-3.3,9.9-7.7,12.5-10.5V166.2z
			 M754.7,228.1L754.7,228.1L754.7,228.1C754.7,228.2,754.7,228.2,754.7,228.1v58.2c-7.6-6.7-17.1-15.6-26.6-25.2v-42.4
			c2.2,2.3,6.4,6.1,12.9,9.5l0.6,0.3l0.6-0.3c5.5-3.3,9.9-7.7,12.5-10.5V228.1z M725.7,52.7L725.7,52.7c-1.7,1.9-6.8,7.7-13.5,11.8
			c-9.2-4.9-13.7-10.6-13.7-10.6l-0.1,0V-1.2c5.3-1.6,11.6-3.4,13.1-3.7c2.6-0.6,4.2,0.7,4.8,1.3c1.3,1.4,4.9,4.5,9.4,8.3V52.7z
			 M725.7,119.8L725.7,119.8c-1,1.4-5.8,7.6-12.1,12l-5.3-5.4V72.8h-9.8V57.4c2.3,2.3,6.5,6.1,13.2,9.5l0.6,0.3l0.6-0.3
			c5.6-3.3,10.2-7.7,12.9-10.6V119.8z M725.7,180.3L725.7,180.3c-1,1.4-5.8,7.6-12.1,12c-6.5-3.9-10.2-8.2-11.4-9.8v-52.1h0.1h6
			v-0.8l5.4,5.2l0.7-0.4c5-3.3,9-7.7,11.4-10.6V180.3z M725.7,258.6L725.7,258.6c-8.5-8.7-16.8-18.1-23.6-27.1v-45.3
			c2.1,2.3,5.7,5.6,10.9,8.6l0.7,0.4l0.7-0.4c5-3.3,9-7.7,11.4-10.6V258.6z M699.7,183.1L699.7,183.1L699.7,183.1
			c-0.1,0.1,0,0.2,0,0.2v44.8l-3.6-5.3v-92.4h3.6V183.1z M696,32.6L696,32.6c-3.5,1.8-16.7,7.8-29.7,9.3V26.6l17.9-19.8
			c1.8-2,4.9-4.6,6.6-5.5c0.5-0.2,2.5-0.9,5.1-1.7V32.6z M696,72.8L696,72.8h-29.7V44.4c12.5-1.4,24.9-6.8,29.7-9.1V72.8z
			 M410.3,35.3L410.3,35.3c4.8,2.3,17.1,7.7,29.7,9.1v28.4h-29.7V35.3z M410.1,223L410.1,223l-3.5,5.1v-44.8c0,0,0.1-0.1,0.1-0.1
			l-0.1-0.1v-52.7h3.5V223z M404.1,182.5L404.1,182.5c-1.2,1.6-5,5.9-11.5,9.8c-6.3-4.4-11.1-10.6-12.1-12v-32.1
			c12.6-2.5,18.1-7.1,18.3-15.4c0-0.7,0-1.5-0.1-2.2c0.1-0.1,0.1-0.1,0.2-0.2h5.1V182.5z M404.1,231.5L404.1,231.5
			c-6.7,9-15.1,18.3-23.6,27.1v-74.3c2.3,2.8,6.4,7.2,11.4,10.6l0.6,0.4l0.7-0.4c5.1-3,8.7-6.3,10.9-8.6V231.5z M378.2,29.5
			L378.2,29.5L378.2,29.5c-0.1,0-4.5,5.7-13.4,10.6c-5.7-3.6-10.3-8.4-12.4-10.9c0.4-0.6,1-1.2,2-2.1c0.8-0.8,5.5-4.8,11-9.3
			c4.2-3.5,8.8-7.4,12.9-10.9L378.2,29.5z M378.2,53.5L378.2,53.5L378.2,53.5c0,0.1,0,0.1,0,0.1v37l-0.1,0c0,0.1-4.4,5.7-13.4,10.6
			c-6.5-4.1-11.6-9.8-13.2-11.8V47.5l0.1,0l-0.1,0V32c2.6,2.8,7.1,7.2,12.5,10.5l0.6,0.4l0.6-0.3c6.5-3.4,10.7-7.2,12.9-9.5
			L378.2,53.5z M378.2,139.3L378.2,139.3c-2.8,0.9-5.5,1.5-7.7,2c-4.3,1-6.2,1.4-6.6,2.9c-0.1,0.4-0.2,1.2,0.6,1.9
			c1.7,1.8,7.7,3,13.7,2.4v2.9l-0.1,0.1c0,0.1-4.4,5.7-13.4,10.6c-6.5-4.1-11.6-9.8-13.2-11.8v-45.5c0,0,0,0,0.1-0.1l-0.1,0V93.1
			c2.6,2.8,7.1,7.2,12.5,10.5l0.6,0.4l0.6-0.3c6.5-3.4,10.7-7.2,12.9-9.5L378.2,139.3z M378.2,215.1L378.2,215.1L378.2,215.1
			c-0.1,0-4.5,5.6-13.4,10.5c-6.5-4.1-11.6-9.8-13.2-11.7v-47.7v-12.1c2.6,2.8,7.1,7.2,12.5,10.5l0.6,0.4l0.6-0.3
			c6.5-3.4,10.7-7.2,12.9-9.5L378.2,215.1z M378.2,261.1L378.2,261.1c-9.5,9.6-19.1,18.5-26.6,25.2v-58.1c0,0,0,0,0.1,0l-0.1,0
			v-10.5c2.6,2.8,7.1,7.2,12.5,10.5l0.6,0.3l0.6-0.3c6.5-3.4,10.7-7.2,12.9-9.5V261.1z M407.8,53.8L407.8,53.8
			c-0.1,0.1-4.5,5.7-13.7,10.6c-6.7-4.1-11.8-9.8-13.5-11.8V4.8c4.4-3.8,8-6.9,9.3-8.3c0.6-0.6,2.2-1.9,4.8-1.3
			c1.5,0.3,7.8,2.1,13.1,3.7L407.8,53.8L407.8,53.8z M385.7,116.9L385.7,116.9c-1.3,3.5-0.4,6.7,0.5,9.5c-3-3-5-5.7-5.7-6.6V56.4
			c2.6,2.8,7.2,7.2,12.9,10.6l0.6,0.3l0.6-0.3c6.7-3.5,11-7.2,13.2-9.5v15.3h-10v34.9C393.7,108.5,388,110.6,385.7,116.9
			 M380.6,138.5L380.6,138.5v-14.7c1.6,2,4,4.6,7,7.2c0.2,1.1,0.1,2.1-0.3,3C386.4,135.7,384.2,137.1,380.6,138.5 M379.2,141.6
			c4.8-1.7,9.1-4.1,10.3-6.5c0.1-0.2,0.2-0.5,0.3-0.7c0.5-1.8,0.3-3.6,0.1-4.8c-0.3-1-0.6-2-0.9-3.1c-1-2.8-2-5.7-0.8-8.8
			c1.8-4.8,6.3-6.7,9.8-7.5v8.7c-0.4,0.2-0.7,0.5-1,0.8c-1.6,1.9-1.2,4.8-0.8,7.9c0.1,0.6,0.2,1.3,0.3,1.9l0,0
			c0.4,2.8,0.2,4.2,0.1,4.3c-0.4,4.7-3.1,9.2-15.5,11.9c-0.1,0-1.6,0.3-1.7,0.3l-1,0.1c-5.3,0.6-9.9-0.4-11.5-1.3
			c0.9-0.3,2.7-0.8,4.4-1.1C373.1,143.2,376.6,142.3,379.2,141.6 M349.4,29.6L349.4,29.6c-0.2,0.7-0.3,1.6-0.3,2.6v14.3
			c-2.5,2.7-7,5.1-9.8,6.5V10.2c0-2.7,0.6-3.2,3.2-5.5c1-0.9,6.8-5.2,13.6-10.2c12.2-9,27.3-20.3,30.7-23.4c2.2-2.1,3.1-1.7,4.8-1
			l0.5,0.2c3.7,1.4,39.3,15.6,41.2,16.6l1,0.5c1.8,0.8,2.7,1.3,3.3,2.4c1.1,1.9,9.1,15.8,16.8,28.9c-4,1.9-7.6,4.5-10.3,7.9
			c-0.2,0.2-0.3,0.4-0.4,0.5c-4.3-4.8-19.9-22-19.9-22c-2-2.2-5.3-5-7.3-6c-1.9-1-18.8-5.8-21.3-6.4c-3.8-0.8-6.2,1.1-7,2
			c-2.6,2.7-15.3,13.3-24.5,21.1c-5.7,4.8-10.2,8.6-11.1,9.4c-1.2,1.2-2.1,2.1-2.7,3.1C349.6,28.9,349.5,29.3,349.4,29.6
			 M349.1,90.1L349.1,90.1L349.1,90.1c-0.1,0,0,0.1,0,0.1v13.7c-2.5,2.7-7,5.2-9.8,6.5V55.7c2.2-1,6.5-3.2,9.8-5.9V90.1z
			 M349.1,151.3v14c-2.5,2.7-7,5.1-9.8,6.5v-58.6c2.2-1,6.5-3.2,9.8-5.9V151.3z M349.1,214.7L349.1,214.7L349.1,214.7
			c-0.1,0,0,0.1,0,0.1v12.5c-2.5,2.7-7,5.2-9.8,6.5v-59.3c2.2-1,6.5-3.2,9.8-5.9V214.7z M349.1,288.5L349.1,288.5
			c-4.2,3.7-7.5,6.6-9.8,8.5v-60.5c2.2-1,6.5-3.2,9.8-5.8V288.5z M439.6,41.9L439.6,41.9c-12.9-1.6-25.9-7.6-29.4-9.3V-0.4
			c2.6,0.8,4.6,1.5,5.1,1.7c1.7,0.9,4.8,3.5,6.6,5.5l17.9,19.8v7.2C439.1,36.5,439,39.2,439.6,41.9 M508.6,18.6L508.6,18.6
			c-0.5,3-0.3,5.9,0.1,8.5c-13.1-2-37.9-3.6-46.3,3.5c-1.9,1.6-2.9,3.6-2.9,6c0,7.5,5.8,9.8,11.4,12.1c5.8,2.4,11.3,4.6,11.3,12.3
			c0,7.4-5.2,14.6-10.6,20.2v-8.3h-12.9c1.9-2.9,3.1-6.3,3.1-10.2c0-6.1-5.3-9.1-10.4-11.9c-4.1-2.3-7.9-4.5-9.1-8
			c-1.6-4.9-0.5-9.5,3.7-14.5C461,9.8,502.2,17.3,508.6,18.6 M490.3-3.1L490.3-3.1c0.4-0.6,0.9-1.2,1.3-1.7l0.8,1.5
			c-0.1,9.2,3.9,12.8,7.3,14.2c5,2,11.4,0.2,14.6-2.8c0.3,0.1,0.5,0.2,0.8,0.3c-1.2,0.8-2.3,1.7-3.2,2.8c-1.6,0.8-6,2.6-13.2,0.3
			l-2.2-0.7l1.1,2c0.3,0.6,0.6,1.2,0.9,1.8c-0.8-0.1-1.5-0.2-2.4-0.3C492.5,5.9,489.7-1.7,490.3-3.1 M501.7,6.4L501.7,6.4
			c3.2,1,5.6-0.8,6.6-2.2l5.1,2.2c-2.6,2.7-8.5,4.4-12.9,2.6c-3.8-1.5-5.9-5.3-6.2-10.9l3,1.3C497.4,0.2,497.4,5.1,501.7,6.4
			 M513.8,2L513.8,2c1.3,0.4,2.3,0.7,2.7,0.9c1,0.4,1.3,1.1,1.2,1.4c-0.1,0.3-0.5,0.3-0.7,0.3c-0.9,0-1.1-0.7-1.1-1.1l0-0.6
			c0,0-0.6-0.2-0.6-0.2L513.8,2z M497.2-4.4L497.2-4.4L496.7-3l17.5,7.1c0.2,1.1,1.1,2.3,2.9,2.3c1.3,0,2.2-0.7,2.5-1.8
			c0.2-1.1-0.4-2.6-2.3-3.4c-1.3-0.5-6.5-2.1-11.3-3.5c5.6,1.4,11.2,2.8,13.2,3.2c1,0.2,1.7,1,2,2.2c0.2,0.8,0.1,1.7-0.2,2.4
			c-1.1,0.4-2.2,0.9-3.3,1.5c-0.9-0.1-1.8-0.3-2.9-0.8L514,5.9c-0.9-0.4-0.8-1.3-0.8-1.3l-18.9-8.1l0-0.2l-0.1-0.2l-0.7-1.2
			C494.5-5.1,495.8-4.7,497.2-4.4 M495.3-9L495.3-9c3.5,0.8,19.9,4.3,24.4,5.3c0.1,0.9,0.8,1.8,2,2.5c2.3,1.4,4.7,2.7,4.8,2.7
			l0.5,0.2l0.5-0.2c1.1-0.4,6.4-2.6,7.8-3.9c0.5-0.5,0.8-1.2,0.7-1.9c-0.1-0.5-0.3-0.9-0.5-1.2c7.4-3.6,38.3-18.8,48.2-23.9l0.3,1.1
			c-0.6,0.3-2,1.1-2,1.1L539.1-4.6c-1.1,0.6-4.7,2.7-5,5.6c-0.1,1.7,0.6,3.5,1.9,4.9c1.4,1.5,3.2,2.4,5,2.4c3.4,0,5.2-2.1,6.1-3.8
			c2.2,1.6,4.7,2.7,7.2,3.4c-3.3,0.2-5.7,0.8-7.8,1.3c-2.2,0.6-4.1,1-6.7,1c-2.7,0-4.3-2-5.9-3.9c-1.5-1.8-3.2-3.9-5.7-3.1l-2,0.6
			c-1,0.3-2.1,0.6-3.2,1c0.1-0.7,0.1-1.4-0.1-2.1c-0.4-1.8-1.7-3.1-3.3-3.5c-3.7-0.8-20.6-5-25.9-6.3C494.3-7.9,494.9-8.6,495.3-9
			 M500.9-15.6L500.9-15.6c2.5-0.4,5.6-0.4,9-0.3l2.6,2.7l-7.1-0.9l-1.3-0.2l0.3,1.3l0.8,3.6l-8.7-1.9
			C497.5-12.8,500-15.5,500.9-15.6 M518.9-6.4L518.9-6.4l-11.8-2.6l-0.7-3.2l8,1L518.9-6.4z M520-15.3L520-15.3l3.8,9.8l0.8,2.1
			l0.9-2.1l3.7-8.9l0.3-0.1c2-1,4-2,6-3l-6.9,10.8l1.3,1.2l30-22.4c2-0.7,3.9-1.4,5.7-2.1L534.4-7.7c-0.9,0.5-1.5,0.7-1.6,0.8
			l-1.9,1l1.8,1.2c0.3,0.2,0.7,0.6,0.8,0.8c-0.7,0.7-4,2.2-6.4,3.2c-0.8-0.4-2.5-1.3-4.1-2.3c-0.6-0.3-0.7-0.6-0.8-0.7l1.4-1.4
			L522-5.7l-9.5-10.2C515-15.7,517.5-15.5,520-15.3 M524.3-14.9L524.3-14.9l-0.2,0.1l-1.6,1l-0.5-1.3C522.8-15,523.6-15,524.3-14.9
			 M526-11.6L526-11.6l-1.4,3.3l-1.5-3.8l1.3-0.8L526-11.6z M527.3-14.6L527.3-14.6l-0.5,1.2l-1.6-1.3l-0.1-0.1
			C525.8-14.7,526.6-14.6,527.3-14.6 M540.6-17.2L540.6-17.2v1.3l-7.8,5.9l2.5-3.9l0,0.1L540.6-17.2z M538.6-19.1L538.6-19.1
			c5-2.4,10.1-4.5,14.9-6.4l-11.1,8.3v-3.3l-1.4,0.9l-3.5,2.2L538.6-19.1z M563.7-23.6L563.7-23.6l-1,2c-6.3,3.1-12.9,6.4-18.3,9
			l16-11.4l0,0.6L563.7-23.6z M568.4-29.6L568.4-29.6l7.9-1.7l-0.9,3.4c-3,1.5-6.4,3.2-10,5l0.6-1.2l0.7-1.4l-1.6,0.1l-3,0.1
			l6.2-4.5L568.4-29.6z M581.3-33.7L581.3-33.7c1.4,0.2,2.4,0.8,3,1.3c-1.3,0.7-3.6,1.9-6.6,3.4l0.9-3.2l0.4-1.5l-1.5,0.3l-4.3,0.9
			C576.5-33.5,579.2-34.2,581.3-33.7 M586.3-20.3L586.3-20.3c0.1,8.8-1.8,15.1-4.6,19.5l-0.2,0.4c-5.1,7.9-12.7,9.8-14.5,10.1
			c-1.1-0.5-2.4-0.9-3.7-1.2c11.3-1.5,20.1-11.2,20.1-22.9c0-3-0.6-5.9-1.7-8.6l1.4-3.1L584-28L586.3-20.3z M590.8-5.1l-0.2,1
			l-1,8.9l-5.9-4.2l-0.3-1c2.2-3.6,3.9-8.4,4.4-14.5L590.8-5.1z M592.1-0.8L592.1-0.8l1.6,5.4c-0.7,0.3-1.4,0.7-2.2,1L592.1-0.8z
			 M584.8,3.7L584.8,3.7l4.4,3.1c-0.9,0.5-1.9,1-2.9,1.5L584.8,3.7z M598.7,5L598.7,5c6.1-2.5,7.7-7.6,8.7-10.5
			c1.2-3.5,3.8-1.6,3.8-1.6l0.3-0.2c2-1.2,4.2-3.8,4.9-3.7c0,0,2.3,1,1.6,2.4c-0.5,1-3.6,3.6-3.8,4.3c-0.7,2.4-2.3,5.2-4.5,7.2
			c-3.7,2.7-0.7,5,0.1,5.4c2.9,1.4,5.1,1.1,7.3,0.8l0.1,0c2.3-0.3,4.5,0.2,4.9,0.6c0,0,0,0,0,0.1c-0.9,1.1-8,2.1-13,0.8
			c-4.6-1.2-9.7-3-17.4,4.4c-1.3,1.2-2.5,2.6-3.9,4c-6.7,7-14.2,15-26.3,15c-5.7,0-12-1.9-18.6-3.9c-7.4-2.3-15-4.6-22.1-4
			c2-1.9,4.1-3.3,6.6-4.2c5.9-2.3,13.4-1.5,20.6,2.1c11.2,5.6,19.6-0.7,25.2-4.8l0.8-0.6C581.4,13.4,592,7.9,598.7,5 M592.5,17.7
			L592.5,17.7c0.3-0.3,0.6-0.6,0.9-0.9c0.7-0.7,1.4-1.3,2-1.8l-0.4,3.8L592.5,17.7z M600.4,27.5L600.4,27.5L600.4,27.5l-0.8,6.6
			l-5.7-3.1l-2.6-7.8l0.1-0.2l-0.1,0l-1-3c0.3-0.3,0.6-0.6,0.9-0.9l4.3,1.9l1.2,0.5l0.1-1.3l0.4-4.1L600.4,27.5z M601.3,35.7
			L601.3,35.7l0.4-3.9l3.4,11.4h0l-0.8,6.2l-5.3-3.5l0,0.1l-2-6.1l0-0.1l-0.1,0l-2.1-6.2l5.2,2.8l1.2,0.6L601.3,35.7z M605.9,51.1
			L605.9,51.1l0.5-3.6l3.4,11.5l-0.9,5.7l-4.8-3.7l-0.2,0.2l-1.5-4.6l0,0h0l-2.6-7.8l4.7,3.1l1.2,0.8L605.9,51.1z M611.4,83.8
			L611.4,83.8l-1.5-4.6l3.6,3.4l1.2,1.1L615,82l0.6-3.2l1.5,4.9H611.4z M487,77.9L487,77.9l-1.1,5.9h-13.5c3.4-3.3,6.8-7.4,9.2-11.8
			L487,77.9z M492.6,83.8L492.6,83.8h-3.3l10.6-55.3c0.8,0.1,1.6,0.2,2.4,0.2C501.1,35.5,495.1,69.5,492.6,83.8 M506.7,43.7
			L506.7,43.7l0.5,0.9l0.8-0.7l6.7-5.7l-1.3,7.3l-7.3,6.3l-4.9-7.2l1.3-7.5L506.7,43.7z M526.9,29.2L526.9,29.2L521,37l-2.8-7.2
			l-0.2,0.1l0.1-0.7c0.1-0.1,0.2-0.2,0.2-0.3c2.7-0.6,5.6-0.6,8.6-0.2L526.9,29.2z M533.4,61.7L533.4,61.7l-8.9-7.9l1.3-7.8l7.5,7.5
			L534,54l0.6-0.5l8.5-6.7l0.4,7.4L533.4,61.7z M532.7,71.7L532.7,71.7l-9.9-8l1.4-7.9l8.6,7.6l0.5,0.5l0.6-0.4l9.7-7.2l0.5,7.5
			L532.7,71.7z M521.1,73.7L521.1,73.7l1.4-7.9l8.6,6.9h-9.7V74L521.1,73.7z M520.8,75.8L520.8,75.8l0.7,0.5v7.5h-2L520.8,75.8z
			 M500.9,83.5L500.9,83.5l0.2,0.3h-6.7l1.1-6.2L500.9,83.5z M507.8,78.8L507.8,78.8l-0.9,4.9h-5l0.2-0.2L507.8,78.8z M510.6,83.8
			L510.6,83.8h-1.8l0.4-2.4L510.6,83.8z M502.3,73.5L502.3,73.5l0.6,0.7l0.7-0.6l5.9-5l-1.3,7.4l-6.6,5.6l-5.7-6.4l1.4-7.8
			L502.3,73.5z M503.8,63.6L503.8,63.6l0.6,0.8l0.7-0.6l6.2-5.2l-1.3,7.4l-6.9,5.8l-5.4-6.7l1.4-7.7L503.8,63.6z M511.8,55.7
			L511.8,55.7l-7.1,6l-5.1-6.9l1.4-7.6l4.3,6.5l0.6,0.9l0.8-0.7l6.4-5.5L511.8,55.7z M515.9,62.8L515.9,62.8l0.6,1.3l0.9-1.1
			l4.6-5.5l-1.5,8.8l-5.6,6.3l-3.1-6.4l1.5-9L515.9,62.8z M516,41.9L516,41.9l1.5-8.8l2.4,6.2l0.6,1.6l1-1.3l4.8-6.3l-1.4,8.4
			l-5.8,7.3L516,41.9L516,41.9z M515.2,35.3L515.2,35.3l-0.8,0.7c0.3-0.8,0.7-1.6,1.1-2.4L515.2,35.3z M515.4,45.1L515.4,45.1
			l2.5,5.9l0.6,1.5l1-1.2l4.7-5.9l-1.5,8.6l-5.7,6.8l-3.1-6.7L515.4,45.1z M517.9,81.9L517.9,81.9l-0.3,1.9h-1.4L517.9,81.9z
			 M513.6,83.8L513.6,83.8h-0.9l-2.9-5.4L510,77l0.1-0.1l-0.1-0.1l1.3-7.5l2.7,5.3l0.6,1.2l0.9-1l4.5-5.1l-1.5,8.9L513.6,83.8z
			 M544.2,66.1L544.2,66.1l0.4,6.7h-10.2L544.2,66.1z M549.8,60.2L549.8,60.2l-4.4-6.5l-0.5-8.5l3.5,5.3l0.8,1.2l0.7-1.3l3.3-5.5
			l0.5,8.8L549.8,60.2z M548.7,72.8L548.7,72.8h-2.2l-0.2-3.5L548.7,72.8z M550.4,72.1L550.4,72.1l-4.4-6.3l-0.5-8.5l3.5,5.1
			l0.8,1.2l0.7-1.2l3.3-5.4l0.5,8.9L550.4,72.1z M554.6,68.9L554.6,68.9l0.2,3.9h-2.7L554.6,68.9z M564.6,44.4L564.6,44.4l-10.1-7.9
			l0-0.7c2.4,0.4,4.7,0.7,7,0.7c4,0,7.5-0.8,10.6-2.1l0.2,0.8L564.6,44.4z M574.6,44.7L574.6,44.7l-8.5,9l-11-8l-0.4-6.9l9.5,7.5
			l0.7,0.6l0.6-0.7l7.4-8.9L574.6,44.7z M582.4,37.1L582.4,37.1l-1.5,7.1l-5.4-3.8l-1.6-6.9c2-1,3.9-2.1,5.6-3.4L582.4,37.1z
			 M599.9,62.5L599.9,62.5l-7-5.7l0,0.1l-5.3-12.4l6.4,4.8l1.2,0.9l0.2-1.5l0.8-4.8l4.3,12.9L599.9,62.5z M605.9,78.1L605.9,78.1
			l-6.3-5.5l-5.2-12.1l5.7,4.6l1.3,1.1l0.2-1.7l0.4-3.3l4.1,12.5L605.9,78.1z M604.4,83.8L604.4,83.8l-3.1-7.3l6.4,5.6l0.1-1.9
			l0-1.4l1.7,5.1H604.4z M584.1,76.2L584.1,76.2l8.8,4.5l1,0.5l0.3-1.2l2.2-10.2l1.6,3.7l0,0l0.1,0.1l4.3,10.1h-18.3l0-6.8V76.2z
			 M588.9,69.3L588.9,69.3l1.1,0.6l0.3-1.2l1.9-8.8l3,7l-2.5,11.5l-8.6-4.4v-1.4h-1l-1.8-7.7L588.9,69.3z M580.7,62.7L580.7,62.7
			l-2-8.6l6.3,3.9l1.1,0.7l0.3-1.3l1.6-7.4l3,7l-2.2,10.1L580.7,62.7z M571.5,72.8L571.5,72.8l8.2-6.8l1.6,6.8H571.5z M576.9,54.4
			L576.9,54.4l-9.3,8.7l-11.9-8l-0.4-7l10.4,7.6l0.7,0.5l0.5-0.6l8.2-8.7L576.9,54.4z M576.1,43.2L576.1,43.2l4.8,3.4l1.1,0.8
			l0.3-1.3l1.3-6l3,7l-1.9,8.6l-6.7-4.1L576.1,43.2z M566,72.8L566,72.8h-9.4l-0.4-6.1L566,72.8z M556.2,64.4L556.2,64.4l-0.4-7
			l11.3,7.6l0.6,0.4l0.5-0.5l9.1-8.5l1.8,7.6L569,72.5L556.2,64.4z M582.5,27.6L582.5,27.6c2.3-2,4.3-4.1,6.2-6.1l0.6,1.9l-1.6,7.9
			L582.5,27.6z M587.9,33.6L587.9,33.6l1.2,0.8l0.3-1.4l1.2-6.1l4.4,13.2l-1.1,6.8l-7.2-5.4l-0.2,0.3L580.9,29
			c0.1,0,0.1-0.1,0.2-0.1L587.9,33.6z M546.8,33.8L546.8,33.8c0.9,0.3,1.8,0.5,2.6,0.7l-1,1.8L546.8,33.8z M547.7,38.6L547.7,38.6
			l0.8,1.3l0.8-1.3l2-3.5c0.5,0.1,0.9,0.2,1.4,0.3l0.4,6.3l-3.9,6.6l-4.4-6.7l-0.5-8.4L547.7,38.6z M527.9,34L527.9,34l0.9-5
			c4.4,0.7,8.9,2.1,13.4,3.5c0,0,0,0,0.1,0l0.1,2.4l-7.5,6.6l-6.7-7.7L527.9,34z M534.1,43.4L534.1,43.4l0.6,0.7l0.7-0.6l7.1-6.3
			l0.4,7.4l-8.8,7l-7.9-7.9l1.3-7.7L534.1,43.4z M577.7,13.2L577.7,13.2c-1.3,0.8-2.6,1.7-3.9,2.5c-0.9-1.8-2.3-3.3-4-4.6
			L577.7,13.2z M583,3.9L583,3.9l1.7,5.3c-1.2,0.6-2.3,1.3-3.5,2L583,3.9z M579.2,11.8L579.2,11.8l-7.1-1.9c2.8-1.3,6.3-3.5,9.3-7.2
			L579.2,11.8z M571.8,17.2L571.8,17.2c-5.4,4-12.8,9.5-22.6,4.6c-7.8-3.9-16-4.7-22.6-2.2c-5.8,2.2-10.3,6.7-13.5,13.4
			c-1.5-3.5-3.5-11.5-1.3-17.8c2.3-6.5,9.3-7.4,15-9.1l2-0.6c0.9-0.3,1.6,0.5,3.1,2.3c1.8,2.2,3.9,4.8,7.8,4.8c3,0,5.1-0.5,7.4-1.1
			c2.6-0.7,7.7-2.3,12.2-2.3C566.9,9.2,569.9,12.8,571.8,17.2 M545.4,0.3L545.4,0.3l-0.2,0.1l-0.1,0.2c-0.8,1.8-1.7,2.5-2.3,2.7
			c-0.7,0.3-1.2,0-1.4-0.1c-0.5-0.3-0.8-0.8-0.8-1.4c0-0.6,0.3-1.2,0.9-1.5c0,0,7.6-4.5,15-8.8C552.4-5.1,548.1-1.9,545.4,0.3
			 M546.8,1.7L546.8,1.7c6.9-5.7,23.3-17.8,23.5-18l-0.1,0l-0.4-0.6l-0.5-1c0,0-28.6,16.7-28.5,16.7c-1.2,0.6-1.9,1.8-1.9,3.1
			c0,1.3,0.6,2.4,1.7,3c0.9,0.5,1.9,0.6,3,0.2c0.5-0.2,1.1-0.5,1.7-1.1c-0.6,1-1.8,2.4-4.2,2.4c-1.2,0-2.6-0.7-3.6-1.8
			c-1-1.1-1.5-2.3-1.4-3.5c0.1-1.3,1.7-2.9,4-4.1l40.5-21.4l-0.4,1l-0.2,0.4l0.1,0.4c1.1,2.6,1.7,5.4,1.7,8.3
			c0,11.7-9.6,21.2-21.3,21.2c-4.9,0-9.4-1.6-13.2-4.6l-0.5-0.4C546.7,1.8,546.7,1.7,546.8,1.7 M509.2,16.2L509.2,16.2
			c-1.4-0.3-4.4-0.9-8.4-1.4c-0.2-0.3-0.3-0.7-0.5-1c4.3,1,7.6,0.7,9.9,0c-0.3,0.6-0.6,1.1-0.8,1.8C509.3,15.7,509.2,16,509.2,16.2
			 M509.3,29.6L509.3,29.6c1.1,3.9,2.7,6.7,2.8,6.9l0.6,1l-5,4.3l-4.6-7.5l1-5.4C505.9,29.1,507.7,29.3,509.3,29.6 M474.9,47.7
			L474.9,47.7c-1-0.5-2.1-0.9-3.1-1.3c-5.3-2.2-9.9-4.1-9.9-9.9c0-1.2,0.4-2.2,1.1-3.1c3.2,5.5,5.5,9.4,5.8,9.9l0.2,0.4l0.3,0.2
			L474.9,47.7z M471.8,41.1L471.8,41.1c-0.7-1.1-2.9-4.9-5.8-10c6.3-3.3,19.1-3.7,30.5-2.9l-5,26.4L471.8,41.1z M481.7,52.3
			L481.7,52.3l9,6.2l-3.1,16.4l-4.9-5.3c1.2-2.8,1.9-5.7,1.9-8.7C484.6,57.1,483.4,54.3,481.7,52.3 M442.4,72.8L442.4,72.8V47.2
			c2.1,2.2,5,3.9,7.8,5.5c4.7,2.6,9.1,5.1,9.1,9.8c0,3.9-1.5,7.4-3.7,10.2H442.4z M632.7,83.8L632.7,83.8h-12.8l-2.1-7.1
			c4.3-4.4,9.5-9.8,14.9-15.3V83.8z M635.1,72.8L635.1,72.8v-14c14-14.4,28.1-28.8,28.1-28.8l0.6-0.7v43.5H635.1z M610.5,66.6
			L610.5,66.6l0.5-3.4l3.5,11.7l-0.9,5.2l-4.3-3.9l-0.3,0.3l-4.1-12.5l4.2,3.2l1.2,1L610.5,66.6z M696.1,222.9l3.6,5.3v0
			L696.1,222.9z M696.1,229.5l3.6,4.9c24.2,32,67.5,67.5,68,67.9l3,2.5V10.2c0-4.3-1.5-5.7-4.5-8.3c-1.1-1-6.7-5.1-13.8-10.3
			c-11.5-8.5-27.2-20.2-30.5-23.2c-3.9-3.6-6.6-2.5-8.6-1.8l-0.4,0.2c-2.2,0.9-39.2,15.6-41.6,16.8l-1,0.5c-1.9,0.9-3.7,1.8-4.9,3.9
			c-1.9,3.5-28.5,48.8-31,53.1l-22.9,14.7l-12.8-43.3c3.5-2,5.6-1.1,8-0.5c0.1,0,14.2,2.8,16.3-1c0.7-1.2,0.3-2.1,0-2.6
			c-1.4-2-4.7-1.9-6.2-1.6l-0.1,0c-2.2,0.3-4,0.5-6.6-1c3.4-2.4,5.6-6.3,6.5-9.3c0.3-0.9,0.7-1.6,1.2-2.1c0.5,0.9,1.1,2.4,1.1,4.4
			c0.6-2.6,0.4-4.5,0.1-5.6c0.7-0.8,1.3-1.9,0.4-3.5c-0.4-0.7-1-1.6-2.1-1.9c-1.6-0.4-3.3,0.6-6.7,2.7c-2.9,0.2-4,2.3-4.9,4.4
			c-1.2,2.5-2.6,5.6-7.8,7.8c-0.5,0.2-1.1,0.5-1.6,0.7c-3.5-11.7-6.9-23.2-10.3-34.8c0.5-0.3,0.9-0.5,1.2-0.6c0.6-0.3,0.8-1,0.7-1.6
			c-0.3-1.5-2.8-3.3-5.5-3.8c-2.9-0.5-6.3,0.4-10.6,1.7c-10.5,3.2-28.1,9.8-43.4,17.9c-8-0.9-21-2.3-28.6-1.2
			c-2.2,0.3-6.9,5.6-7.2,7.5c-0.5,0.6-1.5,1.7-2.6,2.9l-0.5,0.6c-0.7,0.9-1.5,1.8-2.1,2.7c-1.6,2.2,1.7,11,5.2,19
			c-10.5-0.8-23.8-0.7-34.6,3.4c-7.8-13.3-16-27.4-17-29.3c-1.2-2.2-3-3-4.9-3.9l-1-0.5c-2.4-1.2-39.4-15.9-41.6-16.8l-0.4-0.2
			c-2-0.8-4.7-1.9-8.6,1.8c-3.3,3-19,14.7-30.5,23.2c-7.1,5.2-12.6,9.4-13.7,10.3c-3.1,2.6-4.5,4.1-4.5,8.3v294.5l3-2.5
			c0.5-0.4,43.8-35.9,68-67.9l3.5-4.9v40.4c0,78.7,64.2,142.7,143,142.7c78.8,0,143-64,143-142.7L696.1,229.5z"/>
	</g>
	<g id="g5744_00000013882159990482746820000003566206744853867927_" transform="translate(406.5859,357.7695)">
		<path id="path5746_00000036245143400192910100000016006370587460359864_" class="st1" d="M609.3,13.8c-4.6-1.2-9.7-3-17.4,4.4
			c-1.3,1.2-2.5,2.6-3.9,4c-6.7,7-14.2,15-26.2,15c-5.7,0-12-1.9-18.6-3.9c-7.4-2.3-15-4.6-22-4c2-1.9,4.1-3.3,6.6-4.2
			c5.9-2.2,13.5-1.5,20.6,2.1c11.2,5.6,19.6-0.7,25.2-4.8l0.7-0.5c7.3-5.1,17.9-10.7,24.6-13.5c6.1-2.5,7.7-7.6,8.7-10.5
			c1.2-3.4,3.8-1.6,3.8-1.6l0.3-0.2c2-1.2,4.2-3.9,4.9-3.7c0,0,2.3,1,1.6,2.4c-0.5,1-3.6,3.6-3.8,4.3c-0.7,2.4-2.3,5.2-4.5,7.2
			c-3.7,2.7-0.7,5,0.1,5.4c2.9,1.4,5.1,1.1,7.3,0.8l0.1,0c2.3-0.3,4.5,0.2,4.9,0.6c0,0,0,0,0,0.1C621.4,14.1,614.3,15.1,609.3,13.8"
			/>
	</g>
	<g id="g5748_00000156570164201352499280000015221663556646922132_" transform="translate(407.1113,361.3613)">
		<path id="path5750_00000065796817589631451640000005763441950177430975_" class="st3" d="M611.1-5.4c0,0.7-0.5,1.2-1.2,1.2
			c-0.7,0-1.2-0.6-1.2-1.2c0-0.7,0.6-1.2,1.2-1.2C610.5-6.7,611.1-6.1,611.1-5.4"/>
	</g>
	<g id="g5752_00000045580520043702082130000014772808180877922697_" transform="translate(373.0068,353.207)">
		<path id="path5754_00000013887074979465706950000003174494812404225689_" class="st1" d="M496.3,38.2c-1.9,1.6-2.9,3.6-2.9,6
			c0,7.5,5.8,9.8,11.4,12.1c5.8,2.4,11.3,4.6,11.3,12.3c0,4.1-1.6,8.1-3.9,11.9c-2,3.1-4.2,5.8-6.7,8.3l0-8.3h-12.8
			c1.8-2.9,3.1-6.3,3.1-10.2c0-6.1-5.3-9.1-10.4-11.9c-4.1-2.3-7.9-4.4-9.1-8c-1.6-4.9-0.5-9.5,3.7-14.5c15-18.3,56.1-10.8,62.6-9.5
			c-0.5,2.9-0.3,5.9,0.2,8.4C529.5,32.8,504.6,31.2,496.3,38.2"/>
	</g>
	<g id="g5756_00000043456705882982617050000007619119063844590248_" transform="translate(384.6187,352.6387)">
		<path id="path5758_00000056408578061548435090000013663727741604683423_" class="st1" d="M535.4,41.3c-1.5-3.5-3.5-11.4-1.3-17.8
			c2.3-6.5,9.3-7.4,15-9.1l2-0.6c0.8-0.3,1.6,0.5,3.1,2.3c1.7,2.1,3.9,4.8,7.8,4.8c3,0,5.1-0.5,7.3-1.1c2.6-0.7,7.7-2.4,12.2-2.4
			c7.7,0,10.6,3.5,12.6,8c-5.4,4-12.8,9.5-22.6,4.6c-7.8-3.9-16-4.7-22.6-2.2C543.1,30,538.6,34.6,535.4,41.3"/>
	</g>
	<g id="g5760_00000132789643687367029360000008219730049472300164_" transform="translate(425.5996,298.4004)">
		<path id="path5762_00000096038710911937678100000011437210710145705101_" class="st4" d="M673.3,331.8
			c0,76.5-62.4,138.7-139,138.7c-76.7,0-139-62.2-139-138.7V190.5v-2h-2H383v-49.8h65.8v9v2h2h53.8h2v-2v-9h54.8v9v2h2h53.9h2v-2v-9
			h66.5v49.8h-12.4V331.8z"/>
	</g>
	<g id="g5764_00000016060998316277912520000010765961561246839429_" transform="translate(416.9648,298.2744)">
		<path id="path5766_00000129926887807519725430000015711057295287106741_" class="st3" d="M644.2,332.5
			c-0.5,56.6-44.6,102.3-101.2,104.1c-33.7,0.8-62-14-79.8-37.8c-13.6-18.3-21.6-41.4-21.4-66.4V191.2h202.4V332.5z"/>
	</g>
	<g id="g5768_00000180327995429576598680000006899007178326316432_" transform="translate(414.8643,301.0957)">
		<path id="path5770_00000078735254830955376640000002187689003562943673_" class="st3" d="M637.2,317.4l-1.6,0.2
			c0.6-1.3,1.1-2.7,1.2-4.1l0.3-2.7l0-0.3v-44.1l-5.1,3.4v-4.5l-3.7,2.8v-4.2l-2.1-2.4l-2.4,2.6v3.8l-3.5-2.8v5.4l-5.2-3.9v43.8
			l0,0.5l0.3,2.7c0.2,1.4,0.6,2.8,1.2,4.1l-1.6-0.2l0.3,2.7c0.1,1.1,0.4,2.2,0.8,3.2l-1.2-0.2l0.3,2.7c0.1,1.1,0.4,2.2,0.8,3.2
			l-1.2-0.2l0.3,2.7c0.1,1.1,0.4,2.2,0.8,3.2l-1.2-0.2l0.3,2.7c0.1,1.1,0.4,2.2,0.8,3.2l-1.2-0.2l0.3,2.7c0.1,1.1,0.4,2.1,0.8,3.2
			l-1.2-0.2l0,0.3h-60.9l-7.8-4.6l-2.1-1.2v8.8l-12.8-7.6l-2.1-1.2v8.9l-12.8-7.6l-2.1-1.2v7.4c-4.3-7.3-10-12.5-21.4-9
			c1.9-4.5,3.9-6.1,4-6.1l-2.2-1.1c-0.1,0.1-1.6,2-3.4,7.4c-4.5-3.6-11.3-4.2-17.7-3l-0.8-64.1v-0.3l-0.2-0.2
			c-0.1,0-0.2-0.1-0.5-0.3c1-1.2,2.5-2.9,4.4-4.5c1.1,0.9,4.8,3.8,10.1,4c3.1,0.1,5.6-1.5,8-3.2c0.7,0.8,2.2,2,4.2,2.3
			c1.9,0.3,3.8-0.2,5.7-1.5c0.1-0.1,0.1,0,0.2-0.1l0.1,0.1c7.8,2.4,11.9,1.5,13.2-0.2c0.5-0.6,0.5-1.4,0.1-2c-1-1.5-2.4-2.5-4-2.8
			c-1.3-0.2-2.7,0-4.2,0.5c-0.8-1-2.9-3.1-7.4-2.3c-1.5,0.2-2.9,0.9-4.2,1.8c-4.2-2.6-8.6-3.5-12.9-2.5c-0.3,0-0.5,0.1-0.8,0.2
			c-8.3-1.8-15.4-0.5-19.6,3.6c-1.8,1.8-2.9,4.1-3.1,6.4c-1,0.3-1.4,0.7-1.5,0.8l-0.2,0.2l0,0.3l-0.9,69.8l-1.6,1l1.6,1.3l-0.4,33.3
			l3.6,5.9h3.8c0.1,3.2,1.2,6.1,3.2,8.1c1.1,1.1,2.4,1.9,3.7,2.2c0,0.7,0.1,1.5,0.2,2.2c0.8,4.8,3.9,8.4,7.7,9.4
			c1.8,4.9,5.9,7.9,10.3,7.2c0.1,0,0.2,0,0.2-0.1c2,4.2,5.8,6.7,9.8,6c2.1-0.4,3.9-1.6,5.2-3.4c1-1.4,1.6-3.1,1.9-4.9l0.6,0.2
			c5.1,1.7,7.5,5.4,9.9,9.2c2.2,3.4,4.3,8.4,8.3,10.6l0.4,0.2c0.1,0.1,0.5,0.1,0.5,0.1l0.1,0c34.6,5.2,69.7-10.8,92.2-37l0.4-0.5
			c0.1-0.1,0.2-0.8,0.2-0.8l0-0.2c0.4-2.3,0.5-2.8,0.5-5c0-1.2-0.1-2.4-0.2-3.6h4.6l3.9-5.9h-1.9l-0.1-0.7c1.9-0.6,3.6-1.8,5-3.3
			c1.9-2,3.2-4.7,3.5-7.5l0.3-2.7l-1.2,0.2c0.4-1,0.7-2.1,0.8-3.2l0.3-2.7l-1.2,0.2c0.4-1,0.7-2.1,0.8-3.2l0.3-2.7L636,352
			c0.4-1,0.7-2.1,0.8-3.2l0.3-2.7l-1.2,0.2c0.4-1,0.7-2.1,0.8-3.2l0.3-2.7l-1.2,0.2c0.4-1,0.7-2.1,0.8-3.2l0.3-2.7l-1.2,0.2
			c0.4-1,0.7-2.1,0.8-3.2l0.3-2.7L636,329c0.4-1,0.7-2.1,0.8-3.2l0.3-2.7l-1.2,0.2c0.4-1,0.7-2.1,0.8-3.2L637.2,317.4z"/>
	</g>
	<g id="g5772_00000008851725679425701590000003782634277093494155_" transform="translate(385.4043,281.0801)">
		<path id="path5774_00000012438157594951310250000012025668416413756334_" class="st3" d="M538,424.6c-0.4-1.6-1.1-3.1-2.1-4.4
			c0.3-1.3,0.5-2.7,0.4-4.1c-0.1-1.3-0.3-2.4-0.7-3.6c0.2,0,0.4,0,0.6,0c0.8-0.2,1.5-0.5,2.2-0.8l0.6,1.8l0.3,1c0,0,0.5,1.5,0.5,1.5
			c0.8,2.4,1.5,4.3,2.2,6.1C540.5,422.5,539.2,423.4,538,424.6"/>
	</g>
	<g id="g5776_00000114065911506697247830000011898443377643321774_" transform="translate(394.3652,285.4004)">
		<path id="path5778_00000180349685564487969350000012260196136236195474_" class="st3" d="M568.2,401.5l-0.6,1
			c-0.1,0.2-1.7,2.8-3.2,6.4c-2.5-3.5-6.8-7.1-13.7-8.7L550,400l-2.5-0.5c-1.1,3.9-1.3,7.6-0.6,12.1c-3.1-2-7.7-5.1-13.2-5.6l-1-0.1
			l-1.1-0.1c0.4-0.4,0.7-0.8,1-1.2c1-1.6,1.6-3.5,1.8-5.5h35.4L568.2,401.5z"/>
	</g>
	<g id="g5780_00000059282923706945329670000004159429886682016181_" transform="translate(400.8945,285.3027)">
		<path id="path5782_00000153692905243061092170000004407402210069812109_" class="st3" d="M590.2,402c-0.1,0-0.1,0-0.2,0
			c-6.5,1.2-10.1,5.3-12,8.6c-1-0.7-2.1-1.3-3.4-1.8c-6-2.4-8.2-6.1-8.2-6.1c0,0-0.6-1-0.6-1l-1.4-2.5h25.9
			C590.2,400.1,590.2,401,590.2,402"/>
	</g>
	<g id="g5784_00000028292396114625959090000013734290882181146806_" transform="translate(407.1543,311.4146)">
		<path id="path5786_00000021121333686910595430000010011679898541855914_" class="st3" d="M611.2,262.1c-2.2,3.1-5.8,4.9-9.6,4.9
			c-4.3,0-8.3-2.4-10.3-6.1h-3.6c-2.1,3.8-6,6.1-10.3,6.1c-4.3,0-8.3-2.4-10.4-6.1h-3.6c-2.1,3.8-6,6.1-10.3,6.1
			c-4.3,0-8.3-2.4-10.3-6.1h-3.6c-2.1,3.8-6,6.1-10.3,6.1c-4.3,0-8.3-2.4-10.3-6.1h-3.6c-2.1,3.8-6,6.1-10.3,6.1
			c-3.5,0-6.8-1.6-9.1-4.3l-3.1,2.6c3,3.6,7.5,5.7,12.2,5.7c4.7,0,9.1-2.1,12.1-5.7c3,3.5,7.4,5.7,12.1,5.7c4.7,0,9.2-2.1,12.1-5.7
			c3,3.5,7.4,5.7,12.1,5.7c4.7,0,9.1-2.1,12.1-5.7c3,3.5,7.4,5.7,12.1,5.7c4.7,0,9.2-2.1,12.1-5.7c3,3.5,7.4,5.7,12.1,5.7
			c5.1,0,9.9-2.5,12.9-6.6L611.2,262.1z"/>
	</g>
	<g id="g5788_00000073683605400550197660000007259455476815780797_" transform="translate(409.9316,317.7891)">
		<path id="path5790_00000167356386698584858840000012090597647214577810_" class="st3" d="M620.6,228l1.2-0.9l2.3-1.9l-2.9-0.5
			l-1.5-0.3c0,0-28.6-5.2-34.5-6.3c-0.1-0.9-0.1-1.8-0.2-2.6l0.6-1.1c1.3-2.3,2.5-4.7,4.3-9.6c0-0.1,0-0.1,0.1-0.2l20.3-9.8
			l-4.9,14.7l-0.8,2.3l-1.5,4.6l3.7-3.2l1.8-1.6c0,0,35.8-32,35.8-32l-19.2,6.2l2.3-6.9l0.4-1.3l0.8-2.5l-2.6,0.8l-1.3,0.4
			l-40.9,13.3c-1.3-1-2.7-2-4-2.8c0,0-2-1.3-2-1.3c-2.5-1.8-5.3-2.3-8-1.6l-1.1-0.7l-2-1.3c-2.9-2-6.1-2.4-9.2-1.1l-1.1-0.7l-2-1.3
			c-5.9-4.1-10.9-0.7-13.2,1.4c-1.3-0.8-2.7-1.6-4.1-2.4c-2.6-1.5-5.7-1.4-8.5,0.3c-3.9,2.3-6.6,7.2-7.8,13.8l-47.4-15.4l-1.3-0.4
			l-2.6-0.8l0.8,2.5l0.4,1.3l2.3,7l-17.4-4.8l33.9,30.5c0,0,1.9,1.6,1.9,1.6l3.7,3.2l-1.5-4.6l-0.8-2.3l-4.9-14.7l26.7,12.8
			c-0.5,2.2-0.8,4.8-0.8,8c0,1.2,0.1,2.4,0.3,3.6l-35.7,6.5l-1.5,0.3l-3,0.5l2.3,1.9l1.2,0.9c0,0,1.5,1.2,2.8,2.2l-23.7,9.7l51-1.5
			c0,0,1.7-0.1,1.7-0.1l3.4-0.2l-2.6-2.2l-1.3-1.1c0,0-3.1-2.6-5.4-4.5l14.7-2c1.9,2.6,4.1,4.6,5.6,5.9c1.2,1,2.7,2.4,2.7,2.9v19.3
			v1.9l1.8-0.6l0.9-0.3c2.5-0.8,4.5-2.6,5.8-4.8l0.4-0.7h5.2l0.4,0.7c1.8,3.3,5.3,5.4,9.1,5.4c3.8,0,7.3-2.1,9.1-5.4
			c0,0,0.2-0.3,0.4-0.7h5.2l0.4,0.7c1.8,3.3,5.3,5.4,9.1,5.4c1.2,0,2.4-0.2,3.5-0.6l0.5-0.2l0.9-0.3v-0.9v-18.4c2.3-2.7,4-6,4.9-10
			l10.3,1.4l-5.4,4.5l-1.3,1.1l-2.6,2.2l3.4,0.2l1.7,0.1c0,0,51.2,1.5,51.2,1.5l-24-9.7C619.1,229.2,620.6,228,620.6,228"/>
	</g>
	<g id="g5792_00000152257452324687518210000002097964066853201796_" transform="translate(410.8018,328.9102)">
		<path id="path5794_00000000943055313609148650000004128105866332400261_" class="st3" d="M623.5,168.4l-3.2,9.9l-0.5,1.4l1.4-0.6
			l15.3-6.4L607.8,197l5.6-17l0.5-1.5l-1.4,0.7l-24.2,11.6c0.6-4.1-1.3-7.1-4.2-9.6L623.5,168.4z"/>
	</g>
	<g id="g5796_00000113318107701016274110000013934313886849563802_" transform="translate(382.0371,317.4224)">
		<path id="path5798_00000013193978822722100800000000176487675503797430_" class="st3" d="M526.7,229.9l-1.5,0.2l1.2,1l7.6,6.4
			l-41.2,2.5l20.1-6.8l1.2-0.4l-1-0.8l-4.5-3.6l51.4-9.3c0.7,1.4,2.1,3.1,4.9,3.7c2.4,0.5,4.1,0.5,5.7-0.6c0.3,0.6,0.7,1,1.1,1.4
			L526.7,229.9z"/>
	</g>
	<g id="g5800_00000002352625959938224190000000271244259507343753_" transform="translate(388.7656,324.813)">
		<path id="path5802_00000089572347495081623820000007848250458118979474_" class="st3" d="M549.3,190.3c-1.1,0.6-2.2,1-3.3,1.4
			c-3.3,1.3-6.3,2.4-8,6.9l-31.8-15.3l-1.4-0.7l0.5,1.5l5.6,17l-28.7-24.4l15.3,6.4l1.4,0.6l-0.5-1.4l-3.2-9.9l54.5,17.7
			C549.6,190.2,549.4,190.3,549.3,190.3"/>
	</g>
	<g id="g5804_00000065778204966506350530000007907493406787180167_" transform="translate(403.4658,315.9927)">
		<path id="path5806_00000015323379074692981810000011787625716441909671_" class="st3" d="M598.8,237.6l7.6-6.4l1.2-1L606,230
			l-22.8-3.1c1.8-0.9,3.5-2.5,4.4-4.8c0,0,0-0.1,0-0.1l36.4,6.6l-4.5,3.6l-1,0.8l1.2,0.4l20.1,6.8L598.8,237.6z"/>
	</g>
	<g id="g5808_00000048462804926514181070000003220334021636794785_" transform="translate(392.9858,318.8555)">
		<path id="path5810_00000023273266253633978830000006394103846530748597_" class="st3" d="M563.5,222.2c-0.8-0.2-2.3-0.8-2.8-2.4
			c1.2-1.3,2.5-3.3,4-6.3c3.2-6.4,9.9-21.7,3.6-26.1l-0.7-0.5c-2.9-2-5.4-3.7-8-5.4c1.5-1.6,5.5-4.9,10.2-1.6l2,1.4
			c5.9,3.9,11.4,7.6,8.9,14.7c-2.1,5.9-4.1,10.8-6.1,15.7l-2.5,6.1C570.6,221.5,566.5,223,563.5,222.2"/>
	</g>
	<g id="g5812_00000057831795082340928400000003911666129850197661_" transform="translate(395.9736,318.6895)">
		<path id="path5814_00000153666116726847281940000012520977546172378008_" class="st3" d="M573.6,223.1c-1.1-0.3-3-1.2-3.2-4.5
			l-0.1,0c0-0.1,0.1-0.1,0.1-0.2l2.5-6.1c2-4.8,4.1-9.8,6.2-15.7c2.4-6.7-1.6-10.7-6.5-14.2c1.8-0.7,4.1-0.8,6.6,0.9l2,1.4
			c0.7,0.5,1.4,1,2.2,1.4c0,0,0,0,0,0l0,0c4.9,3.4,8.9,7,6.7,13.2c-1.8,4.9-3.4,8.3-4.9,11.6c-1.1,2.3-2.2,4.6-3.3,7.4
			C580.4,222.1,576.4,223.8,573.6,223.1"/>
	</g>
	<g id="g5816_00000161607256674222493020000006276275532203345589_" transform="translate(402.2969,323.3145)">
		<path id="path5818_00000178904321612432733250000010633847109890213052_" class="st3" d="M594.9,198.4c-1.7,4.7-2.8,6.9-4.1,9.2
			c-1,1.8-2,3.6-3.2,6.6c-1.5,3.7-5.5,5.4-8.3,4.7c-1.1-0.3-3-1.2-2.7-4.2l-0.1,0c0.1-0.2,0.2-0.3,0.3-0.5c1.1-2.8,2.2-5.1,3.3-7.3
			c1.6-3.3,3.2-6.7,4.9-11.7c2.3-6.7-1.6-8.8-6.4-12.2c1.6-0.3,3.4-2,5.4-0.6l2,1.4C591.8,187.6,597.3,191.3,594.9,198.4"/>
	</g>
	<g id="g5820_00000035517394043914989220000004276326663016684935_" transform="translate(388.1294,324.2021)">
		<path id="path5822_00000038414042733063676690000013554917530581595779_" class="st3" d="M547.2,193.6c1.1-0.4,2.2-0.8,3.4-1.4
			c5.8-2.9,13.1-5.4,14.3-5.8c1.1,0.3,7.1,2.2,6.1,7.6c-1,6-11.4,7.8-11.5,7.8l-0.5,0.1l0,0.6c0,0.3-0.4,8.5-12.4,9.8l0,0.1
			l-7.5,1.4c-0.2-1.3-0.4-2.8-0.4-4.4C538.7,196.9,542.2,195.5,547.2,193.6"/>
	</g>
	<g id="g5824_00000154398483683889098170000005552979645638313897_" transform="translate(392.9717,320.9863)">
		<path id="path5826_00000037669888467491736030000006141215111641825435_" class="st3" d="M563.5,210.8c-1.3,2.7-2.4,4.5-3.4,5.6
			c-0.1,0.1-0.2,0.2-0.3,0.3c-1.7,1.7-3.2,1.7-5.5,1.2c-3.3-0.7-4-3.1-4.2-3.8c4.2-2.7,5.2-6.5,5.4-7.9c2.2-0.5,11-2.6,12.1-8.9
			c1-5.7-4.4-8.5-7.4-9.2l-0.2,0l-0.2,0.1c-0.1,0-6.6,2.2-12.5,4.9l-6.9-2.2c0.8-6.6,3.2-11.6,6.8-13.7c1.9-1.2,3.9-1.2,5.7-0.2
			c5.4,3,9.2,5.7,14,9l0.7,0.5C572,189.6,568.4,201.1,563.5,210.8"/>
	</g>
	<g id="g5828_00000123433124384812298720000007175292934175075983_" transform="translate(399.1289,318.2505)">
		<path id="path5830_00000072262706074503998700000012195539343910259599_" class="st3" d="M584.2,225.5c-0.7,0-1.4,0-2-0.1
			c-0.3-0.1-0.5-0.1-0.8-0.3l-6.2-0.8c-1.7,0.8-3.5,1-5.1,0.6c-1.2-0.3-2.1-0.9-2.8-1.7l-3.2-0.4c-2.1,1.4-4.6,2-6.7,1.5
			c3.5,2,7.6,5.9,9.7,13.3l-1.3,0.4c-2.5-8.8-7.7-12.2-11.3-13.6l-23.1,3.2c1.6,2.3,3.5,4,5.2,5.5c2.1,1.8,3.7,3.2,3.7,5v17.3
			c1.4-0.7,2.6-1.8,3.4-3.2l1-1.8l0.2-0.3h8.4l0.2,0.3l1,1.8c1.3,2.5,3.9,4,6.7,4c2.8,0,5.4-1.5,6.7-4l1-1.8l0.2-0.3h8.4l0.2,0.3
			l1,1.8c1.3,2.5,3.9,4,6.7,4c0.7,0,1.4-0.1,2.2-0.4v-16.6c-3.1,2.7-6,3.5-6,3.5l-0.3-1.3c0.3-0.1,3.3-0.9,6.3-3.9v-0.2h0.2
			c2.1-2.2,4.1-5.6,5.1-10.6L584.2,225.5z"/>
	</g>
	<g id="g5832_00000181086045611176119900000005866235647867687344_" transform="translate(413.7695,298.9453)">
		<path id="path5834_00000170243533493606825430000000342673960909298614_" class="st3" d="M633.5,328.9c-1.8,1.8-4.1,2.9-6.3,3.2
			c0.3-2.2,1.4-4.4,3.2-6.3c1.8-1.8,4.1-2.9,6.3-3.2C636.4,324.9,635.3,327.1,633.5,328.9"/>
	</g>
	<g id="g5836_00000105384989168092064690000015636271051584097417_" transform="translate(413.7695,297.2109)">
		<path id="path5838_00000116217713873881111220000017463810294691706302_" class="st3" d="M633.5,338.2c-1.8,1.8-4.1,2.9-6.3,3.2
			c0.3-2.2,1.4-4.4,3.2-6.3c1.8-1.8,4.1-2.9,6.3-3.2C636.4,334.1,635.3,336.4,633.5,338.2"/>
	</g>
	<g id="g5840_00000096061135812519902730000011077095155381962142_" transform="translate(413.7695,295.4805)">
		<path id="path5842_00000162348744128642319430000011938514867214614415_" class="st3" d="M633.5,347.5c-1.8,1.8-4.1,2.9-6.3,3.2
			c0.3-2.2,1.4-4.4,3.2-6.3c1.8-1.8,4.1-2.9,6.3-3.2C636.4,343.4,635.3,345.6,633.5,347.5"/>
	</g>
	<g id="g5844_00000107570572597493263920000013242406956174400934_" transform="translate(413.7695,293.752)">
		<path id="path5846_00000133531465061600976890000015019637827289816226_" class="st3" d="M633.5,356.7c-1.8,1.8-4.1,2.9-6.3,3.2
			c0.3-2.2,1.4-4.5,3.2-6.3c1.8-1.8,4.1-2.9,6.3-3.2C636.4,352.7,635.3,354.9,633.5,356.7"/>
	</g>
	<g id="g5848_00000120521293359641762770000008528531500126233995_" transform="translate(413.7695,292.0234)">
		<path id="path5850_00000141422287874325846530000011289761160752499590_" class="st3" d="M633.5,366c-1.8,1.8-4.1,2.9-6.3,3.2
			c0.3-2.2,1.4-4.4,3.2-6.3c1.8-1.8,4.1-2.9,6.3-3.2C636.4,361.9,635.3,364.2,633.5,366"/>
	</g>
	<g id="g5852_00000085942492999228523570000007979228434015215503_" transform="translate(413.7695,290.291)">
		<path id="path5854_00000141413319762458708260000018404323769809442736_" class="st3" d="M633.5,375.3c-1.8,1.8-4.1,2.9-6.3,3.2
			c0.3-2.2,1.4-4.4,3.2-6.3c1.8-1.8,4.1-2.9,6.3-3.2C636.4,371.2,635.3,373.4,633.5,375.3"/>
	</g>
	<g id="g5856_00000039851044344217501290000013277487458318312334_" transform="translate(410.8867,298.9453)">
		<path id="path5858_00000161601831409274436230000009585345029789922232_" class="st3" d="M623.8,328.9c1.8,1.8,4.1,2.9,6.3,3.2
			c-0.3-2.2-1.4-4.4-3.2-6.3c-1.8-1.8-4.1-2.9-6.3-3.2C620.9,324.9,621.9,327.1,623.8,328.9"/>
	</g>
	<g id="g5860_00000132800442800142571300000001509965693140478909_" transform="translate(410.8867,297.2109)">
		<path id="path5862_00000139281506394752191360000017904559627971613084_" class="st3" d="M623.8,338.2c1.8,1.8,4.1,2.9,6.3,3.2
			c-0.3-2.2-1.4-4.4-3.2-6.3c-1.8-1.8-4.1-2.9-6.3-3.2C620.9,334.1,621.9,336.4,623.8,338.2"/>
	</g>
	<g id="g5864_00000109018274250797672740000017903923752460872834_" transform="translate(410.8867,295.4805)">
		<path id="path5866_00000082361556315052442000000006846716339984879274_" class="st3" d="M623.8,347.5c1.8,1.8,4.1,2.9,6.3,3.2
			c-0.3-2.2-1.4-4.4-3.2-6.3c-1.8-1.8-4.1-2.9-6.3-3.2C620.9,343.4,621.9,345.6,623.8,347.5"/>
	</g>
	<g id="g5868_00000116221416940822925240000002042982790814479256_" transform="translate(410.8867,293.752)">
		<path id="path5870_00000035515783291284764840000008462814799040151442_" class="st3" d="M623.8,356.7c1.8,1.8,4.1,2.9,6.3,3.2
			c-0.3-2.2-1.4-4.5-3.2-6.3c-1.8-1.8-4.1-2.9-6.3-3.2C620.9,352.7,621.9,354.9,623.8,356.7"/>
	</g>
	<g id="g5872_00000036233850452811001090000013625302359647158409_" transform="translate(410.8867,292.0234)">
		<path id="path5874_00000041982493578323752620000015843344821814705078_" class="st3" d="M623.8,366c1.8,1.8,4.1,2.9,6.3,3.2
			c-0.3-2.2-1.4-4.4-3.2-6.3c-1.8-1.8-4.1-2.9-6.3-3.2C620.9,361.9,621.9,364.2,623.8,366"/>
	</g>
	<g id="g5876_00000158715434456098650000000014420888719442956727_" transform="translate(410.8867,290.291)">
		<path id="path5878_00000102528751096423866830000002591358338977618835_" class="st3" d="M623.8,375.3c1.8,1.8,4.1,2.9,6.3,3.2
			c-0.3-2.2-1.4-4.4-3.2-6.3c-1.8-1.8-4.1-2.9-6.3-3.2C620.9,371.2,621.9,373.4,623.8,375.3"/>
	</g>
	<g id="g5880_00000150823614924903636920000002754504719012319149_" transform="translate(410.8945,288.5635)">
		<path id="path5882_00000156561437655537976000000007298886013803450535_" class="st3" d="M623.8,384.5c1.8,1.8,4.1,2.9,6.3,3.2
			c-0.3-2.2-1.4-4.4-3.2-6.3c-1.8-1.8-4.1-2.9-6.3-3.2C620.9,380.4,622,382.7,623.8,384.5"/>
	</g>
	<g id="g5884_00000096763510441989081250000011409773858625928102_" transform="translate(413.7695,288.5635)">
		<path id="path5886_00000165235667158712511490000009087659667497039018_" class="st3" d="M633.5,384.5c-1.8,1.8-4.1,2.9-6.3,3.2
			c0.3-2.2,1.4-4.4,3.2-6.3c1.8-1.8,4.1-2.9,6.3-3.2C636.4,380.4,635.3,382.7,633.5,384.5"/>
	</g>
	<g id="g5888_00000010287247454194113750000004615809856968381368_" transform="translate(411.5996,301.3262)">
		<path id="path5890_00000032642753558551334530000001928707751836472712_" class="st3" d="M626.2,316.1c-1.4-1.4-3-2.3-4.7-2.8
			v-42.8l-1.6-1.4V313c0.3,2.2,1.4,4.4,3.2,6.3c1.8,1.8,4.1,2.9,6.3,3.2C629.1,320.2,628,318,626.2,316.1"/>
	</g>
	<g id="g5892_00000160178556922237360930000016242729593407963520_" transform="translate(411.5596,312.2803)">
		<path id="path5894_00000117651790256535813840000008879866276413590415_" class="st3" d="M626,257.5l-1.6-1.4v45.2l1.6,1.2V257.5z
			"/>
	</g>
	<g id="g5896_00000121257955408621816100000015538260347954048655_" transform="translate(414.4746,312.1138)">
		<path id="path5898_00000018945674948160089650000008524265798973082552_" class="st3" d="M635.9,258.4l-1.6,1.4v42.8
			c-1.6,0.5-3.2,1.5-4.6,2.8c-1.8,1.8-2.9,4.1-3.2,6.3c2.2-0.3,4.5-1.4,6.3-3.2c1.8-1.8,2.9-4.1,3.2-6.3
			C635.9,302.2,635.9,258.4,635.9,258.4"/>
	</g>
	<g id="g5900_00000004523615745572192160000007656462638622128291_" transform="translate(412.5195,303.4883)">
		<path id="path5902_00000118374731462688767780000009071373410415119502_" class="st3" d="M629.3,304.6v-41.8l-0.7-1.4l-0.9,1.4
			v41.7c-0.9,1.6-1.4,3.5-1.4,5.5c0,2.6,0.8,4.9,2.2,6.7c1.4-1.8,2.2-4.1,2.2-6.7C630.6,307.9,630.1,306.1,629.3,304.6"/>
	</g>
	<g id="g5904_00000000922520550021328720000009743611910299336879_" transform="translate(395.6562,287.3057)">
		<path id="path5906_00000024707042875235122130000018212857670994873220_" class="st3" d="M572.5,391.2h-8.7
			c-0.2-0.4-0.2-0.9-0.2-1.4c0-2.5,2.1-4.6,4.6-4.6c2.5,0,4.6,2.1,4.6,4.6C572.8,390.3,572.7,390.8,572.5,391.2"/>
	</g>
	<g id="g5908_00000121257743562371582560000006297167436144271269_" transform="translate(398.416,288.0947)">
		<path id="path5910_00000102510633486401135640000007829831301917445273_" class="st3" d="M581.8,387c0.1,0.8,0.1,1.4,0.1,2
			c0,0.4,0,0.9-0.1,1.4h-5.6c0.1-0.5,0.1-0.9,0.1-1.4c0-6.1-4.9-11-11-11c-6.1,0-11,4.9-11,11c0,0.5,0,0.9,0.1,1.4h-5.6
			c0-0.5-0.1-1-0.1-1.4c0-0.6,0-1.3,0.1-2l0.1-0.7l-0.5-0.5l-4.5-4c0.3-0.9,0.7-1.8,1.1-2.7l6.1,0.3l0.7,0l0.5-0.5
			c0.8-1.1,1.8-2,2.9-2.9l0.6-0.4l0-0.7l-0.3-6c0.9-0.4,1.8-0.8,2.7-1.1l4.1,4.5l0.5,0.5l0.7-0.1c0.8-0.1,1.4-0.2,2-0.2
			c0.6,0,1.3,0.1,2,0.2l0.7,0.1l0.5-0.5l4.1-4.5c0.9,0.3,1.8,0.7,2.7,1.1l-0.3,6l0,0.7l0.6,0.4c1.1,0.8,2,1.8,2.9,2.9l0.4,0.5l0.7,0
			l6.1-0.3c0.4,0.9,0.8,1.7,1.1,2.7l-4.5,4l-0.5,0.5L581.8,387z"/>
	</g>
	<g id="g5912_00000075880400446567596720000009328307064866064011_" transform="translate(405.7637,293.876)">
		<path id="path5914_00000130622668787326843620000017494567612258700162_" class="st3" d="M606.5,356.1l-29.3,26
			c0,0.4,0.1,0.9,0.1,1.3c0,0.4,0,0.9-0.1,1.4h7.3l2.6-2.7c3-9.6,9.5-16.7,17.3-18.4l7.1-7.5H606.5z"/>
	</g>
	<g id="g5916_00000070839086948231099580000003162762496191061431_" transform="translate(407.4727,292.0059)">
		<path id="path5918_00000181059516458935667700000012951746967055201931_" class="st3" d="M612.3,366.1c2.3,0.8,4.5,2.1,6.5,3.9
			l1.7-12h-5.1L612.3,366.1z"/>
	</g>
	<g id="g5920_00000180357513206613332120000014268861246092782724_" transform="translate(409.8789,293.876)">
		<path id="path5922_00000077309270191343698900000002682591320862357143_" class="st3" d="M620.4,356.1h-2.2v13.8
			c0.7,0.8,1.4,1.6,2.1,2.4l-0.2-1.8l1.2,0.2c-0.4-1-0.7-2.1-0.8-3.2l-0.3-2.7l1.2,0.2c-0.4-1-0.7-2.1-0.8-3.2L620,359l1.2,0.2
			C620.8,358.2,620.5,357.1,620.4,356.1"/>
	</g>
	<g id="g5924_00000059300819356476768580000016056519963350112658_" transform="translate(406.9668,293.876)">
		<path id="path5926_00000183934606797966413100000004035717556447879317_" class="st3" d="M610.6,356.1l-5.4,7.2
			c0.6-0.1,1.2-0.1,1.8-0.1c1.6,0,3.1,0.2,4.6,0.6l4.2-7.7H610.6z"/>
	</g>
	<g id="g5928_00000031908077699641516390000017025802476826190729_" transform="translate(397.5723,292.4395)">
		<path id="path5930_00000118398936815381622320000001532392726935298234_" class="st3" d="M579,363.7l-0.2,3.2l24.7-9.5h-27.8
			l1.2,0.7l0.7,0.4v3.6c0.2,0.1,0.4,0.2,0.5,0.3l0.8,0.4L579,363.7z"/>
	</g>
	<g id="g5932_00000016062568982670782950000017221423089021729469_" transform="translate(410.9473,287.9727)">
		<path id="path5934_00000013907236225545921630000015792426132437016207_" class="st3" d="M624,387.7c0.3,1,0.6,1.9,0.8,2.9h3
			l0.1-0.7C626.5,389.4,625.2,388.7,624,387.7"/>
	</g>
	<g id="g5936_00000116949437921986818600000009097359617581286314_" transform="translate(403.2617,293.876)">
		<path id="path5938_00000176017164167777471840000001305237725052090289_" class="st3" d="M598.1,356.1l-25.1,10.7l-0.1,1.8
			c0.8,0.7,1.6,1.5,2.3,2.3l0.1,0l28-14.8H598.1z"/>
	</g>
	<g id="g5940_00000035530720104318358800000017202868987914536631_" transform="translate(399.666,290.5527)">
		<path id="path5942_00000092435709103738669910000004319810418963426459_" class="st3" d="M586,373.9l0.4,0.8c0.5,1,1,2,1.4,3
			l24.6-18.3h-5.2l-24,14.6l1.9-0.1L586,373.9z"/>
	</g>
	<g id="g5944_00000165955063374071420980000000993666440578815667_" transform="translate(404.0723,278.8379)">
		<path id="path5946_00000015350366738856637470000006423977202059199146_" class="st3" d="M600.8,436.6
			c-19.1,9.9-38.6,15.8-60.6,12.5c-3.1-1.8-5.9-7.5-7.9-10.6c-2.6-4-5.6-7.6-11.4-9.8c1.9-1.9,5.4-2.3,6.6-2.2
			c1.5,2.1,3.2,3.2,6.6,5.3c7.1,4.5,7.2,9.9,7.2,10.1c0,0,1.3-2.3-0.3-5c-1.1-1.9-3-4.2-6.2-6.2c-3.1-1.9-7.8-4.2-10.2-12.5
			c-0.5-1.6-0.6-2.4-1.6-3.7c9.9,1.2,15.4,7.5,16.8,10c1.3,4.9,3.7,9.6,6.9,13.9c0.9,1.2,3.9,2.6,3.9,2.6c-4.3-4.8-7.5-8.7-9.6-17.1
			c-1.3-4.8-2.3-10.5-1.5-15.4c11.9,3.1,14.6,11.1,14.6,11.2l0.1,0c-0.1,1.1-0.3,5.3-0.2,6.4c0.2,3.8,1.4,7.3,2.5,9.9
			c1.2,2.7,3.5,3.8,3.5,3.8c0-0.1-4.2-6.3-4.7-13.7c-0.4-6,3.5-14.7,4.9-17.1c1.2,1.5,3.9,6.1,9.4,8.3c3.3,1.3,5.4,3.8,6.5,6.8
			c1.4,3.7,0.9,8.1-1.4,12.8c0,0,2.3-1.9,2.7-3.1c1.1-3.7,1.1-7.1,0-10.2c-0.3-0.9-0.8-1.8-1.4-2.6c0.3-1.3,2.5-8.6,10.8-10.1
			c6.7-1.3,10.3-3.4,11.9-4.5c0,1.8-0.3,5.3-3.7,9.8l-2.2,3c-7.8,10.9-7.1,16.5-7.1,16.5c0,0,1.6-3.6,2.5-5c1.3-2,3.4-3.7,5.6-5.6
			c2.5-2.3,5-4.9,8-6c6.3-2,11.1-8,12.5-10.6C615.1,413.6,615.4,427.8,600.8,436.6"/>
	</g>
	<g id="g5948_00000149355389332135721320000000292810419150737086_" transform="translate(381.5171,304.1523)">
		<path id="path5950_00000090990141749502724300000011946267220851079300_" class="st3" d="M524.9,301c-3.5,0.2-6.3-2.3-6.3-6.2h3.8
			c0,2.4,1,3.3,2.7,3.3c1.9,0,2.7-1.7,2.7-3.3V281h3.8v12.6C531.7,297.6,530.5,300.8,524.9,301"/>
	</g>
	<g id="g5952_00000147216270152502596530000008268262112051766717_" transform="translate(385.4976,304.1484)">
		<path id="path5954_00000046341088974013762420000011916890240616174988_" class="st3" d="M538.3,301c-5.5,0.1-8.5-3.3-8.5-7.6V281
			h3.7l0,12.4c0,2.6,1.8,4.6,5.2,4.5c3.5-0.1,4.6-2,4.6-4.4V281h3.8v12.6C547,297.9,544.7,300.9,538.3,301"/>
	</g>
	<g id="g5956_00000176744727450303951600000001445299039824375475_" transform="translate(389.9043,304.1523)">
		<path id="path5958_00000000200697282418086940000001179096738748792767_" class="st3" d="M553.2,301c-4.4,0-8.6-2-8.5-7h3.6
			c-0.1,2.8,2.2,4,4.6,4c2.2,0,4.9-0.8,4.8-2.9c0-1.7-1.6-2.3-3.2-2.6l-3.6-0.8c-3-0.6-5.6-1.8-5.6-5.1c0-3.7,3.7-6.1,7.9-6
			c7.6,0.1,7.9,5.1,8,6.7h-3.8c-0.2-2.1-1-3.7-4.1-3.8c-1.8-0.1-4.3,0.7-4.3,2.6c0,1.4,1.4,2.1,2.8,2.3l2.8,0.5
			c3.5,0.7,6.7,2.1,6.8,5.7C561.4,299,557.3,301,553.2,301"/>
	</g>
	<g id="g5960_00000029004504611387693500000014153584561141851047_" transform="translate(395.5996,308.0742)">
		<path id="path5962_00000183938476891566363000000016253375706088210606_" class="st3" d="M572.3,280h-5.7l0,16.5h-3.8V280h-5.7
			v-2.9h15.1V280z"/>
	</g>
	<path id="path5964_00000000213950238037396330000001610171553284128669_" class="st3" d="M970.2,585.2h3.8v19.4h-3.8V585.2z"/>
	<g id="g5966_00000044865513442792637530000014621268079905111700_" transform="translate(399.8223,304.1328)">
		<path id="path5968_00000034792303960307349560000004733811837100842388_" class="st3" d="M586.5,301.1c-5.7,0-9.9-5.1-9.8-10.5
			c0.1-5.3,4.3-10.1,9.9-10c4.6,0,8,2.7,9.1,6.8h-3.9c-0.2-1.4-1.7-3.9-5.2-3.8c-3.7,0.1-6,3.7-6,7.3c0,3.7,2.6,7.2,6.4,7.2
			c2.5,0,4.6-1.4,4.9-4.1h4C595.4,298.5,591.2,301.1,586.5,301.1"/>
	</g>
	<path id="path5970_00000129895868621190544060000000965902625429937811_" class="st3" d="M998.4,585.2h3.8v19.4h-3.8V585.2z"/>
	<g id="g5972_00000068663363899952344240000010089916017365975726_" transform="translate(407.4453,304.2891)">
		<path id="path5974_00000028289604921277195900000012556704126420947112_" class="st3" d="M612.2,300.3l-1.9-4.4h-8.2l-1.7,4.4
			h-3.7l7.8-19.4h3.3l8.3,19.4H612.2z M606.1,286l-2.8,7.1h5.8L606.1,286z"/>
	</g>
	<g id="g5976_00000075882881159667793850000013315780186559065530_" transform="translate(384.2764,298.2119)">
		<path id="path5978_00000046334080357993133800000008977081749467381935_" class="st3" d="M534.2,332.8c-4.3,0-8.6-1.9-8.5-6.9h3.6
			c-0.1,2.9,2.2,4,4.6,4c2.2,0,4.9-0.8,4.8-2.9c-0.1-1.7-1.6-2.3-3.2-2.6l-3.7-0.8c-2.9-0.6-5.6-1.8-5.6-5.1c0-3.8,3.7-6.1,7.9-6
			c7.6,0.1,7.9,5.1,8,6.7h-3.8c-0.2-2.1-1-3.7-4.1-3.8c-1.8-0.1-4.3,0.7-4.3,2.6c0,1.3,1.4,2,2.8,2.3l2.8,0.5
			c3.5,0.7,6.8,2.1,6.8,5.7C542.4,330.8,538.3,332.8,534.2,332.8"/>
	</g>
	<g id="g5980_00000029009103062687941590000006284601107385841577_" transform="translate(388.978,298.2119)">
		<path id="path5982_00000111874218909163030040000008551351670898022334_" class="st3" d="M550,332.8c-5.9-0.1-10.5-4.9-10.4-10.5
			c0.1-5.5,4.9-10,10.7-10c5.7,0,10.3,4.4,10.5,9.8C561.1,328.1,556.3,332.9,550,332.8 M550.3,315.4c-3.8,0-6.4,3.5-6.5,7
			c-0.1,3.8,2.4,7.3,6.3,7.3c4,0.1,6.8-3.3,6.7-7.3C556.7,318.8,554.1,315.4,550.3,315.4L550.3,315.4z"/>
	</g>
	<g id="g5984_00000109722751748441297830000002272273156534428839_" transform="translate(394.1699,298.1934)">
		<path id="path5986_00000050639293892769611610000007927892364072753036_" class="st3" d="M567.5,332.9c-5.7,0-9.9-5.1-9.8-10.5
			c0.1-5.3,4.3-10.1,9.9-10c4.6,0,8,2.7,9.1,6.8l-4,0c-0.2-1.4-1.8-3.9-5.2-3.8c-3.7,0.1-6,3.7-6,7.2c0,3.7,2.6,7.2,6.4,7.2
			c2.5,0,4.6-1.4,4.9-4l4,0C576.3,330.3,572.2,332.9,567.5,332.9"/>
	</g>
	<path id="path5988_00000085950942601656396640000015623105551992060076_" class="st3" d="M973.7,611.1h3.7v19.4h-3.7V611.1z"/>
	<g id="g5990_00000122690401873857264940000002102725319543089792_" transform="translate(401.791,298.3477)">
		<path id="path5992_00000026886054290700240890000017894806213862470580_" class="st3" d="M593.2,332.1l-1.8-4.3h-8.2l-1.7,4.3
			h-3.7l7.8-19.4h3.3l8.3,19.4H593.2z M587.1,317.8l-2.7,7.1h5.8L587.1,317.8z"/>
	</g>
	<g id="g5994_00000060023299574992359140000007047155769731288252_" transform="translate(403.043,298.3477)">
		<path id="path5996_00000036959211169449630680000018214780693858573197_" class="st3" d="M597.4,332.1v-19.4h3.8v16.4h9.5v2.9
			H597.4z"/>
	</g>
	<g id="g5998_00000139978564713182323060000016534855422015824784_" transform="translate(386.6841,313.2114)">
		<path id="path6000_00000080207524800261831810000004714481339411398273_" class="st3" d="M542.3,252.5c1.3,0.2,2.3,0.9,3.1,2.2
			c0.1,0.1,0,0.2-0.1,0.4c-0.7,0.9-3.8,2-10.8,0C537.7,253,540.3,252.1,542.3,252.5"/>
	</g>
	<g id="g6002_00000049219631359532579610000015863583847979973520_" transform="translate(384.1162,313.6333)">
		<path id="path6004_00000171688003750453529180000004971615442567434390_" class="st3" d="M533.7,250.2c3.5-0.6,5.2,0.7,5.9,1.5
			c-1.4,0.6-3,1.5-4.6,2.7c-1.7,1.2-3.3,1.7-4.9,1.5c-1.5-0.2-2.7-1.1-3.3-1.8c0.1-0.1,0.2-0.1,0.3-0.2
			C529.3,252.2,531.4,250.6,533.7,250.2"/>
	</g>
	<g id="g6006_00000109736898931263456840000003397086924910175388_" transform="translate(380.2075,313.8145)">
		<path id="path6008_00000067203060251984944810000002523061778245371322_" class="st3" d="M520.5,249.2c3.8-0.8,7.6-0.1,11.4,2.1
			c-0.6,0.4-1.2,0.9-1.8,1.3c-2.7,2-5.4,4.1-8.6,4c-4.6-0.2-7.9-2.5-9.1-3.5c1.4-1.1,3.1-2.1,4.9-2.9
			C518.3,249.8,519.5,249.5,520.5,249.2"/>
	</g>
	<g id="g6010_00000005967450651610094170000009699801766610582704_" transform="translate(375.0996,311.8574)">
		<path id="path6012_00000015316515924657140130000007636154508434151608_" class="st3" d="M503.3,259.7c0.3-1.8,1.1-3.6,2.6-5.1
			c3.4-3.4,9.1-4.6,15.9-3.7c-5.4,2.3-9.4,6.7-11.2,9c-1-0.3-2.3-0.5-4.3-0.5C505.1,259.5,504.2,259.6,503.3,259.7"/>
	</g>
	<g id="g6014_00000044163133005993997320000001921687397344437380_" transform="translate(407.041,291.6963)">
		<path id="path6016_00000031894719741735050640000010336689076385876886_" class="st3" d="M610.8,367.7c0,0,0.1,0,0.1-0.1
			c-1.3-0.4-2.7-0.6-4.1-0.6c-1.4,0-2.7,0.2-4,0.6c0.1,0,0.1,0.1,0.1,0.1c1.1,1.1,1,3-0.2,4.8c-2.4,3.5-4.8,8.3-5.8,17.7l0.3-0.3
			l0.3,1.2c0,0.2,0.8,3.1-1.1,7.6c0,0.8,0,1.6,0,2.4c0,1,0.1,2.7,0.1,3.6c0.9-0.5,1.7-0.9,2.7-1.2c9.3-3,11.6-10.8,11.6-10.9
			l0.7-2.2l0.7,2.2c0,0.2,3.7,13.1-4.9,23.9c3.2-2.2,6.3-4.7,9.2-7.3c0.6-2.3,1-5,1-8.2c0-17-3.2-24-6.4-28.7
			C609.8,370.7,609.7,368.8,610.8,367.7"/>
	</g>
	<g id="g6018_00000148619774145465269910000004683453452237455289_" transform="translate(404.9375,291.4854)">
		<path id="path6020_00000138574868594517501680000001644550705361564839_" class="st3" d="M603.8,368.9c-0.3-0.2-0.6-0.3-1.1-0.3
			c-7.6,3.6-13.1,13.8-13.1,25.8c0,0.3,0,0.5,0,0.8c4.1-1.2,6.4-2.5,7.6-3.4c1-10.7,3.6-16.1,6.2-19.9
			C604.2,370.7,604.4,369.4,603.8,368.9"/>
	</g>
	<g id="g6022_00000183238830496022490320000003680197214282124470_" transform="translate(407.6221,291.6387)">
		<path id="path6024_00000044160699178577076150000017180008558037295494_" class="st3" d="M612.8,368c-0.5,0-0.9,0.1-1.1,0.3
			c-0.6,0.6-0.4,1.8,0.4,3c3.3,4.8,6.6,12.1,6.6,29.5c0,2.5-0.2,4.6-0.6,6.6c2.6-2.4,5-5,7.4-7.6c0.3-2,0.5-4,0.5-6
			C625.9,381.8,620.4,371.7,612.8,368"/>
	</g>
	<g id="g6026_00000182500454563050844100000000346746081801386386_" transform="translate(403.1387,283.0391)">
		<path id="path6028_00000008846965177359561200000010037609972034670769_" class="st3" d="M597.7,414.1l-2.3,3
			c-0.4,0.5-0.8,1-1.2,1.5c0.1,0.3,0.2,0.5,0.3,0.8c1.4-1.4,2.9-2.7,4.5-3.8c-0.1-1.1-0.2-2.2-0.2-3.4
			C598.6,412.9,598.2,413.5,597.7,414.1"/>
	</g>
	<g id="g6030_00000021813684745119007070000004546436053906140584_" transform="translate(410.3984,283.7119)">
		<path id="path6032_00000127037624918854676210000013534065237148744379_" class="st3" d="M622.1,410.5l0.2-0.3
			c0,0.1-0.1,0.1-0.1,0.2C622.2,410.4,622.1,410.4,622.1,410.5"/>
	</g>
	<g id="g6034_00000125597310095799514680000008472036022665403327_" transform="translate(375.1387,292.8926)">
		<path id="path6036_00000088113589842181050710000003845843294886990739_" class="st3" d="M503.5,361.3c0.8-1.8,1.8-3.3,3-4.6
			c-1.1-0.4-2-0.8-2.9-1.3L503.5,361.3z"/>
	</g>
	<g id="g6038_00000065057170541837599940000007997469616634565544_" transform="translate(374.4922,294.6836)">
		<path id="path6040_00000096039166256438887050000002513029721567471799_" class="st3" d="M501.3,351.7l-0.3,20.4l0.1-0.9l0.1-0.9
			c0.3-2.6,0.8-5,1.4-7.1l0.1-10.4c-0.4-0.3-0.8-0.5-1.2-0.8L501.3,351.7z"/>
	</g>
	<g id="g6042_00000168814572262633238430000001701936577530417536_" transform="translate(375.1016,289.5801)">
		<path id="path6044_00000146478886035569795740000013044261894706720436_" class="st3" d="M503.3,379.1l0,3.4
			c0.3-1.3,0.7-2.5,1.3-3.6c-0.1,0-0.2,0.1-0.4,0.1L503.3,379.1z"/>
	</g>
	<g id="g6046_00000072274978069803058980000016324106872744256955_" transform="translate(375.0762,287.3057)">
		<path id="path6048_00000181060341277118327190000008855241664430030263_" class="st3" d="M503.3,391.2h0.4c-0.2-0.5-0.3-1-0.4-1.5
			L503.3,391.2z"/>
	</g>
	<g id="g6050_00000016045962451349892730000011984912871045449857_" transform="translate(374.3984,287.3057)">
		<path id="path6052_00000145052387932896497330000002231063101803573180_" class="st3" d="M501,391.2h1.6l0.1-9.7l-1.6,0.2
			L501,391.2z"/>
	</g>
	<g id="g6054_00000039091949390560368380000015104348135175779512_" transform="translate(375.1733,296.0547)">
		<path id="path6056_00000004527021893143530650000002191397936365873831_" class="st3" d="M503.6,344.4c2.5-1.2,5.5-2.3,8.6-2.9
			l-0.8-63.9c-0.5-0.3-2-0.8-5-0.8c-3,0-4.3,0.6-4.8,0.8l-0.9,68.5c0.2-0.1,0.7-0.4,0.7-0.4c0.3-0.2,0.6-0.3,0.9-0.5l0.7-64.6l1.4,0
			L503.6,344.4z"/>
	</g>
	<g id="g6058_00000144322721045544189240000013534409630182382731_" transform="translate(394.2388,294.6797)">
		<path id="path6060_00000121257723251933024470000001159000539244644999_" class="st3" d="M567.8,351.7v8.9l-2.1-1.2l-12.8-7.6v8.8
			l-2.1-1.2l-12.8-7.6v7.9c0.4,0.9,0.8,1.8,1.2,2.6l0.6,1.2l0.4,0.8l1.4,2.9l-3.2,0.5l-0.9,0.1c-2,0.3-3.9,0.4-5.6,0.3
			c0.9,1,1.6,2.2,2.1,3.5c1.6,4,1.3,8.2-0.7,11.1c0.1,0.3,0.3,0.6,0.4,0.9h16.9c-0.1-0.5-0.1-1-0.1-1.4c0-0.5,0-1.1,0.1-1.7
			l-4.7-4.2l-0.6-0.6l0.2-0.8c0.5-1.7,1.2-3.3,2-4.7l0.4-0.8l0.9,0l6.3,0.3c0.7-0.8,1.5-1.6,2.3-2.3l-0.3-6.3l0-0.9l0.8-0.4
			c1.5-0.8,3.1-1.5,4.8-2l0.8-0.3l0.6,0.6l4.2,4.6c0.6-0.1,1.1-0.1,1.6-0.1c0.5,0,1.1,0,1.6,0.1l4.2-4.6l0.6-0.6l0.8,0.3
			c0.5,0.2,1,0.3,1.5,0.5l0-0.9L567.8,351.7z"/>
	</g>
	<g id="g6062_00000121250250518450274900000014312819711966411186_" transform="translate(380.8262,287.0176)">
		<path id="path6064_00000042712727084795328690000016582147078986537150_" class="st5" d="M522.6,391.8c-0.6,1.1-1.4,2.1-2.3,2.8
			c-1.4,1.1-3,1.6-4.7,1.4c-1.1-0.1-2.1-0.6-3-1.3c-0.2,0.7-0.3,1.5-0.3,2.3c0,4.5,2.6,8.1,5.8,8.1c1.2,0,2.4-0.5,3.4-1.5
			c0.6-0.5,1-1.2,1.4-2c-0.4-1-0.6-2.1-0.7-3.2c-0.1-1.9,0.2-3.8,1-5.4C523,392.6,522.8,392.2,522.6,391.8"/>
	</g>
	<g id="g6066_00000143596070686439530890000018200768768569983879_" transform="translate(383.145,286.877)">
		<path id="path6068_00000134248812810790894820000001638954688829322628_" class="st6" d="M530.2,391.7c-1.2,1.5-2.8,2.5-4.6,2.6
			c-1.6,0.1-3.1-0.5-4.4-1.7c-0.7,1.5-1.1,3.5-1,5.4c0.3,4.7,3.1,8.4,6.3,8.2c3.3-0.2,5.7-4.2,5.4-8.9
			C532,395.1,531.3,393.1,530.2,391.7"/>
	</g>
	<g id="g6070_00000088094972997603386350000015580487021291752863_" transform="translate(379.5044,283.9316)">
		<path id="path6072_00000083788174159838881580000009335218889090498209_" class="st7" d="M518.2,408.5c-1.2-0.5-2.3-1.4-3.1-2.6
			c-0.6,0.7-1.3,1.2-2.1,1.5c-0.3,1.4-0.4,2.9-0.1,4.4c0.7,4.4,3.6,7.5,6.5,7c1.5-0.3,2.7-1.4,3.4-3.1
			C520.6,414.5,518.8,411.9,518.2,408.5"/>
	</g>
	<g id="g6074_00000175300478291600159600000010217097672649718448_" transform="translate(384.1499,282.9922)">
		<path id="path6076_00000136374720324390253840000010373095770465834126_" class="st3" d="M533.8,414.4c-0.2-2.6-1.2-4.8-2.8-6.1
			c-1.1,1.7-2.6,2.9-4.4,3.2c-0.4,2.4-1.6,4.3-3.3,5.4c0.8,3.2,3,5.5,5.5,5.3C531.8,422,534,418.5,533.8,414.4"/>
	</g>
	<g id="g6078_00000103980609958725827930000008286026618319105688_" transform="translate(381.0562,284.5479)">
		<path id="path6080_00000121262999447393074160000007418735498079808421_" class="st8" d="M523.4,405.3c-0.3,0.5-0.6,0.9-1,1.3
			c-1.2,1.3-2.6,1.9-4.1,1.9c-0.1,0-0.2,0-0.2,0c0.9,3.9,3.7,6.5,6.3,6c2-0.4,3.5-2.4,3.9-5.1C526.3,409.2,524.5,407.6,523.4,405.3"
			/>
	</g>
	<g id="g6082_00000061459226875518245240000015537284965518345125_" transform="translate(381.478,282.3057)">
		<path id="path6084_00000109733509247130351040000015164700865094900869_" class="st9" d="M524.8,416.9c-0.2,0.1-0.4,0.1-0.6,0.2
			c-0.7,0.1-1.5,0.1-2.2-0.1c-0.9,2.1-2.3,3.6-4,4.1c0.9,4.1,3.7,7,6.4,6.5c1.9-0.4,3.3-2.3,3.8-4.8
			C526.7,421.5,525.4,419.4,524.8,416.9"/>
	</g>
	<g id="g6086_00000075151046561023434900000006998759201638612101_" transform="translate(384.603,280.6816)">
		<path id="path6088_00000180345454642650032200000007512631242999124145_" class="st3" d="M535.3,426.7c-0.3-1.7-1-3.2-1.9-4.3
			c-1.1,2-2.9,3.3-4.9,3.4c-0.7,0.1-1.4-0.1-2.1-0.3c-0.3,1.2-0.9,2.2-1.6,3.1c0.7,4.1,3.6,7,6.5,6.5
			C534.2,434.5,536,430.8,535.3,426.7"/>
	</g>
	<g id="g6090_00000145048372847463780380000002641132069164362681_" transform="translate(379.9473,289.7891)">
		<path id="path6092_00000013911193203582617150000015535203346332856511_" class="st10" d="M519.7,376c-0.1-0.1-0.3-0.1-0.4-0.2
			c-1.4,2.6-3.5,4.3-5.7,4.4c-0.4,1-0.6,2.1-0.8,3.3c-0.5,4.7,1.5,8.7,4.5,9.1c1.1,0.1,2.2-0.3,3.2-1.2c1.6-1.4,2.6-3.9,2.9-6.6
			c0-0.3,0-0.6,0-1l-0.3-0.6C521.6,380.8,520.5,378.3,519.7,376"/>
	</g>
	<g id="g6094_00000023967320845815642330000012645666276086541960_" transform="translate(379.7515,290.332)">
		<path id="path6096_00000103964478316995696380000017901971464592218796_" class="st3" d="M519,375c-1.1-3.7-1.3-6.7-1.2-8.7
			c-0.2-0.2-0.4-0.4-0.6-0.5c-1.9,1.5-5,3.8-8.3,5.8c-0.7,4,1.1,7.7,3.9,8.2C515.3,380.2,517.9,378.2,519,375"/>
	</g>
	<g id="g6098_00000158749924625480064760000014253506462810621861_" transform="translate(384.9248,291.2461)">
		<path id="path6100_00000090290197475136276540000001170593508167198616_" class="st3" d="M536.4,370.1c-0.1-0.6-0.2-1.1-0.3-1.7
			c-3.4-1.1-5.5-3-6.7-4.6c-0.1,2.6-0.6,6.4-2.8,10.4c1.1,2.5,3.2,4.2,5.4,3.9C534.9,377.8,536.9,374.2,536.4,370.1"/>
	</g>
	<g id="g6102_00000182507719838648420850000000437608241373047718_" transform="translate(383.1138,289.293)">
		<path id="path6104_00000022518829795997586140000006454577654087708586_" class="st11" d="M531,380.6c-1.3-0.7-2.4-1.7-3.3-2.9
			c-1.7,2.3-4,4.6-7.2,6.8c0,0.6,0,1.3,0,1.9c-0.1,0.6-0.2,1.2-0.4,1.7c1.2,2.4,3.5,4,6,3.9c3.5-0.1,6.2-3.6,6-7.8
			C532,383,531.6,381.7,531,380.6"/>
	</g>
	<g id="g6106_00000174591359068135946570000014017078508323366587_" transform="translate(383.2622,293.4307)">
		<path id="path6108_00000022528825620361816400000017274498714218516112_" class="st3" d="M530.8,358.4l-1.3,0.3
			c0,0.1,2.2,11.4-8.9,20.6c-6.7-10.4-4.5-18.7-4.5-18.8l0-0.1v-0.1v-1.5l-1.1,0.9c-0.1,0.1-11.3,9.5-18.5,11.2
			c1.2-8.4,4-12.1,6.2-13.7c2.2-1.6,4.1-1.6,4.6-1.5c0.1,0,0.1,0,0.2,0l0.2-1.4h0c0,0,0,0-0.1,0h0c-1-0.1-7.4-1-11.2-3.6
			c7.7-4.3,20.8-6.3,26,0.1l0.3,0.4l0.5-0.2c14.6-6.1,18.4,2.3,23.8,13.9l0.2,0.4C533.3,367.1,530.9,358.8,530.8,358.4"/>
	</g>
	<g id="g6110_00000139982970125861966540000005390623223182599090_" transform="translate(378.2266,288.9619)">
		<path id="path6112_00000034782404898810654490000000553877322325871800_" class="st12" d="M514.5,381.8c-2.3-0.5-4.1-2.5-4.8-5.1
			c-0.8,0.1-1.5,0.4-2.3,0.9c-1.7,1.2-3,3.4-3.5,5.9c-0.8,4.3,1.1,8.2,4.2,8.7c2.2,0.4,4.5-1.1,5.9-3.6c-0.2-1.2-0.3-2.5-0.2-3.8
			C513.9,383.8,514.2,382.8,514.5,381.8"/>
	</g>
	<g id="g6114_00000132067789458133841940000001495998461880297609_" transform="translate(385.6748,289.7441)">
		<path id="path6116_00000103244285615176401800000016878886440279777964_" class="st3" d="M538.9,378.2c-0.5-1.2-1.2-2.3-2.1-3.1
			c-0.7,3.2-2.7,5.7-5.5,6c-0.6,0.1-1.3,0-1.9-0.2c0.3,0.9,0.4,1.9,0.5,2.8v0.3c1.8,2.7,4.6,4,6.9,3.1
			C539.6,386,540.5,382,538.9,378.2"/>
	</g>
	<g id="g6118_00000175306871798002107840000010056787289404781744_" transform="translate(378.481,286.6465)">
		<path id="path6120_00000154397980692467028660000016065299607993494915_" class="st3" d="M514.7,394.8c-0.4-0.6-0.8-1.2-1.1-1.9
			c-1.6,2.2-4,3.5-6.3,3c-0.2,0-0.3-0.1-0.4-0.1c-0.1,0.4-0.1,0.9-0.1,1.3c-0.1,4.1,2.3,7.5,5.2,7.6c1.3,0,2.5-0.6,3.4-1.7
			c-0.7-1.4-1.1-3.1-1.1-5C514.2,396.9,514.4,395.8,514.7,394.8"/>
	</g>
	<g id="g6122_00000019662638749189970450000013987656034884580541_" transform="translate(385.6914,286.6504)">
		<path id="path6124_00000180336885392984369850000006861157749976297151_" class="st3" d="M539,394.8c-0.3-1.3-0.7-2.4-1.4-3.4
			c-0.1,0-0.2,0.1-0.3,0.1c-2.3,0.9-5,0.1-7.1-2c-0.2,0.2-0.5,0.5-0.7,0.8c-0.2,0.8-0.6,1.6-1,2.3c1.3,1.5,2.1,3.6,2.2,6
			c0,1,0,1.9-0.2,2.8c1.3,1.4,2.9,2.1,4.5,1.8c1.1-0.2,2.1-0.9,2.8-2C539.1,399.5,539.5,397.1,539,394.8"/>
	</g>
	<g id="g6126_00000145043149294100453320000014441021822953561482_" transform="translate(381.7246,358.1201)">
		<path id="path6128_00000059270988258330829010000012610390149841067444_" class="st1" d="M525.6,11.9c4.4,1.8,10.3,0.1,12.9-2.6
			l-5.1-2.2c-2,2.7-5.2,3.1-7.7,1.7c-1.9-1.1-3.1-3.2-3.2-6.5l-3-1.3C519.7,6.6,521.8,10.4,525.6,11.9"/>
	</g>
	<g id="g6130_00000176002220852397803010000013563021429628247718_" transform="translate(373.1343,332.4023)">
		<path id="path6132_00000136396263787810553590000015640430516579384218_" class="st1" d="M496.7,149.7v-20.3h-8v-4.2h21.4v4.2
			h-7.9v20.3H496.7z"/>
	</g>
	<path id="path6134_00000138532421099627557350000008769883125918800532_" class="st1" d="M892.3,457.6h5.5v24.5h-5.5V457.6z"/>
	<g id="g6136_00000109734372398202287190000004658349268395990664_" transform="translate(384.2187,338.0254)">
		<path id="path6138_00000026882929775751137380000010144509983027065217_" class="st1" d="M534,119.6h5.5v15.5c0,2-0.2,3.6-0.6,4.7
			c-0.5,1.4-1.5,2.6-2.9,3.4c-1.4,0.9-3.2,1.3-5.5,1.3c-2.7,0-4.7-0.7-6.1-2.1c-1.4-1.4-2.2-3.4-2.2-6l5.2-0.5
			c0.1,1.4,0.3,2.4,0.7,3c0.6,0.9,1.5,1.3,2.7,1.3s2-0.3,2.5-0.9c0.5-0.6,0.7-1.9,0.7-3.9V119.6z"/>
	</g>
	<g id="g6140_00000103973567361524123760000008027144961456185277_" transform="translate(388.0981,338.0254)">
		<path id="path6142_00000150808180187355282030000001938705184478959547_" class="st1" d="M547.1,119.6h5.5v13.3
			c0,2.1,0.1,3.5,0.2,4.1c0.2,1,0.8,1.8,1.7,2.4c0.9,0.6,2.1,0.9,3.6,0.9c1.5,0,2.7-0.3,3.5-0.8c0.8-0.6,1.2-1.3,1.4-2.1
			c0.2-0.8,0.2-2.2,0.2-4.2v-13.6h5.5v12.9c0,2.9-0.1,5-0.4,6.2c-0.3,1.2-0.8,2.2-1.6,3.1c-0.8,0.8-1.8,1.5-3.2,2
			c-1.3,0.5-3.1,0.7-5.2,0.7c-2.6,0-4.5-0.3-5.9-0.8c-1.3-0.5-2.4-1.2-3.2-2.1c-0.8-0.9-1.3-1.8-1.5-2.7c-0.3-1.4-0.5-3.5-0.5-6.2
			V119.6z"/>
	</g>
	<g id="g6144_00000048490845256029552310000016435478037571303610_" transform="translate(401.2002,332.4038)">
		<path id="path6146_00000154383956987340645770000016404002708392684465_" class="st1" d="M591.2,149.7h-5.9l-2.3-5.6h-10.8
			l-2.2,5.6h-5.8l10.5-24.5h5.7L591.2,149.7z M581.2,139.9l-3.7-9l-3.6,9H581.2z"/>
	</g>
	<g id="g6148_00000131330937463251948430000010617746802993709715_" transform="translate(403.1602,332.4023)">
		<path id="path6150_00000130640200810490847820000006177587020255461048_" class="st1" d="M597.8,149.7v-24.5h5.3l11.1,16.4v-16.4
			h5.1v24.5h-5.5l-10.9-16v16H597.8z"/>
	</g>
	<g id="g6152_00000155105222598410263870000011958301532344160896_" transform="translate(416.2598,332.4038)">
		<path id="path6154_00000006681379484987335030000004193818659794611854_" class="st1" d="M641.9,149.7H636l-2.3-5.6h-10.8
			l-2.2,5.6h-5.8l10.5-24.5h5.7L641.9,149.7z M631.9,139.9l-3.7-9l-3.6,9H631.9z"/>
	</g>
	<g id="g6156_00000183243918868094695250000016591975803739068576_" transform="translate(423.8828,294.0215)">
		<path id="path6158_00000040555899498084166530000001389214919331593609_" class="st1" d="M667.5,355.3l-24.5-1.5l0.5-8.7
			c0.2-3.3,0.5-5.5,0.8-6.4c0.5-1.5,1.3-2.8,2.6-3.7c1.3-1,2.9-1.4,4.9-1.3c1.5,0.1,2.8,0.5,3.7,1.1c1,0.7,1.7,1.5,2.3,2.4
			c0.5,0.9,0.9,1.9,1,2.9c0.2,1.3,0.2,3.2,0,5.6l-0.2,3.5l9.2,0.6L667.5,355.3z M647.5,348.6l6.9,0.4l0.2-3c0.1-2.1,0.1-3.6-0.1-4.3
			c-0.2-0.7-0.6-1.3-1.1-1.8c-0.5-0.4-1.1-0.7-1.9-0.7c-0.9-0.1-1.7,0.2-2.3,0.7c-0.6,0.5-1,1.2-1.2,2.1c-0.2,0.6-0.3,1.9-0.4,3.9
			L647.5,348.6z"/>
	</g>
	<g id="g6160_00000005960374081916566940000014223319043681836958_" transform="translate(424.0723,306.2505)">
		<path id="path6162_00000019655892624269376280000005474668998251141772_" class="st1" d="M668.2,289.8v5.9l-5.6,2.3v10.8l5.6,2.2
			v5.8l-24.6-10.5v-5.7L668.2,289.8z M658.4,299.7l-9.1,3.7l9.1,3.6V299.7z"/>
	</g>
	<g id="g6164_00000137823273983307821090000004812145183703595432_" transform="translate(424.0723,308.9731)">
		<path id="path6166_00000091735997428027451710000015127389594467287485_" class="st1" d="M668.2,275.2h-20.4v8h-4.2v-21.4h4.2v7.9
			h20.4V275.2z"/>
	</g>
	<g id="g6168_00000138537431329172163690000008634309542423416716_" transform="translate(424.0723,314.1484)">
		<path id="path6170_00000168815526542065295520000006281366846348608896_" class="st1" d="M668.2,247.5h-24.6V236
			c0-2.9,0.2-5,0.7-6.3c0.4-1.3,1.2-2.4,2.4-3.1c1.1-0.8,2.4-1.2,3.9-1.2c1.9,0,3.4,0.6,4.6,1.8c1.2,1.2,2,3,2.3,5.3
			c0.6-1.2,1.3-2.1,2.1-2.9c0.7-0.8,2.1-1.8,4-3.1l4.8-3.3v6.5l-5.3,3.9c-1.9,1.4-3.1,2.4-3.6,2.9c-0.5,0.5-0.8,1.1-1,1.6
			c-0.2,0.6-0.3,1.5-0.3,2.7v1.1h10.3V247.5z M654,242v-4c0-2.6-0.1-4.2-0.3-4.9c-0.2-0.7-0.6-1.2-1-1.5c-0.5-0.4-1.1-0.5-1.9-0.5
			c-0.8,0-1.5,0.2-2,0.7c-0.5,0.5-0.8,1.2-1,2c-0.1,0.4-0.1,1.8-0.1,4l0,4.2H654z"/>
	</g>
	<path id="path6172_00000168076387440594993720000003741745822626392510_" class="st3" d="M1092.2,529h-24.6v-5.4h24.6V529z"/>
	<g id="g6174_00000183931107586015923820000001136651142053344641_" transform="translate(424.0723,330.9238)">
		<path id="path6176_00000033338270227003213040000004372631471862157198_" class="st1" d="M668.2,157.6v5.9l-5.6,2.3v10.8l5.6,2.2
			v5.8l-24.6-10.5v-5.7L668.2,157.6z M658.4,167.6l-9.1,3.7l9.1,3.6V167.6z"/>
	</g>
	<g id="g6178_00000062191021712249942630000017706486900162000018_" transform="translate(363.5684,324.3506)">
		<path id="path6180_00000013155473396699521790000006982982753217569714_" class="st1" d="M464.5,192.8v-5.9l5.6-2.3v-10.8
			l-5.6-2.2v-5.8l24.6,10.5v5.7L464.5,192.8z M474.3,182.8l9.1-3.8l-9.1-3.6V182.8z"/>
	</g>
	<g id="g6182_00000090985759794434406350000005902993989507525820_" transform="translate(364.2891,317.396)">
		<path id="path6184_00000159454685950843380080000016720179114492663737_" class="st1" d="M467,230.1c-0.9,1.3-1.6,2.8-2.1,4.3
			l-3.5-2c0.2-0.8,0.5-1.6,0.9-2.4c0.1-0.2,0.8-1.4,2.1-3.6c-0.7-1.8-1.1-3.7-1.1-5.9c0-4.1,1.1-7.4,3.3-9.7
			c2.2-2.3,5.3-3.5,9.4-3.5c4,0,7.1,1.2,9.4,3.5c2.2,2.4,3.3,5.6,3.3,9.6c0,4-1.1,7.2-3.3,9.5c-2.2,2.3-5.3,3.5-9.3,3.5
			c-2.1,0-4-0.3-5.6-1C469.3,231.9,468.1,231.1,467,230.1 M469.7,225.7c0.7,0.7,1.6,1.2,2.7,1.6c1.1,0.4,2.3,0.5,3.6,0.5
			c2.8,0,4.9-0.7,6.3-2.1c1.4-1.4,2.1-3.2,2.1-5.4c0-2.2-0.7-4-2.1-5.4c-1.4-1.4-3.5-2-6.3-2c-2.9,0-5,0.7-6.4,2
			c-1.4,1.4-2.1,3.1-2.1,5.2c0,0.8,0.1,1.5,0.3,2.2c0.7-1.1,1.2-2.2,1.5-3.3l2.9,1.5C471.7,222.4,470.8,224.1,469.7,225.7"/>
	</g>
	<g id="g6186_00000136375367160752367100000008300258129259612301_" transform="translate(369.1934,314.3555)">
		<path id="path6188_00000145026558700569897460000008669918079003635102_" class="st1" d="M483.5,246.3v5.5h-13.3
			c-2.1,0-3.5,0.1-4.1,0.2c-1,0.2-1.8,0.8-2.4,1.6c-0.6,0.9-0.9,2.1-0.9,3.6c0,1.5,0.3,2.7,0.9,3.5c0.6,0.8,1.3,1.2,2.1,1.4
			c0.8,0.2,2.2,0.2,4.2,0.2h13.6v5.5h-12.9c-3,0-5-0.1-6.3-0.4c-1.2-0.3-2.3-0.8-3.1-1.6s-1.5-1.9-2-3.2c-0.5-1.3-0.7-3-0.7-5.2
			c0-2.6,0.3-4.5,0.8-5.9c0.5-1.3,1.2-2.4,2.1-3.1c0.9-0.8,1.8-1.3,2.7-1.5c1.4-0.4,3.5-0.5,6.2-0.5H483.5z"/>
	</g>
	<path id="path6190_00000168086515528493852910000003157093880683130782_" class="st1" d="M828.1,593.3h24.6v5.5h-24.6V593.3z"/>
	<g id="g6192_00000145030907127011858730000012897737728997075328_" transform="translate(363.2715,296.1104)">
		<path id="path6194_00000154428416853044524010000015977849745559038606_" class="st1" d="M463.5,344.1l24.3-3.7l3,19.8l-4.1,0.6
			l-2.2-14.4l-5.4,0.8l2.1,13.4l-4.1,0.6l-2.1-13.4l-6.5,1l2.3,14.9l-4.1,0.6L463.5,344.1z"/>
	</g>
	<g id="g6196_00000180350810003110503880000000668311976867790237_" transform="translate(365.0015,288.2871)">
		<path id="path6198_00000029036385878060883450000013139388638655705257_" class="st1" d="M469.4,386l22.6-9.6l3.2,7.5l-13.5,11
			l17.3-2.1l3.2,7.5l-22.6,9.6l-2-4.6l17.8-7.5l-19.9,2.6l-2.1-4.8l15.7-12.4l-17.8,7.5L469.4,386z"/>
	</g>
	<g id="g6200_00000137110204014825628080000009331041548606513599_" transform="translate(369.2935,279.4004)">
		<path id="path6202_00000110451042296063326590000016581172169907453323_" class="st1" d="M483.8,433.6l18-16.7l6,6.4
			c2.3,2.4,3.6,4.1,4.1,5c0.8,1.4,1.1,2.9,0.9,4.5c-0.2,1.6-1,3.1-2.4,4.4c-1.1,1-2.2,1.7-3.4,1.9c-1.2,0.3-2.3,0.3-3.3,0
			c-1.1-0.3-2-0.7-2.8-1.3c-1-0.8-2.4-2.1-4.1-3.9l-2.4-2.6l-6.8,6.3L483.8,433.6z M502.4,423.7l-5.1,4.7l2,2.2
			c1.5,1.6,2.5,2.5,3.2,2.9c0.7,0.4,1.3,0.5,2,0.4c0.7-0.1,1.3-0.4,1.8-0.8c0.7-0.6,1-1.3,1-2.1c0-0.8-0.2-1.6-0.7-2.3
			c-0.4-0.5-1.2-1.6-2.5-3L502.4,423.7z"/>
	</g>
	<g id="g6204_00000181077266946501971420000007236839313791133333_" transform="translate(375.0156,273.7979)">
		<path id="path6206_00000044172687920025919580000001314913876372145071_" class="st1" d="M503.1,463.6l14.3-19.9l4.4,3.2
			l-14.3,19.9L503.1,463.6z"/>
	</g>
	<g id="g6208_00000033370890654446885590000003145261217270468481_" transform="translate(379.1787,271.1328)">
		<path id="path6210_00000017517621811154874400000016188859552409323664_" class="st1" d="M517.1,477.9l10.1-22.3l18.3,8.3
			l-1.7,3.8l-13.3-6l-2.3,4.9l12.4,5.6l-1.7,3.8l-12.4-5.6l-2.7,6l13.7,6.2l-1.7,3.8L517.1,477.9z"/>
	</g>
	<g id="g6212_00000013153772708154784370000005209596276040635541_" transform="translate(386.5547,268.2949)">
		<path id="path6214_00000116205096854227354330000000888965270835381378_" class="st1" d="M541.9,493.1l0.8-4.4l16.7-13.2
			l-12.4-2.2l0.7-4.1l19.4,3.4l-0.7,3.8l-17.4,13.7l15.1,2.6l-0.7,4.1L541.9,493.1z"/>
	</g>
	<g id="g6216_00000008830162200630881990000009829307221044621701_" transform="translate(399.9824,268.0039)">
		<path id="path6218_00000074401719699142037010000010236328163378053817_" class="st1" d="M587.1,494.6l-5.9,0.5l-2.8-5.4
			l-10.8,0.9l-1.8,5.8l-5.8,0.5l8.4-25.3l5.7-0.5L587.1,494.6z M576.3,485.8l-4.5-8.7l-2.9,9.3L576.3,485.8z"/>
	</g>
	<g id="g6220_00000123398871714856142490000006373473848912401049_" transform="translate(410.1992,272.9199)">
		<path id="path6222_00000159441978918628320080000016727355991085466016_" class="st1" d="M621.5,468.3l-13.9-19.9l4.5-3.1
			l11.5,16.5l11.1-7.7l2.4,3.4L621.5,468.3z"/>
	</g>
	<g id="g6224_00000064317704208016083570000006764039927850874257_" transform="translate(419.5215,281.9219)">
		<path id="path6226_00000158000093054197523420000001581608715550683547_" class="st1" d="M652.8,420.1l-3.8,4.5l-5.8-1.9l-7,8.2
			l2.8,5.3l-3.7,4.4l-11.9-23.9l3.7-4.3L652.8,420.1z M638.9,421.4l-9.3-3l4.5,8.6L638.9,421.4z"/>
	</g>
	<g id="g6228_00000132086592131499091500000014594793081111207351_" transform="translate(394.8496,361.0601)">
		<path id="path6230_00000029021835116005417470000001723587404814871487_" class="st1" d="M569.8-3.8c1.5,1.3,3.5,2,5.5,2
			c4.7,0,8.6-3.9,8.6-8.6c0-1.2-0.3-2.4-0.8-3.5l4.8-3.7c0.5,1.6,0.8,3.2,0.8,4.9c0,8.4-6.8,15.2-15.2,15.2c-3.1,0-6-1-8.5-2.7
			L569.8-3.8z"/>
	</g>
	<g id="g6232_00000082358346691744304660000004994438461784921739_" transform="translate(358.2046,332.9258)">
		<path id="path6234_00000009581899486684133280000004708409972356182427_" class="st1" d="M446.5,146.9c0,0,0,0,0-8.7
			c-5.3,1.3-9,4.3-10,8.3c-0.5,2.2-0.1,4.6,0.9,7.3c1.8,5.1,1.9,8.7-0.5,10.8c-2.4,2.6-9,5.1-19.1,7.5c-0.9,0.2-1.4,0.3-2.4,0.7
			c2.5,1.1,5.3,1.6,8.9,1.5c1.3,0,2.8-0.2,4.3-0.4c7.4-1.5,12.1-3.7,14.3-6.5c0.9-1.1,1.6-2.2,1.9-3.7c0.6-2.4,0.5-5.5-0.2-9.1
			c-0.3-1.7-0.4-2.6-0.3-3.7C444.5,149.1,445.1,147.8,446.5,146.9"/>
	</g>
</g>
</svg>
