<?xml version="1.0" encoding="utf-8"?>
<!-- Generator: Adobe Illustrator 16.0.0, SVG Export Plug-In . SVG Version: 6.00 Build 0)  -->
<!DOCTYPE svg PUBLIC "-//W3C//DTD SVG 1.1//EN" "http://www.w3.org/Graphics/SVG/1.1/DTD/svg11.dtd">
<svg version="1.1" id="Layer_1" xmlns="http://www.w3.org/2000/svg" xmlns:xlink="http://www.w3.org/1999/xlink" x="0px" y="0px"
	 width="850.39px" height="566.93px" viewBox="0 0 850.39 566.93" enable-background="new 0 0 850.39 566.93" xml:space="preserve">
<rect x="0.315" y="0.239" fill="#774E2B" width="850.014" height="566.69"/>
<g>
	<rect x="551.961" y="320.4" fill="#BE1823" width="65.409" height="246.529"/>
	<rect x="617.37" y="320.4" fill="#056734" width="65.409" height="246.529"/>
	<rect x="682.779" y="320.4" fill="#FDEB1B" width="65.409" height="246.529"/>
	<rect x="748.188" y="320.4" fill="#1E1E1C" width="65.408" height="246.529"/>
</g>
<g>
	<g>
		<path fill="#FFFFFF" d="M689.817,42.573c-3.206,0-5.845,0.475-8.065,1.452c-0.098,0.042-0.138,0.08-0.143,0.09
			c-0.255,0.757,3.718,4.167,8.72,7.066l0.253,0.148c4.334,2.514,8.075,4.686,13.276,4.686v0.629l0.073-0.629
			c4.211-0.016,8.096-1.167,12.205-2.386l2.037-0.596c3.115-0.896,6.647-1.91,7.822-4.188c0.546-1.058,0.548-2.32,0.008-3.86
			c-1.111-3.794-5.767-6.151-9.874-8.23c-1.135-0.574-2.204-1.116-3.177-1.673c-13.205-7.562-23.442-7.802-29.282-0.374
			c-1.206,1.532-3.01,5.059-2.224,5.99c0.052,0.061,0.207,0.246,0.729,0.246c0.907-0.001,2.209-0.537,3.253-0.968
			c0.6-0.247,1.115-0.46,1.523-0.564c1.688-0.436,3.373-0.646,5.152-0.646c3.318,0,6.618,0.759,9.807,1.492
			c1.238,0.284,2.479,0.596,3.728,0.909c3.587,0.9,7.294,1.831,11.075,2.13c3.272,0.258,4.652,0.816,4.611,1.866
			c-0.057,1.406-3.094,1.917-5.12,1.917c-0.739,0-1.462-0.06-2.147-0.177c-2.034-0.348-4.415-0.92-6.936-1.526
			C701.657,44.063,695.461,42.573,689.817,42.573z"/>
		<path fill="#FFFFFF" d="M756.939,79.711c-0.705,0.445,0.349,5.573,2.525,10.931l0.113,0.273c1.97,4.852,3.527,8.685,7.68,11.878
			c3.339,2.566,7.109,4.033,11.104,5.586l1.982,0.78c2.201,0.877,4.695,1.87,6.778,1.87c2.182,0,3.56-1.093,4.339-3.438
			c1.444-3.68-0.791-8.394-2.765-12.553c-0.545-1.148-1.059-2.233-1.486-3.271c-3.522-8.528-9.726-18.694-19.275-18.694
			c-1.182,0-2.41,0.157-3.644,0.466c-1.894,0.473-5.479,2.154-5.427,3.374c0.037,0.896,2.265,1.506,3.597,1.871
			c0.621,0.17,1.157,0.316,1.543,0.482c5.044,2.177,8.085,5.896,11.309,9.832c0.803,0.982,1.594,1.989,2.391,3.002
			c2.284,2.908,4.646,5.914,7.448,8.464c2.767,2.517,2.875,3.477,2.661,4.031c-0.076,0.195-0.334,0.651-1.105,0.651
			c-1.303,0-3.968-1.389-5.862-3.455c-1.396-1.521-2.926-3.432-4.547-5.454c-5.272-6.574-11.832-14.758-19.232-16.609
			C757.006,79.714,756.964,79.711,756.939,79.711z"/>
		<path fill="#FFFFFF" d="M791.857,163.337c-1.229,0-4.896,4.428-7.439,8.401l-0.157,0.246c-2.825,4.412-5.054,7.896-5.265,13.135
			c-0.167,4.204,0.813,8.129,1.85,12.284l0.511,2.078c0.959,3.977,2.042,8.483,5.783,8.483c0.583,0,1.227-0.106,1.917-0.315
			c3.835-0.944,6.393-5.491,8.65-9.502c0.624-1.109,1.213-2.156,1.812-3.105c5.727-9.062,10.66-21.491,1.648-29.237
			c-1.039-0.893-3.744-2.642-5.287-2.642c-0.263,0-0.464,0.054-0.602,0.159c-0.707,0.547,0.079,2.716,0.548,4.012
			c0.222,0.607,0.41,1.133,0.496,1.546c1.138,5.37-0.143,10.003-1.496,14.908c-0.339,1.227-0.705,2.456-1.073,3.693
			c-1.054,3.54-2.145,7.201-2.606,10.96c-0.391,3.175-0.985,4.529-1.988,4.529c-0.226,0-0.558-0.08-0.864-0.462
			c-0.892-1.105-1.189-4.318-0.637-6.875c0.438-2.019,1.113-4.374,1.831-6.866c2.321-8.1,5.213-18.178,2.454-25.286
			C791.903,163.382,791.867,163.343,791.857,163.337L791.857,163.337z"/>
		<path fill="#FFFFFF" d="M727.873,250.313c-3.894,0-7.727,0.191-11.79,2.509c-3.655,2.086-6.469,4.998-9.446,8.081l-1.481,1.525
			c-2.272,2.312-4.847,4.936-4.749,7.496c0.047,1.189,0.666,2.29,1.896,3.364c2.211,2.149,5.845,2.423,8.766,2.423
			c1.295,0,2.609-0.061,3.88-0.119c1.198-0.055,2.36-0.108,3.432-0.108l0.528,0.002c10.56,0,23.521-2.444,25.303-14.091
			c0.295-1.928,0.13-5.884-1.015-6.309c-0.86-0.316-2.227,1.458-3.113,2.588c-0.397,0.51-0.744,0.949-1.046,1.241
			c-3.956,3.812-8.562,5.18-13.439,6.629c-1.213,0.36-2.444,0.699-3.683,1.041c-3.566,0.982-7.257,1.999-10.696,3.6
			c-1.732,0.808-3.01,1.217-3.796,1.217c-1.002,0-1.194-0.651-1.229-0.851c-0.25-1.426,2.848-3.838,5.558-4.812
			c1.943-0.698,4.299-1.372,6.793-2.086c8.1-2.318,18.18-5.205,22.747-11.312c0.063-0.085,0.078-0.137,0.078-0.148
			c-0.149-0.783-5.286-1.796-11.067-1.859l-0.29-0.004C729.286,250.321,728.573,250.313,727.873,250.313z"/>
		<path fill="#FFFFFF" d="M622.8,243.064c-3.629,0-7.08,0.765-10.736,1.574l-2.081,0.453c-3.169,0.676-6.761,1.44-8.093,3.63
			c-0.618,1.016-0.71,2.274-0.277,3.848c0.843,3.862,5.316,6.539,9.268,8.901c1.09,0.653,2.122,1.271,3.056,1.896
			c12.667,8.484,22.831,9.435,29.184,2.428c1.312-1.442,3.358-4.833,2.639-5.819c-0.054-0.074-0.221-0.303-0.892-0.303
			c-0.899,0-2.14,0.412-3.137,0.743c-0.612,0.203-1.141,0.379-1.556,0.455c-1.23,0.227-2.438,0.337-3.683,0.337
			c-3.874,0-7.422-1.083-11.181-2.229c-1.209-0.368-2.42-0.766-3.639-1.164c-3.518-1.151-7.156-2.343-10.91-2.907
			c-3.211-0.482-4.55-1.126-4.472-2.153c0.113-1.542,3.582-1.62,4.277-1.62c1.059,0,2.128,0.125,3.093,0.36
			c2.005,0.491,4.342,1.229,6.812,2.012c6.057,1.914,12.923,4.085,19.064,4.085c2.312,0,4.381-0.321,6.149-0.955
			c0.102-0.036,0.143-0.071,0.147-0.08c0.31-0.737-3.415-4.418-8.2-7.662l-0.233-0.158c-4.339-2.944-7.766-5.27-12.996-5.618
			C623.866,243.081,623.333,243.064,622.8,243.064z"/>
		<path fill="#FFFFFF" d="M579.116,144.055c-0.546,0-1.147,0.09-1.791,0.266c-3.86,0.843-6.538,5.318-8.901,9.268
			c-0.65,1.092-1.27,2.123-1.894,3.057c-5.966,8.907-11.23,21.2-2.428,29.184c1.101,0.998,3.801,2.781,5.263,2.781
			c0.238,0,0.425-0.048,0.555-0.144c0.725-0.527-0.005-2.718-0.439-4.026c-0.204-0.613-0.378-1.142-0.454-1.557
			c-0.995-5.399,0.407-9.996,1.894-14.863c0.369-1.213,0.767-2.429,1.167-3.651c1.15-3.515,2.339-7.149,2.904-10.898
			c0.472-3.138,1.093-4.476,2.081-4.476c0.229,0,0.562,0.081,0.864,0.467c0.875,1.114,1.094,4.343,0.467,6.907
			c-0.491,2.007-1.23,4.342-2.012,6.814c-2.541,8.034-5.7,18.033-3.13,25.214c0.036,0.1,0.071,0.141,0.081,0.146l0,0
			c1.255,0,5.031-4.322,7.66-8.201l0.162-0.238c2.943-4.336,5.267-7.762,5.613-12.991c0.283-4.2-0.592-8.15-1.519-12.333
			l-0.454-2.085C583.943,148.645,582.968,144.055,579.116,144.055z"/>
		<path fill="#FFFFFF" d="M617.471,58.474c0.403,0,0.744,0.226,0.912,0.605c0.545,1.229-0.816,4.448-2.796,6.624
			c-1.391,1.527-3.157,3.226-5.027,5.023c-6.072,5.84-13.63,13.108-14.809,20.644c-0.015,0.104-0.005,0.157,0,0.167
			c0.002,0,0.11,0.109,0.579,0.109c2.189-0.001,7.341-2.236,10.075-3.646l0.256-0.132c4.655-2.4,8.336-4.297,11.144-8.723
			c2.258-3.558,3.381-7.451,4.567-11.573l0.595-2.031c0.924-3.106,1.973-6.629,0.688-8.847c-0.597-1.03-1.66-1.712-3.25-2.086
			c-3.741-1.089-8.307,1.556-12.249,3.882c-1.096,0.646-2.131,1.256-3.125,1.776c-9.501,4.968-20.003,13.244-16.095,24.466
			c0.629,1.8,2.535,5.105,3.771,5.105c0.968-0.123,1.375-2.396,1.619-3.754c0.112-0.634,0.211-1.183,0.344-1.583
			c1.712-5.219,5.142-8.583,8.772-12.146c0.904-0.888,1.836-1.766,2.771-2.648c2.692-2.537,5.474-5.159,7.764-8.183
			C616.023,58.82,616.918,58.474,617.471,58.474z"/>
	</g>
</g>
<g>
	<path fill-rule="evenodd" clip-rule="evenodd" fill="#1E1E1C" d="M660.627,225.777c-0.368,1.302,6.714,2.779,7.699,2.969
		c4.02,0.772,8.062,1.062,12.128,1.403c5.594,0.47,11.509-0.388,16.808-2.321c1.454-0.53,2.98-1.365,4.169-2.38
		c1.182-1.01,1.101-2.461,1.246-3.941c0.28-2.879,0.091-5.838,0-8.725c-0.112-3.526,0.24-7.115,0.639-10.616
		c0.666-5.828,1.692-11.562,3.479-17.114c1.621-5.038,2.871-10.145,4.145-15.271c0.392-1.571,0.853-2.355,2.172-3.269
		c1.145-0.793,2.426-1.066,2.259-2.663c-0.216-2.057-1.111-3.973-1.229-6.088c-0.136-2.496-0.312-5.029-0.512-7.521
		c-0.339-4.248-4.29-7.621-7.265-10.232c-2.986-2.623-6.796-4.549-10.103-6.728c-1.479-0.975-2.793-1.629-3.43-3.401
		c-0.393-1.093-0.552-2.262-1.021-3.347c-1.009-2.329-3.95-3.931-4.607-6.347c-0.322-1.185-0.247-2.539-0.553-3.68
		c0.107,0.151,0.262,0.255,0.373,0.403c0,0-2.369-10.817-1.506-13.573c0.864-2.757,3.844-7.738-0.6-12.379
		c-4.443-4.642,2.96-12.623-3.606-15.794c-6.567-3.172-5.159,11.136-3.715,14.572c1.446,3.436-5.204,3.846-1.112,10.803
		c4.093,6.958,3.154,23.225-5.154,27.447c-7.894,4.012-25.132,20.963-20.323,41.42C655.816,189.863,668.81,196.719,660.627,225.777z
		"/>
	<path fill-rule="evenodd" clip-rule="evenodd" fill="#FFFFFF" d="M658.361,177.175c-0.659,1.502-0.69-2.767-0.72-3.937
		c-0.044-1.743,0.12-3.729,0.205-5.479c0.128-2.643,0.862-5.533,1.969-7.955c3.062-6.705,9.86-10.808,16.963-12.279
		c6.048-1.253,11.185,0.063,16.371,2.919c1.987,1.093,3.412,2.116,4.375,4.221c0.815,1.786,1.019,4.013-0.691,5.32
		c-1.716,1.312-4.016,0.048-5.91-0.227c-2.939-0.429-5.99,0.167-8.921,0.536c-5.373,0.678-10.674,0.872-15.686,3.089
		c-1.444,0.64-2.818,1.529-4.064,2.462c-1.385,1.036-1.923,2.546-2.486,4.189C658.961,172.381,658.998,174.822,658.361,177.175"/>
	<path fill-rule="evenodd" clip-rule="evenodd" fill="#FFFFFF" d="M668.388,168.785c-0.644,0.247-2.511,0.529-2.767-0.404
		c-0.324-1.179,1.919-2.621,2.692-3.082c2.597-1.544,4.743-0.668,6.42,1.619c0.611,0.835,0.945,1.852,1.943,2.168
		c0.843,0.268,2.027,0.091,2.864-0.121c0.818-0.208,1.628-0.95,2.456-0.897c1.703,0.112,1.465,2.203,1.818,3.406
		c0.465,1.589,2.538,2.356,2.381,4.187c-0.113,1.329-0.69,2.611-0.8,3.95c-0.102,1.24-0.23,2.245-1.348,2.913
		c-1.655,0.99-4.107,2.889-6.041,3.064c-1.02,0.093-2.141-0.011-2.253-1.226c-0.104-1.143,0.932-1.743,1.528-2.478
		c-0.857-0.627-2.535,0.005-3.498,0.1c-1.293,0.126-2.582,0.097-3.857-0.18c-2.688-0.582-5.88-2.21-7.064-4.835
		c-0.728-1.609-1.646-4.745,0.205-5.911c2.459-1.55,4.619,0.695,6.24,2.233c1.692,1.605,3.184,2.002,5.321,1.101
		c1.042-0.441,2.518-1.824,2.256-3.05c-0.617-2.906-4.733-3.506-6.853-2.479c0.43,0.033,3.661-0.122,2.653,0.818
		c-0.647,0.607-3.184-0.939-2.381,0.973c0.254,0.601,1.094,0.512,0.436,1.126c-0.295,0.273-1.26,0.195-1.558,0.002
		C668.151,171.113,670.033,168.863,668.388,168.785"/>
	<path fill-rule="evenodd" clip-rule="evenodd" fill="#FFFFFF" d="M688.238,169.807c0.324-0.821-0.189-0.273,0.226-1.118
		c0.617-1.257,1.592-2.003,2.744-2.689c0.853-0.507,3.628-1.901,4.302-0.286c0.489,1.171-3.42,4.006-4.307,4.614
		c-0.606,0.416-1.577,0.966-2.327,1.098C687.771,171.616,687.076,170.625,688.238,169.807"/>
	<path fill-rule="evenodd" clip-rule="evenodd" fill="#FFFFFF" d="M688.648,174.617c3.211,1.215,6.894-0.05,9.131,0
		c1.116,0.026,2.803,0.579,2.922,1.938c0.161,1.81-2.548,3.489-3.663,4.611c-0.98,0.986-1.953,2.059-3.301,1.661
		c-1.389-0.41-2.479-1.994-3.35-3.096C689.757,178.933,686.561,175.248,688.648,174.617"/>
	<path fill-rule="evenodd" clip-rule="evenodd" fill="#FFFFFF" d="M675.141,186.281c-0.26,0.931-2.646,1.63-3.485,1.943
		c-0.522,0.196-2.01,0.245-2.354,0.636c-0.828,0.941,1.746,3.05,2.564,3.463c1.405,0.709,2.184,0.342,3.577-0.087
		c1.577-0.486,3.292-0.44,4.813,0.21c0.879,0.375,2.261,1.782,3.274,1.719c2.08-0.131-0.37-2.741-1.018-3.284
		c-0.791-0.664-1.924-1.334-2.867-1.745c-0.862-0.376-1.859-0.385-2.668-0.888c-0.506-0.316-1.219-2.185-1.53-2.182
		C675.23,186.067,675.286,186.12,675.141,186.281"/>
	<path fill-rule="evenodd" clip-rule="evenodd" fill="#FFFFFF" d="M672.377,198.354c1.134-0.024,2.128-0.739,3.276-0.82
		c1.482-0.104,2.841,0.428,4.197,0.946c0.943,0.36,1.683,1.062,2.562,1.494c0.261,0.127,1.381,0.357,1.439,0.627
		c0.182,0.825-2.68,0.999-3.007,1.021c-1.539,0.112-2.773,0.009-4.277-0.406c-1.121-0.31-2.319-0.516-3.196-1.333
		C672.977,199.516,671.46,198.603,672.377,198.354"/>
	<path fill-rule="evenodd" clip-rule="evenodd" fill="#FFFFFF" d="M653.465,148.22c1.529-2.021,2.83,0.844,1.851,2.153
		c-0.507,0.676-1.798,0.138-1.393,1.32c0.427,1.242,2.205,0.649,2.949,0.187c3.013-1.876,4.966-5.073,7.8-7.161
		c2.564-1.892,5.418-1.458,8.444-1.613c3.877-0.196,8.786,0.176,12.198-1.869c0.671-0.402,1.706-1.582,1.108-2.437
		c-0.624-0.887-4.316-1.091-5.297-1.198c-1.565-0.172-2.477-0.171-3.686-1.231c-1.076-0.944-2.179-2.218-2.54-3.683
		c-0.338-1.37-0.148-2.175,1.182-2.602c1.143-0.364,2.386-0.558,3.579-0.795c1.175-0.234,2.376-0.482,3.504-0.893
		c0.43-0.157,0.95-0.29,1.33-0.566c0.303-0.219,0.5-0.757,0.792-0.92c1.527-0.853,3.354,3.007,4.862,0.621
		c1.302-2.061-3.066-3.192-3.926-4.587c0.52-0.406,1.422-0.531,1.845-1.006c-1.557-0.033-2.487-0.333-2.657-1.986
		c-0.074-0.727,0.509-2.981,0.014-3.455c-1.021-0.978-2.088,2.167-2.894,2.438c-0.857,0.287-1.681-0.951-2.332-1.336
		c-2.892-1.702-2.878,2.185-3.812,3.987c-1.306,2.525-2.987,4.375-5.446,5.892c-3.45,2.128-6.204,4.84-9.14,7.771
		c-1.252,1.251-2.585,2.537-3.7,3.863c-0.692,0.822-2.056,2.959-1.829,4.077c1.236,0.204,2.508-1.272,3.668-1.724
		c0.604-0.234,3.728-1.959,3.443-0.492c-0.162,0.833-1.866,1.634-2.422,2.23c-0.533,0.574-0.666,1.291-1.094,1.848
		c-0.791,1.029-1.762,0.847-2.793,0.484c-1.452-0.512-2.656-0.664-3.506,0.921c-0.571,1.061-0.874,3.169-0.895,4.422"/>
	<path fill-rule="evenodd" clip-rule="evenodd" fill="#FFFFFF" d="M678.723,113.84c0.566,0.561,0.855,1.256,1.44,1.841
		c0.512,0.511,0.907,1.148,1.45,1.609c1.499,1.277,2.1-1.302,2.709-2.552c0.298-0.612,2.107-3.231,0.432-3.052
		c-1.206,0.129-1.37,2.158-2.741,1.831c-0.17-1.109,2.166-2.443,2.624-3.571c0.417-1.026,0.572-2.046,0.517-3.15
		c-0.835,0.036-1.169,1.156-1.922,1.313c-0.851,0.178-1.047-0.593-0.798-1.329c0.26-0.766,3.818-3.479,2.352-4.328
		c-1.315-0.762-1.448,3.206-2.995,2.87c-1.311-0.286-1.836-2.081-3.359-2.006c-0.251,1.501,1.338,2.747,2.407,3.546
		c-1.504-0.185-0.797,1.148-0.597,1.948c-0.753,0.082-1.302-0.736-1.519,0.323c-0.103,0.509,0.452,1.455,0.632,1.926
		c1.329,0.252,1.444-0.652,2.154,0.837c0.228,0.478,0.695,0.705,0.289,1.207c-0.169,0.207-1.103,0.331-1.338,0.209
		c-0.499-0.258-1.01-2.436-1.634-1.109C678.463,112.974,678.615,113.402,678.723,113.84"/>
	<path fill-rule="evenodd" clip-rule="evenodd" fill="#FFFFFF" d="M683.431,89.692c1.282,0.372,0.599,2.997,0.003,3.816
		c-0.659,0.907-1.881,2.013-2.996,2.119c-1.373,0.13-4.125-0.993-3.331-2.758c0.385-0.855,1.71-1.646,2.334-2.358
		c0.992-1.133-0.157-1.075,0.18-1.943c0.314-0.814,1.478-0.49,1.847-1.02c0.352-0.5-0.187-1.669-0.306-2.136
		c-1.34-0.303-3.337,1.712-2.949-0.962c0.286-1.973,1.468-2.008,3.059-2.141c-0.123-0.485-0.323-1.396-0.702-1.729
		c-0.536-0.471-1.076-0.079-1.642-0.301c-0.569-0.223-1.729-1.956-1.62-2.646c1.285-0.159,5.688,0.432,5.597,2.322
		c-0.967,0.12-1.751-0.72-2.635-0.68c0.275,0.889,0.921,1.629,1.322,2.457c0.516,1.062-0.346,1.727-0.006,2.845
		c0.322,1.054,0.99,1.35,0.924,2.658C682.445,88.526,682.356,88.895,683.431,89.692"/>
</g>
</svg>
