<?xml version="1.0" encoding="UTF-8" standalone="no"?>
<!-- Created with Inkscape (http://www.inkscape.org/) -->

<svg
   xmlns:dc="http://purl.org/dc/elements/1.1/"
   xmlns:cc="http://creativecommons.org/ns#"
   xmlns:rdf="http://www.w3.org/1999/02/22-rdf-syntax-ns#"
   xmlns:svg="http://www.w3.org/2000/svg"
   xmlns="http://www.w3.org/2000/svg"
   xmlns:sodipodi="http://sodipodi.sourceforge.net/DTD/sodipodi-0.dtd"
   xmlns:inkscape="http://www.inkscape.org/namespaces/inkscape"
   width="572"
   height="378"
   id="svg4888"
   version="1.1"
   inkscape:version="0.48.4 r9939"
   sodipodi:docname="Nieuw document 17">
  <defs
     id="defs4890" />
  <sodipodi:namedview
     id="base"
     pagecolor="#ffffff"
     bordercolor="#666666"
     borderopacity="1.0"
     inkscape:pageopacity="0.0"
     inkscape:pageshadow="2"
     inkscape:zoom="0.35"
     inkscape:cx="375.28571"
     inkscape:cy="26.142853"
     inkscape:document-units="px"
     inkscape:current-layer="layer1"
     showgrid="false"
     fit-margin-top="0"
     fit-margin-left="0"
     fit-margin-right="0"
     fit-margin-bottom="0"
     inkscape:window-width="1600"
     inkscape:window-height="837"
     inkscape:window-x="-8"
     inkscape:window-y="-8"
     inkscape:window-maximized="1" />
  <metadata
     id="metadata4893">
    <rdf:RDF>
      <cc:Work
         rdf:about="">
        <dc:format>image/svg+xml</dc:format>
        <dc:type
           rdf:resource="http://purl.org/dc/dcmitype/StillImage" />
        <dc:title></dc:title>
      </cc:Work>
    </rdf:RDF>
  </metadata>
  <g
     inkscape:label="Laag 1"
     inkscape:groupmode="layer"
     id="layer1"
     transform="translate(0.2857143,-180.50504)">
    <rect
       style="fill:#ffffff;fill-opacity:1;fill-rule:evenodd;stroke:none"
       id="rect4831"
       width="572"
       height="378"
       x="-0.2857143"
       y="180.50504" />
    <rect
       style="fill:#da1019;fill-opacity:1;fill-rule:evenodd;stroke:none"
       id="rect4833"
       width="189"
       height="190"
       x="-0.2857143"
       y="180.50504" />
    <rect
       style="fill:#da1019;fill-opacity:1;fill-rule:evenodd;stroke:none"
       id="rect4835"
       width="383"
       height="188"
       x="188.71428"
       y="370.50504" />
    <path
       style="fill:#ffffff;fill-opacity:1"
       d="m 86.465886,363.07976 c 0,0 1.3016,-3.081 2.8925,-6.8374 l 2.8925,-6.8297 1.5224,0.101 c 1.4905,0.099 1.5801,0.026 4.2695,-3.4496 1.5109,-1.953 3.024404,-3.9033 3.363504,-4.3341 0.5869,-0.7454 0.6883,-0.7533 2.1083,-0.1628 0.8204,0.3411 1.7331,0.6203 2.0279,0.6203 0.2949,0 2.1384,-0.991 4.0968,-2.2023 l 3.5605,-2.2023 2.0901,-4.1474 2.09,-4.1472 -1.0983,-2.1447 c -0.9528,-1.8604 -1.7924,-2.6624 -6.3328,-6.05 -2.879,-2.148 -5.9461,-4.6599 -6.816,-5.5821 l -1.5814,-1.6767 -0.9087,1.8613 c -0.4997,1.0238 -1.004104,2.7812 -1.120604,3.9053 -0.1931,1.8606 -0.354,2.1377 -1.7929,3.0852 l -1.5808,1.0411 -7.4584,-0.1455 -7.4586,-0.1454 -0.2932,1.0781 c -0.4333,1.5931 0.2972,3.762 1.4419,4.281 1.1408,0.5173 0.586,1.0693 -1.0839,1.0788 -1.6228,0.011 -3.2566,-1.6492 -4.2631,-4.3279 l -0.9007,-2.3968 -3.9575,0.2633 c -2.1766,0.1448 -4.2443,0.3459 -4.5947,0.4469 -0.454,0.1309 -0.7137,0.8559 -0.9028,2.5192 l -0.2655,2.3354 -4.5914,3.4446 c -3.7284,2.7974 -4.9785,3.5202 -6.6516,3.8463 -1.2197,0.2379 -2.0603,0.2555 -2.0603,0.043 0,-0.1972 0.3882,-2.0612 0.8628,-4.1421 0.5941,-2.605 1.315,-4.5256 2.3141,-6.1656 1.3757,-2.2578 1.4407,-2.5148 1.246,-4.9301 l -0.2056,-2.5481 2.3062,-1.2327 c 1.2685,-0.6781 3.6166,-2.3699 5.2181,-3.7595 2.5127,-2.1803 3.1213,-2.5266 4.4407,-2.5266 1.8245,0 2.5764,0.3669 5.3529,2.6118 1.2204,0.9868 2.3783,1.6282 2.7472,1.5219 0.3505,-0.101 1.5204,-0.2964 2.5996,-0.4342 3.3877,-0.4322 3.1933,-0.1838 3.452,-4.4098 0.2149,-3.512 0.3803,-4.1207 2.0542,-7.5664 1.0012,-2.0611 2.3353,-4.2382 2.9645,-4.8382 l 1.1441,-1.0907 0,1.1822 c 0,1.1627 0.047,1.19 2.8452,1.6647 1.5648,0.2655 3.11,0.5552 3.4338,0.6439 0.452,0.1238 0.593,0.8193 0.6071,2.9972 0.016,2.4257 0.2008,3.1748 1.279,5.1791 0.6933,1.2888 1.6993,2.8704 2.235704,3.5149 l 0.975,1.1716 -1.061704,-2.3432 c -0.7082,-1.563 -1.1142,-3.2223 -1.2194,-4.9827 -0.2146,-3.595 0.9465,-5.9575 4.435204,-9.0246 2.2295,-1.96 2.5601,-2.4264 2.5601,-3.6117 0,-0.7486 -0.2562,-1.854 -0.5692,-2.4564 -0.7288,-1.4024 -4.3657,-4.7118 -7.438504,-6.7687 l -2.392,-1.6011 3.4583,3.5921 c 5.126304,5.3244 5.865304,7.6427 3.105304,9.7429 -0.7594,0.5778 -2.048704,1.631 -2.865104,2.3402 l -1.4842,1.2896 -3.2108,-0.6061 c -1.7659,-0.3334 -3.2992,-0.6061 -3.4074,-0.6061 -0.1081,0 -0.085,-0.5898 0.05,-1.3105 l 0.2471,-1.3106 -2.4194,-0.2516 c -1.3306,-0.1384 -3.4217,-0.2516 -4.6468,-0.2516 -3.727,0 -11.3342,-4.0501 -13.7078,-7.2981 -2.306,-3.1555 -3.8894,-4.1903 -7.276,-4.7552 -2.5947,-0.4329 -3.2994,-0.7156 -4.2142,-1.6901 l -1.0986,-1.1704 -5.5967,0.2475 c -8.5718,0.379 -7.6246,-0.05 -11.683,5.298 -3.0755,4.0531 -3.6168,5.005 -4.1845,7.3593 -0.5484,2.2736 -0.5718,2.8973 -0.1466,3.9186 0.8228,1.9771 2.1783,1.5669 3.0838,-0.9333 0.3882,-1.0719 0.4065,-1.022 0.2142,0.5858 -0.3159,2.6424 -1.2754,5.3574 -2.3371,6.613 l -0.9481,1.1212 0.7886,1.8311 c 0.4338,1.0069 0.672,2.0347 0.5295,2.2838 -1.1615,2.0299 -5.771,8.8496 -5.9816,8.8496 -0.1465,0 -1.0986,-0.8409 -2.1158,-1.8685 l -1.8493,-1.8685 0,-4.5681 c 0,-4.4909 -0.016,-4.5719 -0.9381,-4.8022 -0.516,-0.1289 -1.432,-0.7474 -2.0356,-1.3743 l -1.0976,-1.1401 1.0741,0 c 1.171,0 3.3897,-0.9941 3.3897,-1.5189 0,-0.1799 -0.1697,-1.2172 -0.377,-2.305 l -0.3769,-1.9778 3.9089,-6.9988 c 3.8897,-6.9647 3.9088,-7.0119 3.9088,-9.6855 l 0,-2.6866 2.98,-2.983 2.9799,-2.983 2.7691,0.5251 c 1.8113,0.3435 3.9681,0.4405 6.2355,0.2803 2.972,-0.21 3.5459,-0.3658 4.0245,-1.0928 0.3694,-0.5611 1.3004,-1.0132 2.7519,-1.3365 1.4754,-0.3285 2.943,-1.049 4.482,-2.2003 2.6002,-1.9452 5.5576,-3.4925 7.4242,-3.8845 1.3482,-0.283 1.8649,-0.7524 1.491,-1.3545 -0.2912,-0.4689 -3.9314,0.7676 -6.781,2.3036 -1.1927,0.6429 -2.3398,1.0638 -2.5487,0.9352 -0.7111,-0.4373 -1.4771,-2.8418 -1.4771,-4.6364 0,-3.4162 1.5782,-5.318 11.9693,-14.4227 3.8851,-3.4043 7.2796,-6.3844 7.5433,-6.6227 0.2636,-0.2382 1.0076,-2.4365 1.6531,-4.8851 1.0523,-3.9916 1.3187,-4.5708 2.5755,-5.6018 1.5896,-1.304 2.9646,-3.7764 3.9212,-7.0511 0.8354,-2.8599 0.5787,-3.728 -0.3578,-1.2095 -1.5917,4.2807 -3.9076,7.4918 -6.6035,9.1561 -1.0253,0.6329 -1.8643,1.372 -1.8645,1.6424 -1e-4,0.2705 -0.5057,1.5552 -1.1236,2.8549 -1.0001,2.1039 -1.3018,2.4162 -2.7492,2.8479 -1.4277,0.4256 -1.7436,0.3994 -2.5922,-0.2152 -1.2191,-0.8829 -1.2193,-1.0568 0,-1.6086 1.1667,-0.5291 1.758,-1.8737 1.758,-3.9974 l 0,-1.5357 -2.7571,1.9578 -2.757,1.9578 -4.2088,-2.4033 c -2.3148,-1.3218 -4.2529,-2.4376 -4.3068,-2.4795 -0.053,-0.042 2.2859,-3.474 5.1999,-7.6266 4.5048,-6.4201 5.2978,-7.769 5.2978,-9.0106 0,-1.0969 0.3418,-1.8673 1.3737,-3.0962 1.1151,-1.3284 1.3735,-1.9612 1.3735,-3.3645 l 0,-1.7284 -1.5542,0.789 c -4.2438,2.1545 -7.6672,-0.7239 -8.1625,-6.8629 -0.1081,-1.3351 -0.057,-3.1034 0.1127,-3.9294 l 0.3088,-1.5018 0.326,1.7574 c 0.786,4.2375 3.1152,7.8108 5.0915,7.8108 0.4244,0 1.6028,-0.7606 2.6188,-1.6902 2.8736,-2.6293 3.5857,-2.9963 5.8144,-2.9963 l 2.0265,0 0.2526,-1.6598 c 0.3341,-2.1955 1.6546,-4.4371 3.4721,-5.8936 1.9957,-1.5995 2.4229,-1.1085 2.4366,2.8002 l 0.011,3.0397 1.8663,-0.3671 c 1.52,-0.2989 2.212,-0.2304 3.7282,0.3687 2.8588,1.1295 8.7441,1.0379 11.024104,-0.1714 0.9381,-0.4978 1.7917,-0.8194 1.8968,-0.7149 0.4414,0.4392 0.1424,3.8508 -0.4392,5.0109 -0.5597,1.1166 -0.5637,1.2937 -0.036,1.5875 1.2611,0.7023 2.985,2.9107 3.5843,4.5917 1.283,3.599 1.896,4.7597 3.0039,5.6874 1.5391,1.2888 3.7938,1.2722 6.0514,-0.044 l 1.7081,-0.9962 -0.2293,2.2655 c -0.439,4.3367 -1.8223,6.7396 -4.2024,7.2999 l -1.0845,0.2553 0.8556,1.1516 c 1.8663,2.512 0.5885,6.903 -2.5397,8.7273 -3.2452,1.8927 -4.0565,4.7156 -1.755,6.1084 0.6927,0.4192 1.7512,0.8697 2.3519,1.001 0.9375,0.2049 1.0348,0.3463 0.6858,0.9952 -0.5739,1.0671 -3.3033,2.6976 -4.5159,2.6976 -0.9372,0 -1.0088,0.1167 -0.8929,1.4553 0.1199,1.3855 0.017,1.5265 -2.1387,2.9465 -2.2263,1.466 -4.3091,3.8337 -5.055904,5.7474 -0.2085,0.5345 -0.5018,1.9403 -0.6517,3.1243 l -0.2725,2.1529 -0.6829,-1.426 c -1.0712,-2.2372 -0.889,-5.5649 0.5249,-9.588 0.9491,-2.7006 1.2538,-4.3347 1.4239,-7.6344 0.1819,-3.5302 0.1247,-4.1983 -0.3602,-4.1983 -0.3821,0 -0.746,0.7575 -1.079,2.2456 -0.7358,3.2902 -1.7928,5.7494 -4.0396,9.3986 -1.7099,2.777 -2.0349,3.6257 -2.2438,5.8581 l -0.2443,2.6106 -0.6625,-2.1027 c -1.6001,-5.0786 -1.253,-9.7047 1.3033,-17.3679 0.8519,-2.5538 1.7191,-5.7202 1.9272,-7.0364 0.396,-2.5051 0.7536,-6.8843 0.5622,-6.8843 -0.2254,0 -3.6861,5.5129 -5.3159,8.4681 -0.9238,1.675 -2.0724,4.3653 -2.5524,5.9783 l -0.8728,2.9327 -0.018,-2.9291 c -0.024,-3.651 0.3297,-4.9347 2.9022,-10.5446 2.9516,-6.4366 3.5216,-8.7101 3.4761,-13.8641 -0.03,-3.2773 -0.2798,-5.2165 -1.0578,-8.1782 -0.5608,-2.1353 -1.1956,-4.0573 -1.4106,-4.2713 -0.526,-0.5234 -2.2094,1.0671 -3.2338,3.0556 -0.4367,0.8477 -1.0905,3.0407 -1.4531,4.8734 l -0.6589,3.3322 -0.7073,-1.7491 c -0.453,-1.1201 -0.7086,-2.7672 -0.7109,-4.5806 0,-2.9751 -0.3858,-3.4965 -1.574,-2.1479 -1.165,1.3223 -1.8766,3.208 -2.2028,5.8378 l -0.3295,2.6564 -0.6766,-1.5104 c -0.4112,-0.9181 -0.6766,-2.4878 -0.6766,-4.003 0,-2.4163 -0.664,-3.5847 -0.8063,-1.4187 -0.2093,3.1889 0.3875,5.5949 2.0468,8.2514 l 1.0679,1.7096 0.1751,-3.8576 c 0.1187,-2.617 0.408,-4.3601 0.8998,-5.4199 l 0.7248,-1.5622 0.2784,2.7558 c 0.2837,2.8079 1.145,4.922 2.8452,6.9842 l 0.9466,1.1481 0.1919,-3.9664 c 0.1673,-3.4587 0.3535,-4.293 1.4542,-6.518 0.6942,-1.4033 1.4228,-2.5517 1.619,-2.5517 0.1964,0 0.6177,0.9228 0.9364,2.0504 1.9046,6.7407 1.8493,12.393 -0.1767,18.0625 -0.6908,1.9332 -1.856,4.7012 -2.5894,6.1512 -2.4012,4.7477 -2.9612,8.4888 -1.9722,13.1806 0.6492,3.0805 1.5434,2.9289 1.9038,-0.323 0.1506,-1.359 0.4784,-3.1164 0.7286,-3.9054 0.4835,-1.5253 3.9934,-8.3255 4.9735,-9.6358 1.0072,-1.3466 0.2991,3.5538 -1.083,7.4942 -3.3879,9.6591 -3.6322,16.8033 -0.7662,22.394 1.2912,2.5189 1.7628,2.0189 1.7612,-1.8669 0,-3.0358 0.1185,-3.6135 1.0717,-5.1747 0.5903,-0.9667 1.9493,-3.5149 3.0202,-5.6629 1.6617,-3.3333 1.9161,-3.6766 1.7366,-2.3432 -0.1157,0.8591 -0.755,3.1438 -1.4207,5.077 -2.1255,6.1725 -1.6265,10.5597 1.5417,13.5528 l 1.117204,1.0555 -0.143004,-3.1332 c -0.1036,-2.2633 0.038,-3.6052 0.509204,-4.8325 0.8194,-2.1354 1.6233,-2.8925 1.9577,-1.8439 0.1297,0.4065 0.6859,0.9789 1.2362,1.2719 0.5502,0.293 2.6703,2.3274 4.7113,4.5208 3.4041,3.6582 3.9618,4.0904 6.7438,5.2248 7.0246,2.8643 13.1478,6.2861 16.2757,9.0951 3.1055,2.7889 7.0086,8.3819 8.1931,11.7409 0.5151,1.46 0.575,1.4976 2.0713,1.2979 3.1342,-0.4184 5.5034,-3.4383 5.1087,-6.5116 -0.6281,-4.8889 -2.888,-9.7648 -5.6956,-12.2891 -2.4116,-2.1682 -4.72,-3.0505 -8.5194,-3.2562 l -3.2587,-0.1765 0.9041,-0.9633 c 1.3839,-1.4746 2.8255,-2.0608 5.0679,-2.0608 l 2.0443,0 -2.3927,-1.19 c -2.6114,-1.2985 -4.639,-3.2963 -5.0427,-4.9682 -0.4384,-1.8155 -1.5849,-3.741 -3.0769,-5.1675 -1.3472,-1.288 -1.5834,-1.3669 -4.0915,-1.3669 -2.3271,0 -2.9231,0.1616 -4.7379,1.2843 -1.1418,0.7063 -2.1343,1.2262 -2.2057,1.1551 -0.2647,-0.2634 1.7155,-4.0452 2.7671,-5.2849 2.8579,-3.3685 6.9095,-3.1763 11.4722,0.5443 1.9933,1.6256 2.4263,1.225 1.5,-1.3878 -1.4321,-4.0389 -1.1133,-8.3982 0.9317,-12.7474 2.1441,-4.5595 5.5552,-7.2526 9.8971,-7.8141 1.1627,-0.1504 2.2264,-0.445 2.3637,-0.6549 0.1373,-0.21 1.1846,-0.7094 2.3273,-1.1098 2.2945,-0.8042 5.0465,-2.55 5.3791,-3.4124 0.1177,-0.3053 0.804,-1.4275 1.525,-2.4938 1.9022,-2.8129 1.607,-4.6018 -0.8607,-5.2182 -1.2213,-0.305 -3.769,0.9335 -4.3495,2.1144 l -0.4446,0.9044 -0.2653,-1.0523 c -0.5478,-2.172 0.6275,-4.8587 2.5607,-5.8535 3.218,-1.6561 7.4768,0.061 9.4058,3.7929 2.5735,4.9782 1.3289,8.8323 -3.7782,11.7007 -4.504,2.5296 -11.7375,9.7501 -13.4948,13.4704 -0.9502,2.0118 -1.0375,4.4293 -0.217,6.0084 0.6972,1.3417 2.8775,3.0822 4.1718,3.3302 0.506,0.097 1.2263,0.5738 1.6005,1.0596 0.7942,1.0306 1.877,3.9836 1.8889,5.1512 0,0.4954 0.4758,-0.099 1.214,-1.5341 1.4328,-2.7849 2.7152,-4.223 4.9181,-5.5158 1.9956,-1.1711 4.7671,-1.3265 6.2627,-0.3513 l 1.036,0.6755 -2.3046,0.9257 c -2.6825,1.0774 -3.8726,2.279 -4.4799,4.5239 -0.557,2.0585 0.074,5.9436 1.3825,8.5136 1.2427,2.4405 2.1664,6.1099 2.1664,8.6067 l 0,2.0344 1.3872,-1.2121 c 1.2841,-1.122 2.5372,-1.5852 2.5372,-0.9378 0,0.1509 -0.5739,0.8638 -1.2754,1.5842 l -1.2754,1.3098 -0.041,6.3243 c -0.044,6.8471 -0.4067,8.5571 -2.3529,11.0964 -1.1434,1.4917 -3.4875,3.0768 -5.1283,3.4677 -1.6721,0.3982 -1.7003,0.4524 -1.0462,2.0101 0.976,2.3247 0.8206,5.5397 -0.3865,7.9951 -0.5696,1.1584 -1.4367,2.4819 -1.927,2.9413 l -0.8915,0.8349 0.1327,-2.3167 c 0.1223,-2.1342 0.041,-2.4083 -1.0377,-3.4815 -0.7171,-0.7135 -1.7567,-1.2583 -2.6837,-1.4062 -2.7281,-0.4353 -4.9968,-1.7806 -5.4725,-3.2449 l -0.4274,-1.3159 -5.1366,9.322 -5.1368,9.322 -0.2752,3.6159 -0.2752,3.616 2.0224,3.282 c 1.9967,3.2402 2.0171,3.3054 1.608,5.1224 -0.3516,1.5612 -1.2475,2.7857 -5.9048,8.0706 -5.1969,5.8971 -7.4349,9.1396 -7.4349,10.772 0,0.3977 0.2718,1.6338 0.6039,2.7467 0.561,1.8798 0.6913,2.0237 1.8344,2.0237 l 1.2305,0 -0.9216,0.9764 c -1.057,1.1195 -2.9474,1.3034 -4.1438,0.4029 -1.0296,-0.775 -1.1561,-0.7474 -1.6641,0.3622 -0.2419,0.5282 -1.1463,1.3191 -2.0096,1.7574 -1.9717,1.001 -2.0675,0.9953 -1.5693,-0.092 0.2842,-0.6209 0.2788,-1.2261 -0.017,-2.0024 l -0.425,-1.1125 -3.0558,0.1759 c -1.6807,0.097 -3.2885,0.3193 -3.5729,0.4943 -0.3786,0.2327 -0.4539,0.9209 -0.2811,2.5669 l 0.2362,2.2489 -1.812,0.3333 c -1.948,0.3583 -2.2282,0.6703 -2.7403,3.0508 -0.312,1.4502 -0.5879,1.6963 -4.453204,3.9732 -4.0393,2.3793 -4.1845,2.4298 -7.3583,2.5577 -1.7807,0.071 -3.2375,0.127 -3.2375,0.1228 z m -13.0725,-80.87 c 1.566,-1.1886 2.717,-3.4508 3.0732,-6.04 l 0.2395,-1.7408 -0.9402,2.1899 c -0.5171,1.2045 -1.3245,2.7272 -1.7942,3.3837 -1.0217,1.4279 -3.7441,2.8229 -5.5088,2.8229 -0.8435,0 -1.1807,0.1484 -0.9999,0.4397 0.5018,0.8078 4.3865,0.1165 5.9304,-1.0554 z m -6.93,-54.2911 c 0.6705,-2.0219 0.087,-2.3303 -2.1035,-1.112 l -1.8353,1.0208 0.8842,0.734 c 1.447,1.2011 2.5178,0.9757 3.0546,-0.6428 z m 9.5486,-15.8535 c -0.5565,-2.135 -1.0034,-2.6455 -2.3245,-2.6552 -0.8911,-0.011 -2.5268,1.3197 -2.5268,2.0488 0,0.2542 0.2749,0.071 0.6109,-0.4057 1.1559,-1.6424 3.2528,-0.6742 2.7612,1.2749 -0.1883,0.7462 -0.5043,0.9829 -1.3192,0.9874 -0.8362,0 -0.9424,0.089 -0.4831,0.3845 0.3237,0.2083 1.3133,0.3813 2.199,0.3846 l 1.6104,0.011 -0.5279,-2.0253 z m -57.2748,63.633 0.2637,-6.3463 2.2393,-2.0133 c 1.2316,-1.1074 4.2701,-3.5717 6.7523,-5.4761 4.1665,-3.1967 4.7577,-3.8221 7.6989,-8.1407 l 3.1859,-4.678 4.0308,-1.8264 4.0308,-1.8264 3.6918,3.2369 3.6918,3.237 3.4545,0.4927 3.4545,0.4928 -1.3015,1.9248 c -0.716,1.0586 -1.4755,2.5513 -1.688,3.3173 -0.4471,1.6116 0.049,4.8689 0.949,6.2368 0.3192,0.4846 0.4499,0.9556 0.2903,1.0464 -0.1595,0.091 -1.5262,0.281 -3.037,0.4225 l -2.747,0.2574 -3.9953,-4.0147 c -3.8426,-3.8614 -4.0112,-4.1028 -4.4133,-6.3239 -0.2302,-1.2701 -0.4952,-2.3856 -0.589,-2.479 -0.3459,-0.3442 -5.7798,4.307 -6.2051,5.3114 -0.242,0.5714 -0.4648,2.0934 -0.4948,3.3823 -0.031,1.2887 -0.098,2.8705 -0.1505,3.5148 -0.089,1.0894 -0.12,1.1114 -0.4429,0.3134 -0.1911,-0.4721 -0.8862,-1.1356 -1.5449,-1.4746 -1.1745,-0.6045 -1.1976,-0.5983 -1.1976,0.3212 0,1.5946 -0.4704,3.3766 -0.8326,3.1538 -0.1896,-0.1165 -0.3447,-0.6608 -0.3447,-1.2095 0,-0.9685 -0.055,-0.9896 -1.8588,-0.7203 -1.0225,0.1526 -2.347,0.5286 -2.9433,0.8354 -0.9647,0.4965 -1.0844,0.7735 -1.0844,2.5085 0,1.4077 0.2729,2.3809 0.981,3.4971 0.5397,0.8507 0.9812,1.6538 0.9812,1.7849 0,0.1311 -0.4857,0.9353 -1.0793,1.7874 -0.8423,1.2091 -2.0038,2.0158 -5.2914,3.6749 -2.3167,1.1692 -4.3259,2.1257 -4.4651,2.1257 -0.1391,0 -0.1343,-2.8557 0.011,-6.3462 z"
       id="path4817-5"
       inkscape:connector-curvature="0" />
    <path
       style="fill:#da1019;fill-opacity:1;stroke:none"
       d="m 12.537386,381.97746 48.9672,23.688 0,13.7886 66.821604,0 0,-14.4957 46.669,-21.5667 -19.0919,49.3207 -94.398704,0 0,67.8822 66.821604,0 0,-81.1405 14.3189,0 0,81.1405 13.0814,0 19.0919,50.7349 -46.4922,-20.6828 0,-14.4957 -66.821604,0 0,12.9047 -48.6136,21.9203 20.1525,-50.3814 12.5512,0 0,-67.8822 -13.0815,0 z"
       id="path4871"
       inkscape:connector-curvature="0" />
  </g>
</svg>
