<?xml version="1.0" encoding="UTF-8" standalone="no"?>
<!-- Created with Inkscape (http://www.inkscape.org/) -->

<svg
   xmlns:dc="http://purl.org/dc/elements/1.1/"
   xmlns:cc="http://creativecommons.org/ns#"
   xmlns:rdf="http://www.w3.org/1999/02/22-rdf-syntax-ns#"
   xmlns:svg="http://www.w3.org/2000/svg"
   xmlns="http://www.w3.org/2000/svg"
   xmlns:sodipodi="http://sodipodi.sourceforge.net/DTD/sodipodi-0.dtd"
   xmlns:inkscape="http://www.inkscape.org/namespaces/inkscape"
   width="326.78439"
   height="217.30684"
   id="svg12293"
   version="1.1"
   inkscape:version="0.48.4 r9939"
   sodipodi:docname="Nieuw document 75">
  <defs
     id="defs12295" />
  <sodipodi:namedview
     id="base"
     pagecolor="#ffffff"
     bordercolor="#666666"
     borderopacity="1.0"
     inkscape:pageopacity="0.0"
     inkscape:pageshadow="2"
     inkscape:zoom="0.98994949"
     inkscape:cx="32.497425"
     inkscape:cy="24.544605"
     inkscape:document-units="px"
     inkscape:current-layer="layer1"
     showgrid="false"
     fit-margin-top="0"
     fit-margin-left="0"
     fit-margin-right="0"
     fit-margin-bottom="0"
     inkscape:window-width="1600"
     inkscape:window-height="837"
     inkscape:window-x="-8"
     inkscape:window-y="-8"
     inkscape:window-maximized="1" />
  <metadata
     id="metadata12298">
    <rdf:RDF>
      <cc:Work
         rdf:about="">
        <dc:format>image/svg+xml</dc:format>
        <dc:type
           rdf:resource="http://purl.org/dc/dcmitype/StillImage" />
        <dc:title></dc:title>
      </cc:Work>
    </rdf:RDF>
  </metadata>
  <g
     inkscape:label="Laag 1"
     inkscape:groupmode="layer"
     id="layer1"
     transform="translate(-128.03638,-295.13733)">
    <rect
       style="fill:#fcdd05;fill-opacity:1;fill-rule:evenodd;stroke:none"
       id="rect11502"
       width="326.78439"
       height="217.30684"
       x="128.03638"
       y="295.13733" />
    <rect
       style="fill:#000000;fill-opacity:1;fill-rule:evenodd;stroke:none"
       id="rect12012"
       width="217.6879"
       height="59.598999"
       x="237.13287"
       y="375.06345" />
    <path
       style="fill:#ffff00;stroke:#000000;stroke-width:0.97699231;stroke-linecap:butt;stroke-linejoin:miter;stroke-miterlimit:4;stroke-opacity:1;stroke-dasharray:none"
       d="m 348.68847,384.668 c -2.3837,3.04384 -2.4037,6.6398 0.3225,10.87712 1.4686,-2.96846 3.4903,-5.70633 -0.3225,-10.87712 z"
       id="path11118-3-3"
       inkscape:connector-curvature="0"
       sodipodi:nodetypes="ccc" />
    <path
       style="fill:#ffff00;stroke:#000000;stroke-width:0.97699231;stroke-linecap:butt;stroke-linejoin:miter;stroke-miterlimit:4;stroke-opacity:1;stroke-dasharray:none"
       d="m 327.98077,397.53417 c 2.195,3.15485 5.8901,4.58873 11.3283,4.02323 -2.4779,-2.37473 -4.5005,-5.11212 -11.3283,-4.02323 z"
       id="path11118-1-5-9"
       inkscape:connector-curvature="0"
       sodipodi:nodetypes="ccc" />
    <path
       style="fill:#ffff00;stroke:#000000;stroke-width:0.97699231;stroke-linecap:butt;stroke-linejoin:miter;stroke-miterlimit:4;stroke-opacity:1;stroke-dasharray:none"
       d="m 369.37577,397.00511 c -3.9409,-1.19206 -7.8152,-0.20448 -11.6126,3.31539 3.6041,0.42913 7.1146,1.39653 11.6126,-3.31539 z"
       id="path11118-4-9-8"
       inkscape:connector-curvature="0"
       sodipodi:nodetypes="ccc" />
    <path
       style="fill:#ffff00;stroke:#000000;stroke-width:0.97699231;stroke-linecap:butt;stroke-linejoin:miter;stroke-miterlimit:4;stroke-opacity:1;stroke-dasharray:none"
       d="m 362.09597,418.34125 c 0.5247,-3.6839 -1.3309,-6.87587 -5.9519,-9.49636 0.2462,3.23753 -0.1174,6.50035 5.9519,9.49636 z"
       id="path11118-6-9-8"
       inkscape:connector-curvature="0"
       sodipodi:nodetypes="ccc" />
    <path
       style="fill:#ffff00;stroke:#000000;stroke-width:0.97699231;stroke-linecap:butt;stroke-linejoin:miter;stroke-miterlimit:4;stroke-opacity:1;stroke-dasharray:none"
       d="m 343.65897,410.54932 c -4.0568,0.82606 -6.7782,3.47801 -7.9479,8.25127 3.3222,-1.31869 6.8806,-2.13505 7.9479,-8.25127 z"
       id="path11118-0-8-08"
       inkscape:connector-curvature="0"
       sodipodi:nodetypes="ccc" />
    <path
       style="fill:#ffffff;stroke:#000000;stroke-width:0.97699231;stroke-linecap:butt;stroke-linejoin:miter;stroke-miterlimit:4;stroke-opacity:1;stroke-dasharray:none"
       d="m 349.64317,398.38612 c 0.2019,-5.73187 -1.5474,-13.15373 6.0295,-11.1361 5.219,1.49713 7.0544,3.47733 9.0282,5.55368 4.053,3.82355 -6.688,7.59664 -11.0272,8.4312 -0.1033,-0.62997 -0.6774,-1.18904 -1.0807,-1.39065 l 4.0793,-5.37158 -5.6879,4.606 c -0.3259,-0.30291 -0.6587,-0.60185 -1.3412,-0.69255 z"
       id="path11159-18-7"
       inkscape:connector-curvature="0"
       sodipodi:nodetypes="cccccccc" />
    <path
       style="fill:#ffffff;stroke:#000000;stroke-width:0.97699231;stroke-linecap:butt;stroke-linejoin:miter;stroke-miterlimit:4;stroke-opacity:1;stroke-dasharray:none"
       d="m 343.11217,401.68936 c -5.8876,-2.29728 -14.2586,-3.60574 -9.3442,-9.1338 3.4968,-3.76779 6.2389,-4.55273 9.1323,-5.41652 5.4837,-1.93724 5.4175,8.36423 4.6733,12.2695 -0.6938,-0.14854 -1.4886,0.11936 -1.8482,0.37856 l -4.0722,-5.37584 2.6779,6.42418 c -0.4362,0.15752 -0.8708,0.32204 -1.2189,0.85392 z"
       id="path11159-7-2-7"
       inkscape:connector-curvature="0"
       sodipodi:nodetypes="cccccccc" />
    <path
       style="fill:#ffffff;stroke:#000000;stroke-width:0.97699231;stroke-linecap:butt;stroke-linejoin:miter;stroke-miterlimit:4;stroke-opacity:1;stroke-dasharray:none"
       d="m 344.35497,408.28593 c -4.4199,4.16269 -8.6406,10.74555 -12.7989,4.74364 -2.7843,-4.21434 -2.6808,-6.78255 -2.6091,-9.50469 -0.1804,-5.26086 10.6548,-1.7085 14.5184,0.24184 -0.3922,0.53191 -0.3796,1.29014 -0.2285,1.67997 l -7.0484,1.59364 7.6802,-0.0675 c 0.018,0.41965 0.044,0.8403 0.4863,1.313 z"
       id="path11159-1-6-8"
       inkscape:connector-curvature="0"
       sodipodi:nodetypes="cccccccc" />
    <path
       style="fill:#ffffff;stroke:#000000;stroke-width:0.97699231;stroke-linecap:butt;stroke-linejoin:miter;stroke-miterlimit:4;stroke-opacity:1;stroke-dasharray:none"
       d="m 351.75637,408.60973 c 3.5311,4.79123 9.748,9.96227 2.2505,12.20389 -5.2335,1.45619 -8.0115,0.7795 -10.9646,0.0953 -5.7803,-1.04524 0.5705,-9.64759 3.581,-12.55875 0.4906,0.46215 1.3207,0.62452 1.7804,0.58227 l 0.128,6.488 1.6812,-6.68812 c 0.4619,0.0803 0.9267,0.15392 1.5435,-0.12253 z"
       id="path11159-77-6-3"
       inkscape:connector-curvature="0"
       sodipodi:nodetypes="cccccccc" />
    <path
       style="fill:#ffffff;stroke:#000000;stroke-width:0.97699231;stroke-linecap:butt;stroke-linejoin:miter;stroke-miterlimit:4;stroke-opacity:1;stroke-dasharray:none"
       d="m 354.86787,402.99938 c 6.029,-1.9842 13.0807,-6.2169 13.8291,0.80798 0.4038,4.87902 -0.9639,7.14055 -2.3796,9.55254 -2.45,4.78769 -10.4001,-2.6812 -12.8955,-5.9573 0.6154,-0.32185 0.9806,-1.00658 1.0387,-1.4158 l 7.1101,1.35823 -6.9186,-2.97627 c 0.1922,-0.3833 0.3778,-0.77067 0.2158,-1.36938 z"
       id="path11159-773-0-83"
       inkscape:connector-curvature="0"
       sodipodi:nodetypes="cccccccc" />
    <path
       sodipodi:type="arc"
       style="fill:#0c0c0c;fill-opacity:1;fill-rule:evenodd;stroke:none"
       id="path11200-3-7"
       sodipodi:cx="4654.1069"
       sodipodi:cy="3705.04"
       sodipodi:rx="49.82143"
       sodipodi:ry="48.92857"
       d="m 4703.9284,3705.04 c 0,27.0225 -22.3059,48.9286 -49.8215,48.9286 -27.5156,0 -49.8214,-21.9061 -49.8214,-48.9286 0,-27.0225 22.3058,-48.9285 49.8214,-48.9285 27.5156,0 49.8215,21.906 49.8215,48.9285 z"
       transform="matrix(0.12767815,0,0,0.11394511,-245.44483,-18.397975)" />
    <path
       sodipodi:type="arc"
       style="fill:#ffff00;fill-opacity:1;fill-rule:evenodd;stroke:none"
       id="path11202-8-10"
       sodipodi:cx="4656.4287"
       sodipodi:cy="3705.04"
       sodipodi:rx="29.642857"
       sodipodi:ry="30"
       d="m 4686.0716,3705.04 c 0,16.5686 -13.2716,30 -29.6429,30 -16.3713,0 -29.6428,-13.4314 -29.6428,-30 0,-16.5685 13.2715,-30 29.6428,-30 16.3713,0 29.6429,13.4315 29.6429,30 z"
       transform="matrix(0.12767815,0,0,0.11394511,-245.44483,-18.397975)" />
    <path
       style="fill:#ffff00;stroke:#000000;stroke-width:0.97699231;stroke-linecap:butt;stroke-linejoin:miter;stroke-miterlimit:4;stroke-opacity:1;stroke-dasharray:none"
       d="m 286.19167,384.80632 c -2.3838,3.04386 -2.4037,6.63981 0.3223,10.87712 1.4687,-2.96845 3.4904,-5.70631 -0.3223,-10.87712 z"
       id="path11118-3-0-7"
       inkscape:connector-curvature="0"
       sodipodi:nodetypes="ccc" />
    <path
       style="fill:#ffff00;stroke:#000000;stroke-width:0.97699231;stroke-linecap:butt;stroke-linejoin:miter;stroke-miterlimit:4;stroke-opacity:1;stroke-dasharray:none"
       d="m 265.48397,397.67249 c 2.1949,3.15485 5.8901,4.58874 11.3283,4.02323 -2.4781,-2.37473 -4.5005,-5.11212 -11.3283,-4.02323 z"
       id="path11118-1-5-1-3"
       inkscape:connector-curvature="0"
       sodipodi:nodetypes="ccc" />
    <path
       style="fill:#ffff00;stroke:#000000;stroke-width:0.97699231;stroke-linecap:butt;stroke-linejoin:miter;stroke-miterlimit:4;stroke-opacity:1;stroke-dasharray:none"
       d="m 306.87897,397.14343 c -3.941,-1.19205 -7.8154,-0.20448 -11.6126,3.31539 3.6041,0.42912 7.1146,1.39654 11.6126,-3.31539 z"
       id="path11118-4-9-2-4"
       inkscape:connector-curvature="0"
       sodipodi:nodetypes="ccc" />
    <path
       style="fill:#ffff00;stroke:#000000;stroke-width:0.97699231;stroke-linecap:butt;stroke-linejoin:miter;stroke-miterlimit:4;stroke-opacity:1;stroke-dasharray:none"
       d="m 299.59917,418.47956 c 0.5246,-3.68389 -1.3311,-6.87587 -5.952,-9.49635 0.2462,3.23753 -0.1174,6.50035 5.952,9.49635 z"
       id="path11118-6-9-5-9"
       inkscape:connector-curvature="0"
       sodipodi:nodetypes="ccc" />
    <path
       style="fill:#ffff00;stroke:#000000;stroke-width:0.97699231;stroke-linecap:butt;stroke-linejoin:miter;stroke-miterlimit:4;stroke-opacity:1;stroke-dasharray:none"
       d="m 281.16207,410.68764 c -4.0568,0.82606 -6.7782,3.47801 -7.9479,8.25127 3.3223,-1.31869 6.8806,-2.13505 7.9479,-8.25127 z"
       id="path11118-0-8-0-6"
       inkscape:connector-curvature="0"
       sodipodi:nodetypes="ccc" />
    <path
       style="fill:#ffffff;stroke:#000000;stroke-width:0.97699231;stroke-linecap:butt;stroke-linejoin:miter;stroke-miterlimit:4;stroke-opacity:1;stroke-dasharray:none"
       d="m 287.14617,398.52444 c 0.2021,-5.73187 -1.5473,-13.15371 6.0296,-11.13609 5.2189,1.49712 7.0545,3.47732 9.0282,5.55367 4.053,3.82355 -6.6881,7.59663 -11.0272,8.43119 -0.1033,-0.62996 -0.6773,-1.18903 -1.0806,-1.39063 l 4.0792,-5.37158 -5.6879,4.60599 c -0.326,-0.30291 -0.6586,-0.60185 -1.3413,-0.69255 z"
       id="path11159-18-9-5"
       inkscape:connector-curvature="0"
       sodipodi:nodetypes="cccccccc" />
    <path
       style="fill:#ffffff;stroke:#000000;stroke-width:0.97699231;stroke-linecap:butt;stroke-linejoin:miter;stroke-miterlimit:4;stroke-opacity:1;stroke-dasharray:none"
       d="m 280.61537,401.82767 c -5.8877,-2.29728 -14.2586,-3.60572 -9.3442,-9.13379 3.4967,-3.76778 6.2388,-4.55271 9.1322,-5.4165 5.4838,-1.93726 5.4174,8.36421 4.6732,12.26948 -0.6936,-0.14854 -1.4886,0.11936 -1.8481,0.37856 l -4.0722,-5.37583 2.678,6.42416 c -0.4362,0.15753 -0.8708,0.32204 -1.2189,0.85392 z"
       id="path11159-7-2-4-1"
       inkscape:connector-curvature="0"
       sodipodi:nodetypes="cccccccc" />
    <path
       style="fill:#ffffff;stroke:#000000;stroke-width:0.97699231;stroke-linecap:butt;stroke-linejoin:miter;stroke-miterlimit:4;stroke-opacity:1;stroke-dasharray:none"
       d="m 281.85807,408.42424 c -4.4198,4.16269 -8.6405,10.74557 -12.7988,4.74365 -2.7844,-4.21434 -2.6809,-6.78255 -2.6092,-9.50469 -0.1804,-5.26085 10.6548,-1.7085 14.5184,0.24183 -0.3922,0.53191 -0.3796,1.29015 -0.2285,1.67997 l -7.0484,1.59365 7.6802,-0.0675 c 0.017,0.41964 0.044,0.84029 0.4863,1.31299 z"
       id="path11159-1-6-7-0"
       inkscape:connector-curvature="0"
       sodipodi:nodetypes="cccccccc" />
    <path
       style="fill:#ffffff;stroke:#000000;stroke-width:0.97699231;stroke-linecap:butt;stroke-linejoin:miter;stroke-miterlimit:4;stroke-opacity:1;stroke-dasharray:none"
       d="m 289.25947,408.74805 c 3.5312,4.79123 9.7479,9.96226 2.2505,12.20389 -5.2335,1.45619 -8.0115,0.7795 -10.9646,0.0953 -5.7804,-1.04523 0.5705,-9.6476 3.5809,-12.55874 0.4907,0.46215 1.3207,0.6245 1.7805,0.58226 l 0.1281,6.488 1.6811,-6.68812 c 0.4619,0.0803 0.9268,0.15392 1.5435,-0.12253 z"
       id="path11159-77-6-8-9"
       inkscape:connector-curvature="0"
       sodipodi:nodetypes="cccccccc" />
    <path
       style="fill:#ffffff;stroke:#000000;stroke-width:0.97699231;stroke-linecap:butt;stroke-linejoin:miter;stroke-miterlimit:4;stroke-opacity:1;stroke-dasharray:none"
       d="m 292.37097,403.1377 c 6.029,-1.98421 13.0808,-6.21691 13.8291,0.80799 0.4038,4.87902 -0.9639,7.14053 -2.3796,9.55253 -2.45,4.78768 -10.4002,-2.68121 -12.8955,-5.95731 0.6155,-0.32184 0.9807,-1.00656 1.0388,-1.41578 l 7.11,1.35821 -6.9186,-2.97626 c 0.1922,-0.3833 0.3778,-0.77067 0.2158,-1.36938 z"
       id="path11159-773-0-3-9"
       inkscape:connector-curvature="0"
       sodipodi:nodetypes="cccccccc" />
    <path
       sodipodi:type="arc"
       style="fill:#0c0c0c;fill-opacity:1;fill-rule:evenodd;stroke:none"
       id="path11200-3-5-6"
       sodipodi:cx="4654.1069"
       sodipodi:cy="3705.04"
       sodipodi:rx="49.82143"
       sodipodi:ry="48.92857"
       d="m 4703.9284,3705.04 c 0,27.0225 -22.3059,48.9286 -49.8215,48.9286 -27.5156,0 -49.8214,-21.9061 -49.8214,-48.9286 0,-27.0225 22.3058,-48.9285 49.8214,-48.9285 27.5156,0 49.8215,21.906 49.8215,48.9285 z"
       transform="matrix(0.12767815,0,0,0.11394511,-307.94172,-18.259655)" />
    <path
       sodipodi:type="arc"
       style="fill:#ffff00;fill-opacity:1;fill-rule:evenodd;stroke:none"
       id="path11202-8-1-8"
       sodipodi:cx="4656.4287"
       sodipodi:cy="3705.04"
       sodipodi:rx="29.642857"
       sodipodi:ry="30"
       d="m 4686.0716,3705.04 c 0,16.5686 -13.2716,30 -29.6429,30 -16.3713,0 -29.6428,-13.4314 -29.6428,-30 0,-16.5685 13.2715,-30 29.6428,-30 16.3713,0 29.6429,13.4315 29.6429,30 z"
       transform="matrix(0.12767815,0,0,0.11394511,-307.94172,-18.259655)" />
    <path
       style="fill:#ffff00;stroke:#000000;stroke-width:0.97699231;stroke-linecap:butt;stroke-linejoin:miter;stroke-miterlimit:4;stroke-opacity:1;stroke-dasharray:none"
       d="m 411.49057,384.52966 c -2.3836,3.04385 -2.4035,6.6398 0.3225,10.87712 1.4687,-2.96846 3.4904,-5.70632 -0.3225,-10.87712 z"
       id="path11118-3-2-3"
       inkscape:connector-curvature="0"
       sodipodi:nodetypes="ccc" />
    <path
       style="fill:#ffff00;stroke:#000000;stroke-width:0.97699231;stroke-linecap:butt;stroke-linejoin:miter;stroke-miterlimit:4;stroke-opacity:1;stroke-dasharray:none"
       d="m 390.78287,397.39582 c 2.1949,3.15486 5.8902,4.58875 11.3283,4.02323 -2.478,-2.37472 -4.5004,-5.11211 -11.3283,-4.02323 z"
       id="path11118-1-5-0-4"
       inkscape:connector-curvature="0"
       sodipodi:nodetypes="ccc" />
    <path
       style="fill:#ffff00;stroke:#000000;stroke-width:0.97699231;stroke-linecap:butt;stroke-linejoin:miter;stroke-miterlimit:4;stroke-opacity:1;stroke-dasharray:none"
       d="m 432.17787,396.86677 c -3.9408,-1.19206 -7.8153,-0.20449 -11.6125,3.31539 3.6041,0.42912 7.1146,1.39653 11.6125,-3.31539 z"
       id="path11118-4-9-1-8"
       inkscape:connector-curvature="0"
       sodipodi:nodetypes="ccc" />
    <path
       style="fill:#ffff00;stroke:#000000;stroke-width:0.97699231;stroke-linecap:butt;stroke-linejoin:miter;stroke-miterlimit:4;stroke-opacity:1;stroke-dasharray:none"
       d="m 424.89817,418.20289 c 0.5247,-3.68389 -1.3309,-6.87586 -5.9519,-9.49635 0.246,3.23754 -0.1175,6.50035 5.9519,9.49635 z"
       id="path11118-6-9-6-4"
       inkscape:connector-curvature="0"
       sodipodi:nodetypes="ccc" />
    <path
       style="fill:#ffff00;stroke:#000000;stroke-width:0.97699231;stroke-linecap:butt;stroke-linejoin:miter;stroke-miterlimit:4;stroke-opacity:1;stroke-dasharray:none"
       d="m 406.46107,410.41098 c -4.0568,0.82606 -6.7781,3.47801 -7.9479,8.25126 3.3223,-1.31869 6.8807,-2.13504 7.9479,-8.25126 z"
       id="path11118-0-8-4-9"
       inkscape:connector-curvature="0"
       sodipodi:nodetypes="ccc" />
    <path
       style="fill:#ffffff;stroke:#000000;stroke-width:0.97699231;stroke-linecap:butt;stroke-linejoin:miter;stroke-miterlimit:4;stroke-opacity:1;stroke-dasharray:none"
       d="m 412.44517,398.24778 c 0.2021,-5.73186 -1.5474,-13.15372 6.0297,-11.13609 5.2189,1.49712 7.0544,3.47732 9.0282,5.55366 4.0529,3.82357 -6.6882,7.59664 -11.0274,8.4312 -0.1032,-0.62997 -0.6773,-1.18903 -1.0805,-1.39064 l 4.0792,-5.37157 -5.6878,4.60599 c -0.326,-0.30291 -0.6586,-0.60186 -1.3414,-0.69255 z"
       id="path11159-18-0-9"
       inkscape:connector-curvature="0"
       sodipodi:nodetypes="cccccccc" />
    <path
       style="fill:#ffffff;stroke:#000000;stroke-width:0.97699231;stroke-linecap:butt;stroke-linejoin:miter;stroke-miterlimit:4;stroke-opacity:1;stroke-dasharray:none"
       d="m 405.91447,401.55101 c -5.8878,-2.29728 -14.2587,-3.60573 -9.3442,-9.13378 3.4967,-3.7678 6.2386,-4.55273 9.1322,-5.41652 5.4836,-1.93725 5.4174,8.36421 4.6732,12.26949 -0.6937,-0.14854 -1.4886,0.11936 -1.8482,0.37856 l -4.0722,-5.37583 2.678,6.42417 c -0.4362,0.15751 -0.8708,0.32203 -1.2188,0.85391 z"
       id="path11159-7-2-6-2"
       inkscape:connector-curvature="0"
       sodipodi:nodetypes="cccccccc" />
    <path
       style="fill:#ffffff;stroke:#000000;stroke-width:0.97699231;stroke-linecap:butt;stroke-linejoin:miter;stroke-miterlimit:4;stroke-opacity:1;stroke-dasharray:none"
       d="m 407.15697,408.14758 c -4.4198,4.16269 -8.6404,10.74556 -12.7987,4.74365 -2.7844,-4.21433 -2.6809,-6.78256 -2.6091,-9.50469 -0.1805,-5.26086 10.6548,-1.7085 14.5182,0.24183 -0.3919,0.53191 -0.3795,1.29016 -0.2284,1.67997 l -7.0483,1.59364 7.68,-0.0675 c 0.018,0.41966 0.044,0.84031 0.4863,1.313 z"
       id="path11159-1-6-1-5"
       inkscape:connector-curvature="0"
       sodipodi:nodetypes="cccccccc" />
    <path
       style="fill:#ffffff;stroke:#000000;stroke-width:0.97699231;stroke-linecap:butt;stroke-linejoin:miter;stroke-miterlimit:4;stroke-opacity:1;stroke-dasharray:none"
       d="m 414.55837,408.47139 c 3.5313,4.79123 9.7481,9.96227 2.2506,12.20389 -5.2335,1.45618 -8.0115,0.77949 -10.9646,0.0953 -5.7803,-1.04522 0.5706,-9.64758 3.5809,-12.55873 0.4908,0.46215 1.3207,0.62451 1.7805,0.58226 l 0.1281,6.488 1.6812,-6.68813 c 0.4618,0.0803 0.9267,0.15393 1.5433,-0.12252 z"
       id="path11159-77-6-89-5"
       inkscape:connector-curvature="0"
       sodipodi:nodetypes="cccccccc" />
    <path
       style="fill:#ffffff;stroke:#000000;stroke-width:0.97699231;stroke-linecap:butt;stroke-linejoin:miter;stroke-miterlimit:4;stroke-opacity:1;stroke-dasharray:none"
       d="m 417.66997,402.86103 c 6.0289,-1.9842 13.0809,-6.21691 13.829,0.80799 0.404,4.87903 -0.9638,7.14054 -2.3795,9.55254 -2.45,4.78769 -10.4002,-2.68122 -12.8955,-5.95732 0.6156,-0.32184 0.9808,-1.00655 1.0388,-1.41577 l 7.11,1.35821 -6.9187,-2.97625 c 0.1923,-0.38332 0.378,-0.77067 0.2159,-1.3694 z"
       id="path11159-773-0-8-3"
       inkscape:connector-curvature="0"
       sodipodi:nodetypes="cccccccc" />
    <path
       sodipodi:type="arc"
       style="fill:#0c0c0c;fill-opacity:1;fill-rule:evenodd;stroke:none"
       id="path11200-3-4-3"
       sodipodi:cx="4654.1069"
       sodipodi:cy="3705.04"
       sodipodi:rx="49.82143"
       sodipodi:ry="48.92857"
       d="m 4703.9284,3705.04 c 0,27.0225 -22.3059,48.9286 -49.8215,48.9286 -27.5156,0 -49.8214,-21.9061 -49.8214,-48.9286 0,-27.0225 22.3058,-48.9285 49.8214,-48.9285 27.5156,0 49.8215,21.906 49.8215,48.9285 z"
       transform="matrix(0.12767815,0,0,0.11394511,-182.64271,-18.536315)" />
    <path
       sodipodi:type="arc"
       style="fill:#ffff00;fill-opacity:1;fill-rule:evenodd;stroke:none"
       id="path11202-8-14-3"
       sodipodi:cx="4656.4287"
       sodipodi:cy="3705.04"
       sodipodi:rx="29.642857"
       sodipodi:ry="30"
       d="m 4686.0716,3705.04 c 0,16.5686 -13.2716,30 -29.6429,30 -16.3713,0 -29.6428,-13.4314 -29.6428,-30 0,-16.5685 13.2715,-30 29.6428,-30 16.3713,0 29.6429,13.4315 29.6429,30 z"
       transform="matrix(0.12767815,0,0,0.11394511,-182.64271,-18.536315)" />
    <rect
       style="fill:#da0f19;fill-opacity:1;fill-rule:evenodd;stroke:none"
       id="rect12137"
       width="109.0965"
       height="217.30684"
       x="128.03638"
       y="295.13733" />
    <path
       style="fill:#ffffff;stroke:none"
       d="m 184.00946,365.85162 -28.2143,38.92857 28.9286,39.64285 28.4821,-40.80357 -6.1607,-3.39286 -4.1071,3.75 -18.4594,25.41408 -18.4603,-24.87836 18.4822,-24.24106 20.3125,25.8482 8.376,-2.50345 z"
       id="path12139"
       inkscape:connector-curvature="0" />
    <path
       transform="translate(-844.74055,-90.111815)"
       sodipodi:type="arc"
       style="fill:#ffffff;fill-opacity:1;fill-rule:evenodd;stroke:none"
       id="path12141"
       sodipodi:cx="994.33038"
       sodipodi:cy="468.642"
       sodipodi:rx="7.8125"
       sodipodi:ry="7.8571429"
       d="m 1002.1429,468.642 c 0,4.33938 -3.49779,7.85714 -7.81252,7.85714 -4.31472,0 -7.8125,-3.51776 -7.8125,-7.85714 0,-4.33938 3.49778,-7.85714 7.8125,-7.85714 4.31473,0 7.81252,3.51776 7.81252,7.85714 z" />
    <path
       transform="translate(-834.2495,-121.54038)"
       sodipodi:type="arc"
       style="fill:#ffffff;fill-opacity:1;fill-rule:evenodd;stroke:none"
       id="path12141-7"
       sodipodi:cx="994.33038"
       sodipodi:cy="468.642"
       sodipodi:rx="7.8125"
       sodipodi:ry="7.8571429"
       d="m 1002.1429,468.642 c 0,4.33938 -3.49779,7.85714 -7.81252,7.85714 -4.31472,0 -7.8125,-3.51776 -7.8125,-7.85714 0,-4.33938 3.49778,-7.85714 7.8125,-7.85714 4.31473,0 7.81252,3.51776 7.81252,7.85714 z" />
    <path
       transform="translate(-788.53522,-123.50467)"
       sodipodi:type="arc"
       style="fill:#ffffff;fill-opacity:1;fill-rule:evenodd;stroke:none"
       id="path12141-4"
       sodipodi:cx="994.33038"
       sodipodi:cy="468.642"
       sodipodi:rx="7.8125"
       sodipodi:ry="7.8571429"
       d="m 1002.1429,468.642 c 0,4.33938 -3.49779,7.85714 -7.81252,7.85714 -4.31472,0 -7.8125,-3.51776 -7.8125,-7.85714 0,-4.33938 3.49778,-7.85714 7.8125,-7.85714 4.31473,0 7.81252,3.51776 7.81252,7.85714 z" />
    <path
       transform="translate(-776.92807,-92.076095)"
       sodipodi:type="arc"
       style="fill:#ffffff;fill-opacity:1;fill-rule:evenodd;stroke:none"
       id="path12141-3"
       sodipodi:cx="994.33038"
       sodipodi:cy="468.642"
       sodipodi:rx="7.8125"
       sodipodi:ry="7.8571429"
       d="m 1002.1429,468.642 c 0,4.33938 -3.49779,7.85714 -7.81252,7.85714 -4.31472,0 -7.8125,-3.51776 -7.8125,-7.85714 0,-4.33938 3.49778,-7.85714 7.8125,-7.85714 4.31473,0 7.81252,3.51776 7.81252,7.85714 z" />
    <path
       transform="translate(-823.35665,-153.14753)"
       sodipodi:type="arc"
       style="fill:#ffffff;fill-opacity:1;fill-rule:evenodd;stroke:none"
       id="path12141-8"
       sodipodi:cx="994.33038"
       sodipodi:cy="468.642"
       sodipodi:rx="7.8125"
       sodipodi:ry="7.8571429"
       d="m 1002.1429,468.642 c 0,4.33938 -3.49779,7.85714 -7.81252,7.85714 -4.31472,0 -7.8125,-3.51776 -7.8125,-7.85714 0,-4.33938 3.49778,-7.85714 7.8125,-7.85714 4.31473,0 7.81252,3.51776 7.81252,7.85714 z" />
    <path
       transform="translate(-799.2495,-153.86181)"
       sodipodi:type="arc"
       style="fill:#ffffff;fill-opacity:1;fill-rule:evenodd;stroke:none"
       id="path12141-0"
       sodipodi:cx="994.33038"
       sodipodi:cy="468.642"
       sodipodi:rx="7.8125"
       sodipodi:ry="7.8571429"
       d="m 1002.1429,468.642 c 0,4.33938 -3.49779,7.85714 -7.81252,7.85714 -4.31472,0 -7.8125,-3.51776 -7.8125,-7.85714 0,-4.33938 3.49778,-7.85714 7.8125,-7.85714 4.31473,0 7.81252,3.51776 7.81252,7.85714 z" />
    <path
       transform="translate(-843.81814,-38.651525)"
       sodipodi:type="arc"
       style="fill:#ffffff;fill-opacity:1;fill-rule:evenodd;stroke:none"
       id="path12141-88"
       sodipodi:cx="994.33038"
       sodipodi:cy="468.642"
       sodipodi:rx="7.8125"
       sodipodi:ry="7.8571429"
       d="m 1002.1429,468.642 c 0,4.33938 -3.49779,7.85714 -7.81252,7.85714 -4.31472,0 -7.8125,-3.51776 -7.8125,-7.85714 0,-4.33938 3.49778,-7.85714 7.8125,-7.85714 4.31473,0 7.81252,3.51776 7.81252,7.85714 z" />
    <path
       transform="translate(-776.39045,-36.126145)"
       sodipodi:type="arc"
       style="fill:#ffffff;fill-opacity:1;fill-rule:evenodd;stroke:none"
       id="path12141-06"
       sodipodi:cx="994.33038"
       sodipodi:cy="468.642"
       sodipodi:rx="7.8125"
       sodipodi:ry="7.8571429"
       d="m 1002.1429,468.642 c 0,4.33938 -3.49779,7.85714 -7.81252,7.85714 -4.31472,0 -7.8125,-3.51776 -7.8125,-7.85714 0,-4.33938 3.49778,-7.85714 7.8125,-7.85714 4.31473,0 7.81252,3.51776 7.81252,7.85714 z" />
    <path
       transform="translate(-832.07511,-8.0944054)"
       sodipodi:type="arc"
       style="fill:#ffffff;fill-opacity:1;fill-rule:evenodd;stroke:none"
       id="path12141-81"
       sodipodi:cx="994.33038"
       sodipodi:cy="468.642"
       sodipodi:rx="7.8125"
       sodipodi:ry="7.8571429"
       d="m 1002.1429,468.642 c 0,4.33938 -3.49779,7.85714 -7.81252,7.85714 -4.31472,0 -7.8125,-3.51776 -7.8125,-7.85714 0,-4.33938 3.49778,-7.85714 7.8125,-7.85714 4.31473,0 7.81252,3.51776 7.81252,7.85714 z" />
    <path
       transform="translate(-785.48183,-7.9681354)"
       sodipodi:type="arc"
       style="fill:#ffffff;fill-opacity:1;fill-rule:evenodd;stroke:none"
       id="path12141-9"
       sodipodi:cx="994.33038"
       sodipodi:cy="468.642"
       sodipodi:rx="7.8125"
       sodipodi:ry="7.8571429"
       d="m 1002.1429,468.642 c 0,4.33938 -3.49779,7.85714 -7.81252,7.85714 -4.31472,0 -7.8125,-3.51776 -7.8125,-7.85714 0,-4.33938 3.49778,-7.85714 7.8125,-7.85714 4.31473,0 7.81252,3.51776 7.81252,7.85714 z" />
    <path
       transform="translate(-821.34224,22.967785)"
       sodipodi:type="arc"
       style="fill:#ffffff;fill-opacity:1;fill-rule:evenodd;stroke:none"
       id="path12141-89"
       sodipodi:cx="994.33038"
       sodipodi:cy="468.642"
       sodipodi:rx="7.8125"
       sodipodi:ry="7.8571429"
       d="m 1002.1429,468.642 c 0,4.33938 -3.49779,7.85714 -7.81252,7.85714 -4.31472,0 -7.8125,-3.51776 -7.8125,-7.85714 0,-4.33938 3.49778,-7.85714 7.8125,-7.85714 4.31473,0 7.81252,3.51776 7.81252,7.85714 z" />
    <path
       transform="translate(-795.83589,22.462705)"
       sodipodi:type="arc"
       style="fill:#ffffff;fill-opacity:1;fill-rule:evenodd;stroke:none"
       id="path12141-72"
       sodipodi:cx="994.33038"
       sodipodi:cy="468.642"
       sodipodi:rx="7.8125"
       sodipodi:ry="7.8571429"
       d="m 1002.1429,468.642 c 0,4.33938 -3.49779,7.85714 -7.81252,7.85714 -4.31472,0 -7.8125,-3.51776 -7.8125,-7.85714 0,-4.33938 3.49778,-7.85714 7.8125,-7.85714 4.31473,0 7.81252,3.51776 7.81252,7.85714 z" />
  </g>
</svg>
