<?xml version="1.0" encoding="UTF-8" standalone="no"?>
<!-- Created with Inkscape (http://www.inkscape.org/) -->

<svg
   xmlns:dc="http://purl.org/dc/elements/1.1/"
   xmlns:cc="http://creativecommons.org/ns#"
   xmlns:rdf="http://www.w3.org/1999/02/22-rdf-syntax-ns#"
   xmlns:svg="http://www.w3.org/2000/svg"
   xmlns="http://www.w3.org/2000/svg"
   xmlns:sodipodi="http://sodipodi.sourceforge.net/DTD/sodipodi-0.dtd"
   xmlns:inkscape="http://www.inkscape.org/namespaces/inkscape"
   width="327.79449"
   height="216.67772"
   id="svg11386"
   version="1.1"
   inkscape:version="0.48.4 r9939"
   sodipodi:docname="Nieuw document 69">
  <defs
     id="defs11388" />
  <sodipodi:namedview
     id="base"
     pagecolor="#ffffff"
     bordercolor="#666666"
     borderopacity="1.0"
     inkscape:pageopacity="0.0"
     inkscape:pageshadow="2"
     inkscape:zoom="1.979899"
     inkscape:cx="224.23497"
     inkscape:cy="103.70575"
     inkscape:document-units="px"
     inkscape:current-layer="layer1"
     showgrid="false"
     fit-margin-top="0"
     fit-margin-left="0"
     fit-margin-right="0"
     fit-margin-bottom="0"
     inkscape:window-width="1600"
     inkscape:window-height="837"
     inkscape:window-x="-8"
     inkscape:window-y="-8"
     inkscape:window-maximized="1" />
  <metadata
     id="metadata11391">
    <rdf:RDF>
      <cc:Work
         rdf:about="">
        <dc:format>image/svg+xml</dc:format>
        <dc:type
           rdf:resource="http://purl.org/dc/dcmitype/StillImage" />
        <dc:title></dc:title>
      </cc:Work>
    </rdf:RDF>
  </metadata>
  <g
     inkscape:label="Laag 1"
     inkscape:groupmode="layer"
     id="layer1"
     transform="translate(-184.67418,-335.4519)">
    <rect
       style="fill:#da0f19;fill-opacity:1;fill-rule:evenodd;stroke:none"
       id="rect10586"
       width="327.79449"
       height="216.67772"
       x="184.67418"
       y="335.4519" />
    <rect
       style="fill:#fcdd05;fill-opacity:1;fill-rule:evenodd;stroke:none"
       id="rect11096"
       width="327.79449"
       height="144.95689"
       x="184.67418"
       y="370.80722" />
    <rect
       style="fill:#000000;fill-opacity:1;fill-rule:evenodd;stroke:none"
       id="rect11098"
       width="327.79449"
       height="71.720833"
       x="184.67418"
       y="406.66763" />
    <path
       style="fill:#ffff00;stroke:#000000;stroke-width:1.20073056;stroke-linecap:butt;stroke-linejoin:miter;stroke-miterlimit:4;stroke-opacity:1;stroke-dasharray:none"
       d="m 349.06171,420.43246 c -2.78898,3.92939 -2.81238,8.57149 0.37727,14.04158 1.71846,-3.83207 4.08395,-7.36646 -0.37727,-14.04158 z"
       id="path11118-3"
       inkscape:connector-curvature="0"
       sodipodi:nodetypes="ccc" />
    <path
       style="fill:#ffff00;stroke:#000000;stroke-width:1.20073056;stroke-linecap:butt;stroke-linejoin:miter;stroke-miterlimit:4;stroke-opacity:1;stroke-dasharray:none"
       d="m 324.8325,437.04175 c 2.56821,4.07269 6.89178,5.92373 13.25478,5.19369 -2.89936,-3.0656 -5.26582,-6.59937 -13.25478,-5.19369 z"
       id="path11118-1-5"
       inkscape:connector-curvature="0"
       sodipodi:nodetypes="ccc" />
    <path
       style="fill:#ffff00;stroke:#000000;stroke-width:1.20073056;stroke-linecap:butt;stroke-linejoin:miter;stroke-miterlimit:4;stroke-opacity:1;stroke-dasharray:none"
       d="m 373.26709,436.35878 c -4.61105,-1.53886 -9.14438,-0.26397 -13.58742,4.27992 4.21703,0.55398 8.32455,1.80283 13.58742,-4.27992 z"
       id="path11118-4-9"
       inkscape:connector-curvature="0"
       sodipodi:nodetypes="ccc" />
    <path
       style="fill:#ffff00;stroke:#000000;stroke-width:1.20073056;stroke-linecap:butt;stroke-linejoin:miter;stroke-miterlimit:4;stroke-opacity:1;stroke-dasharray:none"
       d="m 364.74936,463.90214 c 0.61387,-4.75563 -1.55731,-8.87623 -6.96412,-12.25908 0.28797,4.17941 -0.13746,8.39146 6.96412,12.25908 z"
       id="path11118-6-9"
       inkscape:connector-curvature="0"
       sodipodi:nodetypes="ccc" />
    <path
       style="fill:#ffff00;stroke:#000000;stroke-width:1.20073056;stroke-linecap:butt;stroke-linejoin:miter;stroke-miterlimit:4;stroke-opacity:1;stroke-dasharray:none"
       d="m 343.17691,453.84335 c -4.74672,1.06638 -7.93085,4.48985 -9.29954,10.65177 3.88726,-1.70232 8.05079,-2.75618 9.29954,-10.65177 z"
       id="path11118-0-8"
       inkscape:connector-curvature="0"
       sodipodi:nodetypes="ccc" />
    <path
       style="fill:#ffffff;stroke:#000000;stroke-width:1.20073056;stroke-linecap:butt;stroke-linejoin:miter;stroke-miterlimit:4;stroke-opacity:1;stroke-dasharray:none"
       d="m 350.17872,438.14157 c 0.23635,-7.39943 -1.81054,-16.98051 7.05494,-14.3759 6.1065,1.93267 8.2541,4.48896 10.56353,7.16938 4.74223,4.93594 -7.82552,9.80671 -12.90259,10.88407 -0.12081,-0.81324 -0.79251,-1.53496 -1.26434,-1.79521 l 4.77293,-6.93433 -6.65516,5.946 c -0.38139,-0.39103 -0.77058,-0.77693 -1.56931,-0.89401 z"
       id="path11159-18"
       inkscape:connector-curvature="0"
       sodipodi:nodetypes="cccccccc" />
    <path
       style="fill:#ffffff;stroke:#000000;stroke-width:1.20073056;stroke-linecap:butt;stroke-linejoin:miter;stroke-miterlimit:4;stroke-opacity:1;stroke-dasharray:none"
       d="m 342.53727,442.40579 c -6.88902,-2.96561 -16.68351,-4.65473 -10.93332,-11.79106 4.09141,-4.86395 7.29974,-5.87724 10.68525,-6.99233 6.4162,-2.50084 6.33874,10.79761 5.46797,15.83903 -0.81167,-0.19176 -1.74179,0.15408 -2.1625,0.48869 l -4.76473,-6.93981 3.13342,8.29314 c -0.51042,0.20334 -1.01889,0.41572 -1.42609,1.10234 z"
       id="path11159-7-2"
       inkscape:connector-curvature="0"
       sodipodi:nodetypes="cccccccc" />
    <path
       style="fill:#ffffff;stroke:#000000;stroke-width:1.20073056;stroke-linecap:butt;stroke-linejoin:miter;stroke-miterlimit:4;stroke-opacity:1;stroke-dasharray:none"
       d="m 343.99118,450.92147 c -5.1715,5.37373 -10.10983,13.87172 -14.97535,6.1237 -3.25779,-5.44039 -3.13673,-8.75578 -3.0528,-12.26985 -0.21114,-6.79138 12.4667,-2.20556 16.98725,0.31219 -0.45871,0.68665 -0.44405,1.66548 -0.26723,2.16871 l -8.24701,2.05728 8.98614,-0.0871 c 0.021,0.54173 0.0512,1.08477 0.569,1.69498 z"
       id="path11159-1-6"
       inkscape:connector-curvature="0"
       sodipodi:nodetypes="cccccccc" />
    <path
       style="fill:#ffffff;stroke:#000000;stroke-width:1.20073056;stroke-linecap:butt;stroke-linejoin:miter;stroke-miterlimit:4;stroke-opacity:1;stroke-dasharray:none"
       d="m 352.65132,451.33948 c 4.13166,6.18512 11.40572,12.86055 2.63322,15.75432 -6.12349,1.87982 -9.37393,1.00628 -12.82927,0.12295 -6.7632,-1.34932 0.66765,-12.45433 4.18992,-16.21241 0.57414,0.59661 1.5453,0.80619 2.08326,0.75166 l 0.14984,8.37552 1.96712,-8.63387 c 0.54043,0.10364 1.08428,0.19871 1.80591,-0.15817 z"
       id="path11159-77-6"
       inkscape:connector-curvature="0"
       sodipodi:nodetypes="cccccccc" />
    <path
       style="fill:#ffffff;stroke:#000000;stroke-width:1.20073056;stroke-linecap:butt;stroke-linejoin:miter;stroke-miterlimit:4;stroke-opacity:1;stroke-dasharray:none"
       d="m 356.29196,444.09693 c 7.05426,-2.56146 15.30527,-8.02556 16.18082,1.04305 0.47258,6.29846 -1.12778,9.21791 -2.78423,12.33162 -2.86663,6.18055 -12.16878,-3.46124 -15.08852,-7.69044 0.72022,-0.41548 1.14751,-1.2994 1.21542,-1.82768 l 8.31912,1.75336 -8.09518,-3.84213 c 0.22495,-0.49482 0.44215,-0.99487 0.25257,-1.76778 z"
       id="path11159-773-0"
       inkscape:connector-curvature="0"
       sodipodi:nodetypes="cccccccc" />
    <path
       sodipodi:type="arc"
       style="fill:#0c0c0c;fill-opacity:1;fill-rule:evenodd;stroke:none"
       id="path11200-3"
       sodipodi:cx="4654.1069"
       sodipodi:cy="3705.04"
       sodipodi:rx="49.82143"
       sodipodi:ry="48.92857"
       d="m 4703.9284,3705.04 c 0,27.0225 -22.3059,48.9286 -49.8215,48.9286 -27.5156,0 -49.8214,-21.9061 -49.8214,-48.9286 0,-27.0225 22.3058,-48.9285 49.8214,-48.9285 27.5156,0 49.8215,21.906 49.8215,48.9285 z"
       transform="matrix(0.14939087,0,0,0.14709469,-346.10882,-99.895846)" />
    <path
       sodipodi:type="arc"
       style="fill:#ffff00;fill-opacity:1;fill-rule:evenodd;stroke:none"
       id="path11202-8"
       sodipodi:cx="4656.4287"
       sodipodi:cy="3705.04"
       sodipodi:rx="29.642857"
       sodipodi:ry="30"
       d="m 4686.0716,3705.04 c 0,16.5686 -13.2716,30 -29.6429,30 -16.3713,0 -29.6428,-13.4314 -29.6428,-30 0,-16.5685 13.2715,-30 29.6428,-30 16.3713,0 29.6429,13.4315 29.6429,30 z"
       transform="matrix(0.14939087,0,0,0.14709469,-346.10882,-99.895846)" />
    <path
       style="fill:#ffff00;stroke:#000000;stroke-width:1.20073056;stroke-linecap:butt;stroke-linejoin:miter;stroke-miterlimit:4;stroke-opacity:1;stroke-dasharray:none"
       d="m 275.93671,420.61103 c -2.78898,3.92939 -2.81238,8.57149 0.37727,14.04157 1.71846,-3.83207 4.08395,-7.36645 -0.37727,-14.04157 z"
       id="path11118-3-0"
       inkscape:connector-curvature="0"
       sodipodi:nodetypes="ccc" />
    <path
       style="fill:#ffff00;stroke:#000000;stroke-width:1.20073056;stroke-linecap:butt;stroke-linejoin:miter;stroke-miterlimit:4;stroke-opacity:1;stroke-dasharray:none"
       d="m 251.70751,437.22031 c 2.56821,4.07269 6.89178,5.92373 13.25477,5.19369 -2.89936,-3.0656 -5.26581,-6.59937 -13.25477,-5.19369 z"
       id="path11118-1-5-1"
       inkscape:connector-curvature="0"
       sodipodi:nodetypes="ccc" />
    <path
       style="fill:#ffff00;stroke:#000000;stroke-width:1.20073056;stroke-linecap:butt;stroke-linejoin:miter;stroke-miterlimit:4;stroke-opacity:1;stroke-dasharray:none"
       d="m 300.14209,436.53734 c -4.61105,-1.53886 -9.14438,-0.26397 -13.58742,4.27992 4.21703,0.55398 8.32455,1.80283 13.58742,-4.27992 z"
       id="path11118-4-9-2"
       inkscape:connector-curvature="0"
       sodipodi:nodetypes="ccc" />
    <path
       style="fill:#ffff00;stroke:#000000;stroke-width:1.20073056;stroke-linecap:butt;stroke-linejoin:miter;stroke-miterlimit:4;stroke-opacity:1;stroke-dasharray:none"
       d="m 291.62436,464.0807 c 0.61387,-4.75563 -1.55731,-8.87623 -6.96412,-12.25908 0.28798,4.17941 -0.13746,8.39146 6.96412,12.25908 z"
       id="path11118-6-9-5"
       inkscape:connector-curvature="0"
       sodipodi:nodetypes="ccc" />
    <path
       style="fill:#ffff00;stroke:#000000;stroke-width:1.20073056;stroke-linecap:butt;stroke-linejoin:miter;stroke-miterlimit:4;stroke-opacity:1;stroke-dasharray:none"
       d="m 270.05191,454.02191 c -4.74672,1.06638 -7.93085,4.48985 -9.29953,10.65177 3.88725,-1.70232 8.05078,-2.75618 9.29953,-10.65177 z"
       id="path11118-0-8-0"
       inkscape:connector-curvature="0"
       sodipodi:nodetypes="ccc" />
    <path
       style="fill:#ffffff;stroke:#000000;stroke-width:1.20073056;stroke-linecap:butt;stroke-linejoin:miter;stroke-miterlimit:4;stroke-opacity:1;stroke-dasharray:none"
       d="m 277.05372,438.32013 c 0.23635,-7.39943 -1.81054,-16.9805 7.05494,-14.37589 6.1065,1.93267 8.2541,4.48896 10.56353,7.16937 4.74223,4.93594 -7.82551,9.80671 -12.90259,10.88407 -0.12081,-0.81324 -0.79251,-1.53496 -1.26434,-1.79521 l 4.77293,-6.93433 -6.65516,5.946 c -0.38139,-0.39103 -0.77058,-0.77693 -1.56931,-0.89401 z"
       id="path11159-18-9"
       inkscape:connector-curvature="0"
       sodipodi:nodetypes="cccccccc" />
    <path
       style="fill:#ffffff;stroke:#000000;stroke-width:1.20073056;stroke-linecap:butt;stroke-linejoin:miter;stroke-miterlimit:4;stroke-opacity:1;stroke-dasharray:none"
       d="m 269.41227,442.58435 c -6.88902,-2.96561 -16.6835,-4.65473 -10.93331,-11.79106 4.0914,-4.86394 7.29973,-5.87723 10.68524,-6.99232 6.4162,-2.50084 6.33874,10.7976 5.46797,15.83902 -0.81167,-0.19176 -1.74179,0.15408 -2.1625,0.48869 l -4.76473,-6.93981 3.13342,8.29314 c -0.51042,0.20334 -1.01889,0.41572 -1.42609,1.10234 z"
       id="path11159-7-2-4"
       inkscape:connector-curvature="0"
       sodipodi:nodetypes="cccccccc" />
    <path
       style="fill:#ffffff;stroke:#000000;stroke-width:1.20073056;stroke-linecap:butt;stroke-linejoin:miter;stroke-miterlimit:4;stroke-opacity:1;stroke-dasharray:none"
       d="m 270.86618,451.10003 c -5.1715,5.37373 -10.10982,13.87172 -14.97534,6.1237 -3.25779,-5.44039 -3.13673,-8.75578 -3.0528,-12.26985 -0.21114,-6.79138 12.46669,-2.20556 16.98724,0.31219 -0.45871,0.68665 -0.44405,1.66548 -0.26723,2.16871 l -8.24701,2.05728 8.98614,-0.0871 c 0.021,0.54173 0.0512,1.08477 0.569,1.69498 z"
       id="path11159-1-6-7"
       inkscape:connector-curvature="0"
       sodipodi:nodetypes="cccccccc" />
    <path
       style="fill:#ffffff;stroke:#000000;stroke-width:1.20073056;stroke-linecap:butt;stroke-linejoin:miter;stroke-miterlimit:4;stroke-opacity:1;stroke-dasharray:none"
       d="m 279.52632,451.51804 c 4.13166,6.18512 11.40572,12.86055 2.63322,15.75432 -6.12349,1.87982 -9.37393,1.00628 -12.82927,0.12295 -6.7632,-1.34932 0.66765,-12.45433 4.18992,-16.21241 0.57414,0.59661 1.5453,0.80619 2.08326,0.75166 l 0.14984,8.37552 1.96712,-8.63387 c 0.54043,0.10364 1.08428,0.19871 1.80591,-0.15817 z"
       id="path11159-77-6-8"
       inkscape:connector-curvature="0"
       sodipodi:nodetypes="cccccccc" />
    <path
       style="fill:#ffffff;stroke:#000000;stroke-width:1.20073056;stroke-linecap:butt;stroke-linejoin:miter;stroke-miterlimit:4;stroke-opacity:1;stroke-dasharray:none"
       d="m 283.16696,444.27549 c 7.05426,-2.56146 15.30527,-8.02556 16.18082,1.04305 0.47258,6.29846 -1.12778,9.21791 -2.78423,12.33162 -2.86663,6.18055 -12.16878,-3.46124 -15.08852,-7.69044 0.72022,-0.41548 1.14751,-1.2994 1.21542,-1.82768 l 8.31912,1.75336 -8.09518,-3.84213 c 0.22495,-0.49482 0.44215,-0.99487 0.25257,-1.76778 z"
       id="path11159-773-0-3"
       inkscape:connector-curvature="0"
       sodipodi:nodetypes="cccccccc" />
    <path
       sodipodi:type="arc"
       style="fill:#0c0c0c;fill-opacity:1;fill-rule:evenodd;stroke:none"
       id="path11200-3-5"
       sodipodi:cx="4654.1069"
       sodipodi:cy="3705.04"
       sodipodi:rx="49.82143"
       sodipodi:ry="48.92857"
       d="m 4703.9284,3705.04 c 0,27.0225 -22.3059,48.9286 -49.8215,48.9286 -27.5156,0 -49.8214,-21.9061 -49.8214,-48.9286 0,-27.0225 22.3058,-48.9285 49.8214,-48.9285 27.5156,0 49.8215,21.906 49.8215,48.9285 z"
       transform="matrix(0.14939087,0,0,0.14709469,-419.23381,-99.717276)" />
    <path
       sodipodi:type="arc"
       style="fill:#ffff00;fill-opacity:1;fill-rule:evenodd;stroke:none"
       id="path11202-8-1"
       sodipodi:cx="4656.4287"
       sodipodi:cy="3705.04"
       sodipodi:rx="29.642857"
       sodipodi:ry="30"
       d="m 4686.0716,3705.04 c 0,16.5686 -13.2716,30 -29.6429,30 -16.3713,0 -29.6428,-13.4314 -29.6428,-30 0,-16.5685 13.2715,-30 29.6428,-30 16.3713,0 29.6429,13.4315 29.6429,30 z"
       transform="matrix(0.14939087,0,0,0.14709469,-419.23381,-99.717276)" />
    <path
       style="fill:#ffff00;stroke:#000000;stroke-width:1.20073056;stroke-linecap:butt;stroke-linejoin:miter;stroke-miterlimit:4;stroke-opacity:1;stroke-dasharray:none"
       d="m 422.54385,420.25388 c -2.78898,3.92939 -2.81238,8.57149 0.37727,14.04157 1.71846,-3.83207 4.08395,-7.36645 -0.37727,-14.04157 z"
       id="path11118-3-2"
       inkscape:connector-curvature="0"
       sodipodi:nodetypes="ccc" />
    <path
       style="fill:#ffff00;stroke:#000000;stroke-width:1.20073056;stroke-linecap:butt;stroke-linejoin:miter;stroke-miterlimit:4;stroke-opacity:1;stroke-dasharray:none"
       d="m 398.31465,436.86316 c 2.56821,4.07269 6.89178,5.92373 13.25477,5.19369 -2.89936,-3.0656 -5.26581,-6.59937 -13.25477,-5.19369 z"
       id="path11118-1-5-0"
       inkscape:connector-curvature="0"
       sodipodi:nodetypes="ccc" />
    <path
       style="fill:#ffff00;stroke:#000000;stroke-width:1.20073056;stroke-linecap:butt;stroke-linejoin:miter;stroke-miterlimit:4;stroke-opacity:1;stroke-dasharray:none"
       d="m 446.74923,436.18019 c -4.61105,-1.53886 -9.14438,-0.26397 -13.58742,4.27992 4.21703,0.55398 8.32455,1.80283 13.58742,-4.27992 z"
       id="path11118-4-9-1"
       inkscape:connector-curvature="0"
       sodipodi:nodetypes="ccc" />
    <path
       style="fill:#ffff00;stroke:#000000;stroke-width:1.20073056;stroke-linecap:butt;stroke-linejoin:miter;stroke-miterlimit:4;stroke-opacity:1;stroke-dasharray:none"
       d="m 438.2315,463.72355 c 0.61387,-4.75563 -1.55731,-8.87623 -6.96412,-12.25908 0.28798,4.17941 -0.13746,8.39146 6.96412,12.25908 z"
       id="path11118-6-9-6"
       inkscape:connector-curvature="0"
       sodipodi:nodetypes="ccc" />
    <path
       style="fill:#ffff00;stroke:#000000;stroke-width:1.20073056;stroke-linecap:butt;stroke-linejoin:miter;stroke-miterlimit:4;stroke-opacity:1;stroke-dasharray:none"
       d="m 416.65905,453.66476 c -4.74672,1.06638 -7.93085,4.48985 -9.29953,10.65177 3.88725,-1.70232 8.05078,-2.75618 9.29953,-10.65177 z"
       id="path11118-0-8-4"
       inkscape:connector-curvature="0"
       sodipodi:nodetypes="ccc" />
    <path
       style="fill:#ffffff;stroke:#000000;stroke-width:1.20073056;stroke-linecap:butt;stroke-linejoin:miter;stroke-miterlimit:4;stroke-opacity:1;stroke-dasharray:none"
       d="m 423.66086,437.96298 c 0.23635,-7.39943 -1.81054,-16.9805 7.05494,-14.37589 6.1065,1.93267 8.2541,4.48896 10.56353,7.16937 4.74223,4.93594 -7.82551,9.80671 -12.90259,10.88407 -0.12081,-0.81324 -0.79251,-1.53496 -1.26434,-1.79521 l 4.77293,-6.93433 -6.65516,5.946 c -0.38139,-0.39103 -0.77058,-0.77693 -1.56931,-0.89401 z"
       id="path11159-18-0"
       inkscape:connector-curvature="0"
       sodipodi:nodetypes="cccccccc" />
    <path
       style="fill:#ffffff;stroke:#000000;stroke-width:1.20073056;stroke-linecap:butt;stroke-linejoin:miter;stroke-miterlimit:4;stroke-opacity:1;stroke-dasharray:none"
       d="m 416.01941,442.2272 c -6.88902,-2.96561 -16.6835,-4.65473 -10.93331,-11.79106 4.0914,-4.86394 7.29973,-5.87723 10.68524,-6.99232 6.4162,-2.50084 6.33874,10.7976 5.46797,15.83902 -0.81167,-0.19176 -1.74179,0.15408 -2.1625,0.48869 l -4.76473,-6.93981 3.13342,8.29314 c -0.51042,0.20334 -1.01889,0.41572 -1.42609,1.10234 z"
       id="path11159-7-2-6"
       inkscape:connector-curvature="0"
       sodipodi:nodetypes="cccccccc" />
    <path
       style="fill:#ffffff;stroke:#000000;stroke-width:1.20073056;stroke-linecap:butt;stroke-linejoin:miter;stroke-miterlimit:4;stroke-opacity:1;stroke-dasharray:none"
       d="m 417.47332,450.74288 c -5.1715,5.37373 -10.10982,13.87172 -14.97534,6.1237 -3.25779,-5.44039 -3.13673,-8.75578 -3.0528,-12.26985 -0.21114,-6.79138 12.46669,-2.20556 16.98724,0.31219 -0.45871,0.68665 -0.44405,1.66548 -0.26723,2.16871 l -8.24701,2.05728 8.98614,-0.0871 c 0.021,0.54173 0.0512,1.08477 0.569,1.69498 z"
       id="path11159-1-6-1"
       inkscape:connector-curvature="0"
       sodipodi:nodetypes="cccccccc" />
    <path
       style="fill:#ffffff;stroke:#000000;stroke-width:1.20073056;stroke-linecap:butt;stroke-linejoin:miter;stroke-miterlimit:4;stroke-opacity:1;stroke-dasharray:none"
       d="m 426.13346,451.16089 c 4.13166,6.18512 11.40572,12.86055 2.63322,15.75432 -6.12349,1.87982 -9.37393,1.00628 -12.82927,0.12295 -6.7632,-1.34932 0.66765,-12.45433 4.18992,-16.21241 0.57414,0.59661 1.5453,0.80619 2.08326,0.75166 l 0.14984,8.37552 1.96712,-8.63387 c 0.54043,0.10364 1.08428,0.19871 1.80591,-0.15817 z"
       id="path11159-77-6-89"
       inkscape:connector-curvature="0"
       sodipodi:nodetypes="cccccccc" />
    <path
       style="fill:#ffffff;stroke:#000000;stroke-width:1.20073056;stroke-linecap:butt;stroke-linejoin:miter;stroke-miterlimit:4;stroke-opacity:1;stroke-dasharray:none"
       d="m 429.7741,443.91834 c 7.05426,-2.56146 15.30527,-8.02556 16.18082,1.04305 0.47258,6.29846 -1.12778,9.21791 -2.78423,12.33162 -2.86663,6.18055 -12.16878,-3.46124 -15.08852,-7.69044 0.72022,-0.41548 1.14751,-1.2994 1.21542,-1.82768 l 8.31912,1.75336 -8.09518,-3.84213 c 0.22495,-0.49482 0.44215,-0.99487 0.25257,-1.76778 z"
       id="path11159-773-0-8"
       inkscape:connector-curvature="0"
       sodipodi:nodetypes="cccccccc" />
    <path
       sodipodi:type="arc"
       style="fill:#0c0c0c;fill-opacity:1;fill-rule:evenodd;stroke:none"
       id="path11200-3-4"
       sodipodi:cx="4654.1069"
       sodipodi:cy="3705.04"
       sodipodi:rx="49.82143"
       sodipodi:ry="48.92857"
       d="m 4703.9284,3705.04 c 0,27.0225 -22.3059,48.9286 -49.8215,48.9286 -27.5156,0 -49.8214,-21.9061 -49.8214,-48.9286 0,-27.0225 22.3058,-48.9285 49.8214,-48.9285 27.5156,0 49.8215,21.906 49.8215,48.9285 z"
       transform="matrix(0.14939087,0,0,0.14709469,-272.62667,-100.07443)" />
    <path
       sodipodi:type="arc"
       style="fill:#ffff00;fill-opacity:1;fill-rule:evenodd;stroke:none"
       id="path11202-8-14"
       sodipodi:cx="4656.4287"
       sodipodi:cy="3705.04"
       sodipodi:rx="29.642857"
       sodipodi:ry="30"
       d="m 4686.0716,3705.04 c 0,16.5686 -13.2716,30 -29.6429,30 -16.3713,0 -29.6428,-13.4314 -29.6428,-30 0,-16.5685 13.2715,-30 29.6428,-30 16.3713,0 29.6429,13.4315 29.6429,30 z"
       transform="matrix(0.14939087,0,0,0.14709469,-272.62667,-100.07443)" />
  </g>
</svg>
