<?xml version="1.0" encoding="UTF-8" standalone="no"?>
<!-- Created with Inkscape (http://www.inkscape.org/) -->

<svg
   xmlns:dc="http://purl.org/dc/elements/1.1/"
   xmlns:cc="http://creativecommons.org/ns#"
   xmlns:rdf="http://www.w3.org/1999/02/22-rdf-syntax-ns#"
   xmlns:svg="http://www.w3.org/2000/svg"
   xmlns="http://www.w3.org/2000/svg"
   xmlns:sodipodi="http://sodipodi.sourceforge.net/DTD/sodipodi-0.dtd"
   xmlns:inkscape="http://www.inkscape.org/namespaces/inkscape"
   width="322.58115"
   height="215.9201"
   id="svg4115"
   version="1.1"
   inkscape:version="0.48.4 r9939"
   sodipodi:docname="Nieuw document 11">
  <defs
     id="defs4117" />
  <sodipodi:namedview
     id="base"
     pagecolor="#ffffff"
     bordercolor="#666666"
     borderopacity="1.0"
     inkscape:pageopacity="0.0"
     inkscape:pageshadow="2"
     inkscape:zoom="1.979899"
     inkscape:cx="251.68208"
     inkscape:cy="72.470181"
     inkscape:document-units="px"
     inkscape:current-layer="layer1"
     showgrid="false"
     fit-margin-top="0"
     fit-margin-left="0"
     fit-margin-right="0"
     fit-margin-bottom="0"
     inkscape:window-width="1600"
     inkscape:window-height="837"
     inkscape:window-x="-8"
     inkscape:window-y="-8"
     inkscape:window-maximized="1" />
  <metadata
     id="metadata4120">
    <rdf:RDF>
      <cc:Work
         rdf:about="">
        <dc:format>image/svg+xml</dc:format>
        <dc:type
           rdf:resource="http://purl.org/dc/dcmitype/StillImage" />
        <dc:title></dc:title>
      </cc:Work>
    </rdf:RDF>
  </metadata>
  <g
     inkscape:label="Laag 1"
     inkscape:groupmode="layer"
     id="layer1"
     transform="translate(-67.280853,-218.68785)">
    <rect
       style="fill:#ffff00;fill-opacity:1;stroke:none"
       id="rect3017"
       width="322.58115"
       height="215.9201"
       x="67.280853"
       y="218.68785" />
    <rect
       style="fill:#0033ff;fill-opacity:1;stroke:none"
       id="rect3787"
       width="322.58115"
       height="14.14285"
       x="67.280853"
       y="294.27679" />
    <rect
       style="fill:#000000;fill-opacity:1;stroke:none"
       id="rect3789"
       width="322.58115"
       height="13.82142"
       x="67.280853"
       y="319.02679" />
    <rect
       style="fill:#0033ff;fill-opacity:1;stroke:none"
       id="rect3791"
       width="322.58115"
       height="15.107143"
       x="67.280853"
       y="342.81253" />
    <path
       style="fill:#000000"
       d="m 234.35797,392.67188 0,-11.68124 6.63708,0.0277 c 7.02177,0.0293 7.43527,0.0456 9.4876,0.37274 5.08862,0.81115 8.4256,2.94954 9.87728,6.32953 0.67051,1.56116 0.88878,2.93586 0.81069,5.10598 -0.0749,2.0819 -0.38205,3.28589 -1.22223,4.79118 -1.97038,3.5302 -6.05538,5.84881 -11.52554,6.54182 -1.01601,0.12872 -1.50956,0.13951 -7.57584,0.1656 l -6.48904,0.0279 0,-11.68125 z m 12.25164,7.28126 c 3.55852,-0.45077 6.14562,-2.27136 7.04421,-4.95715 0.78539,-2.34742 0.41231,-4.97985 -0.94452,-6.66441 -1.34588,-1.67095 -3.39613,-2.63618 -6.26149,-2.9478 -0.58923,-0.0641 -1.62743,-0.0967 -3.08415,-0.0969 l -2.1959,-2.6e-4 0,7.3855 0,7.38551 2.30837,0 c 1.69406,0 2.52795,-0.0278 3.13348,-0.10452 z m 16.47031,4.37426 c 10e-4,-0.009 2.47904,-5.25393 5.50601,-11.65525 l 5.5036,-11.63876 4.06714,-0.0172 c 2.23694,-0.009 4.06716,-0.002 4.06716,0.0177 0,0.0302 10.59234,23.00673 10.7081,23.22764 0.0341,0.065 -0.74384,0.0823 -3.67936,0.0819 l -3.72255,-4.6e-4 -0.68267,-1.66456 c -0.37547,-0.91551 -0.85915,-2.08741 -1.07483,-2.60423 l -0.39217,-0.93968 -5.38961,0 -5.38962,0 -0.97906,2.3904 c -0.53849,1.31472 -1.01796,2.48684 -1.0655,2.60471 l -0.0864,0.21431 -3.69633,0 c -2.03298,0 -3.69523,-0.007 -3.6939,-0.0165 z m 18.63226,-9.46268 c -0.0555,-0.136 -0.80858,-1.95353 -1.67345,-4.03894 -1.42202,-3.42891 -1.95999,-4.93293 -1.95999,-5.47974 0,-0.33925 -0.18107,-0.2032 -0.25009,0.18789 -0.14185,0.80388 -0.37263,1.42116 -1.91688,5.12699 -0.87657,2.10355 -1.65563,3.96559 -1.73127,4.13786 l -0.13751,0.31323 3.88508,0 3.88508,0 -0.10095,-0.24729 z m 15.01944,-2.19257 0,-11.67173 3.40489,0 3.4049,0 0,9.52862 0,9.52861 5.62546,0 5.62548,0 0,2.14312 0,2.14311 -9.03037,0 -9.03036,0 0,-11.67173 z m 22.20581,0 0,-11.67173 8.73429,0 8.73428,0 0,2.14311 0,2.14312 -5.32939,0 -5.3294,0 0,2.60471 0,2.60471 4.93463,0 4.93462,0 0,2.11014 0,2.11014 -4.93462,0 -4.93463,0 0,2.67065 0,2.67065 5.67482,0 5.67482,0 0,2.14312 0,2.14311 -9.0797,0 -9.07972,0 0,-11.67173 z m 23.09404,-8e-4 0,-11.67254 3.67376,0.0173 3.67376,0.0173 6.3682,7.53115 c 3.50251,4.14213 6.54584,7.75327 6.76297,8.02476 l 0.39477,0.49362 -0.029,-8.04125 -0.029,-8.04125 3.21189,0 3.2119,0 0,11.67173 0,11.67173 -3.44313,0 -3.44313,0 -6.61149,-7.76467 c -3.63631,-4.27056 -6.79734,-8.01255 -7.0245,-8.31551 -0.22717,-0.30296 -0.42495,-0.54036 -0.43951,-0.52754 -0.0146,0.0128 0.006,0.40907 0.047,0.88056 0.0404,0.47148 0.0774,4.20298 0.082,8.2922 l 0.008,7.43496 -3.20751,0 -3.2075,0 0,-11.67253 z"
       id="path3799"
       inkscape:connector-curvature="0" />
    <path
       style="fill:#ff0033;fill-opacity:1;stroke:#000000;stroke-opacity:1"
       d="m 149.99184,401.148 c -2e-5,-0.10588 -0.0438,-0.16065 -0.0972,-0.1217 -0.0534,0.0389 -0.87515,-1.41846 -1.82595,-3.23865 -0.95082,-1.82021 -1.79159,-3.33488 -1.8684,-3.36593 -1.7039,-0.68897 -2.4596,-1.26108 -2.91371,-2.20579 -0.70903,-1.4751 -0.0172,-3.83493 1.98135,-6.75794 0.90895,-1.32942 1.648,-3.39634 1.98865,-5.56175 0.26162,-1.66293 0.14497,-4.06575 -0.25801,-5.31469 -0.12852,-0.39833 -0.13395,-0.39319 -1.11244,1.05131 -1.3093,1.93289 -2.98053,3.78304 -4.47904,4.95858 -3.03662,2.38212 -6.16853,3.50841 -11.69534,4.20585 -3.22163,0.40655 -3.33994,0.4177 -3.22447,0.30408 0.0574,-0.0565 1.92213,-1.12169 4.14373,-2.36703 2.97363,-1.66689 3.97785,-2.29219 3.80642,-2.37018 -0.12808,-0.0583 -0.5034,-0.22059 -0.83404,-0.36071 -1.155,-0.48948 -1.62873,-1.40943 -1.14493,-2.22335 0.38291,-0.64418 1.90338,-1.45321 3.80532,-2.02479 2.00219,-0.6017 4.76244,-1.98039 6.09116,-3.04239 0.89249,-0.71335 2.27786,-2.44747 2.80392,-3.50979 0.97169,-1.96222 1.5091,-4.79008 1.43839,-7.5689 l -0.0374,-1.47061 -0.39586,1.13634 c -0.81832,2.34895 -2.33912,4.59594 -4.47136,6.60646 -0.80335,0.75748 -4.98983,4.10648 -5.65164,4.52105 -0.15687,0.0983 -1.63272,0.73415 -3.27968,1.41308 -6.41703,2.64532 -8.76097,4.01665 -10.49064,6.13761 -0.3174,0.38918 -0.70973,1.03686 -0.87187,1.43929 -0.16214,0.40243 -0.33676,0.73169 -0.38804,0.73169 -0.17237,0 -0.69089,-1.38925 -0.84358,-2.26021 -0.47071,-2.68472 1.08415,-5.10757 4.87389,-7.59472 l 0.92667,-0.60817 -0.78765,0.0928 c -3.5626,0.41956 -6.18353,2.57686 -6.95353,5.72348 -0.27847,1.13807 -0.20154,3.05599 0.17141,4.27345 0.70999,2.3176 2.64457,4.4854 4.6009,5.15556 0.36303,0.12436 0.66007,0.26719 0.66007,0.31739 0,0.1708 -2.80422,-0.0744 -3.73923,-0.32689 -5.57787,-1.50654 -7.93085,-7.208 -5.2154,-12.63732 1.9785,-3.95587 6.82382,-6.6986 12.49442,-7.07256 3.52584,-0.23252 6.95008,-1.26099 9.25461,-2.77962 2.88898,-1.90377 5.27813,-5.06444 7.17464,-9.4915 0.2054,-0.47948 0.37347,-0.90994 0.37347,-0.95657 0,-0.0466 -0.2584,0.1247 -0.57421,0.38074 -0.73056,0.59229 -3.11062,1.91761 -4.16823,2.32106 -1.80292,0.68776 -4.81943,1.34523 -6.17196,1.34523 l -0.68239,0 -0.19205,-0.76199 c -0.41461,-1.64522 -0.15159,-2.98328 0.78124,-3.97434 0.95163,-1.01102 2.5082,-1.7203 5.43071,-2.47461 2.01785,-0.52081 2.68764,-0.81892 3.85003,-1.71356 2.31946,-1.78519 3.30141,-4.7786 2.96199,-9.02938 -0.10319,-1.29202 -0.18474,-1.65186 -0.57053,-2.51696 -0.69947,-1.56851 -1.48011,-2.04992 -2.28702,-1.41035 -0.41545,0.32929 -1.11407,1.58099 -1.12029,2.00721 -0.005,0.33945 -2.67662,8.40328 -2.78413,8.40328 -0.0556,0 -0.65743,-0.49633 -1.3372,-1.10296 -0.67978,-0.60662 -1.29402,-1.10295 -1.36497,-1.10295 -0.0709,0 -3.19816,3.22549 -6.94934,7.16775 l -6.82034,7.16774 1.48329,0.41847 1.4833,0.41846 0.936,-0.26996 c 0.5148,-0.14848 1.37613,-0.26996 1.91406,-0.26996 0.92778,0 0.99429,0.0223 1.29397,0.43284 0.28882,0.39573 0.30912,0.511 0.23666,1.34433 l -0.0792,0.91149 0.44501,0.30939 c 0.84812,0.58965 0.94569,1.56515 0.27321,2.73131 l -0.30794,0.53401 0.0129,-0.57811 c 0.0253,-1.13635 -0.50217,-1.70511 -1.7709,-1.90957 -0.54549,-0.0879 -0.83081,-0.0692 -1.04131,0.0684 -0.15949,0.10421 -0.56244,0.29868 -0.89546,0.43216 -0.75913,0.30426 -1.09606,0.15285 -1.44295,-0.64841 l -0.24903,-0.57516 -1.84647,-0.33058 c -1.01556,-0.18182 -2.08527,-0.38036 -2.3771,-0.44121 l -0.53062,-0.11062 -2.9014,2.70468 -2.9014,2.70468 -0.0686,0.99642 c -0.0447,0.65043 -0.15309,1.13435 -0.312,1.39364 -0.30218,0.49308 -1.30763,1.09208 -2.05304,1.22309 -1.67809,0.29494 -2.24519,1.30682 -1.75941,3.1393 0.13845,0.52227 0.23532,0.96892 0.21525,0.99255 -0.1114,0.13129 -1.10417,-1.72501 -1.28593,-2.40451 -0.18266,-0.68284 -0.19252,-0.92312 -0.0668,-1.62919 0.0811,-0.45552 0.2794,-1.06465 0.44071,-1.35363 0.291,-0.52134 0.29152,-0.52999 0.0676,-1.11367 -0.1241,-0.32353 -0.22712,-0.86691 -0.22892,-1.20751 -0.005,-1.00858 0.47122,-1.34318 2.3633,-1.65938 0.90359,-0.15101 0.99451,-0.20711 3.63923,-2.24518 1.49186,-1.14967 2.6887,-2.11832 2.65964,-2.15257 -0.0838,-0.0987 -5.21589,-0.44043 -6.73785,-0.44861 l -1.37964,-0.007 -0.80438,0.67342 c -0.87664,0.73393 -2.15209,1.53396 -2.90292,1.82086 -0.69062,0.2639 -1.30614,0.0875 -1.56201,-0.44762 -0.38394,-0.80297 -2.49085,-1.31322 -3.24662,-0.78627 -0.1822,0.12703 -0.51954,0.56666 -0.749652,0.97696 -0.48728,0.86882 -0.63748,0.77171 -0.64051,-0.41411 -0.004,-1.47026 0.887052,-2.32147 2.618912,-2.50256 0.8781,-0.0918 0.97113,-0.13617 1.50392,-0.71715 0.31235,-0.34061 0.90204,-0.77371 1.31041,-0.96245 1.10376,-0.51013 3.56108,-0.48997 6.04651,0.0496 1.69022,0.36694 6.16375,0.83057 6.31333,0.65431 0.0369,-0.0435 -0.28768,-0.8305 -0.72136,-1.74885 l -0.78852,-1.66972 -1.56323,0.0511 c -1.63698,0.0535 -2.49485,-0.10643 -2.91109,-0.54272 -0.19417,-0.20353 -0.22044,-0.38029 -0.15937,-1.07287 l 0.0731,-0.82919 -0.65183,-0.33465 c -1.24101,-0.63713 -2.25871,-0.51748 -3.30385,0.38844 -0.15445,0.13387 -0.28081,0.18211 -0.28081,0.10719 0,-0.34866 0.78937,-1.54479 1.26342,-1.91446 0.46154,-0.3599 0.64688,-0.4117 1.47309,-0.41166 0.65334,4e-5 1.21985,0.10614 1.83508,0.34371 0.85852,0.33152 0.90462,0.33473 1.30477,0.0909 0.22814,-0.13902 0.7543,-0.28043 1.16924,-0.31424 0.62268,-0.0507 0.83972,-0.002 1.24272,0.2767 0.63775,0.44173 1.32,1.6311 1.89269,3.29951 l 0.46121,1.34364 1.43841,0.98017 c 1.16058,0.79086 1.4669,0.94319 1.58593,0.78873 0.0812,-0.1053 2.90661,-3.67799 6.27879,-7.93932 l 6.13128,-7.74788 -0.43648,-0.31787 c -0.45195,-0.32915 -0.80482,-0.95602 -0.80482,-1.42978 0,-0.71432 0.69317,-1.86496 2.04366,-3.39242 3.24059,-3.66523 3.82197,-4.39279 3.82197,-4.78293 0,-0.20785 -0.30888,-5.98446 -0.6864,-12.83691 -0.37752,-6.85246 -0.69085,-12.56303 -0.69626,-12.69017 -0.0249,-0.58434 -0.14056,0.42578 -0.61335,5.35714 -1.2357,12.88896 -2.06196,17.29845 -3.63762,19.41311 -0.39583,0.53124 -1.07303,1.04215 -1.19336,0.90035 -0.10828,-0.12759 -0.38821,-1.83834 -1.23036,-7.51921 -1.15613,-7.79889 -1.62908,-10.47954 -2.25733,-12.79425 -0.38503,-1.41865 -1.0386,-3.1618 -1.18545,-3.1618 -0.0584,0 -0.10704,0.67832 -0.10791,1.50737 -0.001,0.82905 -0.0844,2.65387 -0.18573,4.05514 -0.78958,10.92399 -3.0472,19.1183 -7.00513,25.42603 -1.63738,2.60946 -3.74758,4.98475 -6.03642,6.7947 -1.1441,0.90471 -2.73729,1.98187 -2.80806,1.8985 -0.024,-0.0282 0.20403,-1.07657 0.50666,-2.32961 2.26847,-9.39247 3.82845,-20.91672 4.28978,-31.6903 0.19709,-4.603 0.21828,-15.54134 0.0297,-15.28692 -0.34614,0.46675 -1.93423,5.35369 -4.51377,13.88984 -3.02685,10.01645 -4.03655,12.99201 -5.66386,16.69135 -1.97592,4.49179 -3.54819,7.13001 -5.872032,9.85304 -1.82505,2.13855 -3.22931,3.33166 -5.37485,4.56667 -1.239911,0.71372 -3.337921,1.68339 -3.642241,1.68339 -0.0165,0 0.4891,-1.24082 1.1235,-2.75738 3.951271,-9.44587 6.548311,-17.71368 11.629313,-37.02243 1.27704,-4.85299 2.68617,-10.13905 3.13138,-11.74681 0.44523,-1.60775 0.79239,-2.94336 0.77145,-2.96803 -0.0209,-0.0247 -0.54261,0.69189 -1.15931,1.59235 -6.629292,9.67986 -11.722902,14.69593 -17.782113,17.51143 -1.49445,0.69441 -4.23989,1.62047 -4.5654,1.53993 -0.12839,-0.0318 3.04942,-5.59788 10.051261,-17.60534 5.63147,-9.65738 10.239012,-17.58599 10.239012,-17.61914 0,-0.0713 0.13646,-0.16621 -2.08842,1.45244 -5.351852,3.89362 -8.090472,5.40222 -11.202843,6.17121 -1.48424,0.36673 -6.08073,0.1436 -6.04522,-0.29344 0.004,-0.0515 3.61248,-3.52228 8.01844,-7.71284 9.477773,-9.01443 8.619263,-8.1885 8.558923,-8.23396 -0.0269,-0.0202 -0.975542,0.005 -2.108102,0.0565 -6.152851,0.27884 -10.117001,-0.81852 -13.325751,-3.68883 -0.58772,-0.52575 -1.08846,-1.02667 -1.11274,-1.11317 -0.0267,-0.0951 3.72871,-1.31062 9.505521,-3.07655 5.25232,-1.6056 9.527772,-2.9451 9.500992,-2.97666 -0.0268,-0.0316 -0.64667,-0.15557 -1.37752,-0.2756 -4.191262,-0.6883 -8.038952,-3.07076 -10.816613,-6.69757 -1.023,-1.33572 -2.03897,-2.90314 -1.94985,-3.00816 0.0307,-0.0362 0.61138,0.098 1.29031,0.29819 4.097691,1.20847 8.234121,1.4998 17.770503,1.25156 l 6.55203,-0.17055 1.18561,0.39405 c 3.92737,1.3053 6.32302,3.97193 6.76285,7.52777 0.49695,4.01774 -1.86084,8.14276 -6.05056,10.58566 l -0.93002,0.54226 0.0514,0.96971 c 0.0846,1.59564 0.29626,3.25706 0.55941,4.39305 1.73088,7.47207 7.54079,12.94432 17.53169,16.51277 2.70451,0.96597 2.76944,0.95476 4.51167,-0.77868 0.67225,-0.66885 2.3022,-2.23528 3.62212,-3.48095 1.31991,-1.24567 2.38273,-2.28503 2.36181,-2.30968 -0.021,-0.0247 -0.28857,0.0673 -0.59477,0.20442 -0.4416,0.19771 -0.95678,0.24681 -2.49114,0.23744 -1.06394,-0.007 -2.15636,-0.0743 -2.42763,-0.15059 l -0.49321,-0.13877 1.02935,-0.32465 c 2.0497,-0.64644 3.72742,-1.90859 4.53832,-3.41416 0.19574,-0.36343 0.46883,-1.10766 0.60687,-1.65384 0.48707,-1.9272 1.87071,-3.71275 4.53761,-5.85568 0.64669,-0.51963 1.15572,-0.96842 1.1312,-0.99732 -0.097,-0.1143 -3.65886,0.91055 -4.84963,1.39538 -1.33057,0.54175 -2.69577,1.34149 -3.16808,1.85587 -0.45852,0.49936 -0.32619,0.16198 0.48154,-1.22767 0.93244,-1.60422 1.86225,-2.62926 2.92937,-3.22939 0.92205,-0.51855 2.72749,-1.08961 3.92113,-1.24026 1.05804,-0.13354 3.84952,-1.18839 4.65999,-1.76093 0.56007,-0.39565 1.20564,-1.2335 1.20564,-1.56474 0,-0.064 -0.26676,-0.15939 -0.5928,-0.21206 -2.14998,-0.34728 -4.72353,-1.21759 -7.58372,-2.56461 -1.87553,-0.88329 -2.18685,-1.07524 -1.55794,-0.96056 0.24025,0.0438 1.34023,0.1363 2.4444,0.20556 3.02442,0.18969 4.93202,-0.0855 6.63485,-0.95704 0.63362,-0.32431 0.65521,-0.35472 0.65521,-0.92301 0,-0.32321 -0.0573,-0.62941 -0.1274,-0.68044 -0.23415,-0.17052 -4.16367,-0.65847 -5.30143,-0.65831 -2.4369,3.6e-4 -5.01814,0.71077 -7.16009,1.97062 -4.99036,2.93521 -8.00806,2.98785 -10.87988,0.1898 -1.1006,-1.07231 -2.42812,-3.04435 -2.04938,-3.04435 0.0362,0 0.40287,0.2004 0.81464,0.44534 0.41177,0.24494 1.26661,0.65659 1.89965,0.91478 1.07873,0.43998 1.26065,0.46964 2.89818,0.47259 1.98921,0.004 2.31102,-0.0901 4.36068,-1.26993 2.26014,-1.30094 3.99122,-1.7233 7.55941,-1.8444 2.33501,-0.0792 4.00244,0.031 6.40002,0.42302 0.53506,0.0875 1.00521,0.12092 1.04478,0.0743 0.13405,-0.15796 -0.57539,-1.38935 -1.13464,-1.96942 -0.3059,-0.31729 -0.77663,-0.65472 -1.04605,-0.74984 -1.10857,-0.39138 -2.71019,-0.0691 -3.96571,0.79788 l -0.51911,0.35848 -0.57282,-0.28933 c -3.80849,-1.92369 -6.62651,-1.32892 -7.91335,1.67016 l -0.2479,0.57777 -0.16951,-0.57777 c -0.0977,-0.33302 -0.17081,-1.20071 -0.17257,-2.04837 -0.002,-1.24205 0.0414,-1.57597 0.28281,-2.14858 0.83084,-1.97043 2.73239,-3.1692 5.93219,-3.73977 0.62133,-0.11079 1.24115,-0.31276 1.42071,-0.46295 1.46107,-1.22199 2.12446,-1.51642 3.41667,-1.51642 0.48071,0 1.17255,0.12202 1.61791,0.28535 l 0.77807,0.28536 3.32026,-0.35632 c 1.82615,-0.19597 3.68532,-0.42772 4.13148,-0.515 1.14182,-0.22335 2.84821,-0.92075 4.15267,-1.69719 l 1.11216,-0.66243 -0.54201,1.21959 c -0.35653,0.80226 -0.82337,1.55635 -1.36428,2.20373 l -0.82227,0.98415 0.78404,0.45482 c 1.19353,0.69238 1.82884,1.78404 2.37472,4.08048 0.16872,0.70983 0.35944,1.86422 0.42381,2.56532 0.0643,0.70109 0.23176,1.63605 0.37199,2.07768 0.30253,0.95283 1.27621,2.87691 2.07437,4.0992 0.31437,0.48141 0.55054,0.90009 0.52483,0.93038 -0.0257,0.0303 -0.7973,-0.37081 -1.71466,-0.89135 -0.91734,-0.52055 -1.68221,-0.94645 -1.69969,-0.94645 -0.0175,0 0.10099,0.38052 0.26332,0.8456 0.50106,1.43574 0.35178,2.97703 -0.42756,4.41456 -0.479,0.88355 -0.78167,2.40566 -0.79632,4.00464 -0.0145,1.5789 0.1373,2.20597 0.83821,3.46346 0.30905,0.55445 0.5619,1.05917 0.5619,1.12161 0,0.16041 -0.71612,-0.0145 -1.33254,-0.32545 -0.62496,-0.31527 -1.07878,-1.06193 -1.33761,-2.20077 -0.1011,-0.44486 -0.18864,-0.74266 -0.19452,-0.66177 -0.13171,1.81263 -0.42526,2.79886 -1.21195,4.07177 -0.93585,1.51425 -1.03302,3.19928 -0.30701,5.324 0.21808,0.63822 0.37645,1.18404 0.35193,1.21293 -0.0825,0.0972 -1.86499,-0.67564 -2.38247,-1.03299 -0.28192,-0.19468 -0.61948,-0.49317 -0.75016,-0.66333 -0.39983,-0.52061 -0.46843,-0.34595 -0.15282,0.38918 0.70722,1.64733 1.03586,3.93078 0.71074,4.93843 -0.1117,0.34619 -0.0914,0.36613 0.468,0.45811 2.04378,0.3361 4.48566,1.38851 6.23452,2.68699 l 1.0895,0.80891 1.0608,-0.39989 c 5.29771,-1.9971 9.63974,-4.90734 12.42615,-8.32861 2.79828,-3.43585 4.06684,-6.96683 4.34056,-12.08182 l 0.0534,-0.99865 -0.78804,-0.42105 c -2.5985,-1.38836 -4.98027,-4.15626 -5.80116,-6.74163 -0.44761,-1.40973 -0.56784,-2.99286 -0.33106,-4.35946 0.26898,-1.55248 0.73128,-2.59082 1.68664,-3.78823 1.2344,-1.54713 2.8727,-2.62677 5.09226,-3.35579 0.96359,-0.3165 1.07082,-0.32023 6.22211,-0.21656 11.56524,0.23276 15.33527,-0.0183 19.4966,-1.29826 0.65973,-0.20293 1.11607,-0.2844 1.06933,-0.19091 -0.35223,0.70422 -1.69499,2.59934 -2.61633,3.69254 -2.82041,3.34652 -6.79635,5.6157 -10.56956,6.03234 -0.52602,0.0581 -0.97812,0.14738 -1.00464,0.19843 -0.0265,0.051 4.22285,1.39877 9.44308,2.99494 5.22023,1.59617 9.52277,2.93919 9.5612,2.98448 0.15316,0.18046 -2.05323,2.08534 -3.22756,2.7865 -2.73855,1.63511 -5.46235,2.19643 -10.26208,2.11479 l -3.08602,-0.0525 0.27802,0.31789 c 0.1529,0.17483 3.87227,3.73929 8.26525,7.92101 4.39299,4.18172 8.00321,7.65212 8.02271,7.712 0.0744,0.22821 -1.96653,0.51925 -3.52989,0.50338 -3.8945,-0.0395 -6.92176,-1.43499 -13.41606,-6.18437 -2.23216,-1.63241 -2.43743,-1.76615 -2.29886,-1.49773 0.0564,0.10917 4.66999,8.03295 10.25251,17.6084 5.58252,9.57545 10.12248,17.44239 10.08879,17.48208 -0.0967,0.11397 -2.25764,-0.5396 -3.62797,-1.09728 -3.22587,-1.31279 -6.14283,-3.26129 -9.29764,-6.21069 -2.51418,-2.35048 -6.81999,-7.6768 -9.78678,-12.10635 -0.47419,-0.70796 -0.88112,-1.26484 -0.90433,-1.23751 -0.0231,0.0273 0.37521,1.56614 0.88532,3.41958 0.51012,1.85344 1.91875,7.14198 3.13029,11.75232 4.46685,16.99793 7.04941,25.41066 10.38337,33.82387 0.57693,1.4559 1.3293,3.26698 1.67194,4.02463 0.34263,0.75765 0.60614,1.39597 0.58559,1.41848 -0.11757,0.12876 -2.5013,-0.94175 -3.78139,-1.69819 -2.03401,-1.20194 -3.59207,-2.54018 -5.30253,-4.5544 -1.69048,-1.99068 -2.94127,-3.90224 -4.27995,-6.54092 -2.41721,-4.76461 -3.54078,-7.87099 -7.09196,-19.60732 -2.73886,-9.05175 -4.26028,-13.7279 -4.62389,-14.21181 -0.10672,-0.14203 -0.14477,3.09756 -0.10957,9.33098 0.0454,8.03264 0.7268,16.70594 1.94687,24.77966 0.67731,4.48199 1.93068,10.80991 2.80803,14.17694 0.13493,0.51782 0.22422,0.96637 0.19843,0.99675 -0.0666,0.0785 -1.7212,-1.03949 -2.82713,-1.91033 -2.85512,-2.24818 -5.62588,-5.68092 -7.47365,-9.25919 -3.34866,-6.48481 -5.38549,-15.73745 -5.71316,-25.95292 -0.0447,-1.39524 -0.12037,-2.53679 -0.16804,-2.53679 -0.12988,0 -0.8032,1.82588 -1.16596,3.1618 -0.6477,2.38517 -1.16146,5.2841 -2.20227,12.42659 -0.61131,4.19508 -1.07505,7.1618 -1.19952,7.6739 -0.0916,0.37666 -0.6939,0.0705 -1.22554,-0.62294 -1.20881,-1.57667 -2.05505,-4.9226 -2.8061,-11.09512 -0.32872,-2.7016 -1.38348,-13.17625 -1.38348,-13.73912 0,-0.1139 -0.025,-0.17757 -0.0557,-0.14148 -0.0306,0.0361 -0.37413,5.87101 -0.76337,12.96649 l -0.70769,12.90087 0.45188,0.64981 c 0.24853,0.3574 1.28352,1.54662 2.29997,2.64272 2.37082,2.55659 2.9443,3.38985 3.09443,4.49621 0.0784,0.57762 0.0556,0.63471 -0.50579,1.2686 -0.51348,0.57974 -0.56695,0.69495 -0.4224,0.91016 0.57176,0.85135 12.24859,15.47259 12.35672,15.47259 0.0733,0 0.73259,-0.4091 1.465,-0.90911 l 1.33166,-0.90911 0.53822,-1.52464 c 1.09453,-3.10058 2.25466,-3.98098 4.13591,-3.13866 0.62639,0.28046 0.63961,0.28037 1.34295,-0.008 0.39067,-0.16039 1.08025,-0.32964 1.53238,-0.3761 1.31891,-0.13555 2.07131,0.28921 2.75171,1.55346 0.46453,0.86313 0.45158,1.01856 -0.0482,0.57827 -0.22308,-0.19655 -0.58799,-0.44399 -0.81091,-0.54987 -0.56336,-0.26757 -1.72061,-0.14062 -2.4355,0.26719 l -0.59079,0.33701 0.0775,0.77771 c 0.0659,0.66018 0.0392,0.82291 -0.17624,1.07679 -0.39617,0.46684 -1.51204,0.66899 -3.08311,0.55854 l -1.37385,-0.0966 -0.78917,1.71015 c -0.43405,0.94058 -0.76179,1.74243 -0.72831,1.78188 0.14508,0.17096 4.53806,-0.29193 6.1351,-0.64646 1.40066,-0.31094 2.13089,-0.38899 3.68161,-0.3935 1.71702,-0.005 2.01299,0.0313 2.63354,0.32295 0.39581,0.18603 0.93726,0.60437 1.24801,0.96426 0.52482,0.60781 0.59022,0.63975 1.49221,0.72863 1.16569,0.11487 1.71439,0.37563 2.22098,1.05553 0.34299,0.46031 0.39226,0.63282 0.3906,1.36725 -0.003,1.29492 -0.14371,1.38554 -0.66386,0.42739 -0.2443,-0.45002 -0.57078,-0.89806 -0.72552,-0.99564 -0.71282,-0.44953 -2.99195,0.10843 -3.17189,0.77652 -0.10792,0.40063 -0.81388,0.72445 -1.32589,0.60817 -0.67613,-0.15355 -1.64657,-0.71077 -2.88732,-1.65789 l -1.16805,-0.89163 -1.23661,-0.002 c -1.61572,-0.003 -6.91657,0.33123 -6.90979,0.43598 0.003,0.0447 1.23733,1.0209 2.7432,2.16942 l 2.73795,2.08821 1.01958,0.1645 c 2.15238,0.34726 2.55415,0.88302 2.02763,2.70385 -0.20097,0.69502 -0.19985,0.70602 0.15601,1.53356 0.65511,1.52348 0.43543,3.08954 -0.63483,4.5256 l -0.4268,0.57267 0.24791,-0.95453 c 0.4879,-1.87852 0.0212,-2.71843 -1.76289,-3.17266 -1.6836,-0.42865 -2.36899,-1.21246 -2.36899,-2.70917 l 0,-0.83693 -2.92054,-2.73321 -2.92054,-2.73322 -2.28988,0.42634 c -1.25945,0.23449 -2.33087,0.42803 -2.38096,0.4301 -0.0501,0.002 -0.20471,0.26624 -0.34361,0.58707 -0.43572,1.00642 -0.85181,1.08002 -2.03486,0.35995 -0.50429,-0.30693 -0.69903,-0.34838 -1.24801,-0.2656 -0.78821,0.11885 -1.52652,0.53319 -1.72371,0.96734 -0.08,0.17629 -0.15124,0.5757 -0.15819,0.88758 l -0.0126,0.56706 -0.25159,-0.40045 c -0.13837,-0.22025 -0.32052,-0.62557 -0.40478,-0.90072 -0.20499,-0.66944 0.0403,-1.36769 0.64162,-1.82661 l 0.44489,-0.33952 -0.0758,-0.8907 c -0.0685,-0.80509 -0.046,-0.93152 0.23413,-1.31532 0.2691,-0.36864 0.41497,-0.43245 1.10677,-0.48413 0.53166,-0.0397 1.16035,0.0423 1.88923,0.24648 l 1.09241,0.306 1.4348,-0.39056 c 0.78915,-0.21481 1.43481,-0.43902 1.43481,-0.49825 0,-0.0592 -1.53037,-1.71674 -3.40083,-3.68335 -1.87044,-1.96661 -4.92386,-5.1783 -6.78537,-7.13708 l -3.38456,-3.56143 -1.35353,1.16733 c -0.74444,0.64203 -1.38357,1.16664 -1.42027,1.1658 -0.0822,-0.002 -2.55721,-7.58173 -2.81069,-8.60792 -0.23947,-0.96941 -0.94041,-1.93859 -1.48992,-2.06006 -1.62717,-0.35971 -2.78856,2.98196 -2.43519,7.00676 0.39313,4.47767 2.41019,6.79022 6.91867,7.93226 4.61884,1.17 6.30243,2.48243 6.30243,4.91302 0,0.4203 -0.0864,1.10708 -0.19203,1.52618 l -0.19203,0.76199 -0.52557,-0.003 c -0.80935,-0.004 -3.05722,-0.38518 -4.28661,-0.72609 -2.27354,-0.63046 -4.42111,-1.63435 -5.98328,-2.79693 l -0.78424,-0.58362 0.25744,0.69445 c 0.14158,0.38194 0.48398,1.15769 0.76086,1.72387 3.47617,7.10789 7.89408,10.18993 15.50069,10.81362 1.88525,0.15458 2.6396,0.28341 4.34488,0.74205 4.65128,1.25095 8.15998,4.46065 9.23119,8.44453 0.34663,1.28911 0.36932,3.41101 0.0496,4.6324 -0.7033,2.68629 -2.78163,4.86599 -5.45823,5.72446 -1.00923,0.32369 -2.80682,0.60188 -3.79936,0.58797 -0.55635,-0.008 -0.59017,-0.0257 -0.312,-0.1652 1.92482,-0.9652 2.43637,-1.33554 3.36676,-2.43738 1.38067,-1.63508 1.99517,-3.29916 1.99819,-5.41112 0.005,-3.80891 -2.51185,-6.69948 -6.46346,-7.42195 -1.27963,-0.23395 -1.43662,-0.14526 -0.63858,0.36078 3.90905,2.47872 5.53955,5.0732 4.93519,7.853 -0.20664,0.95046 -0.64154,2.08592 -0.79896,2.08592 -0.0505,0 -0.21532,-0.31435 -0.36629,-0.69854 -0.65171,-1.65851 -2.2074,-3.12852 -4.93888,-4.6669 -1.78984,-1.00805 -2.71478,-1.43176 -6.89082,-3.15666 l -2.74562,-1.13407 -2.24641,-1.73356 c -3.54652,-2.73688 -5.36347,-4.55077 -6.59148,-6.5804 -0.59047,-0.97591 -1.30997,-2.58462 -1.59859,-3.57421 -0.16799,-0.57595 -0.17235,-0.55446 -0.20929,1.02943 -0.0454,1.94713 0.22739,4.08093 0.7287,5.70013 1.30079,4.20136 4.22279,6.6763 10.10428,8.55834 1.41921,0.45414 2.8863,1.26744 3.23877,1.79544 0.1406,0.21064 0.25565,0.5601 0.25565,0.77659 0,0.677 -0.48035,1.10329 -2.10054,1.86418 -0.25144,0.11808 0.26189,0.44543 3.78286,2.41226 2.24059,1.2516 3.98355,2.29762 3.87326,2.32448 -0.33191,0.0808 -4.11675,-0.40411 -6.11719,-0.78378 -3.76456,-0.71449 -6.50399,-1.95094 -9.04518,-4.08257 -1.23409,-1.0352 -3.41113,-3.56513 -4.30202,-4.99937 -0.33933,-0.54629 -0.65922,-0.94335 -0.71088,-0.88236 -0.22778,0.26897 -0.49002,1.99116 -0.49833,3.2727 -0.019,2.9264 0.78482,5.88714 2.13597,7.86772 2.42539,3.5553 2.87939,6.12884 1.34986,7.6518 -0.44281,0.44089 -1.42785,1.00094 -2.03445,1.15669 -0.3118,0.0801 -0.50695,0.35105 -1.15223,1.5999 -2.03248,3.93359 -2.77796,5.31146 -2.77799,5.13456 z"
       id="path3829-1"
       inkscape:connector-curvature="0" />
    <path
       style="fill:none;stroke:#000000;stroke-width:0.69999999;stroke-linecap:butt;stroke-linejoin:miter;stroke-miterlimit:4;stroke-opacity:1;stroke-dasharray:none"
       d="m 145.78243,248.01425 c 1.59979,-0.62617 2.07485,1.10102 1.19324,2.21603 2.94473,0.4693 3.26093,2.34147 3.35245,3.18198 6.54699,-3.34629 13.15507,7.50713 4.65932,11.36421"
       id="path3936-1"
       inkscape:connector-curvature="0"
       sodipodi:nodetypes="cccc" />
    <path
       style="fill:#000000;stroke:none"
       d="m 148.90759,246.93465 c -1.42084,0.96413 -0.005,3.2438 1.66336,2.44331 2.03654,-0.92231 3.17175,-0.17071 4.1608,0.85232 0.97903,0.93658 2.30745,0.16982 3.89224,-1.84669 -1.15975,0.59027 -2.29267,1.79772 -3.5229,0.76709 -1.05441,-1.20555 -2.47193,-1.73328 -4.65933,-0.82391 -1.20846,0.68012 -1.89747,0.0415 -1.53417,-1.39212 z"
       id="path3938-5"
       inkscape:connector-curvature="0"
       sodipodi:nodetypes="ccccccc" />
    <path
       style="fill:#ffffff;stroke:#000000;stroke-width:0.60000002;stroke-linecap:butt;stroke-linejoin:miter;stroke-miterlimit:4;stroke-opacity:1;stroke-dasharray:none"
       d="m 150.41335,249.43478 c 1.06074,3.41271 3.22734,2.36546 4.57409,1.05119 -0.52601,-1.75826 -2.75363,-3.24343 -4.57409,-1.05119 z"
       id="path3940-2"
       inkscape:connector-curvature="0"
       sodipodi:nodetypes="ccc" />
    <path
       sodipodi:type="arc"
       style="fill:#000000;fill-opacity:1;stroke:none"
       id="path3942-7"
       sodipodi:cx="-333.48291"
       sodipodi:cy="-82.651604"
       sodipodi:rx="0.96595836"
       sodipodi:ry="1.1648321"
       d="m -332.51695,-82.651604 c 0,0.643319 -0.43248,1.164832 -0.96596,1.164832 -0.53348,0 -0.96596,-0.521513 -0.96596,-1.164832 0,-0.643319 0.43248,-1.164832 0.96596,-1.164832 0.53348,0 0.96596,0.521513 0.96596,1.164832 z"
       transform="matrix(1.2352941,0,0,1.1585366,564.29475,345.28913)" />
    <path
       style="fill:none;stroke:#000000;stroke-width:0.5;stroke-linecap:butt;stroke-linejoin:miter;stroke-miterlimit:4;stroke-opacity:1;stroke-dasharray:none"
       d="m 154.36241,256.36695 c 3.416,-0.23906 5.33417,3.47416 0.28411,2.21602"
       id="path3944-6"
       inkscape:connector-curvature="0"
       sodipodi:nodetypes="cc" />
    <path
       style="fill:none;stroke:#000000;stroke-width:1px;stroke-linecap:butt;stroke-linejoin:miter;stroke-opacity:1"
       d="m 149.49135,345.74652 0,43.29766"
       id="path3950-1"
       inkscape:connector-curvature="0" />
    <path
       style="fill:none;stroke:#000000;stroke-width:1px;stroke-linecap:butt;stroke-linejoin:miter;stroke-opacity:1"
       d="m 132.94086,341.6554 2.89788,-0.62503 0.17046,3.46608"
       id="path3952-4"
       inkscape:connector-curvature="0" />
    <path
       style="fill:none;stroke:#000000;stroke-width:1px;stroke-linecap:butt;stroke-linejoin:miter;stroke-opacity:1"
       d="m 163.96517,344.38281 -0.22728,-3.35244 3.18198,0.96596"
       id="path3954-2"
       inkscape:connector-curvature="0" />
    <path
       style="fill:#000000"
       d="m 148.78603,335.03437 c -1.24219,-0.62616 -2.44919,-3.94549 -2.44919,-6.73541 0,-1.04381 0.0831,-1.18152 0.71169,-1.17925 0.66039,0.002 0.71677,0.13557 0.782,1.84816 0.0872,2.29269 0.59195,3.95022 1.44353,4.74145 l 0.65325,0.60694 0.72054,-0.72511 c 0.92506,-0.93089 1.33359,-2.22674 1.58785,-5.03654 0.17669,-1.95269 0.28382,-2.25887 0.79036,-2.25887 0.50378,0 0.58596,0.22516 0.58596,1.60545 0,4.99814 -2.30443,8.40426 -4.82599,7.13318 z m 7.08856,-3.94124 c -0.99287,-0.97884 -1.29837,-1.83902 -1.40851,-3.96584 -0.0482,-0.9312 0.0577,-1.24365 0.44502,-1.31308 0.4076,-0.0731 0.54207,0.23121 0.67874,1.53584 0.52971,5.05669 3.90232,4.71591 4.28406,-0.43288 0.12719,-1.71561 0.22917,-1.99043 0.7386,-1.99043 1.28748,0 0.493,4.65611 -1.05487,6.18212 -1.2803,1.2622 -2.39161,1.25745 -3.68304,-0.015 z m -15.1958,0.027 c -0.86817,-0.79994 -1.61714,-2.86424 -1.61714,-4.45714 0,-1.00605 0.0971,-1.18858 0.63263,-1.18858 0.5416,0 0.63261,0.18246 0.63261,1.26879 0,2.6656 1.4789,4.80249 2.71109,3.9173 0.90075,-0.64709 1.43961,-1.91936 1.6254,-3.83763 0.12924,-1.33444 0.31059,-1.89608 0.61224,-1.89608 0.44948,0 0.52491,0.43316 0.42918,2.46411 -0.162,3.43622 -3.03246,5.56606 -5.02601,3.7292 z m 7.26642,-11.68828 c -1.21702,-1.05344 -1.88084,-3.00567 -1.99527,-5.86779 -0.0813,-2.03316 -0.0421,-2.19043 0.54504,-2.19043 0.56867,0 0.65409,0.24377 0.84482,2.41107 0.24809,2.81904 1.23828,4.92645 2.38084,5.06719 1.31616,0.16212 2.62612,-3.25189 2.62612,-6.84404 0,-1.41 0.0725,-1.59254 0.63263,-1.59254 0.51537,0 0.63762,0.1904 0.6596,1.02677 0.10811,4.11661 -0.69052,6.97414 -2.27087,8.12521 -1.27409,0.92799 -2.23845,0.88983 -3.42291,-0.13535 z m -7.58218,-2.61846 c -1.10799,-0.67178 -1.9191,-2.4716 -1.92706,-4.2761 -0.005,-1.14642 0.10977,-1.57434 0.42245,-1.57434 0.29316,0 0.49403,0.53516 0.63307,1.68659 0.6146,5.08998 4.31485,4.31298 4.31485,-0.90608 0,-1.4194 0.0721,-1.60194 0.63262,-1.60194 0.53786,0 0.63262,0.18247 0.63262,1.21862 0,2.2257 -0.63423,4.03977 -1.7501,5.00564 -1.1538,0.99875 -1.87053,1.10718 -2.95845,0.44759 z m 15.46866,-0.60136 c -1.05723,-0.91514 -1.58285,-2.36808 -1.58527,-4.38205 -0.002,-2.11913 0.66715,-1.68619 1.13865,0.73608 0.4521,2.3225 1.13784,3.39659 2.09004,3.27361 1.2476,-0.16105 1.92111,-1.38124 2.08085,-3.76965 0.12866,-1.92394 0.2221,-2.20228 0.73927,-2.20228 0.50422,0 0.59197,0.21585 0.59197,1.45621 0,2.12049 -0.77731,4.11992 -1.92734,4.95755 -1.24584,0.90744 -2.01944,0.89024 -3.12817,-0.0694 z m 7.58602,-8.54436 c 0,-1.86996 -0.0193,-1.91727 -0.66208,-1.61951 -0.93405,0.43268 -2.08358,0.10665 -2.71762,-0.77096 -0.29749,-0.41172 -0.57812,-0.79489 -0.62362,-0.85143 -0.0455,-0.0566 -0.45711,0.28227 -0.91464,0.75295 -0.58096,0.59761 -1.10968,0.85577 -1.75273,0.85577 -0.89148,0 -2.18607,-0.81071 -2.18607,-1.369 0,-0.15056 -0.12414,-0.27379 -0.27587,-0.27379 -0.15176,0 -0.36306,0.47179 -0.46957,1.04841 -0.2324,1.25804 -1.36549,2.7927 -2.38758,3.23381 -1.63704,0.70645 -3.34852,-0.5895 -4.12755,-3.12542 -0.34776,-1.13209 -0.38216,-1.15679 -1.04826,-0.75295 -1.11864,0.67823 -2.37168,0.52159 -3.36606,-0.42081 l -0.88462,-0.83837 -0.4064,0.84926 c -0.78816,1.64706 -2.67641,2.14248 -4.0155,1.05354 l -0.73208,-0.59532 0,2.10122 c 0,1.6065 -0.10304,2.10125 -0.43759,2.10125 -0.24066,0 -0.5234,-0.27722 -0.6283,-0.61606 -0.10494,-0.33884 -0.19267,-4.77441 -0.19504,-9.85684 -0.004,-8.95039 0.0149,-9.24079 0.60665,-9.24079 0.58606,0 0.60364,0.18141 0.43147,4.44927 -0.28776,7.13224 0.5602,10.90633 2.49486,11.10408 1.21009,0.12357 2.15632,-1.69311 2.15632,-4.14015 0,-1.64761 0.0631,-1.83015 0.63262,-1.83015 0.51407,0 0.63263,0.18247 0.63263,0.97395 0,1.53996 0.63153,3.31052 1.40523,3.93968 1.4095,1.14621 2.39098,0.0249 2.86267,-3.27084 0.24904,-1.74004 0.45099,-2.32729 0.80033,-2.32729 0.37783,0 0.50101,0.65598 0.6438,3.42821 0.1347,2.61593 0.32208,3.68188 0.79077,4.49885 0.8703,1.51697 1.59648,1.82944 2.36588,1.018 0.87978,-0.92782 1.27659,-2.31882 1.47777,-5.18032 0.1812,-2.57735 0.29762,-2.7623 1.4894,-2.36646 0.38131,0.12657 0.50034,0.5674 0.50034,1.85244 0,1.9028 0.82033,3.5943 1.74313,3.5943 1.13561,0 1.88343,-1.38511 2.00566,-3.71481 0.0974,-1.85604 0.19517,-2.17192 0.67244,-2.17192 0.47323,0 0.58068,0.32395 0.70388,2.12195 0.23527,3.43387 1.66616,4.93957 3.00866,3.16602 0.47975,-0.63375 0.58652,-1.724 0.77093,-7.87177 0.11773,-3.92488 0.22628,-7.47497 0.24121,-7.88909 0.0174,-0.48378 0.20051,-0.75295 0.51213,-0.75295 0.42124,0 0.48209,0.76469 0.463,5.81827 -0.0121,3.20006 -0.11037,8.06687 -0.21841,10.81514 -0.18122,4.61073 -0.24144,4.99688 -0.77929,4.99688 -0.51109,0 -0.5829,-0.23732 -0.5829,-1.92625 z m 6.64256,0.0908 c -1.31281,-0.4135 -3.22304,-2.67965 -3.93425,-4.6673 -0.17609,-0.49209 -0.0974,-0.61605 0.39051,-0.61605 0.43478,0 0.77142,0.36364 1.16729,1.26089 0.77261,1.75115 2.2217,3.11993 3.30301,3.11993 1.64861,0 3.0691,-2.07488 3.44721,-5.03524 0.24441,-1.91354 0.96666,-2.38747 1.60514,-1.05323 0.38326,0.8009 1.80178,1.70765 2.67147,1.70765 0.95543,0 1.47162,-1.1258 1.47162,-3.20963 0,-1.22945 0.12929,-1.9926 0.33755,-1.9926 0.18566,0 0.80742,0.43125 1.38169,0.95832 1.2597,1.15616 2.40182,1.2492 3.5143,0.28624 1.06223,-0.91949 1.05156,-2.77491 -0.0276,-4.78156 -0.56167,-1.04443 -0.6986,-1.56931 -0.46268,-1.77354 0.23593,-0.20432 0.49635,-0.18997 0.87995,0.048 1.29057,0.80084 1.99605,0.97896 2.85085,0.71984 1.48399,-0.44988 1.35245,-2.18661 -0.28807,-3.80396 -0.59113,-0.58278 -0.90302,-1.13291 -0.78861,-1.391 0.1714,-0.38662 0.25591,-0.38655 0.89469,8.2e-4 0.96575,0.58552 2.25048,0.5367 2.92794,-0.11138 0.78234,-0.74828 0.54441,-3.16184 -0.42822,-4.34422 -0.85878,-1.04402 -0.6626,-1.41432 0.74928,-1.41432 0.7743,0 1.24463,-0.19703 1.72106,-0.72142 0.94898,-1.04431 0.83991,-2.24585 -0.3139,-3.45748 -0.96327,-1.01156 -0.99411,-1.7564 -0.0599,-1.44609 0.76365,0.25366 1.66198,-0.64556 1.66198,-1.66363 0,-0.61664 -0.30334,-1.20541 -0.94893,-1.84189 -1.10147,-1.08589 -1.1575,-1.27394 -0.37957,-1.27394 1.32083,0 1.71572,-1.29563 0.84111,-2.75963 -0.48245,-0.80756 -0.40024,-1.34737 0.20522,-1.34737 0.39931,0 1.53131,2.1406 1.54047,2.91302 0.004,0.32215 -0.25399,0.86466 -0.57288,1.20555 -0.56348,0.60234 -0.56213,0.64783 0.0483,1.61254 0.73628,1.16353 0.56969,2.59787 -0.40713,3.50547 -0.58062,0.53945 -0.58693,0.63152 -0.11489,1.67171 0.31015,0.68347 0.42463,1.44655 0.30194,2.01266 -0.21732,1.00272 -1.40863,2.27327 -2.3823,2.54078 -0.5874,0.16148 -0.59703,0.23518 -0.16802,1.28769 0.90379,2.21737 0.25799,4.40869 -1.45133,4.92446 -0.72241,0.21799 -0.92444,0.41256 -0.77045,0.74199 0.44033,0.94212 0.51797,2.44659 0.15642,3.03133 -0.45843,0.7415 -2.35439,1.47335 -3.20876,1.23862 -0.55249,-0.15184 -0.59397,-0.0844 -0.37218,0.60399 0.13728,0.42614 0.2496,1.49346 0.2496,2.37183 0,1.45777 -0.0901,1.66667 -1.03302,2.39577 -1.09192,0.84429 -2.97629,1.0854 -4.16806,0.5333 -0.49987,-0.23159 -0.60012,-0.11801 -0.78597,0.88984 -0.26719,1.44902 -0.92428,2.33325 -1.99598,2.68594 -0.67288,0.22145 -1.11872,0.14564 -2.3207,-0.39404 l -1.48781,-0.66817 -0.20161,1.09145 c -0.54887,2.97104 -3.07331,5.09225 -5.24589,4.40796 z m -42.08601,-1.30454 c -0.94997,-0.44729 -2.36845,-2.58876 -2.68086,-4.04726 -0.12094,-0.56472 -0.24515,-1.02676 -0.27599,-1.02676 -0.0309,0 -0.61445,0.24642 -1.29693,0.5476 -0.68248,0.30119 -1.50639,0.54761 -1.83093,0.54761 -0.97748,0 -2.33971,-1.41753 -2.58884,-2.69398 -0.20331,-1.04164 -0.29584,-1.13798 -0.90827,-0.94583 -1.52713,0.47914 -3.03354,0.22466 -4.09192,-0.6912 -0.91007,-0.78752 -1.01835,-1.04809 -1.01835,-2.45057 0,-0.86314 0.1022,-1.88299 0.22703,-2.26631 0.2157,-0.6622 0.17282,-0.69146 -0.86066,-0.58701 -0.88946,0.0899 -1.26822,-0.0463 -2.07828,-0.74755 -0.84539,-0.73177 -0.96791,-1.00691 -0.83589,-1.87718 0.085,-0.56084 0.25864,-1.29694 0.38566,-1.63577 0.17288,-0.46115 0.1068,-0.61606 -0.26276,-0.61606 -0.27155,0 -0.87152,-0.28129 -1.33326,-0.62509 -1.08964,-0.81129 -1.37166,-2.65289 -0.67666,-4.41845 0.39913,-1.01396 0.41286,-1.25389 0.0718,-1.25389 -0.23202,0 -0.85289,-0.34854 -1.37974,-0.77456 -1.24466,-1.00642 -1.59632,-2.50174 -0.88992,-3.78401 0.49136,-0.8919 0.48519,-0.97531 -0.1251,-1.68984 -0.91406,-1.07018 -1.11724,-2.51886 -0.49852,-3.55452 0.46983,-0.78643 0.46828,-0.92641 -0.0199,-1.81259 -0.43834,-0.79568 -0.46724,-1.13892 -0.16856,-2.00185 0.48789,-1.40955 1.06172,-2.03804 1.59485,-1.74671 0.3504,0.19146 0.33315,0.38646 -0.0981,1.10828 -0.76402,1.27888 -0.5313,2.26756 0.63881,2.71403 l 0.96596,0.36859 -1.04504,0.9046 c -0.74236,0.64259 -1.04504,1.15563 -1.04504,1.77137 0,1.32256 0.53907,2.00567 1.43,1.81211 1.02122,-0.22185 1.29831,0.30307 0.54054,1.024 -1.33759,1.27254 -1.63245,2.33777 -0.98672,3.56452 0.37606,0.71445 1.71199,1.38828 2.21687,1.1182 0.16854,-0.0902 0.5014,-0.024 0.73965,0.14713 0.36076,0.25917 0.30617,0.50351 -0.32636,1.46103 -0.98352,1.48887 -1.04675,3.50892 -0.13455,4.29854 0.75791,0.65604 1.13139,0.67605 2.35025,0.12593 0.80565,-0.36367 0.98624,-0.36695 1.38123,-0.025 0.39499,0.3419 0.37054,0.43218 -0.18688,0.69039 -1.50244,0.69603 -2.50615,3.28375 -1.58346,4.08245 0.56996,0.49336 2.20671,0.38447 3.09429,-0.20581 0.5392,-0.35861 0.90349,-0.43727 1.16271,-0.25105 0.28635,0.2056 0.19298,0.61421 -0.38673,1.69198 -1.03618,1.92639 -1.05251,3.97085 -0.0384,4.79559 1.2582,1.02316 3.10797,0.69897 3.96575,-0.69504 0.22659,-0.36824 0.55701,-0.54467 0.84245,-0.44986 0.35037,0.1163 0.46965,0.61984 0.46965,1.98238 0,2.0159 0.55025,3.04345 1.62974,3.04345 0.84576,0 2.39204,-0.96525 2.64309,-1.64992 0.10899,-0.29727 0.47326,-0.5405 0.80948,-0.5405 0.49747,0 0.61131,0.19468 0.61131,1.04553 0,1.7288 0.91502,3.9083 2.0552,4.89523 0.57456,0.49736 1.19628,0.90428 1.3816,0.90428 0.75181,0 2.53865,-1.73022 3.24464,-3.14184 0.70394,-1.40751 1.2731,-1.83806 1.67876,-1.26989 0.0954,0.13365 -0.33888,1.12933 -0.96505,2.21276 -1.59086,2.75258 -3.40201,3.61265 -5.51373,2.61838 z"
       id="path4018-3"
       inkscape:connector-curvature="0" />
  </g>
</svg>
