<?xml version="1.0" encoding="UTF-8" standalone="no"?>
<!-- Created with Inkscape (http://www.inkscape.org/) -->

<svg
   xmlns:dc="http://purl.org/dc/elements/1.1/"
   xmlns:cc="http://creativecommons.org/ns#"
   xmlns:rdf="http://www.w3.org/1999/02/22-rdf-syntax-ns#"
   xmlns:svg="http://www.w3.org/2000/svg"
   xmlns="http://www.w3.org/2000/svg"
   xmlns:sodipodi="http://sodipodi.sourceforge.net/DTD/sodipodi-0.dtd"
   xmlns:inkscape="http://www.inkscape.org/namespaces/inkscape"
   width="324.06757"
   height="215.66006"
   id="svg9214"
   version="1.1"
   inkscape:version="0.48.4 r9939"
   sodipodi:docname="Nieuw document 66">
  <defs
     id="defs9216" />
  <sodipodi:namedview
     id="base"
     pagecolor="#ffffff"
     bordercolor="#666666"
     borderopacity="1.0"
     inkscape:pageopacity="0.0"
     inkscape:pageshadow="2"
     inkscape:zoom="1.4"
     inkscape:cx="399.76633"
     inkscape:cy="76.757446"
     inkscape:document-units="px"
     inkscape:current-layer="layer1"
     showgrid="false"
     fit-margin-top="0"
     fit-margin-left="0"
     fit-margin-right="0"
     fit-margin-bottom="0"
     inkscape:window-width="1600"
     inkscape:window-height="837"
     inkscape:window-x="-8"
     inkscape:window-y="-8"
     inkscape:window-maximized="1" />
  <metadata
     id="metadata9219">
    <rdf:RDF>
      <cc:Work
         rdf:about="">
        <dc:format>image/svg+xml</dc:format>
        <dc:type
           rdf:resource="http://purl.org/dc/dcmitype/StillImage" />
        <dc:title></dc:title>
      </cc:Work>
    </rdf:RDF>
  </metadata>
  <g
     inkscape:label="Laag 1"
     inkscape:groupmode="layer"
     id="layer1"
     transform="translate(-0.82336286,-247.38929)">
    <rect
       style="fill:#009900;fill-opacity:1;stroke:none"
       id="rect8570"
       width="324.01669"
       height="215.65515"
       x="0.82562459"
       y="247.3936" />
    <path
       style="fill:#ffff00"
       d="m 0.82647339,406.60137 0,-56.44761 0.53828551,-1.60921 c 1.1648942,-3.48247 3.2496053,-8.21158 5.0609989,-11.48089 8.6797752,-15.66572 22.6394332,-27.93769 38.8818932,-34.1812 18.882647,-7.25834 43.870207,-5.98086 62.217099,3.18068 14.11952,7.05066 24.00627,17.68958 29.8566,32.12821 0.59845,1.47688 2.02201,5.58886 2.00826,5.80082 0,0.0459 -0.11943,-0.1449 -0.25883,-0.42343 -0.66156,-1.32199 -2.32398,-4.23243 -3.36363,-5.88854 -9.07137,-14.45101 -22.39214,-24.53147 -38.47989,-29.11967 -9.000324,-2.56695 -19.449828,-3.30054 -28.94874,-2.03244 -13.675126,1.82566 -25.924891,7.40474 -33.921495,15.44936 -2.674239,2.69029 -4.499057,5.10725 -6.953267,9.20945 -5.418546,9.05715 -9.447503,20.82336 -11.632979,33.97313 -2.932004,17.64128 -2.787528,38.26035 0.416647,59.45525 1.855842,12.27596 5.03104,25.90915 8.581384,36.84495 0.270289,0.8325 0.491382,1.53057 0.491382,1.55123 0,0.0209 -5.51178,0.0379 -12.248373,0.0379 l -12.24845614,0 0,-56.44771 z M 93.197074,461.17741 C 65.576531,438.43179 47.827427,414.36547 40.642017,389.91723 39.067761,384.561 37.89378,378.4581 37.389792,373.01145 c -0.348297,-3.76359 -0.348788,-10.46148 0,-13.92987 1.149997,-11.47261 3.957415,-19.31755 9.426385,-26.34017 2.532137,-3.25144 5.410688,-5.96688 8.975358,-8.46676 7.128356,-4.99906 15.507556,-7.865 25.253265,-8.63741 3.738531,-0.2963 9.81561,-0.0439 13.685767,0.56923 8.266883,1.30902 16.592383,4.27874 23.034303,8.21648 6.62952,4.0523 12.43648,9.30983 17.44009,15.78996 1.48414,1.92207 1.49028,2.0017 0.0483,0.62961 -6.91676,-6.58182 -13.64345,-11.46193 -20.46706,-14.84809 -15.659142,-7.77099 -31.228909,-8.29931 -43.964084,-1.49175 -9.106,4.86763 -15.713015,13.19818 -18.62431,23.48272 -3.590454,12.68393 -1.219819,27.36396 6.741996,41.74871 1.610355,2.90944 2.569954,4.40488 4.139954,6.45159 6.769827,8.82543 15.183246,16.97753 24.520981,23.75944 14.182053,10.30031 31.382143,18.34863 51.771683,24.2251 14.98867,4.31995 34.60598,8.18603 52.37031,10.32096 21.99784,2.64369 45.91832,3.29665 69.77332,1.9045 22.41326,-1.30812 45.37701,-4.75875 60.51081,-9.09278 1.34056,-0.38391 2.53344,-0.73679 2.65074,-0.78409 0.20178,-0.0818 0.21332,0.36116 0.21332,8.22206 l 0,8.30819 -114.71461,0 -114.714605,0 -2.263648,-1.86418 z M 175.47145,433.1538 c -37.41765,-1.0284 -69.35291,-11.20396 -92.137299,-29.35789 -5.70185,-4.54309 -12.373208,-11.1316 -14.886845,-14.70179 -6.02821,-8.56257 -9.693808,-17.67581 -10.722003,-26.65672 -0.231079,-2.01786 -0.200383,-6.8349 0.05566,-8.80117 0.735723,-5.64295 2.375628,-10.3078 5.151369,-14.6534 4.16451,-6.51985 10.428221,-11.37281 17.909299,-13.87578 8.267793,-2.76614 17.63516,-2.55497 26.798699,0.60396 7.42198,2.55856 14.56457,6.8872 21.33555,12.93002 2.22845,1.98873 2.31153,2.1487 0.40502,0.7793 -9.05844,-6.50617 -17.74149,-10.33244 -25.63307,-11.29546 -1.83595,-0.22405 -5.39325,-0.25508 -7.104043,-0.0619 -8.704741,0.98218 -16.206443,6.10689 -21.400377,14.61946 -4.524026,7.41461 -5.392437,15.41373 -2.577733,23.74408 1.649564,4.8821 4.553821,9.53846 8.718087,13.97757 4.595811,4.89907 10.255587,9.07233 17.247489,12.71746 1.205331,0.62832 2.520587,1.29575 2.922827,1.48297 7.28634,3.39225 14.58512,5.89273 22.14282,7.58556 11.98373,2.68431 24.09483,4.56585 35.07738,5.44954 6.43995,0.51814 9.27561,0.62402 16.81873,0.62792 7.34609,0 9.57847,-0.0709 15.05153,-0.50048 31.13266,-2.44609 57.86883,-12.88352 78.18265,-30.5215 23.83535,-20.69562 37.93432,-50.43432 40.76114,-85.97704 0.3758,-4.72522 0.47878,-7.64554 0.47567,-13.48658 0,-6.21468 -0.15389,-9.78626 -0.65952,-15.63948 -0.40224,-4.65706 -1.29316,-11.89175 -1.7739,-14.4048 l -0.0663,-0.34819 8.66291,0 8.66291,0 -0.0303,70.24705 -0.0303,70.24696 -2.07186,1.62337 c -26.14214,20.48226 -65.9161,35.8468 -107.24983,41.43017 -13.66186,1.84542 -26.89423,2.57812 -40.03582,2.21696 z m -27.42187,-39.88114 c -6.7727,-0.15308 -13.80045,-0.55985 -20.94305,-1.21202 -3.57998,-0.32693 -5.02687,-0.58909 -9.06957,-1.64373 -17.23087,-4.495 -29.726613,-12.12407 -35.872778,-21.90145 -1.064375,-1.69323 -2.253007,-4.22685 -2.821825,-6.01478 -1.453437,-4.56845 -1.57614,-8.78252 -0.381941,-13.11834 2.395355,-8.6971 10.026881,-15.23221 19.79084,-16.9476 4.004724,-0.70356 8.801654,-0.54449 13.148624,0.43611 8.35317,1.88414 17.13452,6.87951 25.24196,14.359 0.60328,0.55646 2.26692,2.21137 3.69695,3.67747 l 2.60008,2.66564 -0.0794,-1.13977 c -1.88916,-27.09003 -10.22113,-48.25299 -25.04355,-63.60955 -14.72706,-15.25765 -35.302481,-24.19715 -60.819159,-26.42429 -6.746498,-0.58889 -15.666439,-0.67142 -22.607754,-0.20917 -9.820522,0.65386 -18.574132,1.86728 -28.4577648,3.94462 -2.3125985,0.48611 -4.520012,0.96393 -4.9054724,1.06193 l -0.70076982,0.17804 0,-9.99274 0,-9.99274 121.47862002,0 121.47871,0 0.41485,0.72561 c 5.94742,10.4017 9.50881,18.05054 12.81326,27.51925 6.52213,18.68903 8.37683,36.83937 5.41445,52.9866 -3.4418,18.75969 -13.32576,34.04209 -29.11138,45.01113 -19.90102,13.82878 -48.70651,20.4625 -85.26385,19.63579 z m -2.4439,-19.19709 c 3.64096,-0.95634 6.5033,-3.8069 7.27013,-7.24017 0.24017,-1.0753 0.2355,-3.02541 -0.01,-4.01807 -0.27545,-1.11532 -1.05218,-2.66954 -1.80894,-3.61989 -1.27794,-1.60471 -3.44328,-2.97211 -5.62785,-3.55392 -1.6088,-0.42853 -4.03281,-0.40547 -5.69277,0.0539 -3.59037,0.99396 -6.37405,3.70711 -7.23959,7.05645 -0.28716,1.11102 -0.28593,3.20354 0,4.30338 0.58191,2.21896 2.01005,4.19402 4.017,5.55533 2.61203,1.77167 5.89929,2.30079 9.08922,1.4629 z m -3.8799,-7.02172 c -1.83701,-0.49987 -3.03015,-1.34015 -3.61984,-2.54938 -1.24658,-2.55606 1.67977,-5.16961 5.78838,-5.16961 3.21579,0 5.90632,1.82297 5.88758,3.98913 -0.0237,2.76105 -4.31521,4.74788 -8.05612,3.72986 z"
       id="path9088"
       inkscape:connector-curvature="0" />
    <path
       style="fill:#ffffff;stroke:#000000;stroke-width:0.60000002;stroke-linecap:butt;stroke-linejoin:miter;stroke-miterlimit:4;stroke-opacity:1;stroke-dasharray:none"
       d="m 156.00868,321.69698 0,0 c 6.16272,-5.62883 1.65682,-13.91799 -6.27557,-10.78338 -9.81908,4.73806 -4.58458,24.57496 10.07627,18.29638 -1.65159,3.69117 0.0974,5.99694 2.91681,7.86657 l -2.82842,8.66206 c -2.97814,0.95978 -0.35621,8.14187 0.88388,13.78858 l -0.26516,3.97748 6.36396,1.67938 c 0.32717,0.3188 4.02024,1.0609 2.2097,-1.14905 1.13691,0.77431 2.82666,-0.99812 0.44195,-1.85616 0.62218,-0.0979 2.59992,-1.64874 -0.7955,-2.91681 l -3.97747,0 -2.03294,-9.63433 9.36917,-9.81111 0.53033,5.21491 c -1.64968,1.17863 -2.48633,2.76378 0.53033,6.27557 l 2.82843,10.25305 6.45235,0.0884 c 1.65101,0.665 4.74619,-0.39683 0.7071,-1.5026 2.34419,-0.10305 2.19995,-1.61882 -0.0884,-1.67938 0.63383,-0.21018 1.8497,-1.44966 -1.69546,-1.06158 l -3.1659,0.0893 -2.56326,-10.42982 c 8.16522,-7.06294 4.9457,-13.31269 0.0884,-19.44544 l 1.59099,-3.13779 -2.34229,0.7513 -1.06066,-0.53033 c 10.8704,-3.29506 21.29108,-7.18346 27.70975,-16.35184 2.03033,-1.17597 3.40675,-0.10591 9.104,-13.87697 2.66739,-4.39231 4.90276,-9.08256 12.24178,-10.25305 1.4711,0.45138 3.34409,1.48148 2.82843,-0.92808 0.60263,0.32642 3.20053,-1.19392 0.70711,-1.98874 0.98341,-1.07557 0.84506,-3.40041 -2.16552,-2.20971 l -4.06586,2.91682 c -9.13969,1.82655 -11.85556,10.55277 -16.92637,16.74959 l -1.41421,-4.64039 c 2.3701,-5.35506 5.07439,-9.7744 8.61786,-11.84403 l 7.29204,-3.44715 c 1.62673,-0.57686 1.39507,-2.39229 -0.83969,-2.07713 1.11589,-0.52791 0.64417,-2.35311 -1.63518,-1.14904 0.37655,-0.6775 0.43474,-1.73869 -1.90035,-0.17678 l -5.30331,5.3033 c -3.92986,1.02843 -6.93338,5.29904 -9.94368,9.54594 l -4.65148,-2.29361 -0.20685,-1.72598 -1.42822,-0.18204 -0.93077,-1.08615 0.0457,-1.53022 -1.58767,-0.26914 -1.09601,-2.10525 c 7.16573,-3.31916 14.96479,-6.65305 15.20279,-9.8111 0.20266,-1.13824 4.23608,-3.62242 -1.06066,-2.82843 l -9.90259,0.47942 c -3.44806,-1.47534 -6.69748,-1.0636 -9.8125,0.625 -5.96484,-3.72098 -9.23622,-2.20468 -12.25,-0.1875 2.78853,-0.78853 4.20481,-0.2048 5,1 0.51259,1.07114 1.50031,1.94431 4,2.1875 -3.94675,0.29129 -6.67603,2.00297 -8.625,4.625 1.2359,-0.38428 2.4204,-1.3339 3.8125,0 1.68958,1.25414 3.28956,1.4331 4.8125,0.6875 -1.25,2.66667 -1.25,5.66667 0,9 -6.74075,1.08546 -1.75119,12.72391 4.9375,6.0625 2.51076,6.82606 1.53366,12.83145 -7.25,17 -6.92569,3.53153 -14.20519,6.94513 -15.64621,12.30489 -3.28633,5.57732 -11.40928,5.3831 -13.16987,-0.26517 -2.06042,-10.87097 11.09411,-11.89117 7.6014,-0.26516 z"
       id="path9090"
       inkscape:connector-curvature="0"
       sodipodi:nodetypes="ccccccccccccccccccccccccccccccccccccccccccccccccccccccccccccccccccc" />
    <path
       sodipodi:type="arc"
       style="fill:#ffff00;fill-opacity:1;stroke:#000000;stroke-width:0.5;stroke-miterlimit:4;stroke-opacity:1;stroke-dasharray:none"
       id="path9092"
       sodipodi:cx="679.75"
       sodipodi:cy="-51.3125"
       sodipodi:rx="1.5"
       sodipodi:ry="1.4375"
       d="m 681.25,-51.3125 c 0,0.793909 -0.67157,1.4375 -1.5,1.4375 -0.82843,0 -1.5,-0.643591 -1.5,-1.4375 0,-0.793909 0.67157,-1.4375 1.5,-1.4375 0.82843,0 1.5,0.643591 1.5,1.4375 z"
       transform="translate(-499.21414,342.04742)" />
    <path
       style="fill:none;stroke:#000000;stroke-width:0.60000002;stroke-linecap:butt;stroke-linejoin:miter;stroke-miterlimit:4;stroke-opacity:1;stroke-dasharray:none"
       d="m 179.60837,286.82777 c 4.11008,-0.0671 7.68474,-1.4218 9.8553,-3.88909"
       id="path9094"
       inkscape:connector-curvature="0"
       sodipodi:nodetypes="cc" />
    <path
       style="fill:none;stroke:#000000;stroke-width:0.60000002;stroke-linecap:butt;stroke-linejoin:miter;stroke-miterlimit:4;stroke-opacity:1;stroke-dasharray:none"
       d="m 184.35635,292.909 c 4.06367,-0.61955 7.42354,-2.44288 9.24238,-5.17978"
       id="path9094-5"
       inkscape:connector-curvature="0"
       sodipodi:nodetypes="cc" />
    <path
       style="fill:none;stroke:#000000;stroke-width:0.5;stroke-linecap:butt;stroke-linejoin:miter;stroke-miterlimit:4;stroke-opacity:1;stroke-dasharray:none"
       d="m 179.60837,286.78358 c 3.39285,-0.1756 5.92096,2.23443 4.77297,6.0546"
       id="path9114"
       inkscape:connector-curvature="0"
       sodipodi:nodetypes="cc" />
    <path
       style="fill:none;stroke:#000000;stroke-width:0.60000002;stroke-linecap:butt;stroke-linejoin:miter;stroke-miterlimit:4;stroke-opacity:1;stroke-dasharray:none"
       d="m 190.87788,284.97162 c -1.78316,1.81525 -3.86766,3.30178 -6.93848,3.71231"
       id="path9116"
       inkscape:connector-curvature="0"
       sodipodi:nodetypes="cc" />
    <path
       style="fill:none;stroke:#000000;stroke-width:0.60000002;stroke-linecap:butt;stroke-linejoin:miter;stroke-miterlimit:4;stroke-opacity:1;stroke-dasharray:none"
       d="m 192.13741,286.25325 c -1.78316,1.81526 -3.86766,3.30178 -6.93848,3.71231"
       id="path9116-7"
       inkscape:connector-curvature="0"
       sodipodi:nodetypes="cc" />
    <path
       style="fill:none;stroke:#000000;stroke-width:0.60000002;stroke-linecap:butt;stroke-linejoin:miter;stroke-miterlimit:4;stroke-opacity:1;stroke-dasharray:none"
       d="m 188.66086,272.14117 c 1.10866,0.0858 1.62913,-0.58471 2.17055,-1.22826 1.37107,-1.95612 2.92293,-0.74846 4.45445,0.10326 l 0,0 -0.46875,-0.28125 c -0.89546,0.84461 -2.71551,2.16174 -4.28125,0.59375 l 0.0312,0"
       id="path9136"
       inkscape:connector-curvature="0"
       sodipodi:nodetypes="ccccccc" />
    <path
       style="fill:none;stroke:#000000;stroke-width:0.69999999;stroke-linecap:butt;stroke-linejoin:miter;stroke-miterlimit:4;stroke-opacity:1;stroke-dasharray:none"
       d="m 204.59836,269.70367 c -1.46298,1.72926 -3.24579,2.32985 -5.125,1.25"
       id="path9138"
       inkscape:connector-curvature="0"
       sodipodi:nodetypes="cc" />
    <path
       style="fill:none;stroke:#000000;stroke-width:0.69999999;stroke-linecap:butt;stroke-linejoin:miter;stroke-miterlimit:4;stroke-opacity:1;stroke-dasharray:none"
       d="m 179.25461,278.23492 c 0.97062,-2.38859 2.71983,-3.58828 5.1875,-4.8125"
       id="path9140"
       inkscape:connector-curvature="0"
       sodipodi:nodetypes="cc" />
    <path
       style="fill:none;stroke:#000000;stroke-width:0.60000002;stroke-linecap:butt;stroke-linejoin:miter;stroke-miterlimit:4;stroke-opacity:1;stroke-dasharray:none"
       d="m 198.19211,290.20367 c 2.55847,1.36725 3.31726,3.03054 3.71875,3.96875"
       id="path9142"
       inkscape:connector-curvature="0"
       sodipodi:nodetypes="cc" />
    <path
       style="fill:none;stroke:#000000;stroke-width:0.60000002;stroke-linecap:butt;stroke-linejoin:miter;stroke-miterlimit:4;stroke-opacity:1;stroke-dasharray:none"
       d="m 199.81711,299.76617 2.4375,0.21875 1.1875,-1.34375"
       id="path9144"
       inkscape:connector-curvature="0" />
    <path
       style="fill:none;stroke:#000000;stroke-width:0.60000002;stroke-linecap:butt;stroke-linejoin:miter;stroke-miterlimit:4;stroke-opacity:1;stroke-dasharray:none"
       d="m 198.00461,306.95367 0.1875,0.0937 c 1.05844,1.31307 2.79065,1.26513 3.6875,1.09375 l 0,0"
       id="path9146"
       inkscape:connector-curvature="0"
       sodipodi:nodetypes="cccc" />
    <path
       style="fill:none;stroke:#000000;stroke-width:0.60000002;stroke-linecap:butt;stroke-linejoin:miter;stroke-miterlimit:4;stroke-opacity:1;stroke-dasharray:none"
       d="m 196.50461,308.81601 0.1875,0.0937 c 1.05844,1.31308 2.79065,1.26514 3.6875,1.09375 l 0,0"
       id="path9146-5"
       inkscape:connector-curvature="0"
       sodipodi:nodetypes="cccc" />
    <path
       style="fill:none;stroke:#000000;stroke-width:0.60000002;stroke-linecap:butt;stroke-linejoin:miter;stroke-miterlimit:4;stroke-opacity:1;stroke-dasharray:none"
       d="m 195.06711,310.50351 0.1875,0.0937 c 1.05844,1.31308 2.79065,1.26514 3.6875,1.09375 l 0,0"
       id="path9146-4"
       inkscape:connector-curvature="0"
       sodipodi:nodetypes="cccc" />
    <path
       style="fill:none;stroke:#000000;stroke-width:0.60000002;stroke-linecap:butt;stroke-linejoin:miter;stroke-miterlimit:4;stroke-opacity:1;stroke-dasharray:none"
       d="m 193.34836,312.25351 0.1875,0.0937 c 1.05844,1.31308 2.79065,1.26514 3.6875,1.09375 l 0,0"
       id="path9146-1"
       inkscape:connector-curvature="0"
       sodipodi:nodetypes="cccc" />
    <path
       style="fill:none;stroke:#000000;stroke-width:0.60000002;stroke-linecap:butt;stroke-linejoin:miter;stroke-miterlimit:4;stroke-opacity:1;stroke-dasharray:none"
       d="m 173.66086,324.60992 c -3.78488,1.86548 -3.51918,3.84487 -2.25,5.5625 1.82481,2.65121 2.4565,5.79052 0.625,9.9375"
       id="path9180"
       inkscape:connector-curvature="0"
       sodipodi:nodetypes="ccc" />
    <path
       style="fill:none;stroke:#000000;stroke-width:0.60000002;stroke-linecap:butt;stroke-linejoin:miter;stroke-miterlimit:4;stroke-opacity:1;stroke-dasharray:none"
       d="m 175.69211,327.54742 c 0.17872,3.80521 -1.93604,4.26573 -3.875,3.28125 l 0,0 0.125,0"
       id="path9182"
       inkscape:connector-curvature="0"
       sodipodi:nodetypes="cccc" />
  </g>
</svg>
