<?xml version="1.0" encoding="UTF-8" standalone="no"?>
<!-- Created with Inkscape (http://www.inkscape.org/) -->

<svg
   xmlns:dc="http://purl.org/dc/elements/1.1/"
   xmlns:cc="http://creativecommons.org/ns#"
   xmlns:rdf="http://www.w3.org/1999/02/22-rdf-syntax-ns#"
   xmlns:svg="http://www.w3.org/2000/svg"
   xmlns="http://www.w3.org/2000/svg"
   xmlns:sodipodi="http://sodipodi.sourceforge.net/DTD/sodipodi-0.dtd"
   xmlns:inkscape="http://www.inkscape.org/namespaces/inkscape"
   width="671.7514"
   height="447.49762"
   id="svg4323"
   version="1.1"
   inkscape:version="0.48.4 r9939"
   sodipodi:docname="Nieuw document 21">
  <defs
     id="defs4325" />
  <sodipodi:namedview
     id="base"
     pagecolor="#ffffff"
     bordercolor="#666666"
     borderopacity="1.0"
     inkscape:pageopacity="0.0"
     inkscape:pageshadow="2"
     inkscape:zoom="0.35"
     inkscape:cx="413.73285"
     inkscape:cy="40.89167"
     inkscape:document-units="px"
     inkscape:current-layer="layer1"
     showgrid="false"
     fit-margin-top="0"
     fit-margin-left="0"
     fit-margin-right="0"
     fit-margin-bottom="0"
     inkscape:window-width="1600"
     inkscape:window-height="837"
     inkscape:window-x="-8"
     inkscape:window-y="-8"
     inkscape:window-maximized="1" />
  <metadata
     id="metadata4328">
    <rdf:RDF>
      <cc:Work
         rdf:about="">
        <dc:format>image/svg+xml</dc:format>
        <dc:type
           rdf:resource="http://purl.org/dc/dcmitype/StillImage" />
        <dc:title></dc:title>
      </cc:Work>
    </rdf:RDF>
  </metadata>
  <g
     inkscape:label="Laag 1"
     inkscape:groupmode="layer"
     id="layer1"
     transform="translate(38.732845,-125.75623)">
    <rect
       style="fill:#fcdd08;fill-opacity:1;fill-rule:evenodd;stroke:none"
       id="rect4041"
       width="671.7514"
       height="447.49759"
       x="-38.732845"
       y="125.75626" />
    <path
       style="fill:#06882f;fill-opacity:1;stroke:none"
       d="m 299.44009,125.75623 -175,220.8533 175,226.6443 216.4285,0 -171.4285,-226.6443 171.4285,-220.8533 z"
       id="path4053"
       inkscape:connector-curvature="0" />
    <path
       style="fill:#fcdd08;fill-opacity:1"
       d="m 259.05799,442.47985 c -0.6763,-1.56105 -5.6558,-13.86001 -6.9921,-17.26973 -9.1044,-23.23089 -15.5496,-45.56111 -17.476,-60.54753 l -0.1672,-1.30108 -2.2611,2.2011 c -6.3294,6.16174 -14.3409,9.37118 -23.3885,9.36969 -8.85,-0.003 -16.7194,-3.18509 -23.0902,-9.3413 -6.6739,-6.4492 -10.2795,-15.44639 -9.7931,-24.43756 0.5876,-10.86101 5.901,-19.90245 15.2348,-25.92409 8.5044,-5.48642 20.7063,-6.65192 29.8741,-2.85354 0.6878,0.28497 1.2938,0.51813 1.3465,0.51813 0.053,0 -0.5251,-0.79779 -1.2841,-1.77287 -2.7504,-3.53386 -4.9201,-8.26493 -5.9263,-12.92221 -0.6416,-2.9698 -0.7794,-8.98234 -0.2708,-11.81415 1.8616,-10.36515 8.5315,-19.1559 18.0573,-23.79878 12.4068,-6.0471 27.4835,-3.73578 37.5112,5.75062 10.1765,9.62718 12.9961,24.19853 7.1344,36.86795 -1.4525,3.13925 -3.5708,6.26537 -5.7657,8.5088 -0.99,1.0118 -0.9338,1.09081 0.4867,0.68535 1.5116,-0.43145 6.0062,-0.99096 8.0001,-0.99588 8.6759,-0.0214 17.331,3.51783 23.4864,9.60413 5.6291,5.56586 8.7634,12.2077 9.5207,20.17573 0.2556,2.68819 0.2371,3.69365 -0.1175,6.42887 -1.0573,8.14576 -4.5238,14.81309 -10.5117,20.21817 -6.7786,6.1189 -15.7783,9.10817 -25.0974,8.33621 -8.1161,-0.67234 -15.7002,-4.24165 -21.1425,-9.95053 l -1.8491,-1.93961 -0.2092,0.72634 c -0.1147,0.3995 -0.2036,5.32111 -0.197,10.93692 0.018,14.35188 0.6065,20.36823 5.1012,52.06127 l 1.1085,7.81549 -0.5245,2.64717 c -0.4578,2.31134 -0.5591,2.56722 -0.7975,2.01692 z m 38.2682,-87.26109 c -8.8857,-7.69947 -20.5072,-12.74916 -32.0825,-13.94022 -1.2745,-0.13113 -0.9978,0.008 2.4779,1.2471 6.6056,2.3547 12.9246,5.08566 21.9101,9.4691 4.7342,2.3095 8.6662,4.20852 8.7379,4.22006 0.072,0.011 -0.3977,-0.43665 -1.0434,-0.99604 z m -90.7702,-9.31726 c 4.2499,-0.43447 10.1062,-1.85219 14.1709,-3.43065 2.2409,-0.87021 7.2406,-3.16678 7.1289,-3.27469 -0.05,-0.0489 -1.8112,0.30849 -3.9122,0.79436 -11.9658,2.76708 -22.8306,4.63837 -30.9511,5.33079 -2.1851,0.18634 -2.2001,0.19221 -1.0432,0.40866 3.2138,0.60126 9.6621,0.677 14.6067,0.17153 z m 39.9282,-39.60304 c -0.337,-4.94793 -0.3493,-14.18831 -0.027,-20.75875 0.1283,-2.63459 0.301,-6.15155 0.3823,-7.81549 l 0.1477,-3.02535 -0.6458,1.89084 c -0.8377,2.4531 -1.8346,6.81006 -2.2496,9.83239 -0.426,3.1025 -0.4306,10.55445 -0.014,13.61408 0.4743,3.4363 2.2788,10.77104 2.5786,10.48129 0.057,-0.0548 -0.023,-1.95338 -0.1774,-4.21901 z"
       id="path4161"
       inkscape:connector-curvature="0" />
    <path
       style="fill:#000000"
       d="m 12.601084,282.34837 0,-11.03787 7.9011,0 7.901,0 0.3072,-0.91257 c 0.6841,-2.03166 2.647,-6.67705 3.8127,-9.02289 4.3628,-8.77928 10.7432,-16.37522 18.0352,-21.47111 l 1.4174,-0.99054 -4.7108,-4.67597 c -2.591,-2.57179 -4.8839,-4.88527 -5.0955,-5.1411 l -0.3848,-0.46511 4.4825,-4.45946 4.4823,-4.45944 -1.1293,-0.83079 c -5.7314,-4.21612 -10.7651,-9.76094 -14.5778,-16.05797 -2.0165,-3.33078 -5.2194,-10.03047 -5.9828,-12.51538 -0.073,-0.23901 -0.2909,-0.84523 -0.4833,-1.34714 l -0.3499,-0.91258 -7.9025,0 -7.9026,0 0,-11.03788 0,-11.03787 17.63,0 17.63,0 0,0.9995 c 0,1.38578 0.3087,4.7988 0.6351,7.08335 1.3744,9.61533 4.6058,17.40656 9.9491,23.98781 1.1043,1.3602 5.219501,5.39147 6.575401,6.44129 l 0.8806,0.68186 3.3587,-3.3695 c 1.8472,-1.85323 3.4378,-3.3386 3.5346,-3.30083 0.096,0.0377 1.8571,1.75041 3.9118,3.8059 2.0547,2.05547 3.8455,3.73723 3.9793,3.73723 0.4474,0 3.2187,-2.23433 5.4966,-4.43161 3.3982,-3.27794 5.5355,-6.07944 7.7303,-10.13238 3.2155,-5.93812 4.9796,-11.99979 5.8536,-20.11405 0.1391,-1.29065 0.2553,-2.99197 0.2582,-3.78069 l 0.011,-1.43405 17.630005,0 17.63,0 0,10.95095 0,10.95097 -7.8209,0 -7.821,0 -0.2501,0.47801 c -0.1375,0.26291 -0.3935,0.90824 -0.5687,1.43405 -0.6303,1.89152 -2.1186,5.35164 -3.4301,7.97479 -4.5671,9.13433 -10.1338,15.83379 -17.757005,21.37031 l -2.2979,1.66887 1.9376,1.91894 c 1.0657,1.05543 3.110805,3.07292 4.544805,4.48329 l 2.6072,2.56436 -4.400605,4.25458 c -2.7042,2.6147 -4.3331,4.3136 -4.2257,4.40764 0.096,0.0841 0.8224,0.6123 1.6138,1.17363 5.936705,4.20992 11.036605,9.65492 15.082005,16.10231 2.2718,3.62089 5.4616,10.37457 6.8571,14.5187 l 0.3073,0.91257 7.9011,0 7.901,0 0,10.95096 0,10.95096 -17.63,0 -17.63,0 0,-0.99949 c 0,-1.34931 -0.453505,-5.96659 -0.805005,-8.21322 -1.8258,-11.67206 -7.1724,-21.58805 -15.2275,-28.24155 -1.0512,-0.86829 -2.2503,-1.80573 -2.6647,-2.08318 l -0.7533,-0.50446 -3.6397,3.51371 -3.6398,3.51371 -2.527,-2.48312 c -1.3898,-1.36571 -2.8557,-2.83288 -3.2574,-3.26039 -0.8554,-0.90996 -0.8903,-0.90286 -2.6611,0.54124 -9.863401,8.0436 -15.209801,18.59479 -16.722501,33.002 -0.1455,1.38626 -0.2662,3.1658 -0.2681,3.95452 l 0,1.43405 -17.63,0 -17.63,0 0,-11.03787 z m 64.856401,-47.28033 c 2.1621,-2.19888 4.571,-4.63222 5.3528,-5.4074 l 1.4215,-1.40944 -5.6372,-5.8043 c -3.1005,-3.19236 -5.6865,-5.80428 -5.7468,-5.80428 -0.061,0 -2.1164,2.03374 -4.5692,4.51944 -2.4528,2.48569 -5.057,5.10999 -5.7872,5.83179 l -1.327801,1.31232 5.698301,5.87246 5.6982,5.87244 0.4831,-0.49253 c 0.2656,-0.27089 2.252,-2.29162 4.4143,-4.4905 z"
       id="path4288"
       inkscape:connector-curvature="0" />
    <path
       style="fill:#000000"
       d="m 13.147084,525.91763 0,-11.03787 7.9011,0 7.901,0 0.3072,-0.91257 c 0.6841,-2.03166 2.647,-6.67705 3.8127,-9.02289 4.3628,-8.77928 10.7432,-16.37522 18.0352,-21.47111 l 1.4174,-0.99054 -4.7108,-4.67597 c -2.591,-2.57179 -4.8839,-4.88527 -5.0955,-5.1411 l -0.3848,-0.46511 4.4825,-4.45946 4.4823,-4.45944 -1.1293,-0.83079 c -5.7314,-4.21612 -10.7651,-9.76094 -14.5778,-16.05797 -2.0165,-3.33078 -5.2194,-10.03047 -5.9828,-12.51538 -0.073,-0.23901 -0.2909,-0.84523 -0.4833,-1.34714 l -0.3499,-0.91258 -7.9025,0 -7.9026,0 0,-11.03788 0,-11.03787 17.63,0 17.63,0 0,0.9995 c 0,1.38578 0.3087,4.7988 0.6351,7.08335 1.3744,9.61533 4.6058,17.40656 9.9491,23.98781 1.1043,1.3602 5.219501,5.39147 6.575401,6.44129 l 0.8806,0.68186 3.3587,-3.3695 c 1.8472,-1.85323 3.4378,-3.3386 3.5346,-3.30083 0.096,0.0377 1.8571,1.75041 3.9118,3.8059 2.0547,2.05547 3.8455,3.73723 3.9793,3.73723 0.4474,0 3.2187,-2.23433 5.4966,-4.43161 3.3982,-3.27794 5.5355,-6.07944 7.7303,-10.13238 3.2155,-5.93812 4.9796,-11.99979 5.853605,-20.11405 0.1391,-1.29065 0.2553,-2.99197 0.2582,-3.78069 l 0.011,-1.43405 17.63,0 17.63,0 0,10.95095 0,10.95097 -7.8209,0 -7.821,0 -0.2501,0.47801 c -0.1375,0.26291 -0.3935,0.90824 -0.5687,1.43405 -0.6303,1.89152 -2.1186,5.35164 -3.4301,7.97479 -4.5671,9.13433 -10.1338,15.83379 -17.757005,21.37031 l -2.2979,1.66887 1.9376,1.91894 c 1.0657,1.05543 3.110805,3.07292 4.544805,4.48329 l 2.6072,2.56436 -4.4006,4.25458 c -2.704205,2.6147 -4.333105,4.3136 -4.225705,4.40764 0.096,0.0841 0.8224,0.6123 1.6138,1.17363 5.936705,4.20992 11.036605,9.65492 15.082005,16.10231 2.2718,3.62089 5.4616,10.37457 6.8571,14.5187 l 0.3073,0.91257 7.9011,0 7.901,0 0,10.95096 0,10.95096 -17.63,0 -17.63,0 0,-0.99949 c 0,-1.34931 -0.4535,-5.96659 -0.805005,-8.21322 -1.8258,-11.67206 -7.1724,-21.58805 -15.2275,-28.24155 -1.0512,-0.86829 -2.2503,-1.80573 -2.6647,-2.08318 l -0.7533,-0.50446 -3.6397,3.51371 -3.6398,3.51371 -2.527,-2.48312 c -1.3898,-1.36571 -2.8557,-2.83288 -3.2574,-3.26039 -0.8554,-0.90996 -0.8903,-0.90286 -2.6611,0.54124 -9.863401,8.0436 -15.209801,18.59479 -16.722501,33.002 -0.1455,1.38626 -0.2662,3.1658 -0.2681,3.95452 l 0,1.43405 -17.63,0 -17.63,0 0,-11.03787 z M 78.003485,478.6373 c 2.1621,-2.19888 4.571,-4.63222 5.3528,-5.4074 l 1.4215,-1.40944 -5.6372,-5.8043 c -3.1005,-3.19236 -5.6865,-5.80428 -5.7468,-5.80428 -0.061,0 -2.1164,2.03374 -4.5692,4.51944 -2.4528,2.48569 -5.057,5.10999 -5.7872,5.83179 l -1.3278,1.31232 5.6983,5.87246 5.6982,5.87244 0.4831,-0.49253 c 0.2656,-0.27089 2.252,-2.29162 4.4143,-4.4905 z"
       id="path4288-1"
       inkscape:connector-curvature="0" />
  </g>
</svg>
