<?xml version="1.0" encoding="UTF-8" standalone="no"?>
<!-- Created with Inkscape (http://www.inkscape.org/) -->

<svg
   version="1.1"
   id="svg1"
   width="324"
   height="216"
   viewBox="0 0 324 216"
   xml:space="preserve"
   xmlns="http://www.w3.org/2000/svg"
   xmlns:svg="http://www.w3.org/2000/svg"><defs
     id="defs1"><clipPath
       clipPathUnits="userSpaceOnUse"
       id="clipPath17"><rect
         style="fill:#000000;fill-opacity:1;stroke:none;stroke-width:1;stroke-linecap:square;stroke-linejoin:round;stroke-dasharray:none;stroke-opacity:1"
         id="rect18"
         width="375.39682"
         height="267.46033"
         x="-30.15873"
         y="-148.4127"
         transform="rotate(-14.477395)" /></clipPath><clipPath
       clipPathUnits="userSpaceOnUse"
       id="clipPath19"><rect
         style="fill:#000000;fill-opacity:1;stroke:none;stroke-width:1;stroke-linecap:square;stroke-linejoin:round;stroke-dasharray:none;stroke-opacity:1"
         id="rect20"
         width="376.98413"
         height="268.25397"
         x="-39.682541"
         y="-230.15874"
         transform="rotate(-14.010413)" /></clipPath><clipPath
       clipPathUnits="userSpaceOnUse"
       id="clipPath32"><rect
         style="fill:#0056b1;fill-opacity:1;stroke:none;stroke-width:1;stroke-linecap:square;stroke-linejoin:round;stroke-dasharray:none;stroke-opacity:1"
         id="rect33"
         width="377.11865"
         height="267.79663"
         x="-40.677967"
         y="-344.91525"
         transform="rotate(-13.760184)" /></clipPath></defs><rect
     style="fill:#1a1a1a;stroke:none;stroke-linecap:round;stroke-linejoin:round"
     id="rect2"
     width="324"
     height="216"
     x="0"
     y="0" /><path
     id="path1"
     style="fill:#fcdd09;stroke-width:1.0166;stroke-linecap:round;stroke-linejoin:round;fill-opacity:1;stroke:none"
     d="M 324 0.4453125 L 208.88477 50.023438 A 71.191422 71.191422 0 0 0 166.5 36.03125 A 71.191422 71.191422 0 0 0 95.818359 98.720703 L 0 139.98828 L 0 215.98828 L 122.5332 163.21484 A 71.191422 71.191422 0 0 0 166.5 178.41406 A 71.191422 71.191422 0 0 0 237.39258 113.74609 L 324 76.445312 L 324 0.4453125 z " /><path
     id="circle1"
     style="fill:#1a1a1a;stroke:none;stroke-width:0.967098;stroke-linecap:round;stroke-linejoin:round"
     d="m 194.42721,52.057355 -0.12605,2.919922 -14.58827,7.602801 -0.009,-2.070837 -1.34037,0.05559 -0.10923,2.56212 -6.98723,13.498238 0.0536,-2.916207 h -1.27734 l -1.09375,30.470706 -32.47656,7.84375 -8.75782,8.75781 v 18.97461 l -19.16601,2.51172 c 12.26654,20.28459 34.24605,32.67922 57.95117,32.67969 23.88964,5.6e-4 46.01243,-12.58527 58.21875,-33.1211 l -26.21289,-2.98242 2.18945,-64.951172 h -1.27734 l -3.89505,-18.609375 0.18164,-3.225848 z" /><path
     id="path6"
     style="fill:#fcdd09;stroke:none;stroke-linecap:round;stroke-linejoin:round;fill-opacity:1"
     d="M 324 162.44336 L 199.65234 216 L 324 216 L 324 162.44336 z " /><path
     id="path7"
     style="fill:#fcdd09;stroke:none;stroke-linecap:round;stroke-linejoin:round;fill-opacity:1"
     d="M 0,53.55664 124.34766,0 H 0 Z" /></svg>
