<?xml version="1.0" encoding="UTF-8"?>
<svg xmlns="http://www.w3.org/2000/svg" width="450" height="300" viewBox="0 0 4500 3000">
<path style="fill:#f5dc0f" d="M4500,0 L898,0 898,3000 4500,3000 4500,0z" />
<path style="fill:#c70f2e" d="M2716,2714 L2681,2693 2647,2670 2612,2646 2578,2621 2544,2595 2511,2568 2478,2540 2445,2511 2413,2482 2382,2451 2351,2420 2322,2388 2292,2356 2264,2323 2237,2290 2211,2256 2186,2223 2162,2188 2139,2154 2118,2119 2098,2085 2079,2050 2062,2015 2046,1981 2032,1946 2019,1912 2009,1878 2000,1845 1993,1812 1988,1779 1985,1747 1984,1715 1986,1677 1992,1641 2001,1605 2014,1572 2029,1539 2048,1509 2069,1480 2093,1454 2119,1430 2148,1409 2178,1390 2210,1374 2244,1362 2280,1353 2316,1347 2354,1345 2384,1346 2413,1350 2442,1356 2470,1363 2497,1374 2523,1385 2548,1399 2572,1415 2595,1432 2616,1451 2636,1472 2655,1493 2671,1517 2686,1541 2698,1566 2709,1593 2723,1593 2734,1566 2746,1541 2761,1517 2777,1493 2796,1472 2816,1451 2837,1432 2860,1415 2884,1399 2909,1385 2935,1374 2962,1363 2990,1356 3019,1350 3048,1346 3078,1345 3116,1347 3152,1353 3188,1362 3222,1374 3254,1390 3285,1409 3313,1430 3340,1454 3363,1480 3385,1509 3403,1539 3419,1572 3431,1605 3440,1641 3446,1677 3448,1715 3447,1747 3444,1779 3439,1812 3432,1845 3423,1878 3413,1912 3400,1946 3386,1981 3370,2015 3353,2050 3334,2085 3314,2119 3293,2154 3270,2188 3246,2223 3221,2256 3195,2290 3168,2323 3140,2356 3110,2388 3081,2420 3050,2451 3019,2482 2987,2511 2954,2540 2921,2568 2888,2595 2854,2621 2820,2646 2785,2670 2751,2693 2716,2714z" />
<path style="fill:#c70f2e" d="M2199,1319 L2236,1308 2272,1300 2309,1294 2345,1292 2380,1292 2415,1295 2450,1301 2484,1310 2517,1322 2548,1337 2579,1354 2609,1374 2638,1397 2665,1423 2691,1452 2715,1483 2733,1460 2751,1438 2771,1417 2791,1398 2812,1381 2834,1365 2856,1351 2879,1338 2903,1327 2927,1318 2951,1309 2976,1303 3002,1298 3028,1294 3054,1292 3080,1292 3139,1289 3192,1281 3241,1267 3284,1248 3323,1225 3358,1197 3389,1165 3415,1130 3438,1090 3457,1048 3473,1002 3486,953 3496,902 3503,848 3508,792 3511,735 3489,779 3464,817 3438,850 3409,880 3380,906 3349,929 3317,950 3284,971 3251,990 3217,1010 3184,1030 3150,1052 3117,1076 3085,1103 3053,1133 3023,1168 3012,1158 3024,1140 3037,1123 3050,1107 3064,1090 3079,1074 3093,1058 3107,1042 3122,1026 3135,1010 3149,994 3161,977 3173,959 3184,941 3193,922 3201,903 3208,882 3215,853 3220,824 3223,795 3225,766 3225,738 3224,710 3221,682 3216,655 3211,628 3204,601 3196,574 3187,547 3177,521 3167,495 3155,469 3143,444 3140,491 3134,534 3128,574 3119,609 3109,642 3098,671 3086,697 3072,721 3058,743 3044,762 3028,780 3013,796 2997,811 2981,825 2965,838 2949,851 2934,863 2919,876 2905,889 2891,902 2879,916 2868,932 2857,948 2849,967 2842,987 2836,1009 2833,1033 2831,1061 2832,1091 2835,1124 2840,1161 2848,1201 2832,1203 2819,1150 2812,1103 2809,1063 2810,1027 2815,996 2822,967 2831,941 2840,916 2850,892 2859,867 2867,840 2872,811 2875,779 2874,743 2868,701 2857,653 2847,622 2836,594 2824,567 2810,541 2796,516 2781,491 2767,465 2752,439 2739,411 2726,382 2714,350 2704,316 2696,278 2690,237 2687,191 2686,141 2675,162 2665,184 2655,207 2646,231 2638,255 2631,280 2625,306 2620,331 2616,356 2614,382 2612,406 2612,431 2613,454 2616,477 2620,498 2625,518 2631,543 2634,566 2633,588 2630,610 2624,631 2616,652 2607,674 2597,697 2586,721 2575,748 2563,776 2553,808 2543,842 2534,880 2528,922 2523,969 2522,978 2522,988 2522,997 2522,1007 2522,1018 2522,1028 2523,1039 2524,1050 2525,1062 2527,1074 2529,1085 2532,1098 2535,1110 2538,1123 2542,1136 2547,1149 2531,1155 2524,1136 2517,1118 2512,1099 2507,1079 2504,1060 2502,1040 2501,1019 2501,998 2484,968 2465,942 2445,918 2424,895 2403,873 2381,851 2359,829 2338,805 2317,778 2297,749 2279,715 2262,677 2247,633 2235,584 2225,527 2218,462 2203,505 2191,546 2180,585 2171,623 2164,659 2158,694 2154,727 2151,758 2150,788 2151,817 2152,845 2156,871 2160,895 2166,919 2172,942 2180,963 2189,983 2199,1002 2210,1021 2222,1038 2235,1054 2248,1070 2263,1084 2277,1098 2293,1112 2309,1124 2326,1136 2343,1147 2360,1158 2378,1168 2397,1178 2415,1187 2407,1200 2390,1192 2373,1184 2356,1176 2341,1167 2326,1157 2311,1148 2297,1137 2284,1127 2271,1116 2258,1104 2246,1092 2234,1080 2223,1067 2212,1053 2201,1039 2191,1025 2173,1017 2156,1009 2139,1002 2122,995 2105,987 2088,979 2070,971 2053,961 2035,950 2018,937 2000,923 1981,906 1962,887 1943,865 1923,840 1903,812 1902,854 1902,896 1906,936 1912,974 1920,1011 1931,1047 1945,1081 1961,1114 1980,1146 2002,1175 2027,1203 2055,1230 2087,1255 2121,1278 2158,1299 2199,1319z" />
<path style="fill:#008d38" d="M0,0 L900,0 900,3000 0,3000 0,0z" />
<path style="fill:#ffffff;fill-rule:evenodd" d="M277,474 L290,486 306,496 325,505 347,513 371,520 397,525 423,528 451,530 478,531 505,530 531,527 555,523 578,517 598,509 615,500 629,489 630,478 630,467 630,456 630,444 630,433 630,421 630,408 630,396 630,372 628,349 624,327 619,305 613,285 604,266 595,247 584,231 572,215 560,202 546,190 531,179 515,171 498,165 481,161 463,159 445,160 427,163 410,168 394,175 378,185 363,196 349,209 336,223 325,240 314,257 305,276 297,297 291,318 286,340 282,363 281,387 281,399 280,410 279,422 279,433 278,443 277,454 277,464 277,474z M651,515 L639,527 623,538 601,546 576,553 548,558 518,561 486,562 454,562 421,560 389,556 359,551 331,544 306,536 284,526 267,515 255,502 240,511 227,522 215,533 206,545 198,557 192,570 188,583 187,597 188,612 192,627 198,641 206,655 217,668 230,681 245,693 262,704 280,714 300,723 322,731 345,738 368,744 393,748 419,751 446,752 473,752 499,750 524,747 548,743 571,737 593,731 613,723 632,714 649,704 665,693 678,681 690,669 699,656 706,642 710,628 712,613 712,599 709,586 704,573 697,560 688,548 677,536 665,525 651,515z M406,943 L419,924 429,905 438,885 445,866 451,847 455,827 458,806 460,785 435,786 409,784 408,802 405,819 402,836 397,853 391,871 383,888 374,905 363,923 365,929 368,935 372,939 377,942 383,944 390,945 397,945 406,943z " />
<path style="fill:#ffffff;fill-rule:evenodd" d="M277,2368 L290,2380 306,2390 325,2399 347,2407 371,2414 397,2419 423,2422 451,2424 478,2425 505,2424 531,2421 555,2417 578,2411 598,2403 615,2394 629,2383 630,2372 630,2361 630,2350 630,2338 630,2327 630,2315 630,2302 630,2290 630,2266 628,2243 624,2221 619,2199 613,2179 604,2160 595,2141 584,2125 572,2109 560,2096 546,2084 531,2073 515,2065 498,2059 481,2055 463,2053 445,2054 427,2057 410,2062 394,2069 378,2079 363,2090 349,2103 336,2117 325,2134 314,2151 305,2170 297,2191 291,2212 286,2234 282,2257 281,2281 281,2293 280,2304 279,2316 279,2327 278,2337 277,2348 277,2358 277,2368z M651,2409 L639,2421 623,2432 601,2440 576,2447 548,2452 518,2455 486,2456 454,2456 421,2454 389,2450 359,2445 331,2438 306,2430 284,2420 267,2409 255,2396 240,2405 227,2416 215,2427 206,2439 198,2451 192,2464 188,2477 187,2491 188,2506 192,2521 198,2535 206,2549 217,2562 230,2575 245,2587 262,2598 280,2608 300,2617 322,2625 345,2632 368,2638 393,2642 419,2645 446,2646 473,2646 499,2644 524,2641 548,2637 571,2631 593,2625 613,2617 632,2608 649,2598 665,2587 678,2575 690,2563 699,2550 706,2536 710,2522 712,2507 712,2493 709,2480 704,2467 697,2454 688,2442 677,2430 665,2419 651,2409z M406,2837 L419,2818 429,2799 438,2779 445,2760 451,2741 455,2721 458,2700 460,2679 435,2680 409,2678 408,2696 405,2713 402,2730 397,2747 391,2765 383,2782 374,2799 363,2817 365,2823 368,2829 372,2833 377,2836 383,2838 390,2839 397,2839 406,2837z " />
<path style="fill:#ffffff" d="M433,1652 L418,1648 407,1660 396,1671 383,1681 369,1689 354,1696 338,1701 322,1705 306,1708 290,1709 273,1709 256,1708 240,1705 224,1701 209,1696 194,1689 180,1681 167,1671 155,1659 145,1645 136,1631 130,1615 125,1599 122,1582 122,1565 123,1548 126,1532 132,1515 140,1500 150,1485 162,1472 177,1459 194,1449 208,1442 221,1438 234,1434 247,1432 259,1431 272,1431 284,1432 296,1433 307,1436 319,1439 331,1443 343,1446 355,1451 367,1455 379,1459 392,1463 400,1449 383,1437 367,1423 353,1408 341,1392 330,1375 320,1357 312,1338 306,1319 302,1299 299,1279 299,1260 300,1240 303,1220 308,1201 316,1183 325,1165 336,1151 349,1138 365,1128 382,1120 400,1114 419,1109 439,1107 459,1107 479,1109 499,1113 517,1119 535,1126 551,1136 564,1148 576,1162 585,1178 592,1197 597,1215 600,1234 601,1253 600,1271 597,1289 592,1308 586,1325 579,1343 570,1360 560,1377 550,1393 538,1409 526,1425 513,1440 500,1454 507,1467 516,1458 526,1449 537,1442 549,1436 562,1431 575,1427 588,1424 602,1421 616,1420 630,1420 644,1421 657,1423 671,1426 683,1429 696,1434 707,1439 724,1450 738,1463 750,1478 759,1495 766,1512 770,1531 772,1550 772,1570 770,1589 765,1608 758,1626 748,1644 737,1660 723,1674 707,1686 689,1696 677,1701 665,1704 652,1707 639,1708 626,1709 613,1708 600,1706 588,1703 575,1699 563,1695 551,1689 540,1683 529,1676 519,1667 510,1659 501,1649 487,1656 486,1672 485,1688 484,1703 482,1719 480,1735 477,1751 474,1767 471,1782 467,1798 463,1814 459,1829 454,1845 449,1860 444,1875 438,1890 432,1905 426,1909 418,1910 409,1910 400,1908 392,1905 385,1901 381,1896 380,1890 386,1877 392,1863 397,1849 402,1835 406,1821 410,1806 414,1791 418,1776 421,1761 424,1746 426,1730 428,1715 430,1699 431,1683 432,1668 433,1652z" />

</svg>
