<?xml version="1.0" encoding="UTF-8" standalone="no"?>
<!-- Created with Inkscape (http://www.inkscape.org/) -->

<svg
   xmlns:dc="http://purl.org/dc/elements/1.1/"
   xmlns:cc="http://creativecommons.org/ns#"
   xmlns:rdf="http://www.w3.org/1999/02/22-rdf-syntax-ns#"
   xmlns:svg="http://www.w3.org/2000/svg"
   xmlns="http://www.w3.org/2000/svg"
   xmlns:sodipodi="http://sodipodi.sourceforge.net/DTD/sodipodi-0.dtd"
   xmlns:inkscape="http://www.inkscape.org/namespaces/inkscape"
   width="324.88654"
   height="217.14288"
   id="svg6039"
   version="1.1"
   inkscape:version="0.48.4 r9939"
   sodipodi:docname="Nieuw document 20">
  <defs
     id="defs6041" />
  <sodipodi:namedview
     id="base"
     pagecolor="#ffffff"
     bordercolor="#666666"
     borderopacity="1.0"
     inkscape:pageopacity="0.0"
     inkscape:pageshadow="2"
     inkscape:zoom="1.4"
     inkscape:cx="282.58788"
     inkscape:cy="48.996851"
     inkscape:document-units="px"
     inkscape:current-layer="layer1"
     showgrid="false"
     fit-margin-top="0"
     fit-margin-left="0"
     fit-margin-right="0"
     fit-margin-bottom="0"
     inkscape:window-width="1600"
     inkscape:window-height="837"
     inkscape:window-x="-8"
     inkscape:window-y="-8"
     inkscape:window-maximized="1" />
  <metadata
     id="metadata6044">
    <rdf:RDF>
      <cc:Work
         rdf:about="">
        <dc:format>image/svg+xml</dc:format>
        <dc:type
           rdf:resource="http://purl.org/dc/dcmitype/StillImage" />
        <dc:title></dc:title>
      </cc:Work>
    </rdf:RDF>
  </metadata>
  <g
     inkscape:label="Laag 1"
     inkscape:groupmode="layer"
     id="layer1"
     transform="translate(-217.55673,-338.07645)">
    <rect
       style="fill:#0e44af;fill-opacity:1;fill-rule:evenodd;stroke:none"
       id="rect3004-8"
       width="324.12021"
       height="216.60339"
       x="-541.67694"
       y="338.61594"
       transform="scale(-1,1)" />
    <path
       style="fill:#ffffff;fill-opacity:1"
       d="m 276.97138,552.93306 c 2.55412,-2.89359 2.96328,-3.44262 7.05475,-9.46595 6.68582,-9.84258 8.96878,-12.69819 12.70575,-15.89278 7.82086,-6.68577 15.29644,-9.8132 25.7794,-10.78489 8.18682,-0.75886 9.42492,-0.89876 12.33765,-1.39425 8.01487,-1.36341 13.29349,-3.99644 19.56024,-9.75682 2.91778,-2.68204 4.31824,-4.41022 9.0789,-11.20351 5.20006,-7.42024 8.64416,-11.72436 12.44751,-15.55568 7.25854,-7.31188 14.47075,-11.42325 21.40622,-12.20275 1.40139,-0.15752 4.90153,-0.41546 7.77809,-0.57324 6.5337,-0.35833 9.07206,-0.66073 12.48357,-1.48715 5.07568,-1.22955 9.36488,-3.26036 13.39128,-6.34033 4.91634,-3.76074 7.89745,-7.05723 14.22804,-15.73331 9.3783,-12.85299 15.42505,-18.68535 23.56189,-22.72649 5.40235,-2.68306 7.8204,-3.22214 17.20046,-3.83467 9.53024,-0.62234 13.73296,-1.63112 19.47586,-4.67479 4.82811,-2.55885 10.88523,-7.6509 14.85063,-12.48449 0.92183,-1.12365 3.86885,-5.0892 6.54892,-8.81232 2.68008,-3.72313 5.73733,-7.81193 6.79389,-9.08622 1.86882,-2.25392 6.29692,-6.32963 7.96275,-7.32904 l 0.82609,-0.49561 0,-17.51116 0,-17.51116 -22.48168,0 -22.48167,0 -2.85189,3.49253 c -9.12816,11.17871 -17.59805,16.53948 -28.89275,18.28685 -0.95885,0.14834 -3.9762,0.40046 -6.70524,0.56027 -8.3986,0.49182 -12.41155,1.39197 -17.56775,3.94071 -3.52075,1.74034 -6.16547,3.56646 -9.62431,6.64541 -4.05997,3.61406 -6.96761,7.04561 -13.64743,16.10649 -6.81257,9.24092 -10.5169,13.19689 -15.60233,16.6622 -6.84244,4.66254 -12.28486,6.18981 -23.61878,6.628 -10.05404,0.3887 -15.14671,1.67295 -20.71588,5.22402 -7.14956,4.55878 -14.97136,13.03608 -22.33525,24.20701 -3.98154,6.03997 -7.79162,10.22806 -12.22097,13.43344 -2.71982,1.96825 -7.91684,4.61231 -10.72095,5.45445 -2.61829,0.78633 -7.33208,1.55568 -11.78778,1.92392 -12.8556,1.06243 -17.83531,2.39168 -24.74804,6.60605 -4.93428,3.00823 -9.04626,6.60733 -12.51384,10.95306 -1.08737,1.36275 -3.80079,5.21631 -6.02981,8.56346 -4.74152,7.11997 -6.32836,9.15415 -9.63112,12.34628 -6.98737,6.75332 -15.73943,10.37576 -27.87538,11.5375 l -1.94452,0.18615 0,22.17308 0,22.17303 28.27091,0 28.27091,0 1.98366,-2.2473 z"
       id="path3988"
       inkscape:connector-curvature="0" />
    <path
       sodipodi:nodetypes="cccccccccccccccccssscccccccsccccccccccccccccccccccccccccc"
       inkscape:connector-curvature="0"
       id="path38850-4"
       d="m 260.85406,360.13079 c -5.67386,-0.87315 -11.274,0.32743 -11.58783,3.63935 -3.3266,3.28917 -6.00803,3.90596 -12.2257,1.24002 2.03191,3.60548 6.42049,7.55364 11.80475,4.89938 -7.78994,1.63428 -7.98625,5.50333 -7.00204,9.40113 -0.61191,6.87012 -7.64761,8.74631 -12.4752,11.70944 3.56109,-0.13176 10.0598,0.67586 14.52627,-2.86473 -4.19597,2.75475 -5.72937,6.08179 -4.91268,9.91396 -0.2039,7.05699 -5.1322,10.58737 -10.01509,14.15196 2.55279,2.29516 10.1542,1.32188 14.36336,-5.66614 2.11532,9.65695 2.07979,18.9503 -7.69867,26.59648 -10.5555,11.21846 -8.2446,23.76164 -6.1609,36.28146 2.1745,-6.12184 -1.85759,-16.11174 12.8954,-20.10727 5.39111,-0.71256 9.2241,-6.9477 7.97662,-14.06412 1.04646,6.1621 4.61604,11.98569 10.68439,17.474 2.84452,-6.19155 6.08516,-12.27547 2.08364,-20.3273 6.40677,2.22995 9.871,2.11834 18.48983,9.34642 1.6637,3.06216 9.3682,2.95442 13.46514,1.11956 5.84743,-2.61876 7.93415,-7.94031 5.5191,-5.4168 -4.4953,4.69719 -21.24232,-5.16982 -27.46891,-17.36495 -1.14997,-2.25223 0.0135,1.00828 0.19324,-0.031 -1.11712,-7.96507 -3.34596,-15.49342 -10.01952,-21.27576 -3.15256,-8.39567 -2.35845,-12.59673 0.26026,-14.8586 -2.10554,8.4116 -0.7384,15.065 10.76041,16.58872 l 5.97519,9.24872 c -1.72425,5.63121 0.70065,17.19842 12.38716,17.35163 l -1.08862,-3.08918 c 0,0 8.31138,1.74887 5.96289,1.50707 -2.34845,-0.2418 -7.67795,-9.12635 -7.67795,-9.12635 3.88925,0.96509 4.39239,-0.21288 2.29163,-3.03885 5.9108,2.28682 10.17606,-1.93105 8.09026,-7.50283 l -3.53845,-2.15057 c -3.1287,-4.91828 -2.90513,-8.4742 -3.59858,-12.40282 0.93794,-5.94911 0.43208,-11.23371 -4.23678,-14.6022 4.8311,-0.29096 12.23342,0.33016 9.69789,-2.57399 9.30896,0.23986 17.63999,0.0931 14.93299,-4.41666 14.98426,2.79128 15.10788,-0.1927 15.16711,-3.20171 14.10878,3.41715 11.63265,-0.0532 11.0652,-2.73092 6.37811,1.36655 11.95821,2.03801 11.71085,-2.36675 4.17065,-0.0818 10.45789,2.62711 11.32469,-1.81109 6.60859,0.96803 9.08058,-0.57808 11.03985,-2.4358 l 9.69785,-2.57401 0.51287,-2.03114 -12.97685,1.34326 c -5.83743,-1.83997 -6.3408,-0.15598 -8.17852,0.64648 -8.30366,-1.20989 -11.53157,0.28149 -13.41368,2.48911 -8.32013,-1.44639 -10.50013,-0.15782 -11.97031,1.4469 -7.24789,-1.44136 -13.16927,-1.81034 -13.72382,2.15948 -14.56526,-3.13161 -11.1184,0.49748 -13.6985,1.86438 -10.60915,-2.80913 -11.78839,-0.49544 -12.69198,1.96802 -12.20692,-4.34944 -10.78032,-0.22118 -13.00214,1.63836 l -4.18413,-2.51474 c 2.34669,-5.92004 -0.54641,-9.99573 -8.07026,-12.44154 l 2.07592,7.35872 c -0.32547,3.5198 -6.52617,2.19243 -6.29841,-1.54158 l 0.29786,-7.41205 c -6.60081,-0.47291 -8.8928,5.45965 -7.33713,10.55746 z"
       style="fill:#ffffff;fill-opacity:1;stroke:#000000;stroke-width:2.08628726px;stroke-linecap:butt;stroke-linejoin:miter;stroke-opacity:0" />
    <path
       sodipodi:nodetypes="ccccc"
       inkscape:connector-curvature="0"
       id="path38852-1"
       d="m 292.48921,384.89736 c -3.63351,-0.82684 -6.48924,-2.07537 -7.64501,-4.58291 -3.44939,-6.54391 -7.9871,-3.86986 -8.97751,-2.85944 4.8396,-1.51918 5.90134,-0.13427 7.55954,3.60657 2.47153,4.47099 6.47319,3.11544 9.06298,3.83578 z"
       style="fill:#0e44af;fill-opacity:1;stroke:#000000;stroke-width:2.08628726px;stroke-linecap:butt;stroke-linejoin:miter;stroke-opacity:0" />
    <path
       sodipodi:nodetypes="cscc"
       inkscape:connector-curvature="0"
       id="path38854-4"
       d="m 281.91586,378.44997 c 0.80392,0.43396 1.11637,1.72062 1.62295,2.8178 0.80419,1.74168 3.0682,3.21985 4.8825,3.21075 -3.64205,5.46032 -7.87845,1.11998 -6.50545,-6.02855 z"
       style="fill:#ffffff;fill-opacity:1;stroke:#000000;stroke-width:2.08628726px;stroke-linecap:butt;stroke-linejoin:miter;stroke-opacity:0" />
    <path
       d="m 34.727491,31.641022 c 0,0.543801 -0.360301,0.98464 -0.804754,0.98464 -0.444453,0 -0.804754,-0.440839 -0.804754,-0.98464 0,-0.543802 0.360301,-0.98464 0.804754,-0.98464 0.444453,0 0.804754,0.440838 0.804754,0.98464 z"
       sodipodi:ry="0.98463982"
       sodipodi:rx="0.80475372"
       sodipodi:cy="31.641022"
       sodipodi:cx="33.922737"
       id="path38856-57"
       style="fill:#0e44af;fill-opacity:1;stroke:#000000;stroke-width:1.505;stroke-miterlimit:4;stroke-opacity:0;stroke-dasharray:none"
       sodipodi:type="arc"
       transform="matrix(2.2147352,0.22803061,-0.167246,1.9480691,215.67814,314.69346)" />
    <path
       d="m 33.742848,31.603151 c 0,0.151637 -0.07842,0.274563 -0.175152,0.274563 -0.09673,0 -0.175153,-0.122926 -0.175153,-0.274563 0,-0.151637 0.07842,-0.274563 0.175153,-0.274563 0.09673,0 0.175152,0.122926 0.175152,0.274563 z"
       sodipodi:ry="0.27456304"
       sodipodi:rx="0.17515227"
       sodipodi:cy="31.603151"
       sodipodi:cx="33.567696"
       id="path38858-63"
       style="fill:#ffffff;fill-opacity:1;stroke:#000000;stroke-width:1.505;stroke-miterlimit:4;stroke-opacity:0;stroke-dasharray:none"
       sodipodi:type="arc"
       transform="matrix(2.2147352,0.22803061,-0.167246,1.9480691,215.67814,314.69346)" />
    <path
       sodipodi:nodetypes="ccc"
       inkscape:connector-curvature="0"
       id="path38860-4"
       d="m 281.95087,378.3587 c -2.04213,4.73936 1.42104,14.06184 6.40939,6.18583 -3.81781,4.01885 -6.95122,2.0355 -6.40939,-6.18583 z"
       style="fill:#0e44af;fill-opacity:1;stroke:#000000;stroke-width:2.08628726px;stroke-linecap:butt;stroke-linejoin:miter;stroke-opacity:0" />
    <path
       sodipodi:nodetypes="ccccc"
       inkscape:connector-curvature="0"
       id="path38862-6"
       d="m 265.06806,365.25355 c 0.39163,2.24699 0.17273,4.02208 -2.37397,3.99791 -3.63975,1.02485 -2.62153,3.36861 -2.00376,5.59902 0.28963,-1.61945 -0.74844,-3.4496 2.84402,-4.54494 3.52853,-0.98687 2.5424,-3.01645 1.53371,-5.05199 z"
       style="fill:#0e44af;fill-opacity:1;stroke:#000000;stroke-width:2.08628726px;stroke-linecap:butt;stroke-linejoin:miter;stroke-opacity:0" />
    <path
       sodipodi:nodetypes="ccccc"
       inkscape:connector-curvature="0"
       id="path38862-9-3"
       d="m 256.05857,371.80585 c 0.3916,2.24697 0.17272,4.02206 -2.37396,3.99791 -3.63988,1.02482 -2.6216,3.36861 -2.00382,5.59899 0.28874,-1.61954 -0.74838,-3.44958 2.84408,-4.54493 3.52846,-0.98688 2.54233,-3.01645 1.5337,-5.05197 z"
       style="fill:#0e44af;fill-opacity:1;stroke:#000000;stroke-width:2.08628726px;stroke-linecap:butt;stroke-linejoin:miter;stroke-opacity:0" />
    <path
       sodipodi:nodetypes="ccccc"
       inkscape:connector-curvature="0"
       id="path38862-2-8"
       d="m 250.51823,370.61349 c 1.49644,1.88782 2.21738,3.59082 -0.0173,4.58935 -2.64985,2.39102 -0.55669,4.11587 1.12825,5.89792 -0.57937,-1.58971 -2.42558,-2.83917 0.14659,-5.27545 2.57205,-2.31193 0.66856,-3.76369 -1.25754,-5.21182 z"
       style="fill:#0e44af;fill-opacity:1;stroke:#000000;stroke-width:2.08628726px;stroke-linecap:butt;stroke-linejoin:miter;stroke-opacity:0" />
    <path
       sodipodi:nodetypes="ccccc"
       inkscape:connector-curvature="0"
       id="path38862-8-3"
       d="m 281.19375,370.88176 c -3.65159,-0.55639 -6.35287,-1.65458 -5.4309,-4.81923 -0.33972,-5.01545 -4.36032,-4.83533 -8.0645,-5.1019 2.4333,1.11404 5.65713,0.67051 6.12358,5.6597 0.31896,4.85904 3.83681,4.57289 7.37182,4.26143 z"
       style="fill:#0e44af;fill-opacity:1;stroke:#000000;stroke-width:3.03234506px;stroke-linecap:butt;stroke-linejoin:miter;stroke-opacity:0" />
    <path
       sodipodi:nodetypes="ccccc"
       inkscape:connector-curvature="0"
       id="path38862-8-0-4"
       d="m 289.0722,375.48211 c -3.65157,-0.55639 -6.35289,-1.65459 -5.43086,-4.81923 -0.33972,-5.01545 -4.36037,-4.83533 -8.0645,-5.10192 2.43328,1.11405 5.65708,0.6705 6.12357,5.65972 0.31892,4.85904 3.83682,4.57289 7.3718,4.26143 z"
       style="fill:#0e44af;fill-opacity:1;stroke:#000000;stroke-width:3.03234506px;stroke-linecap:butt;stroke-linejoin:miter;stroke-opacity:0" />
    <path
       sodipodi:nodetypes="ccccccccc"
       inkscape:connector-curvature="0"
       id="path38914-27"
       d="m 264.78399,381.37496 c -3.38822,4.43381 -9.94643,13.64222 8.63653,19.64483 l 6.69682,8.72761 c -3.26117,11.32445 2.76662,14.82345 12.3999,17.20407 -11.22237,-3.66855 -14.22566,-10.08078 -9.11748,-21.92713 l -1.96886,3.22091 -4.08886,-7.56598 5.38055,0.40521 c -10.32668,-3.04085 -23.59586,-4.89938 -17.9386,-19.70944 z"
       style="fill:#e6e6e6;stroke:#000000;stroke-width:2.08628726px;stroke-linecap:butt;stroke-linejoin:miter;stroke-opacity:0" />
    <path
       sodipodi:nodetypes="cccc"
       inkscape:connector-curvature="0"
       id="path38916-89"
       d="m 293.34753,405.45314 c 0.0388,0.53494 -1.04035,2.43007 1.36471,4.30844 2.79759,1.66603 3.60212,-0.66855 3.25927,-1.00412 -0.81727,1.54913 -4.98678,1.48989 -4.62398,-3.30432 z"
       style="fill:#666666;stroke:#000000;stroke-width:2.08628726px;stroke-linecap:butt;stroke-linejoin:miter;stroke-opacity:0" />
    <path
       sodipodi:nodetypes="cccc"
       inkscape:connector-curvature="0"
       id="path38916-8-0"
       d="m 293.30756,405.38324 c 0.0342,0.6301 -1.11489,2.87939 1.37521,5.06024 2.90258,1.92503 3.77004,-0.83846 3.41586,-1.22929 -0.87164,1.83771 -5.22584,1.8261 -4.79107,-3.83095 z"
       style="fill:#0e44af;fill-opacity:1;stroke:#000000;stroke-width:2.31490755px;stroke-linecap:butt;stroke-linejoin:miter;stroke-opacity:0" />
    <path
       sodipodi:nodetypes="ccc"
       inkscape:connector-curvature="0"
       id="path38936-14"
       d="m 229.25473,390.72125 c 12.63751,2.45576 16.43132,-2.89206 18.2471,-10.43616 -2.85484,6.07274 -7.3825,10.47059 -18.2471,10.43616 z"
       style="fill:#cccccc;stroke:#000000;stroke-width:2.08628726px;stroke-linecap:butt;stroke-linejoin:miter;stroke-opacity:0" />
    <path
       sodipodi:nodetypes="ccc"
       inkscape:connector-curvature="0"
       id="path38936-5-0"
       d="m 228.70143,411.79926 c 6.9711,7.30535 16.41666,-2.87934 18.24718,-10.43616 -2.86022,6.07765 -11.48637,14.20758 -18.24718,10.43616 z"
       style="fill:#cccccc;stroke:#000000;stroke-width:2.08628726px;stroke-linecap:butt;stroke-linejoin:miter;stroke-opacity:0" />
    <path
       sodipodi:nodetypes="ccc"
       inkscape:connector-curvature="0"
       id="path38936-1-7"
       d="m 237.28633,365.24612 c 5.24431,9.45311 12.81509,5.87332 18.9722,0.51345 -6.22814,3.70711 -12.75046,6.94144 -18.9722,-0.51345 z"
       style="fill:#cccccc;stroke:#000000;stroke-width:2.08628726px;stroke-linecap:butt;stroke-linejoin:miter;stroke-opacity:0" />
    <path
       sodipodi:nodetypes="ccccc"
       inkscape:connector-curvature="0"
       id="path38862-2-4-7-9"
       d="m 228.58503,412.39226 c 3.447,-2.20571 8.66861,-5.98095 10.17581,-11.4674 -0.01,-6.57598 1.70759,-7.12998 6.5062,-9.87532 -3.06821,2.99315 -4.4795,3.53668 -4.6406,10.16185 -2.5282,6.63202 -7.9836,9.33804 -12.04141,11.18087 z"
       style="fill:#cccccc;fill-opacity:1;stroke:#000000;stroke-width:3.96275544px;stroke-linecap:butt;stroke-linejoin:miter;stroke-opacity:0" />
    <path
       sodipodi:nodetypes="ccccc"
       inkscape:connector-curvature="0"
       id="path39006-5"
       d="m 229.81854,469.32007 c 0.05,-9.28132 2.4382,-16.86525 12.61339,-18.79658 4.74278,-0.67306 9.76772,-4.67654 8.55611,-14.89758 -1.8426,3.54202 -1.02534,7.54055 -8.1506,10.17598 -12.48791,4.6727 -15.8013,12.91096 -13.0189,23.51818 z"
       style="fill:#cccccc;fill-opacity:1;stroke:#000000;stroke-width:2.08628726px;stroke-linecap:butt;stroke-linejoin:miter;stroke-opacity:0" />
    <path
       sodipodi:nodetypes="ccc"
       inkscape:connector-curvature="0"
       id="path39008-68"
       d="m 261.69776,452.80479 c -8.80939,-6.2881 -15.05571,-12.9245 -9.2092,-22.8297 -1.17686,8.23121 1.30328,15.64095 9.2092,22.8297 z"
       style="fill:#e6e6e6;fill-opacity:1;stroke:#000000;stroke-width:2.08628726px;stroke-linecap:butt;stroke-linejoin:miter;stroke-opacity:0" />
    <path
       sodipodi:nodetypes="ccc"
       inkscape:connector-curvature="0"
       id="path39008-6-98"
       d="m 260.71062,452.34386 c 5.61592,-8.25068 8.66888,-16.15217 -1.06336,-23.93796 4.61958,7.44262 5.44405,15.07759 1.06336,23.93796 z"
       style="fill:#cccccc;fill-opacity:1;stroke:#000000;stroke-width:2.08628726px;stroke-linecap:butt;stroke-linejoin:miter;stroke-opacity:0" />
    <path
       sodipodi:nodetypes="ccccc"
       inkscape:connector-curvature="0"
       id="path39028-9"
       d="m 263.49001,432.19588 c 8.83742,3.13727 13.45819,6.7585 16.86608,10.51891 10.3752,7.62081 19.2283,0.29437 21.52272,-6.26866 -5.56239,2.47859 -10.27157,7.98179 -17.74667,3.68037 -7.92037,-4.31121 -15.09401,-7.42463 -20.64213,-7.93062 z"
       style="fill:#cccccc;fill-opacity:1;stroke:#000000;stroke-width:2.08628726px;stroke-linecap:butt;stroke-linejoin:miter;stroke-opacity:0" />
    <path
       sodipodi:nodetypes="ccc"
       inkscape:connector-curvature="0"
       id="path39030-97"
       d="m 284.6471,367.16344 c -0.53449,-10.18876 12.50511,-4.7922 16.79859,2.25587 -10.72391,-7.68234 -15.49428,-7.31291 -16.79859,-2.25587 z"
       style="fill:#e6e6e6;fill-opacity:1;stroke:#000000;stroke-width:2.08628726px;stroke-linecap:butt;stroke-linejoin:miter;stroke-opacity:0" />
    <path
       sodipodi:nodetypes="ccc"
       inkscape:connector-curvature="0"
       id="path39030-1-0"
       d="m 297.27924,365.58124 c -0.53449,-10.18877 12.50506,-4.79221 16.79859,2.25585 -10.72395,-7.68231 -15.49427,-7.31289 -16.79859,-2.25585 z"
       style="fill:#cccccc;fill-opacity:1;stroke:#000000;stroke-width:2.08628726px;stroke-linecap:butt;stroke-linejoin:miter;stroke-opacity:0" />
    <path
       sodipodi:nodetypes="ccc"
       inkscape:connector-curvature="0"
       id="path39030-6-8"
       d="m 310.55084,364.31629 c -0.53448,-10.18875 12.50511,-4.79218 16.79859,2.25588 -10.72389,-7.68232 -15.4943,-7.31292 -16.79859,-2.25588 z"
       style="fill:#cccccc;fill-opacity:1;stroke:#000000;stroke-width:2.08628726px;stroke-linecap:butt;stroke-linejoin:miter;stroke-opacity:0" />
    <path
       sodipodi:nodetypes="ccc"
       inkscape:connector-curvature="0"
       id="path39030-8-4"
       d="m 323.50246,362.59739 c -0.53449,-10.18875 12.5051,-4.79219 16.79858,2.25587 -10.72389,-7.68233 -15.49427,-7.31291 -16.79858,-2.25587 z"
       style="fill:#ffffff;fill-opacity:1;stroke:#000000;stroke-width:2.08628726px;stroke-linecap:butt;stroke-linejoin:miter;stroke-opacity:0" />
    <path
       sodipodi:nodetypes="ccc"
       inkscape:connector-curvature="0"
       id="path39030-0-5"
       d="m 336.29611,360.58767 c -0.54227,-8.24428 11.0517,-3.77476 14.90466,1.95984 -9.55684,-6.29939 -13.7826,-6.0391 -14.90466,-1.95984 z"
       style="fill:#ffffff;fill-opacity:1;stroke:#000000;stroke-width:1.7662971px;stroke-linecap:butt;stroke-linejoin:miter;stroke-opacity:0" />
    <path
       sodipodi:nodetypes="ccc"
       inkscape:connector-curvature="0"
       id="path39030-0-8-6"
       d="m 349.27957,358.10012 c -0.52452,-7.35375 10.20545,-3.32872 13.7833,1.79825 -8.85206,-5.64997 -12.75757,-5.43216 -13.7833,-1.79825 z"
       style="fill:#ffffff;fill-opacity:1;stroke:#000000;stroke-width:1.60366201px;stroke-linecap:butt;stroke-linejoin:miter;stroke-opacity:0" />
    <path
       sodipodi:nodetypes="ccc"
       inkscape:connector-curvature="0"
       id="path39030-0-6-9"
       d="m 362.88706,356.04817 c -0.33,-6.07487 7.55207,-2.84667 10.15103,1.35887 -6.48458,-4.58902 -9.36651,-4.37273 -10.15103,-1.35887 z"
       style="fill:#cccccc;fill-opacity:1;stroke:#000000;stroke-width:1.25213253px;stroke-linecap:butt;stroke-linejoin:miter;stroke-opacity:0" />
    <path
       sodipodi:nodetypes="ccc"
       inkscape:connector-curvature="0"
       id="path39096-3"
       d="m 293.57233,369.13493 c 4.95347,3.30265 18.41402,8.06047 20.26311,0.92849 1.29588,9.09019 -14.47215,6.72636 -20.26311,-0.92849 z"
       style="fill:#cccccc;fill-opacity:1;stroke:#000000;stroke-width:2.08628726px;stroke-linecap:butt;stroke-linejoin:miter;stroke-opacity:0" />
    <path
       sodipodi:nodetypes="ccc"
       inkscape:connector-curvature="0"
       id="path39096-5-62"
       d="m 308.60361,365.81088 c 4.9535,3.30265 18.41406,8.06047 20.26314,0.92849 1.29588,9.09019 -14.47215,6.72636 -20.26314,-0.92849 z"
       style="fill:#cccccc;fill-opacity:1;stroke:#000000;stroke-width:2.08628726px;stroke-linecap:butt;stroke-linejoin:miter;stroke-opacity:0" />
    <path
       sodipodi:nodetypes="ccc"
       inkscape:connector-curvature="0"
       id="path39096-7-0"
       d="m 324.70818,363.29321 c 3.85708,3.0759 14.40016,7.39588 15.96266,0.5329 0.88845,8.68311 -11.50906,6.6965 -15.96266,-0.5329 z"
       style="fill:#cccccc;fill-opacity:1;stroke:#000000;stroke-width:1.81261146px;stroke-linecap:butt;stroke-linejoin:miter;stroke-opacity:0" />
    <path
       sodipodi:nodetypes="ccc"
       inkscape:connector-curvature="0"
       id="path39096-7-1-06"
       d="m 337.23788,360.7685 c 3.3217,2.98539 12.44251,7.11619 13.86993,0.33211 0.68463,8.54861 -10.07164,6.74036 -13.86993,-0.33211 z"
       style="fill:#cccccc;fill-opacity:1;stroke:#000000;stroke-width:1.67774141px;stroke-linecap:butt;stroke-linejoin:miter;stroke-opacity:0" />
    <path
       sodipodi:nodetypes="ccc"
       inkscape:connector-curvature="0"
       id="path39096-7-1-0-5"
       d="m 349.18605,357.97987 c 3.27319,2.59238 12.21796,6.23651 13.53958,0.45897 0.7582,7.31165 -9.75824,5.63095 -13.53958,-0.45897 z"
       style="fill:#ffffff;fill-opacity:1;stroke:#000000;stroke-width:1.53180122px;stroke-linecap:butt;stroke-linejoin:miter;stroke-opacity:0" />
    <path
       sodipodi:nodetypes="ccc"
       inkscape:connector-curvature="0"
       id="path39096-7-1-2-16"
       d="m 362.48577,356.15591 c 2.58231,2.22366 9.66098,5.31635 10.747,0.29484 0.5555,6.33633 -7.78349,4.95872 -10.747,-0.29484 z"
       style="fill:#cccccc;fill-opacity:1;stroke:#000000;stroke-width:1.27115309px;stroke-linecap:butt;stroke-linejoin:miter;stroke-opacity:0" />
    <path
       style="fill:#0e44af;fill-opacity:1;stroke:none"
       d="m 264.70593,380.98593 c -7.57961,5.80317 -3.75711,16.19992 -0.80356,18.125 -3.98357,-7.32203 -2.26349,-13.45996 0.80356,-18.125 z"
       id="path5988"
       inkscape:connector-curvature="0"
       sodipodi:nodetypes="ccc" />
  </g>
</svg>
