<?xml version="1.0" encoding="UTF-8" standalone="no"?>
<svg
   xmlns:dc="http://purl.org/dc/elements/1.1/"
   xmlns:cc="http://creativecommons.org/ns#"
   xmlns:rdf="http://www.w3.org/1999/02/22-rdf-syntax-ns#"
   xmlns:svg="http://www.w3.org/2000/svg"
   xmlns="http://www.w3.org/2000/svg"
   version="1.1"
   viewBox="0 0 4500 3000"
   height="3.0000in"
   width="4.5000in"
   id="Vlag van Koudum">
  <metadata
     id="metadata4880">
    <rdf:RDF>
      <cc:Work
         rdf:about="">
        <dc:format>image/svg+xml</dc:format>
        <dc:type
           rdf:resource="http://purl.org/dc/dcmitype/StillImage" />
        <dc:title></dc:title>
      </cc:Work>
    </rdf:RDF>
  </metadata>
  <defs
     id="defs4878" />
  <path
     id="path4860"
     d="M1835,3000 L4500,3000 4500,2400 1835,2400 1835,3000z"
     style="fill:#c70f2e" />
  <path
     id="path4862"
     d="M0,3000 L1835,3000 1835,2400 0,2400 0,3000z"
     style="fill:#002673" />
  <path
     id="path4864"
     d="M0,2400 L4500,2400 4500,1800 0,1800 0,2400z"
     style="fill:#f5dc0f" />
  <path
     id="path4866"
     d="M1835,1800 L4500,1800 4500,1200 1835,1200 1835,1800z"
     style="fill:#c70f2e" />
  <path
     id="path4868"
     d="M1835,1200 L4500,1200 4500,600 1835,600 1835,1200z"
     style="fill:#f5dc0f" />
  <path
     id="path4870"
     d="M1835,600 L4500,600 4500,0 1835,0 1835,600z"
     style="fill:#c70f2e" />
  <path
     id="path4872"
     d="M0,0 L1835,0 1835,1800 0,1800 0,0z"
     style="fill:#002673" />
  <path
     id="path4874"
     d="M1301,902 L1494,567 1108,567 918,235 727,567 344,567 535,898 343,1232 728,1232 918,1565 1110,1232 1492,1232 1301,902z"
     style="fill:#f5dc0f" />
</svg>
