<?xml version="1.0" encoding="UTF-8" standalone="no"?>
<!-- Created with Inkscape (http://www.inkscape.org/) -->

<svg
   xmlns:dc="http://purl.org/dc/elements/1.1/"
   xmlns:cc="http://creativecommons.org/ns#"
   xmlns:rdf="http://www.w3.org/1999/02/22-rdf-syntax-ns#"
   xmlns:svg="http://www.w3.org/2000/svg"
   xmlns="http://www.w3.org/2000/svg"
   xmlns:sodipodi="http://sodipodi.sourceforge.net/DTD/sodipodi-0.dtd"
   xmlns:inkscape="http://www.inkscape.org/namespaces/inkscape"
   width="323.24887"
   height="211.98955"
   id="svg4982"
   version="1.1"
   inkscape:version="0.48.4 r9939"
   sodipodi:docname="Nieuw document 47">
  <defs
     id="defs4984" />
  <sodipodi:namedview
     id="base"
     pagecolor="#ffffff"
     bordercolor="#666666"
     borderopacity="1.0"
     inkscape:pageopacity="0.0"
     inkscape:pageshadow="2"
     inkscape:zoom="0.35"
     inkscape:cx="205.19586"
     inkscape:cy="-91.148087"
     inkscape:document-units="px"
     inkscape:current-layer="layer1"
     showgrid="false"
     fit-margin-top="0"
     fit-margin-left="0"
     fit-margin-right="0"
     fit-margin-bottom="0"
     inkscape:window-width="1600"
     inkscape:window-height="837"
     inkscape:window-x="-8"
     inkscape:window-y="-8"
     inkscape:window-maximized="1" />
  <metadata
     id="metadata4987">
    <rdf:RDF>
      <cc:Work
         rdf:about="">
        <dc:format>image/svg+xml</dc:format>
        <dc:type
           rdf:resource="http://purl.org/dc/dcmitype/StillImage" />
        <dc:title></dc:title>
      </cc:Work>
    </rdf:RDF>
  </metadata>
  <g
     inkscape:label="Laag 1"
     inkscape:groupmode="layer"
     id="layer1"
     transform="translate(-169.80414,-229.22455)">
    <rect
       style="fill:#0f47af;fill-opacity:1;stroke:none"
       id="rect3006"
       width="215.41502"
       height="211.98955"
       x="169.80414"
       y="229.22455" />
    <rect
       style="fill:#fcdd09;fill-opacity:1;stroke:none"
       id="rect3021"
       width="107.83379"
       height="211.98955"
       x="385.21921"
       y="229.22455" />
    <path
       style="fill:#fcdd09;fill-opacity:1"
       d="m 300.01298,417.60832 c -5.9549,-5.58959 -8.65777,-10.0173 -9.63829,-15.789 l -0.49353,-2.90506 -4.66245,9.58604 c -5.35817,11.01651 -5.01433,11.31348 -4.03845,-3.4877 0.34135,-5.17724 0.62608,-10.1163 0.63274,-10.97566 0.01,-1.4551 -0.43658,-1.02348 -6.5141,6.27762 -3.58944,4.31209 -8.42717,10.0748 -10.75052,12.80595 -3.94733,4.64024 -4.1541,4.81154 -3.15377,2.61255 3.45754,-7.6005 7.6483,-17.36294 7.52048,-17.5191 -0.082,-0.10036 -6.06932,3.65953 -13.30521,8.35499 -7.23586,4.69543 -13.15609,8.45931 -13.15609,8.36415 0,-0.0953 2.79235,-5.22937 6.20525,-11.40938 3.4129,-6.17998 6.20526,-11.47739 6.20526,-11.77197 0,-1.34969 -1.06108,-0.9334 -4.39991,1.72611 -4.67862,3.72662 -12.32864,8.57767 -17.33951,10.99531 -3.88748,1.87563 -12.03368,4.67849 -12.37726,4.25868 -0.095,-0.11608 2.02169,-2.20512 4.7037,-4.64236 16.78336,-15.25152 26.13563,-29.16497 31.12778,-46.30913 l 1.41904,-4.87322 2.94425,-1.81192 c 1.61937,-0.99645 3.125,-1.67539 3.34587,-1.50855 0.22083,0.16671 3.04943,0.99791 6.28572,1.847 l 5.88417,1.54364 7.40865,-2.89789 7.40865,-2.89784 3.49879,3.09399 3.49878,3.09396 3.63235,-1.22112 c 1.9978,-0.67173 3.70187,-1.13632 3.78688,-1.03239 0.085,0.1039 -0.0454,3.67269 -0.29004,7.93072 l -0.44458,7.74191 2.04602,2.90049 c 3.29904,4.67681 5.71598,9.14672 9.90991,18.32755 4.67725,10.23884 5.08891,10.94801 9.7896,16.86514 1.99933,2.5167 3.54315,4.57583 3.43069,4.57583 -0.11237,0 -2.49211,-0.93915 -5.2881,-2.08699 -2.79601,-1.14786 -5.14459,-2.01251 -5.21912,-1.92144 -0.0745,0.0911 0.53563,2.60086 1.35588,5.57729 0.82027,2.97641 1.44439,5.46913 1.38696,5.53931 -0.0576,0.0701 -4.91859,-3.6182 -10.80253,-8.19641 -5.88393,-4.57824 -10.75958,-8.09872 -10.83476,-7.8233 -0.12828,0.46956 2.26785,16.9864 2.7531,18.97835 0.34985,1.43602 -0.25896,1.10005 -3.4723,-1.91615 z m -48.03733,-66.08328 c -1.00034,-0.46965 -1.81129,-0.98188 -1.80209,-1.1382 0.0505,-0.85817 4.91303,-4.37301 14.50026,-10.48106 l 10.77197,-6.86292 4.25912,3.74179 c 2.34252,2.05797 4.33993,3.90146 4.43871,4.09668 0.0989,0.19535 -1.18704,1.04224 -2.85737,1.88216 l -3.03692,1.52688 -2.06535,-1.40916 -2.06534,-1.40904 -9.26638,5.49191 c -5.09649,3.02052 -9.66942,5.47459 -10.16209,5.4535 -0.49264,-0.0216 -1.7142,-0.42288 -2.71452,-0.89254 z m 19.25773,-1.6432 c -2.88331,-0.72642 -5.23931,-1.44462 -5.23554,-1.59586 0.003,-0.15123 1.80853,-1.29457 4.01058,-2.54037 l 4.00374,-2.26536 2.15228,1.33274 2.1523,1.33277 3.42339,-1.81287 c 1.88286,-0.99714 3.6295,-1.81273 3.88142,-1.81273 0.83831,0 4.4046,3.37022 3.82337,3.61329 -0.30724,0.12857 -3.35099,1.32141 -6.76388,2.65132 l -6.2053,2.41798 -5.24236,-1.32091 z m 22.2414,-2.80963 -4.82644,-4.29066 8.03604,-0.4279 c 4.41985,-0.23527 8.85196,-0.27998 9.84917,-0.0997 1.58109,0.28613 1.86276,0.54163 2.20096,1.99673 0.35197,1.51404 0.25204,1.8152 -1.07993,3.25348 -1.04582,1.12933 -2.53969,1.92243 -5.19662,2.75912 -2.05084,0.64587 -3.8251,1.15739 -3.9428,1.13689 -0.11762,-0.0202 -2.38587,-1.96824 -5.04038,-4.328 z m -43.10394,-3.915 c -2.48573,-1.61368 -2.99567,-2.1672 -2.99567,-3.25197 0,-1.08818 0.50592,-1.63132 3.01794,-3.24022 l 3.01792,-1.93288 3.5421,1.32509 c 1.94816,0.72879 3.61285,1.23855 3.69931,1.13288 0.0865,-0.10529 -0.29683,-7.24503 -0.85176,-15.86518 l -1.00897,-15.67297 1.35291,-1.4551 c 2.27674,-2.4491 12.26293,-7.92541 12.90492,-7.07715 0.0687,0.0902 -0.60403,3.69503 -1.495,8.00934 -1.84262,8.92229 -3.89495,15.53998 -6.65436,21.45704 -1.04766,2.24636 -1.90484,4.17391 -1.90484,4.28313 0,0.10929 1.58878,-0.80999 3.5306,-2.04266 6.57437,-4.17392 11.62987,-11.63685 17.06426,-25.19006 l 2.66123,-6.63709 1.14167,1.33657 c 1.91834,2.24595 3.205,5.91787 3.205,9.14633 0,3.83285 -1.4004,7.12748 -4.7988,11.28963 -3.48945,4.27372 -2.9871,4.97899 1.84708,2.59318 9.16933,-4.52524 13.22294,-10.51326 13.8035,-20.39003 l 0.27491,-4.67713 2.21521,2.32373 c 1.21838,1.27807 2.22943,2.57733 2.24675,2.88725 0.0176,0.31004 -0.47383,2.07492 -1.09145,3.92224 l -1.12297,3.35832 0.7391,10.62306 c 0.40653,5.84282 0.67113,10.70163 0.58802,10.79747 -0.0832,0.0957 -4.47047,2.41218 -9.74974,5.1474 l -9.5987,4.97296 -3.02582,-2.73426 c -1.66422,-1.50391 -3.99081,-3.58157 -5.17023,-4.61698 l -2.14439,-1.88258 -11.09454,7.01919 c -6.102,3.86032 -11.10693,7.01153 -11.12204,7.00237 -0.0164,-0.0139 -1.37555,-0.89146 -3.02315,-1.96092 z m 38.72944,-2.33016 c 0,-0.45851 16.31914,-8.87073 16.58303,-8.54811 0.1332,0.16282 0.51535,0.0191 0.84914,-0.31962 1.57421,-1.59646 1.9289,3.82067 0.43472,6.63927 l -0.96288,1.81657 -4.53473,0 c -2.49409,0 -6.29747,0.15926 -8.45201,0.34641 -2.15449,0.18674 -3.91727,0.2134 -3.91727,0.0587 z m -21.62434,-16.5792 c 2.60274,-6.2766 4.63658,-13.8448 6.43785,-23.95601 1.12302,-6.30409 1.32083,-6.10094 -3.90963,-4.01753 -4.30748,1.71566 -9.5013,5.09231 -11.8262,7.68864 -2.65331,2.96298 -17.40185,17.87027 -17.88237,18.07477 -0.59894,0.25496 -0.50961,-0.8361 0.44012,-5.37378 0.46729,-2.23284 1.46799,-5.38023 2.22374,-6.99445 2.58146,-5.51351 8.91992,-12.09169 15.64943,-16.24154 1.628,-1.00384 2.67466,-1.98129 2.67466,-2.4979 0,-0.74587 -0.45465,-0.80548 -3.74454,-0.49077 -8.09396,0.77484 -19.83299,3.9858 -31.01695,8.48385 l -5.87492,2.36284 -5.81048,8.32775 c -3.19576,4.5802 -5.87276,8.32759 -5.94887,8.32759 -0.0761,0 1.68837,-5.11842 3.92114,-11.3741 l 4.0596,-11.37438 13.64851,-5.46963 c 10.4464,-4.18677 13.64854,-5.66853 13.64854,-6.31639 0,-0.77525 -0.56064,-0.76623 -6.6745,0.10668 -11.17268,1.59537 -18.09383,3.62369 -29.05929,8.51641 -1.14353,0.51018 1.4898,-2.31772 4.38838,-4.71254 7.29425,-6.02698 16.9557,-9.50493 30.11124,-10.83905 6.16858,-0.62584 6.25016,-0.65045 5.907,-1.78183 -0.95703,-3.15545 -10.53571,-9.93487 -17.44508,-12.34732 l -3.57136,-1.24677 3.57136,-0.33972 c 14.27027,-1.35748 24.1464,1.45457 30.12039,8.57615 0.95043,1.13302 1.88646,2.05989 2.08011,2.05989 0.19365,0 0.27379,-2.52988 0.17807,-5.62178 -0.12565,-4.05881 -0.38551,-6.10777 -0.93479,-7.36997 -0.41843,-0.96132 -0.68149,-1.84486 -0.58459,-1.96337 0.3957,-0.48355 5.58539,4.13385 7.96362,7.08547 1.40171,1.73974 2.65045,3.16312 2.77501,3.16312 0.12451,0 0.69463,-0.95954 1.26679,-2.13193 1.18171,-2.42134 4.03773,-6.2226 5.87977,-7.82549 l 1.24102,-1.07984 -1.05003,2.76953 c -1.38778,3.66032 -1.7271,6.71256 -1.06667,9.59502 0.29403,1.28326 0.5852,2.3333 0.64704,2.3333 0.0618,0 2.87736,-1.632 6.25666,-3.62682 6.76415,-3.99292 12.21917,-6.37134 17.3411,-7.56096 4.2924,-0.99713 9.56319,-1.5508 9.54301,-1.00246 -0.008,0.23308 -4.24525,3.20358 -9.41486,6.60087 -5.16961,3.39755 -9.3993,6.38405 -9.3993,6.63668 0,1.02967 0.8774,0.95627 3.47408,-0.29063 7.66426,-3.68042 16.23,-5.31269 23.22064,-4.42506 3.69192,0.46876 8.08476,1.52523 10.10893,2.43133 0.35308,0.15747 -2.43932,1.67724 -6.20525,3.37596 -3.76596,1.69899 -7.68199,3.46933 -8.70231,3.9344 -1.02031,0.46494 -1.69431,1.01561 -1.49784,1.22353 0.19654,0.20807 1.60906,0.91198 3.13897,1.56448 4.51189,1.92428 10.18469,5.8174 12.4539,8.54714 2.27006,2.73045 3.0382,4.23804 3.7316,7.32364 l 0.44579,1.98361 -1.55594,-1.66932 c -3.0202,-3.24036 -8.22609,-5.37557 -16.98347,-6.96546 -5.46088,-0.99126 -6.47222,-0.58033 -4.07812,1.65769 4.42315,4.13456 6.40323,8.37574 6.41035,13.73026 0.005,3.82176 -1.20015,12.02783 -1.76652,12.02783 -0.20316,0 -0.36939,-0.25181 -0.36939,-0.55926 0,-0.30773 -0.59717,-2.31226 -1.32705,-4.45472 -0.89186,-2.61792 -1.90934,-4.56695 -3.10263,-5.94262 -1.81042,-2.08751 -9.84599,-10.77315 -10.98855,-11.87773 -0.54702,-0.52879 -0.63375,0.22801 -0.65936,5.75246 -0.0348,7.50983 -0.6621,9.76192 -3.89567,13.98616 -1.9137,2.49994 -5.74567,5.68137 -7.80622,6.48043 -0.78687,0.30526 -0.66221,-0.0752 0.79442,-2.42654 4.26739,-6.88768 3.99698,-13.15662 -0.83874,-19.44335 l -2.46077,-3.19934 -2.59588,6.68153 c -3.31541,8.53321 -6.36812,14.60407 -9.40772,18.70854 -2.44929,3.30734 -6.25209,7.27634 -6.97166,7.27634 -0.21819,0 0.0853,-1.16256 0.67468,-2.58362 z m 13.06533,-41.08258 c 0,-0.63843 -0.7066,-0.78471 -3.7918,-0.78471 -2.08549,0 -4.68528,-0.14922 -5.77733,-0.33247 -1.82726,-0.30594 -1.9855,-0.24347 -1.9855,0.78457 0,1.08531 0.1629,1.11688 5.77734,1.11688 4.85007,0 5.77729,-0.12579 5.77729,-0.78427 z"
       id="path13281"
       inkscape:connector-curvature="0" />
  </g>
</svg>
