<?xml version="1.0" encoding="UTF-8" standalone="no"?>
<svg
   xmlns:dc="http://purl.org/dc/elements/1.1/"
   xmlns:cc="http://web.resource.org/cc/"
   xmlns:rdf="http://www.w3.org/1999/02/22-rdf-syntax-ns#"
   xmlns:svg="http://www.w3.org/2000/svg"
   xmlns="http://www.w3.org/2000/svg"
   xmlns:sodipodi="http://sodipodi.sourceforge.net/DTD/sodipodi-0.dtd"
   xmlns:inkscape="http://www.inkscape.org/namespaces/inkscape"
   width="4.5000in"
   height="3.0000in"
   viewBox="0 0 4500 3000"
   id="svg2211"
   sodipodi:version="0.32"
   inkscape:version="0.45.1"
   sodipodi:docname="Gaasterlân-Sleat.svg"
   inkscape:output_extension="org.inkscape.output.svg.inkscape"
   sodipodi:docbase="C:\TIIKERI\Liput\Alankomaat\provinssit\Friesland - kunnat\svg">
  <metadata
     id="metadata2418">
    <rdf:RDF>
      <cc:Work
         rdf:about="">
        <dc:format>image/svg+xml</dc:format>
        <dc:type
           rdf:resource="http://purl.org/dc/dcmitype/StillImage" />
      </cc:Work>
    </rdf:RDF>
  </metadata>
  <defs
     id="defs2416" />
  <sodipodi:namedview
     inkscape:window-height="712"
     inkscape:window-width="1024"
     inkscape:pageshadow="2"
     inkscape:pageopacity="0.0"
     guidetolerance="10.0"
     gridtolerance="10.0"
     objecttolerance="10.0"
     borderopacity="1.0"
     bordercolor="#666666"
     pagecolor="#ffffff"
     id="base"
     inkscape:zoom="0.99028106"
     inkscape:cx="66.737349"
     inkscape:cy="170.33607"
     inkscape:window-x="-4"
     inkscape:window-y="-4"
     inkscape:current-layer="svg2211" />
  <g
     id="g2481">
    <path
       id="path2213"
       d="M0,3000 L0,1250 500,1250 500,1750 1000,1750 1000,1250 1500,1250 1500,1750 2000,1750 2000,1250 2500,1250 2500,1750 3000,1750 3000,1250 3500,1250 3500,1750 4000,1750 4000,1250 4500,1250 4500,3000 0,3000z"
       style="fill:#0063be;fill-opacity:1" />
    <path
       id="path2215"
       d="M0,0 L0,1250 500,1250 500,1750 1000,1750 1000,1250 1500,1250 1500,1750 2000,1750 2000,1250 2500,1250 2500,1750 3000,1750 3000,1250 3500,1250 3500,1750 4000,1750 4000,1250 4500,1250 4500,0 0,0z"
       style="fill:#fccc00;fill-opacity:1" />
    <path
       id="path2217"
       d="M405,328 L408,327 409,326 410,324 409,319 398,311 388,305 379,300 370,296 361,293 351,291 341,290 331,289 341,291 351,294 360,297 368,301 377,305 386,311 395,319 405,328z"
       style="fill:#000000" />
    <path
       id="path2219"
       d="M422,307 L425,307 427,306 428,304 428,299 421,292 415,285 409,280 403,275 397,270 390,267 382,263 372,260 381,265 389,269 395,274 401,279 406,285 411,291 416,299 422,307z"
       style="fill:#000000" />
    <path
       id="path2221"
       d="M1571,823 L1583,825 1594,827 1605,828 1616,830 1628,831 1638,833 1649,834 1660,835 1671,837 1681,838 1692,839 1702,840 1713,840 1723,841 1734,842 1744,842 1750,836 1757,830 1763,825 1769,820 1776,815 1782,810 1788,804 1794,799 1798,796 1803,793 1809,791 1815,790 1822,791 1829,792 1836,794 1844,797 1855,804 1865,810 1875,818 1884,825 1895,833 1907,840 1922,848 1940,856 1953,857 1965,858 1977,860 1989,862 2001,865 2012,868 2024,872 2035,876 2043,875 2050,874 2058,874 2064,874 2070,876 2075,878 2079,882 2081,887 2081,899 2078,910 2071,920 2061,929 2047,935 2030,938 2010,939 1986,935 1971,931 1957,927 1942,921 1927,916 1912,910 1897,903 1882,897 1867,891 1855,886 1842,883 1829,880 1816,879 1802,879 1788,881 1775,885 1761,891 1744,900 1727,908 1709,916 1690,923 1671,930 1650,936 1629,941 1608,946 1603,931 1599,915 1594,900 1590,884 1585,869 1580,854 1576,838 1571,823z"
       style="fill:#f32737;fill-opacity:1" />
    <path
       id="path2223"
       d="M1738,836 L1744,834 1734,834 1724,833 1713,832 1702,832 1693,831 1682,830 1672,829 1661,827 1650,826 1639,825 1629,823 1617,822 1606,820 1595,819 1584,817 1572,815 1570,831 1582,833 1593,835 1604,836 1615,838 1627,839 1637,841 1648,842 1659,843 1670,845 1680,846 1691,847 1702,848 1713,848 1722,849 1734,850 1744,850 1750,848 1744,850 1750,847 1752,842 1750,836 1744,834z"
       style="fill:#000000" />
    <path
       id="path2225"
       d="M1788,794 L1789,793 1783,798 1777,804 1771,809 1764,814 1758,819 1752,824 1745,830 1738,836 1750,848 1755,842 1762,836 1768,831 1774,826 1781,821 1787,816 1793,810 1799,805 1800,804 1799,805 1802,800 1800,794 1795,791 1789,793z"
       style="fill:#000000" />
    <ellipse
       id="ellipse2227"
       ry="11"
       rx="32"
       cy="793"
       cx="1820"
       style="fill:#000000" />
    <path
       id="path2229"
       d="M1940,848 L1943,849 1925,841 1911,833 1899,826 1889,819 1880,812 1870,803 1859,797 1848,790 1840,804 1851,811 1860,817 1870,824 1879,831 1891,840 1903,847 1919,855 1937,863 1940,864 1937,863 1943,863 1947,859 1947,853 1943,849z"
       style="fill:#000000" />
    <path
       id="path2231"
       d="M2033,868 L2038,869 2027,864 2014,860 2003,857 1991,854 1978,852 1966,850 1954,849 1940,848 1940,864 1952,865 1964,866 1976,868 1987,870 1999,873 2010,876 2021,880 2032,883 2037,884 2032,883 2038,883 2042,879 2042,873 2038,869z"
       style="fill:#000000" />
    <path
       id="path2233"
       d="M2089,886 L2089,885 2086,878 2079,871 2073,868 2065,866 2058,866 2049,866 2042,867 2033,868 2037,884 2044,883 2051,882 2058,882 2063,882 2067,884 2071,885 2072,886 2073,889 2073,888 2073,889 2077,894 2083,894 2088,891 2089,885z"
       style="fill:#000000" />
    <path
       id="path2235"
       d="M1984,943 L1984,943 2009,947 2031,946 2049,943 2065,936 2077,925 2085,913 2089,900 2089,886 2073,888 2073,898 2071,907 2065,915 2057,922 2045,927 2029,930 2011,931 1988,927 1988,927 1988,927 1982,928 1979,933 1979,939 1984,943z"
       style="fill:#000000" />
    <path
       id="path2237"
       d="M1864,898 L1864,898 1879,904 1894,910 1909,917 1924,924 1939,929 1954,935 1969,939 1984,943 1988,927 1973,923 1960,919 1945,913 1930,908 1915,903 1900,896 1885,890 1870,884 1870,884 1870,884 1864,884 1860,888 1860,894 1864,898z"
       style="fill:#000000" />
    <path
       id="path2239"
       d="M1765,898 L1765,898 1778,892 1790,889 1803,887 1816,887 1828,888 1840,891 1853,894 1864,898 1870,884 1857,878 1844,875 1830,872 1816,871 1801,871 1786,873 1772,878 1757,884 1757,884 1757,884 1753,889 1754,895 1759,899 1765,898z"
       style="fill:#000000" />
    <path
       id="path2241"
       d="M1600,948 L1609,954 1631,949 1652,944 1673,938 1693,931 1712,923 1730,915 1748,907 1765,898 1757,884 1740,893 1724,901 1706,909 1687,915 1669,922 1648,928 1627,933 1607,938 1616,944 1607,938 1602,941 1601,947 1603,952 1609,954z"
       style="fill:#000000" />
    <path
       id="path2243"
       d="M1572,815 L1563,825 1568,840 1572,856 1577,872 1582,886 1586,902 1591,917 1595,933 1600,948 1616,944 1611,929 1607,913 1602,898 1598,882 1593,866 1588,852 1584,836 1579,821 1570,831 1579,821 1575,816 1570,815 1564,819 1563,825z"
       style="fill:#000000" />
    <path
       id="path2245"
       d="M1502,656 L1499,642 1495,629 1491,615 1487,602 1482,588 1477,574 1472,560 1466,546 1470,543 1474,540 1478,538 1482,537 1486,537 1490,538 1495,540 1499,544 1506,545 1513,546 1519,548 1524,551 1528,554 1532,559 1535,565 1536,572 1543,575 1549,579 1554,583 1559,587 1562,591 1564,596 1566,602 1566,607 1576,617 1584,625 1589,631 1592,637 1593,641 1593,645 1592,648 1590,650 1597,661 1601,670 1604,677 1604,682 1604,686 1602,689 1600,691 1597,693 1601,700 1602,706 1603,711 1602,715 1601,719 1599,721 1597,724 1595,727 1595,738 1594,746 1592,753 1590,758 1587,762 1583,766 1580,768 1576,770 1567,756 1557,741 1548,727 1539,713 1530,699 1521,684 1511,670 1502,656z"
       style="fill:#f32737;fill-opacity:1" />
    <path
       id="path2247"
       d="M1461,540 L1459,549 1465,563 1469,577 1474,591 1479,605 1483,617 1487,631 1491,644 1494,658 1510,654 1507,640 1503,627 1499,613 1495,599 1490,585 1485,571 1479,557 1473,543 1471,552 1473,543 1469,539 1463,539 1459,543 1459,549z"
       style="fill:#000000" />
    <path
       id="path2249"
       d="M1500,536 L1505,538 1499,533 1493,530 1487,529 1481,529 1475,531 1470,533 1465,537 1461,540 1471,552 1475,549 1478,547 1481,545 1483,545 1485,545 1487,546 1491,547 1493,550 1498,552 1493,550 1499,553 1505,550 1508,544 1505,538z"
       style="fill:#000000" />
    <path
       id="path2251"
       d="M1539,565 L1544,571 1543,563 1539,555 1534,548 1528,544 1522,541 1515,538 1507,537 1500,536 1498,552 1505,553 1511,554 1516,555 1520,558 1522,560 1525,563 1527,567 1528,573 1533,579 1528,573 1531,578 1537,579 1542,577 1544,571z"
       style="fill:#000000" />
    <path
       id="path2253"
       d="M1571,601 L1574,607 1574,601 1572,593 1569,587 1565,581 1559,577 1554,573 1547,568 1539,565 1533,579 1539,582 1544,585 1549,589 1553,593 1555,595 1556,599 1558,603 1558,607 1561,613 1558,607 1561,613 1566,614 1572,613 1574,607z"
       style="fill:#000000" />
    <path
       id="path2255"
       d="M1597,646 L1596,656 1599,652 1601,646 1601,640 1599,634 1596,627 1590,620 1582,611 1571,601 1561,613 1570,623 1578,630 1582,635 1585,640 1585,642 1585,644 1585,644 1584,644 1583,654 1584,644 1581,650 1584,656 1590,659 1596,656z"
       style="fill:#000000" />
    <path
       id="path2257"
       d="M1604,689 L1601,700 1605,697 1608,694 1612,688 1612,682 1612,675 1608,667 1604,657 1597,646 1583,654 1590,665 1594,673 1596,679 1596,682 1596,684 1596,684 1595,685 1593,686 1590,697 1593,686 1589,691 1590,697 1595,701 1601,700z"
       style="fill:#000000" />
    <path
       id="path2259"
       d="M1603,727 L1602,731 1604,728 1605,726 1608,723 1610,717 1611,711 1610,705 1608,697 1604,689 1590,697 1594,703 1594,707 1595,711 1594,713 1594,715 1593,716 1590,720 1588,723 1587,727 1588,723 1587,729 1591,734 1597,735 1602,731z"
       style="fill:#000000" />
    <path
       id="path2261"
       d="M1569,774 L1580,777 1584,775 1588,772 1593,767 1597,762 1600,756 1602,748 1603,738 1603,727 1587,727 1587,738 1586,744 1584,750 1583,754 1581,757 1578,760 1576,761 1572,763 1583,766 1572,763 1568,768 1569,774 1574,778 1580,777z"
       style="fill:#000000" />
    <path
       id="path2263"
       d="M1494,658 L1495,660 1504,674 1514,688 1523,703 1532,717 1541,731 1550,745 1560,760 1569,774 1583,766 1574,752 1564,737 1555,723 1546,709 1537,695 1528,680 1518,666 1509,652 1510,654 1509,652 1504,648 1498,649 1494,654 1495,660z"
       style="fill:#000000" />
    <path
       id="path2265"
       d="M304,658 L294,651 285,643 276,635 268,626 260,619 254,611 249,604 245,598 233,597 220,595 206,592 192,588 179,583 166,579 156,574 148,569 137,570 128,569 120,566 115,562 112,557 111,551 112,545 116,538 123,533 130,529 137,527 146,526 155,525 164,525 175,525 186,524 203,526 223,532 245,542 268,554 290,568 309,583 325,597 336,609 356,610 375,611 392,611 409,610 424,609 440,608 454,608 469,607 502,635 333,686 304,658z"
       style="fill:#f32737;fill-opacity:1" />
    <path
       id="path2267"
       d="M245,606 L238,602 242,609 248,616 254,624 262,632 270,641 280,649 289,657 299,664 309,652 299,645 290,637 282,629 274,620 266,614 260,606 256,599 252,594 245,590 252,594 247,590 241,591 237,596 238,602z"
       style="fill:#000000" />
    <path
       id="path2269"
       d="M149,577 L143,576 152,581 163,586 176,591 189,596 204,600 219,603 232,605 245,606 245,590 234,589 221,587 208,584 195,580 182,575 169,572 160,567 153,562 147,561 153,562 146,561 141,564 140,570 143,576z"
       style="fill:#000000" />
    <path
       id="path2271"
       d="M111,532 L109,533 105,542 103,551 104,560 109,567 116,573 126,577 137,578 149,577 147,561 137,562 130,561 124,559 121,557 120,554 119,551 119,548 123,543 121,544 123,543 124,536 121,531 115,529 109,533z"
       style="fill:#000000" />
    <path
       id="path2273"
       d="M186,516 L185,516 175,517 164,517 155,517 145,518 136,519 127,522 119,526 111,532 121,544 127,540 133,536 138,535 147,534 155,533 164,533 175,533 187,532 186,532 187,532 192,529 194,523 191,518 185,516z"
       style="fill:#000000" />
    <path
       id="path2275"
       d="M337,601 L343,604 331,591 314,577 295,561 272,547 249,535 226,525 205,518 186,516 186,532 201,534 220,539 241,549 264,561 285,575 304,589 319,603 329,614 335,617 329,614 335,617 341,616 344,611 343,604z"
       style="fill:#000000" />
    <path
       id="path2277"
       d="M474,601 L469,599 454,600 440,600 423,601 409,602 392,603 375,603 356,602 337,601 335,617 356,618 375,619 392,619 409,618 425,617 440,616 454,616 469,615 464,613 469,615 475,612 477,607 475,601 469,599z"
       style="fill:#000000" />
    <path
       id="path2279"
       d="M504,643 L507,629 474,601 464,613 497,641 500,627 497,641 503,642 508,639 510,634 507,629z"
       style="fill:#000000" />
    <path
       id="path2281"
       d="M327,692 L335,694 504,643 500,627 331,678 339,680 331,678 326,682 326,687 329,693 335,694z"
       style="fill:#000000" />
    <path
       id="path2283"
       d="M299,664 L298,664 327,692 339,680 310,652 309,652 310,652 304,649 298,652 295,658 298,664z"
       style="fill:#000000" />
    <path
       id="path2285"
       d="M766,360 L781,370 796,379 812,389 827,398 843,407 859,416 876,425 894,434 909,441 924,448 939,455 954,462 970,469 986,475 1003,481 1020,486 1037,490 1054,494 1072,496 1090,496 1108,496 1126,493 1145,489 1164,483 1179,474 1189,463 1194,450 1194,437 1188,425 1178,415 1162,408 1142,406 1122,406 1103,406 1086,405 1069,404 1053,402 1038,400 1024,398 1010,395 997,392 984,389 972,385 959,381 947,377 935,372 923,367 910,362 902,358 895,355 887,351 880,348 873,345 866,342 859,339 852,336 864,339 877,342 892,345 906,348 922,350 938,352 954,354 970,355 986,356 1002,356 1018,356 1033,354 1048,352 1062,349 1074,344 1086,339 1103,330 1118,322 1130,314 1140,307 1147,299 1151,291 1152,282 1150,272 1146,266 1141,260 1134,256 1126,253 1117,251 1107,250 1097,250 1087,251 1074,253 1060,255 1047,257 1034,259 1021,261 1008,264 995,266 982,267 969,269 955,270 942,271 929,271 915,270 902,269 888,268 874,265 856,261 839,258 822,254 807,251 793,249 779,246 766,244 754,242 742,241 730,240 719,239 708,238 698,238 688,237 677,238 667,238 654,230 639,223 625,217 609,214 593,213 577,214 560,218 542,225 532,230 522,235 512,240 501,245 491,251 480,256 470,261 459,266 452,269 447,273 442,278 438,283 435,288 431,293 427,297 423,302 419,306 415,311 410,315 406,319 401,324 398,330 396,335 396,339 398,343 401,347 405,351 411,354 408,374 412,391 421,405 435,415 451,423 467,426 481,426 492,422 502,432 511,443 520,455 530,468 540,482 551,494 562,506 574,517 560,525 547,535 533,545 520,556 506,569 493,581 481,595 469,608 465,612 461,616 455,620 450,624 443,627 436,630 429,632 421,634 404,637 386,641 368,644 350,647 331,651 313,654 294,658 276,662 260,660 245,658 230,656 216,655 203,654 190,654 178,653 167,654 156,655 146,656 137,658 129,660 121,663 115,666 109,670 104,675 105,682 108,688 112,693 118,698 126,703 135,707 146,710 159,713 171,720 182,725 193,728 205,730 216,731 227,731 238,730 250,727 267,725 284,723 301,722 317,721 332,722 347,723 361,725 375,728 388,731 400,734 412,737 425,739 437,740 450,741 462,741 474,740 486,739 498,737 510,733 522,729 534,724 546,718 558,711 570,703 576,701 582,699 588,698 593,696 599,695 605,693 610,692 616,690 615,694 614,698 613,703 613,708 615,714 619,721 625,730 634,741 641,749 650,760 661,772 675,785 692,798 714,812 740,825 771,838 820,854 866,867 908,876 946,884 982,888 1015,891 1045,892 1074,891 1100,889 1125,886 1149,882 1172,878 1195,873 1218,869 1240,865 1263,861 1271,861 1280,862 1287,864 1295,868 1301,873 1308,879 1314,887 1320,896 1332,914 1346,931 1361,946 1378,959 1395,971 1412,982 1430,992 1448,1001 1478,1015 1506,1027 1532,1035 1555,1042 1576,1046 1596,1048 1614,1049 1631,1048 1647,1046 1662,1043 1676,1039 1689,1034 1703,1029 1716,1024 1730,1020 1744,1015 1752,1013 1759,1013 1767,1014 1774,1016 1782,1020 1790,1024 1799,1030 1807,1036 1814,1041 1820,1046 1827,1050 1833,1054 1839,1058 1844,1061 1849,1064 1854,1066 1871,1076 1889,1087 1906,1099 1924,1110 1941,1121 1957,1129 1971,1136 1984,1139 1997,1140 2009,1140 2021,1138 2031,1135 2041,1131 2049,1125 2056,1118 2062,1109 2062,1104 2062,1099 2060,1094 2057,1090 2052,1088 2046,1086 2037,1086 2025,1087 2016,1083 2007,1078 1997,1074 1988,1070 1978,1066 1968,1062 1957,1058 1946,1054 1937,1046 1928,1038 1918,1030 1909,1023 1899,1016 1889,1010 1879,1005 1869,1001 1868,993 1866,985 1861,976 1854,967 1846,958 1835,949 1823,941 1810,934 1803,933 1796,933 1788,934 1780,938 1772,943 1762,950 1753,958 1742,969 1717,963 1694,955 1672,946 1654,936 1637,924 1624,910 1614,894 1607,877 1604,866 1602,856 1600,844 1597,833 1595,821 1592,808 1589,795 1585,782 1581,769 1577,755 1571,741 1565,727 1559,712 1551,697 1542,682 1532,666 1519,648 1504,632 1489,618 1473,606 1455,596 1437,587 1417,580 1397,575 1375,571 1353,568 1329,567 1304,567 1279,568 1252,570 1224,573 1195,577 1166,581 1139,583 1114,584 1091,583 1070,581 1050,578 1032,574 1015,569 999,564 985,558 972,551 960,544 949,537 939,529 930,522 921,514 907,501 893,489 879,477 865,465 850,453 836,443 821,432 805,423 803,416 801,410 797,402 793,395 788,387 781,378 774,369 766,360z"
       style="fill:#f32737;fill-opacity:1" />
    <path
       id="path2287"
       d="M897,427 L898,427 880,418 863,409 847,400 831,391 816,382 800,372 785,363 770,353 762,367 777,377 792,386 808,396 823,405 839,414 855,423 872,432 890,441 891,441 890,441 896,442 901,438 902,432 898,427z"
       style="fill:#000000" />
    <path
       id="path2289"
       d="M1161,476 L1161,476 1143,481 1125,485 1107,488 1090,488 1072,488 1055,486 1039,482 1022,478 1005,473 989,467 973,462 957,455 942,448 927,441 912,434 897,427 891,441 906,448 921,455 936,462 951,469 967,476 983,483 1001,489 1018,494 1035,498 1053,502 1072,504 1090,504 1109,504 1127,501 1147,497 1167,490 1167,490 1167,490 1171,486 1171,480 1167,476 1161,476z"
       style="fill:#000000" />
    <path
       id="path2291"
       d="M1142,414 L1142,414 1160,416 1174,422 1182,430 1186,439 1186,448 1182,459 1174,468 1161,476 1167,490 1184,480 1196,467 1202,452 1202,435 1194,420 1182,408 1164,400 1142,398 1142,398 1142,398 1136,400 1135,406 1136,411 1142,414z"
       style="fill:#000000" />
    <path
       id="path2293"
       d="M907,369 L907,369 920,374 932,379 944,384 957,389 970,393 982,397 995,400 1008,403 1023,406 1037,408 1052,410 1068,412 1086,413 1103,414 1122,414 1142,414 1142,398 1122,398 1103,398 1086,397 1070,396 1054,394 1039,392 1025,390 1012,387 999,384 986,381 974,377 961,373 950,370 938,365 926,360 913,355 913,355 913,355 907,355 903,359 903,365 907,369z"
       style="fill:#000000" />
    <path
       id="path2295"
       d="M854,328 L849,343 856,346 863,349 870,352 877,355 884,358 892,362 899,365 907,369 913,355 905,351 898,348 890,344 883,341 876,338 869,335 862,332 855,329 850,344 855,329 849,329 845,333 845,339 849,343z"
       style="fill:#000000" />
    <path
       id="path2297"
       d="M1082,332 L1082,332 1071,337 1060,341 1047,344 1032,346 1017,348 1002,348 986,348 970,347 955,346 939,344 923,342 907,340 894,337 879,334 866,331 854,328 850,344 862,347 875,350 890,353 905,356 921,358 937,360 953,362 970,363 986,364 1002,364 1019,364 1034,362 1049,360 1064,357 1077,351 1090,346 1090,346 1090,346 1094,341 1093,335 1088,331 1082,332z"
       style="fill:#000000" />
    <path
       id="path2299"
       d="M1142,275 L1143,275 1144,282 1143,289 1140,294 1135,301 1125,307 1114,315 1099,323 1082,332 1090,346 1107,337 1122,329 1135,321 1145,313 1154,304 1159,293 1160,282 1157,269 1158,269 1157,269 1153,265 1147,265 1143,269 1143,275z"
       style="fill:#000000" />
    <path
       id="path2301"
       d="M1088,259 L1088,259 1097,258 1107,258 1116,259 1124,261 1131,263 1136,266 1140,271 1142,275 1158,269 1152,261 1146,254 1137,249 1128,245 1118,243 1107,242 1097,242 1086,243 1086,243 1086,243 1081,246 1080,252 1082,257 1088,259z"
       style="fill:#000000" />
    <path
       id="path2303"
       d="M872,273 L872,273 887,276 901,277 914,278 929,279 942,279 956,278 970,277 983,275 996,274 1010,272 1023,269 1035,267 1048,265 1061,263 1075,261 1088,259 1086,243 1073,245 1059,247 1046,249 1033,251 1019,253 1006,256 994,258 981,259 968,261 954,262 942,263 929,263 916,262 903,261 889,260 876,257 876,257 876,257 870,258 867,263 867,269 872,273z"
       style="fill:#000000" />
    <path
       id="path2305"
       d="M662,245 L667,246 677,246 688,245 698,246 708,246 718,247 729,248 741,249 753,250 765,252 778,254 792,257 806,259 820,262 837,266 854,269 872,273 876,257 858,253 841,250 824,246 808,243 794,241 780,238 767,236 755,234 743,233 731,232 720,231 708,230 698,230 688,229 677,230 667,230 672,231 667,230 661,232 660,238 661,243 667,246z"
       style="fill:#000000" />
    <path
       id="path2307"
       d="M545,232 L545,232 562,226 578,222 593,221 608,222 623,225 636,230 650,237 662,245 672,231 658,223 642,216 627,209 610,206 593,205 576,206 558,210 539,218 539,218 539,218 535,222 535,228 539,232 545,232z"
       style="fill:#000000" />
    <path
       id="path2309"
       d="M462,273 L462,273 473,268 483,263 495,258 505,252 515,247 526,242 536,237 545,232 539,218 528,223 518,228 509,233 497,238 487,244 477,249 467,254 456,259 456,259 456,259 452,263 452,269 456,273 462,273z"
       style="fill:#000000" />
    <path
       id="path2311"
       d="M445,287 L445,287 448,283 452,279 456,276 462,273 456,259 448,262 442,267 436,273 431,279 431,279 431,279 430,285 434,290 440,291 445,287z"
       style="fill:#000000" />
    <path
       id="path2313"
       d="M411,325 L412,325 415,321 421,317 425,311 429,307 433,302 437,298 442,293 445,287 431,279 428,283 425,288 421,292 417,297 413,301 409,305 405,309 400,313 401,313 400,313 397,319 400,325 406,328 412,325z"
       style="fill:#000000" />
    <path
       id="path2315"
       d="M419,357 L414,347 410,344 407,342 405,339 404,337 404,337 405,333 407,329 411,325 401,313 395,319 391,327 388,333 388,341 391,347 395,352 400,358 408,361 403,351 408,361 414,361 418,357 418,351 414,347z"
       style="fill:#000000" />
    <path
       id="path2317"
       d="M497,416 L487,415 480,418 468,418 454,415 439,408 427,399 419,388 416,374 419,357 403,351 400,374 405,394 415,411 431,422 448,431 466,434 482,434 497,429 487,428 497,429 501,423 499,417 494,414 487,415z"
       style="fill:#000000" />
    <path
       id="path2319"
       d="M578,524 L579,511 568,500 557,489 546,477 536,463 526,450 517,438 508,427 497,416 487,428 496,437 505,448 514,460 524,473 534,487 545,499 556,512 569,523 570,510 569,523 575,524 580,521 582,516 579,511z"
       style="fill:#000000" />
    <path
       id="path2321"
       d="M475,613 L475,613 487,600 499,587 511,575 525,562 538,551 552,541 564,532 578,524 570,510 556,518 542,529 528,539 515,550 501,563 487,575 475,590 463,603 463,603 463,603 462,609 465,614 470,616 475,613z"
       style="fill:#000000" />
    <path
       id="path2323"
       d="M423,642 L422,642 431,640 439,638 446,634 454,631 460,626 466,622 471,618 475,613 463,603 459,606 456,610 450,614 446,617 440,620 433,622 427,624 420,626 419,626 420,626 415,629 414,635 416,640 422,642z"
       style="fill:#000000" />
    <path
       id="path2325"
       d="M275,670 L278,670 296,666 314,662 332,659 351,655 369,652 388,649 406,645 423,642 419,626 402,629 384,633 367,636 349,639 330,643 312,646 292,650 274,654 277,654 274,654 269,658 269,663 272,669 278,670z"
       style="fill:#000000" />
    <path
       id="path2327"
       d="M112,675 L110,680 114,676 119,673 124,670 131,668 139,666 147,664 157,663 168,662 178,661 190,662 203,662 215,663 229,664 244,666 259,668 275,670 277,654 261,652 246,650 231,648 217,647 203,646 190,646 178,645 166,646 155,647 145,648 135,650 127,652 118,656 111,659 104,664 98,670 96,675 98,670 97,676 100,681 105,683 110,680z"
       style="fill:#000000" />
    <path
       id="path2329"
       d="M163,706 L161,705 148,702 138,699 130,696 123,691 118,687 115,684 113,680 112,675 96,675 97,684 101,692 106,699 113,705 122,710 132,715 144,718 157,721 155,720 157,721 163,720 167,714 166,709 161,705z"
       style="fill:#000000" />
    <path
       id="path2331"
       d="M249,719 L248,719 237,722 227,723 216,723 206,722 195,720 185,717 175,713 163,706 155,720 167,727 179,733 191,736 204,738 216,739 227,739 239,738 252,735 251,735 252,735 257,731 258,725 254,720 248,719z"
       style="fill:#000000" />
    <path
       id="path2333"
       d="M377,720 L377,720 362,717 348,715 333,714 317,713 301,714 283,715 266,717 249,719 251,735 268,733 285,731 301,730 317,729 331,730 346,731 360,733 373,736 373,736 373,736 379,735 383,729 382,724 377,720z"
       style="fill:#000000" />
    <path
       id="path2335"
       d="M568,695 L565,697 554,704 542,711 531,717 519,722 507,725 496,729 485,731 473,732 462,733 450,733 438,732 426,731 414,729 402,726 390,723 377,720 373,736 386,739 398,742 410,745 424,747 436,748 450,749 462,749 475,748 487,747 500,745 513,741 525,736 537,731 550,725 562,718 575,709 572,711 575,709 578,704 576,698 571,695 565,697z"
       style="fill:#000000" />
    <path
       id="path2337"
       d="M624,691 L614,682 608,684 603,685 597,687 591,688 586,690 580,691 573,693 568,695 572,711 579,709 584,707 590,706 595,704 601,703 607,701 612,700 618,698 608,689 618,698 623,694 624,688 620,683 614,682z"
       style="fill:#000000" />
    <path
       id="path2339"
       d="M640,736 L640,736 631,725 626,717 622,711 621,707 621,704 622,700 623,696 624,691 608,689 607,692 606,696 605,702 605,709 608,717 612,725 619,735 628,746 628,746 628,746 633,749 639,747 642,742 640,736z"
       style="fill:#000000" />
    <path
       id="path2341"
       d="M774,830 L774,830 743,818 718,805 697,791 680,779 667,766 656,755 647,744 640,736 628,746 635,754 644,765 655,778 670,791 687,805 710,819 737,832 768,846 768,846 768,846 775,846 779,841 779,835 774,830z"
       style="fill:#000000" />
    <path
       id="path2343"
       d="M1262,853 L1262,853 1239,857 1217,861 1193,865 1170,870 1148,874 1124,878 1099,881 1074,883 1045,884 1016,883 983,880 947,876 910,868 868,859 822,846 774,830 768,846 818,862 864,875 906,884 945,892 981,896 1014,899 1045,900 1074,899 1101,897 1126,894 1150,890 1174,886 1197,881 1219,877 1241,873 1264,869 1264,869 1264,869 1269,866 1271,860 1268,855 1262,853z"
       style="fill:#000000" />
    <path
       id="path2345"
       d="M1327,892 L1327,892 1321,882 1314,874 1306,867 1299,861 1290,857 1281,854 1271,853 1262,853 1264,869 1271,869 1279,870 1284,871 1291,875 1296,879 1302,884 1307,892 1313,900 1313,900 1313,900 1318,904 1324,903 1328,898 1327,892z"
       style="fill:#000000" />
    <path
       id="path2347"
       d="M1452,994 L1452,994 1434,985 1416,975 1399,964 1383,953 1366,940 1352,926 1338,909 1327,892 1313,900 1326,919 1340,936 1356,952 1373,965 1391,978 1408,989 1426,999 1444,1008 1444,1008 1444,1008 1450,1009 1455,1005 1456,999 1452,994z"
       style="fill:#000000" />
    <path
       id="path2349"
       d="M1742,1007 L1742,1007 1728,1012 1713,1016 1700,1022 1686,1027 1673,1031 1660,1035 1646,1038 1630,1040 1614,1041 1597,1040 1577,1038 1557,1034 1534,1027 1509,1019 1481,1008 1452,994 1444,1008 1475,1022 1503,1035 1530,1043 1553,1050 1575,1054 1595,1056 1614,1057 1632,1056 1648,1054 1664,1051 1679,1047 1692,1041 1706,1036 1719,1032 1732,1028 1746,1023 1746,1023 1746,1023 1751,1019 1752,1013 1748,1008 1742,1007z"
       style="fill:#000000" />
    <path
       id="path2351"
       d="M1812,1030 L1812,1030 1804,1023 1794,1017 1786,1013 1777,1009 1769,1006 1760,1005 1751,1005 1742,1007 1746,1023 1753,1021 1758,1021 1765,1022 1771,1023 1778,1027 1786,1031 1794,1037 1802,1042 1802,1042 1802,1042 1808,1043 1813,1040 1815,1035 1812,1030z"
       style="fill:#000000" />
    <path
       id="path2353"
       d="M1858,1059 L1858,1059 1853,1057 1848,1054 1843,1051 1837,1047 1831,1043 1825,1039 1819,1035 1812,1030 1802,1042 1809,1047 1815,1053 1823,1057 1829,1061 1835,1065 1840,1068 1845,1071 1850,1073 1850,1073 1850,1073 1856,1074 1861,1070 1862,1064 1858,1059z"
       style="fill:#000000" />
    <path
       id="path2355"
       d="M1985,1131 L1985,1131 1974,1129 1961,1122 1945,1114 1928,1103 1910,1092 1893,1080 1875,1069 1858,1059 1850,1073 1867,1083 1885,1094 1902,1106 1920,1117 1937,1128 1953,1136 1968,1143 1983,1147 1983,1147 1983,1147 1989,1145 1992,1140 1990,1134 1985,1131z"
       style="fill:#000000" />
    <path
       id="path2357"
       d="M2054,1108 L2055,1105 2050,1113 2044,1119 2037,1124 2028,1127 2019,1130 2008,1132 1997,1132 1985,1131 1983,1147 1997,1148 2010,1148 2023,1146 2034,1143 2045,1138 2054,1131 2062,1123 2069,1113 2070,1110 2069,1113 2070,1107 2066,1102 2060,1101 2055,1105z"
       style="fill:#000000" />
    <path
       id="path2359"
       d="M2021,1094 L2026,1095 2037,1094 2045,1094 2049,1096 2052,1096 2053,1098 2054,1101 2054,1104 2054,1108 2070,1110 2070,1104 2070,1097 2067,1090 2062,1084 2055,1080 2047,1078 2037,1078 2024,1079 2029,1080 2024,1079 2019,1082 2018,1088 2020,1093 2026,1095z"
       style="fill:#000000" />
    <path
       id="path2361"
       d="M1941,1060 L1943,1062 1954,1066 1965,1069 1975,1073 1985,1077 1994,1081 2004,1085 2012,1090 2021,1094 2029,1080 2020,1076 2010,1071 2000,1067 1991,1063 1981,1059 1971,1055 1960,1050 1949,1046 1951,1048 1949,1046 1942,1046 1939,1051 1938,1057 1943,1062z"
       style="fill:#000000" />
    <path
       id="path2363"
       d="M1861,1001 L1866,1009 1876,1012 1885,1017 1895,1023 1904,1029 1913,1036 1923,1044 1932,1052 1941,1060 1951,1048 1942,1040 1933,1032 1923,1024 1914,1017 1903,1009 1893,1003 1882,998 1872,993 1877,1001 1872,993 1865,993 1862,998 1861,1004 1866,1009z"
       style="fill:#000000" />
    <path
       id="path2365"
       d="M1807,942 L1807,941 1819,948 1830,955 1841,964 1848,972 1854,980 1859,988 1860,994 1861,1001 1877,1001 1876,992 1873,982 1868,972 1860,962 1851,952 1840,943 1827,934 1813,927 1813,926 1813,927 1807,927 1803,931 1803,937 1807,941z"
       style="fill:#000000" />
    <path
       id="path2367"
       d="M1740,977 L1748,974 1759,964 1767,956 1776,950 1784,945 1790,942 1797,941 1802,941 1807,942 1813,926 1804,925 1795,925 1786,926 1776,931 1768,936 1757,944 1747,952 1736,964 1744,961 1736,964 1735,970 1738,975 1743,977 1748,974z"
       style="fill:#000000" />
    <path
       id="path2369"
       d="M1599,879 L1599,879 1607,898 1618,915 1632,930 1650,943 1669,953 1691,962 1715,971 1740,977 1744,961 1719,955 1697,948 1675,939 1658,929 1642,918 1630,905 1621,890 1615,875 1615,875 1615,875 1611,870 1606,869 1600,873 1599,879z"
       style="fill:#000000" />
    <path
       id="path2371"
       d="M1525,670 L1525,670 1535,686 1544,701 1552,715 1558,730 1564,744 1569,758 1573,771 1577,784 1581,797 1584,810 1587,823 1589,835 1592,846 1594,857 1596,868 1599,879 1615,875 1612,864 1610,855 1608,842 1605,831 1603,819 1600,806 1597,793 1593,780 1589,767 1585,752 1578,738 1572,724 1566,709 1558,693 1549,678 1539,662 1539,662 1539,662 1534,658 1528,659 1524,664 1525,670z"
       style="fill:#000000" />
    <path
       id="path2373"
       d="M1196,585 L1196,585 1225,581 1253,578 1279,576 1304,575 1329,575 1352,576 1374,579 1395,583 1415,588 1434,594 1451,603 1469,613 1484,624 1498,638 1513,653 1525,670 1539,662 1525,643 1510,626 1494,612 1477,599 1459,589 1440,580 1419,572 1399,567 1376,563 1354,560 1329,559 1304,559 1279,560 1251,562 1223,565 1194,569 1194,569 1194,569 1189,572 1188,578 1190,583 1196,585z"
       style="fill:#000000" />
    <path
       id="path2375"
       d="M916,520 L916,520 925,528 934,535 944,544 956,551 968,558 982,565 996,572 1013,577 1030,582 1049,586 1069,589 1090,591 1114,592 1139,591 1167,589 1196,585 1194,569 1165,573 1139,575 1114,576 1092,575 1071,573 1051,570 1034,566 1017,561 1002,556 988,551 976,544 964,537 954,530 944,523 935,516 926,508 926,508 926,508 920,506 915,509 913,515 916,520z"
       style="fill:#000000" />
    <path
       id="path2377"
       d="M797,424 L801,430 817,439 831,449 845,459 860,471 874,483 888,495 902,507 916,520 926,508 912,495 898,483 884,471 870,459 855,447 841,437 825,425 809,416 813,422 809,416 803,415 798,419 797,425 801,430z"
       style="fill:#000000" />
    <path
       id="path2379"
       d="M770,353 L760,365 768,374 775,383 781,392 786,399 790,406 794,413 795,418 797,424 813,422 811,414 808,407 804,398 800,391 795,382 787,373 780,364 772,355 762,367 772,355 767,352 762,354 759,359 760,365z"
       style="fill:#000000" />
    <ellipse
       id="ellipse2381"
       ry="20"
       rx="27"
       cy="297"
       cx="550"
       style="fill:#000000" />
    <circle
       id="circle2383"
       r="8"
       cy="291"
       cx="554"
       style="fill:#f32737;fill-opacity:1" />
    <path
       id="path2385"
       d="M407,345 L416,349 424,349 431,348 436,344 432,351 426,356 419,359 411,361 407,345z"
       style="fill:#000000" />
    <path
       id="path2387"
       d="M652,479 L671,476 688,472 705,468 720,463 734,457 747,450 759,443 770,434 757,441 743,447 729,453 714,458 699,464 684,469 668,474 652,479z"
       style="fill:#000000" />
    <path
       id="path2389"
       d="M608,684 L620,681 632,678 645,675 659,672 672,669 684,665 696,661 707,655 701,659 694,664 686,670 677,675 664,681 650,688 632,694 610,701 608,684z"
       style="fill:#000000" />
    <path
       id="path2391"
       d="M1328,893 L1319,880 1311,866 1301,851 1291,837 1280,823 1266,810 1250,799 1232,790 1246,802 1258,814 1268,828 1278,841 1287,855 1296,870 1304,884 1313,898 1328,893z"
       style="fill:#000000" />
    <path
       id="path2393"
       d="M434,392 L437,391 439,391 440,392 443,396 440,410 436,423 431,436 426,448 421,460 415,472 408,485 402,497 408,485 413,472 418,460 423,447 427,434 430,420 432,406 434,392z"
       style="fill:#000000" />
    <path
       id="path2395"
       d="M468,407 L470,405 472,404 474,404 478,407 480,422 481,440 480,459 478,479 474,498 470,517 464,534 456,549 461,532 466,514 470,495 472,476 473,457 473,439 472,422 468,407z"
       style="fill:#000000" />
    <circle
       id="circle2397"
       r="3"
       cy="370"
       cx="457"
       style="fill:#000000" />
    <circle
       id="circle2399"
       r="3"
       cy="387"
       cx="468"
       style="fill:#000000" />
    <circle
       id="circle2401"
       r="3"
       cy="375"
       cx="429"
       style="fill:#000000" />
    <circle
       id="circle2403"
       r="3"
       cy="375"
       cx="486"
       style="fill:#000000" />
    <path
       id="path2405"
       d="M1145,474 L1153,468 1159,461 1162,452 1162,443 1158,435 1150,429 1139,425 1122,425 1101,427 1081,427 1061,427 1042,425 1022,423 1002,419 981,414 960,409 938,402 916,394 892,385 867,374 841,363 813,350 784,336 753,321 783,338 812,353 840,367 867,380 893,391 918,401 942,410 965,417 987,424 1008,429 1028,433 1048,436 1067,439 1085,440 1102,440 1119,440 1126,441 1132,443 1138,447 1142,452 1145,457 1147,463 1147,469 1145,474z"
       style="fill:#000000" />
    <path
       id="path2407"
       d="M1012,459 L998,455 984,450 970,445 956,440 942,435 928,429 914,423 901,416 887,410 873,403 860,396 846,388 833,380 820,372 806,364 793,355 806,362 820,369 833,377 847,384 860,391 874,397 887,404 901,411 915,417 928,424 942,430 956,436 970,442 984,448 998,453 1012,459z"
       style="fill:#000000" />
    <path
       id="path2409"
       d="M764,371 L759,365 753,359 746,353 740,346 733,340 727,335 720,331 713,327 721,329 730,332 739,335 747,339 756,343 765,348 773,353 781,359 764,371z"
       style="fill:#000000" />
    <path
       id="path2411"
       d="M857,346 L839,337 822,329 805,320 788,311 769,303 750,294 728,286 704,277 711,278 719,279 728,281 737,283 747,285 757,288 767,291 778,295 789,298 800,303 811,307 822,312 834,317 845,322 857,328 868,334 857,346z"
       style="fill:#000000" />
    <path
       id="path2413"
       d="M494,429 L501,424 506,419 510,412 513,405 514,397 515,389 514,381 512,373 511,380 509,387 507,393 504,399 500,404 496,408 491,412 486,416 494,429z"
       style="fill:#000000" />
  </g>
</svg>
