<?xml version="1.0" encoding="UTF-8" standalone="no"?>
<!-- Created with Inkscape (http://www.inkscape.org/) -->

<svg
   xmlns:dc="http://purl.org/dc/elements/1.1/"
   xmlns:cc="http://creativecommons.org/ns#"
   xmlns:rdf="http://www.w3.org/1999/02/22-rdf-syntax-ns#"
   xmlns:svg="http://www.w3.org/2000/svg"
   xmlns="http://www.w3.org/2000/svg"
   xmlns:sodipodi="http://sodipodi.sourceforge.net/DTD/sodipodi-0.dtd"
   xmlns:inkscape="http://www.inkscape.org/namespaces/inkscape"
   width="467.85721"
   height="309.28571"
   id="svg3906"
   version="1.1"
   inkscape:version="0.48.4 r9939"
   sodipodi:docname="Leeuwarden_vlag_2014.svg">
  <defs
     id="defs3908" />
  <sodipodi:namedview
     id="base"
     pagecolor="#ffffff"
     bordercolor="#666666"
     borderopacity="1.0"
     inkscape:pageopacity="0.0"
     inkscape:pageshadow="2"
     inkscape:zoom="0.98994949"
     inkscape:cx="434.98395"
     inkscape:cy="157.38631"
     inkscape:document-units="px"
     inkscape:current-layer="layer1"
     showgrid="false"
     fit-margin-top="0"
     fit-margin-left="0"
     fit-margin-right="0"
     fit-margin-bottom="0"
     inkscape:window-width="1600"
     inkscape:window-height="837"
     inkscape:window-x="-8"
     inkscape:window-y="-8"
     inkscape:window-maximized="1" />
  <metadata
     id="metadata3911">
    <rdf:RDF>
      <cc:Work
         rdf:about="">
        <dc:format>image/svg+xml</dc:format>
        <dc:type
           rdf:resource="http://purl.org/dc/dcmitype/StillImage" />
        <dc:title />
      </cc:Work>
    </rdf:RDF>
  </metadata>
  <g
     inkscape:label="Laag 1"
     inkscape:groupmode="layer"
     id="layer1"
     transform="translate(11.071462,-312.00504)">
    <rect
       style="fill:#0f47af;fill-opacity:1;fill-rule:evenodd;stroke:none"
       id="rect3857"
       width="414.2858"
       height="309.28571"
       x="42.49995"
       y="312.00504" />
    <rect
       style="fill:#ffffff;fill-opacity:1;fill-rule:evenodd;stroke:none"
       id="rect3870"
       width="34.285702"
       height="309.28571"
       x="8.2141829"
       y="312.00504" />
    <rect
       style="fill:#da131b;fill-opacity:1;fill-rule:evenodd;stroke:none"
       id="rect3872"
       width="26.861843"
       height="309.28571"
       x="-11.071462"
       y="312.00504" />
    <path
       style="fill:#fcdd04;fill-opacity:1"
       d="m 300.97007,599.44525 c -2.6827,-0.32914 -4.5908,-2.07035 -5.5156,-5.0333 -0.6741,-2.15942 -0.606,-3.56554 0.2204,-4.54625 0.5901,-0.70024 1.1611,-0.95333 2.1622,-0.9584 1.1136,-0.005 2.206,0.42077 2.9305,1.14388 l 0.3963,0.39572 -0.2256,0.43217 c -0.1242,0.23766 -0.3296,0.76805 -0.4568,1.17856 -0.2002,0.64699 -0.2354,0.88786 -0.2647,1.80719 -0.038,1.20967 0.053,1.81686 0.4163,2.78682 0.2956,0.78772 0.756,1.53819 1.3694,2.23184 0.448,0.50672 0.4777,0.56005 0.3124,0.56005 -0.1005,0 -0.3282,0.0145 -0.506,0.0324 -0.1778,0.0179 -0.5553,0.004 -0.8388,-0.0309 z m -16.2507,-1.77163 c -3.1366,-0.91872 -4.7802,-3.47802 -4.6059,-7.17225 0.082,-1.75107 0.3521,-2.59128 1.0808,-3.36863 0.9354,-0.99797 2.1835,-1.14079 3.5957,-0.4115 0.7192,0.37144 1.5102,1.14627 1.7752,1.73906 l 0.1657,0.37058 -0.2765,0.25801 c -0.3601,0.33618 -1.0895,1.38721 -1.3614,1.96193 -0.4975,1.05168 -0.7921,2.5736 -0.6948,3.59059 0.095,0.99553 0.4506,2.19407 0.8498,2.86564 0.1193,0.20076 0.1928,0.36241 0.1634,0.35925 -0.03,-0.004 -0.3409,-0.0899 -0.692,-0.19268 z m 8.9527,-5.83973 c -0.9876,-0.76931 -1.6448,-2.11204 -1.561,-3.18945 0.044,-0.5637 0.4504,-1.43886 0.9401,-2.02341 0.6313,-0.75357 1.7026,-1.42008 2.8994,-1.8038 0.29,-0.093 0.5935,-0.21753 0.6746,-0.27676 0.081,-0.0592 0.5118,-0.22946 0.9573,-0.37824 1.8164,-0.60658 2.3515,-1.33026 2.354,-3.18338 0,-0.97102 -0.2136,-2.27964 -0.4206,-2.56033 -0.2761,-0.37457 -0.7942,-0.1583 -0.8074,0.33703 -0.01,0.12556 0.033,0.40312 0.08,0.61684 0.1357,0.60738 0.2079,1.75816 0.1396,2.22288 -0.1302,0.88637 -0.3835,1.12551 -1.6761,1.58314 -0.5054,0.17895 -0.9542,0.35658 -0.9973,0.39481 -0.043,0.0382 -0.3587,0.16276 -0.7012,0.27684 -1.9351,0.64451 -3.4123,1.89317 -4.086,3.45394 -0.3158,0.73176 -0.411,1.20852 -0.3918,1.9643 0.012,0.45854 -0.017,0.69514 -0.1055,0.87459 -0.2342,0.47454 -0.8893,0.92131 -1.7141,1.16904 -0.515,0.15471 -2.947,0.2537 -3.1214,0.12707 -0.1571,-0.11396 0.3198,-0.84767 1.0412,-1.60197 l 0.5833,-0.60986 -0.052,-0.36805 c -0.1882,-1.33858 -1.5067,-2.75911 -3.1315,-3.37344 -1.3358,-0.50512 -2.76,-0.27554 -3.798,0.61224 -0.5964,0.51014 -1.2851,1.62929 -1.3831,2.24762 -0.029,0.18341 -0.082,0.33348 -0.1181,0.33348 -0.081,0 -0.628,-0.73139 -0.7785,-1.04207 -0.2961,-0.61074 -0.2397,-1.47504 0.1357,-2.08018 0.1019,-0.1644 0.2426,-0.51034 0.3127,-0.76873 0.07,-0.25839 0.2632,-0.74941 0.4294,-1.09113 1.1511,-2.36743 4.1546,-3.31832 7.1961,-2.27823 0.5609,0.1918 0.7409,0.21479 1.7307,0.22104 0.8569,0.005 1.1976,-0.0236 1.5193,-0.12998 1.1955,-0.39493 1.8932,-1.4806 2.1346,-3.32179 0.083,-0.6333 0.08,-0.6869 -0.059,-0.88628 -0.3245,-0.46577 -0.7872,-0.23642 -0.8684,0.43037 -0.1716,1.40882 -0.494,2.17875 -1.0692,2.55343 -0.6772,0.44116 -1.9263,0.46381 -3.3139,0.0601 -1.8874,-0.54917 -3.6227,-0.51053 -5.2252,0.11638 -1.5305,0.59877 -2.8235,2.06363 -3.3507,3.79629 -0.1461,0.48051 -0.5,0.84582 -1.1819,1.2205 -0.3646,0.20041 -0.5318,0.24375 -0.9573,0.24829 -0.6288,0.006 -1.0321,-0.18112 -1.6203,-0.75471 -0.3472,-0.33855 -0.9204,-1.07557 -0.9204,-1.18341 0,-0.0965 1.0981,-0.55974 1.7007,-0.71746 l 0.6767,-0.1771 0.1441,-0.3881 c 0.5585,-1.50457 -0.1005,-3.7108 -1.4722,-4.92828 -0.9018,-0.80043 -1.949,-1.11489 -3.0223,-0.9075 l -0.6045,0.11679 0,-0.40206 c 0,-0.90896 0.4488,-2.08601 1.1545,-3.02795 1.1561,-1.5428 3.0411,-2.53631 4.5644,-2.40564 1.5839,0.13588 2.6039,1.22682 3.094,3.30924 0.2285,0.97049 1.1751,2.14737 1.9916,2.47609 0.3445,0.13864 0.5354,0.16498 0.9965,0.13753 0.9218,-0.0549 1.4956,-0.40785 3.1118,-1.91429 2.5796,-2.40459 3.5501,-3.21079 4.6027,-3.82325 1.7018,-0.99035 3.2293,-1.0125 4.6622,-0.0676 l 0.2536,0.16725 0.2984,-0.42152 0.2983,-0.42154 -0.3716,-0.38421 c -0.5071,-0.5246 -1.079,-1.35631 -1.4813,-2.15421 -1.395,-2.76692 -1.6147,-5.79711 -0.5791,-7.986 0.5072,-1.07214 1.1646,-1.78847 2.5337,-2.76101 0.3962,-0.28145 0.7117,-0.5209 0.7012,-0.53215 -0.011,-0.011 -0.7576,-0.13043 -1.6603,-0.26494 -2.4884,-0.37076 -3.9029,-0.71591 -5.6493,-1.37834 -4.0996,-1.555 -6.6595,-4.07962 -7.4501,-7.34736 -0.3885,-1.60573 -0.2913,-3.7193 0.2364,-5.14673 0.2661,-0.71941 0.6963,-2.1776 0.6963,-2.35999 0,-0.0552 -0.2004,-0.17263 -0.4452,-0.26083 l -0.4451,-0.16036 -0.062,0.17278 c -0.034,0.0951 -0.1667,0.45089 -0.2938,0.79073 -0.1273,0.33985 -0.3264,0.97918 -0.4426,1.42069 -0.4455,1.69298 -1.6157,3.68545 -2.9385,5.00345 -1.4493,1.44416 -3.0947,2.22216 -4.9148,2.32385 -2.2776,0.12731 -4.4198,-0.80498 -6.1802,-2.68954 -0.8921,-0.9549 -1.3404,-1.66558 -1.471,-2.33179 -0.1142,-0.58246 -0.3195,-1.05655 -0.6535,-1.5093 l -0.2271,-0.30768 0.2921,0.0552 c 0.6002,0.11348 1.9264,0.14351 2.5013,0.0566 2.1946,-0.33157 3.7077,-1.25384 4.9331,-3.0069 0.3044,-0.43537 0.5533,-0.81882 0.5533,-0.85214 0,-0.0332 -0.3065,-0.11915 -0.6812,-0.19081 -1.4637,-0.28 -2.5737,-0.68046 -3.5311,-1.27397 -0.5703,-0.35349 -1.6294,-1.47965 -1.9638,-2.08803 -0.3491,-0.63525 -0.6482,-1.6137 -0.7874,-2.57584 -0.3101,-2.14448 -0.816,-3.37599 -1.8903,-4.60121 l -0.4216,-0.48092 0.7577,-0.0458 c 1.0073,-0.0608 1.4356,-0.24814 2.2501,-0.98402 l 0.2498,-0.22569 -0.839,-0.6184 c -0.992,-0.73123 -2.1044,-1.87972 -2.6217,-2.70677 -0.3726,-0.59565 -1.1261,-1.97273 -1.1261,-2.05807 0,-0.0255 0.6476,-0.0722 1.4391,-0.10383 0.7915,-0.0316 1.4296,-0.0857 1.4177,-0.12015 -0.012,-0.0343 -0.4493,-0.4083 -0.972,-0.8309 -1.2058,-0.97457 -1.7041,-1.46814 -2.2183,-2.19716 -0.6735,-0.95478 -0.9115,-1.67465 -0.9385,-2.83854 -0.018,-0.79725 -0.1041,-0.95829 -0.5122,-0.96336 -0.3392,-0.004 -0.4626,0.30093 -0.4584,1.1337 0.01,1.50828 0.6101,2.85757 1.8826,4.21551 l 0.5607,0.59824 -0.5975,0.0496 c -0.3285,0.0274 -0.7382,0.0498 -0.9104,0.0501 -0.1721,0 -0.313,0.0221 -0.313,0.0486 0,0.11256 1.5328,2.95865 1.9417,3.60557 0.4673,0.73911 1.6016,2.01225 2.2006,2.47003 0.1924,0.14694 0.3332,0.28484 0.313,0.30642 -0.021,0.0217 -0.2226,0.0661 -0.4496,0.099 -0.4718,0.0683 -1.4105,-0.0202 -2.5328,-0.23888 -0.4253,-0.0828 -0.9427,-0.17343 -1.1499,-0.20126 -0.4274,-0.0575 -0.4346,-0.0494 -0.5127,0.57915 l -0.047,0.38414 0.5002,0.1724 c 0.9623,0.33169 1.6777,0.82015 2.4035,1.641 0.8769,0.99175 1.3349,2.09832 1.599,3.86346 0.1784,1.19206 0.3708,1.88708 0.7451,2.69099 0.6305,1.35406 1.6629,2.43703 3.0121,3.15979 0.6374,0.34149 1.74,0.76988 2.2378,0.86952 0.1489,0.0297 0.2709,0.0824 0.2709,0.11675 0,0.0343 -0.1741,0.23057 -0.3867,0.4359 -1.1944,1.15337 -2.6288,1.70511 -4.437,1.70667 -1.4159,0 -2.7096,-0.35143 -3.813,-1.0394 l -0.4902,-0.30566 -0.2602,0.38643 c -0.1432,0.21254 -0.2603,0.41768 -0.2603,0.45591 0,0.0664 0.4268,0.44905 1.4751,1.32261 0.6158,0.51317 1.1199,1.08918 1.3208,1.50919 0.087,0.18205 0.1868,0.58486 0.2218,0.89509 0.1051,0.93363 0.8971,2.95781 1.5734,4.02115 0.6404,1.00693 2.0942,2.42357 3.1228,3.04293 0.2165,0.13036 0.3785,0.25328 0.3598,0.2731 -0.099,0.10616 -2.6827,-0.57361 -3.5367,-0.93065 -1.2785,-0.53451 -2.408,-1.35032 -3.0258,-2.18546 -0.1612,-0.21791 -0.3363,-0.39622 -0.3891,-0.39622 -0.053,0 -0.2562,0.0867 -0.4522,0.19261 l -0.3561,0.1926 0.143,0.65206 c 0.8563,3.90184 1.8697,6.06976 3.8146,8.16024 1.0149,1.09092 1.9683,1.87293 3.5059,2.87585 0.124,0.0809 0.086,0.11756 -0.3521,0.332 -1.7416,0.85423 -3.6445,0.82076 -5.3357,-0.0938 -0.9225,-0.49891 -1.9227,-1.58401 -2.4036,-2.60779 -0.3907,-0.83163 -0.4959,-1.38188 -0.4959,-2.5928 0,-1.26418 0.021,-1.21802 -0.586,-1.21802 -0.3364,0 -0.3551,0.0114 -0.399,0.24555 -0.1254,0.66918 0.055,3.69525 0.2822,4.72443 0.2795,1.26811 0.829,2.53407 1.5328,3.53113 0.2346,0.33245 0.8079,0.99073 1.2738,1.4628 0.466,0.47208 1.0291,1.10169 1.2515,1.39911 0.4609,0.6168 0.9734,1.63848 1.1976,2.38728 0.8077,2.69954 0.012,5.89054 -2.3013,9.22782 -0.461,0.6651 -1.7407,2.26508 -1.7791,2.22422 -0.013,-0.0148 0.023,-0.20084 0.084,-0.41333 0.4028,-1.42827 0.5993,-3.55619 0.4779,-5.17756 -0.2341,-3.12918 -1.2266,-5.83363 -3.1087,-8.4716 -0.8986,-1.25957 -1.4511,-2.38066 -1.7916,-3.6361 -0.3592,-1.32432 -0.4179,-1.98504 -0.4586,-5.16618 l -0.038,-2.96615 -0.4591,0 -0.4592,0 -0.052,1.15897 c -0.2015,4.52673 -1.3918,7.96679 -3.4891,10.08505 -1.1593,1.17078 -2.2981,1.71193 -3.7457,1.77981 -1.3135,0.0616 -2.4418,-0.29159 -3.6911,-1.1555 l -0.5691,-0.39347 1.1048,-0.004 c 4.1012,-0.011 6.0313,-1.61493 6.714,-5.57887 0.2213,-1.28426 0.1748,-3.89959 -0.1121,-6.3051 -0.1275,-1.06936 -0.2318,-2.24651 -0.2318,-2.61586 0,-1.79686 0.6104,-3.25146 1.8829,-4.48743 0.3416,-0.33173 0.6204,-0.62394 0.6195,-0.64932 0,-0.0255 -0.1417,-0.21555 -0.313,-0.4226 l -0.3115,-0.3764 -0.6591,0.63765 c -1.1053,1.0691 -2.2294,1.77631 -3.3913,2.13362 -0.5016,0.15429 -0.7585,0.1812 -1.7306,0.18139 -0.6278,0 -1.2376,-0.0282 -1.3551,-0.0632 l -0.2136,-0.0634 0.6029,-0.62961 c 1.1575,-1.20875 2.3019,-2.80325 3.6123,-5.03311 l 0.7996,-1.36061 -0.3387,-0.37232 c -0.2921,-0.32124 -0.3561,-0.35894 -0.4666,-0.27501 -0.9025,0.68538 -1.9502,1.38497 -2.4388,1.62849 -0.6421,0.32003 -1.4475,0.57579 -1.687,0.53573 -0.1771,-0.0297 -0.124,-0.12098 2.298,-3.95265 0.9561,-1.51255 1.9017,-3.03267 2.1013,-3.37809 l 0.3629,-0.62801 0.053,0.90303 c 0.094,1.62209 0.4672,3.22927 1.0965,4.72379 0.6597,1.5667 1.008,1.98054 1.4229,1.69058 0.2896,-0.20251 0.242,-0.47592 -0.2709,-1.55576 -1.0212,-2.15039 -1.4821,-4.67775 -1.2381,-6.79067 0.1191,-1.03224 0.1891,-1.32116 0.5787,-2.39003 0.5939,-1.6291 0.7594,-2.39742 0.8045,-3.73447 0.035,-1.0357 0.02,-1.26235 -0.1174,-1.84366 -0.3226,-1.36126 -0.6944,-1.99221 -2.0375,-3.45779 -1.4005,-1.52836 -2.0882,-2.74314 -2.6815,-4.73751 -0.8058,-2.708 -1.0883,-5.16801 -1.2893,-11.22824 -0.2148,-6.47529 -0.3911,-9.91349 -0.5954,-11.61013 -0.6792,-5.6389 -2.0357,-9.45868 -4.3739,-12.31601 -2.5247,-3.08539 -6.3522,-4.94151 -10.9981,-5.33366 -0.611,-0.0515 -0.6572,-0.0445 -0.8285,0.12727 -0.203,0.20336 -0.2187,0.29564 -0.099,0.57686 0.1001,0.23461 0.1371,0.24524 1.39,0.39896 6.7589,0.82949 10.9224,4.3873 12.8313,10.96462 0.3736,1.28728 0.8573,3.53578 0.7606,3.53578 -0.021,0 -0.1102,-0.15025 -0.1978,-0.33394 -0.4089,-0.85804 -1.4635,-2.31699 -2.4324,-3.36493 -1.664,-1.79991 -3.8573,-3.26896 -5.954,-3.98791 -1.1419,-0.3915 -1.2994,-0.4082 -4.9342,-0.52304 -4.2241,-0.13345 -5.7768,-0.23964 -8.1375,-0.5565 -3.6319,-0.48748 -6.2488,-1.34648 -7.24,-2.37658 -0.6154,-0.63959 -0.67,-1.25278 -0.1879,-2.11139 0.3849,-0.68564 0.8405,-1.13222 1.7094,-1.67557 1.4751,-0.92253 2.5169,-1.68623 2.5128,-1.84198 0,-0.0452 -0.1295,-0.23914 -0.2849,-0.4311 l -0.2828,-0.349 -0.5067,0.3955 c -3.2682,2.55069 -7.0725,3.28794 -10.8843,2.10942 -2.2355,-0.69121 -4.0902,-2.18184 -4.0928,-3.28939 0,-0.24723 0.051,-0.35856 0.2755,-0.59691 0.346,-0.36707 0.8732,-0.58056 2.1542,-0.87249 1.6492,-0.37579 2.4375,-0.63044 2.3976,-0.77442 -0.02,-0.0681 -0.073,-0.29475 -0.1217,-0.50367 l -0.088,-0.3799 -0.2659,0.0513 c -0.1462,0.0282 -0.7795,0.18749 -1.4073,0.35394 -1.5209,0.40329 -2.4025,0.50456 -3.9031,0.44833 -2.8161,-0.10547 -5.081,-0.91807 -7.379,-2.64742 -0.628,-0.47268 -2.0474,-1.83177 -2.0474,-1.96052 0,-0.0308 0.1809,-0.18914 0.402,-0.35159 0.5764,-0.42364 1.2854,-1.18639 1.7283,-1.85952 l 0.3829,-0.58205 1.3018,-0.0393 1.3016,-0.0393 -0.8367,-0.70717 c -0.4603,-0.38891 -0.9015,-0.76234 -0.9804,-0.82976 -0.1391,-0.11866 -0.14,-0.14363 -0.028,-0.77735 0.3096,-1.74129 0.079,-3.95609 -0.6629,-6.38922 l -0.2067,-0.67715 0.7757,-0.80978 c 1.5217,-1.58874 1.9605,-2.92534 2.0316,-6.18831 l 0.038,-1.76412 0.1669,0.22345 c 0.3055,0.40868 0.8291,1.48895 1.0524,2.17092 0.3474,1.06118 0.484,2.11624 0.4309,3.32911 -0.055,1.2657 -0.2239,2.11661 -0.7444,3.75913 -0.5022,1.58501 -0.6347,2.37265 -0.6372,3.78872 -0.01,3.74847 1.7812,7.30631 4.755,9.46253 0.4058,0.29422 0.9516,0.64977 1.2129,0.79008 1.1279,0.60571 2.6224,1.04329 3.9291,1.15043 l 0.6403,0.0525 0,-0.51323 0,-0.51328 -0.4234,-0.0543 c -1.5418,-0.19741 -2.4147,-1.5985 -2.4008,-3.85325 0.013,-1.97455 0.7344,-4.01565 2.0317,-5.74218 1.3558,-1.80438 2.6742,-4.05543 3.3788,-5.76877 0.1688,-0.41055 0.4621,-1.23307 0.6517,-1.8278 l 0.3446,-1.08137 0.1603,0.86681 c 0.3313,1.79148 0.9354,3.40755 1.7913,4.7924 0.8461,1.36877 2.4062,2.85078 3.9482,3.75052 0.7205,0.42035 2.6715,1.38009 2.7139,1.33493 0.018,-0.0187 -0.1982,-0.61856 -0.479,-1.33306 -0.6313,-1.60559 -1.0037,-2.81278 -1.2292,-3.98406 -0.095,-0.49476 -0.1624,-0.91102 -0.1493,-0.92509 0.013,-0.0141 0.1167,0.24928 0.23,0.58524 0.3939,1.16744 1.0708,2.47079 1.7628,3.39398 1.6957,2.26237 4.2104,3.68565 7.4417,4.21193 0.6343,0.10329 4.4447,0.31057 4.5061,0.24509 0.012,-0.013 -0.4764,-0.47677 -1.0854,-1.03102 -2.9263,-2.66378 -4.4238,-4.8872 -4.8925,-7.26465 -0.2187,-1.10942 -0.1184,-2.67968 0.249,-3.8946 0.5338,-1.76556 1.6818,-3.75082 3.0683,-5.30617 0.4075,-0.4571 0.8984,-1.06651 1.0907,-1.35421 1.4461,-2.16209 2.4061,-5.04653 2.9944,-8.99628 0.084,-0.56535 0.088,-0.57252 0.428,-0.78285 0.4918,-0.30431 1.0417,-0.71861 1.3189,-0.99365 0.1538,-0.15263 0.2649,-0.21053 0.3105,-0.16185 0.039,0.0417 1.4933,3.54062 3.2315,7.77541 l 3.1604,7.69959 5.9046,8.71864 5.9045,8.71864 1.4501,0.79043 c 1.6197,0.88286 2.1858,1.2264 3.3667,2.04324 2.9906,2.06844 5.5928,4.65984 7.8154,7.78307 0.9846,1.38356 2.3294,3.66251 3.7066,6.28097 0.8824,1.67796 1.7868,2.95434 3.1657,4.46773 2.2874,2.51047 4.801,4.06608 7.5875,4.69562 1.0542,0.23815 3.1405,0.25801 4.2346,0.0402 2.8298,-0.56317 5.5289,-2.20966 8.0646,-4.91934 2.719,-2.90562 4.6243,-6.3123 5.5853,-9.98643 1.3423,-5.13217 1.0207,-11.1318 -0.9764,-18.21185 -0.2151,-0.7626 -0.757,-2.51798 -1.2041,-3.9009 -2.4156,-7.46982 -3.4234,-12.62646 -3.5957,-18.39709 -0.1798,-6.02455 1.1964,-11.66188 3.886,-15.91823 0.3642,-0.57642 9.6266,-18.84991 10.1,-19.92598 1.6555,-3.76326 2.2018,-8.03202 1.5185,-11.86495 -0.7825,-4.38957 -3.1511,-8.26552 -6.5319,-10.68893 -1.1888,-0.85205 -2.9913,-1.64941 -4.4501,-1.96851 -2.4766,-0.54176 -5.224,-0.0677 -7.4492,1.28519 -1.9697,1.19762 -3.847,3.24838 -5.2199,5.70196 -0.9242,1.65188 -1.2779,2.99138 -1.2137,4.59654 0.044,1.09407 0.2084,1.79562 0.6328,2.69623 0.5592,1.18652 1.4014,2.14543 2.4903,2.83567 1.9742,1.25135 4.6346,1.36136 6.9617,0.28786 0.3294,-0.1519 0.6065,-0.26792 0.616,-0.25781 0.053,0.0566 -0.2308,1.44966 -0.4147,2.0354 -0.4418,1.40698 -1.0284,2.42777 -1.9525,3.3976 -1.2756,1.33873 -2.7873,1.92854 -4.6938,1.83145 -1.6019,-0.0816 -3.1524,-0.57857 -4.4848,-1.43743 -0.7965,-0.51332 -1.6238,-0.89437 -1.9494,-0.89781 -0.1247,-0.002 -0.1739,0.0701 -0.2393,0.34743 -0.1395,0.59076 -0.1214,0.64326 0.2573,0.745 2.0586,0.55304 3.2482,2.7694 3.8563,7.1839 0.2668,1.93732 0.9163,3.53845 1.8413,4.53928 0.6078,0.65766 1.2023,1.02963 2.1002,1.31384 0.6414,0.20306 1.9605,0.34117 2.6271,0.27508 0.3137,-0.0311 0.5028,-0.0207 0.5028,0.0278 0,0.19553 -0.6173,1.05811 -1.1213,1.56663 -2.6161,2.64005 -7.2112,2.49425 -10.2787,-0.32615 -1.9673,-1.80887 -3.3182,-4.63091 -3.8079,-7.95467 l -0.049,-0.33394 -0.4988,0 -0.4988,0 -0.046,0.37322 c -0.025,0.20528 -0.1108,0.90718 -0.1905,1.55979 -0.4947,4.04343 -0.3024,7.69592 0.5538,10.52083 0.5232,1.72595 1.5608,3.63732 2.595,4.77991 1.3333,1.47309 3.0698,2.57929 5.1675,3.29191 0.2633,0.0895 0.8763,0.25826 1.3624,0.37517 l 0.8837,0.21257 -0.026,0.22646 c -0.047,0.41183 -0.356,1.20246 -0.6044,1.54777 -0.3171,0.44089 -0.7736,0.8109 -1.2619,1.02303 -0.3403,0.14782 -0.5281,0.16909 -1.4584,0.16529 -0.9655,-0.004 -1.1244,-0.0251 -1.6571,-0.21967 -1.8844,-0.68868 -3.2066,-1.89951 -4.6321,-4.24206 -0.4395,-0.72222 -0.8158,-1.29535 -0.8362,-1.27362 -0.02,0.0218 0.01,0.68617 0.064,1.47649 0.1283,1.81764 0.1286,5.16585 0,6.30848 -0.3953,3.52236 -1.3726,6.08158 -3.0277,7.92848 -1.5812,1.76457 -3.4094,2.71798 -6.2239,3.24586 -0.5957,0.11172 -1.1729,0.13832 -3.0194,0.13916 -1.2556,0 -2.3469,-0.0267 -2.425,-0.0609 -0.1105,-0.0481 0.1685,-0.21555 1.2519,-0.75138 1.5563,-0.76982 2.3482,-1.23083 3.2719,-1.90485 2.2235,-1.62251 3.6679,-3.71282 4.3075,-6.23382 0.3405,-1.34193 0.431,-2.16479 0.4327,-3.93404 0,-1.2489 -0.029,-1.83099 -0.1283,-2.39436 -0.5387,-3.08623 -0.6299,-6.48456 -0.2254,-8.39265 0.1688,-0.79583 0.4661,-1.7235 0.7399,-2.30845 0.723,-1.54439 1.178,-3.47457 1.2222,-5.18393 0.019,-0.73165 0.01,-0.85687 -0.1187,-1.00181 -0.1387,-0.16369 -0.4463,-0.21749 -0.6036,-0.10552 -0.178,0.12681 -0.2503,0.43123 -0.2506,1.05438 0,1.27328 -0.3683,2.93663 -0.9286,4.20083 -0.4999,1.12775 -1.9148,2.81213 -3.1583,3.75989 -0.8032,0.61207 -1.9529,1.25681 -2.9457,1.65176 -0.7677,0.30535 -2.3846,0.76831 -3.0194,0.86453 l -0.3683,0.0559 0.5892,-0.5783 c 1.9526,-1.91664 3.3794,-3.89222 4.5046,-6.23686 1.9383,-4.03921 2.8187,-8.34875 3.0434,-14.89615 0.041,-1.19205 0.1229,-2.5594 0.1822,-3.03854 0.7497,-6.06454 3.3493,-10.19219 7.9747,-12.66192 l 0.4607,-0.24599 -0.2226,-0.47053 -0.2226,-0.47053 -0.4428,0.23839 c -1.1508,0.61986 -2.6645,0.96093 -3.561,0.80241 -1.6168,-0.28584 -2.6557,-1.62818 -2.9238,-3.77783 -0.2147,-1.72109 0.2836,-3.8331 1.2284,-5.20619 0.3091,-0.44937 1.0578,-1.18247 1.1473,-1.12345 0.034,0.0225 0.063,0.13679 0.063,0.25395 0,0.33745 0.2761,1.31137 0.5344,1.88468 0.3007,0.66779 0.9721,1.40375 1.5414,1.68975 1.1065,0.55595 2.7645,0.35018 4.593,-0.57004 1.4575,-0.73356 2.8005,-1.6733 4.5356,-3.1738 3.3307,-2.88056 6.7561,-4.64457 10.41,-5.3608 0.8705,-0.17067 3.5293,-0.24318 4.4231,-0.12065 2.4063,0.32995 4.7799,1.2363 6.6969,2.55732 4.4636,3.07574 7.7557,8.40937 9.0471,14.65722 0.4284,2.072 0.5237,3.13408 0.5221,5.81441 0,2.29969 -0.016,2.57679 -0.205,3.91102 -0.3133,2.2101 -0.7883,4.13313 -1.4918,6.04027 -0.1776,0.48187 -2.6985,5.78556 -5.6018,11.78598 -2.9033,6.00042 -5.452,11.31648 -5.664,11.81345 -2.6072,6.11358 -2.8648,15.11558 -0.7006,24.47554 0.4329,1.87183 0.8791,3.33619 1.6917,5.55187 0.7376,2.01137 1.2135,3.41528 1.6202,4.78047 2.0067,6.73399 2.3999,12.56667 1.1889,17.63969 -0.8246,3.45492 -2.3387,6.52442 -5.0633,10.26473 -0.3349,0.45975 -0.6089,0.86093 -0.6089,0.8915 0,0.0305 0.2576,0.34926 0.5723,0.70825 0.8213,0.93652 1.3961,2.16224 1.6716,3.56425 0.056,0.28591 0.093,0.52997 0.081,0.54236 -0.012,0.0126 -0.2164,-0.0945 -0.455,-0.23766 -0.9752,-0.58486 -1.759,-0.85462 -2.9246,-1.00663 -0.6774,-0.0883 -0.9918,-0.0836 -2.3475,0.0351 -0.8609,0.0754 -1.577,0.14949 -1.5912,0.16466 -0.014,0.0152 0.3692,0.34588 0.8522,0.73493 1.4317,1.15353 1.933,1.75596 2.2215,2.66973 0.084,0.26514 0.1523,0.62648 0.1523,0.80296 0,0.34683 -0.1865,1.30694 -0.2872,1.47942 -0.047,0.0814 -0.246,-0.0263 -0.8533,-0.46254 -2.0857,-1.49844 -3.6842,-2.09093 -6.7529,-2.50282 -0.8837,-0.11861 -1.6066,-0.20457 -1.6066,-0.191 0,0.0137 0.4768,0.4303 1.0598,0.92605 1.1127,0.94639 1.4967,1.40638 1.6934,2.02879 0.1266,0.40076 0.1556,0.80841 0.062,0.87028 -0.031,0.0206 -0.3947,-0.20309 -0.8074,-0.49727 -1.74,-1.2402 -3.574,-1.91948 -5.6162,-2.0801 -0.3443,-0.0271 -0.7792,-0.0684 -0.9666,-0.0919 l -0.3406,-0.0426 -0.046,0.43819 c -0.026,0.24097 -0.066,0.63136 -0.091,0.86746 l -0.045,0.42934 -0.2681,-0.14579 c -0.8171,-0.44452 -2.0018,-0.84227 -3.2136,-1.07912 -0.6068,-0.11855 -1.0804,-0.14191 -2.6881,-0.13269 -1.0734,0.006 -2.0891,0.0414 -2.2572,0.0783 l -0.3056,0.0671 0.4822,0.8643 c 1.3088,2.34611 2.2211,4.71434 3.2128,8.34067 0.7543,2.75847 1.4411,5.83604 2.8202,12.63669 l 0.2068,1.01977 0.8845,0.95402 c 1.6531,1.78283 3.0654,2.68055 5.1559,3.27727 0.5029,0.14355 0.7887,0.1679 1.9516,0.16649 1.2774,0 1.4037,-0.0152 2.0251,-0.21925 1.0846,-0.35604 1.745,-0.77289 2.5065,-1.58225 0.7341,-0.78025 1.0767,-1.40753 1.3304,-2.43577 0.1748,-0.70832 0.1774,-2.05567 0.01,-2.84266 -0.2515,-1.1528 -0.7527,-2.38587 -1.4109,-3.4717 -0.1832,-0.30196 -0.333,-0.56935 -0.333,-0.5942 0,-0.0248 0.4339,-0.0452 0.9643,-0.0452 2.1463,0 3.7698,0.65271 5.0789,2.04187 1.02,1.08251 1.4263,2.09215 1.423,3.5368 -0.01,1.26086 -0.3386,2.33057 -1.0848,3.45676 l -0.338,0.51023 0.3076,0.33443 c 0.1692,0.18392 0.3472,0.3344 0.3956,0.3344 0.1651,0 1.9298,-1.88742 2.4076,-2.57516 1.3377,-1.92492 2.2023,-4.17213 3.2567,-8.46436 0.5986,-2.43741 1.5033,-4.29651 2.9849,-6.13403 2.1004,-2.60497 5.2044,-4.26853 7.6448,-4.0972 2.4181,0.16981 3.9761,1.84515 4.5693,4.91358 0.1262,0.65298 0.2353,2.58549 0.1816,3.21796 l -0.048,0.57178 -0.256,-0.45393 c -0.5924,-1.0503 -1.4078,-1.96201 -2.3275,-2.6026 -2.3129,-1.61096 -5.2317,-1.31251 -7.1583,0.73192 -1.0171,1.07938 -1.6367,2.4414 -1.9131,4.20613 -0.1741,1.11151 -0.7408,3.52437 -1.0793,4.59629 -0.4946,1.56567 -0.9048,2.29172 -1.7455,3.0892 -0.2876,0.27284 -0.5229,0.5395 -0.5229,0.5926 0,0.0531 0.1408,0.24307 0.313,0.42221 l 0.313,0.32571 0.6617,-0.6245 c 1.1279,-1.06452 2.3454,-1.564 3.8152,-1.56511 2.9781,-0.004 5.4006,2.0968 6.2109,5.38169 0.1583,0.64165 0.2005,1.01969 0.2297,2.06146 0.037,1.28571 -0.024,2.02864 -0.2531,3.11843 l -0.1143,0.54404 -0.2522,-0.93691 c -0.7592,-2.82032 -2.3911,-5.07305 -4.461,-6.15838 -0.8774,-0.46 -1.6233,-0.65104 -2.5598,-0.65557 -1.932,-0.009 -3.3191,0.89414 -4.5401,2.95728 -0.7643,1.29169 -1.1199,1.77894 -1.8754,2.57031 -0.7643,0.80034 -1.6666,1.50081 -2.9911,2.32172 -1.0768,0.66731 -1.0152,0.56844 -0.801,1.2885 l 0.082,0.27501 0.5891,0.0496 c 1.36,0.11446 2.4343,0.87085 3.7883,2.66736 0.3119,0.41395 0.7621,1.06807 1.0002,1.45362 0.2382,0.38555 0.5468,0.8519 0.6859,1.03635 0.3674,0.48751 1.2369,1.07752 1.9342,1.31254 0.7569,0.25512 2.1083,0.38544 3.2315,0.31161 0.9954,-0.0654 0.9988,-0.0426 0.087,0.58067 -1.5314,1.04637 -2.7499,1.48616 -4.3199,1.55923 -1.4467,0.0673 -2.6611,-0.22336 -4.0415,-0.96732 -0.8505,-0.45835 -1.473,-0.91529 -2.6969,-1.97944 -0.5468,-0.47542 -1.0008,-0.85739 -1.0089,-0.84878 -0.025,0.0263 0.5457,2.26623 0.6696,2.62921 0.2653,0.7775 0.6035,1.31998 1.2584,2.0187 0.9817,1.04744 1.8376,1.49569 3.7351,1.95606 1.9158,0.4648 3.2278,1.00903 3.8915,1.61436 l 0.2547,0.23232 -0.6996,0.004 c -1.2746,0.006 -2.3257,0.25858 -5.0813,1.21981 -1.033,0.36024 -2.0049,0.6803 -2.1601,0.71114 -0.1551,0.0309 -0.2951,0.0959 -0.3113,0.14446 -0.016,0.0486 0.012,0.28275 0.063,0.52044 l 0.092,0.43213 0.403,-0.0393 c 2.2671,-0.221 3.9681,0.51164 5.8158,2.50495 0.8099,0.87367 1.6708,2.06954 2.3158,3.21727 0.1678,0.29872 0.4154,0.60289 0.6204,0.76218 0.4259,0.33116 1.3789,0.84585 1.9612,1.05934 0.9709,0.35593 2.3324,0.48598 3.2314,0.30866 0.2328,-0.0459 0.4539,-0.0724 0.4914,-0.0589 0.1009,0.0362 -0.6947,0.96073 -1.2999,1.51041 -0.9747,0.88556 -2.1542,1.51277 -3.4471,1.83314 -0.8342,0.20675 -3.0631,0.17736 -4.2045,-0.0554 -1.2928,-0.26365 -1.2126,-0.2786 -1.3813,0.25748 -0.079,0.25119 -0.132,0.46548 -0.1176,0.47619 0.014,0.0107 0.294,0.14789 0.6214,0.30482 3.6379,1.74349 5.9218,2.03714 8.2019,1.05449 0.516,-0.22237 0.5181,-0.24143 -0.072,0.69358 -0.911,1.44263 -2.2829,2.63782 -3.5147,3.06175 -0.2127,0.0732 -0.3866,0.17686 -0.3866,0.23034 0,0.23419 0.2348,0.91152 0.3158,0.91102 0.049,0 0.4704,-0.0727 0.9361,-0.16097 1.2433,-0.23559 3.3027,-0.29532 4.1241,-0.11967 2.3451,0.50156 3.0173,2.02955 2.3098,5.25093 -0.064,0.29171 -0.1402,0.53036 -0.1693,0.53036 -0.029,0 -0.1324,-0.0903 -0.2296,-0.20072 -0.2282,-0.25908 -1.0792,-0.75266 -1.69,-0.98017 -0.6443,-0.23998 -1.76,-0.26118 -2.377,-0.0452 -1.2312,0.43099 -2.2966,1.65522 -2.7577,3.16856 -0.2535,0.83255 -0.2637,1.82656 -0.025,2.48243 0.1835,0.50432 0.2109,0.52396 0.9989,0.71503 0.2836,0.0688 0.7659,0.23453 1.0719,0.3684 0.5684,0.24875 1.551,0.90275 1.5971,1.063 0.014,0.049 -0.2327,0.31152 -0.5484,0.58345 -1.8418,1.58645 -3.5358,2.23782 -4.7879,1.8411 -0.7254,-0.22984 -1.393,-1.1132 -1.7512,-2.31714 -0.071,-0.2377 -0.1537,-0.46148 -0.1844,-0.49735 -0.03,-0.0359 -0.5155,0.14225 -1.0776,0.39576 -2.3408,1.05591 -3.2601,1.97151 -3.18,3.16746 0.021,0.32071 0.055,0.37384 0.3916,0.62625 0.5633,0.42192 1.0897,1.01928 1.2808,1.45335 0.2222,0.50501 0.1943,1.30717 -0.064,1.84755 -0.3964,0.82816 -1.2624,1.74906 -2.3299,2.4777 -0.7583,0.5175 -2.4582,1.36937 -2.4582,1.23181 0,-0.0328 0.152,-0.34168 0.3377,-0.68637 l 0.3378,-0.62667 -0.2,-0.41342 c -0.7283,-1.50598 -3.2826,-2.60347 -5.0989,-2.19086 -1.4687,0.3336 -2.4808,1.38032 -2.8599,2.95785 -0.068,0.28092 -0.1264,0.66098 -0.1308,0.84462 -0.01,0.18369 -0.012,0.33394 -0.016,0.33394 -0.01,4e-5 -0.1366,-0.10066 -0.2945,-0.2237 z m 11.775,-33.76611 c 0.9115,-1.06853 1.1509,-2.01077 0.7296,-2.87126 -0.3536,-0.72207 -1.1715,-1.2323 -2.1975,-1.37082 -0.6893,-0.093 -1.1996,0.23808 -1.0893,0.70707 0.066,0.2813 0.2174,0.34987 0.7732,0.35067 1.0439,0 1.8584,0.61268 1.7214,1.29169 -0.072,0.35849 -0.1987,0.59565 -0.5928,1.11179 -0.4993,0.65393 -0.4588,1.14144 0.095,1.14144 0.2068,0 0.3092,-0.0658 0.5605,-0.36058 z m -3.5457,-7.1235 c 1.1499,-1.33271 1.1548,-2.7662 0.013,-3.60496 -0.6546,-0.4805 -1.763,-0.73111 -2.2579,-0.51053 -0.3089,0.13771 -0.4479,0.42138 -0.3464,0.70649 0.086,0.23952 0.2099,0.28572 0.77,0.28572 0.5597,0 1.0309,0.16177 1.3893,0.47692 0.4974,0.4375 0.4218,1.00715 -0.2528,1.90396 -0.1959,0.26045 -0.3599,0.51191 -0.3646,0.55887 -0.039,0.38856 0.127,0.59606 0.4759,0.59606 0.169,0 0.2986,-0.093 0.5743,-0.41253 z m -1.8626,-7.84951 c 0.4808,-0.63037 0.69,-1.1236 0.7283,-1.71677 0.03,-0.44997 0.01,-0.56207 -0.1802,-0.94255 -0.3684,-0.74594 -1.1823,-1.24763 -2.2358,-1.37826 -0.7176,-0.089 -1.2073,0.28081 -1.0301,0.77792 0.086,0.23953 0.2098,0.28573 0.7699,0.28573 0.8188,0 1.5782,0.43212 1.7047,0.97014 0.073,0.31031 -0.1407,0.84234 -0.5642,1.40544 -0.3685,0.48987 -0.3886,0.5347 -0.3614,0.80662 0.021,0.21406 0.1282,0.33867 0.3196,0.37255 0.2524,0.0447 0.5026,-0.12647 0.8492,-0.58082 z m -3.0451,-7.47223 c 0.8552,-0.93626 1.5058,-2.16883 1.6602,-3.14569 0.2885,-1.82517 -0.8205,-3.33364 -2.9861,-4.06147 -0.3388,-0.11386 -0.7807,-0.18586 -1.2888,-0.20995 -0.7108,-0.0339 -0.797,-0.0221 -1.0678,0.14652 -0.3632,0.22592 -0.4374,0.5769 -0.1801,0.85145 0.1344,0.14339 0.2026,0.16032 0.4277,0.10608 1.3959,-0.33623 3.3914,0.53039 3.9435,1.7125 0.2371,0.50749 0.2567,1.20243 0.051,1.82556 -0.1732,0.52586 -0.6868,1.38119 -1.1739,1.95515 -0.2035,0.23968 -0.4072,0.51027 -0.4529,0.60129 -0.096,0.19112 -0.032,0.46975 0.1384,0.60861 0.2525,0.20526 0.4671,0.11511 0.9286,-0.39005 z m -41.4668,-64.06236 c 0.1639,-0.17488 0.1717,-0.37377 0.03,-0.76047 -0.048,-0.1318 -0.1347,-0.21608 -0.2213,-0.21608 -0.2245,0 -0.5895,-0.22827 -0.8895,-0.55631 -0.2138,-0.23373 -0.2762,-0.36474 -0.2762,-0.57998 0,-0.1987 -0.032,-0.27802 -0.1141,-0.27802 -0.062,0 -0.2345,-0.12468 -0.3814,-0.27708 -0.1472,-0.15238 -0.3526,-0.29715 -0.4567,-0.32166 -0.2325,-0.0548 -0.5874,-0.22859 -0.7599,-0.37213 -0.099,-0.0824 -0.129,-0.22459 -0.129,-0.61436 0,-0.50318 -0.01,-0.50817 -0.2603,-0.63956 -0.1431,-0.0729 -0.3434,-0.13242 -0.4451,-0.13242 -0.1018,0 -0.2637,-0.0839 -0.3598,-0.18658 -0.1238,-0.13192 -0.2989,-0.20313 -0.5978,-0.24296 -0.653,-0.0871 -0.8379,-0.22972 -0.8397,-0.64797 0,-0.19448 -0.073,-0.32503 -0.3141,-0.56772 -0.1722,-0.17335 -0.3798,-0.31606 -0.4614,-0.31713 -0.081,0 -0.2721,-0.0727 -0.4232,-0.1591 -0.1511,-0.0864 -0.3163,-0.15795 -0.3671,-0.1589 -0.051,0 -0.1752,-0.0709 -0.2765,-0.1554 -0.1012,-0.0845 -0.2421,-0.15442 -0.3129,-0.15541 -0.117,0 -0.1289,-0.11206 -0.1289,-1.2049 l 0,-1.20319 -0.2025,-0.20698 c -0.2252,-0.23018 -0.8539,-0.60815 -1.0116,-0.60815 -0.056,0 -0.2696,-0.17449 -0.4748,-0.3878 -0.3238,-0.33653 -0.3732,-0.42865 -0.3732,-0.69753 0,-0.17949 -0.046,-0.3509 -0.1104,-0.40757 -0.077,-0.068 -0.1104,-0.24867 -0.1104,-0.59303 0,-0.47939 -0.01,-0.50554 -0.3131,-0.81912 -0.2638,-0.27311 -0.3495,-0.31816 -0.5459,-0.28694 -0.1678,0.0267 -0.2691,-0.006 -0.3614,-0.11413 -0.08,-0.0933 -0.2249,-0.15113 -0.3814,-0.15113 -0.1394,0 -0.3454,-0.0699 -0.4576,-0.15517 -0.1124,-0.0853 -0.2847,-0.18777 -0.3827,-0.22756 -0.098,-0.0399 -0.2747,-0.22057 -0.3924,-0.40174 -0.1745,-0.26873 -0.2239,-0.44742 -0.2683,-0.97068 -0.1,-1.17132 -0.092,-1.15493 -0.6531,-1.47352 -0.1822,-0.10352 -0.4924,-0.33873 -0.6892,-0.52269 -0.1967,-0.18391 -0.403,-0.33444 -0.4585,-0.33444 -0.055,0 -0.1551,-0.0884 -0.2215,-0.19641 -0.066,-0.10806 -0.1673,-0.19646 -0.2244,-0.19646 -0.1512,0 -0.2474,-0.33721 -0.2474,-0.86665 0,-0.40617 -0.029,-0.49791 -0.2278,-0.74037 -0.136,-0.16528 -0.3511,-0.3155 -0.5339,-0.37286 -0.1683,-0.0528 -0.3399,-0.14309 -0.381,-0.20057 -0.041,-0.0574 -0.2235,-0.11519 -0.405,-0.1283 -0.1817,-0.0129 -0.4537,-0.0913 -0.6046,-0.17362 l -0.2743,-0.1498 -0.01,-1.6304 c -0.01,-1.52421 -0.012,-1.64062 -0.1491,-1.78756 -0.1738,-0.18551 -0.4207,-0.19874 -0.6259,-0.0335 -0.1393,0.11218 -0.1485,0.22523 -0.1693,2.06714 l -0.021,1.94852 0.2983,0.28755 c 0.1641,0.15815 0.3727,0.28881 0.4638,0.29034 0.091,0 0.2483,0.0533 0.3496,0.11507 0.1012,0.0617 0.2546,0.11354 0.3408,0.11508 0.086,0 0.1979,0.0559 0.2484,0.12063 0.051,0.0649 0.1842,0.11786 0.2975,0.11786 0.4101,0 0.4389,0.046 0.4389,0.69985 0,0.33246 0.028,0.63807 0.063,0.67914 0.035,0.041 0.1059,0.30446 0.1581,0.58535 0.1333,0.71872 0.1837,0.79137 0.2939,0.42423 0.051,-0.16851 0.1172,-0.33596 0.1482,-0.37209 0.03,-0.0362 0.2333,0.20462 0.4495,0.53501 l 0.3932,0.60075 0.077,-0.24471 0.077,-0.24474 0.1804,0.20495 c 0.099,0.11268 0.2642,0.24757 0.3665,0.29967 0.1721,0.0876 0.189,0.14488 0.2249,0.76195 0.031,0.52896 0.08,0.74694 0.2394,1.0521 0.1103,0.21171 0.2004,0.4319 0.2004,0.48927 0,0.0574 0.091,0.16553 0.2026,0.24027 0.1113,0.0747 0.2961,0.21705 0.4107,0.31611 0.1144,0.0991 0.2667,0.18018 0.3383,0.18018 0.072,0 0.1896,0.07 0.2622,0.15559 0.072,0.0856 0.2518,0.17611 0.3981,0.20118 0.1463,0.0251 0.354,0.0964 0.4615,0.15868 0.1075,0.0622 0.2815,0.11313 0.3866,0.11313 0.1797,0 0.1912,0.0232 0.1912,0.38227 0,0.26331 0.045,0.44444 0.1473,0.58205 0.085,0.11556 0.1472,0.31876 0.1472,0.48201 0,0.15526 0.058,0.35605 0.1289,0.44624 0.247,0.31411 1.1604,1.24664 1.223,1.24851 0.035,0 0.1614,0.0903 0.2818,0.19828 0.1203,0.10802 0.2651,0.19641 0.3217,0.19641 0.083,0 0.1068,0.23881 0.1232,1.22636 l 0.021,1.22637 0.5155,0.2993 c 0.2835,0.16461 0.6199,0.32082 0.7475,0.34716 0.1276,0.0263 0.2725,0.10002 0.322,0.16371 0.049,0.0637 0.1544,0.11576 0.2331,0.11576 0.2426,0 0.428,0.15235 0.428,0.35171 0,0.10397 0.033,0.21089 0.073,0.23761 0.04,0.0267 0.073,0.11481 0.073,0.19581 0,0.081 0.142,0.27135 0.3155,0.42305 0.2392,0.20907 0.4246,0.29456 0.7665,0.3533 0.2488,0.0428 0.5856,0.1681 0.7509,0.27947 0.1649,0.11108 0.3502,0.20195 0.4118,0.20195 0.082,0 0.1119,0.0862 0.1119,0.32109 0,0.23526 0.062,0.4138 0.2334,0.66788 0.1284,0.19074 0.2693,0.3469 0.313,0.34705 0.044,0 0.1956,0.079 0.3374,0.17511 0.1417,0.0961 0.3701,0.21098 0.5075,0.25519 0.1897,0.0611 0.2957,0.1721 0.4417,0.46247 0.1058,0.21017 0.2588,0.45763 0.3403,0.54991 0.081,0.0923 0.2138,0.25618 0.2945,0.36424 0.2082,0.27909 0.9978,0.67985 1.3748,0.69776 0.1085,0.005 0.2493,-0.0462 0.313,-0.11408 z m 13.1067,116.94628 c -1.4091,-1.56663 -1.8868,-3.1894 -1.5109,-5.13251 0.3049,-1.57612 1.3073,-3.41895 2.5272,-4.64611 1.0095,-1.01539 2.4565,-1.32978 3.5566,-0.77274 1.173,0.59389 2.0961,2.37379 1.9117,3.68583 -0.043,0.30719 -0.08,0.36746 -0.2447,0.40477 -0.465,0.10512 -1.3451,0.46609 -1.9058,0.78158 -0.7765,0.43693 -1.3457,0.90634 -1.966,1.62118 -1.0171,1.17208 -1.4994,2.36776 -1.7185,4.25964 l -0.053,0.46125 -0.5962,-0.66289 z m 50.7819,-3.09678 c -0.015,-1.01036 -0.4333,-2.48276 -0.9675,-3.40938 -0.4386,-0.76073 -1.2747,-1.69344 -1.9668,-2.19411 -0.6295,-0.45519 -1.6964,-0.98432 -2.3289,-1.15489 -0.2836,-0.0764 -0.5569,-0.19188 -0.6076,-0.25649 -0.1299,-0.16596 -0.1154,-1.07389 0.026,-1.58571 0.5827,-2.11623 2.2793,-3.15586 4.0505,-2.48203 0.8716,0.33161 1.4777,0.87184 2.3234,2.07129 1.396,1.97972 1.9442,3.99224 1.568,5.75666 -0.2212,1.03814 -0.8964,2.22174 -1.7445,3.05824 -0.2802,0.27639 -0.3502,0.31546 -0.352,0.19642 z m -135.9759,-3.74332 c 1.6979,-2.27682 1.8909,-5.2271 0.5088,-7.77691 -0.1809,-0.33394 -0.3291,-0.63907 -0.3291,-0.67806 0,-0.13074 0.5894,-0.72052 1.0003,-1.00094 1.1574,-0.78993 2.7342,-0.99542 3.6993,-0.4821 0.5116,0.27212 0.8572,0.64124 1.1352,1.21241 0.4103,0.84337 0.4628,1.17808 0.3588,2.28616 -0.3238,3.44984 -1.8204,5.75692 -4.3524,6.70942 -0.5446,0.20484 -1.4805,0.378 -2.0439,0.37812 l -0.4605,0 0.4835,-0.64821 z m -20.7003,-1.64046 c -0.949,-1.05595 -1.4196,-2.03097 -1.5788,-3.27126 -0.2541,-1.97989 0.6641,-4.3312 2.4555,-6.28841 1.417,-1.54799 3.2996,-1.69886 4.5688,-0.3661 0.7318,0.76835 1.2405,2.20538 1.0936,3.08915 l -0.057,0.34274 -0.6257,0.19017 c -2.2181,0.67414 -3.9866,2.30389 -4.7814,4.40638 -0.2264,0.59893 -0.36,1.2198 -0.4337,2.01522 l -0.05,0.53996 -0.5913,-0.65785 z m 19.7018,-3.22069 c -0.8649,-0.10558 -1.9578,-0.43723 -2.5808,-0.78302 -0.6911,-0.38361 -1.1724,-0.87253 -1.4477,-1.47069 -0.1884,-0.40937 -0.2058,-0.5219 -0.2037,-1.31209 0.01,-0.76149 0.029,-0.94564 0.2293,-1.5478 0.1248,-0.37591 0.4966,-1.21074 0.8261,-1.85518 0.3296,-0.64439 0.5993,-1.19141 0.5993,-1.21557 0,-0.0742 -2.9484,1.32073 -3.5349,1.67251 -0.8192,0.49125 -1.5817,1.1387 -2.0764,1.76301 -0.5695,0.71858 -1.0656,1.80196 -1.1081,2.41934 -0.021,0.29788 -0.079,0.50706 -0.1723,0.6173 -0.5626,0.66376 -2.1324,0.77133 -3.9573,0.2712 -1.1405,-0.3126 -1.1349,-0.30612 -0.4554,-0.53558 0.3241,-0.10943 0.7504,-0.22466 0.9473,-0.25611 0.3476,-0.0555 0.3633,-0.0697 0.5354,-0.48465 0.3858,-0.93095 0.2839,-2.1821 -0.2773,-3.4021 -0.242,-0.52597 -0.434,-0.80239 -0.9036,-1.30099 -0.8546,-0.90733 -1.5203,-1.21577 -2.6393,-1.22297 -1.1084,-0.007 -2.2469,0.47584 -3.0568,1.29665 -0.2532,0.25656 -0.4603,0.41528 -0.4603,0.35269 0,-0.25489 0.2219,-0.99446 0.4004,-1.33473 0.2556,-0.4869 0.9632,-1.29791 1.4498,-1.66169 0.787,-0.58829 1.304,-0.92418 1.5853,-1.0301 1.4373,-0.54103 3.3129,0.19519 5.1966,2.03989 0.5878,0.57559 1.0819,0.77083 1.9358,0.7648 0.996,-0.007 1.8466,-0.39496 3.0723,-1.4012 0.7638,-0.62718 3.0671,-2.86721 3.1155,-3.03005 0.045,-0.15063 -0.074,-0.46189 -0.2154,-0.56233 -0.1916,-0.13653 -0.4669,-0.0453 -0.8267,0.27383 -0.207,0.18364 -0.808,0.75254 -1.3354,1.26422 -1.8768,1.82083 -2.8001,2.40077 -3.8311,2.40648 -0.5747,0.004 -0.9154,-0.14362 -1.3417,-0.57826 -1.5398,-1.56991 -3.5086,-2.49923 -5.0418,-2.37985 -0.8474,0.066 -1.8818,0.47425 -2.3674,0.93443 -0.2325,0.22024 -0.8405,0.44258 -1.3684,0.50024 -1.1052,0.12083 -2.4433,-0.5998 -3.4143,-1.83878 -0.6409,-0.81779 -0.6416,-0.82241 -0.1308,-0.76001 0.2361,0.029 0.7083,0.12087 1.0493,0.20453 l 0.6199,0.15209 0.3374,-0.30116 c 0.4533,-0.40449 0.8939,-1.11739 1.1036,-1.78538 0.207,-0.65911 0.2819,-1.82563 0.1617,-2.51329 -0.2508,-1.43391 -1.2191,-2.57032 -2.548,-2.99021 -0.5943,-0.18781 -2.1359,-0.19025 -2.6074,-0.004 -0.1784,0.0704 -0.3351,0.11678 -0.348,0.10299 -0.013,-0.0137 0.01,-0.25287 0.051,-0.53124 0.2293,-1.56259 0.9867,-2.83976 2.0344,-3.43125 0.2356,-0.13296 0.7051,-0.32076 1.0435,-0.41734 0.5674,-0.162 0.6643,-0.16833 1.252,-0.0819 1.8459,0.27162 3.0718,0.901 3.4806,1.78694 0.149,0.32289 0.1748,0.49285 0.1709,1.12669 -0.01,0.66556 -0.037,0.84566 -0.3064,1.66173 -0.3999,1.21261 -0.5109,1.94735 -0.3927,2.59929 0.1098,0.60568 0.3562,1.07413 0.7212,1.37132 0.9279,0.75559 2.1791,0.88332 5.5862,0.5703 0.9683,-0.089 2.2008,-0.17087 2.7387,-0.18204 1.0456,-0.0217 1.1357,-0.0544 1.2178,-0.44192 0.046,-0.21876 -0.053,-0.39981 -0.2947,-0.53718 -0.2465,-0.14004 -1.3279,-0.10856 -3.595,0.1047 -2.9476,0.27727 -3.996,0.24544 -4.7455,-0.14404 -0.5292,-0.27505 -0.6304,-0.48934 -0.6303,-1.33489 1e-4,-0.64713 0.032,-0.82034 0.3185,-1.69519 0.6531,-1.99838 0.5077,-3.31275 -0.4836,-4.37034 -0.8189,-0.87378 -2.2273,-1.40867 -4.3457,-1.65045 -0.2792,-0.032 -0.4603,-0.0893 -0.4603,-0.14602 0,-0.0515 0.1523,-0.22931 0.3384,-0.39531 0.4394,-0.39188 0.789,-0.98287 1.034,-1.74864 0.1637,-0.5111 0.1982,-0.76111 0.204,-1.47934 0.01,-0.94308 -0.078,-1.38744 -0.402,-2.0822 -0.3912,-0.83925 -1.1271,-1.52767 -1.9324,-1.80775 l -0.3728,-0.12964 0.3003,-0.31095 c 1.7804,-1.8434 6.2016,-0.87451 8.7179,1.91048 1.0639,1.17746 1.5348,2.22506 1.5967,3.55144 0.053,1.13926 -0.1926,2.0472 -0.8848,3.26869 l -0.3562,0.62862 0.3849,0.38212 c 1.1512,1.14273 2.5006,1.90213 4.2596,2.39731 1.1796,0.33199 2.1866,0.47977 3.6454,0.53481 7.5373,0.28457 16.8791,-3.95312 19.0981,-8.66338 0.4357,-0.9249 0.4882,-1.17082 0.4698,-2.20234 -0.03,-1.64557 0.273,-2.71157 1.0665,-3.75871 0.7112,-0.9384 2.2925,-2.0073 4.0729,-2.75305 0.3849,-0.16116 1.7551,-0.67577 3.045,-1.14358 1.2899,-0.46776 2.364,-0.87043 2.3868,-0.89475 0.023,-0.0244 -0.019,-0.25713 -0.093,-0.51739 -0.1024,-0.36108 -0.1619,-0.46403 -0.2511,-0.43453 -3.3029,1.09208 -5.7918,1.58596 -8.4017,1.66722 -2.3568,0.0734 -4.059,-0.24612 -5.5421,-1.04028 -2.132,-1.14159 -3.3054,-2.93078 -3.8617,-5.88825 -0.1097,-0.58326 -0.1314,-1.06506 -0.1239,-2.75004 0.01,-1.1236 0.038,-2.14219 0.075,-2.26355 l 0.066,-0.22062 0.2562,0.3655 c 0.141,0.20102 0.4054,0.48187 0.5876,0.62408 0.3172,0.24742 1.4518,0.98387 1.5158,0.98387 0.017,0 0.031,-0.3094 0.031,-0.68751 0,-1.76518 0.511,-3.51843 1.2952,-4.4537 0.1746,-0.20816 0.2,-0.21715 0.265,-0.0935 0.1607,0.30638 0.5586,0.71511 1.0123,1.03986 l 0.4804,0.34385 0.2676,-1.1677 c 0.3782,-1.64904 0.6453,-2.22041 1.2965,-2.7726 l 0.2604,-0.22074 0.1455,0.19741 c 0.1917,0.25999 0.6014,0.47706 1.0731,0.56851 l 0.3817,0.074 0.3479,-0.59798 c 0.605,-1.04009 1.8389,-2.21941 3.7049,-3.54122 0.8541,-0.60503 1.1046,-0.8463 1.1046,-1.06387 0,-0.22817 -0.2625,-0.51084 -0.4744,-0.51084 -0.3069,0 -2.5236,1.636 -3.6803,2.71626 -0.5203,0.48595 -1.3816,1.53709 -1.4634,1.78615 -0.05,0.15246 -0.3116,-0.14549 -0.5437,-0.61943 -0.1145,-0.23397 -0.2262,-0.42546 -0.2482,-0.42558 -0.021,0 -0.3072,0.17538 -0.6341,0.38997 -1.0264,0.67394 -1.7448,1.70096 -2.0191,2.88635 -0.052,0.22473 -0.117,0.39378 -0.1444,0.37564 -0.028,-0.0183 -0.1423,-0.30806 -0.2552,-0.64429 -0.1129,-0.33626 -0.2296,-0.64063 -0.2594,-0.67642 -0.03,-0.0358 -0.4187,0.31782 -0.864,0.78574 -0.8258,0.86776 -1.1827,1.41935 -1.5067,2.32839 -0.1991,0.55856 -0.4239,1.53236 -0.4253,1.8421 -0.01,0.58398 -0.4305,0.12346 -0.988,-1.06349 -0.3241,-0.68995 -0.4946,-0.88122 -0.7854,-0.88122 -0.1419,0 -0.3634,0.32216 -0.3645,0.53035 0,0.18308 -0.088,0.27555 -0.5708,0.60522 -0.7162,0.48934 -1.7119,1.5438 -2.2237,2.35496 -0.216,0.3424 -0.5493,0.97887 -0.7405,1.41432 l -0.3477,0.79172 -0.1295,-0.61879 c -0.1017,-0.48541 -0.1212,-0.83254 -0.091,-1.61073 0.046,-1.1504 0.1682,-1.69711 0.7563,-3.36882 0.2215,-0.62969 0.3878,-1.16077 0.3696,-1.18017 -0.052,-0.0556 -2.1185,1.301 -2.7482,1.80406 -1.9804,1.5823 -3.3925,3.56817 -4.3707,6.14665 l -0.1764,0.46502 -0.022,-1.01505 c -0.047,-2.15926 0.3435,-4.18059 1.1807,-6.10323 l 0.3075,-0.70618 -0.3279,-0.30235 c -0.1803,-0.16626 -0.3555,-0.30337 -0.3895,-0.30466 -0.067,-0.004 -1.7016,1.31708 -3.1051,2.507 -4.2907,3.63804 -6.4073,6.35854 -7.314,9.40097 -0.1278,0.42858 -0.2706,0.93836 -0.3175,1.13283 l -0.085,0.35357 -0.1742,-0.66788 c -0.2634,-1.01066 -0.4181,-2.41835 -0.3623,-3.29709 0.1246,-1.95935 0.6898,-3.42653 1.9386,-5.03166 1.1711,-1.50534 2.8601,-2.90071 5.8493,-4.83246 1.1993,-0.77506 1.1334,-0.66011 0.7507,-1.31041 l -0.1702,-0.28919 -0.9044,0.54823 c -1.309,0.79347 -3.7643,2.10289 -5.1525,2.74794 -8.2841,3.84917 -14.1663,4.06533 -16.8168,0.61791 -0.5696,-0.74088 -1.1902,-2.05887 -1.3362,-2.83782 -0.044,-0.23332 -0.033,-0.22825 0.5368,0.26113 1.1248,0.96557 2.1749,1.59351 3.3798,2.02106 1.8276,0.64855 4.0296,0.66586 6.2964,0.0495 1.9899,-0.5411 3.636,-1.28392 8.0272,-3.62256 5.1614,-2.74875 7.3553,-3.74675 9.5736,-4.35483 1.7288,-0.47386 4.1754,-0.77685 5.4217,-0.67135 l 0.5981,0.0506 0.087,-0.37651 c 0.047,-0.20705 0.1033,-0.43701 0.1239,-0.51095 0.029,-0.1038 -0.093,-0.20477 -0.5372,-0.44281 -1.1074,-0.59416 -1.8905,-1.36796 -2.2786,-2.25135 -0.2509,-0.57107 -0.213,-0.66838 0.096,-0.24563 0.3083,0.4223 1.0235,1.02504 1.4689,1.23788 1.016,0.48564 2.3671,0.50931 3.9158,0.0686 l 0.9045,-0.2574 -0.8736,-0.95174 c -0.7194,-0.78383 -0.9245,-1.06204 -1.1624,-1.57677 -0.2642,-0.57228 -0.2884,-0.67832 -0.2865,-1.25716 0.01,-0.71781 0.1368,-1.07675 0.5704,-1.52089 l 0.2538,-0.26011 0.04,0.32396 c 0.094,0.74533 0.6494,1.59259 1.4023,2.13803 0.4844,0.35106 1.4732,0.79817 1.9581,0.88561 0.1655,0.0297 0.3173,0.0826 0.3374,0.11717 0.02,0.0347 -0.139,0.20426 -0.3535,0.37705 -0.8179,0.6588 -1.681,1.70026 -2.1963,2.64998 -0.317,0.58421 -0.6526,1.47054 -0.6526,1.72374 0,0.272 0.3145,0.51686 0.5722,0.44547 0.2071,-0.0574 0.2123,-0.0661 0.7951,-1.34014 0.6196,-1.35451 1.6877,-2.5019 3.1856,-3.42196 0.3518,-0.21608 0.7555,-0.48613 0.8971,-0.6001 0.4042,-0.32533 1.9292,-1.32654 3.2875,-2.15847 4.6386,-2.84099 9.0759,-4.66898 15.2335,-6.27575 1.0531,-0.27478 2.1044,-0.54328 2.3363,-0.5966 0.417,-0.0959 0.4281,-0.10585 1.0111,-0.90268 2.0731,-2.83344 4.4852,-5.36438 7.0624,-7.41041 3.1066,-2.46614 6.5385,-4.40853 10.4494,-5.91386 0.658,-0.25329 1.2947,-0.46053 1.4148,-0.46053 0.3121,0 1.3468,0.268 1.9923,0.51607 2.2098,0.84916 4.4442,2.54306 6.0184,4.56251 0.355,0.45553 0.7064,0.93062 0.7809,1.05575 l 0.1353,0.22756 -0.43,-0.20346 c -5.3958,-2.55351 -8.6348,-3.61754 -12.399,-4.07318 l -0.407,-0.0493 -0.6055,1.40677 c -0.3331,0.77369 -0.6056,1.43822 -0.6056,1.47668 1e-4,0.0385 0.3233,0.20849 0.7181,0.37781 2.0984,0.8997 4.4448,2.07571 6.0204,3.01735 1.4041,0.83921 3.5957,2.38907 4.4433,3.14229 l 0.2458,0.21837 -0.2085,0.78216 c -0.1884,0.70649 -0.2086,0.90005 -0.209,2.00005 0,1.05847 0.022,1.29505 0.1724,1.80719 0.6489,2.21389 2.1409,3.79211 4.3833,4.63654 0.3328,0.12537 0.7401,0.25092 0.9049,0.27905 0.1648,0.0282 0.3434,0.0799 0.3968,0.11512 0.071,0.0471 0.112,0.46403 0.1539,1.58279 0.031,0.83536 0.074,1.66905 0.096,1.85266 l 0.038,0.33382 -0.5743,0.30806 c -0.7422,0.39817 -3.2909,1.61691 -4.2764,2.04492 -2.6315,1.14293 -5.4352,2.1255 -9.6542,3.38338 -4.8505,1.44611 -8.3797,3.80469 -9.9394,6.64239 -0.9004,1.63806 -0.9346,3.48695 -0.09,4.87153 0.7407,1.21459 2.2592,2.34116 4.0278,2.98819 0.324,0.11855 0.6172,0.24163 0.6514,0.27353 0.074,0.069 -0.5881,0.61101 -1.0565,0.86483 -0.2381,0.12902 -0.5019,0.18955 -0.9374,0.21505 -0.9101,0.0533 -1.5318,-0.18136 -3.0613,-1.15547 -0.6765,-0.43087 -1.23,-0.76221 -1.23,-0.73633 0,0.12296 1.161,2.38743 1.405,2.74035 0.7077,1.02397 1.969,1.9066 3.1911,2.23322 0.7948,0.21238 1.9513,0.21124 2.7381,-0.004 0.9304,-0.25302 2.2133,-0.97644 2.6445,-1.49124 l 0.1473,-0.17583 0.037,0.46094 c 0.1115,1.39526 -0.31,3.09439 -0.9563,3.85554 -0.5663,0.66689 -1.2538,0.9799 -1.7905,0.81531 -0.1701,-0.0522 -0.3681,-0.1129 -0.4398,-0.13497 -0.1017,-0.0312 -0.1719,0.0595 -0.3172,0.41021 -0.2381,0.57438 -0.192,0.63083 0.6812,0.83369 0.3576,0.0831 0.8655,0.20472 1.1288,0.27028 0.6844,0.17042 2.323,0.23084 2.8924,0.10662 1.9608,-0.42771 3.2952,-2.1236 3.7086,-4.71305 0.1362,-0.85347 0.2781,-1.32749 0.5886,-1.96655 0.7231,-1.48819 2.1654,-2.4836 4.3725,-3.01746 0.4169,-0.10086 0.4597,-0.10105 0.3314,0 -0.5954,0.46235 -0.9184,0.77247 -1.2886,1.2373 -0.7887,0.99039 -1.2015,2.06139 -1.3363,3.46797 -0.073,0.76542 -0.064,1.02846 0.074,2.20836 0.1847,1.57299 0.194,2.15606 0.045,2.90212 -0.2892,1.45701 -0.9975,2.14989 -2.4615,2.40786 -0.5628,0.0991 -0.5907,0.1349 -0.5926,0.75856 0,0.20019 0.037,0.34961 0.091,0.36897 2.6155,0.92597 3.8873,2.00189 4.1807,3.53692 0.3342,1.74841 -0.8305,4.25667 -3.1882,6.86625 l -0.6337,0.70135 0.042,-1.50485 c 0.026,-0.92604 0.01,-1.77982 -0.041,-2.21968 -0.3295,-2.83451 -1.4951,-4.54537 -3.4855,-5.11613 -0.5845,-0.16756 -1.981,-0.18193 -3.1516,-0.0324 -1.0342,0.13211 -2.8785,0.14164 -3.555,0.0183 -1.086,-0.1979 -1.8008,-0.63003 -2.346,-1.41832 -0.196,-0.28351 -0.3569,-0.55707 -0.3576,-0.60796 -0.01,-0.16115 0.3431,-0.39008 1.1043,-0.73279 0.8522,-0.38368 1.2297,-0.75955 1.4463,-1.43993 0.1543,-0.48484 0.1697,-1.39949 0.034,-2.01698 -0.1381,-0.62801 -0.7508,-1.93022 -1.1634,-2.47232 -0.6734,-0.88511 -1.9378,-1.84923 -2.4251,-1.84923 -0.2084,0 -0.4698,0.28492 -0.4698,0.51187 0,0.2106 0.2185,0.4234 0.7335,0.7145 1.3052,0.73767 2.4331,2.62741 2.4331,4.07626 0,0.91621 -0.1688,1.15444 -1.1156,1.57311 -1.0331,0.45687 -1.61,1.01749 -1.6084,1.56286 0,0.34095 0.2847,0.94991 0.687,1.47477 1.0035,1.30893 2.2766,3.75898 2.8079,5.40383 0.3424,1.05991 0.6191,2.52889 0.6859,3.64086 0.063,1.05739 0.031,2.72812 -0.053,2.72812 -0.033,0 -0.3601,-0.36718 -0.7269,-0.816 -1.6382,-2.00478 -4.0122,-3.7583 -6.5889,-4.86688 l -0.6319,-0.27189 -0.2667,0.42859 -0.2668,0.42854 0.7652,0.85191 c 2.0022,2.22936 2.7016,3.81779 2.7109,6.15694 0.01,1.13934 -0.1662,2.13712 -0.6061,3.54118 -0.4332,1.38249 -0.3953,1.34758 -0.7356,0.67828 -0.3878,-0.76244 -0.6574,-1.17829 -1.2567,-1.93826 -1.4194,-1.80005 -3.4566,-3.17245 -6.3437,-4.27344 -0.6551,-0.24982 -1.2009,-0.44417 -1.2129,-0.4319 -0.012,0.0122 0.1322,0.38909 0.3204,0.8373 0.8459,2.01504 1.0674,3.37751 0.8367,5.14693 -0.163,1.25072 -0.675,2.90853 -1.3182,4.26815 -0.2206,0.4662 -0.2377,0.45435 -0.3354,-0.23209 -0.1904,-1.33923 -1.0663,-2.78835 -2.2123,-3.66096 -0.6212,-0.47295 -1.7028,-1.00269 -2.4614,-1.20547 -0.6071,-0.16234 -2.6177,-0.38128 -2.6995,-0.294 -0.022,0.0237 0.079,0.42561 0.2233,0.89289 0.8647,2.78453 0.9108,5.04972 0.1532,7.5334 -0.2996,0.98207 -1.3726,3.26743 -1.4803,3.15259 -0.02,-0.0202 -0.1299,-0.47376 -0.2469,-1.00788 -0.6657,-3.04243 -1.8397,-5.32089 -3.5507,-6.8911 -0.3596,-0.33013 -2.0816,-1.59968 -2.6119,-1.92573 -0.047,-0.0293 0.1595,0.73351 0.4607,1.69535 0.7734,2.47003 0.8793,3.02532 0.8733,4.57884 -0.01,1.36316 -0.084,1.74368 -0.5233,2.54431 -0.2239,0.40778 -0.2419,0.388 -0.3831,-0.42046 -0.3283,-1.87957 -2.1284,-3.79756 -4.2438,-4.52158 -0.4592,-0.15719 -0.6519,-0.17507 -1.7637,-0.1636 -0.6865,0.007 -1.2565,0.0217 -1.2667,0.0324 -0.01,0.011 0.5846,0.40465 1.3218,0.87504 1.6028,1.02282 2.229,1.51052 2.8691,2.23443 1.5903,1.79869 1.2011,3.47948 -1.1561,4.99218 -0.2407,0.15444 -0.4644,0.28076 -0.4972,0.28076 -0.033,0 -0.059,-0.28625 -0.059,-0.63612 0,-2.10636 -1.3338,-3.80073 -3.223,-4.09453 -1.0174,-0.15818 -2.281,0.12605 -3.3313,0.74926 -0.579,0.34358 -1.4728,1.32764 -1.6686,1.83703 l -0.1572,0.40922 0.2925,0.41578 c 0.5471,0.77792 1.0863,2.19761 1.0904,2.8712 0,0.16413 -0.029,0.17606 -0.4224,0.16658 -0.2329,-0.005 -0.6719,-0.0405 -0.9758,-0.0776 z m -29.9936,-10.65092 c -0.02,-0.0359 -0.1136,-0.34789 -0.2076,-0.69361 -0.2247,-0.82602 -0.2419,-2.33952 -0.035,-3.06435 0.6102,-2.13632 2.4616,-3.893 5.2912,-5.02083 0.646,-0.25747 0.7943,-0.28717 1.4461,-0.28964 0.8448,-0.004 1.3767,0.13573 1.8791,0.49078 0.8685,0.61383 1.2874,1.8538 1.0765,3.18743 -0.1005,0.63529 -0.4124,1.38954 -0.6858,1.65807 l -0.1863,0.183 -0.7562,-0.13494 c -1.9476,-0.34743 -4.0621,0.14074 -5.6809,1.31148 -0.5942,0.4297 -1.4231,1.32456 -1.8057,1.94928 -0.1646,0.26861 -0.3155,0.45912 -0.3356,0.42333 z m -0.7865,-13.83496 c -0.1992,-0.72558 -0.2776,-2.04869 -0.1606,-2.71287 0.3398,-1.93129 1.8407,-3.72304 4.0976,-4.89196 0.4455,-0.23076 1.1084,-0.53104 1.4729,-0.66727 0.62,-0.23175 0.7126,-0.24543 1.436,-0.21201 1.2038,0.0557 1.9171,0.43057 2.4125,1.26799 0.644,1.08834 0.5108,3.0653 -0.2679,3.97465 l -0.2666,0.3116 -0.4308,-0.11107 c -1.4393,-0.37114 -3.4424,-0.13177 -4.8883,0.58421 -1.1246,0.55689 -2.3241,1.64184 -2.8922,2.6161 -0.1418,0.24311 -0.2775,0.44371 -0.3016,0.44577 -0.024,0.004 -0.1191,-0.27024 -0.211,-0.60514 z m -9.7239,-45.31123 c -2.0406,-0.48328 -3.5522,-1.70972 -4.3505,-3.52979 -0.3982,-0.90779 -0.5977,-1.91902 -0.638,-3.23374 -0.045,-1.45148 0.049,-2.17771 0.3637,-2.80649 0.342,-0.68442 0.7185,-1.09589 1.2824,-1.40128 0.4669,-0.25282 0.5454,-0.27036 1.203,-0.26868 0.5351,0 0.8202,0.0445 1.1913,0.17994 0.9222,0.33665 1.7572,0.99344 2.2078,1.73659 l 0.2104,0.34691 -0.3166,0.39957 c -1.0045,1.26761 -1.5491,2.66184 -1.6408,4.2003 -0.082,1.37258 0.2967,2.90761 0.9902,4.01578 l 0.296,0.47291 -0.1969,-0.008 c -0.1083,-0.005 -0.3792,-0.0512 -0.602,-0.10398 z m 103.3955,-1.84226 c -1.1667,-0.40937 -1.9796,-0.94426 -2.7371,-1.80101 -0.8489,-0.96004 -1.2814,-2.02555 -1.3635,-3.35895 -0.054,-0.87184 0.045,-1.5266 0.3982,-2.64644 l 0.2658,-0.8426 -0.2115,-0.17884 c -2.9756,-2.51688 -6.3351,-4.60639 -10.0292,-6.23782 -0.576,-0.25443 -1.0482,-0.50764 -1.0495,-0.56276 0,-0.0551 0.1117,-0.34102 0.2507,-0.6354 0.2883,-0.61074 0.1422,-0.57446 1.4411,-0.35844 3.0134,0.50112 5.4203,1.37249 11.2824,4.08441 l 1.0092,0.46682 0.288,0.66788 c 0.8251,1.91311 1.0661,3.61952 1.2259,8.68235 0.023,0.73466 0.061,1.69814 0.082,2.14109 0.047,0.94777 0.098,0.9135 -0.8531,0.57971 z m -85.0159,-2.18621 c 0.3046,-0.53939 0.6439,-1.46261 0.7743,-2.10606 0.1402,-0.69185 0.1231,-2.00455 -0.036,-2.74413 -0.2641,-1.22957 -0.9055,-2.49675 -1.6958,-3.35026 l -0.332,-0.35852 0.1588,-0.34862 c 0.3798,-0.83357 1.673,-1.81679 2.6843,-2.04076 1.1079,-0.2454 2.0747,0.0565 2.7677,0.86395 0.7595,0.88518 0.9891,1.86844 0.9181,3.9318 -0.042,1.21943 -0.1741,1.92192 -0.5327,2.83081 -0.7262,1.84096 -2.2601,3.15118 -4.2717,3.64898 -0.7184,0.17774 -0.7195,0.1769 -0.4351,-0.32719 z m -16.5385,-3.77869 c 0,-0.0339 0.1617,-0.23183 0.3594,-0.43956 l 0.3594,-0.37766 -0.1265,-0.4444 c -0.2021,-0.70958 -0.3522,-0.95513 -0.9972,-1.63026 -0.9797,-1.02567 -2.2563,-1.60348 -3.5426,-1.60348 -1.3482,0 -2.4023,0.60224 -3.129,1.78763 -0.1921,0.31339 -0.3626,0.61257 -0.3789,0.66487 -0.052,0.16584 -1.3094,-0.79023 -1.9473,-1.48053 -0.8734,-0.94494 -1.3534,-1.92058 -1.5006,-3.05016 -0.1105,-0.84753 0.067,-2.04267 0.3911,-2.63303 0.3605,-0.65667 1.3942,-1.72004 1.9749,-2.0315 1.8142,-0.97311 3.7694,-0.0696 4.1107,1.89954 0.086,0.49609 0.4065,1.19866 0.7497,1.64291 0.2566,0.33208 0.9018,0.6906 1.3846,0.76931 1.7159,0.27977 4.2854,-1.52364 6.6958,-4.69925 1.1728,-1.54521 1.3651,-1.94711 1.0778,-2.25368 -0.063,-0.0679 -0.2167,-0.12346 -0.3399,-0.12346 -0.2567,0 -0.29,0.0362 -1.2004,1.30393 -1.9292,2.68627 -4.2016,4.58661 -5.6526,4.72699 -0.957,0.0926 -1.5417,-0.48789 -1.7956,-1.78229 -0.1379,-0.70318 -0.4117,-1.24489 -0.8879,-1.75714 -0.718,-0.77217 -1.6075,-1.15573 -2.6802,-1.15573 -1.1535,0 -2.1808,0.47786 -3.172,1.47549 -0.5589,0.56249 -1.3303,1.73064 -1.6749,2.5364 -0.2441,0.57049 -0.6365,0.96838 -1.3199,1.33819 -0.7334,0.39691 -1.633,0.2725 -2.2966,-0.31758 l -0.1841,-0.16371 0.221,-0.19822 c 0.4001,-0.35901 1.5729,-0.92668 2.3415,-1.13339 l 0.7458,-0.20053 0.1665,-0.50939 c 0.5138,-1.57093 -0.2159,-3.78662 -1.6189,-4.9159 -1.1975,-0.96382 -2.404,-1.12703 -3.8627,-0.52251 l -0.3866,0.16029 0,-0.45363 c 0,-0.53733 0.1766,-1.68956 0.3435,-2.24205 0.2047,-0.6768 0.5402,-1.30588 0.9328,-1.74883 0.7433,-0.83845 1.492,-1.1166 2.8408,-1.0553 0.3025,0.0137 0.3652,0.0588 0.9227,0.663 0.6688,0.7246 1.2495,1.61024 2.0017,3.0531 0.2963,0.56836 0.652,1.1289 0.856,1.34921 0.3912,0.42242 1.0567,0.79191 1.6714,0.92814 0.6566,0.14554 2.112,0.0489 2.9873,-0.19843 1.41,-0.39836 3.1712,-1.21329 3.3892,-1.56823 0.2097,-0.34152 -0.01,-0.75482 -0.3924,-0.75482 -0.079,0 -0.4866,0.17423 -0.907,0.3871 -2.2503,1.13973 -4.334,1.47657 -5.4636,0.88321 -0.2534,-0.13314 -0.5316,-0.32316 -0.618,-0.42226 -0.087,-0.0991 -0.4128,-0.65743 -0.7252,-1.2408 -0.6417,-1.19839 -0.9999,-1.78466 -1.5242,-2.49481 -0.1994,-0.2701 -0.3231,-0.49107 -0.2748,-0.49107 0.099,0 -0.7705,-0.67968 -1.6585,-1.29653 -0.3239,-0.22512 -0.7507,-0.56286 -0.9483,-0.75052 -0.4011,-0.381 -1.1025,-1.2519 -1.0517,-1.30602 0.018,-0.0191 0.3418,0.0889 0.7195,0.24029 l 0.6868,0.27523 0.3433,-0.19931 c 0.7307,-0.42435 1.3931,-1.37875 1.7366,-2.50254 0.1581,-0.51679 0.192,-0.77534 0.1912,-1.45362 0,-0.88518 -0.1265,-1.41092 -0.4975,-2.08643 -0.4442,-0.80883 -1.5233,-1.52607 -2.5607,-1.70217 -0.3138,-0.0533 -0.5707,-0.12625 -0.5707,-0.16207 0,-0.1517 0.6532,-1.07261 1.1713,-1.65148 0.9875,-1.10329 2.0761,-1.77963 3.205,-1.99137 1.4903,-0.27951 2.7573,0.34538 3.8462,1.89699 0.6419,0.91434 1.1956,2.3677 1.6022,4.20484 0.1563,0.70592 0.1711,0.87751 0.1013,1.1786 -0.045,0.19382 -0.08,0.77666 -0.08,1.29528 0.01,1.98462 0.6572,3.6908 1.9653,5.13545 0.9165,1.01211 2.0276,1.7172 3.2484,2.06127 0.7986,0.22512 2.2674,0.24666 3.0562,0.0448 1.5769,-0.40354 2.9444,-1.28156 4.2328,-2.71775 1.2046,-1.34261 1.6073,-1.76217 3.0211,-3.14774 1.4868,-1.45712 4.2419,-4.35933 5.6494,-5.95119 l 0.8496,-0.96077 0.8745,0.816 c 0.481,0.44878 0.8865,0.80354 0.9011,0.78837 0.056,-0.0592 -0.3874,-1.90583 -0.562,-2.33517 -0.164,-0.4035 -0.1726,-0.46933 -0.077,-0.59024 0.059,-0.0748 0.5538,-0.68412 1.099,-1.35395 0.545,-0.66986 1.4675,-1.83664 2.05,-2.59292 1.3735,-1.78304 1.2607,-1.66199 1.164,-1.24847 -0.1396,0.59717 -0.096,2.30221 0.076,2.98442 0.5716,2.26249 2.1694,4.22389 4.9796,6.11288 0.3926,0.26396 0.7384,0.47992 0.7684,0.47992 0.03,0 0.1981,-0.15608 0.3735,-0.34685 l 0.3191,-0.34687 -0.2584,-0.4585 c -1.119,-1.9852 -1.2289,-3.79413 -0.3192,-5.25587 0.7453,-1.19769 2.2533,-2.3187 4.7569,-3.5363 2.4249,-1.17929 4.7552,-2.69546 6.7384,-4.38436 1.0296,-0.87669 2.9885,-2.99529 3.6791,-3.97877 l 0.5792,-0.82503 -0.048,0.35356 c -0.4268,3.13617 -0.3239,5.35946 0.3319,7.17397 0.4281,1.18437 1.2165,2.44556 1.9166,3.06598 l 0.2883,0.25562 -0.3173,0.24005 c -0.1744,0.13204 -0.4331,0.28214 -0.5746,0.33353 -0.1415,0.0514 -0.3735,0.17682 -0.5155,0.27878 -0.2243,0.16101 -0.3789,0.19185 -1.1787,0.23506 -1.3456,0.0727 -1.5746,0.14565 -2.0762,0.6616 -0.3655,0.37586 -0.4138,0.45999 -0.3771,0.65636 0.047,0.25192 -0.1118,1.16366 -0.203,1.16366 -0.032,0 -0.079,0.0676 -0.1033,0.15034 -0.037,0.12666 -0.1458,0.15929 -0.6862,0.20694 -0.453,0.0399 -0.693,0.0996 -0.8171,0.2032 -0.096,0.0807 -0.2363,0.14667 -0.3104,0.14667 -0.085,0 -0.2555,0.1958 -0.4618,0.53036 -0.1797,0.2917 -0.4543,0.65915 -0.61,0.81649 l -0.2832,0.2861 -0.9206,0.0508 c -1.2506,0.069 -1.3896,0.1394 -1.7251,0.87349 -0.2871,0.62812 -0.4368,0.72879 -0.6682,0.4495 -0.1171,-0.14102 -0.2558,-0.18799 -0.6737,-0.22774 -0.6297,-0.0599 -0.8255,-0.016 -1.1249,0.25298 -0.1554,0.13947 -0.2267,0.27379 -0.2267,0.42718 0,0.15822 -0.1163,0.3661 -0.3975,0.71011 -0.2187,0.26749 -0.4418,0.57914 -0.4958,0.69254 -0.054,0.11335 -0.2011,0.33839 -0.327,0.50005 -0.1257,0.16165 -0.3056,0.45335 -0.3995,0.64821 -0.1562,0.3241 -0.1942,0.35433 -0.4454,0.35433 -0.1509,0 -0.3694,-0.0528 -0.4855,-0.1174 -0.1159,-0.0646 -0.287,-0.11759 -0.3801,-0.11786 -0.093,0 -0.2453,-0.0947 -0.3382,-0.21002 -0.1194,-0.14823 -0.2399,-0.20953 -0.4119,-0.20953 -0.4177,0 -0.5629,0.40957 -0.324,0.91404 0.2247,0.4744 0.3905,0.60506 0.7684,0.60506 0.2162,0 0.3805,0.0438 0.4369,0.11641 0.1514,0.19452 1.3589,0.0706 1.7085,-0.17538 0.1493,-0.10493 0.2559,-0.23406 0.2367,-0.28693 -0.019,-0.0529 0.033,-0.16128 0.1154,-0.2409 0.082,-0.0796 0.1499,-0.21319 0.1499,-0.29685 0,-0.0837 0.116,-0.2967 0.2577,-0.47337 0.1418,-0.17671 0.2577,-0.35986 0.2577,-0.40698 0,-0.0471 0.1822,-0.29711 0.4047,-0.55551 0.2225,-0.25843 0.4628,-0.61997 0.5339,-0.8035 0.072,-0.18349 0.1481,-0.33374 0.1711,-0.33393 0.023,0 0.2362,0.10581 0.4737,0.23544 0.2376,0.12964 0.4922,0.23572 0.5658,0.23572 0.1042,0 0.1338,0.0618 0.1338,0.27966 l 0,0.27966 0.5155,-0.45249 c 0.2836,-0.24885 0.5156,-0.49296 0.5156,-0.54247 0,-0.0495 0.066,-0.15403 0.1472,-0.23224 0.081,-0.0782 0.1473,-0.22744 0.1473,-0.33162 0,-0.43521 0.066,-0.46654 1.1161,-0.52742 0.5842,-0.0339 1.0538,-0.10001 1.1717,-0.165 0.2136,-0.1179 1.3208,-1.38112 1.3208,-1.50702 0,-0.14168 0.5459,-0.32498 1.0912,-0.3663 0.3669,-0.0278 0.6137,-0.0923 0.7732,-0.20206 0.1289,-0.0887 0.3253,-0.22309 0.4365,-0.29879 0.1658,-0.11294 0.202,-0.19478 0.2025,-0.45725 0,-0.17583 0.046,-0.49403 0.1042,-0.70714 0.057,-0.21315 0.098,-0.4712 0.092,-0.57354 -0.01,-0.11824 0.058,-0.24246 0.1803,-0.34087 0.1608,-0.12972 0.4036,-0.17081 1.4929,-0.25276 1.2503,-0.094 1.3089,-0.106 1.5058,-0.30733 0.1128,-0.11519 0.249,-0.20945 0.3027,-0.20945 0.1171,0 0.5683,-0.28039 0.7885,-0.48996 0.087,-0.0827 0.269,-0.20952 0.405,-0.28195 0.245,-0.13046 0.252,-0.12906 0.7628,0.15614 0.9821,0.5483 2.5469,1.02186 3.9952,1.20913 l 0.3868,0.05 -0.1649,0.24795 c -0.5256,0.79088 -1.8055,1.84488 -2.8607,2.35588 -1.1165,0.54061 -2.8138,1.03448 -4.2286,1.23044 -0.9248,0.12811 -0.9205,0.12613 -0.9205,0.42865 0,0.14295 0.02,0.36544 0.045,0.49442 l 0.044,0.23453 0.7109,0.0451 c 0.8191,0.052 1.3295,0.21838 2.317,0.75537 0.6774,0.36832 1.9221,1.20437 2.0043,1.34623 0.027,0.0469 -0.3849,0.0753 -1.0892,0.0753 -1.2275,0 -2.1512,-0.13066 -3.0735,-0.43475 -2.2474,-0.74095 -5.6898,-0.98775 -8.0287,-0.57564 -0.5599,0.0986 -0.5847,0.13196 -0.5866,0.78447 0,0.34187 0.013,0.36624 0.2217,0.41094 0.4765,0.10166 1.771,0.7009 2.4791,1.14758 0.4087,0.25778 1.0698,0.74172 1.4692,1.07535 1.8673,1.55977 3.7882,2.53513 5.7159,2.90238 0.3951,0.0752 0.7091,0.14667 0.6978,0.15865 -0.012,0.0122 -0.3787,0.1323 -0.8167,0.26735 -2.6531,0.8179 -4.5712,0.68526 -6.7854,-0.46922 -2.4803,-1.29314 -5.1956,-1.96471 -7.3806,-1.8254 -0.505,0.032 -0.5059,0.0335 -0.5554,0.79389 l -0.018,0.26765 0.8837,0.3822 c 2.218,0.95928 3.1086,1.57726 4.2015,2.9155 1.5111,1.85006 2.5091,2.70086 3.5679,3.04148 l 0.405,0.13032 -0.405,0.11194 c -0.2717,0.0751 -0.7807,0.11005 -1.5465,0.10616 -1.0177,-0.005 -1.2113,-0.0286 -1.7854,-0.21558 -0.8972,-0.29229 -1.876,-0.82629 -2.7823,-1.51792 -1.9601,-1.49597 -3.5777,-2.34993 -5.1885,-2.7391 -0.7322,-0.17694 -2.9105,-0.1535 -2.9105,0.0312 0,0.13715 0.4815,1.36439 0.71,1.80966 0.5737,1.11782 1.8302,2.58915 3.2299,3.78163 0.6463,0.55067 2.5177,1.90419 3.3721,2.43905 l 0.4264,0.26685 -0.3896,0.0604 c -0.4734,0.0734 -1.3311,0.0111 -1.9581,-0.1427 -1.042,-0.25531 -2.2821,-0.93188 -3.7337,-2.03707 -1.228,-0.93496 -2.8223,-2.00631 -3.7559,-2.52382 -1.5709,-0.87092 -2.8035,-1.23283 -4.2344,-1.24335 -0.7649,-0.006 -2.5039,0.16874 -2.5039,0.25103 0,0.10893 1.9976,2.4629 3.5717,4.20895 2.6798,2.97244 2.9742,3.34843 3.401,4.34289 0.1641,0.38269 0.1844,0.51816 0.156,1.04238 -0.038,0.71826 -0.2795,1.26399 -0.926,2.10014 l -0.4104,0.53081 -0.1897,-0.26917 c -0.6177,-0.87615 -1.273,-1.41123 -2.0677,-1.68823 -0.5264,-0.18345 -1.5646,-0.18818 -2.2093,-0.01 -1.1112,0.30698 -2.2988,1.13949 -2.9155,2.04373 -0.2953,0.43293 -0.6194,1.27176 -0.6194,1.60299 0,0.0661 0.2101,0.33885 0.467,0.60624 0.4476,0.46602 0.9248,1.14076 1.1769,1.66433 l 0.1187,0.24646 -0.477,0.12784 c -1.0584,0.28363 -1.9988,0.24186 -2.7326,-0.12148 -0.5121,-0.2535 -1.1157,-0.94414 -1.4354,-1.6424 -0.583,-1.2729 -0.7851,-2.35336 -1.2064,-6.44841 -0.1839,-1.78836 -0.3425,-3.28066 -0.3523,-3.31623 -0.01,-0.0354 -0.9751,1.41272 -2.145,3.21842 l -2.1272,3.28302 0.1675,0.3174 c 0.8477,1.60665 1.0463,2.16884 1.056,2.98891 0.01,0.85092 -0.1687,1.31064 -0.7515,1.9319 -0.808,0.86156 -2.0872,1.41199 -3.7994,1.63498 -0.7662,0.0998 -2.1725,0.11591 -2.1725,0.0248 z m -19.5594,-3.72506 c -1.7597,-1.95637 -2.0992,-4.19039 -1.0208,-6.71523 0.6062,-1.4192 1.9213,-3.15953 2.7361,-3.62078 1.2924,-0.73165 2.5556,-0.64188 3.5333,0.25115 0.7972,0.72799 1.3811,2.24279 1.2431,3.22486 -0.042,0.30138 -0.079,0.35986 -0.2477,0.3982 -0.8646,0.19619 -2.2059,0.86895 -2.9492,1.47912 -0.6022,0.49448 -1.3661,1.39575 -1.7169,2.02578 -0.5227,0.93866 -0.7678,1.77272 -0.9283,3.15857 l -0.053,0.46125 -0.5962,-0.66292 z m -3.8966,-18.90035 c -0.061,-0.421 -0.056,-1.64545 0.01,-2.06325 0.2283,-1.48808 1.1475,-2.90465 2.5339,-3.90482 0.9085,-0.65549 2.5477,-1.35662 3.8294,-1.63788 1.8283,-0.40121 3.4104,0.26648 3.8931,1.64302 0.403,1.1491 0.025,2.84003 -0.8366,3.74222 l -0.3223,0.33752 -0.4282,-0.16577 c -0.8136,-0.315 -1.3156,-0.41612 -2.2951,-0.46227 -2.3756,-0.11196 -4.2481,0.64477 -5.8402,2.36028 l -0.4871,0.52491 -0.054,-0.37396 z m 85.8603,-7.83041 c -2.5514,-1.301 -4.4921,-3.69225 -5.2821,-6.508 -0.2905,-1.03566 -0.3522,-1.44473 -0.3944,-2.61445 -0.05,-1.38828 0.069,-2.16488 0.5775,-3.77149 0.5851,-1.8487 0.7296,-2.61633 0.7762,-4.12509 0.031,-1.00598 0.013,-1.46303 -0.081,-2.03985 -0.2487,-1.52116 -0.8605,-3.02226 -1.7347,-4.25603 -0.4731,-0.66791 -1.823,-2.24125 -1.8714,-2.18144 -0.013,0.0168 0.01,1.03841 0.051,2.27002 0.1138,3.36258 -0.055,4.95193 -0.6671,6.28586 -0.2246,0.48915 -0.4297,0.75947 -1.2067,1.59072 -1.0262,1.09779 -1.4977,1.81118 -1.7929,2.71226 -0.7303,2.23047 -0.1723,4.75185 1.4609,6.59993 0.2009,0.22733 0.3499,0.42972 0.3311,0.44974 -0.053,0.0559 -1.8662,-0.17362 -2.5294,-0.31995 -1.551,-0.34225 -3.0102,-1.11117 -4.0019,-2.1088 -0.5231,-0.52636 -1.1944,-1.61161 -1.4724,-2.38076 -0.4103,-1.1352 -0.5532,-2.08164 -0.5549,-3.67521 -0.01,-2.35496 0.4108,-4.58791 1.4321,-7.73306 0.2851,-0.87814 0.3466,-1.14735 0.2732,-1.19709 -0.1295,-0.0877 -0.7998,-0.32486 -0.8212,-0.29056 -0.01,0.0152 -0.1441,0.38124 -0.2991,0.81336 -0.375,1.04581 -1.225,2.80097 -1.8266,3.77153 -2.3246,3.75094 -5.8282,6.73227 -10.9261,9.29745 -2.3818,1.19857 -3.4504,1.9282 -4.4221,3.01959 -1.3907,1.56206 -1.7656,3.21471 -1.196,5.27122 0.082,0.29582 0.1377,0.54995 0.1239,0.5647 -0.047,0.0506 -1.1136,-0.85198 -1.6579,-1.40361 -2.1097,-2.13822 -2.6936,-4.6381 -1.7067,-7.30802 0.6584,-1.78184 1.7509,-3.36791 3.7695,-5.47339 3.0854,-3.21822 3.7257,-3.92121 4.2393,-4.65552 1.1,-1.57246 1.9248,-3.19943 2.8763,-5.67328 0.2485,-0.64627 0.4372,-1.21569 0.4194,-1.26533 -0.017,-0.0496 -0.1873,-0.18715 -0.3766,-0.3055 l -0.3443,-0.21523 -0.1863,0.18409 c -0.3127,0.30913 -1.2011,1.45606 -2.1207,2.73773 -1.5499,2.16025 -2.2655,3.08329 -3.1299,4.03708 -1.7755,1.95935 -4.2361,3.96501 -7.2906,5.94291 -1.2252,0.79329 -2.5991,2.07168 -3.5454,3.29885 -0.6688,0.86726 -1.2463,1.9861 -1.5412,2.98578 -0.1507,0.51104 -0.1742,0.75102 -0.1763,1.80719 -0.01,1.03532 0.021,1.30927 0.163,1.82769 0.091,0.33539 0.1657,0.63144 0.1657,0.65785 0,0.17156 -1.0982,-1.1964 -1.7618,-2.19452 -0.8957,-1.3473 -1.6168,-3.11428 -1.8502,-4.53397 -0.047,-0.28092 -0.084,-0.91736 -0.083,-1.41432 0.01,-2.24945 0.8459,-4.00446 2.6186,-5.44424 0.7698,-0.62521 2.031,-1.96902 2.5968,-2.76664 1.1196,-1.5786 1.7771,-3.28067 1.922,-4.97525 l 0.056,-0.65371 0.7364,-0.29708 c 3.0669,-1.2373 5.276,-3.39779 5.276,-5.15996 0,-0.43163 -0.1464,-1.35165 -0.223,-1.40074 -0.025,-0.016 -0.4179,0.19249 -0.8733,0.46327 -1.2134,0.72147 -2.0425,0.99602 -3.1487,1.04253 -0.6799,0.0286 -0.9927,0.007 -1.3565,-0.0949 -1.0681,-0.29835 -1.9153,-0.98506 -2.3302,-1.88873 -0.1985,-0.43243 -0.2161,-0.53973 -0.2136,-1.29646 0.01,-0.7536 0.022,-0.86924 0.2284,-1.33574 0.4257,-0.96376 1.178,-1.82986 2.2174,-2.55318 0.1722,-0.11976 0.3131,-0.23021 0.3131,-0.24542 0,-0.0933 -0.4678,-0.81576 -0.5282,-0.81576 -0.1624,0 -1.1698,0.81904 -1.6699,1.35757 -0.9894,1.06568 -1.426,1.95472 -1.5533,3.16261 -0.1732,1.64378 0.6211,3.25132 2.0181,4.08492 1.5484,0.92388 3.3746,0.95003 5.4133,0.0775 0.343,-0.14682 0.6404,-0.24905 0.661,-0.22716 0.021,0.0218 -0.061,0.24002 -0.1812,0.4848 -0.4275,0.87123 -1.6413,1.96517 -3.0206,2.72248 -1.0039,0.55113 -1.6562,0.7923 -2.9067,1.07451 -0.9966,0.22496 -1.2815,0.25777 -2.2461,0.25877 -1.4769,0 -2.1635,-0.22523 -2.9221,-0.96492 -0.7737,-0.75452 -1.0988,-1.48579 -1.3489,-3.03451 -0.1831,-1.13336 -0.1115,-1.04786 -0.7921,-0.94617 l -0.3499,0.0522 0.042,0.32911 c 0.023,0.18101 0.088,0.58356 0.145,0.89455 0.1908,1.05221 0.2828,2.33537 0.2832,3.95249 0,1.73939 -0.088,2.72928 -0.3735,4.20366 -1.1822,6.09378 -5.2469,10.39429 -10.6647,11.28332 -0.9303,0.15262 -2.7948,0.11649 -3.7943,-0.0736 -1.9714,-0.37492 -3.8504,-1.26632 -5.4111,-2.56712 -0.5519,-0.45988 -1.5412,-1.44882 -1.4941,-1.4936 0.012,-0.011 0.336,0.0653 0.7208,0.16974 2.9305,0.79541 5.6627,0.81547 7.843,0.0574 2.8177,-0.97956 4.9372,-3.38121 5.9697,-6.76444 0.7281,-2.38526 1.0014,-5.25937 0.7455,-7.84047 -0.1929,-1.94513 -0.2048,-2.19262 -0.2008,-4.1594 0.01,-4.58744 0.7641,-7.93085 2.3602,-10.45654 1.0283,-1.62713 2.7546,-2.93501 4.1971,-3.17976 1.9045,-0.32314 3.683,-0.93774 6.0929,-2.10555 0.9325,-0.45183 2.6032,-1.41835 2.8019,-1.62076 0.076,-0.0778 0.057,-0.16638 -0.098,-0.46339 -0.1057,-0.20195 -0.2241,-0.38814 -0.2629,-0.41375 -0.038,-0.0256 -0.3924,0.14696 -0.7858,0.38353 -2.4917,1.49856 -4.1341,2.16012 -7.4416,2.99738 -1.3377,0.33862 -2.2477,0.4162 -3.3205,0.28305 -2.26,-0.28047 -3.9547,-1.13813 -5.659,-2.86398 -0.2945,-0.2982 -0.5203,-0.55832 -0.5017,-0.57805 0.018,-0.0197 0.4416,0.0541 0.9404,0.16409 4.0094,0.88404 7.9047,0.46446 11.6861,-1.25878 2.0446,-0.93177 3.7315,-1.94864 7.0792,-4.26739 1.4677,-1.0165 2.2082,-1.44873 3.2772,-1.91264 2.2514,-0.97707 4.41,-1.46622 6.6647,-1.51021 1.0743,-0.021 2.2524,-0.13327 2.3362,-0.22274 0.012,-0.0121 0,-0.24003 -0.027,-0.50645 l -0.047,-0.48437 -0.7444,7.7e-4 c -0.4094,0 -1.1166,0.0359 -1.5718,0.0788 -0.6604,0.0623 -0.9799,0.0538 -1.5832,-0.0424 -2.5492,-0.40675 -4.7006,-1.43233 -6.0259,-2.87239 -0.7673,-0.83375 -1.0442,-1.43708 -1.0867,-2.36731 -0.046,-0.99823 -0.013,-1.02786 0.4619,-0.42958 1.1022,1.38606 2.4871,2.38148 4.0536,2.91344 0.94,0.3192 1.8068,0.44976 2.9827,0.44926 1.7179,-7.7e-4 2.685,-0.22554 5.0663,-1.17759 1.1177,-0.44693 1.9404,-0.58429 3.513,-0.58659 1.9772,-0.003 3.4156,0.266 6.1861,1.15628 0.7291,0.23429 1.3367,0.41475 1.3502,0.40105 0.013,-0.0137 -0.2435,-0.40488 -0.5712,-0.86926 -0.9403,-1.33267 -1.1816,-1.98854 -1.1832,-3.21676 -0.01,-2.332 1.5529,-4.53884 3.9391,-5.58782 0.5544,-0.24374 1.5291,-0.49874 1.9092,-0.49946 l 0.2889,-7.6e-4 -0.151,0.17679 c -0.4756,0.55675 -0.7594,1.32548 -0.8113,2.19738 -0.096,1.61242 0.5294,3.0877 1.9128,4.51151 1.2972,1.33511 2.7975,2.17532 4.6434,2.60055 0.8532,0.19654 2.9357,0.1947 3.8068,-0.003 1.8154,-0.41281 3.5074,-1.31565 5.1041,-2.72351 0.3318,-0.29259 1.0507,-1.02552 1.5975,-1.62872 1.089,-1.20139 1.4251,-1.45674 2.7235,-2.06909 l 0.7926,-0.37384 0.089,0.32583 c 0.2168,0.78991 0.7433,1.41294 1.5061,1.78195 0.6578,0.31826 1.2478,0.41912 2.1642,0.37005 1.1615,-0.0622 2.1382,-0.46658 2.8738,-1.18985 0.3462,-0.34052 0.9729,-1.16898 0.9672,-1.27858 -0.01,-0.0357 -0.3392,-0.31241 -0.7495,-0.61491 -1.3428,-0.98994 -2.3013,-2.08534 -2.7591,-3.15308 -0.1645,-0.38356 -0.1981,-0.5738 -0.1995,-1.12916 0,-0.57733 0.027,-0.73177 0.211,-1.13931 0.3924,-0.86979 1.3973,-1.82771 2.5799,-2.45921 1.3243,-0.70721 2.6789,-1.08493 4.3081,-1.20135 1.6342,-0.11679 2.2872,-0.28981 3.0447,-0.80684 1.0282,-0.70172 1.6577,-2.08706 1.6655,-3.66491 0.01,-0.91318 -0.282,-2.38454 -0.6746,-3.46502 -0.1851,-0.50917 -0.1588,-0.50167 -0.7733,-0.22093 l -0.3096,0.14138 0.1755,0.46055 c 0.2551,0.66998 0.4858,1.69038 0.5552,2.45543 0.1221,1.34683 -0.1674,2.45346 -0.8092,3.09401 -0.6594,0.65795 -1.1299,0.81598 -2.8383,0.95336 -1.4404,0.11583 -2.0533,0.23431 -3.1289,0.60491 -2.2515,0.7758 -3.9256,2.08184 -4.6399,3.61972 -0.269,0.57904 -0.3145,0.75339 -0.3483,1.33292 -0.06,1.02219 0.1645,1.81897 0.7949,2.82338 0.3631,0.57866 1.4771,1.77251 2.0766,2.22559 0.2287,0.17286 0.4174,0.34309 0.4194,0.3783 0.011,0.19932 -0.8278,0.77886 -1.4693,1.01523 -0.6926,0.25516 -1.9121,0.24826 -2.5407,-0.0143 -1.1516,-0.48107 -1.4688,-1.44022 -0.9032,-2.7301 0.2783,-0.63416 0.3367,-1.25836 0.1739,-1.8558 -0.094,-0.346 -0.2221,-0.56042 -0.5733,-0.96095 l -0.4521,-0.51554 -0.706,0.77483 c -0.8373,0.91886 -1.4373,1.38902 -2.3827,1.86683 -1.108,0.56 -1.7219,0.6998 -3.0733,0.6998 -0.9398,0 -1.2496,-0.0305 -1.7537,-0.17233 -1.1113,-0.3128 -2.2585,-0.97963 -3.07,-1.78446 l -0.3682,-0.36522 0.2578,0.0475 c 1.4054,0.25904 2.9887,0.24611 3.998,-0.0326 2.2085,-0.60998 3.754,-2.12542 3.8657,-3.79042 0.054,-0.81288 -0.1634,-1.44272 -0.7922,-2.29015 -0.4534,-0.61119 -0.7389,-1.20706 -0.7378,-1.54011 0,-0.0679 0.035,-0.25604 0.077,-0.41804 0.132,-0.50704 0.1381,-0.50807 3.4027,-0.57288 2.0645,-0.0409 2.9265,-0.0838 2.9259,-0.14536 0,-0.048 -0.05,-0.28172 -0.1095,-0.51941 -0.2374,-0.94329 -0.089,-1.44379 0.6712,-2.259 l 0.4943,-0.53034 0.098,0.70716 c 0.1339,0.96402 0.3375,1.64295 0.654,2.18041 l 0.266,0.45179 3.2653,0 3.2654,0 0.2604,-0.84466 c 1.1824,-3.83625 1.1712,-7.93274 -0.032,-11.62038 -0.318,-0.97478 -1.1453,-2.75722 -1.6906,-3.64245 -1.9258,-3.12635 -4.729,-5.25556 -7.5533,-5.73693 -0.7391,-0.12597 -2.1264,-0.10621 -2.792,0.0399 -1.7111,0.37538 -3.4071,1.39769 -4.6442,2.79956 -0.5592,0.63348 -0.8018,1.22479 -0.8022,1.95468 0,0.41903 0.038,0.66521 0.1325,0.85196 0.073,0.14447 0.1195,0.27694 0.1031,0.29438 -0.1071,0.1143 -1.2595,-0.45361 -2.0431,-1.00693 -0.1811,-0.12783 -0.198,-0.12019 -1.0235,0.46083 -1.0106,0.71144 -1.2008,0.76072 -2.9533,0.76546 -1.0147,0.002 -1.3219,-0.0252 -1.8633,-0.16997 -2.7793,-0.74289 -4.4999,-2.96035 -5.5805,-7.19214 -0.2651,-1.03802 -0.3622,-1.24716 -1.1562,-2.48949 -1.1079,-1.73374 -1.2619,-2.29884 -0.8202,-3.01027 0.278,-0.44774 1.0263,-0.99725 1.9454,-1.42851 0.4252,-0.19947 0.8476,-0.47554 1.1783,-0.76988 2.8875,-2.57039 7.7475,-4.79436 15.6656,-7.16855 l 0.716,-0.21467 0.2759,0.25857 c 0.3491,0.32708 1.0241,0.65499 1.7654,0.85771 0.5389,0.14737 2.0134,0.33333 2.3446,0.29569 0.141,-0.0161 0.1456,0.0186 0.1104,0.80826 -0.1,2.24098 -0.017,2.82102 0.5786,4.03828 0.5862,1.19809 1.6476,2.15368 2.553,2.29854 0.2695,0.0431 1.3577,0.63619 1.3598,0.74103 0,0.0251 -0.3999,0.11113 -0.8896,0.19129 l -0.8906,0.14571 0.05,0.43731 c 0.028,0.24052 0.08,0.47071 0.1169,0.51153 0.08,0.0892 1.4697,-0.13267 2.2771,-0.36364 2.4004,-0.68682 3.588,-2.64484 3.9705,-6.54645 0.1591,-1.62325 0.6114,-2.80651 1.3929,-3.6437 0.5724,-0.61331 1.1652,-0.97064 1.9777,-1.1921 0.3165,-0.0862 0.5856,-0.18841 0.5979,-0.22698 0.023,-0.0722 0.8702,0.14977 1.8709,0.49014 l 0.5678,0.19312 0.1241,-0.40316 c 0.069,-0.22172 0.1388,-0.44519 0.1565,-0.4966 0.031,-0.0905 -1.0412,-0.48386 -2.079,-0.76257 -1.6863,-0.45292 -3.8192,-0.6639 -5.318,-0.52609 -2.2807,0.20972 -3.8531,0.79818 -5.3389,1.99822 -1.2583,1.01623 -2.0754,1.27988 -3.7403,1.20688 -1.0802,-0.0474 -1.6979,-0.18459 -2.3934,-0.53177 -0.5096,-0.25432 -0.6415,-0.3586 -0.7638,-0.60369 -0.048,-0.0972 -0.1306,-0.17679 -0.1823,-0.17679 -0.052,0 -0.1915,-0.1084 -0.3105,-0.24088 -0.1954,-0.21767 -0.2163,-0.29176 -0.2163,-0.76915 0,-0.46434 0.03,-0.58286 0.2563,-0.97943 1.1017,-1.93948 4.455,-3.94001 8.3889,-5.00458 3.5259,-0.9542 7.7034,-1.03929 11.1649,-0.22742 0.3645,0.0855 0.7202,0.17407 0.7904,0.19681 0.097,0.0315 0.2263,-0.12393 0.5415,-0.65101 1.8903,-3.16158 3.7173,-5.11746 5.0979,-5.45748 0.3258,-0.0803 0.3999,-0.0719 0.6867,0.0779 0.9738,0.50848 1.2192,2.37768 0.837,6.37651 -0.1012,1.05877 -0.184,1.95741 -0.1841,1.99697 0,0.0396 0.3266,-0.42008 0.7259,-1.02144 0.8139,-1.22568 1.1304,-1.59979 1.7966,-2.12372 1.5845,-1.246 3.7713,-1.84323 7.5888,-2.07248 0.7617,-0.0457 1.5899,-0.13421 1.8406,-0.19662 0.6318,-0.15724 1.4891,-0.62656 1.9076,-1.04433 0.2391,-0.23847 0.3615,-0.31609 0.3829,-0.24273 0.061,0.20696 0.1917,1.92892 0.1917,2.52022 0,0.91004 -0.1342,2.10915 -0.3268,2.91909 -0.4102,1.72519 -1.0475,2.85021 -2.4391,4.30551 -1.6426,1.71794 -2.1753,2.75923 -2.1792,4.26035 -0.01,0.61745 0.185,1.9053 0.2941,2.02951 0.027,0.0303 0.2503,7.6e-4 0.497,-0.0655 l 0.4486,-0.12056 -0.1351,-0.6024 c -0.2705,-1.20612 -0.125,-2.27378 0.4325,-3.17209 0.5289,-0.8524 1.6726,-1.98584 2.3255,-2.30475 1.5137,-0.73943 3.6781,0.13666 5.7264,2.31787 0.4682,0.49861 1.0718,1.22478 1.3411,1.61371 1.0705,1.54582 1.8876,3.37084 2.2392,5.00152 0.2426,1.12502 0.2717,2.63509 0.066,3.44491 -0.4258,1.67836 -1.2181,2.76563 -2.515,3.45127 -0.8394,0.4438 -1.5787,0.63471 -2.4578,0.63471 -1.6967,0 -2.978,-0.78842 -3.6666,-2.25621 -0.1618,-0.34493 -0.3085,-0.67317 -0.3261,-0.72943 -0.025,-0.0803 -0.1262,-0.0684 -0.4701,0.0552 -0.519,0.18648 -0.519,0.18608 -0.109,1.08402 0.6388,1.39866 1.7441,2.34933 3.2056,2.75695 0.7287,0.20324 2.0743,0.18448 2.8722,-0.04 0.6821,-0.19198 1.4968,-0.58598 2.1562,-1.04294 l 0.4625,-0.32047 0.4579,0.25606 c 0.5409,0.30256 0.6959,0.42508 1.2239,0.96771 1.3526,1.38985 2.0155,3.67469 2.1135,7.28366 0.054,2.00771 0.1797,2.69584 0.6766,3.71818 0.4599,0.946 1.1634,1.63076 2.0365,1.98238 l 0.3635,0.14642 -0.4004,0.18723 c -0.9834,0.4599 -2.3237,0.72632 -3.661,0.72773 -1.106,7.8e-4 -1.8762,-0.13886 -2.8995,-0.52713 -0.8088,-0.30688 -0.7943,-0.3095 -1.1275,0.20341 l -0.1986,0.30597 0.4601,0.61549 c 3.2812,4.38831 3.654,8.96719 1.0935,13.43051 -0.6193,1.07955 -1.3616,4.0145 -1.5381,6.08181 -0.2035,2.38238 0.01,4.83262 0.6195,7.34659 0.1378,0.56179 0.275,1.08942 0.3049,1.17251 0.046,0.12686 -0.015,0.10903 -0.3818,-0.11138 -1.887,-1.13533 -3.3128,-2.68589 -4.1906,-4.55763 -0.152,-0.32412 -0.2858,-0.60051 -0.2972,-0.61423 -0.018,-0.0217 -0.7656,0.35617 -0.8344,0.42183 -0.014,0.0134 0.1275,0.38075 0.3145,0.81627 1.2657,2.94588 1.0801,5.93414 -0.5648,9.09414 -0.8915,1.7126 -1.3342,4.42226 -1.0913,6.67931 0.1083,1.00644 0.4241,2.47937 0.7258,3.38539 0.2536,0.76139 0.2873,0.74979 -0.6843,0.23462 -1.3499,-0.71583 -2.625,-1.83946 -3.3711,-2.97056 -0.5207,-0.78937 -1.0843,-2.02681 -1.5913,-3.49404 -0.2534,-0.73288 -0.4722,-1.34484 -0.4864,-1.35994 -0.041,-0.044 -1.2268,2.12887 -1.7931,3.28611 -1.1618,2.37452 -1.841,4.42932 -2.107,6.3745 -0.5082,3.71621 0.7676,6.7396 3.733,8.84588 0.7315,0.51955 1.7874,1.12849 2.4125,1.3914 l 0.3314,0.13934 -0.2577,0.14066 c -0.1418,0.0774 -0.523,0.22377 -0.847,0.32537 -0.5059,0.15859 -0.7504,0.18485 -1.7306,0.18576 -1.3281,7.7e-4 -1.7839,-0.0996 -2.8497,-0.63006 -1.7005,-0.84644 -3.0145,-2.26966 -4.2613,-4.61559 -0.2001,-0.37651 -0.3831,-0.68479 -0.4065,-0.68507 -0.024,0 -0.2016,0.55637 -0.3954,1.23701 -0.5595,1.96393 -1.0675,3.15014 -1.8136,4.23418 -0.7046,1.02386 -1.7224,1.98449 -2.7262,2.5732 -0.4533,0.26584 -0.5244,0.28249 -1.5048,0.35182 -2.8293,0.20011 -5.5342,-0.46155 -7.4359,-1.81903 -0.243,-0.17346 -0.7297,-0.62671 -1.0814,-1.00718 -0.5209,-0.56359 -0.7021,-0.82714 -0.9773,-1.42218 -0.3522,-0.76113 -0.5522,-1.55993 -0.5544,-2.21373 l 0,-0.38329 0.2395,0.20924 c 1.042,0.911 1.6968,1.31604 2.6358,1.63038 0.4659,0.15599 0.6942,0.18259 1.5065,0.17559 0.8319,-0.007 1.0394,-0.0366 1.5834,-0.22509 1.0481,-0.36309 1.8412,-0.87571 2.6256,-1.6973 1.1743,-1.2298 1.9195,-2.69657 2.3073,-4.54104 0.165,-0.78492 0.714,-2.73364 1.0431,-3.70324 0.493,-1.45193 1.2013,-2.64383 1.9954,-3.35779 0.3528,-0.31715 1.356,-0.84562 1.7543,-0.92404 0.4556,-0.0898 0.4723,-0.12015 0.3649,-0.66087 -0.053,-0.26337 -0.1018,-0.47885 -0.1098,-0.47885 -0.01,0 -0.5381,0.12519 -1.1783,0.27818 -3.2277,0.77149 -5.011,0.89215 -6.1958,0.4192 -0.6393,-0.25519 -1.4541,-1.21388 -1.6157,-1.90091 l -0.049,-0.21078 0.6155,-7e-5 c 1.9058,0 4.2845,-0.45205 5.8377,-1.10896 1.588,-0.67163 2.3809,-1.28099 4.1125,-3.16078 l 1.3811,-1.49928 -0.3482,-0.37714 -0.3482,-0.37714 -1.217,1.35102 c -1.6219,1.80046 -2.4997,2.48738 -3.9644,3.10249 -1.546,0.64922 -3.2595,0.95505 -5.7401,1.02447 -1.2205,0.0341 -1.7122,0.074 -1.7122,0.13874 0,0.0499 0.1021,0.38931 0.2268,0.75411 0.6976,2.03957 1.5487,3.00842 3.004,3.41949 0.8317,0.23493 1.9817,0.22999 3.6408,-0.0156 l 0.3541,-0.0524 -0.4102,0.58096 c -0.7317,1.03615 -1.2056,2.18149 -1.8825,4.54891 -0.2038,0.71306 -0.4347,1.597 -0.5129,1.96433 -0.345,1.61875 -0.9504,2.872 -1.8678,3.86649 -1.1462,1.2426 -2.3382,1.81739 -3.7674,1.81654 -1.5894,-7.6e-4 -2.9051,-0.79914 -4.2718,-2.59159 -0.3575,-0.46865 -0.6732,-0.88104 -0.7016,-0.9164 -0.055,-0.0679 -0.1679,0.64745 -0.2952,1.86609 -0.1425,1.36298 0.144,2.82462 0.793,4.0454 0.432,0.81265 1.4229,1.91227 2.2588,2.50684 1.997,1.42023 4.8702,2.17562 7.692,2.02233 l 0.9831,-0.0534 -0.051,0.33866 c -0.1164,0.7812 -0.4345,2.35965 -0.6305,3.12798 -0.7369,2.88988 -1.6708,4.78843 -3.15,6.4037 -1.7954,1.96052 -3.1684,4.63703 -3.6277,7.07158 -0.1286,0.68175 -0.1078,2.39277 0.038,3.10112 0.4276,2.08251 1.4348,3.87997 3.3729,6.01915 l 0.8897,0.98215 -0.2875,-0.0415 c -0.1583,-0.0228 -0.6025,-0.0785 -0.9873,-0.1238 -1.386,-0.16309 -3.1202,-0.67542 -4.1418,-1.22354 -1.2796,-0.68651 -2.8141,-2.12138 -3.5529,-3.32213 -0.9795,-1.59228 -1.702,-3.8205 -1.952,-6.02002 -0.1306,-1.14747 -0.08,-1.06075 -0.6218,-1.06075 l -0.4712,0 -0.077,0.38048 c -0.1834,0.91149 -0.2412,1.53302 -0.2356,2.52675 0.01,1.64241 0.2702,3.1638 0.842,4.91007 0.1414,0.43171 0.245,0.79786 0.2302,0.8136 -0.015,0.0156 -0.2948,-0.14137 -0.6222,-0.34919 -3.1933,-2.02673 -4.7692,-4.84253 -5.2724,-9.42101 -0.088,-0.7974 -0.327,-5.49501 -0.3273,-6.42334 l 0,-0.29468 -0.4702,0 -0.4701,0 -0.037,2.37684 c -0.039,2.5022 -0.1057,3.19292 -0.4596,4.7605 -0.6322,2.80027 -1.9871,5.59384 -4.1219,8.49874 -0.726,0.98776 -1.0884,1.60788 -1.4922,2.55362 -0.6411,1.501 -0.8625,2.55035 -0.862,4.0858 0,1.19317 0.1407,1.93671 0.5161,2.7343 0.099,0.21025 0.18,0.39702 0.18,0.41509 0,0.071 -0.1358,0.0168 -0.782,-0.31279 z m 0.34,-27.65814 c 0,-0.0175 -0.1196,-0.25614 -0.2656,-0.53039 -0.926,-1.73877 -1.2651,-2.71288 -1.3329,-3.8287 -0.1011,-1.66383 0.5411,-3.24003 1.8799,-4.61445 0.8553,-0.87801 1.6943,-1.44769 3.6896,-2.50542 2.9352,-1.55597 4.593,-2.61408 6.2285,-3.97563 0.8552,-0.71187 2.0839,-2.0087 2.5985,-2.74264 1.2984,-1.85154 1.8889,-3.86808 1.7483,-5.97156 -0.046,-0.68451 -0.1545,-1.48552 -0.2097,-1.54445 -0.013,-0.0134 -0.2308,0.0148 -0.485,0.0627 -0.4488,0.0843 -0.4609,0.0928 -0.4142,0.29327 0.1049,0.45089 0.1317,2.55276 0.039,3.10334 -0.4627,2.76212 -2.4579,5.23323 -6.2226,7.70645 -0.9666,0.63497 -1.628,1.01373 -3.7563,2.15114 -2.083,1.11323 -2.8873,1.66096 -3.8025,2.58965 -1.2468,1.26505 -1.8932,2.42507 -2.1732,3.89977 -0.1696,0.89272 -0.1028,2.29275 0.1502,3.14626 0.102,0.34399 0.1711,0.64066 0.1537,0.65926 -0.057,0.0605 -0.8324,-0.55166 -1.249,-0.98554 -1.9101,-1.98976 -2.4693,-5.02881 -1.3907,-7.55861 0.1361,-0.31941 0.2475,-0.61051 0.2475,-0.64691 0,-0.0364 -0.1712,-0.15879 -0.3806,-0.27198 l -0.3806,-0.20579 -0.1326,0.18483 c -0.1689,0.23543 -0.5346,1.21235 -0.7016,1.87414 -0.096,0.37927 -0.1296,0.8242 -0.1321,1.72861 -0.01,1.03827 0.023,1.3222 0.1719,1.92505 0.3507,1.41764 1.0582,2.72027 2.0093,3.6996 0.9055,0.93249 1.406,1.25586 3.0444,1.9672 0.939,0.40761 1.0679,0.4548 1.0679,0.39088 z m -20.1783,-5.93983 c 0.021,-5.2642 1.77,-8.25681 6.2381,-10.67029 2.022,-1.09225 5.5866,-2.40913 8.0118,-2.95992 4.1884,-0.9512 7.1715,-2.32665 9.1463,-4.21727 1.3011,-1.24556 2.1024,-2.63649 2.4942,-4.32935 0.1341,-0.57923 0.2216,-2.35804 0.1472,-2.99305 l -0.052,-0.44496 -0.3077,7.8e-4 c -0.6405,0.002 -0.6053,-0.0789 -0.6076,1.39809 -0.01,1.56848 -0.1196,2.13626 -0.6918,3.35451 -1.2474,2.65549 -4.1995,4.59373 -8.9132,5.85189 -0.6279,0.16756 -1.3404,0.34671 -1.5834,0.3981 -1.1421,0.24151 -4.2746,1.27754 -5.8547,1.9364 -1.9949,0.83183 -4.2103,2.15127 -5.3066,3.16053 -0.6266,0.57691 -1.5412,1.63858 -1.8784,2.18061 -0.9003,1.44706 -1.5057,3.25128 -1.6897,5.03537 -0.028,0.27009 -0.072,0.4905 -0.099,0.4898 -0.079,-0.002 -0.799,-1.11332 -1.1775,-1.81719 -2.0066,-3.73174 -1.7366,-7.97649 0.6618,-10.40604 0.7204,-0.7298 1.3014,-1.11921 2.2167,-1.48566 0.1925,-0.077 0.3499,-0.15866 0.3499,-0.1814 0,-0.0227 -0.057,-0.23349 -0.1261,-0.46833 -0.1229,-0.41551 -0.1325,-0.42589 -0.3603,-0.38645 -0.1287,0.0222 -0.4843,0.16389 -0.7902,0.31465 -2.652,1.30732 -4.2672,4.14243 -4.2603,7.47798 0.01,2.50493 0.7847,4.87082 2.328,7.06567 0.7154,1.01723 1.9798,2.48171 2.0478,2.37186 0.03,-0.048 0.055,-0.3525 0.056,-0.6766 z m 39.8725,-29.59261 c 0.5049,-1.55943 1.1843,-2.74811 2.1744,-3.8045 1.2702,-1.35512 2.9451,-2.31764 5.4611,-3.13839 l 0.7813,-0.25486 -0.1395,-0.47822 c -0.077,-0.26302 -0.148,-0.48732 -0.1585,-0.49844 -0.028,-0.0298 -1.6822,0.54268 -2.3991,0.83021 -1.8796,0.7537 -3.5932,1.94298 -4.6252,3.20986 -0.5267,0.64646 -1.2334,1.79039 -1.5291,2.47495 -0.4055,0.93874 -0.7863,2.18043 -0.6816,2.22237 0.1283,0.0514 0.7441,0.25478 0.7996,0.2641 0.026,0.004 0.1679,-0.36792 0.3166,-0.82708 z m 21.3252,-13.80215 c 0,-0.0124 -0.2835,-0.42777 -0.6299,-0.92324 -0.639,-0.91408 -1.297,-2.21404 -1.5696,-3.10088 -0.2686,-0.87426 -0.3848,-1.64442 -0.4266,-2.82863 -0.081,-2.29361 0.4015,-4.60574 1.5746,-7.54303 0.5089,-1.27408 1.0998,-2.55331 1.4469,-3.13226 1.1428,-1.90602 1.837,-4.46038 1.7098,-6.29138 -0.1174,-1.69088 -0.6348,-3.18806 -1.631,-4.71951 -0.4805,-0.73881 -2.1142,-2.46808 -2.9781,-3.15245 -0.612,-0.48482 -1.9518,-1.44408 -2.0168,-1.44408 -0.037,0 -0.4875,0.79047 -0.4843,0.84988 0.01,0.0295 0.391,0.3256 0.8654,0.65791 2.8977,2.03013 4.6619,4.36275 5.1327,6.78662 0.1318,0.67838 0.1535,1.9985 0.045,2.70583 -0.2087,1.35342 -0.7347,2.77696 -1.5536,4.20446 -0.4049,0.70589 -0.8619,1.69344 -1.3632,2.94568 -1.2199,3.04788 -1.7307,5.31901 -1.728,7.6829 0.01,2.07885 0.3694,3.75495 1.1656,5.32363 0.1275,0.25095 0.2136,0.4756 0.1914,0.49921 -0.053,0.0558 -0.6829,-0.18063 -1.2691,-0.47592 -1.2167,-0.61291 -2.7722,-2.01485 -3.5657,-3.21378 -1.0255,-1.54955 -1.5193,-3.31543 -1.3184,-4.71542 0.051,-0.35731 0.1445,-0.78631 0.2071,-0.95335 0.063,-0.16704 0.1,-0.31873 0.082,-0.33709 -0.017,-0.0184 -0.2168,-0.12097 -0.4436,-0.22798 l -0.4124,-0.19458 -0.1528,0.44732 c -0.5038,1.47392 -0.3619,3.28733 0.3916,5.00792 0.9701,2.21474 2.716,4.0652 4.855,5.14582 0.8954,0.4523 1.5541,0.65468 2.7752,0.85264 1.0194,0.16524 1.1007,0.17587 1.1007,0.14376 z m 11.3813,-34.70016 c 1.5261,-0.93395 1.728,-2.93303 0.544,-5.38903 -0.7835,-1.62543 -2.0233,-3.12033 -3.3602,-4.05146 -0.7408,-0.51597 -1.2612,-0.71634 -1.9776,-0.76148 -0.4997,-0.0315 -0.6524,-0.01 -0.9731,0.13727 -0.3503,0.16078 -1.0486,0.83174 -1.0486,1.00753 0,0.039 0.1739,0.19295 0.3866,0.3422 l 0.3867,0.27138 0.2128,-0.26388 c 0.4756,-0.59003 1.0509,-0.63411 1.9857,-0.15218 2.4615,1.26879 4.7865,5.39768 4.0342,7.16423 -0.151,0.35478 -0.5912,0.80221 -0.9033,0.91831 l -0.2077,0.0772 0.1151,0.28762 c 0.063,0.15819 0.1446,0.36718 0.1805,0.46441 0.085,0.22993 0.1765,0.22231 0.6249,-0.0522 z m -62.7959,104.1296 c -0.9582,-1.54498 -1.1673,-3.24556 -0.6,-4.87885 0.063,-0.18368 0.1409,-0.33394 0.1715,-0.33394 0.064,0 0.3232,0.9879 0.5245,2.0036 0.1586,0.80079 0.2557,2.75171 0.1598,3.21307 l -0.063,0.30588 -0.1923,-0.30976 z m -25.4293,-8.90576 c 0.2426,-0.46182 1.4967,-2.20104 1.983,-2.75026 0.716,-0.80876 1.8068,-2.2018 2.5376,-3.2409 0.2964,-0.42138 0.554,-0.76612 0.5724,-0.76612 0.018,0 -0.1365,0.34474 -0.3441,0.76612 -0.8449,1.71383 -2.2811,3.68511 -3.6179,4.96583 -0.3807,0.36478 -0.8049,0.77117 -0.9426,0.90321 -0.1378,0.132 -0.2225,0.18695 -0.1884,0.12212 z m -10.468,-38.61164 c -1.4545,-1.4164 -2.3123,-3.60009 -2.5584,-6.51304 l -0.088,-1.03701 -0.485,-0.0229 -0.485,-0.0229 -0.045,0.57298 c -0.079,1.0091 -0.7875,2.29219 -2.0689,3.74439 l -0.582,0.65962 0.043,-0.93336 c 0.052,-1.1324 0.1891,-1.84712 0.538,-2.80224 0.1455,-0.3982 0.3473,-0.95384 0.4485,-1.23475 0.2803,-0.77775 0.6636,-2.45241 0.8015,-3.50042 0.1862,-1.41627 0.1553,-3.42168 -0.08,-5.14261 l -0.037,-0.275 0.2914,0.33868 c 0.3435,0.39938 0.871,0.79716 1.0599,0.79919 0.073,7.6e-4 0.1977,0.0381 0.2762,0.0828 0.1298,0.0742 0.1424,0.17322 0.1419,1.11967 l 0,1.03834 0.6622,0.68184 c 0.3643,0.37502 0.724,0.70277 0.7994,0.72831 0.204,0.0691 0.3068,0.38376 0.3068,0.93901 0,0.51847 0.1048,0.97476 0.2543,1.10806 0.048,0.0432 0.1475,0.1758 0.22,0.29464 0.099,0.162 0.1913,0.21608 0.3694,0.21608 0.1307,0 0.4003,0.0526 0.5991,0.117 0.1988,0.0644 0.4656,0.1174 0.5927,0.11786 0.1271,7.6e-4 0.3094,0.0684 0.405,0.1509 0.1694,0.14611 0.1745,0.18696 0.1968,1.56077 0.023,1.40374 0.024,1.41125 0.2026,1.51327 0.1066,0.0609 0.1796,0.17262 0.1796,0.2751 0,0.0949 0.066,0.26247 0.1472,0.37234 0.081,0.10988 0.1473,0.23223 0.1473,0.2719 0,0.0396 0.083,0.15518 0.1841,0.25667 0.1013,0.10149 0.1841,0.22664 0.1841,0.2781 0,0.20906 0.3063,0.50763 0.5209,0.50763 0.2454,0 0.5101,-0.24127 0.5101,-0.46492 0,-0.19325 -0.2576,-0.83719 -0.3626,-0.90645 -0.095,-0.0625 -0.3738,-0.6582 -0.3738,-0.79812 0,-0.0534 -0.079,-0.19701 -0.1751,-0.31918 -0.166,-0.21071 -0.1766,-0.29016 -0.205,-1.54913 l -0.03,-1.32703 -0.4394,-0.41932 c -0.3767,-0.35954 -0.482,-0.41959 -0.7389,-0.42122 -0.3752,-0.002 -1.0243,-0.2041 -1.2139,-0.3772 -0.119,-0.10873 -0.1434,-0.23362 -0.1434,-0.73257 0,-0.43881 -0.03,-0.62795 -0.1105,-0.69931 -0.061,-0.0538 -0.1105,-0.17888 -0.1105,-0.27794 0,-0.12474 -0.1106,-0.26674 -0.3597,-0.46182 -0.1978,-0.15493 -0.3895,-0.28169 -0.4259,-0.28169 -0.037,0 -0.2392,-0.18675 -0.4504,-0.41499 l -0.3842,-0.41497 0,-0.96396 c 0,-1.2318 -0.042,-1.32463 -0.773,-1.71012 -0.5496,-0.28984 -0.6876,-0.48021 -0.4053,-0.559 0.091,-0.0253 0.1473,-0.10717 0.1473,-0.21334 0,-0.0947 0.048,-0.24089 0.1081,-0.32478 0.1609,-0.22694 0.1419,-0.88658 -0.034,-1.19521 -0.1479,-0.25874 -0.3028,-0.35971 -0.6876,-0.44801 -0.1151,-0.0264 -0.3138,-0.16497 -0.4418,-0.30795 -0.1281,-0.14301 -0.4725,-0.42667 -0.7653,-0.63035 -0.293,-0.2037 -0.5529,-0.40552 -0.5778,-0.44847 -0.025,-0.0429 -0.2243,-0.16859 -0.4433,-0.27919 -0.3578,-0.18075 -0.3979,-0.22601 -0.3964,-0.44725 0,-0.13539 0.066,-0.33456 0.1456,-0.4426 0.08,-0.10804 0.1448,-0.27399 0.1457,-0.36878 0,-0.10621 0.085,-0.22466 0.2178,-0.30864 0.3304,-0.20816 0.3707,-0.63248 0.083,-0.8719 -0.1572,-0.13085 -0.3992,-0.12386 -0.7239,0.0209 -0.4261,0.18993 -0.6062,0.41185 -0.6062,0.74676 0,0.1628 -0.048,0.33407 -0.1105,0.3888 -0.083,0.0738 -0.1105,0.27257 -0.1105,0.80797 l 0,0.71014 0.4562,0.6749 c 0.2508,0.3712 0.5688,0.83402 0.7068,1.02849 l 0.2505,0.35358 -0.053,-0.55001 -0.053,-0.55002 0.1748,0.16761 c 0.096,0.0922 0.2757,0.22198 0.3993,0.28847 0.1234,0.0664 0.3623,0.26362 0.5308,0.43807 0.1685,0.17446 0.4486,0.39373 0.6224,0.48728 0.1738,0.0935 0.3269,0.18026 0.3401,0.19272 0.013,0.0125 -0.094,0.20653 -0.2393,0.4313 -0.1449,0.22476 -0.2634,0.46225 -0.2634,0.52775 0,0.0954 -0.06,0.10885 -0.3014,0.0677 -0.2241,-0.0382 -0.2936,-0.0263 -0.2709,0.0465 0.051,0.16374 -1.1045,2.64189 -1.5852,3.39921 -0.2872,0.45248 -0.8268,1.11003 -1.485,1.80945 -2.1749,2.31121 -3.007,3.65437 -3.5753,5.77176 l -0.1991,0.74174 -0.1187,-0.38816 c -0.791,-2.58539 -0.5842,-5.04772 0.5746,-6.84164 0.9224,-1.42831 1.638,-2.88947 2.0535,-4.19317 0.45,-1.41183 0.498,-1.75023 0.5399,-3.81079 0.021,-1.03717 0.021,-1.86807 0,-1.84647 -0.021,0.0215 -0.4547,0.81205 -0.9643,1.75653 -1.6643,3.08387 -2.0989,3.61334 -4.0199,4.89729 -1.6197,1.0825 -2.4354,1.89373 -2.9388,2.92284 l -0.2839,0.5802 -0.089,-0.39708 c -0.125,-0.55595 -0.1129,-1.68615 0.025,-2.31341 0.2576,-1.17445 0.8764,-2.26459 1.9967,-3.51771 1.8061,-2.02029 2.652,-3.30624 3.1787,-4.83225 0.25,-0.72442 0.4031,-2.32985 0.2719,-2.85227 -0.039,-0.15587 -0.077,-0.17353 -0.2752,-0.1281 -1.5708,0.36034 -2.9557,1.07397 -4.4474,2.29187 -0.7987,0.65202 -2.9563,2.94338 -3.7395,3.97117 l -0.5855,0.76832 -0.021,-0.58517 c -0.029,-0.77866 0.1359,-1.50108 0.5383,-2.36579 0.425,-0.91294 0.9059,-1.59367 1.9155,-2.71078 2.8064,-3.10541 3.9046,-4.74517 4.3942,-6.56086 0.1498,-0.55554 0.1695,-0.79901 0.1695,-2.09533 0,-0.80669 -0.024,-1.49172 -0.052,-1.52225 -0.073,-0.0781 -2.5053,1.59535 -4.2769,2.94292 -3.1656,2.40783 -4.1301,3.01927 -5.0942,3.2292 -0.9928,0.21622 -2.0212,-0.17384 -3.1149,-1.18151 l -0.3006,-0.27701 0.5013,-0.2925 c 0.9387,-0.54769 1.576,-1.41689 1.7788,-2.42618 0.1944,-0.96734 -0.099,-2.27201 -0.7361,-3.27294 -0.6135,-0.96401 -1.7051,-1.82092 -2.4771,-1.94443 -0.295,-0.0472 -0.3522,-0.0273 -0.6405,0.22232 -0.5876,0.50899 -1.9017,1.23546 -2.2346,1.23546 -0.1353,0 -0.2789,-1.01485 -0.2383,-1.68357 0.1149,-1.89341 1.6144,-2.85756 4.9548,-3.18586 0.7428,-0.073 5.4639,-0.23679 6.8463,-0.23751 0.5003,0 0.5706,-0.0161 0.4787,-0.10808 -0.1608,-0.16063 -6.1553,-4.52146 -6.2927,-4.57772 -0.065,-0.0266 -0.4068,0.0783 -0.7593,0.23308 -1.0613,0.46597 -1.7283,0.63242 -2.519,0.62864 -1.1571,-0.005 -1.9324,-0.40565 -2.5289,-1.30518 -0.7008,-1.05654 -0.9313,-1.97302 -0.9854,-3.91659 -0.021,-0.78716 -0.01,-1.44065 0.03,-1.51442 0.058,-0.11091 0.1331,-0.0669 0.5164,0.30318 l 0.4484,0.43293 0.4314,-0.083 c 1.4534,-0.27944 2.9805,-1.84209 3.4437,-3.52383 0.1537,-0.55765 0.1515,-1.51981 -0.01,-2.01465 -0.2606,-0.82687 -0.8348,-1.54539 -1.6617,-2.07943 -0.2318,-0.14967 -0.4223,-0.30939 -0.4235,-0.35497 -0.01,-0.16448 1.2264,-1.39087 1.8022,-1.79622 1.0539,-0.74178 2.0224,-1.06419 3.2035,-1.06642 0.7669,-0.002 1.8989,0.18701 2.2461,0.37393 0.8621,0.46402 1.8847,1.53054 2.2559,2.35259 0.4815,1.06656 0.2812,2.18054 -0.5326,2.96109 -0.4389,0.421 -0.9537,0.64186 -1.7425,0.74738 -1.4118,0.18888 -2.3698,0.89089 -2.5974,1.90333 -0.3481,1.54802 0.7284,3.5845 3.1648,5.98705 1.0271,1.01274 2.6925,2.33113 2.9448,2.33113 0.2791,0 0.4631,-0.23682 0.4337,-0.55876 -0.021,-0.23029 -0.1275,-0.34276 -0.9561,-1.00916 -2.6125,-2.10104 -4.2845,-4.16774 -4.6245,-5.71627 -0.1692,-0.77052 0.063,-1.25264 0.7714,-1.60668 0.2962,-0.14792 0.6632,-0.25309 1.0453,-0.29958 1.9843,-0.24147 3.3363,-1.6929 3.3326,-3.57767 -0.01,-1.10891 -0.4099,-2.04419 -1.3206,-3.02917 -0.69,-0.74631 -1.22,-1.15591 -2.195,-1.69621 -0.3534,-0.19588 -0.7796,-0.49787 -0.947,-0.6711 -0.3528,-0.36489 -0.6857,-1.02069 -0.7408,-1.45913 -0.053,-0.41885 0.1957,-1.00695 0.6072,-1.43779 0.316,-0.331 0.3301,-0.33705 0.4378,-0.18866 0.5202,0.71653 1.0286,1.9666 1.1135,2.73841 0.026,0.23277 0.067,0.4557 0.093,0.4954 0.026,0.0396 0.2448,0.15838 0.4879,0.26373 0.3975,0.17234 0.5452,0.19117 1.4728,0.18773 0.93,-0.003 1.0887,-0.0251 1.6201,-0.22128 0.8607,-0.31769 1.4832,-0.71644 2.0308,-1.30095 0.5647,-0.60264 0.8607,-1.20502 0.9601,-1.9538 0.072,-0.54545 -0.01,-1.24751 -0.1989,-1.73466 -0.057,-0.14603 -0.104,-0.27887 -0.104,-0.29521 0,-0.0668 0.6103,-0.0223 1.224,0.0893 2.9349,0.53406 4.4125,1.99667 4.12,4.07816 -0.06,0.42767 -0.2106,0.60257 -0.999,1.16135 -0.6873,0.48712 -1.5779,0.95158 -2.9007,1.51268 -1.233,0.52307 -1.5441,0.7105 -1.9403,1.16918 -0.5878,0.68038 -0.8296,1.45697 -0.8296,2.66538 0,0.42489 0.052,1.04507 0.1153,1.37816 0.2296,1.20722 0.9261,3.09274 1.3047,3.53248 0.1885,0.21884 0.448,0.22678 0.6421,0.0197 0.2094,-0.22341 0.1839,-0.47631 -0.1108,-1.10082 -0.643,-1.36222 -1.0393,-3.03489 -0.9759,-4.11911 0.069,-1.18103 0.5061,-1.84852 1.4917,-2.27835 1.7963,-0.78337 2.6786,-1.20957 3.2172,-1.55403 0.3368,-0.21536 0.6571,-0.3996 0.7118,-0.40943 0.055,-0.01 0.6182,-0.58235 1.2519,-1.27225 1.0703,-1.16491 1.7344,-1.72784 2.3124,-1.95991 0.1911,-0.0768 0.1623,0.0241 -0.2015,0.70508 l -0.3302,0.61837 0.2605,0.4575 c 0.6583,1.15644 2.2318,2.01443 3.8426,2.0954 1.5986,0.0804 2.7275,-0.44696 3.4715,-1.62167 0.3052,-0.48177 0.5975,-1.23826 0.5975,-1.54613 0,-0.10641 0.027,-0.19349 0.06,-0.19349 0.033,0 0.3128,0.18564 0.6217,0.41252 1.9593,1.43927 3.0202,3.19704 2.9059,4.81446 -0.1545,2.18699 -2.4642,3.64729 -6.6939,4.23229 -0.6991,0.0967 -0.8163,0.0927 -1.4598,-0.0489 -1.0165,-0.22387 -2.7602,-0.16256 -3.7532,0.13199 -2.477,0.73475 -4.2977,2.43601 -5.01,4.68112 -0.2191,0.69087 -0.2795,2.09555 -0.1237,2.87647 0.1598,0.80103 0.5234,1.67977 1.0341,2.49985 0.4217,0.67716 0.9319,1.25761 2.5245,2.87217 0.3622,0.36732 1.4194,1.52982 2.3491,2.58333 3.1638,3.58489 7.0313,7.39025 11.08,10.90205 2.8953,2.5113 4.3402,3.64678 6.2965,4.94788 5.8913,3.91823 10.2617,7.8023 13.1008,11.64329 0.4891,0.66156 1.6789,2.54235 1.6369,2.58723 -0.016,0.0167 -0.2395,-0.0213 -0.4974,-0.0845 -1.2672,-0.3105 -2.0841,-0.39806 -3.7093,-0.39756 -1.8386,7.6e-4 -2.5339,0.11499 -3.8499,0.63362 -0.3937,0.1552 -0.9739,0.38366 -1.2892,0.50771 -0.8961,0.35258 -1.8873,0.54453 -3.0778,0.59601 -1.6532,0.0715 -2.7867,-0.16879 -4.1551,-0.88076 -1.24,-0.64521 -2.334,-1.71985 -3.2767,-3.21906 -0.2913,-0.46334 -0.5555,-0.81216 -0.5868,-0.77515 -0.032,0.0371 -0.2121,0.43196 -0.4017,0.87768 -0.2374,0.55861 -0.3704,1.00086 -0.4282,1.42345 -0.3396,2.48567 1.7389,4.9823 5.2089,6.25687 0.6327,0.2324 0.8246,0.34876 0.5751,0.34876 -0.2117,0 -2.1386,0.63456 -2.8569,0.94085 -1.054,0.44945 -2.4044,1.23375 -3.8306,2.22473 -1.8099,1.25762 -3.596,2.41311 -3.7298,2.41311 -0.058,0 -0.3382,-0.22667 -0.6228,-0.50371 z m 26.7033,-26.50047 c -5.0739,-0.22583 -9.0526,-2.51013 -10.65,-6.11441 -0.4761,-1.07448 -0.6255,-1.72231 -0.6701,-2.9072 -0.059,-1.57452 0.1613,-2.66663 0.8175,-4.04651 0.4396,-0.92436 0.9162,-1.62603 1.6978,-2.49953 1.6275,-1.81901 2.76,-2.41059 4.7912,-2.50288 1.0115,-0.046 1.7142,0.0499 2.6447,0.36076 1.9772,0.66054 3.3458,2.06545 3.1777,3.26172 -0.1033,0.73448 -0.7797,1.44753 -1.9091,2.01246 -0.6582,0.32917 -0.796,0.50515 -1.3008,1.66208 -0.8604,1.97237 -0.3674,3.86693 1.2814,4.92352 1.7227,1.10388 4.7898,1.2862 8.7157,0.51807 3.8297,-0.74933 9.0017,-2.68928 14.3439,-5.38032 1.8467,-0.93023 4.9536,-2.23189 6.7424,-2.82485 1.1894,-0.39425 2.8936,-0.83805 3.9014,-1.01598 0.9709,-0.17143 3.0501,-0.35829 3.1625,-0.28421 0.1759,0.11599 0.9585,2.73901 0.8513,2.85337 -0.025,0.0267 -0.5335,0.0745 -1.1299,0.10612 -4.4791,0.23776 -9.719,1.73084 -15.2583,4.34783 -1.3295,0.62815 -4.1908,2.13269 -5.4865,2.88499 -0.8837,0.51315 -2.9591,1.573 -3.9701,2.02746 -4.0468,1.81905 -8.3183,2.77037 -11.7527,2.61751 z m -57.0368,-4.39664 c -1.3727,-0.21492 -2.3327,-0.5255 -3.2991,-1.06731 -0.8481,-0.47543 -1.8225,-1.51185 -2.2369,-2.37906 -0.1652,-0.34572 -0.3525,-0.80537 -0.4162,-1.02145 -0.1274,-0.43214 -0.2855,-1.30687 -0.2442,-1.35097 0.014,-0.0153 0.2494,0.11678 0.5222,0.29361 2.4947,1.61704 5.7778,1.50233 8.2675,-0.28882 l 0.4997,-0.35949 0.3858,0.2138 c 0.5083,0.28163 1.2685,1.15004 1.5602,1.78231 0.7938,1.72037 0.2575,3.13946 -1.4885,3.93825 -0.5261,0.24065 -0.5446,0.24313 -1.9304,0.25835 -0.7696,0.009 -1.4986,0 -1.6201,-0.0192 z m -0.073,-22.32036 c -0.6795,-0.58294 -1.937,-1.26952 -2.7616,-1.5078 -1.7655,-0.51022 -3.6681,-0.34402 -5.2784,0.4611 -0.3372,0.16858 -0.6126,0.29995 -0.612,0.29195 0.01,-0.10892 0.3232,-1.06488 0.4652,-1.40698 0.6482,-1.56128 1.9482,-2.74277 3.6464,-3.31385 1.0769,-0.36217 1.8808,-0.4617 3.3253,-0.41173 2.0132,0.0696 2.8685,0.33433 3.6999,1.14508 0.5701,0.55588 0.7558,0.99252 0.7544,1.77289 0,0.56108 -0.03,0.69435 -0.2741,1.24106 -0.4202,0.94282 -1.2244,1.77683 -2.0166,2.09114 l -0.3592,0.14252 -0.5893,-0.50538 z m 91.8396,-4.6241 c -0.28,-0.14855 -0.5274,-0.28948 -0.5496,-0.31318 -0.022,-0.0236 0.071,-0.1542 0.2072,-0.29001 0.1361,-0.13579 0.3491,-0.47887 0.4731,-0.76237 0.2133,-0.48792 0.2254,-0.56797 0.2265,-1.49765 0,-1.08051 -0.095,-1.54783 -0.4932,-2.39646 -0.3048,-0.64978 -0.5643,-1.03762 -0.9862,-1.47429 -0.4672,-0.48356 -0.7806,-0.70517 -1.2727,-0.89977 -0.3932,-0.15553 -0.3972,-0.16017 -0.221,-0.26079 0.099,-0.0564 0.4777,-0.34063 0.8422,-0.63175 1.1293,-0.90173 2.1361,-1.38244 3.5445,-1.69211 0.6205,-0.13647 3.2836,-0.24634 3.7429,-0.15441 l 0.2582,0.0517 -0.5681,0.41233 c -1.3759,0.99843 -2.1585,2.62208 -2.4106,5.0017 -0.2197,2.072 -0.5654,3.24474 -1.2501,4.23984 -0.2199,0.31961 -0.9046,0.96039 -1.0068,0.94214 -0.015,-0.002 -0.2561,-0.12636 -0.5363,-0.27491 z m -2.4737,-1.32195 c -0.1825,-0.10395 -0.5138,-0.39509 -0.7364,-0.64698 l -0.4046,-0.45799 0.2577,-0.0464 c 1.0182,-0.18346 1.3846,-1.46379 0.781,-2.72907 -0.2044,-0.42876 -0.6353,-0.91364 -0.9393,-1.05723 -0.5141,-0.24278 0.1169,-0.46722 0.7319,-0.26037 0.3339,0.11231 0.5133,0.24404 0.8999,0.66101 1.1771,1.26924 1.5592,3.41694 0.7794,4.37948 -0.2086,0.25745 -0.2803,0.29332 -0.6363,0.31836 -0.3173,0.0222 -0.4711,-0.0114 -0.7333,-0.16076 z m -61.5417,-4.05836 c -0.7903,-0.15104 -1.6215,-0.56941 -2.1908,-1.10276 -0.3043,-0.285 -0.3164,-0.36077 -0.1154,-0.72408 0.2344,-0.42394 0.5039,-1.32411 0.6335,-2.1158 0.1348,-0.82371 0.1038,-1.81032 -0.083,-2.65473 -0.2516,-1.13444 -1.2099,-2.81056 -2.0451,-3.57697 l -0.3098,-0.28423 1.1047,0.041 c 1.3357,0.0497 1.9573,0.20297 2.9141,0.71861 1.8522,0.99809 3.1746,3.14673 3.6485,5.92781 0.2196,1.28896 -0.018,2.25537 -0.7443,3.03494 -0.4773,0.51198 -1.0259,0.74497 -1.8416,0.78214 -0.324,0.0147 -0.7607,-0.006 -0.9705,-0.0461 z m -16.8688,-1.25816 c -0.1716,-0.0567 -0.2506,-0.13869 -0.2823,-0.29288 -0.3745,-1.82397 -1.4476,-3.52656 -2.8668,-4.54909 -1.0266,-0.73959 -2.0002,-1.13088 -3.2698,-1.31406 l -0.6187,-0.0893 0.3977,-0.31692 c 1.322,-1.05334 2.459,-1.47774 3.9695,-1.48166 2.0405,-0.005 3.9592,0.86543 5.939,2.69517 0.4782,0.44194 0.6281,0.64045 0.8651,1.14619 0.5264,1.12331 0.4437,2.08695 -0.2482,2.89108 -0.7014,0.81518 -1.7672,1.30666 -2.9474,1.35913 -0.3847,0.0172 -0.8069,-0.005 -0.9381,-0.0477 z"
       id="path3843-1"
       inkscape:connector-curvature="0" />
  </g>
</svg>
