<svg width="473" height="316" viewBox="0 0 473 316" fill="none" xmlns="http://www.w3.org/2000/svg">
<rect x="0.730469" y="0.832031" width="472" height="315" fill="#0D44AF"/>
<path d="M228.685 238.299C231.817 243.999 235.197 250.138 236.195 251.94C237.194 253.742 238.106 255.118 238.222 254.997C238.338 254.875 241.685 248.857 245.661 241.622C249.636 234.387 253.019 228.324 253.179 228.148C253.403 227.902 253.895 228.11 255.297 229.044C263.574 234.559 272.087 234.972 276.519 230.075C278.59 227.786 279.691 224.582 279.685 220.856C279.679 216.208 278.19 213.258 274.993 211.559C273.22 210.617 270.182 210.667 268.166 211.672C265.393 213.054 263.56 215.553 262.905 218.847L262.577 220.496L261.196 218.503C258.594 214.75 256.828 210.648 255.818 206.013C255.081 202.63 254.748 200.054 254.163 193.192L253.716 187.943L255.158 187.938C258.693 187.927 261.965 186.653 263.742 184.596C265.578 182.471 265.77 180.12 264.3 177.759C262.943 175.58 260.39 174.077 256.406 173.111C255.437 172.877 254.645 172.583 254.645 172.458C254.645 172.333 256.516 168.382 258.803 163.678C265.418 150.069 269.168 144.117 274.249 139.162C277.483 136.007 280.497 134.092 283.843 133.064C284.441 132.88 284.424 132.941 283.526 134.188C281.794 136.591 281.419 137.778 281.4 140.907C281.386 143.343 281.464 143.862 282.014 144.991C283.781 148.619 288.598 151.352 293.254 151.37C299.356 151.393 304.115 148.002 305.843 142.401C306.334 140.81 306.423 139.937 306.405 136.921C306.379 132.756 305.84 129.967 304.204 125.547C302.782 121.701 302.237 120.858 299.408 118.131C296.503 115.331 293.489 113.597 290.251 112.863C287.598 112.262 283.025 112.445 280.21 113.266C276.415 114.372 271.764 116.947 267.931 120.062C258.715 127.552 250.52 139.863 247.087 151.376C246.558 153.15 246.332 153.614 246.181 153.236C245.807 152.299 245.688 140.605 246.016 137.05C247.207 124.149 251.653 111.599 260.019 97.5259C261.213 95.5163 262.087 93.8721 261.96 93.8721C261.833 93.8721 260.752 94.1022 259.557 94.3834C253.974 95.6974 251.254 95.1839 251.254 92.8164C251.254 90.9627 253.974 86.8537 258.538 81.8104L261.157 78.9166L259.478 75.6985C248.884 55.3965 238.235 35.2773 238.084 35.2773C237.931 35.2773 229.671 50.8873 216.563 75.9465L215.028 78.8812L217.637 81.7927C224.112 89.0205 226.093 92.9559 224.037 94.5101C223.415 94.9805 222.965 95.0613 221.167 95.0254C219.995 95.0021 218.004 94.733 216.743 94.4275C215.482 94.1221 214.347 93.8721 214.221 93.8721C214.096 93.8721 214.933 95.448 216.083 97.3741C218.563 101.526 222.59 109.411 224.136 113.138C225.681 116.864 227.861 123.736 228.646 127.355C230.052 133.836 230.253 135.966 230.253 144.362C230.253 148.673 230.153 152.56 230.03 152.998C229.822 153.739 229.756 153.625 229.088 151.371C224.594 136.2 212.431 120.83 200.295 114.987C196.854 113.331 194.521 112.721 190.963 112.55C187.096 112.363 184.782 112.854 181.502 114.558C179.517 115.589 178.664 116.256 176.36 118.585C173.704 121.269 173.557 121.478 172.529 124.042C171.191 127.377 170.472 129.966 169.984 133.201C169.495 136.447 169.502 138.313 170.013 140.852C170.579 143.666 171.661 145.854 173.294 147.492C177.675 151.885 184.544 152.618 190.082 149.282C193.204 147.402 194.654 145.044 194.848 141.529C194.997 138.835 194.475 136.967 192.908 134.586C191.949 133.13 191.879 132.932 192.376 133.088C199.049 135.173 204.475 140.444 210.692 150.88C212.916 154.613 221.514 171.756 221.514 172.457C221.514 172.603 220.839 172.86 220.014 173.028C212.284 174.604 208.6 180.179 212.391 184.566C214.14 186.591 216.415 187.541 220.349 187.89L222.445 188.075L221.864 194.719C220.811 206.762 219.164 212.441 214.972 218.491L213.598 220.472L213.267 218.816C212.604 215.508 210.687 212.915 207.949 211.624C205.857 210.638 202.879 210.647 201.012 211.646C198 213.257 196.474 216.321 196.477 220.761C196.48 228.695 200.961 233.487 208.333 233.441C212.328 233.416 216.226 232.06 220.7 229.136C221.877 228.367 222.874 227.782 222.915 227.836C222.956 227.891 225.552 232.599 228.685 238.299Z" fill="white"/>
<path d="M216.572 171.754H261.439" stroke="#0D44AF" stroke-width="4"/>
<path d="M216.572 189.957H261.439" stroke="#0D44AF" stroke-width="4"/>
<path d="M231.552 190.684C231.552 190.684 231.794 209.946 228.819 220.42C227.25 225.942 222.771 230.535 222.771 230.535" stroke="#0D44AF" stroke-width="4"/>
<path d="M231.552 171.852C231.552 171.852 231.794 152.978 228.819 142.716C227.25 137.305 222.771 132.805 222.771 132.805" stroke="#0D44AF" stroke-width="4"/>
<path d="M244.479 171.852C244.479 171.852 244.237 152.978 247.212 142.716C248.781 137.305 253.26 132.805 253.26 132.805" stroke="#0D44AF" stroke-width="4"/>
<path d="M244.479 190.684C244.479 190.684 244.237 209.946 247.212 220.42C248.781 225.942 253.26 230.535 253.26 230.535" stroke="#0D44AF" stroke-width="4"/>
<path fill-rule="evenodd" clip-rule="evenodd" d="M130.719 110.214L95.4343 108.099L80.1887 140.679L64.3394 108.401L29.1003 111.202L48.5358 81.0391L28.5423 51.2597L63.8272 53.3751L79.0728 20.7951L94.9221 53.073L130.161 50.2723L110.726 80.4348L130.719 110.214Z" fill="#FCDD04"/>
<path fill-rule="evenodd" clip-rule="evenodd" d="M444.918 110.214L409.634 108.099L394.388 140.679L378.539 108.401L343.3 111.202L362.735 81.0391L342.742 51.2597L378.026 53.3751L393.272 20.7951L409.121 53.073L444.36 50.2723L424.925 80.4348L444.918 110.214Z" fill="#FCDD04"/>
<path fill-rule="evenodd" clip-rule="evenodd" d="M38.6854 280.306C48.7458 290.404 61.2685 296.119 75.8735 297.278C77.7519 297.427 82.0856 297.39 84.2357 297.208C98.0343 296.034 110.465 290.347 120.207 280.75C124.684 276.339 128.056 271.812 130.852 266.456C135.426 257.697 137.482 249.332 137.482 239.484C137.482 230.054 135.542 221.771 131.381 213.433C130.731 212.13 130.077 210.902 129.927 210.703C129.671 210.362 129.363 210.48 124.727 212.693C121.229 214.363 93.6633 229.116 86.4116 233.199C86.3338 233.243 85.9824 233.026 85.6305 232.719L84.9908 232.159L94.8088 215.691C100.209 206.633 104.742 199.09 104.882 198.927C105.279 198.466 110.028 190.486 110.028 190.279C110.028 190.178 109.234 189.649 108.264 189.105C101.761 185.453 95.359 183.269 87.762 182.113C85.4356 181.759 84.0402 181.681 79.8028 181.672C74.0013 181.66 71.4472 181.933 66.2817 183.118C58.3082 184.948 49.4797 189.327 43.0292 194.652C40.5816 196.672 36.6554 200.595 34.7996 202.874C30.4446 208.222 26.4608 215.573 24.531 221.82C20.751 234.058 20.8684 246.174 24.8817 258.035C27.7871 266.622 32.2894 273.886 38.6854 280.306ZM75.7728 268.317V249.884L75.2108 249.692L74.6488 249.5L65.4381 264.937C60.3722 273.427 56.2274 280.47 56.2274 280.587C56.2274 280.884 60.9539 283.2 63.3141 284.061C67.0122 285.41 72.5726 286.691 74.9164 286.735L75.7728 286.751V268.317ZM70.9159 246.789C71.2987 247.177 71.21 247.336 62.0555 262.673C56.9697 271.194 52.6937 278.19 52.5533 278.219C51.8064 278.374 45.6926 272.784 43.13 269.603C41.5686 267.665 39.1 264.071 39.1 263.736C39.1 263.606 46.0139 259.745 54.4643 255.157C62.9146 250.569 69.9862 246.721 70.1789 246.606C70.4506 246.445 70.6161 246.486 70.9159 246.789ZM53.0859 251.325C64.0427 245.376 68.7163 242.74 68.718 242.51C68.7184 242.451 68.7228 242.396 68.727 242.344C68.7353 242.24 68.7425 242.149 68.7141 242.071C68.5265 241.553 66.7907 241.553 53.6284 241.556C52.6392 241.556 51.5855 241.556 50.4631 241.556C32.9207 241.556 32.4505 241.565 32.4505 241.93C32.4505 244.167 33.3522 249.492 34.2798 252.733C35.1393 255.736 36.8561 259.947 37.19 259.871C37.3364 259.838 44.4895 255.993 53.0859 251.325ZM36.5951 219.875C36.6937 219.764 68.9166 237.295 68.9193 237.461C68.9207 237.542 60.7158 237.609 50.6862 237.609H32.4505V237.009C32.4505 234.659 33.3708 229.347 34.3625 225.972C34.922 224.069 36.3615 220.137 36.5951 219.875ZM71.4277 233.478C71.7674 233.111 71.4455 232.537 62.1563 216.95C56.8635 208.068 52.5052 200.767 52.4713 200.725C52.3731 200.602 50.2701 202.21 48.4162 203.826C45.2938 206.547 41.923 210.542 39.5895 214.287C38.5014 216.033 38.4549 216.158 38.8163 216.364C40.3583 217.241 70.8617 233.831 70.956 233.843C71.022 233.853 71.2342 233.688 71.4277 233.478ZM75.7728 192.217V211.558C75.7728 228.051 75.731 230.899 75.4892 230.899C75.3263 230.899 71.0905 223.999 65.5296 214.675C56.3941 199.357 55.875 198.436 56.2397 198.186C57.1368 197.57 61.9224 195.365 63.7836 194.709C67.3384 193.456 72.914 192.217 74.9929 192.217H75.7728ZM82.5265 228.333L92.4495 211.702L101.136 197.143L99.5873 196.382C94.4595 193.864 86.7581 192.019 81.372 192.019H79.8028V211.147C79.8028 226.261 79.8557 230.295 80.0547 230.378C80.1932 230.435 80.5279 230.464 80.7984 230.443C81.1958 230.413 81.5278 230.007 82.5265 228.333ZM100.179 282.292C96.1712 284.361 90.3961 286.025 85.043 286.653C83.6584 286.815 81.9129 286.948 81.1641 286.948H79.8028V268.619V250.291L80.8563 250.154C81.4357 250.078 81.9382 250.089 81.9731 250.178C82.0079 250.266 86.2828 257.443 91.4728 266.127L100.909 281.915L100.179 282.292ZM105.872 279.027C110.592 275.903 115.556 270.963 118.795 266.168C119.454 265.192 119.525 264.987 119.281 264.768C118.922 264.448 86.9284 247.082 86.6969 247.082C86.6039 247.082 86.2936 247.326 86.0076 247.625L85.4876 248.167L93.6777 261.884C98.1822 269.428 102.438 276.555 103.136 277.721C103.833 278.888 104.457 279.843 104.521 279.843C104.586 279.843 105.194 279.476 105.872 279.027ZM126.66 244.516C126.118 249.502 124.77 254.528 122.772 259.006C122.244 260.192 121.721 261.188 121.612 261.22C121.502 261.253 114.158 257.332 105.292 252.509C96.4266 247.685 89.1013 243.713 89.014 243.681C88.9266 243.649 88.9649 243.158 89.0988 242.59L89.3424 241.556H108.148C118.491 241.556 126.954 241.623 126.951 241.704C126.95 241.785 126.819 243.051 126.66 244.516ZM126.854 236.178C126.612 233.397 126.121 230.376 125.516 227.949C124.597 224.262 122.359 218.337 121.946 218.499C121.788 218.562 88.8312 236.442 88.7093 236.531C88.6761 236.555 88.7093 236.808 88.7814 237.092L88.9139 237.609H107.946H126.978L126.854 236.178ZM79.0975 237.158C82.6885 237.158 84.166 241.54 81.219 243.451C80.2945 244.05 78.6605 244.27 77.7938 243.913C74.0057 242.35 75.0079 237.158 79.0975 237.158Z" fill="white"/>
<path d="M401.572 206.897C385.797 230.377 372.547 250.136 369.814 254.25C371.836 255.766 374.744 257.881 377.843 260.082C381.788 254.341 394.427 235.807 409.263 214.002L441.836 166.127L443.829 158.685C444.925 154.592 445.794 151.215 445.76 151.18C445.726 151.146 443.012 152.888 439.729 155.053L433.759 158.989L401.572 206.897Z" fill="white"/>
<path d="M342.699 293.595C343.598 295.451 345.493 296.946 347.386 297.29L347.387 297.29C348.338 297.463 350.062 297.339 350.902 297.037C352.887 296.324 354.573 294.462 355.215 292.274L355.41 291.612L356.149 291.701C356.832 291.783 356.909 291.757 357.176 291.342C357.377 291.029 357.464 290.602 357.464 289.932V288.97L358.234 288.975C358.901 288.979 359.031 288.926 359.203 288.584C359.313 288.366 359.402 287.676 359.404 287.05L359.406 285.913L359.929 285.999C360.714 286.129 361.066 285.856 361.237 284.984C361.318 284.57 361.352 283.922 361.311 283.545C361.238 282.873 361.244 282.861 361.681 282.896C361.926 282.916 362.246 282.922 362.394 282.909C362.815 282.871 363.136 282.047 363.136 281.005V280.058L363.613 280.197C364.656 280.502 365.156 279.908 365.156 278.364C365.156 277.89 365.183 277.503 365.216 277.503C365.249 277.503 365.506 277.602 365.788 277.722C366.934 278.213 367.584 277.392 367.458 275.613L367.393 274.705L367.79 274.916C368.487 275.287 369.01 275.187 369.365 274.614C369.64 274.171 369.673 273.93 369.601 272.873C369.554 272.199 369.551 271.647 369.594 271.647C369.637 271.647 369.84 271.758 370.044 271.894C370.609 272.272 371.549 272.139 371.792 271.647C372.017 271.193 372.048 269.629 371.851 268.764L371.717 268.176L372.315 268.487C373.134 268.913 373.614 268.882 374.001 268.38C374.416 267.843 374.424 266.33 374.02 264.761C373.863 264.151 373.75 263.636 373.769 263.615C373.828 263.548 378.719 267.01 379.67 267.793C380.601 268.558 381.938 270.233 381.938 270.635C381.938 270.783 381.748 270.856 381.355 270.857C380.079 270.86 378.365 272.139 377.779 273.524C377.409 274.399 377.463 276.055 377.889 276.896C379.339 279.761 382.91 280.249 385.041 277.874C385.926 276.887 386.948 274.861 387.207 273.578C387.97 269.799 385.873 265.708 381.67 262.777C380.394 261.887 379.103 260.977 377.843 260.082C374.745 257.88 371.837 255.766 369.815 254.249C368.351 253.151 367.352 252.366 367.08 252.087C365.586 250.551 364.808 248.49 365.065 246.746L365.174 246.004H366.147C367.457 246.004 368.439 245.634 369.239 244.841C370.056 244.03 370.473 243.167 370.562 242.102C370.748 239.873 369.011 237.783 366.745 237.51C365.778 237.393 364.502 237.759 363.627 238.405C362.488 239.245 360.879 242.185 360.248 244.579C359.881 245.967 359.872 248.894 360.229 250.214C360.996 253.051 362.758 255.547 365.388 257.523C366.436 258.31 366.547 258.446 366.551 258.927L366.554 259.266L365.977 258.966C365.185 258.555 364.771 258.59 364.373 259.102C364.072 259.49 364.042 259.684 364.098 260.901L364.161 262.265L363.687 261.97C363.426 261.808 362.987 261.675 362.711 261.675C361.953 261.674 361.664 262.233 361.685 263.657L361.702 264.798L361.254 264.571C360.216 264.043 359.53 264.71 359.53 266.244C359.53 266.778 359.51 267.214 359.487 267.214C359.463 267.214 359.192 267.108 358.885 266.977C358.147 266.662 358.058 266.673 357.611 267.128C357.277 267.468 357.23 267.658 357.23 268.649C357.23 269.619 357.195 269.767 356.982 269.684C356.223 269.387 355.995 269.407 355.606 269.804C355.202 270.216 355.139 270.553 355.202 271.968L355.233 272.686L354.636 272.628C353.681 272.535 353.423 272.951 353.423 274.576C353.423 275.758 353.397 275.875 353.161 275.747C352.721 275.507 352.165 275.587 351.856 275.934C351.639 276.178 351.548 276.569 351.505 277.427C351.448 278.578 351.444 278.588 351.087 278.422C350.042 277.937 349.358 278.916 349.516 280.669C349.567 281.235 349.556 281.613 349.492 281.509C349.297 281.194 348.527 280.857 348.201 280.944C347.772 281.058 347.44 281.791 347.44 282.622C347.44 283.289 347.415 283.33 346.935 283.421C346.141 283.573 344.836 284.346 344.026 285.145C341.783 287.354 341.268 290.639 342.699 293.595Z" fill="#FCDD04"/>
<path d="M348.566 279.742L356.182 292.694" stroke="#0D44AF"/>
<path d="M350.566 276.742L358.182 289.694" stroke="#0D44AF"/>
<path d="M352.566 273.742L360.182 286.694" stroke="#0D44AF"/>
<path d="M354.566 270.742L362.182 283.694" stroke="#0D44AF"/>
<path d="M356.566 268.742L364.182 281.694" stroke="#0D44AF"/>
<path d="M358.566 265.742L366.182 278.694" stroke="#0D44AF"/>
<path d="M360.566 262.742L368.182 275.694" stroke="#0D44AF"/>
<path d="M362.566 259.742L370.182 272.694" stroke="#0D44AF"/>
<path d="M366.231 258.387L374.182 271.695" stroke="#0D44AF"/>
</svg>
