<?xml version="1.0" encoding="UTF-8" standalone="no"?>
<svg
   xmlns:dc="http://purl.org/dc/elements/1.1/"
   xmlns:cc="http://web.resource.org/cc/"
   xmlns:rdf="http://www.w3.org/1999/02/22-rdf-syntax-ns#"
   xmlns:svg="http://www.w3.org/2000/svg"
   xmlns="http://www.w3.org/2000/svg"
   xmlns:sodipodi="http://sodipodi.sourceforge.net/DTD/sodipodi-0.dtd"
   xmlns:inkscape="http://www.inkscape.org/namespaces/inkscape"
   width="9.0000in"
   height="6.0000in"
   viewBox="0 0 9000 6000"
   id="svg10172"
   sodipodi:version="0.32"
   inkscape:version="0.45.1"
   sodipodi:docname="Tietjerksteradeel.svg"
   inkscape:output_extension="org.inkscape.output.svg.inkscape"
   sodipodi:docbase="C:\TIIKERI\Liput\Alankomaat\provinssit\Friesland - kunnat\svg">
  <metadata
     id="metadata10351">
    <rdf:RDF>
      <cc:Work
         rdf:about="">
        <dc:format>image/svg+xml</dc:format>
        <dc:type
           rdf:resource="http://purl.org/dc/dcmitype/StillImage" />
      </cc:Work>
    </rdf:RDF>
  </metadata>
  <defs
     id="defs10349" />
  <sodipodi:namedview
     inkscape:window-height="712"
     inkscape:window-width="1024"
     inkscape:pageshadow="2"
     inkscape:pageopacity="0.0"
     guidetolerance="10.0"
     gridtolerance="10.0"
     objecttolerance="10.0"
     borderopacity="1.0"
     bordercolor="#666666"
     pagecolor="#ffffff"
     id="base"
     inkscape:zoom="0.69814815"
     inkscape:cx="559.55046"
     inkscape:cy="270"
     inkscape:window-x="-4"
     inkscape:window-y="-4"
     inkscape:current-layer="svg10172" />
  <g
     id="g10396">
    <path
       id="path10174"
       d="M4500,0 L9000,0 4500,3000 4500,0z"
       style="fill:#cc112f;fill-opacity:1" />
    <path
       id="path10176"
       d="M0,0 L4500,3000 0,3000 0,0z"
       style="fill:#cc112f;fill-opacity:1" />
    <path
       id="path10178"
       d="M4500,3000 L4500,6000 9000,6000 4500,3000z"
       style="fill:#ffffff" />
    <path
       id="path10180"
       d="M0,0 L4500,0 4500,3000 0,0z"
       style="fill:#ffffff" />
    <path
       id="path10182"
       d="M0,3000 L0,6000 4500,3000 0,3000z"
       style="fill:#ffffff" />
    <path
       id="path10184"
       d="M9000,6000 L9000,3000 4500,3000 9000,6000z"
       style="fill:#cc112f;fill-opacity:1" />
    <path
       id="path10186"
       d="M0,6000 L4500,6000 4500,3000 0,6000z"
       style="fill:#cc112f;fill-opacity:1" />
    <path
       id="path10188"
       d="M9000,0 L9000,3000 4500,3000 9000,0z"
       style="fill:#ffffff" />
    <path
       id="path10190"
       d="M3458,1796 L3458,3186 3459,3239 3463,3292 3470,3344 3479,3396 3491,3446 3505,3495 3521,3544 3540,3591 3561,3637 3584,3682 3609,3726 3636,3768 3665,3809 3696,3848 3729,3886 3764,3922 3800,3957 3838,3990 3877,4021 3918,4050 3960,4077 4004,4102 4049,4125 4095,4146 4142,4165 4191,4181 4240,4195 4290,4207 4342,4216 4394,4223 4447,4227 4500,4228 4553,4227 4606,4223 4658,4216 4710,4207 4760,4195 4809,4181 4858,4165 4905,4146 4951,4125 4996,4102 5040,4077 5082,4050 5123,4021 5162,3990 5200,3957 5236,3922 5271,3886 5304,3848 5335,3809 5364,3768 5391,3726 5416,3682 5439,3637 5460,3591 5479,3544 5495,3495 5509,3446 5521,3396 5530,3344 5537,3292 5541,3239 5542,3186 5542,1796 3458,1796z"
       style="fill:#00a0e0;fill-opacity:1" />
    <path
       id="path10192"
       d="M3474,3186 L3474,3186 3474,1796 3442,1796 3442,3186 3442,3186 3442,3186 3443,3193 3447,3198 3452,3201 3458,3202 3464,3201 3469,3198 3473,3193 3474,3186z"
       style="fill:#000000" />
    <path
       id="path10194"
       d="M4500,4212 L4500,4212 4448,4211 4396,4207 4344,4200 4293,4191 4244,4180 4196,4166 4148,4150 4101,4131 4056,4111 4012,4088 3968,4063 3927,4037 3887,4008 3848,3978 3811,3945 3775,3911 3741,3875 3708,3838 3678,3799 3649,3759 3623,3718 3598,3674 3575,3630 3555,3585 3536,3538 3520,3490 3506,3442 3495,3393 3486,3342 3479,3290 3475,3238 3474,3186 3442,3186 3443,3240 3447,3294 3454,3346 3463,3399 3476,3450 3490,3500 3506,3550 3525,3597 3547,3644 3570,3690 3595,3734 3623,3777 3652,3819 3684,3858 3717,3897 3753,3933 3789,3969 3828,4002 3867,4034 3909,4063 3952,4091 3996,4116 4042,4139 4089,4161 4136,4180 4186,4196 4236,4210 4287,4223 4340,4232 4392,4239 4446,4243 4500,4244 4500,4244 4500,4244 4507,4243 4512,4239 4515,4234 4516,4228 4515,4222 4512,4217 4507,4213 4500,4212z"
       style="fill:#000000" />
    <path
       id="path10196"
       d="M5526,3186 L5526,3186 5525,3238 5521,3290 5514,3342 5505,3393 5494,3442 5480,3490 5464,3538 5445,3585 5425,3630 5402,3674 5377,3718 5351,3759 5322,3799 5292,3838 5259,3875 5225,3911 5189,3945 5152,3978 5113,4008 5073,4037 5032,4063 4988,4088 4944,4111 4899,4131 4852,4150 4804,4166 4756,4180 4707,4191 4656,4200 4604,4207 4552,4211 4500,4212 4500,4244 4554,4243 4608,4239 4660,4232 4713,4223 4764,4210 4814,4196 4864,4180 4911,4161 4958,4139 5004,4116 5048,4091 5091,4063 5133,4034 5172,4002 5211,3969 5247,3933 5283,3897 5316,3858 5348,3819 5377,3777 5405,3734 5430,3690 5453,3644 5475,3597 5494,3550 5510,3500 5524,3450 5537,3399 5546,3346 5553,3294 5557,3240 5558,3186 5558,3186 5558,3186 5557,3179 5553,3174 5548,3171 5542,3170 5536,3171 5531,3174 5527,3179 5526,3186z"
       style="fill:#000000" />
    <path
       id="path10198"
       d="M5542,1812 L5526,1796 5526,3186 5558,3186 5558,1796 5542,1780 5558,1796 5557,1789 5553,1784 5548,1781 5542,1780 5536,1781 5531,1784 5527,1789 5526,1796z"
       style="fill:#000000" />
    <path
       id="path10200"
       d="M3474,1796 L3458,1812 5542,1812 5542,1780 3458,1780 3442,1796 3458,1780 3451,1781 3446,1785 3443,1790 3442,1796 3443,1802 3446,1807 3451,1811 3458,1812z"
       style="fill:#000000" />
    <path
       id="path10202"
       d="M8118,1913 L8121,1924 8123,1938 8125,1955 8125,1974 8122,1993 8116,2014 8105,2034 8090,2053 8083,2060 8076,2067 8067,2074 8057,2082 8046,2089 8033,2096 8020,2103 8005,2109 7989,2115 7971,2120 7952,2124 7932,2126 7910,2128 7886,2128 7861,2126 7835,2123 7803,2122 7775,2130 7752,2145 7735,2165 7726,2188 7727,2212 7739,2236 7765,2258 7777,2266 7787,2275 7797,2285 7805,2296 7812,2307 7819,2319 7823,2332 7827,2345 7830,2358 7831,2371 7831,2385 7830,2398 7828,2412 7824,2425 7819,2438 7813,2450 7804,2461 7789,2473 7771,2485 7751,2496 7729,2506 7706,2512 7684,2515 7663,2513 7647,2508 7630,2502 7614,2494 7597,2486 7579,2478 7562,2468 7545,2458 7529,2448 7512,2437 7496,2426 7480,2415 7465,2404 7451,2392 7437,2381 7425,2371 7413,2360 7396,2348 7379,2340 7362,2336 7345,2336 7330,2339 7315,2345 7302,2353 7291,2363 7282,2375 7275,2388 7272,2402 7272,2416 7276,2430 7284,2444 7296,2456 7313,2468 7331,2479 7346,2492 7359,2507 7370,2523 7379,2540 7385,2558 7390,2576 7392,2594 7393,2612 7392,2629 7389,2646 7385,2662 7380,2677 7373,2690 7364,2701 7355,2710 7341,2720 7326,2727 7309,2732 7291,2735 7271,2735 7250,2734 7227,2732 7203,2728 7162,2718 7125,2706 7090,2692 7058,2675 7026,2657 6996,2637 6965,2615 6933,2591 6899,2566 6864,2540 6825,2513 6782,2485 6735,2457 6683,2428 6625,2398 6560,2368 6618,2340 6666,2310 6704,2278 6735,2244 6758,2208 6776,2171 6790,2132 6800,2092 6808,2052 6815,2011 6822,1970 6831,1929 6842,1887 6857,1847 6877,1807 6903,1768 6918,1749 6935,1733 6951,1719 6968,1709 6985,1701 7002,1697 7019,1694 7035,1695 7048,1697 7061,1702 7074,1708 7088,1717 7100,1728 7112,1740 7123,1754 7133,1769 7141,1785 7148,1803 7153,1821 7156,1840 7156,1859 7153,1878 7148,1898 7140,1918 7133,1937 7130,1955 7131,1970 7136,1984 7144,1996 7155,2005 7168,2012 7182,2016 7196,2018 7212,2018 7227,2014 7242,2008 7255,1998 7267,1985 7276,1969 7283,1950 7287,1935 7292,1918 7297,1901 7302,1884 7308,1866 7314,1848 7321,1830 7329,1812 7337,1794 7345,1776 7353,1759 7363,1742 7372,1726 7382,1710 7392,1696 7403,1683 7419,1669 7438,1659 7460,1651 7483,1646 7506,1643 7528,1642 7546,1644 7560,1648 7572,1655 7584,1662 7595,1671 7604,1681 7613,1691 7621,1702 7628,1714 7633,1726 7638,1739 7641,1752 7643,1766 7644,1779 7643,1793 7641,1806 7638,1820 7633,1833 7627,1850 7624,1865 7624,1879 7627,1891 7632,1902 7640,1912 7649,1920 7660,1926 7672,1930 7685,1932 7699,1933 7713,1931 7728,1927 7742,1922 7755,1913 7768,1903 7788,1885 7807,1870 7826,1857 7845,1846 7863,1836 7881,1829 7898,1822 7914,1818 7930,1814 7945,1812 7960,1811 7973,1810 7986,1811 7998,1812 8008,1813 8018,1815 8041,1823 8061,1833 8077,1847 8090,1861 8101,1876 8108,1890 8114,1903 8118,1913z"
       style="fill:#008d38;fill-opacity:1" />
    <path
       id="path10204"
       d="M956,4193 L953,4182 951,4168 949,4151 949,4132 952,4113 958,4092 969,4072 984,4053 991,4046 998,4039 1007,4032 1017,4024 1028,4017 1041,4010 1054,4003 1069,3997 1085,3991 1103,3986 1122,3982 1142,3980 1164,3978 1188,3978 1213,3980 1239,3983 1271,3984 1299,3976 1322,3961 1339,3941 1348,3918 1347,3894 1335,3870 1309,3848 1297,3840 1287,3831 1277,3821 1269,3810 1262,3799 1255,3787 1251,3774 1247,3761 1244,3748 1243,3735 1243,3721 1244,3708 1246,3694 1250,3681 1255,3668 1261,3656 1270,3645 1285,3633 1303,3621 1323,3609 1345,3600 1368,3594 1390,3591 1411,3593 1427,3598 1444,3604 1460,3612 1477,3620 1495,3628 1512,3638 1529,3648 1545,3658 1562,3669 1578,3680 1594,3691 1609,3702 1623,3714 1637,3725 1649,3735 1661,3746 1678,3758 1695,3766 1712,3770 1729,3770 1744,3767 1759,3761 1772,3753 1783,3743 1792,3731 1799,3718 1802,3704 1802,3690 1798,3676 1790,3662 1778,3650 1761,3638 1743,3627 1728,3614 1715,3599 1704,3583 1695,3566 1689,3548 1684,3530 1682,3512 1681,3494 1682,3477 1685,3460 1689,3444 1694,3429 1701,3416 1710,3405 1719,3396 1733,3386 1748,3379 1765,3374 1783,3371 1803,3371 1824,3372 1847,3374 1871,3378 1912,3388 1949,3400 1984,3414 2016,3431 2048,3449 2078,3469 2109,3491 2141,3515 2175,3540 2210,3566 2249,3593 2292,3621 2339,3649 2391,3678 2449,3708 2514,3738 2456,3766 2408,3796 2370,3828 2339,3862 2316,3898 2298,3935 2284,3974 2274,4014 2266,4054 2259,4095 2252,4136 2243,4177 2232,4219 2217,4259 2197,4299 2171,4338 2156,4357 2139,4373 2123,4387 2106,4397 2089,4405 2072,4409 2055,4412 2039,4411 2026,4409 2013,4404 2000,4398 1986,4389 1974,4378 1962,4366 1951,4352 1941,4337 1933,4321 1926,4303 1921,4285 1918,4266 1918,4247 1921,4228 1926,4208 1934,4188 1941,4169 1944,4151 1943,4136 1938,4122 1930,4110 1919,4101 1906,4094 1893,4089 1878,4088 1862,4088 1847,4092 1832,4098 1819,4108 1807,4121 1798,4137 1791,4156 1787,4171 1782,4188 1777,4205 1772,4222 1766,4240 1760,4258 1753,4276 1745,4294 1737,4312 1729,4330 1721,4347 1711,4364 1702,4380 1692,4396 1682,4410 1671,4423 1655,4437 1636,4447 1614,4455 1591,4460 1568,4463 1546,4464 1528,4462 1514,4458 1502,4451 1490,4444 1479,4435 1470,4425 1461,4415 1453,4404 1446,4392 1441,4380 1436,4367 1433,4354 1431,4340 1430,4327 1431,4313 1433,4300 1436,4286 1441,4273 1447,4256 1450,4241 1450,4227 1447,4215 1442,4204 1434,4194 1425,4186 1414,4180 1402,4176 1389,4174 1375,4173 1361,4175 1346,4179 1332,4184 1319,4193 1306,4203 1286,4221 1267,4236 1248,4249 1229,4260 1211,4270 1193,4277 1176,4284 1160,4288 1144,4292 1129,4294 1114,4295 1101,4296 1088,4295 1076,4294 1066,4293 1056,4291 1033,4283 1013,4273 997,4259 984,4245 973,4230 966,4216 960,4203 956,4193z"
       style="fill:#008d38;fill-opacity:1" />
    <path
       id="path10206"
       d="M2699,199 L2709,193 2722,187 2737,181 2755,176 2775,174 2796,174 2818,177 2841,186 2849,191 2859,196 2868,203 2878,211 2888,219 2899,229 2909,240 2919,253 2929,267 2939,283 2948,300 2956,319 2963,340 2970,363 2975,387 2979,414 2988,444 3004,469 3025,487 3049,498 3074,500 3097,492 3116,474 3129,444 3133,430 3139,417 3146,405 3154,394 3163,384 3173,375 3184,366 3195,359 3207,353 3220,348 3233,344 3246,341 3259,340 3272,340 3286,341 3299,344 3312,350 3328,360 3345,374 3361,390 3376,409 3389,429 3397,449 3401,469 3401,486 3399,504 3397,522 3394,541 3390,560 3386,579 3381,598 3376,617 3370,636 3364,655 3357,673 3351,690 3344,708 3337,724 3331,739 3324,754 3317,773 3314,792 3315,809 3320,825 3327,839 3337,852 3349,862 3362,870 3376,875 3390,878 3404,878 3418,874 3430,867 3441,855 3450,840 3456,821 3462,800 3471,781 3481,764 3494,749 3508,736 3523,725 3539,716 3556,708 3574,703 3591,699 3608,697 3624,696 3640,697 3655,700 3668,705 3679,711 3691,722 3702,734 3711,749 3718,766 3724,785 3729,806 3733,829 3736,854 3737,875 3738,896 3738,915 3737,935 3735,953 3732,972 3729,990 3726,1008 3721,1025 3717,1043 3711,1060 3706,1078 3700,1096 3693,1114 3686,1132 3680,1151 3672,1170 3665,1190 3658,1210 3650,1231 3642,1253 3635,1276 3627,1300 3620,1325 3613,1351 3605,1378 3599,1406 3592,1436 3586,1468 3580,1500 3574,1535 3569,1571 3548,1545 3526,1522 3505,1502 3484,1485 3463,1469 3442,1456 3421,1445 3401,1436 3380,1429 3359,1423 3339,1419 3318,1417 3298,1415 3278,1414 3257,1415 3237,1416 3216,1417 3196,1419 3175,1422 3154,1424 3134,1427 3113,1429 3092,1431 3071,1432 3050,1433 3029,1433 3008,1432 2986,1430 2965,1427 2943,1423 2921,1417 2899,1409 2876,1399 2855,1388 2837,1375 2822,1361 2810,1347 2800,1332 2793,1316 2789,1299 2788,1286 2789,1273 2791,1258 2796,1243 2803,1228 2812,1214 2822,1199 2834,1186 2847,1174 2862,1162 2878,1153 2896,1145 2914,1140 2934,1137 2954,1136 2976,1139 2997,1141 3014,1138 3029,1132 3041,1124 3050,1113 3056,1100 3059,1085 3060,1071 3057,1056 3052,1041 3044,1027 3034,1015 3021,1005 3005,997 2987,992 2966,991 2950,991 2933,992 2916,991 2897,991 2879,990 2859,989 2840,987 2820,985 2801,983 2781,980 2762,976 2744,972 2725,968 2708,963 2692,957 2676,951 2658,940 2642,924 2628,905 2617,884 2608,862 2602,842 2599,823 2599,809 2606,782 2618,757 2634,735 2654,717 2677,703 2702,693 2728,688 2756,689 2774,690 2789,689 2803,685 2814,678 2823,670 2831,660 2836,649 2839,636 2839,624 2838,610 2835,597 2829,584 2822,571 2812,559 2800,548 2786,539 2764,525 2744,511 2726,496 2710,481 2696,466 2684,451 2674,436 2665,422 2658,407 2651,393 2646,380 2642,367 2639,355 2637,344 2635,333 2634,324 2635,300 2639,278 2647,259 2657,242 2668,227 2680,215 2690,206 2699,199z"
       style="fill:#008d38;fill-opacity:1" />
    <path
       id="path10208"
       d="M6297,5805 L6287,5811 6274,5817 6259,5823 6241,5828 6221,5830 6200,5830 6178,5827 6155,5818 6147,5813 6137,5808 6128,5801 6118,5793 6108,5785 6097,5775 6087,5764 6077,5751 6067,5737 6057,5721 6048,5704 6040,5685 6033,5664 6026,5641 6021,5617 6017,5590 6008,5560 5992,5535 5971,5517 5947,5506 5922,5504 5899,5512 5880,5530 5867,5560 5863,5574 5857,5587 5850,5599 5842,5610 5833,5620 5823,5629 5812,5638 5801,5645 5789,5651 5776,5656 5763,5660 5750,5663 5737,5664 5724,5664 5710,5663 5697,5660 5684,5654 5668,5644 5651,5630 5635,5614 5620,5595 5607,5575 5599,5555 5595,5535 5595,5518 5597,5500 5599,5482 5602,5463 5606,5444 5610,5425 5615,5406 5620,5387 5626,5368 5632,5349 5639,5331 5645,5314 5652,5296 5659,5280 5665,5265 5672,5250 5679,5231 5682,5212 5681,5195 5676,5179 5669,5165 5659,5152 5647,5142 5634,5134 5620,5129 5606,5126 5592,5126 5578,5130 5566,5137 5555,5149 5546,5164 5540,5183 5534,5204 5525,5223 5515,5240 5502,5255 5488,5268 5473,5279 5457,5288 5440,5296 5422,5301 5405,5305 5388,5307 5372,5308 5356,5307 5341,5304 5328,5299 5317,5293 5305,5282 5294,5270 5285,5255 5278,5238 5272,5219 5267,5198 5263,5175 5260,5150 5259,5129 5258,5108 5258,5089 5259,5069 5261,5051 5264,5032 5267,5014 5270,4996 5275,4979 5279,4961 5285,4944 5290,4926 5296,4908 5303,4890 5310,4872 5317,4853 5324,4834 5331,4814 5338,4794 5346,4773 5354,4751 5361,4728 5369,4704 5376,4679 5383,4653 5391,4626 5397,4598 5404,4568 5410,4536 5416,4504 5422,4469 5427,4433 5448,4459 5470,4482 5491,4502 5512,4519 5533,4535 5554,4548 5575,4559 5595,4568 5616,4575 5637,4581 5657,4585 5678,4587 5698,4589 5718,4590 5739,4589 5759,4588 5780,4587 5800,4585 5821,4582 5842,4580 5862,4577 5883,4575 5904,4573 5925,4572 5946,4571 5967,4571 5988,4572 6010,4574 6031,4577 6053,4581 6075,4587 6097,4595 6120,4605 6141,4616 6159,4629 6174,4642 6186,4657 6196,4672 6203,4688 6207,4705 6208,4718 6207,4731 6205,4746 6200,4761 6193,4776 6184,4790 6174,4805 6162,4818 6149,4830 6134,4842 6118,4851 6100,4859 6082,4864 6062,4867 6042,4868 6020,4865 5999,4863 5982,4866 5967,4872 5955,4880 5946,4891 5940,4904 5937,4919 5937,4933 5939,4948 5944,4963 5952,4977 5962,4989 5975,4999 5991,5007 6009,5012 6030,5013 6046,5013 6063,5012 6080,5013 6099,5013 6117,5014 6137,5015 6156,5017 6176,5019 6195,5021 6215,5024 6234,5028 6252,5032 6271,5036 6288,5041 6304,5047 6320,5053 6338,5064 6354,5080 6368,5099 6379,5120 6388,5142 6394,5162 6397,5181 6397,5195 6390,5222 6378,5247 6362,5269 6342,5287 6319,5301 6294,5311 6268,5316 6240,5315 6222,5314 6207,5315 6193,5319 6182,5326 6173,5334 6165,5344 6160,5355 6158,5367 6157,5380 6158,5394 6161,5407 6167,5420 6174,5433 6184,5445 6196,5456 6210,5465 6232,5479 6252,5493 6270,5508 6286,5523 6300,5538 6312,5553 6322,5568 6331,5582 6338,5597 6345,5611 6350,5624 6354,5637 6357,5649 6359,5660 6361,5671 6362,5680 6361,5704 6357,5726 6349,5745 6339,5762 6328,5777 6316,5789 6306,5798 6297,5805z"
       style="fill:#008d38;fill-opacity:1" />
    <path
       id="path10210"
       d="M4972,2354 L4983,2331 4991,2311 4996,2293 4998,2276 4997,2262 4995,2250 4990,2239 4983,2230 4974,2222 4964,2216 4952,2210 4938,2206 4924,2203 4908,2200 4891,2198 4874,2196 4852,2194 4830,2193 4808,2191 4786,2190 4764,2189 4742,2188 4720,2187 4698,2186 4676,2185 4654,2184 4632,2184 4610,2183 4588,2183 4566,2183 4544,2182 4522,2182 4500,2182 4478,2182 4457,2183 4435,2183 4413,2183 4391,2184 4369,2184 4347,2185 4325,2186 4303,2187 4282,2188 4260,2189 4238,2190 4216,2191 4194,2193 4172,2194 4149,2197 4129,2204 4113,2213 4100,2226 4092,2241 4088,2259 4090,2278 4096,2300 4110,2331 4127,2363 4147,2396 4169,2430 4195,2465 4223,2502 4253,2539 4286,2578 4321,2618 4359,2660 4398,2702 4439,2746 4483,2792 4527,2838 4574,2886 4622,2936 4646,2901 4669,2866 4693,2830 4716,2795 4739,2760 4761,2724 4783,2688 4805,2652 4827,2616 4848,2580 4870,2543 4891,2506 4911,2469 4932,2431 4952,2393 4972,2354z M4742,3046 L4756,3025 4770,3004 4783,2983 4797,2962 4810,2942 4824,2921 4837,2900 4851,2879 4864,2858 4877,2837 4890,2816 4903,2794 4916,2773 4929,2752 4941,2731 4954,2710 4966,2689 4979,2668 4991,2647 5003,2626 5015,2605 5027,2584 5039,2563 5051,2542 5062,2521 5074,2501 5085,2480 5096,2459 5107,2438 5118,2417 5129,2397 5140,2376 5154,2344 5163,2313 5166,2282 5165,2253 5159,2224 5150,2197 5136,2172 5120,2148 5100,2126 5078,2106 5054,2089 5028,2073 5000,2061 4971,2051 4942,2044 4912,2040 4889,2038 4866,2036 4844,2035 4821,2033 4798,2032 4775,2031 4753,2030 4730,2029 4707,2028 4685,2027 4662,2026 4640,2025 4617,2025 4595,2024 4572,2024 4550,2023 4527,2023 4505,2023 4482,2023 4460,2023 4437,2023 4415,2023 4392,2023 4370,2024 4347,2024 4325,2024 4302,2025 4280,2025 4257,2026 4235,2027 4212,2027 4190,2028 4166,2029 4143,2031 4120,2033 4099,2036 4079,2040 4060,2044 4042,2049 4026,2054 4010,2061 3995,2068 3981,2076 3969,2084 3958,2094 3947,2104 3938,2114 3930,2126 3923,2139 3917,2153 3912,2166 3908,2181 3906,2196 3904,2211 3904,2227 3905,2243 3907,2259 3910,2276 3914,2294 3920,2311 3927,2329 3935,2347 3945,2365 3956,2384 3968,2404 3981,2424 3994,2444 4007,2464 4020,2484 4034,2505 4049,2525 4063,2546 4078,2566 4094,2587 4110,2608 4126,2629 4142,2650 4159,2671 4176,2692 4194,2713 4212,2734 4230,2756 4249,2777 4268,2799 4287,2821 4307,2842 4327,2864 4348,2886 4369,2908 4390,2931 4412,2953 4434,2975 4456,2998 4479,3020 4502,3043 4526,3066 4510,3090 4495,3115 4478,3139 4462,3164 4445,3189 4427,3213 4410,3238 4392,3263 4374,3288 4355,3314 4336,3339 4317,3364 4298,3390 4278,3416 4258,3442 4238,3468 4364,3566 4644,3184 4994,3498 5098,3378 5075,3358 5052,3337 5030,3317 5007,3297 4984,3276 4962,3256 4939,3235 4917,3214 4895,3193 4873,3173 4851,3152 4829,3131 4807,3110 4785,3089 4763,3067 4742,3046z "
       style="fill:#f5dc0f;fill-rule:evenodd" />
    <path
       id="path10212"
       d="M4873,2212 L4873,2212 4889,2214 4905,2216 4921,2219 4934,2221 4946,2225 4956,2230 4965,2235 4971,2241 4976,2247 4980,2255 4981,2264 4982,2275 4980,2290 4976,2305 4968,2324 4958,2347 4986,2361 4998,2338 5006,2317 5012,2296 5014,2277 5013,2260 5010,2245 5004,2231 4995,2219 4983,2209 4972,2202 4958,2195 4942,2191 4927,2187 4911,2184 4893,2182 4875,2180 4875,2180 4875,2180 4868,2181 4863,2184 4860,2189 4858,2195 4859,2201 4862,2206 4866,2210 4873,2212z"
       style="fill:#000000" />
    <path
       id="path10214"
       d="M4173,2210 L4173,2210 4195,2209 4217,2207 4239,2206 4261,2205 4283,2204 4304,2203 4326,2202 4348,2201 4370,2200 4392,2200 4414,2199 4435,2199 4458,2199 4479,2198 4500,2198 4522,2198 4543,2198 4565,2199 4588,2199 4609,2199 4631,2200 4653,2200 4675,2201 4697,2202 4719,2203 4741,2204 4763,2205 4785,2206 4807,2207 4829,2209 4851,2210 4873,2212 4875,2180 4853,2178 4831,2177 4809,2175 4787,2174 4765,2173 4743,2172 4721,2171 4699,2170 4677,2169 4655,2168 4633,2168 4611,2167 4588,2167 4567,2167 4545,2166 4522,2166 4500,2166 4477,2166 4456,2167 4435,2167 4412,2167 4390,2168 4368,2168 4346,2169 4324,2170 4302,2171 4281,2172 4259,2173 4237,2174 4215,2175 4193,2177 4171,2178 4171,2178 4171,2178 4164,2180 4160,2184 4157,2189 4156,2195 4158,2201 4161,2206 4166,2209 4173,2210z"
       style="fill:#000000" />
    <path
       id="path10216"
       d="M4111,2294 L4111,2294 4106,2275 4104,2260 4107,2246 4113,2236 4122,2226 4136,2219 4153,2213 4173,2210 4171,2178 4145,2181 4122,2189 4104,2200 4087,2216 4077,2236 4072,2258 4074,2281 4081,2306 4081,2306 4081,2306 4085,2312 4090,2315 4096,2316 4102,2315 4107,2312 4111,2307 4112,2301 4111,2294z"
       style="fill:#000000" />
    <path
       id="path10218"
       d="M4609,2927 L4634,2925 4585,2875 4538,2827 4495,2781 4451,2735 4410,2691 4371,2649 4333,2607 4298,2568 4265,2529 4236,2492 4208,2455 4182,2421 4161,2388 4141,2355 4124,2324 4111,2294 4081,2306 4096,2338 4113,2371 4133,2404 4156,2439 4182,2475 4210,2512 4241,2549 4274,2588 4309,2629 4347,2671 4386,2713 4427,2757 4471,2803 4516,2849 4563,2897 4610,2947 4635,2945 4611,2947 4617,2951 4622,2951 4628,2950 4633,2946 4636,2942 4637,2936 4637,2931 4633,2925z"
       style="fill:#000000" />
    <path
       id="path10220"
       d="M4958,2347 L4958,2347 4938,2386 4918,2423 4897,2461 4877,2498 4856,2535 4834,2572 4813,2608 4791,2644 4769,2680 4747,2716 4726,2751 4703,2786 4680,2821 4656,2857 4633,2892 4609,2927 4635,2945 4659,2910 4682,2875 4706,2839 4729,2804 4752,2769 4775,2732 4797,2696 4819,2660 4841,2624 4862,2588 4884,2551 4905,2514 4925,2477 4946,2439 4966,2400 4986,2361 4986,2361 4986,2361 4988,2354 4987,2349 4983,2344 4979,2340 4973,2339 4967,2339 4962,2342 4958,2347z"
       style="fill:#000000" />
    <path
       id="path10222"
       d="M5126,2369 L5126,2369 5115,2390 5104,2410 5093,2431 5082,2452 5071,2473 5060,2493 5048,2513 5037,2534 5025,2555 5013,2576 5001,2597 4989,2618 4977,2639 4965,2660 4952,2681 4940,2702 4927,2723 4915,2744 4902,2765 4889,2786 4876,2808 4863,2829 4850,2850 4838,2870 4824,2891 4811,2912 4797,2933 4784,2953 4770,2974 4757,2995 4743,3016 4729,3037 4755,3055 4769,3034 4783,3013 4796,2992 4810,2971 4823,2951 4837,2930 4850,2909 4864,2888 4878,2866 4891,2845 4904,2824 4917,2802 4930,2781 4943,2760 4955,2739 4968,2718 4980,2697 4993,2676 5005,2655 5017,2634 5029,2613 5041,2592 5053,2571 5065,2550 5076,2529 5088,2509 5099,2487 5110,2466 5121,2445 5132,2424 5143,2404 5154,2383 5154,2383 5154,2383 5156,2376 5155,2371 5151,2366 5147,2362 5141,2361 5135,2361 5130,2364 5126,2369z"
       style="fill:#000000" />
    <path
       id="path10224"
       d="M4911,2056 L4911,2056 4939,2060 4966,2066 4994,2076 5021,2087 5045,2102 5068,2118 5089,2137 5107,2158 5122,2180 5135,2204 5144,2228 5149,2255 5150,2281 5147,2310 5139,2338 5126,2369 5154,2383 5169,2350 5179,2316 5182,2283 5181,2251 5174,2220 5165,2190 5150,2164 5133,2138 5111,2115 5088,2094 5063,2076 5035,2059 5006,2046 4976,2036 4945,2028 4913,2024 4913,2024 4913,2024 4906,2025 4901,2028 4898,2033 4896,2039 4897,2045 4900,2050 4904,2054 4911,2056z"
       style="fill:#000000" />
    <path
       id="path10226"
       d="M4190,2044 L4191,2044 4213,2043 4236,2043 4258,2042 4281,2041 4303,2041 4326,2040 4347,2040 4371,2040 4393,2039 4415,2039 4437,2039 4460,2039 4482,2039 4505,2039 4527,2039 4549,2039 4571,2040 4594,2040 4616,2041 4639,2041 4661,2042 4684,2043 4706,2044 4729,2045 4752,2046 4774,2047 4797,2048 4820,2049 4843,2051 4865,2052 4888,2054 4911,2056 4913,2024 4890,2022 4867,2020 4845,2019 4822,2017 4799,2016 4776,2015 4754,2014 4731,2013 4708,2012 4686,2011 4663,2010 4641,2009 4618,2009 4596,2008 4573,2008 4551,2007 4527,2007 4505,2007 4482,2007 4460,2007 4437,2007 4415,2007 4391,2007 4369,2008 4347,2008 4324,2008 4301,2009 4279,2009 4256,2010 4234,2011 4211,2011 4189,2012 4190,2012 4189,2012 4182,2014 4178,2018 4175,2023 4174,2029 4176,2035 4179,2040 4184,2043 4191,2044z"
       style="fill:#000000" />
    <path
       id="path10228"
       d="M3944,2134 L3944,2134 3950,2124 3958,2115 3969,2106 3979,2097 3989,2090 4003,2082 4016,2076 4032,2069 4047,2064 4064,2059 4082,2056 4102,2052 4122,2049 4144,2047 4167,2045 4190,2044 4190,2012 4165,2013 4142,2015 4118,2017 4096,2020 4076,2024 4056,2029 4037,2034 4020,2039 4004,2046 3987,2054 3973,2062 3959,2071 3947,2082 3936,2093 3926,2104 3916,2118 3916,2118 3916,2118 3914,2125 3915,2131 3918,2136 3923,2139 3928,2142 3934,2142 3940,2139 3944,2134z"
       style="fill:#000000" />
    <path
       id="path10230"
       d="M3970,2376 L3970,2376 3959,2357 3949,2340 3942,2322 3935,2305 3929,2290 3926,2273 3923,2256 3921,2241 3920,2226 3920,2212 3922,2198 3924,2184 3927,2171 3932,2159 3937,2146 3944,2134 3916,2118 3909,2132 3902,2147 3897,2161 3892,2178 3890,2194 3888,2210 3888,2228 3889,2245 3891,2262 3894,2279 3899,2298 3905,2317 3912,2336 3921,2354 3931,2373 3942,2392 3942,2392 3942,2392 3946,2397 3952,2400 3958,2400 3964,2397 3968,2394 3971,2389 3972,2383 3970,2376z"
       style="fill:#000000" />
    <path
       id="path10232"
       d="M4540,3075 L4537,3054 4513,3031 4490,3009 4467,2987 4446,2964 4423,2942 4402,2920 4381,2897 4360,2875 4339,2853 4319,2831 4299,2810 4280,2789 4261,2767 4242,2746 4224,2724 4206,2703 4188,2682 4171,2661 4154,2640 4139,2619 4123,2598 4107,2577 4091,2556 4076,2537 4062,2516 4047,2496 4033,2475 4020,2455 4007,2435 3994,2415 3981,2395 3970,2376 3942,2392 3955,2413 3968,2433 3981,2453 3994,2473 4007,2493 4021,2514 4036,2534 4050,2555 4065,2576 4081,2597 4097,2618 4113,2639 4130,2660 4147,2681 4164,2702 4182,2723 4200,2744 4218,2766 4237,2787 4256,2809 4275,2832 4295,2853 4315,2875 4336,2897 4357,2919 4378,2942 4401,2964 4422,2986 4445,3009 4468,3031 4491,3055 4515,3078 4512,3057 4515,3078 4521,3082 4527,3082 4533,3080 4538,3076 4541,3071 4543,3066 4541,3060 4537,3054z"
       style="fill:#000000" />
    <path
       id="path10234"
       d="M4248,3455 L4251,3478 4271,3452 4291,3426 4311,3400 4330,3373 4349,3349 4368,3323 4387,3297 4405,3272 4423,3247 4440,3222 4458,3198 4475,3173 4491,3148 4508,3124 4523,3099 4540,3075 4512,3057 4497,3081 4482,3106 4465,3130 4449,3155 4432,3180 4414,3204 4397,3229 4379,3254 4361,3279 4342,3305 4323,3329 4304,3355 4285,3380 4265,3406 4245,3432 4225,3458 4228,3481 4225,3458 4222,3464 4222,3471 4224,3476 4228,3481 4234,3484 4240,3484 4246,3483 4251,3478z"
       style="fill:#000000" />
    <path
       id="path10236"
       d="M4351,3557 L4374,3553 4248,3455 4228,3481 4354,3579 4377,3575 4354,3579 4360,3582 4367,3582 4372,3580 4377,3576 4380,3570 4380,3564 4379,3558 4374,3553z"
       style="fill:#000000" />
    <path
       id="path10238"
       d="M4655,3172 L4631,3175 4351,3557 4377,3575 4657,3193 4633,3196 4657,3193 4660,3187 4660,3181 4657,3175 4653,3171 4648,3169 4642,3168 4636,3170 4631,3175z"
       style="fill:#000000" />
    <path
       id="path10240"
       d="M4982,3487 L5005,3486 4655,3172 4633,3196 4983,3510 5006,3509 4983,3510 4989,3514 4995,3514 5001,3512 5006,3508 5009,3503 5011,3498 5009,3492 5005,3486z"
       style="fill:#000000" />
    <path
       id="path10242"
       d="M5087,3390 L5086,3367 4982,3487 5006,3509 5110,3389 5109,3366 5110,3388 5113,3382 5114,3376 5112,3370 5108,3366 5103,3363 5097,3362 5091,3364 5086,3368z"
       style="fill:#000000" />
    <path
       id="path10244"
       d="M4729,3037 L4731,3057 4752,3078 4774,3100 4796,3122 4818,3143 4840,3164 4862,3185 4884,3205 4906,3226 4928,3247 4951,3268 4973,3288 4996,3309 5020,3329 5041,3349 5064,3370 5087,3390 5109,3366 5086,3346 5063,3325 5040,3305 5018,3285 4995,3264 4973,3244 4950,3223 4928,3202 4906,3181 4884,3161 4862,3140 4840,3119 4818,3098 4796,3078 4774,3056 4753,3035 4755,3055 4753,3035 4747,3031 4742,3031 4736,3032 4732,3035 4728,3040 4727,3046 4727,3051 4731,3057z"
       style="fill:#000000" />
    <path
       id="path10246"
       d="M5338,3124 L5337,3172 5333,3219 5328,3265 5320,3310 5310,3353 5298,3395 5285,3435 5269,3474 5252,3512 5233,3548 5212,3583 5189,3617 5165,3649 5140,3679 5113,3708 5085,3736 5056,3762 5025,3786 4993,3809 4960,3830 4927,3850 4892,3868 4856,3885 4820,3899 4783,3913 4745,3924 4707,3934 4668,3942 4628,3948 4589,3952 4548,3955 4508,3956 4467,3955 4427,3952 4388,3948 4348,3941 4310,3933 4272,3924 4234,3912 4197,3899 4161,3884 4126,3868 4092,3850 4059,3831 4027,3810 3996,3788 3966,3765 3937,3740 3910,3714 3884,3686 3859,3657 3836,3627 3814,3596 3794,3564 3775,3531 3758,3496 3743,3461 3730,3424 3719,3387 3709,3348 3702,3309 3696,3269 3693,3228 3692,3186 4128,3186 4131,3237 4138,3285 4151,3330 4168,3373 4190,3413 4215,3450 4244,3484 4276,3515 4312,3543 4350,3568 4390,3589 4433,3606 4477,3620 4523,3630 4570,3636 4618,3638 4679,3635 4737,3627 4790,3614 4839,3595 4884,3573 4925,3546 4963,3515 4996,3481 5025,3444 5050,3404 5072,3362 5089,3317 5103,3271 5112,3223 5118,3174 5120,3124 5338,3124z"
       style="fill:#f5dc0f" />
    <path
       id="path10248"
       d="M4508,3972 L4508,3972 4549,3971 4591,3968 4630,3964 4671,3958 4711,3950 4749,3939 4788,3928 4826,3914 4863,3900 4899,3882 4935,3864 4969,3843 5002,3822 5035,3799 5066,3774 5096,3748 5125,3719 5152,3689 5177,3659 5202,3626 5226,3592 5247,3556 5266,3519 5284,3480 5300,3441 5313,3400 5326,3357 5336,3313 5344,3267 5349,3221 5353,3173 5354,3124 5322,3124 5321,3171 5317,3217 5312,3263 5304,3307 5294,3349 5283,3390 5270,3429 5254,3468 5238,3505 5219,3540 5198,3574 5176,3608 5153,3639 5128,3669 5101,3697 5074,3724 5046,3750 5015,3773 4984,3796 4951,3817 4919,3836 4885,3854 4849,3870 4814,3884 4778,3898 4741,3909 4703,3918 4665,3926 4626,3932 4587,3936 4547,3939 4508,3940 4508,3940z"
       style="fill:#000000" />
    <path
       id="path10250"
       d="M3692,3170 L3676,3186 3677,3229 3680,3271 3686,3312 3693,3352 3704,3391 3715,3429 3728,3467 3743,3503 3761,3538 3780,3572 3801,3605 3823,3637 3847,3667 3872,3697 3899,3725 3926,3752 3956,3777 3986,3801 4018,3823 4051,3845 4084,3864 4119,3882 4154,3899 4191,3914 4229,3927 4268,3939 4306,3949 4345,3957 4386,3964 4425,3968 4466,3971 4508,3972 4508,3940 4468,3939 4429,3936 4390,3932 4351,3925 4314,3917 4276,3909 4239,3897 4203,3884 4168,3869 4133,3854 4100,3836 4067,3817 4036,3797 4006,3775 3976,3753 3948,3728 3921,3703 3896,3675 3871,3647 3849,3617 3827,3587 3808,3556 3789,3524 3773,3489 3758,3455 3745,3419 3734,3383 3725,3344 3718,3306 3712,3267 3709,3227 3708,3186 3692,3202 3708,3186 3707,3179 3703,3174 3698,3171 3692,3170 3686,3171 3681,3174 3677,3179 3676,3186z"
       style="fill:#000000" />
    <path
       id="path10252"
       d="M4144,3186 L4128,3170 3692,3170 3692,3202 4128,3202 4112,3186 4128,3202 4135,3201 4140,3197 4143,3192 4144,3186 4143,3180 4140,3175 4135,3171 4128,3170z"
       style="fill:#000000" />
    <path
       id="path10254"
       d="M4618,3622 L4618,3622 4571,3620 4526,3614 4481,3605 4438,3591 4397,3574 4358,3554 4321,3530 4287,3503 4256,3473 4228,3440 4204,3405 4182,3366 4166,3325 4154,3282 4147,3235 4144,3186 4112,3186 4115,3239 4122,3288 4136,3335 4154,3380 4176,3421 4202,3460 4232,3495 4265,3527 4303,3556 4342,3582 4383,3604 4428,3621 4473,3635 4520,3646 4569,3652 4618,3654 4618,3654 4618,3654 4625,3653 4630,3649 4633,3644 4634,3638 4633,3632 4630,3627 4625,3623 4618,3622z"
       style="fill:#000000" />
    <path
       id="path10256"
       d="M5120,3108 L5104,3124 5102,3173 5096,3220 5087,3267 5074,3312 5057,3355 5036,3396 5012,3435 4984,3471 4952,3503 4916,3533 4876,3559 4832,3580 4785,3599 4734,3611 4677,3619 4618,3622 4618,3654 4681,3651 4740,3643 4795,3629 4846,3610 4892,3587 4934,3559 4974,3527 5008,3491 5038,3453 5064,3412 5087,3369 5104,3322 5119,3275 5128,3226 5134,3175 5136,3124 5120,3140 5136,3124 5135,3117 5131,3112 5126,3109 5120,3108 5114,3109 5109,3112 5105,3117 5104,3124z"
       style="fill:#000000" />
    <path
       id="path10258"
       d="M5354,3124 L5338,3108 5120,3108 5120,3140 5338,3140 5322,3124 5338,3140 5345,3139 5350,3135 5353,3130 5354,3124 5353,3118 5350,3113 5345,3109 5338,3108z"
       style="fill:#000000" />
    <path
       id="path10260"
       d="M3888,3690 L3908,3672 3929,3655 3948,3637 3968,3619 3987,3602 4006,3584 4025,3566 4044,3548 4062,3530 4080,3512 4098,3494 4115,3476 4133,3458 4150,3439 4167,3421 4184,3402 4191,3395 4199,3390 4207,3387 4215,3386 4222,3387 4230,3390 4236,3395 4242,3402 4251,3413 4260,3424 4269,3436 4279,3447 4290,3459 4302,3470 4314,3481 4327,3492 4340,3503 4355,3514 4370,3524 4386,3534 4402,3544 4420,3552 4439,3561 4458,3568 4464,3571 4468,3575 4471,3581 4473,3589 4474,3597 4473,3605 4472,3613 4470,3620 4461,3639 4452,3659 4443,3678 4434,3698 4424,3717 4414,3737 4404,3756 4394,3776 4383,3795 4373,3815 4362,3834 4350,3853 4339,3872 4328,3892 4316,3911 4304,3930 4296,3942 4287,3952 4279,3960 4271,3965 4262,3969 4253,3970 4244,3970 4234,3968 4206,3959 4178,3949 4151,3938 4125,3927 4100,3916 4075,3903 4051,3891 4029,3877 4006,3863 3985,3849 3965,3834 3946,3819 3928,3803 3911,3786 3895,3769 3880,3752 3877,3746 3874,3739 3872,3732 3872,3723 3873,3715 3876,3706 3881,3698 3888,3690z"
       style="fill:#f5dc0f" />
    <path
       id="path10262"
       d="M4172,3392 L4172,3391 4155,3410 4138,3428 4121,3447 4104,3465 4087,3483 4069,3501 4051,3519 4033,3536 4014,3554 3995,3572 3976,3590 3957,3607 3937,3625 3918,3643 3898,3660 3878,3678 3898,3702 3918,3684 3940,3667 3959,3649 3979,3631 3998,3614 4017,3596 4036,3578 4055,3560 4073,3541 4091,3523 4109,3505 4126,3487 4145,3469 4162,3450 4179,3432 4196,3413 4196,3412 4196,3413 4200,3407 4200,3401 4198,3395 4195,3390 4189,3387 4184,3385 4178,3387 4172,3391z"
       style="fill:#000000" />
    <path
       id="path10264"
       d="M4255,3392 L4255,3393 4247,3384 4238,3376 4226,3371 4215,3370 4203,3371 4192,3376 4181,3382 4172,3392 4196,3412 4201,3408 4206,3404 4211,3403 4215,3402 4218,3403 4222,3404 4225,3406 4229,3411 4229,3412 4229,3411 4234,3416 4240,3418 4246,3417 4251,3415 4255,3411 4258,3405 4258,3399 4255,3393z"
       style="fill:#000000" />
    <path
       id="path10266"
       d="M4461,3552 L4463,3553 4445,3546 4427,3538 4409,3530 4394,3520 4378,3510 4364,3501 4350,3490 4337,3480 4324,3469 4313,3458 4301,3448 4291,3436 4281,3426 4273,3414 4263,3403 4255,3392 4229,3412 4239,3423 4247,3434 4257,3446 4267,3458 4279,3470 4291,3482 4304,3493 4317,3504 4330,3516 4346,3527 4362,3538 4378,3548 4395,3558 4413,3566 4433,3576 4453,3583 4455,3584 4453,3583 4460,3584 4466,3582 4470,3578 4473,3572 4474,3567 4473,3561 4469,3556 4463,3553z"
       style="fill:#000000" />
    <path
       id="path10268"
       d="M4485,3626 L4485,3625 4488,3617 4489,3607 4490,3597 4489,3585 4486,3575 4481,3565 4474,3558 4461,3552 4455,3584 4454,3584 4455,3585 4456,3587 4457,3593 4458,3597 4457,3603 4456,3609 4455,3615 4455,3614 4455,3615 4454,3622 4456,3628 4460,3632 4466,3635 4471,3636 4477,3635 4482,3631 4485,3625z"
       style="fill:#000000" />
    <path
       id="path10270"
       d="M4318,3938 L4318,3938 4330,3920 4342,3900 4353,3880 4364,3862 4376,3843 4387,3823 4397,3803 4408,3784 4418,3763 4428,3744 4438,3724 4448,3705 4458,3685 4467,3666 4476,3646 4485,3626 4455,3614 4446,3632 4437,3652 4428,3671 4420,3691 4410,3710 4400,3730 4390,3749 4380,3768 4369,3787 4359,3807 4348,3825 4336,3844 4325,3864 4314,3884 4302,3902 4290,3922 4290,3922 4290,3921 4287,3928 4288,3934 4290,3939 4295,3943 4301,3946 4307,3946 4313,3944 4318,3939z"
       style="fill:#000000" />
    <path
       id="path10272"
       d="M4229,3983 L4229,3983 4242,3986 4255,3986 4267,3984 4279,3979 4290,3972 4298,3963 4308,3952 4318,3938 4290,3922 4284,3932 4276,3941 4268,3948 4263,3951 4257,3954 4251,3954 4246,3954 4239,3953 4239,3953 4239,3953 4232,3952 4226,3954 4222,3958 4219,3963 4218,3969 4219,3975 4223,3980 4229,3983z"
       style="fill:#000000" />
    <path
       id="path10274"
       d="M3867,3761 L3868,3762 3883,3780 3900,3797 3917,3815 3936,3831 3955,3847 3976,3862 3997,3877 4021,3891 4043,3905 4068,3917 4093,3930 4119,3942 4145,3953 4172,3964 4201,3974 4229,3983 4239,3953 4211,3944 4184,3934 4157,3923 4131,3912 4107,3902 4082,3889 4059,3877 4037,3863 4015,3849 3994,3836 3975,3821 3956,3807 3939,3791 3922,3775 3907,3758 3892,3742 3893,3743 3892,3742 3887,3738 3881,3736 3875,3737 3870,3740 3866,3744 3864,3750 3865,3756 3868,3762z"
       style="fill:#000000" />
    <path
       id="path10276"
       d="M3878,3678 L3877,3678 3868,3688 3861,3700 3857,3712 3856,3721 3856,3734 3859,3745 3862,3752 3867,3761 3893,3743 3892,3740 3889,3733 3888,3730 3888,3725 3889,3718 3891,3712 3894,3708 3899,3702 3898,3702 3899,3702 3903,3696 3905,3690 3903,3685 3900,3679 3895,3676 3889,3674 3883,3674 3877,3678z"
       style="fill:#000000" />
    <path
       id="path10278"
       d="M4948,3528 L4943,3523 4939,3516 4936,3509 4935,3502 4934,3495 4935,3488 4936,3483 4938,3480 4945,3473 4953,3465 4960,3457 4967,3448 4975,3440 4982,3430 4990,3421 4998,3410 5005,3400 5012,3389 5020,3378 5027,3366 5034,3354 5041,3341 5048,3328 5054,3314 5057,3310 5061,3307 5065,3306 5071,3306 5076,3307 5081,3309 5086,3310 5090,3312 5103,3317 5115,3323 5128,3329 5141,3335 5154,3342 5166,3348 5179,3356 5192,3363 5204,3371 5217,3378 5230,3386 5242,3394 5255,3402 5267,3410 5280,3418 5292,3426 5300,3433 5307,3440 5311,3448 5313,3455 5314,3463 5314,3470 5313,3477 5312,3482 5307,3497 5301,3511 5295,3526 5289,3540 5282,3554 5275,3567 5267,3580 5259,3593 5251,3606 5242,3618 5234,3631 5225,3643 5216,3654 5207,3666 5197,3677 5188,3688 5181,3694 5173,3699 5165,3702 5156,3703 5147,3702 5139,3700 5133,3697 5128,3692 5119,3682 5110,3671 5100,3661 5090,3650 5080,3640 5069,3630 5058,3619 5046,3609 5035,3599 5023,3589 5011,3579 4998,3569 4986,3558 4973,3548 4961,3538 4948,3528z"
       style="fill:#f5dc0f" />
    <path
       id="path10280"
       d="M4927,3469 L4927,3469 4922,3476 4919,3485 4918,3495 4919,3504 4921,3513 4925,3524 4931,3533 4938,3541 4958,3515 4955,3513 4953,3508 4951,3505 4951,3500 4950,3495 4951,3491 4950,3490 4949,3491 4949,3491 4949,3491 4953,3485 4953,3480 4952,3474 4949,3469 4944,3466 4938,3465 4933,3465 4927,3469z"
       style="fill:#000000" />
    <path
       id="path10282"
       d="M5039,3308 L5039,3307 5034,3321 5027,3333 5020,3346 5013,3358 5007,3369 4999,3380 4992,3391 4985,3401 4978,3411 4970,3420 4963,3429 4955,3437 4947,3447 4942,3454 4934,3462 4927,3469 4949,3491 4956,3484 4964,3476 4973,3467 4979,3459 4987,3451 4994,3440 5002,3431 5011,3419 5018,3409 5025,3398 5033,3387 5041,3374 5048,3362 5055,3349 5062,3335 5069,3321 5069,3320 5069,3321 5071,3314 5069,3308 5066,3303 5061,3299 5055,3297 5049,3298 5043,3301 5039,3307z"
       style="fill:#000000" />
    <path
       id="path10284"
       d="M5096,3297 L5096,3297 5092,3295 5087,3294 5082,3292 5074,3290 5062,3290 5054,3293 5046,3299 5039,3308 5069,3320 5068,3321 5068,3321 5068,3322 5068,3322 5070,3322 5075,3324 5080,3325 5084,3327 5084,3327 5084,3327 5091,3328 5097,3327 5102,3323 5105,3318 5106,3312 5105,3306 5102,3301 5096,3297z"
       style="fill:#000000" />
    <path
       id="path10286"
       d="M5300,3412 L5301,3412 5288,3404 5275,3396 5263,3388 5250,3380 5238,3372 5225,3364 5212,3357 5200,3349 5187,3342 5174,3334 5162,3328 5149,3321 5135,3314 5122,3308 5110,3302 5096,3297 5084,3327 5096,3332 5108,3338 5121,3344 5133,3349 5146,3356 5158,3362 5171,3370 5184,3377 5196,3385 5209,3392 5222,3400 5234,3408 5247,3416 5259,3424 5272,3432 5283,3440 5284,3440 5283,3439 5289,3442 5295,3442 5301,3439 5305,3435 5307,3430 5308,3424 5306,3418 5301,3413z"
       style="fill:#000000" />
    <path
       id="path10288"
       d="M5327,3487 L5327,3487 5329,3480 5330,3472 5330,3461 5329,3451 5326,3442 5320,3430 5311,3421 5300,3412 5284,3440 5289,3445 5294,3450 5296,3454 5297,3459 5298,3465 5298,3468 5297,3474 5297,3477 5297,3477 5297,3477 5296,3484 5298,3490 5302,3494 5308,3497 5313,3498 5319,3497 5324,3493 5327,3487z"
       style="fill:#000000" />
    <path
       id="path10290"
       d="M5200,3698 L5200,3698 5209,3688 5219,3676 5229,3664 5238,3653 5247,3640 5255,3627 5264,3615 5273,3601 5281,3588 5289,3575 5296,3561 5303,3547 5310,3532 5316,3517 5322,3503 5327,3487 5297,3477 5292,3491 5286,3505 5280,3520 5275,3533 5268,3547 5261,3559 5253,3572 5245,3585 5238,3597 5229,3609 5221,3622 5212,3633 5203,3644 5195,3656 5185,3666 5176,3678 5176,3678 5176,3678 5173,3684 5172,3690 5174,3696 5178,3700 5183,3703 5189,3704 5195,3702 5200,3698z"
       style="fill:#000000" />
    <path
       id="path10292"
       d="M5116,3702 L5115,3701 5124,3710 5133,3715 5144,3718 5156,3719 5168,3718 5180,3713 5191,3707 5200,3698 5176,3678 5171,3681 5166,3685 5162,3686 5156,3687 5150,3686 5145,3685 5142,3684 5141,3683 5140,3682 5141,3683 5136,3678 5130,3676 5124,3677 5119,3679 5115,3683 5112,3689 5112,3695 5115,3701z"
       style="fill:#000000" />
    <path
       id="path10294"
       d="M4938,3541 L4938,3541 4951,3551 4963,3561 4976,3570 4988,3581 5001,3592 5013,3601 5025,3611 5036,3621 5047,3631 5058,3641 5069,3652 5078,3661 5088,3672 5098,3682 5107,3692 5116,3702 5140,3682 5131,3672 5122,3660 5112,3650 5102,3639 5091,3628 5080,3619 5069,3607 5056,3597 5045,3587 5033,3577 5021,3566 5008,3557 4996,3546 4983,3535 4971,3525 4958,3515 4958,3515 4958,3515 4952,3512 4945,3512 4940,3514 4935,3518 4932,3524 4932,3530 4933,3536 4938,3541z"
       style="fill:#000000" />
    <path
       id="path10296"
       d="M3662,2842 L3693,2843 3723,2845 3754,2846 3785,2846 3815,2847 3846,2848 3877,2848 3908,2848 3938,2848 3969,2848 4000,2847 4031,2846 4062,2846 4093,2845 4125,2843 4156,2842 4165,2843 4174,2846 4182,2850 4189,2855 4194,2863 4198,2871 4201,2880 4202,2890 4202,3168 4201,3178 4198,3187 4194,3195 4189,3202 4182,3208 4174,3212 4165,3215 4156,3216 4125,3218 4094,3220 4064,3222 4033,3223 4002,3224 3971,3225 3940,3226 3909,3226 3878,3226 3847,3225 3816,3225 3785,3224 3754,3222 3724,3221 3693,3218 3662,3216 3653,3215 3644,3212 3636,3208 3629,3202 3624,3195 3620,3187 3617,3178 3616,3168 3616,2890 3617,2880 3620,2871 3624,2863 3629,2855 3636,2850 3644,2846 3653,2843 3662,2842z"
       style="fill:#f5dc0f" />
    <path
       id="path10298"
       d="M4156,2826 L4155,2826 4124,2827 4092,2829 4061,2830 4030,2830 3999,2831 3968,2832 3938,2832 3908,2832 3877,2832 3847,2832 3816,2831 3786,2830 3755,2830 3724,2829 3694,2827 3663,2826 3661,2858 3692,2859 3722,2861 3753,2862 3784,2862 3814,2863 3845,2864 3877,2864 3908,2864 3938,2864 3970,2864 4001,2863 4032,2862 4063,2862 4094,2861 4126,2859 4157,2858 4156,2858 4157,2858 4164,2856 4169,2852 4171,2847 4172,2841 4170,2835 4167,2830 4162,2827 4155,2826z"
       style="fill:#000000" />
    <path
       id="path10300"
       d="M4218,2890 L4218,2890 4217,2877 4213,2865 4208,2855 4201,2845 4190,2836 4180,2831 4168,2827 4156,2826 4156,2858 4162,2859 4168,2861 4174,2864 4177,2865 4180,2871 4183,2877 4185,2883 4186,2890 4186,2890 4186,2890 4187,2897 4191,2902 4196,2905 4202,2906 4208,2905 4213,2902 4217,2897 4218,2890z"
       style="fill:#000000" />
    <path
       id="path10302"
       d="M4218,3168 L4218,3168 4218,2890 4186,2890 4186,3168 4186,3168 4186,3168 4187,3175 4191,3180 4196,3183 4202,3184 4208,3183 4213,3180 4217,3175 4218,3168z"
       style="fill:#000000" />
    <path
       id="path10304"
       d="M4157,3232 L4156,3232 4168,3231 4180,3227 4190,3222 4201,3212 4208,3203 4213,3193 4217,3181 4218,3168 4186,3168 4185,3175 4183,3181 4180,3187 4177,3192 4174,3194 4168,3197 4162,3199 4156,3200 4155,3200 4156,3200 4149,3201 4144,3205 4141,3210 4140,3216 4141,3222 4144,3227 4149,3231 4156,3232z"
       style="fill:#000000" />
    <path
       id="path10306"
       d="M3662,3232 L3661,3232 3691,3234 3723,3237 3753,3238 3784,3240 3815,3241 3846,3241 3877,3242 3909,3242 3941,3242 3972,3241 4003,3240 4034,3239 4065,3238 4095,3236 4126,3234 4157,3232 4155,3200 4124,3202 4093,3204 4063,3206 4032,3207 4001,3208 3970,3209 3939,3210 3909,3210 3879,3210 3848,3209 3817,3209 3786,3208 3755,3206 3725,3205 3695,3202 3663,3200 3662,3200 3663,3200 3656,3201 3651,3204 3648,3209 3646,3215 3647,3221 3650,3226 3654,3230 3661,3232z"
       style="fill:#000000" />
    <path
       id="path10308"
       d="M3600,3168 L3600,3168 3601,3181 3605,3193 3610,3203 3617,3212 3628,3222 3638,3227 3650,3231 3662,3232 3662,3200 3656,3199 3650,3197 3644,3194 3641,3192 3638,3187 3635,3181 3633,3175 3632,3168 3632,3168 3632,3168 3631,3161 3627,3156 3622,3153 3616,3152 3610,3153 3605,3156 3601,3161 3600,3168z"
       style="fill:#000000" />
    <path
       id="path10310"
       d="M3600,2890 L3600,2890 3600,3168 3632,3168 3632,2890 3632,2890 3632,2890 3631,2883 3627,2878 3622,2875 3616,2874 3610,2875 3605,2878 3601,2883 3600,2890z"
       style="fill:#000000" />
    <path
       id="path10312"
       d="M3663,2826 L3662,2826 3650,2827 3638,2831 3628,2836 3617,2845 3610,2855 3605,2865 3601,2877 3600,2890 3632,2890 3633,2883 3635,2877 3638,2871 3641,2865 3644,2864 3650,2861 3656,2859 3662,2858 3661,2858 3662,2858 3669,2857 3674,2853 3677,2848 3678,2842 3677,2836 3674,2831 3669,2827 3662,2826z"
       style="fill:#000000" />
    <path
       id="path10314"
       d="M5102,2914 L5118,2913 5135,2911 5151,2910 5168,2909 5184,2909 5201,2908 5218,2908 5234,2908 5250,2908 5266,2908 5282,2909 5297,2909 5312,2910 5327,2911 5341,2913 5354,2914 5361,2915 5367,2916 5372,2919 5377,2923 5381,2928 5384,2933 5385,2939 5386,2946 5386,3116 5385,3123 5384,3129 5381,3134 5377,3139 5372,3143 5367,3146 5361,3147 5354,3148 5338,3147 5322,3146 5307,3145 5291,3144 5275,3143 5259,3143 5243,3142 5227,3142 5211,3142 5196,3142 5180,3142 5164,3143 5149,3144 5133,3145 5117,3146 5102,3148 5095,3147 5089,3146 5084,3143 5079,3139 5075,3134 5072,3129 5071,3123 5070,3116 5070,2946 5071,2939 5072,2933 5075,2928 5079,2923 5084,2919 5089,2916 5095,2915 5102,2914z"
       style="fill:#f5dc0f" />
    <path
       id="path10316"
       d="M5354,2898 L5356,2898 5343,2897 5329,2895 5313,2894 5298,2893 5283,2893 5267,2892 5250,2892 5234,2892 5218,2892 5200,2892 5183,2893 5167,2893 5150,2894 5133,2895 5116,2897 5101,2898 5103,2930 5120,2929 5137,2927 5152,2926 5169,2925 5185,2925 5202,2924 5218,2924 5234,2924 5250,2924 5265,2924 5281,2925 5296,2925 5311,2926 5325,2927 5339,2929 5352,2930 5354,2930 5352,2930 5359,2929 5364,2926 5368,2921 5370,2915 5370,2910 5367,2904 5363,2900 5356,2898z"
       style="fill:#000000" />
    <path
       id="path10318"
       d="M5402,2946 L5402,2946 5401,2937 5399,2928 5394,2918 5388,2912 5382,2906 5372,2901 5363,2899 5354,2898 5354,2930 5359,2931 5362,2931 5362,2932 5366,2934 5368,2938 5369,2938 5369,2941 5370,2946 5370,2946 5370,2946 5371,2953 5375,2958 5380,2961 5386,2962 5392,2961 5397,2958 5401,2953 5402,2946z"
       style="fill:#000000" />
    <path
       id="path10320"
       d="M5402,3116 L5402,3116 5402,2946 5370,2946 5370,3116 5370,3116 5370,3116 5371,3123 5375,3128 5380,3131 5386,3132 5392,3131 5397,3128 5401,3123 5402,3116z"
       style="fill:#000000" />
    <path
       id="path10322"
       d="M5353,3164 L5354,3164 5363,3163 5372,3161 5382,3156 5388,3150 5394,3144 5399,3134 5401,3125 5402,3116 5370,3116 5369,3121 5369,3124 5368,3124 5366,3128 5362,3130 5362,3131 5359,3131 5354,3132 5355,3132 5354,3132 5347,3133 5342,3137 5339,3142 5338,3148 5339,3154 5342,3159 5347,3163 5354,3164z"
       style="fill:#000000" />
    <path
       id="path10324"
       d="M5102,3164 L5104,3164 5119,3162 5134,3161 5150,3160 5165,3159 5181,3158 5196,3158 5211,3158 5227,3158 5242,3158 5258,3159 5274,3159 5290,3160 5306,3161 5321,3162 5337,3163 5353,3164 5355,3132 5339,3131 5323,3130 5308,3129 5292,3128 5276,3127 5260,3127 5244,3126 5227,3126 5211,3126 5196,3126 5179,3126 5163,3127 5148,3128 5132,3129 5115,3130 5100,3132 5102,3132 5100,3132 5093,3134 5089,3138 5087,3144 5086,3149 5088,3155 5092,3160 5097,3163 5104,3164z"
       style="fill:#000000" />
    <path
       id="path10326"
       d="M5054,3116 L5054,3116 5055,3125 5057,3134 5062,3144 5068,3150 5074,3156 5084,3161 5093,3163 5102,3164 5102,3132 5097,3131 5094,3131 5094,3130 5090,3128 5088,3124 5087,3124 5087,3121 5086,3116 5086,3116 5086,3116 5085,3109 5081,3104 5076,3101 5070,3100 5064,3101 5059,3104 5055,3109 5054,3116z"
       style="fill:#000000" />
    <path
       id="path10328"
       d="M5054,2946 L5054,2946 5054,3116 5086,3116 5086,2946 5086,2946 5086,2946 5085,2939 5081,2934 5076,2931 5070,2930 5064,2931 5059,2934 5055,2939 5054,2946z"
       style="fill:#000000" />
    <path
       id="path10330"
       d="M5101,2898 L5102,2898 5093,2899 5084,2901 5074,2906 5068,2912 5062,2918 5057,2928 5055,2937 5054,2946 5086,2946 5087,2941 5087,2938 5088,2938 5090,2934 5094,2932 5094,2931 5097,2931 5102,2930 5103,2930 5102,2930 5109,2929 5114,2925 5117,2920 5118,2914 5117,2908 5114,2903 5109,2899 5102,2898z"
       style="fill:#000000" />
    <path
       id="path10332"
       d="M4627,2918 L4621,2914 4615,2914 4609,2916 4604,2919 4601,2925 4599,2930 4601,2936 4605,2942z"
       style="fill:#000000" />
    <path
       id="path10334"
       d="M4750,3056 L4761,3044 4627,2918 4605,2942 4739,3068 4750,3056z"
       style="fill:#000000" />
    <path
       id="path10336"
       d="M4739,3068 L4745,3072 4751,3072 4757,3070 4762,3066 4765,3061 4767,3056 4765,3050 4761,3044z"
       style="fill:#000000" />
    <path
       id="path10338"
       d="M4529,3047 L4523,3043 4518,3043 4512,3044 4508,3047 4504,3052 4503,3058 4503,3063 4507,3069z"
       style="fill:#000000" />
    <path
       id="path10340"
       d="M4658,3198 L4669,3187 4529,3047 4507,3069 4647,3209 4658,3198z"
       style="fill:#000000" />
    <path
       id="path10342"
       d="M4647,3209 L4653,3213 4658,3213 4664,3212 4669,3208 4672,3204 4673,3198 4673,3193 4669,3187z"
       style="fill:#000000" />
    <path
       id="path10344"
       d="M4082,2302 L4074,2285 4066,2267 4060,2249 4056,2229 4056,2210 4060,2191 4069,2174 4084,2158 4078,2175 4076,2191 4076,2206 4079,2222 4084,2238 4090,2255 4097,2273 4104,2292 4082,2302z"
       style="fill:#000000" />
    <path
       id="path10346"
       d="M4982,2272 L4986,2259 4989,2246 4989,2232 4988,2218 4984,2204 4980,2189 4974,2174 4966,2158 4980,2173 4992,2188 5001,2203 5008,2218 5013,2233 5016,2248 5016,2262 5014,2276 4982,2272z"
       style="fill:#000000" />
  </g>
</svg>
