<?xml version="1.0" encoding="UTF-8" standalone="no"?>
<!-- Created with Inkscape (http://www.inkscape.org/) -->

<svg
   xmlns:dc="http://purl.org/dc/elements/1.1/"
   xmlns:cc="http://creativecommons.org/ns#"
   xmlns:rdf="http://www.w3.org/1999/02/22-rdf-syntax-ns#"
   xmlns:svg="http://www.w3.org/2000/svg"
   xmlns="http://www.w3.org/2000/svg"
   xmlns:sodipodi="http://sodipodi.sourceforge.net/DTD/sodipodi-0.dtd"
   xmlns:inkscape="http://www.inkscape.org/namespaces/inkscape"
   width="321.67465"
   height="214.15234"
   id="svg3997"
   version="1.1"
   inkscape:version="0.48.4 r9939"
   sodipodi:docname="Nieuw document 14">
  <defs
     id="defs3999" />
  <sodipodi:namedview
     id="base"
     pagecolor="#ffffff"
     bordercolor="#666666"
     borderopacity="1.0"
     inkscape:pageopacity="0.0"
     inkscape:pageshadow="2"
     inkscape:zoom="0.35"
     inkscape:cx="312.98019"
     inkscape:cy="4.2190247"
     inkscape:document-units="px"
     inkscape:current-layer="layer1"
     showgrid="false"
     fit-margin-top="0"
     fit-margin-left="0"
     fit-margin-right="0"
     fit-margin-bottom="0"
     inkscape:window-width="1600"
     inkscape:window-height="837"
     inkscape:window-x="-8"
     inkscape:window-y="-8"
     inkscape:window-maximized="1" />
  <metadata
     id="metadata4002">
    <rdf:RDF>
      <cc:Work
         rdf:about="">
        <dc:format>image/svg+xml</dc:format>
        <dc:type
           rdf:resource="http://purl.org/dc/dcmitype/StillImage" />
        <dc:title></dc:title>
      </cc:Work>
    </rdf:RDF>
  </metadata>
  <g
     inkscape:label="Laag 1"
     inkscape:groupmode="layer"
     id="layer1"
     transform="translate(-62.019814,-322.42886)">
    <rect
       style="fill:#fcdd09;fill-opacity:1;stroke:none"
       id="rect3951"
       width="242.03676"
       height="214.15234"
       x="141.65771"
       y="322.42886" />
    <rect
       style="fill:#078930;fill-opacity:1;stroke:none"
       id="rect3953"
       width="242.03676"
       height="70.491814"
       x="141.65771"
       y="393.36682" />
    <rect
       style="fill:#da121a;fill-opacity:1;stroke:none"
       id="rect3955"
       width="79.637901"
       height="214.15234"
       x="62.019814"
       y="322.42886" />
    <path
       sodipodi:type="star"
       style="fill:#fef104;fill-opacity:1;stroke:none"
       id="path3957"
       sodipodi:sides="6"
       sodipodi:cx="24.607143"
       sodipodi:cy="364.69049"
       sodipodi:r1="30.76823"
       sodipodi:r2="17.230209"
       sodipodi:arg1="1.0796327"
       sodipodi:arg2="1.6032315"
       inkscape:flatsided="false"
       inkscape:rounded="0"
       inkscape:randomized="0"
       d="m 39.119049,391.82144 -15.070672,-9.9098 -15.6813749,8.91201 1.0468074,-18.00649 -15.5587133,-9.12447 16.1174801,-8.09668 0.1226617,-18.03647 15.070672,9.9098 15.681375,-8.912 -1.046808,18.00648 15.558714,9.12447 -16.11748,8.09668 z"
       transform="matrix(0.73557138,0.40648132,-0.42998217,0.77809867,241.39848,133.72524)" />
    <path
       style="fill:#078930;fill-opacity:1;stroke:none"
       d="m 181.26981,325.99807 c -0.50257,2.53639 -3.05957,8.31912 -6.70848,13.38452 -3.84501,5.63986 -8.11743,11.51952 -11.27329,17.17394 -3.43415,6.15303 -2.17579,13.08946 4.22713,16.12438 2.40662,1.14071 6.08669,1.39672 11.39613,0.4976 0.74855,4.93776 -0.49696,8.4512 -1.78461,11.93453 l 4.14312,0 1.99145,-25.31905 z"
       id="path3961"
       inkscape:connector-curvature="0"
       sodipodi:nodetypes="ccssccccc" />
    <path
       style="fill:#078930;fill-opacity:1;stroke:none"
       d="m 181.24976,325.99807 c 0.50257,2.53639 3.05957,8.31912 6.70848,13.38452 3.84501,5.63986 8.11743,11.51952 11.27329,17.17394 3.43415,6.15303 2.1758,13.08946 -4.22713,16.12438 -2.40662,1.14071 -6.08669,1.39672 -11.39613,0.4976 -0.74855,4.93776 0.49696,8.4512 1.78461,11.93453 l -4.14312,0 -1.99145,-25.31905 z"
       id="path3961-0"
       inkscape:connector-curvature="0"
       sodipodi:nodetypes="ccssccccc" />
  </g>
</svg>
