<?xml version="1.0" encoding="UTF-8" standalone="no"?>
<!-- Created with Inkscape (http://www.inkscape.org/) -->

<svg
   xmlns:dc="http://purl.org/dc/elements/1.1/"
   xmlns:cc="http://creativecommons.org/ns#"
   xmlns:rdf="http://www.w3.org/1999/02/22-rdf-syntax-ns#"
   xmlns:svg="http://www.w3.org/2000/svg"
   xmlns="http://www.w3.org/2000/svg"
   xmlns:sodipodi="http://sodipodi.sourceforge.net/DTD/sodipodi-0.dtd"
   xmlns:inkscape="http://www.inkscape.org/namespaces/inkscape"
   width="987.9292"
   height="640.43665"
   id="svg4569"
   version="1.1"
   inkscape:version="0.48.4 r9939"
   sodipodi:docname="Nieuw document 22">
  <defs
     id="defs4571" />
  <sodipodi:namedview
     id="base"
     pagecolor="#ffffff"
     bordercolor="#666666"
     borderopacity="1.0"
     inkscape:pageopacity="0.0"
     inkscape:pageshadow="2"
     inkscape:zoom="0.35"
     inkscape:cx="606.10745"
     inkscape:cy="205.93262"
     inkscape:document-units="px"
     inkscape:current-layer="layer1"
     showgrid="false"
     fit-margin-top="0"
     fit-margin-left="0"
     fit-margin-right="0"
     fit-margin-bottom="0"
     inkscape:window-width="1600"
     inkscape:window-height="837"
     inkscape:window-x="-8"
     inkscape:window-y="-8"
     inkscape:window-maximized="1" />
  <metadata
     id="metadata4574">
    <rdf:RDF>
      <cc:Work
         rdf:about="">
        <dc:format>image/svg+xml</dc:format>
        <dc:type
           rdf:resource="http://purl.org/dc/dcmitype/StillImage" />
        <dc:title></dc:title>
      </cc:Work>
    </rdf:RDF>
  </metadata>
  <g
     inkscape:label="Laag 1"
     inkscape:groupmode="layer"
     id="layer1"
     transform="translate(231.10745,-97.858147)">
    <rect
       style="fill:#d40000;fill-opacity:1;fill-rule:evenodd;stroke:none"
       id="rect4171"
       width="987.9292"
       height="216.17264"
       x="-231.10745"
       y="97.858147" />
    <rect
       style="fill:#ffffff;fill-opacity:1;fill-rule:evenodd;stroke:none"
       id="rect4173"
       width="987.9292"
       height="210.11172"
       x="-231.10745"
       y="314.03076" />
    <rect
       style="fill:#0e44af;fill-opacity:1;fill-rule:evenodd;stroke:none"
       id="rect4175"
       width="987.9292"
       height="214.15234"
       x="-231.10745"
       y="524.14246" />
    <path
       style="fill:#000000;fill-opacity:1;stroke:none"
       d="m -83.578247,418.6754 c 0,60.8903 22.3297,127.0892 108.7538,141.8473 l 30.0179,-81.0556 -30.0179,-60.7917 z"
       id="path4336-5"
       inkscape:connector-curvature="0"
       sodipodi:nodetypes="ccccc" />
    <path
       style="fill:#000000;fill-opacity:1;stroke:none"
       d="m 133.92475,418.6836 c 0,60.8904 -22.3298,127.0893 -108.753897,141.8473 L -4.8470468,479.4754 25.170853,418.6836 z"
       id="path4336-2-7"
       inkscape:connector-curvature="0"
       sodipodi:nodetypes="ccccc" />
    <rect
       style="fill:#ffffff;fill-opacity:1;fill-rule:evenodd;stroke:#000000;stroke-width:2.09019136;stroke-miterlimit:4;stroke-opacity:1;stroke-dasharray:none"
       id="rect4356-6"
       width="215.46382"
       height="126.65921"
       x="-82.600868"
       y="292.021" />
    <path
       style="fill:#000000;stroke:#000000;stroke-width:0.23563744px;stroke-linecap:butt;stroke-linejoin:miter;stroke-opacity:1"
       d="m -34.368347,418.6754 c -9.6835,-26.814 -32.4673,-52.0115 -33.2167,-23.0271 -10.6919,-12.1224 3.0901,-26.64 15.0089,-18.1916 -6.194,-35.2332 -19.2115,-48.1998 -20.9142,-25.7904 -10.0474,-10.3872 -1.5746,-25.4991 9.3499,-16.5795 -10.9868,-25.2105 6.0489,-52.8207 20.8844,-27.3137 -10.4034,-15.4132 -28.4804,-1.5321 -12.7647,32.8402 8.3732,-17.4163 23.2765,1.7475 27.3115,12.665 -20.4443,-19.0834 -29.7937,-11.8471 -15.2551,31.0866 4.5603,-15.3554 23.0549,-8.245 20.422,4.3752 -19.4546,-16.0805 -14.2558,16.9914 -4.9209,29.9353 z"
       id="path4358-18"
       inkscape:connector-curvature="0"
       sodipodi:nodetypes="cccccccccccc" />
    <path
       style="fill:#000000;stroke:#000000;stroke-width:0.23563744px;stroke-linecap:butt;stroke-linejoin:miter;stroke-opacity:1"
       d="m -75.679147,342.5956 c -3.6313,22.0115 -4.5913,37.1907 5.7322,23.5139 22.7644,9.3266 4.8433,-9.6485 -5.7322,-23.5139 z"
       id="path4360-9"
       inkscape:connector-curvature="0"
       sodipodi:nodetypes="ccc" />
    <path
       style="fill:#000000;stroke:#000000;stroke-width:0.23563744px;stroke-linecap:butt;stroke-linejoin:miter;stroke-opacity:1"
       d="m -34.421747,344.4263 c -2.4079,22.158 -2.5261,37.3634 7.0261,23.2044 23.2503002,8.2103 4.3028,-9.8704 -7.0261,-23.2044 z"
       id="path4360-4-2"
       inkscape:connector-curvature="0"
       sodipodi:nodetypes="ccc" />
    <path
       style="fill:#000000;stroke:#000000;stroke-width:0.23563744px;stroke-linecap:butt;stroke-linejoin:miter;stroke-opacity:1"
       d="m -47.286447,302.738 c 0.2579,22.2709 1.9594,37.3931 9.7579,22.3223 24.0862,5.7226 3.0949,-10.2592 -9.7579,-22.3223 z"
       id="path4360-5-7"
       inkscape:connector-curvature="0"
       sodipodi:nodetypes="ccc" />
    <path
       style="fill:#000000;stroke:#000000;stroke-width:0.23563744px;stroke-linecap:butt;stroke-linejoin:miter;stroke-opacity:1"
       d="m -68.610147,387.2953 c -7.8684,21.0197 -11.7763,35.7791 1.0439,24.0984 20.5599,13.063 6.646,-8.6577 -1.0439,-24.0984 z"
       id="path4360-51-9"
       inkscape:connector-curvature="0"
       sodipodi:nodetypes="ccc" />
    <path
       style="fill:#000000;stroke:#000000;stroke-width:0.23563744px;stroke-linecap:butt;stroke-linejoin:miter;stroke-opacity:1"
       d="m -26.362447,383.7339 c -2.718,22.1264 -3.0492,37.3291 6.7006,23.2885 23.1333002,8.4948 4.4406,-9.8168 -6.7006,-23.2885 z"
       id="path4360-7-5"
       inkscape:connector-curvature="0"
       sodipodi:nodetypes="ccc" />
    <path
       style="fill:#000000;stroke:#000000;stroke-width:0.23563744px;stroke-linecap:butt;stroke-linejoin:miter;stroke-opacity:1"
       d="m 21.958453,418.6754 c -1.796,-28.2541 -16.3155998,-57.1508 -25.1949998,-29.3745 -6.9032002,-14.3297 10.4777,-24.9378 19.5983998,-13.8499 3.9393,-35.5161 -4.9696,-51.2334 -12.9182998,-30.0348 -6.7698,-12.497 5.6565,-24.987 13.6853998,-13.6897 -3.5046,-27.0285 20.6993,-49.4651 27.8333,-21.2021 -5.6988,-17.4332 -27.0438,-8.4975 -21.5556,28.5347 12.9786,-14.7376 21.9632,7.4229 22.7833,18.9494 -14.3524,-23.4486 -25.4079,-18.7721 -23.4644,26.2293 8.7204,-13.6892 24.5611,-2.2715 18.4699,9.2542 -14.2428,-20.3078 -18.4111,10.3957 -13.0482,25.1834 z"
       id="path4358-1-4"
       inkscape:connector-curvature="0"
       sodipodi:nodetypes="cccccccccccc" />
    <path
       style="fill:#000000;stroke:#000000;stroke-width:0.23563744px;stroke-linecap:butt;stroke-linejoin:miter;stroke-opacity:1"
       d="m 3.8845532,336.1262 c -9.6974,20.3393 -14.8949002,34.7461 -1.0872,24.0967 19.3361998,14.6081 7.3874998,-8.1141 1.0872,-24.0967 z"
       id="path4360-1-3"
       inkscape:connector-curvature="0"
       sodipodi:nodetypes="ccc" />
    <path
       style="fill:#000000;stroke:#000000;stroke-width:0.23563744px;stroke-linecap:butt;stroke-linejoin:miter;stroke-opacity:1"
       d="m 43.170153,348.0612 c -8.5582,20.7822 -12.9512,35.4216 0.2483,24.1169 20.1192,13.6509 6.9283,-8.4615 -0.2483,-24.1169 z"
       id="path4360-4-5-1"
       inkscape:connector-curvature="0"
       sodipodi:nodetypes="ccc" />
    <path
       style="fill:#000000;stroke:#000000;stroke-width:0.23563744px;stroke-linecap:butt;stroke-linejoin:miter;stroke-opacity:1"
       d="m 42.491053,304.6737 c -6.0184,21.5483 -8.6324,36.556 3.1316,23.9395 21.6258,11.4571 5.8729,-9.1342 -3.1316,-23.9395 z"
       id="path4360-5-2-2"
       inkscape:connector-curvature="0"
       sodipodi:nodetypes="ccc" />
    <path
       style="fill:#000000;stroke:#000000;stroke-width:0.23563744px;stroke-linecap:butt;stroke-linejoin:miter;stroke-opacity:1"
       d="m -3.8662468,380.9879 c -5.3585,21.7003 -7.5138002,36.7718 3.86090005,23.846 21.96609975,10.8747 5.59149995,-9.2874 -3.86090005,-23.846 z"
       id="path4360-51-7-3"
       inkscape:connector-curvature="0"
       sodipodi:nodetypes="ccc" />
    <path
       style="fill:#000000;stroke:#000000;stroke-width:0.23563744px;stroke-linecap:butt;stroke-linejoin:miter;stroke-opacity:1"
       d="m 39.883653,387.9674 c -8.8487,20.6755 -13.4462,35.2598 -0.09,24.118 19.9262,13.8966 7.0464,-8.3758 0.09,-24.118 z"
       id="path4360-7-6-3"
       inkscape:connector-curvature="0"
       sodipodi:nodetypes="ccc" />
    <path
       style="fill:#000000;stroke:#000000;stroke-width:0.23563744px;stroke-linecap:butt;stroke-linejoin:miter;stroke-opacity:1"
       d="m 83.177053,418.5093 c 9.6834,-26.8141 32.467197,-52.0115 33.216697,-23.0272 10.6918,-12.1223 -3.0902,-26.6398 -15.009,-18.1914 6.1941,-35.2333 19.2115,-48.1999 20.914,-25.7904 10.0478,-10.3873 1.5747,-25.4992 -9.3498,-16.5796 10.9869,-25.2105 -6.0488,-52.8206 -20.884297,-27.3137 10.403497,-15.4132 28.480397,-1.532 12.764697,32.8402 -8.373197,-17.4162 -23.276497,1.7475 -27.311397,12.6649 20.4443,-19.0832 29.793597,-11.8469 15.255,31.0868 -4.5603,-15.3554 -23.0548,-8.2451 -20.422,4.375 19.4547,-16.0803 14.2558,16.9916 4.9209,29.9354 z"
       id="path4358-14-4"
       inkscape:connector-curvature="0"
       sodipodi:nodetypes="cccccccccccc" />
    <path
       style="fill:#000000;stroke:#000000;stroke-width:0.23563744px;stroke-linecap:butt;stroke-linejoin:miter;stroke-opacity:1"
       d="m 124.48785,342.4295 c 3.6311,22.0114 4.5911,37.1906 -5.7322,23.514 -22.764497,9.3266 -4.8434,-9.6486 5.7322,-23.514 z"
       id="path4360-2-1"
       inkscape:connector-curvature="0"
       sodipodi:nodetypes="ccc" />
    <path
       style="fill:#000000;stroke:#000000;stroke-width:0.23563744px;stroke-linecap:butt;stroke-linejoin:miter;stroke-opacity:1"
       d="m 83.230353,344.2602 c 2.4079,22.1579 2.5261,37.3633 -7.0261,23.2045 -23.2502,8.2101 -4.3028,-9.8705 7.0261,-23.2045 z"
       id="path4360-4-3-1"
       inkscape:connector-curvature="0"
       sodipodi:nodetypes="ccc" />
    <path
       style="fill:#000000;stroke:#000000;stroke-width:0.23563744px;stroke-linecap:butt;stroke-linejoin:miter;stroke-opacity:1"
       d="m 96.095053,302.5719 c -0.2579,22.271 -1.9593,37.3931 -9.7579,22.3224 -24.0861,5.7226 -3.0949,-10.2592 9.7579,-22.3224 z"
       id="path4360-5-22-3"
       inkscape:connector-curvature="0"
       sodipodi:nodetypes="ccc" />
    <path
       style="fill:#000000;stroke:#000000;stroke-width:0.23563744px;stroke-linecap:butt;stroke-linejoin:miter;stroke-opacity:1"
       d="m 117.41875,387.1293 c 7.8685,21.0195 11.7764,35.779 -1.0439,24.0983 -20.559897,13.063 -6.646,-8.6576 1.0439,-24.0983 z"
       id="path4360-51-1-8"
       inkscape:connector-curvature="0"
       sodipodi:nodetypes="ccc" />
    <path
       style="fill:#000000;stroke:#000000;stroke-width:0.23563744px;stroke-linecap:butt;stroke-linejoin:miter;stroke-opacity:1"
       d="m 75.171153,383.5677 c 2.7179,22.1265 3.0491,37.3291 -6.7007,23.2886 -23.1333,8.4948 -4.4405,-9.8168 6.7007,-23.2886 z"
       id="path4360-7-68-7"
       inkscape:connector-curvature="0"
       sodipodi:nodetypes="ccc" />
    <path
       style="fill:#ffffff;fill-opacity:1;stroke:none"
       d="m -34.491447,418.6754 59.667,126.7204 58.0447,-126.7204 -6.1764,0 -47.4395,97.8654 -1.3192,-97.8654 -6.4928,0 -0.8145,100.5867 -49.3242,-100.5867 -6.5243,0 z"
       id="path4451-4"
       inkscape:connector-curvature="0" />
  </g>
</svg>
