<?xml version="1.0" encoding="UTF-8" standalone="no"?>
<!-- Created with Inkscape (http://www.inkscape.org/) -->

<svg
   xmlns:dc="http://purl.org/dc/elements/1.1/"
   xmlns:cc="http://creativecommons.org/ns#"
   xmlns:rdf="http://www.w3.org/1999/02/22-rdf-syntax-ns#"
   xmlns:svg="http://www.w3.org/2000/svg"
   xmlns="http://www.w3.org/2000/svg"
   xmlns:sodipodi="http://sodipodi.sourceforge.net/DTD/sodipodi-0.dtd"
   xmlns:inkscape="http://www.inkscape.org/namespaces/inkscape"
   width="318.70309"
   height="212.13203"
   id="svg22522"
   version="1.1"
   inkscape:version="0.48.4 r9939"
   sodipodi:docname="Nieuw document 42">
  <defs
     id="defs22524" />
  <sodipodi:namedview
     id="base"
     pagecolor="#ffffff"
     bordercolor="#666666"
     borderopacity="1.0"
     inkscape:pageopacity="0.0"
     inkscape:pageshadow="2"
     inkscape:zoom="0.175"
     inkscape:cx="450.25186"
     inkscape:cy="229.0166"
     inkscape:document-units="px"
     inkscape:current-layer="layer1"
     showgrid="false"
     fit-margin-top="0"
     fit-margin-left="0"
     fit-margin-right="0"
     fit-margin-bottom="0"
     inkscape:window-width="513"
     inkscape:window-height="423"
     inkscape:window-x="182"
     inkscape:window-y="182"
     inkscape:window-maximized="0" />
  <metadata
     id="metadata22527">
    <rdf:RDF>
      <cc:Work
         rdf:about="">
        <dc:format>image/svg+xml</dc:format>
        <dc:type
           rdf:resource="http://purl.org/dc/dcmitype/StillImage" />
        <dc:title></dc:title>
      </cc:Work>
    </rdf:RDF>
  </metadata>
  <g
     inkscape:label="Laag 1"
     inkscape:groupmode="layer"
     id="layer1"
     transform="translate(-306.36273,-323.43902)">
    <path
       style="fill:#fcdd06;fill-opacity:1"
       d="m 454.57809,505.03442 c -5.935,-4.312 -8.6406,-8.3568 -8.6402,-12.9174 1e-4,-2.0088 0.3574,-3.3368 1.5421,-5.7316 1.6356,-3.3064 2.3274,-5.7664 2.731,-9.712 l 0.1249,-1.2206 5.931,0 5.9311,0 0.1249,1.2206 c 0.4116,4.0239 1.024,6.2416 2.6171,9.4769 1.3023,2.645 1.6559,3.9187 1.656,5.9667 0,3.0034 -1.0791,5.543 -3.5999,8.4709 -1.2214,1.4187 -4.5085,4.2391 -6.0158,5.1617 l -0.7695,0.471 -1.6327,-1.1862 z m -24.9809,-14.3284 c -1.6691,-0.1856 -3.2935,-0.8686 -4.4711,-1.88 -3.1064,-2.6679 -3.5584,-6.8316 -1.2826,-11.8143 1.0358,-2.2675 1.4554,-2.7967 1.4554,-1.8358 0,1.338 0.5864,2.8263 1.5253,3.8712 3.0379,3.3803 8.5194,2.1092 10.9186,-2.5321 l 0.549,-1.0618 2.5772,-2e-4 c 1.4176,-10e-5 2.618,0.071 2.6678,0.159 0.1846,0.3248 -0.4503,4.0383 -0.9532,5.575 -2.1086,6.4444 -7.1837,10.1644 -12.9864,9.519 z m 50.6346,0 c -4.6654,-0.5886 -8.4307,-4.0327 -10.2142,-9.3423 -0.5505,-1.6386 -1.2183,-5.4005 -1.0206,-5.7484 0.05,-0.088 1.2503,-0.1591 2.6678,-0.1589 l 2.5773,2e-4 0.5489,1.0618 c 0.7475,1.4461 2.2252,2.9765 3.5917,3.7197 1.0097,0.5493 1.3392,0.618 2.9908,0.6243 1.6481,0.01 1.9687,-0.057 2.86,-0.5684 1.7516,-1.0037 3.0015,-3.0892 3.0015,-5.0078 0,-0.6129 0.046,-0.6901 0.2819,-0.477 0.5464,0.4927 2.068,4.1734 2.3752,5.7458 1.2416,6.3542 -3.1531,10.9722 -9.6603,10.151 z m -43.7378,-17.1518 c -1.9546,-1.2949 -1.5797,-4.6631 0.6795,-6.1061 l 0.9229,-0.5894 17.4867,-0.064 c 9.6177,-0.034 17.8514,-0.01 18.2971,0.063 1.0971,0.1708 2.4293,1.1724 2.9831,2.243 0.827,1.5988 0.456,3.6054 -0.8234,4.453 -0.6092,0.4035 -1.1262,0.4143 -19.773,0.4143 -18.6467,0 -19.1638,-0.01 -19.7729,-0.4143 z m -15.3749,-5.4264 c -0.7814,-2.9644 -2.3305,-5.7191 -4.3631,-7.7587 -0.6318,-0.6339 -2.2351,-2.0031 -3.5629,-3.0425 -5.1632,-4.042 -8.0456,-7.9673 -9.134,-12.4393 -0.4459,-1.8322 -0.4495,-5.3818 -0.01,-7.155 1.3748,-5.5119 5.9354,-10.2258 11.3803,-11.7628 2.1765,-0.6144 5.4685,-0.6106 7.6196,0.01 2.0227,0.5824 4.8914,1.9909 6.741,3.3099 2.857,2.0372 6.6161,6.5916 9.0344,10.9457 3.327,5.9902 6.4227,14.6735 7.8501,22.0193 0.2775,1.4275 0.5045,2.6896 0.5045,2.8045 0,0.1285 -1.2396,0.2089 -3.2238,0.2089 -2.5627,0 -3.2238,-0.058 -3.2238,-0.2842 0,-0.4096 -1.7698,-4.2796 -2.6062,-5.6991 -3.0522,-5.1799 -7.5516,-8.3126 -10.605,-7.3837 -1.2957,0.3943 -2.4274,1.6536 -2.8748,3.1989 -0.2912,1.0058 -0.3342,1.8684 -0.2856,5.7292 0.057,4.5325 0.055,4.5484 -0.4602,5.744 -0.4685,1.0857 -1.8999,2.9405 -2.2693,2.9405 -0.082,0 -0.3132,-0.6229 -0.5139,-1.3844 z m 68.8313,0.5136 c -0.4408,-0.479 -1.0343,-1.4104 -1.3188,-2.0697 -0.5155,-1.1946 -0.5172,-1.2153 -0.4572,-5.657 0.052,-3.7961 0.01,-4.647 -0.2892,-5.7317 -0.4491,-1.6367 -1.5335,-2.8756 -2.8742,-3.2833 -3.0533,-0.9289 -7.5388,2.1934 -10.6074,7.3836 -0.7951,1.3445 -2.5966,5.3052 -2.601,5.718 0,0.2013 -0.7793,0.2653 -3.2266,0.2653 -1.7731,0 -3.2238,-0.085 -3.2238,-0.1889 0,-0.104 0.1775,-1.1309 0.3944,-2.2821 1.4104,-7.4853 4.4635,-16.1642 7.8683,-22.3663 2.4722,-4.5034 6.2035,-9.058 9.1263,-11.1401 1.7768,-1.2658 4.8409,-2.7616 6.8345,-3.3367 2.0525,-0.5919 5.3897,-0.5796 7.5261,0.028 5.4788,1.5576 9.9943,6.2198 11.3822,11.752 0.5065,2.0192 0.449,5.5605 -0.1232,7.5795 -1.2602,4.447 -4.1128,8.2455 -9.0601,12.0645 -4.7205,3.6438 -6.7372,6.3932 -7.886,10.7514 -0.2007,0.7615 -0.4319,1.3845 -0.5138,1.3845 -0.082,0 -0.5097,-0.3918 -0.9505,-0.8708 z m -41.7311,-17.0141 c -2.9297,-13.5557 -2.9533,-13.6494 -3.8557,-15.3032 -6.5519,-12.0069 -7.479,-22.1169 -2.7557,-30.0505 2.0111,-3.3779 4.2282,-5.6763 8.645,-8.9623 2.9437,-2.1898 4.3575,-3.7259 5.3106,-5.7691 0.3653,-0.7832 0.683,-1.4241 0.7058,-1.4241 0.023,0 0.324,0.6231 0.6691,1.3847 0.8891,1.9621 2.4154,3.6407 5.1249,5.6361 4.2993,3.1659 6.8396,5.7562 8.7105,8.8818 3.8578,6.4448 4.1568,13.7237 0.9258,22.5363 -0.8735,2.3824 -2.2777,5.4732 -3.5289,7.7671 -0.902,1.6534 -0.9263,1.7503 -3.8549,15.3032 l -2.9473,13.6393 -5.1008,0 -5.1007,0 -2.9477,-13.6393 z"
       id="path4028"
       inkscape:connector-curvature="0" />
    <rect
       style="fill:#0e44af;fill-opacity:1;fill-rule:evenodd;stroke:none"
       id="rect4042"
       width="318.70309"
       height="212.13203"
       x="306.36273"
       y="323.43903" />
    <rect
       style="fill:#ffffff;fill-opacity:1;fill-rule:evenodd;stroke:none"
       id="rect4044"
       width="318.70309"
       height="125.35714"
       x="306.36273"
       y="365.9339" />
    <rect
       style="fill:#05882f;fill-opacity:1;fill-rule:evenodd;stroke:none"
       id="rect4046"
       width="318.70309"
       height="68.571419"
       x="306.36273"
       y="394.14813" />
    <rect
       style="fill:#fcdd06;fill-opacity:1;fill-rule:evenodd;stroke:none"
       id="rect22465"
       width="318.70309"
       height="28.214291"
       x="306.36273"
       y="365.9339" />
    <path
       style="fill:#da0f19;fill-opacity:1;stroke:none"
       d="m 306.36279,323.43902 0,212.132 156.0138,-105.3514 z"
       id="path22496"
       inkscape:connector-curvature="0" />
    <path
       style="fill:#fcdd06;fill-opacity:1"
       d="m 366.28979,481.26202 c -1.5708,-1.5478 -3.7336,-4.3596 -4.8065,-6.2486 l -1.9507,-3.4344 -0.5695,3.9697 c -0.559,3.8964 -2.1695,8.0772 -3.1116,8.0772 -0.7871,0 -2.539,-4.0878 -3.1893,-7.4416 -0.3348,-1.7268 -0.8219,-3.4436 -1.0826,-3.8151 -0.3288,-0.4686 -0.3687,-0.3307 -0.1301,0.4502 0.1891,0.6192 0.1611,0.9733 -0.062,0.7869 -0.2233,-0.1864 -1.1286,0.7828 -2.0116,2.1538 -1.587,2.464 -6.8419,8.0846 -7.2351,7.7386 -0.1111,-0.099 1.0462,-2.4918 2.5732,-5.3188 2.8589,-5.2926 3.9378,-7.9734 3.0045,-7.4658 -0.2835,0.1542 -0.1065,-0.4741 0.3926,-1.3962 1.6118,-2.9761 1.6176,-4.0014 0.012,-1.4986 -2.205,3.4295 -3.917,5.3102 -7.4204,8.152 -1.6792,1.3621 -3.6431,3.0037 -4.3642,3.6479 -1.2744,1.1384 -4.6244,2.9121 -4.6244,2.4483 0,-0.1269 2.5328,-3.2197 5.6285,-6.8729 3.0957,-3.6533 5.6286,-6.8123 5.6286,-7.02 0,-0.2079 -1.1946,0.5417 -2.6548,1.6657 -2.9943,2.3048 -8.3396,4.9763 -9.1142,4.555 -0.2813,-0.1529 -0.5116,-0.086 -0.5116,0.1508 0,0.3748 -6.0708,2.776 -7.0182,2.776 -0.1956,0 2.8796,-2.8873 6.8338,-6.4162 7.7846,-6.9476 10.4335,-9.863 12.9535,-14.2557 1.7618,-3.0712 3.605,-8.7502 3.605,-11.1072 0,-2.5918 0.2868,-2.8245 2.8815,-2.3377 2.4965,0.4686 5.8172,0.1321 5.8172,-0.5895 0,-0.2543 -1.3768,-0.4118 -3.2108,-0.3673 -4.2208,0.102 -5.5934,-0.2924 -5.3898,-1.5494 0.1344,-0.8308 0.5726,-1.0076 2.972,-1.1996 3.3583,-0.2686 3.6346,-0.9693 0.604,-1.5319 -1.8702,-0.3472 -2.4015,-0.2678 -3.6521,0.5459 -1.3073,0.8505 -1.5338,0.8778 -2.1203,0.256 -0.4769,-0.5057 -0.5084,-0.9016 -0.1146,-1.4464 0.5913,-0.8194 4.5169,-1.031 7.842,-0.4228 1.7533,0.3208 1.764,0.3141 0.5116,-0.321 -0.7035,-0.3569 -2.5795,-0.881 -4.1687,-1.1651 -2.5176,-0.4498 -2.9224,-0.6693 -3.1458,-1.705 -0.141,-0.6539 -0.9066,-5.0887 -1.7012,-9.8552 -1.3674,-8.2021 -1.5004,-8.6532 -2.4827,-8.4204 -0.6621,0.1569 -0.1111,-0.5246 1.5205,-1.8818 2.2764,-1.8933 2.3651,-2.0321 0.8042,-1.2604 -0.9649,0.477 -2.7222,1.6778 -3.9051,2.6685 -2.2048,1.8463 -3.2953,4.4886 -3.2953,7.9847 0,2.2341 -2.9452,6.909 -3.8506,6.1122 -0.1344,-0.1181 0.232,-1.8187 0.8141,-3.7789 0.7407,-2.495 0.9696,-4.2743 0.7631,-5.9319 -0.3637,-2.9193 0.4389,-4.7687 3.613,-8.326 1.2706,-1.424 2.178,-2.589 2.0164,-2.589 -0.1617,0 -2.4219,1.0494 -5.023,2.3321 -5.0619,2.4963 -8.5066,4.7248 -10.6632,6.8984 -0.7371,0.7429 -1.9366,1.9586 -2.6656,2.7016 l -1.3253,1.3508 0.7364,-2.8187 c 0.405,-1.5502 1.0663,-3.5135 1.4695,-4.3629 0.8946,-1.884 4.4089,-5.3079 6.761,-6.5871 0.9526,-0.5181 1.602,-1.1273 1.4428,-1.3538 -1.1178,-1.5916 -14.4505,2.1834 -20.3217,5.7537 -2.3151,1.4079 -2.7881,1.1733 -1.6902,-0.8383 1.8982,-3.4782 14.3551,-9.3796 19.799,-9.3796 0.7766,0 1.5527,-0.2003 1.7247,-0.4451 0.1857,-0.2644 -0.044,-0.3248 -0.5654,-0.1486 -0.5552,0.1874 -0.7545,0.1204 -0.542,-0.1823 0.4153,-0.5913 -3.5597,-2.2877 -6.4888,-2.7693 -2.4221,-0.3981 -5.8295,-0.1566 -6.2507,0.4431 -0.1548,0.2203 -0.7858,0.3941 -1.4024,0.3862 -1.1125,-0.014 -1.1133,-0.02 -0.097,-0.7234 1.5484,-1.0731 4.1374,-1.96 7.1538,-2.4506 3.1544,-0.5132 8.5428,0.2967 13.9999,2.1043 1.8198,0.6027 3.4354,0.9842 3.5903,0.8478 0.155,-0.1363 -0.6863,-1.9655 -1.8694,-4.0648 -1.1832,-2.0994 -2.1513,-3.9154 -2.1513,-4.0356 0,-0.4098 1.8571,-0.2194 4.4375,0.4549 1.5007,0.3922 3.5539,1.4302 4.917,2.486 2.4898,1.9286 2.6112,1.916 3.1577,-0.3263 0.3062,-1.2573 3.6362,-4.5325 4.1492,-4.0811 0.1,0.087 0.8024,2.6324 1.5631,5.6562 0.7607,3.0237 1.5576,5.4978 1.771,5.4978 0.2134,0 0.8839,-1.9756 1.4898,-4.3901 0.6062,-2.4147 1.2726,-4.8837 1.4809,-5.4869 l 0.379,-1.0968 1.9187,1.5473 c 1.4695,1.1851 1.9881,2.0022 2.2148,3.4903 l 0.2962,1.943 1.847,-1.5579 c 1.0158,-0.8568 2.7679,-1.9602 3.8937,-2.4521 1.9687,-0.8603 6.396,-1.7672 6.396,-1.3101 0,0.1217 -0.9528,1.9689 -2.1175,4.1047 -1.1645,2.1358 -1.9801,4.0042 -1.8121,4.152 0.168,0.1478 1.2936,-0.084 2.5013,-0.5162 9.2242,-3.2967 17.4284,-3.3198 22.1517,-0.062 1.0154,0.7002 1.0146,0.7059 -0.097,0.7201 -0.6166,0.012 -1.2635,-0.1883 -1.4374,-0.4359 -0.9353,-1.3317 -11.9846,0.2874 -11.6471,1.7068 0.072,0.304 -0.2216,0.396 -0.7235,0.2267 -0.6165,-0.2082 -0.7306,-0.1222 -0.4216,0.3178 0.3122,0.4446 0.1926,0.5252 -0.4543,0.3069 -0.5215,-0.1762 -0.7511,-0.1162 -0.5654,0.1486 0.1719,0.2447 0.948,0.4451 1.7245,0.4451 4.0284,0 13.2536,3.7366 17.4794,7.0798 2.0055,1.5867 2.5391,2.3019 2.5391,3.4024 l 0,1.3933 -1.4072,-1.1864 c -2.7781,-2.3422 -15.1962,-6.6367 -19.1906,-6.6367 -1.7669,0 -2.2241,0.7239 -0.8621,1.3654 1.7879,0.8419 5.1537,3.7 6.3946,5.4296 1.2978,1.8091 2.7849,5.8341 2.7849,7.5378 0,1.0309 -0.1054,0.9842 -1.4571,-0.6446 -3.1432,-3.7883 -8.0667,-7.046 -15.936,-10.5445 -2.5352,-1.1269 -2.5337,-1.1223 0.6965,2.2366 2.4332,2.53 3.4805,5.0735 3.1109,7.5552 -0.2787,1.8724 0.4059,5.8022 1.6098,9.2403 0.482,1.3763 -0.6274,0.851 -2.0691,-0.9795 -1.0087,-1.2809 -1.5214,-2.6748 -1.8621,-5.0635 -0.2587,-1.8127 -0.7127,-3.9419 -1.0089,-4.7316 -0.6373,-1.6992 -3.6624,-4.2192 -6.7042,-5.5847 l -2.1754,-0.9767 2.792,2.3456 c 1.5355,1.29 2.4363,2.2495 2.0017,2.1324 -0.6611,-0.1783 -1.0251,1.196 -2.2269,8.4049 -1.9615,11.7664 -1.7566,11.0642 -3.3163,11.3649 -3.1907,0.6151 -3.8843,1.0673 -1.2438,0.8109 1.4611,-0.142 3.1093,-0.1317 3.6626,0.024 1.4186,0.3962 1.7864,1.5821 0.7909,2.5501 -0.8177,0.7951 -0.8901,0.7919 -2.1733,-0.096 -1.025,-0.7095 -1.7386,-0.851 -3.1321,-0.6214 -3.4017,0.5609 -3.4957,1.0879 -0.1964,1.1022 3.3976,0.015 4.252,0.6221 3.2329,2.2977 -0.5721,0.9407 -1.3742,1.0717 -5.4807,0.8953 -1.7967,-0.077 -2.6865,0.061 -2.6865,0.4158 0,0.372 1.0809,0.4864 3.6054,0.3817 4.0644,-0.1686 3.7564,-0.4644 4.3233,4.1532 0.4681,3.8125 2.889,9.4022 5.6697,13.0913 1.3757,1.8251 5.8164,6.3147 9.8682,9.9768 4.0518,3.6621 7.2449,6.7657 7.0958,6.8968 -0.41,0.3609 -5.2382,-1.8785 -9.9204,-4.6014 -7.7884,-4.5289 -13.3154,-11.0273 -15.5488,-18.2814 l -1.0098,-3.28 0.3219,2.4765 c 0.5108,3.9282 2.0562,7.7142 4.4138,10.8129 1.2003,1.5776 2.6529,3.5509 3.2281,4.3852 0.5752,0.8343 3.1081,3.9619 5.6286,6.9503 2.5204,2.9883 4.7742,5.7228 5.0082,6.0766 0.9318,1.4091 -5.3017,-2.9793 -9.6812,-6.8157 -3.5386,-3.0999 -5.0984,-4.8688 -6.5241,-7.3988 -1.9385,-3.4406 -2.4772,-3.4386 -1.0654,0 0.4444,1.0836 0.9198,2.4766 1.0564,3.0954 0.2295,1.0392 1.5814,3.8837 4.9753,10.4693 0.7339,1.4239 1.2405,2.5891 1.1258,2.5891 -0.1146,0 -1.4935,-1.2664 -3.0642,-2.8143 z m -24.8169,-12.8733 c 2.8104,-2.2679 3.9529,-3.61 5.5581,-6.5289 1.1114,-2.0207 2.1591,-4.3833 2.3283,-5.25 0.2476,-1.2686 0.068,-1.0792 -0.9189,0.9715 -0.6746,1.401 -1.8787,3.5285 -2.6757,4.7278 -1.4474,2.1781 -7.0891,7.4385 -10.4725,9.7647 l -1.7909,1.2313 2.217,-1.0307 c 1.2194,-0.567 3.809,-2.3155 5.7546,-3.8857 z m 17.2014,-39.578 c -0.5,-2.122 -0.4173,-2.7201 0.8232,-5.954 0.7585,-1.9774 1.3768,-4.0566 1.3741,-4.6204 -0.012,-1.2513 -2.1457,-5.3869 -3.6362,-7.0282 l -1.0909,-1.2012 0.3842,1.1256 c 0.2112,0.6192 0.7042,1.6794 1.0954,2.3562 1.3507,2.3367 1.411,4.9926 0.1933,8.5204 -1.2672,3.6713 -1.1943,6.3902 0.2221,8.2925 0.4797,0.6441 0.9438,1.103 1.0315,1.0196 0.088,-0.083 -0.09,-1.2132 -0.3967,-2.5105 z m -5.2303,0.355 c 1.0123,-1.7227 0.9944,-4.8011 -0.043,-7.2826 -1.162,-2.7811 -1.0639,-6.4704 0.2415,-9.0848 1.5556,-3.1155 0.2484,-2.0781 -1.5154,1.2027 -1.823,3.391 -1.8295,3.9109 -0.1053,8.4054 1.2154,3.1687 1.317,3.8615 0.856,5.8414 -0.2875,1.2356 -0.4535,2.2464 -0.3687,2.2464 0.085,0 0.5053,-0.5979 0.9346,-1.3285 z m 11.2768,-6.2103 c 0.8511,-2.9236 0.488,-6.8213 -0.7993,-8.5773 -0.4951,-0.6755 -0.5222,-0.6594 -0.2234,0.1315 0.7964,2.107 0.8306,7.6832 0.06,9.8592 -0.4291,1.2125 -0.5717,2.0211 -0.317,1.7969 0.2546,-0.2241 0.8303,-1.6687 1.2791,-3.2103 z m -17.2069,0.8298 c -0.5773,-1.4575 -0.4059,-8.4071 0.2511,-10.1762 0.1839,-0.4953 -0.06,-0.1914 -0.542,0.6754 -1.0725,1.9289 -1.1943,7.1338 -0.2245,9.5984 0.3719,0.9454 0.7695,1.6367 0.8834,1.5364 0.1134,-0.1009 -0.052,-0.8355 -0.368,-1.634 z m 23.3567,-19.2884 c -0.8353,-0.1079 -2.1159,-0.5711 -2.8454,-1.0283 -1.8224,-1.1419 -3.609,-1.4713 -5.1138,-0.9428 -1.1833,0.4155 -1.1409,0.4468 0.6392,0.4734 1.0485,0.016 2.6603,0.4332 3.5818,0.9274 0.9435,0.5062 2.4577,0.8702 3.4663,0.8331 1.7104,-0.063 1.7226,-0.075 0.2719,-0.2628 z m -26.6238,-1.0188 c 0.8443,-0.492 2.4561,-0.9166 3.5817,-0.9436 l 2.0468,-0.049 -1.7344,-0.4874 c -1.512,-0.4249 -2.0699,-0.3337 -4.3493,0.7114 -1.4382,0.6593 -3.1907,1.277 -3.8942,1.3726 -0.7853,0.1067 -0.4891,0.1963 0.7676,0.2322 1.2791,0.036 2.6224,-0.2771 3.5818,-0.8363 z"
       id="path22437-1"
       inkscape:connector-curvature="0" />
  </g>
</svg>
