<?xml version="1.0" encoding="UTF-8" standalone="no"?>
<!-- Created with Inkscape (http://www.inkscape.org/) -->

<svg
   xmlns:dc="http://purl.org/dc/elements/1.1/"
   xmlns:cc="http://creativecommons.org/ns#"
   xmlns:rdf="http://www.w3.org/1999/02/22-rdf-syntax-ns#"
   xmlns:svg="http://www.w3.org/2000/svg"
   xmlns="http://www.w3.org/2000/svg"
   xmlns:sodipodi="http://sodipodi.sourceforge.net/DTD/sodipodi-0.dtd"
   xmlns:inkscape="http://www.inkscape.org/namespaces/inkscape"
   width="513.57446"
   height="339.69254"
   id="svg3805"
   version="1.1"
   inkscape:version="0.48.4 r9939"
   sodipodi:docname="Nieuw document 4">
  <defs
     id="defs3807" />
  <sodipodi:namedview
     id="base"
     pagecolor="#ffffff"
     bordercolor="#666666"
     borderopacity="1.0"
     inkscape:pageopacity="0.0"
     inkscape:pageshadow="2"
     inkscape:zoom="1.4"
     inkscape:cx="392.24619"
     inkscape:cy="130.93858"
     inkscape:document-units="px"
     inkscape:current-layer="layer1"
     showgrid="false"
     fit-margin-top="0"
     fit-margin-left="0"
     fit-margin-right="0"
     fit-margin-bottom="0"
     inkscape:window-width="1600"
     inkscape:window-height="837"
     inkscape:window-x="-8"
     inkscape:window-y="-8"
     inkscape:window-maximized="1" />
  <metadata
     id="metadata3810">
    <rdf:RDF>
      <cc:Work
         rdf:about="">
        <dc:format>image/svg+xml</dc:format>
        <dc:type
           rdf:resource="http://purl.org/dc/dcmitype/StillImage" />
        <dc:title></dc:title>
      </cc:Work>
    </rdf:RDF>
  </metadata>
  <g
     inkscape:label="Laag 1"
     inkscape:groupmode="layer"
     id="layer1"
     transform="translate(-80.355632,-351.08734)">
    <path
       style="fill:#0f47af;fill-opacity:1;stroke:none"
       d="m 593.86211,351.08734 -172.5601,0 -340.944638,0 0,339.69254 513.504738,0 z"
       id="path3004"
       inkscape:connector-curvature="0"
       sodipodi:nodetypes="cccccc" />
    <path
       style="fill:#fcdd09;fill-opacity:1"
       d="m 80.355671,651.76535 0,-39.01269 1.219826,-1.60605 c 2.358414,-3.10507 4.888772,-6.93216 6.558524,-9.91949 4.344471,-7.77271 9.684794,-14.10259 16.150829,-19.14351 3.4135,-2.66118 8.08554,-5.66246 12.07745,-7.75846 4.86128,-2.55249 9.45539,-4.33634 14.7307,-5.71979 3.70854,-0.97254 6.01103,-1.39973 11.62525,-2.15678 4.95474,-0.66814 8.47079,-1.3921 12.12309,-2.4961 9.22517,-2.78856 16.66212,-7.31586 23.46893,-14.28693 2.04392,-2.09325 4.08904,-4.48203 5.90763,-6.90035 2.27204,-3.02127 4.87484,-6.96458 6.24599,-9.46284 2.87472,-5.2377 5.84748,-9.32569 9.87268,-13.57634 2.33611,-2.467 4.31842,-4.31282 6.71954,-6.25689 8.27471,-6.69965 18.24927,-11.42198 29.00846,-13.73372 2.32787,-0.50016 3.99753,-0.77547 7.95758,-1.31218 5.62177,-0.76187 9.53184,-1.58171 13.34627,-2.7984 12.58873,-4.0154 22.14036,-11.49862 30.91164,-24.21764 1.65435,-2.39896 2.88805,-4.36444 4.02245,-6.40831 1.75335,-3.15907 3.79399,-6.22671 6.10973,-9.18451 1.36358,-1.74165 5.5455,-6.15161 7.2388,-7.63355 6.51494,-5.70167 13.78583,-9.76505 22.41191,-12.52502 6.88958,-2.20435 10.61041,-3.04472 17.71459,-4.00098 1.98657,-0.26741 4.704,-0.70162 6.03874,-0.96491 16.30057,-3.2155 27.81424,-11.04451 38.05959,-25.87959 1.44899,-2.09808 3.15392,-4.80811 4.15606,-6.60612 4.84048,-8.6847 11.05619,-15.65493 18.73596,-21.01036 3.12705,-2.18055 5.51299,-3.53023 10.10217,-5.71444 9.3562,-4.45306 14.97854,-6.08594 26.01734,-7.55616 10.74702,-1.43139 18.84195,-4.24702 26.29952,-9.14774 1.16834,-0.76775 3.63406,-2.58873 4.39957,-3.24917 l 0.39258,-0.33866 56.97546,0 56.97555,0 -0.0284,43.88179 -0.0284,43.88176 -38.94134,25.62854 c -21.41772,14.09571 -39.0683,25.74633 -39.2235,25.89027 -0.4042,0.37492 -148.52925,97.85655 -148.93648,98.01565 -0.18622,0.0727 -12.55434,8.1756 -27.48467,18.0063 l -27.14605,17.87405 -0.0565,0.60333 -0.0564,0.6033 -49.52813,32.60267 -49.52814,32.60268 -66.30821,0 -66.308228,0 0,-39.01266 z"
       id="path3020"
       inkscape:connector-curvature="0" />
    <path
       style="fill:#06882f;stroke:none;fill-opacity:1"
       d="m 213.44486,690.77988 380.41725,-253.39286 0,253.39286 z"
       id="path3790"
       inkscape:connector-curvature="0" />
  </g>
</svg>
