<?xml version="1.0" encoding="UTF-8" standalone="no"?>
<!-- Created with Inkscape (http://www.inkscape.org/) -->

<svg
   xmlns:dc="http://purl.org/dc/elements/1.1/"
   xmlns:cc="http://creativecommons.org/ns#"
   xmlns:rdf="http://www.w3.org/1999/02/22-rdf-syntax-ns#"
   xmlns:svg="http://www.w3.org/2000/svg"
   xmlns="http://www.w3.org/2000/svg"
   xmlns:sodipodi="http://sodipodi.sourceforge.net/DTD/sodipodi-0.dtd"
   xmlns:inkscape="http://www.inkscape.org/namespaces/inkscape"
   width="323.24887"
   height="211.98955"
   id="svg4334"
   version="1.1"
   inkscape:version="0.48.4 r9939"
   sodipodi:docname="Nieuw document 28">
  <defs
     id="defs4336" />
  <sodipodi:namedview
     id="base"
     pagecolor="#ffffff"
     bordercolor="#666666"
     borderopacity="1.0"
     inkscape:pageopacity="0.0"
     inkscape:pageshadow="2"
     inkscape:zoom="0.35"
     inkscape:cx="379.48157"
     inkscape:cy="-162.57666"
     inkscape:document-units="px"
     inkscape:current-layer="layer1"
     showgrid="false"
     fit-margin-top="0"
     fit-margin-left="0"
     fit-margin-right="0"
     fit-margin-bottom="0"
     inkscape:window-width="1600"
     inkscape:window-height="837"
     inkscape:window-x="-8"
     inkscape:window-y="-8"
     inkscape:window-maximized="1" />
  <metadata
     id="metadata4339">
    <rdf:RDF>
      <cc:Work
         rdf:about="">
        <dc:format>image/svg+xml</dc:format>
        <dc:type
           rdf:resource="http://purl.org/dc/dcmitype/StillImage" />
        <dc:title></dc:title>
      </cc:Work>
    </rdf:RDF>
  </metadata>
  <g
     inkscape:label="Laag 1"
     inkscape:groupmode="layer"
     id="layer1"
     transform="translate(4.4815745,-157.79597)">
    <rect
       style="fill:#da121a;fill-opacity:1;stroke:none"
       id="rect3006"
       width="215.41502"
       height="211.98955"
       x="-4.4815745"
       y="157.79597" />
    <rect
       style="fill:#fcdd09;fill-opacity:1;stroke:none"
       id="rect3021"
       width="107.83379"
       height="211.98955"
       x="210.9335"
       y="157.79597" />
    <path
       style="fill:#ffffff"
       d="m 8.6545665,355.71023 c -1.256944,-0.54211 -1.739535,-1.78534 -1.135921,-2.92636 0.1847,-0.34923 2.5270405,-3.36172 5.2051355,-6.69447 2.678095,-3.33273 4.865072,-6.14392 4.859985,-6.24702 -0.0058,-0.10302 -0.806206,-1.52748 -1.780232,-3.16518 l -1.770954,-2.9777 -1.012325,-9.14344 c -0.556789,-5.0289 -1.010822,-9.3952 -1.008943,-9.70289 0.0028,-0.55062 0.122266,-0.6164 7.547532,-4.17149 4.149251,-1.98661 7.610111,-3.53904 7.690755,-3.44985 0.08064,0.0893 1.720168,2.20671 3.643305,4.70554 3.204996,4.16438 3.476034,4.57561 3.249538,4.92997 -0.13614,0.21275 -1.546105,2.01379 -3.133746,4.00259 l -2.886671,3.616 -1.850066,-3.74413 c -1.017556,-2.05928 -1.906661,-3.74412 -1.975829,-3.74412 -0.124579,0 -5.135677,2.89187 -5.550978,3.20341 -0.154351,0.11562 0.320956,1.98161 1.666493,6.5444 1.035246,3.51046 1.950162,6.53567 2.033234,6.72275 0.122555,0.27659 0.718828,-0.36608 3.193434,-3.44327 2.09746,-2.60829 3.044634,-3.93219 3.049375,-4.26233 0.01156,-0.71136 6.207834,-8.43925 6.547318,-8.16395 0.294856,0.23907 0.745825,-0.24411 0.909251,-0.97398 0.05752,-0.25643 0.218808,-0.68508 0.358706,-0.95262 0.224877,-0.43005 35.255914,-44.41566 35.917887,-45.09915 0.229502,-0.23683 0.29315,-0.23263 0.50317,0.0342 0.20927,0.26594 0.640526,-0.19344 3.333535,-3.55158 l 3.093136,-3.85709 -4.600624,-0.0501 c -2.530335,-0.028 -4.635628,-0.0168 -4.678407,0.0252 -0.04278,0.0417 0.44461,1.39565 1.083112,3.00857 0.717642,1.8128 1.097535,3.01337 0.994953,3.14413 -2.183885,2.78347 -34.919812,43.76365 -35.148765,44.00068 -0.451085,0.46697 2.503713,-16.82691 3.596306,-21.04851 2.560309,-9.89263 3.739124,-18.92695 4.415202,-33.83782 0.10001,-2.20603 0.317285,-4.7235 0.482764,-5.59435 1.765578,-9.29089 7.955376,-16.88925 15.271006,-18.74609 1.950134,-0.49496 5.061971,-0.46185 7.136856,0.0759 2.587653,0.67069 5.55832,2.15504 7.837908,3.9163 2.337368,1.80588 5.415907,4.93486 7.468391,7.59071 l 1.308337,1.69293 1.862206,0.71296 c 1.024233,0.39214 2.281929,0.91723 2.79484,1.16689 0.903123,0.43962 0.942983,0.44315 1.262147,0.11141 0.181232,-0.18812 12.279557,-15.21793 26.885097,-33.39917 l 26.55552,-33.05678 -0.44357,-0.69588 c -2.01011,-3.15359 -0.83409,-7.34053 2.51092,-8.93957 2.22386,-1.06305 5.14137,-0.52623 6.78182,1.24788 2.89337,3.12915 2.01488,8.00061 -1.78781,9.91346 -0.9768,0.49135 -3.07319,0.69207 -3.98496,0.38153 -0.54092,-0.1842 -0.59965,-0.14725 -1.45635,0.91822 -0.719,0.89416 -0.84873,1.16201 -0.6666,1.37642 0.18441,0.21696 -1.67028,2.70305 -10.04685,13.46664 -5.65015,7.26021 -11.77734,15.14682 -13.61599,17.52581 -1.97875,2.56025 -3.47442,4.3296 -3.66501,4.33562 -0.19453,0.008 -4.76064,5.60127 -11.53628,14.13601 -6.167864,7.76914 -11.469915,14.44078 -11.782315,14.82578 l -0.568033,0.70006 0.391946,0.41882 c 1.429505,1.52759 1.352301,3.6013 -0.20291,5.45377 l -0.469699,0.55944 -4.455379,-0.0638 c -4.509055,-0.0644 -7.035083,0.14949 -7.028984,0.59575 0.0087,0.59074 0.289652,0.68362 1.439939,0.47498 0.688882,-0.12486 2.765531,-0.17944 5.292686,-0.13885 4.63401,0.0745 4.608631,0.0669 4.453616,1.33743 -0.101744,0.83291 -0.511668,1.33289 -1.495522,1.82352 -0.600811,0.29959 -1.137771,0.35312 -3.542891,0.35312 l -2.834758,0 -0.485423,0.51283 c -0.267078,0.28204 -2.551898,3.11996 -5.077608,6.30647 -3.935762,4.96549 -4.587646,5.87808 -4.560303,6.38402 0.0289,0.51831 -2.575801,3.85664 -21.335676,27.35453 -16.228181,20.32684 -21.4071,26.69515 -21.531996,26.47711 -0.126602,-0.22116 -0.781724,0.48936 -2.845395,3.08514 -1.474509,1.85476 -2.649682,3.40061 -2.61147,3.43521 0.03815,0.0347 1.465982,0.36661 3.172855,0.7377 l 3.103425,0.67467 1.229514,-0.60765 1.229514,-0.60764 -1.34467,-2.72337 -1.344698,-2.72343 20.095121,-25.15519 C 63.910044,292.2325 73.564343,280.14823 74.3117,279.21392 l 1.358861,-1.6987 1.114994,2.53785 c 1.552002,3.53244 4.81316,9.8023 6.315244,12.14156 2.792759,4.34936 6.039754,8.00444 8.25078,9.2879 7.697927,4.46831 17.511521,5.16679 31.626801,2.25102 4.53022,-0.93582 8.84518,-1.98855 16.41378,-4.00456 8.61163,-2.29388 10.84531,-2.68675 15.26358,-2.68482 5.51647,0.002 9.82735,1.23082 14.17379,4.03876 1.71245,1.10626 5.62899,4.62279 7.83056,7.03075 4.08113,4.46369 6.44382,9.63085 7.55783,16.5286 1.05111,6.50862 0.80736,10.16837 -0.88789,13.33159 -0.80274,1.49781 -3.12493,3.75006 -4.6963,4.5549 -1.22709,0.62847 -5.59159,2.24598 -7.36838,2.73073 -2.57847,0.7035 -5.57619,0.53438 -10.20259,-0.57554 -1.48602,-0.35653 -2.91174,-0.6482 -3.16823,-0.6482 -0.5583,0 -0.58313,-0.27043 -0.19106,-2.07813 0.35093,-1.61765 0.92939,-2.69726 1.6886,-3.15141 0.55049,-0.32932 0.835,-0.3546 2.80744,-0.24943 2.05075,0.10946 2.29497,0.084 3.71988,-0.3859 4.83995,-1.59593 7.73157,-5.15258 7.73157,-9.50972 0,-1.1836 -0.17777,-2.21637 -0.77424,-4.50247 -0.67487,-2.58594 -0.7667,-3.18191 -0.71571,-4.6449 0.048,-1.37793 0.1347,-1.7824 0.48303,-2.25981 0.41631,-0.57019 0.41749,-0.58769 0.0616,-0.90234 -0.34786,-0.3076 -0.38307,-0.291 -0.85199,0.40133 -1.00744,1.48742 -0.96801,3.47412 0.15638,7.87197 0.47776,1.86907 0.68683,3.10541 0.68683,4.0618 0,3.21036 -1.90681,6.12026 -5.07148,7.7394 -2.1603,1.10521 -3.24775,1.3344 -5.61949,1.18418 -1.58758,-0.1005 -2.18749,-0.0694 -2.70304,0.14138 -1.39626,0.57002 -2.44339,2.52917 -2.74529,5.13653 l -0.12979,1.12277 -1.16968,0.0985 c -0.6433,0.0543 -6.88105,0.22759 -13.86167,0.38543 -6.9806,0.15788 -13.6418,0.33612 -14.80267,0.39625 l -2.11067,0.10946 -1.1339,-0.91592 c -1.13658,-0.91804 -3.099,-2.1001 -3.48652,-2.1001 -0.11389,0 -1.18506,0.57733 -2.38084,1.28295 l -2.17415,1.2829 -1.30859,-2.14865 -1.30857,-2.14865 -1.03455,3.03246 -1.03456,3.03242 -0.86202,-0.11561 c -0.47412,-0.0635 -2.80718,-0.11562 -5.18458,-0.11562 l -4.32259,0 -0.630474,-0.51425 -0.63049,-0.51426 2.601094,-3.51603 c 2.40278,-3.24798 2.57505,-3.53532 2.25996,-3.76882 -0.18759,-0.13913 -0.38405,-0.25139 -0.43655,-0.24943 -0.0526,0.002 -1.25341,1.59361 -2.66878,3.53717 -1.879554,2.58099 -2.677174,3.5342 -2.958304,3.53537 -0.21187,10e-4 -0.81433,0.0462 -1.33921,0.10022 l -0.95428,0.0985 -0.858842,-1.11823 c -0.472387,-0.61501 -0.966222,-1.12168 -1.097448,-1.12588 -0.357665,-0.0112 -0.30318,-0.15005 0.469757,-1.19479 0.965644,-1.3051 3.168573,-3.53188 4.458213,-4.50642 3.848274,-2.90804 8.824534,-4.08005 14.585824,-3.43521 3.85963,0.43198 8.81818,1.78585 13.70392,3.74161 l 2.32953,0.93252 7.01401,-0.98775 c 3.8577,-0.54323 7.01402,-1.06238 7.01402,-1.15367 0,-0.0913 -0.49919,-1.05707 -1.10933,-2.14622 -3.79722,-6.77862 -4.52533,-11.36185 -2.11917,-13.34007 0.35573,-0.29246 0.88413,-0.61257 1.17419,-0.71136 l 0.52742,-0.17945 0.003,-2.54583 c 0.006,-4.07572 0.68258,-6.31067 2.4296,-8.01763 1.42387,-1.39117 2.61627,-1.77316 5.58309,-1.78855 1.31215,-0.008 2.77224,0.0294 3.2446,0.0809 0.76767,0.0834 0.86502,0.0507 0.91705,-0.30542 0.0517,-0.35429 -0.0775,-0.42173 -1.16081,-0.60605 -4.04921,-0.68896 -7.67147,0.15117 -9.52969,2.21052 -1.67932,1.86106 -2.24623,3.62182 -2.38691,7.41365 -0.10434,2.81004 -0.11012,2.8417 -0.60477,3.14765 -3.4993,2.16519 -3.43395,6.30443 0.21245,13.4544 0.74542,1.46167 1.31964,2.68737 1.27602,2.7238 -0.0436,0.0364 -2.83961,0.4532 -6.21338,0.9261 l -6.13413,0.85985 -2.3076,-0.91793 c -6.93227,-2.75756 -13.26951,-4.10467 -18.15623,-3.8595 -3.90613,0.19596 -7.83877,1.51444 -10.628354,3.56332 -1.54108,1.13183 -4.215474,3.89711 -5.236296,5.41412 l -0.820948,1.22 -10.930812,0 -10.930812,0 -0.617893,-0.53943 -0.617922,-0.53942 1.712336,-1.82047 c 3.203522,-3.40593 3.070648,-3.21918 3.27298,-4.59991 0.173716,-1.18495 0.150882,-1.33141 -0.425418,-2.72707 -0.399143,-0.9667 -0.694143,-2.12796 -0.856211,-3.37046 -0.312892,-2.39897 -0.558523,-2.09658 -0.562425,0.69236 -0.0022,1.57121 0.07457,2.2539 0.302458,2.68406 0.265922,0.5025 0.27546,0.76556 0.07284,2.03768 l -0.232682,1.46075 -2.410785,2.21183 c -1.32594,1.21652 -3.473925,2.98495 -4.773359,3.92984 l -2.362543,1.71801 -11.570037,-0.12206 -11.570065,-0.12205 -1.892469,2.07004 -1.89244,2.07009 -2.115554,-1.08486 c -1.669413,-0.85604 -3.136435,-1.39081 -6.95629,-2.53575 -4.041986,-1.21151 -4.881056,-1.40932 -5.085267,-1.19892 -0.134696,0.13858 -2.405092,2.97927 -5.045726,6.31258 -3.209795,4.05179 -5.035176,6.19931 -5.507303,6.47917 -0.79531,0.47148 -1.5800115,0.52297 -2.4239095,0.15901 z m 44.8380395,-26.032 c 2.794898,-0.71794 5.128046,-1.30534 5.184728,-1.30534 0.08614,0 -0.08064,-0.7442 -0.197996,-0.88286 -0.02023,-0.0252 -2.30329,0.53685 -5.073301,1.24645 l -5.03639,1.29014 -1.726123,-1.54752 c -6.020475,-5.39756 -5.717613,-5.15336 -5.975297,-4.81766 -0.132672,0.17273 -0.216784,0.38515 -0.187302,0.47196 0.0951,0.27882 7.482035,6.83476 7.710063,6.84262 0.12111,0.006 2.506633,-0.57982 5.301502,-1.29779 z m 4.190584,-56.68411 c 1.974471,-0.4934 3.69175,-1.32041 4.844464,-2.33302 1.594607,-1.40081 1.551106,-1.13803 1.435979,-8.67466 -0.105791,-6.92234 0.07024,-9.50115 0.82696,-12.12114 0.419549,-1.45243 1.344582,-3.0712 2.172958,-3.80238 0.540631,-0.47725 0.667291,-0.69734 0.534619,-0.92897 -0.277484,-0.48455 -0.625321,-0.36034 -1.455749,0.51991 -2.512357,2.66305 -3.201759,6.38766 -3.040385,16.42578 0.08064,5.00616 0.04943,6.43841 -0.147125,6.80651 -0.561471,1.05116 -2.117664,2.10125 -4.297126,2.89962 -1.873016,0.68611 -4.664706,0.77295 -5.699721,0.1772 -1.06866,-0.615 -1.430545,-1.25266 -1.511536,-2.66329 -0.06648,-1.15773 -0.01734,-1.35179 0.64437,-2.55812 2.603897,-4.74518 2.870686,-5.45161 3.628708,-9.6084 1.166589,-6.39685 2.475012,-9.7275 4.741593,-12.06981 0.669921,-0.69227 1.654382,-1.51043 2.1877,-1.81812 1.005012,-0.57984 1.158322,-0.83311 0.719724,-1.18878 -0.198286,-0.16068 -0.517219,-0.0442 -1.38372,0.50527 -1.672505,1.06048 -3.301364,2.87387 -4.314036,4.80285 -1.414734,2.6947 -1.833445,4.1499 -3.204071,11.13429 -0.467994,2.38478 -1.005099,3.74085 -2.673846,6.75091 l -1.240556,2.23773 0,1.67828 c 0,1.36562 0.07111,1.78257 0.380731,2.23776 1.234861,1.81439 3.681171,2.38237 6.850065,1.59049 z m 16.912671,-24.64611 c 0.577368,-0.29965 1.253417,-0.69728 1.502344,-0.88364 l 0.452616,-0.33882 -1.259516,-0.68821 c -2.20591,-1.2053 -3.39172,-1.46637 -4.674968,-1.02929 -0.761577,0.2595 -0.777706,0.69297 -0.07631,2.04621 0.367609,0.70913 0.724985,1.11084 1.192863,1.34096 0.80901,0.39788 1.417798,0.30276 2.862853,-0.44721 z m 71.094459,-3.70967 c -14.59105,-11.49393 -26.68267,-21.04629 -26.87029,-21.2275 -0.32697,-0.3158 -0.13441,-0.59547 4.65074,-6.75088 2.7455,-3.53177 5.01191,-6.4439 5.03642,-6.47139 0.026,-0.028 3.41118,2.60252 7.52589,5.84437 l 7.48131,5.89432 -0.45279,0.58916 c -0.24887,0.32404 -2.37237,3.14024 -4.71856,6.25819 -4.1313,5.4903 -4.25391,5.67845 -3.88937,5.96732 0.20696,0.16405 2.21875,1.78218 4.47053,3.59584 2.25175,1.81364 4.18,3.28872 4.28498,3.27791 0.10493,-0.0112 2.23436,-2.75338 4.73194,-6.09469 2.49759,-3.34132 4.60178,-6.05624 4.67601,-6.03314 0.14683,0.0459 1.63348,1.22766 11.27637,8.96529 l 6.36998,5.1114 -0.14018,-5.11185 -0.14019,-5.11187 2.90968,-0.49665 c 2.69778,-0.46051 3.24011,-0.59564 3.03243,-0.75565 -0.98917,-0.7622 -15.25198,-12.46732 -15.31716,-12.57037 -0.0514,-0.0809 1.78769,-2.7416 4.08647,-5.91257 2.29875,-3.17094 4.15931,-5.78323 4.13451,-5.80507 -1.38939,-1.22377 -8.8509,-6.93041 -8.93779,-6.83573 -0.0688,0.075 -1.95025,2.40202 -4.18101,5.17125 -2.23077,2.76919 -4.12038,5.10423 -4.19914,5.18891 -0.0789,0.0845 -3.35311,-2.31101 -7.27635,-5.32387 -3.92322,-3.01284 -7.24684,-5.54548 -7.38584,-5.62804 -0.15985,-0.0949 -0.43539,0.0112 -0.75048,0.28893 -0.27373,0.24159 0.4466,-0.77765 1.60088,-2.26482 1.1543,-1.48717 3.45274,-4.4474 5.1077,-6.57833 l 3.00899,-3.87438 0.89139,0.71825 c 0.6605,0.53217 49.94894,39.35135 50.40306,39.69702 0.0439,0.0333 0.0387,0.10022 -0.0116,0.14865 -0.0497,0.0484 -5.96859,1.35736 -13.15325,2.9087 -7.18473,1.5513 -13.07785,2.83372 -13.09586,2.84985 -0.0173,0.0168 0.30584,6.65816 0.71964,14.76017 0.41386,8.10197 0.72918,15.13103 0.70076,15.62009 l -0.0517,0.88919 -26.5292,-20.89801 z m -10.40174,-43.16432 c 0.13065,-0.15397 0.28066,-0.27966 0.33304,-0.27966 0.0523,0 -0.0116,0.12597 -0.14221,0.27966 -0.13065,0.15397 -0.28038,0.27967 -0.33301,0.27967 -0.0523,0 0.0116,-0.12598 0.14221,-0.27967 z"
       id="path4319"
       inkscape:connector-curvature="0" />
  </g>
</svg>
