<?xml version="1.0" encoding="UTF-8" standalone="no"?>
<!-- Created with Inkscape (http://www.inkscape.org/) -->

<svg
   width="155.4655mm"
   height="116.62901mm"
   viewBox="0 0 155.4655 116.62901"
   version="1.1"
   id="svg1"
   xml:space="preserve"
   inkscape:version="1.4.2 (f4327f4, 2025-05-13)"
   sodipodi:docname="drawing.svg"
   xmlns:inkscape="http://www.inkscape.org/namespaces/inkscape"
   xmlns:sodipodi="http://sodipodi.sourceforge.net/DTD/sodipodi-0.dtd"
   xmlns="http://www.w3.org/2000/svg"
   xmlns:svg="http://www.w3.org/2000/svg"><sodipodi:namedview
     id="namedview1"
     pagecolor="#ffffff"
     bordercolor="#000000"
     borderopacity="0.25"
     inkscape:showpageshadow="2"
     inkscape:pageopacity="0.0"
     inkscape:pagecheckerboard="0"
     inkscape:deskcolor="#d1d1d1"
     inkscape:document-units="mm"
     inkscape:zoom="1.4142136"
     inkscape:cx="208.24295"
     inkscape:cy="132.93607"
     inkscape:window-width="1715"
     inkscape:window-height="906"
     inkscape:window-x="352"
     inkscape:window-y="357"
     inkscape:window-maximized="0"
     inkscape:current-layer="layer1" /><defs
     id="defs1" /><g
     inkscape:label="Layer 1"
     inkscape:groupmode="layer"
     id="layer1"
     transform="translate(-29.421437,-96.701324)"><path
       style="fill:#f9da0d;fill-opacity:1;stroke:#000000;stroke-width:0.1;stroke-opacity:0;paint-order:stroke markers fill"
       d="M 29.471437,96.751324 V 213.28034 H 184.83694 V 96.751324 Z"
       id="path1"
       sodipodi:nodetypes="ccccc" /><path
       id="path2"
       style="fill:#012547;fill-opacity:1;stroke:#000000;stroke-width:0.1;stroke-opacity:0;paint-order:stroke markers fill"
       d="m 106.85911,116.91483 c -40.487509,0 -72.834315,16.99134 -72.834313,37.95169 -2e-6,20.96035 27.497289,37.9522 72.834313,37.9522 46.6477,0 73.3087,-16.99185 73.3087,-37.9522 0,-20.17394 -32.82119,-37.95169 -73.3087,-37.95169 z m 0,2.17764 c 43.59748,0 71.09179,19.25548 71.09179,35.77405 0,22.00889 -30.44551,35.78954 -71.09179,35.78954 -40.618577,0 -70.901098,-14.82919 -70.901098,-35.78954 0,-20.17263 34.804366,-35.77405 70.901098,-35.77405 z" /><path
       id="path3"
       style="fill:#012547;fill-opacity:1;stroke:#000000;stroke-width:0.1;stroke-opacity:0;paint-order:stroke markers fill"
       d="m 176.4968,154.86678 c -1e-5,21.88103 -32.82052,34.39807 -69.40049,34.39807 -38.93919,0 -69.793682,-14.08986 -69.793682,-34.39807 0,-18.66998 33.148173,-34.39808 69.793682,-34.39808 39.39794,0 69.40049,17.8253 69.40049,34.39808 z"
       sodipodi:nodetypes="sssss" /><path
       style="fill:#f9da0d;fill-opacity:1;stroke:#012547;stroke-width:0.5;stroke-dasharray:none;stroke-opacity:1;paint-order:stroke markers fill"
       d="m 72.59086,150.53394 0.16219,4.33274 c 3.938859,-0.63982 7.47356,0.10028 11.816577,1.48286 17.176513,5.46807 51.529553,16.6359 51.529553,16.6359 1.09913,-2.20282 6.41007,-5.70532 1.49362,-7.03004 L 88.18411,152.64238 c -5.422427,-1.46106 -9.669561,-2.33623 -15.59325,-2.10844 z"
       id="path4"
       sodipodi:nodetypes="ccscssc" /><path
       style="fill:#f9da0d;fill-opacity:1;stroke:#012547;stroke-width:0.5;stroke-dasharray:none;stroke-opacity:1;paint-order:stroke markers fill"
       d="m 75.009943,156.9787 11.512458,-3.49017 5.716417,2.21226 v 0.90362 l -14.596948,3.89253 z"
       id="path5"
       sodipodi:nodetypes="cccccc" /><path
       style="fill:none;stroke:#012547;stroke-width:0.3;stroke-dasharray:none;stroke-opacity:1;paint-order:stroke markers fill"
       d="m 92.261988,155.74572 -14.891852,3.88573"
       id="path6"
       sodipodi:nodetypes="cc" /><path
       style="fill:#f9da0d;fill-opacity:1;stroke:#012547;stroke-width:0.5;stroke-dasharray:none;stroke-opacity:1;paint-order:stroke markers fill"
       d="m 72.634873,150.48032 c 0.803523,3.46123 1.390465,6.77928 6.517046,9.56264 l 17.543735,9.52497 c 9.495236,5.15522 24.762246,-0.47455 29.440526,-5.06263 3.59236,3.14494 7.97798,4.14338 13.64699,3.79984 -2.82721,15.90877 -30.63485,15.04737 -41.827215,7.64734 L 77.271946,162.27689 c -4.460311,-2.94901 -5.487049,-7.78018 -4.637073,-11.79657 z"
       id="path7"
       sodipodi:nodetypes="cssccssc" /><path
       id="path8"
       style="fill:#f9da0d;fill-opacity:1;stroke:#012547;stroke-width:0.5;stroke-dasharray:none;stroke-opacity:1;paint-order:stroke markers fill"
       d="m 110.51987,142.76028 -3.1626,0.73019 0.0114,2.13165 -1.27434,0.24288 0.0811,0.82269 1.27434,-0.25477 c -0.0911,1.19429 0.70763,1.68999 1.52911,2.14302 l -2.24018,1.49345 c -1.01058,0.67375 -0.17581,4.10287 0.96842,11.90057 l -22.021394,17.72398 h 1.66088 l 22.176424,-17.71623 c 0,0 -1.35982,4.60208 -0.8847,7.5675 -0.69012,0.40879 -1.29076,0.8487 -1.38648,1.68206 l 3.57911,-0.44958 c 0.0288,-3.3528 1.22925,-7.38994 2.07429,-9.66969 l 0.0594,9.33431 2.20451,-0.66249 c 0,0 0.96734,-7.90759 0.56948,-12.36566 l 14.69265,-11.30732 c 1.10757,-0.85235 0.54854,-2.92276 -0.52762,-2.00504 l -12.37547,10.47171 1.48156,-2.28875 c 0.60893,-0.94065 0.55664,-1.65258 -0.59014,-2.47427 l -3.92793,-2.81429 c -0.78652,-0.56356 -1.36049,-0.48854 -2.13734,-0.0941 l -1.99678,1.01338 c 0.45423,-0.75935 0.69215,-1.57722 0.40877,-2.3673 l 1.44022,-0.23151 -0.10439,-0.71417 -1.51308,0.31265 z m 3.57963,7.37991 2.54299,1.31155 -0.67386,4.28966 -0.84956,0.66404 z m -5.65031,3.81734 c 0,0 0.36437,4.52961 1.64228,4.38216 l -0.008,1.97817 -1.32446,0.97669 c -0.57342,-1.57282 -0.30955,-7.33702 -0.30955,-7.33702 z"
       sodipodi:nodetypes="cccccccccccccccccccccccccccccccccccccccccc" /><path
       style="fill:#f9da0d;fill-opacity:1;stroke:#012547;stroke-width:0.5;stroke-dasharray:none;stroke-opacity:1;paint-order:stroke markers fill"
       d="m 79.577165,179.33969 c 4.182506,0.35404 1.035636,-0.40874 5.222586,-0.21221 1.347578,0.0633 1.567622,-0.5374 -0.135122,-0.53489 -4.05736,0.006 -1.110662,0.61925 -4.989163,0.38667 -1.657581,-0.0994 -1.006733,0.28353 -0.0983,0.36043 z"
       id="path10"
       sodipodi:nodetypes="sssss" /><path
       style="fill:#f9da0d;fill-opacity:1;stroke:#012547;stroke-width:0.5;stroke-dasharray:none;stroke-opacity:1;paint-order:stroke markers fill"
       d="m 83.520941,180.48745 c 1.17789,0.0952 1.040074,0.64465 -0.462176,0.42449 -1.155078,-0.16929 -1.644689,-0.14116 -2.761908,0.13367 -1.099199,0.27039 -1.685558,-0.37007 -0.112528,-0.6271 1.573029,-0.25703 1.707578,-0.0627 3.336612,0.069 z"
       id="path11"
       sodipodi:nodetypes="cccccc" /><path
       style="fill:#f9da0d;fill-opacity:1;stroke:#012547;stroke-width:0.5;stroke-dasharray:none;stroke-opacity:1;paint-order:stroke markers fill"
       d="m 81.827903,181.91856 c 0.979829,0.14253 2.414091,0.54395 3.506326,-0.40663 0.955868,-0.8319 2.847197,0.32089 3.835352,-0.42831 0.606523,-0.45986 1.65644,-0.22074 2.513702,-0.27717 0.768536,-0.0506 0.951233,0.41842 -0.238893,0.42253 -0.863666,0.003 -1.308132,-0.0748 -2.030663,0.29304 -1.062744,0.54104 -3.0266,-0.37012 -3.767681,0.34733 -1.312383,1.27052 -3.977017,0.61681 -4.231551,0.52741 -1.278654,-0.44907 -0.154598,-0.56082 0.413408,-0.4782 z"
       id="path12"
       sodipodi:nodetypes="sssssssss" /><path
       style="fill:#f9da0d;fill-opacity:1;stroke:#012547;stroke-width:0.5;stroke-dasharray:none;stroke-opacity:1;paint-order:stroke markers fill"
       d="m 85.578333,180.22602 c 2.572269,-0.43939 1.697194,-0.38133 3.135111,-0.2746 1.223385,0.0908 1.90972,-0.40961 0.546049,-0.39909 -0.795192,0.006 -2.968675,-0.14162 -3.665497,0.12437 -0.273668,0.10446 -1.203486,0.75223 -0.01566,0.54932 z"
       id="path56"
       sodipodi:nodetypes="sssss" /><path
       id="path57"
       style="fill:#f9da0d;fill-opacity:1;stroke:none;stroke-width:0.1;stroke-opacity:0;paint-order:stroke markers fill"
       d="m 77.873283,128.12603 c -2.330724,0.11968 -4.604325,0.87334 -6.869865,1.40301 l 1.620573,0.72606 1.544284,10.08778 -1.112421,1.08452 6.749094,-1.08248 c 6.0743,-1.11429 4.580221,-12.05587 -1.931665,-12.21889 z m -1.597319,1.67535 c 5.150937,-0.18623 5.693539,8.41689 1.803508,9.51931 -0.7737,0.21927 -1.440023,0.0663 -1.665532,-1.37821 l -1.035079,-6.62956 c -0.16369,-1.0485 0.196627,-1.48624 0.897103,-1.51154 z"
       sodipodi:nodetypes="scccccscsccc" /><path
       id="path59"
       style="fill:#f9da0d;fill-opacity:1;stroke:none;stroke-width:0.1;stroke-opacity:0;paint-order:stroke markers fill"
       d="m 84.114762,133.49779 c -0.317808,3.84833 2.609545,6.79894 8.1101,4.91495 l 0.329179,-3.8685 c -1.389902,1.83979 -3.610661,4.52552 -5.852356,0.32195 l 5.568135,-2.466 c -1.000254,-5.53188 -7.766396,-3.60867 -8.155058,1.0976 z m 5.52111,-1.49965 -3.199804,1.60766 c -0.345075,-2.84082 2.391562,-3.74652 3.199804,-1.60766 z"
       sodipodi:nodetypes="sccccsccc" /><path
       id="path60"
       style="fill:#f9da0d;fill-opacity:1;stroke:none;stroke-width:0.1;stroke-opacity:0;paint-order:stroke markers fill"
       d="m 135.16383,133.47759 c -1.55553,3.53426 1.03915,7.29123 6.06369,7.29123 l 1.57285,-3.54961 c -1.71549,1.63316 -4.92225,3.15009 -5.67042,-1.55473 l 6.10101,-0.56478 c 0.73358,-4.74664 -6.04029,-6.22726 -8.06713,-1.62211 z m 5.70832,0.383 -3.48301,0.22812 c 0.58191,-2.71232 3.42004,-2.39341 3.48301,-0.22812 z"
       sodipodi:nodetypes="sccccsccc" /><path
       style="fill:#f9da0d;fill-opacity:1;stroke:none;stroke-width:0.1;stroke-opacity:0;paint-order:stroke markers fill"
       d="m 98.87266,137.41136 1.011559,-0.75407 -0.04677,-10.28005 -0.964789,-0.93803 h 4.82796 l -1.2875,0.93803 v 3.18586 c 0.72638,-1.25449 1.70641,-2.2835 2.82894,-3.18586 l -0.59932,-0.93803 h 5.35781 c -1.80024,0.55225 -3.46922,1.57134 -4.69635,3.01595 2.20311,1.7671 3.21808,4.40158 4.0845,7.83829 l 1.0418,0.95255 -4.66328,0.0661 0.92604,-0.85329 c -0.58722,-2.38054 -1.70652,-4.2889 -3.15847,-6.25083 l -1.12167,1.0914 0.0331,5.24211 1.2875,0.77061 z"
       id="path61"
       sodipodi:nodetypes="cccccccccccccccccccc" /><path
       style="fill:#f9da0d;fill-opacity:1;stroke:none;stroke-width:0.1;stroke-opacity:0;paint-order:stroke markers fill"
       d="m 110.75064,137.246 1.00602,-0.97246 0.10298,-6.82824 -1.13338,-1.25649 3.34656,-0.0565 0.01,1.69348 c 1.75423,-2.2005 5.59349,-2.58475 5.53731,0.24756 l -0.14232,6.55011 0.77375,0.74634 -4.13934,-0.0234 1.08745,-0.76005 0.0819,-4.89938 c 0.056,-3.35295 -3.25783,-1.74245 -3.28574,1.07576 l -0.0351,3.54299 0.8419,1.0173 z"
       id="path62"
       sodipodi:nodetypes="ccccccsccccssccc" /><path
       style="fill:#f9da0d;fill-opacity:1;stroke:none;stroke-width:0.1;stroke-opacity:0;paint-order:stroke markers fill"
       d="m 121.14507,128.52843 0.9564,0.99524 -0.33443,7.37047 -1.10749,0.52873 4.11108,0.2294 -0.89078,-0.70511 0.46131,-8.2006 z"
       id="path63"
       sodipodi:nodetypes="cccccccc"
       inkscape:label="path63" /><circle
       style="fill:#f9da0d;fill-opacity:1;stroke:none;stroke-width:0.1;stroke-opacity:0;paint-order:stroke markers fill"
       id="path64"
       cx="123.15503"
       cy="126.46114"
       r="1.3108793" /><path
       id="path65"
       style="fill:#f9da0d;fill-opacity:1;stroke:none;stroke-width:0.1;stroke-opacity:0;paint-order:stroke markers fill"
       d="m 125.50345,129.00091 1.14618,0.9834 -1.26038,10.92544 -1.17409,0.72243 4.35425,0.23875 -1.14721,-0.77877 0.29972,-2.78897 c 8.02954,3.49422 8.34858,-8.40198 2.71353,-8.88215 z m 3.02721,1.76062 c 6.32902,0 3.84452,8.79018 -0.65629,6.0942 z"
       sodipodi:nodetypes="cccccccccccc" /></g></svg>
