<?xml version="1.0" encoding="UTF-8" standalone="no"?>
<!-- Created with Inkscape (http://www.inkscape.org/) -->

<svg
   xmlns:dc="http://purl.org/dc/elements/1.1/"
   xmlns:cc="http://creativecommons.org/ns#"
   xmlns:rdf="http://www.w3.org/1999/02/22-rdf-syntax-ns#"
   xmlns:svg="http://www.w3.org/2000/svg"
   xmlns="http://www.w3.org/2000/svg"
   xmlns:sodipodi="http://sodipodi.sourceforge.net/DTD/sodipodi-0.dtd"
   xmlns:inkscape="http://www.inkscape.org/namespaces/inkscape"
   width="324.76401"
   height="216.173"
   id="svg5144"
   version="1.1"
   inkscape:version="0.48.4 r9939"
   sodipodi:docname="Nieuw document 38">
  <defs
     id="defs5146" />
  <sodipodi:namedview
     id="base"
     pagecolor="#ffffff"
     bordercolor="#666666"
     borderopacity="1.0"
     inkscape:pageopacity="0.0"
     inkscape:pageshadow="2"
     inkscape:zoom="2.8"
     inkscape:cx="204.76218"
     inkscape:cy="87.506456"
     inkscape:document-units="px"
     inkscape:current-layer="layer1"
     showgrid="false"
     fit-margin-top="0"
     fit-margin-left="0"
     fit-margin-right="0"
     fit-margin-bottom="0"
     inkscape:window-width="1600"
     inkscape:window-height="837"
     inkscape:window-x="-8"
     inkscape:window-y="-8"
     inkscape:window-maximized="1" />
  <metadata
     id="metadata5149">
    <rdf:RDF>
      <cc:Work
         rdf:about="">
        <dc:format>image/svg+xml</dc:format>
        <dc:type
           rdf:resource="http://purl.org/dc/dcmitype/StillImage" />
        <dc:title></dc:title>
      </cc:Work>
    </rdf:RDF>
  </metadata>
  <g
     inkscape:label="Laag 1"
     inkscape:groupmode="layer"
     id="layer1"
     transform="translate(-169.04657,-312.84711)">
    <rect
       style="fill:#0c40aa;fill-opacity:1;fill-rule:evenodd;stroke:none"
       id="rect5068"
       width="324.76401"
       height="216.173"
       x="169.04657"
       y="312.84711" />
    <path
       style="fill:#ffffff;stroke:#000000;stroke-width:1px;stroke-linecap:butt;stroke-linejoin:miter;stroke-opacity:1"
       d="m 190.90839,373.36406 0.446,8.2147 c 9.408,6.6318 18.156,13.8968 21.697,26.1607 -7.687,3.7107 -3.482,13.2293 -1.429,21.6965 l 0.804,17.0535 5.892,-2.6785 c 1.699,-4.3453 3.85,-8.6905 -0.446,-13.0358 1.668,-3.4182 0.253,-5.863 -2.589,-7.8571 l 3.928,0.8036 c 2.105,1.5586 3.215,3.8824 8.215,3.2143 3.065,0.5775 6.131,1.0031 9.196,7.1428 3.527,5.9719 10.89,9.8775 17.321,14.2857 -9.464,7.349 -18.928,19.6078 -28.392,20.1786 0.527,1.7556 2.329,1.7455 3.928,1.6071 -3.382,2.0619 -6.511,4.2361 -8.393,6.9643 1.351,0.5993 2.722,1.152 4.732,0.2679 -0.483,2.1369 0.202,4.0931 -2.142,6.5178 2.083,1.0873 4.167,-0.2267 6.25,-1.4285 -2.617,6.6772 -5.607,11.6369 -9.065,14.443 -4.542,2.9449 -3.529,3.6677 -3.22,4.672 l 6.376,4.7351 c 5.303,-5.2864 9.574,-10.1598 13.195,-14.7735 l 3.915,0.4419 0,-6.7554 4.356,1.389 c 1.359,-9.3347 2.289,-18.6762 18.246,-27.7792 3.459,9.1134 2.11,22.5552 2.525,34.4083 3.746,-0.4631 6.775,-3.0762 9.344,-7.071 1.5,4.6448 7.606,5.1586 11.238,1.6415 0.164,4.3459 5.054,7.6167 7.45,7.071 0.136,3.6125 -0.392,6.7821 -1.263,9.7228 1.007,0.2195 1.505,-0.4113 2.021,-1.0102 l 0,4.672 6.439,-0.2526 c 0.403,-3.7262 1.365,-6.7418 5.43,-5.8084 1.04,-4.3654 -1.592,-5.0584 -3.409,-6.566 l 0,-5.6821 c 3.181,-1.7465 1.13,-8.0421 0.757,-12.8794 -1.026,-3.0307 -7.637,-6.1197 -12.785,-9.8442 -2.932,-2.121 -2.304,-6.149 -1.231,-9.8538 5.131,2.2621 8.714,0.9871 12.754,0.7576 -7.832,-2.2595 -8.983,-7.7471 4.419,-5.6821 -0.04,-1.8233 -2.808,-6.0484 -7.071,-5.4295 4.179,-0.409 5.298,1.954 6.681,2.3558 4.331,1.2588 3.455,-4.0812 -2.388,-10.0583 -0.668,-1.3452 -14.731,-0.5892 -22.097,-0.8838 -9.206,-8.0159 -16.463,-16.1165 -20.203,-24.37 3.516,-1.8193 3.315,-5.4978 -1.263,-11.3642 5.455,1.7196 4.245,-3.6808 -0.757,-13.132 7.816,-2.6877 9.376,-6.9703 5.05,-12.7529 3.11,-4.253 5.666,-8.521 0.127,-13.007 l -15.658,-6.944 c -3.385,-4.606 -8.37,-4.867 -13.384,-5.051 1.726,1.457 3.025,3.286 2.86,6.397 0.02,1.917 0.06,3.816 1.938,4.336 -5.127,1.046 -3.716,3.23 -3.662,5.177 -2.228,3.849 -4.761,7.19 -7.702,9.85 -5.078,1.3117 -5.693,4.2998 -2.904,6.6916 1.152,2.3792 1.672,5.1275 8.333,4.2932 l -4.545,3.5355 c -1.639,3.4943 -0.57,5.2846 1.433,4.4135 2.497,-1.0852 9.279,-6.3914 7.027,-9.5905 l 8.965,-0.1263 -18.183,16.415 -5.303,-1.894 c -3.86,-5.6484 -7.581,-11.8496 -12.122,-14.7735 -7.897,-3.4757 -15.656,-7.1416 -21.682,-13.1915 z"
       id="path5000-7"
       inkscape:connector-curvature="0"
       sodipodi:nodetypes="ccccccccccccccccccccccccccccccccccccccsccccsccccccccccccccccscccccc" />
    <path
       style="fill:none;stroke:#000000;stroke-width:1px;stroke-linecap:butt;stroke-linejoin:miter;stroke-opacity:1"
       d="m 212.73839,407.73946 c 4.931,-0.8439 15.84,0.2484 24.107,2.0089"
       id="path5002-6"
       inkscape:connector-curvature="0"
       sodipodi:nodetypes="cc" />
    <path
       style="fill:none;stroke:#000000;stroke-width:1px;stroke-linecap:butt;stroke-linejoin:miter;stroke-opacity:1"
       d="m 229.99139,403.27516 c -1.673,1.1614 -2.02,3.2496 -2.03,4.9107"
       id="path5004-1"
       inkscape:connector-curvature="0"
       sodipodi:nodetypes="cc" />
    <path
       style="fill:none;stroke:#000000;stroke-width:1px;stroke-linecap:butt;stroke-linejoin:miter;stroke-opacity:1"
       d="m 242.51539,363.98906 c -2.031,4.277 2.817,8.137 5.446,2.678"
       id="path5006-4"
       inkscape:connector-curvature="0"
       sodipodi:nodetypes="cc" />
    <path
       style="fill:none;stroke:#000000;stroke-width:1px;stroke-linecap:butt;stroke-linejoin:miter;stroke-opacity:1"
       d="m 253.94339,448.42736 c 5.565,-0.337 10.223,4.8831 9.66,10.6066"
       id="path5008-2"
       inkscape:connector-curvature="0"
       sodipodi:nodetypes="cc" />
    <path
       style="fill:#fcdc11;stroke:#000000;stroke-width:1px;stroke-linecap:butt;stroke-linejoin:miter;stroke-opacity:1;fill-opacity:1"
       d="m 294.91739,507.96326 c -4.413,4.4409 -11.607,9.791 -7.828,11.5536 8.582,0.8475 14.193,-0.7733 12.879,-8.1444 l 1.705,-3.5355 z"
       id="path5010-3"
       inkscape:connector-curvature="0"
       sodipodi:nodetypes="ccccc" />
    <path
       style="fill:#fcdc11;stroke:#000000;stroke-width:1px;stroke-linecap:butt;stroke-linejoin:miter;stroke-opacity:1;fill-opacity:1"
       d="m 218.31639,502.50736 c -6.103,1.3934 -15.044,2.0681 -12.793,5.578 6.8,5.3048 12.408,6.9351 15.238,0 l 3.332,-2.076 z"
       id="path5010-7-2"
       inkscape:connector-curvature="0"
       sodipodi:nodetypes="ccccc" />
    <path
       style="fill:#fcdc11;stroke:#000000;stroke-width:1px;stroke-linecap:butt;stroke-linejoin:miter;stroke-opacity:1;fill-opacity:1"
       d="m 212.71339,446.60856 c -1.937,5.9536 -5.947,13.9723 -1.778,13.842 8.041,-3.1126 12.319,-7.089 7.823,-13.0761 l -0.07,-3.9244 z"
       id="path5010-1-2"
       inkscape:connector-curvature="0"
       sodipodi:nodetypes="ccccc" />
    <path
       style="fill:#fcdc11;stroke:#000000;stroke-width:1px;stroke-linecap:butt;stroke-linejoin:miter;stroke-opacity:1;fill-opacity:1"
       d="m 191.61939,373.78606 c -4.387,-4.468 -9.648,-11.727 -11.458,-7.969 -0.951,8.57 0.594,14.2029 7.988,12.9777 l 3.514,1.7488 z"
       id="path5010-15-1"
       inkscape:connector-curvature="0"
       sodipodi:nodetypes="ccccc" />
    <path
       style="fill:#fcdc11;fill-opacity:1;stroke:#000000;stroke-width:1px;stroke-linecap:butt;stroke-linejoin:miter;stroke-opacity:1"
       d="m 304.89339,358.52306 c -4.93,-30.313 -45.273,-27.116 -55.054,-1.389 0.313,3.458 5.093,3.531 6.819,2.904 -0.51,2.606 5.385,4.561 8.207,3.662 11.012,-13.796 26.466,-7.49 37.376,3.662 -7.095,-20.56 -26.736,-24.436 -41.795,-12.122 9.08,-14.742 32.506,-12.096 44.447,3.283 z"
       id="path5044-6"
       inkscape:connector-curvature="0"
       sodipodi:nodetypes="ccccccc" />
    <path
       style="fill:#000000;stroke:none"
       d="m 349.39039,444.88196 20.714,-4.4639 78.483,-0.7032 -1.579,-10.4804 10.039,0.063 -2.967,10.6066 24.748,-0.1262 -0.06,5.104 -27.274,3.7348 z"
       id="path5048-8"
       inkscape:connector-curvature="0" />
    <path
       style="fill:#000000;stroke:none"
       d="m 349.38139,444.87096 20.714,4.4639 78.483,0.7032 -1.579,10.4804 10.039,-0.063 -2.967,-10.6066 24.748,0.1262 -0.06,-5.104 -27.274,-3.7348 z"
       id="path5048-2-5"
       inkscape:connector-curvature="0" />
  </g>
</svg>
