<?xml version="1.0" encoding="UTF-8" standalone="no"?>
<!-- Created with Inkscape (http://www.inkscape.org/) -->

<svg
   xmlns:dc="http://purl.org/dc/elements/1.1/"
   xmlns:cc="http://creativecommons.org/ns#"
   xmlns:rdf="http://www.w3.org/1999/02/22-rdf-syntax-ns#"
   xmlns:svg="http://www.w3.org/2000/svg"
   xmlns="http://www.w3.org/2000/svg"
   xmlns:sodipodi="http://sodipodi.sourceforge.net/DTD/sodipodi-0.dtd"
   xmlns:inkscape="http://www.inkscape.org/namespaces/inkscape"
   width="323"
   height="216"
   id="svg3931"
   version="1.1"
   inkscape:version="0.48.4 r9939"
   sodipodi:docname="bergh.svg">
  <defs
     id="defs3933" />
  <sodipodi:namedview
     id="base"
     pagecolor="#ffffff"
     bordercolor="#666666"
     borderopacity="1.0"
     inkscape:pageopacity="0.0"
     inkscape:pageshadow="2"
     inkscape:zoom="1.979899"
     inkscape:cx="245.76155"
     inkscape:cy="77.812049"
     inkscape:document-units="px"
     inkscape:current-layer="layer1"
     showgrid="false"
     fit-margin-top="0"
     fit-margin-left="0"
     fit-margin-right="0"
     fit-margin-bottom="0"
     inkscape:window-width="1600"
     inkscape:window-height="837"
     inkscape:window-x="-8"
     inkscape:window-y="-8"
     inkscape:window-maximized="1" />
  <metadata
     id="metadata3936">
    <rdf:RDF>
      <cc:Work
         rdf:about="">
        <dc:format>image/svg+xml</dc:format>
        <dc:type
           rdf:resource="http://purl.org/dc/dcmitype/StillImage" />
        <dc:title></dc:title>
      </cc:Work>
    </rdf:RDF>
  </metadata>
  <g
     inkscape:label="Laag 1"
     inkscape:groupmode="layer"
     id="layer1"
     transform="translate(-152.78571,-304.36218)">
    <path
       style="fill:#ffffff;stroke:none"
       d="m 152.78571,304.36218 0,216 159.5,-107 z"
       id="path4126"
       inkscape:connector-curvature="0" />
    <path
       style="fill:#0d44af;fill-opacity:1;stroke:none"
       d="m 152.78571,520.36218 159.5,-107 -159.5,-109 323,0 0,216 z"
       id="path4128"
       inkscape:connector-curvature="0" />
    <path
       style="fill:#000000"
       d="m 170.19113,479.48339 c -6e-4,-0.11296 1.06325,-5.06948 2.36412,-11.01444 1.30087,-5.94497 2.3384,-10.83912 2.30561,-10.87591 -0.0328,-0.0367 -4.53664,1.48097 -10.00857,3.37279 -5.47192,1.89183 -10.00177,3.43969 -10.06632,3.43969 -0.0646,0 -0.11739,-6.4417 -0.11739,-14.31487 0,-11.58359 0.0358,-14.29942 0.18797,-14.23393 0.97825,0.42124 19.91022,6.8723 19.97031,6.80486 0.0439,-0.0491 -0.98101,-4.94017 -2.27746,-10.8688 -1.29645,-5.92864 -2.35718,-10.85166 -2.35718,-10.94007 0,-0.1035 4.66603,-0.16073 13.11709,-0.16073 12.4253,0 13.11285,0.0152 13.03703,0.28759 -0.26876,0.96573 -4.73669,21.6637 -4.68818,21.71833 0.0327,0.0368 4.55787,-1.48616 10.05594,-3.38444 l 9.9965,-3.45144 0.0374,14.21605 c 0.0206,7.81883 0.0106,14.24612 -0.0221,14.28288 -0.0328,0.0367 -4.55908,-1.49041 -10.05853,-3.39364 -5.49947,-1.90325 -10.01768,-3.43952 -10.04049,-3.41391 -0.0309,0.0346 2.69838,12.66325 4.70388,21.76567 l 0.0815,0.36974 -13.11,0 c -10.3898,0 -13.11023,-0.0427 -13.1111,-0.20542 z m 65.10033,-35.16802 c 0.16536,-0.51034 4.75774,-21.72824 4.72297,-21.82124 -0.0215,-0.0575 -4.55342,1.45908 -10.07089,3.37031 l -10.03178,3.47495 -0.0374,-14.21038 c -0.0206,-7.8157 -0.002,-14.24959 0.0403,-14.29754 0.0427,-0.048 4.57385,1.46946 10.06921,3.37198 5.96743,2.06596 10.00408,3.38583 10.02269,3.2771 0.0172,-0.10003 -1.03989,-5.0628 -2.34902,-11.02822 l -2.38021,-10.84621 6.55944,-0.0428 c 3.60771,-0.0235 9.51603,-0.0235 13.12961,0 l 6.57014,0.0428 -2.39336,10.92838 c -1.31635,6.01062 -2.37822,10.9736 -2.35973,11.02888 0.0185,0.0553 4.48204,-1.43968 9.91897,-3.32213 5.43694,-1.88247 9.9677,-3.42519 10.06839,-3.42831 0.14508,-0.004 0.18306,2.95573 0.18306,14.26877 l 0,14.27446 -10.06838,-3.48787 c -5.53762,-1.91834 -10.08882,-3.46895 -10.11376,-3.44581 -0.0388,0.0359 4.56367,21.31701 4.73475,21.89288 0.0485,0.16332 -2.63832,0.20541 -13.11022,0.20541 -10.47486,0 -13.15762,-0.042 -13.10469,-0.20541 z m -65.31923,-44.20655 c 0.2242,-0.72285 4.74139,-21.72692 4.686,-21.78905 -0.0377,-0.0425 -4.5674,1.47968 -10.06579,3.3824 l -9.99708,3.4595 -0.0374,-14.22479 c -0.0206,-7.82363 -0.0107,-14.25495 0.0223,-14.2918 0.0328,-0.0367 4.56168,1.48748 10.06409,3.38742 5.5024,1.89993 10.0252,3.43107 10.05064,3.4025 0.0255,-0.0286 -1.03657,-4.99824 -2.36006,-11.04368 -1.32348,-6.04547 -2.3906,-11.01064 -2.37137,-11.03371 0.0193,-0.0231 5.93173,-0.0231 13.13887,0 l 13.10387,0.0419 -2.40092,10.98401 c -1.32049,6.04121 -2.37641,11.01148 -2.34648,11.04506 0.0299,0.0337 4.5538,-1.49634 10.05304,-3.39981 5.49925,-1.90349 10.02753,-3.42845 10.06286,-3.38881 0.0354,0.0397 0.0474,6.47217 0.0267,14.29452 l -0.0374,14.22244 -10.00114,-3.45261 c -5.50063,-1.89892 -10.03346,-3.41633 -10.07294,-3.37202 -0.0395,0.0444 1.00643,5.00837 2.32427,11.03123 l 2.39607,10.95066 -13.15094,0 c -10.45713,0 -13.1379,-0.042 -13.08724,-0.20543 z"
       id="path3903"
       inkscape:connector-curvature="0" />
  </g>
</svg>
