<?xml version="1.0" encoding="UTF-8" standalone="no"?>
<!-- Created with Inkscape (http://www.inkscape.org/) -->

<svg
   xmlns:dc="http://purl.org/dc/elements/1.1/"
   xmlns:cc="http://creativecommons.org/ns#"
   xmlns:rdf="http://www.w3.org/1999/02/22-rdf-syntax-ns#"
   xmlns:svg="http://www.w3.org/2000/svg"
   xmlns="http://www.w3.org/2000/svg"
   xmlns:sodipodi="http://sodipodi.sourceforge.net/DTD/sodipodi-0.dtd"
   xmlns:inkscape="http://www.inkscape.org/namespaces/inkscape"
   id="svg2816"
   version="1.1"
   inkscape:version="0.47 r22583"
   width="480"
   height="350"
   sodipodi:docname="Voorthuizen vlag.svg">
  <metadata
     id="metadata2822">
    <rdf:RDF>
      <cc:Work
         rdf:about="">
        <dc:format>image/svg+xml</dc:format>
        <dc:type
           rdf:resource="http://purl.org/dc/dcmitype/StillImage" />
        <dc:title></dc:title>
      </cc:Work>
    </rdf:RDF>
  </metadata>
  <defs
     id="defs2820">
    <inkscape:perspective
       sodipodi:type="inkscape:persp3d"
       inkscape:vp_x="0 : 0.5 : 1"
       inkscape:vp_y="0 : 1000 : 0"
       inkscape:vp_z="1 : 0.5 : 1"
       inkscape:persp3d-origin="0.5 : 0.33333333 : 1"
       id="perspective2824" />
    <inkscape:perspective
       id="perspective3610"
       inkscape:persp3d-origin="0.5 : 0.33333333 : 1"
       inkscape:vp_z="1 : 0.5 : 1"
       inkscape:vp_y="0 : 1000 : 0"
       inkscape:vp_x="0 : 0.5 : 1"
       sodipodi:type="inkscape:persp3d" />
    <inkscape:perspective
       id="perspective3632"
       inkscape:persp3d-origin="0.5 : 0.33333333 : 1"
       inkscape:vp_z="1 : 0.5 : 1"
       inkscape:vp_y="0 : 1000 : 0"
       inkscape:vp_x="0 : 0.5 : 1"
       sodipodi:type="inkscape:persp3d" />
    <inkscape:perspective
       id="perspective3654"
       inkscape:persp3d-origin="0.5 : 0.33333333 : 1"
       inkscape:vp_z="1 : 0.5 : 1"
       inkscape:vp_y="0 : 1000 : 0"
       inkscape:vp_x="0 : 0.5 : 1"
       sodipodi:type="inkscape:persp3d" />
    <inkscape:perspective
       id="perspective3654-0"
       inkscape:persp3d-origin="0.5 : 0.33333333 : 1"
       inkscape:vp_z="1 : 0.5 : 1"
       inkscape:vp_y="0 : 1000 : 0"
       inkscape:vp_x="0 : 0.5 : 1"
       sodipodi:type="inkscape:persp3d" />
    <inkscape:perspective
       id="perspective3685"
       inkscape:persp3d-origin="0.5 : 0.33333333 : 1"
       inkscape:vp_z="1 : 0.5 : 1"
       inkscape:vp_y="0 : 1000 : 0"
       inkscape:vp_x="0 : 0.5 : 1"
       sodipodi:type="inkscape:persp3d" />
    <inkscape:perspective
       id="perspective3685-8"
       inkscape:persp3d-origin="0.5 : 0.33333333 : 1"
       inkscape:vp_z="1 : 0.5 : 1"
       inkscape:vp_y="0 : 1000 : 0"
       inkscape:vp_x="0 : 0.5 : 1"
       sodipodi:type="inkscape:persp3d" />
  </defs>
  <sodipodi:namedview
     pagecolor="#ffffff"
     bordercolor="#666666"
     borderopacity="1"
     objecttolerance="10"
     gridtolerance="10"
     guidetolerance="10"
     inkscape:pageopacity="0"
     inkscape:pageshadow="2"
     inkscape:window-width="1600"
     inkscape:window-height="839"
     id="namedview2818"
     showgrid="false"
     inkscape:zoom="0.476792"
     inkscape:cx="390.46944"
     inkscape:cy="256.25387"
     inkscape:window-x="-9"
     inkscape:window-y="-9"
     inkscape:window-maximized="1"
     inkscape:current-layer="svg2816" />
  <path
     style="fill:#0153a5;fill-opacity:1;stroke:#000000;stroke-width:2.44765067px;stroke-linecap:butt;stroke-linejoin:miter;stroke-opacity:0"
     d="M 0.35874865,-3.1667536 -0.03221378,355.00654 485.36626,353.93286 486.23078,-2.3352539 0.35874865,-3.1667536 z"
     id="path2828-1-7"
     sodipodi:nodetypes="ccccc" />
  <path
     style="fill:#6a2c90;fill-opacity:1;stroke:#000000;stroke-width:1.01731384px;stroke-linecap:butt;stroke-linejoin:miter;stroke-opacity:0"
     d="m 0.31066047,-3.0812534 -0.0454635,141.9250134 209.50072303,0 L 210.1407,-2.5904683 0.31066047,-3.0812534 z"
     id="path2828-4"
     sodipodi:nodetypes="ccccc" />
  <path
     style="fill:#6a2c90;fill-opacity:1;stroke:#000000;stroke-width:1.01731384px;stroke-linecap:butt;stroke-linejoin:miter;stroke-opacity:0"
     d="m 275.06892,211.92236 0.74956,142.73027 209.50072,0 0.37477,-141.97106 -210.62505,-0.75921 z"
     id="path2828-9"
     sodipodi:nodetypes="ccccc" />
  <path
     style="fill:#278f3a;fill-opacity:1;stroke:#000000;stroke-width:1.01731384px;stroke-linecap:butt;stroke-linejoin:miter;stroke-opacity:0"
     d="M 0.04565242,212.325 1.8890795e-4,355.05526 209.50092,355.05526 209.87569,213.08419 0.04565242,212.325 z"
     id="path2828-1-4"
     sodipodi:nodetypes="ccccc" />
  <path
     style="fill:#278f3a;fill-opacity:1;stroke:#000000;stroke-width:1.01731384px;stroke-linecap:butt;stroke-linejoin:miter;stroke-opacity:0"
     d="m 275.68987,-2.6651319 0.74956,142.3276319 209.50072,0 0.37477,-141.9710624 -210.62505,-0.3565695 z"
     id="path2828-1-8"
     sodipodi:nodetypes="ccccc" />
  <path
     style="fill:#fcc00f;fill-opacity:1;stroke:#000000;stroke-width:1.01731384px;stroke-linecap:butt;stroke-linejoin:miter;stroke-opacity:0"
     d="m 243.82478,37.415697 c -34.80185,32.625945 -37.81777,67.896433 -26.25393,101.108763 7.16907,20.59016 14.95214,41.76055 14.59358,63.7005 -6.9379,-47.5451 -33.89278,-63.73523 -54.63587,-61.65249 -25.8535,2.59585 -40.60285,55.68284 2.16431,67.55771 -1.58349,-33.86723 32.87144,-19.07823 29.68089,1.07368 l -13.25039,0.53683 c -1.39315,6.621 -2.26016,13.24201 0.53002,19.86302 l 36.04107,0 c -0.68483,10.61131 -7.16127,16.5297 -14.84045,21.47351 4.49152,7.67411 9.46875,12.8885 15.37045,13.42096 -0.27477,8.61424 4.81049,15.87124 10.07031,23.08403 7.07438,-7.08474 12.15172,-14.57403 12.19035,-23.08403 9.39486,-0.72626 11.80346,-7.11346 14.31043,-13.42096 -10.68158,-5.2813 -12.95117,-13.40267 -15.37046,-21.47351 l 37.63111,0.53683 c 2.82675,-7.15784 2.82675,-14.31568 0,-21.47352 l -14.31041,0 c -0.99036,-17.65332 25.6092,-35.23742 30.7409,0.53684 62.0617,-28.82736 5.02581,-103.01826 -35.59706,-50.32453 -7.17907,9.31231 -12.12895,24.38609 -16.87449,44.4193 -1.57263,-31.91349 15.98122,-63.89157 19.73175,-94.47089 3.04501,-24.826827 -9.19668,-49.076863 -31.92211,-71.412043 z"
     id="path3708"
     sodipodi:nodetypes="cscscccccccccccccccscsc" />
</svg>
