<?xml version="1.0" encoding="UTF-8" standalone="no"?>
<!-- Created with Inkscape (http://www.inkscape.org/) -->

<svg
   xmlns:dc="http://purl.org/dc/elements/1.1/"
   xmlns:cc="http://creativecommons.org/ns#"
   xmlns:rdf="http://www.w3.org/1999/02/22-rdf-syntax-ns#"
   xmlns:svg="http://www.w3.org/2000/svg"
   xmlns="http://www.w3.org/2000/svg"
   xmlns:sodipodi="http://sodipodi.sourceforge.net/DTD/sodipodi-0.dtd"
   xmlns:inkscape="http://www.inkscape.org/namespaces/inkscape"
   width="920.25"
   height="613.09375"
   id="svg11262"
   version="1.1"
   inkscape:version="0.48.4 r9939"
   sodipodi:docname="Nieuw document 80">
  <defs
     id="defs11264" />
  <sodipodi:namedview
     id="base"
     pagecolor="#ffffff"
     bordercolor="#666666"
     borderopacity="1.0"
     inkscape:pageopacity="0.0"
     inkscape:pageshadow="2"
     inkscape:zoom="0.7"
     inkscape:cx="568.95352"
     inkscape:cy="357.93224"
     inkscape:document-units="px"
     inkscape:current-layer="layer1"
     showgrid="false"
     fit-margin-top="0"
     fit-margin-left="0"
     fit-margin-right="0"
     fit-margin-bottom="0"
     inkscape:window-width="1600"
     inkscape:window-height="837"
     inkscape:window-x="-8"
     inkscape:window-y="-8"
     inkscape:window-maximized="1" />
  <metadata
     id="metadata11267">
    <rdf:RDF>
      <cc:Work
         rdf:about="">
        <dc:format>image/svg+xml</dc:format>
        <dc:type
           rdf:resource="http://purl.org/dc/dcmitype/StillImage" />
        <dc:title></dc:title>
      </cc:Work>
    </rdf:RDF>
  </metadata>
  <g
     inkscape:label="Laag 1"
     inkscape:groupmode="layer"
     id="layer1"
     transform="translate(148.6875,-197.25)">
    <rect
       style="fill:#fcdd07;fill-opacity:1;fill-rule:evenodd;stroke:#000000;stroke-width:3.09999989999999980;stroke-linecap:round;stroke-miterlimit:4;stroke-opacity:0.03773582000000000;stroke-dasharray:none;stroke-dashoffset:0"
       id="rect9784"
       width="917.14288"
       height="610"
       x="-147.14287"
       y="198.79076" />
    <path
       style="fill:#da0f19;fill-opacity:1"
       d="m 31.75208,759.65603 c 1.8538,-1.2847 4.0519,-5.8763 4.0519,-8.4642 0,-1.5563 -0.5478,-1.9406 -2.7724,-1.9449 -3.9473,-0.01 -8.4856,-1.5641 -11.8134,-4.0521 l -2.8691,-2.1449 -4.0787,3.0448 c -4.6017702,3.4356 -10.1396702,4.737 -13.71747017,3.2238 -2.14240003,-0.9062 -2.68470003,-0.7127 -4.90510003,1.7505 -1.3729,1.5231 -2.5084,3.5472 -2.5234,4.4982 -0.026,1.6271 -0.1008,1.6208 -1.2795,-0.1082 -1.7678,-2.5927 -1.5543,-7.4187 0.4536,-10.2504 0.9384,-1.3234 1.7061,-3.5101 1.7061,-4.8593 0,-2.0511 -0.3882,-2.4531 -2.3693,-2.4531 -3.0095998,0 -5.8016998,-2.1619 -7.5013998,-5.8083 -1.252,-2.6859 -1.5411,-2.8154 -4.9002,-2.1964 -1.9633,0.3618 -4.6253,1.2571 -5.9155,1.9896 -2.1619,1.2275 -2.3459,1.1893 -2.3459,-0.487 0,-2.8339 5.3274,-7.4078 9.5278,-8.18 5.7912,-1.0646 6.3589,-1.6523 5.9696,-6.18 l -0.3421,-3.9801 -4.2734,0.5614 c -2.3503,0.3088 -5.1844,1.2237 -6.2981,2.0332 -1.1135,0.8094 -2.0247,1.0561 -2.0247,0.5482 0,-2.7203 2.3983,-5.9473 5.7628,-7.7541 3.3656,-1.8074 4.7813,-1.9817 12.5316998,-1.5429 9.9652,0.5642 14.3458,2.2705 21.4595002,8.3589 4.79077,4.1002 9.27097,5.4984 12.14717,3.7908 0.9928,-0.5895 3.4128,-3.7231 5.3778,-6.9637 4.7259,-7.7939 13.6425,-17.4354 24.6254,-26.6274 4.92,-4.1178 9.2159,-7.7375 9.5466,-8.0438 0.3305,-0.3064 -2.1647,-0.4689 -5.5449,-0.3611 -5.4444,0.1736 -5.8051,0.084 -3.1603,-0.7869 6.4173,-2.1126 8.3622,-6.8351 5.1728,-12.5601 -2.5453,-4.5686 -6.1861,-7.0098 -12.703,-8.5172 -3.2797,-0.7586 -7.1497,-2.06 -8.6,-2.892 -2.5936,-1.4879 -2.6369,-1.4754 -2.6369,0.7597 0,1.2498 0.9973,4.774 2.2163,7.8315 2.4206,6.072 3.4379,13.4497 2.5657,18.6074 -0.781,4.6183 -6.3958,11.3456 -11.5041,13.7834 -3.6555,1.7445 -15.3626,4.3447 -16.0632,3.5675 -0.1342,-0.1489 1.4571,-1.6262 3.5364,-3.2828 5.2009,-4.1434 8.591,-11.777 7.8595,-17.6973 -0.6805,-5.5086 -2.1903,-8.6335 -8.2747,-17.1275 -2.7493,-3.838 -5.36857,-8.4644 -5.82077,-10.2811 -0.8553,-3.4362 0.071,-9.3522 1.63107,-10.4221 0.4519,-0.3098 0.8215,-0.8978 0.8215,-1.3068 0,-0.409 -2.20727,0.086 -4.9049702,1.101 -6.653,2.502 -16.2443,3.0975 -25.4309998,1.579 l -7.6247,-1.2602 5.5448,-0.6548 c 7.4436,-0.879 12.0682998,-2.3319 19.1935998,-6.0299 6.0245,-3.1267 18.3805702,-12.2727 18.2935702,-13.541 -0.066,-0.9684 -18.4310702,-16.2996 -19.52467017,-16.2996 -0.4958,0 -0.9015,0.8208 -0.9015,1.824 0,1.719 -3.65310003,5.7467 -5.21220003,5.7467 -0.3943,0 -0.3425,-1.0924 0.1151,-2.4275 2.0069,-5.8559 0.1812,-11.1633 -5.3833998,-15.6494 l -3.5948,-2.8981 -0.2615,2.3472 c -0.28,2.5132 -2.082,3.4513 -6.672,3.4735 -1.4675,0.01 -4.0463,0.6517 -5.7307,1.4324 -3.8661,1.792 -8.3015,1.8097 -12.1016,0.048 -3.5961,-1.6668 -3.6983,-2.1028 -0.5163,-2.2031 2.358,-0.074 8.6476,-2.5231 8.6476,-3.3667 0,-0.2273 -0.5388,-1.5657 -1.1976,-2.9741 -1.5413,-3.2958 -0.4732,-7.8266 2.4684,-10.4702 l 2.1495,-1.9318 -3.9689,-1.1776 c -2.5665,-0.7615 -4.9253,-2.336 -6.6757,-4.456 -2.3144,-2.8029 -3.2596,-3.2784 -6.518,-3.2784 -2.096,0 -5.235701,0.8058 -6.977101,1.7907 -3.3862,1.9152 -3.7309,1.5666 -2.1815,-2.206 1.3743,-3.3459 4.224,-5.1705 9.890601,-6.3326 2.6753,-0.5486 5.9548,-1.8589 7.2876,-2.9118 l 2.4233,-1.9143 -1.7625,-2.0812 c -0.9693,-1.1447 -1.7625,-3.1833 -1.7625,-4.5302 0,-2.9765 -3.2568,-4.5266 -9.5108,-4.5266 -2.275801,0 -4.138001,-0.3879 -4.138001,-0.8619 0,-0.4741 1.7594,-1.8068 3.909601,-2.9616 3.2188,-1.7285 4.6886,-1.9809 8.3173,-1.4279 7.7952,1.1878 18.8181,1.3315 22.1084,0.2881 4.2107,-1.3352 4.1798,-3.6346 -0.1129,-8.3968 l -3.3119,-3.674 2.9194,0 c 5.8111,0 12.2347998,5.6829 12.2347998,10.824 0,0.8001 1.519,2.5184 3.3755,3.8185 3.8508,2.6967 5.157,4.9074 5.1505,8.7171 0,2.5117 -0.7261,4.1077 -4.5897,10.1466 -1.2835,2.006 -1.4497,3.1298 -0.8228,5.56 0.7339,2.845 1.0931,3.0831 5.4473,3.6124 13.9761702,1.6988 27.5869702,9.8291 39.9598702,23.8696 l 4.5886,5.2071 6.7076,-3.1382 c 6.3354,-2.9641 7.0273,-3.0925 12.4723,-2.3137 9.0252,1.2909 23.931,1.0157 29.9275,-0.5526 14.5202,-3.7974 23.4223,-13.1991 27.0244,-28.5405 2.017,-8.5906 1.4501,-9.8675 -1.2561,-2.8293 -4.7692,12.4033 -11.3572,19.7003 -22.117,24.4975 -4.2513,1.8954 -6.1534,2.1187 -17.1508,2.0136 -7.3085,-0.07 -14.2889,-0.6522 -17.061,-1.4233 l -4.6918,-1.305 -0.254,-4.8278 c -0.2454,-4.6641 -0.1835,-4.8127 1.8263,-4.3865 1.7874,0.3791 2.233,-0.071 3.1657,-3.1982 l 1.0855,-3.6393 0.8416,2.839 c 0.7723,2.6051 1.9818,4.2075 3.2035,4.244 0.2667,0.01 1.058,-1.3279 1.7585,-2.9685 l 1.2735,-2.9831 1.9084,3.5883 1.9084,3.5883 6.5697,-0.5078 c 3.6133,-0.2793 7.6567,-1.0617 8.9852,-1.7387 l 2.4155,-1.2309 -1.9889,-0.8192 c -3.8178,-1.5725 -13.227,-3.4366 -31.8987,-6.3196 -10.3439,-1.5971 -21.0608,-3.555 -23.8151,-4.3509 -10.8461,-3.134 -16.3136,-8.6245 -18.3416,-18.4188 -1.3817,-6.6727 -3.7382,-10.9756 -6.65977,-12.1608 -4.7781002,-1.9383 5.39097,-1.1632 11.29927,0.8612 6.5151,2.2324 11.5737,6.7131 14.2865,12.6545 5.1411,11.2597 10.2265,14.5577 27.692,17.9587 15.0945,2.9394 21.9263,4.7112 27.4093,7.1087 4.3159,1.8873 4.4146,1.8894 5.2706,0.1151 2.4267,-5.0302 -0.2521,-15.7167 -5.0661,-20.2104 -2.3896,-2.2306 -3.457,-2.5417 -8.7201,-2.5417 -4.9768,0 -5.9137,0.2412 -5.5068,1.4176 0.3024,0.8744 -0.3488,2.0276 -1.6996,3.0095 -1.7645,1.2826 -2.8073,1.4089 -5.3688,0.6505 -3.0466,-0.9021 -3.1632,-0.8501 -2.8015,1.249 0.5335,3.0958 -0.2237,2.7213 -2.2676,-1.1217 -1.1151,-2.0966 -2.4124,-3.3122 -3.5351,-3.3122 -1.5718,0 -1.7152,0.4036 -1.261,3.5487 l 0.5125,3.5488 -2.7964,-4.9393 c -1.9549,-3.4531 -3.509,-5.113 -5.1646,-5.5164 -4.7498,-1.1574 -6.414,-7.5416 -3.1614,-12.1287 1.6665,-2.3503 1.6774,-2.4935 0.1898,-2.4935 -2.2827,0 -5.37,-2.6674 -5.37,-4.6395 0,-1.4246 2.3412,-2.2562 14.762,-5.2436 12.6288,-3.0375 14.8785,-3.8449 15.5682,-5.5874 0.4573,-1.1554 2.2826,-2.5854 4.2183,-3.3047 7.7416,-2.8768 31.975,-2.1606 39.1313,1.1565 2.2366,1.0367 3.2471,1.0233 6.0872,-0.081 6.5034,-2.5279 15.0751,-4.0664 22.6547,-4.0664 6.6395,0 7.6387,0.2134 7.7543,1.656 0.321,4.0068 -0.4008,6.618 -2.7242,9.8548 l -2.4886,3.4669 3.1316,1.8029 c 4.1167,2.37 6.2281,5.6526 6.8281,10.6159 0.8834,7.3059 7.7842,12.3003 17.0988,12.3752 l 3.1867,0.026 -3.1573,3.2569 c -1.7365,1.7914 -4.2317,3.5188 -5.5448,3.8388 -4.7974,1.1691 -4.8789,1.2545 -3.1835,3.3329 1.6656,2.0417 1.7554,3.9137 0.7562,15.7548 -0.5314,6.2986 -0.3991,7.1707 1.6869,11.1194 1.5966,3.0225 1.9207,4.2848 1.0999,4.2848 -2.1479,0 -9.0289,-2.963 -10.0496,-4.3275 -1.5699,-2.0984 -2.2458,-1.6048 -1.8542,1.3542 0.296,2.2374 -0.3191,3.4085 -3.56,6.7783 -6.5736,6.8351 -6.3989,6.916 13.3565,6.1859 9.5008,-0.3511 21.3049,-1.0824 26.2313,-1.6251 22.6737,-2.4975 42.9392,-0.3766 61.2142,6.4063 l 9.1409,3.3927 14.086,-0.9715 c 10.4287,-0.7192 16.301,-1.6298 22.6166,-3.5068 6.3956,-1.9009 11.306,-2.6522 19.6201,-3.0021 12.1417,-0.511 18.2307,0.5624 28.1411,4.9608 5.3477,2.3733 5.3754,2.3753 13.3473,0.941 4.3937,-0.7905 12.403,-1.4489 17.7986,-1.4631 9.0534,-0.024 10.1369,-0.225 14.0482,-2.6063 14.1974,-8.6438 8.9165,-22.6092 -10.6758,-28.2324 -4.7526,-1.3641 -8.595,-1.5001 -28.1109,-0.9954 -26.0844,0.6747 -35.4194,1.5039 -60.14,5.3418 -35.8074,5.5593 -54.4905,6.2254 -66.4821,2.3704 -21.6235,-6.9515 -29.3838,-18.6361 -20.9526,-31.5478 2.8319,-4.3369 5.7978,-6.8023 8.4499,-7.0239 0.9811,-0.082 1.7839,-0.6807 1.7839,-1.3304 0,-3.757 7.337,-7.1137 23.4588,-10.7323 10.1761,-2.284 16.3812,-5.5404 20.884,-10.9596 4.2886,-5.1613 5.0112,-9.1612 2.7014,-14.9538 -1.8427,-4.6213 -1.4388,-5.1617 2.2618,-3.0258 4.3447,2.5078 6.5687,6.0437 6.5687,10.4436 l 0,4.05 2.6832,-2.2704 c 4.7357,-4.0071 11.8491,-6.1569 21.6287,-6.5366 7.2582,-0.2818 8.3098,-0.1671 5.5448,0.6049 -13.0692,3.6488 -19.553,6.9399 -26.018,13.2059 l -3.8387,3.7206 2.98,-0.9177 c 4.694,-1.4456 12.6624,-1.0498 19.6258,0.9749 11.7804,3.4252 16.7774,2.5269 31.7462,-5.7068 9.8708,-5.4294 14.5736,-6.3024 24.1286,-4.479 l 6.8244,1.3024 -7.4349,0.6593 c -10.2667,0.9106 -14.0115,2.7917 -21.4945,10.7977 -8.5271,9.123 -10.9712,9.9207 -28.1796,9.1982 -7.0626,-0.2966 -13.9927,-0.1497 -15.4002,0.3263 -2.153,0.7281 -1.6772,0.8694 2.9972,0.8898 4.7803,0.021 6.6047,0.5898 13.0612,4.0737 9.1705,4.9482 15.3941,5.6897 28.4251,3.3867 9.6087,-1.6982 16.1187,-1.1493 27.1726,2.2911 3.2843,1.0222 4.6278,1.6295 2.9857,1.3496 -1.6421,-0.2798 -6.6407,-0.7626 -11.1081,-1.0727 -7.3043,-0.507 -8.9368,-0.2938 -16.2079,2.1167 -6.674,2.2125 -9.7237,2.689 -17.4691,2.7296 -8.1515,0.043 -10.3356,-0.3076 -16.6345,-2.668 -14.937,-5.5973 -25.9523,-4.2838 -34.6173,4.128 -7.5116,7.292 -11.3565,9.0144 -19.9779,8.9492 -6.3315,-0.048 -16.4335,-2.1803 -22.4378,-4.7363 -1.1552,-0.4918 -1.4475,-0.065 -1.4475,2.1134 0,9.902 13.6441,13.9931 39.4337,11.8241 7.6351,-0.6422 18.1045,-1.7982 23.2654,-2.5691 39.5175,-5.9021 73.4363,-9.2159 95.5416,-9.3342 13.8092,-0.074 15.9989,0.14 21.7527,2.1243 8.3928,2.8945 16.0557,7.6857 19.9604,12.4804 3.8602,4.7401 4.7781,7.2849 4.7781,13.2472 0,5.3818 -0.9799,8.2659 -4.8595,14.3043 -2.8049,4.3655 -2.8089,4.3873 -0.8983,4.9553 1.0555,0.3138 4.5329,0.5764 7.7275,0.5835 3.1946,0.01 5.6047,0.3786 5.3557,0.8255 -1.2308,2.2093 -9.9808,7.7986 -13.9537,8.9133 l -4.4956,1.2615 2.9652,1.5686 c 3.0049,1.5896 10.177,8.2325 9.5906,8.883 -0.1756,0.1947 -2.9688,-0.5731 -6.2071,-1.7064 -4.9194,-1.7216 -7.4315,-2.0051 -15.2715,-1.7232 -18.6629,0.671 -23.7196,0.4169 -26.7371,-1.3437 -1.5684,-0.9151 -2.9858,-1.5151 -3.1498,-1.3331 -0.164,0.1819 3.6598,5.0123 8.4973,10.7343 10.8654,12.852 14.1093,14.9602 26.0739,16.9448 16.8715,2.7986 29.1133,8.584 32.6966,15.4523 2.1737,4.1664 1.3679,9.8971 -2.2283,15.8472 -6.4746,10.7125 -6.1528,9.6548 -6.0966,20.0422 l 0.052,9.6562 4.4262,5.1919 c 5.2349,6.1405 5.836,9.9259 2.3133,14.5701 -4.0789,5.3776 -17.0901,9.4495 -27.0074,8.4518 -4.5465,-0.4573 -5.0016,-0.3351 -5.0016,1.3438 0,1.0614 -1.0862,2.5326 -2.5538,3.4591 -1.4923,0.942 -2.5573,2.3986 -2.5623,3.5047 -0.023,5.0796 -6.009,10.8829 -11.2253,10.8829 l -1.8944,0 1.9192,-1.9836 c 1.7421,-1.8004 3.5208,-5.5333 3.5208,-7.3888 0,-0.4027 -2.7831,-0.7181 -6.1846,-0.701 -6.9058,0.035 -11.623,-1.377 -13.8911,-4.1573 -0.8332,-1.0214 -2.4096,-1.857 -3.5031,-1.857 -1.0935,0 -3.6879,-0.5043 -5.7652,-1.1208 -4.4257,-1.313 -9.2161,-0.1313 -12.2725,3.0275 l -1.889,1.9523 0,-3.1841 c 0,-3.2098 1.8947,-5.9554 5.5448,-8.0347 1.3146,-0.749 1.7025,-1.9159 1.6904,-5.0865 l -0.016,-4.1146 -4.1154,-0.2921 c -2.7709,-0.1966 -5.1875,0.2964 -7.3968,1.5091 l -3.2814,1.8009 1.0739,-2.9284 c 1.4087,-3.8415 5.4799,-6.8024 10.5016,-7.6378 2.3121,-0.3847 5.0922,-1.6493 6.4859,-2.9503 1.4725,-1.3744 3.5292,-2.277 5.189,-2.277 2.5628,0 4.797,-1.375 4.797,-2.9522 0,-1.5247 -8.7404,-3.8768 -12.1551,-3.2711 -3.1072,0.5512 -3.3443,0.4592 -2.3257,-0.9024 3.0321,-4.0529 12.6762,-5.8748 17.123,-3.2347 0.9886,0.5869 4.2755,1.4565 7.3041,1.9323 6.8203,1.0715 9.6364,2.6551 15.3128,8.6106 4.365,4.5798 4.509,4.6485 6.8739,3.2839 3.4635,-1.9986 6.2254,-5.5727 7.5454,-9.7644 0.9764,-3.1007 0.9637,-3.9184 -0.086,-5.5312 -5.7464,-8.8296 -6.3698,-10.3821 -6.1328,-15.2734 l 0.2357,-4.8637 -6.8244,-0.3978 c -4.5922,-0.2678 -7.5752,-0.9447 -9.1198,-2.0694 l -2.2954,-1.6716 -1.6736,3.621 c -2.0463,4.4274 -4.5552,7.0404 -9.2918,9.6777 l -3.6136,2.012 0.5377,-5.7066 c 0.4165,-4.4209 0.1924,-6.5558 -0.9945,-9.4759 -1.9877,-4.8899 -2.9792,-4.7766 -2.9792,0.3404 0,7.8884 -5.7654,15.6333 -13.499,18.1336 -1.9756,0.6387 -1.9742,0.6265 0.3924,-3.3407 2.8924,-4.8487 3.7294,-13.7163 1.7736,-18.7921 l -1.2336,-3.2017 -2.1708,5.2602 c -4.0733,9.8704 -12.1403,17.1854 -22.2425,20.1693 -6.266,1.8509 -6.4558,1.6807 -1.8773,-1.6836 9.2607,-6.8048 10.4017,-16.3433 3.0616,-25.594 -2.5189,-3.1744 -4.4172,-4.5653 -7.4634,-5.468 -8.4452,-2.5026 -14.4277,-6.3995 -19.6175,-12.7786 l -4.9694,-6.1082 -8.9428,2.2498 c -18.4466,4.6408 -26.7848,10.2221 -25.2705,16.9152 0.9085,4.0156 3.3737,6.3588 8.1539,7.7502 2.5421,0.7398 5.2292,2.0327 5.9713,2.8729 1.2336,1.3966 1.1297,1.726 -1.2097,3.8357 -2.0847,1.8801 -14.6281,7.7994 -28.903,13.6394 -2.2631,0.9259 -2.3525,1.1356 -1.1257,2.6395 2.9723,3.6435 3.1607,6.2757 0.8359,11.6771 l -2.1928,5.0947 -0.8283,-3.6195 c -0.5387,-2.3545 -1.5399,-3.9793 -2.8645,-4.6489 -2.8819,-1.4567 -3.3648,-0.3462 -1.2693,2.9185 2.1269,3.3135 2.3084,7.6637 0.4833,11.579 -1.4398,3.0887 -2.9475,2.8995 -2.9525,-0.3703 -0.01,-3.0943 -2.9878,-7.9344 -5.9305,-9.6226 l -2.5968,-1.4897 0,5.7609 c 0,4.3164 -0.5813,7.1107 -2.318,11.1438 l -2.3181,5.3829 -0.8809,-6.357 c -0.9833,-7.0955 -1.8856,-8.6177 -4.8345,-8.1548 -1.7282,0.2713 -2.0927,0.9956 -2.5401,5.0484 -0.6297,5.7044 -3.6788,13.8875 -6.0576,16.2568 -1.7233,1.7166 -1.7276,1.7026 -1.0616,-3.4813 0.3678,-2.8626 0.7021,-6.0433 0.7429,-7.068 0.1202,-3.0178 -2.7067,-2.7909 -6.0724,0.4875 -4.2008,4.0918 -7.9729,5.6949 -13.5743,5.7691 l -4.6905,0.062 3.4619,3.2874 c 2.7956,2.6546 3.462,3.9108 3.462,6.5258 0,2.1069 -0.6155,3.8172 -1.7614,4.8946 -0.9688,0.9108 -3.5246,3.6775 -5.6795,6.148 -3.9649,4.5457 -7.7102,6.4263 -12.6057,6.33 -2.3208,-0.045 -2.4087,-0.1554 -0.9435,-1.1776 0.8885,-0.6201 2.616,-2.0778 3.8387,-3.2395 1.8849,-1.791 2.0284,-2.2566 0.9435,-3.0611 -1.677,-1.2436 -26.5843,-1.2585 -32.4739,-0.019 -5.5623,1.1703 -12.9869,-0.1288 -16.3286,-2.8569 -2.7619,-2.2547 -7.9901,-2.4754 -12.2179,-0.5157 -2.6232,1.2159 -2.9583,1.2076 -2.9583,-0.073 0,-2.224 4.491,-6.6935 7.7446,-7.7077 1.6052,-0.5003 4.3465,-2.4162 6.0919,-4.2575 l 3.1734,-3.3477 -2.0771,-1.5098 c -2.79,-2.028 -7.9002,-1.906 -11.7668,0.2809 -3.3564,1.8983 -3.7271,1.5571 -2.2403,-2.0629 1.7153,-4.1763 5.5771,-5.835 14.8557,-6.3806 l 8.5305,-0.5017 -3.387,-1.7274 c -2.4405,-1.2448 -4.6863,-1.6081 -8.0356,-1.2999 l -4.6486,0.4277 2.6499,-2.6266 c 3.8581,-3.8242 9.1034,-4.4616 15.8648,-1.928 2.9448,1.1035 6.1868,2.0063 7.2044,2.0063 1.0236,0 3.9545,2.1141 6.56,4.7317 3.9682,3.9866 5.237,4.7317 8.0575,4.7317 4.2885,0 7.1562,-1.2347 11.2772,-4.8557 3.2833,-2.8847 8.9004,-10.9806 8.1761,-11.7841 -0.2077,-0.2305 -1.8517,0.2641 -3.6532,1.0991 -4.0901,1.8959 -14.6152,2.7973 -17.4597,1.4954 l -2.1326,-0.9761 2.1326,-0.063 c 3.3015,-0.098 7.4359,-3.3905 10.4651,-8.3334 4.0669,-6.6358 8.6907,-11.3366 11.8816,-12.0797 3.3739,-0.7856 15.1481,-6.3696 15.1712,-7.1951 0.021,-0.757 -6.8123,-1.7847 -11.8663,-1.7847 -5.3171,0 -12.6147,2.1989 -18.8088,5.6676 -5.6588,3.169 -10.1708,3.5431 -17.5059,1.4515 l -4.2653,-1.2163 3.2618,-0.1124 c 4.4227,-0.1524 14.7,-4.084 20.2995,-7.7656 9.2588,-6.0875 15.996,-9.3451 24.2714,-11.7357 11.0707,-3.1982 19.0678,-7.6337 26.2069,-14.5352 3.1876,-3.0815 7.986,-6.8905 10.6631,-8.4644 9.981,-5.8678 31.4382,-11.5638 49.5406,-13.1507 10.223,-0.8962 6.1135,-1.9544 -8.4185,-2.1677 -12.6359,-0.1855 -12.9415,-0.5763 -1.8521,-2.3695 l 7.397,-1.1962 -9.5532,-0.1196 c -21.1965,-0.2655 -44.2842,5.6279 -60.3969,15.417 -2.8151,1.7103 -8.7651,5.9822 -13.2223,9.493 -10.2357,8.0626 -13.1329,9.6943 -20.4832,11.5357 -5.1332,1.2859 -6.9495,1.3219 -13.4134,0.2654 -4.1119,-0.6722 -8.244,-1.1172 -9.1824,-0.9891 -2.5705,0.351 -4.6917,3.71 -4.6917,7.4292 0,4.2606 -3.0517,10.2702 -6.3654,12.5353 -1.6428,1.123 -5.6658,2.1503 -10.9886,2.8063 -8.7873,1.0828 -11.6497,2.1208 -11.6497,4.2245 0,0.6922 -0.7711,2.3461 -1.7136,3.6753 -2.9344,4.1383 -3.088,7.7392 -0.4549,10.6603 2.0783,2.3055 2.7498,2.5005 7.3462,2.1316 2.7824,-0.2232 5.0589,-0.281 5.0589,-0.1282 0,0.1528 -1.6315,1.2055 -3.6255,2.3395 -5.2275,2.9729 -13.5918,2.79 -21.9021,-0.4788 -5.7773,-2.2724 -6.5057,-2.3665 -8.2872,-1.0716 -4.3452,3.1585 -4.5909,7.518 -0.712,12.632 1.1903,1.5692 1.7864,3.0937 1.3316,3.4054 -1.7267,1.1839 -8.3767,-0.7579 -13.1439,-3.8381 -2.7314,-1.7648 -5.1542,-3.2088 -5.3838,-3.2088 -0.2297,0 -0.1688,1.8412 0.1354,4.0916 0.7263,5.373 -1.1774,10.4168 -4.8757,12.9182 -4.2137,2.85 -5.485,2.4139 -2.8996,-0.9947 1.6376,-2.159 2.2084,-3.9791 2.2084,-7.0416 0,-2.2716 -0.3378,-4.3618 -0.7509,-4.6449 -0.413,-0.2832 -6.2711,2.4089 -13.0181,5.9824 l -12.2672,6.4974 -1.1002,4.5632 c -0.7532,3.1238 -2.163,5.6849 -4.4694,8.1188 -2.0324,2.1449 -3.3692,4.4258 -3.3692,5.7488 0,4.5069 -4.0727,8.3418 -10.2366,9.639 -2.3528,0.4951 -2.6693,0.409 -1.4928,-0.4062 z m 60.711,-229.7173 8.5992,-3.5488 -4.6917,-0.4956 c -2.5805,-0.2725 -6.7078,-1.3151 -9.1719,-2.3168 -3.7395,-1.5201 -4.656,-1.6108 -5.5448,-0.5485 -0.8548,1.0219 -0.845,1.1345 0.05,0.5717 2.0025,-1.2594 5.2274,0.3214 5.7976,2.8418 0.98,4.3312 -3.5831,7.7888 -6.4874,4.9157 -1.0173,-1.0063 -1.0272,-0.9357 -0.067,0.4732 1.5068,2.209 1.622,2.19 11.5151,-1.8927 z m -9.7413,-3.0756 c 0,-0.5205 -0.3839,-0.9463 -0.8531,-0.9463 -0.4692,0 -0.853,0.4258 -0.853,0.9463 0,0.5205 0.3838,0.9463 0.853,0.9463 0.4692,0 0.8531,-0.4258 0.8531,-0.9463 z m -49.9793,-42.6578 c 1.2186,-1.6065 2.2085,-4.0925 2.2085,-5.5461 0,-2.4685 -0.2789,-2.6713 -4.424,-3.2159 -2.4332,-0.3197 -6.4011,-1.691 -8.8176,-3.0473 l -4.3935,-2.466 -3.248,2.4451 c -4.8891702,3.6808 -9.2013702,4.8626 -13.0106702,3.5657 -3.8594,-1.3141 -6.2259,0.053 -7.9131,4.5717 l -1.1221,3.0055 -1.1111,-2.2224 c -1.6218998,-3.2442 -1.4169998,-5.8077 0.753,-9.4245 2.4363,-4.0607 2.1449,-7.4662 -0.6388,-7.4662 -2.3347998,0 -6.9262998,-3.9772 -7.6954998,-6.6659 -0.6594,-2.3046 -2.8651,-2.3213 -8.7497,-0.066 l -4.4962,1.723 0.5486,-1.9905 c 0.3018,-1.0948 0.9816,-2.5903 1.5107,-3.3234 1.3692,-1.8973 7.38,-4.773 10.0278,-4.7975 3.0357,-0.028 3.9976,-1.6892 3.5054,-6.0533 l -0.4136,-3.6667 -4.1212,0.5415 c -2.2667,0.2978 -5.1485,1.2881 -6.404,2.2007 -2.2823,1.6589 -2.2827,1.6588 -1.6435,-0.6601 1.6748,-6.0761 6.2058,-8.4749 15.9783,-8.4594 8.2912998,0.013 14.9779998,1.7734 19.3117998,5.0837 1.7095002,1.3057 4.7973002,3.6745 6.8619702,5.2639 3.958,3.0471 8.0299,3.7052 10.3743,1.6769 0.7328,-0.6341 2.8929,-3.708 4.8001,-6.8309 4.466,-7.3129 13.8164,-17.4009 24.5773,-26.5165 4.6917,-3.9744 8.8009,-7.5123 9.1313,-7.862 0.3305,-0.3498 -1.9727,-0.5308 -5.1183,-0.4024 l -5.7191,0.2336 3.8226,-1.6735 c 6.4056,-2.8041 7.1727,-8.5638 1.9523,-14.658 -3.1032,-3.6226 -5.7357,-5.0326 -10.7573,-5.762 -2.2711,-0.3299 -5.8219,-1.4305 -7.8907,-2.4456 -3.5959,-1.7647 -3.7614,-1.7701 -3.7614,-0.1242 0,0.947 0.9097,4.0104 2.0215,6.8077 4.063,10.2222 4.4151,18.1134 1.121,25.1211 -2.6324,5.6 -10.7542,10.3297 -19.8166,11.54 l -5.6273,0.7515 4.0155,-3.8076 c 4.6635,-4.4222 7.151,-9.8069 7.1775,-15.5372 0.026,-5.5201 -1.7431,-9.7851 -7.1187,-17.1659 -7.72277,-10.6035 -9.0208702,-15.5024 -5.70627,-21.533 l 1.65167,-3.0051 -4.8537702,1.9983 c -4.1006,1.6882 -6.6411,1.9866 -16.37,1.9229 -6.3338998,-0.041 -12.6677998,-0.51 -14.0753998,-1.0411 l -2.5591,-0.9657 3.489,-0.081 c 5.3979,-0.1259 15.7524998,-3.3926 22.2181998,-7.0096 6.1447,-3.4374 16.5187702,-11.4507 16.5187702,-12.7598 0,-0.4208 -4.3191,-4.4053 -9.5979702,-8.8543 l -9.59799997,-8.0891 -1.27840003,2.8668 c -0.7031,1.5767 -2.0868,3.4422 -3.0747,4.1454 -1.759,1.2522 -1.7875,1.1769 -1.3713,-3.6271 0.5204,-6.009 -1.0476,-9.6538 -5.7478998,-13.3607 -4.0276,-3.1764 -4.4788,-3.2195 -3.8332,-0.3654 0.5724,2.5299 -1.1013,3.4053 -6.554,3.428 -1.7021,0.01 -4.4728,0.6518 -6.1573,1.4325 -4.0332,1.8695 -8.5317,1.7977 -11.9033,-0.19 l -2.73,-1.6095 4.1827,-0.6987 c 5.1695,-0.8634 7.038,-2.6215 5.7106,-5.3731 -1.5864,-3.2885 -1.0492,-6.5885 1.6224,-9.964 l 2.5587,-3.2328 -3.7387,-1.0444 c -2.4741,-0.6911 -4.6291,-2.1694 -6.3714,-4.3707 -2.3269,-2.9401 -3.11,-3.3264 -6.7436,-3.3264 -2.2917,0 -5.459001,0.7624 -7.157101,1.7228 -3.0213,1.7089 -3.0426,1.7069 -2.6192,-0.2366 1.0034,-4.6051 5.0805,-7.5345 11.915801,-8.5616 2.4632,-0.3701 4.4785,-0.9905 4.4785,-1.3785 0,-0.3881 1.0032,-1.2128 2.2293,-1.8325 l 2.2294,-1.1269 -2.2294,-2.292 c -1.2261,-1.2606 -2.2293,-3.3254 -2.2293,-4.5883 0,-2.927 -3.2303,-4.5107 -9.3068,-4.5629 -4.295801,-0.037 -4.405101,-0.1023 -3.017001,-1.804 2.1661,-2.6552 6.870701,-4.0347 11.358601,-3.3306 10.4596,1.6409 25.7036,1.0168 25.7036,-1.0524 0,-2.1961 -3.0564,-7.2816 -5.2802,-8.7857 l -2.8238,-1.9099 3.2264,0 c 6.4616,-0.01 11.7691998,4.2822 13.0015998,10.5074 0.3309,1.6715 1.326,3.1778 2.4049,3.6405 1.0122,0.434 2.7808,1.9106 3.93030003,3.2813 2.99529997,3.5717 2.77019997,7.974 -0.6858,13.4134 -2.13680003,3.363 -2.71620003,5.1628 -2.51650003,7.8173 l 0.2593,3.4485 5.1183,0.5758 c 13.5815702,1.528 26.6691702,9.242 39.1265702,23.0617 l 5.4611,6.0583 6.8753,-3.2976 6.8754,-3.2975 7.5119,1.1096 c 10.4566,1.5445 24.8487,0.6802 31.8239,-1.9112 13.9284,-5.1746 21.9889,-16.5304 24.2247,-34.1283 l 0.541,-4.2585 -1.9352,5.2049 c -2.9871,8.0336 -5.2882,12.3901 -9.0337,17.103 -6.1562,7.7461 -18.2166,13.1343 -29.4688,13.1657 -4.0437,0.011 -22.761,-2.5108 -23.2629,-3.1347 -0.072,-0.09 -0.2667,-2.2825 -0.4318,-4.8725 -0.2824,-4.4305 -0.1788,-4.7104 1.7526,-4.7317 1.5707,-0.017 2.2979,-0.8006 3.0963,-3.3348 l 1.0435,-3.3122 0.6273,2.6274 c 0.345,1.4451 1.3377,3.0492 2.206,3.5647 1.3113,0.7785 1.8217,0.4158 3.0141,-2.1421 l 1.4354,-3.0794 1.32,3.0919 c 1.5623,3.6598 3.6366,4.4143 10.2325,3.7223 6.1608,-0.6465 10.4846,-2.387 8.6676,-3.4892 -2.1908,-1.3288 -14.2178,-3.7894 -32.4159,-6.6319 -9.6181,-1.5023 -20.2747,-3.4363 -23.6811,-4.2977 -10.4593,-2.6447 -17.3063,-9.1947 -18.5615,-17.7562 -0.8593,-5.8617 -2.9095,-10.1259 -5.88637,-12.2434 l -2.6274,-1.869 5.78047,0.5279 c 9.9739,0.9108 17.5925,5.7804 21.1199,13.4991 3.0413,6.6552 7.9035,12.1281 12.8882,14.507 2.3913,1.1412 9.772,3.1172 16.4016,4.391 13.752,2.6424 24.4098,5.5053 27.857,7.4828 2.8625,1.6422 4.0638,0.5288 4.7907,-4.44 0.6129,-4.1897 -2.8191,-13.7037 -5.8485,-16.2128 -4.155,-3.4415 -13.8115,-3.8533 -14.5733,-0.6215 -0.6684,2.835 -4.4452,4.3449 -7.5825,3.0311 -2.5778,-1.0794 -2.5944,-1.0659 -2.0938,1.7104 0.6781,3.7613 0.1712,3.5247 -2.1146,-0.9869 -2.5507,-5.0347 -5.3627,-5.3094 -4.8539,-0.4741 0.3851,3.6595 0.2177,3.5563 -3.0218,-1.8647 -1.2352,-2.067 -3.4829,-4.4092 -4.9948,-5.2048 -1.512,-0.7956 -3.3094,-2.5569 -3.9943,-3.914 -1.1242,-2.2273 -1.078,-2.8427 0.4742,-6.323 l 1.7196,-3.8557 -2.2053,-0.614 c -2.8858,-0.8035 -4.3474,-2.2098 -4.3474,-4.1833 0,-1.299 2.7697,-2.2708 14.8399,-5.2069 12.6985,-3.089 14.9618,-3.9066 15.6844,-5.6659 1.1906,-2.899 6.0007,-4.3615 16.3935,-4.9848 9.3096,-0.5583 21.3696,0.7316 26.9773,2.8853 2.8904,1.1101 3.8596,0.9976 9.6572,-1.1211 5.3311,-1.9482 8.213,-2.3703 16.6811,-2.4432 l 10.2366,-0.088 -0.063,3.867 c -0.043,2.6575 -0.7772,4.9053 -2.3458,7.1868 -2.7713,4.0306 -2.7841,4.216 -0.3396,4.8966 3.1234,0.8696 6.4034,5.4479 7.5561,10.547 0.5883,2.6025 2.01,5.8837 3.1591,7.2916 2.442,2.992 8.4204,5.484 13.1563,5.484 2.2831,0 3.2211,0.3722 2.9812,1.1829 -0.4853,1.6399 -5.6323,5.3862 -8.2719,6.0209 -4.446,1.069 -4.4866,1.1337 -2.5427,4.0506 1.4493,2.1745 1.7307,3.5449 1.315,6.4024 -1.943,13.354 -1.8192,14.9845 1.5562,20.5024 l 2.1286,3.4796 -1.8936,-0.021 c -2.1919,-0.024 -8.921,-3.2467 -10.8744,-5.2078 -1.1899,-1.1946 -1.2964,-0.9821 -0.9858,1.9681 0.31,2.9455 -0.1007,3.7708 -3.7544,7.5454 -3.021,3.1209 -3.8513,4.5167 -3.1497,5.295 0.9629,1.0682 34.4222,-0.1557 53.1252,-1.9432 9.5542,-0.9132 25.8731,0.1542 35.431,2.3175 3.7372,0.8458 10.8994,3.0413 15.9159,4.8788 l 9.1211,3.3409 14.3378,-1.0316 c 10.8111,-0.7778 16.3313,-1.6543 22.4418,-3.5632 7.1694,-2.2397 9.6781,-2.5409 21.7528,-2.6124 14.2243,-0.084 17.7799,0.5968 27.6697,5.2984 3.5933,1.7083 4.1713,1.7253 11.4532,0.3377 4.2179,-0.8038 11.967,-1.4614 17.2203,-1.4614 11.0734,0 15.5383,-1.5988 19.9176,-7.132 5.3755,-6.7919 2.7185,-14.7978 -6.6326,-19.9847 -8.6437,-4.7945 -13.8066,-5.4315 -38.4656,-4.7457 -25.1433,0.6992 -34.5892,1.5544 -59.3132,5.3701 -33.6356,5.191 -53.0985,6.0364 -64.516,2.8025 -17.0708,-4.8352 -25.623,-12.2546 -25.623,-22.2292 0,-7.1218 6.1532,-16.3751 11.1678,-16.7941 0.9118,-0.076 2.0517,-1.0973 2.533,-2.2692 1.3696,-3.3348 6.9873,-5.9041 19.5927,-8.9608 13.4972,-3.2731 19.0677,-5.8152 23.4886,-10.7196 5.1861,-5.7533 6.0959,-10.9697 3.0632,-17.5644 l -1.7166,-3.7326 2.3564,1.1331 c 6.1485,2.9566 7.9009,5.2642 8.7074,11.4661 l 0.4733,3.6391 2.1326,-1.8426 c 4.3933,-3.796 11.9157,-6.0813 21.3262,-6.479 l 8.9571,-0.3785 -7.7362,2.2603 c -9.1143,2.6631 -12.6267,4.5297 -19.8365,10.5422 -5.5688,4.6439 -6.2688,5.9147 -2.3469,4.2605 3.6273,-1.5299 12.2133,-1.1312 19.9503,0.9265 12.1061,3.2196 18.0068,2.1456 31.0313,-5.648 8.7519,-5.2369 13.8653,-6.2645 23.4233,-4.7071 l 7.5507,1.2303 -8.5305,1.0861 c -10.2825,1.3091 -14.2981,3.3751 -19.2674,9.9129 -2.2411,2.9484 -5.4233,5.7396 -8.3807,7.3508 -4.7136,2.568 -4.9326,2.5942 -19.2696,2.3038 -7.9761,-0.1615 -15.4291,0.087 -16.5625,0.5521 -1.5953,0.6547 -0.8897,0.8457 3.1243,0.8457 4.3499,0 6.399,0.6481 12.7237,4.0245 9.3276,4.9794 15.4594,5.7429 28.1103,3.5 4.7672,-0.8452 10.4936,-1.2869 12.7958,-0.9871 5.1313,0.6682 20.1773,4.2492 19.7668,4.7045 -0.1644,0.1825 -3.1658,-0.1174 -6.6698,-0.6663 -8.2943,-1.2994 -17.7854,-0.4629 -24.7115,2.1777 -4.4762,1.7067 -7.4354,2.1152 -15.3549,2.1199 -8.6345,0 -10.679,-0.3261 -17.061,-2.7647 -6.1094,-2.3344 -8.5938,-2.7731 -15.7814,-2.7867 -9.7047,-0.018 -13.1927,1.4252 -19.8968,8.2348 -9.4699,9.6189 -19.4027,10.3413 -41.3095,3.0044 -1.0936,-0.3663 -1.4928,0.036 -1.4928,1.5034 0,3.6724 2.4515,7.3608 6.2469,9.3991 8.7424,4.6949 28.132,4.7035 59.8644,0.027 32.5167,-4.7926 63.6854,-8.0033 88.2907,-9.0949 16.0564,-0.7124 24.2265,0.7729 34.5509,6.2811 7.7249,4.1214 12.6976,8.9641 15.0135,14.621 2.6818,6.5505 1.7858,12.4126 -3.1378,20.5291 -3.6951,6.0914 -3.1752,6.6582 5.7819,6.3044 l 6.5703,-0.2596 -2.1539,2.4895 c -3.0139,3.4835 -9.5468,7.2449 -13.9351,8.0233 l -3.7043,0.6572 3.3263,1.8655 c 3.7919,2.1266 10.8668,8.2512 10.2816,8.9005 -0.214,0.2374 -2.4423,-0.2621 -4.9518,-1.1102 -8.4346,-2.8503 -12.7383,-3.2245 -25.0358,-2.1769 -11.0583,0.9419 -12.3031,0.8792 -16.808,-0.8467 -2.6759,-1.0253 -4.6196,-1.4046 -4.3194,-0.8429 1.7506,3.2751 15.6459,19.0233 18.8854,21.4038 4.3413,3.19 6.8181,3.9825 17.2486,5.5191 12.7372,1.8764 24.1517,7.011 28.8872,12.9943 2.5579,3.2318 2.755,3.9333 2.4083,8.5704 -0.2955,3.9533 -1.1036,6.1904 -3.7197,10.2975 -5.592,8.7791 -5.5467,8.6134 -5.2877,19.3624 l 0.2395,9.9366 4.0519,4.4702 c 3.6229,3.9967 4.052,4.9161 4.052,8.6798 0,3.7471 -0.3786,4.5692 -3.4452,7.4812 -4.7766,4.5357 -11.982,6.7174 -22.3595,6.7702 -7.006,0.036 -8.3173,0.2788 -8.3173,1.542 0,0.8248 -1.1516,2.638 -2.5591,4.0292 -1.4075,1.3913 -2.5592,3.3206 -2.5592,4.2873 0,4.1714 -6.4373,9.6265 -11.2755,9.5549 -1.7329,-0.026 -1.7827,-0.1347 -0.4539,-0.9933 1.7286,-1.117 4.052,-5.7281 4.052,-8.042 0,-1.3082 -0.5704,-1.4863 -3.2424,-1.0123 -4.3284,0.7678 -12.665,-0.8127 -15.3262,-2.9057 -3.3646,-2.6462 -3.7668,-2.8366 -8.552,-4.0495 -5.4601,-1.3839 -9.2275,-0.7161 -13.3134,2.3599 l -3.0715,2.3123 0,-2.7377 c 0,-2.8915 4.2403,-8.5613 6.4028,-8.5613 0.7543,0 1.1165,-1.064 1.0469,-3.0756 -0.059,-1.6916 0.065,-3.7144 0.2739,-4.4951 0.6223,-2.3229 -10.3876,-1.992 -12.7529,0.3833 -2.131,2.14 -2.3506,0.7143 -0.5011,-3.2533 1.5208,-3.2624 4.526,-5.1593 9.679,-6.1096 2.0472,-0.3775 5.0758,-1.7054 6.7302,-2.9509 1.6544,-1.2455 4.257,-2.2645 5.7834,-2.2645 2.6614,0 4.4089,-1.9465 3.3898,-3.7757 -0.7733,-1.3881 -8.8343,-3.0303 -11.5849,-2.3601 -3.5137,0.8562 -3.0597,-1.1603 0.8285,-3.6794 3.4123,-2.2109 10.437,-2.3049 14.9771,-0.2005 1.7783,0.8243 4.6259,1.5028 6.3279,1.5079 4.4666,0.013 11.0249,3.7458 15.5614,8.8563 3.4625,3.9007 4.1897,4.3271 6.0447,3.5447 3.354,-1.4146 7.3862,-6.5064 8.3734,-10.5739 0.8559,-3.5261 0.7365,-3.9921 -2.0666,-8.0646 -3.6047,-5.2373 -5.1175,-9.9657 -4.5123,-14.1034 l 0.4524,-3.0927 -6.5403,-0.4304 c -3.6674,-0.2414 -7.7176,-1.1115 -9.2201,-1.9808 -2.6776,-1.5492 -2.6806,-1.5482 -3.7411,1.2922 -2.0211,5.4129 -14.5681,15.3747 -13.2936,10.5545 1.5377,-5.8159 1.4609,-8.7004 -0.3494,-13.1214 l -1.8802,-4.592 -1.1626,6.0898 c -1.4073,7.3718 -4.4496,11.9 -10.0917,15.0214 -2.2251,1.231 -4.2488,2.0129 -4.4971,1.7374 -0.2483,-0.2754 0.3049,-1.6964 1.2293,-3.1577 3.8004,-6.0076 4.4408,-14.2502 1.56,-20.0777 l -1.1269,-2.2793 -0.9948,3.344 c -3.2781,11.0186 -13.8403,20.2797 -26.0979,22.8828 -2.265,0.4811 -2.3725,0.4091 -0.9347,-0.6257 8.8756,-6.3883 11.718,-13.5964 8.6129,-21.8408 -2.1413,-5.6853 -6.4416,-9.6238 -12.9313,-11.8433 -8.0785,-2.763 -14.0537,-6.8316 -17.8691,-12.1676 -1.7804,-2.4899 -3.4917,-4.8735 -3.803,-5.2969 -0.7072,-0.9619 -17.431,3.1859 -24.1145,5.9809 -6.8202,2.8522 -10.8064,6.8533 -10.8064,10.847 0,4.2781 2.7837,7.8264 7.0834,9.0293 5.6668,1.5854 7.4184,2.6601 7.4184,4.5515 0,2.3347 -5.506,5.5946 -19.2962,11.4243 -6.0429,2.5546 -11.6584,4.9457 -12.4791,5.3135 -1.3569,0.6082 -1.2989,0.9235 0.6398,3.4795 2.6236,3.4591 2.6314,5.7062 0.038,11.1825 l -2.0164,4.2585 -0.6188,-2.839 c -0.7782,-3.5703 -2.7615,-6.1512 -4.7271,-6.1512 -1.3548,0 -1.2869,0.4503 0.6451,4.2853 2.3138,4.5925 2.2342,7.3522 -0.339,11.7608 l -1.3566,2.3243 -1.1449,-4.3555 c -0.7329,-2.7887 -2.2294,-5.4121 -4.16,-7.2925 -3.7441,-3.6468 -4.4647,-3.6789 -4.0016,-0.1783 0.5216,3.9432 -1.2386,12.1427 -3.456,16.0979 l -1.8963,3.3823 -0.4914,-5.678 c -0.6508,-7.5194 -1.3288,-8.9902 -4.1441,-8.9902 -2.1874,0 -2.3803,0.3602 -3.364,6.2822 -1.1761,7.0817 -3.2698,12.2174 -6.119,15.0103 l -1.9308,1.8927 0.5578,-2.3658 c 0.3068,-1.3012 0.8038,-4.6016 1.1044,-7.3341 0.5296,-4.8131 0.481,-4.9683 -1.5547,-4.9683 -1.177,0 -3.0111,1.0956 -4.1694,2.4907 -3.0207,3.6379 -8.239,5.9817 -13.371,6.0055 -4.7672,0.022 -5.7114,0.9865 -2.537,2.5911 1.0679,0.5397 2.6344,2.418 3.4813,4.1738 1.9251,3.992 0.8937,7.7225 -2.7822,10.0629 -1.3712,0.873 -3.125,2.7739 -3.8972,4.2242 -1.7646,3.3139 -5.2343,5.3318 -10.4582,6.0821 l -4.0666,0.5842 3.4122,-3.3592 c 2.5335,-2.4943 3.1672,-3.6394 2.4608,-4.4472 -1.1645,-1.3316 -24.8195,-1.3779 -32.0835,-0.063 -6.1058,1.1055 -12.258,0.074 -16.3677,-2.7433 -2.5758,-1.766 -4.0217,-2.0895 -7.79,-1.7429 -2.8354,0.2609 -5.2928,1.0941 -6.3464,2.1518 -2.0691,2.0773 -2.2577,0.601 -0.4253,-3.3299 1.2997,-2.7881 5.1568,-5.647 7.6189,-5.647 0.7261,0 2.8721,-1.6217 4.769,-3.6037 3.4343,-3.5886 3.4414,-3.611 1.7206,-5.3387 -1.4091,-1.4147 -2.609,-1.6342 -6.4988,-1.1888 -2.6238,0.3004 -5.66,1.1927 -6.7469,1.9828 -1.878,1.3651 -1.9537,1.3327 -1.5198,-0.6489 1.3009,-5.9413 5.956,-8.4083 15.7066,-8.324 4.4181,0.038 7.4274,-0.2988 7.1478,-0.8006 -0.9829,-1.7644 -6.7522,-3.1195 -11.0264,-2.5899 l -4.361,0.5404 2.9167,-2.7559 c 3.9438,-3.7262 8.7368,-4.4386 15.1282,-2.2487 5.5997,1.9188 5.9333,2.0023 8.6086,2.1548 1.0569,0.06 3.8669,2.2294 6.271,4.8408 3.9664,4.3086 4.7106,4.7314 8.3215,4.7281 5.9831,-0.01 12.0556,-4.5977 17.414,-13.1698 2.1273,-3.4029 2.3102,-4.0523 0.9812,-3.4812 -7.0076,3.011 -17.3034,4.2463 -21.223,2.5463 -1.3457,-0.5837 -1.0063,-0.8452 1.7258,-1.3298 3.773,-0.6693 7.9252,-4.8148 11.8229,-11.8034 2.4739,-4.436 6.006,-7.2676 10.9299,-8.7627 1.7508,-0.5316 5.7815,-2.2971 8.957,-3.9234 l 5.7737,-2.9567 -3.4122,-0.7423 c -9.1896,-1.9988 -19.5412,-0.2334 -28.6979,4.8944 -5.5116,3.0865 -10.0895,3.4486 -17.3668,1.3735 -4.0775,-1.1627 -4.1339,-1.2217 -1.2796,-1.3399 7.0409,-0.2916 12.4636,-2.6563 29.0037,-12.6475 4.5977,-2.7773 10.3723,-5.2677 15.7814,-6.8059 10.9565,-3.1157 19.0682,-7.5582 26.018,-14.2492 6.9201,-6.6624 18.3371,-12.9699 29.1724,-16.1169 8.8662,-2.5752 28.5086,-6.0614 34.8064,-6.1777 2.9304,-0.054 3.435,-0.2633 2.1326,-0.8842 -0.9384,-0.4473 -7.0483,-0.8432 -13.5778,-0.8798 -6.5293,-0.037 -11.6674,-0.2931 -11.4178,-0.5699 0.2496,-0.2769 4.2483,-1.1115 8.886,-1.8546 l 8.4321,-1.3513 -14.5018,0.3875 c -16.9727,0.4536 -29.1114,2.882 -42.6525,8.5328 -10.2983,4.2976 -15.3797,7.3591 -26.018,15.6763 -4.4572,3.4847 -10.0475,7.4169 -12.423,8.7382 -7.7488,4.3103 -17.3276,5.2241 -26.6431,2.5418 -5.7342,-1.6512 -9.5577,2.1064 -9.5577,9.393 0,3.1985 -3.6475,9.1388 -6.6794,10.8781 -1.3008,0.7463 -6.124,1.8218 -10.7183,2.3902 -8.9276,1.1043 -11.606,2.1172 -11.606,4.389 0,0.7835 -0.8317,2.6725 -1.8483,4.1978 -2.4588,3.6894 -2.4176,8.2897 0.094,10.5463 2.1953,1.972 9.1794,2.3974 12.2597,0.7466 1.8379,-0.9849 1.84,-0.977 0.1572,0.5742 -5.713,5.2664 -15.4621,5.973 -25.6328,1.8579 l -6.5005,-2.6301 -2.2739,1.8752 c -3.2002,2.6391 -3.4408,7.3103 -0.6147,11.9304 1.6252,2.6566 1.8849,3.6635 1.0381,4.024 -2.0109,0.856 -9.0163,-1.4335 -13.1601,-4.3011 l -4.0391,-2.795 -0.4867,5.8778 c -0.2677,3.2328 -1.0319,6.8361 -1.6982,8.0074 -0.9964,1.7516 -5.5179,4.968 -6.9838,4.968 -0.2093,0 0.5567,-2.1007 1.7021,-4.6682 1.5222,-3.4124 1.928,-5.449 1.5078,-7.5707 -0.316,-1.5964 -0.9246,-2.9025 -1.3523,-2.9025 -0.4278,0 -6.3473,3.0806 -13.1545,6.8458 -8.8507,4.8955 -12.3768,7.3165 -12.3768,8.4979 0,3.2508 -2.7955,9.3189 -5.1501,11.1788 -1.3183,1.0414 -2.6507,3.1754 -2.9609,4.7422 -0.8184,4.1337 -4.3225,8.2807 -7.9385,9.3948 -4.6084,1.4199 -4.7944,1.2681 -2.3669,-1.9323 z m 59.2563,-227.7559 8.8505,-3.5507 -5.4383,-0.6249 c -2.9911,-0.3437 -6.5899,-1.1157 -7.9975,-1.7156 -2.0604,-0.8782 -2.3513,-0.8579 -1.4928,0.1044 0.5865,0.6573 1.0663,2.3725 1.0663,3.8116 0,3.4772 -2.7444,5.217 -5.7963,3.6744 -1.9218,-0.9714 -2.0431,-0.9287 -1.0671,0.3758 1.5055,2.0125 1.8261,1.9565 11.8752,-2.075 z m -10.1301,-3.0776 c 0,-0.5204 -0.3838,-0.9463 -0.853,-0.9463 -0.4692,0 -0.8531,0.4259 -0.8531,0.9463 0,0.5205 0.3839,0.9464 0.8531,0.9464 0.4692,0 0.853,-0.4259 0.853,-0.9464 z m 1.8661,-4.4318 c -0.6158,-0.2733 -1.3516,-0.2397 -1.6351,0.075 -0.2834,0.3145 0.2205,0.5382 1.1197,0.4971 0.9938,-0.045 1.1958,-0.2697 0.5154,-0.5718 z"
       id="path11248"
       inkscape:connector-curvature="0" />
  </g>
</svg>
