<?xml version="1.0" encoding="UTF-8" standalone="no"?>
<!-- Created with Inkscape (http://www.inkscape.org/) -->

<svg
   xmlns:dc="http://purl.org/dc/elements/1.1/"
   xmlns:cc="http://creativecommons.org/ns#"
   xmlns:rdf="http://www.w3.org/1999/02/22-rdf-syntax-ns#"
   xmlns:svg="http://www.w3.org/2000/svg"
   xmlns="http://www.w3.org/2000/svg"
   xmlns:sodipodi="http://sodipodi.sourceforge.net/DTD/sodipodi-0.dtd"
   xmlns:inkscape="http://www.inkscape.org/namespaces/inkscape"
   width="673.7641"
   height="449.1828"
   id="svg6279"
   version="1.1"
   inkscape:version="0.48.4 r9939"
   sodipodi:docname="Nieuw document 36">
  <defs
     id="defs6281" />
  <sodipodi:namedview
     id="base"
     pagecolor="#ffffff"
     bordercolor="#666666"
     borderopacity="1.0"
     inkscape:pageopacity="0.0"
     inkscape:pageshadow="2"
     inkscape:zoom="0.7"
     inkscape:cx="530.16902"
     inkscape:cy="26.192733"
     inkscape:document-units="px"
     inkscape:current-layer="layer1"
     showgrid="false"
     fit-margin-top="0"
     fit-margin-left="0"
     fit-margin-right="0"
     fit-margin-bottom="0"
     inkscape:window-width="1600"
     inkscape:window-height="837"
     inkscape:window-x="-8"
     inkscape:window-y="-8"
     inkscape:window-maximized="1" />
  <metadata
     id="metadata6284">
    <rdf:RDF>
      <cc:Work
         rdf:about="">
        <dc:format>image/svg+xml</dc:format>
        <dc:type
           rdf:resource="http://purl.org/dc/dcmitype/StillImage" />
        <dc:title></dc:title>
      </cc:Work>
    </rdf:RDF>
  </metadata>
  <g
     inkscape:label="Laag 1"
     inkscape:groupmode="layer"
     id="layer1"
     transform="translate(22.596334,-124.91364)">
    <rect
       y="124.91364"
       x="-22.596334"
       height="449.1828"
       width="673.7641"
       id="rect10381"
       style="fill:#ffff00;fill-opacity:1;fill-rule:evenodd;stroke:none" />
    <rect
       y="124.91364"
       x="158.68076"
       height="449.1828"
       width="93.258186"
       id="rect10383"
       style="fill:#0c40aa;fill-opacity:1;fill-rule:evenodd;stroke:none" />
    <rect
       y="302.49756"
       x="-22.596334"
       height="95.059608"
       width="673.7641"
       id="rect10385"
       style="fill:#0c40aa;fill-opacity:1;fill-rule:evenodd;stroke:none" />
    <path
       sodipodi:nodetypes="cccccccccccccc"
       inkscape:connector-curvature="0"
       id="path9799-2"
       d="m 273.89118,422.97292 37.03997,47.89295 45.71397,0.21191 c 1.3149,16.6843 -14.41346,14.88069 -28.13152,15.25793 l 24.14637,21.40352 c -15.47028,20.39762 -25.55358,-0.0362 -37.2746,-8.0528 l -1.87546,23.0988 c -15.60368,4.53781 -11.70421,-14.43074 -9.14288,-31.78735 -11.14095,4.20737 -18.95358,-0.94718 -27.42843,-4.23835 l -0.29957,-9.52897 c 5.60398,1.83696 11.24032,3.59497 19.2878,-0.64295 -16.69182,-9.9597 -28.86843,-23.62984 -40.79089,-37.50909 l -1.17216,-18.22476 z"
       style="fill:#da0f19;fill-opacity:1;stroke:#000000;stroke-width:1.78725433;stroke-linecap:butt;stroke-linejoin:miter;stroke-miterlimit:4;stroke-opacity:1;stroke-dasharray:none" />
    <path
       sodipodi:nodetypes="cccc"
       inkscape:connector-curvature="0"
       id="path9801-4"
       d="m 353.71471,462.38925 c 21.0448,-5.02916 24.00571,14.56301 9.61154,24.79414 3.19057,-3.60193 0.68421,-9.95606 -7.50185,-10.38389 -6.74917,0.74158 -11.25734,-9.72421 -2.10969,-14.41025 z"
       style="fill:#000000;fill-opacity:1;stroke:#000000;stroke-width:1.78725433;stroke-linecap:butt;stroke-linejoin:miter;stroke-miterlimit:4;stroke-opacity:1;stroke-dasharray:none" />
    <path
       sodipodi:nodetypes="cccc"
       inkscape:connector-curvature="0"
       id="path9801-9-8"
       d="m 346.4002,504.28118 c 21.44147,3.39313 15.06096,22.30735 -2.74825,26.15466 4.565,-2.06446 5.23013,-8.78358 -2.00617,-12.2687 -6.47408,-1.87971 -5.72327,-13.09038 4.75442,-13.88596 z"
       style="fill:#000000;fill-opacity:1;stroke:#000000;stroke-width:1.78725433;stroke-linecap:butt;stroke-linejoin:miter;stroke-miterlimit:4;stroke-opacity:1;stroke-dasharray:none" />
    <path
       sodipodi:nodetypes="cccc"
       inkscape:connector-curvature="0"
       id="path9801-8-6"
       d="m 316.72496,517.72398 c 8.35721,18.16918 -12.71705,23.46942 -25.87744,11.96029 4.37954,2.37079 11.00548,-0.73304 10.36753,-8.1227 -1.72484,-5.94518 9.13748,-11.3976 15.50991,-3.83759 z"
       style="fill:#000000;fill-opacity:1;stroke:#000000;stroke-width:1.78725433;stroke-linecap:butt;stroke-linejoin:miter;stroke-miterlimit:4;stroke-opacity:1;stroke-dasharray:none" />
    <path
       sodipodi:nodetypes="cccc"
       inkscape:connector-curvature="0"
       id="path9801-6-5"
       d="m 274.44054,475.47739 c -21.47072,3.2371 -15.25887,22.19714 2.5157,26.17381 -4.54696,-2.09761 -5.15213,-8.82132 2.1157,-12.25371 6.48964,-1.83259 5.83883,-13.04834 -4.6314,-13.9201 z"
       style="fill:#000000;fill-opacity:1;stroke:#000000;stroke-width:1.78725433;stroke-linecap:butt;stroke-linejoin:miter;stroke-miterlimit:4;stroke-opacity:1;stroke-dasharray:none" />
    <path
       sodipodi:nodetypes="cccccccccccccc"
       inkscape:connector-curvature="0"
       id="path9799"
       d="m 137.68222,421.90576 -37.03976,47.89295 -45.714177,0.21193 c -1.315313,16.68428 14.413466,14.88069 28.131932,15.25791 l -24.146575,21.4035 c 15.470281,20.39763 25.553175,-0.0362 37.274395,-8.05278 l 1.87526,23.0988 c 15.604085,4.53781 11.704615,-14.43077 9.143075,-31.78733 11.14116,4.20737 18.95358,-0.94722 27.42822,-4.23835 l 0.29978,-9.52899 c -5.60398,1.83693 -11.24011,3.59501 -19.2878,-0.64295 16.69182,-9.95972 28.86864,-23.62986 40.79089,-37.50909 l 1.17216,-18.22474 z"
       style="fill:#da0f19;fill-opacity:1;stroke:#000000;stroke-width:1.78725433;stroke-linecap:butt;stroke-linejoin:miter;stroke-miterlimit:4;stroke-opacity:1;stroke-dasharray:none" />
    <path
       sodipodi:nodetypes="cccc"
       inkscape:connector-curvature="0"
       id="path9801"
       d="m 57.858693,461.32209 c -21.044802,-5.02916 -24.005709,14.56305 -9.611537,24.79412 -3.190982,-3.60191 -0.684211,-9.95602 7.502057,-10.38387 6.749381,0.7416 11.257337,-9.72419 2.10948,-14.41025 z"
       style="fill:#000000;fill-opacity:1;stroke:#000000;stroke-width:1.78725433;stroke-linecap:butt;stroke-linejoin:miter;stroke-miterlimit:4;stroke-opacity:1;stroke-dasharray:none" />
    <path
       sodipodi:nodetypes="cccc"
       inkscape:connector-curvature="0"
       id="path9801-9"
       d="m 65.173203,503.21404 c -21.441263,3.39311 -15.060958,22.30735 2.748672,26.15464 -4.565838,-2.06446 -5.230755,-8.78358 2.005956,-12.26871 6.474079,-1.8797 5.723064,-13.09037 -4.754628,-13.88593 z"
       style="fill:#000000;fill-opacity:1;stroke:#000000;stroke-width:1.78725433;stroke-linecap:butt;stroke-linejoin:miter;stroke-miterlimit:4;stroke-opacity:1;stroke-dasharray:none" />
    <path
       sodipodi:nodetypes="cccc"
       inkscape:connector-curvature="0"
       id="path9801-8"
       d="m 94.848445,516.65681 c -8.35742,18.16919 12.717255,23.46945 25.877435,11.9603 -4.37954,2.37076 -11.00527,-0.73302 -10.36774,-8.12273 1.72506,-5.94517 -9.13686,-11.39753 -15.509695,-3.83757 z"
       style="fill:#000000;fill-opacity:1;stroke:#000000;stroke-width:1.78725433;stroke-linecap:butt;stroke-linejoin:miter;stroke-miterlimit:4;stroke-opacity:1;stroke-dasharray:none" />
    <path
       sodipodi:nodetypes="cccc"
       inkscape:connector-curvature="0"
       id="path9801-6"
       d="m 137.13286,474.41027 c 21.47093,3.2371 15.25908,22.19711 -2.5157,26.17377 4.54696,-2.09761 5.15234,-8.82131 -2.11549,-12.25373 -6.48985,-1.83257 -5.83904,-13.04833 4.63119,-13.92004 z"
       style="fill:#000000;fill-opacity:1;stroke:#000000;stroke-width:1.78725433;stroke-linecap:butt;stroke-linejoin:miter;stroke-miterlimit:4;stroke-opacity:1;stroke-dasharray:none" />
    <path
       inkscape:connector-curvature="0"
       id="path10182"
       d="m 203.89661,548.32013 c -3.23144,-4.05705 -5.43739,-9.06254 -6.41993,-14.57006 -0.53235,-2.98081 -0.28132,-11.59484 0.40206,-13.76923 0.0768,-0.24762 -0.5228,-0.0577 -2.16196,0.6838 -1.24872,0.56469 -2.8966,1.17272 -3.66213,1.35111 -1.92049,0.44742 -5.24985,0.44479 -6.97407,-0.006 -3.51317,-0.91746 -6.99626,-3.35071 -8.88334,-6.20632 -0.8869,-1.34141 -2.45096,-4.99737 -2.22919,-5.20972 0.0456,-0.0436 0.94831,0.0503 2.00617,0.20827 2.47482,0.36989 7.12053,0.37115 8.76986,0.002 8.98956,-2.00971 11.62205,-10.36792 8.796,-27.92783 -0.72674,-4.51512 -0.57405,-4.28096 -1.63564,-2.51228 -4.51501,7.52156 -10.31068,12.15974 -17.71959,14.18116 -1.88106,0.51321 -2.4464,0.57021 -5.68572,0.57331 -2.97294,0.002 -3.90943,-0.0745 -5.39569,-0.44647 -6.93755,-1.73598 -11.63761,-6.41565 -11.95275,-11.90064 -0.17012,-2.95397 0.51057,-5.32661 2.28728,-7.97628 1.14851,-1.71342 3.68619,-4.31235 5.71704,-5.85562 1.46656,-1.11454 2.14268,-1.46885 3.63496,-1.90442 2.53457,-0.7398 4.159,-0.86406 5.76787,-0.44125 4.40008,1.15626 3.05696,6.89775 -1.86965,7.99441 -0.98503,0.21919 -1.19499,0.38239 -2.17462,1.69203 -2.32296,3.10437 -2.4574,6.03144 -0.37468,8.17005 1.28357,1.31864 3.05157,2.04185 5.27536,2.15819 3.4474,0.18056 6.51619,-0.90836 9.38353,-3.3291 2.70407,-2.28257 4.57435,-5.08733 6.12202,-9.17816 l 0.84686,-2.23868 0.15145,-4.82511 c 0.0996,-3.19001 0.27738,-5.3227 0.52197,-6.29354 1.07881,-4.29099 2.86237,-7.36532 6.17139,-10.63792 l 1.20681,-1.19345 -1.05868,-1.17475 c -1.14042,-1.26527 -1.95512,-2.59473 -2.66631,-4.34927 -1.33232,-3.28578 -1.79911,-6.05843 -2.11093,-12.53914 -0.55828,-11.59749 -2.48955,-19.76487 -5.62161,-23.77747 l -0.46534,-0.59613 -3.48164,4.79187 c -5.79775,7.97859 -8.7097,12.35899 -11.15236,16.77444 -4.79301,8.66642 -7.73317,17.419 -9.20885,27.41339 -0.23692,1.60397 -0.4753,2.957 -0.53007,3.0067 -0.10995,0.10155 -2.34951,-3.24424 -3.24472,-4.85274 -2.43104,-4.37063 -4.11315,-11.0813 -4.11439,-16.41401 0,-0.60578 -0.0643,-1.10137 -0.14108,-1.10137 -0.47384,0 -3.00385,1.44838 -4.27622,2.44818 -1.80015,1.41462 -3.32044,3.23971 -4.44654,5.33811 -0.78442,1.46161 -2.03148,4.71323 -2.38417,6.21689 -0.19294,0.82583 -0.29231,0.83644 -1.14166,0.12368 -1.6124,-1.35156 -2.45512,-4.73931 -2.00741,-8.06899 0.48028,-3.56698 2.26985,-7.53901 4.88056,-10.83071 0.75558,-0.9519 1.29187,-1.73071 1.19229,-1.73071 -0.0996,0 -1.32216,-0.0997 -2.71611,-0.22186 -8.97441,-0.78539 -15.36613,-2.97777 -22.43563,-7.69572 -1.11698,-0.74539 -2.03064,-1.44012 -2.03064,-1.54393 0,-0.10382 0.24812,-0.18862 0.54978,-0.18862 1.01055,0 4.64799,-0.63089 6.87655,-1.19279 9.33416,-2.35295 17.59097,-7.97013 25.92059,-17.63275 2.14226,-2.48522 5.77244,-7.2042 9.88705,-12.85213 1.47091,-2.01921 4.11626,-5.5938 5.87887,-7.94355 l 3.20426,-4.27227 13.93236,0.18159 c 7.66242,0.0997 21.39873,0.13422 30.52542,0.0767 9.12629,-0.0577 20.2969,-0.10486 24.82374,-0.10486 l 8.23066,0 7.78255,10.52211 c 10.24513,13.85162 13.33134,17.49517 18.81126,22.20804 2.83,2.43384 4.01087,3.3044 6.79149,5.00762 5.05483,3.09529 10.32998,4.94594 16.45345,5.77182 l 2.57274,0.34692 -2.22296,1.5102 c -4.03494,2.74168 -7.69707,4.53539 -11.82806,5.79347 -2.86921,0.87378 -7.32717,1.72333 -10.03124,1.91162 -1.02134,0.0711 -2.24142,0.17911 -2.71216,0.24014 l -0.85516,0.11065 0.76803,0.90909 c 4.94176,5.85216 6.93216,13.3532 4.7567,17.92455 -0.43027,0.90394 -1.94766,2.53707 -2.14454,2.30814 -0.0456,-0.05 -0.41492,-1.17359 -0.82653,-2.49734 -1.27133,-4.0895 -3.69304,-7.93834 -6.11226,-9.71499 -1.36386,-1.00155 -3.90092,-2.45831 -4.28162,-2.45831 -0.22592,0 -0.31098,0.34056 -0.31098,1.23647 0,4.86821 -1.47257,11.08479 -3.63184,15.33661 -0.86035,1.694 -3.56836,5.93913 -3.70778,5.81295 -0.0477,-0.0422 -0.28878,-1.43818 -0.54106,-3.10217 -1.96031,-13.0027 -5.98239,-23.15224 -13.78278,-34.78015 -1.44207,-2.14988 -4.28535,-6.20205 -6.31827,-9.00481 l -3.69657,-5.09581 -0.43173,0.47989 c -1.7097,1.90049 -3.54699,6.91596 -4.51833,12.33413 -0.67405,3.75937 -0.93794,6.37859 -1.19561,11.85909 -0.40434,8.60787 -1.72277,13.18309 -4.7762,16.57186 l -1.06553,1.18226 1.24747,1.18956 c 3.35115,3.19609 5.46892,7.03957 6.32678,11.48046 0.23672,1.22811 0.36638,3.20469 0.37032,5.71939 0,3.41093 0.0705,4.03558 0.55766,5.55932 1.91156,5.95777 5.49693,10.51769 9.80095,12.46501 2.34661,1.06161 4.06357,1.4025 6.29774,1.25009 2.14641,-0.14622 3.8588,-0.87136 5.12121,-2.16797 1.18607,-1.218 1.48129,-2.06006 1.37672,-3.92969 -0.0685,-1.17659 -0.24791,-1.81199 -0.82694,-2.86706 -1.123,-2.05079 -1.90077,-2.79073 -3.26484,-3.10678 -2.26819,-0.52545 -4.05963,-2.36197 -4.35921,-4.46749 -0.17011,-1.19231 0.60891,-2.61783 1.75638,-3.21551 1.18918,-0.61943 4.17892,-0.58992 6.48217,0.0641 4.08847,1.16066 9.49743,6.60274 11.29468,11.36328 0.32966,0.87448 0.4365,1.76339 0.43879,3.67128 0,2.23414 -0.0705,2.69506 -0.64044,4.0961 -2.35138,5.77549 -9.80095,9.61075 -17.78951,9.15837 -7.30558,-0.41371 -13.99957,-4.05091 -19.18199,-10.42239 -1.14333,-1.40606 -3.23289,-4.52695 -3.57437,-5.33891 -0.13693,-0.32629 -0.30394,-0.54328 -0.37219,-0.48219 -0.0685,0.0612 -0.27033,0.99463 -0.45331,2.07453 -1.90637,11.32426 -1.8209,18.62939 0.27365,23.28776 1.56447,3.48051 4.03846,5.45573 8.02258,6.40463 1.84952,0.44057 5.83965,0.48138 8.71716,0.0889 1.18295,-0.16132 2.19578,-0.25288 2.25035,-0.20372 0.22924,0.20848 -1.32548,3.82936 -2.24371,5.22237 -1.89559,2.87465 -5.48531,5.34094 -9.00409,6.18629 -3.54616,0.852 -8.75368,-0.0354 -11.87142,-2.02291 -0.33692,-0.21599 -0.66139,-0.39265 -0.71679,-0.39265 -0.056,0 0.0477,0.8732 0.23319,1.94051 0.44107,2.56112 0.50144,9.98433 0.0975,12.22002 -0.43816,2.43883 -1.34643,5.5519 -2.1601,7.40501 -1.67008,3.80489 -5.0067,8.68573 -5.98156,8.75068 -0.34066,0.0227 -0.83048,-0.41888 -1.7597,-1.58563 z M 341.45243,434.94979 c -3.58475,-0.73435 -8.11843,-3.4552 -12.9158,-7.75086 -4.20983,-3.76961 -5.18511,-4.94496 -7.85308,-9.46347 -12.39568,-20.99515 -22.65347,-45.20477 -33.59795,-79.29606 l -2.49163,-7.76211 -0.89955,-0.0525 c -0.4946,-0.029 -1.92775,-0.15326 -3.18476,-0.27655 -1.25681,-0.12326 -2.32753,-0.18634 -2.37815,-0.14022 -0.12862,0.11851 2.29309,15.29121 3.29098,20.59527 4.70463,25.01291 11.22456,40.55886 22.90325,54.6087 2.54599,3.06331 3.5667,4.50356 4.87143,6.8719 2.50449,4.54801 3.43185,9.35564 2.1126,10.95291 -2.02318,2.44956 -7.28277,-0.59772 -15.29809,-8.86371 -1.69393,-1.74645 -3.89802,-3.79349 -4.89902,-4.54904 -1.00039,-0.75556 -2.81237,-2.30483 -4.02623,-3.44287 -11.30547,-10.59913 -17.45736,-24.70213 -21.21886,-48.6416 -0.20124,-1.26923 -1.19478,-8.63268 -2.21238,-16.36329 -2.20741,-16.76915 -2.09247,-16.00024 -2.4157,-16.22032 -0.14522,-0.0968 -2.16612,-0.87095 -4.49717,-1.7201 -4.90711,-1.78745 -4.23244,-1.01079 -5.37224,-6.18497 -3.29368,-14.94956 -2.1184,-24.79625 3.50653,-29.3675 4.30776,-3.5012 11.31792,-3.49237 19.04196,0.024 2.06529,0.94013 4.38617,2.24084 5.68344,3.18511 0.71035,0.5174 1.01366,0.63688 1.09291,0.43056 0.0602,-0.15698 0.38381,-1.41841 0.71927,-2.80298 3.49886,-14.45034 11.22228,-21.17829 24.52022,-21.36063 2.26113,-0.031 2.7356,-0.092 2.73187,-0.35221 0,-0.17312 -0.21099,-1.44753 -0.4641,-2.83213 -1.12237,-6.14484 -1.08461,-10.88779 0.12656,-15.7257 0.31492,-1.25728 0.52052,-2.33172 0.4587,-2.38766 -0.0643,-0.056 -0.66077,-0.27634 -1.33108,-0.48974 -5.72763,-1.82332 -12.8102,-8.52874 -16.67564,-15.78783 -3.96088,-7.43825 -3.95279,-14.04916 0.0373,-18.20069 2.86029,-2.98751 8.53232,-4.87336 14.27364,-4.74589 6.4442,0.14312 11.3731,0.0267 13.27076,-0.31363 5.22868,-0.93756 8.22672,-2.94027 9.27358,-6.1948 0.44086,-1.37211 0.32571,-4.67432 -0.22946,-6.47102 -0.29273,-0.95631 -0.29273,-1.10202 0,-1.20694 0.1888,-0.0658 0.43754,-0.0672 0.55165,-0.002 0.52135,0.29119 3.41317,4.5757 4.59965,6.81447 l 1.31324,2.47914 1.86924,-1.92456 c 15.86238,-16.33259 23.29805,-29.67541 23.29805,-41.80637 0,-2.11577 0.0415,-2.35105 0.43671,-2.44439 0.35912,-0.085 0.64562,0.27689 1.60452,2.02096 7.50745,13.65808 7.47819,27.57049 -0.0851,41.45903 -2.91506,5.35207 -5.94194,9.5959 -10.34326,14.50231 l -2.05388,2.28958 0.25186,0.99197 c 0.47115,1.86723 0.23319,7.46703 -0.39107,9.21468 -0.18671,0.5116 6.72739,-5.81485 9.21051,-8.43248 13.5442,-14.27636 21.53545,-29.32668 24.4501,-46.04801 0.31098,-1.78843 0.69022,-4.38453 0.84084,-5.7691 0.15145,-1.3846 0.29979,-2.54537 0.33319,-2.57947 0.1058,-0.11106 3.49616,4.20075 5.16001,6.56539 4.8567,6.90264 7.87445,13.80035 8.90201,20.34922 0.37012,2.34901 0.36638,7.39498 0,9.72984 -2.41652,15.20809 -15.8767,29.41301 -43.28562,45.68065 l -2.07525,1.23173 -0.39065,2.21813 c -0.21452,1.21996 -0.46223,2.42073 -0.54895,2.66834 -0.14937,0.42266 -0.0477,0.4055 1.61779,-0.28126 3.20738,-1.32143 12.69713,-5.66642 15.65617,-7.16863 5.80501,-2.94681 10.90029,-5.84602 14.96905,-8.51746 13.05687,-8.57302 22.01013,-18.54236 26.41041,-29.4078 0.60745,-1.49998 1.1871,-2.90991 1.28834,-3.13324 0.1556,-0.34206 0.4419,-0.0778 1.82277,1.67828 4.02706,5.12068 6.28135,9.57708 7.16597,14.16773 0.46679,2.42094 0.33318,7.36593 -0.24792,9.31473 -2.07546,6.93283 -7.22095,12.95753 -15.78459,18.47915 -11.35733,7.32307 -29.20078,13.53024 -49.11159,17.08451 -2.59287,0.46291 -4.78596,0.9108 -4.8733,0.99525 -0.0851,0.0846 -0.47197,0.82679 -0.85537,1.64955 l -0.69707,1.49595 1.07984,0.13195 c 2.41777,0.29561 14.60786,0.39348 18.36978,0.14726 22.11967,-1.44635 39.40213,-7.29095 55.38153,-18.72874 1.42132,-1.01747 2.64473,-1.84997 2.7188,-1.84997 0.16182,0 1.56862,4.06524 2.21341,6.39845 3.15966,11.42946 0.74729,21.24984 -6.74792,27.46825 -11.82683,9.81213 -34.71929,11.55701 -62.26867,4.7462 -1.91446,-0.47333 -5.58738,-1.5025 -8.16158,-2.28702 l -4.68036,-1.42645 -1.30618,1.77857 c -0.71886,0.97825 -1.2566,1.89631 -1.19498,2.04009 0.13692,0.32654 3.9366,2.73039 6.73776,4.26406 14.47757,7.92722 32.85752,10.82761 55.25228,8.719 5.55709,-0.52324 9.02109,-0.99219 16.42979,-2.22411 2.14371,-0.35648 3.95092,-0.60001 4.01606,-0.54121 0.0643,0.0587 -0.31845,1.41559 -0.85101,3.01505 -4.47227,13.41939 -10.8088,21.86745 -19.45667,25.9399 -12.50523,5.88855 -28.98274,2.60398 -49.56988,-9.88088 -5.57805,-3.38274 -15.27195,-10.07541 -18.36501,-12.67896 l -0.72777,-0.61248 -0.96388,0.55004 -0.96387,0.55005 1.45909,1.59923 c 22.60554,24.77053 39.72204,35.09359 60.68302,36.59779 2.64515,0.18986 4.49406,0.18428 8.40348,-0.0252 2.75698,-0.14788 5.23263,-0.23326 5.50212,-0.18986 0.43443,0.0699 0.23692,0.38851 -1.72173,2.8061 -6.2077,7.6558 -12.36394,13.38741 -17.85652,16.62507 -2.44806,1.443 -5.6407,2.80654 -8.29643,3.54357 -1.94807,0.54072 -2.36943,0.57995 -6.26599,0.58357 -4.12519,0.004 -4.20589,-0.004 -6.49794,-0.6979 -11.13576,-3.36763 -19.51601,-10.92353 -36.66591,-33.06104 -8.80927,-11.37149 -10.27541,-13.22696 -13.47905,-17.06105 -0.0373,-0.0378 -1.05972,0.22198 -2.28562,0.57689 -1.22548,0.35492 -2.38374,0.6453 -2.57378,0.6453 -0.18879,0 -0.34397,0.0397 -0.34397,0.0877 0,0.26066 12.69007,18.01811 16.20366,22.67407 9.45366,12.52643 16.48498,20.58155 24.26566,27.79661 11.39032,10.56257 21.56512,16.62853 33.27472,19.83702 1.48938,0.40802 2.74266,0.77366 2.7856,0.81259 0.13278,0.12099 -5.05794,3.36961 -7.25351,4.53845 -4.11834,2.193 -8.44041,3.74787 -12.53406,4.50956 -2.57607,0.47927 -7.5226,0.47616 -10.09451,-0.006 -9.99555,-1.87522 -19.16582,-8.9392 -28.60495,-22.03402 -4.48908,-6.22827 -8.7765,-13.32726 -15.64621,-25.90856 -8.64497,-15.83164 -14.21306,-25.9108 -14.53214,-26.30432 -0.31098,-0.3851 -0.37032,-0.38091 -2.15698,0.15367 -1.00993,0.30214 -2.46342,0.67873 -3.22874,0.83678 -0.9811,0.20269 -1.3844,0.3819 -1.36532,0.60696 0,0.1758 8.9738,15.44708 19.90874,33.93626 18.85317,31.87909 19.98342,33.73204 21.86449,35.84713 6.64731,7.47332 11.0312,15.73284 12.98653,24.46763 0.58401,2.6089 0.7089,8.23499 0.22946,10.40259 -1.21345,5.50086 -4.89923,8.0742 -10.05281,7.01852 z M 66.420675,434.40785 c -2.750332,-0.50823 -4.79778,-2.55498 -5.907705,-5.90542 -0.44895,-1.35246 -0.508076,-2.01611 -0.505172,-5.62421 0,-3.43356 0.08921,-4.45425 0.528615,-6.35255 1.968405,-8.48183 6.344622,-16.69967 12.712895,-23.87451 2.105331,-2.37153 2.641414,-3.2493 22.148297,-36.23548 10.994685,-18.59284 19.924705,-33.90176 19.844005,-34.01991 -0.0809,-0.1181 -0.34418,-0.21479 -0.58401,-0.21479 -0.24087,0 -1.6429,-0.3304 -3.11692,-0.73424 -1.47361,-0.40384 -2.72461,-0.73428 -2.78021,-0.73428 -0.21119,0 -4.52019,7.69499 -11.102975,19.82478 -10.14555,18.69514 -14.61491,26.18536 -20.02886,33.56575 -9.319635,12.70525 -18.363968,19.51734 -28.174668,21.2209 -2.814438,0.48872 -7.159121,0.43949 -10.128533,-0.11479 -5.71933,-1.0676 -10.554869,-3.12108 -16.987041,-7.21341 -1.442487,-0.91777 -2.587681,-1.70053 -2.544321,-1.73948 0.04564,-0.0391 1.32776,-0.41302 2.854893,-0.83138 19.15461,-5.24742 35.926718,-19.10744 57.23852,-47.30015 3.12149,-4.12876 16.43665,-22.74148 16.43665,-22.97543 0,-0.0372 -0.34066,-0.12906 -0.75455,-0.20393 -0.41513,-0.0751 -1.57007,-0.37536 -2.56714,-0.66769 -0.99769,-0.29232 -1.84496,-0.49815 -1.88293,-0.45738 -0.7479,0.79672 -5.95604,7.34794 -10.23309,12.87101 -8.028807,10.36869 -9.145163,11.77916 -12.537384,15.83886 -11.374762,13.61438 -20.698547,20.41654 -30.215895,22.04355 -2.411753,0.4124 -7.41264,0.14643 -9.92273,-0.52756 -8.572356,-2.30196 -16.965257,-8.78336 -26.2062653,-20.23729 l -2.26860397,-2.8121 3.91025597,0.18965 c 5.069142,0.24606 10.5355753,0.20227 13.3089353,-0.10651 19.574722,-2.17985 36.05659,-12.49743 57.744941,-36.14754 l 1.677128,-1.82928 -0.91574,-0.54783 -0.915948,-0.54783 -3.325003,2.49938 c -21.517817,16.17375 -39.933237,24.20439 -53.79755,23.46035 -14.8848213,-0.79889 -24.8465543,-10.00458 -31.085993,-28.72896 -0.532971,-1.59944 -0.908686,-2.96253 -0.835037,-3.02906 0.07261,-0.0666 1.880441,0.17786 4.015647,0.54322 5.2819977,0.90371 7.4613927,1.22616 11.5405237,1.70761 26.7782393,3.16041 46.9436063,-0.0364 63.2545263,-10.0276 1.816128,-1.11234 3.407988,-2.17423 3.537445,-2.35983 0.182567,-0.25983 0.03734,-0.62121 -0.693755,-1.57218 -0.510566,-0.67912 -1.100382,-1.48956 -1.310749,-1.80093 l -0.381939,-0.56617 -3.256126,1.03535 c -18.163145,5.77574 -36.482303,8.01834 -50.492877,6.1813 -21.5837903,-2.83001 -32.047375,-14.38427 -28.971327,-31.9916 0.524258,-2.9999 2.65324,-10.071 3.032274,-10.071 0.07261,0 1.297264,0.83356 2.718798,1.85231 15.8325107,11.34702 33.450237,17.30487 55.381319,18.72841 3.725614,0.24184 15.493725,0.14333 18.253807,-0.15264 l 1.19623,-0.12843 -0.697282,-1.4962 c -0.383598,-0.82288 -0.771139,-1.56726 -0.860762,-1.6541 -0.08714,-0.0871 -2.246198,-0.53129 -4.79218,-0.98756 -14.189614,-2.5428 -26.358957,-6.08242 -37.119421,-10.79665 -15.9613453,-6.99289 -24.8741473,-14.94168 -27.8910683,-24.87528 -0.645832,-2.12704 -0.584838,-8.5125 0.101656,-10.81563 1.134613,-3.79534 2.955305,-7.34158 5.594023,-10.89723 1.027562,-1.38457 2.11528903,-2.79088 2.41693903,-3.12519 l 0.547702,-0.60779 0.73960397,1.91445 c 1.875462,4.85444 3.864614,8.48682 6.932571,12.65805 6.6176433,8.99806 16.5571783,16.97407 30.4700373,24.45051 5.1069,2.74447 13.631539,6.77546 19.913922,9.41704 1.965294,0.8264 2.145994,0.86768 2.001807,0.4582 -0.08921,-0.24755 -0.333185,-1.44828 -0.542722,-2.6682 l -0.384636,-2.21817 -2.081265,-1.24149 C 50.883177,241.05159 43.057064,235.8522 37.955143,232.00209 34.977432,229.7549 27.324135,222.78656 25.249924,220.43428 13.495091,207.10191 11.038526,193.6873 17.658451,178.97987 c 1.869654,-4.15444 5.272871,-9.49518 8.987904,-14.10637 l 1.793929,-2.22642 0.292523,2.5132 c 2.31632,19.83692 10.350725,36.29457 25.447366,52.12757 2.594112,2.72071 9.282708,8.84439 9.095369,8.32756 -0.624255,-1.72628 -0.864704,-7.34445 -0.393764,-9.20901 l 0.247918,-0.98632 -2.27794,-2.58005 c -4.60982,-5.22084 -7.185053,-8.8418 -10.1165,-14.22316 -5.53863,-10.1691 -7.022195,-20.1015 -4.524138,-30.29955 1.007231,-4.11328 3.846357,-10.76225 5.674311,-13.2884 0.03734,-0.0316 0.214723,0.002 0.422601,0.0751 0.322189,0.11168 0.381316,0.49544 0.381316,2.47542 0,12.13787 7.32758,25.28133 23.31631,41.82295 l 1.849319,1.91331 1.31469,-2.48079 c 1.18669,-2.24005 4.07851,-6.52484 4.59966,-6.81612 0.1141,-0.0641 0.36306,-0.0629 0.55123,0.002 0.29999,0.10444 0.29999,0.26529 -0.0373,1.31183 -0.24065,0.77625 -0.37364,2.07333 -0.38028,3.71395 0,2.43503 0,2.56901 0.75247,3.92247 2.16923,3.98549 7.90868,5.70394 17.687015,5.29619 6.60872,-0.27559 8.82048,-0.0697 12.59547,1.17216 9.23914,3.03955 11.53534,11.35631 5.99277,21.70274 -3.94262,7.35998 -10.7891,13.84583 -16.61569,15.74061 -0.63794,0.20763 -1.23834,0.43677 -1.33294,0.5093 -0.0954,0.0726 0.0851,1.16317 0.40019,2.42359 1.21096,4.84382 1.24851,9.58411 0.12655,15.73141 -0.25165,1.38457 -0.46118,2.65903 -0.46284,2.8321 0,0.25996 0.47301,0.32134 2.73726,0.35307 13.29835,0.18655 21.01492,6.91025 24.51399,21.35977 0.33318,1.38458 0.6589,2.6459 0.71886,2.80294 0.0768,0.20662 0.38173,0.0883 1.09353,-0.4269 2.72129,-1.97133 7.4587,-4.17951 10.96254,-5.10996 4.33431,-1.15093 9.00636,-0.8919 11.86499,0.65776 7.26119,3.93556 9.0489,14.06312 5.40378,30.60703 -1.13586,5.15726 -0.46181,4.38205 -5.36976,6.17452 -2.33229,0.85178 -4.35713,1.62926 -4.49944,1.72777 -0.32219,0.22362 -0.20747,-0.54402 -2.41591,16.2231 -2.87771,21.86326 -3.75507,26.71641 -6.52034,36.07115 -4.21979,14.27586 -11.08058,24.88434 -20.93049,32.36381 -0.99727,0.75707 -3.20385,2.80569 -4.90338,4.55247 -6.77262,6.95935 -11.62226,10.28387 -14.07426,9.64814 -2.812565,-0.72917 -2.337895,-5.89925 1.11345,-12.12691 1.28564,-2.31943 1.65244,-2.82964 4.84342,-6.73378 4.52849,-5.5414 7.4948,-9.98297 10.3667,-15.52412 5.54859,-10.70434 9.23313,-22.29939 12.33407,-38.81042 0.98482,-5.24253 3.42085,-20.49478 3.29181,-20.61109 -0.0477,-0.0449 -1.11864,0.0186 -2.37566,0.1427 -1.2568,0.12327 -2.69141,0.24778 -3.18766,0.27657 l -0.90246,0.0525 -2.48935,7.76209 c -10.91772,34.04233 -21.1394,58.17053 -33.550435,79.19422 -2.56092,4.33834 -2.76195,4.60808 -5.2683,7.07301 -7.81242,7.68371 -14.486911,11.23811 -19.396722,10.3306 z M 182.65617,282.16433 c 0,-0.0864 0.47011,-5.11354 1.04375,-11.1711 0.57384,-6.05756 1.04312,-11.23817 1.04333,-11.5125 0,-0.46874 -0.0643,-0.44552 -1.06076,0.38593 -0.58401,0.48657 -1.61966,1.11556 -2.30138,1.39775 -1.21719,0.50359 -3.97416,1.06838 -4.2032,0.86102 -0.0643,-0.0579 0.34398,-0.75331 0.91056,-1.54525 2.13915,-2.99787 3.83764,-6.48842 4.98698,-10.25087 0.62343,-2.03871 1.43668,-5.44884 1.43668,-6.02149 0,-0.11313 -0.53193,0.22651 -1.18295,0.75525 -1.50431,1.22239 -3.44616,1.80478 -6.01828,1.80478 l -1.81468,0 1.68273,-2.27699 c 0.9257,-1.25231 2.1238,-3.1853 2.66216,-4.29554 1.03503,-2.13288 2.11259,-5.92492 2.11612,-7.44617 0,-0.79692 0.16182,-1.07713 1.31739,-2.30764 5.98177,-6.36864 6.11164,-12.27652 0.42571,-19.43364 -2.01882,-2.54184 -3.28849,-3.73008 -5.51124,-5.15856 -4.5258,-2.9091 -7.25829,-6.41427 -7.52965,-9.65956 -0.16597,-1.99476 0.27406,-3.44277 1.58626,-5.22034 4.01108,-5.42994 14.69105,-7.41093 24.29512,-4.50638 3.10136,0.93801 5.78737,2.21067 9.87107,4.67748 6.0633,3.66241 8.6265,4.48974 15.30929,4.94124 l 3.44243,0.23261 -1.14292,1.58141 c -2.86319,3.96143 -6.18134,6.33284 -9.96194,7.1194 l -1.20328,0.25032 1.20328,0.88611 c 2.88083,2.12175 4.73783,5.05427 6.74524,10.651 2.15408,6.0058 4.89093,8.74115 10.27064,10.26564 1.2593,0.35664 2.44557,0.69699 2.63706,0.75624 0.19294,0.0594 -0.32966,0.28374 -1.16034,0.49884 -2.68166,0.69517 -5.40668,1.08712 -7.48836,1.07705 l -2.0348,-0.0103 1.05557,1.06131 c 1.23399,1.24083 2.57856,3.33464 3.19742,4.97929 0.57488,1.52738 1.08938,4.56215 1.09104,6.44121 0,1.21391 0.15767,1.87944 0.82799,3.46068 1.39871,3.31251 2.59556,5.14591 4.51148,6.91164 1.44767,1.33404 2.13106,1.77588 4.06149,2.62631 2.18106,0.96102 2.27172,1.02582 1.50826,1.07839 -0.44667,0.0308 -1.8348,0.19607 -3.08414,0.36719 -3.10053,0.42474 -5.32868,0.38976 -6.89502,-0.10816 -0.70206,-0.22323 -1.33648,-0.40895 -1.41013,-0.4127 -0.0726,-0.004 0.48339,1.13695 1.23793,2.53494 0.75434,1.39798 1.92567,3.82887 2.60304,5.40198 1.37278,3.1891 5.52182,14.51699 5.36789,14.65626 -0.0934,0.0832 -52.77684,3.82591 -53.92348,3.83075 -0.28879,0.002 -0.52177,-0.0687 -0.52136,-0.15512 z"
       style="fill:#da0f19;fill-opacity:1" />
    <path
       inkscape:connector-curvature="0"
       id="path10178"
       d="m 203.3848,548.55359 c -4.0756,-5.20034 -6.35728,-11.42313 -6.75187,-18.41687 -0.12863,-2.32781 0.12863,-6.75989 0.51969,-8.83653 l 0.15145,-0.81424 -1.04623,0.55422 c -2.60304,1.37913 -6.53819,2.1271 -9.45138,1.79646 -5.16063,-0.58574 -9.74659,-3.79081 -12.07992,-8.44214 -0.65828,-1.31289 -1.55016,-4.0663 -1.36905,-4.22551 0.0477,-0.0426 0.92404,0.066 1.94496,0.24116 2.77855,0.47676 7.99997,0.47052 9.73747,-0.0124 3.97809,-1.10413 6.22823,-3.05041 7.64354,-6.61189 1.75203,-4.40739 1.8765,-11.60793 0.35539,-20.62585 -0.24771,-1.46333 -0.44812,-2.72763 -0.44812,-2.80945 0,-0.0817 -0.65309,0.83294 -1.45017,2.03277 -3.65051,5.48982 -7.84914,9.10749 -13.25727,11.42347 -2.86548,1.22697 -5.24051,1.75909 -8.50016,1.90461 -7.46783,0.33335 -14.00518,-2.63068 -17.18704,-7.7927 -1.24,-2.01228 -1.71052,-4.02036 -1.54331,-6.58984 0.14522,-2.21896 0.60081,-3.62082 1.9126,-5.87736 1.95077,-3.35629 7.06327,-7.94198 9.65303,-8.65868 3.49553,-0.96737 5.79878,-0.98172 7.56305,-0.0469 1.29539,0.68626 1.78604,1.5435 1.79144,3.13136 0,2.36698 -1.77941,4.383 -4.57746,5.16158 -1.02071,0.28407 -1.34415,0.5094 -2.07545,1.44674 -1.74311,2.234 -2.27504,4.80859 -1.36677,6.6163 0.57426,1.14288 2.29205,2.46611 3.75653,2.89359 1.6126,0.47081 4.00382,0.44535 5.82036,-0.062 5.09093,-1.42192 9.18416,-5.84573 11.59364,-12.52972 0.44521,-1.2358 0.53712,-2.09416 0.67964,-6.35865 0.18257,-5.43161 0.47986,-7.04975 1.87484,-10.17459 1.01968,-2.28402 2.28811,-4.14631 4.19635,-6.16225 l 1.60389,-1.69423 -0.91864,-1.10662 c -3.01921,-3.63683 -4.26357,-8.07739 -4.67745,-16.69316 -0.42821,-8.90617 -1.24395,-13.8601 -3.16775,-19.23792 -0.62094,-1.73557 -2.09496,-4.51041 -2.39619,-4.51041 -0.22552,0 -7.22759,9.70595 -9.91444,13.74096 -7.73607,11.61496 -11.87848,22.28948 -13.63693,35.13915 -0.21472,1.55764 -0.45932,3.00048 -0.54666,3.20627 -0.12241,0.28462 -0.52903,-0.19235 -1.70472,-1.99297 -4.11793,-6.30721 -5.6629,-10.62802 -6.26538,-17.52415 -0.15559,-1.75958 -0.35932,-3.19925 -0.45413,-3.19925 -0.26306,0 -3.24347,1.8583 -3.99324,2.48932 -0.36265,0.30392 -1.15785,1.16623 -1.77049,1.91621 -1.82463,2.23331 -2.81402,4.22681 -4.05444,8.16597 l -0.75454,2.39686 -1.2927,-1.13814 c -1.72526,-1.51858 -2.35035,-3.23973 -2.35678,-6.48769 0,-4.19436 1.44291,-8.10572 4.57974,-12.34232 1.4539,-1.96301 1.56883,-1.80448 -1.46863,-2.02669 -6.14089,-0.4493 -12.5629,-2.31401 -17.82747,-5.17704 -1.91135,-1.03936 -7.32032,-4.57454 -7.18422,-4.69542 0.0373,-0.0312 1.26511,-0.20745 2.7327,-0.39146 11.76562,-1.47508 20.80746,-6.58175 30.27937,-17.10124 2.84432,-3.15873 4.19282,-4.8977 12.43262,-16.03192 l 7.78483,-10.51922 7.53234,0 c 4.14241,0 13.79813,0.0472 21.45641,0.10465 7.65807,0.0577 21.8232,0.0232 31.47727,-0.0769 l 17.55279,-0.1818 2.10553,2.77386 c 1.15827,1.52561 3.33725,4.46718 4.84218,6.53683 9.59743,13.19631 14.04128,18.56678 18.96437,22.91831 7.86387,6.95012 15.14415,10.33338 24.90029,11.5714 1.36137,0.1727 2.50407,0.34029 2.53955,0.37234 0.1058,0.0953 -5.48054,3.77427 -7.1639,4.718 -4.84342,2.71508 -11.99714,4.75164 -18.33865,5.22069 l -2.25824,0.16691 1.0313,1.33739 c 3.52168,4.5688 5.41706,10.27939 4.79633,14.4499 -0.36638,2.47091 -1.02175,3.8633 -2.28645,4.8698 -0.58483,0.46527 -1.14063,0.84595 -1.23481,0.84595 -0.0975,0 -0.29626,-0.43935 -0.44397,-0.97639 -1.81074,-6.49946 -4.28763,-10.26648 -8.34187,-12.68651 -0.94167,-0.56216 -1.78231,-1.02212 -1.86799,-1.02212 -0.0851,0 -0.28132,1.48687 -0.43588,3.30414 -0.56534,6.65968 -2.18624,11.16121 -6.2718,17.41925 -1.17134,1.79428 -1.58357,2.27659 -1.70244,1.99296 -0.0851,-0.20579 -0.32593,-1.6486 -0.53526,-3.20627 -1.51655,-11.34663 -5.49983,-22.38164 -11.53824,-31.96681 -2.85406,-4.53065 -11.654,-16.91327 -12.01893,-16.91327 -0.30725,0 -1.77671,2.75675 -2.40221,4.5104 -1.91301,5.36225 -2.73664,10.4058 -3.16878,19.41504 -0.40227,8.38355 -1.68605,12.9122 -4.68389,16.52266 l -0.92404,1.11326 0.92881,0.9112 c 2.3991,2.35244 4.24593,5.08671 5.33013,7.89052 1.02508,2.64967 1.43399,5.37108 1.5122,10.05526 0.0685,4.07709 0.0705,4.09785 0.88898,6.18866 2.14786,5.49287 5.34942,9.32877 9.26507,11.09948 3.96254,1.79197 8.3039,1.46126 10.61897,-0.80892 1.16615,-1.14375 1.51469,-2.1243 1.37507,-3.86932 -0.18672,-2.29234 -1.99932,-5.09123 -3.49201,-5.38245 -2.03749,-0.39747 -4.01399,-2.02118 -4.68575,-3.8494 -0.72965,-1.98546 -0.0373,-3.8025 1.78168,-4.68075 0.83691,-0.40388 1.32839,-0.47774 3.08414,-0.46324 3.03912,0.025 5.11873,0.69091 7.38381,2.36392 5.46581,4.03711 8.51343,8.9161 8.51343,13.62879 0,5.0226 -3.13808,9.24356 -8.76052,11.78442 -3.05447,1.38037 -5.17163,1.78471 -9.22566,1.76179 -3.05198,-0.0165 -3.73827,-0.0883 -5.56933,-0.57784 -6.93029,-1.85193 -12.83634,-6.31315 -17.20426,-12.99529 -0.68504,-1.0482 -1.24622,-1.81626 -1.24664,-1.70679 0,0.10941 -0.15145,1.04859 -0.33692,2.08705 -1.38813,7.79718 -1.51717,15.28341 -0.33692,19.49804 1.32486,4.72898 3.95258,7.37357 8.39373,8.44973 1.88854,0.45758 6.51392,0.45197 9.32234,-0.0103 1.14021,-0.18821 2.12006,-0.29999 2.17669,-0.24854 0.23319,0.2102 -0.73773,3.05053 -1.57858,4.61909 -2.08313,3.88953 -5.81787,6.74471 -10.13144,7.74583 -1.81011,0.4201 -5.14714,0.42531 -6.93817,0.0104 -0.76056,-0.17601 -2.25719,-0.69631 -3.32542,-1.1561 l -1.94226,-0.836 0.13692,0.57919 c 0.0768,0.31857 0.26659,2.12781 0.41929,4.02058 0.70516,8.64684 -1.35743,16.33668 -6.06144,22.59974 -2.06218,2.74561 -2.02089,2.70545 -2.45055,2.38295 -0.27758,-0.20767 -0.43069,-0.2151 -0.6338,-0.0312 -0.14937,0.1334 -0.32592,0.24275 -0.39646,0.24262 -0.0705,-1.4e-4 -0.75454,-0.7997 -1.52028,-1.77681 z m 3.43185,-1.76612 c 5.34175,-7.26126 6.90975,-15.65792 5.05607,-27.07188 -0.23671,-1.4498 -0.39356,-2.66991 -0.35144,-2.71138 0.0415,-0.0416 0.89188,0.44215 1.88812,1.07472 2.31881,1.47197 3.78951,2.13591 5.90583,2.66602 3.09058,0.77422 6.11994,0.48756 9.07774,-0.85891 2.11861,-0.96452 4.93554,-3.59946 6.04484,-5.6542 1.04437,-1.93478 1.06802,-2.1432 0.21866,-1.92951 -1.28336,0.3231 -7.27405,0.16836 -8.85824,-0.2288 -8.84434,-2.21696 -12.00938,-10.10041 -10.11816,-25.20312 0.31867,-2.55523 1.57838,-10.35366 1.89538,-11.74694 0.1307,-0.56874 0.31099,-0.31881 1.91073,2.63813 2.26135,4.17891 4.43514,7.08203 7.21452,9.63478 3.39948,3.12321 6.96389,5.04864 11.34488,6.1284 2.49578,0.61513 7.06016,0.60913 9.61527,-0.0124 5.47764,-1.33297 9.86278,-5.0718 10.81711,-9.2219 0.56761,-2.46613 0.18671,-4.80383 -1.22673,-7.48954 -1.04229,-1.98473 -2.53934,-3.72175 -5.04321,-5.85235 -2.3381,-1.98966 -3.27501,-2.47709 -5.72182,-2.97659 -3.10136,-0.63304 -4.92599,0.0337 -4.92599,1.79993 0,1.80804 1.56032,3.37015 3.67001,3.67433 0.86014,0.12388 1.14665,0.31065 2.03915,1.32993 2.26093,2.58038 3.20883,5.46218 2.55553,7.76744 -0.75703,2.67031 -2.63934,4.34574 -5.81248,5.17381 -1.9875,0.51861 -5.30814,0.34825 -7.27427,-0.37313 -5.69651,-2.09035 -9.71402,-6.62748 -12.11727,-13.68494 -0.64998,-1.90777 -0.6869,-2.22727 -0.76906,-6.56465 -0.10581,-5.66617 -0.56596,-7.73251 -2.48063,-11.16843 -1.10515,-1.98366 -1.95824,-3.03353 -4.09033,-5.03483 l -1.90119,-1.78409 1.38855,-1.46757 c 3.41338,-3.60922 4.61127,-7.67648 5.06706,-17.20581 0.13278,-2.76685 0.34418,-5.83303 0.47136,-6.81376 1.15577,-8.92663 3.34865,-15.32048 6.19919,-18.07556 l 1.06905,-1.03316 3.93681,5.41109 c 6.36247,8.74535 9.19496,13.00233 11.87371,17.8476 4.18473,7.56941 7.0722,15.64289 8.72007,24.38092 0.27033,1.44227 0.52094,2.64691 0.55268,2.67698 0.14523,0.13733 2.28023,-4.27738 2.90967,-6.0174 1.27548,-3.52834 1.95699,-7.69251 2.15574,-13.16898 l 0.056,-1.50964 1.77588,0.6989 c 5.30751,2.08849 8.8877,5.86724 11.09261,11.70695 0.65019,1.72203 0.65579,1.72846 0.92881,1.104 0.44812,-1.02452 0.62799,-3.06931 0.44044,-5.00221 -0.39957,-4.11982 -2.48768,-8.2688 -6.26413,-12.44721 -0.7479,-0.82744 -1.35971,-1.54691 -1.35971,-1.59882 0,-0.0521 1.0703,-0.15657 2.37877,-0.23268 7.90557,-0.45979 13.17616,-1.58504 18.28119,-3.9033 2.03915,-0.92617 3.94802,-1.9646 5.30918,-2.88869 l 0.78919,-0.53571 -2.29786,-0.47337 c -11.43015,-2.35499 -20.5971,-8.60795 -30.7748,-20.993 -0.96325,-1.17188 -5.06997,-6.6292 -9.12628,-12.12736 l -7.3755,-9.99673 -14.99042,0.1696 c -18.71209,0.21168 -29.79911,0.21373 -47.2519,0.008 l -13.69564,-0.16091 -6.82967,9.26015 c -3.75632,5.09306 -7.65621,10.31047 -8.66593,11.59424 -5.777,7.34226 -11.93366,13.12274 -17.87186,16.77961 -4.07581,2.50985 -9.47192,4.66107 -13.73673,5.47599 -1.02134,0.19524 -1.99931,0.39611 -2.17421,0.44655 -0.39521,0.11417 0.17012,0.52924 2.40636,1.76993 6.02721,3.34272 11.89342,4.93737 20.15438,5.47872 2.06176,0.13506 3.78142,0.26796 3.82083,0.29518 0.0415,0.0273 -0.71491,0.95916 -1.67609,2.07087 -2.94845,3.40982 -4.77703,6.69334 -5.59111,10.0401 -0.45663,1.87712 -0.39563,5.90931 0.10165,6.96919 l 0.29605,0.62932 0.55393,-1.4685 c 1.34456,-3.56213 2.66548,-5.69056 4.86666,-7.83973 1.80388,-1.76099 3.54885,-2.89126 6.21433,-4.02533 l 1.88812,-0.80327 0.056,1.29934 c 0.24834,5.97468 0.88545,9.90071 2.1767,13.41419 0.68567,1.86492 2.75199,6.10817 2.90655,5.9685 0.0415,-0.0372 0.34439,-1.47787 0.67094,-3.20148 1.62941,-8.56322 4.32124,-16.00153 8.61219,-23.79784 2.52419,-4.58652 5.3405,-8.85283 11.34032,-17.17824 l 4.40899,-6.11888 1.11512,1.08106 c 3.69532,3.5844 6.06143,12.32699 6.65498,24.59247 0.12655,2.63394 0.34771,5.65481 0.48941,6.71314 0.60931,4.54532 2.13707,8.13671 4.57828,10.76182 l 1.39021,1.49512 -1.38647,1.23211 c -3.37189,2.99572 -5.37225,6.17791 -6.51039,10.35781 -0.3975,1.46151 -0.50019,2.60332 -0.56762,6.33024 -0.0747,4.12056 -0.13692,4.72076 -0.67363,6.39846 -2.28395,7.1445 -7.05995,12.41535 -12.71372,14.02976 -6.12637,1.74945 -11.68409,-0.60349 -12.68448,-5.36996 -0.47363,-2.25753 0.61679,-5.11161 2.92564,-7.65876 0.6226,-0.68648 1.00682,-0.91061 1.74684,-1.0175 1.31054,-0.18945 2.16051,-0.62671 2.88311,-1.48327 1.20681,-1.42987 1.12839,-3.27665 -0.16597,-3.90683 -1.30121,-0.63408 -5.53677,-0.0368 -7.27178,1.02538 -1.64165,1.0052 -5.132,4.29601 -6.3413,5.9793 -1.74704,2.43049 -2.5937,4.74504 -2.5937,7.08965 0,5.79741 5.7295,10.82523 13.38653,11.74672 7.95578,0.95753 15.97524,-2.63245 21.73669,-9.73047 1.70223,-2.09712 2.67606,-3.60537 4.42227,-6.84872 1.20474,-2.23716 1.53108,-2.69701 1.62672,-2.29579 0.24439,1.01227 1.52256,8.97255 1.86903,11.62031 1.94496,14.87949 -1.07321,22.90445 -9.50636,25.27636 -1.89454,0.53287 -6.34711,0.77674 -8.64476,0.47354 -0.79769,-0.10528 -1.45037,-0.12037 -1.45037,-0.0337 0,0.0867 0.20539,0.58817 0.45352,1.1143 2.15408,4.5431 7.04501,7.67936 11.97536,7.67936 3.22791,0 5.75958,-0.80969 9.37835,-2.99971 1.07528,-0.65089 1.98459,-1.15715 2.02006,-1.12497 0.0373,0.0323 -0.0373,0.61935 -0.15767,1.30488 -1.10681,6.30662 -1.27672,12.06526 -0.48007,16.27683 0.56264,2.97417 1.72506,6.22103 3.13912,8.76551 1.12362,2.02257 3.08725,4.83987 3.37293,4.83987 0.0871,0 0.64272,-0.65038 1.22714,-1.44532 z M 342.86131,435.66229 c -0.25539,-0.049 -1.03836,-0.19338 -1.74062,-0.32097 -3.72602,-0.67823 -8.57692,-3.72264 -14.04086,-8.81219 -3.82022,-3.55838 -4.14158,-3.95628 -6.70561,-8.30135 -12.46518,-21.12274 -23.05345,-46.09686 -33.77305,-79.65937 -1.2873,-4.02923 -2.3659,-7.34217 -2.39743,-7.36215 -0.0996,-0.0627 -5.59652,-0.51406 -5.65066,-0.46407 -0.0705,0.0639 2.27856,14.70731 3.03331,18.91865 3.89532,21.73756 9.89099,37.71411 18.82702,50.16921 0.91865,1.2806 2.86735,3.78231 4.33016,5.55933 3.20883,3.89887 4.52331,5.89522 5.75585,8.741 2.40387,5.55185 2.44785,9.35193 0.11825,10.23171 -1.09436,0.41329 -1.6429,0.38186 -3.1553,-0.18076 -2.80365,-1.04278 -7.43608,-4.81169 -12.59298,-10.24638 -1.35079,-1.42313 -2.64494,-2.6919 -2.87585,-2.81951 -1.02673,-0.56651 -5.23698,-4.19003 -7.03028,-6.05129 -9.36922,-9.72049 -14.91989,-21.97443 -18.44094,-40.70876 -0.96636,-5.14303 -1.51303,-8.90284 -3.61089,-24.82558 -0.90184,-6.84653 -1.71924,-12.79394 -1.81654,-13.21649 l -0.17842,-0.76831 -4.437,-1.64446 -4.43638,-1.64449 -0.37738,-1.50232 c -0.83918,-3.33921 -1.56198,-6.91682 -2.0211,-9.99864 -0.65122,-4.37113 -0.69583,-10.7315 -0.0954,-13.74096 1.3178,-6.61629 4.76106,-10.5945 10.16816,-11.74683 5.34548,-1.1393 13.57428,1.05635 19.51144,5.20593 0.48671,0.34033 0.9647,0.53519 1.06117,0.43302 0.0954,-0.10196 0.46783,-1.36232 0.82363,-2.80033 2.05388,-8.29966 5.84339,-14.25474 11.19759,-17.5972 3.25198,-2.03007 8.50161,-3.37923 13.44835,-3.456 l 2.44681,-0.0379 -0.13692,-0.73426 c -0.96076,-5.17559 -1.1147,-6.87108 -0.99976,-11.00008 0.1058,-3.89511 0.456,-6.36029 1.19166,-8.45571 0.11825,-0.3426 -0.0996,-0.49129 -1.42796,-0.96396 -5.49901,-1.95759 -12.31021,-8.30313 -16.02483,-14.92917 -1.50224,-2.6799 -2.0209,-3.88656 -2.72772,-6.34674 -1.47382,-5.1269 -0.76388,-9.56661 2.03313,-12.7171 2.06716,-2.32809 4.94301,-3.85372 8.96882,-4.75766 2.83332,-0.63618 4.99881,-0.79457 7.80537,-0.57099 3.59989,0.28672 9.48622,0.0604 12.05669,-0.46357 3.86938,-0.78864 6.47968,-2.30903 7.73524,-4.50555 0.78877,-1.37996 0.98462,-4.4976 0.41949,-6.68216 -0.20331,-0.78597 -0.37011,-1.54966 -0.37011,-1.69702 0,-0.25667 0.93192,-0.75493 1.41199,-0.75493 0.36638,0 3.38931,4.3156 4.67226,6.67499 l 1.17715,2.16461 1.06864,-1.09831 c 15.9101,-16.34725 23.46402,-29.72682 23.46402,-41.5594 l 0,-2.66491 0.85744,-0.21398 c 0.47115,-0.11768 0.88773,-0.18655 0.92487,-0.15284 0.0373,0.0337 0.68131,1.23473 1.43191,2.66906 9.6912,18.53175 6.255,36.63118 -10.55446,55.58794 -2.14723,2.42142 -2.14723,2.42171 -1.92649,3.25166 0.26659,1.00158 0.31845,5.25367 0.0851,6.93772 l -0.16597,1.21293 1.00245,-0.77548 c 2.23521,-1.72982 8.11013,-7.70087 11.49613,-11.68481 12.16208,-14.31044 18.64923,-28.79456 20.75788,-46.3475 0.25539,-2.12628 0.50165,-3.89956 0.54708,-3.94069 0.11826,-0.10548 3.74014,4.46062 5.5293,6.96737 5.0291,7.04756 8.19975,14.23213 9.2576,20.9786 0.35912,2.29792 0.36265,7.36354 0,9.65013 -1.95077,12.47232 -11.15091,24.17773 -28.68876,36.50263 -4.29904,3.02128 -10.4196,6.97453 -14.29584,9.23342 l -2.4603,1.43382 -0.35185,2.11385 c -0.19294,1.16261 -0.31804,2.14837 -0.27759,2.1906 0.10581,0.11644 10.17252,-4.37762 14.12924,-6.30939 17.53599,-8.56108 29.01635,-17.04659 36.64185,-27.08435 3.39409,-4.46734 5.61912,-8.47391 7.49334,-13.49191 0.49044,-1.31256 0.9618,-2.36272 1.04727,-2.33375 0.28132,0.0951 3.31671,3.99947 4.52725,5.82185 2.23396,3.36401 3.48226,5.98174 4.5287,9.49999 0.71284,2.39747 0.76658,8.46047 0.0954,10.84925 -1.49581,5.32516 -4.35091,9.50258 -9.68664,14.17356 -10.93017,9.56883 -32.04095,17.83796 -55.99396,21.93288 l -4.15921,0.71097 -0.63442,1.25872 -0.63442,1.25873 0.61616,0.1849 c 0.33671,0.10155 4.74094,0.19565 9.7829,0.20913 7.37509,0.0186 9.86962,-0.0482 12.76414,-0.34568 13.64316,-1.40269 24.30238,-4.21181 35.15932,-9.26569 6.0662,-2.82395 11.00381,-5.73123 16.36071,-9.63385 l 2.43706,-1.77501 0.87819,2.34135 c 5.89816,15.72221 2.75573,27.99969 -9.00243,35.17378 -6.95269,4.24193 -16.16175,6.28674 -28.33172,6.29088 -12.31726,0.004 -24.5366,-1.96672 -38.70153,-6.24225 -3.81482,-1.15155 -4.63907,-1.33839 -4.7957,-1.08717 -0.10166,0.16691 -0.60994,0.8633 -1.12487,1.54763 -0.5143,0.68432 -0.88524,1.31813 -0.823,1.40847 0.21099,0.3082 5.13138,3.30909 7.19916,4.39046 9.21217,4.81727 19.04777,7.51318 31.42001,8.61182 3.82333,0.3395 14.56056,0.34633 18.79839,0.0124 7.089,-0.55941 14.12531,-1.4599 21.56761,-2.76025 1.97028,-0.34428 3.61649,-0.59528 3.65798,-0.55786 0.13693,0.12285 -2.17669,6.90191 -3.14223,9.21092 -1.83272,4.38312 -4.4177,8.88426 -6.95477,12.11088 -1.50057,1.90814 -4.93864,5.08876 -7.01451,6.48899 -5.61664,3.78837 -12.62888,5.47163 -20.18218,4.84459 -13.51536,-1.12197 -29.5935,-8.67221 -48.46949,-22.76139 -4.48762,-3.3497 -4.01482,-3.07824 -4.63077,-2.65841 l -0.52198,0.35612 2.01571,2.19735 c 6.53694,7.12518 14.60869,14.81841 20.04441,19.10388 12.05026,9.50088 23.55635,14.58634 36.5516,16.1555 2.57648,0.3111 8.66509,0.35625 13.98257,0.10362 2.2018,-0.10466 4.0034,-0.11934 4.0034,-0.0329 0,0.32968 -5.06312,6.43549 -7.68545,9.26799 -7.20642,7.78413 -14.13816,12.46432 -21.43981,14.47577 -1.93169,0.53211 -2.3937,0.57573 -6.15023,0.58053 -3.78848,0.004 -4.20153,-0.0337 -6.14982,-0.57565 -9.37378,-2.607 -17.71896,-9.11816 -28.80763,-22.47668 -2.72648,-3.28455 -6.64918,-8.25956 -13.31599,-16.88776 -2.89079,-3.74112 -7.04917,-8.97067 -8.30328,-10.44087 l -0.4058,-0.47602 -1.71903,0.52847 c -0.9452,0.29067 -1.90949,0.52847 -2.14226,0.52847 -0.23319,0 -0.42343,0.0447 -0.42343,0.0991 0,0.25092 12.28697,17.44812 15.74247,22.03327 11.05568,14.66988 20.20064,24.76408 29.17775,32.20571 10.37396,8.60009 19.21726,13.21654 31.03869,16.20314 l 1.11574,0.28175 -2.97211,1.90692 c -8.65991,5.55654 -15.66551,8.03336 -22.79786,8.06078 -2.9717,0.0104 -4.24759,-0.10465 -6.39815,-0.58202 -11.55774,-2.56511 -21.75764,-11.72952 -33.11768,-29.75517 -3.30197,-5.23976 -7.7147,-13.01304 -14.64872,-25.80366 -8.72588,-16.09571 -10.31422,-18.84052 -10.80217,-18.66685 -0.20746,0.0743 -1.5373,0.43725 -2.95323,0.80696 l -2.5744,0.67226 19.90707,33.66321 c 15.0844,25.50759 20.20624,33.99143 21.14045,35.01785 7.21036,7.91954 11.68637,16.20547 13.78485,25.51779 0.58131,2.57875 0.7062,8.21652 0.22945,10.3828 -0.44604,2.03061 -1.58812,4.37823 -2.67274,5.49527 -1.31386,1.35242 -4.64405,2.45807 -6.39566,2.12337 z m 3.36545,-2.19157 c 2.72627,-1.25407 4.16523,-4.5694 4.17312,-9.61404 0,-9.58343 -5.08242,-20.87761 -13.75706,-30.48272 -1.37361,-1.5208 -4.16481,-6.12215 -21.60951,-35.62678 l -20.0326,-33.88041 -3.80258,0.0755 c -2.09143,0.0416 -3.82706,0.0951 -3.85694,0.11913 -0.0373,0.0242 0.47696,1.48269 1.12715,3.24128 0.64977,1.75855 1.12942,3.24471 1.06511,3.30262 -0.0643,0.0579 -0.72778,0.15926 -1.47485,0.22517 -0.74749,0.066 -1.47838,0.17808 -1.62381,0.24935 -0.4782,0.23406 6.22512,20.49947 11.28078,34.10204 7.51824,20.2285 15.54621,37.47464 24.41565,52.44997 2.1684,3.66189 2.87398,4.54461 6.07638,7.60271 7.21078,6.88597 14.10434,10.03688 18.01916,8.23619 z m -36.10078,-10.94637 c 1.1396,-1.47086 -0.55683,-7.22874 -3.42022,-11.60915 -0.67695,-1.03569 -2.33043,-3.203 -3.67458,-4.81622 -7.34791,-8.82019 -12.37992,-17.81945 -16.53685,-29.57594 -3.45135,-9.76204 -5.83779,-20.30657 -8.73521,-38.60064 -0.65787,-4.15374 -1.21304,-7.55768 -1.23337,-7.56428 -0.0373,-0.006 -1.3429,-0.32878 -2.9385,-0.71594 -2.59681,-0.63012 -6.04027,-1.69242 -9.41901,-2.90579 l -1.18025,-0.42388 0.18256,1.08478 c 0.0975,0.5966 0.97736,7.12659 1.94828,14.51106 2.30574,17.53174 3.12439,22.57775 4.77455,29.42426 4.28265,17.76908 11.57226,29.89951 23.03126,38.32387 0.61595,0.45273 2.25076,2.00963 3.63246,3.4598 4.50712,4.72927 9.04081,8.47774 11.44924,9.466 1.26677,0.51997 1.68045,0.50866 2.11944,-0.0579 z m 62.1,-27.85619 c 3.17584,-0.585 5.88447,-1.48257 9.27317,-3.07283 2.73747,-1.2847 7.19729,-3.79238 7.19667,-4.04662 0,-0.0643 -1.14914,-0.46959 -2.55242,-0.90074 -13.68921,-4.2048 -27.00707,-13.74422 -41.2251,-29.53013 -7.67591,-8.52222 -13.30894,-15.89848 -29.2151,-38.25392 l -1.61904,-2.27558 -4.23037,-0.0321 -4.22995,-0.0321 1.72982,1.5734 1.72982,1.57339 -2.02504,0.71043 c -1.11366,0.39073 -2.1157,0.78431 -2.22669,0.87467 -0.10996,0.0902 0.55102,1.46991 1.47132,3.06575 0.92051,1.59578 4.69675,8.47129 8.39269,15.27883 7.24045,13.33762 11.75691,21.27096 15.15515,26.62117 11.17145,17.58865 21.08899,26.32223 32.41313,28.54278 2.30864,0.45277 7.23962,0.40502 9.96194,-0.0964 z m 9.22732,-30.74741 c 3.81544,-0.7033 8.24207,-2.69791 12.33635,-5.55829 4.0283,-2.81427 9.6329,-8.23722 13.73962,-13.2943 0.84936,-1.04559 1.51863,-1.92554 1.4871,-1.9554 -0.0374,-0.03 -1.40494,0.0523 -3.05219,0.18262 -3.51131,0.27766 -9.00679,0.12596 -12.57099,-0.34738 -18.91499,-2.51128 -34.96015,-12.37882 -55.07532,-33.87112 -1.45784,-1.55764 -2.92646,-3.15283 -3.26401,-3.54482 l -0.61243,-0.71273 -2.63622,1.05776 c -1.44975,0.58177 -4.20278,1.50037 -6.11725,2.04129 -1.91446,0.54095 -3.6754,1.05018 -3.91316,1.13165 -0.35517,0.12141 -0.0519,0.41034 1.68273,1.60567 1.16283,0.80164 2.11446,1.50852 2.11446,1.57079 0,0.0625 -0.7813,0.53195 -1.73646,1.04375 -1.54062,0.82576 -1.70389,0.97201 -1.45016,1.29903 0.15974,0.2029 1.33896,1.6695 2.62564,3.25961 1.2871,1.59011 3.83578,4.82639 5.66311,7.19171 13.54129,17.525 17.61358,22.35641 23.31963,27.66796 7.19854,6.69985 12.81227,9.98928 19.17951,11.23797 2.03562,0.39923 6.09919,0.39642 8.28004,-0.006 z m -94.51085,-34.74919 c 0.0851,-0.0769 -0.42468,-1.70823 -1.13295,-3.62506 l -1.28752,-3.48514 3.6416,0.14126 c 4.12269,0.16008 6.74253,-0.061 10.10944,-0.85153 2.01571,-0.47338 7.03112,-2.06453 7.3143,-2.32039 0.0685,-0.0594 -1.07652,-1.19605 -2.53809,-2.5259 -2.00347,-1.82262 -2.51445,-2.39153 -2.07733,-2.3108 2.35242,0.43436 5.35752,0.6507 8.935,0.64321 4.63244,-0.0103 6.70789,-0.33666 9.87917,-1.55654 2.94099,-1.13128 2.94016,-0.96661 0,-2.97485 -1.40722,-0.9644 -2.56341,-1.80811 -2.56881,-1.87489 0,-0.0668 1.47859,-0.48198 3.29721,-0.92268 8.71239,-2.11095 14.83897,-4.59402 17.56503,-7.11893 0.56637,-0.52465 0.97985,-0.99922 0.91823,-1.05467 -0.10996,-0.10072 -7.02386,-2.91735 -8.07611,-3.29054 -0.53566,-0.19007 -0.49562,-0.2406 1.03545,-1.29223 4.73098,-3.25003 8.64559,-6.69776 11.06045,-9.74169 1.24955,-1.57539 3.19763,-4.75084 3.19866,-5.21451 0,-0.1363 -1.4514,-0.37226 -3.65466,-0.59455 -5.33739,-0.53836 -5.03014,-0.33311 -3.12916,-2.09189 4.6343,-4.28675 7.47945,-8.29397 9.22109,-12.9869 0.43464,-1.1702 0.76077,-2.15387 0.72509,-2.18588 -0.0374,-0.0321 -1.60327,0.50266 -3.48517,1.18813 -1.88106,0.68547 -3.38766,1.18038 -3.34741,1.09978 0.0415,-0.0807 0.81803,-1.1415 1.72837,-2.35749 3.24264,-4.33227 4.97579,-7.95098 5.76062,-12.02958 0.38194,-1.98185 0.47281,-3.90685 0.18464,-3.9047 -0.0954,0 -2.10077,0.6585 -4.45547,1.46167 -2.35491,0.80316 -4.31501,1.43002 -4.35609,1.39304 -0.0415,-0.037 0.74811,-1.00802 1.75347,-2.1577 4.03723,-4.61605 5.33076,-7.46302 5.54693,-12.20542 l 0.11826,-2.59118 -0.53816,0.26033 c -0.29605,0.14312 -1.47008,0.7711 -2.60884,1.39535 -1.13877,0.62423 -2.1209,1.08958 -2.1823,1.03411 -0.0643,-0.0554 0.36658,-1.04697 0.95474,-2.20328 0.58629,-1.15636 1.27195,-2.57434 1.52381,-3.15112 1.26034,-2.8908 1.91447,-7.0603 1.6097,-10.26315 -0.18879,-1.99061 -0.65101,-4.06781 -0.88586,-3.98154 -0.0954,0.0354 -1.92339,1.87859 -4.06067,4.09622 l -3.88702,4.03206 -0.67736,-0.45271 c -0.3724,-0.24897 -0.67737,-0.52413 -0.67737,-0.61143 0,-0.0873 0.56866,-1.13161 1.26324,-2.32065 2.23417,-3.82264 3.3609,-7.83445 3.00842,-10.71235 -0.27012,-2.2227 -0.21452,-2.22555 -2.63167,0.1272 -1.20473,1.1713 -2.95364,2.86902 -3.88722,3.77271 l -1.69725,1.64306 -0.79957,-0.44666 -0.79956,-0.44669 0.44086,-0.92948 c 0.57239,-1.20776 1.15744,-3.78893 1.15744,-5.10723 0,-1.42549 -0.5392,-3.84434 -1.223,-5.48175 -0.6394,-1.53162 -2.03375,-4.08346 -2.57979,-4.72018 -0.33692,-0.391 -0.35912,-0.32174 -0.36659,1.01665 -0.0373,5.49827 -4.56397,8.91502 -12.99463,9.78839 -2.30408,0.23867 -7.20165,0.24852 -9.8719,0.0186 -4.96666,-0.42529 -10.71897,1.0985 -13.76245,3.64554 -2.1601,1.80767 -3.19534,3.89043 -3.44305,6.92772 -0.5116,6.26826 4.33099,15.24675 11.52061,21.36057 3.3835,2.87785 5.86953,4.12501 10.26649,5.15089 4.91853,1.14753 7.22945,1.07324 10.38703,-0.33398 0.95744,-0.42665 1.7958,-0.80421 1.86302,-0.83899 0.14937,-0.0759 0.92196,1.07132 0.92196,1.36411 0,0.22476 -2.81858,1.5139 -4.29323,1.9637 -1.32548,0.40411 -5.85439,0.34424 -7.873,-0.10403 -0.91844,-0.20414 -1.69372,-0.27822 -1.8099,-0.17332 -0.10996,0.10093 -0.43235,1.11827 -0.71201,2.26065 -0.45061,1.83781 -0.50642,2.65722 -0.48837,7.11199 0.0373,4.62492 0.0768,5.32152 0.7174,8.55593 0.38319,1.93658 0.63401,3.5548 0.55766,3.59604 -0.0768,0.0414 -1.75762,0.0807 -3.73619,0.0877 -8.7099,0.0312 -14.51409,2.61661 -18.67579,8.31914 -2.3686,3.24527 -3.91793,7.03484 -5.38075,13.16406 -0.48899,2.04804 -0.95204,3.7237 -1.02901,3.7237 -0.0768,0 -1.01719,-0.59691 -2.08957,-1.32646 -8.2763,-5.62973 -16.17067,-7.43024 -21.67777,-4.94411 -4.89072,2.20797 -7.37052,9.10031 -6.64523,18.47069 0.38007,4.91232 2.11778,14.35143 2.73394,14.8531 0.23319,0.18842 12.02806,4.47944 14.93607,5.433 4.08722,1.34008 8.64268,2.409 11.74508,2.75562 1.79932,0.20103 6.24608,0.17187 6.48341,-0.0426 z m 111.38482,-2.17722 c 11.64716,-2.18111 19.90459,-10.70135 25.19302,-25.99423 0.47903,-1.38459 0.85391,-2.53424 0.83275,-2.55475 -0.0373,-0.0211 -0.73234,0.0941 -1.58045,0.25474 -10.53495,1.99625 -24.53951,3.22068 -33.61226,2.93876 -17.75901,-0.55178 -31.15633,-4.22633 -43.3543,-11.89111 -1.44352,-0.90721 -2.69183,-1.64949 -2.77378,-1.64949 -0.083,0 -1.09374,0.87512 -2.24868,1.94473 -1.15453,1.06958 -3.09161,2.69105 -4.30444,3.60338 -1.2122,0.91225 -2.174,1.7128 -2.13603,1.77898 0.0373,0.0662 1.73376,0.78843 3.76959,1.60501 2.03563,0.81657 3.76545,1.54244 3.84325,1.61299 0.17842,0.16049 -1.79559,2.49876 -2.57731,3.05462 -0.31825,0.22626 -0.5782,0.46125 -0.5782,0.52208 0,0.1789 6.10169,4.68205 9.7466,7.19267 15.68479,10.80355 29.25679,16.78604 40.6133,17.90228 2.45677,0.2415 7.01659,0.0819 9.16694,-0.32066 z m -0.4643,-37.96145 c 9.9414,-1.05536 17.46545,-3.76295 22.52401,-8.10521 4.43534,-3.80731 6.65104,-7.87108 7.45994,-13.68294 0.60372,-4.337 0.0373,-9.14118 -1.77049,-14.7924 -0.37862,-1.19005 -0.74043,-2.21051 -0.8035,-2.26766 -0.0643,-0.0573 -0.87819,0.45313 -1.81115,1.13395 -12.92139,9.4335 -29.96756,15.80202 -47.94046,17.91094 -6.70851,0.78721 -17.31027,1.0554 -24.07293,0.60895 -2.89638,-0.19131 -3.2748,-0.17787 -3.48122,0.12244 -1.51946,2.20591 -3.2136,4.34623 -4.52393,5.71457 l -1.60161,1.67243 0.823,0.12057 c 0.45227,0.0664 2.0655,0.23648 3.58454,0.37799 1.51925,0.14147 2.76216,0.31905 2.76216,0.39443 0,0.0755 -0.35912,0.88107 -0.79541,1.79036 -0.43734,0.9093 -0.74604,1.72505 -0.68588,1.81288 0.0602,0.0877 2.51798,0.87099 5.46167,1.74058 9.76609,2.88443 19.00772,4.67973 28.51013,5.53819 3.46546,0.31311 13.06061,0.26024 16.36113,-0.09 z M 355.66362,262.7029 c 27.2859,-5.04093 48.70641,-14.47089 57.7578,-25.42688 1.6541,-2.00237 2.57026,-3.42361 3.57541,-5.54677 1.47112,-3.10871 1.75389,-4.49617 1.74352,-8.55972 0,-3.81345 -0.25912,-5.11813 -1.6095,-8.35724 -1.04872,-2.51788 -3.65051,-6.84111 -5.05316,-8.39498 l -0.54003,-0.59867 -0.77902,1.85315 c -1.2788,3.04302 -4.02976,7.78744 -6.25604,10.7909 -9.10055,12.27371 -23.35344,22.13318 -46.90439,32.44622 -3.25489,1.4253 -6.07451,2.66865 -6.266,2.76298 -0.19294,0.0943 -0.61741,0.82928 -0.94561,1.63322 -0.32945,0.80394 -1.08856,2.29461 -1.6873,3.31261 -0.59894,1.018 -1.05308,1.88339 -1.0093,1.9231 0.0456,0.0399 0.99789,-0.2624 2.11985,-0.67133 1.12154,-0.40897 2.08334,-0.7041 2.13666,-0.65593 0.0519,0.0482 -0.15145,1.0443 -0.45787,2.21366 -0.30352,1.16935 -0.52613,2.12611 -0.49148,2.12611 0.0373,0 2.135,-0.3827 4.66646,-0.85043 z m -6.0436,-18.44989 c 1.3593,-0.46152 2.55574,-0.83912 2.65864,-0.83912 0.10165,0 0.21825,0.38157 0.25912,0.84791 l 0.0705,0.84797 2.43686,-1.43962 c 3.43206,-2.02738 9.48934,-5.96873 13.20603,-8.59199 13.93589,-9.83707 22.44871,-19.30969 25.97267,-28.90128 1.12797,-3.07099 1.59061,-5.10635 1.90035,-8.36268 0.83898,-8.82206 -2.59141,-18.5909 -10.06546,-28.66454 -1.90969,-2.57403 -1.66821,-2.7901 -2.46217,2.20274 -2.62149,16.48073 -10.52541,31.86083 -23.71609,46.15047 -2.30968,2.50191 -7.86159,7.87515 -10.01858,9.69612 -0.93378,0.78804 -1.69227,1.64052 -1.92151,2.15902 -0.20747,0.47121 -0.33713,0.89391 -0.289,0.93931 0.0519,0.0455 0.66367,-0.23735 1.36344,-0.62837 l 1.27237,-0.71091 0.15353,0.88191 c 0.0851,0.48504 0.17011,2.10913 0.18671,3.60909 0.0415,3.94361 -0.63297,6.46498 -2.6495,9.89114 -0.567,0.96357 -0.98628,1.75197 -0.93193,1.75197 0.056,0 1.21117,-0.37759 2.57047,-0.83914 z m -2.01342,-32.77017 c 0.0705,0.0337 0.29231,0.60014 0.49542,1.25872 0.20539,0.65855 0.42924,1.1974 0.50579,1.1974 0.0768,0 0.83919,-0.80243 1.69414,-1.78318 13.9641,-16.01707 18.11896,-31.56592 12.52805,-46.88717 -0.5475,-1.49995 -1.31303,-3.34082 -1.7014,-4.0908 l -0.70538,-1.36362 -0.0373,0.81411 c -0.0373,1.05658 -0.65579,4.70902 -1.0898,6.31862 -1.7875,6.6305 -6.3745,14.96528 -12.44942,22.62015 -3.00364,3.78475 -6.66204,7.8964 -10.45383,11.74857 -1.00225,1.01856 -1.76966,1.9766 -1.70534,2.12905 0.4031,0.94942 0.65765,3.09822 0.57259,4.8431 l -0.0954,2.02485 1.05744,-1.01895 c 0.58214,-0.56043 2.15823,-2.08727 3.503,-3.39296 l 2.44619,-2.37402 0.6753,2.05934 c 1.10494,3.36961 0.91802,7.46831 -0.49688,10.88148 -0.0913,0.22465 1.01968,-0.81883 2.47254,-2.31879 1.45266,-1.49996 2.69909,-2.69961 2.76984,-2.6659 z M 66.397025,434.93949 c -1.382531,-0.25204 -3.22148,-1.20148 -4.032037,-2.08188 -1.094365,-1.18793 -2.240596,-3.53817 -2.655106,-5.4433 -0.47094,-2.16307 -0.344181,-7.81369 0.229453,-10.36478 2.106368,-9.33946 6.62283,-17.70973 13.774274,-25.52681 0.958892,-1.04843 5.850236,-9.14621 21.162016,-35.03426 l 19.915165,-33.67063 -0.7255,-0.1818 c -1.42215,-0.35646 -4.56459,-1.19841 -4.87724,-1.30703 -0.42218,-0.14623 -2.41196,3.31286 -10.710665,18.62022 -10.62893,19.60476 -15.1539,27.20046 -20.60062,34.58084 -9.464656,12.82529 -18.476418,19.56654 -28.441055,21.27521 -2.781244,0.47699 -7.389404,0.43887 -10.23102,-0.0846 -5.711653,-1.05215 -10.610261,-3.14424 -17.372298,-7.41931 l -3.31961,-2.09871 3.019204,-0.79643 c 19.426178,-5.125 36.123186,-18.68109 57.192469,-46.43491 3.72582,-4.9082 16.86194,-23.22554 16.86194,-23.51318 0,-0.0482 -0.15352,-0.0879 -0.34086,-0.0879 -0.18464,0 -1.15246,-0.23402 -2.14662,-0.5201 l -1.80741,-0.5201 -0.40165,0.46767 c -1.41095,1.64296 -5.83779,7.24538 -11.30983,14.31352 -12.500033,16.14541 -18.315418,22.67194 -24.763564,27.79255 -8.615923,6.84175 -16.60116,9.45309 -24.674153,8.06879 -9.165699,-1.57177 -18.47268,-8.36589 -28.6144913,-20.88882 -1.36697097,-1.68802 -2.48581697,-3.12767 -2.48581697,-3.19928 0,-0.20289 2.74493797,-0.1609 7.32799497,0.11231 13.3280213,0.79476 25.3934263,-2.32454 37.6936783,-9.74517 8.720484,-5.2609 18.932002,-14.15104 29.560312,-25.73603 l 2.015915,-2.19732 -0.524881,-0.35778 c -0.412643,-0.28153 -0.599359,-0.30505 -0.87487,-0.11024 -0.19294,0.13588 -1.812808,1.33553 -3.601343,2.6654 -16.168393,12.02501 -30.054282,19.23871 -42.123213,21.88333 -3.601759,0.78925 -5.992765,1.04426 -9.747009,1.03965 -8.274025,-0.0103 -14.7777713,-2.49614 -20.5666003,-7.8608 -5.322039,-4.93274 -9.1449527,-11.50537 -12.4062657,-21.33132 -0.630479,-1.8991 -1.11034,-3.48508 -1.067188,-3.52436 0.04564,-0.0395 1.689783,0.20765 3.657359,0.54879 16.8513597,2.92072 29.693089,3.72731 41.624265,2.61442 13.619922,-1.27035 24.541584,-4.77096 34.758289,-11.14051 1.367594,-0.85252 2.536438,-1.62317 2.597432,-1.71253 0.06431,-0.0891 -0.409116,-0.87455 -1.044574,-1.74488 l -1.156397,-1.58236 -2.44474,0.81513 c -3.072314,1.02439 -9.2269,2.70048 -13.318063,3.62711 -9.975426,2.25924 -18.360235,3.25666 -27.386105,3.25774 -12.3141513,0.002 -21.68731327,-2.12549 -28.8153143,-6.53877 -11.3453017,-7.02419 -14.3333857,-18.88027 -8.7289907,-34.63325 0.848108,-2.38384 0.992709,-2.64621 1.321537,-2.39662 15.06406973,11.44245 31.87207,18.02689 51.500524,20.17537 5.712483,0.62526 10.270437,0.80052 17.214212,0.66201 3.765446,-0.0753 7.123229,-0.19275 7.461808,-0.26121 l 0.616164,-0.12451 -0.479861,-1.08077 c -0.262855,-0.59443 -0.593136,-1.18766 -0.731721,-1.31825 -0.136925,-0.1305 -1.505556,-0.4421 -3.03746,-0.69215 -12.503358,-2.0414 -26.324933,-5.87458 -36.818808,-10.21103 -12.5290833,-5.17743 -22.10929227,-11.97568 -26.8579043,-19.05842 -1.082748,-1.6146 -2.469428,-4.60314 -3.088082,-6.65371 -0.460567,-1.52794 -0.526125,-2.23614 -0.521353,-5.62888 0,-3.33987 0.07676,-4.12137 0.520108,-5.60461 1.043952,-3.4945 2.688094,-6.91617 4.76272,-9.9105 1.131086,-1.63295 4.07000203,-5.33681 4.29240203,-5.41031 0.08506,-0.0285 0.62674397,1.19417 1.20120897,2.71694 2.197859,5.82679 6.458934,12.61208 10.9729053,17.47424 7.72176,8.31654 18.313349,15.58114 33.341942,22.86934 4.152572,2.0138 13.697928,6.26839 13.803941,6.15274 0.03734,-0.0395 -0.09128,-1.01993 -0.284846,-2.17896 l -0.348122,-2.10734 -2.46113,-1.45092 c -4.055272,-2.39034 -10.104259,-6.29796 -14.297079,-9.2361 -17.474785,-12.24395 -26.726581,-24.01316 -28.690837,-36.49585 -0.347708,-2.21467 -0.347708,-7.54294 0,-9.65015 1.174031,-7.07779 4.145311,-13.80612 9.264036,-20.9786 1.914465,-2.68257 5.403572,-7.08015 5.527634,-6.96764 0.05187,0.0474 0.296257,1.77615 0.538366,3.84162 1.798701,15.24925 6.960371,28.17851 16.323782,40.88748 4.094275,5.55771 10.894693,12.93108 15.574635,16.88775 l 1.364689,1.15385 -0.16597,-1.22392 c -0.229661,-1.70059 -0.178418,-5.9485 0.08921,-6.9454 0.218458,-0.82361 0.210989,-0.8358 -1.824219,-3.14679 -8.264068,-9.37911 -13.09442,-18.00449 -15.091455,-26.95027 -1.743724,-7.80901 -0.9452,-16.3962 2.245575,-24.14492 0.668445,-1.62397 3.366289,-7.03888 3.62209,-7.26996 0.03734,-0.0337 0.453306,0.0352 0.924661,0.15284 l 0.857236,0.21396 0,2.66493 c 0,11.82727 7.561598,25.21949 23.464438,41.55938 l 1.068847,1.09831 1.17652,-2.16461 c 1.28357,-2.35936 4.30423,-6.67498 4.67247,-6.67498 0.48007,0 1.41179,0.49823 1.41179,0.75492 0,0.14726 -0.16597,0.91105 -0.37012,1.69704 -0.57031,2.20382 -0.37799,5.09623 0.43879,6.60549 1.2317,2.27594 3.75632,3.77503 7.71657,4.58222 2.59245,0.52841 8.534385,0.75647 11.966435,0.45921 2.80137,-0.24261 5.05379,-0.0747 8.06615,0.60127 7.88068,1.7685 11.99674,6.56248 11.53845,13.43831 -0.28837,4.30433 -2.22462,9.04497 -5.64879,13.81872 -3.67645,5.12634 -9.69722,10.08989 -14.00539,11.5463 -1.1703,0.39569 -1.35826,0.52932 -1.23565,0.87854 0.73816,2.10247 1.08545,4.56333 1.19374,8.46255 0.11411,4.13558 -0.0373,5.73258 -0.99831,11.00008 l -0.13277,0.73424 2.5605,0.0436 c 7.92383,0.13505 14.25995,2.84203 18.37082,7.84947 2.65925,3.23878 4.86271,7.95962 6.15936,13.19804 0.35538,1.43802 0.72632,2.69819 0.82279,2.80036 0.0975,0.10196 0.57447,-0.0898 1.06138,-0.42657 2.40843,-1.66556 5.04611,-2.97926 8.08565,-4.0265 3.47043,-1.19591 4.60173,-1.38838 8.11697,-1.38123 2.84349,0.006 3.42252,0.0678 4.64094,0.49729 4.80463,1.69298 7.62052,5.34013 8.83625,11.44485 0.59957,3.00947 0.55476,9.36982 -0.0954,13.74099 -0.45891,3.07984 -1.18275,6.65958 -2.01965,9.99238 l -0.37571,1.49609 -4.44863,1.65071 -4.44841,1.65074 -0.28505,1.57338 c -0.1556,0.86536 -1.01844,7.19041 -1.91633,14.05565 -1.93356,14.77666 -2.31612,17.39493 -3.37252,23.07727 -1.38854,7.46553 -3.54823,15.40099 -5.55066,20.3942 -4.20402,10.48261 -10.18144,18.83874 -17.68142,24.71643 -3.18289,2.49429 -3.2638,2.56722 -5.6436,5.07972 -8.71094,9.19582 -14.71782,12.32889 -16.531655,8.62224 -0.96699,-1.97577 -0.14108,-6.05634 2.119225,-10.45775 1.19747,-2.33248 2.43374,-4.09397 5.21582,-7.42987 11.78221,-14.12926 18.44135,-30.31673 23.09183,-56.13527 0.79126,-4.39074 3.01174,-18.22435 2.93767,-18.29729 -0.0373,-0.0252 -1.31884,0.0598 -2.87356,0.18903 -2.24101,0.18635 -2.84847,0.3043 -2.93352,0.57036 -0.0602,0.18448 -1.11429,3.49796 -2.34454,7.36329 -10.49823,32.97846 -21.24231,58.29458 -33.679475,79.35856 -2.56798,4.34873 -2.96921,4.84095 -7.02718,8.61407 -6.893981,6.41104 -13.314327,9.55367 -17.8339,8.72975 z m 4.706082,-2.13247 c 3.694287,-1.09053 8.942258,-4.75993 13.831538,-9.67137 2.02919,-2.03834 2.56423,-2.75388 4.51604,-6.04265 12.356055,-20.8175 22.863205,-45.55318 33.764745,-79.48528 2.53561,-7.89139 2.52067,-7.21537 0.16182,-7.4498 -0.734,-0.073 -1.3344,-0.20021 -1.3344,-0.28277 0,-0.0827 0.52073,-1.55584 1.15744,-3.27398 0.6367,-1.71811 1.13316,-3.14389 1.10245,-3.16844 -0.0373,-0.0244 -1.76778,-0.0784 -3.86025,-0.11995 l -3.80487,-0.0755 -20.122625,34.02595 c -15.26033,25.80462 -20.400628,34.32026 -21.273631,35.24401 -6.967632,7.37262 -12.240918,17.40368 -13.645854,25.9568 -0.447497,2.7246 -0.453514,6.90963 0,8.79235 0.627781,2.67829 1.99496,4.71764 3.717315,5.54452 1.519871,0.72986 3.343053,0.73174 5.801692,0.006 z M 104.0573,421.77917 c 2.27026,-1.04907 6.84771,-4.90507 11.01896,-9.28164 1.3761,-1.44436 3.27231,-3.20322 4.21253,-3.90863 9.64452,-7.23409 16.41382,-17.50194 20.65601,-31.33162 2.69225,-8.77742 3.79761,-14.82352 6.57989,-35.97829 0.97072,-7.38447 1.84766,-13.91446 1.94807,-14.51106 l 0.18257,-1.08476 -1.18046,0.43141 c -2.38479,0.87161 -8.20121,2.63928 -10.23102,3.10935 -1.14872,0.26597 -2.10678,0.49147 -2.12857,0.50111 -0.0373,0.0103 -0.57695,3.41563 -1.23336,7.56889 -2.46611,15.59632 -4.32996,24.45719 -6.99523,33.25019 -4.28472,14.13633 -9.89659,24.8607 -18.27621,34.9255 -1.34291,1.6132 -2.99576,3.78055 -3.67313,4.81622 -2.87543,4.3993 -4.56003,10.13796 -3.41027,11.62135 0.30331,0.39302 0.50102,0.453 1.10225,0.33607 0.40248,-0.0782 1.04499,-0.28712 1.42755,-0.46409 z M 51.14458,393.743 c 8.247261,-2.23286 15.448704,-7.67889 23.268178,-17.59654 5.817877,-7.37897 10.924777,-15.79737 22.298287,-36.75553 3.694075,-6.80756 7.523835,-13.77703 8.510945,-15.4877 0.98628,-1.71067 1.70265,-3.18465 1.59103,-3.27548 -0.10995,-0.0908 -1.11407,-0.48492 -2.22794,-0.87565 l -2.02504,-0.71041 1.72961,-1.57339 1.73024,-1.5734 -4.23016,0.0327 -4.230575,0.0327 -1.84704,2.58977 c -16.21154,22.72937 -21.248528,29.32039 -28.992901,37.93868 -5.410833,6.02135 -12.196728,12.51181 -17.198859,16.45 -7.66201,6.03189 -16.886214,11.01282 -24.542415,13.25177 -1.116563,0.32664 -2.029814,0.64523 -2.029399,0.70798 0,0.28537 4.755666,2.94622 7.524047,4.21202 3.340149,1.52707 5.768084,2.3307 8.898902,2.94561 1.647253,0.32342 2.742241,0.38425 5.855218,0.32522 3.343883,-0.0635 4.093445,-0.14415 5.917872,-0.63809 z M 39.888902,362.99905 c 5.742151,-1.50002 11.102778,-4.78312 17.529762,-10.73638 3.648231,-3.37963 5.801278,-5.69852 10.295956,-11.08858 3.217745,-3.85968 5.309591,-6.50856 13.252095,-16.78286 1.82836,-2.36532 4.37766,-5.60162 5.66518,-7.19173 1.2873,-1.59012 2.46922,-3.05692 2.62647,-3.25961 0.25518,-0.327 0.0892,-0.47327 -1.45057,-1.29903 -0.95496,-0.5118 -1.73605,-0.98629 -1.73605,-1.05438 0,-0.0683 0.9508,-0.77511 2.11321,-1.5711 1.73066,-1.18495 2.03542,-1.47413 1.68273,-1.59547 -0.23671,-0.0815 -2.10201,-0.62837 -4.14427,-1.21527 -2.04226,-0.5869 -4.75567,-1.49198 -6.0297,-2.01125 -1.27361,-0.51929 -2.380629,-0.91999 -2.459465,-0.89043 -0.07676,0.0296 -0.961382,0.95056 -1.960937,2.04669 -6.707267,7.35459 -14.266582,14.54488 -20.647718,19.6386 -4.406921,3.51795 -10.753203,7.62418 -15.200787,9.83542 -10.576237,5.25807 -22.464676,7.67694 -33.6319743,6.84281 -1.712604,-0.12803 -3.13808,-0.20935 -3.168162,-0.18056 -0.101657,0.10093 3.063393,3.88682 5.231585,6.24955 7.3974953,8.06285 15.0844003,13.11987 22.0198763,14.48666 2.740167,0.54001 7.4977,0.43412 10.012769,-0.22292 z M 133.14854,328.279 c 2.50013,-0.399 5.55833,-1.15558 9.0047,-2.2276 2.92813,-0.91081 15.37817,-5.3954 15.71219,-5.65987 0.28132,-0.22103 1.23378,-4.31537 1.90347,-8.16789 1.99496,-11.47375 0.78649,-19.65328 -3.48081,-23.55559 -3.32563,-3.04132 -8.64559,-3.50626 -15.05142,-1.31537 -3.08102,1.0538 -5.5156,2.321 -8.95968,4.66379 -1.07238,0.72954 -2.01301,1.32647 -2.08957,1.32647 -0.0768,0 -0.54002,-1.67569 -1.0286,-3.72371 -1.46489,-6.13504 -3.0414,-9.99455 -5.38511,-13.18398 -4.2063,-5.72357 -9.98413,-8.27369 -18.90399,-8.34343 -3.05012,-0.0238 -3.59076,-0.0761 -3.55363,-0.34278 0.0374,-0.17311 0.33692,-1.87233 0.69189,-3.77615 0.58007,-3.09727 0.64811,-3.96917 0.6477,-8.28655 0,-4.18157 -0.0685,-5.10206 -0.50642,-6.90216 -0.27758,-1.1424 -0.60869,-2.17021 -0.73462,-2.28404 -0.15353,-0.13588 -0.77093,-0.0836 -1.810105,0.15284 -2.42504,0.55184 -5.23097,0.6445 -7.15062,0.23617 -1.70347,-0.36231 -4.9901,-1.70736 -4.9901,-2.04225 0,-0.33615 0.71575,-1.46322 0.88421,-1.39251 0.0871,0.037 0.82674,0.38115 1.64165,0.76475 1.9489,0.9175 4.33721,1.36773 6.27699,1.18323 2.08562,-0.19835 6.655395,-1.23533 8.245185,-1.87102 5.30087,-2.11898 11.24157,-7.84964 14.82507,-14.30074 4.29696,-7.73549 4.16855,-14.23662 -0.35538,-18.02371 -3.05448,-2.5562 -8.70493,-4.05614 -13.76245,-3.653 -4.97869,0.39687 -10.300315,0.14126 -13.772815,-0.66142 -5.89236,-1.36219 -9.05637,-4.56846 -9.09102,-9.21197 0,-1.27304 -0.0373,-1.33575 -0.37032,-0.94407 -0.54583,0.63671 -1.94019,3.18854 -2.5798,4.72019 -0.68338,1.63743 -1.22299,4.05626 -1.22299,5.48172 0,1.31833 0.58525,3.8995 1.15806,5.10724 l 0.44086,0.9295 -0.78857,0.44047 -0.78836,0.44047 -1.5958,-1.53196 c -0.877982,-0.84259 -2.632078,-2.54141 -3.898015,-3.77519 -2.542662,-2.47775 -2.469843,-2.4718 -2.744938,-0.22343 -0.351857,2.87789 0.77425,6.88971 3.008208,10.71235 0.694792,1.18906 1.263447,2.23333 1.263447,2.32063 0,0.0873 -0.303725,0.36246 -0.677365,0.61143 l -0.677158,0.45271 -3.876854,-4.03206 c -2.131886,-2.21764 -3.959425,-4.06092 -4.060666,-4.09621 -0.553926,-0.19255 -1.118639,4.75731 -0.878605,7.69208 0.270324,3.28991 0.971548,5.47509 3.116297,9.70374 0.585874,1.1563 1.014077,2.14903 0.951216,2.20601 -0.06431,0.0571 -1.23378,-0.51594 -2.602204,-1.27316 -1.368009,-0.75722 -2.540172,-1.37675 -2.605108,-1.37675 -0.06431,0 -0.06431,1.15647 0,2.56989 0.214931,4.71977 1.515307,7.57469 5.546513,12.18412 1.005364,1.14968 1.794344,2.12063 1.753474,2.15763 -0.04149,0.037 -2.001184,-0.58981 -4.355885,-1.39297 -2.355116,-0.80317 -4.360035,-1.46093 -4.455675,-1.46167 -0.285054,-0.002 -0.201239,1.9143 0.170119,3.83562 0.787321,4.08177 2.476689,7.66013 5.58116,11.82307 1.079843,1.44774 1.963426,2.66286 1.963426,2.70033 0,0.0374 -1.532526,-0.49023 -3.405706,-1.17266 -1.872765,-0.68241 -3.434751,-1.21454 -3.469813,-1.18253 -0.03734,0.0321 0.292315,1.01569 0.725082,2.18591 1.742686,4.69524 4.587206,8.70028 9.226901,12.9924 l 1.620698,1.49874 -0.66637,0.11727 c -0.366379,0.0645 -2.258438,0.27766 -4.20506,0.47375 -2.175661,0.21914 -3.538898,0.44518 -3.538483,0.58673 0,0.46152 1.937494,3.62947 3.214634,5.259 1.782104,2.27443 6.030731,6.10751 9.59515,8.65678 l 2.94763,2.10804 -4.282033,1.72825 c -2.355116,0.95053 -4.281614,1.80084 -4.281614,1.88963 0,0.33085 2.547641,2.25054 4.144273,3.1224 3.128534,1.70893 8.550154,3.56132 14.827774,5.06645 1.56323,0.37488 2.83788,0.73761 2.83186,0.80609 0,0.0685 -1.0564,0.83252 -2.33499,1.69786 -1.27839,0.86539 -2.4213,1.67661 -2.53997,1.80281 -0.32592,0.34442 2.85469,1.6684 5.52868,2.3026 3.14762,0.74638 6.978205,0.88491 11.657105,0.42144 1.97857,-0.19607 3.80632,-0.40734 4.06108,-0.46969 0.25539,-0.0625 -0.7313,0.97858 -2.19267,2.3132 -1.46199,1.33463 -2.60386,2.47517 -2.53789,2.53461 0.28858,0.26023 5.21333,1.81632 7.30414,2.30752 3.44574,0.8095 5.97181,1.0253 10.12002,0.86435 l 3.64263,-0.14126 -1.26386,3.41301 c -0.695,1.87716 -1.26365,3.48109 -1.26365,3.56423 0,0.45116 5.42867,0.36854 8.55285,-0.13009 z M 21.903137,326.6899 c 13.19566,-1.1289 28.176329,-8.18738 47.28509,-22.27892 2.010313,-1.4825 3.655491,-2.74842 3.655491,-2.81318 0,-0.0649 -0.259328,-0.30293 -0.578613,-0.52919 -0.782341,-0.55586 -2.755104,-2.89421 -2.577723,-3.05462 0.07676,-0.0705 1.807622,-0.79644 3.84366,-1.61299 2.035416,-0.81656 3.732045,-1.53884 3.769596,-1.60499 0.03734,-0.0662 -0.923831,-0.86675 -2.13645,-1.779 -1.212619,-0.91231 -3.14949,-2.5338 -4.304435,-3.60341 -1.154529,-1.06958 -2.167984,-1.94471 -2.251384,-1.94471 -0.08506,0 -1.332533,0.74086 -2.77419,1.64637 -10.394501,6.52759 -21.398111,10.0572 -35.830664,11.49377 -4.856907,0.48345 -15.7238,0.48611 -21.4441673,0.004 -6.665152,-0.56022 -14.699557,-1.59813 -19.6886187,-2.54356 -0.847484,-0.1607 -1.558874,-0.27526 -1.579828,-0.25472 -0.03734,0.0211 0.355384,1.17016 0.834623,2.55475 4.2311997,12.20015 10.3185677,20.06184 18.4654177,23.8475 4.6637603,2.16741 9.5845663,2.9617 15.3121953,2.47165 z m 8.70285,-38.26784 c 9.799912,-0.86487 19.500657,-2.81413 29.821715,-5.99225 1.914466,-0.58953 3.553628,-1.13659 3.642214,-1.21562 0.08714,-0.0792 -0.201238,-0.89116 -0.638362,-1.80461 -0.439821,-0.91345 -0.799561,-1.72111 -0.799561,-1.79474 0,-0.0738 1.227349,-0.25251 2.727096,-0.39747 1.49954,-0.14478 3.117748,-0.31683 3.59512,-0.38202 l 0.868024,-0.11851 -1.339172,-1.38958 c -1.632523,-1.69394 -2.917754,-3.265 -4.114813,-5.03081 l -0.90433,-1.33368 -1.170297,0.1272 c -2.697636,0.293 -14.964902,0.39098 -18.691345,0.14933 -15.311987,-0.99317 -28.187326,-4.11674 -40.2931853,-9.77528 -5.519128,-2.57968 -11.837195,-6.27162 -15.6690297,-9.15578 -0.592099,-0.44569 -1.135858,-0.81033 -1.208263,-0.81033 -0.159746,0 -0.965116,2.39618 -1.589371,4.72016 -2.143919,7.98645 -1.538335,15.28329 1.715924,20.66392 4.5150087,7.46569 13.89003773,12.1448 27.083001,13.5173 3.644911,0.37916 12.788204,0.39155 16.964635,0.023 z m 29.549109,-27.6242 c -0.30331,-1.16934 -0.51098,-2.1655 -0.45787,-2.21366 0.05187,-0.0482 1.014908,0.24696 2.136866,0.65591 1.121543,0.40895 2.078568,0.70837 2.126077,0.66541 0.04772,-0.043 -0.307253,-0.72663 -0.791885,-1.51925 -0.482558,-0.79269 -1.254734,-2.29083 -1.715716,-3.32925 -0.593136,-1.33685 -1.0008,-1.96166 -1.395809,-2.14007 -0.307044,-0.13857 -3.429772,-1.523 -6.939625,-3.07644 -8.959273,-3.96533 -13.599383,-6.29235 -20.074499,-10.06752 -10.764613,-6.27636 -19.016854,-13.10652 -24.8762213,-20.58938 -2.987462,-3.81542 -5.405439,-7.83723 -7.16866397,-11.92704 l -0.891467,-2.06711 -0.54044,0.59863 c -1.40224003,1.55375 -4.00485903,5.87703 -5.05337503,8.39486 -1.388755,3.33646 -1.608665,4.51446 -1.59767,8.56702 0,3.50682 0.05602,3.91068 0.648529,5.66309 2.356983,6.97132 7.664914,12.64521 17.0664983,18.243 11.212318,6.67596 27.403531,12.14935 45.968325,15.53923 2.106368,0.38457 3.892828,0.70585 3.970627,0.71398 0.07884,0.008 -0.105806,-0.94206 -0.413681,-2.11141 z m -0.790225,-18.01333 c 0.101657,0 1.299754,0.3776 2.659256,0.83912 1.359088,0.46155 2.522124,0.83916 2.585192,0.83916 0.06431,0 -0.355383,-0.78474 -0.929018,-1.74384 -2.024627,-3.38488 -2.717552,-5.95326 -2.671496,-9.89929 0.03734,-1.49996 0.101657,-3.12405 0.188791,-3.60911 l 0.157672,-0.88187 1.272368,0.71091 c 0.699357,0.391 1.313031,0.67374 1.363237,0.62837 0.05187,-0.0455 -0.07261,-0.44049 -0.274058,-0.87796 -0.229246,-0.50126 -1.883968,-2.19023 -4.474139,-4.56729 -17.773531,-16.31066 -28.097079,-34.01561 -31.196571,-53.49969 -0.794582,-4.99282 -0.552888,-4.77677 -2.462581,-2.20272 -7.474049,10.07362 -10.904443,19.84246 -10.065257,28.66451 0.310779,3.25725 0.772176,5.29245 1.900772,8.36268 3.584955,9.75131 12.241333,19.28897 26.646086,29.35843 3.932246,2.74871 9.63166,6.43592 12.764138,8.25726 l 2.204498,1.28203 0.07054,-0.83037 c 0.04149,-0.4567 0.155597,-0.83033 0.258914,-0.83033 z m 9.537887,-28.0979 c -1.153492,-3.44325 -1.176105,-6.37158 -0.07676,-9.81383 l 0.634836,-1.98635 1.05308,1.01585 c 0.579236,0.55871 2.153047,2.0861 3.496368,3.39415 l 2.442872,2.37831 -0.08091,-2.16849 c -0.05187,-1.3897 0.04149,-2.6864 0.262855,-3.61061 l 0.34418,-1.44204 -2.478141,-2.5439 C 62.654399,187.74957 55.186366,176.48788 52.434375,166.63222 51.895179,164.7002 51.26802,161.13397 51.250178,159.89406 l 0,-0.91901 -0.588157,1.1538 c -0.980053,1.92479 -2.641829,6.6172 -3.220234,9.09529 -1.522154,6.51776 -1.334608,12.93122 0.572596,19.55202 2.091431,7.26187 6.508518,14.81837 13.199188,22.58118 0.964286,1.1185 1.820277,1.99615 1.902432,1.9503 0.08091,-0.0459 0.288581,-0.61137 0.460567,-1.25676 0.17012,-0.64535 0.371773,-1.20532 0.445837,-1.24437 0.07261,-0.0391 1.282949,1.13275 2.687056,2.60402 1.404107,1.47123 2.575856,2.65914 2.603449,2.63982 0.03734,-0.0186 -0.149373,-0.63306 -0.394179,-1.36372 z M 182.15038,282.4755 c 0,-0.52262 1.8043,-19.81357 1.98189,-21.19256 l 0.14522,-1.11653 -1.18295,0.73569 c -1.49497,0.92927 -3.23102,1.51975 -5.00898,1.70318 -0.76325,0.0786 -1.56904,0.18862 -1.79061,0.24403 -0.27011,0.0676 0.0996,-0.61333 1.12009,-2.0626 2.76797,-3.93492 4.61377,-7.97023 5.76186,-12.59751 0.32945,-1.32733 0.59874,-2.46884 0.59874,-2.53672 0,-0.0678 -0.5172,0.16711 -1.14934,0.52253 -0.63235,0.35526 -1.75514,0.77474 -2.49453,0.93211 -1.42486,0.30293 -5.40689,0.40213 -5.40689,0.13444 0,-0.0869 0.62031,-0.94405 1.37838,-1.90469 1.64144,-2.08008 3.32168,-4.95514 4.09199,-7.00225 0.64189,-1.70624 1.25971,-4.46314 1.25971,-5.62178 0,-0.66638 0.23319,-1.04919 1.45038,-2.37331 5.03553,-5.48088 5.738,-10.09867 2.43312,-15.98862 -1.54021,-2.74445 -4.76355,-6.23689 -7.15954,-7.757 -3.6503,-2.31633 -6.36806,-5.11226 -7.41326,-7.62687 -2.12691,-5.11697 0.97715,-10.163 7.76159,-12.61883 3.16215,-1.1445 4.51958,-1.34842 8.96156,-1.34619 3.61628,0.002 4.33036,0.0631 6.51204,0.55743 4.57912,1.03771 7.63649,2.34956 12.45378,5.34338 3.33517,2.07292 6.82904,3.62413 9.57917,4.25337 1.25017,0.28597 3.42977,0.53575 5.9494,0.68179 l 3.97727,0.23052 -1.30826,1.89869 c -2.49308,3.61913 -6.46951,6.682 -9.67543,7.45295 l -0.94126,0.22639 1.43419,1.32886 c 2.68311,2.48582 4.1173,5.0633 6.15043,11.0542 0.86326,2.54491 1.90472,4.08319 4.07229,6.01756 1.81364,1.61851 3.92332,2.56677 7.45704,3.35189 1.43605,0.31905 2.61091,0.63073 2.6105,0.69263 0,0.12947 -5.293,1.37469 -7.19398,1.69239 -0.70205,0.11726 -1.96965,0.22508 -2.81692,0.2395 l -1.54062,0.0261 1.04914,1.27996 c 2.2935,2.79878 3.54055,6.61025 3.54055,10.82267 0,1.22434 0.16182,1.80078 1.10246,3.91831 1.93148,4.34931 4.44758,7.09575 7.79001,8.50224 0.90724,0.38151 2.22712,0.93947 2.93415,1.23992 l 1.28544,0.54626 -1.97235,0.14995 c -1.08503,0.0825 -2.86029,0.28477 -3.94552,0.44955 -2.24516,0.34097 -4.78969,0.38144 -6.1438,0.0976 -0.50663,-0.10631 -0.95703,-0.16091 -1.0008,-0.12141 -0.0456,0.0397 0.28132,0.71871 0.71969,1.50937 1.58314,2.84803 2.77958,5.67699 5.50771,13.0231 1.52589,4.10832 2.74785,7.49344 2.71548,7.52252 -0.0685,0.062 -54.3438,3.86818 -55.11743,3.86539 -0.34791,-0.002 -0.52197,-0.12823 -0.52197,-0.38002 z m 28.08069,-3.21797 c 13.72137,-0.94911 24.97476,-1.74 25.00671,-1.75756 0.0374,-0.0165 -1.08046,-3.09189 -2.47274,-6.83195 -2.59412,-6.96898 -4.19925,-10.52188 -6.27181,-13.88157 l -1.1788,-1.91068 0.50538,-0.48631 c 0.27779,-0.26746 0.64002,-0.48628 0.80516,-0.48628 0.16182,0 0.99748,0.34682 1.85078,0.77075 1.30909,0.6505 1.82629,0.78485 3.31504,0.86094 0.97031,0.0498 2.10347,0.0103 2.5186,-0.0889 l 0.75516,-0.1791 -1.09499,-0.73422 c -2.26092,-1.51686 -4.3009,-4.29749 -5.98011,-8.15046 -0.89769,-2.06002 -0.98544,-2.43817 -1.12672,-4.8563 -0.32199,-5.51587 -1.82111,-8.53715 -5.79734,-11.68725 l -0.85018,-0.67347 0.4643,-0.71124 0.46389,-0.71129 1.20867,0.28339 c 1.27714,0.29944 4.11502,0.35747 5.57556,0.11375 l 0.87114,-0.14518 -1.28295,-0.60531 c -1.757,-0.82903 -4.32352,-3.03061 -5.73116,-4.91648 -0.89831,-1.20348 -1.37112,-2.16053 -2.03562,-4.11976 -1.15287,-3.40091 -1.7207,-4.73896 -2.80573,-6.61685 -1.87919,-3.25125 -3.51898,-4.61005 -7.48504,-6.20242 -1.95534,-0.7851 -2.01571,-0.82896 -1.31905,-0.95777 0.40124,-0.0745 1.63688,-0.20021 2.74536,-0.28008 4.59903,-0.33115 7.49251,-1.73036 10.40466,-5.03214 1.4705,-1.66684 1.42797,-1.7523 -0.87902,-1.7783 -1.72339,-0.0186 -4.59322,-0.5214 -6.72345,-1.17618 -2.49453,-0.76663 -4.93615,-1.95279 -8.52381,-4.14129 -5.28656,-3.22434 -8.99952,-4.65346 -13.82863,-5.32301 -11.30941,-1.56788 -21.2145,4.02187 -19.05067,10.75072 0.8728,2.71465 3.48849,5.49599 7.45227,7.92407 3.40612,2.0863 7.88296,8.0589 9.01114,12.02162 1.35514,4.75944 0.0477,9.09452 -4.0839,13.55531 -1.04748,1.13022 -1.35245,1.61542 -1.35245,2.14977 0,1.06282 -0.6309,3.79966 -1.28503,5.57568 -0.60973,1.65531 -2.24557,4.69175 -3.24015,6.01492 -0.31472,0.41563 -0.53733,0.78377 -0.49894,0.81817 0.20123,0.18014 2.93933,-0.65753 3.69615,-1.12977 0.78504,-0.49025 2.11695,-1.88816 2.31777,-2.43271 0.0477,-0.13133 0.40352,-0.11023 0.96533,0.0571 l 0.88835,0.26502 -0.15975,1.38589 c -0.47778,4.21562 -2.4186,10.18628 -4.57662,14.07957 -0.73359,1.32428 -1.2927,2.44594 -1.24084,2.49248 0.35539,0.32187 3.5167,-2.06355 4.2034,-3.17208 0.18672,-0.30074 0.33672,-0.31636 1.08089,-0.11024 0.53836,0.14933 0.86428,0.36949 0.86428,0.58359 0,0.18904 -0.46969,5.29466 -1.04374,11.3457 -0.57405,6.05101 -1.04395,11.21425 -1.04437,11.47385 0,0.34717 0.13693,0.47435 0.52156,0.48082 0.28506,0.004 11.74861,-0.76772 25.47019,-1.71681 z"
       style="fill:#000000" />
    <path
       sodipodi:nodetypes="cccccccccc"
       inkscape:connector-curvature="0"
       id="path9887-0"
       d="m 172.96539,191.39178 c -6.77013,-5.74997 -42.77154,0.49383 -25.52849,22.77674 8.67173,-13.5669 28.12841,-3.36025 35.14293,5.24466 -6.1077,-1.776 -12.32494,-3.33156 -20.22367,-1.49847 -11.24012,2.72348 -18.21999,0.0986 -23.87023,-4.1957 8.41468,13.2059 18.43679,7.16553 28.0143,6.44341 8.12589,-1.04433 12.25191,1.01055 16.0796,3.2966 -5.27018,3.0586 -11.97433,3.52587 -20.05791,1.49849 15.48315,16.4829 40.92699,1.44182 19.06312,-17.2324 -7.06908,-4.82937 -12.94297,-9.83398 -8.61965,-16.33333 z"
       style="fill:#000000;fill-opacity:1;stroke:#000000;stroke-width:1.78725433;stroke-linecap:butt;stroke-linejoin:miter;stroke-miterlimit:4;stroke-opacity:1;stroke-dasharray:none" />
    <path
       sodipodi:nodetypes="cccc"
       inkscape:connector-curvature="0"
       id="path9889-9"
       d="m 182.82837,194.38874 16.82542,0.22473 -4.22705,2.92201 c 0.52509,13.02754 -14.06015,5.49221 -12.59837,-3.14674 z"
       style="fill:#ffffff;stroke:#000000;stroke-width:1.78725433;stroke-linecap:butt;stroke-linejoin:miter;stroke-miterlimit:4;stroke-opacity:1;stroke-dasharray:none" />
    <path
       transform="matrix(0.23207388,0,0,0.20978591,-2244.9128,-343.52677)"
       d="m 10510.357,2582.5093 c 0,9.5663 -7.355,17.3214 -16.428,17.3214 -9.074,0 -16.429,-7.7551 -16.429,-17.3214 0,-9.5664 7.355,-17.3215 16.429,-17.3215 9.073,0 16.428,7.7551 16.428,17.3215 z"
       sodipodi:ry="17.321428"
       sodipodi:rx="16.428572"
       sodipodi:cy="2582.5093"
       sodipodi:cx="10493.929"
       id="path9891-7"
       style="fill:#000000;fill-opacity:1;fill-rule:evenodd;stroke:none"
       sodipodi:type="arc" />
    <path
       d="m 10496.429,2579.6521 c 0,3.0573 -2.239,5.5357 -5,5.5357 -2.762,0 -5,-2.4784 -5,-5.5357 0,-3.0573 2.238,-5.5357 5,-5.5357 2.761,0 5,2.4784 5,5.5357 z"
       sodipodi:ry="5.5357141"
       sodipodi:rx="5"
       sodipodi:cy="2579.6521"
       sodipodi:cx="10491.429"
       id="path9893-3"
       style="fill:#ffffff;fill-opacity:1;fill-rule:evenodd;stroke:none"
       sodipodi:type="arc"
       transform="matrix(0.23207388,0,0,0.20978591,-2245.4103,-343.82647)" />
    <g
       style="fill:#ffffff;fill-opacity:1"
       transform="matrix(0.35591874,0,0,0.37547402,287.56707,268.20653)"
       inkscape:label="Laag 1"
       id="layer1-2-6">
      <path
         style="fill:#ffffff;fill-opacity:1;stroke:#101010;stroke-width:4.88900948;stroke-miterlimit:4;stroke-opacity:1;stroke-dasharray:none"
         d="m -251.6071,354.31023 c -35.17116,-3.31725 -65.41467,-16.06157 -89.41065,-37.67805 -25.94498,-23.37132 -42.09261,-53.00376 -48.92183,-89.77556 l -1.26947,-6.83947 -0.17688,-103.92476 -0.17556,-103.925445 79.10077,0 79.09979,0 0.25231,1.2167 0.25198,1.21604 0.08,-1.21604 0.0804,-1.2167 78.83694,0 78.836943,0 0,101.066265 c 0,97.26721 -0.0448,101.37735 -1.14265,109.33136 -4.66942,33.79267 -20.29695,65.72635 -43.329143,88.53942 -23.72292,23.4982 -52.08759,37.23777 -87.18464,42.23275 -8.80589,1.25295 -35.76703,1.83757 -44.92668,0.97349 z"
         id="path20827-7-1-9-9-4-0"
         inkscape:connector-curvature="0" />
    </g>
    <path
       style="fill:#da0f19;fill-opacity:1;stroke:#000000;stroke-width:1px;stroke-linecap:butt;stroke-linejoin:miter;stroke-opacity:1"
       d="m 166.44689,330.47229 0,-22.98102 3.80071,4.72881 25.36729,0 0,-21.0986 -5.56539,-4.00371 25.80648,0 -4.41937,4.00371 0,21.0986 25.94196,0 3.22604,-4.72881 0,22.98102 -2.91671,-4.19852 -26.25129,0 0,48.1717 -15.82172,0 0,-48.1717 -25.28409,0 z"
       id="path6219-2"
       inkscape:connector-curvature="0" />
    <path
       style="fill:#101010;fill-opacity:1;stroke:none"
       d="m 166.44689,386.80899 c 20.41453,19.79659 51.23207,20.31968 74.15772,1.87499 -22.01116,-19.5135 -47.97926,-20.28769 -74.15772,-1.87499 z"
       id="path6223-3"
       inkscape:connector-curvature="0"
       sodipodi:nodetypes="ccc" />
  </g>
</svg>
