<?xml version="1.0" encoding="UTF-8" standalone="no"?>
<!-- Created with Inkscape (http://www.inkscape.org/) -->

<svg
   xmlns:dc="http://purl.org/dc/elements/1.1/"
   xmlns:cc="http://creativecommons.org/ns#"
   xmlns:rdf="http://www.w3.org/1999/02/22-rdf-syntax-ns#"
   xmlns:svg="http://www.w3.org/2000/svg"
   xmlns="http://www.w3.org/2000/svg"
   xmlns:sodipodi="http://sodipodi.sourceforge.net/DTD/sodipodi-0.dtd"
   xmlns:inkscape="http://www.inkscape.org/namespaces/inkscape"
   width="485.28726"
   height="323.5463"
   id="svg7764"
   version="1.1"
   inkscape:version="0.48.4 r9939"
   sodipodi:docname="Nieuw document 52">
  <defs
     id="defs7766" />
  <sodipodi:namedview
     id="base"
     pagecolor="#ffffff"
     bordercolor="#666666"
     borderopacity="1.0"
     inkscape:pageopacity="0.0"
     inkscape:pageshadow="2"
     inkscape:zoom="0.7"
     inkscape:cx="649.28841"
     inkscape:cy="184.75176"
     inkscape:document-units="px"
     inkscape:current-layer="layer1"
     showgrid="false"
     fit-margin-top="0"
     fit-margin-left="0"
     fit-margin-right="0"
     fit-margin-bottom="0"
     inkscape:window-width="1600"
     inkscape:window-height="837"
     inkscape:window-x="-8"
     inkscape:window-y="-8"
     inkscape:window-maximized="1" />
  <metadata
     id="metadata7769">
    <rdf:RDF>
      <cc:Work
         rdf:about="">
        <dc:format>image/svg+xml</dc:format>
        <dc:type
           rdf:resource="http://purl.org/dc/dcmitype/StillImage" />
        <dc:title></dc:title>
      </cc:Work>
    </rdf:RDF>
  </metadata>
  <g
     inkscape:label="Laag 1"
     inkscape:groupmode="layer"
     id="layer1"
     transform="translate(-149.29552,-416.35297)">
    <rect
       style="fill:#fcdd09;fill-opacity:1;fill-rule:evenodd;stroke:none"
       id="rect7518"
       width="485.26953"
       height="161.83333"
       x="149.31181"
       y="416.36493" />
    <rect
       style="fill:#000000;fill-opacity:1;fill-rule:evenodd;stroke:none"
       id="rect7518-5"
       width="485.27225"
       height="161.76212"
       x="149.31053"
       y="578.13715" />
    <rect
       style="fill:#000000;fill-opacity:1;fill-rule:evenodd;stroke:none"
       id="rect7538"
       width="245.32022"
       height="154.58339"
       x="149.29552"
       y="416.35297" />
    <rect
       style="fill:#ffffff;fill-opacity:1;fill-rule:evenodd;stroke:none"
       id="rect7540-9"
       width="210.7681"
       height="131.05983"
       x="166.75475"
       y="427.92694" />
    <path
       style="fill:#da121a;fill-opacity:1"
       d="m 240.97828,547.48843 c -0.39163,-0.1813 -1.02753,-0.7188 -1.41316,-1.1945 -0.60502,-0.7463 -0.83676,-1.2789 -1.37834,-3.1673 -0.0733,-0.2552 -0.21013,-0.2189 -0.60892,0.1618 -1.55826,1.4874 -4.71088,1.9292 -6.6521,0.932 -1.88241,-0.9669 -2.49387,-2.6314 -1.7041,-4.6384 l 0.37107,-0.9429 -1.04987,-1.0375 c -1.43684,-1.4199 -1.75527,-2.6079 -1.07951,-4.0273 0.63103,-1.3255 2.10164,-2.1299 3.48322,-1.9053 0.7471,0.1215 0.91152,0.079 0.91152,-0.2341 0,-0.2103 0.23029,-0.7991 0.51173,-1.3082 1.33795,-2.4206 4.60935,-2.5941 5.71255,-0.303 0.26588,0.5522 0.27473,0.8904 0.0486,1.8607 -0.46866,2.0108 -0.46337,2.0317 0.66752,2.6403 0.82652,0.4448 1.27484,0.5358 2.1755,0.4418 2.39105,-0.2495 4.69424,-2.3008 9.26025,-8.2476 1.39076,-1.8113 3.14232,-4.0079 3.89239,-4.8812 l 1.36373,-1.5877 -0.71897,0 c -1.32345,0 -2.39694,0.6941 -4.52613,2.9271 -2.27799,2.3889 -2.91327,2.7254 -5.81237,3.0788 l -1.35453,0.1652 0.97694,-0.7301 c 1.08765,-0.8128 1.78002,-2.0083 2.1517,-3.7154 0.42197,-1.9379 1.12006,-3.1274 2.27095,-3.8695 l 1.053,-0.679 -1.09783,0 c -1.8025,0 -2.98756,-0.8783 -3.81323,-2.8257 -0.55605,-1.3116 -0.88655,-3.1811 -0.44102,-2.4944 1.2392,1.9097 2.16676,2.4995 3.91978,2.4921 1.46734,-0.011 2.83702,-0.5914 4.31763,-1.8446 3.42314,-2.8975 6.3514,-2.6935 10.86541,0.7568 0.77637,0.5936 1.29041,0.8483 1.38807,0.6879 0.0852,-0.1401 0.88383,-1.1224 1.7745,-2.1831 1.92039,-2.287 4.24577,-4.4407 6.47768,-5.9996 1.61128,-1.1253 5.10524,-2.9312 5.70204,-2.9471 0.54028,-0.015 -0.76928,-0.6629 -2.69457,-1.3343 -1.79223,-0.6248 -1.97517,-0.6423 -5.78362,-0.5486 -9.07073,0.2229 -13.04687,0.1138 -15.38447,-0.422 -2.99535,-0.6865 -5.69985,-2.071 -7.37734,-3.7768 -0.7249,-0.7371 -1.45625,-1.6796 -1.62526,-2.0945 -0.16906,-0.4149 -0.37278,-0.7457 -0.45279,-0.735 -0.31558,0.042 -2.63546,3.1247 -3.04978,4.0527 -0.48632,1.0891 -0.57132,2.6496 -0.21539,3.9525 0.50146,1.8356 2.23207,3.7321 3.4089,3.7356 1.38921,0 -0.2523,1.9138 -2.08403,2.4245 -0.66696,0.186 -1.83117,0.47 -2.58719,0.6312 -1.80372,0.3846 -2.79804,1.3139 -2.58182,2.4132 0.28203,1.4339 2.08742,2.7013 3.42306,2.403 l 0.71738,-0.1602 -0.5516,0.7877 c -1.46096,2.0861 -3.29547,3.3904 -5.12617,3.6444 -0.98494,0.1367 -1.21307,0.074 -4.91682,-1.3377 -2.43371,-0.9283 -3.93686,-0.1792 -3.8559,1.9213 0.0952,2.4715 2.41419,4.6816 4.91223,4.6816 l 0.95553,0 -0.46404,0.7645 c -0.64134,1.0567 -2.45744,2.4302 -3.6694,2.7753 -2.08117,0.5925 -4.67233,-0.012 -6.71311,-1.5681 l -0.73755,-0.5621 -0.14148,1.1183 c -0.36127,2.8559 -0.96923,4.4038 -2.19459,5.5877 -0.68946,0.6662 -0.83659,0.7058 -2.62384,0.7058 -1.57339,0 -2.09811,-0.1034 -3.10471,-0.6111 -1.30139,-0.6564 -1.44916,-0.6426 -1.44916,0.1354 0,0.6414 -0.76512,1.4843 -1.5227,1.6776 -0.89429,0.2282 -2.14884,-0.061 -3.13018,-0.721 -1.35474,-0.9117 -1.93593,-2.3828 -1.53756,-3.892 0.14833,-0.5618 0.11,-0.588 -0.85874,-0.588 -1.9731,0 -3.41725,-1.962 -3.45585,-4.6952 -0.018,-1.2785 0.0611,-1.5874 0.53967,-2.1065 0.34681,-0.3761 0.81032,-0.6082 1.21456,-0.6082 0.75217,0 0.76013,-0.033 0.31336,-1.2938 -0.52266,-1.4751 -0.45126,-3.7584 0.15159,-4.8491 0.65899,-1.1922 2.15964,-1.9728 3.35433,-1.7449 1.11276,0.2122 2.08388,1.2323 2.26877,2.3832 0.22931,1.4272 0.51537,1.9505 1.15563,2.1138 1.53281,0.3912 3.49147,-1.4012 9.14626,-8.3692 2.25815,-2.7827 4.4822,-5.4241 4.94231,-5.8701 0.46014,-0.4458 0.83623,-0.8692 0.83583,-0.9408 0,-0.072 -1.06753,-0.1326 -2.3713,-0.1351 -1.97266,0 -2.52581,-0.089 -3.29588,-0.5079 -1.08802,-0.5912 -1.98952,-1.5267 -2.54085,-2.6366 -0.51215,-1.0312 -0.39876,-4.1823 0.1999,-5.5545 l 0.41048,-0.9409 0.35248,1.0585 c 0.77177,2.3179 2.15683,3.4209 4.06166,3.2349 2.27662,-0.2225 3.95941,-2.1487 5.16968,-5.9175 0.33631,-1.0474 0.80751,-2.2537 1.04702,-2.6805 0.4266,-0.7601 0.42658,-0.7939 -0.002,-1.6466 -1.09527,-2.1822 -2.63951,-2.3866 -3.49816,-0.4629 -0.53357,1.1953 -0.57903,2.4093 -0.12349,3.2972 0.18252,0.3558 0.28254,0.6469 0.22223,0.6469 -0.0602,0 -0.64051,-0.2736 -1.28939,-0.6079 -1.66787,-0.8593 -3.28692,-2.4839 -3.91565,-3.9289 -0.48424,-1.1129 -0.52851,-1.5244 -0.47811,-4.4455 0.0418,-2.4223 -0.0298,-3.4266 -0.28896,-4.0573 -1.21475,-2.9563 -5.05404,-0.3097 -5.0957,3.5126 -0.008,0.7763 0.0734,1.8032 0.18179,2.2821 l 0.19717,0.8708 -0.77551,-0.2827 c -1.29497,-0.472 -3.28542,-2.6692 -3.88027,-4.2834 -0.61117,-1.6584 -0.68842,-4.4433 -0.1777,-6.404 l 0.32057,-1.2305 -0.60117,0.172 c -0.33067,0.094 -1.5465,0.1719 -2.70185,0.1719 -1.96026,0 -2.15929,-0.045 -2.97715,-0.6801 -1.40179,-1.0879 -1.85016,-2.3893 -1.83653,-5.3305 l 0.0117,-2.4822 -0.60056,0.09 c -2.02179,0.3017 -2.98717,-3.3683 -1.60878,-6.1156 0.51198,-1.0204 1.7517,-1.7246 2.57075,-1.4604 0.40095,0.1294 0.45177,0.082 0.30635,-0.2836 -0.56322,-1.4178 -0.61088,-1.7347 -0.38554,-2.5646 0.87779,-3.2325 4.80185,-4.8643 5.85877,-2.4364 0.36097,0.8292 0.43149,0.8341 1.3017,0.09 2.21971,-1.8991 5.01264,-1.6268 6.11088,0.596 0.75874,1.5356 0.31569,4.0027 -0.78247,4.3572 -0.21645,0.07 -0.66241,0.342 -0.991,0.6048 -0.95453,0.7635 -0.82306,1.8507 0.38577,3.1911 1.28962,1.43 2.51299,2.2091 8.6864,5.532 2.83711,1.5271 5.72602,3.1458 6.41984,3.5971 0.6938,0.4512 1.26141,0.7953 1.26134,0.7646 -9e-5,-0.03 -0.22182,-0.6382 -0.49276,-1.3497 -0.32997,-0.8666 -0.53101,-2.0488 -0.60883,-3.5802 -0.10787,-2.1225 -0.0723,-2.3775 0.49567,-3.5581 0.92031,-1.9126 2.04348,-2.5899 4.48106,-2.7021 1.04973,-0.048 1.9086,-0.027 1.9086,0.048 0,0.074 -0.44453,0.5882 -0.98788,1.1415 -1.97694,2.0131 -2.03516,4.4399 -0.15859,6.6076 1.17113,1.3529 2.63299,1.9349 5.42638,2.1601 1.82598,0.1473 2.73263,0.4072 4.33772,1.2436 0.0954,0.05 0.1735,-0.2931 0.1735,-0.7618 0,-0.4689 0.22512,-1.298 0.50028,-1.8427 l 0.5003,-0.9904 0.29899,0.7057 c 0.16443,0.3881 0.30368,0.8416 0.30942,1.0076 0.0258,0.7465 1.33577,2.8476 2.53671,4.0688 2.86746,2.9157 6.73123,3.974 14.52436,3.9783 l 3.51694,0 0.82079,-1.4241 c 0.45143,-0.7832 0.8208,-1.4701 0.8208,-1.5264 0,-0.056 -2.53107,-0.034 -5.62455,0.049 l -5.6246,0.1517 -0.39039,-0.8367 c -0.21474,-0.46 -0.39041,-1.1746 -0.39041,-1.588 0,-1.0067 0.66858,-2.1178 1.27445,-2.1178 0.33074,0 0.69401,-0.3654 1.16466,-1.1716 0.37622,-0.6443 0.75083,-1.1735 0.83248,-1.1761 0.0816,0 0.21752,0.2864 0.30198,0.6422 0.0844,0.3559 0.25592,1.0439 0.38104,1.5291 l 0.22743,0.8822 2.59368,0 c 1.42657,0 3.12348,-0.066 3.77094,-0.1459 l 1.17717,-0.1439 0.40754,-1.5977 c 0.51132,-2.0046 0.52715,-4.1591 0.0377,-5.1216 -0.45797,-0.9005 -1.58048,-1.7727 -2.79953,-2.1752 -1.11569,-0.3684 -6.49407,-0.4564 -6.44435,-0.1057 0.0182,0.1294 0.0999,1.0292 0.18124,1.9995 l 0.14796,1.7644 -1.6488,-1.7644 c -0.90679,-0.9703 -1.80718,-2.1341 -2.00083,-2.5862 -0.40859,-0.9536 -0.4632,-2.7779 -0.10361,-3.461 0.16896,-0.3212 0.17625,-0.7382 0.0229,-1.3034 -0.25705,-0.9466 0.0239,-1.9873 0.59676,-2.2109 0.19739,-0.076 2.15011,-0.019 4.3393,0.1294 2.79861,0.1894 4.00474,0.1952 4.06226,0.02 0.21973,-0.6703 1.41162,-1.768 2.45727,-2.263 2.55506,-1.2099 6.98686,-0.2974 10.29547,2.1194 0.98246,0.7178 1.2609,0.7984 3.09435,0.8963 1.54669,0.082 2.16129,0.2183 2.64563,0.5843 1.17219,0.886 0.87557,2.238 -0.92735,4.2268 l -0.9406,1.0377 0.52658,0.5699 c 0.81883,0.8862 1.65627,0.9574 3.14035,0.2665 l 1.28798,-0.5996 -0.15453,0.5225 c -0.71367,2.4135 -2.19502,4.4209 -3.64037,4.9333 -0.61218,0.217 -0.62832,0.2562 -0.27032,0.6584 0.64324,0.7227 1.00999,2.1425 1.02059,3.9512 0.014,2.347 0.32755,2.8136 2.82372,4.1998 1.11848,0.621 2.03612,1.1926 2.03916,1.2701 0.003,0.077 -0.4369,0.323 -0.97767,0.5459 -1.33995,0.5523 -3.42581,0.7422 -4.10314,0.3736 -0.48361,-0.2632 -0.51939,-0.2488 -0.36546,0.1473 0.18855,0.4853 0.45439,1.9534 0.79668,4.3999 0.26824,1.9172 0.99342,3.1556 2.46589,4.211 0.56403,0.4043 0.98611,0.7751 0.93795,0.824 -0.0481,0.049 -0.76506,0.1866 -1.59305,0.3059 -1.15631,0.1665 -1.76564,0.1365 -2.62722,-0.1293 -0.617,-0.1903 -1.13553,-0.3471 -1.15234,-0.3486 -0.0171,0 0.10873,0.3944 0.27901,0.8796 0.17029,0.4852 0.31417,1.5366 0.31973,2.3365 0.0114,1.6241 -0.12379,1.5041 2.20795,1.9607 0.76346,0.1496 2.81122,0.6325 4.55063,1.0731 9.36876,2.3735 13.45235,5.2372 16.57068,11.6208 1.30598,2.6734 1.33295,2.7076 2.68618,3.4085 1.21461,0.6289 1.64014,0.7171 3.81724,0.7915 4.59349,0.1568 9.18895,-1.5219 12.50456,-4.5677 1.02759,-0.9441 1.98622,-2.434 2.31429,-3.5971 l 0.20188,-0.7158 -1.19567,0.9658 c -2.54899,2.0587 -5.10558,2.6207 -7.39123,1.6245 -1.23283,-0.5373 -2.8584,-2.3688 -3.44088,-3.8766 -1.28372,-3.323 -0.45323,-7.4944 1.92753,-9.6814 l 0.87954,-0.808 -1.14671,-0.5909 c -0.63067,-0.3248 -1.19688,-0.5907 -1.25824,-0.5907 -0.0613,0 -0.42246,0.6615 -0.8024,1.4702 -0.87321,1.8582 -2.03125,3.237 -3.4376,4.0928 -0.97874,0.5956 -1.31792,0.6697 -3.06688,0.6701 -2.39987,0 -3.6142,-0.5387 -5.30532,-2.3569 -1.92921,-2.0742 -2.73815,-4.3933 -2.46794,-7.0753 0.0832,-0.8249 0.20418,-1.6403 0.26902,-1.812 0.0777,-0.2062 -0.56664,-0.6673 -1.89414,-1.3556 -1.467,-0.7606 -2.49261,-1.5212 -3.78599,-2.8075 -2.71709,-2.7024 -3.78711,-5.06 -3.79004,-8.3509 -0.003,-2.2308 0.4612,-3.6899 1.7253,-5.4349 1.73883,-2.4005 4.22226,-3.5067 7.84607,-3.495 2.54353,0.011 3.81198,0.2912 7.03578,1.5699 3.2164,1.2757 5.9278,2.0457 7.74235,2.1988 1.95571,0.1649 2.15069,0.033 1.81873,-1.2318 -1.07448,-4.0932 5.29606,-7.8383 9.53857,-5.6074 0.35212,0.1851 0.94223,0.7194 1.31138,1.1872 l 0.67114,0.8507 0.61119,-0.4888 c 0.79562,-0.6364 1.80843,-2.7178 1.80843,-3.7166 0,-0.9988 -0.56196,-2.3794 -1.04536,-2.5681 -0.55914,-0.2181 -1.40372,0.2675 -1.87443,1.0777 -0.23033,0.3965 -0.49644,0.7209 -0.5913,0.7209 -0.28231,0 -0.88447,-2.3577 -0.88447,-3.463 0,-1.2846 0.68752,-2.6842 1.66685,-3.3933 0.55848,-0.4043 1.1504,-0.5673 2.3009,-0.6334 3.64228,-0.2092 6.19431,2.4376 5.93016,6.1505 l -0.10199,1.4339 1.24245,-1.3902 c 1.38039,-1.5444 2.9369,-4.4772 3.19242,-6.0151 0.14609,-0.8793 0.19777,-0.9466 0.42285,-0.5505 0.15217,0.2678 0.25881,1.7421 0.26227,3.6269 0.006,2.8773 -0.0445,3.2716 -0.5308,4.1982 -0.29514,0.5624 -0.48429,1.0757 -0.42034,1.1408 0.064,0.065 0.49927,-0.011 0.96734,-0.1674 1.32677,-0.4452 4.82718,-0.1993 6.23599,0.4381 1.22552,0.5545 3.35333,1.9371 3.35407,2.1795 0,0.079 -0.91047,0.2177 -2.0238,0.3079 -2.42798,0.1965 -4.84425,0.7167 -6.41985,1.382 -2.89366,1.2221 -5.39888,3.5892 -6.61303,6.2486 -1.42839,3.1286 -1.73649,3.6533 -2.91158,4.9596 -0.65789,0.7312 -1.75101,1.6422 -2.42913,2.024 -1.12342,0.6329 -1.42823,0.6945 -3.43075,0.6934 -1.95976,0 -2.33157,-0.073 -3.43321,-0.6615 -1.64225,-0.8781 -3.11024,-2.287 -4.12563,-3.9597 -0.75816,-1.249 -0.88447,-1.3542 -1.43663,-1.1964 -0.33294,0.096 -1.5423,0.1621 -2.68746,0.1487 -2.35105,-0.027 -4.59748,-0.5532 -7.98143,-1.8682 -4.27367,-1.6606 -4.87258,-1.8172 -7.05603,-1.8448 -1.7897,-0.023 -2.24456,0.056 -3.23884,0.5618 -1.38054,0.7017 -2.53041,2.2922 -2.75133,3.8052 -0.16504,1.1307 0.30864,3.3357 0.9399,4.3754 1.11559,1.8372 3.70336,3.9354 6.00445,4.8684 l 0.95413,0.3868 0.78093,-0.7458 c 0.42953,-0.4102 1.35352,-1.0251 2.05335,-1.3664 1.1247,-0.5484 1.54086,-0.6184 3.58583,-0.6026 1.97113,0.016 2.63866,0.1303 4.51126,0.7779 1.20878,0.4179 3.38709,1.3942 4.84074,2.1693 1.4536,0.7752 3.24617,1.616 3.98339,1.8686 1.7604,0.603 3.97714,0.5991 5.57738,-0.011 1.41059,-0.5368 3.37476,-2.3719 4.07178,-3.8043 0.33118,-0.6806 0.47989,-0.8164 0.58607,-0.535 0.27561,0.7303 0.13658,1.6817 -0.40458,2.7686 l -0.54691,1.0984 0.60473,0 c 0.33261,0 1.15128,-0.261 1.81931,-0.5772 0.66799,-0.3163 1.21455,-0.4951 1.21455,-0.3976 0,0.098 -0.51281,0.7626 -1.13963,1.4776 -2.39789,2.7357 -5.51669,4.2267 -8.88895,4.2495 -2.48437,0.017 -4.33818,-0.5628 -8.1175,-2.5381 -3.33845,-1.7448 -5.50058,-2.5666 -7.38026,-2.8053 -1.27439,-0.1619 -2.6978,0.015 -2.6978,0.3339 0,0.096 0.59862,0.3637 1.33023,0.596 1.79946,0.5714 8.68644,3.3397 10.12137,4.0684 0.63619,0.3231 1.98956,1.1025 3.00748,1.732 1.42283,0.8799 2.48227,1.3122 4.58172,1.8699 1.50203,0.3988 3.29251,0.7454 3.9788,0.7699 1.16635,0.042 1.31087,-0.017 2.21278,-0.8962 0.53073,-0.5176 1.21177,-1.4702 1.5134,-2.1171 l 0.54847,-1.1762 0.003,1.4149 c 0.003,0.9694 -0.14355,1.6915 -0.46087,2.2936 l -0.46323,0.8786 0.63667,0 c 0.35016,0 1.18466,-0.2617 1.85445,-0.5788 l 1.21782,-0.5764 -0.27161,0.52 c -0.4323,0.8275 -2.8872,3.1288 -3.83927,3.599 -0.61866,0.3056 -1.38683,0.4273 -2.66247,0.4222 -0.9861,0 -1.79292,0.028 -1.79292,0.072 0,0.044 0.30798,0.6344 0.68442,1.3127 1.01369,1.8263 1.48051,3.9421 1.32694,6.0138 -0.1021,1.3768 -0.31282,2.1031 -1.04123,3.5886 l -0.91326,1.8625 0.87667,0.8914 c 1.55745,1.5836 2.0547,4.9744 1.0811,7.3722 l -0.32099,0.7906 -0.28433,-1.6467 c -0.15641,-0.9057 -0.46806,-2.0701 -0.69256,-2.5876 -0.47209,-1.0882 -1.91278,-2.47 -2.57504,-2.47 -0.24979,0 -0.94885,0.3585 -1.55354,0.7968 -1.37444,0.996 -4.43028,2.5593 -5.95769,3.0477 -3.59309,1.1489 -7.93399,1.4498 -10.62619,0.7368 -0.74468,-0.1971 -1.36674,-0.3296 -1.38242,-0.294 -0.0156,0.036 0.008,1.4142 0.0518,3.0638 l 0.0803,2.9992 1.03269,0 c 0.79962,0 1.16645,0.136 1.6251,0.6024 0.32583,0.3313 0.61285,0.5695 0.63787,0.5292 0.025,-0.04 0.22365,-0.3626 0.44137,-0.7167 0.97558,-1.5859 2.09576,-1.6013 3.14581,-0.043 0.51752,0.768 0.57886,0.7951 1.03679,0.4581 2.64451,-1.9458 4.37223,-1.6303 5.04334,0.9212 0.29016,1.103 0.505,1.3214 0.72541,0.7373 0.0694,-0.184 0.62666,-0.6326 1.23828,-0.9971 0.97297,-0.5798 1.33254,-0.6594 2.87436,-0.6361 0.96924,0.015 1.95054,0.1335 2.18061,0.2645 0.3766,0.2143 0.34546,0.2764 -0.3122,0.6221 -1.02711,0.5402 -2.31917,1.7373 -2.71508,2.5157 -0.93612,1.8408 0.3103,3.9667 3.98336,6.794 l 1.53407,1.1808 -2.17444,0 c -3.15506,0.011 -4.43626,0.6827 -5.06386,2.6687 -0.48824,1.5449 -0.19332,2.6035 1.11829,4.0136 1.85358,1.9928 2.41669,3.9097 1.79124,6.0974 -1.03523,3.6208 -5.4452,5.777 -8.31627,4.0661 -0.98608,-0.5875 -2.0444,-1.9062 -2.3382,-2.9133 -0.1991,-0.6825 -0.3812,-0.6668 -1.06612,0.092 -0.91557,1.0146 -3.79664,2.8228 -5.35536,3.361 -4.73345,1.6345 -7.83856,0.2332 -7.90554,-3.5677 -0.0229,-1.2979 -0.0549,-1.3674 -0.73465,-1.5961 -0.74209,-0.2495 -1.94027,-1.3917 -2.38469,-2.2731 -0.37232,-0.7383 -0.31902,-2.3501 0.0992,-2.9992 0.4994,-0.7749 1.54425,-1.1634 2.64694,-0.9841 0.86057,0.14 0.92726,0.109 1.06825,-0.4996 0.48979,-2.1133 1.9883,-3.3725 3.43551,-2.8869 1.06962,0.3589 2.54573,2.0537 3.05254,3.5048 0.46572,1.3331 0.40408,1.3221 2.45336,0.4408 4.92065,-2.1158 2.27274,-7.1134 -4.68642,-8.8449 -3.77699,-0.9397 -7.54835,-0.8966 -12.00249,0.1374 -1.62068,0.3761 -1.74165,0.4506 -2.37615,1.4634 -0.36769,0.5869 -1.14805,2.0365 -1.73411,3.2214 -1.57661,3.1875 -1.62311,5.0604 -0.20784,8.3725 0.23167,0.5421 -0.44809,0.5505 -1.74783,0.021 -0.6644,-0.2702 -1.15401,-0.7036 -1.59643,-1.4131 l -0.63821,-1.0232 -0.34274,0.531 c -0.58782,0.9106 -1.871,2.0809 -2.83512,2.5856 -1.15037,0.6023 -3.54329,0.654 -4.77316,0.1034 -0.92384,-0.4137 -2.28354,-1.4945 -2.28354,-1.815 0,-0.1124 0.39039,-0.2647 0.86755,-0.3394 2.81941,-0.4406 4.65829,-1.3578 6.4705,-3.2272 l 1.20736,-1.2455 -1.4387,0 c -1.64908,0 -2.89216,-0.5415 -4.54167,-1.978 l -1.02082,-0.8891 1.89206,0.1113 c 1.76265,0.1034 1.99072,0.062 3.33426,-0.6168 0.9467,-0.478 2.29251,-1.5418 3.91691,-3.096 3.90088,-3.7325 4.78391,-6.0575 4.01694,-10.5765 -0.32951,-1.9414 -0.49693,-2.3674 -1.52517,-3.8798 -0.63526,-0.9344 -1.41156,-1.9439 -1.72508,-2.2434 l -0.57003,-0.5445 -0.95579,0.6734 c -2.45493,1.7299 -4.62587,5.2486 -5.51113,8.9325 -0.24776,1.031 -0.57254,3.0919 -0.72173,4.5798 -0.14924,1.4879 -0.29772,2.7337 -0.32996,2.7687 -0.0323,0.035 -0.7648,-0.1034 -1.62788,-0.3067 -3.34638,-0.7891 -7.1257,-0.379 -9.16716,0.9946 -1.75308,1.1797 -2.31556,3.1311 -1.36121,4.7227 0.51262,0.8549 2.2325,2.0641 3.26341,2.2943 0.36799,0.082 0.66909,0.2421 0.66909,0.3554 0,0.3632 -3.24242,2.1788 -4.46846,2.5022 -0.65157,0.1719 -1.96388,0.3125 -2.91628,0.3125 l -1.73163,0 0.84288,0.8821 c 1.0086,1.0556 1.33312,1.8495 1.33312,3.2615 0,1.6519 -1.09721,3.2937 -2.29684,3.4366 -0.47712,0.056 -0.58846,-0.092 -0.89706,-1.2008 -0.70847,-2.545 -2.74889,-3.8496 -5.20804,-3.33 -1.93724,0.4094 -3.43965,1.2564 -5.50533,3.1037 -1.06691,0.9542 -2.33177,2.0308 -2.81076,2.3925 -2.16138,1.6322 -5.08335,2.3998 -6.55015,1.7206 z m 82.74405,-51.1597 c 0.56983,-0.3674 1.52211,-1.2331 2.11619,-1.9236 l 1.08018,-1.2556 -0.39097,-0.673 c -0.46619,-0.8025 -2.84529,-3.3259 -3.6261,-3.846 -0.49522,-0.3301 -0.62212,-0.3313 -1.22955,-0.012 -1.69271,0.8902 -2.77435,3.0577 -2.50878,5.0278 0.41002,3.0419 2.28798,4.1468 4.55903,2.6824 z m -12.64554,-9.979 c 0.51957,-0.5514 1.12094,-1.4588 1.33643,-2.0166 l 0.39175,-1.0141 -0.80972,-0.3441 c -1.92513,-0.8179 -6.66328,-2.4275 -6.78409,-2.3046 -0.0728,0.074 -0.13223,0.8485 -0.13223,1.7212 0,1.3565 0.10183,1.7541 0.70223,2.7416 0.82786,1.3615 2.14633,2.2096 3.44381,2.2152 0.76803,0 1.05212,-0.1499 1.85182,-0.9986 z"
       id="path5354-5-9"
       inkscape:connector-curvature="0" />
    <path
       style="fill:#fcdd09;fill-opacity:1"
       d="m 238.77553,552.05273 c -0.0619,-0.063 0.43621,-0.6905 1.10688,-1.3946 1.55323,-1.6306 2.14431,-3.3633 1.69899,-4.9806 -0.24501,-0.8898 -0.23078,-1.1126 0.10443,-1.6328 0.75524,-1.172 1.92941,-1.2296 3.33962,-0.1639 0.74391,0.5622 0.77344,0.6425 0.67582,1.8395 -0.12413,1.5219 -1.34991,4.0993 -2.36346,4.9694 -1.02602,0.8808 -2.41994,1.4664 -3.5051,1.4722 -0.51956,0 -0.9953,-0.046 -1.05718,-0.109 z m 81.469,-2.473 c 0,-0.094 0.21004,-0.4435 0.46677,-0.7753 1.38701,-1.7929 1.76518,-4.2513 0.91349,-5.9382 -0.52426,-1.0383 -0.45286,-1.7571 0.24503,-2.4668 0.91501,-0.9304 3.24659,-0.3673 3.72354,0.8993 0.28056,0.7451 0.0942,2.7554 -0.40073,4.3237 -0.45345,1.4368 -1.50924,2.8982 -2.45657,3.4003 -0.85368,0.4526 -2.49153,0.8187 -2.49153,0.557 z m -21.31742,-2.0095 c -0.19753,-2.7056 1.18048,-4.6535 4.17946,-5.9081 0.70994,-0.2969 1.77603,-0.5424 2.3691,-0.5455 0.92355,0 1.16434,0.099 1.67734,0.7183 1.10179,1.3315 1.02651,2.5901 -0.20403,3.4099 -0.51527,0.3433 -0.72778,0.3563 -1.6288,0.1 -1.87978,-0.5352 -3.65447,0.034 -5.37622,1.7219 -0.83054,0.8146 -0.98845,0.8928 -1.01685,0.5037 z m -75.38497,-4.1522 c 0,-0.7502 0.88052,-2.2482 1.69099,-2.8768 2.11086,-1.6371 6.51153,-1.9847 7.61328,-0.6013 1.04747,1.3152 0.658,3.1584 -0.78516,3.716 -0.81382,0.3144 -0.88765,0.2997 -1.7171,-0.3436 -0.77722,-0.6028 -1.04773,-0.6722 -2.6203,-0.6722 -1.42215,0 -1.9831,0.1155 -2.96767,0.6109 -1.13175,0.5696 -1.21404,0.5809 -1.21404,0.167 z m 77.10735,-3.8041 c -0.10174,-0.1766 -0.54936,-0.5154 -0.99471,-0.7529 -1.20124,-0.6408 -3.07366,-0.5566 -4.72602,0.2126 -0.73968,0.3443 -1.37706,0.6261 -1.41643,0.6261 -0.19187,0 0.40534,-1.569 0.84627,-2.2233 0.67772,-1.0057 1.79999,-1.7136 3.38043,-2.1322 1.57383,-0.4168 2.20594,-0.4324 3.76354,-0.092 1.42826,0.3115 1.93087,0.9634 1.93087,2.5045 0,0.8808 -0.11486,1.1777 -0.62985,1.6281 -0.69402,0.607 -1.86473,0.7319 -2.1541,0.2299 z m -94.86414,-1.7651 c -0.85248,-1.1836 -1.09587,-2.1961 -0.91041,-3.7883 0.17121,-1.4701 0.90483,-3.0256 2.05181,-4.3505 0.75157,-0.8681 1.06805,-1.0664 1.70238,-1.0664 1.06496,0 1.80817,0.3849 2.26644,1.1736 0.67679,1.1651 0.30128,2.4543 -0.7789,2.674 -1.59788,0.325 -3.10209,2.526 -3.41534,4.9976 l -0.17584,1.3875 -0.74014,-1.0275 z m 9.65968,0.058 c 0,-0.053 0.32218,-0.6768 0.71595,-1.3863 1.04447,-1.8818 1.16932,-3.7016 0.35551,-5.1822 -0.68152,-1.2399 -0.71904,-1.4857 -0.35189,-2.3051 0.73574,-1.6419 3.57414,-1.3058 4.15776,0.4923 0.79343,2.4444 -0.66787,6.7055 -2.65954,7.7552 -0.72329,0.3812 -2.21779,0.8032 -2.21779,0.6261 z m 13.7044,-1.2526 c -0.28785,-0.072 -0.72934,-0.4754 -0.98112,-0.8971 -0.90603,-1.5175 -3.33616,-2.3908 -5.52665,-1.9859 -1.07257,0.1982 -1.14538,0.1828 -0.94356,-0.2006 0.94776,-1.8008 3.29416,-2.7899 5.66899,-2.3897 1.97118,0.3322 4.0068,1.34 4.30224,2.1301 0.67372,1.8018 -0.8094,3.7694 -2.51991,3.3432 z m 75.19888,-1.1066 c -0.15425,-0.064 -0.49799,-0.4736 -0.76386,-0.9109 -0.30503,-0.5019 -0.95249,-1.0288 -1.75445,-1.4277 -1.15276,-0.5735 -1.44228,-0.6204 -3.11139,-0.5041 l -1.84035,0.1283 0.43791,-0.6247 c 1.05506,-1.505 2.37339,-2.1537 4.37706,-2.1537 1.36899,0 3.59368,0.6318 4.61067,1.3093 2.0647,1.3757 0.31436,5.12 -1.95559,4.1835 z m -70.5522,-3.1992 c -0.69819,-0.7888 -0.80383,-1.3071 -0.42014,-2.0616 0.78097,-1.5357 0.0936,-4.4995 -1.35914,-5.8598 -0.83922,-0.786 -0.76847,-0.9588 0.39244,-0.9588 1.99205,0 3.94655,1.9163 4.80064,4.7065 0.58686,1.9173 0.57778,3.1558 -0.0276,3.7714 -1.02133,1.0385 -2.65148,1.2322 -3.38617,0.4023 z m -35.93204,-4.5628 c 0.006,-2.9329 2.62854,-5.3177 6.42472,-5.8415 1.53732,-0.2121 2.16897,0.1628 2.71244,1.6098 0.34001,0.9052 0.35058,1.1359 0.0785,1.713 -0.17288,0.3669 -0.60609,0.8092 -0.96266,0.983 -0.5542,0.27 -0.78123,0.2618 -1.56417,-0.056 -0.50371,-0.2049 -1.30414,-0.3715 -1.77871,-0.3703 -1.06579,0 -2.92534,0.8609 -4.059,1.8731 l -0.8524,0.761 0.003,-0.6713 z m 7.38911,-9.6257 c -1.02945,-1.2612 -3.7339,-1.4874 -5.87402,-0.4911 l -1.31198,0.6108 0.15845,-0.5226 c 0.46009,-1.5172 1.44598,-2.6915 2.82805,-3.3686 1.2035,-0.5896 4.73247,-0.7433 5.87953,-0.256 1.40787,0.5983 1.76449,2.7882 0.64022,3.9314 -0.55374,0.563 -1.89385,0.6186 -2.32025,0.097 z m -6.0322,-47.0347 c -0.99015,-0.3212 -2.74627,-1.8809 -2.74627,-2.439 0,-0.1156 0.44974,-0.109 1.02346,0.016 2.05872,0.4465 4.70539,-0.5008 5.57331,-1.9948 1.1291,-1.9436 3.58244,-0.777 3.58244,1.7033 0,0.9745 -0.7393,1.7019 -2.35421,2.3162 -1.77405,0.6749 -3.74914,0.8299 -5.07873,0.3985 z m 68.39246,-4.7294 c -3.111,-0.7655 -6.24334,-1.0442 -11.68294,-1.0394 -2.99016,0 -6.32151,-0.1034 -7.40306,-0.2361 -4.8441,-0.5934 -7.72358,-2.4122 -9.37864,-5.9238 -1.26778,-2.6899 -0.99587,-4.9067 0.82252,-6.7054 0.99456,-0.9837 2.03495,-1.317 3.72361,-1.1928 3.54679,0.2608 5.43359,3.9444 3.72439,7.2712 -0.52829,1.0283 -0.8616,1.3639 -1.83715,1.85 -0.65552,0.3265 -1.19792,0.6688 -1.20537,0.7606 -0.0206,0.2528 2.84081,1.0973 5.03782,1.4869 1.07226,0.19 2.7948,0.3458 3.82786,0.3461 6.69289,0 15.65008,1.1762 16.22891,2.1285 0.17131,0.2818 -0.094,1.6431 -0.31477,1.6152 -0.0853,-0.011 -0.77975,-0.1732 -1.54318,-0.361 z m -67.91897,-5.9119 c -0.88754,-1.3999 -2.44079,-2.0606 -4.77415,-2.0307 l -1.90144,0.025 0.46472,-0.6636 c 1.45043,-2.0712 4.27369,-2.596 7.45446,-1.386 1.71897,0.6539 2.24568,1.2101 2.24568,2.3712 0,1.0674 -0.49322,2.2028 -1.05144,2.4207 -0.20595,0.081 -0.71292,0.146 -1.12651,0.146 -0.61536,0 -0.85367,-0.1603 -1.31132,-0.8821 z m 3.85376,-7.0878 c -0.87259,-1.4054 -2.33084,-2.0264 -4.69311,-1.9982 -1.72976,0.02 -1.88043,-0.013 -1.68609,-0.3828 0.47433,-0.9012 1.84714,-1.8469 3.09236,-2.1302 1.95728,-0.4454 5.00374,0.3133 6.45037,1.6065 0.78144,0.6986 0.32462,3.2925 -0.64659,3.6714 -0.20595,0.081 -0.72902,0.1462 -1.16235,0.1462 -0.66357,0 -0.87731,-0.1441 -1.35459,-0.9129 z m 9.42335,-0.2656 c -0.27887,-0.1142 -0.67247,-0.4644 -0.87464,-0.7781 -0.3149,-0.4888 -0.32656,-0.7265 -0.0811,-1.6593 0.22763,-0.8655 0.22763,-1.3123 -5e-5,-2.1779 -0.31888,-1.2122 -1.44884,-2.9502 -2.27665,-3.5017 -0.78345,-0.522 -0.66437,-0.8199 0.32717,-0.8183 1.36353,0 2.44021,0.4003 3.4437,1.2736 1.96393,1.7093 3.26572,5.6078 2.25698,6.7591 -0.4098,0.4677 -1.70356,1.1584 -2.10741,1.1252 -0.0995,-0.011 -0.40911,-0.108 -0.68794,-0.2226 z m 68.52259,-0.2606 c -0.94137,-0.1392 -2.28149,-0.6564 -4.16424,-1.607 -2.96955,-1.4991 -4.74943,-1.9713 -7.02648,-1.864 -1.06794,0.051 -1.31409,-0.011 -1.3761,-0.3371 -0.0608,-0.3213 0.11828,-0.4045 0.92476,-0.4294 0.99882,-0.03 0.99906,-0.032 0.19044,-0.1765 -0.7432,-0.1336 -0.80993,-0.2131 -0.81236,-0.9687 -0.002,-0.4529 -0.0954,-0.9718 -0.20884,-1.1531 -0.13723,-0.2194 -0.0849,-0.4199 0.15623,-0.5993 0.47451,-0.3527 0.67324,-3.8292 0.22879,-4.0016 -0.34381,-0.1334 -0.38969,-1.4475 -0.0578,-1.656 0.12725,-0.08 0.23137,-0.3094 0.23137,-0.5099 0,-0.2696 -0.14797,-0.3266 -0.56912,-0.2192 -1.22801,0.3134 -1.16608,-1.9894 0.0717,-2.6629 1.08097,-0.5882 1.68654,0.037 1.53068,1.5798 l -0.11174,1.1065 0.34964,-0.7646 c 0.44787,-0.9793 0.75182,-0.9659 1.16983,0.052 0.46068,1.1212 0.42133,1.8143 -0.17358,3.0594 -0.56057,1.1732 -0.77437,1.3009 -0.99495,0.5943 -0.0807,-0.2587 -0.24761,-0.4704 -0.37075,-0.4704 -0.13426,0 -0.12187,0.1939 0.031,0.4843 0.14018,0.2664 0.19071,0.7813 0.11228,1.1444 -0.12917,0.5979 -0.0723,0.6744 0.60344,0.8119 0.94044,0.1912 1.91132,-0.6047 1.75453,-1.4386 -0.055,-0.2924 -0.004,-0.5316 0.11303,-0.5316 0.11708,0 0.14466,-0.1124 0.0612,-0.2494 -0.21114,-0.3473 0.36172,-1.6698 0.6765,-1.5618 0.28943,0.099 0.3788,2.2818 0.0935,2.2818 -0.45167,0 -0.11641,0.956 0.52885,1.508 0.73131,0.6258 1.68302,0.7793 2.29572,0.3702 0.28946,-0.1932 0.26068,-0.2556 -0.17353,-0.3767 -0.69937,-0.1948 -0.65608,-0.6562 0.11527,-1.2276 0.34966,-0.259 0.5585,-0.5494 0.46408,-0.6454 -0.0944,-0.096 -0.37394,0.011 -0.6212,0.2391 -0.65742,0.6051 -0.94135,0.2643 -0.94135,-1.1293 0,-0.9648 0.15019,-1.4747 0.68893,-2.3384 0.8002,-1.283 1.29155,-1.405 1.51387,-0.3757 0.0978,0.4528 0.23952,0.6455 0.37398,0.5088 0.13446,-0.1368 0.12206,-0.4729 -0.0328,-0.8871 -0.32176,-0.8605 -0.21856,-1.0835 0.73924,-1.5976 1.04788,-0.5624 1.8973,-0.2447 2.43998,0.9124 l 0.3998,0.8524 -0.63239,0.5532 c -0.81576,0.7134 -0.82858,1.2371 -0.0143,0.586 0.8165,-0.6531 1.06536,-0.3581 1.0512,1.2465 -0.0119,1.3527 -0.2582,2.0408 -1.04439,2.9185 -0.62565,0.6984 -0.78933,0.6684 -0.97223,-0.1785 -0.0841,-0.3893 -0.24454,-0.6502 -0.35656,-0.5797 -0.11515,0.072 -0.10289,0.3976 0.0283,0.7483 0.28196,0.7539 0.10004,1.3414 -0.3598,1.162 -0.61442,-0.2398 -0.59877,0.272 0.0235,0.7698 0.67461,0.5395 1.35447,0.6136 2.2953,0.2498 0.45422,-0.1755 0.58812,-0.3607 0.5023,-0.6944 -0.0643,-0.2502 -0.0499,-0.4865 0.0319,-0.5251 0.0818,-0.038 0.30509,-0.3791 0.49596,-0.7569 0.55281,-1.0941 1.01236,-1.0884 0.83868,0.011 -0.0792,0.5012 -0.16151,1.0392 -0.1829,1.1954 -0.0214,0.1561 -0.17765,0.3381 -0.34734,0.4043 -0.33743,0.1316 -0.41209,1.2514 -0.11513,1.7271 0.23868,0.3824 1.64693,0.8071 1.68637,0.5087 0.0159,-0.1204 0.042,-0.3307 0.0578,-0.4675 0.0161,-0.1368 0.28917,-0.4604 0.60728,-0.7193 l 0.57835,-0.4706 -0.77543,0.1552 -0.77542,0.1551 0.15193,-0.7886 c 0.0836,-0.4335 0.20636,-1.0785 0.27284,-1.4332 0.11965,-0.6382 1.55686,-2.0604 2.08216,-2.0604 0.1819,0 0.23887,0.3318 0.17154,0.9998 l -0.10073,0.9997 0.52978,-1.0585 c 0.85498,-1.7084 2.26054,-1.4936 2.26054,0.3454 0,1.2626 -1.12237,2.3445 -1.47174,1.4188 -0.20288,-0.5376 -0.60992,-0.4206 -0.6139,0.1765 -0.005,0.6592 -0.20527,0.9729 -0.84028,1.3127 -0.66347,0.355 -2.21991,3.2529 -2.04617,3.8096 0.0776,0.2484 -0.006,0.5114 -0.19726,0.6234 -0.18226,0.1068 -0.36992,0.403 -0.41704,0.6585 -0.0471,0.2555 -0.31608,0.5814 -0.59766,0.7241 -0.39132,0.1984 -0.44809,0.3245 -0.24083,0.5352 0.31386,0.3192 0.2832,0.3194 -1.78789,0.012 z m -6.54998,-4.1321 c -0.16701,-0.067 -0.36653,-0.06 -0.4434,0.019 -0.0769,0.079 0.0598,0.1338 0.30363,0.1236 0.26951,-0.011 0.32432,-0.068 0.13977,-0.1421 z m -1.37362,-0.2303 c -0.15905,-0.065 -0.41931,-0.065 -0.57833,0 -0.15909,0.065 -0.0289,0.1187 0.28916,0.1187 0.31809,0 0.44824,-0.054 0.28917,-0.1187 z"
       id="path7498-8"
       inkscape:connector-curvature="0" />
    <g
       transform="matrix(-0.4456324,0,0,0.53164026,476.52733,119.37953)"
       id="layer1-1-1"
       inkscape:label="Laag 1">
      <g
         inkscape:label="Laag 1"
         id="layer1-82-1-3-7-8"
         transform="matrix(-0.13536704,0.01802271,0.0253258,0.10942933,509.88176,576.02665)">
        <path
           style="fill:#ffffff;stroke:none"
           d="m 380.51421,417.93662 c -6.84667,16.74306 -2.105,37.69165 7.79587,44.77332 25.82609,-21.22281 57.21711,-22.11967 86.83813,-29.49003 -28.54724,-16.8104 -61.97043,-26.41672 -94.63472,-15.28354 z"
           id="path4875-2-6-9-5-6-7-2"
           inkscape:connector-curvature="0"
           sodipodi:nodetypes="cccc" />
        <path
           sodipodi:type="arc"
           style="fill:#000000;fill-opacity:1;fill-rule:evenodd;stroke:none"
           id="path4877-0-6-4-1-2-7-6"
           sodipodi:cx="5055.4663"
           sodipodi:cy="-4490.8501"
           sodipodi:rx="5.1454644"
           sodipodi:ry="8.7125654"
           d="m 5060.6118,-4490.8501 c 0,4.8118 -2.3037,8.7126 -5.1455,8.7126 -2.8418,0 -5.1455,-3.9008 -5.1455,-8.7126 0,-4.8118 2.3037,-8.7126 5.1455,-8.7126 2.8418,0 5.1455,3.9008 5.1455,8.7126 z"
           transform="matrix(2.796119,-0.96849589,0.47893421,2.1354911,-11592.069,14922.461)" />
        <path
           transform="matrix(2.0622957,-0.71432057,0.48597737,2.1668953,-7850.0234,13777.424)"
           sodipodi:type="arc"
           style="fill:#ffffff;fill-opacity:1;fill-rule:evenodd;stroke:none"
           id="path4879-9-18-7-7-8-7-6"
           sodipodi:cx="5053.0356"
           sodipodi:cy="-4492.4282"
           sodipodi:rx="2.1465743"
           sodipodi:ry="2.7779195"
           d="m 5055.1822,-4492.4282 c 0,1.5342 -0.961,2.7779 -2.1466,2.7779 -1.1855,0 -2.1465,-1.2437 -2.1465,-2.7779 0,-1.5342 0.961,-2.7779 2.1465,-2.7779 1.1856,0 2.1466,1.2437 2.1466,2.7779 z" />
        <path
           style="fill:#000000;stroke:none"
           d="m 398.58283,368.97879 c -26.93709,0.26852 -61.8208,44.38214 -16.64341,47.88406 50.12808,-9.69633 80.1633,8.0565 110.78087,25.0125 -27.91867,-19.92292 -49.53048,-47.37359 -103.39504,-36.33088 -20.82021,4.82683 -30.06782,-17.91175 9.26048,-36.56754 z"
           id="path4881-7-4-8-6-2-3-0"
           inkscape:connector-curvature="0"
           sodipodi:nodetypes="ccccc" />
        <path
           style="fill:#ffffff;fill-opacity:0.46226418;stroke:none"
           d="m 382.23839,480.14224 c 3.53665,-27.97127 29.22,-25.61184 53.48259,-25.1962 -22.13909,3.50724 -46.48334,4.51408 -53.48259,25.1962 z"
           id="path4883-3-9-3-0-3-3-3"
           inkscape:connector-curvature="0"
           sodipodi:nodetypes="ccc" />
      </g>
    </g>
  </g>
</svg>
