<?xml version="1.0" encoding="UTF-8"?>
<svg id="Layer_1" xmlns="http://www.w3.org/2000/svg" version="1.1" viewBox="0 0 765.9 509.9">
  <!-- Generator: Adobe Illustrator 29.1.0, SVG Export Plug-In . SVG Version: 2.1.0 Build 142)  -->
  <defs>
    <style>
      .st0 {
        fill: #1d1d1b;
      }

      .st1 {
        fill: #fff;
      }

      .st2 {
        fill: #ffe619;
      }

      .st3 {
        fill: #c21d18;
      }

      .st4 {
        fill: #284595;
      }
    </style>
  </defs>
  <rect class="st1" width="765.8" height="509.9"/>
  <polygon class="st3" points="735.2 147.2 735.2 172.6 671.5 172.6 671.5 147.2 607.8 147.2 607.8 172.6 544.1 172.6 544.1 147.2 480.3 147.2 480.3 172.6 416.6 172.6 416.6 147.2 352.9 147.2 352.9 172.6 289.1 172.6 289.1 147.2 253.4 147.2 253.4 172.6 161.7 172.6 97.9 172.6 34.2 172.6 0 172.6 0 206.2 34.2 206.2 34.2 231.6 97.9 231.6 97.9 206.2 161.7 206.2 161.7 231.6 225.4 231.6 225.4 206.2 289.1 206.2 289.1 231.6 352.9 231.6 352.9 206.2 416.6 206.2 416.6 231.6 480.3 231.6 480.3 206.2 544.1 206.2 544.1 231.6 607.8 231.6 607.8 206.2 671.5 206.2 671.5 231.6 735.2 231.6 735.2 206.2 765.9 206.2 765.9 147.2 735.2 147.2"/>
  <rect class="st2" width="253.4" height="172.6"/>
  <path class="st0" d="M198.8,43v6.2h-7.3v-6.2h-6v6.2h-7.3v-6.2h-6v6.2h-7.3v-6.2h-6v12.1l4.2,3.2v10.5h-7.3v-6h-6v6h-7.2v-6h-6v6h-7.2v-6h-6v6h-7.2v-6h-6v6h-7.2v-6h-6v6h-6.7v-10.5l4.2-3.2v-12.1h-6v6.2h-7.3v-6.2h-6v6.2h-7.3v-6.2h-6v6.2h-7.3v-6.2h-6v12.1l4.2,3.2v74.4c0,2.6,1.5,4.7,18.7,4.7s18.7-2.1,18.7-4.7v-1h22.9v-18.6c0-7.3,6-13.3,13.3-13.3s13.3,6,13.3,13.3v18.6h23.5v1c0,2.6,1.5,4.7,18.7,4.7s18.7-2.1,18.7-4.7V58.3l4.2-3.2v-12.1h-6Z"/>
  <rect class="st3" y="402.8" width="765.8" height="35.5"/>
  <rect class="st3" y="474.4" width="765.8" height="35.5"/>
  <rect class="st4" x="253.4" y="70.7" width="512.5" height="35.4"/>
  <rect class="st4" x="253.4" width="512.5" height="35.4"/>
  <rect class="st1" x="253.4" y="35.4" width="512.5" height="35.4"/>
  <rect class="st2" y="438.3" width="765.8" height="36.1"/>
  <polygon class="st3" points="735.2 277.9 735.2 303.3 671.5 303.3 671.5 277.9 607.8 277.9 607.8 303.3 544.1 303.3 544.1 277.9 480.3 277.9 480.3 303.3 416.6 303.3 416.6 277.9 352.9 277.9 352.9 303.3 289.1 303.3 289.1 277.9 225.4 277.9 225.4 303.3 161.7 303.3 161.7 277.9 97.9 277.9 97.9 303.3 34.2 303.3 34.2 277.9 0 277.9 0 336.9 34.2 336.9 34.2 362.3 97.9 362.3 97.9 336.9 161.7 336.9 161.7 362.3 225.4 362.3 225.4 336.9 289.1 336.9 289.1 362.3 352.9 362.3 352.9 336.9 416.6 336.9 416.6 362.3 480.3 362.3 480.3 336.9 544.1 336.9 544.1 362.3 607.8 362.3 607.8 336.9 671.5 336.9 671.5 362.3 735.2 362.3 735.2 336.9 765.9 336.9 765.9 277.9 735.2 277.9"/>
</svg>