<?xml version="1.0" encoding="UTF-8" standalone="no"?>
<!-- Created with Inkscape (http://www.inkscape.org/) -->

<svg
   xmlns:dc="http://purl.org/dc/elements/1.1/"
   xmlns:cc="http://creativecommons.org/ns#"
   xmlns:rdf="http://www.w3.org/1999/02/22-rdf-syntax-ns#"
   xmlns:svg="http://www.w3.org/2000/svg"
   xmlns="http://www.w3.org/2000/svg"
   xmlns:sodipodi="http://sodipodi.sourceforge.net/DTD/sodipodi-0.dtd"
   xmlns:inkscape="http://www.inkscape.org/namespaces/inkscape"
   width="325.85123"
   height="216.21841"
   id="svg18329"
   version="1.1"
   inkscape:version="0.48.4 r9939"
   sodipodi:docname="Nieuw document 43">
  <defs
     id="defs18331" />
  <sodipodi:namedview
     id="base"
     pagecolor="#ffffff"
     bordercolor="#666666"
     borderopacity="1.0"
     inkscape:pageopacity="0.0"
     inkscape:pageshadow="2"
     inkscape:zoom="0.7"
     inkscape:cx="246.49818"
     inkscape:cy="73.587597"
     inkscape:document-units="px"
     inkscape:current-layer="layer1"
     showgrid="false"
     fit-margin-top="0"
     fit-margin-left="0"
     fit-margin-right="0"
     fit-margin-bottom="0"
     inkscape:window-width="1600"
     inkscape:window-height="837"
     inkscape:window-x="-8"
     inkscape:window-y="-8"
     inkscape:window-maximized="1" />
  <metadata
     id="metadata18334">
    <rdf:RDF>
      <cc:Work
         rdf:about="">
        <dc:format>image/svg+xml</dc:format>
        <dc:type
           rdf:resource="http://purl.org/dc/dcmitype/StillImage" />
        <dc:title></dc:title>
      </cc:Work>
    </rdf:RDF>
  </metadata>
  <g
     inkscape:label="Laag 1"
     inkscape:groupmode="layer"
     id="layer1"
     transform="translate(-116.74672,-329.60345)">
    <rect
       style="fill:#da121a;fill-opacity:1;fill-rule:evenodd;stroke:none"
       id="rect18189"
       width="325.85123"
       height="216.21841"
       x="116.74672"
       y="329.60345" />
    <path
       style="fill:#078930;fill-opacity:1;stroke:#000000;stroke-width:1px;stroke-linecap:butt;stroke-linejoin:miter;stroke-opacity:0"
       d="m 132.42536,436.35174 71.72034,-34.94068 103.90254,-25.74576 89.65043,-31.72246 38.61864,-14.50212 6.58369,0.0403 0.0437,217.2312 -2.48967,-0.0215 -60.22669,-22.0678 -70.3411,-23.44708 -57.00848,-20.68856 -96.08686,-29.42373 -24.36653,-14.71187 z"
       id="path3602"
       sodipodi:nodetypes="ccccccccccccc"
       inkscape:connector-curvature="0" />
    <path
       style="fill:#ffffff;stroke:#000000;stroke-width:1px;stroke-linecap:butt;stroke-linejoin:miter;stroke-opacity:0"
       d="m 117.0553,434.20633 0,8.20581 c 9.57844,-0.0703 18.36378,4.61128 25.97227,9.79419 9.2566,6.14808 18.07317,10.75609 26,12.25 l 116.5,33.75 c 6.06969,0.30751 12.26947,1.6558 19,7.25 5.25,5.68526 10.5,6.23765 15.75,6 8.13968,0.50558 15.51567,2.34759 21.00001,7.5 6.75,6.11282 13.5,7.26489 20.25,6.75 7.33333,0.0319 14.66667,1.41508 22,6.75 8.54534,6.55512 15.69719,8.0008 22.25,7.25 7.38795,-0.47058 12.91785,2.80261 17.65625,6.96875 l 17.40625,0.0312 c -9.75,-6.67665 -19.8125,-18.75936 -29.5625,-17 -7.5,-0.43846 -15,-0.72086 -22.5,-7 -8.25,-4.93673 -16.5,-8.52085 -24.75,-7.5 -5.83333,0.0908 -11.66667,0.0299 -17.5,-5.75 -5.71646,-3.80589 -11.80227,-6.99622 -19.5,-7.5 -6.16753,0.67347 -11.99916,-1.34014 -17.50001,-6 -6.88991,-5.02061 -14.19435,-7.13953 -21.75,-7.5 l -118.25,-38.25 c -8.39951,-3.00082 -16.80228,-5.99621 -23.25,-12.25 8.92585,-7.41596 17.49071,-11.58309 25.75,-13 l 69.25,-27 c 6.11269,-1.06822 11.87828,0.6404 19.25,-10.5 8.91195,-1.61928 7.41035,-3.36362 26.7536,-2.4311 1.83252,0.0883 3.66427,1.47874 5.4964,1.1811 5.83333,-0.77814 11.66667,-1.65732 17.5,-7 3.5,-3.66667 9,-5.33333 16.50001,-5 6.83333,0.39645 13.66667,-1.01246 20.5,-7.25 5.78326,-7.93244 10.86088,-6.69139 16,-6.25 9.46009,0.94717 18.37227,-1.11917 26.5,-7.5 5.95202,-6.14645 12.38447,-7.48863 19,-7 7.38163,1.78978 13.95019,-1.29883 20,-7.5 l 13,-9.25 -18.25,0 c -5.83333,5.40939 -11.66667,8.40413 -17.5,6.5 -7.25,0.18528 -14.5,1.28565 -21.75,6.75 -7.16667,7.29206 -14.33333,7.35818 -21.5,7.5 -8.85306,0.0537 -17.10096,1.01522 -22,7 -5.2576,5.06052 -11.24575,7.92943 -18.5,7 -6.1791,-0.84755 -11.90121,0.36128 -16.75001,5.5 -7.7242,7.9858 -21.06727,5.55309 -32,3.75 l -23.25,12 -22.75,0.5 -16.25,4.25 -14,6.25 c -18,9 -36,14.35069 -54,27 -7.71715,4.63261 -15.95393,9.94418 -26.22227,10.75 z"
       id="path3604"
       sodipodi:nodetypes="cccccccccccccccccccccccccsccccccccccccccccccccccc"
       inkscape:connector-curvature="0" />
    <path
       style="fill:#fcdd09;fill-opacity:1;stroke:#000000;stroke-width:1px;stroke-linecap:butt;stroke-linejoin:miter;stroke-opacity:0"
       d="m 185.163,358.70633 -13,14.75 -0.25,20 -11,0 -0.75,22.75 8,6.5 -11.25,83.25 -0.25,17.5 130.25,0 0,-16.75 -11.5,-84.25 7.75,-6.25 -0.25,-22.75 -11.75,0 0.25,-20 -14,-14.75 -10.75,14.75 -0.5,24 -9,0 0,-24 -16,-24.5 -15,24.5 -0.5,30 -7.75,0 0.25,-30 -13,-14.75 z"
       id="path3614"
       inkscape:connector-curvature="0" />
    <rect
       style="fill:#078930;fill-opacity:1;fill-rule:evenodd;stroke:#000000;stroke-width:0;stroke-linecap:square;stroke-linejoin:round;stroke-miterlimit:4;stroke-opacity:0;stroke-dasharray:none;stroke-dashoffset:0"
       id="rect3616"
       width="26.125"
       height="3.8750005"
       x="171.91299"
       y="373.45633" />
    <rect
       style="fill:#078930;fill-opacity:1;fill-rule:evenodd;stroke:#000000;stroke-width:0;stroke-linecap:square;stroke-linejoin:round;stroke-miterlimit:4;stroke-opacity:0;stroke-dasharray:none;stroke-dashoffset:0"
       id="rect3616-1"
       width="31.249998"
       height="3.8750005"
       x="205.97549"
       y="373.45633" />
    <rect
       style="fill:#078930;fill-opacity:1;fill-rule:evenodd;stroke:#000000;stroke-width:0;stroke-linecap:square;stroke-linejoin:round;stroke-miterlimit:4;stroke-opacity:0;stroke-dasharray:none;stroke-dashoffset:0"
       id="rect3616-4"
       width="24.875"
       height="3.8750005"
       x="246.35051"
       y="373.45633" />
    <rect
       style="fill:#078930;fill-opacity:1;fill-rule:evenodd;stroke:#000000;stroke-width:0;stroke-linecap:square;stroke-linejoin:round;stroke-miterlimit:4;stroke-opacity:0;stroke-dasharray:none;stroke-dashoffset:0"
       id="rect3616-9"
       width="18.125"
       height="3.7500005"
       x="171.97549"
       y="389.70633" />
    <rect
       style="fill:#078930;fill-opacity:1;fill-rule:evenodd;stroke:#000000;stroke-width:0;stroke-linecap:square;stroke-linejoin:round;stroke-miterlimit:4;stroke-opacity:0;stroke-dasharray:none;stroke-dashoffset:0"
       id="rect3616-9-4"
       width="25.375"
       height="3.7500005"
       x="209.10049"
       y="389.70633" />
    <rect
       style="fill:#078930;fill-opacity:1;fill-rule:evenodd;stroke:#000000;stroke-width:0;stroke-linecap:square;stroke-linejoin:round;stroke-miterlimit:4;stroke-opacity:0;stroke-dasharray:none;stroke-dashoffset:0"
       id="rect3616-9-8"
       width="18.125"
       height="3.7500005"
       x="253.72551"
       y="389.70633" />
    <rect
       style="fill:#078930;fill-opacity:1;fill-rule:evenodd;stroke:#000000;stroke-width:0;stroke-linecap:square;stroke-linejoin:round;stroke-miterlimit:4;stroke-opacity:0;stroke-dasharray:none;stroke-dashoffset:0"
       id="rect3616-9-45"
       width="26.5"
       height="3.7500005"
       x="186.35051"
       y="403.83133" />
    <rect
       style="fill:#078930;fill-opacity:1;fill-rule:evenodd;stroke:#000000;stroke-width:0;stroke-linecap:square;stroke-linejoin:round;stroke-miterlimit:4;stroke-opacity:0;stroke-dasharray:none;stroke-dashoffset:0"
       id="rect3616-9-1"
       width="26.375"
       height="3.7500005"
       x="230.97549"
       y="403.70633" />
    <rect
       style="fill:#078930;fill-opacity:1;fill-rule:evenodd;stroke:#000000;stroke-width:0;stroke-linecap:square;stroke-linejoin:round;stroke-miterlimit:4;stroke-opacity:0;stroke-dasharray:none;stroke-dashoffset:0"
       id="rect3616-9-11"
       width="17.25"
       height="3.7500005"
       x="389.64383"
       y="-190.03801"
       transform="matrix(0,1,-1,0,0,0)" />
    <rect
       style="fill:#078930;fill-opacity:1;fill-rule:evenodd;stroke:#000000;stroke-width:0;stroke-linecap:square;stroke-linejoin:round;stroke-miterlimit:4;stroke-opacity:0;stroke-dasharray:none;stroke-dashoffset:0"
       id="rect3616-9-11-5"
       width="17.125"
       height="3.7500005"
       x="390.14383"
       y="-212.78799"
       transform="matrix(0,1,-1,0,0,0)" />
    <rect
       style="fill:#078930;fill-opacity:1;fill-rule:evenodd;stroke:#000000;stroke-width:0;stroke-linecap:square;stroke-linejoin:round;stroke-miterlimit:4;stroke-opacity:0;stroke-dasharray:none;stroke-dashoffset:0"
       id="rect3616-9-11-5-2"
       width="17.125"
       height="3.7500005"
       x="390.14383"
       y="-234.53799"
       transform="matrix(0,1,-1,0,0,0)" />
    <rect
       style="fill:#078930;fill-opacity:1;fill-rule:evenodd;stroke:#000000;stroke-width:0;stroke-linecap:square;stroke-linejoin:round;stroke-miterlimit:4;stroke-opacity:0;stroke-dasharray:none;stroke-dashoffset:0"
       id="rect3616-9-11-5-6"
       width="17.125"
       height="3.7500005"
       x="390.01883"
       y="-257.41302"
       transform="matrix(0,1,-1,0,0,0)" />
    <rect
       style="fill:#078930;fill-opacity:1;fill-rule:evenodd;stroke:#000000;stroke-width:0;stroke-linecap:square;stroke-linejoin:round;stroke-miterlimit:4;stroke-opacity:0;stroke-dasharray:none;stroke-dashoffset:0"
       id="rect3616-9-11-5-4"
       width="35.5"
       height="3.7500005"
       x="426.76883"
       y="-186.66301"
       transform="matrix(0,1,-1,0,0,0)" />
    <rect
       style="fill:#078930;fill-opacity:1;fill-rule:evenodd;stroke:#000000;stroke-width:0;stroke-linecap:square;stroke-linejoin:round;stroke-miterlimit:4;stroke-opacity:0;stroke-dasharray:none;stroke-dashoffset:0"
       id="rect3616-9-11-5-4-2"
       width="35.5"
       height="3.7500005"
       x="426.70633"
       y="-198.03799"
       transform="matrix(0,1,-1,0,0,0)" />
    <rect
       style="fill:#078930;fill-opacity:1;fill-rule:evenodd;stroke:#000000;stroke-width:0;stroke-linecap:square;stroke-linejoin:round;stroke-miterlimit:4;stroke-opacity:0;stroke-dasharray:none;stroke-dashoffset:0"
       id="rect3616-9-11-5-4-22"
       width="15"
       height="3.7500005"
       x="-198.03799"
       y="-430.45633"
       transform="scale(-1,-1)" />
    <rect
       style="fill:#078930;fill-opacity:1;fill-rule:evenodd;stroke:#000000;stroke-width:0;stroke-linecap:square;stroke-linejoin:round;stroke-miterlimit:4;stroke-opacity:0;stroke-dasharray:none;stroke-dashoffset:0"
       id="rect3616-9-11-5-4-22-1"
       width="15"
       height="3.7500005"
       x="-198.03799"
       y="-462.45633"
       transform="scale(-1,-1)" />
    <rect
       style="fill:#078930;fill-opacity:1;fill-rule:evenodd;stroke:#000000;stroke-width:0;stroke-linecap:square;stroke-linejoin:round;stroke-miterlimit:4;stroke-opacity:0;stroke-dasharray:none;stroke-dashoffset:0"
       id="rect3616-9-11-5-4-6"
       width="35.5"
       height="3.7500005"
       x="426.14383"
       y="-246.60051"
       transform="matrix(0,1,-1,0,0,0)" />
    <rect
       style="fill:#078930;fill-opacity:1;fill-rule:evenodd;stroke:#000000;stroke-width:0;stroke-linecap:square;stroke-linejoin:round;stroke-miterlimit:4;stroke-opacity:0;stroke-dasharray:none;stroke-dashoffset:0"
       id="rect3616-9-11-5-4-2-8"
       width="35.5"
       height="3.7500005"
       x="426.08133"
       y="-257.97552"
       transform="matrix(0,1,-1,0,0,0)" />
    <rect
       style="fill:#078930;fill-opacity:1;fill-rule:evenodd;stroke:#000000;stroke-width:0;stroke-linecap:square;stroke-linejoin:round;stroke-miterlimit:4;stroke-opacity:0;stroke-dasharray:none;stroke-dashoffset:0"
       id="rect3616-9-11-5-4-22-5"
       width="15"
       height="3.7500005"
       x="-257.97552"
       y="-429.83133"
       transform="scale(-1,-1)" />
    <rect
       style="fill:#078930;fill-opacity:1;fill-rule:evenodd;stroke:#000000;stroke-width:0;stroke-linecap:square;stroke-linejoin:round;stroke-miterlimit:4;stroke-opacity:0;stroke-dasharray:none;stroke-dashoffset:0"
       id="rect3616-9-11-5-4-22-1-7"
       width="15"
       height="3.7500005"
       x="-257.97552"
       y="-461.83133"
       transform="scale(-1,-1)" />
    <rect
       style="fill:#078930;fill-opacity:1;fill-rule:evenodd;stroke:#000000;stroke-width:0;stroke-linecap:square;stroke-linejoin:round;stroke-miterlimit:4;stroke-opacity:0;stroke-dasharray:none;stroke-dashoffset:0"
       id="rect3616-9-11-5-4-22-1-6"
       width="49.875"
       height="3.7500005"
       x="-206.91299"
       y="-506.20633"
       transform="scale(-1,-1)" />
    <rect
       style="fill:#078930;fill-opacity:1;fill-rule:evenodd;stroke:#000000;stroke-width:0;stroke-linecap:square;stroke-linejoin:round;stroke-miterlimit:4;stroke-opacity:0;stroke-dasharray:none;stroke-dashoffset:0"
       id="rect3616-9-11-5-4-22-1-8"
       width="55.125"
       height="3.7500005"
       x="-286.91302"
       y="-506.33133"
       transform="scale(-1,-1)" />
    <rect
       style="fill:#078930;fill-opacity:1;fill-rule:evenodd;stroke:#000000;stroke-width:0;stroke-linecap:square;stroke-linejoin:round;stroke-miterlimit:4;stroke-opacity:0;stroke-dasharray:none;stroke-dashoffset:0"
       id="rect3616-9-11-5-4-22-1-2"
       width="37.625"
       height="3.7500005"
       x="-523.45636"
       y="203.91299"
       transform="matrix(0,-1,1,0,0,0)" />
    <rect
       style="fill:#078930;fill-opacity:1;fill-rule:evenodd;stroke:#000000;stroke-width:0;stroke-linecap:square;stroke-linejoin:round;stroke-miterlimit:4;stroke-opacity:0;stroke-dasharray:none;stroke-dashoffset:0"
       id="rect3616-9-11-5-4-22-1-2-7"
       width="37.625"
       height="3.7500005"
       x="-523.45636"
       y="231.66299"
       transform="matrix(0,-1,1,0,0,0)" />
    <path
       style="fill:#078930;fill-opacity:1;stroke:#000000;stroke-width:1px;stroke-linecap:butt;stroke-linejoin:miter;stroke-opacity:0"
       d="m 203.8505,485.89383 3.75,0 c 0.60486,-12.24869 21.73139,-17.11686 24.0625,0 l 3.6875,0 c -1.00335,-19.8754 -30.01064,-19.03999 -31.5,0 z"
       id="path3924"
       sodipodi:nodetypes="ccccc"
       inkscape:connector-curvature="0" />
  </g>
</svg>
