<?xml version="1.0" encoding="UTF-8" standalone="no"?>
<!-- Created with Inkscape (http://www.inkscape.org/) -->

<svg
   xmlns:dc="http://purl.org/dc/elements/1.1/"
   xmlns:cc="http://creativecommons.org/ns#"
   xmlns:rdf="http://www.w3.org/1999/02/22-rdf-syntax-ns#"
   xmlns:svg="http://www.w3.org/2000/svg"
   xmlns="http://www.w3.org/2000/svg"
   xmlns:sodipodi="http://sodipodi.sourceforge.net/DTD/sodipodi-0.dtd"
   xmlns:inkscape="http://www.inkscape.org/namespaces/inkscape"
   id="svg2816"
   version="1.1"
   inkscape:version="0.48.4 r9939"
   width="326"
   height="217"
   sodipodi:docname="Borculo_vlag.svg">
  <metadata
     id="metadata2822">
    <rdf:RDF>
      <cc:Work
         rdf:about="">
        <dc:format>image/svg+xml</dc:format>
        <dc:type
           rdf:resource="http://purl.org/dc/dcmitype/StillImage" />
        <dc:title></dc:title>
      </cc:Work>
    </rdf:RDF>
  </metadata>
  <defs
     id="defs2820">
    <inkscape:perspective
       sodipodi:type="inkscape:persp3d"
       inkscape:vp_x="0 : 0.5 : 1"
       inkscape:vp_y="0 : 1000 : 0"
       inkscape:vp_z="1 : 0.5 : 1"
       inkscape:persp3d-origin="0.5 : 0.33333333 : 1"
       id="perspective2824" />
    <inkscape:perspective
       id="perspective3612"
       inkscape:persp3d-origin="0.5 : 0.33333333 : 1"
       inkscape:vp_z="1 : 0.5 : 1"
       inkscape:vp_y="0 : 1000 : 0"
       inkscape:vp_x="0 : 0.5 : 1"
       sodipodi:type="inkscape:persp3d" />
    <inkscape:perspective
       id="perspective4388"
       inkscape:persp3d-origin="0.5 : 0.33333333 : 1"
       inkscape:vp_z="1 : 0.5 : 1"
       inkscape:vp_y="0 : 1000 : 0"
       inkscape:vp_x="0 : 0.5 : 1"
       sodipodi:type="inkscape:persp3d" />
    <inkscape:perspective
       id="perspective4849"
       inkscape:persp3d-origin="0.5 : 0.33333333 : 1"
       inkscape:vp_z="1 : 0.5 : 1"
       inkscape:vp_y="0 : 1000 : 0"
       inkscape:vp_x="0 : 0.5 : 1"
       sodipodi:type="inkscape:persp3d" />
    <inkscape:perspective
       id="perspective4849-1"
       inkscape:persp3d-origin="0.5 : 0.33333333 : 1"
       inkscape:vp_z="1 : 0.5 : 1"
       inkscape:vp_y="0 : 1000 : 0"
       inkscape:vp_x="0 : 0.5 : 1"
       sodipodi:type="inkscape:persp3d" />
    <inkscape:perspective
       id="perspective4902"
       inkscape:persp3d-origin="0.5 : 0.33333333 : 1"
       inkscape:vp_z="1 : 0.5 : 1"
       inkscape:vp_y="0 : 1000 : 0"
       inkscape:vp_x="0 : 0.5 : 1"
       sodipodi:type="inkscape:persp3d" />
    <inkscape:perspective
       id="perspective4924"
       inkscape:persp3d-origin="0.5 : 0.33333333 : 1"
       inkscape:vp_z="1 : 0.5 : 1"
       inkscape:vp_y="0 : 1000 : 0"
       inkscape:vp_x="0 : 0.5 : 1"
       sodipodi:type="inkscape:persp3d" />
    <inkscape:perspective
       id="perspective4946"
       inkscape:persp3d-origin="0.5 : 0.33333333 : 1"
       inkscape:vp_z="1 : 0.5 : 1"
       inkscape:vp_y="0 : 1000 : 0"
       inkscape:vp_x="0 : 0.5 : 1"
       sodipodi:type="inkscape:persp3d" />
    <inkscape:perspective
       id="perspective4960"
       inkscape:persp3d-origin="0.5 : 0.33333333 : 1"
       inkscape:vp_z="1 : 0.5 : 1"
       inkscape:vp_y="0 : 1000 : 0"
       inkscape:vp_x="0 : 0.5 : 1"
       sodipodi:type="inkscape:persp3d" />
    <inkscape:perspective
       id="perspective4992"
       inkscape:persp3d-origin="0.5 : 0.33333333 : 1"
       inkscape:vp_z="1 : 0.5 : 1"
       inkscape:vp_y="0 : 1000 : 0"
       inkscape:vp_x="0 : 0.5 : 1"
       sodipodi:type="inkscape:persp3d" />
    <inkscape:perspective
       id="perspective4992-3"
       inkscape:persp3d-origin="0.5 : 0.33333333 : 1"
       inkscape:vp_z="1 : 0.5 : 1"
       inkscape:vp_y="0 : 1000 : 0"
       inkscape:vp_x="0 : 0.5 : 1"
       sodipodi:type="inkscape:persp3d" />
  </defs>
  <sodipodi:namedview
     pagecolor="#ffffff"
     bordercolor="#666666"
     borderopacity="1"
     objecttolerance="10"
     gridtolerance="10"
     guidetolerance="10"
     inkscape:pageopacity="0"
     inkscape:pageshadow="2"
     inkscape:window-width="1600"
     inkscape:window-height="837"
     id="namedview2818"
     showgrid="false"
     inkscape:zoom="2.1751152"
     inkscape:cx="107.19736"
     inkscape:cy="110.20619"
     inkscape:window-x="-8"
     inkscape:window-y="-8"
     inkscape:window-maximized="1"
     inkscape:current-layer="svg2816" />
  <path
     style="fill:#fcdd04;fill-opacity:1;stroke:#000000;stroke-width:1.02586245999999990px;stroke-linecap:butt;stroke-linejoin:miter;stroke-opacity:0"
     d="m -1.1685795,-5.3848632 0,224.8610932 333.7124795,0 -0.66477,-224.8610932 -333.0477095,0 z"
     id="path2828" />
  <path
     style="fill:#0e44af;fill-opacity:1;stroke:#000000;stroke-width:0.59114712000000003px;stroke-linecap:butt;stroke-linejoin:miter;stroke-opacity:0"
     d="m -1.1053869,-5.5271393 0,225.0659293 110.7107469,0 -0.005,-224.8744356 -110.7059169,-0.1914937 1.7e-4,0 z"
     id="path2828-9"
     sodipodi:nodetypes="cccccc" />
  <path
     style="fill:#fcdd04;fill-opacity:1;stroke:#000000;stroke-width:1px;stroke-linecap:butt;stroke-linejoin:miter;stroke-opacity:0"
     d="M 98.845338,96.086869 37.469278,28.73411 22.987288,6.4364406 42.986228,19.998941 c 3.58522,-8.98273 14.8191,-14.6828814 22.75742,1.60911 -8.79572,-2.30878 -15.43642,-2.052069 -11.49365,10.804025 l 52.181152,56.778603 -7.585812,6.89619 z"
     id="path4974"
     sodipodi:nodetypes="cccccccc" />
  <path
     style="fill:#0e44af;fill-opacity:1;stroke:#000000;stroke-width:1px;stroke-linecap:butt;stroke-linejoin:miter;stroke-opacity:0"
     d="m 153.78496,21.148305 c 9.6568,-3.639415 13.75447,1.901218 11.26377,9.884534 l -55.45684,62.180614 0,12.585547 L 181.59958,28.044492 196.08157,5.2870756 175.62288,19.769068 C 168.63005,6.7280646 156.28591,8.5119056 153.78496,21.148305 z"
     id="path4976"
     sodipodi:nodetypes="cccccccc" />
  <path
     style="fill:#fcdd04;fill-opacity:1;stroke:#000000;stroke-width:1px;stroke-linecap:butt;stroke-linejoin:miter;stroke-opacity:0"
     d="M 109.59189,93.155981 27.584748,181.59958 c -4.67977,-1.90363 -3.91694,1.03059 -3.21822,3.90784 l 6.66631,5.74682 c 4.03596,2.26088 4.03465,-0.0202 3.21822,-3.21822 l 75.283372,-82.17956 0.0575,-12.700479 z"
     id="path4978"
     sodipodi:nodetypes="ccccccc" />
  <path
     style="fill:#0e44af;fill-opacity:1;stroke:#000000;stroke-width:1px;stroke-linecap:butt;stroke-linejoin:miter;stroke-opacity:0"
     d="m 120.22352,103.90254 -8.27542,6.43644 72.18008,78.15678 c -1.47556,3.62104 0.34366,4.25381 3.67797,3.67797 l 6.43644,-5.74682 c 2.46285,-6.62873 -1.20014,-4.3921 -2.98835,-4.59746 z"
     id="path4980"
     sodipodi:nodetypes="ccccccc"
     inkscape:connector-curvature="0" />
  <path
     sodipodi:type="arc"
     style="fill:#0e44af;fill-opacity:1;fill-rule:nonzero;stroke:#000000;stroke-width:0.96399999000000003;stroke-linecap:square;stroke-linejoin:round;stroke-miterlimit:4;stroke-opacity:0;stroke-dasharray:none;stroke-dashoffset:0"
     id="path4982"
     sodipodi:cx="-348.37234"
     sodipodi:cy="119.07415"
     sodipodi:rx="24.711334"
     sodipodi:ry="25.056145"
     d="m -323.66101,119.07415 a 24.711334,25.056145 0 1 1 -49.42267,0 24.711334,25.056145 0 1 1 49.42267,0 z"
     transform="matrix(1.0548413,0,0,1.0449123,555.16876,-23.048107)" />
  <path
     sodipodi:type="arc"
     style="fill:#fcdd04;fill-opacity:1;fill-rule:nonzero;stroke:#000000;stroke-width:0.96399999000000003;stroke-linecap:square;stroke-linejoin:round;stroke-miterlimit:4;stroke-opacity:0;stroke-dasharray:none;stroke-dashoffset:0"
     id="path4982-6"
     sodipodi:cx="-348.37234"
     sodipodi:cy="119.07415"
     sodipodi:rx="24.711334"
     sodipodi:ry="25.056145"
     d="m -323.66101,119.07415 a 24.711334,25.056145 0 1 1 -49.42267,0 24.711334,25.056145 0 1 1 49.42267,0 z"
     transform="matrix(1.0548413,0,0,1.0449123,397.36101,-23.048103)" />
  <path
     sodipodi:type="arc"
     style="fill:#0e44af;fill-opacity:1;fill-rule:nonzero;stroke:#000000;stroke-width:0.96399999000000003;stroke-linecap:square;stroke-linejoin:round;stroke-miterlimit:4;stroke-opacity:0;stroke-dasharray:none;stroke-dashoffset:0"
     id="path4982-7"
     sodipodi:cx="-348.37234"
     sodipodi:cy="119.07415"
     sodipodi:rx="24.711334"
     sodipodi:ry="25.056145"
     d="m -323.66101,119.07415 a 24.711334,25.056145 0 1 1 -49.42267,0 24.711334,25.056145 0 1 1 49.42267,0 z"
     transform="matrix(1.0548413,0,0,1.0449123,476.89703,49.591727)" />
  <path
     sodipodi:type="arc"
     style="fill:#fcdd04;fill-opacity:1;fill-rule:evenodd;stroke:none"
     id="path3046"
     sodipodi:cx="29.664402"
     sodipodi:cy="125.48735"
     sodipodi:rx="7.7208719"
     sodipodi:ry="4.8763404"
     d="m 37.385274,125.48735 a 7.7208719,4.8763404 0 1 1 -15.441744,0 7.7208719,4.8763404 0 1 1 15.441744,0 z"
     transform="matrix(0.74261503,0.66971853,-0.66971853,0.74261503,90.701107,73.7111)"
     inkscape:transform-center-y="4.5512508" />
  <path
     sodipodi:type="arc"
     style="fill:#0e44af;fill-opacity:1;fill-rule:evenodd;stroke:none"
     id="path3046-1"
     sodipodi:cx="29.664402"
     sodipodi:cy="125.48735"
     sodipodi:rx="7.7208719"
     sodipodi:ry="4.8763404"
     d="m 37.385274,125.48735 a 7.7208719,4.8763404 0 1 1 -15.441744,0 7.7208719,4.8763404 0 1 1 15.441744,0 z"
     transform="matrix(-0.74261503,0.66971853,0.66971853,0.74261503,127.2934,73.748847)"
     inkscape:transform-center-y="4.5512508" />
  <path
     style="fill:#fcdd04;fill-opacity:1"
     d="m 109.66787,193.48751 c -0.0345,-3.90638 -0.0626,-15.78368 -0.0626,-26.39399 l -7e-5,-19.29146 -1.20169,0.0638 c -9.345462,0.49593 -17.63105,5.49344 -22.29291,13.44612 -1.54153,2.62972 -2.66317,5.84601 -3.19242,9.15437 -0.30481,1.90536 -0.30392,5.59122 0.002,7.48583 0.51047,3.16331 1.35117,5.67387 2.82358,8.43207 1.90742,3.57302 4.6838,6.71102 8.074778,9.12648 3.38104,2.40833 7.515902,4.08287 11.639882,4.71392 1.1146,0.17055 3.21601,0.36543 3.94056,0.36543 l 0.3317,0 -0.0626,-7.10254 z m 26.50827,-12.77703 c 0.004,-0.0951 -0.0182,-0.14834 -0.0496,-0.11838 -0.0314,0.0299 -0.0347,0.10776 -0.007,0.17287 0.0301,0.072 0.0524,0.0506 0.057,-0.0545 z m 0.1885,-0.81171 c 0.004,-0.0951 -0.0182,-0.14835 -0.0496,-0.11838 -0.0314,0.0299 -0.0347,0.10776 -0.007,0.17287 0.0301,0.072 0.0524,0.0506 0.057,-0.0545 z m 0.0942,-0.45096 c 0.004,-0.0951 -0.0182,-0.14834 -0.0496,-0.11837 -0.0314,0.0299 -0.0347,0.10776 -0.007,0.17286 0.0301,0.072 0.0524,0.0506 0.057,-0.0545 z m 0.0942,-0.45095 c 0.004,-0.0951 -0.0182,-0.14834 -0.0496,-0.11838 -0.0314,0.0299 -0.0347,0.10776 -0.007,0.17287 0.0301,0.072 0.0524,0.0506 0.057,-0.0545 z m -1.22069,-13.8969 c 0,-0.0496 -0.0411,-0.15107 -0.0914,-0.22548 -0.0502,-0.0744 -0.0914,-0.0947 -0.0914,-0.0451 0,0.0496 0.041,0.15107 0.0914,0.22548 0.0502,0.0744 0.0914,0.0947 0.0914,0.0452 z m -0.5655,-1.35286 c 0,-0.0496 -0.041,-0.15107 -0.0914,-0.22548 -0.0502,-0.0744 -0.0914,-0.0947 -0.0914,-0.0452 0,0.0496 0.0411,0.15107 0.0914,0.22548 0.0502,0.0744 0.0914,0.0947 0.0914,0.0452 z m -0.3741,-0.79869 c 0,-0.0981 -0.75075,-1.50118 -0.80323,-1.50118 -0.0422,0 0.67872,1.43395 0.76705,1.52573 0.0199,0.0207 0.0362,0.01 0.0362,-0.0246 z M 121.4806,150.35375 c -0.0777,-0.0481 -0.18378,-0.0874 -0.23563,-0.0874 -0.0518,0 -0.0306,0.0393 0.0471,0.0874 0.0777,0.0481 0.18378,0.0874 0.23563,0.0874 0.0519,0 0.0306,-0.0393 -0.0471,-0.0874 z m -1.03674,-0.45094 c -0.0777,-0.0481 -0.18379,-0.0874 -0.23563,-0.0874 -0.0519,0 -0.0306,0.0393 0.0471,0.0874 0.0777,0.0481 0.18379,0.0874 0.23562,0.0874 0.0518,0 0.0306,-0.0393 -0.0471,-0.0874 z m -3.04153,-1.04659 c -0.0314,-0.0299 -0.11261,-0.0331 -0.18064,-0.007 -0.0752,0.0288 -0.0529,0.0502 0.057,0.0545 0.0993,0.004 0.15502,-0.0174 0.1237,-0.0474 z m -0.65974,-0.18039 c -0.0314,-0.0299 -0.11261,-0.0331 -0.18065,-0.007 -0.0752,0.0288 -0.0529,0.0502 0.057,0.0545 0.0993,0.004 0.15502,-0.0175 0.1237,-0.0474 z m -0.37701,-0.0902 c -0.0314,-0.0299 -0.11261,-0.0331 -0.18064,-0.007 -0.0752,0.0288 -0.0529,0.0502 0.057,0.0545 0.0993,0.004 0.15504,-0.0174 0.12372,-0.0474 z m -0.47124,-0.0902 c -0.0314,-0.0299 -0.1126,-0.0331 -0.18065,-0.008 -0.0752,0.0288 -0.0529,0.0502 0.057,0.0545 0.0993,0.004 0.15502,-0.0174 0.12371,-0.0474 z m -0.37699,-0.0902 c -0.0314,-0.0299 -0.11262,-0.0331 -0.18065,-0.007 -0.0752,0.0288 -0.0529,0.0502 0.057,0.0545 0.0993,0.004 0.15502,-0.0174 0.1237,-0.0474 z m -0.47126,-0.0902 c -0.0314,-0.0299 -0.1126,-0.0331 -0.18064,-0.007 -0.0752,0.0288 -0.0529,0.0502 0.057,0.0545 0.0993,0.004 0.15502,-0.0174 0.1237,-0.0474 z m -0.5164,-0.0954 c -0.0649,-0.025 -0.17084,-0.025 -0.23563,0 -0.0649,0.025 -0.0118,0.0455 0.11781,0.0455 0.12959,0 0.18261,-0.0205 0.11782,-0.0455 z m -0.56551,-0.0902 c -0.0649,-0.025 -0.17082,-0.025 -0.23561,0 -0.0649,0.025 -0.0118,0.0455 0.1178,0.0455 0.1296,0 0.18261,-0.0204 0.11781,-0.0455 z m -0.65795,-0.0896 c -0.0638,-0.0247 -0.19104,-0.0262 -0.28274,-0.003 -0.0917,0.0229 -0.0395,0.043 0.11601,0.0449 0.15551,0.002 0.23053,-0.0169 0.16673,-0.0416 z m -0.80292,-0.0932 c -0.0907,-0.0227 -0.23915,-0.0227 -0.32987,0 -0.0907,0.0227 -0.0165,0.0412 0.16493,0.0412 0.18143,0 0.25566,-0.0185 0.16494,-0.0412 z m -1.36452,-0.0931 c -0.16731,-0.0199 -0.46419,-0.0202 -0.65974,-6.6e-4 -0.19555,0.0195 -0.0587,0.0358 0.30421,0.0362 0.36286,3.5e-4 0.52286,-0.0155 0.35553,-0.0355 z"
     id="path3089"
     inkscape:connector-curvature="0" />
</svg>
