<svg width="1000" height="600" viewBox="0 0 1000 600" fill="none" xmlns="http://www.w3.org/2000/svg">
<g clip-path="url(#clip0_826_141)">
<path fill-rule="evenodd" clip-rule="evenodd" d="M0 0H1000V600H0V0Z" fill="white" stroke="white"/>
<path d="M1000 0H0L1000 255V0Z" fill="#004697" stroke="#00007A"/>
<path d="M1000 255L0 0L1000 345V255Z" fill="#6AA428"/>
<path d="M688.718 371.83C685.332 371.83 683.933 374.99 683.933 377.969C683.933 380.815 685.107 384.154 688.446 384.154C691.833 384.154 693.234 380.995 693.234 378.013C693.234 375.172 692.06 371.83 688.718 371.83ZM688.446 402.347C686.777 402.347 682.939 401.987 681.361 401.353L680.954 399.324C683.122 399.819 685.287 400.044 687.544 400.044C690.254 400.044 695.263 399.864 695.263 396.118C695.263 390.068 681.497 395.032 681.497 389.708C681.497 388.039 682.939 386.006 684.205 385.012C684.113 384.924 684.025 384.832 683.933 384.741C681.406 382.936 680.007 381.446 680.007 378.104C680.007 373.229 684.476 370.294 688.945 370.294C689.847 370.294 690.841 370.612 691.561 370.612H697.838V372.642L694.77 372.19C696.393 373.591 697.115 375.712 697.115 377.789C697.115 382.891 692.871 385.688 688.131 385.688C687.408 385.688 686.688 385.644 685.966 385.644C685.467 386.186 684.565 387.225 684.565 387.991C684.565 391.558 698.605 387.225 698.605 395.124C698.605 400.631 692.962 402.303 688.446 402.347Z" fill="#004697"/>
<path d="M711.289 371.784C707.997 371.784 706.278 375.486 706.145 378.33H715.442C715.442 378.33 715.489 377.61 715.489 377.519C715.489 374.811 714.451 371.784 711.289 371.784ZM706.145 379.819C706.098 380.453 706.054 381.129 706.054 381.763C706.054 387.087 708.31 390.069 713.773 390.069C715.265 390.069 716.796 389.889 718.286 389.615L717.746 391.647C715.805 392.054 713.773 392.326 711.832 392.326C705.558 392.326 702.172 388.037 702.172 381.987C702.172 376.118 705.287 370.295 711.832 370.295C717.566 370.295 719.643 374.539 719.643 379.686V379.819H706.145Z" fill="#004697"/>
<path d="M749.889 391.874V378.105C749.889 375.397 748.804 372.507 745.645 372.507C744.111 372.507 742.17 374.176 741.176 375.306V391.874H737.519V378.105C737.519 375.397 736.436 372.507 733.277 372.507C731.696 372.507 729.799 374.088 728.808 375.262V391.874H725.148V370.973L728.808 370.206V373.185C730.793 371.38 732.416 370.295 735.218 370.295C737.654 370.295 739.687 371.244 740.589 373.636C742.486 371.649 744.742 370.295 747.541 370.295C751.695 370.295 753.544 373.365 753.544 377.203V391.874H749.889Z" fill="#004697"/>
<path d="M768.351 371.784C765.059 371.784 763.34 375.486 763.207 378.33H772.504C772.504 378.33 772.551 377.61 772.551 377.519C772.551 374.811 771.513 371.784 768.351 371.784ZM763.207 379.819C763.16 380.453 763.116 381.129 763.116 381.763C763.116 387.087 765.372 390.069 770.835 390.069C772.327 390.069 773.858 389.889 775.348 389.615L774.808 391.647C772.867 392.054 770.835 392.326 768.894 392.326C762.62 392.326 759.234 388.037 759.234 381.987C759.234 376.118 762.349 370.295 768.894 370.295C774.628 370.295 776.705 374.539 776.705 379.686V379.819H763.207Z" fill="#004697"/>
<path d="M789.027 371.784C785.735 371.784 784.016 375.486 783.883 378.33H793.183C793.183 378.33 793.227 377.61 793.227 377.519C793.227 374.811 792.189 371.784 789.027 371.784ZM783.883 379.819C783.836 380.453 783.791 381.129 783.791 381.763C783.791 387.087 786.048 390.069 791.511 390.069C793.003 390.069 794.534 389.889 796.024 389.615L795.484 391.647C793.543 392.054 791.511 392.326 789.57 392.326C783.296 392.326 779.91 388.037 779.91 381.987C779.91 376.118 783.024 370.295 789.57 370.295C795.304 370.295 797.38 374.539 797.38 379.686V379.819H783.883Z" fill="#004697"/>
<path d="M816.206 391.874V378.105C816.206 375.442 815.121 372.507 811.962 372.507C810.201 372.507 807.9 374.043 806.635 375.262V391.874H802.98V370.973L806.635 370.206V373.138C808.664 371.289 811.103 370.295 813.856 370.295C818.011 370.295 819.861 373.365 819.861 377.203V391.874H816.206Z" fill="#004697"/>
<path d="M836.923 391.874C835.525 392.145 834.035 392.325 832.634 392.325C828.888 392.325 827.626 390.384 827.626 386.818V372.1H825.142V370.61H827.626V365.554L831.28 364.788V370.61H836.02V372.1H831.28V385.871C831.28 388.759 831.779 390.069 834.846 390.069C835.708 390.069 836.607 389.977 837.466 389.842L836.923 391.874Z" fill="#004697"/>
<path d="M848.706 371.784C845.414 371.784 843.695 375.486 843.562 378.33H852.862C852.862 378.33 852.906 377.61 852.906 377.519C852.906 374.811 851.868 371.784 848.706 371.784ZM843.562 379.819C843.515 380.453 843.471 381.129 843.471 381.763C843.471 387.087 845.727 390.069 851.19 390.069C852.682 390.069 854.213 389.889 855.703 389.615L855.163 391.647C853.222 392.054 851.19 392.326 849.249 392.326C842.975 392.326 839.589 388.037 839.589 381.987C839.589 376.118 842.704 370.295 849.249 370.295C854.983 370.295 857.06 374.539 857.06 379.686V379.819H843.562Z" fill="#004697"/>
<path d="M202.926 423.159C188.98 423.159 186.444 446.441 186.444 456.699C186.444 466.381 188.864 489.664 202.234 489.664C215.721 489.664 218.141 465.576 218.141 455.777C218.141 446.095 216.413 423.159 202.926 423.159ZM201.658 495.658C180.796 495.658 171.114 476.064 171.114 457.391C171.114 438.373 181.142 417.051 202.926 417.164C224.481 417.164 233.585 436.069 233.585 455.201C233.585 474.796 224.135 495.542 201.658 495.658Z" fill="#004697"/>
<path d="M270.699 494.159L270.582 488.97C266.435 492.545 261.246 495.195 255.485 495.195C244.534 495.081 242.46 481.827 242.46 473.413V441.141L255.831 438.375V472.604C255.831 476.871 256.29 486.207 262.401 486.321C265.626 486.321 268.509 484.247 270.582 481.941V441.141L284.069 438.375V494.159H270.699Z" fill="#004697"/>
<path d="M324.409 494.159V447.135C322.219 445.75 319.796 444.945 317.146 444.945C308.732 445.058 307.464 460.619 307.464 466.613C307.58 473.526 308.848 489.549 318.414 489.549C320.142 489.549 321.986 489.433 323.6 488.743L322.332 494.275C319.682 495.194 316.224 495.541 313.458 495.541C298.707 495.657 293.058 481.021 293.058 468.224C293.058 455.316 299.512 438.604 314.726 438.721C318.068 438.721 321.526 439.643 324.525 441.37V412.902L338.009 410.134V494.159H324.409Z" fill="#004697"/>
<path d="M375.352 457.276C375.352 451.628 374.66 444.365 368.552 444.365C361.982 444.365 360.138 454.51 360.024 459.466H375.352V457.276ZM360.254 464.309V465.231C360.254 476.294 361.982 488.28 376.161 488.28C379.616 488.28 383.074 487.472 386.416 486.32L384.805 492.89C379.732 494.734 374.317 495.426 369.014 495.426C353.108 495.54 345.962 483.324 345.846 468.686C345.846 454.164 352.992 438.833 369.474 438.833C384.458 438.833 389.068 451.511 389.068 464.309H360.254Z" fill="#004697"/>
<path d="M425.604 419.01H438.857V494.159H425.604V419.01Z" fill="#004697"/>
<path d="M447.039 520.324L444.159 515.598C454.531 514.792 455.799 501.536 455.799 493.467V419.011H469.053V490.818C469.053 506.032 464.789 520.208 447.039 520.324Z" fill="#004697"/>
<path d="M495.562 495.314C490.952 495.314 486.455 494.043 482.191 492.431L480.577 485.629C484.611 487.705 489.108 489.203 493.718 489.203C498.327 489.203 502.937 485.861 502.937 481.021C503.054 469.839 480.923 470.414 480.807 455.663C480.807 445.634 489.337 438.721 499.02 438.721C502.708 438.721 506.971 439.989 510.084 441.717L511.811 448.633C508.24 446.789 504.435 444.945 500.285 444.945C496.597 444.945 493.142 447.478 493.142 451.399C493.025 461.195 515.386 461.081 515.386 477.56C515.386 489.433 506.396 495.427 495.562 495.314Z" fill="#004697"/>
<path d="M536.25 495.314C531.64 495.314 527.143 494.043 522.879 492.431L521.265 485.629C525.299 487.705 529.796 489.203 534.406 489.203C539.015 489.203 543.625 485.861 543.625 481.021C543.742 469.839 521.611 470.414 521.495 455.663C521.495 445.634 530.025 438.721 539.708 438.721C543.396 438.721 547.659 439.989 550.774 441.717L552.499 448.633C548.93 446.789 545.123 444.945 540.973 444.945C537.285 444.945 533.83 447.478 533.83 451.399C533.713 461.195 556.074 461.081 556.074 477.56C556.074 489.433 547.086 495.427 536.25 495.314Z" fill="#004697"/>
<path d="M590.417 457.276C590.417 451.628 589.725 444.365 583.619 444.365C577.049 444.365 575.205 454.51 575.092 459.466H590.417V457.276ZM575.319 464.309V465.231C575.319 476.294 577.049 488.28 591.228 488.28C594.683 488.28 598.139 487.472 601.481 486.32L599.869 492.89C594.797 494.734 589.384 495.426 584.079 495.426C568.175 495.54 561.027 483.324 560.913 468.686C560.913 454.164 568.056 438.833 584.539 438.833C599.523 438.833 604.136 451.511 604.136 464.309H575.319Z" fill="#004697"/>
<path d="M612.777 494.159V412.902L626.263 410.134V494.159H612.777Z" fill="#004697"/>
<path d="M650.004 495.314C645.397 495.314 640.898 494.043 636.636 492.431L635.02 485.629C639.054 487.705 643.553 489.203 648.16 489.203C652.773 489.203 657.38 485.861 657.38 481.021C657.499 469.839 635.366 470.414 635.252 455.663C635.252 445.634 643.78 438.721 653.465 438.721C657.153 438.721 661.414 439.989 664.529 441.717L666.254 448.633C662.685 446.789 658.878 444.945 654.73 444.945C651.042 444.945 647.587 447.478 647.587 451.399C647.468 461.195 669.828 461.081 669.828 477.56C669.828 489.433 660.841 495.427 650.004 495.314Z" fill="#004697"/>
<path d="M705.098 493.004C700.485 494.159 695.759 495.195 691.038 495.195C682.159 495.081 680.088 488.511 680.088 481.021V444.599H674.437V439.873H680.088V427.308L693.455 424.542V439.873H704.406V444.599H693.455V478.482C693.455 483.785 694.148 487.126 700.258 487.245C702.329 487.245 704.292 486.899 706.25 486.321L705.098 493.004Z" fill="#004697"/>
<path d="M740.826 453.703C739.561 452.205 737.484 450.591 735.294 450.591C730.914 450.591 727.918 456.239 726.42 459.697V494.16H713.166L713.053 441.138L726.42 438.372V450.015C728.264 445.751 732.298 438.719 737.484 438.835C739.907 438.835 742.21 439.757 744.168 441.025L740.826 453.703Z" fill="#004697"/>
<path d="M774.597 457.276C774.597 451.628 773.905 444.365 767.794 444.365C761.224 444.365 759.38 454.51 759.267 459.466H774.597V457.276ZM759.499 464.309V465.231C759.499 476.294 761.224 488.28 775.403 488.28C778.858 488.28 782.319 487.472 785.661 486.32L784.049 492.89C778.977 494.734 773.559 495.426 768.259 495.426C752.35 495.54 745.207 483.324 745.088 468.686C745.088 454.164 752.237 438.833 768.719 438.833C783.703 438.833 788.311 451.511 788.311 464.309H759.499Z" fill="#004697"/>
<path d="M820.811 457.276C820.811 451.628 820.119 444.365 814.013 444.365C807.443 444.365 805.599 454.51 805.486 459.466H820.811V457.276ZM805.713 464.309V465.231C805.713 476.294 807.443 488.28 821.622 488.28C825.077 488.28 828.533 487.472 831.875 486.32L830.263 492.89C825.191 494.734 819.778 495.426 814.473 495.426C798.57 495.54 791.421 483.324 791.307 468.686C791.307 454.164 798.45 438.833 814.933 438.833C829.917 438.833 834.53 451.511 834.53 464.309H805.713Z" fill="#004697"/>
<path d="M875.325 495.541L856.658 464.536L877.402 439.873H886.275L868.182 461.887L888.239 493.004L875.325 495.541ZM856.539 494.159H843.172V412.902L856.658 410.134L856.539 494.159Z" fill="#004697"/>
<path d="M766.566 517.78C771.076 520.252 775.825 521.952 780.914 522.406L780.858 523.309C787.331 524.505 794.084 528.071 800.879 525.023C807.41 525.313 813.405 526.562 819.438 528.104C817.209 528.517 814.95 528.63 812.776 528.135C817.948 530.679 824.981 531.061 831.26 531.98L832.429 533.642C835.433 534.339 838.691 534.411 841.934 534.331C841.662 534.81 840.97 534.442 840.688 534.78C848.808 537.579 858.194 537.235 866.661 538.794L866.506 537.46C871.852 540.14 878.143 539.705 884.118 540.807C889.949 537.875 896.151 540.901 902.56 540.154L906.708 539.517C906.642 540.273 906.387 540.907 906.456 541.494C913.76 540.043 920.001 542.017 927.432 540.245C926.878 539.711 925.209 539.304 923.894 539.163C935.068 540.256 947.882 541.458 961.044 538.717L978 536.433C959.848 540.962 940.041 543.875 920.543 545.254C856.882 551.046 798.351 540.923 743.364 519.438L717.825 511.262C720.66 510.448 741.096 509.543 741.096 509.543C754.818 514.388 751.989 515.426 766.566 517.78Z" fill="#004697"/>
<path d="M29.6363 458.257C29.4757 458.476 28.778 459.21 29.7719 458.623C30.1485 458.401 37.4441 453.678 37.4441 453.678L40.7417 449.273L29.6363 458.257Z" fill="#6AA428"/>
<path d="M60.6262 432.065C58.7878 433.211 49.5984 440.067 52.8406 439.472C54.5046 439.17 54.5323 439.629 54.1197 439.967C53.6297 440.369 65.1171 430.534 65.1171 430.534C65.1171 430.534 57.2788 437.37 53.422 438.993C52.4834 439.386 52.6052 438.968 53.1064 438.461C54.0643 437.489 58.0292 434.031 60.6262 432.065Z" fill="#6AA428"/>
<path d="M78.5977 420.399C78.0965 421.139 76.3135 422.626 75.84 423.32C75.4801 423.855 75.7459 423.686 76.1861 423.536C76.6291 423.39 81.156 420.236 81.6959 419.868C82.2912 419.464 83.3876 418.669 81.5547 419.231C79.7052 419.796 78.5977 420.399 78.5977 420.399Z" fill="#6AA428"/>
<path d="M461.181 385.583L459.725 385.132C460.168 385.464 460.666 385.55 461.181 385.583Z" fill="#004697"/>
<path d="M425.393 367.414L425.116 367.965C415.702 366.029 405.458 366.306 397.152 361.876C382.201 362.981 367.527 359.107 352.299 358.554C353.96 358 356.175 358.828 357.559 358C324.334 358 289.725 358.554 257.331 362.707C243.211 364.645 228.536 366.306 215.523 370.182C176.484 378.489 138.829 389.284 104.497 408.111C130.8 396.206 158.764 388.73 186.175 379.873C218.015 374.612 248.194 366.029 281.142 364.365L282.527 365.75C276.158 366.86 269.237 367.134 262.592 367.965L268.406 368.244L250.686 371.287C273.113 367.414 296.647 366.58 320.458 365.75C307.722 364.922 294.986 367.134 282.803 364.922C293.601 363.261 304.953 362.981 316.582 362.707C339.839 363.261 363.373 363.537 385.246 367.691L383.585 368.244C388.015 366.86 393.829 367.134 397.983 368.518L396.598 369.903C408.504 370.459 419.856 373.782 430.654 376.271C429.546 376.551 428.439 377.104 427.054 376.825C432.869 377.655 438.129 379.319 443.113 381.808L443.667 380.704C445.605 380.424 447.263 380.978 448.927 381.257C453.08 384.577 458.895 383.193 463.602 384.857V385.687C462.771 385.521 461.951 385.629 461.182 385.582L474.951 389.84L475.23 389.01C478.276 388.73 480.488 390.668 482.983 391.779L480.488 394.268L459.448 389.564C465.54 391.779 473.292 391.499 478.276 396.206L477.999 396.485C477.719 396.206 477.168 396.206 476.891 396.206L532.543 415.587L530.325 413.375C534.204 414.482 537.804 416.697 541.126 419.186C548.145 419.327 554.169 421.822 559.917 425.003C563.384 423.168 567.673 421.343 572.435 419.851C525.732 396.801 477.537 377.442 425.393 367.414Z" fill="#6AA428"/>
<path d="M245.979 369.904L242.379 371.011L247.64 369.904H245.979Z" fill="#004697"/>
<path d="M257.885 372.397C253.178 372.397 248.471 373.502 244.042 374.058C248.748 374.612 253.455 373.227 257.885 372.397Z" fill="#004697"/>
</g>
<defs>
<clipPath id="clip0_826_141">
<rect width="1000" height="600" fill="white"/>
</clipPath>
</defs>
</svg>
