<?xml version="1.0" encoding="UTF-8" standalone="no"?>
<!-- Created with Inkscape (http://www.inkscape.org/) -->

<svg
   xmlns:dc="http://purl.org/dc/elements/1.1/"
   xmlns:cc="http://creativecommons.org/ns#"
   xmlns:rdf="http://www.w3.org/1999/02/22-rdf-syntax-ns#"
   xmlns:svg="http://www.w3.org/2000/svg"
   xmlns="http://www.w3.org/2000/svg"
   xmlns:sodipodi="http://sodipodi.sourceforge.net/DTD/sodipodi-0.dtd"
   xmlns:inkscape="http://www.inkscape.org/namespaces/inkscape"
   width="556.42859"
   height="372.14285"
   id="svg5007"
   version="1.1"
   inkscape:version="0.48.4 r9939"
   sodipodi:docname="Dreumel vlag.svg">
  <defs
     id="defs5009" />
  <sodipodi:namedview
     id="base"
     pagecolor="#ffffff"
     bordercolor="#666666"
     borderopacity="1.0"
     inkscape:pageopacity="0.0"
     inkscape:pageshadow="2"
     inkscape:zoom="0.7"
     inkscape:cx="820.39921"
     inkscape:cy="234.38818"
     inkscape:document-units="px"
     inkscape:current-layer="layer1"
     showgrid="false"
     fit-margin-top="0"
     fit-margin-left="0"
     fit-margin-right="0"
     fit-margin-bottom="0"
     inkscape:window-width="1600"
     inkscape:window-height="837"
     inkscape:window-x="-8"
     inkscape:window-y="-8"
     inkscape:window-maximized="1" />
  <metadata
     id="metadata5012">
    <rdf:RDF>
      <cc:Work
         rdf:about="">
        <dc:format>image/svg+xml</dc:format>
        <dc:type
           rdf:resource="http://purl.org/dc/dcmitype/StillImage" />
        <dc:title></dc:title>
      </cc:Work>
    </rdf:RDF>
  </metadata>
  <g
     inkscape:label="Laag 1"
     inkscape:groupmode="layer"
     id="layer1"
     transform="translate(-97.142838,-296.64792)">
    <rect
       style="fill:#fcdd0b;fill-opacity:1;fill-rule:evenodd;stroke:none"
       id="rect2996"
       width="556.42859"
       height="372.14285"
       x="97.142838"
       y="296.64792" />
    <path
       style="fill:#d40000;fill-opacity:1"
       d="m 286.86899,645.23486 c -2.17276,-2.39034 -4.00511,-3.56177 -5.57163,-3.56177 -1.41157,0 -3.60687,-1.20558 -5.55435,-3.05042 -2.52222,-2.38916 -3.22027,-3.75026 -3.22027,-6.27882 0,-3.79419 -1.672,-4.6915 -6.94902,-3.72929 -7.24949,1.32191 -12.94604,5.73139 -15.54465,12.03254 -0.84745,2.05484 -1.76182,2.83741 -3.31513,2.83741 -1.80215,0 -2.14496,-0.45323 -2.14496,-2.83659 0,-3.93837 2.68104,-7.90692 9.83604,-14.55969 6.24709,-5.80854 12.78264,-9.77457 16.10738,-9.77457 2.24107,0 6.1975,-4.51579 8.48409,-9.68362 1.65034,-3.72973 4.73697,-22.48308 4.17926,-25.39164 -0.29723,-1.55037 -11.55473,13.18199 -11.55473,15.12131 0,0.56337 0.61908,2.22678 1.37574,3.69641 l 1.37574,2.67216 -4.53178,0 c -4.27878,0 -4.53186,0.1314 -4.53186,2.35372 0,8.75555 -13.21103,18.73374 -30.60507,23.1158 -13.41082,3.37855 -25.02032,1.21318 -29.82411,-5.56275 -4.11872,-5.80961 -3.0718,-18.63339 1.88929,-23.14283 1.62568,-1.47772 2.41632,-1.54242 7.71256,-0.63122 7.03668,1.21062 9.34766,2.99579 9.34766,7.22079 0,3.60521 -2.91801,6.78925 -7.42618,8.10322 l -2.94378,0.85798 2.53104,1.67895 c 7.6395,5.06758 20.51192,0.87329 27.55627,-8.97892 l 2.84245,-3.97543 -4.88941,-1.09903 -4.88941,-1.09902 4.41567,-3.50573 c 5.24917,-4.16746 6.73598,-6.35428 7.57457,-11.14047 0.91774,-5.23834 5.78923,-9.70032 13.32695,-12.20679 3.34769,-1.11313 6.0867,-2.34147 6.0867,-2.72965 0,-0.38809 -2.04622,-0.94908 -4.54711,-1.24655 -2.9792,-0.35443 -6.01082,-1.53972 -8.7919,-3.43749 -4.82212,-3.29055 -12.81122,-4.80779 -12.81122,-2.43305 0,0.9469 0.75707,1.20529 2.6948,0.91968 3.16504,-0.4666 3.94267,0.82664 2.87839,4.78657 -1.59649,5.94014 -11.15332,6.25325 -14.13441,0.46302 -2.22956,-4.33049 -1.77614,-8.75101 1.09051,-10.6312 2.08506,-1.36754 3.92498,-1.54301 12.39882,-1.18223 5.47274,0.233 14.15551,0.42441 19.29496,0.42547 8.55835,0 9.48048,-0.1668 10.96087,-2.00301 1.48385,-1.84058 3.3839,-10.67668 2.48911,-11.57544 -0.21166,-0.21262 -2.7869,1.06629 -5.72273,2.84192 -8.41496,5.08951 -12.86259,4.04633 -14.88327,-3.49067 -0.8613,-3.21281 -0.74797,-3.80732 1.10285,-5.78607 1.57109,-1.67978 2.82167,-2.1412 5.247,-1.93608 2.85326,0.24124 3.27103,0.62226 4.01956,3.6656 0.87346,3.55145 2.98738,4.50489 4.88807,2.20459 1.45555,-1.76148 2.08331,-10.16987 1.28735,-17.24129 l -0.69865,-6.20608 -10.36992,7.89632 c -5.70348,4.34298 -10.47092,7.98437 -10.59432,8.09194 -0.86034,0.75012 -1.59025,8.72857 -0.95617,10.45035 1.32836,3.60656 0.46636,3.64894 -5.05691,0.2487 l -5.33572,-3.28469 -4.60239,4.96631 c -5.97494,6.44731 -12.77798,15.60447 -17.59964,23.68972 l -3.84864,6.45371 1.90444,1.54897 c 1.04743,0.85183 1.90444,1.94548 1.90444,2.43024 0,1.44856 4.13954,1.79214 5.91166,0.49062 2.94789,-2.16503 4.56304,-1.38386 7.03544,3.40256 1.31029,2.5366 2.38233,5.44332 2.38233,6.45938 0,1.55885 -3.22249,7.94814 -4.00871,7.94814 -0.14016,0 -0.20846,-1.52838 -0.15194,-3.39637 0.0975,-3.2177 -0.0397,-3.39007 -2.6023,-3.27679 -1.48787,0.0658 -3.59851,0.41381 -4.69032,0.77342 -1.482,0.4881 -2.5104,0.0864 -4.0578,-1.58495 -5.90594,-6.37912 -13.03955,-7.80802 -18.41642,-3.6889 -1.73158,1.32652 -4.44352,2.46366 -6.02653,2.52696 -1.58305,0.0632 -3.99656,0.86035 -5.36333,1.77141 -2.11111,1.40711 -2.88139,1.49148 -5.11848,0.56075 -5.6899,-2.36718 -8.1567,0.97102 -5.35766,7.25043 l 1.70423,3.82325 -2.01384,-1.34303 c -3.04035,-2.02757 -6.11644,-8.5703 -6.11644,-13.00952 0,-8.11266 3.39863,-11.29506 10.20842,-9.55895 2.50476,0.63858 4.40458,0.56482 6.78022,-0.26299 l 3.30036,-1.15007 -4.66746,-2.37842 c -2.56707,-1.30806 -4.92973,-3.20855 -5.25038,-4.22325 l -0.58301,-1.84494 -2.55349,1.82624 c -4.3541,3.11406 -7.15116,2.20716 -10.88693,-3.52985 -1.20759,-1.85442 -1.6671,-2.00214 -3.37425,-1.08449 -1.08695,0.58433 -2.77318,2.57815 -3.74713,4.43073 l -1.77087,3.36838 -0.0402,-4.73398 c -0.0356,-4.20741 0.23604,-4.90566 2.43992,-6.27654 1.36387,-0.84839 3.73914,-2.71396 5.27837,-4.14571 2.52499,-2.34859 3.3185,-2.57617 8.11559,-2.32757 4.62437,0.23969 5.31698,0.51159 5.31698,2.087 0,1.24825 2.05,3.16854 6.59424,6.17697 l 6.59425,4.36565 8.14229,-0.6398 8.14229,-0.63979 6.32801,-8.60566 c 4.81727,-6.55125 6.9565,-10.46773 8.96102,-16.40559 2.94502,-8.72398 3.27061,-7.52479 -3.3119,-12.19856 -1.30263,-0.92487 -3.14616,-2.96271 -4.09674,-4.52848 -5.44231,-8.96459 2.65251,-18.4616 11.72114,-13.75145 6.00209,3.11744 3.40971,9.90597 -3.15133,8.2521 -1.99602,-0.50321 -2.18925,-0.28038 -2.18925,2.52434 0,3.98788 1.81674,5.47848 5.76947,4.73369 3.08048,-0.58042 9.48783,-6.51237 9.62425,-8.9102 0.90629,-15.9251 10.18861,-29.04892 23.76688,-33.60272 2.44413,-0.81967 5.5889,-1.49036 6.98842,-1.49036 2.50306,0 2.54453,-0.0868 2.54453,-5.3251 0,-5.2118 -0.0862,-5.39599 -4.05369,-8.66135 -4.53694,-3.73404 -8.47601,-9.14345 -10.54827,-14.48569 l -1.38304,-3.5654 -0.6164,6.28251 c -0.79776,8.13179 -2.98465,20.40567 -4.71054,26.43802 -0.96799,3.38339 -2.21428,5.41207 -4.31218,7.01921 -3.76431,2.88376 -4.31176,2.84356 -3.13433,-0.2302 0.94684,-2.4718 5.52387,-31.01314 6.64482,-41.43555 0.32143,-2.98881 0.80944,-6.65683 1.08442,-8.15131 0.27506,-1.49438 0.27677,-2.50637 0.005,-2.24891 -0.27294,0.25752 -1.3532,4.69165 -2.40058,9.85362 -4.15539,20.48045 -11.70709,38.52199 -19.87354,47.47917 -5.43474,5.96101 -22.6215,16.34055 -22.49219,13.58359 0.0194,-0.40712 1.33787,-1.55541 2.93066,-2.55166 5.72528,-3.58119 17.89595,-33.3392 22.22516,-54.34171 1.53212,-7.43291 1.55382,-8.25103 0.24588,-9.28337 -2.26725,-1.78957 -2.62304,-1.41761 -3.26041,3.40799 -1.76792,13.38594 -10.24397,33.85922 -19.17691,46.32048 -5.57925,7.78299 -7.15713,9.28381 -3.42168,3.25471 7.4659,-12.05041 14.35461,-29.876 17.03976,-44.09327 2.05356,-10.87307 1.67616,-13.63933 -0.81124,-5.94643 -12.63426,39.07364 -30.0427,56.69392 -55.89708,56.57729 l -6.34796,-0.0286 2.32378,-2.00922 c 1.2781,-1.10498 6.72905,-5.47344 12.11317,-9.70754 6.23897,-4.90644 11.7869,-10.23071 15.29706,-14.68058 4.98437,-6.31873 12.37905,-19.54551 14.83131,-26.52859 l 0.95413,-2.7171 -2.47073,3.13711 c -1.35892,1.7253 -5.36227,6.6161 -8.89641,10.86827 -12.94192,15.57168 -38.02122,37.60439 -40.82391,35.86461 -1.70364,-1.05752 0.0762,-3.19775 5.31993,-6.39715 19.86933,-12.12305 56.72781,-59.4779 48.4672,-62.26955 -1.95644,-0.66119 -4.2834,0.38335 -4.27865,1.92059 0.008,2.61443 -11.29911,18.38348 -20.72643,28.90507 -15.17357,16.93477 -27.51822,25.96915 -35.48441,25.96915 -4.15548,0 -7.16271,-2.98344 -6.73451,-6.68115 0.24177,-2.08797 0.7677,-2.39566 4.97684,-2.91166 6.35363,-0.77884 11.31657,-3.90006 20.32303,-12.7812 8.80003,-8.67749 16.88191,-19.30849 21.51945,-28.30693 5.56003,-10.78822 5.5247,-14.98731 -0.0603,-7.17618 -10.73269,15.01064 -23.77769,27.77693 -32.83786,32.13643 -3.0476,1.46639 -3.32428,1.50179 -1.50916,0.19329 15.56455,-11.22067 23.4671,-20.0602 30.17621,-33.7545 l 2.44048,-4.98137 -2.45157,3.16995 c -1.34839,1.74346 -5.79413,6.48974 -9.87941,10.54726 -9.74672,9.68047 -16.95834,13.36491 -25.1355,12.84199 -7.77773,-0.4974 -15.75764,-6.18104 -8.67829,-6.18104 4.67392,0 12.56258,-3.63339 19.707,-9.07681 6.77062,-5.15858 21.11535,-18.99973 19.69098,-18.99973 -0.39473,0 -7.89152,3.09934 -16.65945,6.88748 -14.39109,6.2176 -24.81177,10.32074 -26.21129,10.32074 -1.23381,0 7.35086,-5.23413 21.78735,-13.28389 8.54381,-4.76395 15.86783,-8.9703 16.27563,-9.3473 0.40784,-0.37704 -1.38978,-0.13023 -3.99458,0.5484 -12.21829,3.18332 -34.50963,3.66033 -36.88199,0.78926 -1.2781,-1.54684 1.18399,-2.90091 14.2108,-7.81554 16.26703,-6.13701 22.76827,-10.16682 22.76827,-14.113 0,-1.94737 -3.06801,-1.3267 -14.42776,2.91864 -5.99808,2.24159 -11.36433,4.07558 -11.92494,4.07558 -0.56061,0 2.60328,-1.77539 7.03091,-3.94535 6.96287,-3.4125 18.27132,-11.90269 17.23724,-12.94132 -0.19323,-0.19412 -3.15096,0.97165 -6.57268,2.59055 -5.67452,2.68475 -6.99197,2.94488 -14.98838,2.95921 -8.15882,0.0145 -8.92361,-0.14132 -11.02437,-2.24852 -1.24157,-1.24529 -2.52084,-3.58879 -2.84277,-5.20774 l -0.58546,-2.94347 7.36457,0 c 6.76817,0 18.08248,-1.75485 22.88895,-3.5501 1.09476,-0.40886 -3.8745,-0.53958 -11.09171,-0.2917 -7.1913,0.24695 -12.87223,0.24371 -12.62428,-0.007 0.248,-0.25088 7.12286,-1.56747 15.27743,-2.92566 17.79743,-2.96425 20.05337,-3.64109 14.93022,-4.47941 -11.87164,-1.94253 -14.98892,-2.59617 -20.13645,-4.22209 -7.2288,-2.28335 -12.30128,-5.63801 -13.71752,-9.07216 -0.60799,-1.47428 -0.93049,-2.85625 -0.71657,-3.0711 0.21387,-0.21484 2.23344,0.167 4.48799,0.84849 8.36185,2.52764 30.69646,4.25057 31.80235,2.45329 0.26052,-0.4233 -4.78781,-2.32257 -11.21843,-4.22059 -10.98918,-3.24351 -14.83523,-4.80551 -9.2123,-3.74125 1.36387,0.25814 7.55203,0.70309 13.75142,0.98869 l 11.27168,0.51944 -8.66628,-3.00561 c -15.06841,-5.226 -21.54175,-10.82556 -21.54175,-18.63374 0,-2.05827 0.24592,-3.74228 0.54652,-3.74228 0.30061,0 2.02516,1.16942 3.83234,2.59872 7.00061,5.53673 20.18023,10.52231 26.2377,9.92499 l 3.01024,-0.29684 -4.41456,-2.87069 c -2.42806,-1.57883 -5.63194,-4.17935 -7.11981,-5.77895 l -2.7052,-2.90837 4.61213,3.28527 c 5.42823,3.86663 10.99657,6.00847 15.62066,6.00847 2.6477,0 3.73087,-0.55285 5.32404,-2.71703 2.70862,-3.67977 3.67116,-3.41564 3.10135,0.85094 -0.75296,5.63873 0.25415,7.76308 7.34883,15.50165 10.9006,11.88995 12.64215,18.23329 7.25198,26.41414 -3.26244,4.95168 -4.07539,8.17703 -3.02451,11.9998 1.46561,5.33134 7.60865,6.94036 10.36516,2.71493 1.39957,-2.14541 1.39347,-2.52464 -0.0943,-5.83833 -2.62392,-5.84443 -0.4834,-8.27647 3.63961,-4.1353 6.63097,6.66013 -1.62443,17.60541 -11.30419,14.98744 -4.68122,-1.26607 -5.65318,-2.78878 -6.25305,-9.79598 -0.47,-5.49029 -0.71657,-6.08417 -2.63985,-6.35762 -2.11217,-0.30023 -2.12002,-0.26618 -1.80344,7.85999 0.25475,6.53876 0.69371,8.66964 2.20777,10.71702 4.06376,5.49529 10.3411,8.37585 21.55523,9.89154 2.47979,0.3351 5.52309,0.98729 6.763,1.44919 3.5479,1.32187 7.13953,5.2926 7.75164,8.56992 l 0.56024,2.99946 2.27778,-1.79955 c 2.62313,-2.07242 7.2856,-2.31676 14.90016,-0.78078 6.79972,1.37156 9.48289,0.57644 11.08977,-3.28618 1.52759,-3.6721 1.62651,-6.90631 0.35219,-11.51494 l -0.93095,-3.36683 -4.39212,2.71439 c -6.75981,4.17759 -11.94673,5.63525 -18.55022,5.21292 -4.79058,-0.30643 -6.36093,-0.84311 -9.19262,-3.1419 -4.92437,-3.99761 -6.69987,-7.53186 -6.69987,-13.33648 0,-7.95512 3.76699,-13.11355 11.00613,-15.07143 8.21577,-2.22193 15.27291,2.21738 15.27291,9.60753 0,5.05706 -1.93603,8.12627 -5.9694,9.4633 -2.59935,0.86156 -3.50365,0.77821 -5.44951,-0.50234 -2.16519,-1.42488 -2.29284,-1.87937 -1.77384,-6.31447 0.67141,-5.73793 -0.65769,-7.63251 -4.10795,-5.85567 -3.52762,1.8167 -5.20115,4.6667 -5.22253,8.89393 -0.0171,3.38581 0.47356,4.45161 3.40598,7.39688 6.70102,6.73045 15.2851,5.72698 23.78438,-2.78041 5.84567,-5.85116 7.03206,-9.41995 5.37516,-16.16856 -0.56417,-2.29773 -1.21539,-6.06325 -1.44718,-8.36776 -1.13235,-11.25888 -7.8627,-20.44306 -19.47082,-26.56976 -3.33454,-1.75993 -6.30944,-3.84543 -6.61083,-4.63444 -1.04761,-2.742 -0.50519,-5.37314 1.49641,-7.25891 6.15551,-5.79948 11.5279,-5.28328 24.03954,2.30955 6.98149,4.23682 9.68993,4.44174 11.67177,0.88307 1.54439,-2.77299 0.8475,-6.44902 -1.70946,-9.01721 -2.38751,-2.39803 -0.2462,-2.42915 4.3421,-0.0632 4.33758,2.23674 6.50165,6.05149 6.50165,11.46096 0,3.84432 -0.38567,4.67106 -3.62146,7.76269 l -3.62147,3.46016 3.22051,4.50241 c 2.77355,3.8776 3.13613,4.95405 2.6126,7.75703 -0.68198,3.65107 1.29003,6.80494 4.25473,6.80494 2.11022,0 2.16731,-2.34311 0.0857,-3.51687 -1.5025,-0.84722 -1.50241,-0.919 0,-1.50121 2.75601,-1.06648 5.84198,0.30087 6.48485,2.8733 0.47069,1.88378 -0.0259,3.18124 -2.31016,6.03623 l -2.90974,3.63664 2.03975,12.76726 c 1.12183,7.02196 2.52467,15.19865 3.11734,18.17042 l 1.07767,5.40326 3.18896,-18.53817 3.18911,-18.53812 -2.99468,-3.39898 c -3.46444,-3.93208 -3.68746,-5.41508 -1.19123,-7.92218 2.15451,-2.16406 2.72579,-2.21893 5.01262,-0.48171 1.58375,1.2032 1.60019,1.33247 0.17231,1.35853 -1.7149,0.031 -2.15876,2.27854 -0.63663,3.22336 0.51776,0.32145 1.97866,-0.0982 3.24646,-0.93256 2.05597,-1.35306 2.24375,-1.92751 1.73781,-5.31613 -0.50191,-3.36174 -0.20084,-4.31668 2.61482,-8.29443 1.7501,-2.47243 3.18204,-4.73684 3.18204,-5.03208 0,-0.29519 -0.99496,-0.99209 -2.211,-1.54858 -3.35979,-1.53758 -5.2791,-6.03578 -4.78388,-11.21219 0.56121,-5.86601 3.49954,-8.9741 10.55548,-11.16538 l 2.20804,-0.68576 -2.43346,2.9047 c -3.59542,4.2917 -3.24277,8.59725 0.88269,10.7782 2.25178,1.19037 4.12666,0.66643 7.96209,-2.22498 4.84646,-3.65361 12.40676,-6.67499 16.72572,-6.68431 4.16605,-0.009 9.25437,2.73635 11.05222,5.96296 1.46325,2.62615 -0.97349,6.13202 -6.15667,8.85765 -6.11491,3.21562 -12.51732,8.79464 -15.4532,13.46589 -1.22375,1.94703 -2.97315,6.87193 -3.88752,10.94407 -0.91433,4.07215 -2.15692,8.75692 -2.76127,10.41069 -2.56499,7.01882 0.87761,14.85944 9.00956,20.51968 4.29051,2.98644 10.80163,3.94651 15.71621,2.31739 7.56099,-2.50632 10.34535,-12.06518 5.06057,-17.37317 -1.75079,-1.75849 -3.41434,-2.6092 -4.7341,-2.42099 -1.88444,0.26875 -2.01394,0.67975 -1.75254,5.56279 0.33468,6.2517 -0.6824,7.85995 -4.9707,7.85995 -7.6383,0 -11.32026,-10.25919 -5.87763,-16.37726 5.08749,-5.71895 16.90053,-4.17972 21.50023,2.80137 4.0131,6.09086 2.54273,16.90189 -2.98105,21.91904 -6.57466,5.97162 -18.16805,5.51587 -28.59001,-1.12397 -2.42317,-1.54373 -4.74159,-2.46956 -5.15201,-2.05736 -1.27381,1.27944 -1.93275,10.54354 -0.93395,13.13113 0.51863,1.34381 1.97204,3.1205 3.22974,3.94826 2.12371,1.39761 2.81784,1.39994 9.73389,0.0329 7.48474,-1.47941 11.80024,-1.11065 14.63276,1.25048 0.87817,0.732 1.28199,0.29345 1.71024,-1.85734 0.86371,-4.3375 5.20138,-7.80458 11.20204,-8.95364 22.80854,-4.36773 27.24305,-7.95623 27.24305,-22.04578 0,-6.84103 -0.0729,-7.08585 -2.0289,-6.80684 -1.7942,0.25597 -2.09304,0.96361 -2.58332,6.11788 -0.45883,4.82401 -0.97256,6.18976 -2.98091,7.92485 -5.12162,4.42478 -14.25102,1.67203 -16.56492,-4.99478 -1.48348,-4.27416 2.42746,-11.04026 5.66104,-9.79395 1.76672,0.68091 1.73347,2.79716 -0.0879,5.58914 -1.96235,3.00804 -0.9854,6.5702 2.12792,7.75911 3.31887,1.26738 6.31489,-0.23436 7.85536,-3.93745 1.57945,-3.79666 0.86445,-7.42653 -2.41314,-12.25015 -5.51464,-8.11586 -4.12551,-14.24841 5.72379,-25.26813 8.0763,-9.03608 9.20921,-11.21069 8.68656,-16.67406 -0.41107,-4.29669 -0.40687,-4.30431 1.62734,-2.96558 1.12173,0.73817 2.24314,1.87517 2.49202,2.52659 1.38285,3.6194 11.16172,1.78425 19.36783,-3.63476 5.88521,-3.88637 5.94358,-3.90371 2.42354,-0.72059 -1.98383,1.79402 -5.63582,4.67558 -8.1156,6.40355 l -4.50868,3.14186 4.95951,-0.60003 c 9.33058,-1.12876 16.78165,-4.00347 24.96015,-9.62983 2.07319,-1.42624 4.00063,-2.59315 4.28327,-2.59315 1.05162,0 0.46704,6.52067 -0.80645,8.994 -2.74667,5.33497 -9.16371,9.33732 -21.9561,13.69425 l -7.83347,2.66799 4.95957,-0.42644 c 10.76293,-0.92535 22.97069,-1.54524 22.54331,-1.1447 -0.24795,0.23242 -5.63014,1.96674 -11.9604,3.85405 -6.33022,1.88731 -11.33338,3.60841 -11.11813,3.82456 0.21531,0.2162 4.74145,0.37283 10.05814,0.34808 9.1404,-0.0426 22.40934,-2.0252 25.87004,-3.86548 1.25012,-0.66478 1.57807,-0.47057 1.57807,0.93465 0,2.80791 -4.17409,7.05635 -9.34831,9.51492 -4.92331,2.33934 -20.70654,5.98319 -25.91581,5.98319 -6.60422,0 -0.51073,1.89289 14.45672,4.4909 8.61382,1.49515 15.9063,2.98706 16.20556,3.31534 0.29922,0.32832 -5.13685,0.37598 -12.0802,0.10577 -11.86171,-0.46156 -12.37914,-0.41298 -8.56648,0.80451 6.29088,2.00888 17.08027,3.29389 22.43493,2.67192 l 4.85117,-0.56351 -0.58103,2.91786 c -0.89285,4.48358 -2.91662,6.90737 -6.63299,7.94392 -7.05621,1.96825 -15.61535,0.53266 -24.86086,-4.16973 -3.87856,-1.9727 -4.2416,-2.02559 -3.42856,-0.49963 1.52468,2.86138 8.38138,7.97386 15.93083,11.87828 8.76627,4.53366 7.72485,4.73083 -3.00493,0.56869 -4.45317,-1.72729 -9.76903,-3.51803 -11.81303,-3.9793 -3.26087,-0.73588 -3.71633,-0.64362 -3.71633,0.75293 0,3.94889 7.8216,8.65414 23.98196,14.42684 4.51094,1.6114 9.56596,3.7631 11.23348,4.78163 2.93404,1.79215 2.97491,1.89531 1.26657,3.19809 -1.45513,1.10978 -4.22078,1.26002 -15.74217,0.85522 -7.68721,-0.27006 -16.40817,-1.09452 -19.3798,-1.83215 -2.97163,-0.73758 -5.49247,-1.2512 -5.60192,-1.14121 -0.10945,0.10989 4.55366,2.81 10.36248,6.00019 23.86922,13.10899 31.95023,18.47089 22.73484,15.08504 -5.4226,-1.99237 -35.37833,-14.64392 -37.42187,-15.8048 -1.56102,-0.88684 6.96269,8.21869 12.15853,12.9884 10.81285,9.92603 15.38116,12.67742 24.78401,14.92677 l 6.28362,1.50314 -3.73937,2.48545 c -11.14292,7.40648 -24.79177,1.40856 -42.09976,-18.50048 l -4.33051,-4.98132 3.40177,6.33984 c 6.17934,11.51659 15.16456,21.87352 25.18294,29.02766 6.05963,4.32714 6.161,4.70496 0.4512,1.682 -6.10711,-3.23324 -20.9864,-17.86108 -28.87672,-28.38863 -3.15008,-4.20296 -5.87421,-7.19923 -6.05368,-6.65848 -0.6139,1.84992 4.20443,12.18563 9.18699,19.70694 12.33398,18.61832 29.18814,33.08526 38.54471,33.08526 3.00525,0 3.4299,0.26522 3.4299,2.14207 0,1.17812 -0.84099,3.21601 -1.86892,4.52848 -3.56979,4.55821 -11.32359,2.61176 -21.77558,-5.46613 -13.82891,-10.68791 -35.51784,-36.40599 -39.39677,-46.71559 -1.03773,-2.75808 -4.2804,-3.44577 -5.17736,-1.09801 -3.04317,7.96524 32.79384,52.00755 50.35884,61.88906 4.46329,2.51084 6.3456,5.55108 3.43697,5.55108 -5.15644,0 -32.34902,-25.47693 -45.9296,-43.03178 -2.69273,-3.48073 -5.25888,-6.73616 -5.70265,-7.23434 -1.37666,-1.54528 5.51565,13.22165 9.51124,20.37816 4.50508,8.06913 16.20049,20.22885 27.87562,28.98223 4.31855,3.23789 7.86912,6.25286 7.89014,6.69994 0.0558,1.18775 -14.0378,-0.0868 -19.82842,-1.79331 -7.81564,-2.3032 -13.79058,-6.25504 -20.71212,-13.69905 -7.37164,-7.92823 -14.48831,-21.25416 -19.85137,-37.17155 -1.74829,-5.1889 -3.62807,-9.28337 -4.26211,-9.28337 -1.46035,0 -1.42834,1.69169 0.2105,11.13092 2.4577,14.15538 9.43721,32.3953 17.19258,44.93061 4.85284,7.84387 0.26832,2.50967 -5.88243,-6.84431 -7.38536,-11.23152 -12.89491,-24.60026 -15.72263,-38.15033 -1.84944,-8.8622 -3.24439,-11.19243 -3.24439,-5.41949 0,3.88966 3.99873,19.03519 8.23951,31.2076 6.20765,17.81807 13.05461,30.16644 16.72683,30.16644 0.65113,0 1.18389,0.40751 1.18389,0.90569 0,1.69198 -2.84822,0.91387 -8.87082,-2.42356 -8.63682,-4.78614 -12.27796,-7.87946 -16.84959,-14.31414 -4.40158,-6.19537 -7.37953,-12.37893 -11.34917,-23.56579 -1.41407,-3.98501 -2.55917,-6.63417 -2.54462,-5.88695 0.0402,2.07547 4.97245,25.56566 5.79999,27.62364 0.57382,1.42711 0.1374,1.25915 -2.05665,-0.79158 -1.53174,-1.43166 -3.60937,-4.69222 -4.61698,-7.24558 -2.27875,-5.77449 -6.8798,-23.79903 -7.76604,-30.42342 l -0.66231,-4.94989 -1.53761,4.94989 c -0.8457,2.72243 -2.17779,6.18031 -2.96017,7.68418 -1.59982,3.07493 -10.24901,12.20966 -11.56069,12.20966 -0.46848,0 -0.8518,2.6492 -0.8518,5.88705 l 0,5.88705 3.83234,0 c 5.07613,0 13.58118,4.17957 18.51558,9.09696 4.84184,4.82512 9.77,15.04169 10.60558,21.98641 0.72752,6.04625 3.09776,9.5033 8.17495,11.92318 4.63116,2.20725 7.5651,0.82562 7.5651,-3.56259 0,-3.04088 -0.12239,-3.15712 -3.20148,-3.04088 -4.3984,0.16613 -6.51444,-1.99125 -5.07202,-5.17098 1.26938,-2.79813 6.50613,-5.22043 9.60005,-4.44047 1.21719,0.30682 3.24263,1.59202 4.50106,2.85586 2.87132,2.88396 3.0815,8.2461 0.48843,12.4602 -1.37246,2.23041 -6.61429,6.66337 -9.70502,8.2072 -0.12811,0.0641 1.11707,3.74712 2.76708,8.18469 3.14195,8.45024 12.88618,23.43507 15.78304,24.2714 0.83651,0.24148 4.58913,0.70895 8.33922,1.03892 l 6.81828,0.59979 6.93313,-4.29741 c 5.46901,-3.38993 6.93309,-4.74782 6.93309,-6.43032 0,-2.25031 0.69501,-2.46041 7.21388,-2.1811 2.32724,0.0998 3.92891,0.9563 6.09885,3.26173 1.61852,1.71954 3.28017,3.12645 3.69259,3.12645 1.89127,0 3.73456,3.56579 3.73456,7.22442 l 0,3.91178 -2.0289,-2.99244 c -3.5696,-5.26494 -4.65184,-5.40239 -8.61206,-1.09384 -3.97564,4.32535 -5.24941,4.6079 -8.65197,1.91966 l -2.40321,-1.8986 -1.88009,2.4006 c -1.03404,1.32032 -3.5025,3.05265 -5.48554,3.84955 -3.60161,1.44745 -3.60313,1.45026 -1.47411,2.654 1.48981,0.84229 3.91944,1.04207 8.07223,0.66362 5.69553,-0.51905 6.02135,-0.4386 7.89014,1.94751 1.39518,1.78149 1.94923,3.74978 1.94923,6.92448 0,5.48254 -1.63039,9.45879 -5.29928,12.92427 -3.07111,2.90081 -3.61869,2.58188 -1.40179,-0.81642 0.78622,-1.20519 1.28689,-3.50418 1.12719,-5.17592 l -0.28735,-3.0076 -5.7824,0 c -3.82236,0 -5.91102,-0.38373 -6.16184,-1.13206 -0.21101,-0.62952 -1.84731,-1.1339 -3.6858,-1.13603 -2.1613,-0.005 -4.71161,-0.94216 -7.36416,-2.71323 -2.23178,-1.49012 -4.84267,-2.71105 -5.80198,-2.71318 -2.70104,-0.006 -9.32545,3.52805 -11.27191,6.01351 -1.6406,2.09489 -2.10464,2.19631 -7.33114,1.60238 l -5.57961,-0.63403 0.39795,3.42403 0.39801,3.42402 -2.08322,-2.61481 c -2.68506,-3.37027 -2.63001,-5.48211 0.29012,-11.13538 1.8154,-3.51435 2.8758,-4.61207 4.45548,-4.61207 1.14016,0 2.32387,0.40751 2.63039,0.90568 1.06201,1.72589 4.20932,0.89285 6.9227,-1.83244 l 2.72612,-2.73812 -3.72072,-6.29049 c -4.48365,-7.5802 -11.49663,-16.99449 -17.73947,-23.81352 l -4.59754,-5.02181 -5.58322,3.54569 c -3.07078,1.95008 -5.75016,3.54568 -5.95429,3.54568 -0.20408,0 0.15799,-1.26379 0.8046,-2.8084 1.32216,-3.15837 0.42409,-10.46163 -1.4991,-12.19062 -0.61395,-0.55203 -5.43607,-4.31087 -10.71591,-8.35304 l -9.59964,-7.34932 -0.61146,8.78438 c -0.71763,10.31096 0.53854,15.85235 3.69633,16.30495 1.55368,0.22274 2.02982,-0.31995 2.50287,-2.85247 1.02212,-5.47243 4.75895,-6.48563 9.54944,-2.58944 1.65907,1.34928 1.91155,2.17776 1.39028,4.56165 -0.89682,4.10096 -4.65069,8.30368 -7.4169,8.30368 -1.24504,0 -4.66427,-1.48823 -7.59821,-3.30711 -2.93404,-1.81897 -5.58022,-3.06049 -5.8804,-2.75895 -1.0659,1.0706 0.69398,8.69308 2.55593,11.07063 l 1.89128,2.41498 19.60152,-0.31345 c 18.56287,-0.2968 19.70742,-0.21751 21.60017,1.49568 1.64766,1.49143 1.92162,2.49529 1.56005,5.71701 -0.61321,5.46458 -3.47432,8.32359 -8.32956,8.32359 -4.32982,0 -6.42152,-1.76914 -7.29844,-6.17285 -0.56292,-2.8269 -0.50797,-2.88405 2.76958,-2.88405 2.28613,0 3.21815,-0.35821 2.94622,-1.13221 -0.67662,-1.92601 -7.89068,-0.87691 -11.15234,1.62176 -3.57644,2.73987 -6.77122,4.024 -12.04524,4.84154 l -4.0578,0.62899 4.50863,1.68366 c 12.70861,4.74574 15.14138,6.87686 16.35936,14.3306 0.43158,2.64117 1.74746,4.51482 5.85015,8.32989 2.91136,2.70727 5.29333,5.10128 5.29333,5.32005 0,0.21877 -1.82598,0.67283 -4.05776,1.00899 -2.76094,0.41584 -4.0578,1.05079 -4.0578,1.9867 0,0.75647 2.37292,3.75879 5.27319,6.67185 4.21672,4.23522 6.31415,5.60028 10.46921,6.81351 5.88595,1.71858 9.17051,1.34076 13.90784,-1.59991 l 3.25602,-2.02118 -3.55224,-0.57998 c -5.71206,-0.93251 -9.60314,-7.28616 -6.99072,-11.41493 2.34474,-3.70585 14.22576,-5.17374 17.25437,-2.1318 2.17055,2.18009 3.66003,7.3918 3.64063,12.73859 -0.0392,10.76003 -7.18206,16.63933 -20.2641,16.67909 -19.66364,0.0598 -42.83231,-13.27512 -42.83231,-24.65246 0,-2.6091 -0.0342,-2.62581 -4.50868,-2.19399 -2.47974,0.23935 -4.50864,0.20284 -4.50864,-0.0811 0,-0.28401 0.78049,-1.86421 1.73444,-3.51159 l 1.73449,-2.9953 -6.32958,-8.60411 -6.32962,-8.60406 0.61257,6.79274 c 0.87456,9.69882 2.73452,18.23968 4.90082,22.50468 2.23746,4.40502 6.19107,8.28891 8.43768,8.28891 4.66237,0 17.49383,9.76498 22.1913,16.88808 3.35042,5.08041 3.62692,9.82993 0.57216,9.82993 -1.22107,0 -2.52855,-1.42551 -4.15358,-4.52848 -3.27842,-6.26022 -8.85272,-9.71243 -15.91521,-9.85657 l -5.20115,-0.10611 -0.45088,3.40572 c -0.52889,3.99504 -4.44708,8.58696 -7.96906,9.33931 -4.45724,0.95223 -6.28145,2.07101 -7.9203,4.85752 -0.89779,1.52664 -2.05212,2.74815 -2.56512,2.71454 -0.513,-0.0334 -2.38964,-1.6638 -4.17026,-3.62279 z m -61.0937,-145.44537 c 6.14179,-6.59712 12.23094,-22.8118 13.72144,-36.53836 0.47527,-4.37659 0.27506,-3.98404 -1.64891,3.23388 -4.51561,16.94053 -9.84048,28.19021 -17.3726,36.70268 l -4.31079,4.87177 3.60696,-2.84763 c 1.98383,-1.56621 4.68556,-4.00623 6.0039,-5.42234 z m 133.37355,0.58075 c -6.85121,-8.26886 -12.14657,-20.47019 -16.70734,-38.49672 l -1.37001,-5.41503 0.53216,5.43412 c 0.83512,8.5269 4.47695,21.65837 7.72489,27.85355 2.55973,4.88247 12.15308,16.07267 13.77904,16.07267 0.30577,0 -1.47568,-2.45189 -3.95874,-5.44859 z m -177.80757,0.77559 c 11.49215,-6.8896 18.36613,-14.70532 24.92246,-28.33657 3.70312,-7.69924 12.54009,-32.11565 11.86785,-32.7908 -0.16893,-0.16965 -1.60249,3.11663 -3.18573,7.30283 -9.26319,24.49351 -21.88387,43.81381 -34.76058,53.21338 -4.15539,3.03327 -3.47983,3.39041 1.156,0.61116 z m 221.93272,0.39613 c -1.23991,-0.80567 -5.50332,-4.75804 -9.47434,-8.78301 -9.58333,-9.71375 -19.24781,-26.08394 -26.12128,-44.2455 -3.21579,-8.49702 -2.23455,-3.45274 1.38655,7.12765 3.95578,11.55844 8.93862,22.28001 13.34205,28.70834 3.56369,5.20241 11.48523,12.4276 17.46169,15.92669 5.00395,2.92978 7.25226,3.76548 3.40533,1.26583 z M 163.07664,478.93528 c 12.7245,-6.281 22.40606,-17.93388 33.72393,-40.59069 8.11887,-16.25288 8.01856,-16.33764 -1.08091,-0.91363 -12.1322,20.56473 -24.1375,34.41891 -35.98078,41.52214 -6.22197,3.73177 -4.2369,3.72111 3.33776,-0.0179 z m 262.38654,1.39616 c -14.24825,-7.54712 -31.88096,-27.934 -42.8664,-49.56186 -1.09555,-2.15694 -2.20781,-3.70489 -2.4717,-3.43991 -0.60605,0.60879 9.50847,19.83925 14.80388,28.14608 7.45818,11.69957 17.22468,20.54661 27.25958,24.69354 6.1841,2.55548 7.95904,2.64339 3.27464,0.16215 z m -84.71331,-27.26936 c -0.25017,-0.62265 -0.45485,-0.11314 -0.45485,1.13215 0,1.24534 0.20468,1.75476 0.45485,1.13211 0.25017,-0.62265 0.25017,-1.64152 0,-2.26426 z m -179.25933,-9.81942 c 7.04809,-3.53746 12.90101,-9.25514 18.92079,-18.48354 2.59944,-3.98507 3.61611,-5.81905 2.25926,-4.07563 -5.63831,7.24466 -19.02091,19.63065 -24.21702,22.41358 -6.94639,3.72028 -4.33476,3.84548 3.03697,0.14559 z m 262.79525,-0.26672 c -8.96494,-4.85336 -16.27571,-11.69308 -26.2637,-24.57149 -2.86822,-3.69829 -1.49752,-1.10953 2.88513,5.44898 6.90025,10.32588 14.63678,17.37081 22.65572,20.63016 6.17098,2.50822 6.57693,1.66157 0.72285,-1.50765 z M 168.41103,408.58522 c 8.83346,-4.69919 12.22794,-7.60925 4.47025,-3.83226 -8.61067,4.19226 -15.00684,5.95108 -22.03068,6.05817 -4.52993,0.069 -5.39281,0.27345 -3.66871,0.86883 1.23991,0.42824 5.11206,0.658 8.6049,0.51062 5.28146,-0.22279 7.40674,-0.82974 12.62424,-3.60536 z m 268.06968,2.16251 c 1.06738,-0.63078 0.28056,-0.73298 -2.68414,-0.34881 -5.81921,0.75424 -15.9547,-1.70986 -24.43593,-5.94081 -3.8436,-1.91744 -6.98841,-3.36707 -6.98841,-3.22143 0,0.93833 13.05216,8.2923 17.13291,9.65315 5.18577,1.72947 13.93245,1.65624 16.97557,-0.1421 z M 158.98822,382.16178 c 3.63071,-1.2866 17.04914,-9.14146 17.04914,-9.98017 0,-0.20424 -2.53617,1.01287 -5.63586,2.70476 -7.52224,4.10585 -16.76636,6.83216 -23.54003,6.94254 -4.13973,0.0675 -4.97078,0.27359 -3.28655,0.8154 3.78385,1.21711 11.27921,0.98245 15.4133,-0.48253 z m 281.15053,-0.42504 c 0.99709,-0.59029 0.15056,-0.69418 -2.67467,-0.32842 -5.73007,0.74203 -17.41375,-2.36902 -25.97095,-6.91522 -7.78701,-4.13705 -6.39548,-2.74297 2.8819,2.88715 3.43036,2.08177 8.11832,4.31648 10.41766,4.96606 4.36626,1.23352 12.79839,0.89856 15.34606,-0.60957 z M 174.68472,359.28102 c 1.84606,-0.55712 -0.0799,-0.67728 -6.06439,-0.37835 -10.25548,0.51227 -18.40447,-0.82776 -24.02588,-3.95073 -2.16703,-1.20398 -3.44583,-1.59086 -2.8418,-0.85982 0.60407,0.73104 3.59444,2.60135 6.64527,4.15632 5.39013,2.74714 5.80194,2.81325 14.56428,2.33808 4.95957,-0.26895 10.23465,-0.85643 11.72252,-1.3055 z m 258.64042,-1.10881 c 2.32789,-1.1677 4.84937,-2.80767 5.60335,-3.64444 1.01099,-1.12213 0.23368,-0.9562 -2.96151,0.63204 -5.78915,2.87761 -13.47432,4.07985 -22.77396,3.56269 l -7.66471,-0.42625 5.41035,1.25967 c 7.78789,1.81321 17.16926,1.23338 22.38648,-1.38371 z M 174.71247,338.16262 c -8.04895,-1.17764 -16.3134,-4.22786 -20.82342,-7.68559 -4.53057,-3.47344 -3.61532,-1.33775 1.17905,2.7513 4.46305,3.80635 11.21145,5.89872 18.7149,5.80263 l 6.31216,-0.0809 -5.38269,-0.78751 z m 79.02609,-1.494 c -2.76598,-3.90161 -6.58182,-7.46037 -7.99917,-7.46037 -0.70891,0 -2.04571,0.40683 -2.97066,0.90394 -1.38908,0.74673 -1.54227,1.39238 -0.88034,3.71064 1.32392,4.63648 2.42335,5.3481 8.26283,5.3481 l 5.3614,0 -1.77406,-2.50231 z m -9.94734,-0.88791 c -1.22283,-2.29487 0.0685,-4.0795 2.68321,-3.70822 1.61358,0.22913 2.15235,0.8726 2.15235,2.56997 0,2.86603 -3.47862,3.68488 -4.83556,1.13825 z m 2.58129,-1.64457 c 0,-0.77661 -0.41242,-1.15598 -0.9165,-0.84306 -0.50399,0.31283 -0.68295,0.94821 -0.39759,1.41195 0.77296,1.25624 1.31409,1.02202 1.31409,-0.56889 z m 91.35678,3.90268 c 2.07351,-1.53608 3.44772,-6.53376 2.15392,-7.83325 -1.66152,-1.66884 -5.61629,-1.1232 -7.54141,1.04047 -0.99723,1.12082 -2.71869,3.36246 -3.82555,4.98141 l -2.01237,2.94348 4.84859,0 c 2.66673,0 5.53629,-0.50946 6.37682,-1.13211 z m -3.87921,-2.02631 c -1.33344,-1.61377 -0.62582,-3.90651 1.45305,-4.70772 2.13525,-0.82301 4.16212,2.14889 2.97943,4.36845 -1.08285,2.03218 -2.91764,2.17263 -4.43248,0.33927 z m 3.5974,-2.27579 c 0,-0.49812 -0.40581,-0.90568 -0.90176,-0.90568 -0.49591,0 -0.90172,0.40756 -0.90172,0.90568 0,0.49818 0.40581,0.90574 0.90172,0.90574 0.49595,0 0.90176,-0.40756 0.90176,-0.90574 z m 83.50711,2.8084 c 2.53303,-1.10803 6.18502,-3.67263 8.1156,-5.69904 l 3.51007,-3.68442 -4.84771,3.29614 c -5.77806,3.92869 -14.17879,6.64725 -24.02333,7.77408 l -7.19827,0.82398 9.91908,-0.24807 c 7.89207,-0.19746 10.86023,-0.6598 14.52456,-2.26267 z M 190.25185,566.23865 c -3.57089,-2.00762 -5.18082,-3.46906 -5.19874,-4.71954 -0.0143,-0.99625 -0.39731,-2.40079 -0.85105,-3.12113 -1.01316,-1.60839 0.39597,-4.57729 2.17252,-4.57729 1.98018,0 4.27412,-2.81964 3.79405,-4.66351 -0.35246,-1.35363 0.0794,-1.67639 2.24356,-1.67639 2.83165,0 6.17458,1.41365 7.28181,3.07914 1.21766,1.83157 0.70877,7.38206 -1.19613,13.04759 -1.03745,3.08553 -2.15336,5.59408 -2.47973,5.57461 -0.32647,-0.0194 -2.92129,-1.344 -5.76629,-2.94348 z m 194.52332,0.94104 c -3.7698,-10.47238 -4.13695,-15.07757 -1.4197,-17.80669 3.2273,-3.24153 19.38996,-3.71689 22.43372,-0.65975 1.21927,1.22471 1.05847,1.36255 -1.50357,1.28942 -1.57788,-0.045 -3.81594,0.42717 -4.97351,1.04933 -1.84624,0.99248 -2.08358,1.7333 -1.93344,6.03584 l 0.17111,4.90446 -5.62543,3.15982 c -6.29821,3.53755 -6.57716,3.61664 -7.14918,2.02757 z"
       id="path11220"
       inkscape:connector-curvature="0" />
    <path
       style="fill:#1148b0;fill-opacity:1"
       d="m 177.80621,605.79386 c -3.13377,-1.15734 -4.50864,-3.309 -4.50864,-7.05592 0,-4.47777 2.37754,-7.30666 5.34575,-6.36043 1.57681,0.50258 1.86809,1.33615 1.86809,5.34504 0,3.52777 0.47291,5.25937 1.83863,6.73167 l 1.83858,1.98214 -2.51488,-0.0715 c -1.38322,-0.0397 -3.12357,-0.29622 -3.86753,-0.57097 z m 223.59798,-2.01503 c 0.51341,-0.96352 0.93349,-3.80214 0.93349,-6.30803 0,-5.42055 1.9817,-7.29227 5.27098,-4.97831 1.53862,1.08246 1.94286,2.2877 1.94286,5.79265 0,5.00665 -2.0223,7.24549 -6.54451,7.24549 -2.22809,0 -2.42289,-0.21282 -1.60282,-1.7518 z m -171.86473,-3.08611 c 0.41541,-1.66244 0.0148,-3.85372 -1.21526,-6.64667 -1.42769,-3.24153 -1.60074,-4.45016 -0.77975,-5.4437 3.15609,-3.81962 10.26693,3.20143 8.4012,8.29506 -0.48368,1.32041 -2.2624,3.27262 -3.95269,4.33819 l -3.07328,1.93734 0.61978,-2.48022 z m 118.26159,-2.55103 c -1.80671,-2.15655 -2.25293,-3.43807 -1.81336,-5.20774 1.15267,-4.6405 5.62695,-7.99851 8.55816,-6.42291 2.39712,1.28859 2.27381,3.12423 -0.45088,6.71224 -1.23991,1.63271 -2.25436,4.05089 -2.25436,5.37372 0,3.16191 -1.11439,3.03637 -4.03956,-0.45531 z M 159.30278,573.60105 c -0.81758,-4.37727 0.0956,-6.77496 3.19312,-8.38379 4.90497,-2.54759 8.99819,-1.2899 8.99819,2.76486 0,1.47796 -0.8577,2.19781 -3.60285,3.02393 -1.98156,0.59629 -4.58872,2.15199 -5.79353,3.45705 l -2.19068,2.37294 -0.60425,-3.23499 z m 259.828,0.17528 c -0.89631,-1.52393 -3.01249,-3.43323 -4.70274,-4.24273 -3.87408,-1.85559 -4.26571,-5.25433 -0.7597,-6.59314 2.41808,-0.92337 4.73165,-0.17199 7.83111,2.54352 1.8317,1.60471 2.02331,6.06814 0.38757,9.026 l -1.12663,2.03716 -1.62961,-2.77081 z m -234.44519,-21.3332 c -1.42381,-0.78475 -3.91385,-1.2714 -5.53343,-1.0815 -3.3319,0.39071 -3.37522,-0.87885 -0.15264,-4.47471 3.74035,-4.17357 12.76293,-1.07079 12.15705,4.18068 -0.33459,2.90018 -2.76653,3.4171 -6.47098,1.37553 z m 209.23247,-0.50133 c -3.44906,-1.93874 -0.294,-7.32471 4.97116,-8.48622 3.32765,-0.73409 6.52488,1.2791 7.78151,4.89961 0.92804,2.67405 0.91142,2.69284 -1.96688,2.22373 -1.61168,-0.2627 -4.32256,0.12263 -6.09459,0.86626 -2.1287,0.89338 -3.69111,1.05878 -4.6912,0.49662 z M 256.34622,366.80049 c -4.99859,-3.56719 -9.42437,-4.36996 -14.13344,-2.56363 -4.72477,1.81234 -11.92752,1.29814 -15.59133,-1.11302 l -2.35542,-1.55008 6.49597,-1.60384 c 6.16401,-1.52179 13.7505,-5.04539 13.76551,-6.39346 0.0152,-1.39446 -8.80904,-1.87389 -14.42079,-0.78363 -9.98411,1.93991 -12.58517,2.11465 -13.99383,0.94041 -2.14376,-1.78701 -1.62725,-3.41347 0.92823,-2.9228 1.2552,0.241 4.34339,-0.46384 6.93128,-1.58199 3.66599,-1.58403 6.32436,-2.00583 12.38935,-1.96583 l 7.72185,0.0508 -6.55555,-2.76471 c -6.4175,-2.7065 -6.62228,-2.73284 -9.73125,-1.25106 -2.3762,1.13255 -4.38145,1.36236 -7.96403,0.91276 -4.64603,-0.58308 -4.85893,-0.51077 -7.16622,2.43019 l -2.37795,3.03109 0.0102,-4.07558 c 0.012,-5.02389 2.53155,-10.81655 5.84221,-13.43219 3.18347,-2.51519 10.43189,-4.68176 15.66273,-4.68176 3.16902,0 3.834,0.24153 2.99237,1.08687 -1.16626,1.17129 -1.41671,4.22892 -0.53545,6.53566 0.3007,0.78693 3.03966,2.74699 6.0867,4.35576 3.047,1.60878 8.0448,5.41218 11.10616,8.45208 5.59841,5.55912 6.85731,8.15442 8.87092,18.28812 0.68665,3.45569 0.13966,3.53817 -3.97786,0.59978 z m 65.73719,1.02977 c 0,-0.22459 0.45629,-2.56803 1.01394,-5.20774 2.19895,-10.40943 8.29719,-18.02886 18.61705,-23.2612 6.11265,-3.09924 8.37353,-6.58782 6.52178,-10.06313 -0.5777,-1.08411 -0.83669,-2.18571 -0.57557,-2.44795 0.74234,-0.74565 12.30516,1.4961 15.03788,2.91546 5.37553,2.79198 9,9.57227 8.94652,16.73615 -0.0226,3.0153 -0.0891,3.08161 -1.3647,1.35858 -3.58858,-4.84731 -3.66797,-4.88615 -8.88256,-4.3456 -3.78167,0.39206 -5.53998,0.15479 -7.26454,-0.98017 -2.16172,-1.42261 -2.55677,-1.37887 -7.91974,0.87725 -3.10445,1.30603 -5.71747,2.43901 -5.80664,2.51776 -0.0892,0.0787 2.95412,0.1468 6.76299,0.1512 5.17469,0.006 8.23591,0.54477 12.11073,2.13132 2.85211,1.1678 6.02098,1.90397 7.04195,1.6358 1.5025,-0.39462 1.80315,-0.11265 1.57737,1.47947 -0.37067,2.61389 -3.70908,2.95636 -10.97611,1.12586 -7.67368,-1.93289 -19.51087,-1.71591 -19.51087,0.35767 0,1.19192 8.63908,5.38892 13.95545,6.77976 2.88966,0.75593 5.45769,1.57918 5.70676,1.82929 0.24906,0.25015 -1.09504,1.10445 -2.98687,1.89835 -3.4015,1.4275 -7.60052,1.40101 -17.33852,-0.10941 -3.23935,-0.50239 -4.57223,-0.16559 -8.77823,2.21855 -4.92719,2.79299 -5.88807,3.18505 -5.88807,2.40273 z"
       id="path11224"
       inkscape:connector-curvature="0" />
    <path
       style="fill:#fcdd0b;fill-opacity:1"
       d="m 277.76766,481.40993 c -2.03019,-4.19928 -2.03425,-4.26093 -0.17046,-2.56856 1.88786,1.71422 1.93598,1.70908 4.23376,-0.45289 l 2.32415,-2.18677 -1.56745,4.07563 c -0.86214,2.2416 -1.83133,4.38153 -2.15373,4.75538 -0.32245,0.37385 -1.52227,-1.25643 -2.66627,-3.62279 z m 22.92488,0.48999 c -2.55931,-6.35854 -2.57893,-6.72982 -0.20597,-3.89163 l 2.26771,2.71221 2.01213,-1.80653 2.01214,-1.80658 -2.03366,4.07564 c -1.1185,2.24159 -2.13586,4.19443 -2.26078,4.33963 -0.12493,0.1452 -0.93114,-1.48503 -1.79157,-3.62274 z m -16.56191,-12.20839 c -1.68512,-3.52559 -1.77545,-4.05699 -0.47282,-2.78157 1.53299,1.50097 1.73393,1.45757 4.19316,-0.90574 l 2.583,-2.4822 -1.72626,4.07563 c -0.94947,2.2416 -1.89904,4.61028 -2.11018,5.26382 -0.21115,0.6535 -1.3212,-0.77298 -2.4669,-3.16994 z m -11.79368,-0.15867 c -1.8934,-3.72764 -2.57742,-6.42591 -0.89244,-3.52021 1.29261,2.229 2.69726,1.97677 5.04311,-0.90568 l 2.02705,-2.49064 -1.84722,4.98132 c -1.01597,2.73967 -1.98604,5.12274 -2.15567,5.2955 -0.16963,0.17281 -1.14833,-1.33935 -2.17483,-3.36029 z m 23.4103,3.30604 c -0.0152,-0.35515 -0.85748,-2.80055 -1.8711,-5.43416 l -1.84296,-4.78841 2.20448,2.71217 c 2.18112,2.68354 2.22453,2.69405 4.09724,0.99179 1.0411,-0.94627 1.89077,-1.35165 1.88823,-0.90084 -0.006,0.99262 -4.43594,8.33657 -4.47589,7.41945 z m 10.83812,-3.22622 c -0.66116,-1.85545 -1.41264,-3.98497 -1.66993,-4.73213 -0.29367,-0.85295 0.35774,-0.60478 1.75024,0.66662 2.10921,1.92586 2.29791,1.94805 3.84554,0.45289 1.3575,-1.3115 1.29427,-0.8961 -0.38105,2.50328 -1.10469,2.24159 -2.08372,4.16726 -2.17558,4.27924 -0.0919,0.11207 -0.70803,-1.31441 -1.36922,-3.1699 z m -40.55006,-13.58252 c -2.02525,-4.18916 -2.02876,-4.24452 -0.16062,-2.54832 1.88776,1.71417 1.93593,1.70908 4.21362,-0.44006 l 2.30401,-2.17403 -1.91926,4.49714 c -1.0556,2.47349 -2.02017,4.59856 -2.14344,4.7223 -0.12326,0.12384 -1.15572,-1.70186 -2.29431,-4.05703 z m 47.71798,4.2464 c -2.7e-4,-0.20753 -0.83133,-2.61893 -1.84684,-5.3587 l -1.84639,-4.98132 2.20837,2.71226 2.20836,2.71222 2.01214,-1.80648 2.01213,-1.80658 -2.03361,4.07563 c -2.0137,4.03558 -2.71328,5.18338 -2.71416,4.45297 z m -35.05749,-6.03791 -2.05315,-4.30211 2.01528,1.97895 2.01518,1.97895 1.76455,-2.25308 c 0.97049,-1.23919 1.93132,-2.08545 2.13521,-1.88068 0.3836,0.38528 -2.98257,8.78002 -3.52064,8.78002 -0.16677,0 -1.22712,-1.93599 -2.35643,-4.30205 z m 20.3507,-0.85905 -1.57022,-4.25527 2.25104,2.12405 c 1.91497,1.80692 2.4663,1.94456 3.69305,0.92191 1.24444,-1.03727 1.22514,-0.74523 -0.14058,2.13137 -0.87045,1.83331 -1.8257,3.33331 -2.12284,3.33331 -0.29714,0 -1.24684,-1.91488 -2.11045,-4.25537 z m -38.84185,-9.94631 c -1.36576,-2.8766 -1.38497,-3.16864 -0.14058,-2.13127 1.22712,1.02289 1.79558,0.87851 3.81437,-0.96875 2.11988,-1.93976 2.29911,-1.97807 1.68475,-0.35931 -0.3781,0.99625 -1.09144,2.93214 -1.58518,4.302 -1.18888,3.29849 -1.88056,3.14399 -3.77336,-0.84267 z m 12.21173,-0.0266 c -2.42875,-4.7596 -2.45059,-5.53054 -0.0958,-3.39012 1.81572,1.65048 1.89086,1.63212 4.05937,-0.99175 l 2.20938,-2.67337 -1.66526,4.07563 c -0.91585,2.2416 -1.86698,4.68699 -2.11355,5.43421 -0.29696,0.89973 -1.10552,0.0707 -2.39416,-2.4546 z m 11.59404,-0.31225 c -1.66909,-3.35001 -1.7326,-3.76188 -0.37829,-2.45353 1.54763,1.4952 1.73476,1.47297 3.81317,-0.45284 l 2.18565,-2.02525 -0.67524,2.26426 c -0.3714,1.24534 -1.18473,3.26076 -1.80741,4.47874 l -1.13212,2.21452 -2.00576,-4.0259 z m 11.70866,3.40412 c 0,-0.3136 -0.81559,-2.72505 -1.81244,-5.35865 l -1.81245,-4.78846 2.21678,2.67337 c 2.21413,2.67012 2.21912,2.67124 4.18614,0.90568 l 1.96932,-1.76768 -2.03366,4.07563 c -2.1456,4.30017 -2.71369,5.19185 -2.71369,4.26011 z m 22.59702,-3.12791 c -0.66568,-1.86808 -1.41929,-4.00773 -1.67472,-4.75494 -0.25539,-0.74717 0.45956,-0.21291 1.58878,1.18737 l 2.05314,2.54599 2.23418,-2.09315 2.23423,-2.0931 -2.07176,4.3021 c -1.13946,2.36607 -2.31514,4.30205 -2.61265,4.30205 -0.29746,0 -1.08552,-1.52833 -1.7512,-3.39632 z m -12.16693,-1.24524 c -1.73102,-4.3453 -1.46556,-5.16459 0.8432,-2.60227 1.57303,1.74589 1.72008,1.75587 3.42011,0.23199 1.67824,-1.50426 1.66914,-1.37945 -0.16469,2.25695 -1.0676,2.11707 -2.09166,3.84921 -2.27574,3.84921 -0.18404,0 -1.00434,-1.68114 -1.82288,-3.73588 z m -34.75999,-16.18944 c -1.88074,-3.7228 -1.90527,-3.93775 -0.28259,-2.48332 1.70008,1.52378 1.84713,1.5139 3.42016,-0.23199 2.35402,-2.61264 2.53991,-1.75301 0.60753,2.80965 l -1.68613,3.98129 -2.05897,-4.07563 z m 35.40798,-1.58679 -1.99694,-5.20595 2.17585,2.67337 c 2.13572,2.62402 2.21008,2.64228 4.02593,0.99175 1.0175,-0.92491 1.84999,-1.39839 1.84999,-1.05229 0,0.68595 -3.51353,7.80376 -3.85071,7.80091 -0.11389,0 -1.10576,-2.34447 -2.20412,-5.20779 z m -22.78554,0.45463 c -2.08127,-3.77787 -2.08418,-3.81705 -0.15666,-2.11528 1.94282,1.71533 1.9884,1.71092 4.23196,-0.40606 l 2.26803,-2.14013 -1.57021,4.25537 c -0.86362,2.34044 -1.81378,4.25536 -2.11143,4.25536 -0.29769,0 -1.49544,-1.73213 -2.66169,-3.84926 z m 9.90402,-0.22637 c -2.09697,-4.91351 -1.90153,-6.196 0.4053,-2.65976 l 1.55137,2.37803 2.28849,-2.12337 2.28854,-2.12342 -2.02511,4.07563 c -1.11379,2.24164 -2.16791,4.23522 -2.34248,4.43025 -0.17452,0.19504 -1.1493,-1.59478 -2.16611,-3.97736 z m -18.03098,-12.49676 c -2.91561,-3.51997 -2.96863,-3.68658 -0.70586,-2.21937 2.4197,1.56897 2.46131,1.55904 3.79257,-0.90568 l 1.34604,-2.49209 -0.0537,2.71706 c -0.0296,1.49438 -0.31769,3.61455 -0.64023,4.71145 -0.55152,1.87574 -0.77393,1.76797 -3.73877,-1.81137 z m 26.72031,0.20782 c -0.31557,-1.5848 -0.55752,-3.7475 -0.53766,-4.80609 0.0323,-1.7225 0.17739,-1.66297 1.38142,0.56608 1.4875,2.75401 2.20518,3.0183 3.81252,1.40381 0.61954,-0.62226 1.08211,-0.69471 1.08211,-0.16942 0,0.50457 -1.16205,2.03557 -2.58231,3.40223 l -2.58226,2.48483 -0.57382,-2.88144 z m -34.76622,-14.22254 c -2.05809,-4.25716 -2.05883,-4.27188 -0.12354,-2.51456 1.94295,1.76424 1.95094,1.7625 4.16346,-0.90569 l 2.21682,-2.67337 -1.88795,4.98132 c -1.03837,2.73977 -1.98036,5.07431 -2.09328,5.18793 -0.11291,0.11357 -1.13688,-1.72047 -2.27551,-4.07563 z m 43.54874,1.96088 c -0.33288,-0.94303 -1.16856,-3.12399 -1.85705,-4.84653 l -1.25183,-3.13198 2.27722,2.1488 c 2.25173,2.12468 2.29893,2.12933 4.20951,0.41482 1.9237,-1.72622 1.92324,-1.71581 -0.10137,2.34171 -2.56466,5.13983 -2.55136,5.12744 -3.27648,3.07318 z m -31.28903,-2.00002 c -2.84583,-2.98353 -3.12449,-4.23584 -0.64605,-2.90357 1.48307,0.79715 1.99376,0.54685 3.16892,-1.55313 1.3774,-2.46143 1.39126,-2.42747 0.82168,2.02501 -0.31861,2.49068 -0.65828,4.62616 -0.7549,4.74545 -0.0966,0.11934 -1.26194,-0.92186 -2.58965,-2.31376 z m 18.84782,-2.08458 c -0.72405,-5.48206 -0.28758,-6.41593 1.25289,-2.68058 1.10428,2.67768 1.14085,2.68979 3.50291,1.16116 2.25834,-1.46154 2.22495,-1.33736 -0.61949,2.30447 -1.65353,2.11702 -3.12288,3.84916 -3.2653,3.84916 -0.14239,0 -0.53438,-2.0854 -0.87101,-4.63421 z m -28.53733,-12.24835 c -2.44389,-2.58246 -2.65167,-3.0402 -0.98831,-2.17723 1.15836,0.60095 2.22075,0.95775 2.36077,0.79284 0.14008,-0.16486 0.89655,-1.52247 1.68105,-3.01685 1.42276,-2.71013 1.42507,-2.70427 0.89438,2.26421 -0.29261,2.73968 -0.60435,5.07707 -0.69274,5.19418 -0.0884,0.11706 -1.55322,-1.25861 -3.25515,-3.05715 z m 37.92208,-0.55208 c -0.006,-1.6189 -0.2172,-3.9624 -0.4676,-5.20774 -0.30947,-1.53918 0.0554,-1.18344 1.13946,1.11075 1.24634,2.63748 1.89035,3.18477 2.94738,2.50453 2.73744,-1.76163 2.97025,-0.82233 0.45089,1.81893 -3.30105,3.46069 -4.05489,3.41875 -4.07013,-0.22647 z"
       id="path11228"
       inkscape:connector-curvature="0" />
  </g>
</svg>
