<?xml version="1.0" encoding="UTF-8" standalone="no"?>
<!-- Created with Inkscape (http://www.inkscape.org/) -->

<svg
   xmlns:dc="http://purl.org/dc/elements/1.1/"
   xmlns:cc="http://creativecommons.org/ns#"
   xmlns:rdf="http://www.w3.org/1999/02/22-rdf-syntax-ns#"
   xmlns:svg="http://www.w3.org/2000/svg"
   xmlns="http://www.w3.org/2000/svg"
   xmlns:sodipodi="http://sodipodi.sourceforge.net/DTD/sodipodi-0.dtd"
   xmlns:inkscape="http://www.inkscape.org/namespaces/inkscape"
   width="326.42859"
   height="217.14272"
   id="svg3933"
   version="1.1"
   inkscape:version="0.48.4 r9939"
   sodipodi:docname="Nieuw document 10">
  <defs
     id="defs3935" />
  <sodipodi:namedview
     id="base"
     pagecolor="#ffffff"
     bordercolor="#666666"
     borderopacity="1.0"
     inkscape:pageopacity="0.0"
     inkscape:pageshadow="2"
     inkscape:zoom="0.35"
     inkscape:cx="1288.8509"
     inkscape:cy="-296.54805"
     inkscape:document-units="px"
     inkscape:current-layer="layer1"
     showgrid="false"
     fit-margin-top="0"
     fit-margin-left="0"
     fit-margin-right="0"
     fit-margin-bottom="0"
     inkscape:window-width="1600"
     inkscape:window-height="837"
     inkscape:window-x="-8"
     inkscape:window-y="-8"
     inkscape:window-maximized="1" />
  <metadata
     id="metadata3938">
    <rdf:RDF>
      <cc:Work
         rdf:about="">
        <dc:format>image/svg+xml</dc:format>
        <dc:type
           rdf:resource="http://purl.org/dc/dcmitype/StillImage" />
        <dc:title></dc:title>
      </cc:Work>
    </rdf:RDF>
  </metadata>
  <g
     inkscape:label="Laag 1"
     inkscape:groupmode="layer"
     id="layer1"
     transform="translate(-145.35713,-295.21939)">
    <rect
       style="fill:#0e44af;fill-opacity:1;fill-rule:evenodd;stroke:none"
       id="rect3891"
       width="326.42859"
       height="217.14272"
       x="145.35713"
       y="295.21939" />
    <rect
       style="fill:#fcdd04;fill-opacity:1;fill-rule:evenodd;stroke:none"
       id="rect3893"
       width="326.42859"
       height="28.136808"
       x="145.35713"
       y="322.74454" />
    <rect
       style="fill:#fcdd04;fill-opacity:1;fill-rule:evenodd;stroke:none"
       id="rect3895"
       width="326.42859"
       height="26.301798"
       x="145.35713"
       y="459.14688" />
    <path
       style="fill:#fcdd04;fill-opacity:1"
       d="m 198.71951,437.1684 c -0.94955,-2.13598 -1.65729,-4.77517 -1.91789,-7.15196 -0.32199,-2.93643 -0.14201,-3.99858 0.96119,-5.67251 0.89387,-1.35631 1.79437,-3.43348 1.79437,-4.13904 0,-0.54808 0.30774,-0.0733 0.72668,1.12127 0.55468,1.58146 1.92157,3.63164 3.12425,4.68592 l 1.05925,0.92857 -0.27697,1.00654 c -0.15233,0.5536 -0.92804,2.15874 -1.72377,3.56698 -1.46683,2.59593 -2.03598,3.85168 -2.7082,5.97536 l -0.37271,1.17746 -0.6662,-1.49859 z m -19.41338,-8.22634 c -0.0579,-1.48058 -0.36836,-4.61873 -0.68983,-6.97365 -0.50022,-3.6642 -0.55348,-4.5032 -0.36933,-5.81768 0.78164,-5.57899 5.46982,-9.12342 15.25961,-11.53677 l 2.47081,-0.60909 0.86778,0.89177 c 0.47726,0.49048 1.17606,0.9953 1.55287,1.12184 l 0.68511,0.23006 -0.0649,5.971 c -0.0515,4.73276 -0.13902,6.27392 -0.4223,7.43177 -0.87338,3.56934 -2.6368,5.89741 -5.67024,7.48585 -1.90934,0.99982 -2.66103,1.25301 -6.60938,2.22639 -1.55421,0.38314 -3.7436,1.05074 -4.86533,1.48356 l -2.0395,0.78694 -0.10532,-2.69199 z m 41.4847,1.27157 c -0.77896,-0.46355 -4.37573,-1.36121 -8.2892,-2.06872 -4.65105,-0.84086 -5.88672,-1.23185 -7.56247,-2.39296 -3.6697,-2.54271 -5.21146,-7.40653 -4.86381,-15.3441 0.1593,-3.63735 0.24557,-4.17464 0.67027,-4.17464 0.84898,0 2.30604,-1.12589 3.12487,-2.41464 0.18364,-0.28901 0.69228,-0.17414 3.9977,0.90297 6.22431,2.02821 8.16863,2.9949 10.29819,5.12018 1.29583,1.2932 2.27375,3.03995 2.78758,4.97903 0.28478,1.07466 0.34565,2.00901 0.28442,4.36456 -0.0429,1.64845 -0.0862,4.85176 -0.0963,7.11846 -0.0102,2.26671 -0.0183,4.11827 -0.0183,4.11461 0,-0.004 -0.14979,-0.0958 -0.33288,-0.20475 z m 8.74909,-15.00682 c -1.83753,-0.22016 -4.67125,-1.0482 -6.61756,-1.93368 -1.33573,-0.6077 -1.55178,-0.79456 -2.15124,-1.86067 -0.36653,-0.65179 -1.2063,-1.73442 -1.86615,-2.40581 l -1.19973,-1.22071 1.59615,-0.14717 c 1.76095,-0.16235 3.68575,-0.74417 4.97841,-1.50485 l 0.84161,-0.49527 1.04606,0.41937 c 1.54132,0.61796 3.47452,2.10779 5.05014,3.89197 1.41314,1.60019 3.57941,3.51202 4.91639,4.33887 0.67044,0.41464 0.69784,0.46822 0.30443,0.59528 -0.61349,0.19812 -3.81216,0.55643 -4.68925,0.52531 -0.40503,-0.0144 -1.3992,-0.10557 -2.20926,-0.20264 z m -56.17818,-2.77997 c -1.04151,-0.22307 -3.12054,-0.47097 -4.62006,-0.55084 l -2.7264,-0.14522 1.54048,-1.46825 c 1.83844,-1.75223 4.35013,-3.37031 6.60521,-4.25516 l 1.6445,-0.64527 1.303,0.65101 c 1.42813,0.71354 3.718,1.28099 5.1927,1.2868 l 0.944,0.004 -1.04921,0.72164 c -1.29081,0.88779 -3.01803,2.72677 -3.69733,3.93659 l -0.50798,0.90467 -1.36763,-0.0171 c -0.75219,-0.009 -2.21977,-0.19955 -3.26128,-0.42264 z m 42.81745,-5.96861 c -0.52074,-0.0803 -1.62043,-0.44292 -2.44373,-0.80585 -0.82329,-0.36294 -3.3087,-1.25094 -5.52313,-1.97333 l -4.02624,-1.31345 -0.002,-0.90281 c 0,-0.49655 -0.14273,-1.17875 -0.3156,-1.51602 -0.17291,-0.33727 -0.31435,-0.70518 -0.31435,-0.81759 0,-0.1124 0.7502,-1.05569 1.66708,-2.09621 2.10949,-2.39389 3.68784,-4.56745 4.90091,-6.74905 0.8068,-1.451 1.16527,-1.86093 2.34604,-2.68301 1.95311,-1.35976 3.04281,-1.73279 5.44722,-1.86461 2.6087,-0.14303 4.09935,0.20538 8.06241,1.88453 3.01925,1.27929 5.67086,2.19949 7.08567,2.45898 0.78151,0.14333 0.98958,0.37384 0.5736,0.63543 -0.48018,0.30196 -2.79714,4.08624 -4.65201,7.59815 -2.38341,4.51256 -3.63669,6.02451 -5.9407,7.1668 -2.09979,1.04105 -4.36435,1.36362 -6.86591,0.97804 z m -35.45327,-0.46961 c -3.87724,-0.50135 -6.8292,-3.07623 -9.65963,-8.42583 -1.30713,-2.47049 -2.67927,-4.65147 -3.74539,-5.95328 -0.46364,-0.56615 -0.80905,-1.05872 -0.76756,-1.09461 0.0415,-0.0359 0.95194,-0.31827 2.02325,-0.62753 1.07129,-0.30924 3.48569,-1.24678 5.36532,-2.08342 6.05525,-2.69526 7.49845,-3.04441 10.20623,-2.46923 2.29737,0.48798 3.86643,1.4375 6.04827,3.66013 2.0218,2.05958 3.33696,3.8781 5.33591,7.37823 l 1.24511,2.18013 -0.54984,1.00099 c -0.40678,0.74054 -0.55156,1.31379 -0.55638,2.20308 l -0.007,1.20206 -2.41965,0.59723 c -1.33081,0.3285 -3.50851,0.96968 -4.83932,1.42484 -1.92837,0.65958 -5.48277,1.37196 -6.10175,1.22296 -0.0579,-0.0139 -0.76797,-0.11102 -1.57804,-0.21575 z m 17.88445,-1.02765 c -1.23727,-0.5136 -2.17498,-2.31286 -1.92027,-3.68457 0.45111,-2.42923 3.16378,-3.71914 4.96619,-2.3615 2.01389,1.5169 1.98999,4.55797 -0.0457,5.82087 -0.71184,0.44162 -2.20823,0.55392 -3.00018,0.2252 z m 3.37172,-7.08635 c -0.93805,-0.61005 -2.29254,-0.75081 -3.31033,-0.34401 -0.47074,0.18814 -0.92404,0.29921 -1.00734,0.24682 -0.0834,-0.0524 -0.75123,-1.16139 -1.48424,-2.46443 -0.73302,-1.30307 -1.96721,-3.21944 -2.74262,-4.25865 -2.23634,-2.99711 -3.07983,-5.50758 -2.87452,-8.55546 0.20494,-3.04214 1.60299,-5.66784 4.96471,-9.32428 1.96515,-2.13743 4.01595,-4.74073 4.76236,-6.04535 l 0.38664,-0.67581 0.77742,1.21101 c 1.15305,1.79609 2.39412,3.35526 5.0661,6.36454 1.31998,1.4866 2.71084,3.19915 3.09083,3.80567 2.06367,3.29395 1.98351,7.32664 -0.22972,11.55835 -1.01211,1.93516 -3.53445,5.38665 -5.45088,7.45881 l -1.32244,1.4299 -0.62597,-0.40711 z m -12.94516,-11.45816 c -1.31903,-1.02334 -3.26926,-1.93673 -4.7815,-2.23945 l -1.2795,-0.25613 -0.6531,-1.44171 c -0.4651,-1.02668 -0.79932,-2.33403 -1.16103,-4.54159 -0.52787,-3.22158 -0.96824,-5.00919 -1.60853,-6.52944 l -0.37595,-0.89267 0.77429,0.32539 c 3.22518,1.35531 6.87667,4.505 8.99478,7.7587 0.86008,1.32117 0.90455,1.46127 0.71908,2.26464 -0.28564,1.23733 -0.24584,3.66031 0.0835,5.08451 0.15657,0.67704 0.27346,1.22454 0.25972,1.21666 -0.0137,-0.008 -0.45104,-0.34489 -0.9718,-0.74891 z m 22.85465,-0.25366 c 0.0967,-0.20607 0.18407,-1.70043 0.19403,-3.32085 l 0.0181,-2.94616 0.72269,-0.76832 c 0.89335,-0.94973 2.62753,-2.16917 4.31838,-3.0366 1.69741,-0.87077 3.97083,-2.44895 5.10814,-3.54599 l 0.91883,-0.88631 -0.14515,1.57885 c -0.30608,3.32938 -1.49729,6.75475 -3.33045,9.57688 l -1.09734,1.68934 -1.47284,0.14213 c -1.6126,0.15561 -2.84579,0.54836 -4.27658,1.36204 -1.10827,0.63025 -1.18699,0.64299 -0.95786,0.15499 z"
       id="path3868"
       inkscape:connector-curvature="0" />
  </g>
</svg>
