<?xml version="1.0" encoding="UTF-8" standalone="no"?>
<!-- Created with Inkscape (http://www.inkscape.org/) -->

<svg
   xmlns:dc="http://purl.org/dc/elements/1.1/"
   xmlns:cc="http://creativecommons.org/ns#"
   xmlns:rdf="http://www.w3.org/1999/02/22-rdf-syntax-ns#"
   xmlns:svg="http://www.w3.org/2000/svg"
   xmlns="http://www.w3.org/2000/svg"
   xmlns:sodipodi="http://sodipodi.sourceforge.net/DTD/sodipodi-0.dtd"
   xmlns:inkscape="http://www.inkscape.org/namespaces/inkscape"
   width="446.43225"
   height="295.0499"
   id="svg4081"
   version="1.1"
   inkscape:version="0.48.4 r9939"
   sodipodi:docname="Nieuw document 13">
  <defs
     id="defs4083" />
  <sodipodi:namedview
     id="base"
     pagecolor="#ffffff"
     bordercolor="#666666"
     borderopacity="1.0"
     inkscape:pageopacity="0.0"
     inkscape:pageshadow="2"
     inkscape:zoom="1.979899"
     inkscape:cx="345.63277"
     inkscape:cy="182.63615"
     inkscape:document-units="px"
     inkscape:current-layer="layer1"
     showgrid="false"
     fit-margin-top="0"
     fit-margin-left="0"
     fit-margin-right="0"
     fit-margin-bottom="0"
     inkscape:window-width="1600"
     inkscape:window-height="837"
     inkscape:window-x="-8"
     inkscape:window-y="-8"
     inkscape:window-maximized="1" />
  <metadata
     id="metadata4086">
    <rdf:RDF>
      <cc:Work
         rdf:about="">
        <dc:format>image/svg+xml</dc:format>
        <dc:type
           rdf:resource="http://purl.org/dc/dcmitype/StillImage" />
        <dc:title></dc:title>
      </cc:Work>
    </rdf:RDF>
  </metadata>
  <g
     inkscape:label="Laag 1"
     inkscape:groupmode="layer"
     id="layer1"
     transform="translate(-108.25135,-387.56968)">
    <rect
       style="fill:#ffffff;fill-opacity:1;fill-rule:evenodd;stroke:none"
       id="rect3015"
       width="446.50281"
       height="295.19443"
       x="108.17355"
       y="387.67453" />
    <path
       style="fill:#000000"
       d="m 108.25525,662.29787 0,-20.3185 1.8526,-0.2157 c 3.4339,-0.3998 7.238,-1.8877 10.3199,-4.0363 0.7532,-0.525 3.2866,-2.8708 5.6298,-5.2128 5.4833,-5.4803 8.1079,-7.2709 12.941,-8.8281 2.9503,-0.9505 8.5111,-1.0376 11.5562,-0.1808 4.6829,1.3174 9.1558,4.3258 13.6942,9.2102 3.4748,3.7399 5.4048,5.2637 8.7323,6.8949 4.4333,2.1732 8.6209,2.7553 13.2565,1.8423 5.0731,-0.999 8.7444,-3.3097 14.2589,-8.9745 6.5741,-6.7532 11.0095,-9.156 17.7195,-9.5987 4.8913,-0.3227 9.7679,1.0847 13.9206,4.0178 1.241,0.8765 4.1051,3.4528 6.3646,5.7252 2.2595,2.2723 4.897,4.663 5.8608,5.3127 7.4637,5.0305 16.1011,5.2013 23.8825,0.4721 0.9507,-0.5779 3.7906,-3.1112 6.3107,-5.6297 7.8947,-7.8893 12.8946,-10.3151 20.3962,-9.8953 6.6812,0.3739 11.397,2.917 17.8024,9.6004 4.9262,5.1402 7.5906,6.958 12.4767,8.5123 2.903,0.9235 7.93928,1.012 10.9554,0.1925 4.56663,-1.2408 8.91277,-4.1508 13.05007,-8.7378 3.88666,-4.309 8.24087,-7.3063 12.66435,-8.7176 2.95795,-0.9436 7.52135,-1.1683 10.56147,-0.5199 5.34371,1.1395 8.74704,3.3087 15.00797,9.5654 6.07039,6.0662 8.955,7.7826 14.71484,8.7553 2.37228,0.4006 3.32991,0.42 5.67641,0.1153 5.7781,-0.7511 10.27059,-3.3359 15.66277,-9.0115 6.6795,-7.0307 11.10531,-9.3935 18.2756,-9.7568 3.91049,-0.1982 7.05977,0.5018 10.78633,2.3977 2.8636,1.4566 6.81336,4.6296 9.05643,7.2751 3.48064,4.1051 8.40562,7.3679 13.00629,8.6166 2.62324,0.7121 7.69596,0.7165 10.34666,0.012 1.08792,-0.2902 3.26212,-1.1886 4.83155,-1.9963 2.55145,-1.313 3.35747,-1.9679 7.61377,-6.1882 5.03867,-4.9961 6.87521,-6.4322 10.44757,-8.1699 5.34459,-2.5996 12.26258,-2.6957 17.71088,-0.246 3.26361,1.4674 6.00256,3.576 10.69026,8.23 5.91658,5.8741 8.76295,7.6155 14.16031,8.6633 3.15716,0.6129 3.72202,0.5176 3.96725,-0.6689 0.10677,-0.5168 0.21036,8.6799 0.23018,20.4371 l 0.036,21.3768 -223.21396,0 -223.2138,0 0,-20.3184 z M 554.46573,534.93631 c 0.003,-0.86134 0.0614,-1.17653 0.13133,-0.70041 0.0699,0.47608 0.0681,1.18081 -0.004,1.56606 -0.0722,0.38523 -0.12945,-0.005 -0.12716,-0.86565 z m -337.11408,-88.2115 c -6.0381,-0.56393 -10.4342,-3.01672 -16.4329,-9.16854 -7.2538,-7.43887 -11.5087,-9.62429 -18.7154,-9.61305 -3.7528,0.006 -5.868,0.50421 -9.2815,2.18675 -3.1762,1.56558 -5.4082,3.34428 -9.1232,7.27038 -3.5844,3.78804 -5.8343,5.57038 -9.0911,7.20157 -3.5186,1.76234 -6.1824,2.28204 -10.6598,2.07975 -4.0581,-0.18334 -6.6942,-0.92209 -9.8985,-2.77394 -2.5073,-1.44901 -3.7034,-2.46406 -8.2438,-6.99585 -2.2595,-2.25521 -5.0099,-4.69679 -6.1118,-5.42571 -2.582,-1.70789 -6.4809,-3.16491 -9.2227,-3.44647 l -2.1636,-0.22217 -0.078,-20.12393 -0.078,-20.12392 223.2162,0 223.21604,0 -0.0415,20.90695 c -0.0229,11.49883 -0.10072,20.58984 -0.1733,20.20224 -0.11688,-0.62452 -0.31445,-0.70474 -1.73577,-0.70474 -3.55494,0 -9.0634,2.19821 -12.26508,4.8945 -0.70527,0.59393 -2.89634,2.73424 -4.86901,4.75623 -6.60991,6.77507 -11.57378,9.19927 -18.7899,9.17639 -7.12102,-0.0226 -11.28474,-2.16107 -18.76381,-9.63718 -4.65457,-4.65268 -6.50914,-6.08412 -9.63989,-7.44036 -5.7958,-2.51075 -12.66239,-2.33464 -18.06027,0.46321 -3.14633,1.63081 -4.44857,2.67983 -8.93357,7.19646 -7.17276,7.22332 -11.52161,9.4099 -18.71528,9.4099 -7.15714,0 -12.39273,-2.63551 -19.01959,-9.57412 -3.73773,-3.9136 -5.13148,-5.06964 -8.09108,-6.71113 -3.15688,-1.75091 -6.30066,-2.53505 -10.14033,-2.52927 -3.52352,0.005 -6.01804,0.52911 -8.8795,1.8645 -2.98334,1.39227 -5.37177,3.28389 -9.58128,7.58827 -4.19243,4.28691 -6.92928,6.32737 -10.41196,7.7627 -2.97834,1.22747 -4.88164,1.59379 -8.28089,1.59379 -7.25814,0 -11.6622,-2.23772 -19.17268,-9.74162 -5.76893,-5.76397 -8.61744,-7.57384 -13.8302,-8.78769 -2.25021,-0.52399 -6.91085,-0.37134 -9.49245,0.31091 -4.8152,1.27249 -7.4363,3.03834 -13.4992,9.09491 -3.5838,3.58004 -5.1216,4.88244 -7.1514,6.05662 -4.1517,2.40169 -6.0513,2.88915 -11.2587,2.88915 -5.2074,0 -7.1069,-0.48746 -11.2586,-2.88915 -2.0298,-1.17418 -3.5676,-2.47658 -7.1514,-6.05662 -6.0592,-6.05276 -8.6733,-7.81484 -13.4992,-9.09935 -2.5881,-0.68887 -7.2084,-0.84037 -9.4774,-0.31074 -5.1651,1.2056 -8.1185,3.05539 -13.5419,8.48138 -4.4053,4.40746 -6.1168,5.82987 -8.9772,7.46151 -3.425,1.95355 -8.3089,2.93099 -12.6291,2.52748 z"
       id="path3951"
       inkscape:connector-curvature="0" />
    <path
       style="fill:#e91a21;fill-opacity:1"
       d="m 247.91495,608.66997 c -5.1767,-7.6821 -9.3812,-14.0847 -9.3434,-14.2279 0.038,-0.1433 4.3078,-6.5461 9.4892,-14.2285 l 9.4207,-13.96798 0.7382,1.02474 c 1.3293,1.84542 18.2043,26.96864 18.2641,27.19144 0.075,0.2778 -18.6994,28.1757 -18.961,28.1757 -0.1076,0 -4.4312,-6.2853 -9.6078,-13.9675 z m 9.0606,-45.77782 c -1.8282,-2.67613 -17.9329,-26.6059 -18.1154,-26.91748 -0.1303,-0.22238 3.5469,-5.96915 9.119,-14.25119 5.1355,-7.63315 9.4346,-13.99422 9.5533,-14.1357 0.2577,-0.30683 18.9566,27.28071 18.988,28.01394 0.022,0.51564 -18.3688,28.11809 -18.749,28.13986 -0.1142,0.006 -0.4722,-0.37569 -0.7959,-0.84943 z m 31.989,-10.96452 c -4.3816,-6.50192 -8.6457,-12.81598 -9.4758,-14.03121 l -1.5094,-2.20947 9.2701,-13.76439 c 5.0986,-7.57038 9.4313,-13.92763 9.6282,-14.12718 0.2729,-0.27678 2.5593,2.90571 9.6393,13.41751 5.1049,7.57921 9.3725,13.94505 9.4835,14.14631 0.1889,0.34247 -18.2905,28.12959 -18.8265,28.3089 -0.1335,0.0447 -3.8278,-5.23852 -8.2094,-11.74047 z m -80.302,-2.44879 c -5.1788,-7.68543 -9.377,-14.11607 -9.3293,-14.29024 0.048,-0.17421 4.2929,-6.56407 9.4337,-14.19972 7.1981,-10.69127 9.43,-13.79807 9.708,-13.51345 0.1985,0.20325 4.5353,6.56187 9.6373,14.13028 l 9.2763,13.76073 -1.3123,1.89992 c -0.7217,1.04494 -4.9658,7.32633 -9.4312,13.95861 -4.4653,6.63228 -8.2195,12.09666 -8.3426,12.14307 -0.1231,0.0464 -4.4611,-6.20374 -9.6399,-13.8892 z m 39.4625,-57.45732 c -5.2334,-7.75769 -9.4708,-14.22113 -9.4165,-14.36319 0.1484,-0.38861 18.9346,-28.20891 18.9985,-28.13492 0.3415,0.39559 18.9873,28.18339 18.9873,28.29672 0,0.14529 -18.4099,27.55994 -18.8495,28.06929 -0.1125,0.13032 -4.4864,-6.11025 -9.7198,-13.8679 z"
       id="path4066"
       inkscape:connector-curvature="0" />
  </g>
</svg>
