<?xml version="1.0" encoding="UTF-8" standalone="no"?>
<!-- Created with Inkscape (http://www.inkscape.org/) -->
<svg
   xmlns:dc="http://purl.org/dc/elements/1.1/"
   xmlns:cc="http://web.resource.org/cc/"
   xmlns:rdf="http://www.w3.org/1999/02/22-rdf-syntax-ns#"
   xmlns:svg="http://www.w3.org/2000/svg"
   xmlns="http://www.w3.org/2000/svg"
   xmlns:sodipodi="http://sodipodi.sourceforge.net/DTD/sodipodi-0.dtd"
   xmlns:inkscape="http://www.inkscape.org/namespaces/inkscape"
   id="svg2542"
   sodipodi:version="0.32"
   inkscape:version="0.45.1"
   width="600"
   height="400"
   version="1.0"
   sodipodi:docbase="C:\TIIKERI\Liput\Alankomaat\provinssit\Limburg - kunnat\svg"
   sodipodi:docname="Landgraaf.svg"
   inkscape:output_extension="org.inkscape.output.svg.inkscape">
  <metadata
     id="metadata2547">
    <rdf:RDF>
      <cc:Work
         rdf:about="">
        <dc:format>image/svg+xml</dc:format>
        <dc:type
           rdf:resource="http://purl.org/dc/dcmitype/StillImage" />
      </cc:Work>
    </rdf:RDF>
  </metadata>
  <defs
     id="defs2545" />
  <sodipodi:namedview
     inkscape:window-height="712"
     inkscape:window-width="1024"
     inkscape:pageshadow="2"
     inkscape:pageopacity="0.0"
     guidetolerance="10.0"
     gridtolerance="10.0"
     objecttolerance="10.0"
     borderopacity="1.0"
     bordercolor="#666666"
     pagecolor="#ffffff"
     id="base"
     showguides="true"
     inkscape:guide-bbox="true"
     inkscape:zoom="0.74715638"
     inkscape:cx="296.80596"
     inkscape:cy="105.2943"
     inkscape:window-x="-4"
     inkscape:window-y="-4"
     inkscape:current-layer="svg2542"
     width="600px"
     height="400px">
    <sodipodi:guide
       orientation="vertical"
       position="67.320955"
       id="guide2551" />
    <sodipodi:guide
       orientation="vertical"
       position="201.00796"
       id="guide2553" />
    <sodipodi:guide
       orientation="vertical"
       position="131.29973"
       id="guide2555" />
    <sodipodi:guide
       orientation="vertical"
       position="138.93899"
       id="guide2557" />
    <sodipodi:guide
       orientation="horizontal"
       position="31.034483"
       id="guide2559" />
    <sodipodi:guide
       orientation="horizontal"
       position="94.058355"
       id="guide2561" />
    <sodipodi:guide
       orientation="vertical"
       position="312.7321"
       id="guide2583" />
  </sodipodi:namedview>
  <g
     id="g2641"
     inkscape:export-filename="C:\TIIKERI\Liput\Alankomaat\provinssit\Limburg - kunnat\svg\Landgraaf.png"
     inkscape:export-xdpi="266.67001"
     inkscape:export-ydpi="266.67001"
     transform="scale(2.2222222,2.2222222)">
    <rect
       y="0"
       x="0"
       height="180"
       width="270"
       id="rect2563"
       style="opacity:1;fill:#f8e000;fill-opacity:1;stroke:none;stroke-opacity:1" />
    <rect
       y="0"
       x="0"
       height="180"
       width="67.5"
       id="rect2565"
       style="opacity:1;fill:#0085cf;fill-opacity:1;stroke:none;stroke-opacity:1" />
    <rect
       y="0"
       x="202.5"
       height="180"
       width="67.5"
       id="rect2567"
       style="opacity:1;fill:#fa4139;fill-opacity:1;stroke:none;stroke-opacity:1" />
    <g
       transform="translate(4.5493502e-2,0)"
       id="g2635">
      <rect
         style="opacity:1;fill:#000000;fill-opacity:1;stroke:none;stroke-opacity:1"
         id="rect2569"
         width="7"
         height="63"
         x="131.5"
         y="85.965515" />
      <path
         style="fill:#2fb134;fill-opacity:1"
         d="M 171.83296,46.22394 C 159.19639,50.86288 149.10928,65.12624 149.10928,78.355646 C 149.10928,83.625467 149.74244,83.719811 157.86597,79.660432 C 168.72952,74.231855 175.87468,63.48849 176.87024,51.08588 C 177.15231,47.57184 176.98399,44.72842 176.49619,44.76718 C 176.00839,44.80593 173.90994,45.46147 171.83296,46.22394 z "
         id="path2629" />
      <path
         style="fill:#2fb134;fill-opacity:1"
         d="M 131.74422,73.717423 C 128.25701,67.766948 126.26897,61.012803 126.26897,55.115851 C 126.26897,49.041316 129.54928,38.518795 132.63379,34.698865 C 134.69155,32.150492 135.25904,31.916313 136.62653,33.05123 C 137.50326,33.77885 139.45046,36.915612 140.95364,40.021812 C 143.29635,44.862825 143.69257,46.957767 143.72783,54.689728 C 143.76596,63.050311 143.513,64.217852 140.26897,70.653932 C 138.34397,74.473091 136.24072,77.752546 135.59509,77.941612 C 134.94946,78.130677 133.21656,76.229792 131.74422,73.717423 z "
         id="path2633" />
      <path
         style="fill:#2fb134;fill-opacity:1"
         d="M 115.62564,81.273098 C 102.98907,76.634158 92.90196,62.370798 92.90196,49.141392 C 92.90196,43.871571 93.53512,43.777227 101.65865,47.836606 C 112.5222,53.265183 119.66736,64.008548 120.66292,76.411158 C 120.94499,79.925198 120.77667,82.768618 120.28887,82.729858 C 119.80107,82.691108 117.70262,82.035568 115.62564,81.273098 z "
         id="path2617" />
    </g>
  </g>
</svg>
