<?xml version="1.0" encoding="UTF-8" standalone="no"?>
<!-- Created with Inkscape (http://www.inkscape.org/) -->

<svg
   xmlns:dc="http://purl.org/dc/elements/1.1/"
   xmlns:cc="http://creativecommons.org/ns#"
   xmlns:rdf="http://www.w3.org/1999/02/22-rdf-syntax-ns#"
   xmlns:svg="http://www.w3.org/2000/svg"
   xmlns="http://www.w3.org/2000/svg"
   xmlns:sodipodi="http://sodipodi.sourceforge.net/DTD/sodipodi-0.dtd"
   xmlns:inkscape="http://www.inkscape.org/namespaces/inkscape"
   width="358.60416"
   height="238.396"
   id="svg4885"
   version="1.1"
   inkscape:version="0.48.4 r9939"
   sodipodi:docname="aa.svg">
  <defs
     id="defs4887" />
  <sodipodi:namedview
     id="base"
     pagecolor="#ffffff"
     bordercolor="#666666"
     borderopacity="1.0"
     inkscape:pageopacity="0.0"
     inkscape:pageshadow="2"
     inkscape:zoom="1.979899"
     inkscape:cx="308.43927"
     inkscape:cy="88.404778"
     inkscape:document-units="px"
     inkscape:current-layer="layer1"
     showgrid="false"
     fit-margin-top="0"
     fit-margin-left="0"
     fit-margin-right="0"
     fit-margin-bottom="0"
     inkscape:window-width="1600"
     inkscape:window-height="837"
     inkscape:window-x="-8"
     inkscape:window-y="-8"
     inkscape:window-maximized="1" />
  <metadata
     id="metadata4890">
    <rdf:RDF>
      <cc:Work
         rdf:about="">
        <dc:format>image/svg+xml</dc:format>
        <dc:type
           rdf:resource="http://purl.org/dc/dcmitype/StillImage" />
        <dc:title></dc:title>
      </cc:Work>
    </rdf:RDF>
  </metadata>
  <g
     inkscape:label="Laag 1"
     inkscape:groupmode="layer"
     id="layer1"
     transform="translate(-177.84077,-295.97888)">
    <rect
       style="fill:#0f47af;fill-opacity:1;fill-rule:evenodd;stroke:none"
       id="rect4726"
       width="358.60416"
       height="238.396"
       x="177.84077"
       y="295.97888" />
    <path
       style="fill:#ffffff;stroke:none"
       d="m 253.96984,385.40178 c 0,3.9208 1.4849,9.8711 5.44074,14.9276 4.338,5.4914 6.52354,10.5721 6.52354,14.8673 l 19.23536,7.6054 29.42537,-7.6054 c -0.23437,-5.0989 -2.84063,-10.0265 -6.60065,-14.8707 -3.41058,-4.6856 -5.32476,-9.6428 -5.45293,-14.9242 l -22.54882,-4.8636 z"
       id="path4740"
       inkscape:connector-curvature="0"
       sodipodi:nodetypes="ccccccccc" />
    <path
       style="fill:#ffffff;stroke:none"
       d="m 253.97254,444.99148 c 0,-3.9207 1.4849,-9.871 5.44074,-14.9275 4.338,-5.4913 6.52354,-10.572 6.52354,-14.8673 l 19.23536,-7.6055 29.42537,7.6055 c -0.23437,5.0988 -2.84063,10.0265 -6.60065,14.8707 -3.41058,4.6856 -5.32476,9.6428 -5.45293,14.9241 l -22.54882,4.8637 z"
       id="path4740-3"
       inkscape:connector-curvature="0"
       sodipodi:nodetypes="ccccccccc" />
    <path
       style="fill:#ffffff;stroke:none"
       d="m 253.97174,444.99078 c 0,3.9209 1.4849,9.8712 5.44074,14.9277 4.338,5.4913 6.52354,10.572 6.52354,14.8672 l 19.23536,7.6055 29.42537,-7.6055 c -0.23437,-5.0988 -2.84063,-10.0264 -6.60065,-14.8706 -3.41058,-4.6856 -5.32476,-9.6428 -5.45293,-14.9243 l -22.54882,-4.8635 z"
       id="path4740-2"
       inkscape:connector-curvature="0"
       sodipodi:nodetypes="ccccccccc" />
    <path
       style="fill:#ffffff;stroke:none"
       d="m 253.97444,504.58058 c 0,-3.9207 1.4849,-9.8711 5.44074,-14.9276 4.338,-5.4913 6.52354,-10.572 6.52354,-14.8673 l 19.23536,-7.6055 29.42537,7.6055 c -0.23437,5.0989 -2.84063,10.0264 -6.60065,14.8708 -3.41058,4.6855 -5.32476,9.6428 -5.45293,14.9241 l -22.54882,4.8637 z"
       id="path4740-3-2"
       inkscape:connector-curvature="0"
       sodipodi:nodetypes="ccccccccc" />
    <path
       style="fill:#ffffff;stroke:none"
       d="m 253.98242,504.56298 c 0,3.9209 1.4849,9.8711 5.44074,14.9277 4.338,5.4913 6.52354,10.5719 6.52354,14.8672 l 19.23536,7.6055 29.42537,-7.6055 c -0.23437,-5.0989 -2.84063,-10.0264 -6.60065,-14.8707 -3.41058,-4.6855 -5.32476,-9.6427 -5.45293,-14.9242 l -22.54882,-4.8637 z"
       id="path4740-1"
       inkscape:connector-curvature="0"
       sodipodi:nodetypes="ccccccccc" />
    <path
       style="fill:#ffffff;stroke:none"
       d="m 253.95596,325.82218 c 0,3.9209 1.4849,9.8712 5.44074,14.9277 4.338,5.4913 6.52354,10.572 6.52354,14.8672 l 19.23536,7.6055 29.42537,-7.6055 c -0.23437,-5.0988 -2.84063,-10.0264 -6.60065,-14.8706 -3.41058,-4.6856 -5.32476,-9.6428 -5.45293,-14.9243 l -22.54882,-4.8635 z"
       id="path4740-8"
       inkscape:connector-curvature="0"
       sodipodi:nodetypes="ccccccccc" />
    <path
       style="fill:#ffffff;stroke:none"
       d="m 253.95866,385.41198 c 0,-3.9207 1.4849,-9.8711 5.44074,-14.9276 4.338,-5.4913 6.52354,-10.572 6.52354,-14.8673 l 19.23536,-7.6055 29.42537,7.6055 c -0.23437,5.0989 -2.84063,10.0265 -6.60065,14.8708 -3.41058,4.6855 -5.32476,9.6428 -5.45293,14.9241 l -22.54882,4.8637 z"
       id="path4740-3-5"
       inkscape:connector-curvature="0"
       sodipodi:nodetypes="ccccccccc" />
    <path
       style="fill:#ffffff;stroke:none"
       d="m 253.95754,325.87568 c 0,-3.9209 1.4849,-9.8711 5.44074,-14.9277 4.338,-5.4913 6.52354,-10.5719 6.52354,-14.8672 l 19.23536,-7.6055 29.42537,7.6055 c -0.23437,5.0989 -2.84063,10.0264 -6.60065,14.8707 -3.41058,4.6855 -5.32476,9.6427 -5.45293,14.9242 l -22.54882,4.8637 z"
       id="path4740-3-61"
       inkscape:connector-curvature="0"
       sodipodi:nodetypes="ccccccccc" />
    <path
       style="fill:#fcdd09;fill-opacity:1"
       d="m 226.50709,511.97828 c -1.17201,-0.075 -2.30236,-0.386 -3.46743,-0.9554 -0.95307,-0.4658 -1.42349,-0.8166 -2.26447,-1.6888 -1.38227,-1.4336 -1.92166,-2.4747 -2.05483,-3.9661 -0.098,-1.0971 -0.0931,-1.1216 0.2344,-1.1907 0.18394,-0.039 2.40427,-0.1078 4.93406,-0.1534 2.52981,-0.045 6.20775,-0.1254 8.1732,-0.1774 l 3.57356,-0.095 0,0.7429 c 0,3.1743 -2.08075,5.8266 -5.49367,7.0028 -0.92025,0.3172 -2.63646,0.544 -3.63482,0.4806 z m -2.90869,-9.8199 c -1.35889,-1.0013 -1.76581,-1.751 -1.75258,-3.2287 0.006,-0.7155 0.0918,-1.1844 0.2851,-1.5649 l 0.27593,-0.5433 3.96073,2.9428 3.96073,2.9428 -1.06144,0.09 c -0.58381,0.05 -1.86389,0.099 -2.84464,0.1091 l -1.78316,0.019 -1.04067,-0.7669 z m 3.81376,-3.5395 c -2.67731,-1.8886 -4.98832,-3.5409 -5.13558,-3.6719 -0.48612,-0.4325 -0.93237,-1.6305 -0.93386,-2.507 -0.002,-0.8416 0.19901,-1.6697 0.47992,-1.9826 0.12493,-0.1391 1.30342,0.6678 5.2533,3.5972 3.25848,2.4165 5.19166,3.9442 5.36833,4.242 0.48465,0.8171 0.45352,3.7561 -0.0398,3.7561 -0.0685,0 -2.31504,-1.5452 -4.99235,-3.4338 z m 0.3406,-5.848 c -2.662,-1.8936 -5.02725,-3.628 -5.25608,-3.8544 -0.56438,-0.5583 -0.93137,-1.7941 -0.83059,-2.7973 0.0879,-0.8749 0.37148,-1.5902 0.6305,-1.5902 0.0952,0 2.46568,1.7015 5.2678,3.7811 4.98959,3.7029 5.09937,3.7952 5.31911,4.4672 0.36074,1.1032 0.23541,3.4891 -0.1811,3.4474 -0.0603,-0.01 -2.28765,-1.5603 -4.94964,-3.4538 z m 0.22551,-5.7859 c -2.67731,-1.8886 -4.98618,-3.541 -5.13081,-3.6721 -0.14464,-0.131 -0.42276,-0.5619 -0.61806,-0.9576 -0.31199,-0.6322 -0.34689,-0.8529 -0.28759,-1.8179 0.0706,-1.1491 0.33059,-1.9527 0.59766,-1.8474 0.0863,0.034 2.46215,1.7754 5.27953,3.8696 l 5.12252,3.8077 0.21482,0.7433 c 0.34133,1.181 0.21075,3.3082 -0.20308,3.3082 -0.0589,0 -2.29769,-1.5453 -4.97499,-3.4338 z m 0.76835,-5.7027 c -2.66026,-1.8935 -4.97575,-3.5737 -5.14554,-3.7337 l -0.3087,-0.2908 0.54589,-0.1007 c 0.30026,-0.055 1.55007,-0.1045 2.77738,-0.1091 l 2.23147,-0.01 2.39967,1.7815 c 2.20173,1.6344 2.41752,1.8345 2.61585,2.4253 0.3563,1.0616 0.23635,3.5303 -0.16956,3.4898 -0.0603,-0.01 -2.28622,-1.5603 -4.94646,-3.4538 z m -19.36817,-1.9574 c -0.18555,-0.417 -0.50584,-1.38 -0.71177,-2.1398 -0.32983,-1.2171 -0.38322,-1.7309 -0.4485,-4.3159 -0.0407,-1.6138 -0.0327,-3.2182 0.018,-3.5653 l 0.0921,-0.631 1.23464,0.6093 c 1.49939,0.74 2.95885,1.2518 4.56054,1.5992 1.7863,0.3873 4.95034,0.3522 7.07635,-0.079 1.53904,-0.3119 4.60014,-1.2711 5.35698,-1.6785 0.31394,-0.169 0.49952,-0.1127 1.93061,0.5863 2.50873,1.2253 5.3454,1.9485 7.64354,1.9485 2.92078,0 6.20167,-1.1274 8.53784,-2.9336 0.41461,-0.3206 0.7762,-0.5599 0.80353,-0.5319 0.0273,0.028 0.14983,0.7889 0.27223,1.6906 0.28898,2.129 0.28956,5.4515 0.002,7.0133 -0.17542,0.9502 -0.67423,2.6607 -0.83704,2.8703 -0.0161,0.021 -0.57856,-0.2269 -1.24996,-0.5501 -1.68046,-0.8092 -5.0633,-1.9418 -7.10325,-2.3782 -8.71465,-1.8644 -18.25835,-0.9155 -25.34606,2.5198 l -1.49365,0.7239 -0.33737,-0.7582 z m 22.10154,-1.1841 c -0.68762,-0.5147 -1.29173,-0.9793 -1.34247,-1.0325 -0.0845,-0.089 0.65444,-0.034 2.20756,0.1635 l 0.60149,0.076 -0.0103,0.6092 c -0.0197,1.2108 -0.0748,1.2177 -1.45662,0.1834 z m 1.39581,-7.963 c -0.31136,-0.079 -1.04376,-0.3007 -1.62756,-0.4942 l -1.06145,-0.352 -1.22931,-4.3988 -1.2293,-4.3989 -0.75207,-50.3169 -0.75208,-50.3169 -0.0731,50.8986 -0.0731,50.8987 -1.06062,3.6304 -1.0606,3.6304 -1.11322,0.3277 c -1.28723,0.3789 -3.29827,0.7213 -3.43164,0.5843 -0.12922,-0.1328 -0.92926,-117.7201 -0.84468,-124.1491 0.0383,-2.9194 0.13619,-6.0278 0.2173,-6.9076 0.91407,-9.9149 2.7363,-15.5968 6.58779,-20.5413 0.4517,-0.5798 0.87244,-1.0543 0.93502,-1.0543 0.2173,0 1.95328,2.8459 2.79428,4.5809 2.47594,5.1078 3.81844,11.3766 4.26673,19.9232 0.12589,2.4003 0.71151,104.4014 0.71072,123.7927 l 0,4.8354 -0.31844,-0.015 c -0.17514,-0.01 -0.57319,-0.079 -0.88455,-0.1573 z m -4.90718,-1.9473 -0.94441,-0.4907 -1.01591,0.4304 c -0.65977,0.2795 -0.99045,0.3623 -0.9433,0.236 0.04,-0.1069 0.30632,-1.0057 0.59197,-1.9974 0.28564,-0.9916 0.68348,-2.3592 0.88409,-3.0391 l 0.36474,-1.2361 1.03094,3.2683 c 0.56703,1.7974 1.01867,3.2796 1.00363,3.2937 -0.0151,0.014 -0.45232,-0.1952 -0.97175,-0.4651 z"
       id="path4695-1"
       inkscape:connector-curvature="0" />
    <path
       style="fill:#fcdd09;fill-opacity:1"
       d="m 355.77743,517.30711 c -0.1874,-0.04 -0.2843,-0.5609 -1.3574,-7.3013 -0.6356,-3.9919 -1.179,-7.3879 -1.2079,-7.5467 l -0.052,-0.2886 0.4779,0.1515 c 1.324,0.4199 3.2725,0.4152 4.4819,-0.01 0.2597,-0.092 0.4888,-0.1487 0.5086,-0.1272 0.02,0.022 -0.3572,3.366 -0.8385,7.4321 -0.4812,4.066 -0.8758,7.476 -0.8766,7.5777 0,0.1519 -0.085,0.1823 -0.4676,0.1704 -0.2563,-0.01 -0.557,-0.034 -0.6681,-0.057 z m -1.1224,-15.9479 c -1.4589,-0.3117 -2.5506,-1.1011 -2.5506,-1.8443 0,-0.4551 0.6964,-1.1665 1.4316,-1.4628 0.8784,-0.354 1.5558,-0.4555 2.6888,-0.4029 1.6436,0.076 2.9348,0.6679 3.3109,1.5173 0.1466,0.3313 0.1466,0.3872 0,0.7184 -0.2124,0.4795 -0.7196,0.8793 -1.5219,1.1996 -0.5487,0.219 -0.8691,0.2691 -1.8871,0.2955 -0.6746,0.017 -1.3366,0.01 -1.4717,-0.021 z m -0.2942,-57.05 0,-52.2728 1.5205,0 1.5207,0 0,52.2728 0,52.2728 -0.211,-0.072 c -0.1162,-0.039 -0.7054,-0.072 -1.3097,-0.072 -0.6041,0 -1.1934,0.033 -1.3094,0.072 l -0.2111,0.072 0,-52.2728 z m -7.1716,8.1315 c 0.8958,-1.9312 -1.1196,-4.0827 -5.8649,-6.2607 -0.7762,-0.3561 -2.4978,-1.0435 -3.8261,-1.5274 -3.4089,-1.2419 -5.1358,-2.1169 -6.9796,-3.5361 -2.3332,-1.7958 -3.7085,-3.7293 -4.3281,-6.0844 -0.2914,-1.1082 -0.3157,-3.0961 -0.052,-4.2784 0.2429,-1.0894 0.7793,-2.5147 1.3642,-3.625 0.5275,-1.0014 1.6283,-2.6619 1.7077,-2.5763 0.025,0.029 0,0.3542 -0.066,0.7234 -0.2042,1.1941 0.033,3.1654 0.5373,4.4743 0.4765,1.2357 0.8977,1.9146 1.7705,2.8545 1.7127,1.8444 2.9298,2.2199 6.0354,1.8622 2.4768,-0.2854 5.0736,0.1179 7.2289,1.1225 2.398,1.1179 4.3578,3.2527 5.2587,5.7285 0.711,1.9535 0.7721,4.5284 0.1562,6.5687 -0.4788,1.5861 -1.4009,3.1687 -2.543,4.365 l -0.6051,0.6339 0.2064,-0.4447 z m -12.7976,-18.9829 c -2.6686,-0.9001 -4.5063,-4.0841 -4.3327,-7.5064 0.093,-1.8423 0.6017,-3.1919 1.5756,-4.1852 3.5056,-3.575 8.9733,-6.8275 15.4666,-9.2004 1.3147,-0.4805 5.0255,-1.6567 5.7637,-1.827 l 0.3188,-0.074 0,4.5774 -9e-4,4.5773 -0.7595,0.2476 c -4.026,1.3124 -8.0731,3.4552 -11.0923,5.8727 -1.3764,1.102 -3.1566,3.0315 -3.879,4.2042 -0.5764,0.9358 -1.1701,2.3442 -1.2921,3.0655 l -0.067,0.3961 -0.6513,-0.01 c -0.3582,-0.01 -0.8301,-0.067 -1.0488,-0.1411 z m 24.1876,-19.5433 0,-4.5848 0.5151,-0.1315 c 0.7731,-0.1975 3.2072,-1.1052 4.2787,-1.5955 2.6378,-1.2071 4.7519,-2.5878 6.6763,-4.3598 0.6723,-0.6191 1.3174,-1.3557 2.4586,-2.808 l 0.2076,-0.2641 -0.066,0.3697 c -0.1035,0.5819 -0.9079,3.2213 -1.3358,4.384 -1.0833,2.9438 -2.9131,6.2828 -4.768,8.701 -0.7077,0.9226 -3.1162,3.5715 -3.394,3.7329 -0.3787,0.2201 -3.9248,1.1389 -4.401,1.1405 -0.161,0 -0.1718,-0.2881 -0.1718,-4.5844 z m 7.4538,1.8715 c 3.9892,-4.5998 6.678,-10.3776 8.0006,-17.1926 0.191,-0.9838 0.4354,-2.0772 0.5431,-2.4298 1.6315,-5.34 0.093,-11.1857 -4.1278,-15.6948 -0.5168,-0.552 -1.1928,-1.2125 -1.5024,-1.468 l -0.563,-0.4643 -0.2357,0.2385 c -0.1929,0.195 -0.219,0.2855 -0.1441,0.4976 0.3863,1.0943 -0.463,2.5361 -1.561,2.6497 -1.4108,0.1461 -2.421,-1.1515 -2.0221,-2.5976 0.1484,-0.5387 0.7732,-1.2856 1.0752,-1.2856 0.081,0 0.1469,-0.054 0.1469,-0.1222 0,-0.067 -0.3091,-1.5197 -0.6868,-3.2278 -0.3777,-1.7081 -0.6866,-3.1214 -0.6866,-3.1404 0,-0.019 -0.276,-0.055 -0.6133,-0.079 -0.4328,-0.032 -0.7174,-0.1185 -0.9678,-0.2972 -0.4463,-0.3187 -0.8016,-0.8693 -0.8026,-1.244 0,-0.6395 0.2015,-1.6164 0.3806,-1.8297 0.6041,-0.7192 1.8707,-0.8416 2.5532,-0.2468 0.5007,0.4365 0.7252,0.9321 0.7252,1.6019 0,0.3059 0.033,0.5584 0.073,0.561 0.041,0 2.0038,0.1831 4.363,0.401 l 4.2893,0.3962 0.098,-0.3 c 0.3514,-1.0857 1.4182,-1.6287 2.4674,-1.2558 0.507,0.1802 0.9748,0.7502 1.124,1.3697 0.1531,0.6351 0.069,1.1304 -0.2953,1.7215 l -0.2596,0.4225 0.2752,0.2299 c 0.1514,0.1264 0.7387,0.6864 1.3053,1.2446 4.2214,4.1593 6.8788,8.8718 7.6665,13.5947 0.2713,1.6266 0.2926,4.5553 0.043,6.0457 -0.6423,3.8505 -2.1586,7.2516 -4.8039,10.7753 -0.8253,1.0995 -3.159,3.5939 -4.2894,4.5847 -2.7813,2.4384 -6.2538,4.7128 -9.45749,6.1943 -1.11031,0.5135 -2.64871,1.1585 -2.76331,1.1585 -0.029,0 0.2649,-0.3653 0.6521,-0.8119 z m 4.8581,-40.7572 c 1.8886,-1.6716 3.4484,-3.0805 3.4663,-3.131 0.017,-0.05 -0.03,-0.092 -0.1081,-0.092 -0.2065,0 -8.1907,-0.7242 -8.6804,-0.7873 -0.3236,-0.042 -0.4169,-0.019 -0.4169,0.1009 0,0.1725 1.4428,6.7152 1.4904,6.7583 0.1761,0.1598 0.6402,0.3356 0.7168,0.2718 0.053,-0.044 1.6432,-1.4494 3.5317,-3.1212 z m 3.8494,-1.955 c 0.1748,-0.137 0.2987,-0.2694 0.2753,-0.2946 -0.045,-0.048 -1.2306,0.9246 -1.2306,1.0095 0,0.028 0.14351,-0.066 0.3189,-0.208 0.1752,-0.1418 0.4617,-0.37 0.6364,-0.5069 z m -20.4288,17.6556 c -2.1753,-0.5773 -2.7885,-1.8886 -1.344,-2.875 0.6811,-0.4652 1.0301,-0.528 3.0123,-0.5417 l 1.8085,-0.013 0.7454,0.3968 c 1.1372,0.6051 1.4148,1.2823 0.8235,2.0074 -0.837,1.0266 -3.2175,1.5103 -5.0457,1.0251 z m 0.5818,-4.8804 c -1.8859,-0.1932 -3.5064,-1.0939 -3.7353,-2.076 -0.079,-0.3378 0.2031,-0.9251 0.5952,-1.2405 0.2478,-0.1993 0.2691,-0.2001 0.5253,-0.024 1.134,0.7818 2.1619,1.1291 3.3422,1.1291 1.3288,0 2.3769,-0.3458 3.3648,-1.1101 l 0.4771,-0.369 0.4902,0.5088 c 0.4015,0.4169 0.4901,0.5743 0.4899,0.8716 0,0.8015 -0.7176,1.4737 -2.06819,1.9401 -0.66131,0.2283 -0.9939,0.2875 -2.34611,0.4175 -0.18889,0.018 -0.6996,0 -1.1351,-0.047 z m -0.091,-4.2616 c -1.2453,-0.3329 -2.2493,-1.2674 -2.8735,-2.6751 -0.3572,-0.8054 -0.3638,-0.8437 -0.3638,-2.0881 0,-1.237 0.013,-1.2869 0.3519,-2.0601 0.4728,-1.0642 1.2032,-1.9081 2.0324,-2.3479 0.6117,-0.3243 0.7165,-0.3458 1.6846,-0.3458 0.9523,0 1.082,0.026 1.6701,0.3277 1.70331,0.8754 2.7853,3.1426 2.4719,5.1797 -0.31659,2.0575 -1.7125,3.6976 -3.449,4.0522 -0.6437,0.1315 -0.89999,0.1244 -1.5246,-0.042 z m 3.1394,-11.0488 c -1.2342,-0.6266 -2.7677,-0.6845 -4.2326,-0.1599 -0.7941,0.2844 -0.8011,0.2849 -1.1772,0.093 -0.2081,-0.1061 -0.56579,-0.3948 -0.79519,-0.6413 -0.32621,-0.3507 -0.41701,-0.5262 -0.41701,-0.8053 0,-1.4716 2.856,-2.6373 5.615,-2.2919 0.9296,0.1164 1.8986,0.3938 2.45281,0.7019 0.6601,0.3674 1.25199,1.1338 1.25199,1.6216 0,0.3532 -0.7551,1.1389 -1.426,1.4836 -0.33729,0.1734 -0.62899,0.311 -0.6483,0.306 -0.019,-0.01 -0.2998,-0.1436 -0.6235,-0.3078 z m -4.0405,-5.3734 c -1.4695,-0.5444 -2.0134,-1.4997 -1.3034,-2.2887 0.1702,-0.189 0.4545,-0.4278 0.6319,-0.5306 l 0.3224,-0.187 -0.1969,-0.7489 c -0.27949,-1.0624 -0.2053,-2.5617 0.1778,-3.6011 0.5799,-1.5728 1.7363,-2.9852 3.3786,-4.1268 0.2429,-0.1688 2.0307,-1.5898 3.97321,-3.1577 2.8134,-2.2708 3.77189,-3.1093 4.71299,-4.1215 4.4511,-4.7886 5.8019,-10.0504 3.7754,-14.7068 -0.6466,-1.4861 -1.4929,-2.707 -2.9988,-4.3265 l -1.3889,-1.4938 -1.5108,-0.7963 c -2.2044,-1.1619 -4.009,-1.7913 -6.4649,-2.2545 -1.4516,-0.2739 -5.4144,-0.2742 -6.7692,0 -3.285,0.6634 -5.6027,1.7182 -7.8952,3.5933 -2.5118,2.0544 -3.9121,4.4527 -4.1643,7.1317 -0.2541,2.6999 0.8069,5.0969 3.048,6.8862 1.3481,1.0764 2.5038,1.5402 4.1134,1.6506 1.5928,0.1094 2.9098,-0.3242 3.895,-1.2821 0.975,-0.948 1.2331,-1.7109 1.2134,-3.586 -0.013,-0.692 0.031,-1.4335 0.085,-1.6475 0.479,-1.9159 2.977,-2.4962 4.2168,-0.9794 0.5174,0.633 0.6896,1.2772 0.7563,2.8289 0.2608,6.0666 -4.5016,10.5703 -10.6557,10.0767 -2.5766,-0.2067 -4.7796,-1.1274 -6.8749,-2.8733 -4.8851,-4.0704 -6.2548,-10.6101 -3.4736,-16.5833 0.6639,-1.426 1.3273,-2.397 2.6305,-3.8506 3.6393,-4.0595 8.4853,-6.4162 14.3813,-6.9939 4.06,-0.398 8.6209,0.4069 12.6554,2.2334 2.0017,0.9062 3.4049,1.775 4.5026,2.7879 3.5175,3.246 5.5767,6.7401 6.4069,10.8718 0.3161,1.5726 0.3123,4.5029 -0.013,6.1218 -0.8782,4.4411 -3.3679,8.7631 -7.0266,12.1969 -0.9285,0.8716 -6.8737,5.7328 -8.539,6.9822 -0.4258,0.3196 -0.9006,0.7754 -1.0548,1.0129 l -0.2803,0.4317 0.1662,0.6156 c 0.1139,0.4183 0.147,0.7909 0.1057,1.1635 l -0.059,0.5481 0.3964,0.1925 c 0.53751,0.2611 0.9753,0.8142 0.9753,1.2323 0,0.1896 -0.1046,0.4779 -0.2472,0.6785 -0.2887,0.4076 -1.3799,1.0059 -1.8423,1.0103 -0.1728,0 -0.8924,-0.01 -1.5994,-0.02 -0.707,-0.013 -1.3693,0.01 -1.4716,0.038 -0.1023,0.034 -0.4151,-0.024 -0.6949,-0.1278 z"
       id="path5010"
       inkscape:connector-curvature="0" />
  </g>
</svg>
