<?xml version="1.0" encoding="UTF-8" standalone="no"?>
<!-- Created with Inkscape (http://www.inkscape.org/) -->

<svg
   xmlns:dc="http://purl.org/dc/elements/1.1/"
   xmlns:cc="http://creativecommons.org/ns#"
   xmlns:rdf="http://www.w3.org/1999/02/22-rdf-syntax-ns#"
   xmlns:svg="http://www.w3.org/2000/svg"
   xmlns="http://www.w3.org/2000/svg"
   xmlns:sodipodi="http://sodipodi.sourceforge.net/DTD/sodipodi-0.dtd"
   xmlns:inkscape="http://www.inkscape.org/namespaces/inkscape"
   width="327.28943"
   height="216.17265"
   id="svg3835"
   version="1.1"
   inkscape:version="0.48.4 r9939"
   sodipodi:docname="Nieuw document 6">
  <defs
     id="defs3837" />
  <sodipodi:namedview
     id="base"
     pagecolor="#ffffff"
     bordercolor="#666666"
     borderopacity="1.0"
     inkscape:pageopacity="0.0"
     inkscape:pageshadow="2"
     inkscape:zoom="0.98994949"
     inkscape:cx="331.06747"
     inkscape:cy="31.521696"
     inkscape:document-units="px"
     inkscape:current-layer="layer1"
     showgrid="false"
     fit-margin-top="0"
     fit-margin-left="0"
     fit-margin-right="0"
     fit-margin-bottom="0"
     inkscape:window-width="1600"
     inkscape:window-height="837"
     inkscape:window-x="-8"
     inkscape:window-y="-8"
     inkscape:window-maximized="1" />
  <metadata
     id="metadata3840">
    <rdf:RDF>
      <cc:Work
         rdf:about="">
        <dc:format>image/svg+xml</dc:format>
        <dc:type
           rdf:resource="http://purl.org/dc/dcmitype/StillImage" />
        <dc:title></dc:title>
      </cc:Work>
    </rdf:RDF>
  </metadata>
  <g
     inkscape:label="Laag 1"
     inkscape:groupmode="layer"
     id="layer1"
     transform="translate(-139.21243,-224.27585)">
    <rect
       style="fill:#ffffff;fill-opacity:1;fill-rule:evenodd;stroke:none"
       id="rect3004"
       width="327.28943"
       height="216.17265"
       x="139.21243"
       y="224.27585" />
    <path
       style="fill:#ff0033;fill-opacity:1;stroke:none"
       d="m 234.29304,325.79618 24.36993,-31.56726 -24.36993,-31.81981 15.27856,0 17.17259,22.72843 17.04632,-22.72843 15.27856,0 -24.4962,31.81981 24.4962,31.56726 -15.53109,0 -16.79379,-21.46574 -16.79379,21.46574 z"
       id="path3794"
       inkscape:connector-curvature="0" />
    <path
       style="fill:#ff0033;fill-opacity:1;stroke:none"
       d="m 301.48756,325.85775 24.36993,-31.56726 -24.36993,-31.81981 15.27856,0 17.17259,22.72843 17.04632,-22.72843 15.27856,0 -24.4962,31.81981 24.4962,31.56726 -15.53109,0 -16.79379,-21.46574 -16.79379,21.46574 z"
       id="path3794-1"
       inkscape:connector-curvature="0" />
    <path
       style="fill:#ff0033;fill-opacity:1;stroke:none"
       d="m 267.02328,400.50061 24.36993,-31.56726 -24.36993,-31.81981 15.27856,0 17.17259,22.72843 17.04632,-22.72843 15.27856,0 -24.4962,31.81981 24.4962,31.56726 -15.53109,0 -16.79379,-21.46574 -16.79379,21.46574 z"
       id="path3794-7"
       inkscape:connector-curvature="0" />
  </g>
</svg>
