<?xml version="1.0" encoding="UTF-8"?>
<svg xmlns="http://www.w3.org/2000/svg" xmlns:xlink="http://www.w3.org/1999/xlink" height="600" width="900">
<path d="M0,0H900V600H0z" fill="#00529b"/>
<path d="M0,200H900V400H0z" fill="#fff"/>
<g id="d">
<path d="m81.587,277.68c-3.7124,9.1692,10.735,15.226,29.636,13.249,4.222,7.9918,6.5221,5.8488,10.809,10.111,5.3478,6.2082-2.4437,11.776-5.23,19.176-2.7862,7.4007-4.6584,22.002,6.2759,23.709,10.934,1.7068,94.363-0.57323,101.81-0.34867,7.4469,0.22456,10.384-8.3256,13.249-13.947,2.865-5.621,4.8932-7.5021,8.8713-10.41,3.978-2.9082,13.476-11.755,6.8186-17.483-20.957,10.791-49.877-15.641-67.989-17.782-18.112-2.1411-29.367,10.897-34.866,12.552-5.4302-3.9137,6.4035-17.114,1.046-23.709-5.3575-6.5948-17.933-13.182-27.893-9.0652-9.96,4.1172-8.9071,9.3516-13.947,12.552-5.0394,3.2002-24.631,2.0871-28.59,1.3947z" fill="#1f1f21"/>
<circle cx="129.1" cy="279" r="3" fill="#fff"/>
</g>
<use xlink:href="#d" x="281"/>
<use xlink:href="#d" x="562"/>
</svg>
