<?xml version="1.0" encoding="UTF-8" standalone="no"?>
<!-- Created with Inkscape (http://www.inkscape.org/) -->

<svg
   xmlns:dc="http://purl.org/dc/elements/1.1/"
   xmlns:cc="http://creativecommons.org/ns#"
   xmlns:rdf="http://www.w3.org/1999/02/22-rdf-syntax-ns#"
   xmlns:svg="http://www.w3.org/2000/svg"
   xmlns="http://www.w3.org/2000/svg"
   xmlns:sodipodi="http://sodipodi.sourceforge.net/DTD/sodipodi-0.dtd"
   xmlns:inkscape="http://www.inkscape.org/namespaces/inkscape"
   width="358.6875"
   height="237.25"
   id="svg3956"
   version="1.1"
   inkscape:version="0.48.4 r9939"
   sodipodi:docname="Nieuw document 11">
  <defs
     id="defs3958" />
  <sodipodi:namedview
     id="base"
     pagecolor="#ffffff"
     bordercolor="#666666"
     borderopacity="1.0"
     inkscape:pageopacity="0.0"
     inkscape:pageshadow="2"
     inkscape:zoom="1.979899"
     inkscape:cx="263.7741"
     inkscape:cy="106.11494"
     inkscape:document-units="px"
     inkscape:current-layer="layer1"
     showgrid="false"
     fit-margin-top="0"
     fit-margin-left="0"
     fit-margin-right="0"
     fit-margin-bottom="0"
     inkscape:window-width="1600"
     inkscape:window-height="837"
     inkscape:window-x="-8"
     inkscape:window-y="-8"
     inkscape:window-maximized="1" />
  <metadata
     id="metadata3961">
    <rdf:RDF>
      <cc:Work
         rdf:about="">
        <dc:format>image/svg+xml</dc:format>
        <dc:type
           rdf:resource="http://purl.org/dc/dcmitype/StillImage" />
        <dc:title></dc:title>
      </cc:Work>
    </rdf:RDF>
  </metadata>
  <g
     inkscape:label="Laag 1"
     inkscape:groupmode="layer"
     id="layer1"
     transform="translate(-100.65625,-330.875)">
    <rect
       style="fill:#ffff00;fill-opacity:1;fill-rule:evenodd;stroke:#f7f7f7;stroke-width:0.1;stroke-linecap:round;stroke-miterlimit:4;stroke-opacity:1;stroke-dasharray:none;stroke-dashoffset:0"
       id="rect3924"
       width="358.57144"
       height="237.14285"
       x="100.71428"
       y="330.93362" />
    <path
       style="fill:#e31c18;fill-opacity:1"
       d="m 191.70403,529.43316 c -9.22609,-0.93761 -17.82765,-6.53869 -21.94869,-14.29234 -1.21657,-2.28895 -2.13621,-4.92261 -2.58783,-7.41121 -0.45804,-2.52368 -0.4447,-2.78963 0.13368,-2.66498 3.55311,0.76573 4.69935,0.94251 7.02539,1.08345 2.5399,0.15389 5.78069,0.0457 8.01159,-0.26771 l 0.95099,-0.13355 0.10831,1.90229 c 0.36764,6.45656 3.40934,11.5453 8.23171,13.77154 9.18855,4.24186 19.74759,-1.9244 22.39318,-13.07716 0.42493,-1.79127 0.37068,-1.7607 2.61273,-1.47291 1.08561,0.13937 1.04913,-0.21592 0.3327,3.23839 -1.22175,5.89069 -3.89385,10.68437 -7.86176,14.10373 -3.86697,3.33238 -8.55382,5.08491 -13.99695,5.23379 -1.41878,0.0389 -2.95104,0.0328 -3.40505,-0.0133 z m 5.15916,-2.59135 c 1.81756,-0.24233 4.79572,-1.02941 6.35007,-1.67824 0.65499,-0.2734 1.16176,-0.52439 1.12616,-0.55772 -0.0356,-0.0333 -0.78661,0.15405 -1.66889,0.41644 -5.02954,1.49579 -11.57474,1.40766 -16.18962,-0.21802 -5.40925,-1.90549 -9.82203,-5.83543 -12.5463,-11.17346 -0.951,-1.8634 -1.16533,-1.77546 -0.502,0.20597 2.00435,5.98712 7.40253,10.66098 14.46166,12.52124 2.46807,0.65038 6.20677,0.85206 8.96892,0.48379 z m 17.78061,-21.67917 c 0.0712,-0.34991 0.13926,-0.63824 0.15132,-0.64077 0.0122,-0.003 0.70064,0.0266 1.53015,0.0646 1.49649,0.0687 1.5077,0.0731 1.44457,0.58438 -0.0621,0.50286 -0.10182,0.51652 -1.65952,0.57157 l -1.59592,0.0563 0.1294,-0.6362 z m -43.11379,-0.26066 c -0.99407,-0.14491 -2.45669,-0.44455 -3.25028,-0.66589 l -1.44287,-0.40243 0,-0.94451 0,-0.94452 1.38574,0.37113 c 3.46685,0.92849 9.904,1.29437 13.54185,0.76969 0.88931,-0.12827 1.64365,-0.2044 1.67628,-0.16917 0.0326,0.0352 0.002,0.45542 -0.0692,0.93375 l -0.12853,0.86971 -1.54775,0.22944 c -2.07171,0.30714 -7.92084,0.27999 -10.16524,-0.0472 z m 43.69981,-1.37492 c -0.36492,-0.0682 -0.40496,-0.20498 -0.34558,-1.18159 l 0.0671,-1.10455 1.4806,0.0343 c 1.63976,0.038 1.49687,-0.12448 1.41426,1.60845 l -0.0368,0.77307 -1.08342,-0.0263 c -0.59589,-0.0145 -1.26916,-0.061 -1.49616,-0.10337 z m -41.99559,-1.32481 c -0.17025,-0.0312 -1.00604,-0.15965 -1.85731,-0.28539 -0.85126,-0.12571 -2.23094,-0.41056 -3.06594,-0.63299 l -1.51822,-0.40443 0.10789,-0.75324 c 0.0593,-0.41428 0.1485,-0.79127 0.19813,-0.83777 0.0497,-0.0465 0.95802,0.13296 2.0186,0.39876 3.91512,0.98127 9.59109,1.06516 13.49794,0.19953 0.67628,-0.14984 1.25442,-0.24919 1.28473,-0.22081 0.0303,0.0284 -0.002,0.501 -0.0712,1.05025 -0.14214,1.12393 -0.1042,1.10043 -2.23683,1.38637 -1.28228,0.17193 -7.55631,0.24678 -8.35784,0.0997 z m 41.64596,-1.89819 c -1.90249,-0.49913 -2.17426,-1.26732 -0.66896,-1.89091 1.66517,-0.68981 4.50019,-0.46984 5.35582,0.41556 0.3041,0.31471 0.31896,0.42533 0.0916,0.68191 -0.74931,0.84558 -3.0951,1.23506 -4.77843,0.79344 z m -41.30845,-0.91165 c -6.00618,-0.49854 -10.39859,-2.66239 -9.94998,-4.90175 0.16178,-0.80777 1.34468,-1.85866 2.93812,-2.61028 5.38123,-2.5383 15.95145,-2.2513 20.4302,0.55475 1.86388,1.16776 2.32639,2.20028 1.53207,3.42024 -1.16248,1.78542 -4.81249,3.11409 -9.71603,3.53684 -2.57915,0.22237 -2.55775,0.22237 -5.23438,2e-4 z m 12.07224,-2.13079 c 1.02987,-0.48645 1.97626,-1.41437 2.13564,-2.09387 0.37914,-1.61669 -1.99117,-3.211 -5.92649,-3.98627 -1.92097,-0.37844 -2.16857,-0.3361 -0.67379,0.1152 2.76938,0.83614 4.74063,2.29295 4.97678,3.67793 0.13586,0.79684 -0.48111,1.76206 -1.57664,2.46655 -0.58663,0.37724 -0.62336,0.4352 -0.20146,0.31802 0.28375,-0.0787 0.85343,-0.30271 1.26596,-0.49756 z m 94.17857,-26.57937 c -4.77128,-0.46917 -10.01342,-2.41962 -13.96165,-5.19473 -6.17625,-4.34112 -10.22232,-10.99327 -11.01342,-18.10723 l -0.14368,-1.29201 1.00284,0.28671 c 2.54904,0.72878 4.2889,0.91868 8.53524,0.93158 2.32678,0.007 4.84352,-0.0579 5.59276,-0.14439 l 1.36224,-0.15725 0.11643,1.89666 c 0.44863,7.30792 4.19682,12.66304 10.14399,14.49293 1.37457,0.42293 2.06546,0.51556 3.93715,0.52779 2.58696,0.0168 3.87963,-0.23099 6.05486,-1.16117 4.03842,-1.72692 7.20505,-4.93026 9.11791,-9.22358 0.77084,-1.73016 1.6461,-4.49058 1.6461,-5.19156 0,-0.30163 0.18348,-0.35013 1.3245,-0.35013 1.84628,0 2.01424,0.0847 1.86266,0.94044 -0.28911,1.63188 -0.96568,4.46307 -1.34555,5.63063 -2.71495,8.34454 -8.77542,13.9785 -16.84438,15.65889 -1.78162,0.37103 -5.75804,0.6167 -7.388,0.45642 z m 7.53238,-3.12961 c 1.30527,-0.31271 2.97684,-0.84125 3.7146,-1.17458 0.73776,-0.33331 1.15565,-0.55289 0.92865,-0.48798 -3.32659,0.95151 -5.32544,1.28535 -8.26923,1.38103 -4.72227,0.15349 -7.76707,-0.42499 -11.54196,-2.19293 -4.54244,-2.1274 -8.54221,-6.20392 -10.62627,-10.83013 -0.6898,-1.53124 -0.82388,-1.66548 -0.60727,-0.60805 1.36443,6.66132 7.99623,12.5667 15.87678,14.13772 2.34561,0.46761 2.58225,0.48542 5.46871,0.41185 2.1223,-0.0541 3.17857,-0.18716 5.05599,-0.63693 z m 15.20273,-21.15123 c 0.0702,-0.34546 0.13755,-0.63567 0.14961,-0.6449 0.0122,-0.009 0.69524,0.0223 1.51813,0.0701 1.49039,0.0866 1.49615,0.089 1.49615,0.6449 l 0,0.55799 -1.64577,0 -1.64577,0 0.12765,-0.62811 z m -41.82402,-0.0859 c -1.0802,-0.10821 -3.83789,-0.63658 -4.97929,-0.95402 l -1.00534,-0.2796 0,-0.97953 c 0,-0.85526 0.0459,-0.96246 0.36115,-0.84504 0.19863,0.074 1.35481,0.34605 2.5693,0.60464 3.46669,0.7381 8.76633,0.88937 12.70865,0.36272 l 1.09025,-0.14564 -0.13872,0.84712 c -0.0763,0.46593 -0.17338,0.88443 -0.21571,0.93001 -0.38829,0.41807 -7.61368,0.7375 -10.39029,0.45934 z m 42.71788,-1.54944 -0.72228,-0.0726 0.0673,-1.10288 0.0673,-1.10287 1.53202,0 c 1.70376,0 1.63417,-0.0755 1.4008,1.51916 -0.14439,0.98659 -0.12935,0.98172 -2.34517,0.75914 z m -43.62009,-1.51942 c -2.02856,-0.29543 -4.63499,-0.939 -4.93292,-1.21801 -0.10585,-0.0991 -0.12932,-0.53029 -0.0522,-0.9581 l 0.14033,-0.77785 0.84823,0.28027 c 3.85691,1.27442 10.14909,1.51227 14.57668,0.55102 0.72606,-0.15763 1.35063,-0.25804 1.38792,-0.22311 0.0373,0.0349 0.0109,0.51288 -0.0585,1.06212 -0.0861,0.68087 -0.23225,1.02768 -0.45927,1.08998 -1.9254,0.52818 -8.40133,0.63773 -11.45035,0.19368 z m 43.27135,-1.63214 c -1.17788,-0.22559 -1.95749,-0.7295 -1.88006,-1.21517 0.21636,-1.35675 5.01815,-1.60524 6.25647,-0.32377 0.31292,0.32382 0.32349,0.42025 0.0765,0.69909 -0.64116,0.72405 -2.86637,1.14373 -4.45296,0.83985 z m -41.50118,-0.99028 c -6.06977,-0.45785 -10.65605,-2.7686 -10.04206,-5.05959 0.35185,-1.31292 2.75398,-2.69101 6.18179,-3.54648 1.89308,-0.47245 2.40483,-0.51632 6.191,-0.53082 4.5755,-0.0176 6.35373,0.22773 9.02039,1.24403 3.39907,1.29547 4.58112,2.83471 3.41319,4.44462 -1.76588,2.43417 -8.22113,3.9418 -14.76431,3.44824 z m 12.03457,-2.19751 c 0.45657,-0.24502 1.07751,-0.67718 1.3799,-0.96037 2.12958,-1.9944 -0.76686,-4.45216 -6.13094,-5.20241 -0.63902,-0.0894 -0.47442,0.009 0.7288,0.43501 2.70567,0.95827 4.17803,2.0834 4.44041,3.39321 0.19396,0.96823 -0.53677,2.0651 -1.86735,2.80299 -0.37889,0.21012 -0.37043,0.21856 0.10318,0.10296 0.28375,-0.0693 0.88946,-0.32639 1.346,-0.57139 z m -81.41622,-27.43377 c -0.17025,-0.0382 -1.00604,-0.17501 -1.8573,-0.30397 -3.82218,-0.57898 -8.10542,-2.28856 -11.60172,-4.63061 -1.74917,-1.1717 -4.99168,-4.23656 -6.23784,-5.89607 -2.25664,-3.00514 -3.89794,-6.63765 -4.65776,-10.30847 -0.52751,-2.5485 -0.53985,-3.37885 -0.0482,-3.24344 2.48809,0.68535 6.771,1.27944 9.22361,1.27944 1.49085,0 5.27557,-0.29672 6.32592,-0.49595 l 0.53637,-0.10175 0.12576,2.1832 c 0.1655,2.87327 0.74754,5.01978 2.03312,7.49806 0.91388,1.76173 1.28721,2.2469 2.8315,3.67962 2.97663,2.76161 5.7519,3.78376 9.81854,3.61619 3.95881,-0.16313 6.81047,-1.31849 9.85629,-3.99333 2.86478,-2.51584 5.12032,-6.36339 6.04312,-10.30842 l 0.35036,-1.49782 1.59606,0 1.59607,0 -0.16324,1.11129 c -1.64334,11.18835 -8.42498,19.0141 -18.23827,21.04631 -1.30601,0.27045 -6.77427,0.53596 -7.53237,0.36572 z m 8.04829,-3.10475 c 1.86871,-0.49293 5.03308,-1.62724 4.89642,-1.75521 -0.0355,-0.0333 -0.78803,0.15475 -1.67233,0.41774 -2.61419,0.77747 -5.12427,1.11954 -8.17689,1.11431 -4.10565,-0.007 -7.22411,-0.66871 -10.46348,-2.22018 -4.98417,-2.38713 -8.3896,-6.03307 -11.16197,-11.95028 -0.20761,-0.44309 -0.21723,-0.42706 -0.1159,0.19327 0.0608,0.37203 0.30068,1.24174 0.5331,1.93267 2.00469,5.95925 7.96873,10.93151 14.91407,12.43396 2.17591,0.47069 2.42279,0.48789 5.98463,0.41677 2.81617,-0.0561 3.59025,-0.142 5.26235,-0.58305 z m 15.32272,-20.5213 c -0.46895,-0.0845 -0.56828,-0.35136 -0.33906,-0.91076 0.16222,-0.3959 3.17835,-0.45683 3.17379,-0.0641 -0.0109,0.93103 -0.22936,1.11184 -1.31105,1.08497 -0.58265,-0.0144 -1.2683,-0.064 -1.52368,-0.11008 z M 174.23,386.73314 c -2.0359,-0.1841 -4.55836,-0.64005 -6.00016,-1.0846 -0.90917,-0.28033 -0.98024,-0.34901 -0.98024,-0.94734 0,-1.21813 0.0527,-1.24017 1.82005,-0.76079 1.96471,0.53295 6.10663,1.05156 8.36242,1.04707 1.62789,-0.004 5.06349,-0.27496 6.12048,-0.48407 0.50198,-0.0993 0.51402,-0.0765 0.44583,0.8494 l -0.0701,0.95149 -1.58083,0.20927 c -2.29756,0.30416 -6.05727,0.40585 -8.11745,0.21957 z m 41.18668,-1.81683 c -0.0603,-0.14728 -0.0806,-0.64736 -0.0451,-1.11129 l 0.0646,-0.84349 1.49616,-0.0568 1.49615,-0.0568 0,1.16808 0,1.16806 -1.45104,0 c -1.04619,0 -1.48165,-0.0747 -1.56077,-0.26778 z m -40.97694,-1.09465 c -2.06906,-0.17247 -3.633,-0.44664 -5.5908,-0.98011 -1.34735,-0.36712 -1.39287,-0.39987 -1.38982,-0.99949 0.005,-1.00613 0.20474,-1.15324 1.14645,-0.84496 0.44598,0.14601 1.64666,0.43031 2.66817,0.63178 2.65458,0.52356 8.91299,0.48721 11.5186,-0.0669 l 1.81937,-0.3869 -0.13191,0.79659 c -0.26844,1.62084 -0.0434,1.51407 -3.91956,1.85913 -2.32769,0.20722 -3.54668,0.2054 -6.1205,-0.009 z m 40.79008,-1.96358 c -1.56561,-0.51393 -1.75109,-1.28543 -0.45077,-1.87494 1.21791,-0.55216 3.38951,-0.55612 4.59769,-0.008 1.05066,0.47631 1.23888,0.83469 0.68998,1.3136 -0.84904,0.74079 -3.40035,1.04129 -4.8369,0.56971 z m -42.09878,-0.95047 c -3.31992,-0.38837 -6.81332,-1.65873 -8.15148,-2.96427 -0.60145,-0.58679 -0.72228,-0.84654 -0.72228,-1.55289 0,-0.70732 0.11999,-0.96444 0.72228,-1.54774 2.27191,-2.20031 8.6216,-3.53538 14.37958,-3.02343 7.80833,0.69426 12.19453,3.70841 9.14777,6.28625 -2.72513,2.30572 -9.32985,3.50935 -15.37587,2.80208 z m 13.0381,-2.04706 c 2.02992,-0.93086 2.72631,-2.39901 1.74815,-3.68552 -0.55127,-0.72504 -2.42696,-1.65086 -4.36205,-2.15306 -2.19339,-0.56924 -2.63716,-0.48345 -0.87227,0.16862 3.98578,1.47263 5.15167,3.69588 2.88921,5.50952 -1.02744,0.82364 -0.91511,0.85384 0.59696,0.16044 z"
       id="path3922"
       inkscape:connector-curvature="0" />
  </g>
</svg>
