<?xml version="1.0" encoding="UTF-8" standalone="no"?>
<!-- Created with Inkscape (http://www.inkscape.org/) -->

<svg
   xmlns:dc="http://purl.org/dc/elements/1.1/"
   xmlns:cc="http://creativecommons.org/ns#"
   xmlns:rdf="http://www.w3.org/1999/02/22-rdf-syntax-ns#"
   xmlns:svg="http://www.w3.org/2000/svg"
   xmlns="http://www.w3.org/2000/svg"
   xmlns:sodipodi="http://sodipodi.sourceforge.net/DTD/sodipodi-0.dtd"
   xmlns:inkscape="http://www.inkscape.org/namespaces/inkscape"
   width="1055.9062"
   height="747.28125"
   id="svg2"
   version="1.1"
   inkscape:version="0.48.4 r9939"
   sodipodi:docname="zzzzzzzhui.svg">
  <defs
     id="defs4" />
  <sodipodi:namedview
     id="base"
     pagecolor="#ffffff"
     bordercolor="#666666"
     borderopacity="1.0"
     inkscape:pageopacity="0.0"
     inkscape:pageshadow="2"
     inkscape:zoom="0.7"
     inkscape:cx="857.19211"
     inkscape:cy="367.50909"
     inkscape:document-units="px"
     inkscape:current-layer="layer1"
     showgrid="false"
     fit-margin-top="0"
     fit-margin-left="0"
     fit-margin-right="0"
     fit-margin-bottom="0"
     inkscape:window-width="1600"
     inkscape:window-height="837"
     inkscape:window-x="-8"
     inkscape:window-y="-8"
     inkscape:window-maximized="1"
     showguides="true"
     inkscape:guide-bbox="true">
    <sodipodi:guide
       orientation="1,0"
       position="528.57143,874.28571"
       id="guide2996" />
  </sodipodi:namedview>
  <metadata
     id="metadata7">
    <rdf:RDF>
      <cc:Work
         rdf:about="">
        <dc:format>image/svg+xml</dc:format>
        <dc:type
           rdf:resource="http://purl.org/dc/dcmitype/StillImage" />
        <dc:title></dc:title>
      </cc:Work>
    </rdf:RDF>
  </metadata>
  <g
     inkscape:label="Laag 1"
     inkscape:groupmode="layer"
     id="layer1"
     transform="translate(350.8125,72.71875)">
    <path
       inkscape:connector-curvature="0"
       style="fill:#da1219;fill-opacity:1;stroke:#000000;stroke-width:1px;stroke-linecap:butt;stroke-linejoin:miter;stroke-opacity:0"
       d="m -350.31447,-69.898822 0,743.968172 1054.9146,-2.30331 0,-743.968169 -1054.9146,2.303307 z"
       id="path6535" />
    <path
       inkscape:connector-curvature="0"
       style="fill:#fcdd09;fill-opacity:1;stroke:#000000;stroke-width:0.71829474px;stroke-linecap:butt;stroke-linejoin:miter;stroke-opacity:0"
       d="m -350.45531,290.46429 0,383.74591 1055.19634,-1.18807 0,-383.74591 -1055.19634,1.18807 z"
       id="path6535-5" />
    <path
       style="fill:#fcdd09;fill-opacity:1"
       d="m 135.37653,260.92696 c -0.84549,-0.0596 -4.5563,-0.25103 -8.24603,-0.42531 -11.3233,-0.53484 -20.66427,-1.44704 -37.899417,-3.70103 -6.53524,-0.85467 -7.68289,-1.10855 -9.55128,-2.11281 -1.65105,-0.88742 -2.06554,-1.27551 -2.42079,-2.26663 -0.38225,-1.06638 0.18762,-2.00146 1.87121,-3.0705 2.74843,-1.74518 7.42198,-2.53362 19.907817,-3.35842 3.75852,-0.24833 11.16252,0.0117 12.08541,0.42347 0.32662,0.14594 0.76499,-0.0331 1.34204,-0.54815 1.14553,-1.02239 10.14254,-5.66978 11.73001,-6.05907 3.68019,-0.90252 7.04472,-1.0921 18.27557,-1.02983 6.28503,0.0348 11.49133,0.13137 11.56961,0.21451 0.0779,0.0831 -0.40966,0.89158 -1.08463,1.79653 -3.59574,4.82113 -4.21808,5.7991 -4.99537,7.84867 -1.33034,3.50754 -1.06449,7.39265 0.56917,8.32003 1.90368,1.08068 8.63434,-1.68136 14.10059,-5.78644 0.7687,-0.57731 2.06937,-1.53572 2.89016,-2.12983 0.82092,-0.59411 1.82687,-1.61612 2.23559,-2.27117 0.64006,-1.02576 0.74318,-1.50255 0.74372,-3.43735 2.7e-4,-1.23551 -0.0618,-2.83481 -0.13911,-3.55405 -0.13292,-1.24868 -0.10204,-1.31892 0.69874,-1.55647 0.46122,-0.13683 2.58536,-0.3836 4.72025,-0.54836 2.13489,-0.16477 4.36752,-0.382 4.96153,-0.48275 l 1.08007,-0.18317 0,1.08512 c 0,3.38141 2.52641,5.18281 8.53162,6.0833 6.04804,0.90685 8.64173,1.58747 12.65142,3.31981 7.04245,3.04265 11.43293,3.08934 11.95685,0.12714 0.31674,-1.79105 -0.09,-3.07852 -1.46676,-4.63944 -1.57485,-1.78583 -3.02725,-2.53079 -9.59048,-4.91907 l -5.17126,-1.88177 2.37604,0.14605 c 1.30671,0.0802 4.45144,0.28149 6.98819,0.44708 6.94228,0.45313 16.86803,0.45618 22.41336,0.006 5.89162,-0.47738 6.59828,-0.33942 11.68884,2.28196 1.76807,0.91041 4.59834,2.18117 6.28946,2.82391 3.98794,1.5157 10.47518,3.20008 12.32475,3.20008 5.92505,0 16.4295,2.39616 17.2002,3.92351 0.4533,0.89828 -0.13722,2.68495 -1.20104,3.63443 -1.19701,1.06835 -4.15981,2.58915 -6.5208,3.34719 -4.34134,1.39379 -8.30847,1.77653 -22.22243,2.14397 -6.22649,0.16443 -14.21392,0.42998 -17.75004,0.59009 -3.53599,0.16009 -15.10842,0.27629 -25.7164,0.2582 -18.32337,-0.0313 -25.47081,0.18144 -31.30711,0.93171 -4.50595,0.57921 -11.16881,0.87126 -22.64175,0.99241 -6.45702,0.0682 -12.43189,0.0752 -13.27752,0.0155 z m 14.53549,-5.67296 c -0.78547,-0.28392 -1.11819,-1.08408 -1.11819,-2.68949 0,-1.42405 0.1007,-1.70323 0.90162,-2.49658 0.88376,-0.8757 0.94848,-0.89079 3.28437,-0.76603 1.5214,0.0813 2.71869,0.31435 3.31149,0.6447 1.03361,0.57594 1.72697,0.28072 1.72697,-0.73528 0,-1.22623 -3.13452,-2.23448 -5.89161,-1.89508 l -1.70107,0.20944 0.48029,-0.99553 c 0.26424,-0.54754 1.32443,-1.94179 2.35616,-3.09834 1.03159,-1.15657 2.16953,-2.65755 2.52883,-3.33555 l 0.65323,-1.2327 2.11474,-0.0279 c 1.16331,-0.0154 3.29015,-0.11558 4.72643,-0.2229 1.43628,-0.10726 2.71412,-0.12778 2.83953,-0.0456 0.12487,0.0822 0.43101,1.1915 0.679,2.46502 0.78897,4.05187 0.16891,5.11171 -5.21651,8.91585 -4.70292,3.32202 -10.22328,5.8308 -11.67528,5.30588 z m 56.88373,-7.49211 c -0.76869,-0.12038 -2.40396,-0.65033 -3.63387,-1.1776 -4.93938,-2.11752 -7.71245,-2.905 -14.02205,-3.98192 -4.87573,-0.83217 -6.54067,-1.48952 -7.35327,-2.90329 -0.69189,-1.20369 -0.70143,-1.4853 -0.0779,-2.29473 0.39341,-0.51104 0.927,-0.67707 2.72541,-0.84821 2.14549,-0.20414 2.23626,-0.24286 2.23626,-0.95399 l 0,-0.74124 -2.72487,0.1087 c -2.3085,0.0921 -2.84222,0.024 -3.49397,-0.44475 -0.67161,-0.4831 -1.33719,-0.55337 -5.24175,-0.55337 -4.99026,0 -6.20017,0.27645 -7.42242,1.69585 l -0.75178,0.87299 -3.5999,0.0497 c -5.35749,0.0742 -5.02504,0.32484 -5.26673,-3.97095 -0.11144,-1.97117 -0.13427,-3.6559 -0.051,-3.74381 0.0832,-0.0879 1.25797,0.0557 2.61128,0.31917 1.35343,0.26347 3.55223,0.47878 4.88647,0.47843 l 2.42558,0 -0.14353,1.55658 c -0.0967,1.05074 -0.0228,1.72339 0.22987,2.06991 0.66973,0.92078 1.1719,0.1566 1.30013,-1.97856 0.10205,-1.6971 0.19456,-1.96907 0.71324,-2.09303 0.32789,-0.0783 1.79116,-0.42861 3.25174,-0.77836 3.21455,-0.76978 3.79554,-0.76008 6.05959,0.10117 l 1.76712,0.67223 0,1.68998 c 0,1.77501 0.3107,2.3127 0.99064,1.71421 0.26398,-0.23243 0.40698,-0.91848 0.40698,-1.9527 l 0,-1.59443 1.18801,-0.003 c 0.65336,0 2.69466,-0.33486 4.53617,-0.74124 1.84137,-0.40639 3.69671,-0.73888 4.12302,-0.73888 l 0.77487,0 0.0174,2.8908 c 0.0228,3.903 0.32601,5.69408 1.07375,6.33634 0.33246,0.28549 2.14134,1.04783 4.01977,1.6941 8.04825,2.76891 11.01682,4.33454 12.42692,6.55405 0.77675,1.22244 0.78924,1.63017 0.0738,2.3897 -0.59629,0.63248 -1.50288,0.69958 -4.0532,0.30005 z M 161.07923,227.5788 c -0.85315,-0.13324 -2.2654,-0.52569 -3.13829,-0.87211 -2.82463,-1.12096 -2.60053,0.36783 -2.8637,-19.03184 -0.2966,-21.86769 -0.29996,-26.22927 -0.0309,-39.67298 0.1289,-6.44689 0.11144,-14.41972 -0.043,-18.97552 -0.22114,-6.53883 -0.19415,-8.44424 0.16153,-11.35687 0.39502,-3.23587 0.39207,-3.53704 -0.0376,-3.99323 -0.43396,-0.46024 -0.50136,-0.45417 -1.00286,0.0901 -1.01977,1.10696 -1.44554,6.80431 -1.70549,22.82051 -0.13024,7.99047 -0.36414,20.79895 -0.5211,28.46328 -0.15696,7.66433 -0.3687,19.70562 -0.47035,26.75844 l -0.18502,12.8233 -2.97112,-0.007 c -3.08551,-0.006 -6.04965,-0.34141 -8.04503,-0.91009 -0.98245,-0.28 -1.18708,-0.47383 -1.33383,-1.26396 -0.0953,-0.51329 -0.31218,-7.13735 -0.4819,-14.72014 -0.34856,-15.57349 0.0134,-40.02969 0.73889,-50.25547 0.48189,-6.76995 1.47763,-17.79625 1.68683,-18.67903 0.0779,-0.32614 0.25779,-3.7951 0.40093,-7.7088 0.26249,-7.17843 0.55426,-11.27487 1.26656,-17.78956 0.21403,-1.95684 0.53533,-5.22567 0.71405,-7.26406 0.65456,-7.465869 2.50372,-20.607649 3.47087,-24.667969 2.22484,-9.34052 5.04182,-16.68281 9.45164,-24.63511 0.61374,-1.10691 1.21608,-1.97415 1.3384,-1.92721 0.43423,0.16653 6.04965,5.69795 10.07975,9.92879 3.82158,4.0119 4.42499,4.77385 4.81854,6.08419 0.0846,0.28051 0.49559,0.60119 0.9141,0.71262 0.61979,0.16499 0.86833,0.0547 1.33975,-0.59445 0.83824,-1.15461 4.36107,-5.44875 5.7325,-6.98786 1.56988,-1.76179 1.99377,-1.45781 3.59373,2.57735 0.43893,1.10722 1.014,1.3912 1.5868,0.78362 0.6163,-0.65361 0.52781,-2.09857 -0.28116,-4.59718 -0.38965,-1.20361 -0.77756,-2.40489 -0.86188,-2.66951 -0.0967,-0.30376 0.33312,-1.06889 1.16613,-2.07545 2.0119,-2.43086 4.90648,-5.59696 5.11702,-5.59696 0.20745,0 2.1177,3.0348 3.61857,5.74879 2.97138,5.37334 6.61613,15.97088 8.43508,24.52566 0.63765,2.99909 1.71825,7.85447 2.40115,10.78975 1.43641,6.17289 2.92264,15.420979 3.74048,23.274659 0.94579,9.08158 1.94691,19.21203 2.256,22.82992 0.16031,1.87532 0.47867,5.47769 0.70733,8.0053 0.22879,2.5276 0.60233,8.13131 0.83032,12.45268 0.22799,4.32138 0.53815,9.9918 0.68934,12.60093 1.04207,17.98808 1.53256,43.32999 0.92969,48.03177 -0.21108,1.6462 -0.30117,1.81636 -1.20655,2.2802 -0.53802,0.27567 -1.76444,0.5931 -2.72527,0.70539 l -1.74712,0.20418 0,-5.59752 c 0,-6.76146 -0.55359,-23.29481 -1.68186,-50.81264 -0.17052,-4.15831 -0.55655,-10.42913 -0.85798,-13.93514 -0.3013,-3.50603 -0.79474,-9.36277 -1.09631,-13.01499 -0.78535,-9.50874 -1.53712,-13.68031 -2.59275,-14.38664 -0.32722,-0.21891 -0.55789,-0.20222 -0.80334,0.0582 -0.27283,0.28931 -0.24061,1.58211 0.15441,6.21966 0.87866,10.31453 0.97762,12.12917 1.43427,26.31243 0.4827,14.99402 0.73338,65.53319 0.33487,67.52616 -0.2719,1.36022 -0.43436,1.37424 -4.2495,0.3671 -3.74424,-0.98841 -6.13451,-0.95651 -11.36686,0.15176 -2.30957,0.48921 -4.73757,0.88947 -5.39549,0.88947 -1.1895,0 -1.19742,-0.006 -1.39735,-1.26009 -0.1101,-0.69305 -0.24705,-7.66433 -0.30318,-15.49173 -0.12487,-17.45729 -0.80575,-33.97246 -1.93643,-46.99405 -0.21953,-2.5276 -0.54917,-6.8638 -0.73271,-9.63601 -0.28774,-4.34657 -0.41167,-5.13219 -0.90082,-5.70747 -0.31191,-0.36692 -0.7025,-0.66708 -0.86778,-0.66706 -0.21269,4e-5 -0.29271,7.97147 -0.27338,27.20318 0.0201,19.93039 -0.0765,29.06591 -0.3597,34.17071 -0.21296,3.83216 -0.46364,9.26909 -0.55709,12.08206 -0.094,2.81297 -0.19563,5.1145 -0.22691,5.1145 -0.0309,0 -1.47858,0.33355 -3.2163,0.74123 -3.31807,0.77844 -7.34817,0.94011 -10.6359,0.42668 z M 187.45247,82.757461 c 0.28451,-1.78717 -0.2382,-9.126 -0.72748,-10.21241 -0.40549,-0.90049 -1.35182,-1.12347 -1.88353,-0.44383 -0.32413,0.41421 -0.30546,0.9657 0.12353,3.64634 0.27821,1.73708 0.57199,4.22569 0.65295,5.53026 0.15401,2.48187 0.42671,3.19868 1.15982,3.04893 0.28788,-0.0588 0.52003,-0.59902 0.67457,-1.56929 z m 54.42391,141.857479 c -5.08641,-0.22707 -8.46154,-0.61191 -11.32081,-1.29083 -3.07531,-0.73022 -8.17192,-2.22907 -9.54496,-2.80705 l -1.35653,-0.57106 0.094,-2.32679 c 0.051,-1.27974 0.14837,-2.38506 0.21524,-2.45628 0.0671,-0.0712 2.47767,0.48906 5.35735,1.24506 2.87942,0.75598 6.36761,1.57075 7.75125,1.81056 2.3081,0.40007 3.90255,0.58788 11.60036,1.3664 3.48336,0.35229 21.99632,0.15373 25.57676,-0.27434 5.24685,-0.62731 13.94121,-2.44553 18.80983,-3.93367 1.32551,-0.40514 2.13368,-0.52182 2.31118,-0.33365 0.14998,0.15916 0.41342,1.13611 0.58528,2.171 0.38227,2.30182 0.26532,2.43275 -2.80771,3.14454 -1.16989,0.27098 -3.80467,0.94453 -5.8551,1.49678 -4.23218,1.13983 -9.07891,2.01724 -14.58087,2.63961 -4.06555,0.45986 -17.83866,0.52131 -26.83473,0.11973 z M 88.416013,223.27338 c -1.76802,-0.20553 -3.84351,-0.50889 -4.6122,-0.67412 -9.88806,-2.12534 -14.11632,-3.53436 -17.06618,-5.68709 -1.12974,-0.82447 -1.26627,-1.03733 -1.10627,-1.72489 0.10043,-0.43139 0.29085,-0.90204 0.42328,-1.04589 0.13814,-0.15006 1.29135,0.18086 2.7056,0.7764 3.70074,1.55836 8.93727,3.1155 15.27527,4.54225 5.05491,1.1379 10.690927,1.13062 23.528097,-0.0304 9.08697,-0.82184 18.87795,-2.58012 25.34625,-4.55169 1.02623,-0.31281 1.93819,-0.49206 2.02654,-0.39834 0.0886,0.0938 0.16058,0.66043 0.16058,1.25936 0,1.23468 0.0577,1.1941 -3.98687,2.83945 -6.70045,2.72626 -16.85271,4.43402 -28.15869,4.7367 -2.84419,0.0761 -6.55492,0.18198 -8.24606,0.23521 -1.69114,0.0532 -4.521337,-0.0714 -6.289347,-0.27696 z m 2.93503,-4.75259 c -6.18778,-0.56087 -15.6048,-2.78061 -21.0962,-4.97271 -3.97943,-1.58853 -3.8182,-1.05524 -2.38571,-7.89167 1.31316,-6.26688 1.46421,-6.81933 1.86453,-6.81933 0.14612,0 1.42199,0.39124 2.83525,0.86941 4.79412,1.62208 12.7046,3.63111 19.480947,4.9476 5.55641,1.07947 22.4817,-0.2545 30.95695,-2.43989 1.57552,-0.40624 4.25608,-1.34641 5.957,-2.08927 1.7008,-0.74285 3.13923,-1.30106 3.19629,-1.24045 0.46229,0.49035 2.81483,13.37779 2.53098,13.86495 -0.0765,0.13006 -0.67591,0.31556 -1.33343,0.41222 -0.65765,0.0966 -2.3277,0.53116 -3.71134,0.96558 -6.1658,1.9358 -16.18204,3.34082 -28.37205,3.97988 -3.15167,0.16522 -6.42214,0.34869 -7.2677,0.40771 -0.84558,0.059 -2.040547,0.0617 -2.655517,0.007 z m 153.739887,-0.41645 c -6.78935,-0.57613 -12.40222,-1.56071 -19.81874,-3.4765 l -5.28337,-1.36477 0.16824,-5.35992 c 0.13843,-4.40387 0.59508,-9.5537 0.87637,-9.88046 0.0349,-0.0403 1.49953,0.46635 3.25524,1.12577 8.17796,3.07159 15.06317,4.65923 22.14683,5.1069 11.14505,0.70431 23.4706,-0.80247 36.06872,-4.40933 2.58979,-0.74143 4.76294,-1.29048 4.82927,-1.2201 0.36991,0.39236 1.30148,3.93403 2.19531,8.34638 0.55964,2.76213 1.08396,5.1362 1.16519,5.27572 0.32507,0.55782 -0.60998,1.11097 -2.6482,1.56669 -1.17915,0.26362 -3.86589,0.93325 -5.9707,1.48805 -4.00177,1.05489 -9.31965,1.95947 -14.76174,2.51097 -4.27903,0.43367 -18.36566,0.61787 -22.22242,0.2906 z M 94.28608,203.09757 c -4.193857,-0.63706 -10.756687,-1.96753 -15.373987,-3.11676 -2.84974,-0.70929 -8.42063,-2.57775 -8.78725,-2.94724 -0.31954,-0.32201 0.606,-4.71932 0.9933,-4.71932 0.14556,0 0.73233,0.20971 1.30392,0.46604 3.64958,1.63661 9.97318,3.45716 16.83253,4.84602 0.84557,0.1712 2.22923,0.46138 3.074787,0.64484 3.86881,0.83937 12.23281,0.64439 20.12597,-0.46915 7.2969,-1.02943 11.04664,-2.00245 15.59368,-4.04639 1.42756,-0.64172 2.70661,-1.09393 2.84249,-1.00491 0.23994,0.1573 0.85114,2.72329 0.85114,3.57317 0,0.52349 -0.85946,1.00184 -4.21875,2.34784 -5.16697,2.07031 -11.50773,3.34603 -20.65442,4.15552 -4.67383,0.41363 -10.77688,0.54474 -12.58341,0.27034 z m 150.52543,-0.58518 c -5.52197,-0.56312 -9.33577,-1.40634 -17.19094,-3.80073 -4.9853,-1.51959 -5.45269,-1.68896 -6.04401,-2.1899 -0.55669,-0.47156 -0.57763,-0.6501 -0.35099,-3.00429 0.13293,-1.37662 0.34306,-2.61145 0.46807,-2.74408 0.12487,-0.13263 1.56451,0.47944 3.19857,1.36018 4.69635,2.53098 9.58994,4.07419 16.14565,5.09149 8.17783,1.26904 28.50826,-0.64411 39.91393,-3.75602 2.96588,-0.80917 5.50291,-1.39883 5.63785,-1.31034 0.29351,0.19238 0.84966,2.80538 0.84966,3.99154 0,0.73991 -0.12622,0.86595 -1.04811,1.04038 -0.57656,0.10921 -3.2496,0.78354 -5.93996,1.49861 -12.94117,3.43947 -15.04276,3.75447 -25.71652,3.8546 -4.84284,0.0455 -9.30824,0.0313 -9.9232,-0.0314 z M 95.68372,196.75295 c -3.23986,-0.34343 -14.327947,-2.57297 -17.690047,-3.55701 -2.69023,-0.78739 -5.34423,-1.9369 -6.25182,-2.70782 -0.2372,-0.20148 -0.0422,-1.42017 0.74181,-4.6346 1.18098,-4.84239 1.57984,-6.09465 1.88783,-5.92692 4.46794,2.43333 8.91033,3.92799 16.14097,5.43072 1.998607,0.41537 4.074107,0.87277 4.612197,1.01646 8.20943,2.19202 19.97674,0.70486 30.55613,-3.86173 1.0955,-0.47291 2.08816,-0.75772 2.20578,-0.63294 0.37488,0.39771 2.75561,8.38619 2.5859,8.67734 -0.26277,0.45109 -1.47415,1.01647 -4.59981,2.14684 -6.02495,2.17889 -10.8171,3.13702 -19.52337,3.90344 -5.43453,0.47841 -7.29169,0.50387 -10.66557,0.14622 z m 145.35414,-1.0781 c -3.43663,-0.57315 -7.40201,-1.55703 -10.15669,-2.52 -3.44818,-1.20543 -7.91613,-3.41255 -8.55123,-4.22419 -0.30788,-0.39344 -0.26921,-0.89822 0.23444,-3.06522 0.74815,-3.2196 2.48023,-8.07343 2.94896,-8.2642 0.19214,-0.0783 1.46824,0.44749 2.83564,1.16829 2.67546,1.41036 8.88999,3.6868 12.60792,4.61831 1.26213,0.31627 2.41202,0.65181 2.55515,0.74565 0.14313,0.0939 2.12938,0.51704 4.41371,0.94043 6.30705,1.16898 11.21957,1.1287 16.59237,-0.13606 9.79497,-2.3057 12.73426,-3.35526 16.1427,-5.76409 2.59369,-1.83305 2.29708,-3.16535 -0.3397,-1.52626 -1.80083,1.11944 -4.20842,2.05891 -9.79323,3.82155 -6.68783,2.11078 -9.75039,2.68477 -14.11603,2.64565 -5.96694,-0.0535 -11.12343,-0.99721 -19.12577,-3.5004 -5.38918,-1.68577 -9.71763,-3.49296 -10.8326,-4.52281 -0.42309,-0.39083 -0.42926,-0.54953 -0.0631,-1.64908 1.07134,-3.22046 3.78801,-8.25329 6.11732,-11.33269 3.24288,-4.28702 8.65529,-8.31767 13.28249,-9.89156 1.29919,-0.44187 6.49691,-1.21464 8.21596,-1.22147 l 1.36754,-0.005 -0.19563,-3.28004 c -0.28479,-4.77261 -0.21041,-33.66918 0.10741,-41.63857 0.71888,-18.042329 0.71714,-16.762069 0.0242,-18.203529 -0.344,-0.71517 -0.74533,-1.44827 -0.89209,-1.62913 -0.93304,-1.15014 -3.0737,-4.57866 -3.16728,-5.07271 -0.0618,-0.32614 -0.18261,-1.4379 -0.26827,-2.47058 -0.14112,-1.70025 -0.27915,-2.03079 -1.4622,-3.49948 -2.4476,-3.03898 -6.42118,-6.0869 -15.31842,-11.7504 -6.33068,-4.02968 -9.05461,-6.09678 -11.9606,-9.0763 -1.58922,-1.62952 -1.60721,-1.66699 -1.60721,-3.34859 0,-2.90801 1.68186,-6.97293 3.89691,-9.41821 1.11793,-1.23421 3.99734,-2.83636 4.6327,-2.57774 0.36199,0.14737 3.23026,3.66999 15.63328,19.20007 4.56383,5.71464 8.92544,10.69348 9.60928,10.96922 0.5317,0.21443 0.81072,0.17431 1.128,-0.16217 0.37327,-0.39592 0.38307,-2.0181 0.0859,-14.16971 -0.18462,-7.54742 -0.45759,-17.4584 -0.6065,-22.02439 -0.44765,-13.730288 -0.84348,-29.4201628 -0.83972,-33.29024781 l 0,-3.64099299 -6.07973,0.177822 c -3.34385,0.09779 -9.12899,0.290608 -12.85591,0.428471 l -6.77619,0.250675 -1.17821,1.06962 c -0.64785,0.58829499 -1.81251,1.27282999 -2.58792,1.52118099 -1.8987,0.608099 -11.48273,1.07565901 -14.50138,0.70745701 -3.88657,-0.47405301 -5.60831,-0.37891501 -6.22233,0.343839 -0.52982,0.623488 -0.52606,0.632331 0.71633,1.704834 8.49954,7.3372168 10.73902,10.4511728 11.11712,15.4579778 0.16328,2.163044 0.41758,2.58123 4.23634,6.966142 4.07831,4.682892 9.25387,11.561902 9.25387,12.299432 0,0.12298 -0.9407,0.58745 -2.09058,1.03228 -1.75356,0.67838 -2.32824,1.08354 -3.56392,2.51302 -1.8266,2.11286 -3.12123,4.38812 -4.00056,7.03133 -0.79367,2.38578 -0.83462,3.14411 -0.26263,4.8637 0.5838,1.7551 0.25269,2.02854 -1.61218,1.33157 -6.07436,-2.27011 -10.00846,-6.08813 -15.66926,-15.20654 -3.76815,-6.06976 -4.48072,-7.39445 -5.22242,-9.70899 -0.34628,-1.08057 -0.62019,-1.48594 -1.00394,-1.48594 -0.44899,0 -0.62489,0.50881 -1.17861,3.40967 -0.63094,3.30505 -2.53126,9.87054 -4.36833,15.09232 -0.81891,2.32735 -1.10303,2.76812 -3.26826,5.06917 -4.26937,4.53719 -10.36427,11.72761 -12.52427,14.77539 -0.37206,0.52498 -0.75701,0.9176 -0.85556,0.87249 -0.098,-0.0451 -1.03321,-1.1494 -2.07715,-2.45397 -2.2944,-2.86743 -6.3476,-7.00258 -11.09752,-11.32202 l -3.52552,-3.20611 -0.19066,-1.69195 c -0.62449,-5.54179 -2.44881,-12.36462 -4.64976,-17.38932 -1.45844,-3.32944 -2.04801,-3.54348 -2.15087,-0.78084 -0.23416,6.29082 -0.68047,13.64498 -0.93532,15.41472 -0.61603,4.27778 -2.41766,9.25523 -3.59104,9.92134 -0.82683,0.46933 -1.64668,0.36824 -1.95402,-0.24092 -0.15227,-0.30171 -0.38952,-1.74083 -0.52728,-3.19806 -0.21926,-2.31773 -0.43463,-3.04525 -1.72067,-5.81043 -1.5833,-3.40404 -3.29068,-5.57186 -4.97724,-6.31934 -1.23286,-0.54639 -1.97913,-0.54314 -3.23643,0.014 -0.55185,0.24461 -1.1178,0.44474 -1.25744,0.44474 -0.31822,0 1.59714,-9.91786 3.63589,-18.827272 0.86053,-3.759987 2.74165,-10.232535 3.35607,-11.54709 0.30895,-0.6611478 1.89414,-2.5739838 3.5227,-4.2507408 3.78935,-3.901785 3.73941,-4.019558 -1.47348,-3.47082 -11.36713,1.196561 -15.05256,1.353112 -17.45612,0.741507 -0.96634,-0.245896 -1.99619,-0.8578 -3.29565,-1.958197 -1.07593,-0.91118701 -2.30475,-1.68390001 -2.85299,-1.79405001 -1.11215,-0.223469 -13.45854,0.09532 -14.64871,0.378292 l -0.79677,0.189419 0.16661,4.77773901 c 0.36811,10.5572968 0.47222,33.9393228 0.2028,45.5454628 -0.1571,6.76744 -0.32328,17.37203 -0.36933,23.56576 -0.0764,10.27252 -0.0432,11.26972 0.3776,11.35688 0.51206,0.1061 2.26831,-2.81526 4.59618,-7.64534 3.05576,-6.34034 11.04188,-17.89931 18.94836,-27.42554 5.0092,-6.03537 7.50527,-8.7144 8.28954,-8.89713 1.77236,-0.41288 4.09227,1.92037 6.01192,6.04666 1.4003,3.01009 1.731,4.66109 1.4011,6.99452 -0.1622,1.14778 -0.54527,1.78744 -2.45136,4.09326 -4.16169,5.0344 -9.15504,10.17039 -18.51296,19.04183 -2.9778,2.82293 -3.98704,3.87463 -9.67276,10.07976 -4.53362,4.94779 -5.29807,6.13078 -5.89496,9.12258 -0.17012,0.85266 -0.48399,1.91324 -0.6975,2.35686 -0.43178,0.897179 -1.35861,1.545139 -1.79806,1.257059 -0.15728,-0.10311 -0.44581,-0.0467 -0.64118,0.12519 -0.43153,0.37989 -0.59865,10.69496 -0.59865,36.94819 l 0,17.78954 2.1095,0.0709 c 3.01787,0.10129 6.1174,1.01775 9.49087,2.80607 2.58726,1.37153 3.26628,1.9081 5.73031,4.52811 3.23,3.43447 4.69502,5.87568 6.98109,11.63237 2.19423,5.52543 2.17785,5.26476 0.38455,6.10592 -3.43784,1.61261 -9.3207,3.36617 -14.77311,4.40355 -1.28256,0.24402 -4.10407,0.39373 -7.26771,0.38563 -4.28243,-0.0104 -5.69973,-0.13036 -8.24605,-0.69456 -1.69113,-0.37473 -4.332667,-0.92292 -5.870077,-1.2182 -6.94003,-1.333 -10.85057,-2.63688 -13.27753,-4.42716 -1.84896,-1.36389 -1.8494,-1.37554 -0.2341,-6.08101 1.47193,-4.28779 2.31149,-6.15481 3.74144,-8.3203 2.9937,-4.53355 6.02633,-6.33247 13.763667,-8.16444 1.58145,-0.37444 3.04455,-0.82536 3.25131,-1.00206 0.29915,-0.25565 0.44591,-3.71186 0.71867,-16.92483 0.18851,-9.13197 0.42669,-19.27201 0.52929,-22.53342 0.10258,-3.26143 0.1373,-6.16334 0.0771,-6.44872 -0.0773,-0.36694 -0.38181,-0.51885 -1.03963,-0.51885 -0.58032,0 -1.22511,-0.26916 -1.71442,-0.71567 l -0.78429,-0.71566 0.0811,-5.28831 c 0.0446,-2.908579 0.20696,-6.355689 0.36086,-7.660259 l 0.27987,-2.37194 1.62343,-1.63071 1.62341,-1.6307 0.18707,-10.37723 c 0.10285,-5.70749 0.27913,-13.37923 0.39167,-17.04833 0.28478,-9.28501 0.19961,-35.941812 -0.15665,-49.022677 C 98.84177,3.2786742 98.72886,1.5361932 98.35262,1.0952292 97.83971,0.49405219 96.41773,0.00783019 94.42372,-0.24820781 c -0.7687,-0.0987 -1.93164,-0.249247 -2.584287,-0.334541 -0.69268,-0.09051 -1.5363,-0.46713199 -2.02657,-0.90471999 -0.69126,-0.616968 -0.83992,-0.972962 -0.83992,-2.011545 0,-0.906368 0.16579,-1.42103 0.58843,-1.826721 0.56258,-0.539985 1.06332,-0.558906 11.390737,-0.430653 17.82896,0.221417 27.29707,0.154706 32.60542,-0.229728 6.07341,-0.43986 21.51348,-1.425355 26.59183,-1.697302 2.01887,-0.108176 3.92174,-0.112072 4.22855,-0.0091 0.30681,0.103241 1.03629,0.951184 1.62104,1.884201 0.92646,1.47805 1.07617,1.960233 1.16385,3.746297 0.16448,3.350449 3.69241,11.617359 6.36908,14.9242908 0.56097,0.693055 1.18882,1.260091 1.39506,1.260091 0.69847,0 3.12741,-3.269285 4.31059,-5.8018678 2.55193,-5.462497 4.15726,-11.361801 3.54928,-13.04239 -0.34198,-0.945377 -1.19191,0.321828 -1.56155,2.32823 -0.35192,1.91025199 -1.73866,5.983249 -2.80704,8.244275 -0.88618,1.875552 -3.12875,5.9024208 -3.37796,6.0658018 -0.29767,0.195107 -3.16796,-4.4558078 -4.05185,-6.5652958 -2.256,-5.38417601 -3.41153,-9.323218 -2.73132,-9.310167 0.13293,0.0026 0.99602,0.197925 1.91845,0.434185 3.34586,0.856904 7.25002,0.387175 10.40603,-1.252 0.85744,-0.445338 2.48331,-1.725245 3.61293,-2.844226 l 2.05392,-2.034518 1.01333,0.634149 c 2.3465,1.468534 2.04909,1.459275 41.89414,1.305529 39.77818,-0.153472 38.72054,-0.187795 38.47684,1.24852 -0.17966,1.059231 -1.33666,1.456314 -6.0518,2.076929 -1.84487,0.242831 -3.70021,0.587814 -4.12302,0.766622 l -0.76869,0.325113 0,5.968003 c 0,3.282401 0.18287,13.1727588 0.40965,21.9785848 0.55762,21.658402 0.99816,42.246762 0.99413,46.455012 l 0,3.4636 0.84483,0.63814 c 0.46471,0.35098 1.09645,1.1609 1.40365,1.79982 0.65041,1.3521 1.94436,6.92567 1.94436,8.3746 0,1.43531 -1.58062,4.57919 -3.08511,6.13625 l -1.29731,1.34259 -0.20033,4.73551 c -0.70868,16.754549 -0.67337,53.685269 0.0524,54.454739 0.12353,0.13048 1.5386,0.43774 3.14594,0.68281 4.26198,0.64985 6.73738,1.42106 9.03352,2.81454 5.77534,3.50499 9.43285,9.15112 12.29454,18.97933 2.02975,6.97122 4.08152,15.73954 3.71604,15.88103 -1.06167,0.41097 -7.18342,2.01136 -9.54321,2.49485 -5.05861,1.03644 -12.801,2.06588 -20.09667,2.67208 -3.41327,0.28361 -13.76036,0.35289 -15.2635,0.1022 z M 108.40219,180.73708 c 5.92602,-0.71985 15.79331,-3.36934 15.79331,-4.24071 0,-0.54135 -2.25318,-4.9695 -3.65576,-7.18472 -1.56697,-2.47484 -4.32942,-5.53381 -6.20527,-6.87136 -2.16953,-1.54693 -5.76279,-3.25056 -8.30826,-3.93906 -2.09967,-0.56794 -2.87983,-0.62471 -6.70865,-0.48817 -5.18612,0.18494 -7.995777,0.83717 -11.460607,2.66042 -3.4658,1.82378 -5.82876,4.41607 -7.76622,8.52003 -0.80981,1.71535 -1.54678,3.60512 -1.63771,4.19948 -0.1504,0.9831 -0.0877,1.12319 0.69404,1.55201 1.46069,0.8012 9.84522,3.65265 12.20398,4.15039 2.425117,0.51175 4.924767,0.88831 9.923217,1.49491 4.16294,0.50519 4.17524,0.50545 7.12793,0.14678 z m -9.08463,-2.19287 c -4.73026,-0.64083 -6.98286,-1.03412 -9.396997,-1.64067 -2.5665,-0.64484 -7.93367,-2.67988 -7.93367,-3.00817 0,-0.33502 6.77283,-2.57194 9.90848,-3.27254 3.771967,-0.84278 8.138167,-0.83496 12.593447,0.0225 6.3879,1.22948 11.57762,2.98344 14.26787,4.82209 l 1.38561,0.94702 -2.65546,0.67045 c -6.81373,1.72034 -12.73289,2.19575 -18.16928,1.45928 z m 165.02374,0.43896 c 4.87506,-1.11434 15.5511,-5.0614 15.55057,-5.74919 0,-0.52272 -2.848,-7.27743 -3.73726,-8.86547 -0.9799,-1.74958 -3.47181,-4.1704 -5.80985,-5.64396 -2.30299,-1.4515 -7.22572,-3.10005 -10.46833,-3.50569 -3.10821,-0.38881 -8.03107,0.0144 -11.57082,0.94761 -7.46392,1.96786 -14.27582,7.58867 -18.02999,14.8775 l -1.0324,2.00438 1.07241,0.47526 c 5.97124,2.64637 14.43828,5.34302 18.96827,6.04114 3.04939,0.46994 11.96342,0.12571 15.0574,-0.58158 z m -16.59479,-1.51454 c -3.36627,-0.69576 -5.0386,-1.1694 -10.06297,-2.85017 -4.36967,-1.46175 -5.06103,-1.81392 -4.36833,-2.22514 0.70371,-0.41768 6.93959,-1.69952 10.00336,-2.05627 4.40391,-0.51278 10.78816,-0.15729 18.54411,1.03258 9.91326,1.52086 12.75414,2.04979 12.49352,2.32619 -0.22222,0.23581 -1.93751,0.96394 -4.38726,1.86236 -1.82728,0.67012 -5.70431,1.65762 -8.24604,2.10028 -3.433,0.59787 -10.63885,0.49999 -13.97639,-0.18983 z M 177.37634,27.983291 c 8.01187,-8.708869 11.9273,-17.631575 13.07195,-29.7886338 0.4251,-4.515776 0.24249,-4.941105 -2.17369,-5.063371 -1.28523,-0.06506 -1.74524,0.01312 -1.74725,0.296504 -0.0134,1.697481 -0.95237,8.850318 -1.41238,10.742181 -1.38365,5.689809 -4.53039,10.9748078 -8.67691,14.5731408 l -1.98907,1.726067 -0.80763,-1.023882 c -2.61436,-3.314686 -5.56319,-8.899396 -7.78133,-14.7365098 -1.10047,-2.896278 -1.40352,-4.03329701 -1.95161,-7.324802 -0.34024,-2.042764 -0.67457,-2.495946 -1.99605,-2.706078 -1.12048,-0.178146 -2.77602,0.750582 -2.77602,1.557255 0,0.971092 1.97564,8.99243 2.93419,11.913629 2.04963,6.2458318 4.17136,10.2990768 8.24845,15.7577418 3.18756,4.267558 4.73865,6.226338 4.93065,6.226338 0.0819,0 1.03898,-0.9673 2.1267,-2.14958 z M 201.29191,1.2949512 c 0.12755,-0.69662601 -1.53135,-2.501026 -4.51375,-4.9102 -2.58321,-2.086668 -3.68221,-2.554125 -3.99197,-1.697922 -0.20664,0.571409 0.14502,0.971077 3.11694,3.542489 4.27434,3.698328 5.17891,4.212899 5.38878,3.065633 z m -51.08557,-1.48136401 c 1.29866,-0.85772199 3.52122,-2.29201199 4.93924,-3.18728999 2.49393,-1.574671 3.04846,-2.124043 2.71735,-2.69226 -0.35729,-0.613215 -1.4826,-0.152031 -4.94824,2.028074 -3.93329,2.474352 -6.30476,4.48463799 -5.96935,5.060348 0.34131,0.585684 0.8032,0.414472 3.261,-1.20887201 z m 19.48615,-4.95007899 c -4.33865,-1.453522 -6.02911,-6.4368092 -7.87478,-23.2137712 -0.0846,-0.774583 -0.12084,-1.408343 -0.0792,-1.408343 0.0416,0 1.68858,0.328464 3.65898,0.72991 5.02733,1.024259 8.87952,1.42555 11.48825,1.196731 4.40605,-0.386474 8.37238,-1.054231 10.87651,-1.831139 0.51318,-0.159213 0.52701,-0.01039 0.35232,3.79792 -0.32198,7.017753 -1.66118,12.351801 -3.92107,15.617139 -1.28335,1.8544622 -2.41699,2.7694152 -5.13985,4.1485512 -2.07419,1.050491 -2.30702,1.100631 -5.38246,1.158613 -1.76806,0.03337 -3.55882,-0.05467 -3.97935,-0.195611 z m 6.65682,-5.4640932 c 1.41842,-0.700536 2.63356,-1.970314 2.63356,-2.751975 0,-0.632642 -0.79447,-0.817191 -1.58532,-0.368253 -0.67631,0.383915 -4.82914,0.525076 -6.94026,0.235909 -0.67685,-0.09272 -0.85449,0.0026 -0.92096,0.495507 -0.0456,0.335697 0.16959,0.950107 0.4776,1.365345 1.33357,1.7981932 3.92067,2.2161322 6.33538,1.023467 z m -5.89202,-11.989158 c 1.39694,-0.261454 1.68361,-1.225872 0.59038,-1.985664 -0.58635,-0.40755 -0.94499,-0.437678 -2.18349,-0.183445 -0.81488,0.167316 -2.13274,0.389473 -2.92829,0.493676 -1.88648,0.247078 -2.20927,1.095073 -0.64986,1.707418 0.59884,0.235195 3.85126,0.215067 5.17126,-0.03195 z m 13.49745,-1.074295 c 0.51761,-0.51226 0.13548,-1.286544 -0.73244,-1.484066 -1.0089,-0.229586 -6.00158,0.298543 -6.72959,0.711859 -0.7119,0.404057 -0.72734,0.57871 -0.0953,1.073126 0.62771,0.491247 7.01384,0.236962 7.5575,-0.300919 z m 5.96762,5.551452 c -0.58998,-0.118695 -0.64356,-0.249584 -0.49935,-1.219716 0.19737,-1.326892 0.71942,-7.35471 0.81273,-9.384929 0.0671,-1.476534 0.0698,-1.479131 1.18601,-1.687744 1.99014,-0.371877 6.40063,-0.264181 7.84591,0.191562 0.75822,0.239078 1.81881,0.825385 2.35683,1.302919 l 0.97842,0.868241 0.0349,3.218599 c 0.0443,4.080984 0.0295,3.959821 0.51667,3.959821 0.85678,0 1.3235,-1.704795 1.22159,-4.461873 -0.0859,-2.333411 -0.18449,-2.737507 -0.94432,-3.889058 -2.25358,-3.415148 -7.46794,-4.179744 -15.72163,-2.305335 -6.85205,1.556075 -8.63246,1.82497 -12.22162,1.845853 -4.5461,0.02649 -7.8294,-0.430017 -12.99811,-1.807063 -3.36023,-0.895226 -4.55483,-1.081048 -6.9882,-1.086904 -2.60724,-0.0065 -3.11344,0.08168 -4.53334,0.787556 -1.99914,0.993871 -4.26239,3.212119 -5.12991,5.027947 -0.77433,1.620877 -1.68763,4.918122 -1.43601,5.184914 0.42174,0.447366 0.97829,-0.266818 1.67918,-2.15472 0.94995,-2.558984 3.22891,-5.175965 5.48424,-6.297855 1.39895,-0.695873 1.86286,-0.771324 4.49494,-0.731131 1.61433,0.02467 3.28102,0.18812 3.7037,0.36328 0.75231,0.311633 0.76882,0.370941 0.77044,2.771856 0,1.349372 0.18958,3.776428 0.41945,5.393461 0.22974,1.617046 0.38616,2.971456 0.34776,3.009818 -0.0389,0.03831 -2.46009,0.133616 -5.38112,0.211677 -8.05994,0.215392 -10.90323,-0.271609 -12.74111,-2.182393 -1.60265,-1.66633 -2.02761,-2.754598 -1.85668,-4.754429 0.28451,-3.328153 2.59301,-6.390344 6.19238,-8.214003 4.22667,-2.141474 8.49013,-2.031051 20.40535,0.528518 8.30055,1.783076 9.5882,1.690432 18.26994,-1.314516 7.36133,-2.547881 10.0012,-2.957445 13.29605,-2.062855 2.82973,0.768298 5.46544,2.286661 7.26439,4.184758 2.26593,2.39098 3.0937,3.945457 2.84611,5.345398 -0.51237,2.896694 -2.36744,5.209509 -5.31587,6.627527 -4.08475,1.964547 -11.3247,3.341346 -14.36,2.730819 z m -15.55178,-17.170643 c -4.05293,-0.574087 -14.11604,-3.008454 -14.11604,-3.414797 0,-0.138226 0.77111,-1.93377 1.71369,-3.990079 2.11662,-4.617877 3.72195,-6.510273 6.27576,-7.398097 1.42433,-0.495208 2.46989,-0.575113 7.5242,-0.575113 6.67965,0 6.59653,-0.02675 8.59957,2.767117 1.08355,1.511259 4.67688,8.296271 4.67755,8.832308 2.7e-4,0.183004 -0.52271,0.421459 -1.16211,0.529921 -0.63952,0.108436 -2.99797,0.848189 -5.24121,1.643863 -3.89946,1.383188 -6.4048,1.869279 -8.27141,1.604877 z"
       id="path5700"
       inkscape:connector-curvature="0" />
  </g>
</svg>
