<?xml version="1.0" encoding="UTF-8" standalone="no"?>
<!-- Created with Inkscape (http://www.inkscape.org/) -->

<svg
   xmlns:dc="http://purl.org/dc/elements/1.1/"
   xmlns:cc="http://creativecommons.org/ns#"
   xmlns:rdf="http://www.w3.org/1999/02/22-rdf-syntax-ns#"
   xmlns:svg="http://www.w3.org/2000/svg"
   xmlns="http://www.w3.org/2000/svg"
   xmlns:sodipodi="http://sodipodi.sourceforge.net/DTD/sodipodi-0.dtd"
   xmlns:inkscape="http://www.inkscape.org/namespaces/inkscape"
   width="292.01685"
   height="191.66129"
   id="svg5364"
   version="1.1"
   inkscape:version="0.48.4 r9939"
   sodipodi:docname="Nieuw document 17">
  <defs
     id="defs5366" />
  <sodipodi:namedview
     id="base"
     pagecolor="#ffffff"
     bordercolor="#666666"
     borderopacity="1.0"
     inkscape:pageopacity="0.0"
     inkscape:pageshadow="2"
     inkscape:zoom="1.4"
     inkscape:cx="286.90352"
     inkscape:cy="38.130952"
     inkscape:document-units="px"
     inkscape:current-layer="layer1"
     showgrid="false"
     fit-margin-top="0"
     fit-margin-left="0"
     fit-margin-right="0"
     fit-margin-bottom="0"
     inkscape:window-width="1600"
     inkscape:window-height="837"
     inkscape:window-x="-8"
     inkscape:window-y="-8"
     inkscape:window-maximized="1" />
  <metadata
     id="metadata5369">
    <rdf:RDF>
      <cc:Work
         rdf:about="">
        <dc:format>image/svg+xml</dc:format>
        <dc:type
           rdf:resource="http://purl.org/dc/dcmitype/StillImage" />
        <dc:title></dc:title>
      </cc:Work>
    </rdf:RDF>
  </metadata>
  <g
     inkscape:label="Laag 1"
     inkscape:groupmode="layer"
     id="layer1"
     transform="translate(-202.563,-256.53125)">
    <rect
       style="fill:#fcdd06;fill-opacity:1;fill-rule:evenodd;stroke:none"
       id="rect4808"
       width="292.01682"
       height="191.50893"
       x="202.563"
       y="256.68164" />
    <rect
       style="fill:#000000;fill-opacity:1;fill-rule:evenodd;stroke:none"
       id="rect4818"
       width="48.713253"
       height="47.85714"
       x="445.86661"
       y="400.3334" />
    <rect
       style="fill:#000000;fill-opacity:1;fill-rule:evenodd;stroke:none"
       id="rect4818-3"
       width="48.713253"
       height="47.85714"
       x="397.15274"
       y="352.48114" />
    <rect
       style="fill:#000000;fill-opacity:1;fill-rule:evenodd;stroke:none"
       id="rect4818-1"
       width="48.713253"
       height="47.85714"
       x="348.44235"
       y="400.33539" />
    <rect
       style="fill:#000000;fill-opacity:1;fill-rule:evenodd;stroke:none"
       id="rect4818-6"
       width="48.713253"
       height="47.85714"
       x="299.72696"
       y="352.48743" />
    <rect
       style="fill:#000000;fill-opacity:1;fill-rule:evenodd;stroke:none"
       id="rect4818-8"
       width="48.713253"
       height="47.85714"
       x="445.85489"
       y="304.55939" />
    <rect
       style="fill:#000000;fill-opacity:1;fill-rule:evenodd;stroke:none"
       id="rect4818-3-8"
       width="48.713253"
       height="47.85714"
       x="397.1409"
       y="256.70709" />
    <rect
       style="fill:#000000;fill-opacity:1;fill-rule:evenodd;stroke:none"
       id="rect4818-1-2"
       width="48.713253"
       height="47.85714"
       x="348.43057"
       y="304.56134" />
    <rect
       style="fill:#000000;fill-opacity:1;fill-rule:evenodd;stroke:none"
       id="rect4818-6-7"
       width="48.713253"
       height="47.85714"
       x="299.71518"
       y="256.71338" />
    <path
       style="fill:none;stroke:#000000;stroke-width:1px;stroke-linecap:butt;stroke-linejoin:miter;stroke-opacity:1"
       d="m 299.34875,256.5338 0,191.65676"
       id="path4881"
       inkscape:connector-curvature="0" />
    <path
       style="fill:#000000;fill-opacity:1;stroke:#000000;stroke-width:0.19023281px;stroke-linecap:butt;stroke-linejoin:miter;stroke-opacity:0"
       d="m 219.45633,337.36003 c -4.15097,-4.05955 -4.23083,3.38229 -5.78326,6.66395 -3.68902,4.41983 -4.28693,7.43754 -3.22788,9.70366 -2.33674,5.34376 -6.16879,11.98731 1.47945,8.65145 l 2.28641,-0.1169 c 1.58525,0.14958 3.17504,0.27553 5.11079,-1.40294 1.64738,-1.48029 3.14929,-2.45472 4.43832,-2.68896 3.28596,-2.52639 6.89975,-5.85068 8.47316,-4.20882 -1.01212,3.67429 -2.0544,7.33876 -0.26899,11.92497 -0.35929,5.49393 0.0146,12.05014 -5.51428,10.05439 -6.13784,-0.28364 -5.42891,1.83423 -6.32124,3.39044 l 1.88292,1.05221 0.40349,1.40293 10.22158,0.23383 c 2.56451,-0.22589 3.18236,-2.14397 3.63135,-4.20882 -0.10154,-1.09117 0.20376,-2.18235 1.88293,-3.27352 3.41045,-2.64886 3.58318,-7.07821 5.37978,-10.28822 l 1.07596,13.0941 c -2.71788,-0.42946 -4.67506,-0.30789 -5.24529,0.81837 l 1.07596,1.75368 0.26899,1.9875 7.66619,-0.23383 c 3.82008,-0.76786 3.49228,-3.50242 3.49685,-6.0794 -0.30405,-6.22293 4.20622,-11.84802 6.32125,-17.77055 l 4.43832,-1.16912 c -1.74723,3.00108 -1.05645,6.70858 0.40348,10.63895 4.27119,7.42343 1.49765,8.1399 -1.61393,8.53455 -6.84127,-0.40189 -5.93606,2.46029 -4.43832,3.27352 l 0.26899,2.10441 13.85294,-0.70147 1.21045,-2.1044 1.07596,-1.63677 0.26899,-3.85808 c -0.50735,-4.44765 2.53532,-6.25024 4.30382,-9.0022 7.40628,1.85361 9.29332,5.79316 8.47317,10.75587 0.32194,1.83868 -1.29953,1.98802 -3.09339,1.9875 -2.46536,-0.0841 -5.9209,-0.88561 -4.30382,1.98749 l 0.67247,2.68897 8.06968,0 c 0.57486,-0.91162 1.21861,-1.80328 3.90034,-2.10441 3.17783,-3.60385 1.45215,-8.57175 1.74843,-12.97718 0.94872,-5.11775 -0.18401,-6.61685 -0.94146,-8.76836 -2.30787,-3.39044 -3.15869,-6.78088 -1.88292,-10.17131 0.20013,-3.76514 -0.48449,-7.61574 -3.49687,-11.69116 -4.30094,-7.79153 -10.23888,-9.654 -16.67733,-9.70366 -4.11985,-0.65227 -7.62199,-0.98239 -9.95259,-0.70146 l -18.02227,-1.63677 c -9.31614,-1.79036 -17.6064,0.39167 -22.99858,13.79557 z"
       id="path5891-3"
       inkscape:connector-curvature="0"
       sodipodi:nodetypes="cccccccccccccccccccccccccccccccccccccccccccccccc" />
    <path
       style="fill:#fcdd06;fill-opacity:1;stroke:#000000;stroke-width:0.19023281px;stroke-linecap:butt;stroke-linejoin:miter;stroke-opacity:0"
       d="m 214.95076,362.20373 c 1.7667,-1.40625 2.51874,-2.97287 3.32875,-4.53032 -1.78688,1.51011 -3.47624,3.02021 -3.32875,4.53032 z"
       id="path6409-1"
       inkscape:connector-curvature="0"
       sodipodi:nodetypes="ccc" />
    <path
       style="fill:#fcdd06;fill-opacity:1;stroke:#000000;stroke-width:0.19023281px;stroke-linecap:butt;stroke-linejoin:miter;stroke-opacity:0"
       d="m 212.49623,352.06165 c 0.4336,0.0312 0.87203,0.0868 1.14321,-0.70146 0.30163,-0.93785 0.84607,-1.2425 1.4122,-1.49063 0.30169,1.49564 0.0956,3.58122 -2.55541,2.19209 z"
       id="path6411-6"
       inkscape:connector-curvature="0"
       sodipodi:nodetypes="cccc" />
    <path
       style="fill:#fcdd06;fill-opacity:1;stroke:#000000;stroke-width:0.19023281px;stroke-linecap:butt;stroke-linejoin:miter;stroke-opacity:0"
       d="m 217.57341,336.16168 c 2.42076,2.12933 2.25742,4.69544 1.47944,7.36543 2.22323,-3.44556 1.2705,-6.71548 -1.47944,-7.36543 z"
       id="path6413-5"
       inkscape:connector-curvature="0"
       sodipodi:nodetypes="ccc" />
    <path
       style="fill:#242424;fill-opacity:1;stroke:#000000;stroke-width:0.19023281px;stroke-linecap:butt;stroke-linejoin:miter;stroke-opacity:0"
       d="m 219.59083,336.77546 c 2.80153,-5.72951 7.55549,-16.28594 22.32609,-13.44482 l 21.25015,2.22132 c -6.67955,-0.0777 -12.95187,0.19871 -20.98116,-1.05221 -13.0578,-2.54171 -16.56581,6.38029 -22.59508,12.27571 z"
       id="path6417-5"
       inkscape:connector-curvature="0"
       sodipodi:nodetypes="ccccc" />
  </g>
</svg>
