<?xml version="1.0" encoding="UTF-8" standalone="no"?>
<!-- Created with Inkscape (http://www.inkscape.org/) -->

<svg
   xmlns:dc="http://purl.org/dc/elements/1.1/"
   xmlns:cc="http://creativecommons.org/ns#"
   xmlns:rdf="http://www.w3.org/1999/02/22-rdf-syntax-ns#"
   xmlns:svg="http://www.w3.org/2000/svg"
   xmlns="http://www.w3.org/2000/svg"
   xmlns:sodipodi="http://sodipodi.sourceforge.net/DTD/sodipodi-0.dtd"
   xmlns:inkscape="http://www.inkscape.org/namespaces/inkscape"
   width="292"
   height="195.5"
   id="svg17029"
   version="1.1"
   inkscape:version="0.48.4 r9939"
   sodipodi:docname="Nieuw document 138">
  <defs
     id="defs17031" />
  <sodipodi:namedview
     id="base"
     pagecolor="#ffffff"
     bordercolor="#666666"
     borderopacity="1.0"
     inkscape:pageopacity="0.0"
     inkscape:pageshadow="2"
     inkscape:zoom="2.8"
     inkscape:cx="146.07942"
     inkscape:cy="93.236246"
     inkscape:document-units="px"
     inkscape:current-layer="layer1"
     showgrid="false"
     fit-margin-top="0"
     fit-margin-left="0"
     fit-margin-right="0"
     fit-margin-bottom="0"
     inkscape:window-width="1600"
     inkscape:window-height="837"
     inkscape:window-x="-8"
     inkscape:window-y="-8"
     inkscape:window-maximized="1" />
  <metadata
     id="metadata17034">
    <rdf:RDF>
      <cc:Work
         rdf:about="">
        <dc:format>image/svg+xml</dc:format>
        <dc:type
           rdf:resource="http://purl.org/dc/dcmitype/StillImage" />
        <dc:title></dc:title>
      </cc:Work>
    </rdf:RDF>
  </metadata>
  <g
     inkscape:label="Laag 1"
     inkscape:groupmode="layer"
     id="layer1"
     transform="translate(-128.28571,-246.04075)">
    <rect
       style="fill:#fcdd06;fill-opacity:1;fill-rule:evenodd;stroke:none"
       id="rect16873"
       width="292"
       height="195.5"
       x="128.28572"
       y="246.04076" />
    <path
       style="fill:#0e44af;fill-opacity:1;stroke:none"
       d="m 420.28571,246.04075 c -16.7764,3.97053 -31.0963,12.47598 -41.75,27.75 -9.4436,13.07709 -21.6535,22.90682 -38.75,27 -20.8624,5.37809 -31.8305,14.03341 -43,27.75 -8.7748,11.77685 -19.1088,22.39522 -38,28 -25.1025,6.78506 -37.8657,17.12646 -48.75,32.5 -7.6701,10.74675 -20.2236,20.50867 -35.5,23.75 -20.3907,4.85804 -35.2813,14.94107 -46.25,28.75 l 0,-195.5 z"
       id="path16875"
       inkscape:connector-curvature="0"
       sodipodi:nodetypes="cccccccccc" />
    <path
       style="fill:#fcdd06;fill-opacity:1"
       d="m 197.93325,338.78461 0,-3.0613 1.2173,0 1.2173,0 0.082,-1.8211 c 0.1274,-2.8608 0.096,-10.1781 -0.048,-11.1665 -0.5521,-3.793 -2.2116,-6.8687 -4.9818,-9.2331 -2.9461,-2.5144 -6.2976,-3.6788 -10.5955,-3.6811 -2.5254,0 -4.7201,0.4139 -6.7407,1.2755 -3.9931,1.7027 -6.9469,5.0231 -8.2241,9.2449 -0.7036,2.3256 -0.714,2.5016 -0.65,10.9739 l 0.03,4.0907 1.546,0 1.546,0 0,3.1143 0,3.1142 -11.2551,0 -11.2549,0 0,-3.1142 0,-3.1143 0.8569,0 0.8569,0 0.079,-0.607 c 0.7648,-5.8555 1.7791,-9.8321 3.5881,-14.0668 1.0926,-2.5576 2.2161,-4.61 3.9506,-7.2179 3.2769,-4.9266 4.5861,-10.8669 4.8427,-21.9714 l 0.078,-3.3781 -1.9678,-3.6421 c -1.756,-3.2505 -2.0002,-3.6452 -2.2716,-3.6716 -0.1673,-0.016 -0.4293,-0.052 -0.5825,-0.082 l -0.2782,-0.051 0,-6.7015 0,-6.7015 2.1644,0 2.1645,0 0,3.167 0,3.1671 2.7828,0 2.7828,0 0,-3.1143 0,-3.1142 2.9683,0 2.9684,0 0,3.1142 0,3.1143 3.3394,0 3.3395,0 0,-3.0615 0,-3.0615 2.9683,0 2.9684,0 0,3.0615 0,3.0615 3.2756,0 3.2756,0 0.033,-3.0351 0.033,-3.0351 2.9374,-0.028 2.9375,-0.028 0,3.0652 0,3.0651 3.1229,-0.028 3.123,-0.028 0.033,-2.9822 0.033,-2.9823 2.1007,0 2.1007,0 0,6.5338 c 0,7.0444 0.035,6.6621 -0.6018,6.6621 -0.1564,0 -0.7297,0.9613 -2.2259,3.7323 l -2.0153,3.7323 0.1357,3.7245 c 0.4177,11.4341 1.5625,16.5105 4.8522,21.5156 2.3468,3.5704 3.8051,6.4699 5.0283,9.9972 1.1173,3.2215 1.9999,7.1371 2.4274,10.7678 0.042,0.3484 0.1052,0.8115 0.1436,1.0292 l 0.069,0.396 1.1023,0 1.1022,0 0,3.0613 0,3.0615 -11.2549,0 -11.2551,0 0,-3.0615 z"
       id="path17014"
       inkscape:connector-curvature="0" />
  </g>
</svg>
