<?xml version="1.0" encoding="UTF-8" standalone="no"?>
<!-- Created with Inkscape (http://www.inkscape.org/) -->

<svg
   xmlns:dc="http://purl.org/dc/elements/1.1/"
   xmlns:cc="http://creativecommons.org/ns#"
   xmlns:rdf="http://www.w3.org/1999/02/22-rdf-syntax-ns#"
   xmlns:svg="http://www.w3.org/2000/svg"
   xmlns="http://www.w3.org/2000/svg"
   xmlns:sodipodi="http://sodipodi.sourceforge.net/DTD/sodipodi-0.dtd"
   xmlns:inkscape="http://www.inkscape.org/namespaces/inkscape"
   width="329.17798"
   height="222.51695"
   id="svg5869"
   version="1.1"
   inkscape:version="0.48.4 r9939"
   sodipodi:docname="Nieuw document 37">
  <defs
     id="defs5871" />
  <sodipodi:namedview
     id="base"
     pagecolor="#ffffff"
     bordercolor="#666666"
     borderopacity="1.0"
     inkscape:pageopacity="0.0"
     inkscape:pageshadow="2"
     inkscape:zoom="1.4"
     inkscape:cx="235.85751"
     inkscape:cy="130.01782"
     inkscape:document-units="px"
     inkscape:current-layer="layer1"
     showgrid="false"
     fit-margin-top="0"
     fit-margin-left="0"
     fit-margin-right="0"
     fit-margin-bottom="0"
     inkscape:window-width="1600"
     inkscape:window-height="837"
     inkscape:window-x="-8"
     inkscape:window-y="-8"
     inkscape:window-maximized="1" />
  <metadata
     id="metadata5874">
    <rdf:RDF>
      <cc:Work
         rdf:about="">
        <dc:format>image/svg+xml</dc:format>
        <dc:type
           rdf:resource="http://purl.org/dc/dcmitype/StillImage" />
        <dc:title></dc:title>
      </cc:Work>
    </rdf:RDF>
  </metadata>
  <g
     inkscape:label="Laag 1"
     inkscape:groupmode="layer"
     id="layer1"
     transform="translate(-109.69672,-221.1037)">
    <rect
       style="fill:#fcdd09;fill-opacity:1;fill-rule:evenodd;stroke:none"
       id="rect5813"
       width="329.17798"
       height="222.51695"
       x="109.69672"
       y="221.1037" />
    <path
       style="fill:#da121a;fill-opacity:1"
       d="m 252.84358,417.59899 c -0.7814,-0.4913 -1.7809,-0.6667 -2.2212,-0.3899 -1.4206,0.8931 -4.7234,-0.7147 -5.8441,-2.845 -0.8768,-1.6666 -0.6821,-2.6328 0.9959,-4.9417 l 2.0858,-2.8699 -2.9795,-3.1008 c -3.4388,-3.5786 -3.6769,-5.583 -1.0727,-9.0299 l 1.8628,-2.4655 4.412,2.381 c 6.708,3.6201 9.7021,1.1981 6.2073,-5.0211 -0.78,-1.3881 -1.434,-3.4366 -1.4534,-4.5523 -0.019,-1.1157 -0.9282,-2.596 -2.0198,-3.2895 -1.0916,-0.6934 -1.9847,-2.2359 -1.9847,-3.4277 0,-2.0354 -0.1102,-2.0655 -1.8147,-0.4962 -2.8496,2.6234 -6.983,2.1589 -8.1314,-0.9138 -1.0565,-2.8269 -2.9543,-2.4637 -2.9543,0.5655 0,2.759 -1.7161,3.4063 -2.9273,1.1041 -1.3349,-2.5376 -1.3207,-7.6139 0.035,-12.582 1.3787,-5.051 -0.064,-6.9262 -3.1504,-4.095 -2.1292,1.9531 -2.2103,3.7478 -0.6806,15.0681 0.1944,1.4385 -0.2978,2.019 -1.7119,2.019 -3.1595,0 -4.1592,1.1795 -4.8786,5.7559 -0.7901,5.0263 -2.9843,7.8723 -6.0694,7.8723 -1.2131,0 -2.7598,0.6794 -3.4371,1.5096 -0.6774,0.8303 -2.8996,2.018 -4.9383,2.6394 -3.4291,1.0451 -3.6989,1.4045 -3.6035,4.7998 0.099,3.5205 -0.045,3.6825 -3.5419,3.9786 -3.1586,0.2675 -3.6883,0 -3.9694,-2.019 -0.4545,-3.2619 -6.1414,-3.9032 -7.7359,-0.8723 -1.2154,2.3103 -3.9629,2.7218 -5.7866,0.8665 -1.7618,-1.7922 -1.4494,-4.2946 0.7939,-6.3598 2.8964,-2.6666 2.4481,-4.0671 -1.6394,-5.1218 -4.6866,-1.2094 -6.0936,-3.4235 -4.4738,-7.0401 1.0801,-2.4114 1.6273,-2.6615 4.7096,-2.1526 3.2326,0.5336 3.4391,0.4137 2.8244,-1.6404 -0.3648,-1.2188 -1.3344,-2.9941 -2.1547,-3.9451 -1.7458,-2.0238 -1.0131,-4.8327 1.2606,-4.8327 0.8697,0 3.7173,0.7107 6.3281,1.5795 3.7232,1.2388 5.0974,2.3273 6.3725,5.0474 1.7512,3.7358 4.7673,4.5763 7.9173,2.2062 1.626,-1.2234 4.2629,-8.9521 5.3386,-15.6472 0.4538,-2.8245 0.2391,-3.2809 -1.5432,-3.2809 -3.2228,0 -5.4025,-4.2353 -4.6163,-8.9695 l 0.6624,-3.9885 3.5096,1.4917 c 3.3348,1.4175 3.7005,1.3632 7.3478,-1.0922 2.111,-1.4212 4.3084,-2.584 4.883,-2.584 2.1261,0 2.0944,-3.0507 -0.064,-6.134 -1.9502,-2.7862 -2.6643,-3.1172 -5.8016,-2.6891 -2.6967,0.368 -5.1491,2.0284 -9.9601,6.7436 -4.8089,4.7131 -6.8879,6.121 -8.432,5.7102 -1.1272,-0.2999 -3.7354,-0.271 -5.796,0.064 -3.0593,0.4976 -3.6409,0.9484 -3.1701,2.4572 0.88,2.8207 -1.2454,5.9619 -4.034,5.9619 -1.3452,0 -2.4459,-0.4849 -2.4459,-1.0775 0,-1.49 -4.1674,-0.043 -5.5948,1.9434 -0.9568,1.3312 -1.3895,1.3683 -2.7327,0.2343 -0.8778,-0.7411 -1.5959,-2.4275 -1.5959,-3.7476 0,-2.4489 -0.2674,-2.5855 -5.4579,-2.7885 -2.7189,-0.1063 -2.977,-0.4226 -2.977,-3.6496 0,-3.3541 0.1886,-3.5491 3.7213,-3.8465 4.3047,-0.3625 4.3831,-0.589 1.7329,-5.011 -1.0896,-1.8179 -1.981,-4.1722 -1.981,-5.2318 0,-2.8287 3.6902,-3.651 6.2865,-1.4008 5.6524,4.8988 8.9146,5.1598 13.3122,1.0652 2.7961,-2.6035 3.0514,-6.2183 0.389,-5.51 -2.5317,0.6735 -5.1026,-0.9719 -5.1026,-3.2656 0,-1.0516 -0.9422,-2.2051 -2.1088,-2.5817 -1.9179,-0.6193 -2.0519,-1.1739 -1.4799,-6.1251 0.6134,-5.3091 0.5673,-5.4441 -1.8605,-5.4441 -1.3692,0 -2.4895,-0.4841 -2.4895,-1.0759 0,-1.5958 1.9654,-5.1871 4.2147,-7.7013 2.3036,-2.5748 1.9213,-5.3526 -1.4884,-10.8165 -1.9044,-3.0516 -2.6347,-3.4906 -4.9997,-3.0052 -1.5403,0.3162 -3.4123,0.026 -4.2175,-0.6538 -1.9792,-1.671 -1.8223,-4.6493 0.2887,-5.483 1.5966,-0.6304 1.5743,-0.7816 -0.2764,-1.8746 -6.3649,-3.7591 -8.5378,-8.9712 -4.219,-10.1201 1.2116,-0.3223 3.1094,-0.3737 4.2174,-0.1142 1.559,0.3652 2.4018,-0.3751 3.7265,-3.2733 1.3064,-2.8581 1.4258,-3.925 0.5045,-4.5043 -0.9471,-0.5954 -0.9476,-1.0234 0,-1.9851 1.8512,-1.8833 6.2167,0.491 6.2359,3.3917 0.01,1.2611 0.3433,2.7555 0.7443,3.3208 0.8392,1.1832 7.6332,1.3649 8.7482,0.234 0.4106,-0.4164 1.5652,-0.7571 2.5658,-0.7571 2.5605,0 2.4338,4.6419 -0.1654,6.057 -1.0916,0.5943 -1.9847,1.6903 -1.9847,2.4357 0,0.7453 -0.6566,1.9094 -1.4591,2.587 -1.2751,1.0765 -1.2234,1.697 0.4092,4.9187 3.2276,6.369 7.8264,9.9234 13.122,10.1418 2.5462,0.1051 4.9169,-0.2823 5.2683,-0.8607 0.375,-0.6171 -0.3418,-1.0515 -1.7351,-1.0515 -3.2262,0 -3.6577,-0.6724 -2.3403,-3.6466 1.0538,-2.3791 1.4493,-2.4975 6.3338,-1.8966 2.8653,0.3525 5.2029,0.2676 5.1945,-0.1888 -0.043,-2.3176 -2.1589,-3.2295 -9.3095,-4.0111 -6.8677,-0.7508 -8.0834,-1.1941 -9.8349,-3.5862 -1.6857,-2.3021 -1.793,-2.9815 -0.6855,-4.339 1.9368,-2.374 5.5305,-1.5561 5.1606,1.1745 -0.3862,2.8509 0.4633,3.2875 7.5748,3.8928 l 5.9554,0.5069 0.6716,-3.1106 c 0.3694,-1.7109 0.4799,-3.3057 0.2456,-3.544 -0.2343,-0.2384 -2.3979,-0.072 -4.808,0.3689 -6.8422,1.2528 -7.5463,0.8071 -8.1072,-5.1317 -0.5131,-5.4324 -0.1248,-7.783 1.2858,-7.783 0.4519,0 1.9654,-0.4424 3.3634,-0.983 l 2.5418,-0.9831 -1.6862,-3.8121 c -0.9274,-2.0966 -2.7119,-5.2581 -3.9657,-7.0255 -3.5878,-5.0578 -2.9184,-9.1264 1.1937,-7.2558 5.4053,2.4588 7.9666,4.7371 8.4425,7.5097 0.2953,1.7201 1.2207,3.0754 2.2358,3.2743 2.1572,0.4226 3.1945,-2.0659 1.8926,-4.5405 -0.6963,-1.3236 -0.5753,-2.4207 0.4198,-3.8051 0.769,-1.0699 1.3982,-2.7812 1.3982,-3.8029 0,-1.0218 0.635,-2.1056 1.411,-2.4086 1.8709,-0.7303 5.5354,1.3255 5.5354,3.1054 0,0.7759 0.8519,1.6858 1.893,2.0219 3.62,1.1688 3.62,5.9569 0,7.1257 -2.2905,0.7396 -2.4881,3.0553 -0.3326,3.8968 2.8313,1.1052 5.386,-1.2016 5.386,-4.8634 0,-2.0905 0.5738,-3.6137 1.4971,-3.9741 0.8234,-0.3215 2.0114,-1.7329 2.6401,-3.1365 0.9337,-2.0848 1.8408,-2.5521 4.9531,-2.5521 2.4487,0 3.8101,0.4651 3.8101,1.3017 0,0.7159 -1.5629,4.3511 -3.4732,8.0781 -4.2549,8.3017 -4.4537,10.2699 -0.9467,9.3745 4.0392,-1.0313 4.8549,0.3586 1.9934,3.397 -2.4642,2.6165 -2.5163,2.8916 -1.0798,5.6938 0.8302,1.6195 1.5122,3.7395 1.5155,4.7112 0,0.9716 0.676,1.7666 1.4946,1.7666 0.8187,0 1.4886,0.2497 1.4886,0.5549 0,1.5496 -3.2223,6.5718 -5.0539,7.8769 -1.6696,1.1897 -1.9537,2.11 -1.4178,4.5924 0.7182,3.3263 2.6307,5.2598 3.2707,3.3065 0.2141,-0.6535 0.8291,-1.1882 1.3667,-1.1882 0.5667,0 0.7804,1.9221 0.5087,4.5749 -0.4361,4.2569 -1.7417,7.0282 -4.1275,8.7611 -0.5908,0.4291 -0.2079,1.2971 0.9531,2.1607 1.6849,1.2534 1.7823,1.7969 0.7394,4.1254 -0.6606,1.475 -1.2111,3.6826 -1.2232,4.9057 -0.031,3.172 -3.1023,6.8127 -6.0124,7.1283 -1.3664,0.1482 -2.997,0.5918 -3.6236,0.9857 -2,1.2575 0.5464,6.2571 6.5132,12.7879 5.0241,5.4989 6.1672,6.2413 10.6893,6.9413 6.1487,0.9518 11.1921,3.9696 13.6061,8.1414 2.0219,3.4943 8.2019,7.1239 12.1297,7.1239 6.1167,0 11.163,-10.545 9.4733,-19.7958 -0.9373,-5.1316 -5.9514,-11.6355 -11.9361,-15.4828 -14.409,-9.2626 -18.4035,-19.2001 -11.6922,-29.0872 6.1002,-8.9869 7.8773,-14.6611 7.0136,-22.3947 -0.5341,-4.7824 -1.1898,-6.1602 -4.4515,-9.3537 -2.1039,-2.0598 -3.8252,-4.2176 -3.8252,-4.7951 0,-1.4397 0.1197,-1.404 5.4501,1.6267 2.9144,1.6571 5.8276,4.445 7.6476,7.3189 2.5377,4.007 2.8723,5.3328 2.4454,9.6897 -0.272,2.7761 -0.8024,5.8424 -1.1786,6.8141 -0.4795,1.2383 -0.2072,1.7666 0.9106,1.7666 0.8771,0 1.5947,-0.7147 1.5947,-1.5883 0,-0.9779 0.6673,-1.4488 1.7366,-1.2253 2.8376,0.5931 1.8876,5.9431 -2.1035,11.8455 -4.8579,7.1841 -6.2566,12.1242 -4.5911,16.2147 1.2542,3.0802 6.6117,8.0668 8.6667,8.0668 1.4069,0 2.2453,-2.4811 2.2453,-6.6443 0,-1.8979 0.4351,-3.4507 0.9669,-3.4507 1.9593,0 4.1205,6.3898 5.0526,14.9382 1.1879,10.894 1.3268,11.2774 3.8432,10.6079 1.8175,-0.4835 2.0454,-0.088 2.0454,3.552 0,2.2529 -0.4465,4.3769 -0.9923,4.7201 -0.5458,0.3431 -0.9924,2.6245 -0.9924,5.0697 0,5.79 -3.4083,14.5272 -6.7702,17.3553 -4.6117,3.8794 -14.5184,2.2919 -21.3395,-3.4196 -2.7741,-2.3227 -6.6222,-3.1743 -6.6222,-1.4654 0,0.4858 0.2779,2.2969 0.6176,4.0247 0.4967,2.5267 1.3037,3.334 4.1243,4.1263 1.9287,0.5417 3.8323,0.7803 4.2301,0.5302 0.3979,-0.2502 2.1144,0.039 3.8144,0.6413 3.9357,1.3957 4.1273,4.4137 0.3621,5.7027 l -2.7289,0.9342 3.9693,2.0905 c 3.806,2.0044 8.4349,5.799 8.4349,6.9147 0,2.2742 -2.4355,4.437 -4.9966,4.437 -3.093,0 -4.1486,2.3415 -1.5185,3.3682 0.783,0.3057 1.9015,1.4642 2.4856,2.5745 0.8662,1.6464 0.6036,2.5221 -1.4236,4.7472 -3.0841,3.3854 -3.0845,3.8212 -0.01,5.874 1.6522,1.1013 2.4758,2.5732 2.4657,4.4064 -0.024,4.3227 -1.3332,5.6585 -4.8461,4.9438 -2.3288,-0.4739 -3.0773,-0.264 -3.0773,0.8629 0,0.8381 -0.908,1.4889 -2.0775,1.4889 -1.144,0 -2.2818,0.7939 -2.532,1.7667 -0.3415,1.3275 -1.6184,1.817 -5.1374,1.9693 -2.5756,0.1115 -5.3222,-0.1993 -6.1036,-0.6905 z m -28.1339,-148.9451 c 0.1866,-0.5702 -0.9251,-2.5775 -2.4705,-4.4606 -3.0469,-3.7128 -5.1468,-3.5282 -5.1468,0.4522 0,3.8701 6.537,7.31 7.6173,4.0084 z"
       id="path5811"
       inkscape:connector-curvature="0" />
  </g>
</svg>
