<?xml version="1.0" encoding="UTF-8" standalone="no"?>
<!-- Created with Inkscape (http://www.inkscape.org/) -->

<svg
   xmlns:dc="http://purl.org/dc/elements/1.1/"
   xmlns:cc="http://creativecommons.org/ns#"
   xmlns:rdf="http://www.w3.org/1999/02/22-rdf-syntax-ns#"
   xmlns:svg="http://www.w3.org/2000/svg"
   xmlns="http://www.w3.org/2000/svg"
   xmlns:sodipodi="http://sodipodi.sourceforge.net/DTD/sodipodi-0.dtd"
   xmlns:inkscape="http://www.inkscape.org/namespaces/inkscape"
   width="658.98462"
   height="436.01389"
   id="svg4504"
   version="1.1"
   inkscape:version="0.48.4 r9939"
   sodipodi:docname="Nieuw document 23">
  <defs
     id="defs4506" />
  <sodipodi:namedview
     id="base"
     pagecolor="#ffffff"
     bordercolor="#666666"
     borderopacity="1.0"
     inkscape:pageopacity="0.0"
     inkscape:pageshadow="2"
     inkscape:zoom="0.98994949"
     inkscape:cx="470.28498"
     inkscape:cy="195.68759"
     inkscape:document-units="px"
     inkscape:current-layer="layer1"
     showgrid="false"
     fit-margin-top="0"
     fit-margin-left="0"
     fit-margin-right="0"
     fit-margin-bottom="0"
     inkscape:window-width="1600"
     inkscape:window-height="837"
     inkscape:window-x="-8"
     inkscape:window-y="-8"
     inkscape:window-maximized="1" />
  <metadata
     id="metadata4509">
    <rdf:RDF>
      <cc:Work
         rdf:about="">
        <dc:format>image/svg+xml</dc:format>
        <dc:type
           rdf:resource="http://purl.org/dc/dcmitype/StillImage" />
        <dc:title></dc:title>
      </cc:Work>
    </rdf:RDF>
  </metadata>
  <g
     inkscape:label="Laag 1"
     inkscape:groupmode="layer"
     id="layer1"
     transform="translate(23.778016,-248.64095)">
    <path
       style="fill:#ffffff;fill-opacity:1;stroke:none"
       d="m -23.778016,248.64095 0,143.6783 219.188166,0 0,144.3895 -219.188166,0 0,147.9461 219.188166,0 0,-147.9461 439.79637,0 0,-144.3895 -439.79637,0 0,-143.6783 z"
       id="path4393"
       inkscape:connector-curvature="0" />
    <rect
       style="fill:#da121a;fill-opacity:1;fill-rule:evenodd;stroke:none"
       id="rect4395"
       width="439.79639"
       height="143.67831"
       x="195.4102"
       y="248.64102" />
    <path
       style="fill:#078930;fill-opacity:1;stroke:none"
       d="m -23.778016,392.31925 0,144.3895 219.188166,0 0,147.9461 439.79637,0 0,-147.9461 -439.79637,0 0,-144.3895 z"
       id="path4397"
       inkscape:connector-curvature="0" />
    <path
       style="fill:#078930;fill-opacity:1;stroke:none"
       d="m 68.201494,661.48515 0,0 c 1.75802,-1.9948 4.04905,-3.1594 6.66697,-3.8148 5.81933,-2.5647 6.43393,-9.8656 7.12362,-12.5364 0.77709,-3.3466 0.88674,-6.8142 0.82195,-10.3136 -0.27303,-4.1566 -1.84835,-7.9964 -3.47048,-11.8248 -1.5329,-0.4776 -3.00896,-1.0936 -4.2011,-2.4007 -1.12571,0.7651 -3.16561,7.2513 -6.48432,2.4895 -1.10882,-0.2542 -2.08822,-0.6343 -2.00922,-2.0448 -1.40098,-0.486 -3.05429,-0.7058 -2.46587,-3.2898 -2.49171,-1.1471 -7.32201,-5.5482 -5.75369,-11.1136 -0.1953,-1.3516 -1.78405,-2.8 0.18266,-4.0011 0.32183,-1.747 -0.0221,-3.9263 2.73986,-4.0898 0.53587,-1.5989 1.75056,-2.1698 3.83579,-1.4226 -0.35424,-2.3583 2.94006,-3.5387 4.47509,-1.6003 1.20187,-1.4417 2.66284,-1.1177 4.01844,-1.5115 -1.1022,-0.3898 -2.25594,-0.3279 -3.19649,-2.1338 -0.0762,0.1138 -1.12402,1.8943 -2.37454,0 -3.33882,2.6907 -5.98248,-1.5544 -2.5572,-2.7562 1.25024,-0.6692 1.445,-1.8916 0.45665,-3.7342 -0.98934,-1.6492 -0.78231,-3.1318 0.6393,-4.4456 0.47091,-0.6112 0.83522,-1.3054 0.45664,-2.5784 0.0351,-1.0351 -0.76803,-2.1794 2.10055,-2.8451 0.57855,-1.1556 1.66625,-1.7164 3.10516,-1.8671 0.73627,-0.4522 1.43011,-1.0697 1.82659,-2.8451 0.43866,-0.7277 0.2541,-1.6123 2.9225,-1.7781 0.45147,-0.6704 1.04053,-1.1173 1.00461,-2.5784 0.0233,-0.8018 0.24019,-1.5601 2.46588,-1.8671 1.78318,-0.4277 2.39524,-1.1602 3.10516,-1.8671 0.63443,-3.6889 5.74576,-1.7162 6.84962,1.4225 0.50981,0.6556 1.54633,0.78 1.18727,2.3117 1.08538,0.7051 1.79722,1.5755 1.00462,3.1118 0.94373,-1.0204 1.88745,0.1857 2.83117,0.7113 2.53524,0.1078 6.546726,0.7122 4.931736,4.4455 l 0,1.1558 c 1.84723,0.091 3.17982,0.7168 2.46587,3.4674 2.69768,0.2489 1.72848,1.9801 1.09594,2.4895 2.4476,0.7781 2.50772,2.8996 0.6393,2.7562 4.31499,2.6857 1.55432,6.083 -0.0913,3.6454 -1.09092,-0.5715 -1.98229,-0.6896 -2.5572,-0.088 7.14719,2.5735 2.47087,6.1736 0.91329,4.9789 1.24426,0.8747 2.52609,1.6029 4.10978,1.1558 1.22575,-0.8266 3.08592,0.1783 2.37454,1.6004 1.14343,-0.3515 3.15705,0.9307 1.36992,2.8451 2.75777,1.3337 1.17343,2.6674 0.91329,4.0009 1.49812,0.7594 2.73662,3.3806 0.0913,5.3346 -0.0227,0.3888 -0.60991,2.1328 -2.00922,0.088 -1.89843,-0.1968 -3.33569,-0.8425 -4.20111,-2.0449 l 1.09595,2.3115 c 1.20008,-0.4779 2.51998,0.2047 1.91789,2.2229 4.13816,-1.4379 4.60808,2.4088 3.01383,4.0009 0.44433,1.2561 0.23103,4.1953 -3.28782,5.0678 0.0639,0.4832 -0.89785,3.4953 -3.74446,2.4007 -1.30653,2.2188 -2.24591,1.6247 -3.01384,1.4224 -1.834766,1.6926 -5.123586,1.7139 -7.306266,-0.3556 -0.68151,7.3459 -0.79885,14.684 -2.92251,22.0498 -0.63038,3.2029 -1.39542,6.429 1.82657,8.9798 4.73135,2.7476 5.62428,5.0281 6.30165,7.2823 z"
       id="path3838"
       inkscape:connector-curvature="0"
       sodipodi:nodetypes="ccccccccccccccccccccccccccccccccccccccccccccccccccccccccccc" />
    <path
       style="fill:#000000;fill-opacity:1"
       d="m 67.923444,661.09275 c 1.69786,-1.7968 3.63881,-2.9794 5.97056,-3.6378 0.92544,-0.2613 1.75651,-0.7008 2.63974,-1.396 1.92789,-1.5173 3.20791,-3.714 4.11581,-7.0633 0.56389,-2.0801 1.35601,-6.1617 1.53548,-7.9121 0.22007,-2.1462 0.22564,-7.0278 0.009,-8.2153 -0.42031,-2.3079 -1.21599,-4.8482 -2.54886,-8.1373 -0.48195,-1.1894 -0.66197,-1.5022 -0.92185,-1.602 -1.03432,-0.3972 -2.44003,-1.1323 -2.90045,-1.5169 -0.29247,-0.2444 -0.58814,-0.4443 -0.65703,-0.4443 -0.0688,0 -0.56259,0.6392 -1.09706,1.4206 -0.53448,0.7813 -1.20909,1.6183 -1.49915,1.86 -1.20234,1.0019 -2.6378,0.7501 -3.80852,-0.6682 -0.2693,-0.3262 -0.57,-0.5319 -0.90637,-0.62 -0.62168,-0.1631 -1.36369,-0.8243 -1.47511,-1.3145 -0.0459,-0.2017 -0.10285,-0.43 -0.12668,-0.5074 -0.0238,-0.077 -0.31462,-0.2305 -0.64619,-0.3406 -1.31192,-0.4351 -1.88946,-1.1643 -1.89242,-2.3894 l -10e-4,-0.7545 -0.7555,-0.4745 c -2.17645,-1.3671 -4.08612,-3.7864 -4.82053,-6.1072 -0.35241,-1.1136 -0.47036,-2.8852 -0.26325,-3.9539 0.15293,-0.789 0.14511,-0.8487 -0.25951,-1.9773 -0.49713,-1.3867 -0.46034,-1.8659 0.19772,-2.575 0.36113,-0.3893 0.45126,-0.611 0.56592,-1.3929 0.21396,-1.4591 0.37925,-1.8796 0.96171,-2.4467 0.37161,-0.3618 0.72261,-0.5673 1.1459,-0.671 0.42376,-0.1042 0.64239,-0.232 0.71559,-0.4195 0.37716,-0.9657 1.43678,-1.5102 2.74067,-1.4083 l 0.81951,0.064 0.0825,-0.4282 c 0.11426,-0.5932 1.12632,-1.591 1.79404,-1.7688 1.03228,-0.275 2.16451,-0.092 2.77761,0.4477 0.21309,0.1877 0.25058,0.184 0.51613,-0.052 0.38677,-0.3429 0.81229,-0.5471 1.50027,-0.7199 l 0.5761,-0.1448 -0.39657,-0.2016 c -0.2181,-0.1115 -0.5811,-0.4064 -0.80664,-0.6565 -0.38928,-0.4316 -0.42215,-0.444 -0.64834,-0.2446 -0.42316,0.3728 -1.15214,0.3785 -1.70198,0.013 l -0.48491,-0.322 -0.52873,0.2625 c -1.79019,0.8891 -3.82001,-0.025 -3.84646,-1.7328 -0.0126,-0.7966 0.32687,-1.3508 1.13059,-1.8467 0.34889,-0.2154 0.8281,-0.5674 1.06494,-0.7822 0.40978,-0.3718 0.42792,-0.4251 0.37566,-1.1022 -0.0367,-0.4758 -0.21977,-1.0622 -0.55244,-1.7696 -0.89451,-1.9022 -0.74647,-3.1398 0.5581,-4.6651 0.64425,-0.7533 0.70762,-1.0444 0.55291,-2.5386 -0.0736,-0.7103 -0.075,-1.3281 -0.004,-1.5792 0.14391,-0.5073 0.67169,-0.9542 1.47887,-1.2522 0.39827,-0.147 0.82432,-0.4507 1.21854,-0.8686 0.59848,-0.6343 1.00118,-0.8432 2.5211,-1.3073 0.7328,-0.2239 1.28699,-0.9165 1.64973,-2.062 0.52875,-1.6698 1.00754,-2.1318 2.53204,-2.443 0.95797,-0.1956 1.27532,-0.6438 1.49912,-2.1175 0.0884,-0.5824 0.25996,-1.2062 0.3811,-1.3863 0.27449,-0.4077 0.98359,-0.7311 2.37034,-1.0809 0.74733,-0.1884 1.31258,-0.4293 1.85397,-0.7901 0.76139,-0.5071 0.92888,-0.7139 1.2295,-1.5184 0.38099,-1.0196 1.57792,-1.6431 2.84117,-1.48 1.51322,0.1955 3.48047,1.5748 4.18639,2.9353 0.15914,0.3068 0.56985,0.8485 0.91265,1.2037 0.55669,0.5771 0.62328,0.7064 0.62328,1.2108 0,0.4674 0.056,0.6004 0.32489,0.772 0.49344,0.3146 0.95371,1.1688 0.95371,1.7699 0,0.4651 0.0316,0.5181 0.30964,0.5181 0.1703,0 0.68314,0.2438 1.13965,0.5417 0.70423,0.4598 0.96244,0.555 1.70413,0.6282 2.34523,0.2313 4.065676,1.0819 4.510316,2.23 0.19209,0.4961 0.16821,1.4351 -0.0547,2.1504 -0.31811,1.021 -0.28574,1.1076 0.47745,1.2791 1.42804,0.3209 2.08306,1.1655 1.99138,2.5674 l -0.0521,0.7958 0.52974,0.197 c 0.98739,0.3671 1.30392,0.9595 1.01379,1.8981 -0.16627,0.5379 -0.1609,0.5785 0.10511,0.7948 0.15422,0.1253 0.32319,0.2297 0.37548,0.232 0.0523,0 0.26807,0.2365 0.47948,0.5207 0.50187,0.6745 0.53227,1.4348 0.0746,1.8637 l -0.3099,0.2904 0.57291,0.5963 c 0.70611,0.7349 1.06334,1.4749 1.06677,2.2099 0.004,0.7728 -0.33754,1.3806 -0.93416,1.6642 -0.45463,0.2162 -0.52583,0.2191 -0.99494,0.04 l -0.50528,-0.1932 0.56088,0.6074 c 0.75766,0.8204 0.96776,1.5384 0.67129,2.2941 -0.20264,0.5166 -1.06929,1.4383 -1.35235,1.4383 -0.30456,0 -0.0879,0.2423 0.33928,0.3796 0.61653,0.198 1.55029,0.1692 2.12791,-0.065 0.62989,-0.2562 1.05652,-0.2384 1.71435,0.071 0.57576,0.2712 0.797,0.5474 0.92546,1.1549 0.0595,0.2814 0.19729,0.4045 0.64298,0.574 0.79769,0.3037 1.28267,0.904 1.28267,1.5879 0,0.2958 -0.0857,0.7374 -0.19045,0.9815 l -0.19046,0.4437 0.59003,0.52 c 0.5261,0.4638 0.59696,0.5901 0.65377,1.1657 0.0467,0.4724 -0.0125,0.8554 -0.21951,1.4283 l -0.28323,0.7828 0.51133,0.5221 c 0.55128,0.563 1.04642,1.662 1.04642,2.3228 0,0.8001 -0.36796,1.6614 -1.00176,2.3448 -0.33689,0.3633 -0.68897,0.8453 -0.78236,1.0709 -0.19746,0.4774 -0.72926,0.7899 -1.16903,0.687 -0.169,-0.04 -0.53742,-0.2815 -0.81871,-0.5376 -0.2813,-0.2562 -0.69073,-0.4981 -0.90983,-0.5374 l -0.39837,-0.071 0.23855,0.4555 c 0.13121,0.2506 0.23855,0.6462 0.23855,0.8791 l 0,0.4234 0.58799,-0.086 c 1.74691,-0.255 3.11653,0.8672 3.11924,2.556 10e-4,0.4717 -0.32723,1.5579 -0.55556,1.84 -0.075,0.093 -0.14395,0.6537 -0.15313,1.2469 -0.0138,0.8924 -0.0788,1.213 -0.37672,1.8593 -0.43677,0.9475 -1.40743,1.8626 -2.40052,2.2635 -0.62077,0.2504 -0.70058,0.3278 -0.85164,0.8258 -0.39451,1.3008 -1.86293,2.2803 -3.13916,2.094 -0.57317,-0.084 -0.59209,-0.075 -1.10652,0.4936 -0.73816,0.8165 -1.13544,0.99 -2.03868,0.8905 -0.46627,-0.051 -0.76594,-0.033 -0.81876,0.051 -0.1292,0.2034 -1.08429,0.6458 -1.792076,0.8299 -1.32535,0.3445 -2.92465,0.1262 -4.26955,-0.5829 -0.38317,-0.202 -0.70705,-0.3535 -0.71974,-0.3367 -0.0126,0.017 -0.20898,2.2992 -0.43621,5.0719 -0.61005,7.4437 -1.05159,10.6101 -2.04779,14.685 -0.73593,3.0104 -0.94598,4.4193 -0.86996,5.8355 0.11865,2.2098 0.89594,3.446 3.02271,4.8067 2.1836,1.3972 3.8277,3.0242 4.64211,4.5938 0.405,0.7805 0.99808,2.3556 0.99808,2.6506 0,0.136 -2.84659,0.165 -16.25569,0.165 l -16.25569,0 0.61751,-0.6535 z m 30.81231,-0.4357 c -0.18146,-0.7189 -0.97533,-2.1182 -1.65557,-2.9179 -0.83256,-0.9789 -1.91561,-1.8831 -3.3397,-2.7884 -2.40638,-1.5299 -3.38481,-3.2455 -3.38481,-5.9351 0,-1.1232 0.36755,-3.4007 0.84741,-5.2513 0.62155,-2.397 0.96308,-4.2628 1.50782,-8.2377 0.0432,-0.3152 -0.13466,-0.1219 -0.91626,0.9958 -1.20439,1.7224 -1.74009,2.8095 -2.09441,4.25 -0.37879,1.5398 -0.44289,1.6803 -0.76676,1.6803 -0.26352,0 -0.27318,-0.039 -0.19951,-0.8074 0.15534,-1.6192 1.08107,-3.7581 2.35691,-5.4452 0.31966,-0.4228 0.74636,-1.1122 0.94823,-1.5321 0.34884,-0.7259 0.73891,-2.171 0.7437,-2.7555 0.001,-0.1491 0.0779,-0.3452 0.17044,-0.4357 0.22394,-0.2189 0.84048,-7.7187 0.94531,-11.4989 l 0.0779,-2.8091 0.76158,-0.9958 c 0.95212,-1.2452 2.42197,-2.6891 4.28342,-4.2081 l 1.438976,-1.1744 -0.3668,-0.1502 c -0.366116,-0.1498 -0.915626,-0.7747 -0.915626,-1.0412 0,-0.1004 -0.0706,-0.1041 -0.24732,-0.012 -0.32805,0.171 -1.32668,0.165 -1.50537,-0.012 -0.10361,-0.1005 -0.37644,0.012 -1.0165,0.417 -0.97871,0.6206 -1.90264,1.4797 -2.96986,2.7615 l -0.71787,0.8621 -0.0833,-1.7334 c -0.0458,-0.9535 -0.18177,-2.1537 -0.30214,-2.6671 -0.17054,-0.7275 -0.74715,-2.134 -1.17756,-2.8727 -0.0412,-0.07 0.61602,-0.4069 0.65924,-0.3372 0.0125,0.019 0.1164,0.1829 0.23168,0.3626 0.58874,0.9182 1.12922,2.7172 1.3141,4.3741 l 0.08,0.7176 0.97004,-0.8703 c 0.53351,-0.4785 1.2782,-1.0518 1.65483,-1.274 0.62155,-0.3668 0.68219,-0.4418 0.65659,-0.8118 -0.0526,-0.7598 0.5606,-0.8982 0.72628,-0.1639 0.048,0.2123 0.22849,0.4763 0.4013,0.5866 0.2982,0.1901 0.35282,0.1809 1.07201,-0.1801 l 0.75779,-0.3806 0.0847,0.4561 c 0.0466,0.2506 0.16481,0.6099 0.262706,0.7981 0.15906,0.3059 0.2472,0.3422 0.82891,0.3422 0.61671,0 0.64615,0.015 0.56013,0.2802 -0.32061,0.9889 -0.22264,1.523 0.31973,1.7433 l 0.3814,0.1549 -0.38347,0.5602 c -0.53258,0.7779 -0.49156,1.1439 0.21043,1.8779 0.33915,0.3546 0.29564,0.736 -0.084,0.736 -0.32256,0 -0.98216,-0.7738 -1.1644,-1.366 -0.1279,-0.4156 -0.11941,-0.5833 0.0512,-1.006 0.19055,-0.4722 0.18911,-0.532 -0.0207,-0.868 l -0.22536,-0.3607 -1.474496,1.2316 c -1.64449,1.3737 -3.19942,2.9483 -3.86183,3.9109 l -0.43808,0.6365 -0.0752,2.6998 -0.0752,2.6996 0.47766,0.3835 c 0.99948,0.8027 2.89005,1.1938 4.24236,0.8782 0.36331,-0.085 0.988236,-0.3662 1.388716,-0.625 0.71205,-0.4603 0.74253,-0.4677 1.38134,-0.3383 0.59633,0.1212 0.6892,0.1078 1.06647,-0.1543 0.22729,-0.1576 0.57985,-0.55 0.78345,-0.8721 l 0.37018,-0.5857 0.73694,0.1866 c 0.69836,0.1767 0.76865,0.1728 1.34186,-0.074 0.6841,-0.295 1.33157,-1.1395 1.45644,-1.8997 0.0659,-0.4015 0.13509,-0.4648 0.73186,-0.671 0.36246,-0.125 0.89695,-0.3867 1.18775,-0.5812 1.08673,-0.727 1.75654,-2.2872 1.48248,-3.4531 -0.1184,-0.5038 -0.0977,-0.5948 0.26514,-1.1631 0.54388,-0.8517 0.62238,-1.8469 0.19457,-2.4668 -0.16537,-0.2396 -0.52793,-0.5439 -0.80567,-0.6764 -0.4822,-0.2298 -0.54843,-0.2319 -1.4687,-0.044 -0.53004,0.1089 -1.07365,0.2403 -1.20801,0.2927 -0.2108,0.082 -0.23278,0.055 -0.16023,-0.2058 0.0463,-0.1656 0.1189,-0.5811 0.16139,-0.9234 0.0654,-0.5273 0.033,-0.677 -0.21257,-0.9795 -0.27272,-0.3358 -0.33018,-0.3524 -0.97172,-0.2788 l -0.68189,0.077 -0.59395,-1.2457 c -0.32668,-0.6853 -0.6412,-1.2459 -0.69896,-1.2459 -0.0577,0 -0.30759,-0.1731 -0.5552,-0.3848 -0.51371,-0.4391 -0.75563,-1.1151 -0.59801,-1.6711 0.0907,-0.3198 0.0458,-0.4362 -0.32275,-0.8384 -0.2354,-0.2571 -0.428,-0.6009 -0.428,-0.7641 0,-0.2397 -0.0845,-0.3125 -0.43835,-0.3771 -0.24108,-0.044 -0.62001,-0.2452 -0.84204,-0.4471 -0.3847,-0.3499 -0.42095,-0.3585 -0.76998,-0.1828 -0.8479,0.4268 -1.825786,0.1199 -2.166246,-0.6805 -0.33026,-0.7763 0.21217,-1.0458 0.65015,-0.3232 0.14338,0.2365 0.37248,0.4648 0.509076,0.5069 0.26791,0.082 0.93354,-0.2602 1.32756,-0.684 0.32122,-0.3456 0.40852,-0.3205 0.57289,0.1643 0.0778,0.2296 0.28049,0.5445 0.45036,0.6999 0.30606,0.28 0.43935,0.2854 1.24881,0.051 0.19483,-0.057 0.21873,0.021 0.19179,0.6152 -0.0332,0.7343 0.23373,1.2036 0.68472,1.2036 0.35024,0 0.38459,0.1667 0.16411,0.7965 -0.25455,0.7274 -0.16012,1.1026 0.36733,1.4597 0.22839,0.1547 0.71258,0.5423 1.07599,0.8612 0.80587,0.7072 1.59344,1.0803 2.78329,1.3187 0.74677,0.1497 0.97547,0.2571 1.32049,0.6197 0.49845,0.5239 0.80797,0.5074 0.97276,-0.052 0.0663,-0.2252 0.28388,-0.5224 0.48352,-0.6607 0.19965,-0.1385 0.50275,-0.4861 0.67359,-0.7727 0.71746,-1.203 0.54707,-2.2516 -0.53777,-3.3097 l -0.68983,-0.6728 0.28434,-0.7586 c 0.38457,-1.0261 0.45515,-1.7456 0.20733,-2.1138 -0.10824,-0.1607 -0.47368,-0.4479 -0.8122,-0.6382 -0.33851,-0.1901 -0.63694,-0.3632 -0.66318,-0.3844 -0.0262,-0.021 0.13201,-0.3027 0.35163,-0.6256 0.48419,-0.7115 0.52406,-1.2926 0.11414,-1.6643 -0.3628,-0.3291 -0.75202,-0.4231 -1.3605,-0.3282 l -0.48282,0.075 0.13202,-0.6274 c 0.15215,-0.723 0.0561,-0.9569 -0.50271,-1.2235 -0.30052,-0.1433 -0.45827,-0.147 -0.88321,-0.021 -1.70476,0.5072 -2.83921,0.3257 -4.44919,-0.7115 -0.44317,-0.2856 -0.47036,-0.3346 -0.31302,-0.5653 0.13321,-0.1953 0.31753,-0.2548 0.81218,-0.2617 0.49124,-0.012 0.74649,-0.088 1.0989,-0.3499 1.36709,-1.0152 0.60734,-2.4864 -1.87641,-3.6339 l -0.92916,-0.4292 -0.61653,0.3038 c -0.73823,0.3639 -0.86213,0.3685 -1.563776,0.058 -0.50422,-0.2228 -0.577,-0.2262 -1.01681,-0.047 -0.26053,0.1065 -0.65122,0.1647 -0.86816,0.1304 -0.33548,-0.053 -0.42713,-0.012 -0.61277,0.3079 -0.12003,0.2037 -0.4381,0.4617 -0.70678,0.5733 l -0.4885,0.2032 0.0547,0.6416 c 0.0489,0.5736 0.0145,0.6855 -0.32454,1.0549 -0.32822,0.3575 -0.46336,0.4144 -1.00525,0.4221 -0.54053,0.012 -0.62606,-0.024 -0.62606,-0.2361 0,-0.1725 0.13238,-0.2829 0.44752,-0.3734 0.24614,-0.07 0.51943,-0.1738 0.60733,-0.2291 0.2338,-0.1473 0.19028,-0.8178 -0.0924,-1.424 l -0.24665,-0.5291 0.44537,0 c 0.24494,0 0.63662,-0.077 0.87041,-0.1729 0.38133,-0.1551 0.43396,-0.2384 0.51177,-0.8095 l 0.0868,-0.6365 0.50189,0.2494 c 0.80284,0.3986 1.27651,0.3034 1.64083,-0.3305 0.0945,-0.1646 0.20319,-0.1258 0.71586,0.2551 0.33238,0.247 0.683476,0.4491 0.780236,0.4491 0.0967,0 0.62362,-0.2295 1.17078,-0.5101 0.9024,-0.4627 1.05338,-0.5026 1.62432,-0.4288 0.73572,0.096 1.27041,0.3352 1.80414,0.8104 0.53859,0.4795 0.76469,0.5263 1.14257,0.2371 0.25366,-0.1944 0.32782,-0.3631 0.32782,-0.7462 0,-0.9256 -0.62826,-1.7893 -1.99073,-2.7368 l -0.96498,-0.671 0.83277,-0.082 c 1.01172,-0.1006 1.10005,-0.148 1.10005,-0.5949 0,-0.4517 -0.72735,-1.1085 -1.57711,-1.4243 l -0.61815,-0.2297 0.38656,-0.3902 c 0.21261,-0.2147 0.44765,-0.5479 0.52228,-0.7407 0.24206,-0.625 -0.0794,-0.8928 -1.37569,-1.1462 -0.32723,-0.064 -0.40571,-0.1301 -0.34236,-0.2888 0.0451,-0.1139 0.11414,-0.573 0.15329,-1.0215 0.11903,-1.3645 -0.39906,-1.9427 -1.87963,-2.0981 l -0.70322,-0.074 -0.0391,-0.6674 c -0.0222,-0.3792 0.0468,-0.9128 0.15984,-1.2357 0.42401,-1.2115 0.15399,-2.2397 -0.72686,-2.7679 -0.63557,-0.3812 -1.89405,-0.7232 -3.0005,-0.8154 -0.88322,-0.074 -1.09681,-0.145 -1.88197,-0.6281 -0.48711,-0.2998 -0.95522,-0.545 -1.04022,-0.545 -0.35137,0 -0.87544,0.3854 -1.13032,0.8313 -0.30508,0.5337 -0.9557,0.911 -1.57146,0.9112 -0.31612,0 -0.45845,0.082 -0.63032,0.3661 -0.12217,0.2012 -0.40663,0.4627 -0.63232,0.5811 -0.34415,0.1803 -0.4205,0.3032 -0.47364,0.762 -0.037,0.3202 -0.1773,0.6652 -0.33812,0.8318 -0.2492,0.2582 -0.25575,0.3002 -0.0703,0.4499 0.32558,0.2631 0.5712,0.8193 0.5712,1.2933 0,0.3364 -0.10624,0.5412 -0.45894,0.8845 -0.25242,0.2458 -0.55449,0.4292 -0.67126,0.4074 -0.33953,-0.063 -0.3191,-0.5144 0.038,-0.8409 0.42155,-0.3857 0.41224,-0.8095 -0.0265,-1.2052 l -0.35145,-0.3171 -0.0922,0.5258 c -0.15178,0.8656 -0.52042,1.2371 -1.52014,1.5319 -0.11301,0.033 -0.24182,0.2371 -0.28614,0.4528 -0.0443,0.2158 -0.25162,0.5588 -0.46068,0.7622 -0.32924,0.3206 -0.36296,0.414 -0.25199,0.6983 0.13216,0.3384 0.0497,0.9853 -0.15753,1.2365 -0.0799,0.097 0.0207,0.2259 0.31245,0.4015 0.69354,0.4173 0.9677,1.4048 0.5421,1.9527 -0.10322,0.1328 -0.19083,0.3816 -0.19461,0.5527 -0.01,0.4603 -0.44169,1.3066 -0.78654,1.5426 -0.16582,0.1137 -0.50783,0.2385 -0.75999,0.278 -0.37756,0.059 -0.48632,0.1467 -0.61611,0.4962 -0.0867,0.2333 -0.34724,0.5497 -0.57902,0.7031 -0.35923,0.2376 -0.40494,0.3221 -0.30978,0.5727 0.1164,0.3059 -0.0618,1.1964 -0.26367,1.3179 -0.0607,0.036 0.11338,0.2844 0.38705,0.5507 0.41754,0.4065 0.49748,0.567 0.49748,0.9987 0,0.4111 -0.0869,0.6068 -0.43345,0.9748 -0.37501,0.3983 -0.46119,0.438 -0.63929,0.2942 -0.27402,-0.2215 -0.25955,-0.4235 0.05,-0.6962 0.14066,-0.1238 0.25572,-0.3759 0.25572,-0.5601 0,-0.3719 -0.22805,-0.61 -0.89502,-0.9342 -0.24612,-0.12 -0.46995,-0.2371 -0.4974,-0.2608 -0.0275,-0.023 0.15955,-0.2687 0.41554,-0.5447 0.5505,-0.593 0.57102,-0.7896 0.14615,-1.3982 -0.34431,-0.4934 -0.33133,-0.5246 0.27006,-0.6501 0.61889,-0.129 0.94426,-0.4982 0.94426,-1.0712 l 0,-0.4931 0.68093,0 c 0.81714,0 1.20464,-0.314 1.32252,-1.0713 0.0415,-0.2665 0.19068,-0.6713 0.33159,-0.8995 0.25214,-0.4084 0.25235,-0.4199 0.0135,-0.7315 -0.13352,-0.174 -0.48162,-0.4075 -0.77355,-0.5186 -0.73396,-0.2794 -0.75683,-0.326 -0.37611,-0.7666 0.53066,-0.614 0.54952,-0.9117 0.0919,-1.4521 l -0.39708,-0.469 0.63522,-0.273 c 0.66917,-0.2874 0.86282,-0.6059 0.7421,-1.2207 -0.0643,-0.3277 0.0942,-0.4395 0.6227,-0.4395 0.4288,0 1.03775,-0.3221 1.11553,-0.59 0.035,-0.1211 0.10122,-0.4549 0.14725,-0.7429 0.0579,-0.363 0.15921,-0.5472 0.32968,-0.5998 0.13535,-0.041 0.41838,-0.2173 0.62897,-0.3899 0.42657,-0.3494 0.49018,-0.7778 0.1911,-1.2871 -0.26244,-0.4471 -0.25327,-0.4588 0.41133,-0.5318 0.73476,-0.081 1.25341,-0.5626 1.12818,-1.0484 -0.0769,-0.2984 -0.0727,-0.2998 0.67536,-0.2174 0.92983,0.1029 1.18942,-0.021 1.53002,-0.7261 0.14339,-0.2969 0.35195,-0.6137 0.46349,-0.7038 0.13107,-0.1065 0.20278,-0.3653 0.20278,-0.7335 0,-0.5227 -0.0527,-0.6179 -0.63929,-1.154 -0.59377,-0.5427 -0.63931,-0.6266 -0.63931,-1.1776 0,-0.539 -0.0508,-0.6397 -0.55615,-1.1024 -0.30589,-0.2801 -0.68856,-0.7823 -0.85039,-1.1162 -0.3861,-0.7968 -1.44791,-1.8008 -2.38334,-2.2536 -0.57532,-0.2786 -0.93228,-0.3644 -1.53846,-0.3693 -1.00123,-0.012 -1.40766,0.2616 -1.79004,1.1876 -0.31713,0.7683 -1.19653,1.6333 -2.10568,2.0714 -0.31733,0.1529 -1.10814,0.4125 -1.75741,0.5766 -1.50488,0.3805 -1.75385,0.5958 -1.86782,1.6151 -0.12254,1.0957 -0.28785,1.573 -0.76859,2.2179 -0.39893,0.5351 -0.46644,0.5725 -1.17341,0.6504 -1.27033,0.1398 -1.70911,0.5311 -2.12336,1.8931 -0.45921,1.5096 -1.40832,2.5803 -2.41796,2.7276 -0.82035,0.12 -1.76389,0.6639 -2.16672,1.2495 -0.27599,0.4013 -0.48639,0.5465 -1.0358,0.7151 -0.76449,0.2345 -1.24448,0.6453 -1.28292,1.0979 -0.014,0.1636 0.0236,0.8358 0.0833,1.4938 0.12545,1.3833 -0.022,1.8621 -0.87736,2.8491 -1.02126,1.1784 -1.08214,1.9365 -0.29785,3.7094 0.669,1.5124 0.77896,2.4635 0.37411,3.2361 -0.25004,0.477 -1.04368,1.1452 -1.36029,1.1452 -0.0754,0 -0.32646,0.1903 -0.55797,0.4229 -0.51266,0.515 -0.58261,1.1411 -0.18563,1.6616 0.67243,0.8817 1.87268,0.8741 3.10332,-0.019 l 0.43725,-0.3176 0.43579,0.4956 c 0.6246,0.7104 0.9302,0.6546 1.64118,-0.2998 l 0.26637,-0.3575 0.39473,0.6245 c 0.5714,0.9041 1.00779,1.245 1.98739,1.5529 0.83817,0.2633 0.86779,0.2865 0.8311,0.6486 -0.0373,0.3693 -0.0573,0.3791 -1.18878,0.5846 -1.4664,0.2665 -1.7255,0.3684 -2.36417,0.9301 l -0.52356,0.4605 -0.41011,-0.385 c -0.74509,-0.6996 -1.74548,-0.8484 -2.65776,-0.3953 -0.68902,0.3422 -1.01168,0.8861 -1.01229,1.7065 0,0.3594 -0.0478,0.6534 -0.10561,0.6534 -0.0578,0 -0.37829,-0.091 -0.71224,-0.2014 -0.84617,-0.2807 -1.88931,-0.186 -2.33358,0.2117 -0.18483,0.1656 -0.44599,0.5389 -0.58038,0.8299 -0.19932,0.4317 -0.308,0.5295 -0.58996,0.5318 -0.19011,0 -0.58679,0.109 -0.88154,0.2396 -0.71365,0.3153 -1.01319,0.9095 -1.20509,2.39 -0.13836,1.0675 -0.18601,1.1968 -0.57414,1.5576 -0.62996,0.5856 -0.6534,0.8751 -0.17541,2.1655 0.41106,1.1098 0.41374,1.1318 0.25227,2.0507 -0.3403,1.9367 0.0834,4.0333 1.18061,5.8413 0.69541,1.146 2.47846,2.9301 3.70789,3.7101 l 0.98806,0.6269 -0.0291,0.8319 c -0.0442,1.2635 0.24486,1.6153 1.73121,2.1064 0.63827,0.2108 0.6749,0.247 0.79688,0.7888 0.16063,0.7133 0.44852,1.024 1.17,1.2634 0.39095,0.1297 0.8177,0.4394 1.36491,0.9909 0.45184,0.4553 0.93292,0.8231 1.11245,0.8506 0.87815,0.1343 1.64843,-0.4609 2.76883,-2.1399 0.38834,-0.5818 0.81299,-1.2067 0.94365,-1.3884 0.23595,-0.3284 0.23512,-0.3339 -0.12217,-0.8141 -0.54762,-0.7358 -0.85093,-0.8748 -2.02373,-0.9266 -1.15087,-0.051 -1.52732,-0.2303 -2.04946,-0.9772 -0.22308,-0.3191 -0.28768,-0.5873 -0.28768,-1.1949 0,-0.4307 0.0508,-0.8138 0.11289,-0.8512 0.0621,-0.037 0.25539,0.041 0.42962,0.1748 0.25624,0.1963 0.35576,0.2137 0.52071,0.092 0.24451,-0.181 0.47115,-0.7364 0.47115,-1.1549 0,-0.2614 0.0594,-0.303 0.43334,-0.303 0.73099,0 1.01436,-0.3364 1.07593,-1.2776 0.0531,-0.8117 0.0541,-0.8134 0.56443,-1.0374 0.72599,-0.3188 0.9192,-0.6592 0.8253,-1.4544 -0.0421,-0.3572 -0.11691,-0.7849 -0.16589,-0.9505 -0.0764,-0.2578 -0.055,-0.2883 0.14937,-0.2119 0.13118,0.048 0.48303,0.1218 0.78186,0.1616 0.52422,0.07 0.55103,0.057 0.76126,-0.3724 0.12595,-0.2571 0.37312,-0.5074 0.58555,-0.5932 0.50256,-0.2026 0.87043,-0.6922 0.87029,-1.1581 -5e-5,-0.2134 -0.17663,-0.7511 -0.39236,-1.195 l -0.39227,-0.8072 0.27837,-0.2195 c 0.26971,-0.2126 0.29292,-0.2084 0.74399,0.1366 0.75494,0.5775 1.23727,0.7638 1.97792,0.7638 0.46083,0 0.74739,0.063 0.85309,0.1866 0.19893,0.2334 0.75724,0.2415 1.09033,0.016 0.13871,-0.094 0.43512,-0.2096 0.65868,-0.2569 0.40232,-0.085 0.40738,-0.08 0.49451,0.4852 0.13115,0.8515 0.53467,1.3652 1.10923,1.4122 0.25722,0.021 0.64088,-0.048 0.85259,-0.1557 0.5094,-0.2564 0.50116,-0.2598 0.5985,0.2453 0.10122,0.5256 0.41746,0.7301 0.86978,0.5627 0.78509,-0.2906 0.689,-0.8976 -0.32113,-2.0286 -0.35159,-0.3938 -0.58676,-0.7158 -0.52261,-0.7158 0.0641,0 0.45108,0.1126 0.85988,0.249 0.77773,0.2605 1.66562,0.3219 1.96718,0.136 0.28175,-0.1737 0.0773,-0.6664 -0.60468,-1.457 l -0.6195,-0.7182 0.19143,-0.4744 c 0.17606,-0.4364 0.17295,-0.4943 -0.0386,-0.722 -0.12656,-0.1361 -0.48057,-0.3903 -0.78668,-0.5649 -0.3883,-0.2215 -0.55717,-0.4007 -0.55854,-0.5925 -0.004,-0.4778 -0.21044,-0.6371 -0.91775,-0.7063 -0.62036,-0.061 -0.67855,-0.093 -0.67855,-0.3776 0,-0.2732 0.0623,-0.3162 0.51144,-0.3521 0.82559,-0.067 1.41089,0.1653 1.64804,0.6519 0.11326,0.2323 0.20592,0.4738 0.20592,0.5364 0,0.063 0.21879,0.2334 0.48619,0.3798 0.85827,0.4697 1.14551,1.0068 0.92979,1.739 -0.0973,0.3302 -0.0648,0.4269 0.23777,0.7092 0.21714,0.2025 0.42897,0.2973 0.55706,0.2495 0.11364,-0.042 0.33721,0.012 0.49677,0.1212 0.69572,0.4743 1.19796,0.1826 1.51807,-0.882 l 0.15621,-0.5194 0.63634,0.4262 c 0.34998,0.2343 0.67877,0.4261 0.73066,0.4261 0.0519,0 0.33276,-0.1681 0.62418,-0.3737 l 0.52987,-0.3736 0.27542,0.5704 c 0.30223,0.626 0.702,0.8564 1.27357,0.7343 0.33675,-0.071 0.35624,-0.05 0.44159,0.5042 0.12179,0.7906 0.47977,1.1486 1.27136,1.2713 0.52231,0.081 0.64667,0.1493 0.67957,0.3724 0.0532,0.3612 -0.39757,0.4733 -1.1303,0.2813 -0.80226,-0.2104 -1.1084,-0.4513 -1.34741,-1.0606 -0.16584,-0.4227 -0.2942,-0.5607 -0.57852,-0.6215 -0.20097,-0.042 -0.53689,-0.2339 -0.74649,-0.4246 -0.33599,-0.3055 -0.4552,-0.3396 -1.00767,-0.288 -0.37345,0.035 -0.74793,0 -0.92684,-0.098 -0.24719,-0.1289 -0.31057,-0.1258 -0.35884,0.017 -0.0322,0.096 -0.245,0.3556 -0.47281,0.5782 -0.43659,0.4264 -1.08737,0.5421 -1.58642,0.282 -0.21383,-0.1114 -0.22878,-0.077 -0.16693,0.3707 0.0602,0.4368 0.0206,0.5364 -0.34562,0.8693 -0.26294,0.2392 -0.54835,0.3762 -0.78363,0.3762 -0.43589,0 -0.4473,0.042 -0.12957,0.4786 0.49163,0.6754 1.15836,2.1031 1.42552,3.0522 0.21355,0.7587 0.2657,1.2373 0.23177,2.1264 -0.0431,1.1308 -0.053,1.1615 -0.67808,2.1328 -1.55431,2.4148 -2.4983,4.5729 -2.4983,5.7119 0,0.5058 -0.0275,0.5496 -0.3927,0.6277 -0.21601,0.046 -0.403,0.064 -0.41556,0.041 -0.0125,-0.023 -0.25135,-0.4911 -0.53067,-1.0388 -0.27932,-0.5477 -1.12281,-1.7918 -1.87441,-2.7648 -0.75161,-0.973 -1.4365,-1.9753 -1.52196,-2.2274 -0.24142,-0.7122 -0.0902,-1.8741 0.36474,-2.802 0.47018,-0.9592 1.42525,-2.2132 2.24219,-2.9442 0.32674,-0.2924 0.59406,-0.5865 0.59406,-0.6534 0,-0.067 -0.31723,-0.122 -0.70496,-0.122 -0.38772,0 -0.81082,-0.064 -0.94019,-0.1431 -0.19432,-0.1186 -0.33813,-0.074 -0.82681,0.2533 -2.17808,1.4588 -3.7774,3.6464 -4.56072,6.2379 -0.1552,0.5135 -0.30045,0.9525 -0.32279,0.9758 -0.0223,0.023 -0.83618,-0.4642 -1.80857,-1.0831 l -1.76797,-1.1254 -0.21791,0.4127 c -0.19241,0.3646 -0.87223,0.82 -1.22386,0.82 -0.0684,0 -0.16149,0.1801 -0.2067,0.4 -0.0829,0.4034 -0.64902,1.0921 -0.90068,1.0956 -0.36061,0 -0.47146,0.2014 -0.30935,0.5478 0.2288,0.4887 0.73554,0.6952 1.70777,0.6952 1.22666,0 1.40609,0.1198 3.04907,2.0454 0.27054,0.3168 0.81302,0.7761 1.20551,1.0206 0.64967,0.4046 2.39981,1.1659 2.68017,1.1659 0.1243,0 1.23641,2.6633 2.07075,4.9592 0.58125,1.5994 1.21751,3.9647 1.3535,5.0316 0.0503,0.3944 0.13372,0.7428 0.18538,0.7739 0.0517,0.031 0.16554,-0.1799 0.25302,-0.4684 0.38755,-1.2789 1.63093,-3.3992 3.09726,-5.2817 1.19636,-1.5358 2.02231,-3.6035 2.23076,-5.5842 0.086,-0.8172 0.28102,-1.1317 0.62257,-1.0041 0.26585,0.099 0.24748,0.8704 -0.0538,2.2595 -0.43956,2.0266 -1.09091,3.3949 -2.42861,5.1013 -1.31837,1.6817 -2.15478,3.1576 -2.80275,4.9457 -0.53321,1.4714 -0.75822,2.7946 -0.85257,5.0132 -0.11426,2.6859 -0.37082,4.6957 -0.9638,7.5489 -0.945,4.5468 -1.87527,7.05 -3.32991,8.9602 -1.31039,1.7208 -2.77272,2.75 -4.85215,3.4145 -0.70139,0.2242 -1.71044,0.6361 -2.24237,0.9155 -0.9126,0.4792 -2.37951,1.49 -2.54841,1.7559 -0.0499,0.079 5.15896,0.1215 14.77611,0.1215 l 14.85313,0 -0.0864,-0.3424 z m -14.55995,-2.8526 c -0.31869,-0.3102 0.20596,-2.411 0.94287,-3.7756 1.12175,-2.0773 1.40449,-2.7094 1.53117,-3.423 0.23385,-1.3175 0.23773,-1.3266 0.54583,-1.284 0.26076,0.036 0.28139,0.1006 0.26081,0.8191 -0.0297,1.0388 -0.31012,1.8379 -1.15839,3.3016 -0.74324,1.2827 -1.43579,3.0219 -1.43866,3.6129 -0.002,0.6131 -0.38894,1.036 -0.68363,0.749 z m -2.72971,-6.4661 c -0.13325,-0.3381 0.44235,-2.8418 0.9338,-4.0617 0.71495,-1.7747 1.52347,-3.1274 3.01115,-5.0372 1.19634,-1.5359 2.0223,-3.6036 2.23076,-5.5842 0.0877,-0.8332 0.25777,-1.1059 0.60798,-0.9752 0.27606,0.103 0.26751,0.6162 -0.0356,2.1317 -0.40923,2.0461 -1.0715,3.4617 -2.43281,5.2001 -1.80598,2.3062 -2.843,4.4284 -3.3398,6.8346 -0.14277,0.6914 -0.28983,1.3552 -0.32679,1.4751 -0.0844,0.2737 -0.54275,0.2856 -0.64868,0.017 z m 15.38317,-32.0689 c -0.34486,-1.2526 0.69194,-2.5754 2.02301,-2.5807 0.3871,0 0.59836,-0.09 0.90283,-0.3771 0.531156,-0.5012 1.745766,-0.7777 2.062346,-0.4696 0.26919,0.2621 0.13611,0.5956 -0.23805,0.5964 -0.69811,0 -1.26825,0.2604 -1.43757,0.6525 -0.163826,0.3793 -0.183186,0.3864 -0.952696,0.3559 -0.7445,-0.029 -0.80863,-0.012 -1.22939,0.4009 -0.3906,0.3803 -0.44391,0.5084 -0.44391,1.067 0,0.5859 -0.0235,0.6348 -0.30474,0.6348 -0.20795,0 -0.32924,-0.088 -0.38183,-0.2801 z m -1.27395,-1.5455 c -0.33147,-0.3227 0.47838,-1.6019 1.18533,-1.8722 0.36805,-0.1407 0.55196,-0.3149 0.72341,-0.685 0.34174,-0.7377 0.94793,-1.1327 1.82236,-1.1871 0.828946,-0.052 1.607136,0.2987 1.527006,0.6878 -0.0458,0.2229 -0.0905,0.2256 -1.283716,0.077 -0.56682,-0.07 -0.63638,-0.047 -1.04476,0.3508 -0.26356,0.2566 -0.4726,0.608 -0.52575,0.8837 -0.0755,0.3917 -0.13761,0.458 -0.42915,0.458 -0.46802,0 -0.86472,0.2985 -1.16926,0.8795 -0.23869,0.4556 -0.5789,0.6273 -0.80547,0.4067 z m -29.82994,-5.2629 c -0.62856,-0.274 -0.97332,-0.7699 -0.96456,-1.3874 0.005,-0.3828 -0.0473,-0.4903 -0.27286,-0.5568 -0.45178,-0.1332 -0.84506,-0.5605 -0.9322,-1.0127 -0.10762,-0.5588 0.25299,-1.4657 0.71524,-1.7984 0.30897,-0.2223 0.34818,-0.3198 0.29211,-0.7269 -0.13633,-0.9894 0.43765,-1.8365 1.4913,-2.2008 0.5742,-0.1985 0.64253,-0.2646 0.76542,-0.7396 0.33842,-1.3085 1.95629,-1.5931 2.55781,-0.4501 0.28066,0.5335 -0.26091,0.7436 -0.69966,0.2717 -0.54302,-0.5842 -1.20357,-0.062 -1.20731,0.9552 l -0.002,0.5135 -0.72471,0.058 c -0.61368,0.05 -0.78018,0.1187 -1.08682,0.453 -0.3947,0.43 -0.45314,0.8459 -0.21305,1.5164 0.1223,0.3415 0.11653,0.4266 -0.032,0.4736 -0.0995,0.032 -0.39676,0.266 -0.66048,0.5211 -0.33559,0.3249 -0.47947,0.5731 -0.47947,0.8273 0,0.509 0.21269,0.6619 0.92059,0.6619 0.33754,0 0.61372,0.027 0.61372,0.059 0,0.033 -0.0929,0.2859 -0.20646,0.5621 -0.16913,0.4116 -0.17869,0.5677 -0.053,0.8632 0.13856,0.3256 0.33263,0.4494 1.06801,0.6812 0.12872,0.041 0.21465,0.1651 0.19179,0.2778 -0.0694,0.3429 -0.52815,0.4177 -1.08159,0.1764 z m 10.57024,-14.0639 c -0.32467,-0.5904 0.0637,-1.7642 0.73853,-2.2319 0.38239,-0.2651 1.48349,-0.5461 1.61979,-0.4135 0.0381,0.037 0.24772,-0.1102 0.46561,-0.3268 0.67877,-0.6759 2.17872,-0.88 2.26229,-0.3077 0.0299,0.2041 -0.0366,0.291 -0.25572,0.3352 -0.16279,0.033 -0.52613,0.1054 -0.80742,0.1618 -0.40222,0.08 -0.5524,0.1876 -0.70324,0.5023 -0.18614,0.3881 -0.21563,0.4001 -1.00369,0.4028 -0.75324,0 -0.84374,0.034 -1.25223,0.4312 -0.36754,0.3578 -0.43553,0.5081 -0.41125,0.9085 0.016,0.2639 -0.0136,0.547 -0.0658,0.6294 -0.14317,0.2255 -0.43787,0.1796 -0.58681,-0.091 z m -4.16188,-12.5829 c -0.15201,-0.2396 0.0858,-0.8687 0.46953,-1.2423 0.4241,-0.4128 1.08911,-0.4995 1.71226,-0.223 0.28782,0.1276 0.35619,0.1187 0.46099,-0.064 0.21376,-0.3718 0.67091,-0.7228 1.03512,-0.7944 0.29391,-0.058 0.35162,-0.1335 0.35162,-0.4605 0,-0.2151 0.14588,-0.6002 0.3242,-0.8557 0.25565,-0.3663 0.29619,-0.5154 0.19178,-0.7053 -0.34155,-0.6212 -0.0661,-1.4539 0.6966,-2.1059 0.5201,-0.4444 0.61022,-0.4667 0.83347,-0.2048 0.1327,0.1557 0.071,0.2806 -0.36793,0.7441 -0.60269,0.6365 -0.65295,0.9553 -0.26683,1.692 0.26305,0.502 0.24499,0.7376 -0.0564,0.7376 -0.26923,0 -0.62355,0.4696 -0.63278,0.8386 -0.005,0.1892 0.0354,0.5194 0.0891,0.7339 l 0.0977,0.3901 -0.58537,-0.064 c -0.72472,-0.08 -1.03846,0.1551 -1.23768,0.9253 -0.0764,0.2954 -0.16586,0.5372 -0.19876,0.5372 -0.0329,0 -0.30649,-0.1724 -0.60795,-0.3831 -0.73941,-0.517 -1.19217,-0.4684 -1.53943,0.165 -0.24625,0.4491 -0.6003,0.6054 -0.76909,0.3397 z m 3.38194,-10.7853 c -0.44083,-1.1287 0.7377,-2.5305 2.12758,-2.5305 0.36308,0 0.54825,-0.069 0.66143,-0.2449 0.21145,-0.3297 0.74194,-0.5776 1.43863,-0.6722 0.65506,-0.088 0.9407,0.033 0.87466,0.3719 -0.0337,0.1734 -0.2228,0.2672 -0.73,0.362 -0.67532,0.1262 -1.16753,0.4942 -1.16753,0.8726 0,0.1236 -0.16724,0.1472 -0.67969,0.096 -1.18052,-0.1188 -1.79004,0.3727 -1.80556,1.4555 -0.006,0.4831 -0.0476,0.5657 -0.2955,0.5999 -0.21614,0.03 -0.32135,-0.047 -0.42402,-0.3099 z m 11.03408,42.3423 c 0.17999,-0.3423 0.7072,-1.2317 1.17157,-1.9764 0.84122,-1.3492 0.84432,-1.3575 0.84432,-2.2847 0,-1.0886 -0.24192,-2.0876 -0.79928,-3.3011 l -0.40042,-0.8718 -0.2632,0.3207 c -0.32262,0.3934 -1.15875,0.7497 -1.54024,0.6564 -0.22594,-0.056 -0.47213,0.1219 -1.24243,0.8934 -1.86465,1.8676 -2.63164,3.5811 -2.15239,4.8082 0.0676,0.1731 0.66262,1.0028 1.32228,1.8441 0.65969,0.8412 1.36142,1.8014 1.55944,2.1339 l 0.36002,0.6045 0.40653,-1.1024 c 0.22361,-0.6063 0.55381,-1.3825 0.7338,-1.7248 z m -3.86115,-2.0457 c -0.33151,-0.6029 -0.0391,-1.6152 0.62322,-2.1578 0.43562,-0.3568 1.31266,-0.6446 1.67982,-0.5511 0.14199,0.036 0.3223,-0.073 0.49186,-0.2954 0.41865,-0.5513 2.09582,-0.8655 2.26937,-0.4252 0.10988,0.2786 -0.19127,0.5586 -0.60103,0.5586 -0.5728,0 -0.98815,0.2097 -1.19816,0.605 -0.1833,0.3451 -0.23875,0.366 -0.93311,0.3525 -1.13091,-0.022 -1.75086,0.5244 -1.67627,1.4776 0.0509,0.6497 -0.38053,0.9364 -0.6557,0.4358 z m -5.63412,-0.6615 c 0.89173,-2.424 2.60403,-4.6485 4.49741,-5.843 0.58678,-0.3701 0.63491,-0.4364 0.56477,-0.7778 -0.1031,-0.5019 -0.24689,-0.6184 -0.56118,-0.4546 -0.35968,0.1873 -1.06438,0.1705 -1.36817,-0.033 -0.13871,-0.093 -0.59742,-0.1996 -1.01935,-0.2374 -0.42195,-0.037 -0.85841,-0.1042 -0.96995,-0.1479 -0.17357,-0.068 -0.19494,0.016 -0.14844,0.5799 0.0632,0.7665 -0.24152,1.3227 -0.99435,1.8147 -0.24446,0.1598 -0.46603,0.3572 -0.49239,0.4387 -0.1164,0.3597 -0.72005,0.8326 -1.0628,0.8326 -0.33603,0 -0.35965,0.034 -0.35965,0.5121 0,0.6606 -0.42621,1.3956 -0.9765,1.6841 -0.23648,0.1241 -0.42927,0.2827 -0.42841,0.3527 0.001,0.07 0.67691,0.5566 1.50234,1.0813 0.82544,0.5248 1.50748,0.9588 1.51563,0.9647 0.009,0 0.14363,-0.3393 0.30104,-0.7672 z m -1.44529,-1.919 c -0.20399,-0.1987 -0.0464,-0.4439 0.48658,-0.7574 0.57104,-0.3357 0.85243,-0.7575 0.79901,-1.1975 -0.0215,-0.1766 0.111,-0.2748 0.54705,-0.4056 1.18517,-0.3555 1.53881,-1.0276 1.0904,-2.0723 -0.16491,-0.3842 -0.16511,-0.4572 -0.001,-0.5893 0.64269,-0.5192 1.23302,1.1091 0.78259,2.1586 -0.19778,0.4609 -0.85149,1.0441 -1.29036,1.1513 -0.1906,0.047 -0.36305,0.2423 -0.48936,0.5553 -0.27883,0.6911 -1.59191,1.4804 -1.92428,1.1569 z m 31.496106,-4.9449 c 0,-0.027 -0.0863,-0.081 -0.19179,-0.1211 -0.10548,-0.039 -0.19178,-0.017 -0.19178,0.048 0,0.067 0.0863,0.1211 0.19178,0.1211 0.10549,0 0.19179,-0.022 0.19179,-0.048 z m -2.64712,-19.0528 c -0.12635,-0.1683 -0.47424,-0.3891 -0.77312,-0.4903 -0.72292,-0.245 -0.68733,-0.15 0.0868,0.2318 0.34664,0.171 0.6665,0.3681 0.71077,0.4379 0.0443,0.07 0.10862,0.1267 0.14289,0.1267 0.0342,0 -0.041,-0.1378 -0.16738,-0.3061 z"
       id="path4033"
       inkscape:connector-curvature="0" />
    <path
       style="fill:#000000;fill-opacity:0.42452829;stroke:none"
       d="m 73.559864,613.66905 0,0 3.48725,2.1062 1.2593,-3.0493 2.45399,-2.7032 2.06653,-1.2575 1.38846,0.1887 0.80722,0.5029 -1.64676,2.1061 -1.25929,1.8862 -0.45205,1.4773 0.77495,1.6661 1.84051,2.7348 1.38844,1.4773 0.74265,-2.2318 1.45303,-2.4205 1.06554,-2.0747 0,-1.9488 -0.74264,-2.2005 -1.09784,-1.9803 -0.25832,-0.6287 1.71134,-0.1886 0.0646,-0.5658 -0.0322,-0.7229 0.77494,-0.032 0.71037,-0.1572 0.83684,-0.8397 1.1416,2.2226 0.86762,2.4006 0.36531,2.6673 1.59825,-1.4225 1.9179,-1.3338 1.09595,0.088 1.32426,-0.045 0.68497,0.7557 0.958936,0.5781 -0.137,0.5779 -1.963556,1.3336 -4.3381,4.5344 -0.12305,4.4187 c 0.33888,-1.8136 1.34643,-2.3937 2.84147,-2.0747 -0.10787,-2.0062 0.92638,-2.5034 2.51859,-2.2633 0.32448,-0.9256 0.990586,-1.3256 2.001946,-1.1944 l 0.19373,-0.8803 -0.51663,-2.7033 -0.5812,-1.6346 -1.614476,-1.446 -2.06654,0.063 -0.32287,-2.2633 c -0.85888,-0.1639 -1.77071,-0.2831 -1.74365,-1.1946 l -1.8082,-1.2572 -2.1311,0.1257 -1.13014,0.7229 -0.58122,0.1573 -0.74265,0.1572 -0.32289,1.1001 -1.42074,0.3458 c 0.22057,1.3956 -0.10987,2.328 -1.77592,2.1375 l -1.06555,-0.5973 -0.93641,-0.094 -1.4853,-2.1061 -0.71037,0.5973 -1.25929,-0.4086 -1.96966,-0.2201 0.12916,1.3517 -0.45204,1.1631 -1.67905,1.4459 -0.74268,0.1886 -0.16144,1.3517 -1.38844,1.1631 z"
       id="path4035"
       inkscape:connector-curvature="0"
       sodipodi:nodetypes="ccccccccccccccccccccccccccccccccccccccccccccccccccccccccccccccccccccccc" />
    <path
       style="fill:#ffffff;fill-opacity:1;stroke:none"
       d="m 68.240724,433.66935 -10.20348,4.4009 c -1.75581,0.8361 -0.46478,2.5807 1.61448,2.0118 3.24501,-0.253 8.19138,0.035 7.81406,-0.8173 0.31783,1.6088 1.41524,3.7724 4.45593,4.5894 l 0,1.8232 c -8.54833,7.555 -11.70183,15.0049 -6.84536,25.8391 2.60571,6.7628 8.04759,11.1959 14.53026,14.7741 l -0.12916,3.0806 c -0.76895,0.2233 -0.87303,1.5896 -3.51177,0.1944 -2.05726,-1.0877 -4.71427,-0.3583 -2.2379,1.5157 -2.42623,0.1633 -1.00218,1.8911 1.36992,2.0451 -0.86483,1.3992 1.63105,1.8301 3.19649,1.4225 2.36577,-0.5035 4.45672,-2.025 4.18496,-6.4968 l 2.18682,1.1613 -0.52676,4.7131 c -0.67035,0.6817 -0.87887,1.3633 -2.5572,2.045 -2.36967,1.1689 -2.73714,2.2675 -1.27859,2.4005 -0.99362,1.9754 1.63841,2.0369 1.6439,1.9559 0.27502,2.2378 1.73815,1.1597 3.8358,-1.6892 0.57243,-0.7039 1.97299,-0.5346 1.23293,-2.6228 l 1.23294,-4.7566 c 10.99638,7.9243 29.804876,0.058 24.019366,-14.0479 0.40358,2.3314 -2.13601,4.9327 -3.47048,3.1119 l 0.73063,-0.8002 c -4.21443,-1.5512 -8.26649,-5.8689 -12.238016,-11.5583 -3.45928,-7.3153 -10.46068,-11.9195 -18.72232,-15.5592 2.93969,-4.5622 6.76481,-7.7918 6.39299,-17.3375 -0.76043,-8.5133 -13.10362,-9.4986 -16.34778,-1.4225 l -0.48435,0"
       id="path3007"
       inkscape:connector-curvature="0"
       sodipodi:nodetypes="cccccccccscccccccccccccccccccc" />
    <path
       style="fill:#080008;fill-opacity:1"
       d="m 82.079114,501.53225 c -0.15285,-0.1065 -0.34198,-0.3819 -0.42031,-0.6129 -0.12291,-0.3625 -0.21422,-0.4312 -0.66611,-0.5016 -0.35539,-0.056 -0.66523,-0.2193 -0.96415,-0.5103 -0.38027,-0.3701 -0.43527,-0.4988 -0.40254,-0.9403 0.03,-0.4041 -0.0149,-0.5399 -0.21376,-0.6456 -1.05045,-0.5593 -0.25867,-1.7092 2.03178,-2.9507 0.84836,-0.4599 1.40903,-0.862 1.73546,-1.2448 0.47936,-0.5621 0.48351,-0.5766 0.69375,-2.4326 0.29343,-2.5901 0.31607,-2.4336 -0.40584,-2.8055 l -0.61358,-0.316 -0.14339,1.0238 c -0.0789,0.5632 -0.24129,1.3261 -0.36092,1.6957 -0.66678,2.0592 -2.56413,3.3762 -5.10688,3.5446 -1.51967,0.1004 -2.74897,-0.438 -2.74897,-1.2045 0,-0.2953 -0.075,-0.3646 -0.54342,-0.5007 -0.8959,-0.2606 -1.49778,-0.615 -1.76261,-1.0377 -0.33245,-0.5309 -0.31788,-0.665 0.11841,-1.0898 l 0.3696,-0.3598 -0.25627,-0.5042 c -0.21585,-0.4247 -0.23247,-0.5602 -0.10548,-0.8587 0.21944,-0.5157 0.67674,-0.6999 1.72034,-0.6928 0.77508,0 1.08714,0.082 2.147,0.529 0.68207,0.2876 1.37353,0.5229 1.53661,0.5229 0.16305,0 0.50263,-0.1363 0.75459,-0.303 0.42057,-0.2783 0.4649,-0.3665 0.54111,-1.0764 0.0457,-0.4252 0.0831,-1.0401 0.0831,-1.3663 l 0,-0.5933 -1.05485,-0.5888 c -3.79766,-2.12 -7.88855,-5.5055 -10.06454,-8.3294 -1.59593,-2.0711 -2.37707,-3.4701 -3.5939,-6.4367 -1.53999,-3.7543 -2.10729,-6.4618 -2.00357,-9.5617 0.0923,-2.7584 0.58809,-4.6992 1.83238,-7.173 1.21025,-2.4059 2.77157,-4.4382 5.44556,-7.088 l 1.76734,-1.7513 0,-0.6935 c 0,-0.6529 -0.0206,-0.6986 -0.35161,-0.7787 -1.24749,-0.3025 -2.87067,-1.7163 -3.51159,-3.0588 l -0.4201,-0.88 -0.44751,0.071 c -0.24613,0.039 -1.85717,0.1244 -3.58007,0.1895 -1.72291,0.065 -3.48705,0.1544 -3.92029,0.1982 -0.99272,0.1005 -1.57375,-0.079 -2.08273,-0.6436 -0.44359,-0.4917 -0.49082,-0.9019 -0.16623,-1.4429 0.26635,-0.4439 0.75297,-0.6775 6.94014,-3.3306 l 4.41489,-1.8931 0.43463,-0.8307 c 0.59877,-1.1441 2.42365,-2.9084 3.65518,-3.5338 1.43433,-0.7284 2.68207,-1.0179 4.40539,-1.0219 1.63087,0 2.59739,0.1922 3.92878,0.7964 2.20537,1.0009 3.8132,2.9904 4.33217,5.3605 0.25189,1.1503 0.17672,4.967 -0.12959,6.5792 -0.64686,3.4045 -1.54595,5.3607 -4.31067,9.3785 -0.83557,1.2143 -1.51921,2.2404 -1.51921,2.2801 0,0.04 0.56099,0.3273 1.24663,0.6389 0.68566,0.3116 1.93708,0.9323 2.78095,1.3798 6.81094,3.6102 11.13577,7.5161 13.88269,12.5379 0.61253,1.1199 1.5382,2.4525 2.85312,4.1076 3.242976,4.0821 6.033326,6.5452 8.920866,7.8748 l 1.23546,0.5689 -0.39982,0.4843 c -0.33211,0.4023 -0.3681,0.5039 -0.21258,0.5996 0.31128,0.1918 0.57216,0.1363 1.09505,-0.2327 0.63868,-0.4507 1.17151,-1.4068 1.27864,-2.294 0.0733,-0.6064 0.12505,-0.706 0.40229,-0.7738 0.17505,-0.042 0.33401,-0.06 0.35324,-0.041 0.14462,0.1538 0.74356,2.3398 0.90859,3.3162 0.41329,2.4452 -0.0591,5.1738 -1.25289,7.2378 -1.96732,3.4015 -5.83816,5.8717 -10.65748,6.8014 -1.700966,0.3281 -5.061146,0.3011 -6.771936,-0.054 -2.16851,-0.4506 -4.23311,-1.2303 -5.7237,-2.1615 -0.33829,-0.2113 -0.63201,-0.363 -0.6527,-0.3371 -0.0207,0.025 -0.2719,0.9506 -0.55825,2.055 -0.45096,1.7392 -0.50416,2.083 -0.3976,2.5696 0.16545,0.7551 -0.0875,1.3348 -0.77576,1.7783 -0.28628,0.1844 -0.91512,0.8218 -1.39745,1.4161 -1.44334,1.7788 -2.48866,2.4185 -3.17484,1.9423 z m 1.53788,-1.2987 c 0.34138,-0.3155 0.9047,-0.9351 1.25184,-1.3769 0.34714,-0.4418 0.87137,-0.9581 1.16496,-1.1473 0.64216,-0.4138 0.77967,-0.722 0.60459,-1.355 -0.11413,-0.4125 -0.0522,-0.7866 0.4556,-2.7554 l 0.58761,-2.2779 -0.28474,-0.1872 c -0.1566,-0.1029 -0.7866,-0.4758 -1.4,-0.8285 l -1.11528,-0.6411 -0.0716,0.5168 c -0.0393,0.2841 -0.14308,1.2396 -0.23045,2.1231 l -0.15884,1.6065 -0.75702,0.7877 c -0.55235,0.5748 -1.06447,0.9457 -1.8943,1.3717 -1.12086,0.5752 -2.0335,1.2557 -2.0335,1.5161 0,0.073 0.20139,0.1698 0.44751,0.2149 0.49858,0.091 0.50507,0.1053 0.30636,0.6599 -0.2871,0.8017 0.13697,1.2612 1.16424,1.2612 0.47676,0 0.50359,0.022 0.58603,0.4668 0.1717,0.9276 0.41331,0.9354 1.37697,0.045 z m -5.35148,-6.2835 c 2.17636,-0.571 3.27737,-1.8309 3.6516,-4.179 0.0753,-0.4723 0.11878,-1.069 0.0965,-1.3257 -0.0379,-0.4391 -0.10097,-0.5018 -1.06314,-1.0557 l -1.02288,-0.5888 -0.082,0.7036 c -0.0452,0.3871 -0.0913,0.9839 -0.10286,1.3262 -0.0202,0.6036 -0.0408,0.6355 -0.68514,1.058 -0.93142,0.6107 -1.67033,0.5968 -3.1576,-0.059 -0.86701,-0.3829 -1.24708,-0.4819 -1.87923,-0.49 -1.18255,-0.016 -1.23777,0.1395 -0.36682,1.0285 0.79205,0.8082 0.79724,0.7852 -0.21669,0.9602 -0.26447,0.046 -0.51463,0.1362 -0.55591,0.2012 -0.21114,0.3326 0.82339,0.8478 2.08168,1.0367 0.52328,0.079 0.53098,0.087 0.40505,0.4388 -0.0706,0.1971 -0.10924,0.4541 -0.0859,0.5709 0.0968,0.4848 1.76521,0.6944 2.98322,0.3749 z m 23.422416,-0.4422 c 4.7739,-0.9528 8.3234,-3.383 10.07565,-6.8986 0.77196,-1.5488 1.004,-2.5494 1.0148,-4.3756 0.009,-1.4316 -0.23158,-3.1743 -0.43722,-3.1743 -0.0538,0 -0.16765,0.1641 -0.25295,0.3646 -0.23919,0.5623 -1.24016,1.4794 -1.7711,1.6231 -0.64691,0.1749 -0.79175,0.1631 -1.30333,-0.1054 -0.43718,-0.2294 -0.45206,-0.2292 -0.79559,0.012 -0.57233,0.3943 -2.13141,1.0515 -3.29393,1.3883 -7.348936,2.1295 -17.701176,0.5547 -24.229146,-3.6853 -3.97721,-2.5834 -6.81765,-5.5706 -8.45508,-8.8919 -1.03993,-2.1094 -1.52572,-4.751 -1.20845,-6.5714 0.58065,-3.3317 2.9861,-5.5632 6.43349,-5.968 0.87322,-0.103 1.24795,-0.012 1.24795,0.3046 0,0.2657 -0.15077,0.3201 -1.21306,0.4383 -2.92341,0.3248 -4.96832,2.0985 -5.64613,4.8971 -0.2849,1.1764 -0.17125,3.0965 0.26991,4.5604 0.66238,2.1978 2.07056,4.534 3.83701,6.3659 l 0.94307,0.978 -0.50796,-1.2402 c -1.13442,-2.7698 -2.40153,-6.9376 -2.23651,-7.3561 0.0457,-0.1163 0.19112,-0.1801 0.35469,-0.1566 0.2405,0.034 0.33203,0.246 0.69047,1.5957 0.49992,1.8825 1.27333,4.13 2.10855,6.127 0.96681,2.3119 0.96254,2.3058 2.29497,3.2879 0.66806,0.4924 1.23261,0.878 1.25453,0.8566 0.022,-0.021 -0.21969,-0.5066 -0.53696,-1.0785 -0.80647,-1.4539 -1.47491,-3.068 -2.25801,-5.4522 -0.7502,-2.284 -0.84806,-2.9317 -0.44291,-2.9317 0.1917,0 0.30597,0.1529 0.46484,0.6223 0.11589,0.3423 0.50849,1.5117 0.8725,2.5987 0.83293,2.4873 1.4226,3.8198 2.52361,5.7034 l 0.87139,1.4908 1.0868,0.5348 c 0.59775,0.2941 1.30903,0.6251 1.58065,0.7355 l 0.49384,0.2007 -0.1881,-0.2795 c -1.71992,-2.5562 -2.71958,-4.501 -3.947,-7.6788 -0.43763,-1.1329 -0.47838,-1.3228 -0.31746,-1.4794 0.1016,-0.099 0.26248,-0.1507 0.35765,-0.1151 0.0952,0.035 0.45143,0.7854 0.79175,1.6663 0.94752,2.4527 2.27583,5.0452 3.48312,6.7979 l 1.09274,1.5864 1.04343,0.3042 c 0.57389,0.1673 1.30233,0.3669 1.61878,0.4437 0.31646,0.076 0.67488,0.1675 0.79648,0.2019 0.12834,0.036 -0.18055,-0.4581 -0.73628,-1.1782 -1.22745,-1.5905 -2.12497,-3.0662 -3.40316,-5.5955 -0.82999,-1.6425 -0.99589,-2.0632 -0.87122,-2.2095 0.0847,-0.099 0.2315,-0.1806 0.32624,-0.1806 0.0953,0 0.59778,0.8483 1.12444,1.8982 1.2435,2.479 2.07043,3.8594 3.22476,5.3835 1.66276,2.1953 1.60683,2.1522 3.06905,2.3541 0.69544,0.096 1.5702,0.2055 1.9439,0.2434 l 0.67947,0.069 -1.21388,-1.2427 c -1.36444,-1.3971 -2.14011,-2.3662 -3.63019,-4.5354 -1.39714,-2.034 -1.6098,-2.4373 -1.3953,-2.6461 0.27688,-0.2696 0.50414,-0.078 1.17257,0.991 1.54785,2.4746 3.73045,5.1881 5.33883,6.6379 l 0.89344,0.8051 1.65727,0 c 0.9115,0 1.638086,-0.05 1.614636,-0.1101 -0.0235,-0.061 -0.608386,-0.5993 -1.299886,-1.1972 -2.01711,-1.7441 -5.7581,-6.1691 -5.68155,-6.7203 0.0791,-0.5693 0.466,-0.3306 1.34738,0.8311 2.04487,2.6954 3.99917,4.7661 5.840716,6.1887 l 1.01644,0.7851 0.74192,-0.081 c 2.21614,-0.2441 5.16083,-1.3139 6.24754,-2.2696 l 0.51209,-0.4504 -1.09539,-0.5729 c -1.50634,-0.7877 -3.01961,-1.9189 -4.57139,-3.4168 -2.66626,-2.5738 -5.646126,-6.3538 -7.012966,-8.8961 -1.98151,-3.6854 -5.73177,-7.3295 -10.59961,-10.2994 -1.31743,-0.8038 -6.72937,-3.5878 -7.41586,-3.8148 -0.14286,-0.047 0.26847,-0.727 1.61205,-2.6639 3.21172,-4.6298 4.14232,-6.7826 4.64681,-10.75 0.19862,-1.5619 0.16593,-4.2753 -0.0628,-5.2202 -0.49849,-2.0588 -1.8635,-3.7192 -3.80145,-4.6239 -4.17725,-1.9501 -9.17243,-0.3201 -11.22396,3.6626 -0.54193,1.0521 -0.61192,1.5069 -0.31726,2.0616 0.25584,0.4817 0.42786,0.518 1.19944,0.2535 0.36613,-0.1254 0.97673,-0.291 1.35692,-0.368 l 0.69125,-0.1396 -0.31087,-0.446 c -0.89687,-1.2866 0.45542,-2.8001 1.86691,-2.0895 0.77105,0.3882 0.9742,1.3406 0.44719,2.0966 -0.22621,0.3245 -0.26507,0.453 -0.13699,0.453 0.26699,0 0.58002,0.3546 0.4976,0.5638 -0.0566,0.1434 -0.3357,0.1831 -1.28667,0.1831 -3.21102,0 -5.40685,1.4935 -5.40685,3.6774 0,0.7418 0.74014,2.1221 1.51751,2.8301 0.62995,0.5736 1.47641,1.0516 2.35024,1.3269 l 0.47948,0.1512 0,1.1439 0,1.1439 -1.16335,1.0444 c -2.36839,2.1265 -4.90276,5.3142 -6.11919,7.6969 -1.87449,3.6717 -2.27997,7.6487 -1.22489,12.0144 0.54943,2.2733 2.14326,6.1579 3.33924,8.1387 1.06219,1.7591 2.12996,3.0675 3.94882,4.8385 2.83141,2.7571 4.95055,4.2008 12.27922,8.366 0.84389,0.4796 2.21397,1.2709 3.04465,1.7584 0.83065,0.4876 1.5417,0.8867 1.58009,0.8867 0.0383,0 0.50366,0.2825 1.03393,0.6276 3.64543,2.3738 8.36739,3.2493 12.777236,2.3692 z m -38.637736,-54.0317 c 1.75807,-0.065 3.36525,-0.1656 3.57153,-0.2218 0.32844,-0.09 0.39562,-0.1903 0.5407,-0.8123 0.21033,-0.9016 0.45079,-1.3506 1.07799,-2.0131 0.45743,-0.4831 0.4829,-0.5449 0.289,-0.7014 -0.27088,-0.2187 -0.55661,-0.8799 -0.55661,-1.288 0,-0.1733 -0.0322,-0.3151 -0.0715,-0.3151 -0.0729,0 -8.26793,3.5155 -9.48665,4.0697 -0.99876,0.4541 -1.15808,0.9523 -0.43172,1.3498 0.23959,0.1311 0.55729,0.165 1.10361,0.1175 0.42193,-0.036 2.20557,-0.12 3.96365,-0.1857 z m 9.71733,-6.4115 c 0,-0.2879 -0.0573,-0.3717 -0.25395,-0.3717 -0.26586,0 -0.3973,0.3126 -0.26867,0.6388 0.1336,0.3389 0.52262,0.1402 0.52262,-0.2671 z"
       id="path3834"
       inkscape:connector-curvature="0" />
    <path
       style="fill:#000000;fill-opacity:0.19811324;stroke:none"
       d="m 71.275944,464.47515 c 0.26211,11.1454 21.86134,25.2292 38.166146,14.8999 -14.303536,-3.3629 -27.950256,-7.3919 -38.166146,-14.8999 z"
       id="path4377"
       inkscape:connector-curvature="0"
       sodipodi:nodetypes="ccc" />
    <path
       style="fill:#da121a;fill-opacity:1"
       d="m 55.277464,357.73015 c 10e-4,-0.051 0.90944,-4.5803 2.01896,-10.0643 l 2.01733,-9.9708 2.67986,-2.9684 c 1.47395,-1.6326 2.76035,-3.0765 2.8587,-3.2085 0.14631,-0.1965 0.23245,-2.7982 0.47411,-14.3205 l 0.29529,-14.0804 -1.3069,-1.2447 c -0.7188,-0.6847 -1.9333,-1.833 -2.69889,-2.5518 -1.35954,-1.2764 -1.39325,-1.3214 -1.44487,-1.9294 -0.0291,-0.3422 -0.25576,-2.6569 -0.50376,-5.144 -0.24798,-2.4869 -0.42178,-4.55 -0.38622,-4.5846 0.0829,-0.081 5.97485,-1.7852 6.17096,-1.7852 0.1497,0 0.23855,0.5719 0.37715,2.4273 0.128,1.7134 -0.20122,1.6001 2.70893,0.9331 l 2.52839,-0.5796 -0.0457,-2.3112 c -0.043,-2.1667 -0.0309,-2.3154 0.19179,-2.3773 0.89227,-0.2471 7.10869,-1.5891 7.15468,-1.5444 0.0315,0.03 0.112,1.2201 0.17903,2.6431 0.0669,1.423 0.14019,2.6052 0.16262,2.627 0.0225,0.022 1.02446,0 2.22677,-0.036 l 2.18599,-0.076 0.0933,-3.0306 0.0934,-3.0307 3.22851,0 3.2285,0 0.0938,2.9883 c 0.0917,2.9204 0.10005,2.9896 0.36788,3.0418 0.51524,0.1006 4.17376,0.1838 4.17659,0.096 0.0511,-1.593 0.2635,-5.1815 0.30933,-5.2262 0.0533,-0.052 5.382326,1.0927 6.893776,1.4805 l 0.4933,0.1266 -0.0458,2.3145 -0.0457,2.3146 2.47665,0.5542 c 1.88301,0.4213 2.49993,0.5175 2.57371,0.4012 0.0535,-0.083 0.13685,-0.6926 0.18545,-1.3523 0.0487,-0.6598 0.1275,-1.4833 0.17528,-1.8304 l 0.0869,-0.6307 3.0942,0.8839 c 1.70183,0.4862 3.13053,0.9192 3.17489,0.9626 0.0664,0.064 -0.72121,8.729 -0.90952,10.0043 -0.0423,0.2871 -0.38315,0.6901 -1.36802,1.6182 -0.72139,0.6797 -1.92442,1.8135 -2.67344,2.5197 l -1.36181,1.284 0.29065,14.1079 c 0.27673,13.4305 0.30233,14.122 0.5333,14.4058 0.13345,0.164 1.42531,1.6117 2.87082,3.2171 l 2.62821,2.919 1.96558,9.7712 c 1.08106,5.3741 1.99079,9.8971 2.02162,10.0512 l 0.0561,0.2801 -11.37435,0 -11.374326,0 -0.0841,-2.0737 c -0.0462,-1.1406 -0.085,-3.6192 -0.0862,-5.508 -0.002,-3.775 -0.10272,-4.5788 -0.73603,-5.9042 l -0.36045,-0.7541 -1.2721,0.036 c -0.78845,0.023 -1.30802,0.091 -1.36658,0.1807 -0.052,0.08 -0.0954,0.5786 -0.0964,1.1091 -0.001,0.5589 -0.0557,0.9647 -0.12982,0.9647 -0.0758,0 -0.12786,-0.4563 -0.12786,-1.1202 l 0,-1.1203 -1.34253,0 -1.34253,0 0,1.1203 c 0,0.6493 -0.0527,1.1202 -0.12542,1.1202 -0.20739,0 -0.29726,-0.6004 -0.21628,-1.4446 l 0.0764,-0.7959 -1.40164,0 -1.40165,0 0,1.1203 c 0,0.6639 -0.0521,1.1202 -0.12787,1.1202 -0.0758,0 -0.12786,-0.4563 -0.12786,-1.1202 l 0,-1.1203 -1.34253,0 -1.34253,0 0,1.1306 c 0,0.849 -0.0397,1.1178 -0.15981,1.0792 -0.10737,-0.035 -0.17192,-0.4039 -0.19671,-1.1257 l -0.0369,-1.0741 -1.03966,-0.036 c -0.69027,-0.024 -1.05743,-0.088 -1.09255,-0.1916 -0.0396,-0.1163 0.2236,-0.1557 1.04456,-0.1557 l 1.09745,0 0,-1.0002 c 0,-0.9983 0,-0.9999 -0.28767,-0.8514 -0.67576,0.3495 -1.97703,1.8006 -2.44173,2.7229 -0.7463,1.4811 -0.84592,2.1985 -0.84845,6.1105 -0.001,1.8888 -0.04,4.3673 -0.0863,5.5079 l -0.0841,2.0738 -11.35943,0 c -6.24771,0 -11.3587,-0.042 -11.3578,-0.093 z m 29.53396,-15.9638 c 0,-1.7565 0.0762,-1.7019 -1.59825,-1.1477 l -1.02287,0.3386 -0.0367,1.1514 -0.0367,1.1514 1.34734,0 1.34732,0 0,-1.4937 z m 3.04052,-0.08 0.0357,-1.512 -0.54722,-0.044 c -0.30099,-0.024 -0.8994,-0.025 -1.32981,0 l -0.78255,0.041 -0.0794,0.6433 c -0.10712,0.8681 -0.10249,2.2617 0.008,2.3691 0.0492,0.048 0.66771,0.071 1.37449,0.052 l 1.28507,-0.035 0.0357,-1.512 z m 2.9689,0.4086 0,-1.1656 -0.54341,-0.1954 c -0.75312,-0.2708 -1.51251,-0.4593 -1.85397,-0.4601 -0.28239,0 -0.28768,0.027 -0.28768,1.493 l 0,1.4938 1.34252,0 1.34254,0 0,-1.1657 z m 2.68505,1.098 c 0,-0.1498 -1.24977,-1.3558 -1.75807,-1.6963 l -0.54341,-0.3641 0,1.064 0,1.0641 1.15074,0 c 0.6329,0 1.15074,-0.03 1.15074,-0.068 z"
       id="path4373"
       inkscape:connector-curvature="0" />
    <path
       style="fill:#000000"
       d="m 55.090384,357.76075 c 0,-0.273 3.96021,-19.9119 4.06249,-20.1461 0.0512,-0.1175 1.2437,-1.4871 2.65015,-3.0443 1.40646,-1.5571 2.66722,-2.9659 2.80169,-3.1308 0.23339,-0.2861 0.25778,-0.9366 0.5368,-14.32 l 0.29231,-14.0201 -1.11217,-1.0604 c -0.61169,-0.5831 -1.81363,-1.7116 -2.67098,-2.5077 l -1.55879,-1.4474 -0.51893,-5.1163 c -0.2854,-2.814 -0.51891,-5.2168 -0.51891,-5.3396 0,-0.1846 0.55986,-0.3828 3.22846,-1.1433 1.77564,-0.506 3.29251,-0.9407 3.37077,-0.966 0.0962,-0.032 0.19621,0.602 0.30857,1.9524 0.0914,1.0991 0.2086,1.9983 0.26036,1.9983 0.18668,0 4.53251,-1.0195 4.59279,-1.0774 0.034,-0.033 0.0429,-1.0804 0.0199,-2.3286 l -0.042,-2.2691 3.87991,-0.8761 3.87992,-0.8761 0.08,0.8197 c 0.044,0.4507 0.0872,1.3295 0.0959,1.9527 0.009,0.6233 0.0526,1.4744 0.0973,1.8913 l 0.0814,0.7583 1.99631,-0.073 c 1.09798,-0.04 2.00569,-0.079 2.01718,-0.086 0.0113,-0.012 0.0628,-1.3723 0.11415,-3.0325 l 0.0933,-3.0184 3.41611,0 3.41612,0 0.0938,2.9562 c 0.0548,1.7255 0.14691,2.988 0.22126,3.0328 0.12317,0.074 3.83738,0.238 3.91372,0.1727 0.0209,-0.018 0.0957,-1.2276 0.16655,-2.6886 0.0708,-1.461 0.14017,-2.6672 0.15405,-2.6804 0.014,-0.013 1.08968,0.2167 2.39066,0.5112 1.30098,0.2945 3.04702,0.6883 3.880106,0.8754 l 1.5147,0.34 -0.0429,2.3183 -0.0429,2.3181 2.30005,0.5259 c 1.26502,0.2892 2.33379,0.5277 2.37504,0.5297 0.0412,0 0.14957,-0.8923 0.24069,-1.9877 0.0912,-1.0954 0.19365,-1.9916 0.22784,-1.9916 0.0341,0 1.55129,0.4296 3.37134,0.9547 2.7657,0.7976 3.30919,0.9918 3.30919,1.1823 0,0.1255 -0.23229,2.5184 -0.51622,5.3177 l -0.51622,5.0897 -1.43148,1.3519 c -0.78731,0.7435 -1.99041,1.8838 -2.67355,2.5342 l -1.24208,1.1826 0.29246,14.0337 c 0.2544,12.2072 0.31819,14.0623 0.49007,14.2523 4.10851,4.5441 5.38735,5.9894 5.48013,6.1932 0.11639,0.2559 4.08056,19.854 4.08056,20.1737 0,0.1527 -1.62651,0.1779 -11.57132,0.1779 l -11.571296,0 -0.0125,-0.7781 c -0.18944,-11.7166 -0.17973,-11.5732 -0.87387,-12.8978 l -0.2695,-0.5143 -1.14812,0 -1.14815,0 0,0.9248 c 0,0.9673 -0.19312,1.3791 -0.57906,1.235 -0.14488,-0.054 -0.18809,-0.3103 -0.18809,-1.1151 l 0,-1.0447 -1.15075,0 -1.15073,0 0,1.0447 c 0,0.8742 -0.036,1.0583 -0.22039,1.1271 -0.36874,0.1378 -0.54677,-0.2732 -0.54677,-1.2619 l 0,-0.9099 -1.0719,0 c -1.23688,0 -1.22479,-0.013 -1.22783,1.3248 -0.003,0.8338 -0.20342,1.0751 -0.58628,0.7023 -0.16468,-0.1602 -0.19842,-0.3939 -0.16105,-1.1149 l 0.0473,-0.9122 -1.12127,0 -1.12124,0 0,1.062 c 0,0.8331 -0.0417,1.0776 -0.19343,1.1342 -0.41005,0.1532 -0.57374,-0.1936 -0.57374,-1.2156 l 0,-0.9806 -0.88456,0 c -0.48651,0 -0.96338,-0.029 -1.05974,-0.065 -0.18752,-0.07 -0.61708,0.68 -0.96423,1.6837 -0.18218,0.5267 -0.25597,2.6843 -0.40323,11.7938 l -0.0126,0.7781 -11.57132,0 c -9.67633,0 -11.5713,-0.028 -11.5713,-0.1695 z m 8.05518,-3.6792 c 0,-1.7059 0.0348,-3.1903 0.0777,-3.2986 0.0694,-0.1761 -0.24041,-0.1969 -2.93497,-0.1969 l -3.0126,0 -0.0854,0.4668 c -0.0471,0.2567 -0.33731,1.6956 -0.64509,3.1974 -0.3078,1.5019 -0.55963,2.7761 -0.55963,2.8318 0,0.056 1.61104,0.1005 3.58007,0.1005 l 3.58008,0 0,-3.1016 z m 6.56739,2.5242 c 0.0448,-0.3176 0.0813,-1.6059 0.0813,-2.863 l 0,-2.2853 0.83107,0 0.8311,0 0,-0.4356 0,-0.4358 -3.70795,0 -3.70793,0 0,3.2986 0,3.2985 2.79556,0 2.79552,0 0.0813,-0.5774 z m 7.75337,-0.1382 c 0,-0.3936 0.038,-1.514 0.0838,-2.4895 l 0.0834,-1.7738 -3.4539,0 -3.45389,0 -0.0822,0.7651 c -0.0452,0.4209 -0.0822,1.5411 -0.0822,2.4895 l 0,1.7243 3.45221,0 3.45223,0 0,-0.7156 z m 25.036016,-1.7096 c -0.0313,-1.3337 -0.0851,-2.4523 -0.11916,-2.4856 -0.0822,-0.08 -6.769266,-0.1018 -6.850826,-0.023 -0.0347,0.034 -0.0212,1.1577 0.0301,2.4974 l 0.0933,2.4358 3.45179,0 3.451796,0 -0.0571,-2.4252 z m 6.80058,-0.8733 0,-3.2986 -3.83579,0 -3.8358,0 0,0.3735 c 0,0.3411 0.0372,0.3734 0.43153,0.3734 0.23735,0 0.61134,0.035 0.83109,0.077 l 0.39957,0.077 0,2.2698 c 0,1.2484 0.0366,2.5298 0.0813,2.8474 l 0.0813,0.5774 2.92339,0 2.9234,0 0,-3.2985 z m 7.79945,3.2175 c 0,-0.045 -0.28768,-1.5034 -0.6393,-3.2419 -0.35161,-1.7384 -0.6393,-3.1863 -0.6393,-3.2175 0,-0.032 -1.2658,-0.057 -2.81291,-0.057 l -2.81292,0 0,2.1593 c 0,1.1874 -0.0373,2.6718 -0.0831,3.2985 l -0.083,1.1393 3.5353,0 c 1.9444,0 3.53527,-0.036 3.53527,-0.081 z m -39.508656,-8.2781 0,-2.5089 -1.93824,0.081 c -1.06601,0.045 -2.24552,0.081 -2.62112,0.081 l -0.6829,0 0,2.4273 0,2.4272 2.62113,0 2.62113,0 0,-2.5088 z m 23.142606,0.099 0,-2.4098 -0.67126,-0.079 c -0.369186,-0.044 -1.548696,-0.079 -2.621126,-0.08 l -1.94986,0 0,2.4895 0,2.4895 2.62113,0 2.621116,0 0,-2.41 z m -29.235666,-0.1101 c 0.0452,-0.5648 0.0824,-1.3211 0.0829,-1.6804 l 10e-4,-0.6536 -0.83108,0 c -0.45711,0 -0.83109,-0.014 -0.83109,-0.032 0,-0.017 0.20138,-0.5313 0.4475,-1.1416 0.24613,-0.6104 0.44752,-1.128 0.44752,-1.1505 0,-0.093 -12.13715,-0.031 -12.1968,0.062 -0.0837,0.1319 -1.10062,5.1325 -1.10062,5.4123 0,0.1956 0.50311,0.2109 6.94941,0.2109 l 6.94941,0 0.0822,-1.027 z m 44.067396,0.7656 c 0,-0.075 -0.23918,-1.3355 -0.53152,-2.8006 l -0.53152,-2.6639 -6.11717,0 c -3.36448,0 -6.1172,0.018 -6.1172,0.041 0,0.023 0.20137,0.5402 0.44751,1.1506 0.24612,0.6103 0.44751,1.1241 0.44751,1.1416 0,0.017 -0.374,0.032 -0.83109,0.032 l -0.8311,0 0,0.6659 c 0,0.3661 0.0372,1.0944 0.0827,1.6182 l 0.0827,0.9522 6.94959,0 c 4.9652,0 6.94961,-0.039 6.94961,-0.1367 z m -37.554986,-4.6176 c 0.1169,-0.3558 0.19975,-0.6564 0.18422,-0.6682 -0.63616,-0.4847 -5.12161,-3.4147 -5.1641,-3.3734 -0.0789,0.076 -1.83072,4.4714 -1.83171,4.595 0,0.051 1.48422,0.093 3.29919,0.093 l 3.29996,0 0.21244,-0.6468 z m 23.873996,0.5449 c 0,-0.1338 -1.7443,-4.5006 -1.83171,-4.5858 -0.0794,-0.078 -5.140086,3.2982 -5.129236,3.4212 0.004,0.046 0.0828,0.35 0.17499,0.6752 l 0.1676,0.5912 3.30918,0 c 1.820036,0 3.309176,-0.046 3.309176,-0.1017 z m -22.290726,-3.3446 0.27653,-0.3579 -1.1917,-1.2408 c -0.78717,-0.8196 -1.23425,-1.1985 -1.31703,-1.1163 -0.069,0.069 -0.50713,0.5653 -0.97372,1.1042 l -0.84836,0.9796 0.92992,0.6283 c 0.51146,0.3455 1.18727,0.8095 1.50178,1.0309 l 0.57186,0.4025 0.3871,-0.5364 c 0.2129,-0.2948 0.51153,-0.6973 0.66362,-0.8941 z m 16.45503,0.3778 c 0.7835,-0.5238 1.44374,-0.9673 1.46721,-0.9854 0.0641,-0.05 -1.80195,-2.1696 -1.90965,-2.1696 -0.0512,0 -0.60852,0.5407 -1.23841,1.2016 l -1.14529,1.2016 0.6387,0.8522 c 0.35128,0.4687 0.66663,0.8522 0.7008,0.8522 0.0341,0 0.70315,-0.4285 1.48664,-0.9526 z m -32.52224,-1.848 0,-2.6763 -0.79912,0.012 c -0.43951,0.012 -1.28197,0.048 -1.87211,0.093 l -1.07302,0.081 -0.4926,2.4272 c -0.27094,1.335 -0.49292,2.4974 -0.49328,2.5828 0,0.1188 0.55729,0.1557 2.36473,0.1557 l 2.3654,0 0,-2.6761 z m 8.2855,0.9633 c 0.37158,-0.9419 0.72023,-1.783 0.7748,-1.8688 0.0718,-0.1139 0.40159,0.047 1.19748,0.5848 l 1.09826,0.7411 1.27312,-1.4752 c 1.27086,-1.4727 1.27355,-1.4747 1.52748,-1.2275 0.25393,0.2472 0.25503,0.2471 0.62457,-0.069 l 0.37018,-0.3168 -7.10815,0 -7.10818,0 -0.0836,1.9604 c -0.0459,1.0783 -0.0837,2.2827 -0.0839,2.6762 l 0,0.7157 3.42135,0 3.42138,0 0.6756,-1.7127 z m 36.721146,0.7368 c 0,-0.5369 0.0376,-1.7411 0.0838,-2.6763 l 0.0838,-1.7001 -7.14802,0 -7.147986,0 0.38253,0.3044 c 0.3759,0.2989 0.38675,0.3001 0.6256,0.068 0.23885,-0.2326 0.26409,-0.2125 1.45441,1.1538 0.66624,0.7648 1.26116,1.4088 1.32205,1.4312 0.0609,0.022 0.58068,-0.2744 1.1551,-0.6595 0.57442,-0.3853 1.083746,-0.6556 1.131856,-0.601 0.0481,0.054 0.39853,0.8977 0.77871,1.8733 l 0.69123,1.7737 3.2935,0 3.29351,0 0,-0.976 z m 5.75368,0.8278 c 0,-0.1333 -0.80249,-4.2394 -0.96234,-4.924 -0.0642,-0.2753 -0.099,-0.2802 -1.98087,-0.2802 l -1.91545,0 0,2.6763 0,2.6761 2.42932,0 c 1.79368,0 2.42934,-0.039 2.42934,-0.1482 z m -29.690946,-1.5633 c 0.0311,-1.0902 0.008,-1.2759 -0.16387,-1.2759 -0.27673,0 -1.75464,0.4919 -1.95029,0.649 -0.0993,0.08 -0.15982,0.4497 -0.15982,0.9779 l 0,0.8496 0.67126,0.049 c 0.36919,0.027 0.87264,0.043 1.11877,0.037 l 0.4475,-0.012 0.0365,-1.2759 z m 2.96827,0.5465 c 0,-0.4355 0.0354,-1.0433 0.0787,-1.3506 l 0.0788,-0.559 -0.49426,-0.077 c -0.27181,-0.042 -0.79629,-0.044 -1.16549,0 l -0.67126,0.076 0,1.352 0,1.3521 1.08682,0 1.0868,0 0,-0.7916 z m 3.04212,-0.2394 0.0373,-0.9688 -0.43154,-0.1755 c -0.60652,-0.2467 -1.6209,-0.4842 -1.70763,-0.3998 -0.10937,0.1066 -0.21988,2.1527 -0.12873,2.384 0.0658,0.1672 0.25829,0.1951 1.1362,0.1651 l 1.05687,-0.036 0.0373,-0.9688 z m 2.45584,0.919 c 0,-0.1415 -1.38636,-1.3817 -1.54461,-1.3817 -0.0647,0 -0.11752,0.3361 -0.11752,0.7469 l 0,0.7468 0.83108,0 c 0.4571,0 0.83109,-0.051 0.83109,-0.1126 z m -11.50737,-0.7076 0,-0.6951 -0.47947,0.3716 c -0.26371,0.2044 -0.61896,0.5171 -0.78946,0.6951 l -0.30997,0.3235 0.78945,0 0.78945,0 0,-0.6951 z m -0.32426,-1.3507 c 0.4013,-0.2353 0.9834,-0.5294 1.29357,-0.6535 0.31018,-0.1242 0.5498,-0.2588 0.53251,-0.299 -0.37605,-0.8762 -1.45667,-2.9764 -1.53145,-2.9764 -0.0558,0 -0.75901,0.5264 -1.56263,1.1698 l -1.46113,1.1698 0.9624,1.0085 c 0.52931,0.5547 0.97922,1.0085 0.99977,1.0085 0.0206,0 0.36567,-0.1925 0.76696,-0.4277 z m 12.36656,-0.568 c 0.51451,-0.5475 0.93546,-1.015 0.93546,-1.0389 0,-0.024 -0.67857,-0.5868 -1.50792,-1.2507 l -1.50791,-1.2073 -0.76612,1.578 c -0.42138,0.8679 -0.74971,1.5888 -0.72964,1.6018 0.0201,0.013 0.29542,0.1175 0.61187,0.2311 0.31646,0.1138 0.86306,0.4008 1.21467,0.6376 0.3516,0.2367 0.67863,0.4335 0.72671,0.4372 0.0481,0 0.50838,-0.4411 1.02288,-0.9888 z m -7.32032,-0.7824 c 0.67292,-0.013 1.60062,0.021 2.06155,0.075 l 0.83806,0.099 1.04787,-2.1029 c 0.57633,-1.1567 1.04787,-2.138 1.04787,-2.1806 0,-0.042 -2.12886,-0.077 -4.7308,-0.077 -2.60195,0 -4.73081,0.042 -4.73081,0.094 0,0.052 0.48422,1.0535 1.07606,2.225 l 1.07606,2.13 0.54532,-0.1198 c 0.29993,-0.065 1.0959,-0.1301 1.76882,-0.1434 z m -15.07862,-4.9435 0,-2.7384 -2.74899,-0.018 c -1.51194,-0.012 -2.81835,-0.024 -2.90311,-0.032 -0.13719,-0.012 -4.18414,4.3201 -4.84413,5.1844 l -0.2614,0.3422 5.37881,0 5.37882,0 0,-2.7384 z m 9.22061,2.1472 c 0.41333,-0.3252 0.7517,-0.6341 0.75196,-0.6865 0,-0.052 -0.17762,-0.4025 -0.3953,-0.778 l -0.39578,-0.6827 2.95298,0 2.95298,0 0,-1.3692 0,-1.3692 -7.09622,0 -7.09622,0 0,2.7384 0,2.7384 3.78706,0 3.78705,0 0.75149,-0.5912 z m 20.698566,-2.2281 0,-2.8193 -1.170386,0.081 c -0.6437,0.045 -3.80823,0.081 -7.03227,0.081 l -5.86192,0 0,1.3692 0,1.3692 2.74899,0 c 1.51194,0 2.74898,0.03 2.74898,0.067 0,0.036 -0.14384,0.3427 -0.31964,0.6804 -0.17581,0.3378 -0.31734,0.658 -0.31452,0.7117 0.0135,0.2564 1.33108,1.0982 1.82823,1.1679 0.29263,0.041 2.07115,0.083 3.95229,0.093 l 3.420246,0.018 0,-2.8192 z m 11.38374,2.6016 c -0.0729,-0.12 -1.18455,-1.3662 -2.47021,-2.7696 l -2.33758,-2.5517 -2.82334,-0.034 -2.82335,-0.034 -0.0797,0.4691 c -0.0438,0.258 -0.0803,1.5194 -0.081,2.8029 l -10e-4,2.3339 5.37461,0 c 5.08397,0 5.36745,-0.012 5.24197,-0.2177 z m -21.336056,-6.1304 2.40859,0 0,-3.6097 0,-3.6099 -7.03228,0 -7.03229,0 0,3.6056 0,3.6055 1.37449,0.05 c 0.75597,0.028 2.83663,0.029 4.62369,0 1.78706,-0.025 4.33306,-0.045 5.6578,-0.045 z m -12.5506,-1.4626 c 0,-0.8044 0.038,-2.4288 0.0841,-3.6097 l 0.0837,-2.1473 -6.47461,0 -6.47461,0 -0.0626,0.2802 c -0.0344,0.1539 -0.0787,1.7784 -0.0983,3.6097 l -0.0357,3.3297 6.48889,0 6.48888,0 0,-1.4626 z m 28.793286,-1.9916 c -0.0214,-1.8998 -0.0626,-3.5241 -0.0919,-3.6097 -0.0416,-0.1217 -1.45898,-0.1557 -6.51413,-0.1557 l -6.460926,0 0,3.6099 0,3.6097 6.552806,0 6.55282,0 -0.0386,-3.4542 z m -35.953826,-7.8107 0,-3.2986 -2.73025,0 -2.7302,0 -0.0827,0.9523 c -0.0455,0.5238 -0.0827,2.0083 -0.0827,3.2986 l 0,2.3462 2.81291,0 2.81292,0 0,-3.2985 z m 14.62054,2.4584 c 0.0448,-0.4622 0.0819,-1.9465 0.0824,-3.2986 l 10e-4,-2.4584 -6.90443,0 -6.90442,0 -0.001,1.8983 c 0,1.044 -0.0379,2.5283 -0.0836,3.2985 l -0.0829,1.4003 6.90547,0 6.90546,0 0.0815,-0.8401 z m 14.787196,-2.4584 0,-3.2986 -6.968356,0 -6.96836,0 0,3.2986 0,3.2985 6.96836,0 6.968356,0 0,-3.2985 z m 6.39299,0.9523 c 0,-1.2903 -0.0372,-2.7748 -0.0827,-3.2986 l -0.0827,-0.9523 -2.64891,0 -2.64892,0 -0.0813,0.5775 c -0.0448,0.3177 -0.0813,1.8021 -0.0813,3.2985 l 0,2.7211 2.81292,0 2.81292,0 0,-2.3462 z m -28.084876,-6.5109 c 0.0461,-0.8323 0.0836,-2.3726 0.0836,-3.4231 l 0,-1.9098 -6.56475,0 -6.56477,0 -0.0836,1.9604 c -0.0459,1.0783 -0.0837,2.5895 -0.0839,3.3583 l 0,1.3976 2.4613,0.036 c 1.35372,0.021 4.30802,0.05 6.56512,0.065 l 4.10383,0.028 0.0836,-1.5131 z m 14.5756,-0.5606 c 0.0462,-1.1404 0.084,-2.6808 0.084,-3.4229 l 0,-1.3494 -6.90442,0 -6.90442,0 0,3.4231 0,3.423 6.82042,0 6.8204,0 0.0841,-2.0738 z m 7.902206,1.9493 5.47921,0 0,-1.4003 c 0,-0.7702 -0.038,-2.2826 -0.0839,-3.3609 l -0.0835,-1.9604 -6.1812,0 -6.181176,0 0,3.4408 0,3.4407 0.78592,-0.08 c 0.43225,-0.043 3.25156,-0.08 6.265126,-0.08 z m -29.937946,-10.146 0,-2.6777 -0.47948,0.059 c -0.26371,0.033 -1.49223,0.1244 -2.73006,0.2037 l -2.25058,0.1443 -0.0823,1.5714 c -0.0453,0.8644 -0.0825,1.9777 -0.0829,2.474 l 0,0.9025 2.81292,0 2.81292,0 0,-2.6777 z m 14.57742,0.2815 c 0.001,-1.3179 0.037,-2.6062 0.0807,-2.863 l 0.0793,-0.4668 -2.09445,0 c -2.32832,0 -9.0548,0.2016 -10.69301,0.3193 l -1.05485,0.076 0,2.665 0,2.6651 6.8405,0 6.84051,0 0.001,-2.3962 z m 14.479486,-0.249 c 0.0388,-1.4548 0.0612,-2.6549 0.0497,-2.667 -0.0743,-0.077 -5.579126,-0.2964 -9.256386,-0.3678 l -4.37921,-0.085 0,2.8825 0,2.8826 6.75761,0 6.757616,0 0.0706,-2.6451 z m 5.56113,2.5644 0.67126,-0.079 0,-0.8228 c 0,-0.4527 -0.0375,-1.528 -0.0827,-2.3899 l -0.0822,-1.5671 -2.37868,-0.1539 c -1.30827,-0.085 -2.47937,-0.1816 -2.60242,-0.2151 -0.20814,-0.057 -0.22376,0.1263 -0.22376,2.6233 l -2e-5,2.6847 2.0138,0 c 1.10758,0 2.31585,-0.036 2.68504,-0.08 z m -37.764076,-5.9019 c 0.19014,-0.1709 -0.95245,-1.9638 -1.79137,-2.8108 -1.13395,-1.1449 -1.92418,-1.4771 -3.50133,-1.4712 -0.78135,0 -1.36422,0.069 -1.63387,0.1866 l -0.41917,0.1823 2.26447,2.0917 2.26447,2.0918 1.35122,-0.083 c 0.74315,-0.046 1.40266,-0.1301 1.46558,-0.1867 z m 40.954896,-1.7658 c 1.20721,-1.1127 2.20425,-2.0787 2.21563,-2.1473 0.0388,-0.2335 -1.07458,-0.4492 -2.11406,-0.4097 -1.26578,0.048 -2.00054,0.3689 -2.92554,1.2771 -0.61596,0.6049 -1.73618,2.2876 -1.92458,2.8913 -0.0917,0.2938 0.0427,0.3212 1.91183,0.3881 l 0.6418,0.023 2.19492,-2.0225 z m -37.959016,1.5408 c 0.0944,-0.058 0.22176,-0.51 0.28764,-1.0208 0.2618,-2.0298 1.33099,-3.6554 2.95736,-4.4964 0.77962,-0.4031 2.48287,-0.4082 3.25246,-0.012 1.32016,0.6836 2.31915,2.5575 2.50635,4.7017 l 0.0326,0.3734 1.05485,0.036 1.05484,0.036 10e-4,-1.2809 c 0.002,-2.5194 0.77225,-3.938 2.45775,-4.5324 0.74833,-0.264 1.9458,-0.2683 2.7231,-0.012 0.92254,0.3066 1.51864,0.8409 1.99993,1.7927 0.39238,0.7759 0.42031,0.9203 0.46839,2.4228 l 0.0512,1.5976 0.40041,0 c 0.22024,0 0.70249,-0.036 1.07169,-0.08 l 0.67127,-0.079 0,-0.4518 c 0,-0.702 0.48232,-2.2438 0.93384,-2.9852 0.45913,-0.7538 1.38562,-1.536 2.08583,-1.761 0.68195,-0.2191 2.29558,-0.097 2.92581,0.2223 1.649206,0.8342 2.731416,2.4593 2.994106,4.4961 0.0645,0.4996 0.14344,0.934 0.17552,0.9653 0.0321,0.031 0.5403,0.085 1.12942,0.1187 l 1.07105,0.062 0.50388,-1.0136 c 1.00656,-2.0246 2.39547,-3.3804 3.8962,-3.8031 0.39287,-0.1102 0.82191,-0.2391 0.95343,-0.2853 0.53254,-0.1876 -5.61593,-1.8424 -9.06144,-2.4388 -4.312606,-0.7466 -5.924606,-0.8486 -13.425266,-0.8507 -7.43468,0 -8.73108,0.071 -12.97485,0.7359 -2.98801,0.4678 -7.33397,1.5182 -9.65634,2.3341 l -0.51143,0.1797 0.38357,0.086 c 2.32055,0.5231 3.72106,1.6494 5.03429,4.0489 l 0.54551,0.9966 0.91804,0 c 0.50492,0 0.9943,-0.048 1.08751,-0.1065 z m 29.051906,-1.4214 c -0.19147,-0.8968 -0.660186,-1.8336 -1.218366,-2.4352 -0.62812,-0.6768 -1.84321,-1.263 -2.61818,-1.263 -0.77047,0 -1.80191,0.4972 -2.28017,1.099 -0.6165,0.7758 -1.17673,2.383 -1.17673,3.3758 l 0,0.3547 1.56628,0.079 c 0.86146,0.044 2.51565,0.1199 3.67598,0.1682 l 2.109676,0.088 0.04,-0.4095 c 0.022,-0.2252 -0.0223,-0.7013 -0.0984,-1.058 z m -21.886756,1.2004 1.06951,-0.076 -0.0871,-0.7622 c -0.25915,-2.2696 -1.36717,-3.7568 -2.98689,-4.009 -1.92879,-0.3002 -4.11558,2.1423 -4.11558,4.5967 l 0,0.4883 2.52523,-0.081 c 1.38888,-0.045 3.00651,-0.115 3.59474,-0.157 z m 10.8141,-1.4755 c -0.0113,-2.1289 -0.45591,-3.0914 -1.67926,-3.6366 -0.59182,-0.2638 -0.83924,-0.3058 -1.4968,-0.2545 -1.37106,0.1066 -2.13658,0.6583 -2.58376,1.8601 -0.2063,0.5545 -0.39985,2.9208 -0.26657,3.2589 0.0649,0.1649 0.47987,0.1875 3.05448,0.1661 l 2.97926,-0.025 -0.008,-1.3692 z m -27.58937,-3.5934 c 1.3556,-0.5032 3.8599,-1.2957 5.57287,-1.7636 0.91845,-0.2509 1.24644,-0.3935 1.24585,-0.5414 -0.001,-0.3263 -0.50033,-4.2777 -0.54588,-4.322 -0.15592,-0.1517 -5.64991,1.4919 -7.3028,2.1848 l -0.6254,0.2622 0.0843,0.8993 c 0.18629,1.9872 0.37474,3.7 0.4071,3.7 0.0189,0 0.54261,-0.1887 1.16396,-0.4193 z m 50.417566,0.2637 c -10e-4,-0.086 0.0938,-1.0966 0.211,-2.2467 0.12996,-1.2753 0.16714,-2.1359 0.0953,-2.2058 -0.32208,-0.3136 -4.91915,-1.8322 -6.90198,-2.2801 l -0.78018,-0.1762 -0.22103,2.0696 c -0.12153,1.1384 -0.24752,2.1631 -0.27993,2.2772 -0.0461,0.1623 0.10286,0.2511 0.68156,0.407 1.28033,0.3451 5.43725,1.6677 6.23843,1.9848 0.91531,0.3625 0.95954,0.3703 0.95682,0.1702 z m -8.44443,-4.751 c 0.14937,-1.2266 0.22661,-2.2687 0.17166,-2.3154 -0.38243,-0.3258 -6.832096,-1.2569 -9.997136,-1.4433 l -1.45847,-0.086 0.084,0.5963 c 0.0462,0.3281 0.0841,1.3729 0.0841,2.3218 l 0,1.7253 0.86304,0 c 1.72256,0 7.210396,0.7643 9.301806,1.2936 0.3516,0.088 0.64835,0.1562 0.65943,0.1495 0.0113,-0.012 0.14235,-1.016 0.29171,-2.2427 z m -33.283036,1.9846 c 2.26495,-0.5201 7.34442,-1.1855 9.04776,-1.1855 0.52663,0 0.99267,-0.056 1.03563,-0.1231 0.043,-0.068 0.0374,-1.1118 -0.0125,-2.32 l -0.0904,-2.1967 -1.48249,0.083 c -1.9967,0.1126 -5.30905,0.5023 -7.49188,0.8808 -2.22858,0.3867 -2.56315,0.4789 -2.53405,0.6992 0.0127,0.097 0.1169,1.0434 0.2314,2.1047 0.11452,1.0611 0.23178,1.9992 0.26051,2.0849 0.0647,0.1926 0.0764,0.1922 1.03589,-0.028 z m 21.34964,-1.507 c -0.0426,-0.1078 -0.0777,-1.1446 -0.0777,-2.3028 l 0,-2.1058 -5.24026,0 -5.24027,0 0.0726,2.1472 c 0.04,1.1809 0.0948,2.2171 0.12179,2.3027 0.0382,0.1211 1.19986,0.1556 5.2452,0.1556 4.68555,0 5.1884,-0.019 5.11842,-0.1969 z m -30.17649,-1.6099 c 0.83687,-0.309 1.98396,-0.6992 2.54905,-0.8671 l 1.02745,-0.305 -0.1328,-1.5504 c -0.0731,-0.8528 -0.16605,-1.5829 -0.20668,-1.6224 -0.0668,-0.065 -5.04258,1.3194 -5.15798,1.4352 -0.0347,0.035 0.18808,2.5363 0.30654,3.4406 0.007,0.059 0.0975,0.029 1.61442,-0.5309 z m 51.074676,0.4687 c 0.004,-0.051 0.0843,-0.8215 0.17895,-1.7116 0.0947,-0.8899 0.13478,-1.6525 0.0891,-1.6948 -0.15753,-0.1452 -5.03311,-1.494 -5.11451,-1.4147 -0.045,0.044 -0.14077,0.7706 -0.21313,1.6153 l -0.13156,1.5357 1.60127,0.5111 c 0.88069,0.2812 2.00402,0.6721 2.49627,0.8688 1.00308,0.4008 1.08399,0.4224 1.09361,0.2902 z m -39.447916,-3.3191 c 0.63488,-0.097 1.9414,-0.2486 2.90337,-0.3368 l 1.74904,-0.1605 -0.0638,-1.6238 c -0.0686,-1.7453 -0.16927,-2.9306 -0.24874,-2.9306 -0.0271,0 -1.41408,0.3079 -3.08209,0.6846 -1.66801,0.3765 -3.05131,0.6846 -3.07402,0.6846 -0.0755,0 -0.0425,2.8188 0.0397,3.4038 0.0712,0.5056 0.11402,0.5684 0.35161,0.5153 0.14882,-0.033 0.79002,-0.1398 1.42492,-0.2366 z m 27.980286,-0.2769 c 0.0447,-0.3176 0.0813,-1.2101 0.0813,-1.9831 0,-1.2312 -0.0278,-1.4138 -0.22374,-1.4704 -0.92924,-0.2684 -5.949676,-1.3276 -6.010786,-1.2681 -0.1378,0.1342 -0.27999,4.3546 -0.14934,4.4333 0.0671,0.04 0.88366,0.1456 1.81453,0.2339 1.40221,0.133 2.20056,0.2469 4.328216,0.6182 0.0431,0.012 0.11515,-0.2461 0.15982,-0.5638 z m -12.109336,-2.4297 c -0.0462,-1.0377 -0.0839,-2.214 -0.0839,-2.6139 l 0,-0.727 -2.68504,0 -2.68506,0 0,0.727 c 0,0.3999 -0.0377,1.5762 -0.0839,2.6139 l -0.0839,1.887 2.85285,0 2.85285,0 -0.0839,-1.887 z"
       id="path4369"
       inkscape:connector-curvature="0" />
    <path
       style="fill:#000000;fill-opacity:0.10377359;stroke:none"
       d="m 92.525974,293.39825 c 5.64364,1.4263 9.397606,3.8692 8.524416,8.8017 l 0.38747,29.7996 4.64969,5.4069 3.48725,19.8665 7.62032,0 -3.48726,-19.3636 -5.68294,-6.7899 -0.77495,-28.1651 5.29548,-5.3439 c -6.04184,-1.8245 -10.93277,-4.4158 -20.019476,-4.2122 z"
       id="path4375"
       inkscape:connector-curvature="0"
       sodipodi:nodetypes="ccccccccccc" />
  </g>
</svg>
