<?xml version="1.0" encoding="UTF-8" standalone="no"?>
<!-- Created with Inkscape (http://www.inkscape.org/) -->

<svg
   xmlns:dc="http://purl.org/dc/elements/1.1/"
   xmlns:cc="http://creativecommons.org/ns#"
   xmlns:rdf="http://www.w3.org/1999/02/22-rdf-syntax-ns#"
   xmlns:svg="http://www.w3.org/2000/svg"
   xmlns="http://www.w3.org/2000/svg"
   xmlns:sodipodi="http://sodipodi.sourceforge.net/DTD/sodipodi-0.dtd"
   xmlns:inkscape="http://www.inkscape.org/namespaces/inkscape"
   id="svg2816"
   version="1.1"
   inkscape:version="0.47 r22583"
   width="326"
   height="217"
   sodipodi:docname="Uithoorn vlag.svg">
  <metadata
     id="metadata2822">
    <rdf:RDF>
      <cc:Work
         rdf:about="">
        <dc:format>image/svg+xml</dc:format>
        <dc:type
           rdf:resource="http://purl.org/dc/dcmitype/StillImage" />
        <dc:title></dc:title>
      </cc:Work>
    </rdf:RDF>
  </metadata>
  <defs
     id="defs2820">
    <inkscape:perspective
       sodipodi:type="inkscape:persp3d"
       inkscape:vp_x="0 : 0.5 : 1"
       inkscape:vp_y="0 : 1000 : 0"
       inkscape:vp_z="1 : 0.5 : 1"
       inkscape:persp3d-origin="0.5 : 0.33333333 : 1"
       id="perspective2824" />
    <inkscape:perspective
       id="perspective3630"
       inkscape:persp3d-origin="0.5 : 0.33333333 : 1"
       inkscape:vp_z="1 : 0.5 : 1"
       inkscape:vp_y="0 : 1000 : 0"
       inkscape:vp_x="0 : 0.5 : 1"
       sodipodi:type="inkscape:persp3d" />
    <inkscape:perspective
       id="perspective3660"
       inkscape:persp3d-origin="0.5 : 0.33333333 : 1"
       inkscape:vp_z="1 : 0.5 : 1"
       inkscape:vp_y="0 : 1000 : 0"
       inkscape:vp_x="0 : 0.5 : 1"
       sodipodi:type="inkscape:persp3d" />
    <inkscape:perspective
       id="perspective3690"
       inkscape:persp3d-origin="0.5 : 0.33333333 : 1"
       inkscape:vp_z="1 : 0.5 : 1"
       inkscape:vp_y="0 : 1000 : 0"
       inkscape:vp_x="0 : 0.5 : 1"
       sodipodi:type="inkscape:persp3d" />
  </defs>
  <sodipodi:namedview
     pagecolor="#ffffff"
     bordercolor="#666666"
     borderopacity="1"
     objecttolerance="10"
     gridtolerance="10"
     guidetolerance="10"
     inkscape:pageopacity="0"
     inkscape:pageshadow="2"
     inkscape:window-width="1600"
     inkscape:window-height="839"
     id="namedview2818"
     showgrid="false"
     inkscape:zoom="0.5437788"
     inkscape:cx="237.36014"
     inkscape:cy="127.78919"
     inkscape:window-x="-9"
     inkscape:window-y="-9"
     inkscape:window-maximized="1"
     inkscape:current-layer="svg2816" />
  <path
     style="fill:#3195ff;fill-opacity:1;stroke:#000000;stroke-width:1px;stroke-linecap:butt;stroke-linejoin:miter;stroke-opacity:0"
     d="m 0.96745497,0.27723991 -0.45974,217.91948009 326.87923503,0 0,-217.91948009 -326.41949503,0 z"
     id="path2828"
     sodipodi:nodetypes="ccccc" />
  <path
     style="fill:#ffdc00;stroke:#2c2c2c;stroke-width:1px;stroke-linecap:butt;stroke-linejoin:miter;stroke-opacity:1;fill-opacity:1"
     d="M 129.38556,82.087921 C 128.5918,70.109791 109.55657,73.87172 99.314795,78.999572 l -17.06719,10.890493 c -8.840149,2.790917 -36.519764,30.380005 -6.826877,31.208575 -0.269947,4.18422 1.704809,7.18007 8.777413,7.47706 -0.197589,5.61716 4.768344,8.07884 12.353395,8.93995 62.677684,53.22775 121.581114,36.17752 154.254894,-30.55839 1.39256,-2.89048 3.35409,-5.11716 2.27563,-10.890497 2.05124,-6.408734 6.44409,-8.134261 11.05303,-9.427591 3.07321,-1.905379 5.01638,-9.276502 0.48764,-12.678485 -11.87831,-0.794639 -16.9735,7.587875 -21.61844,16.579557 -7.24496,-12.179244 -22.16037,4.76418 -6.1767,10.240316 -23.78059,29.42023 -77.32206,38.10006 -95.60534,17.06781 -2.85417,-3.2833 -5.27994,-6.70208 -5.82254,-11.37875 11.30168,-4.3211 1.74426,-16.19307 -4.71379,-12.028304 0.46471,-4.29743 0.38944,-8.486866 -1.30036,-12.353395 z"
     id="path3602"
     sodipodi:nodetypes="ccccccccccccsccc" />
  <path
     style="fill:none;stroke:#2c2c2c;stroke-width:1px;stroke-linecap:butt;stroke-linejoin:miter;stroke-opacity:1"
     d="M 75.168432,121.25794 C 101.75494,119.61418 126.81392,95.81122 129.41843,82.064618 l 0,0"
     id="path3604"
     sodipodi:nodetypes="ccc" />
  <path
     style="fill:none;stroke:#2c2c2c;stroke-width:1px;stroke-linecap:butt;stroke-linejoin:miter;stroke-opacity:1"
     d="M 84.133475,128.61388 C 104.12373,124.7821 120.59721,114.90587 130.79767,94.247881"
     id="path3606"
     sodipodi:nodetypes="cc" />
  <path
     style="fill:none;stroke:#2c2c2c;stroke-width:1px;stroke-linecap:butt;stroke-linejoin:miter;stroke-opacity:1"
     d="m 96.316737,137.57892 c 16.091773,-5.99818 31.811783,-12.53477 39.193323,-31.14778"
     id="path3608"
     sodipodi:nodetypes="cc" />
  <path
     style="fill:#3195ff;stroke:#2c2c2c;stroke-width:1px;stroke-linecap:butt;stroke-linejoin:miter;stroke-opacity:1;fill-opacity:1"
     d="m 130.16552,98.385593 5.17214,6.436437 c 2.29327,-1.58679 4.18626,-4.55232 1.66658,-7.183524 -2.55655,-2.488128 -5.14058,-0.770527 -6.83872,0.747087 z"
     id="path3610"
     sodipodi:nodetypes="cccc" />
  <path
     style="fill:none;stroke:#2c2c2c;stroke-width:1px;stroke-linecap:butt;stroke-linejoin:miter;stroke-opacity:1"
     d="m 129.93565,98.500529 c -2.2966,4.216751 2.43027,7.956741 5.51695,6.436441"
     id="path3612"
     sodipodi:nodetypes="cc" />
  <path
     style="fill:none;stroke:#2c2c2c;stroke-width:1px;stroke-linecap:butt;stroke-linejoin:miter;stroke-opacity:1"
     d="m 127.80932,99.707362 c -0.71464,6.361808 4.7182,8.446768 7.93062,6.551378"
     id="path3614"
     sodipodi:nodetypes="cc" />
  <path
     style="fill:#ffcccc;stroke:#2c2c2c;stroke-width:1px;stroke-linecap:butt;stroke-linejoin:miter;stroke-opacity:1;fill-opacity:1"
     d="m 69.42161,69.42161 c -0.656076,2.068856 -0.178423,4.137712 2.528602,6.206568 l -0.114936,7.240996 c -0.569427,3.944561 1.282543,2.743654 3.103283,1.60911 l 0.574683,2.758474 1.379237,0.34481 -0.459746,1.379237 c 3.665799,4.88894 5.074691,2.254855 7.011123,1.379237 1.232259,1.021887 2.672513,1.627786 3.333157,3.792903 0.669274,7.724575 -0.01888,14.227465 -2.413665,19.194385 14.43219,-3.36171 26.629902,-11.59864 37.699152,-22.297669 0.24527,-7.800512 -4.59246,-4.510828 -7.35593,-5.746822 -9.76655,1.352473 -11.25045,-4.269918 -15.746294,-7.355932 L 94.592691,61.835805 82.179555,61.261123 69.42161,69.42161 z"
     id="path3616"
     sodipodi:nodetypes="cccccccccccccccc" />
  <path
     style="fill:none;stroke:#2c2c2c;stroke-width:1px;stroke-linecap:butt;stroke-linejoin:miter;stroke-opacity:1"
     d="m 83.385418,90.296427 6.420514,-7.151966"
     id="path3618" />
  <path
     sodipodi:type="arc"
     style="opacity:0.98000003999999996;fill:#000000;fill-opacity:1;fill-rule:nonzero;stroke:#2c2c2c;stroke-width:0;stroke-linecap:square;stroke-linejoin:round;stroke-miterlimit:4;stroke-opacity:1;stroke-dasharray:none;stroke-dashoffset:0"
     id="path3620"
     sodipodi:cx="74.892456"
     sodipodi:cy="75.220406"
     sodipodi:rx="1.1784489"
     sodipodi:ry="1.8286276"
     d="m 76.070905,75.220406 a 1.1784489,1.8286276 0 1 1 -2.356898,0 1.1784489,1.8286276 0 1 1 2.356898,0 z"
     transform="matrix(1.2068965,0,0,1.1777778,-15.738807,-13.535061)" />
  <path
     sodipodi:type="arc"
     style="opacity:0.98000003999999996;fill:#0000ff;fill-opacity:1;fill-rule:nonzero;stroke:#2c2c2c;stroke-width:0;stroke-linecap:square;stroke-linejoin:round;stroke-miterlimit:4;stroke-opacity:1;stroke-dasharray:none;stroke-dashoffset:0"
     id="path3620-1"
     sodipodi:cx="74.892456"
     sodipodi:cy="75.220406"
     sodipodi:rx="1.1784489"
     sodipodi:ry="1.8286276"
     d="m 76.070905,75.220406 a 1.1784489,1.8286276 0 1 1 -2.356898,0 1.1784489,1.8286276 0 1 1 2.356898,0 z"
     transform="matrix(0.5517241,0,0,0.71111114,33.328668,21.567795)" />
  <path
     style="fill:#ff9933;stroke:#2c2c2c;stroke-width:1px;stroke-linecap:butt;stroke-linejoin:miter;stroke-opacity:1;fill-opacity:1"
     d="m 68.675125,62.90765 c -3.832225,3.941275 -2.755593,2.308563 1.789251,6.755435 1.759397,1.72147 5.808479,-0.935073 9.263786,-3.260725 l 3.982345,-0.08127 c 2.249756,1.564462 2.100909,5.847342 7.233238,4.144889 0.202724,2.220965 0.263697,4.593808 3.413438,3.657255 2.330029,0.408823 5.321947,8.098419 6.989417,1.219085 l 1.21909,-2.681987 c 2.21386,-1.137813 1.58605,-2.275625 -0.0813,-3.413438 -1.03348,-2.034109 -0.0378,-2.908675 0.32509,-4.144889 1.0932,-3.163127 0.33018,-5.064024 -3.982349,-4.551251 0.135368,-2.031737 -0.549942,-3.379576 -3.007076,-3.250894 -0.795524,-6.511782 -3.75748,-4.087028 -6.176698,-3.901072 -1.517083,-3.545637 -3.034167,-1.656395 -4.55125,-0.650179 -2.68752,-0.751984 -4.732672,-0.299528 -5.689064,2.194354 -4.322752,-1.911881 -4.578136,0.722119 -5.363974,2.763259 -4.585335,-1.574055 -4.82465,0.990956 -4.957613,3.657255 l -0.406361,1.544175 3e-5,-2e-6 z"
     id="path3644"
     sodipodi:nodetypes="csccccccccccccccccc" />
  <path
     style="fill:none;stroke:#2c2c2c;stroke-width:1px;stroke-linecap:butt;stroke-linejoin:miter;stroke-opacity:1"
     d="m 66.318326,103.21292 c 0.08482,11.79507 10.394866,11.47256 18.274894,9.7696"
     id="path3646"
     sodipodi:nodetypes="cc" />
  <path
     style="fill:none;stroke:#2c2c2c;stroke-width:1px;stroke-linecap:butt;stroke-linejoin:miter;stroke-opacity:1"
     d="m 264.94782,73.879415 c -4.98336,-0.01552 -7.73415,11.530058 -0.40636,12.434667"
     id="path3648"
     sodipodi:nodetypes="cc" />
  <path
     sodipodi:type="arc"
     style="opacity:0.98000003999999996;fill:#000000;fill-opacity:1;fill-rule:nonzero;stroke:#2c2c2c;stroke-width:0;stroke-linecap:square;stroke-linejoin:round;stroke-miterlimit:4;stroke-opacity:1;stroke-dasharray:none;stroke-dashoffset:0"
     id="path3650"
     sodipodi:cx="229.71626"
     sodipodi:cy="88.589706"
     sodipodi:rx="5.1607933"
     sodipodi:ry="4.9576125"
     d="m 234.87706,88.589706 a 5.1607933,4.9576125 0 1 1 -10.32159,0 5.1607933,4.9576125 0 1 1 10.32159,0 z"
     transform="matrix(0.88188976,0,0,0.97540984,33.918083,6.5265054)" />
  <path
     sodipodi:type="arc"
     style="opacity:0.98000003999999996;fill:#3195ff;fill-opacity:1;fill-rule:nonzero;stroke:#2c2c2c;stroke-width:0;stroke-linecap:square;stroke-linejoin:round;stroke-miterlimit:4;stroke-opacity:1;stroke-dasharray:none;stroke-dashoffset:0"
     id="path3650-7"
     sodipodi:cx="229.71626"
     sodipodi:cy="88.589706"
     sodipodi:rx="5.1607933"
     sodipodi:ry="4.9576125"
     d="m 234.87706,88.589706 a 5.1607933,4.9576125 0 1 1 -10.32159,0 5.1607933,4.9576125 0 1 1 10.32159,0 z"
     transform="matrix(0.72440944,0,0,0.77868853,70.093871,23.994625)" />
  <path
     style="fill:none;stroke:#2c2c2c;stroke-width:1px;stroke-linecap:butt;stroke-linejoin:miter;stroke-opacity:1"
     d="m 242.92301,90.377699 c 4.31859,0.411093 8.36835,3.494386 10.15905,5.689064"
     id="path3674"
     sodipodi:nodetypes="cc" />
  <path
     style="fill:none;stroke:#2c2c2c;stroke-width:1px;stroke-linecap:butt;stroke-linejoin:miter;stroke-opacity:1"
     d="m 236.66504,100.78056 14.22266,6.50179"
     id="path3676" />
  <path
     style="fill:#d40000;stroke:#2c2c2c;stroke-width:1px;stroke-linecap:butt;stroke-linejoin:miter;stroke-opacity:1;fill-opacity:1"
     d="m 139.30079,96.066763 c 9.87551,-5.126815 19.15466,-9.80851 29.70544,-16.008462 5.48989,-3.226022 9.8757,-8.667834 14.18162,-15.200115 2.25078,-3.413438 3.42413,-6.826877 4.3887,-10.240315 2.21224,-11.481468 -10.5367,-14.28616 -13.65375,-2.43817 -1.63159,7.151966 -0.12024,14.390133 2.12294,21.542099 -1.94486,2.051771 -6.39569,5.895581 -6.67419,5.765406 -3.68987,-13.2203 -7.58581,-26.4406 3.08835,-39.6609 9.84228,-7.967597 20.87942,-1.099588 22.43116,6.826876 3.53924,15.253182 -5.77178,25.73802 -13.16612,33.321658 16.03042,10.477607 32.47113,10.697822 48.92595,10.565404 l 0.97527,7.31451 c -20.54993,1.387601 -40.7953,1.836171 -56.24046,-12.515939 -10.63492,7.165762 -22.25401,12.609225 -34.62201,16.742105 l -1.4629,-6.014157 z"
     id="path3678"
     sodipodi:nodetypes="csccccccccccccc" />
  <path
     style="fill:none;stroke:#2c2c2c;stroke-width:1px;stroke-linecap:butt;stroke-linejoin:miter;stroke-opacity:1"
     d="m 175.3857,85.257542 6.50179,-5.445246"
     id="path3680" />
</svg>
