<?xml version="1.0" encoding="UTF-8" standalone="no"?>
<!-- Created with Inkscape (http://www.inkscape.org/) -->

<svg
   xmlns:dc="http://purl.org/dc/elements/1.1/"
   xmlns:cc="http://creativecommons.org/ns#"
   xmlns:rdf="http://www.w3.org/1999/02/22-rdf-syntax-ns#"
   xmlns:svg="http://www.w3.org/2000/svg"
   xmlns="http://www.w3.org/2000/svg"
   xmlns:sodipodi="http://sodipodi.sourceforge.net/DTD/sodipodi-0.dtd"
   xmlns:inkscape="http://www.inkscape.org/namespaces/inkscape"
   id="svg2816"
   version="1.1"
   inkscape:version="0.48.4 r9939"
   width="326"
   height="217"
   sodipodi:docname="Gemert-Bakel_vlag.svg">
  <metadata
     id="metadata2822">
    <rdf:RDF>
      <cc:Work
         rdf:about="">
        <dc:format>image/svg+xml</dc:format>
        <dc:type
           rdf:resource="http://purl.org/dc/dcmitype/StillImage" />
        <dc:title />
      </cc:Work>
    </rdf:RDF>
  </metadata>
  <defs
     id="defs2820">
    <inkscape:perspective
       sodipodi:type="inkscape:persp3d"
       inkscape:vp_x="0 : 0.5 : 1"
       inkscape:vp_y="0 : 1000 : 0"
       inkscape:vp_z="1 : 0.5 : 1"
       inkscape:persp3d-origin="0.5 : 0.33333333 : 1"
       id="perspective2824" />
    <inkscape:perspective
       id="perspective3610"
       inkscape:persp3d-origin="0.5 : 0.33333333 : 1"
       inkscape:vp_z="1 : 0.5 : 1"
       inkscape:vp_y="0 : 1000 : 0"
       inkscape:vp_x="0 : 0.5 : 1"
       sodipodi:type="inkscape:persp3d" />
    <inkscape:perspective
       id="perspective3610-7"
       inkscape:persp3d-origin="0.5 : 0.33333333 : 1"
       inkscape:vp_z="1 : 0.5 : 1"
       inkscape:vp_y="0 : 1000 : 0"
       inkscape:vp_x="0 : 0.5 : 1"
       sodipodi:type="inkscape:persp3d" />
    <inkscape:perspective
       id="perspective3610-0"
       inkscape:persp3d-origin="0.5 : 0.33333333 : 1"
       inkscape:vp_z="1 : 0.5 : 1"
       inkscape:vp_y="0 : 1000 : 0"
       inkscape:vp_x="0 : 0.5 : 1"
       sodipodi:type="inkscape:persp3d" />
    <inkscape:perspective
       id="perspective3652"
       inkscape:persp3d-origin="0.5 : 0.33333333 : 1"
       inkscape:vp_z="1 : 0.5 : 1"
       inkscape:vp_y="0 : 1000 : 0"
       inkscape:vp_x="0 : 0.5 : 1"
       sodipodi:type="inkscape:persp3d" />
    <inkscape:perspective
       id="perspective3652-8"
       inkscape:persp3d-origin="0.5 : 0.33333333 : 1"
       inkscape:vp_z="1 : 0.5 : 1"
       inkscape:vp_y="0 : 1000 : 0"
       inkscape:vp_x="0 : 0.5 : 1"
       sodipodi:type="inkscape:persp3d" />
    <inkscape:perspective
       id="perspective3652-2"
       inkscape:persp3d-origin="0.5 : 0.33333333 : 1"
       inkscape:vp_z="1 : 0.5 : 1"
       inkscape:vp_y="0 : 1000 : 0"
       inkscape:vp_x="0 : 0.5 : 1"
       sodipodi:type="inkscape:persp3d" />
    <inkscape:perspective
       id="perspective3652-5"
       inkscape:persp3d-origin="0.5 : 0.33333333 : 1"
       inkscape:vp_z="1 : 0.5 : 1"
       inkscape:vp_y="0 : 1000 : 0"
       inkscape:vp_x="0 : 0.5 : 1"
       sodipodi:type="inkscape:persp3d" />
    <inkscape:perspective
       id="perspective3652-7"
       inkscape:persp3d-origin="0.5 : 0.33333333 : 1"
       inkscape:vp_z="1 : 0.5 : 1"
       inkscape:vp_y="0 : 1000 : 0"
       inkscape:vp_x="0 : 0.5 : 1"
       sodipodi:type="inkscape:persp3d" />
    <inkscape:perspective
       id="perspective3652-52"
       inkscape:persp3d-origin="0.5 : 0.33333333 : 1"
       inkscape:vp_z="1 : 0.5 : 1"
       inkscape:vp_y="0 : 1000 : 0"
       inkscape:vp_x="0 : 0.5 : 1"
       sodipodi:type="inkscape:persp3d" />
    <inkscape:perspective
       id="perspective3721"
       inkscape:persp3d-origin="0.5 : 0.33333333 : 1"
       inkscape:vp_z="1 : 0.5 : 1"
       inkscape:vp_y="0 : 1000 : 0"
       inkscape:vp_x="0 : 0.5 : 1"
       sodipodi:type="inkscape:persp3d" />
    <inkscape:perspective
       id="perspective3743"
       inkscape:persp3d-origin="0.5 : 0.33333333 : 1"
       inkscape:vp_z="1 : 0.5 : 1"
       inkscape:vp_y="0 : 1000 : 0"
       inkscape:vp_x="0 : 0.5 : 1"
       sodipodi:type="inkscape:persp3d" />
    <inkscape:perspective
       id="perspective3743-4"
       inkscape:persp3d-origin="0.5 : 0.33333333 : 1"
       inkscape:vp_z="1 : 0.5 : 1"
       inkscape:vp_y="0 : 1000 : 0"
       inkscape:vp_x="0 : 0.5 : 1"
       sodipodi:type="inkscape:persp3d" />
    <inkscape:perspective
       id="perspective3743-3"
       inkscape:persp3d-origin="0.5 : 0.33333333 : 1"
       inkscape:vp_z="1 : 0.5 : 1"
       inkscape:vp_y="0 : 1000 : 0"
       inkscape:vp_x="0 : 0.5 : 1"
       sodipodi:type="inkscape:persp3d" />
    <inkscape:perspective
       id="perspective3743-1"
       inkscape:persp3d-origin="0.5 : 0.33333333 : 1"
       inkscape:vp_z="1 : 0.5 : 1"
       inkscape:vp_y="0 : 1000 : 0"
       inkscape:vp_x="0 : 0.5 : 1"
       sodipodi:type="inkscape:persp3d" />
    <inkscape:perspective
       id="perspective3743-8"
       inkscape:persp3d-origin="0.5 : 0.33333333 : 1"
       inkscape:vp_z="1 : 0.5 : 1"
       inkscape:vp_y="0 : 1000 : 0"
       inkscape:vp_x="0 : 0.5 : 1"
       sodipodi:type="inkscape:persp3d" />
    <inkscape:perspective
       id="perspective3743-7"
       inkscape:persp3d-origin="0.5 : 0.33333333 : 1"
       inkscape:vp_z="1 : 0.5 : 1"
       inkscape:vp_y="0 : 1000 : 0"
       inkscape:vp_x="0 : 0.5 : 1"
       sodipodi:type="inkscape:persp3d" />
    <inkscape:perspective
       id="perspective3743-89"
       inkscape:persp3d-origin="0.5 : 0.33333333 : 1"
       inkscape:vp_z="1 : 0.5 : 1"
       inkscape:vp_y="0 : 1000 : 0"
       inkscape:vp_x="0 : 0.5 : 1"
       sodipodi:type="inkscape:persp3d" />
    <inkscape:perspective
       id="perspective3821"
       inkscape:persp3d-origin="0.5 : 0.33333333 : 1"
       inkscape:vp_z="1 : 0.5 : 1"
       inkscape:vp_y="0 : 1000 : 0"
       inkscape:vp_x="0 : 0.5 : 1"
       sodipodi:type="inkscape:persp3d" />
    <inkscape:perspective
       id="perspective3821-5"
       inkscape:persp3d-origin="0.5 : 0.33333333 : 1"
       inkscape:vp_z="1 : 0.5 : 1"
       inkscape:vp_y="0 : 1000 : 0"
       inkscape:vp_x="0 : 0.5 : 1"
       sodipodi:type="inkscape:persp3d" />
    <inkscape:perspective
       id="perspective3821-3"
       inkscape:persp3d-origin="0.5 : 0.33333333 : 1"
       inkscape:vp_z="1 : 0.5 : 1"
       inkscape:vp_y="0 : 1000 : 0"
       inkscape:vp_x="0 : 0.5 : 1"
       sodipodi:type="inkscape:persp3d" />
    <inkscape:perspective
       id="perspective3821-2"
       inkscape:persp3d-origin="0.5 : 0.33333333 : 1"
       inkscape:vp_z="1 : 0.5 : 1"
       inkscape:vp_y="0 : 1000 : 0"
       inkscape:vp_x="0 : 0.5 : 1"
       sodipodi:type="inkscape:persp3d" />
    <inkscape:perspective
       id="perspective3872"
       inkscape:persp3d-origin="0.5 : 0.33333333 : 1"
       inkscape:vp_z="1 : 0.5 : 1"
       inkscape:vp_y="0 : 1000 : 0"
       inkscape:vp_x="0 : 0.5 : 1"
       sodipodi:type="inkscape:persp3d" />
    <inkscape:perspective
       id="perspective3872-4"
       inkscape:persp3d-origin="0.5 : 0.33333333 : 1"
       inkscape:vp_z="1 : 0.5 : 1"
       inkscape:vp_y="0 : 1000 : 0"
       inkscape:vp_x="0 : 0.5 : 1"
       sodipodi:type="inkscape:persp3d" />
    <inkscape:perspective
       id="perspective3905"
       inkscape:persp3d-origin="0.5 : 0.33333333 : 1"
       inkscape:vp_z="1 : 0.5 : 1"
       inkscape:vp_y="0 : 1000 : 0"
       inkscape:vp_x="0 : 0.5 : 1"
       sodipodi:type="inkscape:persp3d" />
    <inkscape:perspective
       id="perspective3905-3"
       inkscape:persp3d-origin="0.5 : 0.33333333 : 1"
       inkscape:vp_z="1 : 0.5 : 1"
       inkscape:vp_y="0 : 1000 : 0"
       inkscape:vp_x="0 : 0.5 : 1"
       sodipodi:type="inkscape:persp3d" />
    <inkscape:perspective
       id="perspective3905-7"
       inkscape:persp3d-origin="0.5 : 0.33333333 : 1"
       inkscape:vp_z="1 : 0.5 : 1"
       inkscape:vp_y="0 : 1000 : 0"
       inkscape:vp_x="0 : 0.5 : 1"
       sodipodi:type="inkscape:persp3d" />
    <inkscape:perspective
       id="perspective3905-2"
       inkscape:persp3d-origin="0.5 : 0.33333333 : 1"
       inkscape:vp_z="1 : 0.5 : 1"
       inkscape:vp_y="0 : 1000 : 0"
       inkscape:vp_x="0 : 0.5 : 1"
       sodipodi:type="inkscape:persp3d" />
    <inkscape:perspective
       id="perspective3905-79"
       inkscape:persp3d-origin="0.5 : 0.33333333 : 1"
       inkscape:vp_z="1 : 0.5 : 1"
       inkscape:vp_y="0 : 1000 : 0"
       inkscape:vp_x="0 : 0.5 : 1"
       sodipodi:type="inkscape:persp3d" />
    <inkscape:perspective
       id="perspective3905-1"
       inkscape:persp3d-origin="0.5 : 0.33333333 : 1"
       inkscape:vp_z="1 : 0.5 : 1"
       inkscape:vp_y="0 : 1000 : 0"
       inkscape:vp_x="0 : 0.5 : 1"
       sodipodi:type="inkscape:persp3d" />
    <inkscape:perspective
       id="perspective3905-8"
       inkscape:persp3d-origin="0.5 : 0.33333333 : 1"
       inkscape:vp_z="1 : 0.5 : 1"
       inkscape:vp_y="0 : 1000 : 0"
       inkscape:vp_x="0 : 0.5 : 1"
       sodipodi:type="inkscape:persp3d" />
    <inkscape:perspective
       id="perspective3905-5"
       inkscape:persp3d-origin="0.5 : 0.33333333 : 1"
       inkscape:vp_z="1 : 0.5 : 1"
       inkscape:vp_y="0 : 1000 : 0"
       inkscape:vp_x="0 : 0.5 : 1"
       sodipodi:type="inkscape:persp3d" />
    <inkscape:perspective
       id="perspective3905-28"
       inkscape:persp3d-origin="0.5 : 0.33333333 : 1"
       inkscape:vp_z="1 : 0.5 : 1"
       inkscape:vp_y="0 : 1000 : 0"
       inkscape:vp_x="0 : 0.5 : 1"
       sodipodi:type="inkscape:persp3d" />
    <inkscape:perspective
       id="perspective3905-24"
       inkscape:persp3d-origin="0.5 : 0.33333333 : 1"
       inkscape:vp_z="1 : 0.5 : 1"
       inkscape:vp_y="0 : 1000 : 0"
       inkscape:vp_x="0 : 0.5 : 1"
       sodipodi:type="inkscape:persp3d" />
    <inkscape:perspective
       id="perspective3905-50"
       inkscape:persp3d-origin="0.5 : 0.33333333 : 1"
       inkscape:vp_z="1 : 0.5 : 1"
       inkscape:vp_y="0 : 1000 : 0"
       inkscape:vp_x="0 : 0.5 : 1"
       sodipodi:type="inkscape:persp3d" />
    <inkscape:perspective
       id="perspective3905-0"
       inkscape:persp3d-origin="0.5 : 0.33333333 : 1"
       inkscape:vp_z="1 : 0.5 : 1"
       inkscape:vp_y="0 : 1000 : 0"
       inkscape:vp_x="0 : 0.5 : 1"
       sodipodi:type="inkscape:persp3d" />
    <inkscape:perspective
       id="perspective3905-38"
       inkscape:persp3d-origin="0.5 : 0.33333333 : 1"
       inkscape:vp_z="1 : 0.5 : 1"
       inkscape:vp_y="0 : 1000 : 0"
       inkscape:vp_x="0 : 0.5 : 1"
       sodipodi:type="inkscape:persp3d" />
    <inkscape:perspective
       id="perspective3905-4"
       inkscape:persp3d-origin="0.5 : 0.33333333 : 1"
       inkscape:vp_z="1 : 0.5 : 1"
       inkscape:vp_y="0 : 1000 : 0"
       inkscape:vp_x="0 : 0.5 : 1"
       sodipodi:type="inkscape:persp3d" />
    <inkscape:perspective
       id="perspective3905-06"
       inkscape:persp3d-origin="0.5 : 0.33333333 : 1"
       inkscape:vp_z="1 : 0.5 : 1"
       inkscape:vp_y="0 : 1000 : 0"
       inkscape:vp_x="0 : 0.5 : 1"
       sodipodi:type="inkscape:persp3d" />
    <inkscape:perspective
       id="perspective3905-49"
       inkscape:persp3d-origin="0.5 : 0.33333333 : 1"
       inkscape:vp_z="1 : 0.5 : 1"
       inkscape:vp_y="0 : 1000 : 0"
       inkscape:vp_x="0 : 0.5 : 1"
       sodipodi:type="inkscape:persp3d" />
    <inkscape:perspective
       id="perspective3905-78"
       inkscape:persp3d-origin="0.5 : 0.33333333 : 1"
       inkscape:vp_z="1 : 0.5 : 1"
       inkscape:vp_y="0 : 1000 : 0"
       inkscape:vp_x="0 : 0.5 : 1"
       sodipodi:type="inkscape:persp3d" />
    <inkscape:perspective
       id="perspective3905-9"
       inkscape:persp3d-origin="0.5 : 0.33333333 : 1"
       inkscape:vp_z="1 : 0.5 : 1"
       inkscape:vp_y="0 : 1000 : 0"
       inkscape:vp_x="0 : 0.5 : 1"
       sodipodi:type="inkscape:persp3d" />
    <inkscape:perspective
       id="perspective3905-59"
       inkscape:persp3d-origin="0.5 : 0.33333333 : 1"
       inkscape:vp_z="1 : 0.5 : 1"
       inkscape:vp_y="0 : 1000 : 0"
       inkscape:vp_x="0 : 0.5 : 1"
       sodipodi:type="inkscape:persp3d" />
    <inkscape:perspective
       id="perspective4091"
       inkscape:persp3d-origin="0.5 : 0.33333333 : 1"
       inkscape:vp_z="1 : 0.5 : 1"
       inkscape:vp_y="0 : 1000 : 0"
       inkscape:vp_x="0 : 0.5 : 1"
       sodipodi:type="inkscape:persp3d" />
    <inkscape:perspective
       id="perspective4251"
       inkscape:persp3d-origin="0.5 : 0.33333333 : 1"
       inkscape:vp_z="1 : 0.5 : 1"
       inkscape:vp_y="0 : 1000 : 0"
       inkscape:vp_x="0 : 0.5 : 1"
       sodipodi:type="inkscape:persp3d" />
    <inkscape:perspective
       id="perspective4277"
       inkscape:persp3d-origin="0.5 : 0.33333333 : 1"
       inkscape:vp_z="1 : 0.5 : 1"
       inkscape:vp_y="0 : 1000 : 0"
       inkscape:vp_x="0 : 0.5 : 1"
       sodipodi:type="inkscape:persp3d" />
    <inkscape:perspective
       id="perspective4291"
       inkscape:persp3d-origin="0.5 : 0.33333333 : 1"
       inkscape:vp_z="1 : 0.5 : 1"
       inkscape:vp_y="0 : 1000 : 0"
       inkscape:vp_x="0 : 0.5 : 1"
       sodipodi:type="inkscape:persp3d" />
    <inkscape:perspective
       id="perspective4313"
       inkscape:persp3d-origin="0.5 : 0.33333333 : 1"
       inkscape:vp_z="1 : 0.5 : 1"
       inkscape:vp_y="0 : 1000 : 0"
       inkscape:vp_x="0 : 0.5 : 1"
       sodipodi:type="inkscape:persp3d" />
    <inkscape:perspective
       id="perspective4337"
       inkscape:persp3d-origin="0.5 : 0.33333333 : 1"
       inkscape:vp_z="1 : 0.5 : 1"
       inkscape:vp_y="0 : 1000 : 0"
       inkscape:vp_x="0 : 0.5 : 1"
       sodipodi:type="inkscape:persp3d" />
    <inkscape:perspective
       id="perspective4337-6"
       inkscape:persp3d-origin="0.5 : 0.33333333 : 1"
       inkscape:vp_z="1 : 0.5 : 1"
       inkscape:vp_y="0 : 1000 : 0"
       inkscape:vp_x="0 : 0.5 : 1"
       sodipodi:type="inkscape:persp3d" />
    <inkscape:perspective
       id="perspective4337-5"
       inkscape:persp3d-origin="0.5 : 0.33333333 : 1"
       inkscape:vp_z="1 : 0.5 : 1"
       inkscape:vp_y="0 : 1000 : 0"
       inkscape:vp_x="0 : 0.5 : 1"
       sodipodi:type="inkscape:persp3d" />
    <inkscape:perspective
       id="perspective4337-2"
       inkscape:persp3d-origin="0.5 : 0.33333333 : 1"
       inkscape:vp_z="1 : 0.5 : 1"
       inkscape:vp_y="0 : 1000 : 0"
       inkscape:vp_x="0 : 0.5 : 1"
       sodipodi:type="inkscape:persp3d" />
    <inkscape:perspective
       id="perspective4337-9"
       inkscape:persp3d-origin="0.5 : 0.33333333 : 1"
       inkscape:vp_z="1 : 0.5 : 1"
       inkscape:vp_y="0 : 1000 : 0"
       inkscape:vp_x="0 : 0.5 : 1"
       sodipodi:type="inkscape:persp3d" />
    <inkscape:perspective
       id="perspective4399"
       inkscape:persp3d-origin="0.5 : 0.33333333 : 1"
       inkscape:vp_z="1 : 0.5 : 1"
       inkscape:vp_y="0 : 1000 : 0"
       inkscape:vp_x="0 : 0.5 : 1"
       sodipodi:type="inkscape:persp3d" />
    <inkscape:perspective
       id="perspective4399-7"
       inkscape:persp3d-origin="0.5 : 0.33333333 : 1"
       inkscape:vp_z="1 : 0.5 : 1"
       inkscape:vp_y="0 : 1000 : 0"
       inkscape:vp_x="0 : 0.5 : 1"
       sodipodi:type="inkscape:persp3d" />
    <inkscape:perspective
       id="perspective4399-6"
       inkscape:persp3d-origin="0.5 : 0.33333333 : 1"
       inkscape:vp_z="1 : 0.5 : 1"
       inkscape:vp_y="0 : 1000 : 0"
       inkscape:vp_x="0 : 0.5 : 1"
       sodipodi:type="inkscape:persp3d" />
    <inkscape:perspective
       id="perspective4399-1"
       inkscape:persp3d-origin="0.5 : 0.33333333 : 1"
       inkscape:vp_z="1 : 0.5 : 1"
       inkscape:vp_y="0 : 1000 : 0"
       inkscape:vp_x="0 : 0.5 : 1"
       sodipodi:type="inkscape:persp3d" />
    <inkscape:perspective
       id="perspective4448"
       inkscape:persp3d-origin="0.5 : 0.33333333 : 1"
       inkscape:vp_z="1 : 0.5 : 1"
       inkscape:vp_y="0 : 1000 : 0"
       inkscape:vp_x="0 : 0.5 : 1"
       sodipodi:type="inkscape:persp3d" />
    <inkscape:perspective
       id="perspective4476"
       inkscape:persp3d-origin="0.5 : 0.33333333 : 1"
       inkscape:vp_z="1 : 0.5 : 1"
       inkscape:vp_y="0 : 1000 : 0"
       inkscape:vp_x="0 : 0.5 : 1"
       sodipodi:type="inkscape:persp3d" />
    <inkscape:perspective
       id="perspective4500"
       inkscape:persp3d-origin="0.5 : 0.33333333 : 1"
       inkscape:vp_z="1 : 0.5 : 1"
       inkscape:vp_y="0 : 1000 : 0"
       inkscape:vp_x="0 : 0.5 : 1"
       sodipodi:type="inkscape:persp3d" />
    <inkscape:perspective
       id="perspective4524"
       inkscape:persp3d-origin="0.5 : 0.33333333 : 1"
       inkscape:vp_z="1 : 0.5 : 1"
       inkscape:vp_y="0 : 1000 : 0"
       inkscape:vp_x="0 : 0.5 : 1"
       sodipodi:type="inkscape:persp3d" />
    <inkscape:perspective
       id="perspective4550"
       inkscape:persp3d-origin="0.5 : 0.33333333 : 1"
       inkscape:vp_z="1 : 0.5 : 1"
       inkscape:vp_y="0 : 1000 : 0"
       inkscape:vp_x="0 : 0.5 : 1"
       sodipodi:type="inkscape:persp3d" />
    <inkscape:perspective
       id="perspective4550-2"
       inkscape:persp3d-origin="0.5 : 0.33333333 : 1"
       inkscape:vp_z="1 : 0.5 : 1"
       inkscape:vp_y="0 : 1000 : 0"
       inkscape:vp_x="0 : 0.5 : 1"
       sodipodi:type="inkscape:persp3d" />
    <inkscape:perspective
       id="perspective4587"
       inkscape:persp3d-origin="0.5 : 0.33333333 : 1"
       inkscape:vp_z="1 : 0.5 : 1"
       inkscape:vp_y="0 : 1000 : 0"
       inkscape:vp_x="0 : 0.5 : 1"
       sodipodi:type="inkscape:persp3d" />
    <inkscape:perspective
       id="perspective4615"
       inkscape:persp3d-origin="0.5 : 0.33333333 : 1"
       inkscape:vp_z="1 : 0.5 : 1"
       inkscape:vp_y="0 : 1000 : 0"
       inkscape:vp_x="0 : 0.5 : 1"
       sodipodi:type="inkscape:persp3d" />
    <inkscape:perspective
       id="perspective3042"
       inkscape:persp3d-origin="0.5 : 0.33333333 : 1"
       inkscape:vp_z="1 : 0.5 : 1"
       inkscape:vp_y="0 : 1000 : 0"
       inkscape:vp_x="0 : 0.5 : 1"
       sodipodi:type="inkscape:persp3d" />
    <inkscape:perspective
       id="perspective3592"
       inkscape:persp3d-origin="0.5 : 0.33333333 : 1"
       inkscape:vp_z="1 : 0.5 : 1"
       inkscape:vp_y="0 : 1000 : 0"
       inkscape:vp_x="0 : 0.5 : 1"
       sodipodi:type="inkscape:persp3d" />
    <inkscape:perspective
       id="perspective3410"
       inkscape:persp3d-origin="0.5 : 0.33333333 : 1"
       inkscape:vp_z="1 : 0.5 : 1"
       inkscape:vp_y="0 : 1000 : 0"
       inkscape:vp_x="0 : 0.5 : 1"
       sodipodi:type="inkscape:persp3d" />
    <inkscape:perspective
       id="perspective5738"
       inkscape:persp3d-origin="0.5 : 0.33333333 : 1"
       inkscape:vp_z="1 : 0.5 : 1"
       inkscape:vp_y="0 : 1000 : 0"
       inkscape:vp_x="0 : 0.5 : 1"
       sodipodi:type="inkscape:persp3d" />
    <inkscape:perspective
       id="perspective6129"
       inkscape:persp3d-origin="0.5 : 0.33333333 : 1"
       inkscape:vp_z="1 : 0.5 : 1"
       inkscape:vp_y="0 : 1000 : 0"
       inkscape:vp_x="0 : 0.5 : 1"
       sodipodi:type="inkscape:persp3d" />
    <inkscape:perspective
       id="perspective6157"
       inkscape:persp3d-origin="0.5 : 0.33333333 : 1"
       inkscape:vp_z="1 : 0.5 : 1"
       inkscape:vp_y="0 : 1000 : 0"
       inkscape:vp_x="0 : 0.5 : 1"
       sodipodi:type="inkscape:persp3d" />
    <inkscape:perspective
       id="perspective6181"
       inkscape:persp3d-origin="0.5 : 0.33333333 : 1"
       inkscape:vp_z="1 : 0.5 : 1"
       inkscape:vp_y="0 : 1000 : 0"
       inkscape:vp_x="0 : 0.5 : 1"
       sodipodi:type="inkscape:persp3d" />
    <inkscape:perspective
       id="perspective6979"
       inkscape:persp3d-origin="0.5 : 0.33333333 : 1"
       inkscape:vp_z="1 : 0.5 : 1"
       inkscape:vp_y="0 : 1000 : 0"
       inkscape:vp_x="0 : 0.5 : 1"
       sodipodi:type="inkscape:persp3d" />
    <inkscape:perspective
       id="perspective6979-9"
       inkscape:persp3d-origin="0.5 : 0.33333333 : 1"
       inkscape:vp_z="1 : 0.5 : 1"
       inkscape:vp_y="0 : 1000 : 0"
       inkscape:vp_x="0 : 0.5 : 1"
       sodipodi:type="inkscape:persp3d" />
    <inkscape:perspective
       id="perspective6979-8"
       inkscape:persp3d-origin="0.5 : 0.33333333 : 1"
       inkscape:vp_z="1 : 0.5 : 1"
       inkscape:vp_y="0 : 1000 : 0"
       inkscape:vp_x="0 : 0.5 : 1"
       sodipodi:type="inkscape:persp3d" />
    <inkscape:perspective
       id="perspective6979-2"
       inkscape:persp3d-origin="0.5 : 0.33333333 : 1"
       inkscape:vp_z="1 : 0.5 : 1"
       inkscape:vp_y="0 : 1000 : 0"
       inkscape:vp_x="0 : 0.5 : 1"
       sodipodi:type="inkscape:persp3d" />
    <inkscape:perspective
       id="perspective6979-5"
       inkscape:persp3d-origin="0.5 : 0.33333333 : 1"
       inkscape:vp_z="1 : 0.5 : 1"
       inkscape:vp_y="0 : 1000 : 0"
       inkscape:vp_x="0 : 0.5 : 1"
       sodipodi:type="inkscape:persp3d" />
    <inkscape:perspective
       id="perspective3020"
       inkscape:persp3d-origin="0.5 : 0.33333333 : 1"
       inkscape:vp_z="1 : 0.5 : 1"
       inkscape:vp_y="0 : 1000 : 0"
       inkscape:vp_x="0 : 0.5 : 1"
       sodipodi:type="inkscape:persp3d" />
    <inkscape:perspective
       id="perspective3810"
       inkscape:persp3d-origin="0.5 : 0.33333333 : 1"
       inkscape:vp_z="1 : 0.5 : 1"
       inkscape:vp_y="0 : 1000 : 0"
       inkscape:vp_x="0 : 0.5 : 1"
       sodipodi:type="inkscape:persp3d" />
    <inkscape:perspective
       id="perspective3834"
       inkscape:persp3d-origin="0.5 : 0.33333333 : 1"
       inkscape:vp_z="1 : 0.5 : 1"
       inkscape:vp_y="0 : 1000 : 0"
       inkscape:vp_x="0 : 0.5 : 1"
       sodipodi:type="inkscape:persp3d" />
    <inkscape:perspective
       id="perspective3997"
       inkscape:persp3d-origin="0.5 : 0.33333333 : 1"
       inkscape:vp_z="1 : 0.5 : 1"
       inkscape:vp_y="0 : 1000 : 0"
       inkscape:vp_x="0 : 0.5 : 1"
       sodipodi:type="inkscape:persp3d" />
    <inkscape:perspective
       id="perspective4011"
       inkscape:persp3d-origin="0.5 : 0.33333333 : 1"
       inkscape:vp_z="1 : 0.5 : 1"
       inkscape:vp_y="0 : 1000 : 0"
       inkscape:vp_x="0 : 0.5 : 1"
       sodipodi:type="inkscape:persp3d" />
    <inkscape:perspective
       id="perspective4025"
       inkscape:persp3d-origin="0.5 : 0.33333333 : 1"
       inkscape:vp_z="1 : 0.5 : 1"
       inkscape:vp_y="0 : 1000 : 0"
       inkscape:vp_x="0 : 0.5 : 1"
       sodipodi:type="inkscape:persp3d" />
    <inkscape:perspective
       id="perspective4929"
       inkscape:persp3d-origin="0.5 : 0.33333333 : 1"
       inkscape:vp_z="1 : 0.5 : 1"
       inkscape:vp_y="0 : 1000 : 0"
       inkscape:vp_x="0 : 0.5 : 1"
       sodipodi:type="inkscape:persp3d" />
    <inkscape:perspective
       id="perspective5832"
       inkscape:persp3d-origin="0.5 : 0.33333333 : 1"
       inkscape:vp_z="1 : 0.5 : 1"
       inkscape:vp_y="0 : 1000 : 0"
       inkscape:vp_x="0 : 0.5 : 1"
       sodipodi:type="inkscape:persp3d" />
    <inkscape:perspective
       id="perspective6196"
       inkscape:persp3d-origin="0.5 : 0.33333333 : 1"
       inkscape:vp_z="1 : 0.5 : 1"
       inkscape:vp_y="0 : 1000 : 0"
       inkscape:vp_x="0 : 0.5 : 1"
       sodipodi:type="inkscape:persp3d" />
    <inkscape:perspective
       id="perspective6210"
       inkscape:persp3d-origin="0.5 : 0.33333333 : 1"
       inkscape:vp_z="1 : 0.5 : 1"
       inkscape:vp_y="0 : 1000 : 0"
       inkscape:vp_x="0 : 0.5 : 1"
       sodipodi:type="inkscape:persp3d" />
    <inkscape:perspective
       id="perspective6232"
       inkscape:persp3d-origin="0.5 : 0.33333333 : 1"
       inkscape:vp_z="1 : 0.5 : 1"
       inkscape:vp_y="0 : 1000 : 0"
       inkscape:vp_x="0 : 0.5 : 1"
       sodipodi:type="inkscape:persp3d" />
    <inkscape:perspective
       id="perspective6254"
       inkscape:persp3d-origin="0.5 : 0.33333333 : 1"
       inkscape:vp_z="1 : 0.5 : 1"
       inkscape:vp_y="0 : 1000 : 0"
       inkscape:vp_x="0 : 0.5 : 1"
       sodipodi:type="inkscape:persp3d" />
    <inkscape:perspective
       id="perspective6276"
       inkscape:persp3d-origin="0.5 : 0.33333333 : 1"
       inkscape:vp_z="1 : 0.5 : 1"
       inkscape:vp_y="0 : 1000 : 0"
       inkscape:vp_x="0 : 0.5 : 1"
       sodipodi:type="inkscape:persp3d" />
    <inkscape:perspective
       id="perspective6276-2"
       inkscape:persp3d-origin="0.5 : 0.33333333 : 1"
       inkscape:vp_z="1 : 0.5 : 1"
       inkscape:vp_y="0 : 1000 : 0"
       inkscape:vp_x="0 : 0.5 : 1"
       sodipodi:type="inkscape:persp3d" />
    <inkscape:perspective
       id="perspective6307"
       inkscape:persp3d-origin="0.5 : 0.33333333 : 1"
       inkscape:vp_z="1 : 0.5 : 1"
       inkscape:vp_y="0 : 1000 : 0"
       inkscape:vp_x="0 : 0.5 : 1"
       sodipodi:type="inkscape:persp3d" />
    <inkscape:perspective
       id="perspective6329"
       inkscape:persp3d-origin="0.5 : 0.33333333 : 1"
       inkscape:vp_z="1 : 0.5 : 1"
       inkscape:vp_y="0 : 1000 : 0"
       inkscape:vp_x="0 : 0.5 : 1"
       sodipodi:type="inkscape:persp3d" />
  </defs>
  <sodipodi:namedview
     pagecolor="#ffffff"
     bordercolor="#666666"
     borderopacity="1"
     objecttolerance="10"
     gridtolerance="10"
     guidetolerance="10"
     inkscape:pageopacity="0"
     inkscape:pageshadow="2"
     inkscape:window-width="1600"
     inkscape:window-height="837"
     id="namedview2818"
     showgrid="false"
     inkscape:zoom="1.0875576"
     inkscape:cx="95.452642"
     inkscape:cy="75.097794"
     inkscape:window-x="-8"
     inkscape:window-y="-8"
     inkscape:window-maximized="1"
     inkscape:current-layer="svg2816" />
  <path
     style="fill:#ffffff;fill-opacity:1;stroke:#1e1e1e;stroke-width:1.84789443000000000px;stroke-linecap:butt;stroke-linejoin:miter;stroke-opacity:0"
     d="m -0.08124728,-0.07255884 0,220.82308884 327.50147728,0 0,-220.82308884 -327.50147728,0 z"
     id="path4081-0-7-7"
     sodipodi:nodetypes="ccccc" />
  <path
     style="fill:#da121a;fill-opacity:1;stroke:#1e1e1e;stroke-width:0.83181207999999995px;stroke-linecap:butt;stroke-linejoin:miter;stroke-opacity:0"
     d="m 141.9319,0.33888647 0,78.39849153 186.91586,0 0,-78.39849153 -186.91586,0 z"
     id="path4081-0-7-7-6"
     sodipodi:nodetypes="ccccc" />
  <path
     style="fill:#da121a;fill-opacity:1;stroke:#1e1e1e;stroke-width:0.83181207999999995px;stroke-linecap:butt;stroke-linejoin:miter;stroke-opacity:0"
     d="m 141.01241,141.94058 0,78.39849 186.91586,0 0,-78.39849 -186.91586,0 z"
     id="path4081-0-7-7-6-1"
     sodipodi:nodetypes="ccccc" />
  <path
     style="fill:#000000;fill-opacity:1;stroke:#1e1e1e;stroke-width:1.06346297px;stroke-linecap:butt;stroke-linejoin:miter;stroke-opacity:0"
     d="m 0.44603076,0.45471361 0,218.84904639 109.44691924,0 0,-218.84904639 -109.44691924,0 z"
     id="path4081-0-7-7-6-5"
     sodipodi:nodetypes="ccccc" />
  <path
     style="fill:#ffffff;fill-opacity:1;stroke:#1e1e1e;stroke-width:0.54690224px;stroke-linecap:butt;stroke-linejoin:miter;stroke-opacity:0"
     d="m 0.41762955,137.89029 0,81.44188 77.78126945,0 0,-81.44188 -77.78126945,0 z"
     id="path4081-0-7-7-6-5-4"
     sodipodi:nodetypes="ccccc" />
  <path
     style="fill:#fcdd09;fill-opacity:1;stroke:#1e1e1e;stroke-width:0.54690223999999998px;stroke-linecap:butt;stroke-linejoin:miter;stroke-opacity:0"
     d="m 0.12008682,0.08063277 0,81.44188023 77.78127018,0 0,-81.44188023 -77.78127018,0 z"
     id="path4081-0-7-7-6-5-4-9"
     sodipodi:nodetypes="ccccc" />
  <path
     style="fill:#000000"
     d="m 37.071314,78.401033 c -0.954183,-1.298318 -1.300225,-2.231127 -1.409371,-3.799134 l -0.09347,-1.34426 -0.429234,0.599943 c -0.240412,0.335918 -1.060986,1.032372 -1.864453,1.582288 -1.549056,1.060242 -2.293952,1.758322 -2.686146,2.517164 -0.137073,0.265011 -0.297223,0.481915 -0.356006,0.481915 -0.187704,0 -0.493827,-2.249297 -0.381429,-2.802069 0.16969,-0.834869 0.565187,-1.410439 2.312765,-3.366903 2.513578,-2.813738 3.186528,-3.805783 3.773513,-5.563318 0.366985,-1.098797 0.578883,-3.130353 0.376845,-3.613105 -0.123323,-0.294753 -0.185518,-0.251963 -0.865503,0.59566 -0.742284,0.925323 -1.836365,1.853454 -2.97756,2.526027 -0.534543,0.31499 -0.711959,0.55868 -1.202908,1.651569 -1.047448,2.331627 -2.292193,3.536882 -3.995377,3.868713 -1.153452,0.224683 -2.308023,0.778587 -2.735763,1.31245 -0.20156,0.25152 -0.487858,0.814287 -0.636122,1.250458 -0.366081,1.077033 -0.513066,0.683307 -0.418895,-1.121645 l 0.07306,-1.398572 -0.631646,0.264716 c -0.914692,0.383335 -2.282334,0.345125 -4.144974,-0.115764 l -1.563179,-0.386734 1.29191,-0.185045 c 0.755449,-0.108131 1.639017,-0.34675 2.127727,-0.574634 1.166029,-0.54376 2.400702,-1.74611 3.088093,-3.007155 0.870405,-1.597159 1.795222,-2.150767 3.603876,-2.157612 l 0.831181,0 -0.61747,-0.259151 c -0.616138,-0.25861 -1.116093,-0.675331 -0.970865,-0.809264 0.04211,-0.0389 0.432217,0 0.86678,0.08558 1.712031,0.338772 3.781987,-0.522982 6.005803,-2.500325 1.297613,-1.153749 1.325114,-1.190876 0.659359,-0.889919 -1.059333,0.47896 -2.889251,0.447298 -3.956418,-0.06864 -2.071236,-1.000859 -2.844858,-2.651393 -2.016876,-4.302913 l 0.352171,-0.70256 0.267271,0.64554 c 0.898278,2.170266 2.985608,1.90235 5.20207,-0.667698 0.732585,-0.849543 2.544862,-3.890427 2.398835,-4.025148 -0.03305,-0.02954 -0.199587,0.01428 -0.371035,0.09937 -0.458012,0.226111 -1.666623,0.187507 -2.207615,-0.07096 l -0.470697,-0.224584 0.635802,-0.290271 c 1.170932,-0.534454 2.376239,-2.210791 2.580996,-3.589371 0.0517,-0.348671 0.0453,-1.119183 -0.01545,-1.712233 l -0.109529,-1.078215 -0.720275,0.449318 c -0.396137,0.247137 -1.312641,0.999627 -2.036593,1.672299 -1.949937,1.811452 -2.90428,3.638168 -3.241528,6.204523 -0.09236,0.702905 -0.19186,1.300091 -0.221118,1.327026 -0.02931,0.02659 -0.454335,-0.468078 -0.944697,-1.099979 -0.490309,-0.63195 -0.931534,-1.148481 -0.980298,-1.147841 -0.04903,0 -2.138173,1.399213 -4.642958,3.107851 -5.113015,3.487838 -5.100758,3.474937 -4.030178,4.268789 0.689576,0.511311 0.906485,0.5412 1.791705,0.24694 0.924285,-0.30726 1.576663,-0.27156 1.988896,0.108772 0.300207,0.277075 0.369596,0.53278 0.457585,1.688499 0.121671,1.597158 -0.0437,2.113098 -0.900889,2.807337 -0.591515,0.479255 -1.069033,0.62156 -0.649232,0.193514 0.431524,-0.439913 0.755715,-1.328257 0.658772,-1.805002 l -0.09081,-0.446609 -0.96852,0.05722 c -0.925778,0.05416 -0.990371,0.03644 -1.462079,-0.408842 -0.271428,-0.256099 -0.566573,-0.670259 -0.656054,-0.920252 -0.116609,-0.32602 -0.374288,-0.560847 -0.912081,-0.830831 -1.260307,-0.632935 -1.247996,-0.647953 -1.247996,1.514877 0,1.484349 0.0517,1.959715 0.241316,2.209117 0.134036,0.176625 0.219787,0.522932 0.192927,0.779474 -0.03837,0.367185 -0.166758,0.520125 -0.626743,0.74668 -0.318168,0.156633 -0.578671,0.32341 -0.578938,0.370631 0,0.303074 0.806025,1.104608 1.38443,1.374248 l 0.687499,0.320505 -0.611661,0 c -1.301131,-0.0074 -2.369844,-0.784053 -2.631253,-1.914118 -0.055,-0.238176 -0.16857,-0.511508 -0.252135,-0.607281 -0.270097,-0.309623 -0.161803,-1.135038 0.232416,-1.770287 0.375193,-0.604769 0.988772,-2.775921 0.826597,-2.925464 -0.141391,-0.130487 -3.010976,1.885361 -3.508267,2.464526 -0.675666,0.787007 -1.056775,0.947285 -1.621162,0.681978 -0.247767,-0.116552 -0.529694,-0.307752 -0.626423,-0.424944 -0.154501,-0.18731 -0.208541,-0.182977 -0.445968,0.03594 -0.3201932,0.295492 -0.6903766,1.068909 -0.6903766,1.442643 0,0.145849 0.1713416,0.577441 0.3806822,0.959004 0.2093944,0.381563 0.3495044,0.722552 0.3114534,0.757611 C 10.209581,66.778056 9.8704167,66.522844 9.4941047,66.1757 8.7520862,65.491161 8.519509,64.855026 8.6952209,63.991006 8.8085776,63.43336 9.4166146,62.693426 9.8707895,62.560428 10.046501,62.509318 10.174888,62.3419 10.177713,62.161089 c 0.01332,-0.807048 0.692508,-1.094316 2.589256,-1.094316 l 1.533761,0 0.823719,-0.605114 0.823612,-0.605065 -0.456147,-0.09031 c -0.823132,-0.162838 -1.521184,-0.130044 -2.585207,0.121574 -0.94571,0.2236 -1.089392,0.226702 -1.466609,0.03201 -0.229966,-0.118964 -0.508802,-0.390229 -0.619548,-0.6028 -0.276598,-0.53081 -0.803627,-0.500478 -1.4762032,0.08479 -0.3667182,0.319176 -0.6038261,0.698671 -0.7341303,1.175169 L 8.4177694,61.280819 8.2817622,60.797525 c -0.3637337,-1.291622 0.6361759,-2.761937 2.0017388,-2.943289 0.406158,-0.05417 0.842639,-0.178841 0.96996,-0.277469 0.458972,-0.355564 0.900622,-0.373636 1.669661,-0.06864 0.417935,0.165792 0.99101,0.521553 1.273471,0.790651 0.452576,0.430754 0.607343,0.489006 1.298305,0.489006 0.47091,0 0.926151,-0.09154 1.138956,-0.229116 0.195004,-0.125956 2.27386,-1.767825 4.619828,-3.648459 2.345861,-1.880635 4.42493,-3.486459 4.619988,-3.568444 0.550585,-0.231479 0.432111,-0.334736 -0.610169,-0.532042 -0.530705,-0.10045 -1.051498,-0.223748 -1.157288,-0.27412 -0.119646,-0.05717 0.255174,-0.385798 0.990424,-0.869486 4.651698,-3.059785 7.574258,-7.722202 7.876118,-12.565182 0.05276,-0.842206 0.0542,-1.531274 0,-1.531274 -0.05063,0 -1.080758,1.775309 -2.288783,3.945083 -1.995823,3.584693 -2.211079,3.913225 -2.356946,3.596659 -0.08836,-0.191594 -0.34828,-0.721715 -0.577712,-1.177927 l -0.417136,-0.829452 -0.421932,0.687 c -3.557723,5.793417 -6.280588,8.787227 -10.383994,11.417545 -1.345098,0.862197 -3.838585,2.017227 -5.43907,2.519527 -1.2193232,0.382597 -1.2214555,0.407808 0.09321,-1.071075 4.922914,-5.53781 8.949416,-11.230628 11.535422,-16.309666 0.896785,-1.761473 1.642907,-3.480255 1.306726,-3.010355 -0.104614,0.146244 -0.791689,1.118198 -1.526939,2.159877 -3.024352,4.285087 -6.378544,7.722503 -12.277493,12.582176 -1.2321668,1.015088 -1.766657,1.224901 -1.8604018,0.730381 -0.054204,-0.287859 -0.022918,-0.319767 1.7348408,-1.773242 5.248383,-4.339054 8.719555,-7.932316 11.701592,-12.113359 1.178821,-1.652652 3.642729,-5.774114 3.235932,-5.412788 -0.08815,0.07834 -0.834378,1.168029 -1.658203,2.42149 -1.935919,2.945702 -2.95331,4.242888 -4.511266,5.752497 l -1.266755,1.227265 -0.008,-1.482133 -0.008,-1.482133 -0.638627,0.912325 c -1.954575,2.792121 -3.893319,4.595104 -6.308409,5.866735 -1.5226222,0.80173 -4.2093025,1.341158 -5.7440224,1.153306 l -0.7336509,-0.08976 1.1246197,-1.157196 c 2.9243721,-3.008976 6.9416006,-7.723784 11.5451736,-13.549699 1.853527,-2.345709 1.893817,-2.413217 0.975288,-1.633054 -2.838142,2.410411 -6.631853,4.77946 -10.5373226,6.580227 -2.2419374,1.033701 -2.8832291,1.273502 -3.0876661,1.154537 -0.1418698,-0.08263 -0.2579989,-0.239357 -0.2579989,-0.348326 0,-0.114139 1.1778076,-0.744267 2.778825,-1.486811 3.4536936,-1.601491 6.2533036,-3.269851 9.1856166,-5.473846 0.375939,-0.282639 0.366292,-0.282295 -0.376899,0.01428 -0.41964,0.167417 -1.171944,0.349015 -1.67174,0.403376 l -0.908883,0.09883 0.08128,-0.43814 c 0.04423,-0.240933 0.127534,-0.822657 0.184079,-1.292705 l 0.102965,-0.854713 -0.596472,0.5088 c -1.062211,0.905923 -1.860562,1.227265 -3.5140745,1.414378 -0.9420864,0.106704 -3.8549469,-0.07992 -4.2267293,-0.270723 -0.1227372,-0.06327 0.1391524,-0.225816 0.694747,-0.431739 1.3546906,-0.502202 3.9548203,-1.796729 5.6701548,-2.823045 1.426958,-0.853777 5.095907,-3.357104 5.243746,-3.577897 0.03624,-0.05343 -0.675987,0.07396 -1.581992,0.282639 -0.906059,0.209123 -2.362116,0.45109 -3.235825,0.537901 -1.741449,0.172882 -5.1097115,0.210699 -5.892873,0.06633 -0.5200468,-0.09602 -0.7683991,-0.401702 -0.5157833,-0.634805 0.082389,-0.07627 1.5580632,-0.158259 3.3011108,-0.18411 3.4679755,-0.0519 5.1099775,-0.262303 7.3635865,-0.945266 l 1.346377,-0.408005 -1.929792,0.07903 C 13.415462,21.501766 11.656267,21.31135 9.8767123,20.820178 L 9.0454786,20.590768 9.7609559,19.92046 c 0.3935271,-0.368663 0.7155311,-0.707337 0.7155311,-0.752737 0,-0.04579 -0.443835,-0.115321 -0.9863733,-0.155402 C 7.7080543,18.880308 6.2582321,18.011906 5.1473103,16.411104 4.5541435,15.556489 3.9500501,14.47985 4.0249824,14.410766 c 0.029307,-0.02757 0.6616504,0.138611 1.4045212,0.368958 1.72205,0.533912 4.1411387,0.806753 7.9802024,0.900014 1.655699,0.04038 2.940947,0.05111 2.856049,0.02363 -0.0849,-0.02757 -1.092269,-0.318191 -2.238473,-0.64682 C 10.163169,13.948887 7.3015776,12.662583 4.7643891,10.893231 3.6236226,10.097606 3.427552,9.8585448 3.6828853,9.5747238 c 0.2301259,-0.255853 0.5091224,-0.152891 1.5447392,0.5702022 1.8690366,1.304967 4.0910948,2.429664 6.4869995,3.283442 1.508392,0.537457 4.951426,1.52118 5.039628,1.439835 0.03198,-0.02954 -1.14114,-0.784398 -2.607697,-1.67678 l -2.666534,-1.622467 0.922794,-0.07169 0.922793,-0.07169 -2.080668,-1.374247 C 8.009754,7.9146938 6.7015894,6.7816248 5.9358009,5.4527278 5.1612731,4.1087138 4.8752958,4.0699128 12.280824,6.3136448 c 3.709399,1.12391 6.771911,2.018114 6.805592,1.987093 0.03357,-0.03102 -0.07883,-0.525838 -0.249044,-1.099733 -0.170489,-0.573847 -0.295198,-1.057042 -0.277078,-1.073833 0.01812,-0.01674 0.401893,0.367284 0.852711,0.853384 1.017657,1.097418 1.792772,1.686234 3.954233,3.00351 0.933985,0.5692672 1.948872,1.2928532 2.255315,1.6080412 1.134639,1.167241 1.334385,2.555916 0.577711,4.016334 -0.443996,0.856978 -2.197649,2.465264 -3.759282,3.447657 -1.453606,0.914491 -1.880441,1.494099 -1.711658,2.324339 0.220586,1.084862 2.256487,2.540159 3.832243,2.739435 0.608943,0.07706 0.743138,0.03988 1.211862,-0.340349 1.054325,-0.854171 2.433744,-0.840827 3.871948,0.03742 0.38809,0.236944 0.676786,0.335572 0.710362,0.242606 0.134248,-0.371567 0.775007,-1.102736 1.32314,-1.509756 0.526922,-0.391313 0.724698,-0.445576 1.785684,-0.49004 0.656161,-0.02757 1.448915,0.01526 1.761647,0.09489 l 0.568652,0.144816 0,-0.606837 c 0,-0.54184 0.220159,-1.40586 0.538221,-2.112261 0.09982,-0.221532 0.008,-0.249205 -0.835445,-0.249205 -1.428664,0 -2.506223,-0.512493 -3.029948,-1.440968 l -0.210193,-0.3727 0.958234,0.365461 c 1.344458,0.512887 2.61212,0.514857 3.446231,0.0074 0.779164,-0.475759 1.636137,-1.628672 2.145578,-2.886416 l 0.397523,-0.981803 -0.702154,0.08888 c -0.991007,0.125267 -1.751785,0.523621 -2.602258,1.362528 -0.785667,0.775043 -0.877706,0.831472 -0.877706,0.537901 0,-1.165173 1.360234,-2.890011 2.924106,-3.707843 l 0.858197,-0.448826 -0.977416,-0.04284 c -1.278161,-0.05564 -2.075606,0.296525 -3.151354,1.392467 -1.089232,1.109679 -1.817394,1.492473 -2.810162,1.477209 -0.429074,-0.0074 -1.023253,-0.106852 -1.320423,-0.222714 -0.533691,-0.208139 -1.605921,-0.956296 -1.504503,-1.049853 0.02878,-0.02659 0.390116,0.04579 0.802934,0.16013 0.937344,0.260333 1.950205,0.266734 2.597678,0.01674 0.27324,-0.105571 0.897532,-0.613484 1.387255,-1.128735 1.1316,-1.190433 1.792078,-1.451702 3.425232,-1.354994 0.634684,0.03742 1.123071,0.02216 1.085393,-0.03348 -0.03784,-0.05643 -0.578722,-0.334883 -1.202427,-0.619246 -1.232114,-0.5616842 -2.006322,-0.6495782 -2.720254,-0.308983 -0.345561,0.164906 -0.532252,0.174607 -0.899504,0.04678 -0.873976,-0.3043552 -1.655645,0.209714 -1.885451,1.23992 -0.0948,0.425337 -0.09609,0.4245 -0.513491,-0.348425 -0.783322,-1.4503732 -0.425184,-2.6054022 1.011741,-3.2632032 0.551011,-0.252209 0.985787,-0.33508 1.736546,-0.331141 0.747348,0.0074 1.001509,-0.04432 1.001509,-0.189575 0,-0.304946 0.633457,-0.63845 1.212555,-0.63845 0.289496,0 0.752411,-0.128862 1.028583,-0.286382 0.276171,-0.15747 0.879465,-0.356204 1.340619,-0.441685 0.741112,-0.137282 1.013873,-0.112366 2.347246,0.215131 2.460391,0.604227 3.273771,0.466256 4.433884,-0.7519 l 0.626743,-0.658096 -0.102811,0.919759 c -0.132489,1.185461 -0.390861,1.738232 -0.999217,2.137965 l -0.490788,0.322425 0.30868,0.304158 c 0.405518,0.399486 0.57281,0.837183 0.707858,1.8518782 0.09343,0.702314 0.20806,0.932562 0.718621,1.443627 0.49452,0.494963 0.561405,0.624317 0.359951,0.695716 -0.426036,0.150823 -1.14599,0.09607 -1.602777,-0.121919 l -0.438986,-0.209419 0.225862,0.672376 c 0.188556,0.561635 0.195538,0.87372 0.04211,1.894078 -0.204811,1.361937 -0.07227,2.28337 0.47043,3.264286 0.406796,0.735897 0.39635,0.761994 -0.192446,0.482063 -0.852977,-0.405346 -1.464212,-0.900359 -1.665612,-1.349135 -0.230604,-0.513576 -0.34684,-0.422432 -0.609262,0.477828 -0.117407,0.402835 -0.445168,0.937387 -0.807463,1.317227 l -0.609849,0.639188 0.19671,1.282365 0.19671,1.282316 0.626637,0 c 0.842584,0.0074 1.757276,0.409482 2.36462,1.047784 0.275319,0.289238 0.501501,0.571729 0.502832,0.627765 0,0.05569 0.064,0.191446 0.138886,0.300858 0.110852,0.161557 0.292427,0.11015 0.962551,-0.272053 0.838748,-0.47832 1.908847,-0.68769 2.64447,-0.517367 0.202785,0.04727 0.633031,0.279143 0.955889,0.515939 0.672735,0.493339 1.072337,0.523769 2.191041,0.167073 1.535199,-0.489547 2.985767,-1.846511 2.984541,-2.791925 0,-0.705269 -0.489828,-1.248832 -1.957718,-2.176421 -3.256769,-2.058195 -4.668485,-4.360031 -3.793284,-6.185517 0.459185,-0.957921 1.131761,-1.57367 2.864096,-2.622243 2.142969,-1.2972352 3.450868,-2.2897222 4.270322,-3.2406022 0.37839,-0.439174 0.706793,-0.781197 0.729709,-0.760073 0.02292,0.02117 -0.101425,0.504713 -0.27628,1.074571 -0.174699,0.569956 -0.281715,1.069548 -0.237587,1.11027 0.04423,0.04038 3.019665,-0.830044 6.612402,-1.935094 3.592739,-1.104903 6.626576,-2.008955 6.741958,-2.008955 0.285605,0 0.117568,0.580986 -0.409301,1.414772 -0.612193,0.968901 -2.215981,2.342066 -4.505617,3.85778 -3.037889,2.0111222 -2.868519,1.8391752 -1.817393,1.8447882 0.488177,0 0.886553,0.05259 0.885167,0.111529 0,0.05874 -1.184309,0.804833 -2.628801,1.657872 -1.444492,0.853039 -2.595226,1.579629 -2.55728,1.614638 0.03784,0.03496 0.682489,-0.105275 1.432341,-0.311789 4.20264,-1.157147 7.641514,-2.654643 10.043974,-4.373671 1.00087,-0.7162002 1.525766,-0.8554522 1.694497,-0.4496622 0.118793,0.2856922 -0.410421,0.7254572 -2.213212,1.8389282 -2.515655,1.553728 -5.163057,2.654938 -8.933798,3.716017 l -1.698173,0.477828 3.087612,-0.08267 c 4.541699,-0.121575 6.836396,-0.413127 8.551304,-1.086438 0.372901,-0.146342 0.707484,-0.239013 0.743457,-0.205726 0.113518,0.104783 -0.821853,1.697362 -1.442946,2.456647 -1.134318,1.386804 -2.338559,2.032935 -4.021436,2.157562 -0.535876,0.03988 -0.97433,0.114139 -0.97433,0.165398 0,0.05111 0.312306,0.376147 0.694107,0.721814 0.381695,0.345667 0.642198,0.673115 0.578884,0.727574 -0.06321,0.0549 -0.740365,0.249649 -1.504555,0.433857 -1.193849,0.287612 -1.751468,0.334243 -3.961642,0.331584 -2.818103,0 -2.850772,0.03988 -0.476239,0.627764 1.946846,0.482211 4.327615,0.722848 7.182969,0.725901 2.259898,0 2.603114,0.03299 2.688172,0.236993 0.2095,0.503975 -0.348226,0.620576 -2.954109,0.617621 -2.678418,0 -5.008185,-0.238569 -6.943145,-0.702019 -0.672097,-0.160917 -1.250501,-0.26634 -1.285409,-0.234137 -0.09295,0.08578 2.5746,1.966361 4.359964,3.073579 2.010106,1.246715 4.000385,2.285586 5.85695,3.057034 0.822067,0.34158 1.438364,0.652729 1.369614,0.691432 -0.06896,0.0389 -0.89039,0.14457 -1.82576,0.235418 -2.755801,0.267523 -4.480089,-0.114878 -5.881253,-1.304129 l -0.721341,-0.612254 0.107331,0.854615 c 0.05911,0.469998 0.146133,1.062999 0.193512,1.317571 0.06651,0.358667 0.03198,0.462908 -0.154927,0.462908 -0.512052,0 -1.905488,-0.332519 -2.494872,-0.595315 l -0.617523,-0.275401 0.385958,0.298101 c 1.077827,0.832604 3.936008,2.759672 5.094523,3.435003 0.721766,0.420709 2.562715,1.342881 4.091091,2.04943 1.603204,0.741067 2.778826,1.36829 2.778826,1.482576 0,0.504812 -0.47011,0.47187 -1.933255,-0.135361 -3.987329,-1.65472 -9.062399,-4.712001 -11.765119,-7.087353 -0.316835,-0.278503 -0.604199,-0.478468 -0.638521,-0.444393 -0.09721,0.09656 5.304449,6.815546 8.046821,10.009222 1.356609,1.579924 3.246268,3.694795 4.199174,4.69974 0.952957,1.004847 1.69327,1.86345 1.644985,1.907914 -0.394218,0.363787 -3.432375,0.04825 -5.081462,-0.528102 -2.479205,-0.866236 -5.124633,-3.082148 -7.300326,-6.115005 l -0.75774,-1.056254 -0.07717,1.398917 -0.07717,1.399015 -1.235048,-1.209193 c -1.528063,-1.496102 -2.557659,-2.814659 -4.485159,-5.743669 -0.82489,-1.25351 -1.570107,-2.343148 -1.656071,-2.421588 -0.08596,-0.07829 0.327494,0.722946 0.918743,1.780578 2.904974,5.196378 7.066257,9.917833 13.52826,15.349284 2.249772,1.891172 2.596823,2.337486 1.881826,2.420505 -0.333943,0.0389 -1.365776,-0.770414 -4.904633,-3.845963 -2.236448,-1.94381 -4.569997,-4.298333 -6.387927,-6.445604 -1.139326,-1.345639 -3.368793,-4.364463 -3.823127,-5.176731 -0.518395,-0.9268 -0.388516,-0.338231 0.201879,0.914787 2.850932,6.050598 6.566781,11.488893 12.352798,18.078919 0.550264,0.62673 1.06349,1.217712 1.140394,1.313189 0.238653,0.296476 -2.400541,-0.605705 -4.026288,-1.376217 -1.698281,-0.804882 -4.022877,-2.332315 -5.60695,-3.684306 -2.097188,-1.789885 -4.708562,-5.001386 -6.55031,-8.055762 -0.502566,-0.833441 -0.957488,-1.515321 -1.010996,-1.515321 -0.05335,0 -0.338526,0.495259 -0.633351,1.10057 l -0.535929,1.100619 -2.148672,-3.875359 c -1.181751,-2.131415 -2.211292,-3.87659 -2.287876,-3.878215 -0.249365,-0.0074 0.04264,2.882035 0.436588,4.314435 1.060826,3.858371 4.087629,7.674888 7.930372,9.999572 0.772556,0.467339 0.708442,0.54115 -0.693521,0.798234 -0.535183,0.09819 -0.973049,0.217002 -0.973049,0.264125 0,0.04727 0.205183,0.197453 0.455987,0.334145 0.250803,0.13674 2.454422,1.84912 4.896852,3.805486 l 4.440812,3.556873 0.868486,0 c 0.6948,0 0.927324,-0.06101 1.162619,-0.306422 0.161749,-0.16855 0.60292,-0.489055 0.980457,-0.712261 0.777566,-0.459757 1.843988,-0.55415 2.169671,-0.192136 0.105681,0.117537 0.359524,0.213703 0.564174,0.213703 0.561351,0 1.350747,0.348178 1.797781,0.793015 0.505978,0.503531 0.795151,1.559785 0.606065,2.213548 l -0.139738,0.483294 -0.118527,-0.498558 c -0.16873,-0.70911 -0.660105,-1.39675 -1.173224,-1.641524 -0.635643,-0.30332 -0.905738,-0.260924 -1.083316,0.169879 -0.32275,0.783216 -0.902808,0.916953 -2.307489,0.53214 -0.59727,-0.163675 -1.102342,-0.200457 -1.80343,-0.131127 -0.535503,0.05264 -0.971078,0.139202 -0.967721,0.191693 0,0.05259 0.33325,0.319815 0.733331,0.593985 0.707324,0.484919 0.774529,0.500577 2.451651,0.569809 1.555931,0.06406 1.763354,0.105029 2.122771,0.416573 0.21904,0.189969 0.398749,0.478419 0.399282,0.64101 0,0.176822 0.181361,0.390328 0.449912,0.531254 0.24686,0.129649 0.565346,0.399634 0.70759,0.599993 0.302232,0.425534 0.464781,1.345441 0.327281,1.851238 -0.118208,0.434644 -0.729121,1.119576 -1.38006,1.547228 l -0.487483,0.32021 0.323869,-0.425387 c 0.543444,-0.713837 0.737596,-1.452786 0.540885,-2.05854 -0.09433,-0.290616 -0.302924,-0.638056 -0.463608,-0.772235 -0.277184,-0.23143 -0.321684,-0.225275 -0.87552,0.121525 -0.803627,0.503186 -1.258122,0.341727 -2.100974,-0.746188 -0.266366,-0.343746 -3.221382,-2.356 -3.322641,-2.262591 -0.149492,0.137971 0.462968,2.312619 0.84024,2.983469 0.411913,0.73245 0.476772,1.223868 0.226288,1.715483 -0.08655,0.169879 -0.275159,0.61442 -0.419054,0.987859 -0.384466,0.997706 -1.764366,1.808054 -2.611907,1.533736 -0.255653,-0.08277 -0.233057,-0.117979 0.174965,-0.273973 0.540459,-0.206514 1.199925,-0.812662 1.334387,-1.226575 0.07306,-0.223601 -0.03091,-0.346258 -0.484394,-0.56976 -0.670817,-0.331239 -0.809328,-0.80567 -0.431844,-1.479178 0.182107,-0.324888 0.240784,-0.883027 0.240784,-2.288492 0,-2.120435 0.008,-2.112507 -1.21746,-1.497792 -0.555009,0.2787 -0.797285,0.51855 -1.062318,1.051527 -0.522657,1.051329 -1.354743,1.416495 -2.537294,1.113717 -0.386225,-0.09892 -0.425076,-0.06938 -0.51962,0.39604 -0.07802,0.385748 -0.0096,0.67533 0.294238,1.242332 0.218134,0.406627 0.372422,0.761551 0.342843,0.78878 -0.129398,0.119457 -1.232753,-0.933399 -1.426318,-1.361001 -0.262956,-0.580642 -0.125775,-2.928173 0.199001,-3.407724 0.289336,-0.42716 1.055816,-0.52889 1.99028,-0.264125 1.072071,0.303813 1.2618,0.28259 1.946152,-0.217494 1.084277,-0.792326 1.121636,-0.752589 -3.960468,-4.215511 -2.508835,-1.709574 -4.622866,-3.108245 -4.697905,-3.108245 -0.07472,0 -0.557939,0.53864 -1.073295,1.19713 -0.515305,0.658392 -0.93697,1.105396 -0.93697,0.993276 0,-0.636382 -0.354835,-2.719985 -0.567053,-3.329974 -0.787905,-2.264462 -2.48965,-4.31601 -4.873989,-5.875893 l -0.707804,-0.463056 -0.109629,1.07984 c -0.0599,0.593887 -0.06731,1.365039 -0.01545,1.713759 0.205664,1.384292 1.485263,3.153053 2.620381,3.621968 l 0.609049,0.251618 -0.477038,0.227589 c -0.546375,0.260678 -1.753707,0.300858 -2.213851,0.07396 -0.171502,-0.08464 -0.340605,-0.127434 -0.375726,-0.09503 -0.03518,0.03299 0.300794,0.728067 0.746495,1.545702 2.069316,3.795934 4.706857,5.5676 6.178531,4.149972 0.222664,-0.214442 0.513598,-0.630325 0.64662,-0.924093 0.133024,-0.293767 0.279051,-0.534158 0.324457,-0.534158 0.197882,0 0.678332,1.261191 0.678332,1.780578 0,1.171722 -0.994421,2.430107 -2.436675,3.083329 -0.958607,0.43425 -2.884561,0.461086 -3.8089,0.05338 -0.339645,-0.149887 -0.687019,-0.301941 -0.771916,-0.337936 -0.333997,-0.141467 2.330672,2.077399 3.116285,2.594914 0.90542,0.596497 2.625497,1.222883 3.367729,1.226379 0.25464,0 0.73008,-0.06638 1.056509,-0.149789 0.326374,-0.08366 0.631538,-0.116847 0.678118,-0.07396 0.150451,0.138759 -0.329573,0.550999 -0.931854,0.800155 l -0.586611,0.242656 1.04974,0.06943 c 1.72173,0.113991 2.623846,0.68247 3.290932,2.073804 0.728535,1.519803 2.304664,2.906016 3.832774,3.371091 0.395339,0.120343 1.204297,0.26767 1.797677,0.327497 l 1.078999,0.108723 -2.005259,0.463203 c -1.761432,0.406922 -2.11227,0.446905 -2.885732,0.329073 -0.484339,-0.07401 -1.018137,-0.202132 -1.186281,-0.285151 -0.16825,-0.08307 -0.330958,-0.15102 -0.361656,-0.15102 -0.03037,0 -0.02718,0.607084 0.008,1.349135 0.0849,1.791805 -0.06486,2.124276 -0.446449,0.992389 -0.479809,-1.422158 -1.221668,-1.953806 -3.549834,-2.543803 -1.697269,-0.430065 -2.823273,-1.579235 -3.849937,-3.929328 -0.464462,-1.063048 -0.571263,-1.194027 -1.347178,-1.652011 -1.128562,-0.666074 -2.207721,-1.615378 -2.917869,-2.566799 -0.554209,-0.742445 -0.591142,-0.765686 -0.721501,-0.453749 -0.218507,0.522784 0.01333,2.56601 0.427955,3.77811 0.397576,1.160987 1.28722,2.654201 2.229786,3.742263 0.30463,0.351576 1.192942,1.361445 1.974026,2.244028 1.816913,2.052927 2.039418,2.607619 1.754452,4.374754 -0.107979,0.66957 -0.241317,1.217368 -0.296316,1.217368 -0.055,0 -0.265461,-0.287612 -0.467499,-0.63904 -0.416923,-0.725113 -1.340782,-1.545456 -2.846616,-2.527603 -0.568172,-0.370632 -1.258442,-0.969492 -1.533707,-1.33067 l -0.500648,-0.656865 -0.09353,1.330768 c -0.1092,1.553285 -0.4586,2.491953 -1.409319,3.785495 -0.360856,0.490926 -0.691865,0.892628 -0.735727,0.892628 -0.0437,0 -0.374767,-0.401702 -0.735624,-0.892628 z"
     id="path5526-6-7"
     inkscape:connector-curvature="0" />
  <g
     transform="matrix(-0.26468628,0,0,0.31468217,160.75201,-190.01899)"
     id="layer1-6-2"
     inkscape:label="Laag 1">
    <g
       inkscape:label="Laag 1"
       id="layer1-82-1-3-0"
       transform="matrix(-0.13536704,0.01802271,0.0253258,0.10942933,509.88176,576.02665)">
      <path
         style="fill:#ffffff;stroke:none"
         d="m 380.51421,417.93662 c -6.84667,16.74306 -2.105,37.69165 7.79587,44.77332 25.82609,-21.22281 57.21711,-22.11967 86.83813,-29.49003 -28.54724,-16.8104 -61.97043,-26.41672 -94.63472,-15.28354 z"
         id="path4875-2-6-9-5-6-0"
         inkscape:connector-curvature="0"
         sodipodi:nodetypes="cccc" />
      <path
         sodipodi:type="arc"
         style="fill:#000000;fill-opacity:1;fill-rule:evenodd;stroke:none"
         id="path4877-0-6-4-1-2-1"
         sodipodi:cx="5055.4663"
         sodipodi:cy="-4490.8501"
         sodipodi:rx="5.1454644"
         sodipodi:ry="8.7125654"
         d="m 5060.6118,-4490.8501 c 0,4.8118 -2.3037,8.7126 -5.1455,8.7126 -2.8418,0 -5.1455,-3.9008 -5.1455,-8.7126 0,-4.8118 2.3037,-8.7126 5.1455,-8.7126 2.8418,0 5.1455,3.9008 5.1455,8.7126 z"
         transform="matrix(2.796119,-0.96849589,0.47893421,2.1354911,-11592.069,14922.461)" />
      <path
         transform="matrix(2.0622957,-0.71432057,0.48597737,2.1668953,-7850.0234,13777.424)"
         sodipodi:type="arc"
         style="fill:#ffffff;fill-opacity:1;fill-rule:evenodd;stroke:none"
         id="path4879-9-18-7-7-8-4"
         sodipodi:cx="5053.0356"
         sodipodi:cy="-4492.4282"
         sodipodi:rx="2.1465743"
         sodipodi:ry="2.7779195"
         d="m 5055.1822,-4492.4282 c 0,1.5342 -0.961,2.7779 -2.1466,2.7779 -1.1855,0 -2.1465,-1.2437 -2.1465,-2.7779 0,-1.5342 0.961,-2.7779 2.1465,-2.7779 1.1856,0 2.1466,1.2437 2.1466,2.7779 z" />
      <path
         style="fill:#000000;stroke:none"
         d="m 398.58283,368.97879 c -26.93709,0.26852 -61.8208,44.38214 -16.64341,47.88406 50.12808,-9.69633 80.1633,8.0565 110.78087,25.0125 -27.91867,-19.92292 -49.53048,-47.37359 -103.39504,-36.33088 -20.82021,4.82683 -30.06782,-17.91175 9.26048,-36.56754 z"
         id="path4881-7-4-8-6-2-6"
         inkscape:connector-curvature="0"
         sodipodi:nodetypes="ccccc" />
      <path
         style="fill:#ffffff;fill-opacity:0.46226418;stroke:none"
         d="m 382.23839,480.14224 c 3.53665,-27.97127 29.22,-25.61184 53.48259,-25.1962 -22.13909,3.50724 -46.48334,4.51408 -53.48259,25.1962 z"
         id="path4883-3-9-3-0-3-0"
         inkscape:connector-curvature="0"
         sodipodi:nodetypes="ccc" />
    </g>
  </g>
</svg>
