<?xml version="1.0" encoding="UTF-8" standalone="no"?>
<!-- Created with Inkscape (http://www.inkscape.org/) -->
<svg
   xmlns:dc="http://purl.org/dc/elements/1.1/"
   xmlns:cc="http://web.resource.org/cc/"
   xmlns:rdf="http://www.w3.org/1999/02/22-rdf-syntax-ns#"
   xmlns:svg="http://www.w3.org/2000/svg"
   xmlns="http://www.w3.org/2000/svg"
   xmlns:sodipodi="http://sodipodi.sourceforge.net/DTD/sodipodi-0.dtd"
   xmlns:inkscape="http://www.inkscape.org/namespaces/inkscape"
   id="svg4079"
   sodipodi:version="0.32"
   inkscape:version="0.45.1"
   width="600"
   height="400"
   version="1.0"
   sodipodi:docbase="C:\TIIKERI\Liput\Alankomaat\provinssit\Noord-Holland - kunnat\svg"
   sodipodi:docname="Bussum.svg"
   inkscape:output_extension="org.inkscape.output.svg.inkscape">
  <metadata
     id="metadata4084">
    <rdf:RDF>
      <cc:Work
         rdf:about="">
        <dc:format>image/svg+xml</dc:format>
        <dc:type
           rdf:resource="http://purl.org/dc/dcmitype/StillImage" />
      </cc:Work>
    </rdf:RDF>
  </metadata>
  <defs
     id="defs4082" />
  <sodipodi:namedview
     inkscape:window-height="712"
     inkscape:window-width="1024"
     inkscape:pageshadow="2"
     inkscape:pageopacity="0.0"
     guidetolerance="10.0"
     gridtolerance="10.0"
     objecttolerance="10.0"
     borderopacity="1.0"
     bordercolor="#666666"
     pagecolor="#ffffff"
     id="base"
     showguides="true"
     inkscape:guide-bbox="true"
     inkscape:zoom="1.0534905"
     inkscape:cx="298.41354"
     inkscape:cy="215.58973"
     inkscape:window-x="-4"
     inkscape:window-y="-4"
     inkscape:current-layer="svg4079"
     width="600px"
     height="400px">
    <sodipodi:guide
       orientation="vertical"
       position="5.729443"
       id="guide4162" />
    <sodipodi:guide
       orientation="horizontal"
       position="157.08223"
       id="guide4164" />
    <sodipodi:guide
       orientation="horizontal"
       position="134.64191"
       id="guide4166" />
    <sodipodi:guide
       orientation="horizontal"
       position="112.67905"
       id="guide4172" />
    <sodipodi:guide
       orientation="horizontal"
       position="66.366048"
       id="guide4174" />
    <sodipodi:guide
       orientation="vertical"
       position="116.02122"
       id="guide4176" />
    <sodipodi:guide
       orientation="vertical"
       position="156.12732"
       id="guide4178" />
    <sodipodi:guide
       orientation="horizontal"
       position="22.440318"
       id="guide4186" />
  </sodipodi:namedview>
  <g
     id="g4248"
     inkscape:export-filename="C:\TIIKERI\Liput\Alankomaat\provinssit\Noord-Holland - kunnat\svg\Bussum.png"
     inkscape:export-xdpi="266.67001"
     inkscape:export-ydpi="266.67001"
     transform="scale(2.2222222,2.2222222)">
    <rect
       y="0"
       x="0"
       height="180"
       width="270"
       id="rect4168"
       style="opacity:1;fill:#0039a6;fill-opacity:1;stroke:none;stroke-opacity:1" />
    <rect
       y="5.7220459e-006"
       x="0"
       height="22.5"
       width="5"
       id="rect4170"
       style="opacity:1;fill:#fccc00;fill-opacity:1;stroke:none;stroke-opacity:1" />
    <rect
       y="45.010391"
       x="0"
       height="22.5"
       width="5"
       id="rect4180"
       style="opacity:1;fill:#fccc00;fill-opacity:1;stroke:none;stroke-opacity:1" />
    <rect
       y="90.020775"
       x="0"
       height="22.5"
       width="5"
       id="rect4182"
       style="opacity:1;fill:#fccc00;fill-opacity:1;stroke:none;stroke-opacity:1" />
    <rect
       y="135.03116"
       x="0"
       height="22.5"
       width="5"
       id="rect4184"
       style="opacity:1;fill:#fccc00;fill-opacity:1;stroke:none;stroke-opacity:1" />
    <g
       transform="translate(-0.5,1.8956862e-6)"
       id="g4224">
      <path
         style="fill:#fccc00;fill-opacity:1"
         d="M 99.40228,154.02643 C 106.81547,146.61324 112.01021,131.75153 111.32074,119.92871 L 111,114.42871 L 102.5,114.47463 C 92.00224,114.53134 84.21345,116.86963 76.15455,122.38386 C 69.46625,126.96026 66.92604,130.50848 67.81331,134.03507 C 69.48579,140.68259 87.70685,157.92871 93.05768,157.92871 C 94.56353,157.92871 96.99628,156.43243 99.40228,154.02643 z "
         id="path4134" />
      <path
         style="fill:#0039a6;fill-opacity:1"
         d="M 90.09091,147.8378 C 86.65365,140.96713 86.19172,139.00211 88.32356,140.31967 C 89.49075,141.04103 94.76693,153.99511 94.14632,154.61572 C 93.9027,154.85935 92.07776,151.80928 90.09091,147.8378 z "
         id="path4132" />
      <path
         style="fill:#0039a6;fill-opacity:1"
         d="M 77.59091,135.3378 C 73.61943,133.35095 70.56936,131.52601 70.81299,131.28239 C 71.4336,130.66178 84.38768,135.93796 85.10904,137.10515 C 86.42659,139.23699 84.46158,138.77506 77.59091,135.3378 z "
         id="path4130" />
      <path
         style="fill:#0039a6;fill-opacity:1"
         d="M 88.35174,136.2544 C 89.35079,134.43614 97.38923,126.54653 105,119.91438 L 109,116.42871 L 105.51433,120.42871 C 94.89517,132.6148 85.68537,141.10719 88.35174,136.2544 z "
         id="path4128" />
      <path
         style="fill:#fccc00;fill-opacity:1"
         d="M 183.63395,155.34415 C 192.6677,149.6414 203.5,136.91764 203.5,132.00924 C 203.5,128.88367 196.50399,122.50788 189.34772,119.1116 C 181.75064,115.50613 173.00183,113.67049 165.5,114.10797 L 160,114.42871 L 159.67926,119.92871 C 158.98979,131.75153 164.18453,146.61324 171.59772,154.02643 C 176.18518,158.61389 178.11898,158.8256 183.63395,155.34415 z "
         id="path4126" />
      <path
         style="fill:#0039a6;fill-opacity:1"
         d="M 177.06993,152.92871 C 178.43751,148.05112 182.40517,139.92871 183.42022,139.92871 C 184.60278,139.92871 183.66914,142.79019 180.57638,148.64465 C 177.56536,154.34439 176.20805,156.0027 177.06993,152.92871 z "
         id="path4124" />
      <path
         style="fill:#0039a6;fill-opacity:1"
         d="M 185.74524,137.68665 C 186.16874,136.40971 199.35501,130.45038 200.10266,131.19804 C 200.57526,131.67063 192.27973,136.30156 188.14357,137.87413 C 185.95766,138.70521 185.42134,138.66328 185.74524,137.68665 z "
         id="path4122" />
      <path
         style="fill:#0039a6;fill-opacity:1"
         d="M 178.50198,134.31154 C 176.29991,132.32209 171.70869,127.48459 168.29929,123.56154 C 161.79484,116.07715 163.69631,117.43005 175.82256,128.91438 C 184.22433,136.87138 186.57382,141.60396 178.50198,134.31154 z "
         id="path4120" />
      <g
         id="g4208">
        <path
           id="path4106"
           d="M 110.95408,56.928712 C 110.89737,46.430957 108.55908,38.642161 103.04485,30.583258 C 98.46845,23.894958 94.92023,21.354748 91.39364,22.242021 C 84.74612,23.914505 67.5,42.135562 67.5,47.486395 C 67.5,52.84193 80.03952,61.618996 91.84788,64.528744 C 94.68154,65.227 100.15,65.715143 104,65.613506 L 111,65.428712 L 110.95408,56.928712 z "
           style="fill:#fccc00;fill-opacity:1" />
        <path
           id="path4104"
           d="M 98.73325,54.328902 C 89.53272,45.796044 85.25346,40.626136 89.17431,42.780456 C 91.43371,44.021892 109.52437,62.932632 108.44617,62.925945 C 108.20078,62.924423 103.82996,59.055754 98.73325,54.328902 z "
           style="fill:#0039a6;fill-opacity:1" />
        <path
           id="path4102"
           d="M 71.5,47.955538 C 73.53782,46.455452 80.01561,43.063376 83.03406,41.915761 C 87.92987,40.054378 85.51445,43.032414 80.25,45.348301 C 73.61378,48.267647 69.35019,49.538068 71.5,47.955538 z "
           style="fill:#0039a6;fill-opacity:1" />
        <path
           id="path4100"
           d="M 87.55458,37.285146 C 89.12715,33.148978 93.75807,24.853454 94.23067,25.326051 C 94.97833,26.073705 89.019,39.259969 87.74206,39.683471 C 86.76543,40.007376 86.7235,39.471056 87.55458,37.285146 z "
           style="fill:#0039a6;fill-opacity:1" />
      </g>
      <path
         style="fill:#fccc00;fill-opacity:1"
         d="M 177.70078,64.823628 C 189.75756,62.309342 203.5,53.074342 203.5,47.486395 C 203.5,42.135562 186.25388,23.914505 179.60636,22.242021 C 178.2302,21.895785 176.10481,22.284211 174.60636,23.1558 C 171.00225,25.252159 164.32809,35.311542 162.15098,41.928712 C 160.2448,47.722433 158.80196,61.667254 159.83116,64.349327 C 160.57026,66.27539 169.59098,66.514821 177.70078,64.823628 z "
         id="path4098" />
      <path
         style="fill:#0039a6;fill-opacity:1"
         d="M 165.48567,59.428712 C 176.10483,47.242625 185.31463,38.750227 182.64826,43.603018 C 181.64921,45.421277 173.61077,53.310888 166,59.943045 L 162,63.428712 L 165.48567,59.428712 z "
         id="path4096" />
      <path
         style="fill:#0039a6;fill-opacity:1"
         d="M 193.02934,46.36578 C 186.99255,43.859937 184.7299,42.365477 185.62205,41.473326 C 185.89085,41.204531 188.78585,42.291386 192.05539,43.88856 C 202.85854,49.165918 203.4599,50.695458 193.02934,46.36578 z "
         id="path4094" />
      <path
         style="fill:#0039a6;fill-opacity:1"
         d="M 180.08041,34.678712 C 177.16107,28.042488 175.89064,23.778899 177.47317,25.928712 C 178.97326,27.966528 182.36534,34.444319 183.51295,37.462776 C 185.37433,42.358584 182.3963,39.943159 180.08041,34.678712 z "
         id="path4092" />
      <g
         id="g4214"
         transform="matrix(0.7071068,0.7071068,-0.7071068,0.7071068,103.30356,-10.90573)">
        <path
           id="path4216"
           d="M 110.95408,56.928712 C 110.89737,46.430957 108.55908,38.642161 103.04485,30.583258 C 98.46845,23.894958 94.92023,21.354748 91.39364,22.242021 C 84.74612,23.914505 67.5,42.135562 67.5,47.486395 C 67.5,52.84193 80.03952,61.618996 91.84788,64.528744 C 94.68154,65.227 100.15,65.715143 104,65.613506 L 111,65.428712 L 110.95408,56.928712 z "
           style="fill:#fccc00;fill-opacity:1" />
        <path
           id="path4218"
           d="M 98.73325,54.328902 C 89.53272,45.796044 85.25346,40.626136 89.17431,42.780456 C 91.43371,44.021892 109.52437,62.932632 108.44617,62.925945 C 108.20078,62.924423 103.82996,59.055754 98.73325,54.328902 z "
           style="fill:#0039a6;fill-opacity:1" />
        <path
           id="path4220"
           d="M 71.5,47.955538 C 73.53782,46.455452 80.01561,43.063376 83.03406,41.915761 C 87.92987,40.054378 85.51445,43.032414 80.25,45.348301 C 73.61378,48.267647 69.35019,49.538068 71.5,47.955538 z "
           style="fill:#0039a6;fill-opacity:1" />
        <path
           id="path4222"
           d="M 87.55458,37.285146 C 89.12715,33.148978 93.75807,24.853454 94.23067,25.326051 C 94.97833,26.073705 89.019,39.259969 87.74206,39.683471 C 86.76543,40.007376 86.7235,39.471056 87.55458,37.285146 z "
           style="fill:#0039a6;fill-opacity:1" />
      </g>
    </g>
  </g>
</svg>
