<?xml version="1.0" encoding="UTF-8" standalone="no"?>
<!-- Created with Inkscape (http://www.inkscape.org/) -->

<svg
   xmlns:dc="http://purl.org/dc/elements/1.1/"
   xmlns:cc="http://creativecommons.org/ns#"
   xmlns:rdf="http://www.w3.org/1999/02/22-rdf-syntax-ns#"
   xmlns:svg="http://www.w3.org/2000/svg"
   xmlns="http://www.w3.org/2000/svg"
   xmlns:sodipodi="http://sodipodi.sourceforge.net/DTD/sodipodi-0.dtd"
   xmlns:inkscape="http://www.inkscape.org/namespaces/inkscape"
   width="323.24878"
   height="215.66757"
   id="svg4142"
   version="1.1"
   inkscape:version="0.48.4 r9939"
   sodipodi:docname="Nieuw document 18">
  <defs
     id="defs4144" />
  <sodipodi:namedview
     id="base"
     pagecolor="#ffffff"
     bordercolor="#666666"
     borderopacity="1.0"
     inkscape:pageopacity="0.0"
     inkscape:pageshadow="2"
     inkscape:zoom="0.98994949"
     inkscape:cx="446.35674"
     inkscape:cy="33.438281"
     inkscape:document-units="px"
     inkscape:current-layer="layer1"
     showgrid="false"
     fit-margin-top="0"
     fit-margin-left="0"
     fit-margin-right="0"
     fit-margin-bottom="0"
     inkscape:window-width="1600"
     inkscape:window-height="837"
     inkscape:window-x="-8"
     inkscape:window-y="-8"
     inkscape:window-maximized="1" />
  <metadata
     id="metadata4147">
    <rdf:RDF>
      <cc:Work
         rdf:about="">
        <dc:format>image/svg+xml</dc:format>
        <dc:type
           rdf:resource="http://purl.org/dc/dcmitype/StillImage" />
        <dc:title></dc:title>
      </cc:Work>
    </rdf:RDF>
  </metadata>
  <g
     inkscape:label="Laag 1"
     inkscape:groupmode="layer"
     id="layer1"
     transform="translate(-132.66132,-464.52838)">
    <rect
       style="fill:#078930;fill-opacity:1;fill-rule:evenodd;stroke:none"
       id="rect4075"
       width="107.75879"
       height="215.66757"
       x="132.66132"
       y="464.52838" />
    <rect
       style="fill:#1148b0;fill-opacity:1;fill-rule:evenodd;stroke:none"
       id="rect4077"
       width="216.20432"
       height="215.66757"
       x="239.7058"
       y="464.52838" />
    <path
       style="fill:#ffff00;fill-opacity:1;stroke:#000000;stroke-width:1px;stroke-linecap:round;stroke-linejoin:miter;stroke-opacity:1"
       d="m 208.08867,554.98987 c 13.39569,-26.1295 50.43517,-18.3075 63.03571,1.0714 z"
       id="path4049"
       inkscape:connector-curvature="0"
       sodipodi:nodetypes="ccc" />
    <path
       style="fill:#ffff00;fill-opacity:1;stroke:#000000;stroke-width:1px;stroke-linecap:round;stroke-linejoin:miter;stroke-opacity:1"
       d="m 278.80296,558.91847 c 13.1554,-12.1469 23.56444,-8.841 35,3.9286 -12.35193,5.77151 -23.62249,0.3689 -35,-3.9286 z"
       id="path4051"
       inkscape:connector-curvature="0"
       sodipodi:nodetypes="ccc" />
    <path
       style="fill:#ffff00;fill-opacity:1;stroke:#000000;stroke-width:1px;stroke-linecap:butt;stroke-linejoin:miter;stroke-opacity:1"
       d="m 200.79694,592.79018 17.42884,14.7096 c 9.11913,5.3327 11.3462,-5.5674 7.07107,-8.0812 l -18.56155,-8.0812 c 32.80045,6.6974 60.38587,4.8769 83.08504,-4.9245 11.22923,-2.2901 22.99116,-2.9914 35.22907,-2.2729 6.16723,8.5349 17.86852,16.0259 30.17831,13.0057 l -6.69226,-10.2278 c -2.65473,-5.289 -3.05252,-10.2395 1.01015,-14.5209 15.89885,-11.63741 11.90456,-14.25361 5.09039,-13.28711 -5.33648,0.757 -15.10786,5.2691 -22.76806,7.98381 -8.29445,4.1001 -16.74893,4.3595 -25.38008,0.3788 l -37.62818,-14.26841 c -18.19961,-5.2695 -71.28635,-6.7364 -100.50315,17.14301 -2.08192,-0.3116 -11.21269,2.3181 -14.46429,4.8214 3.21464,2.9805 8.19114,5.4819 13.30357,7.9464 -4.15149,0.2396 -9.94419,-0.6625 -10.53571,2.0536 l 9.19643,0.2678 c 11.55196,4.7275 23.2207,6.6524 34.94041,7.3539 z"
       id="path4053"
       inkscape:connector-curvature="0"
       sodipodi:nodetypes="cccccccccsccccccccc" />
    <path
       style="fill:#ffff00;fill-opacity:1;stroke:#000000;stroke-width:1px;stroke-linecap:round;stroke-linejoin:miter;stroke-opacity:1"
       d="m 273.15283,588.93828 c 4.6786,9.7959 15.45148,11.573 26.39023,13.1319 0.50913,-3.6197 0.41977,-7.2394 3.15673,-10.8591 -8.66722,-6.9619 -18.19417,-9.4101 -29.54696,-2.2728 z"
       id="path4055"
       inkscape:connector-curvature="0"
       sodipodi:nodetypes="cccc" />
    <path
       style="fill:#ffff00;fill-opacity:1;stroke:#000000;stroke-width:1px;stroke-linecap:round;stroke-linejoin:miter;stroke-opacity:1"
       d="m 185.32081,568.29348 c 4.25324,5.0964 5.15561,11.2509 4.91072,17.7678 l 17.23214,-5.8928 -8.75,-11.1607"
       id="path4057"
       inkscape:connector-curvature="0"
       sodipodi:nodetypes="cccc" />
    <path
       style="fill:#ffff00;fill-opacity:1;stroke:#000000;stroke-width:1px;stroke-linecap:round;stroke-linejoin:miter;stroke-opacity:1"
       d="m 205.67796,584.09708 c 6.49763,-2.2128 12.01542,-5.6504 17.58928,-9.0179 6.53413,-3.9429 15.29732,8.614 6.07143,12.9464 -7.09553,2.7132 -14.77873,-0.914 -18.21429,-0.9821"
       id="path4059"
       inkscape:connector-curvature="0"
       sodipodi:nodetypes="cccc" />
    <path
       transform="translate(5.5886732,-850.9437)"
       sodipodi:type="arc"
       style="fill:#ffffff;fill-opacity:1;fill-rule:evenodd;stroke:#101010;stroke-opacity:1"
       id="path4061"
       sodipodi:cx="172.16518"
       sodipodi:cy="1423.7461"
       sodipodi:rx="5.46875"
       sodipodi:ry="4.4642859"
       d="m 177.63393,1423.7461 c 0,2.4656 -2.44845,4.4643 -5.46875,4.4643 -3.02031,0 -5.46875,-1.9987 -5.46875,-4.4643 0,-2.4656 2.44844,-4.4643 5.46875,-4.4643 3.0203,0 5.46875,1.9987 5.46875,4.4643 z" />
    <path
       sodipodi:type="arc"
       style="fill:#000000;fill-opacity:1;fill-rule:evenodd;stroke:none"
       id="path4063"
       sodipodi:cx="171.4509"
       sodipodi:cy="1422.2729"
       sodipodi:rx="2.1651785"
       sodipodi:ry="2.5"
       d="m 173.61608,1422.2729 c 0,1.3808 -0.96939,2.5 -2.16518,2.5 -1.1958,0 -2.16518,-1.1192 -2.16518,-2.5 0,-1.3807 0.96938,-2.5 2.16518,-2.5 1.19579,0 2.16518,1.1193 2.16518,2.5 z"
       transform="matrix(1.556701,0,0,1.3035714,-89.902867,-1282.2141)" />
    <path
       transform="translate(5.5886732,-850.9437)"
       sodipodi:type="arc"
       style="fill:#ffffff;fill-opacity:1;fill-rule:evenodd;stroke:none"
       id="path4065"
       sodipodi:cx="170.58035"
       sodipodi:cy="1421.9381"
       sodipodi:rx="1.0714285"
       sodipodi:ry="1.1830357"
       d="m 171.65178,1421.9381 c 0,0.6534 -0.47969,1.183 -1.07143,1.183 -0.59173,0 -1.07143,-0.5296 -1.07143,-1.183 0,-0.6534 0.4797,-1.183 1.07143,-1.183 0.59174,0 1.07143,0.5296 1.07143,1.183 z" />
  </g>
</svg>
