<?xml version="1.0" encoding="UTF-8" standalone="no"?>
<!-- Created with Inkscape (http://www.inkscape.org/) -->

<svg
   xmlns:dc="http://purl.org/dc/elements/1.1/"
   xmlns:cc="http://creativecommons.org/ns#"
   xmlns:rdf="http://www.w3.org/1999/02/22-rdf-syntax-ns#"
   xmlns:svg="http://www.w3.org/2000/svg"
   xmlns="http://www.w3.org/2000/svg"
   xmlns:sodipodi="http://sodipodi.sourceforge.net/DTD/sodipodi-0.dtd"
   xmlns:inkscape="http://www.inkscape.org/namespaces/inkscape"
   width="549.28571"
   height="365.35715"
   id="svg4157"
   version="1.1"
   inkscape:version="0.48.4 r9939"
   sodipodi:docname="Geertruidenberg.svg">
  <defs
     id="defs4159" />
  <sodipodi:namedview
     id="base"
     pagecolor="#ffffff"
     bordercolor="#666666"
     borderopacity="1.0"
     inkscape:pageopacity="0.0"
     inkscape:pageshadow="2"
     inkscape:zoom="1.4"
     inkscape:cx="408.39948"
     inkscape:cy="267.22252"
     inkscape:document-units="px"
     inkscape:current-layer="layer1"
     showgrid="false"
     fit-margin-top="0"
     fit-margin-left="0"
     fit-margin-right="0"
     fit-margin-bottom="0"
     inkscape:window-width="1600"
     inkscape:window-height="837"
     inkscape:window-x="-8"
     inkscape:window-y="-8"
     inkscape:window-maximized="1" />
  <metadata
     id="metadata4162">
    <rdf:RDF>
      <cc:Work
         rdf:about="">
        <dc:format>image/svg+xml</dc:format>
        <dc:type
           rdf:resource="http://purl.org/dc/dcmitype/StillImage" />
        <dc:title></dc:title>
      </cc:Work>
    </rdf:RDF>
  </metadata>
  <g
     inkscape:label="Laag 1"
     inkscape:groupmode="layer"
     id="layer1"
     transform="translate(-33.928577,-238.25504)">
    <rect
       style="fill:#fcdd09;fill-opacity:1;fill-rule:evenodd;stroke:none"
       id="rect4112"
       width="549.28571"
       height="120.71428"
       x="33.928577"
       y="238.25504" />
    <rect
       style="fill:#000000;fill-opacity:1;fill-rule:evenodd;stroke:none"
       id="rect4114"
       width="549.28571"
       height="61.785721"
       x="33.928577"
       y="358.9693" />
    <rect
       style="fill:#ffffff;fill-opacity:1;fill-rule:evenodd;stroke:none"
       id="rect4116"
       width="549.28571"
       height="61.07143"
       x="33.928577"
       y="420.75504" />
    <rect
       style="fill:#078930;fill-opacity:1;fill-rule:evenodd;stroke:none"
       id="rect4118"
       width="549.28571"
       height="121.78571"
       x="33.928577"
       y="481.82648" />
    <path
       style="fill:#ffffff"
       d="m 267.25809,584.04832 c -3.3475,-2.49852 -4.1827,-6.90854 -2.3899,-12.61975 0.4576,-1.45795 0.4577,-1.46249 0.036,-2.49188 -0.3096,-0.75642 -0.4221,-1.55852 -0.4221,-3.00956 l 0,-1.9783 -1.1267,0.15486 c -1.2505,0.17191 -2.9587,-0.18494 -4.219,-0.8813 -1.0524,-0.58139 -1.0639,-0.5793 -2.1148,0.38617 -1.4237,1.30803 -2.5508,2.94321 -3.4044,4.93913 -0.4338,1.01399 -0.8605,1.84364 -0.9485,1.84364 -0.2777,0 -2.0647,-2.45246 -2.6002,-3.56833 -0.7058,-1.47092 -0.7185,-4.96819 -0.025,-6.81361 0.6264,-1.66618 1.6818,-3.53583 2.7987,-4.95772 0.6409,-0.81614 0.9339,-1.4089 0.9405,-1.90309 0.024,-1.81341 1.1699,-3.81 2.8434,-4.95396 1.5687,-1.07225 1.032,-1.31759 -1.2048,-0.55071 -2.1957,0.75279 -4.3466,2.26258 -5.8289,4.09128 -0.5753,0.7097 -1.1199,1.29036 -1.2105,1.29036 -0.091,0 -0.4479,-0.77388 -0.7941,-1.71969 -0.7289,-1.99234 -0.8349,-4.44653 -0.2556,-5.92205 l 0.3385,-0.86193 -2.0389,-2.23059 c -2.8951,-3.16743 -4.3392,-5.62354 -5.2998,-9.01328 -0.4143,-1.46177 -0.5009,-2.27199 -0.4829,-4.51698 0.027,-3.29243 0.4969,-5.44926 1.8986,-8.70315 l 0.961,-2.23065 -4.7978,-0.064 -4.7977,-0.0639 -0.1206,-0.99256 -0.1205,-0.99256 1.3104,-0.40298 c 5.2775,-1.62309 9.4733,-3.84054 10.203,-5.39206 0.4948,-1.05212 0.1017,-1.63114 -3.2679,-4.81091 -7.3938,-6.97741 -11.1936,-11.74227 -12.7671,-16.00896 -0.5782,-1.5682 -0.5933,-1.72713 -0.5573,-5.89363 0.062,-7.06908 -0.6816,-13.31808 -2.2658,-19.06505 -0.4271,-1.54977 -0.7985,-2.84175 -0.8251,-2.87102 -0.027,-0.0293 -0.5974,-0.12419 -1.2683,-0.21092 -1.193,-0.15418 -1.2499,-0.134 -2.5849,0.91676 -3.982,3.13398 -6.7574,7.92174 -8.7219,15.04515 -0.673,2.43998 -2.121,9.342 -2.587,12.33056 -0.1073,0.68483 -0.2241,0.87738 -0.4712,0.77313 -0.181,-0.0764 -0.6132,-0.13883 -0.9603,-0.13883 -0.5102,0 -0.6316,-0.10278 -0.6325,-0.53525 -0.011,-5.10294 -6.2508,-6.51842 -12.891,-2.92459 -2.9514,1.59733 -6.6072,4.76627 -7.37,6.3886 -1.1079,2.35589 1.1697,5.75426 4.0614,6.05979 1.7578,0.18571 2.8558,-0.30382 4.3157,-1.92414 2.093,-2.32299 2.8068,-4.25361 3.3598,-9.08645 l 0.1361,-1.18944 1.732,2.02204 c 3.6681,4.28269 5.4193,7.93108 6.5369,13.61906 0.1396,0.71026 0.3207,0.76072 2.3919,0.66624 1.6221,-0.0739 3.8137,-0.66597 6.7063,-1.81141 1.4278,-0.56542 3.979,-1.55836 5.6693,-2.20655 l 3.0732,-1.17852 -1.314,2.88246 c -2.2946,5.03322 -4.1546,7.56276 -7.0747,9.62143 -1.1507,0.81124 -3.5014,1.97205 -4.6057,2.27436 -0.5617,0.15375 -0.5333,0.20263 1.3028,2.24289 1.5763,1.75156 2.0593,2.48538 3.0156,4.58052 1.461,3.20062 2.0769,6.01395 2.5197,11.5099 0.1888,2.34153 0.3156,4.28752 0.2821,4.32445 -0.1086,0.11892 -3.3143,-4.2761 -5.5925,-7.66626 -2.6747,-3.98036 -4.8071,-6.36641 -6.628,-7.41663 -1.4664,-0.84574 -3.6829,-1.45747 -5.3046,-1.46399 l -1.0275,-0.004 0,1.14572 c 0,1.7374 0.4113,3.82883 1.0236,5.20564 0.509,1.14425 2.1935,3.18018 3.9111,4.7267 0.3938,0.35468 0.6371,0.72484 0.5408,0.82263 -0.097,0.0977 -1.6812,0.68634 -3.5217,1.30797 -5.0511,1.70596 -6.9073,1.70475 -10.4793,-0.007 -0.3742,-0.17929 -0.3991,-0.12159 -0.2667,0.61523 0.2635,1.46613 1.602,4.21872 2.5677,5.28058 0.5196,0.57146 1.741,1.56361 2.7141,2.20483 0.9729,0.64123 1.6984,1.2343 1.6122,1.31799 -0.086,0.0837 -1.0818,0.3802 -2.2123,0.6589 -4.7832,1.17946 -7.5555,1.22082 -10.4193,0.15534 -0.8608,-0.32022 -1.5945,-0.54978 -1.6306,-0.51012 -0.036,0.0398 0.071,0.57038 0.2375,1.17942 0.5327,1.94668 1.3437,3.15067 3.1661,4.70089 0.9536,0.81123 1.6915,1.52142 1.64,1.57821 -0.2466,0.27121 -4.9574,1.27568 -6.9622,1.48454 -3.5231,0.36708 -8.3936,-0.31581 -11.0907,-1.55499 -0.4056,-0.18634 -0.8097,-0.3388 -0.8983,-0.3388 -0.089,0 -0.2097,0.7503 -0.2692,1.66733 -0.1582,2.4303 -1.0921,4.38538 -3.2152,6.7304 -1.6616,1.8354 -1.6772,1.86419 -1.4247,2.61676 0.1475,0.4399 0.2552,2.0656 0.2552,3.85346 0,2.92752 -0.034,3.16729 -0.6247,4.49317 -0.8186,1.83529 -1.9402,3.03532 -3.7992,4.06476 -0.8329,0.46124 -1.5514,0.83863 -1.5965,0.83863 -0.045,0 -0.1386,-1.04373 -0.2076,-2.3194 -0.1419,-2.62694 -0.6739,-4.59387 -1.7495,-6.46976 l -0.7088,-1.23625 -2.9041,-0.0493 c -3.5027,-0.0594 -4.7531,-0.49918 -6.5483,-2.30333 l -1.158,-1.16369 -0.6275,0.72138 c -1.5346,1.76386 -3.6852,2.44326 -6.5992,2.08476 l -1.7844,-0.21952 -0.7473,0.77925 c -0.9591,0.99996 -2.4745,3.56577 -2.9193,4.94228 -0.19,0.58876 -0.4573,1.85056 -0.5939,2.80398 l -0.2482,1.7335 -0.6106,-0.42512 c -1.7919,-1.24775 -2.6642,-2.07883 -3.2527,-3.09915 -1.6768,-2.90684 -1.7083,-6.23467 -0.099,-10.61285 l 0.5221,-1.42178 -0.4254,-0.65707 c -1.2084,-1.86606 -1.5623,-3.78029 -0.9815,-5.30893 l 0.3025,-0.79581 -1.6545,-0.64217 c -0.9099,-0.35319 -1.8492,-0.64631 -2.087,-0.65136 -0.8181,-0.0174 -3.8956,1.47703 -5.0841,2.46872 -0.6543,0.54609 -1.7053,1.6202 -2.3352,2.38687 l -1.1455,1.39397 -0.689,-1.61512 c -0.6133,-1.43767 -0.6894,-1.85025 -0.6922,-3.75607 0,-1.908 0.067,-2.29509 0.6446,-3.55712 0.7816,-1.70832 2.4162,-3.70351 4.2095,-5.13774 0.8317,-0.66515 1.3674,-1.27951 1.4413,-1.65323 0.4178,-2.10974 1.6343,-4.08503 3.1898,-5.17981 0.4913,-0.34574 0.9315,-0.65719 0.9782,-0.69206 0.047,-0.0348 -0.1483,-0.27948 -0.4328,-0.54355 -0.5931,-0.55025 -0.916,-0.50696 -3.0052,0.40265 -1.9553,0.8513 -3.107,1.74643 -4.8862,3.79796 l -1.533,1.76751 -0.6896,-1.80643 c -0.9028,-2.36491 -1.0261,-3.47886 -0.5916,-5.3441 0.9373,-4.02336 5.3182,-8.39766 9.8637,-9.84912 0.6544,-0.20895 1.5305,-0.63207 1.9471,-0.94022 3.3187,-2.45585 7.6558,-1.97551 11.9515,1.32371 l 1.243,0.95465 2.8674,-0.14456 c 2.9568,-0.14911 4.4106,-0.45023 6.397,-1.32501 5.2527,-2.31326 8.5383,-8.06929 9.7629,-17.10379 0.3769,-2.77953 0.6644,-9.48253 0.5154,-12.01467 -0.1179,-2.00353 -0.1855,-2.30985 -0.4825,-2.18131 -6.1963,2.68294 -11.8215,3.01924 -17.3573,1.03769 -1.9261,-0.68945 -4.6605,-2.12438 -6.8082,-3.57265 -1.9427,-1.30997 -1.8909,-1.20386 -1.3556,-2.77683 0.1663,-0.48831 0.2724,-0.52661 0.9988,-0.36046 0.447,0.10223 2.3217,0.1825 4.166,0.17835 4.6267,-0.0105 7.9345,-0.78749 11.3576,-2.66832 1.6059,-0.88241 4.3838,-2.86118 4.8107,-3.4267 0.215,-0.28487 -0.714,-0.63176 -5.9145,-2.20838 l -6.1694,-1.87044 0.1458,-0.97182 c 0.081,-0.5345 0.1786,-1.01116 0.2186,-1.05925 0.041,-0.0481 1.0982,-0.28966 2.3517,-0.53688 5.6331,-1.11114 11.2465,-3.11383 15.0492,-5.36908 3.8724,-2.29655 6.6528,-4.65663 11.0331,-9.36515 3.6871,-3.9632 6.5287,-6.48521 10.9959,-9.75869 3.5791,-2.62291 9.6181,-6.14039 12.9,-7.51392 l 1.7214,-0.72044 -1.5051,-0.53979 c -0.8278,-0.29689 -1.6151,-0.6609 -1.7496,-0.80894 -0.3177,-0.34956 -2.1098,-6.32348 -1.9498,-6.4994 0.1028,-0.11365 16.5329,2.53989 18.0793,2.91996 l 0.525,0.12905 -0.525,-0.7069 c -0.2888,-0.38878 -1.596,-2.0167 -2.9049,-3.61756 -3.2608,-3.98846 -6.6855,-8.53879 -9.2557,-12.29837 -1.1852,-1.73361 -2.216,-3.15173 -2.2907,-3.1514 -0.075,2.3e-4 -1.3525,0.96795 -2.8398,2.1503 l -2.7043,2.1497 -0.1085,-2.08802 -0.1085,-2.08803 -0.4305,1.06768 c -0.7866,1.95033 -2.8821,5.1311 -4.4567,6.76439 -1.7766,1.84298 -4.5024,3.87092 -6.6322,4.93447 -3.2276,1.61156 -8.4735,3.16361 -13.0751,3.8683 l -1.014,0.15527 0.3109,0.96914 c 0.6036,1.88135 0.2598,3.57856 -1.1653,5.75171 -0.6896,1.05158 -0.7535,1.28619 -0.7125,2.61676 0.093,3.01726 -0.9991,6.98024 -2.5021,9.07733 -1.2368,1.72578 -3.4456,2.92081 -6.1752,3.34101 l -1.0228,0.15748 0.5546,-1.75093 c 0.6144,-1.93977 0.8924,-5.17243 0.5803,-6.74654 l -0.1887,-0.95154 -2.0657,-0.11894 c -1.7749,-0.10219 -2.2533,-0.22536 -3.3985,-0.87485 -0.8416,-0.47737 -1.3326,-0.64656 -1.3326,-0.45913 0,0.5033 -1.5016,2.25724 -2.4628,2.87662 -0.5016,0.32326 -1.4824,0.73021 -2.1797,0.90433 l -1.2677,0.3166 -0.6149,1.69397 c -0.9574,2.637 -1.1838,4.77009 -0.7519,7.08051 0.1957,1.04643 0.4192,2.15922 0.4968,2.47288 0.157,0.63539 0.1625,0.63568 -2.2151,-0.11478 -4.4135,-1.39297 -6.7196,-5.98606 -6.265,-12.47845 0.1285,-1.83712 0.099,-2.09237 -0.3109,-2.66509 -0.2492,-0.34837 -0.558,-0.96442 -0.6863,-1.36902 -0.1282,-0.4046 -0.2952,-0.69855 -0.3709,-0.65321 -1.5789,0.94539 -2.4648,1.22462 -4.1871,1.31977 -1.5802,0.0874 -2.1168,0.0147 -3.307,-0.44732 -1.2643,-0.49086 -1.5277,-0.52009 -2.3928,-0.26569 -2.1339,0.62762 -3.8263,1.76336 -5.8221,3.90703 -1.0683,1.14744 -1.9554,2.08626 -1.9715,2.08626 -0.1609,0 -1.2304,-3.10558 -1.412,-4.09962 -0.2957,-1.61927 0.1456,-3.74123 1.1694,-5.62268 0.9564,-1.75754 3.4991,-4.27433 5.6755,-5.61754 2.3516,-1.4513 2.5528,-1.71288 1.4713,-1.91304 -1.6605,-0.30737 -4.0484,-1.09523 -5.2023,-1.71654 -1.5007,-0.80806 -2.9435,-2.5584 -3.4393,-4.17221 -0.4738,-1.54244 -0.4713,-4.05502 0,-6.10375 0.1939,-0.83218 0.3206,-1.54811 0.2817,-1.59093 -0.039,-0.0428 -0.6978,-0.38726 -1.4641,-0.7654 -2.0497,-1.01146 -3.5084,-1.32457 -5.9904,-1.28584 l -2.2173,0.0346 0,-0.71324 c 0,-2.30167 2.6074,-5.06455 5.7069,-6.04733 2.5784,-0.81755 7.3777,-0.37906 10.3628,0.9468 l 1.3009,0.5778 1.5747,-0.58126 c 2.5598,-0.94492 5.1357,-0.67643 7.3842,0.76969 1.9816,1.27458 4.5317,5.1459 4.9309,7.48598 0.1235,0.7246 0.3059,0.92477 1.3693,1.50321 1.5094,0.8211 3.103,1.3098 4.2833,1.31353 0.8628,0.003 0.9359,-0.0597 2.1482,-1.8408 3.2718,-4.80676 8.6138,-10.97837 12.8177,-14.80849 l 2.2195,-2.02204 -2.3453,-0.27437 c -1.2899,-0.1509 -3.2159,-0.4514 -4.28,-0.66778 -2.2279,-0.45306 -7.6996,-1.99709 -7.9331,-2.23865 -0.087,-0.0895 1.2276,-0.57697 2.9205,-1.0831 5.8647,-1.75341 10.055,-3.77516 14.3275,-6.91278 2.5084,-1.84216 5.4058,-4.36806 5.2309,-4.56031 -0.057,-0.0625 -0.4865,-4.8e-4 -0.9546,0.13827 -0.4682,0.13862 -1.8371,0.36329 -3.0421,0.49926 -4.4205,0.49884 -8.8711,-0.63563 -12.9163,-3.29243 -1.6143,-1.06019 -4.8676,-3.64376 -4.8676,-3.86554 0,-0.0905 0.9005,-0.51497 2.0011,-0.94322 2.6401,-1.02727 6.4648,-3.01401 8.666,-4.50144 4.3375,-2.93122 7.6796,-6.19529 11.947,-11.66827 1.6833,-2.15883 3.2222,-4.07205 3.4197,-4.25162 0.1976,-0.17957 0.3591,-0.42044 0.3591,-0.53526 0,-0.11481 -1.2528,-0.20876 -2.784,-0.20876 -9.2117,0 -16.323,-4.25826 -21.3033,-12.75645 -1.1361,-1.93847 -3.1696,-6.40174 -3.8457,-8.4409 l -0.4581,-1.38144 -1.0021,0.55027 c -1.9269,1.05825 -4.0202,0.95852 -6.3119,-0.30073 l -1.275,-0.70056 -1.575,0.6721 c -4.6776,1.99602 -9.1442,1.78908 -11.8202,-0.54759 -0.4815,-0.42048 -1.3129,-1.40678 -1.8478,-2.1918 l -0.9724,-1.42733 1.3405,-0.18997 c 3.4771,-0.49266 5.7505,-1.42159 7.9901,-3.26478 1.2389,-1.01962 1.2408,-1.02299 1.0816,-1.99478 -0.2425,-1.48154 -0.141,-3.49147 0.2247,-4.45203 l 0.3282,-0.86185 -0.8969,-0.29498 c -1.1063,-0.36384 -1.9948,-1.01397 -2.8472,-2.0832 -0.7908,-0.992 -1.688,-1.22556 -4.7647,-1.24024 -2.5858,-0.0124 -4.0866,0.36788 -6.5563,1.66102 -0.9931,0.51996 -1.8563,0.94538 -1.9182,0.94538 -0.062,0 -0.071,-1.04373 -0.02,-2.31939 0.1028,-2.58404 0.575,-3.93347 1.9441,-5.55969 1.7051,-2.02534 5.7813,-4.05919 8.8396,-4.4107 1.2988,-0.14927 1.3397,-0.17623 2.1932,-1.44668 0.4783,-0.71202 1.2007,-1.50932 1.6053,-1.77178 0.4045,-0.26246 0.7355,-0.52596 0.7355,-0.58555 0,-0.0596 -0.2918,-0.45045 -0.6485,-0.86858 -0.3567,-0.41813 -0.8191,-1.22371 -1.0276,-1.79019 -0.3492,-0.94844 -0.5333,-1.11153 -2.3262,-2.06035 -2.9394,-1.55561 -4.4118,-1.87712 -7.7311,-1.68818 l -2.7555,0.15685 0.5744,-1.49538 c 0.6101,-1.5892 1.3391,-2.80611 2.2284,-3.72095 1.4324,-1.4734 4.7866,-2.65225 7.5406,-2.65021 1.4566,10e-4 4.472,0.52996 5.9843,1.04959 0.5949,0.20443 1.7631,0.37539 2.596,0.37993 1.4012,0.008 2.3505,0.15974 3.4751,0.55683 0.4276,0.151 0.4482,0.0634 0.489,-2.08747 0.051,-2.65133 0.5843,-4.8003 1.552,-6.24722 0.6675,-0.99816 2.4226,-2.4544 2.9581,-2.4544 0.4278,0 0.3505,-0.59258 -0.2462,-1.88727 -0.6804,-1.4767 -1.9937,-3.14413 -3.5617,-4.52239 -0.6781,-0.59608 -1.2532,-1.19084 -1.2781,-1.32168 -0.025,-0.13084 0.7117,-0.52981 1.6366,-0.88661 4.1124,-1.58648 8.0278,-0.20289 11.3552,4.01249 1.3941,1.76626 2.7665,4.18754 3.1894,5.62742 0.1855,0.63105 0.5283,1.08552 1.1384,1.50894 1.4759,1.02457 3.7196,3.67938 4.4029,5.20959 0.5576,1.24889 0.6332,1.67374 0.6332,3.55916 0,1.88542 -0.076,2.31028 -0.6332,3.55916 -0.9095,2.03708 -3.0664,4.3219 -5.194,5.50239 -1.66,0.92093 -1.7208,0.98531 -2.1244,2.24729 -0.4207,1.31515 -0.5852,3.98816 -0.2997,4.8675 0.1757,0.54099 0.099,0.47667 14.8496,12.33532 15.2444,12.25512 20.6085,16.83662 25.4692,21.75375 l 2.2133,2.23888 2.1911,-0.73585 c 3.2268,-1.08351 8.4459,-2.30897 12.7444,-2.9924 2.0822,-0.33106 3.8832,-0.60998 4.0022,-0.61984 0.6361,-0.0527 -2.8951,-0.95275 -4.6991,-1.19771 -3.5413,-0.48091 -6.2299,0.25738 -9.295,2.55238 -0.9388,0.70295 -1.7622,1.27808 -1.8296,1.27808 -0.067,0 -0.084,-1.25783 -0.037,-2.79518 0.076,-2.46868 0.1545,-2.94005 0.6715,-4.03544 0.8701,-1.84353 2.3448,-3.27385 4.6265,-4.48725 1.9333,-1.02814 5.8837,-2.35903 8.7234,-2.93884 l 1.4061,-0.28712 0.017,-1.67852 0.017,-1.67851 -1.3151,0.15851 c -4.7425,0.57151 -7.871,0.84322 -9.7581,0.84746 -11.8391,0.0266 -16.5831,-5.59667 -14.9211,-17.68651 0.3804,-2.76727 0.3843,-2.77833 0.8543,-2.43971 3.4466,2.48333 4.5515,3.20125 6.3433,4.12202 3.9507,2.03006 9.4119,3.61331 13.8757,4.02266 l 1.7975,0.16483 -0.7752,-1.11647 c -0.874,-1.25915 -1.1956,-2.33202 -1.2618,-4.20859 -0.043,-1.19907 -0.1124,-1.35536 -1.0002,-2.2261 -1.5979,-1.56746 -1.8235,-2.42386 -1.9782,-7.50851 -0.1173,-3.85858 -0.1921,-4.53284 -0.6071,-5.47141 -0.6267,-1.4177 -0.6033,-2.49518 0.088,-4.01909 1.6568,-3.65604 7.9199,-6.54823 19.5975,-9.04973 1.8708,-0.40076 3.5987,-0.72865 3.8398,-0.72865 0.2412,0 0.4385,-0.0923 0.4385,-0.20517 0,-0.37695 1.3043,-2.01547 2.0446,-2.56866 1.2091,-0.9035 3.7342,-1.68106 6.8252,-2.10167 1.6063,-0.21858 3.227,-0.44489 3.6016,-0.50292 2.2963,-0.35563 3.1991,-3.5414 3.0711,-10.83639 l -0.075,-4.24374 0.6769,1.3e-4 c 0.5569,9e-5 0.9268,0.29146 2.0861,1.64263 2.8831,3.36081 5.0291,7.72711 5.5723,11.3378 0.4582,3.045 0.1783,2.83556 2.2119,1.65548 1.9539,-1.13399 4.7693,-2.2827 7.1661,-2.92397 1.1254,-0.30109 2.4151,-0.40915 4.7856,-0.40093 3.819,0.0133 5.0068,0.38767 6.7747,2.13552 2.0945,2.07067 2.6369,5.33662 1.5798,9.50971 -0.5434,2.14446 -2.5564,6.84032 -3.9169,9.13716 -1.0817,1.82604 -1.0649,2.15121 0.2621,5.06661 0.67,1.47192 1.2895,2.39407 2.4439,3.6374 1.5672,1.6879 2.2784,2.20989 5.9163,4.34187 l 2.0269,1.18783 -1.1616,0.29201 c -0.6387,0.16062 -2.1349,0.78657 -3.3247,1.39102 -1.7225,0.875 -2.4572,1.11786 -3.605,1.19152 l -1.4418,0.0924 0.298,1.10428 c 0.4253,1.57624 1.1053,5.62875 1.503,8.95456 0.5101,4.26789 0.6489,12.02518 0.3313,18.52417 -0.1517,3.10315 -0.223,5.69998 -0.1587,5.77074 0.065,0.0707 1.2118,0.39891 2.55,0.72925 1.3381,0.33034 3.0869,0.89321 3.8861,1.25083 l 1.453,0.65021 0.1275,-1.21139 c 0.9033,-8.57879 0.6531,-17.32014 -0.7311,-25.55118 -0.249,-1.48062 -0.4224,-2.84994 -0.3856,-3.04296 0.094,-0.48962 5.682,5.41844 7.0637,7.46808 0.6028,0.89417 1.4787,2.34577 1.9463,3.22577 l 0.8504,1.60001 1.0505,-1.97105 c 3.7952,-7.12016 9.842,-13.52954 16.7643,-17.76953 l 1.215,-0.74419 0.5735,0.82697 0.5736,0.82698 -0.869,1.25928 c -1.6237,2.35306 -2.3836,4.62867 -2.3836,7.13876 0,1.3144 0.1922,2.26723 0.9662,4.78928 0.5316,1.73162 1.0317,3.7603 1.1117,4.50818 0.1018,0.95672 0.2167,1.29514 0.3858,1.14175 0.4456,-0.40406 2.8266,-1.16331 4.1345,-1.31842 3.9941,-0.47369 9.0836,2.08143 11.6934,5.87052 0.8136,1.18147 2.2602,4.08815 2.2602,4.54177 0,0.0484 -0.9978,0.1559 -2.2175,0.23889 -5.4872,0.3733 -8.4686,2.34709 -10.8406,7.17699 -1.527,3.10967 -2.8682,5.22051 -4.4781,7.04855 l -1.4191,1.6114 1.2029,0.15253 c 1.7318,0.21959 4.1454,0.90448 6.472,1.83655 l 2.0241,0.81092 -5.2692,2.3239 c -9.3166,4.10896 -12.4926,6.01164 -15.047,9.01433 -1.3576,1.59587 -2.506,3.8426 -2.771,5.42098 -0.1074,0.63832 0.1743,2.3363 1.0843,6.54189 1.8568,8.58136 3.808,14.65986 6.8477,21.33245 2.5386,5.57284 5.1999,15.82653 6.1284,23.61305 0.9407,7.88758 0.5325,16.16256 -1.1659,23.62873 -0.2496,1.09737 -0.4538,2.1044 -0.4538,2.23781 0,0.16212 1.4152,0.18866 4.2674,0.08 2.3826,-0.0906 4.1742,-0.0722 4.0563,0.0418 -0.3553,0.34377 -7.6234,5.37545 -10.3789,7.18519 -3.4263,2.25027 -9.0362,5.25107 -11.4665,6.13355 -3.3124,1.20279 -5.3349,1.57734 -8.5445,1.58243 -2.0716,0.004 -3.4129,-0.12116 -4.6145,-0.42813 -0.9318,-0.238 -1.7266,-0.39678 -1.7664,-0.35278 -0.041,0.0439 -0.1905,1.19909 -0.3351,2.56694 -0.3314,3.13727 -0.1553,10.05774 0.3301,12.97567 0.7481,4.49675 2.2705,8.36818 4.1086,10.44784 1.1017,1.24653 1.7089,1.56549 2.9802,1.56549 0.7828,0 1.0143,-0.14068 1.9071,-1.15918 1.1411,-1.30189 1.7983,-2.94947 2.2897,-5.73955 0.1728,-0.98129 0.3598,-2.02502 0.4157,-2.3194 0.086,-0.45625 0.2405,-0.53524 1.0449,-0.53524 0.942,0 0.9442,0.003 1.1962,1.10245 0.5124,2.23779 1.671,4.07452 3.0624,4.85514 2.8112,1.577 7.6625,-1.06971 10.4686,-5.71132 1.2629,-2.0888 1.8561,-3.97667 1.8716,-5.95558 0.011,-1.42882 -0.082,-1.74372 -1.2176,-4.14528 -1.0243,-2.165 -1.145,-2.53895 -0.7229,-2.23928 0.2788,0.19785 1.7723,1.20027 3.319,2.22762 3.7811,2.51124 6.3365,5.24996 7.652,8.20102 1.2602,2.82661 1.6167,4.88693 1.4612,8.44501 -0.068,1.57005 -0.2716,3.49694 -0.4511,4.28197 -0.4402,1.92533 -0.4272,2.02204 0.2705,2.02204 1.8729,0 5.0687,1.45722 7.4594,3.40142 1.5684,1.27544 7.0804,7.21511 7.0804,7.62975 0,0.11677 -0.2017,0.57112 -0.4481,1.00962 l -0.4481,0.79732 -0.7958,-0.38192 c -5.6092,-2.69184 -10.2017,-2.89954 -15.0824,-0.6821 -1.7778,0.80767 -3.9434,2.11177 -4.8555,2.9239 l -0.5099,0.45408 1.4962,0.77734 c 2.3615,1.22691 4.8167,2.10143 7.1962,2.5631 l 2.1977,0.42641 -0.7918,1.30498 c -1.6016,2.63918 -3.242,4.25838 -4.8515,4.78861 -0.78,0.25699 -0.823,0.31344 -0.5196,0.68212 0.5796,0.70423 3.0111,1.85817 7.0782,3.35908 2.1739,0.80226 3.988,1.49231 4.0312,1.53347 0.044,0.0411 -2.02,1.22716 -4.585,2.63558 l -4.6635,2.56076 0.7693,1.60973 c 1.0456,2.188 2.9633,4.41858 5.4141,6.29757 1.1247,0.86227 1.9647,1.64357 1.8667,1.73622 -0.099,0.0926 -0.8111,0.64572 -1.5847,1.22907 -3.1744,2.39375 -6.0519,3.77584 -8.6507,4.15496 -1.0764,0.15702 -1.0841,0.16418 -1.0788,1.01955 0.019,3.03793 1.7172,6.25148 4.375,8.2767 0.4465,0.34028 0.8117,0.69992 0.8117,0.79925 0,0.30406 -3.6833,1.8166 -5.5001,2.25855 -1.3427,0.32662 -2.2571,0.38615 -4.2185,0.27468 -1.3774,-0.0782 -2.7087,-0.20849 -2.9584,-0.28936 -0.4498,-0.14559 -0.4489,-0.12963 0.09,1.596 0.6802,2.18054 0.7487,5.19972 0.1554,6.85766 -0.2964,0.8283 -0.3738,1.66249 -0.3414,3.68725 0.093,5.80676 -1.5568,9.75564 -4.7888,11.46581 -1.2745,0.67434 -3.9614,1.46101 -4.1778,1.22315 -0.053,-0.0581 0.097,-0.7958 0.33,-1.63949 0.6652,-2.39524 0.764,-4.41208 0.3182,-6.49412 l -0.3829,-1.78741 -1.1069,-0.28658 c -1.4601,-0.37805 -2.9832,-1.23438 -4.0106,-2.25515 l -0.8332,-0.82761 -0.6943,1.18986 c -0.9183,1.57353 -2.8017,3.4397 -4.3249,4.28521 -1.979,1.09859 -3.694,1.48311 -6.2199,1.39467 l -2.2188,-0.0777 -0.6202,0.82982 c -1.5534,2.07909 -2.6178,5.13984 -2.6255,7.55014 0,0.98333 -0.022,1.01076 -0.7062,1.00127 -0.4363,-0.006 -1.1277,-0.3266 -1.8213,-0.84438 z m -16.7036,-43.42546 c 1.7687,-1.6317 2.3406,-2.0195 5.5519,-3.76423 4.497,-2.44316 6.2655,-2.95145 10.2148,-2.93587 3.1873,0.0127 5.2175,0.51765 7.6367,1.89994 2.0205,1.15442 4.1408,3.46563 5.1361,5.59827 l 0.7458,1.5982 0.9138,-0.98617 c 2.1436,-2.31339 3.1985,-6.45549 2.5624,-10.06049 -1.2658,-7.17137 -7.5715,-14.1499 -17.5356,-19.4067 -4.0582,-2.14099 -3.9255,-2.10888 -4.2,-1.01597 -0.1231,0.49013 -0.341,1.92446 -0.4842,3.18736 -0.5154,4.54037 0.4739,9.24687 2.9443,14.00652 0.7759,1.49513 1.3627,2.77119 1.3041,2.83573 -0.196,0.21554 -4.1962,-0.89089 -5.844,-1.61651 -2.5796,-1.1358 -4.7853,-2.99203 -6.6017,-5.55577 -0.4593,-0.64825 -0.4845,-0.65478 -0.9133,-0.23789 -0.9059,0.88057 -2.942,4.62656 -3.6175,6.65494 -0.5835,1.75257 -0.7183,2.54752 -0.8149,4.80689 -0.1019,2.37266 0.2269,7.1328 0.5321,7.70933 0.055,0.10298 0.3705,-0.22473 0.7023,-0.72824 0.3316,-0.50347 1.1268,-1.39868 1.7669,-1.98934 z m 30.3831,-96.65485 c 3.7264,-0.31178 7.2954,-2.58477 8.6371,-5.5007 1.3357,-2.90297 0.6124,-6.09147 -2.1071,-9.28815 -1.7781,-2.09037 -4.28,-4.02019 -7.5058,-5.78987 -7.8306,-4.29585 -12.0392,-9.06915 -13.3296,-15.11821 -0.5482,-2.56939 -0.3294,-6.87759 0.5134,-10.11022 0.3581,-1.3738 0.7668,-2.97638 0.908,-3.56129 l 0.257,-1.06347 1.3336,2.84763 c 0.7335,1.5662 1.6153,3.32935 1.9597,3.91812 1.7365,2.96899 5.6063,7.42278 9.1491,10.52984 2.4622,2.1593 5.9037,4.79359 5.9037,4.51896 0,-0.11216 -0.6841,-2.07208 -1.5203,-4.35541 -6.1353,-16.75478 -8.5747,-27.99577 -7.812,-35.99769 l 0.2239,-2.34819 -1.1425,-1.14813 c -2.289,-2.30037 -3.1266,-5.00652 -3.3821,-10.92657 -0.3172,-7.34654 -1.422,-11.19917 -4.584,-15.98583 -0.9424,-1.42677 -1.157,-1.64061 -1.2131,-1.20879 -0.06,0.4575 -0.4441,0.17297 -3.0066,-2.22328 -2.8914,-2.70373 -3.8215,-3.4087 -4.0976,-3.10516 -0.2257,0.24821 -0.8719,5.23631 -1.2409,9.57778 -0.9507,11.19157 -0.5935,20.61215 1.2019,31.68907 0.3667,2.26253 0.628,4.15625 0.5808,4.20824 -0.1397,0.15352 -5.8128,-0.32985 -7.1068,-0.60553 -3.8566,-0.82161 -6.5107,-2.35343 -9.2357,-5.33033 l -1.9886,-2.17234 -0.1502,1.54268 c -0.2687,2.76 0.033,7.2852 0.6594,9.90005 1.224,5.10686 4.0313,10.26017 8.1681,14.99442 3.0238,3.46042 5.9703,6.12991 10.4056,9.42681 1.7641,1.31132 3.1659,2.42985 3.1152,2.4856 -0.1552,0.17058 -13.2867,-0.83605 -16.1659,-1.23922 -1.4872,-0.20828 -3.6221,-0.63464 -4.7439,-0.94745 -1.1219,-0.31284 -2.071,-0.53452 -2.1091,-0.49264 -0.083,0.0906 2.7805,4.7229 4.5806,7.41149 7.9667,11.89906 15.7466,19.20318 25.3535,23.80299 2.6259,1.25736 5.7526,2.03779 7.4222,1.85262 0.2975,-0.0329 1.2285,-0.11751 2.069,-0.18783 z m -61.9504,-115.77794 c 2.8209,-0.66383 5.4823,-2.88536 6.6909,-5.58485 0.3766,-0.84108 0.6234,-1.59652 0.5487,-1.67878 -0.1911,-0.2101 -4.3657,0.26518 -10.168,1.15766 l -4.9403,0.75987 0.1224,0.67244 c 0.2737,1.50507 2.1859,3.6647 3.8088,4.30206 1.774,0.69665 2.3323,0.74935 3.9375,0.3716 z m 3.0934,-15.33899 c -0.8837,-0.7534 -3.8964,-2.28653 -6.0246,-3.06585 -2.2649,-0.82936 -6.6821,-2.02156 -7.49,-2.02156 -0.2516,0 -0.9356,0.49168 -1.5198,1.09262 -1.0153,1.04436 -1.315,1.66414 -1.6227,3.35542 l -0.1382,0.76077 1.2585,0.0864 c 0.6924,0.0475 4.5686,0.10315 8.614,0.12373 6.6826,0.034 7.3159,0.004 6.9228,-0.33145 z"
       id="path4060-3"
       inkscape:connector-curvature="0" />
    <path
       style="fill:#da121a;fill-opacity:1"
       d="m 267.55809,580.67512 c -1.2897,-2.01707 -1.6138,-4.1455 -1.0477,-6.88254 0.659,-3.18606 2.2538,-6.30197 3.524,-6.88562 1.998,-0.91791 4.7148,0.37474 5.1932,2.47079 0.113,0.49523 -0.1163,0.83077 -1.5829,2.31462 -2.8026,2.83587 -4.504,5.65767 -5.0877,8.43836 -0.1384,0.65921 -0.3257,1.19858 -0.4162,1.19858 -0.091,0 -0.3526,-0.29439 -0.5827,-0.65419 z m 27.8093,-4.04275 c 0.1402,-2.70437 -0.4325,-5.2449 -1.9059,-8.45481 -0.5878,-1.28031 -1.0685,-2.46459 -1.0685,-2.63171 0,-0.39904 1.03,-1.41796 1.7949,-1.77534 1.556,-0.72715 4.0369,0.038 4.6455,1.43268 0.8515,1.95121 0.8716,6.63787 0.039,9.08465 -0.5838,1.71556 -1.584,3.13657 -2.7211,3.86577 l -0.8925,0.57243 0.1085,-2.09367 z m -19.0867,-4.61098 c 0.8656,-0.87736 0.9687,-1.09335 0.9687,-2.02967 0,-2.88945 -2.2384,-5.2648 -5.1793,-5.4962 -2.0094,-0.15807 -3.437,0.37512 -4.4341,1.65612 l -0.7492,0.96247 -0.1431,-0.62678 c -0.2268,-0.9938 0.081,-2.54813 0.757,-3.83487 l 0.6244,-1.18675 -0.648,-0.74557 -0.6481,-0.74562 -1.2258,0.69101 c -0.9119,0.51406 -1.5581,0.6995 -2.5237,0.72421 -1.3477,0.0345 -2.2716,-0.17193 -2.2716,-0.50736 0,-0.10693 0.7387,-0.55139 1.6415,-0.98767 1.9053,-0.92077 2.2617,-1.45596 2.2831,-3.4292 0.023,-2.07543 -0.9733,-3.86211 -2.8177,-5.05487 -1.1351,-0.73412 -3.9236,-1.03757 -4.7993,-0.52222 -0.5086,0.29933 -0.511,0.29578 -0.1731,-0.26899 0.588,-0.98307 2.1582,-1.85317 4.5705,-2.53262 1.278,-0.35999 2.3236,-0.72282 2.3236,-0.80627 0,-0.0835 -0.5596,-0.40483 -1.2437,-0.71417 -1.0298,-0.46556 -1.1509,-0.57624 -0.7033,-0.64259 0.6955,-0.10303 1.6811,-1.12543 2.0731,-2.15025 0.8096,-2.1173 -0.016,-5.13825 -1.8112,-6.62325 l -0.928,-0.76789 0.6035,-0.14969 c 0.332,-0.0823 0.9929,-0.25733 1.4687,-0.38888 1.3474,-0.37246 5.2165,-0.28995 6.9013,0.14716 3.0401,0.7888 5.5951,2.638 7.0211,5.08149 0.5455,0.93487 1.1594,2.49401 1.8774,4.76904 0.1244,0.39409 0.9028,-0.19095 2.7328,-2.05404 4.2917,-4.36904 5.1955,-10.72546 2.4393,-17.15113 -2.3921,-5.57696 -7.6179,-10.88951 -15.0906,-15.3411 -1.9703,-1.17373 -8.1805,-4.23537 -8.3076,-4.09563 -0.1646,0.18103 -0.9844,3.7349 -1.2687,5.4992 -0.7196,4.46832 -0.1006,9.47538 1.7268,13.97333 l 0.5547,1.36533 -1.0767,-0.44992 c -2.6655,-1.11366 -5.2745,-3.53612 -6.7525,-6.26961 -0.4789,-0.88554 -0.933,-1.65234 -1.009,-1.70406 -0.1725,-0.11723 -2.9926,3.58308 -4.0696,5.33988 -1.0361,1.68997 -2.0784,4.05736 -2.5121,5.70555 -0.4817,1.83061 -0.8646,5.5789 -0.6962,6.81456 0.079,0.56964 0.097,1.03571 0.041,1.03571 -0.2025,0 -1.6531,-2.38586 -2.277,-3.74499 -2.3145,-5.04192 -1.9026,-9.92618 1.3938,-16.52218 0.7648,-1.53032 1.3904,-2.84168 1.3904,-2.91412 0,-0.0724 -1.3872,-0.13552 -3.0827,-0.1402 l -3.0828,-0.009 1.5434,-0.79645 c 4.1158,-2.12402 5.7708,-4.29455 5.0657,-6.64376 -0.3787,-1.26173 -0.8131,-1.76439 -4.7323,-5.47496 -5.898,-5.58409 -9.3133,-9.75114 -11.14,-13.59218 l -0.6789,-1.42733 -0.1401,-6.30402 c -0.2082,-9.36953 -1.1141,-14.90516 -3.6789,-22.48033 -3.2248,-9.52396 -8.5419,-18.59799 -16.6017,-28.33176 -3.8532,-4.65349 -7.8769,-9.94693 -10.6885,-14.06168 l -2.147,-3.14201 2.9009,-3.162 c 4.8956,-5.33617 7.7334,-10.09806 9.6698,-16.22554 l 0.3694,-1.16918 1.7164,3.02805 c 2.5219,4.44946 4.8604,7.80545 7.322,10.50825 2.5333,2.78148 4.5897,4.43932 7.5257,6.06719 l 2.0983,1.16342 -0.1206,-4.45653 c -0.1256,-4.64602 0.072,-6.59662 0.8846,-8.73544 l 0.35,-0.92132 0.7884,1.41067 c 1.7373,3.1082 4.8825,6.63571 6.9805,7.82864 0.3818,0.21714 1.6568,2.02506 3.4372,4.87403 5.2866,8.45916 8.4723,12.84954 12.7124,17.51896 5.1506,5.67225 10.9443,10.06777 17.3352,13.15179 3.632,1.75268 6.8104,2.34971 10.2596,1.9272 5.7545,-0.70489 9.9019,-3.85765 11.1161,-8.45036 0.5574,-2.10842 0.3268,-4.02824 -0.7802,-6.49313 -1.6549,-3.68488 -4.9646,-6.84777 -10.2209,-9.7678 -1.5704,-0.87233 -3.5367,-2.07345 -4.3694,-2.66916 -5.6032,-4.0075 -8.3123,-8.67685 -8.3252,-14.34902 0,-1.76071 0.3797,-4.65828 0.6168,-4.65828 0.08,0 0.4506,0.56438 0.8259,1.2542 2.7088,4.97992 8.6693,11.04195 16.168,16.44306 5.4114,3.89779 4.9696,3.61579 4.8362,3.08695 -0.062,-0.24467 -1.2808,-3.65633 -2.7089,-7.58147 -5.2195,-14.34409 -7.4316,-22.02398 -8.3759,-29.07938 -0.3979,-2.97336 -0.4618,-8.75429 -0.1203,-10.88569 0.225,-1.404 0.2191,-1.43511 -0.359,-1.9031 -3.079,-2.49238 -3.943,-4.64846 -4.0841,-10.1913 -0.1404,-5.51931 -1.0917,-10.09961 -2.9103,-14.01374 -0.9744,-2.09733 -0.9104,-2.17476 1.0233,-1.2381 0.7559,0.36613 1.7367,1.13356 2.4812,1.94117 1.4691,1.59392 1.2912,2.00234 1.8357,-4.21191 0.6387,-7.28776 0.4793,-19.93592 -0.2893,-22.95613 -0.2007,-0.78886 1.753,1.45145 3.1525,3.61487 0.6947,1.07396 1.7863,3.24172 2.4259,4.81727 0.6396,1.57553 1.2141,2.86526 1.2768,2.86605 0.063,7.2e-4 0.5292,-0.91888 1.0365,-2.04372 2.7345,-6.06315 6.6118,-11.5762 10.8249,-15.39188 1.4215,-1.2875 3.2636,-2.79758 4.0454,-3.3164 0.1256,-0.0834 0.011,0.56451 -0.2648,1.43966 -0.3599,1.16137 -0.4938,2.13739 -0.4954,3.61324 0,2.2242 0.2551,3.5646 1.3019,6.77978 0.9319,2.86183 0.9757,4.79249 0.1441,6.35291 l -0.5815,1.09094 0.7528,0.6313 0.7526,0.63129 1.0718,-1.1786 c 3.2918,-3.61966 8.74,-3.60794 13.0781,0.0281 0.8175,0.68522 1.8163,1.74422 2.2195,2.3533 l 0.7331,1.10745 -1.5741,0.28907 c -3.277,0.60185 -5.9459,2.07199 -7.8484,4.32313 -0.6406,0.75789 -1.7369,2.5411 -2.4865,4.04409 -2.2011,4.41374 -4.2976,7.11054 -6.9016,8.87794 -0.7259,0.49267 -1.3192,0.96084 -1.3186,1.04037 0,0.0795 0.097,0.51927 0.2122,0.97721 l 0.211,0.8326 2.8706,0.0352 c 1.7496,0.0215 3.2484,0.16411 3.8379,0.36534 l 0.9674,0.33015 -3.4552,1.53405 c -3.6703,1.62957 -7.2319,3.54626 -9.1881,4.94459 -0.6545,0.46779 -2.0173,1.76683 -3.0287,2.88674 -1.9637,2.17442 -2.9257,3.94226 -3.5251,6.47747 -0.3176,1.34359 -0.3144,1.36896 0.8263,6.66085 2.2199,10.29883 3.6729,14.96851 6.7595,21.72634 2.8182,6.17007 5.43,16.04458 6.4563,24.40943 0.4366,3.5582 0.496,11.42908 0.1107,14.72304 -0.3779,3.23555 -1.2313,7.83559 -1.9509,10.51601 -0.341,1.2699 -0.5793,2.35346 -0.5297,2.40796 0.049,0.0545 0.9624,0.0443 2.0286,-0.0227 1.0663,-0.067 1.9387,-0.0633 1.9387,0.009 0,0.0712 -1.1926,0.92992 -2.6501,1.9082 -12.2376,8.21356 -19.3178,10.20382 -26.8395,7.5447 -1.3227,-0.4676 -1.9312,-0.58922 -1.9863,-0.39699 -0.3093,1.07778 -0.7581,7.435 -0.7581,10.73726 0,5.74925 0.6489,10.08067 2.1216,14.16121 1.5562,4.31226 4.0161,7.19738 6.5707,7.70681 2.5844,0.51541 5.3531,-2.1498 6.4607,-6.2192 l 0.2748,-1.01025 1.1461,1.39263 c 1.6313,1.98224 2.8226,2.5097 5.3152,2.35344 1.6618,-0.1042 2.1027,-0.2358 3.6825,-1.09904 4.4756,-2.44551 7.7995,-7.45525 8.2903,-12.49511 0.084,-0.86465 0.2451,-1.57209 0.3575,-1.57209 0.1126,0 1.1091,0.9902 2.2147,2.20045 1.4701,1.60924 2.1936,2.61591 2.6925,3.74673 1.7373,3.93733 1.7193,8.32825 -0.06,14.5706 -0.2404,0.84364 -0.2562,1.1321 -0.062,1.13845 0.143,0.005 1.1849,0.10124 2.3153,0.21456 2.2993,0.23056 3.836,0.78583 5.8084,2.09888 1.3605,0.90571 5.0083,4.22811 5.0083,4.56163 0,0.10085 -0.511,0.021 -1.1357,-0.17775 -0.7731,-0.24576 -2.1721,-0.36761 -4.3808,-0.38146 -3.9181,-0.0244 -5.4411,0.37154 -9.0862,2.36312 -2.2958,1.25441 -6.4899,4.34256 -6.4899,4.77858 0,0.11688 1.3969,0.98847 3.1042,1.93688 2.6499,1.4719 4.0342,2.0599 7.3556,3.12419 l 0.5084,0.16293 -0.7248,0.78618 c -1.0827,1.17447 -2.1743,1.69158 -4.2002,1.98964 -1.0036,0.14767 -1.8247,0.37178 -1.8247,0.49803 0,0.31547 1.4323,2.27504 2.2498,3.07832 1.0565,1.03778 3.0814,2.21089 5.4179,3.13864 1.1831,0.4698 2.1913,0.89845 2.2405,0.95253 0.049,0.0541 -1.3812,0.90824 -3.1786,1.89819 -1.7976,0.98992 -3.2684,1.90031 -3.2684,2.02309 0,0.44568 1.4999,3.82805 2.1902,4.93878 0.9585,1.5427 2.9048,3.77373 4.0508,4.64327 l 0.9407,0.71378 -0.6162,0.46086 c -2.1872,1.63596 -5.7939,3.05245 -7.7722,3.05245 -1.575,0 -1.6055,0.044 -1.6055,2.31051 0,3.36803 0.9064,6.23239 2.6188,8.27513 l 0.8611,1.02721 -0.7124,0.25017 c -2.7729,0.97372 -5.9318,0.91581 -10.0138,-0.18368 -1.4273,-0.38442 -2.623,-0.66829 -2.6572,-0.6308 -0.034,0.0375 0.4317,1.00802 1.035,2.15673 1.5554,2.96165 2.0359,4.66226 1.9687,6.9678 l -0.024,0.78525 -0.7148,-0.59949 c -1.1117,-0.93246 -2.2615,-1.36255 -3.7073,-1.38664 -2.368,-0.0395 -4.7986,1.64536 -5.3633,3.71768 -0.2386,0.87616 -0.2083,1.03636 0.4469,2.3576 0.3867,0.77965 0.6521,1.4736 0.5898,1.54208 -0.2969,0.32648 -2.2663,-1.19476 -3.549,-2.74134 -0.7866,-0.94857 -1.4857,-1.72469 -1.5533,-1.72469 -0.067,0 -0.5078,0.88219 -0.9782,1.96042 -1.7922,4.10855 -5.1432,6.5913 -8.9088,6.6007 l -1.1308,0.003 0.9685,-0.98186 z m -114.1919,-3.46335 c -0.06,-0.23732 -0.1742,-0.85967 -0.2546,-1.38302 -0.1825,-1.18704 -1.3528,-4.00368 -2.2776,-5.48179 -0.3844,-0.61417 -1.3189,-1.83957 -2.0768,-2.72308 -0.7707,-0.89841 -1.3782,-1.82148 -1.3782,-2.09444 0,-0.63025 0.9463,-1.8626 1.805,-2.35095 0.8947,-0.50871 2.6681,-0.5074 3.5476,0.003 0.8171,0.47378 1.7795,2.19448 2.4839,4.44053 0.3861,1.23159 0.4856,2.0788 0.4886,4.16303 0,2.48839 -0.029,2.68016 -0.6626,3.90892 -0.3666,0.71069 -0.8692,1.4401 -1.1169,1.62091 -0.3978,0.29047 -0.4628,0.27853 -0.5584,-0.10272 z m -30.5775,-1.20815 c -0.6321,-0.94016 -1.1535,-2.72077 -1.1535,-3.9394 0,-3.23886 2.464,-8.7664 4.2796,-9.60059 1.7509,-0.80444 4.0852,0.0637 4.9149,1.82805 0.5062,1.07628 0.3867,1.48327 -0.6983,2.3784 -3.4435,2.84127 -5.1978,5.32697 -6.6839,9.47052 l -0.1971,0.54977 -0.4617,-0.68675 z m 120.6155,-2.01851 c -0.1632,-0.42522 -0.2968,-1.52809 -0.2968,-2.45083 0,-1.45616 0.1051,-1.91166 0.7996,-3.44937 0.9539,-2.11355 2.6596,-4.40124 4.252,-5.70246 0.9185,-0.75061 1.3428,-0.94483 2.0551,-0.94066 1.982,0.0117 3.5618,1.46384 3.7667,3.46269 l 0.1073,1.04559 -1.8699,0.94539 c -3.606,1.82335 -6.3105,4.1717 -7.7538,6.73282 -0.3503,0.62149 -0.6653,1.12997 -0.7001,1.12997 -0.035,0 -0.197,-0.34792 -0.3601,-0.77314 z m -100.0273,-5.26892 c -1.9908,-0.69235 -3.2077,-1.86737 -4.4409,-4.2882 l -0.718,-1.40948 -0.7235,1.63651 c -0.3979,0.9001 -0.9408,1.8964 -1.2064,2.214 -0.7634,0.91282 -2.0652,1.45523 -3.5069,1.46104 l -1.2931,0.006 0.8064,-0.73099 c 0.7434,-0.67381 0.8061,-0.8273 0.8017,-1.96257 -0.012,-3.17338 -2.5525,-5.69715 -5.7143,-5.67711 -1.7564,0.0111 -2.9703,0.57881 -4.0069,1.87387 l -0.8491,1.06084 -0.4643,-1.0003 c -0.7641,-1.64708 -0.3835,-2.67247 1.4985,-4.03721 0.4736,-0.34335 0.4862,-0.41804 0.2285,-1.36327 -0.2893,-1.06195 -0.2918,-1.06276 -1.8235,-0.59718 -0.3448,0.10476 -0.2942,-0.0371 0.2612,-0.73264 1.2228,-1.53141 1.4185,-3.8644 0.4917,-5.86195 -1.1786,-2.54053 -4.1589,-3.95346 -6.4699,-3.06752 -0.9744,0.3735 -1.0631,0.11079 -0.311,-0.92064 0.8414,-1.15369 2.2746,-2.0033 4.7702,-2.82774 1.1052,-0.36514 2.0095,-0.72307 2.0095,-0.79538 0,-0.0723 -0.7543,-0.44137 -1.6765,-0.82004 -0.9222,-0.37865 -1.7558,-0.76336 -1.8526,-0.85493 -0.098,-0.0915 0.2673,-0.22141 0.809,-0.28854 2.9645,-0.36742 3.4111,-5.82386 0.6917,-8.44939 -0.4395,-0.42427 -0.9173,-0.77466 -1.0619,-0.77864 -0.565,-0.0154 0.5388,-0.49373 1.6711,-0.72391 2.3032,-0.4682 4.8647,0.39428 7.46,2.51166 l 1.3894,1.13368 3.4781,-0.1346 c 1.9621,-0.0759 4.0344,-0.29053 4.7543,-0.49235 10.1838,-2.85469 14.7163,-13.52448 14.0777,-33.13962 l -0.1487,-4.56582 -1.1125,0.49371 c -5.1274,2.27535 -7.9262,3.03509 -11.2072,3.04242 -3.4332,0.008 -6.4232,-0.7619 -9.8083,-2.52453 l -1.2979,-0.67589 2.2715,-0.17116 c 6.9678,-0.52502 11.7647,-2.70064 17.1407,-7.77412 1.039,-0.98054 1.8584,-1.81645 1.8211,-1.85755 -0.037,-0.0411 -2.5425,-0.82662 -5.5668,-1.74558 -3.0243,-0.91893 -5.583,-1.69925 -5.6856,-1.734 -0.1029,-0.0347 1.1141,-0.41695 2.7041,-0.84934 6.8195,-1.85443 12.6976,-5.00345 17.71,-9.48776 0.8924,-0.79834 2.9368,-2.86423 4.5431,-4.59087 7.2962,-7.8429 15.2721,-13.50236 24.4928,-17.37959 l 2.8074,-1.1805 4.0487,1.47711 4.0487,1.47712 -0.091,1.92262 c -0.1932,4.11939 0.9268,7.21074 3.718,10.26342 1.3607,1.48799 2.1901,2.16119 3.7007,3.00364 1.0709,0.59721 2.3364,1.21425 2.8123,1.37121 0.476,0.15696 0.9886,0.32805 1.1391,0.3802 0.1556,0.0539 -0.4662,0.87235 -1.4391,1.89439 -4.1298,4.33877 -6.7968,10.58073 -8.7115,20.38938 l -0.4981,2.55116 -0.6535,-0.66468 c -1.5404,-1.56656 -3.3362,-2.21431 -6.1164,-2.2061 -4.5267,0.0133 -9.6649,2.55827 -13.9262,6.89755 -2.1197,2.15849 -2.6596,3.33727 -2.5189,5.5002 0.1229,1.88822 0.5447,2.83447 1.9203,4.30775 1.492,1.59808 3.0152,2.19309 5.2767,2.06119 2.0973,-0.12228 3.083,-0.62214 4.6714,-2.36881 1.4694,-1.6157 2.6344,-3.62258 3.1417,-5.41189 0.2242,-0.79092 0.481,-1.43895 0.5705,-1.44006 0.2627,-0.004 2.104,2.85886 2.7532,4.27995 0.8785,1.92294 1.4913,3.90761 2.0267,6.56276 l 0.4755,2.35801 1.4014,0.17963 c 2.7422,0.35151 5.6541,-0.27686 10.8774,-2.34723 1.5233,-0.60386 2.8216,-1.04092 2.8849,-0.9713 0.064,0.0696 -0.3734,0.92271 -0.9705,1.8957 -2.3424,3.81705 -5.3577,5.91191 -10.5793,7.34996 -1.5766,0.43417 -2.8665,0.84683 -2.8665,0.91703 0,0.0702 0.88,0.70044 1.9554,1.40056 1.0755,0.70013 2.4487,1.76066 3.0516,2.3567 1.5125,1.49537 3.0819,4.03403 3.8307,6.19656 0.6852,1.97932 1.4027,5.26878 1.2898,5.91332 -0.046,0.26319 -0.6726,-0.50717 -1.7921,-2.20339 -2.4266,-3.67714 -4.9916,-6.43052 -7.0374,-7.5543 -2.4472,-1.34436 -6.0546,-1.96502 -8.41,-1.44702 l -0.6761,0.14868 0,2.45638 c 0,1.35101 0.1073,3.02364 0.2391,3.71698 0.3293,1.73644 1.3461,4.02038 2.3676,5.31822 0.4701,0.59727 0.8547,1.17157 0.8547,1.27628 0,0.43027 -3.5816,1.32697 -5.3003,1.32697 -1.4885,0 -1.9273,-0.10316 -3.1368,-0.73725 -0.7734,-0.40544 -2.185,-1.38999 -3.1368,-2.18781 -0.952,-0.79783 -1.7617,-1.3539 -1.7998,-1.2357 -0.1292,0.40312 1.2518,6.88688 1.76,8.26156 0.6434,1.74081 1.4201,3.09272 2.4823,4.32046 l 0.8381,0.96873 -0.7751,0.16865 c -1.3938,0.30339 -4.6117,0.16152 -5.8992,-0.26008 -0.6767,-0.22157 -2.1218,-0.99377 -3.2113,-1.71602 -1.0895,-0.72226 -2.0299,-1.25931 -2.0897,-1.19343 -0.1784,0.19608 0.8007,5.86337 1.225,7.09139 0.2156,0.6242 0.7516,1.67335 1.1908,2.33144 0.7262,1.08758 0.7627,1.21279 0.402,1.37518 -0.2183,0.0982 -2.1492,0.17866 -4.291,0.17866 -5.1569,0 -6.7808,-0.43672 -12.332,-3.31592 -1.4059,-0.72924 -2.5869,-1.29223 -2.6243,-1.25105 -0.038,0.0412 0.5143,1.02197 1.226,2.17955 0.7117,1.15761 1.4068,2.51896 1.5447,3.02525 0.327,1.19994 -0.033,2.98597 -0.8983,4.46744 -0.8159,1.39524 -2.621,3.3175 -2.7512,2.92958 -0.054,-0.16017 -0.4492,-0.87808 -0.8788,-1.59538 -1.0277,-1.71615 -2.3024,-2.3876 -4.4868,-2.3634 -2.462,0.0272 -4.546,1.45854 -5.3978,3.7071 -0.5942,1.56832 -0.4546,2.2963 0.6843,3.56778 l 1.0195,1.13813 -1.5062,-0.016 c -0.8284,-0.009 -1.8957,-0.15134 -2.3716,-0.31683 z m -34.884,-11.28147 c 0.063,-0.76178 0.3304,-1.85118 0.5947,-2.42089 1.532,-3.30231 6.8221,-7.18365 9.2459,-6.78394 1.6206,0.26721 2.93,1.9424 2.9078,3.71994 -0.02,1.56512 -0.2382,1.76013 -2.3524,2.10023 -3.5359,0.5688 -6.6087,1.87347 -8.9305,3.79188 -0.6509,0.5378 -1.2726,0.97785 -1.3816,0.97785 -0.1107,0 -0.1475,-0.61375 -0.084,-1.38507 z m 132.0368,-0.67026 c -0.1886,-0.54034 0.067,-1.91124 0.5939,-3.1782 1.2789,-3.07891 7.1659,-7.29097 9.5092,-6.80395 1.1887,0.24704 2.0986,1.02682 2.5723,2.20458 0.4711,1.1709 0.4335,2.52957 -0.085,3.07372 -0.1528,0.16031 -1.343,0.47191 -2.6448,0.69249 -3.7611,0.63722 -6.6269,1.78796 -8.5562,3.4357 -1.1112,0.94894 -1.2406,1.00257 -1.3895,0.57566 z m -132.7809,-14.7141 c -0.3142,-2.96125 2.2556,-6.58037 6.3313,-8.91586 2.1274,-1.2191 3.0904,-1.3906 4.3549,-0.77549 1.188,0.57783 1.9251,1.66431 2.0669,3.04593 0.1732,1.69046 -0.2129,2.09584 -2.3368,2.45336 -3.9078,0.65781 -7.1179,2.06927 -9.3241,4.09979 l -1.0038,0.92392 -0.089,-0.83165 z m 103.99,-75.44993 c -3.2363,-0.76096 -6.0963,-2.52181 -8.1125,-4.99473 -2.2818,-2.79849 -2.9845,-6.09506 -2.2557,-10.57972 l 0.1404,-0.86346 -7.5798,-2.77826 -7.5797,-2.77827 -0.3399,-1.09691 c -0.187,-0.60327 -0.3052,-1.13499 -0.2629,-1.18154 0.077,-0.0851 16.7433,2.67366 17.553,2.90555 0.3985,0.11412 2.2409,2.60297 4.3064,5.81715 2.5425,3.9566 5.9255,10.62157 7.3387,14.45823 l 0.5475,1.4868 -1.1205,-0.0195 c -0.6164,-0.0107 -1.802,-0.17961 -2.635,-0.37545 z m -84.2999,-3.71928 c -1.9993,-1.6736 -3.0684,-5.64235 -2.5736,-9.55427 0.4395,-3.47425 1.5063,-4.88682 3.691,-4.88682 1.5531,0 3.463,1.20207 3.463,2.17959 0,0.2373 -0.4898,1.36941 -1.0882,2.51581 -1.5665,3.00062 -2.2024,5.33362 -2.2371,8.20826 -0.016,1.27474 -0.092,2.31847 -0.1734,2.3194 -0.081,0 -0.5667,-0.35094 -1.0817,-0.78197 z m 19.6777,-6.42396 c 0.1191,-2.94885 -0.3274,-5.20677 -1.6856,-8.52376 -0.8146,-1.98934 -0.8592,-2.2021 -0.5661,-2.69417 0.7944,-1.33301 3.4768,-1.85726 4.8801,-0.95374 1.0979,0.70689 1.5269,1.51345 1.7576,3.30362 0.2351,1.82577 -0.03,4.92882 -0.5644,6.59265 -0.5258,1.63853 -1.571,3.22317 -2.6392,4.00122 -0.5468,0.39825 -1.0588,0.72409 -1.1378,0.72409 -0.08,0 -0.1,-1.10246 -0.045,-2.44991 z m -13.1416,-4.70453 c 0.3861,-0.7933 0.039,-2.21334 -0.8045,-3.29789 -1.0992,-1.4119 -2.2301,-1.97514 -4.2296,-2.10646 -1.4896,-0.0978 -1.8015,-0.0402 -2.8565,0.52735 -0.6514,0.35044 -1.4402,0.97159 -1.7529,1.38033 -0.7552,0.98674 -1.0264,0.56054 -0.8808,-1.38358 l 0.1085,-1.4487 -0.7605,-0.39886 c -0.762,-0.39958 -1.1637,-0.35267 -1.1637,0.13584 0,0.14347 -0.2491,0.61986 -0.5533,1.05864 -0.572,0.8245 -1.6703,1.55002 -2.7999,1.8495 l -0.6489,0.17207 0.4723,-0.55461 c 0.6635,-0.77899 0.9488,-1.73599 0.9652,-3.23668 0.028,-2.58381 -1.7558,-5.05648 -4.1618,-5.76888 -0.4649,-0.13765 -0.8453,-0.30403 -0.8453,-0.3697 0,-0.0657 0.2121,-0.4349 0.4714,-0.8205 0.2593,-0.38561 0.4291,-0.74771 0.3772,-0.80466 -0.052,-0.057 -1.1157,-0.22354 -2.3643,-0.3702 -2.5008,-0.29371 -4.9965,-0.95735 -6.2546,-1.66312 -1.036,-0.58123 -2.0594,-1.85725 -2.4002,-2.99291 -0.2986,-0.99489 -0.2069,-4.49919 0.1352,-5.17047 0.1959,-0.38427 0.324,-0.33631 1.4309,0.53525 0.9376,0.73829 1.4153,0.95731 2.0876,0.95731 1.6326,0 3.2843,-1.19323 4.193,-3.02909 0.8272,-1.67115 0.9327,-2.7715 0.4246,-4.42663 l -0.4241,-1.38142 0.5667,-0.26478 c 0.3117,-0.14564 1.2969,-0.26817 2.1894,-0.27231 2.1912,-0.0102 3.5047,0.64123 5.0903,2.52444 1.5701,1.86484 2.0674,2.96788 2.5883,5.73973 0.1074,0.57163 0.4116,0.82094 2.0016,1.64027 2.4228,1.24846 3.6826,1.60449 5.6891,1.60796 l 1.632,0.003 1.3966,-2.07628 c 4.085,-6.07292 9.1442,-11.78091 15.0876,-17.0222 l 2.009,-1.77156 1.8851,-0.1627 c 2.6223,-0.22633 6.7401,-1.17051 9.5055,-2.17955 4.0805,-1.48889 10.0151,-4.94438 13.6504,-7.94794 l 0.7161,-0.59171 0.4082,0.59171 c 0.6497,0.9419 1.8582,3.79879 2.615,6.18191 0.684,2.15377 0.6901,2.21049 0.3225,2.96114 -0.3738,0.7629 -0.3724,0.76993 0.4094,2.23687 1.3893,2.60658 1.4307,4.60063 0.195,9.40902 -2.6843,10.4451 -11.0285,16.36094 -25.3962,18.00498 -1.3683,0.15656 -2.5612,0.35547 -2.651,0.44202 -0.09,0.0866 0.2729,0.71923 0.8061,1.40599 1.3148,1.69385 1.5955,2.76826 1.0976,4.2019 l -0.379,1.09118 -0.4849,-0.72278 c -2.4513,-3.65344 -8.1368,-3.32368 -9.8515,0.57142 l -0.4873,1.1066 0.8766,2.06678 0.8764,2.0668 -1.0095,0.0748 c -2.0949,0.15517 -3.931,-0.96829 -4.3267,-2.6476 -0.1153,-0.48898 -0.3079,-0.75058 -0.5435,-0.73781 -1.7527,0.0953 -1.6038,-0.0486 -1.7017,1.64284 -0.1,1.70885 -0.4905,2.49516 -1.6895,3.39246 -0.8913,0.66707 -1.1698,0.68057 -0.8589,0.0416 z m -29.6467,-1.48209 c 0,-2.93897 2.5266,-6.24418 6.4381,-8.42223 2.2763,-1.26746 3.1651,-1.38806 4.5278,-0.61423 1.0228,0.58086 1.7896,1.98875 1.7944,3.29481 0,1.50051 -0.2473,1.68282 -3.1011,2.2367 -1.4101,0.27369 -3.3225,0.81932 -4.2497,1.21255 -1.6247,0.68897 -4.1193,2.27749 -4.4219,2.81573 -0.081,0.14318 -0.3355,0.37174 -0.567,0.50789 -0.3923,0.2309 -0.4206,0.16159 -0.4206,-1.03122 z m 1.6226,-25.52164 c -2.6972,-2.24553 -5.6541,-3.68684 -8.4886,-4.13755 -0.8045,-0.12794 -1.6015,-0.23473 -1.771,-0.23732 -0.6019,-0.009 0.6461,-1.1358 2.002,-1.80715 2.6167,-1.29568 7.5254,-1.02027 10.6763,0.59903 1.4877,0.76457 2.0162,1.55068 2.0162,2.99926 0,1.72227 -1.1191,3.29768 -2.5239,3.55299 -0.481,0.0875 -0.8925,-0.12126 -1.911,-0.96926 z m 76.847,-6.34215 c -0.2341,-8.68026 -1.6491,-14.51212 -5.0652,-20.87462 -0.6672,-1.24297 -1.2437,-2.30048 -1.2808,-2.35004 -0.037,-0.0496 -0.9229,0.60714 -1.9686,1.4593 -3.0704,2.50237 -5.1702,3.92367 -8.3867,5.67679 -6.403,3.48993 -12.5114,4.95678 -19.3665,4.65063 -2.5745,-0.11499 -6.8398,-0.70225 -7.0888,-0.97601 -0.034,-0.0369 0.7881,-0.41942 1.8258,-0.85009 5.7237,-2.37549 12.5742,-7.31652 16.9107,-12.19719 l 1.1554,-1.30045 -0.3427,-0.72864 c -0.1884,-0.40076 -0.4314,-0.78907 -0.5402,-0.86295 -0.1085,-0.0738 -1.0809,0.18312 -2.1606,0.57109 -3.2292,1.1604 -5.3711,1.50334 -8.5698,1.37214 -1.5963,-0.0654 -3.3736,-0.28388 -4.1104,-0.50511 -1.4797,-0.44433 -5.9674,-2.83998 -6.4747,-3.45635 -0.3132,-0.38058 -0.2181,-0.46607 1.3381,-1.20317 3.6234,-1.7162 6.9211,-3.86773 10.1123,-6.59783 3.0185,-2.5822 4.8533,-4.56647 8.18,-8.84587 3.7539,-4.82916 5.8889,-7.16275 8.6316,-9.43482 8.43,-6.98333 19.0965,-10.95378 34.1358,-12.7065 2.274,-0.26502 4.2165,-0.48185 4.3168,-0.48185 0.1006,0 0.2175,-0.48653 0.2605,-1.08117 l 0.079,-1.08118 -2.7065,-0.93421 c -4.0133,-1.3852 -6.1482,-1.9062 -8.4475,-2.06135 -2.4876,-0.16784 -5.0755,0.3312 -7.019,1.35348 -0.7118,0.3744 -1.3186,0.65389 -1.3485,0.62108 -0.1513,-0.16646 0.4309,-1.76263 0.9346,-2.56165 1.4164,-2.24773 5.6205,-4.16146 12.2003,-5.55371 2.8487,-0.60277 2.5996,-0.35037 2.4501,-2.48323 -0.072,-1.02349 -0.06,-2.16827 0.027,-2.54394 0.154,-0.6664 0.1725,-0.64828 0.7618,0.74427 1.7465,4.12831 5.9291,6.31589 10.0431,5.25287 2.1655,-0.55956 3.9087,-1.66453 5.7025,-3.61463 1.7767,-1.93141 2.6333,-3.66998 2.849,-5.78144 0.7244,-7.09197 -5.8271,-12.43365 -18.56,-15.1324 -1.5735,-0.33354 -1.6051,-0.3303 -2.5188,0.25859 -0.9398,0.60555 -2.7611,2.57682 -2.9642,3.2082 -0.2547,0.79151 -0.4998,-0.18994 -0.5698,-2.28121 -0.065,-1.94707 -0.1274,-2.25007 -0.488,-2.37589 -0.6366,-0.22225 -1.6844,-1.27602 -2.09,-2.10225 -0.2959,-0.60288 -0.3786,-1.56075 -0.4335,-5.02678 -0.064,-4.02972 -0.1007,-4.35477 -0.62,-5.51784 -0.7211,-1.61479 -0.5663,-2.41805 0.7337,-3.80735 2.4852,-2.65598 9.1832,-5.11019 19.4658,-7.13244 l 3.2969,-0.64839 0.2235,-0.74438 c 0.336,-1.11952 1.4005,-2.17088 2.7721,-2.73784 0.6751,-0.27904 2.6877,-0.71924 4.4724,-0.97821 4.3481,-0.63093 5.0618,-0.82295 5.9492,-1.60102 1.69,-1.4815 2.3638,-3.78493 2.5332,-8.65958 l 0.1223,-3.51845 1.0739,1.61536 c 2.5281,3.8023 3.4849,6.98002 3.4445,11.43942 -0.02,2.25922 0.035,2.88497 0.2398,2.74808 0.1465,-0.0975 0.9405,-0.70447 1.7647,-1.34885 2.6606,-2.08056 6.064,-3.7103 9.8592,-4.72127 0.6853,-0.18259 2.3821,-0.31476 4.0022,-0.31178 2.4618,0.005 2.9471,0.0728 3.894,0.548 1.3117,0.65826 2.2034,1.55471 2.6137,2.62788 0.4049,1.05881 0.3902,3.76368 -0.03,5.58644 -0.4275,1.85189 -2.508,6.63098 -4.0009,9.19004 -1.1255,1.92946 -1.1415,1.98195 -0.9022,2.96578 1.0941,4.49794 3.2622,7.77104 6.9563,10.50155 l 1.3915,1.0285 -1.1751,0.60152 c -1.6482,0.84365 -2.6914,0.79086 -4.5337,-0.22942 -0.8299,-0.45958 -1.5087,-0.75397 -1.5083,-0.65419 0,0.0998 0.3442,1.61186 0.764,3.3602 1.8129,7.54995 2.3312,12.16569 2.3544,20.96677 0.011,3.72889 -0.065,7.82503 -0.1649,9.10254 l -0.1828,2.32276 -1.0663,-1.01438 c -1.6858,-1.60374 -3.2095,-2.56075 -4.0752,-2.55974 -0.8045,9.2e-4 -2.1729,0.75882 -2.1729,1.20332 0,0.14282 -0.1904,1.66985 -0.4232,3.39339 -1.8202,13.47959 -1.706,26.59837 0.3369,38.65968 0.1848,1.09112 0.2821,2.04319 0.2161,2.11571 -0.178,0.19583 -4.1515,-0.34611 -5.6464,-0.77011 -4.0121,-1.13795 -7.1776,-3.87539 -9.6084,-8.30883 -0.7633,-1.39203 -1.4551,-2.44689 -1.5376,-2.34411 -0.4325,0.53866 -1.16,5.90477 -1.2477,9.20327 -0.1666,6.26473 0.9298,11.04736 3.762,16.40886 2.665,5.04506 7.6643,10.84994 13.1768,15.30006 l 0.647,0.52234 -1.6226,-0.12042 c -10.0829,-0.74826 -14.3493,-1.79064 -18.2385,-4.45622 -3.0441,-2.08633 -5.0369,-4.64441 -7.2962,-9.36585 l -1.1632,-2.43077 -0.8454,1.59817 c -1.9632,3.71036 -2.5273,6.05627 -2.5273,10.5089 0,1.57557 -0.089,2.86467 -0.1961,2.86467 -0.558,0 -3.8528,-2.78734 -5.7645,-4.87669 -2.8119,-3.07315 -4.9519,-6.25327 -8.4142,-12.50377 l -2.8009,-5.05652 -0.2633,0.92986 c -0.1446,0.51144 -0.6225,2.21354 -1.0617,3.78248 -2.3061,8.2373 -6.4223,14.39739 -13.9838,20.92692 -1.1423,0.98635 -2.1231,1.79336 -2.1796,1.79336 -0.056,0 -0.1583,-2.0607 -0.2261,-4.57932 z m 33.7143,-115.92713 c 0.5655,-0.18718 1.9134,-0.35299 2.995,-0.36847 1.369,-0.0196 1.7695,-0.0833 1.3177,-0.20974 -1.1781,-0.32963 -3.7564,-0.25782 -4.5961,0.12802 -0.8809,0.40473 -1.5694,1.00708 -1.5694,1.37305 0,0.13083 0.1855,0.0533 0.4122,-0.17233 0.2267,-0.22562 0.8748,-0.56336 1.4406,-0.75053 z m 0.8514,-1.54929 c 1.3142,-0.40296 6.3027,-0.8981 9.4104,-0.93406 0.747,-0.009 0.738,-0.0203 -0.6489,-0.85182 -3.0047,-1.80146 -7.6401,-3.01459 -10.007,-2.61895 -0.8515,0.14234 -1.0873,0.29635 -1.368,0.89297 -0.1864,0.39652 -0.292,0.7726 -0.2346,0.83572 0.057,0.0631 0.1655,-0.0971 0.2402,-0.35598 0.1889,-0.65438 1.5039,-1.29962 2.2711,-1.11435 2.3283,0.56233 1.5053,4.166 -0.9514,4.166 -0.7252,0 -1.4236,-0.71689 -1.6276,-1.67093 l -0.1768,-0.82688 -0.021,0.8326 c -0.028,1.09522 0.7234,2.48002 1.2298,2.26615 0.2034,-0.0859 1.0511,-0.36511 1.8841,-0.62047 z m 11.4658,-1.7842 c -4.0161,-3.69536 -5.6437,-4.4698 -10.276,-4.8897 -2.893,-0.26225 -3.894,-0.58528 -3.894,-1.25663 0,-0.58368 1.4018,-1.69908 2.7173,-2.16222 1.5549,-0.54734 1.0547,-0.75883 -0.6422,-0.27157 -1.5874,0.45584 -3.0755,1.43276 -3.4744,2.28089 -0.2938,0.62464 -0.284,0.73059 0.1186,1.2934 0.539,0.75345 1.4374,1.01369 4.093,1.18558 3.8272,0.24774 7.0629,1.31299 10.1677,3.34747 1.8571,1.21683 2.106,1.31575 1.19,0.47278 z m -12.5475,-0.69083 c 0,-0.5443 -0.7263,-0.79998 -0.9817,-0.34559 -0.2675,0.47607 0.021,0.96874 0.5225,0.89016 0.2919,-0.0458 0.4592,-0.24416 0.4592,-0.54457 z m -63.6026,64.0943 c -9.4043,-1.58244 -15.7431,-8.2849 -20.0096,-21.15725 -0.4984,-1.50374 -0.9479,-2.80826 -0.9989,-2.89894 -0.052,-0.0906 -0.5532,0.37886 -1.116,1.04346 -0.5628,0.66458 -1.3367,1.35358 -1.7195,1.53109 -0.9347,0.43335 -2.6351,0.40794 -3.6415,-0.0545 l -0.821,-0.37719 0.6664,-0.68488 c 1.3101,-1.34622 1.7025,-4.28492 0.8223,-6.15657 -0.9173,-1.95068 -3.0967,-3.44336 -4.9613,-3.39809 -0.8761,0.0213 -1.18,0.15425 -1.756,0.76811 -0.8148,0.86853 -1.0174,0.62906 -0.7629,-0.902 0.2628,-1.57976 0.6705,-2.06654 2.5658,-3.0628 0.038,-0.02 -0.047,-0.46387 -0.1898,-0.98645 l -0.2589,-0.95014 -1.649,0.11812 c -1.0057,0.0721 -1.9023,0.01 -2.2981,-0.16024 -0.6126,-0.26271 -0.6246,-0.29262 -0.2163,-0.53201 1.2914,-0.75706 2.1632,-2.2694 2.3895,-4.14481 0.283,-2.34718 -0.8383,-4.64182 -2.8222,-5.77442 -0.595,-0.33965 -1.1216,-0.64365 -1.1705,-0.67556 -0.049,-0.0319 0.098,-0.28788 0.3245,-0.56884 0.6221,-0.76885 2.0204,-1.3841 3.1589,-1.38996 1.1379,-0.006 1.1839,-0.0471 1.2886,-1.15188 0.073,-0.76269 0.035,-0.80459 -1.0801,-1.21973 -0.6351,-0.23646 -1.3128,-0.60361 -1.5058,-0.81592 -0.324,-0.35608 -0.3076,-0.38601 0.2116,-0.38601 0.8544,0 2.5743,-1.40349 3.2926,-2.68681 0.7948,-1.42031 0.9798,-3.22411 0.4919,-4.79851 l -0.3395,-1.09586 0.8008,0.16353 c 0.4404,0.0899 1.638,0.50501 2.6613,0.92237 l 1.8606,0.75883 -0.021,-4.1847 -0.021,-4.18469 0.649,-1.2911 c 0.6108,-1.21513 2.3018,-2.7886 2.7035,-2.51562 0.084,0.0569 0.2783,1.07074 0.4324,2.25294 l 0.2803,2.14945 0.9641,0.70225 c 2.4703,1.79931 5.9504,0.94209 7.8439,-1.93212 l 0.6035,-0.91622 1.1681,1.04635 c 2.9469,2.63969 3.8795,5.55714 2.6809,8.38755 -0.9603,2.26786 -3.0435,4.24826 -5.5301,5.25709 l -1.1845,0.48057 -0.6353,1.99126 c -0.5041,1.58024 -0.6375,2.40863 -0.6464,4.0133 -0.018,3.33832 -0.036,3.31231 4.5835,7.08891 2.2235,1.81817 7.6936,6.23007 12.1555,9.80423 12.7314,10.19827 19.7908,16.23056 24.4143,20.86231 l 1.3745,1.37702 -2.0234,0.92289 c -4.335,1.97695 -8.4691,4.62914 -12.0831,7.75177 l -2.0554,1.77593 -3.7858,0.0514 c -2.0822,0.0282 -4.3699,-0.0468 -5.0838,-0.167 z m -39.4811,-20.83282 c -1.0792,-0.22886 -2.0684,-0.64013 -2.6854,-1.11645 l -0.63,-0.48644 1.2791,-0.40751 c 2.8702,-0.91448 5.0779,-2.40082 7.7396,-5.21075 2.0145,-2.12661 2.3039,-2.22891 3.7215,-1.31539 1.8836,1.21385 2.2971,3.74292 0.8561,5.23689 -1.954,2.02579 -7.6571,3.85616 -10.2809,3.29965 z m 70.3135,-11.28156 c -6.8057,-0.93856 -9.7999,-4.67922 -9.4689,-11.82908 0.1096,-2.3538 0.1981,-2.65412 0.6617,-2.23101 1.3564,1.23784 6.4812,3.76164 9.6972,4.77547 5.733,1.80736 8.8412,2.16277 20.0899,2.29717 5.1758,0.0618 10.0156,0.1716 10.7551,0.24391 1.2411,0.12135 1.3796,0.19354 1.7977,0.93758 0.2492,0.44336 0.5378,1.13106 0.6414,1.52823 0.1883,0.72197 0.1882,0.72209 -0.7159,0.72318 -1.5282,0.002 -12.577,1.54064 -14.596,2.0329 -0.4104,0.10006 -0.5533,-0.0321 -0.8345,-0.7725 l -0.3395,-0.89321 -0.4343,0.589 c -0.2389,0.32394 -0.5603,0.78619 -0.7142,1.02719 -0.2057,0.3223 -0.8141,0.52422 -2.3005,0.7635 -5.1554,0.82992 -11.4777,1.18853 -14.2392,0.80767 z m -81.3467,-7.60736 c 0,-0.63133 0.6699,-1.86903 1.5096,-2.78919 2.5499,-2.79433 9.3752,-4.64782 11.5852,-3.14601 1.373,0.9332 1.8739,3.05489 1.1064,4.68704 -0.5563,1.18303 -0.8705,1.25797 -3.168,0.75583 -2.3062,-0.50401 -6.47,-0.63097 -8.0046,-0.24408 -0.5354,0.135 -1.3993,0.41116 -1.92,0.6137 -1.1227,0.43672 -1.1086,0.43517 -1.1086,0.12271 z m 12.5418,-17.5149 c -3.1441,-2.15514 -5.6453,-3.12548 -8.6047,-3.33824 l -2.012,-0.14465 0.714,-0.81778 c 1.5965,-1.82828 4.3288,-2.584 7.9652,-2.20302 3.6775,0.38531 5.6073,1.2394 6.1747,2.73288 0.4204,1.10623 0.3929,1.68956 -0.1366,2.89195 -0.4296,0.9759 -1.5385,1.98717 -2.179,1.98717 -0.1676,0 -1.0322,-0.49874 -1.9216,-1.10831 z m 17.9649,-12.04297 c -0.75,-0.2879 -0.756,-0.30211 -1.2232,-2.83177 -0.7634,-4.13252 -1.5794,-6.16166 -3.4406,-8.55433 l -0.9904,-1.2734 0.887,-0.0736 c 3.0185,-0.25052 6.9924,3.05019 9.0098,7.48339 0.8782,1.93006 0.8644,2.68089 -0.072,3.90411 -1.0019,1.30939 -2.7752,1.88146 -4.171,1.34561 z"
       id="path4052-2"
       inkscape:connector-curvature="0" />
  </g>
</svg>
