<?xml version="1.0" encoding="UTF-8" standalone="no"?>
<!-- Created with Inkscape (http://www.inkscape.org/) -->

<svg
   width="597.50623"
   height="395.95157"
   id="svg4719"
   version="1.1"
   inkscape:version="1.4.3 (0d15f75, 2025-12-25)"
   sodipodi:docname="Flag_of_Velsen.svg"
   xmlns:inkscape="http://www.inkscape.org/namespaces/inkscape"
   xmlns:sodipodi="http://sodipodi.sourceforge.net/DTD/sodipodi-0.dtd"
   xmlns="http://www.w3.org/2000/svg"
   xmlns:svg="http://www.w3.org/2000/svg"
   xmlns:rdf="http://www.w3.org/1999/02/22-rdf-syntax-ns#"
   xmlns:cc="http://creativecommons.org/ns#"
   xmlns:dc="http://purl.org/dc/elements/1.1/">
  <defs
     id="defs4721" />
  <sodipodi:namedview
     id="base"
     pagecolor="#ffffff"
     bordercolor="#666666"
     borderopacity="1.0"
     inkscape:pageopacity="0.0"
     inkscape:pageshadow="2"
     inkscape:zoom="0.7"
     inkscape:cx="153.57143"
     inkscape:cy="237.14286"
     inkscape:document-units="px"
     inkscape:current-layer="layer1"
     showgrid="false"
     fit-margin-top="0"
     fit-margin-left="0"
     fit-margin-right="0"
     fit-margin-bottom="0"
     inkscape:window-width="1920"
     inkscape:window-height="991"
     inkscape:window-x="-9"
     inkscape:window-y="-9"
     inkscape:window-maximized="1"
     inkscape:showpageshadow="2"
     inkscape:pagecheckerboard="0"
     inkscape:deskcolor="#d1d1d1" />
  <metadata
     id="metadata4724">
    <rdf:RDF>
      <cc:Work
         rdf:about="">
        <dc:format>image/svg+xml</dc:format>
        <dc:type
           rdf:resource="http://purl.org/dc/dcmitype/StillImage" />
        <dc:title />
      </cc:Work>
    </rdf:RDF>
  </metadata>
  <g
     inkscape:label="Laag 1"
     inkscape:groupmode="layer"
     id="layer1"
     transform="translate(-9.8183155,-208.67212)">
    <rect
       style="fill:#0f47af;fill-opacity:1;fill-rule:evenodd;stroke:none"
       id="rect4658"
       width="597.50525"
       height="197.9899"
       x="9.8192921"
       y="208.67212" />
    <rect
       style="fill:#fcdd09;fill-opacity:1;fill-rule:evenodd;stroke:none"
       id="rect4658-1"
       width="597.50525"
       height="197.9899"
       x="9.8183155"
       y="406.63379" />
    <path
       style="fill:#fcdd09;fill-opacity:1"
       d="m 95.228826,391.17541 c 0,-0.9179 -0.018,-1.1484 -0.1336,-1.5589 -0.161,-0.5711 -0.523,-1.266 -0.9248,-1.7749 -0.3435,-0.4353 -1.1654,-1.2557 -1.2581,-1.2557 -0.036,0 -0.3378,0.2462 -0.6713,0.5474 -1.8803,1.6977 -3.2821,2.4631 -4.5109,2.4631 -0.238,0 -0.2471,-0.012 -0.2118,-0.1624 0.2029,-0.8927 0.1736,-1.8605 -0.088,-2.9072 -0.1409,-0.5641 -0.4429,-1.4195 -0.4984,-1.4114 -0.021,0 -0.2924,0.287 -0.6052,0.6316 -1.3628,1.5015 -3.3207,2.7914 -5.0232,3.3095 -0.4825,0.1469 -1.7849,0.4269 -1.8223,0.3919 -0.014,-0.014 0.2887,-0.6296 0.6727,-1.3696 0.9365,-1.8029 1.2807,-2.633 1.5554,-3.7517 0.1101,-0.4477 0.2892,-1.7237 0.2892,-2.0597 l 0,-0.2193 -0.4614,0.4242 c -0.5507,0.5062 -0.8563,0.7099 -1.3498,0.8996 -0.872,0.3349 -1.3831,0.082 -1.976,-0.9789 -0.2967,-0.5305 -0.4974,-1.1693 -0.5517,-1.7546 -0.022,-0.2354 -0.051,-0.4279 -0.064,-0.4279 -0.014,0 -0.3298,0.1641 -0.7015,0.3647 -1.5108,0.8154 -2.5473,1.1699 -3.5509,1.2145 -0.7571,0.033 -1.2112,-0.049 -1.9092,-0.3497 l -0.4245,-0.1826 0.1716,-0.1195 c 0.7701,-0.5386 1.0548,-1.0567 1.1304,-2.0568 l 0.038,-0.5099 -0.3408,0.086 c -0.2371,0.061 -0.5611,0.078 -1.0673,0.063 -0.6336,-0.021 -0.8073,-0.049 -1.3584,-0.2314 -0.3475,-0.1146 -0.6848,-0.2295 -0.7498,-0.2554 -0.1008,-0.04 -0.1115,-0.027 -0.073,0.086 0.087,0.2602 0.053,1.6133 -0.054,2.0269 -0.2417,0.943 -0.8127,1.5101 -1.8004,1.7878 -0.1583,0.045 -0.2986,0.071 -0.312,0.057 -0.014,-0.012 0.014,-0.1775 0.054,-0.3668 0.3574,-1.5691 -0.4172,-3.0516 -2.368,-4.5326 l -0.5925,-0.4498 -1.0743,0.5017 c -2.0015,0.9348 -3.1685,1.3246 -4.7072,1.5721 -0.7194,0.1157 -2.2278,0.1567 -2.848,0.077 l -0.293,-0.038 0,-0.3904 c 0,-1.4562 1.1037,-3.1876 3.4658,-5.4524 0.2287,-0.2191 0.3862,-0.3985 0.3502,-0.3985 -0.036,0 -0.3184,0.079 -0.6277,0.1776 -1.442,0.4553 -3.1401,0.7453 -4.7216,0.8062 -0.994,0.039 -0.9953,0.039 -0.9953,-0.091 0,-0.1468 0.7623,-1.2481 1.2923,-1.8669 0.8209,-0.9586 2.6484,-2.6644 4.0583,-3.7881 0.3188,-0.2541 0.5819,-0.4753 0.5842,-0.4916 0,-0.016 -0.2872,-0.1676 -0.6432,-0.3364 -1.3811,-0.6546 -2.6311,-1.5668 -4.5491,-3.3191 -0.3388,-0.3098 -0.615,-0.5902 -0.6136,-0.6232 0,-0.063 0.1858,-0.1855 1.5119,-1.0171 1.5543,-0.9746 3.1425,-1.5669 5.2068,-1.9413 l 0.5605,-0.1013 -0.039,-0.2999 c -0.02,-0.1649 -0.1224,-0.461 -0.2267,-0.6579 -0.2875,-0.5456 -0.6875,-0.8047 -1.8296,-1.1847 -0.3334,-0.1109 -0.7319,-0.245 -0.8854,-0.2979 l -0.279,-0.096 0.5951,-0.1716 c 1.9978,-0.5757 3.4431,-0.5001 5.1117,0.2678 0.3644,0.1677 0.6842,0.3136 0.7107,0.3244 0.087,0.035 0.051,-1.2699 -0.047,-1.7044 -0.2606,-1.1569 -0.9622,-2.2298 -2.3582,-3.6056 -0.5642,-0.556 -0.5735,-0.5699 -0.4526,-0.6721 0.086,-0.074 0.1475,-0.087 0.2037,-0.046 0.044,0.032 0.3646,0.075 0.712,0.093 0.7209,0.039 1.3712,0.2176 1.8596,0.5104 0.3558,0.2134 1.1415,0.9616 1.4608,1.3916 l 0.2181,0.2935 0.045,-0.6495 c 0.08,-1.1872 0.3193,-2.2698 0.7108,-3.2165 0.2482,-0.6001 0.9312,-1.8847 0.9575,-1.8011 0.014,0.032 0.1074,0.6036 0.2144,1.2692 0.3052,1.8855 0.5964,2.8981 1.1101,3.8614 0.3039,0.5696 0.6602,1.1164 0.7019,1.0773 0.014,-0.014 0.1226,-0.4254 0.2401,-0.9156 0.4565,-1.9039 1.0794,-2.9968 2.4227,-4.2511 0.4985,-0.4653 1.9004,-1.5694 1.9425,-1.5298 0.014,0.013 -0.066,0.4016 -0.1696,0.8723 -0.349,1.5953 -0.4455,2.7201 -0.3037,3.542 0.1034,0.5943 0.3807,1.3913 0.4528,1.2968 0.014,-0.016 0.1292,-0.28 0.2598,-0.5885 0.8344,-1.9594 2.4741,-3.7401 4.5912,-4.9851 0.5567,-0.3274 2.7012,-1.3902 2.805,-1.3902 0.018,0 -0.2099,0.3785 -0.5063,0.8411 -0.9397,1.4666 -1.4137,2.4629 -1.608,3.3795 -0.1279,0.607 -0.086,2.3354 0.056,2.3302 0.023,0 0.1702,-0.1911 0.3267,-0.423 0.1563,-0.2317 0.5118,-0.6368 0.7898,-0.8999 0.8678,-0.8215 1.9094,-1.387 3.412,-1.8527 0.7144,-0.2214 2.287,-0.5811 2.3345,-0.5338 0.014,0.012 -0.1473,0.2873 -0.3538,0.6118 -0.8105,1.2736 -1.3303,2.4244 -1.5858,3.5094 -0.2353,0.9994 -0.1842,2.3751 0.1212,3.2695 l 0.098,0.2855 0.1559,-0.433 c 0.33,-0.916 0.9147,-1.714 1.6386,-2.2359 0.4478,-0.3231 1.2191,-0.7901 1.2519,-0.7583 0.014,0.013 -0.02,0.2353 -0.074,0.4949 -0.06,0.2929 -0.1007,0.8313 -0.1045,1.4169 0,0.9863 0.06,1.4187 0.3549,2.2727 0.1763,0.5117 0.6577,1.4757 0.7369,1.4757 0.08,0 1.2778,-0.9155 1.3749,-1.0507 0.04,-0.055 0.3157,-0.8973 0.6134,-1.8714 0.5072,-1.6594 0.5514,-1.8489 0.7003,-3.0105 0.5867,-4.5744 0.8038,-10.2256 0.6022,-15.6728 l -0.064,-1.7413 -2.0935,-4.8406 c -1.1514,-2.6622 -2.0989,-4.8475 -2.1056,-4.8561 -0.017,-0.022 -13.9979,5.1637 -14.0469,5.2097 -0.022,0.021 0.042,0.3207 0.1422,0.6679 0.4419,1.5373 0.5414,2.5356 0.3023,3.0328 -0.1631,0.3385 -0.3449,0.4807 -0.8193,0.64 -0.2171,0.072 -0.395,0.1429 -0.395,0.1555 0,0.013 0.1388,0.1884 0.3082,0.3905 0.7964,0.9504 1.4612,2.0956 1.721,2.9651 0.1822,0.6092 0.1993,1.4478 0.04,1.9308 -0.3141,0.9486 -1.3977,1.7736 -2.4071,1.8328 l -0.2442,0.015 -0.4124,-1.1084 c -0.2269,-0.6096 -0.4197,-1.1011 -0.4283,-1.092 -0.014,0.012 0.069,0.5475 0.175,1.1968 0.1681,1.0381 0.1827,1.2275 0.1212,1.5687 -0.1932,1.0801 -0.8425,1.8256 -1.59,1.8256 -0.2761,0 -0.6611,-0.1544 -0.8308,-0.333 -0.058,-0.062 -0.4594,-1.3528 -0.9054,-2.9135 -0.4407,-1.5419 -0.8067,-2.8085 -0.813,-2.8146 0,-0.012 -0.663,0.7721 -1.4588,1.7293 -0.8843,1.0633 -1.5712,1.8323 -1.7658,1.9772 -0.1755,0.1304 -0.5332,0.335 -0.7952,0.4546 -0.4524,0.2066 -0.5083,0.2177 -1.1082,0.2177 -0.5636,0 -0.6666,-0.017 -0.9535,-0.1586 -0.6448,-0.3178 -1.04,-0.9406 -1.0879,-1.7148 -0.041,-0.677 0.124,-1.1572 0.6168,-1.7852 0.1281,-0.1632 1.4553,-1.8505 2.9493,-3.7499 1.4942,-1.8992 2.7369,-3.4851 2.7618,-3.5241 0.089,-0.1379 0.8057,-3.3111 1.0254,-4.5336 1.7681,-9.8425 4.4265,-14.6184 8.9205,-16.0249 0.8715,-0.2728 1.619,-0.3747 2.7469,-0.3745 l 0.9932,0 -0.196,-0.2083 c -0.4599,-0.4896 -0.5563,-1.0856 -0.269,-1.6624 0.09,-0.1784 0.2006,-0.3647 0.2484,-0.4139 0.074,-0.077 0.047,-0.1467 -0.1964,-0.5005 -0.6499,-0.9437 -0.6863,-1.6501 -0.1488,-2.8945 0.071,-0.1646 0.058,-0.2056 -0.1637,-0.5299 -0.4351,-0.6355 -0.5771,-1.3413 -0.4854,-2.4109 l 0.05,-0.5809 -0.3561,-0.4818 c -0.4677,-0.6328 -0.5863,-0.9341 -0.5536,-1.4087 0.028,-0.4136 0.1975,-0.791 0.544,-1.2152 0.1755,-0.2148 0.206,-0.2885 0.1499,-0.3624 -0.2199,-0.2892 -0.4096,-0.625 -0.5245,-0.9289 -0.11,-0.2912 -0.1252,-0.4401 -0.099,-0.9642 0.032,-0.6553 0.1462,-1.0209 0.5517,-1.7712 l 0.1886,-0.3491 -0.1305,-0.4895 c -0.1676,-0.6246 -0.229,-1.8291 -0.1253,-2.4534 0.086,-0.5183 0.3239,-1.2992 0.5477,-1.7973 0.1252,-0.2801 0.1516,-0.4382 0.1516,-0.9268 0,-0.324 0.031,-0.73 0.067,-0.9021 0.1854,-0.8535 0.7093,-1.7255 1.3904,-2.3147 l 0.3842,-0.3323 0.018,-0.5447 c 0.021,-0.6199 0.1857,-1.1028 0.6005,-1.7549 0.2786,-0.438 1.1133,-1.371 1.5107,-1.6889 0.1474,-0.1182 0.2569,-0.2244 0.2436,-0.2368 -0.014,-0.013 -0.1924,0.031 -0.398,0.098 -0.6355,0.2054 -1.2923,0.3513 -2.0164,0.4483 -0.9056,0.1212 -2.7915,0.1205 -3.7424,0 l -0.7091,-0.092 -0.4597,0.2301 c -0.6284,0.3148 -1.1453,0.4314 -1.9128,0.4314 -0.9676,0 -1.6617,-0.2049 -2.1814,-0.6436 -0.6399,-0.5399 -0.7173,-1.1394 -0.2429,-1.8806 l 0.1887,-0.2953 1.416,-0.5576 c 0.7786,-0.3068 1.4087,-0.5644 1.4,-0.5724 -0.013,-0.013 -0.6688,0.049 -1.4671,0.1286 -0.7983,0.078 -1.4977,0.1437 -1.5547,0.1444 -0.2266,0 -1.2851,-1.3803 -1.7332,-2.264 -0.4099,-0.8082 -0.5552,-1.4447 -0.5139,-2.2508 0.064,-1.2679 0.5743,-2.1816 1.8673,-3.3483 0.81,-0.7306 1.6893,-1.35 3.132,-2.2064 0.5936,-0.3522 1.4044,-0.8361 1.8015,-1.0754 l 0.7225,-0.4349 -0.524,-0.2301 c -0.6982,-0.3067 -1.2201,-0.6632 -1.7484,-1.1942 -1.2407,-1.2476 -1.4937,-2.4881 -0.7157,-3.5116 l 0.2376,-0.3128 0.3473,0.4067 c 0.8979,1.0513 1.6717,1.3825 2.6976,1.1543 0.6948,-0.1544 1.7956,-0.1383 2.3309,0.034 0.473,0.1522 0.8706,0.3942 1.2408,0.7552 l 0.2645,0.2577 0.2027,-0.295 c 0.8004,-1.1654 2.6816,-2.0097 5.2162,-2.3413 1.0261,-0.1342 3.2368,-0.1338 4.3599,0 2.8341,0.3398 4.9505,1.2105 5.8478,2.4052 0.4013,0.5348 0.5187,0.8699 0.5182,1.4798 0,0.284 0.014,0.5165 0.028,0.5165 0.015,0 0.5052,-0.092 1.0882,-0.204 3.052104,-0.5873 5.263104,-0.8173 7.082004,-0.7368 1.7242,0.076 2.657,0.4937 2.8451,1.2728 0.3585,1.4849 -2.6928,3.9608 -7.676004,6.229 l -0.9175,0.4176 0.2484,0.2639 c 0.4482,0.4754 0.5754,1.1996 0.3457,1.9651 l -0.1045,0.3463 0.1576,0.1964 c 0.577404,0.7191 0.668304,1.4975 0.263,2.2512 -0.091,0.1687 -0.1349,0.3123 -0.1,0.3233 0.2427,0.076 0.584604,0.3981 0.744204,0.7019 0.1574,0.2996 0.1847,0.4304 0.2124,1.0175 l 0.032,0.6738 7.8716,-10.5909 c 4.3294,-5.8251 7.8918,-10.6233 7.9163,-10.6626 0.025,-0.04 -0.068,-0.6149 -0.208,-1.2791 -0.2964,-1.4161 -0.5837,-3.2029 -0.7412,-4.6114 -0.157,-1.4028 -0.1601,-4.6764 0,-5.8146 0.5346,-3.9377 1.9033,-6.7655 4.4665,-9.228 0.4641,-0.4458 0.5672,-0.5725 0.4459,-0.5475 -0.9061,0.1877 -2.0518,0.1374 -2.6224,-0.1146 -1.1856,-0.5239 -1.3999,-1.7811 -0.6003,-3.5215 0.5928,-1.2903 1.7872,-2.7151 2.9699,-3.5426 1.7975,-1.2579 3.3158,-1.1428 4.1079,0.3116 0.1771,0.3255 0.3861,0.9594 0.4854,1.4719 l 0.051,0.2657 0.9949,0 c 0.5472,0 2.8398,-0.013 5.0948,-0.015 l 4.0997,-0.014 0.3887,-0.5756 0.3885,-0.5756 -0.049,-0.4722 c -0.086,-0.8571 -0.047,-1.7849 0.1008,-2.3589 0.3435,-1.3337 1.1135,-2.1776 2.3047,-2.5259 0.666,-0.1948 1.7494,-0.1778 2.535,0.04 2.8445,0.7877 4.6017,3.1277 3.9045,5.1994 -0.3367,1.0005 -1.0695,1.8705 -2.2838,2.712 -0.3178,0.2203 -0.5781,0.4419 -0.5781,0.4925 0,0.1109 1.6304,10.9088 1.6745,11.0902 0.019,0.078 0.39,0.3766 0.9744,0.7822 l 0.9435,0.655 0.4628,-0.091 c 0.2544,-0.049 0.7234,-0.1073 1.0421,-0.1267 2.0288,-0.125 2.898,0.8875 2.3298,2.7136 -0.5851,1.8803 -2.6634,4.1786 -4.3091,4.7658 -0.4518,0.1612 -1.1449,0.1804 -1.4752,0.041 -0.4486,-0.1893 -0.8226,-0.6383 -1.0399,-1.2481 -0.1266,-0.3555 -0.2834,-1.352 -0.2883,-1.834 l 0,-0.3542 -1.064,-0.6051 c -0.5853,-0.3327 -1.089,-0.6048 -1.1191,-0.6046 -0.083,0 -0.4961,0.6252 -0.7411,1.1216 -0.6177,1.2511 -0.8722,2.6522 -0.7335,4.0393 0.333,3.3276 2.6112,6.3841 5.9122,7.9316 1.606,0.753 3.1432,1.0794 5.0705,1.0766 2.1305,0 3.6374,-0.3249 6.1704,-1.3174 2.6463,-1.037 4.4853,-1.4681 6.708,-1.5725 6.0338,-0.2835 11.5395,2.4861 16.9472,8.5252 1.7527,1.9576 3.1425,2.9921 5.1018,3.7975 1.8463,0.7591 3.5898,1.0964 7.5434,1.4591 0.5733,0.053 1.0474,0.1003 1.0532,0.1061 0,0 0.03,0.08 0.054,0.1679 0.042,0.1561 0.035,0.1605 -0.6109,0.3429 -0.3594,0.1013 -0.8239,0.2347 -1.0324,0.2956 -1.7717,0.5171 -3.8705,0.8914 -5.6718,1.0115 -2.7133,0.1808 -5.1154,-0.3525 -7.058,-1.5672 -0.2905,-0.1817 -0.5346,-0.3235 -0.5424,-0.3151 -0.014,0.012 0.024,0.254 0.073,0.5462 0.3077,1.8864 0.4092,4.9566 0.2255,6.8181 -0.1494,1.5149 -0.3793,3.4201 -0.4202,3.4818 -0.022,0.032 -0.1073,0.061 -0.1889,0.061 -0.1306,0 -0.1702,-0.061 -0.3208,-0.4869 -0.8589,-2.4348 -2.1356,-5.1127 -3.3284,-6.9805 -1.2289,-1.9244 -2.2688,-3.169 -3.8476,-4.6048 -2.8405,-2.5835 -6.1486,-4.0472 -10.1337,-4.4834 -1.0534,-0.1159 -3.4888,-0.117 -4.6757,0 -2.1573,0.2061 -4.2153,0.6176 -6.6661,1.3334 -1.9691,0.5751 -4.3337,1.1359 -6.1922,1.4687 -6.7393,1.2064 -11.796,0.6829 -15.9228,-1.6488 -1.4169,-0.8003 -2.8044,-1.8086 -5.1214,-3.7215 -1.7463,-1.4417 -2.2099,-1.7909 -2.2844,-1.7213 -0.037,0.036 -3.4289,5.012 -7.5374,11.0612 l -7.4703,10.9983 0.6318,0.071 c 0.6987,0.078 1.027,0.18 1.3957,0.4332 0.2263,0.1556 0.6911,0.6716 0.7477,0.8302 0.014,0.04 0.1787,-0.034 0.3969,-0.1772 0.7967,-0.5213 1.6006,-0.5966 3.2133,-0.3009 l 0.9658,0.1772 0.3983,-0.146 c 0.4627,-0.1693 0.9766,-0.2673 1.4022,-0.2673 0.8235,0 1.8756,0.377 2.8088,1.0065 l 0.5399,0.364 0.3913,-0.1782 c 0.5672,-0.2584 1.0172,-0.3661 1.5243,-0.3644 0.5855,0 0.9163,0.077 1.4777,0.3352 0.4517,0.2078 0.4673,0.2105 0.6735,0.1182 0.1155,-0.052 0.3888,-0.1242 0.6063,-0.161 0.527,-0.089 0.9636,-0.015 2.1003,0.3597 0.7266,0.2392 0.9462,0.2886 1.1582,0.2606 0.4152,-0.054 1.5864,0.08 2.1078,0.2443 0.6227,0.195 1.0616,0.4347 1.5161,0.8276 l 0.3713,0.3214 0.4622,-0.1347 c 0.6651,-0.1937 1.6111,-0.1913 2.2552,0 0.5696,0.1742 1.2648,0.5894 1.7363,1.037 l 0.3527,0.3348 0.4763,-0.072 c 0.9867,-0.1486 1.5696,0.053 2.5135,0.8727 l 0.6164,0.5347 0.9316,0 c 1.4154,0 2.4718,0.2491 3.9031,0.9264 4.6656,2.2074 9.4961,8.1207 12.2741,15.026 0.6918,1.7194 1.226,3.6344 1.5025,5.3859 0.1391,0.8798 0.1877,2.6019 0.095,3.3507 -0.1734,1.3956 -0.5874,2.486 -1.2665,3.3352 l -0.189,0.2361 0.712,1.3282 c 1.1452,2.1366 1.4506,3.2914 1.2199,4.6133 -0.2025,1.1613 -0.7727,2.2777 -1.6928,3.3146 -0.1672,0.1885 -0.3044,0.3876 -0.3051,0.4427 0,0.055 -0.1408,2.6151 -0.3116,5.6887 -0.2797,5.0371 -0.3017,5.623 -0.2225,5.9399 0.5111,2.0468 0.8627,4.0824 0.9876,5.7182 0.09,1.167 0,2.3736 -0.2261,3.083 -0.078,0.2471 -0.1551,0.4893 -0.1691,0.5378 -0.06,0.2084 0.2433,0.05 1.0938,-0.5684 2.2959,-1.6714 4.5399,-2.9063 7.3265,-4.0318 0.6486,-0.262 1.1966,-0.4764 1.2177,-0.4764 0.02,0 -0.4695,0.6309 -1.0899,1.402 -0.6204,0.7712 -1.248,1.5685 -1.3945,1.7719 -0.391,0.543 -0.8741,1.5118 -1.017,2.0397 -0.1142,0.4206 -0.1923,1.3573 -0.1197,1.4255 0.017,0.016 0.2986,0 0.6268,-0.037 1.1247,-0.1205 2.5512,0.013 4.4458,0.4117 l 1.0688,0.2258 -0.9233,0.4592 c -1.2523,0.6228 -1.8688,1.1579 -2.0629,1.7905 l -0.054,0.1733 0.7986,0.039 c 2.5806,0.1237 4.3837,0.8522 6.2174,2.5119 0.409,0.3701 0.7361,0.68 0.7268,0.6886 -0.014,0.013 -0.6074,-0.087 -1.3298,-0.2124 -0.7224,-0.1253 -1.6608,-0.2592 -2.0852,-0.2978 -1.3189,-0.1194 -2.7121,0.018 -3.6785,0.3636 -0.441,0.1576 -0.5117,0.1233 0.7824,0.3796 1.3015,0.2579 2.1888,0.5725 2.9139,1.0337 0.3517,0.2235 1.2231,0.9418 1.1852,0.977 -0.014,0.013 -0.4459,-0.048 -0.966,-0.1318 -0.753,-0.1206 -1.1776,-0.1524 -2.0831,-0.158 -1.2258,-0.013 -1.7478,0.053 -2.5906,0.2991 -0.5293,0.1548 -1.4848,0.5747 -1.4848,0.6527 0,0.025 0.2061,0.094 0.458,0.1539 1.4262,0.3383 2.7755,0.8484 3.6249,1.3703 0.5828,0.3582 1.4024,1.1374 1.7212,1.6361 0.1937,0.3035 0.715,1.4067 0.68,1.4395 -0.013,0.012 -0.5154,-0.2217 -1.1273,-0.5094 -2.0062,-0.9433 -3.5529,-1.3041 -5.2546,-1.226 -1.9045,0.088 -3.5767,0.708 -5.5837,2.0718 -0.2868,0.1948 -0.5213,0.3708 -0.5213,0.3909 0,0.021 0.2307,0.084 0.5128,0.1399 2.4522,0.4923 4.7119,1.8762 6.4192,3.9312 0.3244,0.3905 1.1558,1.5521 1.1558,1.6149 0,0.019 -0.7037,-0.2913 -1.5638,-0.6894 -2.1938,-1.0156 -3.0123,-1.2659 -4.3283,-1.3235 -0.4083,-0.018 -0.7424,-0.015 -0.7424,0.012 0,0.2047 0.9055,2.53 1.2018,3.0857 0.4883,0.9162 0.9025,1.4157 1.6022,1.9319 l 0.5681,0.4189 -0.691,0.018 c -1.0672,0.029 -1.7299,-0.1547 -2.3256,-0.6444 l -0.2924,-0.2404 0,0.1968 c 0,0.342 0.1845,1.4195 0.3168,1.87 0.2413,0.8224 0.5401,1.1928 1.2284,1.5229 0.2613,0.1254 0.4752,0.2432 0.4754,0.262 0,0.04 -0.8389,0.2109 -1.295,0.2637 -0.408,0.047 -1.1172,-0.092 -1.6204,-0.3177 l -0.3871,-0.1735 0.042,0.4633 c 0.056,0.6279 0.2289,1.1127 0.6039,1.6928 0.1733,0.2678 0.3018,0.4871 0.2859,0.4871 -0.11,0 -1.371,-0.6299 -1.6616,-0.8305 -0.1972,-0.1359 -0.7086,-0.5818 -1.1365,-0.9908 l -0.7781,-0.7435 0.051,0.323 c 0.029,0.1779 0.049,0.5888 0.045,0.9135 0,0.4722 -0.041,0.6848 -0.1775,1.0626 -0.1389,0.3853 -0.6276,1.2691 -0.7017,1.2691 -0.014,0 -0.1754,-0.2083 -0.3663,-0.4628 -0.4141,-0.5521 -0.8749,-0.9504 -1.6854,-1.4566 -0.5554,-0.3469 -2.0597,-1.0912 -2.2056,-1.0912 -0.037,0 -0.024,0.1024 0.032,0.251 0.218,0.5766 0.2944,1.0625 0.2666,1.6937 -0.025,0.5664 -0.047,0.6577 -0.2321,0.9781 -0.1128,0.1945 -0.2834,0.4402 -0.3802,0.546 l -0.1759,0.1925 -0.3308,-0.3696 c -0.8623,-0.9634 -2.1025,-1.7808 -3.5445,-2.3362 -0.7114,-0.274 -1.6392,-0.5654 -1.6796,-0.5276 -0.017,0.015 0.028,0.2498 0.096,0.5225 0.4253,1.6848 0.3039,2.9884 -0.4248,4.5635 -0.2063,0.4458 -0.2267,0.4428 -0.3919,-0.053 -0.2322,-0.6986 -0.8626,-1.4092 -1.8214,-2.0542 -0.5515,-0.3709 -1.7666,-1.045 -1.8839,-1.045 -0.04,0 -0.092,0.1262 -0.1156,0.2804 -0.094,0.5999 -0.3758,1.6731 -0.6387,2.4235 -0.5264,1.502 -1.1704,2.5495 -2.1414,3.4827 l -0.5714,0.549 -0.6634,-0.2308 c -0.829,-0.2884 -1.5807,-0.6399 -2.2747,-1.0633 -0.6752,-0.4121 -1.8572,-1.5079 -2.399,-2.2243 -0.221,-0.2922 -0.4234,-0.5546 -0.4498,-0.5829 -0.026,-0.029 -0.1394,0.1183 -0.251,0.3247 -0.6849,1.2697 -1.6956,2.2808 -2.745,2.7462 -1.8073,0.8013 -4.123,0.5042 -6.7403,-0.8652 l -0.6975,-0.3648 -0.641,0.2351 c -1.3573,0.4982 -2.2611,0.7005 -3.4528,0.7731 -1.3002,0.079 -2.3292,-0.047 -3.6329,-0.4457 -0.4951,-0.1514 -2.3421,-0.9275 -2.7171,-1.1415 -0.2171,-0.1239 -2.3463,-1.1217 -2.3938,-1.1217 -0.018,0 -0.1239,0.1624 -0.2372,0.361 -0.2735,0.4791 -0.6638,0.8754 -1.0618,1.0779 -0.2616,0.133 -0.403,0.1646 -0.7241,0.1623 -0.7377,0 -1.3592,-0.323 -2.6039,-1.331 -0.3418,-0.2769 -0.6381,-0.4841 -0.6586,-0.4605 -0.02,0.023 -0.1293,0.304 -0.242004,0.6232 -0.9047,2.5589 -2.2666,4.0586 -4.0813,4.4942 -0.6308,0.1516 -0.5809,0.2367 -0.5785,-0.9868 z m 46.954404,-35.9391 c 0.3407,-0.097 0.5233,-0.2027 0.9314,-0.5321 1.4314,-1.1556 2.9483,-1.7608 4.8079,-1.9183 0.3914,-0.033 0.503,-0.064 0.5551,-0.1555 0.1074,-0.1882 0.3543,-1.6721 0.4696,-2.8283 0.1295,-1.2926 0.096,-3.854 -0.063,-4.9215 -0.5208,-3.4865 -1.6864,-6.5163 -4.1309,-10.7388 l -0.4414,-0.7625 -1.4115,-0.4528 c -3.1585,-1.013 -5.465,-2.0581 -7.8249,-3.5456 -1.4515,-0.9146 -2.7728,-1.9482 -5.0386,-3.9409 -0.6338,-0.5575 -1.1764,-1.0137 -1.2056,-1.0137 -0.028,0 -0.1891,0.352 -0.3548,0.7821 -1.4136,3.67 -3.9201,7.9007 -7.5744,12.7851 l -0.6771,0.905 -0.4453,1.6628 c -0.91,3.3991 -1.7368,6.1301 -2.3888,7.8889 -0.1741,0.4698 -0.311,0.857 -0.3043,0.8603 1.1395,0.5611 2.533,1.7794 3.3506,2.9289 l 0.4492,0.6316 0.1659,-0.4239 c 0.3843,-0.9807 0.9198,-1.7823 1.6909,-2.5315 0.5061,-0.4917 1.1879,-1.0337 1.2389,-0.985 0.049,0.046 0.8146,1.6942 1.1199,2.4081 0.172,0.4027 0.4279,1.0669 0.5686,1.4758 0.1408,0.409 0.2743,0.7904 0.2966,0.8474 0.036,0.092 0.092,0.072 0.4579,-0.1574 0.767,-0.4811 1.2876,-1.1662 1.5517,-2.042 0.1809,-0.5999 0.1535,-2.3617 -0.054,-3.4113 l -0.1544,-0.7844 0.1937,0.039 c 1.1017,0.2212 1.9526,0.5897 2.5295,1.0953 0.8106,0.7109 1.1269,1.5009 1.332,3.3272 0.168,1.4961 0.2805,1.889 0.6548,2.2874 0.4309,0.4586 1.2258,0.5444 2.1394,0.2309 0.7686,-0.2637 1.331,-0.6396 1.9004,-1.27 2.2518,-2.4938 3.8869,-3.5581 6.5918,-4.2906 0.4752,-0.1286 0.8796,-0.234 0.899,-0.234 0.019,0 -0.1826,0.2591 -0.4484,0.5756 -1.7709,2.1086 -3.0502,4.7271 -2.8058,5.7429 0.1362,0.5675 0.5773,0.7114 1.4281,0.466 z m -33.7939,-4.1427 c 3.8335,-4.8152 6.144,-9.2572 6.9319,-13.3263 0.256,-1.3217 0.3216,-2.0227 0.3152,-3.3647 -0.014,-2.3969 -0.4375,-4.4254 -1.4205,-6.7677 -0.6705,-1.5975 -2.3824,-4.6368 -2.6725,-4.7447 -0.1883,-0.07 -3.7437,-0.3831 -6.694,-0.5894 -1.385,-0.096 -3.1743,-0.2558 -3.9765,-0.3534 -0.8019,-0.098 -1.509104,-0.1774 -1.571604,-0.1774 -0.1501,0 -0.1587,0.048 -0.2737,1.5348 -0.3853,4.9771 -1.2432,11.3225 -2.2439,16.5981 -0.3236,1.7055 -0.3204,2.3633 0.033,6.8371 0.082,1.0552 0.1858,2.4143 0.2274,3.0202 l 0.076,1.1016 0.7324,-0.6209 c 0.8235,-0.698 2.580904,-1.828 2.683804,-1.7257 0.045,0.044 0.296,1.5372 0.3424,2.0266 l 0.045,0.4666 0.3364,-0.5316 c 0.1852,-0.2923 0.5257,-0.7679 0.7567,-1.0569 0.46,-0.5753 1.9665,-2.0034 2.0352,-1.9292 0.024,0.025 0.1087,0.2056 0.1887,0.4004 0.2239,0.544 0.8516,1.7023 1.178,2.1739 0.467,0.6745 1.0259,1.2706 1.5692,1.6733 0.277,0.2055 0.5235,0.3736 0.5476,0.3736 0.025,0 0.4087,-0.4583 0.8546,-1.0183 z m 31.5938,-109.4396 c -0.2498,-1.8069 -0.4682,-3.2983 -0.4853,-3.314 -0.029,-0.026 -2.913,3.7322 -2.9579,3.8547 -0.017,0.045 3.85,2.7866 3.8858,2.7549 0,0 -0.1928,-1.4887 -0.4426,-3.2956 z m -7.7707,-3.5461 0.7705,-1.1358 -2.8557,-0.039 c -1.5708,-0.022 -2.8628,-0.032 -2.8715,-0.024 -0.025,0.022 4.0518,2.3266 4.1228,2.3308 0.035,0 0.4101,-0.5073 0.8339,-1.1319 z"
       id="path4656"
       inkscape:connector-curvature="0" />
    <path
       style="fill:#000000"
       d="m 95.068826,391.26401 c 0,-0.9914 -0.014,-1.1989 -0.1336,-1.6269 -0.2482,-0.8777 -0.8697,-1.8133 -1.7102,-2.574 l -0.3206,-0.2903 -0.6033,0.5173 c -1.4868,1.2752 -1.9458,1.5995 -2.8463,2.0128 -0.7088,0.3252 -1.1829,0.4397 -1.8251,0.4406 l -0.3087,0 0.043,-0.2804 c 0.1577,-1.0343 0.1718,-1.2831 0.1046,-1.8634 -0.063,-0.5466 -0.3318,-1.6486 -0.5038,-2.0648 l -0.067,-0.1648 -0.2028,0.2239 c -1.5989,1.7652 -3.3564,2.9505 -5.2954,3.5714 -0.5595,0.1792 -2.157,0.5307 -2.2056,0.4852 -0.015,-0.015 0.3296,-0.7099 0.7665,-1.5456 0.912,-1.7443 1.241,-2.5065 1.5025,-3.4827 0.1708,-0.637 0.4043,-2.0764 0.3458,-2.1312 -0.014,-0.014 -0.2162,0.1405 -0.45,0.3406 -0.4628,0.3961 -1.1766,0.7623 -1.5867,0.8137 -0.1415,0.018 -0.4018,0 -0.5785,-0.04 -0.2764,-0.062 -0.3607,-0.1183 -0.6058,-0.4056 -0.5651,-0.6623 -0.9694,-1.5778 -1.0769,-2.4378 l -0.041,-0.3332 -0.5465,0.2952 c -1.1276,0.6092 -2.0689,0.9846 -2.8565,1.1394 -0.5767,0.1134 -1.3857,0.1122 -1.8627,0 -0.3375,-0.082 -1.3078,-0.4601 -1.4392,-0.5618 -0.029,-0.022 0.138,-0.1663 0.3697,-0.3207 0.6463,-0.4309 0.9315,-0.9381 1.0183,-1.8104 l 0.039,-0.3952 -0.2455,0.054 c -0.6586,0.1454 -1.7726,0.042 -2.5598,-0.2375 -0.1867,-0.066 -0.3583,-0.1207 -0.3811,-0.1207 -0.023,0 -0.041,0.3387 -0.04,0.7527 0,1.7968 -0.5491,2.6 -2.1181,3.0822 -0.2368,0.072 -0.4409,0.1227 -0.4536,0.111 -0.013,-0.012 0.021,-0.2071 0.073,-0.434 0.2615,-1.1163 0.045,-2.078 -0.685,-3.0395 -0.461,-0.6073 -1.9124,-1.8889 -2.1393,-1.8889 -0.046,0 -0.2839,0.1024 -0.53,0.2285 -1.199,0.6123 -2.9748,1.2926 -4.0809,1.5637 -1.2366,0.3029 -2.6905,0.4096 -4.0044,0.2937 l -0.4341,-0.039 0.032,-0.6255 c 0.036,-0.7087 0.1791,-1.2036 0.5494,-1.9 0.4496,-0.8454 1.3494,-1.9728 2.4453,-3.0634 0.3807,-0.379 0.459,-0.4836 0.3377,-0.4515 -2.0949,0.556 -3.7208,0.8048 -5.2603,0.805 l -0.6159,0 0,-0.21 c 0,-0.1515 0.091,-0.3443 0.3284,-0.6936 1.0107,-1.4881 2.5979,-3.1047 4.8527,-4.9419 0.3302,-0.2691 0.6073,-0.505 0.6158,-0.5242 0.014,-0.02 -0.2484,-0.1606 -0.5711,-0.314 -1.2155,-0.5779 -2.5188,-1.532 -4.1724,-3.0549 l -1.0633,-0.9793 0.9764,-0.6325 c 1.2112,-0.7849 1.5537,-0.9801 2.3507,-1.3414 1.0606,-0.4807 2.24,-0.8393 3.4752,-1.0569 l 0.5688,-0.1003 -0.014,-0.218 c -0.02,-0.3309 -0.2574,-0.7843 -0.5277,-1.0126 -0.3396,-0.2864 -0.6291,-0.4141 -1.8843,-0.8308 -0.6046,-0.2007 -1.0737,-0.3784 -1.0426,-0.3949 0.1034,-0.055 1.5669,-0.4546 1.9836,-0.5415 1.3705,-0.2857 2.7934,-0.1159 4.1312,0.4945 l 0.6245,0.2845 -0.033,-0.7176 c -0.068,-1.4901 -0.7154,-2.6514 -2.3466,-4.2155 l -0.6315,-0.6054 0.2465,-0.2357 c 0.1637,-0.1568 0.2674,-0.216 0.3092,-0.1767 0.035,0.032 0.2293,0.06 0.4323,0.06 0.5616,0 1.2908,0.1611 1.8145,0.4008 0.4748,0.2174 1.1313,0.7543 1.5629,1.2781 l 0.1917,0.2327 0.045,-0.4688 c 0.096,-1.0112 0.3193,-2.0294 0.6111,-2.7874 0.1589,-0.4124 1.2019,-2.4334 1.256,-2.4334 0.022,0 0.1451,0.6671 0.2752,1.4823 0.2555,1.6028 0.5516,2.7969 0.8732,3.5206 0.2407,0.5414 0.6767,1.3134 0.7421,1.3134 0.026,0 0.098,-0.2543 0.1601,-0.5652 0.1548,-0.7681 0.5822,-1.9164 0.9163,-2.4619 0.6456,-1.0539 1.5911,-2.0167 3.0685,-3.1241 0.4169,-0.3127 0.7654,-0.5615 0.7746,-0.5531 0.013,0.013 -0.096,0.5576 -0.2343,1.22 -0.2993,1.4373 -0.3831,2.0351 -0.3803,2.7083 0,0.5457 0.121,1.2719 0.2593,1.5854 l 0.086,0.1969 0.2363,-0.5215 c 0.8675,-1.9137 2.6118,-3.7183 4.7803,-4.9456 0.9712,-0.5496 3.1211,-1.5336 3.0395,-1.3911 -0.039,0.067 -0.3554,0.5651 -0.7052,1.108 -0.9154,1.4204 -1.3244,2.2171 -1.5384,2.9954 -0.1502,0.5463 -0.2308,1.425 -0.1758,1.9174 l 0.05,0.4416 0.2921,-0.3825 c 0.8697,-1.1389 2.2686,-2.0138 4.1308,-2.5837 0.7956,-0.2435 2.5978,-0.6455 2.6549,-0.5921 0.018,0.017 -0.1988,0.4001 -0.4823,0.8513 -1.5259,2.4271 -2.0091,4.2421 -1.6298,6.1231 l 0.082,0.4031 0.2642,-0.5282 c 0.4884,-0.976 1.114,-1.6014 2.306,-2.3062 0.3921,-0.232 0.72,-0.415 0.7287,-0.4067 0.014,0.013 -0.045,0.3069 -0.117,0.6639 -0.099,0.4801 -0.1347,0.8875 -0.1363,1.5643 0,0.9195 0.066,1.3796 0.3238,2.1545 0.132,0.3976 0.596,1.3873 0.65,1.3873 0.023,0 0.3127,-0.2083 0.6418,-0.4631 l 0.5985,-0.4631 0.5484,-1.7948 c 0.5153,-1.6864 0.5579,-1.8697 0.7067,-3.0344 0.5858,-4.5803 0.8015,-10.2006 0.6,-15.6164 l -0.064,-1.7439 -3.1525,-7.2785 c -1.7338,-4.0032 -3.164,-7.2894 -3.1781,-7.3025 -0.033,-0.031 -4.0353,-0.568 -4.0588,-0.5441 -0.014,0.013 -1.7151,2.4212 -3.7893,5.358 -2.734,3.871 -3.7629,5.373 -3.7404,5.4605 0.018,0.067 0.132,0.4868 0.2566,0.9342 0.3765,1.3565 0.3997,2.2663 0.071,2.7896 -0.1642,0.2616 -0.3081,0.3694 -0.6654,0.4979 -0.3437,0.1235 -0.3521,0.1546 -0.1142,0.4269 0.3758,0.4304 0.9418,1.288 1.2582,1.9062 0.7016,1.3714 0.7981,2.5549 0.2852,3.4983 -0.4345,0.7991 -1.4017,1.4165 -2.389,1.5249 l -0.3376,0.038 -0.1463,-0.4245 c -0.082,-0.2336 -0.1536,-0.4158 -0.1625,-0.4051 -0.014,0.013 0.013,0.2334 0.047,0.4945 0.051,0.3848 0.043,0.5555 -0.04,0.9006 -0.2668,1.1031 -0.9282,1.7804 -1.7406,1.7822 -0.3087,0 -0.7963,-0.2176 -0.9639,-0.4316 -0.056,-0.072 -0.4356,-1.2989 -0.8433,-2.727 -0.4073,-1.428 -0.7628,-2.6183 -0.79,-2.645 -0.028,-0.026 -0.6467,0.6716 -1.3766,1.552 -1.4386,1.7351 -1.7056,1.9824 -2.543,2.3555 -0.4489,0.1999 -0.5085,0.2111 -1.1373,0.2127 -0.6,0 -0.6937,-0.014 -0.9794,-0.1562 -1.1536,-0.576 -1.5769,-2.0003 -0.9451,-3.1794 0.078,-0.1472 1.3451,-1.7941 2.8134,-3.66 1.4685,-1.8657 2.8087,-3.5702 2.9783,-3.7877 l 0.3086,-0.3955 0.4013,-1.701 c 0.2205,-0.9355 0.4476,-1.9795 0.5046,-2.32 1.2305,-7.3685 3.1571,-12.2129 5.8364,-14.6757 1.6573,-1.5235 3.5313,-2.2564 5.8419,-2.2848 0.443,0 0.797,-0.023 0.7868,-0.04 -0.014,-0.016 -0.1,-0.1854 -0.1975,-0.3758 -0.1573,-0.3049 -0.1746,-0.3929 -0.1458,-0.7379 0.029,-0.3506 0.1779,-0.757 0.3701,-1.0121 0.053,-0.069 0.017,-0.1601 -0.1549,-0.3976 -0.6215,-0.8626 -0.7062,-1.8076 -0.2506,-2.7939 l 0.1519,-0.3293 -0.2264,-0.3201 c -0.4099,-0.5798 -0.4975,-0.949 -0.4884,-2.0615 l 0.014,-0.974 -0.3333,-0.4723 c -0.4272,-0.605 -0.5466,-0.894 -0.5466,-1.322 0,-0.4257 0.1197,-0.7538 0.4453,-1.2208 l 0.2506,-0.3593 -0.3005,-0.5544 -0.3006,-0.5542 0,-0.7101 c 0,-0.7825 0.099,-1.1564 0.5087,-1.923 l 0.2065,-0.3865 -0.1307,-0.4695 c -0.1073,-0.387 -0.1308,-0.6556 -0.1334,-1.5319 0,-0.9652 0.013,-1.1143 0.1613,-1.6283 0.091,-0.3113 0.2526,-0.7715 0.3603,-1.0229 0.1745,-0.4071 0.1958,-0.5228 0.1958,-1.0627 0,-1.2748 0.4824,-2.3223 1.5,-3.2579 0.3495,-0.3214 0.3549,-0.3314 0.3398,-0.6365 -0.044,-0.8803 0.4777,-1.9397 1.4864,-3.0201 0.2258,-0.242 0.3872,-0.4393 0.3589,-0.4385 -0.029,0 -0.265,0.055 -0.5257,0.1206 -1.2038,0.3021 -3.4968,0.3994 -4.9601,0.2106 -0.6411,-0.082 -0.7074,-0.082 -0.853,0.012 -1.0593,0.6597 -2.8474,0.7562 -3.9897,0.2154 -1.0258,-0.4857 -1.3624,-1.3244 -0.8902,-2.2202 0.1101,-0.2098 0.2514,-0.423 0.3131,-0.4738 0.062,-0.051 0.5244,-0.2539 1.0284,-0.4513 0.5039,-0.1976 0.8593,-0.3594 0.7898,-0.3598 -0.069,0 -0.4961,0.039 -0.9479,0.087 -1.2097,0.1278 -1.0883,0.1589 -1.5609,-0.3991 -0.8747,-1.0326 -1.4507,-2.0404 -1.6951,-2.9662 -0.1882,-0.7122 -0.1538,-1.6748 0.082,-2.3135 0.5798,-1.5669 1.8818,-2.7824 4.9209,-4.5936 0.5331,-0.3178 1.2537,-0.7502 1.6008,-0.9608 l 0.6312,-0.3829 -0.3572,-0.1616 c -1.6114,-0.7285 -2.8955,-2.2992 -2.8955,-3.5414 0,-0.4822 0.1606,-0.9156 0.5183,-1.3991 l 0.3145,-0.4251 0.3692,0.4341 c 0.9168,1.0778 1.6411,1.447 2.4943,1.2715 0.8048,-0.1655 1.4352,-0.1984 2.0236,-0.105 0.6992,0.1098 1.1877,0.3194 1.6308,0.6977 l 0.3374,0.2882 0.3104,-0.3626 c 1.0868,-1.269 3.2983,-2.057 6.2638,-2.2317 3.0485,-0.1798 6.1623,0.4061 8.0107,1.5072 0.5631,0.3354 1.2404,1.0026 1.474,1.4518 0.2107,0.4052 0.3448,1.0174 0.2847,1.2987 -0.047,0.2181 -0.054,0.2181 1.0763,0 2.842104,-0.5508 5.177504,-0.7883 6.959604,-0.7073 2.0432,0.093 3.0267,0.6418 3.0191,1.6853 -0.014,1.563 -3.0471,3.9443 -7.772904,6.0975 l -0.7032,0.3204 0.1873,0.2546 c 0.1035,0.1399 0.2315,0.3675 0.2852,0.5059 0.1239,0.3179 0.1211,1.0405 0,1.4301 -0.094,0.2903 -0.092,0.2955 0.09,0.5613 0.339804,0.4947 0.456904,0.8148 0.462904,1.2645 0,0.3959 -0.1251,0.8792 -0.291404,1.0841 -0.044,0.053 0.022,0.1418 0.228404,0.3119 0.3984,0.3277 0.6173,0.7677 0.6672,1.3408 l 0.04,0.4571 0.1649,-0.2066 c 0.091,-0.1134 3.4999,-4.6959 7.5764,-10.1828 4.0762,-5.487 7.4928,-10.0837 7.5923,-10.2148 l 0.181,-0.2386 -0.1294,-0.5878 c -0.3497,-1.584 -0.6706,-3.523 -0.8641,-5.2218 -0.1397,-1.2266 -0.1589,-4.6387 -0.032,-5.6375 0.1238,-0.97 0.3671,-2.1795 0.612,-3.039 0.646,-2.2664 1.885,-4.4073 3.5026,-6.0517 0.1917,-0.1949 0.4142,-0.423 0.4944,-0.507 l 0.1459,-0.1525 -0.3652,0.047 c -0.201,0.025 -0.6445,0.022 -0.986,-0.013 -1.9442,-0.1725 -2.6275,-1.4738 -1.846,-3.5164 0.8378,-2.1899 3.1623,-4.472 4.9538,-4.8638 0.4377,-0.095 1.0977,-0.047 1.4643,0.1085 0.7673,0.3255 1.3767,1.2997 1.6079,2.5715 l 0.042,0.2305 1.18,-0.039 c 0.649,-0.022 2.8906,-0.039 4.9814,-0.039 l 3.8011,0 0.3558,-0.5267 0.3557,-0.5264 -0.069,-0.7732 c -0.11,-1.215 0.049,-2.1653 0.5102,-3.0443 0.3768,-0.7173 1.0454,-1.2956 1.8056,-1.5613 2.3381,-0.8172 5.7186,0.6952 6.7266,3.0094 0.6739,1.547 0.1662,3.1465 -1.4408,4.5404 -0.3048,0.2646 -0.7176,0.5794 -0.9171,0.6999 -0.2451,0.1477 -0.3622,0.2571 -0.3611,0.3368 0,0.065 0.3776,2.5752 0.8371,5.5784 l 0.8355,5.4604 0.8989,0.6274 0.8988,0.6276 0.396,-0.079 c 0.6339,-0.1283 1.6257,-0.1694 2.0787,-0.086 1.1031,0.2027 1.646,0.823 1.6434,1.877 0,1.8706 -2.2265,4.8271 -4.3125,5.739 -1.412,0.6173 -2.4873,0.1831 -2.9918,-1.208 -0.1185,-0.3275 -0.2829,-1.3724 -0.2873,-1.83 l 0,-0.2951 -0.804,-0.4581 c -0.4423,-0.2519 -0.8944,-0.5123 -1.0046,-0.5786 l -0.2006,-0.1205 -0.2602,0.4087 c -2.6331,4.1411 -0.3854,10.0054 4.7596,12.4175 1.1528,0.5406 2.6948,0.943 3.9839,1.04 0.7907,0.06 2.458,-0.013 3.165,-0.1343 1.3953,-0.2428 2.2781,-0.502 3.9808,-1.1691 2.6317,-1.0312 4.5074,-1.4683 6.7414,-1.5709 6.07,-0.2791 11.6256,2.5074 17.0452,8.549 1.7529,1.9543 3.1417,2.9944 5.0393,3.7746 1.7375,0.7143 3.5804,1.0875 6.9057,1.3985 0.921,0.086 1.6784,0.1602 1.6831,0.1649 0,0 0.028,0.1462 0.053,0.3144 l 0.045,0.3057 -0.6213,0.1788 c -2.3676,0.6809 -3.8798,1.0091 -5.5815,1.211 -3.2557,0.3865 -5.9398,-0.066 -8.1571,-1.376 -0.2199,-0.1299 -0.4075,-0.2292 -0.4167,-0.2205 -0.014,0.012 0.014,0.1733 0.046,0.3662 0.2735,1.5512 0.3743,4.9202 0.1994,6.6668 -0.1427,1.4253 -0.3884,3.4711 -0.4201,3.5009 -0.017,0.016 -0.1699,0.041 -0.3403,0.056 l -0.3097,0.027 -0.1744,-0.4939 c -1.0754,-3.0426 -2.5751,-6.0012 -4.1494,-8.1852 -2.2188,-3.0777 -4.9022,-5.2633 -8.0443,-6.5513 -2.1943,-0.8994 -4.4792,-1.3114 -7.2664,-1.3102 -2.9453,0 -5.5524,0.4103 -8.9725,1.4075 -5.284,1.5405 -10.3467,2.2944 -13.9711,2.08 -4.7216,-0.2794 -7.9373,-1.573 -11.9668,-4.8141 -0.3647,-0.2935 -1.1183,-0.9067 -1.6744,-1.3626 -0.556,-0.456 -1.2087,-0.9842 -1.4506,-1.1739 l -0.4398,-0.345 -0.098,0.1347 c -0.054,0.073 -3.3846,4.9719 -7.4026,10.8841 l -7.305,10.7494 0.3228,0.047 c 1.0411,0.1528 1.5082,0.3721 1.9922,0.9353 l 0.2789,0.3244 0.3033,-0.1907 c 0.5295,-0.3328 0.8682,-0.4087 1.7928,-0.4022 0.6233,0 1.0036,0.042 1.5773,0.1572 l 0.7558,0.151 0.5545,-0.1736 c 0.7263,-0.2273 1.3777,-0.2746 2.0348,-0.1473 0.6187,0.1194 1.4929,0.5041 2.139,0.9404 l 0.4902,0.3311 0.2049,-0.1122 c 0.4326,-0.2366 1.1527,-0.4149 1.6692,-0.4134 0.6312,0 0.9537,0.072 1.5154,0.3307 0.4342,0.1995 0.4598,0.2042 0.6415,0.1157 0.1045,-0.05 0.3841,-0.1194 0.6219,-0.1539 0.5563,-0.08 1.0852,0.013 2.2019,0.3805 0.6533,0.216 0.8732,0.2646 1.0741,0.237 0.3979,-0.054 1.559,0.081 2.0987,0.2442 0.5732,0.1735 1.1839,0.4989 1.6262,0.8664 l 0.3129,0.2598 0.3822,-0.1183 c 0.5777,-0.1784 1.7508,-0.173 2.3094,0.012 0.5878,0.1934 1.1693,0.5312 1.6905,0.982 l 0.4528,0.3916 0.3842,-0.071 c 0.9257,-0.1702 1.7071,0.1003 2.6285,0.9096 l 0.5623,0.494 0.9162,0 c 0.7117,0 1.0572,0.031 1.548,0.1331 3.5337,0.7356 7.2211,3.6345 10.5509,8.295 3.0091,4.2116 5.0677,8.9403 5.6922,13.0754 0.1385,0.9172 0.1872,2.6387 0.095,3.3404 -0.1921,1.4542 -0.6658,2.6954 -1.3148,3.444 l -0.1197,0.1385 0.5844,1.0692 c 0.7122,1.3028 0.9804,1.9149 1.1861,2.7064 0.2072,0.7981 0.2537,1.3782 0.1622,2.0249 -0.1677,1.1847 -0.7211,2.3124 -1.7109,3.4866 l -0.3037,0.3602 -0.3121,5.6325 -0.312,5.6325 0.2452,1.0614 c 0.865,3.7436 1.0739,6.4064 0.6318,8.0566 -0.064,0.2437 -0.1128,0.448 -0.1074,0.4544 0,0.012 0.424,-0.2858 0.9276,-0.6493 2.5711,-1.8553 4.4667,-2.8425 8.7694,-4.567 0.2682,-0.1074 0.3462,-0.2196 -1.0464,1.5058 -1.8476,2.2898 -2.3362,3.0462 -2.6035,4.0317 -0.1156,0.425 -0.1951,1.1952 -0.1293,1.2497 0.017,0.014 0.2574,0 0.5355,-0.031 0.5949,-0.065 1.8523,-0.018 2.7042,0.1014 0.5128,0.072 3.1386,0.5987 3.1809,0.6382 0.013,0.013 -0.4176,0.2227 -0.9451,0.4787 -1.0981,0.5328 -1.6556,0.8803 -1.9237,1.199 -0.1654,0.1967 -0.3941,0.5588 -0.3941,0.6241 0,0.014 0.3198,0.041 0.7108,0.063 2.2523,0.1244 4.003,0.7595 5.6335,2.0437 0.6476,0.5101 1.7352,1.5356 1.6287,1.5356 -0.044,0 -0.7689,-0.1194 -1.61,-0.2641 -2.6893,-0.4644 -3.8283,-0.4958 -5.3057,-0.1467 -0.3057,0.072 -0.4591,0.1747 -0.2616,0.1747 0.059,0 0.459,0.08 0.888,0.1793 0.8745,0.201 1.7908,0.5265 2.3329,0.8289 0.3484,0.1944 1.8284,1.4018 1.7771,1.4499 -0.014,0.014 -0.5765,-0.061 -1.2508,-0.1639 -1.0432,-0.1593 -1.3949,-0.1876 -2.363,-0.19 -1.4481,0 -2.3943,0.1726 -3.3413,0.6223 l -0.3072,0.1459 0.6237,0.1646 c 2.5503,0.6736 4.107,1.5955 4.965,2.9401 0.2208,0.3461 0.7019,1.3499 0.8356,1.7431 0.037,0.111 -0.1563,0.037 -1.252,-0.4846 -1.3633,-0.6478 -2.3623,-0.9966 -3.4194,-1.1938 -0.7995,-0.1493 -2.4501,-0.1481 -3.1909,0 -1.1897,0.2414 -2.4222,0.751 -3.646,1.5075 -0.7848,0.4851 -0.9972,0.6538 -0.8235,0.6538 0.1785,0 1.2129,0.301 1.8472,0.5374 0.8222,0.3065 1.6841,0.7648 2.4669,1.3115 0.6594,0.4605 1.7573,1.4738 2.2498,2.0766 0.2981,0.3649 1.3648,1.8455 1.4986,2.0801 0.058,0.1024 -0.3329,-0.056 -1.7431,-0.711 -2.4154,-1.1197 -3.18,-1.3666 -4.4599,-1.4403 l -0.6199,-0.034 0.046,0.1714 c 0.1225,0.466 0.7601,2.1232 1,2.5968 0.5275,1.042 1.0305,1.6136 2.0478,2.3266 l 0.4632,0.3247 -0.2737,0.04 c -0.4296,0.063 -1.6374,0.054 -1.9164,-0.014 -0.3746,-0.091 -0.7244,-0.236 -1.0311,-0.4279 -0.1501,-0.094 -0.2841,-0.1608 -0.2975,-0.1481 -0.037,0.034 0.1483,1.1462 0.2569,1.5463 0.2357,0.8692 0.5426,1.2188 1.4383,1.6388 0.3444,0.1614 0.6159,0.3025 0.6036,0.3134 -0.041,0.038 -1.3468,0.3144 -1.6651,0.3538 -0.4045,0.05 -1.0787,-0.051 -1.5594,-0.2331 l -0.3763,-0.1428 0.042,0.3368 c 0.067,0.5334 0.2617,0.9966 0.7044,1.6836 0.2263,0.3511 0.3983,0.6507 0.3824,0.6656 -0.059,0.055 -1.7326,-0.7476 -2.1005,-1.0071 -0.2086,-0.147 -0.6578,-0.5263 -0.9981,-0.8429 l -0.6189,-0.5755 0.041,0.3837 c 0.049,0.4505 -0.058,1.1883 -0.2387,1.6525 -0.1252,0.3213 -0.7411,1.3588 -0.8059,1.3573 -0.019,0 -0.1714,-0.1985 -0.3395,-0.44 -0.3739,-0.5369 -1.106,-1.2009 -1.7807,-1.6152 -0.5027,-0.3087 -1.8539,-0.9824 -1.8943,-0.9444 -0.014,0.012 0.035,0.2322 0.1018,0.4918 0.1386,0.5343 0.164,1.3696 0.053,1.7552 -0.04,0.138 -0.1294,0.3574 -0.2005,0.4875 -0.1388,0.256 -0.6024,0.8267 -0.6714,0.8267 -0.023,0 -0.2817,-0.2491 -0.574,-0.5536 -1.0919,-1.1378 -2.394,-1.9048 -4.2319,-2.4927 -0.2927,-0.094 -0.5428,-0.1603 -0.5559,-0.148 -0.014,0.012 0.018,0.1914 0.067,0.3982 0.3017,1.2341 0.2779,2.5429 -0.064,3.5635 -0.1722,0.5126 -0.7318,1.6913 -0.7795,1.6416 -0.025,-0.026 -0.1362,-0.2869 -0.2478,-0.5791 -0.1114,-0.2923 -0.2696,-0.6394 -0.3522,-0.7717 -0.3797,-0.6083 -1.1675,-1.2401 -2.4228,-1.9439 -0.7432,-0.4165 -0.8265,-0.4283 -0.8308,-0.1182 0,0.2404 -0.3829,1.6494 -0.6298,2.3395 -0.5652,1.579 -1.3287,2.7633 -2.43,3.7689 l -0.3542,0.3234 -0.5204,-0.1683 c -0.621,-0.2009 -1.6756,-0.6574 -2.2161,-0.9592 -0.9827,-0.5487 -2.015,-1.4612 -2.7744,-2.4523 -0.3024,-0.3947 -0.371,-0.4552 -0.4107,-0.3628 -0.2383,0.5522 -0.9921,1.5154 -1.6139,2.062 -0.997,0.8762 -2.0743,1.2652 -3.5082,1.2671 -1.3715,0 -2.9185,-0.4378 -4.5832,-1.3026 l -0.6774,-0.352 -0.5195,0.1983 c -2.0669,0.7893 -4.143,1.0145 -6.0188,0.6535 -1.0974,-0.2112 -2.4039,-0.6927 -3.9151,-1.4424 -0.7618,-0.378 -2.224,-1.0644 -2.2676,-1.0644 -0.015,0 -0.1399,0.166 -0.2772,0.369 -0.5487,0.8102 -1.1526,1.1884 -1.8791,1.1768 -0.7257,-0.013 -1.3097,-0.2984 -2.4802,-1.2179 -0.3533,-0.2777 -0.6575,-0.5048 -0.6762,-0.5048 -0.019,0 -0.033,0.041 -0.033,0.091 0,0.049 -0.1322,0.4151 -0.292804,0.8117 -0.8367,2.0619 -1.8457,3.2644 -3.2526,3.8761 -0.4561,0.1985 -1.0593,0.3574 -1.3564,0.3574 l -0.1991,0 0,-1.1364 z m 1.4485,0.088 c 0.8768,-0.4259 1.6964,-1.332 2.3064,-2.55 0.1539,-0.3068 0.448,-1.0359 0.6541,-1.6202 0.2061,-0.5842 0.3855,-1.0725 0.3991,-1.0852 0.014,-0.012 0.437604,0.3221 0.942704,0.7433 0.987,0.8233 1.7334,1.3272 2.111,1.4251 0.8251,0.2141 1.3528,-0.1248 1.9484,-1.2516 0.1335,-0.2517 0.2651,-0.4575 0.2936,-0.4575 0.029,0 0.6834,0.2983 1.4553,0.6626 3.1833,1.5034 3.6642,1.7046 4.6891,1.9625 0.9044,0.2275 1.5269,0.2875 2.5848,0.2487 1.2823,-0.047 2.2873,-0.2662 3.714,-0.8105 0.3365,-0.1284 0.6414,-0.2333 0.6773,-0.2333 0.036,0 0.3139,0.1372 0.6175,0.3047 2.0626,1.1382 4.0938,1.6153 5.6122,1.3185 0.5709,-0.1122 1.357,-0.4789 1.815,-0.8485 0.7479,-0.6033 1.2144,-1.2171 1.8451,-2.4276 l 0.3994,-0.7668 0.5175,0.7386 c 0.8695,1.2416 1.5174,1.9214 2.4636,2.5853 0.5311,0.3728 1.718,0.9594 2.3651,1.169 l 0.4332,0.1404 0.4066,-0.4077 c 1.2587,-1.2626 2.0636,-3.0708 2.5518,-5.7316 0.077,-0.422 0.1484,-0.7757 0.1576,-0.7858 0.028,-0.03 1.0232,0.4491 1.6546,0.7954 1.1367,0.6238 2.3112,1.5524 2.5907,2.0483 l 0.1046,0.1853 0.1128,-0.3407 c 0.1626,-0.4918 0.2368,-1.3371 0.1775,-2.0205 -0.059,-0.6797 -0.1115,-0.9291 -0.3856,-1.8459 -0.1101,-0.366 -0.1815,-0.6817 -0.1601,-0.7018 0.045,-0.041 1.2353,0.2727 1.8752,0.4929 1.8238,0.6271 2.9302,1.2404 4.0217,2.2294 l 0.4587,0.4157 0.1074,-0.2066 c 0.064,-0.1246 0.1184,-0.4069 0.1363,-0.7118 0.033,-0.5881 -0.099,-1.1651 -0.5044,-2.2001 -0.1378,-0.3515 -0.2388,-0.6501 -0.2247,-0.6634 0.014,-0.014 0.3508,0.1098 0.7481,0.2738 1.9266,0.7953 3.0293,1.4211 3.9274,2.2293 l 0.5516,0.4964 0.071,-0.1697 c 0.3409,-0.8046 0.3249,-2.123 -0.036,-2.9806 -0.031,-0.07 0.04,-0.1392 0.2582,-0.259 l 0.2984,-0.1635 0.349,0.3477 c 1.5041,1.4972 2.2463,2.1519 2.1336,1.882 -0.1155,-0.2773 -0.3115,-2.2132 -0.2242,-2.2132 0.023,0 0.3043,0.135 0.6245,0.3 0.6783,0.3496 1.1899,0.5265 1.5235,0.5265 l 0.2372,0 -0.2703,-0.3766 c -0.4161,-0.5799 -0.5796,-1.155 -0.794,-2.7919 -0.166,-1.2685 -0.1794,-1.1715 0.175,-1.2848 0.3388,-0.1085 0.256,-0.1565 0.7059,0.4108 0.1183,0.1499 0.332,0.3458 0.4739,0.4354 0.2504,0.1583 0.7329,0.3602 0.8605,0.3602 0.035,0 -0.09,-0.1867 -0.2756,-0.4152 -0.406,-0.4979 -0.8275,-1.232 -1.168,-2.0345 -0.2649,-0.6247 -1.0231,-2.826 -1.0231,-2.9708 0,-0.072 0.1452,-0.08 0.932,-0.053 1.555,0.053 2.6345,0.3049 4.0948,0.9533 0.9114,0.4047 0.8905,0.3541 -0.3127,-0.7652 -1.7025,-1.5834 -3.235,-2.3291 -5.7566,-2.8011 -0.5561,-0.1034 -1.0188,-0.1961 -1.0284,-0.2045 -0.014,-0.012 0.417,-0.3192 0.9477,-0.6908 2.6191,-1.8335 4.2977,-2.492 6.551,-2.5704 1.6314,-0.057 3.0343,0.2185 4.7069,0.9233 0.2396,0.1013 0.4465,0.1734 0.4595,0.1611 0.047,-0.044 -0.5307,-0.7209 -0.8492,-0.9971 -0.927,-0.8042 -2.2094,-1.3309 -4.6427,-1.9073 -0.6515,-0.1543 -1.1842,-0.2967 -1.1837,-0.3163 0,-0.062 1.2732,-0.8126 1.7365,-1.0257 1.0738,-0.4942 1.9606,-0.6579 3.5798,-0.6607 0.683,0 1.209,-0.022 1.169,-0.046 -0.04,-0.024 -0.2943,-0.1246 -0.5651,-0.2229 -0.6342,-0.2308 -1.684,-0.4702 -3.1095,-0.7095 -0.6256,-0.1049 -1.1583,-0.2081 -1.1838,-0.2292 -0.07,-0.057 1.555,-0.8072 2.1053,-0.9717 0.6909,-0.2063 1.635,-0.3315 2.5001,-0.3315 0.7108,0 2.01,0.1182 2.5765,0.2339 l 0.2574,0.053 -0.2211,-0.1773 c -0.7373,-0.591 -2.0637,-1.2156 -3.1412,-1.4791 -0.6937,-0.1696 -0.8387,-0.1841 -2.1128,-0.2096 l -1.3678,-0.027 0.1529,-0.5342 c 0.083,-0.2938 0.2306,-0.6683 0.3254,-0.8322 0.2153,-0.3728 0.7291,-0.851 1.2558,-1.1692 0.2219,-0.1342 0.392,-0.2547 0.3778,-0.2679 -0.06,-0.056 -1.4215,-0.2533 -2.167,-0.3134 -0.8481,-0.069 -1.4002,-0.046 -2.2915,0.093 -0.2931,0.046 -0.5456,0.071 -0.5609,0.056 -0.015,-0.015 -0.03,-0.3925 -0.032,-0.84 0,-0.9891 0.1212,-1.5107 0.5835,-2.4144 0.3578,-0.6998 0.6722,-1.1674 1.4223,-2.1142 l 0.5389,-0.6805 -0.3618,0.1492 c -0.6874,0.2835 -2.3236,1.0989 -3.2109,1.6 -1.0072,0.5688 -1.9943,1.2189 -3.2691,2.1531 -0.754,0.5526 -0.8968,0.6351 -1.0425,0.6025 -0.092,-0.021 -0.1807,-0.047 -0.195,-0.059 -0.014,-0.013 -0.1913,0.1262 -0.3932,0.3061 -0.4214,0.3754 -0.7913,0.5473 -1.3312,0.6187 -0.2088,0.028 -0.3906,0.061 -0.4041,0.073 -0.013,0.012 0.1587,1.9193 0.3825,4.2373 0.2238,2.3178 0.3928,4.2277 0.3752,4.244 -0.017,0.016 -1.0891,-0.031 -2.3819,-0.1063 -3.5191,-0.2031 -3.3929,-0.1926 -3.3929,-0.2828 0,-0.043 -0.022,-0.082 -0.047,-0.085 -0.026,0 -0.9005,-0.076 -1.943,-0.1649 -1.0787,-0.092 -1.8904,-0.1852 -1.8834,-0.2174 0,-0.031 0.9974,-2.0221 2.2016,-4.4247 1.2039,-2.4025 2.2578,-4.5114 2.3418,-4.6863 l 0.1526,-0.3182 -0.3954,0.039 c -0.966,0.093 -2.2818,0.5548 -3.1957,1.1225 -0.2321,0.1442 -0.6495,0.45 -0.9274,0.6798 -0.637,0.5262 -1.0658,0.6836 -1.8641,0.6844 -0.4536,0 -0.574,-0.021 -0.7747,-0.1375 -0.5019,-0.2916 -0.7111,-0.9585 -0.5516,-1.7599 0.198,-0.9949 0.9489,-2.5549 1.8563,-3.8566 0.26,-0.373 0.4651,-0.6848 0.4562,-0.6933 -0.035,-0.031 -1.0405,0.3802 -1.5865,0.6494 -0.3128,0.1542 -0.8388,0.4593 -1.1688,0.6781 -0.6631,0.4393 -1.9748,1.6265 -2.7523,2.4908 -0.5987,0.6658 -1.0565,1.0227 -1.6818,1.3117 -0.6845,0.3162 -1.14,0.427 -1.7582,0.4276 -0.6305,0 -1.0218,-0.1339 -1.4111,-0.4852 -0.5328,-0.4807 -0.6843,-0.8996 -0.8664,-2.3972 -0.2506,-2.0608 -0.5003,-2.7287 -1.2517,-3.3468 -0.266,-0.2188 -1.0825,-0.6298 -1.4552,-0.7326 -0.1435,-0.04 -0.1484,-0.031 -0.1073,0.1702 0.1817,0.9055 0.2184,2.5023 0.072,3.152 -0.3194,1.4188 -1.0893,2.3319 -2.5422,3.0156 l -0.3907,0.1838 -0.1018,-0.3384 c -0.3946,-1.3178 -0.9754,-2.8088 -1.5716,-4.0335 l -0.2109,-0.4334 -0.3961,0.3523 c -1.0369,0.9231 -1.5987,1.8823 -2.1511,3.6731 -0.073,0.2354 -0.1428,0.4279 -0.1561,0.4279 -0.013,0 -0.1734,-0.2458 -0.3557,-0.5461 -0.79,-1.3011 -1.6134,-2.2725 -2.5002,-2.9497 -0.4608,-0.3519 -1.0773,-0.7544 -1.1555,-0.7544 -0.026,0 -0.1266,0.1793 -0.224,0.3984 -0.601,1.3547 -1.4331,2.4121 -2.0799,2.6429 -0.2763,0.099 -0.7418,0.1013 -0.9848,0 -0.084,-0.034 -0.086,0.1956 -0.021,2.0146 0.04,1.1287 0.076,2.2048 0.078,2.3915 l 0,0.3394 -0.1936,0 c -0.1816,0 -0.2092,0.031 -0.4464,0.5113 -0.3078,0.6225 -0.3557,0.934 -0.2199,1.4295 0.1609,0.5867 0.1704,0.5911 0.4687,0.2219 0.1443,-0.1785 0.65,-0.6917 1.1239,-1.1402 l 0.8612,-0.8159 0.2673,0.5314 c 0.3512,0.6975 0.7643,1.6822 0.8918,2.125 0.1348,0.4672 0.196,1.4751 0.096,1.5866 -0.121,0.1366 -0.3681,0.1492 -0.5099,0.025 -0.095,-0.084 -0.1278,-0.1863 -0.1278,-0.3995 0,-0.5953 -0.3625,-1.811 -0.7549,-2.5326 l -0.1073,-0.1982 -0.6035,0.6236 c -0.7798,0.8057 -0.9492,1.0518 -1.1917,1.7314 -0.11,0.3083 -0.2212,0.5382 -0.2475,0.5109 -0.049,-0.049 -0.7684,-1.7511 -0.8583,-2.027 -0.026,-0.08 -0.065,-0.3069 -0.087,-0.5017 l -0.04,-0.3541 -0.1335,0.2361 c -0.2131,0.3774 -0.325,0.8056 -0.5008,1.9134 -0.091,0.5709 -0.173,1.0464 -0.1833,1.0567 -0.031,0.03 -0.693,-0.9921 -0.9351,-1.4413 -0.1987,-0.3686 -0.4587,-1.0695 -0.5984,-1.6135 -0.053,-0.2007 -0.055,-0.1965 -0.2805,0.354 -0.3127,0.7636 -0.4212,1.1842 -0.5461,2.118 l -0.1073,0.8003 -0.4248,-0.5688 c -0.2338,-0.3129 -0.5235,-0.7645 -0.6439,-1.0035 -0.2319,-0.4605 -0.5399,-1.3858 -0.5399,-1.622 0,-0.2646 -0.121,-0.1415 -0.2534,0.2575 -0.165,0.498 -0.2677,1.2135 -0.2162,1.5072 0.076,0.4324 -0.2921,0.6938 -0.5877,0.4176 -0.1544,-0.1442 -0.1581,-0.1667 -0.1294,-0.7784 0.04,-0.8379 0.2283,-1.4551 0.7235,-2.3684 l 0.3998,-0.7378 0,-2.5172 0,-2.5172 -0.2686,-0.1655 c -0.4723,-0.2912 -1.3948,-1.2121 -1.8309,-1.8277 -0.3955,-0.5583 -1.1861,-1.9516 -1.1861,-2.0903 0,-0.1392 -0.1336,-0.043 -0.6771,0.4885 -0.8494,0.8301 -1.6126,1.8778 -2.0671,2.8376 -0.096,0.2045 -0.1861,0.3177 -0.2376,0.3014 -0.046,-0.015 -0.1979,-0.053 -0.3385,-0.087 l -0.2558,-0.061 0.025,-0.547 c 0.022,-0.4767 -0.1307,-1.9699 -0.2084,-2.0424 -0.039,-0.037 -0.616904,0.3118 -1.137404,0.6829 -0.2433,0.1732 -0.7151,0.5661 -1.0488,0.8731 l -0.6064,0.5581 -0.039,1.2844 c -0.058,1.9402 -0.2865,2.7434 -0.8813,3.1035 -0.3179,0.1925 -0.6572,0.2053 -1.0489,0.039 -0.1515,-0.064 -0.2824,-0.117 -0.2909,-0.117 -0.014,0 0.051,0.2724 0.1308,0.6052 0.3235,1.3325 0.3262,2.3826 0.014,3.5107 -0.1156,0.4106 -0.168,0.5115 -0.2904,0.5551 -0.1452,0.052 -0.1375,0.065 0.2755,0.4624 0.2336,0.2252 0.534,0.5451 0.6672,0.7109 l 0.2424,0.3013 0.095,-0.2113 c 0.1496,-0.3342 0.2142,-0.7761 0.156,-1.0667 -0.029,-0.1462 -0.1718,-0.5047 -0.3171,-0.7967 -0.1452,-0.2918 -0.2483,-0.5454 -0.229,-0.5634 0.019,-0.018 0.3348,0.099 0.7012,0.2609 1.015,0.4472 1.4533,0.954 1.7376,2.0082 l 0.1169,0.4342 0.1018,-0.2386 c 0.1923,-0.4492 0.4125,-1.3972 0.5542,-2.386 0.078,-0.5438 0.1602,-0.9887 0.1831,-0.9887 0.024,0 0.1157,0.166 0.2068,0.3689 0.091,0.2029 0.3916,0.8736 0.668704,1.4905 0.2773,0.6169 0.5686,1.3299 0.6475,1.5845 l 0.1436,0.4628 0.1197,-0.2846 c 0.217,-0.5159 0.3567,-1.2171 0.4561,-2.2897 0.054,-0.582 0.1087,-1.0679 0.1211,-1.0798 0.033,-0.03 0.7399,1.0567 1.0063,1.5478 0.4646,0.8562 0.7367,1.9853 0.6402,2.6564 -0.052,0.3592 -0.1169,0.4427 -0.3473,0.4427 -0.3051,0 -0.376,-0.1279 -0.376,-0.6792 0,-0.5285 -0.1169,-1.1573 -0.2928,-1.5666 l -0.1074,-0.2524 -0.1753,0.666 c -0.096,0.3662 -0.2771,0.8664 -0.4016,1.1113 -0.202,0.3973 -1.041,1.6291 -1.0829,1.5899 -0.014,-0.013 -0.062,-0.347 -0.1184,-0.7521 -0.056,-0.4051 -0.1462,-0.9093 -0.201,-1.1205 -0.134904,-0.5195 -0.535404,-1.4927 -0.590104,-1.4343 -0.023,0.025 -0.09,0.2251 -0.1452,0.4426 -0.163,0.6382 -0.4035,1.1497 -0.9175,1.9509 -0.3547,0.5526 -0.4935,0.725 -0.523,0.6493 -0.022,-0.056 -0.09,-0.4352 -0.1503,-0.841 -0.1567,-1.0539 -0.2653,-1.5067 -0.4582,-1.9078 l -0.1691,-0.3521 -0.081,0.4491 c -0.087,0.4864 -0.8942,2.4963 -0.97,2.4181 -0.024,-0.025 -0.1211,-0.2641 -0.215,-0.5301 -0.094,-0.2659 -0.2768,-0.6383 -0.4075,-0.8275 -0.2333,-0.337 -1.3015,-1.4339 -1.3966,-1.4339 -0.065,0 -0.2776,0.4723 -0.5472,1.2249 -0.1636,0.4568 -0.236,0.7753 -0.2582,1.1364 -0.017,0.2809 -0.069,0.5602 -0.1197,0.6346 -0.1265,0.1888 -0.4293,0.1799 -0.5673,-0.017 -0.214,-0.3054 0.014,-1.4533 0.5039,-2.6017 0.1528,-0.3538 0.2723,-0.6492 0.2659,-0.6565 -0.017,-0.018 -1.8309,0.096 -2.1685,0.1362 -0.2118,0.025 -0.2685,0.056 -0.2685,0.1465 0,0.063 -0.036,0.1146 -0.08,0.1146 -0.082,0 -2.6418,-0.7525 -2.6795,-0.7878 -0.014,-0.013 0.014,-0.105 0.05,-0.2092 0.039,-0.1034 0.058,-0.2019 0.042,-0.2168 -0.017,-0.015 -0.2391,0.1326 -0.4956,0.328 -0.2568,0.1955 -0.4943,0.3467 -0.5278,0.3363 -0.1225,-0.039 -0.8576,-1.4759 -1.0702,-2.093 -0.3111,-0.9026 -0.4317,-1.6601 -0.4076,-2.5613 0.023,-0.8644 0.043,-0.8537 -0.5377,-0.3017 -0.7681,0.7316 -1.1024,1.4246 -1.4376,2.9808 -0.082,0.3809 -0.1693,0.6731 -0.1935,0.6494 -0.1035,-0.099 -0.7119,-1.6213 -0.8564,-2.1388 -0.1945,-0.6965 -0.2623,-1.8729 -0.1502,-2.6035 0.1597,-1.041 0.5318,-2.0824 1.1663,-3.2649 0.1843,-0.3437 0.3182,-0.6248 0.2976,-0.6242 -0.021,0 -0.308,0.077 -0.6381,0.1719 -1.6579,0.4729 -2.5584,0.9256 -3.4653,1.7415 -0.6201,0.558 -0.839,0.8485 -1.3747,1.8241 -0.3277,0.5965 -0.4632,0.7938 -0.4894,0.7127 -0.1073,-0.332 -0.3619,-1.5037 -0.4186,-1.9253 -0.087,-0.6584 -0.081,-1.0915 0.028,-1.7689 0.1239,-0.767 0.3555,-1.3989 0.8565,-2.3353 l 0.4182,-0.7816 -0.289,0.157 c -1.3784,0.7491 -2.0797,1.237 -2.948,2.051 -1.2664,1.1875 -2.0949,2.5128 -2.6821,4.2907 -0.1074,0.3228 -0.2144,0.5754 -0.2392,0.561 -0.1252,-0.072 -0.854,-1.543 -0.9687,-1.9547 -0.2464,-0.8841 -0.2288,-2.2549 0.047,-3.6304 0.04,-0.1983 0.015,-0.1821 -0.631,0.4133 -1.034,0.9532 -1.6173,1.7767 -1.9866,2.8039 -0.1046,0.2922 -0.3382,1.1555 -0.518,1.9185 -0.1799,0.763 -0.335,1.3954 -0.3451,1.4055 -0.014,0.013 -0.2645,-0.316 -0.566,-0.7244 -0.9649,-1.3083 -1.4518,-2.3828 -1.801,-3.9752 -0.106,-0.4818 -0.1925,-0.9406 -0.1931,-1.0194 0,-0.2289 -0.099,-0.043 -0.3415,0.6537 -0.424,1.2166 -0.5687,2.4105 -0.4767,3.9317 0.032,0.513 0.047,0.9416 0.035,0.9527 -0.013,0.012 -0.3834,-0.4341 -0.8258,-0.9893 -0.9375,-1.1766 -1.3691,-1.6286 -1.8038,-1.8893 -0.3134,-0.1878 -0.9712,-0.4121 -1.2089,-0.4121 -0.1197,0 -0.1197,0.012 0.022,0.1685 0.7323,0.8402 0.9215,1.0757 1.1876,1.4761 0.669,1.0081 0.9671,1.9489 0.9654,3.0484 0,0.6149 -0.099,1.4839 -0.1744,1.5549 -0.014,0.014 -0.3107,-0.1413 -0.6593,-0.3427 -0.7342,-0.4238 -1.5222,-0.7393 -2.1543,-0.8625 -0.4643,-0.091 -1.5932,-0.1194 -1.9819,-0.052 l -0.2265,0.04 0.4452,0.1991 c 0.9912,0.4439 1.484,1.1924 1.5291,2.3226 l 0.015,0.38 -1.0109,0.1896 c -1.6242,0.3044 -2.7425,0.6519 -3.8228,1.1882 -0.5884,0.2919 -2.1484,1.245 -2.1484,1.3124 0,0.083 1.5558,1.4594 2.2115,1.9584 1.2263,0.9333 2.1826,1.4712 3.3016,1.8574 0.2692,0.093 0.4896,0.1872 0.4896,0.2096 0,0.023 -0.5615,0.5 -1.2478,1.0613 -1.5505,1.2681 -2.6925,2.3036 -3.4892,3.1635 -0.5532,0.5972 -1.4194,1.6674 -1.3772,1.7013 0.014,0.013 0.3438,-0.012 0.7433,-0.04 1.3739,-0.1003 2.6764,-0.3602 4.36,-0.8718 l 0.9794,-0.2974 0.1073,0.1311 c 0.059,0.072 0.1419,0.1901 0.1834,0.2621 0.092,0.1598 0.095,0.1568 -1.0743,1.3252 -1.4598,1.4588 -2.1612,2.3282 -2.6397,3.2718 -0.2711,0.5349 -0.5023,1.3189 -0.4363,1.4797 0.053,0.1263 1.4882,0.1034 2.4194,-0.039 1.6492,-0.2514 3.0175,-0.7305 5.3492,-1.8726 l 0.6285,-0.3077 0.6391,0.4676 c 1.8861,1.3797 2.8081,2.7052 2.9218,4.2001 l 0.038,0.5184 0.1839,-0.1224 c 0.6633,-0.441 0.8942,-1.6085 0.6528,-3.2961 -0.049,-0.3404 -0.08,-0.6268 -0.07,-0.6366 0.014,-0.013 0.3568,0.1261 0.7697,0.3019 1.4565,0.6204 2.3272,0.714 3.3963,0.3651 l 0.6235,-0.2035 -0.03,0.9273 c -0.035,1.0525 -0.1411,1.4675 -0.5178,2.0193 -0.1224,0.1785 -0.2224,0.3423 -0.2233,0.3639 0,0.065 0.6111,0.1674 0.9966,0.1663 0.6864,0 1.6263,-0.2538 2.5402,-0.6808 0.2258,-0.105 0.8626,-0.4343 1.4149,-0.7304 0.5523,-0.2963 1.0181,-0.5257 1.035,-0.5098 0.017,0.016 0.054,0.3552 0.082,0.754 0.028,0.399 0.084,0.8714 0.1253,1.0499 0.095,0.4168 0.4345,1.1084 0.7266,1.4802 0.2202,0.2805 0.2397,0.2907 0.5411,0.2907 0.4837,0 0.8771,-0.2223 1.6072,-0.9083 0.3494,-0.3283 0.796,-0.7695 0.9925,-0.9806 l 0.3571,-0.3837 0,1.0073 c 0,2.2853 -0.4682,3.9863 -1.8057,6.4743 -0.1565,0.2911 -0.2705,0.5427 -0.2532,0.5589 0.058,0.053 1.0703,-0.2866 1.7275,-0.5795 1.5627,-0.6966 2.8956,-1.7544 4.4028,-3.494 0.2742,-0.3165 0.5065,-0.5683 0.5157,-0.5594 0.014,0.013 0.1321,0.2999 0.2734,0.6466 0.6141,1.5098 0.8733,2.7053 0.8076,3.7273 l -0.037,0.5797 0.203,-0.038 c 0.3466,-0.065 1.1908,-0.4698 1.7194,-0.8253 0.5686,-0.3824 1.1493,-0.854 2.0903,-1.6983 0.3529,-0.3165 0.6777,-0.5754 0.7217,-0.5754 0.1197,0 1.224,1.0317 1.6114,1.5052 0.9108,1.113 1.295,2.2013 1.295,3.6682 0,0.6513 -0.038,0.6367 0.7125,0.2719 z m 20.371004,-7.7324 c -0.016,-0.024 -0.092,-0.2572 -0.1685,-0.5171 -0.1626,-0.548 -0.4566,-1.1696 -0.7698,-1.6267 -0.2819,-0.4114 -1.0121,-1.2297 -1.0945,-1.2266 -0.035,0 -0.095,0.2069 -0.1323,0.4572 -0.095,0.6214 -0.3024,1.2006 -0.5939,1.6583 -0.2482,0.39 -0.7883,1.0035 -0.8832,1.0035 -0.098,0 -0.6406,-0.7371 -0.891,-1.2101 -0.1607,-0.3038 -0.3429,-0.8139 -0.5104,-1.4294 -0.2486,-0.9142 -0.2558,-0.9637 -0.1553,-1.1067 0.1266,-0.18 0.3747,-0.1986 0.5208,-0.039 0.056,0.062 0.2081,0.507 0.3384,0.991 0.2267,0.843 0.5817,1.6683 0.7383,1.7159 0.096,0.029 0.4977,-0.7414 0.6217,-1.1943 0.1036,-0.3775 0.2182,-1.4669 0.2199,-2.0874 l 0,-0.3754 0.6287,0.5418 c 1.0692,0.9208 1.9922,2.0623 2.352,2.9089 0.08,0.1872 0.1594,0.3399 0.1773,0.3394 0.064,0 0.5232,-0.6254 0.6939,-0.9436 0.2528,-0.4713 0.484,-1.1666 0.6651,-2.0004 0.087,-0.4023 0.1587,-0.7404 0.1587,-0.7513 0,-0.013 0.067,-0.062 0.1503,-0.1122 0.1225,-0.075 0.1806,-0.078 0.3146,-0.022 0.091,0.039 0.1812,0.1183 0.2014,0.1784 0.045,0.1299 -0.2441,1.5014 -0.4238,2.0166 -0.2766,0.7934 -0.6084,1.3962 -1.0489,1.9054 -0.2714,0.3138 -1.0734,0.9826 -1.1098,0.9255 z m -12.2665,-7.0872 c -1.1659,-0.7676 -1.8695,-1.6353 -2.8343,-3.4947 l -0.5054,-0.974 -0.053,0.2361 c -0.028,0.13 -0.072,0.5711 -0.094,0.9805 -0.049,0.8532 0.036,1.5068 0.2743,2.1482 0.084,0.2273 0.1679,0.455 0.1852,0.5061 0.021,0.061 -0.056,0.1468 -0.2246,0.2508 -0.1406,0.087 -0.2707,0.1581 -0.2889,0.1581 -0.094,0 -1.890304,-1.3971 -2.247204,-1.7479 -0.4888,-0.4806 -0.6154,-0.6439 -1.0127,-1.3058 -0.3375,-0.5626 -0.3167,-0.5749 -0.4746,0.2792 -0.1239,0.6718 -0.09,1.4132 0.095,2.0638 0.068,0.2423 0.1129,0.4518 0.099,0.4657 -0.04,0.038 -1.2703,-0.4463 -1.6736,-0.6569 -0.8408,-0.4395 -1.7807,-1.2896 -2.4,-2.1711 l -0.3736,-0.5316 -0.049,0.2232 c -0.026,0.1228 -0.05,0.6615 -0.051,1.1973 0,1.1109 0.064,1.3719 0.4409,1.7126 0.2447,0.2216 0.2792,0.4034 0.1044,0.5508 -0.1783,0.1509 -0.3664,0.1172 -0.6406,-0.1146 -0.5039,-0.4253 -0.7503,-1.2948 -0.668,-2.356 0.049,-0.6227 0.337,-3.0632 0.387,-3.2724 0.029,-0.1182 0.1363,0.034 0.6009,0.8464 0.3115,0.5448 0.712,1.1939 0.8897,1.4427 0.4393,0.614 1.4282,1.5247 1.9536,1.7989 0.2292,0.1194 0.4315,0.2175 0.4493,0.2175 0.018,0 0.05,-0.3653 0.068,-0.8117 0.023,-0.5253 0.082,-0.9782 0.1668,-1.2839 0.225,-0.8153 0.7195,-2.2179 0.7653,-2.1706 0.025,0.025 0.1629,0.3821 0.3082,0.7933 0.5681,1.6084 1.1777,2.4582 2.431804,3.3897 0.2974,0.2209 0.309,0.2245 0.2707,0.08 -0.2151,-0.8051 -0.1679,-2.1586 0.1155,-3.3309 0.1912,-0.7898 0.3894,-1.509 0.4252,-1.5424 0.014,-0.014 0.1348,0.1947 0.2685,0.4628 0.6713,1.351 1.8191,3.4812 2.05,3.8048 0.1436,0.2012 0.424,0.5338 0.6231,0.739 l 0.362,0.3732 0,-1.0932 c 0,-0.8711 0.032,-1.2371 0.1438,-1.8004 0.1559,-0.7836 0.749,-2.5516 0.829,-2.4721 0.028,0.028 0.3705,0.5155 0.7609,1.0836 1.2739,1.8538 1.775,2.3519 3.06,3.0413 0.4968,0.2666 0.6484,0.4575 0.5141,0.6476 -0.1334,0.1886 -0.3899,0.1778 -0.8192,-0.033 -1.1547,-0.5699 -2.032,-1.3751 -2.982,-2.7373 l -0.3687,-0.5289 -0.1431,0.5289 c -0.2288,0.8461 -0.2965,1.5898 -0.2522,2.7719 0.022,0.5844 0.059,1.2683 0.081,1.52 0.023,0.2594 0.017,0.455 -0.014,0.4518 -0.032,0 -0.2826,-0.1545 -0.5592,-0.3367 z m 17.3011,-2.0835 c 0.023,-0.273 0.059,-0.9876 0.081,-1.5883 0.042,-1.1523 -0.032,-1.8922 -0.2818,-2.8014 l -0.1128,-0.4107 -0.5883,0.8078 c -0.8602,1.1812 -1.7606,1.9752 -2.7997,2.4688 -0.5557,0.2641 -0.8413,0.2051 -0.796,-0.1641 0.014,-0.1255 0.095,-0.2091 0.3277,-0.343 1.4978,-0.863 1.8695,-1.2127 3.0137,-2.8335 0.4812,-0.6818 0.9147,-1.2916 0.9631,-1.355 0.08,-0.105 0.1142,-0.044 0.3815,0.7084 0.5078,1.4267 0.7192,2.7328 0.6397,3.9523 l -0.043,0.6494 0.2338,-0.2067 c 0.6486,-0.5728 1.0452,-1.197 2.2096,-3.4776 0.6609,-1.2945 0.8946,-1.7011 0.9306,-1.6195 0.099,0.2221 0.4293,1.5523 0.5248,2.1074 0.1115,0.6451 0.1308,2.0677 0.035,2.4291 -0.106,0.3972 -0.078,0.4078 0.2969,0.1146 1.2762,-0.9933 1.7924,-1.7207 2.3582,-3.3226 0.1453,-0.4112 0.2843,-0.7687 0.3092,-0.7942 0.06,-0.063 0.73,1.984 0.8528,2.6061 0.054,0.2714 0.097,0.7562 0.097,1.0772 0,0.3213 0.019,0.5839 0.044,0.5839 0.1784,0 1.0269,-0.5788 1.5082,-1.0289 0.6656,-0.6224 1.1305,-1.259 1.8308,-2.5059 0.3684,-0.6556 0.5145,-0.8676 0.5458,-0.7908 0.095,0.2325 0.3901,2.9849 0.3913,3.6469 0,1.0534 -0.2088,1.6564 -0.7173,2.0561 -0.2337,0.1838 -0.4444,0.2013 -0.5914,0.049 -0.1598,-0.1648 -0.1266,-0.3214 0.1155,-0.5406 0.3703,-0.3354 0.4432,-0.6072 0.443,-1.6536 0,-0.5033 -0.023,-1.0406 -0.051,-1.1941 l -0.051,-0.2792 -0.3878,0.5448 c -0.4936,0.6934 -1.5028,1.6424 -2.1323,2.0051 -0.4347,0.2503 -1.8785,0.8481 -1.9307,0.7993 -0.014,-0.013 0.034,-0.2192 0.1034,-0.4614 0.1915,-0.6738 0.2216,-1.3476 0.094,-2.069 -0.06,-0.338 -0.1321,-0.6528 -0.16,-0.6995 -0.036,-0.061 -0.1183,0.041 -0.2859,0.3525 -0.4884,0.9057 -1.0245,1.4598 -2.4248,2.5057 -0.9164,0.6845 -0.8813,0.6736 -1.2554,0.3862 l -0.1425,-0.1098 0.1855,-0.5214 c 0.2631,-0.7389 0.3479,-1.3775 0.2959,-2.2303 -0.023,-0.3912 -0.066,-0.8176 -0.095,-0.9474 l -0.051,-0.2361 -0.384,0.7378 c -0.4517,0.8674 -0.8872,1.6135 -1.2062,2.0661 -0.4515,0.6409 -1.5113,1.5609 -2.277,1.9771 -0.074,0.041 -0.082,-0.031 -0.047,-0.4479 z m -49.497004,-4.4905 c -1.0669,-0.5703 -1.9794,-1.5567 -2.6666,-2.8827 -0.2788,-0.5376 -1.0613,-2.6122 -1.0613,-2.8133 0,-0.039 0.395,0.152 0.8777,0.4248 0.4828,0.2729 1.1301,0.5999 1.4384,0.7267 0.5638,0.2317 1.6437,0.5204 1.711,0.4574 0.019,-0.018 -0.013,-0.3065 -0.073,-0.6397 -0.2658,-1.4636 -0.1864,-2.9604 0.2096,-3.9523 0.1693,-0.4238 0.6479,-1.2973 0.851,-1.5528 0.092,-0.1159 0.095,-0.1159 0.1293,0.029 0.019,0.081 0.1669,0.7054 0.3266,1.3872 0.3699,1.5808 0.6613,2.6345 0.9139,3.3057 0.2755,0.732 0.2796,0.7358 0.3728,0.3433 0.099,-0.4184 0.4396,-1.436 0.6662,-1.993 0.2944,-0.7228 1.2433,-2.3791 1.4226,-2.4825 0.073,-0.042 0.9304,1.1828 1.3633,1.9481 0.1838,0.3247 0.4236,0.8027 0.5334,1.0625 0.11,0.2597 0.209,0.4815 0.2211,0.4927 0.045,0.041 0.2739,-0.4457 0.4155,-0.8771 0.2105,-0.6415 0.1937,-1.2478 -0.059,-2.1652 -0.1087,-0.3958 -0.1988,-0.7355 -0.1988,-0.7549 0,-0.087 1.5725,1.1016 1.9068,1.4418 0.6442,0.6559 1.0398,1.3903 1.1938,2.2165 0.095,0.5064 0.017,0.6793 -0.3027,0.6793 -0.1818,0 -0.2262,-0.029 -0.2975,-0.1918 -0.046,-0.1062 -0.1044,-0.3248 -0.1294,-0.4871 -0.087,-0.5657 -0.5669,-1.4103 -1.0375,-1.8263 l -0.1962,-0.1733 0,0.321 c 0,0.3859 -0.1363,1.01 -0.3174,1.4643 -0.1675,0.4218 -1.0799,2.1919 -1.1296,2.1919 -0.021,0 -0.1336,-0.3254 -0.2511,-0.7232 -0.2339,-0.7904 -0.5301,-1.5559 -0.7952,-2.0554 -0.2601,-0.4899 -0.8167,-1.3515 -0.8739,-1.3526 -0.077,0 -0.7659,1.3719 -0.9914,1.9765 -0.2738,0.734 -0.5806,1.8921 -0.7934,2.9961 -0.099,0.5115 -0.1983,0.91 -0.2216,0.8855 -0.088,-0.093 -0.9108,-2.023 -1.177,-2.76 -0.2655,-0.7355 -0.8357,-2.7629 -0.8464,-3.0101 -0.014,-0.2578 -0.1921,0.292 -0.2881,0.8757 -0.1279,0.7815 -0.081,1.6829 0.1641,3.0769 0.1024,0.5834 0.178,1.068 0.1684,1.0771 -0.014,0.013 -0.3565,-0.025 -0.7709,-0.075 -0.8261,-0.1003 -1.5912,-0.3157 -2.3855,-0.6706 -0.2837,-0.1269 -0.5227,-0.2244 -0.5309,-0.2169 -0.033,0.03 0.3288,0.8347 0.5907,1.3144 0.5774,1.0574 1.3228,1.8517 2.191,2.3351 0.564,0.3141 0.6612,0.4734 0.4242,0.695 -0.1715,0.1603 -0.2884,0.1487 -0.6951,-0.069 z m 60.256404,-5.4513 c -0.053,-0.049 -0.1115,-0.2151 -0.1323,-0.369 -0.06,-0.4613 -0.281,-1.1344 -0.5475,-1.6668 -0.2649,-0.5293 -1.2515,-1.9576 -1.3236,-1.9161 -0.023,0.014 -0.06,0.1343 -0.083,0.2683 -0.081,0.4776 -0.483,1.5079 -0.7794,2.002 -0.2253,0.3752 -0.4587,0.6471 -0.9264,1.0786 -0.3436,0.3173 -0.6347,0.5679 -0.6467,0.5568 -0.013,-0.013 -0.1086,-0.2934 -0.2145,-0.6275 -0.3038,-0.9552 -0.8128,-1.7833 -1.5656,-2.5471 l -0.3155,-0.3203 -0.043,0.2951 c -0.085,0.5932 -0.2907,1.2508 -0.5335,1.712 -0.2572,0.488 -0.9145,1.2394 -1.0274,1.1741 -0.035,-0.021 -0.2337,-0.2513 -0.4421,-0.5138 -0.4683,-0.5899 -1.0266,-1.6447 -1.1617,-2.1952 -0.1633,-0.6634 -0.017,-1.1511 0.3449,-1.1511 0.2764,0 0.3508,0.1347 0.3554,0.6424 0,0.3595 0.044,0.5417 0.2007,0.9094 0.2054,0.48 0.6921,1.2817 0.7782,1.2817 0.076,0 0.3427,-0.4566 0.4989,-0.8513 0.19,-0.4811 0.3205,-1.3521 0.3209,-2.1445 0,-0.3652 0.025,-0.6642 0.054,-0.6642 0.028,0 0.4643,0.3919 0.9664,0.8708 0.9738,0.9287 1.6054,1.7278 1.9245,2.435 0.095,0.2112 0.1912,0.4036 0.213,0.4279 0.06,0.067 0.4751,-0.4713 0.7187,-0.9326 0.3081,-0.5836 0.5052,-1.2101 0.7377,-2.3435 0.1115,-0.5438 0.2207,-0.9882 0.243,-0.9874 0.053,0 1.3633,1.6773 1.7447,2.2309 0.3833,0.5565 0.9378,1.6529 1.0651,2.1065 0.055,0.1949 0.1183,0.5209 0.1424,0.7246 0.036,0.3099 0.025,0.3895 -0.069,0.4871 -0.1348,0.1387 -0.363,0.1512 -0.4956,0.027 z m 19.4212,-1.735 c 0,-0.062 -0.1685,-1.8749 -0.3748,-4.029 -0.2061,-2.1539 -0.3837,-4.0218 -0.3945,-4.1505 l -0.019,-0.2342 0.5368,0.017 c 0.7013,0.023 1.0676,-0.068 1.4069,-0.3465 1.2383,-1.0184 1.2737,-4.0187 0.106,-9.0607 l -0.2597,-1.1215 0.3211,-5.7832 0.3215,-5.7833 0.1942,-0.226 c 0.6228,-0.724 0.9231,-1.1457 1.2284,-1.7256 0.4315,-0.8192 0.5969,-1.4448 0.5975,-2.2603 0,-1.1668 -0.2742,-1.9645 -1.3645,-3.9582 l -0.7216,-1.3191 0.3069,-0.3634 c 0.1688,-0.1997 0.3811,-0.483 0.4717,-0.6295 0.5156,-0.8326 0.8659,-2.3144 0.865,-3.6593 0,-3.312 -1.4184,-7.7382 -3.8059,-11.8945 -1.6863,-2.9356 -3.479,-5.2477 -5.6353,-7.2679 -1.9891,-1.8636 -3.7526,-2.9775 -5.5849,-3.5277 -0.944,-0.2835 -1.4995,-0.3542 -2.5016,-0.3185 l -0.844,0.03 -0.6866,-0.5884 c -0.8869,-0.7601 -1.163,-0.8971 -1.7924,-0.89 -0.2608,0 -0.6152,0.047 -0.7877,0.099 l -0.3136,0.093 -0.5078,-0.4614 c -0.9729,-0.8838 -1.5825,-1.1543 -2.5928,-1.1505 -0.5384,0 -0.7112,0.029 -1.1689,0.1807 l -0.5372,0.1783 -0.4792,-0.4204 c -0.5035,-0.4418 -1.052,-0.7422 -1.6379,-0.8971 -0.193,-0.051 -0.7821,-0.111 -1.3265,-0.1359 -0.9628,-0.044 -0.9938,-0.049 -1.8323,-0.334 -0.7963,-0.2705 -0.8932,-0.2898 -1.4533,-0.2901 -0.5351,0 -0.6368,0.017 -0.9353,0.164 l -0.3349,0.1646 -0.36,-0.2039 c -0.1981,-0.1122 -0.5451,-0.2622 -0.7708,-0.3334 -0.7352,-0.2317 -1.5922,-0.093 -2.4147,0.3926 -0.138,0.083 -0.284,0.1363 -0.3245,0.1217 -0.041,-0.015 -0.3241,-0.2028 -0.6305,-0.4187 -0.3063,-0.2158 -0.7573,-0.4867 -1.0021,-0.6018 -0.4848,-0.2283 -1.2661,-0.4379 -1.6253,-0.4363 -0.3469,0 -1.0497,0.1556 -1.4126,0.3094 l -0.3254,0.138 -0.8874,-0.1658 c -1.9915,-0.3723 -2.6115,-0.2783 -3.5256,0.5344 -0.2002,0.1778 -0.3738,0.3126 -0.3859,0.2993 -0.014,-0.014 -0.1433,-0.2439 -0.2917,-0.5126 -0.4631,-0.8391 -0.9473,-1.1139 -2.0178,-1.1456 -0.5224,-0.016 -0.534,-0.012 -0.6811,0.1599 -0.082,0.096 -4.165804,5.4882 -9.074804,11.9817 l -8.9255,11.8061 -2.5566,-0.021 -2.5568,-0.021 0.1252,0.1294 0.1252,0.1297 -0.2202,-0.035 c -1.881,-0.298 -3.7385,-0.2738 -4.9908,0.065 -1.3187,0.3564 -2.6552,1.1903 -3.6654,2.2866 -2.291,2.4867 -3.8583,6.6226 -5.0573,13.3457 -0.1045,0.5844 -0.3807,1.8595 -0.6145,2.8335 l -0.4251,1.7709 0,0.974 c 0.014,1.7995 0.437,3.974 1.5179,7.7626 0.9872,3.4588 0.8754,3.131 1.0963,3.2166 0.5177,0.2003 1.005,-0.2784 1.2376,-1.2155 0.095,-0.3814 0.092,-0.4068 -0.2542,-2.5419 -0.1925,-1.186 -0.3498,-2.1903 -0.3498,-2.2314 0,-0.064 0.6267,-0.2314 0.6804,-0.1827 0.014,0.013 0.3336,0.87 0.7205,1.9144 0.657,1.7731 0.7123,1.8961 0.836,1.8605 0.5825,-0.1687 1.174,-0.6062 1.4426,-1.0673 0.6859,-1.1772 0.098,-2.881 -1.7657,-5.1165 -0.2941,-0.3526 -0.5108,-0.6627 -0.4818,-0.6889 0.029,-0.026 0.2973,-0.1133 0.5961,-0.1937 0.7247,-0.195 0.9135,-0.2932 0.998,-0.5196 0.1728,-0.4632 0.023,-1.5361 -0.3937,-2.8203 l -0.2081,-0.6413 0.2016,-1.2615 c 0.6403,-4.0072 1.4426,-6.718 2.4872,-8.4043 0.6555,-1.0581 1.5019,-1.7779 2.4014,-2.0422 0.7599,-0.2233 1.9729,-0.1271 2.9545,0.2346 0.201,0.073 1.1561,0.233 2.5253,0.4204 1.211,0.1659 2.4863,0.365 2.8339,0.4425 2.1292,0.4752 3.1798,0.6189 4.8418,0.6618 1.329,0.034 2.1089,-0.018 2.9617,-0.1979 2.3086,-0.4881 3.8406,-1.4315 5.4796,-3.3745 0.3645,-0.432 0.672,-0.7771 0.6831,-0.7666 0.014,0.012 0.067,0.8551 0.124,1.8771 0.056,1.0218 0.1087,1.861 0.1155,1.8649 0.1036,0.064 3.784504,0.4236 5.694404,0.5567 1.3879,0.096 3.3783,0.2547 4.4229,0.3511 1.0446,0.096 2.0131,0.1856 2.1521,0.198 0.1551,0.014 0.4706,0.1396 0.8159,0.3248 1.0542,0.5656 1.5608,0.6181 2.2312,0.2316 l 0.3677,-0.212 0.9345,0.095 c 0.7786,0.079 0.9998,0.082 1.3256,0.021 0.5368,-0.1013 0.9747,-0.3834 1.3427,-0.8653 0.2446,-0.3202 0.3226,-0.3848 0.4316,-0.3567 0.7018,0.181 1.4462,0.2791 1.9191,0.253 0.8437,-0.047 1.2134,-0.2645 2.2146,-1.3054 l 0.3922,-0.4077 0.2678,0.077 c 0.4631,0.1338 0.824,0.166 1.2158,0.1085 0.371,-0.054 0.8941,-0.2473 1.1289,-0.4161 0.1102,-0.078 0.1115,-0.097 0.019,-0.2618 -0.1886,-0.3408 -0.3153,-1.1277 -0.2794,-1.7364 l 0.033,-0.5685 -0.1987,-0.1063 c -0.9842,-0.5275 -1.3358,-1.161 -1.4397,-2.5945 -0.053,-0.7322 -0.087,-0.9145 -0.1879,-1.0361 -0.067,-0.081 -0.2115,-0.3156 -0.3191,-0.5211 -0.1872,-0.3572 -0.1944,-0.3981 -0.1658,-0.9444 0.026,-0.5047 0.063,-0.6465 0.3117,-1.22 0.3285,-0.7558 0.4823,-0.8968 0.7795,-0.7148 0.2169,0.1328 0.1985,0.278 -0.1279,1.009 -0.4135,0.9243 -0.367,1.4963 0.1675,2.0645 l 0.2144,0.228 0.037,0.9496 c 0.036,0.8921 0.05,0.973 0.227,1.3353 0.2173,0.4427 0.5545,0.7457 1.092,0.9809 0.1923,0.085 0.3568,0.1588 0.3654,0.1657 0.014,0.013 -0.015,0.2933 -0.051,0.6368 -0.1129,1.0471 0.077,1.8397 0.5647,2.3587 0.11,0.1171 0.5271,0.4215 0.9265,0.6762 l 0.7263,0.463 -0.049,0.2657 c -0.08,0.4419 -0.04,0.9527 0.1035,1.2986 0.2858,0.6906 0.8601,1.1944 1.4518,1.2739 0.1606,0.022 0.3418,0.079 0.4025,0.1297 0.1266,0.1034 0.1465,0.3694 0.035,0.4735 -0.1142,0.1074 -0.5767,0.086 -0.9503,-0.045 l -0.3323,-0.1159 0.3158,0.271 c 0.1738,0.1492 0.6856,0.5949 1.1373,0.9904 4.1264,3.6138 7.3469,5.4048 12.6373,7.0273 l 1.011,0.3102 0.2737,0.4647 c 3.1636,5.3737 4.4184,8.9932 4.6216,13.3308 0.081,1.7371 -0.021,3.2101 -0.3488,5.05 l -0.1527,0.8558 -2.3706,4.7364 c -1.3039,2.6049 -2.3707,4.7582 -2.3707,4.7852 0,0.047 2.7024,0.2832 2.7447,0.2399 0.014,-0.013 0.2356,-0.7346 0.4979,-1.6063 0.2622,-0.8717 0.4886,-1.5959 0.5031,-1.6096 0.045,-0.041 0.6774,0.1122 0.6774,0.1649 0,0.026 -0.1716,0.7698 -0.3812,1.6506 -0.2096,0.8809 -0.367,1.6148 -0.35,1.6307 0.032,0.03 3.0758,0.2286 3.7166,0.2423 0.3182,0.012 0.3634,-0.013 0.3634,-0.1049 z m -1.7565,-39.155 c -0.1609,-0.1503 -0.083,-0.3911 0.2164,-0.6807 0.5968,-0.5746 0.7508,-1.2304 0.4302,-1.8316 -0.1943,-0.3639 -0.4357,-0.5717 -1.0512,-0.9041 -0.2536,-0.137 -0.4707,-0.2563 -0.4824,-0.2652 -0.013,-0.013 0.1389,-0.1975 0.3347,-0.4193 0.4333,-0.4906 0.6458,-0.8825 0.735,-1.3552 0.1703,-0.9026 -0.3698,-1.9177 -1.2195,-2.2925 -0.4065,-0.1793 -0.4923,-0.2559 -0.4923,-0.4402 0,-0.6368 1.2279,-0.183 1.8826,0.6958 0.7188,0.9649 0.7658,2.0953 0.132,3.1923 l -0.2548,0.4413 0.1784,0.1159 c 0.3363,0.2191 0.7739,0.6944 0.9474,1.0293 0.1467,0.2832 0.1741,0.413 0.1762,0.8381 0,0.4505 -0.019,0.5436 -0.2025,0.8919 -0.2694,0.5114 -0.8219,1.0549 -1.0724,1.0549 -0.1007,0 -0.2165,-0.031 -0.2581,-0.071 z m -35.6295,-5.9429 c -0.6415,-0.2228 -1.347,-0.7546 -1.347,-1.0155 0,-0.1317 0.2123,-0.3495 0.3407,-0.3495 0.049,0 0.2259,0.1085 0.3948,0.2401 0.4958,0.3879 0.8791,0.547 1.318,0.5471 0.6711,0 1.2049,-0.3881 1.638,-1.1914 0.1224,-0.2275 0.2499,-0.4292 0.2831,-0.4482 0.033,-0.019 0.24,0.093 0.4597,0.2477 0.7497,0.53 1.4871,0.7141 2.2656,0.5658 0.7291,-0.1388 1.2766,-0.5582 1.6165,-1.2378 0.2233,-0.4466 0.3471,-0.5311 0.6034,-0.4123 0.2283,0.1061 0.2259,0.3933 -0.014,0.8353 -0.5613,1.0651 -1.9089,1.701 -3.2058,1.5128 -0.4314,-0.063 -0.5984,-0.1224 -1.4747,-0.5267 -0.018,-0.013 -0.087,0.078 -0.1519,0.1916 -0.1737,0.3012 -0.8072,0.8422 -1.1561,0.9873 -0.4299,0.1785 -1.147,0.2029 -1.5773,0.053 z m -10.1615,-1.8473 c -0.4649,-0.082 -1.152,-0.4134 -1.5477,-0.7455 l -0.3473,-0.2915 -0.2789,0.2293 c -0.1533,0.1261 -0.4654,0.315 -0.6938,0.4201 -0.3751,0.1725 -0.4705,0.1909 -0.9852,0.1909 -0.528,0 -0.5993,-0.015 -0.964204,-0.1996 -0.4324,-0.2191 -0.8501,-0.6006 -1.1087,-1.0129 -0.1904,-0.3036 -0.1744,-0.4759 0.055,-0.5905 0.2084,-0.1035 0.3895,-0.013 0.6183,0.3303 0.4138,0.6109 1.075404,0.9209 1.699904,0.7963 0.4412,-0.088 0.7508,-0.2815 1.2633,-0.7891 l 0.4276,-0.4234 0.2335,0.2657 c 0.4096,0.466 0.8125,0.7951 1.1941,0.9756 0.3415,0.1614 0.4241,0.1754 1.0346,0.1754 0.6032,0 0.6949,-0.016 1.0109,-0.1662 0.3818,-0.1827 0.7825,-0.5133 0.9207,-0.7593 0.1582,-0.2815 0.6214,-0.2969 0.6951,-0.023 0.058,0.2138 -0.128,0.5165 -0.5454,0.8881 -0.7145,0.6368 -1.696,0.9037 -2.6817,0.7293 z m 42.6067,-5.871 c -0.09,-0.084 -0.099,-0.2172 -0.071,-0.9887 0.032,-0.892 0.032,-0.8932 -0.1479,-1.2174 -0.1335,-0.2418 -0.2748,-0.3861 -0.5523,-0.5663 l -0.3729,-0.2418 -0.2981,-0.8063 c -0.5303,-1.4338 -0.9006,-1.76 -2.2194,-1.9555 -0.2281,-0.033 -0.2307,-0.038 -0.3087,-0.431 -0.2361,-1.1927 -0.663,-1.9439 -1.3037,-2.2947 -0.1574,-0.087 -0.6604,-0.2674 -1.1174,-0.4023 l -0.8311,-0.2455 -0.08,-0.4097 c -0.1074,-0.5556 -0.3432,-0.9796 -0.7536,-1.357 -0.4564,-0.4195 -0.9009,-0.5822 -1.4735,-0.5392 -0.4444,0.033 -0.5826,-0.017 -0.6582,-0.2393 -0.033,-0.099 0,-0.1707 0.1211,-0.2868 0.1611,-0.1505 0.185,-0.1546 0.778,-0.1302 0.5361,0.022 0.6613,0.049 1.012,0.2168 0.7582,0.3628 1.5142,1.2685 1.6418,1.9672 l 0.045,0.2441 0.6493,0.2 c 1.4758,0.4547 2.0827,1.0624 2.5234,2.5267 l 0.1656,0.5507 0.285,0.068 c 1.091,0.2566 1.7249,0.92 2.2183,2.3205 0.1823,0.5181 0.2284,0.5933 0.4407,0.7186 0.5709,0.3367 0.924,0.9442 0.9903,1.7043 0.051,0.5917 -0.067,1.522 -0.2081,1.6177 -0.1492,0.1013 -0.3531,0.093 -0.4756,-0.022 z m -24.7408,-13.5527 c -0.4489,-0.5486 -0.7767,-0.8719 -1.0583,-1.0436 -0.2332,-0.1422 -0.3065,-0.1541 -0.9478,-0.1552 l -0.6951,0 -0.6318,-0.3394 c -1.3018,-0.6997 -1.9254,-0.7382 -2.9001,-0.1789 -0.2505,0.1439 -0.3993,0.1964 -0.4542,0.1606 -1.2647,-0.8262 -1.6709,-1.0141 -2.313,-1.0705 -0.474,-0.041 -0.8126,0.044 -1.7307,0.4359 l -0.7633,0.3261 -0.4121,-0.2915 c -0.9814,-0.694 -2.3905,-0.6402 -3.0313,0.1159 -0.2179,0.2572 -0.4239,0.2912 -0.625,0.1034 -0.155,-0.1448 -0.1239,-0.2899 0.1238,-0.5843 0.7106,-0.8419 2.2487,-1.0435 3.5119,-0.4605 0.1391,0.064 0.3136,0.1686 0.3879,0.2322 0.135,0.1146 0.1363,0.1146 0.5185,-0.065 1.5228,-0.718 2.6122,-0.6448 4.095,0.2748 l 0.3374,0.2094 0.4267,-0.2001 c 0.4078,-0.1911 0.4579,-0.2001 1.1218,-0.2001 0.7976,0 0.9899,0.053 1.8956,0.5252 l 0.5688,0.2964 0.6318,0 c 0.5401,0 0.6843,0.027 0.9932,0.1607 0.4479,0.192 0.9057,0.5838 1.3864,1.1865 0.3987,0.4997 0.4707,0.7517 0.2469,0.8635 -0.251,0.1254 -0.3771,0.069 -0.6836,-0.3056 z m -13.3474,62.3281 c 0.2063,-0.4556 0.3648,-0.8378 0.3522,-0.8495 -0.014,-0.013 -0.3812,0 -0.8191,0.021 l -0.7966,0.041 0.037,0.4192 c 0.053,0.5799 0.2366,1.4141 0.4058,1.8313 l 0.1416,0.3493 0.1518,-0.4915 c 0.083,-0.2705 0.3208,-0.8645 0.5269,-1.3202 z m 1.9554,1.0245 c 0.2221,-0.8633 0.7671,-1.5358 1.5192,-1.8747 l 0.4106,-0.1849 -1.2795,0 c -1.0966,0 -1.2795,0.013 -1.2795,0.086 0,0.048 -0.031,0.088 -0.065,0.088 -0.069,0 -0.058,0.1097 0.1046,0.9075 0.1225,0.6036 0.4005,1.423 0.4601,1.3574 0.026,-0.028 0.083,-0.1975 0.1307,-0.3761 z m -20.763504,-0.1034 c 0.021,-0.2192 0.068,-0.8899 0.1045,-1.4906 0.037,-0.6006 0.082,-1.2049 0.1008,-1.3429 l 0.033,-0.2509 0.3436,0 0.3438,0 0,1.7149 0,1.7151 0.5213,-0.038 c 0.2867,-0.021 1.033,-0.069 1.6586,-0.1063 l 1.1374,-0.069 0.1128,-0.5018 c 0.1805,-0.8007 0.117,-1.9144 -0.1713,-3.0105 -0.124,-0.4707 -0.2254,-0.905 -0.2256,-0.965 0,-0.061 0.058,-0.186 0.1306,-0.2804 0.1823,-0.2392 0.4023,-0.2226 1.0153,0.076 0.5451,0.2658 0.602,0.2647 0.8257,-0.016 0.2668,-0.3348 0.4621,-2.0167 0.3969,-3.4192 -0.051,-1.1064 -0.2063,-3.4181 -0.3165,-4.7223 -0.1603,-1.8946 -0.2828,-4.0127 -0.2828,-4.8924 0,-0.7614 0.039,-1.0656 0.3754,-2.9517 1.0882,-6.0934 1.7892,-11.4371 2.1421,-16.3292 0.08,-1.1132 0.1008,-1.8163 0.068,-2.3316 -0.025,-0.4059 -0.05,-0.8273 -0.053,-0.9365 l 0,-0.1985 -0.7254,0.6514 c -1.7496,1.5714 -3.6485,2.3426 -6.2882,2.5536 -1.5745,0.126 -3.6508,-0.057 -5.7736,-0.5118 -0.3777,-0.08 -0.6935,-0.1389 -0.7018,-0.1294 -0.014,0.012 1.3748,3.2246 3.0733,7.1443 l 3.0881,7.1269 0.06,1.403 c 0.08,1.8523 0.08,7.3869 0,9.0871 -0.1266,2.6812 -0.3189,4.9668 -0.6065,7.1918 -0.1558,1.2034 -0.1808,1.3059 -0.8587,3.5123 -0.3841,1.25 -0.702,2.2969 -0.7065,2.3263 0,0.042 0.9479,0.3764 1.1053,0.3866 0.022,0 0.056,-0.1768 0.077,-0.3959 z m 19.439304,-2.9568 c 0,-0.2869 0.019,-1.1238 0.041,-1.8595 l 0.042,-1.3377 0.369,0 0.369,0 0,1.7709 0,1.771 1.2638,0 1.2636,0 0,-0.3985 c 0,-0.2191 -0.041,-1.4865 -0.092,-2.8165 -0.05,-1.3299 -0.08,-2.4286 -0.066,-2.4414 0.013,-0.014 0.2469,0.1888 0.5184,0.4482 0.5995,0.5732 0.7688,0.63 1.19,0.3994 0.3252,-0.178 0.7936,-0.7601 1.1656,-1.4485 0.9835,-1.8202 1.8776,-4.4668 3.4099,-10.0943 l 0.5544,-2.0365 0.6852,-0.9149 c 3.8775,-5.1784 6.38,-9.4822 7.8343,-13.4733 0.1627,-0.4462 0.3143,-0.8002 0.3371,-0.7871 0.023,0.014 -0.049,-0.1486 -0.1576,-0.3597 -0.2355,-0.453 -0.3554,-0.9654 -0.3326,-1.4233 0.015,-0.3043 0,-0.3399 -0.1652,-0.4521 -0.1007,-0.067 -0.4172,-0.2856 -0.705,-0.4859 -0.5171,-0.3595 -0.5255,-0.3628 -0.6678,-0.259 -0.5817,0.4243 -1.6803,0.6363 -2.4443,0.4717 l -0.2779,-0.061 -0.575,0.5534 c -0.4676,0.4502 -0.6686,0.5965 -1.0769,0.7845 -0.4838,0.2226 -0.5291,0.2317 -1.2323,0.2494 -0.4584,0.013 -0.9052,-0.014 -1.2009,-0.066 l -0.471,-0.086 -0.382,0.3686 c -0.6037,0.5825 -1.1737,0.7964 -2.1254,0.7977 -0.2987,0 -0.7739,-0.029 -1.0563,-0.064 -0.4814,-0.061 -0.5249,-0.056 -0.7009,0.061 -0.464,0.3088 -1.3355,0.4087 -1.8941,0.2172 -0.152,-0.052 -0.2994,-0.095 -0.3273,-0.095 -0.028,0 0.074,0.2124 0.2285,0.4721 1.679,2.836 2.622,5.3473 3.0389,8.094 0.155,1.0199 0.1542,3.4342 0,4.5093 -0.6744,4.664 -3.0126,9.4123 -7.2355,14.693 l -0.8924,1.1162 0,2.352 0,2.352 0.8847,0 0.8845,0 0,-0.5218 z m 32.4551,-1.6102 c 0.349,-0.1013 0.5081,-0.1907 0.8209,-0.4641 1.2174,-1.0639 2.8739,-1.7603 4.6479,-1.9537 0.3582,-0.039 0.6735,-0.09 0.7008,-0.1122 0.058,-0.048 0.3155,-1.4619 0.4354,-2.3923 0.1128,-0.8699 0.1128,-4.2228 0,-4.9882 -0.5302,-3.6241 -1.5858,-6.4642 -3.9238,-10.5576 l -0.6386,-1.1182 -1.1524,-0.3636 c -1.6994,-0.5365 -3.0736,-1.0619 -4.5643,-1.7449 -3.0285,-1.3877 -4.9111,-2.656 -8.1826,-5.513 -0.5386,-0.4704 -1.0828,-0.9456 -1.2093,-1.0558 l -0.2297,-0.2007 -0.1115,0.3155 c -0.2516,0.7145 -1.032,2.4592 -1.6198,3.6211 -1.3903,2.748 -3.14,5.5011 -5.7007,8.9693 -0.55,0.7447 -1.025,1.4088 -1.0554,1.4757 -0.03,0.067 -0.2281,0.7724 -0.4392,1.5678 -0.8299,3.1254 -1.7376,6.1358 -2.363,7.8372 -0.1585,0.4307 -0.2878,0.7935 -0.2878,0.8063 0,0.014 0.2357,0.1699 0.5242,0.3491 1.0399,0.6465 2.0323,1.5746 2.7725,2.5929 l 0.2587,0.3558 0.1437,-0.3303 c 0.6051,-1.3894 1.4587,-2.3908 2.942,-3.4516 0.09,-0.064 0.1556,0.041 0.5479,0.8574 0.57,1.1874 1.0265,2.2602 1.3542,3.1821 0.1423,0.4009 0.2801,0.7289 0.3061,0.7289 0.026,0 0.2191,-0.1208 0.4294,-0.2683 0.668,-0.4692 1.1165,-1.1856 1.3103,-2.0929 0.1454,-0.681 0.092,-1.9563 -0.1307,-3.1507 -0.091,-0.4829 -0.1543,-0.8872 -0.1422,-0.8986 0.014,-0.012 0.3475,0.057 0.7452,0.1545 2.0673,0.5007 3.077,1.4506 3.447,3.2433 0.05,0.2424 0.1476,0.9064 0.2169,1.4757 0.1403,1.1553 0.2341,1.5229 0.4711,1.8462 0.4876,0.6656 1.6687,0.6406 2.875,-0.061 0.4513,-0.2622 0.6007,-0.3943 1.2495,-1.1043 1.6961,-1.8562 3.2229,-2.9607 5.0692,-3.667 0.4829,-0.1847 2.7142,-0.8136 2.7519,-0.7758 0.014,0.012 -0.2546,0.3342 -0.5847,0.7239 -1.5669,1.8491 -2.7289,3.9253 -2.9261,5.2287 -0.146,0.966 0.2075,1.2317 1.2418,0.9332 z m -33.9244,-4.0514 c 3.8504,-4.8575 6.0706,-9.0819 6.8954,-13.1197 0.2735,-1.3401 0.3449,-2.0541 0.3445,-3.4534 0,-3.0197 -0.6603,-5.495 -2.2963,-8.6185 -0.6425,-1.2264 -1.449,-2.5869 -1.6315,-2.7514 -0.1197,-0.1085 -3.3649,-0.4168 -7.0872,-0.6736 -1.1642,-0.08 -2.785,-0.2257 -3.6017,-0.3229 -0.8167,-0.097 -1.502904,-0.177 -1.524604,-0.1772 -0.022,0 -0.059,0.2587 -0.082,0.5751 -0.382,5.2443 -1.2454,11.7569 -2.3111,17.4289 -0.3291,1.752 -0.3264,2.0682 0.064,7.2903 0.1018,1.3637 0.203,2.6731 0.224,2.9097 l 0.039,0.4305 0.4614,-0.4096 c 0.6275,-0.5569 1.2481,-0.984 2.1494,-1.4796 l 0.758204,-0.417 0.045,0.1618 c 0.088,0.3246 0.3032,1.5696 0.3032,1.7599 0,0.3124 0.094,0.2847 0.3504,-0.1049 0.4039,-0.6111 1.1919,-1.4792 1.9673,-2.1671 0.4056,-0.3598 0.7578,-0.6543 0.7827,-0.6543 0.024,0 0.1381,0.2193 0.252,0.487 0.5576,1.3106 1.3245,2.5395 2.04,3.2694 0.3611,0.3682 1.0299,0.9069 1.1259,0.907 0.024,0 0.3525,-0.3917 0.732,-0.8705 z m -46.435504,-7.4851 c 0.1811,-0.05 0.5422,-0.2294 0.8026,-0.3984 0.4316,-0.2799 0.6068,-0.4679 1.9816,-2.1242 l 1.5082,-1.817 -0.1812,-0.7984 c -0.231,-1.0183 -0.4899,-2.648 -0.5489,-3.4557 l -0.046,-0.6272 -2.4642,3.1301 c -1.3554,1.7217 -2.5714,3.2768 -2.7024,3.4558 -0.3127,0.4272 -0.4496,0.8738 -0.4098,1.3367 0.09,1.0426 0.9734,1.5997 2.0599,1.2983 z m 14.2799,-17.8911 c 1.8126,-2.5691 3.2957,-4.6985 3.2957,-4.7322 0,-0.089 -1.0594,-0.3074 -1.4954,-0.3074 -0.2055,0 -0.5429,0.041 -0.7498,0.092 -1.8518,0.4505 -3.239,3.2279 -4.2001,8.4088 -0.2471,1.333 -0.2447,1.3161 -0.1913,1.259 0.024,-0.026 1.5283,-2.1506 3.3409,-4.7197 z m 18.6146,-25.6444 9.173504,-12.1339 7.6348,-11.2423 c 4.1991,-6.1833 7.6411,-11.2498 7.6486,-11.2586 0.023,-0.029 1.5389,1.1563 2.622,2.0502 1.5951,1.3166 2.2406,1.8273 3.0334,2.3996 2.9237,2.1106 5.5449,3.1185 9.0624,3.4845 1.1353,0.1183 4.2596,0.083 5.5015,-0.064 2.0008,-0.2344 3.7411,-0.5376 5.7499,-1.0015 1.2373,-0.2857 2.9908,-0.7396 3.4436,-0.8911 0.7354,-0.2464 2.6548,-0.7158 3.886,-0.9504 1.9511,-0.372 3.4809,-0.5192 5.3709,-0.5166 1.4757,0 2.1439,0.048 3.3803,0.2373 5.316,0.811 9.6963,3.7082 12.9711,8.579 1.2584,1.8717 2.2332,3.7727 3.3568,6.5463 l 0.081,0.2004 0.041,-0.3775 c 0.2067,-1.8924 0.2482,-2.5856 0.2478,-4.126 0,-1.8452 -0.08,-2.793 -0.3983,-4.7868 -0.1045,-0.6554 -0.1817,-1.2001 -0.1706,-1.2105 0.014,-0.012 0.3317,0.2079 0.7125,0.4847 1.8898,1.3734 3.4665,1.9408 5.79,2.0839 0.8808,0.054 2.258,0 3.1484,-0.1146 1.1111,-0.1483 3.7103,-0.6844 3.9659,-0.8182 0.049,-0.025 -0.2572,-0.076 -0.6798,-0.1147 -1.8267,-0.167 -3.5294,-0.4803 -4.8695,-0.8959 -2.6038,-0.8077 -4.5028,-2.0538 -6.4312,-4.2198 -3.4744,-3.9029 -6.7654,-6.3077 -10.4078,-7.6052 -1.7675,-0.6297 -3.5068,-0.9239 -5.4619,-0.9239 -2.4727,0 -4.5586,0.4477 -7.4243,1.5933 -2.3653,0.9455 -4.1854,1.3255 -6.3188,1.3193 -1.3077,0 -2.2153,-0.117 -3.2967,-0.4094 -3.1083,-0.8415 -5.7238,-2.8967 -7.1309,-5.6032 -0.4402,-0.8463 -0.6894,-1.5283 -0.8936,-2.4437 -0.2141,-0.9605 -0.2433,-2.4962 -0.063,-3.3339 0.2194,-1.0202 0.6408,-2.0449 1.1422,-2.7771 0.1294,-0.1884 0.2257,-0.3487 0.2151,-0.3568 -0.014,-0.013 -4.0526,-2.635 -8.9818,-5.8379 l -8.9624,-5.8236 -0.4011,0.3293 c -0.7664,0.6285 -1.7778,1.7462 -2.4271,2.682 -1.3149,1.8954 -2.1348,4.2289 -2.4783,7.0542 -0.1061,0.872 -0.1074,3.91 0,4.9585 0.1786,1.7755 0.501,3.7941 0.8906,5.5786 l 0.187,0.8558 -0.1629,0.2329 c -0.1184,0.1683 -12.6624,17.0525 -16.1104,21.6835 -0.6116,0.8217 -20.622104,29.4872 -20.598904,29.5088 0.027,0.025 4.2702,0.126 4.869,0.1158 l 0.3713,-0.013 9.1735,-12.1339 z m 38.294304,-36.4519 c -1.5986,-0.075 -3.0792,-0.1371 -3.2903,-0.1396 l -0.3839,0 -0.7769,-0.7822 c -2.1246,-2.1392 -3.5176,-4.1657 -4.276,-6.221 l -0.1772,-0.4801 -0.3499,-0.1024 c -1.0075,-0.2968 -2.4731,-1.0122 -3.0138,-1.4711 l -0.3537,-0.3004 0.047,-2.9951 c 0.026,-1.6474 0.064,-2.994 0.087,-2.9926 0.022,0 0.2395,0.2737 0.4834,0.6049 0.5185,0.7039 0.943,1.021 2.1612,1.6147 1.1149,0.5435 1.0281,0.5577 1.0297,-0.1669 0,-1.1752 0.3987,-2.3141 1.2132,-3.4888 l 0.2778,-0.4003 2.271,1.4556 c 1.2489,0.8007 2.3607,1.5182 2.4702,1.5945 l 0.1992,0.1388 -0.132,0.4588 c -0.1927,0.6684 -0.1883,1.9581 0.014,2.7089 l 0.1416,0.5383 0.8654,0.3869 c 1.3431,0.6003 2.2735,0.8861 3.7089,1.1388 0.3128,0.055 0.5888,0.117 0.6131,0.1364 0.051,0.041 0.27,5.1336 0.2226,5.1778 -0.076,0.071 -2.7071,-0.6973 -3.5457,-1.0356 -0.17,-0.069 -0.3183,-0.1159 -0.3296,-0.1062 -0.041,0.039 1.0383,1.7988 1.3842,2.2565 0.5132,0.6789 1.1732,1.3373 1.9833,1.9787 0.3887,0.3078 0.7085,0.5794 0.7108,0.6039 0,0.024 -0.074,0.041 -0.1697,0.036 -0.095,0 -1.4817,-0.069 -3.0803,-0.143 z m 1.163,-0.7197 c -0.047,-0.056 -0.2154,-0.2362 -0.375,-0.3985 -0.4238,-0.4306 -0.9717,-1.1405 -1.3966,-1.8089 -0.3726,-0.586 -1.975,-3.5316 -1.9383,-3.5627 0.013,-0.012 0.3607,0.1924 0.7779,0.4478 0.4169,0.2554 1.0425,0.5813 1.39,0.7243 0.6545,0.2691 2.6184,0.8875 2.6688,0.8403 0.026,-0.023 -0.1072,-3.707 -0.1348,-3.736 0,-0.012 -0.2364,-0.055 -0.5123,-0.1085 -1.3423,-0.2591 -2.7693,-0.7498 -4.0509,-1.3929 l -0.5752,-0.2887 -0.106,-0.3685 c -0.2971,-1.0392 -0.3798,-2.2843 -0.2072,-3.1173 l 0.08,-0.3877 -1.928,-1.2357 c -1.0604,-0.6797 -1.9435,-1.2329 -1.9625,-1.2296 -0.086,0.016 -0.4617,0.6882 -0.6348,1.1346 -0.3489,0.8996 -0.4491,1.8407 -0.3189,2.9914 0.029,0.2598 0.049,0.4778 0.042,0.4845 -0.023,0.024 -1.851,-0.7863 -2.4082,-1.0675 -0.3129,-0.158 -0.7497,-0.4047 -0.971,-0.5485 -0.2212,-0.1438 -0.4092,-0.2535 -0.4177,-0.2438 -0.013,0.012 -0.033,0.8723 -0.055,1.9169 l -0.04,1.8993 0.2362,0.1742 c 0.5238,0.3863 1.9248,1.0203 2.9031,1.3136 l 0.4551,0.1365 0.2697,0.7418 c 0.7335,2.0176 2.201,4.152 4.1825,6.0833 l 0.5139,0.5007 2.085,0.095 c 1.1469,0.053 2.1811,0.099 2.2983,0.1034 0.1936,0.013 0.2054,0 0.1279,-0.095 z m -44.349204,34.2821 c 5.5019,-7.8731 10.0531,-14.3947 10.1137,-14.492 0.234204,-0.3766 0.324504,-1.6407 0.150204,-2.1022 -0.138304,-0.3663 -0.368304,-0.5617 -0.829604,-0.705 l -0.4009,-0.1248 0.1631,-0.2459 c 0.09,-0.1353 0.2461,-0.4054 0.3479,-0.6002 0.3259,-0.6248 0.2202,-1.2031 -0.3393,-1.8557 l -0.2245,-0.2619 0.1252,-0.2989 c 0.068,-0.1644 0.1419,-0.5021 0.1618,-0.7506 0.049,-0.6005 -0.088,-0.8721 -0.6662,-1.3287 -0.2311,-0.1824 -0.4278,-0.3494 -0.4372,-0.3711 -0.014,-0.022 0.487,-0.2638 1.103,-0.5378 3.164004,-1.4077 5.327204,-2.6999 6.753304,-4.0348 0.5758,-0.5388 0.8119,-0.8065 0.9638,-1.0921 0.2419,-0.4556 0.2649,-0.7991 0.068,-1.032 -0.8286,-0.9841 -5.2713,-0.7861 -10.956604,0.4887 l -0.7585,0.1699 -0.1383,-0.2735 c -0.076,-0.1503 -0.1399,-0.2909 -0.142,-0.3122 0,-0.022 0.2406,-0.1672 0.5395,-0.3239 l 0.5434,-0.2851 -0.024,-0.3549 c -0.084,-1.2159 -1.5839,-2.2797 -4.0412,-2.866 -2.2808,-0.544 -5.3193,-0.5679 -7.4795,-0.059 -1.7764,0.4187 -3.0756,1.182 -3.5194,2.0682 -0.09,0.1786 -0.2253,0.4513 -0.3019,0.6061 -0.095,0.1918 -0.253,0.3629 -0.4965,0.5377 -0.4313,0.3097 -0.6909,0.434 -2,0.9574 -0.5562,0.2223 -1.1958,0.5212 -1.4217,0.6642 -0.2259,0.1431 -1.1216,0.6841 -1.9904,1.2023 -2.846,1.6973 -3.9385,2.5306 -4.7102,3.592 -1.1652,1.6032 -0.9575,3.3741 0.6272,5.3426 0.3466,0.4308 0.4583,0.5305 0.6109,0.5446 0.1034,0.012 1.0224,-0.064 2.0437,-0.1624 1.0215,-0.099 1.8947,-0.1796 1.9405,-0.1796 0.068,0 0.3113,0.5787 0.2614,0.6251 -0.013,0.013 -3.5079,1.3985 -3.8825,1.5407 -0.1769,0.068 -0.3602,0.5809 -0.3416,0.9582 0.013,0.2128 0.4994,0.6183 0.933,0.7733 0.4514,0.1615 1.4617,0.2235 1.9854,0.1219 0.3382,-0.065 0.9176,-0.3004 1.2707,-0.515 0.1611,-0.098 0.2151,-0.098 1.074,0 1.6591,0.1851 3.5108,0.1085 4.7958,-0.1976 0.9956,-0.2375 2.1111,-0.7439 2.939,-1.3345 0.1536,-0.1098 0.3027,-0.199 0.3313,-0.199 0.029,0 0.1423,0.1049 0.2524,0.233 l 0.2008,0.2331 -0.7429,0.5718 c -0.9806,0.7549 -2.3751,2.0739 -2.7504,2.6014 -0.5636,0.7926 -0.7687,1.4127 -0.7073,2.1396 l 0.033,0.3899 -0.3768,0.2817 c -1.0086,0.7547 -1.5371,1.8377 -1.5189,3.1124 0.014,0.587 0,0.6474 -0.2202,1.1397 -0.5969,1.3538 -0.6935,2.7533 -0.2829,4.1016 l 0.1128,0.3714 -0.3113,0.6027 c -0.7008,1.3565 -0.6694,2.1917 0.1183,3.1627 l 0.2571,0.3167 -0.3143,0.3622 c -0.3907,0.45 -0.5761,0.8001 -0.613,1.1572 -0.033,0.3228 0.08,0.5621 0.5787,1.2322 l 0.3232,0.4336 0,1.1013 c 0,1.0774 0,1.1086 0.1734,1.4469 0.095,0.1903 0.2725,0.4721 0.3938,0.6264 l 0.2204,0.2807 -0.2186,0.4716 c -0.5007,1.0797 -0.454,1.6034 0.2285,2.5566 l 0.3806,0.5316 -0.1954,0.2306 c -0.478,0.5639 -0.5487,1.0326 -0.2246,1.4902 l 0.1688,0.2382 0.143,-0.1982 c 0.078,-0.1085 4.6449,-6.6399 10.1469,-14.513 z m -6.4253,4.3075 c -0.2326,-0.2283 -0.478,-0.4998 -0.5454,-0.6033 -0.1556,-0.2389 -0.1641,-0.6564 -0.019,-0.9398 0.09,-0.1746 0.096,-0.2421 0.037,-0.3458 -0.2269,-0.3961 -0.4523,-1.1699 -0.4523,-1.5524 0,-0.2218 0.014,-0.4166 0.032,-0.4329 0.018,-0.016 -0.078,-0.2467 -0.2142,-0.5119 -0.5187,-1.0164 -0.57,-1.7773 -0.1678,-2.4851 l 0.2171,-0.382 -0.2095,-0.2756 c -0.4845,-0.6367 -0.5241,-1.2505 -0.1294,-1.9974 l 0.2362,-0.4466 -0.1721,-0.4879 c -0.2485,-0.7041 -0.2517,-1.4658 -0.014,-1.9534 0.1074,-0.2148 0.3118,-0.4699 0.5441,-0.6789 l 0.3723,-0.3348 0.035,-0.6493 c 0.022,-0.4173 0.076,-0.7523 0.1503,-0.9375 0.2348,-0.5818 0.8708,-1.0491 1.5443,-1.1348 0.3783,-0.048 0.5623,0.041 0.5623,0.2726 0,0.1997 -0.1471,0.3102 -0.5433,0.4075 -0.3415,0.085 -0.6546,0.2863 -0.7981,0.5157 -0.1237,0.1989 -0.236,0.9255 -0.2393,1.5554 l 0,0.3837 -0.3128,0.2066 c -0.8374,0.5526 -0.9644,1.1632 -0.5084,2.4422 l 0.1982,0.5555 -0.2481,0.3307 c -0.5475,0.7301 -0.4766,1.2331 0.28,1.9843 l 0.208,0.2068 -0.2833,0.3526 c -0.3387,0.4219 -0.4982,0.8762 -0.4384,1.249 0.06,0.3807 0.2538,0.8707 0.5116,1.3015 0.2101,0.3508 0.2203,0.3914 0.1503,0.59 -0.1157,0.3272 -0.035,0.7507 0.2845,1.4897 l 0.2911,0.6737 -0.1596,0.2252 c -0.089,0.1239 -0.1595,0.2794 -0.1595,0.3452 0,0.067 0.1963,0.3179 0.4422,0.5656 0.3239,0.3265 0.4422,0.489 0.4422,0.6075 0,0.2062 -0.1045,0.3034 -0.3279,0.3034 -0.1363,0 -0.2726,-0.094 -0.5989,-0.415 z m 1.6919,-32.8204 c -1.2951,-0.1258 -2.0559,-0.5434 -1.9343,-1.0611 0.1556,-0.6617 2.0519,-1.0531 3.9978,-0.825 1.1763,0.1378 1.8127,0.4654 1.8127,0.9335 0,0.4093 -0.4321,0.6886 -1.3401,0.8662 -0.5421,0.1061 -1.8695,0.1511 -2.5361,0.087 z m -7.3366,-1.5626 c 1.5253,-0.6053 2.2115,-0.9929 2.2115,-1.2491 0,-0.057 -0.1776,-0.2661 -0.3949,-0.4639 -0.3318,-0.302 -0.4681,-0.3814 -0.8538,-0.4971 -0.5678,-0.1702 -1.4206,-0.184 -2.0369,-0.032 -0.3007,0.074 -0.5427,0.092 -0.9035,0.067 -0.677,-0.047 -1.1787,-0.2777 -1.7928,-0.8225 -0.5197,-0.4612 -0.5511,-0.4608 -0.6275,0.012 -0.1197,0.7382 0.4726,1.7823 1.443,2.5455 0.723,0.5686 1.5621,0.9242 1.9441,0.8239 0.086,-0.023 0.5417,-0.1939 1.0108,-0.3801 z m 67.279704,-12.0198 c 1.13,-0.5128 2.4801,-1.8963 3.2329,-3.3128 0.4468,-0.8407 0.6001,-1.3742 0.5569,-1.9382 -0.039,-0.4951 -0.2316,-0.7718 -0.6732,-0.9627 -0.2444,-0.105 -0.4032,-0.125 -0.9863,-0.1209 -0.8767,0.013 -1.3188,0.093 -1.9737,0.3904 -0.9296,0.4216 -1.883,1.4372 -2.3086,2.4594 -0.186,0.4468 -0.1874,0.4595 -0.1533,1.3365 0.085,2.161 0.8024,2.8303 2.3053,2.1483 z m -2.7331,-3.9198 c 0.121,-0.2594 0.3525,-0.6577 0.5154,-0.8848 0.3389,-0.473 1.2772,-1.361 1.6205,-1.5337 0.1279,-0.064 0.2298,-0.1304 0.2277,-0.1475 0,-0.017 -0.9759,-0.7014 -2.1642,-1.5212 -1.1879,-0.8197 -3.0843,-2.1331 -4.2136,-2.9185 -1.6222,-1.1281 -2.5317,-1.7065 -4.3283,-2.7534 -1.9759,-1.1514 -8.6098,-4.9257 -9.3651,-5.3283 -0.1466,-0.078 -0.2982,-0.2084 -0.3374,-0.2896 -0.2305,-0.4787 -0.3048,-0.5666 -0.5914,-0.702 -0.2754,-0.13 -0.3256,-0.1357 -0.6297,-0.072 -0.6673,0.1396 -1.4681,0.8024 -1.8656,1.5446 -0.4081,0.762 -0.4045,1.3595 0.014,1.6792 0.1127,0.087 4.3556,2.8527 9.4295,6.1468 5.0737,3.2942 9.3028,6.0452 9.398,6.1133 0.3001,0.2146 1.9731,1.167 2.0248,1.1526 0.027,-0.013 0.1479,-0.226 0.2685,-0.4854 z m 0.494,-4.8842 c -0.013,-0.073 -0.3495,-2.2816 -0.7478,-4.9079 -0.3983,-2.6263 -0.7342,-4.7844 -0.7467,-4.7959 -0.053,-0.048 -1.2442,1.3172 -1.2432,1.4247 0,0.065 0.2247,1.7203 0.4977,3.6788 0.4308,3.092 0.5118,3.5711 0.6148,3.6407 0.064,0.043 0.4452,0.3067 0.8449,0.5839 0.3997,0.2771 0.744,0.5049 0.7653,0.5061 0.02,0 0.027,-0.059 0.014,-0.1304 z m -2.9241,-4.4216 c -0.211,-1.5372 -0.405,-2.8668 -0.4309,-2.9545 -0.045,-0.1475 -0.147,-0.029 -1.3429,1.546 -0.7124,0.9382 -1.2953,1.7388 -1.2953,1.7792 0,0.068 3.3855,2.4724 3.4323,2.4388 0.014,-0.013 -0.1523,-1.2724 -0.3632,-2.8095 z m -2.1529,-2.0382 c 0.8514,-1.1234 1.5596,-2.072 1.5738,-2.108 0.039,-0.099 0.4454,-0.5644 0.7542,-0.8624 0.1514,-0.1461 0.3572,-0.3617 0.4573,-0.4791 l 0.1817,-0.2136 -0.4882,-0.073 c -1.4593,-0.2199 -2.9938,-1.1216 -4.0035,-2.3531 l -0.1617,-0.1971 -0.5057,0.7579 c -0.278,0.4169 -0.8015,1.229 -1.163,1.8045 -0.3614,0.5757 -0.6856,1.0475 -0.7204,1.0483 -0.076,0 -1.5591,2.1504 -1.5711,2.2752 0,0.053 0.7645,0.5375 2.0134,1.266 1.112,0.6487 2.0363,1.1787 2.0536,1.1781 0.017,0 0.7282,-0.9201 1.5796,-2.0433 z m -5.6425,-1.7061 c 0.5806,-0.8463 0.6309,-0.9409 0.5055,-0.9521 -0.4039,-0.037 -4.7102,-0.044 -4.6711,-0.013 0.1295,0.1183 3.404,1.9344 3.4579,1.9184 0.035,-0.013 0.3533,-0.4416 0.7077,-0.9583 z m -11.6614,0.5383 c 0.092,-0.035 0.087,-0.069 -0.055,-0.3048 -0.1919,-0.3208 -0.2539,-0.8662 -0.1499,-1.319 0.23,-1.002 1.1652,-2.0758 2.2013,-2.5277 0.3,-0.1308 0.4537,-0.1588 0.8741,-0.1592 0.4576,0 0.5425,0.018 0.8216,0.1777 0.2164,0.124 0.4001,0.3038 0.6028,0.5901 0.2801,0.395 0.3269,0.4308 1.1376,0.8636 l 0.8455,0.4514 3.2462,0.021 3.2461,0.021 0.6556,-0.961 c 0.3605,-0.5286 0.6556,-0.9756 0.6556,-0.9933 0,-0.018 -2.2695,-0.014 -5.0435,0.012 l -5.0431,0.044 -0.084,-0.5249 c -0.1944,-1.2214 -0.5555,-1.9363 -1.1401,-2.2584 -0.2363,-0.1301 -0.3591,-0.1561 -0.7267,-0.1543 -0.7993,0 -1.6416,0.4587 -2.7207,1.4687 -1.4302,1.3388 -2.362,3.0102 -2.3648,4.2421 0,0.751 0.3261,1.1673 1.0554,1.3397 0.2552,0.061 1.8121,0.04 1.9855,-0.025 z m 21.4279,-3.4881 c 0.2514,-0.1588 0.7424,-0.5551 1.0913,-0.8807 0.9399,-0.8772 1.3106,-1.6041 1.3023,-2.5529 -0.014,-1.6132 -1.6101,-3.2162 -3.7295,-3.7467 -0.6321,-0.1582 -1.6003,-0.1696 -2.1079,-0.025 -0.7459,0.2123 -1.3819,0.754 -1.7127,1.458 -0.2798,0.596 -0.326,0.8984 -0.3244,2.12 l 0,1.1511 0.1791,0.3047 c 0.2257,0.3834 0.8843,1.0611 1.3722,1.4118 0.9598,0.69 2.1909,1.1072 3.1382,1.0635 0.2794,-0.014 0.4057,-0.062 0.7898,-0.3039 z"
       id="path4652"
       inkscape:connector-curvature="0" />
    <path
       style="fill:#0f47af;fill-opacity:1;stroke:none"
       d="m 72.625826,332.03881 0.1398,-0.3984 3.6355,-5.2522 3.7091,-5.2381 2.1963,0.2844 1.8644,0.2655 2.3098,5.2565 z"
       id="path4699"
       inkscape:connector-curvature="0"
       sodipodi:nodetypes="cccccccc" />
    <path
       style="fill:none;stroke:#000000;stroke-width:0.69999999;stroke-linecap:butt;stroke-linejoin:miter;stroke-miterlimit:4;stroke-opacity:1;stroke-dasharray:none"
       d="m 116.75373,260.44431 c 0.4122,1.5267 0.703,3.2872 2.5191,5.4138 l 0,0"
       id="path4701"
       inkscape:connector-curvature="0"
       sodipodi:nodetypes="ccc" />
  </g>
</svg>
