<?xml version="1.0" encoding="UTF-8" standalone="no"?>
<!-- Created with Inkscape (http://www.inkscape.org/) -->

<svg
   xmlns:dc="http://purl.org/dc/elements/1.1/"
   xmlns:cc="http://creativecommons.org/ns#"
   xmlns:rdf="http://www.w3.org/1999/02/22-rdf-syntax-ns#"
   xmlns:svg="http://www.w3.org/2000/svg"
   xmlns="http://www.w3.org/2000/svg"
   xmlns:sodipodi="http://sodipodi.sourceforge.net/DTD/sodipodi-0.dtd"
   xmlns:inkscape="http://www.inkscape.org/namespaces/inkscape"
   width="480.83264"
   height="320.21835"
   id="svg3917"
   version="1.1"
   inkscape:version="0.48.4 r9939"
   sodipodi:docname="Nieuw document 8">
  <defs
     id="defs3919" />
  <sodipodi:namedview
     id="base"
     pagecolor="#ffffff"
     bordercolor="#666666"
     borderopacity="1.0"
     inkscape:pageopacity="0.0"
     inkscape:pageshadow="2"
     inkscape:zoom="0.98994949"
     inkscape:cx="273.03851"
     inkscape:cy="187.47795"
     inkscape:document-units="px"
     inkscape:current-layer="layer1"
     showgrid="false"
     fit-margin-top="0"
     fit-margin-left="0"
     fit-margin-right="0"
     fit-margin-bottom="0"
     inkscape:window-width="1600"
     inkscape:window-height="837"
     inkscape:window-x="-8"
     inkscape:window-y="-8"
     inkscape:window-maximized="1" />
  <metadata
     id="metadata3922">
    <rdf:RDF>
      <cc:Work
         rdf:about="">
        <dc:format>image/svg+xml</dc:format>
        <dc:type
           rdf:resource="http://purl.org/dc/dcmitype/StillImage" />
        <dc:title></dc:title>
      </cc:Work>
    </rdf:RDF>
  </metadata>
  <g
     inkscape:label="Laag 1"
     inkscape:groupmode="layer"
     id="layer1"
     transform="translate(-93.8694,-246.53873)">
    <rect
       style="fill:#000000;fill-opacity:1;fill-rule:evenodd;stroke:none"
       id="rect3825"
       width="117.9353"
       height="320.21835"
       x="93.8694"
       y="246.53873" />
    <rect
       style="fill:#fcdd09;fill-opacity:1;fill-rule:evenodd;stroke:none"
       id="rect3827"
       width="123.4912"
       height="320.21835"
       x="211.8047"
       y="246.53873" />
    <rect
       style="fill:#fcdd09;fill-opacity:1;fill-rule:evenodd;stroke:none"
       id="rect3829"
       width="122.2285"
       height="320.21835"
       x="452.47354"
       y="246.53873" />
    <rect
       style="fill:#000000;fill-opacity:1;fill-rule:evenodd;stroke:none"
       id="rect3831"
       width="117.1776"
       height="320.21835"
       x="335.29593"
       y="246.53873" />
    <path
       style="fill:#fcdd09;fill-opacity:1;stroke:none"
       d="m 211.94353,316.83375 c -11.984,0.0414 -47.2924,5.27851 -48.5811,14.375 l -0.5357,49.74312 7.1428,0 5.5357,-41.70741 5.5358,41.70741 6.5178,0 5.8036,-41.70741 6.5178,41.70741 7.6786,0 4.3847,-41.70741 z"
       id="path3032-1"
       inkscape:connector-curvature="0"
       sodipodi:nodetypes="cccccccccccc" />
    <path
       style="fill:#000000;fill-opacity:1;stroke:none"
       d="m 211.77413,316.82074 c 11.984,0.0414 47.2924,5.27851 48.5811,14.375 l 0.5357,49.74312 -7.1428,0 -5.5357,-41.70741 -5.5358,41.70741 -6.5178,0 -5.8036,-41.70741 -6.5178,41.70741 -7.6786,0 -4.3847,-41.70741 z"
       id="path3032-7"
       inkscape:connector-curvature="0"
       sodipodi:nodetypes="cccccccccccc" />
    <path
       style="fill:#fcdd09;fill-opacity:1;stroke:none"
       d="m 335.21703,458.88799 c 11.984,0.0414 47.2924,5.27851 48.5811,14.375 l 0.5357,49.74312 -7.1428,0 -5.5357,-41.70741 -5.5358,41.70741 -6.5178,0 -5.8036,-41.70741 -6.5178,41.70741 -7.6786,0 -4.3847,-41.70741 z"
       id="path3032-4"
       inkscape:connector-curvature="0"
       sodipodi:nodetypes="cccccccccccc" />
    <path
       style="fill:#fcdd09;fill-opacity:1;stroke:none"
       d="m 452.59493,317.63469 c -11.984,0.0414 -47.2924,5.27851 -48.5811,14.375 l -0.5357,49.74312 7.1428,0 5.5357,-41.70741 5.5358,41.70741 6.5178,0 5.8036,-41.70741 6.5178,41.70741 7.6786,0 4.3847,-41.70741 z"
       id="path3032-0"
       inkscape:connector-curvature="0"
       sodipodi:nodetypes="cccccccccccc" />
    <path
       style="fill:#000000;fill-opacity:1;stroke:none"
       d="m 335.30003,458.89709 c -11.984,0.0414 -47.2924,5.27851 -48.5811,14.375 l -0.5357,49.74312 7.1428,0 5.5357,-41.70741 5.5358,41.70741 6.5178,0 5.8036,-41.70741 6.5178,41.70741 7.6786,0 4.3847,-41.70741 z"
       id="path3032-9"
       inkscape:connector-curvature="0"
       sodipodi:nodetypes="cccccccccccc" />
    <path
       style="fill:#000000;fill-opacity:1;stroke:none"
       d="m 452.46083,317.61805 c 11.984,0.0414 47.2924,5.27851 48.5811,14.375 l 0.5357,49.74312 -7.1428,0 -5.5357,-41.70741 -5.5358,41.70741 -6.5178,0 -5.8036,-41.70741 -6.5178,41.70741 -7.6786,0 -4.3847,-41.70741 z"
       id="path3032-9-4"
       inkscape:connector-curvature="0"
       sodipodi:nodetypes="cccccccccccc" />
  </g>
</svg>
