<?xml version="1.0" encoding="UTF-8" standalone="no"?>
<!-- Created with Inkscape (http://www.inkscape.org/) -->

<svg
   xmlns:dc="http://purl.org/dc/elements/1.1/"
   xmlns:cc="http://creativecommons.org/ns#"
   xmlns:rdf="http://www.w3.org/1999/02/22-rdf-syntax-ns#"
   xmlns:svg="http://www.w3.org/2000/svg"
   xmlns="http://www.w3.org/2000/svg"
   xmlns:sodipodi="http://sodipodi.sourceforge.net/DTD/sodipodi-0.dtd"
   xmlns:inkscape="http://www.inkscape.org/namespaces/inkscape"
   width="393.32809"
   height="262.40292"
   id="svg8744"
   version="1.1"
   inkscape:version="0.48.4 r9939"
   sodipodi:docname="Wormerveer vlag.svg">
  <defs
     id="defs8746" />
  <sodipodi:namedview
     id="base"
     pagecolor="#ffffff"
     bordercolor="#666666"
     borderopacity="1.0"
     inkscape:pageopacity="0.0"
     inkscape:pageshadow="2"
     inkscape:zoom="0.7"
     inkscape:cx="706.11139"
     inkscape:cy="-95.619538"
     inkscape:document-units="px"
     inkscape:current-layer="layer1"
     showgrid="false"
     fit-margin-top="0"
     fit-margin-left="0"
     fit-margin-right="0"
     fit-margin-bottom="0"
     inkscape:window-width="1600"
     inkscape:window-height="837"
     inkscape:window-x="-8"
     inkscape:window-y="-8"
     inkscape:window-maximized="1" />
  <metadata
     id="metadata8749">
    <rdf:RDF>
      <cc:Work
         rdf:about="">
        <dc:format>image/svg+xml</dc:format>
        <dc:type
           rdf:resource="http://purl.org/dc/dcmitype/StillImage" />
        <dc:title></dc:title>
      </cc:Work>
    </rdf:RDF>
  </metadata>
  <g
     inkscape:label="Laag 1"
     inkscape:groupmode="layer"
     id="layer1"
     transform="translate(-3.3359528,-201.16072)">
    <rect
       style="fill:#0e46af;fill-opacity:1;fill-rule:evenodd;stroke:none"
       id="rect8709"
       width="393.32809"
       height="262.40289"
       x="3.3359528"
       y="201.16075" />
    <path
       style="fill:#fcdd06;fill-opacity:1;stroke:none"
       d="m 396.66404,201.16072 -64.634,130.9252 64.634,131.4777 z"
       id="path8711"
       inkscape:connector-curvature="0" />
    <path
       style="fill:#fcdd06;fill-opacity:1"
       d="m 128.12144,445.77652 c -1.2704,-1.4054 -3.0663,-3.6888 -3.9912,-5.0742 l -1.6816,-2.5188 -0.2018,-7.684 c -0.1772,-6.7506 -0.045,-8.6064 1.0826,-15.2768 1.3934,-8.2376 1.3914,-10.5934 -0.015,-18.2316 -0.5511,-2.9935 -0.9962,-4.3094 -1.4573,-4.3094 -0.79,0 -0.8373,1.0181 -0.1604,3.4505 0.2738,0.9844 0.6679,4.0808 0.8756,6.8811 0.3202,4.3139 0.2075,6.138 -0.7383,11.9474 -0.8115,4.9851 -1.1162,8.7729 -1.1162,13.8805 0,4.4963 -0.1759,7.0243 -0.4889,7.0243 -0.269,0 -1.8203,-0.6703 -3.4472,-1.4897 -4.3979,-2.2147 -9.3861,-7.402 -11.6317,-12.0961 l -1.7869,-3.7351 -0.1492,-11.6264 c -0.16,-12.4676 0.358,-19.192 1.8427,-23.9174 0.5001,-1.5921 0.9121,-2.9252 0.9155,-2.9625 0,-0.037 -0.309,-0.1885 -0.6941,-0.3361 -0.5216,-0.1997 -0.9341,0.4874 -1.6164,2.6918 -1.4199,4.5885 -2.0138,11.0341 -2.0407,22.1514 l -0.025,10.2028 -3.545897,-3.7964 c -8.0336,-8.6011 -11.4859,-14.5539 -12.7756,-22.0288 -0.8612,-4.9921 -0.8102,-6.2658 0.6577,-16.4096 1.6006,-11.0614 1.3609,-10.2028 2.8483,-10.2028 2.2564,0 7.9886,2.1479 11.1069,4.162 6.926497,4.4737 13.246397,5.0699 19.187797,1.8105 l 3.2265,-1.7701 3.2651,1.0479 c 3.7933,1.2173 7.4012,1.0926 10.8096,-0.3739 l 2.1078,-0.9068 3.3404,1.9302 c 3.2701,1.8896 3.436,1.9302 7.8773,1.9298 5.0438,-4e-4 6.8096,-0.5848 12.1443,-4.0196 3.0104,-1.9382 8.9409,-3.9907 10.7731,-3.7284 1.0357,0.1484 1.1495,0.5913 2.4169,9.4094 1.8564,12.9159 1.4979,17.771 -1.8551,25.1239 -1.8794,4.1215 -5.2454,8.733 -10.1871,13.9566 l -3.5252,3.7263 -0.065,-11.3193 c -0.046,-8.1066 -0.2856,-12.5844 -0.8438,-15.7768 -0.8869,-5.0721 -2.1254,-8.2946 -2.9788,-7.7504 -0.4164,0.2655 -0.3349,1.0196 0.3198,2.9602 1.7545,5.2009 2.7439,20.2649 2.0012,30.4703 -0.3767,5.1757 -0.5412,5.8354 -2.3676,9.491 -2.871,5.7463 -7.7751,10.3372 -13.8967,13.0094 l -1.1887,0.5188 -0.034,-7.6472 c -0.024,-5.4131 -0.2875,-8.8947 -0.9021,-11.9181 -1.2355,-6.0765 -1.441,-12.921 -0.5436,-18.1103 0.4079,-2.3591 0.8854,-4.663 1.0609,-5.12 0.2442,-0.6351 0.1101,-0.7903 -0.5719,-0.6592 -1.2642,0.2429 -2.0797,4.0833 -2.4023,11.3141 -0.2139,4.7942 -0.077,6.9556 0.7169,11.2702 1.3069,7.1082 1.6978,14.1538 1.0585,19.0822 -0.5814,4.4816 -1.7699,6.7102 -6.0644,11.3718 l -2.3373,2.537 -2.3096,-2.5556 z m -44.789597,-69.7487 c -1.6046,-1.9941 -3.5123,-7.2738 -4.2089,-11.6489 l -0.3129,-1.9653 3.3895,-0.3398 c 1.8643,-0.1869 3.4696,-0.2598 3.5675,-0.1622 0.098,0.098 -0.2339,3.1635 -0.7372,6.8133 -1.2108,8.7821 -1.0532,8.1042 -1.698,7.3029 z m 92.770497,-6.8356 c -0.4757,-3.7842 -0.7389,-7.0062 -0.5847,-7.1599 0.1542,-0.1539 1.7022,-0.1281 3.4401,0.058 l 3.1597,0.3377 -0.3116,1.9582 c -0.7384,4.6377 -3.418,11.6863 -4.443,11.6863 -0.2175,0 -0.7848,-3.0962 -1.2605,-6.8803 z m -70.1676,-1.3058 c -1.4623,-0.5871 -4.1368,-1.9554 -5.943397,-3.0405 -2.925,-1.7567 -7.3886,-3.4178 -11.2878,-4.2007 l -1.3463,-0.2703 1.8217,-1.212 c 1.0021,-0.6665 2.8916,-2.232 4.1992,-3.4789 4.2433,-4.0463 9.904597,-8.1968 13.550897,-9.9349 3.1425,-1.4978 3.9897,-1.6963 7.1321,-1.6714 1.9614,0.016 4.8617,0.1996 6.4452,0.4091 2.8767,0.3802 2.8792,0.382 2.9254,2.0115 0.1149,4.0448 2.6569,6.4106 6.941,6.46 4.348,0.05 6.8889,-2.0352 7.3392,-6.0232 l 0.2343,-2.0745 2.4405,-0.2816 c 1.3424,-0.1548 3.6406,-0.4166 5.1073,-0.5819 6.096,-0.6865 12.9043,3.0355 23.479,12.8353 1.566,1.4514 3.2274,2.7592 3.6918,2.9063 1.1336,0.3591 0.5759,1.1483 -0.8117,1.1483 -2.2959,0 -7.7175,2.0787 -11.7504,4.5052 -2.2968,1.3819 -5.2765,2.7761 -6.6217,3.0982 -3.4842,0.8341 -7.4659,0.3548 -10.5009,-1.2644 -2.4934,-1.3303 -8.5896,-6.941 -10.9585,-10.0859 l -1.2137,-1.6115 -5.4017,5.4322 c -6.3754,6.4115 -8.5252,7.6647 -13.4847,7.8613 -2.5702,0.1016 -3.9339,-0.1109 -5.9868,-0.9357 z m 20.3699,-1.5612 c -2.4732,-0.7901 -2.678,-1.116 -1.417,-2.2548 0.673,-0.608 1.22,-0.6715 2.7339,-0.3179 2.314,0.5406 6.9498,-0.2467 6.6128,-1.1231 -0.1545,-0.4017 -1.3007,-0.5191 -3.8237,-0.392 -3.3971,0.1712 -3.5758,0.1306 -3.1229,-0.703 0.2641,-0.4866 1.1359,-1.5075 1.9372,-2.2685 l 1.4567,-1.3836 2.0266,2.3327 c 1.1148,1.2831 2.6409,2.9211 3.3915,3.6402 l 1.365,1.3072 -1.8352,0.7653 c -2.5971,1.0831 -6.64,1.2554 -9.3249,0.3975 z m -47.610097,-5.7777 c -0.1616,-0.1613 -0.2938,-3.9351 -0.2938,-8.3865 l 0,-8.093 -3.0034,2.9708 c -2.1279,2.105 -3.2591,3.6808 -3.8808,5.4063 -0.527,1.4626 -1.7615,3.3509 -3.0904,4.7269 -2.1171,2.1921 -2.3259,2.2914 -4.8223,2.2914 -3.2676,0 -6.2717,-1.7558 -8.6868,-5.0768 -1.612,-2.2165 -3.1428,-6.4352 -3.1428,-8.6612 0,-4.1151 3.0391,-7.9776 7.3421,-9.3313 2.4722,-0.7779 2.7406,-1.0101 3.8357,-3.3204 2.3488,-4.9555 2.5306,-10.9781 0.6072,-20.1161 -1.9891,-9.4505 -1.606,-22.6117 0.8821,-30.3005 0.8192,-2.5318 0.8242,-2.5363 2.5166,-2.2699 0.9325,0.1466 3.4892,0.4143 5.6813,0.5947 l 3.9857,0.3279 -0.2552,3.3681 c -0.1403,1.8525 -0.7225,4.6489 -1.2936,6.2143 -2.2892,6.2745 -2.5673,7.8661 -2.5286,14.4727 0.024,4.092 0.33,7.7777 0.8469,10.2027 0.4452,2.088 0.9255,7.0265 1.0677,10.9743 0.2428,6.7427 0.1831,7.4404 -0.9858,11.5072 -0.6843,2.3813 -1.9779,5.7834 -2.8745,7.5604 -1.7072,3.3834 -4.8933,6.7355 -6.4019,6.7355 -1.8085,0 -4.873,-4.4261 -5.6097,-8.1021 -0.1578,-0.7879 -0.584,-1.3888 -0.985,-1.3888 -1.8097,0 1.3365,7.7966 3.9486,9.7851 1.3591,1.0346 1.9155,1.182 3.4068,0.9028 3.5688,-0.6682 7.7369,-7.0422 10.0923,-15.4333 1.327,-4.7278 1.3557,-13.7238 0.068,-21.376 -1.9146,-11.3795 -1.6847,-17.2034 0.9594,-24.305 0.9456,-2.5402 1.5469,-5.1908 1.7167,-7.5679 l 0.2611,-3.6588 1.9541,-0.2234 c 1.0749,-0.1228 5.6986,-0.5742 10.275,-1.0025 4.5764,-0.4284 11.803597,-1.2606 16.060397,-1.8494 l 7.7396,-1.0706 0.5812,1.21 c 0.3614,0.7524 1.3901,1.5193 2.7207,2.028 3.9957,1.5279 20.3814,0.9577 36.8492,-1.2822 5.9328,-0.8068 12.2221,-0.7351 17.5925,0.2008 4.976,0.8672 15.0843,1.5726 17.7577,1.2392 1.8185,-0.2267 2.9236,-0.6668 3.7528,-1.4943 0.6465,-0.6452 1.2478,-1.1007 1.3364,-1.0124 0.6213,0.6202 3.1025,9.3967 3.5661,12.6148 0.781,5.4197 0.3452,16.6792 -0.867,22.3986 -1.9302,9.1083 -1.7422,15.3796 0.6054,20.1975 1.0762,2.2086 1.3846,2.4693 3.83,3.2386 6.7282,2.1167 9.0834,8.7203 5.6046,15.7141 -2.6491,5.326 -7.6574,8.44 -11.7572,7.3101 -2.2271,-0.6137 -4.7969,-3.3925 -6.0296,-6.52 -0.7166,-1.8179 -1.9992,-3.6536 -3.9615,-5.6694 l -2.9018,-2.9813 -0.2377,8.2013 -0.2379,8.2012 -2.3773,-0.1563 c -3.4728,-0.2283 -6.7249,-1.9003 -10.7256,-5.5141 -8.0679,-7.2879 -14.3048,-11.2401 -19.3636,-12.27 l -2.791,-0.5682 0.8659,-1.423 c 1.8618,-3.0598 0.7025,-7.8911 -2.398,-9.994 -2.0092,-1.3625 -5.7652,-1.6528 -5.7652,-0.4454 0,0.5144 0.5291,0.7118 1.9089,0.7118 4.1449,0 7.0162,5.097 5.0304,8.9297 -1.0643,2.0542 -3.2383,3.0474 -7.2368,3.3063 l -3.3881,0.2194 0.059,2.5887 c 0.055,2.3585 -0.078,2.712 -1.493,3.975 -1.3218,1.1801 -1.9461,1.3864 -4.1969,1.3864 -2.2886,0 -2.8312,-0.1866 -4.034,-1.3872 -1.2039,-1.2015 -1.3899,-1.7412 -1.3899,-4.0336 l 0,-2.6465 -2.2585,0 c -6.5723,-0.013 -10.2691,-3.4883 -8.7107,-8.2013 0.7941,-2.4013 2.5539,-3.8143 5.1236,-4.1144 1.2663,-0.1478 2.2961,-0.5366 2.4213,-0.9142 0.1738,-0.5243 -0.3246,-0.6121 -2.4688,-0.4347 -2.1351,0.1767 -2.9891,0.5065 -4.161,1.6062 -2.7898,2.6183 -3.5163,6.1553 -1.9101,9.2998 l 0.8738,1.7103 -2.2698,0.3006 c -4.6377,0.6141 -13.314497,6.1586 -20.873897,13.3386 -2.4928,2.3677 -5.2387,3.9133 -7.5989,4.2774 -0.9201,0.142 -2.236,0.3455 -2.9241,0.4523 -0.6884,0.1069 -1.3837,0.062 -1.5454,-0.099 z m 121.410197,-8.5583 c 1.5495,-1.5552 2.7735,-4.0102 4.0439,-8.1109 0.278,-0.8976 0.1853,-1.0802 -0.4819,-0.9491 -0.4893,0.096 -1.0579,0.9364 -1.3941,2.0605 -1.4701,4.9147 -3.8912,7.7571 -6.0502,7.103 -3.3591,-1.0177 -7.1337,-7.5356 -9.1638,-15.8234 -1.0823,-4.4183 -0.8026,-12.7374 0.7198,-21.4135 1.6449,-9.3736 1.1317,-16.0053 -1.8792,-24.2838 -0.5385,-1.4805 -1.1198,-4.2032 -1.2919,-6.0505 -0.2359,-2.5338 -0.4883,-3.3586 -1.0275,-3.3586 -1.1329,0 -0.3995,6.2708 1.2661,10.8256 0.7614,2.0824 1.6504,5.3568 1.9758,7.2763 0.6827,4.0303 0.35,11.6569 -0.7319,16.7773 -0.3861,1.827 -0.8353,6.5251 -0.9985,10.4401 -0.2415,5.7952 -0.1499,7.6916 0.492,10.2028 2.0253,7.9208 5.7742,14.7381 8.9692,16.3103 2.3882,1.1753 3.5971,0.9562 5.5522,-1.0061 z M 64.987543,341.47402 c 2.1916,-1.1251 4.0213,-3.0916 4.8977,-5.2635 1.0463,-2.5932 0.8439,-10.7039 -0.4086,-16.3719 -2.7406,-12.4034 -2.2401,-23.2031 1.5403,-33.2271 0.9532,-2.5274 1.0899,-3.3278 0.6188,-3.6223 -0.7712,-0.482 -1.9466,2.1644 -3.464,7.7993 -2.5168,9.3464 -2.6115,16.8098 -0.3569,28.1009 0.8207,4.1096 1.2358,7.7535 1.2434,10.9146 0.015,6.5594 -1.05,8.757 -5.058,10.4284 -1.7219,0.718 -2.0933,1.1875 -1.4486,1.8308 0.4353,0.4345 0.4474,0.4316 2.4359,-0.5892 z m 133.833497,0.6219 c 0.4822,-0.4811 -0.1865,-1.6145 -0.9525,-1.6145 -1.5101,0 -3.8888,-1.9925 -4.9223,-4.1231 -1.4748,-3.0407 -1.3489,-8.8846 0.367,-17.0379 1.0859,-5.1598 1.2915,-7.3227 1.304,-13.7184 0.015,-8.0059 -0.7033,-12.8717 -2.6998,-18.2699 -0.5309,-1.4355 -1.1419,-3.0865 -1.3577,-3.6688 -0.2416,-0.6514 -0.6553,-0.958 -1.0755,-0.7971 -0.5634,0.2158 -0.4503,0.8999 0.6459,3.906 3.5245,9.6657 4.1018,20.5621 1.7018,32.1172 -1.5273,7.3534 -1.8444,14.0011 -0.8098,16.9772 0.8622,2.4802 2.7466,4.5735 5.0306,5.5885 2.2204,0.9868 2.3838,1.0245 2.7683,0.6408 z m -85.473,-36.7482 c 1.569,-0.7934 3.346,-1.818 3.949,-2.2769 l 1.0961,-0.8343 -1.9103,-2.1661 c -2.4839,-2.8163 -5.9589,-4.3756 -9.8261,-4.4089 -3.6545,-0.032 -6.2424,1.5035 -7.689797,4.5611 l -0.9739,2.0577 1.4962,1.3109 c 4.536497,3.9742 8.483497,4.4744 13.858797,1.7565 z m -9.5096,-0.6095 c -1.3075,-0.6254 -2.7896,-1.5996 -3.2935,-2.1649 -0.905197,-1.0155 -0.904897,-1.0433 0.03,-2.2921 1.8049,-2.4128 3.2737,-3.1574 6.083,-3.0836 1.4323,0.037 3.4051,0.4025 4.384,0.8107 2.2929,0.9561 4.9218,2.9595 4.9218,3.7506 0,0.8333 -5.4803,3.5243 -7.8454,3.8524 -1.4241,0.1976 -2.4989,-0.023 -4.2792,-0.8731 z m 55.0848,0.9256 c 1.0846,-0.6367 2.4693,-1.6892 3.0773,-2.3388 l 1.1052,-1.1812 -0.9731,-1.9037 c -1.9289,-3.7736 -5.3616,-5.2747 -9.947,-4.3497 -1.4859,0.2997 -3.6038,1.0641 -4.7064,1.6984 -1.8927,1.0891 -4.4148,3.7955 -4.4138,4.7362 0,0.5404 4.2648,3.0059 7.1167,4.1149 2.7578,1.0726 6.0975,0.7761 8.7411,-0.7761 z m -8.2131,-0.6041 c -2.0274,-0.7084 -5.7432,-2.805 -5.7432,-3.2407 0,-0.1162 0.5884,-0.7771 1.3076,-1.4676 1.9677,-1.8895 4.9249,-3.0486 7.9558,-3.1184 2.9329,-0.067 4.3291,0.6367 6.1601,3.1066 l 0.9803,1.3224 -1.8614,1.6135 c -1.7277,1.4974 -4.2936,2.586 -5.9839,2.5387 -0.3922,-0.013 -1.6592,-0.3506 -2.8153,-0.7545 z m -30.7056,-6.6764 c -8.1463,-7.202 -14.7653,-7.8659 -23.875697,-2.3946 -1.9098,1.1469 -2.3618,1.6306 -1.9673,2.1051 0.4126,0.4962 0.7773,0.4275 1.8753,-0.3528 3.0239,-2.1489 7.669197,-3.8603 10.478897,-3.8603 4.4431,0 7.4321,1.3153 12.0454,5.3003 1.7077,1.4751 2.4195,1.8364 2.8153,1.4289 0.3934,-0.4045 0.04,-0.9788 -1.3719,-2.2266 z m 22.7461,0.5554 c 1.3497,-1.1854 3.747,-2.7946 5.3274,-3.576 5.0225,-2.4834 10.7101,-1.7976 16.1664,1.9492 2.3597,1.6203 2.4064,1.633 2.7471,0.7472 0.292,-0.7598 -2.7624,-2.7904 -6.8095,-4.5268 -3.4295,-1.4714 -8.2659,-1.5065 -11.5531,-0.083 -3.8843,1.6813 -9.7163,6.224 -9.1547,7.1308 0.4749,0.7668 0.6148,0.6967 3.2764,-1.6407 z m -71.481997,-19.4789 c -0.6538,-0.1148 -2.1006,-0.3252 -3.2151,-0.4687 -1.7924,-0.2307 -2.1416,-0.4861 -3.0237,-2.2118 -0.7617,-1.4903 -0.9477,-2.548 -0.7874,-4.4778 0.1156,-1.3897 0.3094,-2.6259 0.4308,-2.7471 0.1215,-0.1214 1.2806,0.1215 2.5761,0.5389 1.63,0.5256 4.8807,0.8291 10.557,0.9856 7.0697,0.195 8.2019,0.128 8.2019,-0.4848 0,-0.5945 -1.3037,-0.7465 -7.9642,-0.9287 -6.1868,-0.1693 -8.5423,-0.4198 -10.5551,-1.1225 -2.4878,-0.8685 -2.6272,-1.0088 -3.4939,-3.5147 -1.1322,-3.2737 -0.8331,-6.556 0.8254,-9.0573 1.1394,-1.7183 1.2533,-1.7711 2.868,-1.326 1.8928,0.5216 2.7175,0.6432 9.7873,1.4433 4.6867,0.5303 18.629,0.1387 30.714497,-0.8627 2.2446,-0.1859 4.4578,0.1096 9.5096,1.2723 10.5413,2.425 18.7889,1.9972 37.252,-1.9324 8.9616,-1.9073 17.6066,-2.3234 24.4868,-1.1786 2.6151,0.4352 6.4089,0.9628 8.4305,1.173 2.0216,0.21 4.2064,0.7288 4.8549,1.1529 1.6671,1.0902 2.3604,3.9661 1.7104,7.0936 l -0.5112,2.4593 -10.2485,-0.16 c -13.7721,-0.2148 -27.7958,1.4916 -28.1693,3.4278 -0.1246,0.6454 0.051,0.7896 0.7102,0.5833 0.4817,-0.1507 3.4434,-0.7295 6.5815,-1.2862 6.2246,-1.1043 22.316,-1.7719 28.0184,-1.1625 2.8676,0.3064 3.1534,0.4388 3.4582,1.6012 0.8743,3.3349 -0.9257,9.6656 -2.9482,10.3693 -1.66,0.5774 -11.6922,0.2164 -17.117,-0.6159 -8.2268,-1.2622 -14.6025,-1.3312 -22.2936,-0.2413 -9.7921,1.3878 -20.1121,2.0971 -27.1557,1.8668 -7.2801,-0.2383 -8.9828,-0.7974 -8.6808,-2.8505 0.2384,-1.6211 0.6055,-1.6047 -8.2273,-0.3682 -15.509597,2.1708 -33.143797,3.6316 -36.582497,3.0304 z m 55.392597,-23.0082 c -2.0921,-0.1497 -5.9872,-0.7701 -8.6558,-1.3787 -4.6329,-1.0565 -4.8659,-1.1692 -5.1577,-2.4953 -0.4241,-1.9272 0.7099,-3.0015 7.2107,-6.8309 4.9077,-2.891 5.8349,-3.6775 10.6978,-9.0762 6.3282,-7.0252 11.8501,-11.8421 16.1821,-14.1163 3.6132,-1.8967 5.8274,-2.0905 8.7267,-0.7636 l 1.9019,0.8705 -1.6092,0.8966 c -2.2637,1.2614 -9.0174,6.1808 -10.9195,7.9538 -0.876,0.8166 -3.1076,3.6202 -4.9591,6.2302 -3.737,5.2679 -9.4667,11.4123 -14.0424,15.0587 -2.0353,1.6217 -2.8462,2.5473 -2.5182,2.8747 0.5423,0.5413 2.2519,-0.6201 7.0929,-4.819 3.1784,-2.7567 7.7981,-8.0756 10.7723,-12.4026 3.5238,-5.1265 9.1507,-10.0693 15.6401,-13.7388 2.7021,-1.5279 2.8597,-1.5582 5.2847,-1.0166 1.5023,0.3356 2.9369,1.0231 3.596,1.7232 0.6029,0.6406 1.0064,1.2357 0.8963,1.3222 -0.11,0.086 -2.0185,1.1877 -4.2414,2.447 -5.5621,3.1511 -8.9487,5.899 -12.315,9.9925 -3.3874,4.1194 -8.7549,8.8017 -14.1926,12.3813 -3.7204,2.449 -4.7073,3.4985 -3.29,3.4985 0.348,0 2.6481,-1.3253 5.1113,-2.9452 3.2517,-2.1383 6.6281,-5.0961 12.324,-10.796 6.2052,-6.2095 8.6588,-8.3249 11.737,-10.1188 5.4384,-3.1695 6.5279,-3.4976 8.4976,-2.5602 1.7935,0.8536 3.2213,2.7254 2.9841,3.912 -0.1035,0.5184 -1.5052,1.2473 -4.0599,2.1116 -2.1458,0.7259 -4.5127,1.7543 -5.2596,2.2851 -2.1074,1.4977 -4.938,4.7458 -7.7142,8.8519 -2.9761,4.4018 -6.2419,7.7194 -8.0143,8.1412 -0.6937,0.165 -1.4753,0.455 -1.7368,0.6443 -0.4645,0.3363 -10.485,1.7442 -14.2641,2.0041 -1.0461,0.073 -3.6136,0.013 -5.7057,-0.1412 z m -50.400097,-1.9268 c -4.7161,-0.592 -4.6564,-0.5513 -4.2641,-2.9035 0.8321,-4.9901 3.2851,-9.3777 6.7937,-12.1511 l 1.9383,-1.5322 0.6899,2.3185 c 1.4903,5.0088 3.9004,8.661 6.861,10.3972 1.7553,1.0294 2.4762,1.1678 5.2618,1.0108 3.8423,-0.2168 7.611497,-1.9156 12.602697,-5.6806 4.0445,-3.0509 14.889,-13.7727 22.4189,-22.1652 3.1238,-3.4817 6.2232,-6.6107 6.8875,-6.9536 1.7957,-0.9269 5.2981,-1.3267 6.7572,-0.7713 1.2968,0.4935 5.1363,3.6938 5.1363,4.2811 0,0.175 -1.4444,1.1325 -3.2095,2.1278 -2.4553,1.3843 -5.2764,3.9016 -12.0057,10.7132 -7.7014,7.7956 -9.3646,9.235 -13.3631,11.5661 -5.5787,3.2522 -7.5577,5.1423 -7.5577,7.2185 l 0,1.503 -3.9227,0.3132 c -14.977497,1.1958 -25.269397,1.4306 -31.024497,0.7081 z m 6.0897,-1.0564 c 0.1764,-0.4588 -0.4952,-0.8115 -2.3233,-1.2198 -1.6893,-0.3773 -3.0492,-1.0513 -3.9644,-1.9646 -2.3822,-2.3777 -3.3444,-1.614 -1.1885,0.9432 1.7491,2.0746 6.9418,3.6313 7.4762,2.2412 z m 70.907797,-1.1975 c 0.7686,-0.8146 2.927,-3.6694 4.7963,-6.3442 4.3442,-6.2156 7.0139,-8.4172 12.2848,-10.1304 4.6183,-1.5011 4.677,-1.4824 6.6381,2.1138 l 1.2652,2.3201 -1.962,1.2959 c -4.0411,2.6691 -9.3124,8.3239 -8.6925,9.325 0.1415,0.2284 -0.3761,0.4153 -1.1501,0.4153 -1.4475,0 -11.9287,1.6929 -13.6263,2.2008 -0.7781,0.2329 -0.697,0.016 0.4465,-1.1963 z m 28.082,-0.078 c -2.6152,-0.477 -6.5275,-0.8807 -8.6942,-0.8968 -3.8438,-0.029 -3.9265,-0.054 -3.4079,-1.0206 0.9761,-1.8204 3.85,-4.6692 6.9058,-6.8455 2.9424,-2.0955 3.0683,-2.1367 4.5863,-1.5012 2.9157,1.2209 6.3693,5.7717 7.7166,10.1682 0.2876,0.9385 0.1651,1.0615 -1.0123,1.0156 -0.7368,-0.029 -3.4792,-0.4426 -6.0943,-0.9197 z m -91.766297,-2.428 c -3.0144,-1.6597 -5.5993,-5.7011 -7.1232,-11.1363 -0.8569,-3.0562 -0.694,-3.9619 1.0769,-5.9881 0.889,-1.0173 2.0048,-1.0839 2.0048,-0.1201 0,1.4342 2.9883,6.9677 4.6135,8.5431 5.9249,5.743 12.683497,1.9937 27.071797,-15.018 7.6031,-8.9894 11.0529,-11.2281 14.4807,-9.3971 0.8509,0.4544 0.3674,1.1179 -5.4456,7.4742 -8.4147,9.2008 -18.2997,18.7838 -22.3328,21.6504 -5.582297,3.9676 -11.433297,5.5956 -14.346097,3.9917 z m 3.7668,-8.1878 c -2.0309,-0.8826 -4.2318,-3.7056 -5.6547,-7.2532 -1.5405,-3.8405 -1.5138,-4.4999 0.2646,-6.5213 2.1721,-2.4692 6.308,-4.7737 11.9472,-6.6571 5.820597,-1.9438 6.070297,-1.9766 5.750297,-0.7553 -0.3818,1.457 -1.8162,2.4627 -3.9127,2.7435 -1.1969,0.1601 -1.938797,0.508 -1.938797,0.9089 0,0.9298 2.734497,0.8253 4.754697,-0.1819 1.3114,-0.6539 1.83,-1.3293 2.447,-3.1861 0.9404,-2.8303 2.3159,-3.5331 5.2168,-2.6657 1.0152,0.3036 1.8441,0.7035 1.8423,0.8887 0,0.1853 -1.2786,1.9386 -2.837,3.8961 -6.2603,7.8626 -10.9715,9.7415 -15.958197,6.364 -1.3177,-0.8925 -1.914,-1.065 -2.3063,-0.6674 -0.6314,0.6399 0.3928,1.5427 3.2746,2.8867 5.253497,2.4497 10.863397,-0.4342 16.949097,-8.7128 2.984,-4.0591 3.0635,-4.1248 5.0026,-4.1342 3.3149,-0.016 3.2354,0.2568 -1.8434,6.326 -7.227,8.6363 -12.8792,14.0755 -16.499297,15.8773 -3.3479,1.6664 -4.3166,1.7921 -6.4988,0.8438 z"
       id="path8684-5"
       inkscape:connector-curvature="0" />
  </g>
</svg>
