<?xml version="1.0" encoding="UTF-8" standalone="no"?>
<!-- Created with Inkscape (http://www.inkscape.org/) -->

<svg
   xmlns:dc="http://purl.org/dc/elements/1.1/"
   xmlns:cc="http://creativecommons.org/ns#"
   xmlns:rdf="http://www.w3.org/1999/02/22-rdf-syntax-ns#"
   xmlns:svg="http://www.w3.org/2000/svg"
   xmlns="http://www.w3.org/2000/svg"
   xmlns:sodipodi="http://sodipodi.sourceforge.net/DTD/sodipodi-0.dtd"
   xmlns:inkscape="http://www.inkscape.org/namespaces/inkscape"
   width="261.983"
   height="174.0367"
   id="svg6588"
   version="1.1"
   inkscape:version="0.48.4 r9939"
   sodipodi:docname="Nieuw document 66">
  <defs
     id="defs6590" />
  <sodipodi:namedview
     id="base"
     pagecolor="#ffffff"
     bordercolor="#666666"
     borderopacity="1.0"
     inkscape:pageopacity="0.0"
     inkscape:pageshadow="2"
     inkscape:zoom="1.979899"
     inkscape:cx="258.84842"
     inkscape:cy="44.204077"
     inkscape:document-units="px"
     inkscape:current-layer="layer1"
     showgrid="false"
     fit-margin-top="0"
     fit-margin-left="0"
     fit-margin-right="0"
     fit-margin-bottom="0"
     inkscape:window-width="1600"
     inkscape:window-height="837"
     inkscape:window-x="-8"
     inkscape:window-y="-8"
     inkscape:window-maximized="1" />
  <metadata
     id="metadata6593">
    <rdf:RDF>
      <cc:Work
         rdf:about="">
        <dc:format>image/svg+xml</dc:format>
        <dc:type
           rdf:resource="http://purl.org/dc/dcmitype/StillImage" />
        <dc:title></dc:title>
      </cc:Work>
    </rdf:RDF>
  </metadata>
  <g
     inkscape:label="Laag 1"
     inkscape:groupmode="layer"
     id="layer1"
     transform="translate(-168.81165,-265.00699)">
    <rect
       style="fill:#fcdd09;fill-opacity:1;fill-rule:evenodd;stroke:none"
       id="rect6524"
       width="261.983"
       height="174.0367"
       x="168.81165"
       y="265.00699" />
    <path
       style="fill:#0f47af;fill-opacity:1"
       d="m 168.80829,403.46978 0,-35.58738 1.3894,0 c 3.9873,0 8.1645,-1.84349 11.8025,-5.20874 3.0235,-2.79684 5.1497,-5.64178 8.5241,-11.40508 4.1723,-7.12626 7.155,-10.55556 11.3297,-13.02641 3.372,-1.99573 5.6313,-2.53849 10.5131,-2.52563 3.5472,0.01 4.5415,0.1185 6.3151,0.69334 2.9361,0.95159 5.3609,2.36832 7.7258,4.5138 2.7328,2.47932 4.2765,4.55212 7.8197,10.49954 3.7572,6.30662 5.2403,8.24827 8.7244,11.42205 5.751,5.23874 11.5682,6.31812 18.1553,3.36872 4.5892,-2.05479 8.8763,-6.75955 13.5827,-14.90567 3.1485,-5.44947 4.9219,-7.81343 7.8249,-10.42996 4.3348,-3.90714 8.843,-5.49993 14.8603,-5.25039 5.5231,0.22904 9.2906,1.73673 13.2004,5.28272 2.7392,2.4841 4.3983,4.68551 7.3643,9.77112 3.6505,6.25934 5.711,9.00621 9.0326,12.04129 2.1935,2.0043 3.5043,2.93816 5.0896,3.62586 2.9467,1.27823 6.1199,1.7484 8.7704,1.29953 6.7642,-1.14554 11.9924,-6.00589 18.5699,-17.26323 1.3819,-2.36509 3.3068,-5.26728 4.2776,-6.44933 4.5731,-5.56828 10.2153,-8.37875 16.8206,-8.37875 3.5416,0 5.5735,0.41597 8.6952,1.78004 4.9528,2.16428 8.2858,5.63801 12.9459,13.49288 4.7799,8.0567 8.2088,12.1295 12.3013,14.61184 4.648,2.81926 10.4503,3.13697 14.9771,0.82012 l 1.3881,-0.71041 0,36.75277 0,36.75276 -131,0 -131,0 0,-35.5874 z"
       id="path6687"
       inkscape:connector-curvature="0" />
    <path
       style="fill:#da121a;fill-opacity:1;stroke:none"
       d="m 176.03859,351.84935 c 0.1684,-27.631 30.1925,-43.743 53.5,-20.25 l 35.5,-26.75 c 14.6454,-10.2969 25.4159,6.7236 29.75,16.25 l -66.25,25.5 c -7.3569,-22.2568 -42.2537,-23.7635 -41.6875,5.25 l -5.9375,3.62505 z"
       id="path6536-8"
       inkscape:connector-curvature="0"
       sodipodi:nodetypes="cccccccc" />
    <path
       style="fill:#da121a;fill-opacity:1;stroke:none"
       d="m 176.03979,351.80335 c 0.1684,27.63109 30.1925,43.74304 53.5,20.25003 l 35.5,26.75 c 14.6454,10.29699 25.4159,-6.72356 29.75,-16.25 l -66.25,-25.5 c -7.3569,22.25682 -42.2537,23.76358 -41.6875,-5.25003 l -5.9375,-3.625 z"
       id="path6536-5-0"
       inkscape:connector-curvature="0"
       sodipodi:nodetypes="cccccccc" />
  </g>
</svg>
