<?xml version="1.0" encoding="UTF-8" standalone="no"?>
<!-- Created with Inkscape (http://www.inkscape.org/) -->

<svg
   xmlns:dc="http://purl.org/dc/elements/1.1/"
   xmlns:cc="http://creativecommons.org/ns#"
   xmlns:rdf="http://www.w3.org/1999/02/22-rdf-syntax-ns#"
   xmlns:svg="http://www.w3.org/2000/svg"
   xmlns="http://www.w3.org/2000/svg"
   xmlns:sodipodi="http://sodipodi.sourceforge.net/DTD/sodipodi-0.dtd"
   xmlns:inkscape="http://www.inkscape.org/namespaces/inkscape"
   width="326.20636"
   height="216.87009"
   id="svg4448"
   version="1.1"
   inkscape:version="0.48.4 r9939"
   sodipodi:docname="Nieuw document 14">
  <defs
     id="defs4450" />
  <sodipodi:namedview
     id="base"
     pagecolor="#ffffff"
     bordercolor="#666666"
     borderopacity="1.0"
     inkscape:pageopacity="0.0"
     inkscape:pageshadow="2"
     inkscape:zoom="1.979899"
     inkscape:cx="125.55334"
     inkscape:cy="92.027606"
     inkscape:document-units="px"
     inkscape:current-layer="layer1"
     showgrid="false"
     fit-margin-top="0"
     fit-margin-left="0"
     fit-margin-right="0"
     fit-margin-bottom="0"
     inkscape:window-width="1600"
     inkscape:window-height="837"
     inkscape:window-x="-8"
     inkscape:window-y="-8"
     inkscape:window-maximized="1" />
  <metadata
     id="metadata4453">
    <rdf:RDF>
      <cc:Work
         rdf:about="">
        <dc:format>image/svg+xml</dc:format>
        <dc:type
           rdf:resource="http://purl.org/dc/dcmitype/StillImage" />
        <dc:title></dc:title>
      </cc:Work>
    </rdf:RDF>
  </metadata>
  <g
     inkscape:label="Laag 1"
     inkscape:groupmode="layer"
     id="layer1"
     transform="translate(-68.325386,-289.64142)">
    <rect
       style="fill:#fcdd07;fill-opacity:1;fill-rule:evenodd;stroke:none"
       id="rect3935"
       width="326.2063"
       height="216.87009"
       x="68.325386"
       y="289.64142" />
    <rect
       style="fill:#db151f;fill-opacity:1;fill-rule:evenodd;stroke:none"
       id="rect3963"
       width="326.2063"
       height="19.326342"
       x="68.325386"
       y="309.40277" />
    <rect
       style="fill:#db151f;fill-opacity:1;fill-rule:evenodd;stroke:none"
       id="rect3965"
       width="65.824081"
       height="19.431377"
       x="68.325386"
       y="349.31586" />
    <rect
       style="fill:#db151f;fill-opacity:1;fill-rule:evenodd;stroke:none"
       id="rect3967"
       width="65.824081"
       height="19.641443"
       x="68.325386"
       y="388.59882" />
    <rect
       style="fill:#db151f;fill-opacity:1;fill-rule:evenodd;stroke:none"
       id="rect3969"
       width="65.824081"
       height="19.326342"
       x="68.325386"
       y="428.30182" />
    <rect
       style="fill:#db151f;fill-opacity:1;fill-rule:evenodd;stroke:none"
       id="rect3971"
       width="326.2063"
       height="19.641443"
       x="68.325386"
       y="467.89972" />
    <rect
       style="fill:#db151f;fill-opacity:1;fill-rule:evenodd;stroke:none"
       id="rect3973"
       width="166.41243"
       height="19.326342"
       x="228.11932"
       y="428.30182" />
    <rect
       style="fill:#db151f;fill-opacity:1;fill-rule:evenodd;stroke:none"
       id="rect3975"
       width="166.41243"
       height="19.641443"
       x="228.11932"
       y="388.59882" />
    <rect
       style="fill:#db151f;fill-opacity:1;fill-rule:evenodd;stroke:none"
       id="rect3977"
       width="166.41243"
       height="19.431377"
       x="228.11932"
       y="349.31586" />
    <rect
       style="fill:#0e44af;fill-opacity:1;fill-rule:evenodd;stroke:none"
       id="rect3979"
       width="93.969788"
       height="69.377724"
       x="134.14935"
       y="398.52203" />
    <path
       style="fill:#db151f;fill-opacity:1;stroke:none"
       d="m 213.40666,398.51085 c 1.456,-2.1619 1.1036,-5.9721 -1.9994,-12.28909 -4.0911,-8.8782 -2.3544,-18.6438 5.2615,-29.3045 3.6644,-9.3052 -2.5826,-10.223 -5.051,-1.9956 1.6914,6.0872 -1.5753,9.9428 -4.7354,9.6631 1.6167,1.7729 0.9029,3.8193 -0.8417,5.987 -3.6934,4.684 -2.9793,7.7843 -1.7889,10.7135 -2.5315,-2.9833 -4.921,-5.9772 -2.2099,-9.3481 2.5398,-3.6498 -2.9487,-7.045 -3.8935,-1.9957 -0.3133,3.1608 0.4581,6.7727 2.5255,10.9236 1.3841,1.2686 3.0523,2.2181 1.368,6.9322 -0.2054,3.17409 1.7721,5.69449 3.4726,8.29779 -7.2723,-3.1705 -13.9918,-6.57479 -9.7864,-14.59979 -6.7975,-12.2953 -3.2691,-21.363 9.5759,-27.519 6.039,-22.0339 24.1587,-6.7219 13.4949,6.5759 -3.8194,6.4074 -6.2398,11.3563 -4.8661,15.9015 0.8791,-3.3302 3.7188,-6.8779 6.3138,-10.3985 1.7558,-2.1502 2.927,-5.1757 3.8935,-8.5077 -0.4155,4.8017 1.5114,9.2002 -4.2092,14.915 -4.9766,6.6927 -4.1954,10.717 -3.7882,14.9148 1.167,-2.2863 1.0334,-3.8306 4.7352,-7.5625 1.8431,-2.5208 2.8756,-5.0417 2.736,-7.5625 2.3667,4.7554 2.324,8.7092 0.5262,12.079 -3.1449,4.7265 -3.4518,9.45309 -3.4726,14.17959 z"
       id="path2998-7"
       inkscape:connector-curvature="0"
       sodipodi:nodetypes="ccccccccccccccccccccccccc" />
    <path
       style="fill:#fcdd07;fill-opacity:1;stroke:none"
       d="m 175.66726,398.51085 1.8279,1.6269 c 1.9485,0.4431 3.6995,1.1546 4.1248,3.6709 -6.3778,-5.7652 -14.9303,-3.241 -19.2718,0.6684 -3.5165,3.0994 -6.9699,2.9338 -10.4172,2.451 0.8271,0.747 1.6334,1.5067 3.3485,1.7082 -2.4238,0.6671 -4.1452,2.1562 -4.539,5.1989 5.4892,-2.7745 9.1217,-1.1956 10.1939,6.3873 -0.8588,15.3547 -5.3969,17.9002 -8.557,10.3979 1.145,-1.6835 1.8221,-3.367 1.1907,-5.0504 4.4204,-2.5165 1.6024,-3.9215 -1.5627,-5.2733 -1.4131,0.8715 -4.8444,1.0457 -1.4881,3.5651 0.5329,3.8911 -1.2239,3.8208 -3.6461,2.5995 -0.1732,-7.2884 -3.148,-3.6241 -5.5806,-2.0797 -1.3175,5.514 0.9651,3.3619 2.4555,2.8966 2.3474,1.4373 3.8168,2.8434 0.6697,4.0849 -2.3006,-0.4668 -4.8908,-1.3386 -3.3483,3.565 1.9849,4.2609 2.6948,3.4315 2.9019,0.5941 2.8026,-0.739 4.383,1.5295 1.488,4.0106 -1.2922,-0.1757 -2.0059,0.2261 -2.3066,1.0398 -2.3596,-0.7912 -4.6878,-1.5381 -2.009,4.8276 2.626,4.1308 3.7466,3.6377 3.7948,-0.1485 1.7602,0.35 2.5432,-0.1128 3.1252,-0.7427 l 2.6787,-0.817 c 0.2062,1.0691 0.7702,2.2868 -1.5626,2.3024 -1.9689,0.5195 -2.2719,2.0553 -0.6696,4.7534 0.6191,-0.9342 -0.8995,-2.6149 3.2992,-2.2985 3.2852,-0.092 3.4366,-1.4362 3.844,-2.6778 0.7367,1.9986 6.1571,6.353 7.664,0.6686 l 3.0508,-7.7985 c 0.649,1.162 1.3667,2.1953 3.5716,0.4456 -3.4581,-2.0548 -2.7668,-4.1096 -2.8275,-6.1644 3.1893,0.6506 5.7049,0.1244 8.1104,-0.5943 -4.1738,-1.1274 -5.8908,-3.6038 -6.1014,-6.907 1.8173,1.5868 4.1429,1.4826 6.5479,1.114 -4.9993,-2.3881 -6.2278,-5.5781 -3.9436,-8.5411 3.7331,-3.3773 8.7771,-3.556 14.2864,-2.5995 -9.6411,6.714 -3.857,9.3244 -2.6788,9.5067 3.1606,2.7493 2.1054,7.8516 -0.8928,9.1351 2.0873,0.2419 4.0547,-0.114 5.3574,-3.7876 0.403,2.5003 -0.6624,5.0008 -2.2323,7.5013 2.8886,-0.8383 5.1895,-2.6152 6.1015,-6.6101 7.467,5.9372 12.8566,20.8949 7.4409,23.9894 -4.9774,1.7077 -6.1586,-3.4359 -6.0271,-4.8276 l 2.0834,-4.0106 c 1.0084,-1.0044 3.9587,-3.286 -1.7115,-5.199 -2.8745,-0.1669 -3.7715,1.0233 -2.1577,3.9364 0.6484,2.0225 -2.2287,3.7491 -2.3812,0.4456 -0.6831,-3.0286 -1.5032,-5.6386 -4.39,-1.9311 -2.5248,2.6006 -1.9452,3.8957 -0.1488,4.6791 5.6358,0.8104 2.6252,4.6462 -0.2233,2.0796 -1.9645,-3.3612 -3.4075,-2.6325 -4.3901,1.7082 0.062,4.8541 1.8747,3.7687 4.0181,1.5597 4.4671,1.4342 1.7196,4.0979 0.1489,3.7878 -2.386,-0.3508 -5.1203,-1.1211 -3.5717,3.2679 1.336,3.0012 2.8567,3.4814 4.6134,0.7427 0.4181,-2.6346 4.2436,-2.9033 2.7531,0.8912 -0.6786,1.9721 1.8085,3.9463 4.6133,1.3369 6.8656,3.9714 11.3702,1.3643 14.8817,-4.0106 1.1982,1.1636 1.3833,2.3272 1.0417,3.4908 1.7699,-1.3892 2.8569,-3.0882 1.5626,-5.8675 3.2073,1.1235 4.7614,-0.546 6.1758,-2.4509 -2.7428,-0.1778 -4.0516,-1.2361 -4.9854,-2.5252 2.8165,1.0547 5.4243,-1.1205 7.9617,-4.3819 -2.1915,0.8637 -4.1895,0.1807 -6.1014,-1.1884 2.4839,-0.9559 4.2848,-3.1995 5.5062,-6.5358 -2.6351,0.8982 -5.2403,1.9101 -8.5569,0.2228 1.5881,-0.6859 2.7325,-1.9256 3.1994,-4.0105 -3.8042,1.7561 -9.0613,0.216 -9.1521,-4.8276 0.6093,-9.8936 1.4037,-19.9816 -5.1343,-22.3556 10.234,0.015 20.4954,1.189 21.8864,-10.6452 l -7.005,0 c -2.2794,7.5189 -12.7671,4.3902 -17.6345,0 l -13.5422,0 1.9346,3.3667 c -1.6048,-2.6835 -4.7199,-3.5492 -8.7058,-3.3667 z"
       id="path3768-6"
       inkscape:connector-curvature="0"
       sodipodi:nodetypes="cccccccccccccccccccccccccccccccccccccccccccccccccccccccccccccccccccccccccccc" />
    <path
       style="fill:#fcdd07;fill-opacity:1;stroke:none"
       d="m 140.64056,443.09805 c -1.4424,1.0516 -5.0663,2.8574 -2.4203,7.0898 0.047,-2.5561 1.5158,-3.9448 3.9461,-3.9913 1.1298,-1.5101 -0.222,-3.2888 -1.5258,-3.0985 z"
       id="path3770-14"
       inkscape:connector-curvature="0"
       sodipodi:nodetypes="cccc" />
    <path
       style="fill:#fcdd07;fill-opacity:1;stroke:none"
       d="m 140.76836,432.10275 c -1.4422,1.0516 -5.0663,2.8574 -2.4203,7.0898 0.047,-2.5561 1.5158,-3.9448 3.9462,-3.9913 1.1298,-1.5101 -0.222,-3.2888 -1.5259,-3.0985 z"
       id="path3770-1-2"
       inkscape:connector-curvature="0"
       sodipodi:nodetypes="cccc" />
    <path
       style="fill:#fcdd07;fill-opacity:1;stroke:none"
       d="m 143.92546,422.67855 c -1.6527,-0.6764 -5.0909,-2.8136 -7.3193,1.652 2.2068,-1.2977 4.161,-0.7752 5.4726,1.2674 1.8804,0.1706 2.6914,-1.91 1.8467,-2.9194 z"
       id="path3770-7-3"
       inkscape:connector-curvature="0"
       sodipodi:nodetypes="cccc" />
    <path
       style="fill:#fcdd07;fill-opacity:1;stroke:none"
       d="m 154.30506,421.44445 c -0.768,-1.6096 -1.8738,-5.4989 -6.5311,-3.6884 2.5076,0.5202 3.6026,2.2181 3.1977,4.6104 1.2773,1.3883 3.2789,0.3922 3.3334,-0.922 z"
       id="path3770-4-2"
       inkscape:connector-curvature="0"
       sodipodi:nodetypes="cccc" />
    <path
       style="fill:#fcdd07;fill-opacity:1;stroke:none"
       d="m 195.47316,441.76575 c -0.8757,-1.554 -2.2433,-5.3595 -6.7668,-3.2375 2.5372,0.349 3.745,1.9689 3.5038,4.3832 1.3686,1.2985 3.298,0.1691 3.263,-1.1457 z"
       id="path3770-0-2"
       inkscape:connector-curvature="0"
       sodipodi:nodetypes="cccc" />
    <path
       style="fill:#fcdd07;fill-opacity:1;stroke:none"
       d="m 186.66896,442.94785 c -1.6403,-0.7057 -5.0395,-2.9043 -7.3478,1.5207 2.2298,-1.2579 4.1742,-0.7006 5.4489,1.3652 1.8772,0.2042 2.7254,-1.8615 1.8989,-2.8859 z"
       id="path3770-9-1"
       inkscape:connector-curvature="0"
       sodipodi:nodetypes="cccc" />
    <path
       style="fill:#fcdd07;fill-opacity:1;stroke:none"
       d="m 180.39286,449.31235 c -1.7504,0.3549 -5.7987,0.4863 -5.1637,5.4347 1.1116,-2.3032 3.0268,-2.9534 5.2548,-1.9834 1.6581,-0.9016 1.1733,-3.0812 -0.09,-3.4513 z"
       id="path3770-48-6"
       inkscape:connector-curvature="0"
       sodipodi:nodetypes="cccc" />
    <path
       style="fill:#fcdd07;fill-opacity:1;stroke:none"
       d="m 180.83836,457.97905 c -1.4422,1.0516 -5.0664,2.8574 -2.4203,7.0898 0.047,-2.5561 1.5158,-3.9448 3.946,-3.9913 1.1299,-1.5101 -0.2218,-3.2888 -1.5257,-3.0985 z"
       id="path3770-8-8"
       inkscape:connector-curvature="0"
       sodipodi:nodetypes="cccc" />
    <path
       style="fill:#db151f;fill-opacity:1;stroke:none"
       d="m 196.04376,398.51085 c -11.5502,-14.22679 -7.241,-28.67039 -6.7347,-30.14489 3.267,-7.1473 6.5063,-14.2993 4.8407,-22.2673 2.1942,-2.1691 5.578,-4.6097 -1.6837,-4.6215 1.5285,-2.5909 2.52,-5.1816 -0.1057,-7.7725 -0.1116,0.5742 -0.3389,1.1388 -2.1046,1.5755 -2.2912,0.5952 -1.8757,1.1903 -2.2099,1.7856 -10.9965,-3.1416 -16.53,-0.2376 -21.151,3.6762 -2.5181,1.057 -0.9238,2.2343 0.3156,3.5711 -1.7447,2.9403 0.3287,4.5194 2.4203,6.0921 l 1.0523,1.6805 0.1057,-2.2056 c 1.0207,0.5104 1.9608,-0.2668 2.8412,-1.9959 2.8787,-1.1937 5.0282,0.8675 5.52,4.2022 0.2919,1.9794 0.052,4.1505 -0.8242,5.6402 -0.6519,1.1091 -2.9185,0.6002 -5.6429,-0.8093 l -1.2626,-1.9956 -0.1057,2.5207 c -3.8357,2.1043 3.3973,4.3813 7.9973,6.6172 -1.6199,1.573 -4.1055,1.634 -6.8398,1.2604 -0.2346,1.8206 1.7272,3.6413 3.683,5.4618 -11.8707,-3.2917 -19.6147,-14.6481 -21.0458,-22.5824 -3.2604,0.3223 -4.4476,-4.0702 -3.4726,-6.3021 7.6159,-2.3844 -0.3046,-5.7077 1.0522,-4.7264 -3.7627,-2.4081 -4.7112,-1.426 -4.4196,1.0502 1.0015,2.1074 -1.6289,4.008 -2.6306,0 0.4642,-2.7969 -0.992,-3.1178 -3.8935,-1.5755 -4.252,2.6215 -2.3421,3.5267 -0.7367,4.5165 1.4114,0.8918 2.3578,1.7671 -0.1057,2.5208 -2.301,-1.3997 -2.9954,-0.1756 -2.2098,3.4662 -0.018,2.5367 1.2526,2.7012 3.0517,1.8906 2.1154,2.3316 -0.151,2.112 -1.1575,2.6259 -2.0547,-0.2015 -3.6318,0.014 -1.2628,3.6763 2.4916,4.2048 2.6269,1.354 3.262,0 3.7297,-1.5665 2.7985,1.7598 2.2099,4.7264 1.0137,0.099 2.0085,0.348 3.157,-0.6303 0.6901,2.9039 -0.7205,4.1972 -1.8942,5.672 l 4.6302,0.6301 c -1.8914,1.9887 -3.5107,3.2982 -4.8407,3.8864 1.3478,0.8122 4.0057,0.5773 5.9901,-1.1457 1.7968,-1.5601 3.7438,-0.1737 0.955,3.2463 2.1791,1.7019 4.8075,2.6288 8.5237,1.6806 0.1151,1.4314 -1.2745,2.279 -3.683,2.7308 1.1626,1.9938 2.4928,1.647 3.7882,1.7857 -2.7994,3.6268 -5.6895,5.0843 -8.6289,5.3568 -3.8016,-0.1652 -2.5055,-1.7774 -2.4203,-3.0461 3.731,-6.1748 0.2104,-4.2712 -1.5783,-4.9367 -3.6362,1.4461 -5.2735,2.1959 -1.368,3.7814 1.1842,1.0097 -0.9165,4.0467 -2.3152,1.1553 -2.4316,-3.2135 -3.7585,-1.8935 -4.9458,0 -0.7485,1.9201 -0.1611,3.2605 2.3152,3.7813 3.5758,1.0302 1.2947,2.7771 0.1056,1.9956 -1.2835,0.4075 -2.9014,-2.6034 -3.6829,2.941 1.7186,1.89749 3.1905,2.61219 4.2092,1.15529 2.7461,-1.47319 3.1588,2.137 1.1575,1.8907 -3.828,1.8913 -0.7094,2.792 1.0523,3.8862 3.5802,1.2325 4.7633,0.5847 4.4196,-1.2603 -0.9596,-2.4759 0.3259,-3.3893 2.2099,-3.8863 2.4401,2.685 1.3429,5.2229 0.5261,7.7725 3.027,-1.6484 5.5936,-3.6799 6.9451,-6.7221 0.8731,1.2603 0.5839,2.5207 0.5262,3.7811 2.0143,-0.9464 2.6604,-3.0281 3.262,-5.1467 2.5543,1.2795 2.5063,2.9596 1.8942,4.7266 1.9214,-0.9408 3.129,-2.9112 3.7882,-5.67179 2.1979,0.56899 1.7693,2.65559 1.368,4.72659 1.3822,-1.7961 2.1917,-3.8778 1.8942,-6.51219 l 10.4176,10.81849 z"
       id="path3832-5"
       inkscape:connector-curvature="0"
       sodipodi:nodetypes="cccccccccccccssccccccccccccccccccccccccscccccccccccccccccccccccccccc" />
    <path
       style="fill:#ffdb04;fill-opacity:1;stroke:none"
       d="m 175.59276,342.90676 c 3.4011,-2.2827 6.4938,-1.7632 9.45,0 -1.9276,1.916 -3.9042,3.593 -6.9014,0.3157 -1.0305,-0.5841 -1.816,-0.3733 -2.6601,-0.3528 z"
       id="path3834-7"
       inkscape:connector-curvature="0"
       sodipodi:nodetypes="ccccc" />
    <path
       style="fill:#0e44af;fill-opacity:1;stroke:none"
       d="m 153.59166,337.61566 c 0.1275,-1.7783 1.0879,-5.7059 -3.8581,-6.4242 1.924,1.6872 2.0372,3.7033 0.5029,5.5851 0.4249,1.8363 2.6583,1.9556 3.3552,0.8391 z"
       id="path3770-7-2-6"
       inkscape:connector-curvature="0"
       sodipodi:nodetypes="cccc" />
    <path
       style="fill:#0e44af;fill-opacity:1;stroke:none"
       d="m 143.49736,336.90176 c -1.3491,-1.1684 -3.9219,-4.291 -7.4642,-0.7713 2.5068,-0.5251 4.1908,0.5937 4.7791,2.9479 1.727,0.762 3.162,-0.9504 2.6851,-2.1766 z"
       id="path3770-7-2-4-1"
       inkscape:connector-curvature="0"
       sodipodi:nodetypes="cccc" />
    <path
       style="fill:#0e44af;fill-opacity:1;stroke:none"
       d="m 139.62356,344.62476 c -1.6019,0.7885 -5.4829,1.9455 -3.6053,6.5689 0.4867,-2.5098 2.1727,-3.6259 4.5749,-3.2547 1.373,-1.2937 0.3477,-3.2778 -0.9696,-3.3142 z"
       id="path3770-7-2-5-8"
       inkscape:connector-curvature="0"
       sodipodi:nodetypes="cccc" />
    <path
       style="fill:#0e44af;fill-opacity:1;stroke:none"
       d="m 139.56196,352.39666 c -1.4056,1.0999 -4.9662,3.0276 -2.1774,7.1678 -0.04,-2.5562 1.3805,-3.994 3.8078,-4.1228 1.0778,-1.5476 -0.3338,-3.2794 -1.6304,-3.045 z"
       id="path3770-7-2-51-9"
       inkscape:connector-curvature="0"
       sodipodi:nodetypes="cccc" />
    <path
       style="fill:#0e44af;fill-opacity:1;stroke:none"
       d="m 149.38966,375.48156 c -1.2924,-1.2306 -3.7148,-4.4708 -7.4194,-1.1218 2.5288,-0.4064 4.1582,0.7903 4.6344,3.1696 1.6892,0.8424 3.2035,-0.8005 2.785,-2.0478 z"
       id="path3770-7-2-7-2"
       inkscape:connector-curvature="0"
       sodipodi:nodetypes="cccc" />
    <path
       style="fill:#0e44af;fill-opacity:1;stroke:none"
       d="m 141.96446,379.48096 c -1.764,-0.2799 -5.6018,-1.573 -6.7445,3.2838 1.8498,-1.7683 3.8719,-1.7074 5.618,-0.02 1.8696,-0.2645 2.1807,-2.4754 1.1265,-3.2644 z"
       id="path3770-7-2-1-7"
       inkscape:connector-curvature="0"
       sodipodi:nodetypes="cccc" />
    <path
       style="fill:#0e44af;fill-opacity:1;stroke:none"
       d="m 141.00216,386.54096 c -1.5984,0.7956 -5.4743,1.9696 -3.5762,6.58469 0.4756,-2.512 2.1565,-3.63549 4.5603,-3.2749 1.3674,-1.29959 0.3334,-3.27929 -0.9841,-3.30979 z"
       id="path3770-7-2-15-9"
       inkscape:connector-curvature="0"
       sodipodi:nodetypes="cccc" />
    <path
       style="fill:#0e44af;fill-opacity:1;stroke:none"
       d="m 143.40866,394.36915 c -0.7051,1.638 -2.9033,5.0337 1.5328,7.3321 -1.2631,-2.224 -0.7072,-4.1656 1.3609,-5.4406 0.2022,-1.8738 -1.8684,-2.7179 -2.8937,-1.8915 z"
       id="path3770-7-2-2-5"
       inkscape:connector-curvature="0"
       sodipodi:nodetypes="cccc" />
    <path
       style="fill:#fcdd07;fill-opacity:1;stroke:none"
       d="m 142.28106,398.51085 2.1207,0 c -0.22,0.9681 0.021,2.1 0.5628,3.2367 -1.3431,-0.7651 -2.4258,-1.7092 -2.6602,-3.2367 l -0.012,0"
       id="path3925-4"
       inkscape:connector-curvature="0"
       sodipodi:nodetypes="ccccc" />
    <path
       style="fill:#0e44af;fill-opacity:1;stroke:none"
       d="m 178.65466,350.01116 c -2.3822,-0.028 -4.8736,0.2278 -8.1552,2.5471 -7.4287,4.0897 -10.2596,-2.9766 -7.9711,-8.4027 -6.5112,3.473 -3.241,17.7228 8.7602,10.5035 2.807,-2.0184 5.4361,-2.9358 7.8923,-2.7834 z"
       id="path3927-3"
       inkscape:connector-curvature="0"
       sodipodi:nodetypes="cccccc" />
    <path
       sodipodi:type="arc"
       style="fill:#db151f;fill-opacity:1;fill-rule:evenodd;stroke:none"
       id="path4062"
       sodipodi:cx="479.46429"
       sodipodi:cy="498.52289"
       sodipodi:rx="8.3928576"
       sodipodi:ry="7.9464288"
       d="m 487.85715,498.52289 c 0,4.38869 -3.75761,7.94643 -8.39286,7.94643 -4.63524,0 -8.39285,-3.55774 -8.39285,-7.94643 0,-4.38869 3.75761,-7.94643 8.39285,-7.94643 4.63525,0 8.39286,3.55774 8.39286,7.94643 z"
       transform="matrix(0.41668687,0,0,0.41591523,36.180961,206.66426)" />
    <path
       sodipodi:type="arc"
       style="fill:#fcdd07;fill-opacity:1;fill-rule:evenodd;stroke:none"
       id="path4064"
       sodipodi:cx="478.52679"
       sodipodi:cy="500.39789"
       sodipodi:rx="3.3482144"
       sodipodi:ry="3.2142856"
       d="m 481.87501,500.39789 c 0,1.7752 -1.49905,3.21428 -3.34822,3.21428 -1.84916,0 -3.34821,-1.43908 -3.34821,-3.21428 0,-1.7752 1.49905,-3.21429 3.34821,-3.21429 1.84917,0 3.34822,1.43909 3.34822,3.21429 z"
       transform="matrix(0.41668687,0,0,0.41591523,36.180961,206.66426)" />
    <path
       style="fill:#db151f;fill-opacity:1;stroke:none"
       d="m 234.66516,416.64405 c 0.021,0.4115 0.1673,0.7748 -0.6882,1.5226 -3.1213,1.7788 -3.4584,6.135 1.5626,5.756 -0.1393,1.6286 2.0833,2.1661 3.5344,0.3528 0.35,-0.6346 1.3599,-0.5769 1.4882,0 0.6458,2.1642 2.9451,1.3381 3.7575,-0.4271 1.3051,-0.2978 2.2486,-1.0037 1.9515,-3.1091 1.331,-0.1919 1.7442,-1.7624 1.868,-3.2297 -2.0161,1.4562 -3.5158,1.5225 -4.3408,0.7352 -1.7102,-1.9765 -4.4949,-1.5917 -5.4192,0.9716 -0.976,2.4228 -4.8314,1.7215 -1.5785,-0.709 1.7175,-1.2302 2.2595,-2.6304 2.4203,-3.3874 z"
       id="path4066"
       inkscape:connector-curvature="0"
       sodipodi:nodetypes="ccccccccccccc" />
    <path
       transform="matrix(0.41668687,0,0,0.41591523,35.881161,246.31706)"
       sodipodi:type="arc"
       style="fill:#db151f;fill-opacity:1;fill-rule:evenodd;stroke:none"
       id="path4062-3-1"
       sodipodi:cx="479.46429"
       sodipodi:cy="498.52289"
       sodipodi:rx="8.3928576"
       sodipodi:ry="7.9464288"
       d="m 487.85715,498.52289 c 0,4.38869 -3.75761,7.94643 -8.39286,7.94643 -4.63524,0 -8.39285,-3.55774 -8.39285,-7.94643 0,-4.38869 3.75761,-7.94643 8.39285,-7.94643 4.63525,0 8.39286,3.55774 8.39286,7.94643 z" />
    <path
       transform="matrix(0.41668687,0,0,0.41591523,35.881161,246.31706)"
       sodipodi:type="arc"
       style="fill:#fcdd07;fill-opacity:1;fill-rule:evenodd;stroke:none"
       id="path4064-3-1"
       sodipodi:cx="478.52679"
       sodipodi:cy="500.39789"
       sodipodi:rx="3.3482144"
       sodipodi:ry="3.2142856"
       d="m 481.87501,500.39789 c 0,1.7752 -1.49905,3.21428 -3.34822,3.21428 -1.84916,0 -3.34821,-1.43908 -3.34821,-3.21428 0,-1.7752 1.49905,-3.21429 3.34821,-3.21429 1.84917,0 3.34822,1.43909 3.34822,3.21429 z" />
    <path
       style="fill:#db151f;fill-opacity:1;stroke:none"
       d="m 234.36536,456.29685 c 0.021,0.4115 0.1672,0.7747 -0.6883,1.5227 -3.1213,1.7785 -3.4583,6.1348 1.5626,5.7559 -0.1392,1.6285 2.0835,2.1662 3.5344,0.3528 0.3501,-0.6346 1.3599,-0.5768 1.4882,0 0.6458,2.1641 2.9451,1.3381 3.7576,-0.4271 1.305,-0.2978 2.2485,-1.0036 1.9515,-3.1089 1.3308,-0.192 1.7441,-1.7626 1.8679,-3.23 -2.016,1.4563 -3.5158,1.5227 -4.3408,0.7354 -1.7103,-1.9766 -4.4949,-1.5918 -5.4192,0.9715 -0.976,2.4227 -4.8313,1.7215 -1.5785,-0.7091 1.7175,-1.2301 2.2596,-2.6304 2.4202,-3.3872 z"
       id="path4066-4-3"
       inkscape:connector-curvature="0"
       sodipodi:nodetypes="ccccccccccccc" />
    <path
       transform="matrix(0.41668687,0,0,0.41591523,36.029861,167.51595)"
       sodipodi:type="arc"
       style="fill:#db151f;fill-opacity:1;fill-rule:evenodd;stroke:none"
       id="path4062-3-8"
       sodipodi:cx="479.46429"
       sodipodi:cy="498.52289"
       sodipodi:rx="8.3928576"
       sodipodi:ry="7.9464288"
       d="m 487.85715,498.52289 c 0,4.38869 -3.75761,7.94643 -8.39286,7.94643 -4.63524,0 -8.39285,-3.55774 -8.39285,-7.94643 0,-4.38869 3.75761,-7.94643 8.39285,-7.94643 4.63525,0 8.39286,3.55774 8.39286,7.94643 z" />
    <path
       transform="matrix(0.41668687,0,0,0.41591523,36.029861,167.51595)"
       sodipodi:type="arc"
       style="fill:#fcdd07;fill-opacity:1;fill-rule:evenodd;stroke:none"
       id="path4064-3-7"
       sodipodi:cx="478.52679"
       sodipodi:cy="500.39789"
       sodipodi:rx="3.3482144"
       sodipodi:ry="3.2142856"
       d="m 481.87501,500.39789 c 0,1.7752 -1.49905,3.21428 -3.34822,3.21428 -1.84916,0 -3.34821,-1.43908 -3.34821,-3.21428 0,-1.7752 1.49905,-3.21429 3.34821,-3.21429 1.84917,0 3.34822,1.43909 3.34822,3.21429 z" />
    <path
       style="fill:#db151f;fill-opacity:1;stroke:none"
       d="m 234.51426,377.49586 c 0.021,0.4114 0.1672,0.7747 -0.6883,1.5225 -3.1214,1.7788 -3.4585,6.135 1.5625,5.756 -0.1393,1.6286 2.0834,2.1662 3.5344,0.3528 0.3501,-0.6347 1.36,-0.5769 1.4882,0 0.646,2.1642 2.9453,1.3381 3.7577,-0.427 1.305,-0.2979 2.2484,-1.0037 1.9515,-3.1091 1.3308,-0.1919 1.744,-1.7625 1.8678,-3.2299 -2.0161,1.4563 -3.5158,1.5227 -4.3407,0.7353 -1.7103,-1.9765 -4.4951,-1.5917 -5.4194,0.9716 -0.9758,2.4227 -4.8313,1.7215 -1.5783,-0.709 1.7175,-1.2301 2.2594,-2.6303 2.4202,-3.3873 z"
       id="path4066-4-4"
       inkscape:connector-curvature="0"
       sodipodi:nodetypes="ccccccccccccc" />
    <path
       transform="matrix(0.41668687,0,0,0.41591523,35.732161,127.85545)"
       sodipodi:type="arc"
       style="fill:#db151f;fill-opacity:1;fill-rule:evenodd;stroke:none"
       id="path4062-3-2"
       sodipodi:cx="479.46429"
       sodipodi:cy="498.52289"
       sodipodi:rx="8.3928576"
       sodipodi:ry="7.9464288"
       d="m 487.85715,498.52289 c 0,4.38869 -3.75761,7.94643 -8.39286,7.94643 -4.63524,0 -8.39285,-3.55774 -8.39285,-7.94643 0,-4.38869 3.75761,-7.94643 8.39285,-7.94643 4.63525,0 8.39286,3.55774 8.39286,7.94643 z" />
    <path
       transform="matrix(0.41668687,0,0,0.41591523,35.732161,127.85545)"
       sodipodi:type="arc"
       style="fill:#fcdd07;fill-opacity:1;fill-rule:evenodd;stroke:none"
       id="path4064-3-77"
       sodipodi:cx="478.52679"
       sodipodi:cy="500.39789"
       sodipodi:rx="3.3482144"
       sodipodi:ry="3.2142856"
       d="m 481.87501,500.39789 c 0,1.7752 -1.49905,3.21428 -3.34822,3.21428 -1.84916,0 -3.34821,-1.43908 -3.34821,-3.21428 0,-1.7752 1.49905,-3.21429 3.34821,-3.21429 1.84917,0 3.34822,1.43909 3.34822,3.21429 z" />
    <path
       style="fill:#db151f;fill-opacity:1;stroke:none"
       d="m 234.21656,337.83536 c 0.021,0.4114 0.1671,0.7747 -0.6883,1.5225 -3.1213,1.7788 -3.4583,6.135 1.5627,5.7559 -0.1394,1.6287 2.0833,2.1663 3.5343,0.3528 0.3499,-0.6345 1.3599,-0.5768 1.4881,0 0.6459,2.1643 2.9453,1.3383 3.7577,-0.4269 1.305,-0.2979 2.2485,-1.0037 1.9516,-3.1091 1.3307,-0.1919 1.744,-1.7625 1.8677,-3.2298 -2.016,1.4562 -3.5158,1.5226 -4.3406,0.7352 -1.7103,-1.9764 -4.495,-1.5918 -5.4193,0.9716 -0.976,2.4227 -4.8313,1.7215 -1.5785,-0.7089 1.7176,-1.2302 2.2595,-2.6305 2.4203,-3.3874 z"
       id="path4066-4-9"
       inkscape:connector-curvature="0"
       sodipodi:nodetypes="ccccccccccccc" />
    <path
       transform="matrix(0.41668687,0,0,0.41591523,-82.800436,128.15255)"
       sodipodi:type="arc"
       style="fill:#db151f;fill-opacity:1;fill-rule:evenodd;stroke:none"
       id="path4062-3-3"
       sodipodi:cx="479.46429"
       sodipodi:cy="498.52289"
       sodipodi:rx="8.3928576"
       sodipodi:ry="7.9464288"
       d="m 487.85715,498.52289 c 0,4.38869 -3.75761,7.94643 -8.39286,7.94643 -4.63524,0 -8.39285,-3.55774 -8.39285,-7.94643 0,-4.38869 3.75761,-7.94643 8.39285,-7.94643 4.63525,0 8.39286,3.55774 8.39286,7.94643 z" />
    <path
       transform="matrix(0.41668687,0,0,0.41591523,-82.800436,128.15255)"
       sodipodi:type="arc"
       style="fill:#fcdd07;fill-opacity:1;fill-rule:evenodd;stroke:none"
       id="path4064-3-19"
       sodipodi:cx="478.52679"
       sodipodi:cy="500.39789"
       sodipodi:rx="3.3482144"
       sodipodi:ry="3.2142856"
       d="m 481.87501,500.39789 c 0,1.7752 -1.49905,3.21428 -3.34822,3.21428 -1.84916,0 -3.34821,-1.43908 -3.34821,-3.21428 0,-1.7752 1.49905,-3.21429 3.34821,-3.21429 1.84917,0 3.34822,1.43909 3.34822,3.21429 z" />
    <path
       style="fill:#db151f;fill-opacity:1;stroke:none"
       d="m 115.68406,338.13236 c 0.021,0.4116 0.1671,0.7747 -0.6883,1.5226 -3.1214,1.7787 -3.4583,6.1349 1.5626,5.7559 -0.1392,1.6286 2.0833,2.1663 3.5344,0.3528 0.3501,-0.6344 1.3598,-0.5768 1.4881,0 0.6459,2.1642 2.9453,1.3383 3.7577,-0.4269 1.3051,-0.2979 2.2485,-1.0037 1.9515,-3.1091 1.3307,-0.1919 1.7441,-1.7625 1.8678,-3.2298 -2.016,1.4562 -3.5159,1.5227 -4.3407,0.7352 -1.7103,-1.9765 -4.4949,-1.5918 -5.4192,0.9716 -0.976,2.4226 -4.8314,1.7215 -1.5785,-0.7089 1.7175,-1.2302 2.2595,-2.6305 2.4203,-3.3874 z"
       id="path4066-4-8"
       inkscape:connector-curvature="0"
       sodipodi:nodetypes="ccccccccccccc" />
    <path
       transform="matrix(0.41668687,0,0,0.41591523,-82.874736,167.07025)"
       sodipodi:type="arc"
       style="fill:#db151f;fill-opacity:1;fill-rule:evenodd;stroke:none"
       id="path4062-3-6"
       sodipodi:cx="479.46429"
       sodipodi:cy="498.52289"
       sodipodi:rx="8.3928576"
       sodipodi:ry="7.9464288"
       d="m 487.85715,498.52289 c 0,4.38869 -3.75761,7.94643 -8.39286,7.94643 -4.63524,0 -8.39285,-3.55774 -8.39285,-7.94643 0,-4.38869 3.75761,-7.94643 8.39285,-7.94643 4.63525,0 8.39286,3.55774 8.39286,7.94643 z" />
    <path
       transform="matrix(0.41668687,0,0,0.41591523,-82.874736,167.07025)"
       sodipodi:type="arc"
       style="fill:#fcdd07;fill-opacity:1;fill-rule:evenodd;stroke:none"
       id="path4064-3-5"
       sodipodi:cx="478.52679"
       sodipodi:cy="500.39789"
       sodipodi:rx="3.3482144"
       sodipodi:ry="3.2142856"
       d="m 481.87501,500.39789 c 0,1.7752 -1.49905,3.21428 -3.34822,3.21428 -1.84916,0 -3.34821,-1.43908 -3.34821,-3.21428 0,-1.7752 1.49905,-3.21429 3.34821,-3.21429 1.84917,0 3.34822,1.43909 3.34822,3.21429 z" />
    <path
       style="fill:#db151f;fill-opacity:1;stroke:none"
       d="m 115.60966,377.05026 c 0.021,0.4114 0.1671,0.7747 -0.6883,1.5225 -3.1214,1.7788 -3.4585,6.135 1.5626,5.7559 -0.1394,1.6287 2.0833,2.1662 3.5343,0.3528 0.35,-0.6346 1.36,-0.5768 1.4882,0 0.6459,2.1643 2.9453,1.3382 3.7577,-0.427 1.305,-0.2978 2.2485,-1.0036 1.9515,-3.1091 1.3308,-0.1919 1.7441,-1.7624 1.8678,-3.2297 -2.016,1.4562 -3.5158,1.5225 -4.3407,0.7352 -1.7103,-1.9765 -4.4951,-1.5917 -5.4194,0.9716 -0.9758,2.4227 -4.8312,1.7215 -1.5783,-0.709 1.7176,-1.2301 2.2595,-2.6305 2.4203,-3.3874 z"
       id="path4066-4-0"
       inkscape:connector-curvature="0"
       sodipodi:nodetypes="ccccccccccccc" />
    <path
       transform="matrix(0.41668687,0,0,0.41591523,-82.502636,207.02786)"
       sodipodi:type="arc"
       style="fill:#db151f;fill-opacity:1;fill-rule:evenodd;stroke:none"
       id="path4062-3-28"
       sodipodi:cx="479.46429"
       sodipodi:cy="498.52289"
       sodipodi:rx="8.3928576"
       sodipodi:ry="7.9464288"
       d="m 487.85715,498.52289 c 0,4.38869 -3.75761,7.94643 -8.39286,7.94643 -4.63524,0 -8.39285,-3.55774 -8.39285,-7.94643 0,-4.38869 3.75761,-7.94643 8.39285,-7.94643 4.63525,0 8.39286,3.55774 8.39286,7.94643 z" />
    <path
       transform="matrix(0.41668687,0,0,0.41591523,-82.502636,207.02786)"
       sodipodi:type="arc"
       style="fill:#fcdd07;fill-opacity:1;fill-rule:evenodd;stroke:none"
       id="path4064-3-6"
       sodipodi:cx="478.52679"
       sodipodi:cy="500.39789"
       sodipodi:rx="3.3482144"
       sodipodi:ry="3.2142856"
       d="m 481.87501,500.39789 c 0,1.7752 -1.49905,3.21428 -3.34822,3.21428 -1.84916,0 -3.34821,-1.43908 -3.34821,-3.21428 0,-1.7752 1.49905,-3.21429 3.34821,-3.21429 1.84917,0 3.34822,1.43909 3.34822,3.21429 z" />
    <path
       style="fill:#db151f;fill-opacity:1;stroke:none"
       d="m 115.98166,417.00785 c 0.021,0.4113 0.1672,0.7746 -0.6883,1.5225 -3.1212,1.7788 -3.4584,6.135 1.5625,5.7559 -0.1392,1.6286 2.0835,2.1663 3.5346,0.3528 0.3499,-0.6346 1.3598,-0.5768 1.4881,0 0.6459,2.1643 2.9452,1.3382 3.7576,-0.427 1.305,-0.2978 2.2484,-1.0036 1.9515,-3.1091 1.3308,-0.1919 1.7441,-1.7625 1.8679,-3.2298 -2.0161,1.4562 -3.5159,1.5226 -4.3407,0.7352 -1.7103,-1.9764 -4.495,-1.5917 -5.4193,0.9717 -0.9759,2.4226 -4.8314,1.7214 -1.5785,-0.709 1.7175,-1.2301 2.2595,-2.6305 2.4202,-3.3874 z"
       id="path4066-4-02"
       inkscape:connector-curvature="0"
       sodipodi:nodetypes="ccccccccccccc" />
    <path
       transform="matrix(0.41668687,0,0,0.41591523,-82.752436,246.54916)"
       sodipodi:type="arc"
       style="fill:#db151f;fill-opacity:1;fill-rule:evenodd;stroke:none"
       id="path4062-3-4"
       sodipodi:cx="479.46429"
       sodipodi:cy="498.52289"
       sodipodi:rx="8.3928576"
       sodipodi:ry="7.9464288"
       d="m 487.85715,498.52289 c 0,4.38869 -3.75761,7.94643 -8.39286,7.94643 -4.63524,0 -8.39285,-3.55774 -8.39285,-7.94643 0,-4.38869 3.75761,-7.94643 8.39285,-7.94643 4.63525,0 8.39286,3.55774 8.39286,7.94643 z" />
    <path
       transform="matrix(0.41668687,0,0,0.41591523,-82.752436,246.54916)"
       sodipodi:type="arc"
       style="fill:#fcdd07;fill-opacity:1;fill-rule:evenodd;stroke:none"
       id="path4064-3-8"
       sodipodi:cx="478.52679"
       sodipodi:cy="500.39789"
       sodipodi:rx="3.3482144"
       sodipodi:ry="3.2142856"
       d="m 481.87501,500.39789 c 0,1.7752 -1.49905,3.21428 -3.34822,3.21428 -1.84916,0 -3.34821,-1.43908 -3.34821,-3.21428 0,-1.7752 1.49905,-3.21429 3.34821,-3.21429 1.84917,0 3.34822,1.43909 3.34822,3.21429 z" />
    <path
       style="fill:#db151f;fill-opacity:1;stroke:none"
       d="m 115.73186,456.52905 c 0.021,0.4115 0.1673,0.7747 -0.6882,1.5226 -3.1215,1.7787 -3.4585,6.1349 1.5625,5.7559 -0.1393,1.6287 2.0833,2.1663 3.5343,0.3528 0.3502,-0.6345 1.36,-0.5768 1.4883,0 0.6459,2.1642 2.9452,1.3383 3.7576,-0.427 1.3051,-0.2978 2.2485,-1.0036 1.9515,-3.1091 1.3309,-0.1918 1.7441,-1.7624 1.8679,-3.2298 -2.0161,1.4563 -3.5158,1.5228 -4.3408,0.7353 -1.7103,-1.9765 -4.495,-1.5918 -5.4193,0.9715 -0.9759,2.4228 -4.8313,1.7216 -1.5784,-0.709 1.7176,-1.2301 2.2595,-2.6303 2.4203,-3.3872 z"
       id="path4066-4-6"
       inkscape:connector-curvature="0"
       sodipodi:nodetypes="ccccccccccccc" />
  </g>
</svg>
