<?xml version="1.0" encoding="UTF-8" standalone="no"?>
<!-- Created with Inkscape (http://www.inkscape.org/) -->

<svg
   xmlns:dc="http://purl.org/dc/elements/1.1/"
   xmlns:cc="http://creativecommons.org/ns#"
   xmlns:rdf="http://www.w3.org/1999/02/22-rdf-syntax-ns#"
   xmlns:svg="http://www.w3.org/2000/svg"
   xmlns="http://www.w3.org/2000/svg"
   xmlns:sodipodi="http://sodipodi.sourceforge.net/DTD/sodipodi-0.dtd"
   xmlns:inkscape="http://www.inkscape.org/namespaces/inkscape"
   width="674.21869"
   height="448.48453"
   id="svg7771"
   version="1.1"
   inkscape:version="0.48.4 r9939"
   sodipodi:docname="Wognum_vlag.svg">
  <defs
     id="defs7773" />
  <sodipodi:namedview
     id="base"
     pagecolor="#ffffff"
     bordercolor="#666666"
     borderopacity="1.0"
     inkscape:pageopacity="0.0"
     inkscape:pageshadow="2"
     inkscape:zoom="1.979899"
     inkscape:cx="135.39625"
     inkscape:cy="307.2048"
     inkscape:document-units="px"
     inkscape:current-layer="layer1"
     showgrid="false"
     fit-margin-top="0"
     fit-margin-left="0"
     fit-margin-right="0"
     fit-margin-bottom="0"
     inkscape:window-width="1600"
     inkscape:window-height="837"
     inkscape:window-x="-8"
     inkscape:window-y="-8"
     inkscape:window-maximized="1" />
  <metadata
     id="metadata7776">
    <rdf:RDF>
      <cc:Work
         rdf:about="">
        <dc:format>image/svg+xml</dc:format>
        <dc:type
           rdf:resource="http://purl.org/dc/dcmitype/StillImage" />
        <dc:title />
      </cc:Work>
    </rdf:RDF>
  </metadata>
  <g
     inkscape:label="Laag 1"
     inkscape:groupmode="layer"
     id="layer1"
     transform="translate(122.82364,-113.8342)">
    <rect
       style="fill:#0f47af;fill-opacity:1;fill-rule:evenodd;stroke:none"
       id="rect7736"
       width="674.21869"
       height="448.48441"
       x="-122.82364"
       y="113.83433" />
    <path
       style="fill:#078930;fill-opacity:1;stroke:none"
       d="m -122.82364,262.9895 0,148.9384 226.3745,150.3907 447.8442,0 0,-448.4844 -225.7685,0 225.7685,148.0504 0,152.4699 -450,-300.5203 -224.2187,0 674.2187,448.4844 -226.5625,0 z"
       id="path7738"
       inkscape:connector-curvature="0" />
    <path
       style="fill:#fcdd09;fill-opacity:1"
       d="m 172.94746,549.3391 c -5.1252,-2.228 -7.3996,-6.8305 -7.1741,-14.5174 0.1049,-3.575 0.1263,-7.0625 0.048,-7.75 -0.2774,-2.4226 -3.0845,-1.2057 -6.2206,2.6968 -1.7444,2.1707 -4.1281,4.0832 -5.2971,4.25 -1.9018,0.2713 -2.1132,0.9083 -2.0094,6.0532 0.064,3.1625 -0.1612,5.7483 -0.5,5.7463 -0.3388,0 -2.0567,-0.8822 -3.8175,-1.9558 -3.6277,-2.212 -6.2985,-6.6879 -6.2985,-10.5555 0,-3.6061 3.8249,-12.1786 5.8424,-13.0942 1.1311,-0.5133 0.069,-0.9689 -3.3424,-1.4344 -2.75,-0.3752 -6.4105,-1.0148 -8.1344,-1.4212 -2.7213,-0.6416 -3.6714,-0.2537 -7.2106,2.9437 l -4.0763,3.6827 -0.6944,-2.7668 c -1.0473,-4.1726 1.5552,-10.4531 5.4023,-13.0372 1.8076,-1.2141 5.5546,-2.694 8.3267,-3.2885 2.7722,-0.5945 5.9343,-1.5594 7.0271,-2.1442 1.8846,-1.0086 1.7778,-1.29 -2.0768,-5.4718 -2.2382,-2.4281 -4.0705,-5.4292 -4.0789,-6.6808 -0.01,-1.2498 -0.3459,-2.7674 -0.75,-3.3726 -1.1399,-1.7071 -5.3784,-3.7096 -9.2347,-4.363 l -3.5,-0.593 3.9821,-2.7219 c 5.0864,-3.4766 11.035,-3.6761 15.0659,-0.5054 1.5498,1.2191 4.1844,2.9066 5.8548,3.75 1.7881,0.903 3.8548,3.247 5.0259,5.7004 2.1817,4.5707 3.9899,5.3332 12.6471,5.3332 12.731,0 22.089,-4.8047 27.3197,-14.0266 7.5561,-13.3218 1.1419,-31.9734 -10.9955,-31.9734 l -3.3042,0 2.5696,4.9529 c 4.9942,9.6261 3.9083,19.191 -2.9315,25.8204 -3.3638,3.2603 -10.2196,6.2267 -14.391,6.2267 -3.4973,0 -4.0449,-2.66 -1.0349,-5.0276 3.7418,-2.9433 6.1029,-9.7589 4.6808,-13.5117 -1.2774,-3.3707 -4.8029,-7.4607 -6.431,-7.4607 -0.6014,0 -2.8264,-1.1776 -4.9445,-2.6168 -2.2641,-1.5385 -4.111,-2.2089 -4.4821,-1.6268 -0.3472,0.5444 -2.3815,2.172 -4.5207,3.6167 -5.0929,3.4396 -11.8867,3.5934 -16.6391,0.3769 -2.7498,-1.8611 -7.8378,-9.4807 -7.9432,-11.8953 -0.015,-0.3549 2.6554,0.074 5.9354,0.9525 5.5416,1.4848 6.2178,1.4767 9.5553,-0.1148 6.9631,-3.3205 7.4923,-9.0271 1.9424,-20.9477 -4.8402,-10.3964 -2.0266,-16.7447 7.4214,-16.7447 l 4.9736,0 2.1267,-5.684 c 1.1696,-3.1262 2.3873,-8.476 2.706,-11.8884 l 0.5794,-6.2043 -4.8842,-1.0312 c -2.6863,-0.5672 -10.0592,-1.7932 -16.3842,-2.7244 -28.1023,-4.1376 -48.999996,3.5117 -48.999996,17.9356 0,11.8207 10.854296,15.4202 24.932496,8.2681 3.8871,-1.9748 7.0675,-3.196 7.0675,-2.7139 0,1.8272 -4.2431,10.6724 -6.605,13.7691 -3.3907,4.4454 -10.2269,8.2293 -16.130896,8.9285 -4.5664,0.5408 -4.9059,0.7679 -4.4799,2.9963 0.2613,1.3671 -0.7057,5.0107 -2.2334,8.4148 -3.2879,7.3264 -2.9025,9.9341 2.5385,17.1754 3.4593,4.6038 3.7177,5.3093 2.1689,5.9221 -4.8353,1.9133 -9.5945,0.61 -14.5082,-3.973 l -2.75,-2.5649 0,3.0382 c 0,1.6709 1.125,5.154 2.5,7.74 1.375,2.586 2.5,4.9069 2.5,5.1576 0,1.0514 -11.8445,-0.9489 -15.8771,-2.6813 -2.4074,-1.0342 -4.4887,-1.8803 -4.625,-1.8803 -0.1364,0 -0.5064,1.2927 -0.8224,2.8726 -0.867,4.3351 -5.8933,8.7421 -11.6547,10.2187 -4.5318,1.1615 -5.0208,1.5606 -5.0208,4.0977 0,1.5461 -0.8441,3.5985 -1.8758,4.561 -9.3891,8.7594 -12.3074,9.953 -19.2956,7.8918 l -4.3286,-1.2768 3.0024,-1.5801 c 1.6513,-0.8691 3.7913,-2.452 4.7556,-3.5175 1.6201,-1.7902 1.6336,-2.1773 0.178,-5.0952 -0.8664,-1.7368 -1.2973,-4.0337 -0.9576,-5.1041 0.4298,-1.3542 -0.012,-2.2831 -1.451,-3.0534 -2.8906,-1.547 -4.0267,-0.499 -3.0711,2.8329 1.0516,3.6669 -0.3098,5.9843 -4.5584,7.7595 -3.6828,1.5388 -4.1517,3.2776 -2.4677,9.1495 1.083,3.7762 0.6861,3.9165 -3.6316,1.2839 -5.2539997,-3.2036 -6.4188997,-6.6278 -5.6512997,-16.6133 l 0.6641,-8.6396 -3.288,1.7003 c -3.1323,1.6198 -6.5431,1.6463 -10.1883,0.079 -1.1559,-0.497 -2.9578,0.4523 -5.8942003,3.1053 l -4.2295,3.821 0.4784,-5.7688 c 0.3839,-4.6295 1.0543,-6.374 3.3943,-8.8328 4.0586003,-4.2646 6.2732003,-5.2683 11.08110029,-5.0219 2.29090001,0.1174 4.40960001,-0.182 4.70830001,-0.6653 0.8777,-1.4201 -2.3184,-5.2046 -4.39540001,-5.2046 -1.04969999,0 -3.44609999,-1.35 -5.32529999,-3 -3.6731,-3.225 -8.1680003,-3.8952 -13.2264003,-1.972 -1.4871,0.5653 -2.8995,0.8322 -3.1388,0.5929 -0.758,-0.758 2.4184,-6.0238 5.2,-8.6209 2.2957,-2.1434 3.6287,-2.5027 9.3450003,-2.5191 6.96489999,-0.02 11.5293,1.4138 12.4925,3.9238 0.3121,0.8133 1.7189,2.2332 3.1262,3.1553 2.1057997,1.3798 2.8323997,1.4494 4.1049997,0.3932 1.2128,-1.0065 1.4098,-2.4881 0.9134,-6.8683 -0.7684,-6.7792 -4.2887997,-10.7125 -10.4727997,-11.7014 -2.19830001,-0.3515 -3.9969,-0.9487 -3.9969,-1.3272 0,-1.4138 7.8897,-5.0563 10.9519,-5.0563 4.0045997,0 6.2192997,1.188 12.8893997,6.9144 5.6541,4.8541 8.1587,8.5882 8.1587,12.1637 0,1.9896 0.3542,2.1209 4.105,1.5211 9.4062,-1.5041 13.2398,-5.7467 15.0395,-16.6442 1.1261,-6.8185 1.0803,-7.4026 -0.6569,-8.3918 -3.1739,-1.8072 -7.481,-6.9049 -8.7138,-10.3132 -0.6466,-1.7875 -1.8727,-3.2698 -2.7247,-3.2939 -0.852,-0.024 -3.2242,-0.6418 -5.2715,-1.3727 l -3.7224,-1.3288 -2.1502,4.4417 c -4.9628,10.2517 -11.0152,14.3037 -21.3651997,14.3037 -5.56560001,0 -6.5383,-0.2607 -6.5296,-1.75 0.01,-1.0821 1.49489999,-2.3733 3.9004,-3.3832 2.1396,-0.8983 4.6506,-2.7936 5.5799,-4.2119 1.9349997,-2.9533 3.0322997,-9.4481 2.1700997,-12.8445 -0.5074997,-1.9991 -1.2423997,-2.323 -5.4538997,-2.4037 -8.8744,-0.17 -14.3595,-5.3552 -15.7690003,-14.9067 l -0.7378,-5 4.1529003,3.75 c 7.55139999,6.8187 13.9592,4.0185 18.6008997,-8.1288 4.2793,-11.1988 9.7202,-14.3174 17.7116,-10.1521 l 4.2319,2.2058 2.0081,-2.8375 c 8.2984,-11.7252 21.569,-17.2725 38.0754,-15.916 4.4106,0.3625 9.8193,1.0931 12.0193,1.6236 11.4878,2.77 45.724196,5.0193 46.921096,3.0826 1.0561,-1.7088 -12.8894,-6.9516 -28.2145,-10.6072 -11.756896,-2.8045 -20.493496,-8.3559 -27.386596,-17.4021 l -2.5769,-3.3817 -4.3715,3.0255 c -6.1279,4.2409 -8.4144,6.9463 -11.1999,13.2516 l -2.4236,5.4863 -1.7475,-6.2203 c -1.689,-6.0123 -1.8176,-6.1711 -3.8465,-4.75 -1.1545,0.8087 -3.2989,1.4703 -4.7653,1.4703 -2.231,0 -2.7685,0.5451 -3.2928,3.3401 -0.679,3.6191 -3.7661,7.0267 -7.3509,8.1139 -2.7872,0.8453 -3.9028,-1.3566 -2.251,-4.4429 0.9118,-1.7038 0.82,-2.6459 -0.4461,-4.5782 -2.1291,-3.2494 -2.8695,-3.0788 -4.873,1.1224 -1.7197,3.6064 -6.4289,6.4447 -10.6925,6.4447 -3.8481,0 -8.0153997,2.9143 -8.6410997,6.0431 -0.3966,1.983 -1.194,2.9569 -2.4211,2.9569 -2.3745,0 -3.4594,-5.3882 -2.0862,-10.3614 1.2521,-4.5347 0.01,-4.7384 -3.64790001,-0.5983 -8.68109999,9.8255 -12.21420029,12.8743 -15.67030029,13.5227 -1.9851,0.3724 -3.8794,0.4069 -4.2096,0.077 -0.3302,-0.3303 -0.6468,-3.9642 -0.7034,-8.0754 -0.1024,-7.4369 -0.1156,-7.4722 -2.6029,-6.9129 -1.375,0.3091 -4.377,1.437 -6.6711,2.5063 -3.3836,1.5773 -4.4219,2.7329 -5.5,6.1214 -0.7455,2.3435 -2.265,4.6405 -3.4614,5.2327 -1.1729,0.5805 -3.3435,2.4948 -4.8237,4.2538 -3.3745,4.0104 -8.9433,5.8116 -14.1562,4.5788 l -3.8324,-0.9063 3.7735,-2.3321 c 5.2828,-3.265 7.157,-6.3299 5.6231,-9.1959 -0.7611,-1.4222 -0.96,-4.1829 -0.5517,-7.6568 0.4887,-4.1588 0.3408,-5.335 -0.6308,-5.0159 -0.6981,0.2293 -1.4085,1.5868 -1.5787,3.0166 -0.7115,5.9792 -7.1795,6.0092 -12.0866,0.056 -5.9091,-7.1688 -4.4716,-12.2013 4.396,-15.3899 l 3,-1.0788 -3.9286,-1.9207 c -6.095,-2.9798 -9.1725,-2.38 -14.8214,2.8887 -2.503,2.3345 -2.7495,2.3909 -2.7444,0.6278 0.019,-6.6149 4.6935,-13.8215 9.7958,-15.1021 1.3684,-0.3435 3.3229,-1.4593 4.3433,-2.4797 1.3028,-1.3028 3.3162,-1.8553 6.7605,-1.8553 l 4.9051,0 -0.5299,-5.8448 c -0.4626,-5.101 -0.2537,-6.1022 1.6415,-7.8678 l 2.1714,-2.023 -2.6396,-3.137 -2.6396,-3.137 -4.4997,5.0048 c -4.0838,4.5421 -4.8998,5.0048 -8.8271,5.0048 -3.9981,0 -4.7103,0.4297 -9.3613,5.648 -9.2287,10.3543 -14.9858,25.9101 -15.0911,40.7763 l -0.035,4.9243 -2.599,-2.4243 c -5.986104,-5.5838 -10.286504,-19.5197 -10.366104,-33.5925 -0.033,-5.7973 0.3097,-6.7206 5.6938,-15.3513 4.063304,-6.5135 5.644004,-9.9905 5.437304,-11.9605 -0.2276,-2.1699 1.7438,-5.5474 9.0127,-15.4413 9.9962,-13.6061 9.1981,-13.1789 11.7014,-6.2638 0.538,1.4861 1.6342,0.5954 6.0517,-4.9171 l 5.3947,-6.732 -1.0764,-5.0829 -1.0764,-5.0829 8.3026,-8.5 8.3025,-8.5 -1.8841,-3 c -1.0363,-1.65 -1.8865,-3.8098 -1.8894,-4.7997 -0.01,-3.4892 2.9554,-7.5566 6.4243,-8.811 3.0128,-1.0894 3.381,-1.5863 2.9123,-3.9297 -0.6295,-3.1475 1.8254,-8.4436 4.6027,-9.93 1.0582,-0.5663 3.0785,-1.0296 4.4897,-1.0296 1.8922,0 2.5657,-0.5208 2.5657,-1.9842 0,-1.0913 1.3133,-3.4538 2.9183,-5.25 2.6274,-2.9402 3.4683,-3.2658 8.4332,-3.2658 4.7211,0 5.9502,-0.4169 8.5394,-2.8965 2.6737,-2.5607 3.0583,-3.6542 3.3168,-9.4306 l 0.2923003,-6.5341 9.99999999,-7.2987 c 5.50000001,-4.0144 10.31159971,-7.3081 10.69249971,-7.3194 0.3809,-0.011 0.8309,1.8813 1,4.2059 l 0.3075,4.2265 10.5,-11.7189 10.5,-11.719 16,0.019 16,0.019 -3.1657,2.7231 c -1.7412,1.4977 -8.6431,7.6696 -15.3376,13.7153 l -12.1719,10.9922 3.1383,0.6419 c 1.7261,0.353 3.3303,0.8338 3.5649,1.0684 0.2346,0.2346 -4.4357,6.0243 -10.3785,12.8659 l -10.8051,12.4394 -5.4222,-0.2707 -5.4221997,-0.2707 -5.75,6.6815 c -7.4611,8.6698 -7.5708,10.853 -0.7951,15.8268 6.6981,4.9169 9.8414997,8.8647 10.5998997,13.3125 1.4434,8.4645 2.7674,11.6149 6.6536,15.8308 4.3469,4.7158 14.1381,11.1905 24.8053,16.4031 l 6.5136,3.1829 6.0677,-3.6145 c 7.6039,-4.5296 15.5641,-7.3531 24.9333,-8.8438 l 7.2855,-1.1592 -1.9069,-2.4242 c -1.0488,-1.3333 -1.9069,-3.6611 -1.9069,-5.1729 0,-2.6523 0.234,-2.7737 6.6753,-3.4635 5.5345,-0.5927 7.1788,-1.2184 9.621796,-3.6613 1.6206,-1.6206 2.7405,-3.1525 2.4888,-3.4043 -0.8289,-0.8288 -11.154396,3.1952 -21.305896,8.3033 -11.9116,5.9937 -17.3142,7.0157 -25.1085,4.7499 -7.0784,-2.0578 -13.3216,-8.1386 -18.8439,-18.354 -2.1849,-4.0415 -5.3173,-8.4798 -6.9609,-9.8629 -2.6536,-2.2328 -3.5859,-2.4444 -8.3201,-1.888 -5.1415,0.6043 -5.2926,0.5537 -4.2372,-1.4184 1.6085,-3.0054 8.6999,-7.827 13.3552,-9.0806 4.9817,-1.3414 10.2532,0 13.4705,3.4226 1.2184,1.297 3.0556,5.2966 4.0827,8.8881 2.4292,8.4945 4.3259,11.243 9.4808,13.7384 4.7813,2.3146 8.705,2.5554 15.1586,0.9304 5.1925,-1.3075 5.5313,-2.267 1.5311,-4.3356 -5.3171,-2.7496 -7.2408,-6.2754 -6.9752,-12.7842 0.14,-3.4291 -0.2445,-6.2929 -0.9379,-6.9863 -2.3592,-2.3592 -1.2106,-4.5384 3.5748,-6.782 7.501,-3.5169 9.811,-5.5845 11.1198,-9.9531 4.0054,-13.3685 20.101796,-18.002 34.940096,-10.0578 14.4829,7.7539 18.3692,9.297 23.5372,9.3455 2.962,0.028 6.492,-0.6582 8.3023,-1.6134 2.7123,-1.4311 3.3135,-1.464 4.3318,-0.2371 0.9409,1.1338 0.5735,2.3024 -1.7996,5.7237 -1.64,2.3644 -4.3554,5.6002 -6.0342,7.1906 -2.9127,2.7593 -2.9855,3.0208 -1.5907,5.718 2.1615,4.1799 6.1917,7.538 12.1295,10.1065 2.9038,1.2562 5.2874,2.7998 5.2967,3.4303 0.027,1.7991 -6.8565,7.3783 -9.8388,7.9748 l -2.692,0.5384 0.1903,10.6702 c 0.1046,5.8686 0.2279,11.0595 0.2739,11.5353 0.046,0.4758 1.7356,2.3782 3.7545,4.2275 3.2988,3.0216 3.5568,3.6125 2.5455,5.8319 -1.5869,3.4829 -5.198,5.5584 -10.1551,5.8366 l -4.2558,0.2389 0.4268,5.2161 c 0.2653,3.2427 1.6185,7.4897 3.5769,11.2257 3.0209,5.7632 3.0716,6.0517 1.2363,7.0339 -3.848,2.0594 -8.6884,1.1798 -13.4315,-2.4406 -2.7253,-2.0803 -4.7951,-3.051 -5.1795,-2.429 -1.4466,2.3407 0.782,10.0242 4.2104,14.5156 4.7821,6.2649 3.3224,7.8252 -3.8728,4.1396 -2.8611,-1.4656 -5.3927,-2.4739 -5.6259,-2.2408 -0.8281,0.8282 6.4492,11.8128 12.6947,19.1619 16.1732,19.0309 39.843,30.1599 77.3158,36.3522 15.1202,2.4986 20.4513,4.1743 25.9483,8.1564 6.2797,4.5489 12.3337,6.9192 17.7808,6.9614 8.44,0.065 12.3143,-4.379 12.3143,-14.1261 0,-10.1916 -3.6798,-19.9765 -12.8351,-34.1291 -5.9762,-9.2383 -12.4603,-22.4275 -15.6812,-31.8972 -3.9546,-11.627 -5.5916,-23.6167 -6.6276,-48.5432 -0.6481,-15.5915 -1.4524,-24.5339 -2.5071,-27.8723 -3.265,-10.3346 -9.7822,-18.1862 -17.1001,-20.6014 -5.3227,-1.7566 -16.975,-0.7985 -22.0731,1.815 -10.3338,5.2975 -12.7474,14.4538 -7.7737,29.4898 1.7468,5.2806 2.1698,5.3558 9.3979,1.6714 7.9462,-4.0504 13.0508,-12.0957 13.9246,-21.9463 l 0.5754,-6.487 3.4252,5.3475 c 7.1836,11.2154 7.367,23.0343 0.4646,29.9367 l -3.3788,3.3788 4.267,4.1555 c 5.484,5.3405 7.5322,9.7824 8.688,18.8412 1.5571,12.2035 5.0856,19.5823 12.2672,25.6532 3.0271,2.559 3.1738,2.9695 1.8231,5.1042 -0.7536,1.1911 -1.3849,1.2282 -3.6139,0.2126 -1.4855,-0.6768 -2.8669,-1.0645 -3.07,-0.8615 -0.203,0.203 0.755,3.1355 2.1289,6.5166 14.22,34.9957 -8.6246,52.6957 -43.3655,33.5997 -3.5725,-1.9637 -9.1619,-5.6719 -12.4209,-8.2404 -10.9277,-8.6125 -11.9293,-9.1701 -16.4719,-9.1701 -5.3322,0 -8.377,1.9215 -11.9207,7.5228 -1.5085,2.3844 -3.0981,4.1157 -3.5325,3.8473 -0.4344,-0.2685 -0.7891,-4.3991 -0.7882,-9.1791 0,-14.2896 4.212,-19.6978 15.3199,-19.6825 3.3982,0.01 6.966,0.3903 7.9285,0.857 1.4558,0.7058 1.7509,0.3682 1.7556,-2.0085 0.01,-5.2494 2.0663,-10.3622 5.58,-13.8759 1.9146,-1.9146 3.8539,-3.4811 4.3096,-3.4811 0.4558,0 1.1378,3.0175 1.5156,6.7056 1.1565,11.2881 8.5371,26.9619 15.1428,32.1579 1.4091,1.1084 4.5868,2.7885 7.0616,3.7336 4.2126,1.6088 4.7228,1.6121 7.9952,0.052 4.8763,-2.3253 7.3393,-8.081 7.3676,-17.2172 0.012,-3.8877 -0.6523,-9.3393 -1.4766,-12.1147 l -1.4985,-5.0462 -4.7515,2.4473 c -6.4705,3.3328 -13.9346,2.7544 -21.6857,-1.6803 -3.0379,-1.7381 -5.715,-3.4701 -5.9491,-3.8489 -0.2341,-0.3788 2.7939,-0.6915 6.7289,-0.695 8.5059,-0.01 14.9592,-2.6177 15.4762,-6.2597 0.5522,-3.8908 -7.8052,-15.6169 -23.6866,-33.234 -12.3326,-13.6805 -14.5337,-18.3194 -13.9273,-29.3521 0.3439,-6.2571 1.1104,-9.5403 3.303,-14.1479 3.6922,-7.7591 12.6364,-16.7435 20.1937,-20.2845 5.0327,-2.3581 7.0487,-2.7155 15.3172,-2.7155 8.7106,0 10.0809,0.2753 16.0853,3.2316 14.438,7.1085 24.1032,19.4254 27.8954,35.5486 l 1.6981,7.2198 2.096,-4 c 5.504,-10.5037 15.5301,-20.0553 24.1316,-22.9895 9.6779,-3.3013 19.7497,-0.659 27.1102,7.1123 3.2843,3.4676 3.3335,3.6213 0.9617,2.9984 -6.4927,-1.705 -14.6467,-1.8553 -17.6071,-0.3244 -3.2565,1.684 -11.3929,10.026 -11.3929,11.6809 0,0.5622 1.9281,1.0223 4.2847,1.0223 2.3565,0 6.8642,0.9066 10.017,2.0148 6.8717,2.4152 9.5972,1.9539 15.6124,-2.6421 7.6447,-5.8411 8.5312,-4.0123 3.2093,6.6206 -4.9002,9.7903 -5.7186,14.7522 -4.1239,25.0033 1.8532,11.9128 1.1773,13.8723 -8.0291,23.2787 -8.6338,8.8214 -10.9704,13.4864 -10.9704,21.9028 0,4.0498 -0.3005,4.8219 -1.8769,4.8219 -2.8481,0 -6.3677,-9.0318 -6.4226,-16.4819 -0.055,-7.4247 2.3342,-13.0256 8.68,-20.3498 5.3592,-6.1854 5.8045,-9.0889 1.8695,-12.1913 -2.3443,-1.8483 -3.7425,-2.1126 -9.4768,-1.7912 -6.0636,0.3398 -7.0752,0.7146 -10.2598,3.8012 -4.0447,3.9203 -5.5049,8.1747 -5.4959,16.013 0.011,9.7092 2.9453,17.825 10.485,29 10.9207,16.1864 13.2838,27.1101 7.9747,36.8645 l -2.5938,4.7657 2.0722,5.257 c 3.084,7.8243 4.2989,18.1946 2.9822,25.4558 -1.1693,6.4483 -3.7908,12.4601 -6.3647,14.5963 -2.2653,1.8801 -1.9659,2.8062 1.4839,4.5902 1.6814,0.8694 4.3814,3.6691 6,6.2214 5.696,8.9816 2.978,18.6621 -6.4891,23.1122 -5.8461,2.748 -6.9823,2.727 -6.1104,-0.1131 1.7186,-5.5981 1.7848,-11.7312 0.1535,-14.2209 -2.6723,-4.0785 -8.6585,-6.5291 -15.949,-6.5291 -3.547,0 -8.0847,-0.6965 -10.1444,-1.5571 -2.0496,-0.8564 -7.7337,-5.5338 -12.6313,-10.3942 -10.0385,-9.9623 -15.4492,-13.0487 -22.8754,-13.0487 -2.756,0 -4.9985,0.3375 -4.9833,0.75 0.015,0.4125 2.7544,2.55 6.0872,4.75 7.2115,4.7603 14.1889,12.1825 17.3491,18.4549 1.2594,2.4998 3.2472,8.3509 4.4172,13.0023 3.6487,14.5049 9.3984,20.5748 18.6189,19.6558 2.75,-0.2741 7.4606,-1.1991 10.4679,-2.0557 5.4419,-1.5499 17.4354,-2.1072 20.4503,-0.9503 0.87,0.3338 1.5818,1.4182 1.5818,2.4096 0,1.4523 -1.3569,2.0316 -6.9816,2.9803 -8.6335,1.4562 -12.7344,4.121 -16.2126,10.5349 -3.078,5.6761 -7.0277,9.4682 -9.8616,9.4682 -2.5419,0 -2.4653,0.4502 0.8058,4.7389 2.303,3.0194 2.75,4.5933 2.7497,9.6833 -3e-4,5.3316 -0.42,6.6568 -3.4185,10.7937 -3.2237,4.4476 -3.353,4.9335 -2.2727,8.5392 0.63,2.1028 3.1715,6.7306 5.6477,10.2841 l 4.5023,6.4608 -5.3328,0.2955 c -3.1417,0.1741 -7.1392,-0.3667 -9.7292,-1.3162 -8.2525,-3.0255 -7.8965,-3.0608 -7.8965,0.7819 0,1.922 0.6612,5.077 1.4693,7.0111 l 1.4694,3.5166 -3.7194,0.6846 c -2.0456,0.3765 -5.6261,1.5212 -7.9566,2.5437 -3.6583,1.6051 -4.4,2.4675 -5.4282,6.3119 l -1.191,4.4529 -5.5975,0.6333 -5.5975,0.6333 -0.1139,4.2257 c -0.1505,5.5818 -1.8622,14.9744 -3.1764,17.4301 -1.587,2.9653 -3.6062,4.3252 -8.6975,5.8575 l -4.6323,1.3941 1.9792,-3.3545 c 1.0886,-1.845 2.2735,-4.6944 2.6332,-6.332 0.5431,-2.4726 0.2229,-3.2598 -1.8882,-4.6431 -1.3982,-0.9161 -3.237,-3.3286 -4.0862,-5.361 -2.4747,-5.9228 -5.0856,-6.7371 -9.0118,-2.8108 -1.7824,1.7822 -2.4546,3.5426 -2.4546,6.4274 0,3.0466 -0.5828,4.4313 -2.5,5.9393 -3.1631,2.4881 -3.1544,4.7513 0.036,9.4466 l 2.5361,3.7321 -2.786,-0.039 c -1.5324,-0.021 -4.2397,-0.6711 -6.0164,-1.4434 z m 1.8113,-4.366 c -0.5945,-1.111 -1.081,-4.2995 -1.081,-7.0857 0,-3.4898 -0.4044,-5.0657 -1.3,-5.0657 -4.643,0 -5.0615,7.7923 -0.6551,12.1987 3.2677,3.2677 4.7975,3.2439 3.0361,-0.047 z m 29.8944,-4.8472 c 1.5381,-1.9554 2.0386,-3.8092 1.8225,-6.75 -0.256,-3.4839 -0.6496,-4.0953 -2.7979,-4.3465 -2.4577,-0.2873 -2.5,-0.1731 -2.5,6.75 0,3.8733 0.3048,7.0423 0.6774,7.0423 0.3726,0 1.6317,-1.2131 2.798,-2.6958 z m -53.9247,-10.8653 c 1.6577,-1.9974 -0.1142,-3.8709 -2.8421,-3.0051 -3.4697,1.1012 -4.3335,8.5259 -1.4652,12.5937 l 1.7435,2.4725 0.6496,-5.2687 c 0.3573,-2.8977 1.2187,-5.9543 1.9142,-6.7924 z m 29.3248,-4.8892 c 2.1089,-3.2187 6.8341,-5.4234 10.2315,-4.774 2.642,0.505 6.393,4.5924 6.393,6.9662 0,1.0456 0.507,1.2361 1.75,0.6576 0.9625,-0.448 3.4375,-0.8117 5.5,-0.8083 3.425,0.01 3.75,-0.2319 3.75,-2.7416 0,-1.9922 -1.0123,-3.518 -3.6812,-5.5487 l -3.6811,-2.8009 9.3627,-0.5 c 9.312,-0.4973 9.367,-0.5156 10.1297,-3.3807 1.158,-4.3499 4.6518,-7.4483 10.4652,-9.2809 5.0369,-1.5877 5.1985,-1.7495 4.24,-4.2445 -0.5628,-1.4651 -0.7071,-5.3337 -0.3314,-8.8894 l 0.665,-6.2955 4.1656,2.4352 c 4.6399,2.7126 12.3699,5.2847 13.2469,4.4078 0.3126,-0.3127 -0.5545,-2.2973 -1.927,-4.4102 -1.3725,-2.113 -3.0392,-5.7102 -3.7039,-7.9939 -1.1148,-3.8305 -1.0069,-4.4888 1.3932,-8.5 5.1936,-8.6801 5.8522,-10.7242 4.6394,-14.3991 -0.6135,-1.8588 -3.1568,-5.6502 -5.6519,-8.4254 -5.7388,-6.3828 -5.3489,-8.1681 1.6037,-7.3447 5.8954,0.6982 7.5229,-0.2831 9.7657,-5.8884 0.8413,-2.1027 3.6153,-5.673 6.1645,-7.934 2.7583,-2.4466 3.8252,-3.8799 2.6349,-3.5403 -1.1,0.3139 -4.6518,1.3219 -7.8929,2.2399 -15.0442,4.2611 -24.5169,-3.5542 -29.1574,-24.0559 -0.8714,-3.85 -2.6329,-8.8 -3.9144,-11 -3.3221,-5.7034 -10.8102,-12.7662 -19.7853,-18.6615 -4.2625,-2.7999 -7.75,-5.395 -7.75,-5.767 0,-1.3101 9.5542,-4.0813 14.0537,-4.0765 6.9859,0.01 14.0856,4.1609 25.0529,14.6559 5.3195,5.0905 10.7342,9.4762 12.0326,9.7462 1.2985,0.2699 5.5896,0.6785 9.536,0.908 12.4884,0.7261 19.3248,6.6633 19.3248,16.7831 l 0,4.286 3,-2.8742 c 2.3931,-2.2927 3,-3.7168 3,-7.0392 0,-7.8011 -6.2975,-14.1977 -15.1123,-15.3501 l -5.3877,-0.7043 5.2472,-2.7186 c 12.0206,-6.228 15.1897,-21.0782 8.6394,-40.4834 l -2.6497,-7.8497 2.7982,-4.2284 c 2.2643,-3.4216 2.7899,-5.3157 2.7547,-9.9274 -0.053,-6.9067 -2.2932,-12.3292 -9.9437,-24.0661 -8.4222,-12.9208 -10.7202,-19.57 -10.7597,-31.1328 -0.034,-9.9828 1.6061,-15.1536 6.0938,-19.2119 6.7765,-6.128 20.2576,-6.451 26.4843,-0.6345 4.3744,4.0864 3.6453,8.8937 -2.4376,16.0716 -7.0557,8.3257 -9.7908,15.4678 -8.2408,21.5182 0.6719,2.6229 0.805,2.4935 2.745,-2.6678 1.5144,-4.0292 3.926,-7.2994 9.3757,-12.7139 4.0353,-4.0092 7.6332,-8.4697 7.9953,-9.9123 0.362,-1.4425 0.1327,-6.5213 -0.5097,-11.2861 -1.2343,-9.1554 -0.5602,-15.7147 2.3246,-22.6188 1.4247,-3.4098 1.4074,-3.5209 -0.398,-2.5546 -2.8488,1.5246 -10.291,1.2129 -14.6469,-0.6134 -3.0214,-1.2668 -5.6793,-1.4856 -12.0985,-0.996 l -8.2264,0.6275 3.0924,-5.254 c 6.7366,-11.4454 12.0808,-16.2859 19.2457,-17.4316 3.237,-0.5176 3.6509,-0.7993 2.0784,-1.4141 -4.061,-1.5877 -11.8999,-0.9185 -16.9865,1.4502 -7.4212,3.4558 -16.6326,13.9945 -21.9656,25.1306 -4.8158,10.0561 -4.2207,10.388 -7.0886,-3.9542 -1.8767,-9.3849 -3.9942,-16.0692 -6.1886,-19.5349 -3.2678,-5.1612 -8.8828,-11.2464 -13.2344,-14.3427 -8.0879,-5.7547 -12.5102,-7.1593 -22.4746,-7.1381 -7.9163,0.017 -9.6813,0.3623 -14.3629,2.8112 -7.3085,3.823 -13.2382,10.0467 -17.1578,18.0086 -2.7124,5.5095 -3.3002,7.8776 -3.3328,13.4252 -0.053,8.9592 2.2319,13.6925 11.4673,23.7591 17.4066,18.9734 26.8608,31.9848 26.8608,36.9677 0,3.84 -3.785,7.6801 -9.5,9.6384 l -4,1.3706 5.341,0.3054 c 6.4778,0.3704 9.6816,-1.4185 11.8547,-6.6194 l 1.5286,-3.6585 2.3938,4.7102 c 7.5502,14.8564 7.0172,33.4853 -1.1637,40.6682 -2.8868,2.5346 -4.3766,3.0901 -8.2392,3.0721 -5.8754,-0.027 -11.8444,-2.6739 -16.4754,-7.3049 -4.5458,-4.5457 -11.3292,-18.065 -12.9138,-25.7369 -0.6744,-3.2649 -1.5139,-5.9362 -1.8656,-5.9362 -1.2059,0 -2.9604,5.0947 -2.9604,8.5967 0,1.9264 0.618,4.7178 1.3733,6.203 3.6426,7.1623 3.2309,7.5472 -3.4523,3.2277 -4.8689,-3.147 -7.1918,-4.0274 -10.6257,-4.0274 -7.9002,0 -11.0644,2.9019 -12.8122,11.75 -0.3531,1.7875 -0.4012,3.25 -0.107,3.25 0.2943,0 2.1929,-1.125 4.219,-2.5 4.3467,-2.9498 10.8858,-3.3369 15.5575,-0.9211 1.6793,0.8684 6.6699,4.4387 11.0901,7.9339 23.1784,18.328 46.3369,21.4314 52.8534,7.0827 3.6284,-7.9893 2.2366,-17.5686 -4.7188,-32.4794 -2.4075,-5.1611 -4.3773,-9.5375 -4.3773,-9.7252 0,-0.1878 1.1874,0.11 2.6387,0.6618 3.2829,1.2482 4.1643,0.5077 2.1384,-1.7966 -3.2536,-3.7004 -5.8285,-10.4974 -6.8109,-17.9785 -1.8642,-14.1967 -5.0034,-19.1955 -15.7399,-25.0642 l -5.2737,-2.8826 4.2014,-1.2588 c 6.1303,-1.8367 8.4819,-3.7049 10.2612,-8.1517 1.8727,-4.6803 1.9596,-7.0361 0.4583,-12.4203 l -1.1154,-4 -2.2777,5.1487 c -3.9755,8.9862 -14.6523,17.3365 -22.6414,17.7077 -2.9155,0.1355 -3.2315,-0.2233 -5.5972,-6.3564 -1.8184,-4.7143 -2.5373,-8.5853 -2.6169,-14.0907 -0.098,-6.8052 0.2034,-8.0972 2.916,-12.4847 2.313,-3.7411 4.4141,-5.6043 8.9195,-7.9093 5.2758,-2.6991 6.8453,-3.0153 14.9667,-3.0153 6.9355,0 9.9837,0.4521 12.9389,1.919 4.9984,2.4811 10.2476,7.9122 13.126,13.581 4.7846,9.4228 5.6296,14.4151 6.5166,38.5 1.407,38.2017 5.8551,53.3153 23.7659,80.752 10.0611,15.412 13.9902,33.4084 9.3008,42.6005 -1.1858,2.3243 -3.6003,5.1066 -5.3656,6.183 -6.2699,3.8229 -18.8357,1.7838 -26.8967,-4.3646 -5.7508,-4.3863 -11.7449,-6.448 -25.313,-8.7065 -25.0911,-4.1765 -42.3841,-9.7915 -58,-18.8327 -11.5009,-6.6586 -26.301,-21.6903 -33.3775,-33.8997 -2.9544,-5.0973 -5.7771,-9.5185 -6.2728,-9.8249 -0.4956,-0.3063 -3.4166,-0.8165 -6.491,-1.1338 -5.3203,-0.5491 -5.558,-0.4767 -4.9302,1.5015 1.0148,3.1973 -1.7364,8.509 -6.264996,12.0957 -4.6998,3.7223 -5.9824,7.8616 -4.3855,14.1529 1.1499,4.5303 1.2667,4.476 -5.3807,2.5019 -5.0497,-1.4995 -7.4142,-3.1888 -11.199,-8.0004 l -2.1157,-2.6897 -3.3452,2.5515 c -8.3788,6.3908 -18.8643,7.4636 -28.9056,2.9573 -4.1103,-1.8446 -5.8211,-3.1429 -5.6001,-4.25 0.2383,-1.1935 1.2592,-1.511 4.0629,-1.2636 3.1751,0.2802 4.2358,-0.1863 6.975,-3.0681 5.5673,-5.8571 8.7304,-9.5591 8.7304,-10.2178 0,-1.2832 -7.6261,0.7512 -11.8285,3.1554 -2.3807,1.362 -4.6307,2.1742 -5,1.8049 -0.3693,-0.3693 -0.6715,-2.5839 -0.6715,-4.9213 l 0,-4.2499 -4.4038,1.9481 c -3.1327,1.3857 -5.6119,1.7824 -8.5892,1.3743 -3.9685,-0.5439 -4.3361,-0.3706 -7.0961,3.3462 -3.9957,5.3807 -7.177,6.4848 -18.9108997,6.5636 -14.4197003,0.097 -14.1486003,0.029 -19.2928003,4.7945 -6.1991,5.7423 -8.1083,6.6397 -14.1257,6.6397 -4.1669,0 -5.621,-0.5103 -8.3157,-2.9182 -2.8784,-2.5721 -3.2448,-3.4711 -3.0891,-7.5789 0.122,-3.2174 -0.1877,-4.5221 -1,-4.2132 -0.6472,0.2461 -2.1892,0.071 -3.4267,-0.3889 -1.6548,-0.6151 -2.25,-1.6385 -2.25,-3.8686 0,-1.6677 -0.4855,-3.0322 -1.0789,-3.0322 -0.703,0 -0.9644,2.5264 -0.75,7.25 l 0.3289,7.25 -5,0.1389 c -2.75,0.076 -5.3479,0.1889 -5.7731,0.25 -0.4251,0.061 -0.05,1.2141 0.833,2.5621 0.8843,1.3496 1.3325,3.3126 0.9975,4.3681 -0.4639,1.4618 0.093,2.2077 2.3452,3.1406 6.0161,2.4919 4.8379,5.9693 -2.8923,8.5369 -2.6597,0.8834 -5.0879,2.2634 -5.3962,3.0666 -0.7961,2.0747 1.2787,6.1365 4.0683,7.9643 2.8188,1.847 4.3176,1.1921 4.3176,-1.8865 0,-2.9848 1.812,-4.641 5.0776,-4.641 3.9647,0 5.2714,2.1868 4.476,7.4909 -0.6734,4.4905 -0.6638,4.5091 2.3125,4.5091 2.0377,0 3.6483,0.8384 5.0613,2.6349 l 2.0726,2.6348 0,-2.5 c 0,-5.6329 8.1,-10.9182 18.9357,-12.3556 l 5.3541,-0.7102 -0.6648,2.898 c -3.5904,15.6521 -0.6861,16.923 9.7525003,4.2679 5.81499999,-7.0498 9.1803,-8.6453 14.944,-7.0851 l 2.8215997,0.7637 -2.0715997,2.6335 c -2.8359,3.6054 -2.6252,3.9474 1.3963997,2.2671 1.9073,-0.797 4.5466,-1.449 5.8651,-1.449 3.7563,0 7.3619,-3.5653 9.1989,-9.0962 l 1.6843,-5.0708 3.018,2.8335 c 1.6599,1.5584 3.8356,4.6247 4.8348,6.814 1.4586,3.1956 1.9507,3.6317 2.4956,2.2117 0.3733,-0.9728 0.3937,-3.5516 0.045,-5.7305 -0.3484,-2.1789 -0.4703,-3.9617 -0.2709,-3.9617 0.1994,0 1.7877,0.4968 3.5295,1.104 4.3411,1.5133 7.6915,0.4495 9.794,-3.1097 2.2935,-3.8826 3.1003,-3.7759 3.9056,0.5167 0.8572,4.5695 1.8332,5.0517 3.8855,1.9195 1.5733,-2.4012 14.405,-11.4305 16.2441,-11.4305 0.4661,0 1.7008,1.5845 2.7437,3.5211 2.4067,4.4688 10.1113,11.7083 15.1666,14.2508 4.48,2.2532 8.001096,3.3571 18.197696,5.7051 21.7566,5.0101 39.6035,17.4385 47.1832,32.858 6.0227,12.2522 6.1451,23.9315 0.3851,36.7664 -2.6303,5.8612 -2.8196,6.0376 -5.8645,5.4664 -1.7305,-0.3247 -4.5781,-0.091 -6.328,0.5188 -2.6682,0.9301 -3.1814,1.6176 -3.1807,4.2612 4e-4,1.7337 1.3504,6.0051 3,9.492 2.094,4.4263 2.9992,7.8573 2.9992,11.3676 0,4.5071 -0.4021,5.43 -3.8823,8.9102 -3.7706,3.7706 -6.942,4.7199 -13.1177,3.9267 -0.9684,-0.1244 -0.5636,0.762 1.1421,2.5009 5.2014,5.3026 15.0586,2.6877 17.4869,-4.6389 1.2489,-3.7684 4.371,-5.2931 4.371,-2.1346 0,2.4074 2.1446,4.3107 8.5,7.544 6.4307,3.2716 9.6667,8.0138 9.6667,14.1661 0,2.6193 -0.7193,5.7126 -1.6633,7.1533 -2.152,3.2844 -1.4268,3.8938 2.3248,1.9537 4.2001,-2.1719 7.3496,-6.9868 7.9283,-12.1206 0.6584,-5.8416 5e-4,-7.9868 -4.6608,-15.1989 l -3.9693,-6.1412 5.333,-0.6663 c 7.26,-0.9071 11.0736,0.1214 15.5946,4.2059 4.9807,4.4998 7.4659,11.0144 7.3749,19.3323 -0.2086,19.0491 -16.362,31.4607 -38.5385,29.6112 -9.5249,-0.7943 -10.8904,-1.2688 -10.8904,-3.7839 0,-1.5945 -1.3906,-5.258 -2.5137,-6.6222 -0.1335,-0.1622 -1.6958,1.1582 -3.4717,2.9342 l -3.2291,3.229 2.6228,1.9106 c 5.6966,4.1496 5.2288,8.972 -1.1258,11.6041 -2.5224,1.0448 -2.8231,1.6118 -2.468,4.6534 0.3682,3.1545 0.6931,3.4636 3.6399,3.4636 4.392,0 7.1529,2.9968 5.5391,6.0122 -0.9924,1.8543 -0.8426,2.4052 1.0063,3.7002 1.4466,1.0132 1.9964,2.1942 1.6458,3.535 -0.3859,1.4756 0.3259,1.0828 2.6646,-1.4704 1.7551,-1.9162 4.2253,-3.8122 5.4894,-4.2134 3.1127,-0.9879 6.8565,1.5941 7.6679,5.2884 0.4861,2.2133 1.354,3.0623 3.5869,3.5089 1.857,0.3714 2.9919,1.2451 3.0708,2.3641 0.069,0.9763 0.4288,-0.079 0.8,-2.3453 0.3711,-2.2661 1.4738,-5.3396 2.4503,-6.83 z m -42.206,-11.5497 c 2.093,0 2.4381,-2.2526 0.5805,-3.7889 -2.021,-1.6714 -6.5795,-0.2024 -9.261,2.9843 -3.9747,4.7237 -3.178,5.8814 2.1805,3.1686 2.5682,-1.3002 5.4932,-2.364 6.5,-2.364 z M 15.581164,484.5183 c 1.8789,-1.8789 1.2061,-3.6966 -1.3682,-3.6966 -4.4822997,0 -6.2292997,8.1524 -2.7918,13.0275 l 1.7435,2.4725 0.6599,-5.3534 c 0.363,-2.9443 1.1534,-5.8468 1.7566,-6.45 z m 21.2409,8.313 c 2.159,-2.159 2.9022,-3.7553 2.6731,-5.7415 -0.4671,-4.0488 -3.329,-4.1079 -4.727,-0.098 -0.6275,1.8 -2.3387,4.523 -3.8027,6.0511 l -2.6619,2.7784 2.764,0 c 1.7359,0 3.8765,-1.1124 5.7545,-2.9904 z M 145.67776,486.496 c 0,-4.3736 -6.5958,-8.4992 -10.9896,-6.8739 -2.1935,0.8115 -2.1338,0.9292 1.5804,3.1207 2.123,1.2525 4.459,3.1327 5.1913,4.1781 1.8543,2.6475 4.2179,2.4094 4.2179,-0.4249 z M 42.351764,481.9417 c -0.5446,-2.7231 -0.3554,-2.9153 3.4729,-3.5275 8.9157,-1.4257 14.8392,-6.3256 14.8494,-12.2835 0.01,-3.2876 1.3357,-3.528 6.6634,-1.2041 2.6622,1.1613 6.1257,2.495 7.6967,2.9639 2.6294,0.7848 2.805,0.6769 2.211,-1.3581 -2.347,-8.041 -1.8168,-12.9717 1.5911,-14.7955 1.7668,-0.9456 2.3105,-0.8285 3.1543,0.6793 1.3912,2.4859 6.8754,7.4055 8.2554,7.4055 0.6264,0 -0.1351,-2.4932 -1.7229,-5.6409 -3.4678,-6.8751 -3.4783,-7.4626 -0.2559,-14.3591 2.4678,-5.2817 2.724,-9.4138 0.8814,-14.2154 -0.4101,-1.0687 0.287,-1.2945 3.0134,-0.9762 6.6206,0.7729 12.013996,-0.687 16.396396,-4.4382 2.2789,-1.9507 4.6126,-4.4232 5.186,-5.4946 1.0093,-1.886 0.9255,-1.8991 -2.6342,-0.4118 -5.6469,2.3594 -14.424496,2.0119 -18.534496,-0.7337 -6.7438,-4.5052 -8.7205,-13.3337 -4.799,-21.4344 5.5364,-11.4366 25.096996,-16.9329 49.133496,-13.8058 6.6434,0.8643 14.0936,2.0229 16.556,2.5747 2.4623,0.5518 4.6471,0.8332 4.855,0.6254 0.6743,-0.6744 -2.4071,-8.3555 -4.9995,-12.4621 -1.3891,-2.2004 -4.9094,-6.3472 -7.8231,-9.2153 l -5.2976,-5.2147 -9.014,0.6758 c -10.429,0.7819 -28.6413,-0.6424 -46.485496,-3.6355 -25.0899,-4.2084 -38.0905,-0.1522 -47.7101,14.8857 l -3.4111,5.3324 -3.0285,-3.0285 c -5.8287,-5.8286 -11.3468,-4.9343 -14.4239,2.3378 -6.1151,14.4515 -8.7166997,17.1344 -16.61509971,17.1344 -3.74319999,0 -4.44909999,0.26 -3.57279999,1.3159 3.18249999,3.8346 10.1514,5.0357 15.8443997,2.7307 1.3434,-0.544 1.717,0.4274 2.2808,5.9302 0.7602,7.42 -0.3777,12.9698 -3.4634,16.8926 -2.2155997,2.8167 -1.5946997,3.2163 2.5492,1.6408 3.6874,-1.4019 7.261,-5.5604 10.7509,-12.5102 1.6571,-3.3 3.1176,-6.1205 3.2455,-6.2678 0.1279,-0.1472 2.2121,0.6304 4.6315,1.7281 2.4194,1.0977 5.7681,2.0057 7.4415,2.0177 2.7407,0.02 3.1583,0.4546 4.2088,4.3822 1.0803,4.0391 5.1442,8.8031 9.6699,11.3358 1.3158,0.7364 1.405,2.0594 0.609,9.0384 -1.0201,8.9437 -2.6103,12.8679 -6.7819,16.7361 -3.3593,3.1149 -6.2839,4.0935 -17.5717,5.8798 l -8.8233,1.3962 3.1998,-3.3013 c 3.5147,-3.6263 3.5499,-6.2439 0.1405,-10.4543 l -1.8317,-2.262 -2.6587,2.6587 c -2.3034,2.3034 -2.5811,3.225 -2.0777,6.8972 0.4531,3.3063 0.1526,4.7676 -1.3665,6.6436 -3.0627,3.7823 -7.4732997,3.2426 -12.3548997,-1.5117 -2.2119,-2.1542 -3.73550001,-3.1644 -3.38590001,-2.2448 0.3497,0.9195 0.1352,2.607 -0.4765,3.75 -0.88979999,1.6626 -0.82059999,2.0781 0.3463,2.0781 2.39960001,0 7.33760001,4.785 7.88320001,7.6388 0.3721,1.9464 -0.133,3.2553 -1.8813,4.8756 -3.3103,3.0679 -3.1296,5.4856 0.41,5.4856 3.4006,0 5.1999997,1.6264 5.1999997,4.7 0,1.6938 0.5723,2.3 2.1713,2.3 1.1942,0 2.9379,0.6938 3.875,1.5419 1.5643,1.4157 1.7037,1.3246 1.7037,-1.1138 0,-3.1183 1.6365,-4.3916 5.6713,-4.4128 4.0904,-0.021 6.5723,2.5652 6.6105,6.8897 0.028,3.2033 0.1765,3.4043 1.3603,1.845 1.7482,-2.303 5.1738,-2.2254 7.3579,0.1667 2.3856,2.6127 2.589,2.5285 1.924,-0.7967 z m -45.0274997,-10.32 c 4.0546,0 5.1048,-1.3123 2.95299999,-3.6901 -2.14709999,-2.3725 -6.82379999,-1.6129 -10.07269999,1.636 -3.7437003,3.7437 -3.4057003,5.7599 0.6169,3.6798 1.7291,-0.8941 4.6553,-1.6257 6.5028,-1.6257 z m 0.3535,-23.8238 c 0,-3.6726 -8.4640003,-5.4581 -12.2500003,-2.5842 -2.5449,1.9319 -2.1659,2.6022 1.5,2.6531 1.7875,0.025 4.6000003,0.6372 6.2500003,1.3609 3.4883,1.5299 4.5,1.2084 4.5,-1.4298 z M 18.677764,432.8542 c 0,-3.6103 -7.285,-7.6025 -11.2179997,-6.1476 -2.1739,0.8042 -2.146,0.8755 0.9723,2.488 1.7655997,0.9131 4.1958997,2.9933 5.4005997,4.6228 1.6827,2.2759 2.4981,2.7073 3.5178,1.861 0.73,-0.6059 1.3273,-1.8767 1.3273,-2.8242 z m -67.145,-75.4575 c 4.4403,-2.2962 6.4823,-8.2203 3.6451,-10.5749 -1.2655,-1.0503 -1.7523,-0.6395 -3.1144,2.6275 -0.888,2.1298 -2.4936,5.1099 -3.5682,6.6224 -2.1658,3.0486 -1.1513,3.4911 3.0375,1.325 z m -47.881,-37.5432 c 1.9605,-7.177 7.4408,-17.0159 13.5252,-24.2818 5.3412,-6.3785 5.8851,-6.75 9.8819,-6.75 4.0665,0 4.6611,-0.4375 15.4242,-11.3465 6.1571,-6.2405 11.1947,-11.699 11.1947,-12.13 0,-0.431 -2.0168,-0.5563 -4.4818,-0.2784 -5.2017,0.5863 -5.3801,1.1832 2.9118,-9.7451 3.3385,-4.4 6.2009,-8.6179 6.361,-9.373 0.16,-0.7551 5.5917,-8.1801 12.0703,-16.5 14.3447,-18.4214 14.0213,-17.9131 10.5572,-16.596 -3.5226,1.3393 -3.8974,0.7958 -1.9922,-2.8884 0.8655,-1.6738 1.5737,-5.0906 1.5737,-7.5929 0,-4.4003 -0.1,-4.5497 -3.0352,-4.5497 -2.6909,0 -2.9178,0.2194 -2,1.9343 0.5694,1.0638 1.0352,3.8167 1.0352,6.1176 0,3.5473 -0.6082,4.7916 -4,8.1834 -2.2,2.2 -4,4.8694 -4,5.932 0,3.0519 -2.7,7.4829 -5.9849,9.822 -2.4922,1.7745 -3.0151,1.8749 -3.0151,0.5788 0,-0.8625 -0.6634,-1.5681 -1.4743,-1.5681 -0.8109,0 -2.1853,-1.3748 -3.0541,-3.055 l -1.5798,-3.055 -6.6959,5.9424 c -10.6075,9.4139 -10.3103,8.9185 -8.8156,14.6947 l 1.2869,4.9729 -5.7816,7 c -3.1799,3.85 -7.1102,8.575 -8.734,10.5 l -2.9523,3.5 -0.9132,-3.5 c -0.5023,-1.925 -1.1981,-3.5 -1.5463,-3.5 -0.3482,0 -3.3861,3.7585 -6.7511,8.3522 -4.5182,6.1683 -6.0437,9.0602 -5.834,11.0594 0.1971,1.8797 -1.4642,5.5199 -5.4354,11.9094 -5.493304,8.8387 -5.718604,9.4685 -5.701904,15.9406 0.019,7.3872 2.1253,18.8172 4.1345,22.4361 1.204904,2.1703 1.316104,2.0157 1.939904,-2.6977 0.3639,-2.75 1.211,-7.0107 1.8822,-9.4682 z m 29.5672,-4.0318 c 2.8087,0 3.534,-0.363 3.2821,-1.6428 -0.8387,-4.2616 -7.0854,-4.1861 -11.4094,0.138 -3.4468,3.4467 -3.0159,4.6543 1.054,2.9538 1.9073,-0.797 5.0903,-1.449 7.0733,-1.449 z m 157.4941,-8.1914 c 0.6079,-2.2221 2.5338,-5.0084 4.8384,-7 6.126196,-5.2943 6.940796,-7.9164 4.464396,-14.37 -0.613596,-1.5991 6e-4,-1.7006 7.2457,-1.1975 4.3539,0.3023 10.6006,1.4968 13.8815,2.6543 7.2261,2.5494 6.8393,2.5422 5.5333,0.102 -1.2974,-2.4243 -1.5002,-8.7149 -0.5124,-15.8972 l 0.7315,-5.3184 5.4796,5.6122 c 4.8413,4.9586 9.5212,7.7208 10.8424,6.3997 0.2456,-0.2456 -0.4982,-2.402 -1.6529,-4.7919 -1.3085,-2.7082 -2.2952,-7.2006 -2.6189,-11.9236 l -0.5194,-7.5782 5.9721,0 c 3.5976,0 6.6308,-0.5468 7.629,-1.3752 1.5118,-1.2546 1.35,-1.7149 -1.8463,-5.2529 -1.9268,-2.1327 -3.5306,-4.4389 -3.5639,-5.1248 -0.033,-0.6859 -0.1459,-5.3849 -0.25,-10.4422 -0.186,-9.0302 -0.2515,-9.2592 -3.6517,-12.7667 l -3.4623,-3.5715 6.5259,0.1415 c 5.775,0.1252 10.9012,-1.3324 10.8977,-3.0987 -6e-4,-0.2802 -2.2775,-1.7881 -5.0599,-3.3509 -4.9783,-2.796 -10.9391,-9.5615 -10.9391,-12.4156 0,-0.9177 -0.5854,-1.2323 -1.5818,-0.85 -0.87,0.3339 -3.3364,0.607 -5.4809,0.607 -3.4415,0 -3.9697,0.3228 -4.4995,2.75 -1.7561,8.0441 -5.7682,12.6586 -12.0272,13.8327 -2.6761,0.5021 -3.3836,1.0453 -2.9234,2.2446 1.4061,3.6642 1.6678,10.1731 0.5457,13.5731 -2.7608,8.3653 -12.5932,14.8482 -24.343996,16.0508 -20.5281,2.101 -29.484,6.38 -44.6326,21.3246 -13.1475,12.9705 -20.9597,17.7296 -28.0014,17.058 -2.2302,-0.2126 -4.0549,-0.072 -4.0549,0.3117 0,1.3138 12.3145,6.8545 15.2344,6.8545 1.6032,0 6.3314,-1.8 10.5071,-4 6.3429,-3.3418 8.5521,-4 13.4254,-4 5.1664,0 5.8331,0.2286 5.8331,2 0,1.7285 -0.6667,2 -4.9111,2 -4.2564,0 -5.2563,0.4102 -7.5,3.0767 -2.3023,2.7361 -3.2845,4.9233 -2.211,4.9233 0.2078,0 2.0374,-0.6934 4.0657,-1.5409 5.2115,-2.1775 18.899,-1.6698 19.3548,0.7179 0.2215,1.1605 -1.0405,2.2789 -4.0976,3.6311 -2.5752,1.1392 -5.5905,3.5678 -7.2298,5.8231 -1.5466,2.1278 -3.9552,4.8614 -5.3524,6.0745 -1.3973,1.2132 -2.2241,2.5221 -1.8375,2.9087 0.3866,0.3866 3.294,0.7204 6.4609,0.7418 6.4124,0.043 11.7362,-2.2032 17.7638,-7.4954 1.9588,-1.7198 3.6775,-2.9546 3.8194,-2.7439 0.1419,0.2107 1.4948,2.3132 3.0064,4.6721 1.5117,2.359 4.1929,5.1721 5.9584,6.2513 l 3.21,1.9622 0.2627,-2.2513 c 0.1444,-1.2381 0.7171,-3.9123 1.2726,-5.9426 z m -110.7482,-1.6456 4.7871,-4.663 14.0456003,-0.5 14.0455997,-0.5 2.9173,-3.2658 c 1.6045,-1.7962 2.9173,-3.6789 2.9173,-4.1839 0,-0.505 -1.8925,-2.1891 -4.2055,-3.7425 -4.0533,-2.7223 -11.3345997,-11.1011 -10.4315997,-12.004 0.2419,-0.2419 2.8159,0.2657 5.72,1.1282 2.9039997,0.8624 6.2108997,1.55 7.3485997,1.528 1.7267,-0.033 1.5728,-0.3065 -0.9315,-1.6521 -3.7205,-1.9993 -9.7602997,-6.7739 -19.5031997,-15.4179 -9.6814003,-8.5894 -16.7388003,-11.6643 -27.4927003,-11.9783 l -7.894,-0.2305 -3.8023,4.4094 c -2.0913,2.4252 -3.8036,4.7257 -3.8051,5.1123 0,0.3866 2.2473,0.4364 4.9973,0.1107 2.75,-0.3257 5,-0.2001 5,0.2792 0,0.4793 -4.3791,5.267 -9.7312,10.6393 -8.0011,8.0312 -9.3229,9.7679 -7.4343,9.7679 1.2633,0 3.2799,0.505 4.4812,1.1222 3.0876,1.5863 7.6843,6.0309 7.6843,7.43 0,0.648 0.9,2.3222 2,3.7207 2.4351,3.0957 2.49,4.6318 0.3274,9.1667 -2.2037,4.6213 -0.7479,8.1276 3.8835,9.3536 5.0175,1.3281 9.7453,-0.4375 15.0762,-5.6302 z m -22.8844,-9.77 c 0.9345,-2.4354 -2.2881,-8.8941 -5.3362,-10.6947 -3.8593,-2.2797 -4.583,-2.1388 -2.8331,0.5517 0.8048,1.2375 2.0158,4.05 2.6909,6.25 0.6752,2.2 1.4014,4.5549 1.6138,5.2331 0.4801,1.533 3.1124,0.6201 3.8646,-1.3401 z m 71.9192,-19.8527 c 2.298,-1.3528 7.7403,-6.0504 12.0942,-10.4392 l 7.916,-7.9794 -5.416,-2.4061 c -6.9672,-3.0952 -18.3481,-10.0814 -23.2466,-14.2699 -5.8403,-4.9939 -8.4765,-9.1679 -9.6836,-15.3323 -1.6080997,-8.2128 -2.9041997,-10.9493 -6.4767997,-13.6743 -3.65080001,-2.7846 -4.50910001,-2.9928 -4.50910001,-1.0941 0,0.7398 -0.78749999,2.0554 -1.74999999,2.9237 -1.5257,1.3763 -1.9988,1.3961 -3.6911,0.155 -3.0929,-2.2684 -4.5589003,-1.7404 -4.5589003,1.642 0,4.3143 1.4678003,6.8141 6.8291003,11.6308 3.57619999,3.213 4.39599999,4.4722 3.49789999,5.3729 -2.23329999,2.2401 -11.39980029,-6.0889 -13.55630029,-12.3177 l -1.277,-3.6887 -10.9969,14.164 c -6.0482,7.7902 -11.1468,14.526 -11.3301,14.9685 -0.1834,0.4425 3.004,0.8045 7.0831,0.8045 10.1307,0 20.5679003,4.4583 28.5949003,12.2145 7.0701,6.8316 13.9757997,12.3587 20.5601997,16.456 2.8023,1.7438 5.24,3.2063 5.417,3.25 0.1771,0.044 2.2021,-1.0274 4.5,-2.3802 z m 72.474896,-38.1264 c 6.0573,-3.0184 9.1967,-6.9466 9.9318,-12.4272 0.4678,-3.4877 -0.5384,-9.7216 -2.3176,-14.3579 -0.5225,-1.3618 0.1409,-1.6288 4.0478,-1.6288 7.8523,0 10.0652,-2.1906 12.0616,-11.9407 l 1.114,-5.4408 5.5555,0.2574 c 6.3099,0.2923 11.2082,-1.422 14.608,-5.1124 l 2.2979,-2.4943 -7.3019,-0.4686 c -6.4918,-0.4167 -8.5426,-1.1128 -18.4876,-6.2756 -11.6133,-6.0289 -17.4505,-7.4709 -24.721196,-6.1069 -5.172,0.9702 -10.3541,6.2854 -11.1832,11.4703 -0.593,3.7078 -1.3019,4.6238 -5.7888,7.4792 -2.8122,1.7897 -5.9513,3.5695 -6.9757,3.955 -1.4747,0.5551 -1.6186,0.9951 -0.6909,2.1129 0.88,1.0603 0.8945,2.4414 0.058,5.5468 -2.3496,8.7258 5.1938,15.8489 10.1335,9.569 4.693,-5.9661 13.5026,-7.4072 18.674896,-3.055 1.6317,1.3729 3.7241,4.3893 4.6499,6.703 1.428,3.569 1.4995,4.8627 0.4715,8.5342 -1.5789,5.6395 -5.5298,8.4855 -12.592996,9.0712 -5.8816,0.4877 -6.4572,1.3693 -3.0916,4.7346 2.9347,2.9343 3.4196,2.928 9.546796,-0.1254 z m -4.796796,-45.1177 c -0.825,-0.3003 -2.9903,-1.4437 -4.8118,-2.5409 l -3.3118,-1.9948 2.2088,-2.3512 c 4.5964,-4.8927 13.765996,-5.514 23.068596,-1.5632 l 4.1987,1.7832 -3.4307,2.6168 c -5.6626,4.3191 -12.7698,5.9252 -17.921796,4.0501 z m 11.293396,-4.4532 c 2.113,-1.1309 2.1172,-1.1746 0.1843,-1.9298 -2.8467,-1.1121 -9.721096,-1.051 -11.477696,0.1021 -3.7882,2.4868 6.846096,4.2078 11.293396,1.8277 z m -35.724896,43.6925 c 2.7123,-0.8055 7.4065,-2.943 10.4315,-4.75 3.025,-1.807 8.65,-4.3631 12.5,-5.6802 3.85,-1.3172 7.449996,-2.8063 7.999996,-3.3093 0.6357,-0.5813 0.4535,-0.7495 -0.5,-0.4615 -0.825,0.2491 -4.537496,1.2257 -8.249996,2.1702 -3.7125,0.9446 -6.75,2.0682 -6.75,2.4969 0,0.4288 -1.4625,1.0255 -3.25,1.326 -1.7875,0.3005 -6.0341,1.3051 -9.4369,2.2324 -14.4921,3.9493 -24.3785,-2.4721 -28.3611,-18.4212 -1.2498,-5.0054 -5.1532,-9.1388 -8.6301,-9.1388 -1.3124,0 -4.0592,0.7178 -6.104,1.5951 l -3.7179,1.5951 2.5,0.9622 c 3.983,1.5331 7.8397,5.8168 12.0171,13.3476 4.8796,8.7969 8.7748,13.0497 14.2131,15.5181 5.146,2.3357 8.8004,2.459 15.3383,0.5174 z m -112.2788,-8.5355 c -0.2876,-1.1 -0.9363,-2 -1.4415,-2 -0.5075,0 -0.4395,0.8951 0.1518,2 0.5887,1.1 1.2374,2 1.4416,2 0.2041,0 0.1358,-0.9 -0.1519,-2 z m 5.7103,-5.0026 c 0,-2.2611 -0.7655,-4.4419 -2.039,-5.8088 -2.2555,-2.421 -2.8145,-2.5673 -4.8609,-1.2716 -1.1546,0.731 -1.0211,1.368 0.7622,3.6351 1.1892,1.5118 2.4501,4.5495 2.8021,6.7505 0.5841,3.6529 0.7574,3.8411 1.9877,2.1584 0.7414,-1.0138 1.3479,-3.4724 1.3479,-5.4636 z m 129,-2.5618 c 7.906996,-2.1865 7.806396,-2.114 5.426996,-3.9141 -4.214296,-3.1883 -11.601896,-0.8002 -14.546796,4.7024 -0.9579,1.7898 -0.8559,1.9973 0.7563,1.5389 1.0249,-0.2913 4.7885,-1.3386 8.3635,-2.3272 z m -138.4351,-0.3639 c -2.0999,-2.3203 -1.332,-5.6935 1.5008,-6.5925 2.6427,-0.8388 1.4544,-2.4792 -1.796,-2.4792 -3.1988,0 -6.2697,2.6088 -6.2697,5.3262 0,2.8647 2.8765,5.6738 5.81,5.6738 2.4057,0 2.4341,-0.073 0.7549,-1.9283 z m 12.4351,-4.0717 c 0,-2 -0.5,-3 -1.5,-3 -1.7722,0 -1.789,0.1098 -0.5248,3.4349 1.2925,3.3994 2.0248,3.2422 2.0248,-0.4349 z m 28.6433003,-1.5127 c 1.5427,-4.0205 -6.269,-6.7664 -11.5218003,-4.0501 -3.8848,2.0089 -4.1068,3.9131 -0.3715,3.1875 1.5125,-0.2938 4.325,0.067 6.2500003,0.8012 4.7166,1.7997 4.9751,1.8025 5.6433,0.061 z m -23.4035003,-2.7067 c 0.5918,-1.7754 0.389,-3.7333 -0.6423,-6.2016 -1.6887,-4.0416 -3.9225,-5.3841 -6.0378,-3.6285 -1.1992,0.9952 -1.0449,1.7193 1.0127,4.7514 1.3352,1.9674 2.4276,4.6769 2.4276,6.021 0,3.124 2.0867,2.517 3.2398,-0.9423 z m -9.3831,-5.7605 c -2.1399,-2.8944 -2.1506,-3.0378 -0.3749,-5 1.0055,-1.111 2.46,-2.0201 3.2322,-2.0201 1.9583,0 0.7407,-1.6478 -1.6865,-2.2826 -2.8532,-0.7461 -7.0275,2.8336 -7.0275,6.0264 0,3.3385 2.6513,6.2562 5.6849,6.2562 l 2.375,0 -2.2032,-2.9799 z m 26.9208003,-0.5768 c 1.2224,-0.8562 2.2225,-2.3646 2.2225,-3.3521 0,-0.9874 3.2064,-5.4998 7.12539999,-10.0275 l 7.12550001,-8.2322 5.2830997,0.3342 5.2832,0.3343 8.2352,-9.5 8.2352,-9.5 -3.6548,-0.5944 c -2.0102,-0.3269 -3.8673,-0.8067 -4.1268,-1.0663 -0.2596,-0.2596 3.2328,-3.7727 7.761,-7.8069 4.5282,-4.0343 10.8462,-9.7419 14.04,-12.6837 l 5.807,-5.3487 -9.9712,0 -9.9712,0 -12.8336,14.179 -12.8335997,14.179 -0.6833,-4.7767 c -0.3758,-2.6273 -0.8503,-4.9438 -1.0544,-5.1479 -0.2041,-0.2042 -3.3632,1.7523 -7.02010001,4.3477 l -6.64899999,4.7189 -0.049,5.9621 c -0.046,5.6213 -0.2867,6.2046 -4.2106003,10.2027 -3.3684,3.4322 -3.9351,4.5135 -2.9731,5.6727 0.6537,0.7877 1.4649,4.3912 1.8027,8.0078 0.4858,5.2029 0.2666,7.1058 -1.05,9.1152 -1.5693,2.3952 -1.5616,2.5395 0.1366,2.5395 0.9903,0 2.8007003,-0.7005 4.0231003,-1.5567 z m -4.8167003,-6.9433 c 0.045,-2.8096 -3.6224,-8.5 -5.4775,-8.5 -2.5345,0 -2.8193,2.7574 -0.579,5.6055 1.1526,1.4653 2.0957,3.4667 2.0957,4.4476 0,0.9808 0.2934,2.5479 0.652,3.4825 0.5661,1.4752 0.825,1.3871 1.9646,-0.6683 0.7219,-1.302 1.3268,-3.2673 1.3442,-4.3673 z m -8.5539,-1.75 c -0.3911,-0.6875 -1.3086,-1.9504 -2.0388,-2.8064 -1.1083,-1.2992 -1.0817,-1.9075 0.1609,-3.6816 0.8187,-1.1689 2.4971,-2.2998 3.7298,-2.5132 2.0383,-0.3529 1.9759,-0.4636 -0.6895,-1.2222 -6.2282,-1.7726 -11.1514,4.9627 -6.9893,9.5618 1.948,2.1525 7.0015,2.7262 5.8269,0.6616 z"
       id="path7726-6"
       inkscape:connector-curvature="0" />
    <path
       style="fill:#fcdd09;fill-opacity:1;stroke:none"
       d="m -63.370092,329.00016 c -11.363139,-0.0535 -15.986433,9.6081 -13.49751,20.93583 2.942606,-4.32258 5.438369,-8.9929 12.69044,-9.96176 5.598287,0.81414 7.849511,-9.4568 0.80707,-10.97407 z"
       id="path2993"
       inkscape:connector-curvature="0"
       sodipodi:nodetypes="cccc" />
    <path
       style="fill:#078930;fill-opacity:1;stroke:none"
       d="m -66.286912,331.95324 c -6.917429,-0.0298 -9.731905,5.34891 -8.216749,11.65515 1.791338,-2.40641 3.310664,-5.00642 7.725437,-5.54579 3.408011,0.45324 4.778471,-5.26468 0.491312,-6.10936 z"
       id="path2993-1"
       inkscape:connector-curvature="0"
       sodipodi:nodetypes="cccc" />
    <path
       style="fill:#fcdd09;stroke:none;stroke-width:1px;stroke-linecap:butt;stroke-linejoin:miter;stroke-opacity:1;fill-opacity:1"
       d="m 81.964286,132.4131 15.357143,-0.89286 15.535711,-19.82143 -1.96428,-3.75 -14.64286,19.64286 -9.821428,0.89286 z"
       id="path3781"
       inkscape:connector-curvature="0"
       transform="translate(-122.82364,113.8342)" />
    <path
       style="fill:#0f47af;stroke:none;stroke-width:1px;stroke-linecap:butt;stroke-linejoin:miter;stroke-opacity:1;fill-opacity:1"
       d="m 105.71429,98.395241 2.32142,4.821429 -19.017853,25 -7.678571,1.69643 z"
       id="path3783"
       inkscape:connector-curvature="0"
       transform="translate(-122.82364,113.8342)" />
  </g>
</svg>
