<?xml version="1.0" encoding="UTF-8" standalone="no"?>
<!-- Created with Inkscape (http://www.inkscape.org/) -->

<svg
   xmlns:dc="http://purl.org/dc/elements/1.1/"
   xmlns:cc="http://creativecommons.org/ns#"
   xmlns:rdf="http://www.w3.org/1999/02/22-rdf-syntax-ns#"
   xmlns:svg="http://www.w3.org/2000/svg"
   xmlns="http://www.w3.org/2000/svg"
   xmlns:sodipodi="http://sodipodi.sourceforge.net/DTD/sodipodi-0.dtd"
   xmlns:inkscape="http://www.inkscape.org/namespaces/inkscape"
   width="329.78125"
   height="217.28125"
   id="svg11887"
   version="1.1"
   inkscape:version="0.48.4 r9939"
   sodipodi:docname="Nieuw document 47">
  <defs
     id="defs11889" />
  <sodipodi:namedview
     id="base"
     pagecolor="#ffffff"
     bordercolor="#666666"
     borderopacity="1.0"
     inkscape:pageopacity="0.0"
     inkscape:pageshadow="2"
     inkscape:zoom="1.4"
     inkscape:cx="280.03751"
     inkscape:cy="68.971634"
     inkscape:document-units="px"
     inkscape:current-layer="layer1"
     showgrid="false"
     fit-margin-top="0"
     fit-margin-left="0"
     fit-margin-right="0"
     fit-margin-bottom="0"
     inkscape:window-width="1600"
     inkscape:window-height="837"
     inkscape:window-x="-8"
     inkscape:window-y="-8"
     inkscape:window-maximized="1" />
  <metadata
     id="metadata11892">
    <rdf:RDF>
      <cc:Work
         rdf:about="">
        <dc:format>image/svg+xml</dc:format>
        <dc:type
           rdf:resource="http://purl.org/dc/dcmitype/StillImage" />
        <dc:title></dc:title>
      </cc:Work>
    </rdf:RDF>
  </metadata>
  <g
     inkscape:label="Laag 1"
     inkscape:groupmode="layer"
     id="layer1"
     transform="translate(-68.59375,-257.5)">
    <path
       inkscape:connector-curvature="0"
       style="fill:#ffffff;fill-opacity:1;stroke:#000000;stroke-width:0.99867046px;stroke-linecap:butt;stroke-linejoin:miter;stroke-opacity:0"
       d="M 69.736662,258.63143 69.08167,474.266 l 328.80619,-1.28736 0,-214.9909 -328.151198,0.64369 z"
       id="path8902" />
    <path
       inkscape:connector-curvature="0"
       style="fill:#0e44af;fill-opacity:1;stroke:#000000;stroke-width:0.58537686px;stroke-linecap:butt;stroke-linejoin:miter;stroke-opacity:0"
       d="m 68.39418,257.44173 -0.221444,219.1444 111.161574,-1.30834 0,-218.49021 -110.94013,0.65415 z"
       id="path8902-8" />
    <path
       inkscape:connector-curvature="0"
       style="fill:#0e44af;fill-opacity:1;stroke:#000000;stroke-width:1.00884843px;stroke-linecap:butt;stroke-linejoin:miter;stroke-opacity:0"
       d="m 177.85647,338.8451 c 6.83875,1.21155 13.67751,-0.46455 20.51626,-3.57555 14.0173,-7.26466 27.21933,-4.11831 40.37069,-0.32505 12.79607,4.34461 25.14798,3.88999 37.06162,-1.30021 10.69934,-3.82506 21.39868,-3.75703 32.09802,-0.6501 15.96267,7.3904 28.09744,4.25238 39.70887,-0.32505 12.02297,-4.33401 24.04594,-1.40276 36.0689,0 l 15.55265,3.90061 0,66.96042 c -13.75827,-4.10369 -27.23769,-10.1248 -42.68705,-2.6004 -13.05141,2.60963 -26.12499,5.02336 -40.03979,0 -12.01465,-3.89024 -24.17395,-6.07542 -37.06162,0.32505 -11.58176,5.38163 -23.16351,3.16013 -34.74527,0 -9.55892,-4.63226 -28.41474,-6.64262 -47.98155,-0.32505 -6.16235,2.86813 -12.84655,4.17386 -18.12668,3.57555 -10.82647,-23.57967 -9.03618,-48.39922 -0.73505,-65.66022 z"
       id="path11608"
       sodipodi:nodetypes="cccccccccccccccc" />
    <path
       inkscape:connector-curvature="0"
       style="fill:#ffffff;fill-opacity:1;stroke:#000000;stroke-width:1px;stroke-linecap:butt;stroke-linejoin:miter;stroke-opacity:0"
       d="m 119.40478,283.9068 0,5.28707 1.14937,0.57468 0.91949,2.41367 1.37923,-2.64354 c 12.95807,0.41366 8.37452,17.74293 -1.03442,13.5625 l -0.80456,-2.41366 -1.03443,1.83898 -1.2643,-0.22987 c 0.53078,0.88118 -0.28512,1.76236 -1.2643,2.64353 6.32209,2.41212 21.89687,5.69139 18.04502,-6.09163 l 1.60911,0 c 1.94892,6.9286 -1.52812,8.94972 -7.72087,10.3633 -6.84329,1.56208 -13.49783,1.21738 -18.02489,2.16478 l 1.03443,4.13771 c -5.37238,-0.29613 -16.028415,-3.61478 -11.95339,8.62023 -1.979025,2.3073 -5.493475,2.5034 -5.287075,7.81568 1.81168,-0.71164 3.16522,-0.50699 4.36759,0 -0.84287,5.44033 1.225995,7.50917 6.206565,6.20657 0.63878,1.99223 1.96968,3.98446 0,5.97669 -1.58878,2.75339 -2.01243,5.21551 -1.14937,7.35594 2.89879,-3.5524 6.31629,-6.10444 13.44756,-1.49418 4.91369,-0.95197 9.51078,-2.31365 9.30986,-9.88453 l 0.68961,3.90783 c 5.69215,-2.62258 10.39592,-6.18862 9.42479,-15.17161 1.8455,0.72142 2.44932,2.68452 3.10329,4.59746 4.78766,-6.9795 1.68467,-12.41554 1.83898,-14.36705 1.76236,-0.30444 3.52472,-0.14477 5.28708,1.37923 -1.39632,-3.37147 -1.10194,-6.74293 -1.37924,-10.1144 l 1.14936,1.03443 c 0.96353,-2.75848 0.51776,-5.51695 -0.34481,-8.27543 l 1.49418,0.80456 c 0.33544,-1.71451 -0.53983,-3.18688 -1.72405,-4.59746 l 3.56303,0.11494 c -2.06024,-3.29063 -3.02856,-7.01803 -3.56303,-10.91897 -3.49172,0.15209 -6.71891,0.0156 -6.89619,-3.44809 l 1.14937,-0.11494 c 0.39559,3.07863 4.97223,1.93368 6.32768,1.77773 6.17719,-0.71072 -2.03009,-14.3006 -7.24717,-4.30633 l -2.75848,0 c 2.89505,-5.08791 -6.76747,-3.24943 -11.0339,-2.64354 -3.26046,1.14937 -2.99035,2.29873 -2.98834,3.4481 l -4.48252,-0.34481 0.45974,1.03443 z"
       id="path11610"
       sodipodi:nodetypes="ccccccccccccsccccccccccccccccccccccccscccccc" />
    <path
       inkscape:connector-curvature="0"
       style="fill:#0e44af;fill-opacity:1;stroke:#000000;stroke-width:1px;stroke-linecap:butt;stroke-linejoin:miter;stroke-opacity:0"
       d="m 141.47258,283.10224 1.32177,-1.2643 3.33315,0.28734 -0.1724,1.78152 0.80455,0.1724 -0.86202,0.68962 -1.4367,0.68962 -1.60911,-0.11494 -0.28735,-1.2643 0.97696,0.91949 1.55165,-0.45974 0,-0.9195 0,-0.97696 -1.95392,-0.22987 -1.66658,0.68962 z"
       id="path11612" />
    <path
       inkscape:connector-curvature="0"
       style="fill:#0e44af;fill-opacity:1;stroke:#000000;stroke-width:1px;stroke-linecap:butt;stroke-linejoin:miter;stroke-opacity:0"
       d="m 125.49641,282.58503 4.08025,0.0575 1.03442,-0.22988 1.26431,-0.91949 1.09189,0 1.14937,0.28734 -1.60911,0.51722 -0.80456,0.57468 -0.28734,0.74709 -0.1724,1.55164 -1.14937,1.49417 -0.91949,0 -1.55164,-0.28734 0.28734,-0.34481 1.66658,0.34481 0.80455,-0.91949 0.0575,-0.68962 -0.97696,-1.03443 -0.74709,0 -0.0575,0.80456 0,1.03443 -0.45975,0.45974 -0.80456,0 -0.91949,-0.57468 0.17241,-0.86202 0.34481,-0.86203 0.51721,-0.34481 -1.2643,0 -0.57468,0.34481 -0.63215,0.86203 0.0575,-1.0919 0.40227,-0.91949 z"
       id="path11614" />
    <path
       inkscape:connector-curvature="0"
       style="fill:#db151f;fill-opacity:1;stroke:#000000;stroke-width:1px;stroke-linecap:butt;stroke-linejoin:miter;stroke-opacity:0"
       d="m 130.78349,295.57284 c -0.44516,0.30798 1.16936,-1.2817 -5.74682,1.20684 -1.10107,-0.11379 -6.76621,1.16411 -8.04555,0 -2.13276,-3.06906 -3.91706,-3.0818 -6.1491,-4.31012 -0.16781,9.94754 8.04848,9.1334 18.04502,6.03416 l 1.95392,-1.2643 -0.0575,-1.66658 3e-5,0 z"
       id="path11616"
       sodipodi:nodetypes="cccccccc" />
    <path
       inkscape:connector-curvature="0"
       style="fill:#ffffff;fill-opacity:1;stroke:#000000;stroke-width:1px;stroke-linecap:butt;stroke-linejoin:miter;stroke-opacity:0"
       d="m 132.66463,342.20229 c -1.5052,2.19623 -3.10353,3.74059 -5.03888,2.92581 l 0,-1.78799 c -0.70404,5.45727 -5.23898,5.98909 -8.77741,7.80214 11.03276,14.73806 27.89037,47.16482 10.89049,60.14152 3.84012,3.39995 7.12958,1.29324 10.5654,0.65018 l -4.87634,7.47706 c 3.41344,1.34193 6.82688,-0.95933 10.24032,-3.90107 5.74489,8.17734 5.30729,16.58366 -0.65018,25.19442 -7.29598,-3.59181 -7.97828,-1.23132 -6.66433,2.9258 l 1.30035,1.788 c -4.87047,1.94282 1.55231,6.92299 4.38871,5.68906 0.0351,5.25703 6.38753,6.58418 8.12723,1.95054 8.04815,-0.6416 7.15144,-6.13292 1.30036,-9.10251 1.73212,-3.2729 3.44044,-6.60132 3.90107,-12.84103 4.60543,-7.41565 0.976,-14.28231 -0.48763,-21.29335 l -0.97527,-11.37813 1.95054,0 -2.27563,-3.08834 2.27563,0.32509 -2.60072,-2.92581 1.62545,-0.48763 -3.08835,-2.60072 c -0.43618,-3.37864 1.14855,-3.87026 3.73853,-2.9258 6.73229,-0.52952 10.1711,-5.49258 8.93996,-16.7421 -1.1466,-5.36398 -2.34612,-10.72795 -2.60072,-16.09192 1.4486,-2.37612 5.78373,-6.37002 2.9537,-11.51891 -2.42688,-4.41538 -1.11963,-8.97803 -0.51553,-15.13842 -2.33592,5.56637 -7.17025,8.29363 -3.25089,20.96827 1.16172,1.84217 0.10526,3.68435 -0.81273,5.52652 -6.19996,-9.50744 -11.8939,-19.39946 -3.08835,-40.31108 3.53515,-2.41705 8.19032,-7.12849 6.22694,-9.31764 -1.45244,-1.61945 0.1128,-9.14646 1.49971,-12.10559 -1.31423,0.66899 -2.92579,2.3957 -4.80084,6.95675 2.21384,-10.31011 -0.88129,-15.59066 -4.38871,-20.48063 -0.10249,3.44216 2.3481,6.68793 -1.30035,10.40286 -3.12629,4.39563 -0.2288,9.12591 1.95053,13.8163 2.49511,2.9258 -0.14203,5.85161 -0.65018,8.77741 -5.9321,12.35455 -10.94593,25.12027 3.2509,46.48777 2.21187,8.91839 7.70555,30.03875 -6.50179,25.51951 -7.58311,-13.26552 -19.19222,-20.33721 -21.78099,-41.28634 z"
       id="path11618"
       sodipodi:nodetypes="ccccccccccccccccccccccccccsccccsccccccccc" />
    <path
       inkscape:connector-curvature="0"
       style="fill:#ffffff;stroke:#000000;stroke-width:1px;stroke-linecap:butt;stroke-linejoin:miter;stroke-opacity:0"
       d="m 133.80245,383.97627 0.48763,4.22616 c -6.55505,3.99376 -13.14294,7.57711 -18.85518,22.10608 -4.8695,10.61576 -8.63539,21.86214 -22.268615,27.47005 7.127115,2.6219 4.5254,7.05602 -1.30036,5.68906 l -1.4629,-0.65018 c 0.24532,5.56828 -8.97759,4.75218 -4.06362,-3.57598 l -1.62545,-2.11308 c -3.22467,4.54882 -7.23714,-5.55355 -0.65017,-6.33925 l 1.13781,-1.30035 c -2.01683,1.3084 -3.57114,-7.46544 3.90107,-4.06362 3.41004,0.58411 7.17993,2.42768 8.93996,-2.76326 5.093785,-6.88106 6.250515,-13.76211 6.176685,-20.64317 -3.42727,-0.80081 -7.629055,0.0765 -8.614855,-6.01416 4.20056,1.48017 8.082325,2.16337 10.565395,-0.65017 -6.693805,-1.48187 -12.420915,-3.62109 -8.452315,-12.3534 4.035625,2.23056 8.143715,4.38141 16.417005,1.95054 8.51637,-2.84561 14.11799,-1.94367 19.66791,-0.97527 z"
       id="path11620"
       sodipodi:nodetypes="cccccccccccccccccc" />
    <path
       inkscape:connector-curvature="0"
       style="fill:#ffffff;stroke:#000000;stroke-width:1px;stroke-linecap:butt;stroke-linejoin:miter;stroke-opacity:0"
       d="m 97.229895,335.45669 c 1.87183,2.90407 4.362335,4.6481 7.964685,4.30743 1.28501,2.07683 0.24459,3.49244 -1.38162,6.33925 -2.02172,2.2248 -4.677695,4.23819 -4.876345,7.07069 -6.01116,-1.04247 -7.38301,1.25537 -8.04596,4.06361 2.37323,3.6913 -0.32041,7.11729 -4.30743,4.22616 -3.43449,5.17083 -8.01106,-1.96141 -7.15197,-2.60071 -11.66024,-2.64738 -2.6494,-10.12536 -0.16254,-6.17669 -1.86882,-4.18819 -0.1786,-11.8893 4.3887,-3.25089 8.9494,-2.92113 10.30379,-8.82602 13.57248,-13.97885 z"
       id="path11622"
       sodipodi:nodetypes="cccccccccc" />
    <path
       inkscape:connector-curvature="0"
       style="fill:#ffffff;stroke:#000000;stroke-width:1px;stroke-linecap:butt;stroke-linejoin:miter;stroke-opacity:0"
       d="m 97.554985,320.42131 c 1.96041,-10.44743 8.002165,-6.47413 13.003575,-6.1767 -0.44773,-1.06795 -0.97574,-2.14928 -0.16257,-3.00708 -4.46557,-5.17434 -6.14988,-10.34867 -17.229725,-15.52301 -0.56051,-1.73381 -1.01143,-3.46762 -0.0813,-5.20143 8.038855,-1.97875 1.65576,-8.65253 -2.60071,-3.8198 -4.16209,-8.49139 -7.64768,-2.75961 -5.93288,0.16254 -6.81797,-2.59966 -6.73976,3.03938 -1.38163,4.63252 l 0.894,2.11309 c -5.86523,7.5467 3.07015,7.16829 2.60071,3.8198 l 1.05654,-0.81273 0.81272,6.1767 1.13782,-0.56891 0.97526,4.14489 1.05654,0 0.73146,4.22616 1.4629,-0.24381 c 0.65876,3.35925 0.74106,6.71851 3.65725,10.07777 l 4e-5,0 z"
       id="path11624"
       sodipodi:nodetypes="ccccccccccccccccccc" />
    <path
       inkscape:connector-curvature="0"
       style="fill:#db151f;fill-opacity:1;stroke:#000000;stroke-width:1px;stroke-linecap:butt;stroke-linejoin:miter;stroke-opacity:0"
       d="m 94.547915,279.78514 c 0.62807,1.97763 0.93076,3.95525 -1.21909,5.93288 1.49288,2.1642 2.9996,0.87226 3.08835,0.24382 1.69305,-2.0589 0.0604,-4.1178 -1.86926,-6.1767 z"
       id="path11626"
       sodipodi:nodetypes="cccc" />
    <path
       inkscape:connector-curvature="0"
       style="fill:#db151f;fill-opacity:1;stroke:#000000;stroke-width:1px;stroke-linecap:butt;stroke-linejoin:miter;stroke-opacity:0"
       d="m 83.399925,277.30767 c 1.44878,1.48543 2.60678,3.11689 1.57308,5.84898 2.30534,1.26407 3.07203,-0.56664 2.86931,-1.16808 0.58901,-2.59972 -1.79398,-3.70696 -4.44239,-4.6809 z"
       id="path11626-4"
       sodipodi:nodetypes="cccc" />
    <path
       inkscape:connector-curvature="0"
       style="fill:#db151f;fill-opacity:1;stroke:#000000;stroke-width:1px;stroke-linecap:butt;stroke-linejoin:miter;stroke-opacity:0"
       d="m 74.839295,285.95305 c 2.07419,-0.0569 4.05842,0.19899 5.36462,2.81179 2.49258,-0.83638 1.66754,-2.64155 1.08812,-2.90058 -1.51059,-2.19627 -3.94061,-1.19645 -6.45274,0.0888 z"
       id="path11626-0"
       sodipodi:nodetypes="cccc" />
    <path
       inkscape:connector-curvature="0"
       style="fill:#db151f;fill-opacity:1;stroke:#000000;stroke-width:1px;stroke-linecap:butt;stroke-linejoin:miter;stroke-opacity:0"
       d="m 77.532135,299.96997 c 2.07497,-0.002 4.0512,-0.31327 5.28326,-2.96183 2.51515,0.76581 1.74131,2.59351 1.16942,2.86876 -1.44811,2.23796 -3.90533,1.30702 -6.45268,0.0931 z"
       id="path11626-45"
       sodipodi:nodetypes="cccc" />
    <path
       inkscape:connector-curvature="0"
       style="fill:#db151f;fill-opacity:1;stroke:#000000;stroke-width:1px;stroke-linecap:butt;stroke-linejoin:miter;stroke-opacity:0"
       d="m 74.355165,345.66044 c 2.02429,-0.45575 4.02062,-0.58733 5.80613,1.72456 2.28452,-1.30132 1.12688,-2.91352 0.50838,-3.05596 -1.90574,-1.86377 -4.09736,-0.41414 -6.31451,1.3314 z"
       id="path11626-2"
       sodipodi:nodetypes="cccc" />
    <path
       inkscape:connector-curvature="0"
       style="fill:#db151f;fill-opacity:1;stroke:#000000;stroke-width:1px;stroke-linecap:butt;stroke-linejoin:miter;stroke-opacity:0"
       d="m 69.881435,356.66032 c 1.70548,-1.18187 3.50663,-2.05276 6.02904,-0.57956 1.62948,-2.06331 -0.0484,-3.12347 -0.67518,-3.02348 -2.46575,-1.0127 -3.95348,1.15323 -5.35386,3.60304 z"
       id="path11626-3"
       sodipodi:nodetypes="cccc" />
    <path
       inkscape:connector-curvature="0"
       style="fill:#db151f;fill-opacity:1;stroke:#000000;stroke-width:1px;stroke-linecap:butt;stroke-linejoin:miter;stroke-opacity:0"
       d="m 81.769595,367.80381 c -0.60178,-1.98578 -0.87822,-3.96725 1.29768,-5.91618 -1.46405,-2.18383 -2.98777,-0.91198 -3.08485,-0.28477 -1.72021,2.03627 -0.11501,4.11664 1.78717,6.20095 z"
       id="path11626-6"
       sodipodi:nodetypes="cccc" />
    <path
       inkscape:connector-curvature="0"
       style="fill:#db151f;fill-opacity:1;stroke:#000000;stroke-width:1px;stroke-linecap:butt;stroke-linejoin:miter;stroke-opacity:0"
       d="m 88.555755,368.44016 c 0.82385,-1.9044 1.32398,-3.84155 -0.616,-6.02543 1.70305,-2.00303 3.07214,-0.56605 3.09721,0.0681 1.47732,2.21879 -0.3542,4.10298 -2.48121,5.95729 z"
       id="path11626-67"
       sodipodi:nodetypes="cccc" />
    <path
       inkscape:connector-curvature="0"
       style="fill:#db151f;fill-opacity:1;stroke:#000000;stroke-width:1px;stroke-linecap:butt;stroke-linejoin:miter;stroke-opacity:0"
       d="m 77.710705,425.97754 c 1.99859,-0.55772 3.98569,-0.79027 5.88604,1.42818 2.21565,-1.41539 0.97782,-2.96687 0.35291,-3.07779 -1.99773,-1.76482 -4.11309,-0.20601 -6.23895,1.64961 z"
       id="path11626-1"
       sodipodi:nodetypes="cccc" />
    <path
       inkscape:connector-curvature="0"
       style="fill:#db151f;fill-opacity:1;stroke:#000000;stroke-width:1px;stroke-linecap:butt;stroke-linejoin:miter;stroke-opacity:0"
       d="m 75.739705,437.84425 c 1.47248,-1.46192 3.09358,-2.63439 5.83476,-1.62504 1.24351,-2.31648 -0.59394,-3.06686 -1.19355,-2.8588 -2.60486,-0.56587 -3.69086,1.82688 -4.64121,4.48384 z"
       id="path11626-1-9"
       sodipodi:nodetypes="cccc" />
    <path
       inkscape:connector-curvature="0"
       style="fill:#db151f;fill-opacity:1;stroke:#000000;stroke-width:1px;stroke-linecap:butt;stroke-linejoin:miter;stroke-opacity:0"
       d="m 80.924745,447.90678 c 0.85889,-1.88884 1.95932,-3.55967 4.88029,-3.58718 0.34196,-2.60682 -1.64217,-2.65739 -2.12914,-2.25035 -2.63635,0.39391 -2.80398,3.01622 -2.75115,5.83753 z"
       id="path11626-1-6"
       sodipodi:nodetypes="cccc" />
    <path
       inkscape:connector-curvature="0"
       style="fill:#db151f;fill-opacity:1;stroke:#000000;stroke-width:1px;stroke-linecap:butt;stroke-linejoin:miter;stroke-opacity:0"
       d="m 93.990875,447.8347 c 0.9465,-1.8465 1.57211,-3.74684 -0.22103,-6.0528 1.83027,-1.88748 3.10256,-0.36413 3.08614,0.27033 1.3292,2.31057 -0.6215,4.07109 -2.86511,5.78247 z"
       id="path11626-1-7"
       sodipodi:nodetypes="cccc" />
    <path
       inkscape:connector-curvature="0"
       style="fill:#db151f;fill-opacity:1;stroke:#000000;stroke-width:1px;stroke-linecap:butt;stroke-linejoin:miter;stroke-opacity:0"
       d="m 132.33958,441.12043 c 1.99859,-0.55772 3.98569,-0.79027 5.88604,1.42818 2.21565,-1.41539 0.97782,-2.96687 0.35291,-3.07779 -1.99773,-1.76482 -4.11309,-0.20601 -6.23895,1.64961 z"
       id="path11626-1-65"
       sodipodi:nodetypes="cccc" />
    <path
       inkscape:connector-curvature="0"
       style="fill:#db151f;fill-opacity:1;stroke:#000000;stroke-width:1px;stroke-linecap:butt;stroke-linejoin:miter;stroke-opacity:0"
       d="m 137.74057,453.8392 c 0.31486,-2.05092 0.9213,-3.95745 3.72551,-4.77553 -0.3773,-2.60194 -2.30088,-2.11291 -2.65932,-1.58913 -2.43094,1.09363 -1.88164,3.66324 -1.06619,6.36466 z"
       id="path11626-1-99"
       sodipodi:nodetypes="cccc" />
    <path
       inkscape:connector-curvature="0"
       style="fill:#db151f;fill-opacity:1;stroke:#000000;stroke-width:1px;stroke-linecap:butt;stroke-linejoin:miter;stroke-opacity:0"
       d="m 144.32203,459.49035 c 0.21986,-2.06326 0.73767,-3.99576 3.50113,-4.94239 -0.49699,-2.58175 -2.39595,-2.00446 -2.72983,-1.4647 -2.37788,1.20467 -1.71056,3.74619 -0.7713,6.40709 z"
       id="path11626-1-92"
       sodipodi:nodetypes="cccc" />
    <path
       inkscape:connector-curvature="0"
       style="fill:#db151f;fill-opacity:1;stroke:#000000;stroke-width:1px;stroke-linecap:butt;stroke-linejoin:miter;stroke-opacity:0"
       d="m 158.14697,456.66511 c -0.17111,-2.06788 -0.64316,-4.01206 -3.38351,-5.02365 0.55779,-2.5693 2.44259,-1.94735 2.76364,-1.39986 2.34878,1.26046 1.62167,3.78552 0.61987,6.42351 z"
       id="path11626-1-5"
       sodipodi:nodetypes="cccc" />
  </g>
</svg>
