<?xml version="1.0" encoding="UTF-8" standalone="no"?>
<!-- Created with Inkscape (http://www.inkscape.org/) -->

<svg
   xmlns:dc="http://purl.org/dc/elements/1.1/"
   xmlns:cc="http://creativecommons.org/ns#"
   xmlns:rdf="http://www.w3.org/1999/02/22-rdf-syntax-ns#"
   xmlns:svg="http://www.w3.org/2000/svg"
   xmlns="http://www.w3.org/2000/svg"
   xmlns:sodipodi="http://sodipodi.sourceforge.net/DTD/sodipodi-0.dtd"
   xmlns:inkscape="http://www.inkscape.org/namespaces/inkscape"
   width="800.04089"
   height="529.31982"
   id="svg15628"
   version="1.1"
   inkscape:version="0.48.4 r9939"
   sodipodi:docname="Nieuw document 29">
  <defs
     id="defs15630" />
  <sodipodi:namedview
     id="base"
     pagecolor="#ffffff"
     bordercolor="#666666"
     borderopacity="1.0"
     inkscape:pageopacity="0.0"
     inkscape:pageshadow="2"
     inkscape:zoom="0.7"
     inkscape:cx="621.77305"
     inkscape:cy="200.77822"
     inkscape:document-units="px"
     inkscape:current-layer="layer1"
     showgrid="false"
     fit-margin-top="0"
     fit-margin-left="0"
     fit-margin-right="0"
     fit-margin-bottom="0"
     inkscape:window-width="1600"
     inkscape:window-height="837"
     inkscape:window-x="-8"
     inkscape:window-y="-8"
     inkscape:window-maximized="1" />
  <metadata
     id="metadata15633">
    <rdf:RDF>
      <cc:Work
         rdf:about="">
        <dc:format>image/svg+xml</dc:format>
        <dc:type
           rdf:resource="http://purl.org/dc/dcmitype/StillImage" />
        <dc:title></dc:title>
      </cc:Work>
    </rdf:RDF>
  </metadata>
  <g
     inkscape:label="Laag 1"
     inkscape:groupmode="layer"
     id="layer1"
     transform="translate(137.1633,-161.98798)">
    <rect
       style="fill:#ffeb01;fill-opacity:1;fill-rule:evenodd;stroke:none"
       id="rect14973"
       width="55.053314"
       height="65.659912"
       x="3.7528949"
       y="191.78746" />
    <rect
       style="fill:#004c98;fill-opacity:1;fill-rule:evenodd;stroke:none"
       id="rect15545"
       width="800.04089"
       height="173.74625"
       x="-137.1633"
       y="517.56158" />
    <rect
       style="fill:#ffeb01;fill-opacity:1;fill-rule:evenodd;stroke:none"
       id="rect15547"
       width="800.04089"
       height="355.5737"
       x="-137.1633"
       y="161.98798" />
    <rect
       style="fill:#be2716;fill-opacity:1;fill-rule:evenodd;stroke:none"
       id="rect15549"
       width="451.53821"
       height="175.76654"
       x="211.33939"
       y="161.98798" />
    <rect
       style="fill:#bd2716;fill-opacity:1;fill-rule:evenodd;stroke:none"
       id="rect15569"
       width="53.57143"
       height="16.785715"
       x="4.306911"
       y="215.92255" />
    <rect
       style="fill:#bd2716;fill-opacity:1;fill-rule:evenodd;stroke:none"
       id="rect15569-7"
       width="53.57143"
       height="16.785715"
       x="197.64232"
       y="-39.356655"
       transform="matrix(0,1,-1,0,0,0)" />
    <path
       style="fill:#ffffff;stroke:none"
       d="m -14.784904,205.46983 -9.1072,4.8214 -9.1071,8.2143 -5.357198,13.9286 -0.1785,19.8214 6.785698,14.8214 11.6071,16.7857 10.5357001,16.0715 8.74999998,23.0357 0.5358,3.5714 -2.67859998,7.6786 1.6071,8.5714 6.25,1.6071 4.2857,10.1786 -3.2142,5.7143 1.0714,3.75 5.3570999,0.7143 8.5715,-2.5 2.8571,5.5357 0.7143,7.1429 5.8928,7.8571 4.1072,2.1429 6.6071,-0.7143 3.2143,-2.6786 0,-1.6071 -5.3571,-2.6786 3.5714,-5.7143 2.5,-6.25 6.0714,0.8929 5.7143,5.3571 2.6786,2.5 5.8928,0.1786 -2.3214,-13.2143 0,-4.4643 3.5714,1.9643 6.0715,-1.6072 -3.3929,-8.5714 2.1429,-5.5357 5.3571,-5.5357 0.1786,-6.6072 -2.1429,-5.8928 0.5357,-13.5714 6.9643,-17.3215 13.9286,-25.1785 5.535704,-15.8929 0.8929,-14.4643 -2.857204,-11.9643 -7.6785,-12.1428 -5.1786,-7.8572 -3.6607,-3.5714 -5.7143,-0.7143 -8.5268,1.4732 -4.5089,3.3036 -2.1429,6.5625 3.1697,6.8304 2.8571,2.3214 5.8929,-2.5447 9.3303,-2.8571 3.2143,1.8304 1.25,3.3035 2.1429,7.0982 -1.25,16.4286 -8.4822,12.9464 -6.875,7.1875 -9.5536,11.8304 -9.2857,15 -8.0357,17.6786 -0.8928,10.3571 -20,0.7143 -14.6429,-29.1071 -11.42859992,-16.7858 -13.39280008,-13.75 -11.0715,-27.0535 1.9643,-10.9822 4.1965,-5.625 3.6607,0.5357 5.3571001,5.3572 3.125,-0.5357 4.8214,-3.3036 1.33929998,-5.2679 -1.87499998,-6.25 -2.8571,-3.3035 -3.3929,-0.7143 z"
       id="path14983-2"
       inkscape:connector-curvature="0" />
    <path
       style="fill:#000000"
       d="m 30.411396,384.85083 c -3.7306,-2.346 -7.3865,-9.4307 -7.3865,-14.3141 0,-2.1419 -0.7149,-4.1762 -1.8186,-5.1751 -1.6803,-1.5206 -2.1314,-1.5229 -5.9328,-0.03 -4.9871,1.959 -8.6355999,1.2308 -10.8626999,-2.1682 -1.5729,-2.4006 -1.5329,-2.6007 0.9874,-4.9364 3.1454,-2.915 3.1197,-2.6173 0.6267,-7.2687 -1.1,-2.0523 -2,-4.3007 -2,-4.9963 0,-0.6957 -1.0995,-1.2648 -2.4433,-1.2648 -5.0527,0 -7.1605,-7.9174 -4.0742,-15.3039 1.381,-3.3051 1.3081,-4.0839 -1.0636,-11.3721 -4.4211,-13.5859 -10.5790001,-25.2162 -18.7029001,-35.324 -7.1844,-8.939 -12.0507,-17.2804 -15.459798,-26.5 -2.8139,-7.61 -1.2617,-27.6486 2.750898,-35.5139 4.7675,-9.3451 21.9924,-18.8484 29.1810001,-16.0997 7.9454,3.0382 9.0677,15.8614 1.7207,19.6607 -4.1036,2.1221 -5.7679,1.8152 -9.0164001,-1.6623 -3.4691,-3.7137 -4.6057,-3.1535 -7.9235,3.9046 -3.036,6.4589 -2.3076,13.8829 2.3058,23.5027 4.1939,8.7451 7.5813,13.0626 15.3258001,19.5337 9.4865,7.9267 23.2278999,28.2143 28.9045999,42.6742 l 3.1407,8 7.403,0 c 7.0468,0 7.4361,-0.1203 8.0896,-2.5 0.3775,-1.375 1.6497,-6.1 2.827,-10.5 1.1773,-4.4 4.1198,-12.05 6.539,-17 3.7246,-7.6209 6.2947,-11.0202 16.7725,-22.1838 15.6902,-16.7172 19.2573,-22.8435 19.122,-32.841 -0.209,-15.4332 -4.9047,-19.7794 -14.9868,-13.8708 -7.3647,4.3159 -12.62,1.0109 -12.8177,-8.0609 -0.1082,-4.9676 2.0319,-8.0265 7.1235,-10.1816 3.7788,-1.5993 12.5962,-1.7994 15.3095,-0.3473 2.4721,1.3231 15.7741,19.2691 17.714404,23.8991 2.3831,5.6862 2.7677,18.466 0.8418,27.9705 -2.14,10.5611 -5.057804,17.0827 -13.474304,30.1158 -12.1653,18.8381 -16.1245,33.8946 -11.786,44.8208 2.2867,5.759 0.8873,11.5815 -3.3675,14.0103 -2.0676,1.1803 -2.7576,2.1952 -2.357,3.4669 0.3116,0.9888 0.077,2.3877 -0.5213,3.1086 -0.8103,0.9763 -0.5516,1.9923 1.0142,3.9828 1.6074,2.0434 1.8367,2.9919 0.9746,4.0307 -1.4712,1.7726 -5.4504,2.5041 -7.471,1.3733 -2.2937,-1.2837 -2.0636,0.9167 0.9267,8.8611 2.7049,7.1864 2.3927,8.2989 -2.3377,8.3302 -3.1529,0.021 -5.9909,-1.5583 -10.4343,-5.8059 -2.6922,-2.5736 -3.75,-3.121 -3.75,-1.9408 0,2.4834 -2.1278,3.2851 -3.2755,1.2341 -0.886,-1.5831 -1.2945,-1.2577 -3.2767,2.6096 l -2.2645,4.4183 2.6462,0.5077 c 3.2861,0.6305 3.8317,2.9542 1.3989,5.9585 -2.6351,3.2543 -10.5483,3.8872 -14.8419,1.1871 z m 11.4703,-2.0436 c 1.6168,-1.0245 0.7607,-1.6349 -3.6068,-2.5716 -3.7486,-0.804 -4.1354,-1.9939 -1.165,-3.5836 2.4322,-1.3017 5.8613,-8.3064 5.893,-12.0379 0.03,-3.5304 1.0173,-4.2308 3.1909,-2.2638 1.703,1.5412 1.8311,1.5413 1.8311,0 0,-2.1896 1.8885,-2.1235 2.7139,0.095 1.2071,3.2445 4.7355,7.3646 8.074,9.4279 1.8245,1.1276 3.5169,1.8506 3.7609,1.6066 0.2439,-0.2439 -0.8685,-2.8827 -2.4722,-5.864 -2.4465,-4.5482 -2.965,-6.7884 -3.2222,-13.9205 -0.3777,-10.4745 1.4118,-11.5042 2.2082,-1.2707 0.6214,7.9838 1.9374,10.9981 1.9374,4.4373 0,-4.7562 1.0479,-5.2687 3.408,-1.6666 0.901,1.375 2.5277,2.5 3.6151,2.5 2.2873,0 2.3845,-0.3698 0.8508,-3.2356 -0.6193,-1.1572 -1.2616,-4.5432 -1.4272,-7.5244 -0.295,-5.3076 -0.2503,-5.4076 2.148,-4.8056 4.151,1.0418 4.3,-1.6759 0.7042,-12.8408 -1.0882,-3.3789 1.7757,-0.6544 3.4461,3.2785 0.8475,1.9953 1.7405,3.0611 1.9844,2.3684 0.244,-0.6928 -0.4137,-2.7178 -1.4614,-4.5 l -1.9051,-3.2405 -10.4314,0.3316 c -7.8692,0.2502 -11.3447,-0.057 -14.1494,-1.25 -2.3695,-1.0078 -6.6691,-1.5814 -11.8556,-1.5814 -7.1649,0 -8.484,0.2913 -11.0336,2.4366 -2.486,2.0918 -3.8152,2.4111 -9.3943,2.256 -3.5742,-0.099 -6.4985999,-0.4904 -6.4985999,-0.8692 0,-1.2816 4.0642999,-1.9884 7.8026999,-1.3568 2.9324,0.4955 4.1809,0.1973 5.9069,-1.4107 2.1847,-2.0354 2.1853,-2.0482 0.3628,-7.3455 -2.4597,-7.1493 -5.7612,-13.4872 -9.214,-17.6883 -1.5721,-1.9128 -2.8584,-4.5144 -2.8584,-5.7814 0,-1.2669 -0.675,-2.5625 -1.4999999,-2.8791 -0.825,-0.3166 -1.5,-1.4171 -1.5,-2.4456 0,-1.0284 -1.125,-2.6071 -2.5,-3.508 -1.375,-0.9009 -2.5,-2.4759 -2.5,-3.5 0,-1.0241 -1.2375,-2.649 -2.75000002,-3.611 -1.51249998,-0.962 -3.15019998,-2.3945 -3.63939998,-3.1834 -0.4892,-0.7889 -3.2051,-3.9532 -6.0353,-7.0318 -9.9303001,-10.8016 -15.5753001,-21.1431 -15.5753001,-28.5335 0,-1.8867 -0.5152,-3.7487 -1.145,-4.138 -0.8354,-0.5163 -1.0097,1.1829 -0.6447,6.2851 0.7607,10.6313 6.3142,21.295 19.2702001,37.0022 8.01279998,9.7142 20.8083999,36.4135 18.5388999,38.683 -0.6925,0.6925 -1.0194,0.4742 -1.0194,-0.6806 0,-1.1467 -0.8136999,-1.7 -2.4999999,-1.7 -2.8695,0 -3.1751,-0.7859 -0.941,-2.4195 2.1996,-1.6084 0.2847,-6.5805 -2.5342,-6.5805 -2.1814,0 -2.7814,-1.5812 -0.8449,-2.2267 1.7506,-0.5835 0.147,-3.8751 -2.185,-4.4849 -2.1518,-0.5627 -2.5967,-1.7984 -1.00230002,-2.7838 2.23270002,-1.3799 -10.24210008,-19.8136 -14.08960008,-20.8197 -1.1978,-0.3133 -1.8122,-1.0229 -1.4262,-1.6474 0.6211,-1.0049 -4.4495,-9.7376 -8.441,-14.5375 -3.3035,-3.9725 -5.3199,-15.5212 -4.5755,-26.2049 0.5657,-8.119 0.4135,-10.1374 -0.8896,-11.7951 -1.5657,-1.992 -1.5795,-1.9912 -3.4426,0.2018 -1.9899,2.3422 -4.1281,13.8189 -4.1281,22.1575 0,10.6055 5.8784,23.3995 17.3397,37.7392 8.1917,10.2488 13.0974001,19.5015 17.7091001,33.4015 1.73349998,5.225 3.8515,10.2875 4.7065,11.25 1.4092,1.5862 1.4031,1.75 -0.065,1.75 -1.85820002,0 -3.15200002,2.1435 -3.9997,6.6267 -0.7408,3.9183 0.89329998,6.1531 4.7977,6.561 2.622,0.274 3.0651,0.7894 3.6159,4.2057 0.462,2.8656 1.7244,4.8761 4.7818999,7.6159 4.1908,3.7554 4.6641,6.1819 1.4465,7.4166 -2.1377,0.8203 -3.5799999,-0.3323 -2.8495,-2.2771 0.4491,-1.1957 0.022,-1.0583 -1.5531999,0.5003 -4.2303,4.1848 0.9105,5.9651 6.8201999,2.3618 4.0416,-2.4642 4.2109,-5.4049 0.7403,-12.8602 -2.6676,-5.7302 -2.9907,-7.1507 -1.6268,-7.1507 1.3406,0 6.2974,11.7668 6.8977,16.3742 0.2956,2.2692 1.3703,5.199 2.3882,6.5106 1.0178,1.3117 1.8506,3.9437 1.8506,5.8489 0,4.238 2.5354,9.8274 5.3529,11.8009 2.291,1.6046 8.355,1.9366 10.5039,0.5751 z m -7.1707,-25.1263 c -3.7707,-1.1318 -5.6861,-2.8405 -5.6861,-5.0722 0,-1.7433 0.1942,-1.7292 3.5637,0.2588 2.4872,1.4675 3.8806,1.7857 4.6128,1.0534 1.2452,-1.2451 0.2552,-3.2234 -1.6131,-3.2234 -4.0406,0 -4.4238,-7.2748 -0.4496,-8.5362 3.2613,-1.0351 4.9893,1.581 5.617,8.5044 0.4283,4.7228 0.2267,6.4451 -0.8329,7.116 -1.6038,1.0155 -1.4852,1.0178 -5.2118,-0.1008 z m -9.9986,-18.6293 c -1.471,-1.471 -0.6974,-4.5027 1.0625,-4.1638 0.9625,0.1854 1.75,1.1934 1.75,2.24 0,1.9896 -1.6311,3.1053 -2.8125,1.9238 z m 48.7974,-23.5407 c 1.8172,-10.3948 6.7699,-22.466 12.9318,-31.5183 7.8878,-11.5878 11.6123,-19.6826 13.691704,-29.7574 2.3596,-11.4326 2.3719,-17.2754 0.049,-23.277 -3.613004,-9.3345 -9.815004,-17.9365 -11.626204,-16.1252 -0.3107,0.3106 0.3878,4.5697 1.5521,9.4646 2.4809,10.4302 2.2273,17.0611 -0.8993,23.5199 -2.3161,4.7845 -2.7229,6.88 -1.3356,6.88 1.7616,0 4.3242,-8.8057 4.8668,-16.723 0.5587,-8.1536 2.2849,-10.6769 2.2849,-3.34 0,2.8288 0.5834,4.226 2.25,5.3885 l 2.25,1.5696 -2.143,0.052 c -3.1429,0.077 -4.9762,6.0525 -1.857,6.0525 0.825,0 1.5,0.45 1.5,1 0,0.55 -0.9145,1 -2.0322,1 -2.9134,0 -4.2142,3.9556 -2.107,6.407 1.5536,1.8074 1.5186,1.8767 -0.6718,1.3276 -2.9666,-0.7436 -4.7246,2.905 -2.5761,5.3465 1.6209,1.8419 0.8762,3.0438 -1.3553,2.1875 -0.8871,-0.3405 -2.1116,0.1787 -2.871,1.2174 -1.1154,1.5253 -1.0615,2.2558 0.342,4.6317 1.9878,3.365 1.2757,4.5227 -1.6617,2.7016 -3.0306,-1.879 -4.4988,0.5919 -2.324,3.911 1.5326,2.3391 1.505,2.387 -1.202,2.0819 -3.802,-0.4285 -5.6157,2.3426 -3.2467,4.9604 2.0522,2.2676 1.1885,3.5561 -1.4405,2.149 -2.4361,-1.3037 -3.4892,1.0224 -1.8497,4.0859 1.4316,2.675 0.5895,3.7299 -1.556,1.9493 -1.3373,-1.1099 -1.7498,-1.0922 -2.5089,0.1075 -1.2465,1.9699 -1.1712,2.4981 0.5609,3.9357 2.2577,1.8737 1.9815,4.328 -0.3468,3.082 -3.6,-1.9267 -5.5264,2.7202 -2.685,6.4768 2.1039,2.7817 1.886,3.3419 -1.2172,3.1294 -3.7028,-0.2536 -4.337,3.5269 -1.1591,6.9096 2.3242,2.474 2.0908,2.7638 -1.954,2.4266 -4.3566,-0.3632 -1.6897,2.3551 3.4325,3.4987 2.7113,0.6053 5.0886,0.9888 5.2828,0.8521 0.1943,-0.1366 0.9286,-3.5394 1.6317,-7.5618 z m -19.1164,6.3116 c 1.3547,-0.5324 2.8109,-3.9822 5.2956,-12.5452 4.1518,-14.3084 7.9511,-22.0446 18.9396,-38.5651 8.3447,-12.5456 9.5394,-15.0494 7.1463,-14.9768 -1.8527,0.056 -6.75,7.6136 -6.75,10.4164 0,2.7226 -1.5456,4.2312 -2.3584,2.3019 -0.579,-1.3747 -8.2509,6.5018 -9.1972,9.4426 -0.3007,0.9344 -1.4013,1.9701 -2.4459,2.3016 -2.8837,0.9153 -6.3183,7.0892 -5.5801,10.0305 0.5098,2.0311 0.2517,2.4691 -1.4547,2.4691 -1.5367,0 -2.7123,1.3935 -4.5361,5.3772 -2.9871,6.5245 -6.8099,21.1843 -6.0444,23.179 0.5861,1.5272 3.8671,1.7944 6.9853,0.5688 z m -0.8258,-12.0559 c -0.3164,-0.512 -0.118,-1.2136 0.441,-1.5591 0.559,-0.3454 1.0448,-1.614 1.0797,-2.8191 0.061,-2.1033 0.1023,-2.0936 1.0361,0.2438 1.4488,3.6264 -0.7116,7.1199 -2.5568,4.1344 z m 4.4573,-11.0691 c 0,-1.65 0.45,-3 1,-3 0.55,0 1,1.35 1,3 0,1.65 -0.45,3 -1,3 -0.55,0 -1,-1.35 -1,-3 z m -62.1896999,-77.2981 c 4.09369998,-4.3575 3.76469998,-10.9251 -0.7236,-14.4469 -2.1644,-1.6983 -8.3647001,-0.6303 -14.5867001,2.5126 l -5,2.5256 3.9337,1.3646 c 4.1775,1.4492 7.5663,3.988 7.5663,5.6684 0,1.6786 3.1919001,4.6738 4.9807001,4.6738 0.9189,0 2.6422,-1.0342 3.8296,-2.2981 z m -1.7106,-3.8929 c 0.055,-0.72 0.46,-2.434 0.9003,-3.809 0.7646,-2.3875 0.8051,-2.3564 0.9003,0.6909 0.055,1.7551 -0.3503,3.4691 -0.9003,3.8091 -0.55,0.3399 -0.9551,0.029 -0.9003,-0.691 z m 81.1725999,0.3329 c 5.1277,-4.6794 7.7857,-6.1419 11.162,-6.1419 3.3203,0 3.2376,-1.2174 -0.3557,-5.2343 -2.6525,-2.9653 -3.4166,-3.2544 -8.3049,-3.1423 -5.8987,0.1353 -11.1398,2.3236 -12.7441,5.3212 -1.7022,3.1806 -1.2095,8.4852 1.0094,10.8668 2.8356,3.0437 4.3734,2.7656 9.2333,-1.6695 z"
       id="path14981-5"
       inkscape:connector-curvature="0" />
  </g>
</svg>
