<?xml version="1.0" encoding="UTF-8" standalone="no"?>
<!-- Created with Inkscape (http://www.inkscape.org/) -->
<svg
   xmlns:dc="http://purl.org/dc/elements/1.1/"
   xmlns:cc="http://web.resource.org/cc/"
   xmlns:rdf="http://www.w3.org/1999/02/22-rdf-syntax-ns#"
   xmlns:svg="http://www.w3.org/2000/svg"
   xmlns="http://www.w3.org/2000/svg"
   xmlns:sodipodi="http://sodipodi.sourceforge.net/DTD/sodipodi-0.dtd"
   xmlns:inkscape="http://www.inkscape.org/namespaces/inkscape"
   id="svg2460"
   sodipodi:version="0.32"
   inkscape:version="0.45.1"
   width="600"
   height="400"
   version="1.0"
   sodipodi:docbase="C:\TIIKERI\Liput\Alankomaat\provinssit\Overijssel - kunnat\svg"
   sodipodi:docname="Losser.svg"
   inkscape:output_extension="org.inkscape.output.svg.inkscape">
  <metadata
     id="metadata2465">
    <rdf:RDF>
      <cc:Work
         rdf:about="">
        <dc:format>image/svg+xml</dc:format>
        <dc:type
           rdf:resource="http://purl.org/dc/dcmitype/StillImage" />
      </cc:Work>
    </rdf:RDF>
  </metadata>
  <defs
     id="defs2463" />
  <sodipodi:namedview
     inkscape:window-height="712"
     inkscape:window-width="1024"
     inkscape:pageshadow="2"
     inkscape:pageopacity="0.0"
     guidetolerance="10.0"
     gridtolerance="10.0"
     objecttolerance="10.0"
     borderopacity="1.0"
     bordercolor="#666666"
     pagecolor="#ffffff"
     id="base"
     showguides="true"
     inkscape:guide-bbox="true"
     inkscape:zoom="1.0534905"
     inkscape:cx="277.4038"
     inkscape:cy="220.97305"
     inkscape:window-x="-4"
     inkscape:window-y="-4"
     inkscape:current-layer="svg2460"
     width="600px"
     height="400px">
    <sodipodi:guide
       orientation="horizontal"
       position="162.81167"
       id="guide2473" />
    <sodipodi:guide
       orientation="horizontal"
       position="17.665782"
       id="guide2475" />
    <sodipodi:guide
       orientation="vertical"
       position="35.809019"
       id="guide2477" />
    <sodipodi:guide
       orientation="vertical"
       position="53.952255"
       id="guide2479" />
    <sodipodi:guide
       orientation="vertical"
       position="215.33156"
       id="guide2481" />
    <sodipodi:guide
       orientation="vertical"
       position="234.42971"
       id="guide2483" />
    <sodipodi:guide
       orientation="horizontal"
       position="126.04775"
       id="guide2485" />
    <sodipodi:guide
       orientation="horizontal"
       position="54.429708"
       id="guide2487" />
  </sodipodi:namedview>
  <g
     id="g2521"
     inkscape:export-filename="C:\TIIKERI\Liput\Alankomaat\provinssit\Overijssel - kunnat\svg\Losser.png"
     inkscape:export-xdpi="266.67001"
     inkscape:export-ydpi="266.67001"
     transform="scale(2.2222222,2.2222222)">
    <rect
       y="0"
       x="0"
       height="180"
       width="270"
       id="rect2471"
       style="opacity:1;fill:#ffffff;fill-opacity:1;stroke:none;stroke-opacity:1" />
    <g
       id="g2508">
      <rect
         style="opacity:1;fill:#cc112f;fill-opacity:1;stroke:none;stroke-opacity:1"
         id="rect2489"
         width="35.809017"
         height="36.76392"
         x="0"
         y="17.120796" />
      <path
         style="fill:#cc112f;fill-opacity:1"
         d="M 123.0453,88.09457 C 110.28646,85.404089 99.459018,75.772108 93.894437,62.162251 L 90.606578,54.120797 L 72.303287,54.120797 L 53.999998,54.120797 L 53.999998,35.620797 L 53.999998,17.120797 L 82.499997,17.120797 L 111,17.120797 L 111,23.410698 C 111,33.730637 115.07528,46.160562 120.36285,51.968115 C 127.91537,60.263356 142.08462,60.263356 149.63715,51.968115 C 154.92472,46.160562 159,33.730637 159,23.410698 L 159,17.120797 L 187.5,17.120797 L 216,17.120797 L 216,35.620797 L 216,54.120797 L 197.69671,54.120797 L 179.39342,54.120797 L 176.0313,62.370797 C 171.62226,73.189707 162.66067,82.613256 153.5,86.063554 C 146.69082,88.628174 130.64908,89.697994 123.0453,88.09457 z "
         id="path2469" />
      <rect
         style="opacity:1;fill:#cc112f;fill-opacity:1;stroke:none;stroke-opacity:1"
         id="rect2500"
         width="35.809017"
         height="36.76392"
         x="234.19098"
         y="17.120796" />
    </g>
    <g
       transform="matrix(-1,0,0,-1,270,179.45501)"
       id="g2513">
      <rect
         style="opacity:1;fill:#cc112f;fill-opacity:1;stroke:none;stroke-opacity:1"
         id="rect2515"
         width="35.809017"
         height="36.76392"
         x="0"
         y="17.120796" />
      <path
         style="fill:#cc112f;fill-opacity:1"
         d="M 123.0453,88.09457 C 110.28646,85.404089 99.459018,75.772108 93.894437,62.162251 L 90.606578,54.120797 L 72.303287,54.120797 L 53.999998,54.120797 L 53.999998,35.620797 L 53.999998,17.120797 L 82.499997,17.120797 L 111,17.120797 L 111,23.410698 C 111,33.730637 115.07528,46.160562 120.36285,51.968115 C 127.91537,60.263356 142.08462,60.263356 149.63715,51.968115 C 154.92472,46.160562 159,33.730637 159,23.410698 L 159,17.120797 L 187.5,17.120797 L 216,17.120797 L 216,35.620797 L 216,54.120797 L 197.69671,54.120797 L 179.39342,54.120797 L 176.0313,62.370797 C 171.62226,73.189707 162.66067,82.613256 153.5,86.063554 C 146.69082,88.628174 130.64908,89.697994 123.0453,88.09457 z "
         id="path2517" />
      <rect
         style="opacity:1;fill:#cc112f;fill-opacity:1;stroke:none;stroke-opacity:1"
         id="rect2519"
         width="35.809017"
         height="36.76392"
         x="234.19098"
         y="17.120796" />
    </g>
  </g>
</svg>
