<?xml version="1.0" encoding="UTF-8" standalone="no"?>
<!-- Created with Inkscape (http://www.inkscape.org/) -->

<svg
   xmlns:dc="http://purl.org/dc/elements/1.1/"
   xmlns:cc="http://creativecommons.org/ns#"
   xmlns:rdf="http://www.w3.org/1999/02/22-rdf-syntax-ns#"
   xmlns:svg="http://www.w3.org/2000/svg"
   xmlns="http://www.w3.org/2000/svg"
   xmlns:sodipodi="http://sodipodi.sourceforge.net/DTD/sodipodi-0.dtd"
   xmlns:inkscape="http://www.inkscape.org/namespaces/inkscape"
   width="455.5788"
   height="303.55084"
   id="svg4198"
   version="1.1"
   inkscape:version="0.48.4 r9939"
   sodipodi:docname="Nieuw document 7">
  <defs
     id="defs4200" />
  <sodipodi:namedview
     id="base"
     pagecolor="#ffffff"
     bordercolor="#666666"
     borderopacity="1.0"
     inkscape:pageopacity="0.0"
     inkscape:pageshadow="2"
     inkscape:zoom="1.4"
     inkscape:cx="352.57776"
     inkscape:cy="135.92319"
     inkscape:document-units="px"
     inkscape:current-layer="layer1"
     showgrid="false"
     fit-margin-top="0"
     fit-margin-left="0"
     fit-margin-right="0"
     fit-margin-bottom="0"
     inkscape:window-width="1600"
     inkscape:window-height="837"
     inkscape:window-x="-8"
     inkscape:window-y="-8"
     inkscape:window-maximized="1" />
  <metadata
     id="metadata4203">
    <rdf:RDF>
      <cc:Work
         rdf:about="">
        <dc:format>image/svg+xml</dc:format>
        <dc:type
           rdf:resource="http://purl.org/dc/dcmitype/StillImage" />
        <dc:title></dc:title>
      </cc:Work>
    </rdf:RDF>
  </metadata>
  <g
     inkscape:label="Laag 1"
     inkscape:groupmode="layer"
     id="layer1"
     transform="translate(-75.067741,-294.87247)">
    <rect
       style="fill:#db151f;fill-opacity:1;fill-rule:evenodd;stroke:none"
       id="rect3012"
       width="455.5788"
       height="303.55084"
       x="75.067741"
       y="294.87247" />
    <rect
       style="fill:#ffffff;fill-opacity:1;fill-rule:evenodd;stroke:none"
       id="rect3014"
       width="465.5788"
       height="103.03556"
       x="70.067741"
       y="395.88773" />
    <rect
       style="fill:#ffffff;fill-opacity:1;fill-rule:evenodd;stroke:none"
       id="rect3016"
       width="102.53048"
       height="314.26514"
       x="175.57793"
       y="289.15817" />
    <path
       inkscape:connector-curvature="0"
       id="path8269-0-9"
       d="m 113.92739,380.98791 c -1.2936,-0.2761 -2.9481,-0.9948 -4.3607,-1.8941 -2.0702,-1.3181 -3.4447,-1.7679 -5.95,-1.9472 l -2.1053,-0.1506 -0.2833,-1.3598 c -0.461,-2.2123 -1.600596,-4.1516 -3.561796,-6.0615 -2.0549,-2.0013 -3.2451,-3.7207 -3.7638,-5.438 -0.7838,-2.5941 -0.3043,-4.7574 1.442,-6.5044 1.6521,-1.6526 3.2942,-2.202 7.904296,-2.6452 4.263,-0.4099 6.6914,-1.0617 7.7623,-2.0835 0.8856,-0.8452 0.9384,-1.6124 0.1596,-2.3188 -1.1113,-1.0081 -1.8024,-1.2137 -4.0387,-1.2007 -1.789,0.01 -2.4783,0.1392 -3.8464,0.7187 -3.881996,1.644 -5.380596,2.0225 -8.095296,2.0448 -2.4412,0.02 -2.6499,-0.021 -3.8191,-0.7453 -2.3853,-1.4775 -3.4671,-4.6846 -3.4754,-10.3024 0,-2.5405 -0.3506,-5.2343 -0.8922,-6.9342 -0.1007,-0.3175 0.3337,-0.7882 1.5969,-1.7289 2.3782,-1.7709 3.2322,-2.72 4.192,-4.6593 1.7209,-3.4778 3.6135,-5.8168 5.2924,-6.5403 1.181,-0.509 2.814296,-0.4391 4.088496,0.1752 1.7539,0.8456 4.8282,4.5725 5.9803,7.2496 1.0521,2.4445 3.7545,4.5824 5.5993,4.4295 0.9094,-0.075 0.9464,-0.1168 1.0216,-1.145 0.1136,-1.5564 -1.5038,-4.5319 -4.2754,-7.8659 -2.2112,-2.6595 -3.6184,-6.3843 -3.2587,-8.6255 0.3659,-2.279 1.7722,-3.9194 4.1649,-4.8585 0.685,-0.2687 2.7052,-0.6405 4.5143,-0.8308 3.9677,-0.4174 5.386,-0.9895 7.3204,-2.9522 l 1.3635,-1.3838 0.5484,0.7662 c 2.0086,2.8056 5.1487,4.1876 9.5632,4.2091 4.0054,0.021 6.7842,2.7529 6.4568,6.3508 -0.2182,2.3947 -1.2359,4.1 -4.4585,7.4703 -2.2819,2.3864 -2.9652,3.2768 -3.3976,4.4282 -0.8928,2.377 -0.6329,4.5811 0.5759,4.8832 1.5052,0.3765 3.4405,-1.6363 5.8054,-6.0377 4.0448,-7.5269 9.7881,-9.8021 13.5882,-5.3826 0.563,0.6548 1.7948,2.7423 2.7375,4.6386 1.5665,3.1517 1.9034,3.6349 3.922,5.6238 l 2.2083,2.1755 -0.6336,1.7832 c -0.5279,1.4859 -0.6331,2.2509 -0.6306,4.5924 0,1.5452 0.095,3.9082 0.2083,5.2511 0.1635,1.9449 0.1222,2.7274 -0.2052,3.8471 -0.8887,3.0452 -2.8514,4.5658 -5.8932,4.5658 -2.1941,0 -3.5707,-0.4546 -6.801,-2.2462 -3.4593,-1.9184 -5.7588,-2.8245 -7.6734,-3.024 -1.6785,-0.1747 -2.6214,0.1502 -2.6214,0.9029 0,1.4777 3.2158,3.2612 7.4096,4.1089 7.0574,1.4264 10.7722,4.7078 9.9987,8.8323 -0.3698,1.9715 -1.5056,3.6763 -4.5271,6.7955 -3.002,3.0991 -3.891,4.4938 -3.9006,6.1208 l 0,0.9301 -2.6381,-0.1341 c -3.2196,-0.1634 -4.4236,0.1397 -8.1893,2.0626 -5.0795,2.5942 -7.9705,2.4634 -9.319,-0.4214 -0.5292,-1.1316 -0.6195,-1.7112 -0.6215,-3.986 0,-1.464 0.1825,-3.6456 0.4087,-4.8483 0.6314,-3.3563 0.1334,-5.5063 -1.4249,-6.1491 -1.113,-0.459 -2.1761,0.036 -2.9431,1.371 -0.841,1.4637 -0.9872,2.9762 -0.5339,5.52 0.7919,4.4425 0.3545,7.1843 -1.4297,8.9614 -1.4033,1.3978 -4.0408,2.0705 -6.2599,1.5967 z m 12.9912,-27.7002 c 2.1893,-0.543 4.6833,-3.0459 5.4,-5.4197 0.5649,-1.8715 0.3899,-4.4253 -0.428,-6.2308 -2.9155,-6.4382 -11.7091,-6.5025 -14.7193,-0.1075 -0.5777,1.2275 -0.6797,1.7896 -0.6797,3.7429 0,1.8693 0.1085,2.5168 0.5782,3.4671 1.2936,2.6149 3.5948,4.4044 6.1997,4.8213 1.204,0.1925 2.0149,0.132 3.6491,-0.2733 z"
       style="fill:#f9f9f9;fill-opacity:1;stroke:none" />
  </g>
</svg>
