<?xml version="1.0" encoding="UTF-8" standalone="no"?>
<!-- Created with Inkscape (http://www.inkscape.org/) -->

<svg
   xmlns:dc="http://purl.org/dc/elements/1.1/"
   xmlns:cc="http://creativecommons.org/ns#"
   xmlns:rdf="http://www.w3.org/1999/02/22-rdf-syntax-ns#"
   xmlns:svg="http://www.w3.org/2000/svg"
   xmlns="http://www.w3.org/2000/svg"
   xmlns:sodipodi="http://sodipodi.sourceforge.net/DTD/sodipodi-0.dtd"
   xmlns:inkscape="http://www.inkscape.org/namespaces/inkscape"
   id="svg2816"
   version="1.1"
   inkscape:version="0.47 r22583"
   width="326"
   height="217"
   sodipodi:docname="Tubbergen vlag.svg">
  <metadata
     id="metadata2822">
    <rdf:RDF>
      <cc:Work
         rdf:about="">
        <dc:format>image/svg+xml</dc:format>
        <dc:type
           rdf:resource="http://purl.org/dc/dcmitype/StillImage" />
        <dc:title></dc:title>
      </cc:Work>
    </rdf:RDF>
  </metadata>
  <defs
     id="defs2820">
    <inkscape:perspective
       sodipodi:type="inkscape:persp3d"
       inkscape:vp_x="0 : 0.5 : 1"
       inkscape:vp_y="0 : 1000 : 0"
       inkscape:vp_z="1 : 0.5 : 1"
       inkscape:persp3d-origin="0.5 : 0.33333333 : 1"
       id="perspective2824" />
    <inkscape:perspective
       id="perspective3630"
       inkscape:persp3d-origin="0.5 : 0.33333333 : 1"
       inkscape:vp_z="1 : 0.5 : 1"
       inkscape:vp_y="0 : 1000 : 0"
       inkscape:vp_x="0 : 0.5 : 1"
       sodipodi:type="inkscape:persp3d" />
    <inkscape:perspective
       id="perspective3660"
       inkscape:persp3d-origin="0.5 : 0.33333333 : 1"
       inkscape:vp_z="1 : 0.5 : 1"
       inkscape:vp_y="0 : 1000 : 0"
       inkscape:vp_x="0 : 0.5 : 1"
       sodipodi:type="inkscape:persp3d" />
    <inkscape:perspective
       id="perspective3690"
       inkscape:persp3d-origin="0.5 : 0.33333333 : 1"
       inkscape:vp_z="1 : 0.5 : 1"
       inkscape:vp_y="0 : 1000 : 0"
       inkscape:vp_x="0 : 0.5 : 1"
       sodipodi:type="inkscape:persp3d" />
    <inkscape:perspective
       id="perspective5830"
       inkscape:persp3d-origin="0.5 : 0.33333333 : 1"
       inkscape:vp_z="1 : 0.5 : 1"
       inkscape:vp_y="0 : 1000 : 0"
       inkscape:vp_x="0 : 0.5 : 1"
       sodipodi:type="inkscape:persp3d" />
    <inkscape:perspective
       id="perspective5844"
       inkscape:persp3d-origin="0.5 : 0.33333333 : 1"
       inkscape:vp_z="1 : 0.5 : 1"
       inkscape:vp_y="0 : 1000 : 0"
       inkscape:vp_x="0 : 0.5 : 1"
       sodipodi:type="inkscape:persp3d" />
    <inkscape:perspective
       id="perspective5858"
       inkscape:persp3d-origin="0.5 : 0.33333333 : 1"
       inkscape:vp_z="1 : 0.5 : 1"
       inkscape:vp_y="0 : 1000 : 0"
       inkscape:vp_x="0 : 0.5 : 1"
       sodipodi:type="inkscape:persp3d" />
    <inkscape:perspective
       id="perspective5880"
       inkscape:persp3d-origin="0.5 : 0.33333333 : 1"
       inkscape:vp_z="1 : 0.5 : 1"
       inkscape:vp_y="0 : 1000 : 0"
       inkscape:vp_x="0 : 0.5 : 1"
       sodipodi:type="inkscape:persp3d" />
    <inkscape:perspective
       id="perspective5880-4"
       inkscape:persp3d-origin="0.5 : 0.33333333 : 1"
       inkscape:vp_z="1 : 0.5 : 1"
       inkscape:vp_y="0 : 1000 : 0"
       inkscape:vp_x="0 : 0.5 : 1"
       sodipodi:type="inkscape:persp3d" />
    <inkscape:perspective
       id="perspective5880-9"
       inkscape:persp3d-origin="0.5 : 0.33333333 : 1"
       inkscape:vp_z="1 : 0.5 : 1"
       inkscape:vp_y="0 : 1000 : 0"
       inkscape:vp_x="0 : 0.5 : 1"
       sodipodi:type="inkscape:persp3d" />
    <inkscape:perspective
       id="perspective5920"
       inkscape:persp3d-origin="0.5 : 0.33333333 : 1"
       inkscape:vp_z="1 : 0.5 : 1"
       inkscape:vp_y="0 : 1000 : 0"
       inkscape:vp_x="0 : 0.5 : 1"
       sodipodi:type="inkscape:persp3d" />
    <inkscape:perspective
       id="perspective5920-8"
       inkscape:persp3d-origin="0.5 : 0.33333333 : 1"
       inkscape:vp_z="1 : 0.5 : 1"
       inkscape:vp_y="0 : 1000 : 0"
       inkscape:vp_x="0 : 0.5 : 1"
       sodipodi:type="inkscape:persp3d" />
    <inkscape:perspective
       id="perspective6463"
       inkscape:persp3d-origin="0.5 : 0.33333333 : 1"
       inkscape:vp_z="1 : 0.5 : 1"
       inkscape:vp_y="0 : 1000 : 0"
       inkscape:vp_x="0 : 0.5 : 1"
       sodipodi:type="inkscape:persp3d" />
    <inkscape:perspective
       id="perspective6485"
       inkscape:persp3d-origin="0.5 : 0.33333333 : 1"
       inkscape:vp_z="1 : 0.5 : 1"
       inkscape:vp_y="0 : 1000 : 0"
       inkscape:vp_x="0 : 0.5 : 1"
       sodipodi:type="inkscape:persp3d" />
    <inkscape:perspective
       id="perspective6485-5"
       inkscape:persp3d-origin="0.5 : 0.33333333 : 1"
       inkscape:vp_z="1 : 0.5 : 1"
       inkscape:vp_y="0 : 1000 : 0"
       inkscape:vp_x="0 : 0.5 : 1"
       sodipodi:type="inkscape:persp3d" />
    <inkscape:perspective
       id="perspective6532"
       inkscape:persp3d-origin="0.5 : 0.33333333 : 1"
       inkscape:vp_z="1 : 0.5 : 1"
       inkscape:vp_y="0 : 1000 : 0"
       inkscape:vp_x="0 : 0.5 : 1"
       sodipodi:type="inkscape:persp3d" />
    <inkscape:perspective
       id="perspective6532-6"
       inkscape:persp3d-origin="0.5 : 0.33333333 : 1"
       inkscape:vp_z="1 : 0.5 : 1"
       inkscape:vp_y="0 : 1000 : 0"
       inkscape:vp_x="0 : 0.5 : 1"
       sodipodi:type="inkscape:persp3d" />
    <inkscape:perspective
       id="perspective6592"
       inkscape:persp3d-origin="0.5 : 0.33333333 : 1"
       inkscape:vp_z="1 : 0.5 : 1"
       inkscape:vp_y="0 : 1000 : 0"
       inkscape:vp_x="0 : 0.5 : 1"
       sodipodi:type="inkscape:persp3d" />
    <inkscape:perspective
       id="perspective6614"
       inkscape:persp3d-origin="0.5 : 0.33333333 : 1"
       inkscape:vp_z="1 : 0.5 : 1"
       inkscape:vp_y="0 : 1000 : 0"
       inkscape:vp_x="0 : 0.5 : 1"
       sodipodi:type="inkscape:persp3d" />
    <inkscape:perspective
       id="perspective6628"
       inkscape:persp3d-origin="0.5 : 0.33333333 : 1"
       inkscape:vp_z="1 : 0.5 : 1"
       inkscape:vp_y="0 : 1000 : 0"
       inkscape:vp_x="0 : 0.5 : 1"
       sodipodi:type="inkscape:persp3d" />
    <inkscape:perspective
       id="perspective6658"
       inkscape:persp3d-origin="0.5 : 0.33333333 : 1"
       inkscape:vp_z="1 : 0.5 : 1"
       inkscape:vp_y="0 : 1000 : 0"
       inkscape:vp_x="0 : 0.5 : 1"
       sodipodi:type="inkscape:persp3d" />
    <inkscape:perspective
       id="perspective6672"
       inkscape:persp3d-origin="0.5 : 0.33333333 : 1"
       inkscape:vp_z="1 : 0.5 : 1"
       inkscape:vp_y="0 : 1000 : 0"
       inkscape:vp_x="0 : 0.5 : 1"
       sodipodi:type="inkscape:persp3d" />
    <inkscape:perspective
       id="perspective6694"
       inkscape:persp3d-origin="0.5 : 0.33333333 : 1"
       inkscape:vp_z="1 : 0.5 : 1"
       inkscape:vp_y="0 : 1000 : 0"
       inkscape:vp_x="0 : 0.5 : 1"
       sodipodi:type="inkscape:persp3d" />
    <inkscape:perspective
       id="perspective7278"
       inkscape:persp3d-origin="0.5 : 0.33333333 : 1"
       inkscape:vp_z="1 : 0.5 : 1"
       inkscape:vp_y="0 : 1000 : 0"
       inkscape:vp_x="0 : 0.5 : 1"
       sodipodi:type="inkscape:persp3d" />
    <inkscape:perspective
       id="perspective7292"
       inkscape:persp3d-origin="0.5 : 0.33333333 : 1"
       inkscape:vp_z="1 : 0.5 : 1"
       inkscape:vp_y="0 : 1000 : 0"
       inkscape:vp_x="0 : 0.5 : 1"
       sodipodi:type="inkscape:persp3d" />
    <inkscape:perspective
       id="perspective8096"
       inkscape:persp3d-origin="0.5 : 0.33333333 : 1"
       inkscape:vp_z="1 : 0.5 : 1"
       inkscape:vp_y="0 : 1000 : 0"
       inkscape:vp_x="0 : 0.5 : 1"
       sodipodi:type="inkscape:persp3d" />
    <inkscape:perspective
       id="perspective8110"
       inkscape:persp3d-origin="0.5 : 0.33333333 : 1"
       inkscape:vp_z="1 : 0.5 : 1"
       inkscape:vp_y="0 : 1000 : 0"
       inkscape:vp_x="0 : 0.5 : 1"
       sodipodi:type="inkscape:persp3d" />
    <inkscape:perspective
       id="perspective8132"
       inkscape:persp3d-origin="0.5 : 0.33333333 : 1"
       inkscape:vp_z="1 : 0.5 : 1"
       inkscape:vp_y="0 : 1000 : 0"
       inkscape:vp_x="0 : 0.5 : 1"
       sodipodi:type="inkscape:persp3d" />
    <inkscape:perspective
       id="perspective8132-3"
       inkscape:persp3d-origin="0.5 : 0.33333333 : 1"
       inkscape:vp_z="1 : 0.5 : 1"
       inkscape:vp_y="0 : 1000 : 0"
       inkscape:vp_x="0 : 0.5 : 1"
       sodipodi:type="inkscape:persp3d" />
    <inkscape:perspective
       id="perspective8132-5"
       inkscape:persp3d-origin="0.5 : 0.33333333 : 1"
       inkscape:vp_z="1 : 0.5 : 1"
       inkscape:vp_y="0 : 1000 : 0"
       inkscape:vp_x="0 : 0.5 : 1"
       sodipodi:type="inkscape:persp3d" />
    <inkscape:perspective
       id="perspective8178"
       inkscape:persp3d-origin="0.5 : 0.33333333 : 1"
       inkscape:vp_z="1 : 0.5 : 1"
       inkscape:vp_y="0 : 1000 : 0"
       inkscape:vp_x="0 : 0.5 : 1"
       sodipodi:type="inkscape:persp3d" />
    <inkscape:perspective
       id="perspective8178-5"
       inkscape:persp3d-origin="0.5 : 0.33333333 : 1"
       inkscape:vp_z="1 : 0.5 : 1"
       inkscape:vp_y="0 : 1000 : 0"
       inkscape:vp_x="0 : 0.5 : 1"
       sodipodi:type="inkscape:persp3d" />
    <inkscape:perspective
       id="perspective8209"
       inkscape:persp3d-origin="0.5 : 0.33333333 : 1"
       inkscape:vp_z="1 : 0.5 : 1"
       inkscape:vp_y="0 : 1000 : 0"
       inkscape:vp_x="0 : 0.5 : 1"
       sodipodi:type="inkscape:persp3d" />
    <inkscape:perspective
       id="perspective8209-0"
       inkscape:persp3d-origin="0.5 : 0.33333333 : 1"
       inkscape:vp_z="1 : 0.5 : 1"
       inkscape:vp_y="0 : 1000 : 0"
       inkscape:vp_x="0 : 0.5 : 1"
       sodipodi:type="inkscape:persp3d" />
    <inkscape:perspective
       id="perspective8209-4"
       inkscape:persp3d-origin="0.5 : 0.33333333 : 1"
       inkscape:vp_z="1 : 0.5 : 1"
       inkscape:vp_y="0 : 1000 : 0"
       inkscape:vp_x="0 : 0.5 : 1"
       sodipodi:type="inkscape:persp3d" />
    <inkscape:perspective
       id="perspective8249"
       inkscape:persp3d-origin="0.5 : 0.33333333 : 1"
       inkscape:vp_z="1 : 0.5 : 1"
       inkscape:vp_y="0 : 1000 : 0"
       inkscape:vp_x="0 : 0.5 : 1"
       sodipodi:type="inkscape:persp3d" />
    <inkscape:perspective
       id="perspective8313"
       inkscape:persp3d-origin="0.5 : 0.33333333 : 1"
       inkscape:vp_z="1 : 0.5 : 1"
       inkscape:vp_y="0 : 1000 : 0"
       inkscape:vp_x="0 : 0.5 : 1"
       sodipodi:type="inkscape:persp3d" />
    <inkscape:perspective
       id="perspective8313-5"
       inkscape:persp3d-origin="0.5 : 0.33333333 : 1"
       inkscape:vp_z="1 : 0.5 : 1"
       inkscape:vp_y="0 : 1000 : 0"
       inkscape:vp_x="0 : 0.5 : 1"
       sodipodi:type="inkscape:persp3d" />
    <inkscape:perspective
       id="perspective8313-7"
       inkscape:persp3d-origin="0.5 : 0.33333333 : 1"
       inkscape:vp_z="1 : 0.5 : 1"
       inkscape:vp_y="0 : 1000 : 0"
       inkscape:vp_x="0 : 0.5 : 1"
       sodipodi:type="inkscape:persp3d" />
    <inkscape:perspective
       id="perspective8313-78"
       inkscape:persp3d-origin="0.5 : 0.33333333 : 1"
       inkscape:vp_z="1 : 0.5 : 1"
       inkscape:vp_y="0 : 1000 : 0"
       inkscape:vp_x="0 : 0.5 : 1"
       sodipodi:type="inkscape:persp3d" />
    <inkscape:perspective
       id="perspective8362"
       inkscape:persp3d-origin="0.5 : 0.33333333 : 1"
       inkscape:vp_z="1 : 0.5 : 1"
       inkscape:vp_y="0 : 1000 : 0"
       inkscape:vp_x="0 : 0.5 : 1"
       sodipodi:type="inkscape:persp3d" />
    <inkscape:perspective
       id="perspective8362-4"
       inkscape:persp3d-origin="0.5 : 0.33333333 : 1"
       inkscape:vp_z="1 : 0.5 : 1"
       inkscape:vp_y="0 : 1000 : 0"
       inkscape:vp_x="0 : 0.5 : 1"
       sodipodi:type="inkscape:persp3d" />
    <inkscape:perspective
       id="perspective8362-9"
       inkscape:persp3d-origin="0.5 : 0.33333333 : 1"
       inkscape:vp_z="1 : 0.5 : 1"
       inkscape:vp_y="0 : 1000 : 0"
       inkscape:vp_x="0 : 0.5 : 1"
       sodipodi:type="inkscape:persp3d" />
    <inkscape:perspective
       id="perspective8408"
       inkscape:persp3d-origin="0.5 : 0.33333333 : 1"
       inkscape:vp_z="1 : 0.5 : 1"
       inkscape:vp_y="0 : 1000 : 0"
       inkscape:vp_x="0 : 0.5 : 1"
       sodipodi:type="inkscape:persp3d" />
    <inkscape:perspective
       id="perspective8408-7"
       inkscape:persp3d-origin="0.5 : 0.33333333 : 1"
       inkscape:vp_z="1 : 0.5 : 1"
       inkscape:vp_y="0 : 1000 : 0"
       inkscape:vp_x="0 : 0.5 : 1"
       sodipodi:type="inkscape:persp3d" />
    <inkscape:perspective
       id="perspective8408-73"
       inkscape:persp3d-origin="0.5 : 0.33333333 : 1"
       inkscape:vp_z="1 : 0.5 : 1"
       inkscape:vp_y="0 : 1000 : 0"
       inkscape:vp_x="0 : 0.5 : 1"
       sodipodi:type="inkscape:persp3d" />
    <inkscape:perspective
       id="perspective8408-8"
       inkscape:persp3d-origin="0.5 : 0.33333333 : 1"
       inkscape:vp_z="1 : 0.5 : 1"
       inkscape:vp_y="0 : 1000 : 0"
       inkscape:vp_x="0 : 0.5 : 1"
       sodipodi:type="inkscape:persp3d" />
    <inkscape:perspective
       id="perspective8408-1"
       inkscape:persp3d-origin="0.5 : 0.33333333 : 1"
       inkscape:vp_z="1 : 0.5 : 1"
       inkscape:vp_y="0 : 1000 : 0"
       inkscape:vp_x="0 : 0.5 : 1"
       sodipodi:type="inkscape:persp3d" />
    <inkscape:perspective
       id="perspective8466"
       inkscape:persp3d-origin="0.5 : 0.33333333 : 1"
       inkscape:vp_z="1 : 0.5 : 1"
       inkscape:vp_y="0 : 1000 : 0"
       inkscape:vp_x="0 : 0.5 : 1"
       sodipodi:type="inkscape:persp3d" />
    <inkscape:perspective
       id="perspective8466-5"
       inkscape:persp3d-origin="0.5 : 0.33333333 : 1"
       inkscape:vp_z="1 : 0.5 : 1"
       inkscape:vp_y="0 : 1000 : 0"
       inkscape:vp_x="0 : 0.5 : 1"
       sodipodi:type="inkscape:persp3d" />
    <inkscape:perspective
       id="perspective8572"
       inkscape:persp3d-origin="0.5 : 0.33333333 : 1"
       inkscape:vp_z="1 : 0.5 : 1"
       inkscape:vp_y="0 : 1000 : 0"
       inkscape:vp_x="0 : 0.5 : 1"
       sodipodi:type="inkscape:persp3d" />
    <inkscape:perspective
       id="perspective8586"
       inkscape:persp3d-origin="0.5 : 0.33333333 : 1"
       inkscape:vp_z="1 : 0.5 : 1"
       inkscape:vp_y="0 : 1000 : 0"
       inkscape:vp_x="0 : 0.5 : 1"
       sodipodi:type="inkscape:persp3d" />
    <inkscape:perspective
       id="perspective8640"
       inkscape:persp3d-origin="0.5 : 0.33333333 : 1"
       inkscape:vp_z="1 : 0.5 : 1"
       inkscape:vp_y="0 : 1000 : 0"
       inkscape:vp_x="0 : 0.5 : 1"
       sodipodi:type="inkscape:persp3d" />
    <inkscape:perspective
       id="perspective8640-0"
       inkscape:persp3d-origin="0.5 : 0.33333333 : 1"
       inkscape:vp_z="1 : 0.5 : 1"
       inkscape:vp_y="0 : 1000 : 0"
       inkscape:vp_x="0 : 0.5 : 1"
       sodipodi:type="inkscape:persp3d" />
    <inkscape:perspective
       id="perspective8640-4"
       inkscape:persp3d-origin="0.5 : 0.33333333 : 1"
       inkscape:vp_z="1 : 0.5 : 1"
       inkscape:vp_y="0 : 1000 : 0"
       inkscape:vp_x="0 : 0.5 : 1"
       sodipodi:type="inkscape:persp3d" />
    <inkscape:perspective
       id="perspective8640-02"
       inkscape:persp3d-origin="0.5 : 0.33333333 : 1"
       inkscape:vp_z="1 : 0.5 : 1"
       inkscape:vp_y="0 : 1000 : 0"
       inkscape:vp_x="0 : 0.5 : 1"
       sodipodi:type="inkscape:persp3d" />
    <inkscape:perspective
       id="perspective8640-5"
       inkscape:persp3d-origin="0.5 : 0.33333333 : 1"
       inkscape:vp_z="1 : 0.5 : 1"
       inkscape:vp_y="0 : 1000 : 0"
       inkscape:vp_x="0 : 0.5 : 1"
       sodipodi:type="inkscape:persp3d" />
    <inkscape:perspective
       id="perspective8640-44"
       inkscape:persp3d-origin="0.5 : 0.33333333 : 1"
       inkscape:vp_z="1 : 0.5 : 1"
       inkscape:vp_y="0 : 1000 : 0"
       inkscape:vp_x="0 : 0.5 : 1"
       sodipodi:type="inkscape:persp3d" />
    <inkscape:perspective
       id="perspective8640-04"
       inkscape:persp3d-origin="0.5 : 0.33333333 : 1"
       inkscape:vp_z="1 : 0.5 : 1"
       inkscape:vp_y="0 : 1000 : 0"
       inkscape:vp_x="0 : 0.5 : 1"
       sodipodi:type="inkscape:persp3d" />
    <inkscape:perspective
       id="perspective8640-7"
       inkscape:persp3d-origin="0.5 : 0.33333333 : 1"
       inkscape:vp_z="1 : 0.5 : 1"
       inkscape:vp_y="0 : 1000 : 0"
       inkscape:vp_x="0 : 0.5 : 1"
       sodipodi:type="inkscape:persp3d" />
    <inkscape:perspective
       id="perspective8640-9"
       inkscape:persp3d-origin="0.5 : 0.33333333 : 1"
       inkscape:vp_z="1 : 0.5 : 1"
       inkscape:vp_y="0 : 1000 : 0"
       inkscape:vp_x="0 : 0.5 : 1"
       sodipodi:type="inkscape:persp3d" />
    <inkscape:perspective
       id="perspective8640-54"
       inkscape:persp3d-origin="0.5 : 0.33333333 : 1"
       inkscape:vp_z="1 : 0.5 : 1"
       inkscape:vp_y="0 : 1000 : 0"
       inkscape:vp_x="0 : 0.5 : 1"
       sodipodi:type="inkscape:persp3d" />
    <inkscape:perspective
       id="perspective8743"
       inkscape:persp3d-origin="0.5 : 0.33333333 : 1"
       inkscape:vp_z="1 : 0.5 : 1"
       inkscape:vp_y="0 : 1000 : 0"
       inkscape:vp_x="0 : 0.5 : 1"
       sodipodi:type="inkscape:persp3d" />
    <inkscape:perspective
       id="perspective8743-7"
       inkscape:persp3d-origin="0.5 : 0.33333333 : 1"
       inkscape:vp_z="1 : 0.5 : 1"
       inkscape:vp_y="0 : 1000 : 0"
       inkscape:vp_x="0 : 0.5 : 1"
       sodipodi:type="inkscape:persp3d" />
  </defs>
  <sodipodi:namedview
     pagecolor="#ffffff"
     bordercolor="#666666"
     borderopacity="1"
     objecttolerance="10"
     gridtolerance="10"
     guidetolerance="10"
     inkscape:pageopacity="0"
     inkscape:pageshadow="2"
     inkscape:window-width="1600"
     inkscape:window-height="839"
     id="namedview2818"
     showgrid="false"
     inkscape:zoom="0.39567597"
     inkscape:cx="-105.07269"
     inkscape:cy="66.606591"
     inkscape:window-x="-9"
     inkscape:window-y="-9"
     inkscape:window-maximized="1"
     inkscape:current-layer="svg2816" />
  <path
     style="fill:#0033cc;fill-opacity:1;stroke:#000000;stroke-width:1px;stroke-linecap:butt;stroke-linejoin:miter;stroke-opacity:0"
     d="M -0.00523486,-0.04784944 -0.46755308,217.87163 l 328.71237308,0 0,-217.91947944 -328.25005486,0 z"
     id="path2828"
     sodipodi:nodetypes="ccccc" />
  <path
     style="fill:#ffd500;fill-opacity:1;stroke:#000000;stroke-width:1px;stroke-linecap:butt;stroke-linejoin:miter;stroke-opacity:0"
     d="m 154.32451,144.33953 c -8.61687,7.61218 -13.38836,17.29412 -14.84801,28.2744 -4.78777,10.39494 -9.52774,19.69028 -13.90026,20.53448 5.2879,4.21488 56.54055,0.2242 84.03341,0.78979 l 2.68528,-0.94775 1.57957,-0.94774 c 0.0775,-2.09073 -1.35811,-1.91177 -2.05344,-2.84324 -0.5952,-6.40072 -8.79197,-10.26757 -13.90027,-15.16392 -4.23143,-5.99736 -8.24177,-12.65796 -13.26843,-16.26963 -2.7332,-7.80213 -9.03268,-15.00989 -14.05822,-22.42997 -9.43696,-12.82699 -13.44725,-2.97412 -16.26963,9.00358 z"
     id="path8600"
     sodipodi:nodetypes="ccccccccccc" />
  <path
     style="fill:#0033cc;fill-opacity:1;stroke:#000000;stroke-width:1px;stroke-linecap:butt;stroke-linejoin:miter;stroke-opacity:0"
     d="m 170.43618,142.20711 -0.63183,2.76425 -2.76426,3.31711 c 0,0 1.73754,-0.63183 2.05345,-0.78979 0.31592,-0.15795 2.52732,-2.44834 2.52732,-2.44834 l -0.079,-2.36936 -1.26366,-0.86877 0.15796,0.3949 z"
     id="path8604" />
  <path
     style="fill:#0033cc;fill-opacity:1;stroke:#000000;stroke-width:1px;stroke-linecap:butt;stroke-linejoin:miter;stroke-opacity:0"
     d="m 176.6755,148.84132 -2.05344,2.29039 -3.39609,3.79098 4.58077,-3.00119 1.1057,-1.57958 -0.23694,-1.5006 z"
     id="path8606" />
  <path
     style="fill:#0033cc;fill-opacity:1;stroke:#000000;stroke-width:1px;stroke-linecap:butt;stroke-linejoin:miter;stroke-opacity:0"
     d="m 178.72895,152.6323 -3.00119,2.52732 -3.63302,3.23813 3.79098,-1.42161 3.15915,-2.84324 -0.31592,-1.5006 z"
     id="path8608" />
  <path
     style="fill:#0033cc;fill-opacity:1;stroke:#000000;stroke-width:1px;stroke-linecap:butt;stroke-linejoin:miter;stroke-opacity:0"
     d="m 183.30972,158.87163 -1.02672,1.18468 -2.05345,0.94774 -2.44834,2.05345 3.55404,-1.26366 2.05345,-1.02672 0,-2.29039 -0.079,0.3949 z"
     id="path8610" />
  <path
     style="fill:#0033cc;fill-opacity:1;stroke:#000000;stroke-width:1px;stroke-linecap:butt;stroke-linejoin:miter;stroke-opacity:0"
     d="m 186.62683,162.34669 -3.712,0.63183 -2.68528,1.57958 -1.18468,1.73753 2.29038,-0.23694 1.42162,-1.34263 2.6063,-0.78979 1.26366,-1.57958 z"
     id="path8612" />
  <path
     style="fill:#0033cc;fill-opacity:1;stroke:#000000;stroke-width:1px;stroke-linecap:butt;stroke-linejoin:miter;stroke-opacity:0"
     d="m 188.6013,165.03197 -3.94894,1.1057 -1.42162,1.10571 -1.34264,2.36936 3.47507,-1.65856 1.89549,-1.26366 1.34264,-1.65855 z"
     id="path8614" />
  <path
     style="fill:#0033cc;fill-opacity:1;stroke:#000000;stroke-width:1px;stroke-linecap:butt;stroke-linejoin:miter;stroke-opacity:0"
     d="m 189.78598,168.50704 -2.84324,0.39489 -1.57957,1.34264 -1.5006,0.94774 -1.34264,0.78979 2.84324,-0.55285 2.2114,-1.02672 1.89549,-0.63183 1.42162,0.15795 -1.1057,-1.42161 z"
     id="path8616" />
  <path
     style="fill:#0033cc;fill-opacity:1;stroke:#000000;stroke-width:1px;stroke-linecap:butt;stroke-linejoin:miter;stroke-opacity:0"
     d="m 191.76045,171.19231 -1.1057,1.02673 -3.08018,0.55285 -2.92221,2.21141 2.68528,-0.78979 2.76425,-0.3949 1.57958,-0.86876 0.079,-1.73754 z"
     id="path8618" />
  <path
     style="fill:#0033cc;fill-opacity:1;stroke:#000000;stroke-width:1px;stroke-linecap:butt;stroke-linejoin:miter;stroke-opacity:0"
     d="m 185.995,182.80219 1.65855,2.52732 0.78979,2.52732 1.34264,1.18469 -0.71081,-1.97447 -0.86877,-2.68528 -2.2114,-1.57958 z"
     id="path8620" />
  <path
     style="fill:#0033cc;fill-opacity:1;stroke:#000000;stroke-width:1px;stroke-linecap:butt;stroke-linejoin:miter;stroke-opacity:0"
     d="m 188.75926,180.59079 2.2114,3.15915 3.63302,3.712 -1.18468,-3.00119 -2.76425,-3.31711 -1.89549,-0.55285 z"
     id="path8622" />
  <path
     style="fill:#0033cc;fill-opacity:1;stroke:#000000;stroke-width:1px;stroke-linecap:butt;stroke-linejoin:miter;stroke-opacity:0"
     d="m 193.65594,180.35385 2.13243,3.712 4.10689,4.42281 0,-1.26366 0.78979,-0.23693 -1.97447,-2.29039 -1.97447,-2.6063 -3.08017,-1.73753 z"
     id="path8624" />
  <path
     style="fill:#0033cc;fill-opacity:1;stroke:#000000;stroke-width:1px;stroke-linecap:butt;stroke-linejoin:miter;stroke-opacity:0"
     d="m 196.97305,180.11692 3.712,2.05344 2.44834,3.39609 1.34264,0.78979 -0.55285,-2.76426 -1.81651,-1.97447 -2.13243,-1.57957 -2.68528,-0.86877 -0.31591,0.94775 z"
     id="path8626" />
  <path
     style="fill:#0033cc;fill-opacity:1;stroke:#000000;stroke-width:1px;stroke-linecap:butt;stroke-linejoin:miter;stroke-opacity:0"
     d="m 206.13458,188.01479 -0.079,2.29039 1.89549,0 -0.94775,-1.26366 -0.86877,-1.02673 z"
     id="path8628" />
  <path
     style="fill:#0033cc;fill-opacity:1;stroke:#000000;stroke-width:1px;stroke-linecap:butt;stroke-linejoin:miter;stroke-opacity:0"
     d="m 200.05322,190.46313 0.31591,1.18469 1.34264,-0.079 0,-0.94775 -1.65855,-0.15796 z"
     id="path8630" />
  <path
     style="fill:#0033cc;fill-opacity:1;stroke:#000000;stroke-width:1px;stroke-linecap:butt;stroke-linejoin:miter;stroke-opacity:0"
     d="m 194.32726,190.18671 0.31591,1.18469 1.34264,-0.079 0,-0.94775 -1.65855,-0.15796 z"
     id="path8630-6" />
  <path
     style="fill:#0033cc;fill-opacity:1;stroke:#000000;stroke-width:1px;stroke-linecap:butt;stroke-linejoin:miter;stroke-opacity:0"
     d="m 177.18887,172.73241 0.31591,1.18469 1.34264,-0.079 0,-0.94775 -1.65855,-0.15796 z"
     id="path8630-2" />
  <path
     style="fill:#0033cc;fill-opacity:1;stroke:#000000;stroke-width:1px;stroke-linecap:butt;stroke-linejoin:miter;stroke-opacity:0"
     d="m 176.00419,169.17836 0.31591,1.18469 1.34264,-0.079 0,-0.94775 -1.65855,-0.15796 z"
     id="path8630-9" />
  <path
     style="fill:#0033cc;fill-opacity:1;stroke:#000000;stroke-width:1px;stroke-linecap:butt;stroke-linejoin:miter;stroke-opacity:0"
     d="m 174.50359,167.04593 0.31591,1.18469 1.34264,-0.079 0,-0.94775 -1.65855,-0.15796 z"
     id="path8630-21" />
  <path
     style="fill:#0033cc;fill-opacity:1;stroke:#000000;stroke-width:1px;stroke-linecap:butt;stroke-linejoin:miter;stroke-opacity:0"
     d="m 173.55584,164.12372 0.31591,1.18469 1.34264,-0.079 0,-0.94775 -1.65855,-0.15796 z"
     id="path8630-4" />
  <path
     style="fill:#0033cc;fill-opacity:1;stroke:#000000;stroke-width:1px;stroke-linecap:butt;stroke-linejoin:miter;stroke-opacity:0"
     d="m 167.63244,159.77989 0.31591,1.18469 1.34264,-0.079 0,-0.94775 -1.65855,-0.15796 z"
     id="path8630-25" />
  <path
     style="fill:#0033cc;fill-opacity:1;stroke:#000000;stroke-width:1px;stroke-linecap:butt;stroke-linejoin:miter;stroke-opacity:0"
     d="m 166.44776,156.30482 0.31591,1.18469 1.34264,-0.079 0,-0.94775 -1.65855,-0.15796 z"
     id="path8630-212" />
  <path
     style="fill:#0033cc;fill-opacity:1;stroke:#000000;stroke-width:1px;stroke-linecap:butt;stroke-linejoin:miter;stroke-opacity:0"
     d="m 162.5778,159.14806 0.31591,1.18469 1.34264,-0.079 0,-0.94775 -1.65855,-0.15796 z"
     id="path8630-7" />
  <path
     style="fill:#0033cc;fill-opacity:1;stroke:#000000;stroke-width:1px;stroke-linecap:butt;stroke-linejoin:miter;stroke-opacity:0"
     d="m 163.13065,151.25018 0.31591,1.18469 1.34264,-0.079 0,-0.94775 -1.65855,-0.15796 z"
     id="path8630-5" />
  <path
     style="fill:#0033cc;fill-opacity:1;stroke:#000000;stroke-width:1px;stroke-linecap:butt;stroke-linejoin:miter;stroke-opacity:0"
     d="m 157.99703,144.61596 0.31591,1.18469 1.34264,-0.079 0,-0.94775 -1.65855,-0.15796 z"
     id="path8630-0" />
  <path
     style="fill:#ffd500;fill-opacity:1;stroke:#000000;stroke-width:1px;stroke-linecap:butt;stroke-linejoin:miter;stroke-opacity:0"
     d="m 64.840059,40.543414 c -8.61687,7.61218 -13.38836,17.29412 -14.84801,28.2744 -4.78777,10.39494 -9.52774,19.690283 -13.90026,20.534483 5.2879,4.21488 56.54055,0.2242 84.033411,0.78979 l 2.68528,-0.94775 1.57957,-0.94774 c 0.0775,-2.09073 -1.35811,-1.91177 -2.05344,-2.84324 -0.5952,-6.400723 -8.79197,-10.267573 -13.90027,-15.163923 -4.23143,-5.99736 -8.24177,-12.65796 -13.268431,-16.26963 -2.7332,-7.80213 -9.03268,-15.00989 -14.05822,-22.42997 -9.43696,-12.82699 -13.44725,-2.97412 -16.26963,9.00358 z"
     id="path8600-3"
     sodipodi:nodetypes="ccccccccccc" />
  <path
     style="fill:#0033cc;fill-opacity:1;stroke:#000000;stroke-width:1px;stroke-linecap:butt;stroke-linejoin:miter;stroke-opacity:0"
     d="m 80.951729,38.410994 -0.63183,2.76425 -2.76426,3.31711 c 0,0 1.73754,-0.63183 2.05345,-0.78979 0.31592,-0.15795 2.52732,-2.44834 2.52732,-2.44834 l -0.079,-2.36936 -1.26366,-0.86877 0.15796,0.3949 z"
     id="path8604-4" />
  <path
     style="fill:#0033cc;fill-opacity:1;stroke:#000000;stroke-width:1px;stroke-linecap:butt;stroke-linejoin:miter;stroke-opacity:0"
     d="m 87.191049,45.045204 -2.05344,2.29039 -3.39609,3.79098 4.58077,-3.00119 1.1057,-1.57958 -0.23694,-1.5006 z"
     id="path8606-1" />
  <path
     style="fill:#0033cc;fill-opacity:1;stroke:#000000;stroke-width:1px;stroke-linecap:butt;stroke-linejoin:miter;stroke-opacity:0"
     d="m 89.244499,48.836184 -3.00119,2.52732 -3.63302,3.23813 3.79098,-1.42161 3.15915,-2.84324 -0.31592,-1.5006 z"
     id="path8608-2" />
  <path
     style="fill:#0033cc;fill-opacity:1;stroke:#000000;stroke-width:1px;stroke-linecap:butt;stroke-linejoin:miter;stroke-opacity:0"
     d="m 93.825269,55.075514 -1.02672,1.18468 -2.05345,0.94774 -2.44834,2.05345 3.55404,-1.26366 2.05345,-1.02672 0,-2.29039 -0.079,0.3949 z"
     id="path8610-2" />
  <path
     style="fill:#0033cc;fill-opacity:1;stroke:#000000;stroke-width:1px;stroke-linecap:butt;stroke-linejoin:miter;stroke-opacity:0"
     d="m 97.142379,58.550574 -3.712,0.63183 -2.68528,1.57958 -1.18468,1.73753 2.29038,-0.23694 1.42162,-1.34263 2.6063,-0.78979 1.26366,-1.57958 z"
     id="path8612-9" />
  <path
     style="fill:#0033cc;fill-opacity:1;stroke:#000000;stroke-width:1px;stroke-linecap:butt;stroke-linejoin:miter;stroke-opacity:0"
     d="m 99.116849,61.235854 -3.94894,1.1057 -1.42162,1.10571 -1.34264,2.36936 3.47507,-1.65856 1.89549,-1.26366 1.34264,-1.65855 z"
     id="path8614-8" />
  <path
     style="fill:#0033cc;fill-opacity:1;stroke:#000000;stroke-width:1px;stroke-linecap:butt;stroke-linejoin:miter;stroke-opacity:0"
     d="m 100.30153,64.710924 -2.843241,0.39489 -1.57957,1.34264 -1.5006,0.94774 -1.34264,0.78979 2.84324,-0.55285 2.2114,-1.02672 1.89549,-0.63183 1.421621,0.15795 -1.1057,-1.42161 z"
     id="path8616-2" />
  <path
     style="fill:#0033cc;fill-opacity:1;stroke:#000000;stroke-width:1px;stroke-linecap:butt;stroke-linejoin:miter;stroke-opacity:0"
     d="m 102.276,67.396194 -1.1057,1.02673 -3.080181,0.55285 -2.92221,2.21141 2.68528,-0.78979 2.764251,-0.3949 1.57958,-0.86876 0.079,-1.73754 z"
     id="path8618-2" />
  <path
     style="fill:#0033cc;fill-opacity:1;stroke:#000000;stroke-width:1px;stroke-linecap:butt;stroke-linejoin:miter;stroke-opacity:0"
     d="m 96.510549,79.006074 1.65855,2.52732 0.78979,2.527323 1.342641,1.18469 -0.710811,-1.97447 -0.86877,-2.685283 -2.2114,-1.57958 z"
     id="path8620-7" />
  <path
     style="fill:#0033cc;fill-opacity:1;stroke:#000000;stroke-width:1px;stroke-linecap:butt;stroke-linejoin:miter;stroke-opacity:0"
     d="m 99.274809,76.794674 2.211401,3.15915 3.63302,3.712003 -1.18468,-3.001193 -2.76425,-3.31711 -1.895491,-0.55285 z"
     id="path8622-8" />
  <path
     style="fill:#0033cc;fill-opacity:1;stroke:#000000;stroke-width:1px;stroke-linecap:butt;stroke-linejoin:miter;stroke-opacity:0"
     d="m 104.17149,76.557734 2.13243,3.712 4.10689,4.422813 0,-1.26366 0.78979,-0.23693 -1.97447,-2.290393 -1.97447,-2.6063 -3.08017,-1.73753 z"
     id="path8624-5" />
  <path
     style="fill:#0033cc;fill-opacity:1;stroke:#000000;stroke-width:1px;stroke-linecap:butt;stroke-linejoin:miter;stroke-opacity:0"
     d="m 107.4886,76.320804 3.712,2.05344 2.44834,3.39609 1.34264,0.78979 -0.55285,-2.76426 -1.81651,-1.97447 -2.13243,-1.57957 -2.68528,-0.86877 -0.31591,0.94775 z"
     id="path8626-8" />
  <path
     style="fill:#0033cc;fill-opacity:1;stroke:#000000;stroke-width:1px;stroke-linecap:butt;stroke-linejoin:miter;stroke-opacity:0"
     d="m 116.65013,84.218677 -0.079,2.29039 1.89549,0 -0.94775,-1.26366 -0.86877,-1.02673 z"
     id="path8628-3" />
  <path
     style="fill:#0033cc;fill-opacity:1;stroke:#000000;stroke-width:1px;stroke-linecap:butt;stroke-linejoin:miter;stroke-opacity:0"
     d="m 110.56877,86.667017 0.31591,1.18469 1.34264,-0.079 0,-0.94775 -1.65855,-0.15796 z"
     id="path8630-94" />
  <path
     style="fill:#0033cc;fill-opacity:1;stroke:#000000;stroke-width:1px;stroke-linecap:butt;stroke-linejoin:miter;stroke-opacity:0"
     d="m 104.84281,86.390597 0.31591,1.18469 1.34264,-0.079 0,-0.94775 -1.65855,-0.15796 z"
     id="path8630-6-4" />
  <path
     style="fill:#0033cc;fill-opacity:1;stroke:#000000;stroke-width:1px;stroke-linecap:butt;stroke-linejoin:miter;stroke-opacity:0"
     d="m 87.704419,68.936294 0.31591,1.18469 1.34264,-0.079 0,-0.94775 -1.65855,-0.15796 z"
     id="path8630-2-6" />
  <path
     style="fill:#0033cc;fill-opacity:1;stroke:#000000;stroke-width:1px;stroke-linecap:butt;stroke-linejoin:miter;stroke-opacity:0"
     d="m 86.519739,65.382244 0.31591,1.18469 1.34264,-0.079 0,-0.94775 -1.65855,-0.15796 z"
     id="path8630-9-9" />
  <path
     style="fill:#0033cc;fill-opacity:1;stroke:#000000;stroke-width:1px;stroke-linecap:butt;stroke-linejoin:miter;stroke-opacity:0"
     d="m 85.019139,63.249814 0.31591,1.18469 1.34264,-0.079 0,-0.94775 -1.65855,-0.15796 z"
     id="path8630-21-8" />
  <path
     style="fill:#0033cc;fill-opacity:1;stroke:#000000;stroke-width:1px;stroke-linecap:butt;stroke-linejoin:miter;stroke-opacity:0"
     d="m 84.071389,60.327604 0.31591,1.18469 1.34264,-0.079 0,-0.94775 -1.65855,-0.15796 z"
     id="path8630-4-5" />
  <path
     style="fill:#0033cc;fill-opacity:1;stroke:#000000;stroke-width:1px;stroke-linecap:butt;stroke-linejoin:miter;stroke-opacity:0"
     d="m 78.147989,55.983774 0.31591,1.18469 1.34264,-0.079 0,-0.94775 -1.65855,-0.15796 z"
     id="path8630-25-6" />
  <path
     style="fill:#0033cc;fill-opacity:1;stroke:#000000;stroke-width:1px;stroke-linecap:butt;stroke-linejoin:miter;stroke-opacity:0"
     d="m 76.963309,52.508704 0.31591,1.18469 1.34264,-0.079 0,-0.94775 -1.65855,-0.15796 z"
     id="path8630-212-6" />
  <path
     style="fill:#0033cc;fill-opacity:1;stroke:#000000;stroke-width:1px;stroke-linecap:butt;stroke-linejoin:miter;stroke-opacity:0"
     d="m 73.093349,55.351944 0.31591,1.18469 1.34264,-0.079 0,-0.94775 -1.65855,-0.15796 z"
     id="path8630-7-0" />
  <path
     style="fill:#0033cc;fill-opacity:1;stroke:#000000;stroke-width:1px;stroke-linecap:butt;stroke-linejoin:miter;stroke-opacity:0"
     d="m 73.646199,47.454064 0.31591,1.18469 1.34264,-0.079 0,-0.94775 -1.65855,-0.15796 z"
     id="path8630-5-7" />
  <path
     style="fill:#0033cc;fill-opacity:1;stroke:#000000;stroke-width:1px;stroke-linecap:butt;stroke-linejoin:miter;stroke-opacity:0"
     d="m 68.512579,40.819844 0.31591,1.18469 1.34264,-0.079 0,-0.94775 -1.65855,-0.15796 z"
     id="path8630-0-2" />
  <path
     style="fill:#ffd500;fill-opacity:1;stroke:#000000;stroke-width:1px;stroke-linecap:butt;stroke-linejoin:miter;stroke-opacity:0"
     d="m 229.1159,40.543414 c -8.61687,7.61218 -13.38836,17.29412 -14.84801,28.2744 -4.78777,10.39494 -9.52774,19.69028 -13.90026,20.53448 5.2879,4.21488 56.54055,0.2242 84.03341,0.78979 l 2.68528,-0.94775 1.57957,-0.94774 c 0.0775,-2.09073 -1.35811,-1.91177 -2.05344,-2.84324 -0.5952,-6.40072 -8.79197,-10.26757 -13.90027,-15.16392 -4.23143,-5.99736 -8.24177,-12.65796 -13.26843,-16.26963 -2.7332,-7.80213 -9.03268,-15.00989 -14.05822,-22.429971 -9.43696,-12.82699 -13.44725,-2.97412 -16.26963,9.003581 z"
     id="path8600-2"
     sodipodi:nodetypes="ccccccccccc" />
  <path
     style="fill:#0033cc;fill-opacity:1;stroke:#000000;stroke-width:1px;stroke-linecap:butt;stroke-linejoin:miter;stroke-opacity:0"
     d="m 245.22757,38.410994 -0.63183,2.76425 -2.76426,3.31711 c 0,0 1.73754,-0.63183 2.05345,-0.78979 0.31592,-0.15795 2.52732,-2.44834 2.52732,-2.44834 l -0.079,-2.36936 -1.26366,-0.86877 0.15796,0.3949 z"
     id="path8604-6" />
  <path
     style="fill:#0033cc;fill-opacity:1;stroke:#000000;stroke-width:1px;stroke-linecap:butt;stroke-linejoin:miter;stroke-opacity:0"
     d="m 251.46689,45.045204 -2.05344,2.29039 -3.39609,3.79098 4.58077,-3.00119 1.1057,-1.57958 -0.23694,-1.5006 z"
     id="path8606-4" />
  <path
     style="fill:#0033cc;fill-opacity:1;stroke:#000000;stroke-width:1px;stroke-linecap:butt;stroke-linejoin:miter;stroke-opacity:0"
     d="m 253.52034,48.836184 -3.00119,2.52732 -3.63302,3.23813 3.79098,-1.42161 3.15915,-2.84324 -0.31592,-1.5006 z"
     id="path8608-7" />
  <path
     style="fill:#0033cc;fill-opacity:1;stroke:#000000;stroke-width:1px;stroke-linecap:butt;stroke-linejoin:miter;stroke-opacity:0"
     d="m 258.10111,55.075514 -1.02672,1.18468 -2.05345,0.94774 -2.44834,2.05345 3.55404,-1.26366 2.05345,-1.02672 0,-2.29039 -0.079,0.3949 z"
     id="path8610-1" />
  <path
     style="fill:#0033cc;fill-opacity:1;stroke:#000000;stroke-width:1px;stroke-linecap:butt;stroke-linejoin:miter;stroke-opacity:0"
     d="m 261.41822,58.550574 -3.712,0.63183 -2.68528,1.57958 -1.18468,1.73753 2.29038,-0.23694 1.42162,-1.34263 2.6063,-0.78979 1.26366,-1.57958 z"
     id="path8612-3" />
  <path
     style="fill:#0033cc;fill-opacity:1;stroke:#000000;stroke-width:1px;stroke-linecap:butt;stroke-linejoin:miter;stroke-opacity:0"
     d="m 263.39269,61.235854 -3.94894,1.1057 -1.42162,1.10571 -1.34264,2.36936 3.47507,-1.65856 1.89549,-1.26366 1.34264,-1.65855 z"
     id="path8614-2" />
  <path
     style="fill:#0033cc;fill-opacity:1;stroke:#000000;stroke-width:1px;stroke-linecap:butt;stroke-linejoin:miter;stroke-opacity:0"
     d="m 264.57737,64.710924 -2.84324,0.39489 -1.57957,1.34264 -1.5006,0.94774 -1.34264,0.78979 2.84324,-0.55285 2.2114,-1.02672 1.89549,-0.63183 1.42162,0.15795 -1.1057,-1.42161 z"
     id="path8616-1" />
  <path
     style="fill:#0033cc;fill-opacity:1;stroke:#000000;stroke-width:1px;stroke-linecap:butt;stroke-linejoin:miter;stroke-opacity:0"
     d="m 266.55184,67.396194 -1.1057,1.02673 -3.08018,0.55285 -2.92221,2.21141 2.68528,-0.78979 2.76425,-0.3949 1.57958,-0.86876 0.079,-1.73754 z"
     id="path8618-6" />
  <path
     style="fill:#0033cc;fill-opacity:1;stroke:#000000;stroke-width:1px;stroke-linecap:butt;stroke-linejoin:miter;stroke-opacity:0"
     d="m 260.78639,79.006074 1.65855,2.52732 0.78979,2.52732 1.34264,1.18469 -0.71081,-1.97447 -0.86877,-2.68528 -2.2114,-1.57958 z"
     id="path8620-3" />
  <path
     style="fill:#0033cc;fill-opacity:1;stroke:#000000;stroke-width:1px;stroke-linecap:butt;stroke-linejoin:miter;stroke-opacity:0"
     d="m 263.55065,76.794674 2.2114,3.15915 3.63302,3.712 -1.18468,-3.00119 -2.76425,-3.31711 -1.89549,-0.55285 z"
     id="path8622-83" />
  <path
     style="fill:#0033cc;fill-opacity:1;stroke:#000000;stroke-width:1px;stroke-linecap:butt;stroke-linejoin:miter;stroke-opacity:0"
     d="m 268.44733,76.557734 2.13243,3.712 4.10689,4.42281 0,-1.26366 0.78979,-0.23693 -1.97447,-2.29039 -1.97447,-2.6063 -3.08017,-1.73753 z"
     id="path8624-2" />
  <path
     style="fill:#0033cc;fill-opacity:1;stroke:#000000;stroke-width:1px;stroke-linecap:butt;stroke-linejoin:miter;stroke-opacity:0"
     d="m 271.76444,76.320804 3.712,2.05344 2.44834,3.39609 1.34264,0.78979 -0.55285,-2.76426 -1.81651,-1.97447 -2.13243,-1.57957 -2.68528,-0.86877 -0.31591,0.94775 z"
     id="path8626-86" />
  <path
     style="fill:#0033cc;fill-opacity:1;stroke:#000000;stroke-width:1px;stroke-linecap:butt;stroke-linejoin:miter;stroke-opacity:0"
     d="m 280.92597,84.218674 -0.079,2.29039 1.89549,0 -0.94775,-1.26366 -0.86877,-1.02673 z"
     id="path8628-0" />
  <path
     style="fill:#0033cc;fill-opacity:1;stroke:#000000;stroke-width:1px;stroke-linecap:butt;stroke-linejoin:miter;stroke-opacity:0"
     d="m 274.84461,86.667014 0.31591,1.18469 1.34264,-0.079 0,-0.94775 -1.65855,-0.15796 z"
     id="path8630-1" />
  <path
     style="fill:#0033cc;fill-opacity:1;stroke:#000000;stroke-width:1px;stroke-linecap:butt;stroke-linejoin:miter;stroke-opacity:0"
     d="m 269.11865,86.390594 0.31591,1.18469 1.34264,-0.079 0,-0.94775 -1.65855,-0.15796 z"
     id="path8630-6-2" />
  <path
     style="fill:#0033cc;fill-opacity:1;stroke:#000000;stroke-width:1px;stroke-linecap:butt;stroke-linejoin:miter;stroke-opacity:0"
     d="m 251.98026,68.936294 0.31591,1.18469 1.34264,-0.079 0,-0.94775 -1.65855,-0.15796 z"
     id="path8630-2-60" />
  <path
     style="fill:#0033cc;fill-opacity:1;stroke:#000000;stroke-width:1px;stroke-linecap:butt;stroke-linejoin:miter;stroke-opacity:0"
     d="m 250.79558,65.382244 0.31591,1.18469 1.34264,-0.079 0,-0.94775 -1.65855,-0.15796 z"
     id="path8630-9-5" />
  <path
     style="fill:#0033cc;fill-opacity:1;stroke:#000000;stroke-width:1px;stroke-linecap:butt;stroke-linejoin:miter;stroke-opacity:0"
     d="m 249.29498,63.249814 0.31591,1.18469 1.34264,-0.079 0,-0.94775 -1.65855,-0.15796 z"
     id="path8630-21-4" />
  <path
     style="fill:#0033cc;fill-opacity:1;stroke:#000000;stroke-width:1px;stroke-linecap:butt;stroke-linejoin:miter;stroke-opacity:0"
     d="m 248.34723,60.327604 0.31591,1.18469 1.34264,-0.079 0,-0.94775 -1.65855,-0.15796 z"
     id="path8630-4-6" />
  <path
     style="fill:#0033cc;fill-opacity:1;stroke:#000000;stroke-width:1px;stroke-linecap:butt;stroke-linejoin:miter;stroke-opacity:0"
     d="m 242.42383,55.983774 0.31591,1.18469 1.34264,-0.079 0,-0.94775 -1.65855,-0.15796 z"
     id="path8630-25-7" />
  <path
     style="fill:#0033cc;fill-opacity:1;stroke:#000000;stroke-width:1px;stroke-linecap:butt;stroke-linejoin:miter;stroke-opacity:0"
     d="m 241.23915,52.508704 0.31591,1.18469 1.34264,-0.079 0,-0.94775 -1.65855,-0.15796 z"
     id="path8630-212-9" />
  <path
     style="fill:#0033cc;fill-opacity:1;stroke:#000000;stroke-width:1px;stroke-linecap:butt;stroke-linejoin:miter;stroke-opacity:0"
     d="m 237.36919,55.351944 0.31591,1.18469 1.34264,-0.079 0,-0.94775 -1.65855,-0.15796 z"
     id="path8630-7-3" />
  <path
     style="fill:#0033cc;fill-opacity:1;stroke:#000000;stroke-width:1px;stroke-linecap:butt;stroke-linejoin:miter;stroke-opacity:0"
     d="m 237.92204,47.454064 0.31591,1.18469 1.34264,-0.079 0,-0.94775 -1.65855,-0.15796 z"
     id="path8630-5-4" />
  <path
     style="fill:#0033cc;fill-opacity:1;stroke:#000000;stroke-width:1px;stroke-linecap:butt;stroke-linejoin:miter;stroke-opacity:0"
     d="m 232.78842,40.819844 0.31591,1.18469 1.34264,-0.079 0,-0.94775 -1.65855,-0.15796 z"
     id="path8630-0-7" />
</svg>
