<?xml version="1.0" encoding="UTF-8"?><!-- Created with Inkscape (http://www.inkscape.org/) --><svg width="1051" height="754" viewBox="2.0010993420862 3.0008428026963 1051.5777042663 754.21182441101" xmlns:inkscape="http://www.inkscape.org/namespaces/inkscape" xmlns:sodipodi="http://sodipodi.sourceforge.net/DTD/sodipodi-0.dtd" xmlns="http://www.w3.org/2000/svg" xmlns:svg="http://www.w3.org/2000/svg" version="1.1" id="svg11419" sodipodi:docname="Olst-Wijhe_vlag.svg" inkscape:version="1.2.2 (b0a8486, 2022-12-01)">
  <sodipodi:namedview xmlns:sodipodi="http://sodipodi.sourceforge.net/DTD/sodipodi-0.dtd" xmlns:inkscape="http://www.inkscape.org/namespaces/inkscape" id="namedview3359" pagecolor="#ffffff" bordercolor="#000000" borderopacity="0.25" inkscape:showpageshadow="2" inkscape:pageopacity="0.0" inkscape:pagecheckerboard="0" inkscape:deskcolor="#d1d1d1" inkscape:document-units="mm" showgrid="false" inkscape:zoom="0.29734127" inkscape:cx="272.41425" inkscape:cy="400.21353" inkscape:window-width="1440" inkscape:window-height="872" inkscape:window-x="0" inkscape:window-y="28" inkscape:window-maximized="0" inkscape:current-layer="svg11419"/>
  <defs xmlns="http://www.w3.org/2000/svg" id="defs11421"/>
  <g xmlns="http://www.w3.org/2000/svg" id="layer1" transform="translate(-0.26265422,1.8477787)">
    <path d="M 1.1045299,0.01598382 0.26706728,757.36103 1058.8398,756.43291 1057.1648,-0.91213971 Z" id="path11444" style="fill:#000099;fill-opacity:1;stroke:#000000;stroke-width:0.00881635px;stroke-linecap:butt;stroke-linejoin:miter;stroke-opacity:1"/>
    <path d="m 186.1873,140.16195 c -1.32114,21.6561 -1.14334,43.31221 4.18737,64.96831 C 309.99,99.763842 406.02536,112.99683 496.89182,152.22748 613.86085,221.13547 725.73288,202.21423 795.87156,136.44946 690.16811,200.77462 594.53033,185.42101 504.4291,126.24014 422.53915,68.8078 296.41609,52.253457 186.1873,140.16195 Z" id="path11446" style="fill:#009900;fill-opacity:1;stroke:#000000;stroke-width:0.00881635px;stroke-linecap:butt;stroke-linejoin:miter;stroke-opacity:1"/>
    <path d="m 212.66065,268.93672 c 0.92457,21.68133 3.33816,43.17254 10.87074,64.01002 107.94533,-119.84851 204.71623,-118.88586 299.03764,-91.4407 123.31795,53.61596 232.50014,20.62672 295.38467,-53.60374 -98.36419,77.31214 -194.95928,74.19236 -290.58125,26.83105 -87.28397,-46.666 -214.28793,-47.1112 -314.7118,54.20337 z" id="path11446-0" style="fill:#009900;fill-opacity:1;stroke:#000000;stroke-width:0.00881635px;stroke-linecap:butt;stroke-linejoin:miter;stroke-opacity:1"/>
    <path d="M 1057.1648,-1.8402632 C 983.3508,39.487073 910.78421,115.7971 843.60787,250.60808 788.48939,324.33771 683.32905,354.23329 576.45224,341.56373 470.18735,310.8795 365.36381,316.93397 265.74772,455.72237 L 245.64826,404.67584 C 190.91025,457.06345 158.95683,529.65149 137.61353,611.64636 89.118985,724.55739 45.273337,737.0034 1.1045299,756.43291 H 1058.0024 Z" id="path11483" style="fill:#009900;fill-opacity:1;stroke:#000000;stroke-width:0.00881635px;stroke-linecap:butt;stroke-linejoin:miter;stroke-opacity:1"/>
    <path d="m 295.06673,511.18805 c 4.81465,21.03952 11.05406,41.56299 22.19135,60.31247 C 401.42061,430.16744 496.41395,409.68392 593.7815,415.69138 724.27902,440.9216 825.31253,384.42266 873.5468,297.76508 791.10381,395.29801 695.89387,413.62896 593.66148,388.3949 499.72419,361.99596 375.20064,389.68063 295.06673,511.18805 Z" id="path11446-0-5" style="fill:#000099;fill-opacity:1;stroke:#000000;stroke-width:0.00881635px;stroke-linecap:butt;stroke-linejoin:miter;stroke-opacity:1"/>
    <path d="m 356.87921,625.58977 c 6.87644,20.32378 15.1177,39.96075 28.05076,57.23671 C 454.53348,532.0799 546.91299,500.12554 644.28518,494.21112 776.4963,503.35849 871.29974,434.87051 910.6278,342.85245 838.38001,449.85545 745.57125,479.69677 641.45292,467.09539 545.46353,452.32365 424.44918,495.03998 356.87921,625.58977 Z" id="path11446-0-5-3" style="fill:#000099;fill-opacity:1;stroke:#000000;stroke-width:0.00881635px;stroke-linecap:butt;stroke-linejoin:miter;stroke-opacity:1"/>
  </g>
</svg>