<?xml version="1.0" encoding="UTF-8"?><!-- Created with Inkscape (http://www.inkscape.org/) --><svg width="1064" height="751" viewBox="5.0013115671642 2.0004934210526 1064.2791014925 751.18527960526" xmlns:dc="http://purl.org/dc/elements/1.1/" xmlns:cc="http://creativecommons.org/ns#" xmlns:rdf="http://www.w3.org/1999/02/22-rdf-syntax-ns#" xmlns:svg="http://www.w3.org/2000/svg" xmlns="http://www.w3.org/2000/svg" xmlns:sodipodi="http://sodipodi.sourceforge.net/DTD/sodipodi-0.dtd" xmlns:inkscape="http://www.inkscape.org/namespaces/inkscape" id="svg3323" version="1.1" inkscape:version="0.48.4 r9939" sodipodi:docname="Nieuw document 7">
  <defs xmlns="http://www.w3.org/2000/svg" id="defs3325"/>
  <sodipodi:namedview xmlns:sodipodi="http://sodipodi.sourceforge.net/DTD/sodipodi-0.dtd" xmlns:inkscape="http://www.inkscape.org/namespaces/inkscape" id="base" pagecolor="#ffffff" bordercolor="#666666" borderopacity="1.0" inkscape:pageopacity="0.0" inkscape:pageshadow="2" inkscape:zoom="0.35" inkscape:cx="694.03125" inkscape:cy="231.51282" inkscape:document-units="px" inkscape:current-layer="layer1" showgrid="false" fit-margin-top="0" fit-margin-left="0" fit-margin-right="0" fit-margin-bottom="0" inkscape:window-width="1600" inkscape:window-height="837" inkscape:window-x="-8" inkscape:window-y="-8" inkscape:window-maximized="1"/>
  <metadata xmlns="http://www.w3.org/2000/svg" xmlns:rdf="http://www.w3.org/1999/02/22-rdf-syntax-ns#" xmlns:cc="http://creativecommons.org/ns#" xmlns:dc="http://purl.org/dc/elements/1.1/" id="metadata3328">
    <rdf:RDF>
      <cc:Work rdf:about="">
        <dc:format>image/svg+xml</dc:format>
        <dc:type rdf:resource="http://purl.org/dc/dcmitype/StillImage"/>
        <dc:title/>
      </cc:Work>
    </rdf:RDF>
  </metadata>
  <g xmlns="http://www.w3.org/2000/svg" xmlns:inkscape="http://www.inkscape.org/namespaces/inkscape" xmlns:sodipodi="http://sodipodi.sourceforge.net/DTD/sodipodi-0.dtd" inkscape:label="Laag 1" inkscape:groupmode="layer" id="layer1" transform="translate(319.03125,-3.6875)">
    <path inkscape:connector-curvature="0" style="fill:#ffffff;stroke:#000000;stroke-width:0.01038897px;stroke-linecap:butt;stroke-linejoin:miter;stroke-opacity:1" d="m -317.12625,4.362253 3.18871,755.243057 1067.1268,0 -3.1887,-755.243057 -1067.12681,0 z" id="path2841"/>
    <path inkscape:connector-curvature="0" style="fill:#ffe715;fill-opacity:1;stroke:#000000;stroke-width:0.0038051px;stroke-linecap:butt;stroke-linejoin:miter;stroke-opacity:1" d="m -318.96604,3.752629 0.95916,336.706151 321.0986971,0 -0.95952,-336.706151 -321.0983371,0 z" id="path2841-7"/>
    <path inkscape:connector-curvature="0" style="fill:#ffe715;fill-opacity:1;stroke:#000000;stroke-width:0.00553412px;stroke-linecap:butt;stroke-linejoin:miter;stroke-opacity:1" d="m 77.729417,417.79858 2.01102,339.85542 672.919923,0 -2.0107,-339.85542 -672.920243,0 z" id="path2841-7-4"/>
    <path inkscape:connector-curvature="0" style="fill:#038240;fill-opacity:1;stroke:#000000;stroke-width:0.00551487px;stroke-linecap:butt;stroke-linejoin:miter;stroke-opacity:1" d="m 76.666757,3.7540078 2.01535,336.7047722 674.496253,0 -2.0156,-336.7047722 -674.496003,0 z" id="path2841-7-4-8"/>
    <path inkscape:connector-curvature="0" style="fill:#038240;fill-opacity:1;stroke:#000000;stroke-width:0.00383827px;stroke-linecap:butt;stroke-linejoin:miter;stroke-opacity:1" d="m -314.82755,417.79858 0.9498,346.0303 317.9193571,0 -0.94979,-346.0303 -317.9193671,0 z" id="path2841-7-4-8-6"/>
    <path inkscape:connector-curvature="0" style="fill:#ffe715;fill-opacity:1;stroke:#000000;stroke-width:0.01038897px;stroke-linecap:butt;stroke-linejoin:miter;stroke-opacity:0" d="m 222.0784,184.38267 c -5.09527,16.13541 -16.73903,28.25241 -27.22383,36.57908 -20.2187,12.22441 -61.23959,-33.64185 -33.50644,-68.00604 5.57003,-5.21762 13.40241,-12.16662 23.83919,-15.87744 27.05708,-9.62018 55.83858,-26.06825 60.97358,-44.400472 19.78628,22.650032 33.76172,46.948262 40.04576,78.505432 0.88298,6.93035 9.33185,43.05215 -19.10419,66.26461 -21.8126,15.5731 -39.77981,15.46877 -51.83029,-8.75829 -5.42899,7.85362 -12.0833,18.30472 -1.03703,41.02019 l -2.10394,1.22568 c -15.31299,-13.56046 -15.15429,-35.09623 -10.99438,-42.76095 6.95919,-11.99012 14.91914,-20.98616 18.40025,-26.47938 5.5075,-8.6909 3.24499,-12.78596 2.54132,-17.31242 z" id="path3069-7-4" sodipodi:nodetypes="cccscccccccsc"/>
    <path inkscape:connector-curvature="0" style="fill:#ffe715;fill-opacity:1;stroke:#000000;stroke-width:0.01038897px;stroke-linecap:butt;stroke-linejoin:miter;stroke-opacity:0" d="m -186.63349,499.51374 c -3.29087,9.08472 -3.18534,18.16957 -13.14081,27.25443 -9.57794,11.4575 -14.5131,24.36807 -15.3308,38.56774 -20.18538,27.49262 -22.3403,49.77697 -17.7555,75.90085 0.58201,3.24192 3.23815,3.93313 3.02752,4.95515 -0.293,1.42182 -0.60191,10.758 2.79049,11.45032 2.59973,0.53043 3.28291,-5.24283 3.68087,-4.74557 1.77855,2.22237 11.92536,-6.16809 10.67067,-10.42526 l 3.4297,-28.29829 c 6.87631,-4.72083 12.94735,-11.65229 15.50968,-23.12527 l 1.09521,8.22775 -11.49833,18.51269 c -2.10273,7.09472 -7.33999,13.01217 -2.73769,22.62608 4.0321,5.48531 4.81519,10.97048 16.97371,16.45565 1.02499,6.35872 5.18112,11.98199 12.04556,16.96977 l 2.19044,-19.02681 c 7.43817,-6.12675 8.70273,-14.77629 2.58164,-21.08344 -0.14936,-16.05793 1.78421,-27.09863 5.63103,-33.93982 -2.8157,15.68841 -0.46254,32.99493 5.47535,51.42371 6.71249,14.47436 18.07671,20.21196 29.01924,26.74044 1.23044,-8.74201 4.35859,-17.48417 -2.73768,-26.22618 -6.85664,-8.88565 -8.76399,-10.10895 -11.49796,-15.42699 l 1.09486,-2.05718 c 3.66053,4.69166 5.45494,8.21518 13.14078,15.42713 18.43374,6.75865 15.78336,-2.46348 14.78361,-8.74188 1.07813,-7.33347 -9.9231,-12.39783 -15.33122,-18.51255 l -1.64247,-13.37036 3.83292,1.02852 c -3.0739,3.14736 -0.13373,9.47733 5.50101,13.98747 3.26429,4.2168 8.2767,7.91644 16.40004,10.69593 l 1.95532,4.57651 5.55349,5.13016 c -0.45496,-4.94962 0.73289,-9.89938 2.347067,-14.849 15.38361,-16.9294 4.16429,-25.53013 -1.095227,-35.99644 l -14.78325,-16.96977 c 6.10285,-35.68913 -21.63095,-67.65222 -71.17927,-77.13549 z" id="path3146-0" sodipodi:nodetypes="ccccsssccccccccccccccccccccccccccccc"/>
    <path style="fill:#038240;fill-opacity:1" d="m -160.77338,267.59045 c -3.1254,-7.36973 -5.18097,-14.43315 -5.73697,-19.71352 l -0.6016,-5.71353 -2.4919,1.96014 c -5.34556,4.20481 -13.85465,4.76415 -20.46597,1.3453 -4.32874,-2.23847 -8.48666,-8.72034 -9.27617,-14.46081 l -0.69206,-5.03182 -3.1483,0.79447 c -10.97212,2.76878 -20.94333,-2.63471 -23.69088,-12.83832 -1.49458,-5.55044 -0.37719,-11.00564 3.38467,-16.52437 2.99764,-4.39759 4.32516,-5.18346 26.1579,-15.48514 20.39364,-9.62266 23.11332,-10.66198 24,-9.17163 2.34901,3.94826 7.80954,9.25823 11.15166,10.84418 l 3.60469,1.71052 -0.6094,7.14227 c -0.33516,3.92824 -0.90824,13.52177 -1.2735,21.31895 l -0.6641,14.17669 5.16713,5.79738 c 5.2356,5.87421 7.70617,11.61066 6.45681,14.99215 -0.37737,1.0214 -2.48752,4.43351 -4.68921,7.58248 -2.41158,3.44916 -4.26297,7.42483 -4.6568,10 l -0.65373,4.27461 -1.27227,-3 z m 21.48032,-23.77494 c -2.17712,-1.23311 -5.29152,-4.13882 -6.92089,-6.45712 -2.8492,-4.05392 -3.05272,-5.10077 -5.32255,-27.37722 -1.29804,-12.73917 -2.15618,-23.36603 -1.90698,-23.61523 0.24921,-0.2492 2.40064,-0.88715 4.78097,-1.41766 5.18111,-1.15473 9.85079,-4.16886 12.4349,-8.02633 1.04113,-1.55416 2.24321,-2.82704 2.6713,-2.82862 0.42808,-0.002 8.82355,3.37212 18.65659,7.49712 9.83304,4.125 18.314287,7.5 18.847227,7.5 0.53294,0 3.60845,-1.1673 6.83447,-2.594 6.67,-2.94979 13.09038,-3.42505 16.26171,-1.20377 1.1894,0.83309 3.84872,3.9409 5.90958,6.90624 2.06087,2.96534 5.23728,6.13963 7.05868,7.05398 1.8214,0.91436 3.61354,1.97317 3.98252,2.35292 0.81402,0.83777 -22.26862,-0.0663 -25.92367,-1.0154 l -2.59455,-0.67369 1.02052,4.98184 c 2.60663,12.72474 -9.44453,24.41525 -21.928097,21.27185 -6.22586,-1.56769 -6.40332,-1.48227 -6.40332,3.08217 0,12.97017 -15.63252,21.26108 -27.45841,14.56292 z m -107.5416,-52.86275 c -3.7821,-1.36951 -6.84357,-1.81897 -9.80156,-1.439 -2.36586,0.30391 -4.06764,0.17407 -3.78173,-0.28854 1.16436,-1.88397 15.40338,-10.95566 19.77501,-12.59866 l 4.69172,-1.76331 -2.98557,-2.51219 c -6.54206,-5.50479 -8.51919,-14.09458 -5.0182,-21.80198 1.71558,-3.77686 7.20113,-9.45863 9.13196,-9.45863 0.47199,0 2.04282,-0.45041 3.49073,-1.0009 l 2.63255,-1.0009 -2.267,-3.1837 c -4.93928,-6.93659 -3.09457,-19.34465 3.66667,-24.66304 5.93961,-4.6721 16.38331,-5.29932 22.6085,-1.35781 2.69704,1.70765 34.85692,37.60156 34.85692,38.9041 0,0.3114 -0.89368,2.01219 -1.98597,3.77954 -1.09228,1.76735 -2.33474,5.63688 -2.76102,8.59896 l -0.77507,5.38561 -22.98897,5.08118 -22.98897,5.08118 -2.69368,4.93789 c -1.48152,2.71584 -4.28741,6.40039 -6.23531,8.18789 -4.2287,3.88049 -8.19164,4.14649 -16.57101,1.11231 z m 88.00052,-11.98576 c -8.94296,-3.56604 -12.90064,-15.27729 -7.74712,-22.9246 8.7616,-13.00133 28.74661,-7.21166 28.74661,8.3279 0,6.43081 -2.7608,10.94185 -8.35343,13.6492 -4.6051,2.22929 -8.66814,2.53371 -12.64606,0.9475 z m 47.49949,-6.74228 -20,-3.65767 -0.58383,-5.9883 c -0.64804,-6.64685 -2.46035,-10.80596 -6.25187,-14.34753 l -2.52573,-2.35922 12.87803,-16.06895 12.87802,-16.06895 -0.58381,-9.58287 c -0.56328,-9.245868 -0.49319,-9.690598 1.9932,-12.645498 1.77168,-2.10552 4.51742,-3.65012 8.78613,-4.94258 4.26204,-1.29044 7.288527,-2.99141 9.651307,-5.42429 l 3.44221,-3.54433 -0.74348,3.99796 c -1.16583,6.26908 -5.13472,17.26022 -7.36226,20.388518 l -2.025637,2.84476 4.642887,0.63638 c 14.16022,1.94087 21.44985,15.53471 14.91802,27.8194 l -2.38682,4.48898 3.38717,1.22481 c 9.9525,3.59887 14.77077,13.07063 11.7771,23.15142 -2.33042,7.84738 -11.17521,14.15762 -19.39064,13.83408 -1.375,-0.0541 -11.499997,-1.7444 -22.499997,-3.75612 z m -66.56608,-44.86952 c -6.28866,-10.15304 -11.66852,-18.83866 -11.95523,-19.30138 -0.28672,-0.46273 -3.74324,-1.51311 -7.68117,-2.33419 -12.35499,-2.5761 -15.36101,-6.023308 -15.18759,-17.416598 0.0712,-4.6791 -0.43554,-7.94157 -1.57621,-10.14739 -0.92466,-1.78808 -1.49618,-3.43607 -1.27006,-3.66219 0.7722,-0.7722 14.22787,9.28987 17.98373,13.44811 4.18972,4.63859 4.7526,4.92059 4.7526,2.38102 0,-3.03111 4.88885,-9.13479 8.9942,-11.22918 4.37153,-2.23019 12.79804,-2.6877 16.32154,-0.88617 1.20134,0.61424 4.00757,2.8704 6.23607,5.0137 l 4.05182,3.89691 2.29697,-3.10682 c 7.00078,-9.46905 23.14693,-8.8503 29.75846,1.1404 2.20586,3.33327 2.85808,5.60454 3.10957,10.82851 l 0.31823,6.610508 -11.40219,20.00001 -11.40219,20 -6.55158,-0.33646 c -4.88286,-0.25075 -7.67375,0.15994 -10.95731,1.61241 l -4.40572,1.94886 -11.43394,-18.46006 z" id="path3285" inkscape:connector-curvature="0"/>
  </g>
</svg>