<?xml version="1.0" encoding="UTF-8" standalone="no"?>
<!-- Created with Inkscape (http://www.inkscape.org/) -->

<svg
   xmlns:dc="http://purl.org/dc/elements/1.1/"
   xmlns:cc="http://creativecommons.org/ns#"
   xmlns:rdf="http://www.w3.org/1999/02/22-rdf-syntax-ns#"
   xmlns:svg="http://www.w3.org/2000/svg"
   xmlns="http://www.w3.org/2000/svg"
   xmlns:sodipodi="http://sodipodi.sourceforge.net/DTD/sodipodi-0.dtd"
   xmlns:inkscape="http://www.inkscape.org/namespaces/inkscape"
   width="452.85715"
   height="302.85712"
   id="svg6378"
   version="1.1"
   inkscape:version="0.48.4 r9939"
   sodipodi:docname="Nieuw document 30">
  <defs
     id="defs6380" />
  <sodipodi:namedview
     id="base"
     pagecolor="#ffffff"
     bordercolor="#666666"
     borderopacity="1.0"
     inkscape:pageopacity="0.0"
     inkscape:pageshadow="2"
     inkscape:zoom="0.98994949"
     inkscape:cx="434.80223"
     inkscape:cy="76.379918"
     inkscape:document-units="px"
     inkscape:current-layer="layer1"
     showgrid="false"
     fit-margin-top="0"
     fit-margin-left="0"
     fit-margin-right="0"
     fit-margin-bottom="0"
     inkscape:window-width="1600"
     inkscape:window-height="837"
     inkscape:window-x="-8"
     inkscape:window-y="-8"
     inkscape:window-maximized="1" />
  <metadata
     id="metadata6383">
    <rdf:RDF>
      <cc:Work
         rdf:about="">
        <dc:format>image/svg+xml</dc:format>
        <dc:type
           rdf:resource="http://purl.org/dc/dcmitype/StillImage" />
        <dc:title></dc:title>
      </cc:Work>
    </rdf:RDF>
  </metadata>
  <g
     inkscape:label="Laag 1"
     inkscape:groupmode="layer"
     id="layer1"
     transform="translate(-22.142855,-178.07648)">
    <rect
       style="fill:#ffffff;fill-opacity:1;fill-rule:evenodd;stroke:none"
       id="rect5566"
       width="452.85709"
       height="302.85709"
       x="22.14291"
       y="178.07648" />
    <rect
       style="fill:#fcdd09;fill-opacity:1;fill-rule:evenodd;stroke:none"
       id="rect5570"
       width="452.85709"
       height="100.7143"
       x="22.14291"
       y="380.2193" />
    <rect
       style="fill:#da121a;fill-opacity:1;fill-rule:evenodd;stroke:none"
       id="rect5572"
       width="301.4285"
       height="101.4286"
       x="173.5715"
       y="178.07648" />
    <path
       style="fill:#da121a;fill-opacity:1;stroke:none"
       d="m 22.142855,178.07656 0,20.7143 131.071395,131.7857 20.3572,0 0,-22.3215 -130.892895,-130.1785 z"
       id="path5574"
       inkscape:connector-curvature="0" />
    <path
       style="fill:#da121a;fill-opacity:1;stroke:#000000;stroke-width:0.27802965px;stroke-linecap:butt;stroke-linejoin:miter;stroke-opacity:0"
       d="m 108.63055,185.10806 c -0.7561,1.3799 -1.5651,2.7599 -2.8143,4.1399 -2.7972,3.0109 -2.3775,6.2711 -1.0788,9.5996 1.3148,3.8798 1.845,7.7596 2.2983,11.6394 l -0.4221,0 c -0.5831,-5.2091 -1.4833,-8.8874 -2.965,-10.7763 -2.2576,-2.878 -4.896895,-3.2059 -7.019295,-2.1609 -4.7262,2.3264 -6.2501,15.0664 3.417495,14.3772 -2.993295,-4.8142 1.8754,-9.3038 4.456,-1.4999 -0.3428,0.3399 -0.4469,0.68 0.046,1.0199 -1.1439,0.2314 -1.463,2.5667 0.066,2.7702 -0.3057,0.4166 -0.3726,0.833 0.028,1.2497 -1.8816,5.1188 -5.011095,2.4811 -4.2685,0.2399 -4.118595,2.5274 -0.2933,9.0485 4.5499,5.0999 0.6236,-0.7463 1.9875,-2.7304 2.1107,-5.3999 l 0.4223,0 c -0.1449,1.2414 -0.5273,2.5586 -1.1727,3.9599 -1.8094,4.3989 -0.734,7.4383 2.2046,9.5997 l 0.1407,-43.8583 z"
       id="path3815-5-2-8-8-3-3-7-3"
       sodipodi:nodetypes="cccccsscccccccccccc"
       inkscape:connector-curvature="0" />
    <path
       style="fill:#da121a;fill-opacity:1;stroke:#000000;stroke-width:0.27802965px;stroke-linecap:butt;stroke-linejoin:miter;stroke-opacity:0"
       d="m 108.48995,185.19806 c 0.7562,1.38 1.4245,2.5798 2.6736,3.9598 2.7971,3.011 2.3776,6.2712 1.0788,9.5996 -1.3147,3.8798 -1.845,7.7597 -2.2983,11.6395 l 0.4221,0 c 0.5831,-5.2092 1.4833,-8.8874 2.9651,-10.7762 2.2575,-2.8781 4.8968,-3.2059 7.0193,-2.1611 4.7262,2.3265 6.25,15.0664 -3.4174,14.3774 2.9931,-4.8144 -1.8756,-9.304 -4.4562,-1.5001 0.3427,0.3401 0.4469,0.68 -0.046,1.02 1.1441,0.2315 1.4631,2.5667 -0.066,2.7701 0.3057,0.4167 0.3728,0.8331 -0.028,1.2498 1.8815,5.1188 5.0111,2.481 4.2684,0.24 4.1187,2.5273 0.2933,9.0485 -4.5499,5.0997 -0.6236,-0.746 -1.9876,-2.7304 -2.1107,-5.3997 l -0.4222,0 c 0.1452,1.2413 0.5272,2.5585 1.1726,3.9598 1.8096,4.3988 0.734,7.4383 -2.2045,9.5996 l 0,-43.6782 z"
       id="path3815-1-2-9-8-30-3-9-5-1"
       sodipodi:nodetypes="cccccsscccccccccccc"
       inkscape:connector-curvature="0" />
    <path
       style="fill:#da121a;fill-opacity:1;stroke:#000000;stroke-width:0.27802965px;stroke-linecap:butt;stroke-linejoin:miter;stroke-opacity:0"
       d="m 108.48995,185.57306 -1.0671,2.175 -0.129,16.8592 0.6332,12.2694 -0.4222,8.1297 0.9851,3.9899 0.8677,-3.8699 -0.4456,-9.5696 0.6097,-15.6593 -0.1172,-9.9895 -0.9147,-4.3349 z"
       id="path3839-7-5-1-3-7-59-4-2"
       inkscape:connector-curvature="0" />
    <path
       style="fill:#ffffff;fill-opacity:1;stroke:#000000;stroke-width:0.27802965px;stroke-linecap:butt;stroke-linejoin:miter;stroke-opacity:0"
       d="m 108.02535,209.59766 0.9287,0 -0.3981,-21.2124 -0.5306,21.2124 z"
       id="path3921-2-8-6-0-7-1-3"
       inkscape:connector-curvature="0" />
    <path
       style="fill:#ffffff;fill-opacity:1;stroke:#000000;stroke-width:0.27802965px;stroke-linecap:butt;stroke-linejoin:miter;stroke-opacity:0"
       d="m 108.29065,216.38566 0.1326,10.6909 0.5307,-10.6909 -0.6634,0 z"
       id="path3923-0-6-2-9-20-2-3"
       inkscape:connector-curvature="0" />
    <path
       style="fill:#ffffff;fill-opacity:1;stroke:#000000;stroke-width:0.28679496px;stroke-linecap:butt;stroke-linejoin:miter;stroke-opacity:0"
       d="m 104.27095,214.18366 8.5294,-0.084 c 0.137,0.4493 0.3782,0.8988 -0.2133,1.3482 l -8.1739,-0.084 c -0.2884,-0.3932 -0.5922,-0.7865 -0.1422,-1.1796 z"
       id="path4201-3-2-7-7-3-7-4"
       sodipodi:nodetypes="ccccc"
       inkscape:connector-curvature="0" />
    <path
       style="fill:none;stroke:#f2f2f2;stroke-width:0.42831764px;stroke-linecap:butt;stroke-linejoin:miter;stroke-opacity:1"
       d="m 103.55715,211.18056 9.8428,0"
       id="path6126-1"
       inkscape:connector-curvature="0"
       sodipodi:nodetypes="cc" />
    <path
       style="fill:none;stroke:#f2f2f2;stroke-width:0.42831764px;stroke-linecap:butt;stroke-linejoin:miter;stroke-opacity:1"
       d="m 103.73295,214.29656 9.8429,0"
       id="path6126-4-1"
       inkscape:connector-curvature="0"
       sodipodi:nodetypes="cc" />
    <path
       style="fill:#da121a;fill-opacity:1;stroke:#000000;stroke-width:0.27802965px;stroke-linecap:butt;stroke-linejoin:miter;stroke-opacity:0"
       d="m 153.89055,185.41816 c -0.7561,1.3799 -1.5651,2.7599 -2.8143,4.1399 -2.7972,3.0109 -2.3775,6.2711 -1.0788,9.5996 1.3148,3.8798 1.845,7.7596 2.2983,11.6394 l -0.4221,0 c -0.5831,-5.2091 -1.4833,-8.8874 -2.965,-10.7763 -2.2576,-2.878 -4.8969,-3.2059 -7.0193,-2.1609 -4.7262,2.3264 -6.2501,15.0664 3.4175,14.3772 -2.9933,-4.8142 1.8754,-9.3038 4.456,-1.4999 -0.3428,0.3399 -0.4469,0.68 0.046,1.0199 -1.1439,0.2314 -1.463,2.5667 0.066,2.7702 -0.3057,0.4166 -0.3726,0.833 0.028,1.2497 -1.8816,5.1188 -5.0111,2.4811 -4.2685,0.2399 -4.1186,2.5274 -0.2933,9.0485 4.5499,5.0999 0.6236,-0.7463 1.9875,-2.7304 2.1107,-5.3999 l 0.4223,0 c -0.1449,1.2414 -0.5273,2.5586 -1.1727,3.9599 -1.8094,4.3989 -0.734,7.4383 2.2046,9.5997 l 0.1407,-43.8583 z"
       id="path3815-5-2-8-8-3-3-7-3-3"
       sodipodi:nodetypes="cccccsscccccccccccc"
       inkscape:connector-curvature="0" />
    <path
       style="fill:#da121a;fill-opacity:1;stroke:#000000;stroke-width:0.27802965px;stroke-linecap:butt;stroke-linejoin:miter;stroke-opacity:0"
       d="m 153.74995,185.50816 c 0.7562,1.38 1.4245,2.5798 2.6736,3.9598 2.7971,3.011 2.3776,6.2712 1.0788,9.5996 -1.3147,3.8798 -1.845,7.7597 -2.2983,11.6395 l 0.4221,0 c 0.5831,-5.2092 1.4833,-8.8874 2.9651,-10.7762 2.2575,-2.8781 4.8968,-3.2059 7.0193,-2.1611 4.7262,2.3265 6.25,15.0664 -3.4174,14.3774 2.9931,-4.8144 -1.8756,-9.304 -4.4562,-1.5001 0.3427,0.3401 0.4469,0.68 -0.046,1.02 1.1441,0.2315 1.4631,2.5667 -0.066,2.7701 0.3057,0.4167 0.3728,0.8331 -0.028,1.2498 1.8815,5.1188 5.0111,2.481 4.2684,0.24 4.1187,2.5273 0.2933,9.0485 -4.5499,5.0997 -0.6236,-0.746 -1.9876,-2.7304 -2.1107,-5.3997 l -0.4222,0 c 0.1452,1.2413 0.5272,2.5585 1.1726,3.9598 1.8096,4.3988 0.734,7.4383 -2.2045,9.5996 l 0,-43.6782 z"
       id="path3815-1-2-9-8-30-3-9-5-1-8"
       sodipodi:nodetypes="cccccsscccccccccccc"
       inkscape:connector-curvature="0" />
    <path
       style="fill:#da121a;fill-opacity:1;stroke:#000000;stroke-width:0.27802965px;stroke-linecap:butt;stroke-linejoin:miter;stroke-opacity:0"
       d="m 153.74995,185.88316 -1.0671,2.175 -0.129,16.8592 0.6332,12.2694 -0.4222,8.1297 0.9851,3.9899 0.8677,-3.8699 -0.4456,-9.5696 0.6097,-15.6593 -0.1172,-9.9895 -0.9147,-4.3349 z"
       id="path3839-7-5-1-3-7-59-4-2-7"
       inkscape:connector-curvature="0" />
    <path
       style="fill:#ffffff;fill-opacity:1;stroke:#000000;stroke-width:0.27802965px;stroke-linecap:butt;stroke-linejoin:miter;stroke-opacity:0"
       d="m 153.28535,209.90776 0.9287,0 -0.3981,-21.2124 -0.5306,21.2124 z"
       id="path3921-2-8-6-0-7-1-3-4"
       inkscape:connector-curvature="0" />
    <path
       style="fill:#ffffff;fill-opacity:1;stroke:#000000;stroke-width:0.27802965px;stroke-linecap:butt;stroke-linejoin:miter;stroke-opacity:0"
       d="m 153.55065,216.69576 0.1326,10.6909 0.5307,-10.6909 -0.6634,0 z"
       id="path3923-0-6-2-9-20-2-3-2"
       inkscape:connector-curvature="0" />
    <path
       style="fill:#ffffff;fill-opacity:1;stroke:#000000;stroke-width:0.28679496px;stroke-linecap:butt;stroke-linejoin:miter;stroke-opacity:0"
       d="m 149.53095,214.49376 8.5294,-0.084 c 0.137,0.4493 0.3782,0.8988 -0.2133,1.3482 l -8.1739,-0.084 c -0.2884,-0.3932 -0.5922,-0.7865 -0.1422,-1.1796 z"
       id="path4201-3-2-7-7-3-7-4-7"
       sodipodi:nodetypes="ccccc"
       inkscape:connector-curvature="0" />
    <path
       style="fill:none;stroke:#f2f2f2;stroke-width:0.42831764px;stroke-linecap:butt;stroke-linejoin:miter;stroke-opacity:1"
       d="m 148.81715,211.49066 9.8428,0"
       id="path6126-1-7"
       inkscape:connector-curvature="0"
       sodipodi:nodetypes="cc" />
    <path
       style="fill:none;stroke:#f2f2f2;stroke-width:0.42831764px;stroke-linecap:butt;stroke-linejoin:miter;stroke-opacity:1"
       d="m 148.99295,214.60666 9.8429,0"
       id="path6126-4-1-9"
       inkscape:connector-curvature="0"
       sodipodi:nodetypes="cc" />
    <path
       style="fill:#da121a;fill-opacity:1;stroke:#000000;stroke-width:0.27802965px;stroke-linecap:butt;stroke-linejoin:miter;stroke-opacity:0"
       d="m 154.06915,232.66816 c -0.7561,1.3799 -1.5651,2.7599 -2.8143,4.1399 -2.7972,3.0109 -2.3775,6.2711 -1.0788,9.5996 1.3148,3.8798 1.845,7.7596 2.2983,11.6394 l -0.4221,0 c -0.5831,-5.2091 -1.4833,-8.8874 -2.965,-10.7763 -2.2576,-2.878 -4.8969,-3.2059 -7.0193,-2.1609 -4.7262,2.3264 -6.2501,15.0664 3.4175,14.3772 -2.9933,-4.8142 1.8754,-9.3038 4.456,-1.4999 -0.3428,0.3399 -0.4469,0.68 0.046,1.0199 -1.1439,0.2314 -1.463,2.5667 0.066,2.7702 -0.3057,0.4166 -0.3726,0.833 0.028,1.2497 -1.8816,5.1188 -5.0111,2.4811 -4.2685,0.2399 -4.1186,2.5274 -0.2933,9.0485 4.5499,5.0999 0.6236,-0.7463 1.9875,-2.7304 2.1107,-5.3999 l 0.4223,0 c -0.1449,1.2414 -0.5273,2.5586 -1.1727,3.9599 -1.8094,4.3989 -0.734,7.4383 2.2046,9.5997 l 0.1407,-43.8583 z"
       id="path3815-5-2-8-8-3-3-7-3-31"
       sodipodi:nodetypes="cccccsscccccccccccc"
       inkscape:connector-curvature="0" />
    <path
       style="fill:#da121a;fill-opacity:1;stroke:#000000;stroke-width:0.27802965px;stroke-linecap:butt;stroke-linejoin:miter;stroke-opacity:0"
       d="m 153.92855,232.75816 c 0.7562,1.38 1.4245,2.5798 2.6736,3.9598 2.7971,3.011 2.3776,6.2712 1.0788,9.5996 -1.3147,3.8798 -1.845,7.7597 -2.2983,11.6395 l 0.4221,0 c 0.5831,-5.2092 1.4833,-8.8874 2.9651,-10.7762 2.2575,-2.8781 4.8968,-3.2059 7.0193,-2.1611 4.7262,2.3265 6.25,15.0664 -3.4174,14.3774 2.9931,-4.8144 -1.8756,-9.304 -4.4562,-1.5001 0.3427,0.3401 0.4469,0.68 -0.046,1.02 1.1441,0.2315 1.4631,2.5667 -0.066,2.7701 0.3057,0.4167 0.3728,0.8331 -0.028,1.2498 1.8815,5.1188 5.0111,2.481 4.2684,0.24 4.1187,2.5273 0.2933,9.0485 -4.5499,5.0997 -0.6236,-0.746 -1.9876,-2.7304 -2.1107,-5.3997 l -0.4222,0 c 0.1452,1.2413 0.5272,2.5585 1.1726,3.9598 1.8096,4.3988 0.734,7.4383 -2.2045,9.5996 l 0,-43.6782 z"
       id="path3815-1-2-9-8-30-3-9-5-1-9"
       sodipodi:nodetypes="cccccsscccccccccccc"
       inkscape:connector-curvature="0" />
    <path
       style="fill:#da121a;fill-opacity:1;stroke:#000000;stroke-width:0.27802965px;stroke-linecap:butt;stroke-linejoin:miter;stroke-opacity:0"
       d="m 153.92855,233.13316 -1.0671,2.175 -0.129,16.8592 0.6332,12.2694 -0.4222,8.1297 0.9851,3.9899 0.8677,-3.8699 -0.4456,-9.5696 0.6097,-15.6593 -0.1172,-9.9895 -0.9147,-4.3349 z"
       id="path3839-7-5-1-3-7-59-4-2-8"
       inkscape:connector-curvature="0" />
    <path
       style="fill:#ffffff;fill-opacity:1;stroke:#000000;stroke-width:0.27802965px;stroke-linecap:butt;stroke-linejoin:miter;stroke-opacity:0"
       d="m 153.46395,257.15776 0.9287,0 -0.3981,-21.2124 -0.5306,21.2124 z"
       id="path3921-2-8-6-0-7-1-3-6"
       inkscape:connector-curvature="0" />
    <path
       style="fill:#ffffff;fill-opacity:1;stroke:#000000;stroke-width:0.27802965px;stroke-linecap:butt;stroke-linejoin:miter;stroke-opacity:0"
       d="m 153.72925,263.94576 0.1326,10.6909 0.5307,-10.6909 -0.6634,0 z"
       id="path3923-0-6-2-9-20-2-3-5"
       inkscape:connector-curvature="0" />
    <path
       style="fill:#ffffff;fill-opacity:1;stroke:#000000;stroke-width:0.28679496px;stroke-linecap:butt;stroke-linejoin:miter;stroke-opacity:0"
       d="m 149.70955,261.74376 8.5294,-0.084 c 0.137,0.4493 0.3782,0.8988 -0.2133,1.3482 l -8.1739,-0.084 c -0.2884,-0.3932 -0.5922,-0.7865 -0.1422,-1.1796 z"
       id="path4201-3-2-7-7-3-7-4-0"
       sodipodi:nodetypes="ccccc"
       inkscape:connector-curvature="0" />
    <path
       style="fill:none;stroke:#f2f2f2;stroke-width:0.42831764px;stroke-linecap:butt;stroke-linejoin:miter;stroke-opacity:1"
       d="m 148.99575,258.74066 9.8428,0"
       id="path6126-1-2"
       inkscape:connector-curvature="0"
       sodipodi:nodetypes="cc" />
    <path
       style="fill:none;stroke:#f2f2f2;stroke-width:0.42831764px;stroke-linecap:butt;stroke-linejoin:miter;stroke-opacity:1"
       d="m 149.17155,261.85666 9.8429,0"
       id="path6126-4-1-8"
       inkscape:connector-curvature="0"
       sodipodi:nodetypes="cc" />
    <path
       style="fill:#da121a;fill-opacity:1;stroke:#000000;stroke-width:0.27802965px;stroke-linecap:butt;stroke-linejoin:miter;stroke-opacity:0"
       d="m 41.569155,233.20386 c -0.7561,1.3799 -1.5651,2.7599 -2.8143,4.1399 -2.7972,3.0109 -2.3775,6.2711 -1.0788,9.5996 1.3148,3.8798 1.845,7.7596 2.2983,11.6394 l -0.4221,0 c -0.5831,-5.2091 -1.4833,-8.8874 -2.965,-10.7763 -2.2576,-2.878 -4.8969,-3.2059 -7.0193,-2.1609 -4.7262,2.3264 -6.2501,15.0664 3.4175,14.3772 -2.9933,-4.8142 1.8754,-9.3038 4.456,-1.4999 -0.3428,0.3399 -0.4469,0.68 0.046,1.0199 -1.1439,0.2314 -1.463,2.5667 0.066,2.7702 -0.3057,0.4166 -0.3726,0.833 0.028,1.2497 -1.8816,5.1188 -5.0111,2.4811 -4.2685,0.2399 -4.1186,2.5274 -0.2933,9.0485 4.5499,5.0999 0.6236,-0.7463 1.9875,-2.7304 2.1107,-5.3999 l 0.4223,0 c -0.1449,1.2414 -0.5273,2.5586 -1.1727,3.9599 -1.8094,4.3989 -0.734,7.4383 2.2046,9.5997 l 0.1407,-43.8583 z"
       id="path3815-5-2-8-8-3-3-7-3-6"
       sodipodi:nodetypes="cccccsscccccccccccc"
       inkscape:connector-curvature="0" />
    <path
       style="fill:#da121a;fill-opacity:1;stroke:#000000;stroke-width:0.27802965px;stroke-linecap:butt;stroke-linejoin:miter;stroke-opacity:0"
       d="m 41.428555,233.29386 c 0.7562,1.38 1.4245,2.5798 2.6736,3.9598 2.7971,3.011 2.3776,6.2712 1.0788,9.5996 -1.3147,3.8798 -1.845,7.7597 -2.2983,11.6395 l 0.4221,0 c 0.5831,-5.2092 1.4833,-8.8874 2.9651,-10.7762 2.2575,-2.8781 4.8968,-3.2059 7.0193,-2.1611 4.7262,2.3265 6.25,15.0664 -3.4174,14.3774 2.9931,-4.8144 -1.8756,-9.304 -4.4562,-1.5001 0.3427,0.3401 0.4469,0.68 -0.046,1.02 1.1441,0.2315 1.4631,2.5667 -0.066,2.7701 0.3057,0.4167 0.3728,0.8331 -0.028,1.2498 1.8815,5.1188 5.0111,2.481 4.2684,0.24 4.1187,2.5273 0.2933,9.0485 -4.5499,5.0997 -0.6236,-0.746 -1.9876,-2.7304 -2.1107,-5.3997 l -0.4222,0 c 0.1452,1.2413 0.5272,2.5585 1.1726,3.9598 1.8096,4.3988 0.734,7.4383 -2.2045,9.5996 l 0,-43.6782 z"
       id="path3815-1-2-9-8-30-3-9-5-1-0"
       sodipodi:nodetypes="cccccsscccccccccccc"
       inkscape:connector-curvature="0" />
    <path
       style="fill:#da121a;fill-opacity:1;stroke:#000000;stroke-width:0.27802965px;stroke-linecap:butt;stroke-linejoin:miter;stroke-opacity:0"
       d="m 41.428555,233.66886 -1.0671,2.175 -0.129,16.8592 0.6332,12.2694 -0.4222,8.1297 0.9851,3.9899 0.8677,-3.8699 -0.4456,-9.5696 0.6097,-15.6593 -0.1172,-9.9895 -0.9147,-4.3349 z"
       id="path3839-7-5-1-3-7-59-4-2-2"
       inkscape:connector-curvature="0" />
    <path
       style="fill:#ffffff;fill-opacity:1;stroke:#000000;stroke-width:0.27802965px;stroke-linecap:butt;stroke-linejoin:miter;stroke-opacity:0"
       d="m 40.963955,257.69346 0.9287,0 -0.3981,-21.2124 -0.5306,21.2124 z"
       id="path3921-2-8-6-0-7-1-3-48"
       inkscape:connector-curvature="0" />
    <path
       style="fill:#ffffff;fill-opacity:1;stroke:#000000;stroke-width:0.27802965px;stroke-linecap:butt;stroke-linejoin:miter;stroke-opacity:0"
       d="m 41.229255,264.48146 0.1326,10.6909 0.5307,-10.6909 -0.6634,0 z"
       id="path3923-0-6-2-9-20-2-3-6"
       inkscape:connector-curvature="0" />
    <path
       style="fill:#ffffff;fill-opacity:1;stroke:#000000;stroke-width:0.28679496px;stroke-linecap:butt;stroke-linejoin:miter;stroke-opacity:0"
       d="m 37.209555,262.27946 8.5294,-0.084 c 0.137,0.4493 0.3782,0.8988 -0.2133,1.3482 l -8.1739,-0.084 c -0.2884,-0.3932 -0.5922,-0.7865 -0.1422,-1.1796 z"
       id="path4201-3-2-7-7-3-7-4-5"
       sodipodi:nodetypes="ccccc"
       inkscape:connector-curvature="0" />
    <path
       style="fill:none;stroke:#f2f2f2;stroke-width:0.42831764px;stroke-linecap:butt;stroke-linejoin:miter;stroke-opacity:1"
       d="m 36.495755,259.27636 9.8428,0"
       id="path6126-1-0"
       inkscape:connector-curvature="0"
       sodipodi:nodetypes="cc" />
    <path
       style="fill:none;stroke:#f2f2f2;stroke-width:0.42831764px;stroke-linecap:butt;stroke-linejoin:miter;stroke-opacity:1"
       d="m 36.671555,262.39236 9.8429,0"
       id="path6126-4-1-90"
       inkscape:connector-curvature="0"
       sodipodi:nodetypes="cc" />
    <path
       style="fill:#da121a;fill-opacity:1;stroke:#000000;stroke-width:0.27802965px;stroke-linecap:butt;stroke-linejoin:miter;stroke-opacity:0"
       d="m 41.889755,283.10906 c -0.7561,1.3799 -1.5651,2.7599 -2.8143,4.1399 -2.7972,3.0109 -2.3775,6.2711 -1.0788,9.5996 1.3148,3.8798 1.845,7.7596 2.2983,11.6394 l -0.4221,0 c -0.5831,-5.2091 -1.4833,-8.8874 -2.965,-10.7763 -2.2576,-2.878 -4.8969,-3.2059 -7.0193,-2.1609 -4.7262,2.3264 -6.2501,15.0664 3.4175,14.3772 -2.9933,-4.8142 1.8754,-9.3038 4.456,-1.4999 -0.3428,0.3399 -0.4469,0.68 0.046,1.0199 -1.1439,0.2314 -1.463,2.5667 0.066,2.7702 -0.3057,0.4166 -0.3726,0.833 0.028,1.2497 -1.8816,5.1188 -5.0111,2.4811 -4.2685,0.2399 -4.1186,2.5274 -0.2933,9.0485 4.5499,5.0999 0.6236,-0.7463 1.9875,-2.7304 2.1107,-5.3999 l 0.4223,0 c -0.1449,1.2414 -0.5273,2.5586 -1.1727,3.9599 -1.8094,4.3989 -0.734,7.4383 2.2046,9.5997 l 0.1407,-43.8583 z"
       id="path3815-5-2-8-8-3-3-7-3-0"
       sodipodi:nodetypes="cccccsscccccccccccc"
       inkscape:connector-curvature="0" />
    <path
       style="fill:#da121a;fill-opacity:1;stroke:#000000;stroke-width:0.27802965px;stroke-linecap:butt;stroke-linejoin:miter;stroke-opacity:0"
       d="m 41.749155,283.19906 c 0.7562,1.38 1.4245,2.5798 2.6736,3.9598 2.7971,3.011 2.3776,6.2712 1.0788,9.5996 -1.3147,3.8798 -1.845,7.7597 -2.2983,11.6395 l 0.4221,0 c 0.5831,-5.2092 1.4833,-8.8874 2.9651,-10.7762 2.2575,-2.8781 4.8968,-3.2059 7.0193,-2.1611 4.7262,2.3265 6.25,15.0664 -3.4174,14.3774 2.9931,-4.8144 -1.8756,-9.304 -4.4562,-1.5001 0.3427,0.3401 0.4469,0.68 -0.046,1.02 1.1441,0.2315 1.4631,2.5667 -0.066,2.7701 0.3057,0.4167 0.3728,0.8331 -0.028,1.2498 1.8815,5.1188 5.0111,2.481 4.2684,0.24 4.1187,2.5273 0.2933,9.0485 -4.5499,5.0997 -0.6236,-0.746 -1.9876,-2.7304 -2.1107,-5.3997 l -0.4222,0 c 0.1452,1.2413 0.5272,2.5585 1.1726,3.9598 1.8096,4.3988 0.734,7.4383 -2.2045,9.5996 l 0,-43.6782 z"
       id="path3815-1-2-9-8-30-3-9-5-1-6"
       sodipodi:nodetypes="cccccsscccccccccccc"
       inkscape:connector-curvature="0" />
    <path
       style="fill:#da121a;fill-opacity:1;stroke:#000000;stroke-width:0.27802965px;stroke-linecap:butt;stroke-linejoin:miter;stroke-opacity:0"
       d="m 41.749155,283.57406 -1.0671,2.175 -0.129,16.8592 0.6332,12.2694 -0.4222,8.1297 0.9851,3.9899 0.8677,-3.8699 -0.4456,-9.5696 0.6097,-15.6593 -0.1172,-9.9895 -0.9147,-4.3349 z"
       id="path3839-7-5-1-3-7-59-4-2-1"
       inkscape:connector-curvature="0" />
    <path
       style="fill:#ffffff;fill-opacity:1;stroke:#000000;stroke-width:0.27802965px;stroke-linecap:butt;stroke-linejoin:miter;stroke-opacity:0"
       d="m 41.284555,307.59866 0.9287,0 -0.3981,-21.2124 -0.5306,21.2124 z"
       id="path3921-2-8-6-0-7-1-3-3"
       inkscape:connector-curvature="0" />
    <path
       style="fill:#ffffff;fill-opacity:1;stroke:#000000;stroke-width:0.27802965px;stroke-linecap:butt;stroke-linejoin:miter;stroke-opacity:0"
       d="m 41.549855,314.38666 0.1326,10.6909 0.5307,-10.6909 -0.6634,0 z"
       id="path3923-0-6-2-9-20-2-3-8"
       inkscape:connector-curvature="0" />
    <path
       style="fill:#ffffff;fill-opacity:1;stroke:#000000;stroke-width:0.28679496px;stroke-linecap:butt;stroke-linejoin:miter;stroke-opacity:0"
       d="m 37.530155,312.18466 8.5294,-0.084 c 0.137,0.4493 0.3782,0.8988 -0.2133,1.3482 l -8.1739,-0.084 c -0.2884,-0.3932 -0.5922,-0.7865 -0.1422,-1.1796 z"
       id="path4201-3-2-7-7-3-7-4-9"
       sodipodi:nodetypes="ccccc"
       inkscape:connector-curvature="0" />
    <path
       style="fill:none;stroke:#f2f2f2;stroke-width:0.42831764px;stroke-linecap:butt;stroke-linejoin:miter;stroke-opacity:1"
       d="m 36.816355,309.18156 9.8428,0"
       id="path6126-1-3"
       inkscape:connector-curvature="0"
       sodipodi:nodetypes="cc" />
    <path
       style="fill:none;stroke:#f2f2f2;stroke-width:0.42831764px;stroke-linecap:butt;stroke-linejoin:miter;stroke-opacity:1"
       d="m 36.992155,312.29756 9.8429,0"
       id="path6126-4-1-4"
       inkscape:connector-curvature="0"
       sodipodi:nodetypes="cc" />
    <path
       style="fill:#da121a;fill-opacity:1;stroke:#000000;stroke-width:0.27802965px;stroke-linecap:butt;stroke-linejoin:miter;stroke-opacity:0"
       d="m 89.872055,283.10906 c -0.7561,1.3799 -1.5651,2.7599 -2.8143,4.1399 -2.7972,3.0109 -2.3775,6.2711 -1.0788,9.5996 1.3148,3.8798 1.845,7.7596 2.2983,11.6394 l -0.4221,0 c -0.5831,-5.2091 -1.4833,-8.8874 -2.965,-10.7763 -2.2576,-2.878 -4.8969,-3.2059 -7.0193,-2.1609 -4.7262,2.3264 -6.2501,15.0664 3.4175,14.3772 -2.9933,-4.8142 1.8754,-9.3038 4.456,-1.4999 -0.3428,0.3399 -0.4469,0.68 0.046,1.0199 -1.1439,0.2314 -1.463,2.5667 0.066,2.7702 -0.3057,0.4166 -0.3726,0.833 0.028,1.2497 -1.8816,5.1188 -5.0111,2.4811 -4.2685,0.2399 -4.1186,2.5274 -0.2933,9.0485 4.5499,5.0999 0.6236,-0.7463 1.9875,-2.7304 2.1107,-5.3999 l 0.4223,0 c -0.1449,1.2414 -0.5273,2.5586 -1.1727,3.9599 -1.8094,4.3989 -0.734,7.4383 2.2046,9.5997 l 0.1407,-43.8583 z"
       id="path3815-5-2-8-8-3-3-7-3-4"
       sodipodi:nodetypes="cccccsscccccccccccc"
       inkscape:connector-curvature="0" />
    <path
       style="fill:#da121a;fill-opacity:1;stroke:#000000;stroke-width:0.27802965px;stroke-linecap:butt;stroke-linejoin:miter;stroke-opacity:0"
       d="m 89.731455,283.19906 c 0.7562,1.38 1.4245,2.5798 2.6736,3.9598 2.7971,3.011 2.3776,6.2712 1.0788,9.5996 -1.3147,3.8798 -1.845,7.7597 -2.2983,11.6395 l 0.4221,0 c 0.5831,-5.2092 1.4833,-8.8874 2.9651,-10.7762 2.2575,-2.8781 4.8968,-3.2059 7.019295,-2.1611 4.7262,2.3265 6.25,15.0664 -3.417395,14.3774 2.993095,-4.8144 -1.8756,-9.304 -4.4562,-1.5001 0.3427,0.3401 0.4469,0.68 -0.046,1.02 1.1441,0.2315 1.4631,2.5667 -0.066,2.7701 0.3057,0.4167 0.3728,0.8331 -0.028,1.2498 1.8815,5.1188 5.0111,2.481 4.2684,0.24 4.118695,2.5273 0.2933,9.0485 -4.5499,5.0997 -0.6236,-0.746 -1.9876,-2.7304 -2.1107,-5.3997 l -0.4222,0 c 0.1452,1.2413 0.5272,2.5585 1.1726,3.9598 1.8096,4.3988 0.734,7.4383 -2.2045,9.5996 l 0,-43.6782 z"
       id="path3815-1-2-9-8-30-3-9-5-1-60"
       sodipodi:nodetypes="cccccsscccccccccccc"
       inkscape:connector-curvature="0" />
    <path
       style="fill:#da121a;fill-opacity:1;stroke:#000000;stroke-width:0.27802965px;stroke-linecap:butt;stroke-linejoin:miter;stroke-opacity:0"
       d="m 89.731455,283.57406 -1.0671,2.175 -0.129,16.8592 0.6332,12.2694 -0.4222,8.1297 0.9851,3.9899 0.8677,-3.8699 -0.4456,-9.5696 0.6097,-15.6593 -0.1172,-9.9895 -0.9147,-4.3349 z"
       id="path3839-7-5-1-3-7-59-4-2-6"
       inkscape:connector-curvature="0" />
    <path
       style="fill:#ffffff;fill-opacity:1;stroke:#000000;stroke-width:0.27802965px;stroke-linecap:butt;stroke-linejoin:miter;stroke-opacity:0"
       d="m 89.266855,307.59866 0.9287,0 -0.3981,-21.2124 -0.5306,21.2124 z"
       id="path3921-2-8-6-0-7-1-3-61"
       inkscape:connector-curvature="0" />
    <path
       style="fill:#ffffff;fill-opacity:1;stroke:#000000;stroke-width:0.27802965px;stroke-linecap:butt;stroke-linejoin:miter;stroke-opacity:0"
       d="m 89.532155,314.38666 0.1326,10.6909 0.5307,-10.6909 -0.6634,0 z"
       id="path3923-0-6-2-9-20-2-3-84"
       inkscape:connector-curvature="0" />
    <path
       style="fill:#ffffff;fill-opacity:1;stroke:#000000;stroke-width:0.28679496px;stroke-linecap:butt;stroke-linejoin:miter;stroke-opacity:0"
       d="m 85.512455,312.18466 8.5294,-0.084 c 0.137,0.4493 0.3782,0.8988 -0.2133,1.3482 l -8.1739,-0.084 c -0.2884,-0.3932 -0.5922,-0.7865 -0.1422,-1.1796 z"
       id="path4201-3-2-7-7-3-7-4-96"
       sodipodi:nodetypes="ccccc"
       inkscape:connector-curvature="0" />
    <path
       style="fill:none;stroke:#f2f2f2;stroke-width:0.42831764px;stroke-linecap:butt;stroke-linejoin:miter;stroke-opacity:1"
       d="m 84.798655,309.18156 9.8428,0"
       id="path6126-1-37"
       inkscape:connector-curvature="0"
       sodipodi:nodetypes="cc" />
    <path
       style="fill:none;stroke:#f2f2f2;stroke-width:0.42831764px;stroke-linecap:butt;stroke-linejoin:miter;stroke-opacity:1"
       d="m 84.974455,312.29756 9.8429,0"
       id="path6126-4-1-88"
       inkscape:connector-curvature="0"
       sodipodi:nodetypes="cc" />
  </g>
</svg>
