<?xml version="1.0" encoding="UTF-8" standalone="no"?>
<!-- Created with Inkscape (http://www.inkscape.org/) -->

<svg
   xmlns:dc="http://purl.org/dc/elements/1.1/"
   xmlns:cc="http://creativecommons.org/ns#"
   xmlns:rdf="http://www.w3.org/1999/02/22-rdf-syntax-ns#"
   xmlns:svg="http://www.w3.org/2000/svg"
   xmlns="http://www.w3.org/2000/svg"
   xmlns:sodipodi="http://sodipodi.sourceforge.net/DTD/sodipodi-0.dtd"
   xmlns:inkscape="http://www.inkscape.org/namespaces/inkscape"
   width="326.07144"
   height="216.4286"
   id="svg5516"
   version="1.1"
   inkscape:version="0.48.4 r9939"
   sodipodi:docname="Nieuw document 23">
  <defs
     id="defs5518" />
  <sodipodi:namedview
     id="base"
     pagecolor="#ffffff"
     bordercolor="#666666"
     borderopacity="1.0"
     inkscape:pageopacity="0.0"
     inkscape:pageshadow="2"
     inkscape:zoom="1.4"
     inkscape:cx="189.16168"
     inkscape:cy="78.197977"
     inkscape:document-units="px"
     inkscape:current-layer="layer1"
     showgrid="false"
     fit-margin-top="0"
     fit-margin-left="0"
     fit-margin-right="0"
     fit-margin-bottom="0"
     inkscape:window-width="1600"
     inkscape:window-height="837"
     inkscape:window-x="-8"
     inkscape:window-y="-8"
     inkscape:window-maximized="1" />
  <metadata
     id="metadata5521">
    <rdf:RDF>
      <cc:Work
         rdf:about="">
        <dc:format>image/svg+xml</dc:format>
        <dc:type
           rdf:resource="http://purl.org/dc/dcmitype/StillImage" />
        <dc:title></dc:title>
      </cc:Work>
    </rdf:RDF>
  </metadata>
  <g
     inkscape:label="Laag 1"
     inkscape:groupmode="layer"
     id="layer1"
     transform="translate(-94.10714,-195.57645)">
    <rect
       style="fill:#da121a;fill-opacity:1;fill-rule:evenodd;stroke:none"
       id="rect5397"
       width="326.07144"
       height="216.4286"
       x="94.10714"
       y="195.57645" />
    <rect
       style="fill:#ffffff;fill-opacity:1;fill-rule:evenodd;stroke:none"
       id="rect5399"
       width="215.35715"
       height="26.875"
       x="204.82143"
       y="195.57645" />
    <rect
       style="fill:#ffffff;fill-opacity:1;fill-rule:evenodd;stroke:none"
       id="rect5401"
       width="215.35715"
       height="26.9643"
       x="204.82143"
       y="249.32645" />
    <rect
       style="fill:#ffffff;fill-opacity:1;fill-rule:evenodd;stroke:none"
       id="rect5403"
       width="326.07144"
       height="26.875"
       x="94.10714"
       y="303.43362" />
    <rect
       style="fill:#ffffff;fill-opacity:1;fill-rule:evenodd;stroke:none"
       id="rect5405"
       width="326.07144"
       height="26.25"
       x="94.10714"
       y="358.1658" />
    <path
       style="fill:#fcdd09;fill-opacity:1"
       d="m 146.77672,293.1777 c -10.5186,-0.8756 -19.8629,-5.0755 -27.3,-12.2705 -5.1103,-4.9441 -8.7894,-10.7432 -11.0459,-17.4108 -1.5722,-4.6456 -2.2219,-8.6948 -2.2219,-13.8472 0,-5.1524 0.6497,-9.2016 2.2219,-13.8472 3.1351,-9.2636 9.3448,-17.2715 17.5325,-22.6097 9.5219,-6.2081 20.8469,-8.4952 32.0513,-6.473 8.614,1.5546 16.4145,5.5598 22.7322,11.6719 5.1103,4.9442 8.7895,10.7433 11.0459,17.4108 1.5722,4.6456 2.2219,8.6948 2.2219,13.8472 0,5.1524 -0.6497,9.2016 -2.2219,13.8472 -2.2564,6.6676 -5.9356,12.4667 -11.0459,17.4108 -6.3177,6.1121 -14.1182,10.1173 -22.7322,11.672 -3.6749,0.6633 -7.8121,0.8836 -11.2379,0.5985 z m -0.042,-11.2913 c -0.045,-2.4111 -0.083,-8.0339 -0.085,-12.4952 l 0,-8.1116 -1.096,-0.3378 c -1.27,-0.3915 -2.776,-1.1797 -3.8473,-2.0135 l -0.7511,-0.5843 -0.3924,0.2264 c -0.747,0.4313 -20.4031,12.215 -20.4518,12.2609 -0.133,0.1251 1.828,2.5958 3.2122,4.0471 5.0508,5.2957 11.1814,8.8351 18.2679,10.5468 1.3961,0.3372 4.1753,0.8076 4.9299,0.8344 l 0.2979,0.01 -0.082,-4.3838 z m 9.5526,4.0115 c 5.0073,-0.7984 10.429,-2.9946 14.6992,-5.9542 3.0642,-2.1237 5.9359,-4.8322 8.2557,-7.7863 0.3507,-0.4468 0.6379,-0.8495 0.6379,-0.895 0,-0.074 -20.5924,-12.4641 -21.1273,-12.7111 -0.1714,-0.079 -0.3569,10e-5 -0.7756,0.3314 -0.8888,0.7032 -2.4656,1.5649 -3.5358,1.9321 l -0.9951,0.3414 0,10.5698 c 0,5.8132 0.037,11.4646 0.081,12.5585 l 0.081,1.9889 0.6291,-0.074 c 0.3459,-0.041 1.2683,-0.1764 2.0495,-0.301 z m 27.9035,-22.2839 c 1.8923,-4.6737 2.7297,-8.9577 2.7297,-13.9648 0,-4.3218 -0.6623,-8.2647 -2.0438,-12.1673 -0.5399,-1.5249 -1.6015,-4.0326 -1.7862,-4.2191 -0.1,-0.1007 -20.5035,12.0341 -20.5035,12.1938 0,0.043 0.055,0.2624 0.1211,0.4869 0.4395,1.48 0.3844,4.2261 -0.1225,6.0914 l -0.2431,0.8947 0.2678,0.1789 c 0.1474,0.099 4.8577,2.9287 10.4673,6.2895 9.0742,5.4365 10.2162,6.0888 10.3527,5.9129 0.085,-0.1086 0.4266,-0.8722 0.7605,-1.6969 z m -56.784,-4.8808 9.8273,-5.8865 -0.2288,-0.8532 c -0.4872,-1.8172 -0.5416,-4.6088 -0.1192,-6.1196 l 0.1051,-0.3758 -9.9997,-5.9885 c -5.5,-3.2936 -10.0156,-5.9696 -10.0348,-5.9464 -0.1391,0.1679 -1.1764,2.691 -1.6095,3.9146 -1.3833,3.9084 -2.0452,7.8482 -2.0452,12.1714 0,5.0163 0.8369,9.29 2.7388,13.9873 l 0.6163,1.5219 0.4611,-0.2694 c 0.2539,-0.1482 4.8837,-2.9183 10.2886,-6.1558 z m 24.3102,-3.9603 c 0.4417,-0.1243 1.1481,-0.4451 1.5703,-0.713 2.0723,-1.3153 3.2251,-3.7755 2.8825,-6.1529 -0.6635,-4.6073 -5.8578,-6.9667 -9.8505,-4.4745 -1.8499,1.1546 -2.9143,3.0759 -2.9152,5.2624 0,1.2675 0.1402,1.8776 0.674,2.9184 1.4228,2.7742 4.4944,4.0447 7.6389,3.1596 z m -9.0904,-16.8705 c 0.9586,-0.5908 1.8869,-1.0211 2.9761,-1.3796 l 0.9881,-0.3252 0,-3.7715 c 0,-2.0742 -0.015,-7.2879 -0.03,-11.586 l -0.029,-7.8146 -0.5249,0.07 c -4.5267,0.6061 -7.9391,1.5783 -11.6419,3.3168 -5.132,2.4096 -9.5666,5.9552 -13.3367,10.663 -0.329,0.4108 -0.5714,0.7725 -0.5388,0.804 0.032,0.031 4.4936,2.7126 9.9134,5.9583 l 9.8543,5.9011 0.8714,-0.7244 c 0.4794,-0.3984 1.1547,-0.8988 1.5006,-1.1121 z m 26.7748,-4.3097 c 5.4576,-3.2626 9.9709,-5.9721 10.0295,-6.0211 0.2219,-0.1853 -2.4072,-3.1444 -4.4958,-5.0601 -5.7397,-5.2644 -13.1108,-8.5977 -20.8403,-9.4242 l -0.772,-0.083 0,8.2828 c 0,4.5554 0.036,9.812 0.081,11.6812 l 0.081,3.3985 0.5392,0.1539 c 1.3072,0.3726 3.0155,1.3268 4.3628,2.4366 0.4416,0.3638 0.8679,0.6402 0.9472,0.6143 0.079,-0.026 4.6095,-2.7167 10.067,-5.9794 z"
       id="path5469-5"
       inkscape:connector-curvature="0" />
  </g>
</svg>
