<?xml version="1.0" encoding="UTF-8" standalone="no"?>
<!-- Created with Inkscape (http://www.inkscape.org/) -->

<svg
   xmlns:dc="http://purl.org/dc/elements/1.1/"
   xmlns:cc="http://creativecommons.org/ns#"
   xmlns:rdf="http://www.w3.org/1999/02/22-rdf-syntax-ns#"
   xmlns:svg="http://www.w3.org/2000/svg"
   xmlns="http://www.w3.org/2000/svg"
   xmlns:sodipodi="http://sodipodi.sourceforge.net/DTD/sodipodi-0.dtd"
   xmlns:inkscape="http://www.inkscape.org/namespaces/inkscape"
   width="325.29688"
   height="217.59026"
   id="svg6575"
   version="1.1"
   inkscape:version="0.48.4 r9939"
   sodipodi:docname="Driebergen-Rijsenburg vlag.svg">
  <defs
     id="defs6577" />
  <sodipodi:namedview
     id="base"
     pagecolor="#ffffff"
     bordercolor="#666666"
     borderopacity="1.0"
     inkscape:pageopacity="0.0"
     inkscape:pageshadow="2"
     inkscape:zoom="1.4"
     inkscape:cx="350.03203"
     inkscape:cy="73.537458"
     inkscape:document-units="px"
     inkscape:current-layer="layer1"
     showgrid="false"
     fit-margin-top="0"
     fit-margin-left="0"
     fit-margin-right="0"
     fit-margin-bottom="0"
     inkscape:window-width="1600"
     inkscape:window-height="837"
     inkscape:window-x="-8"
     inkscape:window-y="-8"
     inkscape:window-maximized="1" />
  <metadata
     id="metadata6580">
    <rdf:RDF>
      <cc:Work
         rdf:about="">
        <dc:format>image/svg+xml</dc:format>
        <dc:type
           rdf:resource="http://purl.org/dc/dcmitype/StillImage" />
        <dc:title></dc:title>
      </cc:Work>
    </rdf:RDF>
  </metadata>
  <g
     inkscape:label="Laag 1"
     inkscape:groupmode="layer"
     id="layer1"
     transform="translate(-143.31828,-234.39793)">
    <rect
       style="fill:#da121a;fill-opacity:1;fill-rule:evenodd;stroke:none"
       id="rect6436"
       width="325.29688"
       height="217.59026"
       x="143.31828"
       y="234.39793" />
    <rect
       style="fill:#fcdd09;fill-opacity:1;fill-rule:evenodd;stroke:none"
       id="rect6445"
       width="56.785717"
       height="38.214287"
       x="214.58948"
       y="287.74091" />
    <rect
       style="fill:#fcdd09;fill-opacity:1;fill-rule:evenodd;stroke:none"
       id="rect6447"
       width="46.071434"
       height="37.5"
       x="225.30377"
       y="360.24094" />
    <rect
       style="fill:#fcdd09;fill-opacity:1;fill-rule:evenodd;stroke:none"
       id="rect6449"
       width="46.785717"
       height="16.624229"
       x="224.58948"
       y="234.33096" />
    <rect
       style="fill:#fcdd09;fill-opacity:1;fill-rule:evenodd;stroke:none"
       id="rect6451"
       width="50.357147"
       height="17.283005"
       x="221.01807"
       y="435.24094" />
    <rect
       style="fill:#fcdd09;fill-opacity:1;fill-rule:evenodd;stroke:none"
       id="rect6453"
       width="95.319939"
       height="218.19295"
       x="142.84094"
       y="234.33096" />
    <path
       style="fill:#000000;stroke:none"
       d="m 142.84097,234.33097 54.04317,35.86042 -54.04317,37.12311 z"
       id="path6455"
       inkscape:connector-curvature="0" />
    <path
       style="fill:#000000;stroke:none"
       d="m 142.84886,307.29872 54.04317,35.86042 -54.04317,37.12311 z"
       id="path6455-8"
       inkscape:connector-curvature="0" />
    <path
       style="fill:#000000;stroke:none"
       d="m 142.81343,380.26701 54.04317,35.86042 -54.04317,37.12311 z"
       id="path6455-82"
       inkscape:connector-curvature="0" />
    <path
       style="fill:#ffffff"
       d="m 325.42678,414.21836 c -2.1729,-0.37568 -4.7579,-1.40723 -6.3888,-2.54947 -4.4427,-3.11156 -5.8077,-9.06823 -3.2977,-14.39042 0.7908,-1.67677 1.8168,-2.91459 3.2565,-3.92882 3.4987,-2.46458 7.7907,-2.87666 11.2536,-1.08043 0.7839,0.40662 1.8872,1.16065 2.1146,1.44524 0.084,0.10529 0.1931,0.19143 0.2423,0.19143 0.1321,0 1.0986,-1.62036 2.1008,-3.52176 4.297,-8.15288 7.1693,-18.61668 8.3961,-30.58716 0.2388,-2.33013 0.5257,-5.96607 0.5257,-6.66195 l 0,-0.56522 -1.2532,-0.1447 c -3.2498,-0.37526 -5.7252,-1.96988 -6.8848,-4.43507 -0.5444,-1.15737 -0.7051,-1.89782 -0.7051,-3.24896 0,-2.5415 1.2964,-4.80875 3.3353,-5.83289 1.3065,-0.65627 3.0907,-1.04339 4.8474,-1.05173 l 0.7752,-0.004 0.01,-0.44723 c 0.01,-0.24598 0.048,-1.57427 0.096,-2.95174 0.1037,-2.93583 -0.022,-7.62349 -0.2759,-10.28534 -0.9987,-10.47231 -4.0376,-20.1338 -8.9939,-28.59407 -0.8863,-1.5129 -0.7709,-1.4357 -1.7007,-1.13682 -4.671,1.5013 -9.2711,1.14051 -12.7345,-0.99879 -4.5907,-2.83575 -6.702,-8.33772 -4.9794,-12.97624 1.3006,-3.50233 4.6519,-6.03051 9.2967,-7.01349 1.0989,-0.23254 1.6823,-0.23628 36.9123,-0.23628 35.23,0 35.8134,0.004 36.9122,0.23628 2.9705,0.62863 5.2717,1.79361 7.0555,3.57192 5.697,5.67923 2.385,15.49817 -6.0151,17.83261 -1.6013,0.44503 -3.5529,0.60734 -5.2685,0.4382 -1.5048,-0.14835 -3.0674,-0.46721 -4.2284,-0.86282 -0.3933,-0.13401 -0.7607,-0.21441 -0.8163,-0.17867 -0.2272,0.1458 -2.311,3.88503 -3.2634,5.85605 -4.9483,10.24009 -7.2886,21.9726 -6.8514,34.34746 0.048,1.37747 0.092,2.70576 0.096,2.95174 l 0.01,0.44723 0.7752,0.004 c 1.7589,0.008 3.5409,0.39546 4.8519,1.05406 2.0652,1.03735 3.3308,3.29489 3.3308,5.94104 0,1.28144 -0.2121,2.18578 -0.7718,3.29199 -1.233,2.43681 -3.5705,3.90083 -6.8367,4.28213 l -1.2346,0.14413 0,0.56522 c 0,0.69588 0.2869,4.33182 0.5257,6.66195 1.2453,12.15157 4.1779,22.73136 8.5783,30.94848 0.6297,1.17583 1.8027,3.16044 1.868,3.16044 0.023,0 0.3852,-0.2706 0.8061,-0.60133 3.2768,-2.57561 7.6849,-2.84917 11.6159,-0.72087 3.2451,1.75686 5.1469,4.70121 5.6689,8.77607 0.4239,3.30837 -0.6539,6.6096 -2.9228,8.95329 -1.7168,1.77335 -4.029,2.9896 -7.171,3.77212 l -0.9958,0.24801 -35.3724,0.022 c -28.9973,0.018 -35.538,-0.006 -36.2912,-0.13684 z"
       id="path6552"
       inkscape:connector-curvature="0" />
    <path
       style="fill:#da121a;fill-opacity:1"
       d="m 325.29438,414.56885 c -4.6639,-0.80533 -8.4146,-3.328 -10.0747,-6.77604 -2.1018,-4.36585 -1.09,-10.25493 2.337,-13.6024 2.0052,-1.95853 5.2043,-3.26917 7.9878,-3.27246 2.1347,-0.002 4.3999,0.76367 6.2018,2.09766 0.3903,0.28897 0.7322,0.5254 0.7597,0.5254 0.1994,0 2.6037,-4.54147 3.5358,-6.67868 4.0548,-9.29648 6.2419,-19.32043 7.1738,-32.87881 l 0.075,-1.09552 -0.3849,-0.0616 c -0.2116,-0.0338 -0.7016,-0.093 -1.0887,-0.13121 -2.3349,-0.23093 -4.8359,-1.65482 -6.0758,-3.45923 -0.9549,-1.38981 -1.3204,-2.60506 -1.3272,-4.41347 0,-0.9663 0.051,-1.36787 0.2887,-2.11613 1.0109,-3.18583 3.0841,-4.62824 7.2043,-5.01226 l 1.4532,-0.13546 0.084,-1.85413 c 0.1808,-3.98858 -0.059,-10.36392 -0.5263,-14.01884 -1.1933,-9.32385 -4.0406,-17.87065 -8.5709,-25.72706 -0.4054,-0.70308 -0.7814,-1.30674 -0.8354,-1.34145 -0.054,-0.0347 -0.4265,0.0412 -0.8275,0.16882 -0.8859,0.28182 -2.0629,0.55414 -3.1409,0.72674 -1.1677,0.18698 -3.8485,0.15563 -5.0154,-0.0586 -4.7923,-0.88 -8.5865,-4.1382 -9.8618,-8.46846 -0.8134,-2.7622 -0.512,-5.69603 0.8289,-8.06543 0.5763,-1.01862 2.0291,-2.60159 3.0231,-3.29409 1.5853,-1.10441 3.6433,-1.96408 5.7892,-2.41818 1.1268,-0.23846 1.4791,-0.24076 36.9333,-0.24076 35.4542,0 35.8066,0.002 36.9334,0.24076 6.0729,1.28515 9.8333,5.07392 10.0681,10.14387 0.2721,5.87571 -4.0469,10.95613 -10.2887,12.10229 -1.1669,0.21428 -3.8476,0.24563 -5.0154,0.0586 -1.0779,-0.1726 -2.2549,-0.44492 -3.1408,-0.72674 -0.4011,-0.12757 -0.7734,-0.20353 -0.8275,-0.16882 -0.054,0.0347 -0.43,0.63837 -0.8355,1.34145 -4.5152,7.83025 -7.3815,16.43426 -8.5709,25.72706 -0.4677,3.65492 -0.707,10.03026 -0.5262,14.01884 l 0.084,1.85413 1.4533,0.13546 c 4.0954,0.3817 6.1974,1.83796 7.1957,4.98504 0.2466,0.7772 0.3008,1.16843 0.2972,2.14335 -0.01,1.8147 -0.3716,3.02284 -1.3373,4.42821 -1.2453,1.81223 -3.707,3.20736 -6.0804,3.44597 -0.379,0.0381 -0.8623,0.0967 -1.074,0.13031 l -0.3848,0.061 0.075,1.09552 c 0.9314,13.55151 3.121,23.58704 7.1737,32.87881 0.9322,2.13721 3.3365,6.67868 3.5359,6.67868 0.027,0 0.373,-0.23939 0.7679,-0.53197 3.2599,-2.41565 7.3171,-2.7175 11.2812,-0.8393 3.0933,1.46563 5.1557,4.14455 6.0227,7.82336 0.372,1.57865 0.38,4.01026 0.018,5.51004 -0.9759,4.04233 -3.9098,6.99299 -8.3772,8.42483 -2.614,0.83783 1.0027,0.76366 -38.1605,0.78252 -28.91,0.014 -35.4816,-0.0119 -36.2337,-0.14164 z m 31.0749,-0.92506 c 1.1106,-0.0277 10.3769,-0.002 20.592,0.0575 18.0611,0.10508 18.6083,0.10173 19.8589,-0.12142 1.7879,-0.31899 3.1509,-0.75093 4.5434,-1.43978 1.4953,-0.73969 2.3816,-1.39433 3.4107,-2.51932 1.8963,-2.07314 2.6953,-4.42282 2.5408,-7.47187 -0.2606,-5.14546 -3.4759,-8.93745 -8.4692,-9.98813 -1.1519,-0.24237 -3.3429,-0.17762 -4.4145,0.13048 -1.5539,0.44669 -3.199,1.46754 -4.5373,2.81562 -1.0413,1.04875 -1.8343,3.36496 -1.8359,5.36201 -9e-4,1.06433 0.2834,2.50442 0.638,3.2322 0.3712,0.76208 1.0734,1.59086 1.6478,1.94504 0.319,0.19674 0.581,0.40062 0.5823,0.45308 0,0.13409 -0.3357,0.79908 -0.4072,0.79908 -0.033,0 -0.2728,-0.11319 -0.5339,-0.25156 -0.8012,-0.42448 -1.6221,-1.38679 -2.1323,-2.49959 -0.6195,-1.35134 -0.7657,-2.06049 -0.7666,-3.7188 l -9e-4,-1.40133 -25.8446,0 -25.8446,0 -9e-4,1.40133 c 0,0.77073 -0.069,1.6965 -0.1532,2.05726 -0.1993,0.85791 -0.9354,2.44206 -1.4075,3.02895 -0.346,0.43019 -1.6153,1.38374 -1.8418,1.38374 -0.1694,0 -0.515,-0.86709 -0.3664,-0.91924 0.3165,-0.11105 1.2049,-0.85636 1.538,-1.29011 1.5232,-1.98421 1.6767,-5.40838 0.3659,-8.16629 -0.8367,-1.76061 -3.1805,-3.57031 -5.48,-4.23139 -1.0689,-0.30729 -3.2628,-0.37283 -4.4088,-0.13169 -5.0017,1.05246 -8.2141,4.83889 -8.475,9.98934 -0.1545,3.04826 0.6576,5.43754 2.5407,7.47561 1.0421,1.12793 1.9311,1.78363 3.4108,2.51558 1.3692,0.67735 2.7452,1.11836 4.4631,1.43038 1.1356,0.20628 2.0094,0.21628 14.9873,0.1714 7.5798,-0.0262 14.69,-0.0704 15.8006,-0.0981 z m 31.2281,-16.43548 c 0.3543,-1.01657 0.714,-1.73688 1.1919,-2.38707 l 0.4024,-0.54739 -0.8103,-1.39932 c -5.514,-9.5217 -8.9487,-22.31718 -9.9694,-37.13957 -0.07,-1.01671 -0.1538,-2.07665 -0.1863,-2.35542 l -0.059,-0.50687 -16.9256,0 -16.9257,0 -0.059,0.50687 c -0.033,0.27877 -0.1162,1.33871 -0.1863,2.35542 -1.0207,14.824 -4.4977,27.76656 -9.9801,37.15003 l -0.8062,1.37977 0.4058,0.55193 c 0.4811,0.65455 0.8402,1.37321 1.1952,2.39162 l 0.2599,0.74539 26.0965,0 26.0966,0 0.2598,-0.74539 z m -20.3844,-3.15718 c -1.9475,-2.57211 -3.664,-5.80492 -4.8616,-9.15662 -0.6942,-1.94289 -1.55,-4.95894 -1.4379,-5.06779 0.054,-0.0523 0.2606,-0.13055 0.4597,-0.17404 0.4122,-0.0901 0.2881,-0.36863 1.1932,2.6777 1.275,4.29187 3.0913,7.99078 5.4503,11.10017 l 0.7522,0.9914 -0.3186,0.27082 c -0.1752,0.14895 -0.3702,0.27025 -0.4334,0.26961 -0.063,-10e-4 -0.4249,-0.41074 -0.8039,-0.91125 z m 7.3778,-0.42266 c -2.0356,-3.93601 -3.87,-9.36839 -5.0662,-15.00285 -0.4663,-2.19637 -1.5652,-8.41114 -1.5652,-8.85226 0,-0.17004 0.7578,-0.41101 0.8831,-0.28084 0.031,0.0318 0.2835,1.4172 0.562,3.07869 1.4873,8.87613 3.0799,14.39869 5.7444,19.92053 0.408,0.84555 0.7112,1.58893 0.6737,1.65196 -0.037,0.063 -0.2158,0.19381 -0.3961,0.29064 l -0.3278,0.17606 -0.5079,-0.98193 z m 9.4769,-1.19855 c -4.2936,-8.92893 -7.1919,-18.34963 -9.7301,-31.62632 -0.8953,-4.6832 -1.1428,-6.13243 -1.0613,-6.21696 0.035,-0.0359 0.2449,-0.10783 0.4676,-0.15998 0.376,-0.0881 0.4092,-0.0724 0.4654,0.21913 0.033,0.17268 0.1934,1.06532 0.3559,1.98364 2.6645,15.06866 5.6193,25.203 10.1623,34.85541 l 1.2495,2.65467 -0.4333,0.22951 -0.4332,0.22952 -1.0428,-2.16862 z m -2.8436,-40.8522 c 2.4967,-0.57647 4.3004,-1.91572 5.2287,-3.88233 0.8952,-1.89672 0.8949,-3.74639 -0.001,-5.63351 -0.9042,-1.90499 -2.424,-2.87611 -5.0926,-3.25413 -0.6067,-0.086 -7.1379,-0.12725 -20.1183,-0.12725 -12.9805,0 -19.5116,0.0413 -20.1184,0.12725 -2.6686,0.37802 -4.1883,1.34914 -5.0926,3.25413 -0.864,1.82037 -0.8923,3.71858 -0.082,5.48012 1.2074,2.62369 3.5537,4.00986 7.2045,4.25658 0.7265,0.0491 9.3312,0.0791 19.1218,0.0667 l 17.801,-0.0225 1.1485,-0.26515 z m -3.1255,-14.5967 c -0.049,-0.34437 -0.09,-2.66551 -0.089,-5.15808 0,-4.57733 0.076,-5.94956 0.5267,-9.77948 1.1356,-9.6361 4.171,-18.81265 8.8734,-26.82568 0.4431,-0.75505 0.6444,-1.20188 0.5554,-1.23272 -0.2623,-0.0907 -1.1131,-0.88846 -1.6658,-1.56185 -0.3036,-0.36977 -0.7378,-1.0614 -0.965,-1.53695 l -0.413,-0.86465 -23.6874,0 -23.6873,0 -0.337,0.74539 c -0.5257,1.16309 -1.7941,2.68198 -2.6612,3.18698 -0.129,0.0751 -0.019,0.33999 0.5276,1.27151 4.7025,8.01371 7.7167,17.12545 8.8712,26.81797 0.4431,3.71932 0.5222,5.19479 0.5241,9.77948 9e-4,2.49257 -0.038,4.81371 -0.089,5.15808 l -0.091,0.62612 16.9477,0 16.9476,0 -0.09,-0.62612 z m -8.5703,-19.6156 c -0.2694,-0.0419 -0.3152,-0.0961 -0.263,-0.31158 0.035,-0.14347 0.2947,-1.41406 0.5779,-2.82352 1.2509,-6.22612 2.2835,-9.82804 4.051,-14.13107 1.0207,-2.48485 3.2064,-6.61904 3.4995,-6.61904 0.058,0 0.2463,0.091 0.4178,0.20243 0.1715,0.11133 0.3245,0.20955 0.3401,0.21826 0.016,0.009 -0.3294,0.63359 -0.7666,1.38863 -3.0163,5.20865 -4.9009,10.72407 -6.6255,19.3895 -0.4389,2.20487 -0.588,2.76918 -0.7285,2.75497 -0.097,-0.0101 -0.3234,-0.0407 -0.5027,-0.0686 z m -8.207,-8.50639 c -0.2085,-0.0471 -0.41,-0.11772 -0.4477,-0.15693 -0.101,-0.10492 0.2699,-1.78619 0.786,-3.56219 1.0611,-3.6512 2.7651,-7.14319 4.9618,-10.16734 l 0.7288,-1.00344 0.3822,0.33138 0.3822,0.33137 -0.692,0.94475 c -2.4483,3.34244 -4.2233,7.25976 -5.2832,11.66003 -0.2237,0.92839 -0.4139,1.69249 -0.4228,1.698 -0.01,0.005 -0.1868,-0.0285 -0.3953,-0.0757 z m -31.2593,-14.47549 c 1.2298,-0.22533 2.8857,-0.71918 3.5535,-1.05979 1.2101,-0.61718 2.5233,-2.31689 3.1039,-4.01771 0.3298,-0.96585 0.4517,-3.13634 0.2338,-4.15951 -0.3156,-1.4814 -1.1585,-2.78273 -2.3274,-3.59333 -0.3949,-0.27385 -0.7157,-0.53328 -0.713,-0.57652 0.012,-0.18281 0.3272,-0.73455 0.4199,-0.73455 0.5408,0 2.1331,1.4219 2.7127,2.42236 0.7152,1.23446 0.9701,2.22853 0.9842,3.8389 0.01,0.78712 -0.028,1.68083 -0.079,1.98602 l -0.091,0.55488 23.382,0.003 23.3822,0.003 -0.092,-0.55746 c -0.05,-0.3066 -0.086,-1.20146 -0.08,-1.98859 0.014,-1.60991 0.2684,-2.60209 0.9842,-3.84042 0.5626,-0.97328 2.1847,-2.42084 2.7127,-2.42084 0.093,0 0.4082,0.55174 0.4199,0.73455 0,0.0433 -0.318,0.30267 -0.7129,0.57652 -0.8422,0.58395 -1.379,1.22683 -1.8467,2.21132 -0.4999,1.05249 -0.6321,1.84654 -0.5677,3.40947 0.089,2.15597 0.6847,3.59684 2.0927,5.06204 0.903,0.93972 1.3714,1.21008 2.8757,1.65981 5.3638,1.60365 10.4518,0.59564 13.743,-2.72272 2.9907,-3.01544 3.944,-7.3413 2.3979,-10.8822 -0.6981,-1.59887 -2.1125,-3.19784 -3.7175,-4.20274 -1.3323,-0.83406 -3.4636,-1.63399 -5.1292,-1.92509 -0.5323,-0.0931 -11.1263,-0.12078 -36.9229,-0.0967 l -36.1762,0.0337 -1.1301,0.33342 c -4.4692,1.31862 -7.2531,3.88743 -8.0748,7.45081 -0.2665,1.15574 -0.2367,3.06083 0.067,4.26123 1.1292,4.46769 4.9058,7.69546 9.8271,8.39919 1.047,0.14973 3.5284,0.0658 4.7676,-0.16125 z"
       id="path6548"
       inkscape:connector-curvature="0" />
  </g>
</svg>
