<?xml version="1.0" encoding="UTF-8" standalone="no"?>
<svg
   width="900"
   height="600"
   version="1.1"
   id="svg1742"
   sodipodi:docname="Vlag Waverveen.svg"
   xml:space="preserve"
   inkscape:version="1.2.2 (b0a8486, 2022-12-01)"
   xmlns:inkscape="http://www.inkscape.org/namespaces/inkscape"
   xmlns:sodipodi="http://sodipodi.sourceforge.net/DTD/sodipodi-0.dtd"
   xmlns:xlink="http://www.w3.org/1999/xlink"
   xmlns="http://www.w3.org/2000/svg"
   xmlns:svg="http://www.w3.org/2000/svg"><defs
     id="defs1746"><linearGradient
       inkscape:collect="always"
       xlink:href="#linearGradient21651"
       id="linearGradient4421"
       gradientUnits="userSpaceOnUse"
       x1="0"
       y1="174.06992"
       x2="30"
       y2="174.06992"
       gradientTransform="translate(0,158.89134)" /><linearGradient
       id="linearGradient21651"><stop
         id="stop21653"
         offset="0"
         style="stop-color:#cc992d;stop-opacity:1;" /><stop
         id="stop21655"
         offset="0.14285725"
         style="stop-color:#e1a832;stop-opacity:1;" /><stop
         style="stop-color:#e5cf5c;stop-opacity:1;"
         offset="0.32142863"
         id="stop21657" /><stop
         id="stop21659"
         offset="0.5"
         style="stop-color:#e5c547;stop-opacity:1;" /><stop
         style="stop-color:#ffffa3;stop-opacity:1;"
         offset="0.75"
         id="stop21661" /><stop
         id="stop21663"
         offset="0.875"
         style="stop-color:#ffd94d;stop-opacity:1;" /><stop
         style="stop-color:#ffdb4e;stop-opacity:1;"
         offset="1"
         id="stop21665" /></linearGradient><linearGradient
       gradientUnits="userSpaceOnUse"
       y2="174.06992"
       x2="30"
       y1="174.06992"
       x1="0"
       id="linearGradient4379"
       xlink:href="#linearGradient21651"
       inkscape:collect="always" /><linearGradient
       id="linearGradient4070-8-2-8-8-7-0-6-5"><stop
         style="stop-color:#a3a3a3;stop-opacity:1;"
         offset="0"
         id="stop4072-1-2-6-4-1-4-7-9" /><stop
         style="stop-color:#b0b0b0;stop-opacity:1;"
         offset="0.14285725"
         id="stop4074-8-0-7-0-4-8-7-1" /><stop
         id="stop4076-6-1-0-3-7-5-9-8"
         offset="0.32142863"
         style="stop-color:#d1d1d1;stop-opacity:1;" /><stop
         style="stop-color:#bdbdbd;stop-opacity:1;"
         offset="0.5"
         id="stop4078-0-2-8-7-6-7-6-1" /><stop
         id="stop4080-2-7-1-8-8-3-4-7"
         offset="0.75"
         style="stop-color:#e5e5e5;stop-opacity:1;" /><stop
         style="stop-color:#cccccc;stop-opacity:1;"
         offset="0.875"
         id="stop4082-4-7-8-3-2-3-1-8" /><stop
         id="stop4084-9-0-3-1-3-0-9-6"
         offset="1"
         style="stop-color:#cccccc;stop-opacity:1;" /></linearGradient><linearGradient
       gradientUnits="userSpaceOnUse"
       y2="204.96277"
       x2="29.642857"
       y1="204.96277"
       x1="3.2142856"
       id="linearGradient4389"
       xlink:href="#linearGradient4070-8-2-8-8-7-0-6-5"
       inkscape:collect="always"
       gradientTransform="translate(336.42857,486.11218)" /><linearGradient
       inkscape:collect="always"
       xlink:href="#linearGradient21651"
       id="linearGradient6113"
       x1="65.358269"
       y1="475.18481"
       x2="506.64462"
       y2="475.18481"
       gradientUnits="userSpaceOnUse"
       gradientTransform="translate(-1250.8474,-127.11865)" /></defs><sodipodi:namedview
     id="namedview1744"
     pagecolor="#ffffff"
     bordercolor="#000000"
     borderopacity="0.25"
     inkscape:showpageshadow="2"
     inkscape:pageopacity="0.0"
     inkscape:pagecheckerboard="0"
     inkscape:deskcolor="#d1d1d1"
     showgrid="false"
     inkscape:zoom="2.1791234"
     inkscape:cx="402.22596"
     inkscape:cy="313.88768"
     inkscape:window-width="1440"
     inkscape:window-height="900"
     inkscape:window-x="0"
     inkscape:window-y="0"
     inkscape:window-maximized="0"
     inkscape:current-layer="svg1742" /><rect
     fill="#fff"
     height="600"
     width="900"
     id="rect1738" /><g
     inkscape:label="Laag 1"
     id="layer1"
     transform="translate(135.59411,-186.64789)"><path
       style="fill:#d40000;fill-opacity:1"
       d="m 313.39426,701.55523 c -3.28647,-5.71185 -5.99987,-9.34093 -9.83124,-13.14873 -7.57325,-7.52634 -15.6657,-11.33061 -28.60901,-13.44878 -2.44965,-0.40081 -4.78446,-0.81461 -5.18855,-0.91943 -0.40419,-0.10488 -22.42407,-0.27193 -48.9331,-0.37135 -53.24776,-0.19967 -49.88343,-0.0789 -57.74406,-2.06906 -20.08503,-5.08479 -34.50656,-19.2201 -39.55108,-38.76618 -1.51333,-5.8639 -1.40403,7.50257 -1.50844,-184.51317 l -0.0963,-177.70879 h 192.35791 192.35796 l -0.0959,177.70879 c -0.0875,160.25905 -0.14211,177.95048 -0.55957,180.16994 -0.93725,4.98058 -2.28776,9.38038 -4.11625,13.40872 -6.78744,14.95334 -19.66964,25.46934 -36.38363,29.70069 -7.86057,1.98998 -4.49609,1.86939 -57.74433,2.06906 -26.50903,0.0996 -48.5289,0.26652 -48.93295,0.37135 -0.40409,0.10477 -2.73903,0.51862 -5.18855,0.91943 -12.75678,2.08766 -20.91485,5.8774 -28.3376,13.16399 -3.73766,3.66904 -6.71231,7.53765 -9.3609,12.17418 -0.68234,1.19437 -1.34964,2.28224 -1.4831,2.41759 -0.13321,0.13522 -0.60592,-0.38588 -1.05026,-1.15825 z"
       id="path5739-7"
       inkscape:connector-curvature="0" /><rect
       style="fill:url(#linearGradient6113);fill-opacity:1;fill-rule:evenodd;stroke:none"
       id="rect4592"
       width="384.7178"
       height="131.42281"
       x="121.92681"
       y="409.47342" /><path
       style="fill:#000000;fill-opacity:0.292453"
       d="m 179.38631,533.4464 c 8.76896,-12.19149 39.00955,-54.53187 39.00933,-54.61768 -1.4e-4,-0.0671 -8.42845,-12.90608 -18.72955,-28.53112 -10.30108,-15.62503 -18.72926,-28.4182 -18.72926,-28.42924 0,-0.0108 5.36302,-0.0191 11.91779,-0.018 l 11.9178,0.004 10.76931,18.63691 c 5.92314,10.25028 11.05203,19.1326 11.39757,19.73848 0.76429,1.34031 2.76143,5.03959 3.63074,6.72539 0.62761,1.21699 0.63925,1.23361 0.86374,1.23472 h 0.22756 l 14.05647,-23.15497 14.05651,-23.15497 11.23532,-0.0154 c 9.01846,-0.0124 11.22817,0 11.19889,0.0615 -0.0199,0.0423 -8.7183,12.72247 -19.32951,28.17814 -10.61115,15.45566 -19.27767,28.1336 -19.25888,28.17324 0.0185,0.0396 8.57963,12.50838 19.02411,27.7084 10.44443,15.19998 19.00875,27.67607 19.03178,27.72457 0.0362,0.0768 -1.50141,0.0862 -11.87019,0.0728 l -11.91195,-0.0154 -11.18866,-18.04839 c -12.44704,-20.07825 -12.83707,-20.72073 -15.31499,-25.22596 -0.55775,-1.01408 -0.56183,-1.01921 -0.80534,-1.0213 -0.15454,0 -0.24474,0.0277 -0.24474,0.0789 0,0.35859 -1.59365,2.92565 -15.15724,24.41545 l -12.51714,19.83189 h -11.76584 -11.7658 l 0.25217,-0.35061 z m 172.22395,0.27456 c 0.0206,-0.042 8.85676,-12.39626 19.63598,-27.45385 10.77924,-15.05759 19.59811,-27.40487 19.59748,-27.43839 -9e-4,-0.0415 -33.85974,-51.45238 -37.43671,-56.84326 l -0.091,-0.1372 h 11.92465 11.92464 l 11.00724,19.03924 c 12.75618,22.06436 12.42322,21.47828 14.80105,26.05125 l 0.6341,1.21946 h 0.23946 0.23944 l 14.05698,-23.15497 14.05697,-23.15498 h 11.25011 11.25011 l -0.14752,0.19819 c -0.0811,0.10898 -8.79366,12.79426 -19.36115,28.18948 l -19.21363,27.99136 19.05594,27.73254 c 10.48077,15.25291 19.07391,27.75608 19.09588,27.78486 0.0222,0.0288 -5.27083,0.0523 -11.8854,0.0523 h -11.92533 l -11.49416,-18.55143 c -11.27897,-18.20411 -12.44425,-20.11732 -14.55972,-23.9047 -1.042,-1.86554 -1.05025,-1.87766 -1.26568,-1.85974 -0.19,0.0157 -0.23805,0.0638 -0.38796,0.38771 -0.51184,1.10566 -1.0396,1.95112 -17.08792,27.37365 l -10.43101,16.52401 -11.76011,0.0154 c -9.39955,0.0124 -11.7526,0 -11.7227,-0.061 z"
       id="path5391-3"
       inkscape:connector-curvature="0" /><path
       style="fill:#1a1a1a"
       d="m 177.32828,532.21822 c 8.76897,-12.19149 39.00955,-54.53192 39.00933,-54.61769 -1.4e-4,-0.0671 -8.42845,-12.90607 -18.72954,-28.53111 -10.30108,-15.62503 -18.72926,-28.41821 -18.72926,-28.42924 0,-0.0108 5.36301,-0.0191 11.9178,-0.0184 l 11.91779,0.004 10.76936,18.63691 c 5.92308,10.25028 11.05201,19.13261 11.39751,19.73849 0.76434,1.34026 2.76143,5.03959 3.63079,6.72534 0.62756,1.21703 0.63921,1.23364 0.8637,1.23473 h 0.22757 l 14.05645,-23.15498 14.05651,-23.15497 11.23538,-0.0154 c 9.01844,-0.0124 11.22811,0 11.19884,0.0615 -0.0199,0.0423 -8.71831,12.72245 -19.32946,28.1781 -10.6112,15.45567 -19.27769,28.13364 -19.25893,28.17324 0.019,0.0396 8.57963,12.50842 19.02411,27.7084 10.44448,15.20003 19.00875,27.67608 19.03177,27.72461 0.0362,0.0768 -1.50141,0.0862 -11.87018,0.0728 l -11.91196,-0.0154 -11.18865,-18.04839 c -12.44701,-20.07828 -12.83708,-20.72075 -15.31499,-25.22595 -0.55776,-1.01409 -0.56179,-1.01922 -0.8053,-1.02131 -0.15453,0 -0.24478,0.0277 -0.24478,0.0789 0,0.35859 -1.59365,2.92565 -15.15724,24.41546 l -12.51713,19.83189 h -11.76585 -11.7658 l 0.25216,-0.35062 z m 172.22396,0.27456 c 0.0206,-0.042 8.85677,-12.39626 19.636,-27.45385 10.77922,-15.05759 19.59809,-27.40487 19.59747,-27.4384 -9.1e-4,-0.0415 -33.85974,-51.45237 -37.43671,-56.84325 l -0.091,-0.1372 h 11.92465 11.92464 l 11.00724,19.0392 c 12.75618,22.0644 12.42322,21.47832 14.80105,26.05124 l 0.63411,1.21951 h 0.23944 0.23945 l 14.05699,-23.15498 14.05696,-23.15497 h 11.25011 11.25012 l -0.14752,0.19815 c -0.0811,0.10901 -8.79367,12.7943 -19.36116,28.18952 l -19.21363,27.99132 19.05594,27.73258 c 10.48077,15.2529 19.07391,27.75608 19.09587,27.78486 0.0222,0.0288 -5.27083,0.0523 -11.88538,0.0523 h -11.92532 l -11.49417,-18.55142 c -11.27898,-18.20411 -12.44426,-20.11733 -14.55972,-23.90471 -1.042,-1.86553 -1.05025,-1.87765 -1.26569,-1.85973 -0.18999,0.0157 -0.23804,0.0639 -0.38796,0.38771 -0.51183,1.10565 -1.03961,1.95111 -17.08792,27.37365 l -10.431,16.52401 -11.76012,0.0154 c -9.39956,0.0124 -11.75259,0 -11.72271,-0.061 z"
       id="path5391-5-1"
       inkscape:connector-curvature="0" /><path
       style="fill:#000000"
       d="m 177.01754,532.51299 c 0,-0.0251 0.28134,-0.42987 0.6219,-0.89934 l 0.61928,-0.85366 9.30342,-0.0154 9.30343,-0.0154 6.1106,-9.67943 c 15.27775,-24.20049 20.9546,-33.26889 21.37522,-34.14537 0.19418,-0.40458 0.23024,-0.44205 0.42591,-0.44205 0.24061,0 0.0986,-0.21596 1.53548,2.33636 0.43076,0.76519 0.78314,1.42368 0.78309,1.46338 -1.3e-4,0.13196 -2.73103,4.48765 -14.71587,23.47101 l -11.88537,18.82578 h -11.73988 c -6.45696,0 -11.73871,-0.0205 -11.73721,-0.0457 z m 78.1474,-0.86944 -0.58647,-0.91278 10.57758,-0.0157 c 5.81767,-0.008 10.59798,-0.0325 10.62289,-0.0525 0.0249,-0.0202 -8.50977,-12.49678 -18.96589,-27.72585 l -19.01112,-27.68917 3.30624,-4.8649 c 1.8184,-2.6757 10.23086,-14.96224 18.69437,-27.30342 l 15.38821,-22.43855 2.42404,-0.0161 c 1.33718,-0.009 2.42405,0.008 2.42405,0.0371 0,0.0292 -8.63817,12.63319 -19.19596,28.00895 -10.55782,15.3758 -19.25072,28.04166 -19.3176,28.14637 l -0.1216,0.19037 18.94773,27.57772 c 10.42124,15.16773 19.01133,27.66687 19.08908,27.77588 l 0.1414,0.19815 h -11.91521 -11.91526 l -0.58648,-0.91282 z m 94.23828,0.86963 c 0.002,-0.0255 0.28429,-0.43006 0.62696,-0.89953 l 0.62302,-0.85366 9.29514,-0.0164 9.29514,-0.0165 4.14204,-6.56728 c 2.27812,-3.61198 7.43934,-11.79487 11.46936,-18.1842 7.84591,-12.43922 11.27117,-17.93287 11.72911,-18.81196 0.15723,-0.30182 0.31821,-0.58305 0.35775,-0.625 0.11217,-0.11893 0.32636,-0.0898 0.44837,0.061 0.18038,0.22292 2.0903,3.59076 2.0903,3.68589 0,0.12952 -3.2367,5.28916 -15.50261,24.71285 l -11.07015,17.53009 -11.75417,0.0154 c -6.4648,0.008 -11.75242,-0.005 -11.75026,-0.0303 z m 78.18542,-0.83914 c -0.29963,-0.48653 -0.54479,-0.89784 -0.54479,-0.91398 0,-0.0161 4.74171,-0.0363 10.53712,-0.0451 5.79542,-0.008 10.55833,-0.0329 10.58424,-0.0541 0.0259,-0.021 -6.01383,-8.85616 -13.42168,-19.63369 -23.05585,-33.54354 -24.60737,-35.80699 -24.58462,-35.8654 0.0192,-0.0494 18.03493,-26.29693 32.60928,-47.50925 l 4.81775,-7.01203 2.4641,-0.0161 2.4641,-0.0161 -0.18536,0.25998 c -0.10194,0.14299 -8.81513,12.8297 -19.36265,28.19266 l -19.17731,27.93267 19.05064,27.72345 c 10.47785,15.24789 19.07094,27.75003 19.09575,27.78254 0.0291,0.0381 -4.20026,0.059 -11.87834,0.059 h -11.92344 l -0.54479,-0.88468 z M 225.45212,465.07546 c -0.085,-0.0587 -0.72783,-1.18919 -1.43033,-2.51516 -2.23911,-4.22665 -2.19113,-4.14278 -20.14809,-35.21264 l -3.87642,-6.70718 1.28458,-0.0168 c 0.70648,-0.009 1.2925,-0.009 1.30224,0 0.0514,0.0484 22.20393,38.40062 22.76957,39.42032 1.03861,1.87238 1.667,3.04922 1.667,3.12196 0,0.14955 -1.21287,2.01616 -1.31004,2.01616 -0.0573,0 -0.17361,-0.048 -0.25851,-0.10672 z m 172.1713,-0.18293 c -2.31524,-4.51818 -3.55603,-6.69772 -20.23834,-35.5501 -2.75893,-4.77165 -5.01624,-8.68848 -5.01624,-8.70409 0,-0.0157 0.58634,-0.0285 1.30298,-0.0285 h 1.30297 l 10.76294,18.61239 c 11.35413,19.63472 11.82199,20.44881 12.96502,22.56003 l 0.72196,1.33345 -0.58757,1.00267 -0.58758,1.00264 h -0.25448 c -0.22303,0 -0.26896,-0.0281 -0.37166,-0.22865 z"
       id="path5435-2"
       inkscape:connector-curvature="0" /><path
       style="fill:#4d4d4d"
       d="m 177.1892,532.32913 c 0.0814,-0.10897 8.93266,-12.47357 19.66966,-27.47686 16.71211,-23.35258 19.51115,-27.29729 19.44785,-27.4079 -0.0408,-0.0711 -8.48255,-12.88561 -18.75976,-28.47674 -10.2772,-15.59113 -18.68586,-28.35683 -18.68586,-28.36829 0,-0.0116 5.35682,-0.021 11.90407,-0.021 h 11.90402 l 0.40322,0.68596 0.40321,0.68596 -10.31155,0.0154 c -5.67132,0.008 -10.3115,0.0281 -10.3115,0.0434 0,0.0154 3.76611,5.74299 8.36918,12.72813 14.16878,21.50114 22.84537,34.68773 26.0173,39.54096 l 3.03648,4.64605 -3.00068,4.22573 c -4.36138,6.14184 -13.13392,18.42419 -24.93433,34.91028 l -10.35406,14.4655 h -2.47252 -2.47256 l 0.14783,-0.19816 z m 70.34879,-13.20093 c -4.5648,-7.36951 -9.7964,-15.81364 -11.62573,-18.76482 -1.82937,-2.95116 -3.70925,-6.03414 -4.17762,-6.85108 l -0.8515,-1.48532 0.60628,-1.0146 c 0.33343,-0.55806 0.62914,-1.09043 0.6571,-1.1831 0.0571,-0.18898 0.21832,-0.2862 0.40819,-0.24601 0.15195,0.0322 0.27863,0.23569 1.47237,2.36568 1.98336,3.53887 4.20865,7.18184 15.8765,25.99085 4.95659,7.99024 9.01198,14.54119 9.01198,14.55762 0,0.0165 -0.69254,0.0299 -1.53897,0.0299 h -1.53895 z m 102.00913,13.2924 c 0.0274,-0.0586 8.86416,-12.42198 19.63727,-27.47396 l 19.58745,-27.36726 -0.11847,-0.20114 c -0.0651,-0.11062 -8.45306,-12.84665 -18.63976,-28.30223 -10.1867,-15.45563 -18.57768,-28.19026 -18.6466,-28.29928 l -0.12534,-0.19815 h 11.92056 11.92055 l 0.39123,0.68596 0.39125,0.68596 -10.3367,0.0306 -10.33669,0.0303 18.74495,28.45664 18.74493,28.4566 -8.26626,11.573 c -13.76579,19.27246 -29.70752,41.55821 -29.90157,41.80097 l -0.18281,0.22865 h -2.4169 c -2.27059,0 -2.41389,-0.006 -2.36709,-0.10672 z m 67.04068,-18.68859 c -6.39983,-10.33744 -12.01104,-19.44786 -12.46935,-20.24542 l -0.8333,-1.45006 0.55063,-0.9584 c 0.30284,-0.52714 0.61291,-1.07501 0.68901,-1.21756 0.15951,-0.29871 0.40392,-0.34994 0.5817,-0.12196 0.0589,0.0755 0.74753,1.26217 1.53043,2.63715 0.88462,1.55362 5.82156,9.62615 13.04225,21.32575 l 11.6188,18.82582 h -1.53706 -1.53706 z M 233.09249,468.177 c -0.0471,-0.0458 -0.52079,-0.90238 -1.05276,-1.90333 l -0.96721,-1.81988 0.85594,-1.40452 c 0.47081,-0.77248 6.46031,-10.63757 13.31006,-21.92237 l 12.45403,-20.51782 11.23021,-0.0154 c 6.17661,-0.008 11.2302,0 11.2302,0.0198 0,0.0194 -0.20628,0.33508 -0.45845,0.70138 l -0.45843,0.66605 h -8.79066 -8.79067 l -12.04062,19.83186 c -17.70307,29.15828 -16.03733,26.44759 -16.25226,26.44759 -0.10114,0 -0.22236,-0.0376 -0.26938,-0.0834 z m 172.31483,-0.0198 c -0.18222,-0.28145 -1.89667,-3.617 -1.89667,-3.69008 0,-0.0454 5.98027,-9.9322 13.28949,-21.97043 l 13.2895,-21.88773 11.23204,-0.0154 c 10.39402,-0.0142 11.2285,-0.008 11.18454,0.0847 -0.0261,0.0551 -0.23496,0.37063 -0.46407,0.70116 l -0.41659,0.60093 -8.80939,0.0154 -8.8094,0.0154 -14.03275,23.10924 c -13.90174,22.8935 -14.03491,23.10943 -14.26403,23.12807 -0.16281,0.0131 -0.25241,-0.0138 -0.30267,-0.0915 z"
       id="path5431-3"
       inkscape:connector-curvature="0" /><path
       style="fill:#ffffff;fill-opacity:0.278302"
       d="m 312.95674,700.76155 c -0.55286,-0.99935 -1.79875,-2.98965 -2.76886,-4.42283 -8.03265,-11.86885 -17.81028,-18.31986 -32.01321,-21.12176 -9.38293,-1.85091 -5.1818,-1.71277 -57.81429,-1.90146 -43.61822,-0.1563 -48.31992,-0.21815 -50.96231,-0.67016 -13.86631,-2.37159 -24.73987,-7.822 -32.94043,-16.51147 -7.31558,-7.75176 -11.67683,-16.38964 -13.9092,-27.54892 -0.41834,-2.09126 -0.47087,-19.59713 -0.54057,-180.09759 l -0.0764,-177.78123 2.18656,2.31641 2.18658,2.31639 0.0858,173.14843 c 0.0806,161.88787 0.11886,173.32736 0.58861,175.89917 3.89317,21.30462 18.617,37.16536 39.68574,42.74977 8.24373,2.18511 6.74148,2.12968 57.79951,2.13104 h 45.41748 l 5.14315,0.73552 c 12.4216,1.77649 19.13405,3.95559 25.9439,8.42202 4.61219,3.02503 10.06674,8.50358 13.27055,13.32888 l 0.80155,1.20725 -0.34771,4.00457 c -0.19127,2.20254 -0.4339,4.36626 -0.53925,4.80819 -0.18415,0.77269 -0.23009,0.73387 -1.19665,-1.01337 z"
       id="path5901-6-39-8"
       inkscape:connector-curvature="0" /><path
       style="fill:#000000;fill-opacity:0.160377"
       d="m 315.67186,701.18853 c 0.55285,-0.99936 1.79872,-2.98966 2.76872,-4.42295 8.03278,-11.86872 17.81039,-18.31984 32.01329,-21.12165 9.3828,-1.85092 5.1819,-1.71277 57.8144,-1.90146 43.6181,-0.1564 48.3197,-0.21815 50.9623,-0.67013 13.8663,-2.37172 24.7398,-7.82214 32.9404,-16.5115 7.3156,-7.75176 11.6768,-16.38964 13.9092,-27.549 0.4183,-2.09118 0.4709,-19.59715 0.5404,-180.09751 l 0.078,-177.78122 -2.1866,2.31639 -2.1866,2.31641 -0.086,173.14842 c -0.08,161.88787 -0.1186,173.32736 -0.5886,175.89916 -3.8931,21.30464 -18.617,37.16528 -39.6856,42.74979 -8.2439,2.185 -6.7416,2.12969 -57.7996,2.13103 h -45.4175 l -5.1431,0.73554 c -12.4216,1.7765 -19.1342,3.95548 -25.9439,8.4219 -4.61236,3.02515 -10.06676,8.50358 -13.27058,13.329 l -0.80155,1.20723 0.34771,4.00459 c 0.19128,2.20254 0.4339,4.36615 0.53925,4.80818 0.18416,0.77268 0.2301,0.73387 1.19665,-1.01346 z"
       id="path5901-6-3-4-9"
       inkscape:connector-curvature="0" /><path
       style="fill:#ffffff;fill-opacity:0.438679;stroke:none"
       d="m 122.22331,270.56095 4.05222,4.60663 h 376.08954 l 4.5199,-4.60663 z"
       id="path5943-5-2"
       inkscape:connector-curvature="0" /><path
       style="fill:none;stroke:#f8f8f8;stroke-width:4.1;stroke-linecap:butt;stroke-linejoin:miter;stroke-miterlimit:4;stroke-dasharray:none;stroke-opacity:0.367925"
       d="m 121.92681,411.47344 h 384.7178"
       id="path5491"
       inkscape:connector-curvature="0" /><path
       style="fill:none;stroke:#000000;stroke-width:6.1;stroke-linecap:butt;stroke-linejoin:miter;stroke-miterlimit:4;stroke-dasharray:none;stroke-opacity:0.141509"
       d="m 121.92681,540.89625 h 384.7178"
       id="path5493"
       inkscape:connector-curvature="0" /></g></svg>
