<?xml version="1.0" encoding="UTF-8" standalone="no"?>
<!-- Created with Inkscape (http://www.inkscape.org/) -->

<svg
   xmlns:dc="http://purl.org/dc/elements/1.1/"
   xmlns:cc="http://creativecommons.org/ns#"
   xmlns:rdf="http://www.w3.org/1999/02/22-rdf-syntax-ns#"
   xmlns:svg="http://www.w3.org/2000/svg"
   xmlns="http://www.w3.org/2000/svg"
   xmlns:sodipodi="http://sodipodi.sourceforge.net/DTD/sodipodi-0.dtd"
   xmlns:inkscape="http://www.inkscape.org/namespaces/inkscape"
   width="217.6879"
   height="218.19269"
   id="svg7978"
   version="1.1"
   inkscape:version="0.48.4 r9939"
   sodipodi:docname="Nieuw document 50">
  <defs
     id="defs7980" />
  <sodipodi:namedview
     id="base"
     pagecolor="#ffffff"
     bordercolor="#666666"
     borderopacity="1.0"
     inkscape:pageopacity="0.0"
     inkscape:pageshadow="2"
     inkscape:zoom="1.979899"
     inkscape:cx="190.12069"
     inkscape:cy="117.83671"
     inkscape:document-units="px"
     inkscape:current-layer="layer1"
     showgrid="false"
     fit-margin-top="0"
     fit-margin-left="0"
     fit-margin-right="0"
     fit-margin-bottom="0"
     inkscape:window-width="1600"
     inkscape:window-height="837"
     inkscape:window-x="-8"
     inkscape:window-y="-8"
     inkscape:window-maximized="1" />
  <metadata
     id="metadata7983">
    <rdf:RDF>
      <cc:Work
         rdf:about="">
        <dc:format>image/svg+xml</dc:format>
        <dc:type
           rdf:resource="http://purl.org/dc/dcmitype/StillImage" />
        <dc:title></dc:title>
      </cc:Work>
    </rdf:RDF>
  </metadata>
  <g
     inkscape:label="Laag 1"
     inkscape:groupmode="layer"
     id="layer1"
     transform="translate(-188.2989,-154.69441)">
    <rect
       style="fill:#fcdd04;fill-opacity:1;fill-rule:evenodd;stroke:none"
       id="rect6653"
       width="217.6879"
       height="72.225899"
       x="188.2989"
       y="300.66119" />
    <rect
       style="fill:#ffffff;fill-opacity:1;fill-rule:evenodd;stroke:none"
       id="rect6655"
       width="217.6879"
       height="71.720802"
       x="188.2989"
       y="228.94051" />
    <rect
       style="fill:#da121a;fill-opacity:1;fill-rule:evenodd;stroke:none"
       id="rect6657"
       width="217.6879"
       height="74.246201"
       x="188.2989"
       y="154.69441" />
    <rect
       style="fill:#0e44af;fill-opacity:1;fill-rule:evenodd;stroke:none"
       id="rect6659"
       width="110.1066"
       height="109.6015"
       x="188.2989"
       y="154.69441" />
    <path
       style="fill:#fcdd04;fill-opacity:1"
       d="m 238.88791,200.93253 c -7.1631,-0.4993 -12.9999,-3.8667 -16.0542,-9.2622 -0.6879,-1.2152 -1.375,-2.9779 -1.7021,-4.3658 -0.656,-2.7851 -3.8769,-7.3052 -6.6824,-9.3777 -1.0595,-0.7828 -1.3306,-0.9471 -2.4801,-1.5038 -1.746,-0.8455 -2.5806,-1.722 -2.5806,-2.71 0,-1.4155 1.7738,-2.6824 5.0698,-3.6213 6.0667,-1.7281 14.8339,-1.7281 20.9009,0 3.1457,0.8961 4.9194,2.1093 5.1025,3.4904 0.055,0.4201 0.012,0.5625 -0.45,1.3541 -0.6838,1.1815 -1.299,1.8861 -2.3546,2.697 -2.1859,1.6792 -3.2005,2.7253 -4.0319,4.1573 -0.8296,1.4289 -1.5163,3.7568 -1.656,5.6136 -0.062,0.8222 -0.037,1.0787 0.1715,1.7384 0.8364,2.6532 2.822,4.3459 5.8606,4.996 1.3596,0.2909 4.6041,0.318 6.1179,0.051 3.9873,-0.7029 7.1361,-2.433 9.0606,-4.9784 1.2317,-1.6289 1.7513,-3.0772 1.663,-4.6348 -0.04,-0.7125 -0.11,-0.9966 -0.3517,-1.4249 -0.5118,-0.9084 -1.514,-1.4224 -2.7303,-1.4003 l -0.5088,0.01 0.5409,0.1561 c 0.2976,0.086 0.7487,0.3222 1.0026,0.5252 l 0.4615,0.3692 -0.4456,-0.2529 c -0.3892,-0.221 -0.5368,-0.2483 -1.1696,-0.2167 -3.5721,0.1784 -4.9959,5.0249 -2.2026,7.4971 0.3125,0.2765 0.7103,0.5538 0.8841,0.6164 0.1739,0.062 0.3161,0.1434 0.3161,0.1797 0,0.2016 -2.204,1.6517 -2.5105,1.6517 -0.2319,0 -1.1558,-0.7759 -1.6723,-1.4044 -1.1582,-1.4097 -1.7006,-2.8892 -1.7986,-4.9063 -0.1051,-2.1757 0.2637,-3.5194 1.3658,-4.9674 1.475,-1.9379 3.426,-2.9459 5.6899,-2.9398 1.0399,0 1.6274,0.1046 2.6015,0.4506 3.5208,1.2509 5.9031,4.4859 5.8997,8.0115 0,2.0833 -0.7832,3.9827 -2.4612,5.9837 -0.3059,0.3647 -0.5349,0.6816 -0.5089,0.7041 0.1666,0.1446 2.5009,0.4378 3.865,0.4854 3.1656,0.1103 5.4233,-0.5039 7.2495,-1.9723 1.4563,-1.171 2.3259,-2.6758 2.9061,-5.0294 0.2322,-0.9422 0.257,-1.294 0.2581,-3.6681 0,-3.0208 0.089,-2.762 -1.1804,-3.4728 -1.5572,-0.8718 -1.6197,-1.8809 -0.1689,-2.7276 0.7798,-0.455 1.5125,-0.6217 2.9656,-0.6745 1.8326,-0.067 3.0543,0.2078 3.9991,0.8982 0.4802,0.3508 0.6994,0.7539 0.7187,1.321 0.015,0.4323 -0.021,0.5045 -0.3819,0.7834 -0.2191,0.1689 -0.5448,0.3759 -0.7241,0.4598 -0.2185,0.1025 -0.4772,0.4051 -0.7857,0.919 l -0.4598,0.7663 -0.069,1.5683 c -0.3803,8.5907 -4.2461,13.7116 -11.1596,14.782 -1.1892,0.1841 -3.8016,0.2052 -5.2351,0.042 -1.18,-0.1342 -3.0475,-0.484 -4.0585,-0.7602 l -0.724,-0.1978 -1.0582,0.6148 c -3.1779,1.8466 -6.3565,2.9505 -9.7808,3.397 -1.1347,0.1479 -3.5905,0.2451 -4.5326,0.1795 z m 25.5828,-5.9392 c 3.7205,-0.6926 6.4732,-2.9926 7.7548,-6.4796 0.5866,-1.5959 0.922,-3.3921 0.903,-4.8368 l -0.012,-0.7256 -0.2027,1.0158 c -0.857,4.296 -2.1007,6.8024 -4.2451,8.5542 -1.8261,1.492 -3.9198,2.0931 -8.4833,2.4359 -0.4764,0.036 -0.8407,0.087 -0.8095,0.1144 0.1159,0.1002 2.0428,0.1933 3.0681,0.1481 0.5819,-0.026 1.4928,-0.1275 2.024,-0.2264 z m 10.8136,-16.2042 c 0.4826,-0.1466 0.9745,-0.5205 0.9745,-0.7406 0,-0.049 -0.1304,-0.1933 -0.2898,-0.3215 -0.8982,-0.723 -4.0535,-0.732 -5.0141,-0.014 -0.5695,0.4253 -0.103,0.9193 1.1253,1.193 0.7223,0.1608 2.5047,0.096 3.2041,-0.1166 z m -44.1379,-2.7395 c 4.3025,-0.5186 6.7204,-1.3593 6.7204,-2.3366 0,-0.9966 -2.5134,-1.8601 -6.9432,-2.3853 -2.1009,-0.249 -8.9395,-0.2528 -11.0392,-0.01 -4.4586,0.524 -7.0057,1.3934 -7.0057,2.3914 0,1.0025 2.7611,1.9314 7.0174,2.361 2.296,0.2317 2.2711,0.2308 6.0707,0.1996 2.8194,-0.023 3.9022,-0.07 5.1796,-0.224 z"
       id="path7901-5"
       inkscape:connector-curvature="0" />
    <path
       style="fill:#fcdd04;fill-opacity:1"
       d="m 239.41301,249.48883 c -7.1631,-0.4993 -12.9999,-3.8667 -16.0542,-9.2622 -0.6879,-1.2152 -1.375,-2.9779 -1.7021,-4.3658 -0.656,-2.7851 -3.8769,-7.3052 -6.6824,-9.3777 -1.0595,-0.7828 -1.3306,-0.9471 -2.4801,-1.5038 -1.746,-0.8455 -2.5806,-1.722 -2.5806,-2.71 0,-1.4155 1.7738,-2.6824 5.0698,-3.6213 6.0667,-1.7281 14.8339,-1.7281 20.9009,0 3.1457,0.8961 4.9194,2.1093 5.1025,3.4904 0.055,0.4201 0.012,0.5625 -0.45,1.3541 -0.6838,1.1815 -1.299,1.8861 -2.3546,2.697 -2.1859,1.6792 -3.2005,2.7253 -4.0319,4.1573 -0.8296,1.4289 -1.5163,3.7568 -1.656,5.6136 -0.062,0.8222 -0.037,1.0787 0.1715,1.7384 0.8364,2.6532 2.822,4.3459 5.8606,4.996 1.3596,0.2909 4.6041,0.318 6.1179,0.051 3.9873,-0.7029 7.1361,-2.433 9.0606,-4.9784 1.2317,-1.6289 1.7513,-3.0772 1.663,-4.6348 -0.04,-0.7125 -0.11,-0.9966 -0.3517,-1.4249 -0.5118,-0.9084 -1.514,-1.4224 -2.7303,-1.4003 l -0.5088,0.01 0.5409,0.1561 c 0.2976,0.086 0.7487,0.3222 1.0026,0.5252 l 0.4615,0.3692 -0.4456,-0.2529 c -0.3892,-0.221 -0.5368,-0.2483 -1.1696,-0.2167 -3.5721,0.1784 -4.9959,5.0249 -2.2026,7.4971 0.3125,0.2765 0.7103,0.5538 0.8841,0.6164 0.1739,0.062 0.3161,0.1434 0.3161,0.1797 0,0.2016 -2.204,1.6517 -2.5105,1.6517 -0.2319,0 -1.1558,-0.7759 -1.6723,-1.4044 -1.1582,-1.4097 -1.7006,-2.8892 -1.7986,-4.9063 -0.1051,-2.1757 0.2637,-3.5194 1.3658,-4.9674 1.475,-1.9379 3.426,-2.9459 5.6899,-2.9398 1.0399,0 1.6274,0.1046 2.6015,0.4506 3.5208,1.2509 5.9031,4.4859 5.8997,8.0115 0,2.0833 -0.7832,3.9827 -2.4612,5.9837 -0.3059,0.3647 -0.5349,0.6816 -0.5089,0.7041 0.1666,0.1446 2.5009,0.4378 3.865,0.4854 3.1656,0.1103 5.4233,-0.5039 7.2495,-1.9723 1.4563,-1.171 2.3259,-2.6758 2.9061,-5.0294 0.2322,-0.9422 0.257,-1.294 0.2581,-3.6681 0,-3.0208 0.089,-2.762 -1.1804,-3.4728 -1.5572,-0.8718 -1.6197,-1.8809 -0.1689,-2.7276 0.7798,-0.455 1.5125,-0.6217 2.9656,-0.6745 1.8326,-0.067 3.0543,0.2078 3.9991,0.8982 0.4802,0.3508 0.6994,0.7539 0.7187,1.321 0.015,0.4323 -0.021,0.5045 -0.3819,0.7834 -0.2191,0.1689 -0.5448,0.3759 -0.7241,0.4598 -0.2185,0.1025 -0.4772,0.4051 -0.7857,0.919 l -0.4598,0.7663 -0.069,1.5683 c -0.3803,8.5907 -4.2461,13.7116 -11.1596,14.782 -1.1892,0.1841 -3.8016,0.2052 -5.2351,0.042 -1.18,-0.1342 -3.0475,-0.484 -4.0585,-0.7602 l -0.724,-0.1978 -1.0582,0.6148 c -3.1779,1.8466 -6.3565,2.9505 -9.7808,3.397 -1.1347,0.1479 -3.5905,0.2451 -4.5326,0.1795 z m 25.5828,-5.9392 c 3.7205,-0.6926 6.4732,-2.9926 7.7548,-6.4796 0.5866,-1.5959 0.922,-3.3921 0.903,-4.8368 l -0.012,-0.7256 -0.2027,1.0158 c -0.857,4.296 -2.1007,6.8024 -4.2451,8.5542 -1.8261,1.492 -3.9198,2.0931 -8.4833,2.4359 -0.4764,0.036 -0.8407,0.087 -0.8095,0.1144 0.1159,0.1002 2.0428,0.1933 3.0681,0.1481 0.5819,-0.026 1.4928,-0.1275 2.024,-0.2264 z m 10.8136,-16.2042 c 0.4826,-0.1466 0.9745,-0.5205 0.9745,-0.7406 0,-0.049 -0.1304,-0.1933 -0.2898,-0.3215 -0.8982,-0.723 -4.0535,-0.732 -5.0141,-0.014 -0.5695,0.4253 -0.103,0.9193 1.1253,1.193 0.7223,0.1608 2.5047,0.096 3.2041,-0.1166 z m -44.1379,-2.7395 c 4.3025,-0.5186 6.7204,-1.3593 6.7204,-2.3366 0,-0.9966 -2.5134,-1.8601 -6.9432,-2.3853 -2.1009,-0.249 -8.9395,-0.2528 -11.0392,-0.01 -4.4586,0.524 -7.0057,1.3934 -7.0057,2.3914 0,1.0025 2.7611,1.9314 7.0174,2.361 2.296,0.2317 2.2711,0.2308 6.0707,0.1996 2.8194,-0.023 3.9022,-0.07 5.1796,-0.224 z"
       id="path7901-8-8"
       inkscape:connector-curvature="0" />
  </g>
</svg>
