<?xml version="1.0" encoding="UTF-8" standalone="no"?>
<!-- Created with Inkscape (http://www.inkscape.org/) -->

<svg
   xmlns:dc="http://purl.org/dc/elements/1.1/"
   xmlns:cc="http://creativecommons.org/ns#"
   xmlns:rdf="http://www.w3.org/1999/02/22-rdf-syntax-ns#"
   xmlns:svg="http://www.w3.org/2000/svg"
   xmlns="http://www.w3.org/2000/svg"
   xmlns:sodipodi="http://sodipodi.sourceforge.net/DTD/sodipodi-0.dtd"
   xmlns:inkscape="http://www.inkscape.org/namespaces/inkscape"
   width="497.75009"
   height="332.85056"
   id="svg3952"
   version="1.1"
   inkscape:version="0.48.4 r9939"
   sodipodi:docname="Nieuw document 8">
  <defs
     id="defs3954" />
  <sodipodi:namedview
     id="base"
     pagecolor="#ffffff"
     bordercolor="#666666"
     borderopacity="1.0"
     inkscape:pageopacity="0.0"
     inkscape:pageshadow="2"
     inkscape:zoom="0.49497475"
     inkscape:cx="601.18431"
     inkscape:cy="305.53842"
     inkscape:document-units="px"
     inkscape:current-layer="layer1"
     showgrid="false"
     fit-margin-top="0"
     fit-margin-left="0"
     fit-margin-right="0"
     fit-margin-bottom="0"
     inkscape:window-width="1600"
     inkscape:window-height="837"
     inkscape:window-x="-8"
     inkscape:window-y="-8"
     inkscape:window-maximized="1" />
  <metadata
     id="metadata3957">
    <rdf:RDF>
      <cc:Work
         rdf:about="">
        <dc:format>image/svg+xml</dc:format>
        <dc:type
           rdf:resource="http://purl.org/dc/dcmitype/StillImage" />
        <dc:title></dc:title>
      </cc:Work>
    </rdf:RDF>
  </metadata>
  <g
     inkscape:label="Laag 1"
     inkscape:groupmode="layer"
     id="layer1"
     transform="translate(-45.410675,-248.79405)">
    <rect
       style="fill:#fcdd09;fill-opacity:1;fill-rule:evenodd;stroke:none"
       id="rect2506"
       width="497.75006"
       height="332.85056"
       x="45.410675"
       y="248.79405" />
    <rect
       style="fill:#ffffff;fill-opacity:1;stroke:none"
       id="rect3282"
       width="497.75006"
       height="67.490433"
       x="45.410675"
       y="380.70718" />
    <path
       style="fill:#0f47af;fill-opacity:1;fill-rule:evenodd;stroke:none"
       d="m 57.863969,380.70717 -12.453294,20.37176 0,2.63635 37.980163,0 14.123276,-23.00811 -39.650145,0 z"
       id="path3288"
       inkscape:connector-curvature="0" />
    <path
       style="fill:#0f47af;fill-opacity:1;fill-rule:evenodd;stroke:none"
       d="m 45.410675,425.18951 0,23.0081 10.735598,0 14.123277,-23.0081 -24.858875,0 z"
       id="path3290"
       inkscape:connector-curvature="0" />
    <path
       style="fill:#0f47af;fill-opacity:1;fill-rule:evenodd;stroke:none"
       d="m 83.408236,403.71528 -13.151249,21.47395 39.614203,0 13.15041,-21.47395 -39.613364,0 z"
       id="path3292"
       sodipodi:nodetypes="ccccc"
       inkscape:connector-curvature="0" />
    <path
       sodipodi:nodetypes="ccccc"
       id="path3294"
       d="m 137.11266,380.70717 -14.08959,23.00811 39.6142,0 14.08959,-23.00811 -39.6142,0 z"
       style="fill:#0f47af;fill-opacity:1;fill-rule:evenodd;stroke:none"
       inkscape:connector-curvature="0" />
    <path
       style="fill:#0f47af;fill-opacity:1;fill-rule:evenodd;stroke:none"
       d="m 109.87268,425.18951 -14.089583,23.0081 39.614203,0 14.0894,-23.00838 -39.61402,2.8e-4 z"
       id="path3296"
       sodipodi:nodetypes="ccccc"
       inkscape:connector-curvature="0" />
    <path
       sodipodi:nodetypes="ccccc"
       id="path3298"
       d="m 162.63795,403.71528 -13.15125,21.47395 39.6142,0 13.15045,-21.47395 -39.6134,0 z"
       style="fill:#0f47af;fill-opacity:1;fill-rule:evenodd;stroke:none"
       inkscape:connector-curvature="0" />
    <path
       sodipodi:nodetypes="ccccc"
       id="path3300"
       d="m 216.34241,380.70717 -14.08954,23.00811 39.61419,0 14.08963,-23.00811 -39.61428,0 z"
       style="fill:#0f47af;fill-opacity:1;fill-rule:evenodd;stroke:none"
       inkscape:connector-curvature="0" />
    <path
       style="fill:#0f47af;fill-opacity:1;fill-rule:evenodd;stroke:none"
       d="m 189.10241,425.18951 -14.08959,23.0081 39.61428,0 14.08946,-23.00838 -39.61415,2.8e-4 z"
       id="path3302"
       sodipodi:nodetypes="ccccc"
       inkscape:connector-curvature="0" />
    <path
       sodipodi:nodetypes="ccccc"
       id="path3304"
       d="m 241.86775,403.71528 -13.15119,21.47395 39.61396,0 13.15032,-21.47395 -39.61309,0 z"
       style="fill:#0f47af;fill-opacity:1;fill-rule:evenodd;stroke:none"
       inkscape:connector-curvature="0" />
    <path
       style="fill:#0f47af;fill-opacity:1;fill-rule:evenodd;stroke:none"
       d="m 295.57202,380.70717 -14.08966,23.00811 39.61428,0 14.08954,-23.00811 -39.61416,0 z"
       id="path3306"
       sodipodi:nodetypes="ccccc"
       inkscape:connector-curvature="0" />
    <path
       sodipodi:nodetypes="ccccc"
       id="path3308"
       d="m 268.33205,425.18951 -14.0893,23.0081 39.61392,0 14.08942,-23.00838 -39.61404,2.8e-4 z"
       style="fill:#0f47af;fill-opacity:1;fill-rule:evenodd;stroke:none"
       inkscape:connector-curvature="0" />
    <path
       style="fill:#0f47af;fill-opacity:1;fill-rule:evenodd;stroke:none"
       d="m 321.09733,403.71528 -13.15124,21.47395 39.61437,0 13.15031,-21.47395 -39.61344,0 z"
       id="path3310"
       sodipodi:nodetypes="ccccc"
       inkscape:connector-curvature="0" />
    <path
       sodipodi:nodetypes="ccccc"
       id="path3312"
       d="m 374.80183,380.70717 -14.08953,23.00811 39.61419,0 14.08962,-23.00811 -39.61428,0 z"
       style="fill:#0f47af;fill-opacity:1;fill-rule:evenodd;stroke:none"
       inkscape:connector-curvature="0" />
    <path
       style="fill:#0f47af;fill-opacity:1;fill-rule:evenodd;stroke:none"
       d="m 347.56195,425.18951 -14.08971,23.0081 39.61428,0 14.08947,-23.00838 -39.61404,2.8e-4 z"
       id="path3314"
       sodipodi:nodetypes="ccccc"
       inkscape:connector-curvature="0" />
    <path
       sodipodi:nodetypes="ccccc"
       id="path3316"
       d="m 400.32717,403.71528 -13.15118,21.47395 39.61396,0 13.15031,-21.47395 -39.61309,0 z"
       style="fill:#0f47af;fill-opacity:1;fill-rule:evenodd;stroke:none"
       inkscape:connector-curvature="0" />
    <path
       style="fill:#0f47af;fill-opacity:1;fill-rule:evenodd;stroke:none"
       d="m 454.03144,380.70717 -14.08965,23.00811 39.61428,0 14.08953,-23.00811 -39.61416,0 z"
       id="path3318"
       sodipodi:nodetypes="ccccc"
       inkscape:connector-curvature="0" />
    <path
       sodipodi:nodetypes="ccccc"
       id="path3320"
       d="m 426.79148,425.18951 -14.08931,23.0081 39.61393,0 14.08941,-23.00838 -39.61403,2.8e-4 z"
       style="fill:#0f47af;fill-opacity:1;fill-rule:evenodd;stroke:none"
       inkscape:connector-curvature="0" />
    <path
       style="fill:#0f47af;fill-opacity:1;fill-rule:evenodd;stroke:none"
       d="m 479.55676,403.71528 -13.15125,21.47395 39.61437,0 13.15032,-21.47395 -39.61344,0 z"
       id="path3322"
       sodipodi:nodetypes="ccccc"
       inkscape:connector-curvature="0" />
    <path
       style="fill:#0f47af;fill-opacity:1;fill-rule:evenodd;stroke:none"
       d="m 533.28401,380.70717 -14.12328,23.00811 24.00003,0 0,-23.00811 -9.87675,0 z"
       id="path3324"
       inkscape:connector-curvature="0" />
    <path
       style="fill:#0f47af;fill-opacity:1;fill-rule:evenodd;stroke:none"
       d="m 506.03944,425.18951 -14.12328,23.0081 39.65015,0 11.59445,-18.93375 0,-4.07435 -37.12132,0 z"
       id="path3326"
       inkscape:connector-curvature="0" />
    <path
       style="fill:#da131b;fill-opacity:1;stroke:none"
       d="m 411.01187,487.90017 17.04632,-22.72843 17.42513,22.72843 -17.42513,24.62247 z"
       id="path3095"
       inkscape:connector-curvature="0" />
    <path
       style="fill:#da131b;fill-opacity:1;stroke:none"
       d="m 475.09342,487.20569 17.04633,-22.72843 17.42513,22.72843 -17.42513,24.62247 z"
       id="path3095-7"
       inkscape:connector-curvature="0" />
    <path
       style="fill:#da131b;fill-opacity:1;stroke:none"
       d="m 444.53631,538.47093 17.04632,-22.72843 17.42513,22.72843 -17.42513,24.62247 z"
       id="path3095-4"
       inkscape:connector-curvature="0" />
    <path
       transform="translate(-608.4092,-182.47864)"
       sodipodi:type="arc"
       style="fill:#da131b;fill-opacity:1;fill-rule:evenodd;stroke:none"
       id="path4025"
       sodipodi:cx="692.23212"
       sodipodi:cy="673.16577"
       sodipodi:rx="18.125"
       sodipodi:ry="4.7321429"
       d="m 710.35712,673.16577 a 18.125,4.7321429 0 1 1 -36.25,0 18.125,4.7321429 0 1 1 36.25,0 z" />
    <path
       style="fill:#da131b;fill-opacity:1;stroke:none"
       d="m 66.590809,495.32997 c 14.97684,5.86234 28.46644,2.56831 35.000001,-0.17857 -8.432621,24.36717 8.50334,42.64455 31.07316,23.70413 11.30176,-13.91992 -5.6588,-26.05479 -9.97525,-15.40482 -2.456,5.44819 0.11046,14.54708 5.94309,20.03138 l -5.74303,3.66529 c -8.15243,-8.58235 -12.08136,-22.65635 -2.26309,-31.67335 14.09427,-13.0445 35.11637,13.20175 14.238,31.65886 14.33313,6.50818 30.35504,-4.77385 34.4183,-26.58637 -9.38901,-6.82439 15.75869,-4.92325 6.69226,0 -6.36802,29.94539 -28.61915,40.46449 -47.35089,30.80965 -35.871911,17.54867 -64.584761,-6.27088 -62.032551,-36.0262 z"
       id="path4027"
       inkscape:connector-curvature="0"
       sodipodi:nodetypes="cccccccccccc" />
    <path
       style="fill:#da131b;fill-opacity:1;fill-rule:evenodd;stroke:none"
       d="m 67.906988,267.40028 8.812223,0 11.874104,15.41279 11.874165,-15.41279 8.81216,0 -16.280186,21.1101 16.280186,21.11009 -8.81216,0 -11.874165,-15.3858 -11.874104,15.3858 -8.812223,0 16.280244,-21.11009 -16.280244,-21.1101 z"
       id="path3278-0"
       sodipodi:nodetypes="ccccccccccccc"
       inkscape:connector-curvature="0" />
    <path
       style="fill:#da131b;fill-opacity:1;fill-rule:evenodd;stroke:none"
       d="m 120.94276,267.04314 8.81222,0 11.8741,15.41278 11.87416,-15.41278 8.81217,0 -16.28019,21.1101 16.28019,21.11009 -8.81217,0 -11.87416,-15.38581 -11.8741,15.38581 -8.81222,0 16.28024,-21.11009 -16.28024,-21.1101 z"
       id="path3278-0-9"
       sodipodi:nodetypes="ccccccccccccc"
       inkscape:connector-curvature="0" />
    <path
       style="fill:#da131b;fill-opacity:1;fill-rule:evenodd;stroke:none"
       d="m 94.871326,315.61457 8.812224,0 11.8741,15.41278 11.87416,-15.41278 8.81217,0 -16.28019,21.11009 16.28019,21.1101 -8.81217,0 -11.87416,-15.38581 -11.8741,15.38581 -8.812224,0 16.280244,-21.1101 -16.280244,-21.11009 z"
       id="path3278-0-4"
       sodipodi:nodetypes="ccccccccccccc"
       inkscape:connector-curvature="0" />
  </g>
</svg>
