<?xml version="1.0" encoding="UTF-8" standalone="no"?>
<!-- Created with Inkscape (http://www.inkscape.org/) -->

<svg
   width="355.5"
   height="236"
   id="svg3991"
   version="1.1"
   inkscape:version="1.2.2 (b0a8486, 2022-12-01)"
   sodipodi:docname="20230929140221!Maarn_vlag.svg"
   xmlns:inkscape="http://www.inkscape.org/namespaces/inkscape"
   xmlns:sodipodi="http://sodipodi.sourceforge.net/DTD/sodipodi-0.dtd"
   xmlns="http://www.w3.org/2000/svg"
   xmlns:svg="http://www.w3.org/2000/svg"
   xmlns:rdf="http://www.w3.org/1999/02/22-rdf-syntax-ns#"
   xmlns:cc="http://creativecommons.org/ns#"
   xmlns:dc="http://purl.org/dc/elements/1.1/">
  <defs
     id="defs3993" />
  <sodipodi:namedview
     id="base"
     pagecolor="#ffffff"
     bordercolor="#666666"
     borderopacity="1.0"
     inkscape:pageopacity="0.0"
     inkscape:pageshadow="2"
     inkscape:zoom="0.35"
     inkscape:cx="58.571429"
     inkscape:cy="185.71429"
     inkscape:document-units="px"
     inkscape:current-layer="layer1"
     showgrid="false"
     fit-margin-top="0"
     fit-margin-left="0"
     fit-margin-right="0"
     fit-margin-bottom="0"
     inkscape:window-width="1440"
     inkscape:window-height="900"
     inkscape:window-x="0"
     inkscape:window-y="0"
     inkscape:window-maximized="0"
     inkscape:showpageshadow="2"
     inkscape:pagecheckerboard="0"
     inkscape:deskcolor="#d1d1d1" />
  <metadata
     id="metadata3996">
    <rdf:RDF>
      <cc:Work
         rdf:about="">
        <dc:format>image/svg+xml</dc:format>
        <dc:type
           rdf:resource="http://purl.org/dc/dcmitype/StillImage" />
        <dc:title />
      </cc:Work>
    </rdf:RDF>
  </metadata>
  <g
     inkscape:label="Laag 1"
     inkscape:groupmode="layer"
     id="layer1"
     transform="translate(-87.964287,-482.93362)">
    <rect
       style="fill:#e50000;fill-opacity:1;fill-rule:evenodd;stroke:none"
       id="rect3952"
       width="355.5"
       height="236"
       x="87.964287"
       y="482.93362" />
    <rect
       style="fill:#fcdd04;fill-opacity:1;fill-rule:evenodd;stroke:none"
       id="rect3954"
       width="120"
       height="236"
       x="205.96428"
       y="482.93362" />
    <path
       style="fill:#fcdd04;fill-opacity:1"
       d="m 200.4073,696.31073 c -13.55147,-0.7133 -27.40741,-4.5629 -39.59317,-11.0003 -24.11636,-12.7399 -41.58853,-35.0404 -47.71245,-60.8972 -4.18096,-17.6532 -3.10662,-36.048 3.09726,-53.0313 0.94264,-2.5805 3.65548,-8.6326 5.07763,-11.3277 13.44952,-25.4881 39.16462,-44.0348 67.8582,-48.9421 4.71942,-0.8072 11.05023,-1.4277 14.61393,-1.4324 l 2.21046,0 0,40.4136 0,40.4135 -1.17499,0.1573 c -5.1509,0.6897 -9.14985,4.6585 -10.23735,10.1602 -0.38568,1.9513 -0.38369,3.0236 0.01,5.0635 0.77896,4.0418 2.94971,7.1189 6.30091,8.932 1.27125,0.6877 3.33763,1.2928 4.43372,1.298 l 0.66828,0 0,40.2186 0,40.2185 -1.07954,-0.033 c -0.59373,-0.018 -2.60628,-0.1133 -4.47232,-0.2116 z m 1.18313,-43.6509 -0.0522,-27.5877 -0.9253,-0.2542 c -2.99457,-0.823 -6.48631,-2.9027 -8.74738,-5.2099 l -1.24208,-1.2673 -24.61519,14.2436 c -13.53836,7.834 -24.61522,14.3335 -24.61522,14.4432 0,0.552 4.61317,6.1807 7.56047,9.2248 12.77414,13.1942 29.65378,21.4795 47.95816,23.5405 1.9326,0.2174 2.68276,0.2909 4.2675,0.4175 l 0.46344,0.037 -0.0522,-27.5877 z m -41.17709,-28.3294 c 12.66646,-7.3255 23.5999,-13.6574 24.29655,-14.071 l 1.26663,-0.7519 -0.29984,-1.1572 c -0.16488,-0.6366 -0.35328,-2.3474 -0.41861,-3.8019 -0.10716,-2.3855 -0.0374,-3.3447 0.45722,-6.2815 l 0.13004,-0.7722 -24.92946,-14.4336 c -13.7112,-7.9387 -24.99127,-14.4609 -25.06681,-14.4938 -0.14426,-0.063 -2.692,5.4823 -3.58638,7.8057 -0.28686,0.7453 -0.93379,2.6791 -1.43761,4.2973 -2.53247,8.1345 -3.58884,15.9024 -3.34908,24.6271 0.22845,8.3128 1.5326,15.4908 4.18824,23.0515 0.87903,2.5027 3.43364,8.4558 4.09104,9.5337 0.29478,0.4832 0.32353,0.4871 0.96599,0.1325 0.36418,-0.2012 11.02561,-6.3592 23.69209,-13.6847 z m 31.43836,-37.0264 c 2.54667,-2.5531 5.38024,-4.1794 9.53232,-5.4708 0.20386,-0.063 0.25702,-5.8246 0.25702,-27.8556 l 0,-27.7758 -1.49078,0.1251 c -20.06736,1.6847 -37.68825,9.881 -51.10337,23.7709 -3.2157,3.3295 -8.32577,9.6269 -8.04572,9.9151 0.19501,0.2008 49.24417,28.5454 49.40715,28.5515 0.0987,0 0.7482,-0.5634 1.44339,-1.2604 z"
       id="path3918"
       inkscape:connector-curvature="0" />
    <path
       style="fill:#e50000;fill-opacity:1"
       d="m 211.51311,696.30393 c 13.55146,-0.7133 27.4074,-4.5629 39.59316,-11.0003 24.11638,-12.7399 41.58854,-35.0403 47.71245,-60.8972 4.18097,-17.6531 3.10663,-36.0479 -3.09726,-53.0314 -0.94264,-2.5804 -3.65549,-8.6325 -5.07762,-11.3277 -13.44953,-25.488 -39.16461,-44.0347 -67.85819,-48.9421 -4.71943,-0.807 -11.05024,-1.4276 -14.61394,-1.4324 l -2.21046,0 0,40.4136 0,40.4135 1.175,0.1572 c 5.15089,0.6898 9.14983,4.6587 10.23735,10.1604 0.38567,1.9512 0.38368,3.0236 -0.01,5.0635 -0.77896,4.0417 -2.9497,7.1189 -6.30091,8.9319 -1.27124,0.6877 -3.33763,1.2928 -4.43371,1.2981 l -0.66828,0 0,40.2185 0,40.2186 1.07954,-0.033 c 0.59373,-0.017 2.60628,-0.1133 4.47233,-0.2116 z m -1.18314,-43.6508 0.0522,-27.5878 0.92531,-0.2543 c 2.99457,-0.8229 6.4863,-2.9025 8.74738,-5.2097 l 1.24209,-1.2674 24.61518,14.2436 c 13.53835,7.8339 24.6152,14.3335 24.6152,14.4432 0,0.5519 -4.61316,6.1807 -7.56046,9.2248 -12.77414,13.1942 -29.65378,21.4795 -47.95815,23.5405 -1.93259,0.2175 -2.68275,0.2909 -4.2675,0.4176 l -0.46344,0.037 0.0522,-27.5876 z m 41.1771,-28.3295 c -12.66647,-7.3255 -23.59992,-13.6574 -24.29656,-14.0709 l -1.26663,-0.752 0.29985,-1.1572 c 0.16489,-0.6366 0.35328,-2.3474 0.4186,-3.8019 0.10717,-2.3855 0.0373,-3.3447 -0.4572,-6.2815 l -0.13003,-0.7721 24.92945,-14.4338 c 13.71121,-7.9386 24.99127,-14.4607 25.06681,-14.4937 0.14425,-0.063 2.692,5.4823 3.58638,7.8057 0.28687,0.7453 0.93377,2.6791 1.4376,4.2974 2.53247,8.1344 3.58884,15.9023 3.34908,24.627 -0.22845,8.3128 -1.5326,15.4908 -4.18824,23.0516 -0.87902,2.5027 -3.43364,8.4557 -4.09104,9.5336 -0.29478,0.4832 -0.32353,0.4871 -0.96599,0.1325 -0.36418,-0.2011 -11.02562,-6.3592 -23.69209,-13.6847 z m -31.43835,-37.0263 c -2.54669,-2.5532 -5.38026,-4.1794 -9.53233,-5.4708 -0.20387,-0.064 -0.25702,-5.8247 -0.25702,-27.8557 l 0,-27.7758 1.49077,0.1251 c 20.06736,1.6846 37.68824,9.881 51.10338,23.7709 3.21569,3.3294 8.32578,9.6269 8.04571,9.9151 -0.19498,0.2008 -49.24419,28.5454 -49.40714,28.5515 -0.0987,0 -0.7482,-0.5634 -1.44338,-1.2603 z"
       id="path3918-4"
       inkscape:connector-curvature="0" />
  </g>
</svg>
