<?xml version="1.0" encoding="UTF-8" standalone="no"?>
<!-- Created with Inkscape (http://www.inkscape.org/) -->

<svg
   xmlns:dc="http://purl.org/dc/elements/1.1/"
   xmlns:cc="http://creativecommons.org/ns#"
   xmlns:rdf="http://www.w3.org/1999/02/22-rdf-syntax-ns#"
   xmlns:svg="http://www.w3.org/2000/svg"
   xmlns="http://www.w3.org/2000/svg"
   xmlns:sodipodi="http://sodipodi.sourceforge.net/DTD/sodipodi-0.dtd"
   xmlns:inkscape="http://www.inkscape.org/namespaces/inkscape"
   height="700"
   width="1000"
   version="1.1"
   id="svg6293"
   inkscape:version="0.48.4 r9939"
   sodipodi:docname="Vianen_vlag.svg">
  <sodipodi:namedview
     pagecolor="#ffffff"
     bordercolor="#666666"
     borderopacity="1"
     objecttolerance="10"
     gridtolerance="10"
     guidetolerance="10"
     inkscape:pageopacity="0"
     inkscape:pageshadow="2"
     inkscape:window-width="1600"
     inkscape:window-height="837"
     id="namedview6363"
     showgrid="false"
     inkscape:zoom="1.3485714"
     inkscape:cx="78.250204"
     inkscape:cy="470.83735"
     inkscape:window-x="-8"
     inkscape:window-y="-8"
     inkscape:window-maximized="1"
     inkscape:current-layer="g6299" />
  <defs
     id="defs6295" />
  <metadata
     id="metadata6297">
    <rdf:RDF>
      <cc:Work
         rdf:about="">
        <dc:format>image/svg+xml</dc:format>
        <dc:type
           rdf:resource="http://purl.org/dc/dcmitype/StillImage" />
        <dc:title></dc:title>
      </cc:Work>
    </rdf:RDF>
  </metadata>
  <g
     transform="translate(-26.960254,-28.106542)"
     id="g6299">
    <path
       fill="#FFF"
       d="m26.96,138.1,1000,0,0,480-1000,0z"
       id="path6301" />
    <path
       fill="#F00"
       d="m26.96,618.1,1000,0,0,110-1000,0z"
       id="path6357" />
    <path
       fill="#F00"
       d="m26.96,618.1,1000,0,0,110-1000,0z"
       id="path6359" />
    <path
       fill="#FF0"
       d="m26.96,28.11,1000,0,0,110-1000,0z"
       id="path6361" />
    <path
       style="fill:#1a1a1a"
       d="m 168.67177,372.28776 c -7.61471,-0.37586 -14.91854,-2.99786 -20.76276,-7.45372 -2.31188,-1.76262 -4.62011,-4.08226 -6.24528,-6.276 -1.90069,-2.56574 -3.44767,-5.52752 -4.31138,-8.2543 -0.0933,-0.29457 -0.18841,-0.55671 -0.21132,-0.58254 -0.0228,-0.0257 -0.12077,0.20101 -0.21748,0.50405 -0.70873,2.22123 -2.05275,4.90144 -3.42504,6.8299 -1.38147,1.94147 -3.04821,3.7133 -4.90353,5.21275 -2.32256,1.87701 -3.2014,2.55201 -4.26722,3.27722 -4.89006,3.32733 -10.7529,5.45993 -16.89615,6.14583 -1.57097,0.17544 -2.7068,0.23465 -4.50064,0.23465 -1.79385,0 -2.92968,-0.0593 -4.500688,-0.23465 -12.116694,-1.35288 -22.564814,-8.20742 -27.413395,-17.98467 -1.523507,-3.07213 -2.381007,-6.06794 -2.732465,-9.54598 -0.0985,-0.97474 -0.0985,-3.81408 0,-4.78878 0.352086,-3.48413 1.206326,-6.4685 2.732465,-9.54597 2.363322,-4.76568 5.99834,-8.81886 10.758158,-11.9957 2.373772,-1.58436 4.583634,-2.71593 7.381246,-3.77966 8.444797,-3.21091 18.497209,-3.27897 27.059379,-0.18318 0.52926,0.19133 0.98716,0.37109 1.01765,0.3994 0.0692,0.0643 -0.2202,0.89692 -0.7861,2.26181 -1.40841,3.39675 -3.23207,6.20363 -5.56897,8.57156 -2.2397,2.26942 -4.7683,3.88139 -7.47585,4.76574 l -0.55283,0.18053 0.27351,0.0478 c 0.53492,0.0934 2.98504,0.12817 3.74047,0.0531 4.5402,-0.45076 8.03168,-2.86085 10.92617,-7.54204 l 0.35432,-0.57311 -0.10278,-3.77457 c -0.063,-2.31075 -0.11411,-6.62765 -0.13193,-11.13121 l -0.029,-7.35662 9.39516,0.0159 9.39512,0.0159 0.0313,18.68848 c 0.0272,16.48822 0.042,18.70194 0.12417,18.80247 0.22926,0.28057 0.69467,0.33032 0.95304,0.10189 0.30566,-0.27018 0.28851,0.85803 0.28851,-19.03329 l 0,-18.59106 9.43592,0 9.43588,0 0,7.70298 c 0,4.23662 -0.0317,9.20573 -0.0717,11.04248 l -0.073,3.33951 0.43549,0.69754 c 1.74933,2.80205 3.90951,4.92338 6.2118,6.10019 1.05657,0.54007 2.51771,0.99948 3.86914,1.21651 0.56149,0.0901 1.04818,0.11244 2.35301,0.10774 0.90478,-0.004 1.81268,-0.0328 2.01753,-0.0656 l 0.37249,-0.0595 -0.52769,-0.17835 c -6.0941,-2.05945 -10.98242,-7.42041 -13.69988,-15.02462 -0.15314,-0.42847 -0.25503,-0.79986 -0.2265,-0.82537 0.15925,-0.14211 2.31198,-0.81251 3.65444,-1.13809 3.27529,-0.79429 6.10674,-1.1319 9.49597,-1.13226 7.322,0 14.14967,1.89088 20.08233,5.56408 3.58528,2.21981 6.85725,5.22156 9.21638,8.4553 3.13108,4.29191 4.91965,9.01143 5.37265,14.1772 0.0942,1.07469 0.0795,3.54974 -0.0276,4.66273 -0.3216,3.33718 -1.17276,6.36271 -2.64112,9.38848 -1.49413,3.07879 -3.12273,5.35487 -5.7067,7.97536 -1.35818,1.3774 -2.16585,2.09537 -3.51313,3.12281 -6.84316,5.21897 -15.67098,7.8425 -24.86233,7.3888 z m -54.69088,-78.05555 0,-4.15137 1.93993,-0.0376 c 2.29046,-0.0444 45.04623,-0.19542 45.07779,-0.15924 0.012,0.0136 0.0601,1.93164 0.10716,4.26226 l 0.0856,4.23748 -23.60524,-7e-5 -23.60523,-6e-5 0,-4.15139 z m 3.91116,-9.88407 c 0,-2.3479 0.0286,-5.30384 0.0635,-6.56878 0.0894,-3.25087 0.0902,-5.93598 0.005,-9.89254 l -0.0759,-3.43403 -0.50746,-0.52577 c -2.20349,-2.28303 -5.18075,-3.76154 -8.63968,-4.29042 -1.68191,-0.25717 -2.26514,-0.2876 -5.50798,-0.2876 l -3.14898,0 -0.163458,0.16586 c -0.11121,0.11281 -0.17349,0.25602 -0.19479,0.44779 -0.0277,0.24797 -0.008,0.30769 0.1568,0.49574 l 0.188138,0.21381 3.12461,0.0399 c 3.34222,0.0426 4.28374,0.1076 5.8739,0.40571 2.55433,0.47883 4.60168,1.41974 6.4383,2.95882 0.34142,0.28614 0.7086,0.61544 0.81593,0.73176 l 0.19515,0.21155 0.0268,2.03207 c 0.0148,1.11763 0.0219,2.03207 0.0156,2.03207 -0.006,0 -0.24926,-0.29065 -0.53996,-0.64585 -0.2907,-0.35523 -0.84776,-0.95947 -1.23789,-1.3428 -2.14831,-2.11073 -4.40599,-3.24543 -7.34571,-3.6919 -0.65489,-0.0994 -3.87205,-0.1074 -4.31442,-0.0108 l -0.27936,0.0611 0.59953,0.19802 c 4.57207,1.51022 8.60115,5.09571 11.48533,10.22083 0.56729,1.00804 0.895,1.68496 1.43417,2.96223 0.66783,1.5822 0.89678,2.26326 0.7849,2.33505 -0.11899,0.0764 -1.79541,0.63729 -2.60219,0.87065 -8.98302,2.59821 -18.735988,1.96673 -27.097108,-1.75448 -7.116361,-3.16722 -12.820781,-8.45567 -15.974904,-14.81009 -1.526403,-3.07504 -2.391846,-6.07805 -2.714873,-9.41999 -0.109166,-1.1297 -0.123141,-3.51142 -0.02679,-4.58461 0.45675,-5.09119 2.255638,-9.76157 5.393636,-14.00331 4.527208,-6.11949 11.650704,-10.69874 19.69903,-12.66321 6.792979,-1.65804 14.089799,-1.51304 20.658999,0.41049 7.01232,2.0533 12.99133,5.89895 17.28655,11.11856 2.58897,3.14618 4.55909,6.94852 5.5011,10.61716 0.0851,0.33156 0.075,0.34884 0.36785,-0.63008 1.8163,-6.07182 6.13415,-11.76073 11.94971,-15.74411 5.85609,-4.01112 12.75693,-6.22992 20.19096,-6.49188 8.31362,-0.29298 16.31461,1.92061 22.82925,6.31597 6.79351,4.58347 11.37519,11.16344 12.84025,18.44041 0.37205,1.848 0.49635,3.13905 0.49742,5.16679 0,4.09518 -0.80629,7.68623 -2.56031,11.37329 -2.85128,5.99345 -7.75151,10.93462 -14.19163,14.31024 -6.65667,3.4891 -14.51467,4.92575 -22.34819,4.08588 -2.69733,-0.28923 -5.39537,-0.87027 -7.946,-1.71133 -0.68287,-0.22518 -1.26677,-0.43358 -1.29762,-0.46311 -0.16426,-0.15737 1.35004,-3.76188 2.27509,-5.41549 2.42445,-4.33385 5.49449,-7.45417 9.17831,-9.32852 0.89733,-0.45658 1.57315,-0.74343 2.38654,-1.01301 l 0.61828,-0.20492 -0.37249,-0.0611 c -0.56792,-0.0932 -3.63154,-0.0854 -4.22133,0.0108 -2.03775,0.33213 -3.53947,0.87789 -5.07423,1.84405 -1.34143,0.84448 -2.81815,2.22756 -3.92978,3.68053 l -0.28216,0.36884 0.0183,-1.83635 0.0183,-1.83638 0.34147,-0.35347 c 0.18779,-0.1944 0.57885,-0.54619 0.86906,-0.78171 2.23192,-1.81142 4.75888,-2.73682 8.44265,-3.09181 0.39263,-0.0379 2.06834,-0.0853 3.72377,-0.10533 l 3.00992,-0.0365 0.20265,-0.20573 c 0.15573,-0.15805 0.20265,-0.25964 0.20265,-0.43855 0,-0.31185 -0.19636,-0.578 -0.493,-0.66823 -0.35392,-0.10763 -5.88761,-0.0351 -7.10193,0.0932 -3.30074,0.34843 -5.69702,1.15094 -7.89358,2.64355 -0.67341,0.45759 -1.78259,1.3912 -2.30608,1.94107 l -0.38165,0.40088 -0.0406,3.24503 c -0.0286,2.27766 -0.012,4.38135 0.0552,7.05709 0.0527,2.09667 0.0961,5.8749 0.0964,8.39607 l 0,4.58397 -5.51477,0 c -3.03308,0 -7.27923,0.0189 -9.43588,0.0418 l -3.92116,0.0418 0,-15.99907 c 0,-10.47212 -0.0219,-16.07746 -0.0624,-16.22594 -0.0839,-0.30644 -0.25021,-0.44343 -0.58484,-0.48174 -0.25699,-0.0295 -0.29833,-0.0136 -0.49916,0.19018 l -0.21877,0.22227 0,16.12639 0,16.12642 -7.03032,0.0419 c -3.86674,0.023 -8.09891,0.0418 -9.40485,0.0418 l -2.37452,3e-5 0,-4.26892 z"
       id="path7073"
       inkscape:connector-curvature="0" />
    <path
       style="fill:#1a1a1a"
       d="m 387.97792,372.84391 c -7.61471,-0.37586 -14.91854,-2.99786 -20.76276,-7.45372 -2.31188,-1.76262 -4.62011,-4.08226 -6.24528,-6.276 -1.90069,-2.56574 -3.44767,-5.52752 -4.31138,-8.2543 -0.0933,-0.29457 -0.18841,-0.55671 -0.21132,-0.58254 -0.0228,-0.0257 -0.12077,0.20101 -0.21748,0.50405 -0.70873,2.22123 -2.05275,4.90144 -3.42504,6.8299 -1.38147,1.94147 -3.04821,3.7133 -4.90353,5.21275 -2.32256,1.87701 -3.2014,2.55201 -4.26722,3.27722 -4.89006,3.32733 -10.7529,5.45993 -16.89615,6.14583 -1.57097,0.17544 -2.7068,0.23465 -4.50064,0.23465 -1.79385,0 -2.92968,-0.0593 -4.50069,-0.23465 -12.1167,-1.35288 -22.56482,-8.20742 -27.4134,-17.98467 -1.52351,-3.07213 -2.38101,-6.06794 -2.73246,-9.54598 -0.0985,-0.97474 -0.0985,-3.81408 0,-4.78878 0.35208,-3.48413 1.20632,-6.4685 2.73246,-9.54597 2.36332,-4.76568 5.99834,-8.81886 10.75816,-11.9957 2.37377,-1.58436 4.58363,-2.71593 7.38125,-3.77966 8.44479,-3.21091 18.49721,-3.27897 27.05938,-0.18318 0.52926,0.19133 0.98716,0.37109 1.01765,0.3994 0.0692,0.0643 -0.2202,0.89692 -0.7861,2.26181 -1.40841,3.39675 -3.23207,6.20363 -5.56897,8.57156 -2.2397,2.26942 -4.7683,3.88139 -7.47585,4.76574 l -0.55283,0.18053 0.27351,0.0478 c 0.53492,0.0934 2.98504,0.12817 3.74047,0.0531 4.5402,-0.45076 8.03168,-2.86085 10.92617,-7.54204 l 0.35432,-0.57311 -0.10278,-3.77457 c -0.063,-2.31075 -0.11411,-6.62765 -0.13193,-11.13121 l -0.029,-7.35662 9.39516,0.0159 9.39512,0.0159 0.0313,18.68848 c 0.0272,16.48822 0.042,18.70194 0.12417,18.80247 0.22926,0.28057 0.69467,0.33032 0.95304,0.10189 0.30566,-0.27018 0.28851,0.85803 0.28851,-19.03329 l 0,-18.59106 9.43592,0 9.43588,0 0,7.70298 c 0,4.23662 -0.0317,9.20573 -0.0717,11.04248 l -0.073,3.33951 0.43549,0.69754 c 1.74933,2.80205 3.90951,4.92338 6.2118,6.10019 1.05657,0.54007 2.51771,0.99948 3.86914,1.21651 0.56149,0.0901 1.04818,0.11244 2.35301,0.10774 0.90478,-0.004 1.81268,-0.0328 2.01753,-0.0656 l 0.37249,-0.0595 -0.52769,-0.17835 c -6.0941,-2.05945 -10.98242,-7.42041 -13.69988,-15.02462 -0.15314,-0.42847 -0.25503,-0.79986 -0.2265,-0.82537 0.15925,-0.14211 2.31198,-0.81251 3.65444,-1.13809 3.27529,-0.79429 6.10674,-1.1319 9.49597,-1.13226 7.322,0 14.14967,1.89088 20.08233,5.56408 3.58528,2.21981 6.85725,5.22156 9.21638,8.4553 3.13108,4.29191 4.91965,9.01143 5.37265,14.1772 0.0942,1.07469 0.0795,3.54974 -0.0276,4.66273 -0.3216,3.33718 -1.17276,6.36271 -2.64112,9.38848 -1.49413,3.07879 -3.12273,5.35487 -5.7067,7.97536 -1.35818,1.3774 -2.16585,2.09537 -3.51313,3.12281 -6.84316,5.21897 -15.67098,7.8425 -24.86233,7.3888 z m -54.69088,-78.05555 0,-4.15137 1.93993,-0.0376 c 2.29046,-0.0444 45.04623,-0.19542 45.07779,-0.15924 0.012,0.0136 0.0601,1.93164 0.10716,4.26226 l 0.0856,4.23748 -23.60524,-7e-5 -23.60523,-6e-5 0,-4.15139 z m 3.91116,-9.88407 c 0,-2.3479 0.0286,-5.30384 0.0635,-6.56878 0.0894,-3.25087 0.0902,-5.93598 0.005,-9.89254 l -0.0759,-3.43403 -0.50746,-0.52577 c -2.20349,-2.28303 -5.18075,-3.76154 -8.63968,-4.29042 -1.68191,-0.25717 -2.26514,-0.2876 -5.50798,-0.2876 l -3.14898,0 -0.16346,0.16586 c -0.11121,0.11281 -0.17349,0.25602 -0.19479,0.44779 -0.0277,0.24797 -0.008,0.30769 0.1568,0.49574 l 0.18814,0.21381 3.12461,0.0399 c 3.34222,0.0426 4.28374,0.1076 5.8739,0.40571 2.55433,0.47883 4.60168,1.41974 6.4383,2.95882 0.34142,0.28614 0.7086,0.61544 0.81593,0.73176 l 0.19515,0.21155 0.0268,2.03207 c 0.0148,1.11763 0.0219,2.03207 0.0156,2.03207 -0.006,0 -0.24926,-0.29065 -0.53996,-0.64585 -0.2907,-0.35523 -0.84776,-0.95947 -1.23789,-1.3428 -2.14831,-2.11073 -4.40599,-3.24543 -7.34571,-3.6919 -0.65489,-0.0994 -3.87205,-0.1074 -4.31442,-0.0108 l -0.27936,0.0611 0.59953,0.19802 c 4.57207,1.51022 8.60115,5.09571 11.48533,10.22083 0.56729,1.00804 0.895,1.68496 1.43417,2.96223 0.66783,1.5822 0.89678,2.26326 0.7849,2.33505 -0.11899,0.0764 -1.79541,0.63729 -2.60219,0.87065 -8.98302,2.59821 -18.73599,1.96673 -27.09711,-1.75448 -7.11636,-3.16722 -12.82078,-8.45567 -15.97491,-14.81009 -1.5264,-3.07504 -2.39184,-6.07805 -2.71487,-9.41999 -0.10917,-1.1297 -0.12314,-3.51142 -0.0268,-4.58461 0.45675,-5.09119 2.25564,-9.76157 5.39364,-14.00331 4.5272,-6.11949 11.6507,-10.69874 19.69903,-12.66321 6.79298,-1.65804 14.0898,-1.51304 20.659,0.41049 7.01232,2.0533 12.99133,5.89895 17.28655,11.11856 2.58897,3.14618 4.55909,6.94852 5.5011,10.61716 0.0851,0.33156 0.075,0.34884 0.36785,-0.63008 1.8163,-6.07182 6.13415,-11.76073 11.94971,-15.74411 5.85609,-4.01112 12.75693,-6.22992 20.19096,-6.49188 8.31362,-0.29298 16.31461,1.92061 22.82925,6.31597 6.79351,4.58347 11.37519,11.16344 12.84025,18.44041 0.37205,1.848 0.49635,3.13905 0.49742,5.16679 0,4.09518 -0.80629,7.68623 -2.56031,11.37329 -2.85128,5.99345 -7.75151,10.93462 -14.19163,14.31024 -6.65667,3.4891 -14.51467,4.92575 -22.34819,4.08588 -2.69733,-0.28923 -5.39537,-0.87027 -7.946,-1.71133 -0.68287,-0.22518 -1.26677,-0.43358 -1.29762,-0.46311 -0.16426,-0.15737 1.35004,-3.76188 2.27509,-5.41549 2.42445,-4.33385 5.49449,-7.45417 9.17831,-9.32852 0.89733,-0.45658 1.57315,-0.74343 2.38654,-1.01301 l 0.61828,-0.20492 -0.37249,-0.0611 c -0.56792,-0.0932 -3.63154,-0.0854 -4.22133,0.0108 -2.03775,0.33213 -3.53947,0.87789 -5.07423,1.84405 -1.34143,0.84448 -2.81815,2.22756 -3.92978,3.68053 l -0.28216,0.36884 0.0183,-1.83635 0.0183,-1.83638 0.34147,-0.35347 c 0.18779,-0.1944 0.57885,-0.54619 0.86906,-0.78171 2.23192,-1.81142 4.75888,-2.73682 8.44265,-3.09181 0.39263,-0.0379 2.06834,-0.0853 3.72377,-0.10533 l 3.00992,-0.0365 0.20265,-0.20573 c 0.15573,-0.15805 0.20265,-0.25964 0.20265,-0.43855 0,-0.31185 -0.19636,-0.578 -0.493,-0.66823 -0.35392,-0.10763 -5.88761,-0.0351 -7.10193,0.0932 -3.30074,0.34843 -5.69702,1.15094 -7.89358,2.64355 -0.67341,0.45759 -1.78259,1.3912 -2.30608,1.94107 l -0.38165,0.40088 -0.0406,3.24503 c -0.0286,2.27766 -0.012,4.38135 0.0552,7.05709 0.0527,2.09667 0.0961,5.8749 0.0964,8.39607 l 0,4.58397 -5.51477,0 c -3.03308,0 -7.27923,0.0189 -9.43588,0.0418 l -3.92116,0.0418 0,-15.99907 c 0,-10.47212 -0.0219,-16.07746 -0.0624,-16.22594 -0.0839,-0.30644 -0.25021,-0.44343 -0.58484,-0.48174 -0.25699,-0.0295 -0.29833,-0.0136 -0.49916,0.19018 l -0.21877,0.22227 0,16.12639 0,16.12642 -7.03032,0.0419 c -3.86674,0.023 -8.09891,0.0418 -9.40485,0.0418 l -2.37452,3e-5 0,-4.26892 z"
       id="path7073-6"
       inkscape:connector-curvature="0" />
    <path
       style="fill:#1a1a1a"
       d="m 279.69465,557.63857 c -7.61471,-0.37586 -14.91854,-2.99786 -20.76276,-7.45372 -2.31188,-1.76262 -4.62011,-4.08226 -6.24528,-6.276 -1.90069,-2.56574 -3.44767,-5.52752 -4.31138,-8.2543 -0.0933,-0.29457 -0.18841,-0.55671 -0.21132,-0.58254 -0.0228,-0.0257 -0.12077,0.20101 -0.21748,0.50405 -0.70873,2.22123 -2.05275,4.90144 -3.42504,6.8299 -1.38147,1.94147 -3.04821,3.7133 -4.90353,5.21275 -2.32256,1.87701 -3.2014,2.55201 -4.26722,3.27722 -4.89006,3.32733 -10.7529,5.45993 -16.89615,6.14583 -1.57097,0.17544 -2.7068,0.23465 -4.50064,0.23465 -1.79385,0 -2.92968,-0.0593 -4.50069,-0.23465 -12.11669,-1.35288 -22.56481,-8.20742 -27.41339,-17.98467 -1.52351,-3.07213 -2.38101,-6.06794 -2.73247,-9.54598 -0.0985,-0.97474 -0.0985,-3.81408 0,-4.78878 0.35209,-3.48413 1.20633,-6.4685 2.73247,-9.54597 2.36332,-4.76568 5.99834,-8.81886 10.75816,-11.9957 2.37377,-1.58436 4.58363,-2.71593 7.38124,-3.77966 8.4448,-3.21091 18.49721,-3.27897 27.05938,-0.18318 0.52926,0.19133 0.98716,0.37109 1.01765,0.3994 0.0692,0.0643 -0.2202,0.89692 -0.7861,2.26181 -1.40841,3.39675 -3.23207,6.20363 -5.56897,8.57156 -2.2397,2.26942 -4.7683,3.88139 -7.47585,4.76574 l -0.55283,0.18053 0.27351,0.0478 c 0.53492,0.0934 2.98504,0.12817 3.74047,0.0531 4.5402,-0.45076 8.03168,-2.86085 10.92617,-7.54204 l 0.35432,-0.57311 -0.10278,-3.77457 c -0.063,-2.31075 -0.11411,-6.62765 -0.13193,-11.13121 l -0.029,-7.35662 9.39516,0.0159 9.39512,0.0159 0.0313,18.68848 c 0.0272,16.48822 0.042,18.70194 0.12417,18.80247 0.22926,0.28057 0.69467,0.33032 0.95304,0.10189 0.30566,-0.27018 0.28851,0.85803 0.28851,-19.03329 l 0,-18.59106 9.43592,0 9.43588,0 0,7.70298 c 0,4.23662 -0.0317,9.20573 -0.0717,11.04248 l -0.073,3.33951 0.43549,0.69754 c 1.74933,2.80205 3.90951,4.92338 6.2118,6.10019 1.05657,0.54007 2.51771,0.99948 3.86914,1.21651 0.56149,0.0901 1.04818,0.11244 2.35301,0.10774 0.90478,-0.004 1.81268,-0.0328 2.01753,-0.0656 l 0.37249,-0.0595 -0.52769,-0.17835 c -6.0941,-2.05945 -10.98242,-7.42041 -13.69988,-15.02462 -0.15314,-0.42847 -0.25503,-0.79986 -0.2265,-0.82537 0.15925,-0.14211 2.31198,-0.81251 3.65444,-1.13809 3.27529,-0.79429 6.10674,-1.1319 9.49597,-1.13226 7.322,0 14.14967,1.89088 20.08233,5.56408 3.58528,2.21981 6.85725,5.22156 9.21638,8.4553 3.13108,4.29191 4.91965,9.01143 5.37265,14.1772 0.0942,1.07469 0.0795,3.54974 -0.0276,4.66273 -0.3216,3.33718 -1.17276,6.36271 -2.64112,9.38848 -1.49413,3.07879 -3.12273,5.35487 -5.7067,7.97536 -1.35818,1.3774 -2.16585,2.09537 -3.51313,3.12281 -6.84316,5.21897 -15.67098,7.8425 -24.86233,7.3888 z m -54.69088,-78.05555 0,-4.15137 1.93993,-0.0376 c 2.29046,-0.0444 45.04623,-0.19542 45.07779,-0.15924 0.012,0.0136 0.0601,1.93164 0.10716,4.26226 l 0.0856,4.23748 -23.60524,-7e-5 -23.60523,-6e-5 0,-4.15139 z m 3.91116,-9.88407 c 0,-2.3479 0.0286,-5.30384 0.0635,-6.56878 0.0894,-3.25087 0.0902,-5.93598 0.005,-9.89254 l -0.0759,-3.43403 -0.50746,-0.52577 c -2.20349,-2.28303 -5.18075,-3.76154 -8.63968,-4.29042 -1.68191,-0.25717 -2.26514,-0.2876 -5.50798,-0.2876 l -3.14898,0 -0.16346,0.16586 c -0.11121,0.11281 -0.17349,0.25602 -0.19479,0.44779 -0.0277,0.24797 -0.008,0.30769 0.1568,0.49574 l 0.18814,0.21381 3.12461,0.0399 c 3.34222,0.0426 4.28374,0.1076 5.8739,0.40571 2.55433,0.47883 4.60168,1.41974 6.4383,2.95882 0.34142,0.28614 0.7086,0.61544 0.81593,0.73176 l 0.19515,0.21155 0.0268,2.03207 c 0.0148,1.11763 0.0219,2.03207 0.0156,2.03207 -0.006,0 -0.24926,-0.29065 -0.53996,-0.64585 -0.2907,-0.35523 -0.84776,-0.95947 -1.23789,-1.3428 -2.14831,-2.11073 -4.40599,-3.24543 -7.34571,-3.6919 -0.65489,-0.0994 -3.87205,-0.1074 -4.31442,-0.0108 l -0.27936,0.0611 0.59953,0.19802 c 4.57207,1.51022 8.60115,5.09571 11.48533,10.22083 0.56729,1.00804 0.895,1.68496 1.43417,2.96223 0.66783,1.5822 0.89678,2.26326 0.7849,2.33505 -0.11899,0.0764 -1.79541,0.63729 -2.60219,0.87065 -8.98302,2.59821 -18.73599,1.96673 -27.09711,-1.75448 -7.11636,-3.16722 -12.82078,-8.45567 -15.9749,-14.81009 -1.5264,-3.07504 -2.39185,-6.07805 -2.71487,-9.41999 -0.10917,-1.1297 -0.12315,-3.51142 -0.0268,-4.58461 0.45675,-5.09119 2.25563,-9.76157 5.39363,-14.00331 4.52721,-6.11949 11.65071,-10.69874 19.69903,-12.66321 6.79298,-1.65804 14.0898,-1.51304 20.659,0.41049 7.01232,2.0533 12.99133,5.89895 17.28655,11.11856 2.58897,3.14618 4.55909,6.94852 5.5011,10.61716 0.0851,0.33156 0.075,0.34884 0.36785,-0.63008 1.8163,-6.07182 6.13415,-11.76073 11.94971,-15.74411 5.85609,-4.01112 12.75693,-6.22992 20.19096,-6.49188 8.31362,-0.29298 16.31461,1.92061 22.82925,6.31597 6.79351,4.58347 11.37519,11.16344 12.84025,18.44041 0.37205,1.848 0.49635,3.13905 0.49742,5.16679 0,4.09518 -0.80629,7.68623 -2.56031,11.37329 -2.85128,5.99345 -7.75151,10.93462 -14.19163,14.31024 -6.65667,3.4891 -14.51467,4.92575 -22.34819,4.08588 -2.69733,-0.28923 -5.39537,-0.87027 -7.946,-1.71133 -0.68287,-0.22518 -1.26677,-0.43358 -1.29762,-0.46311 -0.16426,-0.15737 1.35004,-3.76188 2.27509,-5.41549 2.42445,-4.33385 5.49449,-7.45417 9.17831,-9.32852 0.89733,-0.45658 1.57315,-0.74343 2.38654,-1.01301 l 0.61828,-0.20492 -0.37249,-0.0611 c -0.56792,-0.0932 -3.63154,-0.0854 -4.22133,0.0108 -2.03775,0.33213 -3.53947,0.87789 -5.07423,1.84405 -1.34143,0.84448 -2.81815,2.22756 -3.92978,3.68053 l -0.28216,0.36884 0.0183,-1.83635 0.0183,-1.83638 0.34147,-0.35347 c 0.18779,-0.1944 0.57885,-0.54619 0.86906,-0.78171 2.23192,-1.81142 4.75888,-2.73682 8.44265,-3.09181 0.39263,-0.0379 2.06834,-0.0853 3.72377,-0.10533 l 3.00992,-0.0365 0.20265,-0.20573 c 0.15573,-0.15805 0.20265,-0.25964 0.20265,-0.43855 0,-0.31185 -0.19636,-0.578 -0.493,-0.66823 -0.35392,-0.10763 -5.88761,-0.0351 -7.10193,0.0932 -3.30074,0.34843 -5.69702,1.15094 -7.89358,2.64355 -0.67341,0.45759 -1.78259,1.3912 -2.30608,1.94107 l -0.38165,0.40088 -0.0406,3.24503 c -0.0286,2.27766 -0.012,4.38135 0.0552,7.05709 0.0527,2.09667 0.0961,5.8749 0.0964,8.39607 l 0,4.58397 -5.51477,0 c -3.03308,0 -7.27923,0.0189 -9.43588,0.0418 l -3.92116,0.0418 0,-15.99907 c 0,-10.47212 -0.0219,-16.07746 -0.0624,-16.22594 -0.0839,-0.30644 -0.25021,-0.44343 -0.58484,-0.48174 -0.25699,-0.0295 -0.29833,-0.0136 -0.49916,0.19018 l -0.21877,0.22227 0,16.12639 0,16.12642 -7.03032,0.0419 c -3.86674,0.023 -8.09891,0.0418 -9.40485,0.0418 l -2.37452,3e-5 0,-4.26892 z"
       id="path7073-61"
       inkscape:connector-curvature="0" />
  </g>
</svg>
