<?xml version="1.0" encoding="utf-8"?>
<!-- Generator: Adobe Illustrator 16.0.0, SVG Export Plug-In . SVG Version: 6.00 Build 0)  -->
<!DOCTYPE svg PUBLIC "-//W3C//DTD SVG 1.1//EN" "http://www.w3.org/Graphics/SVG/1.1/DTD/svg11.dtd">
<svg version="1.1" id="Layer_1" xmlns="http://www.w3.org/2000/svg" xmlns:xlink="http://www.w3.org/1999/xlink" x="0px" y="0px"
	 width="85.287px" height="62.362px" viewBox="0 0 85.287 62.362" enable-background="new 0 0 85.287 62.362" xml:space="preserve">
<rect id="Background" fill="#FFFFFF" width="85.287" height="62.362"/>
<g id="Logo">
	<g>
		<defs>
			<rect id="SVGID_1_" x="5.721" y="8.138" width="74.407" height="33.672"/>
		</defs>
		<clipPath id="SVGID_2_">
			<use xlink:href="#SVGID_1_"  overflow="visible"/>
		</clipPath>
		
			<linearGradient id="SVGID_3_" gradientUnits="userSpaceOnUse" x1="-254.9946" y1="798.7656" x2="-253.9946" y2="798.7656" gradientTransform="matrix(74.4204 0 0 -74.4204 18982.4902 59469.3945)">
			<stop  offset="0" style="stop-color:#FFF200"/>
			<stop  offset="1" style="stop-color:#00B0F0"/>
		</linearGradient>
		<rect x="5.721" y="8.138" clip-path="url(#SVGID_2_)" fill="url(#SVGID_3_)" width="74.42" height="33.672"/>
	</g>
	<g>
		<defs>
			<polygon id="SVGID_4_" points="80.128,55.394 80.128,36.963 80.126,31.417 75.993,28.84 72.368,26.787 68.305,24.603 
				63.981,22.463 59.747,20.673 56.426,19.494 53.15,18.62 48.915,18.096 47.124,18.096 46.163,18.313 45.769,18.794 45.989,19.667 
				46.731,21.633 46.731,22.769 46.076,23.948 44.59,24.909 40.834,26.044 34.108,27.792 28.78,29.364 22.389,31.419 18.735,32.726 
				17.644,33.382 17.294,33.949 17.382,34.91 17.121,35.696 15.373,36.264 10.699,36.789 5.721,36.963 5.721,55.394 			"/>
		</defs>
		<clipPath id="SVGID_5_">
			<use xlink:href="#SVGID_4_"  overflow="visible"/>
		</clipPath>
		
			<linearGradient id="SVGID_6_" gradientUnits="userSpaceOnUse" x1="-254.9937" y1="798.7656" x2="-253.9937" y2="798.7656" gradientTransform="matrix(74.4073 0 0 -74.4073 18979.1445 59470.7266)">
			<stop  offset="0" style="stop-color:#F9EC00"/>
			<stop  offset="0.99" style="stop-color:#0DB14B"/>
			<stop  offset="1" style="stop-color:#0DB14B"/>
		</linearGradient>
		<rect x="5.721" y="18.096" clip-path="url(#SVGID_5_)" fill="url(#SVGID_6_)" width="74.407" height="37.298"/>
	</g>
	<path id="Line" stroke="#000000" stroke-width="0.068" d="M0,36.992c5.792,0.05,9.641-0.012,12.207-0.214
		c9.817-0.754,2.503-2.283,7.037-3.943c10.698-3.924,18.453-5.849,22.673-6.83c12.747-2.975-4.044-9.547,10.76-7.207
		c8.805,1.396,27.855,12.339,31.294,15.887l-0.018-0.561c-3.485-3.597-22.717-14.54-31.276-15.792
		c-15.54-2.276,0.856,4.139-10.76,7.29c-4.183,1.131-12.132,2.849-22.673,6.723c-5.54,2.044,2.196,3.22-7.062,4.125
		C9.716,36.709,5.93,36.916,0,36.992z"/>
	<g id="Paalhoofden">
		<rect x="42.596" y="20.333" width="2.402" height="19.867"/>
		<rect x="38.74" y="20.333" width="1.78" height="16.805"/>
		<rect x="35.489" y="20.32" width="1.553" height="14.622"/>
		<rect x="32.667" y="20.898" width="1.302" height="12.257"/>
		<rect x="30.496" y="21.753" width="1.095" height="10.289"/>
		<rect x="28.616" y="22.823" width="0.912" height="8.578"/>
		<rect x="27.099" y="23.93" width="0.748" height="7.075"/>
		<rect x="25.899" y="24.854" width="0.635" height="5.956"/>
		<rect x="24.974" y="25.722" width="0.522" height="4.95"/>
		<rect x="24.188" y="26.646" width="0.44" height="4.157"/>
		<rect x="23.527" y="27.583" width="0.364" height="3.465"/>
		<rect x="22.93" y="28.275" width="0.321" height="2.988"/>
		<rect x="22.389" y="28.86" width="0.27" height="2.559"/>
	</g>
	<g id="Veere">
		<path d="M15.956,48.602v0.371c-0.466,0.088-0.818,0.24-1.057,0.454c-0.346,0.326-0.648,0.823-0.912,1.489L9.396,62.362H9.037
			l-4.93-11.597c-0.251-0.591-0.427-0.956-0.534-1.088c-0.157-0.208-0.359-0.365-0.597-0.478c-0.234-0.119-0.555-0.195-0.951-0.227
			v-0.371h5.371v0.371c-0.604,0.057-1,0.164-1.182,0.315c-0.183,0.151-0.271,0.352-0.271,0.585c0,0.333,0.152,0.849,0.447,1.553
			l3.346,7.88l3.107-7.785c0.301-0.767,0.453-1.302,0.453-1.598c0-0.188-0.094-0.377-0.277-0.548
			c-0.189-0.175-0.509-0.301-0.956-0.37c-0.032-0.006-0.088-0.019-0.164-0.032v-0.371H15.956z"/>
		<path d="M25.32,49.338v5.321h2.893c0.748,0,1.251-0.12,1.503-0.346c0.333-0.309,0.529-0.843,0.566-1.611h0.359v4.679h-0.359
			c-0.095-0.653-0.183-1.075-0.277-1.257c-0.113-0.233-0.302-0.416-0.572-0.541c-0.265-0.132-0.673-0.202-1.22-0.202H25.32v4.434
			c0,0.592,0.025,0.956,0.076,1.088c0.056,0.126,0.144,0.226,0.276,0.308c0.126,0.076,0.371,0.114,0.736,0.114h2.232
			c0.742,0,1.283-0.057,1.617-0.158c0.34-0.106,0.66-0.32,0.974-0.629c0.397-0.408,0.812-1.024,1.233-1.855h0.39l-1.138,3.371
			H21.577v-0.365h0.467c0.307,0,0.603-0.075,0.88-0.226c0.207-0.107,0.346-0.264,0.421-0.478c0.076-0.208,0.113-0.648,0.113-1.302
			v-8.735c0-0.856-0.088-1.384-0.252-1.579c-0.232-0.264-0.622-0.396-1.162-0.396h-0.467v-0.371h10.139l0.144,2.949h-0.377
			c-0.138-0.71-0.283-1.195-0.453-1.459c-0.163-0.264-0.409-0.465-0.729-0.603c-0.264-0.101-0.717-0.151-1.371-0.151H25.32z"/>
		<path d="M42.426,49.338l-0.006,5.321h2.892c0.749,0,1.259-0.12,1.504-0.346c0.339-0.309,0.528-0.843,0.566-1.611h0.358v4.679
			h-0.358c-0.088-0.653-0.182-1.075-0.271-1.257c-0.119-0.233-0.309-0.416-0.572-0.541c-0.265-0.132-0.68-0.202-1.228-0.202H42.42
			v4.434c0,0.592,0.031,0.956,0.082,1.088c0.05,0.126,0.144,0.226,0.27,0.308c0.126,0.076,0.377,0.114,0.736,0.114h2.233
			c0.741,0,1.287-0.057,1.621-0.158c0.333-0.106,0.66-0.32,0.97-0.629c0.396-0.408,0.811-1.024,1.232-1.855h0.39l-1.139,3.371
			H38.684v-0.365h0.466c0.308,0,0.603-0.075,0.88-0.226c0.207-0.107,0.353-0.264,0.421-0.478c0.076-0.208,0.114-0.648,0.114-1.302
			v-8.735c0-0.856-0.088-1.384-0.252-1.579c-0.232-0.264-0.623-0.396-1.163-0.396h-0.466v-0.371h10.132l0.146,2.949h-0.378
			c-0.132-0.71-0.283-1.195-0.447-1.459c-0.169-0.264-0.414-0.465-0.735-0.603c-0.258-0.101-0.717-0.151-1.371-0.151H42.426z"/>
		<path d="M61.633,49.413c0.554,0.107,1.02,0.352,1.396,0.735c0.515,0.523,0.772,1.208,0.772,2.045c0,0.861-0.319,1.572-0.962,2.126
			c-0.321,0.282-0.723,0.49-1.207,0.628c-0.472,0.139-1.013,0.201-1.629,0.201h-0.221c-0.094-0.006-0.2-0.006-0.32-0.006v-5.597
			c0.635-0.12,1.151-0.189,1.522-0.189C61.211,49.356,61.425,49.375,61.633,49.413 M61.633,48.633
			c-0.346-0.019-0.717-0.032-1.126-0.032h-4.792v0.371h0.496c0.497,0,0.875,0.145,1.127,0.434c0.176,0.208,0.271,0.736,0.271,1.579
			v8.692c0,0.767-0.07,1.251-0.202,1.458c-0.238,0.371-0.642,0.554-1.195,0.554h-0.496v0.365h5.642v-0.365H60.84
			c-0.49,0-0.861-0.145-1.105-0.44c-0.184-0.201-0.271-0.73-0.271-1.572v-3.913c0.101,0.006,0.201,0.013,0.302,0.02h0.271
			c0.208,0,0.472-0.007,0.805-0.02c0,0,0.793,1.12,0.793,1.121l3.66,5.169h3.516v-0.365c-0.717-0.075-1.303-0.264-1.749-0.554
			c-0.445-0.288-0.98-0.88-1.603-1.767l-2.717-3.861c1.105-0.252,1.924-0.679,2.453-1.289c0.527-0.603,0.792-1.321,0.792-2.151
			c0-0.774-0.233-1.44-0.698-2c-0.459-0.559-1.025-0.943-1.686-1.151C63.129,48.772,62.475,48.671,61.633,48.633"/>
		<path d="M77.758,49.338l-0.006,5.321h2.893c0.748,0,1.252-0.12,1.503-0.346c0.339-0.309,0.528-0.843,0.566-1.611h0.357v4.679
			h-0.357c-0.095-0.653-0.184-1.075-0.277-1.257c-0.113-0.233-0.302-0.416-0.565-0.541c-0.265-0.132-0.68-0.202-1.227-0.202h-2.893
			v4.434c0,0.592,0.03,0.956,0.075,1.088c0.057,0.126,0.145,0.226,0.276,0.308c0.126,0.076,0.377,0.114,0.736,0.114h2.231
			c0.743,0,1.283-0.057,1.623-0.158c0.333-0.106,0.661-0.32,0.97-0.629c0.396-0.408,0.811-1.024,1.231-1.855h0.391l-1.139,3.371
			H74.01v-0.365h0.465c0.309,0,0.604-0.075,0.881-0.226c0.207-0.107,0.347-0.264,0.421-0.478c0.076-0.208,0.114-0.648,0.114-1.302
			v-8.735c0-0.856-0.088-1.384-0.252-1.579c-0.233-0.264-0.623-0.396-1.164-0.396H74.01v-0.371h10.138l0.145,2.949h-0.377
			c-0.133-0.71-0.283-1.195-0.447-1.459c-0.169-0.264-0.414-0.465-0.735-0.603c-0.258-0.101-0.717-0.151-1.371-0.151H77.758z"/>
	</g>
	<g id="Gemeente">
		<path d="M8.597,0l0.157,1.918H8.597C8.44,1.44,8.233,1.082,7.981,0.836c-0.358-0.345-0.824-0.521-1.39-0.521
			c-0.773,0-1.358,0.308-1.761,0.918C4.491,1.748,4.327,2.365,4.327,3.075c0,0.579,0.107,1.107,0.333,1.585
			c0.221,0.478,0.516,0.824,0.881,1.044C5.9,5.931,6.271,6.037,6.654,6.037c0.226,0,0.441-0.025,0.648-0.081
			c0.207-0.057,0.415-0.145,0.603-0.252V3.95c0-0.302-0.018-0.503-0.069-0.598C7.793,3.264,7.717,3.189,7.624,3.138
			c-0.094-0.044-0.264-0.069-0.51-0.069v-0.17h2.346v0.17H9.346c-0.233,0-0.391,0.076-0.479,0.233
			C8.813,3.409,8.779,3.629,8.779,3.95v1.855c-0.346,0.188-0.678,0.32-1.012,0.408C7.435,6.301,7.056,6.346,6.648,6.346
			c-1.17,0-2.063-0.378-2.668-1.132C3.522,4.654,3.296,4,3.296,3.27c0-0.534,0.132-1.05,0.383-1.534
			C3.987,1.151,4.402,0.704,4.931,0.39C5.378,0.132,5.9,0,6.51,0c0.22,0,0.421,0.019,0.597,0.057C7.29,0.094,7.547,0.17,7.875,0.296
			c0.17,0.063,0.283,0.094,0.34,0.094c0.05,0,0.1-0.031,0.144-0.082C8.396,0.258,8.421,0.157,8.434,0H8.597z"/>
		<path d="M16.081,0.472v2.396h1.334c0.346,0,0.578-0.05,0.692-0.157c0.157-0.132,0.245-0.377,0.258-0.723h0.169v2.113h-0.169
			c-0.038-0.296-0.082-0.484-0.126-0.566c-0.05-0.107-0.138-0.189-0.258-0.252c-0.126-0.057-0.314-0.088-0.566-0.088h-1.334v2
			c0,0.271,0.013,0.434,0.039,0.491c0.024,0.056,0.062,0.107,0.125,0.138c0.057,0.032,0.17,0.05,0.339,0.05h1.026
			c0.345,0,0.591-0.025,0.748-0.069c0.157-0.05,0.302-0.144,0.447-0.283c0.182-0.182,0.377-0.465,0.566-0.836h0.182l-0.522,1.522
			h-4.673v-0.17h0.215c0.137,0,0.276-0.032,0.402-0.101c0.101-0.05,0.163-0.119,0.195-0.213c0.037-0.095,0.056-0.29,0.056-0.586
			V1.195c0-0.383-0.044-0.622-0.119-0.71c-0.107-0.12-0.29-0.177-0.534-0.177h-0.215v-0.17h4.673l0.062,1.334h-0.169
			c-0.063-0.321-0.132-0.541-0.207-0.66c-0.076-0.12-0.189-0.208-0.34-0.271c-0.12-0.044-0.334-0.069-0.628-0.069H16.081z"/>
		<path d="M28.087,6.207L25.748,1.1v4.05c0,0.378,0.037,0.61,0.119,0.698c0.107,0.126,0.283,0.189,0.522,0.189h0.214v0.17h-2.107
			v-0.17h0.214c0.258,0,0.434-0.075,0.541-0.232c0.069-0.095,0.1-0.309,0.1-0.655V1.195c0-0.271-0.031-0.466-0.088-0.585
			c-0.043-0.088-0.119-0.157-0.232-0.214c-0.108-0.063-0.29-0.088-0.535-0.088v-0.17h1.717l2.195,4.749l2.169-4.749h1.717v0.17
			H32.08c-0.257,0-0.44,0.075-0.546,0.233c-0.063,0.094-0.101,0.314-0.101,0.654V5.15c0,0.378,0.044,0.61,0.126,0.698
			c0.113,0.126,0.283,0.189,0.521,0.189h0.214v0.17h-2.578v-0.17h0.214c0.258,0,0.44-0.075,0.547-0.232
			c0.063-0.095,0.1-0.309,0.1-0.655V1.1l-2.339,5.107H28.087z"/>
		<path d="M38.98,0.472v2.396h1.333c0.346,0,0.573-0.05,0.686-0.157c0.15-0.132,0.238-0.377,0.258-0.723h0.163v2.113h-0.163
			c-0.044-0.296-0.082-0.484-0.126-0.566c-0.05-0.107-0.138-0.189-0.258-0.252c-0.12-0.057-0.308-0.088-0.56-0.088H38.98v2
			c0,0.271,0.012,0.434,0.032,0.491c0.024,0.056,0.068,0.107,0.125,0.138c0.063,0.032,0.177,0.05,0.34,0.05h1.032
			c0.338,0,0.584-0.025,0.741-0.069c0.152-0.05,0.302-0.144,0.447-0.283c0.183-0.182,0.371-0.465,0.566-0.836h0.182l-0.528,1.522
			h-4.666v-0.17h0.214c0.144,0,0.282-0.032,0.408-0.101c0.094-0.05,0.164-0.119,0.195-0.213c0.032-0.095,0.05-0.29,0.05-0.586V1.195
			c0-0.383-0.037-0.622-0.113-0.71c-0.107-0.12-0.29-0.177-0.54-0.177h-0.214v-0.17h4.666l0.069,1.334H41.81
			c-0.062-0.321-0.132-0.541-0.208-0.66c-0.075-0.12-0.188-0.208-0.333-0.271c-0.12-0.044-0.333-0.069-0.628-0.069H38.98z"/>
		<path d="M49.15,0.472l-0.007,2.396h1.333c0.347,0,0.578-0.05,0.698-0.157c0.151-0.132,0.239-0.377,0.258-0.723h0.164v2.113h-0.164
			c-0.044-0.296-0.088-0.484-0.126-0.566c-0.056-0.107-0.144-0.189-0.264-0.252c-0.12-0.057-0.308-0.088-0.566-0.088h-1.333v2
			c0,0.271,0.013,0.434,0.037,0.491c0.025,0.056,0.069,0.107,0.127,0.138c0.057,0.032,0.169,0.05,0.338,0.05h1.032
			c0.339,0,0.591-0.025,0.742-0.069c0.157-0.05,0.309-0.144,0.447-0.283c0.188-0.182,0.377-0.465,0.572-0.836h0.176l-0.522,1.522
			H47.42v-0.17h0.213c0.146,0,0.277-0.032,0.409-0.101c0.094-0.05,0.157-0.119,0.195-0.213c0.03-0.095,0.05-0.29,0.05-0.586V1.195
			c0-0.383-0.037-0.622-0.119-0.71c-0.107-0.12-0.283-0.177-0.535-0.177H47.42v-0.17h4.672l0.069,1.334h-0.176
			c-0.063-0.321-0.133-0.541-0.207-0.66c-0.076-0.12-0.189-0.208-0.341-0.271c-0.119-0.044-0.326-0.069-0.628-0.069H49.15z"/>
		<path d="M57.281,0.138h1.648l3.71,4.554V1.195c0-0.378-0.044-0.61-0.125-0.698c-0.114-0.126-0.29-0.189-0.522-0.189h-0.214v-0.17
			h2.113v0.17h-0.214c-0.258,0-0.44,0.076-0.547,0.233c-0.063,0.094-0.102,0.314-0.102,0.654v5.106h-0.157l-4-4.88v3.73
			c0,0.377,0.038,0.609,0.12,0.698c0.113,0.125,0.289,0.188,0.522,0.188h0.22v0.17h-2.113v-0.17h0.207
			c0.259,0,0.447-0.075,0.555-0.232c0.062-0.095,0.094-0.309,0.094-0.654V0.937c-0.17-0.201-0.309-0.34-0.396-0.409
			c-0.094-0.063-0.226-0.126-0.401-0.182c-0.089-0.025-0.222-0.038-0.391-0.038L57.281,0.138z"/>
		<path d="M73.897,0.138l0.068,1.428h-0.169c-0.032-0.252-0.076-0.434-0.132-0.541c-0.095-0.17-0.22-0.302-0.372-0.384
			c-0.15-0.081-0.357-0.119-0.603-0.119h-0.856v4.629c0,0.377,0.038,0.609,0.12,0.698c0.113,0.125,0.289,0.188,0.521,0.188h0.215
			v0.17h-2.573v-0.17h0.214c0.258,0,0.434-0.075,0.541-0.232c0.069-0.095,0.101-0.309,0.101-0.654V0.522h-0.729
			c-0.282,0-0.484,0.019-0.604,0.063c-0.149,0.056-0.289,0.163-0.396,0.327c-0.107,0.157-0.176,0.377-0.194,0.654h-0.171l0.07-1.428
			H73.897z"/>
		<path d="M80.69,0.472v2.396h1.325c0.347,0,0.579-0.05,0.699-0.157c0.151-0.132,0.238-0.377,0.258-0.723h0.163v2.113h-0.163
			c-0.044-0.296-0.082-0.484-0.126-0.566c-0.05-0.107-0.145-0.189-0.264-0.252c-0.12-0.057-0.309-0.088-0.567-0.088H80.69v2
			c0,0.271,0.012,0.434,0.03,0.491c0.025,0.056,0.069,0.107,0.126,0.138c0.063,0.032,0.177,0.05,0.339,0.05h1.032
			c0.339,0,0.591-0.025,0.748-0.069c0.151-0.05,0.302-0.144,0.447-0.283c0.182-0.182,0.371-0.465,0.565-0.836h0.177l-0.522,1.522
			h-4.673v-0.17h0.214c0.146,0,0.283-0.032,0.409-0.101c0.094-0.05,0.164-0.119,0.194-0.213c0.031-0.095,0.051-0.29,0.051-0.586
			V1.195c0-0.383-0.038-0.622-0.113-0.71c-0.113-0.12-0.29-0.177-0.541-0.177h-0.214v-0.17h4.673l0.069,1.334h-0.176
			c-0.063-0.321-0.134-0.541-0.207-0.66c-0.076-0.12-0.189-0.208-0.341-0.271c-0.112-0.044-0.326-0.069-0.629-0.069H80.69z"/>
	</g>
</g>
</svg>
