<?xml version="1.0" encoding="UTF-8" standalone="no"?>
<!-- Created with Inkscape (http://www.inkscape.org/) -->

<svg
   width="322.74435"
   height="216.17036"
   id="svg4547"
   version="1.1"
   inkscape:version="1.4.2 (ebf0e940, 2025-05-08)"
   sodipodi:docname="Sluis_vlag_tot_1997.svg"
   xmlns:inkscape="http://www.inkscape.org/namespaces/inkscape"
   xmlns:sodipodi="http://sodipodi.sourceforge.net/DTD/sodipodi-0.dtd"
   xmlns="http://www.w3.org/2000/svg"
   xmlns:svg="http://www.w3.org/2000/svg"
   xmlns:rdf="http://www.w3.org/1999/02/22-rdf-syntax-ns#"
   xmlns:cc="http://creativecommons.org/ns#"
   xmlns:dc="http://purl.org/dc/elements/1.1/">
  <defs
     id="defs4549" />
  <sodipodi:namedview
     id="base"
     pagecolor="#ffffff"
     bordercolor="#666666"
     borderopacity="1.0"
     inkscape:pageopacity="0.0"
     inkscape:pageshadow="2"
     inkscape:zoom="1.4514071"
     inkscape:cx="146.75413"
     inkscape:cy="111.96031"
     inkscape:document-units="px"
     inkscape:current-layer="layer1"
     showgrid="false"
     fit-margin-top="0"
     fit-margin-left="0"
     fit-margin-right="0"
     fit-margin-bottom="0"
     inkscape:window-width="1440"
     inkscape:window-height="872"
     inkscape:window-x="0"
     inkscape:window-y="28"
     inkscape:window-maximized="0"
     inkscape:showpageshadow="0"
     inkscape:pagecheckerboard="0"
     inkscape:deskcolor="#d1d1d1" />
  <metadata
     id="metadata4552">
    <rdf:RDF>
      <cc:Work
         rdf:about="">
        <dc:format>image/svg+xml</dc:format>
        <dc:type
           rdf:resource="http://purl.org/dc/dcmitype/StillImage" />
        <dc:title />
      </cc:Work>
    </rdf:RDF>
  </metadata>
  <g
     inkscape:label="Laag 1"
     inkscape:groupmode="layer"
     id="layer1"
     transform="translate(-121.48496,-275.70557)">
    <rect
       style="fill:#ffffff;fill-opacity:1;stroke:none"
       id="rect4480"
       width="322.74374"
       height="108.08632"
       x="121.48557"
       y="275.70557" />
    <rect
       style="fill:#d40000;fill-opacity:1;stroke:none"
       id="rect4480-5"
       width="322.74374"
       height="108.08632"
       x="121.48496"
       y="383.78961" />
    <path
       inkscape:connector-curvature="0"
       style="fill:#d40000;fill-opacity:1;stroke:#000000;stroke-width:0.53135026px;stroke-linecap:butt;stroke-linejoin:miter;stroke-opacity:0"
       d="m 283.29376,328.18355 -46.0709,0 0,94.2965 c -0.1518,5.36981 4.4966,9.87961 10.2574,9.39048 l 12.9652,0 12.0243,0 c 4.4772,0.27451 8.7757,1.0553 10.824,8.21671 l 0,-111.90369 z"
       id="path2830-4-2-3"
       sodipodi:nodetypes="cccccccc" />
    <path
       inkscape:connector-curvature="0"
       style="fill:#d40000;fill-opacity:1;stroke:#000000;stroke-width:0.53135026px;stroke-linecap:butt;stroke-linejoin:miter;stroke-opacity:0"
       d="m 283.27596,328.16135 46.071,0 0,94.29647 c 0.1517,5.36981 -4.4967,9.87961 -10.2576,9.39052 l -12.9652,0 -12.0243,0 c -4.4771,0.27447 -8.7756,1.05531 -10.8239,8.21672 -8.6917,-39.59803 -6.0925,-76.21238 0,-111.90371 z"
       id="path2830-5-4-3-4"
       sodipodi:nodetypes="cccccccc" />
    <path
       inkscape:connector-curvature="0"
       id="path3104-0"
       d="m 248.50746,364.96235 c -1.0328,-0.0158 -2.1856,-0.17222 -3.2562,-0.4425 -0.7502,-0.18943 -1.3122,-0.37329 -2.2462,-0.7349 -1.4214,-0.55046 -2.6509,-0.8957 -3.9043,-1.09647 -0.6036,-0.0966 -1.3939,-0.17297 -1.7912,-0.17297 l -0.093,0 0,-6.10688 0,-6.10694 0.058,0.005 c 0.032,0.005 0.146,0.0108 0.2538,0.0182 1.3267,0.0905 2.8317,0.39523 4.432,0.89738 0.4885,0.15325 1.0829,0.35831 1.404,0.48425 3.4405,1.34944 6.6816,1.46488 9.8167,0.34954 0.3318,-0.11801 0.5559,-0.20846 1.1301,-0.45616 0.3397,-0.1465 0.7015,-0.29926 0.804,-0.33938 1.0778,-0.42234 2.1064,-0.69951 3.1527,-0.84951 1.4128,-0.20255 2.8271,-0.15034 4.2043,0.15527 0.9021,0.20018 1.8564,0.5334 2.7186,0.94933 0.6509,0.31414 1.5156,0.6342 2.3114,0.85582 1.0086,0.28077 1.972,0.43565 2.9847,0.47982 0.2885,0.0128 0.9912,0.005 1.2564,-0.0133 1.2324,-0.0853 2.345,-0.31996 3.5325,-0.74496 0.4688,-0.16775 1.0332,-0.40736 1.2845,-0.54533 0.1953,-0.10716 0.4212,-0.22147 0.615,-0.31128 0.069,-0.032 0.1573,-0.0757 0.1959,-0.0971 0.6593,-0.36363 1.3545,-0.6515 2.0552,-0.85094 2.1125,-0.60132 4.5104,-0.52241 7.3716,0.24267 0.7867,0.21033 1.7889,0.53477 2.4567,0.79534 1.3715,0.53507 2.675,0.85518 3.9602,0.97254 0.4872,0.0444 1.1871,0.06 1.6181,0.036 0.9344,-0.0523 1.744,-0.18456 2.6481,-0.43284 0.7536,-0.20684 1.4435,-0.45887 2.3422,-0.85538 0.149,-0.0658 0.3613,-0.15685 0.4718,-0.2025 1.2842,-0.53058 2.6369,-0.86504 3.9647,-0.98033 0.443,-0.0385 0.6322,-0.0463 1.1206,-0.0463 0.5742,0 0.9134,0.0182 1.4371,0.0771 1.4341,0.16123 2.9019,0.58707 4.221,1.22478 0.514,0.24848 1.27,0.54138 1.8843,0.73007 1.1229,0.34485 2.1205,0.52803 3.2562,0.59787 0.2341,0.0143 1.0654,0.0143 1.2964,0 0.9451,-0.0592 1.7366,-0.18928 2.6381,-0.43372 0.7692,-0.20846 1.8119,-0.60118 2.2813,-0.85918 1.9178,-1.05388 4.0156,-1.43195 6.3215,-1.13925 0.1881,0.0242 0.6069,0.0879 0.6198,0.0948 0,0.005 0.01,2.75827 0.01,6.12423 l 0,6.11985 -0.023,-0.005 c -0.047,-0.009 -0.2593,-0.0404 -0.4195,-0.0613 -0.9207,-0.11855 -1.8713,-0.13191 -2.7386,-0.0385 -1.3199,0.14206 -2.541,0.50762 -3.7637,1.12674 -0.4167,0.21097 -1.0206,0.43979 -1.6483,0.62449 -1.3711,0.40346 -2.8742,0.5572 -4.452,0.45531 -1.4503,-0.0937 -2.9453,-0.38113 -4.6883,-0.90146 -0.3095,-0.0924 -0.3437,-0.1047 -0.5126,-0.18446 -1.4962,-0.707 -2.9921,-1.12767 -4.4621,-1.25479 -0.5683,-0.0493 -1.2258,-0.052 -1.804,-0.008 -1.4865,0.11347 -3.0157,0.53507 -4.5581,1.25662 -0.4901,0.22926 -1.2808,0.50698 -1.9967,0.70114 -0.3878,0.10519 -0.8572,0.21255 -1.1987,0.27407 -0.077,0.0138 -0.2334,0.0511 -0.3467,0.0826 -2.5151,0.69947 -5.134,0.68054 -7.8775,-0.0569 -0.6059,-0.16286 -1.3594,-0.40903 -1.7755,-0.57993 -2.6517,-1.08952 -5.1883,-1.44073 -7.4821,-1.03603 -1.052,0.18558 -2.0981,0.53896 -3.0501,1.03012 -0.2911,0.15014 -0.8285,0.36363 -1.2864,0.51101 -1.0083,0.3245 -1.9288,0.49717 -3.0452,0.57126 -0.2782,0.0182 -1.0616,0.0261 -1.3617,0.0133 -1.6,-0.0683 -3.1942,-0.35673 -5.0668,-0.91665 -0.3062,-0.0916 -0.3732,-0.1148 -0.4858,-0.16868 -0.3685,-0.17622 -0.8261,-0.37039 -1.211,-0.51383 -2.9732,-1.10805 -5.8211,-1.0697 -8.8088,0.11875 -0.2364,0.0941 -0.6395,0.26835 -0.8542,0.3694 -0.4161,0.19584 -1.0844,0.43668 -1.7517,0.63149 -1.1967,0.34914 -2.4494,0.54458 -3.5948,0.56095 -0.1604,0.005 -0.3277,0.005 -0.3719,0.006 -0.044,0 -0.1347,0 -0.201,0 z"
       style="fill:#ffffff;fill-opacity:1" />
    <path
       inkscape:connector-curvature="0"
       id="path3104-0-5"
       d="m 248.50746,405.39024 c -1.0328,-0.0153 -2.1857,-0.17223 -3.2562,-0.4425 -0.7502,-0.18938 -1.3122,-0.37324 -2.2462,-0.73486 -1.4214,-0.55045 -2.6509,-0.89569 -3.9043,-1.09646 -0.6037,-0.0967 -1.3939,-0.17297 -1.7913,-0.17297 l -0.093,0 0,-6.10694 0,-6.10693 0.058,0.005 c 0.032,0.005 0.146,0.0109 0.2538,0.0182 1.3266,0.0905 2.8317,0.39528 4.432,0.89738 0.4885,0.15325 1.0829,0.3583 1.404,0.48425 3.4405,1.34949 6.6816,1.46493 9.8167,0.34953 0.3318,-0.118 0.5558,-0.20841 1.1301,-0.4561 0.3397,-0.1465 0.7015,-0.29926 0.804,-0.33938 1.0778,-0.42235 2.1063,-0.69952 3.1526,-0.84952 1.4128,-0.20259 2.8271,-0.15034 4.2044,0.15523 0.9021,0.20017 1.8564,0.53344 2.7185,0.94938 0.651,0.31409 1.5156,0.63415 2.3115,0.85582 1.0085,0.28072 1.972,0.43565 2.9847,0.47981 0.2885,0.0128 0.9912,0.005 1.2564,-0.0133 1.2323,-0.0853 2.345,-0.31996 3.5325,-0.74496 0.4688,-0.16774 1.0331,-0.4074 1.2845,-0.54537 0.1953,-0.10717 0.4211,-0.22143 0.615,-0.31129 0.069,-0.032 0.1572,-0.0757 0.1959,-0.097 0.6593,-0.36359 1.3545,-0.65151 2.0552,-0.8509 2.1125,-0.60137 4.5104,-0.5224 7.3716,0.24267 0.7866,0.21033 1.7889,0.53478 2.4567,0.79534 1.3715,0.53507 2.6749,0.85518 3.9602,0.97255 0.4872,0.0444 1.1871,0.06 1.6181,0.036 0.9344,-0.0522 1.744,-0.1845 2.6481,-0.43274 0.7535,-0.20688 1.4435,-0.45892 2.3422,-0.85543 0.149,-0.0657 0.3613,-0.15685 0.4718,-0.20254 1.2842,-0.53059 2.6368,-0.86504 3.9647,-0.98029 0.4429,-0.0384 0.6322,-0.0463 1.1205,-0.0463 0.5742,0 0.9134,0.0182 1.4372,0.0771 1.434,0.16124 2.9018,0.58713 4.221,1.22478 0.514,0.24848 1.27,0.54138 1.8843,0.73008 1.1229,0.34485 2.1205,0.52807 3.2562,0.59787 0.2341,0.0143 1.0654,0.0143 1.2964,0 0.9451,-0.0592 1.7365,-0.18929 2.6381,-0.43373 0.7692,-0.20846 1.8119,-0.60113 2.2813,-0.85917 1.9178,-1.05388 4.0156,-1.43196 6.3215,-1.13921 0.1881,0.0242 0.6068,0.0879 0.6198,0.0947 0,0.005 0.01,2.75828 0.01,6.12424 l 0,6.11984 -0.022,-0.005 c -0.047,-0.009 -0.2594,-0.0404 -0.4196,-0.0613 -0.9206,-0.11854 -1.8713,-0.13185 -2.7386,-0.0384 -1.3198,0.14211 -2.5409,0.50761 -3.7637,1.12673 -0.4166,0.21097 -1.0206,0.43979 -1.6482,0.62449 -1.3712,0.40351 -2.8743,0.55721 -4.4521,0.45532 -1.4502,-0.0937 -2.9453,-0.38113 -4.6883,-0.90142 -0.3094,-0.0924 -0.3437,-0.10475 -0.5125,-0.1845 -1.4962,-0.70696 -2.9922,-1.12767 -4.4622,-1.2548 -0.5683,-0.0493 -1.2258,-0.052 -1.804,-0.008 -1.4864,0.11348 -3.0157,0.53513 -4.5581,1.25663 -0.49,0.22926 -1.2808,0.50697 -1.9966,0.70119 -0.3879,0.10519 -0.8573,0.2125 -1.1988,0.27406 -0.077,0.0138 -0.2334,0.0511 -0.3467,0.0826 -2.5151,0.69941 -5.134,0.68048 -7.8774,-0.057 -0.6059,-0.16287 -1.3595,-0.40904 -1.7755,-0.57993 -2.6518,-1.08952 -5.1884,-1.44073 -7.4822,-1.03599 -1.0519,0.18559 -2.0981,0.53892 -3.0501,1.03007 -0.2911,0.1502 -0.8284,0.36368 -1.2864,0.51102 -1.0083,0.32454 -1.9288,0.49722 -3.0451,0.5713 -0.2782,0.0182 -1.0617,0.0261 -1.3618,0.0133 -1.6,-0.0684 -3.1941,-0.35678 -5.0667,-0.9167 -0.3063,-0.0916 -0.3732,-0.1148 -0.4859,-0.16868 -0.3685,-0.17622 -0.8261,-0.37033 -1.211,-0.51382 -2.9732,-1.10806 -5.8211,-1.06966 -8.8088,0.11879 -0.2364,0.0941 -0.6394,0.26835 -0.8542,0.3694 -0.416,0.19579 -1.0843,0.43669 -1.7517,0.63144 -1.1967,0.34914 -2.4494,0.54464 -3.5948,0.56095 -0.1603,0.005 -0.3277,0.005 -0.3719,0.006 -0.044,0 -0.1347,0 -0.201,0 z"
       style="fill:#ffffff;fill-opacity:1" />
    <path
       style="fill:none;stroke:#000000;stroke-width:0.89999998;stroke-miterlimit:4;stroke-opacity:1;stroke-dasharray:none"
       d="m 283.08136,439.43362 c -0.4544,-1.55204 -1.3347,-3.25663 -2.2589,-4.37385 -1.2349,-1.49278 -3.1211,-2.5513 -5.2649,-2.95466 -1.5988,-0.30083 -0.8692,-0.28585 -15.9972,-0.32873 -14.1908,-0.0404 -14.2599,-0.0409 -14.8682,-0.17958 -2.0159,-0.45901 -3.5316,-1.30054 -4.8995,-2.72027 -1.5416,-1.59994 -2.3453,-3.33579 -2.5405,-5.48693 -0.049,-0.53906 -0.064,-14.47157 -0.05,-48.01168 l 0.019,-47.25218 46.0335,-0.0166 46.0334,-0.0166 -0.019,47.76404 c -0.018,44.62187 -0.026,47.79948 -0.1268,48.30227 -0.7667,3.82053 -3.6103,6.64486 -7.4689,7.41841 -0.6904,0.13842 -0.7294,0.13881 -14.122,0.13482 -14.1925,-0.005 -14.5456,0.005 -16.2301,0.30014 -2.9187,0.51615 -4.8974,1.74014 -6.3122,3.90463 -0.6766,1.03515 -1.0357,1.79638 -1.5176,3.21734 l -0.2667,0.78637 -0.1426,-0.48701 z"
       id="path3680"
       inkscape:connector-curvature="0" />
  </g>
</svg>
