<?xml version="1.0" encoding="UTF-8" standalone="no"?>
<!-- Created with Inkscape (http://www.inkscape.org/) -->
<svg
   xmlns:dc="http://purl.org/dc/elements/1.1/"
   xmlns:cc="http://web.resource.org/cc/"
   xmlns:rdf="http://www.w3.org/1999/02/22-rdf-syntax-ns#"
   xmlns:svg="http://www.w3.org/2000/svg"
   xmlns="http://www.w3.org/2000/svg"
   xmlns:xlink="http://www.w3.org/1999/xlink"
   xmlns:sodipodi="http://sodipodi.sourceforge.net/DTD/sodipodi-0.dtd"
   xmlns:inkscape="http://www.inkscape.org/namespaces/inkscape"
   id="svg2686"
   sodipodi:version="0.32"
   inkscape:version="0.45.1"
   width="600"
   height="400"
   version="1.0"
   sodipodi:docbase="C:\TIIKERI\Liput\Alankomaat\provinssit\Zuid-Holland - kunnat\svg"
   sodipodi:docname="Oegstgeest.svg"
   inkscape:output_extension="org.inkscape.output.svg.inkscape">
  <metadata
     id="metadata2691">
    <rdf:RDF>
      <cc:Work
         rdf:about="">
        <dc:format>image/svg+xml</dc:format>
        <dc:type
           rdf:resource="http://purl.org/dc/dcmitype/StillImage" />
      </cc:Work>
    </rdf:RDF>
  </metadata>
  <defs
     id="defs2689" />
  <sodipodi:namedview
     inkscape:window-height="712"
     inkscape:window-width="1024"
     inkscape:pageshadow="2"
     inkscape:pageopacity="0.0"
     guidetolerance="10.0"
     gridtolerance="10.0"
     objecttolerance="10.0"
     borderopacity="1.0"
     bordercolor="#666666"
     pagecolor="#ffffff"
     id="base"
     showguides="true"
     inkscape:guide-bbox="true"
     inkscape:zoom="0.74715638"
     inkscape:cx="144.93025"
     inkscape:cy="101.59365"
     inkscape:window-x="-4"
     inkscape:window-y="-4"
     inkscape:current-layer="svg2686"
     width="600px"
     height="400px">
    <sodipodi:guide
       orientation="horizontal"
       position="166.15385"
       id="guide2771" />
    <sodipodi:guide
       orientation="vertical"
       position="58.72679"
       id="guide2773" />
    <sodipodi:guide
       orientation="vertical"
       position="211.03448"
       id="guide2775" />
    <sodipodi:guide
       orientation="horizontal"
       position="14.323607"
       id="guide2777" />
  </sodipodi:namedview>
  <g
     id="g5735"
     transform="matrix(2.2222222,0,0,2.2222222,3e-6,2e-6)">
    <rect
       inkscape:export-ydpi="266.67001"
       inkscape:export-xdpi="266.67001"
       inkscape:export-filename="C:\TIIKERI\Liput\Alankomaat\provinssit\Zuid-Holland - kunnat\svg\Oegstgeest.png"
       y="0"
       x="0"
       height="180"
       width="270"
       id="rect2779"
       style="opacity:1;fill:#fccc00;fill-opacity:1;stroke:none;stroke-opacity:1" />
    <g
       inkscape:export-ydpi="266.67001"
       inkscape:export-xdpi="266.67001"
       inkscape:export-filename="C:\TIIKERI\Liput\Alankomaat\provinssit\Zuid-Holland - kunnat\svg\Oegstgeest.png"
       transform="matrix(0.968835,0,0,0.968835,-9.0003584,5.4020263)"
       id="g5723">
      <line
         y2="87.319275"
         y1="87.319275"
         style="fill:#cc112f;fill-opacity:1;stroke:#cc112f;stroke-width:32.6487999;stroke-opacity:1"
         id="line10089"
         x2="210.66521"
         x1="86.599777" />
      <line
         x2="148.63249"
         x1="148.63249"
         style="fill:#cc112f;fill-opacity:1;stroke:#cc112f;stroke-width:32.6487999;stroke-opacity:1"
         id="line10091"
         y2="149.35199"
         y1="25.286562" />
      <path
         style="fill:#cc112f;fill-opacity:1;stroke:none;stroke-width:0.30000001"
         d="M 210.66521,87.319278 C 219.68092,87.319278 226.98961,94.62796 226.98961,103.64368 C 226.98961,112.65939 219.68092,119.96808 210.66521,119.96808 C 215.17306,119.96808 218.82741,116.31374 218.82741,111.80588 C 218.82741,107.29802 215.17306,103.64368 210.66521,103.64368 L 164.95689,103.64368"
         id="hook" />
      <use
         style="fill:#cc112f;fill-opacity:1"
         height="120"
         width="180"
         y="0"
         x="0"
         id="use10095"
         xlink:href="#hook"
         transform="matrix(1,0,0,-1,0,174.63856)" />
      <use
         style="fill:#cc112f;fill-opacity:1"
         height="120"
         width="180"
         y="0"
         x="0"
         id="use10097"
         xlink:href="#hook"
         transform="matrix(-1,0,0,1,297.26498,0)" />
      <use
         style="fill:#cc112f;fill-opacity:1"
         height="120"
         width="180"
         y="0"
         x="0"
         id="use10099"
         xlink:href="#hook"
         transform="matrix(-1,0,0,-1,297.26498,174.63856)" />
      <path
         id="path11124"
         d="M 148.63249,149.35199 C 148.63249,158.36771 141.32381,165.67639 132.30809,165.67639 C 123.29238,165.67639 115.98369,158.36771 115.98369,149.35199 C 115.98369,153.85985 119.63803,157.51419 124.14589,157.51419 C 128.65375,157.51419 132.30809,153.85985 132.30809,149.35199 L 132.30809,103.64368"
         style="fill:#cc112f;fill-opacity:1;stroke:none;stroke-width:0.30000001" />
      <use
         style="fill:#cc112f;fill-opacity:1"
         transform="matrix(0,1,1,0,61.313212,-61.313212)"
         xlink:href="#hook"
         id="use11126"
         x="0"
         y="0"
         width="180"
         height="120" />
      <use
         style="fill:#cc112f;fill-opacity:1"
         transform="matrix(0,-1,-1,0,235.95177,235.95177)"
         xlink:href="#hook"
         id="use11128"
         x="0"
         y="0"
         width="180"
         height="120" />
      <use
         style="fill:#cc112f;fill-opacity:1"
         transform="matrix(0,-1,1,0,61.313212,235.95177)"
         xlink:href="#hook"
         id="use11130"
         x="0"
         y="0"
         width="180"
         height="120" />
    </g>
  </g>
</svg>
