<?xml version="1.0" encoding="UTF-8" standalone="no"?>
<!-- Created with Inkscape (http://www.inkscape.org/) -->

<svg
   xmlns:dc="http://purl.org/dc/elements/1.1/"
   xmlns:cc="http://creativecommons.org/ns#"
   xmlns:rdf="http://www.w3.org/1999/02/22-rdf-syntax-ns#"
   xmlns:svg="http://www.w3.org/2000/svg"
   xmlns="http://www.w3.org/2000/svg"
   xmlns:sodipodi="http://sodipodi.sourceforge.net/DTD/sodipodi-0.dtd"
   xmlns:inkscape="http://www.inkscape.org/namespaces/inkscape"
   width="488.5715"
   height="327.14279"
   id="svg14982"
   version="1.1"
   inkscape:version="0.48.4 r9939"
   sodipodi:docname="Nieuw document 60">
  <defs
     id="defs14984" />
  <sodipodi:namedview
     id="base"
     pagecolor="#ffffff"
     bordercolor="#666666"
     borderopacity="1.0"
     inkscape:pageopacity="0.0"
     inkscape:pageshadow="2"
     inkscape:zoom="0.35"
     inkscape:cx="350.71432"
     inkscape:cy="-7.8571777"
     inkscape:document-units="px"
     inkscape:current-layer="layer1"
     showgrid="false"
     fit-margin-top="0"
     fit-margin-left="0"
     fit-margin-right="0"
     fit-margin-bottom="0"
     inkscape:window-width="1600"
     inkscape:window-height="837"
     inkscape:window-x="-8"
     inkscape:window-y="-8"
     inkscape:window-maximized="1" />
  <metadata
     id="metadata14987">
    <rdf:RDF>
      <cc:Work
         rdf:about="">
        <dc:format>image/svg+xml</dc:format>
        <dc:type
           rdf:resource="http://purl.org/dc/dcmitype/StillImage" />
        <dc:title></dc:title>
      </cc:Work>
    </rdf:RDF>
  </metadata>
  <g
     inkscape:label="Laag 1"
     inkscape:groupmode="layer"
     id="layer1"
     transform="translate(-24.285677,-197.36221)">
    <rect
       style="fill:#0e44af;fill-opacity:1;fill-rule:evenodd;stroke:none"
       id="rect14859"
       width="488.5715"
       height="327.14279"
       x="24.285677"
       y="197.36221" />
    <rect
       style="fill:#ffffff;fill-opacity:1;fill-rule:evenodd;stroke:none"
       id="rect14861"
       width="488.5715"
       height="64.285698"
       x="24.285677"
       y="262.36221" />
    <rect
       style="fill:#ffffff;fill-opacity:1;fill-rule:evenodd;stroke:none"
       id="rect14863"
       width="488.5715"
       height="66.428497"
       x="24.285677"
       y="393.07657" />
    <path
       inkscape:connector-curvature="0"
       id="path20827-7-1-9-9-4-2-8"
       d="m 265.46849,390.70171 c -6.2265,-0.5799 -11.5805,-2.8076 -15.8286,-6.5861 -4.5931,-4.0853 -7.4518,-9.2651 -8.6608,-15.6928 l -0.2248,-1.1955 -0.031,-18.1661 -0.031,-18.1662 14.0035,0 14.0032,0 0.044,0.2126 0.044,0.2126 0.014,-0.2126 0.014,-0.2126 13.9567,0 13.9568,0 0,17.6664 c 0,17.0023 -0.01,17.7208 -0.2024,19.1112 -0.8265,5.9069 -3.5931,11.489 -7.6706,15.4767 -4.1997,4.1075 -9.2212,6.5091 -15.4345,7.3822 -1.5589,0.2191 -6.3319,0.3213 -7.9536,0.1702 z"
       style="fill:#0e44af;fill-opacity:1;stroke:none" />
    <path
       style="fill:#ffffff"
       d="m 264.23199,390.50131 c -6.9654,-0.9335 -12.6683,-3.9047 -16.9949,-8.8541 -3.1242,-3.5741 -5.0737,-7.605 -6.1477,-12.7116 l -0.3332,-1.5844 -0.032,-13.2409 -0.032,-13.2409 0.2663,0.2149 c 0.1464,0.1182 10.9369,9.6378 23.9789,21.1548 l 23.7127,20.94 -0.6533,0.6244 c -4.0192,3.8412 -10.1694,6.4053 -16.301,6.7964 -2.4584,0.1568 -5.8977,0.1113 -7.4646,-0.099 z m 7.4951,-38.8059 -23.4549,-20.7188 10.1512,-0.025 c 8.0566,-0.02 10.1671,0 10.2286,0.098 0.062,0.098 0.078,0.098 0.079,0 0,-0.098 2.8564,-0.123 13.9482,-0.123 l 13.9468,0 0,17.3271 c 0,10.3567 -0.039,17.7819 -0.096,18.4576 -0.1598,1.9131 -0.9996,5.702 -1.2639,5.702 -0.045,0 -10.6374,-9.3235 -23.5375,-20.7188 z"
       id="path14887-8"
       inkscape:connector-curvature="0" />
    <path
       inkscape:connector-curvature="0"
       id="path20827-7-1-9-9-4-2-7-5"
       d="m 265.32919,390.80101 c -6.2265,-0.5798 -11.5806,-2.8075 -15.8287,-6.5861 -4.5931,-4.0853 -7.4518,-9.2651 -8.6608,-15.6928 l -0.2247,-1.1956 -0.031,-18.1661 -0.031,-18.1662 14.0035,0 14.0032,0 0.044,0.2127 0.045,0.2126 0.014,-0.2126 0.014,-0.2127 13.9567,0 13.9567,0 0,17.6665 c 0,17.0023 -0.01,17.7208 -0.2023,19.1111 -0.8267,5.907 -3.5932,11.489 -7.6707,15.4768 -4.1997,4.1074 -9.2212,6.5092 -15.4345,7.3823 -1.559,0.219 -6.3319,0.3211 -7.9535,0.1701 z"
       style="fill:none;stroke:#000000;stroke-width:0.49851552;stroke-miterlimit:4;stroke-opacity:1;stroke-dasharray:none" />
  </g>
</svg>
