<?xml version="1.0" encoding="UTF-8" standalone="no"?>
<!-- Created with Inkscape (http://www.inkscape.org/) -->

<svg
   width="325.78131"
   height="216.79691"
   id="svg13539"
   version="1.1"
   inkscape:version="1.4.2 (ebf0e940, 2025-05-08)"
   sodipodi:docname="Vierpolders_vlag.svg"
   xmlns:inkscape="http://www.inkscape.org/namespaces/inkscape"
   xmlns:sodipodi="http://sodipodi.sourceforge.net/DTD/sodipodi-0.dtd"
   xmlns="http://www.w3.org/2000/svg"
   xmlns:svg="http://www.w3.org/2000/svg"
   xmlns:rdf="http://www.w3.org/1999/02/22-rdf-syntax-ns#"
   xmlns:cc="http://creativecommons.org/ns#"
   xmlns:dc="http://purl.org/dc/elements/1.1/">
  <defs
     id="defs13541" />
  <sodipodi:namedview
     id="base"
     pagecolor="#ffffff"
     bordercolor="#666666"
     borderopacity="1.0"
     inkscape:pageopacity="0.0"
     inkscape:pageshadow="2"
     inkscape:zoom="1.2995429"
     inkscape:cx="121.58122"
     inkscape:cy="210.45862"
     inkscape:document-units="px"
     inkscape:current-layer="layer1"
     showgrid="false"
     fit-margin-top="0"
     fit-margin-left="0"
     fit-margin-right="0"
     fit-margin-bottom="0"
     inkscape:window-width="1440"
     inkscape:window-height="872"
     inkscape:window-x="0"
     inkscape:window-y="28"
     inkscape:window-maximized="0"
     inkscape:showpageshadow="0"
     inkscape:pagecheckerboard="0"
     inkscape:deskcolor="#d1d1d1" />
  <metadata
     id="metadata13544">
    <rdf:RDF>
      <cc:Work
         rdf:about="">
        <dc:format>image/svg+xml</dc:format>
        <dc:type
           rdf:resource="http://purl.org/dc/dcmitype/StillImage" />
        <dc:title />
      </cc:Work>
    </rdf:RDF>
  </metadata>
  <g
     inkscape:label="Laag 1"
     inkscape:groupmode="layer"
     id="layer1"
     transform="translate(-108.53792,-255.3923)">
    <rect
       style="fill:#ffffff;fill-opacity:1;fill-rule:evenodd;stroke:none"
       id="rect13186"
       width="325.78131"
       height="216.79691"
       x="108.53792"
       y="255.3923" />
    <rect
       style="fill:#da1119;fill-opacity:1;fill-rule:evenodd;stroke:none"
       id="rect13188"
       width="82.031197"
       height="216.79691"
       x="270.25671"
       y="255.3923" />
    <rect
       style="fill:#da1119;fill-opacity:1;fill-rule:evenodd;stroke:none"
       id="rect13190"
       width="81.25"
       height="216.79691"
       x="108.53792"
       y="255.3923" />
    <path
       transform="translate(-744.58708,-4418.845)"
       sodipodi:type="arc"
       style="fill:#fcdd04;fill-opacity:1;fill-rule:evenodd;stroke:none"
       id="path13192"
       sodipodi:cx="865.96411"
       sodipodi:cy="4718.0273"
       sodipodi:rx="6.8708129"
       sodipodi:ry="6.8017597"
       d="m 872.83492,4718.0273 c 0,3.7566 -3.07616,6.8018 -6.87081,6.8018 -3.79464,0 -6.87081,-3.0452 -6.87081,-6.8018 0,-3.7565 3.07617,-6.8017 6.87081,-6.8017 3.79465,0 6.87081,3.0452 6.87081,6.8017 z" />
    <rect
       style="fill:#ffffff;fill-opacity:1;fill-rule:evenodd;stroke:none"
       id="rect13194"
       width="6.8708129"
       height="2.9347694"
       x="117.64815"
       y="297.76682" />
    <rect
       style="fill:#ffffff;fill-opacity:1;fill-rule:evenodd;stroke:none"
       id="rect13194-8"
       width="6.8708129"
       height="2.9347694"
       x="295.81564"
       y="-122.55092"
       transform="matrix(0,1,-1,0,0,0)" />
    <path
       transform="translate(-686.47863,-4418.6034)"
       sodipodi:type="arc"
       style="fill:#fcdd04;fill-opacity:1;fill-rule:evenodd;stroke:none"
       id="path13192-4"
       sodipodi:cx="865.96411"
       sodipodi:cy="4718.0273"
       sodipodi:rx="6.8708129"
       sodipodi:ry="6.8017597"
       d="m 872.83492,4718.0273 c 0,3.7566 -3.07616,6.8018 -6.87081,6.8018 -3.79464,0 -6.87081,-3.0452 -6.87081,-6.8018 0,-3.7565 3.07617,-6.8017 6.87081,-6.8017 3.79465,0 6.87081,3.0452 6.87081,6.8017 z" />
    <rect
       style="fill:#ffffff;fill-opacity:1;fill-rule:evenodd;stroke:none"
       id="rect13194-1"
       width="6.8708129"
       height="2.9347694"
       x="175.75661"
       y="298.00851" />
    <rect
       style="fill:#ffffff;fill-opacity:1;fill-rule:evenodd;stroke:none"
       id="rect13194-8-8"
       width="6.8708129"
       height="2.9347694"
       x="296.05734"
       y="-180.65938"
       transform="matrix(0,1,-1,0,0,0)" />
    <path
       transform="translate(-715.48106,-4438.767)"
       sodipodi:type="arc"
       style="fill:#fcdd04;fill-opacity:1;fill-rule:evenodd;stroke:none"
       id="path13192-3"
       sodipodi:cx="865.96411"
       sodipodi:cy="4718.0273"
       sodipodi:rx="6.8708129"
       sodipodi:ry="6.8017597"
       d="m 872.83492,4718.0273 c 0,3.7566 -3.07616,6.8018 -6.87081,6.8018 -3.79464,0 -6.87081,-3.0452 -6.87081,-6.8018 0,-3.7565 3.07617,-6.8017 6.87081,-6.8017 3.79465,0 6.87081,3.0452 6.87081,6.8017 z" />
    <rect
       style="fill:#ffffff;fill-opacity:1;fill-rule:evenodd;stroke:none"
       id="rect13194-7"
       width="6.8708129"
       height="2.9347694"
       x="146.75417"
       y="277.84494" />
    <rect
       style="fill:#ffffff;fill-opacity:1;fill-rule:evenodd;stroke:none"
       id="rect13194-8-5"
       width="6.8708129"
       height="2.9347694"
       x="275.89377"
       y="-151.65694"
       transform="matrix(0,1,-1,0,0,0)" />
    <path
       transform="translate(-744.62159,-4385.0435)"
       sodipodi:type="arc"
       style="fill:#fcdd04;fill-opacity:1;fill-rule:evenodd;stroke:none"
       id="path13192-8"
       sodipodi:cx="865.96411"
       sodipodi:cy="4718.0273"
       sodipodi:rx="6.8708129"
       sodipodi:ry="6.8017597"
       d="m 872.83492,4718.0273 c 0,3.7566 -3.07616,6.8018 -6.87081,6.8018 -3.79464,0 -6.87081,-3.0452 -6.87081,-6.8018 0,-3.7565 3.07617,-6.8017 6.87081,-6.8017 3.79465,0 6.87081,3.0452 6.87081,6.8017 z" />
    <rect
       style="fill:#ffffff;fill-opacity:1;fill-rule:evenodd;stroke:none"
       id="rect13194-17"
       width="6.8708129"
       height="2.9347694"
       x="117.61366"
       y="331.56857" />
    <rect
       style="fill:#ffffff;fill-opacity:1;fill-rule:evenodd;stroke:none"
       id="rect13194-8-0"
       width="6.8708129"
       height="2.9347694"
       x="329.6174"
       y="-122.51643"
       transform="matrix(0,1,-1,0,0,0)" />
    <path
       transform="translate(-686.61674,-4385.1816)"
       sodipodi:type="arc"
       style="fill:#fcdd04;fill-opacity:1;fill-rule:evenodd;stroke:none"
       id="path13192-48"
       sodipodi:cx="865.96411"
       sodipodi:cy="4718.0273"
       sodipodi:rx="6.8708129"
       sodipodi:ry="6.8017597"
       d="m 872.83492,4718.0273 c 0,3.7566 -3.07616,6.8018 -6.87081,6.8018 -3.79464,0 -6.87081,-3.0452 -6.87081,-6.8018 0,-3.7565 3.07617,-6.8017 6.87081,-6.8017 3.79465,0 6.87081,3.0452 6.87081,6.8017 z" />
    <rect
       style="fill:#ffffff;fill-opacity:1;fill-rule:evenodd;stroke:none"
       id="rect13194-81"
       width="6.8708129"
       height="2.9347694"
       x="175.61848"
       y="331.43039" />
    <rect
       style="fill:#ffffff;fill-opacity:1;fill-rule:evenodd;stroke:none"
       id="rect13194-8-3"
       width="6.8708129"
       height="2.9347694"
       x="329.47922"
       y="-180.52126"
       transform="matrix(0,1,-1,0,0,0)" />
    <path
       transform="translate(-744.7597,-4352.3122)"
       sodipodi:type="arc"
       style="fill:#fcdd04;fill-opacity:1;fill-rule:evenodd;stroke:none"
       id="path13192-6"
       sodipodi:cx="865.96411"
       sodipodi:cy="4718.0273"
       sodipodi:rx="6.8708129"
       sodipodi:ry="6.8017597"
       d="m 872.83492,4718.0273 c 0,3.7566 -3.07616,6.8018 -6.87081,6.8018 -3.79464,0 -6.87081,-3.0452 -6.87081,-6.8018 0,-3.7565 3.07617,-6.8017 6.87081,-6.8017 3.79465,0 6.87081,3.0452 6.87081,6.8017 z" />
    <rect
       style="fill:#ffffff;fill-opacity:1;fill-rule:evenodd;stroke:none"
       id="rect13194-78"
       width="6.8708129"
       height="2.9347694"
       x="117.47554"
       y="364.29953" />
    <rect
       style="fill:#ffffff;fill-opacity:1;fill-rule:evenodd;stroke:none"
       id="rect13194-8-9"
       width="6.8708129"
       height="2.9347694"
       x="362.34836"
       y="-122.37831"
       transform="matrix(0,1,-1,0,0,0)" />
    <path
       transform="translate(-686.34053,-4352.1741)"
       sodipodi:type="arc"
       style="fill:#fcdd04;fill-opacity:1;fill-rule:evenodd;stroke:none"
       id="path13192-5"
       sodipodi:cx="865.96411"
       sodipodi:cy="4718.0273"
       sodipodi:rx="6.8708129"
       sodipodi:ry="6.8017597"
       d="m 872.83492,4718.0273 c 0,3.7566 -3.07616,6.8018 -6.87081,6.8018 -3.79464,0 -6.87081,-3.0452 -6.87081,-6.8018 0,-3.7565 3.07617,-6.8017 6.87081,-6.8017 3.79465,0 6.87081,3.0452 6.87081,6.8017 z" />
    <rect
       style="fill:#ffffff;fill-opacity:1;fill-rule:evenodd;stroke:none"
       id="rect13194-5"
       width="6.8708129"
       height="2.9347694"
       x="175.89473"
       y="364.43771" />
    <rect
       style="fill:#ffffff;fill-opacity:1;fill-rule:evenodd;stroke:none"
       id="rect13194-8-56"
       width="6.8708129"
       height="2.9347694"
       x="362.48654"
       y="-180.7975"
       transform="matrix(0,1,-1,0,0,0)" />
    <path
       transform="translate(-686.06431,-4319.3046)"
       sodipodi:type="arc"
       style="fill:#fcdd04;fill-opacity:1;fill-rule:evenodd;stroke:none"
       id="path13192-63"
       sodipodi:cx="865.96411"
       sodipodi:cy="4718.0273"
       sodipodi:rx="6.8708129"
       sodipodi:ry="6.8017597"
       d="m 872.83492,4718.0273 c 0,3.7566 -3.07616,6.8018 -6.87081,6.8018 -3.79464,0 -6.87081,-3.0452 -6.87081,-6.8018 0,-3.7565 3.07617,-6.8017 6.87081,-6.8017 3.79465,0 6.87081,3.0452 6.87081,6.8017 z" />
    <rect
       style="fill:#ffffff;fill-opacity:1;fill-rule:evenodd;stroke:none"
       id="rect13194-0"
       width="6.8708129"
       height="2.9347694"
       x="176.17091"
       y="397.30734" />
    <rect
       style="fill:#ffffff;fill-opacity:1;fill-rule:evenodd;stroke:none"
       id="rect13194-8-08"
       width="6.8708129"
       height="2.9347694"
       x="395.35617"
       y="-181.07368"
       transform="matrix(0,1,-1,0,0,0)" />
    <path
       transform="translate(-744.48349,-4319.3046)"
       sodipodi:type="arc"
       style="fill:#fcdd04;fill-opacity:1;fill-rule:evenodd;stroke:none"
       id="path13192-82"
       sodipodi:cx="865.96411"
       sodipodi:cy="4718.0273"
       sodipodi:rx="6.8708129"
       sodipodi:ry="6.8017597"
       d="m 872.83492,4718.0273 c 0,3.7566 -3.07616,6.8018 -6.87081,6.8018 -3.79464,0 -6.87081,-3.0452 -6.87081,-6.8018 0,-3.7565 3.07617,-6.8017 6.87081,-6.8017 3.79465,0 6.87081,3.0452 6.87081,6.8017 z" />
    <rect
       style="fill:#ffffff;fill-opacity:1;fill-rule:evenodd;stroke:none"
       id="rect13194-3"
       width="6.8708129"
       height="2.9347694"
       x="117.75172"
       y="397.30734" />
    <rect
       style="fill:#ffffff;fill-opacity:1;fill-rule:evenodd;stroke:none"
       id="rect13194-8-06"
       width="6.8708129"
       height="2.9347694"
       x="395.35617"
       y="-122.6545"
       transform="matrix(0,1,-1,0,0,0)" />
    <path
       transform="translate(-744.48349,-4286.159)"
       sodipodi:type="arc"
       style="fill:#fcdd04;fill-opacity:1;fill-rule:evenodd;stroke:none"
       id="path13192-50"
       sodipodi:cx="865.96411"
       sodipodi:cy="4718.0273"
       sodipodi:rx="6.8708129"
       sodipodi:ry="6.8017597"
       d="m 872.83492,4718.0273 c 0,3.7566 -3.07616,6.8018 -6.87081,6.8018 -3.79464,0 -6.87081,-3.0452 -6.87081,-6.8018 0,-3.7565 3.07617,-6.8017 6.87081,-6.8017 3.79465,0 6.87081,3.0452 6.87081,6.8017 z" />
    <rect
       style="fill:#ffffff;fill-opacity:1;fill-rule:evenodd;stroke:none"
       id="rect13194-9"
       width="6.8708129"
       height="2.9347694"
       x="117.75172"
       y="430.45285" />
    <rect
       style="fill:#ffffff;fill-opacity:1;fill-rule:evenodd;stroke:none"
       id="rect13194-8-7"
       width="6.8708129"
       height="2.9347694"
       x="428.50168"
       y="-122.6545"
       transform="matrix(0,1,-1,0,0,0)" />
    <path
       style="fill:#ffffff"
       d="m 152.71349,455.2634 c -1.16627,-0.7556 -1.75208,-2.4482 -1.24396,-3.5945 0.30008,-0.6769 -0.45384,-0.9379 -2.75045,-0.9517 -1.19393,-0.014 -2.69675,-0.1197 -3.33963,-0.2502 -6.95432,-1.4104 -11.8531,-6.9458 -13.37683,-15.1156 -0.49481,-2.6529 -0.41625,-7.2198 0.17203,-10.002 0.88137,-4.1682 2.23752,-7.4974 4.45134,-10.9275 1.05336,-1.6321 1.05574,-1.6391 0.70423,-2.045 -0.51664,-0.5968 -1.38527,-2.711 -1.38455,-3.3698 0.001,-0.9544 0.58792,-2.0194 1.44414,-2.6206 1.16054,-0.815 3.29709,-0.815 4.45762,0 1.00357,0.7046 1.49007,1.7258 1.38873,2.915 l -0.0736,0.8633 0.85798,0.1439 c 0.47188,0.079 1.63812,0.2166 2.59165,0.3056 l 1.73365,0.162 -0.10295,-1.7646 c -0.0566,-0.9705 -0.86525,-23.3701 -1.79687,-49.7769 l -1.69387,-48.0122 3.6533,-6.1662 3.65331,-6.1662 0.0422,55.9203 0.0422,55.9202 0.50842,-0.074 0.5084,-0.075 -0.007,-39.6556 c -0.003,-21.8105 -0.0533,-46.9972 -0.11069,-55.9702 l -0.10441,-16.3149 0.421,0.5954 c 0.23154,0.3276 1.93098,3.1584 3.77653,6.2907 l 3.35553,5.6954 -0.009,1.5689 c -0.006,0.8629 -0.78106,23.058 -1.72396,49.3223 -0.94292,26.2645 -1.69219,47.795 -1.66504,47.8458 0.0271,0.052 1.00956,-0.1839 2.18317,-0.5216 4.46492,-1.2851 7.37624,-1.4169 9.0198,-0.4085 1.17785,0.7228 3.04938,3.4772 3.04938,4.488 0,0.9044 -0.65123,2.0366 -1.56557,2.7221 -1.02128,0.7656 -3.21557,0.7472 -4.33681,-0.037 -0.8124,-0.5677 -1.44298,-1.6545 -1.44415,-2.489 0,-0.3988 -0.0972,-0.4242 -1.02854,-0.27 -2.02471,0.3352 -6.41986,1.7193 -6.06878,1.9111 1.78272,0.9743 3.25613,2.2951 3.25613,2.9188 0,0.4147 -0.59581,0.9593 -1.43373,1.3107 -0.80466,0.3373 -0.92284,0.3255 -2.24981,-0.2227 -2.09247,-0.8644 -4.17616,-1.2758 -6.46721,-1.2769 -1.75473,0 -2.15406,-0.074 -2.7552,-0.5042 -0.83655,-0.5988 -1.45442,-1.3639 -1.45442,-1.8009 0,-0.1736 -0.0563,-0.3167 -0.12521,-0.3179 -0.11035,0 -2.50139,-0.4375 -4.73659,-0.8627 l -0.77075,-0.1467 -1.23828,1.7836 c -4.50121,6.483 -5.92757,14.4013 -3.76822,20.919 1.49741,4.5198 4.41016,7.644 8.55181,9.1726 1.31175,0.4843 2.23233,0.6447 4.293,0.7483 2.4309,0.1224 2.68446,0.094 3.45848,-0.3806 1.20459,-0.7391 2.58277,-0.8906 3.73925,-0.4111 1.94309,0.8056 2.71661,2.7493 1.64928,4.1441 -0.46312,0.6053 -0.46584,0.6252 -0.21957,1.6021 0.23154,0.9184 0.226,1.0468 -0.0775,1.8008 -0.668,1.6591 -2.4579,2.3267 -3.83901,1.4321 z m 1.182,-9.9563 c -2.85343,-0.3693 -6.25395,-2.1085 -6.25972,-3.2014 -0.006,-0.9994 2.83342,-1.5959 5.5918,-1.1754 2.89803,0.442 5.86554,1.8201 6.27628,2.9149 0.44567,1.1876 -2.26587,1.8946 -5.60836,1.4619 z m -1.16886,-5.6846 c -2.22327,-0.3487 -3.69632,-0.9188 -4.83649,-1.8719 -1.65218,-1.3809 -0.45511,-2.2876 3.03241,-2.2968 2.92945,-0.014 5.81952,0.8775 7.52747,2.3052 0.93789,0.7839 0.8797,1.2769 -0.21365,1.8095 -0.99602,0.4851 -2.65659,0.5014 -5.50974,0.053 z m 2.25425,-4.8824 c -0.78065,-0.2442 -2.3882,-0.5021 -3.57235,-0.5733 -1.84015,-0.1102 -2.29381,-0.2195 -3.12207,-0.7497 -0.53299,-0.3412 -1.10354,-0.8323 -1.26791,-1.0914 -0.28765,-0.4533 -0.28659,-0.4836 0.0278,-0.8115 0.58909,-0.6143 1.64187,-0.8592 3.67653,-0.8547 3.12884,0 6.57467,1.1567 7.77202,2.5938 0.62912,0.755 0.46776,1.1155 -0.72564,1.6209 -1.00813,0.427 -0.99054,0.428 -2.78835,-0.1344 z m 1.83679,-4.0642 c -1.2296,-0.7045 -3.69984,-1.2163 -6.12368,-1.269 -2.37694,-0.051 -2.59092,-0.095 -3.46086,-0.7022 -1.13125,-0.7895 -1.6707,-1.6599 -1.42854,-2.3053 0.0938,-0.2498 0.58759,-0.6311 1.12343,-0.8677 1.29455,-0.5711 5.37564,-0.5693 7.3475,0 2.87645,0.8351 5.39004,2.4209 5.64367,3.5607 0.14621,0.6572 -0.4257,1.2755 -1.48168,1.602 -0.94848,0.2932 -1.0732,0.2916 -1.61984,-0.022 z m -0.75143,-5.8282 c -1.48928,-0.6045 -3.96466,-1.0448 -5.88133,-1.0462 -2.06,0 -3.06395,-0.4271 -4.17928,-1.7714 -0.65332,-0.7875 -0.68097,-1.1861 -0.11875,-1.7115 2.43542,-2.2761 11.4415,-0.5734 13.53789,2.5595 l 0.48209,0.7205 -0.45017,0.5545 c -0.24761,0.3051 -0.83365,0.6719 -1.30233,0.8153 -1.01595,0.3107 -1.02621,0.3101 -2.08806,-0.1209 z"
       id="path13475-7"
       inkscape:connector-curvature="0" />
  </g>
</svg>
