<?xml version="1.0" encoding="UTF-8" standalone="no"?>
<!-- Created with Inkscape (http://www.inkscape.org/) -->

<svg
   xmlns:dc="http://purl.org/dc/elements/1.1/"
   xmlns:cc="http://creativecommons.org/ns#"
   xmlns:rdf="http://www.w3.org/1999/02/22-rdf-syntax-ns#"
   xmlns:svg="http://www.w3.org/2000/svg"
   xmlns="http://www.w3.org/2000/svg"
   xmlns:sodipodi="http://sodipodi.sourceforge.net/DTD/sodipodi-0.dtd"
   xmlns:inkscape="http://www.inkscape.org/namespaces/inkscape"
   width="324.28571"
   height="217.1429"
   id="svg5356"
   version="1.1"
   inkscape:version="0.48.4 r9939"
   sodipodi:docname="Nieuw document 37">
  <defs
     id="defs5358" />
  <sodipodi:namedview
     id="base"
     pagecolor="#ffffff"
     bordercolor="#666666"
     borderopacity="1.0"
     inkscape:pageopacity="0.0"
     inkscape:pageshadow="2"
     inkscape:zoom="1.4"
     inkscape:cx="305.45562"
     inkscape:cy="89.829679"
     inkscape:document-units="px"
     inkscape:current-layer="layer1"
     showgrid="false"
     fit-margin-top="0"
     fit-margin-left="0"
     fit-margin-right="0"
     fit-margin-bottom="0"
     inkscape:window-width="1600"
     inkscape:window-height="837"
     inkscape:window-x="-8"
     inkscape:window-y="-8"
     inkscape:window-maximized="1" />
  <metadata
     id="metadata5361">
    <rdf:RDF>
      <cc:Work
         rdf:about="">
        <dc:format>image/svg+xml</dc:format>
        <dc:type
           rdf:resource="http://purl.org/dc/dcmitype/StillImage" />
        <dc:title></dc:title>
      </cc:Work>
    </rdf:RDF>
  </metadata>
  <g
     inkscape:label="Laag 1"
     inkscape:groupmode="layer"
     id="layer1"
     transform="translate(-172.14287,-278.07645)">
    <rect
       style="fill:#ffffff;fill-opacity:1;fill-rule:evenodd;stroke:none"
       id="rect5282"
       width="324.00647"
       height="217.1429"
       x="172.14287"
       y="278.07645" />
    <rect
       style="fill:#0640ac;fill-opacity:1;fill-rule:evenodd;stroke:none"
       id="rect5284"
       width="324.28571"
       height="26.4286"
       x="172.14287"
       y="333.7908" />
    <rect
       style="fill:#0640ac;fill-opacity:1;fill-rule:evenodd;stroke:none"
       id="rect5286"
       width="324.28571"
       height="27.857201"
       x="172.14287"
       y="413.07632" />
    <path
       style="fill:#000000"
       d="m 251.49557,364.4126 c -6.3012,-0.77 -11.9469,-3.2827 -16.7093,-7.4363 -1.1201,-0.977 -3.3846,-3.4606 -4.2668,-4.6797 -3.2312,-4.4649 -5.0321,-9.3553 -5.4564,-14.8163 -0.1135,-1.4537 0.013,-4.7752 0.2277,-6.1177 0.6923,-4.2822 2.0843,-7.9281 4.3704,-11.4464 0.9706,-1.4941 2.8322,-3.7957 3.6046,-4.4566 l 0.2207,-0.189 -0.1851,0.6099 c -0.5093,1.678 -0.6463,2.5771 -0.7481,4.9082 -0.085,1.9486 -0.079,2.3516 0.047,3.3021 0.6078,4.5625 2.3304,8.2478 5.4452,11.6485 1.3185,1.4397 2.3879,2.3821 3.8094,3.3577 7.502,5.1481 17.5843,5.4036 25.3954,0.6432 4.7326,-2.8842 8.2148,-7.4438 9.6248,-12.6031 0.7804,-2.8554 0.9382,-6.1334 0.4312,-8.9573 -0.1655,-0.9214 -0.4809,-2.1803 -0.7288,-2.9081 l -0.1829,-0.5367 0.6442,0.6365 c 1.7789,1.7577 3.6713,4.322 4.9351,6.6874 1.9463,3.6427 3.0186,7.4097 3.3338,11.7124 0.099,1.355 -0.067,4.6747 -0.3064,6.1144 -0.8986,5.4081 -3.1196,10.137 -6.7285,14.3272 -1.5711,1.8241 -4.292,4.1751 -6.3768,5.5098 -6.0368,3.8646 -13.3661,5.5495 -20.401,4.6899 z"
       id="path5264-8"
       inkscape:connector-curvature="0" />
    <path
       style="fill:#000000"
       d="m 406.88047,364.9745 c -6.3012,-0.77 -11.9469,-3.2827 -16.7093,-7.4363 -1.1201,-0.977 -3.3846,-3.4606 -4.2668,-4.6797 -3.2312,-4.4649 -5.0321,-9.3553 -5.4564,-14.8163 -0.1135,-1.4537 0.013,-4.7752 0.2277,-6.1177 0.6923,-4.2822 2.0843,-7.9281 4.3704,-11.4464 0.9706,-1.4941 2.8322,-3.7957 3.6046,-4.4566 l 0.2207,-0.189 -0.1851,0.6099 c -0.5093,1.678 -0.6463,2.5771 -0.7481,4.9082 -0.085,1.9486 -0.079,2.3516 0.047,3.3021 0.6078,4.5625 2.3304,8.2478 5.4452,11.6485 1.3185,1.4397 2.3879,2.3821 3.8094,3.3577 7.502,5.1481 17.5843,5.4036 25.3954,0.6432 4.7326,-2.8842 8.2148,-7.4438 9.6248,-12.6031 0.7804,-2.8554 0.9382,-6.1334 0.4312,-8.9573 -0.1655,-0.9214 -0.4809,-2.1803 -0.7288,-2.9081 l -0.1829,-0.5367 0.6442,0.6365 c 1.7789,1.7577 3.6713,4.322 4.9351,6.6874 1.9463,3.6427 3.0186,7.4097 3.3338,11.7124 0.099,1.355 -0.067,4.6747 -0.3064,6.1144 -0.8986,5.4081 -3.1196,10.137 -6.7285,14.3272 -1.5711,1.8241 -4.292,4.1751 -6.3768,5.5098 -6.0368,3.8646 -13.3661,5.5495 -20.401,4.6899 z"
       id="path5264-6"
       inkscape:connector-curvature="0" />
    <path
       style="fill:#000000"
       d="m 326.82587,456.3932 c -6.3012,-0.77 -11.9469,-3.2827 -16.7093,-7.4363 -1.1201,-0.977 -3.3846,-3.4606 -4.2668,-4.6797 -3.2312,-4.4649 -5.0321,-9.3553 -5.4564,-14.8163 -0.1135,-1.4537 0.013,-4.7752 0.2277,-6.1177 0.6923,-4.2822 2.0843,-7.9281 4.3704,-11.4464 0.9706,-1.4941 2.8322,-3.7957 3.6046,-4.4566 l 0.2207,-0.189 -0.1851,0.6099 c -0.5093,1.678 -0.6463,2.5771 -0.7481,4.9082 -0.085,1.9486 -0.079,2.3516 0.047,3.3021 0.6078,4.5625 2.3304,8.2478 5.4452,11.6485 1.3185,1.4397 2.3879,2.3821 3.8094,3.3577 7.502,5.1481 17.5843,5.4036 25.3954,0.6432 4.7326,-2.8842 8.2148,-7.4438 9.6248,-12.6031 0.7804,-2.8554 0.9382,-6.1334 0.4312,-8.9573 -0.1655,-0.9214 -0.4809,-2.1803 -0.7288,-2.9081 l -0.1829,-0.5367 0.6442,0.6365 c 1.7789,1.7577 3.6713,4.322 4.9351,6.6874 1.9463,3.6427 3.0186,7.4097 3.3338,11.7124 0.099,1.355 -0.067,4.6747 -0.3064,6.1144 -0.8986,5.4081 -3.1196,10.137 -6.7285,14.3272 -1.5711,1.8241 -4.292,4.1751 -6.3768,5.5098 -6.0368,3.8646 -13.3661,5.5495 -20.401,4.6899 z"
       id="path5264-5"
       inkscape:connector-curvature="0" />
  </g>
</svg>
