<?xml version="1.0" encoding="UTF-8" standalone="no"?>
<!-- Created with Inkscape (http://www.inkscape.org/) -->

<svg
   xmlns:dc="http://purl.org/dc/elements/1.1/"
   xmlns:cc="http://creativecommons.org/ns#"
   xmlns:rdf="http://www.w3.org/1999/02/22-rdf-syntax-ns#"
   xmlns:svg="http://www.w3.org/2000/svg"
   xmlns="http://www.w3.org/2000/svg"
   xmlns:sodipodi="http://sodipodi.sourceforge.net/DTD/sodipodi-0.dtd"
   xmlns:inkscape="http://www.inkscape.org/namespaces/inkscape"
   width="328.12497"
   height="216.4062"
   id="svg13132"
   version="1.1"
   inkscape:version="0.48.4 r9939"
   sodipodi:docname="Nieuw document 111">
  <defs
     id="defs13134" />
  <sodipodi:namedview
     id="base"
     pagecolor="#ffffff"
     bordercolor="#666666"
     borderopacity="1.0"
     inkscape:pageopacity="0.0"
     inkscape:pageshadow="2"
     inkscape:zoom="0.98994949"
     inkscape:cx="353.53598"
     inkscape:cy="-35.684301"
     inkscape:document-units="px"
     inkscape:current-layer="layer1"
     showgrid="false"
     fit-margin-top="0"
     fit-margin-left="0"
     fit-margin-right="0"
     fit-margin-bottom="0"
     inkscape:window-width="1600"
     inkscape:window-height="837"
     inkscape:window-x="-8"
     inkscape:window-y="-8"
     inkscape:window-maximized="1" />
  <metadata
     id="metadata13137">
    <rdf:RDF>
      <cc:Work
         rdf:about="">
        <dc:format>image/svg+xml</dc:format>
        <dc:type
           rdf:resource="http://purl.org/dc/dcmitype/StillImage" />
        <dc:title></dc:title>
      </cc:Work>
    </rdf:RDF>
  </metadata>
  <g
     inkscape:label="Laag 1"
     inkscape:groupmode="layer"
     id="layer1"
     transform="translate(-73.323067,-198.457)">
    <rect
       style="fill:#fcdd04;fill-opacity:1;fill-rule:evenodd;stroke:none"
       id="rect12452-1"
       width="328.12497"
       height="216.4062"
       x="73.323067"
       y="198.457" />
    <rect
       style="fill:#da1119;fill-opacity:1;fill-rule:evenodd;stroke:none"
       id="rect12454-9"
       width="100.39059"
       height="216.4062"
       x="73.323067"
       y="198.457" />
    <rect
       style="fill:#da1119;fill-opacity:1;fill-rule:evenodd;stroke:none"
       id="rect12456-95"
       width="25.683594"
       height="24.314087"
       x="167.29279"
       y="198.43259" />
    <rect
       style="fill:#da1119;fill-opacity:1;fill-rule:evenodd;stroke:none"
       id="rect12456-0-5"
       width="25.683594"
       height="24.314087"
       x="167.34161"
       y="244.90207" />
    <rect
       style="fill:#0e44af;fill-opacity:1;fill-rule:evenodd;stroke:none"
       id="rect12456-4-5"
       width="328.90338"
       height="30.273438"
       x="72.69117"
       y="291.23044" />
    <rect
       style="fill:#da1119;fill-opacity:1;fill-rule:evenodd;stroke:none"
       id="rect12456-9-6"
       width="25.683594"
       height="23.917873"
       x="167.19684"
       y="344.83151" />
    <rect
       style="fill:#da1119;fill-opacity:1;fill-rule:evenodd;stroke:none"
       id="rect12456-3-0"
       width="25.683594"
       height="23.917873"
       x="167.24835"
       y="390.92868" />
    <path
       style="fill:#fcdd04;fill-opacity:1"
       d="m 115.55615,317.62884 c -3.7913,-0.1202 -7.2969,-0.4996 -9.4777,-1.0257 -0.8939,-0.2157 -1.8241,-0.5138 -2.1074,-0.6753 -0.1098,-0.063 -0.3689,-0.087 -0.9096,-0.087 l -0.7562,0 -0.2407,-0.2584 c -0.4695,-0.5042 -0.5984,-0.9507 -0.3604,-1.2488 0.1392,-0.1744 0.5614,-0.3631 0.9271,-0.4144 0.3973,-0.056 0.3163,-0.1668 -0.1601,-0.2195 -0.8381,-0.093 -1.1873,-0.3851 -1.1873,-0.9944 0,-0.2998 0.035,-0.416 0.1881,-0.6186 l 0.1881,-0.2494 -0.292,-0.1504 c -0.9217,-0.4748 -1.34,-1.2826 -0.8625,-1.6657 0.2072,-0.1662 0.5649,-0.3208 0.7424,-0.3208 0.079,0 0.1597,-0.035 0.1785,-0.078 0.045,-0.1033 -0.7693,-1.9858 -1.1726,-2.7104 -0.314897,-0.5657 -0.318997,-0.5697 -0.583997,-0.581 -0.3584,-0.015 -0.6385,-0.2033 -0.8779,-0.5892 -0.2411,-0.3888 -0.2748,-0.9146 -0.076,-1.1813 l 0.1229,-0.1646 -0.8213,-0.737 c -0.4516,-0.4053 -1.3784,-1.2329 -2.0594,-1.839 l -1.2382,-1.1022 0.5452,-0.1576 c 1.0307,-0.2981 1.9124,-0.2623 2.5744,0.1044 0.4131,0.2288 0.8954,0.7411 1.1787,1.2519 l 0.2582,0.4658 0.3454,-0.1076 c 1.158997,-0.3609 2.266797,0.152 2.994497,1.3863 0.5674,0.9625 0.8778,2.2084 0.8377,3.3624 l -0.022,0.6359 0.2421,0.05 c 0.1332,0.028 0.5384,0.055 0.9004,0.06 1.2549,0.019 2.0557,-0.3438 2.9215,-1.3213 0.1352,-0.1525 0.1047,-0.1405 -0.1863,0.074 -0.563,0.4145 -1.1116,0.5279 -1.8088,0.3739 -0.2916,-0.064 -0.3497,-0.1146 -0.8635,-0.7448 -0.6203,-0.7609 -1.2583,-1.8327 -1.414,-2.3755 -0.1369,-0.4776 -0.2786,-1.8886 -0.2177,-2.169 0.072,-0.3306 0.3436,-0.5388 0.7037,-0.5388 0.4253,0 0.7394,0.1378 1.1578,0.5079 0.3961,0.3504 0.5903,0.4363 0.8544,0.3782 0.2096,-0.046 0.284,-0.2783 0.1679,-0.5241 -0.096,-0.2039 -0.3625,-0.3898 -0.8329,-0.5813 -0.7069,-0.2878 -1.0842,-1.0413 -0.8243,-1.6462 0.1056,-0.2458 0.4642,-0.5543 0.8409,-0.7232 0.3397,-0.1523 0.737,-0.4614 1.0346,-0.8047 l 0.1748,-0.2016 0.3411,0.1853 c 0.2801,0.1522 0.4787,0.2011 1.1118,0.2736 0.8822,0.1011 1.142,0.1814 1.5142,0.4682 0.4925,0.3795 0.6369,0.8877 0.3885,1.3678 -0.1229,0.2374 -0.5216,0.5706 -0.6828,0.5706 -0.121,0 -0.4977,0.3041 -0.6075,0.4906 -0.1229,0.2085 -0.1316,0.4921 -0.018,0.5915 0.2745,0.2409 0.7696,-0.1037 1.2002,-0.8353 0.3417,-0.5806 0.4588,-0.7032 0.7276,-0.762 0.2146,-0.047 0.585,0.1558 0.803,0.4396 0.1603,0.2087 0.5165,1.1476 0.663,1.7474 0.1493,0.6119 0.1144,2.316 -0.062,3.0252 -0.2652,1.0656 -0.4874,1.2792 -1.1956,1.1494 -0.2107,-0.039 -0.6637,-0.1948 -1.0067,-0.3471 l -0.6235,-0.2768 0.2771,0.2518 c 0.9619,0.8742 2.2177,1.3348 3.6393,1.3348 1.2115,0 2.3118,-0.3304 3.0825,-0.9257 0.4315,-0.3333 0.5683,-0.5658 0.1633,-0.2776 -0.7116,0.5066 -1.332,0.6219 -1.9444,0.3614 -0.2808,-0.1193 -0.376,-0.2138 -0.7024,-0.6968 -0.4725,-0.6992 -0.7098,-1.1137 -0.9278,-1.6205 -0.2258,-0.525 -0.4319,-1.3541 -0.4338,-1.7447 0,-0.3726 0.1555,-1.1335 0.2947,-1.4258 0.054,-0.1143 0.1221,-0.3442 0.1505,-0.5108 0.1353,-0.7957 0.5662,-1.1137 1.1499,-0.8488 0.2271,0.103 0.6983,0.5981 0.9007,0.9462 0.1909,0.3284 0.4438,0.4811 0.7969,0.4811 0.2457,0 0.3268,-0.032 0.4756,-0.187 0.203,-0.2118 0.2238,-0.3922 0.08,-0.694 -0.08,-0.1673 -0.1869,-0.2432 -0.5442,-0.3854 -0.7311,-0.2909 -1.2634,-0.7886 -1.4324,-1.3392 -0.1872,-0.6101 0.2848,-1.1073 1.2201,-1.2852 0.7987,-0.1519 1.5693,-0.5178 2.0984,-0.9961 l 0.3073,-0.2779 0.3162,0.2826 c 0.5816,0.5196 1.2662,0.8287 2.3323,1.0529 0.3338,0.07 0.6885,0.2695 0.8769,0.4927 0.1646,0.1951 0.1763,0.6708 0.024,0.9901 -0.1621,0.3406 -0.75,0.8454 -1.2013,1.0315 -0.2197,0.091 -0.4462,0.1867 -0.5033,0.2136 -0.1497,0.07 -0.307,0.5024 -0.2524,0.6933 0.058,0.2041 0.2785,0.3862 0.5177,0.4283 0.2572,0.045 0.6424,-0.1323 0.8085,-0.3726 0.7753,-1.1215 1.3031,-1.4041 1.8029,-0.9656 0.151,0.1325 0.2447,0.284 0.2725,0.4408 0.041,0.2322 0.1453,0.5886 0.3538,1.2116 0.4043,1.2089 0.011,2.6416 -1.2199,4.4398 -0.2545,0.372 -0.4051,0.5234 -0.633,0.6366 -0.5874,0.2916 -1.3122,0.1656 -1.9943,-0.3467 -0.2062,-0.1549 -0.2747,-0.1848 -0.2208,-0.096 0.1384,0.227 0.7895,0.679 1.2905,0.896 0.6752,0.2924 1.3121,0.412 2.1844,0.41 1.3278,0 2.4833,-0.4011 3.4227,-1.179 l 0.4917,-0.4073 -0.6928,0.3037 c -1.0635,0.4662 -1.5911,0.4684 -1.8625,0.01 -0.054,-0.092 -0.1718,-0.4543 -0.2612,-0.805 -0.1368,-0.5361 -0.1622,-0.8021 -0.1598,-1.6711 0.01,-1.1082 0.054,-1.4178 0.3888,-2.3552 0.2388,-0.6688 0.5548,-1.0897 0.897,-1.1943 0.3581,-0.1096 0.6127,0.075 0.9909,0.7173 0.3338,0.5671 0.7022,0.9171 0.9653,0.9171 0.6085,0 0.3225,-0.8788 -0.3687,-1.1329 -0.3278,-0.1205 -0.5486,-0.3093 -0.7014,-0.5998 -0.2456,-0.4671 -0.1007,-0.9826 0.3804,-1.3533 0.3641,-0.2805 0.6699,-0.3754 1.4993,-0.4652 0.7018,-0.076 1.0677,-0.1831 1.3385,-0.3918 0.1192,-0.092 0.1369,-0.086 0.2725,0.083 0.2447,0.3066 0.8121,0.7652 1.0585,0.8555 0.3268,0.1199 0.7271,0.4426 0.8382,0.6759 0.1248,0.262 0.1185,0.6993 -0.014,0.9776 -0.1543,0.3241 -0.4142,0.5382 -0.9581,0.7893 -0.5003,0.231 -0.7349,0.4693 -0.7354,0.7468 0,0.2086 0.1203,0.301 0.3931,0.301 0.1819,0 0.3065,-0.068 0.627,-0.3405 0.4792,-0.4081 0.8191,-0.5714 1.1886,-0.5714 0.3617,0 0.6781,0.2275 0.7447,0.5356 0.072,0.3308 -0.1005,1.847 -0.2625,2.3131 -0.2542,0.7311 -0.7821,1.5593 -1.6546,2.5956 -0.2171,0.258 -0.3213,0.3272 -0.5775,0.3838 -0.7302,0.1613 -1.2915,0.041 -1.8517,-0.3961 l -0.2999,-0.234 0.3432,0.387 c 0.396,0.4466 0.9235,0.7994 1.4797,0.9897 0.3241,0.111 0.5225,0.1325 1.186,0.1287 0.4383,0 0.8884,-0.029 1.0003,-0.059 l 0.2036,-0.055 -0.017,-0.635 c -0.046,-1.6545 0.58,-3.362 1.5489,-4.2262 0.6668,-0.5948 1.3841,-0.761 2.253,-0.5219 l 0.3809,0.1048 0.2611,-0.4709 c 0.7748,-1.3971 1.983,-1.8316 3.7444,-1.3466 l 0.5411,0.1489 -2.0759,1.8675 c -2.0315,1.8273 -2.074,1.8706 -1.9812,2.0176 0.1165,0.1846 0.1269,0.6387 0.021,0.9164 -0.1645,0.4312 -0.6592,0.8443 -1.0117,0.8448 -0.1262,0 -0.2152,0.1051 -0.4772,0.5625 -0.3213,0.5611 -1.2036,2.5386 -1.2036,2.6976 0,0.046 0.063,0.084 0.1408,0.084 0.2018,0 0.6279,0.1665 0.8099,0.3166 0.086,0.071 0.1753,0.22 0.1993,0.332 0.087,0.4087 -0.4872,1.1176 -1.1066,1.3652 -0.2205,0.088 -0.2247,0.1226 -0.034,0.2718 0.2198,0.1716 0.4027,0.5659 0.4043,0.872 0,0.5554 -0.4946,0.9063 -1.3748,0.9691 l -0.5289,0.038 0.43,0.1059 c 0.5753,0.1417 0.921,0.4051 0.921,0.7019 0,0.2636 -0.1952,0.6276 -0.5122,0.9552 l -0.2354,0.2432 -0.7174,0.036 c -0.6271,0.032 -0.8003,0.067 -1.3756,0.2782 -1.7489,0.6422 -4.5737,1.088 -8.4178,1.3286 -1.3536,0.085 -5.3395,0.1543 -6.5819,0.1148 z m 7.8636,-1.45 c 3.9586,-0.2712 5.8577,-0.6796 5.4017,-1.1618 -0.2208,-0.2334 -1.9899,-0.5609 -3.9121,-0.7243 -2.3836,-0.2025 -3.5983,-0.2437 -7.1708,-0.2433 -3.5643,0 -4.8687,0.045 -7.1015,0.2415 -3.3644,0.2965 -4.7406,0.7374 -3.6743,1.1772 0.9014,0.3718 3.3833,0.6469 7.4156,0.8218 1.3429,0.058 7.7111,-0.02 9.0414,-0.1111 z"
       id="path13094-2"
       inkscape:connector-curvature="0" />
  </g>
</svg>
