<?xml version="1.0" encoding="UTF-8"?><svg width="508" height="338" viewBox="1.2734375 1.2764705882353 323.453125 215.72352941176" xmlns="http://www.w3.org/2000/svg" xmlns:cc="http://creativecommons.org/ns#" xmlns:dc="http://purl.org/dc/elements/1.1/" xmlns:rdf="http://www.w3.org/1999/02/22-rdf-syntax-ns#" version="1.1">
<metadata xmlns="http://www.w3.org/2000/svg" xmlns:rdf="http://www.w3.org/1999/02/22-rdf-syntax-ns#" xmlns:cc="http://creativecommons.org/ns#" xmlns:dc="http://purl.org/dc/elements/1.1/">
<rdf:RDF>
<cc:Work rdf:about="">
<dc:format>image/svg+xml</dc:format>
<dc:type rdf:resource="http://purl.org/dc/dcmitype/StillImage"/>
<dc:title/>
</cc:Work>
</rdf:RDF>
</metadata>
<path xmlns="http://www.w3.org/2000/svg" d="m0.23678 1.0963v215.99h325.56v-215.99h-325.56z" fill="#ffdf00" stroke-opacity="0"/>
<path xmlns="http://www.w3.org/2000/svg" d="m0.32611 1.1132 121.48 109.57-121.48 107.45 84.3 0.16306 76.963-71.093 80.491 71.014 83.986-0.84329-122.08-106.69 121.93-109.5-84.753-0.075734-78.267 71.093-79.572-71.093h-82.996z" fill="#d40000" stroke-opacity="0"/>
<path xmlns="http://www.w3.org/2000/svg" d="m29.677 118.98c-2.0516 1.4976-2.8314 3.7054-0.10863 5.792l23.139-0.058c3.1392-2.2432 1.8398-4.8739 0.27159-5.734h-23.302z" stroke="#000" stroke-width=".97295px"/>
<path xmlns="http://www.w3.org/2000/svg" d="m29.459 126.03c0.0891 3.2286-2.3727 4.7688-4.4966 4.9578l-0.0577 1.9024 33.033-0.0577v-1.7871l-2.0177-0.1153c-2.0692-0.5508-3.3447-2.4821-3.1131-4.8425l-22.598-0.0577-0.74939 5e-5z" stroke-opacity="0"/>
<path xmlns="http://www.w3.org/2000/svg" d="m33.148 117.67c-1.1863-7.95-13.104-13.516-8.2438-4.6696-16.409 0.69845-13.078-18.313-0.86474-16.372 8.5168 1.4417 12.801 11.783 12.395 21.042h-3.286z" stroke-opacity="0"/>
<path xmlns="http://www.w3.org/2000/svg" d="m50.052 117.71c1.1863-7.95 13.104-13.516 8.2438-4.6696 16.409 0.69845 13.078-18.313 0.86474-16.372-8.5168 1.4417-12.801 11.783-12.395 21.042h3.286z" stroke-opacity="0"/>
<path xmlns="http://www.w3.org/2000/svg" d="m38.063 117.73c0.12157-3.8579 0.64722-8.2788-1.4354-11.63-3.6879-5.9336-6.3124-12.062-4.1328-16.847 1.6691-3.6638 6.9593-5.115 9.0739-11.554 2.3441 5.1963 6.3779 8.7234 8.5916 12.536 2.5156 4.3324-0.62081 10.267-3.6283 16.142-1.6671 3.2567-1.5187 7.3442-1.7022 11.353h-6.7668z" stroke-opacity="0"/>
<path xmlns="http://www.w3.org/2000/svg" d="m280.13 80.033-6.3592 19.73-22.665-0.32611 17.447 12.718-6.0331 20.056 17.447-11.903 17.61 11.577-6.6853-19.567 17.773-13.045-21.85 0.32611-6.6853-19.567z" stroke="#000" stroke-width="1px"/>
<path xmlns="http://www.w3.org/2000/svg" transform="matrix(.76258 0 0 .86121 -171.96 26.334)" d="m601.52 96.338a8.8866 8.1528 0 1 1 -17.773 0 8.8866 8.1528 0 1 1 17.773 0z" fill="#ffdf00" stroke-opacity="0"/>
<path xmlns="http://www.w3.org/2000/svg" d="m158.74 92.289c-9.592 13.404-17.867 12.407-23.982 7.4944-3.5238 12.202 5.4205 18.229 17.501 11.358 2.593-1.4746 4.4556-4.6626 6.135-8.4759-3.9083 14.024-13.692 12.799-20.638 12.683-2.0725 10.104 7.5655 14.002 14.107 10.469 4.1596-2.2471 6.9702-7.5038 7.6847-13.582 0.15558 11.152-5.5286 13.87-10.723 17.295 5.0872 8.3315 20.198 12.595 28.133-1.4989-8.49-3.1299-10.271-8.9433-11.184-15.104 1.3322 12.345 21.148 22.832 23.636 1.7295-10.958 2.7785-18.084-2.1202-21.791-12.106 2.25 4.1872 5.5667 7.5568 9.0088 9.5432 7.7712 4.4845 17.772 0.57211 15.089-12.772-8.0769 7.6677-20.212-0.28407-24.328-7.3791 0.86118-3.451 5.1388-2.616 5.4545-3.0686 0.26964-0.38655-3.0779-2.2534-5.9157-2.581-0.0779-4.491-5.7494-7.1541-7.2638-0.1153-3.8769 0.73011-7.0204 2.7816-6.4609 3.1161 0.83113 0.49687 6.7418-0.53265 5.5385 2.9948z" fill="#ffdf00" stroke-opacity="0"/>
</svg>