<?xml version="1.0" encoding="UTF-8"?>
<svg xmlns="http://www.w3.org/2000/svg" xmlns:xlink="http://www.w3.org/1999/xlink" width="1497px" height="1000px" viewBox="0 0 1496 1000" version="1.1">
<defs>
<filter id="alpha" filterUnits="objectBoundingBox" x="0%" y="0%" width="100%" height="100%">
  <feColorMatrix type="matrix" in="SourceGraphic" values="0 0 0 0 1 0 0 0 0 1 0 0 0 0 1 0 0 0 1 0"/>
</filter>
<mask id="mask0">
  <g filter="url(#alpha)">
<rect x="0" y="0" width="1496" height="1000" style="fill:rgb(0%,0%,0%);fill-opacity:0.717647;stroke:none;"/>
  </g>
</mask>
<clipPath id="clip1">
  <rect x="0" y="0" width="1496" height="1000"/>
</clipPath>
<g id="surface5" clip-path="url(#clip1)">
<path style="fill-rule:nonzero;fill:rgb(31.37255%,8.627451%,8.627451%);fill-opacity:1;stroke-width:0.960707;stroke-linecap:square;stroke-linejoin:miter;stroke:rgb(0%,0%,0%);stroke-opacity:1;stroke-dasharray:5.76424,0.960707;stroke-miterlimit:4;" d="M -670.304109 880.680818 C -670.304109 879.687569 -671.223624 878.884297 -672.356239 878.884297 C -673.490531 878.884297 -674.410046 879.687569 -674.410046 880.680818 C -674.410046 881.672002 -673.490531 882.47734 -672.356239 882.47734 C -671.223624 882.47734 -670.304109 881.672002 -670.304109 880.680818 Z M -670.304109 880.680818 " transform="matrix(2.327993,0,0,1.891676,2513.689794,-899.861609)"/>
</g>
</defs>
<g id="surface1">
<path style="fill-rule:nonzero;fill:rgb(100%,100%,100%);fill-opacity:1;stroke-width:0.2;stroke-linecap:butt;stroke-linejoin:miter;stroke:rgb(95.294118%,95.294118%,95.294118%);stroke-opacity:0.227451;stroke-miterlimit:4;" d="M 208.251967 323.325168 L 431.747857 323.325168 L 431.747857 472.827529 L 208.251967 472.827529 Z M 208.251967 323.325168 " transform="matrix(6.676315,0,0,6.67919,-1389.683804,-2158.882291)"/>
<path style="fill-rule:nonzero;fill:rgb(82.352942%,0%,0%);fill-opacity:1;stroke-width:0.2;stroke-linecap:butt;stroke-linejoin:miter;stroke:rgb(95.294118%,95.294118%,95.294118%);stroke-opacity:0.227451;stroke-miterlimit:4;" d="M 208.251967 323.325168 L 245.374805 323.325168 L 245.374805 472.827529 L 208.251967 472.827529 Z M 208.251967 323.325168 " transform="matrix(6.676315,0,0,6.67919,-1389.683804,-2158.882291)"/>
<path style="fill-rule:nonzero;fill:rgb(94.901961%,94.901961%,94.901961%);fill-opacity:1;stroke-width:3.30564;stroke-linecap:butt;stroke-linejoin:miter;stroke:rgb(0%,0%,0%);stroke-opacity:1;stroke-miterlimit:4;" d="M 355.316715 243.515061 L 354.387053 531.570078 C 378.615554 753.663471 696.085328 729.779553 709.221569 530.599446 L 709.221569 244.485693 Z M 355.316715 243.515061 " transform="matrix(1.226925,0,0,1.227454,217.017753,57.10433)"/>
<path style="fill-rule:nonzero;fill:rgb(100%,79.215688%,0%);fill-opacity:1;stroke-width:3.33073;stroke-linecap:butt;stroke-linejoin:miter;stroke:rgb(0%,0%,0%);stroke-opacity:1;stroke-miterlimit:4;" d="M 347.261773 77.266439 L 364.473242 67.569663 C 345.179586 79.825089 336.96864 110.878957 375.062465 116.750487 C 361.96443 149.825179 377.644504 165.85175 397.568546 173.549978 C 381.512787 181.910145 381.63377 188.278129 395.585056 192.946711 L 405.512056 229.655705 C 391.484359 236.278282 395.75698 240.577705 410.809852 243.511879 C 492.95434 219.53567 572.704632 220.620869 650.436412 242.818115 C 681.452714 238.935586 662.7003 232.446671 661.687861 226.887017 L 670.293595 192.946711 C 678.940718 187.765762 689.061928 182.925331 670.293595 171.47187 C 685.282791 164.502412 701.876608 148.122594 690.153962 118.134831 C 714.554386 112.457428 727.432742 100.303839 704.471382 68.005652 C 716.897642 71.092581 719.186774 74.17951 725.23594 77.266439 C 726.703658 73.536665 719.422373 46.416244 694.124125 57.872888 C 689.205198 60.237411 689.733704 70.745699 690.902148 82.205525 C 693.500105 83.841279 695.05697 85.699801 694.904149 87.485128 C 692.888821 111.09536 685.384672 100.65072 683.951975 89.480493 C 682.949087 70.46883 678.132041 65.81616 668.306922 80.03831 C 654.19963 84.525495 652.572723 96.850934 646.463066 106.359948 C 641.575976 121.259949 638.449513 155.919477 668.969146 136.837801 C 691.112277 135.778061 679.360976 146.244978 666.985657 156.925115 C 654.19963 163.986863 626.545391 151.088592 624.619209 116.056723 L 618.000149 116.056723 C 599.476966 159.891113 553.63384 149.102774 547.170784 120.212939 L 553.127621 109.131819 L 584.239436 131.297241 C 596.366421 104.501425 597.904183 80.28972 583.577211 59.950995 L 556.438743 80.03831 C 544.42319 82.514218 549.109701 76.254435 550.481907 71.725879 L 571.663538 53.022909 C 542.130874 29.355393 518.933915 34.857764 498.185276 51.638564 L 520.691357 76.575858 C 525.53069 84.684615 518.348101 82.501488 514.072296 82.810181 L 491.566215 59.257232 C 469.26708 67.089121 470.849414 118.128466 492.22844 129.912897 L 512.751031 111.900508 C 520.102359 112.575177 524.343143 116.801405 522.015806 128.52537 C 509.993885 141.942372 477.31247 167.808926 449.865176 118.828594 L 443.905156 118.828594 C 442.45654 175.927231 385.371518 163.745 386.979322 140.994016 L 391.61171 134.759693 C 442.058569 174.966146 417.311113 73.35845 390.688416 71.426733 C 384.715661 70.993926 380.385731 83.061591 383.6682 99.435043 L 375.72469 99.435043 C 370.611553 93.471224 369.159753 86.231262 374.613554 76.582222 C 380.649984 68.591214 376.033516 63.941726 373.738017 58.566651 C 354.40934 46.470345 338.210311 63.687134 344.612875 77.266439 L 344.612875 79.344546 " transform="matrix(1.226925,0,0,1.227454,217.017753,57.10433)"/>
<path style="fill-rule:nonzero;fill:rgb(94.901961%,94.901961%,94.901961%);fill-opacity:1;stroke-width:0.926122;stroke-linecap:square;stroke-linejoin:round;stroke:rgb(0%,0%,0%);stroke-opacity:1;stroke-miterlimit:4;" d="M -347.070776 247.317421 C -347.070776 245.159334 -348.797372 243.41133 -350.927905 243.41133 C -353.058437 243.41133 -354.785033 245.159334 -354.785033 247.317421 C -354.785033 249.474609 -353.058437 251.223512 -350.927905 251.223512 C -348.797372 251.223512 -347.070776 249.474609 -347.070776 247.317421 Z M -347.070776 247.317421 " transform="matrix(4.158291,0,0,4.353177,2222.744632,-892.784495)"/>
<path style="fill-rule:nonzero;fill:rgb(94.901961%,94.901961%,94.901961%);fill-opacity:1;stroke-width:0.926122;stroke-linecap:square;stroke-linejoin:round;stroke:rgb(0%,0%,0%);stroke-opacity:1;stroke-miterlimit:4;" d="M -347.06989 247.316814 C -347.06989 245.159625 -348.797425 243.410723 -350.927958 243.410723 C -353.058491 243.410723 -354.785087 245.159625 -354.785087 247.316814 C -354.785087 249.4749 -353.058491 251.223803 -350.927958 251.223803 C -348.797425 251.223803 -347.06989 249.4749 -347.06989 247.316814 Z M -347.06989 247.316814 " transform="matrix(4.158291,0,0,4.353177,2441.014386,-894.48498)"/>
<path style="fill-rule:nonzero;fill:rgb(0%,50.196081%,0%);fill-opacity:1;stroke-width:0.926122;stroke-linecap:square;stroke-linejoin:round;stroke:rgb(0%,0%,0%);stroke-opacity:1;stroke-miterlimit:4;" d="M -347.070323 247.317446 C -347.070407 245.159246 -348.797548 243.410679 -350.927534 243.410654 C -353.058041 243.410499 -354.785009 245.159669 -354.784911 247.316583 C -354.785348 249.474653 -353.058207 251.22322 -350.9277 251.223375 C -348.797193 251.22353 -347.070225 249.47436 -347.070323 247.317446 Z M -347.070323 247.317446 " transform="matrix(7.469606,-0.753782,0.081157,3.029898,3387.649313,-713.981474)"/>
<path style="fill-rule:nonzero;fill:rgb(0%,50.196081%,0%);fill-opacity:1;stroke-width:0.926122;stroke-linecap:square;stroke-linejoin:round;stroke:rgb(0%,0%,0%);stroke-opacity:1;stroke-miterlimit:4;" d="M -347.070324 247.31711 C -347.070422 245.160196 -348.797549 243.410343 -350.927534 243.410318 C -353.058055 243.411449 -354.785009 245.159333 -354.784925 247.317533 C -354.785349 249.474317 -353.058208 251.222885 -350.927701 251.223039 C -348.797194 251.223194 -347.070226 249.474024 -347.070324 247.31711 Z M -347.070324 247.31711 " transform="matrix(-7.469606,-0.753782,-0.081157,3.029898,-1646.661064,-713.968738)"/>
<path style="fill:none;stroke-width:3.33073;stroke-linecap:butt;stroke-linejoin:miter;stroke:rgb(0%,0%,0%);stroke-opacity:1;stroke-miterlimit:4;" d="M 394.922832 192.946711 C 488.503427 163.569968 580.001836 172.735283 670.95582 191.906066 " transform="matrix(1.226925,0,0,1.227454,217.017753,57.10433)"/>
<path style="fill:none;stroke-width:3.33073;stroke-linecap:butt;stroke-linejoin:miter;stroke:rgb(0%,0%,0%);stroke-opacity:1;stroke-miterlimit:4;" d="M 405.512056 228.271361 C 489.232511 207.210232 574.328355 207.773517 660.694524 228.271361 " transform="matrix(1.226925,0,0,1.227454,217.017753,57.10433)"/>
<path style="fill-rule:nonzero;fill:rgb(83.137256%,0%,0%);fill-opacity:1;stroke-width:3.33073;stroke-linecap:butt;stroke-linejoin:miter;stroke:rgb(0%,0%,0%);stroke-opacity:1;stroke-miterlimit:4;" d="M 501.165286 193.984174 L 535.257111 179.090538 L 565.37559 194.331055 L 532.608214 207.490283 Z M 501.165286 193.984174 " transform="matrix(1.226925,0,0,1.227454,217.017753,57.10433)"/>
<path style="fill-rule:nonzero;fill:rgb(83.137256%,0%,0%);fill-opacity:1;stroke-width:3.33073;stroke-linecap:butt;stroke-linejoin:miter;stroke:rgb(0%,0%,0%);stroke-opacity:1;stroke-miterlimit:4;" d="M 392.605046 213.724606 L 403.197454 197.446626 L 430.00481 205.759057 L 408.160954 218.574585 Z M 392.605046 213.724606 " transform="matrix(1.226925,0,0,1.227454,217.017753,57.10433)"/>
<path style="fill-rule:nonzero;fill:rgb(83.137256%,0%,0%);fill-opacity:1;stroke-width:3.33073;stroke-linecap:butt;stroke-linejoin:miter;stroke:rgb(0%,0%,0%);stroke-opacity:1;stroke-miterlimit:4;" d="M 641.499566 205.759057 L 667.975809 202.296605 L 673.604717 213.724606 L 662.681198 220.999575 Z M 641.499566 205.759057 " transform="matrix(1.226925,0,0,1.227454,217.017753,57.10433)"/>
<path style=" stroke:none;fill-rule:nonzero;fill:rgb(0%,0%,0%);fill-opacity:0.431373;" d="M 873.738281 140.894531 C 871.359375 159.972656 864.851562 173.933594 850.589844 178.304688 C 865.769531 182.589844 871.789062 195.730469 872.925781 213.589844 C 871.378906 190.402344 879.894531 178.402344 895.664062 174.476562 C 874.488281 175.238281 877.976562 154.738281 873.738281 140.894531 Z M 873.738281 140.894531 "/>
<path style="fill-rule:nonzero;fill:rgb(94.901961%,94.901961%,94.901961%);fill-opacity:1;stroke-width:0.926122;stroke-linecap:square;stroke-linejoin:round;stroke:rgb(0%,0%,0%);stroke-opacity:1;stroke-miterlimit:4;" d="M -347.069989 247.316879 C -347.069989 245.159852 -348.797088 243.410753 -350.927492 243.410753 C -353.057896 243.410753 -354.784995 245.159852 -354.784995 247.316879 C -354.784995 249.473906 -353.057896 251.223005 -350.927492 251.223005 C -348.797088 251.223005 -347.069989 249.473906 -347.069989 247.316879 Z M -347.069989 247.316879 " transform="matrix(2.469822,0,0,2.662084,1738.435313,-481.987766)"/>
<path style="fill-rule:nonzero;fill:rgb(100%,100%,100%);fill-opacity:1;stroke-width:3.33073;stroke-linecap:butt;stroke-linejoin:miter;stroke:rgb(0%,0%,0%);stroke-opacity:1;stroke-miterlimit:4;" d="M 359.506558 111.556808 C 349.955244 121.463622 358.993971 133.954546 370.098966 137.184683 L 375.393578 116.056723 L 358.844334 109.4787 L 357.523068 108.438055 " transform="matrix(1.226925,0,0,1.227454,217.017753,57.10433)"/>
<path style="fill-rule:nonzero;fill:rgb(100%,100%,100%);fill-opacity:1;stroke-width:3.33073;stroke-linecap:butt;stroke-linejoin:miter;stroke:rgb(0%,0%,0%);stroke-opacity:1;stroke-miterlimit:4;" d="M 706.012327 113.806766 C 715.566826 123.71358 706.524915 136.204503 695.423103 139.43464 L 690.125308 118.309863 L 706.674552 111.728658 L 707.999001 110.691195 " transform="matrix(1.226925,0,0,1.227454,217.017753,57.10433)"/>
<path style="fill:none;stroke-width:3.33073;stroke-linecap:butt;stroke-linejoin:miter;stroke:rgb(0%,0%,0%);stroke-opacity:1;stroke-miterlimit:4;" d="M 395.253944 173.549978 C 488.952339 160.45758 581.998061 157.59342 673.93583 172.165633 " transform="matrix(1.226925,0,0,1.227454,217.017753,57.10433)"/>
<path style="fill-rule:nonzero;fill:rgb(100%,79.215688%,0%);fill-opacity:1;stroke-width:3.33073;stroke-linecap:butt;stroke-linejoin:miter;stroke:rgb(0%,0%,0%);stroke-opacity:1;stroke-miterlimit:4;" d="M 421.399076 170.778106 C 433.255441 168.050789 444.137572 162.542053 449.865176 145.150232 C 485.405618 180.634002 516.562005 162.010592 534.925999 128.52537 C 561.459551 183.074903 599.467415 161.151344 617.337924 144.112769 C 625.322823 166.570972 643.772779 175.796753 672.942493 171.47187 " transform="matrix(1.226925,0,0,1.227454,217.017753,57.10433)"/>
<path style="fill-rule:nonzero;fill:rgb(0%,0%,0%);fill-opacity:1;stroke-width:0.571349;stroke-linecap:butt;stroke-linejoin:miter;stroke:rgb(0%,0%,0%);stroke-opacity:1;stroke-miterlimit:4;" d="M 354.807311 247.776296 L 354.956949 539.074179 C 362.200029 566.185052 376.924972 588.58279 403.996581 603.298212 C 428.078628 618.312779 460.046878 621.313783 489.792855 627.697679 C 506.698681 633.235057 521.818412 639.361178 530.974939 647.447659 L 561.860706 628.859255 L 638.019704 610.614551 L 681.172542 586.536506 L 702.417849 553.016277 L 706.337072 540.063906 L 708.28554 247.776296 Z M 354.807311 247.776296 " transform="matrix(1.226925,0,0,1.227454,217.017753,57.10433)"/>
<path style="fill-rule:nonzero;fill:rgb(100%,100%,100%);fill-opacity:1;stroke-width:0.571349;stroke-linecap:butt;stroke-linejoin:miter;stroke:rgb(0%,0%,0%);stroke-opacity:1;stroke-miterlimit:4;" d="M 354.157822 388.909411 C 357.564457 386.220282 360.725943 383.652084 367.389576 379.31129 C 384.820725 363.634783 402.251874 371.753088 419.683023 379.31129 C 447.490083 396.015712 477.216957 395.598817 506.628638 378.671627 C 526.998408 364.592685 547.371362 370.725172 567.741132 379.950952 C 590.310888 393.562081 610.254032 395.436515 629.487196 378.671627 C 646.781443 371.282092 664.90347 364.490849 693.751623 375.470132 L 707.613764 383.149265 L 706.352991 406.186665 L 682.411029 394.669556 C 669.539041 389.288116 655.368074 391.805396 640.82779 396.588544 C 613.52695 418.30843 586.222925 417.391899 558.922085 401.705845 C 544.079342 395.220112 533.225865 391.872226 505.367865 400.42652 C 465.822239 423.667593 443.644087 414.336794 414.639929 400.42652 C 395.298517 392.136365 381.305841 395.875686 374.94785 400.42652 C 365.033585 410.330151 359.745341 410.836153 352.897048 414.505461 Z M 354.157822 388.909411 " transform="matrix(1.226925,0,0,1.227454,217.017753,57.10433)"/>
<path style="fill-rule:nonzero;fill:rgb(100%,100%,100%);fill-opacity:1;stroke-width:0.571349;stroke-linecap:butt;stroke-linejoin:miter;stroke:rgb(0%,0%,0%);stroke-opacity:1;stroke-miterlimit:4;" d="M 354.157822 437.542861 C 357.564457 434.85055 360.725943 432.285535 367.389576 427.94474 C 384.820725 412.265051 402.251874 420.386538 419.683023 427.94474 C 447.490083 444.649162 477.216957 444.229085 506.628638 427.301895 C 526.998408 413.226136 547.371362 419.358622 567.741132 428.584403 C 590.310888 442.195531 610.254032 444.066783 629.487196 427.301895 C 646.781443 419.915543 664.90347 413.121117 693.751623 424.103582 L 707.613764 431.782716 L 706.352991 454.820116 L 682.411029 443.299824 C 669.539041 437.921567 655.368074 440.438846 640.82779 445.221994 C 613.52695 466.938698 586.222925 466.025349 558.922085 450.339295 C 544.079342 443.85038 533.225865 440.502494 505.367865 449.05997 C 465.822239 472.301044 443.644087 462.970244 414.639929 449.05997 C 395.298517 440.769816 381.305841 444.505954 374.94785 449.05997 C 365.033585 458.963602 359.745341 459.466421 352.897048 463.138911 Z M 354.157822 437.542861 " transform="matrix(1.226925,0,0,1.227454,217.017753,57.10433)"/>
<path style="fill-rule:nonzero;fill:rgb(100%,100%,100%);fill-opacity:1;stroke-width:0.571349;stroke-linecap:butt;stroke-linejoin:miter;stroke:rgb(0%,0%,0%);stroke-opacity:1;stroke-miterlimit:4;" d="M 352.209354 491.325436 C 357.599479 491.112215 364.040249 487.691134 371.108221 482.366978 C 388.510716 467.721569 408.956897 463.5749 434.745446 477.886157 C 457.846892 488.330797 480.948337 490.412087 504.049783 475.327507 C 523.15878 461.780026 542.27096 466.960975 561.38314 475.327507 C 584.672429 486.78415 606.538571 480.899891 628.169115 472.129194 C 665.355566 455.106532 684.703345 470.299313 707.553273 479.168665 L 705.662113 542.517537 L 699.991816 561.713779 L 682.350538 584.751179 L 661.56051 600.749108 L 628.796318 613.545542 L 590.995399 621.224676 L 559.49198 630.825979 L 536.810792 640.4241 L 530.510108 646.181064 L 504.68017 632.105304 L 444.825266 616.107375 L 412.061074 607.148917 L 377.873736 583.172708 L 359.137241 559.155129 L 354.29154 544.436525 L 354.393421 518.175352 Z M 352.209354 491.325436 " transform="matrix(1.226925,0,0,1.227454,217.017753,57.10433)"/>
<path style=" stroke:none;fill-rule:nonzero;fill:rgb(13.725491%,12.156863%,12.54902%);fill-opacity:1;" d="M 999.96875 356.242188 C 995.878906 355.132812 999.878906 356.195312 999.878906 356.195312 C 998.757812 355.800781 997.46875 355.46875 996.320312 355.101562 L 983.660156 355.101562 L 983.492188 356.242188 L 756.621094 356.242188 L 756.5 355.496094 L 742.476562 355.496094 C 739.539062 356.851562 730.117188 357.59375 727.375 355.496094 L 721.820312 355.496094 L 722.183594 356.242188 L 650.882812 356.242188 C 649.992188 356.242188 649.277344 356.972656 649.277344 357.851562 L 649.277344 713.34375 C 649.277344 733.578125 660.078125 755.285156 679.703125 774.378906 C 699.464844 793.667969 724.90625 807.523438 753.394531 813.917969 C 796.949219 823.65625 853.707031 837.144531 867.1875 852.699219 C 867.898438 853.488281 869.671875 853.65625 870.398438 852.667969 C 885.285156 833.058594 948.101562 822.210938 984.839844 813.917969 C 1018.429688 806.308594 1038.785156 793.667969 1058.5625 774.378906 C 1078.15625 755.285156 1088.957031 733.578125 1088.957031 713.34375 L 1088.957031 357.851562 C 1088.957031 356.972656 1088.257812 356.242188 1087.367188 356.242188 L 1016.65625 356.242188 L 1017.082031 355.332031 C 1017.117188 355.253906 1017.117188 355.164062 1017.128906 355.101562 L 1013.28125 355.101562 C 1011.023438 356.851562 1004.089844 357.320312 999.96875 356.242188 Z M 1083.941406 361.269531 L 1083.941406 713.34375 C 1083.941406 750.074219 1042.71875 796.464844 982.039062 809.664062 C 925.671875 821.910156 884.132812 830.082031 869.183594 846.804688 L 868.214844 846.621094 C 845.816406 827.648438 810.5 822.441406 754.105469 809.511719 C 702.828125 797.742188 654.304688 752.71875 654.304688 713.34375 L 654.304688 361.269531 L 1083.941406 361.269531 "/>
<path style="fill-rule:nonzero;fill:rgb(100%,79.215688%,0%);fill-opacity:1;stroke-width:0.0187462;stroke-linecap:butt;stroke-linejoin:miter;stroke:rgb(0%,0%,0%);stroke-opacity:1;stroke-miterlimit:4;" d="M 405.992805 287.365363 L 421.160293 312.26765 L 406.323918 336.807143 L 437.97379 336.447532 L 451.492084 357.378183 L 465.669418 336.447532 L 495.345352 335.725127 L 481.495946 311.185634 L 497.650403 287.365363 L 466.00053 287.728157 L 451.492084 266.075101 L 436.986821 287.365363 Z M 405.992805 287.365363 " transform="matrix(1.226925,0,0,1.227454,217.017753,57.10433)"/>
<path style="fill-rule:nonzero;fill:rgb(100%,79.215688%,0%);fill-opacity:1;stroke-width:0.0187462;stroke-linecap:butt;stroke-linejoin:miter;stroke:rgb(0%,0%,0%);stroke-opacity:1;stroke-miterlimit:4;" d="M 572.796961 285.315897 L 587.964448 310.218184 L 573.128073 334.757677 L 604.777946 334.398066 L 618.296239 355.328717 L 632.473574 334.398066 L 662.146324 333.675661 L 648.300102 309.136168 L 664.454558 285.315897 L 632.804686 285.678691 L 618.296239 264.025635 L 603.787793 285.315897 Z M 572.796961 285.315897 " transform="matrix(1.226925,0,0,1.227454,217.017753,57.10433)"/>
<path style=" stroke:none;fill-rule:nonzero;fill:rgb(100%,100%,100%);fill-opacity:1;" d="M 651.972656 662.242188 C 643.996094 787.128906 720.710938 897.839844 863.683594 901.726562 C 1046.707031 895.257812 1089.574219 766.601562 1086.167969 677.070312 Z M 651.972656 662.242188 "/>
<path style="fill:none;stroke-width:3.30564;stroke-linecap:butt;stroke-linejoin:miter;stroke:rgb(0%,0%,0%);stroke-opacity:1;stroke-miterlimit:4;" d="M 354.804128 244.253378 L 353.874466 532.305212 C 378.102967 754.398606 695.572741 730.51787 708.708982 531.33458 L 708.708982 245.220828 Z M 354.804128 244.253378 " transform="matrix(1.226925,0,0,1.227454,217.017753,57.10433)"/>
<path style=" stroke:none;fill-rule:nonzero;fill:rgb(83.137256%,0%,0%);fill-opacity:1;" d="M 874.386719 670.898438 L 776.382812 762.894531 L 870.445312 856.71875 L 957.75 775.253906 L 959.441406 754.65625 Z M 874.386719 670.898438 "/>
<path style=" stroke:none;fill-rule:nonzero;fill:rgb(100%,100%,100%);fill-opacity:1;" d="M 874.246094 696.53125 L 811.164062 756.945312 L 930.007812 756.03125 Z M 874.246094 696.53125 "/>
<path style=" stroke:none;fill-rule:nonzero;fill:rgb(100%,100%,100%);fill-opacity:1;" d="M 873.964844 829.257812 L 810.882812 768.84375 L 929.726562 769.761719 Z M 873.964844 829.257812 "/>
<path style="fill-rule:nonzero;fill:rgb(83.137256%,0%,0%);fill-opacity:1;stroke-width:1.64283;stroke-linecap:butt;stroke-linejoin:miter;stroke:rgb(0%,0%,0%);stroke-opacity:1;stroke-miterlimit:4;" d="M 606.535387 570.099405 L 455.589598 572.473477 C 453.657048 573.759166 449.365324 574.472024 455.589598 577.746715 L 606.860132 584.865746 C 609.107875 580.464485 613.348658 576.508761 606.535387 570.099405 Z M 606.535387 570.099405 " transform="matrix(1.226925,0,0,1.227454,217.017753,57.10433)"/>
<use xlink:href="#surface5" mask="url(#mask0)"/>
</g>
</svg>
