<?xml version="1.0" encoding="UTF-8" standalone="no"?>
<!-- Created with Inkscape (http://www.inkscape.org/) -->

<svg
   xmlns:dc="http://purl.org/dc/elements/1.1/"
   xmlns:cc="http://creativecommons.org/ns#"
   xmlns:rdf="http://www.w3.org/1999/02/22-rdf-syntax-ns#"
   xmlns:svg="http://www.w3.org/2000/svg"
   xmlns="http://www.w3.org/2000/svg"
   xmlns:sodipodi="http://sodipodi.sourceforge.net/DTD/sodipodi-0.dtd"
   xmlns:inkscape="http://www.inkscape.org/namespaces/inkscape"
   width="1015.625"
   height="709.375"
   id="svg5893"
   version="1.1"
   inkscape:version="0.48.4 r9939"
   sodipodi:docname="Westerschouwen_vlag.svg">
  <defs
     id="defs5895">
    <inkscape:perspective
       sodipodi:type="inkscape:persp3d"
       inkscape:vp_x="0 : 372.04724 : 1"
       inkscape:vp_y="0 : 1000 : 0"
       inkscape:vp_z="1052.3622 : 372.04724 : 1"
       inkscape:persp3d-origin="526.18109 : 248.03149 : 1"
       id="perspective5902" />
    <inkscape:perspective
       id="perspective5912"
       inkscape:persp3d-origin="0.5 : 0.33333333 : 1"
       inkscape:vp_z="1 : 0.5 : 1"
       inkscape:vp_y="0 : 1000 : 0"
       inkscape:vp_x="0 : 0.5 : 1"
       sodipodi:type="inkscape:persp3d" />
    <inkscape:perspective
       id="perspective6479"
       inkscape:persp3d-origin="0.5 : 0.33333333 : 1"
       inkscape:vp_z="1 : 0.5 : 1"
       inkscape:vp_y="0 : 1000 : 0"
       inkscape:vp_x="0 : 0.5 : 1"
       sodipodi:type="inkscape:persp3d" />
    <inkscape:perspective
       id="perspective6479-6"
       inkscape:persp3d-origin="0.5 : 0.33333333 : 1"
       inkscape:vp_z="1 : 0.5 : 1"
       inkscape:vp_y="0 : 1000 : 0"
       inkscape:vp_x="0 : 0.5 : 1"
       sodipodi:type="inkscape:persp3d" />
    <inkscape:perspective
       id="perspective6479-4"
       inkscape:persp3d-origin="0.5 : 0.33333333 : 1"
       inkscape:vp_z="1 : 0.5 : 1"
       inkscape:vp_y="0 : 1000 : 0"
       inkscape:vp_x="0 : 0.5 : 1"
       sodipodi:type="inkscape:persp3d" />
    <inkscape:perspective
       id="perspective6479-3"
       inkscape:persp3d-origin="0.5 : 0.33333333 : 1"
       inkscape:vp_z="1 : 0.5 : 1"
       inkscape:vp_y="0 : 1000 : 0"
       inkscape:vp_x="0 : 0.5 : 1"
       sodipodi:type="inkscape:persp3d" />
    <inkscape:perspective
       id="perspective6479-1"
       inkscape:persp3d-origin="0.5 : 0.33333333 : 1"
       inkscape:vp_z="1 : 0.5 : 1"
       inkscape:vp_y="0 : 1000 : 0"
       inkscape:vp_x="0 : 0.5 : 1"
       sodipodi:type="inkscape:persp3d" />
    <inkscape:perspective
       id="perspective6479-8"
       inkscape:persp3d-origin="0.5 : 0.33333333 : 1"
       inkscape:vp_z="1 : 0.5 : 1"
       inkscape:vp_y="0 : 1000 : 0"
       inkscape:vp_x="0 : 0.5 : 1"
       sodipodi:type="inkscape:persp3d" />
    <inkscape:perspective
       id="perspective6479-7"
       inkscape:persp3d-origin="0.5 : 0.33333333 : 1"
       inkscape:vp_z="1 : 0.5 : 1"
       inkscape:vp_y="0 : 1000 : 0"
       inkscape:vp_x="0 : 0.5 : 1"
       sodipodi:type="inkscape:persp3d" />
    <inkscape:perspective
       id="perspective6479-89"
       inkscape:persp3d-origin="0.5 : 0.33333333 : 1"
       inkscape:vp_z="1 : 0.5 : 1"
       inkscape:vp_y="0 : 1000 : 0"
       inkscape:vp_x="0 : 0.5 : 1"
       sodipodi:type="inkscape:persp3d" />
    <inkscape:perspective
       id="perspective6479-9"
       inkscape:persp3d-origin="0.5 : 0.33333333 : 1"
       inkscape:vp_z="1 : 0.5 : 1"
       inkscape:vp_y="0 : 1000 : 0"
       inkscape:vp_x="0 : 0.5 : 1"
       sodipodi:type="inkscape:persp3d" />
    <inkscape:perspective
       id="perspective6479-31"
       inkscape:persp3d-origin="0.5 : 0.33333333 : 1"
       inkscape:vp_z="1 : 0.5 : 1"
       inkscape:vp_y="0 : 1000 : 0"
       inkscape:vp_x="0 : 0.5 : 1"
       sodipodi:type="inkscape:persp3d" />
    <inkscape:perspective
       id="perspective6479-34"
       inkscape:persp3d-origin="0.5 : 0.33333333 : 1"
       inkscape:vp_z="1 : 0.5 : 1"
       inkscape:vp_y="0 : 1000 : 0"
       inkscape:vp_x="0 : 0.5 : 1"
       sodipodi:type="inkscape:persp3d" />
    <inkscape:perspective
       id="perspective6479-38"
       inkscape:persp3d-origin="0.5 : 0.33333333 : 1"
       inkscape:vp_z="1 : 0.5 : 1"
       inkscape:vp_y="0 : 1000 : 0"
       inkscape:vp_x="0 : 0.5 : 1"
       sodipodi:type="inkscape:persp3d" />
    <inkscape:perspective
       id="perspective6479-2"
       inkscape:persp3d-origin="0.5 : 0.33333333 : 1"
       inkscape:vp_z="1 : 0.5 : 1"
       inkscape:vp_y="0 : 1000 : 0"
       inkscape:vp_x="0 : 0.5 : 1"
       sodipodi:type="inkscape:persp3d" />
    <inkscape:perspective
       id="perspective6479-93"
       inkscape:persp3d-origin="0.5 : 0.33333333 : 1"
       inkscape:vp_z="1 : 0.5 : 1"
       inkscape:vp_y="0 : 1000 : 0"
       inkscape:vp_x="0 : 0.5 : 1"
       sodipodi:type="inkscape:persp3d" />
    <inkscape:perspective
       id="perspective6479-86"
       inkscape:persp3d-origin="0.5 : 0.33333333 : 1"
       inkscape:vp_z="1 : 0.5 : 1"
       inkscape:vp_y="0 : 1000 : 0"
       inkscape:vp_x="0 : 0.5 : 1"
       sodipodi:type="inkscape:persp3d" />
    <inkscape:perspective
       id="perspective6479-28"
       inkscape:persp3d-origin="0.5 : 0.33333333 : 1"
       inkscape:vp_z="1 : 0.5 : 1"
       inkscape:vp_y="0 : 1000 : 0"
       inkscape:vp_x="0 : 0.5 : 1"
       sodipodi:type="inkscape:persp3d" />
    <inkscape:perspective
       id="perspective6479-24"
       inkscape:persp3d-origin="0.5 : 0.33333333 : 1"
       inkscape:vp_z="1 : 0.5 : 1"
       inkscape:vp_y="0 : 1000 : 0"
       inkscape:vp_x="0 : 0.5 : 1"
       sodipodi:type="inkscape:persp3d" />
    <inkscape:perspective
       id="perspective6479-65"
       inkscape:persp3d-origin="0.5 : 0.33333333 : 1"
       inkscape:vp_z="1 : 0.5 : 1"
       inkscape:vp_y="0 : 1000 : 0"
       inkscape:vp_x="0 : 0.5 : 1"
       sodipodi:type="inkscape:persp3d" />
    <inkscape:perspective
       id="perspective6479-90"
       inkscape:persp3d-origin="0.5 : 0.33333333 : 1"
       inkscape:vp_z="1 : 0.5 : 1"
       inkscape:vp_y="0 : 1000 : 0"
       inkscape:vp_x="0 : 0.5 : 1"
       sodipodi:type="inkscape:persp3d" />
    <inkscape:perspective
       id="perspective6479-13"
       inkscape:persp3d-origin="0.5 : 0.33333333 : 1"
       inkscape:vp_z="1 : 0.5 : 1"
       inkscape:vp_y="0 : 1000 : 0"
       inkscape:vp_x="0 : 0.5 : 1"
       sodipodi:type="inkscape:persp3d" />
    <inkscape:perspective
       id="perspective6479-344"
       inkscape:persp3d-origin="0.5 : 0.33333333 : 1"
       inkscape:vp_z="1 : 0.5 : 1"
       inkscape:vp_y="0 : 1000 : 0"
       inkscape:vp_x="0 : 0.5 : 1"
       sodipodi:type="inkscape:persp3d" />
    <inkscape:perspective
       id="perspective6479-61"
       inkscape:persp3d-origin="0.5 : 0.33333333 : 1"
       inkscape:vp_z="1 : 0.5 : 1"
       inkscape:vp_y="0 : 1000 : 0"
       inkscape:vp_x="0 : 0.5 : 1"
       sodipodi:type="inkscape:persp3d" />
    <inkscape:perspective
       id="perspective6479-96"
       inkscape:persp3d-origin="0.5 : 0.33333333 : 1"
       inkscape:vp_z="1 : 0.5 : 1"
       inkscape:vp_y="0 : 1000 : 0"
       inkscape:vp_x="0 : 0.5 : 1"
       sodipodi:type="inkscape:persp3d" />
    <inkscape:perspective
       id="perspective6699"
       inkscape:persp3d-origin="0.5 : 0.33333333 : 1"
       inkscape:vp_z="1 : 0.5 : 1"
       inkscape:vp_y="0 : 1000 : 0"
       inkscape:vp_x="0 : 0.5 : 1"
       sodipodi:type="inkscape:persp3d" />
  </defs>
  <sodipodi:namedview
     inkscape:document-units="mm"
     pagecolor="#ffffff"
     bordercolor="#666666"
     borderopacity="1.0"
     inkscape:pageopacity="0.0"
     inkscape:pageshadow="2"
     inkscape:zoom="0.64"
     inkscape:cx="1039.6258"
     inkscape:cy="408.39164"
     inkscape:current-layer="layer1"
     id="namedview5897"
     showgrid="false"
     inkscape:window-width="1600"
     inkscape:window-height="837"
     inkscape:window-x="-8"
     inkscape:window-y="-8"
     inkscape:window-maximized="1"
     units="mm"
     fit-margin-top="0"
     fit-margin-left="0"
     fit-margin-right="0"
     fit-margin-bottom="0" />
  <metadata
     id="metadata5899">
    <rdf:RDF>
      <cc:Work
         rdf:about="">
        <dc:format>image/svg+xml</dc:format>
        <dc:type
           rdf:resource="http://purl.org/dc/dcmitype/StillImage" />
        <dc:title />
      </cc:Work>
    </rdf:RDF>
  </metadata>
  <g
     inkscape:label="Layer 1"
     inkscape:groupmode="layer"
     id="layer1"
     transform="translate(-16.540281,-17.531984)">
    <rect
       style="fill:#da121a;fill-opacity:1;fill-rule:evenodd;stroke:none"
       id="rect9482"
       width="1015.625"
       height="709.375"
       x="16.540281"
       y="17.531984" />
    <path
       inkscape:connector-curvature="0"
       style="fill:#fcdd09;stroke:#000000;stroke-width:0.02655797000000000px;stroke-linecap:butt;stroke-linejoin:miter;stroke-opacity:1;fill-opacity:1"
       d="m 11.193356,13.171562 0,714.822088 1024.950244,0 1.8499,-714.822088 -1026.800144,0 z"
       id="path5918" />
    <path
       inkscape:connector-curvature="0"
       style="fill:#ffffff;stroke:#000000;stroke-width:0.02655797px;stroke-linecap:butt;stroke-linejoin:miter;stroke-opacity:1"
       d="M 11.193356,83.700659 412.66316,369.62951 9.729313,648.12781 l 1.464043,79.86584 109.155554,0 403.31925,-278.30408 403.31979,278.30408 109.15565,-1.90621 1.8499,-72.43536 L 634.67368,369.62951 1034.293,93.23163 l 0,-78.153933 L 930.68844,13.171562 527.36865,291.47563 124.04888,13.171562 l -112.855524,0 z"
       id="path5920"
       sodipodi:nodetypes="ccccccccccccccccc" />
    <path
       inkscape:connector-curvature="0"
       style="fill:none;stroke:#000000;stroke-width:0.02655797px;stroke-linecap:butt;stroke-linejoin:miter;stroke-opacity:1"
       d="m 9.3433666,68.45109 941.6960034,657.63635 85.10423,1.90621 0,-59.09195 -945.396061,-655.730138 -79.554183,0 -1.8499894,55.279528 z"
       id="path5922" />
    <path
       inkscape:connector-curvature="0"
       style="fill:#da121a;stroke:#000000;stroke-width:0.02655797000000000px;stroke-linecap:butt;stroke-linejoin:miter;stroke-opacity:1;fill-opacity:1"
       d="m 9.3433666,670.80791 1.8499894,57.18574 83.25415,-3.81241 941.696094,-651.917737 -1.8506,-59.091941 -79.55367,0 L 9.3433666,670.80791 z"
       id="path5924" />
    <path
       inkscape:connector-curvature="0"
       style="fill:#0f47af;fill-opacity:1;stroke:#000000;stroke-width:0.02655797000000000px;stroke-linecap:butt;stroke-linejoin:miter;stroke-opacity:1"
       d="m 12.673446,12.364396 0,48.523722 947.144454,671.244962 75.8763,0 0,-59.3068 L 88.549671,15.060149 12.673446,12.364396 z"
       id="path5926"
       sodipodi:nodetypes="ccccccc" />
    <path
       inkscape:connector-curvature="0"
       style="fill:#ffffff;stroke:#000000;stroke-width:5.81817865px;stroke-linecap:butt;stroke-linejoin:miter;stroke-opacity:1"
       d="m 420.72166,247.68862 -0.87328,200.37623 c 3.24501,14.50485 13.95007,22.693 28.81647,27.35769 l 42.78785,0 c 13.6282,4.45849 20.98298,11.57316 25.32367,19.96368 6.46188,-8.01511 9.64925,-17.13906 27.06991,-21.4425 l 38.42207,1.47882 c 20.84518,-6.18883 27.53903,-15.80113 32.30973,-25.87887 l 0,-199.63688 -193.85642,-2.21817 z"
       id="path6440"
       sodipodi:nodetypes="cccccccccc" />
    <path
       inkscape:connector-curvature="0"
       style="fill:#000000;stroke:#000000;stroke-width:2.0333879px;stroke-linecap:butt;stroke-linejoin:miter;stroke-opacity:1"
       d="m 456.31361,273.4912 18.26797,34.89416 0,2.8017 8.35997,0 0,-6.36755 21.36409,0 0.30961,5.60344 19.81625,0 0,-5.34873 25.69889,0 0.92906,6.11284 7.4309,0.25471 0,-2.54702 21.67392,-35.65826 -17.95836,0 -8.35995,13.24448 -6.50207,0 -0.30961,-14.77269 -21.67393,0 0,13.24448 -17.64877,0 0,-12.73508 -20.74508,0 0,13.49919 -8.35974,0 -4.954,-12.22567 -17.33915,0 z"
       id="path6442" />
    <path
       inkscape:connector-curvature="0"
       style="fill:#000000;stroke:#000000;stroke-width:2.0333879px;stroke-linecap:butt;stroke-linejoin:miter;stroke-opacity:1"
       d="m 469.9372,308.13065 0.3096,6.36754 17.33914,0.25471 -0.3096,-6.36754 13.00413,0 -0.30962,5.85812 29.10506,0.50942 0.61921,-6.36754 16.10048,0 0,6.11283 17.33915,0.7641 0,-6.36754 7.1215,0 4.64441,4.07523 -0.30962,7.38636 c -14.48897,10.71763 -23.12894,24.71585 -19.50665,45.59163 -0.0381,20.08605 13.01221,38.4724 28.48584,56.5438 l -0.30961,28.52661 c -13.41711,4.06395 -26.83443,3.67529 -40.25152,3.82053 l -0.61923,-26.23429 c -6.88946,-21.37003 -43.24607,-29.52472 -51.7078,0.25471 l -0.30963,26.23429 c -13.41709,0.62908 -26.83441,-0.12929 -40.2515,-3.56582 l -0.30962,-27.76251 c 14.52776,-18.47502 28.17128,-37.08639 29.72428,-57.56262 -1.88189,-16.50822 -3.1201,-33.14878 -21.05471,-46.35575 l 0.30961,-8.15044 3.09634,-3.05643 8.05036,-0.5094 z"
       id="path6444"
       sodipodi:nodetypes="ccccccccccccccccccccccccccccc" />
    <path
       inkscape:connector-curvature="0"
       style="fill:none;stroke:#000000;stroke-width:2.0333879px;stroke-linecap:butt;stroke-linejoin:miter;stroke-opacity:1"
       d="m 486.9665,428.34993 56.66182,-0.7641"
       id="path6446" />
    <path
       inkscape:connector-curvature="0"
       style="fill:none;stroke:#000000;stroke-width:2.0333879px;stroke-linecap:butt;stroke-linejoin:miter;stroke-opacity:1"
       d="m 507.09236,427.84051 -0.3096,-21.39495"
       id="path6448" />
    <path
       inkscape:connector-curvature="0"
       style="fill:none;stroke:#000000;stroke-width:2.0333879px;stroke-linecap:butt;stroke-linejoin:miter;stroke-opacity:1"
       d="m 527.83724,428.60462 0.3096,-21.64965"
       id="path6450" />
    <path
       inkscape:connector-curvature="0"
       style="fill:none;stroke:#000000;stroke-width:2.0333879px;stroke-linecap:butt;stroke-linejoin:miter;stroke-opacity:1"
       d="m 517.30999,427.84051 0.30962,-23.68726"
       id="path6452" />
    <path
       inkscape:connector-curvature="0"
       style="fill:#ffffff;stroke:#000000;stroke-width:2.0333879px;stroke-linecap:butt;stroke-linejoin:miter;stroke-opacity:1"
       d="m 486.96671,358.30692 -0.3096,4.83932 5.57324,0 0,-4.83932 -5.26364,0 z"
       id="path6456" />
    <path
       inkscape:connector-curvature="0"
       style="fill:#ffffff;stroke:#000000;stroke-width:2.0333879px;stroke-linecap:butt;stroke-linejoin:miter;stroke-opacity:1"
       d="m 486.65711,349.01031 -0.30961,4.83934 5.57323,0 0,-4.83934 -5.26362,0 z"
       id="path6456-7" />
    <path
       inkscape:connector-curvature="0"
       style="fill:#ffffff;stroke:#000000;stroke-width:2.0333879px;stroke-linecap:butt;stroke-linejoin:miter;stroke-opacity:1"
       d="m 495.63607,342.13335 -0.30961,4.83933 5.57323,0 0,-4.83933 -5.26362,0 z"
       id="path6456-1" />
    <path
       inkscape:connector-curvature="0"
       style="fill:#ffffff;stroke:#000000;stroke-width:2.0333879px;stroke-linecap:butt;stroke-linejoin:miter;stroke-opacity:1"
       d="m 503.68642,339.33161 -0.30962,4.83934 5.57324,0 0,-4.83934 -5.26362,0 z"
       id="path6456-2" />
    <path
       inkscape:connector-curvature="0"
       style="fill:#ffffff;stroke:#000000;stroke-width:2.0333879px;stroke-linecap:butt;stroke-linejoin:miter;stroke-opacity:1"
       d="m 512.35598,338.82222 -0.30961,4.83934 5.57324,0 0,-4.83934 -5.26363,0 z"
       id="path6456-22" />
    <path
       inkscape:connector-curvature="0"
       style="fill:#ffffff;stroke:#000000;stroke-width:2.0333879px;stroke-linecap:butt;stroke-linejoin:miter;stroke-opacity:1"
       d="m 524.4315,339.07692 -0.3096,4.83935 5.57322,0 0,-4.83935 -5.26362,0 z"
       id="path6456-6" />
    <path
       inkscape:connector-curvature="0"
       style="fill:#ffffff;stroke:#000000;stroke-width:2.0333879px;stroke-linecap:butt;stroke-linejoin:miter;stroke-opacity:1"
       d="m 534.02991,342.13335 -0.3096,4.83933 5.57322,0 0,-4.83933 -5.26362,0 z"
       id="path6456-5" />
    <path
       inkscape:connector-curvature="0"
       style="fill:#ffffff;stroke:#000000;stroke-width:2.0333879px;stroke-linecap:butt;stroke-linejoin:miter;stroke-opacity:1"
       d="m 512.35598,345.18976 -0.30961,4.83934 5.57324,0 0,-4.83934 -5.26363,0 z"
       id="path6456-61" />
    <path
       inkscape:connector-curvature="0"
       style="fill:#ffffff;stroke:#000000;stroke-width:2.0333879px;stroke-linecap:butt;stroke-linejoin:miter;stroke-opacity:1"
       d="m 511.73677,352.06672 -0.30962,4.83933 5.57324,0 0,-4.83933 -5.26362,0 z"
       id="path6456-27" />
    <path
       inkscape:connector-curvature="0"
       style="fill:#ffffff;stroke:#000000;stroke-width:2.0333879px;stroke-linecap:butt;stroke-linejoin:miter;stroke-opacity:1"
       d="m 537.43587,348.50089 -0.30962,4.83935 5.57324,0 0,-4.83935 -5.26362,0 z"
       id="path6456-54" />
    <path
       inkscape:connector-curvature="0"
       style="fill:#ffffff;stroke:#000000;stroke-width:2.0333879px;stroke-linecap:butt;stroke-linejoin:miter;stroke-opacity:1"
       d="m 541.46082,358.43426 -0.30961,4.83933 5.57322,0 0,-4.83933 -5.26361,0 z"
       id="path6456-23" />
    <path
       inkscape:connector-curvature="0"
       style="fill:#ffffff;stroke:#000000;stroke-width:2.0333879px;stroke-linecap:butt;stroke-linejoin:miter;stroke-opacity:1"
       d="m 524.4315,357.92486 -0.3096,4.83934 5.57322,0 0,-4.83934 -5.26362,0 z"
       id="path6456-11" />
    <path
       inkscape:connector-curvature="0"
       style="fill:#ffffff;stroke:#000000;stroke-width:2.0333879px;stroke-linecap:butt;stroke-linejoin:miter;stroke-opacity:1"
       d="m 533.10109,357.92486 -0.30961,4.83934 5.57322,0 0,-4.83934 -5.26361,0 z"
       id="path6456-74" />
    <path
       inkscape:connector-curvature="0"
       style="fill:#ffffff;stroke:#000000;stroke-width:2.0333879px;stroke-linecap:butt;stroke-linejoin:miter;stroke-opacity:1"
       d="m 512.35598,357.92486 -0.30961,4.83934 5.57324,0 0,-4.83934 -5.26363,0 z"
       id="path6456-77" />
    <path
       inkscape:connector-curvature="0"
       style="fill:#ffffff;stroke:#000000;stroke-width:2.0333879px;stroke-linecap:butt;stroke-linejoin:miter;stroke-opacity:1"
       d="m 495.32646,357.92486 -0.30962,4.83934 5.57324,0 0,-4.83934 -5.26362,0 z"
       id="path6456-19" />
    <path
       inkscape:connector-curvature="0"
       style="fill:#ffffff;stroke:#000000;stroke-width:2.0333879px;stroke-linecap:butt;stroke-linejoin:miter;stroke-opacity:1"
       d="m 503.68642,357.92486 -0.30962,4.83934 5.57324,0 0,-4.83934 -5.26362,0 z"
       id="path6456-50" />
    <path
       inkscape:connector-curvature="0"
       style="fill:#ffffff;stroke:#000000;stroke-width:2.0333879px;stroke-linecap:butt;stroke-linejoin:miter;stroke-opacity:1"
       d="m 486.9665,358.17957 -0.30962,4.83934 5.57324,0 0,-4.83934 -5.26362,0 z"
       id="path6456-60" />
    <path
       inkscape:connector-curvature="0"
       style="fill:#ffffff;stroke:#000000;stroke-width:2.0333879px;stroke-linecap:butt;stroke-linejoin:miter;stroke-opacity:1"
       d="m 491.61112,370.91465 -0.30962,4.83935 5.57324,0 0,-4.83935 -5.26362,0 z"
       id="path6456-8" />
    <path
       inkscape:connector-curvature="0"
       style="fill:#ffffff;stroke:#000000;stroke-width:2.0333879px;stroke-linecap:butt;stroke-linejoin:miter;stroke-opacity:1"
       d="m 511.73677,370.65994 -0.30962,4.83935 5.57324,0 0,-4.83935 -5.26362,0 z"
       id="path6456-0" />
    <path
       inkscape:connector-curvature="0"
       style="fill:#ffffff;stroke:#000000;stroke-width:2.0333879px;stroke-linecap:butt;stroke-linejoin:miter;stroke-opacity:1"
       d="m 537.43587,368.11293 -0.30962,4.83934 5.57324,0 0,-4.83934 -5.26362,0 z"
       id="path6456-06" />
    <path
       inkscape:connector-curvature="0"
       style="fill:#ffffff;stroke:#000000;stroke-width:2.0333879px;stroke-linecap:butt;stroke-linejoin:miter;stroke-opacity:1"
       d="m 512.35598,364.54711 -0.30961,4.83934 5.57324,0 0,-4.83934 -5.26363,0 z"
       id="path6456-89" />
    <path
       inkscape:connector-curvature="0"
       style="fill:#ffffff;stroke:#000000;stroke-width:2.0333879px;stroke-linecap:butt;stroke-linejoin:miter;stroke-opacity:1"
       d="m 499.66124,377.0275 -0.30961,4.83934 5.57324,0 0,-4.83934 -5.26363,0 z"
       id="path6456-606" />
    <path
       inkscape:connector-curvature="0"
       style="fill:#ffffff;stroke:#000000;stroke-width:2.0333879px;stroke-linecap:butt;stroke-linejoin:miter;stroke-opacity:1"
       d="m 512.04637,377.5369 -0.3096,4.83934 5.57322,0 0,-4.83934 -5.26362,0 z"
       id="path6456-84" />
    <path
       inkscape:connector-curvature="0"
       style="fill:#ffffff;stroke:#000000;stroke-width:2.0333879px;stroke-linecap:butt;stroke-linejoin:miter;stroke-opacity:1"
       d="m 524.74112,377.79161 -0.30962,4.83933 5.57325,0 0,-4.83933 -5.26363,0 z"
       id="path6456-3" />
  </g>
</svg>
