<?xml version="1.0" encoding="UTF-8" standalone="no"?>
<!-- Created with Inkscape (http://www.inkscape.org/) -->

<svg
   width="935.40118"
   height="624.27423"
   id="svg4141"
   version="1.1"
   inkscape:version="1.4.3 (0d15f75, 2025-12-25)"
   sodipodi:docname="Flag_of_Nieuwkoop.svg"
   xmlns:inkscape="http://www.inkscape.org/namespaces/inkscape"
   xmlns:sodipodi="http://sodipodi.sourceforge.net/DTD/sodipodi-0.dtd"
   xmlns="http://www.w3.org/2000/svg"
   xmlns:svg="http://www.w3.org/2000/svg"
   xmlns:rdf="http://www.w3.org/1999/02/22-rdf-syntax-ns#"
   xmlns:cc="http://creativecommons.org/ns#"
   xmlns:dc="http://purl.org/dc/elements/1.1/">
  <defs
     id="defs4143" />
  <sodipodi:namedview
     id="base"
     pagecolor="#ffffff"
     bordercolor="#666666"
     borderopacity="1.0"
     inkscape:pageopacity="0.0"
     inkscape:pageshadow="2"
     inkscape:zoom="5.6"
     inkscape:cx="346.60714"
     inkscape:cy="342.41072"
     inkscape:document-units="px"
     inkscape:current-layer="layer1"
     showgrid="false"
     fit-margin-top="0"
     fit-margin-left="0"
     fit-margin-right="0"
     fit-margin-bottom="0"
     inkscape:window-width="1920"
     inkscape:window-height="991"
     inkscape:window-x="-9"
     inkscape:window-y="-9"
     inkscape:window-maximized="1"
     inkscape:showpageshadow="2"
     inkscape:pagecheckerboard="0"
     inkscape:deskcolor="#d1d1d1" />
  <metadata
     id="metadata4146">
    <rdf:RDF>
      <cc:Work
         rdf:about="">
        <dc:format>image/svg+xml</dc:format>
        <dc:type
           rdf:resource="http://purl.org/dc/dcmitype/StillImage" />
        <dc:title />
      </cc:Work>
    </rdf:RDF>
  </metadata>
  <g
     inkscape:label="Laag 1"
     inkscape:groupmode="layer"
     id="layer1"
     transform="translate(270.55774,22.632076)">
    <rect
       style="fill:#da1219;fill-opacity:1;stroke:none"
       id="rect3008"
       width="309.10669"
       height="311.12695"
       x="-270.55774"
       y="-22.632076" />
    <rect
       style="fill:#fcdd09;fill-opacity:1;stroke:none"
       id="rect3010"
       width="626.29456"
       height="311.12695"
       x="38.548908"
       y="-22.632076" />
    <rect
       style="fill:#da1219;fill-opacity:1;stroke:none"
       id="rect3012"
       width="626.29456"
       height="313.14728"
       x="38.548908"
       y="288.49487" />
    <rect
       style="fill:#fcdd09;fill-opacity:1;stroke:none"
       id="rect3014"
       width="309.10669"
       height="313.14728"
       x="-270.55774"
       y="288.49487" />
    <path
       style="fill:#da1219;fill-opacity:1"
       d="m 236.0175,256.47083 c -7.9129,-16.22914 -19.9756,-34.10271 -30.4294,-45.08791 -16.78,-17.63291 -30.384,-23.7369 -43.3238,-19.439 -3.9987,1.32818 -6.8346,3.32562 -11.6274,8.18971 -3.4863,3.53821 -6.3321,6.06544 -6.324,5.61609 0.044,-2.41157 3.2007,-13.83307 4.5391,-16.42119 0.8547,-1.65277 4.4066,-6.11353 7.8932,-9.9128 7.2239,-7.87176 9.289,-12.69206 10.2441,-23.91136 l 0.6324,-7.42834 -4.6894,3.42834 c -8.7152,6.37152 -8.6349,6.32682 -8.6281,4.80031 0,-0.75458 1.8034,-8.98977 4,-18.30041 2.1967,-9.31064 3.9939,-17.29814 3.9939,-17.75 0,-0.45186 -0.8403,-0.82156 -1.8672,-0.82156 -1.4325,0 -2.6262,2.03757 -5.1262,8.75 -4.3203,11.59959 -5.3142,12.43083 -4.4837,3.75 0.779,-8.14232 -0.8039,-21.17435 -3.1327,-25.79131 -5.7003,-11.301026 -17.2362,-14.152106 -34.8776,-8.619966 -3.3069,1.03701 -6.3781,1.89128 -6.8247,1.89838 -1.7146,0.0272 6.0071,-9.35867 9.8121,-11.92691 6.7391,-4.54862 10.3803,-5.56979 19.3641,-5.43064 9.4082,0.14572 9.1797,-0.55456 -1.2311,-3.77273 -6.0199,-1.860834 -7.5078,-1.979304 -12.0613,-0.960294 -5.7217,1.280484 -9.0863,3.335934 -20.4424,12.488574 -13.5103,10.888846 -19.96195,13.639386 -23.55787,10.04347 -2.15979,-2.15978 -1.96906,-5.03665 0.44606,-6.72827 1.58678,-1.11142 2.86156,-1.1878 5.97121,-0.35778 3.2323,0.86273 4.6162,0.73943 7.5837,-0.67565 3.7568,-1.79148 18.8305,-12.8918 19.9364,-14.68119 0.3448,-0.557844 2.3784,-1.907834 4.5192,-2.999974 4.6984,-2.39694 12.0255,-2.58375 18.0447,-0.46007 l 4.3241,1.52565 -2.4484,-2.6453 c -6.401,-6.91572 -16.5113,-10.02545 -24.2699,-7.4649 -1.9851,0.65515 -5.8176,3.17661 -8.5166,5.60326 l -4.9073,4.41207 -0.6163,-3.72821 c -2.3718,-14.34759 3.0747,-25.19627 14.1257,-28.13665 2.5918,-0.68961 2.7663,-1.11405 3.3105,-8.05488 0.5342,-6.81233 0.8267,-7.55806 4.1657,-10.61803 6.1119,-5.60109 11.096,-6.44648 37.729,-6.39952 31.1775,0.055 37.9431,-1.67559 48.3412,-12.3652197 2.7573,-2.83465 4.6361,-4.47891 4.1751,-3.65391 -2.158,3.86213 -16.5353,21.9215497 -22.7487,28.5747997 -6.0658,6.4952 -6.6402,7.42567 -4.5856,7.42894 4.8667,0.008 8.4249,3.46811 12.636,12.28861 4.1579,8.70896 7.4628,12.22743 14.1107,15.02267 4.1499,1.74492 2.7102,2.42862 -7.018,3.33276 l -6.9523,0.64615 2.8877,2.60303 c 1.5882,1.43167 4.5895,4.92306 6.6696,7.758644 2.4204,3.29938 6.4924,6.89977 11.31,10 5.2318,3.36674 6.9767,4.95159 5.7207,5.19581 -3.574,0.69495 -14.1472,-2.05402 -20.8452,-5.41965 -3.7563,-1.88747 -7.0417,-3.43176 -7.3009,-3.43176 -0.2592,0 0.6263,1.4625 1.9678,3.25 1.3414,1.7875 3.6627,5.725 5.1583,8.75 4.6712,9.447696 10.2034,13.999996 17.0138,13.999996 1.9847,0 3.3747,0.37846 3.0889,0.84102 -0.2859,0.46256 -2.5289,0.8714 -4.9844,0.90852 -9.418,0.14238 -9.1591,0.65342 8.7868,17.33908 9.1165,8.47626 17.0362,15.41138 17.5993,15.41138 0.5631,0 8.4828,-6.93512 17.5993,-15.41138 17.9624,-16.70098 18.2188,-17.20793 8.8388,-17.4695 -5.2987,-0.14775 -7.1662,-1.61912 -2.0551,-1.61912 6.9214,0 12.4242,-4.49956 17.1214,-13.999996 1.4956,-3.025 3.8169,-6.9625 5.1584,-8.75 1.3414,-1.7875 2.1916,-3.25 1.8893,-3.25 -0.3023,0 -3.5877,1.53838 -7.3009,3.41862 -6.6317,3.35808 -17.2076,6.12485 -20.7668,5.43279 -1.256,-0.24422 0.489,-1.82907 5.7207,-5.19581 4.8176,-3.10023 8.8896,-6.70062 11.31,-10 2.0801,-2.835584 5.0815,-6.326974 6.6696,-7.758644 l 2.8877,-2.60303 -7.1576,-0.66523 c -9.1079,-0.84649 -11.3411,-1.93584 -7.0413,-3.43475 6.2894,-2.1925 10.2375,-6.31019 14.3902,-15.00822 4.1587,-8.71066 7.7369,-12.17427 12.5851,-12.18199 2.0546,-0.003 1.4802,-0.93374 -4.5856,-7.42894 -6.2134,-6.65325 -20.5907,-24.7126697 -22.7487,-28.5747997 -0.461,-0.825 1.4178,0.81926 4.1752,3.65391 10.3542,10.6446697 17.0159,12.3460897 48.3389,12.3460897 26.732,0 31.6425,0.83879 37.7666,6.45114 3.4018,3.11748 3.6515,3.76218 4.0263,10.39516 l 0.3996,7.07155 3.6394,1.19898 c 10.8442,3.57249 15.8386,13.97151 13.5012,28.11138 l -0.6163,3.72821 -4.9073,-4.41207 c -2.699,-2.42665 -6.5315,-4.94811 -8.5166,-5.60326 -7.7454,-2.55621 -17.87,0.54974 -24.244,7.43735 l -2.4225,2.61773 4.7359,-1.61369 c 6.966,-2.37356 15.4926,-1.53809 19.7761,1.93773 20.0712,16.286844 24.0651,18.564854 29.8443,17.022314 3.1097,-0.83002 4.3844,-0.75364 5.9712,0.35778 3.9508,2.76721 1.4081,8.308686 -3.8039,8.290196 -3.2246,-0.0114 -11.9831,-5.491836 -22.1786,-13.877686 -4.125,-3.39283 -9.525,-7.16224 -12,-8.37648 -6.3175,-3.099374 -14.6954,-2.871804 -22,0.59758 l -5.5,2.61228 5.6167,-0.57166 c 11.7616,-1.19709 22.1429,3.16787 29.2597,12.30265 1.9942,2.55965 3.4438,4.83593 3.2214,5.0584 -0.2225,0.22246 -3.429,-0.52968 -7.1255,-1.67143 -17.8497,-5.5132 -29.1324,-2.71552 -34.8625,8.644536 -2.3307,4.62088 -3.8829,17.55129 -3.0902,25.74286 0.8398,8.67685 -0.097,7.90508 -4.4922,-3.70155 -2.5255,-6.66897 -3.7552,-8.75 -5.1705,-8.75 -1.0213,0 -1.8541,0.3375 -1.8508,0.75 0,0.4125 1.8034,8.3678 4,17.67844 2.1967,9.31064 3.9939,17.57802 3.9939,18.37197 0,1.6074 0.1302,1.67868 -8.6342,-4.72875 l -4.6894,-3.42834 0.6324,7.42834 c 0.9551,11.2193 3.0202,16.0396 10.2441,23.91136 3.4866,3.79927 7.0409,8.26453 7.8984,9.92279 1.6418,3.17487 4.9228,16.05343 4.259,16.71725 -0.2134,0.21336 -2.2818,-1.85807 -4.5965,-4.60319 -6.4595,-7.66055 -12.0712,-10.51987 -20.6462,-10.51987 -7.886,0 -12.5928,1.66236 -21.4966,7.59211 -13.8584,9.22948 -33.1054,34.18533 -44.6904,57.94601 -3.1793,6.52075 -6.0056,11.8559 -6.2806,11.8559 -0.275,0 -3.1013,-5.33515 -6.2806,-11.8559 z"
       id="path3864"
       inkscape:connector-curvature="0" />
    <path
       style="fill:#000000;stroke:#000000;stroke-opacity:1;stroke-width:0.3;stroke-miterlimit:4;stroke-dasharray:none"
       d="m 237.70455,262.14612 c -3.7171,-8.59801 -13.5786,-25.63312 -20.3932,-35.22785 -8.6714,-12.20897 -23.2451,-26.31112 -31.8232,-30.79355 -13.9712,-7.3006 -24.2116,-5.84769 -34.3515,4.87381 -5.9954,6.33921 -8.4804,7.05061 -7.5019,2.14759 2.3811,-11.93075 3.559,-14.14555 14.3621,-27.00623 5.278,-6.28318 6.8044,-10.16117 7.8185,-19.86363 l 0.6663,-6.37421 -3.9183,2.93772 c -2.1551,1.61575 -5.3808,4.03033 -7.1683,5.36573 -1.7875,1.33541 -3.2452,2.03709 -3.2393,1.55932 0.01,-0.47778 1.804,-8.51869 3.9957,-17.86869 2.1918,-9.35 4.2317,-18.05654 4.533,-19.34787 0.365,-1.56413 0.1473,-2.21436 -0.6521,-1.94791 -0.6599,0.21998 -2.6431,4.20153 -4.4071,8.84787 -4.5489,11.98204 -5.7882,11.25361 -6.0434,-3.55209 -0.2865,-16.61985 -3.024,-23.63878 -10.8396,-27.793036 -5.854,-3.11162 -16.3568,-2.82498 -27.4408,0.74891 -4.589,1.479646 -8.5292,2.504676 -8.756,2.277836 -0.2269,-0.22683 2.1942,-3.516066 5.3801,-7.309406 8.0376,-9.57001 14.5844,-12.89799 25.3731,-12.89799 4.3155,0 7.8464,-0.10547 7.8464,-0.23437 0,-0.12891 -3.2027,-1.20715 -7.117,-2.3961 -6.2509,-1.898664 -7.7491,-2.020274 -12.3113,-0.999314 -5.7217,1.280484 -9.0863,3.335934 -20.4424,12.488564 -13.5103,10.888856 -19.96195,13.639396 -23.55787,10.04348 -2.15979,-2.15979 -1.96906,-5.03665 0.44606,-6.72827 1.58678,-1.11143 2.86156,-1.18781 5.97121,-0.35779 3.2323,0.86274 4.6162,0.73944 7.5837,-0.67565 3.7568,-1.79147 18.8305,-12.8918 19.9364,-14.68118 0.3448,-0.557854 2.4718,-1.955454 4.7266,-3.105804 3.2553,-1.66069 5.3527,-1.99695 10.1822,-1.63237 3.3453,0.25254 6.9824,0.82646 8.0824,1.27539 4.2325,1.72734 -1.5942,-3.39096 -6.8312,-6.00066 -9.2801,-4.62447 -19.4377,-2.4257 -25.8909,5.60452 -1.7279,2.15018 -3.5176,3.53354 -3.977,3.07412 -0.4594,-0.45941 -1.1144,-4.45454 -1.4555,-8.87805 -0.5571,-7.22402 -0.3641,-8.60234 1.8964,-13.539759 2.6147,-5.711421 6.9793,-9.800701 12.2582,-11.485121 2.8575,-0.91178 3.0282,-1.28168 3.5928,-7.78595 0.553,-6.37009 0.8641,-7.08173 4.6323,-10.59664 6.5781,-6.13604 11.061,-6.95184 37.7893,-6.87689 13.2105,0.037 25.1334,-0.39928 27.9091,-1.02132 8.099,-1.81504 15.1659,-5.76655 20.0723,-11.2237597 3.1327,-3.48423 4.9165,-4.78111002 5.6152,-4.08238 1.2596,1.25955 -11.4722,18.4863097 -21.378,28.9256797 -6.3971,6.74162 -6.6415,7.16945 -4.415,7.72827 4.3,1.07923 7.8775,4.88407 10.8581,11.54804 3.6264,8.10813 7.6109,12.35532 14.7988,15.77458 l 5.5251,2.62827 -6.5,1.29539 c -3.575,0.71247 -7.5426,1.3164 -8.8169,1.34208 -2.2269,0.0449 -2.1707,0.23138 1.446,4.79668 6.8962,8.704894 9.7933,11.307494 17.8619,16.046244 l 8.009,4.70376 -4,0.32804 c -5.377,0.44098 -14.6207,-1.46439 -21.1822,-4.36619 l -5.3749,-2.37706 4.2021,8.07708 c 4.9999,9.610306 9.9121,13.838126 16.0784,13.838126 3.1969,0 3.8609,0.32373 3.5865,1.74848 -0.2584,1.34183 -1.4671,1.79701 -5.1971,1.95715 -2.6732,0.11476 -5.1422,0.4979 -5.4866,0.85141 -0.3444,0.35351 0.9983,2.06029 2.9839,3.79285 1.9855,1.73256 9.2892,8.48499 16.2304,15.0054 l 12.6204,11.85529 15.7696,-14.72853 c 8.6732,-8.1007 15.9195,-15.12308 16.1028,-15.60529 0.3248,-0.8541 -1.2064,-1.12515 -7.3112,-1.29427 -1.9956,-0.0553 -3.0918,-0.65974 -3.3233,-1.83249 -0.2819,-1.42799 0.3765,-1.75 3.5778,-1.75 6.1663,0 11.0786,-4.22782 16.0784,-13.838126 l 4.2021,-8.07708 -5.3749,2.37706 c -6.5615,2.9018 -15.8052,4.80717 -21.1822,4.36619 l -4,-0.32804 8.009,-4.70376 c 8.0686,-4.73875 10.9657,-7.34135 17.8619,-16.046244 3.6167,-4.5653 3.6729,-4.75182 1.4461,-4.79668 -1.2744,-0.0257 -5.242,-0.61232 -8.817,-1.30365 l -6.5,-1.25696 6,-3.10187 c 7.5559,-3.90621 10.7043,-7.22625 14.0261,-14.79084 3.1408,-7.15214 6.6976,-11.1706 10.6572,-12.04026 l 2.9022,-0.63743 -6.7952,-7.16116 c -9.406,-9.91257 -22.6557,-27.6957797 -21.4978,-28.8536197 0.57,-0.57005002 3.2005,1.34543 6.8249,4.96984 9.9102,9.9102397 12.3523,10.5050497 45.8826,11.1753497 25.7468,0.5147 28.3621,0.72985 32.5,2.67351 7.5664,3.55411 10.2412,7.23488 10.9184,15.0246 0.5523,6.35335 0.7325,6.73802 3.5816,7.64712 5.2789,1.68442 9.6435,5.7737 12.2582,11.485121 2.2605,4.937419 2.4535,6.315739 1.8964,13.539759 -0.3411,4.42351 -0.9961,8.41864 -1.4555,8.87805 -0.4594,0.45942 -2.249,-0.92394 -3.977,-3.07412 -3.921,-4.87916 -10.4513,-8.12676 -16.3415,-8.12676 -4.9404,0 -13.3721,3.65732 -16.4957,7.15514 -1.8721,2.09638 -1.868,2.10469 0.6151,1.22776 1.375,-0.4856 5.6924,-0.8829 9.5943,-0.8829 6.2583,0 7.4956,0.32549 10.5,2.7624 20.1802,16.368334 24.1317,18.624294 29.917,17.080114 3.1097,-0.83002 4.3844,-0.75364 5.9712,0.35779 3.9508,2.7672 1.4081,8.308686 -3.8039,8.290196 -3.2246,-0.0114 -11.9831,-5.491836 -22.1786,-13.877686 -10.1917,-8.38273 -14.9788,-10.611604 -22.5,-10.476044 -3.4621,0.0624 -7.8063,0.902304 -10.2705,1.985684 l -4.2704,1.87755 7.8922,0.0261 c 10.8412,0.0359 17.3411,3.34062 25.3682,12.89821 3.1859,3.79333 5.607,7.082566 5.3801,7.309396 -0.2268,0.22684 -4.01,-0.72404 -8.407,-2.113066 -10.838,-3.42372 -16.9634,-4.115 -23.2019,-2.61841 -10.906,2.61631 -15.289,11.105706 -15.4874,29.997766 -0.1504,14.31729 -1.4542,14.98235 -5.9835,3.05209 -1.764,-4.64634 -3.7472,-8.62789 -4.4071,-8.84787 -0.7995,-0.2665 -1.0168,0.38348 -0.6512,1.94791 7.1846,30.74268 8.6055,37.11417 8.3371,37.38266 -0.1759,0.17579 -3.2399,-1.8738 -6.8091,-4.55468 -6.2947,-4.72801 -6.4988,-4.80255 -6.8005,-2.48316 -0.4405,3.38655 1.4636,12.96874 3.3793,17.00574 0.8908,1.87725 4.2103,6.24461 7.3766,9.70524 3.1664,3.46063 6.4991,7.73225 7.4061,9.49248 1.3912,2.69994 4.5861,14.10955 4.6342,16.54958 0.043,2.17303 -3.4518,0.13691 -7.9768,-4.64759 -10.1399,-10.7215 -20.3803,-12.17441 -34.3515,-4.87381 -8.5781,4.48243 -23.1517,18.58458 -31.8232,30.79355 -6.8146,9.59473 -16.6761,26.62984 -20.3932,35.22785 -1.8304,4.23399 -3.2627,6.25 -4.4405,6.25 -1.1778,0 -2.6101,-2.01601 -4.4405,-6.25 z m 7.4405,-4 c 3.1852,-7.44444 14.862,-26.98433 21.0651,-35.25 2.8892,-3.85 9.5691,-11.30734 14.8441,-16.57186 7.5389,-7.5239 11.2494,-10.39147 17.3419,-13.40258 l 7.751,-3.83072 -5.5266,-2.24616 c -6.797,-2.7625 -7.9526,-3.70026 -11.0291,-8.94993 -2.9209,-4.98412 -4.5385,-14.02945 -2.3803,-13.31005 0.7562,0.25207 1.7314,2.17416 2.1671,4.27131 1.0539,5.07226 4.5731,11.18303 7.5719,13.14792 3.5062,2.29739 16.0201,6.38832 19.6201,6.41403 4.077,0.0291 10.9589,3.23245 16.2382,7.5584 l 4.2783,3.50573 -1.4088,-3.99273 c -2.2295,-6.31905 -3.4555,-8.22439 -9.2096,-14.31214 -7.2103,-7.62842 -10.0586,-14.08577 -10.9307,-24.78121 l -0.6931,-8.5 -5.1805,-5.62416 c -5.5252,-5.99843 -8.8957,-12.14644 -10.449,-19.05981 -0.7011,-3.12033 -0.6378,-4.46584 0.2357,-5.00758 0.8237,-0.51094 1.8496,1.39836 3.3064,6.15347 1.1616,3.79185 3.709,9.06412 5.6608,11.71617 3.1272,4.24894 15.2432,15.25357 17.7868,16.15524 1.4032,0.49743 1.1732,-0.91473 -2.9863,-18.33333 -2.1014,-8.8 -3.4253,-16.15077 -2.942,-16.33504 0.4834,-0.18428 -0.5954,-2.05737 -2.3972,-4.16242 -3.6503,-4.26451 -6.4031,-11.08469 -7.3672,-18.252536 -0.5368,-3.99132 -0.3775,-4.75 0.9971,-4.75 1.0591,0 1.6359,0.84431 1.6359,2.39466 0,7.890956 7.0565,21.536316 11.9384,23.085786 1.0235,0.32485 2.672,2.83095 3.7796,5.7458 l 1.9643,5.16966 1.1469,-8.88512 c 0.6309,-4.88682 2.0541,-10.7134 3.1628,-12.94795 l 2.0157,-4.06284 -2.5392,-1.859176 c -3.1591,-2.31299 -6.4717,-8.64775 -6.4587,-12.35099 0.02,-5.8373 4.8045,-13.397294 14.7808,-23.357064 l 9.7094,-9.693309 -4.6835,-2.138891 c -3.8271,-1.74777 -5.1072,-3.04227 -7,-7.07915 -1.7514,-3.735 -3.1056,-5.21178 -5.5509,-6.05323 -3.9017,-1.34263 -7.7908,-5.84296 -6.3202,-7.31355 0.6703,-0.67029 1.8118,-0.12961 3.4434,1.63087 3.5558,3.83681 6.595,4.21794 14.4966,1.81791 8.2104,-2.49383 14.8237,-2.69591 17.8921,-0.54672 2.1134,1.48028 2.2225,1.43781 2.2225,-0.86514 0,-3.30142 -3.35,-7.30036 -8.3445,-9.96108 -3.9195,-2.088 -5.7457,-2.24522 -32.1555,-2.76833 -25.3037,-0.50121 -28.5555,-0.76018 -33.7689,-2.68936 l -5.769,-2.13474 2.247,3.18097 c 4.7963,6.79004 18.3549,19.28125 23.7909,21.91796 8.1496,3.95293 10.4275,4.29389 12.6622,1.89525 1.2417,-1.33287 2.3586,-1.7374 3.2595,-1.18061 1.0863,0.67134 0.8311,1.38645 -1.2301,3.4477 -3.4325,3.43249 -5.8203,3.28492 -14.5513,-0.89932 -7.9821,-3.82532 -12.467,-4.36034 -15.9719,-1.90537 -1.2522,0.87705 -4.0568,5.3414 -6.2324,9.92077 -2.9263,6.15925 -4.9909,9.08739 -7.9333,11.25125 -2.1877,1.60882 -3.6832,3.21947 -3.3235,3.57923 1.0676,1.06758 10.2862,0.74476 14.4624,-0.50644 2.1304,-0.63831 5.6292,-2.66331 7.7749,-4.5 2.1458,-1.8367 4.3924,-3.33944 4.9925,-3.33944 4.0641,0 -3.7716,7.12069 -12.522,11.37922 -5.3776,2.61715 -7.9559,4.62074 -10.663,8.286274 -3.8046,5.15174 -9.9339,11.30282 -13.224,13.27115 -1.7394,1.0406 -1.5521,1.12105 1.4374,0.61745 4.6072,-0.7761 13.2189,-4.78594 20.6323,-9.60693 3.3384,-2.17094 6.3759,-3.94716 6.75,-3.94716 1.7897,0 0.2443,2.55529 -4.1216,6.81492 -2.7079,2.64208 -6.7415,8.33215 -9.25,13.04868 -2.4464,4.599986 -5.9106,9.648736 -7.6981,11.219456 -1.7875,1.57071 -3.25,3.00765 -3.25,3.1932 0,0.18555 3.15,1.86123 7,3.72374 3.85,1.86251 7,3.97445 7,4.69319 0,1.86297 -1.4185,1.63516 -6.8005,-1.0921 l -4.734,-2.39892 -17.4828,16.35937 c -9.6155,8.99766 -17.7077,16.35874 -17.9827,16.35797 -0.275,-7.7e-4 -8.375,-7.3572 -18,-16.34763 l -17.5,-16.34622 -4.7168,2.38717 c -5.366,2.71579 -6.7832,2.9415 -6.7832,1.08036 0,-0.71874 3.15,-2.83068 7,-4.69319 3.85,-1.86251 7,-3.53819 7,-3.72374 0,-0.18555 -1.5273,-1.67838 -3.3941,-3.3174 -1.8667,-1.63902 -5.3187,-6.67949 -7.6711,-11.201036 -2.4947,-4.79519 -6.2893,-10.18102 -9.1059,-12.92449 -4.3886,-4.27467 -5.942,-6.83333 -4.1486,-6.83333 0.3741,0 3.4116,1.77622 6.75,3.94716 7.4248,4.82842 16.0334,8.83424 20.6323,9.60091 3.1356,0.52271 3.2545,0.45795 1.3541,-0.73753 -4.2981,-2.70389 -7.1579,-5.49502 -12.1391,-11.84781 -4.223,-5.385874 -6.3422,-7.107994 -12.0324,-9.777744 -7.2426,-3.39812 -13.9515,-9.23313 -12.7854,-11.11999 0.436,-0.70534 2.3395,0.34886 5.2398,2.90175 2.5053,2.20526 6.1853,4.46237 8.1777,5.01582 4.0677,1.12987 13.4411,1.36565 14.4435,0.36331 0.3597,-0.35976 -1.1358,-1.97041 -3.3235,-3.57923 -2.9299,-2.15471 -5.0043,-5.08639 -7.8762,-11.13114 -4.4807,-9.43104 -5.6249,-10.62514 -10.8532,-11.32641 -2.9652,-0.39771 -5.1916,0.19066 -10.0355,2.65215 -9.0435,4.59558 -12.4326,4.92945 -15.8051,1.55699 -2.1818,-2.18183 -2.4435,-2.89224 -1.3234,-3.59272 0.9529,-0.59593 1.9011,-0.21016 2.9867,1.21513 2.1333,2.80065 6.3019,1.91194 15.0432,-3.20707 6.0953,-3.56949 16.8461,-13.88348 21.9656,-21.07324 l 1.9385,-2.72229 -5.769,2.13986 c -5.2031,1.92999 -8.4659,2.19519 -33.2689,2.70414 -23.6523,0.48535 -28.0952,0.82131 -31.7537,2.40119 -5.0737,2.19099 -9.2463,6.8166 -9.2463,10.25018 0,2.36303 0.1048,2.40657 2.2225,0.92328 3.096,-2.16849 9.941,-1.94147 17.8022,0.59043 7.676,2.4722 10.9583,2.0533 14.5865,-1.86162 1.6316,-1.76048 2.7732,-2.30116 3.4434,-1.63087 1.4706,1.47059 -2.4185,5.97092 -6.3202,7.31355 -2.4453,0.84145 -3.7995,2.31823 -5.5509,6.05323 -1.8951,4.04182 -3.1682,5.32745 -7,7.06935 l -4.6835,2.129101 9.7756,9.846049 c 10.0117,10.08386 14.6945,17.474624 14.7146,23.223914 0.013,3.70324 -3.2996,10.038 -6.4587,12.35099 l -2.5392,1.859176 2.0158,4.06284 c 1.1086,2.23455 2.5295,8.04308 3.1575,12.90784 l 1.1418,8.845 1.9193,-4.90784 c 1.0557,-2.69931 2.3532,-5.06338 2.8833,-5.25349 5.3538,-1.91988 11.2561,-11.89522 12.475,-21.083826 0.4714,-3.55353 1.1236,-5.07052 2.1798,-5.07052 3.5763,0 -1.1606,16.765846 -6.499,23.002536 -1.8018,2.10505 -2.881,3.97814 -2.3981,4.16242 0.4828,0.18427 -0.9029,7.9095 -3.0794,17.16716 -2.1766,9.25767 -3.7075,17.082 -3.4021,17.38741 0.9854,0.98541 14.4899,-10.78285 18.247,-15.90104 2.0035,-2.72927 4.5931,-8.06472 5.7548,-11.85657 1.4567,-4.75511 2.4826,-6.66441 3.3063,-6.15347 0.8735,0.54174 0.9368,1.88725 0.2357,5.00758 -1.5533,6.91337 -4.9238,13.06138 -10.449,19.05981 l -5.1805,5.62416 -0.6931,8.5 c -0.8721,10.69544 -3.7204,17.15279 -10.9307,24.78121 -5.7541,6.08775 -6.9801,7.99309 -9.2096,14.31214 l -1.4088,3.99273 4.2209,-3.41852 c 5.6038,-4.53862 9.6004,-6.4815 14.8658,-7.22676 2.3953,-0.33901 7.8635,-1.74584 12.1517,-3.12628 9.3896,-3.02265 13.8563,-7.03734 15.6788,-14.09205 1.8476,-7.15204 1.8781,-7.22248 3.129,-7.22248 1.6882,0 0.3975,8.09564 -2.0579,12.90867 -2.3581,4.62226 -5.4663,7.24345 -11.5617,9.75006 -5.0852,2.09122 -5.5158,2.86572 -2.0734,3.7297 7.8956,1.98167 25.0816,17.13233 36.5287,32.20262 5.8156,7.65623 17.4715,27.0183 21.1657,35.15895 1.3103,2.8875 2.6671,5.25 3.0151,5.25 0.348,0 1.6435,-2.3625 2.879,-5.25 z M 148.92935,95.118644 c 4.2876,-4.42368 4.9359,-8.30585 2.3597,-14.12988 -5.5785,-12.611184 -31.3141,-34.592634 -40.5006,-34.592634 -3.4335,0 -9.2403,5.88665 -10.5856,10.73111 -1.1022,3.96898 -1.4521,13.26889 -0.4992,13.26889 0.3073,0 2.2198,-1.3009 4.25,-2.89088 5.0027,-3.91781 10.3943,-5.4712 16.7228,-4.81804 6.0128,0.62058 9.9294,2.4186 15.0371,6.90316 3.6038,3.16418 11.9603,14.610314 11.2125,15.358084 -0.219,0.21901 -3.2968,-0.0718 -6.8396,-0.64615 -8.0465,-1.30459 -14.0941,-0.46004 -20.1402,2.81259 -4.8171,2.60739 -9.5441,6.87163 -8.6304,7.7854 0.2817,0.28163 3.7421,-0.21737 7.6898,-1.10889 8.7294,-1.97135 16.0158,-1.28061 21.6455,2.05194 2.1966,1.30034 4.2431,2.40668 4.5477,2.45852 0.3046,0.0519 1.9834,-1.3806 3.7305,-3.18322 z M 107.14505,56.43131 c 0,-1.284659 3.9913,-3.37724 4.8341,-2.534439 0.3645,0.36453 -0.21,1.30099 -1.2768,2.081019 -2.2581,1.65115 -3.5573,1.81675 -3.5573,0.45342 z m 236.624,39.225534 c 4.2061,-2.36293 5.9751,-2.7349 12.876,-2.70735 4.4,0.0176 9.7177,0.62009 11.817,1.33895 2.0994,0.71886 4.0886,1.03539 4.4206,0.70341 1.0197,-1.01967 -3.5716,-5.1875 -8.923,-8.1001 -5.5377,-3.01399 -12.5817,-3.70242 -22.5901,-2.2078 l -5.2755,0.78783 3.6992,-5.28783 c 8.5654,-12.243804 14.891,-16.740334 24.6521,-17.523864 5.0208,-0.40302 7.1164,-0.0783 10.864,1.68322 2.5537,1.2004 5.4312,3.05336 6.3944,4.11768 0.9632,1.06433 2.1315,1.93514 2.5963,1.93514 1.1845,0 1.0443,-8.74213 -0.2128,-13.26889 -1.3453,-4.84446 -7.1521,-10.73111 -10.5856,-10.73111 -6.3138,0 -23.7819,12.59681 -33.3923,24.08029 -6.9665,8.324334 -8.3215,10.923494 -8.3964,16.105524 -0.059,4.04926 0.4095,5.19302 3.3783,8.25726 1.8954,1.95631 3.5262,3.55693 3.624,3.55693 0.098,0 2.3721,-1.23268 5.0538,-2.73929 z m 29.8187,-39.678954 c -1.0667,-0.780029 -1.6413,-1.716489 -1.2768,-2.081019 0.8428,-0.842801 4.8341,1.24978 4.8341,2.534439 0,1.36333 -1.2992,1.19773 -3.5573,-0.45342 z m -234.659,-10.21622 c 1.8061,-2.07724 3.1561,-4.4111 3,-5.18637 -0.3421,-1.69973 -10.8866,-5.14389 -15.8112,-5.16445 -6.4856,-0.0271 -9.9882,4.75394 -6.673,9.10869 0.6797,0.89288 2.8029,2.60402 4.7182,3.80253 5.1971,3.25217 10.5138,2.33027 14.766,-2.5604 z m -14.2123,0.063 c -2.2644,-2.26444 -1.9367,-4.30502 0.899,-5.59703 4.5192,-2.05908 7.9541,3.80053 3.5953,6.13327 -2.5015,1.3388 -2.6352,1.32285 -4.4943,-0.53624 z m 235.4109,2.44111 c 4.1717,-2.54308 5.943,-4.7006 5.9859,-7.29094 0.055,-3.33849 -2.9151,-5.58005 -7.3732,-5.56401 -4.9383,0.0178 -15.8584,3.2756 -16.3972,4.89186 -0.5325,1.59744 4.5371,8.04381 7.1573,9.10114 3.5946,1.45048 6.9748,1.0885 10.6272,-1.13805 z m -5.2323,-1.94978 c -2.1579,-1.25686 -2.2686,-4.24457 -0.2204,-5.94448 1.1696,-0.97069 2.1111,-1.00455 4,-0.14389 2.8357,1.29201 3.1634,3.3326 0.899,5.59704 -1.8215,1.8215 -2.3073,1.87251 -4.6786,0.49133 z"
       id="path3860"
       inkscape:connector-curvature="0" />
    <path
       sodipodi:type="star"
       style="fill:#fcdd09;fill-opacity:1;stroke:#000000;stroke-width:2.52047300000000000;stroke-miterlimit:4;stroke-opacity:1;stroke-dasharray:none"
       id="path3884"
       sodipodi:sides="8"
       sodipodi:cx="1037.9316"
       sodipodi:cy="315.4559"
       sodipodi:r1="73.626884"
       sodipodi:r2="41.967323"
       sodipodi:arg1="1.0303768"
       sodipodi:arg2="1.4230759"
       inkscape:flatsided="false"
       inkscape:rounded="0"
       inkscape:randomized="0"
       d="m 1075.8124,378.59043 -31.7039,-21.62426 -24.034,29.9183 -7.1273,-37.70864 -38.15009,4.16079 21.62427,-31.70381 -29.91831,-24.03405 37.70863,-7.12731 -4.1608,-38.15008 31.7038,21.62427 24.0341,-29.91831 7.1273,37.70865 38.1501,-4.1608 -21.6243,31.70381 29.9183,24.03405 -37.7086,7.12732 z"
       transform="matrix(1.6640757,0.89658417,-0.99400558,1.6438836,-1171.9514,-1000.2463)" />
    <path
       style="fill:#fcdd09;fill-opacity:1;stroke:#000000;stroke-width:4.09999990000000030;stroke-miterlimit:4;stroke-opacity:1;stroke-dasharray:none"
       d="m -135.73778,269.2166 c -44.93734,-4.9558 -85.79327,-33.22721 -106.18959,-73.48089 -8.61669,-17.00569 -12.47772,-30.26091 -14.397,-49.42606 -4.53664,-45.30107 15.20144,-91.003066 51.58658,-119.444746 49.83989,-38.95903 120.16013,-38.95903 170.00001,0 C 1.6473598,55.306584 21.38544,101.00858 16.8488,146.30965 14.92952,165.4748 11.06849,178.73002 2.4517998,195.73571 -23.18717,246.33615 -78.15849,275.56658 -135.73778,269.2166 z m 8.48983,-57.60615 -0.0102,-40.75 -4.21558,-1.77215 -4.21558,-1.77214 -29.5117,29.51168 -29.51169,29.51169 2.39364,1.76046 c 19.42459,14.28623 43.40503,23.89767 60.33128,24.18096 l 4.75,0.0795 -0.0102,-40.75 z m 36.66176,37.84682 c 10.35694,-2.67448 19.81433,-6.47992 28.72743,-11.55927 7.65095,-4.36008 16.52861,-10.53751 16.59006,-11.54402 0.017,-0.27855 -12.92043,-13.45203 -28.74985,-29.2744 l -28.78077,-28.76794 -3.21923,1.12223 -3.21923,1.12223 0,41.03134 0,41.03134 5.75,-0.65737 c 3.1625,-0.36156 8.96822,-1.48842 12.90159,-2.50414 z m -58.65159,-93.8572 c 0,-0.28131 -1.0125,-3.1437 -2.25,-6.36087 l -2.25,-5.8494 -41.75001,-0.0147 c -34.67615,-0.0122 -41.75,0.21731 -41.75,1.35436 0,0.75296 0.69658,5.36348 1.54795,10.24562 3.16841,18.16899 10.76712,35.89361 21.72209,50.66859 l 5.82502,7.8562 29.45247,-28.69416 c 16.19886,-15.78179 29.45248,-28.92433 29.45248,-29.20564 z m 123.29265,50.96672 c 12.39421,-16.2874 21.4295898,-38.33466 23.3417598,-56.95634 l 0.64178,-6.25 -40.4155698,0 -40.41557,0 -2.87246,6.59353 -2.87245,6.59354 28.33686,28.34995 c 15.58528,15.59247 28.69156,28.13074 29.12508,27.86281 0.43352,-0.26793 2.74227,-3.055 5.13057,-6.19349 z m -86.64378,-61.91328 c 2.05916,-1.3325 4.0788,-5.11786 4.42469,-8.29306 0.45736,-4.19845 -0.37646,-6.5029 -3.47356,-9.6 -2.78618,-2.78618 -4.15746,-3.4 -7.59563,-3.4 -5.46664,0 -9.61215,2.95886 -11.09915,7.922 -3.30657,11.03636 8.08543,19.62101 17.74365,13.37106 z m -40.68405,-21.22732 c 0.56935,-1.06384 1.03518,-2.7542 1.03518,-3.75635 0,-1.05506 -12.36337,-14.18014 -29.36904,-31.178466 l -29.36903,-29.35638 -4.53884,6.36273 c -10.21645,14.32186 -17.15077,30.90501 -20.17515,48.248096 -0.85137,4.88214 -1.54795,9.49266 -1.54795,10.24562 0,1.13667 7.03718,1.36901 41.46482,1.36901 39.9716,0 41.5021,-0.0697 42.50001,-1.93426 z M -2.6693002,119.11045 C -4.7005702,100.70735 -14.8834,75.446224 -25.14229,63.360454 l -2.97094,-3.5 -28.93582,28.86714 -28.93582,28.867126 1.52524,3.88286 1.52523,3.88287 40.47748,0 40.4774698,0 -0.68985,-6.25 z m -131.3184798,-18.12126 5.75,-2.775346 0,-40.9267 0,-40.92669 -2.81634,0 c -8.10161,0 -24.75136,4.44987 -36.68367,9.80421 -8.34522,3.74472 -21.4938,11.90356 -27.5,17.06406 l -3.5,3.00718 28.99515,29.06389 c 15.94734,15.98514 29.22234,28.929086 29.50001,28.764326 0.27767,-0.16477 3.09235,-1.54848 6.25485,-3.07493 z m 64.87339,-25.766056 c 24.07658,-23.44641 28.69133,-28.381 27.68049,-29.59899 -0.66719,-0.80391 -3.7085,-3.36976 -6.75848,-5.70188 -16.1889,-12.37861 -37.19295,-21.0869 -55.7954,-23.13277 l -6.25,-0.68737 0,41.04971 0,41.04971 2.76955,0.6083 c 1.52326,0.33456 4.11076,1.492346 5.75,2.572856 1.63925,1.08052 3.14466,1.96754 3.34536,1.97116 0.2007,0.004 13.36702,-12.655196 29.25848,-28.130726 z"
       id="path3964"
       inkscape:connector-curvature="0" />
    <path
       sodipodi:type="arc"
       style="fill:#fcdd09;fill-opacity:1;stroke:#000000;stroke-width:4.09999990000000030;stroke-linejoin:miter;stroke-miterlimit:4;stroke-opacity:1;stroke-dasharray:none;stroke-dashoffset:0"
       id="path3966"
       sodipodi:cx="438.21429"
       sodipodi:cy="-39.098782"
       sodipodi:rx="37.5"
       sodipodi:ry="37.889534"
       d="m 475.71429,-39.098782 c 0,20.925812 -16.78932,37.8895344 -37.5,37.8895344 -20.71067,0 -37.5,-16.9637224 -37.5,-37.8895344 0,-20.925811 16.78933,-37.889534 37.5,-37.889534 20.71068,0 37.5,16.963723 37.5,37.889534 z"
       transform="matrix(1.0367448,0,0,1.0128023,-574.41129,174.74883)" />
    <path
       sodipodi:type="arc"
       style="fill:#da1219;fill-opacity:1;stroke:#000000;stroke-width:4.09999990000000030;stroke-linejoin:miter;stroke-miterlimit:4;stroke-opacity:1;stroke-dasharray:none;stroke-dashoffset:0"
       id="path3968"
       sodipodi:cx="430.89285"
       sodipodi:cy="-49.602104"
       sodipodi:rx="15.178572"
       sodipodi:ry="14.821428"
       d="m 446.07142,-49.602104 c 0,8.185649 -6.79567,14.821428 -15.17857,14.821428 -8.38289,0 -15.17857,-6.635779 -15.17857,-14.821428 0,-8.185649 6.79568,-14.821428 15.17857,-14.821428 8.3829,0 15.17857,6.635779 15.17857,14.821428 z"
       transform="matrix(0.86884775,0,0,0.89580793,-494.02878,179.79441)" />
    <path
       sodipodi:type="arc"
       style="fill:none;stroke:#000000;stroke-width:4.00891256;stroke-miterlimit:4;stroke-opacity:1;stroke-dasharray:none"
       id="path3890"
       sodipodi:cx="819.2337"
       sodipodi:cy="89.939346"
       sodipodi:rx="123.74369"
       sodipodi:ry="108.84393"
       d="m 942.97739,89.939346 c 0,60.112844 -55.40193,108.843934 -123.74369,108.843934 -68.34175,0 -123.74369,-48.73109 -123.74369,-108.843934 0,-60.112844 55.40194,-108.843933 123.74369,-108.843933 68.34176,0 123.74369,48.731089 123.74369,108.843933 z"
       transform="matrix(0.95510204,0,0,1.0951276,-902.33003,36.194434)" />
    <path
       style="fill:#da1219;fill-opacity:1;stroke:none"
       d="M -21.44594,77.638984 4.5654898,64.759534 34.617524,130.41944 4.8180198,204.16059 -20.43579,191.0286 l 16.1308798,-45.6147 4.10374004,0.0316 c 0.64996,-7.37953 0.3084,-14.75906 -0.20625,-22.13859 l -4.24107004,-0.0446 z"
       id="path4000"
       inkscape:connector-curvature="0"
       sodipodi:nodetypes="cccccccccc" />
    <path
       style="fill:none;stroke:#000000;stroke-width:4.9000001;stroke-linecap:butt;stroke-linejoin:miter;stroke-miterlimit:4;stroke-opacity:1;stroke-dasharray:none"
       d="m -18.47862,194.81668 17.67767984,9.1545"
       id="path4002"
       inkscape:connector-curvature="0"
       sodipodi:nodetypes="cc" />
    <path
       style="fill:none;stroke:#000000;stroke-width:4.9000001;stroke-linecap:butt;stroke-linejoin:miter;stroke-miterlimit:4;stroke-opacity:1;stroke-dasharray:none"
       d="M -0.01346016,64.320694 -18.94114,73.698424"
       id="path4002-1"
       inkscape:connector-curvature="0"
       sodipodi:nodetypes="cc" />
    <path
       style="fill:#da1219;fill-opacity:1;stroke:none"
       d="m -79.49414,310.71846 -25.00127,52.02285 c -19.70495,6.23632 -41.35926,11.08023 -47.47717,27.02158 l -40.4061,-1.01015 c -12.79529,-4.42968 -15.72583,9.20136 0.25253,18.94036 -1.81487,15.87816 18.81277,15.82938 37.12311,17.42513 13.00253,-0.0128 23.95826,8.76267 9.84899,25.25382 -24.7968,21.51462 -52.25071,40.29039 -34.59773,105.56094 12.92005,-51.22773 45.93662,-63.60986 71.71276,-43.21111 29.67913,23.48751 60.54738,64.42763 78.2949,74.77838 -34.2251,-48.36778 -41.68256,-113.46977 -15.90991,-162.63456 18.29108,-31.06963 13.48009,-60.9874 -0.75761,-66.67007 -1.08296,-20.26838 -0.95925,-40.45057 -11.11168,-61.36677 -4.33771,20.11503 -8.45649,40.5706 -18.68782,51.51778 2.6009,-14.51352 4.07311,-28.42507 -3.283,-37.62818 z"
       id="path4058-4"
       inkscape:connector-curvature="0"
       sodipodi:nodetypes="ccccccccscccccc" />
    <path
       style="fill:#000000"
       d="m -38.61062,583.47755 c -3.54451,-2.94642 -17.61827,-16.89095 -31.27502,-30.98783 -27.08689,-27.95987 -40.17694,-39.66275 -48.46284,-43.32716 -24.77663,-10.95741 -48.36077,7.90332 -58.72387,46.96271 -0.99091,3.73483 -2.1188,6.43483 -2.50641,6 -0.91289,-1.02407 -4.61779,-17.65437 -6.07981,-27.29059 -0.63241,-4.16821 -0.92319,-12.83087 -0.65458,-19.5 0.96496,-23.95746 9.13055,-38.77316 32.6344,-59.21203 9.16907,-7.9734 12.24916,-12.22268 12.87329,-17.75994 0.41885,-3.71605 0.13068,-4.45087 -2.66953,-6.80709 -3.47849,-2.92696 -4.58536,-3.17385 -21.0802,-4.70199 -19.10532,-1.76998 -26.66449,-5.34554 -28.90691,-13.67322 -0.61709,-2.29173 -2.69976,-5.50871 -5.05564,-7.80916 -6.49995,-6.34703 -7.71822,-13.7888 -2.77157,-16.92995 1.861,-1.18175 6.07539,-1.28368 25.23412,-0.61036 20.87267,0.73356 23.08219,0.6555 23.88863,-0.84397 2.10146,-3.90742 11.61269,-11.89418 17.61137,-14.78861 3.575,-1.72497 11.225,-4.60502 17,-6.40011 5.775,-1.79508 11.02326,-3.75874 11.6628,-4.36368 0.63954,-0.60494 6.63823,-12.57489 13.33043,-26.59989 6.69219,-14.025 12.50647,-25.85254 12.92062,-26.28342 0.41414,-0.43088 2.25625,2.17823 4.09356,5.79803 3.12177,6.15037 3.33552,7.20731 3.26336,16.13664 -0.0425,5.25536 0.25907,9.17124 0.67008,8.70197 1.87634,-2.1423 5.79064,-14.10082 9.11165,-27.83688 2.53527,-10.48615 4.08301,-15.10466 5.13032,-15.3091 1.01444,-0.19802 2.64444,2.22896 5.03711,7.5 6.39501,14.0882 9.03125,27.36523 8.69536,43.79276 l -0.20447,10 3.89459,4.04383 c 5.74236,5.96242 7.89023,12.7924 7.84813,24.95617 -0.0444,12.83978 -1.82546,19.3695 -10.092,37 -13.08893,27.9155 -15.88072,39.92012 -15.81406,68 0.0401,16.87734 0.4002,21.6394 2.30658,30.5 4.46006,20.72976 13.20362,42.61644 23.12063,57.87504 3.99285,6.14351 4.56505,9.12496 1.75127,9.12496 -0.73525,0 -4.23688,-2.41071 -7.78139,-5.35713 z m -6.00369,-17.26087 c -11.23838,-22.42979 -16.7072,-44.27529 -17.61947,-70.382 -0.95589,-27.35474 2.6111,-44.10758 15.2388,-71.57097 9.27664,-20.17536 10.94912,-26.11915 10.81324,-38.42903 -0.11321,-10.25612 -1.86719,-16.76776 -5.58156,-20.72153 -2.84674,-3.03021 -3.50521,-2.88216 -4.32086,0.97153 -2.07098,9.78468 -15.84513,28.34427 -19.05739,25.67833 -1.15773,-0.96084 -0.5077,-2.1387 3.75018,-6.79532 6.41474,-7.01546 11.30173,-17.03863 12.88858,-26.43433 1.59835,-9.46387 0.66485,-27.97891 -1.9007,-37.69868 -2.47208,-9.36562 -5.75829,-17.05007 -6.41466,-15 -0.26414,0.825 -1.90397,6.9 -3.64405,13.5 -3.62031,13.73152 -7.54096,22.76262 -13.04905,30.05803 -4.8011,6.35901 -15.26769,11.85786 -32.1792,16.90605 -26.82557,8.00758 -36.31315,12.88452 -41.8494,21.51202 l -3.13047,4.8784 -18.19243,-0.55207 c -17.51752,-0.5316 -18.29178,-0.47267 -20.87005,1.58838 -1.47268,1.17726 -3.20083,3.72584 -3.84032,5.66353 -1.96445,5.95232 -0.83609,6.43481 14.88195,6.36355 19.23818,-0.0872 29.3958,1.71412 46.28367,8.20787 6.57956,2.52998 7.57379,3.22329 7.11858,4.96403 -0.29101,1.11283 -1.03247,1.80351 -1.64769,1.53485 -17.25415,-7.53484 -32.22813,-10.79057 -49.48003,-10.75824 -6.7988,0.0127 -12.59034,0.25206 -12.8701,0.53182 -1.29183,1.29183 1.1028,5.85903 4.00839,7.64505 4.7143,2.89781 9.03299,3.84796 24.58117,5.4081 8.00726,0.80346 15.23517,2.06258 16.95983,2.95443 4.55882,2.35746 7.18216,6.28806 7.18216,10.76118 0,7.88388 -1.29955,9.61019 -22.45803,29.83302 -16.13192,15.41855 -22.48022,28.67373 -23.31978,48.69149 -0.25869,6.16791 0.0655,14.92098 0.72217,19.5 2.0215,14.0956 1.91852,14.00064 5.60194,5.16562 1.80165,-4.32141 4.51349,-10.05588 6.02631,-12.74327 3.58216,-6.36338 13.41743,-16.8332 18.73443,-19.94312 5.4109,-3.16485 13.92585,-5.67072 19.26913,-5.67072 5.58416,0 15.94913,3.29049 20.92383,6.64252 8.49034,5.72094 22.94565,19.24631 46.82803,43.81547 13.65542,14.04811 24.96437,25.54201 25.13102,25.54201 0.16664,0 -2.31653,-5.2281 -5.51817,-11.618 z m -77.44088,-170.26042 c -1.1,-0.37348 -3.65768,-1.52275 -5.68373,-2.55393 l -3.68373,-1.87487 2.46873,-3.23666 c 6.37087,-8.35265 15.95039,-11.43995 29.32337,-9.45038 l 8.49434,1.26374 -6.82464,6.46571 c -9.53626,9.0347 -16.79809,11.86368 -24.09434,9.38639 z m -0.22753,-6.18767 c -0.35245,-1.34778 -0.88064,-1.72574 -1.51925,-1.08713 -1.0351,1.0351 -0.22085,3.15322 1.21218,3.15322 0.46605,0 0.60423,-0.92974 0.30707,-2.06609 z m 10.00907,-0.18391 c 0.72663,-2.0265 -1.19307,-4.75 -3.34811,-4.75 -2.21069,0 -3.45987,2.18574 -2.5718,4.5 0.6954,1.81219 5.29019,2.00623 5.91991,0.25 z m 8.58969,-3.11715 c 3.6397,-3.75521 3.00009,-4.63285 -3.37637,-4.63285 l -3.34157,0 1.49024,2.98726 c 0.81964,1.643 1.20859,3.443 0.86434,4 -1.39519,2.25747 1.3061,0.79989 4.36336,-2.35441 z m 13.76238,-30.08594 c 10.62732,-5.31663 12.09459,-7.32005 13.32666,-18.19619 1.0352,-9.13831 0.15265,-18.6378 -1.92453,-20.71498 -0.57939,-0.57939 -2.80945,3.01756 -5.86811,9.46486 -2.71346,5.71967 -7.23623,15.25549 -10.0506,21.19072 -2.81436,5.93522 -5.11703,10.99772 -5.11703,11.25 0,1.19445 3.32875,0.15978 9.63361,-2.99441 z"
       id="path4092"
       inkscape:connector-curvature="0" />
  </g>
</svg>
