<?xml version="1.0" encoding="UTF-8" standalone="no"?>
<!-- Created with Inkscape (http://www.inkscape.org/) -->

<svg
   xmlns:dc="http://purl.org/dc/elements/1.1/"
   xmlns:cc="http://creativecommons.org/ns#"
   xmlns:rdf="http://www.w3.org/1999/02/22-rdf-syntax-ns#"
   xmlns:svg="http://www.w3.org/2000/svg"
   xmlns="http://www.w3.org/2000/svg"
   xmlns:sodipodi="http://sodipodi.sourceforge.net/DTD/sodipodi-0.dtd"
   xmlns:inkscape="http://www.inkscape.org/namespaces/inkscape"
   width="148.49249"
   height="101.00006"
   id="svg6129"
   version="1.1"
   inkscape:version="0.48.4 r9939"
   sodipodi:docname="Nieuw document 35">
  <defs
     id="defs6131" />
  <sodipodi:namedview
     id="base"
     pagecolor="#ffffff"
     bordercolor="#666666"
     borderopacity="1.0"
     inkscape:pageopacity="0.0"
     inkscape:pageshadow="2"
     inkscape:zoom="2.8"
     inkscape:cx="120.41444"
     inkscape:cy="8.5612412"
     inkscape:document-units="px"
     inkscape:current-layer="layer1"
     showgrid="false"
     fit-margin-top="0"
     fit-margin-left="0"
     fit-margin-right="0"
     fit-margin-bottom="0"
     inkscape:window-width="1600"
     inkscape:window-height="837"
     inkscape:window-x="-8"
     inkscape:window-y="-8"
     inkscape:window-maximized="1" />
  <metadata
     id="metadata6134">
    <rdf:RDF>
      <cc:Work
         rdf:about="">
        <dc:format>image/svg+xml</dc:format>
        <dc:type
           rdf:resource="http://purl.org/dc/dcmitype/StillImage" />
        <dc:title></dc:title>
      </cc:Work>
    </rdf:RDF>
  </metadata>
  <g
     inkscape:label="Laag 1"
     inkscape:groupmode="layer"
     id="layer1"
     transform="translate(-654.3252,-441.86215)">
    <rect
       style="fill:#0f47af;fill-opacity:1;fill-rule:evenodd;stroke:none"
       id="rect6091"
       width="148.49249"
       height="101"
       x="654.3252"
       y="441.86215" />
    <rect
       style="fill:#fcdd09;fill-opacity:1;fill-rule:evenodd;stroke:none"
       id="rect6093"
       width="29.875277"
       height="101"
       x="710.89374"
       y="441.86221" />
    <path
       style="fill:#fcdd09;fill-opacity:1;stroke:none"
       d="m 660.17211,493.23726 c 5.1029,0.4171 11.6813,0.3424 17.75,0.4375 l -0.062,-3.0625 -4.875,-0.062 c -3.3871,-2.3065 -7.8823,-8.9906 0,-17.5625 l 4.8125,-0.062 0.039,-6.1221 c 0.5891,-7e-4 1.2419,-0.035 1.7674,-0.3018 1.6196,-0.8207 2.5194,-0.4486 4.1768,0.6774 2.3023,1.4865 5.3925,2.5845 6.8059,2.3202 -1.4393,0.1507 -1.7217,1.4311 -6.8501,-0.7513 -1.4143,-0.8205 -2.8487,-1.08 -3.9775,-0.022 l 0.088,4.088 10.01,0 c -4.2545,6.9446 -2.9874,12.4838 -0.8416,17.7992 l -9.3437,0.062 -0.031,3.0937 c 9.0341,-0.096 12.58,-2.2389 14.7188,-4.9062 l 8.5792,0.06 0,1.8561 c -1.5254,0.5694 -2.4836,1.4998 -3.0936,2.6517 1.8343,0.3648 2.9998,2.8279 3.0936,4.4636 l -5.2812,-0.088 3.6275,-3.5467 -0.4198,-0.3767 -4.2241,3.8792 -31.621,0.044 c -2.9445,-1.2734 -4.172,-3.081 -4.8481,-4.5688 z"
       id="path6095"
       inkscape:connector-curvature="0"
       sodipodi:nodetypes="cccccccscccccccccccccccccccc" />
    <path
       style="fill:#fcdd09;fill-opacity:1;stroke:none"
       d="m 750.16373,493.99806 c 5.10289,0.4171 11.68129,0.3424 17.74999,0.4375 l -0.062,-3.0625 -4.875,-0.062 c -3.3871,-2.3065 -7.8823,-8.9906 0,-17.5625 l 4.8125,-0.062 0.039,-6.1221 c 0.5891,-7e-4 1.2419,-0.035 1.7674,-0.3018 1.6196,-0.8207 2.5194,-0.4486 4.1768,0.6774 2.3023,1.4865 5.3925,2.5845 6.8059,2.3202 -1.4393,0.1507 -1.7217,1.4311 -6.8501,-0.7513 -1.4143,-0.8205 -2.8487,-1.08 -3.9775,-0.022 l 0.088,4.088 10.01,0 c -4.2545,6.9446 -2.9874,12.4838 -0.8416,17.7992 l -9.3437,0.062 -0.031,3.0937 c 9.0341,-0.096 12.58,-2.2389 14.7188,-4.9062 l 8.5792,0.06 0,1.8561 c -1.5254,0.5694 -2.4836,1.4998 -3.0936,2.6517 1.8343,0.3648 2.9998,2.8279 3.0936,4.4636 l -5.2812,-0.088 3.6275,-3.5467 -0.4198,-0.3767 -4.2241,3.8792 -31.621,0.044 c -2.94449,-1.2734 -4.17199,-3.081 -4.84809,-4.5688 z"
       id="path6095-9"
       inkscape:connector-curvature="0"
       sodipodi:nodetypes="cccccccscccccccccccccccccccc" />
  </g>
</svg>
