<?xml version="1.0" encoding="UTF-8" standalone="no"?>
<!-- Created with Inkscape (http://www.inkscape.org/) -->

<svg
   xmlns:dc="http://purl.org/dc/elements/1.1/"
   xmlns:cc="http://creativecommons.org/ns#"
   xmlns:rdf="http://www.w3.org/1999/02/22-rdf-syntax-ns#"
   xmlns:svg="http://www.w3.org/2000/svg"
   xmlns="http://www.w3.org/2000/svg"
   xmlns:sodipodi="http://sodipodi.sourceforge.net/DTD/sodipodi-0.dtd"
   xmlns:inkscape="http://www.inkscape.org/namespaces/inkscape"
   width="659.12958"
   height="438.80551"
   id="svg5215"
   version="1.1"
   inkscape:version="0.48.4 r9939"
   sodipodi:docname="Nieuw document 35">
  <defs
     id="defs5217" />
  <sodipodi:namedview
     id="base"
     pagecolor="#ffffff"
     bordercolor="#666666"
     borderopacity="1.0"
     inkscape:pageopacity="0.0"
     inkscape:pageshadow="2"
     inkscape:zoom="0.98994949"
     inkscape:cx="626.88338"
     inkscape:cy="146.06724"
     inkscape:document-units="px"
     inkscape:current-layer="layer1"
     showgrid="false"
     fit-margin-top="0"
     fit-margin-left="0"
     fit-margin-right="0"
     fit-margin-bottom="0"
     inkscape:window-width="1600"
     inkscape:window-height="837"
     inkscape:window-x="-8"
     inkscape:window-y="-8"
     inkscape:window-maximized="1" />
  <metadata
     id="metadata5220">
    <rdf:RDF>
      <cc:Work
         rdf:about="">
        <dc:format>image/svg+xml</dc:format>
        <dc:type
           rdf:resource="http://purl.org/dc/dcmitype/StillImage" />
        <dc:title></dc:title>
      </cc:Work>
    </rdf:RDF>
  </metadata>
  <g
     inkscape:label="Laag 1"
     inkscape:groupmode="layer"
     id="layer1"
     transform="translate(-16.149496,-172.95943)">
    <rect
       style="fill:#da121a;fill-opacity:1;fill-rule:evenodd;stroke:none"
       id="rect5094-3"
       width="659.12958"
       height="214.05151"
       x="16.149496"
       y="282.66071" />
    <rect
       style="fill:#ffffff;fill-opacity:1;fill-rule:evenodd;stroke:none"
       id="rect5096-8"
       width="659.12958"
       height="109.70139"
       x="16.149496"
       y="172.95943" />
    <path
       style="fill:#fcdd09;fill-opacity:1"
       d="m 329.71912,496.92154 c -0.5656,-1.3035 -2.0646,-3.0333 -4.1628,-4.8037 -5.3239,-4.4917 -8.4917,-8.3731 -11.0865,-13.5844 -2.6569,-5.3358 -8.199,-6.2512 -12.0956,-1.9977 -0.8717,0.9516 -1.4396,1.8353 -2.1842,3.3999 l -0.5641,1.1857 -0.4286,-1.3371 c -0.6851,-2.1377 -0.7657,-2.5998 -0.7745,-4.4398 -0.01,-1.3195 0.053,-1.9345 0.2455,-2.542 0.6535,-2.0637 1.7185,-3.3492 3.5984,-4.3424 1.3824,-0.7304 2.2237,-0.9807 3.7667,-1.1208 l 1.0488,-0.095 -0.8943,-0.5037 c -1.375,-0.7743 -3.5296,-2.4139 -4.6051,-3.5045 -2.2413,-2.2724 -3.6135,-4.587 -4.3572,-7.3498 -0.2729,-1.0131 -0.3223,-1.5228 -0.315,-3.2453 0.01,-1.9033 0.04,-2.145 0.4663,-3.5265 0.9742,-3.1582 2.6577,-5.4747 5.9012,-8.1204 0.6167,-0.5028 1.1213,-0.8875 1.1213,-0.8545 0,0.033 -0.2185,0.6816 -0.4851,1.4415 -0.7952,2.2648 -1.0679,3.7785 -0.9986,5.54 0.049,1.2321 0.1291,1.6844 0.4269,2.4002 0.7667,1.842 1.9391,3.1191 3.9665,4.3206 0.965,0.5719 3.5453,1.7434 3.6247,1.6457 0.021,-0.025 -0.015,-0.4551 -0.079,-0.9546 -0.5831,-4.536 -0.7349,-11.2573 -0.3384,-14.9844 0.5158,-4.8503 1.6608,-9.4719 3.4059,-13.7476 0.6494,-1.591 0.9328,-3.2785 0.9324,-5.5503 0,-2.9008 -0.4197,-5.1511 -1.974,-10.5951 -0.4873,-1.7066 -0.988,-3.6066 -1.1125,-4.2221 -1.5242,-7.5303 -0.2613,-15.0902 3.667,-21.9496 2.1632,-3.7769 4.8936,-7.0354 9.1895,-10.9659 6.9559,-6.3643 10.971,-11.7053 13.4991,-17.9564 1.9331,-4.78 2.715,-9.3458 2.5532,-14.9087 l -0.083,-2.8759 0.2747,0.3785 c 1.7098,2.3541 2.7053,4.0343 3.3921,5.7253 1.5089,3.7153 2.1309,8.2723 1.8301,13.41 -0.1389,2.3743 -0.5732,7.1456 -0.7657,8.4118 -0.079,0.521 -0.059,0.507 1.182,-0.8325 4.4397,-4.79 6.7039,-9.8616 7.5564,-16.9252 0.078,-0.6511 0.1429,-1.5464 0.1429,-1.9893 0,-0.612 0.055,-0.8286 0.2293,-0.9022 0.1262,-0.053 0.2763,-0.043 0.3335,0.021 0.1545,0.1759 1.1652,3.8801 1.7227,6.3139 1.1138,4.8625 1.5056,8.4865 1.3898,12.8527 -0.1643,6.1974 -1.1904,9.5713 -5.3246,17.5045 -1.6418,3.1509 -2.8097,5.5888 -2.723,5.6841 0.026,0.029 0.5736,-0.2038 1.2167,-0.5171 4.5646,-2.2248 8.0242,-7.088 11.2131,-15.7619 0.4454,-1.2118 0.6446,-1.5893 0.8381,-1.5893 0.3494,0 0.3827,0.8586 0.1907,4.9191 -0.3962,8.3874 -1.553,14.7668 -3.6762,20.2723 -1.5205,3.9425 -3.7033,7.4781 -6.5732,10.6476 -1.7643,1.9482 -2.7908,2.8755 -7.7113,6.9668 -2.2702,1.8877 -4.7467,4.0188 -5.5034,4.7359 -0.7569,0.7171 -2.8618,2.539 -4.6779,4.0488 -6.2674,5.2098 -7.6935,6.8303 -9.6847,11.004 -2.028,4.2514 -3.0975,8.4027 -3.6035,13.9871 -0.1711,1.8886 -0.087,8.8881 0.1258,10.5244 0.1052,0.8083 0.1111,0.8171 0.1974,0.3028 0.049,-0.2913 0.127,-0.9384 0.1736,-1.4379 0.1431,-1.54 0.6152,-3.8226 1.1547,-5.5833 1.841,-6.0093 5.3877,-10.6395 10.1471,-13.2467 5.4106,-2.964 11.6351,-2.7353 17.7677,0.6528 0.6952,0.3841 1.2632,0.749 1.262,0.8105 0,0.061 -0.054,0.2021 -0.1176,0.3125 -0.094,0.1642 -0.2098,0.1569 -0.6386,-0.04 -1.5161,-0.6968 -4.038,-0.8989 -5.6197,-0.4502 -2.5024,0.7097 -4.3691,2.8716 -4.9882,5.7767 -0.3315,1.5561 -0.2032,4.1513 0.3274,6.6218 0.2324,1.0822 0.4642,2.3244 0.5151,2.7603 l 0.092,0.7928 0.6937,-1.1712 c 1.342,-2.2653 3.3034,-3.9913 5.4036,-4.7551 1.3574,-0.4938 3.5542,-0.4898 5.0184,0.01 2.7158,0.9251 5.0018,2.8855 6.6855,5.7334 0.4131,0.6986 1.5731,3.1078 1.5731,3.2671 0,0.032 -1.037,0.051 -2.3044,0.041 -2.5499,-0.019 -3.2653,0.1108 -4.7124,0.8583 -1.6511,0.8527 -2.7158,2.4163 -3.3201,4.8757 -0.2629,1.0703 -0.2979,1.6062 -0.3006,4.6164 0,1.873 0.046,4.8606 0.1064,6.639 0.1193,3.5259 0.016,4.923 -0.5443,7.3671 -0.8403,3.6657 -2.5085,6.7704 -5.3852,10.0223 l -1.305,1.4753 0.043,2.9893 0.043,2.9896 -6.9067,0 -6.9068,0 -0.4229,-0.9751 z m -42.4493,0.6565 c -4.616,-0.05 -14.4955,-0.1016 -21.9543,-0.1137 l -13.5613,-0.022 -0.3223,-0.8704 c -2.6895,-7.2601 -7.561,-12.6267 -16.0053,-17.6317 -3.0877,-1.8301 -6.269,-3.3682 -16.1935,-7.8289 -5.1651,-2.3215 -8.7739,-4.3884 -11.5066,-6.5908 -2.4563,-1.9792 -5.08,-5.3592 -6.1209,-7.8846 -0.5131,-1.2451 -1.0425,-3.2674 -1.1638,-4.4468 -0.1109,-1.0791 0.04,-1.065 -1.8078,-0.1695 -0.6975,0.338 -2.6787,1.165 -4.4028,1.8378 -5.7955,2.2615 -6.9379,2.7358 -8.58,3.5624 -5.735,2.8867 -8.9783,6.448 -11.1548,12.2485 -0.2827,0.7532 -0.5415,1.2606 -0.579,1.1351 -0.2631,-0.8822 -0.5336,-3.3782 -0.5331,-4.9192 0,-3.6252 0.7491,-6.1783 2.628,-8.9659 0.4584,-0.6801 0.7585,-1.2111 0.6669,-1.1799 -5.5992,1.906 -7.9186,3.1994 -10.2608,5.7215 -1.7189,1.8508 -2.7654,3.8589 -3.7814,7.2554 -1.2072,4.0359 -2.3423,6.2659 -4.1005,8.0568 -1.6143,1.6443 -3.5613,2.5199 -5.9839,2.6914 l -0.8456,0.06 0.861,-0.9166 c 0.4735,-0.5041 1.0236,-1.2705 1.2222,-1.7029 0.5974,-1.3001 1.0391,-3.4914 1.1954,-5.9307 0.1756,-2.7349 0.3386,-4.119 0.5953,-5.051 0.1088,-0.3955 0.1721,-0.719 0.1406,-0.719 -0.032,0 -0.8148,0.6381 -1.7409,1.418 -6.731,5.6697 -11.315,6.8508 -15.2078,3.9189 -0.5004,-0.377 -0.9293,-0.6216 -0.953,-0.5436 -0.1455,0.4809 -1.1547,2.1403 -1.8751,3.0836 -1.5205,1.9911 -3.7696,3.569 -5.9366,4.1651 -1.2939,0.3559 -3.7866,0.3644 -5.1282,0.017 -2.7781,-0.7186 -5.3395,-2.2892 -7.6663,-4.7009 -0.4893,-0.5071 -0.9039,-0.821 -1.0197,-0.7721 -0.6051,0.2554 -2.1646,1.5764 -2.9701,2.5157 -1.0911,1.2723 -1.6569,2.4882 -1.8466,3.9684 -0.073,0.5707 -0.1703,1.0787 -0.2159,1.1288 -0.046,0.05 -0.543,-0.4336 -1.1056,-1.075 -0.7923,-0.9031 -1.1612,-1.4818 -1.6367,-2.5667 -0.9423,-2.1502 -1.1238,-3.8224 -0.6405,-5.9011 0.5289,-2.275 1.6357,-4.0596 3.4831,-5.6162 l 1.0365,-0.8734 -0.1817,-0.7864 c -0.1002,-0.4323 -0.2487,-1.4115 -0.3306,-2.1759 l -0.1488,-1.3895 -1.2023,-1.3368 c -1.2367,-1.375 -1.8779,-2.4053 -2.4492,-3.9359 l -0.3278,-0.8782 -0.6573,0.037 c -0.8786,0.05 -2.3958,0.5621 -3.4072,1.1492 -1.001,0.581 -2.247,1.9158 -2.6024,2.7876 -0.1438,0.3531 -0.3007,0.642 -0.3482,0.642 -0.2527,0 -1.0879,-2.8996 -1.1893,-4.1289 -0.3895,-4.7274 2.6906,-8.8852 7.2682,-9.8116 0.5108,-0.1034 0.9287,-0.2514 0.9287,-0.3287 0,-0.077 0.2405,-0.7049 0.5342,-1.3947 0.9255,-2.1726 2.0817,-3.5664 3.6126,-4.355 0.4715,-0.2428 0.6592,-0.4281 0.6631,-0.655 0.011,-0.5764 -0.8628,-2.2445 -1.6003,-3.0577 -1.0377,-1.1442 -2.1826,-1.6994 -3.762,-1.8251 l -1.2373,-0.098 0.6285,-0.8798 c 1.4571,-2.0397 4.0003,-3.1257 6.6017,-2.8189 1.9887,0.2344 3.3542,0.8866 4.606,2.2002 l 0.7759,0.8142 0.9046,-0.5009 c 1.2173,-0.6737 2.2566,-0.9175 3.8204,-0.896 2.9636,0.04 5.8923,1.4923 8.0566,3.9938 1.58,1.8261 2.5532,3.8303 3.1502,6.4877 0.6922,3.0818 2.1411,5.5981 3.6952,6.4176 0.992,0.523 1.7632,0.6099 2.9633,0.3337 2.1595,-0.4971 3.9255,-1.6387 9.047,-5.8485 3.7701,-3.099 22.7575,-19.5508 22.6782,-19.6497 -0.024,-0.03 -0.527,-0.2411 -1.1177,-0.4694 -1.4516,-0.5608 -2.8312,-1.3442 -3.826,-2.1728 -1.0536,-0.8776 -2.6692,-2.6766 -2.4038,-2.6768 0.1114,-1e-4 0.7067,0.077 1.3228,0.1719 1.3617,0.2094 2.7636,0.021 3.7082,-0.4978 0.6377,-0.3503 1.7068,-1.3678 1.7068,-1.6241 0,-0.073 -0.9752,-0.5935 -2.167,-1.155 -6.4939,-3.059 -9.2468,-5.308 -10.4352,-8.5244 l -0.301,-0.8146 -0.1689,1.1137 c -0.5476,3.6126 -2.1979,5.6638 -5.3565,6.6575 -0.4958,0.156 -1.0119,0.2836 -1.1469,0.2836 -0.4627,0 -0.4264,-0.4475 0.081,-1.0065 0.8396,-0.9234 1.1089,-1.7378 1.0945,-3.3072 -0.014,-1.5682 -0.2023,-2.5291 -1.0846,-5.5474 -0.4018,-1.3749 -0.9543,-2.8382 -1.506,-3.9881 -1.1187,-2.3319 -1.6581,-3.7381 -1.991,-5.1911 -0.334,-1.458 -0.3542,-3.5681 -0.045,-4.7228 0.3497,-1.3064 0.3801,-2.2085 0.1123,-3.3153 -0.5363,-2.2161 -2.0713,-4.7963 -4.6409,-7.8006 l -1.287,-1.5048 -0.8564,0.7842 c -2.6171,2.3958 -4.7533,3.461 -7.2436,3.6119 -2.1212,0.1285 -3.8819,-0.4479 -5.8427,-1.9127 l -0.8517,-0.6363 -0.7224,0.5276 c -3.0896,2.2567 -6.4156,2.6649 -9.2585,1.1362 -1.2042,-0.6475 -2.8347,-2.3994 -3.4613,-3.7184 -0.3341,-0.7036 -1.1206,-2.9075 -1.1206,-3.1402 0,-0.012 0.4178,0.1339 0.9287,0.3253 1.1114,0.4168 2.6066,0.4665 3.8234,0.1275 0.9354,-0.2606 2.8252,-1.2564 3.4261,-1.8054 l 0.4045,-0.3694 -1.0358,-1.1928 c -2.0438,-2.3534 -2.4084,-4.38 -1.2182,-6.7719 l 0.3766,-0.7567 -1.117,-0.01 c -0.8667,-0.01 -1.2428,-0.079 -1.6801,-0.3316 -1.2082,-0.6966 -1.9045,-2.1301 -2.0655,-4.2518 l -0.09,-1.1943 -0.7041,-0.2387 c -2.5331,-0.8591 -5.4988,-0.7208 -7.1713,0.3342 -0.3781,0.2384 -0.9729,0.711 -1.3219,1.0503 l -0.6344,0.6166 -0.087,-0.9248 c -0.3072,-3.2334 0.4406,-5.8441 2.2498,-7.8534 1.6524,-1.8352 3.2441,-2.5504 5.9519,-2.674 l 1.7542,-0.08 0,-0.6864 c 0,-3.2935 1.4567,-5.8146 4.2448,-7.3456 0.7075,-0.3886 1.3696,-0.7066 1.4709,-0.7066 0.1013,0 0.2231,-0.068 0.2704,-0.1531 0.1493,-0.2658 -1.6674,-3.1224 -2.8409,-4.4671 -1.9065,-2.1846 -3.2751,-2.9572 -5.6869,-3.2106 l -1.0972,-0.1153 0.8907,-0.741 c 1.7361,-1.444 3.5227,-2.0591 5.9815,-2.0591 1.7685,0 3.1283,0.3199 4.6675,1.0982 1.1719,0.5926 2.8513,1.9336 3.5878,2.8651 l 0.5386,0.6812 0.8377,-0.4179 c 1.1068,-0.5521 2.681,-0.897 4.0869,-0.8956 1.0482,0 2.562,0.1904 3.185,0.3983 0.2346,0.078 0.2479,0.019 0.1602,-0.7247 -0.3256,-2.7573 -0.9643,-4.439 -2.2044,-5.8042 -0.7667,-0.8441 -1.4693,-1.3168 -3.1645,-2.129 l -0.5503,-0.2635 0.688,-0.1459 c 0.3783,-0.08 1.7713,-0.155 3.0956,-0.1662 2.1225,-0.018 2.5452,0.021 3.5681,0.3284 3.5896,1.079 6.0829,3.4928 8.0994,7.8411 l 0.2883,0.6216 1.1923,0.1065 c 4.2798,0.382 8.1741,2.8517 9.6388,6.1126 0.4534,1.0096 0.5286,1.3299 0.5778,2.4639 0.073,1.6892 -0.1581,2.5582 -1.1466,4.304 -1.0783,1.9042 -1.7032,3.402 -1.9464,4.6652 -0.5668,2.9433 0.5638,5.4851 3.1897,7.1712 1.1134,0.7151 2.2385,1.8797 3.9886,4.1288 1.1768,1.512 1.814,2.4469 4.4675,6.5534 2.4595,3.8059 5.3276,5.9466 8.6209,6.4348 l 0.8445,0.1252 0.2777,-0.6288 c 1.1691,-2.6474 3.3125,-4.9927 5.7516,-6.2938 0.8895,-0.4743 3.3507,-1.4987 3.6014,-1.4987 0.03,0 -0.2606,0.4359 -0.6459,0.9688 -0.9057,1.2519 -1.8555,3.2337 -2.1473,4.48 -0.3116,1.3312 -0.2294,3.4329 0.1731,4.4191 0.4089,1.0018 1.3557,1.9937 2.1961,2.3008 0.5796,0.2117 1.3228,0.2517 4.6655,0.251 7.0811,0 13.1184,-0.7273 17.1688,-2.0637 1.992,-0.6572 5.7533,-1.7134 7.4736,-2.0985 3.6666,-0.8206 5.6699,-1.0523 9.1211,-1.0546 5.2407,-0.01 8.1799,0.6253 13.6211,2.9133 4.2464,1.7856 9.1617,2.4541 12.4898,1.6985 2.5776,-0.5851 4.6921,-2.1407 5.5026,-4.0488 0.5074,-1.1941 0.5292,-2.8062 0.052,-3.8716 -1.0578,-2.3631 -3.7053,-3.5916 -7.7398,-3.5916 -3.5327,0 -6.9783,0.8566 -11.0486,2.7469 -3.3681,1.5641 -4.7639,1.9653 -6.8578,1.9711 -2.223,0.01 -3.6742,-0.4298 -5.7835,-1.7381 -0.6648,-0.4124 -1.191,-0.7684 -1.1695,-0.7913 0.022,-0.023 0.6548,-0.1222 1.407,-0.2207 1.915,-0.2505 3.2599,-0.6598 4.5993,-1.3997 1.3078,-0.7224 2.7705,-2.115 3.4562,-3.2902 0.4326,-0.7417 0.4433,-0.8044 0.5593,-3.2174 0.064,-1.3536 0.1207,-2.8526 0.124,-3.3313 l 0.01,-0.8703 0.531,0 c 0.2922,0 0.8186,-0.043 1.1694,-0.096 0.5515,-0.083 0.6386,-0.1441 0.6386,-0.4484 0,-0.5409 0.5278,-1.9916 1.142,-3.1383 0.5895,-1.1008 0.6779,-1.1034 0.8396,-0.025 0.1882,1.2554 0.9038,2.6581 1.9881,3.8973 0.8978,1.0261 1.0453,0.9706 1.0822,-0.4073 0.017,-0.6574 0.1497,-1.5162 0.318,-2.0657 0.2709,-0.8846 1.2348,-2.9119 1.3332,-2.8037 0.025,0.027 0.1569,0.4933 0.2936,1.0358 0.2807,1.1137 0.7263,2.0132 1.4633,2.9538 0.426,0.5439 0.5445,0.6185 0.7709,0.4851 0.2249,-0.1324 0.5677,0.068 2.1568,1.2625 2.2219,1.6698 2.6955,1.8541 4.7099,1.8322 2.2473,-0.024 3.643,-0.7086 5.1879,-2.5433 0.8168,-0.9699 1.7054,-2.4558 1.7404,-2.91 0.049,-0.6309 -6.696,-2.4896 -11.3999,-3.1414 -3.8013,-0.5268 -5.4233,-0.617 -10.8694,-0.6044 -5.498,0.013 -8.5619,0.1689 -16.0841,0.8203 -6.3412,0.5493 -11.8194,0.3203 -15.0104,-0.6268 -2.2314,-0.6625 -3.9067,-1.6618 -5.4031,-3.2232 -2.6525,-2.7674 -3.9874,-6.5539 -4.7028,-13.3388 -0.1496,-1.4174 -0.404,-3.052 -0.5658,-3.6327 -0.6921,-2.4869 -2.0651,-4.4818 -3.8077,-5.5328 -0.4721,-0.2846 -0.8591,-0.5621 -0.8599,-0.6165 0,-0.1642 2.8549,-0.3254 4.2583,-0.2404 0.9011,0.054 1.6579,0.2068 2.4132,0.4855 2.8545,1.0529 4.6486,2.9072 6.9241,7.1564 0.5238,0.9785 1.4814,2.7706 2.1277,3.9827 2.1061,3.9488 4.4195,6.1544 8.001,7.6282 3.5715,1.4698 6.3235,1.7606 16.4494,1.7393 9.173,-0.019 13.8989,0.2243 17.9773,0.9267 4.0686,0.7008 7.3691,1.8177 10.5375,3.5657 0.7569,0.4177 1.207,0.5935 1.2124,0.4736 0.01,-0.1049 0.056,-0.7016 0.1143,-1.3259 0.1603,-1.7187 -0.05,-4.6024 -0.4594,-6.2941 -0.423,-1.7476 -1.2597,-3.5787 -2.1125,-4.6221 l -0.6242,-0.7639 -0.9744,0.097 c -0.5358,0.054 -2.3983,0.2696 -4.1387,0.4794 -3.3154,0.3998 -6.5841,0.5017 -7.6048,0.237 l -0.5876,-0.1525 -0.388,0.6279 c -0.7157,1.1586 -1.1193,2.3597 -1.2886,3.836 l -0.1625,1.4146 -0.5288,-0.6464 c -1.3493,-1.6493 -2.0314,-3.2738 -2.2404,-5.337 l -0.092,-0.9069 -0.3298,0.4527 c -0.1814,0.249 -0.6106,1.0658 -0.9537,1.815 -0.5173,1.1295 -0.6488,1.5948 -0.7703,2.7243 -0.08,0.7493 -0.1588,1.3767 -0.1737,1.3944 -0.015,0.017 -0.3829,-0.4251 -0.8181,-0.9838 -1.2033,-1.5452 -1.6324,-2.6261 -1.9504,-4.9133 l -0.079,-0.5676 -0.7848,0 c -0.8613,0 -1.5432,-0.3453 -1.8236,-0.9215 -0.107,-0.2201 -0.2253,-2.4655 -0.3487,-6.63 -0.1029,-3.4634 -0.2552,-6.7907 -0.3384,-7.3938 -0.4955,-3.5877 1.5401,-5.3145 6.2842,-5.3308 l 1.5316,-0.01 3.0111,-1.4253 c 4.8682,-2.3041 7.7511,-3.2623 9.8386,-3.2701 0.8448,0 0.8794,-0.019 1.0791,-0.4852 0.4091,-0.9548 1.7779,-1.4271 5.5724,-1.9223 10.6526,-1.3905 19.2548,-1.1321 22.4953,0.6759 2.1213,1.1835 2.2982,2.9169 0.5462,5.3552 -0.403,0.5609 -0.4983,0.7738 -0.3195,0.714 2.1702,-0.7252 4.5507,-0.4809 7.0847,0.7272 2.5298,1.206 3.8761,1.1045 11.0749,-0.8364 4.4213,-1.192 5.5462,-1.3464 7.2842,-0.9995 5.1197,1.0219 6.7452,6.4956 3.7594,12.66 -1.4271,2.9467 -4.0431,5.8329 -6.923,7.6383 l -1.0161,0.637 0.9284,0.2397 c 2.703,0.6979 4.8799,2.904 6.5678,6.6561 1.2188,2.709 1.8648,5.3148 2.0995,8.47 0.7361,9.8927 0.8625,10.7186 2.0709,13.5239 0.8174,1.8974 1.4832,2.965 2.9126,4.6701 l 1.1278,1.3451 -1.8479,-0.074 c -2.8854,-0.1163 -4.8681,-0.8466 -7.351,-2.7077 -0.6053,-0.4536 -1.1817,-0.8795 -1.2808,-0.9461 -0.099,-0.066 0.074,0.4361 0.3859,1.1175 3.4698,7.5917 4.2524,15.0099 2.2766,21.582 -0.7215,2.4007 -2.8166,6.5538 -4.4469,8.8153 l -0.2536,0.3518 -1.1115,-1.8654 c -1.7182,-2.8836 -2.8506,-5.2227 -3.272,-6.7581 -0.053,-0.1936 -0.1223,-0.3235 -0.1538,-0.2888 -0.07,0.076 0.7473,2.7205 1.2276,3.9707 1.656,4.3105 1.4916,9.2118 -0.4584,13.6676 -0.8256,1.8862 -1.5177,3.0724 -3.0398,5.2094 -5.2128,7.3188 -5.8074,16.1208 -1.4151,20.9527 0.4797,0.5277 1.1834,1.1699 1.5634,1.4272 0.7182,0.4861 0.7583,0.5456 0.5789,0.8565 -0.085,0.1483 -0.3365,0.143 -1.2018,-0.024 -4.0703,-0.7887 -7.1574,-2.4014 -8.8971,-4.6478 -0.7221,-0.9325 -1.5001,-2.3532 -1.7708,-3.2342 l -0.1864,-0.6054 -0.1008,1.3856 c -0.3602,4.9453 -2.9137,9.4431 -7.1808,12.6491 -2.5078,1.8841 -4.0254,4.5652 -4.1787,7.3823 -0.1239,2.2726 0.3618,3.852 1.6579,5.392 0.8115,0.9643 1.8297,1.6494 3.1215,2.1004 0.4163,0.1451 0.8057,0.313 0.8657,0.3728 0.1502,0.15 -1.7545,0.7547 -2.9516,0.9373 -2.5908,0.3948 -5.4736,-0.6951 -7.5567,-2.8569 -1.6644,-1.7272 -2.701,-3.9086 -3.0573,-6.4336 l -0.1752,-1.243 -0.5685,0.6443 c -0.7636,0.8658 -1.3551,1.9073 -1.6983,2.9908 -0.3538,1.1171 -0.4866,3.1775 -0.282,4.3772 0.4043,2.3745 1.9924,4.6265 4.0304,5.7159 1.1483,0.6141 3.0044,1.1682 3.9181,1.1699 0.7428,0 1.0088,0.1213 1.0088,0.4549 0,0.2242 -0.2632,0.3248 -1.5478,0.592 -0.8514,0.1769 -1.8729,0.3641 -2.2702,0.4158 -0.702,0.091 -0.7224,0.1076 -0.7224,0.5752 0,0.656 0.3629,1.9491 0.8368,2.9821 0.627,1.3668 2.1318,3.2055 4.6873,5.7274 5.4989,5.4263 6.9394,7.0026 8.5174,9.32 1.6067,2.3595 2.5912,5.0814 2.629,7.2684 l 0.019,1.1032 0.564,-0.3285 c 0.4315,-0.2513 0.8064,-0.3293 1.5959,-0.332 0.8913,0 1.1342,0.058 1.7831,0.4507 1.4132,0.8542 2.8405,2.5517 4.6449,5.5245 0.8868,1.4607 2.7903,4.9631 2.7903,5.1339 0,0.072 -0.077,0.1556 -0.1719,0.1852 -0.095,0.029 -3.9489,0.013 -8.5648,-0.037 z"
       id="path4991-7"
       inkscape:connector-curvature="0" />
    <path
       style="fill:#000000"
       d="m 251.14202,496.65734 c -0.3316,-1.0465 -1.521,-3.5289 -2.306,-4.8133 -3.2237,-5.2743 -7.859,-9.396 -14.9707,-13.312 -3.5035,-1.9291 -5.8948,-3.0694 -14.4788,-6.9042 -3.5346,-1.5792 -7.0995,-3.4487 -9.0807,-4.7622 -5.8616,-3.886 -9.184,-8.511 -10.0516,-13.992 -0.087,-0.5487 -0.1981,-0.9975 -0.2472,-0.9973 -0.049,0 -0.6772,0.2802 -1.3961,0.6222 -0.7188,0.3419 -3.3192,1.404 -5.7786,2.3601 -5.0482,1.9624 -6.1656,2.4485 -8.1588,3.5477 -3.4357,1.895 -5.8404,4.0694 -7.6892,6.9528 -0.9331,1.455 -1.5694,2.7963 -2.3773,5.0107 -0.6383,1.7492 -0.7387,1.9413 -0.8119,1.5517 -1.0792,-5.7551 -0.888,-9.1896 0.7072,-12.7047 0.2648,-0.5828 0.7226,-1.4512 1.0178,-1.9298 0.2954,-0.4787 0.5106,-0.8703 0.4781,-0.8703 -0.1651,0 -3.3303,1.2552 -4.2854,1.6995 -3.4553,1.6073 -5.9572,4.0468 -7.5319,7.3437 -0.348,0.7286 -0.9258,2.3123 -1.2843,3.5194 -1.6054,5.4065 -3.4081,8.1979 -6.3132,9.7754 -1.3852,0.7522 -2.4995,1.0439 -4.5355,1.1873 l -1.3659,0.096 1.066,-0.9246 c 2.0611,-1.7878 2.6492,-3.5033 3.046,-8.8837 0.1131,-1.5341 0.2633,-3.0712 0.3336,-3.4158 0.07,-0.3446 0.1142,-0.6419 0.097,-0.6606 -0.017,-0.019 -0.5552,0.4124 -1.1961,0.9577 -4.2391,3.6068 -7.809,5.3819 -10.7846,5.3623 -1.8292,-0.012 -3.4364,-0.5639 -4.715,-1.6192 -0.241,-0.1988 -0.4648,-0.3614 -0.4978,-0.3614 -0.033,0 -0.2985,0.449 -0.5902,0.9976 -0.6601,1.2417 -2.4258,3.3357 -3.5701,4.2341 -3.4095,2.6764 -7.885,2.9638 -12.0834,0.7759 -1.6591,-0.8644 -3.1665,-1.9911 -4.4287,-3.3102 l -1.0112,-1.0568 -1.0044,0.7138 c -1.3059,0.9282 -2.5528,2.3581 -3.1101,3.5673 -0.3377,0.7325 -0.4858,1.3245 -0.6143,2.4565 l -0.1692,1.4915 -1.2382,-1.3441 c -1.916,-2.0796 -2.7487,-3.9344 -2.9159,-6.4952 -0.2001,-3.0627 1.2703,-6.3391 3.7392,-8.3322 0.838,-0.6766 0.9061,-0.7732 0.8391,-1.1904 -0.04,-0.2496 -0.1679,-1.1936 -0.2841,-2.0975 l -0.2113,-1.6436 -1.0224,-1.0995 c -1.1269,-1.2119 -1.8591,-2.3614 -2.4848,-3.9009 -0.2551,-0.6279 -0.4947,-1.0144 -0.6303,-1.017 -0.4845,-0.01 -2.3947,0.6216 -3.2617,1.0768 -1.1418,0.5995 -2.2719,1.8209 -2.9016,3.1361 l -0.461,0.9629 -0.456,-1.1537 c -0.782,-1.9785 -0.939,-2.7374 -0.9419,-4.5559 -0.01,-2.7538 0.6499,-4.5157 2.3921,-6.437 1.2489,-1.3773 2.6781,-2.2485 4.5289,-2.7606 l 1.263,-0.3495 0.4558,-1.1534 c 0.8328,-2.1073 2.2517,-3.8717 3.7632,-4.6795 0.3214,-0.1719 0.5847,-0.3815 0.5847,-0.4661 0,-0.4595 -1.0807,-2.3296 -1.7051,-2.9507 -1.1029,-1.0968 -1.9271,-1.4419 -3.6964,-1.5473 l -1.4963,-0.089 0.7524,-1.0595 c 1.296,-1.8252 2.7574,-2.7975 4.8076,-3.1989 2.5134,-0.492 5.3189,0.3789 7.0001,2.1729 l 0.6402,0.6832 0.8731,-0.4505 c 1.2734,-0.657 2.2043,-0.8628 3.8313,-0.8468 3.586,0.035 6.9596,2.0071 9.2853,5.4272 0.9643,1.4179 1.5152,2.6565 1.934,4.3473 0.5475,2.2113 0.7513,2.8343 1.3423,4.1022 1.371,2.9412 3.1086,3.9722 5.531,3.2816 2.2035,-0.6281 3.5963,-1.5571 9.0318,-6.024 3.4529,-2.8377 21.7528,-18.712 21.8242,-18.9316 0.02,-0.062 -0.2894,-0.2377 -0.6879,-0.3909 -1.1872,-0.4565 -2.8641,-1.4287 -3.8551,-2.235 -0.8835,-0.7187 -3.0547,-3.1296 -2.9361,-3.26 0.031,-0.034 0.7554,0.051 1.6104,0.1901 1.7026,0.2756 2.6632,0.2167 3.73,-0.2287 0.7148,-0.2984 1.7948,-1.1664 1.7276,-1.3884 -0.023,-0.077 -1.2236,-0.7049 -2.667,-1.3944 -2.9422,-1.4056 -4.481,-2.29 -5.9111,-3.3971 -1.2817,-0.9921 -2.637,-2.5216 -3.2583,-3.677 -0.4936,-0.918 -0.5024,-0.9253 -0.5894,-0.4948 -0.7034,3.481 -2.3774,5.4336 -5.5009,6.4163 -1.2665,0.3983 -1.3543,0.3876 -1.608,-0.1977 -0.2152,-0.4965 -0.2136,-0.5027 0.2658,-1.0045 0.7786,-0.815 1.0629,-1.6829 1.0443,-3.1878 -0.017,-1.4244 -0.1785,-2.2228 -1.0998,-5.449 -0.4171,-1.4618 -0.8896,-2.7254 -1.4147,-3.784 -1.2381,-2.4962 -1.7514,-3.8669 -2.1432,-5.723 -0.2647,-1.2537 -0.2581,-3.3785 0.014,-4.4227 0.4018,-1.5444 0.401,-2.3734 -0.01,-3.7058 -0.6799,-2.2373 -1.9588,-4.3356 -4.2579,-6.9875 l -1.2886,-1.4861 -0.5315,0.4857 c -1.667,1.5244 -3.8919,2.9404 -5.4155,3.447 -1.1482,0.3818 -3.3111,0.4644 -4.4467,0.1696 -1.1063,-0.2869 -2.6399,-1.04 -3.6668,-1.8008 l -0.7341,-0.5438 -0.573,0.4339 c -3.9129,2.9616 -8.5833,2.7487 -11.5721,-0.5276 -0.5355,-0.5871 -1.1961,-1.5082 -1.4676,-2.0469 -0.4391,-0.8702 -1.4033,-3.7626 -1.2944,-3.8824 0.023,-0.026 0.4397,0.1316 0.9259,0.3492 1.2896,0.5772 2.9344,0.6587 4.2792,0.212 0.9505,-0.3158 2.4794,-1.1128 3.0573,-1.5937 0.248,-0.2065 0.2155,-0.2711 -0.6381,-1.2666 -0.5348,-0.6236 -1.0873,-1.4681 -1.3621,-2.0825 -0.4085,-0.9128 -0.4626,-1.1754 -0.4624,-2.2476 0,-0.9954 0.065,-1.3673 0.3627,-2.0652 l 0.3628,-0.8512 -0.9091,-0.1024 c -1.1652,-0.1313 -1.8999,-0.4942 -2.485,-1.2273 -0.6649,-0.8331 -0.9648,-1.6821 -1.1597,-3.2833 l -0.1704,-1.3989 -1.1653,-0.3349 c -0.8118,-0.2333 -1.584,-0.3373 -2.5466,-0.3432 -2.2668,-0.013 -3.6634,0.5415 -5.1344,2.0398 l -0.8296,0.8449 -0.1077,-0.5761 c -0.059,-0.3168 -0.1064,-1.4273 -0.1049,-2.468 0,-1.6715 0.047,-2.0324 0.384,-3.097 0.7567,-2.3929 2.1441,-4.1452 4.1472,-5.238 1.3266,-0.7237 2.6171,-1.0429 4.2307,-1.0466 l 1.2039,0 0,-0.5674 c 0,-1.1452 0.2961,-2.5624 0.7527,-3.6297 0.7724,-1.8049 2.195,-3.2182 4.1538,-4.1274 0.4797,-0.2227 0.9094,-0.4456 0.9547,-0.4956 0.046,-0.05 -0.2568,-0.657 -0.6717,-1.3491 -2.5517,-4.256 -4.8591,-5.8691 -8.4019,-5.8734 l -0.9412,0 1.0011,-0.9201 c 1.0887,-1.0006 2.0491,-1.591 3.4311,-2.109 1.2736,-0.4774 4.0828,-0.5922 5.586,-0.2284 2.126,0.5147 4.1206,1.7058 5.6961,3.4018 l 0.8674,0.9336 0.8016,-0.3958 c 1.2797,-0.6317 2.8131,-0.8867 4.6554,-0.7742 0.8702,0.053 1.7807,0.1368 2.0231,0.1861 l 0.4411,0.089 -0.074,-0.5837 c -0.1749,-1.38 -0.6311,-3.0347 -1.0798,-3.9176 -0.8384,-1.6491 -1.6025,-2.2482 -5.0875,-3.9893 l -0.5441,-0.2717 2.1264,-0.2718 c 4.615,-0.59 7.8306,0.1433 10.5492,2.4055 1.4135,1.1762 2.9331,3.2917 3.9338,5.4764 l 0.3537,0.7721 1.1432,0.1045 c 4.0055,0.3655 7.7853,2.6079 9.5108,5.6424 0.9329,1.641 1.1827,3.8883 0.6323,5.6926 -0.1578,0.5177 -0.6815,1.6335 -1.1636,2.4797 -1.0847,1.9039 -1.5457,3.1202 -1.7462,4.6062 -0.1311,0.9724 -0.1193,1.3092 0.076,2.1816 0.4014,1.789 1.5423,3.2938 3.2621,4.302 0.5188,0.3043 1.2768,1.024 2.2786,2.1633 1.8588,2.1143 2.9006,3.5425 5.0492,6.9228 0.9242,1.4537 2.1413,3.1781 2.7049,3.832 1.6345,1.8962 3.7401,3.2768 5.8195,3.8163 1.5124,0.3923 1.4967,0.3999 2.2543,-1.0915 0.4657,-0.9165 1.0272,-1.7179 1.8397,-2.625 1.2815,-1.4311 1.9569,-1.9829 3.4025,-2.7812 0.9457,-0.5219 4.4452,-1.9468 4.536,-1.8467 0.025,0.028 -0.4237,0.7258 -0.9992,1.5497 -1.1456,1.6398 -2.0087,3.4532 -2.2654,4.7599 -0.091,0.4622 -0.1427,1.3865 -0.1149,2.054 0.04,0.9825 0.129,1.3834 0.4643,2.1046 0.4731,1.0178 1.2883,1.7884 2.1714,2.0529 0.8296,0.2486 10.1275,0.08 12.8243,-0.2317 3.6335,-0.4206 7.9598,-1.3437 9.9749,-2.1281 1.7043,-0.6634 6.6421,-1.8584 9.7686,-2.3641 2.8176,-0.4557 8.008,-0.4984 10.4566,-0.085 2.2447,0.3781 4.5992,1.0294 6.673,1.8459 3.5884,1.4127 4.1572,1.6134 5.7786,2.0394 2.3785,0.6248 4.0417,0.8138 6.3069,0.7167 3.7863,-0.1625 6.3346,-1.4887 7.5284,-3.9179 0.4078,-0.8299 0.4712,-1.1008 0.4724,-2.0181 0.01,-3.3405 -2.8011,-5.2218 -7.7865,-5.2218 -3.5941,0 -6.9393,0.8477 -11.1991,2.8381 -3.2109,1.5003 -4.618,1.8844 -6.8614,1.873 -2.2898,-0.012 -3.6918,-0.4729 -6.182,-2.0339 -1.7126,-1.0736 -1.731,-1.0359 0.6356,-1.3098 2.9172,-0.3377 5.0834,-1.302 6.7052,-2.9852 1.634,-1.6956 1.6664,-1.7948 1.8127,-5.5509 0.068,-1.7594 0.1495,-3.2844 0.18,-3.3883 0.033,-0.1122 0.2954,-0.19 0.6443,-0.1909 0.8383,0 1.6209,-0.1644 1.6209,-0.3355 0,-0.5474 0.5478,-1.971 1.2959,-3.3677 l 0.8775,-1.6383 0.158,0.8932 c 0.3642,2.057 1.0538,3.5942 2.1246,4.7359 l 0.4735,0.5049 0.091,-0.8874 c 0.1435,-1.3963 0.455,-2.45 1.1347,-3.8388 1.0043,-2.0525 0.9348,-2.015 1.2143,-0.6548 0.2731,1.3283 0.8394,2.6407 1.505,3.4876 0.367,0.4672 0.4811,0.5344 0.648,0.3821 0.1668,-0.1524 0.5379,0.071 2.1138,1.277 2.064,1.5787 2.6029,1.8313 4.1862,1.9625 2.0139,0.1671 3.8576,-0.6144 5.3339,-2.2612 0.7352,-0.8201 1.8207,-2.5205 1.8207,-2.8523 0,-0.1337 -2.4611,-1.0265 -4.0588,-1.4725 -6.1916,-1.7282 -12.8652,-2.3508 -21.6348,-2.0181 -4.5006,0.1706 -8.6558,0.4394 -12.2803,0.7942 -4.411,0.4317 -10.6044,0.3218 -13.5218,-0.2399 -2.7935,-0.538 -5.3059,-1.8054 -7.0047,-3.5338 -2.7276,-2.7752 -4.2047,-6.801 -4.8656,-13.2607 -0.37,-3.6169 -0.7361,-5.0598 -1.6953,-6.6819 -0.7277,-1.2304 -1.6628,-2.1334 -3.113,-3.0063 l -1.2383,-0.7452 0.6879,-0.1372 c 0.3784,-0.075 1.8643,-0.1455 3.3022,-0.1557 2.9531,-0.021 3.4612,0.087 5.297,1.1304 2.4335,1.3823 3.8068,3.1445 6.5344,8.385 1.9013,3.6524 2.6472,4.836 3.875,6.147 2.5151,2.6857 5.5528,4.1246 10.4016,4.9272 1.3015,0.2155 2.8747,0.2618 9.9205,0.2918 12.5366,0.053 17.4455,0.4062 22.1707,1.5936 2.6476,0.6653 5.8006,1.8797 7.6028,2.9281 0.8439,0.4911 0.8623,0.4946 0.9227,0.1773 0.2581,-1.3578 0.078,-4.9539 -0.3393,-6.7709 -0.3868,-1.6846 -1.2105,-3.5346 -2.0084,-4.511 l -0.6468,-0.7913 -0.9081,0.096 c -0.4994,0.052 -2.3631,0.2688 -4.1414,0.4802 -2.9131,0.346 -5.1497,0.4353 -7.6207,0.3036 -0.5188,-0.027 -0.5491,0 -0.9991,0.8799 -0.6176,1.2081 -0.861,2.166 -0.9808,3.8583 l -0.1,1.4063 -0.9418,-1.1944 c -0.5179,-0.6571 -1.1222,-1.5351 -1.343,-1.9513 -0.4596,-0.8673 -0.9485,-2.4748 -0.9485,-3.1189 0,-0.6005 -0.142,-0.5498 -0.5753,0.2056 -0.7125,1.2423 -0.9622,2.1019 -1.1261,3.8783 l -0.1586,1.7219 -0.9961,-1.2679 c -1.4425,-1.8362 -2.0925,-3.3485 -2.2689,-5.2786 -0.031,-0.3476 -0.1038,-0.3857 -0.8853,-0.4679 -0.4679,-0.049 -1.0089,-0.2035 -1.202,-0.3428 -0.7869,-0.5672 -0.7761,-0.4858 -0.9819,-7.3936 -0.105,-3.5209 -0.2589,-6.8952 -0.3422,-7.4983 -0.5205,-3.7719 1.648,-5.6255 6.5932,-5.6358 l 1.4276,0 3.1815,-1.489 c 3.3011,-1.5453 4.3384,-1.9829 5.8596,-2.4735 1.2355,-0.3981 2.9601,-0.7291 3.801,-0.7293 0.6074,0 0.7202,-0.049 0.8521,-0.3674 0.3917,-0.9456 2.1564,-1.5599 5.8785,-2.0463 9.2083,-1.2033 17.1463,-1.1741 21.0613,0.077 1.7924,0.5732 2.8926,1.3959 3.3085,2.4747 0.3612,0.9368 0.084,2.2591 -0.7169,3.418 l -0.3136,0.4541 1.9508,1e-4 c 1.8366,10e-5 2.0233,0.028 3.189,0.4786 0.6811,0.2632 1.6407,0.6678 2.1326,0.8992 0.8049,0.3786 1.0456,0.4194 2.4078,0.4089 1.7544,-0.014 3.3839,-0.3493 8.3608,-1.7213 3.7677,-1.0389 5.0476,-1.1976 6.8144,-0.8452 5.0004,0.9976 6.8799,6.127 4.4382,12.1135 -1.1347,2.782 -3.7456,6.058 -6.3363,7.95 -0.7189,0.5251 -1.3288,0.9769 -1.3553,1.0042 -0.026,0.027 0.22,0.129 0.548,0.2263 2.3621,0.6996 4.6542,3.1691 6.2463,6.73 1.2691,2.8382 1.8779,5.3054 2.1283,8.6274 0.075,0.9989 0.2309,3.0665 0.3457,4.5947 0.2689,3.5776 0.5346,5.3709 1.046,7.0597 0.7369,2.4343 1.8408,4.3387 3.8656,6.6688 l 1.2417,1.4288 -1.7208,0 c -3.0763,0 -5.5774,-0.787 -7.9203,-2.4926 -0.4039,-0.2939 -0.7591,-0.5344 -0.7894,-0.5344 -0.03,0 0.1069,0.3916 0.305,0.8702 3.7542,9.0738 3.9788,16.666 0.7125,24.0649 -0.6252,1.4157 -2.6444,4.9275 -3.4542,6.0072 l -0.3327,0.4439 -0.8803,-1.4252 c -0.4843,-0.7837 -1.0496,-1.7327 -1.2564,-2.1088 -0.4304,-0.7824 -0.4579,-0.7114 -0.1747,0.4515 0.1114,0.4579 0.2724,1.5602 0.3578,2.4496 0.4344,4.5254 -1.0451,9.2712 -4.2844,13.7443 -0.6071,0.8383 -1.3247,1.9038 -1.5944,2.3679 -1.255,2.1584 -2.3975,5.2529 -2.8142,7.623 -0.2716,1.5448 -0.2387,4.5583 0.064,5.903 0.3487,1.5466 1.153,3.3744 1.9597,4.4534 0.5831,0.7797 1.8311,1.9537 2.5903,2.4364 0.2238,0.1425 0.2265,0.197 0.034,0.7026 l -0.2083,0.548 -1.3798,-0.2725 c -4.8987,-0.968 -8.2567,-3.1642 -9.9998,-6.5401 l -0.3207,-0.6211 -0.085,0.5927 c -0.707,4.9159 -2.8082,8.5063 -6.9668,11.9043 -0.8779,0.7175 -1.9144,1.701 -2.3029,2.1859 -1.3479,1.6814 -2.0872,3.7099 -2.0841,5.7187 0.01,3.4076 1.8065,5.782 5.2267,6.8896 0.5675,0.1837 1.0778,0.3816 1.134,0.4399 0.1626,0.1684 -2.7745,1.0731 -3.9684,1.2223 -5.1982,0.6495 -9.9151,-3.5168 -10.8524,-9.5858 l -0.09,-0.586 -0.3965,0.4176 c -0.5521,0.582 -1.3277,2.2654 -1.5748,3.4186 -0.7849,3.6627 0.785,7.3828 3.7819,8.9626 1.1689,0.616 3.0483,1.1602 4.013,1.1618 0.728,0 0.7535,0.025 0.8199,0.7578 l 0.048,0.5298 -1.5135,0.3257 c -0.8323,0.1791 -1.8138,0.3716 -2.1809,0.4277 l -0.6676,0.1022 0.096,0.7074 c 0.2348,1.7272 1.2964,3.6605 3.0914,5.6284 0.5704,0.6255 2.1825,2.258 3.5824,3.6277 6.5556,6.4147 8.8586,9.6417 9.7024,13.5966 0.1121,0.5255 0.2039,1.184 0.2039,1.4633 0,0.9057 0.071,0.9767 0.7299,0.7254 0.8412,-0.3211 2.076,-0.1957 3.0072,0.3055 1.8938,1.0192 4.2857,4.2944 7.1807,9.832 l 0.3759,0.719 -0.6594,-0.01 -0.6592,-0.01 -1.0047,-1.876 c -2.1849,-4.0801 -4.2064,-6.7505 -5.7317,-7.5714 -0.6313,-0.3397 -0.8974,-0.3998 -1.5202,-0.343 -0.7497,0.068 -0.8018,0.098 -2.5529,1.4627 -0.2596,0.2024 -0.2663,0.1593 -0.2561,-1.665 0.014,-2.5756 -0.3386,-4.102 -1.4137,-6.1107 -1.3481,-2.5191 -3.239,-4.746 -8.2663,-9.7359 -1.8477,-1.8338 -3.7145,-3.7649 -4.1487,-4.2913 -1.5943,-1.9339 -2.5121,-3.816 -2.775,-5.691 -0.07,-0.4991 -0.1418,-0.6311 -0.3134,-0.5769 -0.1225,0.039 -1.2752,0.1522 -2.5617,0.2524 -7.1172,0.5545 -13.1096,-0.7505 -17.8488,-3.8871 -3.77,-2.4953 -7.2222,-6.9788 -9.2529,-12.0177 -0.6676,-1.6564 -0.7595,-1.7514 -0.7595,-0.786 0,0.4334 -0.095,1.4857 -0.2099,2.3385 -1.185,8.7578 -5.0422,14.6117 -10.6566,16.1737 -1.6468,0.458 -4.4634,0.3537 -6.2631,-0.2322 -3.0182,-0.9826 -5.8396,-2.9376 -9.2871,-6.4356 l -0.7568,-0.7678 0.8944,0.1088 c 3.2217,0.3926 5.4469,-0.2519 7.6548,-2.2171 1.5514,-1.3811 2.9245,-3.836 3.4423,-6.1552 0.3398,-1.5207 0.3079,-4.4636 -0.065,-5.9889 -0.8153,-3.3365 -2.7552,-6.6251 -5.4105,-9.1728 -0.7699,-0.7387 -0.8811,-0.8012 -1.0076,-0.5665 -0.078,0.1451 -0.4226,0.6819 -0.7648,1.193 -0.5895,0.8797 -0.6319,1.0108 -0.7956,2.458 -0.5584,4.9334 -2.6329,9.2114 -5.9324,12.2335 -1.4024,1.2845 -2.8828,2.3276 -4.6384,3.2685 l -1.4586,0.7818 0.09,0.8812 c 0.1481,1.4392 0.5965,3.006 1.3213,4.6154 2.4096,5.3505 7.1904,9.2019 16.7823,13.5197 1.4755,0.6642 4.045,1.8216 5.7097,2.5719 13.8938,6.2616 20.4714,11.1934 24.8677,18.6449 1.0033,1.7003 2.4433,4.9271 2.4433,5.4749 0,0.069 -0.2508,0.1252 -0.5576,0.1252 -0.501,0 -0.5727,-0.048 -0.7078,-0.4745 z m -96.3835,-18.365 c 3.3612,-1.122 5.3335,-3.838 7.1339,-9.8238 1.0808,-3.5932 2.3431,-5.9229 4.2917,-7.9205 1.9288,-1.9772 3.9616,-3.2013 7.6612,-4.6138 1.3379,-0.5109 5.5529,-1.9355 5.5936,-1.8905 0.015,0.016 -0.5295,0.7102 -1.2101,1.5419 -1.9624,2.3987 -2.9162,4.1051 -3.5439,6.3411 -0.3445,1.2274 -0.5775,3.7474 -0.4674,5.0572 l 0.08,0.9558 0.6773,-1.3342 c 2.8523,-5.6188 7.149,-8.9532 15.7288,-12.2064 3.9951,-1.515 6.2746,-2.4482 7.9068,-3.2369 0.9459,-0.4572 2.199,-1.0561 2.7847,-1.3312 4.2335,-1.988 7.8807,-5.7116 9.4123,-9.6095 0.5264,-1.3397 1.0767,-3.3827 1.2162,-4.515 l 0.099,-0.8066 -0.8054,0.6 c -1.9994,1.4891 -3.5704,2.0198 -5.9651,2.015 -2.328,-0.01 -4.4039,-0.6638 -6.9479,-2.2057 -1.0932,-0.6626 -1.0979,-0.668 -0.7139,-0.8285 2.0531,-0.8589 2.893,-1.4145 4.039,-2.6727 0.8038,-0.8824 1.115,-1.3737 1.6815,-2.6538 0.7129,-1.6112 1.2371,-3.52 1.5531,-5.6578 0.1999,-1.3519 0.2501,-8.5385 0.066,-9.5179 l -0.1102,-0.5879 -0.5062,0.5298 c -1.6806,1.7588 -5.5375,4.6355 -8.018,5.9805 -4.0685,2.206 -7.6032,3.2211 -12.0534,3.4619 -2.7163,0.1469 -6.8393,-0.3033 -9.8467,-1.0751 l -0.8096,-0.2076 -9.5861,8.3547 c -9.0621,7.898 -15.3185,13.1773 -17.6351,14.8808 -4.6575,3.4252 -7.8044,3.7503 -10.2146,1.0555 -1.1433,-1.2788 -2.2381,-3.7821 -2.7686,-6.3323 -0.4793,-2.3036 -1.9568,-4.8805 -3.7249,-6.4968 -1.1274,-1.0305 -3.0321,-2.1089 -4.4115,-2.4976 -1.3798,-0.3888 -3.4341,-0.3489 -4.6091,0.089 -1.468,0.5478 -1.9952,0.9973 -2.894,2.4671 -0.7124,1.1653 -1.3712,2.856 -1.3712,3.5191 0,0.1082 0.3256,0.3988 0.7235,0.6457 0.946,0.5875 2.3632,2.2539 3.1929,3.7549 1.4528,2.6276 2.2238,3.82 3.1567,4.8817 2.0322,2.3131 4.5729,3.6924 8.4328,4.5782 0.8173,0.1875 1.5666,0.4089 1.6651,0.4917 0.099,0.082 0.1602,0.3269 0.1375,0.5421 -0.039,0.3661 -0.085,0.3898 -0.7293,0.3691 -0.9649,-0.031 -3.786,-0.8263 -5.3072,-1.4959 -3.3979,-1.4955 -5.4561,-3.5639 -7.7878,-7.8271 -1.3412,-2.4518 -2.3744,-3.7256 -3.529,-4.351 -1.638,-0.8871 -3.5178,-0.8861 -4.7768,0 -0.9432,0.6659 -1.9755,1.9792 -2.5534,3.2478 l -0.4814,1.0572 0.5917,0.167 c 0.8819,0.2488 1.4568,0.6224 2.1605,1.4046 1.9867,2.2082 2.1109,5.9649 0.2732,8.2674 l -0.4287,0.537 -1.2997,-0.1005 -1.2998,-0.1006 0.3165,0.7419 c 0.1738,0.4081 0.5164,1.0788 0.7612,1.4904 0.4453,0.7492 1.7803,2.3543 1.958,2.3543 0.052,0 0.3011,-0.3033 0.5536,-0.6741 1.2596,-1.8495 3.4984,-2.9491 6.0175,-2.9558 1.3365,-0.01 1.9982,0.1625 5.1316,1.288 5.0073,1.7983 7.1064,2.2311 9.1782,1.8919 1.2269,-0.2008 1.5537,-0.1062 1.5537,0.45 0,0.4215 -0.2695,0.5635 -1.4378,0.757 -2.1387,0.3542 -4.3826,-0.089 -9.2394,-1.8284 -3.9223,-1.404 -5.0241,-1.5861 -6.9145,-1.1429 -1.5114,0.3543 -3.0157,1.4653 -3.7473,2.7673 -0.2749,0.4895 -0.2819,0.5936 -0.1337,1.9957 0.198,1.8734 0.3278,2.3923 0.5751,2.2964 0.105,-0.041 0.6861,-0.069 1.2914,-0.062 0.871,0.01 1.2588,0.091 1.8576,0.3938 1.4119,0.7135 2.6712,2.2747 3.1171,3.8645 0.2851,1.0163 0.2745,2.5756 -0.023,3.4875 -0.2396,0.7328 -0.2699,0.7617 -1.0512,1.0006 -0.4422,0.1353 -0.8043,0.3081 -0.8043,0.3839 0,0.075 0.387,0.5086 0.86,0.9618 4.2555,4.0768 9.5752,5.2205 13.5591,2.9148 1.9951,-1.1548 3.6975,-3.0711 4.9665,-5.5912 l 0.731,-1.4514 0.8455,0.7799 c 0.465,0.4291 1.3035,1.0203 1.8634,1.3139 0.9236,0.4845 1.1544,0.54 2.4966,0.6009 1.3017,0.059 1.6319,0.019 2.7562,-0.3362 2.7973,-0.8826 6.1898,-3.2063 10.5586,-7.2317 0.7051,-0.6498 1.3282,-1.1813 1.3844,-1.1813 0.056,0 0.2332,0.1948 0.3935,0.4331 l 0.2911,0.4332 -0.5933,0.6406 c -1.1551,1.2473 -1.6127,2.8711 -1.7926,6.3635 -0.162,3.1474 -0.6279,5.5159 -1.4037,7.1396 -0.4674,0.9786 -0.4908,1.0342 -0.4329,1.032 0.025,0 0.3415,-0.1006 0.7028,-0.2208 z m -44.0655,-0.9681 c 0,-0.1552 0.2257,-0.7853 0.5015,-1.3999 1.005,-2.2403 3.7632,-4.7065 6.246,-5.5849 0.8958,-0.3167 0.9561,-0.3668 1.0409,-0.8632 0.4419,-2.5916 -1.3246,-5.3298 -3.6903,-5.7201 -0.5247,-0.086 -0.7764,-0.037 -1.3945,0.2742 -2.4904,1.2543 -4.5392,4.122 -4.9145,6.8788 -0.2715,1.9946 0.285,4.2306 1.5066,6.0543 0.4624,0.6902 0.7043,0.8144 0.7043,0.3608 z m 114.7795,-15.751 c 3.8416,-1.0809 7.0841,-4.9506 8.6962,-10.3783 0.5804,-1.9538 1.0309,-4.6721 1.1971,-7.2212 0.1677,-2.5717 0.099,-4.09 -0.4418,-9.7308 -0.2354,-2.4553 -0.2775,-3.6419 -0.2233,-6.2814 0.097,-4.6748 0.5236,-7.006 1.8179,-9.9139 1.1642,-2.615 2.6586,-4.3318 4.8452,-5.5662 1.2265,-0.6923 1.6188,-0.6789 1.6188,0.055 0,0.2945 -0.2063,0.4821 -1.1471,1.043 -3.0715,1.8313 -4.7841,4.6904 -5.673,9.4717 -0.4546,2.4447 -0.5086,7.1808 -0.1277,11.1914 0.1661,1.7481 0.3498,3.7914 0.4086,4.5406 0.087,1.1098 0.2351,1.7184 0.7977,3.2834 3.3897,9.4269 8.459,14.7267 16.1041,16.8362 2.6197,0.7229 4.2401,0.9098 7.8676,0.9072 3.0993,0 7.0435,-0.3309 7.4724,-0.6226 0.07,-0.047 -0.2729,-0.2751 -0.7629,-0.5052 -3.6075,-1.6929 -5.4973,-4.9366 -5.2883,-9.0769 0.1257,-2.4903 0.9816,-4.5243 2.5272,-6.0062 1.5835,-1.5183 2.225,-2.3163 2.6812,-3.3359 0.5599,-1.2513 0.6853,-3.0342 0.3224,-4.5828 -0.267,-1.1382 -1.1825,-3.341 -1.9055,-4.5844 -1.3808,-2.3747 -1.8037,-3.864 -1.7066,-6.0106 0.036,-0.7909 0.1638,-1.7798 0.2847,-2.1977 0.6424,-2.221 2.6865,-4.6528 4.5183,-5.3752 0.4217,-0.1662 0.5444,-0.1658 0.729,0 0.417,0.3807 0.1904,0.807 -0.6853,1.2887 -1.0177,0.5598 -2.5224,2.1586 -2.9923,3.1795 -1.224,2.659 -1.0296,5.3432 0.588,8.1172 2.1779,3.7347 2.9348,7.0814 2.1966,9.7109 -0.2953,1.0516 -1.0844,2.473 -1.7768,3.2001 -0.5166,0.5426 -0.5506,1.1545 -0.1575,2.845 0.7929,3.4105 3.1141,6.1695 6.063,7.2061 0.8248,0.2899 2.3724,0.4602 3.2085,0.3533 l 0.8006,-0.1026 -0.9111,-0.6578 c -1.9707,-1.423 -3.098,-3.8371 -3.098,-6.6352 0,-3.2766 1.7159,-6.464 4.7228,-8.7728 1.3605,-1.0445 3.6854,-3.5759 4.4261,-4.8191 1.8921,-3.1752 2.3893,-5.4468 2.171,-9.9162 -0.192,-3.9265 0.019,-7.1117 0.6418,-9.6519 0.147,-0.601 0.1543,-0.6065 0.6398,-0.486 0.2702,0.067 0.5078,0.1447 0.528,0.1729 0.02,0.028 -0.083,0.8002 -0.2305,1.716 -0.3783,2.3558 -0.4114,6.9514 -0.061,8.5517 0.4338,1.9844 1.2118,3.521 2.4863,4.9106 1.3119,1.4306 2.5417,2.2297 4.6528,3.0231 1.9341,0.727 2.1071,0.7145 1.3978,-0.1011 -1.1985,-1.3779 -2.056,-3.1804 -2.5588,-5.3793 -0.2436,-1.0647 -0.2992,-1.7258 -0.289,-3.4372 0.019,-3.1369 0.5942,-5.6762 1.9758,-8.7146 0.8556,-1.8815 1.4439,-2.8815 2.8054,-4.769 1.9258,-2.6696 3.0889,-5.1183 3.7556,-7.9078 0.2897,-1.2122 0.3507,-1.8143 0.3546,-3.5068 0.01,-2.2876 -0.2086,-3.6545 -0.8849,-5.6534 -1.0804,-3.1922 -1.3847,-4.1858 -1.6958,-5.5356 -1.1203,-4.8621 -1.0075,-9.0062 0.3291,-12.07 0.3025,-0.6935 0.5857,-1.261 0.6295,-1.261 0.043,0 0.2928,0.098 0.5535,0.2179 l 0.474,0.2178 -0.2117,0.6525 c -1.3746,4.2367 -1.2231,9.0246 0.4293,13.5664 0.8505,2.3375 3.2336,6.7947 3.5265,6.5956 0.2198,-0.1495 1.7178,-2.6898 2.3573,-3.9977 3.7038,-7.5747 3.2473,-16.3086 -1.3498,-25.82 l -0.7392,-1.5295 0.3992,-0.3247 c 0.2196,-0.1786 0.43,-0.3246 0.4675,-0.3246 0.037,0 0.6064,0.4747 1.2638,1.0547 1.373,1.212 2.4143,1.9235 3.7799,2.5828 1.0028,0.4842 3.0366,1.0456 3.808,1.0513 l 0.4476,0.01 -0.8695,-1.2096 c -2.4016,-3.3411 -3.2565,-6.2293 -3.7412,-12.6396 -0.1197,-1.5817 -0.2787,-3.6826 -0.3537,-4.6685 -0.1663,-2.1884 -0.4055,-3.479 -1.0179,-5.4924 -1.7528,-5.7623 -5.1332,-9.3075 -8.5179,-8.9326 -0.4628,0.051 -1.2539,0.2612 -1.758,0.4668 l -0.9168,0.3735 -0.2044,-0.5602 c -0.1126,-0.3082 -0.1875,-0.5803 -0.1666,-0.6047 0.021,-0.024 0.6399,-0.278 1.3755,-0.5637 4.9226,-1.9102 9.0666,-6.265 10.5111,-11.0465 0.4954,-1.6393 0.6502,-3.1589 0.4454,-4.3732 -0.4485,-2.6589 -1.9047,-4.2029 -4.4686,-4.738 -1.5992,-0.3339 -2.7327,-0.1914 -6.2944,0.7911 -7.7144,2.1281 -9.5229,2.2881 -12.0509,1.0656 -1.6495,-0.7976 -2.96,-1.1461 -4.3029,-1.144 -1.399,0 -2.3359,0.2542 -3.6997,0.9953 -1.0656,0.579 -1.0346,0.5818 -1.4046,-0.1298 -0.1165,-0.2238 0.052,-0.4669 1.0244,-1.4796 1.6994,-1.7696 2.3477,-3.0367 2.0276,-3.9629 -0.6253,-1.809 -5.6993,-2.859 -12.741,-2.6362 -6.4741,0.2047 -13.6016,1.0836 -14.9337,1.8414 -0.4936,0.2808 -0.5024,0.3429 -0.073,0.5222 0.3119,0.1305 0.3235,0.1747 0.18,0.6894 -0.1357,0.4869 -0.194,0.5395 -0.5053,0.4587 -2.4838,-0.6449 -5.4382,0.1254 -11.5348,3.0076 l -3.0651,1.4489 -1.5441,0 c -3.4574,0 -5.1665,0.7897 -5.6051,2.5816 -0.2558,1.0449 -0.1629,1.2591 0.5971,1.3781 0.9495,0.1487 1.4142,0.3536 2.3945,1.0563 1.2886,0.9236 1.7454,0.9341 3.4406,0.079 0.7534,-0.38 1.659,-0.7709 2.0123,-0.8688 1.0007,-0.2772 1.8769,0.015 1.8769,0.6254 0,0.39 -0.2191,0.4942 -1.0959,0.5212 -0.613,0.019 -1.0476,0.1726 -2.1411,0.758 -1.261,0.6751 -1.4567,0.7354 -2.4162,0.7445 -0.9616,0.01 -1.1029,-0.031 -1.7887,-0.5109 -1.1969,-0.8376 -1.9332,-1.2197 -2.3501,-1.2197 -0.4665,0 -0.4461,-0.7511 -0.1944,7.1772 0.1664,5.2402 0.2041,5.757 0.4326,5.9409 0.1789,0.1437 0.7836,0.2021 2.1159,0.2039 1.0262,0 3.2487,0.068 4.9392,0.1486 3.0382,0.1441 3.0836,0.1513 3.9405,0.6154 1.5386,0.8333 3.3334,0.8613 9.2811,0.1445 1.4708,-0.1774 3.1996,-0.3357 3.8418,-0.3518 l 1.1676,-0.029 0.7919,1.032 c 2.8344,3.6934 3.6234,10.5616 1.8413,16.0261 -1.7302,5.3049 -5.3406,8.0019 -9.6758,7.2281 -1.3513,-0.2412 -1.7587,-0.4486 -3.5124,-1.7875 l -1.6336,-1.247 -1.0574,0.7638 -1.0576,0.7638 -2.3636,0 -2.3637,0 -0.3531,-0.615 -0.353,-0.6153 -1.1278,0.091 c -2.2226,0.1797 -2.297,0.2009 -2.2999,0.6565 0,0.2239 -0.062,1.5827 -0.1344,3.0197 l -0.1319,2.6129 -0.4779,0.8219 c -1.3571,2.3339 -3.559,3.9744 -6.4076,4.7743 -0.6433,0.1807 -1.1864,0.347 -1.2072,0.3698 -0.064,0.07 1.5172,0.6666 2.2356,0.8421 0.9835,0.2401 3.2939,0.2064 4.3375,-0.063 1.1566,-0.2987 2.5275,-0.8233 3.99,-1.5271 4.1042,-1.975 7.941,-2.9517 11.5906,-2.9507 4.6011,0 7.412,1.3782 8.613,4.2193 0.2981,0.7054 0.3601,1.0717 0.3626,2.1451 0,1.1941 -0.037,1.3833 -0.5133,2.4435 -2.3753,5.2873 -10.5423,6.353 -19.5,2.5445 -4.8189,-2.0488 -9.1569,-2.8755 -14.0364,-2.6748 -3.7236,0.1533 -8.8352,1.1287 -12.9966,2.4802 -6.5153,2.1159 -11.8871,2.8463 -20.1619,2.7408 l -3.9211,-0.05 -0.7764,-0.4194 c -0.9489,-0.5127 -1.8118,-1.5132 -2.2916,-2.6569 -0.289,-0.6896 -0.3711,-1.1494 -0.4162,-2.3302 -0.068,-1.7875 0.1795,-3.0411 0.938,-4.752 0.2908,-0.6559 0.5184,-1.204 0.5056,-1.2179 -0.012,-0.014 -0.4599,0.2095 -0.9938,0.4966 -2.2703,1.2213 -4.0047,3.1635 -5.2308,5.858 -0.6839,1.5027 -0.7467,1.7273 -0.7467,2.6674 0,4.5779 2.5288,7.2116 7.2232,7.5226 1.0026,0.066 1.6932,0.024 2.5454,-0.1576 0.6433,-0.1366 1.9587,-0.2919 2.9237,-0.3449 l 1.7542,-0.096 0,0.6058 0,0.6057 -1.5478,0.098 c -4.0606,0.2585 -6.4887,1.2016 -8.248,3.2033 -2.1337,2.4275 -2.859,5.2653 -2.6471,10.3577 0.2336,5.6132 0.1237,7.2961 -0.6532,9.9983 -0.768,2.6709 -3.6036,8.2528 -4.8109,9.4704 -0.9553,0.9634 -2.0832,1.4784 -3.6399,1.6616 l -0.9387,0.1107 0.4767,0.4437 c 1.2772,1.1889 3.2984,2.1885 5.7714,2.8544 11.9115,3.2074 20.9787,0.6715 30.6141,-8.5622 0.3059,-0.293 0.3184,-0.4042 0.3897,-3.4812 0.089,-3.8392 0.3294,-5.2266 1.3599,-7.8506 2.0284,-5.1637 6.6963,-8.4618 13.8393,-9.7785 1.2542,-0.2312 1.6795,-0.1349 1.6795,0.3805 0,0.4825 -0.1566,0.5473 -2.4922,1.0313 -6.6619,1.3806 -10.8086,4.7113 -12.4615,10.0088 -0.5748,1.8426 -0.7413,2.9588 -0.8237,5.5274 -0.056,1.7453 -0.01,3.523 0.1624,5.9029 0.5707,8.0108 -0.2347,13.5096 -2.521,17.2135 -0.6661,1.079 -2.1159,2.5786 -2.9812,3.0836 -0.3417,0.1996 -0.6215,0.405 -0.6215,0.4567 0,0.1693 1.638,0.8802 2.7917,1.2115 1.4398,0.4134 3.6289,0.4504 4.8939,0.082 2.9067,-0.8454 5.5939,-3.5632 6.8779,-6.9566 1.0021,-2.6478 1.1476,-4.178 0.9247,-9.7178 -0.2269,-5.6343 0.7148,-9.2041 3.1752,-12.037 1.5135,-1.7429 3.6656,-3.2602 4.1491,-2.9254 0.5957,0.4128 0.3015,0.8757 -1.0923,1.7186 -1.3191,0.7978 -3.0885,2.8111 -3.7912,4.3137 -0.3114,0.666 -0.6677,1.5854 -0.7916,2.0433 -0.5861,2.165 -0.787,6.1365 -0.4745,9.384 0.1996,2.0759 -0.072,4.5042 -0.7418,6.6282 l -0.4658,1.4771 0.6047,0.526 c 0.8727,0.7591 2.6147,2.7839 3.411,3.9645 1.7025,2.5252 2.7975,5.3996 3.1006,8.1403 0.6009,5.4285 -1.8976,10.7371 -6.13,13.0243 -1.1437,0.6181 -2.4387,1.0502 -3.1591,1.0542 -0.9269,0.01 -0.8286,0.2237 0.6362,1.4171 1.803,1.4685 4.3035,2.8543 6.0313,3.3425 1.7148,0.4846 4.0049,0.5225 5.5357,0.091 z m 35.9573,-137.6127 c -2.3063,-0.3634 -4.0244,-2.4369 -4.1763,-5.0407 -0.037,-0.638 0.01,-1.4614 0.1088,-1.9252 0.1792,-0.8347 0.9743,-2.7357 1.3306,-3.1806 0.1781,-0.2225 0.1725,-0.2608 -0.049,-0.3351 -0.7387,-0.2468 -1.7924,-0.4459 -3.195,-0.6034 -1.2223,-0.1375 -1.6017,-0.2344 -1.7192,-0.4393 -0.1097,-0.1915 -0.1086,-0.335 0.01,-0.5279 0.2982,-0.5092 3.2414,-0.2358 5.5121,0.5123 3.1041,1.0225 5.8036,3.116 8.4344,6.5405 0.9355,1.2177 1.8421,1.8915 3.2331,2.4027 0.9894,0.3635 1.3024,0.4046 3.0956,0.4063 2.6156,0 3.5988,-0.2771 6.8795,-1.9565 3.2909,-1.6845 4.1758,-1.8733 9.5623,-2.0408 4.5535,-0.1414 4.7539,-0.1747 7.7047,-1.2792 0.9838,-0.3682 2.3112,-0.7846 2.9499,-0.9252 3.0408,-0.6697 5.513,0.3579 5.5661,2.3137 0.028,1.0375 -0.7606,1.0757 -1.0697,0.052 -0.517,-1.7123 -3.0933,-1.8183 -7.1023,-0.2924 -3.015,1.1478 -3.3489,1.2044 -7.9112,1.3421 -5.361,0.1618 -6.0408,0.3033 -9.1885,1.9125 -3.4169,1.7469 -5.3805,2.2685 -8.0099,2.128 -2.2884,-0.1221 -4.1369,-0.8097 -5.4166,-2.0146 l -0.545,-0.5132 -0.2782,0.4926 c -0.5934,1.0512 -1.9886,2.2676 -3.0672,2.6742 -0.9904,0.3736 -1.6786,0.4507 -2.6524,0.2973 z m 2.2596,-1.4538 c 0.3406,-0.1316 0.8828,-0.4368 1.2051,-0.6782 0.639,-0.4786 1.6843,-1.8942 1.6843,-2.2812 0,-0.3132 -1.9694,-2.4785 -3.1456,-3.4584 -0.5022,-0.4186 -1.4865,-1.0743 -2.1872,-1.4571 -1.2387,-0.6767 -1.28,-0.6879 -1.4827,-0.4043 -0.2635,0.3683 -1.0948,2.14 -1.2319,2.6253 l -0.1033,0.3658 0.3784,-0.3275 c 1.1455,-0.9911 2.6824,-0.5952 3.2594,0.8397 0.343,0.8531 0.2532,1.6996 -0.2584,2.4375 -0.6338,0.9143 -1.6372,1.1665 -2.5666,0.6452 l -0.5168,-0.2899 0.2724,0.4791 c 0.4228,0.7439 1.6393,1.5886 2.5055,1.7398 0.8557,0.1494 1.3212,0.099 2.1874,-0.2358 z m -3.5181,-3.4576 c 0.4581,-0.504 0.1064,-1.5783 -0.5168,-1.5783 -0.634,0 -1.0639,1.1413 -0.6154,1.6346 0.2337,0.2571 0.8762,0.2252 1.1322,-0.056 z m -158.6165,135.6213 c 0.9348,-0.988 2.5147,-1.8937 4.1163,-2.3596 0.8625,-0.2509 1.5461,-0.3247 3.1597,-0.3407 l 2.0589,-0.021 0.3129,-0.511 c 0.42,-0.6853 0.5894,-1.4165 0.5902,-2.5463 0,-1.8257 -0.8607,-3.4589 -2.2285,-4.2215 -0.6323,-0.3526 -0.7209,-0.3629 -1.8143,-0.2135 -4.4136,0.6034 -7.3544,3.7516 -7.4246,7.9484 -0.016,0.9923 0.2548,3.1027 0.3991,3.1027 0.02,0 0.3944,-0.377 0.8303,-0.8381 z m 14.0104,-18.4107 c 0.1624,-1.1172 0.8194,-2.5777 1.7791,-3.9555 l 0.4016,-0.5766 -0.3962,-0.4556 c -1.8539,-2.1308 -5.3809,-2.7965 -7.9638,-1.503 -0.7792,0.3902 -1.795,1.1874 -1.6777,1.3164 0.029,0.033 0.4056,0.16 0.8355,0.2832 1.1377,0.3261 1.754,0.7176 2.7626,1.7557 0.6662,0.6855 1.04,1.2364 1.4493,2.1359 0.3033,0.6669 0.5515,1.2979 0.5515,1.4022 0,0.135 0.3138,0.1945 1.0839,0.2055 l 1.0835,0.016 0.09,-0.6235 z m 57.7651,-24.38 c 1.6132,-2.9826 2.5672,-5.4436 3.066,-7.9084 0.2807,-1.3873 0.3165,-3.2816 0.1424,-7.5678 -0.1354,-3.3355 0,-4.8419 0.6138,-6.9516 0.7123,-2.4388 1.9652,-4.346 3.66,-5.5721 l 0.8831,-0.6386 -0.9326,-0.2536 c -4.2452,-1.1542 -6.3737,-4.1372 -6.2021,-8.6923 l 0.052,-1.3723 -1.2605,-0.3301 c -1.5471,-0.4052 -2.5451,-0.8883 -3.9813,-1.9274 -1.9542,-1.4139 -2.7785,-2.4258 -5.7884,-7.1065 -2.6028,-4.0472 -5.0318,-6.9922 -6.5164,-7.9005 -1.1773,-0.7201 -2.7429,-2.4451 -3.2011,-3.527 -1.1792,-2.7831 -0.7341,-5.6175 1.4695,-9.3603 0.9529,-1.6182 1.2174,-2.5502 1.1448,-4.0347 -0.046,-0.9364 -0.148,-1.4089 -0.4509,-2.0842 -1.4082,-3.1397 -5.4534,-5.5683 -9.3563,-5.6168 -1.5267,-0.019 -2.6123,0.2386 -3.9964,0.9483 -0.8004,0.4104 -1.851,1.2801 -1.851,1.5321 0,0.066 0.2191,0.4098 0.4867,0.7622 0.6794,0.8948 1.4868,2.4717 1.8276,3.5698 0.1584,0.5103 0.4477,1.8385 0.6427,2.9515 0.4979,2.8432 0.6101,3.3767 0.9981,4.7481 0.6951,2.4576 1.7088,4.0671 2.8686,4.5542 0.6021,0.2531 0.8941,0.7313 0.6796,1.1131 -0.3016,0.5369 -2.0312,-0.2661 -2.8092,-1.3042 -1.1508,-1.536 -1.854,-3.6434 -2.6231,-7.862 -0.6495,-3.5633 -0.9083,-4.4487 -1.7168,-5.8744 -0.9456,-1.6673 -2.8758,-3.6507 -4.369,-4.4895 -1.0776,-0.6054 -4.1391,-0.9127 -5.8318,-0.5853 -1.7635,0.341 -2.471,0.7688 -2.8924,1.7487 -0.5133,1.1937 -1.4669,2.5436 -2.2529,3.1892 -0.3812,0.3129 -0.6929,0.6098 -0.6929,0.6594 0,0.049 0.3043,0.1764 0.6763,0.2812 1.7698,0.499 3.3632,2.2088 5.2918,5.6785 3.23,5.8112 6.3622,9.0984 9.8824,10.3722 0.9624,0.3483 1.2592,0.7165 0.9296,1.1535 -0.2266,0.3004 -0.478,0.2783 -1.596,-0.14 -1.1,-0.4116 -2.6617,-1.3473 -3.7644,-2.2555 -1.8443,-1.5189 -4.5194,-5.0586 -6.329,-8.3751 -2.2341,-4.0939 -3.8755,-5.5075 -6.3952,-5.5075 -2.195,0 -5.1529,1.7065 -6.2337,3.5966 -0.5896,1.0312 -0.8907,2.1926 -0.9083,3.5031 l -0.015,1.1431 0.6019,0.1421 c 0.8155,0.1925 2.0726,1.4693 2.4851,2.5244 1.1508,2.9428 0.2468,6.3904 -2.0339,7.756 -0.4067,0.2434 -0.7765,0.3677 -0.9173,0.3083 -0.2087,-0.088 -0.2251,-0.023 -0.1417,0.5665 0.2256,1.5999 0.6553,2.518 1.4228,3.0407 0.4194,0.2855 0.6952,0.3449 1.5643,0.3371 0.9861,-0.01 1.1037,-0.046 1.7964,-0.5708 1.5517,-1.1756 4.1628,-1.7551 5.9016,-1.3099 0.9605,0.2458 2.1706,0.9496 2.7353,1.5907 0.3551,0.4028 0.4292,0.5885 0.3588,0.8972 -0.1266,0.555 -0.5586,0.4993 -1.2194,-0.1576 -0.9697,-0.9635 -1.613,-1.1937 -3.3357,-1.1937 -2.6411,0 -3.7827,0.6729 -4.8377,2.8516 -0.4655,0.9611 -0.5244,1.2034 -0.5224,2.1432 0,0.7956 0.078,1.2166 0.3049,1.6903 0.3699,0.7716 1.9213,2.7747 2.1489,2.7747 0.091,0 0.4722,-0.3467 0.8477,-0.7705 l 0.6826,-0.7705 0.7587,0.071 c 3.2109,0.3036 5.5512,4.703 4.3127,8.1063 l -0.2397,0.6586 0.3361,0.2919 c 0.642,0.5582 2.8176,1.6267 3.6819,1.8085 1.9884,0.4182 4.3534,-0.1779 6.4748,-1.632 1.0113,-0.6931 2.6541,-2.1087 3.0091,-2.5928 0.3998,-0.545 0.01,-2.0817 -0.6692,-2.6106 -0.4298,-0.3365 -0.5271,-0.8915 -0.2075,-1.1832 0.3932,-0.3591 1.2887,0.3787 1.8181,1.4982 0.17,0.3593 0.2525,0.8695 0.2565,1.5862 l 0.01,1.0565 1.4345,1.6679 c 3.0216,3.513 4.4894,6.3133 4.7976,9.1529 0.095,0.8791 0.071,1.1626 -0.1529,1.7754 -0.3867,1.058 -0.4686,3.3081 -0.1725,4.7396 0.2973,1.4383 1.0002,3.2979 2.0023,5.2974 0.8072,1.6102 1.9754,5.2084 2.4331,7.493 0.3241,1.6194 0.3008,3.6073 -0.054,4.5848 l -0.291,0.801 0.2985,-0.099 c 1.2397,-0.4118 2.7564,-1.9093 3.3301,-3.2878 0.4247,-1.0203 0.7198,-2.6275 0.8534,-4.6476 l 0.105,-1.5894 0.5505,0 0.5503,0 0.097,1.0749 c 0.2964,3.267 2.2064,5.7791 6.1981,8.1515 1.2172,0.7235 6.0934,3.0965 6.3799,3.1047 0.085,0 0.4957,-0.6255 0.9122,-1.3956 z m -48.8032,-33.269 c 1.0119,-0.3386 2.4055,-1.1114 3.1877,-1.7674 2.106,-1.7673 0.9787,-6.2817 -1.8457,-7.3899 -0.7157,-0.2808 -0.9107,-0.2672 -1.1062,0.077 -0.3096,0.5453 -2.1932,2.1958 -3.2343,2.8341 -0.5671,0.3478 -1.5558,0.8123 -2.1974,1.0322 -1.0034,0.3443 -1.3609,0.3932 -2.5634,0.3516 -0.7686,-0.026 -1.3973,-0.027 -1.3971,0 0,0.3552 0.944,1.9603 1.6248,2.7694 1.4709,1.7476 3.4399,2.6177 5.6054,2.4771 0.5335,-0.034 1.4001,-0.2071 1.9262,-0.3831 z m -15.8147,-23.9683 c 2.1261,-0.7574 5.786,-0.4337 7.7956,0.6893 0.626,0.3498 0.8092,0.2679 1.5931,-0.7119 0.6882,-0.86 0.9984,-1.8474 1.0036,-3.1952 0.01,-1.1614 -0.2468,-2.0739 -0.7851,-2.85 -0.5241,-0.7561 -1.0946,-1.0831 -2.2183,-1.2718 -3.047,-0.5116 -5.5303,0.2464 -7.3497,2.243 -1.32,1.4492 -1.9267,2.925 -2.1286,5.1774 l -0.097,1.0881 0.7421,-0.4594 c 0.4082,-0.2527 1.0584,-0.572 1.4446,-0.7095 z m 133.286,-0.5699 c 0.2386,-0.1812 0.4562,-0.3475 0.4835,-0.3699 0.027,-0.022 -0.2669,-0.5607 -0.6536,-1.1968 -0.3867,-0.636 -0.703,-1.2188 -0.703,-1.2952 0,-0.076 -0.057,-0.1385 -0.1266,-0.1385 -0.278,0 -0.8333,2.8171 -0.6274,3.1833 0.1541,0.2745 1.1757,0.1595 1.6271,-0.1829 z m -5.2759,-0.9492 c 0,-0.084 -0.6706,-1.4773 -0.7578,-1.573 -0.063,-0.069 -0.3581,0.6371 -0.5422,1.3002 -0.089,0.3221 -0.056,0.3405 0.6027,0.3405 0.3836,0 0.6973,-0.03 0.6973,-0.067 z m 21.2704,-4.381 c 0.1287,-0.4488 0.1965,-0.9232 0.1508,-1.0541 -0.1614,-0.463 -2.9597,-1.8372 -5.5988,-2.7492 -5.4084,-1.8695 -10.2637,-2.3408 -24.7656,-2.4046 -9.0049,-0.039 -9.6789,-0.084 -12.7734,-0.8589 -3.7626,-0.941 -7.0456,-2.9725 -9.107,-5.6355 -0.5188,-0.6704 -1.4194,-2.1088 -2.001,-3.1966 -0.5817,-1.0877 -1.492,-2.7949 -2.0229,-3.7938 -2.2227,-4.1816 -3.935,-5.9947 -6.6659,-7.0588 -0.537,-0.2091 -1.2996,-0.3365 -2.3522,-0.3931 l -1.5576,-0.083 0.7431,0.8577 c 1.6629,1.919 2.394,4.0047 2.8451,8.1156 0.507,4.6185 1.0584,7.0337 2.1568,9.4447 1.7264,3.7897 4.5896,6.0071 8.8007,6.8156 3.163,0.6073 8.7362,0.6755 14.2294,0.1738 16.8955,-1.5426 27.3934,-0.8929 36.1854,2.2393 1.4711,0.5242 1.4625,0.5262 1.7331,-0.4185 z m -17.8425,-11.7465 c 0.095,-0.3746 0.4128,-1.1676 0.7067,-1.7622 l 0.5342,-1.081 -0.3738,-0.1586 c -0.5061,-0.2147 -2.3199,-0.3866 -2.4073,-0.2281 -0.039,0.07 -0.014,0.5358 0.055,1.0353 0.1332,0.9643 1.0437,3.2201 1.2126,3.0039 0.055,-0.07 0.1779,-0.4347 0.2726,-0.8093 z m -4.9986,-0.7025 c 0.1785,-0.5617 0.5155,-1.3592 0.7488,-1.7723 0.5322,-0.9417 0.462,-1.0011 -1.187,-1.0041 l -1.2521,0 0.1128,0.7946 c 0.062,0.437 0.2181,1.1011 0.3466,1.4757 0.2455,0.7157 0.7669,1.6833 0.855,1.5865 0.028,-0.031 0.1975,-0.5165 0.3759,-1.078 z m -111.281,-0.3584 c 1.2361,-0.6807 2.4624,-1.9753 3.0574,-3.2281 l 0.3439,-0.7242 -1.1026,-1.1638 c -1.3412,-1.4155 -2.7255,-2.2992 -4.4506,-2.841 -1.1874,-0.3728 -1.4295,-0.3983 -3.0957,-0.3264 -1.796,0.077 -2.6779,0.2934 -3.7515,0.918 -0.4232,0.2461 -0.4412,0.2285 0.5681,0.565 2.1465,0.7157 4.2159,2.7015 6.095,5.8481 0.507,0.849 0.992,1.5472 1.0778,1.5514 0.086,0.01 0.6522,-0.2653 1.2582,-0.599 z m 16.7498,-3.9571 c 0.8128,-0.7456 2.41,-1.5953 3.4495,-1.8351 0.4095,-0.094 0.7444,-0.2475 0.7444,-0.34 0,-0.092 -0.3242,-0.7765 -0.7204,-1.52 -0.4995,-0.9379 -1.1214,-1.7978 -2.0295,-2.8062 -1.1234,-1.2481 -1.494,-1.5545 -2.616,-2.1624 -1.5393,-0.8342 -3.346,-1.2977 -5.0701,-1.3007 l -1.1492,0 1.0315,1.0597 c 1.5298,1.5717 2.2752,3.4156 2.6422,6.5373 0.081,0.6919 0.1129,0.7318 1.2121,1.5364 0.6207,0.4543 1.2463,0.969 1.3899,1.1438 0.1438,0.1748 0.2995,0.3178 0.3457,0.3178 0.046,0 0.3928,-0.2829 0.7699,-0.6286 z m 188.5091,164.4927 c -0.5416,-1.0168 -1.8902,-2.446 -4.026,-4.2668 -5.2683,-4.4912 -7.7112,-7.483 -10.7453,-13.1592 -1.4502,-2.713 -2.7672,-3.9564 -4.8103,-4.5419 -2.6397,-0.7563 -5.5789,0.4454 -7.564,3.0928 -0.4102,0.5473 -1.1101,1.7784 -1.5548,2.7357 -0.7536,1.6226 -0.8176,1.7145 -0.943,1.3541 -1.6059,-4.6142 -1.7844,-7.3061 -0.656,-9.8872 1.014,-2.3191 3.0134,-3.8143 5.9698,-4.464 l 1.1416,-0.2509 -0.9351,-0.6019 c -2.587,-1.6642 -4.9153,-4.0193 -6.3598,-6.4319 -3.3265,-5.5565 -2.5715,-12.0139 1.9712,-16.8582 0.7903,-0.8428 3.6292,-3.3343 4.2987,-3.7729 0.087,-0.057 -0.1499,0.7647 -0.5261,1.8257 -0.8681,2.4493 -1.2115,4.0268 -1.2128,5.572 0,2.4339 0.8431,4.2531 2.682,5.774 1.4215,1.1758 4.7467,2.8584 4.7467,2.4019 0,-0.1161 -0.097,-1.1203 -0.2155,-2.2312 -0.3059,-2.865 -0.4531,-7.6771 -0.318,-10.3867 0.2828,-5.6575 1.3929,-10.8461 3.4623,-16.1813 0.847,-2.1839 1.0618,-3.3668 1.0604,-5.843 0,-2.8647 -0.3744,-4.8689 -1.9208,-10.3239 -1.4242,-5.0242 -1.7881,-7.1959 -1.7881,-10.6708 0,-7.1284 2.3943,-13.8676 7.1423,-20.1026 1.7786,-2.3358 3.6668,-4.3341 6.6801,-7.0694 9.2475,-8.3947 13.8915,-16.1805 15.4359,-25.8786 0.1889,-1.1869 0.2401,-2.3632 0.2374,-5.4489 0,-2.1644 -0.048,-4.1226 -0.1018,-4.3516 -0.054,-0.2288 -0.051,-0.4129 0.01,-0.409 0.135,0.01 2.0085,2.6413 2.7864,3.9143 0.8193,1.3408 1.963,4.0589 2.3942,5.6897 1.1396,4.3105 1.2651,8.4081 0.4887,15.953 -0.1492,1.4485 -0.2488,2.658 -0.2217,2.6878 0.095,0.1046 2.2865,-2.4562 3.194,-3.732 3.0002,-4.2181 4.7605,-9.7022 5.0524,-15.7412 0.033,-0.6794 0.035,-0.6812 0.5837,-0.7258 l 0.5507,-0.044 0.715,2.6178 c 1.8367,6.7242 2.4826,11.3248 2.3403,16.6712 -0.08,3.0111 -0.2861,4.6684 -0.8615,6.9303 -0.8165,3.21 -1.6495,5.2023 -4.4216,10.5743 -2.3556,4.5649 -2.5649,4.9955 -2.4752,5.0941 0.1346,0.1482 2.3007,-1.178 3.3648,-2.0599 3.0924,-2.5636 5.8239,-7.1175 8.2427,-13.7418 0.6693,-1.8336 0.6112,-1.7774 1.5221,-1.4688 0.2123,0.072 0.2212,1.5248 0.032,5.2141 -0.7606,14.8372 -3.8939,23.9509 -10.7467,31.2593 -1.9035,2.0299 -2.6247,2.6743 -7.275,6.5004 -2.0053,1.65 -4.1104,3.4532 -4.6779,4.0073 -1.2637,1.2336 -3.0328,2.7713 -5.5723,4.8433 -5.3394,4.3562 -7.3221,6.4975 -9.048,9.7715 -2.2324,4.2343 -3.5746,9.1202 -4.0892,14.8855 -0.1572,1.7608 -0.1917,8.0878 -0.045,8.2492 0.052,0.057 0.2074,-0.5073 0.3447,-1.2551 1.7521,-9.5396 7.9047,-16.6796 15.8644,-18.4101 1.6816,-0.3656 4.8788,-0.366 6.7417,0 1.8067,0.3542 4.2778,1.2539 6.0245,2.1939 1.914,1.0301 1.8095,0.9224 1.5289,1.5698 l -0.2363,0.5452 -0.494,-0.2286 c -1.4008,-0.6482 -3.894,-0.8787 -5.3456,-0.4943 -2.5676,0.6798 -4.4791,2.9197 -4.994,5.8518 -0.2609,1.4857 -0.093,4.1509 0.3972,6.3147 0.2265,0.9989 0.4328,1.9803 0.4585,2.1808 0.04,0.3188 0.1501,0.2157 0.8711,-0.8216 2.0966,-3.0163 5.0682,-4.6336 8.1093,-4.414 4.2383,0.3064 7.9434,3.4859 10.1307,8.6939 0.298,0.7095 0.5418,1.3344 0.5418,1.3885 0,0.054 -0.5729,0.039 -1.2727,-0.033 -5.4528,-0.564 -8.3128,1.2196 -9.2825,5.7886 -0.2706,1.275 -0.3065,4.7576 -0.1136,11.0556 0.095,3.093 0.078,3.5774 -0.1857,5.2779 -0.719,4.6434 -2.3036,8.0293 -5.4457,11.6373 l -1.586,1.8214 0,2.5132 0,2.5132 -0.5504,0 -0.5504,0 0,-2.739 0,-2.7388 1.6648,-1.9154 c 2.9647,-3.4107 4.4098,-6.2611 5.2385,-10.3327 0.2989,-1.4692 0.3167,-1.8296 0.2714,-5.5074 -0.1163,-9.4283 -0.1011,-10.5242 0.1645,-11.8059 0.9653,-4.6581 3.7374,-6.8813 8.5864,-6.8856 0.7,0 1.2727,-0.055 1.2727,-0.121 0,-0.3318 -1.4687,-2.6779 -2.2796,-3.6414 -3.0931,-3.6753 -7.0592,-4.746 -10.6169,-2.8662 -0.7039,0.372 -1.2498,0.8434 -2.2381,1.9326 -1.4238,1.5692 -2.2032,2.8989 -2.8943,4.9369 -0.2179,0.6424 -0.4535,1.2311 -0.5236,1.3083 -0.1155,0.1269 -0.9848,-0.238 -0.9848,-0.4135 0,-0.036 0.1393,-0.4602 0.3096,-0.9419 0.41,-1.1605 0.4028,-3.2138 -0.017,-4.99 -0.9985,-4.2185 -0.9433,-7.4276 0.1694,-9.8432 1.1528,-2.5023 3.4171,-4.2223 6.0052,-4.5613 l 0.8942,-0.1171 -0.9631,-0.3228 c -2.4482,-0.8204 -6.1727,-1.118 -8.3239,-0.6654 -5.8789,1.2371 -10.6197,5.3015 -13.3564,11.4505 -1.288,2.8939 -1.9931,5.6515 -2.345,9.1716 -0.1752,1.7521 -0.085,5.9394 0.1623,7.6027 0.084,0.5683 0.133,1.0531 0.1073,1.0773 -0.025,0.024 -0.2695,0.088 -0.5417,0.1423 l -0.4948,0.098 -0.3085,-1.9322 c -1.0074,-6.3072 -1.358,-12.628 -0.9677,-17.4465 0.6376,-7.8679 3.29,-15.1962 7.0497,-19.4776 1.6221,-1.8467 2.8395,-2.9654 6.9111,-6.35 1.8162,-1.5096 3.9831,-3.3871 4.8155,-4.172 0.8325,-0.7849 3.371,-2.9641 5.641,-4.8425 6.4246,-5.3161 8.663,-7.7242 11.0896,-11.9301 3.4323,-5.949 5.5064,-14.3846 5.8418,-23.7603 l 0.078,-2.1946 -1.0831,2.346 c -2.0096,4.3519 -3.4402,6.6329 -5.5374,8.8283 -1.3968,1.4624 -2.3603,2.2289 -3.7849,3.0113 -1.0189,0.5595 -3.6176,1.5617 -3.7299,1.4383 -0.1314,-0.1446 1.7496,-4.1918 3.533,-7.6021 4.0433,-7.7319 5.0239,-10.9743 5.1803,-17.13 0.078,-3.074 -0.048,-5.0293 -0.5255,-8.1466 -0.3145,-2.0546 -1.44,-7.1841 -1.6195,-7.3816 -0.065,-0.072 -0.1616,0.2942 -0.2162,0.8258 -0.1223,1.1917 -0.9025,4.55 -1.3755,5.9201 -1.4653,4.2449 -3.6669,7.6439 -7.5067,11.589 -0.84,0.8631 -1.5512,1.5429 -1.5804,1.5107 -0.029,-0.032 0.034,-0.7965 0.1425,-1.6987 0.3867,-3.2382 0.7425,-7.0253 0.891,-9.4794 0.3821,-6.3152 -0.6447,-11.4637 -3.1289,-15.6921 l -0.5491,-0.9343 -0.084,2.6755 c -0.1681,5.3336 -1.1791,9.6139 -3.4022,14.4056 -2.6576,5.7281 -6.4089,10.5559 -12.5826,16.1935 -1.5893,1.4511 -3.5412,3.3563 -4.3376,4.2337 -6.1133,6.7349 -9.2148,14.1746 -9.2148,22.1041 0,3.3751 0.3673,5.5107 1.8356,10.6709 1.4967,5.2601 1.8797,7.3656 1.8788,10.329 0,2.535 -0.3015,4.2086 -1.1217,6.2445 -2.5927,6.4359 -3.6951,13.2625 -3.4069,21.0954 0.1174,3.1901 0.1373,3.4407 0.551,6.9678 0.1458,1.2413 0.2428,2.2812 0.2159,2.3106 -0.079,0.087 -3.531,-1.3847 -4.4987,-1.9181 -2.8777,-1.5864 -4.551,-3.5563 -5.1603,-6.0747 -0.284,-1.1734 -0.2502,-3.2976 0.076,-4.7952 0.1508,-0.6922 0.2743,-1.3036 0.2743,-1.3587 0,-0.2186 -2.2612,2.3707 -2.8349,3.246 -2.7719,4.2302 -2.7918,9.1361 -0.055,13.5975 1.6121,2.6281 4.6292,5.2969 7.8042,6.9029 0.6266,0.3171 1.1394,0.6391 1.1394,0.7158 0,0.076 -0.037,0.3451 -0.083,0.5965 l -0.083,0.4572 -1.398,0.01 c -5.3323,0.024 -8.4171,3.2411 -7.8256,8.1602 0.087,0.7287 0.2271,1.5811 0.3098,1.8939 l 0.1506,0.5691 0.6796,-1.1176 c 1.2252,-2.0155 3.0161,-3.5804 4.9556,-4.3305 1.2115,-0.4686 3.0674,-0.5766 4.2574,-0.2478 2.4616,0.6804 4.1755,2.2027 5.5566,4.9362 2.5982,5.1422 5.7083,8.9532 10.7473,13.1698 2.007,1.6793 3.7324,3.603 4.3089,4.8039 l 0.4541,0.946 -0.6141,0 c -0.5797,0 -0.6341,-0.037 -0.9666,-0.6614 z"
       id="path4987-4"
       inkscape:connector-curvature="0" />
    <rect
       style="fill:#ffffff;fill-opacity:1;fill-rule:evenodd;stroke:none"
       id="rect5121-2"
       width="659.12958"
       height="115.0527"
       x="16.149496"
       y="496.71225" />
    <path
       style="fill:#078930;fill-opacity:1"
       d="m 486.62142,555.63074 0,-18.1629 47.7425,0 47.7427,0 0,18.1629 0,18.1628 -47.7427,0 -47.7425,0 0,-18.1628 z m -189.1818,-0.5298 0,-18.2385 47.6738,0 47.6738,0 0,18.2385 0,18.2386 -47.6738,0 -47.6738,0 0,-18.2386 z m -189.0441,-0.9082 0,-18.2385 47.6737,0 47.6738,0 0,18.2385 0,18.2386 -47.6738,0 -47.6737,0 0,-18.2386 z m 379.1889,-326.7803 0,-18.2386 47.6739,0 47.6738,0 0,18.2386 0,18.2385 -47.6738,0 -47.6739,0 0,-18.2385 z m -190.8783,17.6838 c -0.05,-0.056 -0.092,-8.263 -0.092,-18.2388 l 0,-18.1376 47.7432,0 47.7432,0 -0.035,18.2006 -0.034,18.2008 -47.6164,0.038 c -26.189,0.021 -47.6577,-0.01 -47.7081,-0.063 z m -188.861,-19.273 0,-18.1629 47.6739,0 47.6736,0 0,18.1629 0,18.1628 -47.6736,0 -47.6739,0 0,-18.1628 z"
       id="path5060-7"
       inkscape:connector-curvature="0" />
    <path
       style="fill:#000000"
       d="m 485.89032,555.86054 0,-18.4655 48.0178,0 48.0178,0 0,18.4655 0,18.4657 -48.0178,0 -48.0178,0 0,-18.4657 z m 94.7974,0 0,-17.2547 -46.7796,0 -46.7794,0 0,17.2547 0,17.2547 46.7794,0 46.7796,0 0,-17.2547 z m -283.979,-0.5297 0,-18.5413 47.9489,0 47.949,0 0,18.5413 0,18.5413 -47.949,0 -47.9489,0 0,-18.5413 z m 94.7971,0.075 0,-17.2548 -46.8482,0 -46.8482,0 0,17.2548 0,17.2547 46.8482,0 46.8482,0 0,-17.2547 z m -283.8414,-0.9839 0,-18.5411 47.949,0 47.949,0 0,18.5411 0,18.5413 -47.949,0 -47.949,0 0,-18.5413 z m 94.7974,-0.075 0,-17.2547 -46.8484,0 -46.8482,0 0,17.2547 0,17.2548 46.8482,0 46.8484,0 0,-17.2548 z m 284.3917,-326.7046 0,-18.5412 47.949,0 47.949,0 0,18.5412 0,18.5413 -47.949,0 -47.949,0 0,-18.5413 z m 94.7973,0 0,-17.1791 -46.8483,0 -46.8483,0 0,17.1791 0,17.179 46.8483,0 46.8483,0 0,-17.179 z m -285.6758,17.9865 c -0.05,-0.055 -0.092,-8.3992 -0.092,-18.5416 l 0,-18.4402 48.0183,0 48.0182,0 -0.035,18.5034 -0.035,18.5034 -47.8914,0.038 c -26.3403,0.021 -47.9329,-0.01 -47.9834,-0.063 z m 94.7053,-18.5165 0,-17.2549 -46.8138,0.038 -46.8139,0.038 -0.034,17.2168 -0.035,17.2169 46.849,0 46.8487,0 0,-17.255 z m -283.5661,-1.0593 0,-18.4655 47.9488,0 47.9491,0 0,18.4655 0,18.4657 -47.9491,0 -47.9488,0 0,-18.4657 z m 94.7971,0 0,-17.2548 -46.8483,0 -46.8482,0 0,17.2548 0,17.2548 46.8482,0 46.8483,0 0,-17.2548 z"
       id="path5066-1-7"
       inkscape:connector-curvature="0" />
    <path
       style="fill:none;stroke:#000000;stroke-width:1.16889358;stroke-linecap:round;stroke-linejoin:miter;stroke-miterlimit:4;stroke-opacity:1;stroke-dasharray:none"
       d="m 311.20712,456.01324 c 5.2407,2.1893 12.6976,7.7097 14.2893,12.0821"
       id="path5144-9"
       inkscape:connector-curvature="0"
       sodipodi:nodetypes="cc" />
    <path
       style="fill:none;stroke:#000000;stroke-width:1.16889358;stroke-linecap:butt;stroke-linejoin:miter;stroke-miterlimit:4;stroke-opacity:1;stroke-dasharray:none"
       d="m 322.60802,401.30884 c 1.6364,-13.9706 12.5519,-24.4405 22.3786,-35.3391 l 0.014,-0.029"
       id="path5146-3"
       inkscape:connector-curvature="0"
       sodipodi:nodetypes="ccc" />
    <path
       style="fill:none;stroke:#000000;stroke-width:1.16889358;stroke-linecap:round;stroke-linejoin:miter;stroke-miterlimit:4;stroke-opacity:1;stroke-dasharray:none"
       d="m 331.72902,404.40254 c 1.7285,-7.1836 8.1609,-12.9145 18.0541,-17.5768"
       id="path5148-1"
       inkscape:connector-curvature="0"
       sodipodi:nodetypes="cc" />
  </g>
</svg>
