<?xml version="1.0" encoding="UTF-8" standalone="no"?>
<!-- Created with Inkscape (http://www.inkscape.org/) -->

<svg
   xmlns:dc="http://purl.org/dc/elements/1.1/"
   xmlns:cc="http://creativecommons.org/ns#"
   xmlns:rdf="http://www.w3.org/1999/02/22-rdf-syntax-ns#"
   xmlns:svg="http://www.w3.org/2000/svg"
   xmlns="http://www.w3.org/2000/svg"
   xmlns:sodipodi="http://sodipodi.sourceforge.net/DTD/sodipodi-0.dtd"
   xmlns:inkscape="http://www.inkscape.org/namespaces/inkscape"
   width="229.22314"
   height="151.19032"
   id="svg31374"
   version="1.1"
   inkscape:version="0.48.4 r9939"
   sodipodi:docname="Nieuw document 43">
  <defs
     id="defs31376" />
  <sodipodi:namedview
     id="base"
     pagecolor="#ffffff"
     bordercolor="#666666"
     borderopacity="1.0"
     inkscape:pageopacity="0.0"
     inkscape:pageshadow="2"
     inkscape:zoom="2.8"
     inkscape:cx="172.86052"
     inkscape:cy="47.549085"
     inkscape:document-units="px"
     inkscape:current-layer="layer1"
     showgrid="false"
     fit-margin-top="0"
     fit-margin-left="0"
     fit-margin-right="0"
     fit-margin-bottom="0"
     inkscape:window-width="1600"
     inkscape:window-height="837"
     inkscape:window-x="-8"
     inkscape:window-y="-8"
     inkscape:window-maximized="1" />
  <metadata
     id="metadata31379">
    <rdf:RDF>
      <cc:Work
         rdf:about="">
        <dc:format>image/svg+xml</dc:format>
        <dc:type
           rdf:resource="http://purl.org/dc/dcmitype/StillImage" />
        <dc:title></dc:title>
      </cc:Work>
    </rdf:RDF>
  </metadata>
  <g
     inkscape:label="Laag 1"
     inkscape:groupmode="layer"
     id="layer1"
     transform="translate(-216.817,-288.19559)">
    <rect
       style="fill:#fcdd09;fill-opacity:1;fill-rule:evenodd;stroke:none"
       id="rect28971"
       width="229.22314"
       height="151.19032"
       x="216.817"
       y="288.19559" />
    <path
       style="fill:#da121a;fill-opacity:1;stroke:#000000;stroke-width:0.75400001;stroke-linecap:butt;stroke-linejoin:miter;stroke-miterlimit:4;stroke-opacity:1;stroke-dasharray:none"
       d="m 315.96758,316.40024 c 1.85022,0.63197 2.61836,2.23155 3.28096,3.9255 2.11006,5.88976 6.15496,5.87315 9.84293,6.21539 6.67157,0.0407 10.70608,2.00637 14.2442,4.3344 -3.46239,-2.31238 -1.29839,-6.10862 -13.12388,-6.21538 -3.38394,-0.32431 -5.29581,-0.44257 -6.96206,-4.98865 -1.78417,-3.29458 -4.2669,-4.19536 -7.28215,-3.27126 z"
       id="path31061-1"
       inkscape:connector-curvature="0"
       sodipodi:nodetypes="ccccccc" />
    <path
       style="fill:#000000"
       d="m 350.7191,428.05958 c -1.50863,-0.11981 -3.12394,-0.74774 -4.31935,-1.67902 -0.52156,-0.40632 -1.05611,-0.97059 -1.22059,-1.2885 -0.0414,-0.08 -0.0397,-0.21443 0.005,-0.43267 0.30772,-1.48399 1.50564,-2.222 4.12916,-2.54393 1.30804,-0.1605 2.35246,-0.61784 2.87427,-1.25859 0.47355,-0.58148 0.48574,-0.68128 0.10425,-0.85256 l -0.27873,-0.12511 -0.098,0.19627 c -0.1339,0.26803 -0.56328,0.66621 -0.92008,0.85318 -0.45681,0.2394 -1.20443,0.43987 -2.0369,0.54627 -2.62535,0.33543 -3.99733,1.23886 -4.39003,2.89076 -0.0521,0.21906 -0.0946,0.4697 -0.0946,0.55698 0,0.20826 -0.12605,0.33076 -0.42632,0.41442 -0.74317,0.20695 -2.46927,-0.60475 -3.55622,-1.67238 -0.78852,-0.77445 -1.18333,-1.48669 -1.19246,-2.15105 -0.007,-0.62269 0.39678,-1.14476 1.20127,-1.54721 0.44556,-0.2229 0.35876,-0.22607 1.32917,0.0486 1.19858,0.33932 2.33814,0.34133 3.04759,0.006 0.38416,-0.1819 0.71181,-0.42813 0.71181,-0.5349 0,-0.0419 -0.0905,-0.16682 -0.20125,-0.27775 l -0.20122,-0.20172 -0.16094,0.13091 c -0.34641,0.28183 -0.67334,0.3874 -1.28884,0.41612 -0.7948,0.0371 -1.29143,-0.0522 -2.8993,-0.52148 -0.19815,-0.0579 -0.30803,-0.53705 -0.2736,-1.19336 0.046,-0.87498 0.40689,-1.54595 1.08532,-2.01753 0.51337,-0.35686 0.90535,-0.47051 1.62215,-0.4703 1.51601,0 2.77807,0.92901 3.75234,2.76091 0.15085,0.28368 0.29255,0.53504 0.31485,0.55856 0.0225,0.0234 0.34413,-0.15142 0.71509,-0.38873 1.77329,-1.13439 3.86905,-2.04083 6.98361,-3.02051 0.75756,-0.23829 1.45656,-0.45879 1.55339,-0.48995 l 0.17603,-0.0567 -0.019,-0.55619 c -0.0526,-1.53433 0.32407,-3.06458 1.09249,-4.43822 0.36575,-0.65384 0.68613,-1.1214 1.36879,-1.99757 0.28902,-0.37101 0.50464,-0.69302 0.47919,-0.71564 -0.0257,-0.0226 -0.33675,-0.10246 -0.69176,-0.17751 -1.32977,-0.28104 -2.39252,-0.73959 -3.2543,-1.40427 -0.24322,-0.18756 -0.96919,-0.86698 -1.6133,-1.50982 l -1.17113,-1.16878 -0.22716,0.25192 -0.22723,0.25192 0.40573,0.44169 c 0.94111,1.02467 1.32149,1.96027 1.32307,3.25411 0,0.999 -0.16327,1.69434 -0.64581,2.73007 l -0.26828,0.57584 -0.082,-0.33162 c -0.0451,-0.1824 -0.15163,-0.4552 -0.23664,-0.6062 -0.21646,-0.38447 -0.83666,-1.00408 -1.42529,-1.42395 -1.26253,-0.90056 -1.92167,-1.7558 -2.27847,-2.95641 -0.1712,-0.57609 -0.22638,-0.945 -0.36159,-2.4176 -0.24733,-2.69384 -0.35458,-2.9416 -1.94954,-4.50403 -1.17888,-1.15473 -1.4868,-1.66583 -1.67222,-2.77501 -0.10171,-0.60887 -0.0435,-1.27879 0.16168,-1.86151 0.0691,-0.19601 0.13829,-0.39929 0.15384,-0.45169 0.0203,-0.0677 -0.0451,-0.12516 -0.22517,-0.19832 -0.31174,-0.12666 -0.32145,-0.11633 -0.54325,0.5777 -0.30201,0.94512 -0.26158,2.08551 0.10742,3.03036 0.27772,0.71107 0.51363,1.02808 1.55039,2.08365 1.2052,1.22704 1.43215,1.54471 1.45703,2.03912 0.01,0.18988 0.10999,1.37953 0.22316,2.6437 0.34408,3.84331 0.38109,5.31839 0.17329,6.91041 -0.2536,1.94329 -0.9332,3.06784 -2.11307,3.4967 -0.29853,0.10852 -0.96172,0.24074 -0.96172,0.19173 0,-0.0139 0.065,-0.11331 0.14434,-0.22096 0.0794,-0.10763 0.21439,-0.35401 0.30005,-0.54748 0.4325,-0.97703 0.42889,-1.94397 -0.0108,-2.84169 -0.15484,-0.3162 -0.77011,-1.0273 -1.02205,-1.18124 -0.147,-0.0898 -0.16746,-0.14754 -0.22971,-0.6497 -0.1398,-1.12733 -0.50483,-1.94564 -1.70873,-3.83046 -0.87883,-1.37588 -1.00871,-1.6674 -1.11725,-2.50774 -0.1298,-1.0044 -0.005,-2.00066 0.48226,-3.85325 0.13321,-0.50642 0.27579,-1.07094 0.31678,-1.25449 0.38779,-1.73486 -0.13606,-3.46348 -1.98596,-6.55381 -0.79628,-1.3302 -1.19856,-3.13737 -1.13469,-5.09735 0.0641,-1.96683 0.50678,-3.9263 1.43016,-6.33052 0.17718,-0.46124 0.31245,-0.84866 0.3006,-0.8609 -0.012,-0.0122 -0.14638,-0.0777 -0.29911,-0.14531 l -0.27754,-0.12307 -0.0935,0.22545 c -0.71525,1.72446 -1.34648,3.90256 -1.58648,5.47454 -0.15356,1.0052 -0.15352,3.30567 0,4.15677 0.22771,1.26268 0.6877,2.44907 1.36789,3.5283 0.5047,0.80079 1.21343,2.28833 1.46027,3.0649 0.1881,0.59187 0.22249,0.78698 0.24431,1.38664 0.0276,0.7586 0.032,0.73229 -0.41251,2.45764 -0.44522,1.72796 -0.47831,1.94342 -0.47978,3.1252 -0.003,1.2223 0.0219,1.34977 0.47907,2.60582 0.92501,2.54145 0.95808,4.64964 0.10151,6.46692 -0.44391,0.94174 -1.13655,1.6692 -1.99005,2.09027 -0.54826,0.27048 -0.87031,0.35846 -1.48726,0.40635 -0.68601,0.0531 -1.82567,-0.18613 -2.44403,-0.51328 l -0.17598,-0.0932 0.4305,-0.0757 c 1.38423,-0.24366 2.37541,-1.15822 2.77592,-2.56133 0.15187,-0.53202 0.20254,-1.49491 0.11271,-2.14256 -0.0942,-0.67985 -0.41465,-1.65832 -0.76563,-2.3386 -1.04745,-2.03003 -1.18677,-4.31574 -0.40446,-6.6361 0.12937,-0.3838 0.32668,-0.97091 0.43842,-1.30468 0.29827,-0.89069 0.48971,-1.92938 0.53226,-2.888 0.0593,-1.33454 -0.13255,-2.30836 -0.71833,-3.64662 -0.9312,-2.12746 -1.24422,-3.25911 -1.38393,-5.00394 -0.11474,-1.43274 0.0996,-3.23259 0.54113,-4.54247 0.45135,-1.33932 0.48093,-1.47527 0.50983,-2.34545 0.0209,-0.62732 0.003,-0.95128 -0.0711,-1.33501 -0.31161,-1.60038 -1.16249,-3.17351 -2.41025,-4.45602 -0.84347,-0.86693 -0.92871,-0.91627 -6.68679,-3.86867 -1.45221,-0.74461 -2.8648,-1.48451 -3.13911,-1.64423 -0.96829,-0.56378 -1.41328,-0.83853 -1.39261,-0.8599 0.0114,-0.0119 0.31836,0.006 0.68198,0.0384 3.77309,0.34242 6.57622,-2.22024 6.57793,-6.0137 l 2.3e-4,-0.51981 0.28502,0.28415 c 0.55353,0.55175 1.32816,1.00993 2.23798,1.32358 0.34671,0.11955 0.39537,0.15772 0.53492,0.41956 0.24859,0.46647 0.86784,1.28111 1.37208,1.80502 1.90535,1.97983 4.3327,2.71494 6.83562,2.07019 0.3066,-0.079 0.60096,-0.16276 0.65413,-0.1862 0.07,-0.0309 0.25699,0.10529 0.67641,0.49245 1.03128,0.95192 1.91333,1.69157 2.48337,2.08232 1.37087,0.93975 2.91768,2.39837 3.68763,3.47743 0.74301,1.04123 1.3017,2.16735 1.59748,3.22005 l 0.13408,0.47729 0.53224,-0.0525 c 0.2927,-0.0288 1.07346,-0.0513 1.73503,-0.0498 1.34663,0.003 1.79761,0.0818 2.74127,0.47972 0.90565,0.38188 1.38705,0.77068 2.86223,2.31167 1.79359,1.87364 2.63377,2.51199 3.93122,2.98682 0.61465,0.22492 1.62295,0.26063 2.20425,0.078 1.30922,-0.41127 2.24681,-1.48233 3.13393,-3.58018 0.18268,-0.43195 0.24628,-0.64523 0.20103,-0.67418 -0.0363,-0.0231 -0.29426,-0.10404 -0.57302,-0.17949 -0.7355,-0.19911 -1.36034,-0.4456 -2.07621,-0.81903 -1.2944,-0.6752 -2.18972,-1.39839 -3.91736,-3.16446 -1.3564,-1.38657 -1.73563,-1.71221 -2.37577,-2.04008 -0.69627,-0.35661 -0.99756,-0.43825 -1.6136,-0.43704 -0.47674,0 -0.60513,0.0241 -0.88712,0.15992 -0.40161,0.1934 -0.75309,0.51301 -1.00315,0.91206 -0.17859,0.28507 -0.19001,0.29268 -0.23917,0.15932 -0.0282,-0.0771 -0.0653,-0.3995 -0.0821,-0.71659 -0.0547,-1.03298 0.24576,-1.90873 0.88211,-2.57089 0.5647,-0.58755 1.36022,-0.94541 2.10695,-0.94782 l 0.27869,0 0,-0.35593 0,-0.35596 -0.40051,-0.0297 c -1.16364,-0.0862 -2.45361,-1.45663 -3.0432,-3.23322 -0.67015,-2.01953 -0.47378,-4.12136 0.53596,-5.73562 0.14575,-0.23304 0.27336,-0.42373 0.28353,-0.42373 0.0106,0 0.007,0.34643 -0.006,0.76984 -0.0269,0.83806 0.0344,1.34333 0.25696,2.11261 0.48729,1.68534 1.79741,3.18195 3.31839,3.79083 0.35853,0.1435 1.70338,0.50593 1.73207,0.46678 0.004,-0.006 -0.10832,-0.4467 -0.24949,-0.98071 -0.81846,-3.09593 -0.96834,-5.16521 -0.52217,-7.20739 0.21134,-0.96738 0.71214,-2.16802 1.21117,-2.90361 0.26148,-0.38549 0.29549,-2.36412 0.0567,-3.29997 -0.13862,-0.54326 -0.43374,-1.22502 -0.71006,-1.64039 -0.3775,-0.56749 -0.75279,-1.60766 -0.97358,-2.69843 -0.14988,-0.7403 -0.15013,-2.42206 0,-3.24658 0.26359,-1.45286 0.81805,-2.87129 1.71384,-4.38455 0.90928,-1.5359 1.87361,-2.74882 3.87163,-4.86961 1.61263,-1.71176 2.39908,-2.88351 3.03627,-4.52375 0.60123,-1.54784 0.92005,-3.3808 0.85036,-4.88878 -0.0285,-0.6177 0.012,-0.59056 0.21707,0.14547 0.28181,1.0109 0.3473,1.56575 0.34882,2.95601 0.003,1.34917 -0.0622,1.96333 -0.32721,3.15553 -0.35083,1.57862 -1.05175,3.53485 -1.8685,5.21482 -0.1276,0.26249 -1.13369,2.5485 -2.2357,5.08006 -1.102,2.53155 -2.02772,4.64986 -2.0571,4.70735 -0.0441,0.0863 0,0.1321 0.24696,0.26199 0.1652,0.0866 0.30691,0.14878 0.31492,0.13817 0.007,-0.0107 0.39332,-0.83455 0.85634,-1.83101 0.87132,-1.8753 1.60539,-3.2697 2.21481,-4.20701 0.85287,-1.31187 2.05711,-2.63542 3.40319,-3.74051 1.7274,-1.41813 2.75424,-2.66558 3.50538,-4.25848 0.75898,-1.60947 1.08223,-3.2613 1.08498,-5.54378 l 0,-1.07068 0.11794,0.26884 c 0.33221,0.75735 0.74277,2.33969 0.88282,3.40247 0.10225,0.77614 0.0861,2.40911 -0.0307,3.09482 -0.30765,1.80755 -0.97131,3.41023 -2.08644,5.03837 -0.64598,0.94318 -1.70109,2.14468 -2.54582,2.89906 -1.33228,1.18983 -2.12867,2.07616 -2.70857,3.01444 -0.22876,0.37015 -0.63437,1.09153 -1.15896,2.06136 -0.27818,0.51425 -0.80483,1.68073 -0.80483,1.78262 0,0.0635 0.52386,0.3241 0.57979,0.28836 0.0244,-0.0154 0.33943,-0.63725 0.7005,-1.38168 0.71781,-1.48008 1.10158,-2.08158 1.97727,-3.09894 1.16494,-1.35341 3.03978,-2.81271 4.06915,-3.16724 2.10169,-0.7239 3.46544,-2.31039 3.96665,-4.61457 0.10785,-0.49592 0.1384,-0.57354 0.16702,-0.42477 0.2199,1.14281 0.25819,3.36714 0.0773,4.49054 -0.40919,2.54038 -1.51458,4.66179 -3.49552,6.70839 -1.28812,1.33083 -2.37918,2.18439 -4.45003,3.48143 -1.85598,1.16246 -2.78599,1.87985 -3.9361,3.03629 -1.14703,1.15329 -1.91959,2.24736 -2.55393,3.61686 -0.77064,1.66362 -1.09228,3.24454 -1.09183,5.36669 0,1.16732 0.0661,1.9616 0.29921,3.61101 0.0968,0.6842 0.23035,1.65364 0.29693,2.15423 0.0666,0.50064 0.1279,0.93758 0.1362,0.97097 0.008,0.0342 0.15305,0.052 0.33119,0.0408 l 0.31602,-0.0199 0,-1.67919 c 0,-1.72053 0.0379,-2.18851 0.27439,-3.34239 0.30414,-1.48451 0.97756,-2.94045 1.91119,-4.13204 0.35632,-0.45481 0.9531,-1.09229 0.9531,-1.01814 0,0.0217 -0.0372,0.22538 -0.0827,0.45285 -0.34828,1.74085 -0.24519,4.51158 0.23006,6.18604 0.0143,0.05 0.10278,0.0485 0.33209,-0.006 0.25116,-0.0596 0.31041,-0.097 0.30094,-0.18962 -0.006,-0.0635 -0.0527,-0.37843 -0.10278,-0.69993 -0.3537,-2.2713 -0.003,-4.64983 0.97231,-6.60861 0.71852,-1.44188 1.74807,-2.59109 2.96258,-3.30689 0.5046,-0.2974 1.29052,-0.65343 1.37685,-0.62368 0.0301,0.0104 -0.0398,0.15533 -0.15527,0.32217 -0.74492,1.07738 -1.09409,2.21215 -1.19727,3.89076 -0.0463,0.75311 -0.0411,1.06695 0.0254,1.53197 0.29352,2.05262 0.27244,4.23993 -0.0587,6.08138 -0.0955,0.53128 -0.73566,2.91282 -0.9904,3.68472 -0.10606,0.32132 -0.12675,0.45011 -0.0754,0.46928 0.57995,0.2164 0.57074,0.21532 0.62213,0.072 0.25978,-0.72416 0.59814,-1.86846 0.85635,-2.89571 0.5484,-2.18166 0.9945,-3.25818 1.80507,-4.35566 0.6944,-0.94026 1.9185,-1.53233 3.36843,-1.62927 l 0.61992,-0.0414 -0.49819,0.51002 c -0.4339,0.44415 -0.53645,0.59229 -0.79416,1.14719 -0.6272,1.35044 -0.68547,2.55458 -0.21592,4.4602 0.35158,1.42673 0.33932,2.71386 -0.0369,3.86802 -0.31965,0.9807 -1.23883,2.5987 -2.11182,3.71737 -0.88285,1.13137 -1.15147,1.6468 -1.597,3.06452 -0.29765,0.94713 -0.31669,1.0457 -0.35244,1.8235 -0.17355,3.77937 -1.60218,5.95259 -4.36704,6.64299 l -0.42544,0.10622 -0.01,0.23453 c -0.005,0.12899 -0.012,0.27953 -0.0149,0.33453 -0.003,0.0747 0.11427,0.13398 0.46454,0.23396 0.96335,0.27496 1.6241,0.64453 2.10144,1.1755 0.31229,0.34741 0.60096,0.92799 0.66221,1.33202 l 0.0398,0.26241 -0.40424,-0.25598 c -0.7912,-0.501 -1.87804,-0.90104 -3.19137,-1.17473 -0.72171,-0.1504 -3.87182,-0.60188 -3.9117,-0.56065 -0.0114,0.0116 0.1355,0.36 0.3261,0.77415 0.57983,1.25982 0.67096,2.00424 0.32575,2.6602 -0.089,0.16928 -0.17754,0.3077 -0.19665,0.3076 -0.019,0 -0.10825,-0.14571 -0.19814,-0.32369 -0.25765,-0.51 -0.83944,-1.41521 -1.21525,-1.89093 -0.72715,-0.92031 -1.72778,-1.74274 -2.78724,-2.29086 -0.63548,-0.32877 -1.4338,-0.67651 -1.46916,-0.63993 -0.0359,0.0371 0.13592,2.76798 0.21117,3.35542 0.19047,1.48674 0.71202,2.69155 1.5713,3.62951 l 0.33212,0.36253 -0.30894,-0.0412 c -0.54116,-0.0721 -1.43678,-0.33394 -1.86155,-0.54406 -0.74253,-0.3673 -1.3215,-0.9005 -1.76647,-1.62684 l -0.13635,-0.2226 -0.28103,0.11182 -0.28101,0.11182 0.0152,0.29283 c 0.0228,0.43754 0.34118,1.72962 0.57992,2.35319 0.51144,1.33587 1.17296,2.22091 2.13325,2.85397 0.55649,0.36689 1.03009,0.56422 1.77457,0.73939 0.55479,0.13054 0.80361,0.15521 1.55568,0.15428 l 0.89525,0 -0.17371,0.22686 c -0.31764,0.4148 -0.96867,1.00295 -1.32915,1.20078 -1.2391,0.68009 -2.58306,0.48619 -4.67363,-0.67424 -0.44372,-0.24627 -0.80677,-0.43561 -0.80677,-0.42072 0,0.10992 0.56712,1.42362 0.72368,1.67634 0.33659,0.54338 0.85356,1.00921 1.47662,1.33066 0.65296,0.33684 1.30377,0.52808 2.21926,0.65218 0.52744,0.0715 2.64624,0.075 3.38424,0.006 l 0.49875,-0.047 0.41073,0.23934 c 1.36136,0.79331 2.16903,1.70858 2.53086,2.86789 0.12387,0.39687 0.15212,0.6073 0.15477,1.15296 0.005,1.03956 -0.18643,1.8338 -0.71845,2.98026 -0.38932,0.83891 -0.48206,1.14083 -0.49187,1.60133 -0.0152,0.71542 0.34892,1.15178 1.0707,1.2829 0.936,0.17002 2.62387,-0.36979 3.63076,-1.16119 0.17006,-0.13369 0.32581,-0.24308 0.34606,-0.24308 0.0609,0 -0.0288,0.91444 -0.12796,1.30259 -0.19907,0.77999 -0.71989,1.57756 -1.36111,2.08433 -0.51119,0.40402 -1.41981,0.73555 -2.02378,0.73849 -0.56491,0.003 -1.15812,-0.22821 -1.5334,-0.59705 -0.26954,-0.2649 -0.38099,-0.48103 -0.59649,-1.15685 -0.19024,-0.59659 -0.17291,-0.60398 -0.59164,0.25199 -0.35712,0.72993 -0.5334,1.30988 -0.60444,1.98842 -0.15543,1.48454 0.32588,2.65154 1.30734,3.16978 0.59361,0.31345 1.57786,0.30412 2.39714,-0.0226 0.15331,-0.0612 0.27871,-0.0937 0.27871,-0.0721 0,0.0906 -0.51116,0.71345 -0.88366,1.0769 -0.26465,0.25821 -0.55675,0.46923 -0.85426,0.61724 -0.39227,0.1951 -0.52272,0.22871 -0.98533,0.25369 -0.37747,0.0204 -0.64463,3e-5 -0.91461,-0.0697 -0.50114,-0.12946 -1.33995,-0.55951 -1.89574,-0.97193 l -0.44579,-0.33078 -0.2081,0.23822 c -0.23433,0.26822 -0.24625,0.31168 -0.11623,0.42325 0.40671,0.34911 0.33554,0.91856 -0.33139,2.65167 -0.15736,0.40891 -0.34251,0.96871 -0.41143,1.244 -0.15965,0.63758 -0.20841,1.67369 -0.1149,2.44176 0.0393,0.32302 0.0613,0.59792 0.0486,0.61089 -0.0127,0.0131 -0.1306,-0.14632 -0.26236,-0.35401 -0.83133,-1.31034 -1.14159,-2.31413 -1.13886,-3.68481 0.003,-0.68973 0.0659,-1.17363 0.28065,-2.10194 0.026,-0.11127 -0.0133,-0.1446 -0.27273,-0.23377 -0.1665,-0.0572 -0.31022,-0.0944 -0.31932,-0.0827 -0.01,0.0119 -0.14804,0.30809 -0.30886,0.65852 -0.95674,2.0855 -2.44359,3.81395 -4.30547,5.00508 -0.68215,0.43638 -1.19763,0.6994 -2.09115,1.06692 -0.41333,0.17002 -0.77234,0.32996 -0.79789,0.35546 -0.0254,0.0255 0.0603,0.27451 0.1907,0.55338 0.30925,0.66136 0.32651,1.04118 0.0615,1.3533 -0.2737,0.3224 -0.64435,0.45856 -1.49667,0.54978 -0.0967,0.0104 -0.44175,-0.003 -0.76654,-0.0282 z m 12.93901,-20.05039 c 0.88647,-0.24399 1.6792,-0.89938 2.06321,-1.70579 0.18758,-0.39387 0.19848,-0.45197 0.19848,-1.05819 0,-0.62374 -0.006,-0.6547 -0.22996,-1.12292 -0.17229,-0.36078 -0.34061,-0.59448 -0.67153,-0.93227 l -0.44156,-0.45081 -0.21938,0.26344 -0.21941,0.26341 0.39594,0.39984 c 0.54275,0.5481 0.74045,0.97018 0.74045,1.5807 0,0.57091 -0.147,0.90602 -0.61036,1.39157 -0.47925,0.50218 -0.98512,0.72834 -1.65332,0.73915 -0.59469,0.009 -0.99632,-0.25401 -1.28051,-0.84038 l -0.12462,-0.25709 -0.24855,0.0994 c -0.13673,0.0547 -0.27086,0.11967 -0.29813,0.14445 -0.14781,0.13476 0.45161,1.00363 0.88244,1.279 0.45872,0.29319 1.11513,0.37217 1.71681,0.20657 z m -62.08034,17.41141 c -1.09903,-0.20583 -2.3236,-0.73787 -3.37633,-1.46693 l -0.30043,-0.20806 -0.30006,0.3281 c -0.55285,0.60456 -1.32282,0.85115 -2.2318,0.71471 -0.62028,-0.0931 -1.3807,-0.37888 -1.94279,-0.73014 -0.47296,-0.29553 -1.24112,-1.01373 -1.54637,-1.4458 -0.30127,-0.42634 -0.60958,-1.09138 -0.70771,-1.52643 l -0.0875,-0.38768 0.24298,-0.48303 c 0.66573,-1.32339 1.62732,-1.81344 3.19816,-1.62982 0.34729,0.0406 0.81631,0.1249 1.04218,0.18727 0.2259,0.0624 0.66394,0.18289 0.97342,0.26776 1.11651,0.30615 2.10367,0.3217 2.8203,0.0444 0.3284,-0.12709 0.81449,-0.4476 0.80987,-0.53394 -0.003,-0.025 -0.0936,-0.15193 -0.20505,-0.28243 -0.189,-0.22137 -0.20958,-0.23072 -0.30719,-0.13938 -0.0576,0.054 -0.2623,0.17299 -0.45507,0.26473 -0.6386,0.304 -1.69735,0.2564 -2.89542,-0.13024 -1.12676,-0.36359 -2.54739,-0.49675 -3.31164,-0.31039 -0.91342,0.2227 -1.60545,0.78001 -2.14994,1.73133 -0.17337,0.30287 -0.33637,0.5507 -0.36222,0.5507 -0.1548,0 -0.49387,-0.43891 -0.72186,-0.93431 -0.83604,-1.81679 -0.82767,-4.42778 0.0177,-5.58609 0.26819,-0.36739 0.82241,-0.70091 1.16474,-0.70091 0.43665,0 1.41298,0.58319 2.18708,1.3064 0.93166,0.87034 1.70842,1.26333 2.65505,1.34327 l 0.45475,0.0384 0,-0.33434 0,-0.3344 -0.36673,-0.0394 c -0.86142,-0.0927 -1.45614,-0.40472 -2.33233,-1.22385 -0.61288,-0.57296 -1.39531,-1.08359 -2.00723,-1.30998 -0.48337,-0.17883 -0.51582,-0.20159 -0.51582,-0.36229 0,-0.54773 0.50734,-1.29474 1.09653,-1.61451 0.58137,-0.31558 0.92711,-0.40433 1.57323,-0.40389 1.04234,0 1.76883,0.30142 2.46785,1.02132 0.59706,0.6149 0.9364,1.32582 1.07272,2.2471 0.0538,0.36391 0.0898,0.44841 0.25127,0.58946 0.53784,0.46992 1.41668,0.45855 3.01131,-0.039 0.51165,-0.15966 0.92968,-0.24798 1.61673,-0.34162 0.4907,-0.067 2.87739,-0.0793 3.78456,-0.0196 l 0.58673,0.0387 0.13673,-0.66014 c 0.17616,-0.85064 0.68753,-2.43381 1.0365,-3.20884 0.72027,-1.59969 1.75728,-3.15836 3.0171,-4.53479 0.50431,-0.55101 0.60152,-0.74226 0.84867,-1.66971 0.28299,-1.06172 0.42295,-2.18119 0.47616,-3.80823 l 0.0337,-1.03161 -0.25793,0.73256 c -0.40218,1.14214 -0.78729,2.11004 -1.18133,2.96912 -2.30639,5.02808 -5.34877,7.76122 -9.31798,8.37077 -0.99704,0.15311 -1.2166,0.12672 -1.2166,-0.14618 0,-0.0267 0.34444,-0.24985 0.76532,-0.49566 1.22349,-0.71451 1.87375,-1.27708 2.37191,-2.05209 0.36384,-0.56605 0.57843,-1.1156 0.85529,-2.19019 0.5205,-2.02058 1.01075,-2.81451 2.4911,-4.03414 0.63017,-0.51919 1.07668,-1.00697 1.64807,-1.80042 0.92347,-1.28235 1.282,-2.12471 1.99665,-4.69135 0.0184,-0.0668 -0.19975,0.23373 -0.48527,0.66771 -2.47652,3.76468 -4.85918,5.83781 -7.18997,6.25593 -1.22009,0.21886 -2.29616,-0.116 -3.13264,-0.97482 -1.4663,-1.50551 -1.55769,-4.01681 -0.21701,-5.96363 0.14354,-0.20839 0.48976,-0.59697 0.76944,-0.86349 l 0.50853,-0.48462 0.0415,0.62685 c 0.0521,0.7855 0.20918,1.24981 0.53943,1.59384 0.93396,0.97299 2.77199,0.009 4.10895,-2.15452 0.73494,-1.18939 1.83307,-2.25075 3.37792,-3.26482 0.71804,-0.47136 1.90681,-1.15793 2.34698,-1.35556 0.63153,-0.2835 1.83291,-0.9118 2.35315,-1.23059 1.49541,-0.91639 2.30878,-1.5743 3.57567,-2.89218 0.94732,-0.98546 1.05221,-1.11663 1.31513,-1.64447 1.0878,-2.18391 2.52144,-3.7532 4.31511,-4.72354 1.11579,-0.6036 2.05512,-0.92926 4.57665,-1.58658 0.79064,-0.20609 1.49035,-0.40341 1.55489,-0.43849 0.0645,-0.0351 0.68175,-0.49847 1.37158,-1.02983 0.68981,-0.53136 1.2727,-0.94357 1.29538,-0.91606 0.0228,0.0275 0.57824,0.69177 1.23462,1.47611 0.65635,0.78433 1.23092,1.47179 1.27674,1.52769 0.0737,0.0899 0.0569,0.13876 -0.14653,0.42478 -0.81004,1.13876 -1.22791,2.25752 -1.28794,3.44831 -0.0709,1.40839 0.4333,2.70775 1.34086,3.4551 l 0.28563,0.23524 -0.39682,0.22779 c -1.11281,0.63884 -2.05044,1.39316 -2.9492,2.37257 -2.17245,2.3674 -2.98598,5.28263 -1.67227,5.99225 0.30399,0.16418 1.11598,0.17269 1.66773,0.0174 0.61005,-0.17161 1.56584,-0.61601 2.37455,-1.10412 0.41501,-0.25049 0.76403,-0.45543 0.77559,-0.45543 0.0409,0 -0.43171,1.30958 -0.59126,1.63844 -0.91663,1.88956 -2.19828,3.09887 -3.6345,3.42934 -1.3403,0.30839 -2.64599,-0.39655 -3.50738,-1.89356 -0.13927,-0.242 -0.2702,-0.44078 -0.29093,-0.44173 -0.0563,-0.003 -0.32039,0.71256 -0.39143,1.0602 -0.19577,0.95786 -0.1337,1.91462 0.18771,2.89203 0.25344,0.77073 0.61185,1.40659 1.10492,1.95997 1.39227,1.56266 3.02184,1.57891 4.24734,0.0423 0.40084,-0.50261 0.93976,-1.60178 1.22439,-2.49733 0.12196,-0.38383 0.24108,-0.71991 0.26475,-0.74686 0.0238,-0.027 0.10319,0.24594 0.17665,0.60644 0.43306,2.12405 -0.12957,4.30791 -1.50603,5.84552 -0.54635,0.61036 -1.15635,1.01621 -1.93023,1.2843 -0.3464,0.12 -0.52377,0.14066 -1.19868,0.13957 -0.74597,0 -0.82577,-0.0134 -1.37081,-0.20717 -0.31824,-0.11322 -0.79115,-0.33791 -1.05083,-0.49934 -0.25969,-0.16141 -0.47774,-0.29347 -0.48464,-0.29347 -0.007,0 -0.0311,0.41643 -0.0536,0.92539 -0.16915,3.80529 -0.8203,5.40262 -2.55174,6.25983 -0.23995,0.11875 -0.44548,0.20641 -0.45672,0.19477 -0.0114,-0.0116 0.02,-0.42002 0.0694,-0.90745 0.18008,-1.77314 0.0968,-2.83839 -0.29555,-3.77934 -0.28769,-0.69002 -0.51036,-1.36585 -0.65748,-1.99535 l -0.0993,-0.42479 -0.0399,1.33504 c -0.0557,1.8624 -0.32329,3.32717 -0.75114,4.1122 -0.60027,1.10143 -0.40976,2.56512 0.51779,3.97771 0.26009,0.39613 0.28814,0.50306 0.16055,0.61258 -0.0641,0.055 -0.19539,0.006 -0.6115,-0.22777 -1.47887,-0.83102 -2.58915,-1.94272 -3.29417,-3.29831 -1.18768,-2.2836 -1.17985,-5.48607 0.0231,-9.42424 0.22453,-0.7352 0.17097,-0.72912 -0.23608,0.0267 -0.59285,1.10103 -0.95765,2.53875 -1.33891,5.27719 l -0.20581,1.47843 0.13796,0.34079 c 0.28957,0.71546 0.39569,1.17828 0.42608,1.85786 0.0373,0.83494 -0.055,1.27601 -0.45257,2.16134 -0.52116,1.16059 -0.79555,2.21404 -0.98604,3.78563 l -0.10299,0.84954 -0.39034,-0.75853 c -0.44752,-0.86973 -0.73832,-1.70808 -0.78964,-2.27642 -0.0193,-0.2165 -0.0574,-0.39364 -0.084,-0.39364 -0.0266,0 -0.59415,0.64856 -1.26112,1.44122 -1.69643,2.01633 -2.97912,3.30309 -4.16515,4.17838 l -0.38072,0.28098 0.28159,0.13493 c 0.29353,0.14063 0.63076,0.48556 0.72472,0.74135 0.0301,0.0819 0.0547,0.29638 0.0547,0.47663 0,1.27222 -1.4649,2.78513 -3.25646,3.3632 -0.95218,0.30724 -2.33881,0.39582 -3.31976,0.21211 z m 33.51472,-40.0526 c -1.00027,-0.27824 -1.76087,-1.09207 -2.09676,-2.24358 -0.1386,-0.47495 -0.14004,-1.53424 -0.003,-2.11034 0.2046,-0.85974 0.68456,-1.79093 1.37996,-2.67715 l 0.23547,-0.30014 -0.33784,-0.39772 c -1.1659,-1.37273 -4.68321,-5.5686 -4.71991,-5.63049 -0.0485,-0.0819 0.6457,-0.98727 0.75699,-0.98727 0.081,0 2.78536,1.14855 3.11029,1.32097 1.02675,0.54491 2.38783,2.23461 2.99056,3.71265 0.57605,1.41259 0.63991,2.71731 0.19621,4.00788 -0.55469,1.61333 -0.75398,2.67703 -0.79881,4.26329 l -0.0322,1.1378 -0.18241,-0.004 c -0.10035,-0.003 -0.32474,-0.0435 -0.49861,-0.0919 z m -40.26947,-6.96708 c -1.07749,-0.45831 -2.51509,-2.08446 -4.40292,-4.98035 -0.3473,-0.53275 -0.63147,-1.00286 -0.63147,-1.04469 0,-0.11221 0.34413,-0.49764 0.53583,-0.60016 0.10151,-0.0543 0.41262,-0.10092 0.79809,-0.11961 1.30155,-0.0629 2.0773,-0.43296 3.2081,-1.52988 0.21503,-0.20858 0.37918,-0.37927 0.36473,-0.37927 -0.0143,0 -0.21887,0.11293 -0.45434,0.25093 -1.15785,0.67855 -2.24705,1.02184 -3.24571,1.02297 -0.60474,0 -1.03987,0.14831 -1.386,0.47017 -0.15957,0.14834 -0.2901,0.25123 -0.2901,0.22861 0,-0.0226 -0.12254,0.0705 -0.27228,0.20678 -0.40632,0.36986 -0.57134,0.32852 -0.82769,-0.20726 -0.61988,-1.29555 -0.67086,-3.98002 -0.10329,-5.44406 0.1726,-0.44531 0.52627,-0.90659 0.81241,-1.05965 0.24361,-0.13023 0.70172,-0.12805 1.08392,0.006 0.26051,0.0909 0.33902,0.1549 0.47901,0.39082 0.48533,0.81784 0.85477,1.21423 1.51463,1.62517 0.33327,0.20755 1.36002,0.58329 1.80198,0.65946 0.21816,0.0376 0.19947,0.0185 -0.26514,-0.27048 -0.67221,-0.41816 -1.12225,-0.77251 -1.60315,-1.26241 -0.79838,-0.81323 -0.94829,-1.1531 -0.80779,-1.8307 0.22794,-1.09927 1.19559,-2.03012 2.27015,-2.18378 0.68699,-0.0982 1.21468,0.0827 1.68582,0.57796 0.28455,0.29912 0.62266,0.93547 0.7381,1.38916 0.0586,0.23014 0.093,0.25923 0.66481,0.56057 0.89765,0.47316 1.42129,0.63541 2.1579,0.66866 0.71115,0.032 1.14865,-0.0836 1.66905,-0.4409 0.40837,-0.28045 0.51742,-0.41106 1.24049,-1.48618 2.10324,-3.1274 3.07169,-4.19713 4.83559,-5.34143 1.08884,-0.70635 2.89862,-1.45408 4.4179,-1.82529 l 0.57465,-0.14041 0.41882,-0.76115 c 0.23037,-0.41859 0.58168,-1.02052 0.78057,-1.33759 l 0.36181,-0.57649 0.6397,-0.19226 c 1.68073,-0.50517 3.42534,-1.4907 4.76214,-2.69018 0.24174,-0.21693 0.53719,-0.4814 0.65651,-0.58774 l 0.21692,-0.19327 -0.0257,0.64843 c -0.0282,0.70948 0.0656,1.33484 0.30925,2.06133 0.19978,0.59565 0.28484,1.25647 0.25397,1.9735 -0.0235,0.54022 -0.0524,0.68494 -0.20657,1.02575 -0.0988,0.21818 -0.2798,0.51159 -0.40245,0.65193 -0.25555,0.29254 -0.97527,0.79365 -1.83449,1.27726 -0.32613,0.18359 -0.59366,0.34996 -0.59456,0.36977 -0.003,0.0453 1.24907,0.38804 1.75874,0.4819 1.89876,0.34958 3.88325,0.0551 5.05652,-0.75034 0.32115,-0.22046 0.81287,-0.72003 0.99299,-1.00891 0.0892,-0.14304 0.0976,-0.11372 0.20992,0.7282 0.10706,0.80279 0.10911,0.88703 0.0241,0.9924 -0.0955,0.11812 -1.99829,1.4557 -3.07337,2.16045 -0.97905,0.64182 -1.38755,0.96386 -1.99791,1.57494 -1.35721,1.35895 -1.98248,2.63725 -2.2423,4.58442 l -0.0405,0.30339 -0.11206,-0.26864 c -0.37852,-0.90762 -0.54625,-1.86385 -0.49558,-2.82619 0.019,-0.36712 0.0509,-0.73926 0.0701,-0.82698 0.0329,-0.14999 0.0168,-0.16394 -0.2686,-0.2348 -0.17092,-0.0424 -0.32426,-0.0523 -0.35093,-0.0226 -0.026,0.029 -0.18576,0.4487 -0.35503,0.93266 -0.67666,1.9351 -1.23042,2.69995 -2.72329,3.76151 -1.26147,0.89702 -1.71471,1.76896 -1.78024,3.42485 l -0.0311,0.78428 -0.2245,-0.46152 c -0.43362,-0.89125 -0.6042,-1.9241 -0.46736,-2.82982 0.0373,-0.2466 0.19897,-0.89144 0.3593,-1.43293 0.16039,-0.54152 0.2916,-1.00482 0.2916,-1.02962 0,-0.0619 -0.86644,0.73908 -1.44116,1.33238 -1.42799,1.47403 -1.96432,3.17275 -1.78458,5.65195 0.11662,1.60858 -0.0106,2.48889 -0.48592,3.36843 -0.39872,0.73737 -1.30971,1.43047 -2.03283,1.54665 -0.29711,0.0478 -0.3093,0.0928 0.15645,-0.57805 0.42428,-0.6112 0.65105,-1.08767 0.74975,-1.57551 0.19216,-0.94997 -0.1694,-1.88304 -1.16373,-3.00293 l -0.36921,-0.4159 -0.58376,0.74965 c -1.27931,1.64274 -2.14647,2.33271 -3.23031,2.57018 -0.73488,0.16104 -1.38875,0.10019 -2.35089,-0.2185 l -0.5532,-0.18327 -0.11024,0.14017 c -0.0607,0.0772 -0.38301,0.59975 -0.71638,1.16146 -1.1171,1.88226 -1.62645,2.24448 -2.58343,1.83742 z m 29.37866,-12.63637 c -0.43926,-0.0682 -1.14729,-0.2288 -1.48827,-0.33755 l -0.37339,-0.11905 0.46908,-0.16797 c 0.87448,-0.31317 1.54578,-0.88304 2.00742,-1.70404 0.4944,-0.87935 0.70251,-1.80066 0.747,-3.30721 0.0323,-1.0967 -0.007,-1.63917 -0.24934,-3.39826 -0.0866,-0.62987 -0.1717,-1.61902 -0.20091,-2.33634 -0.0279,-0.68416 -0.0952,-1.77649 -0.14957,-2.4273 -0.12912,-1.54564 -0.0958,-3.034 0.0837,-3.73201 0.35997,-1.40032 1.18817,-2.51936 2.55749,-3.4557 0.5528,-0.37801 1.55239,-0.9023 2.27345,-1.19244 0.28226,-0.11358 0.51326,-0.23733 0.51339,-0.27497 1.9e-4,-0.0648 -0.16639,-0.51437 -0.20737,-0.55956 -0.0617,-0.068 -1.60143,0.63592 -2.36554,1.08141 -1.93736,1.12949 -3.04541,2.56439 -3.47656,4.50192 -0.11437,0.51403 -0.12533,0.72525 -0.11792,2.26597 0.004,0.93453 0.0403,2.13605 0.0793,2.67006 0.10468,1.42994 0.094,2.06246 -0.0409,2.42733 -0.40034,1.08277 -1.21326,1.72738 -2.61345,2.07231 -0.66077,0.16274 -3.1793,0.13962 -3.16503,-0.0291 0.003,-0.0223 0.18952,-0.16355 0.41701,-0.31374 0.52251,-0.34505 0.98537,-0.85809 1.2213,-1.35372 0.18647,-0.3917 0.34747,-1.1307 0.35118,-1.61196 0.003,-0.46173 -0.17235,-1.50359 -0.34699,-2.05496 -0.32463,-1.02497 -0.36329,-1.90984 -0.12086,-2.76662 0.18979,-0.67067 0.38339,-1.05237 0.91892,-1.81153 l 0.20026,-0.28395 -0.26187,-0.18635 c -0.14401,-0.10246 -0.2746,-0.18634 -0.29019,-0.18634 -0.0152,0 -0.22571,0.27991 -0.46704,0.622 -1.30563,1.85104 -2.93403,3.26279 -4.91277,4.25922 -0.74917,0.37728 -2.02827,0.86758 -2.09187,0.80183 -0.019,-0.0199 0.0634,-0.14905 0.18376,-0.28684 0.50408,-0.57707 1.19506,-1.82299 1.98307,-3.57573 0.75683,-1.68333 2.87241,-4.13242 4.13599,-4.78799 l 0.24862,-0.12897 -0.0961,-0.25709 c -0.13573,-0.36335 -0.1538,-0.37323 -0.43888,-0.24046 -1.20249,0.56001 -3.35411,2.96851 -4.37085,4.89258 -0.24171,0.45735 -0.38423,0.63537 -0.93083,1.16259 -0.78789,0.75996 -1.12739,1.04503 -1.8483,1.55207 -1.09339,0.76906 -2.37407,1.34563 -3.57917,1.61135 -0.3732,0.0822 -0.74981,0.10951 -1.49621,0.10803 -0.8993,-0.003 -1.06065,-0.0187 -1.63903,-0.17288 -0.60417,-0.16097 -1.13935,-0.37684 -1.72584,-0.69606 -0.14023,-0.0764 -0.24586,-0.14734 -0.23468,-0.1577 0.0114,-0.0104 0.23159,0.0171 0.48974,0.0617 1.11199,0.19086 2.63069,0.0658 3.69375,-0.30414 2.39626,-0.83393 3.99278,-2.89266 4.36796,-5.63253 0.0453,-0.33064 0.1071,-0.47945 0.36324,-0.87391 0.75553,-1.16373 1.67736,-1.82453 3.12441,-2.23965 0.32091,-0.092 0.33998,-0.10775 0.30519,-0.25118 -0.0203,-0.0841 -0.0524,-0.23174 -0.071,-0.32798 -0.0184,-0.0963 -0.0434,-0.17496 -0.0551,-0.17496 -0.12847,0 -1.04254,0.30674 -1.43646,0.48198 -0.95898,0.42674 -1.74769,1.10176 -2.33847,2.00154 -0.14374,0.21887 -0.28437,0.3686 -0.34631,0.3686 -0.063,0 -0.14552,0.0902 -0.2082,0.22755 -0.47113,1.03236 -1.78376,2.54687 -2.63961,3.0456 -1.43881,0.83843 -2.90393,0.71949 -4.39128,-0.35649 -0.23468,-0.16979 -0.54172,-0.41202 -0.68225,-0.53831 l -0.25554,-0.22956 0.75427,0 c 0.84457,0.003 1.22968,-0.0856 1.78108,-0.40384 0.93571,-0.53992 1.50599,-1.35321 2.11046,-3.00973 0.35262,-0.96627 0.64416,-1.45731 1.16529,-1.96259 0.69922,-0.67802 1.63202,-1.12518 3.17853,-1.52375 0.8302,-0.21395 1.71031,-0.25607 2.28833,-0.10956 0.34458,0.0874 1.00729,0.40255 1.30066,0.61858 0.10288,0.0757 0.19444,0.10675 0.2163,0.0733 0.0209,-0.032 0.10151,-0.16211 0.17933,-0.28927 l 0.14136,-0.2312 -0.14136,-0.11332 c -0.3012,-0.2415 -1.2132,-0.65425 -1.64979,-0.74666 -0.6338,-0.13411 -1.77231,-0.10533 -2.27902,0.0576 -0.20946,0.0674 -1.07437,-0.99153 -1.46344,-1.7917 -0.38411,-0.78989 -0.53579,-1.38602 -0.57124,-2.24525 -0.0512,-1.24182 0.23893,-2.22728 0.90092,-3.05998 0.29483,-0.37092 0.4924,-0.51772 0.40508,-0.30105 -0.0254,0.0629 -0.0592,0.46948 -0.0752,0.90334 -0.0335,0.91004 0.0375,1.29988 0.36914,2.02601 0.28143,0.61621 0.9294,1.28227 1.58176,1.62578 0.8897,0.46852 1.6284,0.62636 2.93134,0.62636 l 0.8941,0 0.78629,0.38628 c 1.30745,0.64221 1.89857,0.79665 3.01606,0.78787 0.53754,-0.004 0.93452,-0.0441 1.34453,-0.135 0.31999,-0.0709 0.59274,-0.11769 0.60618,-0.10382 0.0512,0.053 -0.11103,0.27585 -0.38005,0.52191 -0.25081,0.2294 -0.83129,0.5482 -2.21613,1.21709 l -0.41073,0.19837 0.64541,0.0751 c 3.71575,0.43241 5.71225,0.17264 7.31912,-0.95225 0.18518,-0.12964 0.35994,-0.23571 0.38836,-0.23571 0.0587,0 0.12428,0.35092 0.12473,0.6675 0,0.63044 -0.26761,0.98309 -1.1076,1.4543 -0.32512,0.18242 -0.5718,0.34958 -0.54808,0.3714 0.053,0.0489 1.32967,0.2228 2.00867,0.27366 0.63215,0.0474 1.47618,-0.0511 2.14713,-0.25056 0.98737,-0.29348 1.89889,-0.84261 2.89613,-1.74477 0.20825,-0.18837 0.38907,-0.33162 0.40194,-0.31835 0.013,0.0134 0.005,0.13492 -0.0168,0.27037 -0.0376,0.23045 -0.4596,0.9149 -0.56405,0.9149 -0.0247,0 -0.28795,0.27667 -0.58505,0.61486 -0.48178,0.5484 -0.52855,0.6216 -0.43273,0.67704 0.0644,0.0373 0.67225,0.0639 1.51901,0.0663 1.5994,0.005 2.15785,-0.0687 3.1813,-0.41907 1.65179,-0.56536 2.82496,-1.52515 3.7396,-3.0594 l 0.26214,-0.43978 0.12889,0.41523 c 0.1732,0.55796 0.21237,1.33618 0.0915,1.81609 -0.0511,0.20307 -0.2099,0.63999 -0.35277,0.97091 -0.28325,0.65614 -0.2854,0.63499 0.0891,0.86559 l 0.21259,0.13093 0.72999,-0.80423 c 1.246,-1.37281 1.85196,-2.2022 2.33212,-3.19206 0.47766,-0.98478 0.83757,-2.34353 0.92007,-3.47343 0.0476,-0.65346 0.0932,-0.58842 0.19437,0.27839 0.039,0.33378 0.0935,0.70241 0.1211,0.81921 0.0276,0.11685 0.0805,0.36897 0.11738,0.56033 l 0.0672,0.34796 0.41377,-0.52356 c 1.19282,-1.50917 1.8375,-2.72542 2.19808,-4.14707 0.14592,-0.57527 0.16193,-0.74039 0.16443,-1.69913 0.003,-1.19134 -0.0915,-1.75034 -0.46263,-2.73076 -0.1074,-0.28368 -0.18665,-0.52568 -0.17613,-0.53778 0.0549,-0.0632 0.92915,0.20244 1.13141,0.34372 0.41013,0.28652 0.59858,0.61922 1.06379,1.87805 0.13877,0.37546 0.26906,0.68268 0.28957,0.68268 0.0642,0 0.64786,-1.67791 0.77273,-2.22168 0.24923,-1.08528 0.24488,-2.2616 -0.012,-3.26056 -0.16141,-0.62783 -0.58917,-1.61796 -1.01315,-2.34534 -0.1811,-0.31071 -0.32929,-0.57448 -0.32929,-0.58617 0,-0.0117 0.48843,-0.0214 1.08548,-0.0214 l 1.08551,0 0,-0.33374 0,-0.33375 -1.69834,0 -1.69831,0 0.52755,0.86474 c 0.66841,1.09562 1.18309,2.16764 1.37657,2.86727 0.26336,0.95242 0.25784,2.13116 -0.0149,3.14506 l -0.0951,0.35362 -0.18173,-0.35362 c -0.34795,-0.6773 -0.97316,-1.1445 -1.73017,-1.29299 -0.2902,-0.057 -1.6493,-0.0901 -1.6493,-0.0402 0,0.0119 0.1559,0.36009 0.34642,0.77373 0.56001,1.21565 0.73428,1.96654 0.73083,3.14906 -0.003,1.14121 -0.21643,2.04044 -0.74046,3.12517 -0.28709,0.59429 -0.93083,1.61058 -0.99445,1.56995 -0.0257,-0.0163 -0.0465,-0.1076 -0.0465,-0.20282 0,-0.33549 -0.17291,-1.10201 -0.3305,-1.46515 -0.0877,-0.20205 -0.3762,-0.65235 -0.64116,-1.00067 l -0.48175,-0.63326 -0.0307,1.65487 c -0.0247,1.33601 -0.0533,1.76593 -0.14848,2.23132 -0.24834,1.21488 -0.65308,2.24951 -1.22606,3.13434 -0.26494,0.40916 -1.19599,1.61597 -1.22183,1.58361 -0.006,-0.008 0.0114,-0.20615 0.0396,-0.43979 0.0975,-0.80415 -0.14072,-1.82752 -0.68785,-2.95421 l -0.27382,-0.56378 -0.39504,0.82929 c -0.49255,1.03392 -0.81837,1.51617 -1.46816,2.17289 -1.25379,1.26721 -2.94969,1.86493 -5.17949,1.82547 l -0.28086,-0.005 0.29645,-0.3684 c 0.63987,-0.79519 0.74628,-1.31231 0.49249,-2.39266 -0.047,-0.20027 -0.0981,-0.40186 -0.1135,-0.44799 -0.0181,-0.055 -0.22467,0.11285 -0.59897,0.48735 -1.32774,1.3284 -2.19594,1.91988 -3.3333,2.27099 -0.41983,0.12959 -0.68607,0.16771 -1.34488,0.19248 -0.79964,0.03 -0.81895,0.0279 -0.72563,-0.0831 0.0527,-0.0626 0.15832,-0.23675 0.23468,-0.38695 0.12177,-0.23937 0.13883,-0.35545 0.13842,-0.94057 -2.2e-4,-0.55711 -0.0282,-0.7654 -0.16934,-1.25917 -0.0929,-0.32543 -0.18531,-0.59166 -0.20533,-0.59166 -0.02,0 -0.18145,0.12487 -0.35875,0.27751 -0.70816,0.60982 -1.44277,1.04614 -2.17055,1.28918 -0.82897,0.27683 -2.1893,0.42495 -3.16735,0.34489 l -0.53748,-0.0439 0.28284,-0.19722 c 0.35566,-0.24798 0.76498,-0.70422 0.87409,-0.97426 0.0459,-0.11374 0.0836,-0.30915 0.0836,-0.43426 0,-0.29981 -0.16788,-0.74734 -0.28033,-0.74734 -0.0486,0 -0.26285,0.0529 -0.47611,0.11771 -1.40781,0.42754 -2.71105,0.40944 -3.8534,-0.0536 -0.81556,-0.33054 -0.81288,-0.32538 -0.24972,-0.48186 0.77199,-0.21449 1.55138,-0.51375 2.64374,-1.01503 1.15413,-0.5296 1.43701,-0.63735 2.21582,-0.84386 2.03483,-0.53953 4.48566,-0.63241 7.92117,-0.30017 0.50022,0.0484 1.98175,0.21649 3.2923,0.3736 l 2.38286,0.28562 0.37489,-0.11409 c 1.75741,-0.53497 2.32027,-1.64401 1.30748,-2.57621 -0.5439,-0.50061 -1.35254,-0.78076 -2.41348,-0.83613 -1.1282,-0.0588 -2.10981,0.16724 -2.83171,0.65227 -0.54907,0.36891 -1.11909,0.63798 -1.69611,0.80065 -0.5417,0.15273 -1.87896,0.18243 -2.4405,0.0542 -0.60682,-0.13854 -1.56307,-0.48327 -2.11234,-0.76154 -0.48719,-0.2468 -0.51216,-0.26791 -0.32271,-0.27287 0.75943,-0.0199 2.20202,-0.14593 2.50965,-0.21931 0.48903,-0.11665 0.73211,-0.25206 1.23937,-0.6904 0.2335,-0.20176 0.49289,-0.42239 0.5764,-0.49035 0.0835,-0.0679 0.14118,-0.13326 0.12823,-0.1452 -0.0133,-0.0119 -0.27451,0.016 -0.58108,0.0619 -0.30655,0.046 -0.64117,0.069 -0.74359,0.051 -0.30163,-0.0528 -0.67995,-0.5747 -0.83247,-1.14815 -0.035,-0.13161 -0.0545,-0.24878 -0.0433,-0.26036 0.0114,-0.0117 0.10985,0.0335 0.2193,0.1003 0.34926,0.21313 0.95786,0.32554 1.54677,0.28567 0.74808,-0.0507 1.49205,-0.19801 1.86818,-0.37007 1.6622,-0.76024 3.91927,-0.44274 5.46623,0.76887 0.33152,0.2597 0.45134,0.40168 0.62147,0.73641 l 0.21072,0.41468 0.35564,-0.90014 c 0.65216,-1.6507 0.80875,-2.38857 0.8029,-3.7826 -0.003,-0.88602 -0.0228,-1.07463 -0.16443,-1.63844 -0.39705,-1.5789 -1.20255,-2.93872 -2.64562,-4.46632 l -0.70625,-0.74763 -0.8744,0.0431 -0.87435,0.0431 -0.0777,0.23272 c -0.19199,0.57484 -0.26383,1.17273 -0.26095,2.17229 0.003,0.55511 0.019,1.05348 0.0393,1.10746 0.0771,0.20787 -0.0779,0.0761 -0.4147,-0.35213 -0.78514,-0.9987 -1.04007,-1.8014 -0.89387,-2.81452 l 0.0465,-0.32169 -0.33764,0.0184 -0.33763,0.0184 -0.10277,0.35008 c -0.1769,0.60243 -0.24276,1.34557 -0.20489,2.31332 l 0.0353,0.9036 -0.21801,-0.26 c -0.33701,-0.40186 -0.71651,-0.97273 -0.84693,-1.2741 -0.26333,-0.60837 -0.34872,-1.29254 -0.22823,-1.82868 0.048,-0.21342 0.0407,-0.22743 -0.22665,-0.43383 -0.33875,-0.26151 -0.62114,-0.69058 -0.74526,-1.1323 -0.18342,-0.65238 -0.0304,-1.7692 0.3909,-2.85555 0.0712,-0.1836 0.17891,-0.46256 0.23943,-0.61994 l 0.10992,-0.28618 -0.42378,-0.12876 c -1.03963,-0.31584 -1.30238,-0.72832 -0.78843,-1.23763 0.27222,-0.26979 0.58712,-0.39755 0.97963,-0.39755 0.2304,0 0.28595,-0.0357 0.73141,-0.47031 0.99259,-0.9683 2.50353,-1.53719 5.05119,-1.90179 l 0.94075,-0.13461 0.19439,-0.29158 c 0.1069,-0.16036 0.40039,-0.49515 0.65218,-0.74396 0.74346,-0.73455 1.52068,-1.04519 2.81671,-1.12566 0.47626,-0.0297 0.62299,-0.055 0.49878,-0.0866 -0.30269,-0.0769 -0.4687,-0.19006 -0.4886,-0.33307 -0.0417,-0.30022 0.40072,-0.55253 0.97269,-0.55461 0.20167,0 0.36668,-0.0172 0.36668,-0.0365 0,-0.0193 -0.17629,-0.24421 -0.39174,-0.49972 l -0.39182,-0.4646 0.56774,-0.0969 c 0.31228,-0.0534 0.58516,-0.11491 0.60636,-0.13685 0.0212,-0.022 -0.0317,-0.10712 -0.11728,-0.18931 -0.18979,-0.18191 -0.19228,-0.22655 -0.0241,-0.42673 0.0981,-0.11669 0.20933,-0.1662 0.43349,-0.1931 l 0.30154,-0.0362 -0.16918,-0.37386 c -0.23312,-0.51524 -0.30728,-0.98493 -0.26697,-1.69163 0.0334,-0.5856 0.0318,-0.59486 -0.10696,-0.64945 -0.15845,-0.0623 -0.26527,-0.23304 -0.26527,-0.42405 0,-0.17407 0.25543,-0.42599 0.4319,-0.42599 0.129,0 0.14827,-0.0329 0.18651,-0.3186 0.0643,-0.48093 0.0444,-0.9577 -0.0641,-1.52231 l -0.0978,-0.50934 -0.24909,0.0291 c -0.20347,0.0237 -0.27123,0.004 -0.37004,-0.10526 -0.15694,-0.17424 -0.20392,-0.37835 -0.13203,-0.57393 0.17517,-0.47645 0.97025,-0.26953 1.20598,0.31384 0.067,0.16579 0.10789,0.20191 0.18853,0.16644 0.0566,-0.0249 0.20466,-0.0752 0.32892,-0.11182 0.2118,-0.0623 0.23484,-0.0559 0.36675,0.10276 0.0774,0.0931 0.14076,0.23506 0.14076,0.31547 0,0.21821 -0.1526,0.64215 -0.38293,1.06356 -0.26148,0.47841 -0.30561,0.65135 -0.17905,0.70157 0.0652,0.0258 0.19637,-0.0602 0.40821,-0.26736 0.61733,-0.60382 1.20133,-0.52658 1.07764,0.14251 -0.0231,0.12595 0.0171,0.18618 0.23055,0.34475 0.29533,0.21936 0.4885,0.50732 0.4885,0.72816 0,0.19876 -0.25242,0.45383 -0.53615,0.54176 -0.2486,0.077 -0.27237,0.11826 -0.13564,0.23562 0.13611,0.11681 0.0814,0.37318 -0.10224,0.4793 -0.15607,0.0902 -0.36554,0.0646 -0.71048,-0.0867 -0.0959,-0.0421 -0.0941,-0.0235 0.0193,0.20161 0.24194,0.4801 -0.005,0.70953 -0.53229,0.49456 -0.17602,-0.0717 -0.35372,-0.15937 -0.39489,-0.19473 -0.16212,-0.13915 -0.13037,0.0202 0.0678,0.34065 0.2925,0.47289 0.63121,0.79282 1.08299,1.02283 0.35589,0.18119 0.43456,0.19761 0.94683,0.19734 0.49268,0 0.59402,-0.0196 0.85831,-0.16352 0.39272,-0.21393 0.61488,-0.41195 0.87818,-0.78294 l 0.21585,-0.30411 -0.11012,-0.25284 c -0.30461,-0.69949 0.12305,-1.7225 0.80887,-1.93504 0.19193,-0.0594 0.2252,-0.0951 0.2252,-0.24082 0,-0.11656 0.0479,-0.20345 0.15032,-0.27291 0.13976,-0.0947 0.16457,-0.0949 0.35206,-0.003 0.17242,0.085 0.20173,0.12999 0.20173,0.30928 0,0.11538 -0.0254,0.22583 -0.0558,0.24542 -0.0311,0.0199 0.007,0.1312 0.085,0.25017 0.27217,0.41477 0.25196,0.90835 -0.0597,1.45835 -0.16985,0.29977 -0.60782,0.62965 -0.83597,0.62965 -0.13476,0 -0.13824,0.0119 -0.10394,0.34892 0.14288,1.40448 0.5806,2.24004 1.38431,2.64273 0.60565,0.30339 1.47229,0.31776 2.1993,0.0365 0.45449,-0.17588 0.47331,-0.25988 0.0467,-0.20868 -0.29,0.0348 -0.36992,0.0232 -0.48136,-0.0702 l -0.13368,-0.11194 0.13124,-0.17252 c 0.0721,-0.0949 0.21275,-0.22393 0.31244,-0.2868 l 0.18122,-0.11428 -0.22339,0 c -0.60969,0 -1.00802,-0.25923 -0.85873,-0.55749 0.0388,-0.0773 0.11022,-0.18783 0.15883,-0.24554 0.079,-0.0938 0.0785,-0.10891 -0.006,-0.14254 -0.13417,-0.0533 -0.3319,-0.40518 -0.3319,-0.5907 0,-0.40815 0.54566,-0.64799 1.01391,-0.44567 0.21627,0.0935 0.21828,0.093 0.21828,-0.0499 0,-0.0794 0.0429,-0.18861 0.0953,-0.24278 0.20572,-0.2128 0.68629,0.0508 1.12773,0.61858 0.26548,0.34144 0.43067,0.39817 0.55619,0.19101 0.0463,-0.0763 0.0168,-0.16935 -0.12603,-0.39975 -0.23985,-0.3866 -0.23633,-0.59038 0.019,-1.10078 0.21705,-0.43376 0.24937,-0.60581 0.13593,-0.72315 -0.13273,-0.13726 0.006,-0.14756 0.21206,-0.0157 0.25062,0.16017 0.44414,0.40286 0.44414,0.55692 0,0.14845 0.0136,0.14465 0.22932,-0.0637 0.25977,-0.251 0.57817,-0.29511 0.91454,-0.12672 0.46105,0.23085 0.62967,0.65518 0.42388,1.06671 l -0.0931,0.18614 0.27744,-0.005 c 0.21827,-0.003 0.33951,0.0376 0.56819,0.19217 l 0.29072,0.19651 -0.24621,0 c -0.22666,0 -0.27659,0.0332 -0.62918,0.41034 l -0.38294,0.4096 -0.50846,0 c -0.42781,0 -0.51879,0.0175 -0.57368,0.10998 -0.095,0.16014 0.10989,0.31126 0.54091,0.39898 0.38025,0.0774 0.66552,0.24696 0.85109,0.50601 0.11502,0.16059 0.11529,0.16896 0.0111,0.28823 -0.0592,0.0676 -0.14306,0.12286 -0.18645,0.12286 -0.11798,0 -0.0958,0.0838 0.0631,0.23815 0.32948,0.32013 0.34722,0.83838 0.0343,1.00571 -0.20569,0.10997 -0.46797,0.11704 -0.67774,0.0181 -0.13835,-0.0652 -0.16646,-0.0571 -0.26316,0.0755 -0.11169,0.15311 -0.13972,0.13185 -0.18544,-0.14067 -0.0155,-0.0926 -0.0502,-0.0805 -0.24504,0.0861 l -0.22695,0.19401 -0.10841,-0.14685 c -0.0597,-0.0807 -0.13894,-0.22191 -0.17624,-0.31369 -0.09,-0.22135 -0.14994,-0.21061 -0.19446,0.0349 -0.0362,0.19959 -0.22394,0.46573 -0.32855,0.46573 -0.11274,0 -0.29736,-0.27748 -0.33149,-0.49832 -0.038,-0.24629 -0.1014,-0.2945 -0.16421,-0.12512 -0.06,0.16174 0.0282,0.86218 0.15114,1.19995 0.13101,0.36006 0.16258,0.32153 -0.5901,0.72092 -1.05727,0.56108 -1.99225,0.80078 -3.31926,0.85097 -2.15013,0.0813 -3.71203,0.67866 -4.7788,1.82762 l -0.37633,0.40529 0.23056,0.20404 c 0.12679,0.11224 0.24463,0.20509 0.26184,0.20634 0.0171,0 0.21522,-0.18369 0.44002,-0.41097 1.00745,-1.01847 2.30396,-1.47278 4.46532,-1.56459 1.66829,-0.0709 3.02417,-0.53579 4.21671,-1.44579 l 0.52804,-0.40298 0.0409,0.62379 c 0.051,0.77712 0.0117,2.66564 -0.0701,3.37104 -0.14387,1.2394 -0.34494,2.01524 -0.74086,2.85911 -0.46743,0.99633 -1.26699,1.67451 -2.25955,1.91649 -0.20546,0.0501 -0.44619,0.0915 -0.53492,0.092 -0.14734,0 -0.16133,0.0208 -0.16056,0.22847 0.003,0.4367 0.0388,0.49126 0.31239,0.45754 1.61216,-0.19864 2.82435,-1.21038 3.4692,-2.89559 0.41706,-1.08986 0.61397,-2.34069 0.65986,-4.19158 l 0.0331,-1.33504 0.31723,0.0211 c 0.38687,0.0255 0.94608,-0.0695 1.58146,-0.26873 l 0.47717,-0.14963 0.003,-0.2494 c 0.01,-0.74426 1.02964,-1.47106 1.77334,-1.26396 0.21938,0.0611 0.25892,0.055 0.37452,-0.0572 0.071,-0.0691 0.18809,-0.12555 0.26009,-0.12555 0.14487,0 0.41895,0.25008 0.41895,0.38229 0,0.12298 -0.19454,0.28523 -0.34197,0.28523 -0.11205,0 -0.12743,0.0332 -0.12743,0.27549 0,0.48924 -0.28852,0.89757 -0.84396,1.19443 -0.24888,0.13299 -0.74742,0.17894 -1.03378,0.0953 -0.13097,-0.0383 -0.17046,-0.005 -0.36368,0.3034 -0.3583,0.57244 -0.41556,0.76755 -0.38638,1.31655 0.0301,0.56758 0.14835,0.84856 0.51427,1.2226 0.42398,0.43335 1.01698,0.68809 1.78945,0.76871 l 0.29198,0.0305 -0.17409,-0.1306 c -0.41476,-0.31124 -0.5566,-0.47704 -0.5566,-0.65061 0,-0.21327 0.13709,-0.29927 0.47706,-0.29927 l 0.25008,0 -0.18107,-0.19721 c -0.23904,-0.26038 -0.2868,-0.43777 -0.16822,-0.62499 0.10013,-0.15797 0.26133,-0.18893 0.44749,-0.0859 0.10511,0.0582 0.11346,0.0406 0.11346,-0.23987 0,-0.38609 0.0888,-0.58485 0.30198,-0.67619 0.21842,-0.0936 0.51897,-0.0411 0.87902,0.15367 0.25895,0.14002 0.3002,0.14673 0.41859,0.0683 0.25723,-0.17044 0.53141,-0.14498 0.62066,0.0577 0.10581,0.24014 0.0803,0.51361 -0.0814,0.87284 -0.14727,0.32717 -0.15348,0.48966 -0.0187,0.48966 0.0387,0 0.29688,-0.23649 0.57383,-0.52551 0.47114,-0.49165 0.83489,-0.74438 1.07586,-0.74749 0.19121,-0.003 0.33735,0.2204 0.33735,0.51447 l 0,0.27306 0.267,0 c 0.46892,0 0.84787,0.31405 0.84787,0.70261 0,0.33955 -0.40234,0.50165 -0.79076,0.31862 -0.15283,-0.072 -0.24961,-0.29357 -0.17945,-0.41094 0.0212,-0.0353 0.003,-0.0639 -0.0385,-0.0636 -0.21794,0.003 -1.38484,0.31767 -1.68232,0.45573 l -0.34212,0.15878 0.0269,0.29101 c 0.0238,0.25323 0.01,0.3039 -0.11005,0.39034 -0.18215,0.13191 -0.47697,0.12589 -0.64302,-0.0131 -0.13286,-0.11125 -0.14065,-0.10933 -0.72527,0.17935 -0.71449,0.35279 -1.19399,0.47719 -1.8441,0.47838 -0.444,0 -0.48631,0.011 -0.44752,0.10709 0.14247,0.35321 0.15989,0.43425 0.12446,0.58005 -0.0473,0.19496 -0.27494,0.2724 -0.51979,0.17682 -0.15785,-0.0616 -0.16574,-0.0575 -0.1266,0.0666 0.23941,0.75862 0.29948,1.01221 0.23975,1.01221 -0.0368,0 -0.32669,-0.0576 -0.64437,-0.12788 -0.31764,-0.0704 -0.58857,-0.1165 -0.602,-0.10258 -0.0133,0.014 0.0304,0.17389 0.0972,0.35546 0.13615,0.36959 0.12509,0.79591 -0.0247,0.9508 -0.16912,0.17489 -0.36948,0.11042 -0.67938,-0.21862 -0.16111,-0.17107 -0.31984,-0.31103 -0.35276,-0.31103 -0.0329,0 0.008,0.18434 0.0924,0.40963 0.70264,1.8895 0.96912,3.38731 0.94738,5.32485 -0.007,0.722 0.0152,1.33453 0.0633,1.63855 0.24583,1.56417 0.88589,2.84526 2.00583,4.01454 0.4781,0.49918 0.48308,0.50741 0.28446,0.47286 -1.0893,-0.18955 -1.73675,-0.47101 -2.09065,-0.90894 l -0.21476,-0.26565 -0.16981,0.10338 c -0.34617,0.21086 -0.36201,0.26718 -0.16741,0.59624 0.33646,0.56897 0.43714,0.9982 0.43963,1.8738 0.003,0.89271 -0.10925,1.59929 -0.22175,1.40178 -0.69297,-1.2167 -1.44125,-2.20362 -2.43399,-3.21048 -0.8321,-0.8439 -0.78031,-0.82083 -1.14646,-0.51074 l -0.17033,0.14427 0.2534,0.5718 c 0.13933,0.31446 0.56197,1.19986 0.93911,1.96748 0.747,1.52044 1.0745,2.34134 1.30718,3.27691 0.33117,1.33132 0.35668,2.47441 0.0883,3.95956 -0.0764,0.42246 -0.1348,0.47679 -0.19589,0.18204 -0.0557,-0.26877 -0.44751,-1.34391 -0.70259,-1.92826 -0.59259,-1.3574 -1.51413,-2.74851 -2.53904,-3.83282 l -0.38359,-0.4058 -0.25461,0.18116 c -0.14002,0.0997 -0.25458,0.2032 -0.25458,0.23019 0,0.027 0.16111,0.45574 0.35798,0.95285 1.35558,3.4225 2.05806,5.9074 2.28548,8.08428 0.0989,0.94686 0.0404,2.76238 -0.11439,3.54534 -0.21281,1.07698 -0.90757,2.88164 -1.20892,3.1403 -0.0542,0.0465 -0.21412,0.25209 -0.35535,0.45678 -1.04212,1.51035 -1.11864,3.16269 -0.21494,4.64056 0.2928,0.47883 1.03232,1.20785 1.46612,1.44535 0.20228,0.11073 0.35485,0.22289 0.33911,0.24922 -0.0598,0.10019 -0.78792,0.21675 -1.3229,0.21178 -2.20301,-0.0204 -3.63786,-1.93897 -3.63786,-4.86394 l 0,-0.64286 -0.26687,-0.44279 c -0.35712,-0.59253 -0.62678,-1.21779 -0.79497,-1.84302 -0.12205,-0.4535 -0.13891,-0.64773 -0.13988,-1.6081 0,-0.93342 0.019,-1.18497 0.13829,-1.72945 0.15083,-0.68958 0.48824,-1.84376 0.73382,-2.51042 0.0845,-0.22926 0.15296,-0.44773 0.15223,-0.48547 0,-0.0378 -0.13123,-0.12758 -0.28985,-0.19962 l -0.28846,-0.13103 -0.51699,0.88953 c -1.31183,2.25722 -1.78173,3.72384 -1.70286,5.31499 0.0619,1.25123 0.39699,2.32081 1.10482,3.52736 0.47117,0.80314 0.92301,1.72419 1.08504,2.21166 0.0836,0.25165 0.1109,0.50538 0.1109,1.03161 0,1.04884 -0.10661,1.22932 -1.57709,2.67007 -0.90695,0.88856 -1.20858,1.87118 -0.86154,2.80671 0.28729,0.77445 1.14097,1.53312 1.92521,1.71092 0.10489,0.0238 0.19074,0.0634 0.19074,0.0879 0,0.0572 -0.62095,0.28063 -1.11484,0.40137 -0.6052,0.14795 -1.69913,0.18194 -2.30781,0.0718 -0.92583,-0.16764 -1.7178,-0.66886 -2.04589,-1.29472 -0.18217,-0.34753 -0.26156,-0.71937 -0.17638,-0.82627 0.15378,-0.19302 0.48522,-0.97518 0.59814,-1.41162 0.18034,-0.69692 0.22544,-1.95382 0.0947,-2.63901 -0.15885,-0.83268 -0.92057,-2.31099 -1.58398,-3.07409 -0.52724,-0.60646 -1.1893,-1.81725 -1.35356,-2.4753 -0.10613,-0.42518 -0.11769,-1.22851 -0.0244,-1.68339 0.10838,-0.5275 0.49824,-1.50217 0.84012,-2.10061 l 0.32039,-0.56069 -0.24071,-0.18035 c -0.13241,-0.0992 -0.26007,-0.1803 -0.28378,-0.1803 -0.0698,0 -0.43153,0.43744 -0.70042,0.84703 -0.89814,1.36777 -1.02194,2.8642 -0.3867,4.67363 0.31257,0.89024 0.4609,1.18648 0.73019,1.45789 0.39235,0.3955 1.40278,1.84541 1.60653,2.30525 0.0959,0.21658 0.23734,0.65015 0.31423,0.96353 0.24428,0.99603 0.17944,1.71533 -0.26974,2.99218 -0.15403,0.43786 -0.24257,0.58784 -0.5264,0.89157 -0.7023,0.75155 -0.84828,1.54756 -0.4376,2.38573 0.42165,0.86052 1.69748,1.65616 2.87908,1.79546 l 0.40134,0.0474 -0.52808,0.30075 c -0.66637,0.37948 -1.33992,0.66088 -2.0695,0.86457 -0.5037,0.14061 -0.6848,0.15982 -1.53901,0.16304 -0.76745,0.003 -1.05939,-0.0201 -1.40822,-0.11182 -1.86772,-0.4903 -3.50091,-1.82552 -4.60903,-3.7682 -0.78779,-1.3811 -1.20594,-2.83738 -1.29746,-4.51841 -0.0354,-0.65043 0.0592,-1.8809 0.14919,-1.94142 0.0273,-0.0185 0.0676,-0.16979 0.0897,-0.33667 0.24061,-1.81613 0.80601,-3.75291 1.5382,-5.2693 0.97205,-2.01307 2.17087,-3.55721 3.7926,-4.88518 0.21751,-0.1781 0.39546,-0.3376 0.39546,-0.3544 0,-0.0619 -0.32427,-0.50255 -0.3708,-0.50381 -0.0988,-0.003 -1.02744,0.79503 -1.5687,1.34748 -1.85459,1.89286 -3.1411,4.17481 -3.90209,6.92129 -0.21156,0.76353 -0.49535,2.12769 -0.49535,2.38114 0,0.0788 -0.0231,0.15782 -0.0507,0.17566 -0.0739,0.0473 -0.17931,0.65552 -0.24252,1.39955 -0.0951,1.11891 0.0742,2.5247 0.50392,4.18837 0.0776,0.30038 0.1412,0.56697 0.14126,0.59242 0,0.0814 -0.77928,-0.35641 -1.15587,-0.64919 -0.67015,-0.52099 -1.12672,-1.29105 -1.58308,-2.66996 -0.14435,-0.43609 -0.31236,-0.87667 -0.37341,-0.97909 -0.2285,-0.38325 -0.46687,-1.88367 -0.46646,-2.93667 0,-1.36233 0.25073,-3.01059 0.64949,-4.27734 0.29992,-0.9528 0.9492,-2.29526 1.4264,-2.94936 0.9048,-1.24025 2.1037,-2.10113 3.38072,-2.42758 0.896,-0.2291 0.80346,-0.16362 0.74567,-0.52763 -0.06,-0.37825 -0.0454,-0.3752 -0.81585,-0.17307 -1.23498,0.32398 -2.19213,0.89839 -3.13025,1.87847 -1.84087,1.92322 -2.90428,4.99505 -2.90073,8.3793 0.003,1.51454 0.20382,2.76337 0.57983,3.58011 0.81244,1.76483 0.96615,4.0594 0.38006,5.67415 -0.54605,1.50448 -1.73545,2.58731 -3.3391,3.03989 -0.36849,0.10399 -0.66668,0.13596 -1.40642,0.15068 -0.51636,0.0104 -1.01804,0.006 -1.11486,-0.008 z m 20.04171,-21.66657 c 1.28912,-1.10489 1.89188,-2.14607 2.15077,-3.71529 0.0551,-0.33389 0.0879,-0.61903 0.0728,-0.63361 -0.0149,-0.0145 -0.16022,-0.045 -0.32259,-0.0676 l -0.2952,-0.0411 -0.13134,0.71013 c -0.14676,0.79326 -0.34948,1.34614 -0.68976,1.88096 -0.24011,0.37736 -0.8176,1.01068 -1.24788,1.36867 l -0.25376,0.21105 0.19503,0.25165 c 0.10733,0.13838 0.21017,0.25306 0.22855,0.25477 0.0184,0.003 0.15042,-0.0971 0.29339,-0.21965 z m -5.62516,-27.73025 c 0.33637,-0.12031 1.1608,-0.14967 1.98319,-0.0706 l 0.44005,0.0423 -0.50955,-0.17704 c -1.20365,-0.41818 -1.87444,-0.36347 -2.36965,0.19333 -0.40362,0.45386 -0.52863,0.81998 -0.14419,0.42237 0.19392,-0.20057 0.39169,-0.33578 0.60015,-0.41035 z m -0.003,-0.47073 c 1.12305,-0.51367 2.46794,-0.6137 4.96279,-0.36917 0.16939,0.0166 0.30803,0.007 0.30803,-0.0214 0,-0.0992 -1.14266,-1.23632 -1.6026,-1.59477 -0.90494,-0.70525 -2.2026,-1.22745 -3.2518,-1.30857 l -0.48312,-0.0374 -0.17188,0.3882 c -0.22178,0.50109 -0.28729,0.77453 -0.0984,0.41112 0.41999,-0.8084 1.09057,-0.86237 1.4566,-0.11722 0.30473,0.62038 0.18325,1.5254 -0.27505,2.04869 -0.19973,0.22809 -0.28155,0.27719 -0.50511,0.30322 -0.2291,0.0267 -0.29359,0.008 -0.45684,-0.13441 -0.27426,-0.23868 -0.37414,-0.48129 -0.4243,-1.03076 -0.0388,-0.42515 -0.0428,-0.38743 -0.0314,0.30331 0.01,0.59996 0.0382,0.85064 0.1184,1.04676 0.058,0.14185 0.11254,0.25792 0.12115,0.25792 0.008,0 0.15873,-0.0655 0.33361,-0.14542 z m 13.47776,-0.0968 c 0.67174,-0.54914 1.25993,-1.61843 1.88341,-3.42372 0.19495,-0.56446 0.34404,-1.03702 0.33133,-1.05014 -0.0127,-0.013 -0.45509,0.24691 -0.98311,0.57788 -0.52798,0.33094 -1.09202,0.6707 -1.25337,0.755 -0.55745,0.29122 -1.34014,0.53436 -2.22334,0.69071 -1.90995,0.33806 -2.72832,0.73252 -2.90685,1.4012 -0.0325,0.12209 -0.045,0.28078 -0.0276,0.35264 0.0298,0.12227 0.0503,0.12687 0.32099,0.0715 0.24133,-0.0493 0.28935,-0.0813 0.28935,-0.19226 0,-0.39966 0.83935,-0.75307 2.39213,-1.00719 1.16642,-0.19086 2.32868,-0.62196 3.10869,-1.15303 0.10489,-0.0714 0.19072,-0.11395 0.19072,-0.0945 0,0.0193 -0.10024,0.27579 -0.22277,0.56972 -0.38166,0.91549 -0.64752,1.3503 -1.12565,1.84088 l -0.45012,0.46181 0.15114,0.21934 c 0.0831,0.1206 0.16859,0.22001 0.18992,0.22087 0.0212,0 0.17205,-0.10748 0.33502,-0.2407 z m -13.2278,-1.57354 c 0.0561,-0.0642 0.11611,-0.22483 0.13325,-0.35704 0.025,-0.19199 0.006,-0.26656 -0.0943,-0.37021 -0.1016,-0.10514 -0.14807,-0.11731 -0.24431,-0.064 -0.22398,0.12396 -0.2985,0.53787 -0.1392,0.77308 0.11213,0.1656 0.21103,0.17083 0.3446,0.0181 z m -0.75256,-0.53442 c -0.0193,-0.0202 -0.0334,0.0157 -0.0307,0.0796 0.003,0.0707 0.0165,0.0851 0.0354,0.0367 0.0168,-0.0438 0.0149,-0.0962 -0.004,-0.11633 z m -17.28599,50.56845 c -0.27427,-0.24572 -0.64395,-0.60204 -0.82143,-0.79184 l -0.32271,-0.34505 0.53927,-0.53651 c 0.31149,-0.30989 0.83189,-0.73514 1.23215,-1.0069 0.38114,-0.25872 1.27861,-0.87565 1.99446,-1.37095 0.71585,-0.49531 1.34292,-0.91699 1.39352,-0.93709 0.0792,-0.0315 0.092,0.0365 0.092,0.48818 0,2.74412 -0.89443,4.35885 -2.67537,4.82991 -0.77444,0.20486 -0.85607,0.18604 -1.43191,-0.32975 z m -19.98427,-13.61462 c -0.0454,-0.0316 -0.0235,-0.34524 0.0756,-1.07621 0.105,-0.77556 0.13426,-1.21984 0.11775,-1.79014 -0.0288,-0.99506 -0.10717,-1.18198 -0.76528,-1.82503 -0.32284,-0.31548 -0.56005,-0.61083 -0.69066,-0.85997 -0.18649,-0.35564 -0.199,-0.41572 -0.199,-0.95599 0,-0.5193 0.0181,-0.6156 0.18181,-0.97091 0.10003,-0.21697 0.40088,-0.69482 0.66851,-1.06196 0.55179,-0.75678 0.6459,-0.94928 0.6459,-1.32119 0,-0.43096 -0.23731,-0.83181 -0.80762,-1.36425 -1.08649,-1.01422 -1.3047,-1.3341 -1.3047,-1.91259 0,-0.25359 0.0372,-0.38449 0.17118,-0.60299 l 0.17116,-0.27911 -0.12717,-0.12015 c -0.39102,-0.36936 -0.93741,-0.4405 -1.32831,-0.17298 -0.27121,0.18564 -0.47868,0.52962 -0.66974,1.11065 -0.0764,0.23202 -0.17941,0.5022 -0.22907,0.60041 -0.12747,0.25182 -0.44351,0.55027 -0.69987,0.66086 -1.15262,0.49717 -3.30472,-1.03038 -4.29278,-3.047 -0.20729,-0.42306 -0.4281,-1.1379 -0.4749,-1.53755 -0.0354,-0.30245 -0.0222,-0.35577 0.17191,-0.6918 0.23157,-0.40092 0.49602,-0.66809 0.71843,-0.72583 0.0984,-0.0255 0.27857,0.0261 0.56334,0.16207 0.37544,0.17905 0.47335,0.19966 0.9486,0.19966 0.5978,0 0.92263,-0.11187 1.49804,-0.51596 0.38986,-0.27381 0.88691,-0.70205 0.75858,-0.65361 -1.33155,0.50264 -2.23509,0.56006 -3.03416,0.19292 -0.71523,-0.32863 -1.14774,-0.24926 -1.51386,0.27778 l -0.21613,0.31114 -0.32775,-0.0423 c -0.86512,-0.1118 -1.23713,-0.57629 -1.23954,-1.54759 -0.003,-1.20503 0.66571,-2.75736 1.5957,-3.70434 0.39905,-0.40637 0.49078,-0.44312 1.11224,-0.44533 0.56028,-0.003 0.69998,0.0898 0.9873,0.64875 0.26972,0.52472 0.52687,0.84856 0.86468,1.08894 0.31081,0.22114 0.89751,0.48022 1.33565,0.58978 0.16135,0.0403 0.3462,0.0885 0.41074,0.10712 0.0645,0.0187 -0.13169,-0.12602 -0.43602,-0.32132 -0.72476,-0.46508 -1.37112,-1.12688 -1.66387,-1.70356 -0.29086,-0.57307 -0.48075,-0.79872 -0.79191,-0.94106 -0.30734,-0.14061 -0.59803,-0.10745 -1.0504,0.11972 -0.16739,0.0841 -0.34439,0.13695 -0.39333,0.1175 -0.049,-0.0193 -0.16236,-0.15001 -0.2521,-0.29023 -0.43095,-0.67353 0.012,-1.71734 1.08699,-2.56186 0.84834,-0.66644 1.74026,-1.01667 2.59392,-1.01863 l 0.4699,0 0.51176,0.38808 c 0.55878,0.42371 0.77584,0.69435 0.77584,0.9673 0,0.0973 -0.0594,0.3186 -0.13201,0.49166 -0.19545,0.46587 -0.18875,1.3917 0.0133,1.86206 0.13654,0.3177 0.52405,1.03163 0.55992,1.03163 0.01,0 -0.0187,-0.14339 -0.0622,-0.3186 -0.12812,-0.51662 -0.21238,-1.30412 -0.17237,-1.61094 0.0203,-0.15698 0.11429,-0.52189 0.20853,-0.81093 0.20254,-0.62116 0.21087,-0.79463 0.0537,-1.11345 -0.097,-0.19675 -0.1067,-0.2728 -0.0555,-0.43329 0.0897,-0.28118 0.4688,-0.86422 0.73551,-1.13121 0.84995,-0.85107 2.04084,-0.72283 2.97472,0.32028 1.07571,1.20167 1.42334,2.94567 0.88618,4.44539 -0.18835,0.52569 -0.23759,1.05072 -0.13439,1.43202 0.0841,0.31037 0.42581,0.70184 0.7599,0.87038 0.11145,0.0562 0.41391,0.20879 0.67203,0.33901 0.3492,0.17619 0.57456,0.24689 0.88017,0.27624 0.6399,0.0614 1.06168,0.19452 1.76021,0.55544 1.04628,0.54054 1.89046,1.24849 3.21588,2.69692 0.58619,0.64063 0.74425,0.84826 0.71861,0.94405 -0.0181,0.0675 -0.0629,0.38787 -0.0994,0.71187 -0.17738,1.57104 0.37832,3.28137 1.52397,4.69039 l 0.29598,0.3641 -0.54306,0.18917 c -1.39373,0.48547 -2.32981,1.17303 -2.96534,2.17798 -0.3001,0.4745 -0.36735,0.62409 -0.70492,1.56824 -0.25446,0.71181 -0.54163,1.28186 -0.81332,1.61458 l -0.17142,0.2099 -0.58641,-0.56099 c -0.32252,-0.30854 -0.9402,-0.97098 -1.37265,-1.47208 -0.55682,-0.64525 -0.79146,-0.87922 -0.8042,-0.80186 -0.078,0.47453 -0.46507,0.79843 -1.28583,1.07609 -0.62644,0.21194 -0.71867,0.54216 -0.45367,1.62354 0.0822,0.33542 0.13769,0.62207 0.12329,0.63697 -0.0146,0.0148 -0.13717,-0.004 -0.27279,-0.0416 -0.13557,-0.0378 -0.26082,-0.0539 -0.27834,-0.0357 -0.0174,0.0182 0.14727,0.22925 0.36617,0.46923 l 0.39798,0.43631 -0.0319,0.70293 c -0.0437,0.96376 -0.22483,1.67456 -0.70085,2.75097 -0.17477,0.39529 -0.27105,0.476 -0.43315,0.36314 z m 9.23204,-2.32434 c -0.12102,-0.066 -0.22005,-0.14108 -0.22005,-0.16673 0,-0.0255 0.12181,-0.16833 0.27071,-0.31714 0.14883,-0.14876 0.3997,-0.42895 0.55739,-0.62261 0.1577,-0.19363 0.28673,-0.32678 0.28673,-0.29585 0,0.17391 -0.56929,1.53063 -0.63999,1.52517 -0.019,0 -0.13378,-0.0567 -0.25479,-0.12284 z"
       id="path31059-5"
       inkscape:connector-curvature="0" />
    <path
       style="fill:#da121a;fill-opacity:1;stroke:#000000;stroke-width:0.75400001;stroke-linecap:butt;stroke-linejoin:miter;stroke-miterlimit:4;stroke-opacity:1;stroke-dasharray:none"
       d="m 294.26497,322.94281 c -1.63208,-0.71144 -3.85048,-1.79394 -5.20699,1.52114 2.3319,-0.48696 3.13464,0.48083 3.79495,1.25098 0.65906,0.27673 2.326,-0.54676 1.41204,-2.77212 z"
       id="path29334-5-2-8-9-42"
       inkscape:connector-curvature="0"
       sodipodi:nodetypes="cccc" />
    <path
       style="fill:#da121a;fill-opacity:1;stroke:#000000;stroke-width:0.75400001;stroke-linecap:butt;stroke-linejoin:miter;stroke-miterlimit:4;stroke-opacity:1;stroke-dasharray:none"
       d="m 300.76475,322.64511 c -0.90125,-1.56198 -2.05928,-3.77807 -5.07524,-1.93098 2.16018,1.02117 2.24493,2.28694 2.32969,3.30724 0.37008,0.62224 2.19013,0.96946 2.74555,-1.37626 z"
       id="path29334-5-2-8-9-6-0"
       inkscape:connector-curvature="0"
       sodipodi:nodetypes="cccc" />
    <path
       style="fill:#da121a;fill-opacity:1;stroke:#000000;stroke-width:0.75400001;stroke-linecap:butt;stroke-linejoin:miter;stroke-miterlimit:4;stroke-opacity:1;stroke-dasharray:none"
       d="m 290.84366,328.58156 c -1.76455,0.18991 -4.21804,0.34716 -3.82502,3.91793 1.8055,-1.5849 2.96755,-1.13849 3.9111,-0.79394 0.70755,-0.0859 1.77185,-1.63419 -0.0861,-3.12399 z"
       id="path29334-5-2-8-9-3-9"
       inkscape:connector-curvature="0"
       sodipodi:nodetypes="cccc" />
    <path
       style="fill:#da121a;fill-opacity:1;stroke:#000000;stroke-width:0.75400001;stroke-linecap:butt;stroke-linejoin:miter;stroke-miterlimit:4;stroke-opacity:1;stroke-dasharray:none"
       d="m 294.13809,337.76267 c -1.6321,0.71144 -3.85048,1.79395 -5.207,-1.52114 2.33191,0.48696 3.13465,-0.48084 3.79495,-1.25098 0.65908,-0.27672 2.32602,0.54675 1.41205,2.77212 z"
       id="path29334-5-2-8-9-7-7"
       inkscape:connector-curvature="0"
       sodipodi:nodetypes="cccc" />
    <path
       style="fill:#da121a;fill-opacity:1;stroke:#000000;stroke-width:0.75400001;stroke-linecap:butt;stroke-linejoin:miter;stroke-miterlimit:4;stroke-opacity:1;stroke-dasharray:none"
       d="m 293.5247,363.04722 c -1.39344,-1.12261 -3.25793,-2.75994 -5.41502,0.0777 2.37539,0.15271 2.90276,1.30126 3.34318,2.22101 0.56543,0.4431 2.38501,0.0935 2.07184,-2.29869 z"
       id="path29334-5-2-8-9-8-3"
       inkscape:connector-curvature="0"
       sodipodi:nodetypes="cccc" />
    <path
       style="fill:#da121a;fill-opacity:1;stroke:#000000;stroke-width:0.75400001;stroke-linecap:butt;stroke-linejoin:miter;stroke-miterlimit:4;stroke-opacity:1;stroke-dasharray:none"
       d="m 288.68795,367.18781 c -1.77194,0.0945 -4.23012,0.11939 -4.02187,3.70637 1.88475,-1.4854 3.02215,-0.977 3.94662,-0.58209 0.711,-0.0478 1.85373,-1.53644 0.0753,-3.12428 z"
       id="path29334-5-2-8-9-82-7"
       inkscape:connector-curvature="0"
       sodipodi:nodetypes="cccc" />
    <path
       style="fill:#da121a;fill-opacity:1;stroke:#000000;stroke-width:0.75400001;stroke-linecap:butt;stroke-linejoin:miter;stroke-miterlimit:4;stroke-opacity:1;stroke-dasharray:none"
       d="m 291.4714,372.96312 c -1.46753,1.01928 -3.5573,2.34234 -1.56032,5.29983 0.85873,-2.26854 2.08928,-2.43608 3.08019,-2.58792 0.58388,-0.4173 0.80629,-2.29575 -1.51987,-2.71191 z"
       id="path29334-5-2-8-9-9-2"
       inkscape:connector-curvature="0"
       sodipodi:nodetypes="cccc" />
    <path
       style="fill:#da121a;fill-opacity:1;stroke:#000000;stroke-width:0.75400001;stroke-linecap:butt;stroke-linejoin:miter;stroke-miterlimit:4;stroke-opacity:1;stroke-dasharray:none"
       d="m 293.4405,409.71534 c -1.75838,-0.24244 -4.17855,-0.68331 -4.62392,2.88104 2.12129,-1.10297 3.14691,-0.38809 3.98381,0.17496 0.70733,0.0877 2.10006,-1.15901 0.64011,-3.056 z"
       id="path29334-5-2-8-9-1-6"
       inkscape:connector-curvature="0"
       sodipodi:nodetypes="cccc" />
    <path
       style="fill:#da121a;fill-opacity:1;stroke:#000000;stroke-width:0.75400001;stroke-linecap:butt;stroke-linejoin:miter;stroke-miterlimit:4;stroke-opacity:1;stroke-dasharray:none"
       d="m 289.41235,414.60336 c -1.61318,0.75509 -3.88947,1.70378 -2.40265,4.95998 1.21663,-2.09057 2.4573,-2.04621 3.45911,-2.02716 0.64375,-0.31207 1.16937,-2.12636 -1.05646,-2.93282 z"
       id="path29334-5-2-8-9-35-0"
       inkscape:connector-curvature="0"
       sodipodi:nodetypes="cccc" />
    <path
       style="fill:#da121a;fill-opacity:1;stroke:#000000;stroke-width:0.75400001;stroke-linecap:butt;stroke-linejoin:miter;stroke-miterlimit:4;stroke-opacity:1;stroke-dasharray:none"
       d="m 291.97629,420.223 c -1.30076,1.23332 -3.17197,2.86262 -0.76235,5.47942 0.515,-2.37475 1.70689,-2.72962 2.66415,-3.03207 0.51581,-0.50235 0.45916,-2.3936 -1.9018,-2.44735 z"
       id="path29334-5-2-8-9-98-1"
       inkscape:connector-curvature="0"
       sodipodi:nodetypes="cccc" />
    <path
       style="fill:#da121a;fill-opacity:1;stroke:#000000;stroke-width:0.75400001;stroke-linecap:butt;stroke-linejoin:miter;stroke-miterlimit:4;stroke-opacity:1;stroke-dasharray:none"
       d="m 304.81889,423.81685 c -0.15799,1.80612 -0.27315,4.31566 -3.77294,3.97035 1.52215,-1.86989 1.06709,-3.0503 0.71511,-4.009 0.0729,-0.72437 1.57091,-1.83633 3.05783,0.0387 z"
       id="path29334-5-2-8-9-4-6"
       inkscape:connector-curvature="0"
       sodipodi:nodetypes="cccc" />
    <path
       style="fill:#da121a;fill-opacity:1;stroke:#000000;stroke-width:0.75400001;stroke-linecap:butt;stroke-linejoin:miter;stroke-miterlimit:4;stroke-opacity:1;stroke-dasharray:none"
       d="m 341.52353,416.05898 c -1.7627,0.2076 -4.21453,0.38946 -3.78722,3.95612 1.79016,-1.60293 2.95647,-1.1682 3.90326,-0.83313 0.70668,-0.0931 1.75607,-1.6519 -0.11604,-3.12299 z"
       id="path29334-5-2-8-9-0-5"
       inkscape:connector-curvature="0"
       sodipodi:nodetypes="cccc" />
    <path
       style="fill:#da121a;fill-opacity:1;stroke:#000000;stroke-width:0.75400001;stroke-linecap:butt;stroke-linejoin:miter;stroke-miterlimit:4;stroke-opacity:1;stroke-dasharray:none"
       d="m 340.26819,421.00265 c -1.43144,1.0715 -3.47428,2.46905 -1.37651,5.35274 0.77993,-2.29807 2.00396,-2.50985 2.98901,-2.69728 0.56913,-0.43812 0.72659,-2.32339 -1.6125,-2.65546 z"
       id="path29334-5-2-8-9-76-7"
       inkscape:connector-curvature="0"
       sodipodi:nodetypes="cccc" />
    <path
       style="fill:#da121a;fill-opacity:1;stroke:#000000;stroke-width:0.75400001;stroke-linecap:butt;stroke-linejoin:miter;stroke-miterlimit:4;stroke-opacity:1;stroke-dasharray:none"
       d="m 346.99948,424.04332 c -1.33589,1.19344 -3.25348,2.76545 -0.92065,5.45395 0.58353,-2.35814 1.7852,-2.67679 2.75079,-2.95016 0.5301,-0.48652 0.52826,-2.37866 -1.83014,-2.50379 z"
       id="path29334-5-2-8-9-36-5"
       inkscape:connector-curvature="0"
       sodipodi:nodetypes="cccc" />
  </g>
</svg>
