<?xml version="1.0" encoding="UTF-8" standalone="no"?>
<!-- Created with Inkscape (http://www.inkscape.org/) -->

<svg
   xmlns:dc="http://purl.org/dc/elements/1.1/"
   xmlns:cc="http://creativecommons.org/ns#"
   xmlns:rdf="http://www.w3.org/1999/02/22-rdf-syntax-ns#"
   xmlns:svg="http://www.w3.org/2000/svg"
   xmlns="http://www.w3.org/2000/svg"
   xmlns:sodipodi="http://sodipodi.sourceforge.net/DTD/sodipodi-0.dtd"
   xmlns:inkscape="http://www.inkscape.org/namespaces/inkscape"
   width="782.06012"
   height="564.27124"
   id="svg5704"
   version="1.1"
   inkscape:version="0.48.4 r9939"
   sodipodi:docname="Nieuwerkerk aan den IJssel vlag.svg">
  <defs
     id="defs5706" />
  <sodipodi:namedview
     id="base"
     pagecolor="#ffffff"
     bordercolor="#666666"
     borderopacity="1.0"
     inkscape:pageopacity="0.0"
     inkscape:pageshadow="2"
     inkscape:zoom="2.8"
     inkscape:cx="736.75313"
     inkscape:cy="218.82769"
     inkscape:document-units="px"
     inkscape:current-layer="layer1"
     showgrid="false"
     fit-margin-top="0"
     fit-margin-left="0"
     fit-margin-right="0"
     fit-margin-bottom="0"
     inkscape:window-width="1600"
     inkscape:window-height="837"
     inkscape:window-x="-8"
     inkscape:window-y="-8"
     inkscape:window-maximized="1" />
  <metadata
     id="metadata5709">
    <rdf:RDF>
      <cc:Work
         rdf:about="">
        <dc:format>image/svg+xml</dc:format>
        <dc:type
           rdf:resource="http://purl.org/dc/dcmitype/StillImage" />
        <dc:title></dc:title>
      </cc:Work>
    </rdf:RDF>
  </metadata>
  <g
     inkscape:label="Laag 1"
     inkscape:groupmode="layer"
     id="layer1"
     transform="translate(109.3959,-55.940849)">
    <rect
       style="fill:#ffffff;fill-opacity:1;fill-rule:evenodd;stroke:none"
       id="rect5474"
       width="782.06012"
       height="564.27124"
       x="-109.3959"
       y="55.940849" />
    <path
       style="fill:#0e44af;fill-opacity:1"
       d="m -6.8217121,439.42712 c -2.5678,-0.2594 -6.8433039,-1.8982 -15.0380039,-5.7641 -5.78,-2.7267 -8.5459,-3.8754 -11.7544,-4.8816 -4.3326,-1.3585 -7.3224,-1.853 -11.7281,-1.9401 -4.5694,-0.09 -7.6925,0.3666 -11.3051,1.6538 -2.6877,0.9576 -4.9986,2.0969 -10.0399,4.9493 -4.0165,2.2727 -5.1483,2.8489 -6.817,3.4699 -1.8421,0.6857 -3.7718,1.0971 -7.022,1.4975 -2.2987,0.2831 -6.8471,0.3525 -9.0893,0.1387 -5.6258,-0.5364 -9.9117,-1.8407 -16.917704,-5.1484 l -2.6094,-1.232 0,-32.7368 0,-32.7368 0.2549,0.108 c 0.1404,0.059 0.7604,0.3662 1.3781,0.6819 7.775304,3.974 12.001004,5.4196 17.659604,6.041 3.9097,0.4295 9.418,-0.2993 13.8977,-1.8388 4.1213,-1.4163 7.5675,-3.0242 11.0597,-5.16 6.3044,-3.8556 10.441,-5.0886 17.6739,-5.2679 4.3735,-0.1083 8.0632,0.3139 11.904,1.362 3.6131,0.986 6.7351,2.2577 12.4903,5.0876 3.6743,1.8067 4.9194,2.3745 7.1067,3.2406 4.2806,1.695 7.2166039,2.3297 11.5061039,2.4874 3.95569996,0.1453 7.985,-0.5039 12.5112,-2.0161 3.1405001,-1.0492 4.3863001,-1.6582 7.4748001,-3.654 2.4229,-1.5657 4.2446,-2.5148 6.4955,-3.3841 4.2832,-1.6545 8.1212,-2.2992 13.0767,-2.1969 3.3093,0.068 5.4203,0.3226 8.6466,1.0413 4.418,0.984 7.951,2.3434 14.3404,5.5178 3.6842,1.8304 5.0408,2.4549 7.1257,3.2801 4.3828,1.7348 7.4401,2.3032 12.4014,2.306 2.6718,0 4.002,-0.1261 6.6033,-0.6332 5.1499,-1.004 9.7681,-2.8597 15.4633,-6.2131 4.493002,-2.6457 6.549002,-3.5809 9.481802,-4.3132 2.87,-0.7168 5.2181,-0.953 9.5584,-0.9619 3.6638,-0.01 4.8423,0.074 7.3576,0.5103 4.4786,0.7765 8.1421,2.1423 16.3329,6.0894 5.48,2.6407 7.1845,3.3783 9.4692,4.0973 2.4997,0.7867 4.2681,1.0744 7.5294,1.2247 2.6124,0.1205 6.3693,0 7.8062,-0.2448 2.7798,-0.4789 8.4188,-2.3868 11.0244,-3.7301 0.5805,-0.2992 2.111,-1.2108 3.401,-2.0257 4.2619,-2.692 5.2808,-3.2417 7.7505,-4.181 4.0011,-1.5218 8.3346,-2.1646 13.7705,-2.0427 7.069,0.1584 12.2625,1.647 21.345,6.1183 6.3677,3.1348 7.0257,3.4307 9.421,4.2359 2.3847,0.8015 5.0795,1.3808 7.6094,1.6354 1.8994,0.1913 5.8435,0.1428 7.5984,-0.093 2.6676,-0.3589 5.3023,-1.0182 8.0178,-2.0063 3.842,-1.3979 6.6023,-2.7128 9.6329,-4.5886 2.5449,-1.5752 4.779,-2.6932 7.0501,-3.5281 6.0864,-2.2375 12.6469,-2.6473 19.807,-1.2373 4.3535,0.8574 8.1094,2.2112 13.8391,4.988 1.4192,0.6878 3.451,1.6661 4.5153,2.1741 6.765,3.2286 10.8983,4.2857 16.7125,4.2739 4.7592,-0.01 9.0733,-0.8658 13.839,-2.7465 2.6458,-1.0441 4.5222,-2.0408 8.0994,-4.3026 4.2404,-2.681 7.1156,-4.0086 10.623,-4.9055 2.5977,-0.6642 4.7101,-0.9127 7.7829,-0.9154 2.9266,0 6.0223,0.2852 9.3825,0.8724 2.7504,0.4806 2.6912,0.4585 6.9781,2.6097 6.255,3.1389 9.7989,4.4175 14.3082,5.1622 1.9735,0.3259 3.3571,0.4176 5.4653,0.3618 4.9705,-0.1312 9.4688,-1.2115 14.9427,-3.5884 2.7734,-1.2044 4.3782,-2.0381 6.7996,-3.5328 6.3796,-3.9379 10.8906,-5.2019 18.5903,-5.2094 3.0318,0 4.3975,0.093 6.861,0.4835 4.8735,0.7719 9.044,2.2758 16.5951,5.9844 4.6858,2.3013 6.9369,3.2804 9.4079,4.0918 3.7636,1.2359 6.6864,1.6685 10.7056,1.5844 3.9764,-0.083 6.7322,-0.5856 11.0393,-2.0131 2.835,-0.9396 4.4223,-1.7092 7.0806,-3.4332 2.4925,-1.6163 3.7656,-2.3196 5.7467,-3.1739 9.4188,-4.0617 21.0728,-3.4347 32.5452,1.7509 0.6773,0.3062 2.7092,1.2874 4.5153,2.1806 6.0601,2.997 8.7576,4.0927 11.904,4.8355 3.8111,0.8997 8.4269,1.0545 12.7132,0.4263 5.5081,-0.8074 10.8443,-2.8553 17.2518,-6.6211 3.134,-1.8419 4.4726,-2.5286 6.3141,-3.2394 3.3449,-1.2912 6.1591,-1.7728 11.1021,-1.9004 8.9369,-0.2306 13.39,0.9234 24.6875,6.3974 8.0364,3.8938 10.6235,4.8311 14.763,5.3485 1.6888,0.2111 8.1249,0.2365 9.69,0.038 2.8306,-0.3585 9.134,-2.4519 12.1384,-4.0313 0.3871,-0.2034 1.4426,-0.8353 2.3456,-1.404 0.9031,-0.5688 1.7079,-1.0657 1.7885,-1.1044 0.1173,-0.056 0.1466,6.5657 0.1466,32.9871 l 0,33.0573 -2.0816,1.207 c -3.8238,2.2169 -4.7518,2.655 -7.293,3.4419 -3.3852,1.0484 -8.0854,1.6063 -12.3222,1.4627 -6.3929,-0.2165 -10.0735,-1.2535 -19.3314,-5.4462 -8.6422,-3.9138 -12.6009,-5.2436 -17.6705,-5.9359 -1.3358,-0.1824 -1.9388,-0.2083 -4.8671,-0.2093 -4.5462,0 -6.7917,0.2517 -9.7577,1.1009 -2.8467,0.8151 -5.1842,1.9244 -11.0596,5.2488 -5.4703,3.0951 -6.1532,3.4208 -8.5379,4.0712 -3.0412,0.8294 -6.0993,1.2031 -10.4615,1.2784 -3.2914,0.057 -5.068,-0.048 -7.4554,-0.4391 -3.3323,-0.5461 -7.5665,-1.9999 -12.9513,-4.4468 -1.6126,-0.7327 -3.4862,-1.5796 -4.1635,-1.882 -6.8745,-3.069 -11.9451,-4.4622 -17.8265,-4.8982 -3.2746,-0.2427 -7.6813,0.1988 -11.0244,1.1045 -3.4651,0.9388 -5.014,1.6486 -10.9656,5.0246 -1.6773,0.9514 -3.5486,1.9949 -4.1586,2.319 -4.7174,2.506 -7.8222,3.1769 -14.7823,3.1945 -4.0082,0.011 -4.4603,-0.071 -8.1509,-1.4561 -2.6418,-0.9918 -5.542,-2.2578 -10.0282,-4.3775 -5.8741,-2.7754 -8.6878,-3.9331 -12.1662,-5.0057 -4.0203,-1.2397 -6.9717,-1.7067 -11.2892,-1.7863 -3.2251,-0.059 -4.9838,0.076 -7.4473,0.5763 -3.9102,0.7931 -7.3143,2.2626 -13.5993,5.8704 -6.2868,3.6088 -8.1651,4.3219 -13.1129,4.9777 -2.4773,0.3283 -3.7877,0.4152 -6.3028,0.418 -4.8717,0.01 -8.888,-0.6648 -13.5426,-2.2597 -1.9894,-0.6817 -4.3456,-1.6926 -8.095,-3.4731 -2.901,-1.3776 -3.1214,-1.4647 -4.5349,-1.7924 -3.4089,-0.7902 -5.6939,-1.0927 -8.7902,-1.1639 -2.5664,-0.059 -4.1024,0.036 -6.2264,0.3852 -4.7065,0.7737 -8.5389,2.275 -14.1161,5.5303 -5.6761,3.3128 -7.8622,4.2904 -11.6754,5.2211 -3.5063,0.8558 -6.3127,1.2055 -9.6613,1.2037 -3.6938,0 -6.3251,-0.3244 -9.5584,-1.1715 -3.3083,-0.8667 -6.0629,-1.9457 -11.6108,-4.5481 -4.9346,-2.3149 -7.0512,-3.1553 -10.6882,-4.2439 -3.9784,-1.1909 -6.7983,-1.5661 -11.7708,-1.5666 -3.9182,0 -5.8229,0.2125 -8.7156,0.9737 -3.3587,0.8839 -5.2741,1.7873 -12.5989,5.9427 -6.1871,3.5101 -9.0281,4.3775 -15.3357,4.6822 -2.6793,0.1294 -7.2005,0.058 -8.6787,-0.1374 -2.8817,-0.3805 -6.3637,-1.3669 -10.262,-2.9069 -0.8386,-0.3313 -3.2399,-1.383 -5.3362,-2.3372 -4.4904,-2.0439 -6.3908,-2.8409 -8.7557,-3.6718 -4.891,-1.7186 -8.5708,-2.4347 -12.971,-2.5241 -5.0082,-0.1017 -8.6874,0.4749 -12.6365,1.9802 -2.8377,1.0817 -4.4536,1.8969 -9.0892,4.5847 -4.4693,2.5915 -5.3614,3.0273 -7.7649,3.7929 -3.3466,1.0662 -6.8689,1.5356 -11.4691,1.5285 -6.8835,-0.011 -10.7468,-1.0301 -20.3066,-5.3582 -7.6393,-3.4585 -11.2724,-4.782 -15.2879,-5.5689 -2.4226,-0.4748 -3.7326,-0.6144 -6.3331,-0.6748 -5.4341,-0.1265 -9.4651,0.4605 -13.1161,1.9096 -2.4096,0.9564 -3.9585,1.7454 -8.756702,4.4602 -5.2134,2.9498 -5.9691,3.3207 -8.0218,3.9372 -2.9901,0.8982 -6.3801,1.3396 -10.8707,1.4155 -7.8245,0.1323 -11.5149,-0.7968 -21.9796,-5.533 -8.6364,-3.9088 -12.4436,-5.1462 -18.1199,-5.8891 -5.1738,-0.677 -10.4351,-0.1831 -15.3951,1.4454 -2.3096,0.7583 -4.0963,1.6405 -9.182,4.5338 -3.4639,1.9705 -4.6237,2.5904 -6.0916001,3.2556 -3.5062,1.5887 -6.2662,2.0833 -12.0799,2.1647 -1.5803,0.022 -3.2454,0 -3.7004,-0.043 z m -0.2361,-72.9068 c -2.9990039,-0.2113 -6.6175039,-1.5576 -15.7080039,-5.8445 -4.4525,-2.0999 -6.315,-2.9179 -8.5852,-3.771 -3.337,-1.254 -6.3776,-2.0945 -9.1827,-2.5384 -2.3551,-0.3727 -3.6784,-0.4712 -6.3473,-0.4725 -4.4121,0 -7.4321,0.4982 -10.966,1.8166 -2.6945,1.0052 -4.8026,2.054 -9.5719,4.7622 -3.7129,2.1083 -4.7886,2.6667 -6.3847,3.3144 -4.5422,1.8434 -12.7783,2.4977 -19.1543,1.5219 -4.5823,-0.7012 -8.472204,-2.0308 -14.924004,-5.1008 l -1.2607,-0.5999 0,-22.6576 c 0,-12.4617 0.031,-22.6576 0.069,-22.6576 0.038,0 0.918,0.423 1.9554,0.9401 3.8706,1.9291 6.145,2.8936 8.856504,3.7555 4.3706,1.3894 8.6137,1.8826 12.6569,1.4714 4.1072,-0.4179 7.0932,-1.1745 11.3201,-2.8687 3.3875,-1.3579 5.3298,-2.3246 8.1837,-4.0735 6.0502,-3.7074 9.9628,-4.9421 16.6726,-5.2608 4.8463,-0.2303 9.5588,0.3009 13.7435,1.5493 3.2359,0.9653 6.6731,2.398 11.8335,4.9322 3.6915,1.8128 5.1515,2.4843 6.9495,3.1961 4.3881,1.7371 8.1319039,2.4847 12.4084039,2.4777 3.96319996,-0.01 7.5103,-0.6295 11.7513,-2.0643 2.9531001,-0.9991 4.3581001,-1.6792 7.0368001,-3.4063 1.9629,-1.2655 2.7426,-1.7324 3.753,-2.2476 8.2218,-4.1917 17.897,-4.7211 28.3231,-1.5496 3.1351,0.9537 5.7417,2.0574 10.7898,4.5693 8.0718,4.0162 11.2976,5.0955 16.4193,5.4931 3.0508,0.2369 5.5147,0.1506 8.3268,-0.292 5.6277,-0.8856 10.6031,-2.7963 16.9105,-6.4938 3.215702,-1.8851 4.605302,-2.5995 6.464202,-3.3228 3.2018,-1.2458 5.8368,-1.7205 10.6367,-1.9159 6.5999,-0.2687 11.3296,0.5061 17.1708,2.8127 2.2247,0.8785 3.968,1.6597 7.5351,3.3762 4.9576,2.3858 6.0928,2.8991 8.3084,3.757 3.2223,1.2475 5.2672,1.7086 8.6202,1.9436 2.0284,0.142 6.8226,0.062 8.1927,-0.1379 1.8416,-0.2678 4.0983,-0.8886 7.0582,-1.9413 3.3955,-1.2077 4.7779,-1.8945 8.279,-4.1134 3.4258,-2.171 4.4313,-2.7322 6.4937,-3.624 6.0582,-2.6198 15.3932,-3.1693 22.9706,-1.3525 4.2316,1.0146 8.1158,2.6016 15.8492,6.4752 4.3365,2.1721 6.9757,3.1456 10.7898,3.9795 2.033,0.4445 5.7132,0.7638 7.6818,0.6665 5.3061,-0.2621 9.2367,-1.2163 14.6601,-3.5588 2.6452,-1.1426 4.3293,-2.0232 6.6849,-3.4955 4.6961,-2.935 9.5983,-4.6547 14.836,-5.2045 1.9287,-0.2025 5.4415,-0.2036 7.33,0 3.7768,0.4025 7.3979,1.2068 10.546,2.3422 2.8727,1.0361 4.6843,1.8437 10.6231,4.7354 6.5602,3.1942 9.4546,4.17 14.3082,4.8234 1.7046,0.2295 5.9787,0.2325 7.7664,0.01 6.274,-0.7971 11.5856,-2.7541 17.3315,-6.3859 3.8229,-2.4162 5.2459,-3.1847 7.7992,-4.212 3.4952,-1.4062 6.463,-1.9837 10.596,-2.0619 2.7535,-0.052 4.4002,0.04 7.2816,0.4075 3.2204,0.4108 5.0897,0.7884 5.8945,1.1909 6.5719,3.2868 8.0414,3.9806 10.4832,4.9489 3.0046,1.1915 5.6729,1.9032 8.8061,2.3492 1.9243,0.2739 5.246,0.2949 7.2518,0.046 3.8579,-0.4788 6.4553,-1.1519 10.2963,-2.6687 3.4919,-1.3789 5.5905,-2.4112 8.4685,-4.1663 5.448,-3.3222 8.9973,-4.6012 14.3222,-5.1613 1.8586,-0.1955 7.0007,-0.2202 8.7821,-0.042 3.7873,0.3785 7.6711,1.3492 11.5642,2.8904 2.2356,0.885 4.2079,1.7835 7.9629,3.6277 3.9056,1.9182 4.7818,2.3123 7.1656,3.2232 4.0691,1.555 6.9718,2.161 10.99,2.2944 4.1208,0.1368 7.9401,-0.4747 12.5131,-2.0037 3.0174,-1.0088 4.5332,-1.7494 7.5329,-3.6804 3.0639,-1.9725 5.5355,-3.1712 8.3586,-4.0542 3.7032,-1.1582 7.1392,-1.6158 11.3762,-1.5151 4.1,0.097 7.7421,0.7003 11.9408,1.9766 3.1207,0.9487 5.6152,2.0054 10.8116,4.5797 4.897,2.4259 7.2857,3.4609 9.8232,4.2563 4.3058,1.3495 9.6922,1.7317 14.5202,1.03 5.708,-0.8294 10.9651,-2.8235 17.3497,-6.5807 6.0017,-3.5321 8.7517,-4.5151 14.1909,-5.073 2.1983,-0.2255 7.6619,-0.2276 9.6756,0 5.5079,0.6123 9.4463,1.9492 18.2957,6.2109 9.6123,4.6291 11.6728,5.2838 17.4827,5.5557 2.7252,0.1275 6.2879,0.012 7.8498,-0.2532 2.033,-0.3459 5.2996,-1.3533 8.3855,-2.5862 2.3396,-0.9347 3.2982,-1.4383 6.0872,-3.1979 1.2191,-0.7693 2.2352,-1.3988 2.2576,-1.3988 0.023,0 0.041,10.3858 0.041,23.0797 l 0,23.0795 -2.6681,1.5363 c -3.5927,2.0686 -4.0958,2.3324 -5.5346,2.902 -3.6451,1.4433 -7.2017,2.0648 -12.3434,2.157 -3.179,0.057 -4.641,-0.027 -6.9329,-0.3964 -4.1359,-0.6673 -7.1278,-1.711 -14.7418,-5.1428 -6.9879,-3.1494 -10.4073,-4.4084 -14.3305,-5.2761 -2.8535,-0.631 -5.5063,-0.8381 -9.4661,-0.7386 -2.7155,0.068 -4.3257,0.2303 -6.2858,0.6326 -3.5547,0.7296 -6.1914,1.8779 -12.549,5.4647 -6.2084,3.5026 -6.7281,3.7486 -9.3142,4.4099 -1.6477,0.4213 -3.4051,0.7234 -5.7563,0.9895 -2.4533,0.2776 -7.6291,0.3065 -9.7929,0.054 -4.4122,-0.5138 -8.6834,-1.8771 -15.3051,-4.8853 -5.6884,-2.5843 -7.594,-3.3875 -9.9688,-4.2018 -3.2913,-1.1286 -5.9181,-1.7515 -9.346,-2.2163 -2.0504,-0.2781 -6.5771,-0.3024 -8.5393,-0.046 -4.1313,0.5399 -7.7534,1.6312 -11.0243,3.3213 -0.8386,0.4333 -2.9496,1.5968 -4.6912,2.5855 -7.1258,4.0453 -8.9553,4.7707 -13.4287,5.3239 -1.9146,0.2368 -7.5226,0.3312 -8.9512,0.1507 -2.6118,-0.33 -6.7512,-1.9393 -15.1355,-5.8841 -2.2009,-1.0356 -4.6879,-2.1753 -5.5264,-2.5325 -3.7254,-1.5875 -7.534,-2.8165 -10.6922,-3.4504 -4.2594,-0.855 -10.0301,-0.9368 -13.9367,-0.1976 -2.9063,0.5499 -6.0812,1.7145 -9.5584,3.506 -0.7418,0.3822 -2.8001,1.5176 -4.5739,2.5232 -3.8631,2.19 -4.9458,2.7503 -6.5677,3.3992 -2.0623,0.8253 -4.1761,1.2807 -7.975,1.7187 -2.1747,0.2507 -6.4808,0.2966 -8.6201,0.092 -2.5604,-0.2451 -5.338,-0.7749 -7.6453,-1.4585 -2.8631,-0.8481 -5.184,-1.7923 -10.0054,-4.0703 -2.9707,-1.4036 -3.002,-1.4156 -4.6912,-1.7933 -6.739,-1.5069 -12.139,-1.5701 -17.5411,-0.2053 -3.9213,0.9907 -6.9765,2.3411 -12.0722,5.3364 -2.73,1.6047 -4.965,2.7622 -6.8608,3.553 -1.5568,0.6493 -2.0015,0.7874 -4.398,1.3645 -3.3903,0.8166 -6.2675,1.1643 -9.6171,1.1624 -4.903,0 -8.7104,-0.6998 -13.6044,-2.4906 -1.8399,-0.6733 -3.9308,-1.5869 -8.0924,-3.5361 -4.8021,-2.2493 -7.7808,-3.3724 -11.6693,-4.3998 -1.8844,-0.4978 -3.4114,-0.7557 -5.531,-0.9339 -5.2349,-0.4403 -9.5161,-0.1883 -13.2414,0.7791 -3.19,0.8286 -5.4925,1.8934 -11.5641,5.348 -3.6244,2.0623 -5.2404,2.8793 -7.1346,3.607 -2.9984,1.1519 -5.4624,1.568 -10.0945,1.7043 -2.9143,0.086 -6.8009,0 -8.1426,-0.1767 -1.1613,-0.1542 -2.3698,-0.4134 -4.0473,-0.868 -3.2353,-0.8767 -6.1346,-1.9918 -11.1404,-4.2842 -8.3286,-3.8141 -12.8865,-5.3273 -18.1198,-6.0157 -4.0504,-0.5328 -8.6938,-0.3304 -12.5138,0.5456 -3.7124,0.8512 -6.9417,2.2719 -12.4669,5.4849 -4.1358,2.4049 -5.5179,3.1249 -7.0146,3.6542 -2.9279,1.0356 -5.5101,1.5692 -8.9942,1.8589 -1.5624,0.1299 -5.9379,0.1295 -7.33,0 -4.9026,-0.4584 -8.9144,-1.7136 -16.4779,-5.1556 -8.6977,-3.9581 -12.7284,-5.3396 -17.6507,-6.0492 -1.5982,-0.2303 -1.9192,-0.2452 -5.3362,-0.2472 -4.6695,0 -6.5442,0.198 -9.441,1.0109 -2.9883,0.8384 -5.2718,1.9049 -10.907202,5.0943 -4.0671,2.302 -6.0794,3.3579 -7.1347,3.7438 -1.9189,0.7017 -4.6232,1.2642 -7.7783,1.6181 -2.4674,0.2767 -8.0037,0.3024 -10.0676,0.047 -4.6953,-0.5816 -8.4398,-1.815 -16.1673,-5.3256 -8.5692,-3.8929 -12.282,-5.1055 -18.1698,-5.9342 -1.528,-0.2151 -2.0437,-0.2436 -4.4827,-0.2479 -3.4339,-0.01 -5.3214,0.2102 -8.4675,0.9698 -3.5044,0.8463 -5.4772,1.7271 -11.4115,5.0947 -6.6970001,3.8007 -8.7678001,4.6729 -12.3143001,5.1871 -2.31870004,0.3361 -7.1093,0.5323 -9.2729,0.3799 z"
       id="path5632"
       inkscape:connector-curvature="0" />
    <rect
       style="fill:#ffffff;fill-opacity:1;fill-rule:evenodd;stroke:none"
       id="rect5670"
       width="283"
       height="561.27124"
       x="24.892183"
       y="58.940849" />
    <path
       style="fill:#d40000"
       d="m 93.825388,535.07762 c -5.0546,-1.0389 -8.8328,-4.879 -10.097,-10.2628 -0.5508,-2.3461 -0.5404,-7.4372 0.016,-8.4648 1.3009,-2.3966 5.2878,-2.1366 7.0292,0.4584 0.7056,1.0515 0.7303,1.2308 0.4041,2.9458 -0.3999,2.1027 -0.1698,6.0712 0.4724,8.1474 0.6292,2.034 2.2064,4.9948 3.3377,6.2653 0.5378,0.6041 0.9243,1.1441 0.8587,1.1999 -0.066,0.056 -0.9757,-0.075 -2.0223,-0.2892 z m 148.845102,-0.5962 c -7.0133,-1.5047 -11.0182,-7.3965 -10.6327,-15.6423 0.1386,-2.9582 0.1716,-3.0738 1.1262,-3.9149 1.7566,-1.5478 4.3497,-1.0682 6.2012,1.1467 0.8178,0.9786 0.8933,1.2346 0.6582,2.2326 -0.4321,1.8338 -0.3184,6.4216 0.2088,8.4281 0.5463,2.0782 1.8984,4.8894 3.0023,6.2409 1.2128,1.4855 1.5723,1.9662 1.4509,1.9407 -0.064,-0.014 -0.9706,-0.2078 -2.0149,-0.4318 z m -134.4252,-9.185 c 0.5477,-0.4546 1.5075,-1.5142 2.1331,-2.3543 2.4618,-3.3073 3.566,-6.6926 3.566,-10.9335 0,-3.0411 0.2503,-3.6258 2.014,-4.7006 1.9877,-1.2115 4.9284,-0.631 5.744,1.1338 0.4751,1.0284 0.4202,3.0986 -0.155,5.8446 -1.4493,6.9192 -5.9154,11.3067 -11.894,11.6846 l -2.4039,0.1519 0.9958,-0.8265 z m 149.3174,-1.3364 c 3.3029,-3.3252 4.929,-7.2872 5.0666,-12.3454 l 0.087,-3.2104 1.0948,-0.9893 c 2.038,-1.8418 4.752,-1.9208 6.1574,-0.1792 0.6186,0.7666 0.6592,1.0814 0.5038,3.9044 -0.3755,6.8171 -3.7836,11.9017 -9.1398,13.6356 -1.0922,0.3536 -2.7133,0.643 -3.6024,0.643 l -1.6165,0 1.4488,-1.4587 z m -199.258402,-0.693 c -1.7573,-2.7928 -2.0894,-3.9785 -2.1059,-7.5208 -0.016,-3.2971 0.014,-3.4344 1.1587,-5.747 1.9004,-3.8343 6.1757,-7.9173 8.2903,-7.9173 2.1586,0 4.0593,2.9244 3.6091,5.5528 -0.1739,1.0141 -0.4854,1.3838 -2.1601,2.5623 -4.47,3.1454 -7.3029,7.645 -7.9184,12.5769 l -0.196,1.57 -0.6777,-1.0769 z m 148.338102,-1.248 c -2.5416,-4.2769 -2.6664,-8.495 -0.3853,-13.0282 1.9291,-3.8335 5.8785,-7.5231 8.0529,-7.5231 2.0007,0 3.6396,1.9676 3.6318,4.3604 0,2.0924 -0.2814,2.6289 -1.7941,3.5032 -3.6369,2.1017 -7.1341,6.9979 -7.9002,11.061 -0.5886,3.1216 -0.6686,3.2026 -1.6051,1.6267 z m -126.837602,-0.6566 c -1.737,-1.2169 -2.4491,-2.5821 -2.4384,-4.6737 0.014,-2.2117 0.9445,-4.1262 3.2588,-6.6866 l 1.4753,-1.6323 -0.7179,-0.534 c -0.8528,-0.6343 -1.0666,-0.6643 -1.0706,-0.1501 0,0.8149 -1.5474,3.5992 -2.6701,4.8246 -1.809,1.9746 -3.2759,2.6073 -6.0456,2.6082 -1.7824,0 -2.7041,-0.1669 -3.8925,-0.7075 l -1.5567,-0.7082 1.0897,-0.9206 c 0.5994,-0.5062 1.6034,-1.1832 2.231,-1.5044 1.3901,-0.7114 1.9524,-2.0927 1.9386,-4.762 -0.019,-3.484 -2.3026,-6.1625 -5.5368,-6.4915 -1.6392,-0.1669 -1.8768,-0.1054 -3.2369,0.8313 -0.8072,0.5563 -2.2085,1.7161 -3.1137,2.5774 -1.8688,1.7782 -1.9999,1.7298 -2.5674,-0.9475 -0.4772,-2.2507 -0.119,-3.7146 1.2351,-5.0569 1.4476,-1.4342 3.1332,-1.8808 6.5929,-1.7467 2.6549,0.1029 2.7264,0.086 3.3985,-0.7554 0.3777,-0.4734 0.6356,-0.8951 0.5734,-0.9371 -0.062,-0.042 -0.9542,-0.3254 -1.9818,-0.6295 -4.9874,-1.4763 -7.7867,-4.3362 -8.396,-8.5784 -0.2083,-1.4491 -0.1954,-1.4813 0.5103,-1.278 0.3981,0.1144 1.6077,0.6074 2.688,1.0949 l 1.9639,0.8863 1.5575,-0.5837 c 2.2673,-0.8495 3.668,-2.0352 4.5093,-3.817 1.5594,-3.3025 0.3613,-6.5678 -2.869,-7.8189 -0.8364,-0.324 -1.5208,-0.6906 -1.5208,-0.8147 0,-0.1245 0.7005,-0.4998 1.5568,-0.8347 2.1121,-0.8259 4.8833,-0.6256 6.8186,0.493 2.1111,1.2199 4.1557,3.9661 5.4477,7.3174 0.231,0.5992 0.5941,0.8643 1.3428,0.9804 0.5642,0.088 7.2615,0.5802 14.8826,1.095 7.621002,0.5146 14.382802,1.0049 15.026302,1.0895 1.1618,0.1527 1.1751,0.1421 1.932,-1.546 1.1827,-2.6371 4.0109,-7.2118 5.4588,-8.8299 1.8728,-2.093 3.7915,-3.1265 5.7525,-3.0985 1.8821,0.027 3.4251,0.746 6.0389,2.8145 l 1.8947,1.4995 3.2002,0.2078 c 4.1749,0.271 6.3636,0.8131 9.537,2.3624 6.1456,3.0001 10.6918,9.1829 14.774,20.0933 2.4399,6.5213 2.8344,7.8716 2.3806,8.1482 -0.2833,0.1726 -0.8618,-0.4125 -1.9327,-1.9549 -2.0118,-2.8979 -3.0851,-3.9767 -5.5224,-5.551 -1.9365,-1.2508 -4.8768,-2.6381 -5.5912,-2.6381 -0.1904,0 -0.046,0.5624 0.3297,1.29 1.0798,2.0873 2.6587,6.9213 3.3397,10.2247 0.7599,3.6867 1.1108,5.9878 0.9131,5.9878 -0.079,0 -0.8305,-0.8637 -1.6683,-1.9192 -6.8747,-8.661 -12.9155,-13.2143 -18.1,-13.6428 -2.1738,-0.1797 -5.2002,0.2891 -5.5588,0.861 -0.098,0.1561 0.1358,1.213 0.5197,2.349 1.0135,3.0022 0.9591,5.9294 -0.1522,8.1694 -0.7482,1.5079 -2.6957,3.5685 -3.3727,3.5685 -0.1317,0 -0.2404,-0.5619 -0.2404,-1.2485 0,-1.4213 -0.3485,-2.2166 -1.517,-3.4617 -1.2005,-1.2791 -2.3952,-1.7874 -4.2392,-1.8038 -2.0402,-0.018 -4.4415,1.1815 -5.8326,2.9135 -0.8889,1.1066 -0.9519,1.3487 -0.8957,3.441 l 0.06,2.2505 -1.2909,-0.2861 c -4.1769,-0.9253 -6.5247,-3.0073 -6.5247,-5.7855 l 0,-1.2476 -2.8298,1.4201 c -2.470702,1.2398 -2.806802,1.5032 -2.648802,2.0767 1.0765,3.9084 0.839,6.7936 -0.7544,9.1659 -0.8555,1.2736 -2.9121,2.9733 -4.1206,3.4056 -0.6417,0.2295 -0.6417,0.229 -0.2101,-2.0731 0.1841,-0.9823 0.2494,-2.1213 0.1451,-2.5311 -0.2785,-1.0945 -2.6262,-3.4799 -4.0609,-4.1261 -2.504,-1.128 -5.7804,-0.4096 -7.2851,1.5973 -0.8071,1.0769 -1.4157,4.3921 -1.137,6.1957 0.2064,1.3359 0.043,1.3962 -1.2737,0.4729 z m 148.547502,-0.7976 c -3.354,-2.3993 -3.0748,-6.4965 0.749,-10.9959 1.5765,-1.855 1.5887,-1.8852 0.9791,-2.4291 -0.3393,-0.3028 -0.6591,-0.4939 -0.7108,-0.4246 -0.051,0.07 -0.5478,1.0543 -1.1025,2.1889 -1.7747,3.6296 -4.7359,5.7673 -7.9885,5.7673 -1.2088,0 -5.0266,-1.1141 -5.2971,-1.5458 -0.3747,-0.5976 0.7966,-0.65 2.2541,-0.1004 3.1774,1.1973 6.4679,0.4435 8.4583,-1.9377 0.803,-0.9606 2.5279,-4.0729 2.5279,-4.5612 0,-0.08 -1.8035,-0.1452 -4.0076,-0.1452 l -4.0073,0 -0.1541,-1.3477 c -0.3718,-3.2524 -2.4224,-5.3549 -5.4903,-5.6293 -1.8555,-0.1659 -1.9334,-0.1417 -3.6468,1.134 -0.9629,0.7169 -2.2477,1.8459 -2.8551,2.5091 -0.6076,0.663 -1.2579,1.1551 -1.4449,1.0937 -0.5007,-0.1647 -1.0735,-2.2904 -1.1009,-4.086 -0.028,-1.8581 0.7996,-3.2844 2.4682,-4.2509 0.9037,-0.5236 1.697,-0.6419 4.6696,-0.6965 3.5084,-0.065 3.595,-0.083 4.2776,-0.9212 l 0.6966,-0.8554 -2.1524,-0.6482 c -2.8229,-0.8502 -4.6506,-1.9351 -6.2176,-3.6907 -1.2888,-1.4438 -2.2091,-3.6975 -2.2091,-5.4099 0,-1.046 0.3154,-1.0103 3.2174,0.3646 1.6242,0.7696 1.9364,0.8233 2.9581,0.5091 1.7723,-0.5452 2.9884,-1.2843 4.0209,-2.4442 1.2484,-1.4022 1.7388,-2.9632 1.5681,-4.9925 -0.1858,-2.2104 -1.3602,-3.6631 -3.6575,-4.5238 l -1.6832,-0.6306 1.5367,-0.7011 c 2.0201,-0.9214 4.6115,-0.9464 6.5178,-0.063 2.457,1.1387 4.9371,4.1489 6.0917,7.393 0.3684,1.0351 0.5218,1.1442 1.8266,1.2987 3.133,0.3708 24.952,1.8008 25.1093,1.6457 0.093,-0.091 1.5551,-4.1778 3.2498,-9.0809 l 3.0815,-8.9147 -2.2416,-0.3527 c -5.8653,-0.9222 -11.3694,-2.7159 -15.1738,-4.9447 -4.0241,-2.3575 -7.9891,-6.5412 -10.0668,-10.6216 -0.4454,-0.8747 -0.9624,-1.6834 -1.149,-1.7971 -0.7105,-0.4331 -3.7124,-0.1604 -4.9191,0.4468 -2.5969,1.3064 -4.4936,4.1123 -4.8819,7.2222 -0.256,2.0513 0.4769,5.4169 1.7002,7.8066 0.5303,1.0358 0.8692,1.8832 0.7532,1.8832 -0.1162,0 -0.8928,-0.4316 -1.7264,-0.9591 -3.2142,-2.0339 -6.3028,-6.5286 -7.6756,-11.17 -1.4584,-4.9304 -1.5892,-10.5621 -0.3008,-12.933 0.6262,-1.1521 0.6272,-1.1976 0.07,-3.4059 -0.3108,-1.231 -0.6598,-2.1346 -0.7755,-2.0079 -0.1162,0.127 -0.6609,1.581 -1.2114,3.2317 -2.4384,7.3103 -8.7235,11.3325 -16.994,10.8753 -3.13,-0.173 -8.3014,-1.092 -8.0853,-1.4368 0.077,-0.122 1.0192,-0.5333 2.0947,-0.9138 5.7693,-2.041 11.3101,-5.7408 13.6761,-9.1319 2.2717,-3.2562 2.8329,-7.7071 1.5017,-11.9131 -1.0152,-3.2081 -1.348,-3.7097 -4.7863,-7.2161 -12.4232,-12.6693 -16.7371,-26.4952 -14.1658,-45.4014 0.7431,-5.4639 0.6659,-7.7985 -0.3333,-10.0892 -0.8481,-1.9442 -3.1301,-4.1339 -5.3793,-5.1614 -2.3373,-1.068 -6.5025,-1.8963 -12.2531,-2.4369 -2.757,-0.2593 -6.7505,-0.8203 -8.8744,-1.2468 -4.5827,-0.9202 -10.9116,-2.5542 -11.2966,-2.9164 -0.4034,-0.3797 1.4899,-0.79 7.7463,-1.6791 9.7885,-1.3911 13.942,-2.8668 17.702,-6.289 1.9728,-1.7959 4.5874,-5.4414 5.1866,-7.232 0.1968,-0.5879 0.4181,-1.0688 0.4918,-1.0688 0.074,0 1.1489,0.8419 2.389,1.8709 6.5424,5.4287 14.2712,7.9509 24.3714,7.9539 4.7481,0 8.0301,-0.3191 12.5807,-1.2283 l 2.9362,-0.5864 2.6241,2.179 c 12.7145,10.5583 21.8125,24.2649 25.7228,38.7529 1.5798,5.8529 2.102,9.7461 2.2806,16.9997 0.093,3.7577 0.1851,6.8331 0.2059,6.8344 2.123,0.1313 5.4568,0.7249 6.741,1.2001 2.0829,0.7708 4.5773,2.7468 6.2691,4.9663 1.3498,1.7708 3.4279,5.6972 4.6167,8.7239 0.398,1.0133 0.821,1.9528 0.9398,2.088 0.1191,0.135 0.7506,-0.7631 1.4037,-1.9959 4.6906,-8.8539 10.804,-13.9099 16.8188,-13.9099 2.9481,0 4.8994,0.9619 6.2166,3.0646 0.8525,1.3612 0.9369,1.735 0.9369,4.1523 0,2.5211 -0.07,2.7963 -1.3723,5.3963 -1.1847,2.3651 -1.8554,3.2172 -4.9042,6.2303 -1.9427,1.9196 -3.5322,3.5992 -3.5322,3.7322 0,0.1328 1.4678,6.162 3.2618,13.3979 l 3.2618,13.1564 2.6195,5.5271 c 4.6662,9.8459 6.1646,14.567 6.2855,19.8055 l 0.074,3.2242 1.5726,2.917 c 1.718,3.1867 3.3666,7.1251 5.315,12.6977 1.0618,3.0361 1.1853,3.6298 0.7866,3.7807 -0.2601,0.098 -0.5153,0.1273 -0.567,0.064 -0.051,-0.063 -0.6603,-0.9474 -1.3523,-1.9655 -2.0618,-3.0325 -4.4047,-5.1083 -7.5615,-6.6995 -2.4473,-1.2335 -3.732,-1.6924 -3.732,-1.333 0,0.053 0.3331,0.7781 0.7403,1.6119 1.2212,2.5014 2.6343,7.2493 3.4416,11.564 0.4184,2.2358 0.7161,4.1088 0.6618,4.1624 -0.055,0.053 -1.3047,-1.3484 -2.7786,-3.1154 -4.9147,-5.8928 -9.2927,-9.714 -13.0967,-11.4313 -2.7739,-1.2523 -7.6178,-1.3481 -9.4359,-0.1866 -0.2944,0.1882 -0.2335,0.6333 0.2627,1.9193 0.9344,2.4218 1.1165,5.6297 0.4346,7.6545 -0.544,1.6148 -3.0384,4.6134 -3.8377,4.6134 -0.2333,0 -0.3686,-0.547 -0.3686,-1.4898 0,-2.3798 -1.7158,-4.3973 -4.2277,-4.9711 -2.4466,-0.5588 -4.9204,0.386 -6.9424,2.6511 l -1.2818,1.436 0.1988,2.1082 0.1987,2.1081 -0.8115,0 c -1.3384,0 -4.0696,-1.1622 -5.4301,-2.3104 -1.3997,-1.1816 -2.0839,-2.7132 -1.7674,-3.957 0.1754,-0.6889 0.1219,-0.7729 -0.3753,-0.5959 -0.4203,0.1495 -4.4297,2.1916 -5.3167,2.7079 -0.036,0.022 0.1386,0.7105 0.3892,1.5316 0.9288,3.0434 0.4173,6.4741 -1.2952,8.6881 -0.9057,1.1711 -3.1068,2.8405 -3.745,2.8405 -0.5058,0 -0.5472,-1.2266 -0.095,-2.8299 0.401,-1.4233 -0.3303,-3.0203 -2.0742,-4.5304 -1.5242,-1.3196 -2.8757,-1.8517 -4.7018,-1.8512 -1.8357,0 -3.3447,0.7291 -4.5219,2.1826 -0.8105,1.001 -0.9183,1.4122 -1.1119,4.2457 l -0.2146,3.1374 -1.2707,-0.9092 z m -57.726,-34.9294 c -5.7467,-1.3107 -9.5081,-2.7339 -12.8955,-4.8795 -2.3759,-1.5048 -6.3326,-5.2438 -8.2677,-7.8128 -1.4062,-1.8667 -1.6971,-2.0862 -3.6548,-2.7583 -1.1698,-0.4016 -3.8693,-1.5443 -5.9988,-2.5393 -9.4287,-4.4055 -15.617,-10.1136 -18.4031,-16.9753 -1.6125,-3.9711 -1.9429,-6.1425 -1.7317,-11.3827 0.1021,-2.5332 0.271,-5.1241 0.3754,-5.7573 l 0.19,-1.1516 -2.603,0.013 c -7.4661,0.031 -12.5251,2.9983 -15.2949,8.9709 -0.4503,0.971 -0.8949,1.7656 -0.9877,1.7656 -0.3208,0 -2.306002,-4.1868 -2.833002,-5.9737 -0.384,-1.3028 -0.4932,-2.5546 -0.4,-4.5876 0.1853,-4.0497 1.2723,-6.105 5.387602,-10.1878 1.7148,-1.7012 3.6081,-3.4466 4.2075,-3.879 l 1.0899,-0.7861 -2.694,-2.7576 c -4.2119,-4.3113 -5.8691,-7.7765 -5.8691,-12.2718 0,-2.7261 0.5288,-4.9066 2.071,-8.5393 l 1.1342,-2.672 1.4088,2.6833 c 3.5545,6.7708 8.761,9.4089 14.9253,7.5624 4.7331,-1.4176 10.1586,-6.2135 15.0052,-13.2637 6.9538,-10.1158 11.4841,-14.5876 17.5523,-17.3254 4.6744,-2.1089 9.7522,-2.5788 14.8506,-1.3741 2.4261,0.5732 9.03,3.3707 9.03,3.8253 0,0.1067 -0.435,0.8172 -0.9666,1.5793 -1.6471,2.3607 -2.2331,4.4782 -2.0692,7.4764 0.1772,3.2437 1.0307,5.5308 3.015,8.08 1.6801,2.1581 4.9823,4.5475 7.3383,5.3097 0.8563,0.277 1.657,0.5922 1.7794,0.7005 0.342,0.3028 -1.0676,4.4636 -2.6124,7.7112 -2.9285,6.1561 -6.5687,11.5098 -17.2247,25.3328 -3.385,4.391 -6.3556,8.2834 -6.6011,8.65 -0.518,0.773 -0.3133,1.1533 3.4334,6.3791 4.4579,6.2175 5.812,9.4893 5.812,14.0432 0,3.2997 -0.861,6.1614 -2.875,9.5545 -1.1495,1.9366 -1.313,2.4423 -1.3112,4.0549 0,2.771 1.0755,4.4365 6.18,9.5956 2.3812,2.4067 4.2026,4.3661 4.048,4.3543 -0.1546,-0.013 -1.7478,-0.3559 -3.5404,-0.7647 z m -124.874902,-2.7282 c 0,-0.1028 0.4245,-1.0171 0.9433,-2.0305 1.7338,-3.3871 4.3848,-5.5978 7.911,-6.5974 3.725,-1.0559 10.8886,0.027 12.6901,1.9176 0.5432,0.5701 0.7195,1.1125 0.7195,2.2131 0,1.8061 -1.0722,3.3347 -2.9133,4.1534 -1.2586,0.5596 -1.2683,0.559 -3.2225,-0.2361 -2.8798,-1.1716 -4.4782,-1.5037 -7.1918,-1.4947 -3.2382,0.013 -5.5334,0.5771 -8.7027,2.1469 -0.1289,0.063 -0.2336,0.031 -0.2336,-0.072 z m 148.949402,-1.1686 c 0.6964,-2.7359 3.6066,-5.9568 6.6795,-7.3924 1.9833,-0.9265 2.2715,-0.9748 5.8232,-0.9748 3.0971,0 4.1247,0.1257 6.005,0.7328 2.7882,0.901 3.4921,1.6606 3.4921,3.7693 0,1.3636 -0.1247,1.6252 -1.359,2.842 -1.763,1.7386 -2.716,1.9402 -4.7155,0.998 -4.4461,-2.0956 -10.3356,-2.0891 -14.5948,0.017 l -1.5192,0.7509 0.1887,-0.7418 z m -11.9137,-88.392 c -2.6753,-1.3184 -5.0985,-3.7329 -6.3396,-6.3166 -0.9146,-1.9042 -1.0049,-2.3553 -1.0011,-5.0097 0,-3.3758 0.3749,-4.2962 2.9067,-7.2218 l 1.5419,-1.7819 -4.271,-4.9403 c -2.349,-2.7173 -4.3731,-5.1101 -4.4981,-5.3177 -0.1245,-0.2075 0.655,0.015 1.7333,0.4949 1.0782,0.4797 4.0623,1.807 6.6312,2.9496 2.5689,1.1425 4.7756,2.1702 4.9038,2.2836 0.1289,0.113 0.014,1.7887 -0.2678,3.7225 -0.843,5.9167 -0.3146,17.4917 0.9823,21.5215 0.2509,0.7791 -0.067,0.7264 -2.3216,-0.3841 z m 95.377,0.1921 c -3.401,-0.7295 -6.9836,-2.9552 -10.369,-6.4417 l -1.9961,-2.0558 -1.2733,0.3538 c -0.7004,0.1946 -3.4731,0.4309 -6.1615,0.5254 l -4.8882,0.1717 -0.2043,-0.8844 c -0.3395,-1.4696 -1.0973,-4.5389 -1.2419,-5.0299 -0.1163,-0.3961 0.5793,-0.4605 4.972,-0.4605 2.8093,0 5.1915,-0.082 5.2941,-0.1832 0.102,-0.1002 -0.027,-0.6835 -0.285,-1.2951 -0.5675,-1.3396 -0.6042,-3.9576 -0.1107,-7.8912 0.2016,-1.6065 0.2772,-3.273 0.1676,-3.703 -0.5537,-2.1757 -2.7359,-3.9799 -6.5004,-5.3742 -1.9656,-0.7281 -1.9664,-0.7288 -0.5668,-0.5641 5.5869,0.6577 9.5395,2.2308 12.2027,4.8571 1.7213,1.6975 3.2832,4.2333 3.9893,6.4772 0.2126,0.6755 0.4867,1.3368 0.6091,1.4694 0.1218,0.1327 0.7009,-0.7655 1.2858,-1.9959 1.0361,-2.1801 1.0627,-2.335 1.0487,-6.0754 -0.016,-4.5766 -0.4802,-6.0203 -3.1846,-9.9329 -0.9518,-1.3767 -2.3965,-3.4704 -3.2106,-4.6525 -4.1269,-5.9921 -6.9064,-13.778 -7.7553,-21.7232 -1.12,-10.4835 1.4102,-24.88 6.1738,-35.1298 4.8399,-10.4137 11.316,-26.5623 10.8405,-27.0312 -0.094,-0.093 -0.9218,0.5727 -1.8394,1.4788 -1.2625,1.2471 -2.2026,2.6859 -3.8646,5.9162 -2.5025,4.8638 -2.3358,4.9072 -2.8753,-0.7492 -0.4138,-4.3394 0.1661,-7.009 1.9848,-9.1361 0.4755,-0.5559 0.812,-1.0601 0.7479,-1.1204 -0.3421,-0.3211 -3.6141,1.2815 -4.5988,2.2526 -2.9055,2.865 -3.3805,6.8175 -1.5909,13.2361 3.3683,12.0811 -0.4071,19.9209 -11.8314,24.5687 -3.4926,1.4209 -7.5419,2.7944 -7.7203,2.6185 -0.087,-0.085 0.8971,-1.2435 2.1858,-2.5736 5.4859,-5.6624 6.6408,-11.939 4.416,-23.9996 -1.4995,-8.1281 -1.0307,-14.7912 1.3453,-19.1213 4.1796,-7.6175 14.5043,-9.7201 25.0013,-5.0915 1.2033,0.5305 2.2341,0.91 2.291,0.8436 0.1971,-0.2308 2.3407,-8.4299 3.144,-12.0259 2.473,-11.0695 3.4141,-19.848 3.1843,-29.7021 -0.1438,-6.1684 -0.2853,-7.7619 -0.9737,-10.9757 -1.2443,-5.8101 -2.7066,-9.1979 -5.0953,-11.8052 -2.2741,-2.4822 -4.5792,-2.7399 -7.0016,-0.7824 -2.9281,2.3661 -3.8194,5.471 -3.4918,12.1645 l 0.2197,4.4898 -1.7324,-2.1494 c -0.9528,-1.1822 -2.2641,-3.1168 -2.9138,-4.2989 -1.124,-2.0448 -1.1817,-2.287 -1.1817,-4.9713 l 0,-2.8216 -0.6597,0.6112 c -2.017,1.8685 -3.001,5.5021 -2.2055,8.1436 0.8152,2.7074 1.7394,4.0839 5.0674,7.5488 3.4809,3.624 5.6366,6.7113 6.7227,9.6281 0.9108,2.4464 0.979,7.1922 0.1385,9.6504 -0.8404,2.4588 -2.6135,5.7003 -4.3669,7.9837 -2.0728,2.6989 -5.552,6.7819 -5.6753,6.6601 -0.055,-0.054 0.1865,-1.0567 0.5367,-2.2279 0.8966,-2.998 1.126,-7.74 0.4921,-10.173 -1.039,-3.9877 -3.7333,-8.5771 -7.8964,-13.4507 -4.6499,-5.4438 -7.283,-9.7994 -8.353,-13.8179 -0.578,-2.1706 -0.6483,-6.2994 -0.14,-8.1856 1.4824,-5.4957 7.179,-10.3175 14.4704,-12.2481 4.949,-1.3103 12.0783,-1.1587 16.8641,0.3586 6.197,1.9648 10.4912,8.6596 12.5813,19.6146 0.8536,4.4741 1.1812,16.2997 0.623,22.4856 -0.7594,8.4129 -2.7336,19.0897 -5.1698,27.958 -0.5928,2.1579 -1.0778,4.0481 -1.0778,4.2004 0,0.1522 0.7356,0.4287 1.6348,0.6143 2.3552,0.4865 6.5465,2.2521 8.8322,3.7206 2.4447,1.5707 5.768,5.0027 6.8123,7.0349 2.2906,4.4575 2.2436,8.9837 -0.146,14.0465 -1.5389,3.2608 -2.6983,4.6463 -9.1906,10.9838 -7.591,7.4101 -9.7401,10.3487 -10.9498,14.974 -0.3985,1.5229 -0.4604,2.7619 -0.3029,6.0597 l 0.1977,4.1454 -1.6069,-2.4565 c -2.5056,-3.8309 -5.0918,-9.0278 -5.7399,-11.5345 -2.0017,-7.7416 1.0061,-14.267 9.3639,-20.3151 4.6217,-3.3445 6.5763,-6.5755 6.3071,-10.4253 -0.1036,-1.4805 -0.3725,-2.4354 -0.9687,-3.4385 -0.4539,-0.7641 -0.9413,-1.4597 -1.083,-1.546 -0.1416,-0.086 -0.2654,0.6634 -0.275,1.6659 -0.027,2.7812 -1.2699,5.0915 -4.5942,8.5363 -1.5056,1.5601 -2.7958,2.7786 -2.8674,2.7082 -0.071,-0.071 0.2283,-1.9408 0.6662,-4.1558 0.7832,-3.9605 0.9648,-7.1165 0.4967,-8.6292 -0.1747,-0.5654 -0.2864,-0.6464 -0.423,-0.3072 -0.1021,0.2534 -0.8918,2.3731 -1.7551,4.7106 -2.1429,5.8021 -4.8201,12.2962 -7.4887,18.1657 -4.0662,8.9428 -5.0126,11.7146 -6.3894,18.7091 -3.1571,16.0404 -0.6719,28.23 8.0854,39.658 l 0.9605,1.2537 1.0819,-1.8266 c 1.2518,-2.1134 3.5696,-4.3111 5.8108,-5.51 1.5535,-0.831 6.8508,-2.3945 8.0461,-2.3749 0.3426,0 -0.3768,0.473 -1.5985,1.0383 -2.854,1.3209 -4.5651,2.9853 -5.0595,4.9217 -0.3213,1.2582 -0.2796,1.9209 0.2977,4.7314 1.1974,5.8286 0.4219,8.708 -2.7759,10.3059 -1.3637,0.6815 -1.4919,0.8366 -1.3699,1.6562 0.1259,0.8473 -0.3091,4.27 -0.7395,5.8148 -0.1894,0.68 -0.1473,0.691 2.6563,0.691 1.7275,0 3.2564,-0.168 3.8845,-0.4268 2.0313,-0.837 3.259,-2.7367 4.2396,-6.561 l 0.6097,-2.3776 -0.1601,3.5243 c -0.185,4.0824 -0.7468,6.5178 -2.0695,8.9727 -1.6675,3.0951 -4.3642,5.3717 -8.4248,7.1124 -2.206,0.9455 -2.3098,1.0337 -1.8814,1.5963 0.2495,0.3276 0.878,1.4247 1.3968,2.4381 1.3701,2.6759 2.349,3.8308 3.7965,4.4791 1.7435,0.7807 3.7543,0.7306 6.6414,-0.1651 2.9218,-0.9068 2.4198,-0.4283 -1.6231,1.5466 -2.7133,1.3253 -6.1748,2.2861 -8.0958,2.2468 -0.5139,-0.013 -1.7905,-0.2027 -2.8371,-0.4273 z m -188.455302,-0.048 c 0.068,-0.1443 0.6403,-1.2822 1.2687,-2.5288 0.6285,-1.2463 1.3058,-3.041 1.5052,-3.9883 0.5047,-2.3973 0.2022,-7.432 -0.5755,-9.5763 -0.5635,-1.5535 -0.5771,-1.787 -0.1523,-2.6101 1.5206,-2.946 4.5576,-3.9686 6.5338,-2.1999 1.3832,1.2382 2.223602,6.2892 1.6474,9.9011 -0.7088,4.4405 -3.3853,8.2587 -6.9775,9.953 -2.1708,1.0239 -3.4334,1.4317 -3.2498,1.0493 z m -18.1706,-4.3851 c -2.2067,-0.8509 -3.5028,-1.7364 -5.1136,-3.494 -2.2705,-2.4776 -4.4813,-7.6687 -4.4813,-10.5231 0,-2.1462 2.5462,-3.65 4.9682,-2.9344 1.9635,0.5801 3.1278,1.7244 3.1278,3.0739 0,4.4114 3.6697,10.7204 7.712,13.2582 1.6453,1.0328 1.3062,1.2163 -2.2105,1.1964 -1.6973,-0.013 -3.0287,-0.2014 -4.0026,-0.577 z m 15.8272,-9.5503 c -0.4893,-0.1447 -1.1693,-0.5123 -1.5109,-0.8173 -1.2365,-1.1035 -1.4915,-2.0741 -1.4933,-5.6838 0,-1.9084 -0.157,-4.0225 -0.3468,-4.698 -0.1898,-0.6756 -1.4151,-3.0555 -2.7228,-5.2888 l -2.3779,-4.0606 -0.1978,1.1435 c -0.1092,0.6288 -0.2962,2.8764 -0.4167,4.9944 -0.1832,3.219 -0.1317,4.1149 0.3146,5.4602 0.9498,2.8635 -0.099,5.4188 -2.8449,6.9323 -2.9744,1.6394 -3.1094,1.5528 -3.5449,-2.2721 -0.2484,-2.1809 -0.3304,-2.3627 -1.5463,-3.4295 -3.0177,-2.6472 -6.8777,-2.738 -9.3558,-0.2201 -0.9854,1.0015 -1.7577,2.559 -1.6571,3.3426 0.014,0.084 0.1092,0.7407 0.2186,1.4585 0.2399,1.5728 -0.031,1.6328 -1.526,0.3383 -3.3025,-2.8594 -2.7226,-6.7258 1.7172,-11.4476 2.3568,-2.5066 2.6473,-2.951 3.2865,-5.0281 0.4336,-1.4087 0.6067,-3.4379 0.2933,-3.4379 -0.087,0 -2.3432,1.8269 -5.015,4.0597 -4.3281,3.6171 -4.9556,4.2637 -5.7534,5.9291 -0.4927,1.028 -1.2347,2.1833 -1.6491,2.5673 -1.0354,0.9591 -2.9157,1.1661 -4.378,0.4817 -1.3705,-0.6412 -3.9419,-3.1873 -5.0204,-4.971 l -0.7654,-1.2657 1.7219,-0.38 c 1.6956,-0.3741 1.7365,-0.4093 2.6817,-2.3025 1.7341,-3.4736 1.0907,-7.1811 -1.5505,-8.9355 -1.6216,-1.0771 -2.977,-1.2001 -5.2372,-0.4755 l -1.9677,0.6308 0,-1.7021 c 0,-2.3753 0.5565,-3.9553 1.7598,-4.9972 1.2879,-1.1151 2.7936,-1.4064 4.8742,-0.9431 2.2609,0.5033 8.8699,0.9797 12.1536,0.8761 l 2.7512,-0.086 -5.7094,-2.3863 c -3.1402,-1.3124 -5.9993,-2.3833 -6.3534,-2.3796 -1.4446,0.014 -4.0284,-1.0086 -5.0223,-1.9888 -1.1459,-1.13 -1.3198,-2.2554 -0.6064,-3.9256 0.479,-1.1213 3.2048,-4.5192 3.6253,-4.5192 0.1521,0 1.1089,0.7598 2.1263,1.6887 1.8065,1.6493 1.8926,1.6887 3.6765,1.6859 3.6143,0 6.6706,-2.3068 7.1369,-5.373 0.2311,-1.5206 -0.2595,-3.3562 -1.1573,-4.3293 l -0.5968,-0.6471 1.9585,-0.5523 c 3.9749,-1.1212 6.8845,-0.6098 8.4651,1.4876 0.5835,0.7742 0.6472,1.2289 0.5812,4.1454 -0.04,1.8017 0.09,3.8976 0.2893,4.6575 1.5235,5.7937 7.1444,6.6789 15.5085,2.4422 3.4565,-1.7509 3.0469,-1.1538 4.2027,-6.1269 1.035,-4.454 3.3095,-10.6409 5.5874,-15.1996 3.5107,-7.0259 6.4168,-11.0262 9.358102,-12.8816 1.901,-1.199 4.2066,-2.4001 4.2066,-2.1911 0,0.076 -0.2794,1.7722 -0.6211,3.7677 -0.7396,4.3211 -0.8188,10.0953 -0.1832,13.371 0.6224,3.2082 2.1319,6.8742 3.9803,9.6664 1.5417,2.3289 6.9446,8.0731 7.5937,8.0731 0.178,0 1.0642,-2.1072 1.969,-4.6828 0.9049,-2.5754 2.1443,-5.6795 2.7545,-6.8978 1.2103,-2.4166 4.129,-5.7864 6.3957,-7.3839 l 1.4208,-1.0015 0.531,2.3533 c 0.3987,1.7677 0.4887,3.1633 0.3615,5.6074 -0.1991,3.8238 -0.8853,6.2236 -3.0377,10.6236 -2.2514,4.6025 -2.6246,6.1053 -2.6313,10.5936 0,3.6708 0.3234,5.4858 1.5794,8.7136 0.1036,0.2643 -0.064,0.5172 -0.4173,0.6274 -0.9786,0.3062 -2.6195,2.0896 -3.2453,3.5271 -0.324,0.7441 -0.6683,2.1261 -0.7651,3.0706 l -0.1758,1.7175 -1.486,-1.388 c -2.4759,-2.3126 -6.6634,-3.9858 -9.9752,-3.9858 -2.0672,0 -4.8902,0.8013 -6.8077,1.9323 -1.5495,0.9138 -5.647502,4.8782 -5.647502,5.4633 0,0.1421 0.8758,0.8439 1.9461,1.5597 4.300302,2.8758 6.149902,5.2172 6.149902,7.7854 0,1.2444 -0.1604,1.5793 -1.3526,2.8235 -0.744,0.7765 -1.4945,1.3251 -1.6681,1.2193 -0.1735,-0.1053 -0.4951,-1.0266 -0.7146,-2.0462 -0.3234,-1.5028 -0.6235,-2.0542 -1.583702,-2.9097 -3.4203,-3.047 -8.5942,-1.3567 -10.4406,3.4109 -0.4701,1.2141 -0.4617,1.3754 0.1582,3.0092 0.3602,0.9494 0.655,1.8593 0.655,2.0219 0,0.356 -1.6802,0.3443 -2.9138,-0.021 z m -58.5581,-8.5978 c -1.016,-3.3737 -0.4414,-7.5939 1.4294,-10.4997 1.995,-3.0985 7.1482,-6.701 10.295,-7.197 2.3915,-0.3768 4.1515,2.0634 3.6211,5.0206 -0.3275,1.8262 -1.0449,2.7611 -2.296,2.9925 -0.5843,0.108 -2.2239,0.7665 -3.6438,1.4631 -3.3816,1.6591 -6.2759,4.4833 -7.8198,7.6309 l -1.0927,2.2276 -0.4932,-1.638 z m 103.718902,-13.1899 c -7.03,-7.4881 -8.3192,-15.6744 -3.8511,-24.4549 2.173,-4.2702 3.055,-7.3616 3.2492,-11.3878 0.1036,-2.157 0.023,-4.1637 -0.2177,-5.3736 -0.4847,-2.4395 -1.5817,-5.7693 -1.9007,-5.7693 -0.1331,0 -1.367,0.7635 -2.7411,1.6969 -5.0331,3.419 -8.0767,7.696 -10.3556,14.552 -0.566,1.7029 -1.1244,3.096 -1.2408,3.096 -0.4072,0 -3.8273,-3.8544 -4.9806,-5.6131 -4.3818,-6.6816 -5.1815,-15.0904 -2.4743,-26.0144 1.1061,-4.4638 1.4164,-4.1761 -2.3998,-2.2265 -7.825202,3.9976 -14.298202,8.8448 -21.937002,16.4265 l -5.2012,5.1626 -0.309,-1.1604 c -1.4872,-5.5869 -1.8874,-13.9819 -0.8761,-18.3716 2.3991,-10.4125 9.3613,-18.1135 21.4841,-23.7641 2.092302,-0.9751 5.087402,-2.2332 6.655702,-2.7954 l 2.8512,-1.0221 0.3821,-2.4756 c 1.3163,-8.5302 5.1458,-15.8388 11.8326,-22.5828 l 2.278,-2.2974 0.3544,1.5298 c 0.5435,2.3476 1.3662,3.7813 3.2549,5.6727 1.7934,1.7962 6.4939,5.0133 9.2016,6.2981 1.9134,0.9077 9.3564,2.3975 15.4137,3.0852 5.4228,0.6156 15.8052,0.4771 19.7729,-0.2638 8.627,-1.611 15.381,-4.2623 23.4051,-9.1878 l 3.5067,-2.1526 -0.4718,-0.8998 c -0.5655,-1.0783 -0.3249,-1.1333 -5.8194,1.3345 -11.1182,4.9939 -16.2624,6.3411 -22.9207,6.0025 -4.8567,-0.247 -12.1423,-2.468 -11.7027,-3.5675 1.799,-4.4981 2.6066,-6.9813 2.7918,-8.5829 l 0.225,-1.9488 0.8689,1.4883 c 1.3605,2.3302 2.3352,3.0421 4.9793,3.6354 2.9599,0.6644 8.6955,0.6866 11.693,0.045 4.6711,-0.9993 9.356,-3.2151 12.4391,-5.8833 l 1.557,-1.3474 -1.7126,-1.7225 c -1.2062,-1.2132 -2.5412,-2.1262 -4.515,-3.0879 -6.7709,-3.2991 -13.5017,-3.6837 -23.0424,-1.317 -10.0311,2.4885 -15.5791,3.188 -23.2914,2.9367 -9.1587,-0.2982 -15.31,-2.1574 -20.5363,-6.2072 -2.9147,-2.2583 -5.2594,-5.9334 -6.1465,-9.6336 -0.5186,-2.1628 -0.5293,-6.7704 -0.021,-9.0932 0.8447,-3.863 3.2487,-6.7703 6.3484,-7.678 9.5558,-2.7984 20.8294,6.1975 19.5085,15.5675 -0.1358,0.9615 -0.3416,1.9003 -0.4581,2.086 -0.1289,0.2056 -0.7133,-0.2244 -1.4943,-1.0995 -1.4957,-1.6757 -2.7505,-2.2743 -4.7669,-2.2743 -3.7614,0 -5.9114,3.7014 -4.1396,7.1265 0.9618,1.8591 3.4335,4.0764 5.7691,5.1756 3.6155,1.7017 7.1373,2.2163 13.9707,2.042 3.6266,-0.093 7.014,-0.3544 8.7526,-0.6766 l 2.8363,-0.5258 -0.7315,-0.7782 c -0.7846,-0.8348 -1.3555,-2.4603 -1.3583,-3.8665 0,-0.6857 -0.5158,-1.3449 -2.4456,-3.1353 -2.6468,-2.4552 -5.1685,-5.8095 -6.2636,-8.3308 -0.62,-1.4277 -0.8578,-1.6549 -2.3622,-2.2571 -2.798,-1.1198 -2.9064,-1.7419 -0.6882,-3.9512 2.5756,-2.5652 8.4301,-5.8562 18.9401,-10.6468 2.8113,-1.2814 5.1632,-2.3807 5.2262,-2.4429 0.063,-0.062 -0.1949,-0.5418 -0.5732,-1.0657 -4.7489,-6.5766 17.2158,-16.1418 33.1996,-14.4577 5.8109,0.6122 11.1994,2.353 14.5358,4.6956 l 0.9107,0.6396 2.446,-0.8143 c 2.8029,-0.9329 6.0808,-1.0884 7.822,-0.371 0.5915,0.2437 1.5706,0.9835 2.1756,1.6439 2.1999,2.4012 2.2331,5.9203 0.087,9.253 -0.5906,0.9171 -1.0157,1.725 -0.9447,1.795 0.071,0.07 1.1127,-0.093 2.3146,-0.3625 2.7671,-0.6206 6.0585,-0.6272 7.8784,-0.015 1.5432,0.5185 3.1322,1.8758 3.9159,3.3452 0.753,1.4115 0.8808,5.7068 0.2423,8.1558 -1.1152,4.2797 -5.4806,11.9043 -9.243,16.1441 -0.8829,0.995 -1.861,2.364 -2.1734,3.0423 -0.7266,1.5773 -0.7264,3.9626 0,5.5321 1.1755,2.5381 5.077,5.1403 8.375,5.5861 l 1.4198,0.192 -0.6985,0.5577 c -0.3844,0.3069 -1.213,0.6987 -1.8414,0.8709 -3.131,0.8575 -6.058,-0.099 -8.9976,-2.9419 -1.1161,-1.0789 -2.1306,-1.9617 -2.2546,-1.9617 -0.1247,0 -0.4737,0.2702 -0.7767,0.6006 -0.6119,0.6667 -0.7351,0.3987 1.4372,3.1221 1.3609,1.706 2.7586,4.7265 3.1179,6.7381 0.2857,1.5993 0.2295,2.5275 -0.3658,6.046 -0.4893,2.8915 -0.6498,4.7901 -0.5265,6.2382 0.3696,4.3483 3.0448,7.6986 7.1223,8.9199 l 2.1629,0.6479 -1.0502,0.7037 c -4.1913,2.8088 -11.078,3.5872 -16.143,1.8249 -0.7121,-0.2477 -1.4036,-0.4504 -1.5365,-0.4504 -0.2211,0 -1.0316,1.891 -0.8491,1.9811 0.043,0.022 0.8497,0.3791 1.7912,0.7947 5.2043,2.2966 6.5985,7.2976 4.0207,14.4197 -0.9347,2.5825 -1.0554,3.2694 -1.0516,5.9877 0,2.8021 0.091,3.2513 0.9887,5.1351 0.5414,1.1355 1.6561,2.7725 2.4769,3.6379 1.4372,1.5151 1.4696,1.5895 0.8821,2.0132 -1.3797,0.9949 -5.4114,1.9569 -8.2009,1.9569 -4.6603,0 -7.7998,-1.1671 -12.7309,-4.7332 l -2.6986,-1.9516 -0.5616,0.7041 c -0.3089,0.3872 -0.5557,0.8204 -0.5487,0.9626 0.014,0.24 1.5286,1.424 4.9693,3.879 1.6905,1.2063 3.8476,4.2715 4.5417,6.454 0.3545,1.1145 0.5811,3.5336 0.7535,8.0423 0.2783,7.2741 0.5751,8.7655 2.5378,12.7432 1.0102,2.0472 1.8071,3.1174 3.6957,4.9627 l 2.4079,2.3527 -1.2857,0.3178 c -6.482,1.6028 -16.5207,2.3412 -21.6909,1.5958 -5.1068,-0.7364 -10.4016,-2.6464 -14.2179,-5.129 -0.9946,-0.6471 -3.0316,-2.3346 -4.5262,-3.7502 l -2.718,-2.5741 -0.3241,0.8407 c -1.882,4.8812 -3.1228,7.0388 -5.3534,9.3085 -3.6061,3.6694 -6.9087,4.8865 -17.2226,6.3463 -6.6469,0.9408 -9.037,1.5899 -12.6949,3.448 -4.3863,2.228 -7.2726,5.7214 -7.9474,9.6185 -0.1261,0.7283 -0.3826,1.3748 -0.57,1.4364 -0.1874,0.061 -1.1264,-0.7248 -2.0867,-1.7476 z m 61.8681,-123.7514 c 0.8722,-1.7827 0.9765,-2.291 0.9765,-4.7595 0,-2.3691 -0.1218,-3.0193 -0.8512,-4.5554 -1.1332,-2.3855 -2.3976,-3.9081 -4.6894,-5.6471 -2.3828,-1.808 -4.1814,-2.2183 -9.7615,-2.2271 -7.8838,-0.013 -13.6126,1.9921 -18.6476,6.5248 -2.271,2.0443 -3.1542,3.8092 -2.8103,5.6164 l 0.213,1.1199 1.4274,-0.2112 c 0.7849,-0.1156 2.9126,-0.6485 4.7283,-1.1833 3.0536,-0.8994 3.6278,-0.9704 7.6604,-0.9469 3.8089,0.022 4.7114,0.1308 7.1466,0.8608 5.0295,1.508 9.0162,3.9376 11.5523,7.0405 1.4082,1.723 1.4158,1.7189 3.0555,-1.6319 z m -11.7216,-32.8378 c 1.9164,-0.1678 2.3149,-0.261 1.3327,-0.312 -3.3391,-0.1728 -4.9289,0.1956 -5.9188,1.3718 -0.3062,0.3638 -0.1077,0.3198 0.714,-0.1581 0.7925,-0.4613 1.9686,-0.7351 3.8721,-0.9017 z m -1.2851,-1.0728 c 2.5025,-0.8724 6.371,-1.3852 10.7138,-1.4206 4.2973,-0.035 4.4735,-0.1891 2.0296,-1.7734 -4.0025,-2.595 -8.4928,-4.071 -12.2111,-4.0142 -1.6408,0.026 -1.7151,0.053 -0.8087,0.3123 1.3631,0.3887 1.9601,1.3441 1.9601,3.1368 0,1.2939 -0.1441,1.6399 -1.0588,2.5418 -1.6967,1.6731 -3.8881,1.2415 -4.5127,-0.889 l -0.2886,-0.9841 -0.028,1.0078 c -0.042,1.5313 0.7799,3.2503 1.4504,3.0309 0.3001,-0.098 1.5395,-0.5249 2.7543,-0.9483 z m -1.3008,-3.7479 c 0.2897,-0.7441 -0.1106,-1.6944 -0.6676,-1.5862 -0.6652,0.1292 -1.159,0.9793 -0.9223,1.5877 0.2532,0.6508 1.3366,0.6498 1.5899,0 z m -2.7436,-0.6411 c -0.1037,-0.1017 -0.1772,0.079 -0.1637,0.403 0.015,0.3576 0.089,0.4304 0.1882,0.1855 0.09,-0.2217 0.078,-0.4866 -0.024,-0.5885 z m 1.9202,-2.3675 0.8498,-0.4547 -0.8484,-0.013 c -0.6311,-0.013 -0.9699,0.2198 -1.3233,0.8936 -0.6108,1.1647 -0.6004,1.9773 0.014,0.8662 0.2536,-0.4609 0.8435,-1.0426 1.3109,-1.2928 z M 47.670088,330.12532 c -4.0285,-3.5925 -9.0558,-5.2784 -13.8333,-4.6391 l -1.7856,0.2389 0.732,-0.9465 c 1.0862,-1.4049 3.5549,-3.1654 5.4951,-3.9191 2.201,-0.855 5.9503,-0.9078 8.4073,-0.1182 2.2613,0.7267 5.1162,2.3135 6.8505,3.8077 1.2755,1.099 1.4011,1.3325 1.4011,2.6025 0,2.3954 -2.0295,4.2165 -4.6707,4.1907 -1.0026,-0.013 -1.5091,-0.2471 -2.5964,-1.2168 z m 34.9616,-51.4977 c -2.8427,-3.2677 -4.9521,-6.2515 -6.3589,-8.9943 -1.7877,-3.4856 -2.1855,-5.1413 -2.1855,-9.0968 0,-5.433 -0.8334,-8.2081 -2.9413,-9.7934 -1.3432,-1.0104 -3.543,-1.6808 -5.515,-1.6808 l -1.5069,0 1.0538,-1.4586 c 3.8312,-5.3018 3.9946,-12.3597 0.3977,-17.1661 -1.5749,-2.1045 -5.097,-5.0192 -6.065,-5.0192 -0.1514,0 -0.5416,0.5861 -0.8673,1.3025 -0.9128,2.0071 -3.3322,5.5243 -4.4225,6.4291 -2.2328,1.8527 -4.2178,1.7811 -6.3675,-0.2298 -0.6422,-0.6006 -1.1677,-1.1307 -1.1677,-1.1777 0,-0.047 0.9567,-0.4559 2.1257,-0.9082 2.3769,-0.9197 3.2594,-1.8328 3.8399,-3.9736 0.8023,-2.9576 -1.3087,-6.3217 -4.8448,-7.7211 l -1.8374,-0.7273 -1.7821,0.8931 c -0.9802,0.4911 -1.8855,0.8931 -2.0121,0.8931 -0.1261,0 -0.1754,-0.9572 -0.1079,-2.1269 0.1928,-3.3659 1.2194,-4.0958 6.556,-4.6615 1.7606,-0.1867 3.648,-0.5215 4.1943,-0.744 0.8826,-0.3596 8.5038,-5.8323 8.5038,-6.1066 0,-0.059 -2.1369,-0.047 -4.7485,0.03 -4.0659,0.1181 -4.9501,0.2341 -6.1499,0.808 -2.0241,0.9683 -4.2021,0.9071 -5.844,-0.1643 -1.2489,-0.8151 -2.9059,-3.1168 -2.9891,-4.1521 -0.043,-0.5445 2.0197,-1.4032 4.2174,-1.7553 0.9189,-0.1472 1.3281,-0.4561 2.0731,-1.5656 2.0865,-3.1061 1.9966,-6.8134 -0.2183,-8.9975 -1.5918,-1.5697 -3.2302,-2.0177 -5.2116,-1.4249 -0.8385,0.2508 -1.5563,0.4575 -1.5947,0.4593 -0.039,0 0.075,-0.376 0.2548,-0.8398 0.5972,-1.5489 1.8044,-2.7777 3.2722,-3.3304 2.5801,-0.9718 5.2949,-0.043 9.3964,3.2159 2.2028,1.75 4.2575,2.4929 6.8943,2.4929 l 1.7302,0 -4.808,-4.7487 c -3.4106,-3.3686 -5.0838,-4.8074 -5.7569,-4.9505 -2.5995,-0.5526 -4.8433,-2.5093 -4.838,-4.2189 0,-2.0027 2.544,-5.8663 4.9742,-7.5726 l 0.8872,-0.6232 0.5282,1.5683 c 0.4767,1.4153 0.6842,1.6397 2.1278,2.3026 2.7825,1.2776 6.7388,0.8077 8.3602,-0.9929 0.7917,-0.8793 1.491,-2.7115 1.491,-3.9068 0,-0.5799 -0.3469,-1.7927 -0.7709,-2.6954 -0.9048,-1.9253 -0.791,-2.047 1.9485,-2.083 4.1157,-0.054 5.9883,2.3682 5.3369,6.9036 -0.255,1.7761 0.3649,13.7791 0.7305,14.1396 0.2749,0.271 3.6533,-11.8895 3.6533,-13.1499 0,-2.0155 0.8193,-4.4035 1.7617,-5.1344 1.5819,-1.2271 4.5416,-0.5115 7.2495,1.7527 l 1.0708,0.8954 -0.805,1.3548 c -0.4429,0.745 -1.0998,1.6177 -1.4602,1.9392 -1.2433,1.1096 -0.6726,4.8813 1.0818,7.1497 1.0513,1.3593 2.8839,2.2444 4.6466,2.2444 1.5558,0 3.6722,-0.8958 4.1659,-1.7634 0.2864,-0.5028 0.3227,-0.4977 0.5331,0.075 0.1246,0.3377 0.4995,1.3049 0.834,2.1493 0.8781,2.2172 0.9048,5.6576 0.054,6.7875 -1.3032,1.7279 -2.0754,2.0508 -5.496,2.2983 -6.0321,0.4366 -8.3272,2.3755 -8.3278,7.035 0,3.8181 2.1981,8.2524 7.1327,14.3858 8.1937,10.1842 15.266802,22.1079 21.200702,35.7401 l 1.9706,4.5272 -1.5884,3.303 c -1.889,3.9276 -2.7163,6.3738 -3.4651,10.245 l -0.5557,2.8726 -3.0904,1.155 c -6.107902,2.2827 -12.156402,5.6447 -16.695202,9.2799 l -1.7722,1.4194 -2.0792,-2.3902 z m -44.5396,-48.7349 c -2.6344,-0.5893 -4.7277,-1.7075 -6.4303,-3.4348 -1.3987,-1.4191 -2.7318,-3.5014 -3.1838,-4.9732 l -0.218,-0.7095 1.5779,0.7885 c 1.9373,0.9681 4.9616,1.6965 7.0392,1.6954 2.1585,0 5.4241,-0.7279 7.6036,-1.6924 1.7919,-0.7932 1.8581,-0.7996 2.9512,-0.288 1.483,0.6938 2.9121,2.3416 3.1596,3.6428 0.288,1.5137 -0.583,3.1661 -1.9702,3.7377 -3.3037,1.3612 -7.671,1.8728 -10.5292,1.2335 z m -6.9095,-20.7486 c -0.5327,-1.3613 -0.7262,-4.4065 -0.39,-6.1412 1.0123,-5.2254 5.523,-9.635 11.7085,-11.4464 1.8489,-0.5415 3.1674,-0.1797 4.0195,1.1028 1.425,2.1446 0.34,6.6217 -1.6112,6.6491 -0.9911,0.014 -4.4314,1.2963 -6.2013,2.3113 -2.1297,1.2215 -5.2272,4.4224 -6.3111,6.5215 -0.8802,1.7051 -0.9251,1.7422 -1.2144,1.0029 z m 56.6652,-30.4067 c -1.1171,-0.6717 -2.2213,-2.6799 -2.2325,-4.0604 0,-0.4825 0.4581,-1.4819 1.0791,-2.3343 3.0214,-4.1472 4.2449,-9.675 3.1537,-14.2478 -0.2318,-0.971 -0.3108,-1.7656 -0.1759,-1.7656 0.5705,0 3.6447,3.1354 4.5828,4.6739 1.9523,3.2023 2.307,7.8391 0.8999,11.7702 -0.7228,2.0193 -2.3749,5.0686 -3.1724,5.8551 -0.9372,0.9242 -2.7014,0.9706 -4.1347,0.1091 z m -31.2583,-7.4061 c -0.5747,-0.2074 -0.9532,-0.6588 -1.2024,-1.4343 -0.6904,-2.1492 -2.5444,-5.0356 -4.452,-6.9313 -1.8574,-1.8459 -5.1783,-3.8466 -7.1425,-4.3031 -1.2393,-0.2879 -0.8536,-0.619 1.6427,-1.4107 4.7682,-1.5118 9.494,-0.2553 13.2385,3.5195 2.0429,2.0595 4.0911,5.2473 4.3938,6.8387 0.2572,1.3517 -0.3845,2.7826 -1.5665,3.4934 -1.0509,0.632 -3.4794,0.7446 -4.9116,0.2278 z"
       id="path4106-1"
       inkscape:connector-curvature="0" />
  </g>
</svg>
