<?xml version="1.0" encoding="UTF-8" standalone="no"?>
<!-- Created with Inkscape (http://www.inkscape.org/) -->

<svg
   xmlns:dc="http://purl.org/dc/elements/1.1/"
   xmlns:cc="http://creativecommons.org/ns#"
   xmlns:rdf="http://www.w3.org/1999/02/22-rdf-syntax-ns#"
   xmlns:svg="http://www.w3.org/2000/svg"
   xmlns="http://www.w3.org/2000/svg"
   xmlns:sodipodi="http://sodipodi.sourceforge.net/DTD/sodipodi-0.dtd"
   xmlns:inkscape="http://www.inkscape.org/namespaces/inkscape"
   width="326.55911"
   height="217.18279"
   id="svg7298"
   version="1.1"
   inkscape:version="0.48.4 r9939"
   sodipodi:docname="Nieuw document 41">
  <defs
     id="defs7300" />
  <sodipodi:namedview
     id="base"
     pagecolor="#ffffff"
     bordercolor="#666666"
     borderopacity="1.0"
     inkscape:pageopacity="0.0"
     inkscape:pageshadow="2"
     inkscape:zoom="1.979899"
     inkscape:cx="257.62787"
     inkscape:cy="65.151771"
     inkscape:document-units="px"
     inkscape:current-layer="layer1"
     showgrid="false"
     fit-margin-top="0"
     fit-margin-left="0"
     fit-margin-right="0"
     fit-margin-bottom="0"
     inkscape:window-width="1600"
     inkscape:window-height="837"
     inkscape:window-x="-8"
     inkscape:window-y="-8"
     inkscape:window-maximized="1" />
  <metadata
     id="metadata7303">
    <rdf:RDF>
      <cc:Work
         rdf:about="">
        <dc:format>image/svg+xml</dc:format>
        <dc:type
           rdf:resource="http://purl.org/dc/dcmitype/StillImage" />
        <dc:title></dc:title>
      </cc:Work>
    </rdf:RDF>
  </metadata>
  <g
     inkscape:label="Laag 1"
     inkscape:groupmode="layer"
     id="layer1"
     transform="translate(-103.47095,-235.19936)">
    <rect
       style="fill:#ffffff;fill-opacity:1;fill-rule:evenodd;stroke:none"
       id="rect7180"
       width="326.55911"
       height="217.18279"
       x="103.47095"
       y="235.19936" />
    <path
       style="fill:#0f47af;fill-opacity:1;stroke:none"
       d="m 103.50324,301.8805 c 4.5165,0 7.199,0.8478 16.0234,5.7143 12.9976,6.7932 26.0393,4.4077 33.75,0 11.9516,-7.99 24.5487,-7.4958 37.6786,0 3.9396,2.0234 8.6177,3.6353 14.4643,4.4643 l 4.4643,13.0357 -4.4643,11.9643 c -7.8258,0 -12.8772,-3.0181 -16.9643,-5.3571 -10.6097,-5.7494 -21.8334,-6.8495 -34.1071,0 -9.5032,5.1243 -19.4166,8.9577 -33.3929,0 -4.0082,-2.642 -8.8728,-5.0888 -17.452,-4.9107 z"
       id="path7146-4"
       inkscape:connector-curvature="0"
       sodipodi:nodetypes="cccccccccccc" />
    <path
       style="fill:#0f47af;fill-opacity:1;stroke:none"
       d="m 169.24134,301.9145 c 4.5165,0 7.199,0.8478 16.0234,5.7143 12.9976,6.7932 26.0393,4.4077 33.75,0 11.9516,-7.99 24.5487,-7.4958 37.6786,0 3.9396,2.0234 8.6177,3.6353 14.4643,4.4643 l 4.4643,13.0357 -4.4643,11.9643 c -7.8258,0 -12.8772,-3.0181 -16.9643,-5.3571 -10.6097,-5.7494 -21.8334,-6.8495 -34.1071,0 -9.5032,5.1243 -19.4166,8.9577 -33.3929,0 -4.0082,-2.642 -8.8728,-5.0888 -17.452,-4.9107 z"
       id="path7146-8-9"
       inkscape:connector-curvature="0"
       sodipodi:nodetypes="cccccccccccc" />
    <path
       style="fill:#0f47af;fill-opacity:1;stroke:none"
       d="m 103.42124,350.6537 c 4.5165,0 7.199,0.8478 16.0234,5.7143 12.9976,6.7932 26.0393,4.4077 33.75,0 11.9516,-7.99 24.5487,-7.4958 37.6786,0 3.9396,2.0234 8.6177,3.6353 14.4643,4.4643 l 4.4643,13.0357 -4.4643,11.9643 c -7.8258,0 -12.8772,-3.0181 -16.9643,-5.3571 -10.6097,-5.7494 -21.8334,-6.8495 -34.1071,0 -9.5032,5.1243 -19.4166,8.9577 -33.3929,0 -4.0082,-2.642 -8.8728,-5.0888 -17.452,-4.9107 z"
       id="path7146-9"
       inkscape:connector-curvature="0"
       sodipodi:nodetypes="cccccccccccc" />
    <path
       style="fill:#0f47af;fill-opacity:1;stroke:none"
       d="m 169.15934,350.6877 c 4.5165,0 7.199,0.8478 16.0234,5.7143 12.9976,6.7932 26.0393,4.4077 33.75,0 11.9516,-7.99 24.5487,-7.4958 37.6786,0 3.9396,2.0234 8.6177,3.6353 14.4643,4.4643 l 4.4643,13.0357 -4.4643,11.9643 c -7.8258,0 -12.8772,-3.0181 -16.9643,-5.3571 -10.6097,-5.7494 -21.8334,-6.8495 -34.1071,0 -9.5032,5.1243 -19.4166,8.9577 -33.3929,0 -4.0082,-2.642 -8.8728,-5.0888 -17.452,-4.9107 z"
       id="path7146-8-2"
       inkscape:connector-curvature="0"
       sodipodi:nodetypes="cccccccccccc" />
    <path
       style="fill:#0f47af;fill-opacity:1;stroke:none"
       d="m 307.02504,302.0041 c 4.5165,0 7.199,0.8478 16.0234,5.7143 12.9976,6.7932 26.0393,4.4077 33.75,0 11.9516,-7.99 24.5487,-7.4958 37.6786,0 3.9396,2.0234 8.6177,3.6353 14.4643,4.4643 l 4.4643,13.0357 -4.4643,11.9643 c -7.8258,0 -12.8772,-3.0181 -16.9643,-5.3571 -10.6097,-5.7494 -21.8334,-6.8495 -34.1071,0 -9.5032,5.1243 -19.4166,8.9577 -33.3929,0 -4.0082,-2.642 -8.8728,-5.0888 -17.452,-4.9107 z"
       id="path7146-5"
       inkscape:connector-curvature="0"
       sodipodi:nodetypes="cccccccccccc" />
    <path
       style="fill:#0f47af;fill-opacity:1;stroke:none"
       d="m 372.76314,302.0381 c 4.5165,0 7.199,0.8478 16.0234,5.7143 12.9976,6.7932 26.0393,4.4077 33.75,0 11.9516,-7.99 24.5487,-7.4958 37.6786,0 3.9396,2.0234 8.6177,3.6353 14.4643,4.4643 l 4.4643,13.0357 -4.4643,11.9643 c -7.8258,0 -12.8772,-3.0181 -16.9643,-5.3571 -10.6097,-5.7494 -21.8334,-6.8495 -34.1071,0 -9.5032,5.1243 -19.4166,8.9577 -33.3929,0 -4.0082,-2.642 -8.8728,-5.0888 -17.452,-4.9107 z"
       id="path7146-8-5"
       inkscape:connector-curvature="0"
       sodipodi:nodetypes="cccccccccccc" />
    <path
       style="fill:#0f47af;fill-opacity:1;stroke:none"
       d="m 304.50654,350.2005 c 4.5165,0 7.199,0.8478 16.0234,5.7143 12.9976,6.7932 26.0393,4.4077 33.75,0 11.9516,-7.99 24.5487,-7.4958 37.6786,0 3.9396,2.0234 8.6177,3.6353 14.4643,4.4643 l 4.4643,13.0357 -4.4643,11.9643 c -7.8258,0 -12.8772,-3.0181 -16.9643,-5.3571 -10.6097,-5.7494 -21.8334,-6.8495 -34.1071,0 -9.5032,5.1243 -19.4166,8.9577 -33.3929,0 -4.0082,-2.642 -8.8728,-5.0888 -17.452,-4.9107 z"
       id="path7146-3"
       inkscape:connector-curvature="0"
       sodipodi:nodetypes="cccccccccccc" />
    <path
       style="fill:#0f47af;fill-opacity:1;stroke:none"
       d="m 370.24464,350.2345 c 4.5165,0 7.199,0.8478 16.0234,5.7143 12.9976,6.7932 26.0393,4.4077 33.75,0 11.9516,-7.99 24.5487,-7.4958 37.6786,0 3.9396,2.0234 8.6177,3.6353 14.4643,4.4643 l 4.4643,13.0357 -4.4643,11.9643 c -7.8258,0 -12.8772,-3.0181 -16.9643,-5.3571 -10.6097,-5.7494 -21.8334,-6.8495 -34.1071,0 -9.5032,5.1243 -19.4166,8.9577 -33.3929,0 -4.0082,-2.642 -8.8728,-5.0888 -17.452,-4.9107 z"
       id="path7146-8-3"
       inkscape:connector-curvature="0"
       sodipodi:nodetypes="cccccccccccc" />
    <rect
       style="fill:#ffffff;fill-opacity:1;fill-rule:evenodd;stroke:none"
       id="rect7239"
       width="60.834446"
       height="142.93658"
       x="430.03003"
       y="279.14102" />
    <g
       id="layer1-74"
       inkscape:label="Laag 1"
       transform="matrix(0.28249509,0,0,0.28049969,174.21924,201.2188)">
      <path
         inkscape:connector-curvature="0"
         id="path20827-7-1-9-9-4"
         d="M 327.92888,679.9658 C 294.049,676.64855 264.91585,663.90423 241.80086,642.28775 216.80843,618.91643 201.25364,589.28399 194.67515,552.51219 l -1.22287,-6.83947 -0.17038,-103.92476 -0.16911,-103.92544 76.19666,0 76.19571,0 0.24305,1.2167 0.24273,1.21604 0.0771,-1.21604 0.0775,-1.2167 75.94252,0 75.94252,0 0,101.06626 c 0,97.26721 -0.0432,101.37735 -1.10069,109.33136 -4.498,33.79267 -19.55178,65.72635 -41.73836,88.53942 -22.85196,23.4982 -50.17525,37.23777 -83.98374,42.23275 -8.48259,1.25295 -34.45388,1.83757 -43.27724,0.97349 z"
         style="fill:#ffffff;fill-opacity:1;stroke:#000000;stroke-width:3.90769839;stroke-miterlimit:4;stroke-opacity:1;stroke-dasharray:none" />
      <rect
         style="fill:#da121a;fill-opacity:1;fill-rule:evenodd;stroke:#000000;stroke-width:3.88849783;stroke-linecap:round;stroke-miterlimit:4;stroke-opacity:1;stroke-dasharray:none;stroke-dashoffset:0"
         id="rect7273"
         width="304.87326"
         height="107.88486"
         x="193.11996"
         y="337.83121" />
    </g>
  </g>
</svg>
