<?xml version="1.0" encoding="UTF-8" standalone="no"?>
<!-- Created with Inkscape (http://www.inkscape.org/) -->

<svg
   xmlns:dc="http://purl.org/dc/elements/1.1/"
   xmlns:cc="http://creativecommons.org/ns#"
   xmlns:rdf="http://www.w3.org/1999/02/22-rdf-syntax-ns#"
   xmlns:svg="http://www.w3.org/2000/svg"
   xmlns="http://www.w3.org/2000/svg"
   xmlns:sodipodi="http://sodipodi.sourceforge.net/DTD/sodipodi-0.dtd"
   xmlns:inkscape="http://www.inkscape.org/namespaces/inkscape"
   width="327.14279"
   height="217.1429"
   id="svg3912"
   version="1.1"
   inkscape:version="0.48.4 r9939"
   sodipodi:docname="Nieuw document 10">
  <defs
     id="defs3914" />
  <sodipodi:namedview
     id="base"
     pagecolor="#ffffff"
     bordercolor="#666666"
     borderopacity="1.0"
     inkscape:pageopacity="0.0"
     inkscape:pageshadow="2"
     inkscape:zoom="1.4"
     inkscape:cx="230.62414"
     inkscape:cy="68.024742"
     inkscape:document-units="px"
     inkscape:current-layer="layer1"
     showgrid="false"
     fit-margin-top="0"
     fit-margin-left="0"
     fit-margin-right="0"
     fit-margin-bottom="0"
     inkscape:window-width="1600"
     inkscape:window-height="837"
     inkscape:window-x="-8"
     inkscape:window-y="-8"
     inkscape:window-maximized="1" />
  <metadata
     id="metadata3917">
    <rdf:RDF>
      <cc:Work
         rdf:about="">
        <dc:format>image/svg+xml</dc:format>
        <dc:type
           rdf:resource="http://purl.org/dc/dcmitype/StillImage" />
        <dc:title></dc:title>
      </cc:Work>
    </rdf:RDF>
  </metadata>
  <g
     inkscape:label="Laag 1"
     inkscape:groupmode="layer"
     id="layer1"
     transform="translate(-116.4286,-218.07645)">
    <rect
       style="fill:#ffffff;fill-opacity:1;fill-rule:evenodd;stroke:none"
       id="rect3855"
       width="327.14279"
       height="97.142899"
       x="116.4286"
       y="338.07645" />
    <rect
       style="fill:#0f47af;fill-opacity:1;fill-rule:evenodd;stroke:none"
       id="rect3857"
       width="327.14279"
       height="52.857101"
       x="116.4286"
       y="285.21933" />
    <rect
       style="fill:#fcdd09;fill-opacity:1;fill-rule:evenodd;stroke:none"
       id="rect3859"
       width="327.14279"
       height="67.142899"
       x="116.4286"
       y="218.07645" />
    <path
       style="fill:#d40000"
       d="m 276.94304,417.778 c -2.5307,-0.38316 -3.8611,-1.91828 -4.3316,-4.99806 -0.1334,-0.8726 -0.1696,-1.35828 -0.3126,-4.16653 -0.06,-1.19963 -0.156,-2.46652 -0.211,-2.81532 l -0.1002,-0.63418 -1.0372,-1.48375 c -5.0341,-7.20053 -7.4742,-12.08561 -8.3203,-16.65691 -0.2242,-1.21112 -0.2437,-3.87164 -0.037,-4.93128 0.1237,-0.63156 0.496,-1.99147 0.6192,-2.26152 0.064,-0.13922 0.062,-0.13918 -0.8307,0.0486 -3.1691,0.66598 -6.0674,0.50058 -8.3961,-0.47914 -1.8477,-0.77736 -3.2328,-1.7898 -4.9667,-3.63016 l -0.9527,-1.01149 0.732,-0.11229 c 1.7784,-0.27276 2.2448,-0.36667 2.6406,-0.53179 0.5619,-0.23448 1.8386,-1.30082 2.2183,-1.85317 0.8324,-1.20975 1.9325,-2.08208 3.3301,-2.64043 l 0.5793,-0.2314 -0.7489,-0.29862 c -0.8811,-0.35138 -2.2924,-0.75788 -3.1913,-0.91916 -1.0087,-0.181 -3.2996,-0.16329 -4.3956,0.034 -1.6117,0.29006 -3.0697,0.81037 -5.3371,1.90455 -3.0094,1.45236 -4.9975,2.72016 -7.2643,4.63253 -0.649,0.54765 -1.2019,0.99574 -1.2287,0.99574 -0.083,0 -1.1644,-0.65279 -1.1644,-0.70302 0,-0.11114 1.7575,-2.94714 2.2466,-3.62536 0.2938,-0.40728 0.5341,-0.75053 0.5341,-0.76278 0,-0.0122 -0.2376,0.0457 -0.5283,0.12889 -2.2194,0.635 -5.1382,1.12378 -7.9116,1.32487 -1.7543,0.1272 -4.8735,0.12495 -6.9096,-0.005 -1.0054,-0.0642 -1.9882,-0.089 -2.6502,-0.0669 -2.77209,0.0925 -5.12539,0.89148 -7.25599,2.46358 l -0.6424,0.47394 -0.4474,-0.28355 c -0.2461,-0.15596 -0.5086,-0.32044 -0.5833,-0.36554 -0.1279,-0.0772 -0.1159,-0.11483 0.203,-0.64244 0.5758,-0.9526 0.9142,-1.98749 1.0106,-3.08933 0.064,-0.74726 -0.015,-2.00608 -0.1728,-2.72335 l -0.1266,-0.57382 -0.6743,-0.62739 c -1.8223,-1.6957 -3.301,-3.71113 -4.1942,-5.71672 l -0.2956,-0.66383 -0.5879,-0.24959 c -0.6921,-0.2939 -1.272,-0.75227 -1.5709,-1.2414 -0.386,-0.63216 -0.2638,-1.44447 0.2816,-1.87247 0.7926,-0.62194 2.3104,-0.55786 4.2494,0.17945 2.0532,0.78062 3.5863,1.97076 4.7483,3.68606 0.2105,0.31089 0.4392,0.69496 0.5078,0.85349 0.6279,1.44821 1.2974,2.2637 2.4482,2.98159 1.16599,0.72731 2.96009,1.25798 4.25299,1.25798 l 0.3417,0 -0.6011,-0.52158 c -0.8284,-0.71865 -1.3539,-1.39155 -1.8328,-2.34623 -0.216,-0.43088 -1.1575,-3.19522 -1.1037,-3.24058 0.014,-0.012 0.7171,0.40951 1.5618,0.93659 2.9176,1.82059 4.4601,2.54928 6.9296,3.27357 1.8024,0.52867 3.5115,0.79751 5.5891,0.87915 3.3892,0.1332 6.6331,-0.31063 10.6863,-1.46206 1.0359,-0.29426 1.1481,-0.34021 1.1143,-0.45616 -0.022,-0.0709 -0.1398,-0.37481 -0.2648,-0.67529 -0.583,-1.40181 -0.628,-2.67938 -0.1767,-5.01195 0.154,-0.7969 0.3141,-1.45753 0.3551,-1.46809 0.041,-0.0105 0.3777,0.57033 0.7478,1.29085 0.9611,1.87176 1.5389,2.61219 2.6132,3.35027 2.172,1.4918 4.8308,2.21643 10.2598,2.79613 0.6515,0.0696 1.2189,0.12651 1.2605,0.12651 0.047,0 0.076,-0.45021 0.075,-1.24862 0,-1.3379 0.08,-1.82908 0.4582,-2.79755 0.4216,-1.07835 1.3898,-2.41676 2.3439,-3.2401 0.3071,-0.26485 0.3857,-0.30031 0.6662,-0.30031 0.296,0 0.3424,0.0251 0.6668,0.36001 0.915,0.9449 1.2577,1.95229 1.5358,4.5136 0.211,1.94292 0.3154,2.27648 0.8559,2.7311 0.37,0.31121 0.7586,0.44254 1.4015,0.47354 0.6893,0.0332 1.3002,-0.0897 2.1419,-0.43085 0.6834,-0.27706 1.0603,-0.49069 2.6804,-1.51978 1.4951,-0.94954 2.3801,-1.42483 3.4447,-1.84998 1.0384,-0.41466 1.5358,-0.55966 2.5649,-0.74763 0.7093,-0.12956 0.983,-0.14265 3.0342,-0.14504 1.8934,-0.002 2.3625,0.0158 2.9283,0.1126 2.2593,0.38635 3.7282,1.06231 7.2774,3.34867 1.2763,0.8223 2.6949,1.29233 3.7061,1.22799 0.6597,-0.0419 1.0368,-0.19545 1.4499,-0.59027 0.4484,-0.4286 0.5759,-0.85992 0.7546,-2.5553 0.1567,-1.4853 0.3555,-2.51521 0.6029,-3.11964 0.2111,-0.5162 0.6343,-1.16393 0.986,-1.50871 0.285,-0.27949 0.3306,-0.3002 0.6574,-0.29863 0.3425,0.002 0.3631,0.0134 0.8396,0.47501 1.9042,1.845 2.7374,3.84408 2.602,6.24291 l -0.049,0.87161 0.3958,-0.0393 c 6.3785,-0.63322 9.4299,-1.46597 11.5361,-3.14843 1.0453,-0.83495 1.4145,-1.3354 2.3968,-3.24953 0.3256,-0.63449 0.6258,-1.14424 0.6671,-1.13279 0.1044,0.0289 0.5414,2.30607 0.627,3.26635 0.1167,1.30866 -0.081,2.49926 -0.5879,3.54782 l -0.2089,0.43172 0.3856,0.1209 c 1.6917,0.53045 4.3506,1.14123 6.0597,1.39196 1.7853,0.26194 2.2572,0.29242 4.4718,0.28895 1.8967,-0.003 2.3052,-0.0216 3.1491,-0.14361 1.7953,-0.25947 3.2442,-0.61193 4.7797,-1.1625 1.8272,-0.6551 3.1164,-1.30981 5.4723,-2.77848 0.8869,-0.55299 1.6239,-0.99584 1.638,-0.98413 0.05,0.0429 -0.808,2.62157 -1.0366,3.11227 -0.4577,0.98168 -1.2024,1.93191 -2.0523,2.61854 l -0.4999,0.40384 0.6349,-0.041 c 0.9121,-0.059 2.0047,-0.3152 2.8707,-0.67318 1.7035,-0.70425 2.6621,-1.59797 3.4279,-3.19598 0.8407,-1.75437 2.105,-3.14002 3.787,-4.15046 0.8645,-0.51929 2.632,-1.15275 3.6678,-1.31445 1.2991,-0.20283 2.3379,0.18838 2.6489,0.99755 0.2391,0.62223 -0.046,1.35918 -0.7532,1.94123 -0.3763,0.31001 -1.1883,0.72705 -1.4158,0.72705 -0.067,0 -0.1531,0.0993 -0.2056,0.23708 -0.1645,0.43189 -0.7609,1.61973 -1.0869,2.16534 -0.884,1.47855 -2.1265,2.98093 -3.4041,4.11643 l -0.6027,0.53561 -0.1381,0.59798 c -0.1962,0.85003 -0.197,3.02207 0,3.79066 0.1874,0.73645 0.4569,1.38352 0.8477,2.03639 l 0.3297,0.55069 -0.5824,0.37299 -0.5826,0.373 -0.4879,-0.37552 c -1.649,-1.26904 -3.7472,-2.13814 -5.9254,-2.45438 -1.0346,-0.15022 -2.2897,-0.15859 -4.4079,-0.0294 -1.9647,0.11982 -4.7407,0.11939 -6.4501,-9.1e-4 -2.9827,-0.21006 -5.2773,-0.59442 -8.2617,-1.38385 -0.1962,-0.0519 -0.3568,-0.0849 -0.3568,-0.0731 0,0.0117 0.2242,0.32956 0.4984,0.70628 0.5045,0.69319 2.2823,3.55357 2.2823,3.67216 0,0.0507 -0.9188,0.61728 -1.1391,0.70261 -0.028,0.0105 -0.5683,-0.41723 -1.2026,-0.95055 -2.3148,-1.94657 -4.2879,-3.21211 -7.2406,-4.64406 -2.1914,-1.06276 -3.9474,-1.68632 -5.4863,-1.94823 -2.4795,-0.42197 -4.9186,-0.13473 -7.4377,0.87583 l -0.8238,0.33054 0.5751,0.22981 c 1.3294,0.53108 2.2836,1.25792 3.1781,2.42071 0.3835,0.49872 0.8077,0.94777 1.2378,1.31057 0.9547,0.80543 1.2594,0.90865 3.7786,1.28011 l 0.7335,0.10817 -0.394,0.42078 c -0.2168,0.23143 -0.6388,0.68118 -0.9378,0.99944 -1.6836,1.79173 -3.7037,3.05825 -5.8351,3.65814 -1.2036,0.33876 -1.9972,0.43736 -3.5067,0.43575 -1.4031,-0.002 -2.499,-0.12339 -3.8627,-0.42971 l -0.6589,-0.14802 0.044,0.13373 c 0.633,1.88292 0.756,2.63671 0.7537,4.62246 0,1.8348 -0.08,2.44429 -0.5315,4.17263 -1.075,4.11166 -3.2839,8.31213 -7.7936,14.82017 l -1.2012,1.73329 -0.1005,0.6375 c -0.054,0.35064 -0.1688,1.90353 -0.2522,3.45088 -0.084,1.54734 -0.1706,2.92716 -0.1938,3.06624 -0.024,0.13909 -0.076,0.45203 -0.1169,0.69544 -0.4605,2.73065 -1.6811,4.19896 -3.8992,4.69053 -0.3725,0.0826 -0.7294,0.10387 -1.5032,0.0898 -1.6565,-0.0302 -1.8018,-0.0297 -2.7432,0.0112 -0.4959,0.0215 -1.0798,0.0122 -1.2972,-0.0208 z m 1.9097,-1.26722 c 0.449,-0.0525 0.5929,-0.0508 0.6159,0.007 0.024,0.0576 0.043,0.058 0.085,0.002 0.043,-0.0568 0.2384,-0.0569 0.8384,-7e-5 2.2592,0.21386 3.5714,-0.53811 4.1976,-2.40559 0.301,-0.89762 0.4505,-2.03565 0.5645,-4.29906 0.1265,-2.51047 0.2289,-3.78877 0.3649,-4.55519 0.095,-0.53656 0.1062,-0.55567 1.4918,-2.56047 1.7489,-2.53027 2.4884,-3.6668 3.5588,-5.46866 2.4528,-4.12874 3.7133,-7.12928 4.3348,-10.31906 0.2171,-1.11513 0.2393,-3.77766 0.039,-4.73001 -0.2302,-1.09667 -0.5801,-2.0953 -1.1492,-3.28195 -0.3086,-0.64328 -0.5608,-1.18888 -0.5605,-1.21246 0,-0.0236 0.5501,0.11272 1.2218,0.30282 3.0238,0.85588 5.144,1.15462 6.9444,0.97852 2.291,-0.22411 4.2385,-1.0749 6.0643,-2.64927 0.7055,-0.60846 0.8113,-0.77035 0.5038,-0.77035 -0.2315,0 -1.2131,-0.36248 -1.6197,-0.59812 -0.4099,-0.23742 -1.2755,-0.45492 -3.0057,-0.75524 -1.9369,-0.33619 -2.4729,-0.38523 -4.2087,-0.38523 -1.4947,0 -1.7182,0.0143 -2.3299,0.14884 -1.2695,0.27937 -2.2101,0.82453 -2.7063,1.56836 l -0.2177,0.32633 -0.4364,-0.18532 -0.4365,-0.18533 0.1609,-0.26525 c 0.5527,-0.91127 1.554,-1.58477 2.8839,-1.94006 1.0164,-0.27151 1.6713,-0.34477 3.0444,-0.34061 1.3991,0.005 2.5946,0.12025 4.3607,0.42314 l 1.1904,0.2042 -0.2058,-0.22486 c -0.1132,-0.12369 -0.3663,-0.44469 -0.5626,-0.71334 -0.3821,-0.52276 -1.0553,-1.13115 -1.6021,-1.4476 -0.5883,-0.3405 -1.5238,-0.66446 -2.9926,-1.03638 l -1.4282,-0.36155 -0.9392,0.0369 c -2.7752,0.10873 -5.3302,0.84859 -6.7275,1.94809 l -0.4848,0.38156 -0.2904,-0.19348 c -0.5236,-0.34879 -0.5255,-0.32802 0.077,-0.79726 1.3585,-1.05787 3.5409,-1.80353 6.1106,-2.08771 0.5825,-0.0644 1.4075,-0.0969 2.3297,-0.0918 l 1.4281,0.008 0.6388,-0.32711 c 1.7657,-0.90418 3.6805,-1.52623 5.5614,-1.80679 0.9684,-0.14443 2.7845,-0.14444 3.8597,-10e-6 1.5095,0.20279 3.092,0.64945 4.6817,1.32159 1.8849,0.79686 4.4975,2.1751 6.0286,3.18031 1.2573,0.82537 1.2067,0.79996 0.9896,0.49748 -0.4609,-0.64264 -1.13,-1.43103 -2.2484,-2.64908 -0.6674,-0.7268 -1.2022,-1.33093 -1.1883,-1.34252 0.014,-0.0116 0.9528,0.29198 2.0866,0.6746 2.9363,0.9908 4.8723,1.50266 7.022,1.85659 3.1161,0.51304 6.5979,0.66557 10.2211,0.44777 1.6656,-0.10012 3.3929,-0.1259 3.9504,-0.059 1.9887,0.23876 3.8173,0.7464 5.123,1.42216 0.2062,0.10678 0.3894,0.182 0.407,0.16715 0.018,-0.0148 -0.038,-0.35076 -0.1232,-0.7465 -0.2618,-1.21207 -0.2112,-2.81905 0.1379,-4.36654 l 0.138,-0.61238 0.7241,-0.64063 c 1.8531,-1.63936 3.3157,-3.64697 4.2832,-5.87926 l 0.3975,-0.91671 0.4852,-0.13214 c 0.6752,-0.18397 0.9055,-0.29497 1.2215,-0.58923 0.3071,-0.28587 0.4187,-0.545 0.2836,-0.65833 -0.1446,-0.12144 -0.9722,-0.0812 -1.5838,0.0771 -0.7068,0.18287 -2.0552,0.74725 -2.6121,1.09328 -1.2681,0.78808 -2.4501,2.13316 -3.0459,3.46608 -0.4646,1.03968 -1.0202,1.76863 -1.9282,2.52999 -1.1688,0.98001 -2.4147,1.54713 -4.2509,1.93498 -0.9391,0.19842 -2.8568,0.27539 -3.7752,0.15157 -0.5056,-0.0682 -3.9554,-0.74582 -3.8528,-0.75682 0.3584,-0.0384 3.3204,-0.81518 3.661,-0.96007 0.6094,-0.25915 1.3527,-0.77899 1.8197,-1.27278 0.3703,-0.39159 0.798,-0.98223 0.7439,-1.02766 -0.016,-0.013 -0.2809,0.11137 -0.5899,0.27639 -2.2773,1.21631 -5.1724,2.1538 -7.8504,2.54217 -1.4095,0.20441 -2.6549,0.26731 -4.5074,0.2276 -3.7375,-0.0801 -6.8758,-0.67655 -11.8584,-2.25382 l -0.4314,-0.13654 0.484,-0.80178 c 0.5478,-0.9074 0.8533,-1.71453 0.9125,-2.41204 l 0.041,-0.47605 -0.2494,0.25288 c -0.7849,0.79555 -1.6229,1.39971 -2.6923,1.94082 -0.7916,0.40058 -1.102,0.52759 -2.0574,0.84184 -2.1146,0.69556 -4.5176,1.11082 -8.765,1.51466 -0.93,0.0884 -1.8129,0.17661 -1.962,0.19593 l -0.271,0.0351 0.1893,-0.87332 c 0.1574,-0.72564 0.1891,-1.06577 0.1882,-2.0113 0,-1.02063 -0.021,-1.20128 -0.1948,-1.75161 -0.1067,-0.33749 -0.3325,-0.86381 -0.5018,-1.1696 -0.3525,-0.63644 -1.0537,-1.5469 -1.1668,-1.51517 -0.1151,0.0323 -0.3335,0.57351 -0.4908,1.21647 -0.077,0.31581 -0.21,1.19793 -0.295,1.96027 -0.085,0.76234 -0.1744,1.49987 -0.1986,1.63896 -0.1691,0.9721 -0.7655,1.82338 -1.6099,2.29771 -0.6841,0.38431 -1.1435,0.48515 -2.1793,0.47843 -0.7271,-0.005 -0.9657,-0.0333 -1.503,-0.17992 -0.9175,-0.25036 -1.9778,-0.73517 -2.8974,-1.32498 -3.5497,-2.27622 -4.9587,-2.89612 -7.1367,-3.13994 -0.8771,-0.0982 -4.1074,-0.0357 -4.8445,0.0937 -1.7114,0.3005 -3.2206,0.9697 -5.5506,2.46144 -1.6798,1.07542 -2.1737,1.34431 -3.0903,1.68276 -2.8693,1.05933 -5.4614,0.14789 -5.9829,-2.10365 -0.057,-0.25039 -0.1755,-1.09538 -0.2609,-1.87775 -0.1608,-1.4739 -0.406,-2.59356 -0.6587,-3.00789 l -0.1463,-0.23972 -0.3343,0.38207 c -0.6327,0.72296 -1.1615,1.72999 -1.4218,2.7075 -0.1737,0.65305 -0.1246,2.36817 0.098,3.39815 0.1032,0.47811 0.1773,0.86929 0.1649,0.86929 -0.5314,0 -5.608,-0.5666 -6.8685,-0.76661 -4.2161,-0.66897 -7.1834,-1.9333 -8.8837,-3.78534 l -0.2032,-0.22127 0,0.2845 c -0.01,0.69373 0.3296,1.62197 0.9526,2.64048 0.4696,0.76774 0.4726,0.77598 0.3035,0.82995 -4.6948,1.49735 -7.9287,2.1621 -11.3842,2.34 -1.2336,0.0635 -3.634,-0.016 -4.7052,-0.15579 -1.0937,-0.14278 -2.5864,-0.43927 -3.547,-0.70446 -1.5657,-0.43233 -3.6375,-1.25215 -4.8982,-1.93821 -0.2966,-0.1614 -0.5578,-0.29345 -0.5805,-0.29345 -0.06,0 0.3618,0.58744 0.7001,0.97261 0.4172,0.47512 1.2352,1.07651 1.809,1.32999 0.2878,0.12707 1.1688,0.37977 2.1366,0.6129 0.9059,0.21817 1.616,0.40493 1.5783,0.41502 -0.038,0.0101 -0.8588,0.17632 -1.8241,0.36937 -1.9939,0.39869 -3.0243,0.49642 -4.2539,0.40344 -3.3637,-0.2543 -5.94619,-1.64811 -7.31039,-3.94527 -0.1651,-0.27818 -0.3435,-0.61957 -0.3963,-0.75866 -0.2862,-0.7543 -1.2208,-1.98214 -2.042,-2.68267 -0.6977,-0.59525 -1.2836,-0.95878 -2.0915,-1.29771 -1.9224,-0.80654 -3.4053,-0.94472 -3.0814,-0.28714 0.1965,0.39909 0.6686,0.68745 1.5032,0.918 0.4848,0.13397 0.4895,0.1375 0.6307,0.47781 1.1132,2.68355 2.5567,4.72921 4.5792,6.48916 l 0.6697,0.58282 0.1825,0.80805 c 0.3263,1.44365 0.3438,3.25366 0.043,4.45699 l -0.1377,0.55107 0.3795,-0.19175 c 0.4981,-0.25179 1.6165,-0.69451 2.1831,-0.86431 1.99139,-0.59671 3.73629,-0.74374 6.63349,-0.55895 2.7832,0.17753 6.4127,0.11298 8.6607,-0.15401 2.9816,-0.35416 5.3842,-0.92988 9.0562,-2.1702 1.0747,-0.363 1.9648,-0.65121 1.978,-0.64044 0.013,0.0108 -0.5094,0.59847 -1.1612,1.306 -1.1333,1.22993 -2.4664,2.82804 -2.4034,2.88102 0.017,0.0138 0.3632,-0.19859 0.7705,-0.47191 1.4515,-0.97357 2.5724,-1.601 4.7067,-2.63438 2.211,-1.07038 3.9694,-1.68361 5.7293,-1.99798 0.9685,-0.17299 3.0245,-0.23829 4.0579,-0.12887 1.9352,0.20492 4.2607,0.93379 6.1045,1.91339 l 0.5058,0.26867 1.2795,-0.0198 c 1.9958,-0.0309 3.5519,0.15418 5.2338,0.62249 1.4541,0.40493 2.7737,1.03216 3.5223,1.67422 0.3796,0.32555 0.3737,0.36775 -0.095,0.68673 l -0.2719,0.18521 -0.4834,-0.37202 c -1.4228,-1.09488 -3.9092,-1.8204 -6.705,-1.9565 l -0.9052,-0.0441 -1.5372,0.39008 c -1.6696,0.42362 -2.3979,0.68093 -3.0167,1.0658 -0.5845,0.36362 -1.2665,1.00386 -1.6735,1.57151 -0.1964,0.27378 -0.4296,0.56535 -0.5186,0.6479 -0.1555,0.14445 -0.1559,0.14865 -0.012,0.11175 0.2548,-0.065 1.9096,-0.33913 2.7808,-0.4606 1.1639,-0.16231 4.0959,-0.16667 4.9458,-0.007 0.7787,0.14599 1.6101,0.4315 2.1433,0.7361 0.5472,0.31254 1.2388,0.93718 1.4788,1.33531 l 0.1839,0.30552 -0.4103,0.19482 c -0.2257,0.10716 -0.4272,0.19484 -0.4479,0.19484 -0.022,0 -0.1229,-0.14201 -0.2275,-0.31555 -0.4096,-0.68005 -1.4519,-1.31322 -2.5472,-1.54734 -1.6348,-0.34949 -4.1533,-0.26814 -6.8099,0.21998 -1.4855,0.27291 -2.5235,0.5232 -2.7433,0.66144 -0.342,0.21521 -1.0844,0.51569 -1.5633,0.63283 -0.2356,0.0576 -0.4283,0.12538 -0.4283,0.15063 0,0.0952 1.5638,1.36722 2.1044,1.71171 1.8877,1.20296 3.8405,1.71717 6.1849,1.62856 1.5955,-0.0604 2.9131,-0.30248 5.4516,-1.00198 0.6338,-0.17463 1.1673,-0.30489 1.1856,-0.28944 0.018,0.0154 -0.1579,0.42325 -0.3919,0.90623 -1.1724,2.42006 -1.4211,3.44425 -1.4179,5.84105 0,1.73534 0.1227,2.59126 0.6033,4.28408 1.1049,3.89336 3.1626,7.74085 7.5139,14.05017 l 1.3735,1.99148 0.1212,0.82655 c 0.066,0.4546 0.1699,1.80597 0.2296,3.00303 0.1778,3.56692 0.2865,4.46142 0.6781,5.58873 0.6534,1.88117 1.985,2.58307 4.3704,2.30397 z m -6.0202,-24.04974 c -0.9302,-0.2642 -1.6284,-0.56816 -2.3392,-1.01807 -1.7372,-1.09988 -3.0508,-2.91804 -3.9449,-5.45987 -0.2758,-0.78412 -0.9719,-3.26289 -0.9719,-3.4612 0,-0.10046 2.1936,1.11888 3.3069,1.8383 0.9877,0.63821 2.2779,1.6849 2.8929,2.34694 1.496,1.61045 2.1409,3.17613 2.1422,5.19997 0,0.91863 0.071,0.88259 -1.086,0.55393 z m 12.3073,-0.83842 c 0.043,-1.06575 0.1549,-1.66614 0.4412,-2.38661 0.6811,-1.71334 2.1972,-3.33624 4.564,-4.8856 0.7607,-0.498 3.2532,-1.92005 3.2984,-1.88193 0.051,0.0439 -0.5789,2.41718 -0.8582,3.22712 -0.3916,1.13595 -0.6069,1.62701 -1.0928,2.49307 -1.0291,1.83441 -2.4078,3.13526 -4.0682,3.83864 -0.5259,0.22281 -1.9828,0.65427 -2.2092,0.65427 -0.1052,0 -0.1138,-0.12027 -0.075,-1.05896 z"
       id="path3818-9"
       inkscape:connector-curvature="0" />
    <path
       style="fill:#000000"
       d="m 279.60644,274.42269 c -1.6154,-0.15939 -2.0853,-0.21748 -2.9989,-0.37068 -3.7946,-0.63627 -7.562,-2.17019 -10.7238,-4.36606 -2.3459,-1.62934 -4.7502,-4.01225 -6.3376,-6.28143 -4.1453,-5.92556 -5.4595,-13.08178 -3.6724,-19.99959 1.5661,-6.06331 5.5302,-11.40366 11.0253,-14.85364 0.4433,-0.27824 0.8396,-0.5038 0.8807,-0.50125 0.077,0.006 0.9357,0.99278 0.9357,1.07673 0,0.0259 -0.2379,0.34136 -0.5285,0.70111 -1.8829,2.33059 -3.0484,4.98815 -3.4773,7.92855 -0.1389,0.95234 -0.1608,3.26617 -0.04,4.19968 0.4894,3.7746 2.1643,7.07512 4.9417,9.73839 4.3089,4.13183 10.5931,5.64195 16.4375,3.95001 6.2728,-1.816 10.9892,-7.28068 11.7816,-13.6509 0.1163,-0.93518 0.1,-3.21093 -0.03,-4.13721 -0.4214,-3.00667 -1.656,-5.83612 -3.5338,-8.09786 -0.2618,-0.31541 -0.476,-0.59631 -0.476,-0.62425 0,-0.0848 0.8385,-1.05059 0.9322,-1.07366 0.1831,-0.0452 2.2772,1.37458 3.5266,2.39089 4.6079,3.7482 7.7915,9.10251 8.78,14.76685 0.2768,1.58677 0.344,2.41363 0.344,4.23718 0,2.36743 -0.1988,3.98334 -0.7476,6.07455 -2.4994,9.52363 -10.6093,16.77965 -20.6948,18.51564 -0.5969,0.10277 -1.4222,0.22306 -1.8339,0.26734 -0.7768,0.0835 -3.9664,0.16138 -4.4911,0.10961 z m 3.0689,-1.53177 c 3.7384,-0.23365 6.8983,-1.0771 10.1051,-2.69725 3.9452,-1.99323 6.9406,-4.64716 9.3554,-8.28903 2.0225,-3.05011 3.2233,-6.39176 3.6382,-10.12426 0.1161,-1.04502 0.1155,-3.65726 0,-4.68715 -0.5055,-4.46482 -2.1597,-8.42872 -5.0078,-11.99911 -0.5901,-0.73983 -2.7092,-2.90789 -3.1432,-3.2159 l -0.2483,-0.17619 0.2989,0.58987 c 1.8693,3.69006 2.2966,8.44055 1.1255,12.514 -1.923,6.68864 -7.6637,11.69985 -14.7007,12.83262 -1.1508,0.18527 -3.9578,0.2242 -5.1273,0.0711 -2.121,-0.27759 -4.0199,-0.84783 -5.876,-1.76445 -5.3891,-2.6616 -8.996,-7.58463 -9.8921,-13.50161 -0.1819,-1.20149 -0.1796,-3.6805 0.01,-4.91215 0.2606,-1.74144 0.7641,-3.42306 1.5021,-5.01609 l 0.3387,-0.73101 -0.2433,0.17222 c -0.4417,0.31291 -2.4826,2.41134 -3.1088,3.19637 -3.5993,4.51339 -5.3665,9.94899 -5.0378,15.49537 0.1348,2.27547 0.4262,3.83673 1.0932,5.85674 1.9421,5.88349 6.2028,10.76927 11.929,13.67922 3.4592,1.7579 7.1894,2.66852 11.3489,2.77051 0.247,0.006 0.988,-0.0226 1.6468,-0.0639 z"
       id="path3830-4"
       inkscape:connector-curvature="0" />
  </g>
</svg>
