<?xml version="1.0" encoding="UTF-8" standalone="no"?>
<!-- Created with Inkscape (http://www.inkscape.org/) -->

<svg
   xmlns:dc="http://purl.org/dc/elements/1.1/"
   xmlns:cc="http://creativecommons.org/ns#"
   xmlns:rdf="http://www.w3.org/1999/02/22-rdf-syntax-ns#"
   xmlns:svg="http://www.w3.org/2000/svg"
   xmlns="http://www.w3.org/2000/svg"
   xmlns:sodipodi="http://sodipodi.sourceforge.net/DTD/sodipodi-0.dtd"
   xmlns:inkscape="http://www.inkscape.org/namespaces/inkscape"
   width="325.58624"
   height="216.15517"
   id="svg3907"
   version="1.1"
   inkscape:version="0.48.4 r9939"
   sodipodi:docname="Zuid-Beijerland_vlag_1973.svg">
  <defs
     id="defs3909" />
  <sodipodi:namedview
     id="base"
     pagecolor="#ffffff"
     bordercolor="#666666"
     borderopacity="1.0"
     inkscape:pageopacity="0.0"
     inkscape:pageshadow="2"
     inkscape:zoom="1.979899"
     inkscape:cx="164.5685"
     inkscape:cy="92.57015"
     inkscape:document-units="px"
     inkscape:current-layer="layer1"
     showgrid="false"
     fit-margin-top="0"
     fit-margin-left="0"
     fit-margin-right="0"
     fit-margin-bottom="0"
     inkscape:window-width="1600"
     inkscape:window-height="837"
     inkscape:window-x="-8"
     inkscape:window-y="-8"
     inkscape:window-maximized="1" />
  <metadata
     id="metadata3912">
    <rdf:RDF>
      <cc:Work
         rdf:about="">
        <dc:format>image/svg+xml</dc:format>
        <dc:type
           rdf:resource="http://purl.org/dc/dcmitype/StillImage" />
        <dc:title />
      </cc:Work>
    </rdf:RDF>
  </metadata>
  <g
     inkscape:label="Laag 1"
     inkscape:groupmode="layer"
     id="layer1"
     transform="translate(-145.79996,-415.71317)">
    <rect
       style="fill:#fcdd07;fill-opacity:1;fill-rule:evenodd;stroke:none"
       id="rect3015"
       width="325.58624"
       height="216.15517"
       x="145.79996"
       y="415.71317" />
    <path
       style="fill:#0e45af;fill-opacity:1"
       d="m 184.40108,634.35715 c -0.17242,-0.39385 -2.53729,-6.21589 -5.25539,-12.93785 -2.71821,-6.72196 -5.01058,-12.28764 -5.09402,-12.36818 -0.084,-0.0805 -6.47269,-1.866 -14.19809,-3.96773 -7.7252,-2.10174 -14.12263,-3.86702 -14.21652,-3.92286 -0.0942,-0.0561 -0.17058,-14.06757 -0.17058,-31.2557 0,-18.3843 0.0727,-31.07983 0.17786,-30.97278 0.0972,0.0999 6.57271,15.82144 14.38883,34.937 7.81611,19.11559 14.2751,34.81752 14.35351,34.8932 0.17632,0.17031 83.74456,22.90458 83.92435,22.83115 0.11078,-0.0455 -30.77045,-76.64629 -30.96469,-76.80614 -0.0388,-0.0321 -18.32189,-5.02189 -40.62841,-11.08834 -22.30654,-6.06641 -40.71339,-11.10819 -40.90435,-11.204 -0.32856,-0.16488 -0.3471,-1.99468 -0.3471,-34.33887 0,-18.79059 0.0676,-34.2047 0.14938,-34.25356 0.083,-0.049 11.34064,2.95502 25.01901,6.67534 13.67825,3.72031 24.91078,6.72446 24.96135,6.67586 0.0501,-0.0486 -5.68767,-14.37938 -12.75113,-31.84623 -7.06367,-17.46682 -12.88527,-31.90824 -12.93708,-32.09205 -0.089,-0.31676 0.99041,-0.33373 20.70375,-0.32551 l 20.79763,0.008 18.74167,5.11021 c 10.30784,2.81058 18.7645,5.06089 18.79245,5.00068 0.0286,-0.0603 -0.84223,-2.32227 -1.93369,-5.02679 -1.09146,-2.70449 -1.9845,-4.95871 -1.9845,-5.00936 0,-0.0506 16.93452,-0.0919 37.63212,-0.0916 l 37.63212,5.8e-4 6.81405,16.66115 6.81425,16.66116 41.96346,11.40395 c 23.08005,6.2722 41.99815,11.37077 42.04034,11.33016 0.0419,-0.0405 -5.00782,-12.64868 -11.22218,-28.01792 l -11.29854,-27.9441 33.53126,-0.0484 33.53104,-0.0483 4.60953,1.28958 4.60962,1.28955 3.53414,8.78437 3.53423,8.78439 0.0511,26.3054 c 0.0286,14.46795 0,26.30539 -0.0593,26.30539 -0.0798,0 -57.37627,-15.55328 -60.2067,-16.34316 -0.22137,-0.0618 4.57226,11.87032 15.45051,38.4591 l 15.77129,38.54868 14.2981,3.88127 c 7.86416,2.13466 14.40985,3.91952 14.54621,3.96629 0.19701,0.0675 0.24677,6.67537 0.24196,32.19446 0,18.3148 -0.0799,31.98633 -0.17866,31.82294 -0.0942,-0.15755 -6.66477,-16.35614 -14.59956,-35.99689 -7.93489,-19.64072 -14.44117,-35.72934 -14.45847,-35.75244 -0.0717,-0.0968 -84.29704,-22.96882 -84.41427,-22.92344 -0.16157,0.0625 31.0163,76.31968 31.38171,76.75568 0.17837,0.21299 13.83083,4.00395 40.81109,11.33232 22.29873,6.05672 40.75034,11.0881 41.00365,11.18082 l 0.46055,0.1686 0,6.02013 0,6.02012 -34.28914,0 -34.28894,0 -0.49361,-1.19353 c -0.27134,-0.65645 -3.37165,-8.32609 -6.8892,-17.04361 -3.51766,-8.71754 -6.49562,-15.94559 -6.61767,-16.06232 -0.26447,-0.25296 -84.16833,-23.09606 -84.31484,-22.95498 -0.0553,0.0535 5.15258,12.93626 11.57377,28.62817 l 11.67493,28.53078 -32.39803,0.0485 -32.39802,0.0485 -5.84966,-1.59436 c -3.21745,-0.87688 -5.84985,-1.52481 -5.84985,-1.43986 0,0.085 0.18756,0.60878 0.41692,1.1641 0.22925,0.55528 0.49474,1.20297 0.59007,1.4393 l 0.17324,0.42967 -37.58779,0 -37.58757,0 -0.31342,-0.71612 z m 126.88813,-57.67136 c -0.202,-0.4989 -7.21243,-17.83612 -15.57869,-38.52716 l -15.21133,-37.62006 -42.18051,-11.47645 c -23.19915,-6.31205 -42.21399,-11.44991 -42.25536,-11.41746 -0.0543,0.0424 31.22056,76.73298 31.38787,76.96892 0.0132,0.0176 18.94276,5.18619 42.06737,11.48575 23.1246,6.29957 42.06573,11.46272 42.09133,11.47367 0.0256,0.0113 -0.11887,-0.38832 -0.32068,-0.88721 z m 38.02733,-91.82634 c -8.52792,-21.10015 -15.52913,-38.39341 -15.55821,-38.42948 -0.0644,-0.0808 -84.56817,-23.09033 -84.56817,-23.02731 0,0.19392 31.41307,76.7946 31.54894,76.93205 0.16515,0.16708 83.91266,23.02074 84.02887,22.93047 0.0296,-0.023 -6.92349,-17.30558 -15.45143,-38.40573 z"
       id="path3893"
       inkscape:connector-curvature="0" />
  </g>
</svg>
