<?xml version="1.0" encoding="UTF-8"?>
<svg xmlns="http://www.w3.org/2000/svg" xmlns:xlink="http://www.w3.org/1999/xlink" width="317pt" height="214pt" viewBox="0 0 317 214" version="1.1">
<defs>
<clipPath id="clip0">
  <rect width="317" height="214"/>
</clipPath>
</defs>
<g id="surface0" clip-path="url(#clip0)">
<path style="fill: none; stroke-width: 0.1; stroke-linecap: butt; stroke-linejoin: miter; stroke: rgb(65.882355%,0.392157%,0.392157%); opacity: 1;stroke-miterlimit: 10;" d="M 0 0 L 317 0 L 317 214 L 0 214 L 0 0 Z M 0 0 " transform="matrix(1,0,0,1,0,0)"/>
<path style="stroke: none; fill-rule: nonzero; fill: rgb(65.882355%,0.392157%,0.392157%); opacity: 1;" d="M 0 0 L 317 0 L 317 214 L 0 214 L 0 0 Z M 0 0 "/>
<path style="fill: none; stroke-width: 0.1; stroke-linecap: butt; stroke-linejoin: miter; stroke: rgb(100%,100%,100%); opacity: 1;stroke-miterlimit: 10;" d="M 153.225952 28.288834 C 156.236343 23.061615 157.709641 17.187012 159.544876 11.495224 C 161.420227 18.159286 163.506287 24.84404 167.238464 30.739639 C 169.779633 35.729889 173.748322 39.70932 177.212341 44.038162 C 169.710861 85.621933 165.378937 127.763046 163.4888 169.963348 C 167.394562 169.802826 171.483032 170.710724 175.263824 169.426666 C 177.460556 167.765381 176.777969 164.558884 177.317245 162.159912 C 178.851883 162.245041 180.390366 162.288818 181.932129 162.29747 C 181.936066 166.309265 183.0271 171.395584 179.084274 174.011414 C 174.458679 176.600143 168.902191 176.374237 163.761658 176.413681 C 165.322296 184.481918 166.539825 194.833664 159.957687 201.027664 C 157.522141 200.673233 156.176407 197.899307 155.389099 195.773483 C 153.472275 189.509933 153.768616 182.736877 155.262817 176.4133 C 149.981094 176.327179 144.015533 176.764893 139.537247 173.466492 C 136.020889 170.896606 136.137741 166.215546 135.970062 162.31842 C 137.852341 162.333786 139.737015 162.319077 141.620941 162.241699 C 142.15004 164.617615 141.696167 167.552322 143.539566 169.415039 C 147.386795 170.697784 151.531616 169.81105 155.504837 169.971771 C 153.654587 127.836533 149.229446 85.785782 141.840973 44.25499 C 145.943909 39.163177 150.298935 34.195221 153.225952 28.288834 Z M 153.225952 28.288834 " transform="matrix(1,0,0,1,0,0)"/>
<path style="stroke: none; fill-rule: nonzero; fill: rgb(100%,100%,100%); opacity: 1;" d="M 153.225952 28.288834 C 156.236343 23.061615 157.709641 17.187012 159.544876 11.495224 C 161.420227 18.159286 163.506287 24.84404 167.238464 30.739639 C 169.779633 35.729889 173.748322 39.70932 177.212341 44.038162 C 169.710861 85.621933 165.378937 127.763046 163.4888 169.963348 C 167.394562 169.802826 171.483032 170.710724 175.263824 169.426666 C 177.460556 167.765381 176.777969 164.558884 177.317245 162.159912 C 178.851883 162.245041 180.390366 162.288818 181.932129 162.29747 C 181.936066 166.309265 183.0271 171.395584 179.084274 174.011414 C 174.458679 176.600143 168.902191 176.374237 163.761658 176.413681 C 165.322296 184.481918 166.539825 194.833664 159.957687 201.027664 C 157.522141 200.673233 156.176407 197.899307 155.389099 195.773483 C 153.472275 189.509933 153.768616 182.736877 155.262817 176.4133 C 149.981094 176.327179 144.015533 176.764893 139.537247 173.466492 C 136.020889 170.896606 136.137741 166.215546 135.970062 162.31842 C 137.852341 162.333786 139.737015 162.319077 141.620941 162.241699 C 142.15004 164.617615 141.696167 167.552322 143.539566 169.415039 C 147.386795 170.697784 151.531616 169.81105 155.504837 169.971771 C 153.654587 127.836533 149.229446 85.785782 141.840973 44.25499 C 145.943909 39.163177 150.298935 34.195221 153.225952 28.288834 Z M 153.225952 28.288834 "/>
</g>
</svg>
