<?xml version="1.0" encoding="UTF-8"?>
<svg width="900" height="600" version="1.1" viewBox="0 0 9 6" xmlns="http://www.w3.org/2000/svg" xmlns:cc="http://creativecommons.org/ns#" xmlns:dc="http://purl.org/dc/elements/1.1/" xmlns:rdf="http://www.w3.org/1999/02/22-rdf-syntax-ns#">
<metadata>
<rdf:RDF>
<cc:Work rdf:about="">
<dc:format>image/svg+xml</dc:format>
<dc:type rdf:resource="http://purl.org/dc/dcmitype/StillImage"/>
<dc:title/>
</cc:Work>
</rdf:RDF>
</metadata>
<style type="text/css">.st0{fill:#ED1C24;}
	.st1{fill:#018B44;}
	.st2{fill:#FFFFFF;}</style>
<rect class="st0" width="9" height="6" fill="#ed1c24" stroke-width=".0023702"/>
<polygon class="st1" transform="scale(.0023702)" points="0 2531.4 3797.1 0 3797.1 2531.4" fill="#078930"/>
<g fill="#fff">
<polygon class="st2" transform="scale(.0023702)" points="2011.8 2040.6 1898.6 2123.6 1785.3 2040.6 1829.3 2173.9 1715.3 2256 1855.8 2255.4 1898.6 2389.1 1941.4 2255.4 2081.8 2256 1967.8 2173.9"/>
<polygon class="st2" transform="scale(.0023702)" points="1526.3 2038.7 1460.3 1914.7 1442.1 2054 1303.9 2078.4 1430.6 2138.8 1411.2 2277.8 1507.7 2175.9 1634 2237.4 1566.9 2114.1 1664.4 2013"/>
<polygon class="st2" transform="scale(.0023702)" points="1363.3 1837.4 1227.8 1800.6 1222.1 1660.3 1145.3 1777.9 1010.1 1739.9 1098.2 1849.3 1020.3 1966.1 1151.5 1916.2 1238.6 2026.4 1231.7 1886.1"/>
<polygon class="st2" transform="scale(.0023702)" points="1168.3 1548.5 1062.2 1456.6 1117.9 1327.8 997.7 1400.3 892.4 1307.5 924.2 1444.2 803.4 1515.7 943.3 1527.7 973.9 1664.7 1028.5 1535.3"/>
<polygon class="st2" transform="scale(.0023702)" points="892.4 1224 997.7 1131.1 1117.9 1203.7 1062.2 1074.8 1168.3 982.9 1028.5 996.1 973.9 866.7 943.3 1003.8 803.4 1015.7 924.2 1087.2"/>
<polygon class="st2" transform="scale(.0023702)" points="1145.3 753.6 1222.1 871.1 1227.8 730.8 1363.3 694.1 1231.7 645.3 1238.6 505.1 1151.5 615.2 1020.3 565.3 1098.2 682.1 1010.1 791.5"/>
<polygon class="st2" transform="scale(.0023702)" points="1634 294 1507.7 355.5 1411.2 253.6 1430.6 392.6 1303.8 453 1442.1 477.5 1460.3 616.7 1526.3 492.8 1664.4 518.4 1566.9 417.4"/>
<polygon class="st2" transform="scale(.0023702)" points="1898.6 142.3 1855.8 276.1 1715.3 275.4 1829.3 357.5 1785.3 490.9 1898.6 407.8 2011.8 490.9 1967.8 357.5 2081.8 275.4 1941.4 276.1"/>
<polygon class="st2" transform="scale(.0023702)" points="2270.8 492.8 2336.8 616.7 2355 477.5 2493.3 453 2366.5 392.6 2386 253.6 2289.4 355.5 2163.2 294 2230.2 417.4 2132.8 518.4"/>
<polygon class="st2" transform="scale(.0023702)" points="2433.8 694.1 2569.3 730.8 2575 871.1 2651.8 753.6 2787 791.5 2699 682.1 2776.9 565.3 2645.6 615.2 2558.6 505.1 2565.5 645.3"/>
<polygon class="st2" transform="scale(.0023702)" points="2628.8 982.9 2735 1074.8 2679.2 1203.7 2799.4 1131.1 2904.8 1224 2872.9 1087.2 2993.8 1015.7 2853.9 1003.8 2823.2 866.7 2768.6 996.1"/>
<polygon class="st2" transform="scale(.0023702)" points="2904.8 1307.5 2799.4 1400.3 2679.2 1327.8 2735 1456.6 2628.8 1548.5 2768.6 1535.3 2823.2 1664.7 2853.9 1527.7 2993.8 1515.7 2872.9 1444.2"/>
<polygon class="st2" transform="scale(.0023702)" points="2651.8 1777.9 2575 1660.3 2569.3 1800.6 2433.8 1837.4 2565.5 1886.1 2558.6 2026.4 2645.6 1916.2 2776.9 1966.1 2699 1849.3 2787 1739.9"/>
<polygon class="st2" transform="scale(.0023702)" points="2355 2054 2336.8 1914.7 2270.8 2038.7 2132.8 2013 2230.2 2114.1 2163.2 2237.4 2289.4 2175.9 2386 2277.8 2366.5 2138.8 2493.3 2078.4"/>
</g>
</svg>
