<?xml version="1.0" encoding="UTF-8" standalone="no"?>
<svg
   xmlns:dc="http://purl.org/dc/elements/1.1/"
   xmlns:cc="http://creativecommons.org/ns#"
   xmlns:rdf="http://www.w3.org/1999/02/22-rdf-syntax-ns#"
   xmlns:svg="http://www.w3.org/2000/svg"
   xmlns="http://www.w3.org/2000/svg"
   xmlns:sodipodi="http://sodipodi.sourceforge.net/DTD/sodipodi-0.dtd"
   xmlns:inkscape="http://www.inkscape.org/namespaces/inkscape"
   width="900"
   height="600"
   viewBox="0 0 7.5 5"
   id="svg2"
   sodipodi:version="0.32"
   inkscape:version="0.92.4 (5da689c313, 2019-01-14)"
   sodipodi:docname="Bandera_de_la_Provincia_de_Veraguas.svg"
   inkscape:output_extension="org.inkscape.output.svg.inkscape"
   version="1.0">
  <metadata
     id="metadata10">
    <rdf:RDF>
      <cc:Work
         rdf:about="">
        <dc:format>image/svg+xml</dc:format>
        <dc:type
           rdf:resource="http://purl.org/dc/dcmitype/StillImage" />
      </cc:Work>
    </rdf:RDF>
  </metadata>
  <defs
     id="defs8" />
  <sodipodi:namedview
     inkscape:window-height="986"
     inkscape:window-width="1920"
     inkscape:pageshadow="2"
     inkscape:pageopacity="0.0"
     guidetolerance="10.0"
     gridtolerance="10.0"
     objecttolerance="10.0"
     borderopacity="1.0"
     bordercolor="#666666"
     pagecolor="#ffffff"
     id="base"
     showgrid="false"
     inkscape:zoom="1.1716667"
     inkscape:cx="450"
     inkscape:cy="300"
     inkscape:window-x="-11"
     inkscape:window-y="-11"
     inkscape:current-layer="svg2"
     showguides="true"
     inkscape:guide-bbox="true"
     inkscape:window-maximized="1" />
  <rect
     id="blue_stripe"
     width="7.5008082"
     height="5"
     style="fill:#0f47af;fill-opacity:1"
     x="0"
     y="-3.469447e-17" />
  <path
     id="path4203"
     style="display:inline;fill:#ffffff;fill-opacity:1;stroke:none;stroke-width:0.00918179;stroke-miterlimit:4;stroke-dasharray:none;stroke-opacity:1;enable-background:new"
     d="m 2.6291978,4.2312097 c -0.037973,0.00242 -0.041187,0.020904 -0.019311,0.074254 0.00886,0.021626 0.019572,0.039368 0.023892,0.039427 0.00432,5.93e-5 0.00711,-0.00322 0.00622,-0.00756 -0.00301,-0.014685 0.033127,-0.086738 0.04353,-0.086738 0.00568,0 0.010468,-0.00402 0.010468,-0.00887 0,-0.00485 -0.020982,-0.00954 -0.046475,-0.010514 -0.00687,-2.612e-4 -0.012904,-3.449e-4 -0.018329,0 z m 1.115069,-0.5375171 c -0.00795,-1.115e-4 -0.013419,0.00298 -0.013419,0.0092 0,0.00531 -0.00312,0.017785 -0.00687,0.027599 -0.00566,0.014809 -0.00254,0.016535 0.018329,0.010185 0.037234,-0.011328 0.04887,-0.025429 0.030437,-0.037126 -0.010017,-0.00635 -0.020526,-0.00974 -0.028474,-0.00986 z m 0.2801581,-0.010843 c -0.028468,-3.31e-4 -0.068934,0.00425 -0.1008042,0.012813 -0.029558,0.00794 -0.059248,0.025306 -0.076257,0.044684 -0.017904,0.020397 -0.046229,0.036813 -0.079858,0.045669 -0.051831,0.01365 -0.114286,0.060097 -0.1037505,0.077211 0.00771,0.01253 0.014087,0.011156 0.032074,-0.0069 0.018108,-0.018179 0.03502,-0.020832 0.03502,-0.00525 0,0.017024 0.051314,-1.637e-4 0.080185,-0.026942 0.01433,-0.013291 0.039079,-0.036382 0.054984,-0.051255 0.033279,-0.031117 0.047261,-0.033024 0.088368,-0.0115 0.025665,0.013438 0.03325,0.013797 0.057931,9.828e-4 0.028551,-0.014821 0.057968,-0.061401 0.046148,-0.073268 -0.00397,-0.00399 -0.016957,-0.00605 -0.034038,-0.00625 z M 2.713638,3.5596418 c -0.00498,-1.428e-4 -0.00697,0.00265 -0.00295,0.0092 0.00297,0.00482 -6.419e-4,0.00907 -0.00818,0.00952 -0.010543,6.386e-4 -0.010723,0.00216 -6.546e-4,0.00625 0.022757,0.00921 0.01412,0.025294 -0.011128,0.0207 -0.01779,-0.00324 -0.029564,0.00356 -0.044512,0.025955 -0.011177,0.01675 -0.026833,0.030539 -0.03502,0.030556 -0.02405,4.88e-5 -0.053348,0.032801 -0.053348,0.059796 0,0.013742 -0.00739,0.027758 -0.016364,0.031212 -0.00897,0.00345 -0.013996,0.012208 -0.011127,0.019714 0.00679,0.017787 -0.020288,0.041707 -0.029783,0.026285 -0.00373,-0.00607 -0.013753,-0.010842 -0.022256,-0.010842 -0.012409,0 -0.013276,0.00415 -0.00393,0.021685 0.0064,0.012017 0.00915,0.028933 0.00589,0.037455 -0.00325,0.00853 -0.00175,0.012975 0.00327,0.00986 0.00863,-0.00536 0.023105,0.023744 0.037311,0.074582 0.00349,0.012494 0.019076,0.03064 0.034693,0.040414 0.015616,0.00978 0.057502,0.048091 0.092949,0.085095 0.056944,0.059448 0.06914,0.067309 0.1047323,0.067683 0.022156,2.333e-4 0.066177,0.012034 0.097859,0.026285 0.047506,0.02137 0.067699,0.024925 0.1152053,0.019714 0.061883,-0.00678 0.073884,-0.011816 0.056294,-0.023327 C 3.016449,4.1434138 3.008166,4.1269828 3.00426,4.1109638 3.00035,4.0949448 2.987282,4.0704518 2.975131,4.0564238 L 2.952875,4.0307968 2.933564,4.0537958 C 2.9228,4.0664948 2.91647,4.0698698 2.91949,4.0610258 2.9239,4.0480938 2.91642,4.0453048 2.882179,4.0472258 2.845191,4.0493058 2.83824,4.0460258 2.829486,4.0229128 2.823946,4.0082738 2.821416,3.9931408 2.823916,3.9890718 2.826426,3.9850018 2.815256,3.9755728 2.799042,3.9683718 2.770658,3.9557598 2.769964,3.9539158 2.78006,3.9112038 c 0.011451,-0.048449 0.041008,-0.081152 0.072985,-0.081152 0.016762,0 0.019709,-0.00616 0.017018,-0.03417 -0.00286,-0.029672 -0.00712,-0.034451 -0.033056,-0.034827 -0.02374,-3.45e-4 -0.032881,-0.00739 -0.044512,-0.035156 -0.00805,-0.019219 -0.014727,-0.049351 -0.014727,-0.067025 0,-0.017675 -0.00825,-0.041658 -0.018329,-0.053227 -0.013249,-0.015205 -0.013974,-0.018759 -0.00261,-0.012485 0.00864,0.00478 0.00629,-6.783e-4 -0.00524,-0.012157 C 2.738826,3.5682878 2.721918,3.5598888 2.713623,3.5596488 Z m 0.1142234,-0.00591 c -4.813e-4,-7.67e-5 -8.377e-4,1.463e-4 -0.00131,3.274e-4 -0.00377,0.00145 -0.012764,0.00277 -0.019965,0.00296 -0.00737,1.881e-4 -0.00425,0.00708 0.0072,0.015771 0.025426,0.019306 0.02551,0.019301 0.022256,-0.00296 -0.00129,-0.00885 -0.00481,-0.01557 -0.00818,-0.016099 z m 0.1495705,-0.091669 c -0.00543,0 -0.012805,0.00474 -0.016364,0.010514 -0.00356,0.00579 8.382e-4,0.010514 0.00982,0.010514 0.00898,0 0.016364,-0.00474 0.016364,-0.010514 0,-0.00579 -0.00439,-0.010514 -0.00982,-0.010514 z m 0.08444,-0.1005375 c -0.00165,2.473e-4 -0.00356,7.45e-4 -0.00589,0.00165 -0.00894,0.00344 -0.016364,0.00824 -0.016364,0.010514 0,0.00852 0.020033,0.00375 0.026183,-0.00625 0.00275,-0.00447 0.00101,-0.00666 -0.00393,-0.00591 z m 0.8401469,-0.020698 c -0.00343,5.298e-4 -0.0036,0.00563 -0.0036,0.015771 0,0.011897 -0.00693,0.021356 -0.01571,0.021356 -0.023162,0 -0.019099,0.014198 0.00785,0.027599 0.012961,0.00645 0.031813,0.012432 0.041893,0.013142 0.028952,0.00204 0.02329,-0.045554 -0.00785,-0.06604 -0.012477,-0.0082 -0.019156,-0.012357 -0.022582,-0.011827 z M 2.7208383,3.2258289 c -0.00213,4.459e-4 -0.00525,0.00259 -0.00949,0.00656 -0.00769,0.0072 -0.013746,0.018696 -0.013746,0.025627 0,0.00693 0.00607,0.010185 0.013746,0.00723 0.00769,-0.00296 0.014073,-0.014453 0.014073,-0.025627 0,-0.01029 -0.00104,-0.014543 -0.00458,-0.0138 z m 1.1052503,-0.026613 c -0.00515,0 -0.012067,0.0071 -0.015383,0.015771 -0.00367,0.00961 1.219e-4,0.01577 0.00949,0.01577 0.00845,0 0.015382,-0.0071 0.015382,-0.01577 0,-0.00867 -0.00435,-0.015771 -0.00949,-0.015771 z m 0.1629891,-0.00591 c -0.012089,4.646e-4 -0.028907,0.022237 -0.020619,0.030556 0.00379,0.00381 0.012938,0.0069 0.020619,0.0069 0.015602,0 0.019349,-0.027182 0.00491,-0.036141 -0.00145,-8.943e-4 -0.00318,-0.00138 -0.00491,-0.00131 z M 2.6481805,3.1400796 c -0.00375,1.672e-4 -0.00655,0.00441 -0.00655,0.011171 0,0.00902 0.00471,0.016428 0.010468,0.016428 0.00576,0 0.010468,-0.00441 0.010468,-0.00986 0,-0.00544 -0.00471,-0.012854 -0.010468,-0.016428 -0.00144,-8.937e-4 -0.00268,-0.00136 -0.00393,-0.00131 z M 4.5732043,3.6908798 C 4.5275783,3.7046258 4.4843973,3.6531478 4.4474428,3.6067278 4.3898998,3.5640718 4.3999578,3.5409678 4.3478818,3.491018 4.2905278,3.465198 4.2755838,3.403153 4.3216808,3.354271 c 0.084904,-0.010666 -0.00424,-0.032668 -0.02096,-0.057855 -0.026456,-0.0029 -0.061387,0.037395 -0.08384,0.00526 0.053468,-0.00705 -0.00196,-0.05379 0.0262,-0.078893 0.00317,-0.034865 0.016258,-0.082356 0.010479,-0.1314878 -0.012693,-0.078151 -0.00713,-0.048749 0.08384,-0.073632 -0.00727,-0.063789 0.083849,-0.073063 0.080907,-0.1425478 -0.012359,-0.017536 -0.056025,-0.054332 -0.051125,-0.074924 0.00653,-0.02743 0.065655,-0.036832 0.08152,-0.036244 0.011397,-0.00475 0.036404,-0.031485 0.075289,-0.032188 0.011133,-0.044008 0.065501,-0.011439 0.045232,-0.074981 0.04384,-0.075589 0.07483,0.00726 0.1322602,-0.026298 l 0.031523,6.41e-5 C 4.698669,2.6151425 4.70493,2.6121435 4.664844,2.6002265 4.663794,2.5942565 4.667414,2.5761615 4.655244,2.5702095 4.639248,2.5623895 4.629662,2.5530445 4.62301,2.5473265 4.610416,2.5365025 4.6371,2.5306885 4.6256,2.5127475 4.663987,2.4977055 4.657036,2.4192015 4.671763,2.3883122 4.695092,2.2995242 4.696999,2.2683023 4.687484,2.2305271 4.648125,2.2180971 4.70116,2.1595451 4.669181,2.1621551 4.635117,2.1164361 4.640571,2.1379401 4.604583,2.0837911 4.584431,2.0534711 4.578454,2.0065361 4.569415,1.9838561 4.486798,1.8628475 4.4072442,1.8372227 4.522745,1.8282955 4.544549,1.8266155 4.54484,1.7743835 4.579043,1.7772885 4.655982,1.7822385 4.5783138,1.6763751 4.620359,1.6764874 4.636398,1.6444664 4.630702,1.6535374 4.595271,1.6020314 4.579682,1.5819374 4.575243,1.5589974 4.590611,1.5479364 4.602618,1.5392964 4.636013,1.5349664 4.639976,1.5174434 4.6119821,1.4682863 4.5754778,1.3788662 4.5050415,1.3714777 4.4482963,1.3480028 4.3639274,1.3234297 4.3703661,1.213235 c -0.024853,0.00618 -0.035829,0.011845 -0.046801,0.02286 -0.00993,0.00996 -0.02997,0.018071 -0.044512,0.018071 -0.014539,0 -0.03904,0.0084 -0.05433,0.018728 -0.032655,0.022063 -0.084549,0.040082 -0.1430246,0.04994 -0.023041,0.00388 -0.046606,0.012931 -0.052367,0.020041 -0.00576,0.00712 -0.03875,0.01615 -0.073312,0.020041 -0.034562,0.0039 -0.088761,0.011984 -0.1204419,0.018071 -0.031681,0.00609 -0.071741,0.011238 -0.089022,0.011171 -0.013069,-5.04e-5 -0.024931,-8.12e-5 -0.035913,5.441e-4 -2.161e-4,6.285e-4 -0.013761,0.048648 -0.0051,0.075658 0.013389,0.041773 0.0089,0.086999 0.035414,0.1151908 -0.012979,0.034308 -0.02618,0.074564 -0.025327,0.1030019 6.152e-4,0.020526 0.0146,0.060529 0.016724,0.098357 0.00219,0.038973 0.068788,0.065228 0.078895,0.080298 0.020277,0.030229 0.031483,0.00792 0.037287,0.067765 0.00844,0.08704 0.014865,0.1564336 0.00647,0.1681314 -0.043294,0.00486 -0.064507,-0.00165 -0.08765,-0.062153 -0.015045,-0.039336 0.022468,0.02606 -0.03893,0.010686 -0.014152,-0.00153 -0.03408,-0.063273 -0.054059,-0.094593 -0.020446,-0.032051 -0.020443,0.00745 -0.034865,0.00541 -0.041138,-0.00586 0.020957,0.075207 -0.020592,0.075446 -0.018698,1.073e-4 -0.011837,-0.01029 -0.048382,-0.016836 -0.022256,-0.00399 0.025871,-0.073734 0.015711,-0.088533 -0.016238,-0.023651 -0.085864,-0.0099 -0.1021503,-0.010395 -0.015902,-4.854e-4 -0.017595,0.044725 -0.035349,0.073392 -0.011722,0.018925 -0.034296,0.022766 -0.058821,0.028687 -0.030453,0.00735 -0.019915,0.028581 -0.044496,0.04807 -0.031881,0.02528 -0.027469,0.025635 -0.065003,0.041243 -0.028199,0.070398 -0.086723,-0.00367 -0.1265632,0.082386 -2.466e-4,0.00921 -0.00827,0.012214 -0.017248,0.014319 -0.013634,0.014139 0.00659,0.027971 0.032894,0.043524 -0.00232,0.038637 -0.00645,0.1258073 -6.286e-4,0.097952 0.014426,0.054936 -0.02931,0.027305 -0.036681,0.078894 -0.028805,0.011997 -0.052349,0.054827 -0.03144,0.078893 -0.038393,0.011845 -0.035817,0.022816 -0.078601,0.047335 -0.00465,0.018885 -0.029834,0.025021 -0.036681,0.052595 -0.029073,0.029522 -0.020889,0.038984 -0.0262,0.09467 -0.026083,0.0336 -0.018632,0.085314 -0.0262,0.078893 0.024102,0.03378 -0.00437,0.024861 -0.015721,0.078893 -0.011107,0.027244 -0.00498,0.020367 -0.030764,0.036944 0.020524,0.026101 0.039268,0.053919 0.042738,0.069782 0.0093,0.042521 0.034202,0.032084 0.029783,-0.012486 -0.00185,-0.018571 -1.964e-4,-0.026642 0.0036,-0.018071 0.0038,0.00857 0.013613,0.022209 0.021601,0.030226 0.012383,0.012431 0.011922,0.017126 -0.00196,0.032527 -0.022127,0.024544 -0.010728,0.084767 0.016037,0.084767 0.026166,0 0.033846,0.015885 0.015055,0.031541 -0.02446,0.020378 -0.018391,0.031423 0.013746,0.024971 0.019752,-0.00397 0.033936,-3.661e-4 0.043201,0.010842 0.011864,0.01435 0.010607,0.016757 -0.00884,0.016757 -0.019035,0 -0.020845,0.00305 -0.011782,0.020042 0.00629,0.011805 0.0066,0.021622 9.828e-4,0.023656 -0.00529,0.00191 -0.012762,0.016625 -0.016692,0.032527 -0.00547,0.022137 -0.00352,0.028913 0.00884,0.028913 0.019952,0 0.035004,0.041769 0.018655,0.051912 -0.00734,0.00456 -0.00105,0.012992 0.017018,0.022342 0.01595,0.00826 0.032646,0.019836 0.036983,0.025627 0.00434,0.0058 0.00669,-0.00131 0.00524,-0.01577 -0.00226,-0.022382 0.00127,-0.025843 0.023564,-0.023327 0.057973,0.00654 0.076543,0.013513 0.06513,0.02497 -0.00614,0.00617 -0.00832,0.01868 -0.00491,0.027599 0.00401,0.010489 0.00188,0.013689 -0.00589,0.00887 -0.0066,-0.00409 -0.024934,-5.817e-4 -0.040911,0.00789 l -0.029129,0.015442 0.031419,0.012485 c 0.017281,0.00701 0.054984,0.01366 0.083786,0.014785 0.063105,0.00247 0.092195,0.014082 0.084768,0.033513 -0.00355,0.00929 0.0027,0.014939 0.017674,0.016099 0.012781,9.923e-4 0.032663,0.00243 0.044183,0.00329 0.011521,8.532e-4 0.030372,0.00535 0.041893,0.00986 0.070961,0.027687 0.1195195,0.037429 0.1269876,0.025299 0.0035,-0.00568 0.022389,0.00534 0.042219,0.024641 0.019831,0.019296 0.039529,0.03455 0.04353,0.033842 0.011893,-0.00211 0.037527,0.0087 0.05433,0.022998 0.030882,0.026282 0.08367,-0.040764 0.062838,-0.079839 -0.00875,-0.016396 -0.00739,-0.028236 0.00655,-0.051912 0.014955,-0.025415 0.015865,-0.033335 0.00458,-0.046983 -0.00749,-0.00905 -0.021389,-0.016573 -0.030765,-0.016757 -0.012028,-2.333e-4 -0.00777,-0.00797 0.014401,-0.026285 0.01728,-0.01428 0.038132,-0.033193 0.046475,-0.041726 0.019387,-0.01983 0.02367,-0.095526 0.00622,-0.1100663 -0.00729,-0.00607 -0.011991,-0.022583 -0.010468,-0.03647 0.0019,-0.01741 -0.00328,-0.026622 -0.017019,-0.030226 -0.010956,-0.00288 -0.019964,-0.00925 -0.019964,-0.014128 0,-0.015133 0.055887,-0.00951 0.093277,0.00952 0.026771,0.013635 0.039117,0.015428 0.049748,0.00656 0.010447,-0.0087 0.014073,-0.00871 0.014073,0 0,0.00649 0.011782,0.011827 0.026183,0.011827 0.014401,0 0.026183,-0.00474 0.026183,-0.010514 0,-0.00579 -0.00589,-0.010757 -0.013091,-0.010843 -0.0072,-8.35e-5 -0.00156,-0.00601 0.012437,-0.013142 0.014,-0.00714 0.028865,-0.025943 0.033056,-0.041727 0.00945,-0.035573 0.040911,-0.070899 0.040911,-0.045997 0,0.00874 -0.00471,0.018769 -0.010468,0.022342 -0.00576,0.00357 -0.010468,0.037514 -0.010468,0.075568 0,0.049391 -0.00447,0.072492 -0.01571,0.080825 -0.00866,0.00642 -0.019788,0.026441 -0.024873,0.044354 -0.00803,0.028285 -0.00607,0.035202 0.017018,0.052568 0.014623,0.011 0.031968,0.020578 0.038292,0.021356 0.00632,7.786e-4 0.017471,0.00196 0.024873,0.00262 0.010133,9.135e-4 0.010646,0.00634 0.00229,0.022013 -0.01286,0.024123 -0.00348,0.07374 0.014073,0.074254 0.00657,1.917e-4 6.912e-4,0.00989 -0.013419,0.021685 -0.031077,0.025964 -0.022091,0.04767 0.031093,0.074911 0.019398,0.00993 0.039246,0.025311 0.044183,0.034169 0.00495,0.00885 0.015866,0.016099 0.024219,0.016099 0.00836,0 0.015838,0.00827 0.016692,0.018399 8.528e-4,0.010122 0.00203,0.025394 0.00261,0.034169 5.874e-4,0.00878 0.013272,0.029199 0.028147,0.045341 0.024328,0.0264 0.025857,0.033166 0.01571,0.065711 -0.00621,0.019897 -0.014959,0.036141 -0.019311,0.036141 -0.00435,0 -0.00785,0.00946 -0.00785,0.021028 0,0.011604 0.00712,0.021027 0.01571,0.021027 0.00857,0 0.027347,0.018924 0.041893,0.042056 0.014546,0.023129 0.030969,0.042056 0.036657,0.042056 0.016973,0 0.011716,0.028778 -0.00655,0.035812 -0.010718,0.00413 -0.014908,0.014014 -0.011456,0.02727 0.00299,0.011495 0.00171,0.021028 -0.00295,0.021028 -0.00465,0 0.00522,0.014568 0.021929,0.032527 0.016712,0.017959 0.030437,0.03925 0.030437,0.047312 0,0.00806 0.00354,0.014784 0.00785,0.014784 0.00432,0 0.00785,0.011904 0.00785,0.026613 0,0.018619 -0.00687,0.028567 -0.022582,0.032527 -0.022514,0.00567 -0.034749,0.031204 -0.03502,0.073597 -8.02e-5,0.012303 -0.00714,0.02801 -0.01571,0.035156 -0.019009,0.015837 -0.011155,0.031871 0.01571,0.031871 0.010894,0 0.024566,0.00827 0.030437,0.018399 0.00587,0.010122 0.010952,0.014278 0.011128,0.00952 1.742e-4,-0.00476 0.00769,-0.00115 0.016692,0.00789 0.00901,0.00904 0.013688,0.020735 0.010468,0.025956 -0.00859,0.013946 0.024081,0.023591 0.044512,0.013142 0.00966,-0.00495 0.031813,-0.00761 0.049093,-0.00591 0.035566,0.00352 0.047114,0.00366 0.1780444,3.275e-4 0.054857,-0.0014 0.1149969,-0.0099 0.1436791,-0.020041 0.027107,-0.00958 0.072793,-0.018128 0.1017524,-0.019197 -0.00174,-0.016172 0.00237,-0.052895 -0.018308,-0.1031593 -0.04737,-0.013104 -0.034414,-0.038849 -0.092956,-0.06883 -0.00349,-0.011052 -0.011417,-0.068425 -0.014755,-0.1008977 -0.00338,-0.032901 -0.063649,-0.016955 -0.062322,-0.038089 0.00242,-0.038471 0.018628,-0.019928 0.014109,-0.048213 -0.00754,-0.047211 -0.047166,-0.043729 -0.049221,-0.085287 -0.00119,-0.024093 0.024286,-0.030015 0.02108,-0.051253 -0.0044,-0.029087 -0.00501,-0.038927 -0.017562,-0.062488 0.033862,-0.04302 -0.046869,-0.055785 -0.078601,-0.09467"
     inkscape:connector-curvature="0"
     sodipodi:nodetypes="ccccssccccscccccccccccsccccccccccccccscccsccccccccccccccccccccscccsccccccccccccscsssccsccccsscccccccscsccccssccccsccccssscccccccccccccccccccccccccccccccccccccscccccccccccccccccccccccccccccccccccccccccccscccscccscccccccccccccccccccccccccccccsccssscccscsccccccccccsccccssscsccscssscccscccccccccccccccccc" />
  <path
     d="M 3.2953945,0.49460646 3.2668603,0.67716849 3.0846609,0.70705982 3.2503322,0.7901626 3.2222997,0.97172789 3.3532248,0.84052646 3.5180988,0.92284829 3.4333426,0.75865845 3.5632734,0.62797097 3.3799668,0.65769766 Z"
     style="fill:#ffffff;fill-opacity:1;stroke:none;stroke-width:1;stroke-miterlimit:4;stroke-dasharray:none;stroke-dashoffset:0;stroke-opacity:1"
     id="path2575"
     inkscape:connector-curvature="0" />
  <path
     inkscape:connector-curvature="0"
     id="path857"
     style="fill:#ffffff;fill-opacity:1;stroke:none;stroke-width:1;stroke-miterlimit:4;stroke-dasharray:none;stroke-dashoffset:0;stroke-opacity:1"
     d="m 4.1651863,0.49460646 0.028534,0.18256203 0.1821994,0.0298913 -0.1656713,0.0831028 0.028033,0.18156529 L 4.107356,0.84052646 3.942482,0.92284829 4.0272382,0.75865845 3.8973074,0.62797097 4.080614,0.65769766 Z" />
  <path
     inkscape:connector-curvature="0"
     id="path859"
     style="fill:#ffffff;fill-opacity:1;stroke:none;stroke-width:1;stroke-miterlimit:4;stroke-dasharray:none;stroke-dashoffset:0;stroke-opacity:1"
     d="M 4.9483536,0.77031258 4.9159966,0.95223612 5.0785857,1.0397275 4.8948985,1.0644655 4.8623925,1.2452834 4.7812235,1.0786518 4.5985436,1.1029068 4.7320662,0.97518498 4.6516712,0.80936052 4.8153614,0.89705622 Z" />
  <path
     inkscape:connector-curvature="0"
     id="path861"
     style="fill:#ffffff;fill-opacity:1;stroke:none;stroke-width:1;stroke-miterlimit:4;stroke-dasharray:none;stroke-dashoffset:0;stroke-opacity:1"
     d="M 5.6322124,1.3439273 5.5433754,1.5059493 5.6694455,1.6408433 5.4874932,1.6055383 5.3988672,1.7664644 5.3752512,1.5826232 5.1944073,1.5471862 5.3617642,1.4688712 5.3386232,1.2860441 5.4656709,1.4214836 Z" />
  <path
     inkscape:connector-curvature="0"
     id="path863"
     style="fill:#ffffff;fill-opacity:1;stroke:none;stroke-width:1;stroke-miterlimit:4;stroke-dasharray:none;stroke-dashoffset:0;stroke-opacity:1"
     d="M 6.0496694,2.0564206 5.9100035,2.1774019 5.9812533,2.3477358 5.8229585,2.2513208 5.6838713,2.3713482 5.7257059,2.1907794 5.568496,2.0946265 5.7526458,2.0794437 5.7945715,1.8999905 5.8665476,2.0711758 Z" />
  <path
     inkscape:connector-curvature="0"
     id="path865"
     style="fill:#ffffff;fill-opacity:1;stroke:none;stroke-width:1;stroke-miterlimit:4;stroke-dasharray:none;stroke-dashoffset:0;stroke-opacity:1"
     d="M 6.2132787,2.8880723 6.0402105,2.9528065 6.0476386,3.1372921 5.9328591,2.9917626 5.7606658,3.0558042 5.8627973,2.9011285 5.7489439,2.7562227 l 0.1778994,0.049934 0.1018279,-0.153598 0.00781,0.1855371 z" />
  <path
     inkscape:connector-curvature="0"
     id="path867"
     style="fill:#ffffff;fill-opacity:1;stroke:none;stroke-width:1;stroke-miterlimit:4;stroke-dasharray:none;stroke-dashoffset:0;stroke-opacity:1"
     d="m 6.0622697,3.7455132 -0.1846501,0.00689 -0.051093,0.177425 -0.063061,-0.1742884 -0.1836017,0.0065 L 5.7255412,3.6474396 5.6631627,3.4740349 5.8162562,3.577495 5.9613054,3.4638197 5.9102464,3.6423635 Z" />
  <path
     d="m 2.5122272,0.77031258 0.032357,0.18192354 -0.1625891,0.0874914 0.1836872,0.024738 0.032506,0.1808179 0.081169,-0.1666316 0.1826799,0.024255 -0.1335226,-0.12772177 0.080395,-0.16582446 -0.1636902,0.0876957 z"
     style="fill:#ffffff;fill-opacity:1;stroke:none;stroke-width:1;stroke-miterlimit:4;stroke-dasharray:none;stroke-dashoffset:0;stroke-opacity:1"
     id="path39"
     inkscape:connector-curvature="0" />
  <path
     d="m 1.8283684,1.3439273 0.088837,0.162022 -0.1260701,0.134894 0.1819523,-0.035305 0.088626,0.1609261 0.023616,-0.1838412 0.1808439,-0.035437 -0.1673569,-0.078315 0.023141,-0.1828271 -0.1270477,0.1354395 z"
     style="fill:#ffffff;fill-opacity:1;stroke:none;stroke-width:1;stroke-miterlimit:4;stroke-dasharray:none;stroke-dashoffset:0;stroke-opacity:1"
     id="path41"
     inkscape:connector-curvature="0" />
  <path
     d="M 1.4109114,2.0564206 1.5505773,2.1774019 1.4793275,2.3477358 1.6376223,2.2513208 1.7767095,2.3713482 1.7348749,2.1907794 1.8920848,2.0946265 1.707935,2.0794437 1.6660093,1.8999905 1.5940332,2.0711758 Z"
     style="fill:#ffffff;fill-opacity:1;stroke:none;stroke-width:1;stroke-miterlimit:4;stroke-dasharray:none;stroke-dashoffset:0;stroke-opacity:1"
     id="path43"
     inkscape:connector-curvature="0" />
  <path
     d="M 1.2473021,2.8880723 1.4203703,2.9528065 1.4129422,3.1372921 1.5277217,2.9917626 1.699915,3.0558042 1.5977835,2.9011285 1.7116369,2.7562227 1.5337375,2.8061567 1.4319096,2.6525587 1.4240996,2.8380958 Z"
     style="fill:#ffffff;fill-opacity:1;stroke:none;stroke-width:1;stroke-miterlimit:4;stroke-dasharray:none;stroke-dashoffset:0;stroke-opacity:1"
     id="path45"
     inkscape:connector-curvature="0" />
  <path
     d="m 1.3983111,3.7455132 0.1846501,0.00689 0.051093,0.177425 0.063061,-0.1742884 0.1836017,0.0065 L 1.7350396,3.6474396 1.7974181,3.4740349 1.6443246,3.577495 1.4992754,3.4638197 1.5503344,3.6423635 Z"
     style="fill:#ffffff;fill-opacity:1;stroke:none;stroke-width:1;stroke-miterlimit:4;stroke-dasharray:none;stroke-dashoffset:0;stroke-opacity:1"
     id="path47"
     inkscape:connector-curvature="0" />
</svg>
