<?xml version="1.0" encoding="UTF-8" standalone="no"?>
<!DOCTYPE svg PUBLIC "-//W3C//DTD SVG 1.1//EN" "http://www.w3.org/Graphics/SVG/1.1/DTD/svg11.dtd">
<svg width="100%" height="100%" viewBox="0 0 1800 900" version="1.1" xmlns="http://www.w3.org/2000/svg" xmlns:xlink="http://www.w3.org/1999/xlink" xml:space="preserve" xmlns:serif="http://www.serif.com/" style="fill-rule:evenodd;clip-rule:evenodd;stroke-linecap:round;stroke-linejoin:round;stroke-miterlimit:1.5;">
    <rect id="Artboard1" x="0" y="0" width="1800" height="900" style="fill:none;"/>
    <clipPath id="_clip1">
        <rect id="Artboard11" serif:id="Artboard1" x="0" y="0" width="1800" height="900"/>
    </clipPath>
    <g clip-path="url(#_clip1)">
        <g transform="matrix(0.954622,0,0,0.913999,34.3907,21.3539)">
            <rect x="-36.025" y="-23.363" width="1885.56" height="328.228" style="fill:rgb(2,1,99);"/>
        </g>
        <g transform="matrix(0.954622,0,0,0.913999,34.3907,321.354)">
            <rect x="-36.025" y="-23.363" width="1885.56" height="328.228" style="fill:rgb(252,209,22);"/>
        </g>
        <g transform="matrix(0.954622,0,0,0.913999,34.3907,621.354)">
            <rect x="-36.025" y="-23.363" width="1885.56" height="328.228" style="fill:rgb(16,99,51);"/>
        </g>
        <g id="Official_Seal_of_Cagayan.afdesign" transform="matrix(0.2,0,0,0.2,600,450)">
            <g id="Layer1">
                <g id="Official_Seal_of_Cagayan.afdesign1" serif:id="Official_Seal_of_Cagayan.afdesign" transform="matrix(1,0,0,1,-1500,-1500)">
                    <g id="layer1" transform="matrix(7.83951,0,0,7.83951,367.29,-1779.32)">
                        <path id="path19044-5" d="M77.651,307.241L32.189,348.983C34.461,352.573 36.732,356.164 38.813,360.549C40.895,364.935 42.787,370.117 44.538,376.525C46.289,382.933 47.901,390.572 48.741,397.399C49.582,404.227 49.649,410.253 49.439,415.995C49.229,421.737 48.74,427.202 47.514,433.47C46.289,439.738 44.33,446.813 43.314,453.396C42.299,459.978 42.225,466.213 42.646,473.182C43.067,480.15 43.977,488.135 46.533,495.665C49.089,503.195 53.361,510.38 57.46,515.752C61.56,521.125 65.62,524.907 71.434,528.234C77.248,531.561 84.811,534.435 93.322,536.571C101.833,538.707 111.287,540.106 118.888,541.682C126.488,543.258 132.233,545.009 136.179,547.355C140.125,549.701 142.276,552.644 144.428,555.586C146.58,552.644 148.73,549.701 152.677,547.355C156.623,545.009 162.368,543.258 169.968,541.682C177.568,540.106 187.023,538.707 195.534,536.571C204.045,534.435 211.608,531.561 217.422,528.234C223.236,524.907 227.296,521.125 231.395,515.752C235.494,510.38 239.766,503.195 242.323,495.665C244.879,488.135 245.789,480.15 246.21,473.182C246.631,466.213 246.557,459.978 245.541,453.396C244.526,446.813 242.567,439.738 241.342,433.47C240.116,427.202 239.623,421.737 239.413,415.995C239.203,410.253 239.274,404.227 240.114,397.399C240.955,390.572 242.567,382.933 244.318,376.525C246.069,370.117 247.961,364.935 250.042,360.549C252.124,356.164 254.395,352.573 256.667,348.983L211.201,307.241L77.651,307.241Z" style="fill:none;fill-rule:nonzero;"/>
                        <clipPath id="_clip2">
                            <path id="path19044-51" serif:id="path19044-5" d="M77.651,307.241L32.189,348.983C34.461,352.573 36.732,356.164 38.813,360.549C40.895,364.935 42.787,370.117 44.538,376.525C46.289,382.933 47.901,390.572 48.741,397.399C49.582,404.227 49.649,410.253 49.439,415.995C49.229,421.737 48.74,427.202 47.514,433.47C46.289,439.738 44.33,446.813 43.314,453.396C42.299,459.978 42.225,466.213 42.646,473.182C43.067,480.15 43.977,488.135 46.533,495.665C49.089,503.195 53.361,510.38 57.46,515.752C61.56,521.125 65.62,524.907 71.434,528.234C77.248,531.561 84.811,534.435 93.322,536.571C101.833,538.707 111.287,540.106 118.888,541.682C126.488,543.258 132.233,545.009 136.179,547.355C140.125,549.701 142.276,552.644 144.428,555.586C146.58,552.644 148.73,549.701 152.677,547.355C156.623,545.009 162.368,543.258 169.968,541.682C177.568,540.106 187.023,538.707 195.534,536.571C204.045,534.435 211.608,531.561 217.422,528.234C223.236,524.907 227.296,521.125 231.395,515.752C235.494,510.38 239.766,503.195 242.323,495.665C244.879,488.135 245.789,480.15 246.21,473.182C246.631,466.213 246.557,459.978 245.541,453.396C244.526,446.813 242.567,439.738 241.342,433.47C240.116,427.202 239.623,421.737 239.413,415.995C239.203,410.253 239.274,404.227 240.114,397.399C240.955,390.572 242.567,382.933 244.318,376.525C246.069,370.117 247.961,364.935 250.042,360.549C252.124,356.164 254.395,352.573 256.667,348.983L211.201,307.241L77.651,307.241Z" clip-rule="nonzero"/>
                        </clipPath>
                        <g clip-path="url(#_clip2)">
                            <g id="path19044-2-9" transform="matrix(1,0,0,1.01762,0.119452,-5.4765)">
                                <path d="M77.651,307.302L32.188,348.983C34.461,352.573 36.732,356.164 38.813,360.549C40.895,364.935 42.787,370.117 44.538,376.525C46.289,382.933 47.901,390.572 48.741,397.399C49.582,404.227 49.649,410.253 49.439,415.995C49.229,421.737 48.74,427.202 47.514,433.47C46.289,439.738 44.33,446.813 43.314,453.396C42.299,459.978 42.225,466.213 42.646,473.182C43.067,480.15 43.977,488.135 46.533,495.665C49.089,503.195 53.361,506.141 57.46,511.514C61.56,516.886 65.62,520.668 71.434,523.995C77.248,527.323 84.811,530.196 93.322,532.332C101.833,534.469 111.287,535.867 118.888,537.443C126.488,539.019 132.233,540.77 136.179,543.116C140.125,545.462 142.276,548.405 144.428,551.347C146.58,548.405 148.73,545.462 152.677,543.116C156.623,540.77 162.368,539.019 169.968,537.443C177.568,535.867 187.023,534.469 195.534,532.332C204.045,530.196 211.608,527.323 217.422,523.995C223.236,520.668 227.296,516.886 231.395,511.514C235.494,506.141 239.766,503.195 242.323,495.665C244.879,488.135 245.789,480.15 246.21,473.182C246.631,466.213 246.557,459.978 245.541,453.396C244.526,446.813 242.567,439.738 241.342,433.47C240.116,427.202 239.623,421.737 239.413,415.995C239.203,410.253 239.274,404.227 240.114,397.399C240.955,390.572 242.567,382.933 244.318,376.525C246.069,370.117 247.961,364.935 250.042,360.549C252.124,356.164 254.395,352.573 256.667,348.983L211.201,307.302L77.651,307.302Z" style="fill:rgb(242,242,242);fill-rule:nonzero;"/>
                            </g>
                            <g transform="matrix(-8.73272e-18,0.142616,0.0901555,5.52043e-18,95.5372,249.976)">
                                <path d="M833.564,1704.72C829.02,1612.78 823.936,1496.09 823.137,1420.18C821.648,1278.74 841.025,1137.2 841.025,995.714C841.025,868.256 856.319,787.095 908.464,766.647C933.855,756.69 972.828,756.639 994.602,756.639C1083.97,756.639 1173.56,784.937 1262.93,784.937C1352.23,784.937 1441.53,756.639 1530.84,756.639C1620.28,756.639 1710.07,784.937 1799.58,784.937C1886.88,784.937 1973.29,755.735 2060.56,756.525C2055.12,785.207 2050.14,817.642 2045.39,853.879C2034.34,938.18 2024.54,1043.05 2009.56,1137.45C1994.58,1231.86 1974.43,1315.74 1951.1,1380.23C1927.77,1444.72 1901.25,1489.76 1863.58,1535.23C1825.91,1580.69 1775.53,1628.08 1722.73,1656.43C1669.93,1684.79 1613.94,1694.88 1565.08,1699.55C1516.22,1704.22 1472.5,1703.4 1426.35,1692.13C1380.19,1680.87 1330.58,1659.14 1286.63,1645.55C1242.68,1631.96 1204.36,1626.48 1164.1,1624.15C1123.83,1621.82 1081.58,1622.62 1033.71,1631.94C985.834,1641.26 932.276,1659.14 887.344,1678.56C867.887,1686.97 850.042,1695.68 833.564,1704.72Z" style="fill:rgb(13,62,76);"/>
                            </g>
                            <g transform="matrix(-8.73272e-18,0.142616,0.0901555,5.52043e-18,67.3432,249.976)">
                                <path d="M2055.98,615.151C1971.25,616.036 1884.33,643.449 1799.58,643.449C1710.14,643.449 1620.7,615.151 1531.26,615.151C1441.81,615.151 1352.37,643.449 1262.93,643.449C1173.49,643.449 1083.97,615.151 994.602,615.151C973.435,615.151 936.325,624.231 898.492,605.795C854.196,584.209 841.025,544.406 841.025,402.919C841.025,261.431 823.137,119.833 823.137,-21.545C823.137,-97.933 828.368,-215.628 833.172,-307.622C849.71,-298.538 867.801,-289.699 887.344,-281.252C932.276,-261.832 985.834,-243.95 1033.71,-234.628C1081.58,-225.307 1123.83,-224.555 1164.1,-226.885C1204.36,-229.215 1242.68,-234.648 1286.63,-248.241C1330.58,-261.833 1380.19,-283.559 1426.35,-294.824C1472.5,-306.089 1516.22,-306.911 1565.08,-302.241C1613.94,-297.572 1669.93,-287.478 1722.73,-259.122C1775.53,-230.767 1825.91,-183.384 1863.58,-137.916C1901.25,-92.448 1927.77,-47.414 1951.1,17.076C1974.43,81.566 1994.58,165.454 2009.56,259.856C2024.54,354.257 2034.34,459.13 2045.39,543.431C2048.78,569.246 2052.28,593.131 2055.98,615.105L2055.98,615.151Z" style="fill:rgb(13,62,76);"/>
                            </g>
                            <g transform="matrix(0.142616,-3.14457e-33,1.57229e-33,0.0901555,-73.8944,292.492)">
                                <path d="M1393.72,848.313C1420.47,894.637 1424.26,983.007 1423.42,1062.88C1421.93,1204.25 1439.82,1345.74 1441.31,1487.34C1442.8,1628.94 1424.91,1770.98 1423.42,1912.47C1421.93,2053.68 1439.82,2194.89 1441.31,2336.26C1442.8,2477.64 1424.91,2619.13 1423.42,2760.73C1421.93,2902.33 1441.31,3185.86 1441.31,3185.86L1530.75,3185.86C1530.75,3185.86 1511.37,2902.33 1512.86,2760.73C1514.35,2619.13 1532.24,2477.64 1530.75,2336.26C1529.26,2194.89 1511.37,2053.68 1512.86,1912.47C1514.35,1770.98 1532.24,1628.94 1530.75,1487.34C1529.26,1345.74 1511.37,1204.25 1512.86,1062.88C1514.35,921.498 1496.83,798.995 1455.17,729.091C1413.52,659.186 1352.37,643.449 1262.93,643.449C1173.49,643.449 1083.97,615.151 994.602,615.151C905.3,615.151 726.695,643.449 726.695,643.449L726.695,784.937C726.695,784.937 905.3,756.639 994.602,756.639C1083.97,756.639 1173.56,784.937 1262.93,784.937C1319.92,784.937 1366.97,801.99 1393.72,848.313Z" style="fill:rgb(4,91,145);"/>
                            </g>
                            <g transform="matrix(0.142616,-3.14457e-33,1.57229e-33,0.0901555,-73.8944,292.492)">
                                <path d="M1657.13,850.721C1687,804.398 1743.33,784.937 1799.58,784.937C1889.02,784.937 1978.5,754.284 2067.91,756.639C2157.42,758.997 2336.65,784.937 2336.65,784.937L2336.65,643.449C2336.65,643.449 2157.42,617.509 2067.91,615.151C1978.5,612.796 1889.02,643.449 1799.58,643.449C1716.11,643.449 1640.95,685.471 1600,749.413C1555.22,819.317 1532.42,921.498 1530.92,1062.88C1529.43,1204.25 1547.32,1345.74 1548.81,1487.34C1550.3,1628.94 1532.42,1770.98 1530.92,1912.47C1529.44,2053.68 1547.32,2194.89 1548.81,2336.26C1550.3,2477.64 1532.42,2619.13 1530.92,2760.73C1529.43,2902.33 1548.81,3185.86 1548.81,3185.86L1638.26,3185.86C1638.26,3185.86 1618.88,2902.33 1620.37,2760.73C1621.86,2619.13 1639.75,2477.64 1638.26,2336.26C1636.77,2194.89 1618.88,2053.68 1620.37,1912.47C1621.86,1770.98 1639.75,1628.94 1638.26,1487.34C1636.77,1345.74 1618.88,1204.25 1620.37,1062.88C1621.21,983.299 1627.26,897.044 1657.13,850.721Z" style="fill:rgb(4,91,145);"/>
                            </g>
                            <g transform="matrix(0.142616,0,0,0.0975083,-73.8944,267.64)">
                                <path d="M2336.65,643.449C2336.65,643.449 2157.42,612.793 2067.91,615.151C1978.4,617.509 1888.95,645.807 1799.58,643.449C1710.21,641.091 1620.95,612.798 1531.67,615.151C1442.23,617.509 1352.44,645.807 1262.93,643.449C1173.42,641.091 1083.97,612.793 994.602,615.151C905.23,617.509 726.695,643.449 726.695,643.449L726.695,784.937C726.695,784.937 905.23,758.997 994.602,756.639C1083.97,754.281 1173.42,782.579 1262.93,784.937C1352.44,787.295 1442.23,758.997 1531.67,756.639C1620.95,754.285 1710.21,782.579 1799.58,784.937C1888.95,787.295 1978.4,758.997 2067.91,756.639C2157.42,754.281 2336.65,784.937 2336.65,784.937L2336.65,643.449Z" style="fill:rgb(4,91,145);"/>
                            </g>
                            <g transform="matrix(0.142616,0,0,0.0976685,-73.8944,247.67)">
                                <path d="M2336.65,643.449C2336.65,643.449 2157.42,615.151 2067.91,615.151C1978.47,615.151 1889.02,643.449 1799.58,643.449C1710.14,643.449 1620.7,615.151 1531.26,615.151C1441.81,615.151 1352.37,643.449 1262.93,643.449C1173.49,643.449 1083.97,615.151 994.602,615.151C905.3,615.151 726.695,643.449 726.695,643.449L726.695,784.937C726.695,784.937 905.3,756.639 994.602,756.639C1083.97,756.639 1173.49,784.937 1262.93,784.937C1352.44,784.937 1442.23,756.639 1531.67,756.639C1620.98,756.639 1710.28,784.937 1799.58,784.937C1888.95,784.937 1978.47,756.639 2067.91,756.639C2157.42,756.639 2336.65,784.937 2336.65,784.937L2336.65,643.449Z" style="fill:rgb(4,91,145);"/>
                            </g>
                            <g transform="matrix(0.131187,0,0,0.123474,-669.889,307.26)">
                                <g>
                                    <g transform="matrix(0.97437,-0.224951,0.224951,0.97437,-115.962,1526.01)">
                                        <path d="M6551.55,1584.33C6551.55,1584.33 6563.76,1588.47 6568.16,1589.97C6582.88,1539.08 6605.16,1469.07 6609.9,1445.64C6605.89,1446.26 6601.77,1446.84 6598.67,1445.64C6589.97,1482.32 6565.84,1552.62 6551.55,1584.33Z" style="fill:rgb(252,209,22);stroke:rgb(13,13,13);stroke-width:2.06px;"/>
                                    </g>
                                    <g transform="matrix(-0.970296,-0.241922,-0.241922,0.970296,13418,1643.96)">
                                        <path d="M6551.55,1584.33C6551.55,1584.33 6563.76,1588.47 6568.16,1589.97C6582.88,1539.08 6605.16,1469.07 6609.9,1445.64C6605.89,1446.26 6601.77,1446.84 6598.67,1445.64C6589.97,1482.32 6565.84,1552.62 6551.55,1584.33Z" style="fill:rgb(252,209,22);stroke:rgb(13,13,13);stroke-width:2.06px;"/>
                                    </g>
                                    <g transform="matrix(0.992546,-0.121869,0.121869,0.992546,-102.987,817.537)">
                                        <path d="M6551.55,1584.33C6551.55,1584.33 6563.76,1588.47 6568.16,1589.97C6582.88,1539.08 6605.16,1469.07 6609.9,1445.64C6605.89,1446.26 6601.77,1446.84 6598.67,1445.64C6589.97,1482.32 6565.84,1552.62 6551.55,1584.33Z" style="fill:rgb(252,209,22);stroke:rgb(13,13,13);stroke-width:2.07px;"/>
                                    </g>
                                    <g transform="matrix(-0.992546,-0.121869,-0.121869,0.992546,13406.5,818.377)">
                                        <path d="M6551.55,1584.33C6551.55,1584.33 6563.76,1588.47 6568.16,1589.97C6582.88,1539.08 6605.16,1469.07 6609.9,1445.64C6605.89,1446.26 6601.77,1446.84 6598.67,1445.64C6589.97,1482.32 6565.84,1552.62 6551.55,1584.33Z" style="fill:rgb(252,209,22);stroke:rgb(13,13,13);stroke-width:2.07px;"/>
                                    </g>
                                    <g transform="matrix(0.99863,-0.052336,0.052336,0.99863,-63.1877,347.917)">
                                        <path d="M6551.55,1584.33C6551.55,1584.33 6563.76,1588.47 6568.16,1589.97C6582.88,1539.08 6605.16,1469.07 6609.9,1445.64C6605.89,1446.26 6601.77,1446.84 6598.67,1445.64C6589.97,1482.32 6565.84,1552.62 6551.55,1584.33Z" style="fill:rgb(252,209,22);stroke:rgb(13,13,13);stroke-width:2.08px;"/>
                                    </g>
                                    <g transform="matrix(-0.99863,-0.052336,-0.052336,0.99863,13364.2,347.917)">
                                        <path d="M6551.55,1584.33C6551.55,1584.33 6563.76,1588.47 6568.16,1589.97C6582.88,1539.08 6605.16,1469.07 6609.9,1445.64C6605.89,1446.26 6601.77,1446.84 6598.67,1445.64C6589.97,1482.32 6565.84,1552.62 6551.55,1584.33Z" style="fill:rgb(252,209,22);stroke:rgb(13,13,13);stroke-width:2.08px;"/>
                                    </g>
                                    <g transform="matrix(1,0,1.36846e-48,1,-4.84327,-0.841775)">
                                        <path d="M6551.55,1584.33C6551.55,1584.33 6563.76,1588.47 6568.16,1589.97C6582.88,1539.08 6605.16,1469.07 6609.9,1445.64C6605.89,1446.26 6601.77,1446.84 6598.67,1445.64C6589.97,1482.32 6565.84,1552.62 6551.55,1584.33Z" style="fill:rgb(252,209,22);stroke:rgb(13,13,13);stroke-width:2.09px;"/>
                                    </g>
                                    <g transform="matrix(0.996195,-0.0871557,0.0871557,0.996195,-87.2905,582.547)">
                                        <path d="M6551.55,1584.33C6551.55,1584.33 6563.76,1588.47 6568.16,1589.97C6582.88,1539.08 6605.16,1469.07 6609.9,1445.64C6605.89,1446.26 6601.77,1446.84 6598.67,1445.64C6589.97,1482.32 6565.84,1552.62 6551.55,1584.33Z" style="fill:rgb(252,209,22);stroke:rgb(13,13,13);stroke-width:2.08px;"/>
                                    </g>
                                    <g transform="matrix(0.984808,-0.173648,0.173648,0.984808,-118.058,1171.06)">
                                        <path d="M6551.55,1584.33C6551.55,1584.33 6563.76,1588.47 6568.16,1589.97C6582.88,1539.08 6605.16,1469.07 6609.9,1445.64C6605.89,1446.26 6601.77,1446.84 6598.67,1445.64C6589.97,1482.32 6565.84,1552.62 6551.55,1584.33Z" style="fill:rgb(252,209,22);stroke:rgb(13,13,13);stroke-width:2.06px;"/>
                                    </g>
                                    <g transform="matrix(1.01786,-0.330723,0.309017,0.951057,-517.705,2258.27)">
                                        <path d="M6551.55,1584.33C6551.55,1584.33 6563.76,1588.47 6568.16,1589.97C6582.88,1539.08 6605.16,1469.07 6609.9,1445.64C6605.89,1446.26 6601.77,1446.84 6598.67,1445.64C6589.97,1482.32 6565.84,1552.62 6551.55,1584.33Z" style="fill:rgb(252,209,22);stroke:rgb(13,13,13);stroke-width:1.98px;"/>
                                    </g>
                                    <g transform="matrix(-0.984808,-0.173648,-0.173648,0.984808,13421.6,1171.82)">
                                        <path d="M6551.55,1584.33C6551.55,1584.33 6563.76,1588.47 6568.16,1589.97C6582.88,1539.08 6605.16,1469.07 6609.9,1445.64C6605.89,1446.26 6601.77,1446.84 6598.67,1445.64C6589.97,1482.32 6565.84,1552.62 6551.55,1584.33Z" style="fill:rgb(252,209,22);stroke:rgb(13,13,13);stroke-width:2.06px;"/>
                                    </g>
                                    <g transform="matrix(-0.996195,-0.0871557,-0.0871557,0.996195,13389.6,583.098)">
                                        <path d="M6551.55,1584.33C6551.55,1584.33 6563.76,1588.47 6568.16,1589.97C6582.88,1539.08 6605.16,1469.07 6609.9,1445.64C6605.89,1446.26 6601.77,1446.84 6598.67,1445.64C6589.97,1482.32 6565.84,1552.62 6551.55,1584.33Z" style="fill:rgb(252,209,22);stroke:rgb(13,13,13);stroke-width:2.08px;"/>
                                    </g>
                                    <g transform="matrix(-1,0,-1.36846e-48,1,13305.6,-0.983389)">
                                        <path d="M6551.55,1584.33C6551.55,1584.33 6563.76,1588.47 6568.16,1589.97C6582.88,1539.08 6605.16,1469.07 6609.9,1445.64C6605.89,1446.26 6601.77,1446.84 6598.67,1445.64C6589.97,1482.32 6565.84,1552.62 6551.55,1584.33Z" style="fill:rgb(252,209,22);stroke:rgb(13,13,13);stroke-width:2.09px;"/>
                                    </g>
                                </g>
                                <g>
                                    <g transform="matrix(1.1706,0,0,1.1976,-1112.61,-308.36)">
                                        <g transform="matrix(1,1.22465e-16,1.22465e-16,-1,-1.53615,2877.93)">
                                            <path d="M6544.56,1537.11L6578.39,1519.05C6578.39,1519.05 6543.74,1533.25 6523.15,1485.79C6531.4,1528.13 6544.56,1537.11 6544.56,1537.11Z" style="fill:rgb(252,209,22);stroke:rgb(13,13,13);stroke-width:1.76px;"/>
                                        </g>
                                        <g transform="matrix(1,1.22465e-16,1.22465e-16,-1,-1.53615,2877.93)">
                                            <path d="M6544.56,1537.11C6544.56,1537.11 6568.7,1530.22 6578.39,1519.05C6588.06,1507.91 6600.71,1453.31 6612.4,1429.09C6608.65,1429.09 6597.46,1428.14 6593.7,1427.9C6583.27,1447.63 6564.36,1503.56 6544.56,1537.11Z" style="fill:rgb(252,209,22);stroke:rgb(13,13,13);stroke-width:1.76px;"/>
                                        </g>
                                    </g>
                                    <g transform="matrix(1.05272,0.204628,-0.228514,1.1756,-10.2623,-1627.61)">
                                        <g transform="matrix(1,1.22465e-16,6.69535e-17,-1,-46.3539,2865.59)">
                                            <path d="M6543.65,1534.31C6557.4,1538.81 6574.96,1519.06 6574.96,1519.06C6574.96,1519.06 6538.4,1535.93 6521.53,1503.17C6525.48,1525.07 6533.31,1530.93 6543.65,1534.31Z" style="fill:rgb(252,209,22);stroke:rgb(13,13,13);stroke-width:1.82px;"/>
                                        </g>
                                        <g transform="matrix(1,1.22465e-16,1.22465e-16,-1,-1.53615,2877.93)">
                                            <path d="M6495.18,1545.4C6521.01,1554.48 6541.42,1548.21 6555.44,1538.41C6585.86,1517.14 6602.47,1456.37 6614.17,1432.15C6610.42,1432.15 6603.71,1429.07 6599.95,1428.83C6593.42,1441.18 6578.07,1484.17 6551.9,1513.61C6536.26,1531.18 6513.96,1539.73 6495.18,1545.4Z" style="fill:rgb(252,209,22);stroke:rgb(13,13,13);stroke-width:1.82px;"/>
                                        </g>
                                    </g>
                                    <g transform="matrix(-1.08039,0.210006,0.228514,1.1756,13480,-1661.11)">
                                        <g transform="matrix(1,1.22465e-16,6.69535e-17,-1,-46.3539,2865.59)">
                                            <path d="M6543.65,1534.31C6557.4,1538.81 6574.96,1519.06 6574.96,1519.06C6574.96,1519.06 6538.4,1535.93 6521.53,1503.17C6525.48,1525.07 6533.31,1530.93 6543.65,1534.31Z" style="fill:rgb(252,209,22);stroke:rgb(13,13,13);stroke-width:1.8px;"/>
                                        </g>
                                        <g transform="matrix(1,1.22465e-16,1.22465e-16,-1,-1.53615,2877.93)">
                                            <path d="M6495.18,1545.4C6521.01,1554.48 6541.42,1548.21 6555.44,1538.41C6585.86,1517.14 6602.47,1456.37 6614.17,1432.15C6610.42,1432.15 6603.71,1429.07 6599.95,1428.83C6593.42,1441.18 6578.07,1484.17 6551.9,1513.61C6536.26,1531.18 6513.96,1539.73 6495.18,1545.4Z" style="fill:rgb(252,209,22);stroke:rgb(13,13,13);stroke-width:1.8px;"/>
                                        </g>
                                    </g>
                                    <g transform="matrix(-0.96059,0,0,1.1976,13029.3,-304.561)">
                                        <g transform="matrix(1,1.22465e-16,1.22465e-16,-1,-1.53615,2877.93)">
                                            <path d="M6544.56,1537.11L6578.39,1519.05C6578.39,1519.05 6543.74,1533.25 6523.15,1485.79C6531.4,1528.13 6544.56,1537.11 6544.56,1537.11Z" style="fill:rgb(252,209,22);stroke:rgb(13,13,13);stroke-width:1.93px;"/>
                                        </g>
                                        <g transform="matrix(1,1.22465e-16,1.22465e-16,-1,-1.53615,2877.93)">
                                            <path d="M6544.56,1537.11C6544.56,1537.11 6568.7,1530.22 6578.39,1519.05C6588.06,1507.91 6600.71,1453.31 6612.4,1429.09C6608.65,1429.09 6597.46,1428.14 6593.7,1427.9C6583.27,1447.63 6564.36,1503.56 6544.56,1537.11Z" style="fill:rgb(252,209,22);stroke:rgb(13,13,13);stroke-width:1.93px;"/>
                                        </g>
                                    </g>
                                    <g transform="matrix(0.812282,0,0,1,1234.93,0)">
                                        <g transform="matrix(1,1.22465e-16,1.22465e-16,-1,-1.53615,2877.93)">
                                            <path d="M6544.56,1537.11L6578.39,1519.05C6578.39,1519.05 6543.74,1533.25 6523.15,1485.79C6531.4,1528.13 6544.56,1537.11 6544.56,1537.11Z" style="fill:rgb(252,209,22);stroke:rgb(13,13,13);stroke-width:2.3px;"/>
                                        </g>
                                        <g transform="matrix(1,1.22465e-16,1.22465e-16,-1,-1.53615,2877.93)">
                                            <path d="M6544.56,1537.11C6544.56,1537.11 6568.7,1530.22 6578.39,1519.05C6588.06,1507.91 6597.04,1473.71 6608.74,1449.48C6604.99,1449.48 6597.46,1448.77 6593.7,1448.53C6583.27,1468.26 6564.36,1503.56 6544.56,1537.11Z" style="fill:rgb(252,209,22);stroke:rgb(13,13,13);stroke-width:2.3px;"/>
                                        </g>
                                    </g>
                                    <g transform="matrix(-0.924913,0,0,1,12799.8,3.1256)">
                                        <g transform="matrix(1,1.22465e-16,1.22465e-16,-1,-1.53615,2877.93)">
                                            <path d="M6544.56,1537.11L6578.39,1519.05C6578.39,1519.05 6543.74,1533.25 6523.15,1485.79C6531.4,1528.13 6544.56,1537.11 6544.56,1537.11Z" style="fill:rgb(252,209,22);stroke:rgb(13,13,13);stroke-width:2.17px;"/>
                                        </g>
                                        <g transform="matrix(1,1.22465e-16,1.22465e-16,-1,-1.53615,2877.93)">
                                            <path d="M6544.56,1537.11C6544.56,1537.11 6568.7,1530.22 6578.39,1519.05C6588.06,1507.91 6597.04,1473.71 6608.74,1449.48C6604.99,1449.48 6597.46,1448.77 6593.7,1448.53C6583.27,1468.26 6564.36,1503.56 6544.56,1537.11Z" style="fill:rgb(252,209,22);stroke:rgb(13,13,13);stroke-width:2.17px;"/>
                                        </g>
                                    </g>
                                    <g transform="matrix(-0.986979,-0.16085,-0.16085,0.986979,13392.5,1081.3)">
                                        <g transform="matrix(1,1.22465e-16,1.22465e-16,-1,23.7765,2694.37)">
                                            <path d="M6558.55,1529.48C6565.04,1528.84 6567.87,1520.74 6575.53,1510.52C6563.91,1516.51 6560.56,1523 6540.57,1515.15C6550.93,1524.85 6552,1530.12 6558.55,1529.48Z" style="fill:rgb(252,209,22);stroke:rgb(13,13,13);stroke-width:2.11px;"/>
                                        </g>
                                        <g transform="matrix(1,1.22465e-16,1.22465e-16,-1,-1.53615,2877.93)">
                                            <path d="M6587.53,1711.36C6587.53,1711.36 6600.96,1703.02 6609.33,1670.61C6612.41,1658.67 6616.25,1621.28 6612.9,1584.9C6607.66,1528.14 6606.59,1464.12 6605.31,1450.23C6601.56,1450.23 6595.08,1452.74 6591.32,1452.51C6594.38,1476.78 6594.21,1665.66 6587.53,1711.36Z" style="fill:rgb(252,209,22);stroke:rgb(13,13,13);stroke-width:2.11px;"/>
                                        </g>
                                    </g>
                                    <g transform="matrix(0.989846,-0.142144,0.136676,0.951771,-65.3783,1007.27)">
                                        <g transform="matrix(1,1.22465e-16,1.22465e-16,-1,23.7765,2694.37)">
                                            <path d="M6554.56,1530.35C6561.06,1529.72 6570.24,1523.91 6577.91,1513.7C6566.28,1519.68 6548.27,1523.54 6528,1511.38C6537.61,1526.95 6548.02,1531 6554.56,1530.35Z" style="fill:rgb(252,209,22);stroke:rgb(13,13,13);stroke-width:2.14px;"/>
                                        </g>
                                        <g transform="matrix(1,1.22465e-16,1.22465e-16,-1,-1.53615,2877.93)">
                                            <path d="M6587.53,1711.36C6587.53,1711.36 6608.74,1700.72 6617.11,1668.31C6620.19,1656.37 6624.4,1619.21 6621.04,1582.83C6615.81,1526.07 6610.13,1464.52 6608.85,1450.62C6605.09,1450.62 6593.85,1450.58 6590.08,1450.34C6593.15,1474.62 6594.21,1665.66 6587.53,1711.36Z" style="fill:rgb(252,209,22);stroke:rgb(13,13,13);stroke-width:2.14px;"/>
                                        </g>
                                    </g>
                                    <g transform="matrix(0.995122,-0.0986493,0.0888519,0.896291,-61.5646,810.145)">
                                        <g transform="matrix(1,1.22465e-16,1.22465e-16,-1,23.7765,2694.37)">
                                            <path d="M6555.9,1530.35C6562.4,1529.71 6568.17,1522.68 6575.84,1512.47C6564.22,1518.45 6548.27,1523.54 6528,1511.38C6537.61,1526.95 6549.36,1530.99 6555.9,1530.35Z" style="fill:rgb(252,209,22);stroke:rgb(13,13,13);stroke-width:2.2px;"/>
                                        </g>
                                        <g transform="matrix(1,1.22465e-16,1.22465e-16,-1,-1.53615,2877.93)">
                                            <path d="M6587.53,1711.36C6587.53,1711.36 6602.72,1703.05 6611.08,1670.64C6614.16,1658.7 6620.85,1619.64 6617.49,1583.26C6612.25,1526.51 6610.13,1464.52 6608.85,1450.62C6605.09,1450.62 6593.85,1450.58 6590.08,1450.34C6593.15,1474.62 6594.21,1665.66 6587.53,1711.36Z" style="fill:rgb(252,209,22);stroke:rgb(13,13,13);stroke-width:2.2px;"/>
                                        </g>
                                    </g>
                                    <g transform="matrix(-0.873162,0,0,1,12406,0.612296)">
                                        <g transform="matrix(1,1.22465e-16,1.22465e-16,-1,23.7765,2694.37)">
                                            <path d="M6555.15,1530.32C6561.65,1529.68 6569.41,1523.54 6576.45,1514.22C6564.82,1520.2 6548.27,1523.54 6528,1511.38C6543.72,1524.8 6548.61,1530.96 6555.15,1530.32Z" style="fill:rgb(252,209,22);stroke:rgb(13,13,13);stroke-width:2.23px;"/>
                                        </g>
                                        <g transform="matrix(1,1.22465e-16,1.22465e-16,-1,-1.53615,2877.93)">
                                            <path d="M6587.53,1711.36C6587.53,1711.36 6605.95,1702.53 6614.31,1670.11C6617.4,1658.17 6617.67,1619.21 6614.31,1582.83C6609.08,1526.07 6605.44,1464.52 6604.16,1450.62C6600.41,1450.62 6593.85,1450.58 6590.08,1450.34C6593.15,1474.62 6594.21,1665.66 6587.53,1711.36Z" style="fill:rgb(252,209,22);stroke:rgb(13,13,13);stroke-width:2.23px;"/>
                                        </g>
                                    </g>
                                    <g transform="matrix(0.860017,-0.200167,0.195733,0.840968,667.863,1556.57)">
                                        <g transform="matrix(1,1.22465e-16,1.22465e-16,-1,23.7765,2694.37)">
                                            <path d="M6548.13,1538.06C6556.97,1538.83 6574.46,1522.39 6584.24,1504.32C6572.62,1510.3 6547.66,1525.63 6525.9,1482.01C6528.44,1512.09 6538.61,1537.22 6548.13,1538.06Z" style="fill:rgb(252,209,22);stroke:rgb(13,13,13);stroke-width:2.42px;"/>
                                        </g>
                                        <g transform="matrix(1,1.22465e-16,1.22465e-16,-1,-1.53615,2877.93)">
                                            <path d="M6577.04,1721.18C6584.51,1719.5 6608.74,1700.72 6617.11,1668.31C6620.19,1656.37 6624.4,1619.21 6621.04,1582.83C6615.81,1526.07 6609.91,1462.15 6608.63,1448.26C6604.87,1448.26 6598.21,1450.46 6593.4,1451.63C6596.02,1472.36 6596.71,1618.46 6590.98,1670C6589.65,1681.93 6583.37,1709.69 6577.04,1721.18Z" style="fill:rgb(252,209,22);stroke:rgb(13,13,13);stroke-width:2.42px;"/>
                                        </g>
                                    </g>
                                    <g transform="matrix(-1.02003,-0.179859,-0.149936,0.850328,13613.1,1403.51)">
                                        <g transform="matrix(1,1.22465e-16,1.22465e-16,-1,23.7765,2694.37)">
                                            <path d="M6548.13,1538.06C6556.97,1538.83 6570.11,1519.09 6579.89,1501.02C6563.31,1520.08 6547.12,1531.14 6529.37,1490.99C6531.91,1521.08 6538.61,1537.22 6548.13,1538.06Z" style="fill:rgb(252,209,22);stroke:rgb(13,13,13);stroke-width:2.2px;"/>
                                        </g>
                                        <g transform="matrix(1,1.22465e-16,1.22465e-16,-1,-1.53615,2877.93)">
                                            <path d="M6577.04,1721.18C6584.51,1719.5 6603.4,1698.42 6611.76,1666.01C6614.84,1654.06 6615.43,1625.63 6614.76,1575.78C6613.99,1518.68 6609.91,1462.15 6608.63,1448.26C6604.87,1448.26 6598.21,1450.46 6593.4,1451.63C6596.02,1472.36 6596.71,1618.46 6590.98,1670C6589.65,1681.93 6583.37,1709.69 6577.04,1721.18Z" style="fill:rgb(252,209,22);stroke:rgb(13,13,13);stroke-width:2.2px;"/>
                                        </g>
                                    </g>
                                </g>
                                <g transform="matrix(1,0,0,1,-83.3693,18.4876)">
                                    <g transform="matrix(1.42362,2.25405e-32,1.75475e-32,1.8287,6780.55,1408.16)">
                                        <path d="M0,31.274C-1.751,33.426 -4.904,33.954 -7.041,32.452L-43.804,6.616C-45.941,5.114 -45.556,3.883 -43.804,1.731C-42.053,-0.421 -37.231,-0.168 -35.093,1.334L-0.698,24.658C1.439,26.16 1.752,29.122 0,31.274" style="fill:rgb(252,209,22);fill-rule:nonzero;stroke:rgb(13,13,13);stroke-width:1.28px;stroke-linecap:butt;stroke-miterlimit:2;"/>
                                    </g>
                                    <g transform="matrix(1.42362,2.25405e-32,1.75475e-32,1.8287,6688.94,1421.52)">
                                        <path d="M0,18.041L36.763,-7.794C38.9,-9.296 42.053,-8.769 43.804,-6.617C45.556,-4.464 45.243,-1.502 43.106,0L6.343,25.835C4.206,27.337 1.053,26.81 -0.698,24.658C-2.45,22.505 -2.137,19.543 0,18.041Z" style="fill:rgb(252,209,22);fill-rule:nonzero;stroke:rgb(13,13,13);stroke-width:1.28px;stroke-linecap:butt;stroke-linejoin:miter;stroke-miterlimit:10;"/>
                                    </g>
                                    <g transform="matrix(1.42362,2.25405e-32,1.75475e-32,1.8287,6678.12,1433.89)">
                                        <path d="M0,-7.817L73.709,-7.817C77.995,-7.817 81.468,-6.067 81.468,-3.908C81.468,-1.75 77.995,0 73.709,0L0,0C-4.285,0 -7.759,-1.75 -7.759,-3.908C-7.759,-6.067 -4.285,-7.817 0,-7.817Z" style="fill:rgb(252,209,22);fill-rule:nonzero;stroke:rgb(13,13,13);stroke-width:1.28px;stroke-linecap:butt;stroke-linejoin:miter;stroke-miterlimit:10;"/>
                                    </g>
                                    <g transform="matrix(1.42362,2.25405e-32,1.75475e-32,1.8287,6678.12,1419.89)">
                                        <path d="M0,-7.818L73.709,-7.818C77.995,-7.818 81.468,-6.068 81.468,-3.909C81.468,-1.751 77.995,0 73.709,0L0,0C-4.285,0 -7.759,-1.751 -7.759,-3.909C-7.759,-6.068 -4.285,-7.818 0,-7.818Z" style="fill:rgb(252,209,22);fill-rule:nonzero;stroke:rgb(13,13,13);stroke-width:1.28px;stroke-linecap:butt;stroke-linejoin:miter;stroke-miterlimit:10;"/>
                                    </g>
                                </g>
                            </g>
                            <g transform="matrix(0.131187,0,0,0.123474,-670.48,243.311)">
                                <g>
                                    <g transform="matrix(0.97437,-0.224951,0.224951,0.97437,-115.962,1526.01)">
                                        <path d="M6551.55,1584.33C6551.55,1584.33 6563.76,1588.47 6568.16,1589.97C6582.88,1539.08 6605.16,1469.07 6609.9,1445.64C6605.89,1446.26 6601.77,1446.84 6598.67,1445.64C6589.97,1482.32 6565.84,1552.62 6551.55,1584.33Z" style="fill:rgb(252,209,22);stroke:rgb(13,13,13);stroke-width:2.06px;"/>
                                    </g>
                                    <g transform="matrix(-0.970296,-0.241922,-0.241922,0.970296,13418,1643.96)">
                                        <path d="M6551.55,1584.33C6551.55,1584.33 6563.76,1588.47 6568.16,1589.97C6582.88,1539.08 6605.16,1469.07 6609.9,1445.64C6605.89,1446.26 6601.77,1446.84 6598.67,1445.64C6589.97,1482.32 6565.84,1552.62 6551.55,1584.33Z" style="fill:rgb(252,209,22);stroke:rgb(13,13,13);stroke-width:2.06px;"/>
                                    </g>
                                    <g transform="matrix(0.992546,-0.121869,0.121869,0.992546,-102.987,817.537)">
                                        <path d="M6551.55,1584.33C6551.55,1584.33 6563.76,1588.47 6568.16,1589.97C6582.88,1539.08 6605.16,1469.07 6609.9,1445.64C6605.89,1446.26 6601.77,1446.84 6598.67,1445.64C6589.97,1482.32 6565.84,1552.62 6551.55,1584.33Z" style="fill:rgb(252,209,22);stroke:rgb(13,13,13);stroke-width:2.07px;"/>
                                    </g>
                                    <g transform="matrix(-0.992546,-0.121869,-0.121869,0.992546,13406.5,818.377)">
                                        <path d="M6551.55,1584.33C6551.55,1584.33 6563.76,1588.47 6568.16,1589.97C6582.88,1539.08 6605.16,1469.07 6609.9,1445.64C6605.89,1446.26 6601.77,1446.84 6598.67,1445.64C6589.97,1482.32 6565.84,1552.62 6551.55,1584.33Z" style="fill:rgb(252,209,22);stroke:rgb(13,13,13);stroke-width:2.07px;"/>
                                    </g>
                                    <g transform="matrix(0.99863,-0.052336,0.052336,0.99863,-63.1877,347.917)">
                                        <path d="M6551.55,1584.33C6551.55,1584.33 6563.76,1588.47 6568.16,1589.97C6582.88,1539.08 6605.16,1469.07 6609.9,1445.64C6605.89,1446.26 6601.77,1446.84 6598.67,1445.64C6589.97,1482.32 6565.84,1552.62 6551.55,1584.33Z" style="fill:rgb(252,209,22);stroke:rgb(13,13,13);stroke-width:2.08px;"/>
                                    </g>
                                    <g transform="matrix(-0.99863,-0.052336,-0.052336,0.99863,13364.2,347.917)">
                                        <path d="M6551.55,1584.33C6551.55,1584.33 6563.76,1588.47 6568.16,1589.97C6582.88,1539.08 6605.16,1469.07 6609.9,1445.64C6605.89,1446.26 6601.77,1446.84 6598.67,1445.64C6589.97,1482.32 6565.84,1552.62 6551.55,1584.33Z" style="fill:rgb(252,209,22);stroke:rgb(13,13,13);stroke-width:2.08px;"/>
                                    </g>
                                    <g transform="matrix(1,0,1.36846e-48,1,-4.84327,-0.841775)">
                                        <path d="M6551.55,1584.33C6551.55,1584.33 6563.76,1588.47 6568.16,1589.97C6582.88,1539.08 6605.16,1469.07 6609.9,1445.64C6605.89,1446.26 6601.77,1446.84 6598.67,1445.64C6589.97,1482.32 6565.84,1552.62 6551.55,1584.33Z" style="fill:rgb(252,209,22);stroke:rgb(13,13,13);stroke-width:2.09px;"/>
                                    </g>
                                    <g transform="matrix(0.996195,-0.0871557,0.0871557,0.996195,-87.2905,582.547)">
                                        <path d="M6551.55,1584.33C6551.55,1584.33 6563.76,1588.47 6568.16,1589.97C6582.88,1539.08 6605.16,1469.07 6609.9,1445.64C6605.89,1446.26 6601.77,1446.84 6598.67,1445.64C6589.97,1482.32 6565.84,1552.62 6551.55,1584.33Z" style="fill:rgb(252,209,22);stroke:rgb(13,13,13);stroke-width:2.08px;"/>
                                    </g>
                                    <g transform="matrix(0.984808,-0.173648,0.173648,0.984808,-118.058,1171.06)">
                                        <path d="M6551.55,1584.33C6551.55,1584.33 6563.76,1588.47 6568.16,1589.97C6582.88,1539.08 6605.16,1469.07 6609.9,1445.64C6605.89,1446.26 6601.77,1446.84 6598.67,1445.64C6589.97,1482.32 6565.84,1552.62 6551.55,1584.33Z" style="fill:rgb(252,209,22);stroke:rgb(13,13,13);stroke-width:2.06px;"/>
                                    </g>
                                    <g transform="matrix(1.01786,-0.330723,0.309017,0.951057,-517.705,2258.27)">
                                        <path d="M6551.55,1584.33C6551.55,1584.33 6563.76,1588.47 6568.16,1589.97C6582.88,1539.08 6605.16,1469.07 6609.9,1445.64C6605.89,1446.26 6601.77,1446.84 6598.67,1445.64C6589.97,1482.32 6565.84,1552.62 6551.55,1584.33Z" style="fill:rgb(252,209,22);stroke:rgb(13,13,13);stroke-width:1.98px;"/>
                                    </g>
                                    <g transform="matrix(-0.984808,-0.173648,-0.173648,0.984808,13421.6,1171.82)">
                                        <path d="M6551.55,1584.33C6551.55,1584.33 6563.76,1588.47 6568.16,1589.97C6582.88,1539.08 6605.16,1469.07 6609.9,1445.64C6605.89,1446.26 6601.77,1446.84 6598.67,1445.64C6589.97,1482.32 6565.84,1552.62 6551.55,1584.33Z" style="fill:rgb(252,209,22);stroke:rgb(13,13,13);stroke-width:2.06px;"/>
                                    </g>
                                    <g transform="matrix(-0.996195,-0.0871557,-0.0871557,0.996195,13389.6,583.098)">
                                        <path d="M6551.55,1584.33C6551.55,1584.33 6563.76,1588.47 6568.16,1589.97C6582.88,1539.08 6605.16,1469.07 6609.9,1445.64C6605.89,1446.26 6601.77,1446.84 6598.67,1445.64C6589.97,1482.32 6565.84,1552.62 6551.55,1584.33Z" style="fill:rgb(252,209,22);stroke:rgb(13,13,13);stroke-width:2.08px;"/>
                                    </g>
                                    <g transform="matrix(-1,0,-1.36846e-48,1,13305.6,-0.983389)">
                                        <path d="M6551.55,1584.33C6551.55,1584.33 6563.76,1588.47 6568.16,1589.97C6582.88,1539.08 6605.16,1469.07 6609.9,1445.64C6605.89,1446.26 6601.77,1446.84 6598.67,1445.64C6589.97,1482.32 6565.84,1552.62 6551.55,1584.33Z" style="fill:rgb(252,209,22);stroke:rgb(13,13,13);stroke-width:2.09px;"/>
                                    </g>
                                </g>
                                <g>
                                    <g transform="matrix(1.1706,0,0,1.1976,-1112.61,-308.36)">
                                        <g transform="matrix(1,1.22465e-16,1.22465e-16,-1,-1.53615,2877.93)">
                                            <path d="M6544.56,1537.11L6578.39,1519.05C6578.39,1519.05 6543.74,1533.25 6523.15,1485.79C6531.4,1528.13 6544.56,1537.11 6544.56,1537.11Z" style="fill:rgb(252,209,22);stroke:rgb(13,13,13);stroke-width:1.76px;"/>
                                        </g>
                                        <g transform="matrix(1,1.22465e-16,1.22465e-16,-1,-1.53615,2877.93)">
                                            <path d="M6544.56,1537.11C6544.56,1537.11 6568.7,1530.22 6578.39,1519.05C6588.06,1507.91 6600.71,1453.31 6612.4,1429.09C6608.65,1429.09 6597.46,1428.14 6593.7,1427.9C6583.27,1447.63 6564.36,1503.56 6544.56,1537.11Z" style="fill:rgb(252,209,22);stroke:rgb(13,13,13);stroke-width:1.76px;"/>
                                        </g>
                                    </g>
                                    <g transform="matrix(1.05272,0.204628,-0.228514,1.1756,-10.2623,-1627.61)">
                                        <g transform="matrix(1,1.22465e-16,6.69535e-17,-1,-46.3539,2865.59)">
                                            <path d="M6543.65,1534.31C6557.4,1538.81 6574.96,1519.06 6574.96,1519.06C6574.96,1519.06 6538.4,1535.93 6521.53,1503.17C6525.48,1525.07 6533.31,1530.93 6543.65,1534.31Z" style="fill:rgb(252,209,22);stroke:rgb(13,13,13);stroke-width:1.82px;"/>
                                        </g>
                                        <g transform="matrix(1,1.22465e-16,1.22465e-16,-1,-1.53615,2877.93)">
                                            <path d="M6495.18,1545.4C6521.01,1554.48 6541.42,1548.21 6555.44,1538.41C6585.86,1517.14 6602.47,1456.37 6614.17,1432.15C6610.42,1432.15 6603.71,1429.07 6599.95,1428.83C6593.42,1441.18 6578.07,1484.17 6551.9,1513.61C6536.26,1531.18 6513.96,1539.73 6495.18,1545.4Z" style="fill:rgb(252,209,22);stroke:rgb(13,13,13);stroke-width:1.82px;"/>
                                        </g>
                                    </g>
                                    <g transform="matrix(-1.08039,0.210006,0.228514,1.1756,13480,-1661.11)">
                                        <g transform="matrix(1,1.22465e-16,6.69535e-17,-1,-46.3539,2865.59)">
                                            <path d="M6543.65,1534.31C6557.4,1538.81 6574.96,1519.06 6574.96,1519.06C6574.96,1519.06 6538.4,1535.93 6521.53,1503.17C6525.48,1525.07 6533.31,1530.93 6543.65,1534.31Z" style="fill:rgb(252,209,22);stroke:rgb(13,13,13);stroke-width:1.8px;"/>
                                        </g>
                                        <g transform="matrix(1,1.22465e-16,1.22465e-16,-1,-1.53615,2877.93)">
                                            <path d="M6495.18,1545.4C6521.01,1554.48 6541.42,1548.21 6555.44,1538.41C6585.86,1517.14 6602.47,1456.37 6614.17,1432.15C6610.42,1432.15 6603.71,1429.07 6599.95,1428.83C6593.42,1441.18 6578.07,1484.17 6551.9,1513.61C6536.26,1531.18 6513.96,1539.73 6495.18,1545.4Z" style="fill:rgb(252,209,22);stroke:rgb(13,13,13);stroke-width:1.8px;"/>
                                        </g>
                                    </g>
                                    <g transform="matrix(-0.96059,0,0,1.1976,13029.3,-304.561)">
                                        <g transform="matrix(1,1.22465e-16,1.22465e-16,-1,-1.53615,2877.93)">
                                            <path d="M6544.56,1537.11L6578.39,1519.05C6578.39,1519.05 6543.74,1533.25 6523.15,1485.79C6531.4,1528.13 6544.56,1537.11 6544.56,1537.11Z" style="fill:rgb(252,209,22);stroke:rgb(13,13,13);stroke-width:1.93px;"/>
                                        </g>
                                        <g transform="matrix(1,1.22465e-16,1.22465e-16,-1,-1.53615,2877.93)">
                                            <path d="M6544.56,1537.11C6544.56,1537.11 6568.7,1530.22 6578.39,1519.05C6588.06,1507.91 6600.71,1453.31 6612.4,1429.09C6608.65,1429.09 6597.46,1428.14 6593.7,1427.9C6583.27,1447.63 6564.36,1503.56 6544.56,1537.11Z" style="fill:rgb(252,209,22);stroke:rgb(13,13,13);stroke-width:1.93px;"/>
                                        </g>
                                    </g>
                                    <g transform="matrix(0.812282,0,0,1,1234.93,0)">
                                        <g transform="matrix(1,1.22465e-16,1.22465e-16,-1,-1.53615,2877.93)">
                                            <path d="M6544.56,1537.11L6578.39,1519.05C6578.39,1519.05 6543.74,1533.25 6523.15,1485.79C6531.4,1528.13 6544.56,1537.11 6544.56,1537.11Z" style="fill:rgb(252,209,22);stroke:rgb(13,13,13);stroke-width:2.3px;"/>
                                        </g>
                                        <g transform="matrix(1,1.22465e-16,1.22465e-16,-1,-1.53615,2877.93)">
                                            <path d="M6544.56,1537.11C6544.56,1537.11 6568.7,1530.22 6578.39,1519.05C6588.06,1507.91 6597.04,1473.71 6608.74,1449.48C6604.99,1449.48 6597.46,1448.77 6593.7,1448.53C6583.27,1468.26 6564.36,1503.56 6544.56,1537.11Z" style="fill:rgb(252,209,22);stroke:rgb(13,13,13);stroke-width:2.3px;"/>
                                        </g>
                                    </g>
                                    <g transform="matrix(-0.924913,0,0,1,12799.8,3.1256)">
                                        <g transform="matrix(1,1.22465e-16,1.22465e-16,-1,-1.53615,2877.93)">
                                            <path d="M6544.56,1537.11L6578.39,1519.05C6578.39,1519.05 6543.74,1533.25 6523.15,1485.79C6531.4,1528.13 6544.56,1537.11 6544.56,1537.11Z" style="fill:rgb(252,209,22);stroke:rgb(13,13,13);stroke-width:2.17px;"/>
                                        </g>
                                        <g transform="matrix(1,1.22465e-16,1.22465e-16,-1,-1.53615,2877.93)">
                                            <path d="M6544.56,1537.11C6544.56,1537.11 6568.7,1530.22 6578.39,1519.05C6588.06,1507.91 6597.04,1473.71 6608.74,1449.48C6604.99,1449.48 6597.46,1448.77 6593.7,1448.53C6583.27,1468.26 6564.36,1503.56 6544.56,1537.11Z" style="fill:rgb(252,209,22);stroke:rgb(13,13,13);stroke-width:2.17px;"/>
                                        </g>
                                    </g>
                                    <g transform="matrix(-0.986979,-0.16085,-0.16085,0.986979,13392.5,1081.3)">
                                        <g transform="matrix(1,1.22465e-16,1.22465e-16,-1,23.7765,2694.37)">
                                            <path d="M6558.55,1529.48C6565.04,1528.84 6567.87,1520.74 6575.53,1510.52C6563.91,1516.51 6560.56,1523 6540.57,1515.15C6550.93,1524.85 6552,1530.12 6558.55,1529.48Z" style="fill:rgb(252,209,22);stroke:rgb(13,13,13);stroke-width:2.11px;"/>
                                        </g>
                                        <g transform="matrix(1,1.22465e-16,1.22465e-16,-1,-1.53615,2877.93)">
                                            <path d="M6587.53,1711.36C6587.53,1711.36 6600.96,1703.02 6609.33,1670.61C6612.41,1658.67 6616.25,1621.28 6612.9,1584.9C6607.66,1528.14 6606.59,1464.12 6605.31,1450.23C6601.56,1450.23 6595.08,1452.74 6591.32,1452.51C6594.38,1476.78 6594.21,1665.66 6587.53,1711.36Z" style="fill:rgb(252,209,22);stroke:rgb(13,13,13);stroke-width:2.11px;"/>
                                        </g>
                                    </g>
                                    <g transform="matrix(0.989846,-0.142144,0.136676,0.951771,-65.3783,1007.27)">
                                        <g transform="matrix(1,1.22465e-16,1.22465e-16,-1,23.7765,2694.37)">
                                            <path d="M6554.56,1530.35C6561.06,1529.72 6570.24,1523.91 6577.91,1513.7C6566.28,1519.68 6548.27,1523.54 6528,1511.38C6537.61,1526.95 6548.02,1531 6554.56,1530.35Z" style="fill:rgb(252,209,22);stroke:rgb(13,13,13);stroke-width:2.14px;"/>
                                        </g>
                                        <g transform="matrix(1,1.22465e-16,1.22465e-16,-1,-1.53615,2877.93)">
                                            <path d="M6587.53,1711.36C6587.53,1711.36 6608.74,1700.72 6617.11,1668.31C6620.19,1656.37 6624.4,1619.21 6621.04,1582.83C6615.81,1526.07 6610.13,1464.52 6608.85,1450.62C6605.09,1450.62 6593.85,1450.58 6590.08,1450.34C6593.15,1474.62 6594.21,1665.66 6587.53,1711.36Z" style="fill:rgb(252,209,22);stroke:rgb(13,13,13);stroke-width:2.14px;"/>
                                        </g>
                                    </g>
                                    <g transform="matrix(0.995122,-0.0986493,0.0888519,0.896291,-61.5646,810.145)">
                                        <g transform="matrix(1,1.22465e-16,1.22465e-16,-1,23.7765,2694.37)">
                                            <path d="M6555.9,1530.35C6562.4,1529.71 6568.17,1522.68 6575.84,1512.47C6564.22,1518.45 6548.27,1523.54 6528,1511.38C6537.61,1526.95 6549.36,1530.99 6555.9,1530.35Z" style="fill:rgb(252,209,22);stroke:rgb(13,13,13);stroke-width:2.2px;"/>
                                        </g>
                                        <g transform="matrix(1,1.22465e-16,1.22465e-16,-1,-1.53615,2877.93)">
                                            <path d="M6587.53,1711.36C6587.53,1711.36 6602.72,1703.05 6611.08,1670.64C6614.16,1658.7 6620.85,1619.64 6617.49,1583.26C6612.25,1526.51 6610.13,1464.52 6608.85,1450.62C6605.09,1450.62 6593.85,1450.58 6590.08,1450.34C6593.15,1474.62 6594.21,1665.66 6587.53,1711.36Z" style="fill:rgb(252,209,22);stroke:rgb(13,13,13);stroke-width:2.2px;"/>
                                        </g>
                                    </g>
                                    <g transform="matrix(-0.873162,0,0,1,12406,0.612296)">
                                        <g transform="matrix(1,1.22465e-16,1.22465e-16,-1,23.7765,2694.37)">
                                            <path d="M6555.15,1530.32C6561.65,1529.68 6569.41,1523.54 6576.45,1514.22C6564.82,1520.2 6548.27,1523.54 6528,1511.38C6543.72,1524.8 6548.61,1530.96 6555.15,1530.32Z" style="fill:rgb(252,209,22);stroke:rgb(13,13,13);stroke-width:2.23px;"/>
                                        </g>
                                        <g transform="matrix(1,1.22465e-16,1.22465e-16,-1,-1.53615,2877.93)">
                                            <path d="M6587.53,1711.36C6587.53,1711.36 6605.95,1702.53 6614.31,1670.11C6617.4,1658.17 6617.67,1619.21 6614.31,1582.83C6609.08,1526.07 6605.44,1464.52 6604.16,1450.62C6600.41,1450.62 6593.85,1450.58 6590.08,1450.34C6593.15,1474.62 6594.21,1665.66 6587.53,1711.36Z" style="fill:rgb(252,209,22);stroke:rgb(13,13,13);stroke-width:2.23px;"/>
                                        </g>
                                    </g>
                                    <g transform="matrix(0.860017,-0.200167,0.195733,0.840968,667.863,1556.57)">
                                        <g transform="matrix(1,1.22465e-16,1.22465e-16,-1,23.7765,2694.37)">
                                            <path d="M6548.13,1538.06C6556.97,1538.83 6574.46,1522.39 6584.24,1504.32C6572.62,1510.3 6547.66,1525.63 6525.9,1482.01C6528.44,1512.09 6538.61,1537.22 6548.13,1538.06Z" style="fill:rgb(252,209,22);stroke:rgb(13,13,13);stroke-width:2.42px;"/>
                                        </g>
                                        <g transform="matrix(1,1.22465e-16,1.22465e-16,-1,-1.53615,2877.93)">
                                            <path d="M6577.04,1721.18C6584.51,1719.5 6608.74,1700.72 6617.11,1668.31C6620.19,1656.37 6624.4,1619.21 6621.04,1582.83C6615.81,1526.07 6609.91,1462.15 6608.63,1448.26C6604.87,1448.26 6598.21,1450.46 6593.4,1451.63C6596.02,1472.36 6596.71,1618.46 6590.98,1670C6589.65,1681.93 6583.37,1709.69 6577.04,1721.18Z" style="fill:rgb(252,209,22);stroke:rgb(13,13,13);stroke-width:2.42px;"/>
                                        </g>
                                    </g>
                                    <g transform="matrix(-1.02003,-0.179859,-0.149936,0.850328,13613.1,1403.51)">
                                        <g transform="matrix(1,1.22465e-16,1.22465e-16,-1,23.7765,2694.37)">
                                            <path d="M6548.13,1538.06C6556.97,1538.83 6570.11,1519.09 6579.89,1501.02C6563.31,1520.08 6547.12,1531.14 6529.37,1490.99C6531.91,1521.08 6538.61,1537.22 6548.13,1538.06Z" style="fill:rgb(252,209,22);stroke:rgb(13,13,13);stroke-width:2.2px;"/>
                                        </g>
                                        <g transform="matrix(1,1.22465e-16,1.22465e-16,-1,-1.53615,2877.93)">
                                            <path d="M6577.04,1721.18C6584.51,1719.5 6603.4,1698.42 6611.76,1666.01C6614.84,1654.06 6615.43,1625.63 6614.76,1575.78C6613.99,1518.68 6609.91,1462.15 6608.63,1448.26C6604.87,1448.26 6598.21,1450.46 6593.4,1451.63C6596.02,1472.36 6596.71,1618.46 6590.98,1670C6589.65,1681.93 6583.37,1709.69 6577.04,1721.18Z" style="fill:rgb(252,209,22);stroke:rgb(13,13,13);stroke-width:2.2px;"/>
                                        </g>
                                    </g>
                                </g>
                                <g transform="matrix(1,0,0,1,-83.3693,18.4876)">
                                    <g transform="matrix(1.42362,2.25405e-32,1.75475e-32,1.8287,6780.55,1408.16)">
                                        <path d="M0,31.274C-1.751,33.426 -4.904,33.954 -7.041,32.452L-43.804,6.616C-45.941,5.114 -45.556,3.883 -43.804,1.731C-42.053,-0.421 -37.231,-0.168 -35.093,1.334L-0.698,24.658C1.439,26.16 1.752,29.122 0,31.274" style="fill:rgb(252,209,22);fill-rule:nonzero;stroke:rgb(13,13,13);stroke-width:1.28px;stroke-linecap:butt;stroke-miterlimit:2;"/>
                                    </g>
                                    <g transform="matrix(1.42362,2.25405e-32,1.75475e-32,1.8287,6688.94,1421.52)">
                                        <path d="M0,18.041L36.763,-7.794C38.9,-9.296 42.053,-8.769 43.804,-6.617C45.556,-4.464 45.243,-1.502 43.106,0L6.343,25.835C4.206,27.337 1.053,26.81 -0.698,24.658C-2.45,22.505 -2.137,19.543 0,18.041Z" style="fill:rgb(252,209,22);fill-rule:nonzero;stroke:rgb(13,13,13);stroke-width:1.28px;stroke-linecap:butt;stroke-linejoin:miter;stroke-miterlimit:10;"/>
                                    </g>
                                    <g transform="matrix(1.42362,2.25405e-32,1.75475e-32,1.8287,6678.12,1433.89)">
                                        <path d="M0,-7.817L73.709,-7.817C77.995,-7.817 81.468,-6.067 81.468,-3.908C81.468,-1.75 77.995,0 73.709,0L0,0C-4.285,0 -7.759,-1.75 -7.759,-3.908C-7.759,-6.067 -4.285,-7.817 0,-7.817Z" style="fill:rgb(252,209,22);fill-rule:nonzero;stroke:rgb(13,13,13);stroke-width:1.28px;stroke-linecap:butt;stroke-linejoin:miter;stroke-miterlimit:10;"/>
                                    </g>
                                    <g transform="matrix(1.42362,2.25405e-32,1.75475e-32,1.8287,6678.12,1419.89)">
                                        <path d="M0,-7.818L73.709,-7.818C77.995,-7.818 81.468,-6.068 81.468,-3.909C81.468,-1.751 77.995,0 73.709,0L0,0C-4.285,0 -7.759,-1.751 -7.759,-3.909C-7.759,-6.068 -4.285,-7.818 0,-7.818Z" style="fill:rgb(252,209,22);fill-rule:nonzero;stroke:rgb(13,13,13);stroke-width:1.28px;stroke-linecap:butt;stroke-linejoin:miter;stroke-miterlimit:10;"/>
                                    </g>
                                </g>
                            </g>
                            <g id="Layer11" serif:id="Layer1" transform="matrix(0.108226,0,0,0.107854,-1033.93,341.813)">
                                <g transform="matrix(0.828003,0,0,0.920418,5583.1,-485.921)">
                                    <path d="M5727.52,1730.68C5717.47,1726.59 5710.37,1716.72 5710.37,1705.2C5710.37,1690.02 5722.69,1677.7 5737.87,1677.7C5753.05,1677.7 5765.37,1690.02 5765.37,1705.2C5765.37,1717.11 5757.78,1727.26 5747.18,1731.08L5748.85,1779.23L5765.37,1746.26L5783.95,1730.08C5783.72,1728.63 5783.6,1727.16 5783.6,1725.65C5783.6,1710.48 5795.92,1698.15 5811.1,1698.15C5826.28,1698.15 5838.6,1710.48 5838.6,1725.65C5838.6,1740.83 5826.28,1753.15 5811.1,1753.15C5804.59,1753.15 5798.61,1750.89 5793.9,1747.11L5775.58,1765.89L5757.2,1811.36L5762.62,1918.35L5732.77,1921.84L5722.76,1828.19L5684.45,1752.94C5683.34,1753.08 5682.2,1753.15 5681.05,1753.15C5665.87,1753.15 5653.55,1740.83 5653.55,1725.65C5653.55,1710.48 5665.87,1698.15 5681.05,1698.15C5696.22,1698.15 5708.55,1710.48 5708.55,1725.65C5708.55,1731.63 5706.64,1737.16 5703.39,1741.67L5730.54,1797.91L5727.52,1730.68Z" style="fill:rgb(252,209,22);stroke:rgb(13,13,13);stroke-width:2.81px;"/>
                                </g>
                                <g transform="matrix(-0.0725144,1.04057,-0.404935,-0.0284133,11584,-4635.94)">
                                    <path d="M5868.52,1920.62C5910.61,1922.89 5938.33,1995.63 5957.23,2044.05C5907.3,2009.73 5883.09,2042.66 5850.57,2030.36C5814.88,2016.85 5794.77,2003.2 5776.68,1994.4C5806.99,1918.02 5831.76,1918.64 5868.52,1920.62Z" style="fill:rgb(252,209,22);stroke:rgb(13,13,13);stroke-width:3.11px;"/>
                                </g>
                                <g transform="matrix(-0.895698,-0.485815,0.353069,-0.655443,14830.5,5428.13)">
                                    <path d="M5864.29,1937.65C5906.61,1929.76 5954.57,1942.49 5973.47,1990.91C5924.62,1997.85 5900.2,2024.65 5856.65,2029C5820.54,2032.6 5794.17,1996.38 5776.07,1987.58C5792.74,1968.07 5827.63,1944.48 5864.29,1937.65Z" style="fill:rgb(252,209,22);stroke:rgb(13,13,13);stroke-width:2.76px;"/>
                                </g>
                                <g transform="matrix(0.895698,-0.485815,-0.353069,-0.655443,5885.79,5428.13)">
                                    <path d="M5864.29,1937.65C5906.61,1929.76 5954.57,1942.49 5973.47,1990.91C5924.62,1997.85 5900.2,2024.65 5856.65,2029C5820.54,2032.6 5794.17,1996.38 5776.07,1987.58C5792.74,1968.07 5827.63,1944.48 5864.29,1937.65Z" style="fill:rgb(252,209,22);stroke:rgb(13,13,13);stroke-width:2.76px;"/>
                                </g>
                                <g transform="matrix(-0.576712,-0.689665,0.482953,-0.406641,12729,6110.78)">
                                    <path d="M5864.29,1937.65C5906.61,1929.76 5954.57,1942.49 5973.47,1990.91C5924.62,1997.85 5900.2,2024.65 5856.65,2029C5820.54,2032.6 5794.17,1996.38 5776.07,1987.58C5792.74,1968.07 5827.63,1944.48 5864.29,1937.65Z" style="fill:rgb(252,209,22);stroke:rgb(13,13,13);stroke-width:3.17px;"/>
                                </g>
                                <g transform="matrix(0.39522,-0.786098,0.32886,0.166478,7418.85,5527.86)">
                                    <path d="M5868.52,1920.62C5910.61,1922.89 5938.33,1995.63 5957.23,2044.05C5907.3,2009.73 5883.09,2042.66 5850.57,2030.36C5814.88,2016.85 5794.77,2003.2 5776.68,1994.4C5806.99,1918.02 5831.76,1918.64 5868.52,1920.62Z" style="fill:rgb(252,209,22);stroke:rgb(13,13,13);stroke-width:3.65px;"/>
                                </g>
                                <g transform="matrix(0.576712,-0.689665,-0.482953,-0.406641,7986.55,6110.78)">
                                    <path d="M5864.29,1937.65C5906.61,1929.76 5954.57,1942.49 5973.47,1990.91C5924.62,1997.85 5900.2,2024.65 5856.65,2029C5820.54,2032.6 5794.17,1996.38 5776.07,1987.58C5792.74,1968.07 5827.63,1944.48 5864.29,1937.65Z" style="fill:rgb(252,209,22);stroke:rgb(13,13,13);stroke-width:3.17px;"/>
                                </g>
                                <g transform="matrix(0.640756,0.793992,-0.755654,0.614023,8157.82,-4487.72)">
                                    <path d="M5864.29,1937.65C5906.61,1929.76 5954.57,1942.49 5973.47,1990.91C5924.62,1997.85 5900.2,2024.65 5856.65,2029C5820.54,2032.6 5794.17,1996.38 5776.07,1987.58C5792.74,1968.07 5827.63,1944.48 5864.29,1937.65Z" style="fill:rgb(252,209,22);stroke:rgb(13,13,13);stroke-width:2.47px;"/>
                                </g>
                                <g transform="matrix(-0.654468,0.78265,0.74486,0.627163,12658.4,-4448.33)">
                                    <path d="M5864.29,1937.65C5906.61,1929.76 5954.57,1942.49 5973.47,1990.91C5924.62,1997.85 5900.2,2024.65 5856.65,2029C5820.54,2032.6 5794.17,1996.38 5776.07,1987.58C5792.74,1968.07 5827.63,1944.48 5864.29,1937.65Z" style="fill:rgb(252,209,22);stroke:rgb(13,13,13);stroke-width:2.47px;"/>
                                </g>
                                <g transform="matrix(0.950545,0.366136,-0.348457,0.910888,5560.76,-2606.23)">
                                    <path d="M5864.29,1937.65C5906.61,1929.76 5954.57,1942.49 5973.47,1990.91C5924.62,1997.85 5900.2,2024.65 5856.65,2029C5820.54,2032.6 5794.17,1996.38 5776.07,1987.58C5792.74,1968.07 5827.63,1944.48 5864.29,1937.65Z" style="fill:rgb(252,209,22);stroke:rgb(13,13,13);stroke-width:2.47px;"/>
                                </g>
                                <g transform="matrix(-0.950545,0.366136,0.348457,0.910888,15155.5,-2606.23)">
                                    <path d="M5864.29,1937.65C5906.61,1929.76 5954.57,1942.49 5973.47,1990.91C5924.62,1997.85 5900.2,2024.65 5856.65,2029C5820.54,2032.6 5794.17,1996.38 5776.07,1987.58C5792.74,1968.07 5827.63,1944.48 5864.29,1937.65Z" style="fill:rgb(252,209,22);stroke:rgb(13,13,13);stroke-width:2.47px;"/>
                                </g>
                            </g>
                            <g id="Layer12" serif:id="Layer1" transform="matrix(0.108226,0,0,0.107854,-1033.87,278.347)">
                                <g transform="matrix(0.828003,0,0,0.920418,5583.1,-485.921)">
                                    <path d="M5727.52,1730.68C5717.47,1726.59 5710.37,1716.72 5710.37,1705.2C5710.37,1690.02 5722.69,1677.7 5737.87,1677.7C5753.05,1677.7 5765.37,1690.02 5765.37,1705.2C5765.37,1717.11 5757.78,1727.26 5747.18,1731.08L5748.85,1779.23L5765.37,1746.26L5783.95,1730.08C5783.72,1728.63 5783.6,1727.16 5783.6,1725.65C5783.6,1710.48 5795.92,1698.15 5811.1,1698.15C5826.28,1698.15 5838.6,1710.48 5838.6,1725.65C5838.6,1740.83 5826.28,1753.15 5811.1,1753.15C5804.59,1753.15 5798.61,1750.89 5793.9,1747.11L5775.58,1765.89L5757.2,1811.36L5762.62,1918.35L5732.77,1921.84L5722.76,1828.19L5684.45,1752.94C5683.34,1753.08 5682.2,1753.15 5681.05,1753.15C5665.87,1753.15 5653.55,1740.83 5653.55,1725.65C5653.55,1710.48 5665.87,1698.15 5681.05,1698.15C5696.22,1698.15 5708.55,1710.48 5708.55,1725.65C5708.55,1731.63 5706.64,1737.16 5703.39,1741.67L5730.54,1797.91L5727.52,1730.68Z" style="fill:rgb(252,209,22);stroke:rgb(13,13,13);stroke-width:2.81px;"/>
                                </g>
                                <g transform="matrix(-0.0725144,1.04057,-0.404935,-0.0284133,11584,-4635.94)">
                                    <path d="M5868.52,1920.62C5910.61,1922.89 5938.33,1995.63 5957.23,2044.05C5907.3,2009.73 5883.09,2042.66 5850.57,2030.36C5814.88,2016.85 5794.77,2003.2 5776.68,1994.4C5806.99,1918.02 5831.76,1918.64 5868.52,1920.62Z" style="fill:rgb(252,209,22);stroke:rgb(13,13,13);stroke-width:3.11px;"/>
                                </g>
                                <g transform="matrix(-0.895698,-0.485815,0.353069,-0.655443,14830.5,5428.13)">
                                    <path d="M5864.29,1937.65C5906.61,1929.76 5954.57,1942.49 5973.47,1990.91C5924.62,1997.85 5900.2,2024.65 5856.65,2029C5820.54,2032.6 5794.17,1996.38 5776.07,1987.58C5792.74,1968.07 5827.63,1944.48 5864.29,1937.65Z" style="fill:rgb(252,209,22);stroke:rgb(13,13,13);stroke-width:2.76px;"/>
                                </g>
                                <g transform="matrix(0.895698,-0.485815,-0.353069,-0.655443,5885.79,5428.13)">
                                    <path d="M5864.29,1937.65C5906.61,1929.76 5954.57,1942.49 5973.47,1990.91C5924.62,1997.85 5900.2,2024.65 5856.65,2029C5820.54,2032.6 5794.17,1996.38 5776.07,1987.58C5792.74,1968.07 5827.63,1944.48 5864.29,1937.65Z" style="fill:rgb(252,209,22);stroke:rgb(13,13,13);stroke-width:2.76px;"/>
                                </g>
                                <g transform="matrix(-0.576712,-0.689665,0.482953,-0.406641,12729,6110.78)">
                                    <path d="M5864.29,1937.65C5906.61,1929.76 5954.57,1942.49 5973.47,1990.91C5924.62,1997.85 5900.2,2024.65 5856.65,2029C5820.54,2032.6 5794.17,1996.38 5776.07,1987.58C5792.74,1968.07 5827.63,1944.48 5864.29,1937.65Z" style="fill:rgb(252,209,22);stroke:rgb(13,13,13);stroke-width:3.17px;"/>
                                </g>
                                <g transform="matrix(0.39522,-0.786098,0.32886,0.166478,7418.85,5527.86)">
                                    <path d="M5868.52,1920.62C5910.61,1922.89 5938.33,1995.63 5957.23,2044.05C5907.3,2009.73 5883.09,2042.66 5850.57,2030.36C5814.88,2016.85 5794.77,2003.2 5776.68,1994.4C5806.99,1918.02 5831.76,1918.64 5868.52,1920.62Z" style="fill:rgb(252,209,22);stroke:rgb(13,13,13);stroke-width:3.65px;"/>
                                </g>
                                <g transform="matrix(0.576712,-0.689665,-0.482953,-0.406641,7986.55,6110.78)">
                                    <path d="M5864.29,1937.65C5906.61,1929.76 5954.57,1942.49 5973.47,1990.91C5924.62,1997.85 5900.2,2024.65 5856.65,2029C5820.54,2032.6 5794.17,1996.38 5776.07,1987.58C5792.74,1968.07 5827.63,1944.48 5864.29,1937.65Z" style="fill:rgb(252,209,22);stroke:rgb(13,13,13);stroke-width:3.17px;"/>
                                </g>
                                <g transform="matrix(0.640756,0.793992,-0.755654,0.614023,8157.82,-4487.72)">
                                    <path d="M5864.29,1937.65C5906.61,1929.76 5954.57,1942.49 5973.47,1990.91C5924.62,1997.85 5900.2,2024.65 5856.65,2029C5820.54,2032.6 5794.17,1996.38 5776.07,1987.58C5792.74,1968.07 5827.63,1944.48 5864.29,1937.65Z" style="fill:rgb(252,209,22);stroke:rgb(13,13,13);stroke-width:2.47px;"/>
                                </g>
                                <g transform="matrix(-0.654468,0.78265,0.74486,0.627163,12658.4,-4448.33)">
                                    <path d="M5864.29,1937.65C5906.61,1929.76 5954.57,1942.49 5973.47,1990.91C5924.62,1997.85 5900.2,2024.65 5856.65,2029C5820.54,2032.6 5794.17,1996.38 5776.07,1987.58C5792.74,1968.07 5827.63,1944.48 5864.29,1937.65Z" style="fill:rgb(252,209,22);stroke:rgb(13,13,13);stroke-width:2.47px;"/>
                                </g>
                                <g transform="matrix(0.950545,0.366136,-0.348457,0.910888,5560.76,-2606.23)">
                                    <path d="M5864.29,1937.65C5906.61,1929.76 5954.57,1942.49 5973.47,1990.91C5924.62,1997.85 5900.2,2024.65 5856.65,2029C5820.54,2032.6 5794.17,1996.38 5776.07,1987.58C5792.74,1968.07 5827.63,1944.48 5864.29,1937.65Z" style="fill:rgb(252,209,22);stroke:rgb(13,13,13);stroke-width:2.47px;"/>
                                </g>
                                <g transform="matrix(-0.950545,0.366136,0.348457,0.910888,15155.5,-2606.23)">
                                    <path d="M5864.29,1937.65C5906.61,1929.76 5954.57,1942.49 5973.47,1990.91C5924.62,1997.85 5900.2,2024.65 5856.65,2029C5820.54,2032.6 5794.17,1996.38 5776.07,1987.58C5792.74,1968.07 5827.63,1944.48 5864.29,1937.65Z" style="fill:rgb(252,209,22);stroke:rgb(13,13,13);stroke-width:2.47px;"/>
                                </g>
                            </g>
                        </g>
                        <path id="path19044-52" serif:id="path19044-5" d="M77.651,307.241L32.189,348.983C34.461,352.573 36.732,356.164 38.813,360.549C40.895,364.935 42.787,370.117 44.538,376.525C46.289,382.933 47.901,390.572 48.741,397.399C49.582,404.227 49.649,410.253 49.439,415.995C49.229,421.737 48.74,427.202 47.514,433.47C46.289,439.738 44.33,446.813 43.314,453.396C42.299,459.978 42.225,466.213 42.646,473.182C43.067,480.15 43.977,488.135 46.533,495.665C49.089,503.195 53.361,510.38 57.46,515.752C61.56,521.125 65.62,524.907 71.434,528.234C77.248,531.561 84.811,534.435 93.322,536.571C101.833,538.707 111.287,540.106 118.888,541.682C126.488,543.258 132.233,545.009 136.179,547.355C140.125,549.701 142.276,552.644 144.428,555.586C146.58,552.644 148.73,549.701 152.677,547.355C156.623,545.009 162.368,543.258 169.968,541.682C177.568,540.106 187.023,538.707 195.534,536.571C204.045,534.435 211.608,531.561 217.422,528.234C223.236,524.907 227.296,521.125 231.395,515.752C235.494,510.38 239.766,503.195 242.323,495.665C244.879,488.135 245.789,480.15 246.21,473.182C246.631,466.213 246.557,459.978 245.541,453.396C244.526,446.813 242.567,439.738 241.342,433.47C240.116,427.202 239.623,421.737 239.413,415.995C239.203,410.253 239.274,404.227 240.114,397.399C240.955,390.572 242.567,382.933 244.318,376.525C246.069,370.117 247.961,364.935 250.042,360.549C252.124,356.164 254.395,352.573 256.667,348.983L211.201,307.241L77.651,307.241Z" style="fill:none;fill-rule:nonzero;stroke:black;stroke-width:1.06px;stroke-linecap:butt;stroke-linejoin:miter;stroke-miterlimit:4;"/>
                        <g id="g59478" transform="matrix(1.2064,0,0,1.20634,-926.042,515.077)">
                            <g id="path3699" transform="matrix(1,0,0,1,-13.8187,18.1265)">
                                <path d="M931.376,-175.867C932.016,-177.49 934.148,-178.587 934.242,-180.286C934.289,-181.129 933.718,-183.464 934.419,-184.057C934.465,-184.741 932.063,-186.415 931.543,-186.837L931.21,-186.819L929.822,-185.174L928.996,-184.934L928.278,-185.193L926.851,-184.557L926.258,-184.639L925.531,-184.219C924.954,-184.267 924.305,-184.404 923.778,-184.091L923.409,-183.388L923.474,-182.405L924.108,-181.67L924.05,-181.217C924.572,-180.336 925.502,-180.083 926.114,-179.355C927.13,-178.146 927.034,-178.135 928.454,-177.488C929.333,-177.089 930.374,-175.715 931.376,-175.867L931.376,-175.867Z" style="fill:rgb(38,82,18);stroke:rgb(13,13,13);stroke-width:0.44px;stroke-linecap:butt;stroke-miterlimit:3.8637;"/>
                            </g>
                            <path id="path3703" d="M875.279,-153.246L875.055,-153.878C874.629,-154.403 873.325,-154.385 872.648,-154.982L871.305,-154.569L871.154,-154.797L871.491,-155.245L871.341,-155.649C870.959,-155.941 870.234,-156.332 870.117,-156.844C870.353,-157.617 870.094,-159.073 869.887,-159.816C868.592,-160.945 867.211,-162.024 865.643,-162.724C865.597,-162.745 865.482,-162.9 865.44,-162.952L865.52,-163.204L866.349,-163.952L866.918,-164.023L867.145,-163.567L867.581,-163.363L868.431,-163.606L868.849,-164.156L869.596,-164.251C870.179,-164.96 870.289,-165.547 870.237,-166.483L872.196,-166.918C874.119,-165.841 877.486,-165.083 879.667,-164.835L880.332,-164.175C881.385,-164.209 882.662,-165.616 883.083,-166.513L883.445,-166.663C883.745,-166.606 884.267,-166.363 884.445,-166.097L884.201,-164.968L885.123,-162.265L883.983,-159.081C884.043,-158.605 884.329,-158.269 884.588,-157.891L884.536,-157.615C885.438,-157.245 886.289,-154.16 885.854,-153.172C885.602,-152.857 884.921,-152.303 884.48,-152.305L883.739,-152.612L883.067,-152.244L882.771,-151.237L882.435,-150.964C881.538,-151.555 880.014,-151.901 878.975,-152.031C877.76,-153.316 876.627,-152.624 875.279,-153.246L875.279,-153.246Z" style="fill:rgb(38,82,18);stroke:rgb(13,13,13);stroke-width:0.44px;stroke-linecap:butt;stroke-miterlimit:3.8637;"/>
                            <g id="path3705" transform="matrix(1,0,0,1,0,-12.681)">
                                <path d="M851.237,-142.458C850.75,-141.651 850.826,-140.743 850.804,-139.843C850.549,-139.636 849.971,-137.884 849.887,-137.51C849.687,-136.62 849.327,-135.542 849.245,-134.645C849.21,-134.257 849.603,-130.604 849.774,-130.387L851.582,-128.082C852.481,-127.878 852.836,-127.724 853.6,-127.06L853.789,-125.171C854.032,-125.125 854.993,-124.995 855.201,-125.159C855.774,-126.908 854.703,-131.067 855.21,-131.705C854.841,-132.469 854.969,-133.345 854.536,-134.201L854.826,-134.98C854.706,-135.362 854.216,-136.612 853.815,-136.799C853.861,-137.48 853.461,-137.932 853.367,-138.538C853.27,-139.169 853.49,-139.751 853.254,-140.479L852.847,-140.759L852.901,-141.135C852.562,-141.623 851.944,-142.666 851.24,-142.458L851.237,-142.458Z" style="fill:rgb(38,82,18);stroke:rgb(13,13,13);stroke-width:0.44px;stroke-linecap:butt;stroke-miterlimit:3.8637;"/>
                            </g>
                            <g id="path3715" transform="matrix(1,0,0,1,-1.67571,-21.8489)">
                                <path d="M879.841,-110.767L879.741,-111.144L879.514,-111.272C877.951,-110.554 878.169,-110.915 876.997,-111.473C876.321,-111.795 875.545,-111.967 874.878,-112.3C874.68,-112.399 874.513,-112.703 874.317,-112.809C873.807,-113.082 873.17,-113.283 872.631,-113.506L871.707,-113.539C870.253,-113.044 868.387,-112.671 867.123,-111.769L865.763,-111.982C864.358,-111.152 860.781,-109.968 859.185,-111.058L858.516,-110.987C858.856,-108.821 856.748,-109.141 858.731,-107.253C859.862,-106.176 859.778,-106.678 861.044,-106.511C861.166,-106.495 861.565,-106.246 861.655,-106.255C863.004,-106.393 864.43,-106.455 865.765,-106.672C866.728,-106.829 867.707,-107.279 868.671,-107.4C869.854,-107.548 871.132,-107.342 872.314,-107.494C873.907,-107.698 873.109,-108.109 875.547,-107.935C876.905,-107.838 876.924,-108.477 877.875,-109.127C878.769,-109.735 879.235,-109.663 879.841,-110.767L879.841,-110.767Z" style="fill:rgb(38,82,18);stroke:rgb(13,13,13);stroke-width:0.44px;stroke-linecap:butt;stroke-miterlimit:3.8637;"/>
                            </g>
                            <g id="path3717" transform="matrix(1,0,0,1,-9.96601,-20.9976)">
                                <path d="M919.254,-110.369C918.788,-110.292 917.948,-110.014 917.605,-109.657L917.321,-109.636L916.609,-110.147L916.48,-110.074L916.727,-109.265L916.309,-108.618C916.469,-108.106 917.316,-105.98 917.014,-105.537C917.222,-105.216 917.373,-104.633 917.332,-104.251C917.79,-104.122 919.034,-103.69 919.349,-103.296C920.008,-103.311 920.617,-103.923 921.105,-104.293C922.067,-105.022 922.007,-106.181 922.192,-107.289L922.271,-107.566L923.05,-108.283L923.372,-109.387C923.935,-109.96 924.809,-109.8 925.467,-110.595L926.108,-110.537L926.547,-110.759L926.811,-111.31L927.43,-111.528L927.796,-112.003L928.543,-112.195L928.085,-112.554C928.305,-112.866 929.605,-113.428 929.974,-113.612L930.369,-114.512L930.297,-114.816L929.453,-115.078L929.329,-115.357C929.452,-115.711 929.903,-116.242 930.288,-116.325L930.552,-116.775C930.807,-116.795 931.216,-116.62 931.369,-116.413L931.786,-116.812L932.451,-116.702C933.304,-116.858 933.785,-118.146 933.814,-118.898C933.739,-119.263 933.39,-119.756 933.085,-119.966L931.803,-120.209C930.881,-120.988 929.427,-123.64 928.771,-123.895C928.128,-123.785 926.26,-123.636 925.692,-124.087C924.078,-123.863 921.754,-121.607 921.268,-121.648C921.003,-121.414 920.689,-120.95 920.617,-120.598L920.964,-119.99L920.756,-119.437L921.022,-118.049C920.796,-117.571 920.487,-117.122 920.207,-116.674C919.803,-116.623 918.98,-115.474 919.058,-115.054C920.594,-114.321 920.823,-113.823 921.101,-112.186L920.313,-110.836L919.802,-110.942C919.606,-110.767 919.415,-110.575 919.254,-110.369L919.254,-110.369Z" style="fill:rgb(38,82,18);stroke:rgb(13,13,13);stroke-width:0.44px;stroke-linecap:butt;stroke-miterlimit:3.8637;"/>
                            </g>
                        </g>
                    </g>
                </g>
                <g id="Official_Seal_of_Cagayan.afdesign2" serif:id="Official_Seal_of_Cagayan.afdesign">
                </g>
            </g>
        </g>
        <g id="Layer2">
            <g transform="matrix(1.03915,0,0,0.969514,-39.7131,-0.0681075)">
                <path d="M615.613,147.163L621.015,164.981L638.494,164.981L624.353,175.993L629.754,193.811L615.613,182.799L601.472,193.811L606.873,175.993L592.732,164.981L610.212,164.981L615.613,147.163Z" style="fill:rgb(235,235,235);"/>
            </g>
            <g transform="matrix(1.01486,-0.223372,0.208404,0.94685,-121.504,143.964)">
                <path d="M615.613,147.163L621.015,164.981L638.494,164.981L624.353,175.993L629.754,193.811L615.613,182.799L601.472,193.811L606.873,175.993L592.732,164.981L610.212,164.981L615.613,147.163Z" style="fill:rgb(235,235,235);"/>
            </g>
            <g transform="matrix(0.943117,-0.436301,0.407064,0.879919,-170.423,302.21)">
                <path d="M615.613,147.163L621.015,164.981L638.494,164.981L624.353,175.993L629.754,193.811L615.613,182.799L601.472,193.811L606.873,175.993L592.732,164.981L610.212,164.981L615.613,147.163Z" style="fill:rgb(235,235,235);"/>
            </g>
            <g transform="matrix(0.827285,-0.628831,0.586693,0.771848,-184.181,467.272)">
                <path d="M615.613,147.163L621.015,164.981L638.494,164.981L624.353,175.993L629.754,193.811L615.613,182.799L601.472,193.811L606.873,175.993L592.732,164.981L610.212,164.981L615.613,147.163Z" style="fill:rgb(235,235,235);"/>
            </g>
            <g transform="matrix(0.672774,-0.791962,0.738892,0.627691,-162.137,631.434)">
                <path d="M615.613,147.163L621.015,164.981L638.494,164.981L624.353,175.993L629.754,193.811L615.613,182.799L601.472,193.811L606.873,175.993L592.732,164.981L610.212,164.981L615.613,147.163Z" style="fill:rgb(235,235,235);"/>
            </g>
            <g transform="matrix(0.486809,-0.918066,0.856546,0.454188,-105.32,787.019)">
                <path d="M615.613,147.163L621.015,164.981L638.494,164.981L624.353,175.993L629.754,193.811L615.613,182.799L601.472,193.811L606.873,175.993L592.732,164.981L610.212,164.981L615.613,147.163Z" style="fill:rgb(235,235,235);"/>
            </g>
            <g transform="matrix(0.278085,-1.00125,0.934154,0.25945,-16.388,926.754)">
                <path d="M615.613,147.163L621.015,164.981L638.494,164.981L624.353,175.993L629.754,193.811L615.613,182.799L601.472,193.811L606.873,175.993L592.732,164.981L610.212,164.981L615.613,147.163Z" style="fill:rgb(235,235,235);"/>
            </g>
            <g transform="matrix(0.0563589,-1.03762,0.968087,0.0525823,100.503,1044.11)">
                <path d="M615.613,147.163L621.015,164.981L638.494,164.981L624.353,175.993L629.754,193.811L615.613,182.799L601.472,193.811L606.873,175.993L592.732,164.981L610.212,164.981L615.613,147.163Z" style="fill:rgb(235,235,235);"/>
            </g>
            <g transform="matrix(-0.168002,-1.02548,0.95676,-0.156744,239.886,1133.59)">
                <path d="M615.613,147.163L621.015,164.981L638.494,164.981L624.353,175.993L629.754,193.811L615.613,182.799L601.472,193.811L606.873,175.993L592.732,164.981L610.212,164.981L615.613,147.163Z" style="fill:rgb(235,235,235);"/>
            </g>
            <g transform="matrix(-0.384508,-0.965392,0.900701,-0.358742,395.247,1191.02)">
                <path d="M615.613,147.163L621.015,164.981L638.494,164.981L624.353,175.993L629.754,193.811L615.613,182.799L601.472,193.811L606.873,175.993L592.732,164.981L610.212,164.981L615.613,147.163Z" style="fill:rgb(235,235,235);"/>
            </g>
            <g transform="matrix(-0.583037,-0.860172,0.802532,-0.543968,559.32,1213.71)">
                <path d="M615.613,147.163L621.015,164.981L638.494,164.981L624.353,175.993L629.754,193.811L615.613,182.799L601.472,193.811L606.873,175.993L592.732,164.981L610.212,164.981L615.613,147.163Z" style="fill:rgb(235,235,235);"/>
            </g>
            <g transform="matrix(-0.754308,-0.714736,0.666842,-0.703761,724.435,1200.6)">
                <path d="M615.613,147.163L621.015,164.981L638.494,164.981L624.353,175.993L629.754,193.811L615.613,182.799L601.472,193.811L606.873,175.993L592.732,164.981L610.212,164.981L615.613,147.163Z" style="fill:rgb(235,235,235);"/>
            </g>
            <g transform="matrix(-0.890312,-0.535885,0.499975,-0.830652,882.873,1152.31)">
                <path d="M615.613,147.163L621.015,164.981L638.494,164.981L624.353,175.993L629.754,193.811L615.613,182.799L601.472,193.811L606.873,175.993L592.732,164.981L610.212,164.981L615.613,147.163Z" style="fill:rgb(235,235,235);"/>
            </g>
            <g transform="matrix(-0.984692,-0.331979,0.309733,-0.918708,1027.23,1071.08)">
                <path d="M615.613,147.163L621.015,164.981L638.494,164.981L624.353,175.993L629.754,193.811L615.613,182.799L601.472,193.811L606.873,175.993L592.732,164.981L610.212,164.981L615.613,147.163Z" style="fill:rgb(235,235,235);"/>
            </g>
            <g transform="matrix(-1.03303,-0.112552,0.10501,-0.963811,1150.75,960.729)">
                <path d="M615.613,147.163L621.015,164.981L638.494,164.981L624.353,175.993L629.754,193.811L615.613,182.799L601.472,193.811L606.873,175.993L592.732,164.981L610.212,164.981L615.613,147.163Z" style="fill:rgb(235,235,235);"/>
            </g>
            <g transform="matrix(-1.03308,0.112137,-0.104623,-0.963853,1247.66,826.403)">
                <path d="M615.613,147.163L621.015,164.981L638.494,164.981L624.353,175.993L629.754,193.811L615.613,182.799L601.472,193.811L606.873,175.993L592.732,164.981L610.212,164.981L615.613,147.163Z" style="fill:rgb(235,235,235);"/>
            </g>
            <g transform="matrix(-0.984825,0.331583,-0.309364,-0.918832,1313.43,674.386)">
                <path d="M615.613,147.163L621.015,164.981L638.494,164.981L624.353,175.993L629.754,193.811L615.613,182.799L601.472,193.811L606.873,175.993L592.732,164.981L610.212,164.981L615.613,147.163Z" style="fill:rgb(235,235,235);"/>
            </g>
            <g transform="matrix(-0.890527,0.535527,-0.499641,-0.830853,1344.98,511.785)">
                <path d="M615.613,147.163L621.015,164.981L638.494,164.981L624.353,175.993L629.754,193.811L615.613,182.799L601.472,193.811L606.873,175.993L592.732,164.981L610.212,164.981L615.613,147.163Z" style="fill:rgb(235,235,235);"/>
            </g>
            <g transform="matrix(-0.754595,0.714433,-0.666559,-0.704029,1340.85,346.202)">
                <path d="M615.613,147.163L621.015,164.981L638.494,164.981L624.353,175.993L629.754,193.811L615.613,182.799L601.472,193.811L606.873,175.993L592.732,164.981L610.212,164.981L615.613,147.163Z" style="fill:rgb(235,235,235);"/>
            </g>
            <g transform="matrix(-0.583383,0.859938,-0.802313,-0.54429,1301.22,185.378)">
                <path d="M615.613,147.163L621.015,164.981L638.494,164.981L624.353,175.993L629.754,193.811L615.613,182.799L601.472,193.811L606.873,175.993L592.732,164.981L610.212,164.981L615.613,147.163Z" style="fill:rgb(235,235,235);"/>
            </g>
            <g transform="matrix(-0.384896,0.965238,-0.900557,-0.359104,1227.94,36.8321)">
                <path d="M615.613,147.163L621.015,164.981L638.494,164.981L624.353,175.993L629.754,193.811L615.613,182.799L601.472,193.811L606.873,175.993L592.732,164.981L610.212,164.981L615.613,147.163Z" style="fill:rgb(235,235,235);"/>
            </g>
            <g transform="matrix(-0.168414,1.02541,-0.956697,-0.157128,1124.45,-92.4901)">
                <path d="M615.613,147.163L621.015,164.981L638.494,164.981L624.353,175.993L629.754,193.811L615.613,182.799L601.472,193.811L606.873,175.993L592.732,164.981L610.212,164.981L615.613,147.163Z" style="fill:rgb(235,235,235);"/>
            </g>
            <g transform="matrix(0.0559423,1.03764,-0.968108,0.0521936,995.579,-196.543)">
                <path d="M615.613,147.163L621.015,164.981L638.494,164.981L624.353,175.993L629.754,193.811L615.613,182.799L601.472,193.811L606.873,175.993L592.732,164.981L610.212,164.981L615.613,147.163Z" style="fill:rgb(235,235,235);"/>
            </g>
            <g transform="matrix(0.277683,1.00136,-0.934258,0.259075,847.353,-270.461)">
                <path d="M615.613,147.163L621.015,164.981L638.494,164.981L624.353,175.993L629.754,193.811L615.613,182.799L601.472,193.811L606.873,175.993L592.732,164.981L610.212,164.981L615.613,147.163Z" style="fill:rgb(235,235,235);"/>
            </g>
            <g transform="matrix(0.486441,0.918261,-0.856728,0.453844,686.702,-310.79)">
                <path d="M615.613,147.163L621.015,164.981L638.494,164.981L624.353,175.993L629.754,193.811L615.613,182.799L601.472,193.811L606.873,175.993L592.732,164.981L610.212,164.981L615.613,147.163Z" style="fill:rgb(235,235,235);"/>
            </g>
            <g transform="matrix(0.672456,0.792232,-0.739144,0.627395,521.138,-315.642)">
                <path d="M615.613,147.163L621.015,164.981L638.494,164.981L624.353,175.993L629.754,193.811L615.613,182.799L601.472,193.811L606.873,175.993L592.732,164.981L610.212,164.981L615.613,147.163Z" style="fill:rgb(235,235,235);"/>
            </g>
            <g transform="matrix(0.827032,0.629163,-0.587003,0.771612,358.402,-284.792)">
                <path d="M615.613,147.163L621.015,164.981L638.494,164.981L624.353,175.993L629.754,193.811L615.613,182.799L601.472,193.811L606.873,175.993L592.732,164.981L610.212,164.981L615.613,147.163Z" style="fill:rgb(235,235,235);"/>
            </g>
            <g transform="matrix(0.942942,0.436679,-0.407417,0.879755,206.101,-219.682)">
                <path d="M615.613,147.163L621.015,164.981L638.494,164.981L624.353,175.993L629.754,193.811L615.613,182.799L601.472,193.811L606.873,175.993L592.732,164.981L610.212,164.981L615.613,147.163Z" style="fill:rgb(235,235,235);"/>
            </g>
            <g transform="matrix(1.01477,0.223779,-0.208784,0.946767,71.3559,-123.356)">
                <path d="M615.613,147.163L621.015,164.981L638.494,164.981L624.353,175.993L629.754,193.811L615.613,182.799L601.472,193.811L606.873,175.993L592.732,164.981L610.212,164.981L615.613,147.163Z" style="fill:rgb(235,235,235);"/>
            </g>
        </g>
    </g>
</svg>
