<?xml version="1.0" encoding="UTF-8"?>
<svg id="flag" width="648" height="432" version="1.1" xml:space="preserve" xmlns="http://www.w3.org/2000/svg">
  <path id="green1" d="m324 0h324v216h-324z" fill="#01411c" style="stroke-width:.499999"/>
  <path id="canton" d="m0 0h324v216h-324z" fill="#ff9900" style="stroke-width:1.1547"/>
  <g id="stripe"><path id="green2" d="m0 216h648v216h-648z" fill="#01411c" style="stroke-width:.707106"/><path id="white1" d="m0 240h648v24h-648z" style="fill:#ffffff;stroke-width:.894427"/><path id="white2" d="m0 288h648v24h-648z" style="fill:#ffffff;stroke-width:.894427"/><path id="white3" d="m0 336h648v24h-648z" style="fill:#ffffff;stroke-width:.894427"/><path id="white4" d="m0 384h648v24h-648z" style="fill:#ffffff;stroke-width:.894427"/></g>
  <g id="star-crescent" transform="translate(-2e-5 27)" fill="#ffffff" stroke-width=".9"><path id="crescent" d="m468.409 14.7227a67.932 67.932 0 0 0-47.3008 64.623 67.932 67.932 0 0 0 67.9317 67.9317 67.932 67.932 0 0 0 61.8515-39.8653 62.271 62.271 0 0 1-44.4863 18.7696 62.271 62.271 0 0 1-62.2715-62.2715 62.271 62.271 0 0 1 24.2754-49.1875z"/><path id="star" d="m514.251 28.1218 28.6152 32.1923-42.0723-9.22464 39.4598-17.2662-21.7747 37.1629z"/></g>
</svg>
