<?xml version="1.0" encoding="UTF-8"?>
<svg xmlns="http://www.w3.org/2000/svg" version="1.1" viewBox="0 0 4500 3000">
  <!-- Generator: Adobe Illustrator 29.0.1, SVG Export Plug-In . SVG Version: 2.1.0 Build 192)  -->
  <g id="Layer_2">
    <rect x="-32.72" y="-31" width="4542.14" height="3075.43" fill="#d45127"/>
  </g>
  <g id="Layer_1">
    <g>
      <path d="M2190.5,1023.21c-3.32,5.51-1.4,12.25-1.4,12.25" fill="none" stroke="#231f20" stroke-miterlimit="10" stroke-width="1.2"/>
      <line x1="2185.92" y1="1026.1" x2="2185.92" y2="1033.38" fill="none" stroke="#231f20" stroke-miterlimit="10" stroke-width="1.2"/>
      <path d="M2183.86,1031.82c3.86,0,3.87-6,0-6s-3.87,6,0,6h0Z" fill="#231f20"/>
      <path d="M2216.42,1027.48c.14.44.24.88.3,1.34l-.11-.8c.08.64.08,1.28,0,1.92l.11-.8c-.09.64-.25,1.25-.5,1.85l.3-.72c-.02.06-.05.11-.07.17-.22.34-.34.72-.36,1.12-.09.4-.07.8.05,1.2.19.7.73,1.45,1.38,1.79.7.37,1.54.55,2.31.3.69-.22,1.48-.68,1.79-1.38.29-.66.58-1.31.74-2.01s.25-1.37.29-2.06c.07-1.17-.1-2.39-.46-3.5-.24-.74-.7-1.39-1.38-1.79-.64-.38-1.59-.54-2.31-.3s-1.43.68-1.79,1.38-.55,1.54-.3,2.31h0Z" fill="#231f20"/>
      <path d="M2217.81,1030.87c.08.15.16.31.23.47l-.3-.72c.16.39.27.79.33,1.2l-.11-.8c.06.41.06.83,0,1.25l.11-.8s0,.07-.01.1l-.11.8c-.02.41.07.8.26,1.16.07.25.2.47.39.66.21.33.49.58.84.77l.72.3.8.11c.41.02.8-.07,1.16-.26.37-.12.69-.33.97-.62.29-.25.59-.49.9-.72l-.61.47c.49-.37.98-.73,1.49-1.08.35-.19.63-.45.84-.77.27-.29.44-.63.54-1.02.13-.4.14-.8.05-1.2-.02-.4-.14-.77-.36-1.12l-.47-.61c-.37-.37-.82-.63-1.32-.77l-.8-.11c-.54,0-1.05.14-1.51.41-1.03.7-2.03,1.47-2.99,2.27l5.01,2.92c.08-.52.17-1.05.16-1.58s-.09-1.04-.18-1.55c-.05-.26-.12-.53-.21-.78-.17-.49-.37-.97-.63-1.43-.19-.35-.45-.63-.77-.84-.29-.27-.63-.44-1.02-.54-.4-.13-.8-.14-1.2-.05-.4.02-.77.14-1.12.36l-.61.47c-.37.37-.63.82-.77,1.32l-.11.8c0,.54.14,1.05.41,1.51h0Z" fill="#231f20"/>
      <path d="M2214.35,1025.87c.55,1.05,1.15,2.09,1.63,3.18l-.3-.72c.23.54.37,1.1.45,1.68l-.11-.8c.18,1.66-.12,3.32-.16,4.98-.03,1.57,1.4,3.07,3,3s2.97-1.32,3-3c.02-.9.11-1.79.17-2.68.07-1.08.02-2.11-.14-3.18-.29-1.97-1.46-3.75-2.37-5.49-.73-1.39-2.79-1.92-4.1-1.08-1.42.92-1.85,2.61-1.08,4.1h0Z" fill="#231f20"/>
      <path d="M2293.43,1023c3.33,5.5,1.43,12.25,1.43,12.25" fill="none" stroke="#231f20" stroke-miterlimit="10" stroke-width="1.2"/>
      <line x1="2298.01" y1="1025.88" x2="2298.03" y2="1033.16" fill="none" stroke="#231f20" stroke-miterlimit="10" stroke-width="1.2"/>
      <path d="M2300.08,1031.59c3.86,0,3.87-6,0-6s-3.87,6,0,6h0Z" fill="#231f20"/>
      <path d="M2261.73,1025.75c-.22.7-.32,1.41-.41,2.13-.05.45-.07.91-.04,1.37.04.69.13,1.39.29,2.06s.45,1.36.74,2.01,1.14,1.2,1.79,1.38c.72.2,1.67.11,2.31-.3s1.2-1.03,1.38-1.79l.11-.8c0-.54-.14-1.05-.41-1.51-.03-.06-.05-.11-.07-.17l.3.72c-.25-.59-.41-1.21-.5-1.85l.11.8c-.09-.67-.09-1.34,0-2.01l-.11.8c.06-.42.16-.84.29-1.25.23-.72.07-1.67-.3-2.31s-1.08-1.22-1.79-1.38c-.77-.17-1.63-.14-2.31.3s-1.13,1.02-1.38,1.79h0Z" fill="#231f20"/>
      <path d="M2260.95,1027.7c-.25.45-.45.94-.62,1.43-.09.25-.16.51-.21.78-.09.51-.17,1.03-.18,1.55s.08,1.06.16,1.58l5.01-2.92c-.96-.8-1.96-1.56-3-2.26-.34-.22-.72-.34-1.12-.36-.4-.09-.8-.07-1.2.05-.39.09-.73.27-1.02.54-.33.21-.58.49-.77.84l-.3.72c-.14.53-.14,1.06,0,1.6l.3.72c.27.45.63.81,1.08,1.08.54.36,1.07.75,1.58,1.14l-.61-.47c.27.21.54.43.81.65l.61.47c.34.22.72.34,1.12.36.27.07.53.07.8,0,.4-.02.77-.14,1.12-.36l.61-.47.47-.61c.22-.34.34-.72.36-1.12.09-.4.07-.8-.05-1.2,0-.03-.01-.07-.01-.1l.11.8c-.05-.41-.05-.83,0-1.25l-.11.8c.06-.41.17-.82.33-1.2l-.3.72c.07-.16.14-.32.23-.47.22-.34.34-.72.36-1.12.09-.4.07-.8-.05-1.2-.09-.39-.27-.73-.54-1.02-.21-.33-.49-.58-.84-.77l-.72-.3c-.53-.14-1.06-.14-1.6,0-.73.24-1.41.69-1.79,1.38h0Z" fill="#231f20"/>
      <path d="M2264.39,1022.7c-.96,1.86-2.11,3.7-2.4,5.8-.25,1.87.05,3.68.09,5.55.04,1.57,1.35,3.07,3,3s3.04-1.32,3-3-.37-3.44-.15-5.15l-.11.8c.08-.52.22-1.02.42-1.51l-.3.72c.48-1.09,1.07-2.13,1.62-3.18.72-1.39.41-3.32-1.08-4.1-1.38-.73-3.33-.41-4.1,1.08h0Z" fill="#231f20"/>
      <g>
        <path d="M2228.21,1047.17" fill="none" stroke="#231f20" stroke-miterlimit="10" stroke-width="1.2"/>
        <path d="M2229.2,1045.56c-22.97,21.97,4.48,25.02,6.67,18.1" fill="none" stroke="#231f20" stroke-miterlimit="10" stroke-width="4"/>
        <path d="M2224.22,1041.3c.38.33.73.67,1.07,1.04.15.16.42.39.52.6-.04-.09-.38-.52-.15-.19.08.12.17.24.25.36.28.41.54.84.77,1.28.06.11.11.21.16.32.19.36-.06-.09-.08-.22.04.29.19.58.25.87l-.11-.8c.04.29.05.57.01.87l.11-.8c-.03.15-.06.29-.1.44-.13.47.28-.53.09-.24-.06.09-.17.22-.2.32.31-.38.38-.48.24-.3-.05.06-.1.12-.15.18-.18.19-.38.36-.57.54-.43.39.59-.4.1-.09-.13.08-.26.17-.39.26l4.41,1.79-.03-.19.11.8c-.02-.27,0-.52.03-.79l-.11.8c.14-.91.3-1.82.3-2.74s-.13-1.84-.32-2.73c-.34-1.53-1.02-3.05-1.96-4.29l-4.1,4.1c.47.29-.55-.53-.06-.05.09.08.45.52.11.1s.04.11.1.21c.07.14.13.29.21.42-.4-.68-.17-.4-.08-.13.05.15.1.3.14.45.12.41.22.83.27,1.26l-.11-.8c.03.29.03.58,0,.87l.11-.8c-.03.2-.06.4-.12.6-.03.12-.08.24-.12.36-.1.33.29-.6.12-.3-.22.39-.42.77-.67,1.14-.5.75-1.06,1.46-1.5,2.25-.77,1.37-.37,3.34,1.08,4.1s3.28.38,4.1-1.08c.48-.86,1.1-1.62,1.63-2.45.77-1.19,1.26-2.49,1.37-3.91.1-1.23-.24-2.6-.7-3.74-.61-1.52-1.44-2.81-2.87-3.69-1.09-.67-2.76-.49-3.64.47-.35.38-.61.83-.77,1.32-.21.64-.12,1.76.3,2.31.24.31.46.64.66.98.08.15.16.3.24.45.05.09.35.77.13.26s.05.18.09.28c.05.16.1.32.15.49.1.38.18.77.23,1.16l-.11-.8c.1.79.1,1.57,0,2.36l.11-.8c-.08.55-.18,1.1-.24,1.66s.03,1.11.13,1.68c.34,1.88,2.88,2.77,4.41,1.79,1.17-.75,2.2-1.63,2.97-2.8.9-1.38,1.1-3.13.68-4.71-.63-2.42-2.4-4.73-4.25-6.35-.61-.53-1.3-.88-2.12-.88-.74,0-1.61.33-2.12.88-1.04,1.13-1.26,3.14,0,4.24h0Z" fill="#231f20"/>
        <path d="M2230.41,1064.01c.16,0,.31.02.47.03.37.02-.67-.16-.15,0,.3.09.61.16.91.26.39.13-.09,0-.19-.08.1.09.3.15.43.21.28.15.55.32.81.5.19.13.42.43-.07-.07.09.09.2.16.29.24.24.21.47.42.69.64.45.45.86.92,1.27,1.41,1.6,1.95,3.23,4.21,5.91,4.64.82.13,1.57.13,2.31-.3.62-.36,1.22-1.08,1.38-1.79.33-1.44-.44-3.42-2.1-3.69-.26-.04-.52-.17-.77-.2.54.06.52.24.22.07-.12-.06-.22-.14-.34-.21-.43-.25.42.37.16.13-.1-.09-.21-.18-.31-.27-.2-.19-.4-.39-.58-.6-.79-.88-1.46-1.86-2.25-2.74-2.09-2.35-4.87-4.08-8.08-4.17-1.57-.04-3.07,1.41-3,3s1.32,2.95,3,3h0Z" fill="#231f20"/>
        <path d="M2193.52,1064.45c-.19.05-.38.09-.57.13-.71.13.65-.03.08-.01-.31.01-.62.03-.93.01-.8-.05.56.13.05.02-.15-.03-.29-.05-.44-.09-.29-.07-.57-.17-.85-.26-.49-.16.74.35.04,0-.13-.07-.27-.13-.4-.21-.26-.15-.52-.31-.77-.48-.64-.45.39.34,0,.01-.12-.1-.24-.2-.35-.3-.25-.22-.5-.46-.74-.7s-.47-.5-.69-.77c-.1-.12-.2-.25-.31-.37-.36-.44.44.61.03.03s-.8-1.15-1.16-1.75-.68-1.19-.98-1.8c-.15-.29-.29-.59-.42-.89-.06-.13-.12-.27-.18-.4-.31-.71.22.53.02.06-.31-.75-.64-1.36-1.38-1.79-.64-.38-1.59-.54-2.31-.3-1.39.45-2.74,2.14-2.1,3.69,1.33,3.18,2.97,6.31,5.45,8.75,1.36,1.33,2.92,2.36,4.71,3.01s3.9.65,5.79.17c1.52-.38,2.59-2.17,2.1-3.69s-2.06-2.5-3.69-2.1h0Z" fill="#231f20"/>
        <path d="M2179.14,1058.14c-.06-.56-.08-.68-.07-.37-.01.22,0,.18.03-.14.05-.31.05-.36,0-.14-.09.29-.04.17.17-.36-.04.03-.16.29-.19.34-.26.44.48-.54.14-.19-.43.44-.9.85-1.37,1.25-1.51,1.32-2.46,2.96-2.51,5.01-.09,4.05,3.35,7.07,6.29,9.3.58.44,1.65.49,2.31.3.7-.19,1.45-.73,1.79-1.38.37-.7.55-1.54.3-2.31s-.72-1.29-1.38-1.79c-.44-.33.54.43.12.09-.15-.12-.3-.24-.45-.37-.27-.23-.54-.46-.8-.7-.3-.27-.59-.55-.86-.84-.17-.18-.52-.76-.74-.85l.24.31c-.07-.1-.14-.2-.21-.3-.1-.15-.2-.3-.29-.46s-.17-.31-.25-.47c-.28-.54.19.65.04.07-.04-.16-.09-.33-.14-.49-.16-.56,0,.67.02.13,0-.14.05-.37.01-.5-.08.51-.09.61-.02.29.02-.09.04-.17.07-.25.08-.36-.42.71-.09.22.07-.1.37-.53.02-.08s-.01.03.08-.06c.11-.12.23-.23.35-.34.42-.39.88-.75,1.3-1.14.54-.51,1.03-1.1,1.38-1.76.62-1.18.67-2.32.48-3.61-.1-.69-.81-1.46-1.38-1.79-.64-.38-1.59-.54-2.31-.3s-1.43.68-1.79,1.38c-.4.76-.43,1.47-.3,2.31h0Z" fill="#231f20"/>
        <path d="M2196.01,1078.37c-1.44,2.06-3.95,2.84-6.47,2.52-2.67-.34-3.83,3.45-2.12,5.12,3.51,3.42,4.78,8.72,6.07,13.29,1.53,5.41,2.69,10.95,3.39,16.54.2,1.61,1.23,3,3,3,1.46,0,3.2-1.38,3-3-.79-6.28-1.99-12.49-3.74-18.58-1.57-5.47-3.29-11.4-7.48-15.48l-2.12,5.12c4.61.58,9.04-1.78,11.65-5.5.93-1.33.24-3.33-1.08-4.1-1.5-.88-3.17-.25-4.1,1.08h0Z" fill="#231f20"/>
        <path d="M2170.24,1081.8c1.83,1.36,4.13.44,5.64-.86,1.01-.87,1.76-2.04,2.53-3.11.02-.02.18-.22.17-.24.04.07-.58.73-.07.1.26-.32.53-.64.81-.94.57-.61,1.17-1.19,1.81-1.73.59-.48-.41.28.08-.07.16-.11.31-.23.47-.34.34-.24.7-.46,1.06-.66.09-.05,1.1-.49,1.11-.56-.42.17-.49.2-.19.08l.18-.07c.24-.09.48-.17.72-.25,1.5-.47,2.61-2.11,2.1-3.69s-2.09-2.6-3.69-2.1c-3.4,1.07-6.4,3.25-8.64,6-.46.56-.89,1.13-1.31,1.72-.14.2-.28.4-.43.59s-.47.54.14-.18c-.09.1-.17.22-.26.32-.18.21-.36.41-.55.61-.09.09-.19.18-.29.27-.37.35.62-.39.22-.17-.08.04-.23.11-.3.17.4-.41.71-.25.33-.16.47-.1.72-.1,1.07,0-.17-.05.79.45.31.09-.58-.43-1.64-.49-2.31-.3s-1.45.73-1.79,1.38c-.37.7-.55,1.54-.3,2.31s.72,1.3,1.38,1.79h0Z" fill="#231f20"/>
        <path d="M2171.13,1090.54c6.83,1.88,10.34,9.52,13.78,15.05,3.76,6.04,8.39,15.24,17.09,13.02,3.74-.95,2.15-6.74-1.6-5.79-2.6.66-4.88-1.8-6.27-3.83-2.15-3.15-4.06-6.47-6.08-9.7-3.78-6.09-8-12.52-15.33-14.53-3.73-1.02-5.32,4.76-1.6,5.79h0Z" fill="#231f20"/>
        <path d="M2206.06,1117.47c5.25,1.89,9.72-1.29,14.56-2.73,3.97-1.18,7.78.49,10.64,3.35s6.98-1.51,4.24-4.24c-3.51-3.51-8.53-6.03-13.6-5.45-2.68.31-5.02,1.35-7.49,2.37-2.16.9-4.45,1.74-6.75.91-1.52-.55-3.28.62-3.69,2.1-.46,1.66.57,3.14,2.1,3.69h0Z" fill="#231f20"/>
        <path d="M2205.63,1085.91c-.18.43-.41.82-.68,1.19l.47-.61c-.31.4-.67.76-1.08,1.07l.61-.47c-.49.36-1.02.66-1.58.89l.72-.3c-.78.32-1.6.53-2.44.64l.8-.11c-.48.06-.96.1-1.44.11-.78.02-1.57.32-2.12.88-.52.52-.91,1.37-.88,2.12.07,1.6,1.32,3.03,3,3,2.01-.04,3.93-.46,5.75-1.32,1.72-.81,3.31-2.31,4.06-4.08.22-.34.34-.72.36-1.12.09-.4.07-.8-.05-1.2-.19-.7-.73-1.45-1.38-1.79-.7-.37-1.54-.55-2.31-.3-.69.22-1.5.68-1.79,1.38h0Z" fill="#231f20"/>
        <path d="M2198.74,1093.39c1.35,1.88,2.72,3.64,4.65,4.96,1.76,1.2,3.97,1.83,6.1,1.78,4.32-.1,8.27-2.61,10.37-6.36.77-1.37.37-3.34-1.08-4.1s-3.28-.39-4.1,1.08c-.17.3-.34.58-.53.86-.16.24-.17.21.01,0-.14.16-.27.32-.42.48-.23.25-.47.48-.73.7-.05.04-.47.36-.19.16s-.17.1-.21.13c-.33.21-.67.4-1.01.57-.26.13-.26.09,0,0-.16.05-.32.12-.49.17-.33.1-.67.18-1,.25-.32.07-.24.02.03,0-.21,0-.43.03-.64.04-.17,0-.34,0-.51,0-.07,0-.62-.03-.24,0s-.16-.03-.24-.05c-.17-.04-.33-.08-.5-.12s-.33-.11-.5-.16c-.41-.11.33.2-.03-.01s-.71-.39-1.05-.61c-.2-.13-.27-.21-.04-.02-.14-.12-.28-.23-.41-.36-.28-.25-.54-.53-.79-.81-.16-.18-.3-.36-.46-.54-.32-.35.23.32-.05-.06-.25-.34-.5-.68-.75-1.03-.91-1.27-2.65-2.01-4.1-1.08-1.26.81-2.06,2.74-1.08,4.1h0Z" fill="#231f20"/>
        <path d="M2198.1,1108.91c3.1-.02,6.01-1.19,8.53-2.94,2.38-1.65,4.4-3.76,6.74-5.46,4.99-3.65,11.09-3.4,16.98-3.14,1.62.07,3-1.43,3-3,0-1.68-1.37-2.93-3-3-6.31-.28-13.01-.35-18.61,3.03-2.52,1.52-4.63,3.59-6.89,5.45-1.92,1.58-4.19,3.05-6.75,3.07-3.86.02-3.87,6.02,0,6h0Z" fill="#231f20"/>
        <path d="M2231.48,1097.58c.53.08,1.03.22,1.52.42l-.72-.3c.6.25,1.15.58,1.66.97l-.61-.47c.51.4.97.86,1.37,1.38l-.47-.61c.48.63.87,1.32,1.18,2.05l-.3-.72c.3.74.52,1.5.66,2.28.13.7.78,1.45,1.38,1.79.64.38,1.59.54,2.31.3s1.43-.68,1.79-1.38c.4-.75.45-1.48.3-2.31-.4-2.23-1.43-4.31-2.92-6.02-.71-.81-1.6-1.52-2.53-2.06s-1.99-.96-3.05-1.13c-.83-.13-1.56-.14-2.31.3-.62.36-1.22,1.08-1.38,1.79-.17.77-.14,1.63.3,2.31.4.61,1.04,1.26,1.79,1.38h0Z" fill="#231f20"/>
        <path d="M2209.68,1077.01c-.11.3-.22.59-.34.88l.25-.6c-.4.94-.92,1.82-1.54,2.64l.39-.51c-.65.84-1.39,1.59-2.23,2.24l.51-.39c-.69.54-1.44,1-2.23,1.37-.54.26-1,.94-1.15,1.49-.16.6-.09,1.4.25,1.93s.86,1,1.49,1.15c.69.16,1.29.05,1.93-.25,1.66-.79,3.19-1.96,4.41-3.34.67-.76,1.29-1.58,1.8-2.45s.92-1.87,1.28-2.85c.21-.58.05-1.41-.25-1.93s-.9-1.01-1.49-1.15c-.64-.15-1.36-.11-1.93.25s-.91.85-1.15,1.49h0Z" fill="#231f20"/>
        <path d="M2221.05,1082.12c-.01.17-.03.34-.05.51l.09-.66c-.11.81-.31,1.6-.6,2.36-.04.1-.19.47-.02.06s.04-.09,0,0c-.09.19-.18.39-.28.58-.19.36-.4.71-.63,1.05-.05.07-.1.14-.15.21-.04.06-.31.41-.03.06s0,0-.04.05c-.05.07-.11.13-.17.2-.27.31-.55.6-.85.88-.16.15-.32.29-.48.42-.14.11-.44.29.15-.11-.07.05-.14.1-.21.15-.35.25-.71.47-1.09.68-1.15.63-1.61,2.31-.9,3.42.75,1.17,2.19,1.57,3.42.9,3.96-2.15,6.46-6.28,6.84-10.73.11-1.31-1.23-2.56-2.5-2.5-1.45.06-2.38,1.1-2.5,2.5h0Z" fill="#231f20"/>
        <path d="M2227.31,1084.89c.03.11.06.21.09.32-.04-.39-.05-.45-.03-.17,0,.11,0,.22,0,.33-.02.22-.01.22.02,0,.03-.22.03-.22,0,0-.02.11-.05.22-.08.33-.03.1-.12.59-.21.64.14-.31.16-.38.09-.21-.03.08-.07.15-.11.23-.1.2-.21.4-.32.59-.19.35-.4.69-.6,1.03-.87,1.47-1.76,2.92-2.77,4.3-.36.49-.41,1.37-.25,1.93s.61,1.21,1.15,1.49c.58.31,1.28.46,1.93.25s1.09-.6,1.49-1.15c1.11-1.51,2.08-3.13,3.03-4.75,1.16-1.97,2.07-4.19,1.39-6.5-.37-1.25-1.78-2.17-3.08-1.75s-2.14,1.73-1.75,3.08h0Z" fill="#231f20"/>
        <path d="M2233.77,1086.49c.14.22.11.14-.08-.26.03.08.04.17.06.25l-.09-.66c.09.73-.03,1.5-.12,2.23l.09-.66c-.14.99-.36,1.97-.66,2.92-.15.45-.33.89-.49,1.33.25-.69-.02.03-.12.2-.04.08-.11.16-.15.24.24-.3.3-.37.17-.24-.05.05-.1.1-.15.14-.98.88-.96,2.66,0,3.54,1.04.96,2.49.94,3.54,0,.84-.75,1.25-1.82,1.65-2.85.32-.81.57-1.64.77-2.49.22-.99.37-1.99.45-3,.09-1.09.08-2.27-.55-3.22-.72-1.09-2.24-1.66-3.42-.9-1.09.7-1.67,2.25-.9,3.42h0Z" fill="#231f20"/>
        <path d="M2203.06,1068.08c1.2-.76,2.39-1.54,3.61-2.25.6-.35,1.22-.66,1.84-.98.33-.14.36-.16.1-.06.14-.06.28-.11.42-.16.33-.12.66-.24.99-.34,1.33-.42,2.7-.72,4.07-1.01.29-.06.59-.12.88-.17.36-.06.39-.06.09-.02.2-.02.39-.04.59-.05.29-.01.59,0,.88,0,.36.03.39.03.07,0,.19.04.38.08.57.14,1.51.41,3.33-.51,3.69-2.1s-.47-3.25-2.1-3.69c-3.26-.88-6.89.08-10.05,1.02s-5.91,2.72-8.69,4.48c-1.32.84-1.98,2.71-1.08,4.1s2.69,1.98,4.1,1.08h0Z" fill="#231f20"/>
        <path d="M2207.81,1073.7c.62-.5,1.06-1.28,1.49-1.95.37-.57.73-1.16,1.09-1.74.38-.61.76-1.22,1.18-1.81.11-.15.22-.31.33-.46.25-.36-.36.43-.1.13.22-.25.42-.51.65-.75.2-.22.41-.43.64-.63.1-.09.2-.17.3-.26.49-.43-.38.25-.06.05.25-.16.48-.33.74-.48.14-.08.29-.15.43-.23.32-.18-.61.2-.09.04.31-.1.62-.2.94-.26.64-.13.04-.08.01-.01,0-.03.42-.03.47-.04.79-.04,1.58,0,2.36.03,1.57.08,3.07-1.44,3-3-.08-1.69-1.32-2.92-3-3s-3.53-.12-5.2.43-3.12,1.49-4.37,2.69c-1.14,1.1-2.09,2.43-2.94,3.76-.41.64-.8,1.29-1.21,1.93-.2.32-.41.64-.62.96-.03.04-.27.48-.32.47.02,0,.57-.55.02-.11-1.22.99-1.11,3.22,0,4.24,1.3,1.19,2.94,1.06,4.24,0h0Z" fill="#231f20"/>
        <path d="M2206.46,1073.82c2.15.25,3.5-2.12,4.5-3.64.08-.13.17-.25.25-.38.04-.06.09-.12.13-.19.13-.18.09-.12-.13.16-.02-.12.52-.57.61-.66.03-.03.31-.31.34-.3-.29.21-.34.25-.16.13.06-.04.12-.09.18-.13.28-.19.57-.36.87-.52.13-.07.27-.13.41-.2.34-.17.07-.09-.09.03.24-.18.68-.25.97-.33.33-.1.66-.18.99-.25.16-.03.32-.06.49-.09.29-.06.29-.05,0-.01,1.6-.21,3.22-.19,4.83-.18s3.07-1.39,3-3-1.32-2.99-3-3c-3.4-.02-6.75.12-9.91,1.51-1.35.59-2.65,1.47-3.63,2.59-.54.62-1.01,1.29-1.46,1.98-.18.28-.37.57-.56.85-.31.46.24-.23-.01.01-.15.14-.5.4.04.05l1.51-.41-.18-.02c-1.56-.18-3.07,1.51-3,3,.08,1.78,1.32,2.81,3,3h0Z" fill="#231f20"/>
        <path d="M2214.18,1058.72c-4.56,1.26-8.61,3.75-12.55,6.27l4.1,4.1c.08-.11.15-.22.23-.32.19-.26.16-.21-.11.14,0-.12.29-.35.38-.46.32-.37.67-.73,1.03-1.07.17-.16.34-.31.51-.47.06-.06.7-.58.31-.27s.26-.19.34-.23c.22-.15.44-.29.66-.43l-4.1-4.1c-.28.58-.63,1.11-1.01,1.63s.44-.55.04-.05c-.09.11-.18.23-.27.34-.2.25-.4.5-.6.76-1.03,1.32-1.97,2.67-2.37,4.33-.35,1.46.34,2.95,1.74,3.54,1.47.62,2.84-.01,3.75-1.23.48-.65.93-1.4,1.49-1.98-.26.27-.2.26.02-.02.12-.15.23-.3.35-.44.28-.35.57-.7.86-1.04l-5.12-2.12c.02.31.02.62,0,.93-.04.62.1,0,.03-.08.05.06-.08.44-.1.51-.07.3-.17.6-.27.89-.14.42-.04-.09.06-.14-.06.04-.25.48-.29.55-.77,1.37-.37,3.34,1.08,4.1s3.29.39,4.1-1.08c.97-1.72,1.49-3.71,1.37-5.69-.07-1.22-.7-2.26-1.84-2.74-1.03-.43-2.51-.29-3.28.62-1.28,1.52-2.47,3.11-3.66,4.7l5.48,2.31c.07-.28.17-.54.25-.82-.23.77-.14.33-.01.1.07-.13.14-.25.21-.37.15-.25.31-.48.48-.72.08-.12.19-.23.26-.35-.39.68-.19.25-.04.05.88-1.11,1.83-2.2,2.46-3.48.57-1.17.56-2.69-.47-3.64-.96-.89-2.48-1.19-3.64-.47-2.21,1.38-4.02,3.15-5.51,5.27-.73,1.04-.45,2.79.47,3.64s2.48,1.2,3.64.47c1.85-1.18,3.69-2.36,5.62-3.4.89-.48,1.87-1.09,2.84-1.39-.81.24.09-.03.26-.1.26-.1.52-.2.79-.29.53-.19,1.07-.35,1.61-.5,1.51-.42,2.59-2.15,2.1-3.69s-2.07-2.54-3.69-2.1h0Z" fill="#231f20"/>
        <path d="M2171.42,1077.1c-.23.34-.45.7-.7,1.03l.47-.61c-.14.18-.31.33-.49.48l.61-.47c-.35.27-.7.52-1.06.78-.35.19-.63.45-.84.77-.27.29-.44.63-.54,1.02-.13.4-.14.8-.05,1.2.02.4.14.77.36,1.12l.47.61c.37.37.82.63,1.32.77l.8.11c.54,0,1.05-.14,1.51-.41.23-.17.47-.34.7-.52.11-.08.21-.16.32-.24.3-.23.61-.44.89-.7.18-.17.32-.37.48-.57s.3-.39.44-.6c.16-.24.32-.49.49-.73.22-.34.34-.72.36-1.12.09-.4.07-.8-.05-1.2-.09-.39-.27-.73-.54-1.02-.21-.33-.49-.58-.84-.77l-.72-.3c-.53-.14-1.06-.14-1.6,0l-.72.3c-.45.27-.81.63-1.08,1.08h0Z" fill="#231f20"/>
        <path d="M2254.78,1045.45c23.03,21.91-4.42,25.03-6.62,18.11" fill="none" stroke="#231f20" stroke-miterlimit="10" stroke-width="4"/>
        <path d="M2255.5,1036.94c-1.85,1.62-3.61,3.94-4.24,6.36-.41,1.56-.22,3.27.65,4.65.75,1.2,1.83,2.1,3.01,2.86,1.52.97,4.08.09,4.41-1.79.1-.56.19-1.12.13-1.68s-.16-1.11-.24-1.66l.11.8c-.1-.79-.1-1.57,0-2.36l-.11.8c.11-.76.31-1.48.58-2.21.09-.21.04-.11-.14.33.05-.1.1-.2.15-.31.08-.15.16-.3.24-.45.2-.34.42-.67.66-.98.39-.52.44-1.31.36-1.91s-.34-1.28-.83-1.72c-.97-.89-2.47-1.19-3.64-.47-1.4.87-2.22,2.13-2.83,3.62-.48,1.17-.83,2.56-.72,3.82.12,1.39.58,2.66,1.34,3.84.54.85,1.18,1.63,1.68,2.51.78,1.37,2.75,1.95,4.1,1.08s1.91-2.64,1.08-4.1c-.45-.79-1-1.5-1.51-2.25-.23-.35-.44-.7-.64-1.07s.14.25.12.3c.01-.02-.11-.31-.12-.36-.07-.22-.11-.44-.14-.67l.11.8c-.04-.36-.02-.7.03-1.06l-.11.8c.06-.36.14-.72.25-1.07.04-.15.09-.3.14-.45.04-.1.3-.76.08-.23s.03-.03.09-.13.4-.57.06-.15.03-.01.11-.1c.49-.47-.53.34-.06.05l-4.1-4.1c-.94,1.25-1.62,2.77-1.96,4.3-.19.86-.31,1.76-.32,2.64,0,.95.16,1.89.31,2.82l-.11-.8c.03.27.05.52.03.79l.11-.8-.03.19,4.41-1.79c-.13-.08-.26-.17-.39-.26-.1-.07-.49-.36-.08-.05s.03.01-.06-.07c-.12-.11-.23-.22-.33-.33-.08-.09-.39-.47-.06-.05s.05.02-.02-.08c-.1-.2-.1-.18.02.09.11.27.12.3.04.08-.03-.15-.08-.29-.11-.44l.11.8c-.04-.29-.03-.57,0-.87l-.11.8c.05-.27.14-.52.21-.78.1-.36-.27.54-.09.21.06-.11.1-.22.16-.32.24-.47.51-.92.81-1.36.07-.1.13-.19.2-.29.06-.08.32-.42.03-.05-.32.41.05-.05.1-.11.08-.09.15-.18.23-.26.35-.39.73-.76,1.13-1.11,1.18-1.04,1.14-3.2,0-4.24-1.26-1.16-2.98-1.11-4.24,0h0Z" fill="#231f20"/>
        <path d="M2253.61,1057.91c-3.21.1-5.99,1.83-8.07,4.18-.77.87-1.42,1.82-2.19,2.69-.18.21-.37.41-.58.6-.1.09-.2.18-.3.28-.41.39.44-.29.16-.12-.11.07-.22.15-.34.22-.11.06-.55.26-.07.06s.03-.02-.09.01c-.16.04-.31.07-.47.1-.7.11-1.45.79-1.79,1.38-.38.64-.54,1.59-.3,2.31.54,1.68,2.03,2.37,3.69,2.1,2.69-.44,4.31-2.69,5.9-4.65.38-.47.77-.92,1.19-1.35.22-.23.45-.44.69-.65.11-.1.26-.19.36-.3-.09.11-.48.35-.15.13.26-.18.53-.35.8-.51.14-.08.29-.14.42-.22.31-.18-.7.24-.11.04.27-.09.54-.18.81-.24.54-.12.03.06-.15,0,.13.05.43-.03.57-.04,1.57-.05,3.07-1.35,3-3s-1.32-3.05-3-3h0Z" fill="#231f20"/>
        <path d="M2288.92,1070.03c1.9.47,3.97.49,5.82-.2s3.32-1.68,4.67-3.01c2.48-2.45,4.12-5.58,5.43-8.76.28-.67.04-1.72-.3-2.31s-1.08-1.22-1.79-1.38c-.77-.17-1.63-.14-2.31.3s-1.06,1.03-1.38,1.79c-.19.47.34-.77.03-.07-.06.13-.12.27-.18.4-.13.3-.27.59-.42.88-.31.63-.65,1.25-1.01,1.85s-.73,1.18-1.14,1.73c-.13.18-.51.55.08-.1-.11.12-.2.25-.3.37-.24.28-.48.56-.74.82-.23.24-.48.47-.73.7-.13.12-.28.22-.41.35.58-.58.34-.26.12-.1-.28.2-.58.39-.88.56-.13.07-.26.14-.39.2-.26.12-.61.15.18-.07-.33.09-.64.23-.98.31-.14.03-.29.06-.43.09-.55.11.74-.05.2-.03-.36.01-.71,0-1.07,0-.59-.02.75.15.16.03-.22-.04-.43-.09-.65-.14-1.52-.38-3.32.49-3.69,2.1s.47,3.29,2.1,3.69h0Z" fill="#231f20"/>
        <path d="M2299.09,1056.31c-.18,1.28-.13,2.37.46,3.55.34.68.85,1.29,1.41,1.82.42.4.88.75,1.3,1.14.2.19.38.42.58.6-.59-.53-.31-.44-.16-.18.35.59-.13-.48-.05-.17.03.13.13.74.08.19s-.02.08-.02.19c.05.63.12-.35.04-.13-.07.18-.09.39-.15.58l-.06.16c-.11.29-.08.22.1-.23-.1.07-.19.37-.25.47-.18.32-.41.61-.61.91.45-.68.13-.18,0-.03-.12.14-.25.28-.38.42-.25.27-.52.53-.79.78s-.53.48-.8.7c-.15.13-.3.25-.45.37-.55.45.49-.37.06-.04-.65.49-1.15.97-1.38,1.79-.2.72-.11,1.67.3,2.31.79,1.23,2.77,2.09,4.1,1.08,2.93-2.24,6.38-5.27,6.27-9.31-.05-2.01-.97-3.65-2.46-4.95-.47-.41-.93-.81-1.38-1.25s.34.57.09.14c-.06-.1-.12-.25-.19-.34.43.46.21.62.13.23.06.58.08.72.06.41.01-.31-.01-.18-.07.37.12-.83.14-1.55-.3-2.31-.36-.62-1.08-1.22-1.79-1.38-1.42-.32-3.45.43-3.69,2.1h0Z" fill="#231f20"/>
        <path d="M2282.88,1081.2c2.62,3.71,7.05,6.07,11.66,5.47l-2.12-5.12c-4.18,4.1-5.89,10.03-7.44,15.5-1.73,6.09-2.92,12.31-3.69,18.59-.2,1.61,1.52,3,3,3,1.79,0,2.8-1.38,3-3,.69-5.59,1.83-11.13,3.35-16.54,1.28-4.57,2.53-9.87,6.03-13.31.85-.84,1.1-2.2.62-3.28-.43-.98-1.57-2-2.74-1.84-2.52.33-5.03-.45-6.48-2.5-.93-1.32-2.62-1.94-4.1-1.08-1.31.77-2.01,2.77-1.08,4.1h0Z" fill="#231f20"/>
        <path d="M2310.8,1076.36c-.41.3.22-.05.36-.1-.29.08-.12.06.52-.06-.2,0-.13,0,.21.04.82.11-.34-.21.37.09.55.23.14.04.01-.03-.52-.28.53.48.17.14-.1-.09-.2-.18-.29-.27-.2-.19-.38-.4-.56-.61-.09-.11-.17-.22-.26-.32.62.71.28.37.14.18-.15-.19-.29-.39-.43-.59-.42-.59-.85-1.16-1.31-1.72-2.26-2.74-5.25-4.92-8.66-5.98-1.5-.47-3.34.55-3.69,2.1-.37,1.63.49,3.19,2.1,3.69.21.07.43.14.64.21.24.09.77.44.08.02.32.2.7.33,1.03.51.39.22.77.45,1.14.71.16.11.31.22.47.33.51.37-.44-.38,0,0,.64.54,1.26,1.1,1.83,1.71.3.33.6.66.88,1.01.15.19.5.74-.07-.11.06.08.12.16.17.24.76,1.06,1.5,2.2,2.49,3.07,1.52,1.33,3.85,2.28,5.69.9.65-.49,1.15-.98,1.38-1.79.2-.72.11-1.67-.3-2.31-.8-1.24-2.76-2.08-4.1-1.08h0Z" fill="#231f20"/>
        <path d="M2311.37,1084.5c-7.32,2.03-11.53,8.47-15.3,14.57-1.97,3.18-3.85,6.43-5.93,9.54-1.4,2.09-3.7,4.71-6.38,4.03-3.74-.95-5.34,4.84-1.6,5.79,8.7,2.2,13.32-7,17.06-13.05,3.42-5.53,6.91-13.2,13.74-15.09,3.72-1.03,2.14-6.82-1.6-5.79h0Z" fill="#231f20"/>
        <path d="M2276.5,1111.52c-2.24.81-4.44.05-6.56-.81-2.54-1.03-4.94-2.14-7.69-2.44-5.08-.56-10.08,1.95-13.59,5.48-2.73,2.74,1.51,6.98,4.24,4.24s6.65-4.56,10.62-3.38c4.83,1.43,9.33,4.59,14.57,2.7,1.52-.55,2.55-2.04,2.1-3.69-.4-1.47-2.16-2.65-3.69-2.1h0Z" fill="#231f20"/>
        <path d="M2273.28,1088.78c.75,1.76,2.34,3.26,4.07,4.07,1.82.86,3.74,1.27,5.75,1.31,1.57.03,3.07-1.4,3-3s-1.32-2.97-3-3c-.48,0-.96-.04-1.44-.11l.8.11c-.87-.12-1.72-.34-2.53-.68l.72.3c-.56-.24-1.08-.54-1.56-.91l.61.47c-.37-.3-.71-.63-1-1.01l.47.61c-.28-.37-.51-.77-.69-1.19-.27-.64-1.16-1.2-1.79-1.38-.72-.2-1.67-.11-2.31.3s-1.2,1.03-1.38,1.79l-.11.8c0,.54.14,1.05.41,1.51h0Z" fill="#231f20"/>
        <path d="M2280.18,1090.18c-.22.31-.44.61-.66.92-.12.16-.24.31-.05.07-.15.18-.3.37-.45.54-.25.28-.5.56-.78.82-.13.13-.28.24-.41.37-.31.31.33-.2-.04.03-.35.21-.68.43-1.04.63-.22.12-.31.13-.02.03-.17.06-.33.12-.5.17-.33.1-.66.17-1,.23.27-.05.35-.03.03-.02-.21,0-.43.02-.64.01-.17,0-.34-.03-.51-.03-.43,0,.45.11.03,0-.34-.08-.67-.14-1.01-.24-.16-.05-.33-.12-.49-.16-.42-.1.38.2,0,0-.35-.18-.69-.35-1.02-.55-.14-.09-.28-.2-.43-.29.23.14.23.2,0,0-.26-.22-.51-.45-.74-.69-.15-.15-.28-.32-.42-.47-.3-.3.23.37,0,0-.2-.32-.42-.63-.61-.96-.77-1.37-2.76-1.95-4.1-1.08s-1.9,2.64-1.08,4.1c2.11,3.74,6.06,6.25,10.38,6.34,2.13.04,4.33-.59,6.1-1.79,1.93-1.32,3.29-3.09,4.64-4.97.92-1.28.27-3.4-1.08-4.1-1.55-.82-3.13-.29-4.1,1.08h0Z" fill="#231f20"/>
        <path d="M2286.04,1102.72c-2.49,0-4.71-1.39-6.6-2.91-2.33-1.88-4.48-4.02-7.07-5.56-5.61-3.36-12.3-3.28-18.62-2.98-1.62.08-3,1.32-3,3,0,1.57,1.37,3.08,3,3,5.91-.28,11.97-.52,16.99,3.09,2.29,1.65,4.26,3.69,6.58,5.32,2.57,1.81,5.54,3.03,8.71,3.04,3.86.01,3.87-5.99,0-6h0Z" fill="#231f20"/>
        <path d="M2251.03,1091.7c-1.07.17-2.12.59-3.05,1.13s-1.82,1.25-2.53,2.06c-1.49,1.71-2.5,3.79-2.9,6.03-.14.81-.13,1.58.3,2.31.36.62,1.08,1.22,1.79,1.38.77.17,1.63.14,2.31-.3.62-.4,1.24-1.03,1.38-1.79s.36-1.55.66-2.28l-.3.72c.31-.73.7-1.42,1.18-2.05l-.47.61c.4-.51.86-.98,1.37-1.38l-.61.47c.51-.39,1.06-.72,1.66-.98l-.72.3c.49-.2,1-.34,1.52-.43.69-.11,1.45-.8,1.79-1.38.38-.64.54-1.59.3-2.31s-.68-1.43-1.38-1.79l-.72-.3c-.53-.14-1.06-.14-1.6,0h0Z" fill="#231f20"/>
        <path d="M2269.57,1078.19c.36.98.76,1.95,1.29,2.84s1.14,1.69,1.81,2.45c1.22,1.37,2.76,2.54,4.42,3.33.62.29,1.25.44,1.93.25.58-.16,1.21-.61,1.49-1.15.59-1.11.36-2.82-.9-3.42-.79-.38-1.54-.84-2.23-1.37l.51.39c-.84-.65-1.58-1.4-2.24-2.24l.39.51c-.62-.81-1.14-1.69-1.55-2.63l.25.6c-.12-.29-.23-.59-.34-.88-.23-.62-.56-1.15-1.15-1.49-.54-.31-1.33-.45-1.93-.25-1.2.39-2.23,1.76-1.75,3.08h0Z" fill="#231f20"/>
        <path d="M2258.02,1082c.2,2.22.85,4.37,2.08,6.24s2.83,3.42,4.78,4.47c1.15.62,2.78.32,3.42-.9s.33-2.76-.9-3.42c-.35-.19-.7-.4-1.03-.63-.09-.06-.17-.12-.26-.18-.34-.24.38.31.16.12-.15-.12-.29-.24-.43-.37-.31-.28-.61-.59-.89-.9-.06-.06-.11-.13-.17-.19-.05-.06-.32-.4-.04-.04s.02.03-.03-.05c-.06-.09-.12-.17-.18-.26-.23-.33-.44-.68-.63-1.03-.09-.17-.17-.34-.26-.51-.04-.09-.1-.19-.13-.29.04.13.23.57.08.19-.3-.77-.5-1.57-.62-2.39l.09.66c-.02-.17-.04-.34-.05-.51-.06-.67-.24-1.27-.73-1.77-.43-.43-1.15-.76-1.77-.73-1.26.06-2.62,1.1-2.5,2.5h0Z" fill="#231f20"/>
        <path d="M2251.95,1083.45c-.67,2.31.23,4.53,1.41,6.5.96,1.61,1.93,3.23,3.05,4.74.4.54.82.96,1.49,1.15.6.16,1.4.09,1.93-.25,1.04-.67,1.73-2.3.9-3.42-1.01-1.37-1.9-2.83-2.78-4.29-.2-.34-.41-.68-.61-1.03-.11-.19-.22-.39-.32-.59l-.07-.15c-.11-.25-.1-.2.05.14-.09-.05-.35-1.12-.32-1.13.05.39.06.44.04.16,0-.11,0-.22,0-.33.02-.28.01-.22-.03.17.02-.11.05-.22.08-.32.36-1.26-.44-2.78-1.75-3.08s-2.68.4-3.08,1.75h0Z" fill="#231f20"/>
        <path d="M2246,1083.88c-.61.93-.64,2.07-.55,3.14s.23,2.07.47,3.08c.19.82.44,1.63.74,2.41.41,1.04.82,2.15,1.68,2.92.97.87,2.59,1.03,3.54,0,.87-.95,1.04-2.6,0-3.54-.06-.06-.35-.38-.09-.05s.01,0-.04-.1c-.12-.21-.2-.44-.31-.65.05.11.19.47.07.16-.05-.12-.1-.24-.14-.37-.09-.25-.18-.5-.26-.75-.31-.98-.53-1.98-.67-3l.09.66c-.09-.68-.19-1.39-.11-2.07l-.09.66c.01-.09.03-.17.06-.25-.19.39-.22.48-.08.26.72-1.1.25-2.81-.9-3.42-1.25-.66-2.65-.27-3.42.9h0Z" fill="#231f20"/>
        <path d="M2284,1062.71c-2.78-1.75-5.52-3.52-8.7-4.46s-6.79-1.88-10.05-1c-1.51.41-2.59,2.15-2.1,3.69s2.07,2.54,3.69,2.1c.19-.06.38-.1.57-.14-.32.03-.29.03.07,0,.29,0,.58-.02.88,0,.2,0,.39.02.59.05-.31-.05-.28-.04.09.02.29.05.59.11.88.17,1.36.28,2.74.58,4.07,1,.29.09.57.18.85.29.19.07.37.14.56.21-.26-.11-.23-.09.1.06.62.31,1.24.62,1.85.97,1.23.71,2.42,1.48,3.62,2.24,1.33.84,3.37.32,4.1-1.08.78-1.48.34-3.21-1.08-4.1h0Z" fill="#231f20"/>
        <path d="M2280.48,1069.28c-.09-.08-.4-.44-.11-.06.33.44-.06-.11-.13-.2-.21-.31-.42-.63-.62-.95-.41-.64-.8-1.29-1.21-1.93-.88-1.36-1.83-2.73-3.01-3.85-1.24-1.18-2.66-2.1-4.28-2.65s-3.53-.54-5.29-.45c-1.56.08-3.08,1.32-3,3,.07,1.56,1.32,3.09,3,3,.75-.04,1.5-.08,2.24-.05.07,0,.58,0,.59.04,0-.02-.6-.12-.1-.01.33.07.65.14.97.25.62.21-.08-.05-.08-.05,0-.01.41.21.44.22.26.14.5.31.75.47.46.29-.33-.29-.06-.05.1.09.2.17.3.26.25.22.48.45.71.69.2.22.39.45.59.67.26.3-.04,0-.1-.14.07.15.24.32.34.46.42.59.81,1.19,1.19,1.8.36.58.72,1.16,1.09,1.73.45.69.91,1.52,1.55,2.04s1.27.88,2.12.88c.74,0,1.61-.33,2.12-.88,1-1.09,1.3-3.19,0-4.24h0Z" fill="#231f20"/>
        <path d="M2277.59,1067.65l-.18.02,1.51.41c.21.14.3.31.11.03-.41-.61.22.35-.02,0-.19-.28-.38-.56-.57-.84-.45-.69-.92-1.36-1.45-1.99-.98-1.15-2.32-2.06-3.71-2.66-3.16-1.37-6.51-1.52-9.91-1.49-1.57.01-3.07,1.37-3,3s1.32,3.01,3,3c1.57-.01,3.13.01,4.7.15.46.04-.46-.09,0,0,.2.04.41.07.62.11.3.06.59.13.88.21.33.09.65.22.98.32.4.12-.46-.23-.09-.04.17.08.34.16.51.25.27.14.53.29.78.46.08.05.57.44.24.16-.3-.26.07.08.13.13.1.09.73.61.7.73.01-.06-.32-.46-.06-.07.08.13.17.25.25.37,1.03,1.54,2.38,3.99,4.57,3.73,1.55-.18,3.08-1.25,3-3-.07-1.47-1.33-3.2-3-3h0Z" fill="#231f20"/>
        <path d="M2268.24,1064.36c.54.15,1.08.31,1.61.5.26.09.53.19.79.29.16.06,1.07.38.26.09.98.35,1.93.89,2.85,1.38,1.93,1.03,3.78,2.21,5.63,3.38,1.08.68,2.76.48,3.64-.47s1.25-2.53.47-3.64c-1.5-2.12-3.31-3.88-5.52-5.26-1.09-.67-2.76-.49-3.64.47-.95,1.04-1.08,2.39-.47,3.64s1.58,2.37,2.46,3.47c.07.09.39.51.09.11s.02.02.08.11c.17.23.33.47.49.71.17.27.3.54.45.82.15.29-.22-.72-.08-.16.04.17.1.33.14.5l5.48-2.31c-1.19-1.59-2.38-3.18-3.67-4.69-.77-.91-2.26-1.05-3.28-.62-1.13.48-1.78,1.52-1.84,2.74-.11,1.98.41,3.97,1.38,5.69.77,1.37,2.76,1.94,4.1,1.08s1.9-2.64,1.08-4.1c-.08-.15-.15-.31-.24-.46-.21-.33.18.52.05.15-.11-.33-.23-.65-.31-.99-.03-.13-.05-.27-.08-.41-.09-.37.04.65.02.08-.01-.35-.02-.69,0-1.04l-5.12,2.12c.52.62,1.13,1.24,1.56,1.93-.2-.32-.2-.26.01.02.11.15.23.3.34.45.27.36.54.72.81,1.08.91,1.21,2.26,1.85,3.75,1.23,1.39-.59,2.09-2.07,1.74-3.54-.4-1.66-1.34-3.01-2.38-4.32-.18-.23-.36-.46-.55-.69-.11-.14-.22-.28-.33-.41-.35-.44.39.54.04.05-.38-.52-.73-1.04-1.01-1.62l-4.1,4.1c.22.14.45.28.67.43.09.06.44.23.48.35-.34-.27-.39-.3-.14-.1.1.08.2.17.3.25.18.15.35.31.52.46.34.32.66.65.97,1,.08.1.45.41.45.53-.26-.35-.3-.39-.11-.14.08.11.16.21.23.32l4.1-4.1c-3.95-2.51-8.01-5-12.57-6.24-1.51-.41-3.33.51-3.69,2.1s.48,3.25,2.1,3.69h0Z" fill="#231f20"/>
        <path d="M2307.46,1079.87c.16.24.32.48.48.71.07.11.14.21.22.32.21.28.44.62.71.88.37.34.78.63,1.19.92.24.18.48.35.72.53.34.22.72.34,1.12.36.4.09.8.07,1.2-.05.39-.09.73-.27,1.02-.54.33-.21.58-.49.77-.84l.3-.72c.14-.53.14-1.06,0-1.6l-.3-.72c-.27-.45-.63-.81-1.08-1.08-.35-.26-.71-.51-1.06-.78l.61.47c-.18-.14-.35-.29-.49-.47l.47.61c-.25-.33-.47-.69-.7-1.03-.19-.35-.45-.63-.77-.84-.29-.27-.63-.44-1.02-.54-.4-.13-.8-.14-1.2-.05-.4.02-.77.14-1.12.36l-.61.47c-.37.37-.63.82-.77,1.32l-.11.8c0,.54.14,1.05.41,1.51h0Z" fill="#231f20"/>
      </g>
    </g>
    <g>
      <g>
        <path d="M1743.85,1968.04" fill="none" stroke="#231f20" stroke-miterlimit="10" stroke-width="9"/>
        <path d="M1771.73,2025.84c-157.66-38.08-7.53-222.23-7.53-222.23-40.53,72.6-8.01,134.12-8.01,134.12-5.59-28.59,12.56-37.55,15.06-48.12,4.59,28.75,22.85,39.81,21.1,63.1-3.74,49.71-55.08,30.51-48.49,15.32" fill="none" stroke="#231f20" stroke-miterlimit="10" stroke-width="9"/>
        <path d="M1684.34,1719.88c9.25-2.08,18.96-2.33,28.25-.38,8.38,1.76,16.51,5.37,22.79,11.29,3.6,3.39,6.5,7.49,8.47,12.04-1.13-.45-2.39-.85-3.42-1.5,1.06.18,2.64.73,3.42,1.5-20.89-10.32-49.89-10.82-65.89,9.68-13.5,17-15,38.5-11.5,59,5.5,31.5,22,59.5,45.65,80.22" fill="none" stroke="#231f20" stroke-miterlimit="10" stroke-width="9"/>
        <path d="M1528.73,1568.29" fill="none" stroke="#231f20" stroke-miterlimit="10" stroke-width="9"/>
        <path d="M1528.25,1562.98c-1.57,28.23-3.73,23.85-8.68,39.47-11.36,35.86,16.65,46.94,28.45,59.37,12.9,13.59,14.71,60.38,14.71,60.38,1.02-36.43-45.03-48.07-45.03-48.07,31.76,13.72,20.19,46.99,26.46,72.15,6.65,26.71,39.55,20.12,39.55,20.12-51.12,21.26,7.61,83.37,7.61,83.37-16.78-24.37,34.23-49.19,43.95-65.57,15.93-26.84-12.52-42.69-26.09-36.64-26.64,11.86-7.16,40.73,3.45,28.3" fill="none" stroke="#231f20" stroke-miterlimit="10" stroke-width="9"/>
        <path d="M1586.87,1583.67c-36.44,14.51-22.94,52.12-22.94,52.12,0,0-40.5-12.54-35.2-79.14" fill="none" stroke="#231f20" stroke-miterlimit="10" stroke-width="9"/>
        <path d="M1583.65,1585.07c-16.83,25.65,3.56,52.33,16.44,61.81,31.79,23.39,35.26,42.53,26.04,54-17.84,22.18-39.83,8.72-43.88-3.86-5.38-16.73,20.25-27,25.53-15.39" fill="none" stroke="#231f20" stroke-miterlimit="10" stroke-width="9"/>
        <path d="M1591.31,1708.44c-12.92,31.49,8.55,45.7,8.55,45.7" fill="none" stroke="#231f20" stroke-miterlimit="10" stroke-width="9"/>
        <path d="M1637.9,1759.84c122.26-71.98,6.81-130.89,6.81-130.89,57.11,56.02-15.14,82.84-21.78,75.48" fill="none" stroke="#231f20" stroke-miterlimit="10" stroke-width="9"/>
        <path d="M1608.08,1809.68c6.95,99.97,96.27,166.22,96.27,166.22" fill="none" stroke="#231f20" stroke-miterlimit="10" stroke-width="9"/>
        <path d="M1693.52,1684.9c76.76-54.42,21.93-146.91-13.88-147.48-30.37-.48-32.34,31.56-21.15,39.54-51.66-7.71-29.48-66.05,17.77-73.29,56.82-8.7,151.88,130.18,23.14,214.49" fill="none" stroke="#231f20" stroke-miterlimit="10" stroke-width="9"/>
        <path d="M1712.6,1719.5c62.99-10.91,82.76-131.31,82.76-131.31,0,0-13.98,20.12-31.69,14.26" fill="none" stroke="#231f20" stroke-miterlimit="10" stroke-width="9"/>
        <path d="M1723.98,1523.5c-21.2-34.77,8.76-70.97,8.76-70.97,1.35,30.47,15.55,37.83,27.42,55.96,42.91,65.57,3.51,91.12,3.51,91.12" fill="none" stroke="#231f20" stroke-miterlimit="10" stroke-width="9"/>
        <path d="M1716.77,1490.18c-8.22-16.5-30.17-21.57-41.95-27.96-30.84-16.74-13.47-42.43-13.47-42.43-53.06,42.2-20.75,92.42,2.87,83.5,34.71-13.11,4.34-46.86-8.68-26.61" fill="none" stroke="#231f20" stroke-miterlimit="10" stroke-width="9"/>
        <path d="M1632.63,1472.5s-33.03-3.21-24.18-85.58c1.55-14.41,1.93-31.97-31.17-51.54-18.17-10.74,0-30.67-26.4-62.66,11.06,26.37-14.91,67.34.51,84.7,30.41,34.21,19.29,37.93,21.08,62.36" fill="none" stroke="#231f20" stroke-miterlimit="10" stroke-width="9"/>
        <path d="M1572.3,1411.42c-2.91-26.35-32.44-27.63-32.44-27.63,10.24,9.64,7.37,21.57,6.49,28.93-9.1,75.86,32.09,86.06,32.09,86.06" fill="none" stroke="#231f20" stroke-miterlimit="10" stroke-width="9"/>
        <path d="M1546.35,1493.1c28.18,69.89,84.22,46.14,84.22,46.14" fill="none" stroke="#231f20" stroke-miterlimit="10" stroke-width="9"/>
        <path d="M1572.35,1496.11c-8.74,8.22-25.99-3.01-25.99-3.01" fill="none" stroke="#231f20" stroke-miterlimit="10" stroke-width="9"/>
        <path d="M1791.31,1607.06c137.44-164.77-15.17-188.11-34.2-169.47,72.64-10.09,78.43,80.22,22.41,134.54" fill="none" stroke="#231f20" stroke-miterlimit="10" stroke-width="9"/>
        <path d="M1829.11,1449.99c18-161.48-115.24-143.73-116.36-89.35-28.52-48.5,41.14-71.36,76.5-59,98.18,34.31,69.44,171.69,62.41,199.87-.82,3.27-1.34,5.06-1.34,5.06,29.32-17.6,62.36,5.51,62.36,5.51,0,0-32.13.8-50.14,45.62-9.02,22.45-26.88,55.73-76.3,67.68" fill="none" stroke="#231f20" stroke-miterlimit="10" stroke-width="9"/>
        <path d="M1846.72,1507.94c56.32-17.6,52.03-54.18,49.89-76.5-3.71-38.73,19.32-56.55,19.32-56.55-25.11,17.26-33.1-3.93-56.54,24.4" fill="none" stroke="#231f20" stroke-miterlimit="10" stroke-width="9"/>
        <path d="M1836.71,1336.31c44.47,6.33,49.8-39.61,49.8-39.61-11.33,17.57-21.15,15.3-25.66,9.85-8.55-10.34-17.69-15.38-23.29-12.97-18.77,8.06-20.97-.86-20.97-.86" fill="none" stroke="#231f20" stroke-miterlimit="10" stroke-width="9"/>
        <path d="M1780.9,1244.35c28.02-2.69,18.63,31.76.63,33.36-29.67,2.65-29.54-21.56-26.68-35.68,4.98-24.55,34.7-34.74,53.04-40.82,20.25-4.82,38.31-23.7,39.19-35.37,1.63-21.53,35.38-42.11,36.8-38.22-23.7,11.98-15.71,35.42-19.28,49.94-5.61,22.78-20.22,26.41-31.34,31.34-23.91,10.6-12.65,30.89-12.65,30.89,4.94-39.57,63.28-31.38,63.28-31.38-35.74,8.54-33.96,33.08-32.33,48.21,3.89,36.09-37.09,36.09-37.09,36.09" fill="none" stroke="#231f20" stroke-miterlimit="10" stroke-width="9"/>
        <path d="M1728.87,1307.34c-70.12-47.62-7.67-125.63-7.67-125.63-27.81,83.66,42.32,93.02,42.32,93.02" fill="none" stroke="#231f20" stroke-miterlimit="10" stroke-width="9"/>
        <path d="M1717.51,1298.34c-128.01-98.89-41.24-223.28,26.26-234.85,95.61-16.39,75,54.48,53.52,61.23,10.38-3.37,11.57-36.64-33.76-38.63-42.7-1.87-116.18,62.73-67.94,149.9" fill="none" stroke="#231f20" stroke-miterlimit="10" stroke-width="9"/>
        <path d="M1779.79,1025.8c-20.11-30.3-52.44,8.94-26.38,27.07,44.36,30.86,82.78-61.31,36.19-117.8,13.47,43.07-41.32,51.47-65.6,67.66-26.04,17.36-39.76,73.3-39.76,73.3,11.02-25.74-11.51-56.2-11.51-56.2,5.73,28.19-78.69,84.98-31.44,154.62-24.81-26.12-49.64-7.8-49.64-7.8,34.07-2.43,10.5,82.27,81.08,103.08-14.3,2.05-33.59-8.1-40.1,2.99,38.81,8.68,46.27,52.08,92.54,36.69" fill="none" stroke="#231f20" stroke-miterlimit="10" stroke-width="9"/>
        <path d="M1815.32,1094.24c69.81-.39,102.98-65.32,102.98-65.32-16.88,12.86-38.57,0-38.57,0,42.91-5.46,47.07-55.64,40.77-76.34-7.5-24.59,25.77-46.52,25.77-46.52-75.7-4.11-61.13,53.83-61.13,53.83-23.24-36.72,26.78-59.1,52.45-85.41,23.59-24.17,20.8-42.02,18.32-56.89-4.53-27.24,9.55-34.37,9.55-34.37-42.34,16.54-24.77,47.84-45.71,65.23-32.53,27.02-93.05,37.61-83.89,88.71,7.84,43.72,11.09,93.47-31.05,91.72" fill="none" stroke="#231f20" stroke-miterlimit="10" stroke-width="9"/>
        <path d="M1840.45,973.79c40.24,58.36.14,94.52-34.37,97.12" fill="none" stroke="#231f20" stroke-miterlimit="10" stroke-width="9"/>
        <path d="M1791.33,1960.23c203.64,56.13,83.42,234.2,83.42,234.2" fill="none" stroke="#231f20" stroke-miterlimit="10" stroke-width="9"/>
        <path d="M1850.66,2138.62c45.95-137.05-100.62-106.2-65.27-57.34-48.12-55.45,14.12-84.55,50.14-70.07,80.36,32.3,44.41,132.43,32.38,153.64" fill="none" stroke="#231f20" stroke-miterlimit="10" stroke-width="9"/>
        <path d="M1709.91,2117.63c10.55,34.37,34.72,29.91,49.41,29.43,54.19-1.77,49.3,60.86,27.43,66.2-28.73,7.02-34.07-12.68-34.07-22.39" fill="none" stroke="#231f20" stroke-miterlimit="10" stroke-width="9"/>
        <path d="M1801.46,2178.36c43.07-27.64-5.93-50.29-5.93-50.29,109.42-3.55,72.38,99.15,72.38,99.15" fill="none" stroke="#231f20" stroke-miterlimit="10" stroke-width="9"/>
        <path d="M1830.56,2131.44c37.35,33.42,4.18,83.3,4.18,83.3" fill="none" stroke="#231f20" stroke-miterlimit="10" stroke-width="9"/>
        <path d="M1631.44,1789.12c5.77,94.97,70.12,138.48,70.12,138.48" fill="none" stroke="#231f20" stroke-miterlimit="10" stroke-width="9"/>
        <path d="M1514.75,2109.57" fill="#fff"/>
        <path d="M1512,2098.66c-36.79-90.66,33.6-138.43,33.6-138.43-53.04,99.2,163.92,277.62,235.93,310.05,0,0-85.5-34.07-70.81-160.71" fill="none" stroke="#231f20" stroke-miterlimit="10" stroke-width="9"/>
        <path d="M1363.36,1859.5c-19.12-89.59,81-133.07,81-133.07-81.96,102.59,64.84,281.09,64.84,281.09" fill="none" stroke="#231f20" stroke-miterlimit="10" stroke-width="9"/>
        <path d="M1306.46,1654.11c-17.08-83.28,48.21-149.78,48.21-149.78-23.14,139.08,36.62,260.57,36.62,260.57" fill="none" stroke="#231f20" stroke-miterlimit="10" stroke-width="9"/>
        <path d="M1382.64,1098.68c59.79-90.64,157.22-53.04,157.22-53.04-141.55,31.94-174.58,285.91-174.58,285.91" fill="none" stroke="#231f20" stroke-miterlimit="10" stroke-width="9"/>
        <path d="M1539.86,862.43c66.49-69.43,161.36,0,161.36,0-127.65-24.11-228.9,175.48-228.9,175.48" fill="none" stroke="#231f20" stroke-miterlimit="10" stroke-width="9"/>
        <path d="M1717.25,705.25c77.72-42.97,140.05,34.71,140.05,34.71-96.65-46.29-215.5,95.48-215.5,95.48" fill="none" stroke="#231f20" stroke-miterlimit="10" stroke-width="9"/>
        <path d="M1957.36,590.02c121.11,11.09,146.8,135.48,146.8,135.48-17.38-51.7-60.79-51.35-86.05-54-56.13-5.88-26.04-34.71-26.04-34.71-21.21-35.68-101.25-23.14-101.25-23.14" fill="none" stroke="#231f20" stroke-miterlimit="10" stroke-width="9"/>
        <path d="M1818.76,707.82c56.6-44.06,174.4-71.61,173.31-71.04" fill="none" stroke="#231f20" stroke-miterlimit="10" stroke-width="9"/>
        <path d="M2020.03,570.32c121.69-7.26,215.06,79,215.06,79-90.67-48.21-193.79-26.1-193.79-26.1" fill="none" stroke="#231f20" stroke-miterlimit="10" stroke-width="9"/>
        <path d="M1873.95,2377.32c-75.71-58.82-53.53-116.68-53.53-116.68,34.71,54.96,108.96,72.32,108.96,72.32" fill="none" stroke="#231f20" stroke-miterlimit="10" stroke-width="9"/>
        <path d="M1994,2418.79c-91.61-54.96-59.79-134.04-59.79-134.04,25.07,80.04,156.21,86.79,156.21,86.79" fill="none" stroke="#231f20" stroke-miterlimit="10" stroke-width="9"/>
        <path d="M2208.7,2404.32c-54.63-69.43-83.16-14.36-126.47-52.55,3.58,23.55,49,157.96,166,65.39" fill="none" stroke="#231f20" stroke-miterlimit="10" stroke-width="9"/>
        <path d="M2215.78,2356.11c-7.08-49.18-67.42-31.57-84.11-76.18,0,0-18.11,59.79,8.57,86.42" fill="none" stroke="#231f20" stroke-miterlimit="10" stroke-width="9"/>
        <path d="M1807.89,2346.4c-72.32-141.68,31.55-140.17,49.41-127.5,43.44,30.84,6.52,66.41-17.09,65.85" fill="none" stroke="#231f20" stroke-miterlimit="10" stroke-width="9"/>
        <path d="M1347.45,1428.79c-9.49,27-43.84,2.57-28.78-29.57,37.24-79.45,111.7-115.59,120.86-104.79-53.36,28.93-50.1,54.89-46.22,89.36,5.51,48.89-28.7,61.09-28.03,56.59" fill="none" stroke="#231f20" stroke-miterlimit="10" stroke-width="9"/>
        <path d="M1372.68,1441.24c36.64-15.67,55.93,2.97,55.93,2.97-46.93,8.32-27.39,50.15-31.5,63.64-12.01,39.39-46.52,40.5-46.52,40.5" fill="none" stroke="#231f20" stroke-miterlimit="10" stroke-width="9"/>
      </g>
      <g>
        <path d="M2756.48,1968.24" fill="none" stroke="#231f20" stroke-miterlimit="10" stroke-width="9"/>
        <path d="M2728.56,2026.02c157.69-37.97,7.68-222.22,7.68-222.22,40.47,72.63,7.92,134.13,7.92,134.13,5.61-28.58-12.53-37.56-15.02-48.14-4.61,28.74-22.88,39.8-21.14,63.09,3.7,49.72,55.06,30.55,48.48,15.36" fill="none" stroke="#231f20" stroke-miterlimit="10" stroke-width="9"/>
        <path d="M2816.16,1720.12c-9.24-2.08-18.96-2.35-28.25-.4-8.38,1.75-16.52,5.36-22.8,11.27-3.6,3.39-6.5,7.49-8.47,12.03,1.13-.45,2.39-.84,3.42-1.49-1.06.18-2.64.73-3.42,1.49,20.9-10.31,49.9-10.79,65.88,9.72,13.49,17.01,14.97,38.51,11.46,59.01-5.52,31.5-22.04,59.48-45.71,80.18" fill="none" stroke="#231f20" stroke-miterlimit="10" stroke-width="9"/>
        <path d="M2971.87,1568.64" fill="none" stroke="#231f20" stroke-miterlimit="10" stroke-width="9"/>
        <path d="M2972.36,1563.33c1.55,28.24,3.72,23.85,8.65,39.47,11.33,35.87-16.68,46.92-28.49,59.35-12.91,13.58-14.76,60.37-14.76,60.37-.99-36.44,45.06-48.04,45.06-48.04-31.77,13.7-20.22,46.98-26.51,72.13-6.67,26.7-39.56,20.1-39.56,20.1,51.1,21.29-7.67,83.37-7.67,83.37,16.8-24.35-34.2-49.21-43.91-65.6-15.91-26.85,12.55-42.68,26.12-36.62,26.63,11.88,7.13,40.73-3.47,28.29" fill="none" stroke="#231f20" stroke-miterlimit="10" stroke-width="9"/>
        <path d="M2913.73,1583.98c36.43,14.54,22.9,52.13,22.9,52.13,0,0,40.51-12.51,35.25-79.12" fill="none" stroke="#231f20" stroke-miterlimit="10" stroke-width="9"/>
        <path d="M2916.94,1585.38c16.81,25.66-3.6,52.33-16.48,61.8-31.8,23.37-35.29,42.51-26.07,53.98,17.82,22.19,39.82,8.75,43.88-3.83,5.39-16.73-20.23-27.01-25.52-15.4" fill="none" stroke="#231f20" stroke-miterlimit="10" stroke-width="9"/>
        <path d="M2909.19,1708.75c12.9,31.5-8.58,45.69-8.58,45.69" fill="none" stroke="#231f20" stroke-miterlimit="10" stroke-width="9"/>
        <path d="M2862.57,1760.11c-122.21-72.06-6.72-130.89-6.72-130.89-57.15,55.98,15.08,82.85,21.73,75.5" fill="none" stroke="#231f20" stroke-miterlimit="10" stroke-width="9"/>
        <path d="M2892.35,1809.97c-7.02,99.96-96.38,166.15-96.38,166.15" fill="none" stroke="#231f20" stroke-miterlimit="10" stroke-width="9"/>
        <path d="M2807,1685.14c-76.73-54.47-21.82-146.92,13.98-147.47,30.38-.46,32.31,31.58,21.12,39.55,51.66-7.68,29.52-66.03-17.72-73.3-56.81-8.74-151.97,130.07-23.29,214.47" fill="none" stroke="#231f20" stroke-miterlimit="10" stroke-width="9"/>
        <path d="M2787.9,1719.72c-62.98-10.95-82.67-131.37-82.67-131.37,0,0,13.97,20.13,31.68,14.28" fill="none" stroke="#231f20" stroke-miterlimit="10" stroke-width="9"/>
        <path d="M2776.66,1523.72c21.22-34.76-8.71-70.97-8.71-70.97-1.37,30.47-15.58,37.81-27.46,55.94-42.96,65.54-3.57,91.12-3.57,91.12" fill="none" stroke="#231f20" stroke-miterlimit="10" stroke-width="9"/>
        <path d="M2783.89,1490.4c8.23-16.49,30.19-21.55,41.97-27.94,30.86-16.72,13.5-42.42,13.5-42.42,53.03,42.24,20.68,92.43-2.92,83.5-34.71-13.13-4.31-46.86,8.7-26.6" fill="none" stroke="#231f20" stroke-miterlimit="10" stroke-width="9"/>
        <path d="M2868.04,1472.78s33.03-3.19,24.24-85.56c-1.54-14.41-1.91-31.97,31.21-51.52,18.18-10.73.02-30.67,26.44-62.64-11.08,26.37,14.87,67.35-.57,84.7-30.44,34.19-19.31,37.92-21.13,62.34" fill="none" stroke="#231f20" stroke-miterlimit="10" stroke-width="9"/>
        <path d="M2928.41,1411.74c2.93-26.34,32.46-27.61,32.46-27.61-10.25,9.64-7.39,21.56-6.51,28.92,9.05,75.86-32.15,86.04-32.15,86.04" fill="none" stroke="#231f20" stroke-miterlimit="10" stroke-width="9"/>
        <path d="M2954.3,1493.43c-28.23,69.87-84.26,46.09-84.26,46.09" fill="none" stroke="#231f20" stroke-miterlimit="10" stroke-width="9"/>
        <path d="M2928.31,1496.43c8.73,8.23,25.99-2.99,25.99-2.99" fill="none" stroke="#231f20" stroke-miterlimit="10" stroke-width="9"/>
        <path d="M2709.27,1607.23c-137.32-164.87,15.3-188.1,34.32-169.44-72.64-10.14-78.48,80.16-22.51,134.52" fill="none" stroke="#231f20" stroke-miterlimit="10" stroke-width="9"/>
        <path d="M2671.57,1450.13c-17.89-161.5,115.34-143.65,116.43-89.27,28.55-48.48-41.09-71.39-76.46-59.06-98.2,34.24-69.56,171.64-62.55,199.82.81,3.27,1.33,5.07,1.33,5.07-29.31-17.62-62.36,5.47-62.36,5.47,0,0,32.13.82,50.11,45.65,9.01,22.46,26.84,55.75,76.25,67.74" fill="none" stroke="#231f20" stroke-miterlimit="10" stroke-width="9"/>
        <path d="M2653.93,1508.07c-56.31-17.64-51.99-54.21-49.84-76.53,3.74-38.73-19.29-56.57-19.29-56.57,25.1,17.27,33.1-3.91,56.52,24.44" fill="none" stroke="#231f20" stroke-miterlimit="10" stroke-width="9"/>
        <path d="M2664.06,1336.45c-44.47,6.3-49.78-39.64-49.78-39.64,11.32,17.58,21.14,15.31,25.65,9.86,8.56-10.34,17.7-15.37,23.3-12.96,18.76,8.07,20.97-.85,20.97-.85" fill="none" stroke="#231f20" stroke-miterlimit="10" stroke-width="9"/>
        <path d="M2719.93,1244.53c-28.02-2.71-18.65,31.74-.66,33.36,29.67,2.67,29.56-21.54,26.7-35.66-4.96-24.56-34.68-34.76-53.01-40.86-20.25-4.84-38.3-23.73-39.17-35.39-1.61-21.53-35.35-42.14-36.77-38.25,23.69,12,15.68,35.44,19.25,49.95,5.6,22.78,20.2,26.42,31.32,31.36,23.9,10.62,12.63,30.9,12.63,30.9-4.91-39.57-63.25-31.42-63.25-31.42,35.74,8.57,33.94,33.1,32.3,48.23-3.91,36.09,37.07,36.11,37.07,36.11" fill="none" stroke="#231f20" stroke-miterlimit="10" stroke-width="9"/>
        <path d="M2771.92,1307.55c70.16-47.58,7.76-125.62,7.76-125.62,27.75,83.68-42.39,92.99-42.39,92.99" fill="none" stroke="#231f20" stroke-miterlimit="10" stroke-width="9"/>
        <path d="M2783.29,1298.56c128.08-98.8,41.4-223.25-26.1-234.87-95.6-16.46-75.03,54.43-53.56,61.19-10.38-3.38-11.55-36.65,33.79-38.6,42.7-1.84,116.14,62.82,67.83,149.95" fill="none" stroke="#231f20" stroke-miterlimit="10" stroke-width="9"/>
        <path d="M2721.2,1025.98c20.13-30.29,52.44,8.98,26.36,27.09-44.38,30.83-82.74-61.37-36.11-117.83-13.5,43.06,41.28,51.5,65.55,67.7,26.02,17.38,39.71,73.33,39.71,73.33-11.01-25.75,11.55-56.19,11.55-56.19-5.75,28.19,78.63,85.04,31.33,154.65,24.82-26.1,49.65-7.77,49.65-7.77-34.07-2.46-10.55,82.26-81.15,103.02,14.3,2.06,33.59-8.07,40.09,3.02-38.82,8.66-46.31,52.04-92.57,36.62" fill="none" stroke="#231f20" stroke-miterlimit="10" stroke-width="9"/>
        <path d="M2685.61,1094.4c-69.81-.44-102.93-65.39-102.93-65.39,16.87,12.87,38.57.03,38.57.03-42.91-5.49-47.04-55.67-40.71-76.36,7.51-24.58-25.74-46.54-25.74-46.54,75.7-4.05,61.09,53.87,61.09,53.87,23.27-36.7-26.74-59.12-52.39-85.45-23.57-24.19-20.77-42.04-18.28-56.91,4.55-27.24-9.53-34.38-9.53-34.38,42.33,16.56,24.73,47.85,45.67,65.26,32.52,27.04,93.03,37.67,83.83,88.77-7.87,43.71-11.15,93.46,30.98,91.74" fill="none" stroke="#231f20" stroke-miterlimit="10" stroke-width="9"/>
        <path d="M2660.57,973.93c-40.28,58.34-.21,94.52,34.3,97.15" fill="none" stroke="#231f20" stroke-miterlimit="10" stroke-width="9"/>
        <path d="M2709,1960.4c-203.67,55.98-83.58,234.14-83.58,234.14" fill="none" stroke="#231f20" stroke-miterlimit="10" stroke-width="9"/>
        <path d="M2649.55,2138.75c-45.85-137.08,100.7-106.13,65.31-57.29,48.16-55.41-14.06-84.56-50.09-70.11-80.38,32.25-44.5,132.4-32.49,153.62" fill="none" stroke="#231f20" stroke-miterlimit="10" stroke-width="9"/>
        <path d="M2790.31,2117.86c-10.58,34.36-34.74,29.88-49.43,29.39-54.19-1.81-49.35,60.82-27.47,66.18,28.72,7.04,34.07-12.66,34.08-22.37" fill="none" stroke="#231f20" stroke-miterlimit="10" stroke-width="9"/>
        <path d="M2698.72,2178.52c-43.05-27.67,5.96-50.29,5.96-50.29-109.42-3.62-72.45,99.1-72.45,99.1" fill="none" stroke="#231f20" stroke-miterlimit="10" stroke-width="9"/>
        <path d="M2669.65,2131.58c-37.38,33.39-4.24,83.3-4.24,83.3" fill="none" stroke="#231f20" stroke-miterlimit="10" stroke-width="9"/>
        <path d="M2869.01,1789.4c-5.84,94.96-70.21,138.43-70.21,138.43" fill="none" stroke="#231f20" stroke-miterlimit="10" stroke-width="9"/>
        <path d="M2985.48,2109.93" fill="#fff"/>
        <path d="M2975.95,2119.83c61.71-105.43-21.22-159.26-21.22-159.26,52.97,99.23-164.12,277.51-236.14,309.89,0,0,85.52-34.01,70.92-160.67" fill="none" stroke="#231f20" stroke-miterlimit="10" stroke-width="9"/>
        <path d="M3137.05,1859.97c19.19-89.58-80.91-133.13-80.91-133.13,81.89,102.65-65.04,281.05-65.04,281.05" fill="none" stroke="#231f20" stroke-miterlimit="10" stroke-width="9"/>
        <path d="M3194.08,1654.61c17.14-83.27-48.11-149.81-48.11-149.81,23.05,139.1-36.8,260.54-36.8,260.54" fill="none" stroke="#231f20" stroke-miterlimit="10" stroke-width="9"/>
        <path d="M3118.29,1099.13c-59.72-90.68-157.19-53.15-157.19-53.15,141.52,32.04,174.38,286.03,174.38,286.03" fill="none" stroke="#231f20" stroke-miterlimit="10" stroke-width="9"/>
        <path d="M2961.23,862.77c-66.44-69.47-161.36-.11-161.36-.11,127.67-24.02,228.78,175.64,228.78,175.64" fill="none" stroke="#231f20" stroke-miterlimit="10" stroke-width="9"/>
        <path d="M2783.96,705.47c-77.69-43.03-140.07,34.62-140.07,34.62,96.69-46.22,215.43,95.63,215.43,95.63" fill="none" stroke="#231f20" stroke-miterlimit="10" stroke-width="9"/>
        <path d="M2543.93,590.07c-121.12,11-146.89,135.38-146.89,135.38,17.42-51.68,60.83-51.31,86.09-53.94,56.13-5.85,26.06-34.7,26.06-34.7,21.24-35.66,101.27-23.07,101.27-23.07" fill="none" stroke="#231f20" stroke-miterlimit="10" stroke-width="9"/>
        <path d="M2682.44,707.98c-56.57-44.1-174.35-71.73-173.26-71.16" fill="none" stroke="#231f20" stroke-miterlimit="10" stroke-width="9"/>
        <path d="M2481.26,570.33c-121.69-7.34-215.11,78.85-215.11,78.85,90.7-48.15,193.81-25.96,193.81-25.96" fill="none" stroke="#231f20" stroke-miterlimit="10" stroke-width="9"/>
        <path d="M2626.09,2377.43c75.75-58.77,53.61-116.64,53.61-116.64-34.75,54.94-109.01,72.25-109.01,72.25" fill="none" stroke="#231f20" stroke-miterlimit="10" stroke-width="9"/>
        <path d="M2506.01,2418.81c91.65-54.9,59.88-133.99,59.88-133.99-25.13,80.02-156.27,86.68-156.27,86.68" fill="none" stroke="#231f20" stroke-miterlimit="10" stroke-width="9"/>
        <path d="M2291.32,2404.2c54.68-69.39,83.17-14.3,126.51-52.47-3.6,23.55-50.02,159.6-169.59,65.42" fill="none" stroke="#231f20" stroke-miterlimit="10" stroke-width="9"/>
        <path d="M2284.27,2355.98c7.11-49.17,67.44-31.52,84.16-76.12,0,0,18.07,59.8-8.63,86.42" fill="none" stroke="#231f20" stroke-miterlimit="10" stroke-width="9"/>
        <path d="M2692.17,2346.55c72.42-141.63-31.45-140.2-49.32-127.53-43.46,30.81-6.56,66.41,17.04,65.86" fill="none" stroke="#231f20" stroke-miterlimit="10" stroke-width="9"/>
        <path d="M3153.25,1429.26c9.47,27.01,43.84,2.6,28.8-29.55-37.18-79.48-111.62-115.67-120.78-104.87,53.34,28.97,50.06,54.92,46.16,89.39-5.54,48.89,28.66,61.11,27.99,56.61" fill="none" stroke="#231f20" stroke-miterlimit="10" stroke-width="9"/>
        <path d="M3128.02,1441.7c-36.63-15.7-55.93,2.93-55.93,2.93,46.92,8.36,27.35,50.17,31.46,63.66,11.98,39.4,46.49,40.53,46.49,40.53" fill="none" stroke="#231f20" stroke-miterlimit="10" stroke-width="9"/>
        <path d="M2214.81,2409.44c-33.33-29.87,30.66-53.2,35.81-76.82,6.25,23.79,71.87,42.75,33.66,77.56" fill="none" stroke="#231f20" stroke-miterlimit="10" stroke-width="9"/>
        <path d="M2222.25,2364.86c-25.12-28.71,24.06-53.78,28.44-66.64,14.58,22.82,42.54,36.32,30.86,66.64" fill="none" stroke="#231f20" stroke-miterlimit="10" stroke-width="9"/>
      </g>
      <path d="M2533.03,2093.33c12.21,102.38-16.07,113.95-289.21,120.38-300.86,7.08-306.08-48.86-294.51-115.05,342,54.62,583.71-5.33,583.71-5.33" fill="none" stroke="#231f20" stroke-miterlimit="10" stroke-width="9"/>
      <path d="M1991.75,2211.54c250.39,40.11,500.79,0,500.79,0" fill="none" stroke="#231f20" stroke-miterlimit="10" stroke-width="9"/>
      <g>
        <path d="M1994.27,2190.8" fill="none" stroke="#231f20" stroke-miterlimit="10" stroke-width="9"/>
        <path d="M1994.27,2190.8c5.19,14.55-2.53,20.73-2.53,20.73-70.07,21.46-18.18,76.25-4.12,83.5-1.67,27.96-29.31,18.96-28.67,0-10.29,15.11-.33,28.1-.33,28.1" fill="none" stroke="#231f20" stroke-miterlimit="10" stroke-width="9"/>
        <path d="M2025.91,2263.21c79.34,21.54,4.17,97.1-38.28,80.58" fill="none" stroke="#231f20" stroke-miterlimit="10" stroke-width="9"/>
      </g>
      <g>
        <path d="M2490.14,2191.35" fill="none" stroke="#231f20" stroke-miterlimit="10" stroke-width="9"/>
        <path d="M2490.14,2191.35c-5.17,14.56,2.55,20.73,2.55,20.73,70.09,21.39,18.26,76.23,4.2,83.49,1.7,27.96,29.33,18.93,28.67-.03,19.69,22.95-3.69,38.35-3.69,38.35" fill="none" stroke="#231f20" stroke-miterlimit="10" stroke-width="9"/>
        <path d="M2458.57,2263.79c-79.32,21.62-1.87,102.56,46.67,79.57" fill="none" stroke="#231f20" stroke-miterlimit="10" stroke-width="9"/>
      </g>
      <path d="M2032.25,2263.79c257.14,45.06,420.43,0,420.43,0" fill="none" stroke="#231f20" stroke-miterlimit="10" stroke-width="9"/>
      <path d="M1946.19,2123.07c41.45-20.05,78,19.93,78,19.93,46.13-25.97,88.41,7.07,88.41,7.07,42.43-26.36,81.32,0,81.32,0,43.39-31.72,96.38,0,96.38,0,40.81-33.67,82.19,0,82.19,0,46.11-36.91,92.36-6.43,92.36-6.43,14.82-35.36,70.32-25.29,70.32-25.29" fill="none" stroke="#231f20" stroke-miterlimit="10" stroke-width="9"/>
      <g>
        <path d="M2161.78,998.87c10.61,40.5,9.64,106.07,9.64,106.07,11.57,29.41,57.55,22.88,57.55,22.88" fill="none" stroke="#231f20" stroke-miterlimit="10" stroke-width="9"/>
        <path d="M2157.93,1111.21s8.68-60.75-19.29-89.68c0,0,9.39,10.66,4.82,19.29-2.96,5.59-14.46,8.2-21.7-13.02,0,0,8.2-4.34-3.86-22.66,0,0-20.25-38.09-13.5-57.38" fill="none" stroke="#231f20" stroke-miterlimit="10" stroke-width="9"/>
        <path d="M2104.15,948.65c12.47,38.57,32.56,30.46,32.56,30.46-1.61,9,9.16,16.39,9.16,16.39-2.25-8.36,0-12.54,0-12.54,16.39,17.8,17.36,16.88,17.36,16.88" fill="none" stroke="#231f20" stroke-miterlimit="10" stroke-width="9"/>
        <path d="M2112.15,992.78c43.04,2.88,56.76,50.65,56.76,50.65" fill="none" stroke="#231f20" stroke-miterlimit="10" stroke-width="9"/>
        <path d="M2179.39,1116.56c-41.23,20.21-59.96.49-63.08-10.65-5.14-18.32-21.47-21.02-21.47-21.02,25.97-13.21,45.42-5.66,50.24,4.79,8.61,18.65-14.3,14.79-14.3,14.79,13.34,20.73,40.66.48,40.66.48" fill="none" stroke="#231f20" stroke-miterlimit="10" stroke-width="9"/>
        <path d="M2171.91,1134.36s-79.07,6.35-142.23-16.39" fill="none" stroke="#231f20" stroke-miterlimit="10" stroke-width="9"/>
        <path d="M2031.25,1118.52c47.73,63.61,143.14,40.96,143.29,40.91" fill="none" stroke="#231f20" stroke-miterlimit="10" stroke-width="9"/>
        <path d="M2068.89,1172.71" fill="none" stroke="#231f20" stroke-miterlimit="10" stroke-width="9"/>
        <path d="M2031.25,1118.52c7.93,33.43,40.65,54.19,40.65,54.19" fill="none" stroke="#231f20" stroke-miterlimit="10" stroke-width="9"/>
        <path d="M2086.28,1156.42c-29.12,25.19-64.31,92.8-64.31,92.8-14.46,26.04-32.42,28.4-32.42,28.4,44.48,97.39,113.49,55.39,113.49,55.39,10.06-19.29,4.75-64.61,4.75-64.61" fill="none" stroke="#231f20" stroke-miterlimit="10" stroke-width="9"/>
        <path d="M2009.43,1331.55c-19.77-24.59-19.88-53.94-19.88-53.94" fill="none" stroke="#231f20" stroke-miterlimit="10" stroke-width="9"/>
        <path d="M2012.8,1441.48c3.78-16.39-.8-48.96-3.86-66.05-4.95-27.73,4.7-59.63,4.7-59.63" fill="none" stroke="#231f20" stroke-miterlimit="10" stroke-width="9"/>
        <path d="M2114.53,1490.34c27.96,28.29,108,35.2,108,35.2" fill="none" stroke="#231f20" stroke-miterlimit="10" stroke-width="9"/>
        <path d="M2152.23,1511.12c-26.77,44.63-86.56,1.55-86.56,1.55,37.61,4.82,59.46-37.29,59.46-37.29,24.43,26.04,97.39,29.89,97.39,29.89" fill="none" stroke="#231f20" stroke-miterlimit="10" stroke-width="9"/>
        <path d="M2130.57,1529.29c.67,30.96,11.92,38.99,11.92,38.99,33.43,0,52.39-25.39,52.39-25.39" fill="none" stroke="#231f20" stroke-miterlimit="10" stroke-width="9"/>
        <path d="M2190.85,1520.97c-.13,38.31,31.69,61.46,31.69,61.46" fill="none" stroke="#231f20" stroke-miterlimit="10" stroke-width="9"/>
        <path d="M2206.69,1523.6c0,28.1,18.09,39.54,18.09,39.54" fill="none" stroke="#231f20" stroke-miterlimit="10" stroke-width="9"/>
        <path d="M2144.44,1520.97c-2.89,25.07,4.81,32.85,4.81,32.85,27-2.12,42.35-22.45,42.35-22.45" fill="none" stroke="#231f20" stroke-miterlimit="10" stroke-width="9"/>
        <path d="M2087.47,1510.24c27.07,19.05,52.37-3.88,52.37-3.88" fill="none" stroke="#231f20" stroke-miterlimit="10" stroke-width="9"/>
        <path d="M2091.12,1526.04c-12.91,39.99-59.52,44.17-59.52,44.17,68.79,90.64,193.18,54.96,193.18,54.96" fill="none" stroke="#231f20" stroke-miterlimit="10" stroke-width="9"/>
        <path d="M2048.32,1566.36c57.54,76.82,175.5,45.96,175.5,45.96" fill="none" stroke="#231f20" stroke-miterlimit="10" stroke-width="9"/>
        <path d="M2106.18,1531.37c.96,31.45-40.5,52.67-40.5,52.67" fill="none" stroke="#231f20" stroke-miterlimit="10" stroke-width="9"/>
        <path d="M2091.39,1602.03c29.25-20.89,17.04-70.66,17.04-70.66" fill="none" stroke="#231f20" stroke-miterlimit="10" stroke-width="9"/>
        <path d="M2099.93,1605.91c34.86-6.77,39.91-39.21,39.91-39.21" fill="none" stroke="#231f20" stroke-miterlimit="10" stroke-width="9"/>
        <path d="M2137.8,1616.17c12.45-14.14,4.7-47.89,4.7-47.89" fill="none" stroke="#231f20" stroke-miterlimit="10" stroke-width="9"/>
        <path d="M2150.84,1617.69c50.16-29.15,44.92-70.9,44.92-70.9" fill="none" stroke="#231f20" stroke-miterlimit="10" stroke-width="9"/>
        <path d="M2194.89,1616.17c13.82-19.28,4.67-61.18,4.67-61.18" fill="none" stroke="#231f20" stroke-miterlimit="10" stroke-width="9"/>
        <path d="M2202.53,1736.71c-122.39,2.25-161.6-86.76-161.6-86.76" fill="none" stroke="#231f20" stroke-miterlimit="10" stroke-width="9"/>
        <path d="M2189.11,1748.4c-121.18,3.86-162.64-94.29-162.64-94.29" fill="none" stroke="#231f20" stroke-miterlimit="10" stroke-width="9"/>
        <path d="M2223.82,1724.5c-23.79,8.36-50.46,38.89-63.64,57.54-11.16,15.78-26.36,18.96-26.36,18.96" fill="none" stroke="#231f20" stroke-miterlimit="10" stroke-width="9"/>
        <path d="M2184.28,1750.21c-81.96,68.14-147.86-14.79-156.21-25.71-64.57-84.43-90-74.23-90-74.23,9.32-10.63,22.17-10.84,40.18-.96,10.97,6.02,27.77,13.29,48.21,4.8,3.71-1.54,3.54-7.39,14.46-4.16,8.68,2.57,7.39-14.46,30.93-42.89" fill="none" stroke="#231f20" stroke-miterlimit="10" stroke-width="9"/>
        <path d="M1964.36,1643.41c33.49,10.7,64.48,64.62,85.57,86.55,39.86,41.46,69.96,46.86,69.96,46.86" fill="none" stroke="#231f20" stroke-miterlimit="10" stroke-width="9"/>
        <path d="M1995.93,1780.91c-21.63-12.12-26.94-49.16-26.52-65.57.96-37.61-31.34-65.07-31.34-65.07" fill="none" stroke="#231f20" stroke-miterlimit="10" stroke-width="9"/>
        <path d="M2074.76,1947.24c63.88-14.93,108.44-79.29,108.44-79.29" fill="none" stroke="#231f20" stroke-miterlimit="10" stroke-width="9"/>
        <path d="M2083.73,1960.23c63.88-14.93,104.31-76.14,104.31-76.14" fill="none" stroke="#231f20" stroke-miterlimit="10" stroke-width="9"/>
        <path d="M2202.48,1966.84c-56.77,68.16-117.84,50.32-117.84,50.32,0,0,29.6-13.42,10.61-40.5-41.71-59.47-135.96-189.48-87.41-277.11" fill="none" stroke="#231f20" stroke-miterlimit="10" stroke-width="9"/>
        <path d="M2200.39,1947.24c-54.6,63.33-99.54,52.27-99.54,52.27" fill="none" stroke="#231f20" stroke-miterlimit="10" stroke-width="9"/>
        <path d="M2103.28,2049.79c40.19,22.82,96.11,7.88,96.11,7.88,13.61-3.36,9.68-317.37-117.16-252.64" fill="none" stroke="#231f20" stroke-miterlimit="10" stroke-width="9"/>
        <path d="M2199.39,2057.66c18.96,44.52,3.09,58.34,3.09,58.34-39.98,2.39-72.76,2.05-99.58-.31-164.36-14.44-104.73-104.48-104.73-104.48,10.29,35.04,105.11,38.57,105.11,38.57,0,0,12.86-14.14,15.75-30.52" fill="none" stroke="#231f20" stroke-miterlimit="10" stroke-width="9"/>
        <path d="M2223.82,1753.75c-24.11,10.93-40.62,37.61-40.62,37.61-10.17,17.36-25.98,26.83-25.98,26.83" fill="none" stroke="#231f20" stroke-miterlimit="10" stroke-width="9"/>
        <path d="M2224.14,1774.32c-12.21,6.43-22.37,18.43-27.09,26.68-9.03,15.79-30.87,29.63-30.87,29.63" fill="none" stroke="#231f20" stroke-miterlimit="10" stroke-width="9"/>
        <path d="M2224.14,1811.29c-11.25,25.39-46.57,41.77-46.57,41.77" fill="none" stroke="#231f20" stroke-miterlimit="10" stroke-width="9"/>
        <path d="M2224.14,1830.63c-11.89,18.9-41.95,34.39-41.95,34.39" fill="none" stroke="#231f20" stroke-miterlimit="10" stroke-width="9"/>
        <path d="M2224.14,1856.29c-10.61,19.61-35.41,29.82-35.41,29.82" fill="none" stroke="#231f20" stroke-miterlimit="10" stroke-width="9"/>
        <path d="M2224.14,1871.2c-4.82,14.34-32.79,25.19-32.79,25.19" fill="none" stroke="#231f20" stroke-miterlimit="10" stroke-width="9"/>
        <path d="M2166.28,2033.39c9.96,19.93,27.64,5.46,27.64,5.46" fill="none" stroke="#231f20" stroke-miterlimit="10" stroke-width="9"/>
        <path d="M2204.72,2003c-53.88-6.11-64.79,24.61-64.79,24.61-4.04-13.42-20.56-9.56-20.56-9.56" fill="none" stroke="#231f20" stroke-miterlimit="10" stroke-width="9"/>
        <path d="M2204.72,2019.27c-58.36-6.12-64.47,42.1-64.47,42.1" fill="none" stroke="#231f20" stroke-miterlimit="10" stroke-width="9"/>
        <path d="M2116.72,2027.61c23.53,4.5,12.27,31.82,12.27,31.82" fill="none" stroke="#231f20" stroke-miterlimit="10" stroke-width="9"/>
        <path d="M2201.35,2062.47c-24.46,22.03-18.02,54.49-18.02,54.49" fill="none" stroke="#231f20" stroke-miterlimit="10" stroke-width="9"/>
        <path d="M2169.18,2062.47c-11.57,16.25-7.13,54.49-7.13,54.49" fill="none" stroke="#231f20" stroke-miterlimit="10" stroke-width="9"/>
        <path d="M2102.91,2115.69c10.34-29.26.38-65.91.38-65.91" fill="none" stroke="#231f20" stroke-miterlimit="10" stroke-width="9"/>
        <path d="M2076.61,2112.46c10.61-19.61,0-65.11,0-65.11" fill="none" stroke="#231f20" stroke-miterlimit="10" stroke-width="9"/>
        <path d="M2027.53,2035.85c-3.64,42.55,0,62.82,0,62.82" fill="none" stroke="#231f20" stroke-miterlimit="10" stroke-width="9"/>
        <path d="M2016.81,2032.43c-5.34,41.57-1.27,60.21-1.27,60.21" fill="none" stroke="#231f20" stroke-miterlimit="10" stroke-width="9"/>
        <path d="M2126.84,1628.25" fill="none" stroke="#231f20" stroke-miterlimit="10" stroke-width="9"/>
        <path d="M2126.84,1628.25c-26.91,37.43-85.92,21.7-85.92,21.7" fill="none" stroke="#231f20" stroke-miterlimit="10" stroke-width="9"/>
        <path d="M2206.69,1628.96c-36.87,68.86-91.51,60.83-91.51,60.83,14.33-30.64,13.02-61.28,13.02-61.28" fill="none" stroke="#231f20" stroke-miterlimit="10" stroke-width="9"/>
        <path d="M2209.37,1628.51c-22.19,42.96,13.17,68.67,13.17,68.67" fill="none" stroke="#231f20" stroke-miterlimit="10" stroke-width="9"/>
        <path d="M2218.89,1626.63c-12.2,36.22,4.93,53.52,4.93,53.52" fill="none" stroke="#231f20" stroke-miterlimit="10" stroke-width="9"/>
        <path d="M2051.92,1637.91c34.01,13.99,55.86-14.5,55.86-14.5" fill="none" stroke="#231f20" stroke-miterlimit="10" stroke-width="9"/>
        <path d="M2141.34,1630.54c3.54,19.73-7.52,46.71-7.52,46.71,34.07-7.39,57.03-45.15,57.03-45.15" fill="none" stroke="#231f20" stroke-miterlimit="10" stroke-width="9"/>
        <path d="M2212.29,1614.71c7.67-6.24,11.53-22.31,11.53-22.31" fill="none" stroke="#231f20" stroke-miterlimit="10" stroke-width="9"/>
        <path d="M2089.61,1771.65c44.53,17.45,46.28,28.76,46.28,28.76" fill="none" stroke="#231f20" stroke-miterlimit="10" stroke-width="9"/>
        <path d="M2022.53,1717.37c-32.07,83.05,72.55,223.31,72.55,223.31" fill="none" stroke="#231f20" stroke-miterlimit="10" stroke-width="9"/>
        <path d="M2063.12,1757.94c-23.48,75.85,51.76,172.88,51.76,172.88" fill="none" stroke="#231f20" stroke-miterlimit="10" stroke-width="9"/>
        <path d="M2081.2,1768.25c-17.18,60.77,49.72,152.04,49.72,152.04" fill="none" stroke="#231f20" stroke-miterlimit="10" stroke-width="9"/>
        <path d="M2107.78,1796.67c-6.75,47.7,42.21,108.04,42.21,108.04" fill="none" stroke="#231f20" stroke-miterlimit="10" stroke-width="9"/>
        <path d="M2128.98,1798.34c-7.25,37.38,36.27,91.27,36.27,91.27" fill="none" stroke="#231f20" stroke-miterlimit="10" stroke-width="9"/>
        <path d="M2018.6,1850.69" fill="none" stroke="#231f20" stroke-miterlimit="10" stroke-width="9"/>
        <path d="M2025.91,1867.95" fill="none" stroke="#231f20" stroke-miterlimit="10" stroke-width="9"/>
        <path d="M2055.75,1918.36" fill="none" stroke="#231f20" stroke-miterlimit="10" stroke-width="9"/>
        <path d="M2054.09,1915.72c-49,30.57-72.63-9.45-89.73,1.47-64.94,41.46-94.22,7.37-94.22,7.37,0,0,27.94,11.62,42.38-28.16,9.86-27.17,44.36-67.37,107.17-43.33" fill="none" stroke="#231f20" stroke-miterlimit="10" stroke-width="9"/>
        <path d="M2047.33,1904.71c-36.94,30-70.84-12.04-85.22,0-26.04,21.81-51.53,19.84-51.53,19.84,0,0,10.61-10.09,15.43-23.11,7.25-19.58,33.27-59.79,99.89-33.5" fill="none" stroke="#231f20" stroke-miterlimit="10" stroke-width="9"/>
        <path d="M2076.61,1949.93c-62.56,41.67-89.48,32.16-114.49,17.57-26.77-15.62-43.81-7.27-43.81-7.27,0,0,6.75-14.43,39.57-14.79,14.69-.16,48.66-.6,38.05-20.84" fill="none" stroke="#231f20" stroke-miterlimit="10" stroke-width="9"/>
        <path d="M2008.05,1926.63c15.36,28.34-43.68,30.27-43.68,30.27,0,0,44.58,33.75,105.96-16.22" fill="none" stroke="#231f20" stroke-miterlimit="10" stroke-width="9"/>
      </g>
      <g>
        <path d="M2322.2,999.6c-10.6,40.5-9.62,106.07-9.62,106.07-11.56,29.41-57.55,22.89-57.55,22.89" fill="none" stroke="#231f20" stroke-miterlimit="10" stroke-width="9"/>
        <path d="M2326.08,1111.94s-8.69-60.75,19.26-89.68c0,0-9.39,10.67-4.82,19.29,2.96,5.59,14.47,8.19,21.69-13.02,0,0-8.2-4.34,3.85-22.66,0,0,20.24-38.09,13.49-57.38" fill="none" stroke="#231f20" stroke-miterlimit="10" stroke-width="9"/>
        <path d="M2379.82,949.36c-12.46,38.57-32.55,30.46-32.55,30.46,1.61,9-9.16,16.39-9.16,16.39,2.25-8.36,0-12.54,0-12.54-16.39,17.8-17.35,16.88-17.35,16.88" fill="none" stroke="#231f20" stroke-miterlimit="10" stroke-width="9"/>
        <path d="M2371.83,993.49c-43.04,2.89-56.75,50.66-56.75,50.66" fill="none" stroke="#231f20" stroke-miterlimit="10" stroke-width="9"/>
        <path d="M2304.63,1117.29c41.23,20.2,59.96.48,63.08-10.66,5.14-18.32,21.47-21.02,21.47-21.02-25.98-13.21-45.42-5.65-50.24,4.8-8.6,18.65,14.31,14.78,14.31,14.78-13.33,20.74-40.66.49-40.66.49" fill="none" stroke="#231f20" stroke-miterlimit="10" stroke-width="9"/>
        <path d="M2312.11,1135.08s79.07,6.33,142.23-16.43" fill="none" stroke="#231f20" stroke-miterlimit="10" stroke-width="9"/>
        <path d="M2452.77,1119.21c-47.72,63.62-143.13,41-143.28,40.94" fill="none" stroke="#231f20" stroke-miterlimit="10" stroke-width="9"/>
        <path d="M2415.14,1173.42" fill="none" stroke="#231f20" stroke-miterlimit="10" stroke-width="9"/>
        <path d="M2452.77,1119.21c-7.92,33.43-40.63,54.2-40.63,54.2" fill="none" stroke="#231f20" stroke-miterlimit="10" stroke-width="9"/>
        <path d="M2397.75,1157.12c29.12,25.18,64.34,92.78,64.34,92.78,14.47,26.03,32.42,28.39,32.42,28.39-44.46,97.4-113.47,55.42-113.47,55.42-10.06-19.28-4.77-64.61-4.77-64.61" fill="none" stroke="#231f20" stroke-miterlimit="10" stroke-width="9"/>
        <path d="M2474.64,1332.24c19.76-24.59,19.87-53.95,19.87-53.95" fill="none" stroke="#231f20" stroke-miterlimit="10" stroke-width="9"/>
        <path d="M2475.13,1376.12c4.95-27.73-4.71-59.63-4.71-59.63" fill="none" stroke="#231f20" stroke-miterlimit="10" stroke-width="9"/>
        <path d="M2471.29,1442.17" fill="none" stroke="#231f20" stroke-miterlimit="10" stroke-width="9"/>
        <path d="M2369.57,1491.05c-27.96,28.29-107.99,35.22-107.99,35.22" fill="none" stroke="#231f20" stroke-miterlimit="10" stroke-width="9"/>
        <path d="M2331.87,1511.84c26.78,44.62,86.56,1.53,86.56,1.53-37.61,4.83-59.47-37.27-59.47-37.27-24.42,26.04-97.39,29.92-97.39,29.92" fill="none" stroke="#231f20" stroke-miterlimit="10" stroke-width="9"/>
        <path d="M2353.54,1530.01c-.67,30.96-11.92,38.99-11.92,38.99-33.43,0-52.4-25.38-52.4-25.38" fill="none" stroke="#231f20" stroke-miterlimit="10" stroke-width="9"/>
        <path d="M2293.26,1521.7c.14,38.31-31.67,61.46-31.67,61.46" fill="none" stroke="#231f20" stroke-miterlimit="10" stroke-width="9"/>
        <path d="M2277.42,1524.34c.04,13.66-4.96,27.66-15.1,37.17" fill="none" stroke="#231f20" stroke-miterlimit="10" stroke-width="9"/>
        <path d="M2339.67,1521.69c2.9,25.07-4.8,32.85-4.8,32.85-27-2.12-42.36-22.44-42.36-22.44" fill="none" stroke="#231f20" stroke-miterlimit="10" stroke-width="9"/>
        <path d="M2396.64,1510.95c-27.06,19.06-52.37-3.87-52.37-3.87" fill="none" stroke="#231f20" stroke-miterlimit="10" stroke-width="9"/>
        <path d="M2392.99,1526.75c7.97,25.25,33.97,41.25,59.53,44.16-5.81,7.66-.02,0,0,0-1.05,1.09-1.55,2.09-2.55,3.59-21,26.5-48.5,43.5-81,52-19.5,5-39,7-58.5,6.5-16-1-32.5-2-48.12-6.31" fill="none" stroke="#231f20" stroke-miterlimit="10" stroke-width="9"/>
        <path d="M2435.8,1567.06c-57.52,76.83-175.49,46-175.49,46" fill="none" stroke="#231f20" stroke-miterlimit="10" stroke-width="9"/>
        <path d="M2377.93,1532.08c-.96,31.45,40.51,52.66,40.51,52.66" fill="none" stroke="#231f20" stroke-miterlimit="10" stroke-width="9"/>
        <path d="M2392.74,1602.74c-29.26-20.88-17.05-70.66-17.05-70.66" fill="none" stroke="#231f20" stroke-miterlimit="10" stroke-width="9"/>
        <path d="M2384.2,1606.62c-34.86-6.76-39.92-39.2-39.92-39.2" fill="none" stroke="#231f20" stroke-miterlimit="10" stroke-width="9"/>
        <path d="M2346.33,1616.89c-12.45-14.14-4.71-47.89-4.71-47.89" fill="none" stroke="#231f20" stroke-miterlimit="10" stroke-width="9"/>
        <path d="M2333.29,1618.41c-50.17-29.14-44.94-70.89-44.94-70.89" fill="none" stroke="#231f20" stroke-miterlimit="10" stroke-width="9"/>
        <path d="M2289.24,1616.91c-13.83-19.28-4.68-61.18-4.68-61.18" fill="none" stroke="#231f20" stroke-miterlimit="10" stroke-width="9"/>
        <path d="M2281.63,1737.45c122.39,2.22,161.58-86.8,161.58-86.8" fill="none" stroke="#231f20" stroke-miterlimit="10" stroke-width="9"/>
        <path d="M2295.06,1749.13c121.18,3.83,162.62-94.33,162.62-94.33" fill="none" stroke="#231f20" stroke-miterlimit="10" stroke-width="9"/>
        <path d="M2262.19,1725.93c12.78,4.57,23.28,14.07,33.78,23.57,3,3.5,6,6.5,9.5,10,8,9,14.5,18.5,22.5,28,6,6.5,13.5,12.5,22.39,14.22" fill="none" stroke="#231f20" stroke-miterlimit="10" stroke-width="9"/>
        <path d="M2299.88,1750.94c81.98,68.12,147.85-14.82,156.21-25.75,64.55-84.45,89.98-74.25,89.98-74.25-9.32-10.63-22.17-10.83-40.18-.95-10.97,6.02-27.76,13.3-48.21,4.81-3.71-1.54-3.54-7.39-14.47-4.15-8.68,2.57-7.4-14.46-30.94-42.89" fill="none" stroke="#231f20" stroke-miterlimit="10" stroke-width="9"/>
        <path d="M2519.78,1644.09c-33.49,10.7-64.46,64.63-85.55,86.57-39.85,41.47-69.94,46.88-69.94,46.88" fill="none" stroke="#231f20" stroke-miterlimit="10" stroke-width="9"/>
        <path d="M2488.24,1781.59c21.63-12.12,26.93-49.17,26.5-65.58-.97-37.61,31.32-65.08,31.32-65.08" fill="none" stroke="#231f20" stroke-miterlimit="10" stroke-width="9"/>
        <path d="M2409.45,1947.94c-63.88-14.92-108.46-79.26-108.46-79.26" fill="none" stroke="#231f20" stroke-miterlimit="10" stroke-width="9"/>
        <path d="M2400.48,1960.94c-63.88-14.92-104.33-76.12-104.33-76.12" fill="none" stroke="#231f20" stroke-miterlimit="10" stroke-width="9"/>
        <path d="M2281.73,1967.57c56.79,68.15,117.86,50.29,117.86,50.29,0,0-29.6-13.41-10.62-40.5,41.7-59.48,135.92-189.51,87.35-277.13" fill="none" stroke="#231f20" stroke-miterlimit="10" stroke-width="9"/>
        <path d="M2283.82,1947.97c54.62,63.31,99.55,52.25,99.55,52.25" fill="none" stroke="#231f20" stroke-miterlimit="10" stroke-width="9"/>
        <path d="M2380.95,2050.5c-40.19,22.83-96.11,7.9-96.11,7.9-13.62-3.36-9.76-317.36,117.1-252.67" fill="none" stroke="#231f20" stroke-miterlimit="10" stroke-width="9"/>
        <path d="M2284.84,2058.39c-18.95,44.52-3.08,58.34-3.08,58.34,39.98,2.38,72.76,2.03,99.58-.33,164.36-14.48,104.7-104.5,104.7-104.5-10.28,35.04-105.1,38.6-105.1,38.6,0,0-12.86-14.14-15.76-30.52" fill="none" stroke="#231f20" stroke-miterlimit="10" stroke-width="9"/>
        <path d="M2263.57,1756.07c12.9,6.76,23.64,17.46,32.41,28.95,1.74,2.28,3.45,4.61,4.97,7.05,4.35,6.99,9.43,13.29,15.55,18.81,3.24,2.93,6.7,5.74,10.44,8.02" fill="none" stroke="#231f20" stroke-miterlimit="10" stroke-width="9"/>
        <path d="M2262.97,1776.74c10.75,6.6,18.49,16.11,25.12,26.62,5.91,9.36,14.65,16.95,23.45,23.5,2.1,1.56,4.24,3.09,6.44,4.5" fill="none" stroke="#231f20" stroke-miterlimit="10" stroke-width="9"/>
        <path d="M2263.79,1818.93c5.35,8.29,12.69,15.19,20.51,21.12,5.86,4.44,12.11,8.41,18.61,11.86,1.22.65,2.45,1.29,3.71,1.88" fill="none" stroke="#231f20" stroke-miterlimit="10" stroke-width="9"/>
        <path d="M2263.16,1835.76c10.8,12.24,24.3,22.24,38.84,29.99" fill="none" stroke="#231f20" stroke-miterlimit="10" stroke-width="9"/>
        <path d="M2262.6,1861.2c7.34,10.71,18.56,18.78,30.14,24.39.9.44,1.8.86,2.72,1.25" fill="none" stroke="#231f20" stroke-miterlimit="10" stroke-width="9"/>
        <path d="M2261.85,1875.67c6.61,10.83,19.61,16.33,31,21.45" fill="none" stroke="#231f20" stroke-miterlimit="10" stroke-width="9"/>
        <path d="M2317.94,2034.12c-9.96,19.93-27.64,5.47-27.64,5.47" fill="none" stroke="#231f20" stroke-miterlimit="10" stroke-width="9"/>
        <path d="M2279.5,2003.73c53.88-6.12,64.8,24.59,64.8,24.59,4.04-13.42,20.56-9.57,20.56-9.57" fill="none" stroke="#231f20" stroke-miterlimit="10" stroke-width="9"/>
        <path d="M2279.51,2020c58.36-6.14,64.48,42.08,64.48,42.08" fill="none" stroke="#231f20" stroke-miterlimit="10" stroke-width="9"/>
        <path d="M2367.51,2028.32c-23.53,4.51-12.26,31.82-12.26,31.82" fill="none" stroke="#231f20" stroke-miterlimit="10" stroke-width="9"/>
        <path d="M2282.88,2063.2c24.47,22.03,18.03,54.49,18.03,54.49" fill="none" stroke="#231f20" stroke-miterlimit="10" stroke-width="9"/>
        <path d="M2315.06,2063.19c11.58,16.24,7.15,54.49,7.15,54.49" fill="none" stroke="#231f20" stroke-miterlimit="10" stroke-width="9"/>
        <path d="M2381.34,2116.4c-10.35-29.26-.39-65.91-.39-65.91" fill="none" stroke="#231f20" stroke-miterlimit="10" stroke-width="9"/>
        <path d="M2407.64,2113.17c-10.61-19.6-.02-65.11-.02-65.11" fill="none" stroke="#231f20" stroke-miterlimit="10" stroke-width="9"/>
        <path d="M2456.7,2036.54c3.65,42.55.01,62.82.01,62.82" fill="none" stroke="#231f20" stroke-miterlimit="10" stroke-width="9"/>
        <path d="M2467.42,2033.12c5.35,41.57,1.29,60.21,1.29,60.21" fill="none" stroke="#231f20" stroke-miterlimit="10" stroke-width="9"/>
        <path d="M2357.29,1628.96" fill="none" stroke="#231f20" stroke-miterlimit="10" stroke-width="9"/>
        <path d="M2357.29,1628.96c26.92,37.42,85.92,21.68,85.92,21.68" fill="none" stroke="#231f20" stroke-miterlimit="10" stroke-width="9"/>
        <path d="M2277.44,1629.69c36.89,68.85,91.53,60.81,91.53,60.81-14.34-30.64-13.03-61.27-13.03-61.27" fill="none" stroke="#231f20" stroke-miterlimit="10" stroke-width="9"/>
        <path d="M2274.77,1629.24c22.2,42.95-13.15,68.67-13.15,68.67" fill="none" stroke="#231f20" stroke-miterlimit="10" stroke-width="9"/>
        <path d="M2265.24,1627.36c5.22,17.14,7.22,36.64-3.44,51.71" fill="none" stroke="#231f20" stroke-miterlimit="10" stroke-width="9"/>
        <path d="M2432.21,1638.61c-34.01,14-55.86-14.49-55.86-14.49" fill="none" stroke="#231f20" stroke-miterlimit="10" stroke-width="9"/>
        <path d="M2342.79,1631.26c-3.54,19.73,7.53,46.71,7.53,46.71-34.07-7.38-57.04-45.14-57.04-45.14" fill="none" stroke="#231f20" stroke-miterlimit="10" stroke-width="9"/>
        <path d="M2271.84,1615.44c-4.81-3.93-7.51-9.88-9.5-15.62" fill="none" stroke="#231f20" stroke-miterlimit="10" stroke-width="9"/>
        <path d="M2394.56,1772.36c-44.53,17.46-46.27,28.77-46.27,28.77" fill="none" stroke="#231f20" stroke-miterlimit="10" stroke-width="9"/>
        <path d="M2461.62,1718.06c32.09,83.04-72.49,223.33-72.49,223.33" fill="none" stroke="#231f20" stroke-miterlimit="10" stroke-width="9"/>
        <path d="M2421.04,1758.64c23.49,75.84-51.72,172.89-51.72,172.89" fill="none" stroke="#231f20" stroke-miterlimit="10" stroke-width="9"/>
        <path d="M2402.96,1768.96c17.19,60.77-49.69,152.05-49.69,152.05" fill="none" stroke="#231f20" stroke-miterlimit="10" stroke-width="9"/>
        <path d="M2376.39,1797.38c6.76,47.7-42.19,108.05-42.19,108.05" fill="none" stroke="#231f20" stroke-miterlimit="10" stroke-width="9"/>
        <path d="M2355.19,1799.05c7.26,37.37-36.25,91.28-36.25,91.28" fill="none" stroke="#231f20" stroke-miterlimit="10" stroke-width="9"/>
        <path d="M2465.58,1851.38" fill="none" stroke="#231f20" stroke-miterlimit="10" stroke-width="9"/>
        <path d="M2458.28,1868.64" fill="none" stroke="#231f20" stroke-miterlimit="10" stroke-width="9"/>
        <path d="M2428.45,1919.06" fill="none" stroke="#231f20" stroke-miterlimit="10" stroke-width="9"/>
        <path d="M2430.11,1916.42c49.01,30.55,72.62-9.47,89.73,1.44,64.95,41.44,94.22,7.35,94.22,7.35,0,0-27.94,11.62-42.38-28.15-9.86-27.16-44.37-67.36-107.18-43.31" fill="none" stroke="#231f20" stroke-miterlimit="10" stroke-width="9"/>
        <path d="M2436.87,1905.41c36.95,30,70.83-12.06,85.22-.02,26.04,21.8,51.53,19.83,51.53,19.83,0,0-10.61-10.09-15.43-23.1-7.25-19.57-33.28-59.78-99.9-33.48" fill="none" stroke="#231f20" stroke-miterlimit="10" stroke-width="9"/>
        <path d="M2407.6,1950.64c62.57,41.66,89.48,32.14,114.49,17.54,26.77-15.62,43.81-7.28,43.81-7.28,0,0-6.75-14.43-39.57-14.78-14.69-.16-48.66-.59-38.06-20.83" fill="none" stroke="#231f20" stroke-miterlimit="10" stroke-width="9"/>
        <path d="M2476.16,1927.31c-15.36,28.34,43.69,30.26,43.69,30.26,0,0-44.58,33.76-105.96-16.19" fill="none" stroke="#231f20" stroke-miterlimit="10" stroke-width="9"/>
      </g>
      <path d="M2375.94,1314.68c-14.55,17.84-22.19,54.38-22.19,54.38" fill="none" stroke="#231f20" stroke-miterlimit="10" stroke-width="9"/>
      <path d="M2108.33,1312.14c12.55,14.8,16.81,28.96,16.81,28.96" fill="none" stroke="#231f20" stroke-miterlimit="10" stroke-width="9"/>
      <path d="M2019.71,1414c13.5-36.96,86.48-70.17,128.57-79.39,23.46-5.14,53.36-25.07,53.36-25.07" fill="none" stroke="#231f20" stroke-miterlimit="10" stroke-width="9"/>
      <path d="M2013.17,1439.69c21.33,27.02,47.14,7.37,62.47,4.2,65.25-13.5,144-82.12,144-82.12,0,0,23.34.12,29.87-.84,19.31-2.85,34.53-9.28,26.16-18.92,0,0,15-6.65,2.36-15.65,0,0,14.57-13.29-2.57-19.29,0,0,16.07-20.14-13.07-18.86,0,0-18,25.71-37.93,3.21,0,0-16.63,2.57-23.69,18.68" fill="none" stroke="#231f20" stroke-miterlimit="10" stroke-width="9"/>
      <path d="M2197.55,1312.14c.98,24.71,20.99,50.56,20.99,50.56" fill="none" stroke="#231f20" stroke-miterlimit="10" stroke-width="9"/>
      <path d="M2184.59,1319.69c2.8,33.02,23.46,51.63,23.46,51.63" fill="none" stroke="#231f20" stroke-miterlimit="10" stroke-width="9"/>
      <path d="M2170.11,1326.94c-4.14,27.91,23.11,55.82,23.11,55.82" fill="none" stroke="#231f20" stroke-miterlimit="10" stroke-width="9"/>
      <path d="M2150.58,1334.06c-.12,34.29,26.32,60.43,26.32,60.43" fill="none" stroke="#231f20" stroke-miterlimit="10" stroke-width="9"/>
      <path d="M2102.62,1349.63c22.2,14.66,49.65-.13,49.65-.13" fill="none" stroke="#231f20" stroke-miterlimit="10" stroke-width="9"/>
      <path d="M2287.03,1440.79c-3.22,4.93-23.57,13.71-30,14.57-13.04,1.74-24.07-.86-36.57-5.86-2.5-.5-5.5-2-6.5-5-1.5-4.5,1-9,3.87-11.87-3.88-1.22-2.38,2.7,0,0-3.88-1.22-9.25-4.28-8.37-9.09.45-2.45,2.28-4.5,4.05-6.14-4.03-2.92-9.01-8.47-6.44-13.77,1.29-2.65,3.99-4.41,6.54-5.69-1.71-1.41-3.24-3.18-4.26-5.15-2.03-3.91-.88-7.72,2.6-10.32,3.58-2.68,8.03-3.74,12.23-4.9,6.08,4.99,14.02,8.44,22,7.44,6.28-1.02,11.78-4.52,16.28-9.02,10.5,1,20.5,6.5,25.63,15.49" fill="none" stroke="#231f20" stroke-miterlimit="10" stroke-width="9"/>
      <path d="M2289.18,1387.21c13.5,11.14-1.09,53.36-1.09,53.36" fill="none" stroke="#231f20" stroke-miterlimit="10" stroke-width="9"/>
      <path d="M2285.07,1387.21c21.84-7.45,70.48-14.34,101.83-29.86,35.2-17.43,72.85,6.02,72.85,6.02" fill="none" stroke="#231f20" stroke-miterlimit="10" stroke-width="9"/>
      <path d="M2285.07,1442.8c21.84-22.54,128.5-5.52,128.5-5.52,24.95,2.85,53.28-9.69,51.99-9.52,12-18.44,8.12-39.79,10.58-56.67,2.57-17.68-6.27-56.41-6.27-56.41" fill="none" stroke="#231f20" stroke-miterlimit="10" stroke-width="9"/>
      <path d="M2136.07,1419.9c4.02,32.19-10.93,55.49-10.93,55.49" fill="none" stroke="#231f20" stroke-miterlimit="10" stroke-width="9"/>
      <path d="M2349.84,1436.99c-.66,19.2,10.59,38.41,10.59,38.41" fill="none" stroke="#231f20" stroke-miterlimit="10" stroke-width="9"/>
      <path d="M2096.19,1336.31c-.87,9.2-9.16,19.23-9.47,20.56,19.67,21.99,70.81,3.94,68.24,2.01" fill="none" stroke="#231f20" stroke-miterlimit="10" stroke-width="9"/>
      <path d="M2388.39,1337.43c-.48,11,7.7,16.27,7.7,16.27" fill="none" stroke="#231f20" stroke-miterlimit="10" stroke-width="9"/>
      <path d="M2014.89,1427.5c25.55,5.14,16.18,25.1,16.18,25.1" fill="none" stroke="#231f20" stroke-miterlimit="10" stroke-width="9"/>
      <path d="M2013.23,1406.45c12.91,7.07,12.2,24.99,12.2,24.99" fill="none" stroke="#231f20" stroke-miterlimit="10" stroke-width="9"/>
      <path d="M2066.44,1446.84c-15.07-10.34-33.69-3.43-33.69-3.43" fill="none" stroke="#231f20" stroke-miterlimit="10" stroke-width="9"/>
      <path d="M2025.43,1430.38c1.19-12.2,21.28-8.35,21.28-8.35-3.05,19.11-12.86,19.45-12.86,19.45" fill="none" stroke="#231f20" stroke-miterlimit="10" stroke-width="9"/>
      <path d="M2472.65,1405.71c-26.22,7.06-19.31,29.24-19.31,29.24" fill="none" stroke="#231f20" stroke-miterlimit="10" stroke-width="9"/>
      <path d="M2459.64,1413.23s-1-20.24,14.79-30.37" fill="none" stroke="#231f20" stroke-miterlimit="10" stroke-width="9"/>
      <path d="M2453.47,1426.55c-8.82-11.89-34.32,10.31-34.32,10.31" fill="none" stroke="#231f20" stroke-miterlimit="10" stroke-width="9"/>
      <path d="M2452.85,1424.16c-18.95-5.07-14.45-23.71-14.45-23.71,26.16,1.77,22.12,12.51,22.12,12.51" fill="none" stroke="#231f20" stroke-miterlimit="10" stroke-width="9"/>
      <path d="M2306.33,1381.46c11.99,15.4,1.53,54.03,1.53,54.03" fill="none" stroke="#231f20" stroke-miterlimit="10" stroke-width="9"/>
      <path d="M2324.61,1377.18c10.21,16.03,1.63,58.07,1.63,58.07" fill="none" stroke="#231f20" stroke-miterlimit="10" stroke-width="9"/>
      <path d="M2329.61,1397.71c27.71,7.07,57.29-40.36,57.29-40.36" fill="none" stroke="#231f20" stroke-miterlimit="10" stroke-width="9"/>
      <path d="M2328.3,1387.21c20.02,4.07,35.98-20.64,35.98-20.64" fill="none" stroke="#231f20" stroke-miterlimit="10" stroke-width="9"/>
      <path d="M2224.46,1291.43" fill="none" stroke="#231f20" stroke-miterlimit="10" stroke-width="9"/>
      <path d="M2169.82,1134.36c70.1,58.18,144.32,0,144.32,0" fill="none" stroke="#231f20" stroke-miterlimit="10" stroke-width="9"/>
      <path d="M2146.03,1135.89c97.71,95.29,196.39,0,196.39,0" fill="none" stroke="#231f20" stroke-miterlimit="10" stroke-width="9"/>
      <path d="M2151.18,972.04c102.21-72.64,183.21,0,183.21,0" fill="none" stroke="#231f20" stroke-miterlimit="10" stroke-width="9"/>
      <path d="M2162.61,1002.2c86.92-62.45,159.59-2.61,159.59-2.61,2.87-23.71,21.26-38.81,21.26-38.81,0,0-88.42-81.96-202.93,0,0,0,21.25,13.46,21.25,38.09" fill="none" stroke="#231f20" stroke-miterlimit="10" stroke-width="9"/>
      <path d="M2140.53,960.79c48.89-39.86,73.9-86.6,74.61-87.43,27.82-10.29,55.29,0,55.29,0,16.71,36.32,73.03,87.43,73.03,87.43" fill="none" stroke="#231f20" stroke-miterlimit="10" stroke-width="9"/>
      <path d="M2235.71,843.79" fill="none" stroke="#231f20" stroke-miterlimit="10" stroke-width="9"/>
      <path d="M2208.89,863.64c38.25-12.86,66.21,0,66.21,0" fill="none" stroke="#231f20" stroke-miterlimit="10" stroke-width="9"/>
      <path d="M2270.43,873.36" fill="none" stroke="#231f20" stroke-miterlimit="10" stroke-width="9"/>
      <path d="M2270.43,873.36c-3.35-12.4,4.18-9.71,4.18-9.71,10.61-4.43,0-10.86,0-10.86,0,0-27.96-12.86-66.21,0,0,0-7.84,7.2,1.18,10.63,0,0,9.74-2.27,5.57,9.94" fill="none" stroke="#231f20" stroke-miterlimit="10" stroke-width="9"/>
      <path d="M2212.24,851.57c-5.45-21.93,20.9-40.78,20.9-40.78" fill="none" stroke="#231f20" stroke-miterlimit="10" stroke-width="9"/>
      <path d="M2271.45,851.57c5.45-21.93-20.91-40.78-20.91-40.78" fill="none" stroke="#231f20" stroke-miterlimit="10" stroke-width="9"/>
      <path d="M2232.07,847.07" fill="none" stroke="#231f20" stroke-miterlimit="10" stroke-width="9"/>
      <path d="M2229.07,848.5c-.75-13.5,12-23.14,12-23.14,12.21,8.36,11.25,22.71,11.25,22.71" fill="none" stroke="#231f20" stroke-miterlimit="10" stroke-width="9"/>
      <path d="M2227.25,848.07c-.43-13.07-10.82-17.46-10.82-17.46" fill="none" stroke="#231f20" stroke-miterlimit="10" stroke-width="9"/>
      <path d="M2253.92,847.72c.33-13.15,14.2-17.12,14.2-17.12" fill="none" stroke="#231f20" stroke-miterlimit="10" stroke-width="9"/>
      <path d="M2241.28,818.18c-19.82-9.21,0-36.32,0-36.32,21.54,31.18,0,36.32,0,36.32Z" fill="none" stroke="#231f20" stroke-miterlimit="10" stroke-width="9"/>
      <path d="M2178.61,1118.29" fill="none" stroke="#231f20" stroke-miterlimit="10" stroke-width="9"/>
      <path d="M2179.39,1116.56c-.57,15.87-7.48,16.94-7.48,16.94" fill="none" stroke="#231f20" stroke-miterlimit="10" stroke-width="9"/>
      <path d="M2304.63,1118.29c-2.17,9.86,7.48,16.8,7.48,16.8" fill="none" stroke="#231f20" stroke-miterlimit="10" stroke-width="9"/>
      <path d="M2219.75,1128.43c26.57,24.57,44.14.73,44.14.73" fill="none" stroke="#231f20" stroke-miterlimit="10" stroke-width="9"/>
      <path d="M2023.46,1249.21c33,37.72,84.87,24.96,84.87,24.96" fill="none" stroke="#231f20" stroke-miterlimit="10" stroke-width="9"/>
      <path d="M2010.88,1262.73c30.37,49.41,97.45,37.7,97.45,37.7" fill="none" stroke="#231f20" stroke-miterlimit="10" stroke-width="9"/>
      <path d="M2113.89,1276.25c3,67.9,89.79,28.64,89.79,28.64" fill="none" stroke="#231f20" stroke-miterlimit="10" stroke-width="9"/>
      <path d="M2156.28,1162.28c-7.25,11.08-4.46,30.58-4.46,30.58,28.07-1.07,39.24-24.78,39.24-24.78" fill="none" stroke="#231f20" stroke-miterlimit="10" stroke-width="9"/>
      <path d="M2140.46,1162.86c-9.86,31.29-3.36,47.79-3.36,47.79,54.64-4.93,67.37-38,67.37-38" fill="none" stroke="#231f20" stroke-miterlimit="10" stroke-width="9"/>
      <path d="M2212.76,1174.96c-6.29,50.26,22.21,68.47,22.21,68.47" fill="none" stroke="#231f20" stroke-miterlimit="10" stroke-width="9"/>
      <path d="M2179.39,1198.3c-7.48,9.13,6.93,33.56,6.93,33.56,28.29-8.14,29.41-16.78,29.41-16.78" fill="none" stroke="#231f20" stroke-miterlimit="10" stroke-width="9"/>
      <path d="M2189.01,1191.72c-7.41,12.49,3.09,25.14,3.09,25.14,15.64-1.71,20.46-15.16,20.46-15.16" fill="none" stroke="#231f20" stroke-miterlimit="10" stroke-width="9"/>
      <path d="M2203.13,1127.18c0,13.78-12.07,21.41-12.07,21.41" fill="none" stroke="#231f20" stroke-miterlimit="10" stroke-width="9"/>
      <path d="M2216.53,1128.44c2.57,17.49-8.44,27.19-8.44,27.19" fill="none" stroke="#231f20" stroke-miterlimit="10" stroke-width="9"/>
      <path d="M2079.49,1130.27c29.69,24.88,78.14,16.06,78.14,16.06" fill="none" stroke="#231f20" stroke-miterlimit="10" stroke-width="9"/>
      <path d="M2171.91,959.06c-1.77,14.26,14.62,28.71,14.62,28.71" fill="none" stroke="#231f20" stroke-miterlimit="10" stroke-width="9"/>
      <path d="M2188.63,951.08c.48,20.31,14.5,29.75,14.5,29.75" fill="none" stroke="#231f20" stroke-miterlimit="10" stroke-width="9"/>
      <path d="M2214.78,942.9c12.9,12.99,7.76,32.07,7.76,32.07" fill="none" stroke="#231f20" stroke-miterlimit="10" stroke-width="9"/>
      <path d="M2234.99,940.05c-9.88,16.68,0,33.36,0,33.36" fill="none" stroke="#231f20" stroke-miterlimit="10" stroke-width="9"/>
      <polyline points="2190.63 909.36 2217.87 926.65 2242.28 893.61" fill="none" stroke="#231f20" stroke-miterlimit="10" stroke-width="9"/>
      <line x1="2183.62" y1="918.02" x2="2203.13" y2="929.41" fill="none" stroke="#231f20" stroke-miterlimit="10" stroke-width="9"/>
      <line x1="2230.93" y1="924.66" x2="2243.11" y2="909.14" fill="none" stroke="#231f20" stroke-miterlimit="10" stroke-width="9"/>
      <path d="M2227.14,1018.11s-16.11-22.22-27.43-16.18c-5.9,3.15-18.2,12.31-25.93,6.54-4.87-3.64-3.86-6.26-3.86-6.26,14.95,7.48,25.45-12.7,25.45-12.7,15.05-4.82,31.33,12.7,31.33,12.7-6.32,25.55,9.43,16.44,16.25-.92" fill="none" stroke="#231f20" stroke-miterlimit="10" stroke-width="9"/>
      <path d="M2180.11,1027.48c14.36,18.91,35.57,8.09,35.57,8.09,8.36-3.75,12.54-2.25,12.54-2.25,0,0-3.02-1.72-7.61-5.89-4.12-3.75-10.17-13.42-19.93-9.96-10.06,3.56-9.11,7.29-20.89,11.14" fill="none" stroke="#231f20" stroke-miterlimit="10" stroke-width="9"/>
      <path d="M2242.96,1085.02c-46.46-.8-45.4-32.65-45.4-32.65-18.99,38.73,38.43,42.93,45.22,42.93" fill="none" stroke="#231f20" stroke-miterlimit="10" stroke-width="9"/>
      <path d="M2242.96,1231.86c-20.75,26.73,0,28.5,0,28.5" fill="none" stroke="#231f20" stroke-miterlimit="10" stroke-width="9"/>
      <path d="M2233.74,1252.8" fill="none" stroke="#231f20" stroke-miterlimit="10" stroke-width="9"/>
      <path d="M2234.96,1254.09c-9.05.8-9.21,6.27-9.21,6.27-.32,31.98,0,32.46,0,32.46" fill="none" stroke="#231f20" stroke-miterlimit="10" stroke-width="9"/>
      <line x1="2224.46" y1="1362.71" x2="2224.19" y2="1377.57" fill="none" stroke="#231f20" stroke-miterlimit="10" stroke-width="9"/>
      <path d="M2224.78,1451.93v33.27c.48,7.88-11.57,8.36-11.57,8.36,6.11,17.52,28.93,16.23,28.93,16.23" fill="none" stroke="#231f20" stroke-miterlimit="10" stroke-width="9"/>
      <path d="M2223.82,1505.76l-.32,571.83c.07,6.22,13.34,6.77,17.36,6.91" fill="none" stroke="#231f20" stroke-miterlimit="10" stroke-width="9"/>
      <path d="M2227.84,2088.36c-19.3,11.42,15.99,29.33,15.99,29.33" fill="none" stroke="#231f20" stroke-miterlimit="10" stroke-width="9"/>
      <path d="M2226.25,2080.93c-6.93,7.42,6.57,10.79,14.61,10.96" fill="none" stroke="#231f20" stroke-miterlimit="10" stroke-width="9"/>
      <path d="M2461.06,1248.56c-32.9,37.8-84.8,25.18-84.8,25.18" fill="none" stroke="#231f20" stroke-miterlimit="10" stroke-width="9"/>
      <path d="M2473.67,1262.04c-30.24,49.49-97.35,37.96-97.35,37.96" fill="none" stroke="#231f20" stroke-miterlimit="10" stroke-width="9"/>
      <path d="M2370.7,1275.83c-2.82,67.9-89.71,28.87-89.71,28.87" fill="none" stroke="#231f20" stroke-miterlimit="10" stroke-width="9"/>
      <path d="M2328.01,1161.98c7.28,11.06,4.54,30.56,4.54,30.56-28.07-1-39.31-24.68-39.31-24.68" fill="none" stroke="#231f20" stroke-miterlimit="10" stroke-width="9"/>
      <path d="M2343.83,1162.51c9.94,31.26,3.48,47.78,3.48,47.78-54.66-4.78-67.47-37.82-67.47-37.82" fill="none" stroke="#231f20" stroke-miterlimit="10" stroke-width="9"/>
      <path d="M2271.57,1174.81c6.43,50.24-22.03,68.53-22.03,68.53" fill="none" stroke="#231f20" stroke-miterlimit="10" stroke-width="9"/>
      <path d="M2305,1198.06c7.5,9.11-6.85,33.58-6.85,33.58-28.31-8.07-29.45-16.7-29.45-16.7" fill="none" stroke="#231f20" stroke-miterlimit="10" stroke-width="9"/>
      <path d="M2295.36,1191.5c7.44,12.47-3.03,25.15-3.03,25.15-15.65-1.67-20.5-15.11-20.5-15.11" fill="none" stroke="#231f20" stroke-miterlimit="10" stroke-width="9"/>
      <path d="M2281.06,1127c.04,13.78,12.13,21.37,12.13,21.37" fill="none" stroke="#231f20" stroke-miterlimit="10" stroke-width="9"/>
      <path d="M2267.67,1128.3c-2.53,17.49,8.51,27.16,8.51,27.16" fill="none" stroke="#231f20" stroke-miterlimit="10" stroke-width="9"/>
      <path d="M2404.71,1129.76c-29.62,24.95-78.09,16.26-78.09,16.26" fill="none" stroke="#231f20" stroke-miterlimit="10" stroke-width="9"/>
      <path d="M2311.84,958.8c1.81,14.26-14.54,28.75-14.54,28.75" fill="none" stroke="#231f20" stroke-miterlimit="10" stroke-width="9"/>
      <path d="M2295.1,950.87c-.42,20.31-14.42,29.79-14.42,29.79" fill="none" stroke="#231f20" stroke-miterlimit="10" stroke-width="9"/>
      <path d="M2268.93,942.75c-12.87,13.03-7.67,32.09-7.67,32.09" fill="none" stroke="#231f20" stroke-miterlimit="10" stroke-width="9"/>
      <path d="M2248.71,939.96c9.93,16.65.09,33.36.09,33.36" fill="none" stroke="#231f20" stroke-miterlimit="10" stroke-width="9"/>
      <polyline points="2293 909.15 2265.79 926.51 2241.3 893.53" fill="none" stroke="#231f20" stroke-miterlimit="10" stroke-width="9"/>
      <line x1="2300.03" y1="917.79" x2="2280.54" y2="929.23" fill="none" stroke="#231f20" stroke-miterlimit="10" stroke-width="9"/>
      <line x1="2252.74" y1="924.55" x2="2240.52" y2="909.07" fill="none" stroke="#231f20" stroke-miterlimit="10" stroke-width="9"/>
      <path d="M2256.77,1017.99s16.05-22.26,27.39-16.25c5.91,3.13,18.24,12.26,25.95,6.47,4.86-3.66,3.84-6.27,3.84-6.27-14.93,7.52-25.49-12.64-25.49-12.64-15.06-4.78-31.3,12.79-31.3,12.79,6.39,25.53-9.39,16.46-16.25-.88" fill="none" stroke="#231f20" stroke-miterlimit="10" stroke-width="9"/>
      <path d="M2303.83,1027.24c-14.31,18.95-35.55,8.18-35.55,8.18-8.37-3.73-12.54-2.22-12.54-2.22,0,0,3.02-1.73,7.59-5.91,4.11-3.76,10.14-13.45,19.9-10.02,10.07,3.54,9.13,7.26,20.92,11.09" fill="none" stroke="#231f20" stroke-miterlimit="10" stroke-width="9"/>
      <path d="M2241.12,1084.94c46.46-.93,45.31-32.77,45.31-32.77,19.09,38.68-38.31,43.04-45.1,43.05" fill="none" stroke="#231f20" stroke-miterlimit="10" stroke-width="9"/>
      <path d="M2241.51,1231.78c20.82,26.68.08,28.5.08,28.5" fill="none" stroke="#231f20" stroke-miterlimit="10" stroke-width="9"/>
      <path d="M2250.79,1252.71" fill="none" stroke="#231f20" stroke-miterlimit="10" stroke-width="9"/>
      <path d="M2249.57,1253.99c9.06.78,9.23,6.24,9.23,6.24.41,31.98.09,32.46.09,32.46" fill="none" stroke="#231f20" stroke-miterlimit="10" stroke-width="9"/>
      <line x1="2260.67" y1="1359.36" x2="2260.67" y2="1377.45" fill="none" stroke="#231f20" stroke-miterlimit="10" stroke-width="9"/>
      <path d="M2259.98,1454.34l.38,30.73c-.46,7.88,11.59,8.33,11.59,8.33-6.06,17.53-31.1,16.41-31.1,16.41" fill="none" stroke="#231f20" stroke-miterlimit="10" stroke-width="9"/>
      <path d="M2261.38,1505.64l1.83,571.82c-.06,6.22-17.77,7.6-23.16,7.04" fill="none" stroke="#231f20" stroke-miterlimit="10" stroke-width="9"/>
      <path d="M2258.9,2088.24c19.33,11.37-16.6,29.39-16.6,29.39" fill="none" stroke="#231f20" stroke-miterlimit="10" stroke-width="9"/>
      <path d="M2260.46,2080.81c6.95,7.4-8.44,11.8-19.61,11.08" fill="none" stroke="#231f20" stroke-miterlimit="10" stroke-width="9"/>
      <path d="M2226.55,1178.24c-7.88,29.08,15.43,47.72,15.43,47.72,20.41-13.18,17.52-47.72,17.52-47.72" fill="none" stroke="#231f20" stroke-miterlimit="10" stroke-width="9"/>
      <path d="M2225.61,1278.52c16.7,12.05,33.38,0,33.38,0" fill="none" stroke="#231f20" stroke-miterlimit="10" stroke-width="9"/>
      <path d="M2224.78,1463.18c12.7,7.23,35.31,0,35.31,0" fill="none" stroke="#231f20" stroke-miterlimit="10" stroke-width="9"/>
      <path d="M2224.78,1483.27c13.34,11.41,35.31,0,35.31,0" fill="none" stroke="#231f20" stroke-miterlimit="10" stroke-width="9"/>
      <path d="M2215.63,539.3c711.61-28.34,1205.6,714.39,905.24,1362.8-300.14,647.95-1186.54,751.73-1626.92,186.89-482.5-618.86-57.76-1518.65,721.68-1549.69ZM2215.63,547.29c-761.12,30.65-1185.51,899.64-730.51,1516.57,413.71,560.95,1277.44,497.07,1604.41-117.18,344.18-646.56-144.59-1428.76-873.9-1399.39Z"/>
      <path d="M2214.6,512.87c732.96-29.19,1241.77,735.82,932.4,1403.68-309.15,667.39-1222.14,774.28-1675.73,192.5-496.98-637.42-59.49-1564.21,743.33-1596.18ZM2214.6,521.1c-783.95,31.57-1221.07,926.63-752.43,1562.06,426.12,577.77,1315.76,511.98,1652.54-120.69,354.51-665.96-148.93-1471.62-900.12-1441.37Z"/>
      <path d="M2213.91,493.7c747.19-29.76,1265.88,750.1,950.51,1430.94-315.15,680.35-1245.87,789.31-1708.27,196.24-506.63-649.8-60.64-1594.58,757.76-1627.18ZM2213.91,502.09c-799.18,32.18-1244.78,944.62-767.04,1592.39,434.4,588.99,1341.31,521.92,1684.63-123.03,361.39-678.89-151.82-1500.2-917.6-1469.36Z"/>
    </g>
  </g>
</svg>