<svg xmlns="http://www.w3.org/2000/svg" width="600" height="400" viewBox="0 0 158.75 105.833" xmlns:v="https://vecta.io/nano"><style><![CDATA[.K{stroke:#bb152b}.L{stroke-width:3.53}.M{stroke-linejoin:round}.N{stroke-linecap:round}]]></style><defs><linearGradient id="A" href="#AA"><stop offset="0" stop-color="#d2af47"/><stop offset=".414" stop-color="#eec54a"/><stop offset=".632" stop-color="#cba831"/><stop offset=".841" stop-color="#f5dd54"/><stop offset="1" stop-color="#b8a23a"/></linearGradient><linearGradient id="B" href="#AA"><stop offset="0" stop-color="#e5d04e"/><stop offset=".176" stop-color="#d2af47"/><stop offset=".432" stop-color="#eec54a"/><stop offset=".72" stop-color="#cba831"/><stop offset="1" stop-color="#e5d04e"/></linearGradient><linearGradient id="C" href="#AA"><stop offset="0" stop-color="#f7ef56"/><stop offset=".142" stop-color="#d2af47"/><stop offset=".572" stop-color="#eec54a"/><stop offset=".791" stop-color="#cba831"/><stop offset="1" stop-color="#f7ef56"/></linearGradient><linearGradient id="D" href="#AA"><stop offset="0" stop-color="#d2af47"/><stop offset=".414" stop-color="#eec54a"/><stop offset=".632" stop-color="#cba831"/><stop offset=".841" stop-color="#f7ef56"/><stop offset="1" stop-color="#b8a23a"/></linearGradient><linearGradient id="E" href="#AA"><stop offset="0" stop-color="#e5bf44"/><stop offset="1" stop-color="#f6ee55"/></linearGradient><linearGradient id="F" href="#AA"><stop offset="0" stop-color="#f6ee55"/><stop offset="1" stop-color="#e5bf44"/></linearGradient><linearGradient id="G" x1="299.71" y1="47.96" x2="299.71" y2="269.108" href="#AA"><stop offset="0" stop-color="#0c62b3"/><stop offset=".198" stop-color="#066bc2"/><stop offset=".717" stop-color="#3fbdfe"/></linearGradient><radialGradient id="H" cx="300.01" cy="195.834" fx="300.01" fy="195.834" r="107.66" gradientTransform="matrix(0.68761685,0,0,1.8455358,93.717979,-144.49877)" href="#AA"><stop offset=".528" stop-color="#88ddfc"/><stop offset=".943" stop-color="#88ddfc" stop-opacity="0"/></radialGradient><radialGradient href="#F" id="I" cx="79.388" cy="46.531" fx="79.388" fy="46.531" r=".886" gradientTransform="matrix(0.70867031,0,0,2.0526325,23.112198,-48.501797)"/><radialGradient href="#F" id="J" gradientTransform="matrix(0.78150143,-2.6774972e-6,3.9549038e-6,1.1543478,17.343845,-6.961728)" cx="79.378" cy="48.826" fx="79.378" fy="48.826" r=".886"/><radialGradient href="#E" id="K" gradientTransform="matrix(2.2577112,0,0,1.4036871,-99.834881,-19.290659)" cx="79.38" cy="49.583" fx="79.38" fy="49.583" r=".886"/><radialGradient href="#F" id="L" gradientTransform="matrix(0.33962504,0,0,0.32336994,53.142605,34.670748)" cx="80.162" cy="50.489" fx="80.162" fy="50.489" r=".886"/><radialGradient href="#F" id="M" gradientTransform="matrix(0.33962504,0,0,0.32336994,53.142605,34.670748)" cx="74.383" cy="50.555" fx="74.383" fy="50.555" r=".886"/><radialGradient id="N" gradientTransform="matrix(3.7385409,0.04857434,-0.01807931,1.39148,-216.45186,-23.507272)" cx="79.379" cy="51.445" fx="79.379" fy="51.445" r=".886" href="#AA"><stop offset="0" stop-color="#d8b440"/><stop offset="1" stop-color="#f6ee55"/></radialGradient><radialGradient id="O" gradientTransform="matrix(1.8497317,0,3.5109755e-8,1.8826873,-67.450173,-44.40219)" cx="79.378" cy="51.416" fx="79.378" fy="51.416" r=".886" href="#AA"><stop offset="0" stop-color="#e5bf44"/><stop offset="1" stop-color="#f6ee55"/></radialGradient><radialGradient href="#E" id="P" gradientTransform="matrix(2.2576615,-0.01497456,0.01716706,2.5882176,-100.75064,-81.573875)" cx="78.257" cy="53.69" fx="78.257" fy="53.69" r=".886"/><radialGradient href="#E" id="Q" gradientTransform="matrix(2.2576615,-0.01497456,0.01716706,2.5882176,-100.75064,-81.573875)" cx="80.575" cy="53.703" fx="80.575" fy="53.703" r=".886"/><radialGradient href="#F" id="R" gradientTransform="matrix(0.78150143,-2.6774972e-6,3.9549038e-6,1.1543478,17.343845,-6.961728)" cx="84.497" cy="55.467" fx="84.497" fy="55.467" r=".886"/><radialGradient href="#F" id="S" gradientTransform="matrix(0.78150143,-2.6774972e-6,3.9549038e-6,1.1543478,17.343845,-6.961728)" cx="86.288" cy="54.275" fx="86.288" fy="54.275" r=".886"/><radialGradient href="#F" id="T" gradientTransform="matrix(0.78150143,-2.6774972e-6,3.9549038e-6,1.1543478,17.343845,-6.961728)" cx="88.789" cy="55.085" fx="88.789" fy="55.085" r=".886"/><radialGradient href="#F" id="U" gradientTransform="matrix(0.78150143,-2.6774972e-6,3.9549038e-6,1.1543478,17.343845,-6.961728)" cx="74.28" cy="55.539" fx="74.28" fy="55.539" r=".886"/><radialGradient href="#F" id="V" gradientTransform="matrix(0.78150143,-2.6774972e-6,3.9549038e-6,1.1543478,17.343845,-6.961728)" cx="72.529" cy="54.288" fx="72.529" fy="54.288" r=".886"/><radialGradient href="#F" id="W" gradientTransform="matrix(0.78150143,-2.6774972e-6,3.9549038e-6,1.1543478,17.343845,-6.961728)" cx="69.872" cy="55.124" fx="69.872" fy="55.124" r=".886"/><radialGradient href="#F" id="X" gradientTransform="matrix(0.78150143,-2.6774972e-6,3.9549038e-6,1.1543478,17.343845,-6.961728)" cx="79.603" cy="53.774" fx="79.603" fy="53.774" r=".886"/><radialGradient id="Y" gradientTransform="matrix(0.78150143,-2.6774972e-6,3.9549038e-6,1.1543478,17.343845,-6.961728)" cx="78.484" cy="55.454" fx="78.484" fy="55.454" r=".886" href="#AA"><stop offset=".416" stop-color="#f6ee55"/><stop offset="1" stop-color="#e5bf44"/></radialGradient><radialGradient href="#F" id="Z" gradientTransform="matrix(0.78150143,-2.6774972e-6,3.9549038e-6,1.1543478,17.343845,-6.961728)" cx="79.934" cy="54.584" fx="79.934" fy="54.584" r=".886"/><linearGradient href="#D" id="a" x1="72.338" y1="70.559" x2="79.388" y2="70.559"/><linearGradient href="#C" id="b" x1="79.436" y1="71.161" x2="85.77" y2="71.146"/><linearGradient href="#D" id="c" x1="76.747" y1="70.559" x2="82.615" y2="70.559"/><linearGradient href="#D" id="d" x1="84.445" y1="70.102" x2="91.495" y2="70.102"/><linearGradient href="#D" id="e" x1="90.498" y1="66.026" x2="97.548" y2="66.026"/><linearGradient href="#D" id="f" x1="96.004" y1="62.154" x2="103.055" y2="62.154"/><linearGradient href="#D" id="g" x1="100.134" y1="57.896" x2="107.185" y2="57.896"/><linearGradient href="#D" id="h" x1="102.844" y1="50.927" x2="109.895" y2="50.927"/><linearGradient href="#D" id="i" x1="103.834" y1="42.882" x2="110.884" y2="42.882"/><linearGradient href="#D" id="j" x1="102.672" y1="38.236" x2="109.723" y2="38.236"/><linearGradient href="#D" id="k" x1="98.714" y1="28.514" x2="105.765" y2="28.514"/><linearGradient href="#D" id="l" x1="89.352" y1="21.296" x2="100.016" y2="20.909"/><linearGradient id="m" x1="81.952" y1="16.005" x2="92.531" y2="16.005" href="#AA"><stop offset="0" stop-color="#d2af47"/><stop offset=".414" stop-color="#f5dd54"/><stop offset=".632" stop-color="#cba831"/><stop offset=".841" stop-color="#f7ef56"/><stop offset="1" stop-color="#b8a23a"/></linearGradient><linearGradient href="#C" id="n" x1="67.52" y1="71.275" x2="74.198" y2="71.275"/><linearGradient href="#C" id="o" x1="60.938" y1="68.866" x2="68.304" y2="68.823"/><linearGradient href="#C" id="p" x1="55.733" y1="63.187" x2="62.067" y2="64.005"/><linearGradient id="q" x1="52.635" y1="56.863" x2="56.861" y2="56.691" href="#AA"><stop offset="0" stop-color="#e5d04e"/><stop offset=".142" stop-color="#d2af47"/><stop offset=".572" stop-color="#eec54a"/><stop offset=".791" stop-color="#cba831"/><stop offset="1" stop-color="#f7ef56"/></linearGradient><linearGradient id="r" x1="50.056" y1="50.798" x2="54.538" y2="50.798" href="#AA"><stop offset="0" stop-color="#e5d04e"/><stop offset=".241" stop-color="#d2af47"/><stop offset=".536" stop-color="#eec54a"/><stop offset=".791" stop-color="#cba831"/><stop offset="1" stop-color="#f7ef56"/></linearGradient><linearGradient href="#B" id="s" x1="49.448" y1="42.494" x2="53.395" y2="42.321"/><linearGradient href="#A" id="t" x1="67.928" y1="17.253" x2="78.679" y2="17.253"/><linearGradient href="#B" id="u" x1="51.083" y1="33.933" x2="57.783" y2="33.933"/><linearGradient href="#A" id="v" x1="61.236" y1="19.352" x2="71.986" y2="19.352"/><linearGradient id="w" x1="54.027" y1="26.287" x2="64.777" y2="26.287" href="#AA"><stop offset="0" stop-color="#d2af47"/><stop offset=".414" stop-color="#eec54a"/><stop offset=".632" stop-color="#cba831"/><stop offset=".841" stop-color="#eec54a"/><stop offset="1" stop-color="#b8a23a"/></linearGradient><linearGradient id="x" x1="79.253" y1="11.479" x2="79.253" y2="73.772" href="#AA"><stop offset="0" stop-color="#edbf42"/><stop offset=".237" stop-color="#faf356"/><stop offset=".372" stop-color="#9c8b31"/><stop offset=".653" stop-color="#e6db53"/><stop offset=".807" stop-color="#ca9e39"/><stop offset="1" stop-color="#f3c349"/></linearGradient><linearGradient id="y" x1="79.275" y1="21.347" x2="79.275" y2="71.721" href="#AA"><stop offset=".615" stop-color="#f8cd5b"/><stop offset="1" stop-color="#d89d2a"/></linearGradient><radialGradient id="z" cx="300.499" cy="187.179" fx="300.499" fy="187.179" r="107.66" gradientTransform="matrix(1.1533868,0,0,1.6106137,-45.994275,-95.33891)" href="#AA"><stop offset=".8" stop-color="#0460b6" stop-opacity="0"/><stop offset="1" stop-color="#0c62b3"/></radialGradient><linearGradient id="AA" gradientUnits="userSpaceOnUse"/></defs><path d="M0 0h158.75v105.833H0z" fill="#003e7c"/><circle cx="79.375" cy="42.623" r="31.022" fill="url(#x)"/><path d="M74.657 18.757c-.759.022-1.539.219-2.153.679-.282.243-.462.591-.782.794-.203.156-.455.214-.705.237-.175.031-.158.251-.058.353.122.162.292.281.47.376-.594.041-1.211.292-1.547.806-.469.683-.498 1.539-.606 2.333-.028.279-.101.626-.398.734-.134.022-.352-.04-.393.144.004.18.113.345.213.489.181.24.478.393.782.36.176.005.353-.01.519-.073-.381.494-.392 1.209-.095 1.746.374.713 1.14 1.14 1.913 1.28.429.102.873.052 1.309.049.703-.048 1.446-.266 1.932-.805.376-.423.544-1.005.499-1.565-.037-.695-.37-1.382-.917-1.817-.396-.321-.934-.448-1.432-.336a2.98 2.98 0 0 0-.349.083c.083-.11.034-.281.064-.413.032-.601.136-1.197.443-1.722.355-.634.999-1.071 1.702-1.229.532-.137 1.075-.133 1.619-.104.115.046.299-.025.24-.169.148.052.302.118.451.192.141.056.233-.113.17-.227-.197-.774-.677-1.506-1.407-1.869-.456-.234-.974-.328-1.484-.325zm9.309.002c-.88.003-1.785.392-2.287 1.134-.238.339-.398.732-.492 1.134-.015.14.159.191.258.118l.4-.175c-.027.083.019.192.126.188.565-.042 1.128-.038 1.671.09.742.161 1.428.625 1.781 1.307.331.61.409 1.321.413 1.999.008.025.022.046.037.064-.476-.148-1.01-.175-1.46.066-.782.397-1.206 1.29-1.23 2.141a2.06 2.06 0 0 0 .942 1.796c.7.44 1.561.487 2.364.449.84-.053 1.714-.399 2.213-1.104.334-.464.469-1.095.244-1.635-.049-.122-.116-.237-.195-.343.313.093.669.118.975-.012.278-.155.496-.443.54-.76-.002-.189-.227-.13-.353-.146-.257-.035-.376-.319-.409-.547-.134-.784-.13-1.628-.521-2.346-.308-.579-.942-.941-1.591-.974-.154.003.029-.056.074-.093.187-.12.402-.29.41-.53-.066-.18-.3-.107-.442-.162-.46-.116-.759-.507-1.052-.849-.426-.436-1.034-.633-1.618-.747a4.19 4.19 0 0 0-.797-.066zm-12.093 6.716c-.013.044-.024.089-.03.135a.73.73 0 0 0-.074-.1.16.16 0 0 0 .104-.035zm15.018.048c.02.012.039.017.058.018l-.043.047-.014-.064zm8.404 1.053c-.825-.007-1.583.447-2.153 1.011-.352.357-.575.852-.525 1.359-.009.516.274 1.016.675 1.329-.159.016-.297.12-.458.144-.568.179-1.099.61-1.212 1.221-.126.66-.004 1.34.133 1.989.134.547.654.947 1.194 1.031.102-.002.131-.073.121-.151.164.175.385.291.634.269.145.039.429.002.319-.209-.191-.34-.389-.813-.091-1.154.409-.422 1.063-.369 1.581-.356 1.019.015 2.076.355 2.791 1.112.824.832 1.2 2.042 1.158 3.186.013.864-.267 1.76-.813 2.444-.223.287-.556.489-.923.506-.108.016-.138.11-.114.192a1.99 1.99 0 0 1-.415-.302c-.095-.132-.326-.084-.303.095-.026.587.171 1.242.702 1.559.601.374 1.349.306 2.017.203 1.06-.179 2.075-.844 2.496-1.859.25-.575.335-1.282.026-1.851-.131-.117.088-.173.147-.252.451-.416.771-1.034.664-1.66-.098-.656-.257-1.312-.523-1.921-.252-.566-.814-.947-1.419-1.039-.151.008-.109-.107-.077-.209.147-.643.208-1.364-.147-1.953-.274-.469-.829-.642-1.305-.831-.62-.221-1.301-.343-1.953-.209-.038-.151-.006-.366-.045-.541-.081-.651-.584-1.152-1.137-1.452-.318-.211-.666-.447-.814-.813-.074-.204-.06-.461.143-.586.14-.112.009-.303-.146-.289-.074-.01-.149-.011-.224-.011zm-31.934.004c-.172.002-.404.093-.285.291.332.231.18.707-.074.939-.47.501-1.224.702-1.538 1.355-.168.336-.252.722-.21 1.096-.524-.104-1.059-.043-1.57.101-.636.195-1.377.395-1.753.994-.273.531-.211 1.161-.146 1.735-.008.112.123.296.035.373-.67.083-1.305.515-1.541 1.162-.243.659-.454 1.348-.485 2.054-.036.642.424 1.173.862 1.578-.501.906-.144 2.055.539 2.764.761.819 1.922 1.181 3.022 1.084.721.021 1.462-.47 1.577-1.21.03-.24.094-.498.03-.733-.212-.119-.366.174-.55.254l-.112.076c.006-.107-.151-.233-.302-.203-.7-.149-1.054-.854-1.303-1.457a4.67 4.67 0 0 1 .512-4.21c.489-.648 1.174-1.195 1.976-1.386.748-.19 1.577-.287 2.345-.088.375.08.649.449.563.83.004.273-.263.496-.206.761.204.124.484.024.693-.059a.96.96 0 0 0 .261-.205c-.023.123.075.255.217.181.423-.172.881-.409 1.02-.881.239-.692.246-1.446.189-2.168-.151-.612-.682-1.048-1.275-1.206-.122-.03-.301-.133-.383-.136.453-.361.725-.945.655-1.528-.004-.755-.607-1.348-1.216-1.709-.44-.28-.949-.463-1.476-.444a.41.41 0 0 0-.069-.005zm24.592 3.708c-.518-.009-.969.292-1.333.632-.722.637-1.403 1.451-1.498 2.446-.078.723.353 1.415.963 1.777.118.048.165.124.046.208-.432.552-.334 1.366.072 1.904.614.917 1.747 1.51 2.857 1.377.153-.02.3-.071.437-.142.002.434.459.644.824.722.713.186 1.436-.179 1.983-.612.617-.493 1.067-1.324.839-2.123-.089-.238-.17-.499-.341-.689-.114-.018-.161.042-.187.127a.83.83 0 0 0-.048-.219c-.205-.132-.264.166-.365.287-.214.284-.543.543-.916.495-.565.043-1.063-.266-1.513-.564-.588-.422-1.156-.978-1.346-1.699-.042-.338-.061-.725.194-.99.13-.192.359-.281.501-.453.001-.031-.006-.058-.016-.081l.032.016c.205.113.39-.113.526-.243.33-.341.231-.881-.017-1.239-.367-.56-1.017-.948-1.694-.937zm-17.277.011c-.916.045-1.897.852-1.772 1.831.093.275.359.616.679.577a1.68 1.68 0 0 1 .201-.088c-.083.085-.106.196.026.303.532.331.669 1.045.4 1.589-.449.948-1.368 1.658-2.37 1.937-.577.191-1.168-.163-1.43-.675-.189-.127-.262.055-.266.229l-.011-.068c-.184-.348-.377.144-.458.336-.345.883.137 1.859.867 2.384.503.408 1.15.713 1.81.546.406-.021.893-.329.908-.714.867.358 1.891.034 2.609-.513.708-.533 1.335-1.544.866-2.423-.095-.18-.297-.341-.014-.449.578-.441 1.062-1.145.891-1.904-.24-1.124-1.083-2.035-2.008-2.666-.275-.174-.605-.244-.928-.233zM65.74 41.14c-.715.083-1.217.694-1.641 1.219-.272.367-.587.857-.393 1.324.149.244.482.442.625.613-.331-.036-.79.033-.867.425-.083.443.15.873.243 1.297.071.261.182.54.35.763l-.116-.071c-.206.143-.387.349-.65.407-.634.188-1.299.174-1.945.153-1.007-.163-1.703-1.054-2.103-1.93-.144-.263-.178-.591-.373-.821-.028-.021-.062-.02-.095-.02-.023.01-.042.022-.059.036.062-.245.159-.483.183-.738.01-.209.344-.394.141-.587-.297-.039-.596.115-.868.224-.659.374-1.052 1.107-1.067 1.857-.065 1.25.169 2.658 1.148 3.531.479.459 1.134.92 1.164 1.647-.067.148-.279.426-.001.47.44.091 1.033.132 1.333-.274.189-.263.19-.623.184-.917.603.624 1.517 1.008 2.383.777s1.698-.627 2.403-1.18c.308-.249.575-.612.56-1.023.421.22.891-.083 1.231-.325.727-.527 1.182-1.467.966-2.365-.116-.719-.423-1.457-1.068-1.854-.418-.251-.864-.487-1.152-.88-.239-.268-.431-.75-.129-1.04.12-.116.475-.171.32-.39-.194-.176-.435-.346-.71-.33zm27.233.003a.9.9 0 0 0-.729.415c.075.244.479.236.514.531.086.586-.42 1.041-.855 1.347-.551.315-1.138.681-1.371 1.306-.331.795-.478 1.792.044 2.542.353.56.935 1.054 1.613 1.116.096 0 .195-.021.276-.075.008.721.679 1.162 1.235 1.487.736.392 1.536.783 2.388.777.665-.025 1.293-.401 1.74-.838-.023.43.012 1.01.499 1.17.363.121.782.098 1.13-.042.063-.191-.198-.34-.107-.551.093-.526.476-.918.87-1.245.516-.452.987-.991 1.171-1.666.267-.935.411-1.968.1-2.91-.24-.731-.958-1.232-1.706-1.312-.243.055-.094.322.004.441.126.256.134.546.214.818l-.023-.02c-.057-.035-.095.018-.142.043-.309.966-.809 1.948-1.676 2.523-.605.389-1.343.279-2.017.246-.46-.039-.951-.143-1.27-.51-.05-.021-.095-.02-.135-.007.082-.109.146-.232.186-.368.153-.493.351-.989.382-1.507.017-.365-.347-.588-.679-.565-.218.021-.257-.029-.053-.147.334-.212.652-.605.486-1.023-.27-.706-.798-1.303-1.402-1.746-.204-.133-.44-.235-.687-.232zm-28.026 6.09c.077.008.142.016.15.033-.027.033-.052.069-.076.105-.005-.054-.033-.103-.074-.138zm28.805.029c-.02.038-.027.077-.026.115l-.064-.11.089-.005zm2.502 4.186c-1.161.003-2.218 1.015-2.233 2.183-.077.852.171 1.799.888 2.325.238.176.53.263.823.275.295.832 1.18 1.449 2.072 1.297 1.079-.134 1.967-1.141 1.928-2.233.005-1.006-.986-1.99-2.012-1.769-.388.093-.651.517-.623.9.008.012.017.024.026.034-.164-.076-.306-.184-.386-.369-.194-.535-.246-1.15-.077-1.698.071-.116.165-.343-.014-.378l.515-.181c.198-.358-.436-.351-.662-.381l-.244-.006zm-33.768.004a2.06 2.06 0 0 0-.131.004c-.294.017-.63.014-.867.21-.021.285.381.204.561.32l.074.03c-.21.053-.087.301-.01.426.155.513.071 1.076-.066 1.583-.077.221-.239.346-.431.434.05-.067.066-.153.02-.249a.91.91 0 0 0-1.063-.718 1.95 1.95 0 0 0-1.485 1.317c-.246.982.251 2.099 1.183 2.52.865.446 2.074.174 2.553-.707.12-.169.14-.459.409-.414.868-.139 1.384-1.01 1.474-1.825.113-.737-.017-1.533-.502-2.12-.414-.504-1.065-.812-1.719-.813z" fill="#c7eafd"/><path d="M81.853 68.425c-.427-.016-.837.153-1.193.376a2.99 2.99 0 0 0-1.283 1.974c-.014.302-.037.618.082.904.149.425.513.744.928.902a.96.96 0 0 0 .52.092c.949-.061 1.919-.093 2.824-.416.903-.303 1.774-.822 2.312-1.628.151-.232.287-.48.362-.747.013-.133-.165-.192-.248-.097-.191.195-.48.243-.741.203-.397-.039-.741-.257-1.132-.324-.251-.034-.509.02-.74.117-.07.073-.06.033-.054-.047.022-.279-.059-.566-.237-.783-.176-.212-.416-.363-.681-.437-.232-.077-.478-.091-.721-.088z" fill="url(#b)"/><path d="M76.808 68.44c-.466.019-.977.135-1.292.506-.21.245-.291.578-.256.895-.126-.092-.291-.116-.44-.151-.277-.038-.557.019-.811.129-.264.112-.543.197-.833.191-.21.023-.426-.043-.575-.196-.065-.082-.207-.099-.257.008-.032.138.071.259.114.383.39.871 1.182 1.499 2.041 1.875.561.247 1.158.415 1.769.469l1.79.128c.245-.011.468-.136.671-.264.436-.289.691-.82.656-1.341.009-.488-.183-.959-.437-1.367-.461-.723-1.257-1.287-2.141-1.266z" fill="url(#a)"/><path d="M79.317 66.685a2.74 2.74 0 0 0-2.093 1.041 2.25 2.25 0 0 0-.349.59c-.034.125.111.179.212.175.48.053.919.288 1.285.593.085.075.208.02.25-.074.223-.382.763-.543 1.151-.32a1.06 1.06 0 0 1 .39.38c.091.105.215.003.289-.069.354-.29.786-.485 1.241-.543.112-.008.185-.135.123-.233-.386-.789-1.164-1.38-2.037-1.507a2.72 2.72 0 0 0-.463-.032z" fill="url(#c)"/><path d="M90.75 67.461c-.139.071-.081.259-.165.373a1.91 1.91 0 0 1-1.202 1.198c-.974.367-1.963.679-2.968.944-.189.154-.248.422-.396.615-.428.652-1.096 1.108-1.792 1.448-.176.128.04.322.198.234 1.591-.259 3.161-.663 4.685-1.188.659-.228 1.204-.717 1.611-1.272.251-.4.434-.864.39-1.344.002-.333-.025-.697-.215-.98-.039-.038-.097-.047-.148-.031z" fill="url(#d)"/><path d="M67.9 67.463c-.182.103-.169.36-.228.539-.2.883.197 1.81.86 2.396a3.35 3.35 0 0 0 1.419.793c1.423.463 2.876.843 4.353 1.086.175.024.219-.233.061-.29-.723-.37-1.402-.89-1.783-1.624-.102-.17-.157-.425-.399-.428l-3.011-.978c-.567-.242-.936-.795-1.087-1.376-.026-.08-.096-.138-.185-.119z" fill="url(#n)"/><path d="M61.476 62.446c-.379.6-.612 1.315-.57 2.033.009 1.138.68 2.168 1.504 2.907.671.577 1.458.999 2.218 1.447 1.218.678 2.476 1.29 3.773 1.799.163.061.25-.167.128-.265-.38-.401-.731-.866-.824-1.426-.068-.216.005-.498-.179-.662-1.279-.603-2.525-1.278-3.707-2.057-.532-.361-1.096-.69-1.571-1.129-.506-.739-.589-1.666-.567-2.536-.013-.105-.11-.157-.205-.11z" fill="url(#o)"/><path d="M56.997 57.725c-.21.07-.33.293-.468.456-.577.809-.655 1.88-.399 2.819.146.564.358 1.131.77 1.558a29.76 29.76 0 0 0 4.664 4.28c.163.088.273-.149.144-.255-.51-.709-.832-1.573-.784-2.455-.088-.21-.327-.317-.478-.484-1.146-1.032-2.221-2.147-3.192-3.344-.213-.339-.315-.748-.296-1.146-.034-.434.08-.855.181-1.272.012-.083-.059-.162-.143-.158z" fill="url(#p)"/><path d="M97.108 62.519c-.059.529-.034 1.06-.17 1.579-.118.477-.316.98-.749 1.256-1.472 1.082-3.045 2.009-4.689 2.792-.159.094-.437.139-.4.382-.035.602-.273 1.2-.692 1.629-.085.127-.307.242-.237.414.118.166.326-.021.471-.053a30.64 30.64 0 0 0 5.199-2.736c.872-.6 1.585-1.477 1.887-2.501.279-.93.076-1.952-.409-2.774-.05-.078-.161-.056-.211.011z" fill="url(#e)"/><path d="M101.723 57.705c-.213.09-.05.346-.032.507.17.695.197 1.513-.231 2.137-.867 1.057-1.83 2.033-2.81 2.981-.25.257-.557.465-.792.73-.05.394-.042.809-.161 1.197-.122.511-.413.952-.686 1.391-.068.169.169.25.268.127 1.651-1.242 3.181-2.648 4.553-4.192.279-.296.493-.645.614-1.034.183-.489.323-1.004.286-1.532.011-.414-.002-.838-.18-1.22-.168-.404-.407-.797-.742-1.081-.027-.016-.058-.012-.088-.012z" fill="url(#f)"/><path d="M104.924 52.235c-.108.171.059.369.078.549.162.564.162 1.171.054 1.744-.219.702-.614 1.337-.963 1.977l-1.494 2.346c-.047.204.086.406.091.614.104.655-.046 1.311-.203 1.935.016.193.263.149.325.008 1.121-1.402 2.117-2.907 2.968-4.488.275-.529.554-1.086.544-1.698.04-.607-.078-1.219-.353-1.763-.226-.447-.508-.879-.874-1.224-.067-.038-.107-.037-.174-.001z" fill="url(#g)"/><path d="M105.022 43.342c-.189-.002-.183.259-.022.303.972.51 1.911 1.274 2.266 2.35.188.583.226 1.208.072 1.797a29.96 29.96 0 0 1-1.56 5.263c.008.238.202.432.267.661.209.487.261 1.018.266 1.534-.012.183.259.207.29.03.944-2.064 1.676-4.23 2.116-6.457.186-1.144.037-2.36-.493-3.397-.524-1.031-1.552-1.741-2.668-1.987-.177-.037-.354-.085-.535-.096z" fill="url(#h)"/><path d="M102.403 26.952c-.381.013-.776.058-1.129.197-.156.159.108.275.253.241 1.133.053 2.279.568 2.923 1.531.517.873.906 1.807 1.304 2.739.524 1.288.951 2.632 1.294 3.982.165.173.411.262.582.438.392.334.704.749.959 1.193.122.135.299-.045.225-.186-.555-2.877-1.52-5.681-2.901-8.267-.446-.685-1.122-1.211-1.866-1.54-.517-.223-1.081-.337-1.645-.327z" fill="url(#j)"/><path d="M105.509 35.234c-.166.165.098.283.226.342 1.017.537 1.67 1.62 1.831 2.741.147 1.121.259 2.251.253 3.38l-.061 3.038c.113.234.309.43.418.672.316.583.465 1.234.567 1.883.065.175.302.068.278-.096a31.27 31.27 0 0 0 .129-7.927c-.075-.826-.291-1.652-.748-2.353-.598-.974-1.693-1.633-2.832-1.694l-.061.015z" fill="url(#i)"/><path d="M97.198 20.256c-1.088.011-2.175.413-2.973 1.161-.102.088-.33.238-.166.379.191.059.376-.108.562-.149 1.106-.393 2.326-.557 3.466-.195.479.144.917.403 1.315.697 1.497 1.479 2.82 3.125 3.963 4.891.259.148.571.2.834.352.366.163.676.42 1.008.636.165.058.239-.159.134-.266-1.476-2.533-3.298-4.874-5.456-6.864-.322-.267-.754-.34-1.146-.452-.505-.117-1.022-.199-1.541-.191z" fill="url(#k)"/><path d="M76.051 12.985c-1.092.05-2.166.283-3.233.502a29.82 29.82 0 0 0-4.775 1.497c-.181.104-.004.314.16.265a5.43 5.43 0 0 1 1.497.3c.355-.04.687-.21 1.033-.302 1.79-.552 3.628-.981 5.495-1.157.486-.027.972-.077 1.453.017.427.1.811.331 1.129.629.126.122.322-.058.216-.197-.343-.619-.901-1.125-1.58-1.345-.446-.156-.923-.216-1.394-.209z" fill="url(#t)"/><path d="M82.614 12.988c-.978.005-2.026.367-2.594 1.205-.078.146-.257.294-.211.472.099.18.284.008.38-.084.539-.454 1.274-.589 1.961-.528 1.661.114 3.297.479 4.908.91l1.872.577c.254.03.481-.139.73-.168.35-.098.724-.081 1.072-.161.17-.124-.05-.282-.188-.295-2.234-.889-4.573-1.523-6.955-1.855-.323-.044-.649-.079-.975-.072z" fill="url(#m)"/><path d="M90.469 15.233c-.707-.002-1.391.233-1.993.593-.459.259-.862.61-1.226.987-.101.137.101.292.222.183.642-.339 1.329-.615 2.065-.652 1.009-.076 2.007.22 2.879.723 1.726.902 3.375 1.957 4.881 3.193.337.071.695.051 1.035.13.301.039.586.158.883.207.2-.046.099-.275-.026-.346-1.8-1.587-3.791-2.96-5.916-4.073-.584-.283-1.151-.613-1.767-.82a3.6 3.6 0 0 0-1.036-.127z" fill="url(#l)"/><path d="M68.151 15.227c-.688-.009-1.329.269-1.929.576-2.226 1.082-4.304 2.456-6.201 4.043-.196.189-.445.34-.596.568-.051.177.181.22.297.142.531-.149 1.071-.243 1.62-.272.346-.15.606-.445.917-.653 1.443-1.092 3.017-2.052 4.639-2.843.91-.425 1.955-.57 2.922-.359.549.098 1.038.373 1.54.598.168.043.227-.191.095-.272-.782-.797-1.8-1.422-2.934-1.514-.123-.011-.246-.015-.37-.014z" fill="url(#v)"/><path d="M61.38 20.257c-.847.017-1.689.221-2.461.559-1.424 1.387-2.775 2.856-3.923 4.482l-1.659 2.597c-.048.159.168.233.259.116.5-.419 1.082-.739 1.714-.911.252-.257.413-.599.633-.888 1.035-1.478 2.183-2.885 3.489-4.135.454-.299.934-.57 1.468-.696.604-.168 1.238-.132 1.858-.078.607.066 1.191.288 1.769.483.188.036.214-.222.071-.297-.846-.836-2.035-1.264-3.218-1.233zm-1.979 1.832z" fill="url(#w)"/><path d="M56.245 26.951c-1.178 0-2.307.575-3.084 1.444-.399.419-.595.979-.86 1.484-1.11 2.306-1.898 4.765-2.377 7.277-.025.171.225.21.28.058.313-.542.731-1.041 1.263-1.392.223-.092.291-.328.331-.544.564-2.142 1.345-4.23 2.4-6.181.523-.902 1.479-1.494 2.502-1.649.261-.064.545-.021.795-.113.13-.191-.145-.257-.285-.274-.316-.075-.641-.113-.965-.111z" fill="url(#u)"/><path d="M53.643 52.273c-.455.38-.738.951-.986 1.485-.277.677-.287 1.455-.13 2.161.665 1.683 1.722 3.177 2.764 4.644.245.309.454.657.744.926.342.024.132-.408.1-.598-.181-.662-.089-1.356-.005-2.025-.872-1.367-1.816-2.725-2.414-4.244-.188-.724-.076-1.5.103-2.226-.005-.085-.096-.148-.177-.123z" fill="url(#q)"/><path d="M53.7 43.355c-1.465.147-2.848 1.101-3.366 2.503-.611 1.505-.339 3.176.098 4.687.456 1.626 1.012 3.244 1.747 4.758.345.086.208-.502.3-.723.043-.544.361-1.029.456-1.561-.607-1.627-1.128-3.299-1.481-5.001-.276-1.079-.098-2.34.707-3.17.453-.551 1.101-.891 1.662-1.3.076-.08-.033-.202-.123-.192z" fill="url(#r)"/><path d="M52.994 35.227c-1.236.184-2.378.97-2.882 2.131-.714 1.561-.609 3.328-.657 5.002.008 1.617-.03 3.261.305 4.848.286.207.309-.289.35-.462.109-.699.448-1.34.813-1.939.043-2.198-.097-4.442.286-6.6.173-1.064.816-2.068 1.748-2.607.179-.063.338-.355.036-.374z" fill="url(#s)"/><path d="M300.354 48.248l-8.924.328c-.506.035-.632.812-.148.988 1.544.435 3.079.991 4.357 2 2.087 1.568 3.425 3.975 3.996 6.494.164.46.866.404.979-.059.549-1.978 1.41-3.957 2.898-5.436 1.355-1.433 3.186-2.399 5.092-2.889.411-.05.781-.519.482-.895-.338-.361-.906-.202-1.348-.287l-7.385-.246zm-9.84 4.723c-8.209.692-16.375 2.283-24.205 4.855-.839.187-2.76.94-1.271 1.727 2.962 1.853 5.477 4.453 7.703 7.068-4.298-3.972-10.5-5.986-16.26-4.551-4.104 1.096-7.758 3.419-11.445 5.457-4.021 2.556-8.173 5.026-11.738 8.201-.599 1.129 1.083 1.161 1.783 1.148 4.126.635 7.955 2.897 10.561 6.168-5.215-2.443-11.424-3.872-17.014-1.863-5.076 2.063-8.424 6.685-11.891 10.701-2.381 3.093-5.004 6.067-6.936 9.465.034 1.248 1.691.565 2.482.635 2.384-.011 4.765.528 6.955 1.459-4.337-.213-9.074.524-12.264 3.736-2.88 2.695-4.04 6.621-5.785 10.049-2.317 5.321-4.214 10.848-5.574 16.486.327 1.152 1.74.155 2.518.053a20.51 20.51 0 0 1 5.307-.576c-4.889 1.056-8.61 5.248-9.711 10.037-1.45 7.061-1.404 14.332-1.367 21.51.132 1.242-.028 2.581.408 3.742 1.174.132 1.821-1.416 2.9-1.838 2.948-1.83 6.283-2.83 9.773-2.881-4.661 2.072-9.5 5.246-11.068 10.385-1.223 4.214.36 8.57 1.24 12.689 1.226 4.408 2.41 8.89 4.33 13.049 1.034.616 1.52-1.058 2.193-1.596.61-.652 1.59-1.804 2.129-2.115-1.82 3.734-2.565 8.298-.586 12.131 2.243 4.879 5.15 9.484 8.246 13.824 1.074.125 1.198-1.567 1.932-2.225.679-.843 1.719-2.126 2.467-2.539-1.25 3.55-2.112 7.964.461 11.164 3.599 4.421 7.761 8.359 11.807 12.367.429.668 1.596 1.211 1.842.127.546-2.063 1.334-4.001 2.566-5.748.24 3.855-.319 8.509 2.84 11.387.917.654 1.792 1.865 2.932 1.832.648-1.291 1.018-2.853 2.281-3.764.61-.887 2.48-.586 2.4-1.887-1.294-2.272.857-5.364 3.303-5.566 1.041-.592-.201-1.904.387-2.775.343-1.485 1.599-2.452 2.979-2.855.726-1.116-.217-2.688.766-3.791.625-1.074 2.024-1.219 2.822-2.043-.28-.863-1.196-1.649-.709-2.695.445-1.94 2.684-2.507 3.484-4.25 3.056-5.307 4.855-11.225 6.904-16.967 1.887-5.368 3.225-10.899 4.668-16.393 1.397-5.162 5.427-9.668 10.662-11.049 1.047-.954.602-2.654.803-3.928-.565-1.823 1.34-1.159 2.494-1.256 1.103-.155 2.451.283 3.41-.352.021-1.173-.815-2.303-1.469-3.26-.436-.621-1.698-.074-1.359-1.137.283-.794-.687-2.757.34-2.854 1.747-.033 2.061-2.386 3.559-2.752 1.426-.316.552-2.181.975-3.174.682-.725 1.039-1.532.223-2.395-.414-1.464-2.605-1.852-2.189-3.633-.062-2.05 1.191-4.024 3.188-4.621.8-.574 2.458-.306 2.561-1.437-1.021-.611-2.354-1.335-2.318-2.744-.161-1.42.985-3.002 2.543-2.684 1.274-.624-.691-1.586-.559-2.557-.351-1.564.51-3.003 1.643-3.988.362-1.091-1.224-1.843-.775-3.035.183-1.469 1.702-2.016 2.861-2.441-.081-1.097-1.542-1.866-1.268-3.174-.034-1.505 1.355-2.389 2.037-3.508-1.045-1.101-1.426-3.098-.16-4.215.791-.413.978-1.398.293-2-.69-1.341.219-2.777 1.275-3.562-.053-.967-1.208-2.079-.457-3.154.483-.732 1.788-1.24.859-2.227-.795-1.056-.153-2.322.768-3.021.642-1.019-.901-2.104-.031-3.154.706-.878-.319-1.515-.805-2.125-.684-1.11.079-2.482 1.195-2.926.739-.96-.968-1.563-.816-2.596-.145-1.997.988-3.836.916-5.85.17-1.652-.166-3.357-.377-4.934.568-.886 1.646-1.536 1.881-2.572.231 1.174 1.691 1.712 2.006 2.689-.754 3.179-.43 6.465.398 9.588.351 1.209-.426 2.226-.893 3.24.094.812 1.277.846 1.506 1.697.761 1.318-1.004 2.004-1.209 3.111.413.925.678 2.081-.014 2.967-.234 1.152 1.529 1.493 1.334 2.717.038.956-1.193 2.101.039 2.783 1.002.883.763 2.331.105 3.318.08 1.195 1.73 1.77 1.477 3.133-.046 1.075-1.584 2.233.033 2.863 1.238 1.085.903 2.942-.006 4.104.006 1.203 1.677 1.616 1.715 2.9.486 1.381-.442 2.591-.98 3.729.8.747 2.364.879 2.609 2.234.489 1.208-.59 2.184-.814 3.254 1.374 1.008 2.272 2.794 1.666 4.502-.227.67-1.221 1.961.014 2.205 1.981.149 3.103 3.194 1.279 4.424-.512.552-2.167.781-1.193 1.65 2.121.48 4.348 1.469 5.186 3.645.168 1.129.494 2.594-.23 3.578-.478.494-1.53.524-1.445 1.418-.327.695-1.432 1.771-.289 2.309.985 1.002-.039 2.801 1.102 3.611 1.657.417 2.063 3.07 4.037 2.82-.214 1.105.275 2.867-.381 3.559-1.595.189-1.794 2.212-2.549 3.297.185 1.417 2.422.462 3.479.785 1.411.01 3.222-.381 2.605 1.664.232 1.127-.389 2.699.484 3.516 5.436 1.034 9.389 5.77 10.912 10.918 1.311 5.165 2.55 10.36 4.299 15.404 2.143 6.205 4.17 12.536 7.43 18.264 1.105 1.754 3.815 2.745 3.342 5.211-.236.746-1.046 2.064.314 2.213 1.547.191 2.278 2.135 2.424 3.5-.17.674-.558 1.795.527 1.854 1.8.41 2.993 2.432 2.619 4.188-.556.642.047 1.465.828 1.305 2.425.528 3.85 3.336 2.877 5.592.313 1.196 1.979 1.094 2.631 2.08 1.092.893 1.411 2.321 1.99 3.488 1.367-.335 2.568-1.498 3.588-2.51 2.479-3.003 1.81-7.208 2.176-10.779 1.281 1.721 1.935 3.772 2.645 5.754.914 1.088 2.125-.53 2.824-1.09 4.085-3.867 8.191-7.812 11.471-12.402 1.217-2.041.764-4.564.68-6.82-.152-1.128-.622-2.176-.924-3.266 1.677 1.207 2.905 2.941 3.889 4.699 1.293.049 1.682-2.116 2.574-2.982 2.539-4.088 5.243-8.165 6.971-12.676.584-3.452.298-7.222-1.404-10.314 1.389 1.117 2.434 2.617 3.645 3.875 1.228.141 1.217-1.667 1.691-2.428 2.206-6.231 4.094-12.629 5.049-19.18.476-5.631-3.596-10.571-8.336-13.086-1.05-.599-2.171-1.055-3.268-1.557 4.092.137 8.244 1.311 11.41 4 .476.553 1.607.633 1.523-.34.528-7.821.196-15.719-.977-23.469-.857-5.192-5.006-9.823-10.186-10.793 2.555-.037 5.098.421 7.57 1.068 1.118-.456.059-1.916.01-2.76-2.297-7.766-5.062-15.493-9.227-22.471-2.622-3.928-7.494-5.713-12.084-5.547-.394-.07-2.452.203-1.527-.199 2.857-1.184 6.027-1.172 9.031-1.307.702-1-1.069-2.077-1.453-3.074-4.046-5.666-8.401-11.223-13.699-15.775-2.586-1.99-5.868-3.05-9.137-2.748-3.636-.204-7.186.78-10.455 2.307-1.125.58-.768.055-.057-.586 2.757-3.028 6.646-4.9 10.699-5.316.876.034 1.135-1.041.383-1.453-5.051-4.003-10.566-7.422-16.225-10.498-4.308-2.374-9.386-4.134-14.307-2.715-3.091.785-6.013 2.287-8.395 4.414 2.173-3.007 5.065-5.479 8.217-7.357.223-1.102-1.603-1.04-2.348-1.467-8.079-2.495-16.442-4.484-24.934-4.594-3.996-.15-7.681 3.237-8.211 7.064-.384-2.612-2.038-5.045-4.502-6.139-1.579-.767-3.354-1.081-5.102-1.033zm9.428 16.408c-.055.585.115 1.498.447 1.732-.468.257-.344 1.65-.408 1.316.111-.725-.452-1.304-.094-1.932.016-.16.041-1.412.055-1.117zm-17.707 1.711c4.139-.168 8.433 2.097 9.965 6.072.364.967.971 2.202.893 3.117-4.31-.736-9.114-.974-12.937 1.521-3.418 2.293-4.957 6.78-4.521 10.736 1.305.722 3.197-.099 4.662.586 2.737 1.159 4.613 4.027 4.998 6.906.122 2.193.128 4.621-1.477 6.334-2.645 3.275-7.205 3.551-11.09 3.369-3.629-.344-7.572-2.373-8.811-5.996-.603-1.531-.345-3.186.143-4.691-.453-1.258-2.214-.27-3.109-1.021-1.207-.56-2.084-2.177-2.008-3.289 1.485.712 2.979-.7 2.902-2.207.641-3.709.664-8.215 3.809-10.809.969-.903 2.44-.881 3.449-1.627.278-.992-1.599-1.76-.867-2.672 2.56.099 4.197-2.086 5.848-3.682 2.254-1.89 5.257-2.654 8.152-2.648zm35.246.033c3.681-.042 7.644.982 9.916 4.09 1.067 1.367 2.882 2.338 4.529 2.24.326 1.066-1.04 1.592-.928 2.539.475.812 1.701.493 2.365 1.166 3.497 1.778 4.146 6.111 4.527 9.611.284 1.437.198 3.792 2.016 4.158.533.167 1.657-.731 1.197.311-.378 2.016-2.334 3.381-4.365 3.156-1.642.042-.286 1.636-.334 2.59.454 4.312-3.539 7.749-7.486 8.459-3.941.622-8.5.609-11.73-2.059-3.788-3.154-3.284-9.384.146-12.604a5.86 5.86 0 0 1 5.221-1.943c1.671.487 2.49-.595 1.9-2.162-.316-3.874-2.077-8.112-5.951-9.611-3.632-1.762-7.835-1.39-11.689-.734.578-3.899 3.221-7.522 7.051-8.738 1.156-.423 2.397-.473 3.615-.469zm-17.523 3.758c-.163.609 1.054.751.242.969-.318.834-.293-.15-.881-.195.417-.012.644-.704.639-.773zm1.951.311c.047-.05.064-.049-.02.133-.075.492-.847.299-.148.039.043-.022.121-.122.168-.172zm-61.912 25.369c3.553.236 6.988 2.302 8.984 5.232 1.049 1.852.837 4.28.23 6.195-.184.988-1.686 1.535-1.289 2.588 1.446.778 3.229 1.177 4.354 2.516 1.846 1.988 1.359 4.991 1.262 7.467-.091 2.451-1.21 5.059-3.658 5.959-1.8.614-3.757 1.112-5.682.871 1.115-1.444 2.29-3.913.604-5.387-2.16-1.757-5.159-1.143-7.719-1.004-4.63.443-9.036 3.16-11.129 7.375-2.505 4.875-2.751 11.012-.33 15.965 1.081 2.169 3.292 4.681 5.992 3.885.717-.116 1.41-.837 1.959-.961.484 2.805-.593 6.097-3.439 7.232-4.862 1.435-10.558.098-14.027-3.717-2.164-2.369-3.393-5.954-2.381-9.088.933-1.235-.6-2.143-1.279-2.998-2.406-2.954-1.156-6.995-.189-10.256.694-2.58 2.509-4.953 5.191-5.629.932-.191 1.462-1.025 1.039-1.914-.412-2.834-.422-6.463 2.387-8.119 3.077-1.808 6.704-2.637 10.264-2.455 1.043-.645.324-2.334.984-3.352.89-2.515 3.454-3.598 5.393-5.123 1.063-.929 2.572-2.824 1.266-4.133-.378-.425-1.365-.345-1.551-.449.831-.48 1.813-.677 2.766-.701zm120.008.076c.955.027 1.986.081 2.793.654-1.259-.335-2.286.842-1.982 2.045.614 2.693 3.688 3.54 5.48 5.297 1.677 1.315 1.991 3.521 2.322 5.447 1.177.536 2.769.037 4.092.438 2.732.605 5.919 1.296 7.863 3.566 1.711 2.44.885 5.64.838 8.348 1.794.599 3.843 1.196 4.859 2.979 1.681 2.86 2.589 6.211 2.697 9.494.075 2.322-1.655 4.06-3.006 5.688.383 1.37.888 2.969.578 4.406-.587 5.385-5.614 9.404-10.773 9.875-2.747.357-6.136.416-8.039-1.902-1.391-1.562-1.325-3.814-1.205-5.766 1.292.961 3.057 1.703 4.582.775 2.91-1.695 4.227-5.177 4.771-8.346.327-3.806.152-7.828-1.834-11.207-2.437-5.048-8.167-7.814-13.635-7.574-2.024-.019-4.942-.21-5.875 2.059-.555 1.569.516 3.252 1.102 4.477-2.658.134-5.673-.38-7.633-2.326-1.586-2.147-1.644-4.965-1.773-7.527-.13-2.507 1.26-5.003 3.613-5.977.688-.495 2.66-.513 2.041-1.828-1.821-2.23-2.367-5.531-.785-8.043 1.493-2.333 4.042-3.861 6.559-4.785.758-.189 1.547-.267 2.35-.266zm-27.525 13.99c3.148-.019 6.441 2.292 6.998 5.469.337 1.692-.887 3.126-2.393 3.695-2.236.916-3.81 3.468-2.859 5.848 1.356 3.703 4.687 6.468 8.254 7.953 2.043.729 4.731.614 5.982-1.439.503-.622.832-1.354 1.174-2.07 1.53 1.725 2.743 3.913 2.354 6.297-.277 3.274-3.167 5.681-5.875 7.014-2.413 1.251-5.865 1.169-7.633-1.084-.45-1.357-1.941-.086-2.873-.314-3.695-.033-7.167-1.972-9.373-4.9-1.813-2.023-2.225-5.248-.602-7.512-.256-1.353-1.912-2.076-2.658-3.268-1.965-2.543-1.142-6.152.496-8.656 1.824-2.791 4.135-5.531 7.303-6.803.554-.157 1.13-.225 1.705-.229zm-65.057.045c2.905-.265 4.95 2.199 6.83 4.004 2.454 2.587 4.678 6.219 3.65 9.902-.652 1.775-1.901 3.247-3.459 4.303-.432 1.134 1.095 2.14.928 3.389.172 4.197-3.411 7.575-7.08 8.975-1.974.792-4.16.822-6.211.424-.718.243-.607 1.322-1.498 1.516-3.187 2.192-7.451.58-9.93-1.951-2.359-2.04-3.643-5.601-2.076-8.498.452-.913 1.152-2.208 1.904-2.619.583 2.163 2.613 4.257 5.031 3.879 3.861-.497 7.138-3.213 9.328-6.305 1.5-2.141 1.732-5.717-.793-7.205-1.563-.859-3.738-1.896-3.566-4.021.347-2.952 3.13-5.36 5.99-5.764.317-.021.634-.022.951-.027zm-18.697 41.021c1.089-.025 2.388.767 2.602 1.787-1.538.162-2.728 1.858-1.873 3.299 1.29 2.982 4.613 4.022 6.826 6.102 1.899 2.506 2.987 5.863 2.434 9-.789 3.198-3.371 6.13-6.641 6.857-.842-.092-1.96.131-1.895 1.191-1.477 3.265-5.206 4.496-8.146 5.998-3.455 1.729-8.092 1.492-10.91-1.33-1.377-.339-.707 1.852-1.473 2.553-1.229 1.879-3.961 1.64-5.834 1.033 1.709-1.651.239-4.104-1.113-5.457-2.332-2.128-4.856-4.319-5.781-7.467-.988-3.239-1.196-6.75-.711-10.092.882-3.215 3.87-5.916 7.348-5.816 1.34-.225.093.463-.346.959-1.498 1.486-.562 3.841-.023 5.559 1.504 4.025 4.362 8.302 8.949 8.961 2.741.091 5.65.004 8.203-1.092 1.501-.502 1.192-2.294.699-3.424-.49-1.919-1.565-4.033-.67-5.994.432-.805 2.608-.764 1.676-1.926-1.267-.97-1.786-2.73-.924-4.135 1.393-2.537 3.326-5.053 6.014-6.283.508-.187 1.047-.297 1.59-.283zm103.205.031c2.372.325 3.904 2.52 5.451 4.135 1.093 1.465 2.702 3.511 1.531 5.342-.409.71-2.061 1.676-.795 2.275 1.354.232 2.328 1.482 1.887 2.871-.223 2.133-1.359 4.07-1.625 6.145 2.146 2.656 5.941 2.194 8.975 2.305 3.738.077 6.457-3.154 8.174-6.117 1.037-2.206 2.379-4.622 2.01-7.133-.319-.92-1.122-1.838-1.889-2.25 3.455-.135 7.043 1.998 7.982 5.471.799 2.966.359 6.173-.16 9.17-.572 3.26-2.885 5.754-5.221 7.922-1.239 1.446-3.317 3.072-2.766 5.211.1.522 1.292 1.172.117 1.273-1.986.646-5.167.331-5.668-2.1.025-.81-.062-2.349-1.197-1.396-2.542 2.045-6.039 2.787-9.145 1.697-3.447-1.289-7.049-2.758-9.385-5.75-.382-.947-.769-2.349-2.117-2.037-4.082-.878-7.382-5.044-6.877-9.283.301-3.25 1.638-6.742 4.715-8.305 2.199-1.247 4.881-3.063 4.861-5.875-.156-1.046-1.371-1.739-2.145-1.898.684-1.239 1.883-1.824 3.285-1.672zM235.723 194.58c4.316-.206 8.514 3.342 8.742 7.744.563 3.645-.781 7.977-4.289 9.664-1.139.253-2.402.635-2.807 1.889-1.454 2.552-4.51 3.907-7.385 3.34-5.027-.692-8.437-6.854-5.967-11.367 1.376-2.113 3.923-4.097 6.57-3.477 1.568.395 2.006 2.066 2.662 3.264 1.166-.214 1.49-1.814 1.732-2.861.146-2.091.697-4.839-1.391-6.195-.519-.504-1.453-.672-1.945-.959 1.227-.687 2.656-1.025 4.076-1.041zm129.494.102c1.116.064 2.212.343 3.16.967-2.048.486-3.826 2.299-3.564 4.514.203 1.837.002 4.174 1.545 5.461 1.193-.612 1.212-2.667 2.711-3.117 3.233-.973 6.627 1.724 7.498 4.725.44 2.654-.012 5.621-2.053 7.521-2.81 3.344-8.752 3.576-11.391-.121-.634-1.18-1.455-2.379-2.922-2.523-3.767-1.348-5.145-5.954-4.725-9.609.267-4.327 4.217-8.213 8.623-7.814.372-.021.745-.023 1.117-.002z" transform="scale(.26458333)" fill="url(#G)"/><path d="M79.362 20.601l-.066.023c-.165.093-.275.247-.399.381-.125.129-.019.325-.014.477.128.675.078 1.372-.144 2.022-.073.248-.113.539.06.757.233.383.842.396 1.111.047.238-.274.141-.663.044-.973-.156-.55-.228-1.132-.117-1.702.015-.187.091-.373.065-.56-.158-.176-.306-.397-.539-.473zm-.753 4.259c-.153.24-.1.598.16.743.682.141-.139.309-.008.772.203.383.583.363.097.417-.217.115-.37.353-.327.603.324.615.256.502-.173.8.125 1.166.294.818-.053 1.034a.66.66 0 0 0-.017.937c.116.129.269.169.431.181-.164-.003-.328-.001-.485.041-.411.193-.463.806-.181 1.129.174.213.466.157.71.167l-.513.014c-.373.127-.667.489-.651.893a.9.9 0 0 0 .78.868l-.709.01c-.315.093-.559.424-.489.757.032.327.341.598.673.563l.523.006h-.057c-.283.013-.573-.019-.852.03-.471.175-.645.772-.479 1.217.087.246.299.462.557.52l.481.009-1.133.026c-.237-.004-.397.212-.464.417-.106.334.053.782.414.876l5.083.007c.444-.167.558-.811.241-1.149-.142-.2-.423-.147-.634-.169l-.713-.007h.392c.365-.106.606-.476.603-.849.023-.352-.148-.724-.476-.879-.175-.089-.388-.023-.579-.044l-.505-.002.602-.007c.197-.002.417-.031.541-.204.279-.284.225-.807-.117-1.017-.138-.105-.307-.127-.475-.11h-.679l.333-.005c.389-.109.701-.476.689-.889a.89.89 0 0 0-.867-.881l.158-.003a.66.66 0 0 0 .423-.687.63.63 0 0 0-.465-.649h-.407l.213-.012c.307-.118.521-.469.423-.796-.413-.723-1.07-.237-.367-.661.274-.273.185-.799-.178-.948-.357-.152.24-.477.099-.832-.453-.492-.677-.172-.246-.605-.068-.911-.287-.537.267-1.161.059-.247-.027-.555-.285-.649-.4-.082-1.126-.112-1.308.18zm-2.063 13.431c-.252.097-.537.193-.698.422-.037.089.029.161.108.175-.179.057-.355.135-.418.32.009.262-.018.53.014.788.107.191.328.287.54.235-.056.055-.097.123-.083.205.035.166.16.291.263.419.021.043.062.064.106.069l-.016.006c-.116.046-.24.098-.309.209-.045.063-.069.137-.059.214l.003.701c-.043-.043-.113-.043-.173-.039-.047.001-.095-.004-.141.009v.001c-.079.051-.123.139-.186.207l-.265.335c-.037.059-.005.133.051.165h-.433l-.067.019c-.103.096-.039.253-.057.377.011.183-.023.374.019.553.096.103.253.039.377.057h.159l-.054.016c-.121.097.001.233.047.335l.327.621a.16.16 0 0 0 .039.027l-1.614.011c-.145.029-.11.199-.116.307l-.016 1.301-.014-.142c-.126-.144-.339.01-.494.041-1.241.416-2.102 1.562-2.491 2.773-.201.645-.283 1.32-.484 1.966-.563 1.987-1.225 3.962-2.039 5.857-.241.536-.489 1.09-.899 1.517-.074.239.263.174.405.18h23.27c.229-.055.055-.283-.047-.379-.538-.737-.844-1.59-1.187-2.428-.687-1.795-1.298-3.628-1.771-5.487-.149-.811-.356-1.629-.795-2.337-.508-.855-1.343-1.543-2.323-1.76-.097.006-.147.061-.173.133l-.015-1.435c-.013-.141-.171-.127-.275-.122h-1.46c.107-.046.125-.195.189-.285l.282-.567c.021-.078-.033-.127-.101-.146h.425c.134-.009.131-.159.123-.26l-.008-.651c-.041-.141-.218-.082-.327-.095h-.219c.062-.034.088-.125.04-.185l-.404-.497c-.067-.061-.167-.027-.249-.036-.021-.001-.041.007-.061.009v.001c-.015.008-.028.018-.039.029l-.003-.793a.45.45 0 0 0-.282-.299l-.045-.018c.066-.019.111-.081.107-.149.084-.118.194-.235.214-.387.036-.053.019-.124-.025-.165.174.019.344-.06.443-.205.094-.259.033-.545.052-.815-.037-.19-.234-.27-.407-.33.129-.004.164-.195.047-.259-1.827-.97-4.425-.936-6.312-.341zm8.304 8.893l-.009.253-.151-.134a.23.23 0 0 0 .037.011c.085-.001.113-.061.124-.13zm-10.945.08c.027.051.089.067.145.053l-.111.097c-.039.005-.037-.073-.035-.15zm-6.699 11.3c-.173.063-.21.285-.286.439-.129.296.048.634.338.747.289.192.649.077.973.108 5.068-.003 1.184.006-1.173.014-.285.011-.581.144-.706.415-.121.249-.265.581-.083.836.127.171.353.202.551.182l25.365.006c.235-.055.425-.288.374-.537-.059-.343-.218-.743-.584-.849-.359-.101-.737-.04-1.104-.06l-.665-.019c.397-.021.805.027 1.196-.05.309-.093.566-.427.44-.753-.073-.193-.153-.503-.419-.465l-24.218-.013zm-1.105 2.769c-.305.021-.564.241-.667.523-.109.242-.197.588.044.783.182.154.437.081.654.106l1.799.005h-2.775l-.057.014c-.405.182-.797.543-.809 1.015-.027.246.052.543.309.635.266.111.563.045.843.068l28.504.007c.217-.049.453-.177.493-.418.113-.443-.131-.913-.509-1.148-.156-.11-.332-.209-.53-.173h-2.219l1.22-.002c.253-.015.516.021.763-.04.228-.089.31-.365.241-.585-.08-.321-.258-.666-.598-.767-.204-.073-.431-.015-.643-.034-8.564.092-17.847-.099-26.063.011zm27.845 3.156l-29.784.011c-.417.15-.738.488-.868.912-.039.145-.121.313-.057.456l.909.604c.334.033.677.005 1.014.014h.341l-.857.025c-.164.027-.124.247.017.282.911.553 1.863 1.033 2.821 1.496.239.039.186-.273.246-.426.061-.241.148-.476.26-.698.062.409.149.852.423 1.174a2.27 2.27 0 0 0 .439.026l-.212.004-.029.011-.025.01c-.112.179.134.309.253.41.591.362 1.278.522 1.926.75l1.427.409c.224-.053.076-.308.063-.457-.05-.239-.061-.481-.076-.721.019.139.057.278.083.409.081.403.362.859.822.859.58.04 1.079-.373 1.655-.339.165-.017.357.155.494.004.089-.225.094-.49.261-.683.147-.229.413-.331.618-.485.045-.123-.024-.168-.121-.183h.82c.171-.059.171-.289.291-.413a2.77 2.77 0 0 1 1.559-1.138c.087-.025.805-.037 1.125-.117.012.029.038.055.081.068a2.77 2.77 0 0 1 1.915 1.456c.097.247.407.107.609.143h.765l-.399.011c-.214.097.011.277.149.317.359.197.571.599.572 1 .091.2.317-.009.481.013.576-.099 1.063.349 1.635.321.359.018.679-.227.801-.557.083-.199.137-.413.161-.629-.001.109.001.219-.016.325-.005.235-.089.461-.12.689.057.206.297.067.427.039l2.873-.969c.187-.114.391-.234.507-.423a.15.15 0 0 0-.126-.137h.193c.183-.069.207-.313.299-.471.1-.222.128-.498.176-.712.172.323.254.685.341 1.037.13.175.32-.035.468-.076l2.679-1.459c.081-.131-.004-.185-.117-.203h.425c.237-.101.442-.271.661-.407.111-.099.319-.159.317-.334-.075-.457-.315-.912-.735-1.137-.138-.083-.289-.135-.451-.111zm-24.831 3.869l.047.001-.127.001zm16.942.002h.13c-.045.003-.089.005-.13 0zm.393 0h.62l-.405.007-.029.011-.025.01c-.021.053-.033.107-.042.161l-.003-.117c-.031-.04-.071-.061-.116-.073zm-14.777.001h.095a.66.66 0 0 1-.095 0zm.364 0h.243l-.071.027a.66.66 0 0 0-.042.241l-.017-.183c-.024-.043-.065-.074-.113-.085zm17.72 0h.113a.64.64 0 0 1-.113 0zm-10.404.19c-.347 0-.667.223-.819.531-.078.138.08.234.152.333a3.28 3.28 0 0 1 .557.99c.049.126.243.098.267-.032a3.23 3.23 0 0 1 .679-1.131c.081-.136-.048-.278-.134-.377a.88.88 0 0 0-.701-.314zm.016 3.065c-.02.001-.04.006-.06.016-.102.112-.133.271-.232.388-.124.181-.298.318-.479.438-.104.082-.016.246.107.236.423.024.848.016 1.272.009.105.001.27-.012.261-.154-.029-.133-.189-.166-.28-.254a1.53 1.53 0 0 1-.463-.609c-.03-.048-.077-.072-.128-.07z" fill="url(#y)"/><path d="M71.523 56.174c-.131.007-.31.057-.337.204-.011.115.117.163.213.149.117.004.18.127.267.19.191.178.431.389.713.334.199-.038.292-.242.35-.414.032-.123-.118-.211-.22-.15-.177.078-.362-.025-.511-.117-.15-.081-.294-.204-.474-.195z" fill="url(#W)"/><path d="M73.798 55.159a.88.88 0 0 0-.789.488 3.87 3.87 0 0 0-.199.511c-.018.127.143.195.237.121.389-.225.893-.258 1.3-.064.124.055.217.155.314.246.103.062.208-.033.224-.135.069-.197.158-.439.009-.624-.251-.339-.677-.541-1.096-.543z" fill="url(#V)"/><path d="M74.901 56.442c-.163.016-.178.224-.123.343.139.344.458.604.818.686.132.055.284.02.382-.084.08-.084.204-.144.242-.258.032-.121-.111-.198-.212-.151-.298.063-.609-.064-.82-.276-.091-.068-.125-.189-.222-.248-.02-.01-.042-.012-.065-.013z" fill="url(#U)"/><path d="M76.043 52.728c-.088.104-.024.249-.018.372.058.391.238.747.416 1.095.186.361.213.788.13 1.181a1.45 1.45 0 0 1-.218.499c.026-.226-.166-.394-.299-.549-.108-.101-.191-.241-.329-.301-.122-.022-.194.114-.151.217.076.278.08.568.063.854-.011.392.397.701.771.654a1 1 0 0 0 .88-.669c.177-.447.137-.937.128-1.407-.02-.41-.067-.819-.121-1.226-.048-.149-.234-.122-.355-.172-.293-.083-.546-.279-.714-.531-.048-.056-.124-.055-.182-.017z" fill="url(#P)"/><path d="M79.39 51.935c-.647.007-1.307.093-1.904.351-.124.08-.055.25-.073.373.012.144-.026.3.032.436.073.117.214.041.31.007.519-.188 1.064-.263 1.601-.266.674-.008 1.348.096 1.971.367.11.044.208-.065.193-.171l-.003-.626c-.037-.126-.199-.122-.3-.173-.583-.22-1.206-.298-1.826-.296z" fill="url(#O)"/><path d="M79.299 50.705c-.338.212-.676.466-.852.835-.21-.256-.49-.445-.777-.604-.134-.05-.198.104-.253.195-.134.233-.324.44-.409.699-.034.213.156.375.309.49.122.067.246-.041.364-.071.75-.271 1.566-.314 2.348-.244.44.043.871.132 1.28.299.133.026.228-.1.315-.183.117-.121.16-.314.064-.46-.134-.247-.307-.473-.445-.717-.101-.114-.241-.003-.339.056-.22.128-.413.295-.591.474-.202-.348-.544-.59-.89-.778-.043-.021-.082-.009-.125.007z" fill="url(#N)"/><path d="M82.612 52.709c-.14.025-.169.188-.273.266-.212.21-.502.309-.788.368-.145.057-.099.239-.129.363-.077.628-.122 1.263-.076 1.894.049.377.178.798.529 1 .193.109.417.188.641.141.335-.035.63-.348.597-.693-.011-.286-.011-.58.073-.852.04-.132-.14-.238-.234-.136-.183.177-.374.357-.501.58a.43.43 0 0 0-.062.221c-.22-.316-.284-.721-.245-1.098.035-.454.337-.822.477-1.246.073-.224.127-.46.129-.696-.011-.065-.075-.109-.138-.111z" fill="url(#Q)"/><path d="M83.837 56.431c-.129.01-.15.166-.238.236-.199.213-.488.36-.786.32-.091-.009-.222-.053-.268.06-.061.137.103.222.183.304.088.08.185.19.318.142.424-.063.838-.363.949-.789.021-.108-.021-.275-.158-.273z" fill="url(#R)"/><path d="M84.9 55.162c-.359.009-.707.178-.959.43-.134.132-.217.332-.144.516.042.117.05.262.14.351.138.082.229-.094.33-.16.313-.233.739-.247 1.105-.158.148.028.269.122.408.172.12.028.209-.119.144-.218-.11-.271-.194-.579-.444-.759-.164-.132-.375-.179-.582-.173z" fill="url(#S)"/><path d="M87.213 56.173c-.304.02-.51.31-.81.339-.113.027-.223-.088-.325-.011-.113.087-.022.231.026.329.07.131.198.246.357.23.261-.016.477-.197.657-.371.071-.083.156-.181.278-.166.135.008.211-.182.095-.26a.47.47 0 0 0-.278-.09z" fill="url(#T)"/><path d="M80.533 50.638c-.235.063-.486.069-.725.018-.13-.033-.226.147-.122.234.193.156.395.308.54.512.084.092.208.02.275-.054.089-.094.227-.153.279-.273.004-.128-.076-.243-.115-.363-.033-.045-.073-.078-.132-.074z" fill="url(#L)"/><path d="M78.1 50.617c-.119.077-.142.235-.216.349-.056.146.113.21.203.286.104.07.185.172.295.233.149.043.198-.131.283-.212.132-.157.3-.279.452-.414.089-.107-.04-.26-.163-.214-.257.055-.529.051-.778-.036-.025-.007-.05.003-.075.006z" fill="url(#M)"/><path d="M78.415 48.989c-.104.075-.112.219-.188.318-.155.242-.279.519-.278.813-.026.192.041.406.217.506.284.158.636.111.93.008.102-.035.199-.1.276-.169.226.22.559.278.863.259.251.013.529-.146.562-.413.055-.37-.102-.728-.294-1.035-.072-.091-.07-.264-.21-.28-.127-.002-.205.126-.299.193-.237.209-.458.443-.617.718-.214-.354-.514-.652-.838-.906-.04-.028-.08-.022-.124-.013z" fill="url(#K)"/><path d="M79.3 48.496c-.123.015-.271-.033-.37.061-.06.163-.053.344-.088.514-.024.107-.038.235.067.305.141.138.256.3.387.445.089.079.194-.009.239-.093.105-.141.235-.264.344-.4.051-.114-.011-.246-.01-.367-.025-.138-.01-.286-.067-.416-.107-.094-.263-.033-.393-.05-.037 0-.073 0-.11 0z" fill="url(#J)"/><path d="M79.359 45.684c0 .157-.124.221-.162.339-.1.501-.281.982-.506 1.44-.099.234-.263.484-.172.748.082.241.364.317.593.319.273.014.554.022.821-.045.217-.066.382-.304.317-.532-.088-.338-.28-.638-.402-.964-.164-.384-.27-.79-.343-1.201-.015-.065-.147-.426-.147-.362z" fill="url(#I)"/><path d="M78.297 56.129c-.093.022-.149.11-.216.171s-.109.15-.09.242c.025.177.121.334.215.483a2.7 2.7 0 0 0 .647.693c.069.047.12.12.195.154.082.028.15-.038.189-.103a1.02 1.02 0 0 1 .215-.199c.063-.064.039-.173-.032-.221l-.667-.612c-.131-.131-.252-.286-.296-.469-.001-.083-.076-.153-.16-.14z" fill="url(#Y)"/><path d="M79.792 55.827c-.239.001-.443.192-.517.41-.033.092.058.196.153.172.129-.051.253-.126.395-.135.136-.014.271.014.401.053a.14.14 0 0 0 .15-.192c-.074-.12-.197-.207-.327-.259-.081-.03-.168-.049-.255-.05z" fill="url(#Z)"/><path d="M79.4 54.813c-.073.014-.124.074-.186.111-.076.06-.056.188.03.229.072.047.156.103.172.194.027.088.141.121.213.065.101-.062.21-.128.272-.231.047-.089-.02-.189-.103-.228-.111-.058-.23-.099-.349-.138-.016-.004-.033-.002-.049-.002z" fill="url(#X)"/><path d="M298.727 48.289l-7.396.307c-.611.14-.377 1.016.191 1.02 1.915.544 3.792 1.413 5.191 2.902 1.498 1.499 2.417 3.495 2.941 5.496.217.58 1.019.323 1.027-.24.712-2.862 2.479-5.525 5.096-6.967.933-.572 1.994-.857 3.002-1.25.526-.261.229-1.065-.33-1.008-3.231-.25-6.483-.247-9.723-.26zm-8.213 4.682c-8.209.692-16.375 2.283-24.205 4.855-.839.187-2.76.94-1.271 1.727 2.962 1.853 5.477 4.453 7.703 7.068-4.298-3.972-10.5-5.986-16.26-4.551-4.104 1.096-7.758 3.419-11.445 5.457-4.021 2.556-8.173 5.026-11.738 8.201-.599 1.129 1.083 1.161 1.783 1.148 4.126.635 7.955 2.897 10.561 6.168-5.215-2.443-11.424-3.872-17.014-1.863-5.076 2.063-8.424 6.685-11.891 10.701-2.381 3.093-5.004 6.067-6.936 9.465.034 1.248 1.691.565 2.482.635 2.384-.011 4.765.528 6.955 1.459-4.337-.213-9.074.524-12.264 3.736-2.88 2.695-4.04 6.621-5.785 10.049-2.317 5.321-4.214 10.848-5.574 16.486.327 1.152 1.74.155 2.518.053a20.51 20.51 0 0 1 5.307-.576c-4.889 1.056-8.61 5.248-9.711 10.037-1.45 7.061-1.404 14.332-1.367 21.51.132 1.242-.028 2.581.408 3.742 1.174.132 1.821-1.416 2.9-1.838 2.948-1.83 6.283-2.83 9.773-2.881-4.661 2.072-9.5 5.246-11.068 10.385-1.223 4.214.36 8.57 1.24 12.689 1.226 4.408 2.41 8.89 4.33 13.049 1.034.616 1.52-1.058 2.193-1.596.61-.652 1.59-1.804 2.129-2.115-1.82 3.734-2.565 8.298-.586 12.131 2.243 4.879 5.15 9.484 8.246 13.824 1.074.125 1.198-1.567 1.932-2.225.679-.843 1.719-2.126 2.467-2.539-1.25 3.55-2.112 7.964.461 11.164 3.599 4.421 7.761 8.359 11.807 12.367.429.668 1.596 1.211 1.842.127.546-2.063 1.334-4.001 2.566-5.748.24 3.855-.319 8.509 2.84 11.387.917.654 1.792 1.865 2.932 1.832.648-1.291 1.018-2.853 2.281-3.764.61-.887 2.48-.586 2.4-1.887-1.294-2.272.857-5.364 3.303-5.566 1.041-.592-.201-1.904.387-2.775.343-1.485 1.599-2.452 2.979-2.855.726-1.116-.217-2.688.766-3.791.625-1.074 2.024-1.219 2.822-2.043-.28-.863-1.196-1.649-.709-2.695.445-1.94 2.684-2.507 3.484-4.25 3.056-5.307 4.855-11.225 6.904-16.967 1.887-5.368 3.225-10.899 4.668-16.393 1.397-5.162 5.427-9.668 10.662-11.049 1.047-.954.602-2.654.803-3.928-.565-1.823 1.34-1.159 2.494-1.256 1.103-.155 2.451.283 3.41-.352.021-1.173-.815-2.303-1.469-3.26-.436-.621-1.698-.074-1.359-1.137.283-.794-.687-2.757.34-2.854 1.747-.033 2.061-2.386 3.559-2.752 1.426-.316.552-2.181.975-3.174.682-.725 1.039-1.532.223-2.395-.414-1.464-2.605-1.852-2.189-3.633-.062-2.05 1.191-4.024 3.188-4.621.8-.574 2.458-.306 2.561-1.437-1.021-.611-2.354-1.335-2.318-2.744-.161-1.42.985-3.002 2.543-2.684 1.274-.624-.691-1.586-.559-2.557-.351-1.564.51-3.003 1.643-3.988.362-1.091-1.224-1.843-.775-3.035.183-1.469 1.702-2.016 2.861-2.441-.081-1.097-1.542-1.866-1.268-3.174-.034-1.505 1.355-2.389 2.037-3.508-1.045-1.101-1.426-3.098-.16-4.215.791-.413.978-1.398.293-2-.69-1.341.219-2.777 1.275-3.562-.053-.967-1.208-2.079-.457-3.154.483-.732 1.788-1.24.859-2.227-.795-1.056-.153-2.322.768-3.021.642-1.019-.901-2.104-.031-3.154.706-.878-.319-1.515-.805-2.125-.684-1.11.079-2.482 1.195-2.926.739-.96-.968-1.563-.816-2.596-.145-1.997.988-3.836.916-5.85.17-1.652-.166-3.357-.377-4.934.568-.886 1.646-1.536 1.881-2.572.231 1.174 1.691 1.712 2.006 2.689-.754 3.179-.43 6.465.398 9.588.351 1.209-.426 2.226-.893 3.24.094.812 1.277.846 1.506 1.697.761 1.318-1.004 2.004-1.209 3.111.413.925.678 2.081-.014 2.967-.234 1.152 1.529 1.493 1.334 2.717.038.956-1.193 2.101.039 2.783 1.002.883.763 2.331.105 3.318.08 1.195 1.73 1.77 1.477 3.133-.046 1.075-1.584 2.233.033 2.863 1.238 1.085.903 2.942-.006 4.104.006 1.203 1.677 1.616 1.715 2.9.486 1.381-.442 2.591-.98 3.729.8.747 2.364.879 2.609 2.234.489 1.208-.59 2.184-.814 3.254 1.374 1.008 2.272 2.794 1.666 4.502-.227.67-1.221 1.961.014 2.205 1.981.149 3.103 3.194 1.279 4.424-.512.552-2.167.781-1.193 1.65 2.121.48 4.348 1.469 5.186 3.645.168 1.129.494 2.594-.23 3.578-.478.494-1.53.524-1.445 1.418-.327.695-1.432 1.771-.289 2.309.985 1.002-.039 2.801 1.102 3.611 1.657.417 2.063 3.07 4.037 2.82-.214 1.105.275 2.867-.381 3.559-1.595.189-1.794 2.212-2.549 3.297.185 1.417 2.422.462 3.479.785 1.411.01 3.222-.381 2.605 1.664.232 1.127-.389 2.699.484 3.516 5.436 1.034 9.389 5.77 10.912 10.918 1.311 5.165 2.55 10.36 4.299 15.404 2.143 6.205 4.17 12.536 7.43 18.264 1.105 1.754 3.815 2.745 3.342 5.211-.236.746-1.046 2.064.314 2.213 1.547.191 2.278 2.135 2.424 3.5-.17.674-.558 1.795.527 1.854 1.8.41 2.993 2.432 2.619 4.188-.556.642.047 1.465.828 1.305 2.425.528 3.85 3.336 2.877 5.592.313 1.196 1.979 1.094 2.631 2.08 1.092.893 1.411 2.321 1.99 3.488 1.367-.335 2.568-1.498 3.588-2.51 2.479-3.003 1.81-7.208 2.176-10.779 1.281 1.721 1.935 3.772 2.645 5.754.914 1.088 2.125-.53 2.824-1.09 4.085-3.867 8.191-7.812 11.471-12.402 1.217-2.041.764-4.564.68-6.82-.152-1.128-.622-2.176-.924-3.266 1.677 1.207 2.905 2.941 3.889 4.699 1.293.049 1.682-2.116 2.574-2.982 2.539-4.088 5.243-8.165 6.971-12.676.584-3.452.298-7.222-1.404-10.314 1.389 1.117 2.434 2.617 3.645 3.875 1.228.141 1.217-1.667 1.691-2.428 2.206-6.231 4.094-12.629 5.049-19.18.476-5.631-3.596-10.571-8.336-13.086-1.05-.599-2.171-1.055-3.268-1.557 4.092.137 8.244 1.311 11.41 4 .476.553 1.607.633 1.523-.34.528-7.821.196-15.719-.977-23.469-.857-5.192-5.006-9.823-10.186-10.793 2.555-.037 5.098.421 7.57 1.068 1.118-.456.059-1.916.01-2.76-2.297-7.766-5.062-15.493-9.227-22.471-2.622-3.928-7.494-5.713-12.084-5.547-.394-.07-2.452.203-1.527-.199 2.857-1.184 6.027-1.172 9.031-1.307.702-1-1.069-2.077-1.453-3.074-4.046-5.666-8.401-11.223-13.699-15.775-2.586-1.99-5.868-3.05-9.137-2.748-3.636-.204-7.186.78-10.455 2.307-1.125.58-.768.055-.057-.586 2.757-3.028 6.646-4.9 10.699-5.316.876.034 1.135-1.041.383-1.453-5.051-4.003-10.566-7.422-16.225-10.498-4.308-2.374-9.386-4.134-14.307-2.715-3.091.785-6.013 2.287-8.395 4.414 2.173-3.007 5.065-5.479 8.217-7.357.223-1.102-1.603-1.04-2.348-1.467-8.079-2.495-16.442-4.484-24.934-4.594-3.996-.15-7.681 3.237-8.211 7.064-.384-2.612-2.038-5.045-4.502-6.139-1.579-.767-3.354-1.081-5.102-1.033zm9.428 16.408c-.055.585.115 1.498.447 1.732-.468.257-.344 1.65-.408 1.316.111-.725-.452-1.304-.094-1.932.016-.16.041-1.412.055-1.117zm-17.707 1.711c4.139-.168 8.433 2.097 9.965 6.072.364.967.971 2.202.893 3.117-4.31-.736-9.114-.974-12.937 1.521-3.418 2.293-4.957 6.78-4.521 10.736 1.305.722 3.197-.099 4.662.586 2.737 1.159 4.613 4.027 4.998 6.906.122 2.193.128 4.621-1.477 6.334-2.645 3.275-7.205 3.551-11.09 3.369-3.629-.344-7.572-2.373-8.811-5.996-.603-1.531-.345-3.186.143-4.691-.453-1.258-2.214-.27-3.109-1.021-1.207-.56-2.084-2.177-2.008-3.289 1.485.712 2.979-.7 2.902-2.207.641-3.709.664-8.215 3.809-10.809.969-.903 2.44-.881 3.449-1.627.278-.992-1.599-1.76-.867-2.672 2.56.099 4.197-2.086 5.848-3.682 2.254-1.89 5.257-2.654 8.152-2.648zm35.246.033c3.681-.042 7.644.982 9.916 4.09 1.067 1.367 2.882 2.338 4.529 2.24.326 1.066-1.04 1.592-.928 2.539.475.812 1.701.493 2.365 1.166 3.497 1.778 4.146 6.111 4.527 9.611.284 1.437.198 3.792 2.016 4.158.533.167 1.657-.731 1.197.311-.378 2.016-2.334 3.381-4.365 3.156-1.642.042-.286 1.636-.334 2.59.454 4.312-3.539 7.749-7.486 8.459-3.941.622-8.5.609-11.73-2.059-3.788-3.154-3.284-9.384.146-12.604a5.86 5.86 0 0 1 5.221-1.943c1.671.487 2.49-.595 1.9-2.162-.316-3.874-2.077-8.112-5.951-9.611-3.632-1.762-7.835-1.39-11.689-.734.578-3.899 3.221-7.522 7.051-8.738 1.156-.423 2.397-.473 3.615-.469zm-17.523 3.758c-.163.609 1.054.751.242.969-.318.834-.293-.15-.881-.195.417-.012.644-.704.639-.773zm1.951.311c.047-.05.064-.049-.019.133-.075.492-.847.299-.148.039.043-.022.121-.122.168-.172zm-61.912 25.369c3.553.236 6.988 2.302 8.984 5.232 1.049 1.852.837 4.28.23 6.195-.184.988-1.686 1.535-1.289 2.588 1.446.778 3.229 1.177 4.354 2.516 1.846 1.988 1.359 4.991 1.262 7.467-.09 2.451-1.21 5.059-3.658 5.959-1.8.614-3.757 1.112-5.682.871 1.115-1.444 2.29-3.913.604-5.387-2.16-1.757-5.159-1.143-7.719-1.004-4.63.443-9.036 3.16-11.129 7.375-2.505 4.875-2.751 11.012-.33 15.965 1.081 2.169 3.292 4.681 5.992 3.885.717-.116 1.41-.837 1.959-.961.484 2.805-.593 6.097-3.439 7.232-4.862 1.435-10.558.098-14.027-3.717-2.164-2.369-3.393-5.954-2.381-9.088.933-1.235-.6-2.143-1.279-2.998-2.406-2.954-1.156-6.995-.189-10.256.694-2.58 2.509-4.953 5.191-5.629.932-.191 1.462-1.025 1.039-1.914-.412-2.834-.422-6.463 2.387-8.119 3.077-1.808 6.704-2.637 10.264-2.455 1.043-.645.324-2.334.984-3.352.89-2.515 3.454-3.598 5.393-5.123 1.063-.929 2.572-2.824 1.266-4.133-.378-.425-1.365-.345-1.551-.449.831-.48 1.813-.677 2.766-.701zm120.008.076c.955.027 1.986.081 2.793.654-1.259-.335-2.286.842-1.982 2.045.614 2.693 3.688 3.54 5.48 5.297 1.677 1.315 1.991 3.521 2.322 5.447 1.177.536 2.769.037 4.092.438 2.732.605 5.919 1.296 7.863 3.566 1.711 2.44.885 5.64.838 8.348 1.794.599 3.843 1.196 4.859 2.979 1.681 2.86 2.589 6.211 2.697 9.494.075 2.322-1.655 4.06-3.006 5.688.383 1.37.888 2.969.578 4.406-.587 5.385-5.614 9.404-10.773 9.875-2.747.357-6.136.416-8.039-1.902-1.391-1.562-1.325-3.814-1.205-5.766 1.292.961 3.057 1.703 4.582.775 2.91-1.695 4.227-5.177 4.771-8.346.327-3.806.152-7.828-1.834-11.207-2.437-5.049-8.167-7.814-13.635-7.574-2.024-.019-4.942-.21-5.875 2.059-.555 1.569.516 3.252 1.102 4.477-2.658.134-5.673-.38-7.633-2.326-1.586-2.147-1.644-4.965-1.773-7.527-.13-2.507 1.26-5.003 3.613-5.977.688-.495 2.66-.513 2.041-1.828-1.821-2.23-2.367-5.531-.785-8.043 1.493-2.333 4.042-3.861 6.559-4.785.758-.189 1.547-.267 2.35-.266zm-27.525 13.99c3.148-.019 6.441 2.292 6.998 5.469.337 1.692-.887 3.126-2.393 3.695-2.236.916-3.81 3.468-2.859 5.848 1.356 3.703 4.687 6.468 8.254 7.953 2.043.729 4.731.614 5.982-1.439.503-.622.832-1.354 1.174-2.07 1.53 1.725 2.743 3.913 2.354 6.297-.277 3.274-3.167 5.681-5.875 7.014-2.413 1.251-5.865 1.169-7.633-1.084-.45-1.357-1.941-.086-2.873-.314-3.695-.033-7.167-1.972-9.373-4.9-1.813-2.023-2.225-5.248-.602-7.512-.256-1.353-1.912-2.076-2.658-3.268-1.965-2.543-1.142-6.152.496-8.656 1.824-2.791 4.135-5.531 7.303-6.803.554-.157 1.13-.225 1.705-.229zm-65.057.045c2.905-.265 4.95 2.199 6.83 4.004 2.454 2.587 4.678 6.219 3.65 9.902-.652 1.775-1.901 3.247-3.459 4.303-.432 1.134 1.095 2.14.928 3.389.172 4.197-3.411 7.575-7.08 8.975-1.974.792-4.16.821-6.211.424-.718.243-.607 1.322-1.498 1.516-3.187 2.192-7.451.58-9.93-1.951-2.359-2.04-3.643-5.601-2.076-8.498.452-.913 1.152-2.208 1.904-2.619.583 2.163 2.613 4.257 5.031 3.879 3.861-.497 7.138-3.213 9.328-6.305 1.5-2.141 1.732-5.717-.793-7.205-1.563-.859-3.738-1.896-3.566-4.021.347-2.952 3.13-5.36 5.99-5.764.317-.021.634-.022.951-.027zm-18.697 41.021c1.089-.025 2.388.767 2.602 1.787-1.538.162-2.728 1.858-1.873 3.299 1.29 2.982 4.613 4.023 6.826 6.102 1.899 2.506 2.987 5.863 2.434 9-.789 3.198-3.371 6.13-6.641 6.857-.842-.092-1.96.131-1.895 1.191-1.477 3.265-5.206 4.496-8.146 5.998-3.455 1.729-8.092 1.492-10.91-1.33-1.377-.339-.707 1.852-1.473 2.553-1.229 1.879-3.961 1.64-5.834 1.033 1.709-1.651.239-4.104-1.113-5.457-2.332-2.128-4.856-4.319-5.781-7.467-.988-3.239-1.196-6.75-.711-10.092.882-3.215 3.87-5.916 7.348-5.816 1.34-.225.093.463-.346.959-1.498 1.486-.562 3.841-.023 5.559 1.504 4.025 4.362 8.302 8.949 8.961 2.741.091 5.65.004 8.203-1.092 1.501-.502 1.192-2.294.699-3.424-.49-1.919-1.565-4.033-.67-5.994.432-.805 2.608-.764 1.676-1.926-1.267-.97-1.786-2.73-.924-4.135 1.393-2.537 3.326-5.053 6.014-6.283.508-.187 1.047-.297 1.59-.283zm103.205.031c2.372.325 3.904 2.52 5.451 4.135 1.093 1.465 2.702 3.511 1.531 5.342-.409.71-2.061 1.676-.795 2.275 1.354.232 2.328 1.482 1.887 2.871-.223 2.133-1.359 4.07-1.625 6.145 2.146 2.656 5.941 2.194 8.975 2.305 3.738.077 6.457-3.154 8.174-6.117 1.037-2.206 2.379-4.622 2.01-7.133-.319-.92-1.122-1.838-1.889-2.25 3.455-.135 7.043 1.998 7.982 5.471.799 2.966.359 6.173-.16 9.17-.572 3.26-2.885 5.754-5.221 7.922-1.239 1.446-3.317 3.072-2.766 5.211.1.522 1.292 1.172.117 1.273-1.986.646-5.167.331-5.668-2.1.025-.81-.062-2.349-1.197-1.396-2.542 2.045-6.039 2.787-9.145 1.697-3.447-1.289-7.049-2.758-9.385-5.75-.382-.947-.769-2.349-2.117-2.037-4.082-.878-7.382-5.044-6.877-9.283.301-3.25 1.638-6.742 4.715-8.305 2.199-1.247 4.881-3.063 4.861-5.875-.156-1.046-1.371-1.739-2.145-1.898.684-1.239 1.883-1.824 3.285-1.672zM235.723 194.58c4.316-.206 8.514 3.342 8.742 7.744.563 3.645-.781 7.977-4.289 9.664-1.139.253-2.402.635-2.807 1.889-1.454 2.552-4.51 3.907-7.385 3.34-5.027-.692-8.437-6.854-5.967-11.367 1.376-2.113 3.923-4.097 6.57-3.477 1.568.395 2.006 2.066 2.662 3.264 1.166-.214 1.49-1.814 1.732-2.861.146-2.091.697-4.839-1.391-6.195-.519-.504-1.453-.672-1.945-.959 1.227-.687 2.656-1.025 4.076-1.041zm129.494.102c1.116.064 2.212.343 3.16.967-2.048.486-3.826 2.299-3.564 4.514.203 1.837.002 4.174 1.545 5.461 1.193-.612 1.212-2.667 2.711-3.117 3.233-.973 6.627 1.724 7.498 4.725.44 2.654-.012 5.621-2.053 7.521-2.81 3.344-8.752 3.576-11.391-.121-.634-1.18-1.455-2.379-2.922-2.523-3.767-1.348-5.145-5.954-4.725-9.609.267-4.327 4.217-8.213 8.623-7.814.372-.021.745-.023 1.117-.002z" transform="scale(.26458333)" fill="url(#H)"/><g transform="matrix(.063207 0 0 .063207 47.013169 10.287216)" fill-rule="evenodd" stroke="#b11340" class="K L"><g fill="#fff" fill-opacity="0"><g class="M N"><path d="M454.074 453.931c0-9.375 25.935-16.974 57.926-16.974s57.926 7.599 57.926 16.974m-106.939 29.425c-2.664-2.818-4.136-5.295-4.136-6.9 0-.956.523-1.885 1.509-2.775m104.789 2.775c0 1.455-1.211 3.628-3.422 6.121"/><path d="M460.36 473.681c5.667-5.111 26.637-8.905 51.64-8.905 24.854 0 45.723 3.749 51.537 8.814"/></g><path d="M767.825 878.595c-2.662-19.093-16.41-21.006-16.41-21.006h-29.524-176.783-66.216-176.783-29.524s-13.702 1.907-16.396 20.911m16.017 10.46l35.508-.023 445.112.023"/><path d="M290.068 830.183v.033h-3.389s-13.212 4.57-13.328 16.88 9.9 10.493 28.253 10.493h204.905 10.982 69.214 135.691c18.353 0 28.369 1.816 28.253-10.493s-13.328-16.88-13.328-16.88h-3.389v-.033h-27.471-119.756-69.214-10.982-188.97z"/><path d="M304.504 807.242v.163c-7.024.373-11.084 2.154-14.012 11.373-3.62 11.395 7.592 11.405 7.592 11.405h6.42 12.774 162.738 63.968 162.738 12.774 6.42s11.212-.01 7.592-11.405c-2.928-9.219-6.988-11-14.012-11.373v-.163h-5.377-170.135-63.968-170.135z"/><path d="M318.109 784.301v.163c-7.024.373-11.084 2.154-14.012 11.373-3.62 11.395 7.592 11.405 7.592 11.405h6.42 12.774 135.528 91.178 135.528 12.774 6.42s11.212-.01 7.592-11.405c-2.928-9.219-6.988-11-14.012-11.373v-.163h-5.377-142.925-91.178-142.925z"/><path d="M343.471 784.301h-17.725s-16.236-2.4-10.038-15.542 8.333 4.738 28.46-46.474 29.967-92.585 29.967-92.585 4.886-52.328 50.019-62.563m256.375 217.164h17.725s16.236-2.4 10.038-15.542-8.333 4.738-28.46-46.474-29.967-92.585-29.967-92.585-4.917-52.652-50.438-62.656"/><path d="M319.884 763.577h384.232" class="N"/><g class="M N"><path d="M508.777 545.245h-83.018l-.247 20.42m173.005 1.1l-.244-21.52h-82.994m-89.785 21.933l-.256 21.212c32.633-32.439 82.657-31.928 86.778-31.838 4.193-.091 54.139-.575 86.746 31.838l-.245-21.625"/><path d="M506.916 545.245h1.762"/><path d="M518.029 545.245h53.409l8.147-16.065h-61.556-11.113-62.501l8.245 16.065h54.256"/></g><path d="M438.66 513.375h146.68v15.815H438.66z" class="M"/><g class="M N"><path d="M474.566 481.945c-4.748 1.008-8.624 2.206-11.365 3.536-1.264.384-2.325 1.066-3.128 2.02-.395.367-.554.762-.782 1.141-.078.151-.131.298-.196.456-.141.34-.488.662-.488 1.01 0 .122.145.237.163.358-.039.27-.163.503-.163.783v10.33c0 3.412 2.951 6.158 6.615 6.158h8.745m11.994-27.639l-.544.066m22.159-1.488c-7.807.138-15.13.638-21.615 1.422m52.832.09c-6.524-.817-13.931-1.345-21.845-1.502m32.489 29.051h9.309c3.663 0 6.647-2.747 6.647-6.158v-10.33c0-.28-.124-.513-.163-.783.018-.121.163-.236.163-.358 0-.348-.347-.67-.488-1.01l-.196-.424c-.231-.393-.403-.794-.815-1.173a6.45 6.45 0 0 0-3.161-2.053c-2.711-1.31-6.524-2.49-11.187-3.485m-33.592 25.774h26.214m-59.688 0h26.009"/><path d="M458.58 502.119h-5.073l-9.092 11.256h56.049 23.072 56.049l-9.092-11.256h-4.943"/></g><g class="M"><path d="M474.671 469.787l13.152 13.457v19.528l-13.152 10.603zm74.658 0l-13.152 13.457v19.528l13.152 10.603zm-37.337-.003l-6.566 13.452v19.532l6.566 10.607 6.582-10.607v-19.532zm-37.773-53.966h75.562c5.098 0 9.23 4.732 9.23 10.57h0c0 5.837-4.132 10.569-9.23 10.569h-75.562c-5.098 0-9.23-4.732-9.23-10.569h0c0-5.838 4.132-10.57 9.23-10.57z"/><path d="M485.228 387.735h53.544c6.569 0 11.894 6.287 11.894 14.042h0c0 7.755-5.325 14.041-11.894 14.041h-53.544c-6.569 0-11.894-6.286-11.894-14.041h0c0-7.755 5.325-14.042 11.894-14.042z"/><path d="M487.76 366.597h48.48a10.57 10.57 0 0 1 10.57 10.569h0a10.57 10.57 0 0 1-10.57 10.569h-48.48a10.57 10.57 0 0 1-10.57-10.569h0a10.57 10.57 0 0 1 10.57-10.569z"/><path d="M498.018 338.513h27.964c7.755 0 14.041 6.287 14.041 14.042h0c0 7.755-6.286 14.042-14.041 14.042h-27.964c-7.755 0-14.041-6.287-14.041-14.042h0c0-7.755 6.286-14.042 14.041-14.042z"/><path d="M497.126 317.375h29.748c4.865 0 8.809 4.732 8.809 10.569h0c0 5.837-3.944 10.569-8.809 10.569h-29.748c-4.865 0-8.809-4.732-8.809-10.569h0c0-5.837 3.944-10.569 8.809-10.569z"/><path d="M502.118 296.933h19.764c5.644 0 10.22 4.576 10.22 10.221h0c0 5.645-4.576 10.221-10.22 10.221h-19.764c-5.644 0-10.22-4.576-10.22-10.221h0c0-5.645 4.576-10.221 10.22-10.221z"/><path d="M504.796 278.242h14.408a9.35 9.35 0 0 1 9.345 9.346h0a9.35 9.35 0 0 1-9.345 9.345h-14.408a9.35 9.35 0 0 1-9.345-9.345h0a9.35 9.35 0 0 1 9.345-9.346z"/><path d="M507.327 260.72h9.346c4.839 0 8.761 3.922 8.761 8.761h0c0 4.839-3.922 8.761-8.761 8.761h-9.346c-4.839 0-8.761-3.922-8.761-8.761h0c0-4.839 3.922-8.761 8.761-8.761z"/><path d="M510.654 243.562h2.692a8.58 8.58 0 0 1 8.579 8.579h0a8.58 8.58 0 0 1-8.579 8.579h-2.692a8.58 8.58 0 0 1-8.579-8.579h0a8.58 8.58 0 0 1 8.579-8.579z"/><path d="M506.831 227.032h10.338c4.565 0 8.265 3.7 8.265 8.265h0c0 4.564-3.7 8.265-8.265 8.265h-10.338c-4.565 0-8.265-3.701-8.265-8.265h0c0-4.565 3.7-8.265 8.265-8.265z"/><g class="N"><path d="M522.53 212.283a10.92 10.92 0 0 1 .316 2.612c0 6.017-4.894 10.896-10.932 10.896s-10.931-4.879-10.931-10.896a10.88 10.88 0 0 1 .387-2.883m-.387.276s6.615-16.135 4.048-31.18-1.822-8.609 1.076-13.131 6.459-3.131 5.962-8.523"/><path d="M522.914 212.288s-6.614-16.135-4.047-31.18 1.821-8.609-1.077-13.131-6.459-3.131-5.962-8.523m.172-1.31v-47.005"/><path d="M504.872 154.269h14.832"/><path d="M519.704 154.269s1.326-12.049 15.534-15.741m-30.942 15.741s-1.326-12.049-15.534-15.741m18.704-4.266h9.434"/><path d="M516.9 134.262s.844-7.664 9.881-10.012M507.1 134.262s-.844-7.664-9.881-10.012m67.889 349.682c4.162.001 7.552-2.571 7.552-5.764v-9.67c0-.262-.141-.479-.185-.732.02-.113.185-.221.185-.335 0-.326-.394-.627-.555-.946l-.222-.396c-.263-.368-.458-.743-.926-1.099-.925-.904-2.128-1.567-3.591-1.921-4.303-1.713-11.049-3.188-19.458-4.287"/><path d="M547.908 448.782c-10.044-1.313-22.462-2.088-35.927-2.088-24.769 0-45.997 2.639-55.421 6.405-1.437.36-2.642.999-3.554 1.891-.449.343-.63.713-.889 1.068-.088.142-.149.279-.222.427-.161.319-.555.62-.555.946 0 .114.165.222.185.335-.044.253-.185.47-.185.732v9.67c0 3.193 3.353 5.764 7.515 5.764M196.872 520.45s-10.852 3.946-9.724 14.939 14.939 51.019 44.958 50.455 31.57-5.215 35.234-9.866"/><path d="M196.872 520.45s-40.025-3.664-37.207 42.844 24.805 46.791 32.979 60.884 1.41 14.657-.422 17.617c0 0 32.415 11.557 27.2-19.026 0 0 16.63 23.113 46.65 11.275s39.884-22.973 38.334-33.12c0 0 3.664 6.201 17.476-2.678s20.576-24.1 17.758-37.771-5.497-25.086-22.409-33.542-25.791-28.187-7.892-30.442c0 0-10.711-21.14-33.543 4.651s-9.583 29.737.141 37.489c0 0-20.717-5.215-14.657 16.066s7.047 30.865 32.838 30.442 9.724-42.985-4.369-20.295"/><path d="M187.148 535.389s-14.798 25.368 16.207 56.374 75.754 16.357 82.299-6.927m-15.818-285.403c-10.963.211-9.487 23.402 10.12 21.505s34.786-32.468 8.644-52.075-41.112-7.168-41.112-7.168c12.228-3.162 16.445 12.439-4.849 23.824s-16.866 31.202-16.866 31.202c-6.325-2.53-23.191-2.319-43.641 8.012s-9.909 41.954-9.909 41.954c-25.088 2.952-27.618 22.77-32.467 43.431s13.493 32.256 13.493 32.256c-10.963 12.65-2.53 55.237 43.43 60.718s37.257-33.689 37.257-33.689-17.839 18.83-33.497-12.091-5.748-88.995 45.984-96.527 37.66 20.812 31.515 26.361c0 0 34.291 3.568 38.453-19.821s6.541-43.011-22.199-49.948"/><path d="M233.936 469.403s-19.126 26.521-44.636 1.644-14.758-60.929-10.752-72.947 24.542-67.813 82.433-59.453 41.504 56.941 16.957 48.499"/></g><path d="M304.617 397.757s6.053 26.887 33.363 13.655 45.75-43.921 18.018-56.027 8.587-52.789 34.77-33.925 46.314 53.492 12.388 73.2c0 0 14.922 13.514-1.126 34.348s-42.372 22.664-50.677 16.47c0 0 3.378 9.15-15.767 12.529s-62.501-28.014-30.969-60.25z"/><g class="N"><path d="M304.617 397.757s-11.543 19.849 20.271 29.984 53.493-20.412 58.42-30.266 1.407-60.812-27.31-42.09m67.605-102.59s0 19.262-17.319 11.816-22.337-35.933 11.815-39.332 53.091 62.316 1.619 70.733-71.38-28.811-55.194-48.234c0 0-21.528 9.226-25.412-14.73 0 0 10.035 6.151 12.948-7.284s-.647-51.471 35.448-52.928c0 0-11.978-5.018-9.388-11.978 0 0 10.683 3.399 21.851-12.301s73.932-30.496 84.006 25.574c0 0-76.441-21.322-74.396 52.707"/><path d="M393.096 241.998s-20.803-9.921 2.019-46.987 61.223-37.518 88.862-20.88M231.695 699.136c-1.838-28.476-40.395-13.893-41.478 11.149s20.034 39.662 38.985 36.819 23.688-20.44 23.688-20.44c28.427 0 37.09-47.783 15.432-66.057s-43.722-4.196-43.722-4.196 17.055 1.353 15.972 19.763-3.113 22.47-16.243 25.177c0 0-22.064 5.55-5.55 19.899s31.404-16.921 33.029-20.846 15.837-39.256-27.208-43.993M827.128 520.45s10.852 3.946 9.724 14.939-14.939 51.019-44.958 50.455-31.57-5.215-35.234-9.866"/><path d="M827.128 520.45s40.025-3.664 37.207 42.844-24.805 46.791-32.979 60.884-1.41 14.657.422 17.617c0 0-32.415 11.557-27.2-19.026 0 0-16.63 23.113-46.65 11.275s-39.884-22.973-38.334-33.12c0 0-3.664 6.201-17.476-2.678s-20.576-24.1-17.758-37.771 5.497-25.086 22.409-33.542 25.791-28.187 7.892-30.442c0 0 10.711-21.14 33.543 4.651s9.583 29.737-.141 37.489c0 0 20.717-5.215 14.657 16.066s-7.047 30.865-32.838 30.442-9.724-42.985 4.369-20.295"/><path d="M836.852 535.389s14.798 25.368-16.207 56.374-75.754 16.357-82.299-6.927m15.818-285.403c10.963.211 9.487 23.402-10.12 21.505s-34.786-32.468-8.644-52.075 41.112-7.168 41.112-7.168c-12.228-3.162-16.445 12.439 4.849 23.824s16.866 31.202 16.866 31.202c6.325-2.53 23.191-2.319 43.641 8.012s9.909 41.954 9.909 41.954c25.088 2.952 27.618 22.77 32.467 43.431s-13.493 32.256-13.493 32.256c10.963 12.65 2.53 55.237-43.43 60.718s-37.257-33.689-37.257-33.689 17.839 18.83 33.497-12.091 5.748-88.995-45.984-96.527-37.66 20.812-31.515 26.361c0 0-34.291 3.568-38.453-19.821s-6.541-43.011 22.199-49.948"/><path d="M790.064 469.403s19.126 26.521 44.636 1.644 14.758-60.929 10.752-72.947-24.542-67.813-82.433-59.453-41.504 56.941-16.957 48.499"/></g><path d="M719.383 397.757s-6.053 26.887-33.363 13.655-45.75-43.921-18.018-56.027-8.587-52.789-34.77-33.925-46.314 53.492-12.388 73.2c0 0-14.922 13.514 1.126 34.348s42.372 22.664 50.677 16.47c0 0-3.378 9.15 15.767 12.529s62.501-28.014 30.969-60.25z"/><g class="N"><path d="M719.383 397.757s11.543 19.849-20.271 29.984-53.493-20.412-58.42-30.266-1.407-60.812 27.31-42.09m-67.605-102.59s0 19.262 17.319 11.816 22.337-35.933-11.815-39.332-53.091 62.316-1.619 70.733 71.38-28.811 55.194-48.234c0 0 21.528 9.226 25.412-14.73 0 0-10.035 6.151-12.948-7.284s.647-51.471-35.448-52.928c0 0 11.978-5.018 9.388-11.978 0 0-10.683 3.399-21.851-12.301s-73.932-30.496-84.006 25.574c0 0 76.441-21.322 74.396 52.707"/><path d="M630.904 241.998s20.803-9.921-2.019-46.987-61.223-37.518-88.862-20.88m252.282 525.005c1.838-28.476 40.395-13.893 41.478 11.149s-20.034 39.662-38.985 36.819-23.688-20.44-23.688-20.44c-28.427 0-37.09-47.783-15.432-66.057s43.722-4.196 43.722-4.196-17.055 1.353-15.972 19.763 3.113 22.47 16.243 25.177c0 0 22.064 5.55 5.55 19.899s-31.404-16.921-33.029-20.846-15.837-39.256 27.208-43.993"/></g><path d="M38.09 513.375c0-261.733 212.177-473.91 473.91-473.91s473.91 212.177 473.91 473.91S773.733 987.285 512 987.285 38.09 775.108 38.09 513.375z"/><g class="N"><path d="M401.056 944.718c-16.62-4.207-32.873-9.337-48.699-15.333m7.741-846.127c33.075-11.837 67.938-19.918 104.073-23.73M227.668 158c27.956-22.755 58.693-42.226 91.623-57.823M132.059 265.156c18.306-28.61 39.755-55.016 63.86-78.731M74.054 400.732a447.64 447.64 0 0 1 39.699-104.254M62.798 545.087c-1.01-12.313-1.525-24.766-1.525-37.34 0-22.251 1.612-44.126 4.727-65.513m28.457 235.571a447.46 447.46 0 0 1-26.825-94.183m77.016 185.352a450.7 450.7 0 0 1-35.309-58.478m110.444 140.43a453.4 453.4 0 0 1-59.22-60.936m165.452 128.445a450.47 450.47 0 0 1-84.035-49.762m380.991 76.036c16.608-4.205 32.849-9.332 48.665-15.324m-7.741-846.127c-33.075-11.837-67.938-19.918-104.073-23.73M796.325 158c-27.956-22.755-58.694-42.226-91.623-57.823m187.232 164.979c-18.306-28.61-39.755-55.016-63.86-78.731m121.865 214.307a447.62 447.62 0 0 0-39.699-104.254m50.955 248.609c1.01-12.313 1.525-24.766 1.525-37.34a454.5 454.5 0 0 0-4.727-65.513m-28.457 235.571a447.4 447.4 0 0 0 26.825-94.183m-77.016 185.352a450.7 450.7 0 0 0 35.309-58.478M804.21 850.926a453.4 453.4 0 0 0 59.22-60.936M697.978 918.435a450.47 450.47 0 0 0 84.035-49.762"/><path d="M354.732 960.565s-43.781-19.784-22.73-61.38c0 0 .346 23.232 21.101 30.475m-104.455-22.234s-52.246-37.074-16.11-87.63c0 0-4.946 30.901 9.127 48.636m-89.595-46.769s-28.151-47.379 10.873-76.061c0 0-14.716 30.515 1.249 48.837m-73.221-63.324s-21.594-37.478 21.804-74.676c0 0-17.773 28.207-2.792 55.319M47.655 608.567s-13.98-84.085 71.762-86.563c0 0-63.866 19.752-49.497 74.033M41.914 452.892s4.462-62.602 70.548-58.697c0 0-45.652 2.922-48.373 62.935m28.36-164.338s30.422-46.223 84.406-21.783c0 0-48.363-9.126-67.187 33.355m79.178-137.632s59.043-29.401 97.157 19.431c0 0-57.293-33.225-96 6.196M312.238 83.502s44.454-24.79 87.431 34.705c0 0-37.135-40.779-89.465-13.592m359.068 855.95s43.781-19.784 22.729-61.38c0 0-.345 23.232-21.1 30.475m104.455-22.234s52.246-37.074 16.11-87.63c0 0 4.946 30.901-9.127 48.636m89.595-46.769s28.151-47.379-10.874-76.061c0 0 14.717 30.515-1.248 48.837m73.221-63.324s21.593-37.478-21.804-74.676c0 0 17.772 28.207 2.791 55.319m62.329-103.191s13.979-84.085-71.762-86.563c0 0 63.866 19.752 49.497 74.033m28.006-143.145s-4.462-62.602-70.548-58.697c0 0 45.652 2.922 48.372 62.935m-28.359-164.338s-30.422-46.223-84.406-21.783c0 0 48.363-9.126 67.186 33.355"/><path d="M835.158 166.732s-59.044-29.401-97.157 19.431c0 0 57.293-33.225 95.999 6.196M711.766 83.502s-44.454-24.79-87.431 34.705c0 0 37.135-40.779 89.465-13.592M444.525 62.041s27.067-4.485 39.089-2.277 27.724 12.635 28.46 29.932c0 0-.224-54.546-65.128-45.797"/><path d="M580.584 62.041s-27.067-4.485-39.089-2.277-27.723 12.635-28.459 29.932c0 0 .223-54.546 65.127-45.797"/></g><path d="M21.869 511.585C21.869 240.893 241.308 21.454 512 21.454s490.13 219.439 490.13 490.131S782.692 1001.72 512 1001.72 21.869 782.277 21.869 511.585z"/><g class="N"><path d="M481.257 679.167c7.788-3.922 18.936-6.377 31.315-6.377 13.365 0 25.294 2.862 33.111 7.341"/><path d="M481.257 666.07v13.44m64.426-12.819v13.44"/></g><path d="M511.872 639.196c-9.19 5.445-13.19 10.462-14.486 14.16-4.353-6.282-14.54-11.035-14.54-11.035.252 2.815-4.043 6.996-7.416 13.329-2.359 4.428 2.226 7.998 5.247 9.806 7.642-3.784 19.046-6.255 31.982-6.255 12.251 0 23.157 2.211 30.781 5.654 3.022-1.831 7.459-5.351 5.13-9.724-3.374-6.333-7.668-10.514-7.417-13.329 0 0-9.789 4.509-14.305 10.571-3.339-7.471-14.976-13.177-14.976-13.177zm-15.888-28.526c1.145 6.209-5.905 8.375-6.387 20.008s14.273 8.44 14.273 8.44c4.268-.828 6.755-2.251 8.081-3.975 1.302 1.773 3.825 3.228 8.179 4.073 0 0 14.756 3.193 14.273-8.44s-7.532-13.8-6.387-20.008c0 0-12.172 8.813-16 16.782-3.773-7.995-16.032-16.88-16.032-16.88zm3.747-18.696c-5.299 11.289 5.572 12.644 5.572 12.644l5.964.261v.065l.749-.033.717.033v-.065l5.964-.261s10.871-1.354 5.572-12.644c-9.123-20.125-9.766-26.729-12.477-56.569-2.426 30.23-2.463 36.188-12.061 56.569z"/><g class="N"><path d="M459.841 665.456s-4.234 10.836 5.024 26.983-.503 33.012-4.235 31.361c0 0 9.002-.85-2.407-12.227s-7.757-5.721-7.757-5.721 3.878 9.244 2.683 17.453 8.759 15.773 19.651 8.856 8.566-28.072 5.836-50.61m-18.798-15.931s1.12 13.99 18.798 15.931"/><path d="M472.8 732.161l-16.908 14.622s-13.522-.431-16.974-13.234-28.411-12.084-32.654.431-15.68 1.223-17.766-1.438-6.113-1.223-8.919 1.51c0 0 2.302-8.343 8.991-7.768s14.673 15.105 21.722-5.61 34.811-5.826 31.719 3.525 13.378 21.074 21.793 11.795m100.355-70.538s4.234 10.836-5.024 26.983.503 33.012 4.235 31.361c0 0-9.002-.85 2.407-12.227s7.757-5.721 7.757-5.721-3.878 9.244-2.683 17.453-8.759 15.773-19.651 8.856-8.566-28.072-5.836-50.61m18.798-15.931s-1.12 13.99-18.798 15.931m5.836 50.61l16.908 14.622s13.522-.431 16.974-13.234 28.411-12.084 32.654.431 15.68 1.223 17.766-1.438 6.113-1.223 8.919 1.51c0 0-2.302-8.343-8.991-7.768s-14.673 15.105-21.722-5.61-34.811-5.826-31.719 3.525-13.378 21.074-21.793 11.795m-48.94-5.476c4.644-3.225 10.357-5.531 18.43-.118 0 0-1.264-8.531-10.265-9.552s-15.421 15.482.061 19.502 12.42 2.28 14.161 5.76c0 0-5.341-11.1-20.282 1.56 0 0-5.64 3.121-5.46 7.921 0 0 .78-2.1-4.981-6.24s-14.341-15.782-12.241-19.682c0 0 1.861-5.04 20.162-13.441s5.22-9.841 1.26-11.941l3.9-6.3-5.46-4.501s4.32-1.26 5.04-6.36-4.2-10.141-4.2-10.141 13.827 7.614 1.783 14.908"/><path d="M508.1 717.521s9.282-3.694 2.142-7.894-.759-1.11 1.86-5.341m-12.816 18.005s-7.466 4.137 4.775 14.878 8.635 9.662 14.181 6.965m-42.57 203.914s5.232 10.464-11.51 12.408-30.495-37.371 5.531-40.062 62.174 55.734 22.265 66.599m-28.914-1.873s-68.84-6.428-64.954-65.623c0 0-1.046 25.562 14.5 25.861s18.02-10.168 34.572-2.991m101.166 5.285s-5.232 10.463 11.51 12.407 30.495-37.371-5.531-40.062-62.174 55.734-22.265 66.599m28.914-1.873s68.84-6.427 64.954-65.623c0 0 1.046 25.562-14.5 25.861s-18.02-10.168-34.572-2.991m-104.273-23.714c6.698-15.147 21.754-25.704 39.254-25.704 17.823 0 33.111 10.951 39.616 26.548m-52.482 11.425c2.216-5.012 7.197-8.504 12.987-8.504 5.897 0 10.955 3.623 13.107 8.783m-186.245-12.153h133.763"/><path d="M551.435 918.651h133.763M491.953 637.215l-4.019 7.926"/><path d="M531.411 637.815l3.034 7.807m-30.998-28.706s1.318-10.353 1.856-12.298"/><path d="M520.154 617.377l-1.457-12.759"/></g></g></g><path d="M438.918 733.549l3.093-9.35m139.978 0l3.093 9.35" fill="none" class="M N"/></g><path d="M300.354 48.248l-8.924.328c-.506.035-.632.812-.148.988 1.544.435 3.079.991 4.357 2 2.087 1.568 3.425 3.975 3.996 6.494.164.46.866.404.979-.059.549-1.978 1.41-3.957 2.898-5.436 1.355-1.433 3.186-2.399 5.092-2.889.411-.05.781-.519.482-.895-.338-.361-.906-.202-1.348-.287l-7.385-.246zm-9.84 4.723c-8.209.692-16.375 2.283-24.205 4.855-.839.187-2.76.94-1.271 1.727 2.962 1.853 5.477 4.453 7.703 7.068-4.298-3.972-10.5-5.986-16.26-4.551-4.104 1.096-7.758 3.419-11.445 5.457-4.021 2.556-8.173 5.026-11.738 8.201-.599 1.129 1.083 1.161 1.783 1.148 4.126.635 7.955 2.897 10.561 6.168-5.215-2.443-11.424-3.872-17.014-1.863-5.076 2.063-8.424 6.685-11.891 10.701-2.381 3.093-5.004 6.067-6.936 9.465.034 1.248 1.691.565 2.482.635 2.384-.011 4.765.528 6.955 1.459-4.337-.213-9.074.524-12.264 3.736-2.88 2.695-4.04 6.621-5.785 10.049-2.317 5.321-4.214 10.848-5.574 16.486.327 1.152 1.74.155 2.518.053a20.51 20.51 0 0 1 5.307-.576c-4.889 1.056-8.61 5.248-9.711 10.037-1.45 7.061-1.404 14.332-1.367 21.51.132 1.242-.028 2.581.408 3.742 1.174.132 1.821-1.416 2.9-1.838 2.948-1.83 6.283-2.83 9.773-2.881-4.661 2.072-9.5 5.246-11.068 10.385-1.223 4.214.36 8.57 1.24 12.689 1.226 4.408 2.41 8.89 4.33 13.049 1.034.616 1.52-1.058 2.193-1.596.61-.652 1.59-1.804 2.129-2.115-1.82 3.734-2.565 8.298-.586 12.131 2.243 4.879 5.15 9.484 8.246 13.824 1.074.125 1.198-1.567 1.932-2.225.679-.843 1.719-2.126 2.467-2.539-1.25 3.55-2.112 7.964.461 11.164 3.599 4.421 7.761 8.359 11.807 12.367.429.668 1.596 1.211 1.842.127.546-2.063 1.334-4.001 2.566-5.748.24 3.855-.319 8.509 2.84 11.387.917.654 1.792 1.865 2.932 1.832.648-1.291 1.018-2.853 2.281-3.764.61-.887 2.48-.586 2.4-1.887-1.294-2.272.857-5.364 3.303-5.566 1.041-.592-.201-1.904.387-2.775.343-1.485 1.599-2.452 2.979-2.855.726-1.116-.217-2.688.766-3.791.625-1.074 2.024-1.219 2.822-2.043-.28-.863-1.196-1.649-.709-2.695.445-1.94 2.684-2.507 3.484-4.25 3.056-5.307 4.855-11.225 6.904-16.967 1.887-5.368 3.225-10.899 4.668-16.393 1.397-5.162 5.427-9.668 10.662-11.049 1.047-.954.602-2.654.803-3.928-.565-1.823 1.34-1.159 2.494-1.256 1.103-.155 2.451.283 3.41-.352.021-1.173-.815-2.303-1.469-3.26-.436-.621-1.698-.074-1.359-1.137.283-.794-.687-2.757.34-2.854 1.747-.033 2.061-2.386 3.559-2.752 1.426-.316.552-2.181.975-3.174.682-.725 1.039-1.532.223-2.395-.414-1.464-2.605-1.852-2.189-3.633-.062-2.05 1.191-4.024 3.188-4.621.8-.574 2.458-.306 2.561-1.437-1.021-.611-2.354-1.335-2.318-2.744-.161-1.42.985-3.002 2.543-2.684 1.274-.624-.691-1.586-.559-2.557-.351-1.564.51-3.003 1.643-3.988.362-1.091-1.224-1.843-.775-3.035.183-1.469 1.702-2.016 2.861-2.441-.081-1.097-1.542-1.866-1.268-3.174-.034-1.505 1.355-2.389 2.037-3.508-1.045-1.101-1.426-3.098-.16-4.215.791-.413.978-1.398.293-2-.69-1.341.219-2.777 1.275-3.562-.053-.967-1.208-2.079-.457-3.154.483-.732 1.788-1.24.859-2.227-.795-1.056-.153-2.322.768-3.021.642-1.019-.901-2.104-.031-3.154.706-.878-.319-1.515-.805-2.125-.684-1.11.079-2.482 1.195-2.926.739-.96-.968-1.563-.816-2.596-.145-1.997.988-3.836.916-5.85.17-1.652-.166-3.357-.377-4.934.568-.886 1.646-1.536 1.881-2.572.231 1.174 1.691 1.712 2.006 2.689-.754 3.179-.43 6.465.398 9.588.351 1.209-.426 2.226-.893 3.24.094.812 1.277.846 1.506 1.697.761 1.318-1.004 2.004-1.209 3.111.413.925.678 2.081-.014 2.967-.234 1.152 1.529 1.493 1.334 2.717.038.956-1.193 2.101.039 2.783 1.002.883.763 2.331.105 3.318.08 1.195 1.73 1.77 1.477 3.133-.046 1.075-1.584 2.233.033 2.863 1.238 1.085.903 2.942-.006 4.104.006 1.203 1.677 1.616 1.715 2.9.486 1.381-.442 2.591-.98 3.729.8.747 2.364.879 2.609 2.234.489 1.208-.59 2.184-.814 3.254 1.374 1.008 2.272 2.794 1.666 4.502-.227.67-1.221 1.961.014 2.205 1.981.149 3.103 3.194 1.279 4.424-.512.552-2.167.781-1.193 1.65 2.121.48 4.348 1.469 5.186 3.645.168 1.129.494 2.594-.23 3.578-.478.494-1.53.524-1.445 1.418-.327.695-1.432 1.771-.289 2.309.985 1.002-.039 2.801 1.102 3.611 1.657.417 2.063 3.07 4.037 2.82-.214 1.105.275 2.867-.381 3.559-1.595.189-1.794 2.212-2.549 3.297.185 1.417 2.422.462 3.479.785 1.411.01 3.222-.381 2.605 1.664.232 1.127-.389 2.699.484 3.516 5.436 1.034 9.389 5.77 10.912 10.918 1.311 5.165 2.55 10.36 4.299 15.404 2.143 6.205 4.17 12.536 7.43 18.264 1.105 1.754 3.815 2.745 3.342 5.211-.236.746-1.046 2.064.314 2.213 1.547.191 2.278 2.135 2.424 3.5-.17.674-.558 1.795.527 1.854 1.8.41 2.993 2.432 2.619 4.188-.556.642.047 1.465.828 1.305 2.425.528 3.85 3.336 2.877 5.592.313 1.196 1.979 1.094 2.631 2.08 1.092.893 1.411 2.321 1.99 3.488 1.367-.335 2.568-1.498 3.588-2.51 2.479-3.003 1.81-7.208 2.176-10.779 1.281 1.721 1.935 3.772 2.645 5.754.914 1.088 2.125-.53 2.824-1.09 4.085-3.867 8.191-7.812 11.471-12.402 1.217-2.041.764-4.564.68-6.82-.152-1.128-.622-2.176-.924-3.266 1.677 1.207 2.905 2.941 3.889 4.699 1.293.049 1.682-2.116 2.574-2.982 2.539-4.088 5.243-8.165 6.971-12.676.584-3.452.298-7.222-1.404-10.314 1.389 1.117 2.434 2.617 3.645 3.875 1.228.141 1.217-1.667 1.691-2.428 2.206-6.231 4.094-12.629 5.049-19.18.476-5.631-3.596-10.571-8.336-13.086-1.05-.599-2.171-1.055-3.268-1.557 4.092.137 8.244 1.311 11.41 4 .476.553 1.607.633 1.523-.34.528-7.821.196-15.719-.977-23.469-.857-5.192-5.006-9.823-10.186-10.793 2.555-.037 5.098.421 7.57 1.068 1.118-.456.059-1.916.01-2.76-2.297-7.766-5.062-15.493-9.227-22.471-2.622-3.928-7.494-5.713-12.084-5.547-.394-.07-2.452.203-1.527-.199 2.857-1.184 6.027-1.172 9.031-1.307.702-1-1.069-2.077-1.453-3.074-4.046-5.666-8.401-11.223-13.699-15.775-2.586-1.99-5.868-3.05-9.137-2.748-3.636-.204-7.186.78-10.455 2.307-1.125.58-.768.055-.057-.586 2.757-3.028 6.646-4.9 10.699-5.316.876.034 1.135-1.041.383-1.453-5.051-4.003-10.566-7.422-16.225-10.498-4.308-2.374-9.386-4.134-14.307-2.715-3.091.785-6.013 2.287-8.395 4.414 2.173-3.007 5.065-5.479 8.217-7.357.223-1.102-1.603-1.04-2.348-1.467-8.079-2.495-16.442-4.484-24.934-4.594-3.996-.15-7.681 3.237-8.211 7.064-.384-2.612-2.038-5.045-4.502-6.139-1.579-.767-3.354-1.081-5.102-1.033zm9.428 16.408c-.055.585.115 1.498.447 1.732-.468.257-.344 1.65-.408 1.316.111-.725-.452-1.304-.094-1.932.016-.16.041-1.412.055-1.117zm-17.707 1.711c4.139-.168 8.433 2.097 9.965 6.072.364.967.971 2.202.893 3.117-4.31-.736-9.114-.974-12.937 1.521-3.418 2.293-4.957 6.78-4.521 10.736 1.305.722 3.197-.099 4.662.586 2.737 1.159 4.613 4.027 4.998 6.906.122 2.193.128 4.621-1.477 6.334-2.645 3.275-7.205 3.551-11.09 3.369-3.629-.344-7.572-2.373-8.811-5.996-.603-1.531-.345-3.186.143-4.691-.453-1.258-2.214-.27-3.109-1.021-1.207-.56-2.084-2.177-2.008-3.289 1.485.712 2.979-.7 2.902-2.207.641-3.709.664-8.215 3.809-10.809.969-.903 2.44-.881 3.449-1.627.278-.992-1.599-1.76-.867-2.672 2.56.099 4.197-2.086 5.848-3.682 2.254-1.89 5.257-2.654 8.152-2.648zm35.246.033c3.681-.042 7.644.982 9.916 4.09 1.067 1.367 2.882 2.338 4.529 2.24.326 1.066-1.04 1.592-.928 2.539.475.812 1.701.493 2.365 1.166 3.497 1.778 4.146 6.111 4.527 9.611.284 1.437.198 3.792 2.016 4.158.533.167 1.657-.731 1.197.311-.378 2.016-2.334 3.381-4.365 3.156-1.642.042-.286 1.636-.334 2.59.454 4.312-3.539 7.749-7.486 8.459-3.941.622-8.5.609-11.73-2.059-3.788-3.154-3.284-9.384.146-12.604a5.86 5.86 0 0 1 5.221-1.943c1.671.487 2.49-.595 1.9-2.162-.316-3.874-2.077-8.112-5.951-9.611-3.632-1.762-7.835-1.39-11.689-.734.578-3.899 3.221-7.522 7.051-8.738 1.156-.423 2.397-.473 3.615-.469zm-17.523 3.758c-.163.609 1.054.751.242.969-.318.834-.293-.15-.881-.195.417-.012.644-.704.639-.773zm1.951.311c.047-.05.064-.049-.019.133-.075.492-.847.299-.148.039.043-.022.121-.122.168-.172zm-61.912 25.369c3.553.236 6.988 2.302 8.984 5.232 1.049 1.852.837 4.28.23 6.195-.184.988-1.686 1.535-1.289 2.588 1.446.778 3.229 1.177 4.354 2.516 1.846 1.988 1.359 4.991 1.262 7.467-.09 2.451-1.21 5.059-3.658 5.959-1.8.614-3.757 1.112-5.682.871 1.115-1.444 2.29-3.913.604-5.387-2.16-1.757-5.159-1.143-7.719-1.004-4.63.443-9.036 3.16-11.129 7.375-2.505 4.875-2.751 11.012-.33 15.965 1.081 2.169 3.292 4.681 5.992 3.885.717-.116 1.41-.837 1.959-.961.484 2.805-.593 6.097-3.439 7.232-4.862 1.435-10.558.098-14.027-3.717-2.164-2.369-3.393-5.954-2.381-9.088.933-1.235-.6-2.143-1.279-2.998-2.406-2.954-1.156-6.995-.189-10.256.694-2.58 2.509-4.953 5.191-5.629.932-.191 1.462-1.025 1.039-1.914-.412-2.834-.422-6.463 2.387-8.119 3.077-1.808 6.704-2.637 10.264-2.455 1.043-.645.324-2.334.984-3.352.89-2.515 3.454-3.598 5.393-5.123 1.063-.929 2.572-2.824 1.266-4.133-.378-.425-1.365-.345-1.551-.449.831-.48 1.813-.677 2.766-.701zm120.008.076c.955.027 1.986.081 2.793.654-1.259-.335-2.286.842-1.982 2.045.614 2.693 3.688 3.54 5.48 5.297 1.677 1.315 1.991 3.521 2.322 5.447 1.177.536 2.769.037 4.092.438 2.732.605 5.919 1.296 7.863 3.566 1.711 2.44.885 5.64.838 8.348 1.794.599 3.843 1.196 4.859 2.979 1.681 2.86 2.589 6.211 2.697 9.494.075 2.322-1.655 4.06-3.006 5.688.383 1.37.888 2.969.578 4.406-.587 5.385-5.614 9.404-10.773 9.875-2.747.357-6.136.416-8.039-1.902-1.391-1.562-1.325-3.814-1.205-5.766 1.292.961 3.057 1.703 4.582.775 2.91-1.695 4.227-5.177 4.771-8.346.327-3.806.152-7.828-1.834-11.207-2.437-5.049-8.167-7.814-13.635-7.574-2.024-.019-4.942-.21-5.875 2.059-.555 1.569.516 3.252 1.102 4.477-2.658.134-5.673-.38-7.633-2.326-1.586-2.147-1.644-4.965-1.773-7.527-.13-2.507 1.26-5.003 3.613-5.977.688-.495 2.66-.513 2.041-1.828-1.821-2.23-2.367-5.531-.785-8.043 1.493-2.333 4.042-3.861 6.559-4.785.758-.189 1.547-.267 2.35-.266zm-27.525 13.99c3.148-.019 6.441 2.292 6.998 5.469.337 1.692-.887 3.126-2.393 3.695-2.236.916-3.81 3.468-2.859 5.848 1.356 3.703 4.687 6.468 8.254 7.953 2.043.729 4.731.614 5.982-1.439.503-.622.832-1.354 1.174-2.07 1.53 1.725 2.743 3.913 2.354 6.297-.277 3.274-3.167 5.681-5.875 7.014-2.413 1.251-5.865 1.169-7.633-1.084-.45-1.357-1.941-.086-2.873-.314-3.695-.033-7.167-1.972-9.373-4.9-1.813-2.023-2.225-5.248-.602-7.512-.256-1.353-1.912-2.076-2.658-3.268-1.965-2.543-1.142-6.152.496-8.656 1.824-2.791 4.135-5.531 7.303-6.803.554-.157 1.13-.225 1.705-.229zm-65.057.045c2.905-.265 4.95 2.199 6.83 4.004 2.454 2.587 4.678 6.219 3.65 9.902-.652 1.775-1.901 3.247-3.459 4.303-.432 1.134 1.095 2.14.928 3.389.172 4.197-3.411 7.575-7.08 8.975-1.974.792-4.16.821-6.211.424-.718.243-.607 1.322-1.498 1.516-3.187 2.192-7.451.58-9.93-1.951-2.359-2.04-3.643-5.601-2.076-8.498.452-.913 1.152-2.208 1.904-2.619.583 2.163 2.613 4.257 5.031 3.879 3.861-.497 7.138-3.213 9.328-6.305 1.5-2.141 1.732-5.717-.793-7.205-1.563-.859-3.738-1.896-3.566-4.021.347-2.952 3.13-5.36 5.99-5.764.317-.021.634-.022.951-.027zm-18.697 41.021c1.089-.025 2.388.767 2.602 1.787-1.538.162-2.728 1.858-1.873 3.299 1.29 2.982 4.613 4.023 6.826 6.102 1.899 2.506 2.987 5.863 2.434 9-.789 3.198-3.371 6.13-6.641 6.857-.842-.092-1.96.131-1.895 1.191-1.477 3.265-5.206 4.496-8.146 5.998-3.455 1.729-8.092 1.492-10.91-1.33-1.377-.339-.707 1.852-1.473 2.553-1.229 1.879-3.961 1.64-5.834 1.033 1.709-1.651.239-4.104-1.113-5.457-2.332-2.128-4.856-4.319-5.781-7.467-.988-3.239-1.196-6.75-.711-10.092.882-3.215 3.87-5.916 7.348-5.816 1.34-.225.093.463-.346.959-1.498 1.486-.562 3.841-.023 5.559 1.504 4.025 4.362 8.302 8.949 8.961 2.741.091 5.65.004 8.203-1.092 1.501-.502 1.192-2.294.699-3.424-.49-1.919-1.565-4.033-.67-5.994.432-.805 2.608-.764 1.676-1.926-1.267-.97-1.786-2.73-.924-4.135 1.393-2.537 3.326-5.053 6.014-6.283.508-.187 1.047-.297 1.59-.283zm103.205.031c2.372.325 3.904 2.52 5.451 4.135 1.093 1.465 2.702 3.511 1.531 5.342-.409.71-2.061 1.676-.795 2.275 1.354.232 2.328 1.482 1.887 2.871-.223 2.133-1.359 4.07-1.625 6.145 2.146 2.656 5.941 2.194 8.975 2.305 3.738.077 6.457-3.154 8.174-6.117 1.037-2.206 2.379-4.622 2.01-7.133-.319-.92-1.122-1.838-1.889-2.25 3.455-.135 7.043 1.998 7.982 5.471.799 2.966.359 6.173-.16 9.17-.572 3.26-2.885 5.754-5.221 7.922-1.239 1.446-3.317 3.072-2.766 5.211.1.522 1.292 1.172.117 1.273-1.986.646-5.167.331-5.668-2.1.025-.81-.062-2.349-1.197-1.396-2.542 2.045-6.039 2.787-9.145 1.697-3.447-1.289-7.049-2.758-9.385-5.75-.382-.947-.769-2.349-2.117-2.037-4.082-.878-7.382-5.044-6.877-9.283.301-3.25 1.638-6.742 4.715-8.305 2.199-1.247 4.881-3.063 4.861-5.875-.156-1.046-1.371-1.739-2.145-1.898.684-1.239 1.883-1.824 3.285-1.672zM235.723 194.58c4.316-.206 8.514 3.342 8.742 7.744.563 3.645-.781 7.977-4.289 9.664-1.139.253-2.402.635-2.807 1.889-1.454 2.552-4.51 3.907-7.385 3.34-5.027-.692-8.437-6.854-5.967-11.367 1.376-2.113 3.923-4.097 6.57-3.477 1.568.395 2.006 2.066 2.662 3.264 1.166-.214 1.49-1.814 1.732-2.861.146-2.091.697-4.839-1.391-6.195-.519-.504-1.453-.672-1.945-.959 1.227-.687 2.656-1.025 4.076-1.041zm129.494.102c1.116.064 2.212.343 3.16.967-2.048.486-3.826 2.299-3.564 4.514.203 1.837.002 4.174 1.545 5.461 1.193-.612 1.212-2.667 2.711-3.117 3.233-.973 6.627 1.724 7.498 4.725.44 2.654-.012 5.621-2.053 7.521-2.81 3.344-8.752 3.576-11.391-.121-.634-1.18-1.455-2.379-2.922-2.523-3.767-1.348-5.145-5.954-4.725-9.609.267-4.327 4.217-8.213 8.623-7.814.372-.021.745-.023 1.117-.002z" transform="scale(.26458333)" fill="url(#z)"/><path d="M70.385 81.872a.31.31 0 0 0-.38.293l-.702 5.444a.31.31 0 0 0 .293.38l.499.065 4.149.531-.225 1.74-4.647-.599a.31.31 0 0 0-.38.293l-.204 1.582a.31.31 0 0 0 .293.38l.499.065 6.133.79c.167-.003.287-.107.312-.301l.719-5.573a.31.31 0 0 0-.293-.38l-4.65-.6.206-1.612 4.719.613c.167-.003.287-.107.312-.301l.204-1.582a.31.31 0 0 0-.293-.38zm25.127-5.422c-.183.08-.258.24-.171.438l.904 2.068-4.269 1.867c-.183.08-.258.24-.171.438l.626 1.432c.08.183.24.258.438.171l4.024-1.759a.333.333 0 0 1 .371.181l1.565 3.579-.005.002.467 1.068c.053.122.036.165-.086.219l-1.127.493c-.122.053-.165.036-.219-.086l-1.165-2.666c-.087-.198-.255-.251-.438-.171l-2.376 1.039c-.198.087-.251.255-.171.438l.613 1.401c.087.198.255.251.438.171l.503-.22c.122-.053.165-.036.219.086l1.165 2.666c.087.198.255.251.438.171l5.214-2.28c.183-.08.258-.239.171-.438l-4.767-10.903c-.08-.183-.239-.258-.438-.171zm6.775 11.857c-.183.08-.258.24-.171.438l.433.99c.053.122.036.166-.085.219l-1.051.459c-.122.053-.165.036-.219-.086l-.213-.487c-.08-.183-.24-.258-.438-.171l-1.066.466c-.183.08-.258.239-.171.438l.213.487c.053.122.036.166-.086.219l-1.447.633c-.183.08-.258.239-.171.438l.459 1.051c.08.183.24.258.438.171l.869-.379c.183-.08.339-.221.397-.337l.651-1.21c.017-.044.056-.079.102-.099s.098-.025.142-.007l1.33.344c.125.036.334.017.517-.063l1.782-.779c.183-.08.299-.312.219-.495l-1.079-2.468c-.08-.183-.24-.258-.438-.171zm-57.801-8.791l1.53 1.237a.313.313 0 0 0 .481-.051l1.162-1.437c.086-.107.201-.058.241-.025l1.876 1.517c.107.086.111.134.025.241l-1.162 1.437a.313.313 0 0 0 .051.481l1.53 1.237a.313.313 0 0 0 .481-.051l1.162-1.437c.086-.107.134-.111.241-.025l.532.431a.313.313 0 0 0 .481-.051l1.011-1.251a.313.313 0 0 0-.051-.481l-.532-.431c-.107-.086-.111-.134-.025-.241l3.207-3.964a.313.313 0 0 0-.051-.481l-1.53-1.237a.313.313 0 0 0-.481.051l-3.207 3.964c-.086.107-.134.111-.241.025l-1.876-1.517c-.04-.032-.111-.134-.025-.241l3.207-3.964a.313.313 0 0 0-.051-.481l-2.475-2.001a.313.313 0 0 0-.481.051l-.99 1.224a.313.313 0 0 0 .051.481l.545.441c.107.086.111.134.025.241l-4.713 5.827a.313.313 0 0 0 .051.481zm11.576 8.116l1.821.744a.313.313 0 0 0 .446-.187l.971-2.376c.052-.127.097-.145.223-.094l1.378.563a.313.313 0 0 0 .446-.187l.609-1.489a.313.313 0 0 0-.187-.446l-1.378-.563c-.127-.052-.145-.097-.093-.223l.848-2.075c.052-.127.097-.145.223-.093l2.772 1.133c.127.052.145.097.093.223l-2.815 6.89a.313.313 0 0 0 .187.446l1.821.744a.313.313 0 0 0 .446-.187l3.624-8.869a.313.313 0 0 0-.187-.446l-7.365-3.009a.313.313 0 0 0-.446.187l-3.624 8.869a.313.313 0 0 0 .187.446zm26.216 5.231l7.711-1.068a.313.313 0 0 0 .292-.386l-1.783-12.881a.313.313 0 0 0-.386-.292l-1.949.27a.313.313 0 0 0-.292.386l1.493 10.779c.019.135-.011.174-.146.193l-2.797.387c-.135.019-.174-.011-.193-.146l-1.023-7.389a.313.313 0 0 0-.386-.292l-3.152.437a.313.313 0 0 0-.292.386l.216 1.559a.313.313 0 0 0 .386.292l.695-.096c.135-.019.174.011.193.146l1.028 7.423a.313.313 0 0 0 .386.292zm26.454-9.771l1.502-1.271a.313.313 0 0 0 .04-.482l-1.193-1.411c-.089-.105-.085-.153.02-.241l1.75-1.481c.105-.089.153-.085.241.02l1.193 1.411a.313.313 0 0 0 .482.04l1.502-1.271a.313.313 0 0 0 .04-.482l-6.189-7.315a.313.313 0 0 0-.482-.04l-1.502 1.271a.313.313 0 0 0-.04.482l3.293 3.893c.089.105.085.153-.02.241l-1.75 1.481c-.105.089-.153.085-.241-.02l-3.293-3.893a.313.313 0 0 0-.482-.04l-2.429 2.055a.313.313 0 0 0-.04.482l1.017 1.201a.313.313 0 0 0 .482.04l.535-.453c.105-.089.153-.085.241.02l1.945 2.299c.089.105.085.153-.02.241l-.523.442a.313.313 0 0 0-.04.482l1.039 1.228a.313.313 0 0 0 .482.04l.523-.442c.105-.089.153-.085.241.02l1.193 1.411a.313.313 0 0 0 .482.04z" fill="#fff"/></svg>