<svg xmlns="http://www.w3.org/2000/svg" width="900" height="600" viewBox="0 0 238.125 158.75" xmlns:v="https://vecta.io/nano"><style><![CDATA[.B{fill:#fff}.C{stroke:#000}.D{stroke-width:.661}.E{stroke-miterlimit:80}.F{stroke-miterlimit:2.1}.G{stroke-miterlimit:3}]]></style><defs><clipPath id="A"><circle cx="65.791" cy="29.952" r="101.354" opacity="1" fill="#2037ad" fill-opacity="1" stroke-width="26.818" class="F"/></clipPath><radialGradient id="B" cx="122.268" cy="-5.291" fx="122.268" fy="-5.291" r="36.168" gradientTransform="matrix(0.84881644,0.20879025,-0.23899665,0.97161758,17.220457,-24.753905)" href="#G"><stop offset="0" stop-color="#83bb45"/><stop offset="1" stop-color="#40873e"/></radialGradient><linearGradient id="C" x1="-39.54" y1="35.587" x2="125.47" y2="35.587" href="#G"><stop offset="0" stop-color="#2b3d55"/><stop offset="1" stop-color="#385b77"/></linearGradient><linearGradient id="D" x1="70.546" y1="60.698" x2="70.546" y2="136.282" href="#G"><stop offset="0" stop-color="#82ba44"/><stop offset="1" stop-color="#1d6c38"/></linearGradient><linearGradient id="E" x1="-11.351" y1="42.381" x2="102.739" y2="42.381" href="#G"><stop offset="0" stop-color="#782203"/><stop offset="1" stop-color="#a53411"/></linearGradient><path id="F" d="M28.787 155.331q-.324 2.223-1.667 3.766-1.405 1.729-3.736 1.729-.123.031-.232.031-.108 0-.185 0h-.278q-.849 0-1.544-.216-.71-.216-1.204-.587-.494-.37-.772-.864-.278-.494-.278-1.05 0-.479.185-.88.17-.417.479-.725.309-.309.725-.479.417-.185.895-.185.463 0 .88.17.401.154.725.448.309.293.494.71.17.401.17.88 0 .309-.077.571-.077.262-.293.571.664-.062 1.297-.324.617-.262 1.111-.695.494-.432.818-1.003.324-.587.401-1.266zm-6.761 2.717q0-.355-.247-.602-.247-.247-.602-.247-.355 0-.602.247-.262.247-.262.602 0 .355.262.602.247.247.602.247.355 0 .602-.247.247-.247.247-.602z"/><linearGradient id="G" gradientUnits="userSpaceOnUse"/></defs><path d="M0 0h238.125v158.75H0z" fill="#45b7f1"/><path d="M0 52.917h238.125v52.917H0z" class="B"/><g transform="matrix(.445926 0 0 .445926 89.724578 66.018493)"><g class="C D"><circle cx="65.791" cy="29.952" r="109.436" fill="#fff200"/><circle cx="65.791" cy="29.952" r="104.114" class="B"/></g><path d="M167.145 29.952a101.354 101.354 0 0 1-202.707 0 101.354 101.354 0 0 1 202.707 0z" fill="#6ecddd"/><g clip-path="url(#A)"><g class="C D"><path d="M152.758-28.905l17.399 47.24-49.017 11.412-3.368-4.209c.627-1.721.468-3.494 2.279-5.136-2.566-.39-6.211-1.637-7.564-3.283.621-1.25 2.296-1.465 3.611-1.847-1.984-.121-3.902-.481-5.623-1.567.351-.78.588-1.326 1.468-1.665-2.298.548-3.309.244-5.607.355 1.65-2.114 2.541-3.35 4.747-4.537-1.233.071-2.488.258-3.601-.327.953-1.153 2.263-1.693 3.648-2.105-1.325-.033-2.65.364-3.976-.281.265-.639.887-1.278 1.45-1.918-1.363.335-2.687.772-4.35.327.394-.995 1.041-1.702 1.871-2.198-1.668.522-3.336.817-5.005.655.777-.933 1.599-1.783 2.806-1.918-1.684-.194-3.368-.318-5.051-1.356 2.292-1.503 4.503-.874 6.852-.772-1.518-1.122-1.687-2.302-1.801-3.485 2.498-.465 3.634.272 4.326 1.427 1.216-1.124 2.627-1.721 4.28-1.66-1.794-.809-2.914-1.985-3.742-3.321 3.016-1.358 4.492-.306 6.498-.065-.828-.847-1.037-1.942-.932-3.162 1.241.285 2.452.657 3.508 1.497-.504-.835-1.067-1.65-1.029-2.666 1.018-.243 1.938.098 2.9.187-.781-.578-1.613-1.344-1.915-1.811.821-1.006 1.348-1.083 2.055-1.51-1.534-.158-2.89-.622-4.116-1.31.874-1.109 1.823-2.127 3.134-2.713-.943-1.679-1.79-3.383-.655-5.613 1.836 1.191 3.799 3.12 4.331 5.864.31-2.441.62-4.386 1.281-5.489 1.575 1.151 2.717 2.309 4.48 4.904-.457-2.082-.897-3.35-.036-4.904 1.71 1.197 2.771 2.969 3.695 4.864.812-2.103 2.632-3.701 4.666-5.193.255 1.378-.549 3.108-1.025 4.729 1.129-1.813 2.454-3.478 3.936-5.027.681 1.076.935 2.366 1.091 3.704.832-2.077 1.077-4.325 3.903-5.821 1.881.983 2.298 3.011 3.01 4.829-.217-1.477-.297-2.875.099-4.002 1.506.656 2.443 1.994 3.539 3.142z" fill="url(#B)" class="E"/><path d="M166.754 11.696c-8.822.151-12.612 4.783-20.958 7.405-1.474.463-1.709-4.969-3.153-4.356v11.25h-13.295l.298-1.826c-1.741.732-3.669-1.126-5.051-.595-2.367.911-4.084.244-4.898.244-5.65 0-8.998-3.33-15.732-2.818-8.293.63-13.589 6.028-21.445 7.599-6.037 1.207-13.376-4.358-20.779-3.321-8.963 1.256-10.339 6.334-15.695 5.981-4.268-.281-13.275-1.13-17.668 2.628-3.893 3.33-8.641-.576-13.165.932-3.103 1.034-8.283 5.752-11.568 5.804-14.097.226-23.198-12.249-42.824 4.719 0 0-1.022 12.147 8.982 12.428 53.019 1.461 135.554 2.916 196.015.11 5.846-11.692 5.259-32.819 2.877-45.123-.137-.708-.825-1.083-1.941-1.064z" fill="url(#C)" class="G"/><path d="M-36.777 44.913c4.253.321 8.641.574 12.568 1.058 3.628.486 8.378.309 12.568.463A43.26 43.26 0 0 1 .463 48.419l176.014-7.673-1.323 96.044-211.931-1.058z" fill="url(#D)" class="E"/></g><path d="M64.616 128.814c-1.748-.334-4.206-1.216-4.993-1.793-.26-.191-.204-.194 1.526-.103l4.154.083c2.58-.013 4.176-.217 6.007-.77 2.139-.646 2.674-.76 3.832-.816 1.42-.069 2.314.067 3.886.59 1.24.413 3.846 1.599 3.846 1.751 0 .051-.139.069-.309.039-1.829-.318-4.626-.614-5.793-.614-1.473 0-2.433.185-4.331.837-1.682.577-3.408.875-5.285.913-1.143.023-2.015-.017-2.54-.118zm41.275-2.427c-3.593-1.086-8.27-1.307-11.677-.552-2.035.451-3.416.403-5.143-.176-1.037-.348-2.791-1.172-3.166-1.486l-.281-.236.393.046c1.377.159 4.511.305 5.349.249.547-.037 1.576-.193 2.286-.347 1.901-.412 3.448-.561 4.996-.481 2.01.103 4.211.639 5.726 1.393.969.482 2.75 1.756 2.623 1.875-.023.021-.521-.107-1.108-.284zm-65.119-.205c0-.167.761-1.027 1.268-1.43.26-.207.75-.49 1.09-.628.59-.24.788-.252 4.491-.289 2.13-.021 4.142-.005 4.469.035.514.063.576.097.456.242-.176.212-1.214.739-2.151 1.092-1.33.501-2.291.631-4.667.631-1.677 0-2.528.054-3.553.224l-1.375.224c-.015 0-.028-.045-.028-.101zm-1.207-2.673c-.324-.024-.589-.087-.589-.139s.341-.23.758-.396c.759-.302 4.956-2.417 4.796-2.417-.047 0-.419.099-.827.219-2.138.63-4.557.901-6.175.692-1.063-.138-2.706-.553-2.706-.684 0-.047.77-.113 1.712-.146 2.391-.084 3.691-.404 7.27-1.792 3.328-1.291 5.118-1.655 8.132-1.655 4.223 0 7.709.758 12.133 2.637 2.101.893 3.177 1.262 5.782 1.987 1.58.44 1.694.488 1.235.521-.822.06-3.609-.189-4.9-.438-.659-.127-2.087-.506-3.174-.841-3.038-.938-5.525-1.436-8.712-1.744-1.58-.153-4.597-.068-5.67.16l-.73.155 1.572.006c2.256.008 3.557.314 6.793 1.597.895.355 1.906.734 2.245.843s.666.242.724.296-.527.099-1.394.099c-1.165 0-1.98-.08-3.643-.358-1.879-.314-2.412-.359-4.332-.365-2.423-.007-2.523.01-5.389.95-2.12.696-3.486.922-4.912.816zm53.359-1.199c-1.672-.322-3.963-1.107-5.406-1.852l-.657-.339 1.01-.003c.556-.002 1.819.07 2.807.16 3.141.284 5.014.172 8.982-.539l1.46-.262-1.572-.074c-1.995-.094-3.358-.33-4.992-.865l-1.296-.425 2.582.058c2.929.066 4.66-.084 7.522-.651 3.229-.64 4.956-1.259 8.589-3.082 2.446-1.227 3.332-1.584 4.772-1.92 1.723-.402 6.745-.197 8.9.364.922.24.947.36.062.297-1.013-.072-5.161.16-6.702.375-2.056.287-3.406.799-6.302 2.389-2.4 1.318-4.937 2.318-7.298 2.876l-1.123.266 1.641.008c.94.004 2.067.082 2.638.182 1.206.21 2.625.611 2.625.742 0 .052-.452.095-1.005.095-1.44 0-3.188.252-7.023 1.013-6.144 1.219-8.584 1.503-10.217 1.188zm8.844-2.949c-.076-.031-.228-.033-.337-.004s-.047.054.138.056.275-.021.199-.052zm-76.658 1.004c-.677-.163-.428-.339 1.945-1.371.979-.426 2.292-1.031 2.919-1.346 1.795-.901 2.703-1.167 3.781-1.11.494.026 1.023.116 1.177.199.318.172.358.144-.784.56-.34.124-1.173.558-1.853.965-1.657.993-2.8 1.564-3.806 1.902-.694.233-1.034.279-1.996.268-.637-.007-1.26-.037-1.384-.067zm-3.705-1.57c-.371-.025-.716-.089-.768-.14s.629-.331 1.514-.621c3.312-1.087 6.333-2.383 8.797-3.773 3.459-1.953 6.081-2.885 7.409-2.636.47.088.526.288.08.288-.523 0-1.975.782-4.457 2.4-2.514 1.639-5.211 3.081-6.827 3.65-1.799.633-4.006.953-5.747.833zm46.257-.714c-.247-.051-.736-.096-1.087-.099-.903-.009-4.132-.575-6.772-1.187l-4.154-.96c-1.05-.242-2.241-.472-2.646-.511-1.277-.123-2.872.136-4.927.801-3.666 1.187-5.097 1.442-8.145 1.451-1.985.006-3.204-.083-3.064-.223.026-.025.65-.167 1.387-.313 1.56-.311 5.386-1.436 7.372-2.168 3.83-1.412 4.421-1.551 6.6-1.554 1.483-.002 1.758.031 3.088.373 1.688.434 5.246 1.602 7.915 2.6 1.701.636 1.903.687 2.47.622 2.065-.235 4.025-1.067 6.929-2.943 1.209-.781 2.78-1.534 3.681-1.763 1.962-.5 4.575-.507 7.663-.019 2.804.443 5.35.738 6.989.809 1.25.054 1.76.024 2.905-.173.764-.131 1.497-.234 1.628-.23.292.01-1.402.819-2.344 1.119-2.268.722-5.609.83-10.161.328-.587-.065-1.951-.12-3.031-.123-2.175-.006-3.129.136-4.154.622-.646.306-.641.306.842-.009 1.983-.421 4.522-.052 6.512.944 1.051.526 2.258 1.245 2.421 1.442.195.235-.064.211-2.103-.195-1.563-.311-2.016-.356-3.743-.365-2.149-.012-2.102-.019-5.277.832-3.338.895-5.439 1.171-6.793.891zm-49.008-2.008c-.852-.158-1.428-.339-1.549-.485-.09-.109.085-.143.801-.155 1.695-.028 5.028-.819 7.075-1.677.826-.346 4.339-2.52 4.339-2.684 0-.027-.329.099-.732.28-1.002.449-1.719.653-2.973.845-1.364.209-2.035.207-2.867-.008-.716-.185-2.141-.806-2.053-.895.029-.029.479.001.999.067 1.273.163 2.019.061 3.751-.509 1.788-.589 2.321-.853 5.133-2.553 2.608-1.576 3.548-2.03 4.883-2.356 1.341-.327 3.234-.351 3.992-.051.293.116.533.249.533.294s-.341.107-.758.137c-.808.058-2.631.63-3.859 1.209-.394.186-.616.315-.492.286.629-.145 2.257-.282 4.002-.337 2.332-.074 2.28-.003-.532.726-3.571.925-3.517.898-7.287 3.685-3.643 2.693-4.898 3.381-7.129 3.91-.927.219-1.563.288-2.975.322-.988.024-2.024.001-2.302-.051zm81.455-.787c-2.339-.226-2.507-.331-.898-.562 3.37-.482 5.032-1.048 8.477-2.884 1.95-1.04 3.194-1.549 4.629-1.894 3.958-.954 7.448-.793 11.559.533 1.399.451 1.818.68 1.075.586-2.823-.357-6.644-.409-8.829-.118-3.113.414-4.638.879-7.31 2.228-3.608 1.822-5.909 2.381-8.701 2.111zm-88.473-3.154c-1.007-.09-2.053-.342-2.974-.717-.676-.275-1.624-.838-1.544-.917.028-.028.424.033.881.134.539.12 1.383.187 2.403.192 1.806.008 3.301-.261 7.067-1.272 2.63-.706 4.187-1.32 8.764-3.454 7.3-3.405 9.783-4.202 13.136-4.219 1.492-.008 3.383.12 3.282.221-.026.026-.775.174-1.664.329-3.484.608-4.288.913-10.241 3.888-8.604 4.3-10.497 5.027-14.531 5.578-2 .274-3.375.345-4.577.237zm49.781-3.365c-1.749-.377-2.996-.922-5.856-2.56-3.2-1.832-5.452-2.425-9.176-2.418-1.623.003-2.252.056-3.617.302-2.028.366-2.162.371-1.716.066.634-.433 2.469-1.311 3.367-1.611 2.664-.891 5.8-.878 8.499.034 1.349.456 2.553 1.046 4.669 2.286 3.174 1.861 5.023 2.515 7.436 2.631 1.082.052 1.582.013 3.084-.242.986-.167 1.883-.351 1.993-.41.131-.07.2-.067.2.008 0 .339-2.422 1.436-4.128 1.868-1.352.343-3.289.361-4.755.045zm-50.792-1.191c-1.004-.209-2.983-1.133-2.747-1.283.09-.057.98-.105 1.977-.106 3.101-.003 5.032-.273 6.744-.942 2.489-.974 4.075-1.786 4.075-2.088 0-.246-.828-.359-2.068-.282-1.004.063-1.397.042-1.878-.097-1.387-.403-1.696-1.592-.645-2.482.501-.425 1.755-.999 2.905-1.331l.926-.267-1.445-.157c-1.833-.199-4.475-.203-5.443-.007-.83.168-1.896.718-1.896.979 0 .093.167.269.371.389.484.286.864.97.864 1.557 0 .367-.078.548-.381.883-.536.592-1.638 1.127-2.594 1.26l-1.965.3c-.919.149-1.96.193-4.716.2-3.293.009-3.618-.009-4.716-.249-1.39-.304-2.358-.593-2.358-.704 0-.219 3.467-.521 7.65-.665 4.859-.168 6.74-.295 7.204-.489.795-.332.8-.945.011-1.592-.664-.544-.774-.767-.598-1.214.242-.617.896-1.203 1.844-1.651 1.132-.536 1.803-.659 4.042-.741 1.586-.058 2.125-.025 4.603.283 3.667.456 5.353.575 8.1.576 2.05 0 2.362-.026 3.342-.28.594-.154 1.142-.281 1.218-.281.215 0-.997.78-1.684 1.084a8.94 8.94 0 0 1-1.321.436c-.899.208-3.388.501-4.264.501-.371 0-1.017.098-1.435.217s-1.681.428-2.807.685c-2.101.48-3.831 1.081-3.547 1.232.085.045.558.109 1.052.143 1.072.074 1.936.339 2.419.742.492.411.577 1.134.199 1.696-.254.377-1.403 1.23-2.225 1.651-.216.111-.595.334-.842.495-.704.461-1.962 1.066-2.639 1.27-1.623.488-3.899.63-5.333.331zm82.634 0c-1.454-.261-3.721-.969-4.004-1.251-.046-.046.969-.067 2.256-.047 3.779.058 5.76-.321 11.066-2.119 2.73-.925 3.6-1.258 6.737-2.573 1.368-.573 3.427-1.179 4.875-1.433 1.507-.264 5.311-.258 7.083.011 1.492.227 2.649.507 3.761.911l.786.285-1.74-.061c-2.71-.094-6.919.294-9.288.856-1.379.327-3.667 1.144-5.493 1.96-3.653 1.632-8.1 3.057-10.845 3.475-1.364.208-3.996.2-5.193-.015zm32.223 0c-.607-.156-1.295-.407-1.347-.492-.032-.052.106-.145.307-.206 1.78-.543 4.635-1.472 5.643-1.836 1.597-.577 2.167-.637 3.163-.335.911.277 1.655.858 1.954 1.526.111.249.185.47.165.491s-.33-.126-.686-.328c-.59-.333-.735-.366-1.611-.369s-1.062.038-2.086.463c-1.757.73-2.993 1.053-4.21 1.101-.587.023-1.168.016-1.291-.016zm-62.936-2.013c-.934-.169-2.562-.713-3.391-1.132-.293-.148-.533-.284-.533-.302s1.149-.03 2.554-.027c1.592.003 2.893-.051 3.452-.142 1.293-.211 4.214-.932 6.231-1.536 3.993-1.197 5.381-1.456 7.387-1.378 1.131.044 1.48.107 2.501.453 1.336.452 4.065 1.636 4.757 2.063l.456.282-.618-.073a61.28 61.28 0 0 1-2.189-.345c-3.567-.616-3.95-.653-5.221-.512-1.386.154-2.956.551-7.392 1.869-2.315.688-3.893.952-5.631.944-.834-.004-1.897-.076-2.363-.161zm62.623-.392c-.77-.12-1.978-.477-2.606-.769-.429-.2-.436-.212-.168-.273.154-.035.938-.089 1.74-.119s1.737-.116 2.077-.188c.745-.16 2.403-.928 4.154-1.923 1.888-1.074 2.802-1.515 3.962-1.914.909-.312 1.184-.356 2.272-.361 1.174-.006 1.275.013 1.965.356.699.347 1.86 1.238 1.753 1.344-.028.028-.536-.104-1.129-.294-1.241-.397-1.412-.408-2.607-.168-.978.197-2.644.946-4.54 2.04-3.55 2.05-5.067 2.551-6.873 2.269zm-63.054-2.137c-2.093-.237-4.587-.926-7.366-2.037-3.501-1.399-4.547-1.66-7.073-1.763l-1.796-.073.546-.25c2.143-.981 4.356-1.154 6.864-.536.618.152 2.184.636 3.481 1.076 2.968 1.006 4.223 1.296 6.662 1.536 2.825.278 4.282.12 8.944-.968.803-.187 1.535-.34 1.628-.339.281.003-.981.758-2.526 1.512-1.659.81-3.05 1.323-4.435 1.638-1.137.258-3.567.36-4.928.206zm33.741-1.177c-1.501-.204-1.798-.276-1.671-.403.058-.058 1.313-.356 2.79-.662 3.037-.63 5.457-1.304 6.614-1.84.432-.2 1.342-.681 2.021-1.068 1.524-.868 3.246-1.612 4.431-1.915 2.712-.693 6.871-.53 10.053.393.906.263 2.049.794 1.941.902-.023.023-.491-.005-1.041-.061-1.998-.206-7.518.267-9.757.837-1.438.366-2.622.846-4.054 1.643-2.716 1.513-3.486 1.815-5.57 2.181-1.173.206-4.212.202-5.756-.008zm-99.591-.74a14.26 14.26 0 0 1-1.453-.275c-.744-.192-2.319-.901-2.319-1.044 0-.049 1.149-.124 2.554-.166a99.26 99.26 0 0 0 3.872-.185c1.946-.16 7.236-.881 7.925-1.081.329-.095.622-.149.652-.119.106.106-.955.877-1.713 1.243-1.7.823-3.631 1.326-6.104 1.59-1.67.178-2.259.185-3.413.036zm93.065-1.621c-.124-.019-.627-.068-1.119-.109-.814-.067-.875-.088-.674-.236.393-.288 2.58-.907 4.936-1.398l.674-.14-1.572-.333-1.572-.333-5.052-.019c-4.802-.018-6.68-.099-6.68-.287 0-.114 1.939-.725 3.743-1.179 2.548-.641 4.201-.881 6.081-.884 1.839-.003 2.531.096 5.782.827a120.71 120.71 0 0 0 3.845.787c1.827.335 1.925.342 3.481.23 1.988-.143 2.443-.145 2.443-.013 0 .118-1.773.827-3.368 1.347-3.614 1.179-9.023 2.039-10.947 1.739zm37.913-.4c-.329-.126-.58-.247-.558-.269s.442-.122.934-.223 1.779-.527 2.86-.945c4.748-1.84 6.406-2.187 8.298-1.741 1.025.242 3.305 1.397 3.12 1.582-.032.033-.596-.021-1.251-.118-2.537-.377-3.626-.232-7.08.942-2.37.806-3.334 1.015-4.636 1.008-.818-.004-1.24-.063-1.688-.235zm-90.626-2.76c0-.061.215-.194.479-.294s1.519-.732 2.791-1.403c2.844-1.5 4.469-2.26 5.84-2.732 1.01-.348 1.121-.362 2.848-.366 2.164-.005 2.792.126 7.466 1.553 5.174 1.579 5.758 1.646 9.543 1.085 1.204-.178 2.207-.307 2.228-.285.11.11-2.4 1.164-3.986 1.675-2.201.709-4.252.599-8.234-.443-5.847-1.529-5.301-1.419-7.017-1.419-1.736 0-1.618-.028-6.231 1.455-.957.308-2.271.688-2.919.845-1.355.328-2.807.498-2.807.329zM19.58 95.44c-.201-.025-.365-.087-.365-.139s.53-.236 1.177-.41 1.115-.351 1.039-.392-1.263-.217-2.637-.39-2.498-.349-2.498-.392c0-.121 1.004-.516 1.662-.654 1.37-.287 3.779-.068 4.961.451.708.311 1.012.627 1.012 1.054 0 .447-.255.682-.9.831-.48.111-2.678.136-3.451.04zm109.447-.432c-.459-.084-.914-.183-1.01-.22-.157-.06-.156-.079.01-.172.156-.088 4.086-1.012 8.179-1.924 1.313-.292 2.529-.31 3.424-.05 1.339.388 2.762.997 3.577 1.528 1.025.669 1.113.788.49.662-4.132-.835-5.546-.897-7.772-.341-.803.2-1.883.438-2.401.529-1.147.2-3.365.194-4.497-.012zm-136.14-.113l-1.01-.23c-2.066-.466-3.569-2.012-3.201-3.294.161-.56.41-.877.878-1.116.435-.222 1.593-.484 1.592-.36 0 .038-.278.214-.617.391-.644.337-1.067.856-1.067 1.31 0 .379.876 1.168 1.542 1.389.818.272 2.417.427 3.566.346 1.36-.096 2.651-.313 4.996-.84 4.901-1.102 7.751-1.318 11.042-.834 1.214.179 3.96.801 4.227.959.098.058-.951.07-2.526.029-3.873-.1-6.24.151-10.778 1.146-5.058 1.108-4.855 1.074-6.68 1.117-.957.022-1.841.017-1.965-.013zm131.869-1.513c-1.558-.195-2.733-.711-4.11-1.804-.484-.385-.829-.717-.767-.737s.641.144 1.287.367c1.774.612 2.624.746 4.205.662 1.907-.1 3.202-.306 5.569-.882 3.222-.784 3.937-.902 5.434-.893 1.487.008 2.428.206 3.905.821.869.362 1.941.986 1.85 1.077-.029.029-.477-.05-.995-.175s-1.537-.288-2.262-.362c-1.749-.178-2.684-.053-6.045.805l-3.761.908c-1.301.271-3.122.361-4.31.213zm-65.814-1.793c-1.454-.245-3.885-1.309-3.608-1.577.195-.189 2.007-.347 4.469-.391 2.942-.052 5.901-.226 6.758-.396.32-.064.707-.214.86-.334.357-.281.41-.275.41.046 0 .407-.578 1.102-1.247 1.499-.792.47-2.403.998-3.505 1.149-.992.136-3.346.139-4.137.005zm13.182-.25c.071-.217 2.179-2.044 3.085-2.673 1.139-.791 2.091-1.207 3.366-1.472.938-.195 1.358-.219 2.841-.165.957.035 2.143.139 2.634.231s.909.153.926.135-.587-.281-1.343-.584l-1.375-.552-3.593.003c-3.261.003-3.726.027-5.032.264-.791.143-1.464.235-1.495.204-.079-.079 1.248-1.005 1.924-1.343.782-.391 2.174-.827 3.368-1.056.725-.139 1.614-.195 3.144-.2 2.034-.006 2.17.007 2.919.287 1.274.476 3.558 1.514 5.799 2.635 2.392 1.196 3.053 1.434 4.699 1.688 3.108.481 4.77.478 8.242-.015 3.64-.517 4.541-.721 7.027-1.593 4.923-1.727 5.622-1.886 8.308-1.886h1.965l1.965.688 3.566 1.261c2.802 1.003 4.761 1.404 6.819 1.396 2.115-.008 3.001-.305 5.875-1.963.639-.369 1.187-.646 1.217-.616.083.083-2.118 1.965-2.997 2.563-.82.558-1.564.875-2.916 1.243-.675.184-1.187.23-2.582.233-2.601.005-4.193-.317-8.477-1.716-2.969-.97-3.459-1.065-4.978-.974-1.586.096-2.983.405-4.958 1.097-3.85 1.349-5.088 1.626-7.972 1.788-1.142.064-2.404.163-2.803.22-.832.119-9.879-.05-12.207-.227-.815-.062-2.406-.285-3.537-.495-2.951-.548-4.16-.667-5.985-.59-1.898.081-2.342.192-4.505 1.129-1.507.652-2.84 1.193-2.942 1.193-.021 0-.017-.063.008-.14zm-43.077-.185c-.159-.062.097-.171.954-.405 1.697-.463 3.398-1.365 6.581-3.489 2.947-1.966 4.956-3.049 6.211-3.348 2.126-.506 4.79-.514 6.597-.02.571.156 1.607.544 2.302.861 2.591 1.184 4.111 1.785 5.557 2.2.818.235 1.488.473 1.488.529 0 .171-3.159-.022-4.353-.265a28.01 28.01 0 0 1-2-.493l-1.867-.558c-1.41-.421-2.716-.568-4.354-.489-1.81.087-3.115.34-4.104.797-.436.201-1.749.938-2.919 1.638-4.024 2.406-6.058 3.143-8.639 3.132-.679-.003-1.333-.044-1.452-.091zm-37.562-.181c.227-.273 2.092-1.396 3.128-1.882 1.73-.813 3.601-1.044 9.362-1.159 2.615-.052 4.273-.024 6.51.111l3.677.181c.637 0 .675-.015.675-.269 0-.164-.146-.397-.375-.598-1.57-1.379-7.252-2.078-19.427-2.39-4.211-.108-6.463-.243-7.425-.446l-1.403-.284c-.788-.155-2.245-.76-2.246-.932 0-.042.391-.06.87-.038 1.076.048 2.758-.13 5.249-.556 7.195-1.229 9.026-1.449 12.107-1.456 3.287-.008 6.429.412 8.13 1.087 1.371.544 1.364.612-.056.531-.718-.041-2.226-.006-3.532.082-2.522.17-2.565.15.922.433 5.255.426 8.393 1.623 9.206 3.513.196.455.239.735.206 1.329-.072 1.267-.826 2.045-2.124 2.19-.346.039-2.376-.081-4.706-.277-4.965-.418-10.785-.795-12.238-.794-1.851.001-3.041.285-5.487 1.31-.675.283-1.107.416-1.024.315zM60.308 86.7c-2.184-.348-4.426-1.255-5.018-2.032-.159-.209-.27-.398-.246-.419s.423.027.886.108c.996.174 4.016.585 5.445.742.556.061 2.021.091 3.256.067 1.958-.038 2.331-.075 2.911-.288.366-.134.687-.223.712-.198.136.136-.951 1.078-1.556 1.35-1.531.687-4.395.988-6.389.67zm34.244-.401c-2.691-.276-5.652-1.199-6.737-2.102l-.28-.233.285-.004c.549-.007 4.332.337 5.778.526 1.077.141 2.314.191 4.716.193 2.967.002 3.355-.02 4.369-.248 1.576-.355 1.7-.336 1.02.155-2.085 1.509-5.285 2.108-9.15 1.712zm49.536-.047c-.327-.088-.729-.231-.894-.317l-.299-.157.377-.229c.545-.332 1.941-.68 3.219-.805 1.252-.122 4.371-.147 5.013-.041.36.06.402.095.282.239-.455.549-1.837 1.096-3.334 1.322-1.365.206-3.579.2-4.364-.011zm-19.409-.77c-1.167-.223-2.151-.576-2.879-1.031-.685-.428-.838-.681-.337-.555 2.228.559 8.491-.051 11.319-1.103l.449-.167-.393-.008c-.216-.004-1.05-.081-1.853-.169l-3.031-.292c-1.784-.148-3.607-.483-5.794-1.063-7.666-2.035-8.413-2.072-15.987-.788-3.998.678-5.804.896-9.712 1.171l-.954.067.898.087c1.761.17 5.631.416 6.624.421.923.004.991.019.788.173-.948.716-5.451 1.328-7.887 1.071-3.23-.341-4.917-1.017-7.147-2.867l-.988-.819-1.59-.366c-2.781-.64-5.407-.573-7.536.192-.435.156-1.751.736-2.924 1.289-3.653 1.72-5.565 2.379-8.533 2.94-3.103.587-3.211.523-.73-.436 2.666-1.03 3.786-1.517 5.501-2.395 4.708-2.408 5.523-2.799 6.4-3.075 1.147-.361 1.833-.498 3.29-.656 1.898-.207 3.897.154 8.106 1.463 3.33 1.036 4.427 1.32 5.625 1.456l1.505.176c.216.028 1.252-.028 2.302-.123 1.544-.14 2.434-.299 4.659-.834 4.918-1.181 6.985-1.508 9.487-1.502 2.525.006 4.568.422 9.038 1.839 4.443 1.409 4.46 1.411 10.482 1.699 3.145.15 3.525.12 4.776-.385.664-.268.674-.269.511-.036-.999 1.433-3.454 3.002-6.061 3.875-2.196.735-5.674 1.087-7.425.752zm20.741-1.76c-.904-.177-1.868-.551-2.255-.874l-.381-.318 1.791-.067c2.259-.085 4.582-.402 8.496-1.159a34 34 0 0 0 4.072-1.213c.236-.099.452-.156.48-.128.254.254-1.783 1.795-3.302 2.496-2.095.968-6.918 1.652-8.902 1.263zm-86.403-1.493l-.337-.145.449-.224c.522-.261 1.341-.55 2.936-1.037.627-.191 1.789-.647 2.582-1.012s1.46-.615 1.482-.555c.141.391-1.414 1.877-2.506 2.393-1.4.662-3.734.957-4.606.581zm-72.677-1.322c.305-.548.894-1.013 1.837-1.447 1.082-.499 2.161-.668 4.251-.668 1.391 0 2.142-.056 3.019-.225.642-.124 2.148-.373 3.346-.554s2.266-.363 2.374-.404c.372-.143.195.117-.281.413-.799.496-1.324.729-2.611 1.158-3.077 1.024-2.836.983-6.23 1.078-3.357.094-4.339.248-5.343.836-.263.154-.511.281-.55.281s.046-.21.188-.467zm159.409.398c-.788-.152-1.914-.544-2.187-.762l-.308-.246 1.725-.246a62.67 62.67 0 0 1 3.185-.363c1.688-.135 5.99-.731 6.568-.911a3.39 3.39 0 0 0 .655-.287c.555-.349.435.185-.18.8-.692.692-2.286 1.356-4.348 1.811-.772.17-4.508.32-5.109.204zm-89.061-.496c-.807-.136-1.609-.43-1.825-.669-.186-.205-.183-.217.071-.266.146-.028 1.175-.13 2.286-.226 1.62-.14 2.429-.276 4.075-.684l2.183-.509c.247 0-.64.791-1.381 1.231-1.596.948-3.769 1.399-5.409 1.123zm-31.219-.93c.878-1.446 2.425-2.463 4.83-3.174.924-.273 1.089-.288 2.614-.229 1.221.047 1.902.134 2.726.347.92.238 1.351.285 2.662.285 1.78 0 2.704-.177 4.783-.916 2.715-.965 4.89-.976 8.76-.043.65.157 1.595.333 2.1.392l2.378.281c1.889.225 5.035.228 5.978.005.982-.231 2.029-.73 3.078-1.465 1.076-.754 1.023-.509-.132.615-1.288 1.253-2.538 1.861-4.582 2.226-.874.156-1.702.192-4.23.182-1.729-.007-3.447-.067-3.817-.133l-1.909-.355c-2.991-.565-5.096-.5-6.961.218-.494.19-1.547.501-2.339.691-1.368.328-1.53.343-3.2.295-1.556-.045-1.856-.086-2.601-.355-1.888-.683-3.994-.973-5.393-.742-1.556.257-3.178.854-3.99 1.468-.764.579-.905.654-.755.407zm-18.492-.257c-1.868-.5-2.456-1.907-1.262-3.018.169-.158.739-.51 1.266-.783s1.049-.595 1.159-.717c.192-.212.19-.243-.047-.794-.136-.315-.429-.733-.651-.928-.505-.443-1.751-1.02-2.711-1.254-1.164-.284-3.207-.451-4.014-.328-.386.059-.702.068-.702.021 0-.177 1.215-.671 2.079-.845 1.194-.24 3.152-.244 4.124-.007 1.616.394 2.857 1.277 3.443 2.451.877 1.756.408 2.878-1.622 3.883-.462.228-.839.451-.839.495 0 .408 5.733.535 8.308.185 1.845-.251 2.51-.307 2.396-.202-.182.167-3.137 1.216-4.08 1.448-2.314.57-5.505.753-6.849.393zm121.048-.849c1.56-1.457 5.126-2.82 8.219-3.142 1.055-.11 1.531-.101 2.994.058.957.104 2.371.316 3.143.473 2.103.426 4.773.569 7.555.407 1.248-.073 2.493-.186 2.765-.25.859-.204.89-.048.066.338-.846.396-2.577.868-4.379 1.192-1.793.323-4.605.284-6.736-.094-2.448-.434-4.022-.553-5.539-.42-3.067.27-4.88.67-8.383 1.849-.129.043-.003-.131.296-.411zm-8.492-1.048c-.757-.143-1.875-.493-2.256-.706-.165-.092-.162-.11.026-.183.115-.044.613-.103 1.107-.13 3.978-.222 5.034-.304 6.319-.493 1.024-.15 1.636-.302 2.032-.502.706-.358.729-.357.531.022-.558 1.068-2.338 1.804-4.953 2.047-1.511.14-1.809.134-2.807-.054zm-27.363-.102c-.61-.176-1.229-.514-1.293-.705-.027-.082.159-.16.496-.208 2.67-.379 6.84-1.378 7.459-1.788.251-.166.485-.272.522-.236s-.032.305-.152.598c-.174.425-.358.626-.914.999-1.64 1.102-4.653 1.762-6.118 1.339zm-107.924-.974c-1.457-.256-3.877-.881-3.877-1.001 0-.046 1.73-.111 3.845-.143 4.497-.068 5.43-.183 7.61-.933 2.373-.817 3.33-.978 5.386-.91 2.752.091 5.039.629 6.113 1.438.616.464.649.596.09.356-.852-.364-1.701-.496-3.624-.56-3.216-.107-4.784.132-7.782 1.184-2.301.808-5.191 1.019-7.761.567zm36.317-.113c0-.247.903-1.063 1.678-1.516 1.133-.663 2.231-1.108 3.319-1.343.76-.165 1.591-.197 5.389-.21 4.889-.017 4.733 0 6.555-.728.333-.133.654-.225.714-.205.195.065-1.193 1.251-1.91 1.633-1.771.944-3.151 1.174-6.901 1.154-1.527-.008-3.22.04-3.761.107-1.233.153-3.773.713-4.519.997-.31.118-.563.168-.563.113zm34.934-.758c-.331-.119-.703-.317-.827-.441l-.226-.226.581-.125c.32-.069 1.071-.176 1.669-.239 1.295-.136 3.111-.501 3.68-.738.224-.094.432-.146.461-.117.136.136-.364.864-.818 1.19-.748.537-1.599.794-2.838.857-.882.045-1.193.015-1.683-.161zm89.032-.027c-1.539-.098-2.871-.336-3.777-.675-.853-.319-.954-.492-.299-.51l6.039-.125 5.637-.186c.124-.077 2.516-.397 2.579-.345.088.072-.694.506-1.689.938-2.101.911-4.444 1.16-8.492.903zm-55.164-.329c-.476-.054-1.081-.157-1.344-.228-.506-.136-1.723-.715-1.814-.862-.029-.048.763-.091 1.76-.095 1.934-.009 3.667-.187 7.091-.727 3.945-.622 4.262-.687 5.592-1.14.729-.248 1.352-.425 1.384-.393.118.117-1.385 1.213-2.261 1.649-2.353 1.17-7.748 2.101-10.408 1.796zm27.195-.505c-1.184-.183-2.12-.462-2.478-.737l-.274-.211.618-.006c4.316-.039 11.544-.503 12.442-.798.573-.188.553-.036-.045.344-.956.606-2.588 1.104-4.625 1.411-1.339.202-4.321.2-5.636-.004zm-65.491-1.233c-.722-.184-1.09-.352-1.09-.498 0-.089 1.857-.468 3.031-.62.278-.036 1.465-.113 2.638-.172s2.31-.141 2.526-.183l.393-.076-.32.342c-.427.456-1.473.912-2.526 1.1-1.371.245-3.88.302-4.653.105zm93.445-.74c-2.164-.278-4.042-.849-4.042-1.227 0-.06.189-.11.421-.11s1.103-.099 1.937-.219 2.501-.298 3.705-.396c4.153-.338 11.211-1.234 11.961-1.519.417-.159.338.044-.195.501-.673.576-2.749 1.558-4.13 1.955-3.092.887-7.257 1.325-9.656 1.016zm-66.838-.255c-.297-.084-.594-.206-.659-.271-.134-.134-.075-.153 1.953-.647.724-.176 1.3-.336 1.281-.355s-.939-.266-2.045-.55c-1.948-.499-2.067-.516-3.807-.533-2.375-.023-4.627.379-5.866 1.047-.324.175-.589.285-.589.244.001-.216.502-.841.922-1.152.678-.502 2.572-1.38 3.568-1.656.463-.128 1.319-.29 1.902-.36 1.612-.193 2.701-.037 5.902.848 2.926.809 3.696.896 6.556.746 2.57-.135 5.725-.541 7.027-.904.431-.12.802-.2.824-.178.059.059-.865.715-1.382.981-.633.325-2.575 1.034-3.613 1.32-.484.133-1.739.393-2.788.578l-3.424.618c-1.876.348-4.904.467-5.761.225zm39.668-.029c-1.436-.102-3.082-.433-4.659-.939-2.529-.81-4.085-1.159-6.499-1.459-1.671-.208-4.121.028-6.413.618-1.573.405-4.551 1.279-5.409 1.588-.161.058-.144.007.076-.237.815-.902 5.172-3.347 6.905-3.876 1.205-.368 3.217-.677 4.404-.677 2.009 0 4.749.536 7.666 1.499.834.275 2.021.58 2.638.676 2.121.333 5.295.55 7.073.484 1.541-.057 1.87-.11 3.873-.621 3.19-.814 4.312-.968 6.175-.849 2.835.181 4.141.119 5.894-.281 3.61-.824 4.425-1.059 6.72-1.939.793-.304 1.497-.535 1.564-.512.192.064-1.683 1.888-2.614 2.543-1.634 1.15-4.33 2.303-6.482 2.773-1.136.248-3.749.249-5.662.003-.782-.101-1.695-.183-2.029-.183-.936 0-2.953.31-4.042.621-1.938.554-3.431.745-6.092.779-1.359.018-2.748.013-3.088-.012zm-67.589-1.481c0-.152.677-.427 2.086-.846.736-.219 1.642-.524 2.012-.678l.674-.279-1.347.061c-.997.045-1.868-.001-3.348-.178-2.794-.334-4.55-.408-5.578-.235-.463.078-1.875.489-3.137.914-2.842.956-3.883 1.147-6.195 1.134-1.558-.009-1.839-.04-2.526-.284-3.079-1.093-4.011-1.365-6.05-1.767-1.656-.327-1.919-.35-3.368-.293-1.439.056-2.723.283-3.93.697-.59.202.771-.593 1.565-.915 1.793-.726 3.746-.955 6.203-.729 1.515.14 4.125.698 5.528 1.181.747.258 1.003.287 2.47.285 2.197-.003 3.194-.187 5.997-1.108 1.307-.429 2.771-.843 3.254-.919 1.403-.22 3.526-.065 6.981.509 1.305.217 2.768.217 3.821-.001.46-.095 1.557-.43 2.437-.744 2.944-1.05 3.488-1.15 6.26-1.145 1.939.003 2.693.051 3.836.245 1.333.226 2.603.597 2.726.796.03.048-.74.119-1.71.157-3.559.139-8.171.728-9.006 1.151-.154.078-.786.528-1.403.999-1.35 1.031-2.617 1.668-3.785 1.906-.922.188-4.468.255-4.468.085zM5.124 69.634c-.556-.083-1.238-.222-1.516-.309l-.505-.158.337-.137c.64-.261 2.024-.462 4.319-.626 2.378-.17 4.148-.341 4.828-.466.39-.071.39-.071.215.198-.238.367-1.098.937-1.823 1.208-1.248.467-3.822.594-5.856.29zm-21.332-.341l-1.222-.166c-.968-.131-2.149-.462-2.458-.689-.162-.119.23-.146 2.247-.156 3.874-.02 6.685-.41 9.544-1.325 2.418-.774 3.04-.874 5.418-.869 2.8.006 5.551.419 6.868 1.031l.486.226-.618-.062c-2.497-.249-6.67-.136-8.86.24-.52.089-1.648.392-2.506.672-2.725.891-3.744 1.07-6.317 1.11-1.235.019-2.397.014-2.582-.011zm100.846-1.391c-3.406-.225-5.427-.793-10.612-2.983-1.723-.728-3.195-1.206-5.671-1.842-1.101-.283-1.546-.341-2.615-.341-1.335 0-3.178.161-3.861.338l-.393.102.257-.213c.39-.324 1.955-.891 3.336-1.209 1.646-.379 2.85-.374 5.165.02 1.922.328 3.283.747 6.4 1.971 2.633 1.034 3.793 1.418 5.07 1.677 2.346.477 8.441.852 12.462.768 2.433-.051 2.633-.072 3.902-.409.735-.195 1.567-.457 1.848-.581l.511-.226-.25.266c-.68.724-2.971 1.729-4.639 2.036-3.01.553-7.827.83-10.91.627zM111 67.574c-.623-.06-.645-.072-.295-.15.208-.046.745-.084 1.193-.084 1.133 0 2.779-.438 3.85-1.025.476-.261 1.952-1.18 3.279-2.044s2.869-1.79 3.424-2.059c1.828-.885 4.096-1.142 5.865-.666.63.169 2.981 1.241 3.857 1.757a15.84 15.84 0 0 0 3.245 1.362c.56.149 1.374.244 2.429.285 1.99.076 2.36-.025 5.261-1.44 3.309-1.614 4.641-1.769 8.145-.946 1.879.441 3.485.992 5.503 1.886 1.181.523 2.504 1.003 3.793 1.374.567.164.115.158-.888-.012-.582-.098-2.043-.499-3.247-.89-3.796-1.233-5.844-1.664-7.915-1.667-1.81-.003-2.357.163-4.94 1.499-1.173.607-2.487 1.213-2.919 1.346-1.082.335-2.521.401-4.111.191-1.977-.262-2.524-.469-6.363-2.413-1.894-.959-2.527-1.144-3.914-1.144-1.915 0-3.091.402-5.934 2.03-3.46 1.981-4.872 2.636-6.053 2.807-.733.106-2.173.106-3.266 0zm-77.077-1.363c-2.093-1.128-2.801-1.293-5.105-1.185-1.889.088-4.101-.067-5.431-.382-1.456-.345-3.475-.998-4.172-1.349-.66-.333-1.621-.994-1.549-1.066.024-.024.428.079.898.228.939.298 4.447.884 6.416 1.071.689.066 2.288.106 3.554.09 2.241-.029 2.325-.021 3.2.273.494.166 1.119.45 1.389.63 1.064.711 2.968 2.617 2.578 2.581-.082-.007-.882-.408-1.778-.891zm-23.297-.218c-.432-.116-1.394-.517-2.136-.892-.813-.41-1.662-.749-2.133-.85-.661-.143-5.586-.612-6.447-.615-.396-.001-.154-.173.443-.314 2.008-.474 5.413-.666 6.624-.373.34.082 1.274.47 2.077.861 1.549.755 2.227.967 3.761 1.176 1.081.147 2.733.06 3.424-.181.684-.238.812-.205.499.128-.355.378-1.464.9-2.362 1.112-1.002.236-2.77.212-3.751-.051zm27.482-.166c-.608-.171-1.716-.697-2.108-1.001-.282-.219-.271-.219.982 0 1.5.261 2.442.17 3.958-.386 2.399-.879 3.57-1.082 5.811-1.007 1.344.045 1.575.084 2.402.41.99.389 2.426 1.257 2.206 1.332-.074.026-.554-.032-1.067-.127-1.675-.312-2.736-.383-4.162-.278-1.81.133-2.573.27-4.124.74-1.537.467-2.957.582-3.899.317zm51.748-1.035c.267-.272.965-.818 1.553-1.213 2.798-1.882 5.588-2.639 8.828-2.393 1.682.127 2.606.382 4.957 1.367 2.511 1.052 2.803 1.136 4.744 1.368 1.335.16 1.808.17 2.901.066 1.502-.143 2.668-.439 3.613-.916.717-.362 2.478-1.031 2.543-.966.022.022-.303.256-.721.521l-1.491.967c-.874.582-1.806.973-3.123 1.309-.85.217-1.256.248-3.165.241-2.604-.009-2.947-.085-5.825-1.285-2.804-1.169-3.226-1.261-5.851-1.275-1.849-.01-2.355.025-3.256.226-1.353.301-2.921.888-4.751 1.778l-1.439.7zm-103.145-.079c-.432-.083-1.291-.294-1.909-.469-1.037-.295-1.268-.319-3.031-.317-1.635.002-2.01.036-2.616.238-.92.306-.85.106.15-.436.873-.473 1.782-.719 3.242-.878 1.046-.114 1.782-.051 3.322.284.463.101 1.403.21 2.089.244 1.705.083 2.621-.129 4.262-.988 2.398-1.255 3.65-1.492 6.532-1.238 1.37.121 2.939.431 3.351.661.102.057-.601.1-1.715.106-2.061.011-4.262.24-5.144.535-.309.104-.991.42-1.516.704-1.82.984-2.221 1.167-3.045 1.393-1.051.288-2.907.363-3.972.159zm96.104-.852c-1.064-.093-1.868-.274-2.831-.634-.795-.298-1.937-.916-1.937-1.048 0-.048.594-.114 1.319-.145a79.73 79.73 0 0 0 3.228-.238c4.475-.423 6.199-.705 7.984-1.309 1.172-.396 1.266-.405.987-.095-.752.836-2.527 1.77-4.138 2.177l-1.005.254.668.137c.368.075.845.213 1.061.307l.393.17-.337.101c-1.238.373-3.365.5-5.393.322zm77.922-.083c-.124-.031-.73-.26-1.347-.508-1.414-.57-2.169-.753-2.777-.674l-.479.062.21-.237c.116-.13.432-.322.703-.425.688-.263 1.438-.161 2.977.406l1.274.469 1.881-.039c1.034-.021 1.881-.002 1.881.043 0 .142-.622.41-1.63.702-.928.269-2.077.355-2.693.201zm-186.32-.515c-.511-.199-.824-.237-1.81-.219-.656.012-1.412.071-1.681.131s-.507.092-.529.07c-.114-.114.267-.538.683-.76.642-.342 1.989-.335 2.899.014.718.275 1.659 1.018 1.28 1.009-.124-.003-.502-.113-.842-.245zm162.237-.625c-.525-.181-1.257-.362-1.628-.403l-1.884-.235c-.666-.088-1.436-.16-1.712-.16s-.501-.044-.501-.098c0-.147.975-.533 1.74-.69.902-.184 1.445-.572 2.976-2.122 1.406-1.424 2.208-1.928 3.705-2.329 1.116-.299 4.408-.246 4.214.068-.031.05-.525.205-1.097.343-1.374.333-3.123.945-3.959 1.385-.773.407-3.089 2.544-2.757 2.544.112 0 .695.152 1.297.337s1.334.337 1.627.337c.711 0 2.068-.245 4.031-.729.889-.219 1.639-.375 1.667-.348.096.096-1.358 1.088-2.151 1.467-1.417.677-2.152.874-3.433.92-1.072.039-1.265.013-2.133-.286zM25.558 61.99c-2.15-.447-3.694-.858-5.165-1.374l-1.796-.63h-2.605c-1.433 0-2.565-.04-2.517-.088s.791-.272 1.651-.496c1.397-.365 1.711-.408 2.966-.407 1.287.001 1.52.036 2.807.416.772.228 2.182.59 3.134.804 2.359.531 3.309.53 5.414-.004 1.726-.438 2.639-.492 3.776-.224.678.16 1.894.695 1.798.791-.026.026-.501.005-1.056-.046-1.353-.125-2.276.004-3.598.502-1.71.644-2.539.831-3.623.817-.529-.007-1.063-.034-1.186-.06zm24.692-1.052c-.911-.165-2.504-.765-3.416-1.286-1.533-.876-3.594-1.861-4.595-2.197-2.015-.675-4.196-.523-6.477.452-1.462.625-2.532.787-5.195.786-2.383-.001-3.903-.17-5.085-.566-.885-.297-3.518-1.546-3.435-1.63.034-.034.661.121 1.393.344 2.653.808 3.735.928 6.668.745 2.643-.165 3.713-.366 5.095-.957 2.344-1.001 4.713-1.261 6.752-.741 1.156.295 3.483 1.434 5.045 2.469 2.13 1.412 3.817 2.089 5.494 2.205.437.03.921.084 1.075.119l.281.064-.337.099c-.512.15-2.621.212-3.265.095zm109.87-.016c-.216-.06-.848-.318-1.403-.572-1.449-.663-2.056-.667-4.042-.026-.143.046-.061-.079.225-.344.578-.536 1.471-.949 2.217-1.025.606-.062.607-.062 2.948.794.988.361 2.002.379 4.234.074 1.803-.246 3.361-.347 3.278-.212-.075.121-3.111 1.076-4.058 1.277-.855.181-2.802.201-3.397.034zm-89.427-.725c-.895-.249-1.186-.277-2.548-.246l-1.537.035.239-.255c.289-.307 1.4-.667 2.366-.766.568-.058.932-.013 1.878.233 1.031.268 1.316.298 2.352.247.83-.041 1.443-.143 2.07-.346.49-.158.908-.27.929-.249.105.105-.984.923-1.638 1.231-.667.314-.864.352-1.923.374-.965.02-1.362-.027-2.189-.257zm67.982.072c0-.217 1.058-1.028 1.81-1.387 1.615-.772 3.022-.92 5.544-.582 1.443.193 3.663.218 4.96.055.939-.118 2.429-.531 3.783-1.05.931-.357.947-.358.678-.056-.673.753-2.797 1.931-4.143 2.296-1.073.291-4.213.346-5.858.102-2.388-.354-4.396-.197-6.183.484-.324.123-.589.185-.589.137zM9.279 59.521c-1.638-.217-2.908-.491-2.79-.604.052-.05.853-.172 1.779-.272 2.202-.237 3.161-.508 4.819-1.361.752-.387 1.669-.794 2.036-.904.822-.246 2.649-.274 3.531-.055.769.191 1.874.686 2.245 1.005l.281.241-.786-.084c-1.226-.131-3.396-.068-4.323.126-.54.113-1.325.417-2.189.848-.741.37-1.625.747-1.965.837-.659.176-2.083.296-2.638.222zm-15.438-.331c-.463-.084-1.398-.29-2.077-.457-1.066-.262-1.45-.302-2.807-.291-1.705.014-3.079.225-3.804.584-.248.123-.468.205-.489.184s.121-.199.316-.395c.858-.858 2.755-1.467 4.819-1.547 1.261-.049 1.58-.019 3.144.3 1.549.316 1.956.355 3.705.361 2.135.006 6.078-.267 7.691-.534a26.92 26.92 0 0 0 2.059-.444c.577-.153 1.081-.277 1.121-.277.179 0-.867.62-1.638.972-2.91 1.326-8.97 2.104-12.039 1.545zm88.853-.051c-.793-.157-1.391-.338-1.39-.422 0-.044.518-.088 1.151-.099 1.956-.032 3.538-.58 5.677-1.964 1.229-.795 2.372-1.338 3.388-1.608.951-.253 3.849-.358 4.887-.178 1.098.191 2.535.805 4.29 1.833 2.728 1.598 3.659 1.933 5.733 2.065.636.041 1.115.115 1.064.165-.161.161-2.298.343-3.115.266-1.057-.101-2.373-.55-4.27-1.458-.865-.414-1.967-.899-2.451-1.079-1.628-.604-3.936-.689-5.798-.214-1.093.279-1.37.398-2.812 1.204-.649.363-1.52.796-1.936.963-1.334.534-3.233.76-4.418.525zm26.79-.29c.216-.1 1.05-.35 1.853-.556 2.33-.597 3.521-1.091 5.026-2.085 1.723-1.138 2.464-1.382 4.18-1.377 1.496.005 1.875.129 3.873 1.269 2.545 1.452 4.451 2.04 6.614 2.043.904.001 1.138.03.977.122-.492.28-1.424.426-2.707.425-2.133-.001-3.336-.328-5.89-1.601l-1.623-.809h-1.296c-1.519 0-1.698.058-3.388 1.095-1.38.847-1.499.897-2.99 1.254-.895.214-1.585.29-3.088.339-1.844.06-1.917.055-1.542-.119zm-53.78-.165c-.936-.161-2.278-.637-2.824-1.001-.268-.179-.862-.657-1.32-1.061-1.66-1.467-2.359-1.681-5.512-1.68-1.627 0-2.371.046-2.896.178-.88.222-.865.068.04-.426 1.379-.753 3.866-1.182 5.586-.965 1.533.194 2.379.613 3.789 1.88.397.357.949.794 1.227.972 1.492.956 5.853 1.727 7.86 1.389.73-.123.457.102-.572.472-.765.275-.987.301-2.796.324-1.081.014-2.243-.023-2.582-.081zm7.514-.312c.316-.591 1.365-1.105 2.724-1.334.995-.168 1.103-.163 3.597.145l2.572.318 1.649-.25c.907-.138 2.002-.275 2.435-.304l.786-.054-.449.21c-.937.438-3.205 1.151-4.06 1.275-.79.115-1.153.096-3.243-.173-1.294-.166-2.707-.301-3.139-.298-.903.005-2.121.238-2.636.505-.345.178-.351.177-.235-.04zm43.068-1.718c.389-1.283 2.433-2.758 4.433-3.198.655-.144 1.54-.19 3.986-.207 1.729-.012 3.391-.062 3.693-.111 1.274-.206-.152.475-1.663.794-.437.092-1.881.239-3.209.327-1.69.111-2.66.228-3.235.39-1.08.305-2.656 1.104-3.449 1.75-.541.441-.624.479-.556.255zm29.194-.212c.404-.446 2.424-1.262 4.287-1.732 2.259-.569 4.08-.75 5.672-.565 1.374.16 2.378.39 3.151.721.273.117.919.299 1.437.405 1.439.294 2.204.187 4.746-.668 1.18-.397 2.448-.782 2.817-.856 1.245-.248 3.08.034 5.616.863 1.364.446 3.123 1.164 3.045 1.243-.028.028-.522-.078-1.098-.235-2.756-.75-4.237-1.005-5.876-1.015-1.515-.009-1.608.004-2.582.365-3.473 1.286-3.893 1.408-5.001 1.456-1.216.053-2.503-.163-3.578-.6-1.45-.589-3.552-.865-5.448-.714-2.541.202-5.803.842-6.84 1.344-.566.273-.604.272-.347-.013zm-136.868-.669c-1.218-.086-2.704-.471-3.223-.834-.5-.351.726-.534 3.501-.523 2.877.011 5.505.229 5.505.456 0 .129-1.094.537-1.959.73-.943.211-2.365.274-3.823.171zm56.979-.11c.26-.485 1.841-1.422 3.145-1.863.918-.31 2.335-.273 3.873.102.686.167 1.926.358 2.79.43 1.885.156 3.178.04 5.602-.503.911-.204 1.656-.338 1.656-.297s-.392.256-.87.48c-3.276 1.531-5.844 1.773-9.515.895-1.8-.43-2.897-.413-4.491.069-.679.206-1.478.497-1.775.647-.52.263-.535.265-.415.04zm72.085-.34c-.529-.124-1.525-.495-2.245-.837-1.672-.794-2.155-.958-2.831-.958-.702 0-.612-.17.175-.334.502-.104.763-.089 1.598.093.549.12 1.409.371 1.912.559s1.457.429 2.12.537c1.455.237 2.521.148 5.713-.476 2.111-.413 5.12-.65 5.265-.415.039.063-.394.195-1.022.312-.599.112-1.898.428-2.886.701-2.945.816-3.576.935-5.277.989-1.298.042-1.737.012-2.523-.172zm-49.436-.176c.883-1.249 2.955-2.664 4.861-3.319 1.004-.345 1.155-.366 2.637-.365 1.866.001 2.981.168 6.178.925 2.554.605 5.619 1.141 6.511 1.139.308-.001 1.294-.072 2.192-.159 1.621-.156 1.644-.163 3.163-.844 2.268-1.018 3.115-1.248 4.86-1.321 1.407-.059 2.499.039 3.463.311.237.067.411.142.386.167s-.775.1-1.667.167c-2.721.204-4.088.542-6.751 1.67a13.76 13.76 0 0 1-2.189.683c-1.411.284-3.491.404-4.301.248-.34-.066-1.35-.23-2.245-.365s-2.74-.489-4.098-.786c-4.751-1.039-6.449-1.1-8.683-.311-1.499.529-2.72 1.186-4.282 2.307l-.278.2zm-93.493-.381c0-.208.765-.872 1.305-1.133.796-.385 2.106-.424 3.741-.111.799.153 1.625.235 2.215.221.517-.012.972.009 1.01.047.107.107-1.066.616-1.745.757-.485.101-.877.087-2-.07-1.599-.223-2.648-.176-3.749.169-.851.267-.778.255-.778.121zm-16.901-1.866c.548-.484 1.578-.995 2.474-1.226 1.226-.317 2.227-.332 3.934-.056 1.643.265 2.421.27 7.799.044 1.048-.044 1.588-.03 1.516.04-.185.179-2.715.941-4.098 1.234-1.723.365-3.732.397-5.389.085-1.696-.319-4.183-.303-5.538.035-.545.136-1.025.246-1.067.243s.125-.182.37-.398zm96.897-.061c-1.19-.252-1.856-.331-2.74-.327-1.11.006-2.341.142-2.783.308-.174.065-.182.051-.057-.103.187-.23 1.334-.704 2.267-.937 1.013-.252 1.914-.226 3.931.118 1.61.274 1.828.287 2.919.171.648-.069 1.502-.199 1.897-.29a71.39 71.39 0 0 0 4.436-1.279c.785-.271.992-.286.684-.049-.909.701-3.411 1.864-4.887 2.271-2.011.554-3.457.584-5.667.116zm-65.456.168c-.718-.081-3.793-.596-3.839-.643-.293-.293 7.744-.858 12.204-.857 2.624 0 3.794.126 5.17.554.637.198 1.854.881 1.752.983-.027.027-.344-.043-.706-.155-.813-.251-3.823-.279-6.664-.061-1.943.149-7.145.267-7.915.18zm150.055.003c-1.087-.13-1.916-.312-3.062-.674-1.095-.345-1.407-.397-2.383-.396-.618.001-1.549.08-2.069.175s-.966.154-.99.13c-.068-.068 1.175-.513 2.095-.749 1.186-.305 2.34-.278 3.8.089 1.082.272 1.413.304 3.227.309 1.949.005 2.083-.01 3.761-.409 3.324-.791 4.193-.799 8.532-.079 1.08.179 2.394.377 2.919.439 1.676.199 3.983.589 4.098.693.155.14-4.11.001-6.118-.199-5.905-.589-5.817-.591-9.375.197-1.942.43-3.454.592-4.435.474zm-160.609-.436c-.775-.183-3.266-.224-3.698-.06-.35.133-.382-.016-.069-.328.711-.711 2.526-.983 4.16-.623 1.057.233 2.632.208 3.954-.061.619-.126 1.151-.205 1.181-.174.103.103-1.353.967-1.927 1.144-.798.246-2.759.302-3.601.103zm87.291-.164c.174-.325 1.275-.999 2.399-1.469 1.86-.777 4.017-1.231 5.853-1.231 1.901 0 6.959.63 9.602 1.195a18.91 18.91 0 0 0 2.526.335c1.071.051 1.377.022 2.302-.218.587-.152 1.081-.263 1.099-.247.083.075-.88.547-1.626.798-1.025.344-2.268.446-3.516.288l-9.712-1.091c-2.173-.191-6.95.69-8.561 1.579-.413.228-.462.236-.368.06zm41.937-.752c-1.258-.127-3.673-.524-4.69-.771-2.067-.501-3.465-.664-5.639-.657-2.209.007-4.299.237-5.463.602-.976.306-1.021.286-.381-.169 1.067-.758 4.202-1.514 6.282-1.514 1.533 0 3.603.286 5.68.786 3.29.791 4.405 1.011 6.007 1.186l1.965.241.393.069-.449.082c-.578.105-3.12.205-3.705.146z" class="B"/><g class="C D"><g class="E"><path d="M-9.393 49.609c10.567-3.249 25.868-7.961 29.428-8.156 7.241-.289 13.637 4.714 20.927 3.876 9.763-.339 19.481-1.747 29.263-1.519 2.648.07 18.867-3.766 29.646-2.914 12.658 1.51 15.197-.648 21.768-2.462 5.087-1.174 11.052.224 15.926-1.448 5.736-1.662 11.341-3.824 17.449-3.468 3.913-.047 7.815.345 11.727.358 1.989 1.011 2.374 3.32 1.369 5.137-1.156 3.123-1.292 6.49-2.081 9.704-3.92 1.744-8.195.142-12.277.374-27.123-.637-54.258-1.129-81.389-.72-2.602.02-15.037 2.641-22.674 2.845-6.699.275-13.388-.353-20.085-.353l-38.997-1.252z" fill="url(#E)"/><g class="B"><path transform="rotate(355.065)" d="M19.481 43.386h106.804v2.319H19.481z"/><path d="M167.415-1.176l-28.778.397c.959 1.151 2.295 1.904 2.318 3.281v4.07h.002v46.147h5.027V6.38c.037-2.578 2.819-3.717 5.093-3.768h16.338z"/><path d="M129.862 18.73l-1.886 3.561-.116 30.427h3.969l-.045-17.452h9.205l-.053 17.452h5.069l-.057-17.452h23.016v-3.741h-23.03l-.009-3.087h23.016v-3.742h-23.02l.002-2.405-2.43-3.561-2.409 3.561-.02 2.405h-9.301l.002-2.405zm1.904 9.707h9.268l-.022 3.087h-9.238l-.008-3.087z"/></g><path d="M135.97-4.381l25.459-4.251 5.358 5.027" fill="#a53411"/><g class="B"><path transform="rotate(1.391)" d="M136.087-7.662h30.716v4.022h-30.716z"/></g></g><g class="F B"><path d="M10.977 46.118h22.297v8.285H10.977zm2.443-30.689l2.433 8.065h3.089l2.433-8.065H13.42z"/><path d="M15.615 22.909h3.612v5.87h-3.612z"/><path d="M15.615 27.174h13.021v27.26H15.615z"/><path d="M22.125 27.346v26.977m-6.207-41.554l-2.72 2.572 8.396-.005-2.728-2.567h-.482-1.985z"/></g><path d="M17.393 9.354l-1.401 3.379 2.859.012z" class="B G"/><g class="E"><g fill="#5e9e41"><path d="M96.507 6.003c3.475.533 5.235-.418 6.73-2.183-2.364-.922-5.466.379-6.73 2.183zm7.888-.43c1.8 1.261 2.57 3.009 1.389 4.928-1.112-1.295-2.783-2.613-1.389-4.928z"/><path d="M104.495 3.007c1.132 3.116-1.232 6.247-3.488 7.804-.678-3.194.578-6.66 3.488-7.804z"/></g><path d="M121.865 21.983c-.484 1.651-1.322 3.656-.748 5.776 2.087-2.778 4.837-3.757 5.108-5.083" fill="#4e9240"/><g fill="none"><path d="M118.556 23.725c2.104-2.142 5.223-1.345 6.314-3.637m-7.105-14.814c-1.208 1.555-3.859 1.81-4.027 4.946 3.577-.683 4.187-1.488 5.159-2.365m-3.662-10.638c-1.873 1.401-3.015 2.91-4.27 4.362 2.454-.061 4.489.164 5.24-.573"/><path d="M109.178-2.724c-.511.531-1.296 1.1-2.011 1.66 2.446-.047 3.668.495 5.379.889m38.715-19.142c-.512 2.507-3.672 4.449-4.139 7.577 1.692-.191 3.309-.557 4.63-1.614-.277 1.312-.018 2.344.889 3.718 1.007-1.049 1.763-1.016 2.292-1.848m-20.463-5.448c-1.699-.986-3.279-2.358-6.104-1.567.383 1.903 1.723 3.56 3.11 5.238-2.88-.766-5.55.763-8.466 4.28 3.632-1.522 5.613-.106 8.583-1.333-2.561 1.95-5.094 3.96-6.922 7.437 2.3-.362 4.365-.724 6.665-3.181-1.541 3.444-1.648 5.044-1.543 7.156 1.769-1.355 3.603-3.069 3.835-5.776m-14.367-4.318c-1.79.56-3.241 2.14-4.663 3.803 1.989.438 3.745.268 5.424-.099-1.059 1.466-1.953 2.838-2.719 5.181 1.635-.225 3.295-.481 5.358-1.257-.957 1.047-1.728 1.831-2.57 3.686 1.775-.148 3.294-.756 4.76-1.459-.958 1.541-1.525 2.973-1.926 5.134 2.262-.354 3.189-1.444 4.704-2.488-.114 1.472.368 3.071 1.124 4.729.768-1.299 1.779-2.579 1.786-3.936m-10.662 5.244c-.682 1.893-.526 3.798-.398 5.94 1.5-1.043 3.162-1.833 4.537-3.251-.84 1.846-1.67 3.337-1.707 5.122 3.247-1.268 6.036-3.122 8.162-5.823"/><path d="M126.6 6.423c-.927 1.656-1.939 3.553-1.952 5.949.966-.464 1.853-1.064 2.907-2.366-.422 1.84-1.157 3.465-.545 4.891m-7.11 5.648c1.029-1.006 1.653-1.376 3.18-1.766m3.027-.953c-.279 1.362-.361 2.723.149 4.085.535-.492 1.302-.976 1.389-1.918m-5.804-36.381c-.616.422-1.457 1.183-1.852 2.017 1.456.837 2.603.495 4.018.529-.736.398-1.485.778-2.051 1.389 1.178.87 2.152 1.157 3.241 1.042m11.682 21.233c-1.124 1.322-1.666 3.535-1.731 6.478 1.335-1.119 2.911-2.072 3.485-3.718m-2.97-7.344c-1.82 1.999-3.809 3.882-3.882 7.086 1.996-.735 3.516-2.095 4.514-4.139M134.634.21c-1.087 1.2-1.343 2.722-.748 4.981.717-.892 1.853-1.613 2.222-2.456m-5.999 11.834c.041 1.085.274 2.123.843 3.076 1.15-.79 1.509-1.71 2.232-2.927-.339 1.406-.294 2.48-.198 3.886.533-.231 1.064-.472 1.554-.876.151 1.316.812 2.262 1.389 3.291.716-1.003 1.023-2.123 1.455-3.208m2.231-39.887h0c-.665.136-1.291.465-1.894.912 1.872 1.322 3.187 1.162 4.724 1.59-1.315 1.127-2.649 2.1-3.905 3.695 1.668.639 3.336.342 5.005.07-1.482 1.217-2.953 2.448-4.069 4.093 1.945.153 3.853.176 5.613-.351-.922 1.063-1.528 2.05-1.847 3.414 2.191-.366 3.824-1.122 5.402-1.918m-10.758-2.432c-1.488 1.157-2.548 3.286-2.75 5.413 1.873-.551 3.549-1.564 5.159-2.729m19.596 15.604c-.927 1.462-.207 2.853.234 4.256 1.013-.975 2.066-1.936 1.988-3.274m-13.12.351c.02 1.295.574 2.517 1.964 3.625.725-1.172 1.49-2.34.514-3.695m.305-2.759c.504.904 1.304 1.815 2.83 2.479.426-.744.362-1.317-.07-2.245m-5.871 9.073c.254.936.99 1.831 2.736 2.643.383-.851.806-1.694.585-2.666"/></g></g></g></g><path d="M65.791-71.732c-56.155 0-101.684 45.531-101.684 101.686S9.636 131.637 65.791 131.637 167.475 86.108 167.475 29.953 121.946-71.732 65.791-71.732zm0 .662c55.797 0 101.023 45.226 101.023 101.023S121.588 130.975 65.791 130.975-35.232 85.75-35.232 29.953 9.994-71.07 65.791-71.07z"/><g class="C D F"><path d="M22.093 94.923l-9.608 4.785-2.448 14.864a99.911 99.911 0 0 0 .353.241 99.911 99.911 0 0 0 110.804.002 99.911 99.911 0 0 0 .353-.237l-2.449-14.869-9.596-4.779a76.892 76.892 0 0 1-.952.65 76.892 76.892 0 0 1-85.51-.008 76.892 76.892 0 0 1-.946-.648z" class="B"/><path d="M22.078 96.277l-8.46 4.21-2.293 13.49.345.236c16.029 10.678 34.859 16.284 54.121 16.285s38.124-5.606 54.153-16.284l.345-.232-2.269-13.464-8.471-4.269-.93.634c-12.36 8.268-27.956 12.817-42.828 12.818S35.36 105.179 23.002 96.91l-.924-.632z" fill="#fff200"/></g><g transform="matrix(.925997 .442543 -.325177 .680414 57.862537 -11.686352)"><path d="M25.514 172.789l-3.041 2.454-2.362-5.279q-.633.448-1.405.448-.494 0-.926-.17-.417-.185-.741-.494-.324-.309-.509-.741-.185-.432-.185-.942 0-.479.185-.911.185-.432.509-.756.324-.324.741-.509.432-.185.926-.185 1.621 0 2.346 1.605l1.574 3.766.448 1.358q-.031-.17-.046-.293-.015-.123-.015-.216-.077-.648-.123-.988-.031-.355-.031-.525v-5.433q-.154-.154-.432-.309-.278-.154-.648-.278-.355-.123-.787-.201-.417-.077-.88-.077-.587 0-1.173.093-.571.077-1.158.278-.587.201-1.204.54-.617.34-1.281.864v-2.146q.957-.679 2.223-1.096 1.266-.417 2.624-.417 3.103 0 4.924 1.636v7.841q0 .494.077.725.077.232.37.355zm-5.819-4.723q0-.37-.293-.679-.293-.324-.695-.324-.37 0-.679.309-.293.293-.293.695 0 .401.278.695.293.293.695.293.386 0 .679-.293.309-.309.309-.695z"/><use href="#F"/></g><path d="M36.426 121.625q-.733.276-1.685.267-.949-.02-2.326-.497-.988-.342-1.867-.806-.864-.459-1.584-1.139.342-.067.418-.287.042-.121.028-.372l-.313-6.365 2.162-.484.248 7.427q.078.064.243.17.164.106.363.212.198.105.411.216.217.1.397.162.464.161.858.186.409.031.716-.035l1.389-4.015-.322-.087q-.509-.176-.909-.474-.385-.293-.645-.654-.242-.367-.326-.753-.08-.397.049-.771.129-.374.434-.626.309-.263.722-.391.428-.123.912-.116.499.012 1.008.188.509.176.898.458.404.287.649.643.264.35.345.747.08.397-.056.793zm.642-6.946q.091-.264-.117-.582-.19-.324-.579-.459-.374-.129-.735-.008-.357.111-.456.397-.099.286.098.588.212.307.601.442.374.129.731.019.361-.122.456-.397zm15.061 4.056q-.186.829-1.256 1.114.096.081.137.114.044.021.044.021.176.159.194.294l-1.185 5.293-2.409.391 1.343-5.998-6.03 4.018-2.285.419L42 118.517l-.314-.046q-.526-.118-.956-.369-.415-.248-.699-.574-.266-.334-.378-.705-.109-.382-.023-.769.086-.386.346-.674.262-.299.642-.476.396-.174.877-.221.497-.044 1.022.074.526.118.943.354.433.24.717.566.287.315.411.701.125.386.033.795l-.74 3.306q-.081.364-.217.679-.136.316-.302.624.229-.223.39-.366.18-.151.509-.387l3.244-2.16q-.217-.263-.311-.571-.094-.307-.012-.671.079-.352.333-.617.272-.273.663-.424.394-.162.872-.198.479-.036.989.078.526.118.943.354.418.237.692.537.289.303.404.663.13.363.051.715zm-1.618-.386q.064-.284-.143-.521-.207-.237-.562-.317-.356-.08-.644.047-.288.126-.352.41-.064.284.143.521.207.237.562.317.356.08.644-.047.288-.126.352-.41zm-7.497-1.536q.061-.273-.182-.566-.225-.301-.627-.391-.386-.087-.747.071-.342.15-.408.445-.066.295.179.577.245.282.647.372.371.083.713-.067.36-.158.424-.442z"/><g transform="matrix(1.025335 .044752 -.032883 .753407 6.086048 -7.069425)"><path d="M60.925 172.712q0 .54-.201 1.003-.185.448-.525.772-.34.324-.803.509-.463.185-.988.185-.525 0-.988-.185-.463-.185-.803-.509-.34-.34-.54-.787-.201-.463-.201-.988 0-.525.201-.972.201-.463.54-.803.34-.34.803-.54.463-.201.988-.201l.309.031v-5.341q-.386-.293-1.019-.494-.633-.216-1.513-.216-1.173 0-2.022.324-.648.216-1.297.617-.648.386-1.389.926v-2.238q.957-.695 2.146-1.127 1.189-.448 2.532-.448 1.713 0 2.825.401 1.127.401 1.945 1.235zm-1.605 0q0-.401-.293-.679-.293-.293-.695-.293-.37 0-.679.309-.293.293-.293.664 0 .386.278.71.293.309.695.309.185 0 .355-.077.185-.093.324-.232.139-.139.216-.324.093-.185.093-.386z"/><use href="#F" x="35.873"/></g><path d="M76.64 126.076l-2.248.988-.266-7.55q-.197-.203-.536-.354-.322-.152-.738-.242-.4-.102-.877-.144-.462-.054-.952-.036-1.884.066-3.099.68.372.22.389.685l.141 4.002q.007.198-.016.455-.007.257-.077.527.075-.131.12-.191.061-.072.09-.131.121-.167.228-.276.107-.12.183-.216l1.442-1.355q-1.312-.35-1.35-1.408-.012-.349.151-.658.163-.32.44-.563.293-.243.7-.386.407-.154.882-.171.475-.017.892.108.416.113.725.336.324.21.51.518.185.296.198.657.02.57-.636 1.304l-3.849 3.688-2.802 1.007-.236-6.689q-.016-.442-.216-.726-.2-.284-.793-.461.663-.524 1.316-.897.668-.385 1.373-.631.704-.258 1.492-.39.788-.133 1.722-.165 3.578-.126 5.443 1.52zm-4.493-4.699q-.009-.268-.238-.446-.229-.19-.624-.176-.317.011-.579.218-.247.195-.237.463.022.617.861.587.364-.013.595-.196.231-.183.222-.45zm18.756 2.361l-2.072 1.318-1.472-7.754q-.089-.043-.175-.073-.086-.031-.175-.073-.053-.025-.153-.042-.1-.016-.235-.05l-1.927 1.314-2.49-.629q-.191.096-.388.251-.198.144-.281.219.042.051.071.117.029.066.046.157l.879 4.632q.056.297.069.532.026.22-.028.361.06-.106.098-.161.054-.058.074-.121.101-.149.177-.259.074-.121.17-.21l1.239-1.456q-1.339-.089-1.543-1.164-.061-.32.056-.639.13-.333.385-.606.252-.285.618-.485.379-.214.83-.3.482-.092.911-.042.429.049.766.21.335.15.562.415.228.265.293.608.067.355-.019.667-.088.301-.414.707l-3.263 3.961-2.648 1.427-1.422-7.491q-.041-.217-.256-.414-.199-.199-.628-.248.591-.456 1.252-.878.677-.425 1.499-.853.307-.165.753-.368l2.346.55 2.086-1.415q.386.081.657.148.271.067.475.123.579.163 1.047.334.484.169.84.35zm-5.098-3.665q-.05-.263-.303-.405-.253-.142-.642-.068-.311.059-.541.292-.214.23-.164.493.117.618.942.461.358-.068.559-.284.199-.227.149-.49z"/><g transform="matrix(.958447 -.367008 .269674 .704258 -38.938616 33.076745)"><path d="M99.777 162.154l-1.791 3.319q-.88-.648-1.791-1.003-.895-.355-1.852-.355-.834 0-1.451.355-.617.34-.926.911 1.065 0 1.976.077.911.062 1.729.216.818.154 1.574.417.756.262 1.497.648v5.974q0 .54-.201 1.003-.185.448-.54.772-.34.324-.803.509-.463.185-.988.185-.525 0-.988-.185-.448-.185-.803-.509-.34-.34-.54-.787-.201-.463-.201-.988 0-.525.201-.972.201-.463.54-.803.355-.34.803-.54.463-.201.988-.201l.309.031v-2.377q-.448-.17-1.05-.309-.602-.139-1.343-.232-1.574-.185-5.156-.185.154-1.05.571-1.945.432-.895 1.081-1.544.648-.664 1.497-1.034.864-.37 1.868-.37 1.343 0 2.269.262.926.262 1.621.741l1.466-1.081zm-2.655 10.558q0-.401-.293-.679-.278-.293-.679-.293-.386 0-.695.309-.293.293-.293.664 0 .185.077.37.077.185.216.34.139.139.309.232.185.077.386.077.386 0 .679-.309.293-.309.293-.71z"/><use href="#F" x="73.676"/></g><path d="M113.595 113.596q-.325.712-1.006 1.377-.687.655-1.999 1.288-.942.454-1.892.745-.936.284-1.926.309.195-.288.094-.498-.056-.115-.243-.284l-4.71-4.293 1.192-1.868 5.412 5.091q.101-.01.292-.051.191-.041.406-.106.215-.065.444-.137.224-.082.395-.165.442-.213.739-.473.311-.266.483-.53l-1.847-3.827-.289.166q-.485.234-.979.304-.48.063-.919-.009-.43-.09-.762-.304-.337-.225-.509-.581-.172-.356-.133-.75.034-.404.236-.786.217-.389.565-.725.362-.343.847-.577.485-.234.96-.308.489-.081.914-.001.434.062.772.287.337.225.519.602zm-4.443-5.379q-.121-.252-.494-.33-.363-.096-.734.083-.357.172-.527.513-.175.33-.043.603.132.273.484.348.367.068.738-.111.357-.172.532-.502.17-.341.043-.603z"/></g></svg>