<?xml version="1.0" encoding="UTF-8" standalone="no"?>
<!-- Creator: CorelDRAW X6 -->

<svg
   xml:space="preserve"
   width="297mm"
   height="148.5mm"
   version="1.1"
   style="shape-rendering:geometricPrecision; text-rendering:geometricPrecision; image-rendering:optimizeQuality; fill-rule:evenodd; clip-rule:evenodd"
   viewBox="0 0 29700 14850"
   id="svg2165"
   sodipodi:docname="Flag_of_the_Tajik_Soviet_Socialist_Republic_(1931–1935).svg"
   inkscape:version="1.2.2 (732a01da63, 2022-12-09)"
   xmlns:inkscape="http://www.inkscape.org/namespaces/inkscape"
   xmlns:sodipodi="http://sodipodi.sourceforge.net/DTD/sodipodi-0.dtd"
   xmlns="http://www.w3.org/2000/svg"
   xmlns:svg="http://www.w3.org/2000/svg"><sodipodi:namedview
   id="namedview2167"
   pagecolor="#ffffff"
   bordercolor="#666666"
   borderopacity="1.0"
   inkscape:pageshadow="2"
   inkscape:pageopacity="0.0"
   inkscape:pagecheckerboard="0"
   inkscape:document-units="mm"
   showgrid="false"
   inkscape:zoom="1.2436308"
   inkscape:cx="544.3738"
   inkscape:cy="280.62992"
   inkscape:window-width="1920"
   inkscape:window-height="1007"
   inkscape:window-x="-9"
   inkscape:window-y="-9"
   inkscape:window-maximized="1"
   inkscape:current-layer="text2162"
   inkscape:showpageshadow="2"
   inkscape:deskcolor="#d1d1d1" />
 <defs
   id="defs2157">
  <font
   id="FontID0"
   horiz-adv-x="666"
   font-variant="normal"
   style="fill-rule:nonzero"
   font-weight="400">
	<font-face
   font-family="Arial"
   id="font-face2">
	</font-face>
   <missing-glyph
   id="missing-glyph6"><path
     d="M0 0z"
     id="path4" /></missing-glyph>
   <glyph
   unicode="∑"
   horiz-adv-x="712"
   id="glyph10"><path
     d="M68.0011 727.999l603.999 0 0 -79.9974 -482.166 0 296.498 -378.334 -315.164 -400.668 505.831 0 0 -79.0008 -616.999 0 0 91.0003 303.001 384.834 -295 377.167 0 84.999z"
     id="path8" /></glyph>
   <glyph
   unicode="€"
   horiz-adv-x="556"
   id="glyph14"><path
     d="M386.001 646.999c-54.6676,0 -100.502,-13.1663 -137.5,-39.4988 -22.1666,-15.4999 -42.1668,-37.6666 -60.0004,-66.1657 -18.1679,-29.6691 -29.0005,-57.6667 -32.1667,-84.3335l332.667 0 -13.1663 -66.0017 -327.334 0c-0.334282,-6.83385 -0.498269,-13.3334 -0.498269,-19.3316 0,-25.0017 0.163987,-39.8331 0.498269,-44.6676l314.499 0 -13.6645 -65.9985 -290.5 0c13.5006,-74.3335 46.3327,-127.169 98.3324,-158.336 37.4994,-22.4978 77.834,-33.6647 121.499,-33.6647 60.8361,0 108.168,15.9982 142.335,47.9978l0 -100.666c-40.6657,-18.8333 -85.5004,-28.3319 -134.665,-28.3319 -147.169,0 -246.501,61.1672 -298.17,183.331 -10.4983,24.6675 -19.4987,54.5005 -26.8308,89.6694l-74.3335 0 13.5006 65.9985 51 0c-1.00284,13.5006 -1.50111,28.3319 -1.50111,44.1662 0,6.49957 0.167141,12.9991 0.498269,19.833l-63.4977 0 13.5006 66.0017 56.3327 0c20.1673,105.999 72.8324,182.001 157.667,228.166 52.3308,28.4991 110.165,42.8322 173.331,42.8322 60.5018,0 111.335,-13.1663 152.666,-39.4988l-19.4987 -90.4988c-39.666,32.665 -84.6678,48.9975 -134.999,48.9975z"
     id="path12" /></glyph>
   <glyph
   unicode="–"
   horiz-adv-x="556"
   id="glyph18"><path
     d="M-1.99938 224l0 71.0001 554.999 0 0 -71.0001 -554.999 0z"
     id="path16" /></glyph>
   <glyph
   unicode="ӻ"
   horiz-adv-x="364"
   id="glyph22"><path
     d="M365.001 446.001l-211.001 0 0 -131.001 113 0 0 -63.9991 -113 0 0 -175.003 45.0019 0 0 -103.999c0,-63.3337 -8.33496,-107.831 -25.0017,-133.167 -21.5012,-32.4978 -56.667,-48.8335 -105.668,-48.8335 -23.8317,0 -46.8309,3.16937 -68.9976,9.33465l16.6668 74.5006c17.6665,-4.50019 31.4981,-6.83385 41.6654,-6.83385 25.1657,0 41.3342,12.668 48.4992,38.0009 3.16621,11.3309 4.83447,34.3332 4.83447,68.6665l0 26.3326 -45.0019 0 0 251.001 -61.0001 0 0 63.9991 61.0001 0 0 204 299.002 0 0 -72.9995z"
     id="path20" /></glyph>
   <glyph
   unicode="Ӫ"
   horiz-adv-x="777"
   id="glyph26"><path
     d="M732.001 356.833c0,-106.333 -30.1673,-193.499 -90.502,-261.5 -63.3337,-71.4984 -147.5,-107.333 -252.499,-107.333 -67.4996,0 -128.5,16.8339 -183,50.3314 -56.8342,34.3332 -97.9981,81.8359 -123.832,142.335 -24.166,57.0013 -36.1655,112.833 -36.1655,167.835 0,110.499 28.9973,200.332 87.1655,269.333 62.1669,73.4978 147.667,110.165 256.334,110.165 105.999,0 190.332,-35.9983 252.997,-107.831 59.6693,-68.3353 89.5023,-156.002 89.5023,-263.335zm-100.001 43.1665c-6.16844,71.0001 -28.4991,127.667 -66.6671,170.168 -45.8344,50.4986 -104.501,75.8314 -176.166,75.8314 -70.1676,0 -128.834,-23.8317 -175.999,-71.4984 -38.5023,-38.8334 -61.3344,-97.0016 -68.1682,-174.501l487.001 0zm0 -83.9993l-488.001 0c4.83447,-67.3325 26.834,-123.665 65.6674,-168.834 44.5004,-52.1668 103.832,-78.1651 178.333,-78.1651 71.5016,0 129.168,23.9989 173,71.8327 41.1671,44.1662 64.8317,102.665 71.0001,175.167zm-379 443.998l0 100.001 91.9999 0 0 -100.001 -91.9999 0zm182.001 0l0 100.001 91.9999 0 0 -100.001 -91.9999 0z"
     id="path24" /></glyph>
   <glyph
   unicode="ә"
   horiz-adv-x="556"
   id="glyph30"><path
     d="M519 263.833c0,-79.8334 -20.0001,-144.665 -60.0004,-194.334 -43.1665,-53.6648 -103.832,-80.4988 -182.001,-80.4988 -75.9986,0 -135.166,26.4997 -177.5,79.4991 -38.6663,48.6663 -57.9978,112.167 -57.9978,190.168 0,5.1656 0.163987,12.9991 0.498269,23.3335l387 0c-2.99907,50.6657 -16.8339,91.6657 -41.6654,122.833 -28.1679,35.5001 -66.8342,53.1665 -115.835,53.1665 -66.1657,0 -112,-35.3329 -137.5,-106.002l-90.0006 11.1669c30.3345,111.168 106.333,166.835 228.002,166.835 79.6662,0 141.332,-24.6675 185,-73.9992 41.3342,-47.1684 61.9998,-111.168 61.9998,-192.168zm-94.835 -53.8319l-290.166 0c4.00192,-43.6679 15.0017,-76.336 33.3335,-98.1684 28.0008,-33.8318 64.3334,-50.8329 109.001,-50.8329 42.8322,0 77.6668,14.3331 104.665,42.9993 25.8343,27.3354 40.1674,62.6683 43.1665,106.002z"
     id="path28" /></glyph>
   <glyph
   unicode="ӈ"
   horiz-adv-x="552"
   id="glyph34"><path
     d="M486.001 48.3321c0,-75.166 -18.335,-136.166 -54.8348,-182.666 -39.3317,-50.4986 -94.5008,-75.6675 -165.167,-75.6675 -54.8316,0 -100.499,12.8351 -136.999,38.5023 -36.4998,25.6671 -57.4996,60.1644 -63.0026,103.498l88.0012 0c14.3331,-46.667 51.6654,-70.0004 112,-70.0004 88.0012,0 132,61.5015 132,184.501l0 183.502 -244 0 0 -230.001 -88.0012 0 0 519 88.0012 0 0 -215.999 244 0 0 215.999 88.0012 0 0 -470.668z"
     id="path32" /></glyph>
   <glyph
   unicode="ҷ"
   horiz-adv-x="520"
   id="glyph38"><path
     d="M511 -146.999l-71.9998 0 0 146.999 -72.9995 0 0 209.333c-53.8351,-16.8339 -104.167,-25.3329 -150.833,-25.3329 -35.5001,0 -68.3322,9.00037 -98.8338,26.834 -32.501,19.1676 -54.5005,44.8316 -66.3328,76.6672 -10.6655,29.0005 -16.0014,60.8329 -16.0014,95.6644l0 135.835 88.0012 0 0 -98.0012c0,-37.8337 1.50111,-63.6649 4.33305,-77.6668 5.83416,-27.3322 19.0004,-48.4992 39.4988,-63.832 19.3347,-14.3331 43.3336,-21.5012 71.8358,-21.5012 32.9993,0 75.8314,8.83323 128.333,26.3357l0 234.666 87.998 0 0 -447.001 57.0013 0 0 -218.999z"
     id="path36" /></glyph>
   <glyph
   unicode="Ҧ"
   horiz-adv-x="1136"
   id="glyph42"><path
     d="M1092 159.165c0,-119.165 -27.4994,-211.332 -82.5013,-276.331 -52.498,-61.8358 -123.665,-92.8357 -214,-92.8357 -61.4983,0 -116.831,13.8348 -166.166,41.6685 -49.3318,27.8337 -77.1654,61.3344 -83.3307,100.332l94.999 0c5.49988,-14.3331 20.0001,-27.3322 43.5007,-38.9974 29.6659,-14.6674 65.166,-22.0027 106.831,-22.0027 64.5006,0 114.835,24.6675 151.168,74.0024 36.3326,49.3318 54.5005,117.831 54.5005,205.832 0,161.499 -58.3353,242.168 -174.836,242.168 -50.8329,0 -111.164,-14.8345 -181.165,-44.5004l0 -348.501 -94.999 0 0 632 -373.001 0 0 -632 -94.999 0 0 715.999 562.999 0 0 -288.334c70.3316,31.5013 134.999,47.3355 194,47.3355 90.1677,0 157.333,-32.3339 201.332,-97.1687 37.1683,-54.6645 55.6673,-127.667 55.6673,-218.667z"
     id="path40" /></glyph>
   <glyph
   unicode="ҕ"
   horiz-adv-x="548"
   id="glyph46"><path
     d="M511.999 48.0009c0,-73.6681 -20.9998,-134.501 -62.9995,-182.833 -43.8319,-50.1675 -101.499,-75.1692 -173.167,-75.1692 -55.5002,0 -102.498,12.8351 -141.332,38.5023 -40.1674,26.3326 -62.9995,60.8329 -68.5025,103.498l88.0012 0c14.3331,-46.667 54.9988,-70.0004 122,-70.0004 46.3327,0 82.5013,18.335 108.165,55.1691 23.1695,32.665 34.8347,73.4978 34.8347,122.666 0,52.1668 -14.9985,92.5014 -44.9987,121.168 -28.8334,27.3322 -68.1682,40.9999 -118.169,40.9999 -27.3322,0 -61.3312,-4.33305 -101.833,-13.1663l0 -188.834 -88.0012 0 0 519 299.002 0 0 -72.9995 -211.001 0 0 -182.669c37.1683,11.1669 75.166,16.6668 113.999,16.6668 70.0004,0 128.001,-21.1638 173.502,-63.4977 46.9981,-43.6679 70.4987,-99.8335 70.4987,-168.5z"
     id="path44" /></glyph>
   <glyph
   unicode="҄"
   horiz-adv-x="0"
   id="glyph50"><path
     d="M160.001 599.001l-31.9996 0c0,18.499 -5.16875,33.999 -15.6671,46.667 -11.334,13.4974 -26.0014,20.3313 -44.3333,20.3313 -10.9998,0 -35.8343,-11.1669 -74.5006,-33.5007 -38.6663,-22.3306 -70.6659,-33.4975 -96.0019,-33.4975l-55.497 0 0 71.9998 55.6642 0c18.8333,0 45.169,8.00068 79.168,23.9989 33.999,16.0014 60.3315,23.9989 78.8337,23.9989 69.499,0 104.334,-39.9971 104.334,-119.998z"
     id="path48" /></glyph>
   <glyph
   unicode="ѳ"
   horiz-adv-x="556"
   id="glyph54"><path
     d="M519 266.832c0,-120.833 -39.0006,-203 -117.166,-246.167 -38.168,-21.167 -80.0005,-31.6653 -125.501,-31.6653 -79.5022,0 -140.833,25.8343 -183.669,77.4997 -39.8331,48.1681 -59.6661,112.501 -59.6661,193 0,95.8316 26.6668,166.832 80.1676,213 44.5004,38.332 99.0009,57.4996 163.167,57.4996 76.5,0 136.664,-25.1657 180.667,-75.5003 41.3342,-47.4995 61.9998,-110.001 61.9998,-187.668zm-92.5014 42.5011c-5.49988,41.5014 -19.1644,74.3335 -40.6657,98.6667 -29.1676,32.6681 -65.6674,49.0006 -109.499,49.0006 -44.3333,0 -81.0002,-16.3325 -110.168,-48.8335 -21.4981,-24.3332 -35.1658,-57.1684 -40.6657,-98.6667 26.1654,16.3325 51,24.5003 74.6646,24.5003 16.6668,0 41.1671,-8.16782 73.3338,-24.5003 32.3339,-16.3325 57.1684,-24.5003 74.5006,-24.5003 30.9999,0 57.3324,8.16782 78.4994,24.3332zm2.5008 -72.3341c-20.9998,-15.9982 -48.0009,-23.9989 -81.0002,-23.9989 -17.3322,0 -42.1668,8.16782 -74.5006,24.5003 -32.1667,16.3325 -56.667,24.5003 -73.3338,24.5003 -24.9986,0 -50.6657,-8.33496 -77.1654,-24.8346 2.66794,-50.4986 15.8342,-91.3345 39.8331,-122.498 27.1683,-35.8343 64.9988,-53.668 113.501,-53.668 47.9978,0 85.6644,18.0007 112.833,53.9991 23.6678,31.3342 36.834,71.8327 39.8331,122z"
     id="path52" /></glyph>
   <glyph
   unicode="Ѣ"
   horiz-adv-x="777"
   id="glyph58"><path
     d="M742.001 208.5c0,-139.001 -89.3352,-208.5 -267.835,-208.5l-272.165 0 0 524.999 -192.001 0 0 84.0024 192.001 0 0 106.998 94.999 0 0 -106.998 192.001 0 0 -84.0024 -192.001 0 0 -113.999 171.001 0c60.1675,0 107.834,-5.33274 142.666,-16.1653 51,-16.0014 87.0015,-45.1658 107.834,-87.4998 15.6671,-31.9996 23.5006,-65.002 23.5006,-98.8338zm-102 0c0,61.4983 -28.3351,98.6667 -85.0021,111.666 -25.664,5.83416 -69.3319,8.83323 -130.997,8.83323l-127.002 0 0 -247.999 173.502 0c53.3337,0 93.1668,8.00068 119.165,23.9989 33.5007,19.833 50.3346,54.3334 50.3346,103.501z"
     id="path56" /></glyph>
   <glyph
   unicode="ё"
   horiz-adv-x="556"
   id="glyph62"><path
     d="M419.999 167.999l91.0003 -11.9994c-14.166,-52.8322 -40.6657,-93.9993 -79.3319,-123.167 -38.6663,-29.1645 -88.0012,-43.8319 -148.169,-43.8319 -75.6643,0 -135.665,23.3335 -179.998,70.0004 -44.3333,46.4998 -66.4999,112 -66.4999,196.166 0,86.9983 22.3306,154.665 67.1654,202.666 44.8347,48.1681 103,72.167 174.501,72.167 69.1647,0 125.665,-23.5006 169.5,-70.6659 43.8319,-47.1684 65.8314,-113.501 65.8314,-199.002 0,-5.1656 -0.163987,-12.9991 -0.498269,-23.3335l-386.502 0c3.33335,-56.8342 19.3347,-100.499 48.3352,-130.666 28.8334,-30.1673 64.9988,-45.333 108.165,-45.333 32.1667,0 59.6661,8.49895 82.3342,25.5 22.8321,17.0011 40.8328,44.1662 54.1662,81.4985zm-287.999 141.001l288.999 0c-3.83162,43.6679 -14.9985,76.3329 -33.1664,98.1684 -27.8337,33.8318 -64.1663,50.8329 -108.667,50.8329 -40.3314,0 -74.1663,-13.5006 -101.666,-40.5017 -27.3322,-26.998 -42.5011,-63.1666 -45.5001,-108.5zm3.99876 274l0 100.001 91.9999 0 0 -100.001 -91.9999 0zm182.001 0l0 100.001 91.9999 0 0 -100.001 -91.9999 0z"
     id="path60" /></glyph>
   <glyph
   unicode="р"
   horiz-adv-x="556"
   id="glyph66"><path
     d="M65.9985 -199.002l0 718.002 80.0005 0 0 -68.1682c18.8333,26.3357 40.1674,46.1687 64.0023,59.335 23.6646,13.1663 52.498,19.833 86.3329,19.833 44.3333,0 83.3339,-11.334 117.166,-34.1661 33.835,-22.6681 59.335,-54.8348 76.6672,-96.1659 17.165,-41.5014 25.8343,-86.8344 25.8343,-136.336 0,-52.8322 -9.50179,-100.499 -28.5022,-143 -19.0004,-42.3308 -46.667,-74.8318 -82.9996,-97.4998 -36.1655,-22.4978 -74.3335,-33.8318 -114.334,-33.8318 -29.3316,0 -55.6673,6.16529 -78.8337,18.499 -23.3335,12.3337 -42.3308,27.8337 -57.3324,46.667l0 -253.168 -88.0012 0zm80.0005 455.336c0,-66.4999 13.5006,-115.668 40.3345,-147.5 27.0011,-31.8324 59.6661,-47.8338 98.0012,-47.8338 38.9974,0 72.331,16.4996 99.9975,49.4989 27.8337,33.0024 41.6685,84.0024 41.6685,153.167 0,66.0017 -13.5006,115.333 -40.6688,148.169 -27.1651,32.8321 -59.499,49.1646 -97.1655,49.1646 -37.3323,0 -70.3316,-17.4993 -99.0009,-52.334 -28.8334,-34.9986 -43.1665,-85.6644 -43.1665,-152.331z"
     id="path64" /></glyph>
   <glyph
   unicode="Я"
   horiz-adv-x="722"
   id="glyph70"><path
     d="M643 0l0 715.999 -317.334 0c-63.832,0 -112.167,-6.49957 -145.334,-19.3316 -33.1664,-12.8351 -59.6661,-35.5001 -79.4991,-68.0011 -19.833,-32.501 -29.833,-68.4993 -29.833,-107.834 0,-50.8329 16.4996,-93.665 49.3318,-128.5 32.8353,-34.8315 83.501,-56.8342 152.167,-66.3328 -25.1657,-11.9994 -44.1662,-23.9989 -57.1653,-35.6672 -27.6665,-25.3329 -53.8351,-57.1653 -78.3354,-95.3333l-123.832 -195 118.333 0 94.6679 149.001c27.4994,43.1665 50.3346,75.9986 68.1682,98.8306 17.9976,22.8352 33.999,38.6694 48.1649,47.8338 13.9988,9.00037 28.4991,15.3328 43.1665,19.0004 10.6686,2.16652 28.1679,3.33335 52.6683,3.33335l109.666 0 0 -317.999 94.999 0zm-94.999 399.999l-203.335 0c-43.3336,0 -76.9983,4.50019 -101.331,13.5006 -24.3363,8.83323 -42.8353,23.1663 -55.3362,42.9993 -12.6649,19.6658 -18.9973,40.9999 -18.9973,64.1663 0,33.835 12.1666,61.8358 36.6637,83.6681 24.5003,21.8324 63.1697,32.665 116.002,32.665l226.334 0 0 -236.999z"
     id="path68" /></glyph>
   <glyph
   unicode="О"
   horiz-adv-x="777"
   id="glyph74"><path
     d="M48.0009 348.501c0,118.667 31.9996,211.666 95.8316,278.832 63.8352,67.1685 146.166,100.666 247.166,100.666 66.1688,0 125.668,-15.8311 178.834,-47.3324 52.9994,-31.5013 93.5011,-75.5003 121.335,-132 27.8305,-56.3327 41.8325,-120.332 41.8325,-191.833 0,-72.4981 -14.6674,-137.5 -43.999,-194.665 -29.3348,-57.3356 -70.8361,-100.666 -124.501,-130.001 -53.8351,-29.4988 -111.833,-44.1662 -174,-44.1662 -67.4996,0 -127.667,16.3325 -180.834,48.8335 -52.9994,32.4978 -93.3339,76.8311 -120.666,133.167 -27.3354,56.1656 -40.9999,115.665 -40.9999,178.5zm97.9981 -1.66825c0,-86.1658 23.1663,-154 69.5022,-203.499 46.3327,-49.502 104.498,-74.3335 174.498,-74.3335 71.3344,0 129.834,24.9986 175.999,74.9989 46.0016,50.0003 69.0008,121 69.0008,213 0,58.1681 -9.83292,109.001 -29.4988,152.335 -19.6658,43.3305 -48.4992,76.9983 -86.3329,100.833 -38.0009,23.8317 -80.5019,35.8312 -127.667,35.8312 -67.0014,0 -124.668,-22.9992 -173,-68.9976 -48.3321,-46.0016 -72.5012,-122.669 -72.5012,-230.169z"
     id="path72" /></glyph>
   <glyph
   unicode="Ѝ"
   horiz-adv-x="718"
   id="glyph78"><path
     d="M79.0008 715.999l85.9987 0 0 -566.998 381.166 566.998 93.8353 0 0 -715.999 -86.0018 0 0 565.5 -380.166 -565.5 -94.8319 0 0 715.999zm320.999 43.999l-71.0001 0 -113 137.002 118.001 0 65.9985 -137.002z"
     id="path76" /></glyph>
   <glyph
   unicode="ÿ"
   horiz-adv-x="500"
   id="glyph82"><path
     d="M61.9998 -199.5l-10.0001 81.3345c19.3347,-5.16875 36.0015,-7.83354 50.3346,-7.83354 19.6658,0 35.3329,3.33335 46.9981,9.83292 11.8355,6.49957 21.5012,15.6671 29.0005,27.3322 5.49988,8.83323 14.5002,30.6656 26.834,65.6674 1.6651,4.83447 4.1659,11.9994 7.83354,21.5012l-196.999 520.666 93.9993 0 108.332 -299.668c14.166,-37.8337 26.6668,-77.834 37.8337,-119.834 10.1672,39.502 22.1666,78.4994 36.1655,116.835l110.666 302.667 87.834 0 -196.166 -528.001c-21.167,-56.8342 -37.6666,-95.8316 -49.4989,-117.333 -15.6671,-28.8334 -33.6678,-50.0003 -53.8351,-63.5009 -20.3313,-13.5006 -44.4973,-20.1673 -72.4981,-20.1673 -17.0011,0 -36.0015,3.5005 -56.8342,10.5015zm60.0004 782.499l0 100.001 91.9999 0 0 -100.001 -91.9999 0zm182.001 0l0 100.001 91.9999 0 0 -100.001 -91.9999 0z"
     id="path80" /></glyph>
   <glyph
   unicode="î"
   horiz-adv-x="277"
   id="glyph86"><path
     d="M97.0016 0l0 519 87.998 0 0 -519 -87.998 0zm48.9975 665.999l-54.5005 -82.9996 -99.9975 0 104.498 137.002 93.0028 0 111.499 -137.002 -100.001 0 -54.5005 82.9996z"
     id="path84" /></glyph>
   <glyph
   unicode="Ý"
   horiz-adv-x="666"
   id="glyph90"><path
     d="M278.832 0l0 303.332 -276 412.667 114.003 0 141.499 -216.665c26.3326,-40.1674 50.8329,-80.3348 73.1667,-120.502 21.8324,37.4994 48.3321,79.5022 79.168,126.166l138.667 211.001 110.499 0 -286 -412.667 0 -303.332 -95.0022 0zm-7.83039 759.998l63.9991 137.002 115.999 0 -106.998 -137.002 -72.9995 0z"
     id="path88" /></glyph>
   <glyph
   unicode="Ì"
   horiz-adv-x="277"
   id="glyph94"><path
     d="M92.9996 0l0 715.999 94.999 0 0 -715.999 -94.999 0zm122 759.998l-71.0001 0 -113 137.002 118.001 0 65.9985 -137.002z"
     id="path92" /></glyph>
   <glyph
   unicode="»"
   horiz-adv-x="556"
   id="glyph98"><path
     d="M386.001 257.501l-129.001 222.499 71.9998 0 158.002 -222.499 -157.002 -222.502 -71.9998 0 128.001 222.502zm-189.002 0l-129.998 222.499 73.9992 0 154 -222.499 -154 -222.502 -73.9992 0 129.998 222.502z"
     id="path96" /></glyph>
   <glyph
   unicode="ª"
   horiz-adv-x="370"
   id="glyph102"><path
     d="M266.334 407.499c-39.666,-28.9973 -81.3345,-43.4976 -124.835,-43.4976 -36.8309,0 -65.8314,10.0001 -87.3326,30.0002 -21.4981,20.1641 -32.1667,45.8313 -32.1667,77.1654 0,15.6671 2.66794,29.3348 7.83354,40.9999 5.1656,11.8323 12.9991,22.1666 23.1663,31.3342 10.3343,9.16436 23.5006,16.4996 39.8331,21.9995 11.5012,3.66764 27.4994,7.00099 48.3352,10.3343l71.8327 10.6655c23.5006,4.66733 39.1677,7.83354 46.9981,9.83292 -0.331128,22.8352 -2.66479,38.0009 -6.8307,45.8344 -4.16906,7.83354 -12.1666,14.6674 -23.6678,20.3313 -11.6652,5.66702 -27.0011,8.5021 -46.3327,8.5021 -25.6671,0 -45.0019,-5.33274 -57.6667,-15.8342 -12.668,-10.6655 -20.5015,-25.6671 -23.5006,-45.1658l-67.0014 16.9979c3.83478,28.8334 18.1679,52.8354 43.0025,72.167 24.6643,19.1676 60.0004,28.8334 105.999,28.8334 53.3337,0 91.1674,-10.1641 113.334,-30.4985 21.8324,-20.6687 32.665,-51 32.665,-90.666l0 -120.168 -0.498269 -30.4985c0,-44.8347 6.83385,-75.5003 20.4984,-92.1671l-71.9998 0c-6.99784,12.9991 -10.9998,27.4994 -11.6652,43.4976zm-7.33527 131.669c-17.165,-4.50019 -48.3321,-10.3343 -93.4979,-17.5025 -29.1676,-4.66417 -48.1681,-10.9998 -56.8342,-19.1644 -9.16751,-8.33496 -13.6677,-18.8333 -13.6677,-31.167 0,-13.3334 5.49988,-24.6675 16.4996,-34.1661 11.0029,-9.50179 26.6668,-14.1691 46.667,-14.1691 23.6678,0 44.3333,6.33558 61.8358,19.0004 17.4993,12.668 29.1645,28.3351 34.9986,46.8341 2.33366,6.66671 3.66764,23.3335 3.99876,50.3346z"
     id="path100" /></glyph>
   <glyph
   unicode="w"
   horiz-adv-x="722"
   id="glyph106"><path
     d="M159.332 0l-156.832 519 91.9999 0 82.8324 -299.5 29.3348 -111.499c1.16683,5.49988 10.1641,41.1639 26.8308,106.998l82.167 304.001 90.1677 0 78.1651 -301.333 25.5 -98.8338 29.8362 100.165 89.6663 300.002 85.5004 0 -162.836 -519 -91.0003 0 -82.331 310.5 -20.8327 88.8337 -105.002 -399.334 -93.1668 0z"
     id="path104" /></glyph>
   <glyph
   unicode="f"
   horiz-adv-x="277"
   id="glyph110"><path
     d="M87.0015 0l0 450.999 -78.0011 0 0 68.0011 78.0011 0 0 54.9988c0,34.8347 2.99907,60.6689 9.16436,77.4997 8.5021,22.6681 23.1663,41.1671 44.5004,55.3331 21.167,14.1691 51,21.167 89.3352,21.167 24.8314,0 52.1637,-2.99907 82.1639,-8.83323l-13.1663 -76.9983c-18.3319,3.16621 -35.5001,4.83131 -51.8326,4.83131 -26.6668,0 -45.5001,-5.66386 -56.667,-16.9979 -10.9998,-11.334 -16.4996,-32.501 -16.4996,-63.5009l0 -47.4995 101 0 0 -68.0011 -100.001 0 0 -450.999 -87.998 0z"
     id="path108" /></glyph>
   <glyph
   unicode="U"
   horiz-adv-x="722"
   id="glyph114"><path
     d="M546.002 715.999l94.999 0 0 -413.5c0,-71.9998 -8.16782,-129.165 -24.3332,-171.499 -16.3325,-42.1668 -45.6673,-76.6672 -88.0012,-103.167 -42.5011,-26.4997 -97.9981,-39.8331 -166.999,-39.8331 -66.8342,0 -121.666,11.498 -164.167,34.6675 -42.6682,23.1663 -72.9995,56.4999 -91.1674,100.332 -18.1679,43.835 -27.3322,103.668 -27.3322,179.5l0 413.5 94.999 0 0 -413.333c0,-62.1669 5.83416,-108.165 17.3322,-137.5 11.5012,-29.4988 31.167,-52.334 59.335,-68.165 28.0008,-16.0014 62.334,-24.002 102.833,-24.002 69.335,0 118.834,15.8342 148.333,47.3324 29.5019,31.6684 44.1693,92.3342 44.1693,182.335l0 413.333z"
     id="path112" /></glyph>
   <glyph
   unicode="D"
   horiz-adv-x="722"
   id="glyph118"><path
     d="M77.0014 0l0 715.999 246.665 0c55.6673,0 98.1684,-3.33335 127.5,-10.1672 40.9999,-9.49864 75.9986,-26.6668 104.999,-51.3311 37.8337,-31.9996 66.0017,-72.6684 84.6678,-122.334 18.8333,-49.666 28.1679,-106.5 28.1679,-170.332 0,-54.3334 -6.33558,-102.501 -19.0004,-144.501 -12.668,-41.9996 -29.0005,-76.8343 -48.8335,-104.334 -20.0001,-27.4994 -41.6685,-49.1678 -65.3331,-64.8317 -23.5006,-15.8342 -51.9997,-27.8337 -85.3332,-36.0015 -33.5007,-8.16782 -71.8358,-12.1666 -115.166,-12.1666l-258.333 0zm94.999 83.9993l152.666 0c47.1684,0 84.1664,4.33305 111,13.1663 26.834,8.83323 48.1681,21.167 64.1663,37.1683 22.3338,22.5009 39.8331,52.8322 52.334,90.8331 12.5009,38.0009 18.8333,83.9993 18.8333,138.165 0,75.002 -12.3337,132.669 -36.834,173 -24.5003,40.3345 -54.3334,67.3325 -89.4991,81.0002 -25.3329,9.83292 -66.1657,14.6674 -122.502,14.6674l-150.165 0 0 -548.001z"
     id="path116" /></glyph>
   <glyph
   unicode="3"
   horiz-adv-x="556"
   id="glyph122"><path
     d="M41.9996 190.001l88.0012 11.9994c10.1672,-50.0003 27.1651,-86.0018 51.3311,-108.001 24.1692,-21.9995 53.8351,-32.9993 89.0009,-32.9993 41.6685,0 76.8343,14.3331 105.166,42.9993 28.3351,28.6662 42.5011,64.1663 42.5011,106.5 0,40.3345 -13.1663,73.6681 -39.666,100.001 -26.3357,26.1654 -59.8332,39.3317 -100.666,39.3317 -16.6668,0 -37.3355,-3.33335 -62.1669,-9.83292l9.83292 77.0014c5.831,-0.668563 10.6655,-0.999691 14.166,-0.999691 37.6666,0 71.3344,9.83292 101.499,29.3316 30.0002,19.5019 45.0019,49.502 45.0019,90.0006 0,32.1667 -10.9998,58.8335 -32.8353,80.0005 -21.8324,21.167 -49.9972,31.6653 -84.4975,31.6653 -34.3332,0 -62.8355,-10.8326 -85.6675,-32.4978 -22.8321,-21.6684 -37.4994,-54.1662 -43.999,-97.4998l-88.0012 15.9982c10.8326,59.0007 35.1658,104.835 73.3338,137.333 38.0009,32.501 85.5004,48.6663 142.167,48.6663 38.9974,0 74.9989,-8.33181 107.831,-25.1657 33.0024,-16.6668 58.1681,-39.4988 75.5003,-68.3322 17.4993,-29.0005 26.1686,-59.6661 26.1686,-92.1671 0,-30.8327 -8.33496,-58.8335 -24.8346,-84.1664 -16.6668,-25.3329 -41.3342,-45.5001 -73.8321,-60.5018 42.3308,-9.66578 75.166,-30.0002 98.6667,-60.8329 23.3335,-30.6656 34.9986,-69.3319 34.9986,-115.501 0,-62.498 -22.8321,-115.665 -68.3322,-159.165 -45.6673,-43.5007 -103.334,-65.166 -173,-65.166 -62.8355,0 -115.002,18.8333 -156.501,56.3327 -41.6654,37.4994 -65.3331,85.9987 -71.1673,145.668z"
     id="path120" /></glyph>
   <glyph
   unicode="&quot;"
   horiz-adv-x="355"
   id="glyph126"><path
     d="M70.3347 462.999l-24.3332 136.002 0 116.999 99.9975 0 0 -116.999 -21.9995 -136.002 -53.6648 0zm161.499 0l-23.8349 136.002 0 116.999 100.001 0 0 -116.999 -23.5006 -136.002 -52.6651 0z"
     id="path124" /></glyph>
   <glyph
   unicode="∟"
   horiz-adv-x="979"
   id="glyph130"><path
     d="M176.832 624.501l48.8335 0 0 -575.667 576.667 0 0 -48.8335 -625.501 0 0 624.501z"
     id="path128" /></glyph>
   <glyph
   unicode="⅓"
   horiz-adv-x="834"
   id="glyph134"><path
     d="M111.833 -28.0008l537.001 756 75.8314 0 -536.998 -756 -75.8346 0zm50.1675 385.001l0 271.165c-33.1664,-26.3326 -69.499,-44.8316 -109.001,-55.1659l0 60.0004c50.6657,16.1653 92.9996,46.4998 127.166,91.0003l52.8354 0 0 -367 -71.0001 0zm361.998 -275.334l71.0001 7.33527c6.49957,-19.3347 15.0017,-32.6681 25.5,-40.3345 14.002,-9.83292 30.5016,-14.6674 49.8332,-14.6674 22.6681,0 41.1671,6.33558 55.3331,18.8333 14.1691,12.5009 21.3341,27.8337 21.3341,46.0016 0,35.8343 -25.8311,53.6648 -77.3326,53.6648 -2.16652,0 -6.66671,-0.331128 -13.3334,-0.83255 -6.66671,-0.498269 -10.9998,-0.665409 -13.3334,-0.665409l10.8326 53.9991c50.8329,-0.665409 76.1689,15.8342 76.1689,49.666 0,28.8334 -19.5019,43.3336 -58.3353,43.3336 -32.9993,0 -56.3327,-16.6668 -69.6662,-50.0003l-70.0004 11.334c13.3334,34.8347 30.1673,59.0007 50.5017,72.5012 20.3313,13.5006 50.1643,20.1641 89.1649,20.1641 89.4991,0 134.334,-30.3313 134.334,-91.1642 0,-39.0006 -22.3338,-65.002 -67.0014,-78.0011 56.0016,-13.6677 84.0024,-44.8316 84.0024,-93.5011 0,-31.8324 -12.8351,-58.3321 -38.5023,-79.4991 -27.3322,-22.5009 -63.9991,-33.8318 -109.834,-33.8318 -86.1658,0 -136.333,35.1658 -150.666,105.664z"
     id="path132" /></glyph>
   <glyph
   unicode="₩"
   horiz-adv-x="943"
   id="glyph138"><path
     d="M932.999 217.999l-136.664 0 -59.8332 -217.999 -91.3345 0 -60.0004 217.999 -226.501 0 -59.8332 -217.999 -96.8313 0 -57.8339 217.999 -132.167 0 0 81.9999 110.502 0 -30.8359 116.002 -79.6662 0 0 81.9999 57.8339 0 -57.8339 217.999 98.0012 0 49.0006 -217.999 198.333 0 59.6661 217.999 114.334 0 55.9985 -217.999 198.166 0 52.5011 217.999 94.999 0 -59.8332 -217.999 59.8332 0 0 -81.9999 -82.331 0 -31.8356 -116.002 114.167 0 0 -81.9999zm-167.166 198.002l-157.333 0 29.833 -116.002 99.4992 0 28.0008 116.002zm-257.832 81.9999l-36.1686 131.499 -36.1655 -131.499 72.3341 0zm209.998 -280.002l-58.6664 0 30.3345 -117.831 28.3319 117.831zm-155.498 81.9999l-31.8356 116.002 -117.5 0 -31.9996 -116.002 181.335 0zm-227.501 116.002l-157.5 0 25.9983 -116.002 99.6695 0 31.8324 116.002zm-54.3334 -198.002l-58.6664 0 26.4997 -117.831 32.1667 117.831z"
     id="path136" /></glyph>
   <glyph
   unicode="′"
   horiz-adv-x="187"
   id="glyph142"><path
     d="M62.1669 462.999l5.83416 133.501 25.3329 119.499 100.499 0 -25.8343 -119.499 -51.164 -133.501 -54.6676 0z"
     id="path140" /></glyph>
   <glyph
   unicode="‡"
   horiz-adv-x="556"
   id="glyph146"><path
     d="M232.001 -169.001l0 181.001 -195.999 0 0 79.0008 195.999 0 0 353.001 -195.999 0 0 78.9977 195.999 0 0 183 87.998 0 0 -183 196.002 0 0 -78.9977 -196.002 0 0 -353.001 196.002 0 0 -79.0008 -196.002 0 0 -181.001 -87.998 0z"
     id="path144" /></glyph>
   <glyph
   unicode="Ӹ"
   horiz-adv-x="885"
   id="glyph150"><path
     d="M81.9999 715.999l94.999 0 0 -305 170.502 0c111.833,0 185.331,-20.6655 220.667,-62.1669 35.1658,-41.3311 52.8322,-88.3323 52.8322,-140.833 0,-55.5002 -18.8333,-103.999 -56.667,-145.665 -37.6666,-41.5014 -107.667,-62.334 -210.165,-62.334l-272.168 0 0 715.999zm94.999 -634.999l172.669 0c59.3318,0 102.498,10.0001 129.165,30.0002 26.834,20.0001 40.1674,51.9997 40.1674,95.9987 0,29.833 -8.16782,55.0019 -24.3332,75.166 -16.1685,20.1673 -37.1683,33.0024 -62.8355,38.5023 -25.5,5.49988 -68.3322,8.33181 -128.333,8.33181l-126.5 0 0 -247.999zm530 634.999l95.0022 0 0 -715.999 -95.0022 0 0 715.999zm-409 43.999l0 100.001 91.9999 0 0 -100.001 -91.9999 0zm182.001 0l0 100.001 91.9999 0 0 -100.001 -91.9999 0z"
     id="path148" /></glyph>
   <glyph
   unicode="ӧ"
   horiz-adv-x="556"
   id="glyph154"><path
     d="M32.9993 259.5c0,95.8316 26.6668,166.832 80.1676,213 44.5004,38.332 99.0009,57.4996 163.167,57.4996 71.1673,0 129.499,-23.3335 174.832,-70.0004 45.1658,-46.4998 67.8339,-111 67.8339,-193.167 0,-66.6671 -10.0001,-118.998 -30.0002,-157.166 -20.0001,-38.1649 -49.1678,-67.8339 -87.4998,-89.0009 -38.168,-21.167 -80.0005,-31.6653 -125.166,-31.6653 -72.6684,0 -131.335,23.1663 -176.166,69.6662 -44.8347,46.4998 -67.1685,113.501 -67.1685,200.834zm90.0006 -0.167141c0,-66.3328 14.5002,-115.999 43.5007,-148.834 29.1676,-32.9993 65.6674,-49.4989 109.834,-49.4989 43.6647,0 80.0005,16.4996 109.165,49.666 29.0005,33.1664 43.5007,83.6681 43.5007,151.502 0,63.9991 -14.6674,112.498 -43.8319,145.33 -29.1676,33.0024 -65.5003,49.502 -108.834,49.502 -44.1662,0 -80.6659,-16.3325 -109.834,-49.1678 -29.0005,-32.8321 -43.5007,-82.3342 -43.5007,-148.5zm13.9988 323.667l0 100.001 91.9999 0 0 -100.001 -91.9999 0zm182.001 0l0 100.001 91.9999 0 0 -100.001 -91.9999 0z"
     id="path152" /></glyph>
   <glyph
   unicode="Ӗ"
   horiz-adv-x="666"
   id="glyph158"><path
     d="M79.0008 0l0 715.999 516.998 0 0 -83.9993 -421.999 0 0 -220.001 395.001 0 0 -83.9993 -395.001 0 0 -244 439 0 0 -83.9993 -533.999 0zm408 886.001c-10.1672,-83.9993 -58.1681,-126.002 -144.167,-126.002 -86.5001,0 -134.668,42.0028 -144.835,126.002l60.0004 0c9.16751,-43.3336 36.4998,-65.002 81.8327,-65.002 49.3349,0 78.3354,21.6684 87.1686,65.002l60.0004 0z"
     id="path156" /></glyph>
   <glyph
   unicode="Ӆ"
   horiz-adv-x="656"
   id="glyph162"><path
     d="M666.999 83.9993l-91.9999 -283.001 -83.9993 0 67.4996 199.002 -76.5 0 0 632 -256.999 0 0 -368.832c0,-65.1691 -1.50111,-108.667 -4.33305,-130.502 -7.00099,-54.1662 -23.6678,-92.4982 -50.4986,-115.333 -22.8352,-19.4987 -51.5014,-29.3316 -85.6675,-29.3316 -20.9998,0 -46.1687,3.83162 -75.5003,11.6652l16.1653 84.1664c15.6671,-6.49957 29.0005,-9.83292 40.1674,-9.83292 30.3345,0 50.0003,17.0011 58.8335,50.8329 3.83478,15.1688 5.83416,44.3333 5.83416,87.3358l0 503.832 447.001 0 0 -632 89.9974 0z"
     id="path160" /></glyph>
   <glyph
   unicode="Ҵ"
   horiz-adv-x="925"
   id="glyph166"><path
     d="M890.999 -199.002l-83.9993 0 0 199.002 -543.999 0 0 632 -239.002 0 0 83.9993 573.003 0 0 -83.9993 -239.002 0 0 -548.001 373.001 0 0 632 94.999 0 0 -632 64.9988 0 0 -283.001z"
     id="path164" /></glyph>
   <glyph
   unicode="ң"
   horiz-adv-x="552"
   id="glyph170"><path
     d="M542.999 -146.999l-71.9998 0 0 146.999 -72.9995 0 0 230.001 -244 0 0 -230.001 -88.0012 0 0 519 88.0012 0 0 -215.999 244 0 0 215.999 88.0012 0 0 -447.001 56.9982 0 0 -218.999z"
     id="path168" /></glyph>
   <glyph
   unicode="Ғ"
   horiz-adv-x="541"
   id="glyph174"><path
     d="M542 632l-368 0 0 -242.001 195.999 0 0 -63.9991 -195.999 0 0 -326 -94.999 0 0 326 -80.0005 0 0 63.9991 80.0005 0 0 326 462.999 0 0 -83.9993z"
     id="path172" /></glyph>
   <glyph
   unicode="ҁ"
   horiz-adv-x="500"
   id="glyph178"><path
     d="M481.999 366.168l-84.999 -13.1663c-16.3325,69.9973 -55.6673,104.999 -118.333,104.999 -99.8335,0 -149.667,-66.0017 -149.667,-198.002 0,-132.666 48.1649,-198.998 144.665,-198.998 17.4993,0 32.9993,2.16652 46.3327,6.33243l0 -266.334 -87.998 0 0 191.001c-63.3337,6.49957 -112.167,35.1658 -146.166,85.8347 -31.167,46.4998 -46.8341,106.333 -46.8341,179.5 0,81.0002 19.1676,145.665 57.4996,194.167 41.6654,52.334 101.167,78.4994 178.667,78.4994 55.3331,0 100.666,-13.6677 136.166,-40.9999 36.6669,-28.4991 60.3347,-69.499 70.6659,-122.833z"
     id="path176" /></glyph>
   <glyph
   unicode="Ѱ"
   horiz-adv-x="796"
   id="glyph182"><path
     d="M738.999 513.668c0,-191.833 -102.665,-289.333 -307.999,-292.667l0 -221.001 -94.999 0 0 221.001c-48.4992,0 -90.1677,14.5002 -124.999,43.4976 -29.5019,24.6675 -51,57.1684 -64.3334,97.1687l-118.667 354.332 94.999 0 118.667 -336.833c18.1679,-51.5014 49.666,-77.1654 94.3336,-77.1654l0 413.998 94.999 0 0 -413.998c75.6675,4.50019 130.335,25.5 163.833,62.9995 32.8353,36.4998 49.1678,93.1668 49.1678,169.667l0 181.332 94.999 0 0 -202.332z"
     id="path180" /></glyph>
   <glyph
   unicode="џ"
   horiz-adv-x="552"
   id="glyph186"><path
     d="M313.001 0l0 -146.999 -72.9995 0 0 146.999 -174.003 0 0 519 88.0012 0 0 -447.001 244 0 0 447.001 88.0012 0 0 -519 -173 0z"
     id="path184" /></glyph>
   <glyph
   unicode="ю"
   horiz-adv-x="750"
   id="glyph190"><path
     d="M67.0014 519l87.998 0 0 -216.999 107.002 0c7.83354,73.9992 30.9999,130.499 69.499,169.5 38.6663,39.0006 88.6666,58.4993 150.168,58.4993 52.3308,0 93.665,-10.5015 123.832,-31.6653 30.3313,-21.167 55.3331,-50.1675 74.9989,-87.3358 19.6658,-36.998 29.5019,-86.8312 29.5019,-149.5 0,-89.332 -20.3344,-157.166 -61.0001,-203.331 -40.6688,-46.1687 -95.8347,-69.1679 -165.501,-69.1679 -64.6677,0 -116.5,21.5012 -155.668,64.3334 -39.0006,42.9993 -61.0001,101.833 -65.8314,176.668l-107.002 0 0 -230.001 -87.998 0 0 519zm419.498 -63.9991c-42.9993,0 -76.5,-16.5028 -100.499,-49.502 -24.002,-32.8321 -36.0015,-79.0008 -36.0015,-138.5 0,-71.1673 11.9994,-123.167 36.1686,-156.333 24.166,-33.1664 56.4999,-49.666 96.8313,-49.666 40.1674,0 72.9995,15.3328 98.6667,45.9984 25.5,30.6688 38.3352,80.1676 38.3352,148.336 0,66.4999 -11.1669,116.5 -33.3335,149.667 -22.1666,33.3335 -55.5002,50.0003 -100.168,50.0003z"
     id="path188" /></glyph>
   <glyph
   unicode="н"
   horiz-adv-x="552"
   id="glyph194"><path
     d="M65.9985 519l88.0012 0 0 -215.999 244 0 0 215.999 88.0012 0 0 -519 -88.0012 0 0 230.001 -244 0 0 -230.001 -88.0012 0 0 519z"
     id="path192" /></glyph>
   <glyph
   unicode="Ь"
   horiz-adv-x="656"
   id="glyph198"><path
     d="M81.0002 715.999l94.999 0 0 -305 170.499 0c79.6694,0 137.336,-9.3315 173.167,-27.8337 35.6672,-18.6662 61.3344,-43.999 77.0014,-75.8314 15.4999,-31.9996 23.3335,-65.002 23.3335,-98.8338 0,-55.5002 -18.8333,-104.167 -56.667,-145.835 -37.6666,-41.8325 -107.834,-62.6652 -210.667,-62.6652l-271.667 0 0 715.999zm94.999 -634.999l173 0c70.1676,0 115.835,12.5009 137.166,37.3323 21.167,24.8346 31.8356,55.0019 31.8356,90.1677 0,28.4991 -7.6664,52.8322 -23.1663,72.8324 -15.336,20.0001 -36.0015,32.9993 -61.6686,38.8334 -25.6671,5.83416 -69.1647,8.83323 -130.499,8.83323l-126.667 0 0 -247.999z"
     id="path196" /></glyph>
   <glyph
   unicode="Л"
   horiz-adv-x="656"
   id="glyph202"><path
     d="M130.001 715.999l447.001 0 0 -715.999 -95.0022 0 0 632 -256.999 0 0 -368.832c0,-75.002 -3.5005,-129.834 -10.4983,-164.668 -7.00099,-34.9986 -21.8355,-61.9998 -44.3333,-81.4985 -22.5009,-19.3347 -51.1671,-29.0005 -85.6675,-29.0005 -20.9998,0 -46.1687,4.33305 -75.5003,12.9991l17.0011 83.9993c15.4999,-7.99753 28.8334,-11.9994 39.8331,-11.9994 21.3309,0 37.4994,8.00068 48.1649,24.166 10.6686,16.1685 16.0014,54.1662 16.0014,114.167l0 504.667z"
     id="path200" /></glyph>
   <glyph
   unicode="Њ"
   horiz-adv-x="1010"
   id="glyph206"><path
     d="M529 715.999l0 -305 158.834 0c67.9979,0 120.833,-5.66702 158.664,-17.165 37.8337,-11.334 68.5025,-33.835 91.6688,-67.4996 23.1663,-33.5007 34.8315,-72.6684 34.8315,-117.336 0,-46.6638 -12.3337,-87.6638 -36.8309,-122.833 -24.5003,-35.3329 -53.1665,-58.4993 -85.8347,-69.499 -32.6681,-11.1669 -80.3348,-16.6668 -142.666,-16.6668l-273.666 0 0 328.999 -258.002 0 0 -328.999 -94.999 0 0 715.999 94.999 0 0 -305 258.002 0 0 305 94.999 0zm0 -634.999l176.665 0c40.1674,0 70.1676,2.99907 90.1677,8.83323 20.0001,5.83416 37.4994,18.6662 52.5011,38.332 15.1657,19.669 22.6649,45.6673 22.6649,77.834 0,27.6665 -6.66671,51.3343 -20.0001,71.3344 -13.1663,19.833 -33.4975,33.3335 -60.4986,40.6657 -27.1683,7.33527 -75.9986,10.9998 -146.668,10.9998l-114.832 0 0 -247.999z"
     id="path204" /></glyph>
   <glyph
   unicode="ü"
   horiz-adv-x="556"
   id="glyph210"><path
     d="M405.001 0l0 77.1654c-40.3345,-58.8335 -95.0022,-88.1652 -164.167,-88.1652 -30.5016,0 -59.0007,5.83416 -85.5004,17.4993 -26.4997,11.8323 -46.1655,26.4997 -59.0007,44.1662 -12.832,17.8336 -21.8324,39.502 -27.0011,65.1691 -3.49734,17.3322 -5.33274,44.6644 -5.33274,81.9999l0 321.166 88.0012 0 0 -287.167c0,-45.8344 1.83224,-76.8343 5.33274,-92.6685 5.49988,-23.1663 17.1682,-41.1639 35.1658,-54.3334 17.8336,-13.1663 39.8331,-19.833 66.1688,-19.833 26.3326,0 51,6.66671 73.9992,20.1673 22.9992,13.5006 39.3317,31.9996 49.0006,55.1659 9.49864,23.1695 14.3331,57.0013 14.3331,101.167l0 277.501 87.998 0 0 -519 -78.9977 0zm-270.002 583l0 100.001 91.9999 0 0 -100.001 -91.9999 0zm182.001 0l0 100.001 91.9999 0 0 -100.001 -91.9999 0z"
     id="path208" /></glyph>
   <glyph
   unicode="ë"
   horiz-adv-x="556"
   id="glyph214"><path
     d="M419.999 167.999l91.0003 -11.9994c-14.166,-52.8322 -40.6657,-93.9993 -79.3319,-123.167 -38.6663,-29.1645 -88.0012,-43.8319 -148.169,-43.8319 -75.6643,0 -135.665,23.3335 -179.998,70.0004 -44.3333,46.4998 -66.4999,112 -66.4999,196.166 0,86.9983 22.3306,154.665 67.1654,202.666 44.8347,48.1681 103,72.167 174.501,72.167 69.1647,0 125.665,-23.5006 169.5,-70.6659 43.8319,-47.1684 65.8314,-113.501 65.8314,-199.002 0,-5.1656 -0.163987,-12.9991 -0.498269,-23.3335l-386.502 0c3.33335,-56.8342 19.3347,-100.499 48.3352,-130.666 28.8334,-30.1673 64.9988,-45.333 108.165,-45.333 32.1667,0 59.6661,8.49895 82.3342,25.5 22.8321,17.0011 40.8328,44.1662 54.1662,81.4985zm-287.999 141.001l288.999 0c-3.83162,43.6679 -14.9985,76.3329 -33.1664,98.1684 -27.8337,33.8318 -64.1663,50.8329 -108.667,50.8329 -40.3314,0 -74.1663,-13.5006 -101.666,-40.5017 -27.3322,-26.998 -42.5011,-63.1666 -45.5001,-108.5zm13.9988 274l0 100.001 91.9999 0 0 -100.001 -91.9999 0zm182.001 0l0 100.001 91.9999 0 0 -100.001 -91.9999 0z"
     id="path212" /></glyph>
   <glyph
   unicode="Ú"
   horiz-adv-x="722"
   id="glyph218"><path
     d="M546.002 715.999l94.999 0 0 -413.5c0,-71.9998 -8.16782,-129.165 -24.3332,-171.499 -16.3325,-42.1668 -45.6673,-76.6672 -88.0012,-103.167 -42.5011,-26.4997 -97.9981,-39.8331 -166.999,-39.8331 -66.8342,0 -121.666,11.498 -164.167,34.6675 -42.6682,23.1663 -72.9995,56.4999 -91.1674,100.332 -18.1679,43.835 -27.3322,103.668 -27.3322,179.5l0 413.5 94.999 0 0 -413.333c0,-62.1669 5.83416,-108.165 17.3322,-137.5 11.5012,-29.4988 31.167,-52.334 59.335,-68.165 28.0008,-16.0014 62.334,-24.002 102.833,-24.002 69.335,0 118.834,15.8342 148.333,47.3324 29.5019,31.6684 44.1693,92.3342 44.1693,182.335l0 413.333zm-266.003 43.999l64.0023 137.002 115.999 0 -106.998 -137.002 -73.0027 0z"
     id="path216" /></glyph>
   <glyph
   unicode="É"
   horiz-adv-x="666"
   id="glyph222"><path
     d="M79.0008 0l0 715.999 516.998 0 0 -83.9993 -421.999 0 0 -220.001 395.001 0 0 -83.9993 -395.001 0 0 -244 439 0 0 -83.9993 -533.999 0zm195 759.998l63.9991 137.002 115.999 0 -106.998 -137.002 -72.9995 0z"
     id="path220" /></glyph>
   <glyph
   unicode="¸"
   horiz-adv-x="333"
   id="glyph226"><path
     d="M105.668 -74.9989l25.3329 85.9987 64.9988 0 -16.1653 -51.9997c27.8337,-3.33335 48.8335,-11.8323 62.9995,-25.6671 14.166,-13.6677 21.167,-29.0005 21.167,-45.8344 0,-24.3332 -11.8323,-45.8313 -35.5001,-64.4974 -23.5006,-18.6693 -59.1678,-28.0008 -106.667,-28.0008 -26.834,0 -50.4986,0 -70.833,0l4.99845 61.9998c21.167,-0.665409 36.5029,-0.999691 46.503,-0.999691 30.8327,0 52.6651,4.1659 65.166,12.6649 9.49864,6.50272 14.3331,14.3363 14.3331,23.8349 0,5.83416 -1.83539,10.9998 -5.66702,15.4999 -3.66764,4.50019 -10.5015,8.49895 -20.5015,11.6652 -10.1641,3.16937 -26.8308,5.00161 -50.1643,5.33589z"
     id="path224" /></glyph>
   <glyph
   unicode="§"
   horiz-adv-x="556"
   id="glyph230"><path
     d="M70.0004 -33.999l87.998 12.9991c9.16751,-42.3339 23.8349,-72.167 43.835,-89.332 19.833,-17.1682 47.1652,-25.6671 81.4985,-25.6671 33.5007,0 59.5021,8.49895 78.3354,25.5 18.8333,16.8308 28.3319,36.8309 28.3319,59.6661 0,16.4996 -5.83416,31.8324 -17.6665,45.8344 -20.1673,24.4972 -75.6675,64.4974 -166.333,119.83 -48.3321,29.6691 -81.9999,52.8354 -101,69.5022 -19.1644,16.8339 -34.8315,36.6669 -46.8309,59.3318 -12.1666,22.8352 -18.1679,46.667 -18.1679,71.3344 0,31.3342 9.83292,59.6661 29.3316,84.999 19.669,25.5 46.503,43.1665 80.8362,53.3337 -23.1695,21.9995 -39.502,42.3339 -49.0006,61.0001 -9.50179,18.8333 -14.166,38.6663 -14.166,59.6661 0,41.6685 16.3325,77.6668 48.8303,108.168 32.501,30.4985 75.5003,45.8313 129.168,45.8313 60.8329,0 108.332,-14.5002 142.499,-43.3336 34.1692,-28.8334 54.6676,-70.833 61.5015,-125.665l-91.0003 -9.00037c-6.83385,39.4988 -18.8333,67.1654 -35.8343,82.6653 -17.165,15.4999 -40.1642,23.3335 -69.1647,23.3335 -29.833,0 -54.0022,-7.99753 -72.5012,-24.166 -18.3319,-15.9982 -27.4994,-33.8318 -27.4994,-53.3337 0,-16.8339 5.83416,-32.3339 17.6665,-46.667 18.3319,-21.9995 68.1682,-57.8339 149.5,-107.333 51.1671,-31.3342 85.6675,-54.1662 103.668,-68.8336 22.9992,-19.6658 40.0003,-39.8331 50.8329,-60.6658 10.8326,-20.8327 16.3325,-43.5007 16.3325,-67.8339 0,-36.834 -11.8323,-68.3322 -35.5001,-94.3336 -13.6677,-14.9985 -38.6663,-30.1673 -74.9989,-45.333 25.9983,-20.0001 45.5001,-41.3342 58.3321,-63.9991 12.8351,-22.8352 19.1676,-47.3355 19.1676,-73.3338 0,-28.6662 -8.16782,-55.6673 -24.5003,-81.3345 -16.3325,-25.5 -39.666,-44.9987 -70.3347,-58.4993 -30.6656,-13.5006 -63.832,-20.3344 -99.3321,-20.3344 -62.334,0 -111.833,15.4999 -148.333,46.4998 -36.4998,31.167 -58.3353,74.3335 -65.5003,129.503zm286.665 153.665c24.166,12.3337 41.9996,26.834 53.8351,43.1665 11.6652,16.4996 17.4993,32.501 17.4993,48.1681 0,18.499 -8.33496,38.1649 -25.1657,58.6664 -17.0011,20.4984 -53.668,47.9978 -109.834,82.4982 -44.6676,27.3354 -78.0011,49.8332 -100.001,67.3357 -26.3326,-14.8345 -44.9987,-29.833 -56.1656,-44.8347 -11.1669,-14.9985 -16.8339,-31.6653 -16.8339,-49.8332 0,-20.5015 7.49926,-40.0003 22.3338,-58.6664 14.9985,-18.499 48.6663,-43.3336 101.164,-74.1663 43.835,-25.8343 81.5016,-49.8332 113.167,-72.3341z"
     id="path228" /></glyph>
   <glyph
   unicode="t"
   horiz-adv-x="277"
   id="glyph234"><path
     d="M256.999 78.4994l11.9994 -77.6668c-24.6643,-5.1656 -46.8309,-7.83354 -66.1657,-7.83354 -31.8324,0 -56.4999,5.00161 -74.1663,15.1688 -17.4993,10.1641 -29.833,23.3335 -37.0012,39.8331 -7.16498,16.4996 -10.6655,51.1671 -10.6655,103.999l0 298.999 -64.9988 0 0 68.0011 64.9988 0 0 128.333 88.0012 52.8322 0 -181.165 87.998 0 0 -68.0011 -87.998 0 0 -304.001c0,-25.1657 1.49796,-41.3311 4.66417,-48.4992 3.00223,-7.16498 8.00068,-12.832 15.0017,-17.165 7.00099,-4.16906 16.9979,-6.33558 30.0002,-6.33558 9.66578,0 22.4978,1.16683 38.332,3.5005z"
     id="path232" /></glyph>
   <glyph
   unicode="c"
   horiz-adv-x="500"
   id="glyph238"><path
     d="M405.001 190.001l85.9987 -12.0026c-9.49864,-59.1647 -33.5007,-105.333 -72.3341,-138.831 -38.8334,-33.5007 -86.6641,-50.1675 -143.167,-50.1675 -70.833,0 -127.831,23.1663 -170.83,69.499 -43.1665,46.3327 -64.6677,112.669 -64.6677,199.002 0,55.9985 9.33465,104.832 27.8337,146.832 18.499,41.8356 46.667,73.3338 84.6647,94.1665 37.8337,20.9998 79.0008,31.5013 123.668,31.5013 56.1656,0 102.334,-14.166 137.998,-42.6682 35.8343,-28.4991 58.8335,-68.9976 68.8336,-121.332l-84.999 -12.9991c-8.16782,34.8315 -22.5009,61.0001 -43.3336,78.6665 -20.6655,17.4993 -45.6673,26.3326 -74.9989,26.3326 -44.3333,0 -80.3348,-15.8342 -108.168,-47.4995 -27.6665,-31.8356 -41.4982,-81.8327 -41.4982,-150.502 0,-69.6662 13.3334,-120.165 40.0003,-151.666 26.8308,-31.4981 61.6655,-47.3324 104.498,-47.3324 34.6675,0 63.5009,10.5015 86.5001,31.6653 23.1663,20.9998 37.8337,53.5008 44.0022,97.3358z"
     id="path236" /></glyph>
   <glyph
   unicode="R"
   horiz-adv-x="722"
   id="glyph242"><path
     d="M79.0008 0l0 715.999 317.334 0c63.832,0 112.331,-6.49957 145.498,-19.3316 33.1664,-12.8351 59.6661,-35.5001 79.5022,-68.0011 19.833,-32.501 29.6659,-68.4993 29.6659,-107.834 0,-50.8329 -16.4996,-93.665 -49.3349,-128.5 -32.8321,-34.8315 -83.4978,-56.8342 -152.164,-66.3328 25.1657,-11.9994 44.1662,-23.9989 57.1653,-35.6672 27.6665,-25.3329 53.8319,-57.1653 78.3323,-95.3333l123.836 -195 -118.336 0 -94.6647 149.001c-27.4994,43.1665 -50.3346,75.9986 -68.1682,98.8306 -18.0007,22.8352 -33.999,38.6694 -48.1649,47.8338 -14.002,9.00037 -28.5022,15.3328 -43.1665,19.0004 -10.6686,2.16652 -28.1679,3.33335 -52.6683,3.33335l-109.666 0 0 -317.999 -94.999 0zm94.999 399.999l203.335 0c43.3336,0 76.9983,4.50019 101.331,13.5006 24.3332,8.83323 42.8353,23.1663 55.3331,42.9993 12.668,19.6658 19.0004,40.9999 19.0004,64.1663 0,33.835 -12.1666,61.8358 -36.6669,83.6681 -24.5003,21.8324 -63.1666,32.665 -115.999,32.665l-226.334 0 0 -236.999z"
     id="path240" /></glyph>
   <glyph
   unicode="A"
   horiz-adv-x="666"
   id="glyph246"><path
     d="M-1.50111 0l274.669 715.999 104.167 0 291.5 -715.999 -107.834 0 -82.8324 216.999 -301.5 0 -77.6668 -216.999 -100.502 0zm206.003 294.001l243.997 0 -74.6646 198.5c-22.5009,60.3315 -39.502,110.165 -51.3343,149.5 -9.83292,-46.667 -22.9992,-92.5014 -39.4988,-137.834l-78.4994 -210.165z"
     id="path244" /></glyph>
   <glyph
   unicode="0"
   horiz-adv-x="556"
   id="glyph250"><path
     d="M41.9996 353.332c0,84.5007 8.66609,152.833 26.0014,204.501 17.4993,51.8326 43.3336,91.6657 77.6668,119.499 34.1661,27.8337 77.3326,41.6654 129.332,41.6654 38.332,0 71.9998,-7.6664 101.167,-23.1663 29.0005,-15.4999 52.9994,-37.8337 71.6655,-66.9982 18.6662,-29.0005 33.3335,-64.5006 43.999,-106.333 10.8358,-41.8356 16.1685,-98.3355 16.1685,-169.169 0,-83.9993 -8.66609,-152 -25.8343,-203.666 -17.165,-51.8326 -42.9993,-91.6657 -77.3326,-119.666 -34.1661,-28.0008 -77.4997,-41.9996 -129.834,-41.9996 -68.8336,0 -123,24.5003 -162.335,73.6649 -47.1652,60.0004 -70.6659,157.169 -70.6659,291.667zm90.0006 -0.331128c0,-117.834 13.6677,-196.166 41.1671,-234.836 27.4994,-38.8334 61.4983,-58.165 101.833,-58.165 40.3345,0 74.3335,19.4987 101.833,58.3321 27.4994,39.0006 41.1671,117.169 41.1671,234.669 0,117.831 -13.6677,196.166 -41.1671,234.833 -27.3322,38.8334 -61.6655,58.165 -102.833,58.165 -40.3345,0 -72.6684,-17.165 -96.8344,-51.3311 -30.1673,-43.5007 -45.1658,-124.167 -45.1658,-241.667z"
     id="path248" /></glyph>
   <glyph
   unicode="ş"
   horiz-adv-x="500"
   id="glyph254"><path
     d="M30.9999 154.999l87.0015 14.002c4.83131,-34.8347 18.499,-61.5015 40.8328,-80.1676 22.3338,-18.499 53.6648,-27.8337 93.665,-27.8337 40.5017,0 70.5019,8.16782 90.1677,24.6675 19.4987,16.3325 29.3316,35.6672 29.3316,57.8339 0,19.833 -8.83323,35.5001 -26.3326,46.8309 -12.3337,7.83354 -42.3339,17.6665 -90.0006,29.833 -64.3334,16.1685 -108.831,30.1673 -133.832,42.0028 -24.8314,11.9994 -43.6679,28.3319 -56.4999,49.3318 -12.832,20.8327 -19.3316,43.999 -19.3316,69.3319 0,23.1695 5.33274,44.5004 15.8311,64.1694 10.6686,19.6658 25.0017,35.9983 43.1665,48.9975 13.6677,10.0001 32.3339,18.5022 55.8345,25.5 23.6678,7.00099 48.8335,10.5015 75.8346,10.5015 40.6657,0 76.3329,-5.83416 106.998,-17.6665 30.8327,-11.6683 53.5008,-27.6665 68.1682,-47.6667 14.4971,-20.1673 24.6643,-47.0012 30.1642,-80.6659l-85.9987 -12.0026c-3.83478,27.0011 -15.1657,48.1681 -33.835,63.3337 -18.6662,15.1688 -44.9987,22.6681 -79.1648,22.6681 -40.1674,0 -69.0008,-6.66671 -86.1658,-20.0001 -17.1682,-13.3334 -25.8343,-29.0005 -25.8343,-46.8341 0,-11.334 3.5005,-21.6652 10.6655,-30.8327 7.16813,-9.33465 18.335,-17.1682 33.6678,-23.3335 8.83323,-3.33335 34.5004,-10.8326 77.4997,-22.5009 61.9998,-16.4996 105.333,-30.1642 130.001,-40.6657 24.6643,-10.5015 43.999,-26.0014 57.9978,-46.0016 14.1691,-20.1641 21.167,-45.1658 21.167,-75.166 0,-29.1645 -8.49895,-56.667 -25.6671,-82.4982 -17.165,-25.8343 -41.8325,-45.8344 -73.9992,-60.0004 -32.3339,-14.166 -68.8336,-21.167 -109.499,-21.167 -67.3325,0 -118.834,13.9988 -154.167,41.8325 -35.3329,28.0008 -57.8339,69.335 -67.6668,124.167zm160.666 -240.998l25.3329 85.9987 65.002 0 -16.1685 -51.9997c27.8337,-3.33335 48.8335,-11.8323 62.9995,-25.6671 14.1691,-13.6677 21.167,-29.0005 21.167,-45.8344 0,-24.3332 -11.8323,-45.8313 -35.5001,-64.4974 -23.4975,-18.6693 -59.1647,-28.0008 -106.664,-28.0008 -26.834,0 -50.5017,0 -70.8361,0l5.00161 61.9998c21.167,-0.665409 36.4998,-0.999691 46.4998,-0.999691 30.8327,0 52.6651,4.1659 65.166,12.6649 9.50179,6.50272 14.3331,14.3331 14.3331,23.8349 0,5.83416 -1.83224,10.9998 -5.66702,15.4999 -3.66448,4.50019 -10.4983,8.49895 -20.4984,11.6652 -10.1672,3.16937 -26.834,5.00161 -50.1675,5.33589z"
     id="path252" /></glyph>
   <glyph
   unicode="≠"
   horiz-adv-x="548"
   id="glyph258"><path
     d="M243.833 204l-95.1662 -217.999 -67.6668 0 95.1662 217.999 -138.165 0 0 81.9999 174 0 58.8335 134.999 -232.833 0 0 81.9999 268.665 0 94.6679 217.002 67.6668 0 -94.6679 -217.002 137.667 0 0 -81.9999 -173.498 0 -59.0007 -134.999 232.499 0 0 -81.9999 -268.166 0z"
     id="path256" /></glyph>
   <glyph
   unicode="₦"
   horiz-adv-x="722"
   id="glyph262"><path
     d="M699.002 217.999l-59.0007 0 0 -217.999 -97.3327 0 -145.668 217.999 -230.001 0 0 -217.999 -91.0003 0 0 217.999 -58.9975 0 0 81.9999 58.9975 0 0 116.002 -58.9975 0 0 81.9999 58.9975 0 0 217.999 97.3358 0 145.665 -217.999 230.001 0 0 217.999 91.0003 0 0 -217.999 59.0007 0 0 -81.9999 -59.0007 0 0 -116.002 59.0007 0 0 -81.9999zm-150.001 81.9999l0 116.002 -175.167 0 77.4997 -116.002 97.667 0zm-339.166 198.002l-42.8353 63.9991 0 -63.9991 42.8353 0zm339.166 -344.001l0 63.9991 -42.8353 0 42.8353 -63.9991zm-206.835 145.999l-77.4997 116.002 -97.667 0 0 -116.002 175.167 0z"
     id="path260" /></glyph>
   <glyph
   unicode="„"
   horiz-adv-x="333"
   id="glyph266"><path
     d="M41.9996 0l0 102 93.9993 0 0 -81.0002c0,-43.3336 -4.99845,-74.6678 -15.1657,-93.8322 -14.166,-26.1686 -36.0015,-45.8344 -65.8345,-59.1678l-20.9998 34.6675c17.6665,7.16498 30.6688,18.3319 39.3348,33.8318 8.66609,15.3328 13.5006,36.4998 14.5002,63.5009l-45.8344 0zm151.001 0l0 102 93.9993 0 0 -81.0002c0,-43.3336 -4.99845,-74.6678 -15.1657,-93.8322 -14.166,-26.1686 -36.0015,-45.8344 -65.8345,-59.1678l-20.9998 34.6675c17.6665,7.16498 30.6656,18.3319 39.3348,33.8318 8.66609,15.3328 13.4974,36.4998 14.5002,63.5009l-45.8344 0z"
     id="path264" /></glyph>
   <glyph
   unicode="‍"
   horiz-adv-x="0"
   id="glyph270"><path
     d="M18.0007 -134l-36.0015 0 0 677.999 -65.9985 -65.9985 -24.002 23.9989 84.0024 81.9999 -84.0024 81.9999 24.002 24.002 83.9993 -84.0024 83.9993 84.0024 24.002 -24.002 -84.0024 -81.9999 84.0024 -81.9999 -24.002 -23.9989 -65.9985 65.9985 0 -677.999z"
     id="path268" /></glyph>
   <glyph
   unicode="ӵ"
   horiz-adv-x="520"
   id="glyph274"><path
     d="M32.9993 519l88.0012 0 0 -98.0012c0,-42.3339 2.5008,-72.9995 7.6664,-91.9999 4.99845,-19.0004 17.165,-35.6672 36.4998,-49.8332 19.1676,-14.166 43.3336,-21.167 72.5012,-21.167 33.3335,0 76.3329,8.83323 129.332,26.3357l0 234.666 88.0012 0 0 -519 -88.0012 0 0 209.5c-54.1662,-17.0011 -104.832,-25.5 -151.833,-25.5 -39.4988,0 -74.3335,10.0001 -104.501,30.0002 -30.1673,20.0001 -50.6657,44.5004 -61.4983,73.5009 -10.8358,29.0005 -16.1685,60.8329 -16.1685,95.6644l0 135.835zm73.9992 63.9991l0 100.001 92.0031 0 0 -100.001 -92.0031 0zm182.001 0l0 100.001 91.9999 0 0 -100.001 -91.9999 0z"
     id="path272" /></glyph>
   <glyph
   unicode="Ӥ"
   horiz-adv-x="718"
   id="glyph278"><path
     d="M79.0008 715.999l85.9987 0 0 -566.998 381.166 566.998 93.8353 0 0 -715.999 -86.0018 0 0 565.5 -380.166 -565.5 -94.8319 0 0 715.999zm144 43.999l0 100.001 91.9999 0 0 -100.001 -91.9999 0zm182.001 0l0 100.001 91.9999 0 0 -100.001 -91.9999 0z"
     id="path276" /></glyph>
   <glyph
   unicode="ӓ"
   horiz-adv-x="556"
   id="glyph282"><path
     d="M405.001 64.9988c-32.6681,-27.8337 -64.1663,-47.3324 -94.3336,-58.8335 -30.1673,-11.498 -62.5012,-17.165 -97.1687,-17.165 -56.9982,0 -100.833,13.8317 -131.499,41.6654 -30.6656,27.6665 -45.9984,63.1666 -45.9984,106.333 0,25.336 5.831,48.5024 17.3322,69.5022 11.6652,20.9998 26.834,37.6666 45.5001,50.3314 18.8333,12.668 39.8331,22.3338 63.3337,28.8334 17.3322,4.50019 43.4976,8.83323 78.3323,13.1663 71.0001,8.33496 123.501,18.5022 156.999,30.1673 0.334282,11.9994 0.501422,19.669 0.501422,22.8352 0,35.6641 -8.33181,60.8329 -24.9986,75.5003 -22.5009,19.833 -56.0016,29.6659 -100.335,29.6659 -41.5014,0 -72.167,-7.33527 -91.8328,-21.8355 -19.833,-14.4971 -34.3332,-40.1642 -43.835,-77.1654l-85.9987 11.9994c7.83354,36.834 20.6655,66.6671 38.6663,89.3352 18.0007,22.6649 43.999,40.0003 78.0011,52.3308 33.8318,12.1697 73.3338,18.335 117.998,18.335 44.3333,0 80.5019,-5.1656 108.336,-15.6671 27.6665,-10.4983 48.1649,-23.5006 61.1641,-39.3317 13.0023,-15.8342 22.1666,-35.8343 27.5025,-60.0004 2.83193,-15.0017 4.33305,-41.9996 4.33305,-80.8331l0 -116.667c0,-81.5016 1.83224,-133 5.49988,-154.835 3.5005,-21.8324 10.8326,-42.665 21.4981,-62.6652l-91.9999 0c-8.83323,18.499 -14.5002,40.1674 -16.9979,64.9988zm-7.00099 195c-31.9996,-12.9991 -80.0005,-23.9989 -144,-32.9993 -36.3326,-5.1656 -61.9998,-10.9998 -77.0014,-17.4993 -14.9985,-6.49957 -26.4997,-16.0014 -34.6644,-28.3319 -8.16782,-12.5009 -12.3337,-26.3357 -12.3337,-41.6685 0,-23.1663 8.83323,-42.665 26.6668,-58.165 17.8336,-15.4999 43.8319,-23.3335 77.998,-23.3335 33.835,0 64.0023,7.33212 90.502,22.1666 26.3326,14.6642 45.8313,34.8315 58.165,60.3315 9.50179,19.833 14.166,49.0006 14.166,87.4998l0.501422 31.9996zm-269.999 323.001l0 100.001 91.9999 0 0 -100.001 -91.9999 0zm181.997 0l0 100.001 91.9999 0 0 -100.001 -91.9999 0z"
     id="path280" /></glyph>
   <glyph
   unicode="ӂ"
   horiz-adv-x="669"
   id="glyph286"><path
     d="M379.999 519l0 -224c28.3351,0 48.3352,5.33274 59.8332,15.8342 11.5012,10.6655 28.0008,41.8325 49.3349,93.8322 20.0001,49.3318 38.1649,80.6659 54.5005,94.3336 15.9982,13.3334 41.3311,20.0001 76.1657,20.0001l32.1667 0 0 -72.5012 -23.8349 0.501422c-23.4975,0 -38.332,-3.5005 -44.8316,-10.3343 -6.83385,-7.16498 -17.3353,-28.4991 -31.3342,-63.9991 -12.9991,-33.999 -24.9986,-57.3324 -35.9983,-70.5019 -11.0029,-12.9991 -28.3351,-24.8314 -51.6686,-35.6641 38.0009,-10.1672 75.002,-45.333 111.168,-105.668l96.5001 -160.834 -96.6673 0 -93.9993 160.666c-19.1676,32.6681 -36.0015,53.9991 -50.1675,64.1663 -14.3331,10.1672 -31.3342,15.1688 -51.1671,15.1688l0 -240.002 -90.0006 0 0 240.002c-19.4987,0 -36.3326,-5.00161 -50.4986,-15.0017 -14.3331,-10.0001 -30.9999,-31.5013 -50.0003,-64.5006l-94.8319 -160.499 -96.6673 0 96.1659 160.834c36.4998,60.3347 73.8321,95.5004 111.833,105.668 -25.9983,11.9994 -44.3333,25.1657 -54.6676,39.3317 -10.4983,14.166 -25.9983,48.0009 -46.8309,101.502 -7.16813,17.9976 -14.8345,28.9973 -23.0024,32.9993 -8.49895,4.1659 -20.9998,6.16529 -37.6666,6.16529 -4.1659,0 -12.832,-0.167141 -25.8311,-0.498269l0 72.9995 12.1666 0c33.999,0 57.8339,-1.99938 71.6655,-6.16844 13.8348,-3.99876 26.1686,-12.6649 37.1683,-25.8311 10.8326,-13.1663 24.9986,-40.5017 42.3308,-82.3342 21.167,-51.1671 37.5026,-82.167 48.8335,-93.1668 11.334,-10.9998 31.3342,-16.4996 59.8332,-16.4996l0 224 90.0006 0zm107.002 189.998c-10.1672,-83.9993 -58.1681,-125.999 -144.167,-125.999 -86.5001,0 -134.668,41.9996 -144.835,125.999l60.0004 0c9.16751,-43.3305 36.4998,-64.9988 81.8327,-64.9988 49.3349,0 78.3354,21.6684 87.1686,64.9988l60.0004 0z"
     id="path284" /></glyph>
   <glyph
   unicode="ұ"
   horiz-adv-x="500"
   id="glyph290"><path
     d="M491 519l-195.999 -519 156.999 0 0 -63.9991 -156.999 0 0 -135.002 -88.0012 0 0 135.002 -157.998 0 0 63.9991 157.998 0 -196.999 519 93.9993 0 109.001 -300.5c15.1657,-41.5014 27.8337,-81.5016 38.0009,-120.335 9.3315,35.5001 22.1666,75.6675 37.9977,120.335l108.001 300.5 93.9993 0z"
     id="path288" /></glyph>
   <glyph
   unicode="Ҡ"
   horiz-adv-x="741"
   id="glyph294"><path
     d="M738.999 0l-117.664 0 -120.335 194.334c-29.833,48.8335 -51.9997,80.8331 -66.1657,95.6644 -29.3348,30.0002 -63.1666,45.0019 -101.833,45.0019l0 -335.001 -95.0022 0 0 632 -217.999 0 0 83.9993 313.001 0 0 -314.001c46.8309,0 81.6656,13.3334 104.334,40.0003 12.1666,14.002 29.997,49.3349 53.9991,106.002 17.6665,42.3339 30.8327,70.3316 39.3317,83.9993 17.6665,28.6662 39.1677,50.1675 64.6677,64.5006 23.5006,12.9991 49.8332,19.4987 78.8337,19.4987 36.6669,0 55.8345,-0.334282 57.8339,-0.999691l0 -81.9999c-4.16906,0 -10.5015,0.167141 -19.0004,0.501422 -8.49895,0.331128 -14.8345,0.498269 -19.1676,0.498269 -33.5007,0 -59.499,-11.498 -77.998,-34.6675 -10.5015,-12.6649 -24.002,-39.666 -40.6688,-81.0002 -17.8336,-45.1658 -32.3339,-75.6643 -43.3336,-91.4985 -18.6662,-27.0011 -44.3333,-47.0012 -77.1654,-60.3347 46.1655,-12.6649 91.8328,-55.5002 136.832,-128.165l147.5 -238.333z"
     id="path292" /></glyph>
   <glyph
   unicode="ҏ"
   horiz-adv-x="556"
   id="glyph298"><path
     d="M516.001 17.6665l-45.3361 -45.333 -56.831 56.8342c-38.168,-26.834 -79.3351,-40.1674 -123.668,-40.1674 -56.3327,0 -101.666,21.6652 -136.166,65.166l0 -253.168 -88.0012 0 0 718.002 80.0005 0 0 -68.1682c37.8337,52.8354 87.834,79.168 150.335,79.168 93.1668,0 157.664,-43.3336 193.833,-130.168 17.165,-41.4982 25.8343,-86.9983 25.8343,-136.5 0,-53.3305 -9.50179,-100.833 -28.3351,-142.833 -7.49926,-16.4996 -16.8339,-32.1667 -27.8337,-46.667l56.1688 -56.1656zm-90.0006 246c0,51.9997 -9.66894,95.6676 -29.1676,131.168 -24.3332,44.1662 -60.6658,66.1657 -108.667,66.1657 -47.6667,0 -84.5007,-23.3335 -110.499,-70.1676 -21.167,-37.9977 -31.6684,-82.8324 -31.6684,-134.498 0,-52.5011 9.83292,-96.1659 29.3348,-130.502 23.9989,-43.1665 60.3315,-64.8317 109.165,-64.8317 27.0011,0 51.3343,8.00068 73.1667,24.166l-49.4989 49.3349 45.333 45.333 46.3327 -46.1687c17.5025,32.1667 26.1686,75.5003 26.1686,130.001z"
     id="path296" /></glyph>
   <glyph
   unicode="Ѿ"
   horiz-adv-x="1337"
   id="glyph302"><path
     d="M1285 354.499c0,-109.834 -32.6681,-198.333 -98.1684,-265 -66.3328,-67.6668 -155.498,-101.499 -267.498,-101.499 -86.8344,0 -170.168,25.9983 -249.834,78.1651 -79.8334,-52.1668 -163.334,-78.1651 -250.333,-78.1651 -112.167,0 -201.332,33.8318 -267.835,101.499 -65.4971,66.6671 -98.3324,155.167 -98.3324,265 0,113.668 32.1667,204.334 96.333,272.001 64.1663,67.6668 151.666,101.499 262.502,101.499 90.666,0 160.998,-22.6649 211.165,-67.9979l-60.0004 -61.9998c-38.4991,32.665 -88.6666,48.9975 -150.499,48.9975 -86.0018,0 -152,-27.3322 -197.999,-82.1639 -42.3339,-51 -63.5009,-119.335 -63.5009,-205.003 0,-87.8309 22.1666,-157.166 66.4999,-207.999 46.1655,-53.1665 111.666,-79.8334 196.334,-79.8334 35.1658,0 72.167,6.66671 111,20.0001 40.3314,13.9988 73.1667,32.1667 98.1652,54.1662l0 217.835 92.9996 0 0 -217.835c25.0017,-21.9995 57.6667,-40.1674 98.0012,-54.1662 38.6663,-13.3334 75.6675,-20.0001 110.666,-20.0001 84.5007,0 149.834,26.6668 195.999,79.8334 44.1662,50.8329 66.3328,120.168 66.3328,207.999 0,85.6675 -21.167,154.003 -63.3337,205.003 -45.8313,54.8316 -111.666,82.1639 -197.497,82.1639 -61.6686,0 -111.836,-16.3325 -150.168,-48.9975l-60.0004 61.9998c50.1675,45.333 120.335,67.9979 210.834,67.9979 110.666,0 197.999,-33.8318 262.001,-101.499 64.1663,-67.6668 96.1659,-158.333 96.1659,-272.001zm-396.001 500.501l-44.1662 -95.0022 -16.6668 0 -23.1663 49.0006 -108.001 0 -23.1663 -49.0006 -16.6668 0 -23.1663 49.0006 -107.998 0 -23.1695 -49.0006 -16.6668 0 -44.1662 95.0022 447.001 0z"
     id="path300" /></glyph>
   <glyph
   unicode="ѭ"
   horiz-adv-x="867"
   id="glyph306"><path
     d="M807 0l-88.0012 0 0 34.1661c0,64.6677 -10.4983,108.168 -31.331,130.833 -20.8327,22.6681 -60.6689,34.0021 -119.666,34.0021l0 -199.002 -89.0009 0 0 199.002c-58.4993,0 -98.1684,-11.334 -119.001,-34.0021 -20.6655,-22.6649 -30.9999,-66.1657 -30.9999,-130.833l0 -34.1661 -87.998 0 0 34.1661c0,74.3335 11.8323,129.335 35.6641,164.835l-122.666 0 0 -199.002 -88.0012 0 0 519 88.0012 0 0 -247.999 281.667 0 -148.834 247.999 475.667 0 -150.499 -247.999c73.1667,-5.16875 124.334,-26.5028 153.334,-64.0023 27.8337,-35.5001 41.6654,-92.9996 41.6654,-172.833l0 -34.1661zm-175.665 448l-212.669 0 105.169 -183 107.5 183z"
     id="path304" /></glyph>
   <glyph
   unicode="ќ"
   horiz-adv-x="437"
   id="glyph310"><path
     d="M64.9988 519l88.0012 0 0 -224c28.0008,0 47.6667,5.33274 59.0007,16.1653 11.1669,10.6686 27.6665,41.8356 49.666,93.6682 17.3322,40.9999 31.3342,68.0011 41.9996,81.0002 10.8326,12.9991 23.1663,21.8324 37.1683,26.3326 14.166,4.50019 36.6637,6.83385 67.4996,6.83385l17.6665 0 0 -72.5012 -24.5003 0.501422c-23.1663,0 -38.0009,-3.5005 -44.5004,-10.3343 -6.83385,-7.16498 -17.3322,-28.4991 -31.3342,-63.9991 -13.3334,-33.999 -25.5,-57.4996 -36.6669,-70.5019 -10.9998,-12.9991 -28.1648,-24.8314 -51.3311,-35.6641 37.8306,-10.1672 75.166,-45.333 111.833,-105.668l96.5001 -160.834 -96.6673 0 -95.1662 160.332c-19.1676,32.501 -35.8343,53.8351 -50.0003,64.1694 -14.3331,10.3312 -31.3342,15.4999 -51.1671,15.4999l0 -240.002 -88.0012 0 0 519zm102 63.9991l64.0023 137.002 115.999 0 -106.998 -137.002 -73.0027 0z"
     id="path308" /></glyph>
   <glyph
   unicode="ы"
   horiz-adv-x="718"
   id="glyph314"><path
     d="M560 519l88.0012 0 0 -519 -88.0012 0 0 519zm-491 0l87.998 0 0 -203 111 0c72.5012,0 128.169,-13.9988 167.333,-42.1668 39.1677,-28.1679 58.6664,-67.0014 58.6664,-116.5 0,-43.3336 -16.3325,-80.3316 -48.9975,-111.168 -32.6681,-30.8327 -84.835,-46.1655 -156.668,-46.1655l-219.333 0 0 519zm87.998 -447.001l92.3342 0c55.5002,0 95.3333,6.83385 119.001,20.5015 23.8317,13.6645 35.6672,34.9986 35.6672,63.9991 0,22.5009 -8.83323,42.5011 -26.3357,60.1675 -17.6665,17.4993 -56.4999,26.3326 -116.664,26.3326l-104.003 0 0 -171.001z"
     id="path312" /></glyph>
   <glyph
   unicode="к"
   horiz-adv-x="437"
   id="glyph318"><path
     d="M64.9988 519l88.0012 0 0 -224c28.0008,0 47.6667,5.33274 59.0007,16.1653 11.1669,10.6686 27.6665,41.8356 49.666,93.6682 17.3322,40.9999 31.3342,68.0011 41.9996,81.0002 10.8326,12.9991 23.1663,21.8324 37.1683,26.3326 14.166,4.50019 36.6637,6.83385 67.4996,6.83385l17.6665 0 0 -72.5012 -24.5003 0.501422c-23.1663,0 -38.0009,-3.5005 -44.5004,-10.3343 -6.83385,-7.16498 -17.3322,-28.4991 -31.3342,-63.9991 -13.3334,-33.999 -25.5,-57.4996 -36.6669,-70.5019 -10.9998,-12.9991 -28.1648,-24.8314 -51.3311,-35.6641 37.8306,-10.1672 75.166,-45.333 111.833,-105.668l96.5001 -160.834 -96.6673 0 -95.1662 160.332c-19.1676,32.501 -35.8343,53.8351 -50.0003,64.1694 -14.3331,10.3312 -31.3342,15.4999 -51.1671,15.4999l0 -240.002 -88.0012 0 0 519z"
     id="path316" /></glyph>
   <glyph
   unicode="Щ"
   horiz-adv-x="937"
   id="glyph322"><path
     d="M79.0008 715.999l94.999 0 0 -632 236.999 0 0 632 95.0022 0 0 -632 236.999 0 0 632 94.999 0 0 -632 63.9991 0 0 -283.001 -83.9993 0 0 199.002 -738.999 0 0 715.999z"
     id="path320" /></glyph>
   <glyph
   unicode="И"
   horiz-adv-x="718"
   id="glyph326"><path
     d="M79.0008 715.999l85.9987 0 0 -566.998 381.166 566.998 93.8353 0 0 -715.999 -86.0018 0 0 565.5 -380.166 -565.5 -94.8319 0 0 715.999z"
     id="path324" /></glyph>
   <glyph
   unicode="Ї"
   horiz-adv-x="277"
   id="glyph330"><path
     d="M92.9996 0l0 715.999 94.999 0 0 -715.999 -94.999 0zm-86.9983 759.998l0 100.001 91.9999 0 0 -100.001 -91.9999 0zm181.997 0l0 100.001 91.9999 0 0 -100.001 -91.9999 0z"
     id="path328" /></glyph>
   <glyph
   unicode="ù"
   horiz-adv-x="556"
   id="glyph334"><path
     d="M405.001 0l0 77.1654c-40.3345,-58.8335 -95.0022,-88.1652 -164.167,-88.1652 -30.5016,0 -59.0007,5.83416 -85.5004,17.4993 -26.4997,11.8323 -46.1655,26.4997 -59.0007,44.1662 -12.832,17.8336 -21.8324,39.502 -27.0011,65.1691 -3.49734,17.3322 -5.33274,44.6644 -5.33274,81.9999l0 321.166 88.0012 0 0 -287.167c0,-45.8344 1.83224,-76.8343 5.33274,-92.6685 5.49988,-23.1663 17.1682,-41.1639 35.1658,-54.3334 17.8336,-13.1663 39.8331,-19.833 66.1688,-19.833 26.3326,0 51,6.66671 73.9992,20.1673 22.9992,13.5006 39.3317,31.9996 49.0006,55.1659 9.49864,23.1695 14.3331,57.0013 14.3331,101.167l0 277.501 87.998 0 0 -519 -78.9977 0zm-75.002 583l-71.0001 0 -113 137.002 118.001 0 65.9985 -137.002z"
     id="path332" /></glyph>
   <glyph
   unicode="è"
   horiz-adv-x="556"
   id="glyph338"><path
     d="M419.999 167.999l91.0003 -11.9994c-14.166,-52.8322 -40.6657,-93.9993 -79.3319,-123.167 -38.6663,-29.1645 -88.0012,-43.8319 -148.169,-43.8319 -75.6643,0 -135.665,23.3335 -179.998,70.0004 -44.3333,46.4998 -66.4999,112 -66.4999,196.166 0,86.9983 22.3306,154.665 67.1654,202.666 44.8347,48.1681 103,72.167 174.501,72.167 69.1647,0 125.665,-23.5006 169.5,-70.6659 43.8319,-47.1684 65.8314,-113.501 65.8314,-199.002 0,-5.1656 -0.163987,-12.9991 -0.498269,-23.3335l-386.502 0c3.33335,-56.8342 19.3347,-100.499 48.3352,-130.666 28.8334,-30.1673 64.9988,-45.333 108.165,-45.333 32.1667,0 59.6661,8.49895 82.3342,25.5 22.8321,17.0011 40.8328,44.1662 54.1662,81.4985zm-287.999 141.001l288.999 0c-3.83162,43.6679 -14.9985,76.3329 -33.1664,98.1684 -27.8337,33.8318 -64.1663,50.8329 -108.667,50.8329 -40.3314,0 -74.1663,-13.5006 -101.666,-40.5017 -27.3322,-26.998 -42.5011,-63.1666 -45.5001,-108.5zm217.999 274l-71.0001 0 -113 137.002 118.001 0 65.9985 -137.002z"
     id="path336" /></glyph>
   <glyph
   unicode="×"
   horiz-adv-x="583"
   id="glyph342"><path
     d="M78.6665 199.667l153.833 153.833 -153.331 153.334 59.499 59.499 153.334 -153.167 152.833 152.833 58.6664 -59.1647 -152.502 -152.833 153.334 -153.334 -59.499 -59.499 -153.334 153.331 -153.833 -153.833 -59.0007 59.0007z"
     id="path340" /></glyph>
   <glyph
   unicode="Æ"
   horiz-adv-x="1000"
   id="glyph346"><path
     d="M0.501422 0l344.165 715.999 588.332 0 0 -83.9993 -360.999 0 0 -221.001 336 0 0 -83.9993 -336 0 0 -243.001 374.001 0 0 -83.9993 -469 0 0 206.999 -274.502 0 -99.4992 -206.999 -102.498 0zm242.332 291.002l234.167 0 0 340.999 -70.1676 0 -164 -340.999z"
     id="path344" /></glyph>
   <glyph
   unicode="µ"
   horiz-adv-x="576"
   id="glyph350"><path
     d="M497.001 519l0 -519 -78.0011 0 0 62.9995c-17.0011,-26.1654 -33.8318,-44.1662 -50.3346,-53.8319 -22.8321,-13.5006 -49.4989,-20.1673 -79.8334,-20.1673 -27.1651,0 -51,5.33274 -71.9998,16.1653 -15.6639,8.16782 -32.8321,24.1692 -51.8326,48.3352l0 -252.502 -87.998 0 0 718.002 87.998 0 0 -219.166c0,-79.5022 4.1659,-131.001 12.668,-154.668 8.49895,-23.5006 22.3338,-41.9996 41.3311,-55.6673 19.1676,-13.6645 40.9999,-20.4984 65.8345,-20.4984 26.0014,0 49.3349,7.16498 70.0004,21.4981 20.4984,14.1691 34.9986,32.6681 43.5007,55.1691 8.49895,22.6649 12.6649,73.4978 12.6649,152.666l0 220.667 86.0018 0z"
     id="path348" /></glyph>
   <glyph
   unicode="¤"
   horiz-adv-x="556"
   id="glyph354"><path
     d="M103.999 469.334l-67.9979 66.4999 56.3327 58.165 67.8339 -67.9979c34.4972,23.3335 72.9995,34.9986 115.665,34.9986 42.8353,0 81.5016,-11.6652 115.668,-34.9986l67.8339 67.9979 56.667 -58.165 -68.0011 -66.4999c23.3335,-35.8343 34.9986,-74.1663 34.9986,-114.835 0,-40.9999 -11.6652,-79.4991 -34.9986,-115.333l68.0011 -66.4999 -56.667 -58.6664 -67.8339 69.0008c-34.1661,-23.9989 -72.8324,-36.0015 -115.668,-36.0015 -42.665,0 -81.1673,12.0026 -115.665,36.0015l-67.8339 -69.0008 -56.3327 58.6664 67.9979 66.4999c-23.3335,35.8343 -34.9986,74.3335 -34.9986,115.333 0,40.6688 11.6652,79.0008 34.9986,114.835zm45.0019 -115.002c0,-35.3329 12.3306,-65.3331 37.1652,-90.1646 24.6675,-24.8346 54.5005,-37.1683 89.332,-37.1683 34.8347,0 64.6677,12.3337 89.3352,37.1683 24.8346,24.8314 37.1652,54.8316 37.1652,90.1646 0,34.8347 -12.3306,64.6677 -36.8309,89.5023 -24.6675,24.8314 -54.5005,37.1652 -89.6694,37.1652 -34.8315,0 -64.6646,-12.3337 -89.332,-37.1652 -24.8346,-24.8346 -37.1652,-54.6676 -37.1652,-89.5023z"
     id="path352" /></glyph>
   <glyph
   unicode="q"
   horiz-adv-x="556"
   id="glyph358"><path
     d="M396.499 -199.002l0 254.669c-13.6645,-19.1676 -32.8321,-35.0018 -57.3324,-47.6667 -24.5003,-12.668 -50.6657,-19.0004 -78.3323,-19.0004 -61.5015,0 -114.334,24.5003 -158.834,73.6649 -44.3333,49.0006 -66.4999,116.336 -66.4999,201.67 0,51.9997 9.00037,98.6667 27.0011,139.998 18.1647,41.1671 44.3333,72.5012 78.6665,93.6682 34.3332,21.3341 71.9998,31.9996 113,31.9996 64.1663,0 114.498,-26.834 151.332,-80.6659l0 69.6662 79.0008 0 0 -718.002 -88.0012 0zm-270.998 460.003c0,-66.6671 13.9988,-116.667 41.9996,-150.001 28.0008,-33.3335 61.4983,-50.0003 100.666,-50.0003 37.4994,0 69.6662,15.8342 96.8344,47.4995 26.998,31.8324 40.4985,80.0005 40.4985,144.668 0,68.9976 -14.3331,120.833 -42.8322,155.665 -28.4991,34.8347 -61.8326,52.1668 -100.335,52.1668 -38.1649,0 -70.4987,-16.1653 -96.9984,-48.4992 -26.4997,-32.3339 -39.8331,-82.8324 -39.8331,-151.499z"
     id="path356" /></glyph>
   <glyph
   unicode="`"
   horiz-adv-x="333"
   id="glyph362"><path
     d="M226 583l-71.0001 0 -113 137.002 118.001 0 65.9985 -137.002z"
     id="path360" /></glyph>
   <glyph
   unicode="O"
   horiz-adv-x="777"
   id="glyph366"><path
     d="M48.0009 348.501c0,118.667 31.9996,211.666 95.8316,278.832 63.8352,67.1685 146.166,100.666 247.166,100.666 66.1688,0 125.668,-15.8311 178.834,-47.3324 52.9994,-31.5013 93.5011,-75.5003 121.335,-132 27.8305,-56.3327 41.8325,-120.332 41.8325,-191.833 0,-72.4981 -14.6674,-137.5 -43.999,-194.665 -29.3348,-57.3356 -70.8361,-100.666 -124.501,-130.001 -53.8351,-29.4988 -111.833,-44.1662 -174,-44.1662 -67.4996,0 -127.667,16.3325 -180.834,48.8335 -52.9994,32.4978 -93.3339,76.8311 -120.666,133.167 -27.3354,56.1656 -40.9999,115.665 -40.9999,178.5zm97.9981 -1.66825c0,-86.1658 23.1663,-154 69.5022,-203.499 46.3327,-49.502 104.498,-74.3335 174.498,-74.3335 71.3344,0 129.834,24.9986 175.999,74.9989 46.0016,50.0003 69.0008,121 69.0008,213 0,58.1681 -9.83292,109.001 -29.4988,152.335 -19.6658,43.3305 -48.4992,76.9983 -86.3329,100.833 -38.0009,23.8317 -80.5019,35.8312 -127.667,35.8312 -67.0014,0 -124.668,-22.9992 -173,-68.9976 -48.3321,-46.0016 -72.5012,-122.669 -72.5012,-230.169z"
     id="path364" /></glyph>
   <glyph
   unicode="&gt;"
   horiz-adv-x="583"
   id="glyph370"><path
     d="M528.001 313.001l-472.002 -203 0 87.998 373.001 155.501 -373.001 153.501 0 87.998 472.002 -199.998 0 -81.9999z"
     id="path368" /></glyph>
   <glyph
   unicode="-"
   horiz-adv-x="333"
   id="glyph374"><path
     d="M30.9999 215l0 88.0012 272.001 0 0 -88.0012 -272.001 0z"
     id="path372" /></glyph>
   <glyph
   unicode="∙"
   horiz-adv-x="277"
   id="glyph378"><path
     d="M90.0006 302.001l0 99.9975 100.001 0 0 -99.9975 -100.001 0z"
     id="path376" /></glyph>
   <glyph
   unicode="⅞"
   horiz-adv-x="834"
   id="glyph382"><path
     d="M99.6663 -28.0008l537.499 756 75.8346 0 -537.499 -756 -75.8346 0zm-3.66764 387c7.83354,104.501 50.5017,204.167 128.001,298.999l-187.999 0 0 59.0007 268.999 0 0 -39.0006c-80.1676,-92.4982 -125.835,-198.831 -137.002,-318.999l-71.9998 0zm503.5 -180.499c-42.3339,15.3328 -63.4977,41.6654 -63.4977,79.168 0,25.9983 10.1641,48.1649 30.4985,66.1657 20.1673,18.1679 52.9994,27.1651 98.1652,27.1651 45.0019,0 78.8337,-8.66609 101.502,-26.1654 22.5009,-17.3322 33.8318,-40.1674 33.8318,-68.1682 0,-37.4994 -22.8321,-63.4977 -68.3322,-78.1651 54.1662,-13.3334 81.3345,-43.1665 81.3345,-89.4991 0,-35.5001 -13.6677,-63.1666 -41.1671,-82.9996 -27.4994,-20.0001 -62.1669,-30.0002 -103.999,-30.0002 -43.6679,0 -78.8337,10.0001 -105.668,30.0002 -26.834,19.833 -40.1674,46.8309 -40.1674,80.4988 0,48.0009 25.8343,78.6665 77.4997,91.9999zm9.50179 74.5006c0,-16.0014 5.66702,-28.3351 16.9979,-37.0012 11.334,-8.66609 25.3329,-12.9991 41.8356,-12.9991 15.8311,0 29.833,4.1659 41.9996,12.5009 12.1666,8.33181 18.1647,20.0001 18.1647,34.9986 0,15.0017 -5.831,27.0011 -17.4993,36.0015 -11.6652,8.99722 -26.1654,13.4974 -43.6647,13.4974 -17.8336,0 -32.0027,-4.66417 -42.3339,-14.166 -10.3343,-9.49864 -15.4999,-20.4984 -15.4999,-32.8321zm-14.002 -160.499c0,-40.9999 24.1692,-61.5015 72.5012,-61.5015 22.9992,0 40.9999,5.49988 53.9991,16.6668 12.9991,11.1669 19.5019,25.3329 19.5019,42.3339 0,18.6662 -7.00099,33.5007 -20.9998,44.5004 -13.8348,10.9998 -31.8356,16.4996 -54.0022,16.4996 -22.6649,0 -40.1674,-5.49988 -52.498,-16.6668 -12.3337,-11.1669 -18.5022,-25.1657 -18.5022,-41.8325z"
     id="path380" /></glyph>
   <glyph
   unicode="₴"
   horiz-adv-x="556"
   id="glyph386"><path
     d="M549.001 236l-418.669 0c-2.83193,-10.9998 -4.33305,-23.8317 -4.33305,-38.4991 0,-37.0012 11.1669,-68.4993 33.6678,-94.1665 26.0014,-29.5019 62.9995,-44.3333 110.833,-44.3333 46.0016,0 82.3342,14.166 109.001,42.4979 22.1666,22.8352 35.9983,52.6683 41.4982,89.5023l88.0012 -16.6668c-5.1656,-58.8335 -29.1676,-105.166 -71.9998,-138.834 -42.6682,-33.6678 -97.8341,-50.4986 -165.501,-50.4986 -33.5007,0 -66.6671,5.99815 -99.4992,17.9976 -32.8353,11.9994 -58.8335,28.1679 -78.0011,48.3352 -38.6663,40.4985 -57.9978,91.3314 -57.9978,152 0,10.3312 0.83255,21.3309 2.49765,32.665l-30.4985 0 0 81.9999 61.6655 0c19.833,28.8334 48.6663,51.5014 86.6672,68.1682 8.16782,3.5005 41.6654,13.5006 100.499,29.833l-248.832 0 0 81.9999 388.665 0c6.16844,13.9988 9.33465,30.3313 9.33465,49.0006 0,30.6656 -9.83292,56.9982 -29.3348,78.8305 -22.9992,26.1686 -57.9978,39.1677 -104.832,39.1677 -42.6682,0 -74.3335,-11.6652 -95.1662,-35.1658 -16.4996,-18.6662 -27.5025,-45.1658 -32.6681,-79.8334l-90.0006 13.6677c7.83354,55.6642 30.8327,99.4992 69.1679,131.332 35.8343,30.0002 82.6653,45.0019 140.833,45.0019 72.8324,0 127.333,-16.0014 163.665,-47.8338 44.1662,-38.8334 66.3328,-89.5023 66.3328,-152.167 0,-14.6674 -1.33082,-28.6662 -3.83162,-41.9996l58.8335 0 0 -81.9999 -98.4995 0c-12.3337,-14.002 -27.0011,-25.8343 -43.835,-35.3329 -25.1657,-14.002 -79.3319,-32.1667 -162.499,-54.3334 -9.50179,-2.66794 -18.335,-5.33589 -26.3326,-8.33496l331.166 0 0 -81.9999z"
     id="path384" /></glyph>
   <glyph
   unicode="₣"
   horiz-adv-x="556"
   id="glyph390"><path
     d="M81.9999 120.001l-81.9999 0 0 72.9995 81.9999 0 0 522.999 424.001 0 0 -83.9993 -329.002 0 0 -223 277 0 0 -83.9993 -277 0 0 -132 153 0 0 -72.9995 -153 0 0 -120.001 -94.999 0 0 120.001z"
     id="path388" /></glyph>
   <glyph
   unicode="‬"
   horiz-adv-x="0"
   id="glyph394"><path
     d="M113.999 480l-96.9984 0 0 -613.999 -35.0018 0 0 613.999 -96.9984 0 0 209.002 228.999 0 0 -209.002z"
     id="path392" /></glyph>
   <glyph
   unicode="‛"
   horiz-adv-x="222"
   id="glyph398"><path
     d="M161.001 621l-45.8344 0c0.668563,-50.6657 18.6662,-82.9996 53.8351,-97.3327l-22.0027 -34.6675c-30.0002,13.6677 -50.8329,31.9996 -62.498,55.1659 -11.6683,22.9992 -17.4993,55.8345 -17.4993,98.3324l0 80.5019 93.9993 0 0 -102z"
     id="path396" /></glyph>
   <glyph
   unicode="Ӳ"
   horiz-adv-x="635"
   id="glyph402"><path
     d="M4.50019 715.999l95.3333 0 234.498 -440.167 203.836 440.167 93.3308 0 -268.166 -556.998c-33.5007,-69.6693 -61.0001,-115.333 -82.4982,-136.835 -21.5012,-21.5012 -52.1668,-32.1667 -92.1671,-32.1667 -24.3332,0 -54.1662,5.66702 -89.6663,17.0011l0 81.0002c25.3329,-14.6674 52.1668,-22.0027 80.4988,-22.0027 22.9992,0 42.8322,7.50241 59.6661,22.3338 16.6668,14.8345 35.1689,48.6663 55.3331,101.502l-289.999 526.165zm169.5 43.999l59.0007 137.002 113.999 0 -102.833 -137.002 -70.1676 0zm169.001 0l62.9995 137.002 113 0 -101.833 -137.002 -74.1663 0z"
     id="path400" /></glyph>
   <glyph
   unicode="ӡ"
   horiz-adv-x="544"
   id="glyph406"><path
     d="M511.999 48.0009c0,-72.6684 -22.5009,-133.668 -67.4996,-182.833 -45.8344,-50.1675 -104.999,-75.1692 -177.333,-75.1692 -63.1666,0 -115.835,18.1679 -157.834,54.3334 -41.9996,36.1686 -66.1657,85.5004 -72.331,147.834l91.9999 7.83354c6.16529,-40.6657 20.4984,-73.1667 42.665,-97.4998 24.5003,-27.0011 56.3327,-40.5017 95.5004,-40.5017 46.667,0 84.1664,18.335 112.665,55.1691 26.1686,33.4975 39.1677,74.5006 39.1677,122.666 0,51.8326 -15.8342,92.1671 -47.4995,121.168 -30.0002,27.3322 -70.1676,40.9999 -120.499,40.9999l-45.5001 0 0 77.998 165.832 171.001c-48.8335,-1.99938 -81.9999,-2.99907 -99.8335,-2.99907l-212.499 0 0 71.0001 423.998 0 0 -58.001 -180.332 -183c59.0007,-4.1659 107.834,-25.9983 146.668,-65.5003 41.8325,-42.665 62.6652,-97.4998 62.6652,-164.498z"
     id="path404" /></glyph>
   <glyph
   unicode="Ӑ"
   horiz-adv-x="666"
   id="glyph410"><path
     d="M-1.50111 0l274.669 715.999 104.167 0 291.5 -715.999 -107.834 0 -82.8324 216.999 -301.5 0 -77.6668 -216.999 -100.502 0zm206.003 294.001l243.997 0 -74.6646 198.5c-22.5009,60.3315 -39.502,110.165 -51.3343,149.5 -9.83292,-46.667 -22.9992,-92.5014 -39.4988,-137.834l-78.4994 -210.165zm272.499 592c-10.1672,-83.9993 -58.1681,-126.002 -144.167,-126.002 -86.5001,0 -134.668,42.0028 -144.835,126.002l60.0004 0c9.16751,-43.3336 36.4998,-65.002 81.8327,-65.002 49.3349,0 78.3354,21.6684 87.1686,65.002l60.0004 0z"
     id="path408" /></glyph>
   <glyph
   unicode="ҿ"
   horiz-adv-x="665"
   id="glyph414"><path
     d="M624 260.333c0,-5.1656 -0.167141,-12.9991 -0.498269,-23.3335l-386.502 0c3.00223,-51.3311 16.8339,-92.6654 41.5014,-124.167 28.1648,-35.8312 66.6671,-53.8319 115.501,-53.8319 65.8314,0 111.499,35.9983 136.999,107.998l90.0006 -11.1669c-27.6665,-103 -93.6682,-158.998 -198.002,-167.831l0 -139.001 -63.9991 0 0 140.001c-66.1657,6.49957 -117.834,32.9993 -155.334,79.4991 -35.1658,43.6679 -53.9991,99.8335 -56.667,168.5 -94.6647,0 -142,38.168 -142,114.334 0,20.5015 3.16937,43.3336 9.33465,68.6665l74.5006 -16.6668c-4.50019,-14.5002 -6.83385,-28.3319 -6.83385,-41.3342 0,-23.9989 8.33496,-39.666 24.9986,-47.1652 8.33496,-3.83478 22.6681,-5.83416 43.0025,-5.83416 7.6664,61.8358 29.0005,111.335 63.832,148.834 44.8347,48.1681 103,72.167 174.668,72.167 76.3329,0 135.665,-26.4997 177.999,-79.4991 38.332,-48.3352 57.4996,-111.833 57.4996,-190.168zm-92.9996 48.6663c-3.83478,43.6679 -14.9985,76.3329 -33.1664,98.1684 -28.0008,33.8318 -64.1663,50.8329 -108.667,50.8329 -42.9993,0 -77.6668,-14.3331 -104.334,-42.9993 -25.6671,-27.0011 -40.0003,-62.334 -42.9993,-106.002l289.166 0z"
     id="path412" /></glyph>
   <glyph
   unicode="Ү"
   horiz-adv-x="556"
   id="glyph418"><path
     d="M552.999 715.999l-232.001 -409.999 0 -306 -87.998 0 0 306 -234 409.999 97.667 0 141.332 -250.166c15.6671,-27.4994 28.0008,-52.334 37.1683,-74.6678 8.00068,18.499 21.3341,44.8347 39.8331,79.0008l133.498 245.833 104.501 0z"
     id="path416" /></glyph>
   <glyph
   unicode="ҝ"
   horiz-adv-x="437"
   id="glyph422"><path
     d="M446.001 0l-96.6673 0 -94.999 160.834c-4.66733,7.6664 -9.83608,15.6671 -15.336,23.8317l0 -104.665 -47.9978 0 0 152.167c-11.334,5.1656 -24.002,7.83354 -38.0009,7.83354l0 -240.002 -88.0012 0 0 519 88.0012 0 0 -224c14.6674,0 27.3322,1.6651 38.0009,4.83447l0 158.166 47.9978 0 0 -102c6.83385,13.9988 14.1691,30.3345 22.0027,48.8335 12.832,31.167 22.6649,51.9997 29.1645,62.498 14.5002,23.6678 31.167,38.6694 50.1675,44.8347 14.166,4.50019 36.834,6.83385 68.0011,6.83385l17.6665 0 0 -72.9995 -24.5003 0.498269c-24.5003,0.334282 -41.8325,-5.99815 -51.9997,-19.0004 -3.33335,-4.33305 -11.5012,-22.6649 -24.5003,-55.1659 -13.5006,-33.8318 -25.8343,-57.3324 -36.834,-70.3316 -13.3334,-15.4999 -28.6662,-27.3354 -46.1655,-35.5001 34.8315,-9.00037 70.4987,-44.1693 107.333,-105.501l96.6673 -161.001z"
     id="path420" /></glyph>
   <glyph
   unicode="Ҍ"
   horiz-adv-x="656"
   id="glyph426"><path
     d="M620.001 208.5c0,-139.001 -89.168,-208.5 -267.334,-208.5l-271.667 0 0 524.999 -79.0008 0 0 64.0023 79.0008 0 0 126.999 94.999 0 0 -126.999 78.0011 0 0 -64.0023 -78.0011 0 0 -113.999 170.499 0c60.1675,0 107.667,-5.33274 142.335,-16.1653 51,-16.0014 87.0015,-45.1658 107.834,-87.4998 15.4999,-31.9996 23.3335,-65.002 23.3335,-98.8338zm-102 0c0,61.4983 -28.3351,98.6667 -84.835,111.666 -25.6671,5.83416 -69.1647,8.83323 -130.499,8.83323l-126.667 0 0 -247.999 173 0c53.1665,0 92.8325,8.00068 118.834,23.9989 33.5007,19.833 50.1675,54.3334 50.1675,103.501z"
     id="path424" /></glyph>
   <glyph
   unicode="ѻ"
   horiz-adv-x="612"
   id="glyph430"><path
     d="M599.001 259.333c0,-67.8339 -19.0004,-125.668 -57.0013,-173.498 -39.3317,-50.1675 -92.3342,-80.0005 -158.998,-89.8334 -13.6677,-34.6675 -39.1677,-51.9997 -76.1689,-51.9997 -37.4994,0 -63.1666,17.3322 -76.8311,51.9997 -66.6671,9.83292 -119.67,39.666 -159.001,89.8334 -38.0009,47.8306 -57.0013,105.664 -57.0013,173.498 0,67.6668 19.0004,125.668 57.0013,173.833 39.3317,50.1675 92.3342,80.0005 159.001,89.8334 13.6645,34.6675 39.3317,51.9997 76.8311,51.9997 37.0012,0 62.5012,-17.3322 76.1689,-51.9997 66.6639,-9.83292 119.666,-39.666 158.998,-89.8334 38.0009,-48.1649 57.0013,-106.166 57.0013,-173.833zm-90.0006 0c0,50.0003 -11.6683,91.5017 -35.1658,124.334 -23.5006,32.8321 -56.1688,53.8319 -98.1684,63.3337 -16.3325,-24.6675 -39.3317,-37.0012 -68.8336,-37.0012 -30.0002,0 -53.1665,12.3337 -69.499,37.0012 -41.9996,-9.50179 -74.6678,-30.5016 -98.1684,-63.3337 -23.4975,-32.8321 -35.1658,-74.3335 -35.1658,-124.334 0,-50.1675 11.6683,-91.4985 35.1658,-124.167 23.5006,-32.665 56.1688,-53.668 98.1684,-63.1666 16.3325,24.6675 39.4988,37.0012 69.499,37.0012 29.5019,0 52.5011,-12.3337 68.8336,-37.0012 41.9996,9.49864 74.6678,30.5016 98.1684,63.1666 23.4975,32.6681 35.1658,73.9992 35.1658,124.167z"
     id="path428" /></glyph>
   <glyph
   unicode="Ѫ"
   horiz-adv-x="828"
   id="glyph434"><path
     d="M769.999 0l-94.999 0 0 70.833c0,83.501 -18.3319,142 -54.9988,175.501 -36.834,33.5007 -89.5023,52.498 -158.002,56.667l0 -303.001 -94.999 0 0 303.001c-75.6675,-6.16844 -129.834,-25.1689 -162.335,-57.1684 -33.8318,-33.6647 -50.6657,-88.1652 -50.6657,-163.331l0 -82.5013 -94.999 0 0 100.001c0,86.8312 24.6675,155.501 73.8321,205.832 40.8328,41.6685 101.502,66.6671 182.502,75.166l-224.167 335.001 655.832 0 -231.499 -335.001c169.667,-18.499 254.499,-114.999 254.499,-289.166l0 -91.8328zm-185.665 632l-326 0 162 -253.001 164 253.001z"
     id="path432" /></glyph>
   <glyph
   unicode="љ"
   horiz-adv-x="906"
   id="glyph438"><path
     d="M532.999 519l0 -203 111.833 0c71.6687,0 127.336,-13.9988 166.835,-41.9996 39.4988,-28.0008 59.3318,-66.8342 59.3318,-116.667 0,-41.6654 -15.9982,-78.3323 -47.8306,-110.001 -32.0027,-31.4981 -84.6678,-47.3324 -158.336,-47.3324l-219.831 0 0 446.001 -244 0 0 -258.501c0,-57.0013 -3.16621,-97.1655 -9.50179,-120.666 -6.33243,-23.5006 -18.499,-40.9999 -36.4998,-52.5011 -18.0007,-11.5012 -43.999,-17.3322 -77.834,-17.3322 -9.3315,0 -32.1667,0.999691 -68.165,2.99907l0 71.9998c22.9992,-3.33335 40.9999,-4.83447 53.9991,-4.83447 20.3344,0 33.835,6.33558 40.3345,19.0004 6.49957,12.668 9.66578,42.9993 9.66578,90.8331l0 342.002 419.999 0zm0 -447.001l92.5014 0c55.9985,0 95.9987,6.83385 119.834,20.3344 23.8317,13.5006 35.6672,34.8315 35.6672,64.1663 0,22.8321 -8.66924,42.9993 -26.1686,60.3315 -17.4993,17.5025 -56.4999,26.1686 -117.166,26.1686l-104.668 0 0 -171.001z"
     id="path436" /></glyph>
   <glyph
   unicode="ш"
   horiz-adv-x="802"
   id="glyph442"><path
     d="M69.0008 519l87.998 0 0 -446.001 200.001 0 0 446.001 88.0012 0 0 -446.001 199.998 0 0 446.001 88.0012 0 0 -519 -664 0 0 519z"
     id="path440" /></glyph>
   <glyph
   unicode="з"
   horiz-adv-x="458"
   id="glyph446"><path
     d="M181.001 235l0 69.0008c36.998,0.331128 62.334,1.83224 75.6643,4.33305 13.5006,2.66479 26.3357,10.3343 38.3352,23.3335 11.9994,12.9991 18.0007,29.1676 18.0007,48.6663 0,23.5006 -7.83354,42.5011 -23.6678,56.4999 -15.8342,14.166 -36.1655,21.167 -61.3344,21.167 -49.4989,0 -84.1664,-29.0005 -103.999,-87.0015l-83.9993 14.002c25.9983,96.6673 89.0009,144.999 188.667,144.999 55.3331,0 98.6667,-15.0017 130.165,-45.1658 31.5013,-30.1673 47.1684,-66.1688 47.1684,-108.001 0,-42.1668 -20.5015,-75.8346 -61.3344,-100.666 26.1686,-13.9988 45.6673,-31.8324 58.8335,-53.5008 12.9991,-21.6652 19.4987,-47.3324 19.4987,-76.9983 0,-46.4998 -16.9979,-84.1664 -50.8329,-113.167 -33.999,-29.0005 -81.3313,-43.5007 -142.331,-43.5007 -118.336,0 -187.002,52.334 -205.835,156.999l82.9996 18.0007c7.50241,-32.9993 22.6681,-58.6664 45.6673,-76.8343 23.0024,-18.1647 49.1678,-27.1651 78.8337,-27.1651 29.6659,0 54.3334,8.33181 73.9992,25.1657 19.669,16.6668 29.5019,38.0009 29.5019,63.9991 0,20.1673 -6.16844,37.6666 -18.499,52.6683 -12.3337,14.9985 -25.5,24.3332 -39.502,28.0008 -13.9988,3.83162 -39.3317,5.66702 -75.9986,5.66702 -3.00223,0 -9.66894,-0.167141 -20.0001,-0.501422z"
     id="path444" /></glyph>
   <glyph
   unicode="Ц"
   horiz-adv-x="739"
   id="glyph450"><path
     d="M79.0008 715.999l94.999 0 0 -632 372.002 0 0 632 94.999 0 0 -632 64.9988 0 0 -283.001 -83.9993 0 0 199.002 -542.999 0 0 715.999z"
     id="path448" /></glyph>
   <glyph
   unicode="Е"
   horiz-adv-x="666"
   id="glyph454"><path
     d="M79.0008 0l0 715.999 516.998 0 0 -83.9993 -421.999 0 0 -220.001 395.001 0 0 -83.9993 -395.001 0 0 -244 439 0 0 -83.9993 -533.999 0z"
     id="path452" /></glyph>
   <glyph
   unicode="Є"
   horiz-adv-x="718"
   id="glyph458"><path
     d="M418 410.999l0 -83.9993 -266 0c3.66764,-80.1676 25.9983,-143.334 66.9982,-189.667 41.1671,-46.1655 93.8353,-69.3319 158.169,-69.3319 114.167,0 185.832,60.3315 214.833,180.998l91.0003 -23.9989c-41.3342,-157.998 -141.001,-236.999 -299.166,-236.999 -113,0 -197.166,36.3326 -252.335,109.165 -55.3331,72.6684 -81.0002,162.168 -77.4997,268.668 0,64.9988 12.3337,124.501 36.834,178.166 24.6675,53.668 62.5012,97.8341 113.334,132.334 50.8329,34.5004 111.499,51.6654 181.833,51.6654 74.3335,0 136.5,-18.3319 186.501,-54.9988 50.0003,-36.6669 83.8321,-87.6669 101.499,-153l-92.9996 -23.9989c-27.1683,99.3321 -92.5014,148.998 -196.166,148.998 -69.8333,0 -124.668,-20.9998 -164.334,-63.1666 -39.8331,-41.9996 -61.4983,-99.0009 -65.5003,-170.834l263.001 0z"
     id="path456" /></glyph>
   <glyph
   unicode="ö"
   horiz-adv-x="556"
   id="glyph462"><path
     d="M32.9993 259.5c0,95.8316 26.6668,166.832 80.1676,213 44.5004,38.332 99.0009,57.4996 163.167,57.4996 71.1673,0 129.499,-23.3335 174.832,-70.0004 45.1658,-46.4998 67.8339,-111 67.8339,-193.167 0,-66.6671 -10.0001,-118.998 -30.0002,-157.166 -20.0001,-38.1649 -49.1678,-67.8339 -87.4998,-89.0009 -38.168,-21.167 -80.0005,-31.6653 -125.166,-31.6653 -72.6684,0 -131.335,23.1663 -176.166,69.6662 -44.8347,46.4998 -67.1685,113.501 -67.1685,200.834zm90.0006 -0.167141c0,-66.3328 14.5002,-115.999 43.5007,-148.834 29.1676,-32.9993 65.6674,-49.4989 109.834,-49.4989 43.6647,0 80.0005,16.4996 109.165,49.666 29.0005,33.1664 43.5007,83.6681 43.5007,151.502 0,63.9991 -14.6674,112.498 -43.8319,145.33 -29.1676,33.0024 -65.5003,49.502 -108.834,49.502 -44.1662,0 -80.6659,-16.3325 -109.834,-49.1678 -29.0005,-32.8321 -43.5007,-82.3342 -43.5007,-148.5zm25.0017 323.667l0 100.001 91.9999 0 0 -100.001 -91.9999 0zm181.997 0l0 100.001 91.9999 0 0 -100.001 -91.9999 0z"
     id="path460" /></glyph>
   <glyph
   unicode="å"
   horiz-adv-x="556"
   id="glyph466"><path
     d="M405.001 64.9988c-32.6681,-27.8337 -64.1663,-47.3324 -94.3336,-58.8335 -30.1673,-11.498 -62.5012,-17.165 -97.1687,-17.165 -56.9982,0 -100.833,13.8317 -131.499,41.6654 -30.6656,27.6665 -45.9984,63.1666 -45.9984,106.333 0,25.336 5.831,48.5024 17.3322,69.5022 11.6652,20.9998 26.834,37.6666 45.5001,50.3314 18.8333,12.668 39.8331,22.3338 63.3337,28.8334 17.3322,4.50019 43.4976,8.83323 78.3323,13.1663 71.0001,8.33496 123.501,18.5022 156.999,30.1673 0.334282,11.9994 0.501422,19.669 0.501422,22.8352 0,35.6641 -8.33181,60.8329 -24.9986,75.5003 -22.5009,19.833 -56.0016,29.6659 -100.335,29.6659 -41.5014,0 -72.167,-7.33527 -91.8328,-21.8355 -19.833,-14.4971 -34.3332,-40.1642 -43.835,-77.1654l-85.9987 11.9994c7.83354,36.834 20.6655,66.6671 38.6663,89.3352 18.0007,22.6649 43.999,40.0003 78.0011,52.3308 33.8318,12.1697 73.3338,18.335 117.998,18.335 44.3333,0 80.5019,-5.1656 108.336,-15.6671 27.6665,-10.4983 48.1649,-23.5006 61.1641,-39.3317 13.0023,-15.8342 22.1666,-35.8343 27.5025,-60.0004 2.83193,-15.0017 4.33305,-41.9996 4.33305,-80.8331l0 -116.667c0,-81.5016 1.83224,-133 5.49988,-154.835 3.5005,-21.8324 10.8326,-42.665 21.4981,-62.6652l-91.9999 0c-8.83323,18.499 -14.5002,40.1674 -16.9979,64.9988zm-7.00099 195c-31.9996,-12.9991 -80.0005,-23.9989 -144,-32.9993 -36.3326,-5.1656 -61.9998,-10.9998 -77.0014,-17.4993 -14.9985,-6.49957 -26.4997,-16.0014 -34.6644,-28.3319 -8.16782,-12.5009 -12.3337,-26.3357 -12.3337,-41.6685 0,-23.1663 8.83323,-42.665 26.6668,-58.165 17.8336,-15.4999 43.8319,-23.3335 77.998,-23.3335 33.835,0 64.0023,7.33212 90.502,22.1666 26.3326,14.6642 45.8313,34.8315 58.165,60.3315 9.50179,19.833 14.166,49.0006 14.166,87.4998l0.501422 31.9996zm-200.5 414.503c0,23.8317 8.66609,44.3333 25.9983,61.6655 17.3353,17.165 37.8337,25.8343 61.5015,25.8343 23.9989,0 44.5004,-8.66924 61.8326,-26.1686 17.1682,-17.4993 25.6671,-38.4991 25.6671,-63.3337 0,-25.1657 -8.49895,-46.3327 -25.6671,-63.4977 -17.3322,-17.3353 -37.6666,-26.0014 -61.3344,-26.0014 -24.3332,0 -44.9987,8.66609 -62.1637,26.1686 -17.1682,17.4993 -25.8343,39.1645 -25.8343,65.3331zm36.998 -0.501422c0,-15.3328 5.16875,-28.0008 15.336,-38.4991 10.1641,-10.3343 22.3338,-15.4999 36.1655,-15.4999 13.9988,0 26.0014,5.1656 36.1655,15.4999 10.1672,10.4983 15.336,22.9992 15.336,37.4994 0,14.6674 -5.00161,27.0011 -15.0017,37.4994 -10.1672,10.3343 -22.1666,15.4999 -36.4998,15.4999 -13.8317,0 -26.0014,-5.1656 -36.1655,-15.3328 -10.1672,-10.1672 -15.336,-22.5009 -15.336,-36.6669z"
     id="path464" /></glyph>
   <glyph
   unicode="Ô"
   horiz-adv-x="777"
   id="glyph470"><path
     d="M48.0009 348.501c0,118.667 31.9996,211.666 95.8316,278.832 63.8352,67.1685 146.166,100.666 247.166,100.666 66.1688,0 125.668,-15.8311 178.834,-47.3324 52.9994,-31.5013 93.5011,-75.5003 121.335,-132 27.8305,-56.3327 41.8325,-120.332 41.8325,-191.833 0,-72.4981 -14.6674,-137.5 -43.999,-194.665 -29.3348,-57.3356 -70.8361,-100.666 -124.501,-130.001 -53.8351,-29.4988 -111.833,-44.1662 -174,-44.1662 -67.4996,0 -127.667,16.3325 -180.834,48.8335 -52.9994,32.4978 -93.3339,76.8311 -120.666,133.167 -27.3354,56.1656 -40.9999,115.665 -40.9999,178.5zm97.9981 -1.66825c0,-86.1658 23.1663,-154 69.5022,-203.499 46.3327,-49.502 104.498,-74.3335 174.498,-74.3335 71.3344,0 129.834,24.9986 175.999,74.9989 46.0016,50.0003 69.0008,121 69.0008,213 0,58.1681 -9.83292,109.001 -29.4988,152.335 -19.6658,43.3305 -48.4992,76.9983 -86.3329,100.833 -38.0009,23.8317 -80.5019,35.8312 -127.667,35.8312 -67.0014,0 -124.668,-22.9992 -173,-68.9976 -48.3321,-46.0016 -72.5012,-122.669 -72.5012,-230.169zm244 496.168l-54.5005 -83.0027 -99.9975 0 104.498 137.002 92.9996 0 111.502 -137.002 -100.001 0 -54.5005 83.0027z"
     id="path468" /></glyph>
   <glyph
   unicode="Ã"
   horiz-adv-x="666"
   id="glyph474"><path
     d="M-1.50111 0l274.669 715.999 104.167 0 291.5 -715.999 -107.834 0 -82.8324 216.999 -301.5 0 -77.6668 -216.999 -100.502 0zm206.003 294.001l243.997 0 -74.6646 198.5c-22.5009,60.3315 -39.502,110.165 -51.3343,149.5 -9.83292,-46.667 -22.9992,-92.5014 -39.4988,-137.834l-78.4994 -210.165zm-41.5014 464.998c-0.334282,33.5007 9.00037,60.1675 27.8337,80.1676 18.499,19.833 42.3339,29.833 71.3344,29.833 20.1641,0 47.6667,-8.49895 82.331,-25.6671 19.1676,-9.49864 34.5004,-14.3331 45.8344,-14.3331 10.4983,0 18.499,2.83509 23.9989,8.5021 5.49988,5.49988 9.33465,16.8308 11.6683,33.4975l62.9995 0c-0.999691,-36.998 -10.3343,-64.6646 -28.0008,-83.1667 -17.6665,-18.499 -40.0003,-27.8337 -67.3325,-27.8337 -20.3344,0 -47.3324,9.16751 -80.6659,27.3354 -21.8355,11.8323 -37.8337,17.6665 -48.0009,17.6665 -10.9998,0 -20.0001,-3.83478 -26.6668,-11.6683 -7.16813,-7.6664 -10.6655,-19.1644 -10.3343,-34.3332l-64.9988 0z"
     id="path472" /></glyph>
   <glyph
   unicode="²"
   horiz-adv-x="333"
   id="glyph478"><path
     d="M11.9994 358c1.99938,18.499 9.66578,37.1683 22.9992,55.6673 20.5015,28.0008 54.3334,59.0007 101.335,92.9996 46.8341,33.999 74.8349,55.8345 83.501,65.6674 12.1666,13.3334 18.1647,26.998 18.1647,40.9999 0,15.6671 -5.66702,28.4991 -16.9979,38.4991 -11.334,10.1672 -28.0008,15.1657 -50.1675,15.1657 -21.3341,0 -37.3323,-3.83162 -47.8338,-11.498 -10.4983,-7.6664 -19.1676,-22.5009 -25.9983,-44.5004l-74.0024 8.00068c9.33465,36.3326 25.6671,62.9995 48.8335,80.1645 23.3335,17.1682 56.667,25.8343 100.001,25.8343 49.0006,0 84.999,-9.66578 107.834,-29.0005 22.8321,-19.1676 34.3332,-42.8322 34.3332,-70.6659 0,-27.3322 -9.50179,-53.3337 -28.6662,-78.0011 -14.5002,-18.1647 -47.6667,-46.1655 -99.3352,-83.8321 -26.998,-19.833 -45.9984,-35.6672 -57.3324,-47.4995l186.334 0 0 -58.001 -303.001 0z"
     id="path476" /></glyph>
   <glyph
   unicode="¡"
   horiz-adv-x="333"
   id="glyph482"><path
     d="M218.333 519l0 -100.001 -101 0 0 100.001 101 0zm-22.9992 -178.002l26.998 -379.167 0 -158.831 -108.998 0 0 158.831 24.9986 379.167 57.0013 0z"
     id="path480" /></glyph>
   <glyph
   unicode="n"
   horiz-adv-x="556"
   id="glyph486"><path
     d="M65.9985 0l0 519 79.0008 0 0 -73.6681c38.0009,56.4999 92.9996,84.6678 164.835,84.6678 31.331,0 59.9972,-5.66702 86.1658,-16.8339 26.1654,-11.1669 45.8313,-25.9983 58.8335,-44.1662 12.9991,-18.1679 22.1666,-39.8331 27.3322,-64.8348 3.16621,-16.3325 4.83447,-44.8316 4.83447,-85.4972l0 -318.668 -88.0012 0 0 315.335c0,35.8312 -3.33335,62.6652 -10.1672,80.3316 -6.83385,17.6665 -19.0004,31.8324 -36.3326,42.5011 -17.3322,10.4983 -37.8337,15.8311 -61.1672,15.8311 -37.3323,0 -69.499,-11.8323 -96.6673,-35.6641 -27.1651,-23.6678 -40.6657,-68.8336 -40.6657,-135.166l0 -283.168 -88.0012 0z"
     id="path484" /></glyph>
   <glyph
   unicode="]"
   horiz-adv-x="277"
   id="glyph490"><path
     d="M213 -199.002l-194 0 0 73.0027 105.999 0 0 768.999 -105.999 0 0 72.9995 194 0 0 -915.001z"
     id="path488" /></glyph>
   <glyph
   unicode="L"
   horiz-adv-x="556"
   id="glyph494"><path
     d="M72.9995 0l0 715.999 94.999 0 0 -632 352.002 0 0 -83.9993 -447.001 0z"
     id="path492" /></glyph>
   <glyph
   unicode=";"
   horiz-adv-x="277"
   id="glyph498"><path
     d="M89.0009 419l0 100.001 100.001 0 0 -100.001 -100.001 0zm0 -419l0 100.001 100.001 0 0 -100.001c0,-36.834 -6.50272,-66.6671 -19.669,-89.332 -12.9991,-22.6681 -33.8318,-40.3345 -62.334,-52.6683l-23.9989 37.6666c18.6662,8.16782 32.3339,20.1673 40.9999,36.0015 8.83323,15.8311 13.8348,38.6663 14.8345,68.3322l-49.8332 0z"
     id="path496" /></glyph>
   <glyph
   unicode="*"
   horiz-adv-x="389"
   id="glyph502"><path
     d="M30.9999 584.999l22.3338 69.0008c51.6654,-18.1679 89.0009,-33.8318 112.498,-47.1652 -6.16529,58.6664 -9.49864,99.1649 -9.83292,121.164l71.0001 0c-0.999691,-32.1667 -4.66733,-72.331 -11.334,-120.666 33.5007,16.8339 71.8358,32.501 115.002,46.667l22.3338 -69.0008c-41.1671,-13.6645 -81.5016,-22.8321 -121.168,-27.3322 19.833,-17.1682 47.6667,-48.0009 83.665,-92.1671l-58.3321 -41.4982c-18.8333,25.664 -41.1671,60.6658 -66.8342,104.832 -24.166,-45.8344 -45.333,-80.8331 -63.4977,-104.832l-57.3356 41.4982c37.4994,46.4998 64.5006,77.1686 80.6691,92.1671 -41.8356,8.16782 -81.5016,17.3322 -119.168,27.3322z"
     id="path500" /></glyph>
   <glyph
   unicode="⅛"
   horiz-adv-x="834"
   id="glyph506"><path
     d="M111.335 -28.0008l537.667 756 75.8314 0 -537.667 -756 -75.8314 0zm50.6657 385.001l0 271.165c-33.1664,-26.3326 -69.499,-44.8316 -109.001,-55.1659l0 60.0004c17.8336,5.49988 39.8331,17.1682 65.8345,34.8347 25.8343,17.6665 46.3327,36.3326 61.3312,56.1656l52.8354 0 0 -367 -71.0001 0zm437.499 -178.5c-42.3339,15.3328 -63.4977,41.6654 -63.4977,79.168 0,25.9983 10.1641,48.1649 30.4985,66.1657 20.1673,18.1679 52.9994,27.1651 98.1652,27.1651 45.0019,0 78.8337,-8.66609 101.502,-26.1654 22.5009,-17.3322 33.8318,-40.1674 33.8318,-68.1682 0,-37.4994 -22.8321,-63.4977 -68.3322,-78.1651 54.1662,-13.3334 81.3345,-43.1665 81.3345,-89.4991 0,-34.5004 -13.6677,-61.8358 -40.9999,-82.3342 -27.1683,-20.5015 -61.9998,-30.6656 -104.167,-30.6656 -45.0019,0 -80.5019,10.3312 -106.667,30.8327 -26.1686,20.6655 -39.1677,47.1652 -39.1677,79.6662 0,48.0009 25.8343,78.6665 77.4997,91.9999zm9.50179 74.5006c0,-16.3325 5.66702,-28.8334 16.9979,-37.3355 11.334,-8.49895 25.3329,-12.6649 41.8356,-12.6649 16.4996,0 30.6656,4.1659 42.4979,12.6649 11.8355,8.5021 17.6665,20.1673 17.6665,34.8347 0,15.0017 -5.831,27.0011 -17.4993,36.0015 -11.6652,8.99722 -26.1654,13.4974 -43.6647,13.4974 -17.8336,0 -32.0027,-4.66417 -42.3339,-14.166 -10.3343,-9.49864 -15.4999,-20.4984 -15.4999,-32.8321zm-14.002 -160.499c0,-40.9999 24.1692,-61.5015 72.5012,-61.5015 22.9992,0 40.9999,5.49988 53.9991,16.6668 12.9991,11.1669 19.5019,25.3329 19.5019,42.3339 0,18.6662 -7.00099,33.5007 -20.9998,44.5004 -13.8348,10.9998 -31.8356,16.4996 -54.0022,16.4996 -22.6649,0 -40.1674,-5.49988 -52.498,-16.6668 -12.3337,-11.1669 -18.5022,-25.1657 -18.5022,-41.8325z"
     id="path504" /></glyph>
   <glyph
   unicode="₱"
   horiz-adv-x="666"
   id="glyph510"><path
     d="M656.999 418l-51 0c-9.49864,-22.3338 -23.1663,-43.3336 -40.9999,-62.6683 -38.6663,-42.1636 -108.667,-63.3306 -209.667,-63.3306l-183.331 0 0 -292.001 -94.999 0 0 418 -69.0008 0 0 63.9991 69.0008 0 0 44.0022 -69.0008 0 0 63.9991 69.0008 0 0 125.999 269.831 0c46.1687,0 82.5013,-2.33366 108.834,-6.83385 76.1657,-13.4974 126.999,-53.1665 152.666,-119.165l48.6663 0 0 -63.9991 -34.4972 0c0.331128,-4.83447 0.498269,-10.6686 0.498269,-17.1682 0,-8.16782 -0.498269,-17.0011 -1.50111,-26.834l35.5001 0 0 -63.9991zm-160.332 172c-14.3331,17.6665 -32.3339,29.4988 -53.9991,35.5001 -15.6671,4.33305 -45.0019,6.49957 -88.1683,6.49957l-182.499 0 0 -41.9996 324.666 0zm28.3319 -83.9993c0,8.16467 -0.331128,14.8314 -0.999691,20.0001l-351.998 0 0 -44.0022 351.5 0c0.999691,7.16813 1.49796,15.1688 1.49796,24.002zm-30.6656 -88.0012l-322.333 0 0 -41.9996 184.498 0c66.1688,0 112.167,13.9988 137.834,41.9996z"
     id="path508" /></glyph>
   <glyph
   unicode="₠"
   horiz-adv-x="556"
   id="glyph514"><path
     d="M550 0l-308.999 0 0 214c-72.3341,0 -129.834,23.1663 -172.502,69.3319 -41.6654,45.0019 -62.498,105.501 -62.498,181.335 0,78.8337 20.3313,142 61.1641,189.5 42.6682,49.1678 101.167,73.8321 175.501,73.8321 55.5002,0 100.833,-13.6645 136.5,-40.9999 36.834,-28.4991 60.3347,-69.499 70.833,-122.833l-84.999 -13.1663c-16.3325,70.0004 -56.0016,104.999 -118.834,104.999 -51.3343,0 -90.1677,-19.0004 -116.333,-57.1653 -22.5009,-32.9993 -33.835,-76.6672 -33.835,-131.502 0,-52.1637 11.5012,-93.9993 34.3332,-125.497 25.5,-35.8343 62.334,-53.8351 110.669,-53.8351l0 215 297 0 0 -74.9989 -209.002 0 0 -140.001 190.001 0 0 -73.9992 -190.001 0 0 -139.001 221.001 0 0 -74.9989z"
     id="path512" /></glyph>
   <glyph
   unicode="⁭"
   horiz-adv-x="0"
   id="glyph518"><path
     d="M17.0011 480l0 -613.999 -35.0018 0 0 613.999 -96.9984 0 114.498 209.002 114.501 -209.002 -96.9984 0z"
     id="path516" /></glyph>
   <glyph
   unicode="›"
   horiz-adv-x="333"
   id="glyph522"><path
     d="M174 258.501l-129.001 221.499 73.0027 0 147.998 -218.667 -147.998 -226.334 -73.0027 0 129.001 223.502z"
     id="path520" /></glyph>
   <glyph
   unicode="‘"
   horiz-adv-x="222"
   id="glyph526"><path
     d="M155.999 595.999l0 -102 -93.9993 0 0 81.0002c0,43.3336 5.1656,74.8349 15.6671,94.1665 13.8317,26.0014 35.5001,45.5001 65.3331,58.8335l20.9998 -34.1661c-18.0007,-7.49926 -31.167,-18.499 -39.666,-33.3335 -8.33496,-14.8314 -13.1663,-36.3326 -14.166,-64.5006l45.8313 0z"
     id="path524" /></glyph>
   <glyph
   unicode="ӯ"
   horiz-adv-x="500"
   id="glyph530"><path
     d="M61.9998 -199.5l-10.0001 81.3345c19.3347,-5.16875 36.0015,-7.83354 50.3346,-7.83354 19.6658,0 35.3329,3.33335 46.9981,9.83292 11.8355,6.49957 21.5012,15.6671 29.0005,27.3322 5.49988,8.83323 14.5002,30.6656 26.834,65.6674 1.6651,4.83447 4.1659,11.9994 7.83354,21.5012l-196.999 520.666 93.9993 0 108.332 -299.668c14.166,-37.8337 26.6668,-77.834 37.8337,-119.834 10.1672,39.502 22.1666,78.4994 36.1655,116.835l110.666 302.667 87.834 0 -196.166 -528.001c-21.167,-56.8342 -37.6666,-95.8316 -49.4989,-117.333 -15.6671,-28.8334 -33.6678,-50.0003 -53.8351,-63.5009 -20.3313,-13.5006 -44.4973,-20.1673 -72.4981,-20.1673 -17.0011,0 -36.0015,3.5005 -56.8342,10.5015zm39.0006 782.499l0 71.9998 305 0 0 -71.9998 -305 0z"
     id="path528" /></glyph>
   <glyph
   unicode="Ӟ"
   horiz-adv-x="603"
   id="glyph534"><path
     d="M38.0009 202.001l90.0006 22.9992c6.8307,-34.6675 25.1657,-69.3319 54.8316,-103.999 29.833,-34.6675 69.1679,-51.9997 118.333,-51.9997 50.0003,0 89.5023,12.832 118.5,38.6663 28.8334,25.6671 43.3336,56.8342 43.3336,93.3339 0,39.3317 -15.1657,70.833 -45.6641,93.9993 -30.3345,23.3335 -71.8358,34.9986 -124.167,34.9986l-45.169 0 0 82.9996c43.3336,0 76.5,2.5008 99.5024,7.50241 22.9992,4.99845 43.3305,17.8336 61.0001,38.4991 17.6665,20.4984 26.4997,43.999 26.4997,70.3347 0,30.9999 -12.0026,58.165 -36.1686,81.1642 -23.9989,23.0024 -56.667,34.5004 -97.667,34.5004 -35.9983,0 -66.6671,-9.00037 -91.9999,-27.1651 -25.3329,-18.1679 -42.8322,-42.1668 -52.6651,-71.9998 -9.66578,-29.833 -14.5002,-52.1668 -14.5002,-66.8342l-91.0003 20.9998c22.3338,152 105.999,227.999 250.834,227.999 69.8333,0 124.999,-19.4987 165.832,-58.3321 40.8328,-38.8334 61.3344,-84.1664 61.3344,-136.166 0,-66.6671 -31.5013,-118.333 -94.5008,-154.999 36.4998,-10.1672 67.0014,-30.8359 91.6657,-61.8358 24.5003,-31.167 36.834,-68.3322 36.834,-111.666 0,-61.6655 -23.8317,-113.167 -71.4984,-154.665 -47.6667,-41.5014 -110.833,-62.334 -189.5,-62.334 -135.334,0 -223.335,71.3313 -264,214zm135.999 557.998l0 100.001 91.9999 0 0 -100.001 -91.9999 0zm182.001 0l0 100.001 91.9999 0 0 -100.001 -91.9999 0z"
     id="path532" /></glyph>
   <glyph
   unicode="Ӎ"
   horiz-adv-x="833"
   id="glyph538"><path
     d="M847 83.9993l-91.9999 -283.001 -83.9993 0 67.3325 199.002 -72.3341 0 0 599.332 -208.166 -599.332 -85.5004 0 -207.333 609.499 0 -609.499 -91.0003 0 0 715.999 141.833 0 170.001 -507.165c13.9988,-41.9996 25.5,-77.3357 34.3332,-106.002 9.16751,29.6659 21.8324,68.0011 38.168,114.835l171.666 498.332 126.999 0 0 -632 90.0006 0z"
     id="path536" /></glyph>
   <glyph
   unicode="Ҽ"
   horiz-adv-x="861"
   id="glyph542"><path
     d="M816 305l-556.166 0c3.99876,-72.167 24.8314,-128.5 62.8323,-169.333 39.666,-43.1665 94.8319,-64.6677 165.668,-64.6677 102.833,0 167.664,50.0003 194.665,150.001l92.9996 -24.5003c-18.1679,-68.0011 -53.3337,-120.168 -105.333,-156.166 -49.8332,-34.8347 -110.499,-52.334 -182.001,-52.334 -64.9988,0 -123.334,15.9982 -175,48.0009 -52.9994,32.4978 -92.8325,77.998 -119.499,136.497 -17.6665,38.0009 -28.8334,82.3342 -33.6678,132.502 -103.665,0 -155.501,43.3336 -155.501,130.165 0,23.8349 3.16937,46.667 9.33465,68.8336l74.5006 -20.0001c-4.50019,-17.6665 -6.83385,-31.4981 -6.83385,-41.6654 0,-24.5003 9.49864,-40.4985 28.4991,-48.0009 9.16751,-3.83162 25.0017,-5.66702 47.4995,-5.33274 3.83478,91.3345 29.5019,168.002 76.5,229.667 55.3362,72.8324 139.503,109.332 252.335,109.332 110.499,0 194.334,-36.1655 251.667,-108.667 51.6654,-65.6642 77.4997,-155.167 77.4997,-268.497l0 -45.8344zm-98.0012 83.9993c-3.16621,75.3332 -23.3335,135.999 -60.4986,182.001 -40.8328,51.3343 -97.667,77.0014 -170.499,77.0014 -72.8355,0 -129.667,-25.6671 -170.499,-77.0014 -37.1683,-46.0016 -57.1684,-106.667 -60.5018,-182.001l461.999 0z"
     id="path540" /></glyph>
   <glyph
   unicode="ҫ"
   horiz-adv-x="500"
   id="glyph546"><path
     d="M491 178.834c-9.3315,-59.335 -33.3335,-105.835 -71.9998,-139.168 -25.3329,-21.8324 -53.9991,-36.4998 -86.1658,-44.3333 10.1672,-38.1649 15.1657,-69.8333 15.1657,-94.999 0,-32.6681 -9.66578,-59.0007 -29.0005,-78.6665 -19.4987,-19.833 -45.5001,-29.6659 -77.998,-29.6659 -33.1664,0 -68.8336,9.83292 -107.002,29.6659l0 57.8339c29.5019,-15.0017 56.8342,-22.5009 81.8327,-22.5009 21.167,0 38.168,7.00099 51,21.167 12.8351,14.166 19.1676,31.9996 19.1676,53.6648 0,18.5022 -3.33335,37.5026 -9.83292,57.1684l-0.999691 0c-77.1686,0 -136.668,25.9983 -178.5,78.0011 -38.4991,47.9978 -57.6667,111.666 -57.6667,190.499 0,119.332 37.6666,199.667 113,241.332 37.8337,20.8327 79.0008,31.167 123.665,31.167 117.002,0 186.166,-54.6676 207.333,-163.833l-84.999 -13.1663c-16.3325,69.9973 -55.9985,104.999 -118.834,104.999 -100.165,0 -150.165,-66.0017 -150.165,-198.002 0,-132.666 48.3321,-198.998 145.166,-198.998 75.166,0 118.667,42.9993 130.833,129.001l85.9987 -11.1669z"
     id="path544" /></glyph>
   <glyph
   unicode="Қ"
   horiz-adv-x="582"
   id="glyph550"><path
     d="M580.001 -199.002l-83.9993 0 0 199.002 -34.0021 0 -120.499 194.334c-30.0002,48.8335 -52.1668,80.8331 -66.4999,95.6644 -29.0005,30.0002 -62.6683,45.0019 -101,45.0019l0 -335.001 -94.999 0 0 715.999 94.999 0 0 -314.001c46.8341,0 81.6656,13.3334 104.501,40.0003 11.9994,14.002 29.833,49.3349 53.5008,106.002 19.997,47.1652 36.3326,80.4988 48.9975,99.6663 30.5016,45.5001 75.1692,68.3322 134,68.3322 36.6669,0 56.0016,-0.334282 58.001,-0.999691l0 -81.9999c-4.1659,0 -10.4983,0.167141 -19.0004,0.501422 -8.49895,0.331128 -14.8314,0.498269 -19.1644,0.498269 -33.5007,0 -59.5021,-11.498 -78.0011,-34.6675 -10.5015,-12.6649 -23.9989,-39.666 -40.6657,-81.0002 -17.8336,-45.1658 -32.3339,-75.6643 -43.3336,-91.6657 -18.6662,-26.998 -44.3333,-47.1652 -77.1686,-60.6658 46.1687,-12.8351 91.8328,-55.5002 136.835,-128.169l95.1662 -153.833 52.334 0 0 -283.001z"
     id="path548" /></glyph>
   <glyph
   unicode="҉"
   horiz-adv-x="0"
   id="glyph554"><path
     d="M391.999 589.001l-30.9999 -30.9999c-7.49926,5.49988 -15.4999,8.33181 -23.6646,8.33181 -13.5006,0 -27.6665,-7.49926 -42.8353,-22.3338l26.4997 -26.3326 -51 -50.6657 -52.9994 52.6651 48.0009 48.3352c16.4996,16.4996 36.4998,27.1651 60.1675,31.8324 24.5003,4.83447 46.8309,1.16683 66.8311,-10.8326zm71.9998 -340.002l-42.9993 0c-3.33335,24.6675 -22.3338,37.0012 -56.9982,37.0012l0 -37.0012 -71.9998 0 0 75.002 67.9979 0c24.002,0 45.6673,-6.49957 64.8348,-19.669 20.6655,-13.8317 33.6647,-32.3307 39.1645,-55.3331zm-433.998 331.002l-74.9989 0 0 68.0011c0,23.6646 6.8307,45.6641 20.4984,65.6642 13.6677,20.0001 31.8324,32.8353 54.5005,38.3352l0 -43.0025c-24.6675,-3.33335 -37.0012,-22.3306 -37.0012,-56.9982l37.0012 0 0 -71.9998zm321.667 -588.834c0,-16.6668 -4.1659,-31.9996 -12.668,-46.1655l-30.9999 30.9999c5.49988,7.49926 8.33496,15.4999 8.33496,23.6646 0,13.5006 -7.50241,27.6665 -22.3338,42.8353l-26.3326 -26.4997 -50.6689 51 52.6683 52.9994 47.8338 -48.0009c22.8321,-22.9992 34.1661,-50.0003 34.1661,-80.8331zm-566.667 487.001l-53.1665 -53.1665 -47.8338 48.3321c-16.6668,17.0011 -27.1651,36.834 -31.6653,59.499 -5.00161,24.8346 -1.33397,47.1684 10.6655,67.1685l30.9999 -30.9999c-5.49988,-7.49926 -8.33181,-15.3328 -8.33181,-23.6678 0,-13.3334 7.49926,-27.6665 22.3306,-42.665l26.3357 26.3326 50.6657 -50.8329zm-74.9989 -257.167l-68.0011 0c-23.9989,0 -45.6673,6.49957 -64.8348,19.6658 -20.6655,13.8317 -33.6647,32.3339 -39.1645,55.3331l42.9993 0c3.33335,-24.6675 22.3338,-37.0012 57.0013,-37.0012l0 37.0012 71.9998 0 0 -74.9989zm319.999 -318.003c0,-23.9989 -6.49957,-45.6641 -19.6658,-64.8317 -13.8348,-20.6655 -32.3339,-33.6678 -55.3331,-39.1677l0 43.0025c24.6643,3.33335 36.998,22.3306 36.998,56.9982l-36.998 0 0 71.9998 74.9989 0 0 -68.0011zm-245 122.836l-48.3321 -47.8338c-17.0011,-16.4996 -36.834,-27.1683 -59.5021,-31.6684 -24.8314,-4.99845 -47.1652,-1.33082 -67.1654,10.6686l30.9999 30.9999c7.49926,-5.49988 15.3328,-8.33496 23.6646,-8.33496 13.3334,0 27.6697,7.50241 42.6682,22.3338l-26.3326 26.3326 50.8329 50.6689 53.1665 -53.1665z"
     id="path552" /></glyph>
   <glyph
   unicode="Ѹ"
   horiz-adv-x="1074"
   id="glyph558"><path
     d="M1065.83 519l-196.166 -527.332c-21.3341,-57.3356 -37.6666,-96.5001 -49.1678,-117.667 -30.6656,-56.0016 -72.9995,-84.0024 -127.333,-84.0024 -17.0011,0 -36.1686,3.66764 -57.1684,10.6686l-9.83292 81.1673c19.3347,-5.16875 36.1686,-7.83354 50.5017,-7.83354 34.9986,0 60.3315,12.3337 75.9986,37.1652 5.49988,9.00037 17.3322,38.3352 35.3329,87.4998l-197.999 520.334 93.9993 0 146.999 -419.999 147.002 419.999 87.834 0zm-489.836 -162c0,-114.167 -20.4984,-202.833 -61.6655,-266 -44.8316,-68.6665 -112.334,-103 -202.332,-103 -90.0006,0 -157.5,34.3332 -202.335,103 -41.1671,63.1666 -61.6655,151.833 -61.6655,266 0,114.501 20.4984,203.499 61.6655,266.999 45.1658,69.335 112.665,103.999 202.335,103.999 89.6663,0 157.166,-34.6644 202.332,-103.999 41.1671,-63.5009 61.6655,-152.499 61.6655,-266.999zm-97.9981 0c0,91.9999 -10.8326,160.666 -32.6681,206.167 -26.3326,55.1659 -70.833,82.8324 -133.331,82.8324 -62.5012,0 -106.834,-27.6665 -133.334,-82.8324 -21.8324,-45.5001 -32.6681,-114.167 -32.6681,-206.167 0,-91.4985 10.8358,-160.001 32.6681,-205.167 26.4997,-54.5005 70.833,-81.8327 133.334,-81.8327 62.498,0 106.998,27.3322 133.331,81.8327 21.8355,45.1658 32.6681,113.668 32.6681,205.167z"
     id="path556" /></glyph>
   <glyph
   unicode="ѧ"
   horiz-adv-x="500"
   id="glyph562"><path
     d="M499 0l-90.3348 0 -66.3328 174 -47.3324 0 0 -174 -88.0012 0 0 174 -46.3327 0 -64.8317 -174 -92.8357 0 207.333 519 82.3342 0 206.334 -519zm-180.667 236.999l-67.8339 178.002 -66.3328 -178.002 134.167 0z"
     id="path560" /></glyph>
   <glyph
   unicode="і"
   horiz-adv-x="222"
   id="glyph566"><path
     d="M65.9985 615.999l0 100.001 88.0012 0 0 -100.001 -88.0012 0zm0 -615.999l0 519 88.0012 0 0 -519 -88.0012 0z"
     id="path564" /></glyph>
   <glyph
   unicode="х"
   horiz-adv-x="500"
   id="glyph570"><path
     d="M6.0013 0l189.5 268.835 -175.501 250.166 108.165 0 81.9999 -122.502c15.1688,-22.9992 27.1683,-41.6654 35.6672,-56.3327 14.8345,20.8327 28.0008,39.666 39.8331,56.4999l86.3329 122.334 107.5 0 -176.497 -250.166 187.999 -268.835 -106.998 0 -107.336 160.001 -24.4972 38.4991 -138.667 -198.5 -107.5 0z"
     id="path568" /></glyph>
   <glyph
   unicode="д"
   horiz-adv-x="583"
   id="glyph574"><path
     d="M134.999 519l362.002 0 0 -447.001 55.9985 0 0 -218.999 -71.9998 0 0 146.999 -409 0 0 -146.999 -71.9998 0 0 218.999 46.0016 0c61.9998,84.1664 91.6657,233.168 88.9977,447.001zm72.9995 -72.9995c-6.49957,-168.5 -32.4978,-293.168 -77.998,-374.001l278.999 0 0 374.001 -201.001 0z"
     id="path572" /></glyph>
   <glyph
   unicode="У"
   horiz-adv-x="635"
   id="glyph578"><path
     d="M4.50019 715.999l95.3333 0 234.498 -440.167 203.836 440.167 93.3308 0 -268.166 -556.998c-33.5007,-69.6693 -61.0001,-115.333 -82.4982,-136.835 -21.5012,-21.5012 -52.1668,-32.1667 -92.1671,-32.1667 -24.3332,0 -54.1662,5.66702 -89.6663,17.0011l0 81.0002c25.3329,-14.6674 52.1668,-22.0027 80.4988,-22.0027 22.9992,0 42.8322,7.50241 59.6661,22.3338 16.6668,14.8345 35.1689,48.6663 55.3331,101.502l-289.999 526.165z"
     id="path576" /></glyph>
   <glyph
   unicode="В"
   horiz-adv-x="666"
   id="glyph582"><path
     d="M72.9995 0l0 715.999 268.668 0c54.6676,0 98.4995,-7.16498 131.666,-21.6652 32.9993,-14.5002 58.8335,-36.834 77.4997,-67.0014 18.8333,-30.0002 28.1679,-61.4983 28.1679,-94.5008 0,-30.4985 -8.33496,-59.3318 -24.8346,-86.3329 -16.4996,-26.998 -41.4982,-48.8335 -74.9989,-65.5003 43.3336,-12.6649 76.6672,-34.3332 99.8335,-64.9988 23.3335,-30.5016 34.9986,-66.6671 34.9986,-108.332 0,-33.6678 -7.16498,-64.8348 -21.3341,-93.6682 -14.166,-28.8334 -31.6653,-51 -52.498,-66.6671 -20.8327,-15.4999 -47.0012,-27.3322 -78.3354,-35.3329 -31.4981,-8.00068 -69.9973,-11.9994 -115.665,-11.9994l-273.168 0zm94.999 415.001l154.835 0c41.9996,0 72.167,2.83193 90.3317,8.33181 24.1692,7.16813 42.3339,19.1676 54.5005,35.8343 12.1666,16.6668 18.335,37.4994 18.335,62.6652 0,23.8349 -5.66702,44.8347 -17.1682,62.8355 -11.334,18.1647 -27.6665,30.6656 -48.8335,37.3323 -21.167,6.66671 -57.4996,10.0001 -108.834,10.0001l-143.167 0 0 -216.999zm0 -331.002l178.336 0c30.6656,0 52.1668,1.16683 64.6646,3.5005 21.6684,3.83478 40.0003,10.3343 54.6676,19.4987 14.6674,9.16751 26.6668,22.5009 36.1655,40.0003 9.50179,17.5025 14.1691,37.6666 14.1691,60.5018 0,26.834 -6.83385,50.0003 -20.6687,69.8333 -13.6645,19.833 -32.665,33.6647 -56.9982,41.6654 -24.1692,8.00068 -59.1678,11.9994 -104.668,11.9994l-165.668 0 0 -246.999z"
     id="path580" /></glyph>
   <glyph
   unicode="Ё"
   horiz-adv-x="667"
   id="glyph586"><path
     d="M79.0008 0l0 715.999 516.998 0 0 -83.9993 -421.999 0 0 -220.001 395.001 0 0 -83.9993 -395.001 0 0 -244 439 0 0 -83.9993 -533.999 0zm121 759.998l0 100.001 91.9999 0 0 -100.001 -91.9999 0zm181.997 0l0 100.001 91.9999 0 0 -100.001 -91.9999 0z"
     id="path584" /></glyph>
   <glyph
   unicode="ó"
   horiz-adv-x="556"
   id="glyph590"><path
     d="M32.9993 259.5c0,95.8316 26.6668,166.832 80.1676,213 44.5004,38.332 99.0009,57.4996 163.167,57.4996 71.1673,0 129.499,-23.3335 174.832,-70.0004 45.1658,-46.4998 67.8339,-111 67.8339,-193.167 0,-66.6671 -10.0001,-118.998 -30.0002,-157.166 -20.0001,-38.1649 -49.1678,-67.8339 -87.4998,-89.0009 -38.168,-21.167 -80.0005,-31.6653 -125.166,-31.6653 -72.6684,0 -131.335,23.1663 -176.166,69.6662 -44.8347,46.4998 -67.1685,113.501 -67.1685,200.834zm90.0006 -0.167141c0,-66.3328 14.5002,-115.999 43.5007,-148.834 29.1676,-32.9993 65.6674,-49.4989 109.834,-49.4989 43.6647,0 80.0005,16.4996 109.165,49.666 29.0005,33.1664 43.5007,83.6681 43.5007,151.502 0,63.9991 -14.6674,112.498 -43.8319,145.33 -29.1676,33.0024 -65.5003,49.502 -108.834,49.502 -44.1662,0 -80.6659,-16.3325 -109.834,-49.1678 -29.0005,-32.8321 -43.5007,-82.3342 -43.5007,-148.5zm80.0005 323.667l63.9991 137.002 116.002 0 -107.002 -137.002 -72.9995 0z"
     id="path588" /></glyph>
   <glyph
   unicode="â"
   horiz-adv-x="556"
   id="glyph594"><path
     d="M405.001 64.9988c-32.6681,-27.8337 -64.1663,-47.3324 -94.3336,-58.8335 -30.1673,-11.498 -62.5012,-17.165 -97.1687,-17.165 -56.9982,0 -100.833,13.8317 -131.499,41.6654 -30.6656,27.6665 -45.9984,63.1666 -45.9984,106.333 0,25.336 5.831,48.5024 17.3322,69.5022 11.6652,20.9998 26.834,37.6666 45.5001,50.3314 18.8333,12.668 39.8331,22.3338 63.3337,28.8334 17.3322,4.50019 43.4976,8.83323 78.3323,13.1663 71.0001,8.33496 123.501,18.5022 156.999,30.1673 0.334282,11.9994 0.501422,19.669 0.501422,22.8352 0,35.6641 -8.33181,60.8329 -24.9986,75.5003 -22.5009,19.833 -56.0016,29.6659 -100.335,29.6659 -41.5014,0 -72.167,-7.33527 -91.8328,-21.8355 -19.833,-14.4971 -34.3332,-40.1642 -43.835,-77.1654l-85.9987 11.9994c7.83354,36.834 20.6655,66.6671 38.6663,89.3352 18.0007,22.6649 43.999,40.0003 78.0011,52.3308 33.8318,12.1697 73.3338,18.335 117.998,18.335 44.3333,0 80.5019,-5.1656 108.336,-15.6671 27.6665,-10.4983 48.1649,-23.5006 61.1641,-39.3317 13.0023,-15.8342 22.1666,-35.8343 27.5025,-60.0004 2.83193,-15.0017 4.33305,-41.9996 4.33305,-80.8331l0 -116.667c0,-81.5016 1.83224,-133 5.49988,-154.835 3.5005,-21.8324 10.8326,-42.665 21.4981,-62.6652l-91.9999 0c-8.83323,18.499 -14.5002,40.1674 -16.9979,64.9988zm-7.00099 195c-31.9996,-12.9991 -80.0005,-23.9989 -144,-32.9993 -36.3326,-5.1656 -61.9998,-10.9998 -77.0014,-17.4993 -14.9985,-6.49957 -26.4997,-16.0014 -34.6644,-28.3319 -8.16782,-12.5009 -12.3337,-26.3357 -12.3337,-41.6685 0,-23.1663 8.83323,-42.665 26.6668,-58.165 17.8336,-15.4999 43.8319,-23.3335 77.998,-23.3335 33.835,0 64.0023,7.33212 90.502,22.1666 26.3326,14.6642 45.8313,34.8315 58.165,60.3315 9.50179,19.833 14.166,49.0006 14.166,87.4998l0.501422 31.9996zm-122 406.001l-54.5005 -82.9996 -100.001 0 104.501 137.002 92.9996 0 111.502 -137.002 -100.001 0 -54.5005 82.9996z"
     id="path592" /></glyph>
   <glyph
   unicode="Ñ"
   horiz-adv-x="722"
   id="glyph598"><path
     d="M75.9986 0l0 715.999 97.3358 0 375.666 -562 0 562 91.0003 0 0 -715.999 -97.3327 0 -375.669 562 0 -562 -91.0003 0zm133 758.999c-0.331128,33.5007 9.00037,60.1675 27.8337,80.1676 18.5022,19.833 42.3339,29.833 71.3344,29.833 20.1673,0 47.6667,-8.49895 82.3342,-25.6671 19.1644,-9.49864 34.5004,-14.3331 45.8313,-14.3331 10.5015,0 18.5022,2.83509 24.002,8.5021 5.49988,5.49988 9.3315,16.8308 11.6652,33.4975l62.9995 0c-0.999691,-36.998 -10.3312,-64.6646 -27.9977,-83.1667 -17.6665,-18.499 -40.0003,-27.8337 -67.3357,-27.8337 -20.3313,0 -47.3324,9.16751 -80.6659,27.3354 -21.8324,11.8323 -37.8337,17.6665 -48.0009,17.6665 -10.9998,0 -19.997,-3.83478 -26.6637,-11.6683 -7.16813,-7.6664 -10.6686,-19.1644 -10.3343,-34.3332l-65.002 0z"
     id="path596" /></glyph>
   <glyph
   unicode="À"
   horiz-adv-x="666"
   id="glyph602"><path
     d="M-1.50111 0l274.669 715.999 104.167 0 291.5 -715.999 -107.834 0 -82.8324 216.999 -301.5 0 -77.6668 -216.999 -100.502 0zm206.003 294.001l243.997 0 -74.6646 198.5c-22.5009,60.3315 -39.502,110.165 -51.3343,149.5 -9.83292,-46.667 -22.9992,-92.5014 -39.4988,-137.834l-78.4994 -210.165zm189.5 465.998l-71.0001 0 -113 137.002 117.998 0 66.0017 -137.002z"
     id="path600" /></glyph>
   <glyph
   unicode="¯"
   horiz-adv-x="552"
   id="glyph606"><path
     d="M-14.9985 765l0 62.9995 582 0 0 -62.9995 -582 0z"
     id="path604" /></glyph>
   <glyph
   unicode="|"
   horiz-adv-x="259"
   id="glyph610"><path
     d="M91.9999 -210.001l0 938 77.0014 0 0 -938 -77.0014 0z"
     id="path608" /></glyph>
   <glyph
   unicode="k"
   horiz-adv-x="500"
   id="glyph614"><path
     d="M66.3328 0l0 715.999 88.0012 0 0 -407.833 207.999 210.834 113.668 0 -198.002 -192.833 218.002 -326.167 -108.336 0 -172.332 265.167 -61.0001 -59.335 0 -205.832 -88.0012 0z"
     id="path612" /></glyph>
   <glyph
   unicode="Z"
   horiz-adv-x="610"
   id="glyph618"><path
     d="M20.0001 0l0 87.4998 366.666 459c26.3326,32.3339 51,60.8329 74.5006,85.5004l-399.167 0 0 83.9993 511.999 0 0 -83.9993 -402.166 -496.667 -42.9993 -51.3343 457.165 0 0 -83.9993 -565.999 0z"
     id="path616" /></glyph>
   <glyph
   unicode="I"
   horiz-adv-x="277"
   id="glyph622"><path
     d="M92.9996 0l0 715.999 94.999 0 0 -715.999 -94.999 0z"
     id="path620" /></glyph>
   <glyph
   unicode="8"
   horiz-adv-x="556"
   id="glyph626"><path
     d="M177.5 388.167c-36.4998,13.3334 -63.5009,32.501 -81.1673,57.1653 -17.4993,24.8346 -26.3326,54.5005 -26.3326,89.0009 0,52.1668 18.6662,95.8347 55.9985,131.335 37.5026,35.5001 87.1686,53.3305 149.336,53.3305 62.3309,0 112.665,-18.1647 150.666,-54.4973 37.9977,-36.3358 56.9982,-80.5019 56.9982,-132.669 0,-33.1664 -8.66609,-62.1669 -25.9983,-86.6672 -17.3353,-24.6643 -43.6679,-43.6647 -79.168,-56.9982 43.835,-14.3331 77.0014,-37.3323 99.8335,-69.335 22.8352,-31.8324 34.3332,-69.8333 34.3332,-114.167 0,-61.1641 -21.6652,-112.498 -64.8317,-154.167 -43.3336,-41.6654 -100.168,-62.498 -170.666,-62.498 -70.5019,0 -127.336,20.8327 -170.666,62.6652 -43.1696,41.8356 -64.8348,94.0025 -64.8348,156.501 0,46.4998 11.8323,85.5004 35.5001,116.835 23.6678,31.4981 57.3324,52.8322 101,64.1663zm-17.4993 149.332c0,-33.999 10.8326,-61.6655 32.3339,-83.1667 21.6652,-21.4981 49.9972,-32.3339 85.1661,-32.3339 34.1661,0 61.8326,10.6686 83.3339,31.9996 21.4981,21.3341 32.1667,47.5027 32.1667,78.5025 0,32.3339 -11.0029,59.499 -33.1696,81.4985 -21.9995,21.9995 -49.8332,32.9993 -83.3307,32.9993 -33.835,0 -61.6686,-10.8326 -83.6681,-32.3307 -21.8324,-21.5012 -32.8321,-47.1684 -32.8321,-77.1686zm-29.0005 -330.999c0,-25.1689 5.83416,-49.3349 17.4993,-72.8355 11.6683,-23.3335 29.3348,-41.4982 52.9994,-54.3334 23.5006,-12.832 48.8335,-19.3316 75.6675,-19.3316 42.3339,0 77.0014,13.5006 104.167,40.4985 27.1683,27.0011 40.6657,61.3344 40.6657,103 0,42.3339 -13.9988,77.3357 -41.8325,105.002 -28.0008,27.6665 -63.3337,41.4982 -105.832,41.4982 -41.6685,0 -75.8346,-13.6645 -102.836,-40.9999 -26.998,-27.3322 -40.4985,-61.4983 -40.4985,-102.498z"
     id="path624" /></glyph>
   <glyph
   unicode="'"
   horiz-adv-x="191"
   id="glyph630"><path
     d="M67.4996 462.999l-22.5009 133.501 0 119.499 100.001 0 0 -119.499 -23.5006 -133.501 -53.9991 0z"
     id="path628" /></glyph>
   <glyph
   unicode="∂"
   horiz-adv-x="494"
   id="glyph634"><path
     d="M208.998 555.166l-66.9982 29.3348c22.8321,51 50.1675,87.6669 81.9999,110.001 31.9996,22.3306 63.1666,33.4975 93.8322,33.4975 24.6675,0 47.0012,-6.49957 67.0014,-19.3316 20.1673,-12.8351 35.1658,-27.4994 45.1658,-44.1662 15.3328,-25.6671 26.6668,-56.1688 33.999,-91.1674 7.33527,-35.1658 11.0029,-75.5003 11.0029,-121.168 0,-93.665 -14.1691,-176.999 -42.3339,-250.166 -28.1679,-72.9995 -66.1688,-127.002 -113.999,-161.833 -47.8338,-34.8347 -95.0022,-52.1668 -141.168,-52.1668 -44.6676,0 -80.8331,14.8314 -108.667,44.5004 -27.8337,29.4988 -41.8325,71.1641 -41.8325,124.832 0,73.6681 24.9986,136.5 74.8318,189.002 64.1663,67.3325 169.834,102.331 317.167,104.832 -1.33397,54.6676 -5.1656,96.1659 -11.6652,124.668 -6.50272,28.6662 -17.5025,50.6657 -33.0024,65.9985 -15.6671,15.4999 -33.999,23.1663 -54.9988,23.1663 -20.0001,0 -39.666,-8.00068 -58.8335,-24.166 -19.1676,-16.1653 -36.3326,-44.6676 -51.5014,-85.6675zm208.002 -166.333c-79.4991,-4.66733 -137.667,-15.6671 -174.668,-33.3335 -36.998,-17.4993 -67.4996,-46.1655 -91.4985,-85.9987 -23.8349,-39.8331 -35.8343,-80.3348 -35.8343,-121.335 0,-26.998 8.33496,-49.1646 25.0017,-66.8311 16.4996,-17.5025 35.9983,-26.3357 57.9978,-26.3357 24.5003,0 50.5017,9.00037 78.3354,26.834 37.9977,24.6675 69.0008,62.8355 92.9996,114.501 23.9989,51.4983 39.8331,115.668 47.6667,192.499z"
     id="path632" /></glyph>
   <glyph
   unicode="₮"
   horiz-adv-x="610"
   id="glyph638"><path
     d="M591 632l-236.999 0 0 -157.5 164 87.4998 0 -81.9999 -164 -87.4998 0 -101 164 87.4998 0 -81.9999 -164 -87.4998 0 -209.5 -95.0022 0 0 159.001 -163 -87.0015 0 81.9999 163 86.8344 0 101 -163 -86.8344 0 81.9999 163 87.0015 0 207.999 -236 0 0 83.9993 568.001 0 0 -83.9993z"
     id="path636" /></glyph>
   <glyph
   unicode="⁪"
   horiz-adv-x="0"
   id="glyph642"><path
     d="M-114.999 514.999l96.9984 0 0 140.001 -96.9984 0 0 35.0018 228.999 0 0 -35.0018 -96.9984 0 0 -140.001 96.9984 0 0 -34.9986 -96.9984 0 0 -613.999 -35.0018 0 0 613.999 -96.9984 0 0 34.9986z"
     id="path640" /></glyph>
   <glyph
   unicode="…"
   horiz-adv-x="1000"
   id="glyph646"><path
     d="M116.999 0l0 100.001 100.001 0 0 -100.001 -100.001 0zm333.001 0l0 100.001 100.001 0 0 -100.001 -100.001 0zm333.001 0l0 100.001 100.001 0 0 -100.001 -100.001 0z"
     id="path644" /></glyph>
   <glyph
   unicode="―"
   horiz-adv-x="1000"
   id="glyph650"><path
     d="M31.9996 224l0 71.0001 937.001 0 0 -71.0001 -937.001 0z"
     id="path648" /></glyph>
   <glyph
   unicode="ӽ"
   horiz-adv-x="500"
   id="glyph654"><path
     d="M498.001 -68.1682c0,-40.9999 -10.9998,-74.4975 -32.9993,-100.499 -23.5006,-27.4994 -56.3359,-41.3342 -98.3355,-41.3342 -24.5003,0 -48.6663,3.33335 -72.331,9.83608l16.6636 73.9992c17.5025,-4.50019 32.3339,-6.83385 44.3333,-6.83385 15.0017,0 28.0008,6.0013 39.1677,17.8336 10.9998,11.8323 16.4996,26.6668 16.4996,44.5004 0,21.6652 -13.8317,52.8322 -41.3311,93.4979l-120.001 169.667 -135.166 -192.499 -107.5 0 188.998 269.166 -175 249.834 109.834 0 120.168 -171.499 120.499 171.499 107.5 0 -174.334 -248.166 133.334 -190.499c40.0003,-57.1684 60.0004,-106.667 60.0004,-148.503z"
     id="path652" /></glyph>
   <glyph
   unicode="Ӭ"
   horiz-adv-x="718"
   id="glyph658"><path
     d="M307 410.999l0 -83.9993 266 0c-3.66764,-80.1676 -25.9983,-143.334 -66.9982,-189.667 -41.1671,-46.1655 -93.8353,-69.3319 -158.169,-69.3319 -114.167,0 -185.832,60.3315 -214.833,180.998l-91.0003 -23.9989c41.3342,-157.998 141.001,-236.999 299.166,-236.999 113,0 197.166,36.3326 252.335,109.165 55.3331,72.6684 81.1642,162.168 77.4997,268.668 0,64.9988 -12.3337,124.501 -36.834,178.166 -24.6675,53.668 -62.5012,97.8341 -113.334,132.334 -50.8329,34.5004 -111.499,51.6654 -181.833,51.6654 -74.3335,0 -136.5,-18.3319 -186.501,-54.9988 -49.9972,-36.6669 -83.8321,-87.6669 -101.499,-153l92.9996 -23.9989c27.1683,99.3321 92.5014,148.998 196.166,148.998 69.8333,0 124.668,-20.9998 164.334,-63.1666 39.8331,-41.9996 61.6655,-99.0009 65.5003,-170.834l-263.001 0zm-101 348.999l0 100.001 91.9999 0 0 -100.001 -91.9999 0zm182.001 0l0 100.001 91.9999 0 0 -100.001 -91.9999 0z"
     id="path656" /></glyph>
   <glyph
   unicode="ӛ"
   horiz-adv-x="556"
   id="glyph662"><path
     d="M519 263.833c0,-79.8334 -20.0001,-144.665 -60.0004,-194.334 -43.1665,-53.6648 -103.832,-80.4988 -182.001,-80.4988 -75.9986,0 -135.166,26.4997 -177.5,79.4991 -38.6663,48.6663 -57.9978,112.167 -57.9978,190.168 0,5.1656 0.163987,12.9991 0.498269,23.3335l387 0c-2.99907,50.6657 -16.8339,91.6657 -41.6654,122.833 -28.1679,35.5001 -66.8342,53.1665 -115.835,53.1665 -66.1657,0 -112,-35.3329 -137.5,-106.002l-90.0006 11.1669c30.3345,111.168 106.333,166.835 228.002,166.835 79.6662,0 141.332,-24.6675 185,-73.9992 41.3342,-47.1684 61.9998,-111.168 61.9998,-192.168zm-94.835 -53.8319l-290.166 0c4.00192,-43.6679 15.0017,-76.336 33.3335,-98.1684 28.0008,-33.8318 64.3334,-50.8329 109.001,-50.8329 42.8322,0 77.6668,14.3331 104.665,42.9993 25.8343,27.3354 40.1674,62.6683 43.1665,106.002zm-296.164 372.998l0 100.001 91.9999 0 0 -100.001 -91.9999 0zm181.997 0l0 100.001 91.9999 0 0 -100.001 -91.9999 0z"
     id="path660" /></glyph>
   <glyph
   unicode="ӊ"
   horiz-adv-x="552"
   id="glyph666"><path
     d="M572 71.9998l-102 -218.999 -72.3341 0 72.8355 146.999 -72.5012 0 0 230.001 -244 0 0 -230.001 -88.0012 0 0 519 88.0012 0 0 -215.999 244 0 0 215.999 88.0012 0 0 -447.001 85.9987 0z"
     id="path664" /></glyph>
   <glyph
   unicode="ҹ"
   horiz-adv-x="520"
   id="glyph670"><path
     d="M455.001 0l-88.0012 0 0 209.333c-36.0015,-10.9998 -70.3347,-18.499 -103,-22.3338l0 -104.999 -48.0009 0 0 102 -10.1672 0c-29.0005,0 -58.8335,9.00037 -89.332,26.834 -32.501,19.1676 -54.6676,44.8316 -66.3328,76.6672 -10.8326,29.0005 -16.1685,60.8329 -16.1685,95.6644l0 135.835 88.0012 0 0 -98.1684c0,-37.8306 1.50111,-63.832 4.33305,-77.8308 5.83416,-27.3354 19.0004,-48.6663 39.4988,-64.0023 14.3331,-10.6655 30.9999,-17.3322 50.1675,-20.0001l0 135.002 48.0009 0 0 -135.002c28.4991,3.33335 62.8323,11.5012 103,24.8346l0 235.167 88.0012 0 0 -519z"
     id="path668" /></glyph>
   <glyph
   unicode="Ҩ"
   horiz-adv-x="753"
   id="glyph674"><path
     d="M736 18.8333c-34.8315,-20.4984 -73.9992,-30.8327 -117.5,-30.8327 -53.3337,0 -100.666,9.49864 -142,28.3319 -41.6654,-18.8333 -89.1649,-28.3319 -142.499,-28.3319 -102.167,0 -179.5,35.8343 -232.335,107.333 -47.8338,65.166 -71.6655,154.501 -71.6655,267.999 0,107.5 23.3335,195 70.1676,262.834 46.667,67.8339 107.5,101.833 182.165,101.833 43.5007,0 79.5022,-9.16436 107.667,-27.3322l-39.0006 -70.6659c-18.8333,11.334 -41.6654,16.9979 -68.4993,16.9979 -46.3327,0 -83.9993,-28.9973 -113.167,-86.8312 -27.4994,-54.1662 -41.3311,-119.499 -41.3311,-196.334 0,-84.3335 15.1657,-152.167 45.333,-203.502 35.3329,-60.8329 88.9977,-91.3314 160.666,-91.3314 21.4981,0 41.6654,2.33366 60.4986,6.83385 -58.3321,63.4977 -87.4998,157.166 -87.4998,281.165 0,193.335 58.8335,289.999 176.333,289.999 53.8319,0 95.6676,-29.3316 125.668,-87.8309 26.6668,-53.0025 40.0003,-120.502 40.0003,-202.168 0,-123.665 -29.833,-217.333 -89.3352,-281.165 19.1676,-4.50019 39.0006,-6.83385 59.8332,-6.83385 27.0011,0 52.8354,7.83354 77.4997,23.5006l39.0006 -73.6681zm-175.999 338c0,55.1659 -6.0013,102 -18.1679,140.335 -14.166,44.4973 -33.8318,66.8311 -59.1647,66.8311 -57.1684,0 -85.6675,-67.6668 -85.6675,-202.833 0,-113.832 26.834,-194.665 80.4988,-242.833 55.0019,49.0006 82.5013,128.5 82.5013,238.5z"
     id="path672" /></glyph>
   <glyph
   unicode="җ"
   horiz-adv-x="669"
   id="glyph678"><path
     d="M664.999 -146.999l-71.9998 0 0 146.999 -17.4993 0 -95.1662 160.834c-15.6671,26.3326 -29.0005,44.8316 -39.8331,55.1659 -17.0011,16.0014 -37.1683,24.002 -60.5018,24.002l0 -240.002 -90.0006 0 0 240.002c-23.8317,0 -44.3333,-7.83354 -61.0001,-23.5006 -10.3312,-10.0001 -23.4975,-28.6662 -39.3317,-55.6673l-94.999 -160.834 -96.6673 0 96.1659 160.834c36.1655,60.3347 73.5009,95.5004 111.833,105.668 -29.3316,13.3334 -51.3343,32.3307 -65.9985,56.9982 -5.49988,9.16751 -17.3353,36.834 -35.5001,83.501 -6.49957,16.4996 -13.6677,27.3322 -21.5012,32.1667 -7.83354,4.83447 -20.8327,7.33212 -39.1677,7.33212 -4.1659,0 -12.832,-0.167141 -25.8311,-0.498269l0 72.9995 12.3337 0c34.6644,0 58.6664,-1.99938 72.167,-5.83416 18.6662,-5.49988 35.5001,-20.4984 50.6657,-44.8316 6.16529,-10.5015 15.8342,-31.6684 28.8334,-63.5009 18.1647,-44.3333 30.0002,-70.1676 35.6672,-77.6668 15.9982,-21.5012 40.0003,-32.1667 72.331,-32.1667l0 224 90.0006 0 0 -224c32.6681,0 57.0013,10.4983 72.6684,31.6653 5.831,7.83354 17.9976,33.6678 36.3326,77.6668 18.3319,43.835 33.5007,72.167 45.5001,84.835 19.0004,19.833 47.6667,29.833 86.1658,29.833l32.3339 0 0 -72.9995 -23.9989 0.498269c-24.8346,0.668563 -41.9996,-5.66702 -51.8357,-19.0004 -3.66448,-4.66417 -11.6652,-22.9992 -24.5003,-55.1659 -11.9994,-30.9999 -22.4978,-52.334 -31.331,-63.9991 -12.3337,-16.1685 -31.3342,-30.1673 -56.8342,-41.8325 38.0009,-10.0001 75.166,-45.333 111.335,-105.835l53.1665 -88.6666 35.9983 0 0 -218.999z"
     id="path676" /></glyph>
   <glyph
   unicode="҆"
   horiz-adv-x="0"
   id="glyph682"><path
     d="M58.001 658.166c0,-34.1661 -5.66702,-59.8332 -17.0011,-76.9983 -11.9994,-18.5022 -35.1658,-34.8347 -69.6662,-49.1678l-21.3341 40.8328c20.0001,8.5021 33.1664,15.6671 39.3348,21.6684 9.00037,8.66609 13.4974,22.3338 13.4974,40.4985l-46.8309 0 0 85.0021 102 0 0 -61.8358z"
     id="path680" /></glyph>
   <glyph
   unicode="ѵ"
   horiz-adv-x="630"
   id="glyph686"><path
     d="M623 475.333l-40.9999 -65.9985c-37.6666,21.8324 -67.6668,32.665 -89.8334,32.665 -21.6652,0 -39.8331,-18.8333 -54.1662,-56.667l-145.999 -385.332 -81.9999 0 -197.002 519 92.9996 0 111 -310.835c11.9994,-33.999 23.0024,-68.8336 33.0024,-104.665 7.83039,26.998 18.8333,59.8332 32.8321,98.4995l80.6659 221.666c12.668,35.1658 26.834,60.4986 42.5011,76.1657 19.833,20.1673 46.3327,30.1673 79.4991,30.1673 35.6672,0 81.5016,-18.1679 137.5,-54.6676z"
     id="path684" /></glyph>
   <glyph
   unicode="Ѥ"
   horiz-adv-x="949"
   id="glyph690"><path
     d="M914.001 225c-41.3342,-157.998 -141.001,-236.999 -298.835,-236.999 -112.665,0 -196.665,36.4998 -252.001,109.332 -47.4995,62.6683 -73.3306,139.335 -77.1654,229.667l-98.0012 0 0 -327 -94.999 0 0 715.999 94.999 0 0 -305 100.001 0c4.83447,49.3349 16.3325,93.5011 34.1661,132.502 26.834,58.8335 66.4999,104.501 119.335,136.999 51.4983,31.6684 110.001,47.4995 175.498,47.4995 72.003,0 133.003,-17.3322 182.836,-52.1668 51.8326,-35.9983 86.9983,-87.998 105.166,-155.832l-92.9996 -23.9989c-27.0011,99.3321 -91.9999,148.998 -195.167,148.998 -70.0004,0 -125.002,-21.6652 -165.334,-65.166 -38.5023,-40.9999 -59.6661,-97.3327 -63.5009,-168.834l262.001 0 0 -83.9993 -266 0c3.33335,-72.9995 22.8321,-132.833 58.6664,-179.667 40.6657,-52.8322 95.9987,-79.3319 165.999,-79.3319 113.832,0 185.334,60.3315 214.334,180.998l91.0003 -23.9989z"
     id="path688" /></glyph>
   <glyph
   unicode="ѓ"
   horiz-adv-x="364"
   id="glyph694"><path
     d="M65.9985 519l299.002 0 0 -72.9995 -211.001 0 0 -446.001 -88.0012 0 0 519zm101 63.9991l64.0023 137.002 115.999 0 -106.998 -137.002 -73.0027 0z"
     id="path692" /></glyph>
   <glyph
   unicode="т"
   horiz-adv-x="458"
   id="glyph698"><path
     d="M20.0001 519l419.999 0 0 -72.9995 -165.999 0 0 -446.001 -88.0012 0 0 446.001 -165.999 0 0 72.9995z"
     id="path696" /></glyph>
   <glyph
   unicode="б"
   horiz-adv-x="572"
   id="glyph702"><path
     d="M444.002 733.001l77.998 -0.999691c-3.5005,-34.8347 -11.334,-59.1678 -23.1663,-72.8355 -11.8323,-13.6645 -27.0011,-22.3306 -45.6673,-26.3326 -18.6662,-3.83162 -55.3331,-5.83416 -109.834,-5.83416 -72.331,0 -121.666,-6.99784 -147.998,-20.9998 -26.1686,-13.9988 -45.1658,-36.3326 -56.667,-66.9982 -11.5012,-30.8327 -17.8336,-70.3347 -19.1676,-118.834 22.1666,32.9993 48.0009,57.6667 77.6668,74.1663 29.5019,16.4996 62.9995,24.6675 100.001,24.6675 68.0011,0 124.334,-23.3335 169.001,-70.0004 44.4973,-46.667 66.8311,-109.834 66.8311,-189.667 0,-60.4986 -11.1669,-110.168 -33.6647,-148.834 -22.5009,-38.6663 -49.1678,-68.6665 -80.0005,-89.8334 -30.6688,-21.167 -72.6684,-31.6653 -125.668,-31.6653 -61.6655,0 -109.499,13.9988 -143.665,42.1668 -34.1661,28.1648 -60.3347,64.1663 -78.6665,107.998 -18.1679,43.835 -27.3354,120.335 -27.3354,229.169 0,136.832 23.1663,228.999 69.335,276.498 46.1655,47.5027 117.333,71.1673 213.332,71.1673 59.8332,0 93.6682,0.999691 101.833,2.99907 8.00068,2.00254 13.1694,6.66671 15.5031,14.002zm-3.00223 -471.167c0,53.8319 -12.832,97.9981 -38.332,132.498 -25.5,34.5004 -61.5015,51.6686 -108.001,51.6686 -48.4992,0 -85.8315,-18.1679 -112.167,-54.6676 -26.3326,-36.3326 -39.4988,-84.8318 -39.4988,-145.668 0,-59.9972 14.5002,-105.999 43.6679,-137.831 28.9973,-31.8356 64.9988,-47.8338 107.5,-47.8338 43.6647,0 78.9977,18.499 106.166,55.3331 27.1651,36.834 40.6657,85.6675 40.6657,146.5z"
     id="path700" /></glyph>
   <glyph
   unicode="Р"
   horiz-adv-x="666"
   id="glyph706"><path
     d="M77.0014 0l0 715.999 270.333 0c47.4995,0 83.8321,-2.33366 108.998,-6.83385 35.1689,-5.831 64.6677,-16.9979 88.5026,-33.3335 23.8317,-16.4996 42.9993,-39.4988 57.4996,-68.9976 14.5002,-29.5019 21.6652,-61.9998 21.6652,-97.4998 0,-60.6689 -19.3316,-112.167 -58.165,-154.167 -38.6694,-42.1668 -108.834,-63.1666 -210.168,-63.1666l-183.666 0 0 -292.001 -94.999 0zm94.999 376l185 0c61.3344,0 104.668,11.334 130.499,34.1661 25.6671,22.8321 38.5023,54.8348 38.5023,96.333 0,29.833 -7.50241,55.5002 -22.6681,76.8343 -15.1657,21.3341 -35.1658,35.5001 -59.8332,42.3339 -16.0014,4.1659 -45.5001,6.33243 -88.3323,6.33243l-183.167 0 0 -256z"
     id="path704" /></glyph>
   <glyph
   unicode="Џ"
   horiz-adv-x="718"
   id="glyph710"><path
     d="M400.999 0l0 -199.002 -83.9993 0 0 199.002 -239.998 0 0 715.999 94.999 0 0 -632 374.001 0 0 632 94.999 0 0 -715.999 -240.002 0z"
     id="path708" /></glyph>
   <glyph
   unicode="ð"
   horiz-adv-x="556"
   id="glyph714"><path
     d="M151.001 715.999l106.166 0c22.6681,-18.499 42.8322,-34.8315 60.3347,-49.0006l105.497 49.0006 21.8355 -49.8332 -84.835 -39.4988c103.999,-119.666 156.002,-243.502 156.002,-371.002 0,-82.331 -22.6681,-147.5 -67.8339,-195.167 -45.169,-47.6667 -102.669,-71.4984 -172.669,-71.4984 -82.8324,0 -147.664,31.5013 -194.164,94.3336 -30.1673,41.3342 -45.333,97.667 -45.333,169.5 0,84.6678 20.9998,150.001 63.1666,195.999 41.9996,46.1687 94.6647,69.1679 157.998,69.1679 19.0004,0 35.5001,-1.99938 49.8332,-5.83416 14.5002,-3.83478 32.3339,-11.5012 53.8351,-22.8321 -11.6683,23.9989 -22.0027,42.665 -30.8359,55.8313 -8.66609,13.3334 -21.8324,29.833 -38.9974,49.3349l-134.167 -62.5012 -21.5012 50.3346 115.999 53.8319c-33.1664,26.4997 -66.6671,52.9994 -100.332,79.8334zm275 -457.001c0,62.1669 -14.8345,109.666 -44.3333,142.669 -29.5019,32.8321 -65.8345,49.3318 -108.834,49.3318 -42.5011,0 -77.4997,-16.4996 -105.166,-49.3318 -27.8337,-33.0024 -41.6685,-83.3339 -41.6685,-151.001 0,-62.8323 14.3331,-110.168 42.8353,-142 28.4991,-31.8324 64.1663,-47.6667 106.998,-47.6667 41.6685,0 77.1686,16.8339 106.333,50.3346 29.1676,33.4975 43.835,82.6653 43.835,147.664z"
     id="path712" /></glyph>
   <glyph
   unicode="ß"
   horiz-adv-x="610"
   id="glyph718"><path
     d="M74.9989 0l0 487.833c0,59.499 7.33527,105.333 21.8355,137.333 14.6642,32.1667 38.8334,57.3324 72.9995,75.5003 33.999,18.1679 72.3341,27.3322 114.832,27.3322 56.667,0 101,-13.9988 132.669,-42.1668 31.8324,-28.1648 47.6667,-60.6658 47.6667,-97.667 0,-16.6636 -3.00223,-33.6647 -8.83323,-51.164 -5.83416,-17.5025 -16.1685,-39.502 -30.9999,-65.6674 -15.0017,-26.1686 -24.3363,-44.3333 -28.3351,-54.5005 -3.83162,-10.3343 -5.83416,-19.3347 -5.83416,-27.1651 0,-10.3343 3.66764,-20.6687 10.8358,-30.6688 6.8307,-10.4983 26.3326,-26.1654 58.8304,-47.3324 44.1693,-29.0005 73.5009,-52.1668 88.1683,-69.6662 20.8327,-25.0017 31.167,-54.6676 31.167,-88.6666 0,-45.169 -16.6668,-83.8353 -50.1675,-116.002 -33.3335,-32.1667 -76.1657,-48.3321 -128.333,-48.3321 -40.9999,0 -77.1686,10.9998 -108.001,32.8321 -30.9999,21.9995 -54.1662,50.1675 -69.499,84.5007l75.9986 35.1658c16.1685,-30.3313 32.3339,-51.164 48.6695,-62.9995 16.3325,-11.6652 33.4975,-17.4993 51.3311,-17.4993 24.8346,0 46.0016,8.49895 63.668,25.3329 17.4993,17.0011 26.3326,36.834 26.3326,59.6661 0.334282,18.1679 -4.83447,33.835 -15.1657,46.8341 -6.66671,8.49895 -24.8346,22.9992 -54.1662,43.3336 -54.1694,36.6669 -87.5029,64.1663 -100.168,82.6653 -12.9991,18.6693 -19.5019,37.6666 -19.5019,57.1684 0,12.6649 2.16968,25.5 6.50272,38.4991 4.50019,13.1663 14.9985,33.835 31.6653,62.5012 16.6668,28.6662 27.6665,50.1643 32.8321,64.3334 5.16875,14.3331 8.16782,26.998 9.00037,38.1649 0,20.1673 -9.00037,37.8337 -26.8308,53.3337 -17.8336,15.4999 -41.6685,23.1663 -71.3344,23.1663 -35.1658,0 -63.8352,-10.6655 -86.1658,-32.1667 -22.5009,-21.4981 -33.6678,-67.9979 -33.6678,-139.667l0 -484.166 -88.0012 0z"
     id="path716" /></glyph>
   <glyph
   unicode="Î"
   horiz-adv-x="277"
   id="glyph722"><path
     d="M92.9996 0l0 715.999 94.999 0 0 -715.999 -94.999 0zm47.0012 843.001l-54.5005 -83.0027 -100.001 0 104.501 137.002 92.9996 0 111.499 -137.002 -99.9975 0 -54.5005 83.0027z"
     id="path720" /></glyph>
   <glyph
   unicode="½"
   horiz-adv-x="834"
   id="glyph726"><path
     d="M111.335 -28.0008l537.667 756 76.664 0 -537.667 -756 -76.664 0zm50.6657 386.001l0 271.165c-33.1664,-26.3326 -69.499,-44.8316 -109.001,-55.1659l0 60.0004c20.1673,6.49957 42.5011,18.335 67.1685,35.5001 24.6643,17.1682 44.6644,35.6672 59.9972,55.5002l52.8354 0 0 -367 -71.0001 0zm350.999 -372.998c1.99938,18.3319 9.83292,36.6637 23.6678,55.3331 20.4984,28.3319 54.1662,59.3318 100.833,93.3308 46.8341,33.835 74.6678,55.8345 83.501,66.0017 11.9994,13.3334 17.9976,27.0011 17.9976,40.9999 0,15.6671 -5.66386,28.4991 -16.8308,38.4991 -11.1669,9.83292 -27.8337,14.8345 -50.3346,14.8345 -21.3341,0 -37.3323,-3.66764 -47.8338,-11.1669 -10.4983,-7.49926 -19.1676,-21.8324 -25.9983,-42.8322l-74.0024 7.16498c9.33465,36.0015 25.8343,62.5012 49.1678,79.4991 23.3335,16.8339 56.667,25.3329 99.6663,25.3329 49.0006,0 84.999,-9.66578 107.834,-28.9973 22.8321,-19.1676 34.3332,-42.8353 34.3332,-70.5019 0,-27.4994 -9.50179,-53.4977 -28.6662,-77.998 -14.5002,-18.335 -47.6667,-46.4998 -99.1681,-84.5007 -27.1651,-19.833 -46.3327,-35.5001 -57.6667,-47.0012l186.501 0 0 -57.9978 -303.001 0z"
     id="path724" /></glyph>
   <glyph
   unicode="¬"
   horiz-adv-x="583"
   id="glyph730"><path
     d="M528.001 206.999l-82.9996 0 0 214 -389.003 0 0 81.9999 472.002 0 0 -296z"
     id="path728" /></glyph>
   <glyph
   unicode="y"
   horiz-adv-x="500"
   id="glyph734"><path
     d="M61.9998 -199.5l-10.0001 81.3345c19.3347,-5.16875 36.0015,-7.83354 50.3346,-7.83354 19.6658,0 35.3329,3.33335 46.9981,9.83292 11.8355,6.49957 21.5012,15.6671 29.0005,27.3322 5.49988,8.83323 14.5002,30.6656 26.834,65.6674 1.6651,4.83447 4.1659,11.9994 7.83354,21.5012l-196.999 520.666 93.9993 0 108.332 -299.668c14.166,-37.8337 26.6668,-77.834 37.8337,-119.834 10.1672,39.502 22.1666,78.4994 36.1655,116.835l110.666 302.667 87.834 0 -196.166 -528.001c-21.167,-56.8342 -37.6666,-95.8316 -49.4989,-117.333 -15.6671,-28.8334 -33.6678,-50.0003 -53.8351,-63.5009 -20.3313,-13.5006 -44.4973,-20.1673 -72.4981,-20.1673 -17.0011,0 -36.0015,3.5005 -56.8342,10.5015z"
     id="path732" /></glyph>
   <glyph
   unicode="h"
   horiz-adv-x="556"
   id="glyph738"><path
     d="M65.9985 0l0 715.999 88.0012 0 0 -257.665c40.8328,47.8306 92.3342,71.6655 154.668,71.6655 38.1649,0 71.3313,-7.49926 99.6663,-22.6681 28.1648,-15.1657 48.3321,-35.9983 60.4986,-62.6652 12.1666,-26.6668 18.1679,-65.5003 18.1679,-116.166l0 -328.501 -88.0012 0 0 328.167c0,43.8319 -9.49864,75.8346 -28.3319,95.8347 -19.0004,20.0001 -45.6673,29.997 -80.3348,29.997 -25.8343,0 -50.1675,-6.66356 -72.9995,-20.1641 -22.8321,-13.5006 -39.0006,-31.8356 -48.8335,-55.0019 -9.66578,-22.9992 -14.5002,-54.8316 -14.5002,-95.5004l0 -283.332 -88.0012 0z"
     id="path736" /></glyph>
   <glyph
   unicode="W"
   horiz-adv-x="943"
   id="glyph742"><path
     d="M200.5 0l-188.5 715.999 98.3324 0 107.336 -469.498c11.6652,-49.1678 21.9995,-98.0012 30.8327,-146.333 18.8333,76.3329 29.833,120.332 32.9993,132l135.334 483.831 114.167 0 102.665 -362.5c25.1689,-90.0006 43.835,-174.498 55.8345,-253.332 9.50179,45.1658 21.6684,96.9984 36.4998,155.498l111.833 460.334 95.1662 0 -195.999 -715.999 -92.1671 0 -150.165 545.5c-12.668,45.6673 -20.3344,73.6681 -23.1663,83.9993 -8.16782,-32.665 -15.4999,-60.6658 -21.8355,-83.8321l-150.165 -545.667 -99.0009 0z"
     id="path740" /></glyph>
   <glyph
   unicode="F"
   horiz-adv-x="610"
   id="glyph746"><path
     d="M81.9999 0l0 715.999 482.999 0 0 -83.9993 -388 0 0 -223 336 0 0 -83.9993 -336 0 0 -325 -94.999 0z"
     id="path744" /></glyph>
   <glyph
   unicode="5"
   horiz-adv-x="556"
   id="glyph750"><path
     d="M41.9996 187.999l91.9999 7.00099c6.83385,-44.8316 22.6681,-78.4994 47.3324,-101.167 24.6675,-22.4978 54.8348,-33.8318 90.3348,-33.8318 42.8322,0 78.6665,15.9982 107.834,47.8338 29.0005,31.9996 43.4976,74.3335 43.4976,126.999 0,50.1675 -13.8317,89.6663 -41.6654,118.667 -27.8337,29.0005 -64.6677,43.5007 -110.499,43.5007 -28.5022,0 -54.0022,-6.49957 -76.6672,-19.5019 -22.5009,-12.9991 -40.1674,-29.833 -53.1665,-50.4986l-82.9996 11.9994 68.9976 368 355.001 0 0 -83.9993 -284.833 0 -38.1649 -193.167c42.8322,30.1673 87.8309,45.169 134.832,45.169 62.334,0 114.999,-21.6684 157.834,-65.002 42.8322,-43.3336 64.3334,-99.0009 64.3334,-166.999 0,-64.8348 -18.8333,-120.833 -56.4999,-168.002 -45.8344,-57.9978 -108.503,-86.9983 -187.835,-86.9983 -64.9988,0 -118.001,18.3319 -159.165,54.8316 -41.1671,36.4998 -64.6677,84.835 -70.5019,145.166z"
     id="path748" /></glyph>
   <glyph
   unicode="$"
   horiz-adv-x="556"
   id="glyph754"><path
     d="M248.999 -103l0 88.0012c-43.8319,5.49988 -79.4991,15.3328 -106.998,29.4988 -27.4994,14.166 -51.1671,37.1652 -71.1673,68.6665 -20.0001,31.6653 -31.4981,70.1676 -34.8315,115.835l87.998 16.9979c6.83385,-47.4995 18.8333,-82.3342 36.1686,-104.501 24.6643,-31.331 54.3334,-48.8335 88.8306,-52.498l0 276.167c-36.1655,9.3315 -72.9995,24.6643 -110.666,45.8313 -28.0008,15.4999 -49.4989,37.1683 -64.6646,64.8348 -15.1688,27.8337 -22.6681,59.1647 -22.6681,94.3336 0,62.498 22.1666,113.167 66.3328,152 29.5019,25.9983 73.5009,41.9996 131.666,47.8338l0 41.9996 51.9997 0 0 -41.9996c50.836,-4.83447 91.1674,-20.0001 121,-45.169 38.168,-31.9996 61.1672,-75.9986 69.0008,-131.833l-90.0006 -13.9988c-5.1656,34.8315 -15.9982,61.6655 -32.4978,80.1645 -16.3356,18.6693 -38.8334,30.8359 -67.5028,36.834l0 -253.332c44.1693,-11.334 73.3338,-20.1673 87.6669,-26.3326 27.3354,-12.0026 49.502,-26.6668 66.6671,-44.0022 17.3353,-17.165 30.5016,-37.6666 39.8331,-61.4983 9.16751,-23.6678 13.8348,-49.502 13.8348,-77.1686 0,-60.8329 -19.3347,-111.499 -58.001,-152.331 -38.6663,-40.6688 -88.6666,-62.334 -150.001,-65.3331l0 -89.0009 -51.9997 0zm0 769.999c-33.999,-5.1656 -61.0001,-18.8333 -80.4988,-41.1671 -19.6658,-22.1666 -29.4988,-48.3321 -29.4988,-78.6665 0,-29.997 8.33181,-55.1659 24.9986,-75.3332 16.6668,-20.1641 44.9987,-35.5001 84.999,-45.8313l0 240.998zm51.9997 -607.998c34.1692,4.1659 62.334,19.0004 84.6678,44.5004 22.1666,25.3329 33.3335,56.831 33.3335,94.1665 0,31.9996 -7.83354,57.4996 -23.6678,76.9983 -15.8311,19.3347 -47.3324,35.0018 -94.3336,47.1684l0 -262.834z"
     id="path752" /></glyph>
   <glyph
   unicode="≥"
   horiz-adv-x="548"
   id="glyph758"><path
     d="M511.999 371.999l-473.999 -202.997 0 87.998 374.998 155.501 -374.998 153.498 0 88.0012 473.999 -200.001 0 -81.9999zm-0.999691 -321.998l-472.501 0 0 81.9999 472.501 0 0 -81.9999z"
     id="path756" /></glyph>
   <glyph
   unicode="₫"
   horiz-adv-x="513"
   id="glyph762"><path
     d="M330.999 632l-45.9984 0 0 43.999 45.9984 0 0 40.0003 61.0001 0 0 -40.0003 50.0003 0 0 -43.999 -50.0003 0 0 -415.001 -56.9982 0 0 45.333c-22.9992,-36.1655 -56.8342,-54.3334 -101.502,-54.3334 -61.9998,0 -107.166,30.3345 -135.498,91.1674 -13.3334,28.3351 -20.0001,61.0001 -20.0001,98.1684 0,79.3319 24.166,134.498 72.331,165.832 24.002,15.8342 51,23.8349 81.0002,23.8349 42.3339,0 75.5003,-16.8339 99.6663,-50.5017l0 95.5004zm-189.998 -234.666c0,-42.3339 9.00037,-75.8346 26.998,-100.833 18.0007,-25.0017 41.8356,-37.5026 71.5016,-37.5026 29.4988,0 52.9994,12.0026 70.3347,35.8343 17.3322,23.8349 25.9983,56.1656 25.9983,97.0016 0,45.5001 -8.83323,80.8331 -26.4997,106.166 -17.6665,25.3329 -41.9996,38.0009 -72.8324,38.0009 -29.833,0 -53.3337,-12.1666 -70.1676,-36.5029 -16.8339,-24.3332 -25.3329,-58.4993 -25.3329,-102.164zm300.998 -275.334l-363.998 0 0 43.999 363.998 0 0 -43.999z"
     id="path760" /></glyph>
   <glyph
   unicode="‴"
   horiz-adv-x="354"
   id="glyph766"><path
     d="M-24.8346 462.999l5.83416 133.501 25.3329 119.499 100.502 0 -25.8343 -119.499 -51.1671 -133.501 -54.6676 0zm136.002 0l5.831 133.501 25.336 119.499 100.499 0 -25.8343 -119.499 -51.1671 -133.501 -54.6645 0zm135.999 0l5.83416 133.501 25.3329 119.499 100.499 0 -25.8311 -119.499 -51.1671 -133.501 -54.6676 0z"
     id="path764" /></glyph>
   <glyph
   unicode="‒"
   horiz-adv-x="556"
   id="glyph770"><path
     d="M-1.99938 224l0 71.0001 554.999 0 0 -71.0001 -554.999 0z"
     id="path768" /></glyph>
   <glyph
   unicode="Ӻ"
   horiz-adv-x="541"
   id="glyph774"><path
     d="M542 632l-368 0 0 -242.001 195.999 0 0 -63.9991 -195.999 0 0 -250.002 44.9987 0 0 -103.999c0,-63.3337 -8.33181,-107.831 -24.9986,-133.167 -21.5012,-32.4978 -56.667,-48.8335 -105.668,-48.8335 -23.8317,0 -46.8309,3.16937 -68.9976,9.33465l16.6668 74.5006c17.6665,-4.50019 31.4981,-6.83385 41.6654,-6.83385 25.1657,0 41.3342,12.668 48.4992,38.0009 3.16621,11.3309 4.83447,34.3332 4.83447,68.6665l0 26.3326 -51.9997 0 0 326 -80.0005 0 0 63.9991 80.0005 0 0 326 462.999 0 0 -83.9993z"
     id="path772" /></glyph>
   <glyph
   unicode="ө"
   horiz-adv-x="556"
   id="glyph778"><path
     d="M518.001 266.832c0,-120.833 -39.0006,-203 -117.002,-246.167 -37.9977,-21.167 -79.8334,-31.6653 -125.166,-31.6653 -78.6665,0 -139.667,25.8343 -182.833,77.4997 -40.0003,48.1681 -60.0004,112.501 -60.0004,193 0,95.8316 26.6668,166.832 80.0005,213 44.5004,38.332 98.6667,57.4996 162.833,57.4996 76.3329,0 136.166,-25.1657 179.834,-75.5003 41.5014,-47.8338 62.334,-110.332 62.334,-187.668zm-91.9999 42.1668c-5.49988,41.8356 -19.1676,74.8349 -40.6688,98.8338 -29.1645,32.8353 -65.6642,49.1678 -109.499,49.1678 -44.3333,0 -81.0002,-16.3325 -110.001,-49.1678 -21.6652,-23.9989 -35.3329,-56.9982 -40.8328,-98.8338l301.002 0zm1.99938 -71.9998l-305 0c2.66794,-50.0003 15.8342,-90.8331 39.666,-122.331 27.3354,-35.8343 65.166,-53.668 113.167,-53.668 47.8338,0 85.5004,18.0007 112.501,54.1662 23.5006,31.167 36.6669,71.8327 39.666,121.833z"
     id="path776" /></glyph>
   <glyph
   unicode="Ә"
   horiz-adv-x="752"
   id="glyph782"><path
     d="M706.999 365.833c2.33366,-108.332 -23.5006,-197.835 -77.1654,-268.501 -55.3331,-72.8324 -139.332,-109.332 -252.335,-109.332 -112.665,0 -196.498,36.4998 -251.831,109.499 -51.8357,68.3322 -77.6668,157.834 -77.6668,268.501l0 45.9984 556.998 0c-3.83162,71.5016 -24.8314,127.667 -62.9995,168.667 -40.3345,42.8353 -95.5004,64.3334 -165.832,64.3334 -103.167,0 -168.169,-50.0003 -195.167,-149.998l-92.9996 24.3332c18.1647,67.8308 53.3337,119.998 105.497,156.333 49.6692,34.8315 110.502,52.3308 182.001,52.3308 65.1691,0 123.501,-15.9982 175.334,-47.8338 52.9994,-32.1636 92.8325,-77.6637 119.499,-136.166 23.1663,-50.1643 35.3329,-109.499 36.6669,-178.166zm-97.9981 -37.8337l-463.002 0c3.66764,-80.1676 25.8343,-143.498 66.8342,-190.165 41.1671,-46.4998 95.9987,-69.8333 164.665,-69.8333 68.6696,0 123.501,23.3335 164.668,69.8333 40.9999,46.667 63.3337,109.998 66.8342,190.165z"
     id="path780" /></glyph>
   <glyph
   unicode="Ӈ"
   horiz-adv-x="722"
   id="glyph786"><path
     d="M641.001 159.001c0,-118.503 -28.3351,-210.503 -84.835,-276.334 -53.6648,-61.6686 -125.665,-92.6685 -216.167,-92.6685 -64.6646,0 -122,13.1694 -171.666,39.502 -51.1671,26.998 -80.4988,61.1672 -88.3323,102.498l94.999 0c5.49988,-14.9985 22.3338,-28.6662 50.6657,-40.9999 32.1667,-13.3334 69.0008,-20.0001 110.502,-20.0001 64.8317,0 116.166,24.5003 153.665,73.3338 37.4994,49.0006 56.1688,117.169 56.1688,204.501l0 188.166 -371.002 0 0 -337 -94.999 0 0 715.999 94.999 0 0 -295 371.002 0 0 295 94.999 0 0 -556.998z"
     id="path784" /></glyph>
   <glyph
   unicode="Ҷ"
   horiz-adv-x="666"
   id="glyph790"><path
     d="M654 -199.002l-83.9993 0 0 199.002 -76.0017 0 0 288.334c-85.1661,-31.5013 -159.831,-47.3324 -223.833,-47.3324 -44.9987,0 -86.5001,10.1641 -124.334,30.3313 -41.8325,22.8352 -69.8333,53.8351 -84.1664,93.3339 -13.1663,36.1655 -19.6658,82.9996 -19.6658,140.666l0 210.667 94.999 0 0 -201.834c0,-127.5 48.6695,-191.165 146.002,-191.165 66.8311,0 137.166,14.8314 210.998,44.5004l0 348.498 95.0022 0 0 -632 64.9988 0 0 -283.001z"
     id="path788" /></glyph>
   <glyph
   unicode="ҥ"
   horiz-adv-x="648"
   id="glyph794"><path
     d="M630.001 446.001l-144 0 0 -446.001 -88.0012 0 0 230.001 -244 0 0 -230.001 -88.0012 0 0 519 88.0012 0 0 -215.999 244 0 0 215.999 232.001 0 0 -72.9995z"
     id="path792" /></glyph>
   <glyph
   unicode="Ҕ"
   horiz-adv-x="670"
   id="glyph798"><path
     d="M624.999 159.165c0,-119.165 -27.4994,-211.332 -82.4982,-276.331 -52.334,-61.8358 -123.501,-92.8357 -213.669,-92.8357 -61.4983,0 -116.831,13.8348 -165.832,41.6685 -49.1678,27.8337 -76.8343,61.3344 -82.9996,100.332l94.999 0c5.49988,-14.3331 20.0001,-27.3322 43.3336,-38.9974 29.4988,-14.6674 65.166,-22.0027 106.667,-22.0027 64.3334,0 114.501,24.6675 150.666,74.0024 36.1655,49.3318 54.3334,117.831 54.3334,205.832 0,161.499 -58.1681,242.168 -174.334,242.168 -50.6657,0 -110.833,-14.8345 -180.667,-44.5004l0 -348.501 -94.999 0 0 715.999 447.001 0 0 -83.9993 -352.002 0 0 -204.334c70.1676,31.5013 134.668,47.3355 193.502,47.3355 90.1646,0 156.999,-32.3339 200.998,-97.1687 37.0012,-54.6645 55.5002,-127.667 55.5002,-218.667z"
     id="path796" /></glyph>
   <glyph
   unicode="҃"
   horiz-adv-x="0"
   id="glyph802"><path
     d="M170.001 679.5c0,-14.9985 -5.33589,-27.6665 -16.1685,-38.4991 -10.6655,-10.6686 -23.6646,-16.0014 -38.6663,-16.0014l-175.665 0c0.331128,-2.33366 0.498269,-5.1656 0.498269,-8.66609 0,-14.8345 -5.33274,-27.6665 -15.9982,-38.332 -10.8358,-10.6686 -23.5006,-16.0014 -38.5023,-16.0014 -14.9985,0 -27.6665,5.33274 -38.4991,16.0014 -10.6655,10.8326 -16.0014,23.4975 -16.0014,38.4991 0,14.9985 5.33589,27.6665 16.1685,38.4991 10.6655,10.6686 23.6678,16.0014 38.6663,16.0014l175.668 0c-0.334282,2.33366 -0.501422,5.1656 -0.501422,8.66609 0,14.9985 5.33274,27.6665 16.0014,38.332 10.8326,10.6686 23.4975,16.0014 38.4991,16.0014 14.9985,0 27.6665,-5.33274 38.4991,-16.0014 10.6655,-10.8326 16.0014,-23.4975 16.0014,-38.4991z"
     id="path800" /></glyph>
   <glyph
   unicode="Ѳ"
   horiz-adv-x="777"
   id="glyph806"><path
     d="M732.001 356.833c0,-106.667 -30.0002,-194 -89.8334,-262.001 -63.3337,-71.1641 -147.5,-106.831 -252.666,-106.831 -67.4996,0 -128.336,16.8339 -182.669,50.3314 -56.6639,34.3332 -97.9981,81.8359 -123.665,142.335 -24.166,57.0013 -36.1655,112.833 -36.1655,167.835 0,110.833 28.8334,200.667 86.5001,269.333 61.8326,73.4978 147.333,110.165 256.498,110.165 106.166,0 190.499,-35.9983 253.001,-107.831 59.3318,-68.0011 89.0009,-155.668 89.0009,-263.335zm-100.001 42.3339c-6.16844,71.1673 -28.3351,128.165 -66.4999,170.666 -45.6673,50.8329 -104.167,76.1657 -175.501,76.1657 -70.1644,0 -128.667,-23.8317 -175.498,-71.4984 -38.5023,-38.8334 -61.1672,-97.1687 -68.0011,-174.668 41.6654,22.8352 85.8315,34.1692 132.498,34.1692 26.0014,0 65.8345,-11.5012 119.502,-34.5004 53.6648,-23.0024 96.333,-34.5004 127.831,-34.5004 40.1674,0 75.3332,11.334 105.668,34.1661zm0 -84.5007c-29.6659,-22.5009 -64.8348,-33.6647 -105.668,-33.6647 -31.4981,0 -74.1663,11.498 -127.831,34.4972 -53.668,23.0024 -93.5011,34.5004 -119.502,34.5004 -47.6667,0 -92.3311,-11.3309 -134,-34.1661 4.83447,-67.4996 26.6668,-123.832 65.5003,-168.834 44.3333,-51.9997 103.668,-77.998 178.002,-77.998 71.0001,0 128.667,23.6646 172.666,70.833 40.9999,44.3333 64.6646,102.665 70.833,174.832z"
     id="path804" /></glyph>
   <glyph
   unicode="ѡ"
   horiz-adv-x="623"
   id="glyph810"><path
     d="M615.999 519l-161.332 -519 -92.5014 0 -65.8314 174.501 -56.667 -174.501 -92.5014 0 -110.833 292.667c-12.9991,34.3332 -22.4978,109.666 -28.3319,226.334l91.0003 0c1.33082,-34.5004 2.99907,-65.5003 4.83131,-92.8325 4.66733,-65.5003 10.5015,-107.667 17.6665,-126.667l72.167 -192.502 56.667 188.667c-12.3337,35.8343 -21.4981,110.335 -27.3322,223.335l91.0003 0c1.33397,-34.5004 2.99907,-65.5003 4.83131,-92.8325 4.66733,-65.5003 10.5015,-107.667 17.6665,-126.667l72.167 -192.502 122.334 412.002 84.999 0z"
     id="path808" /></glyph>
   <glyph
   unicode="ѐ"
   horiz-adv-x="556"
   id="glyph814"><path
     d="M419.999 167.999l91.0003 -11.9994c-14.166,-52.8322 -40.6657,-93.9993 -79.3319,-123.167 -38.6663,-29.1645 -88.0012,-43.8319 -148.169,-43.8319 -75.6643,0 -135.665,23.3335 -179.998,70.0004 -44.3333,46.4998 -66.4999,112 -66.4999,196.166 0,86.9983 22.3306,154.665 67.1654,202.666 44.8347,48.1681 103,72.167 174.501,72.167 69.1647,0 125.665,-23.5006 169.5,-70.6659 43.8319,-47.1684 65.8314,-113.501 65.8314,-199.002 0,-5.1656 -0.163987,-12.9991 -0.498269,-23.3335l-386.502 0c3.33335,-56.8342 19.3347,-100.499 48.3352,-130.666 28.8334,-30.1673 64.9988,-45.333 108.165,-45.333 32.1667,0 59.6661,8.49895 82.3342,25.5 22.8321,17.0011 40.8328,44.1662 54.1662,81.4985zm-287.999 141.001l288.999 0c-3.83162,43.6679 -14.9985,76.3329 -33.1664,98.1684 -27.8337,33.8318 -64.1663,50.8329 -108.667,50.8329 -40.3314,0 -74.1663,-13.5006 -101.666,-40.5017 -27.3322,-26.998 -42.5011,-63.1666 -45.5001,-108.5zm203 274l-71.0001 0 -113 137.002 117.998 0 66.0017 -137.002z"
     id="path812" /></glyph>
   <glyph
   unicode="п"
   horiz-adv-x="541"
   id="glyph818"><path
     d="M65.9985 519l410.003 0 0 -519 -88.0012 0 0 446.001 -234 0 0 -446.001 -88.0012 0 0 519z"
     id="path816" /></glyph>
   <glyph
   unicode="Ю"
   horiz-adv-x="1010"
   id="glyph822"><path
     d="M81.0002 715.999l94.999 0 0 -320.999 138.002 0c6.83385,101.331 40.0003,182.332 99.8335,242.499 59.6661,60.3347 133.665,90.4988 221.998,90.4988 93.0028,0 170.168,-32.8321 231.335,-98.6667 61.1672,-65.6642 91.8328,-154.832 91.8328,-267.498 0,-117.002 -30.5016,-208.667 -91.6657,-274.669 -61.0001,-66.1657 -139.168,-99.1649 -234.502,-99.1649 -86.5001,0 -158.5,28.6662 -216.167,85.8315 -57.6667,57.1684 -91.6657,136.169 -101.666,237.166l-139.001 0 0 -310.998 -94.999 0 0 715.999zm327 -361.333c0,-90.4988 20.8327,-160.834 62.334,-210.667 41.4982,-50.0003 95.9987,-74.9989 163.498,-74.9989 69.0008,0 124.167,24.9986 165.334,75.166 41.1671,50.1675 61.8326,122.167 61.8326,216.334 0,89.1649 -20.3313,159.332 -60.8329,210.667 -40.4985,51.1671 -95.3333,76.8343 -164.498,76.8343 -70.3347,0 -125.835,-26.0014 -166.668,-77.834 -40.6657,-51.9997 -61.0001,-123.836 -61.0001,-215.501z"
     id="path820" /></glyph>
   <glyph
   unicode="Н"
   horiz-adv-x="722"
   id="glyph826"><path
     d="M81.0002 0l0 715.999 94.999 0 0 -295 370.002 0 0 295 94.999 0 0 -715.999 -94.999 0 0 337 -370.002 0 0 -337 -94.999 0z"
     id="path824" /></glyph>
   <glyph
   unicode="Ќ"
   horiz-adv-x="582"
   id="glyph830"><path
     d="M79.0008 715.999l94.999 0 0 -314.001c43.1665,0 73.6681,8.5021 91.1674,25.336 17.6665,16.8308 40.0003,57.1653 67.3325,121.164 19.833,47.1684 36.1655,80.3348 49.1678,99.6663 12.832,19.5019 31.167,35.8343 54.9988,49.0006 23.6678,13.1663 50.0003,19.833 78.6665,19.833 36.4998,0 55.6673,-0.331128 57.6667,-0.999691l0 -81.9999c-3.33335,0 -9.66578,0.167141 -19.0004,0.501422 -10.4983,0.331128 -16.8339,0.498269 -19.1644,0.498269 -30.1673,0 -52.6683,-7.33212 -67.3357,-21.9995 -14.9985,-14.6674 -31.9996,-45.9984 -51.3311,-93.8322 -24.002,-60.6689 -44.3333,-99.0009 -61.0001,-114.835 -16.4996,-15.6671 -36.4998,-28.3319 -59.5021,-37.8337 46.1687,-12.6649 91.8328,-55.5002 136.835,-128.165l147.5 -238.333 -117.667 0 -120.168 194c-32.8321,53.8319 -60.3315,90.8331 -82.331,110.833 -22.1666,20.1673 -50.6689,30.1673 -85.8347,30.1673l0 -335.001 -94.999 0 0 715.999zm176.999 43.999l63.9991 137.002 116.002 0 -107.002 -137.002 -72.9995 0z"
     id="path828" /></glyph>
   <glyph
   unicode="þ"
   horiz-adv-x="556"
   id="glyph834"><path
     d="M65.9985 -199.002l0 915.001 88.0012 0 0 -252.499c23.6678,24.9986 44.5004,41.6654 62.5012,49.8332 23.3335,11.1669 50.0003,16.6668 80.0005,16.6668 44.1662,0 83.1667,-11.334 116.999,-34.1661 33.835,-22.6681 59.335,-54.8348 76.6672,-96.1659 17.165,-41.5014 25.8343,-86.8344 25.8343,-136.336 0,-53.1665 -9.50179,-100.997 -28.5022,-143.164 -19.0004,-42.3339 -46.667,-74.6678 -82.9996,-97.3358 -36.1655,-22.4978 -74.1663,-33.8318 -113.832,-33.8318 -27.0011,0 -52.1668,5.33274 -75.166,15.9982 -17.6665,8.5021 -38.0009,24.8346 -61.5015,49.1678l0 -253.168 -88.0012 0zm79.6694 455.336c0,-66.4999 13.4974,-115.668 40.4985,-147.5 27.0011,-31.8324 59.6661,-47.8338 98.0012,-47.8338 39.0006,0 72.331,16.4996 100.165,49.4989 27.8337,33.0024 41.6685,84.0024 41.6685,153.167 0,66.0017 -13.5006,115.333 -40.6688,148.169 -27.1651,32.8321 -59.6661,49.1646 -97.3327,49.1646 -37.3323,0 -70.3316,-17.4993 -99.1649,-52.334 -28.8334,-34.9986 -43.1665,-85.6644 -43.1665,-152.331z"
     id="path832" /></glyph>
   <glyph
   unicode="í"
   horiz-adv-x="277"
   id="glyph838"><path
     d="M97.0016 0l0 519 87.998 0 0 -519 -87.998 0zm-29.0005 583l63.9991 137.002 115.999 0 -106.998 -137.002 -72.9995 0z"
     id="path836" /></glyph>
   <glyph
   unicode="Ü"
   horiz-adv-x="722"
   id="glyph842"><path
     d="M546.002 715.999l94.999 0 0 -413.5c0,-71.9998 -8.16782,-129.165 -24.3332,-171.499 -16.3325,-42.1668 -45.6673,-76.6672 -88.0012,-103.167 -42.5011,-26.4997 -97.9981,-39.8331 -166.999,-39.8331 -66.8342,0 -121.666,11.498 -164.167,34.6675 -42.6682,23.1663 -72.9995,56.4999 -91.1674,100.332 -18.1679,43.835 -27.3322,103.668 -27.3322,179.5l0 413.5 94.999 0 0 -413.333c0,-62.1669 5.83416,-108.165 17.3322,-137.5 11.5012,-29.4988 31.167,-52.334 59.335,-68.165 28.0008,-16.0014 62.334,-24.002 102.833,-24.002 69.335,0 118.834,15.8342 148.333,47.3324 29.5019,31.6684 44.1693,92.3342 44.1693,182.335l0 413.333zm-324.001 43.999l0 100.001 91.9999 0 0 -100.001 -91.9999 0zm182.001 0l0 100.001 91.9999 0 0 -100.001 -91.9999 0z"
     id="path840" /></glyph>
   <glyph
   unicode="Ë"
   horiz-adv-x="666"
   id="glyph846"><path
     d="M79.0008 0l0 715.999 516.998 0 0 -83.9993 -421.999 0 0 -220.001 395.001 0 0 -83.9993 -395.001 0 0 -244 439 0 0 -83.9993 -533.999 0zm134.999 759.998l0 100.001 91.9999 0 0 -100.001 -91.9999 0zm182.001 0l0 100.001 91.9999 0 0 -100.001 -91.9999 0z"
     id="path844" /></glyph>
   <glyph
   unicode="º"
   horiz-adv-x="365"
   id="glyph850"><path
     d="M182.499 727.999c47.3355,0 85.8347,-16.3325 115.668,-48.8335 29.833,-32.665 44.8347,-77.4997 44.8347,-134.832 0,-57.1653 -15.0017,-101.833 -45.0019,-134.501 -30.0002,-32.4978 -68.3322,-48.8335 -114.999,-48.8335 -47.3324,0 -85.9987,16.0014 -115.999,47.8338 -30.0002,31.9996 -45.0019,76.5 -45.0019,133.501 0,58.6664 15.0017,104.167 44.8347,136.832 29.833,32.501 68.3322,48.8335 115.665,48.8335zm0 -63.9991c-26.4997,0 -47.9978,-9.33465 -64.1663,-28.0008 -16.1653,-18.6662 -24.3332,-49.1646 -24.3332,-91.4985 0,-41.3342 8.33496,-71.5016 24.8346,-90.666 16.4996,-19.1676 37.8337,-28.8334 63.6649,-28.8334 26.1686,0 47.5027,9.66578 63.8352,28.8334 16.4996,19.1644 24.6675,50.1643 24.6675,93.1668 0,40.0003 -8.33496,69.499 -24.8346,88.4995 -16.4996,19.0004 -37.8337,28.4991 -63.668,28.4991z"
     id="path848" /></glyph>
   <glyph
   unicode="©"
   horiz-adv-x="736"
   id="glyph854"><path
     d="M369.832 727.999c61.8358,0 122.167,-15.8311 181.168,-47.6667 58.8335,-31.6653 104.832,-77.1654 137.667,-136.166 32.8321,-59.1647 49.3318,-120.833 49.3318,-184.832 0,-63.5009 -16.1653,-124.668 -48.6663,-183.167 -32.3339,-58.6664 -77.6668,-104.167 -136.166,-136.5 -58.4993,-32.4978 -119.666,-48.6663 -183.334,-48.6663 -63.832,0 -124.999,16.1685 -183.498,48.6663 -58.4993,32.3339 -103.999,77.834 -136.5,136.5 -32.501,58.4993 -48.8335,119.666 -48.8335,183.167 0,63.9991 16.4996,125.668 49.4989,184.832 33.1696,59.0007 79.168,104.501 138.002,136.166 59.0007,31.8356 119.332,47.6667 181.332,47.6667zm0 -61.0001c-51.8326,0 -102.331,-13.3334 -151.332,-39.8331 -49.0006,-26.4997 -87.3326,-64.5006 -114.999,-113.832 -27.6665,-49.3349 -41.5014,-100.666 -41.5014,-154 0,-53.1665 13.6677,-103.999 40.8328,-152.666 27.1683,-48.6695 65.166,-86.6672 113.999,-113.835 48.8335,-27.1651 99.8335,-40.8328 153,-40.8328 53.0025,0 104.003,13.6677 152.836,40.8328 48.8335,27.1683 86.8312,65.166 113.832,113.835 27.0011,48.6663 40.4985,99.4992 40.4985,152.666 0,53.3337 -13.8317,104.665 -41.3311,154 -27.5025,49.3318 -65.8345,87.3326 -115.002,113.832 -49.1646,26.4997 -99.4992,39.8331 -150.833,39.8331zm118.169 -367l60.0004 -17.9976c-9.83292,-40.6688 -30.5016,-73.3338 -62.1669,-97.4998 -31.8356,-24.3332 -70.3347,-36.4998 -115.501,-36.4998 -57.3324,0 -103.832,18.499 -139.667,55.6642 -35.8343,37.1683 -53.668,88.4995 -53.668,154.334 0,42.9993 8.16782,80.3348 24.5003,112 16.1685,31.8324 39.502,55.6673 69.5022,71.8327 30.1642,16.1685 64.6646,24.166 103.331,24.166 43.3336,0 79.3351,-10.3312 108.001,-31.1639 28.6662,-20.8358 48.1649,-49.1678 58.6664,-84.835l-58.001 -14.9985c-9.83292,24.5003 -24.166,43.3336 -43.3336,56.3327 -19.1644,13.1663 -41.4982,19.6658 -67.3325,19.6658 -37.4994,0 -68.4993,-13.3334 -92.8325,-40.0003 -24.3332,-26.6668 -36.4998,-64.9988 -36.4998,-114.665 0,-49.8332 11.498,-87.4998 34.5004,-113 22.9992,-25.5 52.6651,-38.3352 89.1649,-38.3352 29.3348,0 55.1691,8.49895 77.3357,25.6671 22.1666,17.0011 36.8309,40.1674 43.999,69.3319z"
     id="path852" /></glyph>
   <glyph
   unicode="v"
   horiz-adv-x="500"
   id="glyph858"><path
     d="M207.835 0l-195.835 519 94.1665 0 111 -310.835c11.9994,-33.5007 23.1663,-68.3322 33.3335,-104.501 7.83354,27.3354 18.6662,60.1675 32.8321,98.6667l115.333 316.669 90.3348 0 -196.501 -519 -84.6647 0z"
     id="path856" /></glyph>
   <glyph
   unicode="e"
   horiz-adv-x="556"
   id="glyph862"><path
     d="M419.999 167.999l91.0003 -11.9994c-14.166,-52.8322 -40.6657,-93.9993 -79.3319,-123.167 -38.6663,-29.1645 -88.0012,-43.8319 -148.169,-43.8319 -75.6643,0 -135.665,23.3335 -179.998,70.0004 -44.3333,46.4998 -66.4999,112 -66.4999,196.166 0,86.9983 22.3306,154.665 67.1654,202.666 44.8347,48.1681 103,72.167 174.501,72.167 69.1647,0 125.665,-23.5006 169.5,-70.6659 43.8319,-47.1684 65.8314,-113.501 65.8314,-199.002 0,-5.1656 -0.163987,-12.9991 -0.498269,-23.3335l-386.502 0c3.33335,-56.8342 19.3347,-100.499 48.3352,-130.666 28.8334,-30.1673 64.9988,-45.333 108.165,-45.333 32.1667,0 59.6661,8.49895 82.3342,25.5 22.8321,17.0011 40.8328,44.1662 54.1662,81.4985zm-287.999 141.001l288.999 0c-3.83162,43.6679 -14.9985,76.3329 -33.1664,98.1684 -27.8337,33.8318 -64.1663,50.8329 -108.667,50.8329 -40.3314,0 -74.1663,-13.5006 -101.666,-40.5017 -27.3322,-26.998 -42.5011,-63.1666 -45.5001,-108.5z"
     id="path860" /></glyph>
   <glyph
   unicode="T"
   horiz-adv-x="610"
   id="glyph866"><path
     d="M258.999 0l0 632 -236 0 0 83.9993 567.001 0 0 -83.9993 -236 0 0 -632 -95.0022 0z"
     id="path864" /></glyph>
   <glyph
   unicode="C"
   horiz-adv-x="722"
   id="glyph870"><path
     d="M587.001 251.165l94.999 -23.9989c-19.833,-77.834 -55.5002,-136.999 -107.002,-177.831 -51.4983,-40.836 -114.498,-61.3344 -188.998,-61.3344 -77.0014,0 -139.667,15.6671 -188.002,47.1652 -48.3321,31.3342 -84.999,76.8343 -110.165,136.333 -25.1689,59.6661 -37.8337,123.501 -37.8337,191.833 0,74.5006 14.166,139.499 42.665,195 28.5022,55.5002 69.0008,97.667 121.502,126.5 52.498,28.8334 110.332,43.1665 173.331,43.1665 71.6687,0 131.836,-18.1647 180.503,-54.6645 48.8335,-36.4998 82.8324,-87.6669 102,-153.669l-92.9996 -21.9995c-16.5028,51.9997 -40.6688,90.0006 -72.167,113.668 -31.5013,23.8317 -71.1673,35.6641 -119.001,35.6641 -54.8348,0 -100.833,-13.1663 -137.667,-39.4988 -36.834,-26.3326 -62.8323,-61.8326 -77.6668,-106.166 -14.9985,-44.5004 -22.4978,-90.3348 -22.4978,-137.5 0,-60.8329 8.83323,-113.999 26.4997,-159.332 17.6665,-45.5001 45.1658,-79.3351 82.4982,-101.836 37.3355,-22.4978 77.6668,-33.6647 121.168,-33.6647 52.9994,0 97.667,15.3328 134.334,45.8313 36.6669,30.6688 61.4983,76.0017 74.5006,136.333z"
     id="path868" /></glyph>
   <glyph
   unicode="2"
   horiz-adv-x="556"
   id="glyph874"><path
     d="M502.999 83.9993l0 -83.9993 -473.999 0c-0.668563,21.167 2.83193,41.5014 10.3343,61.1672 12.1666,32.1667 31.6653,63.9991 58.4993,95.1662 26.834,31.167 65.166,67.1654 114.999,108.001 77.4997,63.832 130.168,114.331 157.667,151.666 27.6665,37.3323 41.4982,72.6652 41.4982,105.999 0,34.8347 -12.4977,64.1663 -37.4994,88.1683 -24.9986,23.8317 -57.6667,35.8312 -97.8341,35.8312 -42.4979,0 -76.5,-12.6649 -102,-37.9977 -25.5,-25.1689 -38.332,-60.1675 -38.6663,-105.002l-89.9974 9.00037c6.16529,67.3325 29.4988,118.667 69.8333,154 40.4985,35.3329 94.6647,52.9994 162.833,52.9994 68.6665,0 123.167,-18.9973 163.164,-57.1653 40.1674,-38.168 60.1675,-85.5004 60.1675,-141.833 0,-28.6662 -5.83416,-56.8342 -17.6665,-84.5007 -11.6652,-27.8337 -31.167,-56.9982 -58.3321,-87.6669 -27.3354,-30.4985 -72.5012,-72.6652 -135.501,-125.999 -52.8322,-44.3333 -86.8344,-74.3335 -101.833,-90.1677 -15.0017,-15.8311 -27.3354,-31.6653 -37.1683,-47.6667l351.5 0z"
     id="path872" /></glyph>
   <glyph
   unicode="!"
   horiz-adv-x="277"
   id="glyph878"><path
     d="M113 177.999l-27.0011 379.334 0 158.667 109.001 0 0 -158.667 -24.9986 -379.334 -57.0013 0zm-22.9992 -177.999l0 100.001 101 0 0 -100.001 -101 0z"
     id="path876" /></glyph>
   <glyph
   unicode="∞"
   horiz-adv-x="712"
   id="glyph882"><path
     d="M336.498 396.833c34.1692,42.8322 60.8361,71.1673 80.1676,84.835 26.0014,18.8333 53.5008,28.3319 82.5013,28.3319 34.3332,0 66.3328,-12.3337 96.1659,-37.0012 29.833,-24.8314 44.6676,-64.6646 44.6676,-119.499 0,-38.4991 -5.49988,-68.6665 -16.6668,-90.4988 -10.9998,-21.9995 -28.3351,-39.666 -51.8326,-52.9994 -23.3335,-13.3334 -47.5027,-20.0001 -72.3341,-20.0001 -29.0005,0 -56.4999,9.3315 -82.5013,27.8337 -19.3316,13.9988 -45.9984,42.4979 -80.1676,85.3332 -44.3333,-55.5002 -91.4985,-83.1667 -141.332,-83.1667 -32.8321,0 -61.1672,12.4977 -84.6678,37.3323 -23.6646,24.8314 -35.5001,55.6673 -35.5001,92.6654 0,36.6669 11.8355,67.4996 35.5001,92.5014 23.5006,24.9986 51.8357,37.4994 84.6678,37.4994 49.8332,0 96.9984,-27.6665 141.332,-83.1667zm33.5007 -46.3327c28.5022,-43.999 54.5005,-74.1663 78.0011,-90.3348 14.9985,-10.8326 31.8324,-16.1653 50.3346,-16.1653 24.8314,0 45.6641,9.16751 62.498,27.3322 16.8339,18.335 25.1657,44.0022 25.1657,77.1686 0,34.5004 -8.49895,60.8329 -25.664,79.1648 -17.1682,18.1679 -38.5023,27.3354 -64.0023,27.3354 -15.9982,0 -30.9999,-4.50019 -44.9987,-13.6677 -18.8333,-12.668 -46.0016,-42.9993 -81.3345,-90.8331zm-67.1654 -0.501422c-26.0014,32.3339 -47.0012,52.9994 -62.6683,62.1669 -15.6639,9.16751 -30.6656,13.8348 -44.9987,13.8348 -19.0004,0 -34.6675,-6.66671 -47.3324,-19.833 -12.5009,-13.1663 -18.8333,-31.5013 -18.8333,-54.6676 0,-22.9992 6.49957,-41.1671 19.6658,-54.9988 12.9991,-13.6677 28.8334,-20.5015 47.4995,-20.5015 32.8321,0 68.4993,24.6675 106.667,73.9992z"
     id="path880" /></glyph>
   <glyph
   unicode="₨"
   horiz-adv-x="1163"
   id="glyph886"><path
     d="M1125 152.833c0,-65.6674 -33.1664,-113.167 -99.6663,-142.331 -32.665,-14.3363 -69.0008,-21.5012 -109.499,-21.5012 -128.001,0 -202.001,55.5002 -221.834,166.333l88.0012 13.6677c10.0001,-71.9998 54.8316,-108.001 134,-108.001 30.9999,0 57.1653,5.83416 78.4994,17.4993 27.0011,14.6674 40.4985,36.3326 40.4985,65.002 0,19.833 -8.66609,35.3329 -25.8311,46.8309 -11.8355,7.83354 -41.8356,17.6665 -90.0006,29.6691 -53.5008,13.3334 -88.3323,23.3335 -104.668,29.833 -41.6654,15.8311 -70.3316,36.4998 -85.9987,61.8326 -12.9991,21.167 -19.5019,44.1662 -19.5019,69.1647 0,46.8341 19.669,84.5007 59.0007,113.167 33.1664,24.002 77.0014,36.0015 131.669,36.0015 85.1661,0 143.498,-21.6684 175.167,-64.8348 14.4971,-19.833 24.6643,-46.6638 30.1642,-80.4988l-85.9987 -11.6652c-8.16782,56.6639 -45.8344,84.999 -113,84.999 -74.6678,0 -112,-22.3338 -112,-66.8342 0,-24.3332 14.8314,-42.3339 44.5004,-53.9991 8.49895,-3.33335 34.3332,-10.6686 77.6668,-22.5009 59.3318,-15.8342 93.3308,-25.5 102.164,-28.6662 40.9999,-14.9985 69.5022,-34.3332 85.6675,-58.001 14.002,-20.1641 20.9998,-45.1658 20.9998,-75.166zm-416.001 -152.833l-118.831 0 -94.6679 149.001c-21.167,33.1664 -38.6663,59.3318 -52.6651,78.1651 -25.336,34.8347 -46.3358,57.6667 -63.3337,68.3322 -14.5002,9.50179 -29.0005,15.8342 -43.3336,19.0004 -9.66894,2.33366 -27.1683,3.5005 -52.5011,3.5005l-109.666 0 0 -317.999 -94.999 0 0 715.999 316.666 0c55.5002,0 97.667,-4.1659 126.166,-12.6649 43.1665,-12.668 76.0017,-37.6666 98.4995,-74.6678 19.8361,-32.6681 29.6691,-68.6665 29.6691,-108.001 0,-111.332 -67.0014,-176.333 -201.168,-194.833 25.3329,-12.3337 44.3333,-24.3332 57.0013,-35.6672 28.3319,-25.9983 54.5005,-57.8339 78.6665,-95.3333l124.498 -194.833zm-156.999 520.666c0,77.4997 -50.8329,116.333 -152.499,116.333l-225.501 0 0 -236.999 202.666 0c80.0005,0 132.167,18.8333 156.333,56.667 12.668,19.833 19.0004,41.1671 19.0004,63.9991z"
     id="path884" /></glyph>
   <glyph
   unicode="†"
   horiz-adv-x="556"
   id="glyph890"><path
     d="M231.001 -169.001l0 592 -195 0 0 78.0011 195 0 0 198.002 87.998 0 0 -198.002 195.999 0 0 -78.0011 -195.999 0 0 -592 -87.998 0z"
     id="path888" /></glyph>
   <glyph
   unicode="‏"
   horiz-adv-x="0"
   id="glyph894"><path
     d="M17.0011 -134l-36.0015 0 0 701.001 -131.001 0 67.0014 -63.0026 -23.9989 -23.9989 -106.002 104.501 106.002 105.501 23.9989 -24.002 -67.0014 -62.9995 167.002 0 0 -736.999z"
     id="path892" /></glyph>
   <glyph
   unicode="ӷ"
   horiz-adv-x="364"
   id="glyph898"><path
     d="M365.001 446.001l-211.001 0 0 -374.001 57.0013 0 0 -218.999 -71.9998 0 0 146.999 -73.0027 0 0 519 299.002 0 0 -72.9995z"
     id="path896" /></glyph>
   <glyph
   unicode="Ӧ"
   horiz-adv-x="777"
   id="glyph902"><path
     d="M48.0009 348.501c0,118.667 31.9996,211.666 95.8316,278.832 63.8352,67.1685 146.166,100.666 247.166,100.666 66.1688,0 125.668,-15.8311 178.834,-47.3324 52.9994,-31.5013 93.5011,-75.5003 121.335,-132 27.8305,-56.3327 41.8325,-120.332 41.8325,-191.833 0,-72.4981 -14.6674,-137.5 -43.999,-194.665 -29.3348,-57.3356 -70.8361,-100.666 -124.501,-130.001 -53.8351,-29.4988 -111.833,-44.1662 -174,-44.1662 -67.4996,0 -127.667,16.3325 -180.834,48.8335 -52.9994,32.4978 -93.3339,76.8311 -120.666,133.167 -27.3354,56.1656 -40.9999,115.665 -40.9999,178.5zm97.9981 -1.66825c0,-86.1658 23.1663,-154 69.5022,-203.499 46.3327,-49.502 104.498,-74.3335 174.498,-74.3335 71.3344,0 129.834,24.9986 175.999,74.9989 46.0016,50.0003 69.0008,121 69.0008,213 0,58.1681 -9.83292,109.001 -29.4988,152.335 -19.6658,43.3305 -48.4992,76.9983 -86.3329,100.833 -38.0009,23.8317 -80.5019,35.8312 -127.667,35.8312 -67.0014,0 -124.668,-22.9992 -173,-68.9976 -48.3321,-46.0016 -72.5012,-122.669 -72.5012,-230.169zm108.001 413.166l0 100.001 91.9999 0 0 -100.001 -91.9999 0zm182.001 0l0 100.001 91.9999 0 0 -100.001 -91.9999 0z"
     id="path900" /></glyph>
   <glyph
   unicode="ӕ"
   horiz-adv-x="889"
   id="glyph906"><path
     d="M846 159.001c-16.3325,-54.1694 -43.999,-96.169 -82.9996,-125.668 -39.0006,-29.4988 -87.4998,-44.3333 -145.334,-44.3333 -41.3342,0 -77.4997,7.83354 -108.667,23.5006 -30.9999,15.4999 -59.1678,40.0003 -84.1664,73.1667 -33.835,-33.1664 -68.0011,-57.6667 -102.669,-73.1667 -34.6644,-15.6671 -71.9998,-23.5006 -112,-23.5006 -55.9985,0 -99.4992,14.3331 -130.499,42.9993 -31.167,28.6662 -46.667,63.668 -46.667,104.835 0,27.8305 8.00068,53.9991 24.002,78.4994 16.1653,24.5003 38.4991,42.9993 67.1654,55.6673 28.6662,12.6649 74.5006,22.9992 137.333,31.1639 48.6663,6.50272 89.4991,14.5002 122.502,23.8349 0.331128,8.16782 0.498269,14.8345 0.498269,20.0001 0,41.1671 -8.49895,69.8333 -25.5,86.3329 -16.9979,16.4996 -46.8341,24.6675 -89.332,24.6675 -28.1679,0 -51.9997,-3.33335 -71.5016,-10.1672 -19.4987,-6.83385 -33.8318,-16.4996 -42.9993,-29.0005 -9.33465,-12.5009 -17.0011,-32.501 -23.1663,-60.1675l-84.999 10.3343c9.16436,38.0009 22.1666,68.1682 39.3317,90.4988 17.0011,22.3338 41.5014,39.8363 73.5009,52.5011 31.8324,12.668 69.0008,19.0004 111.666,19.0004 54.3334,0 98.1684,-8.16782 131.335,-24.5003 19.1644,-9.33465 35.3329,-24.5003 48.3321,-45.333 20.8327,22.8321 44.5004,40.1674 70.833,51.9997 26.3326,11.8323 58.1681,17.8336 95.6676,17.8336 52.6651,0 96.333,-12.832 130.833,-38.332 34.5004,-25.5 59.6661,-59.1678 75.6675,-101.167 15.8311,-41.8325 23.8317,-83.1667 23.8317,-123.836 0,-6.16529 -0.334282,-15.9982 -0.999691,-29.6659l-375.001 0c0.668563,-46.8341 6.49957,-80.8331 17.3353,-101.833 10.9998,-21.167 28.3319,-38.8334 52.3308,-52.9994 24.002,-14.166 50.1675,-21.167 78.8337,-21.167 33.6678,0 61.9998,9.66578 85.3332,28.8334 23.3335,19.1676 39.3348,46.1655 48.1681,80.8331l91.9999 -11.6652zm-374.001 149.998l286 0c-4.50019,51.3343 -19.3316,88.8337 -43.999,112.501 -24.8346,23.6646 -57.1653,35.5001 -97.0016,35.5001 -41.1639,0 -74.8318,-12.9991 -101.164,-39.0006 -26.3357,-25.8343 -40.8328,-62.334 -43.835,-109.001zm-85.9987 -49.0006c-25.6671,-10.9998 -77.834,-22.8321 -156.835,-35.4969 -35.3329,-5.50303 -60.1644,-13.8348 -74.5006,-24.8346 -19.1644,-15.3328 -28.6662,-35.1658 -28.6662,-59.8332 0,-23.1663 8.66924,-42.5011 25.8343,-58.1681 17.1682,-15.8311 42.1668,-23.6646 74.9989,-23.6646 37.3355,0 69.8333,9.16436 97.4998,27.6665 27.8337,18.499 46.0016,41.6654 54.3334,69.1647 4.83447,16.8339 7.33527,51.9997 7.33527,105.166z"
     id="path904" /></glyph>
   <glyph
   unicode="ӄ"
   horiz-adv-x="550"
   id="glyph910"><path
     d="M511 52.8322c0,-73.9992 -20.9998,-135.665 -62.9995,-185.167 -44.1662,-51.8326 -101.833,-77.6668 -173.167,-77.6668 -55.5002,0 -102.498,12.8351 -141.332,38.5023 -40.1674,26.3326 -63.0026,60.8329 -68.5025,103.498l88.0012 0c14.3331,-46.667 54.9988,-70.0004 122,-70.0004 45.9984,0 82.167,19.1676 108.165,57.6667 23.1663,33.5007 34.8347,75.1692 34.8347,125.002 0,53.6648 -14.3331,95.8316 -42.8322,126.5 -28.6694,30.4985 -68.6665,45.8313 -120.335,45.8313l-101.833 0 0 -216.999 -88.0012 0 0 519 88.0012 0 0 -224c32.6681,0 56.8342,10.6655 72.5012,31.8324 5.33274,6.83385 17.165,32.8353 35.8312,78.0011 12.8351,31.167 22.6681,51.9997 29.1676,62.498 14.3331,23.6678 31.167,38.6694 50.0003,44.8347 14.166,4.50019 36.6669,6.83385 67.8339,6.83385l17.6665 0 0 -72.5012 -24.5003 0.501422c-24.5003,0.334282 -41.6685,-6.0013 -51.8326,-19.0004 -3.33335,-4.33305 -11.1669,-22.6681 -24.002,-55.3331 -13.6645,-34.5004 -29.1645,-60.3347 -46.3327,-77.6668 65.8345,0 120.335,-21.3341 163.665,-63.9991 45.3361,-44.8347 68.0011,-104.334 68.0011,-178.169z"
     id="path908" /></glyph>
   <glyph
   unicode="ҳ"
   horiz-adv-x="500"
   id="glyph914"><path
     d="M491.999 -146.999l-71.9998 0 0 146.999 -36.6669 0 -134 192.001 -134.832 -192.001 -107.5 0 188.667 268.835 -174.668 250.166 109.834 0 82.5013 -116.5c13.9988,-19.833 26.4997,-38.332 37.3323,-55.5002 10.8326,16.1653 23.3335,34.3332 37.6666,54.6676l83.1667 117.333 107.5 0 -174.832 -249.002 137.831 -197.999 50.0003 0 0 -218.999z"
     id="path912" /></glyph>
   <glyph
   unicode="Ң"
   horiz-adv-x="722"
   id="glyph918"><path
     d="M705.999 -199.002l-83.9993 0 0 199.002 -75.9986 0 0 337 -370.002 0 0 -337 -94.999 0 0 715.999 94.999 0 0 -295 370.002 0 0 295 94.999 0 0 -632 64.9988 0 0 -283.001z"
     id="path916" /></glyph>
   <glyph
   unicode="ґ"
   horiz-adv-x="411"
   id="glyph922"><path
     d="M307.999 519l0 196.999 72.9995 0 0 -269.999 -226.999 0 0 -446.001 -88.0012 0 0 519 242.001 0z"
     id="path920" /></glyph>
   <glyph
   unicode="Ҁ"
   horiz-adv-x="722"
   id="glyph926"><path
     d="M670.001 520l-92.9996 -21.9995c-31.8356,99.3321 -95.5004,148.998 -191.168,148.998 -51.3343,0 -95.5004,-11.9994 -132.502,-36.1655 -39.3317,-25.6671 -66.9982,-62.1669 -82.8324,-109.332 -14.9985,-44.5004 -22.4978,-90.502 -22.4978,-137.667 0,-130.499 36.4998,-217.501 109.332,-261.168 37.3323,-22.4978 77.834,-33.6647 121.499,-33.6647 17.8336,0 35.6672,1.99938 53.1665,5.83416l0 -273.836 -94.999 0 0 190.001c-54.3334,4.83447 -100.499,19.6658 -138.667,44.5004 -49.666,32.501 -87.834,80.6659 -114.167,144.334 -22.8321,55.9985 -34.1661,117.166 -34.1661,183.498 0,154.334 54.8316,261.5 164.334,321.667 52.3308,28.6662 110.165,42.9993 173.164,42.9993 70.669,0 130.502,-17.8336 179.503,-53.6648 49.1646,-35.6672 83.4978,-87.1686 103,-154.334z"
     id="path924" /></glyph>
   <glyph
   unicode="ѯ"
   horiz-adv-x="458"
   id="glyph930"><path
     d="M439 -197.999l-73.9992 0c0,23.9989 -10.5015,35.9983 -31.6684,35.9983 -3.66448,0 -24.5003,-8.00068 -62.6652,-23.9989 -38.168,-16.0014 -69.335,-24.002 -93.3339,-24.002 -47.1652,0 -84.8318,10.0001 -113,29.8362 -32.1667,22.8321 -48.3321,56.9982 -48.3321,102.665 0,49.0006 21.8324,85.3332 65.3331,109.165 34.3332,18.8333 77.998,28.3351 130.997,28.3351 32.0027,0 59.5021,6.66671 82.167,20.0001 27.0011,15.9982 40.5017,39.1677 40.5017,69.499 0,17.4993 -5.49988,34.3332 -16.4996,50.3346 -11.1669,15.9982 -25.0017,26.1654 -41.5014,30.8327 -12.9991,3.5005 -38.332,5.33274 -75.9986,5.33274 -3.00223,0 -9.66894,-0.167141 -20.0001,-0.498269l0 68.4993c34.1661,0.331128 54.3334,0.999691 60.8329,1.99938 47.4995,7.00099 71.1673,31.8324 71.1673,74.3335 0,24.8346 -7.83354,43.999 -23.3335,57.4996 -15.4999,13.5006 -36.0015,20.1673 -61.1672,20.1673 -49.1678,0 -83.6681,-29.0005 -103.501,-87.0015l-83.9993 13.6677c19.833,73.8321 61.1672,119.499 123.832,136.999l-78.8337 172.335 71.0001 0 72.5012 -164 56.4999 112.665c19.3347,38.168 44.9987,57.3356 77.3326,57.3356 28.6662,0 50.0003,-15.0017 63.668,-45.0019l-40.9999 -21.9995c-4.66733,10.0001 -9.66578,15.0017 -15.3328,15.0017 -8.16782,0 -17.1682,-9.83608 -26.6668,-29.3348l-48.0009 -98.0012c20.9998,-6.49957 40.0003,-16.3325 56.667,-29.6659 35.5001,-28.4991 53.3337,-66.4999 53.3337,-114.167 0,-41.9996 -20.5015,-75.5003 -61.3344,-100.499 52.1668,-28.0008 78.3323,-71.5016 78.3323,-130.502 0,-53.6648 -22.1666,-94.4976 -66.3328,-122.164 -36.998,-23.1663 -83.9993,-34.6675 -141.001,-34.6675 -27.4994,0 -51.164,-4.1659 -70.6659,-12.668 -25.9983,-11.8323 -39.0006,-29.6659 -39.0006,-53.8319 0,-39.666 23.6678,-59.499 71.1673,-59.499 17.8336,0 45.333,9.16436 82.167,27.4994 36.834,18.3319 63.1666,27.4994 78.6665,27.4994 31.3342,0 56.3327,-11.6683 75.166,-35.1658 17.1682,-21.6684 25.8343,-48.6663 25.8343,-80.8331z"
     id="path928" /></glyph>
   <glyph
   unicode="ў"
   horiz-adv-x="500"
   id="glyph934"><path
     d="M61.9998 -199.5l-10.0001 81.3345c19.3347,-5.16875 36.0015,-7.83354 50.3346,-7.83354 19.6658,0 35.3329,3.33335 46.9981,9.83292 11.8355,6.49957 21.5012,15.6671 29.0005,27.3322 5.49988,8.83323 14.5002,30.6656 26.834,65.6674 1.6651,4.83447 4.1659,11.9994 7.83354,21.5012l-196.999 520.666 93.9993 0 108.332 -299.668c14.166,-37.8337 26.6668,-77.834 37.8337,-119.834 10.1672,39.502 22.1666,78.4994 36.1655,116.835l110.666 302.667 87.834 0 -196.166 -528.001c-21.167,-56.8342 -37.6666,-95.8316 -49.4989,-117.333 -15.6671,-28.8334 -33.6678,-50.0003 -53.8351,-63.5009 -20.3313,-13.5006 -44.4973,-20.1673 -72.4981,-20.1673 -17.0011,0 -36.0015,3.5005 -56.8342,10.5015zm277 910.501l60.0004 0c-4.83447,-41.1671 -19.833,-72.8355 -44.8316,-94.835 -25.0017,-22.1666 -58.1681,-33.1664 -99.6695,-33.1664 -41.6654,0 -74.9989,10.9998 -99.8335,32.8353 -24.8314,21.9995 -39.8331,53.6648 -44.6644,95.1662l60.0004 0c4.50019,-22.5009 13.6645,-39.3348 27.1651,-50.3346 13.5006,-11.1669 31.8324,-16.6668 54.6676,-16.6668 26.4997,0 46.4998,5.33274 60.0004,16.1685 13.5006,10.6655 22.6649,27.6665 27.1651,50.8329z"
     id="path932" /></glyph>
   <glyph
   unicode="э"
   horiz-adv-x="510"
   id="glyph938"><path
     d="M199.002 302.001l0 -71.9998 182.997 0c-5.49988,-56.3359 -20.0001,-98.5027 -43.6647,-126.667 -23.5006,-28.1679 -56.3327,-42.3339 -98.1684,-42.3339 -74.1663,0 -117.831,42.9993 -131.164,129.001l-86.0018 -12.0026c9.16751,-56.6639 32.8353,-102.331 71.0001,-136.999 38.168,-34.6675 88.1683,-51.9997 149.834,-51.9997 73.5009,-4.1659 130.335,19.1676 170.666,70.0004 40.3345,50.8329 59.499,117.667 57.4996,200.5 0,84.1664 -20.9998,150.332 -62.8323,198.333 -41.9996,48.1681 -99.1681,72.167 -171.499,72.167 -57.8339,0 -104.668,-15.3328 -140.335,-45.8344 -35.8312,-30.6656 -57.4996,-70.0004 -65.3331,-118.165l84.999 -14.002c14.3363,70.0004 55.5002,105.002 123.501,105.002 39.0006,0 71.0001,-14.3331 95.8347,-42.9993 24.9986,-28.6694 40.1642,-66.0017 45.6641,-112l-182.997 0z"
     id="path936" /></glyph>
   <glyph
   unicode="м"
   horiz-adv-x="687"
   id="glyph942"><path
     d="M69.0008 519l135.334 0 137.166 -415.335 151.833 415.335 125.668 0 0 -519 -88.0012 0 0 417.833 -152.833 -417.833 -78.6665 0 -144.501 437.833 0 -437.833 -85.9987 0 0 519z"
     id="path940" /></glyph>
   <glyph
   unicode="Ы"
   horiz-adv-x="885"
   id="glyph946"><path
     d="M81.9999 715.999l94.999 0 0 -305 170.502 0c111.833,0 185.331,-20.6655 220.667,-62.1669 35.1658,-41.3311 52.8322,-88.3323 52.8322,-140.833 0,-55.5002 -18.8333,-103.999 -56.667,-145.665 -37.6666,-41.5014 -107.667,-62.334 -210.165,-62.334l-272.168 0 0 715.999zm94.999 -634.999l172.669 0c59.3318,0 102.498,10.0001 129.165,30.0002 26.834,20.0001 40.1674,51.9997 40.1674,95.9987 0,29.833 -8.16782,55.0019 -24.3332,75.166 -16.1685,20.1673 -37.1683,33.0024 -62.8355,38.5023 -25.5,5.49988 -68.3322,8.33181 -128.333,8.33181l-126.5 0 0 -247.999zm530 634.999l95.0022 0 0 -715.999 -95.0022 0 0 715.999z"
     id="path944" /></glyph>
   <glyph
   unicode="К"
   horiz-adv-x="582"
   id="glyph950"><path
     d="M79.0008 715.999l94.999 0 0 -314.001c43.1665,0 73.6681,8.5021 91.1674,25.336 17.6665,16.8308 40.0003,57.1653 67.3325,121.164 19.833,47.1684 36.1655,80.3348 49.1678,99.6663 12.832,19.5019 31.167,35.8343 54.9988,49.0006 23.6678,13.1663 50.0003,19.833 78.6665,19.833 36.4998,0 55.6673,-0.331128 57.6667,-0.999691l0 -81.9999c-3.33335,0 -9.66578,0.167141 -19.0004,0.501422 -10.4983,0.331128 -16.8339,0.498269 -19.1644,0.498269 -30.1673,0 -52.6683,-7.33212 -67.3357,-21.9995 -14.9985,-14.6674 -31.9996,-45.9984 -51.3311,-93.8322 -24.002,-60.6689 -44.3333,-99.0009 -61.0001,-114.835 -16.4996,-15.6671 -36.4998,-28.3319 -59.5021,-37.8337 46.1687,-12.6649 91.8328,-55.5002 136.835,-128.165l147.5 -238.333 -117.667 0 -120.168 194c-32.8321,53.8319 -60.3315,90.8331 -82.331,110.833 -22.1666,20.1673 -50.6689,30.1673 -85.8347,30.1673l0 -335.001 -94.999 0 0 715.999z"
     id="path948" /></glyph>
   <glyph
   unicode="Љ"
   horiz-adv-x="1057"
   id="glyph954"><path
     d="M574.999 715.999l0 -305 171.001 0c79.168,0 136.5,-9.00037 172.335,-27.1651 35.8312,-18.1679 61.8326,-43.3336 77.6668,-75.5003 15.9982,-32.3339 23.9989,-65.5003 23.9989,-99.3352 0,-44.8316 -11.5012,-84.4975 -34.5004,-119.165 -22.9992,-34.8347 -50.8329,-58.4993 -83.501,-71.0001 -32.8321,-12.5009 -79.9974,-18.8333 -142,-18.8333l-279.999 0 0 632 -257.999 0 0 -368.832c0,-75.002 -3.5005,-129.834 -10.5015,-164.668 -6.99784,-34.9986 -21.8324,-61.9998 -44.3333,-81.4985 -22.4978,-19.3347 -51.1671,-29.0005 -85.6675,-29.0005 -20.9998,0 -46.1655,4.33305 -75.4972,12.9991l16.9979 83.9993c15.4999,-7.99753 28.8334,-11.9994 39.8331,-11.9994 21.3341,0 37.4994,8.00068 48.1681,24.166 10.6655,16.1685 15.9982,54.1662 15.9982,114.167l0 504.667 448 0zm0 -634.999l189.336 0c34.4972,0 61.6655,3.33335 81.4985,10.0001 19.833,6.66671 36.834,19.6658 51,39.0006 14.166,19.4987 21.167,44.6644 21.167,75.9986 0,29.6659 -7.49926,54.3334 -22.6681,74.5006 -15.1657,20.0001 -35.5001,32.9993 -61.0001,39.1677 -25.5,6.16529 -69.6662,9.3315 -132.498,9.3315l-126.835 0 0 -247.999z"
     id="path952" /></glyph>
   <glyph
   unicode="û"
   horiz-adv-x="556"
   id="glyph958"><path
     d="M405.001 0l0 77.1654c-40.3345,-58.8335 -95.0022,-88.1652 -164.167,-88.1652 -30.5016,0 -59.0007,5.83416 -85.5004,17.4993 -26.4997,11.8323 -46.1655,26.4997 -59.0007,44.1662 -12.832,17.8336 -21.8324,39.502 -27.0011,65.1691 -3.49734,17.3322 -5.33274,44.6644 -5.33274,81.9999l0 321.166 88.0012 0 0 -287.167c0,-45.8344 1.83224,-76.8343 5.33274,-92.6685 5.49988,-23.1663 17.1682,-41.1639 35.1658,-54.3334 17.8336,-13.1663 39.8331,-19.833 66.1688,-19.833 26.3326,0 51,6.66671 73.9992,20.1673 22.9992,13.5006 39.3317,31.9996 49.0006,55.1659 9.49864,23.1695 14.3331,57.0013 14.3331,101.167l0 277.501 87.998 0 0 -519 -78.9977 0zm-129.001 665.999l-54.5005 -82.9996 -100.001 0 104.501 137.002 92.9996 0 111.502 -137.002 -100.001 0 -54.5005 82.9996z"
     id="path956" /></glyph>
   <glyph
   unicode="ê"
   horiz-adv-x="556"
   id="glyph962"><path
     d="M419.999 167.999l91.0003 -11.9994c-14.166,-52.8322 -40.6657,-93.9993 -79.3319,-123.167 -38.6663,-29.1645 -88.0012,-43.8319 -148.169,-43.8319 -75.6643,0 -135.665,23.3335 -179.998,70.0004 -44.3333,46.4998 -66.4999,112 -66.4999,196.166 0,86.9983 22.3306,154.665 67.1654,202.666 44.8347,48.1681 103,72.167 174.501,72.167 69.1647,0 125.665,-23.5006 169.5,-70.6659 43.8319,-47.1684 65.8314,-113.501 65.8314,-199.002 0,-5.1656 -0.163987,-12.9991 -0.498269,-23.3335l-386.502 0c3.33335,-56.8342 19.3347,-100.499 48.3352,-130.666 28.8334,-30.1673 64.9988,-45.333 108.165,-45.333 32.1667,0 59.6661,8.49895 82.3342,25.5 22.8321,17.0011 40.8328,44.1662 54.1662,81.4985zm-287.999 141.001l288.999 0c-3.83162,43.6679 -14.9985,76.3329 -33.1664,98.1684 -27.8337,33.8318 -64.1663,50.8329 -108.667,50.8329 -40.3314,0 -74.1663,-13.5006 -101.666,-40.5017 -27.3322,-26.998 -42.5011,-63.1666 -45.5001,-108.5zm144.999 357l-54.5005 -82.9996 -99.9975 0 104.498 137.002 92.9996 0 111.502 -137.002 -100.001 0 -54.5005 82.9996z"
     id="path960" /></glyph>
   <glyph
   unicode="Ù"
   horiz-adv-x="722"
   id="glyph966"><path
     d="M546.002 715.999l94.999 0 0 -413.5c0,-71.9998 -8.16782,-129.165 -24.3332,-171.499 -16.3325,-42.1668 -45.6673,-76.6672 -88.0012,-103.167 -42.5011,-26.4997 -97.9981,-39.8331 -166.999,-39.8331 -66.8342,0 -121.666,11.498 -164.167,34.6675 -42.6682,23.1663 -72.9995,56.4999 -91.1674,100.332 -18.1679,43.835 -27.3322,103.668 -27.3322,179.5l0 413.5 94.999 0 0 -413.333c0,-62.1669 5.83416,-108.165 17.3322,-137.5 11.5012,-29.4988 31.167,-52.334 59.335,-68.165 28.0008,-16.0014 62.334,-24.002 102.833,-24.002 69.335,0 118.834,15.8342 148.333,47.3324 29.5019,31.6684 44.1693,92.3342 44.1693,182.335l0 413.333zm-122 43.999l-71.0001 0 -113 137.002 117.998 0 66.0017 -137.002z"
     id="path964" /></glyph>
   <glyph
   unicode="È"
   horiz-adv-x="666"
   id="glyph970"><path
     d="M79.0008 0l0 715.999 516.998 0 0 -83.9993 -421.999 0 0 -220.001 395.001 0 0 -83.9993 -395.001 0 0 -244 439 0 0 -83.9993 -533.999 0zm336 759.998l-71.0001 0 -113 137.002 117.998 0 66.0017 -137.002z"
     id="path968" /></glyph>
   <glyph
   unicode="·"
   horiz-adv-x="333"
   id="glyph974"><path
     d="M115.999 310.998l0 100.001 100.001 0 0 -100.001 -100.001 0z"
     id="path972" /></glyph>
   <glyph
   unicode="¦"
   horiz-adv-x="259"
   id="glyph978"><path
     d="M169.001 727.999l0 -384.998 -77.0014 0 0 384.998 77.0014 0zm0 -552l0 -386.001 -77.0014 0 0 386.001 77.0014 0z"
     id="path976" /></glyph>
   <glyph
   unicode="s"
   horiz-adv-x="500"
   id="glyph982"><path
     d="M30.9999 154.999l87.0015 14.002c4.83131,-34.8347 18.499,-61.5015 40.8328,-80.1676 22.3338,-18.499 53.6648,-27.8337 93.665,-27.8337 40.5017,0 70.5019,8.16782 90.1677,24.6675 19.4987,16.3325 29.3316,35.6672 29.3316,57.8339 0,19.833 -8.83323,35.5001 -26.3326,46.8309 -12.3337,7.83354 -42.3339,17.6665 -90.0006,29.833 -64.3334,16.1685 -108.831,30.1673 -133.832,42.0028 -24.8314,11.9994 -43.6679,28.3319 -56.4999,49.3318 -12.832,20.8327 -19.3316,43.999 -19.3316,69.3319 0,23.1695 5.33274,44.5004 15.8311,64.1694 10.6686,19.6658 25.0017,35.9983 43.1665,48.9975 13.6677,10.0001 32.3339,18.5022 55.8345,25.5 23.6678,7.00099 48.8335,10.5015 75.8346,10.5015 40.6657,0 76.3329,-5.83416 106.998,-17.6665 30.8327,-11.6683 53.5008,-27.6665 68.1682,-47.6667 14.4971,-20.1673 24.6643,-47.0012 30.1642,-80.6659l-85.9987 -12.0026c-3.83478,27.0011 -15.1657,48.1681 -33.835,63.3337 -18.6662,15.1688 -44.9987,22.6681 -79.1648,22.6681 -40.1674,0 -69.0008,-6.66671 -86.1658,-20.0001 -17.1682,-13.3334 -25.8343,-29.0005 -25.8343,-46.8341 0,-11.334 3.5005,-21.6652 10.6655,-30.8327 7.16813,-9.33465 18.335,-17.1682 33.6678,-23.3335 8.83323,-3.33335 34.5004,-10.8326 77.4997,-22.5009 61.9998,-16.4996 105.333,-30.1642 130.001,-40.6657 24.6643,-10.5015 43.999,-26.0014 57.9978,-46.0016 14.1691,-20.1641 21.167,-45.1658 21.167,-75.166 0,-29.1645 -8.49895,-56.667 -25.6671,-82.4982 -17.165,-25.8343 -41.8325,-45.8344 -73.9992,-60.0004 -32.3339,-14.166 -68.8336,-21.167 -109.499,-21.167 -67.3325,0 -118.834,13.9988 -154.167,41.8325 -35.3329,28.0008 -57.8339,69.335 -67.6668,124.167z"
     id="path980" /></glyph>
   <glyph
   unicode="b"
   horiz-adv-x="556"
   id="glyph986"><path
     d="M146.999 0l-81.9999 0 0 715.999 88.0012 0 0 -255.498c37.1652,46.3327 84.5007,69.499 142.167,69.499 31.8324,0 62.1669,-6.33243 90.666,-19.1676 28.4991,-12.832 51.8326,-30.9999 70.3347,-54.1662 18.3319,-23.3335 32.8321,-51.3343 43.1665,-84.1664 10.4983,-32.6681 15.6639,-67.8339 15.6639,-105.166 0,-88.6666 -21.9995,-157.333 -65.8314,-205.668 -43.999,-48.4992 -96.6673,-72.6652 -158.166,-72.6652 -61.1672,0 -109.168,25.5 -144.003,76.3329l0 -65.3331zm-0.999691 263.332c0,-61.9998 8.5021,-106.831 25.3329,-134.498 27.6697,-45.1658 65.002,-67.8339 112.167,-67.8339 38.5023,0 71.6687,16.6668 99.5024,50.0003 27.9977,33.3335 41.9996,82.9996 41.9996,148.998 0,67.6668 -13.3334,117.5 -40.1674,149.667 -26.834,32.1667 -59.335,48.3352 -97.3327,48.3352 -38.5023,0 -71.6687,-16.6668 -99.5024,-50.0003 -27.9977,-33.3335 -41.9996,-81.5016 -41.9996,-144.668z"
     id="path984" /></glyph>
   <glyph
   unicode="Q"
   horiz-adv-x="777"
   id="glyph990"><path
     d="M618.834 76.8343c44.1662,-30.3345 84.8318,-52.334 122.167,-66.3328l-28.1679 -66.0017c-51.5014,18.499 -102.833,47.6667 -154,87.6669 -52.9994,-29.4988 -111.499,-44.1662 -175.501,-44.1662 -64.6646,0 -123.334,15.6671 -175.999,46.8341 -52.6683,31.1639 -93.1668,75.166 -121.666,131.666 -28.5022,56.667 -42.6682,120.332 -42.6682,191.332 0,70.5019 14.3331,134.668 42.9993,192.666 28.5022,57.8339 69.335,101.836 122.167,132.167 52.8354,30.1673 112,45.333 177.333,45.333 66.0017,0 125.501,-15.6671 178.5,-46.9981 52.9994,-31.5013 93.5011,-75.3332 121.335,-131.833 27.8337,-56.3359 41.6654,-120.001 41.6654,-190.834 0,-59.0007 -9.00037,-111.833 -26.998,-158.834 -17.8336,-47.0012 -45.0019,-87.834 -81.1673,-122.666zm-208.002 121c54.5005,-15.336 99.5024,-38.168 134.835,-68.3353 55.5002,50.6657 83.3339,126.835 83.3339,228.5 0,57.8339 -9.83292,108.332 -29.5019,151.499 -19.6658,43.3336 -48.3321,76.8343 -86.1658,100.669 -37.8337,23.8317 -80.3348,35.8312 -127.333,35.8312 -70.5019,0 -129.001,-24.166 -175.334,-72.331 -46.4998,-48.3352 -69.6662,-120.335 -69.6662,-216.167 0,-92.8357 22.9992,-164.167 68.8336,-214 45.9984,-49.6692 104.665,-74.5006 176.166,-74.5006 33.6647,0 65.5003,6.33243 95.5004,19.0004 -29.6691,19.1644 -60.8329,32.8321 -93.5011,40.9999l22.8321 68.8336z"
     id="path988" /></glyph>
   <glyph
   unicode="@"
   horiz-adv-x="1015"
   id="glyph994"><path
     d="M569.001 80.1676c-21.167,-24.5003 -44.8347,-44.1662 -71.1673,-59.0007 -26.1654,-14.8345 -52.5011,-22.1666 -78.8337,-22.1666 -29.0005,0 -57.1653,8.49895 -84.6678,25.3329 -27.3322,17.0011 -49.4989,42.9993 -66.6639,78.1683 -17.1682,35.1658 -25.6671,73.8321 -25.6671,115.832 0,51.8326 13.3334,103.668 39.8331,155.668 26.4997,51.8326 59.499,90.8331 98.8338,116.999 39.3317,26.0014 77.6668,39.0006 114.665,39.0006 28.3351,0 55.3331,-7.33212 81.1673,-22.1666 25.6671,-14.8345 47.8338,-37.4994 66.3328,-67.6668l17.1682 75.8346 86.9983 0 -70.3316 -328.003c-9.83292,-45.6641 -14.6674,-70.833 -14.6674,-75.6643 0,-8.83323 3.33335,-16.4996 10.0001,-22.8352 6.66671,-6.33243 14.8314,-9.49864 24.166,-9.49864 17.3322,0 40.0003,9.83292 68.0011,29.6659 37.1652,26.0014 66.6671,60.8329 88.3323,104.668 21.6684,43.6647 32.501,88.6666 32.501,135.166 0,54.3334 -14.002,104.999 -41.8356,152 -27.8305,47.1652 -69.499,84.8318 -124.832,113.167 -55.1659,28.1648 -116.333,42.3308 -183.167,42.3308 -76.3329,0 -146.166,-17.8336 -209.166,-53.3337 -63.1666,-35.6641 -112.167,-86.6641 -146.835,-153.164 -34.8315,-66.4999 -52.1668,-137.834 -52.1668,-214 0,-79.6662 17.3353,-148.169 52.0029,-205.668 34.8315,-57.6667 84.999,-100.165 150.666,-127.667 65.6642,-27.4994 138.333,-41.1671 218.166,-41.1671 85.5004,0 156.999,14.3363 214.665,43.1696 57.6667,28.6662 100.833,63.6649 129.499,104.832l88.0012 0c-16.6668,-34.1661 -45.1658,-69.1679 -85.5004,-104.668 -40.3314,-35.5001 -88.3323,-63.6649 -144,-84.3335 -55.6673,-20.6655 -122.833,-30.9999 -201.165,-30.9999 -72.3341,0 -139.001,9.33465 -200.001,27.8337 -61.1672,18.5022 -113.167,46.3358 -156.166,83.501 -42.9993,37.3323 -75.3332,80.1676 -97.1687,128.5 -27.3322,61.5015 -40.9999,127.834 -40.9999,199.002 0,79.1648 16.3356,154.832 48.8335,226.665 39.8331,88.0012 96.333,155.501 169.5,202.335 73.1667,46.8309 161.833,70.1644 266.167,70.1644 80.8331,0 153.501,-16.4996 217.835,-49.4989 64.3334,-32.9993 115.166,-82.167 152.167,-147.5 31.6653,-56.1656 47.4995,-117.333 47.4995,-183.334 0,-94.3336 -33.1664,-177.999 -99.4992,-251.165 -59.335,-65.6674 -124.003,-98.4995 -194.334,-98.4995 -22.5009,0 -40.5017,3.5005 -54.3334,10.3312 -13.8348,6.83385 -24.002,16.6668 -30.5016,29.5019 -4.33305,8.16782 -7.33212,22.3338 -9.3315,42.3339zm-236.999 132c0,-44.6676 10.6655,-79.3351 31.8324,-104.003 21.167,-24.8314 45.333,-37.1652 72.8324,-37.1652 18.1679,0 37.3323,5.49988 57.6667,16.3325 20.1673,10.9998 39.4988,27.1683 57.8339,48.6663 18.499,21.5012 33.5007,48.8335 45.1658,81.8359 11.8355,32.9993 17.6665,66.1657 17.6665,99.4992 0,44.1662 -10.9998,78.6665 -32.9993,103 -21.9995,24.5003 -48.8335,36.6669 -80.3348,36.6669 -20.8327,0 -40.4985,-5.33274 -58.9975,-15.8342 -18.335,-10.6655 -36.1686,-27.6665 -53.5008,-51.1671 -17.1682,-23.3335 -31.167,-51.8326 -41.5014,-85.5004 -10.4983,-33.4975 -15.6639,-64.3334 -15.6639,-92.3311z"
     id="path992" /></glyph>
   <glyph
   unicode="/"
   horiz-adv-x="277"
   id="glyph998"><path
     d="M0 -11.9994l207.999 739.998 70.833 0 -207.999 -739.998 -70.833 0z"
     id="path996" /></glyph>
   <glyph
   unicode="₥"
   horiz-adv-x="833"
   id="glyph1002"><path
     d="M768.999 0l-87.998 0 0 326.666c0,29.5019 -1.50111,50.6689 -4.33305,63.3337 -5.66702,21.8355 -17.3353,38.4991 -35.1689,49.8332 -14.9985,9.50179 -32.665,14.166 -52.8322,14.166 -20.4984,0 -38.8334,-3.66448 -55.1659,-11.1637l-71.5016 -146.333 0 -296.501 -87.998 0 0 116.5 -103.334 -211.499 -84.999 0 188.333 385.499 0 46.3327c0,78.1683 -30.5016,117.166 -91.6688,117.166 -56.9982,0 -94.999,-25.5 -114.167,-76.664 -9.49864,-25.0017 -14.166,-61.1672 -14.166,-108.336l0 -268.999 -88.0012 0 0 519 79.0008 0 0 -73.3338c36.0015,56.1656 88.3355,84.3335 156.835,84.3335 75.3332,0 124,-29.6659 145.665,-89.0009l99.6663 204 85.0021 0 -57.4996 -117.998c11.3309,1.99938 22.6649,2.99907 33.6647,2.99907 107.169,0 160.666,-58.001 160.666,-174.167l0 -355.833z"
     id="path1000" /></glyph>
   <glyph
   unicode="‮"
   horiz-adv-x="0"
   id="glyph1006"><path
     d="M-114.999 514.999l195 0 0 140.001 -195 0 0 35.0018 228.999 0 0 -210.001 -96.9984 0 0 -613.999 -35.0018 0 0 613.999 -96.9984 0 0 34.9986z"
     id="path1004" /></glyph>
   <glyph
   unicode="”"
   horiz-adv-x="333"
   id="glyph1010"><path
     d="M41.9996 621l0 102 93.9993 0 0 -81.0002c0,-43.3336 -4.99845,-74.6678 -15.1657,-93.6682 -14.166,-26.3326 -36.0015,-45.9984 -65.8345,-59.3318l-20.9998 34.6675c17.6665,7.16498 30.6688,18.3319 39.3348,33.8318 8.66609,15.3328 13.5006,36.4998 14.5002,63.5009l-45.8344 0zm151.001 0l0 102 93.9993 0 0 -81.0002c0,-43.3336 -4.99845,-74.6678 -15.1657,-93.6682 -14.166,-26.3326 -36.0015,-45.9984 -65.8345,-59.3318l-20.9998 34.6675c17.6665,7.16498 30.6656,18.3319 39.3348,33.8318 8.66609,15.3328 13.4974,36.4998 14.5002,63.5009l-45.8344 0z"
     id="path1008" /></glyph>
   <glyph
   unicode="‌"
   horiz-adv-x="0"
   id="glyph1014"><path
     d="M18.0007 629.001l0 -763.001 -36.0015 0 0 763.001 36.0015 0z"
     id="path1012" /></glyph>
   <glyph
   unicode="Ӵ"
   horiz-adv-x="666"
   id="glyph1018"><path
     d="M588.001 0l-95.0022 0 0 288.334c-84.999,-31.5013 -159.5,-47.3324 -223.332,-47.3324 -49.8332,0 -93.8353,11.6652 -131.833,34.9986 -38.168,23.1663 -63.668,52.8322 -76.5,88.6666 -12.8351,35.8343 -19.3347,82.6684 -19.3347,140.666l0 210.667 94.999 0 0 -201.834c0,-78.1651 14.1691,-129.667 42.6682,-154.334 28.4991,-24.4972 62.8323,-36.8309 102.833,-36.8309 66.8342,0 137.002,14.8314 210.5,44.5004l0 348.498 95.0022 0 0 -715.999zm-413.002 759.998l0 100.001 91.9999 0 0 -100.001 -91.9999 0zm182.001 0l0 100.001 91.9999 0 0 -100.001 -91.9999 0z"
     id="path1016" /></glyph>
   <glyph
   unicode="ӣ"
   horiz-adv-x="558"
   id="glyph1022"><path
     d="M65.9985 519l88.0012 0 0 -395.833 244.502 395.833 94.4976 0 0 -519 -87.998 0 0 393.333 -244.167 -393.333 -94.835 0 0 519zm61.0001 63.9991l0 71.9998 305 0 0 -71.9998 -305 0z"
     id="path1020" /></glyph>
   <glyph
   unicode="Ӓ"
   horiz-adv-x="666"
   id="glyph1026"><path
     d="M-1.50111 0l274.669 715.999 104.167 0 291.5 -715.999 -107.834 0 -82.8324 216.999 -301.5 0 -77.6668 -216.999 -100.502 0zm206.003 294.001l243.997 0 -74.6646 198.5c-22.5009,60.3315 -39.502,110.165 -51.3343,149.5 -9.83292,-46.667 -22.9992,-92.5014 -39.4988,-137.834l-78.4994 -210.165zm-10.5015 465.998l0 100.001 91.9999 0 0 -100.001 -91.9999 0zm182.001 0l0 100.001 91.9999 0 0 -100.001 -91.9999 0z"
     id="path1024" /></glyph>
   <glyph
   unicode="Ӂ"
   horiz-adv-x="923"
   id="glyph1030"><path
     d="M510 715.999l0 -314.001c46.4998,0 78.3323,8.66924 95.8347,25.8343 17.3322,17.1682 39.3317,57.3324 66.1657,120.833 19.6658,47.1684 35.8343,80.3348 48.8335,99.6663 12.832,19.5019 31.167,35.6672 54.9988,48.8335 23.8349,13.1663 50.0003,19.833 78.3354,19.833 30.9999,0 50.3314,-0.331128 57.8307,-0.999691l0 -81.9999c-2.99907,0 -9.16436,0.167141 -18.499,0.501422 -10.4983,0.331128 -16.8339,0.498269 -19.0004,0.498269 -30.3313,0 -52.8322,-7.33212 -67.3325,-21.9995 -15.0017,-14.6674 -32.1667,-45.9984 -51.3343,-93.9993 -20.8327,-51.9997 -38.8334,-87.3326 -54.1662,-106.166 -15.1657,-18.8333 -37.3323,-34.3332 -66.3328,-46.8341 47.0012,-12.9991 92.3342,-55.5002 136.333,-127.667l147.333 -238.333 -117.166 0 -120.001 194c-31.8324,51.6654 -58.6664,88.0012 -80.3348,109.168 -21.6652,21.1638 -52.1637,31.8324 -91.4985,31.8324l0 -335.001 -97.0016 0 0 335.001c-31.1639,0 -58.6664,-8.16782 -82.6653,-24.6675 -23.8317,-16.4996 -51.6654,-51.9997 -83.501,-106.5l-5.99815 -9.66578 -120.168 -194.167 -117.667 0 147.5 238.333c45.0019,72.5012 90.666,114.999 137.002,127.667 -25.8343,10.4983 -46.8341,24.5003 -62.9995,41.9996 -16.3356,17.4993 -35.6672,54.5005 -58.1681,110.833 -20.5015,51.3343 -38.168,83.501 -52.8322,96.5001 -14.6674,13.1663 -36.3358,19.6658 -65.3331,19.6658l-38.168 -0.999691 0 81.9999c3.66764,0.668563 21.8324,0.999691 54.8348,0.999691 31.331,0 58.4993,-6.49957 81.4985,-19.3316 22.9992,-12.8351 40.9999,-29.0005 54.1662,-48.3352 12.9991,-19.4987 29.6659,-52.9994 50.1675,-100.833 27.1651,-64.3334 49.3318,-104.665 66.3328,-121 17.1682,-16.3325 49.1678,-24.8314 95.9987,-25.5l0 314.001 97.0016 0zm95.9987 170.001c-10.1641,-83.9993 -58.165,-126.002 -144.167,-126.002 -86.5001,0 -134.665,42.0028 -144.832,126.002l60.0004 0c9.16751,-43.3336 36.4998,-65.002 81.8327,-65.002 49.3349,0 78.3323,21.6684 87.1686,65.002l59.9972 0z"
     id="path1028" /></glyph>
   <glyph
   unicode="Ұ"
   horiz-adv-x="556"
   id="glyph1034"><path
     d="M552.999 715.999l-197.333 -348 166.333 0 0 -71.9998 -201.001 0 0 -296 -87.998 0 0 296 -202.001 0 0 71.9998 165.999 0 -197.999 348 97.4998 0 141.499 -251.5c15.6671,-27.4994 28.0008,-52.6651 37.0012,-74.9989 8.16782,18.499 21.5012,44.9987 40.0003,79.4991l133.665 246.999 104.334 0z"
     id="path1032" /></glyph>
   <glyph
   unicode="ҟ"
   horiz-adv-x="437"
   id="glyph1038"><path
     d="M446.001 0l-96.6673 0 -95.3333 160.834c-15.3328,26.3326 -28.4991,44.8316 -39.8331,55.1659 -17.1682,16.0014 -37.4994,24.002 -61.1672,24.002l0 -240.002 -88.0012 0 0 594.999 -64.9988 0 -0.501422 58.001 65.5003 0 0 62.9995 88.0012 0 0 -62.9995 167.999 0 0 -58.001 -167.999 0 0 -299.999c32.9993,0 57.4996,10.4983 73.3338,31.6653 5.33274,6.83385 17.165,33.0024 35.8343,78.1683 12.832,31.167 22.4978,51.9997 28.9973,62.498 14.3331,23.6678 30.9999,38.6694 49.8332,44.8347 14.002,4.50019 36.4998,6.83385 67.5028,6.83385l17.4993 0 0 -72.9995 -24.5003 0.498269c-24.5003,0.334282 -41.6685,-5.99815 -51.8326,-19.0004 -3.33335,-4.33305 -11.1669,-22.6649 -24.002,-55.1659 -11.9994,-30.6656 -22.6649,-51.9997 -31.8324,-63.9991 -12.3337,-16.1685 -30.9999,-30.1673 -56.1656,-41.8325 38.1649,-10.1672 75.5003,-45.333 111.833,-105.668l96.5001 -160.834z"
     id="path1036" /></glyph>
   <glyph
   unicode="Ҏ"
   horiz-adv-x="666"
   id="glyph1042"><path
     d="M636.166 316.833l-45.5001 -45.8313 -57.1653 56.9982c-40.6688,-24.6675 -100.001,-36.998 -177.835,-36.998l-183.666 0 0 -291.002 -94.999 0 0 715.999 270.333 0c46.3327,0 82.6653,-2.33366 108.998,-6.83385 69.6693,-11.9994 118.503,-46.3327 146.169,-102.665 14.3331,-29.1676 21.4981,-61.8326 21.4981,-97.667 0,-52.6651 -14.3331,-98.3324 -42.9993,-136.835l55.1659 -55.1659zm-110.165 189.169c0,28.8334 -6.83385,53.8319 -20.5015,74.9989 -14.6674,22.5009 -35.3329,37.4994 -61.9998,44.6676 -15.6671,4.1659 -45.1658,6.33243 -88.3323,6.33243l-183.167 0 0 -256.999 185.167 0c46.4998,0 82.8324,6.83385 109.001,20.3313l-53.5008 53.1665 45.5001 46.1687 53.8319 -53.8351c9.33465,18.335 14.002,40.0003 14.002,65.1691z"
     id="path1040" /></glyph>
   </font>
</defs>
</svg>
