<?xml version="1.0" encoding="UTF-8" standalone="no"?>
<!-- Creator: CorelDRAW X6 -->

<svg
   xml:space="preserve"
   width="297mm"
   height="148.5mm"
   version="1.1"
   style="shape-rendering:geometricPrecision; text-rendering:geometricPrecision; image-rendering:optimizeQuality; fill-rule:evenodd; clip-rule:evenodd"
   viewBox="0 0 29700 14850"
   id="svg3061"
   sodipodi:docname="Flag_of_the_Tajik_Soviet_Socialist_Republic_(1936–1938).svg"
   inkscape:version="1.3 (0e150ed6c4, 2023-07-21)"
   xmlns:inkscape="http://www.inkscape.org/namespaces/inkscape"
   xmlns:sodipodi="http://sodipodi.sourceforge.net/DTD/sodipodi-0.dtd"
   xmlns="http://www.w3.org/2000/svg"
   xmlns:svg="http://www.w3.org/2000/svg"><sodipodi:namedview
   id="namedview3063"
   pagecolor="#ffffff"
   bordercolor="#666666"
   borderopacity="1.0"
   inkscape:pageshadow="2"
   inkscape:pageopacity="0.0"
   inkscape:pagecheckerboard="0"
   inkscape:document-units="mm"
   showgrid="false"
   inkscape:zoom="1.0503157"
   inkscape:cx="560.78377"
   inkscape:cy="281.34398"
   inkscape:window-width="1920"
   inkscape:window-height="1007"
   inkscape:window-x="-9"
   inkscape:window-y="-9"
   inkscape:window-maximized="1"
   inkscape:current-layer="Слой_x0020_1"
   inkscape:showpageshadow="2"
   inkscape:deskcolor="#d1d1d1" />&#10; <defs
   id="defs3050">&#10;  <font
   id="FontID1"
   horiz-adv-x="388"
   font-variant="normal"
   style="fill-rule:nonzero"
   font-style="normal"
   font-weight="700">&#10;	<font-face
   font-family="Marquisette BTN"
   id="font-face2">&#10;	</font-face>&#10;   <missing-glyph
   id="missing-glyph6"><path
     d="M0 0z"
     id="path4" /></missing-glyph>&#10;   <glyph
   unicode="ÿ"
   horiz-adv-x="297"
   id="glyph10"><path
     d="M306.831 567l-118.831 -318.837 0 -248.163 -78.0024 0 0 248.163 -119.002 318.837 77.6709 0 80.0004 -212.002 79.1671 212.002 78.9969 0zm-44.8339 80.0004c0,-11.8356 -4.49772,-22.4976 -13.6634,-32.3352 -9.16568,-9.82869 -20.6698,-14.6669 -34.3332,-14.6669 -13.6634,0 -25.1675,4.83819 -34.3332,14.6669 -9.16568,9.83765 -13.6634,20.4996 -13.6634,32.3352 0,11.6654 4.49772,22.3363 13.6634,31.8335 9.16568,9.49719 20.6698,14.1651 34.3332,14.1651 13.6634,0 25.1675,-4.66796 34.3332,-14.1651 9.16568,-9.49719 13.6634,-20.1681 13.6634,-31.8335zm-127.997 0c0,-11.8356 -4.49772,-22.4976 -13.6634,-32.3352 -9.16568,-9.82869 -20.6698,-14.6669 -34.3332,-14.6669 -13.6724,0 -25.1675,4.83819 -34.3332,14.6669 -9.16568,9.83765 -13.6724,20.4996 -13.6724,32.3352 0,11.6654 4.50668,22.3363 13.6724,31.8335 9.16568,9.49719 20.6609,14.1651 34.3332,14.1651 13.6634,0 25.1675,-4.66796 34.3332,-14.1651 9.16568,-9.49719 13.6634,-20.1681 13.6634,-31.8335z"
     id="path8" /></glyph>&#10;   <glyph
   unicode="î"
   horiz-adv-x="148"
   id="glyph14"><path
     d="M112.999 0l-78.0024 0 0 567 78.0024 0 0 -567zm62.0005 601.002l-72.1697 0 -26.8251 33.8315 -26.834 -33.8315 -74.1677 0 65.8263 89.9993 68.3349 0 65.8352 -89.9993z"
     id="path12" /></glyph>&#10;   <glyph
   unicode="Ý"
   horiz-adv-x="356"
   id="glyph18"><path
     d="M364.997 699.996l-145.997 -393.999 0 -305.998 -81.9984 0 0 305.998 -146.006 393.999 82.0073 0 103.501 -281 105.499 281 82.9929 0zm-67.9945 141.006l-69.3384 -89.9993 -74.6604 0 65.8263 89.9993 78.1726 0z"
     id="path16" /></glyph>&#10;   <glyph
   unicode="Ì"
   horiz-adv-x="162"
   id="glyph22"><path
     d="M122.003 0l-82.0073 0 0 699.996 82.0073 0 0 -699.996zm-9.00441 751.003l-71.8292 0 -73.1731 89.9993 79.1671 0 65.8352 -89.9993z"
     id="path20" /></glyph>&#10;   <glyph
   unicode="»"
   horiz-adv-x="369"
   id="glyph26"><path
     d="M222.996 278.832l-197.998 -180.832 0 91.836 100.168 88.9958 -100.168 90.3308 0 92.8395 197.998 -183.17zm150.002 0l-197.998 -180.832 0 91.836 100.168 88.9958 -100.168 90.3308 0 92.8395 197.998 -183.17z"
     id="path24" /></glyph>&#10;   <glyph
   unicode="ª"
   horiz-adv-x="207"
   id="glyph30"><path
     d="M221.329 351.996l-67.3315 0 -24.8271 88.0013 -49.8334 0 -25.0063 -88.0013 -67.3315 0 117.165 388.999 117.165 -388.999zm-3.33297 -74.9919l-227.493 0 0 59.9935 227.493 0 0 -59.9935zm-100.661 222.996l-13.1706 49.8334 -14.1651 -49.8334 27.3358 0z"
     id="path28" /></glyph>&#10;   <glyph
   unicode=""
   horiz-adv-x="500"
   id="glyph34"><path
     d="M62.0005 0l0 841.003 374.996 0 0 -841.003 -374.996 0zm63.004 63.004l248.997 0 0 714.995 -248.997 0 0 -714.995z"
     id="path32" /></glyph>&#10;   <glyph
   unicode=""
   horiz-adv-x="500"
   id="glyph38"><path
     d="M62.0005 0l0 841.003 374.996 0 0 -841.003 -374.996 0zm63.004 63.004l248.997 0 0 714.995 -248.997 0 0 -714.995z"
     id="path36" /></glyph>&#10;   <glyph
   unicode="w"
   horiz-adv-x="576"
   id="glyph42"><path
     d="M583.835 567l-168.002 -581.004 -127.997 393.838 -127.836 -393.838 -168.002 581.004 78.6654 0 91.3343 -380.004 125.838 399.007 125.999 -399.007 91.827 380.004 78.1726 0z"
     id="path40" /></glyph>&#10;   <glyph
   unicode="f"
   horiz-adv-x="261"
   id="glyph46"><path
     d="M266.002 495.001l-153.003 0 0 -125.004 100.67 0 0 -71.9994 -100.67 0 0 -297.997 -78.0024 0 0 567 231.006 0 0 -71.9994z"
     id="path44" /></glyph>&#10;   <glyph
   unicode="U"
   horiz-adv-x="469"
   id="glyph50"><path
     d="M434.004 184.837c0,-52.3331 -19.5051,-97.5074 -58.336,-135.174 -39.0012,-37.8275 -85.8331,-56.6606 -140.836,-56.6606 -54.8328,0 -101.665,18.8331 -140.997,56.6606 -39.1714,37.6662 -58.8378,82.8406 -58.8378,135.174l0 515.16 82.0073 0 0 -514.828c0,-32.165 11.6654,-59.5008 34.9962,-81.6668 23.1696,-22.3363 50.8368,-33.5 82.8316,-33.5 32.165,0 59.8323,11.1637 82.6703,33.5 22.9993,22.1661 34.4945,49.5018 34.4945,81.6668l0 514.828 82.0073 0 0 -515.16z"
     id="path48" /></glyph>&#10;   <glyph
   unicode="D"
   horiz-adv-x="490"
   id="glyph54"><path
     d="M465.004 351.996c0,-94.9987 -35.5069,-177.499 -106.673,-247.33 -71.1662,-69.8312 -156.327,-104.666 -255.331,-104.666l-63.004 0 0 699.996 63.004 0c99.0037,0 184.165,-34.3332 255.331,-103.161 71.1662,-68.8367 106.673,-150.504 106.673,-244.839zm-82.0073 0c0,73.0029 -25.3288,135.335 -75.8341,187.005 -50.4964,51.8313 -112.165,79.8301 -185.159,83.9963l0 -545.828c72.9939,4.16622 134.663,32.828 185.159,85.9943 50.5053,53.0051 75.8341,116 75.8341,188.833z"
     id="path52" /></glyph>&#10;   <glyph
   unicode="3"
   horiz-adv-x="504"
   id="glyph58"><path
     d="M470.998 222.996c0,-62.8248 -23.1606,-116.833 -69.4997,-162.16 -46.5004,-45.1654 -102.328,-67.8332 -167.831,-67.8332 -46.1689,0 -88.6643,12.6599 -127.334,38.1679 -39.8344,25.9918 -70.8347,62.332 -93.3323,108.994l92.8305 0c32.5055,-46.8319 75.1711,-70.1627 127.836,-70.1627 42.0027,0 78.0024,14.8282 108.169,44.5024 30.167,29.6653 45.1654,65.8263 45.1654,108.16 0,43.6691 -16.0019,79.8391 -47.8354,108.34 -31.8335,28.6618 -71.6679,42.1639 -119.163,40.8289l0 80.3319 26.9953 0c19.6663,0 37.0032,9.00441 52.1718,27.1655 15.1597,17.9999 22.8291,38.6697 22.8291,61.669 0,24.836 -8.66394,45.4969 -26.0008,62.1707 -17.1666,16.4946 -37.8364,24.8271 -62.0005,24.8271 -42.9972,0 -71.8292,-21.3328 -86.1646,-63.9985l-83.9963 0c9.32695,43.3376 30.167,77.8321 62.0005,104.003 30.9913,25.3288 67,37.9977 107.999,37.9977 47.6651,0 88.1626,-16.3334 121.833,-48.8299 33.5,-32.5055 50.3261,-71.3364 50.3261,-116.17 0,-45.9986 -17.6594,-86.0033 -53.1663,-120.166 36.833,-21.5031 65.6739,-50.0036 86.6663,-85.5016 21.0013,-35.498 31.502,-72.9939 31.502,-112.336z"
     id="path56" /></glyph>&#10;   <glyph
   unicode="&quot;"
   horiz-adv-x="319"
   id="glyph62"><path
     d="M259.667 699.996l-5.67143 -132.996 -62.995 0 -6.00294 132.996 74.6694 0zm-125.004 0l-5.66247 -132.996 -63.004 0 -5.99398 132.996 74.6604 0z"
     id="path60" /></glyph>&#10;   <glyph
   unicode="ü"
   horiz-adv-x="395"
   id="glyph66"><path
     d="M364.002 150.835c0,-42.6657 -16.5036,-79.4986 -49.3316,-110.499 -33.0072,-30.839 -71.8382,-46.3391 -116.341,-46.3391 -44.9952,0 -83.9963,15.5001 -116.995,46.3391 -32.837,31.0003 -49.3316,67.8332 -49.3316,110.499l0 416.165 77.9934 0 0 -408.666c0,-26.3323 8.33244,-48.3371 25.1675,-65.9965 16.6649,-17.5071 37.6662,-26.3413 63.1653,-26.3413 25.0063,0 45.8374,8.83418 62.5022,26.3413 16.8351,17.6594 25.1675,39.6642 25.1675,65.9965l0 408.666 78.0024 0 0 -416.165zm-52.0016 496.165c0,-11.8356 -4.49772,-22.4976 -13.6634,-32.3352 -9.17464,-9.82869 -20.6698,-14.6669 -34.3332,-14.6669 -13.6724,0 -25.1675,4.83819 -34.3332,14.6669 -9.17464,9.83765 -13.6724,20.4996 -13.6724,32.3352 0,11.6654 4.49772,22.3363 13.6724,31.8335 9.16568,9.49719 20.6609,14.1651 34.3332,14.1651 13.6634,0 25.1586,-4.66796 34.3332,-14.1651 9.16568,-9.49719 13.6634,-20.1681 13.6634,-31.8335zm-127.997 0c0,-11.8356 -4.50668,-22.4976 -13.6724,-32.3352 -9.16568,-9.82869 -20.6609,-14.6669 -34.3332,-14.6669 -13.6634,0 -25.1675,4.83819 -34.3332,14.6669 -9.16568,9.83765 -13.6634,20.4996 -13.6634,32.3352 0,11.6654 4.49772,22.3363 13.6634,31.8335 9.16568,9.49719 20.6698,14.1651 34.3332,14.1651 13.6724,0 25.1675,-4.66796 34.3332,-14.1651 9.16568,-9.49719 13.6724,-20.1681 13.6724,-31.8335z"
     id="path64" /></glyph>&#10;   <glyph
   unicode="ë"
   horiz-adv-x="290"
   id="glyph70"><path
     d="M280.669 0l-48.8388 0c-62.8337,0 -114.495,16.8351 -154.831,50.3351 -41.3307,34.163 -62.0005,78.8356 -62.0005,133.83 0,70.0014 35.9997,122.505 107.838,157.671 -33.1685,23.5011 -49.8334,53.4978 -49.8334,90.3308 0,39.1625 16.6649,71.8292 49.8334,98.1704 31.6633,24.4956 67.8332,36.6627 108.994,36.6627l48.8388 0 0 -71.9994 -48.6686 0c-19.4961,0 -37.1645,-5.67143 -52.6646,-17.1666 -16.8351,-12.3374 -25.3378,-27.6673 -25.3378,-45.8374 0,-18.1611 8.50267,-33.3297 25.3378,-45.3267 15.1686,-11.1726 32.828,-16.6738 52.4944,-16.6738l29.3338 0 0 -71.9994 -29.3338 0c-38.6607,0 -71.1662,-10.1602 -97.3282,-30.6598 -27.6673,-21.5031 -41.5009,-49.1703 -41.5009,-83.0018 0,-33.8315 13.1617,-61.006 39.5029,-81.5056 26.3323,-20.4996 59.5008,-30.83 99.3262,-30.83l48.8388 0 0 -71.9994zm1.33498 647c0,-11.8356 -4.50668,-22.4976 -13.6724,-32.3352 -9.16568,-9.82869 -20.6609,-14.6669 -34.3332,-14.6669 -13.6634,0 -25.1675,4.83819 -34.3332,14.6669 -9.16568,9.83765 -13.6634,20.4996 -13.6634,32.3352 0,11.6654 4.49772,22.3363 13.6634,31.8335 9.16568,9.49719 20.6698,14.1651 34.3332,14.1651 13.6724,0 25.1675,-4.66796 34.3332,-14.1651 9.16568,-9.49719 13.6724,-20.1681 13.6724,-31.8335zm-128.006 0c0,-11.8356 -4.49772,-22.4976 -13.6634,-32.3352 -9.16568,-9.82869 -20.6698,-14.6669 -34.3332,-14.6669 -13.6634,0 -25.1675,4.83819 -34.3332,14.6669 -9.16568,9.83765 -13.6724,20.4996 -13.6724,32.3352 0,11.6654 4.50668,22.3363 13.6724,31.8335 9.16568,9.49719 20.6698,14.1651 34.3332,14.1651 13.6634,0 25.1675,-4.66796 34.3332,-14.1651 9.16568,-9.49719 13.6634,-20.1681 13.6634,-31.8335z"
     id="path68" /></glyph>&#10;   <glyph
   unicode="Ú"
   horiz-adv-x="469"
   id="glyph74"><path
     d="M434.004 184.837c0,-52.3331 -19.5051,-97.5074 -58.336,-135.174 -39.0012,-37.8275 -85.8331,-56.6606 -140.836,-56.6606 -54.8328,0 -101.665,18.8331 -140.997,56.6606 -39.1714,37.6662 -58.8378,82.8406 -58.8378,135.174l0 515.16 82.0073 0 0 -514.828c0,-32.165 11.6654,-59.5008 34.9962,-81.6668 23.1696,-22.3363 50.8368,-33.5 82.8316,-33.5 32.165,0 59.8323,11.1637 82.6703,33.5 22.9993,22.1661 34.4945,49.5018 34.4945,81.6668l0 514.828 82.0073 0 0 -515.16zm-97.0057 656.166l-69.3295 -89.9993 -74.6694 0 65.8352 89.9993 78.1636 0z"
     id="path72" /></glyph>&#10;   <glyph
   unicode="É"
   horiz-adv-x="370"
   id="glyph78"><path
     d="M350.168 0l-62.0005 0c-75.1711,0 -137.503,20.6698 -187.005,62.0005 -50.8279,42.6657 -76.1656,97.3372 -76.1656,163.997 0,40.3362 12.8391,78.0024 38.4994,112.837 24.836,33.8315 58.0045,60.4953 99.6667,80.0004 -19.3259,13.3319 -34.9962,30.83 -46.9932,52.6646 -12.1672,21.8346 -18.1701,43.3376 -18.1701,64.5002 0,48.4984 17.6684,88.0013 52.9961,118.33 35.3367,30.5075 81.1741,45.6671 137.172,45.6671l51.8313 0 0 -76.9989 -51.8313 0c-32.3352,0 -57.6641,-7.8307 -76.3359,-23.5011 -18.5016,-15.6614 -27.8285,-36.833 -27.8285,-63.4968 0,-25.1675 11.1637,-46.3301 33.3297,-63.4968 20.8311,-15.6704 44.3322,-23.5011 70.8347,-23.5011l31.8335 0 0 -76.9989 -31.8335 0c-45.8374,0 -86.6663,-13.0004 -122.505,-39.0012 -39.1625,-28.3392 -58.6675,-63.9985 -58.6675,-107.005 0,-44.3322 17.8386,-80.6634 53.6681,-108.994 34.172,-26.6728 76.6674,-40.0047 127.504,-40.0047l62.0005 0 0 -76.9989zm11.8356 841.003l-69.3384 -89.9993 -74.6694 0 65.8352 89.9993 78.1726 0z"
     id="path76" /></glyph>&#10;   <glyph
   unicode="¸"
   horiz-adv-x="500"
   id="glyph82"><path
     d="M333.996 -73.3344c0,-18.5016 -8.33244,-33.3297 -24.9973,-44.5024 -15.3299,-10.1602 -33.6613,-15.1597 -55.1643,-15.1597 -24.1641,0 -49.0001,8.66394 -74.8307,26.0008l23.9938 32.828c18.5016,-9.16568 32.837,-13.8336 43.0061,-13.8336 13.3319,0 19.9978,4.49772 19.9978,13.6724 0,8.82522 -6.66595,13.3319 -19.9978,13.3319 -4.33645,0 -14.0039,-1.33498 -29.3338,-4.00495l-28.841 18.1701 44.8339 56.8308 62.0005 0 -27.8285 -32.9982 6.99746 0c17.1666,0 31.6633,-4.66796 42.9972,-14.1651 11.5041,-9.50615 17.1666,-21.5031 17.1666,-36.1699z"
     id="path80" /></glyph>&#10;   <glyph
   unicode="§"
   horiz-adv-x="500"
   id="glyph86"><path
     d="M467.002 300.004c0,-28.0077 -7.8307,-53.9996 -23.3308,-77.8411 -15.5001,-23.9938 -36.1699,-42.3252 -62.0005,-54.9941 30.167,-27.6673 45.3267,-62.332 45.3267,-104.003 0,-48.8299 -18.4926,-88.0013 -55.6661,-117.667 -34.9962,-27.6673 -77.3304,-41.5009 -127.164,-41.5009 -53.8383,0 -96.504,15.1686 -128.167,45.3356 -32.837,30.6687 -49.3316,73.4957 -49.3316,128.83l97.167 0 0 -8.33244c0,-52.4944 29.3338,-78.8356 88.0013,-78.8356 21.8256,0 39.6642,4.83819 53.6591,14.6669 16.3334,11.0024 24.5045,26.834 24.5045,47.3336 0,17.3368 -6.66595,33.0072 -19.9978,47.0021 -13.3319,14.0039 -42.3342,32.9982 -87.0068,57.1713l-89.3273 47.8264c-67.1702,36.1699 -100.67,83.5036 -100.67,142.171 0,54.3311 27.6673,100.67 83.0018,138.829 -27.3358,25.0063 -40.9992,57.1713 -40.9992,96.1725 0,47.4949 16.6649,85.9943 49.8334,115.328 31.8335,27.6673 71.8292,41.5009 120.166,41.5009 52.6646,0 94.6672,-13.6634 125.829,-40.9992 32.6667,-28.832 48.8388,-68.6665 48.8388,-119.835l0 -11.3339 -94.497 0c-1.67545,29.504 -9.50615,51.3386 -23.6713,65.6739 -14.1651,14.3264 -32.837,21.4941 -56.3291,21.4941 -47.5039,0 -71.1751,-20.3294 -71.1751,-60.997 0,-26.6638 23.5011,-52.6646 70.3419,-77.6709l121.161 -64.993c67.6719,-36.6717 101.503,-86.8365 101.503,-150.333zm-102.005 -9.00441c0,16.9964 -5.33097,31.6633 -16.1631,44.1709 -10.6709,12.4987 -33.3297,28.1601 -68.1647,46.6616l-102.337 56.1678c-30.83,-18.1701 -46.3301,-39.8344 -46.3301,-65.002 0,-15.5001 5.16074,-29.6653 15.6614,-42.1639 10.3394,-12.4987 33.1685,-29.1635 68.1737,-50.0036l104.827 -60.6655c29.504,18.3314 44.3322,41.8324 44.3322,70.8347z"
     id="path84" /></glyph>&#10;   <glyph
   unicode=""
   horiz-adv-x="500"
   id="glyph90"><path
     d="M62.0005 0l0 841.003 374.996 0 0 -841.003 -374.996 0zm63.004 63.004l248.997 0 0 714.995 -248.997 0 0 -714.995z"
     id="path88" /></glyph>&#10;   <glyph
   unicode=""
   horiz-adv-x="500"
   id="glyph94"><path
     d="M62.0005 0l0 841.003 374.996 0 0 -841.003 -374.996 0zm63.004 63.004l248.997 0 0 714.995 -248.997 0 0 -714.995z"
     id="path92" /></glyph>&#10;   <glyph
   unicode="t"
   horiz-adv-x="221"
   id="glyph98"><path
     d="M225.997 495.001l-76.9989 0 0 -495.001 -78.0024 0 0 495.001 -75.9954 0 0 71.9994 230.997 0 0 -71.9994z"
     id="path96" /></glyph>&#10;   <glyph
   unicode="c"
   horiz-adv-x="347"
   id="glyph102"><path
     d="M351.996 -6.00294l-34.163 0c-82.3299,0 -152.502,28.5005 -210.667,85.5016 -58.1658,56.8308 -87.168,125.004 -87.168,204.503 0,78.9969 29.0023,147 87.168,203.831 58.1658,56.8308 128.337,85.1701 210.667,85.1701l34.163 0 0 -74.0064c-14.9984,1.33498 -26.3323,2.00695 -34.163,2.00695 -60.1638,0 -111.664,-21.0013 -154.168,-63.004 -42.4954,-42.1639 -63.667,-93.162 -63.667,-153.165 0,-62.1707 22.0048,-113.671 66.0054,-155.001 43.8304,-41.1694 98.3317,-61.8303 162.993,-61.8303 7.49919,0 15.1686,0 22.9993,0l0 -74.0064z"
     id="path100" /></glyph>&#10;   <glyph
   unicode="R"
   horiz-adv-x="340"
   id="glyph106"><path
     d="M357.829 0l-91.827 0 -143.999 248.997 0 -248.997 -82.0073 0 0 699.996 41.8414 0c63.667,0 117.828,-22.3273 162.832,-67.1612 44.8339,-44.6726 67.3315,-97.6687 67.3315,-158.836 0,-39.3327 -10.3304,-76.4972 -31.0003,-111.502 -20.6698,-34.9962 -49.0001,-62.995 -85.1701,-83.8261l161.999 -278.671zm-127.827 474.169c0,33.5 -10.1692,63.4968 -30.3372,89.8291 -20.1681,26.3323 -45.9986,44.0006 -77.6619,53.1663l0 -285.166c31.9948,9.16568 57.8343,26.6728 77.9934,52.8348 20.0068,26.0008 30.0057,55.8363 30.0057,89.3363z"
     id="path104" /></glyph>&#10;   <glyph
   unicode="A"
   horiz-adv-x="388"
   id="glyph110"><path
     d="M395.836 0l-83.0018 0 -49.8334 186.996 -138.166 0 -49.8334 -186.996 -83.0018 0 201.672 725.997 202.165 -725.997zm-152.833 264.004l-49.3316 205.166 -49.8334 -205.166 99.165 0z"
     id="path108" /></glyph>&#10;   <glyph
   unicode="0"
   horiz-adv-x="504"
   id="glyph114"><path
     d="M480.997 349.998c0,-93.834 -14.4966,-171.496 -43.4989,-232.995 -39.1625,-82.6703 -100.831,-124.001 -184.998,-124.001 -84.1666,0 -145.665,41.3307 -184.496,124.001 -28.6708,61.4988 -43.0061,139.161 -43.0061,232.995 0,93.5025 14.3354,170.672 43.0061,232 38.831,82.6703 100.33,124.001 184.496,124.001 84.1666,0 145.836,-41.3307 184.998,-124.001 29.0023,-61.3285 43.4989,-138.498 43.4989,-232zm-81.9984 0.170233c0,74.3289 -8.99545,134.994 -27.1655,182.167 -24.6658,64.5002 -64.5002,96.6652 -119.333,96.6652 -96.9967,0 -145.504,-93.0008 -145.504,-278.832 0,-74.8307 9.00441,-135.837 26.834,-183 24.3343,-64.8317 63.8372,-97.167 118.67,-97.167 54.8328,0 94.6672,32.3352 119.333,97.167 18.1701,47.8354 27.1655,108.832 27.1655,183z"
     id="path112" /></glyph>&#10;   <glyph
   unicode="ù"
   horiz-adv-x="395"
   id="glyph118"><path
     d="M364.002 150.835c0,-42.6657 -16.5036,-79.4986 -49.3316,-110.499 -33.0072,-30.839 -71.8382,-46.3391 -116.341,-46.3391 -44.9952,0 -83.9963,15.5001 -116.995,46.3391 -32.837,31.0003 -49.3316,67.8332 -49.3316,110.499l0 416.165 77.9934 0 0 -408.666c0,-26.3323 8.33244,-48.3371 25.1675,-65.9965 16.6649,-17.5071 37.6662,-26.3413 63.1653,-26.3413 25.0063,0 45.8374,8.83418 62.5022,26.3413 16.8351,17.6594 25.1675,39.6642 25.1675,65.9965l0 408.666 78.0024 0 0 -416.165zm-125.999 450.167l-71.8382 0 -73.1642 89.9993 79.1671 0 65.8352 -89.9993z"
     id="path116" /></glyph>&#10;   <glyph
   unicode="è"
   horiz-adv-x="290"
   id="glyph122"><path
     d="M280.669 0l-48.8388 0c-62.8337,0 -114.495,16.8351 -154.831,50.3351 -41.3307,34.163 -62.0005,78.8356 -62.0005,133.83 0,70.0014 35.9997,122.505 107.838,157.671 -33.1685,23.5011 -49.8334,53.4978 -49.8334,90.3308 0,39.1625 16.6649,71.8292 49.8334,98.1704 31.6633,24.4956 67.8332,36.6627 108.994,36.6627l48.8388 0 0 -71.9994 -48.6686 0c-19.4961,0 -37.1645,-5.67143 -52.6646,-17.1666 -16.8351,-12.3374 -25.3378,-27.6673 -25.3378,-45.8374 0,-18.1611 8.50267,-33.3297 25.3378,-45.3267 15.1686,-11.1726 32.828,-16.6738 52.4944,-16.6738l29.3338 0 0 -71.9994 -29.3338 0c-38.6607,0 -71.1662,-10.1602 -97.3282,-30.6598 -27.6673,-21.5031 -41.5009,-49.1703 -41.5009,-83.0018 0,-33.8315 13.1617,-61.006 39.5029,-81.5056 26.3323,-20.4996 59.5008,-30.83 99.3262,-30.83l48.8388 0 0 -71.9994zm-37.6662 601.002l-71.8382 0 -73.1642 89.9993 79.1671 0 65.8352 -89.9993z"
     id="path120" /></glyph>&#10;   <glyph
   unicode="×"
   horiz-adv-x="833"
   id="glyph126"><path
     d="M702.998 74.1677l-57.1623 -58.1658 -225.003 225.164 -224.169 -225.164 -56.6606 58.1658 223.668 223.668 -223.668 224.994 56.6606 57.1713 224.169 -223.999 225.003 223.999 57.1623 -57.1713 -224.16 -224.994 224.16 -223.668z"
     id="path124" /></glyph>&#10;   <glyph
   unicode="Æ"
   horiz-adv-x="606"
   id="glyph130"><path
     d="M587.67 0l-62.0005 0c-50.0036,0 -95.6707,9.99892 -136.67,29.8355l7.8307 -29.8355 -82.9929 0 -49.8334 186.996 -138.166 0 -49.8334 -186.996 -83.0018 0 201.663 725.997 107.838 -385.165c25.8306,34.172 58.4973,60.5042 98.1615,78.9969 -43.1674,30.0057 -64.6615,68.6665 -64.6615,116.17 0,48.4984 17.6594,88.0013 53.1663,118.33 35.498,30.5075 80.9949,45.6671 136.661,45.6671l52.1718 0 0 -76.9989 -52.1718 0c-32.165,0 -57.4938,-7.8307 -75.9954,-23.5011 -18.5016,-15.6614 -27.8375,-36.833 -27.8375,-63.4968 0,-25.1675 11.1726,-46.3301 33.6702,-63.4968 20.4996,-15.6704 43.8304,-23.5011 70.1627,-23.5011l32.165 0 0 -76.9989 -32.3263 0c-45.5059,0 -86.1735,-13.0004 -122.003,-39.0012 -39.1625,-28.3392 -58.6675,-63.9985 -58.6675,-107.005 0,-44.3322 17.8386,-80.6634 53.3366,-108.994 34.163,-26.6728 76.6674,-40.0047 127.334,-40.0047l62.0005 0 0 -76.9989zm-343.673 264.004l-49.3316 205.166 -49.8334 -205.166 99.165 0z"
     id="path128" /></glyph>&#10;   <glyph
   unicode="µ"
   horiz-adv-x="589"
   id="glyph134"><path
     d="M546.832 527.999l-70.4942 -359.334c-6.17317,-30.3283 -9.33591,-52.0016 -9.33591,-64.6615 0,-11.8356 2.49973,-20.3383 7.32896,-25.0063 4.83819,-4.66796 13.3319,-6.99746 25.6693,-6.99746 6.49572,0 9.83765,0 9.83765,0 1.16475,0 3.66448,0 7.15873,0l-15.9929 -78.6654c-19.0033,-5.5012 -43.3376,-8.33244 -73.3344,-8.33244 -24.6658,0 -43.0061,4.99946 -54.8328,15.1686 -11.8356,9.99892 -17.8386,25.3288 -17.8386,45.6671l0 7.32896c-27.9988,-45.4969 -69.3295,-68.1647 -124.001,-68.1647 -25.8306,0 -48.1669,4.32749 -67.1612,12.8302 -19.0033,8.66394 -35.0052,21.6643 -47.6651,39.3327l-48.3371 -247.169 -111.834 0 145.002 738.003 111.834 0 -61.006 -309.331c-1.32602,-6.16421 -2.99251,-15.1686 -4.82923,-26.834 -0.663011,-5.83271 -1.00348,-13.8336 -1.00348,-23.8326 0,-31.1705 7.49919,-55.003 22.3363,-71.3364 14.9984,-16.4946 37.1645,-24.6658 66.4982,-24.6658 39.6642,0 71.3364,14.4966 94.6672,43.6691 23.5011,29.0023 41.5009,76.3359 54.1698,142.001l53.3276 270.329 109.836 0z"
     id="path132" /></glyph>&#10;   <glyph
   unicode="¤"
   horiz-adv-x="504"
   id="glyph138"><path
     d="M484.67 75.1711l-3.83471 -82.1686 -34.172 0c-82.6614,0 -156.999,24.9973 -222.996,74.8307 -65.8352,49.8334 -109.666,113.832 -130.998,192.004l-79.6689 0 18.5016 77.1602 49.3316 0c-0.663011,7.49919 -0.663011,15.1686 0,22.9993l-67.8332 0 18.5016 76.9989 61.1673 0c20.4996,79.5076 63.667,144.169 129.493,194.002 66.0054,50.0036 140.836,75.0009 224.501,75.0009 6.83618,0 18.1701,-0.663011 34.172,-1.99799l0 -78.0024c-14.6669,1.33498 -26.171,1.99799 -34.172,1.99799 -60.997,0 -115.83,-17.3279 -164.83,-51.9926 -49.0001,-34.6737 -83.3333,-81.0038 -102.829,-139.008l215.828 0 -18.9944 -76.9989 -212.002 0c-0.671971,-7.8307 -0.671971,-15.5001 0,-22.9993l207.997 0 -19.0033 -77.1602 -172.831 0c20.1681,-56.8398 55.1643,-102.175 104.998,-136.007 49.8334,-33.8315 104.836,-50.8279 165,-50.8279 5.83271,0 14.6669,0.331506 26.3413,1.16475l8.33244 1.00348z"
     id="path136" /></glyph>&#10;   <glyph
   unicode=""
   horiz-adv-x="500"
   id="glyph142"><path
     d="M62.0005 0l0 841.003 374.996 0 0 -841.003 -374.996 0zm63.004 63.004l248.997 0 0 714.995 -248.997 0 0 -714.995z"
     id="path140" /></glyph>&#10;   <glyph
   unicode=""
   horiz-adv-x="500"
   id="glyph146"><path
     d="M62.0005 0l0 841.003 374.996 0 0 -841.003 -374.996 0zm63.004 63.004l248.997 0 0 714.995 -248.997 0 0 -714.995z"
     id="path144" /></glyph>&#10;   <glyph
   unicode="q"
   horiz-adv-x="638"
   id="glyph150"><path
     d="M617.998 282.998c0,-50.1649 -13.0004,-97.3282 -38.831,-141.831 -25.8306,-44.3322 -61.1673,-80.1706 -106.001,-107.166l67.8332 -93.171 -74.1677 -28.832 -67.9945 91.836c-28.169,-7.8307 -55.3346,-11.8356 -81.0038,-11.8356 -82.3299,0 -152.502,28.5005 -210.667,85.6718 -58.1658,57.1623 -87.168,125.497 -87.168,205.327 0,79.3373 29.0023,147.672 87.168,204.503 58.0045,57.001 128.337,85.5016 210.667,85.5016 82.6703,0 153.335,-28.5005 212.002,-85.5016 58.8288,-56.8308 88.1626,-125.004 88.1626,-204.503zm-80.0004 0.170233c0,60.1638 -21.4941,111.332 -64.6615,153.165 -43.1674,41.8324 -94.9987,62.6635 -155.503,62.6635 -60.334,0 -111.664,-20.8311 -154.168,-62.6635 -42.4954,-41.8324 -63.667,-92.8305 -63.667,-153.165 0,-60.5042 21.1716,-112.004 63.667,-154.5 42.5044,-42.5044 94.0042,-63.667 154.168,-63.667 8.50267,0 20.1681,1.33498 35.1665,3.83471l-55.1643 74.1677 76.1656 28.832 55.1643 -75.6729c33.5,19.1736 60.0025,45.3356 79.4986,78.3339 19.5051,33.1685 29.3338,69.3384 29.3338,108.671z"
     id="path148" /></glyph>&#10;   <glyph
   unicode="`"
   horiz-adv-x="500"
   id="glyph154"><path
     d="M297.997 601.002l-71.8292 0 -73.1642 89.9993 79.1671 0 65.8263 -89.9993z"
     id="path152" /></glyph>&#10;   <glyph
   unicode="O"
   horiz-adv-x="782"
   id="glyph158"><path
     d="M756.997 349.998c0,-97.6687 -35.6682,-181.665 -107.166,-251.828 -71.4977,-70.1717 -157.662,-105.168 -258.503,-105.168 -101.333,0 -187.659,34.9962 -259.166,105.168 -71.4977,70.1627 -107.166,154.159 -107.166,251.828 0,97.6687 35.6682,181.504 107.166,251.335 71.5066,69.8312 157.832,104.666 259.166,104.666 100.84,0 187.005,-34.835 258.503,-104.666 71.4977,-69.8312 107.166,-153.666 107.166,-251.335zm-83.9963 -0.331506c0,77.3304 -27.497,143.004 -82.5001,197.165 -55.003,54.1698 -121.501,81.1651 -199.172,81.1651 -77.8321,0 -144.33,-26.9953 -199.495,-81.1651 -55.1643,-54.1608 -82.8316,-119.835 -82.8316,-197.165 0,-77.5006 27.6673,-143.497 82.8316,-197.998 55.1643,-54.5013 121.663,-81.6668 199.495,-81.6668 77.3394,0 143.667,27.1655 198.841,81.6668 55.1643,54.5013 82.8316,120.498 82.8316,197.998z"
     id="path156" /></glyph>&#10;   <glyph
   unicode="&gt;"
   horiz-adv-x="833"
   id="glyph162"><path
     d="M704.001 258.664l-575.001 -235.665 0 88.8345 455.999 186.002 -455.999 185.831 0 90.3308 575.001 -237.161 0 -78.1726z"
     id="path160" /></glyph>&#10;   <glyph
   unicode="-"
   horiz-adv-x="352"
   id="glyph166"><path
     d="M313.004 179.999l-273.008 0 0 84.0053 273.008 0 0 -84.0053z"
     id="path164" /></glyph>&#10;   <glyph
   unicode="ö"
   horiz-adv-x="638"
   id="glyph170"><path
     d="M617.998 282.004c0,-79.3373 -29.3338,-147.171 -88.1626,-203.5 -58.6675,-56.338 -129.332,-84.507 -212.002,-84.507 -82.3299,0 -152.663,28.169 -210.667,84.507 -58.1658,56.3291 -87.168,124.162 -87.168,203.5 0,79.1671 29.0023,147.332 87.168,204.826 58.0045,57.5028 128.337,86.1735 210.667,86.1735 82.6703,0 153.335,-28.6708 212.002,-86.1735 58.8288,-57.4938 88.1626,-125.659 88.1626,-204.826zm-80.0004 0.331506c0,60.1638 -21.6643,111.502 -65.002,153.998 -43.1584,42.5044 -94.9987,63.667 -155.163,63.667 -60.334,0 -111.664,-21.1626 -154.168,-63.667 -42.4954,-42.4954 -63.667,-93.834 -63.667,-153.998 0,-60.5042 21.1716,-111.673 63.667,-153.165 42.5044,-41.5009 93.834,-62.1707 154.168,-62.1707 60.5042,0 112.336,20.8311 155.503,62.5022 43.1674,41.6622 64.6615,92.499 64.6615,152.833zm-111.001 364.665c0,-11.8356 -4.49772,-22.4976 -13.6634,-32.3352 -9.16568,-9.82869 -20.6698,-14.6669 -34.3332,-14.6669 -13.6634,0 -25.1675,4.83819 -34.3332,14.6669 -9.16568,9.83765 -13.6634,20.4996 -13.6634,32.3352 0,11.6654 4.49772,22.3363 13.6634,31.8335 9.16568,9.49719 20.6698,14.1651 34.3332,14.1651 13.6634,0 25.1675,-4.66796 34.3332,-14.1651 9.16568,-9.49719 13.6634,-20.1681 13.6634,-31.8335zm-127.997 0c0,-11.8356 -4.49772,-22.4976 -13.6634,-32.3352 -9.16568,-9.82869 -20.6698,-14.6669 -34.3332,-14.6669 -13.6724,0 -25.1675,4.83819 -34.3332,14.6669 -9.17464,9.83765 -13.6724,20.4996 -13.6724,32.3352 0,11.6654 4.49772,22.3363 13.6724,31.8335 9.16568,9.49719 20.6609,14.1651 34.3332,14.1651 13.6634,0 25.1675,-4.66796 34.3332,-14.1651 9.16568,-9.49719 13.6634,-20.1681 13.6634,-31.8335z"
     id="path168" /></glyph>&#10;   <glyph
   unicode="å"
   horiz-adv-x="313"
   id="glyph174"><path
     d="M326.336 0l-79.0058 0 -40.1659 148.998 -101.002 0 -39.9957 -148.998 -79.1671 0 168.996 609.003 170.34 -609.003zm-138.166 220.998l-32.174 127.173 -30.83 -127.173 63.004 0zm51.8313 474.832c0,-19.9978 -8.17116,-37.3257 -24.5045,-52.3331 -16.1631,-14.9984 -35.9997,-22.4976 -59.5008,-22.4976 -23.8326,0 -43.8304,7.33792 -60.3251,22.1661 -16.5036,14.8371 -24.6748,32.3352 -24.6748,52.6646 0,20.4996 8.17116,38.1679 24.6748,53.0051 16.4946,14.8282 36.4925,22.1661 60.3251,22.1661 23.8415,0 43.6691,-7.33792 59.8412,-22.1661 16.1631,-14.8371 24.1641,-32.5055 24.1641,-53.0051zm-60.0025 0c0,16.8351 -8.00093,25.1675 -24.0028,25.1675 -17.3279,0 -25.9918,-8.33244 -25.9918,-25.1675 0,-15.8316 8.66394,-23.8326 25.9918,-23.8326 16.0019,0 24.0028,8.00093 24.0028,23.8326z"
     id="path172" /></glyph>&#10;   <glyph
   unicode="Ô"
   horiz-adv-x="782"
   id="glyph178"><path
     d="M756.997 349.998c0,-97.6687 -35.6682,-181.665 -107.166,-251.828 -71.4977,-70.1717 -157.662,-105.168 -258.503,-105.168 -101.333,0 -187.659,34.9962 -259.166,105.168 -71.4977,70.1627 -107.166,154.159 -107.166,251.828 0,97.6687 35.6682,181.504 107.166,251.335 71.5066,69.8312 157.832,104.666 259.166,104.666 100.84,0 187.005,-34.835 258.503,-104.666 71.4977,-69.8312 107.166,-153.666 107.166,-251.335zm-83.9963 -0.331506c0,77.3304 -27.497,143.004 -82.5001,197.165 -55.003,54.1698 -121.501,81.1651 -199.172,81.1651 -77.8321,0 -144.33,-26.9953 -199.495,-81.1651 -55.1643,-54.1608 -82.8316,-119.835 -82.8316,-197.165 0,-77.5006 27.6673,-143.497 82.8316,-197.998 55.1643,-54.5013 121.663,-81.6668 199.495,-81.6668 77.3394,0 143.667,27.1655 198.841,81.6668 55.1643,54.5013 82.8316,120.498 82.8316,197.998zm-187.999 401.337l-72.1697 0 -26.834 33.8315 -26.834 -33.8315 -74.1677 0 65.8352 89.9993 68.3349 0 65.8352 -89.9993z"
     id="path176" /></glyph>&#10;   <glyph
   unicode="Ã"
   horiz-adv-x="388"
   id="glyph182"><path
     d="M395.836 0l-83.0018 0 -49.8334 186.996 -138.166 0 -49.8334 -186.996 -83.0018 0 201.672 725.997 202.165 -725.997zm-152.833 264.004l-49.3316 205.166 -49.8334 -205.166 99.165 0zm72.9939 548.167c0,-16.3334 -7.15873,-30.5075 -21.4941,-42.8359 -14.1651,-12.1672 -31.502,-18.3314 -51.6701,-18.3314 -24.3343,0 -47.4949,12.1672 -69.6699,36.3312 -7.49919,7.8307 -12.8302,11.6654 -15.9929,11.6654 -9.83765,0 -14.5056,-9.00441 -14.1651,-27.0043 0.161273,-2.83124 0.161273,-9.82869 0,-20.9924l-59.008 0 0 33.8315c0,16.3334 7.16769,30.6687 21.5031,43.3287 14.1651,12.4987 31.502,18.8331 51.6701,18.8331 24.6658,0 47.4949,-12.1672 68.6665,-36.6627 7.16769,-8.17116 12.8302,-12.3374 16.9964,-12.3374 9.83765,0 14.4966,9.33591 14.1651,28.0077 0.170233,3.16274 0.170233,10.1602 0,20.9924l58.999 0 0 -34.826z"
     id="path180" /></glyph>&#10;   <glyph
   unicode="²"
   horiz-adv-x="246"
   id="glyph186"><path
     d="M222.996 619.163c0,-22.4976 -7.99197,-44.4934 -23.8326,-65.9965 -1.99799,-2.49973 -22.9993,-23.6623 -62.995,-63.4968 -24.9973,-25.0063 -39.5029,-50.0036 -43.3376,-74.6694l125.999 0 0 -60.0025 -192.829 0 0 44.0006c0,31.8335 8.99545,61.1673 27.3358,87.8311 10.8322,15.6704 31.8335,38.5084 62.995,68.3349 26.5025,25.4991 39.6642,46.8319 39.6642,63.9985 0,19.1736 -10.3304,28.841 -30.83,28.841 -16.0019,0 -27.6673,-10.0079 -35.1665,-29.8355l-65.9965 0c13.9949,59.8323 47.6651,89.8291 101.002,89.8291 26.9953,0 49.9946,-8.66394 69.1592,-26.1621 19.1736,-17.3368 28.832,-38.3382 28.832,-62.6725z"
     id="path184" /></glyph>&#10;   <glyph
   unicode="¡"
   horiz-adv-x="195"
   id="glyph190"><path
     d="M57.001 570.001l81.9984 0 0 -576.004 -81.9984 0 0 576.004zm-6.99746 81.8281c0,12.0059 4.659,22.9993 13.8336,33.0072 9.32695,10.1602 20.8311,15.1597 34.4945,15.1597 13.1706,0 24.836,-5.16074 34.5035,-15.6614 8.83418,-9.66742 13.1617,-20.4996 13.1617,-32.5055 0,-11.9969 -4.32749,-22.6589 -13.1617,-31.6633 -9.33591,-10.1692 -21.0013,-15.1686 -34.5035,-15.1686 -13.6634,0 -25.3288,4.99946 -34.6647,15.1686 -9.16568,9.00441 -13.6634,19.6663 -13.6634,31.6633z"
     id="path188" /></glyph>&#10;   <glyph
   unicode=""
   horiz-adv-x="500"
   id="glyph194"><path
     d="M62.0005 0l0 841.003 374.996 0 0 -841.003 -374.996 0zm63.004 63.004l248.997 0 0 714.995 -248.997 0 0 -714.995z"
     id="path192" /></glyph>&#10;   <glyph
   unicode=""
   horiz-adv-x="500"
   id="glyph198"><path
     d="M62.0005 0l0 841.003 374.996 0 0 -841.003 -374.996 0zm63.004 63.004l248.997 0 0 714.995 -248.997 0 0 -714.995z"
     id="path196" /></glyph>&#10;   <glyph
   unicode="n"
   horiz-adv-x="351"
   id="glyph202"><path
     d="M317 0l-73.6659 0 -130.335 346.163 0 -346.163 -78.0024 0 0 567 73.8361 0 130.165 -345.832 0 345.832 78.0024 0 0 -567z"
     id="path200" /></glyph>&#10;   <glyph
   unicode="]"
   horiz-adv-x="248"
   id="glyph206"><path
     d="M199.002 -63.004l-178.001 0 0 77.0078 96.0022 0 0 671.998 -96.0022 0 0 76.9989 178.001 0 0 -826.004z"
     id="path204" /></glyph>&#10;   <glyph
   unicode="L"
   horiz-adv-x="248"
   id="glyph210"><path
     d="M248.997 0l-209.001 0 0 699.996 82.0073 0 0 -622.998 126.994 0 0 -76.9989z"
     id="path208" /></glyph>&#10;   <glyph
   unicode=";"
   horiz-adv-x="166"
   id="glyph214"><path
     d="M132.002 317.833c0,-11.8356 -4.49772,-22.4976 -13.6724,-32.165 -9.16568,-9.83765 -20.6609,-14.6669 -34.3332,-14.6669 -13.6634,0 -25.1586,4.82923 -34.3332,14.6669 -9.16568,9.66742 -13.6634,20.3294 -13.6634,32.165 0,11.9969 4.49772,22.8291 13.6634,32.4965 9.17464,9.83765 20.6698,14.6669 34.3332,14.6669 13.6724,0 25.1675,-4.82923 34.3332,-14.6669 9.17464,-9.66742 13.6724,-20.4996 13.6724,-32.4965zm0 -280.669c0,-41.3307 -26.0008,-73.6659 -77.8321,-97.167l-20.1681 31.1705c16.6649,9.49719 27.1655,17.4981 31.6633,24.0028 -19.8276,7.8307 -29.6653,22.1661 -29.6653,42.9972 0,11.6654 4.49772,22.3363 13.6634,32.165 9.17464,9.83765 20.6698,14.6669 34.3332,14.6669 13.6724,0 25.1675,-4.82923 34.3332,-14.4966 9.17464,-9.50615 13.6724,-20.6698 13.6724,-33.3387z"
     id="path212" /></glyph>&#10;   <glyph
   unicode="*"
   horiz-adv-x="416"
   id="glyph218"><path
     d="M410.332 533.168l-140.164 -45.3356 122.164 -145.997 -91.3343 -25.8395 -90.8325 124.001 -81.9984 -124.001 -89.838 25.8395 111.673 145.997 -143.004 45.3356 27.3358 77.6619 135.666 -54.6626 -7.66943 143.829 94.6672 0 -9.99892 -143.829 135.998 54.6626 27.3358 -77.6619z"
     id="path216" /></glyph>&#10;   <glyph
   unicode="ó"
   horiz-adv-x="638"
   id="glyph222"><path
     d="M617.998 282.004c0,-79.3373 -29.3338,-147.171 -88.1626,-203.5 -58.6675,-56.338 -129.332,-84.507 -212.002,-84.507 -82.3299,0 -152.663,28.169 -210.667,84.507 -58.1658,56.3291 -87.168,124.162 -87.168,203.5 0,79.1671 29.0023,147.332 87.168,204.826 58.0045,57.5028 128.337,86.1735 210.667,86.1735 82.6703,0 153.335,-28.6708 212.002,-86.1735 58.8288,-57.4938 88.1626,-125.659 88.1626,-204.826zm-80.0004 0.331506c0,60.1638 -21.6643,111.502 -65.002,153.998 -43.1584,42.5044 -94.9987,63.667 -155.163,63.667 -60.334,0 -111.664,-21.1626 -154.168,-63.667 -42.4954,-42.4954 -63.667,-93.834 -63.667,-153.998 0,-60.5042 21.1716,-111.673 63.667,-153.165 42.5044,-41.5009 93.834,-62.1707 154.168,-62.1707 60.5042,0 112.336,20.8311 155.503,62.5022 43.1674,41.6622 64.6615,92.499 64.6615,152.833zm-121 408.666l-69.3295 -89.9993 -74.6694 0 65.8352 89.9993 78.1636 0z"
     id="path220" /></glyph>&#10;   <glyph
   unicode="â"
   horiz-adv-x="313"
   id="glyph226"><path
     d="M326.336 0l-79.0058 0 -40.1659 148.998 -101.002 0 -39.9957 -148.998 -79.1671 0 168.996 609.003 170.34 -609.003zm-138.166 220.998l-32.174 127.173 -30.83 -127.173 63.004 0zm66.8297 380.004l-72.1697 0 -26.834 33.8315 -26.8251 -33.8315 -74.1677 0 65.8263 89.9993 68.3349 0 65.8352 -89.9993z"
     id="path224" /></glyph>&#10;   <glyph
   unicode="Ñ"
   horiz-adv-x="416"
   id="glyph230"><path
     d="M375.999 0l-80.1616 0 -173.834 470.164 0 -470.164 -82.0073 0 0 699.996 80.1706 0 173.834 -470.998 0 470.998 81.9984 0 0 -699.996zm-55.003 812.171c0,-16.3334 -7.15873,-30.5075 -21.4941,-42.8359 -14.1651,-12.1672 -31.502,-18.3314 -51.6701,-18.3314 -24.3343,0 -47.4949,12.1672 -69.661,36.3312 -7.50815,7.8307 -12.8391,11.6654 -16.0019,11.6654 -9.83765,0 -14.5056,-9.00441 -14.1651,-27.0043 0.161273,-2.83124 0.161273,-9.82869 0,-20.9924l-59.008 0 0 33.8315c0,16.3334 7.16769,30.6687 21.5031,43.3287 14.1651,12.4987 31.502,18.8331 51.6701,18.8331 24.6658,0 47.4949,-12.1672 68.6665,-36.6627 7.16769,-8.17116 12.8302,-12.3374 16.9964,-12.3374 9.83765,0 14.5056,9.33591 14.1651,28.0077 0.170233,3.16274 0.170233,10.1602 0,20.9924l58.999 0 0 -34.826z"
     id="path228" /></glyph>&#10;   <glyph
   unicode="À"
   horiz-adv-x="388"
   id="glyph234"><path
     d="M395.836 0l-83.0018 0 -49.8334 186.996 -138.166 0 -49.8334 -186.996 -83.0018 0 201.672 725.997 202.165 -725.997zm-152.833 264.004l-49.3316 205.166 -49.8334 -205.166 99.165 0zm-4.99946 487l-71.8382 0 -73.1642 89.9993 79.1671 0 65.8352 -89.9993z"
     id="path232" /></glyph>&#10;   <glyph
   unicode="¯"
   horiz-adv-x="500"
   id="glyph238"><path
     d="M357.999 611.001l-215.998 0 0 65.002 215.998 0 0 -65.002z"
     id="path236" /></glyph>&#10;   <glyph
   unicode=""
   horiz-adv-x="500"
   id="glyph242"><path
     d="M62.0005 0l0 841.003 374.996 0 0 -841.003 -374.996 0zm63.004 63.004l248.997 0 0 714.995 -248.997 0 0 -714.995z"
     id="path240" /></glyph>&#10;   <glyph
   unicode=""
   horiz-adv-x="500"
   id="glyph246"><path
     d="M62.0005 0l0 841.003 374.996 0 0 -841.003 -374.996 0zm63.004 63.004l248.997 0 0 714.995 -248.997 0 0 -714.995z"
     id="path244" /></glyph>&#10;   <glyph
   unicode="|"
   horiz-adv-x="500"
   id="glyph250"><path
     d="M294.001 -235.996l-86.9978 0 0 1000 86.9978 0 0 -1000z"
     id="path248" /></glyph>&#10;   <glyph
   unicode="k"
   horiz-adv-x="261"
   id="glyph254"><path
     d="M271.835 567l-110.83 -217.835 107.829 -349.165 -77.8321 0 -78.0024 246.999 0 -246.999 -78.0024 0 0 567 78.0024 0 0 -148.004 79.0058 148.004 79.8301 0z"
     id="path252" /></glyph>&#10;   <glyph
   unicode="Z"
   horiz-adv-x="354"
   id="glyph258"><path
     d="M348.332 699.996l-230.997 -622.998 228.999 0 0 -76.9989 -339.336 0 231.006 622.998 -195.839 0 0 76.9989 306.168 0z"
     id="path256" /></glyph>&#10;   <glyph
   unicode="I"
   horiz-adv-x="162"
   id="glyph262"><path
     d="M122.003 0l-82.0073 0 0 699.996 82.0073 0 0 -699.996z"
     id="path260" /></glyph>&#10;   <glyph
   unicode="8"
   horiz-adv-x="504"
   id="glyph266"><path
     d="M488.003 222.996c0,-62.8248 -22.9993,-116.833 -69.0069,-162.16 -45.9986,-45.1654 -101.494,-67.8332 -166.496,-67.8332 -65.002,0 -120.498,22.6678 -166.496,67.8332 -46.0076,45.3267 -69.0069,99.3352 -69.0069,162.16 0,39.6732 10.1692,77.3394 30.5075,112.506 20.3294,35.3277 48.8299,63.8283 85.1611,85.3313 -33.8315,33.5 -50.6666,73.1642 -50.6666,119.163 0,44.8339 16.6649,83.8351 50.0036,116.672 33.5,32.828 73.8272,49.3316 121,49.3316 47.1634,0 87.6608,-16.5036 121.501,-49.3316 33.6613,-32.837 50.4964,-71.8382 50.4964,-116.672 0,-44.6637 -17.6684,-84.3279 -52.9961,-119.163 36.161,-21.5031 64.6615,-50.0036 85.1611,-85.5016 20.4996,-35.498 30.839,-72.9939 30.839,-112.336zm-147 317c0,25.1675 -8.50267,46.0076 -25.4991,62.8337 -17.1666,16.8351 -38.1679,25.1675 -63.004,25.1675 -24.4956,0 -45.4969,-8.33244 -62.6635,-25.1675 -17.1666,-16.8261 -25.8395,-37.6662 -25.8395,-62.8337 0,-25.1586 8.6729,-45.9986 25.8395,-62.8248 17.1666,-16.8351 38.1679,-25.1675 62.6635,-25.1675 24.836,0 45.8374,8.33244 63.004,25.1675 16.9964,16.8261 25.4991,37.6662 25.4991,62.8248zm64.993 -317.331c0,42.8359 -14.8282,78.6654 -44.6637,107.838 -29.8355,29.0023 -65.9965,43.4989 -108.331,43.4989 -42.3342,0 -78.3339,-14.4966 -107.838,-43.4989 -29.495,-29.1725 -44.1619,-65.002 -44.1619,-107.838 0,-42.3342 14.8282,-78.4951 44.6637,-108.16 29.8355,-29.6742 65.665,-44.5024 107.336,-44.5024 42.0027,0 78.0024,14.8282 107.999,44.5024 29.9968,29.6653 44.9952,65.8263 44.9952,108.16z"
     id="path264" /></glyph>&#10;   <glyph
   unicode="'"
   horiz-adv-x="194"
   id="glyph270"><path
     d="M134.663 699.996l-5.66247 -132.996 -63.004 0 -5.99398 132.996 74.6604 0z"
     id="path268" /></glyph>&#10;   <glyph
   unicode="ð"
   horiz-adv-x="407"
   id="glyph274"><path
     d="M387.996 283.33c0,-76.8287 -27.6583,-142.995 -82.9929,-198.33 -56.338,-56.6695 -124.333,-84.9998 -204.001,-84.9998l-65.002 0 0 248.997 -55.003 0 0 74.0064 55.003 0 0 243.997 65.002 0c79.6689,0 147.663,-28.3303 204.001,-84.9998 55.3346,-55.6661 82.9929,-121.833 82.9929,-198.67zm-77.9934 -0.161273c0,55.3346 -18.8331,103.161 -56.4993,143.336 -37.8364,40.1659 -84.1666,62.8248 -139.501,67.663l0 -171.164 86.1646 0 0 -74.0064 -86.1646 0 0 -177.167c55.3346,4.83819 101.665,27.506 139.501,67.8332 37.6662,40.3362 56.4993,88.1715 56.4993,143.506z"
     id="path272" /></glyph>&#10;   <glyph
   unicode="ß"
   horiz-adv-x="737"
   id="glyph278"><path
     d="M354.998 178.171c0,-53.5068 -19.3348,-97.5074 -57.8343,-132.172 -38.4994,-34.6647 -88.1626,-52.0016 -148.828,-52.0016 -58.8378,0 -111.001,17.9999 -156.336,53.8383l18.5016 92.3288c41.5009,-49.5018 87.168,-74.1677 137.333,-74.1677 37.496,0 67.663,10.1692 90.6623,30.3372 23.0083,20.1681 34.5035,46.3301 34.5035,78.4951 0,42.6746 -20.6698,75.8341 -62.0005,99.5054 -38.831,18.5016 -77.5006,37.3347 -116,56.1678 -41.3307,26.3323 -62.0005,63.667 -62.0005,112.165 0,37.8364 15.5001,69.1682 46.3391,94.1655 28.9933,24.1641 63.4968,36.1699 103.492,36.1699 34.3332,0 66.5072,-8.83418 96.8355,-26.3323l-18.9944 -83.8351c-28.0077,25.4991 -53.1753,38.1679 -75.5026,38.1679 -19.5051,0 -35.8384,-4.50668 -48.8388,-13.6724 -14.8282,-10.8322 -22.3273,-25.4991 -22.3273,-44.4934 0,-22.175 13.9949,-41.3396 42.1639,-57.673 24.1641,-10.6619 48.3371,-21.3328 72.5012,-32.165 38.831,-17.3368 67.5017,-36.5015 86.1646,-57.6641 26.834,-30.3372 40.1659,-69.3384 40.1659,-117.165zm370.005 0c0,-53.5068 -19.3348,-97.5074 -57.8343,-132.172 -38.4994,-34.6647 -88.1715,-52.0016 -148.837,-52.0016 -58.8288,0 -111.001,17.9999 -156.327,53.8383l18.4926 92.3288c41.5009,-49.5018 87.168,-74.1677 137.333,-74.1677 37.5049,0 67.6719,10.1692 90.6713,30.3372 22.9993,20.1681 34.5035,46.3301 34.5035,78.4951 0,42.6746 -20.6698,75.8341 -62.0005,99.5054 -38.8399,18.5016 -77.5006,37.3347 -116,56.1678 -41.3396,26.3323 -62.0005,63.667 -62.0005,112.165 0,37.8364 15.5001,69.1682 46.3301,94.1655 29.0023,24.1641 63.4968,36.1699 103.501,36.1699 34.3332,0 66.4982,-8.83418 96.8355,-26.3323l-19.0033 -83.8351c-27.9988,25.4991 -53.1663,38.1679 -75.5026,38.1679 -19.4961,0 -35.8295,-4.50668 -48.8299,-13.6724 -14.8371,-10.8322 -22.3363,-25.4991 -22.3363,-44.4934 0,-22.175 14.0039,-41.3396 42.1729,-57.673 24.1641,-10.6619 48.3281,-21.3328 72.4922,-32.165 38.8399,-17.3368 67.5017,-36.5015 86.1735,-57.6641 26.834,-30.3372 40.1659,-69.3384 40.1659,-117.165z"
     id="path276" /></glyph>&#10;   <glyph
   unicode="Î"
   horiz-adv-x="162"
   id="glyph282"><path
     d="M122.003 0l-82.0073 0 0 699.996 82.0073 0 0 -699.996zm57.9956 751.003l-72.1697 0 -26.8251 33.8315 -26.834 -33.8315 -74.1677 0 65.8352 89.9993 68.326 0 65.8352 -89.9993z"
     id="path280" /></glyph>&#10;   <glyph
   unicode="½"
   horiz-adv-x="492"
   id="glyph286"><path
     d="M127.997 349.998l-65.9965 0 0 290.005 -40.9992 0 0 59.9935 106.996 0 0 -349.998zm289.001 349.998l-345.169 -699.996 -72.8327 0 345.169 699.996 72.8327 0zm50.9981 -435.831c0,-22.4976 -7.99197,-44.5024 -23.8326,-65.9965 -1.99799,-2.49973 -22.9993,-23.6713 -62.995,-63.5057 -25.0063,-24.9973 -39.5029,-49.9946 -43.3376,-74.6604l125.999 0 0 -60.0025 -192.829 0 0 44.0006c0,31.8335 8.99545,61.1673 27.3358,87.8311 10.8322,15.6704 31.8335,38.4994 62.995,68.3349 26.5025,25.4991 39.6642,46.8319 39.6642,63.9985 0,19.1646 -10.3304,28.832 -30.83,28.832 -16.0019,0 -27.6673,-9.99892 -35.1665,-29.8265l-65.9965 0c13.9949,59.8323 47.6651,89.8291 100.993,89.8291 27.0043,0 50.0036,-8.66394 69.1682,-26.1621 19.1736,-17.3368 28.832,-38.3382 28.832,-62.6725z"
     id="path284" /></glyph>&#10;   <glyph
   unicode="¬"
   horiz-adv-x="833"
   id="glyph290"><path
     d="M710.004 176.003l-82.0073 0 0 163.997 -503.996 0 0 81.0038 586.003 0 0 -245.001z"
     id="path288" /></glyph>&#10;   <glyph
   unicode=""
   horiz-adv-x="500"
   id="glyph294"><path
     d="M62.0005 0l0 841.003 374.996 0 0 -841.003 -374.996 0zm63.004 63.004l248.997 0 0 714.995 -248.997 0 0 -714.995z"
     id="path292" /></glyph>&#10;   <glyph
   unicode=""
   horiz-adv-x="500"
   id="glyph298"><path
     d="M62.0005 0l0 841.003 374.996 0 0 -841.003 -374.996 0zm63.004 63.004l248.997 0 0 714.995 -248.997 0 0 -714.995z"
     id="path296" /></glyph>&#10;   <glyph
   unicode="y"
   horiz-adv-x="297"
   id="glyph302"><path
     d="M306.831 567l-118.831 -318.837 0 -248.163 -78.0024 0 0 248.163 -119.002 318.837 77.6709 0 80.0004 -212.002 79.1671 212.002 78.9969 0z"
     id="path300" /></glyph>&#10;   <glyph
   unicode="h"
   horiz-adv-x="351"
   id="glyph306"><path
     d="M317 0l-78.0024 0 0 297.997 -125.999 0 0 -297.997 -78.0024 0 0 567 78.0024 0 0 -197.004 125.999 0 0 197.004 78.0024 0 0 -567z"
     id="path304" /></glyph>&#10;   <glyph
   unicode="W"
   horiz-adv-x="705"
   id="glyph310"><path
     d="M713.669 699.996l-202.666 -729.993 -158.173 524.164 -160.162 -524.164 -200.668 729.993 83.0018 0 119.665 -482.161 158.164 509.166 156.668 -509.166 122.173 482.161 81.9984 0z"
     id="path308" /></glyph>&#10;   <glyph
   unicode="F"
   horiz-adv-x="308"
   id="glyph314"><path
     d="M313.004 622.998l-191.001 0 0 -173.996 126.994 0 0 -76.9989 -126.994 0 0 -372.003 -82.0073 0 0 699.996 273.008 0 0 -76.9989z"
     id="path312" /></glyph>&#10;   <glyph
   unicode="5"
   horiz-adv-x="504"
   id="glyph318"><path
     d="M475.003 222.996c0,-62.8248 -23.1696,-116.833 -69.4997,-162.16 -46.5004,-45.1654 -102.337,-67.8332 -167.84,-67.8332 -46.1599,0 -88.6643,12.6599 -127.325,38.1679 -39.8344,25.9918 -70.8347,62.332 -93.3412,108.994l92.8395 0c32.828,-46.8319 75.4937,-70.1627 127.827,-70.1627 42.0027,0 78.0024,14.8282 108.169,44.5024 30.167,29.6653 45.1654,65.8263 45.1654,108.16 0,42.1729 -14.9984,77.6709 -44.8339,106.834 -29.9968,29.0023 -66.1667,43.4989 -108.501,43.4989l-174.829 0 67 326.999 271.996 0 0 -76.9989 -206.161 0 -34.6647 -170.994 76.6584 0c65.5037,0 121.34,-22.5065 167.84,-67.6719 46.3301,-44.9952 69.4997,-98.8335 69.4997,-161.336z"
     id="path316" /></glyph>&#10;   <glyph
   unicode="$"
   horiz-adv-x="504"
   id="glyph322"><path
     d="M434.165 578.334l-19.9978 -96.3337c-42.6657,50.6666 -88.3328,75.9954 -137.163,75.9954 -32.837,0 -61.1673,-9.32695 -84.9998,-27.8285 -26.0008,-20.1681 -39.0012,-45.8374 -39.0012,-77.1691 0,-39.6642 20.9924,-70.6644 62.995,-93.162 38.6697,-18.3403 77.3394,-36.3402 116,-54.1698 42.0027,-25.8306 63.004,-62.332 63.004,-109.836 0,-28.9933 -9.66742,-54.8328 -28.832,-77.5006 -19.1736,-22.4976 -43.5079,-38.4994 -73.1731,-47.4949l0 -70.8347 -81.9984 0 0 67c-23.3308,3.83471 -46.3301,12.1672 -68.8277,24.836l18.9944 88.3328c29.3338,-26.171 55.1643,-39.1714 77.6709,-39.1714 18.4926,0 34.163,4.66796 47.1634,14.1651 14.6669,10.6709 21.9958,24.5045 21.9958,41.5009 0,32.837 -22.8291,55.3346 -68.326,67.3404 -49.3406,13.0004 -89.5065,35.3277 -120.507,66.8297 -34.163,34.835 -51.1594,76.1656 -51.1594,124.001 0,40.4974 13.8336,76.3359 41.5009,107.999 26.3323,30.167 60.1638,51.1683 101.494,63.004l0 73.1642 81.9984 0 0 -65.002c50.8368,-3.33297 97.8389,-21.8346 141.168,-55.6661z"
     id="path320" /></glyph>&#10;   <glyph
   unicode="þ"
   horiz-adv-x="300"
   id="glyph326"><path
     d="M290.999 287.998c0,-47.8354 -17.1666,-89.3273 -51.4998,-124.664 -34.3332,-35.3367 -76.4972,-54.6626 -126.501,-58.336l0 -104.998 -78.0024 0 0 567 78.0024 0 0 -94.9987c50.0036,-3.1717 92.1675,-22.838 126.501,-58.4973 34.3332,-35.8384 51.4998,-77.6709 51.4998,-125.506zm-78.0024 0c0,29.0023 -9.49719,53.9996 -28.5005,74.8396 -18.9944,20.8311 -42.8269,32.828 -71.4977,36.161l0 -220.998c28.6708,3.33297 52.5033,15.1686 71.4977,35.6682 19.0033,20.4996 28.5005,45.3356 28.5005,74.3289z"
     id="path324" /></glyph>&#10;   <glyph
   unicode="í"
   horiz-adv-x="148"
   id="glyph330"><path
     d="M112.999 0l-78.0024 0 0 567 78.0024 0 0 -567zm63.9985 691.001l-69.3295 -89.9993 -74.6694 0 65.8352 89.9993 78.1636 0z"
     id="path328" /></glyph>&#10;   <glyph
   unicode="Ü"
   horiz-adv-x="469"
   id="glyph334"><path
     d="M434.004 184.837c0,-52.3331 -19.5051,-97.5074 -58.336,-135.174 -39.0012,-37.8275 -85.8331,-56.6606 -140.836,-56.6606 -54.8328,0 -101.665,18.8331 -140.997,56.6606 -39.1714,37.6662 -58.8378,82.8406 -58.8378,135.174l0 515.16 82.0073 0 0 -514.828c0,-32.165 11.6654,-59.5008 34.9962,-81.6668 23.1696,-22.3363 50.8368,-33.5 82.8316,-33.5 32.165,0 59.8323,11.1637 82.6703,33.5 22.9993,22.1661 34.4945,49.5018 34.4945,81.6668l0 514.828 82.0073 0 0 -515.16zm-87.0068 612.165c0,-11.8356 -4.49772,-22.5065 -13.6634,-32.3352 -9.16568,-9.83765 -20.6698,-14.6669 -34.3332,-14.6669 -13.6634,0 -25.1675,4.82923 -34.3332,14.6669 -9.16568,9.82869 -13.6634,20.4996 -13.6634,32.3352 0,11.6654 4.49772,22.3273 13.6634,31.8335 9.16568,9.49719 20.6698,14.1651 34.3332,14.1651 13.6634,0 25.1675,-4.66796 34.3332,-14.1651 9.16568,-9.50615 13.6634,-20.1681 13.6634,-31.8335zm-127.997 0c0,-11.8356 -4.49772,-22.5065 -13.6634,-32.3352 -9.16568,-9.83765 -20.6698,-14.6669 -34.3332,-14.6669 -13.6724,0 -25.1675,4.82923 -34.3332,14.6669 -9.16568,9.82869 -13.6724,20.4996 -13.6724,32.3352 0,11.6654 4.50668,22.3273 13.6724,31.8335 9.16568,9.49719 20.6609,14.1651 34.3332,14.1651 13.6634,0 25.1675,-4.66796 34.3332,-14.1651 9.16568,-9.50615 13.6634,-20.1681 13.6634,-31.8335z"
     id="path332" /></glyph>&#10;   <glyph
   unicode="Ë"
   horiz-adv-x="370"
   id="glyph338"><path
     d="M350.168 0l-62.0005 0c-75.1711,0 -137.503,20.6698 -187.005,62.0005 -50.8279,42.6657 -76.1656,97.3372 -76.1656,163.997 0,40.3362 12.8391,78.0024 38.4994,112.837 24.836,33.8315 58.0045,60.4953 99.6667,80.0004 -19.3259,13.3319 -34.9962,30.83 -46.9932,52.6646 -12.1672,21.8346 -18.1701,43.3376 -18.1701,64.5002 0,48.4984 17.6684,88.0013 52.9961,118.33 35.3367,30.5075 81.1741,45.6671 137.172,45.6671l51.8313 0 0 -76.9989 -51.8313 0c-32.3352,0 -57.6641,-7.8307 -76.3359,-23.5011 -18.5016,-15.6614 -27.8285,-36.833 -27.8285,-63.4968 0,-25.1675 11.1637,-46.3301 33.3297,-63.4968 20.8311,-15.6704 44.3322,-23.5011 70.8347,-23.5011l31.8335 0 0 -76.9989 -31.8335 0c-45.8374,0 -86.6663,-13.0004 -122.505,-39.0012 -39.1625,-28.3392 -58.6675,-63.9985 -58.6675,-107.005 0,-44.3322 17.8386,-80.6634 53.6681,-108.994 34.172,-26.6728 76.6674,-40.0047 127.504,-40.0047l62.0005 0 0 -76.9989zm-13.1706 797.002c0,-11.8356 -4.49772,-22.5065 -13.6634,-32.3352 -9.16568,-9.83765 -20.6698,-14.6669 -34.3332,-14.6669 -13.6634,0 -25.1675,4.82923 -34.3332,14.6669 -9.16568,9.82869 -13.6724,20.4996 -13.6724,32.3352 0,11.6654 4.50668,22.3273 13.6724,31.8335 9.16568,9.49719 20.6698,14.1651 34.3332,14.1651 13.6634,0 25.1675,-4.66796 34.3332,-14.1651 9.16568,-9.50615 13.6634,-20.1681 13.6634,-31.8335zm-127.997 0c0,-11.8356 -4.49772,-22.5065 -13.6634,-32.3352 -9.17464,-9.83765 -20.6698,-14.6669 -34.3332,-14.6669 -13.6724,0 -25.1675,4.82923 -34.3332,14.6669 -9.17464,9.82869 -13.6724,20.4996 -13.6724,32.3352 0,11.6654 4.49772,22.3273 13.6724,31.8335 9.16568,9.49719 20.6609,14.1651 34.3332,14.1651 13.6634,0 25.1586,-4.66796 34.3332,-14.1651 9.16568,-9.50615 13.6634,-20.1681 13.6634,-31.8335z"
     id="path336" /></glyph>&#10;   <glyph
   unicode="º"
   horiz-adv-x="431"
   id="glyph342"><path
     d="M411.004 527.838c0,-49.5018 -19.0033,-91.836 -57.1713,-127.002 -37.9977,-35.1665 -83.9963,-52.8348 -137.996,-52.8348 -53.8383,0 -99.8369,17.6684 -138.166,52.9961 -38.5084,35.3367 -57.673,77.6709 -57.673,126.841 0,49.4929 19.1646,91.827 57.673,127.164 38.3292,35.3277 84.3279,52.9961 138.166,52.9961 53.9996,0 99.9982,-17.6684 137.996,-52.9961 38.1679,-35.3367 57.1713,-77.6709 57.1713,-127.164zm0 -250.833l-391.006 0 0 59.9935 391.006 0 0 -59.9935zm-67 250.833c0,33.1595 -12.5076,61.4988 -37.5049,84.9998 -24.9973,23.4921 -55.3346,35.1665 -90.6623,35.1665 -35.5069,0 -65.8352,-11.6744 -91.0028,-35.1665 -25.1675,-23.5011 -37.8364,-51.8403 -37.8364,-84.9998 0,-33.0072 12.6689,-61.006 37.8364,-84.1666 25.1675,-23.1696 55.4958,-34.6737 91.0028,-34.6737 35.3277,0 65.665,11.5041 90.6623,34.5035 24.9973,22.9993 37.5049,50.9981 37.5049,84.3368z"
     id="path340" /></glyph>&#10;   <glyph
   unicode="©"
   horiz-adv-x="833"
   id="glyph346"><path
     d="M777.999 356.996c0,-49.4929 -8.99545,-96.1635 -26.834,-140.164 -36.833,-89.9993 -102.498,-154.5 -196.834,-194.002 -44.9952,-18.4926 -91.164,-27.8285 -138.327,-27.8285 -97.6687,0 -182.337,35.6682 -254.005,106.996 -34.4945,34.172 -60.997,73.5046 -79.3284,117.667 -18.5016,44.3411 -27.6673,90.1695 -27.6673,137.333 0,71.3364 20.6609,138.005 62.0005,200.337 41.3307,62.1707 94.9987,106.834 160.834,133.83 43.4989,17.8386 89.6588,26.834 138.166,26.834 100.993,0 186.494,-35.3277 256.666,-105.831 70.1627,-70.4942 105.329,-155.503 105.329,-255.17zm-52.9961 0c0,85.842 -29.6653,158.675 -88.8345,218.175 -60.1638,59.8323 -133.337,89.8291 -219.17,89.8291 -86.1646,0 -158.496,-29.6653 -216.661,-88.8345 -29.0023,-29.3338 -51.4998,-62.995 -67.5017,-101.333 -15.8316,-38.1679 -23.8326,-77.5006 -23.8326,-117.837 0,-83.9963 30.3283,-156.327 90.9938,-216.993 60.6745,-60.6655 133.005,-91.0028 217.002,-91.0028 40.0047,0 79.0058,8.00093 117.165,24.1641 38.0067,16.1721 71.9994,38.8399 102.005,68.1647 59.1693,58.1747 88.8345,130.174 88.8345,215.667zm-132.333 -72.8327c-2.33846,-46.5004 -20.8401,-82.9929 -55.6661,-109.334 -32.3352,-24.4956 -72.3399,-36.6627 -120.166,-36.6627 -62.8337,0 -111.341,20.6698 -145.504,62.1707 -32.165,38.4994 -48.3371,89.8291 -48.3371,153.998 0,64.33 16.1721,116.663 48.8388,157.169 35.498,43.6602 84.4981,65.4947 147,65.4947 48.4984,0 88.1626,-12.4987 119.163,-37.496 30.839,-25.1675 47.8354,-58.0045 50.6666,-98.502l-80.9949 0c-3.33297,24.3343 -12.8391,42.9972 -28.832,55.8363 -16.0019,12.8302 -37.3347,19.3259 -64.0075,19.3259 -37.6662,0 -65.3335,-18.3314 -82.9929,-54.6626 -13.3409,-27.497 -20.0068,-62.1707 -20.0068,-104.505 0,-103.161 35.9997,-154.831 107.999,-154.831 53.9996,0 84.6683,27.3358 92.1675,81.9984l80.6723 0z"
     id="path344" /></glyph>&#10;   <glyph
   unicode=""
   horiz-adv-x="500"
   id="glyph350"><path
     d="M62.0005 0l0 841.003 374.996 0 0 -841.003 -374.996 0zm63.004 63.004l248.997 0 0 714.995 -248.997 0 0 -714.995z"
     id="path348" /></glyph>&#10;   <glyph
   unicode=""
   horiz-adv-x="500"
   id="glyph354"><path
     d="M62.0005 0l0 841.003 374.996 0 0 -841.003 -374.996 0zm63.004 63.004l248.997 0 0 714.995 -248.997 0 0 -714.995z"
     id="path352" /></glyph>&#10;   <glyph
   unicode="v"
   horiz-adv-x="323"
   id="glyph358"><path
     d="M330.834 567l-169.829 -581.998 -169.005 581.998 78.6654 0 90.3397 -374.162 90.8325 374.162 78.9969 0z"
     id="path356" /></glyph>&#10;   <glyph
   unicode="e"
   horiz-adv-x="290"
   id="glyph362"><path
     d="M280.669 0l-48.8388 0c-62.8337,0 -114.495,16.8351 -154.831,50.3351 -41.3307,34.163 -62.0005,78.8356 -62.0005,133.83 0,70.0014 35.9997,122.505 107.838,157.671 -33.1685,23.5011 -49.8334,53.4978 -49.8334,90.3308 0,39.1625 16.6649,71.8292 49.8334,98.1704 31.6633,24.4956 67.8332,36.6627 108.994,36.6627l48.8388 0 0 -71.9994 -48.6686 0c-19.4961,0 -37.1645,-5.67143 -52.6646,-17.1666 -16.8351,-12.3374 -25.3378,-27.6673 -25.3378,-45.8374 0,-18.1611 8.50267,-33.3297 25.3378,-45.3267 15.1686,-11.1726 32.828,-16.6738 52.4944,-16.6738l29.3338 0 0 -71.9994 -29.3338 0c-38.6607,0 -71.1662,-10.1602 -97.3282,-30.6598 -27.6673,-21.5031 -41.5009,-49.1703 -41.5009,-83.0018 0,-33.8315 13.1617,-61.006 39.5029,-81.5056 26.3323,-20.4996 59.5008,-30.83 99.3262,-30.83l48.8388 0 0 -71.9994z"
     id="path360" /></glyph>&#10;   <glyph
   unicode="T"
   horiz-adv-x="263"
   id="glyph366"><path
     d="M268 622.998l-94.9987 0 0 -622.998 -81.9984 0 0 622.998 -96.0022 0 0 76.9989 272.999 0 0 -76.9989z"
     id="path364" /></glyph>&#10;   <glyph
   unicode="C"
   horiz-adv-x="423"
   id="glyph370"><path
     d="M423.996 -6.99746l-32.828 0c-100.831,0 -187.166,34.9962 -258.664,105.168 -71.6679,70.1627 -107.506,154.159 -107.506,251.828 0,97.6687 35.6682,181.504 107.166,251.335 71.5066,69.8312 157.832,104.666 259.004,104.666 4.66796,0 15.5001,-0.663011 32.828,-1.99799l0 -78.0024c-14.9984,1.33498 -25.9918,1.99799 -32.828,1.99799 -77.8321,0 -144.169,-26.9953 -199.333,-80.9949 -55.1643,-54.1698 -82.8316,-119.665 -82.8316,-196.834 0,-78.1726 27.8285,-144.169 83.6648,-197.837 55.8363,-53.6681 124.333,-80.5021 205.336,-80.5021 8.49371,0 17.1666,0.340465 25.9918,1.17371l0 -80.0004z"
     id="path368" /></glyph>&#10;   <glyph
   unicode="2"
   horiz-adv-x="504"
   id="glyph374"><path
     d="M423.996 540.999c0,-43.6691 -13.9949,-86.0033 -41.8324,-127.002 -15.6614,-22.4976 -45.8284,-56.1678 -90.6623,-101.163 -40.1659,-40.3362 -68.998,-74.3379 -86.6663,-101.996 -26.171,-42.0027 -40.1659,-86.6753 -41.8324,-133.839l253.996 0 0 -76.9989 -335.994 0 0 68.8367c0,93.4935 44.3322,185.661 132.996,276.494 47.5039,48.5073 75.3324,77.6709 83.5036,87.84 29.6653,38.159 44.4934,73.9974 44.4934,107.829 0,24.836 -8.66394,45.4969 -25.8306,62.1707 -17.3368,16.4946 -37.9977,24.8271 -62.1707,24.8271 -43.3287,0 -72.3309,-21.6643 -86.9978,-64.993l-83.0018 0c9.33591,43.6602 30.0057,78.3249 61.8392,104.496 30.83,25.6693 66.6685,38.4994 107.668,38.4994 47.3336,0 87.6608,-16.3334 120.829,-48.8299 33.1685,-32.5055 49.6631,-71.3364 49.6631,-116.17z"
     id="path372" /></glyph>&#10;   <glyph
   unicode="!"
   horiz-adv-x="195"
   id="glyph378"><path
     d="M137.996 124.001l-81.9984 0 0 575.995 81.9984 0 0 -575.995zm8.00093 -81.9984c0,-12.1672 -4.32749,-22.9993 -13.1617,-32.837 -9.66742,-10.1692 -21.3328,-15.1686 -34.5035,-15.1686 -13.6634,0 -25.1675,4.99946 -34.4945,15.0073 -9.17464,9.82869 -13.8336,20.8311 -13.8336,32.9982 0,11.9969 4.659,22.9993 13.8336,32.4965 9.32695,9.66742 20.8311,14.4966 34.4945,14.4966 13.5021,0 24.9973,-4.82923 34.0017,-14.4966 9.16568,-9.49719 13.6634,-20.4996 13.6634,-32.4965z"
     id="path376" /></glyph>&#10;   <glyph
   unicode="û"
   horiz-adv-x="395"
   id="glyph382"><path
     d="M364.002 150.835c0,-42.6657 -16.5036,-79.4986 -49.3316,-110.499 -33.0072,-30.839 -71.8382,-46.3391 -116.341,-46.3391 -44.9952,0 -83.9963,15.5001 -116.995,46.3391 -32.837,31.0003 -49.3316,67.8332 -49.3316,110.499l0 416.165 77.9934 0 0 -408.666c0,-26.3323 8.33244,-48.3371 25.1675,-65.9965 16.6649,-17.5071 37.6662,-26.3413 63.1653,-26.3413 25.0063,0 45.8374,8.83418 62.5022,26.3413 16.8351,17.6594 25.1675,39.6642 25.1675,65.9965l0 408.666 78.0024 0 0 -416.165zm-63.9985 450.167l-72.1697 0 -26.834 33.8315 -26.834 -33.8315 -74.1677 0 65.8352 89.9993 68.3349 0 65.8352 -89.9993z"
     id="path380" /></glyph>&#10;   <glyph
   unicode="ê"
   horiz-adv-x="290"
   id="glyph386"><path
     d="M280.669 0l-48.8388 0c-62.8337,0 -114.495,16.8351 -154.831,50.3351 -41.3307,34.163 -62.0005,78.8356 -62.0005,133.83 0,70.0014 35.9997,122.505 107.838,157.671 -33.1685,23.5011 -49.8334,53.4978 -49.8334,90.3308 0,39.1625 16.6649,71.8292 49.8334,98.1704 31.6633,24.4956 67.8332,36.6627 108.994,36.6627l48.8388 0 0 -71.9994 -48.6686 0c-19.4961,0 -37.1645,-5.67143 -52.6646,-17.1666 -16.8351,-12.3374 -25.3378,-27.6673 -25.3378,-45.8374 0,-18.1611 8.50267,-33.3297 25.3378,-45.3267 15.1686,-11.1726 32.828,-16.6738 52.4944,-16.6738l29.3338 0 0 -71.9994 -29.3338 0c-38.6607,0 -71.1662,-10.1602 -97.3282,-30.6598 -27.6673,-21.5031 -41.5009,-49.1703 -41.5009,-83.0018 0,-33.8315 13.1617,-61.006 39.5029,-81.5056 26.3323,-20.4996 59.5008,-30.83 99.3262,-30.83l48.8388 0 0 -71.9994zm4.32749 601.002l-72.1607 0 -26.834 33.8315 -26.834 -33.8315 -74.1677 0 65.8352 89.9993 68.3349 0 65.8263 -89.9993z"
     id="path384" /></glyph>&#10;   <glyph
   unicode="Ù"
   horiz-adv-x="469"
   id="glyph390"><path
     d="M434.004 184.837c0,-52.3331 -19.5051,-97.5074 -58.336,-135.174 -39.0012,-37.8275 -85.8331,-56.6606 -140.836,-56.6606 -54.8328,0 -101.665,18.8331 -140.997,56.6606 -39.1714,37.6662 -58.8378,82.8406 -58.8378,135.174l0 515.16 82.0073 0 0 -514.828c0,-32.165 11.6654,-59.5008 34.9962,-81.6668 23.1696,-22.3363 50.8368,-33.5 82.8316,-33.5 32.165,0 59.8323,11.1637 82.6703,33.5 22.9993,22.1661 34.4945,49.5018 34.4945,81.6668l0 514.828 82.0073 0 0 -515.16zm-151.005 566.167l-71.8292 0 -73.1731 89.9993 79.1671 0 65.8352 -89.9993z"
     id="path388" /></glyph>&#10;   <glyph
   unicode="È"
   horiz-adv-x="370"
   id="glyph394"><path
     d="M350.168 0l-62.0005 0c-75.1711,0 -137.503,20.6698 -187.005,62.0005 -50.8279,42.6657 -76.1656,97.3372 -76.1656,163.997 0,40.3362 12.8391,78.0024 38.4994,112.837 24.836,33.8315 58.0045,60.4953 99.6667,80.0004 -19.3259,13.3319 -34.9962,30.83 -46.9932,52.6646 -12.1672,21.8346 -18.1701,43.3376 -18.1701,64.5002 0,48.4984 17.6684,88.0013 52.9961,118.33 35.3367,30.5075 81.1741,45.6671 137.172,45.6671l51.8313 0 0 -76.9989 -51.8313 0c-32.3352,0 -57.6641,-7.8307 -76.3359,-23.5011 -18.5016,-15.6614 -27.8285,-36.833 -27.8285,-63.4968 0,-25.1675 11.1637,-46.3301 33.3297,-63.4968 20.8311,-15.6704 44.3322,-23.5011 70.8347,-23.5011l31.8335 0 0 -76.9989 -31.8335 0c-45.8374,0 -86.6663,-13.0004 -122.505,-39.0012 -39.1625,-28.3392 -58.6675,-63.9985 -58.6675,-107.005 0,-44.3322 17.8386,-80.6634 53.6681,-108.994 34.172,-26.6728 76.6674,-40.0047 127.504,-40.0047l62.0005 0 0 -76.9989zm-52.1718 751.003l-71.8292 0 -73.1642 89.9993 79.1671 0 65.8263 -89.9993z"
     id="path392" /></glyph>&#10;   <glyph
   unicode="·"
   horiz-adv-x="274"
   id="glyph398"><path
     d="M220.998 325.001c0,-23.8326 -8.1622,-43.4989 -24.4956,-59.1693 -16.5036,-16.4946 -36.3312,-24.836 -59.5008,-24.836 -22.838,0 -42.5044,8.3414 -59.1693,24.836 -16.4946,16.6649 -24.836,36.3312 -24.836,59.1693 0,24.1641 7.83966,44.1619 23.6713,60.0025 15.8316,15.9929 35.9997,23.9938 60.334,23.9938 24.1641,0 44.1619,-8.00093 60.0025,-24.1641 15.9929,-16.1631 23.9938,-35.9997 23.9938,-59.8323z"
     id="path396" /></glyph>&#10;   <glyph
   unicode="¦"
   horiz-adv-x="500"
   id="glyph402"><path
     d="M294.001 329.167l-86.9978 0 0 369.835 86.9978 0 0 -369.835zm0 -500.17l-86.9978 0 0 370.166 86.9978 0 0 -370.166z"
     id="path400" /></glyph>&#10;   <glyph
   unicode=""
   horiz-adv-x="500"
   id="glyph406"><path
     d="M62.0005 0l0 841.003 374.996 0 0 -841.003 -374.996 0zm63.004 63.004l248.997 0 0 714.995 -248.997 0 0 -714.995z"
     id="path404" /></glyph>&#10;   <glyph
   unicode=""
   horiz-adv-x="500"
   id="glyph410"><path
     d="M62.0005 0l0 841.003 374.996 0 0 -841.003 -374.996 0zm63.004 63.004l248.997 0 0 714.995 -248.997 0 0 -714.995z"
     id="path408" /></glyph>&#10;   <glyph
   unicode="s"
   horiz-adv-x="368"
   id="glyph414"><path
     d="M354.998 178.171c0,-53.5068 -19.3348,-97.5074 -57.8343,-132.172 -38.4994,-34.6647 -88.1626,-52.0016 -148.828,-52.0016 -58.8378,0 -111.001,17.9999 -156.336,53.8383l18.5016 92.3288c41.5009,-49.5018 87.168,-74.1677 137.333,-74.1677 37.496,0 67.663,10.1692 90.6623,30.3372 23.0083,20.1681 34.5035,46.3301 34.5035,78.4951 0,42.6746 -20.6698,75.8341 -62.0005,99.5054 -38.831,18.5016 -77.5006,37.3347 -116,56.1678 -41.3307,26.3323 -62.0005,63.667 -62.0005,112.165 0,37.8364 15.5001,69.1682 46.3391,94.1655 28.9933,24.1641 63.4968,36.1699 103.492,36.1699 34.3332,0 66.5072,-8.83418 96.8355,-26.3323l-18.9944 -83.8351c-28.0077,25.4991 -53.1753,38.1679 -75.5026,38.1679 -19.5051,0 -35.8384,-4.50668 -48.8388,-13.6724 -14.8282,-10.8322 -22.3273,-25.4991 -22.3273,-44.4934 0,-22.175 13.9949,-41.3396 42.1639,-57.673 24.1641,-10.6619 48.3371,-21.3328 72.5012,-32.165 38.831,-17.3368 67.5017,-36.5015 86.1646,-57.6641 26.834,-30.3372 40.1659,-69.3384 40.1659,-117.165z"
     id="path412" /></glyph>&#10;   <glyph
   unicode="b"
   horiz-adv-x="300"
   id="glyph418"><path
     d="M290.999 184.165c0,-50.4964 -18.6629,-93.834 -55.9976,-129.995 -37.1645,-36.1699 -82.3388,-54.1698 -135.003,-54.1698l-65.002 0 0 567 65.002 0c38.6697,0 71.6679,-13.3319 99.0037,-39.9957 27.3358,-26.6728 40.9992,-58.336 40.9992,-94.8375 0,-33.8315 -13.0004,-64.5002 -39.0012,-92.3377 60.0025,-37.9977 89.9993,-89.9993 89.9993,-155.664zm-129 248.002c0,33.1685 -16.3334,53.4978 -49.0001,60.997l0 -121.994c32.6667,7.16769 49.0001,27.497 49.0001,60.997zm50.9981 -248.002c0,28.832 -9.66742,54.1698 -28.832,75.6729 -19.1646,21.4941 -42.8359,33.8315 -71.1662,36.9942l0 -223.497c28.6708,3.16274 52.5033,15.1686 71.4977,35.9997 19.0033,20.8311 28.5005,45.8284 28.5005,74.8307z"
     id="path416" /></glyph>&#10;   <glyph
   unicode="Q"
   horiz-adv-x="782"
   id="glyph422"><path
     d="M756.997 349.004c0,-63.1742 -16.3334,-122.335 -49.1614,-177.669 -32.6667,-55.3346 -77.5006,-99.5054 -134.502,-132.333l83.9963 -116.17 -78.1636 -30.83 -83.9963 114.835c-35.9997,-10.5007 -70.6734,-15.8406 -104.003,-15.8406 -101.172,0 -187.498,35.1754 -259.004,105.508 -71.4977,70.3329 -107.166,154.5 -107.166,252.5 0,98.0002 35.6682,181.997 107.166,251.998 71.5066,70.0014 157.832,104.998 259.166,104.998 100.84,0 187.005,-34.9962 258.503,-104.998 71.4977,-70.0014 107.166,-153.998 107.166,-251.998zm-83.9963 0.161273c0,77.5006 -27.497,143.336 -82.5001,197.506 -55.003,54.1608 -121.501,81.3264 -199.172,81.3264 -77.8321,0 -144.33,-27.1655 -199.495,-81.4966 -55.1643,-54.1698 -82.8316,-120.166 -82.8316,-197.837 0,-77.8321 27.6673,-144.16 82.8316,-198.661 55.1643,-54.6715 121.501,-81.9984 199.333,-81.9984 19.1646,0 37.496,1.82776 54.6626,5.33097l-68.8277 96.3337 78.1636 31.502 70.8347 -97.167c45.3356,24.4956 80.9949,58.4973 107.497,102.328 26.3323,43.8394 39.5029,91.3343 39.5029,142.834z"
     id="path420" /></glyph>&#10;   <glyph
   unicode="@"
   horiz-adv-x="1000"
   id="glyph426"><path
     d="M952.003 372.998c0,-52.1628 -10.6709,-101.333 -32.174,-147.493 -21.4941,-46.1689 -51.4998,-84.6683 -89.8291,-115.669 -45.4969,-36.5015 -97.167,-54.6715 -155.171,-54.6715 -67.663,0 -101.494,27.0043 -101.494,81.0038l0 1.99799c-34.835,-54.6626 -84.3368,-81.9984 -148.335,-81.9984 -101.996,0 -152.833,54.6626 -152.833,163.997 0,71.0049 20.1681,132.835 60.5042,185.67 44.0006,57.5028 100.5,86.3348 169.498,86.3348 55.9976,0 96.3337,-23.1696 121,-69.3384l26.834 52.3331 75.1622 0 -72.1607 -286.161c0,-1.33498 -0.340465,-3.33297 -1.00348,-5.83271 -1.99799,-10.1692 -3.00147,-16.1721 -3.00147,-18.1701 0,-27.3358 15.6704,-40.9992 46.8319,-40.9992 34.835,0 69.4997,18.8331 104.003,56.1678 24.0028,25.8306 42.1639,54.6626 54.1698,86.6663 11.9969,32.165 17.9999,67.1612 17.9999,105.329 0,88.8345 -33.6702,158.666 -101.002,209.503 -60.8358,45.4969 -137.172,68.3349 -228.999,68.3349 -89.166,0 -165.833,-20.3383 -230.002,-61.006 -122.666,-77.4917 -184.004,-189.164 -184.004,-335 0,-106.825 36.5015,-190.329 109.334,-250.493 68.1647,-56.338 156.668,-84.507 265.67,-84.507 110.669,0 210.829,31.0003 300.335,93.171l32.6667 -48.3371c-48.1669,-36.4925 -100.007,-63.9985 -155.673,-82.8316 -55.6661,-18.6629 -113.5,-27.9988 -173.333,-27.9988 -63.8283,0 -121,7.66943 -171.335,22.9993 -50.4964,15.1686 -96.3337,38.4994 -137.333,69.6699 -50.9981,39.1625 -88.8256,83.9963 -113.5,134.502 -24.4956,50.6666 -36.833,108.832 -36.833,174.659 0,109.334 33.3387,204.673 100.007,286 47.4949,58.1747 105.159,102.507 172.831,132.835 66.6685,30.167 141.499,45.3356 223.999,45.3356 112.999,0 205.668,-28.169 278.33,-84.4981 85.8331,-66.337 128.839,-153.505 128.839,-261.504zm-349.837 -27.8285c-4.49772,27.6673 -14.4966,49.0001 -29.8355,63.8283 -15.1686,14.8371 -35.1665,22.1661 -59.9935,22.1661 -47.5039,0 -85.6718,-24.9973 -114.172,-75.1622 -24.1641,-42.0027 -36.161,-88.503 -36.161,-139.17 0,-66.4982 28.3303,-99.6667 84.9998,-99.6667 29.1635,0 55.8273,10.8322 79.8301,32.5055 23.8326,21.6643 39.9957,49.6631 48.4984,84.1666l26.834 111.332z"
     id="path424" /></glyph>&#10;   <glyph
   unicode="/"
   horiz-adv-x="416"
   id="glyph430"><path
     d="M421.998 699.996l-344.999 -699.996 -83.0018 0 344.999 699.996 83.0018 0z"
     id="path428" /></glyph>&#10;   <glyph
   unicode="ø"
   horiz-adv-x="638"
   id="glyph434"><path
     d="M617.998 284.002c0,-79.3373 -29.3338,-147.672 -88.1626,-204.503 -58.6675,-57.001 -129.332,-85.5016 -212.002,-85.5016 -32.0037,0 -61.8303,4.33645 -89.8291,12.8391l-21.0013 -40.8379 -83.0018 0 36.1699 72.1697c-43.3376,26.6638 -77.5006,61.8303 -102.507,105.168 -25.1675,43.4989 -37.6662,90.3308 -37.6662,140.827 0,79.3373 29.0023,147.672 87.168,205.005 58.1658,57.1623 128.337,85.8331 210.667,85.8331 35.1665,0 69.4997,-6.00294 103,-17.8386l21.0013 40.8379 83.0018 0 -38.0067 -75.1711c40.6677,-27.3268 72.6714,-61.9915 96.0022,-103.994 23.5011,-42.0027 35.1665,-86.9978 35.1665,-134.833zm-80.0004 0.161273c0,70.6734 -28.3303,127.674 -84.9998,170.833l-191.834 -379.663c18.3403,-4.82923 37.1734,-7.32896 56.6695,-7.32896 60.5042,0 112.336,20.8311 155.503,62.6635 43.1674,41.8324 64.6615,93.0008 64.6615,153.496zm-150.835 205.999c-21.1626,6.50468 -44.3322,9.83765 -69.3295,9.83765 -60.1638,0 -111.664,-20.8311 -154.168,-62.6635 -42.4954,-41.8324 -63.667,-93.0008 -63.667,-153.173 0,-76.8287 31.3318,-136.5 93.834,-179.165l193.33 385.165z"
     id="path432" /></glyph>&#10;   <glyph
   unicode="ç"
   horiz-adv-x="347"
   id="glyph438"><path
     d="M351.996 -6.00294c-26.9953,0 -45.3267,0 -55.1643,0l-14.6669 -17.9999c44.5024,0 66.8387,-16.4946 66.8387,-49.8334 0,-19.1646 -9.00441,-34.163 -26.834,-45.1654 -15.0073,-9.33591 -32.6667,-13.9949 -53.1663,-13.9949 -24.5045,0 -49.5018,8.66394 -75.1711,26.0008l24.0028 32.828c17.9999,-9.16568 32.4965,-13.8336 43.4989,-13.8336 13.1617,0 19.6663,4.49772 19.6663,13.6724 0,8.82522 -6.50468,13.3319 -19.6663,13.3319 -4.83819,0 -14.6669,-1.33498 -29.3338,-4.00495l-28.832 18.1701 39.9957 49.6631c-64.8317,16.6649 -118.159,50.9981 -160.162,103.331 -42.0027,52.1718 -63.004,111.502 -63.004,177.839 0,80.5021 29.6653,148.998 88.8345,205.498 58.336,55.6661 127.997,83.5036 209.001,83.5036l34.163 0 0 -74.0064c-14.6669,1.33498 -25.9918,2.00695 -34.163,2.00695 -60.1638,0 -111.664,-21.0013 -154.168,-63.004 -42.4954,-42.1639 -63.667,-93.162 -63.667,-153.165 0,-63.667 22.838,-116.17 68.3349,-157.331 44.0006,-39.6732 97.6687,-59.5008 161.165,-59.5008 7.49919,0 14.9984,0 22.4976,0l0 -74.0064z"
     id="path436" /></glyph>&#10;   <glyph
   unicode="Ö"
   horiz-adv-x="782"
   id="glyph442"><path
     d="M756.997 349.998c0,-97.6687 -35.6682,-181.665 -107.166,-251.828 -71.4977,-70.1717 -157.662,-105.168 -258.503,-105.168 -101.333,0 -187.659,34.9962 -259.166,105.168 -71.4977,70.1627 -107.166,154.159 -107.166,251.828 0,97.6687 35.6682,181.504 107.166,251.335 71.5066,69.8312 157.832,104.666 259.166,104.666 100.84,0 187.005,-34.835 258.503,-104.666 71.4977,-69.8312 107.166,-153.666 107.166,-251.335zm-83.9963 -0.331506c0,77.3304 -27.497,143.004 -82.5001,197.165 -55.003,54.1698 -121.501,81.1651 -199.172,81.1651 -77.8321,0 -144.33,-26.9953 -199.495,-81.1651 -55.1643,-54.1608 -82.8316,-119.835 -82.8316,-197.165 0,-77.5006 27.6673,-143.497 82.8316,-197.998 55.1643,-54.5013 121.663,-81.6668 199.495,-81.6668 77.3394,0 143.667,27.1655 198.841,81.6668 55.1643,54.5013 82.8316,120.498 82.8316,197.998zm-171.003 447.335c0,-11.8356 -4.49772,-22.5065 -13.6634,-32.3352 -9.16568,-9.83765 -20.6698,-14.6669 -34.3332,-14.6669 -13.6724,0 -25.1675,4.82923 -34.3332,14.6669 -9.16568,9.82869 -13.6724,20.4996 -13.6724,32.3352 0,11.6654 4.50668,22.3273 13.6724,31.8335 9.16568,9.49719 20.6609,14.1651 34.3332,14.1651 13.6634,0 25.1675,-4.66796 34.3332,-14.1651 9.16568,-9.50615 13.6634,-20.1681 13.6634,-31.8335zm-127.997 0c0,-11.8356 -4.49772,-22.5065 -13.6634,-32.3352 -9.17464,-9.83765 -20.6698,-14.6669 -34.3332,-14.6669 -13.6724,0 -25.1675,4.82923 -34.3332,14.6669 -9.17464,9.82869 -13.6724,20.4996 -13.6724,32.3352 0,11.6654 4.49772,22.3273 13.6724,31.8335 9.16568,9.49719 20.6609,14.1651 34.3332,14.1651 13.6634,0 25.1586,-4.66796 34.3332,-14.1651 9.16568,-9.50615 13.6634,-20.1681 13.6634,-31.8335z"
     id="path440" /></glyph>&#10;   <glyph
   unicode="Å"
   horiz-adv-x="388"
   id="glyph446"><path
     d="M395.836 0l-83.0018 0 -49.8334 186.996 -138.166 0 -49.8334 -186.996 -83.0018 0 189.003 679.165c-19.8366,2.49973 -36.5015,10.5007 -50.1649,23.8326 -14.5056,14.0039 -21.8346,30.6687 -21.8346,49.8334 0,21.8346 8.99545,40.0047 26.834,54.6715 16.6649,13.6634 35.9997,20.4996 58.1658,20.4996 22.1661,0 41.6622,-7.00642 58.6675,-21.1716 16.8261,-14.1651 25.3288,-32.165 25.3288,-53.9996 0,-18.8331 -6.99746,-35.1665 -21.1626,-49.0001 -14.0039,-13.8336 -30.6687,-22.1661 -50.0036,-24.6658l189.003 -679.165zm-177.839 753.001c0,16.6649 -7.99197,24.9973 -23.9938,24.9973 -17.3368,0 -26.0008,-8.33244 -26.0008,-24.9973 0,-16.0019 8.66394,-24.0028 26.0008,-24.0028 16.0019,0 23.9938,8.00093 23.9938,24.0028zm25.0063 -488.998l-49.3316 205.166 -49.8334 -205.166 99.165 0z"
     id="path444" /></glyph>&#10;   <glyph
   unicode="´"
   horiz-adv-x="500"
   id="glyph450"><path
     d="M346.997 691.001l-69.3295 -89.9993 -74.6694 0 65.8352 89.9993 78.1636 0z"
     id="path448" /></glyph>&#10;   <glyph
   unicode="£"
   horiz-adv-x="504"
   id="glyph454"><path
     d="M452.003 101.002c0,-27.3358 -10.3394,-50.9981 -30.839,-71.0049 -20.4996,-19.9978 -45.1654,-29.9968 -74.1677,-29.9968l-263.162 0 0 76.9989c42.1639,0.331506 63.1653,18.1701 63.1653,53.6681l0 180.33 -73.0029 0 0 76.9989 73.0029 0 0 217.172c0,26.9953 10.3304,50.4964 31.1705,70.6644 20.8311,20.1681 45.6582,30.167 74.6604,30.167 29.0023,0 53.1663,-10.1692 72.8327,-30.6687 19.6663,-20.4996 30.0057,-46.3301 31.0003,-77.1602l-82.5001 0c-1.33498,20.4996 -8.66394,30.83 -21.9958,30.83 -15.5001,0 -23.1696,-8.00093 -23.1696,-23.8326l0 -217.172 98.8335 0 0 -76.9989 -98.8335 0 0 -180.16c0,-17.5071 -4.16622,-35.5069 -12.4987,-53.6681l130.497 0c14.6669,0 22.3363,11.4952 22.9993,34.6647 -0.161273,5.1697 -0.161273,14.3354 0,27.3358l82.0073 0 0 -38.1679z"
     id="path452" /></glyph>&#10;   <glyph
   unicode=""
   horiz-adv-x="500"
   id="glyph458"><path
     d="M62.0005 0l0 841.003 374.996 0 0 -841.003 -374.996 0zm63.004 63.004l248.997 0 0 714.995 -248.997 0 0 -714.995z"
     id="path456" /></glyph>&#10;   <glyph
   unicode=""
   horiz-adv-x="500"
   id="glyph462"><path
     d="M62.0005 0l0 841.003 374.996 0 0 -841.003 -374.996 0zm63.004 63.004l248.997 0 0 714.995 -248.997 0 0 -714.995z"
     id="path460" /></glyph>&#10;   <glyph
   unicode="p"
   horiz-adv-x="300"
   id="glyph466"><path
     d="M290.999 382.835c0,-47.8354 -17.1666,-89.4975 -51.4998,-125.166 -34.3332,-35.6682 -76.4972,-55.1733 -126.501,-58.336l0 -199.333 -78.0024 0 0 567 65.002 0c52.6646,0 97.8389,-17.9999 135.003,-54.1698 37.3347,-36.161 55.9976,-79.4986 55.9976,-129.995zm-78.0024 0c0,29.0023 -9.49719,53.8293 -28.5005,74.6604 -18.9944,20.8401 -42.8269,33.0072 -71.4977,36.6717l0 -222.171c28.3303,3.1717 52.0016,15.3389 71.1662,36.1699 19.1646,20.8311 28.832,45.6671 28.832,74.6694z"
     id="path464" /></glyph>&#10;   <glyph
   unicode="_"
   horiz-adv-x="500"
   id="glyph470"><path
     d="M500 -235.996l-500 0 0 83.9963 500 0 0 -83.9963z"
     id="path468" /></glyph>&#10;   <glyph
   unicode="N"
   horiz-adv-x="416"
   id="glyph474"><path
     d="M375.999 0l-80.1616 0 -173.834 470.164 0 -470.164 -82.0073 0 0 699.996 80.1706 0 173.834 -470.998 0 470.998 81.9984 0 0 -699.996z"
     id="path472" /></glyph>&#10;   <glyph
   unicode="="
   horiz-adv-x="833"
   id="glyph478"><path
     d="M709.001 357.999l-585 0 0 81.9984 585 0 0 -81.9984zm0 -201l-585 0 0 81.0038 585 0 0 -81.0038z"
     id="path476" /></glyph>&#10;   <glyph
   unicode=","
   horiz-adv-x="166"
   id="glyph482"><path
     d="M132.002 27.9988c0,-36.5015 -26.0008,-65.4947 -77.8321,-86.9978l-20.1681 26.834c16.3334,8.50267 26.834,16.0019 31.6633,22.4976 -19.8276,7.16769 -29.6653,20.3383 -29.6653,39.6642 0,10.6709 4.49772,20.3383 13.6634,29.0023 9.17464,8.66394 20.6698,13.0004 34.3332,13.0004 13.6724,0 25.1675,-4.33645 34.3332,-13.1617 9.17464,-8.83418 13.6724,-19.1736 13.6724,-30.839z"
     id="path480" /></glyph>&#10;   <glyph
   unicode="õ"
   horiz-adv-x="638"
   id="glyph486"><path
     d="M617.998 282.004c0,-79.3373 -29.3338,-147.171 -88.1626,-203.5 -58.6675,-56.338 -129.332,-84.507 -212.002,-84.507 -82.3299,0 -152.663,28.169 -210.667,84.507 -58.1658,56.3291 -87.168,124.162 -87.168,203.5 0,79.1671 29.0023,147.332 87.168,204.826 58.0045,57.5028 128.337,86.1735 210.667,86.1735 82.6703,0 153.335,-28.6708 212.002,-86.1735 58.8288,-57.4938 88.1626,-125.659 88.1626,-204.826zm-80.0004 0.331506c0,60.1638 -21.6643,111.502 -65.002,153.998 -43.1584,42.5044 -94.9987,63.667 -155.163,63.667 -60.334,0 -111.664,-21.1626 -154.168,-63.667 -42.4954,-42.4954 -63.667,-93.834 -63.667,-153.998 0,-60.5042 21.1716,-111.673 63.667,-153.165 42.5044,-41.5009 93.834,-62.1707 154.168,-62.1707 60.5042,0 112.336,20.8311 155.503,62.5022 43.1674,41.6622 64.6615,92.499 64.6615,152.833zm-111.995 379.834c0,-16.3334 -7.16769,-30.4985 -21.5031,-42.8359 -14.1651,-12.1672 -31.502,-18.3314 -51.6701,-18.3314 -24.3253,0 -47.4949,12.1672 -69.661,36.3312 -7.49919,7.8307 -12.8391,11.6654 -16.0019,11.6654 -9.83765,0 -14.4966,-8.99545 -14.1651,-26.9953 0.161273,-2.8402 0.161273,-9.83765 0,-21.0013l-58.999 0 0 33.8315c0,16.3334 7.16769,30.6687 21.4941,43.3376 14.1741,12.4987 31.502,18.8331 51.6701,18.8331 24.6658,0 47.5039,-12.1672 68.6665,-36.6717 7.16769,-8.1622 12.8302,-12.3284 16.9964,-12.3284 9.83765,0 14.5056,9.32695 14.1741,27.9988 0.161273,3.16274 0.161273,10.1602 0,21.0013l58.999 0 0 -34.835z"
     id="path484" /></glyph>&#10;   <glyph
   unicode="ä"
   horiz-adv-x="313"
   id="glyph490"><path
     d="M326.336 0l-79.0058 0 -40.1659 148.998 -101.002 0 -39.9957 -148.998 -79.1671 0 168.996 609.003 170.34 -609.003zm-138.166 220.998l-32.174 127.173 -30.83 -127.173 63.004 0zm83.8261 426.003c0,-11.8356 -4.49772,-22.4976 -13.6634,-32.3352 -9.16568,-9.82869 -20.6698,-14.6669 -34.3332,-14.6669 -13.6634,0 -25.1675,4.83819 -34.3332,14.6669 -9.16568,9.83765 -13.6634,20.4996 -13.6634,32.3352 0,11.6654 4.49772,22.3363 13.6634,31.8335 9.16568,9.49719 20.6698,14.1651 34.3332,14.1651 13.6634,0 25.1675,-4.66796 34.3332,-14.1651 9.16568,-9.49719 13.6634,-20.1681 13.6634,-31.8335zm-127.997 0c0,-11.8356 -4.49772,-22.4976 -13.6634,-32.3352 -9.16568,-9.82869 -20.6698,-14.6669 -34.3332,-14.6669 -13.6724,0 -25.1675,4.83819 -34.3332,14.6669 -9.16568,9.83765 -13.6724,20.4996 -13.6724,32.3352 0,11.6654 4.50668,22.3363 13.6724,31.8335 9.16568,9.49719 20.6609,14.1651 34.3332,14.1651 13.6634,0 25.1675,-4.66796 34.3332,-14.1651 9.16568,-9.49719 13.6634,-20.1681 13.6634,-31.8335z"
     id="path488" /></glyph>&#10;   <glyph
   unicode="Ó"
   horiz-adv-x="782"
   id="glyph494"><path
     d="M756.997 349.998c0,-97.6687 -35.6682,-181.665 -107.166,-251.828 -71.4977,-70.1717 -157.662,-105.168 -258.503,-105.168 -101.333,0 -187.659,34.9962 -259.166,105.168 -71.4977,70.1627 -107.166,154.159 -107.166,251.828 0,97.6687 35.6682,181.504 107.166,251.335 71.5066,69.8312 157.832,104.666 259.166,104.666 100.84,0 187.005,-34.835 258.503,-104.666 71.4977,-69.8312 107.166,-153.666 107.166,-251.335zm-83.9963 -0.331506c0,77.3304 -27.497,143.004 -82.5001,197.165 -55.003,54.1698 -121.501,81.1651 -199.172,81.1651 -77.8321,0 -144.33,-26.9953 -199.495,-81.1651 -55.1643,-54.1608 -82.8316,-119.835 -82.8316,-197.165 0,-77.5006 27.6673,-143.497 82.8316,-197.998 55.1643,-54.5013 121.663,-81.6668 199.495,-81.6668 77.3394,0 143.667,27.1655 198.841,81.6668 55.1643,54.5013 82.8316,120.498 82.8316,197.998zm-176.003 491.336l-69.3295 -89.9993 -74.6694 0 65.8352 89.9993 78.1636 0z"
     id="path492" /></glyph>&#10;   <glyph
   unicode="Â"
   horiz-adv-x="388"
   id="glyph498"><path
     d="M395.836 0l-83.0018 0 -49.8334 186.996 -138.166 0 -49.8334 -186.996 -83.0018 0 201.672 725.997 202.165 -725.997zm-152.833 264.004l-49.3316 205.166 -49.8334 -205.166 99.165 0zm52.0016 487l-72.1697 0 -26.834 33.8315 -26.834 -33.8315 -74.1677 0 65.8352 89.9993 68.3349 0 65.8352 -89.9993z"
     id="path496" /></glyph>&#10;   <glyph
   unicode="±"
   horiz-adv-x="833"
   id="glyph502"><path
     d="M707.997 344.999l-250.995 0 0 -163.002 -81.9984 0 0 163.002 -251.003 0 0 81.0038 251.003 0 0 162.993 81.9984 0 0 -162.993 250.995 0 0 -81.0038zm0 -338.001l-583.996 0 0 81.9984 583.996 0 0 -81.9984z"
     id="path500" /></glyph>&#10;   <glyph
   unicode=""
   horiz-adv-x="500"
   id="glyph506"><path
     d="M62.0005 0l0 841.003 374.996 0 0 -841.003 -374.996 0zm63.004 63.004l248.997 0 0 714.995 -248.997 0 0 -714.995z"
     id="path504" /></glyph>&#10;   <glyph
   unicode="~"
   horiz-adv-x="833"
   id="glyph510"><path
     d="M746.999 292.997c-66.6685,-45.9986 -128.669,-68.998 -186.002,-68.998 -29.3338,0 -60.334,5.67143 -93.162,17.1666 -6.50468,2.16823 -18.8331,6.50468 -36.6717,12.6689 -68.6665,24.1641 -120.659,36.161 -156.166,36.161 -26.1621,0 -54.5013,-6.49572 -85.5016,-19.3259 -30.83,-12.8391 -64.993,-32.3352 -102.498,-58.6675l0 91.164c35.498,23.8326 68.5052,41.3307 99.165,52.8348 30.5075,11.3339 60.5042,16.9964 89.838,16.9964 38.3292,0 86.0033,-9.66742 142.995,-28.832 3.83471,-1.66649 10.8411,-4.33645 21.0013,-8.33244 52.3331,-18.5016 93.0008,-27.8375 122.003,-27.8375 53.6681,0 115.337,25.0063 184.998,75.0009l0 -89.9993z"
     id="path508" /></glyph>&#10;   <glyph
   unicode="m"
   horiz-adv-x="577"
   id="glyph514"><path
     d="M584.83 -1.00348l-79.1671 0 -91.827 363.841 -125.999 -378.839 -125.838 378.839 -91.3343 -363.841 -78.6654 0 168.002 583.002 127.836 -393.999 127.997 393.999 168.996 -583.002z"
     id="path512" /></glyph>&#10;   <glyph
   unicode="\"
   horiz-adv-x="395"
   id="glyph518"><path
     d="M411.999 0l-83.0018 0 -344.999 699.996 83.0018 0 344.999 -699.996z"
     id="path516" /></glyph>&#10;   <glyph
   unicode="K"
   horiz-adv-x="310"
   id="glyph522"><path
     d="M316.83 699.996l-135.666 -265.993 132.835 -434.004 -86.9978 0 -98.1704 331.998 -6.82722 -14.1651 0 -317.833 -82.0073 0 0 699.996 82.0073 0 0 -208.831 106.996 208.831 87.8311 0z"
     id="path520" /></glyph>&#10;   <glyph
   unicode=":"
   horiz-adv-x="166"
   id="glyph526"><path
     d="M130.998 318.837c0,-11.8356 -4.49772,-22.5065 -13.6634,-32.174 -9.16568,-9.82869 -20.6698,-14.6669 -34.3332,-14.6669 -13.6724,0 -25.1675,4.83819 -34.3332,14.6669 -9.16568,9.66742 -13.6724,20.3383 -13.6724,32.174 0,11.6654 4.50668,22.1661 13.6724,31.8335 9.16568,9.49719 20.6609,14.3264 34.3332,14.3264 13.6634,0 25.1675,-4.82923 34.3332,-14.3264 9.16568,-9.66742 13.6634,-20.1681 13.6634,-31.8335zm0 -278.841c0,-11.6654 -4.49772,-22.3273 -13.6634,-31.8335 -9.16568,-9.49719 -20.6698,-14.1651 -34.3332,-14.1651 -13.6724,0 -25.1675,4.66796 -34.3332,14.1651 -9.16568,9.50615 -13.6724,20.1681 -13.6724,31.8335 0,11.8356 4.50668,22.5065 13.6724,32.3352 9.16568,9.83765 20.6609,14.6669 34.3332,14.6669 13.6634,0 25.1675,-4.82923 34.3332,-14.6669 9.16568,-9.82869 13.6634,-20.4996 13.6634,-32.3352z"
     id="path524" /></glyph>&#10;   <glyph
   unicode=")"
   horiz-adv-x="230"
   id="glyph530"><path
     d="M207.003 349.998c0,-163.665 -43.6691,-301.33 -130.998,-413.002l-85.0088 0c43.6691,55.3346 77.5006,121.672 101.172,199.172 21.8346,70.996 32.837,142.162 32.837,213.83 0,71.6679 -11.0024,142.834 -32.837,213.839 -23.6713,77.4917 -57.5028,143.829 -101.172,199.163l85.0088 0c87.3293,-111.664 130.998,-249.337 130.998,-413.002z"
     id="path528" /></glyph>&#10;   <glyph
   unicode="ò"
   horiz-adv-x="638"
   id="glyph534"><path
     d="M617.998 282.004c0,-79.3373 -29.3338,-147.171 -88.1626,-203.5 -58.6675,-56.338 -129.332,-84.507 -212.002,-84.507 -82.3299,0 -152.663,28.169 -210.667,84.507 -58.1658,56.3291 -87.168,124.162 -87.168,203.5 0,79.1671 29.0023,147.332 87.168,204.826 58.0045,57.5028 128.337,86.1735 210.667,86.1735 82.6703,0 153.335,-28.6708 212.002,-86.1735 58.8288,-57.4938 88.1626,-125.659 88.1626,-204.826zm-80.0004 0.331506c0,60.1638 -21.6643,111.502 -65.002,153.998 -43.1584,42.5044 -94.9987,63.667 -155.163,63.667 -60.334,0 -111.664,-21.1626 -154.168,-63.667 -42.4954,-42.4954 -63.667,-93.834 -63.667,-153.998 0,-60.5042 21.1716,-111.673 63.667,-153.165 42.5044,-41.5009 93.834,-62.1707 154.168,-62.1707 60.5042,0 112.336,20.8311 155.503,62.5022 43.1674,41.6622 64.6615,92.499 64.6615,152.833zm-189.997 318.666l-71.8292 0 -73.1731 89.9993 79.1671 0 65.8352 -89.9993z"
     id="path532" /></glyph>&#10;   <glyph
   unicode="á"
   horiz-adv-x="313"
   id="glyph538"><path
     d="M326.336 0l-79.0058 0 -40.1659 148.998 -101.002 0 -39.9957 -148.998 -79.1671 0 168.996 609.003 170.34 -609.003zm-138.166 220.998l-32.174 127.173 -30.83 -127.173 63.004 0zm63.8283 470.003l-69.3295 -89.9993 -74.6694 0 65.8352 89.9993 78.1636 0z"
     id="path536" /></glyph>&#10;   <glyph
   unicode="Ð"
   horiz-adv-x="490"
   id="glyph542"><path
     d="M465.998 351.996c0,-94.6672 -35.8295,-176.997 -107.497,-246.999 -71.6679,-70.0014 -156.838,-104.998 -255.501,-104.998l-62.0005 0 0 320.001 -60.0025 0 0 76.9989 60.0025 0 0 302.996 62.0005 0c99.0037,0 184.335,-34.4945 255.833,-103.492 71.4977,-69.0069 107.166,-150.504 107.166,-244.508zm-81.9984 0c0,73.0029 -25.3288,135.335 -75.8341,187.005 -50.4964,51.8313 -112.165,79.8301 -185.168,83.9963l0 -225.997 112.837 0 0 -76.9989 -112.837 0 0 -242.832c73.0029,4.16622 134.672,32.828 185.168,85.9943 50.5053,53.0051 75.8341,116 75.8341,188.833z"
     id="path540" /></glyph>&#10;   <glyph
   unicode="¿"
   horiz-adv-x="317"
   id="glyph546"><path
     d="M26.0008 220.496c0,47.5039 14.6669,91.173 43.8304,130.506 29.3338,39.494 67.6719,67 115.167,82.6614l0 143.336 81.9984 0 0 -207.997c-45.1654,-0.331506 -82.9929,-14.6669 -113.5,-42.9972 -30.3283,-28.5005 -45.4969,-63.5057 -45.4969,-105.338 0,-42.1639 15.1686,-77.5006 45.4969,-106.162 30.5075,-28.841 68.3349,-43.3376 113.5,-43.6691l0 -76.8376c-67.663,0 -124.996,22.5065 -171.998,67.5017 -45.9986,44.0006 -68.998,97.0057 -68.998,158.997zm152 437.838c0,11.9969 4.66796,22.8291 13.8336,32.828 9.33591,9.83765 20.8311,14.8371 34.5035,14.8371 13.4932,0 24.9973,-4.99946 33.9928,-14.8371 9.16568,-9.99892 13.6724,-20.8311 13.6724,-32.828 0,-12.1672 -4.50668,-22.9993 -13.6724,-32.6667 -8.99545,-9.83765 -20.4996,-14.6669 -33.9928,-14.6669 -13.6724,0 -25.1675,4.82923 -34.5035,14.6669 -9.16568,9.66742 -13.8336,20.4996 -13.8336,32.6667z"
     id="path544" /></glyph>&#10;   <glyph
   unicode="®"
   horiz-adv-x="833"
   id="glyph550"><path
     d="M777.999 356.996c0,-101.996 -35.3277,-187.328 -106.001,-255.994 -72.6624,-70.6644 -157.994,-106.001 -255.994,-106.001 -99.0037,0 -184.335,36.3312 -256.003,109.003 -70.0014,70.996 -104.998,155.333 -104.998,252.993 0,48.1669 9.32695,94.6672 27.8285,139.17 18.3314,43.6691 45.3356,83.5036 81.1651,119.172 68.6665,68.4962 152.672,102.659 252.007,102.659 48.8299,0 95.9933,-9.32695 141.159,-27.8285 91.5045,-37.8364 156.175,-103.17 194.002,-195.83 17.8386,-44.3411 26.834,-90.1695 26.834,-137.342zm-52.9961 -4.82923c0,88.1626 -29.3338,161.837 -87.84,220.998 -61.1583,61.1673 -134.493,91.836 -220.164,91.836 -85.3313,0 -156.829,-29.3338 -214.834,-87.8311 -62.1618,-62.8337 -93.162,-136.168 -93.162,-220.173 0,-40.9992 7.66047,-79.8301 22.9993,-116.663 23.3308,-56.3291 60.8358,-102.337 112.497,-137.835 51.4998,-35.6682 107.497,-53.4978 167.67,-53.4978 86.8276,0 160.995,30.167 222.494,90.3308 60.1727,58.1658 90.3397,129.171 90.3397,212.836zm-129 -191.001l-97.167 0 -80.0004 168.835 -63.004 0 0 -168.835 -86.9978 0 0 404.831 155.834 0c114.163,0 171.335,-36.6627 171.335,-109.997 0,-29.495 -7.66943,-53.9996 -22.9993,-73.1642 -16.1721,-19.8366 -38.6697,-32.6667 -67.3404,-38.4994l90.3397 -183.17zm-89.3363 284.665c0,21.8346 -7.8307,38.1679 -23.6623,49.0001 -15.8406,11.0024 -40.5064,16.3334 -74.0064,16.3334l-53.1663 0 0 -127.334 57.1713 0c62.5022,0 93.6638,20.6698 93.6638,62.0005z"
     id="path548" /></glyph>&#10;   <glyph
   unicode=""
   horiz-adv-x="500"
   id="glyph554"><path
     d="M62.0005 0l0 841.003 374.996 0 0 -841.003 -374.996 0zm63.004 63.004l248.997 0 0 714.995 -248.997 0 0 -714.995z"
     id="path552" /></glyph>&#10;   <glyph
   unicode=""
   horiz-adv-x="500"
   id="glyph558"><path
     d="M62.0005 0l0 841.003 374.996 0 0 -841.003 -374.996 0zm63.004 63.004l248.997 0 0 714.995 -248.997 0 0 -714.995z"
     id="path556" /></glyph>&#10;   <glyph
   unicode="{"
   horiz-adv-x="500"
   id="glyph562"><path
     d="M426.997 -202.003l-30.83 0c-61.4988,0 -105.831,8.00093 -132.835,24.0028 -22.4976,13.3319 -37.3347,34.9962 -44.5024,64.8317 -3.82575,17.0053 -5.83271,44.0006 -5.83271,81.1651l0 121c0,44.3411 -7.66047,76.0044 -22.9993,95.3392 -17.3279,21.8346 -47.3336,32.6667 -89.9993,32.6667 3.00147,0 -0.501738,0 -10.1692,0 0,0 -3.66448,0 -10.8322,0l0 85.9943c1.00348,0 4.50668,-0.331506 10.8322,-0.994517 0,0 3.34193,0 10.1692,0 42.5044,0 72.3309,10.8322 89.4975,32.6667 15.6704,19.1646 23.5011,50.6666 23.5011,94.6672l0 120.498c0,38.3292 2.00695,65.665 5.83271,81.8371 6.83618,29.9968 21.6733,51.6611 44.5024,64.993 15.3389,9.33591 32.837,15.6704 52.8348,19.0033 18.8331,3.50321 48.4984,5.33097 88.8345,5.33097l21.9958 0 0 -86.9978c-7.8307,0 -11.6654,0 -11.6654,0 -10.8322,0 -14.6669,0 -11.3339,0 -37.8275,0 -62.995,-8.1622 -75.3324,-24.3343 -10.5007,-13.6634 -15.6614,-40.4974 -15.6614,-80.5021l0 -117.496c0,-50.9981 -7.00642,-86.9978 -21.0013,-107.838 -14.0039,-20.8311 -40.0047,-35.8295 -78.0024,-45.3267 40.3362,-9.50615 67.663,-27.1655 81.9984,-53.1663 11.3339,-20.8401 17.0053,-53.9996 17.0053,-99.5054l0 -116.995c0,-39.6732 5.33097,-66.5072 16.1631,-80.5021 12.6689,-16.8351 37.9977,-25.3378 75.8341,-25.3378 7.49919,0 11.1637,0 11.1637,0 10.1692,0 13.8336,0 10.8322,0l0 -84.9998z"
     id="path560" /></glyph>&#10;   <glyph
   unicode="j"
   horiz-adv-x="205"
   id="glyph566"><path
     d="M174.999 149.832c0,-44.3322 -17.1666,-81.3353 -51.3296,-111.162 -34.3332,-29.8355 -76.8376,-44.6726 -127.665,-44.6726l0 71.0049c29.9968,0.331506 54.1608,8.49371 72.9939,24.6658 18.6718,16.1631 27.9988,37.1645 27.9988,63.1653l0 414.167 78.0024 0 0 -417.168z"
     id="path564" /></glyph>&#10;   <glyph
   unicode="Y"
   horiz-adv-x="356"
   id="glyph570"><path
     d="M364.997 699.996l-145.997 -393.999 0 -305.998 -81.9984 0 0 305.998 -146.006 393.999 82.0073 0 103.501 -281 105.499 281 82.9929 0z"
     id="path568" /></glyph>&#10;   <glyph
   unicode="H"
   horiz-adv-x="416"
   id="glyph574"><path
     d="M375.999 0l-81.9984 0 0 372.003 -171.998 0 0 -372.003 -82.0073 0 0 699.996 82.0073 0 0 -250.995 171.998 0 0 250.995 81.9984 0 0 -699.996z"
     id="path572" /></glyph>&#10;   <glyph
   unicode="7"
   horiz-adv-x="504"
   id="glyph578"><path
     d="M459.171 699.996l-249.005 -699.996 -88.0013 0 220.836 622.998 -253.001 0 0 76.9989 369.172 0z"
     id="path576" /></glyph>&#10;   <glyph
   unicode="&amp;"
   horiz-adv-x="315"
   id="glyph582"><path
     d="M276.834 65.9965c-14.3354,0 -29.8355,0 -46.8319,0l0 -65.9965 -81.9984 0 0 83.9963c-37.5049,14.6669 -67.5017,36.5015 -90.3397,65.8352 -24.4956,31.0003 -36.6627,65.002 -36.6627,102.005 0,66.4982 34.0017,118.831 101.996,157.161 -29.3338,27.6673 -44.0006,58.6675 -44.0006,92.8395 0,46.5004 22.9993,83.4946 69.0069,110.83l0 87.3293 81.9984 0 0 -62.0005c0,0 2.661,0 7.8307,0l39.0012 0 0 -71.9994 -38.831 0c-19.3348,0 -36.833,-5.83271 -52.3331,-17.6594 -16.5036,-12.3374 -24.6658,-27.8375 -24.6658,-46.3391 0,-18.1611 8.1622,-33.6613 24.6658,-46.3301 15.5001,-11.8356 32.9982,-17.6684 52.3331,-17.6684l38.831 0 0 -71.9994 -39.0012 0c-34.6647,0 -65.8352,-10.3304 -93.834,-31.1705 -29.9968,-22.4976 -44.9952,-50.1649 -44.9952,-82.9929 0,-33.0072 14.9984,-60.5042 44.9952,-82.5001 27.6673,-20.1681 58.8378,-30.3372 93.834,-30.3372l39.0012 0 0 -73.0029z"
     id="path580" /></glyph>&#10;   <glyph
   unicode="ï"
   horiz-adv-x="148"
   id="glyph586"><path
     d="M112.999 0l-78.0024 0 0 567 78.0024 0 0 -567zm73.9974 647c0,-11.8356 -4.49772,-22.4976 -13.6634,-32.3352 -9.16568,-9.82869 -20.6698,-14.6669 -34.3332,-14.6669 -13.6634,0 -25.1675,4.83819 -34.3332,14.6669 -9.16568,9.83765 -13.6634,20.4996 -13.6634,32.3352 0,11.6654 4.49772,22.3363 13.6634,31.8335 9.16568,9.49719 20.6698,14.1651 34.3332,14.1651 13.6634,0 25.1675,-4.66796 34.3332,-14.1651 9.16568,-9.49719 13.6634,-20.1681 13.6634,-31.8335zm-127.997 0c0,-11.8356 -4.49772,-22.4976 -13.6634,-32.3352 -9.16568,-9.82869 -20.6698,-14.6669 -34.3332,-14.6669 -13.6724,0 -25.1675,4.83819 -34.3332,14.6669 -9.16568,9.83765 -13.6724,20.4996 -13.6724,32.3352 0,11.6654 4.50668,22.3363 13.6724,31.8335 9.16568,9.49719 20.6609,14.1651 34.3332,14.1651 13.6634,0 25.1675,-4.66796 34.3332,-14.1651 9.16568,-9.49719 13.6634,-20.1681 13.6634,-31.8335z"
     id="path584" /></glyph>&#10;   <glyph
   unicode="Þ"
   horiz-adv-x="359"
   id="glyph590"><path
     d="M344.999 353c0,-59.8323 -21.6643,-111.502 -64.8317,-155.001 -43.3376,-43.3287 -96.0022,-66.328 -158.164,-68.998l0 -129 -82.0073 0 0 699.996 82.0073 0 0 -121.994c61.8303,-2.66996 114.495,-25.6693 157.832,-69.3384 43.4989,-43.4989 65.1632,-95.5005 65.1632,-155.664zm-81.9984 0.501738c0,39.6642 -13.6634,73.4957 -41.1694,101.494 -27.497,28.0077 -60.8268,43.3376 -99.828,46.0076l0 -295.004c39.0012,2.66996 72.3309,17.9999 99.828,45.9986 27.506,27.9988 41.1694,61.8392 41.1694,101.503z"
     id="path588" /></glyph>&#10;   <glyph
   unicode="Í"
   horiz-adv-x="162"
   id="glyph594"><path
     d="M122.003 0l-82.0073 0 0 699.996 82.0073 0 0 -699.996zm64.993 841.003l-69.3295 -89.9993 -74.6694 0 65.8352 89.9993 78.1636 0z"
     id="path592" /></glyph>&#10;   <glyph
   unicode="¼"
   horiz-adv-x="444"
   id="glyph598"><path
     d="M127.997 350.168l-65.9965 0 0 289.834 -40.9992 0 0 59.9935 106.996 0 0 -349.828zm290.005 349.828l-345.169 -699.996 -72.8327 0 345.169 699.996 72.8327 0zm7.8307 -612.999l-41.8324 0 0 -86.9978 -65.9965 0 0 86.9978 -141.168 0 207.164 297.835 0 -237.833 41.8324 0 0 -60.0025zm-107.829 60.0025l0 37.0032 -25.0063 -37.0032 25.0063 0z"
     id="path596" /></glyph>&#10;   <glyph
   unicode="«"
   horiz-adv-x="369"
   id="glyph602"><path
     d="M194.997 98.0002l-197.998 180.832 197.998 183.17 0 -92.8395 -99.828 -90.3308 99.828 -88.9958 0 -91.836zm150.002 0l-197.998 180.832 197.998 183.17 0 -92.8395 -99.828 -90.3308 99.828 -88.9958 0 -91.836z"
     id="path600" /></glyph>&#10;   <glyph
   unicode=""
   horiz-adv-x="500"
   id="glyph606"><path
     d="M62.0005 0l0 841.003 374.996 0 0 -841.003 -374.996 0zm63.004 63.004l248.997 0 0 714.995 -248.997 0 0 -714.995z"
     id="path604" /></glyph>&#10;   <glyph
   unicode=""
   horiz-adv-x="500"
   id="glyph610"><path
     d="M62.0005 0l0 841.003 374.996 0 0 -841.003 -374.996 0zm63.004 63.004l248.997 0 0 714.995 -248.997 0 0 -714.995z"
     id="path608" /></glyph>&#10;   <glyph
   unicode="x"
   horiz-adv-x="288"
   id="glyph614"><path
     d="M302.002 0l-78.6654 0 -79.1671 212.002 -80.0004 -212.002 -78.1726 0 118.168 318.003 -91.827 248.997 77.6619 0 54.1698 -144.169 54.1608 144.169 77.6709 0 -92.6692 -248.997 118.67 -318.003z"
     id="path612" /></glyph>&#10;   <glyph
   unicode="g"
   horiz-adv-x="383"
   id="glyph618"><path
     d="M353 -6.00294l-34.163 0c-82.3388,0 -152.672,28.3392 -210.667,84.9998 -58.1658,56.4993 -87.168,124.673 -87.168,204.001 0,79.1671 29.0023,147.171 87.168,204.333 57.9956,57.1713 128.328,85.6718 210.667,85.6718l34.163 0 0 -74.0064c-14.9984,1.33498 -26.3323,2.00695 -34.163,2.00695 -60.1727,0 -111.673,-21.1716 -154.168,-63.667 -42.5044,-42.5044 -63.667,-93.834 -63.667,-154.168 0,-51.6701 16.3334,-97.4985 49.1614,-137.172 32.6667,-39.6642 74.3379,-64.8317 124.834,-75.1622l0 304.17 78.0024 0 0 -381.007z"
     id="path616" /></glyph>&#10;   <glyph
   unicode="V"
   horiz-adv-x="388"
   id="glyph622"><path
     d="M395.836 699.996l-202.165 -737 -201.672 737 83.0018 0 118.67 -467.996 119.163 467.996 83.0018 0z"
     id="path620" /></glyph>&#10;   <glyph
   unicode="E"
   horiz-adv-x="370"
   id="glyph626"><path
     d="M350.168 0l-62.0005 0c-75.1711,0 -137.503,20.6698 -187.005,62.0005 -50.8279,42.6657 -76.1656,97.3372 -76.1656,163.997 0,40.3362 12.8391,78.0024 38.4994,112.837 24.836,33.8315 58.0045,60.4953 99.6667,80.0004 -19.3259,13.3319 -34.9962,30.83 -46.9932,52.6646 -12.1672,21.8346 -18.1701,43.3376 -18.1701,64.5002 0,48.4984 17.6684,88.0013 52.9961,118.33 35.3367,30.5075 81.1741,45.6671 137.172,45.6671l51.8313 0 0 -76.9989 -51.8313 0c-32.3352,0 -57.6641,-7.8307 -76.3359,-23.5011 -18.5016,-15.6614 -27.8285,-36.833 -27.8285,-63.4968 0,-25.1675 11.1637,-46.3301 33.3297,-63.4968 20.8311,-15.6704 44.3322,-23.5011 70.8347,-23.5011l31.8335 0 0 -76.9989 -31.8335 0c-45.8374,0 -86.6663,-13.0004 -122.505,-39.0012 -39.1625,-28.3392 -58.6675,-63.9985 -58.6675,-107.005 0,-44.3322 17.8386,-80.6634 53.6681,-108.994 34.172,-26.6728 76.6674,-40.0047 127.504,-40.0047l62.0005 0 0 -76.9989z"
     id="path624" /></glyph>&#10;   <glyph
   unicode="4"
   horiz-adv-x="504"
   id="glyph630"><path
     d="M451.331 186.996l-84.3279 0 0 -186.996 -82.0073 0 0 186.996 -258.995 0 341.003 557.001 0 -479.993 84.3279 0 0 -77.0078zm-166.335 77.0078l0 200.83 -117.828 -200.83 117.828 0z"
     id="path628" /></glyph>&#10;   <glyph
   unicode="#"
   horiz-adv-x="769"
   id="glyph634"><path
     d="M735.002 500l-28.832 -83.9963 -143.336 0 -44.0006 -123.006 150.835 0 -29.6653 -83.9963 -150.002 0 -76.1656 -212.002 -93.171 0 76.1656 212.002 -123.168 0 -76.9989 -212.002 -92.8305 0 76.1656 212.002 -145.997 0 29.8355 83.9963 144.993 0 44.0006 123.006 -153.828 0 29.6653 83.9963 154.329 0 75.6729 212.997 93.3323 0 -75.1711 -212.997 122.003 0 76.1656 212.997 92.8305 0 -75.1622 -212.997 142.332 0zm-264.004 -83.9963l-124.996 0 -44.5024 -123.006 125.004 0 44.4934 123.006z"
     id="path632" /></glyph>&#10;   <glyph
   unicode="ý"
   horiz-adv-x="297"
   id="glyph638"><path
     d="M306.831 567l-118.831 -318.837 0 -248.163 -78.0024 0 0 248.163 -119.002 318.837 77.6709 0 80.0004 -212.002 79.1671 212.002 78.9969 0zm-49.8334 124.001l-69.3295 -89.9993 -74.6694 0 65.8352 89.9993 78.1636 0z"
     id="path636" /></glyph>&#10;   <glyph
   unicode="ì"
   horiz-adv-x="148"
   id="glyph642"><path
     d="M112.999 0l-78.0024 0 0 567 78.0024 0 0 -567zm-9.99892 601.002l-71.8292 0 -73.1731 89.9993 79.1671 0 65.8352 -89.9993z"
     id="path640" /></glyph>&#10;   <glyph
   unicode="Û"
   horiz-adv-x="469"
   id="glyph646"><path
     d="M434.004 184.837c0,-52.3331 -19.5051,-97.5074 -58.336,-135.174 -39.0012,-37.8275 -85.8331,-56.6606 -140.836,-56.6606 -54.8328,0 -101.665,18.8331 -140.997,56.6606 -39.1714,37.6662 -58.8378,82.8406 -58.8378,135.174l0 515.16 82.0073 0 0 -514.828c0,-32.165 11.6654,-59.5008 34.9962,-81.6668 23.1696,-22.3363 50.8368,-33.5 82.8316,-33.5 32.165,0 59.8323,11.1637 82.6703,33.5 22.9993,22.1661 34.4945,49.5018 34.4945,81.6668l0 514.828 82.0073 0 0 -515.16zm-99.0037 566.167l-72.1697 0 -26.834 33.8315 -26.8251 -33.8315 -74.1677 0 65.8263 89.9993 68.3349 0 65.8352 -89.9993z"
     id="path644" /></glyph>&#10;   <glyph
   unicode="Ê"
   horiz-adv-x="370"
   id="glyph650"><path
     d="M350.168 0l-62.0005 0c-75.1711,0 -137.503,20.6698 -187.005,62.0005 -50.8279,42.6657 -76.1656,97.3372 -76.1656,163.997 0,40.3362 12.8391,78.0024 38.4994,112.837 24.836,33.8315 58.0045,60.4953 99.6667,80.0004 -19.3259,13.3319 -34.9962,30.83 -46.9932,52.6646 -12.1672,21.8346 -18.1701,43.3376 -18.1701,64.5002 0,48.4984 17.6684,88.0013 52.9961,118.33 35.3367,30.5075 81.1741,45.6671 137.172,45.6671l51.8313 0 0 -76.9989 -51.8313 0c-32.3352,0 -57.6641,-7.8307 -76.3359,-23.5011 -18.5016,-15.6614 -27.8285,-36.833 -27.8285,-63.4968 0,-25.1675 11.1637,-46.3301 33.3297,-63.4968 20.8311,-15.6704 44.3322,-23.5011 70.8347,-23.5011l31.8335 0 0 -76.9989 -31.8335 0c-45.8374,0 -86.6663,-13.0004 -122.505,-39.0012 -39.1625,-28.3392 -58.6675,-63.9985 -58.6675,-107.005 0,-44.3322 17.8386,-80.6634 53.6681,-108.994 34.172,-26.6728 76.6674,-40.0047 127.504,-40.0047l62.0005 0 0 -76.9989zm-10.1692 751.003l-72.1697 0 -26.834 33.8315 -26.8251 -33.8315 -74.1677 0 65.8263 89.9993 68.3349 0 65.8352 -89.9993z"
     id="path648" /></glyph>&#10;   <glyph
   unicode="¹"
   horiz-adv-x="152"
   id="glyph654"><path
     d="M127.997 349.998l-65.9965 0 0 290.005 -40.9992 0 0 59.9935 106.996 0 0 -349.998z"
     id="path652" /></glyph>&#10;   <glyph
   unicode="¨"
   horiz-adv-x="500"
   id="glyph658"><path
     d="M362.004 647c0,-11.8356 -4.50668,-22.4976 -13.6724,-32.3352 -9.16568,-9.82869 -20.6609,-14.6669 -34.3332,-14.6669 -13.6634,0 -25.1675,4.83819 -34.3332,14.6669 -9.16568,9.83765 -13.6634,20.4996 -13.6634,32.3352 0,11.6654 4.49772,22.3363 13.6634,31.8335 9.16568,9.49719 20.6698,14.1651 34.3332,14.1651 13.6724,0 25.1675,-4.66796 34.3332,-14.1651 9.16568,-9.49719 13.6724,-20.1681 13.6724,-31.8335zm-128.006 0c0,-11.8356 -4.49772,-22.4976 -13.6634,-32.3352 -9.16568,-9.82869 -20.6698,-14.6669 -34.3332,-14.6669 -13.6724,0 -25.1675,4.83819 -34.3332,14.6669 -9.16568,9.83765 -13.6724,20.4996 -13.6724,32.3352 0,11.6654 4.50668,22.3363 13.6724,31.8335 9.16568,9.49719 20.6609,14.1651 34.3332,14.1651 13.6634,0 25.1675,-4.66796 34.3332,-14.1651 9.16568,-9.49719 13.6634,-20.1681 13.6634,-31.8335z"
     id="path656" /></glyph>&#10;   <glyph
   unicode=""
   horiz-adv-x="500"
   id="glyph662"><path
     d="M62.0005 0l0 841.003 374.996 0 0 -841.003 -374.996 0zm63.004 63.004l248.997 0 0 714.995 -248.997 0 0 -714.995z"
     id="path660" /></glyph>&#10;   <glyph
   unicode=""
   horiz-adv-x="500"
   id="glyph666"><path
     d="M62.0005 0l0 841.003 374.996 0 0 -841.003 -374.996 0zm63.004 63.004l248.997 0 0 714.995 -248.997 0 0 -714.995z"
     id="path664" /></glyph>&#10;   <glyph
   unicode="u"
   horiz-adv-x="395"
   id="glyph670"><path
     d="M364.002 150.835c0,-42.6657 -16.5036,-79.4986 -49.3316,-110.499 -33.0072,-30.839 -71.8382,-46.3391 -116.341,-46.3391 -44.9952,0 -83.9963,15.5001 -116.995,46.3391 -32.837,31.0003 -49.3316,67.8332 -49.3316,110.499l0 416.165 77.9934 0 0 -408.666c0,-26.3323 8.33244,-48.3371 25.1675,-65.9965 16.6649,-17.5071 37.6662,-26.3413 63.1653,-26.3413 25.0063,0 45.8374,8.83418 62.5022,26.3413 16.8351,17.6594 25.1675,39.6642 25.1675,65.9965l0 408.666 78.0024 0 0 -416.165z"
     id="path668" /></glyph>&#10;   <glyph
   unicode="d"
   horiz-adv-x="407"
   id="glyph674"><path
     d="M387.001 283.33c0,-76.8287 -27.6673,-142.995 -83.0018,-198.33 -56.3291,-56.6695 -124.333,-84.9998 -204.001,-84.9998l-65.002 0 0 567 65.002 0c79.6689,0 147.672,-28.3303 204.001,-84.9998 55.3346,-55.6661 83.0018,-121.833 83.0018,-198.67zm-78.0024 -0.161273c0,55.3346 -18.8331,103.161 -56.4993,143.336 -37.8364,40.1659 -84.1666,62.8248 -139.501,67.663l0 -422.338c55.3346,4.83819 101.665,27.506 139.501,67.8332 37.6662,40.3362 56.4993,88.1715 56.4993,143.506z"
     id="path672" /></glyph>&#10;   <glyph
   unicode="S"
   horiz-adv-x="450"
   id="glyph678"><path
     d="M431.002 213.83c0,-64.8317 -26.0008,-118.5 -78.1726,-161.165 -48.8299,-39.8344 -106.333,-59.662 -172.831,-59.662 -67.9945,0 -129.663,21.6643 -184.998,64.993l19.9978 95.8409c46.8319,-55.8363 100.339,-83.8351 160.673,-83.8351 44.4934,0 83.3333,12.8302 116.161,38.6697 35.498,27.9988 53.1663,63.4968 53.1663,106.494 0,53.8383 -26.0008,96.0022 -78.0024,126.671 -48.1669,24.1641 -96.3337,47.9966 -144.501,71.8292 -51.6611,32.9982 -77.4917,78.5041 -77.4917,136.831 0,46.0076 18.8331,84.0053 56.6606,114.002 35.0052,27.6673 76.1656,41.5009 123.338,41.5009 37.8275,0 75.6639,-10.6619 113.832,-32.165l-19.1646 -86.0033c-30.167,26.834 -60.334,40.1659 -90.6713,40.1659 -24.9973,0 -46.8319,-6.82722 -65.3335,-20.4996 -21.1626,-14.9984 -31.6633,-34.4945 -31.6633,-58.6675 0,-32.828 25.8306,-61.66 77.5006,-86.4961 80.6634,-38.3382 128.66,-63.667 143.999,-75.6639 51.6611,-41.3396 77.5006,-99.0037 77.5006,-172.84z"
     id="path676" /></glyph>&#10;   <glyph
   unicode="B"
   horiz-adv-x="359"
   id="glyph682"><path
     d="M344.999 225.997c0,-61.4988 -22.6678,-114.495 -67.9945,-159.167 -45.5059,-44.4934 -100.168,-66.8297 -164.337,-66.8297l-72.6714 0 0 699.996 72.3399 0c46.3301,0 85.9943,-16.3334 119.163,-48.8299 32.9982,-32.4965 49.5018,-70.996 49.5018,-115.167 0,-44.0006 -16.9964,-82.6703 -50.9981,-116.17 35.9997,-21.1626 64.1687,-49.0001 84.4981,-83.4946 20.3294,-34.5035 30.4985,-71.3364 30.4985,-110.338zm-145.997 310.173c0,22.4976 -7.49919,41.8324 -22.3363,58.3271 -14.9984,16.5036 -33.1685,26.0008 -54.6626,28.5005l0 -172.831c21.4941,2.3295 39.6642,11.6654 54.6626,27.8375 14.8371,16.3334 22.3363,35.6592 22.3363,58.1658zm63.9985 -310.173c0,39.5029 -13.6634,73.0029 -40.9992,100.67 -27.3358,27.6673 -60.6655,42.8359 -99.9982,45.3356l0 -294.834c39.0012,2.661 72.3309,18.1611 99.828,46.6616 27.506,28.5005 41.1694,62.5022 41.1694,102.166z"
     id="path680" /></glyph>&#10;   <glyph
   unicode="1"
   horiz-adv-x="504"
   id="glyph686"><path
     d="M300.998 0l-81.9984 0 0 622.998 -83.9963 0 0 76.9989 165.995 0 0 -699.996z"
     id="path684" /></glyph>&#10;   <glyph
   unicode=" "
   horiz-adv-x="253"
   id="glyph688" />&#10;   <glyph
   unicode="ú"
   horiz-adv-x="395"
   id="glyph692"><path
     d="M364.002 150.835c0,-42.6657 -16.5036,-79.4986 -49.3316,-110.499 -33.0072,-30.839 -71.8382,-46.3391 -116.341,-46.3391 -44.9952,0 -83.9963,15.5001 -116.995,46.3391 -32.837,31.0003 -49.3316,67.8332 -49.3316,110.499l0 416.165 77.9934 0 0 -408.666c0,-26.3323 8.33244,-48.3371 25.1675,-65.9965 16.6649,-17.5071 37.6662,-26.3413 63.1653,-26.3413 25.0063,0 45.8374,8.83418 62.5022,26.3413 16.8351,17.6594 25.1675,39.6642 25.1675,65.9965l0 408.666 78.0024 0 0 -416.165zm-62.0005 540.166l-69.3384 -89.9993 -74.6604 0 65.8263 89.9993 78.1726 0z"
     id="path690" /></glyph>&#10;   <glyph
   unicode="é"
   horiz-adv-x="290"
   id="glyph696"><path
     d="M280.669 0l-48.8388 0c-62.8337,0 -114.495,16.8351 -154.831,50.3351 -41.3307,34.163 -62.0005,78.8356 -62.0005,133.83 0,70.0014 35.9997,122.505 107.838,157.671 -33.1685,23.5011 -49.8334,53.4978 -49.8334,90.3308 0,39.1625 16.6649,71.8292 49.8334,98.1704 31.6633,24.4956 67.8332,36.6627 108.994,36.6627l48.8388 0 0 -71.9994 -48.6686 0c-19.4961,0 -37.1645,-5.67143 -52.6646,-17.1666 -16.8351,-12.3374 -25.3378,-27.6673 -25.3378,-45.8374 0,-18.1611 8.50267,-33.3297 25.3378,-45.3267 15.1686,-11.1726 32.828,-16.6738 52.4944,-16.6738l29.3338 0 0 -71.9994 -29.3338 0c-38.6607,0 -71.1662,-10.1602 -97.3282,-30.6598 -27.6673,-21.5031 -41.5009,-49.1703 -41.5009,-83.0018 0,-33.8315 13.1617,-61.006 39.5029,-81.5056 26.3323,-20.4996 59.5008,-30.83 99.3262,-30.83l48.8388 0 0 -71.9994zm31.3318 691.001l-69.3295 -89.9993 -74.6694 0 65.8352 89.9993 78.1636 0z"
     id="path694" /></glyph>&#10;   <glyph
   unicode="Ø"
   horiz-adv-x="782"
   id="glyph700"><path
     d="M756.997 349.998c0,-98.0002 -35.6682,-182.167 -107.166,-252.5 -71.4977,-70.3329 -157.662,-105.499 -258.664,-105.499 -37.9977,0 -77.6709,6.99746 -119.172,21.1716l-19.9978 -40.1749 -83.0018 0 35.1665 69.8402c-54.9941,32.4965 -98.493,75.6639 -130.326,129.493 -32.5055,55.003 -48.8388,114.172 -48.8388,177.669 0,97.6687 35.6682,181.665 107.166,251.837 71.5066,70.1627 157.832,105.168 259.004,105.168 43.3287,0 86.0033,-7.66943 127.997,-22.9993l15.1686 41.9937 83.0018 0 -31.3318 -75.1622c52.8259,-32.9982 94.3268,-75.5026 124.664,-128.006 30.83,-53.6591 46.3301,-111.332 46.3301,-172.831zm-83.9963 0.170233c0,96.9967 -40.6677,173.333 -122.164,228.999l-243.675 -496.004c27.0043,-8.1622 55.003,-12.1672 84.0053,-12.1672 77.5006,0 143.829,27.1745 199.002,81.5056 55.1643,54.3311 82.8316,120.328 82.8316,197.667zm-189.003 261.665c-32.4965,11.4952 -63.4968,17.1666 -92.8305,17.1666 -77.6709,0 -144.169,-27.1655 -199.333,-81.3353 -55.1643,-54.1608 -82.8316,-119.996 -82.8316,-197.497 0,-49.1703 11.9969,-94.8375 36.161,-136.831 22.9993,-40.3362 54.8328,-73.0029 95.169,-98.1704l243.666 496.667z"
     id="path698" /></glyph>&#10;   <glyph
   unicode="Ç"
   horiz-adv-x="423"
   id="glyph704"><path
     d="M423.996 -73.8361c0,-19.1646 -8.82522,-34.163 -26.3323,-45.1654 -14.9984,-9.33591 -32.828,-13.9949 -53.3276,-13.9949 -24.3343,0 -49.5018,8.66394 -75.1711,26.0008l23.8326 32.828c17.6684,-9.16568 32.0037,-13.8336 43.0061,-13.8336 13.3319,0 19.9978,4.49772 19.9978,13.6724 0,8.82522 -6.66595,13.3319 -19.9978,13.3319 -4.50668,0 -14.1741,-1.33498 -28.841,-4.00495l-29.1635 18.1701 37.9977 47.8354c-83.3333,17.1666 -152.663,58.4973 -207.997,124.001 -55.3346,65.3245 -83.0018,140.496 -83.0018,224.994 0,99.0037 36.5015,183.332 109.334,253.001 71.6679,68.6665 157.34,103 256.997,103 5.5012,0 16.3334,-0.663011 32.6667,-1.99799l0 -78.0024c-14.3264,1.33498 -25.1586,1.99799 -32.6667,1.99799 -77.8321,0 -144.33,-26.9953 -199.495,-80.8336 -55.1643,-53.8293 -82.8316,-119.494 -82.8316,-196.995 0,-79.4986 28.5005,-145.836 85.5016,-199.333 55.9976,-52.6646 123.831,-79.0058 203.661,-79.0058 9.00441,0 17.6684,0.340465 25.8306,1.17371l0 -80.0004c-22.8291,0 -40.3272,0 -52.8259,0l-14.1741 -17.0053c44.6726,0 67,-16.6649 67,-49.8334z"
     id="path702" /></glyph>&#10;   <glyph
   unicode="¶"
   horiz-adv-x="500"
   id="glyph708"><path
     d="M473.336 673.996l-57.3325 0 0 -673.996 -63.004 0 0 673.996 -81.9984 0 0 -673.996 -63.9985 0 0 382.665c-52.6735,1.99799 -95.3392,17.3368 -127.836,45.9986 -34.835,30.5075 -52.1628,71.5066 -52.1628,123.006 0,51.6611 17.3279,93.0008 51.8313,124.001 34.4945,30.83 80.8336,46.3301 139.161,46.3301l255.34 0 0 -48.0056z"
     id="path706" /></glyph>&#10;   <glyph
   unicode="¥"
   horiz-adv-x="504"
   id="glyph712"><path
     d="M439.997 699.996l-122.998 -330.995 81.0038 0 0 -75.0009 -104.003 0 0 -22.0048 104.003 0 0 -76.9989 -104.003 0 0 -194.997 -81.9984 0 0 194.997 -106.001 0 0 76.9989 106.001 0 0 22.0048 -106.001 0 0 75.0009 81.9984 0 -122.998 330.995 83.0018 0 103.994 -281 104.003 281 83.9963 0z"
     id="path710" /></glyph>&#10;   <glyph
   unicode=""
   horiz-adv-x="500"
   id="glyph716"><path
     d="M62.0005 0l0 841.003 374.996 0 0 -841.003 -374.996 0zm63.004 63.004l248.997 0 0 714.995 -248.997 0 0 -714.995z"
     id="path714" /></glyph>&#10;   <glyph
   unicode=""
   horiz-adv-x="500"
   id="glyph720"><path
     d="M62.0005 0l0 841.003 374.996 0 0 -841.003 -374.996 0zm63.004 63.004l248.997 0 0 714.995 -248.997 0 0 -714.995z"
     id="path718" /></glyph>&#10;   <glyph
   unicode="r"
   horiz-adv-x="288"
   id="glyph724"><path
     d="M305.003 0l-87.168 0 -104.836 181.163 0 -181.163 -78.0024 0 0 567 39.0012 0c52.8348,0 98.0002,-17.9999 135.666,-54.1698 37.5049,-36.161 56.338,-79.4986 56.338,-129.995 0,-67 -30.839,-119.333 -92.3377,-156.668l131.339 -226.167zm-117.004 382.835c0,23.9938 -6.83618,45.6671 -20.6698,65.002 -13.8336,19.1646 -31.9948,32.828 -54.3311,40.9992l0 -212.002c22.3363,8.1622 40.4974,21.8346 54.3311,40.9992 13.8336,19.3348 20.6698,40.8379 20.6698,65.002z"
     id="path722" /></glyph>&#10;   <glyph
   unicode="a"
   horiz-adv-x="313"
   id="glyph728"><path
     d="M326.336 0l-79.0058 0 -40.1659 148.998 -101.002 0 -39.9957 -148.998 -79.1671 0 168.996 609.003 170.34 -609.003zm-138.166 220.998l-32.174 127.173 -30.83 -127.173 63.004 0z"
     id="path726" /></glyph>&#10;   <glyph
   unicode="P"
   horiz-adv-x="359"
   id="glyph732"><path
     d="M344.999 473.999c0,-59.8323 -21.6643,-111.502 -64.8317,-155.001 -43.3376,-43.4989 -96.0022,-66.4982 -158.164,-68.998l0 -250 -82.0073 0 0 699.996 72.6714 0c64.1687,0 118.831,-22.3273 164.337,-67.1612 45.3267,-44.6726 67.9945,-97.6687 67.9945,-158.836zm-81.9984 0.170233c0,39.6642 -13.6634,73.8272 -41.1694,102.166 -27.497,28.5005 -60.8268,44.1619 -99.828,46.6616l0 -296.832c39.0012,2.66996 72.3309,17.9999 99.828,46.1689 27.506,28.169 41.1694,62.0005 41.1694,101.835z"
     id="path730" /></glyph>&#10;   <glyph
   unicode="?"
   horiz-adv-x="317"
   id="glyph736"><path
     d="M292.997 480.002c0,-47.8354 -14.6669,-91.5045 -44.1619,-130.837 -29.504,-39.494 -68.0034,-66.8297 -115.839,-82.1686l0 -142.995 -81.9984 0 0 207.997c45.5059,0.331506 83.5036,14.6669 114.172,43.0061 30.4985,28.3303 45.8284,63.3265 45.8284,104.998 0,41.6622 -15.3299,76.8287 -45.8284,105.329 -30.6687,28.6708 -68.6665,43.1674 -114.172,43.4989l0 77.1691c68.3349,0 125.667,-22.1661 172.168,-66.6685 46.5004,-44.3322 69.8312,-97.4985 69.8312,-159.329zm-152 -437.999c0,-12.1672 -4.66796,-23.1696 -13.8336,-32.9982 -9.32695,-10.0079 -20.8311,-15.0073 -34.3332,-15.0073 -13.3319,0 -24.6658,4.99946 -33.9928,15.0073 -9.17464,9.82869 -13.8336,20.8311 -13.8336,32.9982 0,11.9969 4.659,22.9993 13.8336,32.4965 9.32695,9.66742 20.6609,14.4966 33.9928,14.4966 13.5021,0 25.0063,-4.82923 34.3332,-14.4966 9.16568,-9.49719 13.8336,-20.4996 13.8336,-32.4965z"
     id="path734" /></glyph>&#10;   <glyph
   unicode="."
   horiz-adv-x="166"
   id="glyph740"><path
     d="M130.998 39.9957c0,-11.6654 -4.49772,-22.3273 -13.6634,-31.8335 -9.16568,-9.49719 -20.6698,-14.1651 -34.3332,-14.1651 -13.6724,0 -25.1675,4.66796 -34.3332,14.1651 -9.16568,9.50615 -13.6724,20.1681 -13.6724,31.8335 0,11.8356 4.50668,22.5065 13.6724,32.3352 9.16568,9.83765 20.6609,14.6669 34.3332,14.6669 13.6634,0 25.1675,-4.82923 34.3332,-14.6669 9.16568,-9.82869 13.6634,-20.4996 13.6634,-32.3352z"
     id="path738" /></glyph>&#10;   <glyph
   unicode="÷"
   horiz-adv-x="833"
   id="glyph744"><path
     d="M483.998 483.004c0,-18.8331 -6.33444,-34.6737 -18.9944,-47.1723 -12.8391,-12.4987 -28.841,-18.8331 -48.0056,-18.8331 -19.1646,0 -35.1665,6.33444 -47.9966,18.8331 -12.6689,12.4987 -19.0033,28.3392 -19.0033,47.1723 0,18.6629 6.50468,34.4945 19.5051,47.9966 13.1617,13.3319 28.9933,19.9978 47.4949,19.9978 18.6718,0 34.3332,-6.66595 47.5039,-19.9978 13.0004,-13.5021 19.4961,-29.3338 19.4961,-47.9966zm225.003 -225.003l-585 0 0 80.9949 585 0 0 -80.9949zm-225.003 -146.167c0,-18.8331 -6.33444,-34.5035 -18.9944,-47.0021 -12.8391,-12.4987 -28.841,-18.8331 -48.0056,-18.8331 -19.1646,0 -35.1665,6.33444 -47.9966,18.8331 -12.6689,12.4987 -19.0033,28.169 -19.0033,47.0021 0,18.1701 6.66595,33.8315 19.8366,47.1634 13.1617,13.3319 28.832,20.0068 47.1634,20.0068 18.3314,0 34.0017,-6.67491 47.1723,-20.1681 13.1617,-13.5021 19.8276,-29.1725 19.8276,-47.0021z"
     id="path742" /></glyph>&#10;   <glyph
   unicode="æ"
   horiz-adv-x="487"
   id="glyph748"><path
     d="M469 0l-48.8299 0c-35.1665,0 -67.8332,6.00294 -98.1704,17.9999l5.33097 -17.9999 -78.9969 0 -40.1659 148.998 -101.002 0 -39.9957 -148.998 -79.1671 0 168.996 588.001 88.3328 -295.999c16.0019,19.4961 37.9977,36.161 66.0054,49.8334 -33.5,23.5011 -50.3351,53.4978 -50.3351,90.3308 0,39.1625 16.8351,71.8292 50.3351,98.1704 31.493,24.4956 67.8332,36.6627 108.832,36.6627l48.8299 0 0 -71.9994 -48.4984 0c-19.3348,0 -36.833,-5.67143 -52.3331,-17.1666 -16.8351,-12.3374 -25.1675,-27.6673 -25.1675,-45.8374 0,-18.1611 8.33244,-33.3297 25.1675,-45.3267 15.1686,-11.1726 32.4965,-16.6738 52.1628,-16.6738l29.1725 0 0 -71.9994 -29.3338 0c-39.1714,0 -71.6679,-10.1602 -97.6687,-30.3283 -27.6673,-21.1716 -41.5009,-48.6686 -41.5009,-82.6703 0,-33.8315 13.1706,-60.997 39.5029,-81.4966 26.3323,-20.3383 59.662,-30.4985 99.6667,-30.4985l48.8299 0 0 -73.0029zm-279.836 220.998l-32.165 141.84 -30.83 -141.84 62.995 0z"
     id="path746" /></glyph>&#10;   <glyph
   unicode="Õ"
   horiz-adv-x="782"
   id="glyph752"><path
     d="M756.997 349.998c0,-97.6687 -35.6682,-181.665 -107.166,-251.828 -71.4977,-70.1717 -157.662,-105.168 -258.503,-105.168 -101.333,0 -187.659,34.9962 -259.166,105.168 -71.4977,70.1627 -107.166,154.159 -107.166,251.828 0,97.6687 35.6682,181.504 107.166,251.335 71.5066,69.8312 157.832,104.666 259.166,104.666 100.84,0 187.005,-34.835 258.503,-104.666 71.4977,-69.8312 107.166,-153.666 107.166,-251.335zm-83.9963 -0.331506c0,77.3304 -27.497,143.004 -82.5001,197.165 -55.003,54.1698 -121.501,81.1651 -199.172,81.1651 -77.8321,0 -144.33,-26.9953 -199.495,-81.1651 -55.1643,-54.1608 -82.8316,-119.835 -82.8316,-197.165 0,-77.5006 27.6673,-143.497 82.8316,-197.998 55.1643,-54.5013 121.663,-81.6668 199.495,-81.6668 77.3394,0 143.667,27.1655 198.841,81.6668 55.1643,54.5013 82.8316,120.498 82.8316,197.998zm-171.998 462.504c0,-16.3334 -7.16769,-30.5075 -21.5031,-42.8359 -14.1651,-12.1672 -31.502,-18.3314 -51.6701,-18.3314 -24.3343,0 -47.4949,12.1672 -69.661,36.3312 -7.49919,7.8307 -12.8391,11.6654 -16.0019,11.6654 -9.83765,0 -14.4966,-9.00441 -14.1651,-27.0043 0.161273,-2.83124 0.161273,-9.82869 0,-20.9924l-58.999 0 0 33.8315c0,16.3334 7.16769,30.6687 21.4941,43.3287 14.1651,12.4987 31.502,18.8331 51.6701,18.8331 24.6658,0 47.4949,-12.1672 68.6665,-36.6627 7.16769,-8.17116 12.8302,-12.3374 16.9964,-12.3374 9.83765,0 14.5056,9.33591 14.1741,28.0077 0.161273,3.16274 0.161273,10.1602 0,20.9924l58.999 0 0 -34.826z"
     id="path750" /></glyph>&#10;   <glyph
   unicode="Ä"
   horiz-adv-x="388"
   id="glyph756"><path
     d="M395.836 0l-83.0018 0 -49.8334 186.996 -138.166 0 -49.8334 -186.996 -83.0018 0 201.672 725.997 202.165 -725.997zm-152.833 264.004l-49.3316 205.166 -49.8334 -205.166 99.165 0zm63.9985 532.998c0,-11.8356 -4.49772,-22.5065 -13.6634,-32.3352 -9.17464,-9.83765 -20.6698,-14.6669 -34.3332,-14.6669 -13.6724,0 -25.1675,4.82923 -34.3422,14.6669 -9.16568,9.82869 -13.6634,20.4996 -13.6634,32.3352 0,11.6654 4.49772,22.3273 13.6634,31.8335 9.17464,9.49719 20.6698,14.1651 34.3422,14.1651 13.6634,0 25.1586,-4.66796 34.3332,-14.1651 9.16568,-9.50615 13.6634,-20.1681 13.6634,-31.8335zm-127.997 0c0,-11.8356 -4.50668,-22.5065 -13.6724,-32.3352 -9.16568,-9.83765 -20.6609,-14.6669 -34.3332,-14.6669 -13.6634,0 -25.1675,4.82923 -34.3332,14.6669 -9.16568,9.82869 -13.6634,20.4996 -13.6634,32.3352 0,11.6654 4.49772,22.3273 13.6634,31.8335 9.16568,9.49719 20.6698,14.1651 34.3332,14.1651 13.6724,0 25.1675,-4.66796 34.3332,-14.1651 9.16568,-9.50615 13.6724,-20.1681 13.6724,-31.8335z"
     id="path754" /></glyph>&#10;   <glyph
   unicode="³"
   horiz-adv-x="306"
   id="glyph760"><path
     d="M282.004 470.164c0,-32.828 -12.8391,-60.997 -38.3382,-84.1666 -25.6693,-23.3308 -56.4993,-34.9962 -92.6692,-34.9962 -55.3256,0 -98.9947,31.0003 -130.998,92.8305l72.8327 0c16.3334,-21.1626 35.6682,-31.8335 58.1658,-31.8335 17.8386,0 33.0072,5.5012 45.5059,16.6649 12.3284,11.0024 18.5016,24.836 18.5016,41.5009 0,17.1666 -7.00642,31.0003 -21.0013,41.5009 -15.3389,11.3339 -36.3402,16.8351 -63.1653,16.1721l0 61.9915 25.8306 0c6.16421,0 11.9969,2.8402 17.3279,8.50267 5.33993,5.83271 8.00093,12.6689 8.00093,20.8311 0,19.1736 -10.3304,28.841 -31.1615,28.841 -16.0019,0 -27.506,-10.0079 -34.6647,-29.8355l-66.337 0c14.0039,59.8323 47.6651,89.8291 101.002,89.8291 26.9953,0 50.1649,-8.66394 69.3295,-26.1621 19.1646,-17.3368 28.832,-38.3382 28.832,-62.6725 0,-19.8276 -6.66595,-37.9977 -19.9978,-54.3311 35.3367,-24.6658 53.0051,-56.1678 53.0051,-94.6672z"
     id="path758" /></glyph>&#10;   <glyph
   unicode="¢"
   horiz-adv-x="504"
   id="glyph764"><path
     d="M400.996 58.999c-25.3288,-1.83672 -36.6627,-2.83124 -34.4945,-2.83124 -25.1675,0 -51.6701,3.50321 -79.4986,10.6619l0 -66.8297 -82.0073 0 0 101.996c-43.8304,27.0043 -78.1636,62.6725 -103,107.005 -24.6658,44.1619 -36.9942,91.164 -36.9942,140.997 0,49.5018 12.4987,96.1725 37.3347,140.164 24.8271,43.8394 59.1603,79.5076 102.659,106.834l0 103 82.0073 0 0 -68.1647c29.1635,8.17116 55.6661,12.1672 79.4986,12.1672 6.16421,0 17.6684,-0.663011 34.4945,-1.99799l0 -78.9969c-22.1661,1.99799 -33.8315,2.99251 -34.6647,2.99251 -60.0025,0 -111.162,-20.9924 -153.666,-62.995 -42.4954,-42.0027 -63.667,-93.0008 -63.667,-152.833 0,-61.4988 21.8346,-112.667 65.5037,-153.335 43.4989,-40.6677 97.4985,-60.997 161.999,-60.997 8.1622,0 16.3334,0.331506 24.4956,1.16475l0 -78.0024z"
     id="path762" /></glyph>&#10;   <glyph
   unicode=""
   horiz-adv-x="500"
   id="glyph768"><path
     d="M62.0005 0l0 841.003 374.996 0 0 -841.003 -374.996 0zm63.004 63.004l248.997 0 0 714.995 -248.997 0 0 -714.995z"
     id="path766" /></glyph>&#10;   <glyph
   unicode=""
   horiz-adv-x="500"
   id="glyph772"><path
     d="M62.0005 0l0 841.003 374.996 0 0 -841.003 -374.996 0zm63.004 63.004l248.997 0 0 714.995 -248.997 0 0 -714.995z"
     id="path770" /></glyph>&#10;   <glyph
   unicode="o"
   horiz-adv-x="638"
   id="glyph776"><path
     d="M617.998 282.004c0,-79.3373 -29.3338,-147.171 -88.1626,-203.5 -58.6675,-56.338 -129.332,-84.507 -212.002,-84.507 -82.3299,0 -152.663,28.169 -210.667,84.507 -58.1658,56.3291 -87.168,124.162 -87.168,203.5 0,79.1671 29.0023,147.332 87.168,204.826 58.0045,57.5028 128.337,86.1735 210.667,86.1735 82.6703,0 153.335,-28.6708 212.002,-86.1735 58.8288,-57.4938 88.1626,-125.659 88.1626,-204.826zm-80.0004 0.331506c0,60.1638 -21.6643,111.502 -65.002,153.998 -43.1584,42.5044 -94.9987,63.667 -155.163,63.667 -60.334,0 -111.664,-21.1626 -154.168,-63.667 -42.4954,-42.4954 -63.667,-93.834 -63.667,-153.998 0,-60.5042 21.1716,-111.673 63.667,-153.165 42.5044,-41.5009 93.834,-62.1707 154.168,-62.1707 60.5042,0 112.336,20.8311 155.503,62.5022 43.1674,41.6622 64.6615,92.499 64.6615,152.833z"
     id="path774" /></glyph>&#10;   <glyph
   unicode="^"
   horiz-adv-x="1000"
   id="glyph780"><path
     d="M795.004 439.003l-101.172 0 -193.832 193.832 -194.836 -193.832 -101.163 0 242.832 273.994 106.333 0 241.838 -273.994z"
     id="path778" /></glyph>&#10;   <glyph
   unicode="M"
   horiz-adv-x="705"
   id="glyph784"><path
     d="M713.669 0l-81.9984 0 -122.173 473.166 -156.668 -491.166 -158.164 491.166 -119.665 -473.166 -83.0018 0 200.668 735.996 160.162 -539.162 159.167 539.162 201.672 -735.996z"
     id="path782" /></glyph>&#10;   <glyph
   unicode="&lt;"
   horiz-adv-x="833"
   id="glyph788"><path
     d="M704.001 22.9993l-575.001 235.665 0 78.1726 575.001 237.161 0 -90.3308 -455.838 -185.831 455.838 -186.002 0 -88.8345z"
     id="path786" /></glyph>&#10;   <glyph
   unicode="+"
   horiz-adv-x="833"
   id="glyph792"><path
     d="M707.997 258.001l-250.995 0 0 -258.001 -81.9984 0 0 258.001 -251.003 0 0 80.9949 251.003 0 0 257.006 81.9984 0 0 -257.006 250.995 0 0 -80.9949z"
     id="path790" /></glyph>&#10;   <glyph
   unicode="ô"
   horiz-adv-x="638"
   id="glyph796"><path
     d="M617.998 282.004c0,-79.3373 -29.3338,-147.171 -88.1626,-203.5 -58.6675,-56.338 -129.332,-84.507 -212.002,-84.507 -82.3299,0 -152.663,28.169 -210.667,84.507 -58.1658,56.3291 -87.168,124.162 -87.168,203.5 0,79.1671 29.0023,147.332 87.168,204.826 58.0045,57.5028 128.337,86.1735 210.667,86.1735 82.6703,0 153.335,-28.6708 212.002,-86.1735 58.8288,-57.4938 88.1626,-125.659 88.1626,-204.826zm-80.0004 0.331506c0,60.1638 -21.6643,111.502 -65.002,153.998 -43.1584,42.5044 -94.9987,63.667 -155.163,63.667 -60.334,0 -111.664,-21.1626 -154.168,-63.667 -42.4954,-42.4954 -63.667,-93.834 -63.667,-153.998 0,-60.5042 21.1716,-111.673 63.667,-153.165 42.5044,-41.5009 93.834,-62.1707 154.168,-62.1707 60.5042,0 112.336,20.8311 155.503,62.5022 43.1674,41.6622 64.6615,92.499 64.6615,152.833zm-122.998 318.666l-72.1697 0 -26.834 33.8315 -26.834 -33.8315 -74.1587 0 65.8263 89.9993 68.3349 0 65.8352 -89.9993z"
     id="path794" /></glyph>&#10;   <glyph
   unicode="ã"
   horiz-adv-x="313"
   id="glyph800"><path
     d="M326.336 0l-79.0058 0 -40.1659 148.998 -101.002 0 -39.9957 -148.998 -79.1671 0 168.996 609.003 170.34 -609.003zm-138.166 220.998l-32.174 127.173 -30.83 -127.173 63.004 0zm87.8311 441.171c0,-16.3334 -7.16769,-30.4985 -21.5031,-42.8359 -14.1651,-12.1672 -31.502,-18.3314 -51.6611,-18.3314 -24.3343,0 -47.5039,12.1672 -69.6699,36.3312 -7.49919,7.8307 -12.8302,11.6654 -16.0019,11.6654 -9.82869,0 -14.4966,-8.99545 -14.1651,-26.9953 0.170233,-2.8402 0.170233,-9.83765 0,-21.0013l-58.999 0 0 33.8315c0,16.3334 7.16769,30.6687 21.5031,43.3376 14.1651,12.4987 31.493,18.8331 51.6611,18.8331 24.6658,0 47.5039,-12.1672 68.6665,-36.6717 7.16769,-8.1622 12.8391,-12.3284 17.0053,-12.3284 9.82869,0 14.4966,9.32695 14.1651,27.9988 0.161273,3.16274 0.161273,10.1602 0,21.0013l58.999 0 0 -34.835z"
     id="path798" /></glyph>&#10;   <glyph
   unicode="Ò"
   horiz-adv-x="782"
   id="glyph804"><path
     d="M756.997 349.998c0,-97.6687 -35.6682,-181.665 -107.166,-251.828 -71.4977,-70.1717 -157.662,-105.168 -258.503,-105.168 -101.333,0 -187.659,34.9962 -259.166,105.168 -71.4977,70.1627 -107.166,154.159 -107.166,251.828 0,97.6687 35.6682,181.504 107.166,251.335 71.5066,69.8312 157.832,104.666 259.166,104.666 100.84,0 187.005,-34.835 258.503,-104.666 71.4977,-69.8312 107.166,-153.666 107.166,-251.335zm-83.9963 -0.331506c0,77.3304 -27.497,143.004 -82.5001,197.165 -55.003,54.1698 -121.501,81.1651 -199.172,81.1651 -77.8321,0 -144.33,-26.9953 -199.495,-81.1651 -55.1643,-54.1608 -82.8316,-119.835 -82.8316,-197.165 0,-77.5006 27.6673,-143.497 82.8316,-197.998 55.1643,-54.5013 121.663,-81.6668 199.495,-81.6668 77.3394,0 143.667,27.1655 198.841,81.6668 55.1643,54.5013 82.8316,120.498 82.8316,197.998zm-245.001 401.337l-71.8382 0 -73.1642 89.9993 79.1671 0 65.8352 -89.9993z"
     id="path802" /></glyph>&#10;   <glyph
   unicode="Á"
   horiz-adv-x="388"
   id="glyph808"><path
     d="M395.836 0l-83.0018 0 -49.8334 186.996 -138.166 0 -49.8334 -186.996 -83.0018 0 201.672 725.997 202.165 -725.997zm-152.833 264.004l-49.3316 205.166 -49.8334 -205.166 99.165 0zm53.9996 576.999l-69.3384 -89.9993 -74.6604 0 65.8263 89.9993 78.1726 0z"
     id="path806" /></glyph>&#10;   <glyph
   unicode="°"
   horiz-adv-x="329"
   id="glyph812"><path
     d="M308.999 568.003c0,-40.0047 -13.9949,-74.0064 -42.0027,-102.005 -27.9988,-27.9988 -62.332,-42.0027 -103,-42.0027 -39.3327,0 -72.9939,14.0039 -100.993,42.1729 -28.0077,28.169 -42.0027,62.1618 -42.0027,101.835 0,40.6677 13.8336,75.0009 41.5009,103 27.6673,27.9988 61.8303,41.9937 102.498,41.9937 39.3327,0 73.1642,-14.1651 101.503,-42.4954 28.3303,-28.3303 42.4954,-62.5022 42.4954,-102.498zm-53.9996 0.833244c0,25.6603 -8.66394,46.9932 -26.0008,64.33 -17.1666,17.1666 -38.4994,25.8306 -63.9985,25.8306 -25.1675,0 -46.5004,-8.66394 -64.33,-26.1621 -17.8386,-17.3368 -26.6728,-38.6697 -26.6728,-63.9985 0,-24.836 9.00441,-46.1689 26.834,-64.0075 17.9999,-17.8296 39.3327,-26.8251 64.1687,-26.8251 25.1675,0 46.3301,8.82522 63.8372,26.6638 17.4981,17.6684 26.1621,39.0012 26.1621,64.1687z"
     id="path810" /></glyph>&#10;   <glyph
   unicode=""
   horiz-adv-x="500"
   id="glyph816"><path
     d="M62.0005 0l0 841.003 374.996 0 0 -841.003 -374.996 0zm63.004 63.004l248.997 0 0 714.995 -248.997 0 0 -714.995z"
     id="path814" /></glyph>&#10;   <glyph
   unicode=""
   horiz-adv-x="500"
   id="glyph820"><path
     d="M62.0005 0l0 841.003 374.996 0 0 -841.003 -374.996 0zm63.004 63.004l248.997 0 0 714.995 -248.997 0 0 -714.995z"
     id="path818" /></glyph>&#10;   <glyph
   unicode="}"
   horiz-adv-x="500"
   id="glyph824"><path
     d="M421.998 217.002c-7.16769,0 -10.8322,0 -10.8322,0 -9.66742,0 -13.1617,0 -10.1692,0 -42.6657,0 -72.6624,-10.8322 -89.9993,-32.6667 -15.3299,-19.3348 -22.9993,-50.9981 -22.9993,-95.3392l0 -121c0,-37.8275 -1.99799,-64.8317 -5.83271,-81.1651 -6.82722,-29.495 -21.6643,-51.1683 -44.5024,-64.8317 -14.9984,-8.83418 -32.4965,-14.9984 -52.6646,-18.6629 -18.9944,-3.50321 -48.3281,-5.33993 -88.0013,-5.33993l-21.9958 0 0 84.9998c-3.00147,0 0.663011,0 10.8322,0 0,0 3.66448,0 11.1637,0 35.8384,0 60.0025,6.83618 72.3399,20.4996 12.4987,13.6724 18.6629,42.1729 18.6629,85.5016l0 117.165c0,45.1744 5.83271,78.5041 17.4981,99.6667 14.6669,25.6693 42.1729,43.3376 82.3388,53.1753 -37.6662,9.49719 -63.667,24.6658 -78.1726,45.6582 -14.4966,21.0013 -21.6643,56.8398 -21.6643,107.668l0 117.667c0,39.6732 -5.1697,66.6685 -15.6704,80.5021 -12.3284,16.3334 -37.1645,24.5045 -74.3289,24.5045 3.33297,0 -0.501738,0 -11.3339,0 0,0 -3.83471,0 -11.6654,0l0 85.9943 21.9958 0c39.6732,0 69.0069,-1.82776 88.0013,-5.33097 48.1669,-8.50267 78.6654,-30.4985 91.836,-65.8352 7.49919,-19.8276 11.1637,-53.1663 11.1637,-99.9982l0 -120.498c0,-46.5004 8.50267,-79.3373 25.4991,-98.502 16.8351,-19.1646 46.0076,-28.832 87.4996,-28.832 6.83618,0 10.1692,0 10.1692,0 6.66595,0.663011 10.1692,0.994517 10.8322,0.994517l0 -85.9943z"
     id="path822" /></glyph>&#10;   <glyph
   unicode="l"
   horiz-adv-x="213"
   id="glyph828"><path
     d="M213.669 0l-178.673 0 0 567 78.0024 0 0 -495.001 100.67 0 0 -71.9994z"
     id="path826" /></glyph>&#10;   <glyph
   unicode="["
   horiz-adv-x="248"
   id="glyph832"><path
     d="M228.165 -63.004l-178.162 0 0 826.004 178.162 0 0 -76.9989 -96.1635 0 0 -671.998 96.1635 0 0 -77.0078z"
     id="path830" /></glyph>&#10;   <glyph
   unicode="J"
   horiz-adv-x="244"
   id="glyph836"><path
     d="M204.996 183.833c0,-52.6646 -19.8276,-97.3372 -59.4918,-134.17 -40.8379,-37.8275 -90.501,-56.6606 -149.5,-56.6606l0 76.9989c36.4925,0.331506 66.8297,11.3339 90.8325,32.9982 24.1641,21.5031 36.161,48.6686 36.161,81.1651l0 515.832 81.9984 0 0 -516.163z"
     id="path834" /></glyph>&#10;   <glyph
   unicode="9"
   horiz-adv-x="504"
   id="glyph840"><path
     d="M488.003 477.001c0,-96.6652 -20.3383,-185.5 -61.006,-266.504 -42.1639,-83.6648 -103.663,-153.828 -184.165,-210.497l-164.83 0c143.327,65.5037 240.664,158.003 291.994,277.838 -37.3257,-20.5085 -76.4972,-30.839 -117.165,-30.839 -65.1632,0 -120.668,22.6678 -166.667,68.1647 -46.1689,45.3356 -69.1682,99.3352 -69.1682,161.837 0,62.5022 22.9993,116.332 69.0069,161.336 45.9986,45.1654 101.494,67.663 166.496,67.663 66.6685,0 122.505,-22.1661 167.67,-66.6685 45.1654,-44.3322 67.8332,-98.502 67.8332,-162.33zm-82.0073 0c0,42.0027 -14.9984,77.6619 -44.9952,106.996 -29.9968,29.3338 -65.9965,44.0006 -107.999,44.0006 -41.6711,0 -77.5006,-14.4966 -107.336,-43.6602 -29.8355,-29.1725 -44.6637,-65.002 -44.6637,-107.336 0,-42.3342 14.8282,-78.3339 44.6637,-107.838 29.8355,-29.495 65.665,-44.1619 107.336,-44.1619 42.0027,0 78.0024,14.6669 107.999,44.1619 29.9968,29.504 44.9952,65.5037 44.9952,107.838z"
     id="path838" /></glyph>&#10;   <glyph
   unicode="("
   horiz-adv-x="230"
   id="glyph844"><path
     d="M242.331 -63.004l-84.9998 0c-87.4996,111.673 -131.33,249.337 -131.33,413.002 0,163.665 43.8304,301.339 131.33,413.002l84.9998 0c-44.0006,-55.3346 -77.8321,-121.672 -101.665,-199.163 -21.8346,-71.0049 -32.6667,-142.171 -32.6667,-213.839 0,-71.6679 10.8322,-142.834 32.6667,-213.83 23.8326,-77.5006 57.6641,-143.838 101.665,-199.172z"
     id="path842" /></glyph>&#10;   <glyph
   unicode="ñ"
   horiz-adv-x="351"
   id="glyph848"><path
     d="M317 0l-73.6659 0 -130.335 346.163 0 -346.163 -78.0024 0 0 567 73.8361 0 130.165 -345.832 0 345.832 78.0024 0 0 -567zm-21.0013 662.169c0,-16.3334 -7.16769,-30.4985 -21.5031,-42.8359 -14.1651,-12.1672 -31.493,-18.3314 -51.6611,-18.3314 -24.3343,0 -47.5039,12.1672 -69.6699,36.3312 -7.49919,7.8307 -12.8302,11.6654 -16.0019,11.6654 -9.82869,0 -14.4966,-8.99545 -14.1651,-26.9953 0.170233,-2.8402 0.170233,-9.83765 0,-21.0013l-58.999 0 0 33.8315c0,16.3334 7.16769,30.6687 21.5031,43.3376 14.1651,12.4987 31.502,18.8331 51.6611,18.8331 24.6748,0 47.5039,-12.1672 68.6665,-36.6717 7.16769,-8.1622 12.8391,-12.3284 17.0053,-12.3284 9.82869,0 14.4966,9.32695 14.1651,27.9988 0.170233,3.16274 0.170233,10.1602 0,21.0013l58.999 0 0 -34.835z"
     id="path846" /></glyph>&#10;   <glyph
   unicode="à"
   horiz-adv-x="313"
   id="glyph852"><path
     d="M326.336 0l-79.0058 0 -40.1659 148.998 -101.002 0 -39.9957 -148.998 -79.1671 0 168.996 609.003 170.34 -609.003zm-138.166 220.998l-32.174 127.173 -30.83 -127.173 63.004 0zm9.82869 380.004l-71.8292 0 -73.1731 89.9993 79.1671 0 65.8352 -89.9993z"
     id="path850" /></glyph>&#10;   <glyph
   unicode="Ï"
   horiz-adv-x="162"
   id="glyph856"><path
     d="M122.003 0l-82.0073 0 0 699.996 82.0073 0 0 -699.996zm70.0014 797.002c0,-11.8356 -4.50668,-22.5065 -13.6724,-32.3352 -9.16568,-9.83765 -20.6698,-14.6669 -34.3332,-14.6669 -13.6634,0 -25.1675,4.82923 -34.3332,14.6669 -9.16568,9.82869 -13.6634,20.4996 -13.6634,32.3352 0,11.6654 4.49772,22.3273 13.6634,31.8335 9.16568,9.49719 20.6698,14.1651 34.3332,14.1651 13.6634,0 25.1675,-4.66796 34.3332,-14.1651 9.16568,-9.50615 13.6724,-20.1681 13.6724,-31.8335zm-128.006 0c0,-11.8356 -4.49772,-22.5065 -13.6634,-32.3352 -9.16568,-9.83765 -20.6698,-14.6669 -34.3332,-14.6669 -13.6724,0 -25.1675,4.82923 -34.3332,14.6669 -9.16568,9.82869 -13.6724,20.4996 -13.6724,32.3352 0,11.6654 4.50668,22.3273 13.6724,31.8335 9.16568,9.49719 20.6609,14.1651 34.3332,14.1651 13.6634,0 25.1675,-4.66796 34.3332,-14.1651 9.16568,-9.50615 13.6634,-20.1681 13.6634,-31.8335z"
     id="path854" /></glyph>&#10;   <glyph
   unicode="¾"
   horiz-adv-x="565"
   id="glyph860"><path
     d="M281 470.164c0,-32.828 -12.8302,-60.997 -38.3292,-84.1666 -25.6693,-23.3308 -56.5083,-34.9962 -92.6692,-34.9962 -55.3346,0 -99.0037,31.0003 -130.998,92.8305l72.8327 0c16.3334,-21.1626 35.6682,-31.8335 58.1658,-31.8335 17.8296,0 32.9982,5.5012 45.4969,16.6649 12.3374,11.0024 18.5016,24.836 18.5016,41.5009 0,17.3368 -6.99746,31.1705 -21.0013,41.6711 -15.3299,11.3339 -36.3312,16.6649 -63.1653,16.0019l0 62.1618 25.8306 0c6.17317,0 12.0059,2.83124 17.3368,8.50267 5.33097,5.66247 8.00093,12.6689 8.00093,20.8311 0,19.1646 -10.3394,28.6708 -31.1705,28.6708 -16.0019,0 -27.497,-10.0079 -34.6647,-30.0057l-66.337 0c14.0039,60.0025 47.6741,89.9993 101.002,89.9993 27.0043,0 50.1649,-8.66394 69.3384,-26.1621 19.1646,-17.3368 28.832,-38.3382 28.832,-62.6725 0,-19.8276 -6.66595,-37.9977 -19.9978,-54.3311 35.3277,-24.6658 52.9961,-56.1678 52.9961,-94.6672zm256.003 229.832l-345.169 -699.996 -72.6714 0 344.667 699.996 73.1731 0zm7.8307 -612.999l-41.8324 0 0 -86.9978 -66.0054 0 0 86.9978 -141.159 0 207.164 297.835 0 -237.833 41.8324 0 0 -60.0025zm-107.838 60.0025l0 37.0032 -24.9973 -37.0032 24.9973 0z"
     id="path858" /></glyph>&#10;   <glyph
   unicode="­"
   horiz-adv-x="352"
   id="glyph864"><path
     d="M313.004 179.999l-273.008 0 0 84.0053 273.008 0 0 -84.0053z"
     id="path862" /></glyph>&#10;   <glyph
   unicode=""
   horiz-adv-x="500"
   id="glyph868"><path
     d="M62.0005 0l0 841.003 374.996 0 0 -841.003 -374.996 0zm63.004 63.004l248.997 0 0 714.995 -248.997 0 0 -714.995z"
     id="path866" /></glyph>&#10;   <glyph
   unicode=""
   horiz-adv-x="500"
   id="glyph872"><path
     d="M62.0005 0l0 841.003 374.996 0 0 -841.003 -374.996 0zm63.004 63.004l248.997 0 0 714.995 -248.997 0 0 -714.995z"
     id="path870" /></glyph>&#10;   <glyph
   unicode="z"
   horiz-adv-x="292"
   id="glyph876"><path
     d="M290.999 567l-184.998 -495.001 181.163 0 0 -71.9994 -286.161 0 184.998 495.001 -155.171 0 0 71.9994 260.169 0z"
     id="path874" /></glyph>&#10;   <glyph
   unicode="i"
   horiz-adv-x="148"
   id="glyph880"><path
     d="M112.999 0l-78.0024 0 0 567 78.0024 0 0 -567z"
     id="path878" /></glyph>&#10;   <glyph
   unicode="X"
   horiz-adv-x="346"
   id="glyph884"><path
     d="M359.997 0l-82.9929 0 -105.007 280.83 -103.994 -280.83 -82.0073 0 145.002 392.001 -112.828 307.996 82.9929 0 70.8347 -196.995 73.3344 196.995 81.9984 0 -113.33 -307.996 145.997 -392.001z"
     id="path882" /></glyph>&#10;   <glyph
   unicode="G"
   horiz-adv-x="463"
   id="glyph888"><path
     d="M424.999 -6.99746l-32.6667 0c-101.002,0 -187.336,34.9962 -258.834,105.168 -71.6679,70.1627 -107.497,154.159 -107.497,251.828 0,97.6687 35.6682,181.504 107.166,251.335 71.4977,69.8312 157.832,104.666 259.166,104.666 4.49772,0 15.3299,-0.663011 32.6667,-1.99799l0 -78.0024c-14.9984,1.33498 -25.8306,1.99799 -32.6667,1.99799 -77.8321,0 -144.33,-26.9953 -199.495,-80.9949 -55.1733,-54.1698 -82.8406,-119.665 -82.8406,-196.834 0,-68.3349 22.0048,-128.499 66.1667,-180.169 44.1709,-51.8313 99.8369,-83.3333 166.837,-94.8285l0 380.828 81.9984 0 0 -462.997z"
     id="path886" /></glyph>&#10;   <glyph
   unicode="6"
   horiz-adv-x="504"
   id="glyph892"><path
     d="M490.996 222.996c0,-62.4933 -22.9993,-116.493 -69.1592,-161.828 -46.1689,-45.4969 -101.674,-68.1647 -166.505,-68.1647 -66.328,0 -122.164,22.3273 -167.33,66.8297 -45.3356,44.6637 -68.0034,99.0037 -68.0034,163.163 0,96.6742 20.4996,185.509 61.4988,266.504 42.3342,83.3333 104.173,153.505 185.5,210.497l165.17 0c-144.33,-65.9965 -241.999,-158.666 -292.997,-278.16 36.3312,20.1681 75.0009,30.167 116.332,30.167 64.8317,0 120.337,-22.5065 166.335,-67.6719 46.1599,-44.9952 69.1592,-98.8335 69.1592,-161.336zm-81.9984 -0.331506c0,42.1729 -14.9984,77.6709 -45.1654,106.834 -29.9968,29.0023 -66.1667,43.4989 -107.999,43.4989 -41.6622,0 -77.5006,-14.4966 -107.166,-43.4989 -29.8355,-29.1635 -44.6637,-64.6615 -44.6637,-106.834 0,-42.3342 14.8282,-78.4951 44.6637,-108.16 29.6653,-29.6742 65.5037,-44.5024 107.166,-44.5024 41.8324,0 78.0024,14.8282 107.999,44.5024 30.167,29.6653 45.1654,65.8263 45.1654,108.16z"
     id="path890" /></glyph>&#10;   <glyph
   unicode="%"
   horiz-adv-x="674"
   id="glyph896"><path
     d="M331.004 524.003c0,-42.3342 -11.6744,-81.1651 -35.1665,-116.672 -29.0023,-43.4989 -68.6665,-65.3335 -119.002,-65.3335 -50.1649,0 -89.3363,22.0048 -117.667,65.8352 -22.838,34.835 -34.172,73.5046 -34.172,116.17 0,42.6657 11.3339,81.4966 34.172,116.663 28.3303,43.4989 67.5017,65.3335 117.667,65.3335 50.3351,0 89.9993,-21.8346 119.002,-65.3335 23.4921,-35.498 35.1665,-74.3289 35.1665,-116.663zm219.833 175.994l-345.671 -699.996 -83.0018 0 345.671 699.996 83.0018 0zm99.165 -524.164c0,-42.4954 -11.6654,-81.1651 -35.1665,-116.332 -29.0023,-43.6691 -68.6665,-65.5037 -118.831,-65.5037 -50.1738,0 -89.6678,21.8346 -118.339,65.5037 -22.4976,35.1665 -33.6613,73.8361 -33.6613,116.332 0,42.6657 11.1637,81.4966 33.6613,116.672 28.6708,43.6602 68.1647,65.4947 118.339,65.4947 50.1649,0 89.8291,-21.8346 118.831,-65.4947 23.5011,-35.1754 35.1665,-74.0064 35.1665,-116.672zm-398.004 348c0,27.497 -7.16769,52.8348 -21.4941,75.5026 -15.0073,24.4956 -32.837,36.6627 -53.6681,36.6627 -20.4996,0 -38.0067,-11.9969 -52.3331,-36.161 -13.6724,-22.3363 -20.4996,-47.8354 -20.4996,-76.0044 0,-27.9988 6.82722,-53.3366 20.4996,-75.6639 14.3264,-24.173 31.8335,-36.1699 52.3331,-36.1699 20.8311,0 38.6607,11.9969 53.6681,36.1699 14.3264,22.6678 21.4941,47.9966 21.4941,75.6639zm318.998 -348c0,27.8375 -6.99746,53.3366 -20.9924,76.0044 -15.3389,24.1641 -33.1685,36.161 -53.6681,36.161 -20.8311,0 -38.4994,-11.9969 -52.8348,-36.161 -13.6634,-22.3363 -20.4996,-47.8354 -20.4996,-76.0044 0,-27.9988 6.83618,-53.3366 20.4996,-75.6639 14.3354,-24.1641 32.0037,-36.1699 52.8348,-36.1699 20.4996,0 38.3292,12.0059 53.6681,36.1699 13.9949,22.6678 20.9924,47.9966 20.9924,75.6639z"
     id="path894" /></glyph>&#10;  </font>&#10;  <font
   id="FontID0"
   horiz-adv-x="722"
   font-variant="normal"
   style="fill-rule:nonzero"
   font-weight="700">&#10;	<font-face
   font-family="Arial"
   id="font-face899">&#10;	</font-face>&#10;   <missing-glyph
   id="missing-glyph903"><path
     d="M0 0z"
     id="path901" /></missing-glyph>&#10;   <glyph
   unicode="∑"
   horiz-adv-x="712"
   id="glyph907"><path
     d="M68.0034 728.999l603 0 0 -80.9949 -480.504 0 293.338 -377.334 -314.169 -401.668 506.334 0 0 -79.0058 -616 0 0 91.0028 301.5 385.505 -293.499 377.495 0 84.9998z"
     id="path905" /></glyph>&#10;   <glyph
   unicode="€"
   horiz-adv-x="556"
   id="glyph911"><path
     d="M524.003 699.002l-28.5005 -135.998c-27.6673,27.9988 -68.0034,41.9937 -121,41.9937 -53.1663,0 -96.0022,-18.9944 -129,-57.1623 -18.5016,-21.6643 -31.6722,-48.4984 -39.5029,-80.8336l269.003 0 -16.0019 -76.0044 -262.499 0c-0.331506,-7.49919 -0.501738,-16.9964 -0.501738,-28.6618 0,-11.3339 0.331506,-22.9993 1.00348,-35.3367l248.997 0 -16.0019 -75.9954 -222.996 0c8.1622,-34.835 20.6609,-62.341 37.496,-82.1686 32.6667,-38.4994 75.0009,-57.8343 127.002,-57.8343 62.5022,0 112.336,19.3348 149.5,57.9956l0 -150.163c-42.3342,-21.1626 -91.5045,-31.8335 -147.834,-31.8335 -94.8375,0 -172.831,32.6667 -233.998,98.0002 -41.6711,44.3322 -69.0069,99.6667 -82.3388,166.004l-72.8327 0 16.0019 75.9954 47.5039 0c-0.340465,7.8307 -0.501738,16.0019 -0.501738,24.6658 0,14.9984 0.331506,27.9988 0.994517,39.3327l-63.9985 0 16.0019 76.0044 57.8343 0c13.5021,65.002 40.6677,119.333 81.3353,163.002 61.4988,65.9965 142.332,98.9947 242.501,98.9947 54.4923,0 101.996,-9.99892 142.332,-29.9968z"
     id="path909" /></glyph>&#10;   <glyph
   unicode="–"
   horiz-adv-x="556"
   id="glyph915"><path
     d="M-1.99799 207.997l0 103 555.998 0 0 -103 -555.998 0z"
     id="path913" /></glyph>&#10;   <glyph
   unicode="ӻ"
   horiz-adv-x="416"
   id="glyph919"><path
     d="M416.998 408.003l-214 0 0 -89.9993 112.004 0 0 -91.0028 -112.004 0 0 -150.996 45.0041 0 0 -104.003c0,-63.3355 -8.33244,-107.838 -25.0063,-133.167 -21.4941,-32.5055 -56.6606,-48.8388 -105.661,-48.8388 -23.8326,0 -46.8319,3.1717 -68.998,9.33591l16.6649 74.4992c17.6684,-4.49772 31.502,-6.82722 41.6622,-6.82722 25.1675,0 41.3396,12.6599 48.4984,37.9977 3.1717,11.3339 4.83819,34.3332 4.83819,68.6665l0 26.3323 -94.0042 0 0 227.001 -52.9961 0 0 91.0028 52.9961 0 0 201 351.002 0 0 -111.001z"
     id="path917" /></glyph>&#10;   <glyph
   unicode="Ӫ"
   horiz-adv-x="777"
   id="glyph923"><path
     d="M735.996 356.996c0,-107.999 -28.6618,-195.66 -85.8331,-262.83 -60.8268,-71.4977 -144.16,-107.166 -250,-107.166 -149.993,0 -254.498,56.1678 -313.828,168.333 -29.504,56.1678 -44.3322,122.164 -44.3322,198.33 0,113.841 28.9933,204.001 86.8276,270.67 60.8358,69.8312 147.341,104.666 259.166,104.666 110.338,0 196.502,-34.6647 258.673,-104.164 59.5008,-66.6685 89.3273,-155.834 89.3273,-267.839zm-152.994 61.006c-7.49919,57.3325 -26.834,102.328 -58.0045,134.994 -33.8315,34.6737 -78.9969,52.0016 -135.496,52.0016 -61.8303,0 -110.167,-21.1626 -145.334,-63.3265 -26.0008,-31.0003 -42.3342,-72.3399 -49.1703,-123.669l388.005 0zm-0.501738 -121l-387.503 0c7.49919,-53.3366 25.3378,-94.9987 53.6681,-125.004 38.3382,-40.6677 85.3313,-60.997 140.836,-60.997 55.1643,0 101.835,20.1681 139.833,60.4953 27.9988,29.6742 45.6671,71.5066 53.1663,125.506zm-356.001 483.998l0 117.998 117.998 0 0 -117.998 -117.998 0zm210.497 0l0 117.998 118.007 0 0 -117.998 -118.007 0z"
     id="path921" /></glyph>&#10;   <glyph
   unicode="ә"
   horiz-adv-x="556"
   id="glyph927"><path
     d="M524.003 262.337c0,-77.8411 -19.6663,-142.171 -58.999,-192.667 -43.3376,-55.1733 -102.838,-82.6703 -178.673,-82.6703 -87.8311,0 -152.663,31.0003 -194.665,92.8305 -35.9997,53.5068 -53.3366,126.169 -51.6701,218.167l343.001 0c-0.994517,36.833 -10.5007,67 -28.6618,90.3397 -20.1681,25.8306 -47.8354,38.6607 -83.1721,38.6607 -43.8304,0 -72.8327,-24.6658 -87.1591,-73.9974l-137.001 22.9993c35.8295,102.668 111.001,153.998 225.495,153.998 90.501,0 157.34,-29.495 200.167,-88.4941 34.172,-47.0021 51.3386,-106.673 51.3386,-179.165zm-143.506 -48.3371l-204.494 0c0.994517,-34.0017 9.49719,-62.0005 25.3288,-84.3368 18.5016,-25.1675 44.0006,-37.6662 76.5061,-37.6662 32.9982,0 58.8288,12.3374 77.3304,37.1734 17.3279,22.3273 25.6693,50.4964 25.3288,84.8296z"
     id="path925" /></glyph>&#10;   <glyph
   unicode="ӈ"
   horiz-adv-x="604"
   id="glyph931"><path
     d="M537.998 44.3322c0,-85.8331 -18.5016,-149.5 -55.3346,-190.831 -37.8275,-42.3342 -97.3282,-63.5057 -178.493,-63.5057 -62.8337,0 -112.667,9.50615 -149.169,28.6708 -42.6657,22.8291 -72.3309,60.8358 -89.0048,114.504l137.001 22.8291c13.5021,-35.9997 45.1654,-53.9996 94.9987,-53.9996 41.8324,0 70.5032,14.8371 86.3348,44.3322 11.1726,20.8311 16.6649,53.4978 16.6649,98.0002l0 173.664 -197.998 0 0 -217.996 -137.001 0 0 519.003 137.001 0 0 -190.006 197.998 0 0 190.006 137.001 0 0 -474.671z"
     id="path929" /></glyph>&#10;   <glyph
   unicode="ҷ"
   horiz-adv-x="580"
   id="glyph935"><path
     d="M570.001 -137.001l-111.001 0 0 137.001 -80.0004 0 0 207.496c-53.4978,-14.3264 -94.1655,-21.4941 -122.164,-21.4941 -37.8364,0 -73.0029,7.8307 -105.499,23.5011 -37.5049,17.4981 -63.004,41.9937 -76.8376,73.1642 -12.3284,28.3303 -18.5016,65.8352 -18.5016,112.336l0 124.001 138.999 0 0 -124.171c0,-25.6693 1.83672,-44.5024 5.33993,-56.1678 5.83271,-17.9999 17.3279,-31.9948 34.163,-42.3342 16.9964,-10.1602 37.8364,-15.3299 62.5022,-15.3299 24.3343,0 51.6611,5.5012 81.9984,16.6649l0 221.338 137.001 0 0 -408.003 53.9996 0 0 -248.002z"
     id="path933" /></glyph>&#10;   <glyph
   unicode="Ҧ"
   horiz-adv-x="1125"
   id="glyph939"><path
     d="M1065 170.501c0,-115.839 -18.6718,-203.831 -56.1678,-264.004 -47.9966,-77.6619 -129.834,-116.502 -245.332,-116.502 -136.67,0 -224.501,49.3406 -263.502,148.174l145.002 22.8291c4.16622,-13.8336 14.4966,-26.5025 31.1615,-37.6662 21.6733,-14.1651 48.4984,-21.3328 80.6723,-21.3328 108.832,0 163.163,78.3339 163.163,235.002 0,140.666 -45.1654,210.999 -135.496,210.999 -47.0021,0 -93.5025,-13.1706 -139.501,-39.5029l0 -308.497 -145.002 0 0 594.999 -279.997 0 0 -594.999 -145.002 0 0 715.998 570.001 0 0 -288.499c53.6681,26.3323 108.501,39.5029 164.669,39.5029 77.3304,0 139.161,-26.6728 185.661,-80.1706 46.5004,-53.4978 69.6699,-125.667 69.6699,-216.33z"
     id="path937" /></glyph>&#10;   <glyph
   unicode="ҕ"
   horiz-adv-x="598"
   id="glyph943"><path
     d="M576.999 44.3322c0,-77.1691 -21.8346,-138.336 -65.3335,-183.502 -45.3356,-47.1634 -108.169,-70.8347 -188.501,-70.8347 -65.002,0 -115.83,8.6729 -152.161,25.8395 -46.3391,21.6643 -81.1741,60.8358 -105.007,117.335l137.001 22.8291c12.6689,-35.9997 50.6666,-53.9996 113.832,-53.9996 79.5076,0 119.172,47.5039 119.172,142.332 0,95.832 -39.6642,143.667 -119.172,143.667 -39.6642,0 -77.6619,-7.16769 -113.832,-21.5031l0 -166.496 -137.001 0 0 519.003 370.005 0 0 -111.001 -233.004 0 0 -124.171c40.3362,10.8322 80.3319,16.1721 120.166,16.1721 80.3319,0 143.166,-23.6713 188.34,-71.1662 43.6602,-46.0076 65.4947,-107.506 65.4947,-184.505z"
     id="path941" /></glyph>&#10;   <glyph
   unicode="҄"
   horiz-adv-x="0"
   id="glyph947"><path
     d="M163.997 604.003l-41.9937 0c0,18.8331 -5.1697,34.3332 -15.6704,46.6616 -11.3339,13.5021 -26.0008,20.3383 -44.3322,20.3383 -9.00441,0 -33.8315,-11.1726 -74.4992,-33.5 -40.4974,-22.3363 -72.5012,-33.5 -96.0022,-33.5l-55.4958 0 0 89.9993 55.6661 0c17.8296,0 43.6602,8.00093 77.6619,23.9938 33.8315,16.0019 61.1673,24.0028 81.9984,24.0028 34.172,0 61.5077,-12.8302 82.0073,-38.4994 20.4996,-25.6693 30.6598,-58.8288 30.6598,-99.4965z"
     id="path945" /></glyph>&#10;   <glyph
   unicode="ѳ"
   horiz-adv-x="610"
   id="glyph951"><path
     d="M575.001 259.999c0,-78.6654 -24.6658,-143.667 -74.1677,-195.167 -50.4964,-51.8313 -114.665,-77.8321 -192.838,-77.8321 -49.4929,0 -94.497,10.6709 -135.165,31.8335 -43.6602,22.4976 -76.6674,54.5013 -99.165,96.1635 -22.4976,41.5009 -33.6702,91.836 -33.6702,150.835 0,48.0056 11.1726,92.499 33.6702,133.498 23.5011,42.5044 55.5048,74.8396 96.504,97.167 40.8289,22.3363 86.3258,33.5 136.831,33.5 79.4986,0 143.999,-25.1675 193.501,-75.3324 49.6631,-50.1649 74.4992,-115.167 74.4992,-194.665zm-144.501 43.4989c-5.83271,34.172 -19.0033,61.1673 -39.5029,81.3353 -22.1661,22.1661 -49.9946,33.1685 -83.4946,33.1685 -35.8384,0 -65.8352,-13.6724 -90.3397,-40.9992 -16.8261,-18.8331 -27.9988,-43.3376 -33.1595,-73.5046 17.3279,-13.0004 33.8315,-19.4961 49.8334,-19.4961 21.8256,0 46.6616,6.49572 74.8307,19.4961 28.169,13.0004 50.8368,19.5051 68.1647,19.5051 20.1681,0 37.9977,-6.50468 53.6681,-19.5051zm0.501738 -83.9963c-16.0019,13.0004 -34.0017,19.4961 -54.1698,19.4961 -17.3279,0 -39.9957,-6.49572 -68.1647,-19.4961 -28.169,-13.0004 -53.0051,-19.5051 -74.8307,-19.5051 -16.0019,0 -32.5055,6.50468 -49.8334,19.5051 5.16074,-35.1665 17.9999,-63.667 38.4994,-85.1701 22.1661,-23.5011 50.4964,-35.3277 84.9998,-35.3277 34.4945,0 62.8337,11.8267 84.9998,35.3277 20.4996,21.5031 33.3297,49.8334 38.4994,85.1701z"
     id="path949" /></glyph>&#10;   <glyph
   unicode="Ѣ"
   horiz-adv-x="869"
   id="glyph955"><path
     d="M823.003 212.504c0,-42.0027 -10.3394,-80.5021 -31.1705,-115.669 -22.4976,-37.5049 -52.6646,-63.667 -90.3308,-78.3339 -32.3352,-12.3374 -78.1726,-18.5016 -137.664,-18.5016l-337.84 0 0 522.999 -212.997 0 0 91.0028 212.997 0 0 101.996 145.002 0 0 -101.996 212.997 0 0 -91.0028 -212.997 0 0 -93.0008 193.169 0c75.9954,0 136.661,-16.8351 181.835,-50.3351 51.3296,-38.1679 76.9989,-93.834 76.9989,-167.159zm-149.007 1.99799c0,39.1625 -17.3279,65.8352 -52.1628,80.5021 -22.8291,9.32695 -57.5028,13.9949 -104.003,13.9949l-146.83 0 0 -187.999 140.505 0c37.9977,0 63.4968,1.00348 76.1656,2.83124 28.3303,4.99946 50.1649,16.0019 65.8263,33.5 13.6724,15.1686 20.4996,34.172 20.4996,57.1713z"
     id="path953" /></glyph>&#10;   <glyph
   unicode="ё"
   horiz-adv-x="556"
   id="glyph959"><path
     d="M372.003 163.997l137.001 -22.9993c-17.5071,-50.1649 -45.3356,-88.3328 -83.1721,-114.665 -37.9977,-26.1621 -85.5016,-39.3327 -142.332,-39.3327 -90.1695,0 -156.999,29.504 -200.167,88.503 -34.163,47.3336 -51.3296,106.996 -51.3296,179.165 0,85.9943 22.4976,153.496 67.3315,202.165 44.8339,48.8299 101.665,73.1642 170.331,73.1642 76.9989,0 137.835,-25.4991 182.498,-76.4972 44.5024,-50.9981 65.8352,-129.171 63.8372,-234.5l-343.001 0c0.994517,-40.6677 11.9969,-72.3309 33.1685,-94.9987 21.0013,-22.6678 47.3336,-34.0017 78.6654,-34.0017 21.4941,0 39.494,5.83271 53.9996,17.4981 14.6669,11.6654 25.6693,30.4985 33.1685,56.4993zm8.00093 138.999c-1.00348,39.8344 -11.1726,70.1717 -30.6687,90.8415 -19.5051,20.8311 -43.1674,31.1615 -71.1662,31.1615 -29.8355,0 -54.5013,-11.0024 -74.0064,-32.828 -19.4961,-21.8346 -28.9933,-51.6701 -28.6618,-89.175l204.503 0zm-269.505 283.007l0 117.998 117.998 0 0 -117.998 -117.998 0zm210.497 0l0 117.998 118.007 0 0 -117.998 -118.007 0z"
     id="path957" /></glyph>&#10;   <glyph
   unicode="р"
   horiz-adv-x="610"
   id="glyph963"><path
     d="M68.0034 519.003l127.997 0 0 -76.1656c16.6649,25.9918 39.0012,46.9932 67.3315,63.1653 28.3392,15.9929 59.8323,23.9938 94.3357,23.9938 60.1638,0 111.332,-23.6623 153.335,-70.996 41.9937,-47.1634 62.995,-113.169 62.995,-197.497 0,-86.8365 -21.1626,-154.168 -63.4968,-202.335 -42.3342,-48.1669 -93.6638,-72.1697 -153.998,-72.1697 -28.6708,0 -54.6715,5.67143 -78.0024,17.1666 -23.1696,11.3339 -47.8354,30.83 -73.5046,58.4973l0 -259.667 -136.992 0 0 716.007zm134.994 -251.505c0,-58.4973 11.5041,-101.665 34.6647,-129.663 23.0083,-27.8375 51.1683,-41.8324 84.1666,-41.8324 31.8335,0 58.336,12.8302 79.5076,38.4994 21.1626,25.6693 31.6633,67.663 31.6633,126.169 0,54.6626 -10.8322,95.16 -32.6667,121.663 -21.6643,26.5025 -48.6686,39.6642 -80.8336,39.6642 -33.5,0 -61.3375,-13.0004 -83.3333,-39.0012 -22.1661,-26.0008 -33.1685,-64.5002 -33.1685,-115.498z"
     id="path961" /></glyph>&#10;   <glyph
   unicode="Я"
   horiz-adv-x="718"
   id="glyph967"><path
     d="M501.003 0l0 299 -29.3338 0c-45.8374,0 -78.0024,-6.83618 -96.8355,-20.4996 -18.8331,-13.5021 -50.8368,-54.3311 -96.3337,-122.164l-103.672 -156.336 -172.831 0 87.3383 139.662c34.3332,55.5048 61.8303,94.3357 82.1596,116.502 20.5085,22.3363 46.1689,42.3342 76.8376,59.8323 -66.4982,10.5007 -114.504,33.6702 -143.999,69.6699 -29.504,35.9997 -44.3322,78.9969 -44.3322,129.171 0,43.6602 10.9934,82.3299 32.9982,116 21.9958,33.6613 50.9981,56.3291 86.9978,67.8332 35.9997,11.4952 89.838,17.3279 161.497,17.3279l304.501 0 0 -715.998 -144.993 0zm0 594.999l-112.837 0c-57.3325,0 -94.9987,-1.33498 -112.999,-3.83471 -17.9999,-2.661 -33.6702,-11.4952 -46.6706,-26.4936 -13.0004,-15.0073 -19.4961,-34.5035 -19.4961,-58.6675 0,-25.1675 6.33444,-45.1654 18.8331,-60.0025 12.4987,-14.8371 28.5005,-24.0028 47.8354,-27.6673 19.3348,-3.50321 58.8288,-5.33097 118.33,-5.33097l107.005 0 0 181.997z"
     id="path965" /></glyph>&#10;   <glyph
   unicode="О"
   horiz-adv-x="777"
   id="glyph971"><path
     d="M42.9972 353.663c0,73.0029 11.0024,134.34 32.837,184.004 16.1631,36.5015 38.4994,69.3295 66.6685,98.3317 28.1601,29.0023 58.999,50.5053 92.499,64.6705 44.6637,18.8331 96.1635,28.3303 154.5,28.3303 105.67,0 189.997,-32.828 253.503,-98.3317 63.3265,-65.665 94.9987,-156.838 94.9987,-273.671 0,-115.83 -31.502,-206.492 -94.3357,-271.826 -62.8337,-65.5037 -147,-98.1704 -252.168,-98.1704 -106.503,0 -191.332,32.4965 -254.166,97.6687 -62.8337,65.002 -94.3357,154.661 -94.3357,268.994zm149.007 4.83819c0,-81.1651 18.8331,-142.664 56.3291,-184.667 37.496,-41.8324 85.1701,-62.8337 142.834,-62.8337 57.8343,0 105.168,20.8311 142.332,62.332 37.0032,41.6711 55.4958,104.003 55.4958,187.166 0,82.1686 -17.9999,143.497 -54.1608,183.833 -35.9997,40.4974 -83.8351,60.6655 -143.667,60.6655 -59.671,0 -107.838,-20.4996 -144.33,-61.3285 -36.5015,-40.9992 -54.8328,-102.668 -54.8328,-185.168z"
     id="path969" /></glyph>&#10;   <glyph
   unicode="Ѝ"
   horiz-adv-x="718"
   id="glyph975"><path
     d="M75.0009 715.998l135.003 0 0 -476.669 289.996 476.669 143.999 0 0 -715.998 -134.994 0 0 469 -290.005 -469 -143.999 0 0 715.998zm341.997 65.002l-85.9943 0 -135.003 145.997 153.003 0 67.9945 -145.997z"
     id="path973" /></glyph>&#10;   <glyph
   unicode="ÿ"
   horiz-adv-x="556"
   id="glyph979"><path
     d="M6.00294 519.003l145.997 0 124.503 -368.168 121.501 368.168 141.992 0 -183 -499.507 -32.9982 -90.1606c-12.1672,-30.167 -23.6623,-53.1663 -34.6647,-69.1682 -10.8322,-15.8316 -23.5011,-28.832 -37.6662,-38.6697 -14.1651,-9.99892 -31.6633,-17.6684 -52.5033,-23.1606 -20.6609,-5.5012 -44.1619,-8.3414 -70.3329,-8.3414 -26.3323,0 -52.3331,2.8402 -77.8321,8.3414l-11.9969 106.996c21.5031,-4.16622 40.9992,-6.33444 58.336,-6.33444 31.9948,0 55.6661,9.33591 70.996,28.169 15.3299,18.8331 27.1655,42.8359 35.3367,71.8292l-197.667 520.007zm115.498 67l0 117.998 117.998 0 0 -117.998 -117.998 0zm210.497 0l0 117.998 117.998 0 0 -117.998 -117.998 0z"
     id="path977" /></glyph>&#10;   <glyph
   unicode="î"
   horiz-adv-x="277"
   id="glyph983"><path
     d="M71.9994 0l0 519.003 137.001 0 0 -519.003 -137.001 0zm-91.0028 586.003l102.507 143.999 126.331 0 101.163 -143.999 -109.997 0 -56.4993 72.9939 -52.5033 -72.9939 -111.001 0z"
     id="path981" /></glyph>&#10;   <glyph
   unicode="Ý"
   horiz-adv-x="666"
   id="glyph987"><path
     d="M261.002 0l0 301.33 -262.499 414.669 169.498 0 169.328 -283.5 164.839 283.5 166.335 0 -262.508 -415.663 0 -300.335 -144.993 0zm-1.99799 781l67.9945 145.997 153.003 0 -135.003 -145.997 -85.9943 0z"
     id="path985" /></glyph>&#10;   <glyph
   unicode="Ì"
   horiz-adv-x="277"
   id="glyph991"><path
     d="M68.0034 0l0 715.998 144.993 0 0 -715.998 -144.993 0zm171.998 781l-86.0033 0 -134.994 145.997 152.994 0 68.0034 -145.997z"
     id="path989" /></glyph>&#10;   <glyph
   unicode="»"
   horiz-adv-x="556"
   id="glyph995"><path
     d="M243.003 34.0017l126.994 220.828 -126.994 225.173 106.996 0 155.001 -225.173 -155.001 -220.828 -106.996 0zm-192.004 0l127.002 220.828 -127.002 225.173 107.005 0 155.001 -225.173 -155.001 -220.828 -107.005 0z"
     id="path993" /></glyph>&#10;   <glyph
   unicode="ª"
   horiz-adv-x="370"
   id="glyph999"><path
     d="M124.001 611.001l-91.9973 19.0033c7.49919,32.4965 22.4976,57.1623 45.1654,73.8272 22.4976,16.8351 56.8308,25.1675 102.668,25.1675 47.8264,0 83.8261,-6.33444 108.16,-18.9944 16.0019,-8.17116 27.8375,-22.6678 35.6682,-43.5079 4.83819,-13.0004 7.33792,-37.9977 7.33792,-75.0009l0 -116.493c0,-33.8404 1.16475,-56.4993 3.33297,-68.1737 2.15927,-11.4952 5.99398,-22.8291 11.6654,-33.8315l-93.5025 0c-4.16622,8.50267 -8.00093,20.0068 -11.1637,34.6647 -28.6708,-29.1635 -63.667,-43.6602 -105.338,-43.6602 -36.9942,0 -65.9965,9.82869 -86.8276,29.495 -20.8401,19.6663 -31.1705,45.0041 -31.1705,75.8341 0,22.1661 5.1697,40.8379 15.3299,56.1678 10.3394,15.3299 25.3378,27.3358 45.1744,36.1699 14.4966,6.16421 45.1654,13.8336 91.4955,22.8291 25.6693,5.33097 45.9986,10.6709 60.997,16.1721 0,4.49772 -0.161273,7.8307 -0.492779,9.99892 -0.340465,15.5001 -3.1717,25.6603 -8.6729,30.3283 -7.8307,6.66595 -21.3328,9.99892 -40.4974,9.99892 -16.8351,0 -29.504,-2.83124 -37.8364,-8.33244 -6.16421,-4.16622 -12.6599,-14.8282 -19.4961,-31.6633zm106.996 -75.1711c-7.16769,-4.32749 -17.1666,-7.66047 -30.167,-10.3304 -34.9962,-7.49919 -55.8273,-13.1617 -62.332,-17.1666 -13.0004,-8.1622 -19.4961,-18.6629 -19.4961,-31.6633 0,-10.1692 4.32749,-19.3348 13.1617,-27.506 8.6729,-8.1622 20.1681,-12.1672 34.0017,-12.1672 18.8331,0 34.3332,6.83618 46.5004,20.3383 12.1672,13.5021 18.3314,33.1685 18.3314,58.8288l0 19.6663z"
     id="path997" /></glyph>&#10;   <glyph
   unicode="w"
   horiz-adv-x="777"
   id="glyph1003"><path
     d="M168.002 0l-164.006 519.003 133.337 0 97.167 -340.17 89.4975 340.17 132.333 0 86.1735 -340.17 99.165 340.17 135.335 0 -166.667 -519.003 -131.67 0 -89.166 333.835 -88.0013 -333.835 -133.498 0z"
     id="path1001" /></glyph>&#10;   <glyph
   unicode="f"
   horiz-adv-x="333"
   id="glyph1007"><path
     d="M11.9969 519.003l76.0044 0 0 39.1625c0,43.6691 4.66796,76.3359 13.9949,97.83 9.33591,21.6733 26.5025,39.1714 51.4998,52.6735 25.1675,13.4932 56.8398,20.3294 95.169,20.3294 39.1714,0 77.6709,-5.83271 115.337,-17.4981l-17.4981 -95.3303c-22.3363,5.16074 -43.8394,7.8307 -64.5002,7.8307 -20.3383,0 -34.835,-4.66796 -43.6691,-14.0039 -8.83418,-9.32695 -13.3319,-27.3268 -13.3319,-53.9996l0 -36.9942 103 0 0 -107.999 -103 0 0 -411.004 -137.001 0 0 411.004 -76.0044 0 0 107.999z"
     id="path1005" /></glyph>&#10;   <glyph
   unicode="U"
   horiz-adv-x="722"
   id="glyph1011"><path
     d="M73.0029 715.998l144.993 0 0 -387.996c0,-61.669 1.83672,-101.503 5.33993,-119.665 6.16421,-29.3338 20.6609,-53.0051 43.6602,-70.6734 23.1696,-17.8296 54.6715,-26.6638 94.6672,-26.6638 40.5064,0 71.1662,8.33244 91.836,25.1675 20.6698,16.8351 32.9982,37.3347 37.1645,61.8303 4.16622,24.5045 6.33444,65.002 6.33444,121.672l0 396.328 145.002 0 0 -376.501c0,-85.9943 -3.83471,-146.83 -11.6654,-182.328 -7.83966,-35.5069 -22.1661,-65.5037 -43.1674,-89.9993 -20.8311,-24.5045 -48.8388,-43.8394 -83.8351,-58.336 -35.1665,-14.4966 -80.8336,-21.8346 -137.333,-21.8346 -68.1647,0 -119.835,7.8307 -155.001,23.6713 -35.1665,15.8316 -62.995,36.3312 -83.4946,61.66 -20.5085,25.3378 -33.8404,51.6701 -40.3362,79.4986 -9.49719,41.0081 -14.1651,101.674 -14.1651,181.835l0 382.333z"
     id="path1009" /></glyph>&#10;   <glyph
   unicode="D"
   horiz-adv-x="722"
   id="glyph1015"><path
     d="M73.0029 715.998l263.663 0c59.5008,0 104.836,-4.49772 135.998,-13.6634 41.8324,-12.3374 77.8321,-34.3332 107.668,-66.0054 30.0057,-31.493 52.6646,-70.1627 68.3349,-116 15.5001,-45.6671 23.3308,-102.166 23.3308,-169.166 0,-58.999 -7.32896,-109.666 -21.9958,-152.331 -17.8386,-52.1628 -43.3376,-94.3357 -76.5061,-126.501 -24.9973,-24.4956 -58.8288,-43.4989 -101.333,-57.1623 -31.8335,-10.1692 -74.3289,-15.1686 -127.665,-15.1686l-271.494 0 0 715.998zm144.993 -121l0 -473.999 107.506 0c40.1659,0 69.1682,2.3295 86.9978,6.83618 23.5011,5.83271 42.8359,15.8316 58.1658,29.8265 15.5001,14.0039 27.9988,37.0032 37.6662,69.0069 9.83765,31.9948 14.6669,75.8341 14.6669,131.16 0,55.3346 -4.82923,97.6687 -14.6669,127.334 -9.66742,29.6742 -23.3308,52.6735 -40.8289,69.3384 -17.5071,16.4946 -39.6732,27.8285 -66.6685,33.6613 -19.9978,4.50668 -59.5008,6.83618 -118.168,6.83618l-64.6705 0z"
     id="path1013" /></glyph>&#10;   <glyph
   unicode="3"
   horiz-adv-x="556"
   id="glyph1019"><path
     d="M37.9977 189.836l133.005 16.1631c4.16622,-34.0017 15.5001,-60.0025 33.9928,-78.0024 18.5016,-17.9999 40.8379,-26.9953 67,-26.9953 28.169,0 51.8403,10.8322 71.1751,32.3352 19.1646,21.4941 28.832,50.4964 28.832,87.1591 0,34.5035 -9.16568,62.0005 -27.6673,82.1686 -18.5016,20.1681 -40.9992,30.3372 -67.6719,30.3372 -17.4981,0 -38.3292,-3.50321 -62.6635,-10.3394l15.1686 111.341c36.9942,-1.00348 65.1632,7.15873 84.6683,24.3343 19.4961,16.9964 29.1635,39.8255 29.1635,68.326 0,24.173 -7.16769,43.3376 -21.5031,57.8343 -14.3354,14.3354 -33.3297,21.5031 -57.1623,21.5031 -23.5011,0 -43.4989,-8.17116 -60.0025,-24.5045 -16.6649,-16.3334 -26.6638,-40.1659 -30.3372,-71.4977l-125.999 21.5031c8.83418,43.6691 22.0048,78.4951 39.8344,104.666 17.6684,26.0008 42.5044,46.5004 74.1677,61.4988 31.6722,14.8371 67.3315,22.3363 106.664,22.3363 67.3404,0 121.34,-21.5031 162.008,-64.6705 33.5,-35.3367 50.3261,-75.3324 50.3261,-119.835 0,-62.995 -34.3332,-113.5 -103.161,-150.996 40.9992,-8.83418 73.6659,-28.5005 98.3317,-59.1693 24.4956,-30.6687 36.833,-67.663 36.833,-111.001 0,-62.8337 -22.9993,-116.502 -68.8367,-160.834 -45.8284,-44.3322 -102.829,-66.4982 -171.164,-66.4982 -64.6615,0 -118.33,18.6629 -160.834,56.1678 -42.6657,37.3347 -67.3315,86.1646 -74.1677,146.669z"
     id="path1017" /></glyph>&#10;   <glyph
   unicode="&quot;"
   horiz-adv-x="474"
   id="glyph1023"><path
     d="M80.8336 462.002l-25.8306 133.167 0 120.829 148.998 0 0 -120.829 -22.3363 -133.167 -100.831 0zm220.998 0l-25.8306 133.167 0 120.829 148.998 0 0 -120.829 -22.3363 -133.167 -100.831 0z"
     id="path1021" /></glyph>&#10;   <glyph
   unicode="∟"
   horiz-adv-x="978"
   id="glyph1027"><path
     d="M176.836 624.503l48.8299 0 0 -575.673 576.667 0 0 -48.8299 -625.497 0 0 624.503z"
     id="path1025" /></glyph>&#10;   <glyph
   unicode="⅓"
   horiz-adv-x="833"
   id="glyph1031"><path
     d="M243.003 354.998l-93.0008 0 0 251.003c-30.6687,-21.1716 -65.665,-37.1645 -104.998,-48.0056l0 76.0044c31.0003,8.83418 57.3325,21.3328 78.6654,37.9977 21.3328,16.5036 35.9997,34.172 43.8304,53.0051l75.5026 0 0 -370.005zm1.49625 -380.998l-77.6619 0 423.825 751.003 77.6709 0 -423.834 -751.003zm280.499 113.169l89.9993 9.82869c5.1697,-35.3277 23.3398,-52.9961 54.5013,-52.9961 35.0052,0 52.5033,17.4981 52.5033,52.6646 0,14.0039 -4.66796,25.4991 -13.8336,34.6647 -9.16568,9.16568 -21.1716,13.6724 -35.9997,13.6724 -9.83765,0 -24.5045,-2.49973 -44.1709,-7.33792l11.0024 71.3364c30.4985,-0.663011 50.3351,5.66247 59.671,19.1646 4.16622,5.5012 6.32548,11.9969 6.32548,19.5051 0,21.4941 -13.3319,32.3263 -40.1659,32.3263 -26.9953,0 -42.9972,-15.9929 -47.8264,-47.9966l-87.0068 12.6689c8.17116,33.6613 20.1681,57.6641 35.9997,71.9994 24.6658,22.1661 58.336,33.3297 101.172,33.3297 38.831,0 70.6644,-10.1692 95.3303,-30.3283 23.6713,-19.3348 35.498,-42.5044 35.498,-69.4997 0,-12.0059 -3.33297,-23.5011 -10.1602,-34.3332 -9.50615,-15.0073 -21.8346,-27.0043 -37.1734,-36.1699 44.8339,-15.8316 67.3404,-45.0041 67.3404,-87.168 0,-32.165 -13.6724,-59.662 -40.9992,-82.5001 -28.5005,-24.0028 -64.5002,-35.9997 -107.668,-35.9997 -40.9992,0 -74.1677,10.1692 -99.5054,30.4985 -25.3288,20.3383 -40.3272,48.0056 -44.8339,82.6703z"
     id="path1029" /></glyph>&#10;   <glyph
   unicode="₩"
   horiz-adv-x="943"
   id="glyph1035"><path
     d="M942.999 163.002l-134.331 0 -39.6642 -163.002 -153.335 0 -43.4989 163.002 -198.169 0 -43.1674 -163.002 -156.838 0 -38.9922 163.002 -132.002 0 0 125.999 101.996 0 -30.83 129 -71.1662 0 0 125.999 40.9992 0 -40.9992 171.998 147.995 0 37.8364 -171.998 155.333 0 45.8374 171.998 171.998 0 43.1674 -171.998 154.5 0 37.6662 171.998 145.665 0 -41.8324 -171.998 41.8324 0 0 -125.999 -72.3309 0 -31.3318 -129 103.663 0 0 -125.999zm-210.999 254.999l-94.9987 0 32.3352 -129 34.3332 0 28.3303 129zm-193.33 -129l-34.3332 129 -62.6725 0 -34.163 -129 131.169 0zm-228.165 129l-94.0042 0 28.3303 -129 31.3407 0 34.3332 129z"
     id="path1033" /></glyph>&#10;   <glyph
   unicode="′"
   horiz-adv-x="239"
   id="glyph1039"><path
     d="M70.0014 462.002l1.99799 133.167 26.0008 120.829 148.998 0 -26.0008 -120.829 -50.9981 -133.167 -99.9982 0z"
     id="path1037" /></glyph>&#10;   <glyph
   unicode="‡"
   horiz-adv-x="556"
   id="glyph1043"><path
     d="M212.997 -171.003l0 163.002 -179.999 0 0 114.002 179.999 0 0 320.001 -179.999 0 0 113.993 179.999 0 0 167.007 128.006 0 0 -167.007 175.994 0 0 -113.993 -175.994 0 0 -320.001 175.994 0 0 -114.002 -175.994 0 0 -163.002 -128.006 0z"
     id="path1041" /></glyph>&#10;   <glyph
   unicode="Ӹ"
   horiz-adv-x="978"
   id="glyph1047"><path
     d="M76.9989 715.998l145.002 0 0 -286 193.169 0c50.6666,0 94.3268,-6.99746 130.828,-20.8311 36.5015,-13.8336 67,-38.4994 91.5045,-74.1677 24.3343,-35.6682 36.4925,-76.6674 36.4925,-122.998 0,-48.4984 -12.6599,-90.1695 -37.9977,-125.336 -25.4991,-34.9962 -53.6681,-58.1658 -84.8296,-69.4997 -31.0003,-11.5041 -76.5061,-17.1666 -136.338,-17.1666l-337.831 0 0 715.998zm145.002 -594.999l140.997 0c44.8339,0 76.1656,2.16823 94.0042,6.50468 17.6594,4.32749 33.5,14.3264 47.3336,29.8265 13.8336,15.5001 20.6609,34.3332 20.6609,56.6695 0,31.6633 -11.3339,55.4958 -33.8315,71.3364 -22.6678,15.8316 -63.4968,23.6623 -122.335,23.6623l-146.83 0 0 -187.999zm534.996 594.999l145.002 0 0 -715.998 -145.002 0 0 715.998zm-436.494 65.002l0 117.998 117.998 0 0 -117.998 -117.998 0zm210.497 0l0 117.998 117.998 0 0 -117.998 -117.998 0z"
     id="path1045" /></glyph>&#10;   <glyph
   unicode="ӧ"
   horiz-adv-x="610"
   id="glyph1051"><path
     d="M39.9957 265.832c0,45.6671 11.1726,89.838 33.6702,132.504 22.4976,42.8269 54.3311,75.3324 95.5005,97.83 41.1694,22.4976 86.9978,33.8315 137.835,33.8315 78.4951,0 142.664,-25.4991 192.829,-76.4972 50.1738,-51.1683 75.1711,-115.498 75.1711,-193.501 0,-78.6654 -25.3378,-143.829 -75.8341,-195.499 -50.6666,-51.6701 -114.334,-77.5006 -191.171,-77.5006 -47.4949,0 -92.8305,10.8322 -135.998,32.3352 -42.9972,21.4941 -75.8341,52.9961 -98.3317,94.6672 -22.4976,41.5009 -33.6702,92.1675 -33.6702,151.83zm141.006 -7.32896c0,-51.4998 12.1672,-91.0028 36.5015,-118.339 24.4956,-27.497 54.4923,-41.1604 90.3308,-41.1604 35.6682,0 65.665,13.6634 89.8291,41.1604 24.173,27.3358 36.3402,67.1702 36.3402,119.333 0,50.8368 -12.1672,89.9993 -36.3402,117.335 -24.1641,27.497 -54.1608,41.1694 -89.8291,41.1694 -35.8384,0 -65.8352,-13.6724 -90.3308,-41.1694 -24.3343,-27.3358 -36.5015,-66.8297 -36.5015,-118.33zm-40.5064 327.501l0 117.998 118.007 0 0 -117.998 -118.007 0zm210.506 0l0 117.998 117.998 0 0 -117.998 -117.998 0z"
     id="path1049" /></glyph>&#10;   <glyph
   unicode="Ӗ"
   horiz-adv-x="666"
   id="glyph1055"><path
     d="M73.0029 0l0 715.998 529.997 0 0 -121 -385.003 0 0 -158.997 358.008 0 0 -121 -358.008 0 0 -194.002 399.007 0 0 -121 -544.001 0zm420 923.001c-3.83471,-43.8304 -19.3348,-78.5041 -46.1689,-104.003 -26.834,-25.3288 -62.332,-37.9977 -106.333,-37.9977 -43.6691,0 -78.9969,12.8302 -106.001,38.3292 -27.1655,25.508 -42.6657,60.0025 -46.5004,103.672l67 0c4.49772,-46.6706 32.9982,-70.0014 85.5016,-70.0014 52.5033,0 80.9949,23.3308 85.5016,70.0014l67 0z"
     id="path1053" /></glyph>&#10;   <glyph
   unicode="Ӆ"
   horiz-adv-x="701"
   id="glyph1059"><path
     d="M705.999 121l-94.9987 -276.995 -120.005 0 60.0025 155.996 -70.0014 0 0 594.999 -214.995 0 0 -305.666c0,-76.6674 -0.833244,-123.168 -2.49973,-138.999 -6.17317,-60.6655 -22.3363,-102.337 -48.8388,-124.996 -22.6589,-19.5051 -58.1658,-29.3338 -106.333,-29.3338 -16.9964,0 -47.6651,1.66649 -92.3288,4.82923l0 112.165 32.3352 -0.501738c30.4985,-0.331506 50.9981,4.00495 61.3285,13.1706 10.1692,9.16568 15.3389,28.832 15.3389,58.999l-0.501738 122.998 0 408.334 501.496 0 0 -594.999 80.0004 0z"
     id="path1057" /></glyph>&#10;   <glyph
   unicode="Ҵ"
   horiz-adv-x="852"
   id="glyph1063"><path
     d="M826.999 -155.996l-121 0 0 155.996 -509.999 0 0 594.999 -174.999 0 0 121 495.001 0 0 -121 -174.999 0 0 -473.999 281 0 0 594.999 144.993 0 0 -594.999 60.0025 0 0 -276.995z"
     id="path1061" /></glyph>&#10;   <glyph
   unicode="ң"
   horiz-adv-x="604"
   id="glyph1067"><path
     d="M591.003 -137.001l-111.001 0 0 137.001 -80.0004 0 0 217.996 -197.004 0 0 -217.996 -137.001 0 0 519.003 137.001 0 0 -190.006 197.004 0 0 190.006 137.001 0 0 -408.003 53.9996 0 0 -248.002z"
     id="path1065" /></glyph>&#10;   <glyph
   unicode="Ғ"
   horiz-adv-x="566"
   id="glyph1071"><path
     d="M565.002 596.002l-339.999 0 0 -192.004 143.999 0 0 -90.9938 -143.999 0 0 -313.004 -145.002 0 0 313.004 -81.9984 0 0 90.9938 81.9984 0 0 312.001 485.002 0 0 -119.996z"
     id="path1069" /></glyph>&#10;   <glyph
   unicode="ҁ"
   horiz-adv-x="556"
   id="glyph1075"><path
     d="M524.003 364.334l-135.003 -24.3343c-9.16568,54.6715 -40.3362,81.9984 -93.6638,81.9984 -74.8396,0 -112.336,-51.1683 -112.336,-153.666 0,-112.165 38.1679,-168.333 114.504,-168.333 22.6589,0 43.9917,3.83471 63.4968,11.6654l0 -308.668 -137.001 0 0 192.004c-58.999,13.0004 -104.496,43.6691 -136.5,91.836 -30.3372,45.4969 -45.4969,102.829 -45.4969,171.827 0,81.9984 21.1626,147 63.4968,195.167 44.5024,50.8368 107.166,76.1656 187.838,76.1656 121.492,0 198.5,-55.1643 230.665,-165.663z"
     id="path1073" /></glyph>&#10;   <glyph
   unicode="Ѱ"
   horiz-adv-x="808"
   id="glyph1079"><path
     d="M766.996 524.666c0,-65.9965 -5.99398,-117.165 -17.9999,-153.666 -16.3334,-50.6666 -47.1634,-90.501 -92.6603,-119.002 -41.5009,-26.3323 -101.333,-40.6677 -179.336,-42.9972l0 -209.001 -145.002 0 0 209.001c-110.329,0 -178.001,50.3351 -202.666,150.835l-87.3293 356.162 144.993 0 87.3383 -330.995c3.50321,-13.6724 10.5007,-25.4991 20.6698,-35.5069 11.1637,-10.9934 23.4921,-16.4946 36.9942,-16.4946l0 382.996 145.002 0 0 -382.996c70.1627,1.33498 113.832,29.0023 130.998,83.1631 9.33591,29.8355 14.0039,74.1677 14.0039,133.167l0 166.667 144.993 0 0 -191.332z"
     id="path1077" /></glyph>&#10;   <glyph
   unicode="џ"
   horiz-adv-x="604"
   id="glyph1083"><path
     d="M356.996 0l0 -137.001 -109.997 0 0 137.001 -181.002 0 0 519.003 137.001 0 0 -408.003 197.998 0 0 408.003 137.001 0 0 -519.003 -181.002 0z"
     id="path1081" /></glyph>&#10;   <glyph
   unicode="ю"
   horiz-adv-x="854"
   id="glyph1087"><path
     d="M70.0014 519.003l137.001 0 0 -210.004 109.997 0c7.16769,66.337 32.3352,119.835 75.5026,160.332 43.1674,40.5064 101.002,60.6655 173.333,60.6655 72.8327,0 132.665,-23.6623 179.336,-70.996 46.5004,-47.1634 69.8312,-115.337 69.8312,-204.333 0,-52.3331 -8.6729,-98.0002 -26.171,-137.001 -17.3279,-39.1625 -44.0006,-70.6644 -79.8301,-94.6672 -35.8384,-24.0028 -82.6703,-35.9997 -140.334,-35.9997 -83.0018,0 -145.002,22.6678 -185.67,68.0034 -40.6587,45.3267 -62.6635,93.6638 -65.9965,144.993l-109.997 0 0 -199.996 -137.001 0 0 519.003zm493.997 -96.0022c-38.3292,0 -66.1667,-12.3374 -83.6648,-36.833 -17.4981,-24.5045 -26.3323,-63.5057 -26.3323,-117.165 0,-68.6665 9.33591,-115.006 28.169,-138.999 18.8331,-24.0028 47.4949,-35.9997 85.8331,-35.9997 35.3277,0 61.8303,13.4932 79.4986,40.4974 17.6684,26.9953 26.4936,67.3315 26.4936,121.331 0,65.9965 -9.49719,110.338 -28.6618,133.167 -19.1646,22.6678 -46.3301,34.0017 -81.3353,34.0017z"
     id="path1085" /></glyph>&#10;   <glyph
   unicode="н"
   horiz-adv-x="604"
   id="glyph1091"><path
     d="M65.9965 519.003l137.001 0 0 -190.006 197.998 0 0 190.006 137.001 0 0 -519.003 -137.001 0 0 217.996 -197.998 0 0 -217.996 -137.001 0 0 519.003z"
     id="path1089" /></glyph>&#10;   <glyph
   unicode="Ь"
   horiz-adv-x="718"
   id="glyph1095"><path
     d="M76.0044 715.998l144.993 0 0 -286 193.169 0c91.0028,0 156.829,-21.3328 197.667,-63.9985 40.8289,-42.6657 61.1673,-93.834 61.1673,-153.496 0,-48.8388 -12.3374,-90.3397 -37.1645,-124.503 -24.6658,-34.3332 -52.8348,-57.5028 -84.6683,-69.6699 -31.6722,-12.1672 -77.5006,-18.3314 -137.333,-18.3314l-337.831 0 0 715.998zm144.993 -594.999l140.505 0c45.4969,0 77.1602,2.16823 94.6672,6.50468 17.4981,4.32749 33.3297,14.3264 47.1634,29.8265 13.8336,15.5001 20.6698,34.5035 20.6698,57.1713 0,32.6667 -11.8356,56.4993 -35.3367,71.6679 -23.6623,15.1597 -63.8372,22.8291 -120.829,22.8291l-146.839 0 0 -187.999z"
     id="path1093" /></glyph>&#10;   <glyph
   unicode="Л"
   horiz-adv-x="701"
   id="glyph1099"><path
     d="M124.503 715.998l501.496 0 0 -715.998 -145.002 0 0 594.999 -214.995 0 0 -305.666c0,-87.4996 -3.00147,-148.667 -8.83418,-183.17 -5.83271,-34.6647 -19.9978,-61.8303 -42.6657,-81.1651 -22.6678,-19.3348 -58.0045,-28.9933 -106.171,-28.9933 -16.9964,0 -47.6651,1.66649 -92.3288,4.82923l0 112.165 32.3352 -0.501738c30.167,0 50.6666,4.00495 60.997,12.1672 10.5007,8.17116 15.6704,28.169 15.6704,60.0025l-0.501738 122.998 0 408.334z"
     id="path1097" /></glyph>&#10;   <glyph
   unicode="Њ"
   horiz-adv-x="1062"
   id="glyph1103"><path
     d="M560.997 434.004l193.832 0c51.0071,0 94.3357,-6.83618 129.834,-20.4996 35.5069,-13.6724 65.8352,-38.1679 91.3343,-73.1731 25.3378,-35.1665 38.0067,-77.5006 38.0067,-126.994 0,-49.1703 -12.1672,-90.6713 -36.6717,-124.673 -24.4956,-34.0017 -52.6646,-57.3325 -84.6683,-69.8312 -31.8335,-12.4987 -77.9934,-18.8331 -138.327,-18.8331l-338.333 0 0 313.004 -194.002 0 0 -313.004 -145.002 0 0 715.998 145.002 0 0 -281.995 194.002 0 0 281.995 144.993 0 0 -281.995zm0 -313.004l141.338 0c45.4969,0 77.1691,2.16823 94.6672,6.50468 17.6684,4.49772 33.3297,14.6669 47.1634,30.6598 13.8336,16.0019 20.8311,35.6682 20.8311,58.6675 0,32.9982 -11.6654,57.3325 -35.1665,72.8327 -23.5011,15.5001 -63.8283,23.3398 -121.161,23.3398l-147.672 0 0 -192.004z"
     id="path1101" /></glyph>&#10;   <glyph
   unicode="ü"
   horiz-adv-x="610"
   id="glyph1107"><path
     d="M415 0l0 77.6709c-19.0033,-27.6673 -43.8304,-49.6721 -74.6694,-66.1667 -30.83,-16.3334 -63.3265,-24.5045 -97.4985,-24.5045 -34.9962,0 -66.328,7.66943 -93.9953,22.9993 -27.8375,15.3389 -47.8354,37.0032 -60.1727,64.6705 -12.4987,27.8285 -18.6629,66.1667 -18.6629,115.167l0 329.167 137.001 0 0 -239.007c0,-73.1642 2.49973,-117.828 7.66047,-134.331 4.99946,-16.4946 14.1741,-29.6653 27.6673,-39.1625 13.3319,-9.66742 30.3372,-14.5056 51.0071,-14.5056 23.4921,0 44.4934,6.50468 63.1653,19.3348 18.6629,12.8302 31.3318,28.832 38.1679,48.0056 6.82722,19.1646 10.3304,65.8263 10.3304,140.325l0 219.34 137.001 0 0 -519.003 -127.002 0zm-267.498 586.003l0 117.998 117.998 0 0 -117.998 -117.998 0zm210.497 0l0 117.998 117.998 0 0 -117.998 -117.998 0z"
     id="path1105" /></glyph>&#10;   <glyph
   unicode="ë"
   horiz-adv-x="556"
   id="glyph1111"><path
     d="M372.003 163.997l137.001 -22.9993c-17.5071,-50.1649 -45.3356,-88.3328 -83.1721,-114.665 -37.9977,-26.1621 -85.5016,-39.3327 -142.332,-39.3327 -90.1695,0 -156.999,29.504 -200.167,88.503 -34.163,47.3336 -51.3296,106.996 -51.3296,179.165 0,85.9943 22.4976,153.496 67.3315,202.165 44.8339,48.8299 101.665,73.1642 170.331,73.1642 76.9989,0 137.835,-25.4991 182.498,-76.4972 44.5024,-50.9981 65.8352,-129.171 63.8372,-234.5l-343.001 0c0.994517,-40.6677 11.9969,-72.3309 33.1685,-94.9987 21.0013,-22.6678 47.3336,-34.0017 78.6654,-34.0017 21.4941,0 39.494,5.83271 53.9996,17.4981 14.6669,11.6654 25.6693,30.4985 33.1685,56.4993zm8.00093 138.999c-1.00348,39.8344 -11.1726,70.1717 -30.6687,90.8415 -19.5051,20.8311 -43.1674,31.1615 -71.1662,31.1615 -29.8355,0 -54.5013,-11.0024 -74.0064,-32.828 -19.4961,-21.8346 -28.9933,-51.6701 -28.6618,-89.175l204.503 0zm-267.005 283.007l0 117.998 117.998 0 0 -117.998 -117.998 0zm210.497 0l0 117.998 118.007 0 0 -117.998 -118.007 0z"
     id="path1109" /></glyph>&#10;   <glyph
   unicode="Ú"
   horiz-adv-x="722"
   id="glyph1115"><path
     d="M73.0029 715.998l144.993 0 0 -387.996c0,-61.669 1.83672,-101.503 5.33993,-119.665 6.16421,-29.3338 20.6609,-53.0051 43.6602,-70.6734 23.1696,-17.8296 54.6715,-26.6638 94.6672,-26.6638 40.5064,0 71.1662,8.33244 91.836,25.1675 20.6698,16.8351 32.9982,37.3347 37.1645,61.8303 4.16622,24.5045 6.33444,65.002 6.33444,121.672l0 396.328 145.002 0 0 -376.501c0,-85.9943 -3.83471,-146.83 -11.6654,-182.328 -7.83966,-35.5069 -22.1661,-65.5037 -43.1674,-89.9993 -20.8311,-24.5045 -48.8388,-43.8394 -83.8351,-58.336 -35.1665,-14.4966 -80.8336,-21.8346 -137.333,-21.8346 -68.1647,0 -119.835,7.8307 -155.001,23.6713 -35.1665,15.8316 -62.995,36.3312 -83.4946,61.66 -20.5085,25.3378 -33.8404,51.6701 -40.3362,79.4986 -9.49719,41.0081 -14.1651,101.674 -14.1651,181.835l0 382.333zm202.998 65.002l68.0034 145.997 152.994 0 -134.994 -145.997 -86.0033 0z"
     id="path1113" /></glyph>&#10;   <glyph
   unicode="É"
   horiz-adv-x="666"
   id="glyph1119"><path
     d="M73.0029 0l0 715.998 529.997 0 0 -121 -385.003 0 0 -158.997 358.008 0 0 -121 -358.008 0 0 -194.002 399.007 0 0 -121 -544.001 0zm196.995 781l68.0034 145.997 152.994 0 -134.994 -145.997 -86.0033 0z"
     id="path1117" /></glyph>&#10;   <glyph
   unicode="¸"
   horiz-adv-x="333"
   id="glyph1123"><path
     d="M18.5016 -197.004l0 57.3415c33.6613,-3.50321 64.5002,-5.33993 92.6692,-5.33993 28.9933,0 50.6666,5.1697 64.6615,15.6704 10.8322,7.8307 16.1721,17.8296 16.1721,30.3283 0,11.0024 -5.00842,20.6698 -15.1686,28.841 -10.1692,8.1622 -25.8395,12.1672 -47.0021,12.1672 -21.0013,0 -42.3342,-3.34193 -64.33,-9.83765l12.8302 48.4984c25.3288,9.00441 52.6646,13.3319 81.9984,13.3319 40.8379,0 71.6679,-8.99545 92.8305,-26.834 21.1716,-17.9999 31.8335,-39.8255 31.8335,-65.4947 0,-28.832 -11.6654,-52.0016 -35.1665,-70.0014 -31.6633,-24.5045 -76.9989,-36.6627 -135.998,-36.6627 -42.0027,0 -73.8361,2.661 -95.3303,7.99197z"
     id="path1121" /></glyph>&#10;   <glyph
   unicode="§"
   horiz-adv-x="556"
   id="glyph1127"><path
     d="M480.997 563.998l-134 -13.9949c-1.32602,23.9938 -8.33244,42.3342 -20.9924,54.9941 -12.6689,12.6689 -30.3372,19.0033 -52.8348,19.0033 -20.8401,0 -36.833,-4.66796 -47.8354,-13.8336 -10.8322,-9.16568 -16.3334,-19.5051 -16.3334,-31.1705 0,-15.9929 7.49919,-31.1615 22.3363,-45.8284 9.99892,-9.83765 43.1584,-32.9982 99.4965,-69.4997 56.1678,-36.5015 93.5025,-62.5022 111.502,-78.1726 28.1601,-23.6623 48.3281,-47.3336 60.4953,-70.4942 12.1672,-23.3308 18.1701,-49.1703 18.1701,-77.5006 0,-30.3372 -7.33792,-58.1658 -22.1661,-83.8351 -14.8371,-25.4991 -37.0032,-48.6686 -66.6685,-69.4997 19.8366,-18.3314 34.5035,-37.8364 44.1709,-58.4973 9.82869,-20.6698 14.6579,-42.5044 14.6579,-65.665 0,-48.1669 -17.9999,-88.503 -54.1608,-121.17 -35.9997,-32.5055 -87.8311,-48.8388 -155.503,-48.8388 -65.002,0 -116.995,16.1721 -155.996,48.3371 -39.1714,32.165 -62.1707,75.0009 -69.3384,128.669l134 16.0019c5.83271,-29.1725 16.8351,-51.1683 33.1685,-65.8352 16.3334,-14.8371 37.0032,-22.1661 62.0005,-22.1661 21.3328,0 38.3292,5.66247 50.8368,16.8351 12.6599,11.3249 18.9944,24.8271 18.9944,40.8289 0,15.3299 -5.99398,29.0023 -17.9999,40.9992 -12.3284,12.1672 -55.4958,41.8324 -129.663,89.166 -74.1677,47.5039 -122.335,86.8365 -144.832,117.998 -22.3363,31.3407 -33.5,66.337 -33.5,105.007 0,31.9948 7.32896,61.66 22.1661,88.9958 14.8282,27.3358 37.6662,49.8334 68.998,67.5017 -16.3334,17.4981 -28.5005,35.3367 -36.833,53.6681 -8.1622,18.1611 -12.3374,36.833 -12.3374,55.6661 0,44.0006 17.1666,81.1651 51.3386,111.664 34.163,30.4985 82.3299,45.6671 144.169,45.6671 63.4968,0 113.5,-15.3299 149.993,-45.8284 36.5015,-30.5075 58.0045,-70.1717 64.5002,-119.172zm-122.326 -420.331c14.3264,13.1617 24.9973,25.4991 31.8245,37.496 7.00642,11.8356 10.5007,23.3398 10.5007,34.3332 0,10.8411 -3.66448,21.8346 -11.1637,33.3387 -7.49919,11.3339 -27.8285,29.1635 -61.3285,53.6681l-132.674 96.6652c-10.9934,-6.50468 -20.6609,-15.6704 -29.1635,-27.8375 -8.50267,-11.9969 -12.6689,-24.8271 -12.6689,-38.4994 0,-32.9982 21.8346,-64.1687 65.665,-93.834l139.008 -95.3303z"
     id="path1125" /></glyph>&#10;   <glyph
   unicode="t"
   horiz-adv-x="333"
   id="glyph1131"><path
     d="M308.999 519.003l0 -109.003 -93.9953 0 0 -210.166c0,-42.6657 0.833244,-67.5017 2.661,-74.4992 1.83672,-7.00642 5.83271,-12.8391 12.3374,-17.5071 6.33444,-4.49772 13.9949,-6.82722 23.1606,-6.82722 12.8391,0 31.1705,4.32749 55.3346,13.1617l11.5041 -106.664c-31.8335,-13.6634 -67.8332,-20.4996 -108.169,-20.4996 -24.6658,0 -46.8319,4.16622 -66.6685,12.4987 -19.8276,8.33244 -34.3332,19.1646 -43.4989,32.3352 -9.32695,13.3319 -15.6614,31.1705 -19.3348,53.8293 -2.83124,16.0019 -4.32749,48.3371 -4.32749,97.167l0 227.171 -63.004 0 0 109.003 63.004 0 0 103 137.001 80.9949 0 -183.995 93.9953 0z"
     id="path1129" /></glyph>&#10;   <glyph
   unicode="c"
   horiz-adv-x="556"
   id="glyph1135"><path
     d="M524.003 364.997l-135.003 -23.9938c-4.49772,26.834 -14.8371,46.9932 -31.0003,60.6655 -16.1631,13.5021 -37.0032,20.3294 -62.6635,20.3294 -34.172,0 -61.4988,-11.8267 -81.8371,-35.498 -20.3294,-23.6623 -30.4985,-63.1653 -30.4985,-118.67 0,-61.66 10.3304,-105.159 31.0003,-130.667 20.6698,-25.4991 48.3371,-38.159 83.0018,-38.159 26.0008,0 47.3336,7.49919 63.8283,22.3273 16.6738,14.8371 28.3392,40.3362 35.1665,76.6674l135.003 -22.9993c-14.0039,-62.0005 -40.8379,-108.832 -80.5021,-140.496 -39.6642,-31.6722 -92.8305,-47.5039 -159.669,-47.5039 -75.6639,0 -136.159,24.0028 -181.163,71.8382 -45.1654,47.9966 -67.663,114.325 -67.663,199.163 0,85.8331 22.6678,152.502 67.8332,200.337 45.1654,47.8264 106.333,71.659 183.502,71.659 62.995,0 113.16,-13.6634 150.495,-40.8289 37.1645,-27.1655 63.8372,-68.5052 80.1706,-124.171z"
     id="path1133" /></glyph>&#10;   <glyph
   unicode="R"
   horiz-adv-x="722"
   id="glyph1139"><path
     d="M73.0029 0l0 715.998 304.501 0c76.4972,0 132.163,-6.49572 166.828,-19.3348 34.835,-12.8302 62.5022,-35.6592 83.3333,-68.4962 20.8311,-32.9982 31.3318,-70.5032 31.3318,-112.837 0,-53.8293 -15.6614,-98.1615 -47.1634,-133.167 -31.502,-34.9962 -78.5041,-56.9921 -141.168,-66.1667 31.1705,-18.1611 56.8308,-38.159 76.9989,-59.9935 20.3383,-21.8346 47.6651,-60.6655 81.9984,-116.341l87.3383 -139.662 -172.831 0 -103.672 156.336c-37.1645,55.4958 -62.6635,90.501 -76.4972,104.998 -13.6724,14.3354 -28.169,24.3343 -43.4989,29.6653 -15.5001,5.33097 -39.8344,8.00093 -73.1731,8.00093l-29.3338 0 0 -299 -144.993 0zm144.993 413.002l107.005 0c69.3295,0 112.497,3.00147 129.834,8.83418 17.1666,5.83271 30.83,15.9929 40.4974,30.3283 9.83765,14.3354 14.6669,32.3352 14.6669,53.8383 0,24.1641 -6.49572,43.4989 -19.3348,58.4973 -12.8302,14.8371 -31.0003,24.1641 -54.3311,27.9988 -11.8356,1.66649 -47.0021,2.49973 -105.499,2.49973l-112.837 0 0 -181.997z"
     id="path1137" /></glyph>&#10;   <glyph
   unicode="A"
   horiz-adv-x="722"
   id="glyph1143"><path
     d="M717.996 0l-156.166 0 -61.8303 163.002 -287.164 0 -59.5008 -163.002 -153.335 0 277.999 715.998 153.165 0 286.833 -715.998zm-264.998 284.002l-99.4965 264.998 -96.6652 -264.998 196.162 0z"
     id="path1141" /></glyph>&#10;   <glyph
   unicode="0"
   horiz-adv-x="556"
   id="glyph1147"><path
     d="M274.496 720.003c69.3384,0 123.508,-24.836 162.671,-74.4992 46.5004,-58.6675 69.8312,-156.175 69.8312,-292.173 0,-135.828 -23.5011,-233.496 -70.3329,-292.827 -38.831,-49.0001 -92.8305,-73.5046 -162.169,-73.5046 -69.661,0 -125.829,26.834 -168.494,80.5021 -42.6657,53.6681 -63.9985,149.5 -63.9985,287.164 0,135.165 23.5011,232.502 70.3329,291.832 38.831,49.0001 92.8305,73.5046 162.16,73.5046zm0 -114.002c-16.3334,0 -30.9913,-5.33097 -43.6602,-16.0019 -12.8391,-10.5007 -22.838,-29.495 -29.8355,-57.001 -9.33591,-35.498 -14.0039,-95.5005 -14.0039,-179.667 0,-84.3279 4.16622,-142.162 12.5076,-173.664 8.33244,-31.502 18.8331,-52.5033 31.493,-63.004 12.6689,-10.5007 27.1655,-15.6614 43.4989,-15.6614 16.3334,0 31.0003,5.33097 43.8394,16.0019 12.6689,10.5007 22.6678,29.495 29.6653,56.9921 9.33591,35.1754 14.0039,95.0077 14.0039,179.336 0,84.1666 -4.17518,142.001 -12.5076,173.503 -8.33244,31.502 -18.8331,52.6646 -31.493,63.1653 -12.6689,10.6709 -27.1745,16.0019 -43.5079,16.0019z"
     id="path1145" /></glyph>&#10;   <glyph
   unicode="≠"
   horiz-adv-x="548"
   id="glyph1151"><path
     d="M205.668 307.996l33.3297 90.0082 -214.995 0 0 126.994 262.167 0 71.9994 194.002 101.996 0 -72.1697 -194.002 136.007 0 0 -126.994 -183.341 0 -33.5 -90.0082 216.84 0 0 -126.994 -264.165 0 -71.8382 -192.999 -101.002 0 71.5066 192.999 -134.502 0 0 126.994 181.665 0z"
     id="path1149" /></glyph>&#10;   <glyph
   unicode="₦"
   horiz-adv-x="722"
   id="glyph1155"><path
     d="M701 163.002l-58.999 0 0 -163.002 -144.671 0 -100.993 163.002 -188.34 0 0 -163.002 -134 0 0 163.002 -57.9956 0 0 125.999 57.9956 0 0 129 -57.9956 0 0 125.999 57.9956 0 0 171.998 139.34 0 105.992 -171.998 188.671 0 0 171.998 134 0 0 -171.998 58.999 0 0 -125.999 -58.999 0 0 -129 58.999 0 0 -125.999zm-192.999 125.999l0 129 -111.001 0 79.6689 -129 31.3318 0zm-189.836 0l-79.8301 129 -30.3372 0 0 -129 110.167 0z"
     id="path1153" /></glyph>&#10;   <glyph
   unicode="„"
   horiz-adv-x="500"
   id="glyph1159"><path
     d="M292.003 137.001l137.001 0 0 -98.502c0,-39.6642 -3.50321,-70.8347 -10.5007,-93.6638 -7.00642,-22.6678 -20.0068,-43.3376 -38.8399,-61.669 -18.9944,-18.3314 -42.9972,-32.837 -71.8292,-43.1674l-26.834 57.001c27.3358,9.16568 46.8319,21.8346 58.6675,37.9977 11.9969,16.3334 17.9999,37.9977 18.3314,65.002l-65.9965 0 0 137.001zm-230.002 0l137.001 0 0 -98.502c0,-39.6642 -3.33297,-70.8347 -10.1692,-93.6638 -6.83618,-22.6678 -19.8366,-43.3376 -38.831,-61.669 -19.0033,-18.3314 -43.1674,-32.837 -72.3309,-43.1674l-26.6728 57.001c27.506,9.16568 47.0021,21.8346 58.6675,37.9977 11.5041,16.3334 17.6684,37.9977 18.3314,65.002l-65.9965 0 0 137.001z"
     id="path1157" /></glyph>&#10;   <glyph
   unicode="‍"
   horiz-adv-x="0"
   id="glyph1163"><path
     d="M16.9964 -134l-34.9962 0 0 675.832 -63.4968 -64.8317 -24.5045 24.4956 81.0038 81.0038 -81.9984 81.9984 24.4956 24.5045 81.9984 -82.0073 81.9984 82.0073 24.5045 -24.5045 -81.9984 -81.9984 80.9949 -81.0038 -24.4956 -24.4956 -63.5057 64.8317 0 -675.832z"
     id="path1161" /></glyph>&#10;   <glyph
   unicode="ӵ"
   horiz-adv-x="580"
   id="glyph1167"><path
     d="M55.9976 519.003l138.999 0 0 -124.171c0,-28.3303 2.49973,-49.3316 7.49919,-63.3355 5.1697,-13.8336 15.8406,-25.6603 32.3352,-35.6592 16.3334,-9.83765 37.1645,-14.8371 62.1707,-14.8371 24.3343,0 51.6611,5.5012 81.9984,16.6649l0 221.338 137.001 0 0 -519.003 -137.001 0 0 207.496c-53.4978,-14.3264 -94.1655,-21.4941 -122.164,-21.4941 -42.0027,0 -79.8391,8.99545 -113.339,27.1655 -33.5,17.9999 -56.4993,41.1694 -68.998,69.3295 -12.3284,28.169 -18.5016,65.6739 -18.5016,112.506l0 124.001zm72.5012 67l0 117.998 117.998 0 0 -117.998 -117.998 0zm210.497 0l0 117.998 118.007 0 0 -117.998 -118.007 0z"
     id="path1165" /></glyph>&#10;   <glyph
   unicode="Ӥ"
   horiz-adv-x="718"
   id="glyph1171"><path
     d="M75.0009 715.998l135.003 0 0 -476.669 289.996 476.669 143.999 0 0 -715.998 -134.994 0 0 469 -290.005 -469 -143.999 0 0 715.998zm120.498 65.002l0 117.998 117.998 0 0 -117.998 -117.998 0zm210.497 0l0 117.998 118.007 0 0 -117.998 -118.007 0z"
     id="path1169" /></glyph>&#10;   <glyph
   unicode="ӓ"
   horiz-adv-x="556"
   id="glyph1175"><path
     d="M173.996 359.003l-123.992 21.9958c13.9949,50.6666 38.159,88.1715 72.3309,112.506 34.163,24.3253 84.9998,36.4925 152.331,36.4925 61.1673,0 106.834,-7.16769 136.831,-21.6643 29.8355,-14.4966 51.0071,-32.828 63.1653,-55.1643 12.1672,-22.3363 18.3403,-63.1653 18.3403,-122.836l-2.00695 -160.001c0,-45.4969 2.16823,-79.1671 6.50468,-100.831 4.33645,-21.6643 12.4987,-44.8339 24.4956,-69.4997l-135.998 0c-3.49425,9.00441 -8.00093,22.3363 -13.1617,39.9957 -2.16823,8.17116 -3.83471,13.5021 -4.83819,16.0019 -23.3308,-22.9993 -48.3281,-40.1659 -75.0009,-51.6611 -26.6638,-11.5041 -54.9941,-17.3368 -85.1611,-17.3368 -53.1663,0 -95.169,14.4966 -125.838,43.4989 -30.6687,28.832 -45.9986,65.5037 -45.9986,109.836 0,29.1635 6.99746,55.3346 21.0013,78.3339 13.9949,22.8291 33.5,40.4974 58.8288,52.6646 25.1675,12.1672 61.5077,22.838 109.003,32.0037 63.9985,11.9969 108.501,23.3308 133.167,33.6613l0 13.8336c0,26.6728 -6.49572,45.6671 -19.4961,57.1713 -13.1706,11.3339 -37.8364,16.9964 -74.0064,16.9964 -24.4956,0 -43.4989,-4.82923 -57.1623,-14.6669 -13.8336,-9.66742 -24.836,-26.834 -33.3387,-51.3296zm184.004 -111.001c-17.4981,-5.83271 -45.3356,-12.8391 -83.5036,-21.0013 -37.9977,-8.17116 -62.995,-16.1631 -74.6604,-23.8326 -17.8386,-12.8391 -26.834,-28.832 -26.834,-48.3371 0,-19.3348 7.16769,-35.8295 21.5031,-49.8334 14.3264,-13.9949 32.4965,-21.0013 54.6626,-21.0013 24.6658,0 48.3371,8.17116 70.8347,24.3343 16.4946,12.4987 27.497,27.506 32.6667,45.5059 3.49425,11.6654 5.33097,33.9928 5.33097,66.8297l0 27.3358zm-239.499 338.001l0 117.998 117.998 0 0 -117.998 -117.998 0zm210.497 0l0 117.998 118.007 0 0 -117.998 -118.007 0z"
     id="path1173" /></glyph>&#10;   <glyph
   unicode="ӂ"
   horiz-adv-x="709"
   id="glyph1179"><path
     d="M287.003 0l0 220.998c-17.8386,-1.33498 -30.3372,-5.33097 -37.3347,-11.9969 -6.99746,-6.66595 -19.3348,-26.3323 -36.833,-59.1693l-65.3335 -149.832 -147.502 0 73.1642 143.004c37.1734,71.3275 75.6729,112.327 115.669,122.666 -29.8355,11.4952 -52.6646,40.9992 -68.4962,88.8256 -12.1672,35.6682 -22.9993,57.001 -33.0072,64.0075 -9.82869,6.99746 -32.9982,10.5007 -69.3295,10.5007l0 90.4921c27.0043,1.66649 45.8374,2.49973 56.4993,2.49973 30.167,0 55.9976,-6.66595 77.5006,-19.9978 21.5031,-13.5021 41.6711,-46.8319 60.5042,-99.9982 14.4966,-41.5009 26.3323,-67.663 34.9962,-78.6654 8.83418,-10.8322 21.9958,-16.6649 39.5029,-17.3368l0 213.006 136.992 0 0 -213.006c17.5071,0 30.839,5.67143 39.6732,17.1666 8.99545,11.3339 20.6609,37.6662 34.835,78.8356 18.6629,52.5033 38.3292,85.6628 59.3305,99.4965 20.8311,13.6724 47.8354,20.4996 80.6634,20.4996 9.33591,0 27.506,-0.833244 54.5013,-2.49973l0 -90.4921c-35.9997,0 -58.999,-3.50321 -69.1682,-10.5007 -9.99892,-7.00642 -21.0013,-28.3392 -32.9982,-64.0075 -16.0019,-47.8264 -38.831,-77.3304 -68.6665,-88.8256 40.0047,-10.3394 78.5041,-51.3386 115.669,-122.666l73.1642 -143.004 -147.502 0 -64.8317 149.832c-11.6654,26.6728 -22.4976,44.8339 -32.4965,54.5013 -9.83765,9.83765 -24.0028,15.3299 -42.1729,16.6649l0 -220.998 -136.992 0zm153.998 728.004l67 0c-3.83471,-44.1709 -19.5051,-79.0058 -46.6706,-104.173 -27.1655,-25.1675 -62.332,-37.8275 -105.499,-37.8275 -43.3287,0 -78.4951,12.6599 -105.661,37.8275 -27.1745,25.1675 -42.8359,60.0025 -46.6706,104.173l67 0c2.3295,-23.0083 10.3304,-40.5064 24.3343,-52.3331 14.0039,-11.8356 34.3332,-17.6684 60.997,-17.6684 26.5025,0 46.8319,5.83271 60.8358,17.6684 14.0039,11.8267 21.9958,29.3248 24.3343,52.3331z"
     id="path1177" /></glyph>&#10;   <glyph
   unicode="ұ"
   horiz-adv-x="556"
   id="glyph1183"><path
     d="M547.002 519.003l-197.998 -519.003 152.994 0 0 -91.0028 -152.994 0 0 -106.001 -137.001 0 0 106.001 -153.003 0 0 91.0028 153.003 0 -202.998 519.003 143.999 0 125.497 -367.505 127.495 367.505 141.006 0z"
     id="path1181" /></glyph>&#10;   <glyph
   unicode="Ҡ"
   horiz-adv-x="761"
   id="glyph1187"><path
     d="M751.998 0l-169.829 0 -86.1646 184.837c-1.17371,2.49973 -4.00495,7.49919 -8.3414,14.9984 -2.15927,3.99599 -8.1622,15.1686 -17.8296,33.6613 -16.0019,30.6687 -28.3303,50.1738 -36.6627,58.5063 -14.1741,13.6634 -34.835,20.6609 -62.1707,21.0013l0 -313.004 -145.002 0 0 594.999 -212.997 0 0 121 357.999 0 0 -304.994c36.1699,3.66448 62.6635,18.4926 80.0004,44.4934 4.16622,7.16769 16.8351,37.8364 37.9977,92.0062 27.3358,70.6644 54.6715,116.663 81.9984,137.826 30.167,23.5011 81.1741,35.1665 153.003,35.1665 3.33297,0 10.3304,0.170233 21.0013,0.501738l0 -106.996 -20.4996 0.501738c-48.1669,1.32602 -80.8336,-13.5021 -98.0002,-44.5024 -8.50267,-14.9984 -21.0013,-45.8374 -37.6662,-92.499 -10.3304,-29.3338 -20.3383,-50.5053 -29.6653,-63.667 -11.6654,-16.8351 -29.504,-32.0037 -53.1663,-45.5059 33.9928,-9.65846 64.5002,-32.828 90.9938,-69.3295 13.6724,-18.8331 32.837,-53.1663 57.5028,-103l97.4985 -196z"
     id="path1185" /></glyph>&#10;   <glyph
   unicode="ҏ"
   horiz-adv-x="610"
   id="glyph1191"><path
     d="M593.502 7.16769l-63.9985 -63.9985 -71.3364 71.3275c-30.167,-18.3314 -64.1687,-27.497 -101.665,-27.497 -53.9996,0 -104.505,25.3378 -151.507,75.8341l0 -259.838 -136.992 0 0 716.007 127.997 0 0 -76.5061c37.496,58.336 91.3343,87.4996 161.667,87.4996 70.0014,0 124.664,-28.1601 164.167,-84.6594 34.835,-49.5018 52.1628,-110.839 52.1628,-183.833 0,-76.6674 -16.6649,-138.336 -49.8334,-185.007l69.3384 -69.3295zm-160.502 253.664c0,43.4989 -8.00093,79.3373 -23.8326,107.838 -19.6663,35.498 -49.5018,53.3276 -89.166,53.3276 -39.8344,0 -69.8312,-16.3334 -90.3308,-49.0001 -17.1666,-27.497 -25.6693,-62.6635 -25.6693,-105.499 0,-45.6671 8.33244,-83.6648 24.836,-114.163 20.6609,-38.1679 51.9926,-57.3325 93.6638,-57.3325 16.3334,0 31.0003,3.33297 44.3322,9.99892l-60.0025 60.1638 63.5057 64.1687 52.6646 -52.6646c6.66595,22.8291 9.99892,50.4964 9.99892,83.1631z"
     id="path1189" /></glyph>&#10;   <glyph
   unicode="Ѿ"
   horiz-adv-x="1279"
   id="glyph1195"><path
     d="M1237 360.499c0,-68.8277 -13.3319,-131.169 -39.9957,-186.996 -29.3338,-61.006 -71.9994,-107.336 -127.836,-138.999 -55.9976,-31.6722 -121.17,-47.5039 -195.839,-47.5039 -58.3271,0 -116.493,11.1637 -174.497,33.6702 -21.4941,8.49371 -40.9992,17.3279 -58.4973,26.3323 -17.6684,-9.00441 -37.1645,-17.8386 -58.6675,-26.3323 -58.0045,-22.5065 -116.332,-33.6702 -174.999,-33.6702 -71.3364,0 -134.502,14.4966 -189.164,43.4989 -58.999,31.6722 -103.17,78.0024 -132.504,138.999 -27.9988,58.8378 -42.0027,122.505 -42.0027,191.001 0,73.0029 14.6669,137.835 44.0006,194.334 32.0037,60.334 78.6654,106.503 140.334,138.498 46.1689,23.8326 103.331,35.6682 171.505,35.6682 57.6641,0 113.832,-14.1651 168.163,-42.4954l-68.3349 -108.501c-31.0003,17.9999 -64.1687,26.9953 -99.828,26.9953 -69.3384,0 -122.003,-22.9993 -158.003,-68.998 -32.4965,-41.3307 -48.8299,-98.0002 -48.8299,-169.668 0,-73.6659 15.4912,-132.835 46.4914,-177.499 35.5069,-51.8313 88.503,-77.8321 158.836,-77.8321 60.6655,0 117.165,20.3294 169.668,60.997l0 174.005 145.997 0 0 -174.005c52.5033,-40.6677 109.003,-60.997 169.668,-60.997 70.3329,0 123.338,26.0008 158.836,77.8321 31.0003,44.6637 46.5004,103.833 46.5004,177.499 0,71.9994 -16.1721,128.839 -48.4984,170.17 -35.8384,45.6671 -88.6733,68.4962 -158.334,68.4962 -35.498,0 -68.8367,-8.99545 -99.8369,-26.9953l-68.3349 108.501c54.5013,28.3303 110.499,42.4954 168.172,42.4954 68.1647,0 125.327,-11.8356 171.496,-35.6682 61.669,-31.9948 108.34,-78.1636 140.334,-138.498 29.3338,-56.4993 44.0006,-121.331 44.0006,-194.334zm-369.002 515.5l-44.1619 -94.9987 -16.6738 0 -23.1606 49.0001 -107.999 0 -23.1696 -49.0001 -16.6649 0 -23.1696 49.0001 -107.999 0 -23.1696 -49.0001 -16.6649 0 -44.1619 94.9987 446.995 0z"
     id="path1193" /></glyph>&#10;   <glyph
   unicode="ѭ"
   horiz-adv-x="980"
   id="glyph1199"><path
     d="M921.998 0l-137.001 0 0 21.0013c0,35.1665 -1.82776,60.997 -5.33097,77.6619 -6.49572,28.169 -19.8276,49.5018 -39.6642,63.8372 -17.3368,12.3284 -40.0047,19.8366 -68.0034,22.4976l0 -184.998 -137.001 0 0 184.998c-55.8273,-4.49772 -90.3308,-28.5005 -103.331,-71.6679 -6.49572,-21.4941 -9.66742,-52.3331 -9.66742,-92.3288l0 -21.0013 -137.001 0 0 21.0013c0,63.1653 7.00642,111.995 21.0013,146.499 5.5012,13.3319 13.0004,26.171 22.5065,38.4994l-119.503 0 0 -205.999 -137.001 0 0 519.003 137.001 0 0 -229.008 268.502 0 -142.171 229.008 534.503 0 -141.669 -229.008c40.3362,-7.8307 73.3344,-20.1591 98.6722,-37.1645 39.6642,-26.6638 66.328,-60.334 79.9914,-100.661 10.1692,-29.6742 15.1686,-73.5046 15.1686,-131.169l0 -21.0013zm-257.66 405.001l-121 0 57.9956 -115.006 63.004 115.006z"
     id="path1197" /></glyph>&#10;   <glyph
   unicode="ќ"
   horiz-adv-x="500"
   id="glyph1203"><path
     d="M65.9965 519.003l137.001 0 0 -212.002c22.838,2.66996 39.0012,9.66742 48.4984,21.0013 9.33591,11.3339 20.8401,36.161 34.172,74.4992 17.6684,51.1683 36.833,83.6648 57.8343,98.0002 20.8311,14.3354 48.1669,21.4941 82.1686,21.4941 10.4917,0 28.4916,-0.833244 54.3311,-2.49973l0.501738 -90.4921c-36.3402,0 -59.5008,-3.33297 -69.4997,-10.1692 -10.1692,-7.16769 -21.1716,-28.5005 -32.837,-63.9985 -16.0019,-47.6741 -39.1714,-77.1691 -69.1682,-88.1715 43.3376,-11.9969 80.0004,-49.8334 109.997,-113.33 1.50521,-3.33297 3.33297,-6.66595 5.33993,-10.3304l76.6674 -143.004 -147.502 0 -68.3349 150.504c-14.0039,30.3283 -26.1621,49.8334 -36.5015,58.4973 -10.1692,8.66394 -25.4991,13.0004 -45.6671,13.0004l0 -222.001 -137.001 0 0 519.003zm124.001 67l68.0034 145.997 153.003 0 -135.003 -145.997 -86.0033 0z"
     id="path1201" /></glyph>&#10;   <glyph
   unicode="ы"
   horiz-adv-x="854"
   id="glyph1207"><path
     d="M73.0029 519.003l137.001 0 0 -216.007 137.996 0c54.1698,0 95.5005,-3.82575 124.001,-11.4952 28.5005,-7.66943 52.6646,-24.3343 72.3309,-50.0036 19.8366,-25.6603 29.6653,-55.9976 29.6653,-90.6623 0,-50.1649 -17.3279,-87.8311 -51.8313,-112.999 -34.5035,-25.1675 -86.3348,-37.8364 -155.333,-37.8364l-293.83 0 0 519.003zm137.001 -431.002l127.997 0c33.1685,0 57.5028,5.1697 72.5012,15.5001 14.9984,10.3304 22.4976,27.1655 22.4976,50.4964 0,24.836 -9.66742,42.0027 -29.1635,51.1683 -19.5051,9.16568 -54.34,13.8336 -104.666,13.8336l-89.166 0 0 -130.998zm441.995 431.002l137.001 0 0 -519.003 -137.001 0 0 519.003z"
     id="path1205" /></glyph>&#10;   <glyph
   unicode="к"
   horiz-adv-x="500"
   id="glyph1211"><path
     d="M65.9965 519.003l137.001 0 0 -212.002c22.838,2.66996 39.0012,9.66742 48.4984,21.0013 9.33591,11.3339 20.8401,36.161 34.172,74.4992 17.6684,51.1683 36.833,83.6648 57.8343,98.0002 20.8311,14.3354 48.1669,21.4941 82.1686,21.4941 10.4917,0 28.4916,-0.833244 54.3311,-2.49973l0.501738 -90.4921c-36.3402,0 -59.5008,-3.33297 -69.4997,-10.1692 -10.1692,-7.16769 -21.1716,-28.5005 -32.837,-63.9985 -16.0019,-47.6741 -39.1714,-77.1691 -69.1682,-88.1715 43.3376,-11.9969 80.0004,-49.8334 109.997,-113.33 1.50521,-3.33297 3.33297,-6.66595 5.33993,-10.3304l76.6674 -143.004 -147.502 0 -68.3349 150.504c-14.0039,30.3283 -26.1621,49.8334 -36.5015,58.4973 -10.1692,8.66394 -25.4991,13.0004 -45.6671,13.0004l0 -222.001 -137.001 0 0 519.003z"
     id="path1209" /></glyph>&#10;   <glyph
   unicode="Щ"
   horiz-adv-x="1019"
   id="glyph1215"><path
     d="M75.0009 715.998l145.002 0 0 -594.999 205.999 0 0 594.999 144.993 0 0 -594.999 212.002 0 0 594.999 145.002 0 0 -594.999 63.9985 0 0 -276.995 -121 0 0 155.996 -795.999 0 0 715.998z"
     id="path1213" /></glyph>&#10;   <glyph
   unicode="И"
   horiz-adv-x="718"
   id="glyph1219"><path
     d="M75.0009 715.998l135.003 0 0 -476.669 289.996 476.669 143.999 0 0 -715.998 -134.994 0 0 469 -290.005 -469 -143.999 0 0 715.998z"
     id="path1217" /></glyph>&#10;   <glyph
   unicode="Ї"
   horiz-adv-x="275"
   id="glyph1223"><path
     d="M68.0034 0l0 715.998 144.993 0 0 -715.998 -144.993 0zm-93.5025 781l0 117.998 117.998 0 0 -117.998 -117.998 0zm210.497 0l0 117.998 117.998 0 0 -117.998 -117.998 0z"
     id="path1221" /></glyph>&#10;   <glyph
   unicode="ù"
   horiz-adv-x="610"
   id="glyph1227"><path
     d="M415 0l0 77.6709c-19.0033,-27.6673 -43.8304,-49.6721 -74.6694,-66.1667 -30.83,-16.3334 -63.3265,-24.5045 -97.4985,-24.5045 -34.9962,0 -66.328,7.66943 -93.9953,22.9993 -27.8375,15.3389 -47.8354,37.0032 -60.1727,64.6705 -12.4987,27.8285 -18.6629,66.1667 -18.6629,115.167l0 329.167 137.001 0 0 -239.007c0,-73.1642 2.49973,-117.828 7.66047,-134.331 4.99946,-16.4946 14.1741,-29.6653 27.6673,-39.1625 13.3319,-9.66742 30.3372,-14.5056 51.0071,-14.5056 23.4921,0 44.4934,6.50468 63.1653,19.3348 18.6629,12.8302 31.3318,28.832 38.1679,48.0056 6.82722,19.1646 10.3304,65.8263 10.3304,140.325l0 219.34 137.001 0 0 -519.003 -127.002 0zm-21.0013 586.003l-86.0033 0 -134.994 145.997 153.003 0 67.9945 -145.997z"
     id="path1225" /></glyph>&#10;   <glyph
   unicode="è"
   horiz-adv-x="556"
   id="glyph1231"><path
     d="M372.003 163.997l137.001 -22.9993c-17.5071,-50.1649 -45.3356,-88.3328 -83.1721,-114.665 -37.9977,-26.1621 -85.5016,-39.3327 -142.332,-39.3327 -90.1695,0 -156.999,29.504 -200.167,88.503 -34.163,47.3336 -51.3296,106.996 -51.3296,179.165 0,85.9943 22.4976,153.496 67.3315,202.165 44.8339,48.8299 101.665,73.1642 170.331,73.1642 76.9989,0 137.835,-25.4991 182.498,-76.4972 44.5024,-50.9981 65.8352,-129.171 63.8372,-234.5l-343.001 0c0.994517,-40.6677 11.9969,-72.3309 33.1685,-94.9987 21.0013,-22.6678 47.3336,-34.0017 78.6654,-34.0017 21.4941,0 39.494,5.83271 53.9996,17.4981 14.6669,11.6654 25.6693,30.4985 33.1685,56.4993zm8.00093 138.999c-1.00348,39.8344 -11.1726,70.1717 -30.6687,90.8415 -19.5051,20.8311 -43.1674,31.1615 -71.1662,31.1615 -29.8355,0 -54.5013,-11.0024 -74.0064,-32.828 -19.4961,-21.8346 -28.9933,-51.6701 -28.6618,-89.175l204.503 0zm-19.0033 283.007l-86.0033 0 -134.994 145.997 152.994 0 68.0034 -145.997z"
     id="path1229" /></glyph>&#10;   <glyph
   unicode="×"
   horiz-adv-x="583"
   id="glyph1235"><path
     d="M54.5013 204.996l147.834 148.174 -149.339 149.33 91.5045 90.6713 148.667 -148.837 149.33 149.67 87.4996 -89.5065 -148.326 -148.667 149.832 -149.832 -91.0028 -91.0028 -149.67 149.67 -148.326 -148.667 -88.0013 88.9958z"
     id="path1233" /></glyph>&#10;   <glyph
   unicode="Æ"
   horiz-adv-x="1000"
   id="glyph1239"><path
     d="M-42.0027 0l334.005 715.998 645.997 0 0 -121 -353 0 0 -158.997 326.004 0 0 -121 -326.004 0 0 -194.002 367.004 0 0 -121 -512.006 0 0.331506 168.996 -248.163 0 -74.3289 -168.996 -159.839 0zm286.833 294.001l195.669 0 0.501738 313.998 -55.9976 0 -140.173 -313.998z"
     id="path1237" /></glyph>&#10;   <glyph
   unicode="µ"
   horiz-adv-x="576"
   id="glyph1243"><path
     d="M53.9996 519.003l137.001 0 0 -235.172c0,-67.8332 6.83618,-114.002 20.4996,-138.327 17.1666,-31.6722 42.4954,-47.5039 76.3359,-47.5039 18.1611,0 35.3277,5.83271 51.4998,17.6684 16.1631,11.6654 28.1601,27.9988 35.9997,48.8299 7.8307,20.8311 11.6654,60.1638 11.6654,117.837l0 236.668 138.999 0 0 -519.003 -129 0 0 62.332c-9.66742,-18.1611 -18.8331,-31.9948 -27.6673,-40.9992 -8.66394,-9.16568 -20.3294,-17.1666 -35.1665,-24.0028 -14.6669,-6.82722 -28.169,-10.3304 -40.3362,-10.3304 -22.9993,0 -43.3287,6.33444 -61.1673,19.1646 -12.4987,9.33591 -26.4936,28.169 -41.6622,56.1678l0 -261.334 -137.001 0 0 718.005z"
     id="path1241" /></glyph>&#10;   </font>
</defs>
</svg>
