<?xml version="1.0" encoding="utf-8"?>
<!-- Generator: Adobe Illustrator 22.0.1, SVG Export Plug-In . SVG Version: 6.00 Build 0)  -->
<svg version="1.1" id="레이어_1" xmlns="http://www.w3.org/2000/svg" xmlns:xlink="http://www.w3.org/1999/xlink" x="0px"
	 y="0px" viewBox="0 0 800 533" enable-background="new 0 0 800 533" xml:space="preserve">
<g>
	<rect fill="#FFFFFF" width="800" height="533"/>
	<g>
		<path fill="#861C32" d="M578.5,285.5c3-4,10-70-18-113s-55-67-60-69s-7-6-11-7s-5-2-7-3s-8-7-11-7s-7-2-9-1s5,3,6,5s-13-5-19-5
			s-10-2-16-3s-7-6-9-4s-13-2-16.5,1.5c0,0-21-4-29,0s-36,2-65,20s-60,49-75,79s-15,42-15,52s-4,16-4,20s4,8,3,19s6,58,16,79
			s47,75,101,92c27.5,9.5,25.5-6.5,34.5-6.5s24-1,32,0s14,0,18,0s-4-3,2-5s30,4,38,0s8-5,12-8s42-20,52-35s20-26,23-30s25-51,27-58
			S575.5,289.5,578.5,285.5z M550.5,299.5c-3,1,0,6,0,7s-4,8-4,10s2,3,0,5s0,0-3,3s0,5-1,8s2,4,0,7s-4-2-7,2s-9,13-10,14s-5,6-2,5
			s2,3,0,6s-4,2-6,1s-2,3-5,8s-12,19-17,19s-6,0-10,3s-9,4-13,8s-14,9-17,9s-9,3-14,5s-8,0-10,0s3,3-2,5s-7-1-10-1s-2,3-4,3
			s-3-3-4-2s2,3,0,3s-7-3-9,0s-8,1-21,0s-23-16-23-19s9-2,9-3s-5-3-8-6s-8-3-10-4s-6,0-8-3s-3,1-7,0s-12-8-21-15s-11-15-18-17
			s-23-31-25-37s-2-46-2-71s8-57,22-80s42-35,42-35c105-51,167,12,176,19s27,36,32,46s16,58,16,64S553.5,298.5,550.5,299.5z"/>
		<path fill="#861C32" d="M377,411c0,0,0,3,7,3s22,0,27,2s3,2,9,1s19-3,17-6s-2,0-22,0s-22,1-27,1S378,408,377,411z"/>
		<path fill="#211917" d="M336,159c0,0-3,7-8,9s-15,4-18,5s-13,3-13,3s-6,3,3,4s10,0,20,0s23-1,27-4s2-7,4-8S341,158,336,159z"/>
		<path fill="#211917" d="M386,159c0,0-3,10,5,12s19,3,24,0s7-8,3-8s-11,1-15,1s1,1-3,0S388,155,386,159z"/>
		<path fill="#211917" d="M293,310c0,0-13,12-13,16s8,1,20-2s18-4,25-5s17-4,20-4s11,2,18,2s20-2,28-2s20,1,24,0s11-1,11-5s0-5-6-4
			s-17,2-23,2s-17,0-20,1s-18-1-22-1s-27,0-32,2s-17,1-20,2S295,308,293,310z"/>
		<path fill="#211917" d="M333,330c0,0-5,0-7,4s-9,13-11,14s-4,6-7,6s3,3,8,2s8-2,14-5s13-8,12-10S345,328,333,330z"/>
		<path fill="#211917" d="M377,328c0,0,1,16,4,20s5,7,9,7s11-7,12-10s6-9,3-10s-10-3-13-3S380,326,377,328z"/>
		<path fill="#211917" d="M510,223c3-1,20-10,20-13s-2-15-5-16s-7,2-14,0s-13-3-17-2s-5-2-11,0s-16,3-19,4c0,0-13-2-15,6s10,7,8,16
			s-2,33-2,39s-2,17-1,23s0,37,0,44s3,16,2,19s-3,22,0,24s7,0,8-4s0-19,0-23s-2-30,3-32s27,0,31-4s23-25,22-31s-17-26-22-27
			s-12-4-11-6S507,224,510,223z M495,255c7,3,8,18,7,23s-10,12-14,14s-11,5-16,5s-4-18-4-23s0-28,0-33s2-16,2-21
			c0-3.20667,0.82263-8.46991,1.41272-11.83289c0.37628-2.14435,2.12299-3.77252,4.28821-3.99963
			C483.60284,203.3385,500.74677,204,504,204c4,0,3,3,4,7s-13,12-16,15s-9,8-14,14S488,252,495,255z"/>
		<path fill="#211917" d="M425.5,195.5c-5,0-35,1-36,0s-3-13-4-13s-4-3-6,0s1,13,0,14s-18,1-19,0s-2-5-1-6s-4-9-8.5-7.5c0,0-3,5-3,7
			s5,8,0,8s-12,1-17,0s-15-3-19,0s-14,8-14,11s5,6,11,4s10-6,19-7s19-3,20-1s1,12,0,14s-10,2-15,2s-18,1-22,4s-4,11,0,14s5,10,5,16
			s1,14,0,18s-5,15-3,19s3,8,12,7s15-5,20-5s12,0,20,0s25,2,32,0s12,3,18-7s0-22,0-26s-2-18,0-20s9-14,8-18s-9.5-5.5-20.5-3.5
			s-17,1-17-1s-1-12,3-13s4-6,11-5s20,2,24,1S430.5,195.5,425.5,195.5z M357,210c0-1.41962,0.37787-2.58728,0.86536-3.50305
			c0.81866-1.5379,2.3891-2.52185,4.12836-2.62366C365.97064,203.6405,374.70477,203.23492,377,204c3,1,2,1,3,3s-1,13-3,14
			s-18,0-20-1S357,214,357,210z M326,229c3.08881-1.54443,13.9295-1.29993,18.70819-1.1084
			c1.36237,0.05463,2.47052,1.1037,2.62616,2.45825C348.44452,240.00983,344.78986,240.14008,342,242c-3,2-12,4-14,4
			S322,231,326,229z M385.74371,229.41498c0.12274-1.95331,1.69836-3.49902,3.65344-3.58899
			c5.06903-0.2334,14.17242-0.5412,15.60284,0.17401c2,1,3,0,4,2s0,8-2,10s-7,1-9,0s-11,1-12,0
			C385.36755,237.36749,385.5351,232.7348,385.74371,229.41498z M396,244c6-2,10,0,11,2s2,29,0,34s-8,7-11,9s-34,0-40-1s-25,2-29,0
			s0-5-2-14s-1-20,2-21s26-5,28-7c1.53491-1.53491,1.30286-12.49329,1.11194-17.5072
			c-0.05273-1.38501,1.02173-2.54828,2.40649-2.60687C363.95801,225.65576,376.44183,225.22089,378,226c2,1,0,18,1,20
			S390,246,396,244z"/>
		<path fill="#211917" d="M334.16495,267.11777c-1.14532,0.4733-1.40619,1.97513-0.48486,2.80396
			C335.24686,271.33115,337.95587,273,342,273c7,0,16,0,21,0s11,2,17,0s16-1,17-5s-3-4-9-4s-18,1-25,0s-22,0-24,1
			C337.86649,265.56674,335.76935,266.45471,334.16495,267.11777z"/>
	</g>
</g>
</svg>
