<?xml version="1.0" encoding="UTF-8" standalone="no"?>
<!-- Creator: CorelDRAW -->

<svg
   xmlns:dc="http://purl.org/dc/elements/1.1/"
   xmlns:cc="http://creativecommons.org/ns#"
   xmlns:rdf="http://www.w3.org/1999/02/22-rdf-syntax-ns#"
   xmlns:svg="http://www.w3.org/2000/svg"
   xmlns="http://www.w3.org/2000/svg"
   xmlns:sodipodi="http://sodipodi.sourceforge.net/DTD/sodipodi-0.dtd"
   xmlns:inkscape="http://www.inkscape.org/namespaces/inkscape"
   xml:space="preserve"
   x="-2.3622in"
   y="1.5748in"
   width="4.72441in"
   height="3.14961in"
   style="shape-rendering:geometricPrecision; text-rendering:geometricPrecision; image-rendering:optimizeQuality"
   viewBox="-2362 0 4724 3150"
   id="svg2"
   version="1.1"
   inkscape:version="0.48.4 r9939"
   sodipodi:docname="連江.svg"><metadata
   id="metadata51"><rdf:RDF><cc:Work
       rdf:about=""><dc:format>image/svg+xml</dc:format><dc:type
         rdf:resource="http://purl.org/dc/dcmitype/StillImage" /></cc:Work></rdf:RDF></metadata><sodipodi:namedview
   pagecolor="#ffffff"
   bordercolor="#666666"
   borderopacity="1"
   objecttolerance="10"
   gridtolerance="10"
   guidetolerance="10"
   inkscape:pageopacity="0"
   inkscape:pageshadow="2"
   inkscape:window-width="1920"
   inkscape:window-height="1028"
   id="namedview49"
   showgrid="false"
   inkscape:zoom="1"
   inkscape:cx="212.59845"
   inkscape:cy="141.73245"
   inkscape:window-x="-8"
   inkscape:window-y="-8"
   inkscape:window-maximized="1"
   inkscape:current-layer="svg2" />
 <defs
   id="defs4">
  <style
   type="text/css"
   id="style6">
   
    .fil1 {fill:#1F1A17}
    .fil3 {fill:#29166F}
    .fil4 {fill:#DA251D}
    .fil2 {fill:#FFF500}
    .fil0 {fill:#FFFFFF}
   
  </style>
 </defs>
 <g
   id="¹Ï¼h 1">
  <rect
   id="91623696"
   class="fil0"
   x="-2362"
   y="0"
   width="4724"
   height="3150" />
  <ellipse
   id="91623784"
   class="fil1"
   cx="0"
   cy="676"
   rx="413"
   ry="413"
   d="m 413,676 c 0,228.0936 -184.9064,413 -413,413 -228.0936,0 -413,-184.9064 -413,-413 0,-228.0936 184.9064,-413 413,-413 228.0936,0 413,184.9064 413,413 z" />
  <path
   id="91623872"
   class="fil1"
   d="M-924 935c71,-217 304,-336 521,-266 216,70 335,304 265,521 -71,216 -305,336 -521,265 -216,-70 -335,-304 -265,-520z" />
  <path
   id="91623960"
   class="fil1"
   d="M-571 2020c-184,-133 -225,-393 -92,-577 134,-184 393,-224 577,-91 185,134 226,393 92,577 -133,184 -393,225 -577,91z" />
  <path
   id="91624048"
   class="fil1"
   d="M571 2020c-184,134 -444,93 -577,-91 -134,-184 -93,-443 92,-577 184,-133 443,-93 577,91 133,184 92,444 -92,577z" />
  <path
   id="91624136"
   class="fil1"
   d="M924 935c70,216 -49,450 -265,520 -216,71 -450,-49 -521,-265 -70,-217 49,-451 265,-521 217,-70 450,49 521,266z" />
  <ellipse
   id="91624224"
   class="fil2"
   cx="0"
   cy="676"
   rx="398"
   ry="374"
   d="m 398,676 c 0,206.5545 -178.19067,374 -398,374 -219.80933,0 -398,-167.4455 -398,-374 0,-206.5545 178.19067,-374 398,-374 219.80933,0 398,167.4455 398,374 z" />
  <path
   id="91624312"
   class="fil2"
   d="M-887 947c68,-209 283,-327 479,-263 196,64 300,285 233,494 -68,208 -283,326 -479,262 -196,-63 -300,-285 -233,-493z" />
  <path
   id="91624400"
   class="fil2"
   d="M-548 1989c-177,-129 -223,-370 -102,-536 121,-167 364,-198 542,-69 177,129 223,370 101,536 -121,167 -364,198 -541,69z" />
  <path
   id="91624488"
   class="fil2"
   d="M548 1989c-177,129 -420,98 -541,-69 -122,-166 -76,-407 101,-536 178,-129 421,-98 542,69 121,166 75,407 -102,536z" />
  <path
   id="91624576"
   class="fil2"
   d="M887 947c67,208 -37,430 -233,493 -196,64 -411,-54 -479,-262 -67,-209 37,-430 233,-494 196,-64 411,54 479,263z" />
  <ellipse
   id="91624664"
   class="fil1"
   cx="0"
   cy="1235"
   rx="709"
   ry="709"
   d="m 709,1235 c 0,391.5699 -317.43011,709 -709,709 -391.56989,0 -709,-317.4301 -709,-709 0,-391.56989 317.43011,-709 709,-709 391.56989,0 709,317.43011 709,709 z" />
  <ellipse
   id="91624752"
   class="fil0"
   cx="0"
   cy="1235"
   rx="673"
   ry="673"
   d="m 673,1235 c 0,371.6876 -301.31236,673 -673,673 -371.68764,0 -673,-301.3124 -673,-673 0,-371.68764 301.31236,-673 673,-673 371.68764,0 673,301.31236 673,673 z" />
  <path
   id="91624840"
   class="fil3"
   d="M0 605c5,0 9,0 13,0 -9,77 45,156 132,185 86,28 176,-4 214,-72 7,5 15,10 22,15 -53,57 -56,153 -2,227 53,73 145,100 216,67 3,9 5,17 8,26 -76,15 -135,91 -135,182 0,91 59,167 135,181 -3,9 -5,18 -8,26 -71,-33 -163,-6 -216,68 -54,73 -51,169 2,226 -7,5 -15,11 -22,16 -38,-68 -128,-100 -214,-72 -87,28 -141,107 -132,184 -4,1 -8,1 -13,1 -5,0 -9,0 -13,-1 9,-77 -45,-156 -132,-184 -86,-28 -176,4 -214,72 -7,-5 -15,-11 -22,-16 53,-57 56,-153 2,-226 -53,-74 -145,-101 -216,-68 -3,-8 -5,-17 -8,-26 76,-14 135,-90 135,-181 0,-91 -59,-167 -135,-182 3,-9 5,-17 8,-26 71,33 163,6 216,-67 54,-74 51,-170 -2,-227 7,-5 15,-10 22,-15 38,68 128,100 214,72 87,-29 141,-108 132,-185 4,0 8,0 13,0z" />
  <ellipse
   id="91624928"
   class="fil2"
   cx="0"
   cy="1235"
   rx="394"
   ry="394"
   d="m 394,1235 c 0,217.6002 -176.39981,394 -394,394 -217.60019,0 -394,-176.3998 -394,-394 0,-217.6002 176.39981,-394 394,-394 217.60019,0 394,176.3998 394,394 z" />
  <ellipse
   id="91625016"
   class="fil3"
   cx="0"
   cy="605"
   rx="33"
   ry="33"
   d="m 33,605 c 0,18.2254 -14.774603,33 -33,33 -18.225397,0 -33,-14.7746 -33,-33 0,-18.2254 14.774603,-33 33,-33 18.225397,0 33,14.7746 33,33 z" />
  <path
   id="91625104"
   class="fil3"
   d="M-390 698c15,-11 36,-8 47,7 11,15 7,36 -8,47 -15,11 -35,8 -46,-7 -11,-15 -8,-36 7,-47z" />
  <path
   id="91625192"
   class="fil3"
   d="M-631 1030c6,-18 25,-27 42,-22 18,6 27,25 22,42 -6,18 -25,28 -42,22 -18,-6 -28,-25 -22,-42z" />
  <path
   id="91625280"
   class="fil3"
   d="M-631 1440c-6,-18 4,-37 22,-42 17,-6 36,3 42,21 5,18 -4,36 -22,42 -17,6 -36,-4 -42,-21z" />
  <path
   id="91625368"
   class="fil3"
   d="M-390 1771c-15,-10 -18,-31 -7,-46 11,-15 31,-19 46,-8 15,11 19,32 8,47 -11,15 -32,18 -47,7z" />
  <path
   id="91625456"
   class="fil3"
   d="M0 1898c-18,0 -33,-15 -33,-33 0,-19 15,-34 33,-34 18,0 33,15 33,34 0,18 -15,33 -33,33z" />
  <path
   id="91625544"
   class="fil3"
   d="M390 1771c-15,11 -36,8 -47,-7 -11,-15 -7,-36 8,-47 15,-11 35,-7 46,8 11,15 8,36 -7,46z" />
  <path
   id="91625632"
   class="fil3"
   d="M631 1440c-6,17 -25,27 -42,21 -18,-6 -27,-24 -22,-42 6,-18 25,-27 42,-21 18,5 28,24 22,42z" />
  <path
   id="91625720"
   class="fil3"
   d="M631 1030c6,17 -4,36 -22,42 -17,6 -36,-4 -42,-22 -5,-17 4,-36 22,-42 17,-5 36,4 42,22z" />
  <path
   id="91625808"
   class="fil3"
   d="M390 698c15,11 18,32 7,47 -11,15 -31,18 -46,7 -15,-11 -19,-32 -8,-47 11,-15 32,-18 47,-7z" />
  <rect
   id="91625896"
   class="fil4"
   x="-108"
   y="941"
   width="71"
   height="584" />
  <path
   id="91625984"
   class="fil4"
   d="M87 1175l0 376 -71 0 0 -376 71 0z" />
  <path
   id="91626072"
   class="fil4"
   d="M87 1047l0 96 -71 0 0 -96 71 0z" />
  <path
   id="91626160"
   class="fil4"
   d="M118 994l128 0c20,20 37,43 52,68l-180 0 0 -68z" />
  <path
   id="91626248"
   class="fil4"
   d="M118 1328l214 0c-7,24 -16,46 -28,68l-186 0 0 -68z" />
  <path
   id="91626336"
   class="fil4"
   d="M313 1091c20,44 31,92 31,144 0,23 -2,46 -6,68l-71 0c6,-22 9,-45 9,-68 0,-53 -15,-102 -41,-144l78 0zm-21 325c-58,94 -159,157 -276,163l0 -69c76,-5 144,-40 191,-94l85 0zm-308 163c-58,-3 -113,-20 -160,-48l0 -84c44,36 100,59 160,63l0 69zm0 -619c-60,3 -116,26 -160,63l0 -84c47,-29 102,-46 160,-48l0 69zm-192 549c-59,-45 -104,-109 -124,-183l72 0c12,33 30,63 52,89l0 94zm0 -455c-17,20 -31,42 -42,66l-75 0c23,-64 64,-119 117,-160l0 94zm-132 234c-3,-17 -4,-35 -4,-53 0,-27 3,-53 8,-77l71 0c-7,24 -11,50 -11,77 0,18 2,36 6,53l-70 0z" />
  <path
   id="91626424"
   class="fil4"
   d="M87 901l0 114 -71 0 0 -124c24,1 48,4 71,10z" />
  <path
   id="91622464"
   class="fil4"
   d="M296 1091l0 212 -178 0 0 -212 178 0z" />
  <path
   id="91622376"
   class="fil2"
   d="M142 1148l119 0c10,27 15,56 15,87 0,8 -1,15 -1,23l-133 0 0 -110z" />
  <rect
   id="91626600"
   class="fil4"
   x="126"
   y="1184"
   width="186"
   height="38" />
  <path
   id="91626688"
   class="fil4"
   d="M240 988l0 366 -3 0c-15,31 -37,59 -63,81l-3 0 0 -499c25,14 48,32 69,52z" />
  <g
   id="g45">
   <path
   id="91621584"
   class="fil4"
   d="M-890 2481c2,-1 4,-3 7,-5 2,-1 5,-3 9,-4 3,-1 6,-1 9,-1 2,0 5,0 6,0l-10 31 -26 6 5 -27zm-5 79l21 0c1,1 1,3 0,5 0,3 -2,5 -5,8 -3,2 -6,5 -9,7 -3,2 -5,4 -7,6l0 -26zm-57 46l-16 6c0,-2 0,-4 -1,-7 0,-4 -1,-7 -2,-12 0,-4 -1,-8 -2,-11 0,-3 0,-5 0,-7l21 -5c0,3 0,6 0,9 0,4 0,7 0,11 0,4 0,7 0,10 0,3 0,5 0,6zm-183 -125l6 11 10 -5c7,8 14,19 21,32 7,13 14,28 21,46 8,17 15,32 23,45 8,13 16,24 24,33 4,7 9,14 16,20 6,7 14,10 23,11 9,0 18,-2 25,-7 7,-5 14,-9 19,-14l0 21c-7,3 -16,6 -26,11 -11,4 -23,9 -37,15 -14,5 -26,10 -36,13 -11,4 -19,6 -26,8 1,2 2,4 3,7 1,2 3,5 5,9 2,3 5,6 7,9 2,2 4,5 6,6 6,7 13,13 22,17 10,3 20,4 32,1 13,-3 23,-7 32,-11 9,-3 17,-6 23,-7l0 63c-10,-2 -21,-4 -36,-7 -14,-2 -31,-6 -49,-10 -19,-4 -35,-9 -48,-13 -14,-4 -25,-8 -34,-12 2,-2 4,-4 6,-7 1,-3 2,-7 1,-11 -1,-4 -3,-8 -7,-11 -3,-3 -7,-6 -10,-7 -5,-7 -10,-16 -16,-27 -5,-11 -7,-23 -6,-37 1,-14 5,-26 12,-35 6,-9 13,-16 20,-21 0,-3 0,-6 0,-9 0,-4 0,-8 -1,-12 -1,-4 -2,-8 -4,-12 -2,-3 -3,-6 -5,-9 -1,0 -2,0 -3,0 -2,0 -3,0 -4,0 -2,0 -3,0 -3,0 -7,-2 -14,-3 -24,-3 -9,0 -21,5 -34,12 -13,8 -24,17 -34,26 -9,9 -17,16 -23,23 2,3 4,6 8,9 3,3 8,5 14,7 6,1 12,2 17,2 5,1 10,1 13,2 0,6 1,14 2,22 1,9 4,19 9,30 5,11 10,20 16,28 5,8 10,14 15,19l-11 6c1,2 3,5 5,7 2,3 5,5 9,6 4,1 7,2 10,2 3,0 6,0 8,0 -5,1 -10,2 -16,4 -6,2 -13,3 -21,5 -8,1 -15,1 -21,0 -6,-1 -11,-2 -15,-4 -2,1 -4,3 -6,4 -2,2 -4,4 -6,7 -2,3 -3,6 -3,9 -1,2 -1,5 -1,6 -1,4 -1,9 1,15 1,6 4,13 10,20 6,7 11,13 17,16 6,4 10,6 14,7 1,0 2,-1 3,-1 1,0 3,-1 4,-3 2,-1 4,-2 5,-3 1,-2 2,-3 3,-4 13,-3 30,-5 49,-4 20,0 42,4 68,12 27,8 49,15 69,23 19,7 36,13 49,16 7,1 17,3 29,6 12,3 25,7 41,10 16,4 29,6 41,7 12,0 21,0 29,-2 6,-4 12,-9 20,-13 9,-4 18,-9 29,-14 11,-6 20,-11 27,-17 8,-6 14,-12 18,-19l-21 -20c-9,-1 -21,-2 -36,-2 -14,0 -31,0 -50,0 -19,-1 -36,-2 -50,-5 -14,-2 -26,-6 -36,-9 -1,-4 -1,-10 -2,-17 -1,-7 -2,-15 -2,-25 -1,-10 -1,-19 -1,-27 0,-8 0,-14 0,-20 5,0 12,-2 19,-3 7,-2 16,-4 25,-7 10,-3 18,-5 26,-6 7,-2 13,-4 19,-4 1,0 1,-1 2,-1 1,0 2,-1 2,-3 1,-1 1,-2 1,-4 0,-1 0,-2 0,-3 6,-7 9,-14 10,-22 1,-8 -3,-14 -13,-20 -9,-6 -19,-9 -28,-11 -10,-2 -17,-3 -21,-4 -3,3 -6,5 -10,8 -4,3 -8,6 -14,8 -5,2 -9,4 -13,4 -4,1 -7,1 -10,1 0,-2 0,-4 0,-6 0,-2 0,-4 0,-7 0,-2 0,-4 0,-5 0,-1 0,-2 0,-3 3,-4 8,-6 14,-8 5,-2 12,-3 20,-4 8,-1 14,-3 20,-6 6,-4 10,-8 14,-13 5,-6 10,-14 17,-24 6,-9 12,-21 18,-34 7,-13 13,-24 18,-33 5,-10 10,-18 14,-24 7,-7 11,-15 13,-25 1,-10 -4,-21 -15,-33 -10,-12 -22,-21 -33,-28 -12,-8 -21,-14 -27,-18 -4,2 -8,4 -14,6 -5,3 -12,6 -21,9 -8,3 -15,5 -22,7 -6,2 -12,3 -16,4l5 -31 42 -26c0,-2 0,-4 0,-7 0,-2 0,-5 0,-9 1,-3 2,-6 2,-9 1,-3 2,-5 3,-7 0,-2 0,-5 -1,-9 0,-3 -1,-7 -4,-10 -2,-4 -4,-6 -7,-8 -3,-2 -6,-3 -9,-4l-31 5 0 -10 -57 -26 -11 16c2,1 3,3 5,5 1,3 2,5 2,8 1,2 1,5 2,7 0,2 1,4 2,6l-6 10c-3,2 -7,4 -13,6 -5,2 -11,4 -18,5 -8,1 -15,2 -21,1 -6,0 -11,-1 -15,-2l0 11c1,4 3,9 4,15 2,7 3,13 5,21 3,8 6,15 10,21 3,6 8,11 12,16l47 -5 0 26c-5,2 -10,5 -16,8 -6,3 -13,7 -21,11 -7,4 -14,9 -20,14 -7,5 -12,9 -16,13 3,7 6,12 12,17 5,6 12,8 20,9 8,0 15,-1 21,-3 6,-3 11,-5 15,-7l0 26 -42 21c0,-1 0,-2 -1,-3 0,-2 -1,-3 -2,-5 -1,-2 -1,-3 -2,-4 0,-2 0,-3 0,-4 -5,-7 -11,-16 -19,-26 -8,-9 -19,-17 -32,-24 -13,-6 -25,-10 -35,-10 -10,0 -18,1 -24,3 4,-4 7,-11 9,-20 2,-9 1,-19 -3,-31 -5,-11 -11,-19 -19,-23 -9,-3 -16,-5 -23,-4 -5,-2 -12,-1 -20,3 -9,3 -18,9 -30,17 -11,8 -21,14 -29,16 -8,3 -15,3 -20,0l0 11c3,8 9,16 17,24 8,8 18,14 32,18 13,4 25,5 36,4 10,-1 18,-3 24,-5zm953 -182c0,5 -2,10 -5,16 -2,7 -7,14 -13,22 -6,8 -12,14 -18,19 -6,5 -11,8 -16,11 6,7 13,14 21,21 9,8 20,13 32,17 13,3 24,4 33,3 10,-1 18,-3 24,-5 8,-7 14,-16 17,-29 3,-13 0,-26 -11,-40 -10,-15 -22,-24 -34,-29 -13,-5 -23,-7 -30,-6zm-78 276c4,3 8,6 13,10 6,4 11,9 17,14 5,6 9,11 12,16 3,5 4,9 5,12 1,-1 3,-4 5,-7 2,-3 5,-7 8,-11 4,-4 7,-8 9,-11 2,-3 3,-5 4,-7 8,-7 12,-16 13,-28 1,-12 -5,-23 -18,-33 -13,-11 -26,-16 -39,-15 -13,0 -23,3 -29,8l0 16 0 36zm99 271c4,-16 8,-37 13,-62 6,-26 13,-55 22,-89 9,-34 18,-63 28,-89 9,-25 18,-46 26,-62 -8,4 -16,11 -26,19 -9,8 -18,19 -26,32 -9,14 -16,26 -22,37 -5,11 -10,20 -15,27 -6,6 -13,14 -22,24 -9,11 -19,23 -30,36 -12,14 -23,24 -32,32 -10,8 -18,13 -25,17 2,5 4,12 6,19 3,8 6,17 10,28 4,10 8,19 11,27 4,8 7,14 9,20 1,4 3,8 7,13 3,4 9,7 16,9 6,3 13,4 18,4 5,0 9,0 11,0 2,-2 4,-4 6,-7 2,-3 5,-7 7,-12 2,-5 4,-9 5,-13 1,-4 2,-7 3,-10zm131 -417l0 11c0,2 1,3 2,6 1,2 2,4 3,7 1,2 1,5 2,7 1,2 2,4 3,6 3,5 6,13 12,25 5,11 12,23 22,37 10,13 20,22 30,25 9,4 18,4 24,1l6 32c-2,9 -4,21 -7,35 -2,14 -6,30 -12,48 -5,18 -10,34 -16,48 -7,14 -12,26 -17,35 -6,1 -14,3 -23,6 -9,2 -20,5 -32,8 -12,3 -23,5 -32,5 -9,0 -17,-1 -23,-3l0 10c0,5 1,11 2,18 1,7 5,16 10,25 5,10 11,17 18,23 6,6 12,10 17,12 17,1 39,2 65,2 26,0 57,-1 92,-2 35,-1 66,-3 93,-3 27,-1 50,-2 68,-2 3,0 7,0 12,-2 5,-1 10,-4 16,-9 5,-5 10,-10 14,-15 4,-6 7,-11 10,-15 2,-7 2,-15 -1,-24 -3,-10 -11,-19 -23,-27 -13,-9 -25,-15 -35,-19 -11,-4 -19,-7 -24,-9 -7,5 -14,8 -23,11 -8,2 -18,3 -30,2 -11,0 -21,-1 -29,-2 -9,-1 -17,-1 -23,0 0,-2 1,-4 1,-7 0,-3 1,-7 2,-11 1,-5 1,-8 2,-11 0,-3 1,-6 1,-8 5,-13 8,-29 10,-49 2,-20 4,-43 8,-68 3,-26 11,-48 23,-65 12,-17 26,-31 42,-42 3,-4 5,-9 8,-16 2,-6 4,-14 5,-23 1,-8 1,-16 0,-22 -1,-7 -2,-12 -3,-17 -4,-6 -10,-12 -18,-19 -8,-6 -17,-11 -29,-16 -12,-4 -22,-7 -31,-8 -8,-2 -15,-3 -21,-4 0,1 0,2 0,3 -1,1 -1,2 -2,2 -1,0 -2,1 -3,1 -9,5 -20,11 -33,19 -13,8 -30,16 -48,24 -19,9 -35,14 -50,18 -14,3 -26,6 -35,6z" />
   <path
   id="91621496"
   class="fil4"
   d="M1240 2304c-1,-3 -4,-7 -8,-12 -4,-5 -9,-9 -16,-14 -7,-4 -14,-7 -19,-8 -6,-1 -10,-2 -14,-2 -10,9 -21,20 -33,34 -13,15 -27,32 -43,51 -16,20 -31,36 -44,50 -14,13 -26,24 -36,32 0,-4 1,-8 2,-14 2,-6 5,-12 10,-20 5,-8 9,-15 14,-20 4,-6 8,-11 10,-14 0,-4 -1,-11 -4,-18 -2,-8 -7,-17 -15,-26 -7,-10 -14,-17 -21,-21 -7,-5 -13,-7 -17,-8 -1,0 -2,0 -3,1 -1,0 -1,1 -2,2 0,0 0,1 0,2 0,0 -1,1 -4,2 -2,1 -6,3 -13,6 -6,3 -14,4 -22,5 -9,1 -17,1 -23,0 -7,-1 -12,-2 -16,-2l0 10c1,3 4,8 6,13 3,5 6,12 11,19 4,7 8,14 13,20 4,6 8,11 11,16l0 21c-2,0 -5,0 -9,0 -3,1 -7,1 -12,1 -4,0 -8,-1 -11,-2 -4,-1 -7,-3 -9,-5 0,-1 0,-1 0,-2 0,-1 0,-2 0,-3 1,-7 0,-14 -3,-22 -3,-8 -11,-14 -23,-20 -11,-5 -22,-8 -32,-9 -9,-1 -16,-1 -20,-1l-11 5c4,9 7,20 11,32 4,13 8,27 11,43 3,16 5,30 6,42 1,12 2,21 3,29l-5 63c0,5 0,11 0,19 0,8 0,17 1,27 0,11 1,20 2,28 1,8 1,14 2,19 -7,3 -15,6 -25,10 -10,4 -22,8 -35,12 -13,5 -24,8 -34,10 -10,2 -19,4 -25,5l0 15c4,4 9,8 16,13 6,6 14,11 23,16 8,5 16,9 22,10 7,2 12,3 17,3 -1,2 -2,4 -4,7 -1,2 -2,5 -4,9 -2,4 -3,8 -5,11 -1,4 -2,7 -3,10 0,2 1,5 2,9 1,3 4,7 8,11 4,4 8,7 12,9 3,3 7,5 9,7 1,0 2,0 3,0 1,0 2,0 3,-1 0,0 1,-1 2,-2 1,0 2,-1 3,-2 4,-4 8,-9 11,-15 4,-7 6,-15 6,-26 0,-10 -1,-19 -3,-28 -2,-8 -3,-15 -4,-20l42 -21c1,8 2,18 2,29 1,11 2,24 2,38 1,15 1,27 1,38 0,10 0,19 0,26l0 15 -26 0 0 11c3,1 6,4 9,6 4,3 7,6 10,10 4,4 7,8 8,11 2,3 3,7 4,9l11 5c3,-1 7,-4 11,-7 5,-4 9,-9 15,-15 5,-6 10,-12 14,-17 4,-5 8,-9 12,-13 0,-7 -1,-16 -1,-26 0,-11 -1,-24 -3,-39 -1,-15 -2,-27 -3,-38 -2,-11 -3,-20 -4,-27 1,1 2,2 4,3 1,1 2,1 4,2 2,1 3,2 5,3 1,1 2,2 3,2 3,5 8,9 13,14 5,5 11,9 18,11 7,3 13,4 18,3 6,0 10,-1 13,-1 0,1 0,4 0,7 -1,3 -2,6 -3,11 -1,4 -2,8 -4,11 -1,3 -2,5 -3,7 0,2 0,4 1,6 1,3 3,6 6,10 3,3 6,6 10,9 3,2 6,4 9,6l10 0c4,-4 7,-9 10,-15 3,-6 5,-13 7,-21 1,-8 2,-15 2,-21 1,-6 1,-11 2,-16l-10 -5 -11 -31c-1,0 -3,0 -6,0 -3,0 -5,0 -9,0 -3,0 -5,0 -7,0 -1,0 -3,0 -4,0l0 15c-4,-3 -9,-6 -16,-9 -6,-3 -14,-5 -23,-6 -8,-1 -16,-1 -22,-1 -7,1 -12,1 -17,1 1,-2 2,-4 3,-7 1,-3 1,-7 2,-11 0,-5 1,-8 1,-11 0,-3 0,-6 0,-8 1,0 3,-2 6,-3 3,-1 6,-2 10,-4 4,-1 7,-2 11,-2 3,-1 6,-1 9,-1 3,-3 9,-7 16,-12 7,-5 13,-12 18,-20 6,-8 8,-15 5,-21 -3,-6 -7,-11 -13,-15l-10 0c0,-7 0,-15 0,-26 0,-10 0,-22 0,-36 1,-13 1,-25 2,-34 1,-10 2,-17 3,-24 4,1 10,1 17,0 7,-1 15,-5 25,-11 10,-6 19,-13 27,-19 8,-7 14,-12 19,-16 6,-8 15,-18 26,-28 11,-11 24,-24 39,-38 15,-13 28,-26 38,-37 10,-10 17,-20 22,-28zm16 105c-4,-3 -10,-7 -16,-11 -6,-4 -13,-9 -20,-13 -8,-4 -15,-7 -21,-8 -6,-1 -12,-1 -16,0 -5,6 -11,14 -18,22 -7,9 -15,19 -24,30 -8,12 -16,22 -23,30 -7,9 -13,16 -18,22 -4,6 -9,10 -15,15 -6,4 -13,8 -21,11 -8,3 -15,6 -20,10 -5,3 -9,7 -12,11 0,7 2,15 7,23 5,8 13,16 25,23 12,7 22,12 31,15 9,3 16,5 20,7 -1,3 -4,6 -6,10 -3,4 -6,8 -10,13 -4,5 -8,9 -11,12 -3,3 -7,5 -9,7 -3,-2 -6,-2 -11,-1 -4,1 -9,5 -14,11 -5,6 -9,12 -12,16 -2,5 -4,8 -5,10 1,4 3,8 5,13 3,4 7,9 12,14 5,5 10,8 14,10 5,2 8,4 11,5 2,0 6,0 10,-1 4,0 8,-1 13,-3 6,-2 10,-4 14,-6 4,-2 7,-4 10,-6 0,6 0,14 0,23 0,9 0,20 0,32 0,12 0,23 0,32 0,9 0,17 0,23l0 57 -16 0 0 10c4,3 8,7 12,11 3,5 6,11 8,17 2,6 5,10 7,13 3,3 6,5 10,6 1,-1 3,-2 6,-4 3,-1 6,-4 9,-7 3,-3 5,-6 7,-8 1,-3 3,-5 4,-7 7,-3 13,-9 19,-15 5,-7 8,-17 9,-28 1,-11 1,-21 0,-30 -2,-8 -2,-15 -2,-21 0,-7 -1,-15 -2,-26 -2,-10 -3,-22 -4,-36 -1,-14 -1,-26 0,-37 1,-10 3,-19 6,-26 2,0 6,0 9,0 4,0 9,0 14,0 5,-1 10,-1 14,-2 4,-1 7,-2 10,-3 10,-2 19,-7 26,-17 8,-9 9,-22 3,-39 -5,-16 -13,-28 -25,-36 -12,-8 -22,-12 -30,-12 3,-6 8,-14 16,-23 7,-9 14,-20 21,-32 6,-12 8,-22 6,-32 -2,-9 -6,-16 -12,-22 -9,0 -18,2 -29,7 -10,6 -21,15 -31,28 -11,14 -19,26 -26,38 -7,11 -13,20 -18,26l-21 -21c7,-7 16,-16 26,-28 11,-11 24,-24 39,-39 15,-15 27,-28 38,-39 11,-10 20,-18 27,-24zm-339 31c3,1 6,2 10,4 4,1 8,3 13,5 5,2 9,3 12,3 3,0 5,-1 7,-2 0,2 0,4 0,7 0,2 0,5 0,8 0,3 0,6 0,7 0,2 0,3 0,4l-42 0 0 -36zm0 73c3,1 6,1 10,2 4,1 8,2 13,3 5,1 9,2 12,3 3,0 5,1 7,2l0 5 0 16c-3,1 -6,2 -10,3 -4,0 -8,1 -13,2 -4,1 -8,2 -11,3 -3,1 -6,2 -8,2l0 -41zm0 78c3,0 6,0 10,0 3,0 7,0 11,0 5,0 8,0 12,0 3,0 6,0 9,0l0 10 0 16 -47 16 5 -42zm282 0c1,2 2,4 4,6 1,3 4,6 7,9 3,4 6,7 8,10 3,2 5,4 7,6 -5,1 -10,2 -17,3 -6,2 -14,3 -22,5 -9,2 -17,3 -23,4 -7,2 -12,3 -16,4 2,-3 6,-6 10,-9 4,-4 10,-8 16,-13 6,-5 11,-9 15,-13 5,-5 8,-9 11,-12zm73 239c13,2 25,-2 35,-11 9,-10 11,-25 4,-45 -7,-21 -18,-35 -33,-44 -15,-9 -27,-12 -38,-9l0 10 6 27 -11 36c4,2 7,4 11,7 3,3 6,7 8,11 2,5 4,8 5,11 0,3 1,6 2,7 1,0 2,0 3,0 1,0 2,0 2,0 1,0 2,0 3,0 1,0 2,0 3,0z" />
  </g>
 </g>
</svg>