<?xml version="1.0" encoding="UTF-8" standalone="no"?>
<!-- Creator: CorelDRAW -->

<svg
   xmlns:dc="http://purl.org/dc/elements/1.1/"
   xmlns:cc="http://creativecommons.org/ns#"
   xmlns:rdf="http://www.w3.org/1999/02/22-rdf-syntax-ns#"
   xmlns:svg="http://www.w3.org/2000/svg"
   xmlns="http://www.w3.org/2000/svg"
   xmlns:sodipodi="http://sodipodi.sourceforge.net/DTD/sodipodi-0.dtd"
   xmlns:inkscape="http://www.inkscape.org/namespaces/inkscape"
   xml:space="preserve"
   x="-135"
   y="90"
   width="900"
   height="600"
   viewBox="-1500 0 10000 6666.6667"
   id="svg2"
   version="1.1"
   inkscape:version="0.92.3 (2405546, 2018-03-11)"
   sodipodi:docname="屏東.svg"
   inkscape:export-filename="C:\D\旗海圖幟\ptx.png"
   inkscape:export-xdpi="40.32"
   inkscape:export-ydpi="40.32"><metadata
   id="metadata43"><rdf:RDF><cc:Work
       rdf:about=""><dc:format>image/svg+xml</dc:format><dc:type
         rdf:resource="http://purl.org/dc/dcmitype/StillImage" /></cc:Work></rdf:RDF></metadata><sodipodi:namedview
   pagecolor="#ffffff"
   bordercolor="#666666"
   borderopacity="1"
   objecttolerance="10"
   gridtolerance="10"
   guidetolerance="10"
   inkscape:pageopacity="0"
   inkscape:pageshadow="2"
   inkscape:window-width="1920"
   inkscape:window-height="1027"
   id="namedview41"
   showgrid="false"
   inkscape:zoom="1"
   inkscape:cx="428.43324"
   inkscape:cy="311.90376"
   inkscape:window-x="-8"
   inkscape:window-y="-8"
   inkscape:window-maximized="1"
   inkscape:current-layer="svg2" />
 <defs
   id="defs4">
  <style
   type="text/css"
   id="style6">
   
    .str0 {stroke:#1F1A17;stroke-width:3}
    .str1 {stroke:#1F1A17;stroke-width:3}
    .fil6 {fill:none}
    .fil3 {fill:#0093DD}
    .fil1 {fill:#1F1A17}
    .fil5 {fill:#84C326}
    .fil7 {fill:#DA251D}
    .fil0 {fill:#FFFFFF}
    .fil2 {fill:#FCDB00}
    .fil4 {fill:#2B7D3C}
   
  </style>
 
  
  
  
  
  
  
  
  
  
  
  
  
  
  
  
  
  
  
  
  
  
  
 </defs>
 <rect
   style="fill:#ffffff;stroke-width:3.33333325"
   height="6666.6665"
   width="10000"
   y="-3.3333334e-005"
   x="-1500"
   class="fil0"
   id="71963440" /><g
   id="g37"
   transform="matrix(3.3333333,0,0,3.3333333,3500,-3.3333332e-5)"
   style="fill:#dc0000;fill-opacity:1">
   <path
   style="fill:#dc0000;fill-opacity:1"
   inkscape:connector-curvature="0"
   d="m -713,174 -3,-6 c 0,-1 0,-1 0,-2 0,-1 0,-2 0,-3 0,-1 0,-2 0,-3 0,0 0,-1 0,-2 1,-1 2,-2 3,-4 1,-2 2,-4 4,-7 2,-3 3,-5 5,-8 1,-2 3,-4 4,-6 0,-4 -2,-9 -5,-14 -4,-4 -9,-8 -18,-9 -8,-2 -16,-3 -22,-2 -7,1 -11,2 -14,4 -4,-1 -9,-1 -15,1 -5,1 -12,3 -20,5 -8,3 -14,4 -20,3 -6,0 -11,-1 -14,-3 -1,1 -3,2 -4,4 -2,2 -4,4 -6,7 -2,2 -4,5 -5,6 0,2 -1,4 -1,5 -3,11 -8,24 -13,41 -6,17 -13,36 -21,58 -8,23 -16,42 -24,59 -7,17 -14,30 -20,41 0,4 -2,8 -4,14 -2,5 -6,11 -10,18 -4,6 -7,12 -10,17 -2,6 -3,10 -4,14 3,0 7,-1 13,-2 5,-2 11,-4 18,-9 7,-4 13,-9 18,-14 4,-5 8,-9 10,-13 5,-8 10,-17 15,-29 6,-12 12,-25 19,-41 7,-16 14,-29 19,-41 5,-12 9,-21 13,-29 h 9 l -3,9 c 1,2 1,5 2,8 0,3 1,7 3,11 1,4 3,8 5,11 2,3 4,6 6,8 -2,1 -4,2 -6,3 -3,1 -6,2 -10,4 -3,1 -7,3 -9,5 -3,2 -5,4 -6,6 v 16 c 1,1 2,2 4,3 2,1 4,2 7,2 3,1 5,1 8,1 2,0 4,0 6,0 0,1 1,3 1,4 1,2 1,3 1,6 1,2 1,3 1,5 0,2 0,3 0,4 -1,0 -3,1 -4,2 -2,1 -4,2 -6,3 -2,1 -5,2 -7,2 -2,1 -4,2 -5,2 -2,1 -5,2 -9,3 -3,1 -8,2 -13,3 -5,1 -10,2 -13,4 -4,2 -7,4 -9,6 1,0 1,1 2,2 0,1 1,2 1,3 1,1 1,3 2,4 0,1 1,2 1,3 2,5 5,8 9,11 4,3 10,5 17,5 7,-1 14,-2 19,-3 5,-2 9,-3 12,-3 0,3 -1,7 -1,11 -1,5 -2,11 -5,17 -2,7 -6,13 -9,18 -4,5 -7,9 -10,13 l 6,6 c 0,0 1,-1 2,-1 1,0 3,0 4,0 2,0 3,0 4,-1 1,0 2,0 2,-1 7,-2 13,-6 19,-12 6,-5 10,-13 13,-22 3,-9 5,-17 6,-24 1,-7 2,-13 3,-17 1,0 4,-1 6,-2 3,0 6,-1 10,-2 3,-1 6,-2 9,-3 3,-1 5,-2 6,-2 1,6 1,14 2,23 0,10 1,21 1,33 1,13 1,24 2,33 0,9 1,17 1,23 l -3,13 c 1,1 2,2 3,4 1,1 2,3 4,5 2,2 3,4 5,6 1,1 3,2 4,3 0,-2 2,-4 4,-6 2,-3 5,-5 8,-8 4,-2 7,-5 9,-7 2,-2 3,-5 4,-7 2,-6 3,-15 4,-25 1,-10 0,-22 -1,-36 -2,-14 -3,-26 -4,-37 -2,-10 -2,-19 -2,-26 0,0 1,0 2,0 0,0 1,0 2,0 1,0 2,0 3,0 1,0 2,0 2,0 4,-2 8,-3 14,-4 6,-1 13,-1 20,-1 8,-1 15,-2 21,-3 5,-1 10,-3 14,-5 3,-5 5,-10 5,-15 0,-6 -3,-11 -10,-15 -7,-4 -14,-7 -21,-9 -7,-2 -12,-4 -15,-5 -2,2 -5,4 -8,6 -3,2 -7,3 -12,4 -5,1 -9,1 -12,2 -4,0 -6,0 -8,1 h 3 l -3,-22 c 1,-1 3,-3 5,-5 3,-2 5,-4 7,-7 3,-4 4,-6 5,-8 1,-2 1,-4 1,-5 -1,-2 -2,-4 -4,-7 -2,-2 -4,-4 -7,-5 -3,-2 -5,-3 -8,-3 -2,0 -4,-1 -6,-1 1,-1 3,-2 4,-3 2,-1 4,-3 5,-4 2,-1 4,-2 5,-3 1,-1 1,-1 2,-2 5,-2 10,-5 13,-9 4,-5 4,-10 2,-16 -2,-6 -6,-10 -11,-14 -5,-4 -10,-6 -13,-8 l -7,3 z m -106,28 19,-53 c 3,-1 7,-1 12,-2 4,-1 10,-2 16,-3 6,-1 12,-3 16,-4 5,-1 9,-2 12,-3 l -6,37 c -4,2 -8,3 -14,6 -6,2 -13,5 -20,8 -8,3 -15,6 -21,8 -5,3 -10,4 -14,6 z m 25,22 c 4,-1 8,-3 14,-5 5,-3 12,-6 19,-9 8,-4 15,-7 21,-9 6,-2 11,-4 15,-5 -1,2 -2,6 -3,10 -1,3 -3,8 -5,14 -2,5 -4,10 -5,14 -1,5 -2,9 -3,12 l -40,15 c 1,-2 1,-4 1,-7 0,-4 -1,-7 -3,-11 -2,-5 -4,-8 -6,-11 -2,-3 -4,-6 -5,-8 z m 13,78 c 2,-1 4,-2 7,-4 4,-2 7,-3 11,-5 5,-2 8,-3 11,-4 3,-1 6,-2 8,-3 v 25 c -2,1 -5,2 -8,3 -3,1 -6,2 -11,3 -4,2 -7,3 -11,4 -3,1 -5,2 -7,3 z M 77,149 c -1,-4 -3,-7 -6,-10 -3,-3 -7,-5 -13,-6 -5,-1 -10,-1 -14,0 -5,0 -8,0 -11,0 0,-1 0,-3 0,-5 -1,-3 -2,-6 -3,-9 -2,-3 -4,-6 -6,-8 -2,-2 -4,-4 -7,-6 -2,0 -5,0 -9,1 -4,0 -8,0 -12,0 -5,1 -9,1 -13,0 -4,0 -7,0 -9,-1 1,2 2,5 3,8 0,4 1,8 1,13 0,4 1,8 1,12 0,3 0,6 1,8 l -56,12 -3,3 c 1,2 2,4 3,6 2,3 3,5 4,9 1,3 2,5 3,8 1,2 2,4 2,6 1,4 3,8 6,11 4,4 8,6 14,6 5,0 10,-1 15,-3 4,-2 7,-4 9,-5 l 3,19 c -2,0 -5,1 -8,2 -3,0 -7,1 -11,3 -4,1 -8,2 -11,4 -3,1 -5,2 -7,3 -5,2 -10,3 -16,4 -6,1 -12,0 -20,-1 -8,-1 -14,-2 -19,-2 -6,0 -10,1 -14,2 v 3 c 3,6 5,12 9,20 3,8 6,17 10,27 4,11 8,20 11,27 4,8 7,15 10,20 l -3,22 c 3,2 6,5 10,7 5,2 10,3 15,3 6,-1 11,-2 15,-3 4,-2 8,-3 10,-4 -2,2 -5,6 -8,10 -3,4 -7,8 -12,12 -5,5 -10,8 -14,10 -4,3 -7,4 -9,5 -5,4 -10,7 -16,10 -6,3 -13,6 -21,8 -9,2 -15,5 -21,8 -6,4 -11,8 -14,12 7,5 16,8 27,10 11,3 24,1 38,-4 15,-6 28,-13 39,-21 10,-9 20,-16 27,-23 v 69 c -1,0 -2,0 -4,0 -2,-1 -3,-1 -5,-2 -3,0 -4,0 -6,-1 -2,0 -3,0 -4,0 1,2 2,5 3,8 1,3 3,8 5,12 3,5 5,9 7,12 1,4 3,6 4,8 0,0 1,0 1,0 1,0 1,0 2,0 0,0 0,0 2,0 1,0 3,-1 6,-1 3,-1 6,-1 10,-2 4,-2 7,-3 10,-4 3,-2 5,-4 6,-5 2,-4 4,-8 5,-14 1,-6 1,-13 0,-20 0,-8 -1,-15 -2,-21 0,-5 0,-10 0,-14 v -37 c 2,0 3,1 4,2 1,1 3,3 4,4 2,2 3,3 5,4 1,1 2,2 3,2 4,4 10,9 16,16 7,6 14,14 23,22 9,9 17,16 23,20 7,5 12,9 16,11 4,-1 8,-2 14,-2 6,-1 13,-1 20,-2 8,0 15,-1 21,-3 5,-2 10,-3 14,-5 -1,-2 -2,-3 -3,-5 -1,-2 -2,-4 -4,-6 -2,-3 -3,-5 -5,-7 -2,-2 -3,-3 -4,-4 -8,-3 -17,-8 -29,-13 -12,-6 -26,-13 -41,-23 -16,-9 -29,-19 -41,-28 -12,-9 -22,-17 -29,-24 4,-1 9,-3 15,-4 6,-1 13,-2 20,-3 8,-1 14,-3 20,-6 5,-3 10,-5 13,-9 1,-2 2,-4 2,-8 0,-3 0,-7 -1,-12 0,-4 1,-9 2,-12 2,-3 4,-6 7,-8 1,-2 3,-5 5,-7 3,-3 6,-6 9,-10 3,-3 7,-6 9,-8 3,-3 6,-5 8,-6 0,-1 0,-3 0,-4 0,-2 0,-4 -1,-6 0,-2 0,-4 -1,-5 0,-2 -1,-3 -1,-4 -1,0 -1,-1 -2,-2 -1,0 -2,-1 -3,-1 -1,-1 -2,-1 -3,-2 0,0 -1,-1 -2,-1 -5,-5 -12,-10 -21,-15 -8,-5 -17,-7 -28,-8 -11,-1 -20,0 -28,2 -8,2 -14,4 -19,5 v -15 c 2,-2 6,-4 9,-7 4,-2 9,-5 14,-7 5,-2 10,-4 14,-4 4,0 7,1 9,2 2,-2 3,-3 5,-5 1,-3 2,-5 2,-8 0,-2 0,-4 0,-7 0,-2 0,-3 0,-5 z m -10,72 10,6 c -2,3 -4,7 -6,12 -2,4 -4,10 -7,16 -2,6 -5,12 -7,16 -2,5 -4,9 -5,12 -1,3 -2,5 -4,8 -2,3 -4,5 -8,6 -4,2 -8,3 -11,3 -4,1 -6,1 -8,2 v -16 c 2,0 4,-1 8,-3 3,-2 7,-5 10,-9 4,-4 6,-7 8,-11 1,-3 2,-6 2,-8 l -7,-9 c -1,0 -2,0 -4,0 -2,0 -4,1 -7,1 -2,1 -4,1 -6,1 -2,1 -3,1 -4,1 v -19 z m -90,22 c 0,1 0,2 0,3 0,2 0,4 0,6 0,2 0,4 0,5 0,2 0,3 0,4 -2,1 -5,2 -8,3 -3,2 -7,3 -10,4 -4,2 -8,4 -10,6 -3,2 -5,4 -6,6 1,2 2,5 5,7 2,3 5,6 9,9 5,2 8,4 12,5 3,1 6,1 8,1 v 12 l -31,13 -7,-6 c 1,-3 1,-5 1,-8 0,-3 0,-7 -1,-11 -1,-5 -1,-9 -2,-13 0,-3 -1,-6 -1,-9 -1,-4 -1,-9 1,-13 2,-5 5,-9 11,-13 6,-3 12,-6 17,-8 5,-1 9,-2 12,-3 z"
   class="fil7"
   id="71959568" />
   <path
   style="fill:#dc0000;fill-opacity:1"
   inkscape:connector-curvature="0"
   d="m 938,127 c -1,-2 -3,-4 -5,-7 -3,-3 -6,-6 -10,-8 -4,-3 -8,-5 -11,-6 -4,0 -6,-1 -8,-1 -6,5 -13,12 -20,21 -8,9 -16,19 -26,30 -10,12 -19,22 -27,30 -8,8 -15,14 -21,19 0,-2 0,-5 2,-8 1,-3 2,-7 5,-12 3,-5 6,-9 9,-12 2,-4 4,-6 6,-8 0,-3 -1,-7 -3,-11 -1,-5 -4,-10 -9,-16 -4,-6 -8,-10 -12,-12 -5,-3 -8,-5 -11,-5 0,0 -1,0 -1,0 -1,1 -1,1 -1,1 -1,1 -1,1 -1,2 0,0 0,0 -2,1 -1,1 -4,2 -7,4 -4,1 -9,2 -14,3 -5,0 -10,0 -14,0 -4,-1 -7,-1 -9,-2 v 7 c 1,2 2,4 3,7 2,3 4,7 7,12 2,4 5,8 7,12 3,3 5,6 8,9 v 13 c -2,0 -4,0 -6,0 -2,0 -4,0 -7,0 -3,0 -5,0 -7,-1 -2,-1 -4,-2 -5,-3 0,0 0,-1 0,-1 0,-1 0,-1 0,-2 1,-4 0,-8 -2,-13 -2,-5 -7,-9 -14,-12 -7,-3 -13,-5 -19,-5 -6,-1 -10,-1 -12,-1 l -6,3 c 2,5 4,12 6,19 2,8 5,16 6,26 2,10 3,18 4,25 1,7 2,13 2,18 l -3,37 c 0,3 0,7 0,12 0,4 0,10 0,16 1,6 1,12 2,16 0,5 1,9 1,12 -4,2 -9,4 -15,6 -6,2 -13,5 -21,7 -7,3 -14,5 -20,6 -6,2 -11,2 -16,3 v 9 c 3,2 6,5 10,8 4,3 9,6 14,10 5,3 10,5 14,6 3,1 7,1 9,1 0,1 -1,3 -2,4 0,2 -1,4 -2,6 -1,2 -2,5 -3,7 -1,2 -2,4 -2,5 0,2 0,4 1,6 1,2 2,4 5,6 2,3 4,5 7,6 2,2 4,3 6,4 0,0 1,0 1,0 1,0 1,0 2,0 0,-1 1,-1 1,-1 1,-1 1,-2 2,-2 2,-2 5,-5 7,-9 2,-4 3,-9 3,-15 0,-7 -1,-12 -2,-17 -1,-5 -1,-9 -2,-12 l 25,-13 c 1,5 1,11 2,18 0,6 1,14 1,23 0,8 0,16 0,22 0,6 0,11 0,15 v 10 h -15 v 6 c 1,1 3,2 5,4 2,1 4,3 6,6 2,2 4,4 5,6 1,2 2,4 2,6 l 7,3 c 2,-1 4,-3 7,-5 2,-2 5,-5 8,-8 3,-4 6,-7 9,-10 2,-4 5,-6 7,-8 0,-4 0,-10 -1,-16 0,-7 0,-14 -1,-23 -1,-9 -2,-17 -3,-23 0,-7 -1,-12 -1,-16 0,0 1,1 1,1 1,1 2,1 3,2 1,0 2,1 3,1 1,1 1,1 2,2 2,3 5,5 8,8 3,3 6,5 11,7 4,1 7,2 11,2 3,-1 5,-1 7,-1 0,1 0,2 0,4 0,2 -1,4 -2,7 0,2 -1,4 -2,6 -1,2 -1,3 -2,4 0,1 0,3 1,4 0,2 2,4 3,6 2,2 4,4 6,5 2,2 4,3 6,4 h 6 c 2,-2 4,-6 6,-9 2,-4 3,-8 4,-13 0,-4 1,-9 1,-12 0,-4 1,-7 1,-9 l -6,-4 -6,-18 c -1,0 -2,0 -4,0 -2,0 -3,0 -5,0 -2,0 -3,0 -4,0 -1,0 -2,0 -3,0 v 9 c -2,-2 -6,-4 -9,-6 -4,-2 -9,-3 -14,-3 -5,-1 -10,-1 -14,-1 -4,1 -7,1 -9,1 0,-1 1,-3 1,-5 1,-1 1,-4 1,-6 1,-3 1,-5 1,-7 0,-2 0,-3 0,-4 1,-1 2,-1 4,-2 1,-1 3,-2 5,-2 3,-1 5,-2 7,-2 2,0 4,0 5,0 3,-2 6,-4 10,-7 4,-4 8,-8 11,-13 4,-5 4,-9 3,-12 -2,-4 -4,-7 -8,-9 h -6 c 0,-4 0,-9 0,-16 0,-6 0,-13 0,-21 0,-8 1,-15 1,-21 1,-5 1,-10 2,-14 3,1 6,1 10,0 4,-1 9,-3 15,-7 6,-3 12,-7 16,-11 5,-4 9,-7 12,-10 4,-5 9,-10 15,-17 7,-6 14,-14 24,-22 9,-8 16,-16 22,-22 6,-7 11,-12 14,-17 z m 9,63 c -2,-2 -5,-4 -9,-7 -4,-2 -8,-5 -13,-7 -4,-3 -8,-5 -12,-5 -4,-1 -7,-1 -9,0 -4,3 -7,8 -11,13 -5,5 -9,11 -14,18 -6,7 -10,13 -14,18 -5,5 -8,10 -11,13 -2,3 -5,6 -9,9 -4,2 -8,5 -13,6 -5,2 -9,4 -12,6 -3,2 -5,5 -7,7 0,5 1,9 4,14 3,5 8,9 15,14 7,4 13,7 19,9 5,1 9,3 12,4 -1,1 -2,3 -4,6 -1,2 -3,5 -6,8 -2,2 -4,5 -6,7 -2,1 -4,3 -6,4 -1,-1 -4,-1 -6,-1 -3,1 -6,3 -9,7 -3,4 -5,7 -7,10 -1,3 -2,5 -3,6 1,2 2,4 3,7 2,3 4,6 7,9 3,3 6,5 9,6 2,1 5,2 6,3 2,0 4,0 6,-1 2,0 5,-1 8,-2 3,-1 6,-2 8,-3 3,-2 5,-3 6,-4 0,4 0,8 0,14 0,5 0,12 0,19 0,7 0,14 0,19 0,6 0,10 0,14 v 34 h -9 v 6 c 2,2 5,4 7,7 2,3 4,6 5,10 1,3 3,6 4,8 2,2 4,3 6,3 1,0 2,-1 4,-2 1,-1 3,-2 5,-4 1,-2 3,-4 4,-5 1,-2 2,-3 2,-4 4,-2 8,-5 12,-9 3,-5 5,-10 5,-17 1,-7 1,-13 0,-18 -1,-5 -1,-9 -1,-12 0,-4 0,-10 -1,-16 -1,-6 -2,-13 -3,-22 0,-8 0,-15 0,-22 1,-6 2,-11 4,-15 1,0 3,0 6,0 2,0 5,0 8,-1 3,0 6,0 8,-1 2,0 4,-1 6,-1 6,-1 12,-5 16,-10 4,-6 5,-14 2,-24 -3,-10 -8,-17 -15,-22 -7,-4 -13,-7 -19,-7 2,-3 6,-8 10,-13 5,-6 9,-12 13,-19 4,-8 5,-14 4,-20 -2,-5 -4,-10 -8,-13 -5,0 -11,1 -17,4 -6,4 -13,9 -19,17 -6,8 -11,16 -15,22 -5,7 -8,12 -11,16 l -13,-12 c 4,-5 10,-10 16,-17 7,-7 14,-15 23,-24 9,-9 17,-16 23,-23 7,-6 12,-11 16,-14 z m -203,18 c 2,1 4,2 6,3 3,1 5,2 8,3 3,1 5,1 7,1 2,0 3,0 4,0 0,1 0,2 0,3 0,2 0,4 0,6 0,1 0,3 0,4 0,1 0,2 0,2 h -25 z m 0,44 c 2,0 4,1 6,2 3,0 5,1 8,1 3,1 5,1 7,2 2,0 3,1 4,1 v 3 10 c -1,0 -3,1 -5,1 -3,1 -5,1 -8,2 -3,0 -5,1 -7,1 -2,1 -4,1 -5,2 z m 0,47 c 2,0 4,0 6,0 2,0 4,0 7,0 2,0 5,0 7,0 2,0 4,0 5,0 v 6 9 l -28,10 z m 169,0 c 0,1 1,2 2,4 1,1 3,3 5,5 1,2 3,4 5,6 1,1 2,2 3,3 -2,1 -5,2 -9,2 -4,1 -9,2 -14,3 -5,1 -10,2 -14,3 -3,1 -7,1 -9,2 1,-2 3,-4 6,-6 3,-2 6,-4 9,-7 4,-3 7,-6 10,-8 2,-3 4,-5 6,-7 z m 44,143 c 8,1 15,-1 21,-7 5,-5 6,-14 2,-27 -4,-12 -11,-21 -20,-26 -8,-5 -16,-7 -22,-5 v 6 l 3,16 -6,21 c 2,1 4,3 6,5 2,2 4,4 5,6 1,3 2,5 3,7 0,2 1,3 1,4 1,0 1,0 2,0 0,0 1,0 1,0 1,0 2,0 2,0 1,0 1,0 2,0 z"
   class="fil7"
   id="71959480" />
  </g>
<g
   transform="matrix(16.811779,0,0,16.811779,-165.19759,-1703.0274)"
   id="surface44"><path
     inkscape:connector-curvature="0"
     id="path2"
     d="m 218.01562,219.92578 c 70.625,0 128.22266,57.60156 128.22266,128.22656 0,70.625 -57.59766,128.22657 -128.22266,128.22657 -70.625,0 -128.226557,-57.60157 -128.226557,-128.22657 0,-70.625 57.601557,-128.22656 128.226557,-128.22656"
     style="fill:#fddc02;fill-opacity:1;fill-rule:evenodd;stroke:none" /><path
     inkscape:connector-curvature="0"
     id="path4"
     d="m 347.08984,348.15234 -0.17187,-6.62109 -0.5,-6.53906 -0.82031,-6.44922 -1.14063,-6.34766 -1.44531,-6.23437 -1.74219,-6.1211 -2.03516,-5.99218 -2.32031,-5.85547 -2.58984,-5.71485 -2.85547,-5.5625 -3.11328,-5.41015 -3.36328,-5.23438 -3.60547,-5.0625 -3.83594,-4.8789 -4.0625,-4.6875 -4.27734,-4.48829 -4.48438,-4.27734 -4.6875,-4.05859 -4.8789,-3.83594 -5.0625,-3.60938 -5.23829,-3.35937 -5.40625,-3.11328 -5.5625,-2.85938 -5.71875,-2.58984 -5.85546,-2.32031 -5.99219,-2.03125 -6.1211,-1.74219 -6.23437,-1.44531 -6.34766,-1.14453 -6.44531,-0.82032 -6.53906,-0.5 -6.6211,-0.16797 v 1.69922 l 6.53907,0.16407 6.45312,0.49218 6.36328,0.81641 6.25782,1.12109 6.15625,1.42578 6.03515,1.72266 5.91406,2.00781 5.78125,2.28516 5.63672,2.55469 5.49219,2.8164 5.33203,3.07422 5.16797,3.32422 4.99609,3.55469 4.81641,3.78906 4.625,4.00781 4.42969,4.22266 4.22265,4.42969 4.00782,4.625 3.78906,4.8125 3.55469,4.99609 3.32031,5.17188 3.07422,5.33203 2.8164,5.49218 2.5586,5.63672 2.28515,5.78125 2.00782,5.91407 1.72265,6.03125 1.42578,6.15625 1.1211,6.26171 0.8125,6.35938 0.49609,6.45312 0.16406,6.54297"
     style="fill:#283d99;fill-opacity:1;fill-rule:nonzero;stroke:none" /><path
     inkscape:connector-curvature="0"
     id="path6"
     d="m 218.01562,477.22656 6.6211,-0.16797 6.53906,-0.5 6.44531,-0.82031 6.34766,-1.14453 6.23437,-1.44141 6.1211,-1.74218 5.99219,-2.03516 5.85546,-2.32031 5.71875,-2.58985 5.5625,-2.85547 5.40625,-3.11328 5.23829,-3.36328 5.0625,-3.60547 4.8789,-3.83593 4.6875,-4.0625 4.48438,-4.27735 4.27734,-4.48828 4.0625,-4.6875 3.83594,-4.87891 3.60547,-5.0625 3.36328,-5.23437 3.11328,-5.40625 2.85937,-5.56641 2.58594,-5.71484 2.32031,-5.85547 2.03516,-5.99219 1.74219,-6.12109 1.44531,-6.23438 1.14063,-6.34765 0.82031,-6.44922 0.5,-6.53906 0.17187,-6.6211 h -1.69922 l -0.16406,6.54297 -0.49609,6.45313 -0.8125,6.35937 -1.1211,6.26172 -1.42578,6.15625 -1.72265,6.03125 -2.00782,5.91406 -2.28515,5.78125 -2.5586,5.63672 -2.8164,5.49219 -3.07422,5.33203 -3.32031,5.17188 -3.55469,4.99609 -3.78906,4.8125 -4.00782,4.625 -4.22656,4.42969 -4.42578,4.22265 -4.625,4.00782 -4.81641,3.78906 -4.99609,3.55469 -5.16797,3.32421 -5.33203,3.07422 -5.49219,2.81641 -5.63672,2.55859 -5.78125,2.28125 -5.91406,2.00782 -6.03515,1.72265 -6.15625,1.42578 -6.25782,1.1211 -6.36328,0.8164 -6.45312,0.49219 -6.53907,0.16406"
     style="fill:#283d99;fill-opacity:1;fill-rule:nonzero;stroke:none" /><path
     inkscape:connector-curvature="0"
     id="path8"
     d="m 88.9375,348.15234 0.171875,6.6211 0.5,6.53906 0.820313,6.44922 1.140625,6.34765 1.445312,6.23438 1.742188,6.12109 2.035156,5.99219 2.320312,5.85547 2.589849,5.71484 2.85546,5.56641 3.11329,5.40625 3.36328,5.23437 3.60547,5.0625 3.83593,4.87891 4.0625,4.6875 4.27735,4.48828 4.48437,4.27735 4.6875,4.0625 4.88281,3.83203 5.0586,3.60937 5.23828,3.36328 5.40625,3.10938 5.5625,2.85937 5.71875,2.58985 5.85547,2.32031 5.99218,2.03516 6.1211,1.73828 6.23437,1.44531 6.34766,1.14453 6.44531,0.82031 6.53906,0.5 6.6211,0.16797 v -1.69922 l -6.53906,-0.16406 -6.45313,-0.49219 -6.36328,-0.8164 -6.25781,-1.1211 -6.15625,-1.42578 -6.03516,-1.72265 -5.91406,-2.00782 -5.78125,-2.28125 -5.63672,-2.55859 -5.49219,-2.81641 -5.33203,-3.07422 -5.16797,-3.32421 -4.99609,-3.55079 -4.81641,-3.78906 -4.625,-4.01172 -4.42578,-4.22265 -4.22656,-4.42969 -4.00781,-4.625 -3.78907,-4.8125 -3.55468,-4.99609 -3.32032,-5.17188 -3.07421,-5.33203 -2.81641,-5.48828 -2.55859,-5.64063 -2.285161,-5.78125 -2.007813,-5.91015 -1.722656,-6.03516 -1.425781,-6.15625 -1.121094,-6.26172 -0.8125,-6.35937 -0.496094,-6.45313 -0.164062,-6.54297"
     style="fill:#283d99;fill-opacity:1;fill-rule:nonzero;stroke:none" /><path
     inkscape:connector-curvature="0"
     id="path10"
     d="m 218.01562,219.07812 -6.625,0.16797 -6.53906,0.5 -6.44531,0.82032 -6.34766,1.14453 -6.23437,1.44531 -6.1211,1.74219 -5.99218,2.03125 -5.85547,2.32031 -5.71875,2.58984 -5.5625,2.85938 -5.40625,3.11328 -5.23828,3.35937 -5.0625,3.60938 -4.87891,3.83203 -4.6875,4.0625 -4.48437,4.27734 -4.27735,4.48829 -4.0625,4.6875 -3.83593,4.8789 -3.60547,5.0625 -3.36328,5.23438 -3.11329,5.41015 -2.85937,5.5625 -2.585939,5.71485 -2.320312,5.85547 -2.035156,5.99218 -1.742188,6.1211 -1.445312,6.23437 -1.140625,6.34766 -0.820313,6.44922 -0.5,6.53906 -0.171875,6.62109 h 1.703125 l 0.160156,-6.54297 0.496094,-6.45312 0.8125,-6.35938 1.121094,-6.26171 1.425781,-6.15625 1.722656,-6.03125 2.007813,-5.91407 2.285161,-5.78125 2.55859,-5.63672 2.81641,-5.49218 3.07421,-5.33203 3.32032,-5.17188 3.55468,-4.99609 3.78907,-4.8125 4.00781,-4.625 4.22656,-4.42969 4.42578,-4.22266 4.625,-4.00781 4.81641,-3.78906 4.99609,-3.55469 5.16797,-3.32031 5.33203,-3.07813 5.49219,-2.8164 5.63672,-2.55469 5.78125,-2.28516 5.91406,-2.00781 6.03516,-1.72266 6.15625,-1.42578 6.25781,-1.12109 6.36328,-0.81641 6.45313,-0.49218 6.54296,-0.16407"
     style="fill:#283d99;fill-opacity:1;fill-rule:nonzero;stroke:none" /><path
     inkscape:connector-curvature="0"
     id="path12"
     d="m 116.15625,349.1875 c 0,-56.67188 46.22266,-102.89063 102.89062,-102.89063 56.67188,0 102.89063,46.21875 102.89063,102.89063"
     style="fill:#7fd4f5;fill-opacity:1;fill-rule:evenodd;stroke:none" /><path
     inkscape:connector-curvature="0"
     id="path14"
     d="m 321.9375,349.1875 c 0,56.66797 -46.21875,102.89062 -102.89063,102.89062 -56.66796,0 -102.89062,-46.22265 -102.89062,-102.89062"
     style="fill:#0794dc;fill-opacity:1;fill-rule:evenodd;stroke:none" /><path
     inkscape:connector-curvature="0"
     id="path16"
     d="m 322.78516,349.1875 -0.13672,-5.32031 -0.40235,-5.25782 -0.66015,-5.18359 -0.91797,-5.09766 -1.16016,-5.01171 -1.40234,-4.91797 -1.63281,-4.81641 -1.86329,-4.70703 -2.08203,-4.59375 -2.29687,-4.47266 -2.50391,-4.34765 -2.69922,-4.20703 -2.89843,-4.06641 -3.08204,-3.92578 -3.26562,-3.76172 -3.4375,-3.60938 -3.60938,-3.4375 -3.76171,-3.26171 -3.92579,-3.08204 -4.0664,-2.90234 -4.21094,-2.69922 -4.34375,-2.5039 -4.47266,-2.29688 -4.59375,-2.08203 -4.70703,-1.86328 -4.8125,-1.63281 -4.92187,-1.40235 -5.01172,-1.16015 -5.09766,-0.91797 -5.18359,-0.66016 -5.25781,-0.40234 -5.32032,-0.13672 v 1.6914 l 5.24219,0.13282 5.17188,0.39453 5.09375,0.65234 5.01562,0.89844 4.9336,1.14062 4.83203,1.38282 4.73437,1.60547 4.63672,1.83203 4.51563,2.04687 4.39843,2.25781 4.26953,2.46485 4.14454,2.66015 4.0039,2.84766 3.85547,3.03516 3.70313,3.21093 3.54687,3.38282 3.38672,3.55078 3.21094,3.70312 3.03515,3.85938 2.84766,4 2.66016,4.14453 2.46484,4.26953 2.25781,4.39844 2.04688,4.51953 1.83203,4.63281 1.60547,4.73438 1.38281,4.83593 1.14062,4.92969 0.89844,5.01563 0.65235,5.09375 0.39453,5.17187 0.13281,5.24219"
     style="fill:#eb1923;fill-opacity:1;fill-rule:nonzero;stroke:none" /><path
     inkscape:connector-curvature="0"
     id="path18"
     d="m 219.04687,452.92187 5.32032,-0.13671 5.25781,-0.40235 5.18359,-0.65625 5.09766,-0.91797 5.01172,-1.16406 4.92187,-1.39844 4.8125,-1.63672 4.70703,-1.86328 4.59375,-2.08203 4.47266,-2.29687 4.34766,-2.5 4.20703,-2.70313 4.0664,-2.89844 3.92579,-3.08203 3.76171,-3.26562 3.60938,-3.4375 3.4375,-3.60547 3.26172,-3.76563 3.08203,-3.92187 2.90234,-4.07031 2.69922,-4.20703 2.50391,-4.34375 2.29687,-4.47266 2.08203,-4.59766 1.86329,-4.70312 1.63281,-4.81641 1.40234,-4.91797 1.16016,-5.01172 0.91797,-5.10156 0.66015,-5.17969 0.40235,-5.25781 0.13672,-5.32031 h -1.69141 l -0.13281,5.24219 -0.39453,5.16797 -0.65235,5.09765 -0.89844,5.01563 -1.14453,4.92968 -1.3789,4.83594 -1.60547,4.73438 -1.83203,4.63281 -2.04688,4.51562 -2.25781,4.39844 -2.46484,4.27344 -2.66016,4.14062 -2.84766,4.00391 -3.03515,3.85547 -3.21094,3.70703 -3.38281,3.54688 -3.55078,3.38281 -3.70313,3.21094 -3.85937,3.03906 -4,2.84765 -4.14454,2.66016 -4.26953,2.46094 -4.39843,2.25781 -4.51954,2.05078 -4.63281,1.82813 -4.73437,1.60937 -4.83594,1.37891 -4.92969,1.14062 -5.01562,0.89844 -5.09375,0.65234 -5.17188,0.39844 -5.24219,0.12891"
     style="fill:#eb1923;fill-opacity:1;fill-rule:nonzero;stroke:none" /><path
     inkscape:connector-curvature="0"
     id="path20"
     d="m 115.3125,349.1875 0.13672,5.32031 0.40234,5.25391 0.66016,5.18359 0.91797,5.10156 1.16015,5.01172 1.39844,4.91797 1.63672,4.81641 1.86328,4.70703 2.08203,4.59375 2.29688,4.47266 2.5,4.34375 2.70312,4.20703 2.89844,4.07031 3.08203,3.92187 3.26563,3.76563 3.4375,3.60547 3.60546,3.4375 3.76563,3.26562 3.92187,3.08203 4.07032,2.89844 4.20703,2.70313 4.34375,2.5 4.47265,2.29687 4.59375,2.08203 4.70704,1.86328 4.8164,1.63672 4.91797,1.39844 5.01172,1.16016 5.10156,0.91797 5.1836,0.66015 5.2539,0.40235 5.32031,0.13671 v -1.6914 l -5.24218,-0.12891 -5.16797,-0.39453 -5.09766,-0.65625 -5.01562,-0.89453 -4.92969,-1.14453 -4.83203,-1.37891 -4.73828,-1.60937 -4.63282,-1.82813 -4.51562,-2.05078 -4.39844,-2.25781 -4.27344,-2.46094 -4.14062,-2.66406 -4.00391,-2.84375 -3.85547,-3.03906 -3.70703,-3.21094 -3.54687,-3.38281 -3.38281,-3.54688 -3.21485,-3.70703 -3.03515,-3.85547 -2.84375,-4.00391 -2.66407,-4.14062 -2.46093,-4.27344 -2.25782,-4.39844 -2.05078,-4.51562 -1.82812,-4.63281 -1.60938,-4.73828 -1.3789,-4.83204 -1.14453,-4.92968 -0.89454,-5.01563 -0.65625,-5.09765 -0.39453,-5.16797 -0.1289,-5.24219"
     style="fill:#eb1923;fill-opacity:1;fill-rule:nonzero;stroke:none" /><path
     inkscape:connector-curvature="0"
     id="path22"
     d="m 219.04687,245.44922 -5.32031,0.13672 -5.2539,0.40234 -5.1836,0.66016 -5.10156,0.91797 -5.01172,1.16015 -4.91797,1.40235 -4.8164,1.63671 -4.70704,1.85938 -4.59375,2.08203 -4.47265,2.29688 -4.34375,2.5039 -4.20703,2.69922 -4.07032,2.90234 -3.92187,3.08204 -3.76563,3.26171 -3.60546,3.4375 -3.4375,3.60547 -3.26563,3.76953 -3.08203,3.92188 -2.89844,4.06641 -2.70312,4.20703 -2.5,4.34765 -2.29688,4.47266 -2.08203,4.59375 -1.86328,4.70703 -1.63672,4.81641 -1.39844,4.91797 -1.16015,5.00781 -0.91797,5.10156 -0.66016,5.18359 -0.40234,5.25782 -0.13672,5.32031 h 1.69141 l 0.1289,-5.24219 0.39453,-5.17187 0.65625,-5.09375 0.89454,-5.01563 1.14453,-4.92969 1.3789,-4.83593 1.60938,-4.73828 1.82812,-4.62891 2.05078,-4.51563 2.25782,-4.40234 2.46093,-4.26953 2.66407,-4.14453 2.84375,-4 3.03515,-3.85938 3.21485,-3.70312 3.38281,-3.55078 3.54687,-3.38282 3.70703,-3.21093 3.85547,-3.03516 4.00391,-2.84766 4.14062,-2.66015 4.27344,-2.46485 4.39844,-2.2539 4.51562,-2.05078 4.63282,-1.82813 4.73828,-1.60937 4.83203,-1.38282 4.92969,-1.14062 5.01562,-0.89844 5.09766,-0.65234 5.16797,-0.39453 5.24218,-0.13282"
     style="fill:#eb1923;fill-opacity:1;fill-rule:nonzero;stroke:none" /><path
     inkscape:connector-curvature="0"
     id="path24"
     d="m 115.88281,349.71094 41.50391,-48.01563 17.36328,2.16797 44.48828,-37.97656 41.50781,39.0625 20.07422,-2.44141 40.96094,46.92969"
     style="fill:#007835;fill-opacity:1;fill-rule:evenodd;stroke:none" /><path
     inkscape:connector-curvature="0"
     id="path26"
     d="m 118.86719,324.75391 8.67969,-21.70313 85.99609,12.20703 -0.27344,4.07031"
     style="fill:#ffffff;fill-opacity:1;fill-rule:evenodd;stroke:none" /><path
     inkscape:connector-curvature="0"
     id="path28"
     d="m 318.79687,324.75391 -8.67968,-21.70313 -85.9961,12.20703 0.27344,4.07031"
     style="fill:#ffffff;fill-opacity:1;fill-rule:evenodd;stroke:none" /><path
     inkscape:connector-curvature="0"
     id="path30"
     d="m 115.88281,349.71094 205.89844,-0.27344 c -0.55859,5.19531 -1.11719,10.38672 -1.67578,15.58203 -23.01172,7.89453 -44.03516,19.26563 -64.15625,32.21484 l -36.54688,-6.22656 c -12.99218,2.07422 -25.98828,4.14844 -38.98047,6.22656 -21.64843,-14.72656 -42.60546,-24.98046 -62.80468,-30.32031"
     style="fill:#cce657;fill-opacity:1;fill-rule:evenodd;stroke:none" /><path
     inkscape:connector-curvature="0"
     id="path32"
     d="m 213.26172,314.6875 11.45703,-0.082 v -1.67188 c -3.93359,-1.89843 -7.75391,-1.89843 -11.45703,0"
     style="fill:#283d99;fill-opacity:1;fill-rule:evenodd;stroke:none" /><path
     inkscape:connector-curvature="0"
     id="path34"
     d="m 225,314.60547 -0.28125,-0.28516 -11.45703,0.0859 0.004,0.5625 11.45313,-0.082 0.28125,-0.28125 -0.28125,0.28125 H 225"
     style="fill:#283d99;fill-opacity:1;fill-rule:nonzero;stroke:none" /><path
     inkscape:connector-curvature="0"
     id="path36"
     d="m 224.59766,313.1875 -0.16016,-0.25781 v 1.67578 H 225 v -1.67578 l -0.16016,-0.25391 0.16016,0.25391 v -0.17578 l -0.16016,-0.0781"
     style="fill:#283d99;fill-opacity:1;fill-rule:nonzero;stroke:none" /><path
     inkscape:connector-curvature="0"
     id="path38"
     d="m 213.54687,312.92969 -0.15625,0.2539 0.33985,-0.16797 0.34375,-0.15625 0.33984,-0.14843 0.34375,-0.13672 0.34375,-0.125 0.33985,-0.11328 0.34375,-0.10157 0.34375,-0.0937 0.34375,-0.082 0.34765,-0.0703 0.34766,-0.0586 0.34375,-0.0508 0.34765,-0.0391 0.34766,-0.0234 0.34766,-0.0195 0.35156,-0.004 0.34766,0.004 0.35156,0.0195 0.35156,0.0273 0.35156,0.0352 0.35157,0.0508 0.35156,0.0586 0.35547,0.0703 0.35547,0.082 0.35937,0.0937 0.35547,0.10157 0.35937,0.11328 0.35547,0.125 0.35938,0.13672 0.36328,0.14843 0.35937,0.16016 0.36329,0.16797 0.24218,-0.51172 -0.375,-0.17578 -0.37109,-0.16016 -0.375,-0.15625 -0.375,-0.14062 -0.37109,-0.12891 -0.3711,-0.12109 -0.375,-0.10547 -0.37109,-0.0977 -0.3711,-0.0859 -0.36718,-0.0742 -0.3711,-0.0625 -0.37109,-0.0508 -0.36719,-0.0391 -0.37109,-0.0273 -0.36719,-0.0156 -0.36328,-0.008 -0.36719,0.008 -0.36719,0.0156 -0.36328,0.0273 -0.36328,0.0391 -0.36719,0.0547 -0.36328,0.0586 -0.35937,0.0742 -0.36328,0.0859 -0.35938,0.0977 -0.35937,0.10937 -0.35938,0.11719 -0.35547,0.12891 -0.35937,0.14453 -0.35547,0.15234 -0.35547,0.16407 -0.35156,0.17578 -0.15625,0.25 0.15625,-0.25 -0.15625,0.0781 v 0.17188"
     style="fill:#283d99;fill-opacity:1;fill-rule:nonzero;stroke:none" /><path
     inkscape:connector-curvature="0"
     id="path40"
     d="m 213.26562,314.96875 0.28125,-0.28125 v -1.75781 h -0.5664 v 1.75781 l 0.28515,0.28125 -0.28515,-0.28125 v 0.28516"
     style="fill:#283d99;fill-opacity:1;fill-rule:nonzero;stroke:none" /><path
     inkscape:connector-curvature="0"
     id="path42"
     d="m 213.26172,314.6875 h 11.45703 v 4.64062 h -11.45703"
     style="fill:#ffffff;fill-opacity:1;fill-rule:evenodd;stroke:none" /><path
     inkscape:connector-curvature="0"
     id="path44"
     d="m 225.00391,314.6875 -0.28516,-0.28516 h -11.45703 v 0.57032 h 11.45703 l 0.28516,-0.28516 v -0.28516 h -0.28516"
     style="fill:#283d99;fill-opacity:1;fill-rule:nonzero;stroke:none" /><path
     inkscape:connector-curvature="0"
     id="path46"
     d="m 224.71875,319.60937 0.28516,-0.28125 v -4.64062 h -0.56641 v 4.64062 l 0.28125,0.28125 h 0.28516 v -0.28125"
     style="fill:#283d99;fill-opacity:1;fill-rule:nonzero;stroke:none" /><path
     inkscape:connector-curvature="0"
     id="path48"
     d="m 212.98047,319.32812 0.28125,0.28125 h 11.45703 v -0.5664 h -11.45703 l -0.28125,0.28515 v 0.28125 h 0.28125"
     style="fill:#283d99;fill-opacity:1;fill-rule:nonzero;stroke:none" /><path
     inkscape:connector-curvature="0"
     id="path50"
     d="m 213.26172,314.40625 -0.28125,0.28125 v 4.64062 h 0.5664 v -4.64062 l -0.28515,-0.28125 h -0.28125 v 0.28125"
     style="fill:#283d99;fill-opacity:1;fill-rule:nonzero;stroke:none" /><path
     inkscape:connector-curvature="0"
     id="path52"
     d="m 210.41797,322.38281 h 17.14453 v -3.05469 h -17.14453"
     style="fill:#ffffff;fill-opacity:1;fill-rule:evenodd;stroke:none" /><path
     inkscape:connector-curvature="0"
     id="path54"
     d="m 227.27734,322.38281 0.28516,0.28125 h -17.14063 v -0.5664 h 17.14063 l -0.28516,0.28515 h 0.57032 v 0.28125 h -0.28516"
     style="fill:#283d99;fill-opacity:1;fill-rule:nonzero;stroke:none" /><path
     inkscape:connector-curvature="0"
     id="path56"
     d="m 227.5625,319.60937 0.28516,-0.28125 v 3.05469 h -0.57032 v -3.05469 l 0.28516,0.28125 v -0.5664 h 0.28516 v 0.28515"
     style="fill:#283d99;fill-opacity:1;fill-rule:nonzero;stroke:none" /><path
     inkscape:connector-curvature="0"
     id="path58"
     d="m 210.70703,319.32812 -0.28516,-0.28515 h 17.14063 v 0.5664 h -17.14063 l 0.28516,-0.28125 h -0.57031 v -0.28515 h 0.28515"
     style="fill:#283d99;fill-opacity:1;fill-rule:nonzero;stroke:none" /><path
     inkscape:connector-curvature="0"
     id="path60"
     d="m 210.41797,322.09766 -0.28125,0.28125 v -3.05079 h 0.5664 v 3.05079 l -0.28515,-0.28125 v 0.5664 h -0.28125 v -0.28515"
     style="fill:#283d99;fill-opacity:1;fill-rule:nonzero;stroke:none" /><path
     inkscape:connector-curvature="0"
     id="path62"
     d="m 212.00781,322.38281 h 14.71875 v 4.34766 h -14.71875"
     style="fill:#ffffff;fill-opacity:1;fill-rule:evenodd;stroke:none" /><path
     inkscape:connector-curvature="0"
     id="path64"
     d="m 227.01172,322.38281 -0.28516,-0.28515 h -14.71875 v 0.5664 h 14.71875 l 0.28516,-0.28125 v -0.28515 h -0.28516"
     style="fill:#283d99;fill-opacity:1;fill-rule:nonzero;stroke:none" /><path
     inkscape:connector-curvature="0"
     id="path66"
     d="m 226.72656,327.01172 0.28516,-0.28125 v -4.35156 h -0.57031 v 4.35156 l 0.28515,0.28125 h 0.28516 v -0.28125"
     style="fill:#283d99;fill-opacity:1;fill-rule:nonzero;stroke:none" /><path
     inkscape:connector-curvature="0"
     id="path68"
     d="m 211.72266,326.73047 0.28515,0.28125 h 14.71875 v -0.56641 h -14.71875 l -0.28515,0.28516 v 0.28125 h 0.28515"
     style="fill:#283d99;fill-opacity:1;fill-rule:nonzero;stroke:none" /><path
     inkscape:connector-curvature="0"
     id="path70"
     d="m 212.00781,322.09766 -0.28125,0.28125 v 4.35156 h 0.56641 v -4.35156 l -0.28516,-0.28125 h -0.28125 v 0.28125"
     style="fill:#283d99;fill-opacity:1;fill-rule:nonzero;stroke:none" /><path
     inkscape:connector-curvature="0"
     id="path72"
     d="m 206.90625,329.65625 h 25.58984 v -2.92578 h -25.58984"
     style="fill:#ffffff;fill-opacity:1;fill-rule:evenodd;stroke:none" /><path
     inkscape:connector-curvature="0"
     id="path74"
     d="m 232.21875,329.65625 0.27734,0.28125 h -25.58984 v -0.5625 h 25.58984 l -0.27734,0.28125 h 0.55469 v 0.28125 h -0.27735"
     style="fill:#283d99;fill-opacity:1;fill-rule:nonzero;stroke:none" /><path
     inkscape:connector-curvature="0"
     id="path76"
     d="m 232.49609,327.01172 0.27735,-0.28125 v 2.92578 h -0.55469 v -2.92578 l 0.27734,0.28125 v -0.56641 h 0.27735 v 0.28516"
     style="fill:#283d99;fill-opacity:1;fill-rule:nonzero;stroke:none" /><path
     inkscape:connector-curvature="0"
     id="path78"
     d="m 207.1875,326.73047 -0.28125,-0.28516 h 25.58984 v 0.56641 h -25.58984 l 0.28125,-0.28125 h -0.55859 v -0.28516 h 0.27734"
     style="fill:#283d99;fill-opacity:1;fill-rule:nonzero;stroke:none" /><path
     inkscape:connector-curvature="0"
     id="path80"
     d="m 206.90625,329.37109 -0.27734,0.28516 v -2.92578 h 0.55859 v 2.92578 l -0.28125,-0.28516 v 0.56641 h -0.27734 v -0.28125"
     style="fill:#283d99;fill-opacity:1;fill-rule:nonzero;stroke:none" /><path
     inkscape:connector-curvature="0"
     id="path82"
     d="m 206.90625,329.65625 h 25.58984 v 2.92578 h -25.58984"
     style="fill:#ffffff;fill-opacity:1;fill-rule:evenodd;stroke:none" /><path
     inkscape:connector-curvature="0"
     id="path84"
     d="m 232.77344,329.65625 -0.27735,-0.28125 h -25.58984 v 0.5625 h 25.58984 l 0.27735,-0.28125 V 329.375 h -0.27735"
     style="fill:#283d99;fill-opacity:1;fill-rule:nonzero;stroke:none" /><path
     inkscape:connector-curvature="0"
     id="path86"
     d="m 232.49609,332.86719 0.27735,-0.28516 v -2.92578 h -0.55469 v 2.92578 l 0.27734,0.28516 h 0.27735 v -0.28516"
     style="fill:#283d99;fill-opacity:1;fill-rule:nonzero;stroke:none" /><path
     inkscape:connector-curvature="0"
     id="path88"
     d="m 206.62891,332.58203 0.27734,0.28516 h 25.58984 v -0.56641 h -25.58984 l -0.27734,0.28125 v 0.28516 h 0.27734"
     style="fill:#283d99;fill-opacity:1;fill-rule:nonzero;stroke:none" /><path
     inkscape:connector-curvature="0"
     id="path90"
     d="m 206.90625,329.37109 -0.27734,0.28516 v 2.92578 h 0.55859 v -2.92578 l -0.28125,-0.28516 h -0.27734 v 0.28516"
     style="fill:#283d99;fill-opacity:1;fill-rule:nonzero;stroke:none" /><path
     inkscape:connector-curvature="0"
     id="path92"
     d="m 210.25391,337.60156 h 17.8125 l 0.5,-1.83984 3.92968,-3.17969 h -25.58984 l 3.26172,3.34766"
     style="fill:#ffffff;fill-opacity:1;fill-rule:evenodd;stroke:none" /><path
     inkscape:connector-curvature="0"
     id="path94"
     d="m 228.33984,337.67578 -0.27343,-0.35937 h -17.8125 v 0.5664 h 17.8125 l 0.27343,-0.20703 -0.27343,0.20703 h 0.21484"
     style="fill:#283d99;fill-opacity:1;fill-rule:nonzero;stroke:none" /><path
     inkscape:connector-curvature="0"
     id="path96"
     d="m 228.39062,335.53906 -0.0977,0.14844 -0.50391,1.83984 0.54688,0.14844 0.5039,-1.83984"
     style="fill:#283d99;fill-opacity:1;fill-rule:nonzero;stroke:none" /><path
     inkscape:connector-curvature="0"
     id="path98"
     d="m 232.49609,332.30078 -0.17578,0.0625 -3.92969,3.17578 0.35157,0.44141 3.92968,-3.17578"
     style="fill:#283d99;fill-opacity:1;fill-rule:nonzero;stroke:none" /><path
     inkscape:connector-curvature="0"
     id="path100"
     d="m 206.70703,332.78125 0.19922,0.0859 h 25.58984 v -0.56641 h -25.58984 l -0.19922,0.48047 0.19922,-0.48047 h -0.66406"
     style="fill:#283d99;fill-opacity:1;fill-rule:nonzero;stroke:none" /><path
     inkscape:connector-curvature="0"
     id="path102"
     d="m 210.45312,335.91406 -0.082,-0.18359 -3.26172,-3.34375 -0.40625,0.39453 3.26172,3.34375"
     style="fill:#283d99;fill-opacity:1;fill-rule:nonzero;stroke:none" /><path
     inkscape:connector-curvature="0"
     id="path104"
     d="m 210.25391,337.88281 0.28125,-0.29687 -0.082,-1.67188 -0.5664,0.0274 0.082,1.67187 0.28516,0.26953 -0.28516,-0.26953 0.0156,0.26953"
     style="fill:#283d99;fill-opacity:1;fill-rule:nonzero;stroke:none" /><path
     inkscape:connector-curvature="0"
     id="path106"
     d="m 210.25391,337.60156 h 17.8125 l 2.58984,42.14453 -22.74609,0.082"
     style="fill:#ffffff;fill-opacity:1;fill-rule:evenodd;stroke:none" /><path
     inkscape:connector-curvature="0"
     id="path108"
     d="m 228.34766,337.58203 -0.28125,-0.26562 h -17.8125 v 0.5664 h 17.8125 l 0.28125,-0.30078 -0.0156,-0.26562 h -0.26562"
     style="fill:#283d99;fill-opacity:1;fill-rule:nonzero;stroke:none" /><path
     inkscape:connector-curvature="0"
     id="path110"
     d="m 230.65625,380.03125 0.28125,-0.30078 -2.58984,-42.14844 -0.56641,0.0352 2.59375,42.14453 0.28125,0.26953 h 0.30078 l -0.0195,-0.30078"
     style="fill:#283d99;fill-opacity:1;fill-rule:nonzero;stroke:none" /><path
     inkscape:connector-curvature="0"
     id="path112"
     d="m 207.62891,379.8125 0.28125,0.30078 22.74609,-0.0859 v -0.5664 l -22.74609,0.0859 -0.28125,0.26563 -0.0156,0.30078 h 0.29688"
     style="fill:#283d99;fill-opacity:1;fill-rule:nonzero;stroke:none" /><path
     inkscape:connector-curvature="0"
     id="path114"
     d="m 210.25391,337.31641 -0.28516,0.26953 -2.33984,42.22656 0.5664,0.0312 2.33985,-42.22656 -0.28125,-0.30078 h -0.26954 l -0.0156,0.26953"
     style="fill:#283d99;fill-opacity:1;fill-rule:nonzero;stroke:none" /><path
     inkscape:connector-curvature="0"
     id="path116"
     d="M 202.89453,379.74609 H 234 v 6.27344 h -31.10547"
     style="fill:#ffffff;fill-opacity:1;fill-rule:evenodd;stroke:none" /><path
     inkscape:connector-curvature="0"
     id="path118"
     d="M 234.28516,379.74609 234,379.46094 h -31.10547 v 0.57031 H 234 l 0.28516,-0.28516 v -0.28515 H 234"
     style="fill:#283d99;fill-opacity:1;fill-rule:nonzero;stroke:none" /><path
     inkscape:connector-curvature="0"
     id="path120"
     d="m 234,386.30078 0.28516,-0.28516 v -6.26953 h -0.56641 v 6.26953 L 234,386.30078 h 0.28516 v -0.28516"
     style="fill:#283d99;fill-opacity:1;fill-rule:nonzero;stroke:none" /><path
     inkscape:connector-curvature="0"
     id="path122"
     d="m 202.60937,386.01953 0.28516,0.28125 H 234 v -0.56641 h -31.10547 l -0.28516,0.28516 v 0.28125 h 0.28516"
     style="fill:#283d99;fill-opacity:1;fill-rule:nonzero;stroke:none" /><path
     inkscape:connector-curvature="0"
     id="path124"
     d="m 202.89453,379.46094 -0.28516,0.28515 v 6.27344 h 0.57032 v -6.27344 l -0.28516,-0.28515 h -0.28516 v 0.28515"
     style="fill:#283d99;fill-opacity:1;fill-rule:nonzero;stroke:none" /><path
     inkscape:connector-curvature="0"
     id="path126"
     d="m 213.85547,337.46875 -2.38672,-4.98047 -0.50781,0.24219 2.38672,4.98047"
     style="fill:#283d99;fill-opacity:1;fill-rule:nonzero;stroke:none" /><path
     inkscape:connector-curvature="0"
     id="path128"
     d="m 216.72656,337.51172 -1.39844,-4.92578 -0.54687,0.15234 1.40234,4.92969"
     style="fill:#283d99;fill-opacity:1;fill-rule:nonzero;stroke:none" /><path
     inkscape:connector-curvature="0"
     id="path130"
     d="m 219.30859,337.4375 v -4.80078 h -0.5664 v 4.80078"
     style="fill:#283d99;fill-opacity:1;fill-rule:nonzero;stroke:none" /><path
     inkscape:connector-curvature="0"
     id="path132"
     d="m 221.53516,337.65625 2.33203,-4.98047 -0.50782,-0.23828 -2.33593,4.98047"
     style="fill:#283d99;fill-opacity:1;fill-rule:nonzero;stroke:none" /><path
     inkscape:connector-curvature="0"
     id="path134"
     d="m 224.74609,337.77734 2.75,-5.08593 -0.5,-0.26563 -2.75,5.08203"
     style="fill:#283d99;fill-opacity:1;fill-rule:nonzero;stroke:none" /><path
     inkscape:connector-curvature="0"
     id="path136"
     d="m 322.78516,349.1875 -0.13672,-5.32031 -0.40235,-5.25782 -0.66015,-5.18359 -0.91797,-5.09766 -1.16016,-5.01171 -1.40234,-4.91797 -1.63281,-4.81641 -1.86329,-4.70703 -2.08203,-4.59375 -2.29687,-4.47266 -2.50391,-4.34765 -2.69922,-4.20703 -2.89843,-4.06641 -3.08204,-3.92578 -3.26562,-3.76172 -3.4375,-3.60938 -3.60938,-3.4375 -3.76171,-3.26171 -3.92579,-3.08204 -4.0664,-2.90234 -4.21094,-2.69922 -4.34375,-2.5039 -4.47266,-2.29688 -4.59375,-2.08203 -4.70703,-1.86328 -4.8125,-1.63281 -4.92187,-1.40235 -5.01172,-1.16015 -5.09766,-0.91797 -5.18359,-0.66016 -5.25781,-0.40234 -5.32032,-0.13672 v 1.6914 l 5.24219,0.13282 5.17188,0.39453 5.09375,0.65234 5.01562,0.89844 4.9336,1.14062 4.83203,1.38282 4.73437,1.60547 4.63672,1.83203 4.51563,2.04687 4.39843,2.25781 4.26953,2.46485 4.14454,2.66015 4.0039,2.84766 3.85547,3.03516 3.70313,3.21093 3.54687,3.38282 3.38672,3.55078 3.21094,3.70312 3.03515,3.85938 2.84766,4 2.66016,4.14453 2.46484,4.26953 2.25781,4.39844 2.04688,4.51953 1.83203,4.63281 1.60547,4.73438 1.38281,4.83593 1.14062,4.92969 0.89844,5.01563 0.65235,5.09375 0.39453,5.17187 0.13281,5.24219"
     style="fill:#283d99;fill-opacity:1;fill-rule:nonzero;stroke:none" /><path
     inkscape:connector-curvature="0"
     id="path138"
     d="m 219.04687,452.92187 5.32032,-0.13671 5.25781,-0.40235 5.18359,-0.65625 5.09766,-0.91797 5.01172,-1.16406 4.92187,-1.39844 4.8125,-1.63672 4.70703,-1.86328 4.59375,-2.08203 4.47266,-2.29687 4.34766,-2.5 4.20703,-2.70313 4.0664,-2.89844 3.92579,-3.08203 3.76171,-3.26562 3.60938,-3.4375 3.4375,-3.60547 3.26172,-3.76563 3.08203,-3.92187 2.90234,-4.07031 2.69922,-4.20703 2.50391,-4.34375 2.29687,-4.47266 2.08203,-4.59766 1.86329,-4.70312 1.63281,-4.81641 1.40234,-4.91797 1.16016,-5.01172 0.91797,-5.10156 0.66015,-5.17969 0.40235,-5.25781 0.13672,-5.32031 h -1.69141 l -0.13281,5.24219 -0.39453,5.16797 -0.65235,5.09765 -0.89844,5.01563 -1.14453,4.92968 -1.3789,4.83594 -1.60547,4.73438 -1.83203,4.63281 -2.04688,4.51562 -2.25781,4.39844 -2.46484,4.27344 -2.66016,4.14062 -2.84766,4.00391 -3.03515,3.85547 -3.21094,3.70703 -3.38281,3.54688 -3.55078,3.38281 -3.70313,3.21094 -3.85937,3.03906 -4,2.84765 -4.14454,2.66016 -4.26953,2.46094 -4.39843,2.25781 -4.51954,2.05078 -4.63281,1.82813 -4.73437,1.60937 -4.83594,1.37891 -4.92969,1.14062 -5.01562,0.89844 -5.09375,0.65234 -5.17188,0.39844 -5.24219,0.12891"
     style="fill:#283d99;fill-opacity:1;fill-rule:nonzero;stroke:none" /><path
     inkscape:connector-curvature="0"
     id="path140"
     d="m 115.3125,349.1875 0.13672,5.32031 0.40234,5.25391 0.66016,5.18359 0.91797,5.10156 1.16015,5.01172 1.39844,4.91797 1.63672,4.81641 1.86328,4.70703 2.08203,4.59375 2.29688,4.47266 2.5,4.34375 2.70312,4.20703 2.89844,4.07031 3.08203,3.92187 3.26563,3.76563 3.4375,3.60547 3.60546,3.4375 3.76563,3.26562 3.92187,3.08203 4.07032,2.89844 4.20703,2.70313 4.34375,2.5 4.47265,2.29687 4.59375,2.08203 4.70704,1.86328 4.8164,1.63672 4.91797,1.39844 5.01172,1.16016 5.10156,0.91797 5.1836,0.66015 5.2539,0.40235 5.32031,0.13671 v -1.6914 l -5.24218,-0.12891 -5.16797,-0.39453 -5.09766,-0.65625 -5.01562,-0.89453 -4.92969,-1.14453 -4.83203,-1.37891 -4.73828,-1.60937 -4.63282,-1.82813 -4.51562,-2.05078 -4.39844,-2.25781 -4.27344,-2.46094 -4.14062,-2.66406 -4.00391,-2.84375 -3.85547,-3.03906 -3.70703,-3.21094 -3.54687,-3.38281 -3.38281,-3.54688 -3.21485,-3.70703 -3.03515,-3.85547 -2.84375,-4.00391 -2.66407,-4.14062 -2.46093,-4.27344 -2.25782,-4.39844 -2.05078,-4.51562 -1.82812,-4.63281 -1.60938,-4.73828 -1.3789,-4.83204 -1.14453,-4.92968 -0.89454,-5.01563 -0.65625,-5.09765 -0.39453,-5.16797 -0.1289,-5.24219"
     style="fill:#283d99;fill-opacity:1;fill-rule:nonzero;stroke:none" /><path
     inkscape:connector-curvature="0"
     id="path142"
     d="m 219.04687,245.44922 -5.32031,0.13672 -5.2539,0.40234 -5.1836,0.66016 -5.10156,0.91797 -5.01172,1.16015 -4.91797,1.40235 -4.8164,1.63671 -4.70704,1.85938 -4.59375,2.08203 -4.47265,2.29688 -4.34375,2.5039 -4.20703,2.69922 -4.07032,2.90234 -3.92187,3.08204 -3.76563,3.26171 -3.60546,3.4375 -3.4375,3.60547 -3.26563,3.76953 -3.08203,3.92188 -2.89844,4.06641 -2.70312,4.20703 -2.5,4.34765 -2.29688,4.47266 -2.08203,4.59375 -1.86328,4.70703 -1.63672,4.81641 -1.39844,4.91797 -1.16015,5.00781 -0.91797,5.10156 -0.66016,5.18359 -0.40234,5.25782 -0.13672,5.32031 h 1.69141 l 0.1289,-5.24219 0.39453,-5.17187 0.65625,-5.09375 0.89454,-5.01563 1.14453,-4.92969 1.3789,-4.83593 1.60938,-4.73828 1.82812,-4.62891 2.05078,-4.51563 2.25782,-4.40234 2.46093,-4.26953 2.66407,-4.14453 2.84375,-4 3.03515,-3.85938 3.21485,-3.70312 3.38281,-3.55078 3.54687,-3.38282 3.70703,-3.21093 3.85547,-3.03516 4.00391,-2.84766 4.14062,-2.66015 4.27344,-2.46485 4.39844,-2.2539 4.51562,-2.05078 4.63282,-1.82813 4.73828,-1.60937 4.83203,-1.38282 4.92969,-1.14062 5.01562,-0.89844 5.09766,-0.65234 5.16797,-0.39453 5.24218,-0.13282"
     style="fill:#283d99;fill-opacity:1;fill-rule:nonzero;stroke:none" /><path
     inkscape:connector-curvature="0"
     id="path144"
     d="m 123.72656,417.20703 0.16407,0.21094 c 0.4414,0.58984 0.84765,0.89062 1.20703,0.90625 0.35937,0.0156 0.8125,-0.23047 1.35547,-0.73438 l 1.72265,-1.60937 c 0.54688,-0.50781 0.84766,-0.95703 0.89453,-1.35547 0.0469,-0.39453 -0.15234,-0.88672 -0.59765,-1.47266 l -0.16407,-0.21484 z m -8.22265,-1.48047 0.3789,-0.35156 0.91407,1.20703 8.375,-7.79687 -0.91797,-1.20704 0.35547,-0.33203 5.54687,7.33985 c 1.05078,1.39062 1.60937,2.62109 1.68359,3.6875 0.0742,1.0664 -0.34375,2.01953 -1.24218,2.85937 -0.53907,0.5 -1.06641,0.8125 -1.58204,0.92188 -0.51562,0.11328 -1.0664,0.0391 -1.66406,-0.21485 -0.39843,-0.16015 -0.78906,-0.41797 -1.17187,-0.77343 -0.38281,-0.35157 -0.92969,-0.99219 -1.63281,-1.92188 l -1.19532,-1.58594 -3.41406,3.17969 1.03125,1.36719 -0.37891,0.35156 z m 10.05078,12.81641 0.34375,-0.39453 1.08984,1.16797 7.59375,-8.73047 -1.08594,-1.16407 0.31641,-0.36718 5.64453,6.04687 -0.32031,0.36719 -1.08594,-1.16016 -7.59375,8.72657 1.08594,1.16015 -0.34375,0.39453 z m 9.66015,7.17578 c -0.34375,0.46875 -0.48437,0.84766 -0.42578,1.14062 0.0547,0.29297 0.34766,0.67579 0.86719,1.14063 l -0.30078,0.41406 -3.0625,-2.75 0.30078,-0.41406 0.0977,0.0859 c 0.47656,0.42968 0.84765,0.64453 1.11718,0.64453 0.26563,-0.008 0.56641,-0.23828 0.91016,-0.70703 l 6.05859,-8.30469 -1.29297,-1.16406 0.28907,-0.39453 5.01562,4.50781 -0.42969,8.83594 2.9336,-4.01563 c 0.34375,-0.47656 0.48828,-0.85937 0.43359,-1.15234 -0.0508,-0.29688 -0.32031,-0.66016 -0.80078,-1.08985 l -0.0781,-0.0703 0.28906,-0.39844 3.0625,2.75391 -0.28906,0.39453 -0.0781,-0.0664 c -0.47656,-0.42968 -0.85156,-0.64453 -1.12109,-0.64062 -0.26953,0.004 -0.57813,0.23828 -0.92578,0.71094 l -6.34766,8.70312 -2.03125,-1.83203 0.64844,-12.96875 z m 17.21875,8.5625 0.2461,-0.45313 5.8125,3.875 -0.24219,0.45704 -0.77344,-0.51563 -2.33984,4.29688 c -0.29297,-0.15625 -0.58594,-0.29688 -0.88281,-0.41407 -0.29688,-0.12109 -0.60157,-0.21484 -0.91016,-0.29297 -0.13281,-0.0312 -0.35547,-0.0742 -0.67188,-0.13281 -1.33984,-0.23437 -2.4414,-0.63672 -3.29687,-1.20312 -0.70703,-0.47266 -1.29297,-1.01563 -1.75391,-1.625 -0.46484,-0.61328 -0.8125,-1.3086 -1.04687,-2.08594 -0.28906,-0.94922 -0.37891,-1.94141 -0.28125,-2.98047 0.10156,-1.03906 0.38281,-1.98828 0.85156,-2.85156 0.92969,-1.72266 2.23047,-2.78125 3.89063,-3.1875 1.66406,-0.40235 3.33593,-0.043 5.02343,1.08203 0.52735,0.35156 0.98047,0.75 1.35547,1.19531 0.37891,0.4375 0.71875,0.97266 1.01563,1.58594 l 1.71484,-0.0352 0.41797,0.28125 -2.1875,4.03907 -0.44531,-0.29688 c 0.2539,-1.28906 0.26562,-2.39062 0.0352,-3.30859 -0.23047,-0.92188 -0.69531,-1.61328 -1.39062,-2.07813 -0.75,-0.5 -1.41016,-0.60937 -1.99219,-0.33984 -0.57812,0.26953 -1.18359,0.99219 -1.82422,2.17187 L 149.625,447.25 c -0.30078,0.5625 -0.44531,1.01953 -0.42578,1.375 0.0195,0.35937 0.19531,0.64453 0.53125,0.87109 0.30078,0.19922 0.59375,0.21094 0.88281,0.0469 0.28516,-0.17188 0.57422,-0.52344 0.86328,-1.0586 l 1.92578,-3.55859 z m 28.86719,20.76953 -7.71484,-2.78516 0.15234,-0.51953 1.49609,0.53907 3.37891,-11.53907 c -0.74609,-0.20703 -1.49219,-0.0742 -2.25,0.41016 -0.75781,0.48047 -1.42969,1.25 -2.01953,2.30469 l -0.35938,-0.12891 1.26954,-4.33594 11.72265,4.23047 -1.26562,4.33594 -0.35938,-0.13281 c 0.082,-1.23828 -0.0586,-2.29688 -0.41406,-3.1836 -0.35547,-0.8789 -0.89063,-1.48047 -1.60156,-1.79687 l -3.37891,11.53906 1.49609,0.53906 z m 15.875,0.30078 c -0.24219,1.25391 -0.84766,2.10938 -1.81641,2.57422 -0.96875,0.46484 -2.2539,0.50781 -3.85937,0.12891 -1.62891,-0.38282 -2.83594,-0.9961 -3.61719,-1.83594 -0.78515,-0.83594 -1.0664,-1.82031 -0.85156,-2.94531 l 1.75391,-9.17188 -1.42188,-0.33594 0.0977,-0.51953 7.75781,1.83203 -0.0977,0.51563 -1.53125,-0.35938 -1.73047,9.03516 c -0.16796,0.89063 -0.13281,1.58203 0.11719,2.07813 0.25,0.49609 0.72266,0.82421 1.41406,0.98828 0.83985,0.19922 1.53516,0.11328 2.08594,-0.25782 0.54688,-0.37109 0.90625,-0.99609 1.07422,-1.87109 l 1.42188,-7.41797 c 0.11328,-0.59375 0.0859,-1.01172 -0.0859,-1.24609 -0.17188,-0.23828 -0.58594,-0.4375 -1.23438,-0.60547 l 0.0859,-0.5 3.85547,0.90625 -0.0977,0.5 c -0.66015,-0.13672 -1.11718,-0.14063 -1.35937,-0.008 -0.2461,0.13281 -0.42578,0.49609 -0.54297,1.09765 z m 4.73047,2.47656 c -0.0391,0.60157 0.043,1.00391 0.24219,1.20704 0.19922,0.20312 0.63281,0.33203 1.30078,0.38281 l -0.0352,0.53125 -3.92969,-0.30469 0.0312,-0.52734 0.12891,0.008 c 0.60938,0.0469 1.02344,-0.0156 1.24219,-0.1875 0.21875,-0.17188 0.34765,-0.55859 0.38281,-1.15625 l 0.67188,-10.66016 -1.66016,-0.1289 0.0312,-0.50782 6.44141,0.5 4.21484,7.51172 0.32422,-5.16015 c 0.0391,-0.60547 -0.043,-1.01172 -0.23828,-1.21875 -0.19532,-0.20703 -0.60157,-0.33594 -1.22266,-0.38282 l -0.0977,-0.008 0.0312,-0.51172 3.9336,0.3086 -0.0352,0.50781 -0.0977,-0.008 c -0.61329,-0.0469 -1.03125,0.0156 -1.25,0.1914 -0.21875,0.17188 -0.35157,0.56641 -0.38672,1.17188 l -0.70703,11.16797 -2.60938,-0.20313 -6.17187,-11.03906 z m 18.68359,-3.32421 -0.0156,-0.52735 6.78125,-0.26562 0.0156,0.53125 -0.90234,0.0351 0.15234,5.01953 c -0.32422,0.043 -0.63672,0.10547 -0.94531,0.1836 -0.30859,0.082 -0.60937,0.18359 -0.90625,0.30469 -0.12891,0.0547 -0.33594,0.15625 -0.62891,0.29687 -1.23828,0.61328 -2.35937,0.94141 -3.35546,0.98047 -0.82422,0.0312 -1.58204,-0.0664 -2.26954,-0.30078 -0.6914,-0.23438 -1.32421,-0.60547 -1.90234,-1.11328 -0.70703,-0.625 -1.27344,-1.40235 -1.69922,-2.33203 -0.42578,-0.9336 -0.65234,-1.90235 -0.68359,-2.90625 -0.0625,-2.00391 0.5039,-3.67969 1.69922,-5.02344 1.19531,-1.34375 2.77734,-2.05469 4.74609,-2.13281 0.61328,-0.0195 1.1875,0.0391 1.71875,0.18359 0.53516,0.14062 1.08203,0.38281 1.63281,0.71875 l 1.42188,-1.06641 0.48437,-0.0195 0.14844,4.71485 -0.51953,0.0195 c -0.41797,-1.23828 -0.94922,-2.16797 -1.59375,-2.80078 -0.64453,-0.62891 -1.375,-0.92969 -2.1875,-0.89844 -0.87109,0.0312 -1.48047,0.33984 -1.83203,0.91797 -0.35547,0.57422 -0.50781,1.55078 -0.46485,2.92578 l 0.21094,6.74219 c 0.0195,0.65234 0.125,1.125 0.31641,1.41406 0.1914,0.28515 0.48047,0.42187 0.87109,0.40625 0.35156,-0.0156 0.60547,-0.17969 0.76172,-0.49219 0.16016,-0.31641 0.22656,-0.78516 0.20703,-1.41016 l -0.1289,-4.14843 z m 33.8086,-8.42969 -0.5,0.14844 c -0.64453,-1.08594 -1.34375,-1.85547 -2.10157,-2.32032 -0.75781,-0.46484 -1.51562,-0.58203 -2.26562,-0.35937 -0.75,0.22265 -1.17969,0.71875 -1.28516,1.48047 -0.10547,0.76562 0.17578,2.53515 0.84375,5.30859 0.51953,2.15234 1.02735,3.52734 1.51953,4.12891 0.49219,0.59765 1.15625,0.77343 1.98829,0.52734 0.89843,-0.26953 1.57031,-0.8125 2.01171,-1.63281 0.44141,-0.82031 0.60938,-1.82422 0.5,-3.02344 l 0.53907,-0.16406 c 0.23047,1.52734 0.008,2.8164 -0.67969,3.86328 -0.67969,1.04687 -1.78516,1.79297 -3.30859,2.24609 -1.79297,0.53516 -3.4336,0.33985 -4.92579,-0.58203 -1.48828,-0.92187 -2.46093,-2.33203 -2.92187,-4.23437 -0.20313,-0.83594 -0.25391,-1.71875 -0.15234,-2.63672 0.0977,-0.92578 0.33593,-1.75781 0.70312,-2.50391 0.41016,-0.80078 0.96484,-1.49219 1.66016,-2.07422 0.6914,-0.58203 1.46875,-1 2.32422,-1.2539 0.5664,-0.16797 1.09765,-0.2461 1.60156,-0.23828 0.5,0.004 1.07031,0.10546 1.71094,0.30078 l 1.17187,-1.39453 0.46875,-0.14063 z m 8.73828,3.32812 c 0.24609,0.75391 0.51172,1.26953 0.79297,1.54688 0.28515,0.26953 0.60937,0.33594 0.97656,0.1875 0.37891,-0.15235 0.59766,-0.4375 0.65625,-0.84766 0.0625,-0.41406 -0.0312,-1 -0.27734,-1.7539 l -2.50782,-7.64844 c -0.24609,-0.75391 -0.51172,-1.26172 -0.79297,-1.53516 -0.28515,-0.26953 -0.61718,-0.32812 -1,-0.17578 -0.37109,0.15234 -0.58593,0.43359 -0.64453,0.83594 -0.0547,0.41406 0.0391,0.99219 0.28516,1.74219 z m -6.2461,-1.8125 c -0.27343,-0.83593 -0.39843,-1.71093 -0.37109,-2.63281 0.0273,-0.92187 0.19922,-1.76953 0.51563,-2.54297 0.35156,-0.86328 0.84765,-1.60937 1.49218,-2.24609 0.64453,-0.63281 1.41016,-1.12891 2.29297,-1.48828 1.75781,-0.71094 3.41406,-0.67969 4.96094,0.0898 1.55469,0.76953 2.63281,2.07813 3.23828,3.92188 0.60547,1.85156 0.53906,3.63281 -0.20312,5.33203 -0.74219,1.69531 -1.99219,2.89843 -3.7461,3.60937 -0.76953,0.3125 -1.53515,0.47656 -2.30078,0.49219 -0.76172,0.0195 -1.48828,-0.10938 -2.17578,-0.38281 -0.83203,-0.32422 -1.57813,-0.85547 -2.23828,-1.59766 -0.66406,-0.74609 -1.15235,-1.59766 -1.46485,-2.55469 m 24.78125,-8.95312 c 0.54297,1.13281 0.57422,2.21875 0.10157,3.26953 -0.47266,1.04687 -1.4336,1.99609 -2.87891,2.84766 -1.47266,0.87109 -2.75391,1.26562 -3.83984,1.17968 -1.08594,-0.0859 -1.8711,-0.63672 -2.35938,-1.65234 l -3.96484,-8.27734 -1.28516,0.75781 -0.22656,-0.46875 7.00391,-4.13281 0.22656,0.46875 -1.38281,0.8164 3.90625,8.15235 c 0.38671,0.80468 0.8164,1.30859 1.29687,1.51171 0.47656,0.19922 1.02734,0.11329 1.65234,-0.2539 0.75782,-0.44531 1.24219,-1.00781 1.44922,-1.6836 0.20313,-0.67578 0.11719,-1.41015 -0.26172,-2.20312 l -3.20703,-6.69531 c -0.25781,-0.53516 -0.51953,-0.83594 -0.78515,-0.89453 -0.26953,-0.0586 -0.70313,0.082 -1.29688,0.41796 l -0.22656,-0.44531 3.48047,-2.05078 0.21484,0.44922 c -0.58594,0.36719 -0.9375,0.69141 -1.04687,0.96484 -0.10938,0.27735 -0.0391,0.6836 0.22265,1.22657 z m 5.94922,-1.75391 c 0.32032,0.48828 0.61328,0.73828 0.88672,0.75391 0.26953,0.0117 0.67578,-0.19922 1.21875,-0.63672 l 0.27735,0.42969 -3.1875,2.57031 -0.27735,-0.42969 0.10156,-0.082 c 0.4961,-0.39844 0.77735,-0.74219 0.84375,-1.03125 0.0664,-0.28516 -0.0586,-0.67187 -0.375,-1.16016 l -5.66015,-8.64062 -1.34766,1.08594 -0.26953,-0.41407 5.22266,-4.21093 7.57812,2.74609 -2.73828,-4.18359 c -0.32031,-0.49219 -0.61719,-0.7461 -0.88672,-0.76563 -0.27344,-0.0195 -0.65625,0.17578 -1.16015,0.57813 l -0.0781,0.0664 -0.26953,-0.41406 3.18359,-2.57031 0.27344,0.41406 -0.082,0.0625 c -0.49609,0.40234 -0.78125,0.74609 -0.84375,1.03906 -0.0703,0.28907 0.0547,0.6836 0.37891,1.17578 l 5.92968,9.0586 -2.11718,1.70703 -11.1211,-4.05859 z m 21.28516,-15.16406 -5.83594,6.25391 -0.34375,-0.39063 1.13281,-1.21484 -7.59375,-8.72657 c -0.51562,0.63282 -0.75781,1.42969 -0.73046,2.39454 0.0312,0.96875 0.32421,1.98828 0.88671,3.0625 l -0.26953,0.28906 -2.85547,-3.27735 8.8711,-9.5039 2.85156,3.27734 -0.26953,0.28906 c -0.95313,-0.66015 -1.85938,-1.02343 -2.73047,-1.08984 -0.86719,-0.0625 -1.59375,0.17969 -2.17969,0.73047 l 7.59375,8.72656 1.13282,-1.21484 z m 10.47266,-14.73828 -5.0625,7.1914 -0.39063,-0.33593 0.98047,-1.39063 -3.43359,-2.97656 -7.56641,-1.10547 -0.65625,0.92969 -0.35938,-0.3125 4.85157,-6.89453 0.35937,0.3164 -0.74219,1.0586 6.02735,0.85547 -1.59375,-4.29297 c -0.0625,-0.17188 -0.12891,-0.3086 -0.19922,-0.41797 -0.0703,-0.10938 -0.14453,-0.19922 -0.22656,-0.26953 -0.22266,-0.19141 -0.45703,-0.23438 -0.71094,-0.13672 -0.25391,0.0976 -0.51563,0.33594 -0.77734,0.71094 l -0.375,-0.32813 2.3125,-3.28125 0.35937,0.3125 c -0.18359,0.39844 -0.28516,0.76953 -0.30078,1.11719 -0.0117,0.34765 0.0625,0.75 0.22656,1.20703 l 2.08203,5.78906 3.82032,3.3125 0.98828,-1.39453"
     style="fill:#283d99;fill-opacity:1;fill-rule:evenodd;stroke:none" /><path
     inkscape:connector-curvature="0"
     id="path146"
     d="m 187.48437,423.19922 v 6.92187 h 3.83204 v -6.92187 h 5.89062 v -3.26563 h -5.89062 v -3.92187 h 4.71484 V 412.75 h -4.85938 c 0.58204,-1.04688 1.07422,-1.78516 1.46875,-2.22266 l -2.35546,-1.30468 H 195 c 0.88672,0 1.375,-0.4336 1.46875,-1.3086 v -6.13281 c 0,-0.78516 -0.48828,-1.22266 -1.46875,-1.30859 h -28.14844 c -0.8789,0 -1.32422,0.4375 -1.32422,1.30859 v 13.83984 c 0,5.3086 -1.03125,9.79688 -3.09375,13.44922 l 3.6836,1.56641 c 0.88672,-1.30078 1.51953,-3.00391 1.91797,-5.08985 0.8789,-2.87109 1.32421,-5.79296 1.32421,-8.75 v -7.57421 h 7.21875 l -2.0625,1.04296 c 0.58985,0.61329 1.1836,1.4375 1.76563,2.48438 h -4.5625 v 3.26172 h 4.71484 v 3.92187 h -6.1914 v 3.26563 h 6.03906 c -0.29297,1.5664 -1.41797,2.78515 -3.38672,3.65234 -0.87891,0.34766 -1.86719,0.69922 -2.94141,1.04297 l 2.0625,3.00391 c 4.8086,-1.82813 7.51172,-4.39453 8.10157,-7.69922 z m 0,-3.26563 h -7.22265 v -3.92187 h 7.22265 z m -7.66015,-7.18359 0.58984,-0.13281 c -0.58984,-1.04297 -1.32812,-2.17969 -2.21484,-3.39453 h 10.90234 c -0.28906,0.34765 -0.63281,0.91406 -1.03125,1.69531 -0.39062,0.61328 -0.82812,1.21875 -1.32812,1.83203 z m -10.46485,-8.48828 c 0,-0.34766 0.19532,-0.52735 0.59375,-0.52735 h 22.09766 c 0.29688,0 0.48828,0.17969 0.58984,0.52735 v 1.17187 c 0,0.35157 -0.19531,0.52735 -0.58984,0.52735 h -22.69141 z m 54.60938,18.54297 c 3.82812,2.61328 8.25,4.74609 13.26172,6.40234 l 2.35547,-3.00391 c -5.39844,-1.3125 -9.97266,-3.18359 -13.70703,-5.61718 h 10.32031 c 0.29297,0 0.48828,-0.17188 0.58984,-0.52344 v -12.80078 c 0,-0.26172 -0.19531,-0.4336 -0.58984,-0.52344 h -12.23047 v -1.5625 h 14.58594 v -3.26953 h -14.58594 v -1.82422 h -3.83594 v 1.82422 h -14.73047 v 3.26953 h 14.73047 v 1.5625 h -12.37109 c -0.29688,0 -0.44531,0.17969 -0.44531,0.52344 v 12.80078 c 0,0.35156 0.14843,0.52344 0.44531,0.52344 h 9.42969 c -3.83204,2.43359 -8.0586,4.26172 -12.67188,5.48047 l 2.05859,3.14062 c 4.42188,-1.13281 8.94141,-3.3125 13.55469,-6.53125 v 7.44531 h 3.83594 z m -3.83594,-5.48438 h -8.83984 c -0.0977,0 -0.14063,-0.043 -0.14063,-0.13281 v -1.95703 h 8.98047 z m 3.83594,-2.08984 h 8.98437 v 1.95703 c 0,0.0898 -0.043,0.13281 -0.14453,0.13281 h -8.83984 z m -3.83594,-3.26563 h -8.98047 v -1.82812 c -0.10156,-0.0859 -0.0508,-0.13281 0.14063,-0.13281 h 8.83984 z m 3.83594,-1.96093 h 8.83984 l 0.14453,0.13281 v 1.82812 h -8.98437 z m 38.69141,4.83593 v -14.36718 c 0,-0.25782 -0.19532,-0.39063 -0.58594,-0.39063 h -10.31641 c -0.29687,0 -0.4414,0.13281 -0.4414,0.39063 v 14.36718 c 0,0.25782 0.14453,0.39063 0.4414,0.39063 h 10.31641 c 0.39062,0 0.58594,-0.13281 0.58594,-0.39063 m -3.23829,-3.66015 v 1.17578 c 0,0.0898 -0.0508,0.13281 -0.15234,0.13281 h -4.71484 v -1.30859 z M 254.55469,407 h 4.86718 v 1.57031 h -4.86718 z m 0,-2.60547 v -1.4375 c -0.0937,-0.0898 -0.0937,-0.13672 0,-0.13672 h 4.71484 c 0.10156,0 0.15234,0.0469 0.15234,0.13672 v 1.4375 z m -1.03125,15.01563 v 10.83593 h 3.68359 v -10.83593 h 5.01172 v -3.13672 h -10.90234 c -0.58985,0 -0.88672,-0.26172 -0.88672,-0.78125 v -13.1875 h -3.53125 v 15.53906 c 0,1.04297 0.53906,1.56641 1.61718,1.56641 z m -4.125,1.04296 c -0.58985,2.61329 -1.81641,4.96485 -3.6836,7.05469 0.88672,0.34375 1.81641,1 2.80078,1.96094 1.86329,-2.08984 3.38672,-4.75 4.57032,-7.96875 z m 8.54687,1.3086 c 0.58985,1.30469 1.17969,3.0039 1.77344,5.08984 l 3.38672,-0.64844 c -0.58985,-2.08984 -1.23047,-3.8789 -1.91797,-5.35546 z m 19.15625,-2.08985 -3.23828,1.17579 c 1.27734,2.17187 2.60156,5.17578 3.97266,9.00781 l 3.39453,-1.17578 c -1.1836,-3.65235 -2.50781,-6.61719 -3.98047,-8.87891 l 3.23828,-1.30469 c -1.17578,-2.70312 -2.35547,-4.91797 -3.53125,-6.66406 l -3.24609,1.30859 c 0.29687,0.52344 0.64062,1.08594 1.03125,1.69922 l -4.125,0.39063 c 3.24609,-3.21875 5.20703,-5.92188 5.89843,-8.09375 l -3.24218,-1.05078 c -0.59375,1.39453 -1.42969,2.875 -2.51172,4.4414 -0.58203,-0.52343 -1.125,-0.95703 -1.61328,-1.30468 1.57031,-2.17579 2.79687,-4.04688 3.68359,-5.61329 h 0.87891 c 2.65234,-0.26171 4.52343,-0.52343 5.60156,-0.78906 l -0.58984,-3.1289 c -3.33985,0.60546 -8.00391,0.95703 -13.9961,1.04296 L 265.16797,404 c 1.17578,0 2.40625,-0.0469 3.68359,-0.12891 -0.6914,1.12891 -1.375,2.26172 -2.0625,3.39063 h -0.14844 c -0.88281,-0.60547 -1.47265,-0.95703 -1.76953,-1.03906 l -1.76562,2.60546 c 1.86719,1.04688 3.73047,2.44141 5.59375,4.17969 -0.87891,1.04688 -1.81641,1.96094 -2.79688,2.7461 l -2.94922,0.39062 c 0.39844,1.04297 0.64454,2.04688 0.73829,3.00391 l 6.03906,-0.65235 v 11.75 h 3.6875 v -12.01172 l 2.94531,-0.39062 c 0.29688,0.51953 0.54297,1.13281 0.73828,1.82812 m -11.93359,1.04297 c -0.29688,2.875 -1.27735,5.35157 -2.94922,7.44141 0.88672,0.35156 1.86719,0.96094 2.94922,1.82812 1.76562,-2.35156 2.99219,-5.21875 3.68359,-8.61718"
     style="fill:#283d99;fill-opacity:1;fill-rule:evenodd;stroke:none" /><path
     inkscape:connector-curvature="0"
     id="path148"
     d="m 186.33203,423.19922 v 6.92187 h 3.82813 v -6.92187 h 5.89062 v -3.26563 h -5.89062 v -3.92187 H 194.875 V 412.75 h -4.85938 c 0.58594,-1.04688 1.07422,-1.78516 1.47266,-2.22266 l -2.35937,-1.30468 h 4.71484 c 0.88672,0 1.37891,-0.4336 1.47266,-1.3086 v -6.13281 c 0,-0.78516 -0.48829,-1.22266 -1.47266,-1.30859 h -28.14453 c -0.87891,0 -1.32813,0.4375 -1.32813,1.30859 v 13.83984 c 0,5.3086 -1.03125,9.79688 -3.09375,13.44922 l 3.6836,1.56641 c 0.88672,-1.30078 1.52343,-3.00391 1.91797,-5.08985 0.88281,-2.87109 1.32812,-5.79296 1.32812,-8.75 v -7.57421 h 7.21875 l -2.0625,1.04296 c 0.58984,0.61329 1.17969,1.4375 1.76563,2.48438 h -4.5625 v 3.26172 h 4.71484 v 3.92187 h -6.19531 v 3.26563 h 6.04297 c -0.29688,1.5664 -1.42188,2.78515 -3.38672,3.65234 -0.88282,0.34766 -1.86719,0.69922 -2.94532,1.04297 l 2.0625,3.00391 c 4.8086,-1.82813 7.51563,-4.39453 8.10547,-7.69922 z m 0,-3.26563 h -7.22266 v -3.92187 h 7.22266 z m -7.66406,-7.18359 0.58984,-0.13281 c -0.58984,-1.04297 -1.32422,-2.17969 -2.21094,-3.39453 h 10.90235 c -0.28906,0.34765 -0.63672,0.91406 -1.03125,1.69531 -0.39063,0.61328 -0.83203,1.21875 -1.32813,1.83203 z m -10.46094,-8.48828 c 0,-0.34766 0.19531,-0.52735 0.58984,-0.52735 h 22.10157 c 0.29297,0 0.48828,0.17969 0.58984,0.52735 v 1.17187 c 0,0.35157 -0.19531,0.52735 -0.58984,0.52735 h -22.69141 z m 54.60938,18.54297 c 3.82812,2.61328 8.24609,4.74609 13.25781,6.40234 l 2.35937,-3.00391 c -5.40234,-1.3125 -9.97265,-3.18359 -13.70703,-5.61718 h 10.31641 c 0.29687,0 0.49219,-0.17188 0.58984,-0.52344 v -12.80078 c 0,-0.26172 -0.1914,-0.4336 -0.58984,-0.52344 h -12.22656 v -1.5625 h 14.58593 v -3.26953 h -14.58593 v -1.82422 h -3.83594 v 1.82422 H 204.25 v 3.26953 h 14.73047 v 1.5625 h -12.3711 c -0.29687,0 -0.44921,0.17969 -0.44921,0.52344 v 12.80078 c 0,0.35156 0.15234,0.52344 0.44921,0.52344 h 9.42969 c -3.83594,2.43359 -8.0625,4.26172 -12.67578,5.48047 l 2.0625,3.14062 c 4.41797,-1.13281 8.94141,-3.3125 13.55469,-6.53125 v 7.44531 h 3.83594 z m -3.83594,-5.48438 h -8.83985 c -0.10156,0 -0.14453,-0.043 -0.14453,-0.13281 v -1.95703 h 8.98438 z m 3.83594,-2.08984 h 8.98437 v 1.95703 c 0,0.0898 -0.0469,0.13281 -0.14453,0.13281 h -8.83984 z m -3.83594,-3.26563 h -8.98438 v -1.82812 c -0.10156,-0.0859 -0.0508,-0.13281 0.14453,-0.13281 h 8.83985 z m 3.83594,-1.96093 h 8.83984 l 0.14453,0.13281 v 1.82812 h -8.98437 z m 38.6875,4.83593 v -14.36718 c 0,-0.25782 -0.19141,-0.39063 -0.58204,-0.39063 h -10.3164 c -0.29688,0 -0.44141,0.13281 -0.44141,0.39063 v 14.36718 c 0,0.25782 0.14453,0.39063 0.44141,0.39063 h 10.3164 c 0.39063,0 0.58204,-0.13281 0.58204,-0.39063 m -3.23438,-3.66015 v 1.17578 c 0,0.0898 -0.0508,0.13281 -0.15234,0.13281 h -4.71485 v -1.30859 z M 253.40234,407 h 4.86328 v 1.57031 h -4.86328 z m 0,-2.60547 v -1.4375 c -0.0937,-0.0898 -0.0937,-0.13672 0,-0.13672 h 4.71485 c 0.10156,0 0.15234,0.0469 0.15234,0.13672 v 1.4375 z m -1.03125,15.01563 v 10.83593 h 3.6836 v -10.83593 h 5.01172 v -3.13672 h -10.90235 c -0.58984,0 -0.88672,-0.26172 -0.88672,-0.78125 v -13.1875 h -3.53125 v 15.53906 c 0,1.04297 0.53907,1.56641 1.61328,1.56641 z m -4.125,1.04296 c -0.58984,2.61329 -1.8164,4.96485 -3.68359,7.05469 0.88672,0.34375 1.81641,1 2.79687,1.96094 1.86719,-2.08984 3.39063,-4.75 4.57032,-7.96875 z m 8.54297,1.3086 c 0.59375,1.30469 1.1836,3.0039 1.77344,5.08984 l 3.39062,-0.64844 c -0.58984,-2.08984 -1.23437,-3.8789 -1.91796,-5.35546 z m 19.16016,-2.08985 -3.23828,1.17579 c 1.27343,2.17187 2.60156,5.17578 3.97265,9.00781 l 3.39453,-1.17578 c -1.18359,-3.65235 -2.50781,-6.61719 -3.98046,-8.87891 l 3.23828,-1.30469 c -1.17578,-2.70312 -2.35938,-4.91797 -3.53516,-6.66406 l -3.24219,1.30859 c 0.29297,0.52344 0.64063,1.08594 1.03125,1.69922 l -4.125,0.39063 c 3.2461,-3.21875 5.20703,-5.92188 5.89844,-8.09375 l -3.24609,-1.05078 c -0.58985,1.39453 -1.42578,2.875 -2.50782,4.4414 -0.58593,-0.52343 -1.125,-0.95703 -1.61328,-1.30468 1.57032,-2.17579 2.79688,-4.04688 3.6836,-5.61329 h 0.8789 c 2.65235,-0.26171 4.51953,-0.52343 5.60157,-0.78906 l -0.58985,-3.1289 c -3.33984,0.60546 -8.0039,0.95703 -13.99609,1.04296 L 264.01562,404 c 1.17579,0 2.40625,-0.0469 3.6836,-0.12891 -0.69141,1.12891 -1.37891,2.26172 -2.0625,3.39063 h -0.15235 c -0.8789,-0.60547 -1.46875,-0.95703 -1.76562,-1.03906 l -1.76563,2.60546 c 1.86719,1.04688 3.72657,2.44141 5.59375,4.17969 -0.8789,1.04688 -1.8164,1.96094 -2.79687,2.7461 l -2.94922,0.39062 c 0.39844,1.04297 0.64063,2.04688 0.73828,3.00391 l 6.03906,-0.65235 v 11.75 h 3.6836 v -12.01172 l 2.94922,-0.39062 c 0.29687,0.51953 0.54297,1.13281 0.73828,1.82812 m -11.9336,1.04297 c -0.29687,2.875 -1.27734,5.35157 -2.94921,7.44141 0.88671,0.35156 1.86718,0.96094 2.94921,1.82812 1.76563,-2.35156 2.99219,-5.21875 3.6836,-8.61718"
     style="fill:#ffffff;fill-opacity:1;fill-rule:evenodd;stroke:none" /></g></svg>