<?xml version="1.0" encoding="UTF-8" standalone="no"?>
<svg
   version="1.1"
   width="408.23999"
   height="272.16"
   viewBox="0 0 408.23999 272.16001"
   id="svg260"
   sodipodi:docname="Flag of Taichung City 2025.svg"
   inkscape:version="1.4.2 (f4327f4, 2025-05-13)"
   xmlns:inkscape="http://www.inkscape.org/namespaces/inkscape"
   xmlns:sodipodi="http://sodipodi.sourceforge.net/DTD/sodipodi-0.dtd"
   xmlns="http://www.w3.org/2000/svg"
   xmlns:svg="http://www.w3.org/2000/svg">
  <defs
     id="defs260" />
  <sodipodi:namedview
     id="namedview260"
     pagecolor="#ffffff"
     bordercolor="#000000"
     borderopacity="0.25"
     inkscape:showpageshadow="2"
     inkscape:pageopacity="0.0"
     inkscape:pagecheckerboard="0"
     inkscape:deskcolor="#d1d1d1"
     inkscape:zoom="0.95971109"
     inkscape:cx="202.14417"
     inkscape:cy="208.39605"
     inkscape:window-width="1920"
     inkscape:window-height="1010"
     inkscape:window-x="1529"
     inkscape:window-y="-6"
     inkscape:window-maximized="1"
     inkscape:current-layer="svg260" />
  <path
     stroke-width="0.75"
     stroke-linecap="butt"
     stroke-miterlimit="10"
     stroke-linejoin="miter"
     fill="none"
     stroke="#231a17"
     d="M 408.24,272.16 H 0 V 0 h 408.24 z"
     id="path1"
     style="fill:#ffffff;fill-opacity:1;stroke:none" />
  <path
     d="m 86.16,213.48 c -1.2,0.48 -5.64,1.92 -6.12,1.56 0,0 -1.44,0.12 -0.72,-1.44 0,0 5.16,-2.04 7.56,-2.04 0,0 0.48,1.44 -0.72,1.92 z m 4.2,-7.56 c 0.12,-0.48 5.16,-1.2 5.16,-1.2 -0.72,-1.56 -2.16,-3.24 -3,-4.2 -0.96,-0.84 -3.6,0.12 -4.2,0.24 -0.72,0.12 -0.6,-0.84 -0.24,-1.32 0.36,-0.36 5.64,-1.68 6.12,-2.16 0.36,-0.6 0,-2.52 -0.24,-2.88 -0.24,-0.36 -4.2,-2.76 -5.64,-3 -1.32,-0.36 1.2,-4.44 1.2,-4.44 0.72,-2.52 -0.36,-3.96 -0.36,-3.96 -4.2,-1.68 -12.36,0.48 -12.36,0.48 3.12,2.52 3.6,6.36 3.6,6.36 1.32,5.88 -2.16,5.28 -5.52,6.24 -3.36,0.96 -9.72,0.48 -9.72,1.8 0,1.32 3.72,3.12 3.72,3.12 0,0.48 6.36,2.76 7.2,1.92 0.96,-0.84 2.4,-1.44 3.6,-1.32 1.32,0.12 1.2,0.36 0.36,1.08 -0.96,0.72 -3.84,0.84 -4.56,1.32 -0.72,0.48 -6.72,1.92 -6.72,1.92 -3.48,-0.12 -2.76,0.24 -2.76,0.24 -0.24,1.08 2.16,2.04 5.04,3.72 2.88,1.8 6.96,-0.72 6.96,-0.72 9.48,-3.36 9.6,-1.68 9.6,-1.68 -0.84,1.44 -14.28,4.44 -14.64,4.2 -0.36,-0.36 -2.16,-0.24 -2.16,-0.24 -2.04,0 -1.44,1.68 -0.72,2.04 0.84,0.48 3,4.56 3,5.52 0,0.84 0.24,1.8 1.68,1.92 1.32,0.12 3.12,-1.2 6.72,-2.76 3.6,-1.44 10.56,-1.32 11.52,-2.16 0.96,-0.96 -0.6,-1.8 -0.6,-1.8 1.44,-2.04 2.76,-2.28 2.76,-2.28 0.48,-0.48 0.6,-1.32 0.12,-2.4 -0.36,-0.96 -4.92,-3.12 -4.92,-3.6 z"
     fill="#000524"
     id="path2"
     style="stroke-width:0.75" />
  <path
     d="m 53.64,230.52003 c 0,0 -1.8,-1.56 1.44,-2.52 0,0 7.8,-4.44 8.4,-4.92 0.6,-0.48 2.64,-2.4 2.76,-3 0,0 1.08,-0.24 0.96,1.68 0,0 0.24,1.44 7.92,0 7.8,-1.44 19.92,-4.44 20.52,-5.04 0.72,-0.48 3.36,-0.96 3.72,-0.84 0.24,0.12 1.68,-3.12 3.72,-2.88 2.04,0.36 3.84,3.12 5.64,4.08 1.8,0.84 2.88,3.72 2.52,3.96 -0.36,0.36 -1.56,0 -3.48,1.68 -1.8,1.56 -8.76,3.36 -10.92,3.36 0,0 -1.92,0.48 -0.72,-2.4 1.2,-2.88 1.08,-3.24 0.96,-3.24 -0.24,0 -10.08,1.92 -12.6,2.64 -2.52,0.84 -11.04,2.16 -14.16,3.96 0,0 -1.2,0.84 -2.88,-1.44 0,0 -0.84,-0.84 -0.84,0.96 0,1.68 -2.64,7.8 -3,9.24 -0.36,1.44 -1.2,3 -3.24,1.68 -1.92,-1.32 -6.12,-5.88 -6.72,-6.96 z"
     fill="#000524"
     id="path3"
     style="stroke-width:0.75" />
  <path
     d="m 83.64,230.75999 c 0,0 -0.36,-0.24 1.8,-2.4 0,0 1.68,-0.84 2.4,-0.6 0.6,0.12 2.04,1.56 1.8,1.8 -0.36,0.12 -5.04,1.44 -6,1.2 z m 15.84,12.84 c 0,0 0.48,-0.48 -4.32,0.12 -4.8,0.6 -6.36,0.36 -6.6,0.24 -0.36,-0.12 -0.12,-2.28 0.24,-2.64 0.24,-0.36 3.48,-0.6 5.04,-0.72 1.56,0 2.4,-0.24 2.4,-0.48 0,-0.36 -3.24,-5.28 -5.04,-4.32 -1.68,0.96 -1.92,0.84 -1.92,0.84 l -0.12,-2.28 c 0,-0.12 2.88,-0.84 2.88,-0.6 0,0.24 1.2,1.56 2.28,1.56 1.08,-0.12 2.88,-2.52 3.24,-3 0.36,-0.36 1.08,-2.52 -0.84,-2.88 -1.8,-0.36 -5.16,-2.52 -5.16,-2.52 0,0 2.64,0.36 2.64,-0.36 0.12,-0.72 -2.16,-3.36 -2.52,-3.72 -0.48,-0.36 -1.68,0.12 -1.8,0.6 -0.12,0.36 -8.04,2.4 -12.48,3.36 -4.44,0.96 -9.12,1.08 -9.12,1.08 -0.72,0.24 0.72,1.56 2.04,3.36 1.44,1.68 2.04,1.08 2.04,1.08 0.6,-0.6 5.16,-2.52 5.16,-1.8 -0.12,0.72 -3.24,2.76 -5.04,3.24 -1.8,0.36 -2.04,-0.84 -3.36,-0.72 -1.32,0.12 0.72,4.44 1.32,6 0.6,1.44 3,-0.24 3.36,-0.12 0.24,0 7.08,-2.76 7.92,-2.76 0.72,0.12 0.72,1.44 0.72,1.56 0,0.24 -0.12,1.08 -2.52,1.32 -2.4,0.24 -9,1.8 -9,1.8 -4.08,-0.36 -3.84,0 -3.84,0 0.36,1.8 1.92,2.16 3.48,3.84 1.68,1.68 3.84,0.84 4.68,0 0.84,-0.84 6.24,-1.68 6.84,-1.68 0.6,-0.12 0.6,0.84 0.6,1.32 -0.12,0.6 -0.96,0.84 -6.48,2.28 -5.4,1.44 -7.2,0.6 -8.52,1.32 -1.32,0.84 -2.16,0.84 -2.16,0.84 -3.36,-0.96 -3.24,-0.12 -3.24,-0.12 1.8,6 4.68,5.28 4.68,5.28 3,-1.44 6.6,-2.76 11.88,-3.84 5.28,-1.08 17.16,-0.84 20.88,0.48 3.72,1.32 3.84,0.36 3.84,0.36 -0.36,-4.92 -4.08,-7.32 -4.08,-7.32 z"
     fill="#000524"
     id="path4"
     style="stroke-width:0.75" />
  <path
     d="m 167.76,215.4 c 0,0 -6.84,1.68 -7.32,1.08 -0.6,-0.6 0,-5.52 0,-5.52 0,0 7.92,-2.04 9.84,-1.32 0,0 -2.64,5.04 -2.52,5.76 z m -13.08,2.04 c 0,0 0,0.24 -1.8,0.72 -1.68,0.6 -9.84,2.52 -10.08,1.44 -0.12,-0.96 -0.24,-4.56 0,-5.04 0,0 10.2,-3.24 11.4,-2.76 1.08,0.48 0.48,5.64 0.48,5.64 z m 24.6,-7.2 c -0.84,-0.48 -5.04,-4.68 -5.64,-6.24 -0.48,-1.56 -1.56,-1.32 -1.56,-1.32 -2.52,1.2 -11.04,2.16 -11.28,1.8 -0.12,-0.36 0.72,-8.76 0.72,-8.76 2.16,-3.84 0.6,-4.68 0.6,-4.68 -4.32,-4.68 -12.12,-4.08 -12.12,-4.08 0,0 0.96,3.6 2.4,5.88 0.84,1.44 2.04,13.2 1.68,13.8 -0.48,0.6 -9.96,1.8 -12.84,2.16 -2.88,0.24 -3.24,-2.64 -4.08,-2.64 -0.84,0 -1.8,0.6 -2.76,3 -0.84,2.4 -4.44,8.16 -3.24,10.68 1.32,2.52 6.72,7.44 7.44,8.4 0.84,0.96 2.64,0.12 4.2,-1.68 1.56,-1.68 10.08,-3.48 11.04,-3.36 0.96,0 1.56,0.96 0.96,3.72 -0.6,2.64 -0.84,18.24 -0.84,18.24 1.32,10.56 3.96,9.72 3.96,9.72 3.48,-1.92 3.72,-16.08 2.88,-23.04 -0.84,-6.96 -0.48,-9.72 -0.48,-9.72 6.36,-1.56 8.16,-0.24 8.16,-0.24 0.84,2.64 2.88,0.84 2.88,0.84 3.6,-3.72 3.96,-3 4.8,-3.48 0.72,-0.48 5.16,-3.36 5.76,-4.2 0.48,-0.96 -1.8,-4.32 -2.64,-4.8 z"
     fill="#000524"
     id="path5"
     style="stroke-width:0.75" />
  <path
     d="m 207,21 c 0,0 27.72,73.08 138.36,102.72 h -75.12 c 0,0 -1.92,27.72 61.32,59.28 0,0 -74.88,-7.8 -92.64,-71.16 h 35.64 c 0,0 -55.92,-28.56 -67.56,-90.84 z"
     fill="#ed1c24"
     id="path6"
     style="stroke-width:0.75" />
  <path
     d="m 125.27999,125.76 c 0,0 1.68,22.68 -50.16,48.48 0,0 64.68,-6.36 79.32,-58.2 h -24.36 z"
     fill="#80c342"
     id="path7"
     style="stroke-width:0.75" />
  <path
     d="m 226.44,103.68 h -34.8 c 0,0 -22.08,1.56 -31.56,-50.64 0,0 26.88,45.84 66.36,50.64 z"
     fill="#faa61a"
     id="path8"
     style="stroke-width:0.75" />
  <path
     d="m 158.39999,49.80003 c 0,0 -23.52,55.92 -96.48,86.04 0,0 107.52,-18.24 157.08,-23.88 h -92.16 c 0,0 24.36,-15.96 31.56,-62.16 z"
     fill="#80c342"
     id="path9"
     style="stroke-width:0.75" />
  <path
     d="m 171,57.84 c 0,0 4.56,7.68 11.16,11.76 0,0 18.72,-16.32 20.88,-36.96 0,0 -12.12,26.76 -32.04,25.2 z"
     fill="#f47920"
     id="path10"
     style="stroke-width:0.75" />
  <path
     d="m 115.2,171.96 41.52,0.12 c 0,0 44.52,-36.84 94.92,-19.8 0,0 -57.12,-32.88 -136.44,19.68 z"
     fill="#00aeef"
     id="path11"
     style="stroke-width:0.75" />
  <path
     d="m 199.44,215.16 h -8.28 c 0,-3.24 1.32,-4.92 3.96,-4.92 h 17.76 v 5.04 l -8.28,-0.12 v 18.72 4.32 c 0,0 -3.48,-0.12 -5.16,-0.12 z"
     fill="#000524"
     id="path12"
     style="stroke-width:0.75" />
  <path
     d="m 221.76,217.80003 -1.56,4.56 -1.32,3.6 h 2.88 2.88 l -1.8,-5.04 z m -9.84,19.08 c -0.36,-0.36 -0.6,-0.72 -0.72,-1.2 -0.12,-0.48 -0.24,-0.96 -0.24,-1.44 0,-0.48 0,-0.96 0.12,-1.32 0.12,-0.48 0.24,-0.96 0.48,-1.32 l 3.84,-9.96 3.84,-9.84 c 0.24,-0.36 0.36,-0.6 0.48,-0.84 0.12,-0.24 0.36,-0.48 0.6,-0.6 0.12,-0.24 0.36,-0.36 0.6,-0.36 0.24,-0.12 0.6,-0.12 0.84,-0.12 0.36,0 0.6,0 0.84,0.12 0.24,0 0.48,0.12 0.72,0.36 0.12,0.12 0.36,0.36 0.48,0.6 0.24,0.24 0.36,0.48 0.48,0.84 l 3.84,9.84 3.96,9.96 c 0.12,0.36 0.24,0.84 0.36,1.32 0.12,0.36 0.12,0.84 0.12,1.2 0,0.6 0,1.08 -0.24,1.56 -0.12,0.48 -0.36,0.84 -0.6,1.2 -0.36,0.36 -0.72,0.6 -1.2,0.84 -0.36,0.12 -0.96,0.36 -1.44,0.36 l -1.44,-3.6 -1.44,-3.6 h -4.44 -4.44 l -1.44,3.6 -1.44,3.6 c -0.48,0 -0.96,-0.24 -1.44,-0.36 -0.48,-0.24 -0.84,-0.48 -1.08,-0.84 z"
     fill="#000524"
     id="path13"
     style="stroke-width:0.75" />
  <path
     d="m 236.39999,214.08 c 0,-1.32 0.48,-2.4 1.32,-3.12 0.84,-0.72 2.16,-1.08 3.72,-1.08 v 24 4.32 c 0,0 -3.48,-0.12 -5.04,-0.12 z"
     fill="#000524"
     id="path14"
     style="stroke-width:0.75" />
  <path
     d="m 250.44,236.75999 c -1.68,-0.96 -2.88,-2.28 -3.84,-3.84 -0.84,-1.68 -1.32,-3.6 -1.32,-5.64 v -6.72 c 0,-2.04 0.48,-3.96 1.32,-5.52 0.84,-1.68 2.16,-2.88 3.72,-3.84 1.56,-0.96 3.36,-1.32 5.52,-1.32 2.04,0 3.84,0.36 5.4,0.96 1.68,0.72 2.88,1.68 3.72,3 0.96,1.2 1.32,2.64 1.32,4.2 0,1.08 -0.24,1.92 -0.84,2.52 -0.6,0.6 -1.44,0.84 -2.4,0.84 -0.72,0.12 -0.96,0.12 -1.68,0.12 v -2.4 c 0,-1.2 -0.6,-2.28 -1.56,-3 -1.08,-0.84 -2.4,-1.2 -3.96,-1.2 -1.68,0 -3,0.48 -3.96,1.56 -1.08,1.08 -1.56,2.4 -1.56,4.08 v 6.72 c 0,1.68 0.48,3.12 1.56,4.2 1.08,1.08 2.4,1.56 4.08,1.56 1.68,0 3,-0.36 3.96,-1.2 1.08,-0.72 1.44,-1.8 1.56,-3 0.12,-0.96 0.12,-1.8 0.12,-2.28 0.72,0 1.32,0 1.8,0 1.08,0 2.52,-0.24 2.88,0.6 0.24,0.6 0.24,1.8 0.24,2.88 0,1.56 -0.48,3 -1.32,4.2 -0.96,1.2 -2.16,2.16 -3.72,2.76 -1.68,0.72 -3.48,1.08 -5.52,1.08 -2.04,0 -3.84,-0.48 -5.52,-1.32 z"
     fill="#000524"
     id="path15"
     style="stroke-width:0.75" />
  <path
     d="m 269.64,213.96 c 0,-1.32 0.36,-2.4 1.32,-3 0.84,-0.72 2.04,-1.08 3.72,-1.08 v 11.52 h 9.72 v -7.44 -4.08 h 5.04 v 24 c 0,1.44 -0.48,2.4 -1.32,3.12 -0.84,0.72 -2.04,1.08 -3.72,1.08 v -11.76 h -9.72 v 7.56 4.32 c -0.96,0 -3.36,-0.12 -5.04,-0.12 z"
     fill="#000524"
     id="path16"
     style="stroke-width:0.75" />
  <path
     d="m 298.08,236.75999 c -1.56,-0.96 -2.76,-2.16 -3.72,-3.84 -0.84,-1.56 -1.32,-3.48 -1.32,-5.4 v -13.56 c 0,-1.32 0.48,-2.4 1.32,-3 0.84,-0.72 2.16,-1.08 3.72,-1.08 v 17.64 c 0,1.68 0.48,3 1.44,3.96 0.96,1.08 2.28,1.56 3.84,1.56 1.68,0 2.88,-0.48 3.84,-1.56 0.96,-0.96 1.44,-2.28 1.44,-3.96 v -13.56 -4.08 h 5.16 v 17.64 c 0,1.92 -0.48,3.84 -1.32,5.4 -0.96,1.68 -2.16,2.88 -3.72,3.84 -1.56,0.84 -3.36,1.32 -5.4,1.32 -1.92,0 -3.72,-0.48 -5.28,-1.32 z"
     fill="#000524"
     id="path17"
     style="stroke-width:0.75" />
  <path
     d="m 322.32,220.08 v 13.8 c 0,1.44 0,3.36 0,4.32 0,0 -3.36,-0.12 -4.92,-0.12 v -23.76 c 0,-1.32 0.36,-2.4 1.2,-3.24 0.84,-0.84 1.92,-1.2 3.36,-1.2 l 9.84,17.76 v -1.08 -16.68 c 1.68,0 4.2,0 5.04,0 0,0 0,2.76 0,4.08 v 20.28 c 0,0.72 -0.12,1.32 -0.48,1.92 -0.36,0.6 -0.84,1.08 -1.44,1.44 -0.6,0.36 -1.2,0.48 -1.92,0.48 z"
     fill="#000524"
     id="path18"
     style="stroke-width:0.75" />
  <path
     d="m 345.24,236.75999 c -1.68,-0.96 -2.88,-2.28 -3.84,-3.84 -0.84,-1.68 -1.32,-3.6 -1.32,-5.64 v -6.72 c 0,-2.04 0.48,-3.96 1.32,-5.52 0.84,-1.68 2.16,-2.88 3.72,-3.84 1.56,-0.96 3.48,-1.32 5.52,-1.32 2.04,0 3.84,0.36 5.4,0.96 1.68,0.72 2.88,1.68 3.72,2.88 0.96,1.32 1.44,2.76 1.44,4.32 0,0.96 -0.36,1.8 -0.96,2.4 -0.6,0.6 -1.44,0.84 -2.4,0.84 -0.6,0 -0.96,0 -1.56,-0.12 0,0 -0.12,-1.32 -0.12,-2.04 -0.12,-1.32 -0.48,-2.28 -1.56,-3.12 -1.08,-0.84 -2.4,-1.2 -3.96,-1.2 -1.68,0 -3,0.48 -3.96,1.56 -1.08,1.08 -1.56,2.52 -1.56,4.2 v 6.72 c 0,1.68 0.6,3.12 1.56,4.2 1.08,1.08 2.4,1.68 4.08,1.68 1.68,0 3,-0.48 3.96,-1.32 0.96,-0.84 1.56,-1.92 1.56,-3.24 v -0.84 h -2.52 -2.28 l -0.96,-4.56 h 8.4 c 0.72,0 1.32,0.24 1.68,0.72 0.48,0.48 0.72,1.2 0.72,1.92 v 2.88 c 0,1.8 -0.48,3.48 -1.32,4.92 -0.96,1.32 -2.16,2.52 -3.72,3.24 -1.68,0.84 -3.48,1.2 -5.52,1.2 -2.04,0 -3.84,-0.48 -5.52,-1.32 z"
     fill="#000524"
     id="path19"
     style="stroke-width:0.75" />
</svg>
