
<svg width="2340" height="1560" stroke="#000" stroke-linecap="round" stroke-linejoin="round" xmlns="http://www.w3.org/2000/svg" xmlns:xlink="http://www.w3.org/1999/xlink">

<g id="banner" stroke="none">
<path d="m0 0h2340v1560h-2340z" fill="#fdbe01"/>
<path d="m0 0h1560v1560h-1560" fill="#fff"/>
<path d="m0 0h780v1560h-780z" fill="#f80000"/>
</g>
<path d="m1170 1232v-904" stroke="#fdbe01" stroke-width="4"/>
<clipPath id="trim_out">
<path d="m927 549h486v361a243 243 0 0 1-486 0z"/>
</clipPath>

<g id="back">
<path d="m1170 1232c-9-6-12-10-14-13-5-7-8-6-10-1-5-9-10-13-14-16-7 12-14 13-20 2-26-44-61-47-113-76-87-48-183-123-107-274-10-4-18-16-15-35 2-20-4-33-14-39-12-4-24-12-25-26-2-28 30-35 44-19 14 17 1 29-5 30 20-4 23-30 21-96-2-46-6-77-13-93 0 0 1 4 1 6 0 23-43 26-44-8 0-16 11-24 22-25 43-3 38-27 51-45 13-19 37-19 49 0 6 10 17 16 34 16 18 0 39-12 65-29l-21-74-26-14-15-54 78-18 32 24 4 44 21-2-10-15-2-54h46m-278 526v1-1" fill="#fdbe01" stroke-width="5"/>
<g fill="none">
<path d="m863 780c27 7 49-17 50-56 1-37-1-79-5-115-4-29-11-62-44-60m21 27c-2-5-7-11-15-11-9 0-14 11-8 20m15 180c-16 3-26-13-17-19 3-2 7-1 9 2" stroke-width="5"/>
<path d="m889 852c9 4 23 3 29-7m-40-7c9 8 23 6 34-3m-35-9c10 6 20 4 30-5m-29-6c9 5 18 3 25-5m-26-6c9 3 17 1 23-7m-26-3c12 1 21-3 26-13m-10-237c7 4 14 9 16 17m-9-23c4 2 11 6 14 10m-9-17c6 1 15 5 19 10m-15-18c7-3 17-1 26 4m-22-12c11-8 25-11 36 0m-54 339c6 5 5 14-2 28-54 103 10 202 166 261 24 10 52 24 68 50 7-8 16-8 20-8 5 0 8 1 8 5 1 10 7 19 18 24m-280-192c-19-41-21-97 4-109 20-8 37 16 25 34-9 13-24 5-20-3-2 6 6 11 11 4s0-15-8-15c-9 0-16 5-18 19-4 40 12 78 41 114m39-561c33 56 94-10 130-10 16 0 25 15 19 27-2-19-25-21-31-9-8 18 7 32 21 32 19 0 32-17 23-40-10-26-43-26-65-12m-5 650c-35-15-77-36-106-66-11-14-11-23-4-28 11-7 13 13 3 10 3 1 11 2 12-6 2-17-17-23-26-14-11 11-4 32 15 48" stroke-width="4"/>
<path d="m1008 353 17-4 5 21-17 4zm21-5 46-10 3 21-44 10zm51-9 26 19 1 15-24-14zm4 25 24 14 2 20-23-14zm-5 0 3 20-14 3-4-20zm-20 4-44 11 6 20 42-11zm3 26 17 11-33 8-19-10zm7-2 17 11 20-3-20-12zm101 31s-22 0-33 1l-2-19c11-1 35-1 35-1m-97 30-5-20c20-5 40-8 60-9l2 19c-21 2-38 5-57 10zm-19 6-5-20 13-4 5 20zm57 11-2-18c18-3 38-4 58-4v17c-20 0-38 2-56 5zm-50 13-5-18c15-5 29-9 45-12l3 18c-16 3-30 7-43 12zm6 20-4-14c31-12 63-17 102-18l-8 15c-33 2-64 6-90 17z" stroke-width="2"/>
</g>
</g>
<use transform="matrix(-1,0,0,1,2340,0)" xlink:href="#back"/>

<path d="m1131 334v20h20v-20zm25 0v20h52v-20zm52 24v21h-20v-21zm-26 0v21h-51v-21zm-48 26h48l-1 14h-39zm73 0h-19l-3 14h13z" fill="none" stroke-width="2"/>

<g id="shield" clip-path="url(#trim_out)" fill="none">
<path d="m927 549h486v361a243 243 0 0 1-486 0z" fill="#f80000" stroke-width="34"/>
<path d="m927 549h486v361a243 243 0 0 1-486 0z" stroke="#fdbe01" stroke-width="24"/>
<path d="m927 549h486v361a243 243 0 0 1-486 0z" stroke-width="10"/>
</g>

<path d="m1204 684a34 34 0 1 0 0 .1zm-12 0a22 22 0 1 0 0 .1z" fill="#fff" fill-rule="evenodd" stroke-width="5"/>
<g id="anchor" fill="#fff" stroke-width="5">
<path d="m1153 924c-9 12-23 17-38 17-18 0-33-7-42-24-3 4-5 7-7 13-6-20-6-39-7-62 6 12 19 25 32 35-6 1-8 2-10 5 21 36 79 20 75-38"/>
<path d="m1160 721v-18c0-7 10-7 10 0v18z"/>
<path d="m1170 930c-3 38-42 67-65 67-12 2-47-7-62-33-5 7-7 10-9 16-6-26-9-50-9-76 14 23 27 32 43 44-6 0-11 1-15 5 30 44 102 35 103-55l-9-177h35"/>
</g>
<use transform="matrix(-1,0,0,1,2340,0)" xlink:href="#anchor"/>


<g id="star" stroke-width="2">
<path d="m1217 489-47 15 23 8zm-18 55-29-40v24zm-58 0 29-40-23 8zm-18-55 47 15-14-19zm47-34v49l14-19z"/>
<path d="m1217 489-47 15 14-19zm-18 55-29-40 23 8zm-58 0 29-40v24zm-18-55 47 15-23 8zm47-34v49l-14-19z" fill="none"/>
</g>
<circle cx="1170" cy="1190" r="12" fill="none" stroke-width="4"/>
</svg>
