<?xml version="1.0" encoding="UTF-8" standalone="no"?>
<!-- Created with Inkscape (http://www.inkscape.org/) -->
<svg
   xmlns:dc="http://purl.org/dc/elements/1.1/"
   xmlns:cc="http://web.resource.org/cc/"
   xmlns:rdf="http://www.w3.org/1999/02/22-rdf-syntax-ns#"
   xmlns:svg="http://www.w3.org/2000/svg"
   xmlns="http://www.w3.org/2000/svg"
   xmlns:sodipodi="http://sodipodi.sourceforge.net/DTD/sodipodi-0.dtd"
   xmlns:inkscape="http://www.inkscape.org/namespaces/inkscape"
   width="1000"
   height="600"
   id="svg2894"
   sodipodi:version="0.32"
   inkscape:version="0.44"
   version="1.0"
   sodipodi:docbase="C:\Documents and Settings\David Nelson\Archives\Svg"
   sodipodi:docname="Flag_of_the_Unrepresented_Nations_and_People's_Organisation.svg">
  <defs
     id="defs2896" />
  <sodipodi:namedview
     id="base"
     pagecolor="#ffffff"
     bordercolor="#666666"
     borderopacity="1.0"
     gridtolerance="10000"
     guidetolerance="10"
     objecttolerance="8.5"
     inkscape:pageopacity="0.0"
     inkscape:pageshadow="2"
     inkscape:zoom="0.62833333"
     inkscape:cx="500"
     inkscape:cy="300"
     inkscape:document-units="px"
     inkscape:current-layer="layer1"
     width="1000px"
     height="600px"
     inkscape:window-width="853"
     inkscape:window-height="573"
     inkscape:window-x="41"
     inkscape:window-y="26"
     inkscape:object-points="true"
     inkscape:object-nodes="true"
     inkscape:object-paths="false" />
  <metadata
     id="metadata2899">
    <rdf:RDF>
      <cc:Work
         rdf:about="">
        <dc:format>image/svg+xml</dc:format>
        <dc:type
           rdf:resource="http://purl.org/dc/dcmitype/StillImage" />
      </cc:Work>
    </rdf:RDF>
  </metadata>
  <g
     inkscape:label="Layer 1"
     inkscape:groupmode="layer"
     id="layer1">
    <rect
       style="fill:#5b92e5;fill-opacity:1;fill-rule:nonzero;stroke:none;stroke-width:5;stroke-miterlimit:4;stroke-dasharray:none;stroke-opacity:1"
       id="rect3088"
       width="1000"
       height="600"
       x="0"
       y="0" />
    <path
       d="M 724,300 A 224,224 0 0 1 716.36738,357.97547 L 500,300 z"
       sodipodi:ry="224"
       sodipodi:rx="224"
       sodipodi:cy="300"
       sodipodi:cx="500"
       id="path2965"
       style="fill:#c00000;fill-opacity:1;fill-rule:nonzero;stroke:none;stroke-width:1.5;stroke-miterlimit:4;stroke-dasharray:none"
       sodipodi:type="arc"
       sodipodi:start="0"
       sodipodi:end="0.26179939" />
    <path
       sodipodi:end="0.52359878"
       sodipodi:start="0.26179939"
       sodipodi:type="arc"
       style="fill:#c00030;fill-opacity:1;fill-rule:nonzero;stroke:none;stroke-width:1.5;stroke-miterlimit:4;stroke-dasharray:none"
       id="path2967"
       sodipodi:cx="500"
       sodipodi:cy="300"
       sodipodi:rx="224"
       sodipodi:ry="224"
       d="M 716.36738,357.97547 A 224,224 0 0 1 693.98969,412 L 500,300 z" />
    <path
       sodipodi:end="0.78539816"
       sodipodi:start="0.52359878"
       sodipodi:type="arc"
       style="fill:#c00060;fill-opacity:1;fill-rule:nonzero;stroke:none;stroke-width:1.5;stroke-miterlimit:4;stroke-dasharray:none"
       id="path2969"
       sodipodi:cx="500"
       sodipodi:cy="300"
       sodipodi:rx="224"
       sodipodi:ry="224"
       d="M 693.98969,412 A 224,224 0 0 1 658.39192,458.39192 L 500,300 z" />
    <path
       d="M 658.39192,458.39192 A 224,224 0 0 1 611.99999,493.9897 L 500,300 z"
       sodipodi:ry="224"
       sodipodi:rx="224"
       sodipodi:cy="300"
       sodipodi:cx="500"
       id="path2971"
       style="fill:#c00090;fill-opacity:1;fill-rule:nonzero;stroke:none;stroke-width:1.5;stroke-miterlimit:4;stroke-dasharray:none"
       sodipodi:type="arc"
       sodipodi:start="0.78539816"
       sodipodi:end="1.0471976" />
    <path
       d="M 611.99999,493.9897 A 224,224 0 0 1 557.97547,516.36738 L 500,300 z"
       sodipodi:ry="224"
       sodipodi:rx="224"
       sodipodi:cy="300"
       sodipodi:cx="500"
       id="path2973"
       style="fill:#c000c0;fill-opacity:1;fill-rule:nonzero;stroke:none;stroke-width:1.5;stroke-miterlimit:4;stroke-dasharray:none"
       sodipodi:type="arc"
       sodipodi:start="1.0471976"
       sodipodi:end="1.3089969" />
    <path
       sodipodi:end="1.5707963"
       sodipodi:start="1.3089969"
       sodipodi:type="arc"
       style="fill:#9000c0;fill-opacity:1;fill-rule:nonzero;stroke:none;stroke-width:1.5;stroke-miterlimit:4;stroke-dasharray:none"
       id="path2975"
       sodipodi:cx="500"
       sodipodi:cy="300"
       sodipodi:rx="224"
       sodipodi:ry="224"
       d="M 557.97547,516.36738 A 224,224 0 0 1 500.00001,524 L 500,300 z" />
    <path
       sodipodi:end="1.8325957"
       sodipodi:start="1.5707963"
       sodipodi:type="arc"
       style="fill:#6000c0;fill-opacity:1;fill-rule:nonzero;stroke:none;stroke-width:1.5;stroke-miterlimit:4;stroke-dasharray:none"
       id="path2977"
       sodipodi:cx="500"
       sodipodi:cy="300"
       sodipodi:rx="224"
       sodipodi:ry="224"
       d="M 500.00001,524 A 224,224 0 0 1 442.02454,516.36739 L 500,300 z" />
    <path
       d="M 442.02454,516.36739 A 224,224 0 0 1 388,493.98969 L 500,300 z"
       sodipodi:ry="224"
       sodipodi:rx="224"
       sodipodi:cy="300"
       sodipodi:cx="500"
       id="path2979"
       style="fill:#3000c0;fill-opacity:1;fill-rule:nonzero;stroke:none;stroke-width:1.5;stroke-miterlimit:4;stroke-dasharray:none"
       sodipodi:type="arc"
       sodipodi:start="1.8325957"
       sodipodi:end="2.0943951" />
    <path
       d="M 388,493.98969 A 224,224 0 0 1 341.60808,458.39192 L 500,300 z"
       sodipodi:ry="224"
       sodipodi:rx="224"
       sodipodi:cy="300"
       sodipodi:cx="500"
       id="path2983"
       style="fill:#0000c0;fill-opacity:1;fill-rule:nonzero;stroke:none;stroke-width:1.5;stroke-miterlimit:4;stroke-dasharray:none"
       sodipodi:type="arc"
       sodipodi:start="2.0943951"
       sodipodi:end="2.3561945" />
    <path
       sodipodi:end="2.6179939"
       sodipodi:start="2.3561945"
       sodipodi:type="arc"
       style="fill:#0030c0;fill-opacity:1;fill-rule:nonzero;stroke:none;stroke-width:1.5;stroke-miterlimit:4;stroke-dasharray:none"
       id="path2985"
       sodipodi:cx="500"
       sodipodi:cy="300"
       sodipodi:rx="224"
       sodipodi:ry="224"
       d="M 341.60808,458.39192 A 224,224 0 0 1 306.01031,412 L 500,300 z" />
    <path
       sodipodi:end="2.8797933"
       sodipodi:start="2.6179939"
       sodipodi:type="arc"
       style="fill:#0060c0;fill-opacity:1;fill-rule:nonzero;stroke:none;stroke-width:1.5;stroke-miterlimit:4;stroke-dasharray:none"
       id="path2989"
       sodipodi:cx="500"
       sodipodi:cy="300"
       sodipodi:rx="224"
       sodipodi:ry="224"
       d="M 306.01031,412 A 224,224 0 0 1 283.63261,357.97546 L 500,300 z" />
    <path
       d="M 283.63261,357.97546 A 224,224 0 0 1 276,299.99999 L 500,300 z"
       sodipodi:ry="224"
       sodipodi:rx="224"
       sodipodi:cy="300"
       sodipodi:cx="500"
       id="path2991"
       style="fill:#0090c0;fill-opacity:1;fill-rule:nonzero;stroke:none;stroke-width:1.5;stroke-miterlimit:4;stroke-dasharray:none"
       sodipodi:type="arc"
       sodipodi:start="2.8797933"
       sodipodi:end="3.1415927" />
    <path
       d="M 276,299.99999 A 224,224 0 0 1 283.63261,242.02454 L 500,300 z"
       sodipodi:ry="224"
       sodipodi:rx="224"
       sodipodi:cy="300"
       sodipodi:cx="500"
       id="path2993"
       style="fill:#00c0c0;fill-opacity:1;fill-rule:nonzero;stroke:none;stroke-width:1.5;stroke-miterlimit:4;stroke-dasharray:none"
       sodipodi:type="arc"
       sodipodi:start="3.1415927"
       sodipodi:end="3.403392" />
    <path
       sodipodi:end="3.6651914"
       sodipodi:start="3.403392"
       sodipodi:type="arc"
       style="fill:#00c090;fill-opacity:1;fill-rule:nonzero;stroke:none;stroke-width:1.5;stroke-miterlimit:4;stroke-dasharray:none"
       id="path2995"
       sodipodi:cx="500"
       sodipodi:cy="300"
       sodipodi:rx="224"
       sodipodi:ry="224"
       d="M 283.63261,242.02454 A 224,224 0 0 1 306.01031,188.00001 L 500,300 z" />
    <path
       sodipodi:end="3.9269908"
       sodipodi:start="3.6651914"
       sodipodi:type="arc"
       style="fill:#00c060;fill-opacity:1;fill-rule:nonzero;stroke:none;stroke-width:1.5;stroke-miterlimit:4;stroke-dasharray:none"
       id="path2997"
       sodipodi:cx="500"
       sodipodi:cy="300"
       sodipodi:rx="224"
       sodipodi:ry="224"
       d="M 306.01031,188.00001 A 224,224 0 0 1 341.60808,141.60808 L 500,300 z" />
    <path
       d="M 341.60808,141.60808 A 224,224 0 0 1 388,106.01031 L 500,300 z"
       sodipodi:ry="224"
       sodipodi:rx="224"
       sodipodi:cy="300"
       sodipodi:cx="500"
       id="path2999"
       style="fill:#00c030;fill-opacity:1;fill-rule:nonzero;stroke:none;stroke-width:1.5;stroke-miterlimit:4;stroke-dasharray:none"
       sodipodi:type="arc"
       sodipodi:start="3.9269908"
       sodipodi:end="4.1887902" />
    <path
       d="M 388,106.01031 A 224,224 0 0 1 442.02454,83.632614 L 500,300 z"
       sodipodi:ry="224"
       sodipodi:rx="224"
       sodipodi:cy="300"
       sodipodi:cx="500"
       id="path3001"
       style="fill:#00c000;fill-opacity:1;fill-rule:nonzero;stroke:none;stroke-width:1.5;stroke-miterlimit:4;stroke-dasharray:none"
       sodipodi:type="arc"
       sodipodi:start="4.1887902"
       sodipodi:end="4.4505896" />
    <path
       sodipodi:end="4.712389"
       sodipodi:start="4.4505896"
       sodipodi:type="arc"
       style="fill:#30c000;fill-opacity:1;fill-rule:nonzero;stroke:none;stroke-width:1.5;stroke-miterlimit:4;stroke-dasharray:none"
       id="path3003"
       sodipodi:cx="500"
       sodipodi:cy="300"
       sodipodi:rx="224"
       sodipodi:ry="224"
       d="M 442.02454,83.632614 A 224,224 0 0 1 500,76 L 500,300 z" />
    <path
       sodipodi:end="4.9741884"
       sodipodi:start="4.712389"
       sodipodi:type="arc"
       style="fill:#60c000;fill-opacity:1;fill-rule:nonzero;stroke:none;stroke-width:1.5;stroke-miterlimit:4;stroke-dasharray:none"
       id="path3005"
       sodipodi:cx="500"
       sodipodi:cy="300"
       sodipodi:rx="224"
       sodipodi:ry="224"
       d="M 500,76 A 224,224 0 0 1 557.97547,83.632617 L 500,300 z" />
    <path
       d="M 557.97547,83.632617 A 224,224 0 0 1 612.00001,106.01031 L 500,300 z"
       sodipodi:ry="224"
       sodipodi:rx="224"
       sodipodi:cy="300"
       sodipodi:cx="500"
       id="path3007"
       style="fill:#90c000;fill-opacity:1;fill-rule:nonzero;stroke:none;stroke-width:1.5;stroke-miterlimit:4;stroke-dasharray:none"
       sodipodi:type="arc"
       sodipodi:start="4.9741884"
       sodipodi:end="5.2359878" />
    <path
       d="M 612.00001,106.01031 A 224,224 0 0 1 658.39191,141.60807 L 500,300 z"
       sodipodi:ry="224"
       sodipodi:rx="224"
       sodipodi:cy="300"
       sodipodi:cx="500"
       id="path3009"
       style="fill:#c0c000;fill-opacity:1;fill-rule:nonzero;stroke:none;stroke-width:1.5;stroke-miterlimit:4;stroke-dasharray:none"
       sodipodi:type="arc"
       sodipodi:start="5.2359878"
       sodipodi:end="5.4977871" />
    <path
       sodipodi:end="5.7595865"
       sodipodi:start="5.4977871"
       sodipodi:type="arc"
       style="fill:#c09000;fill-opacity:1;fill-rule:nonzero;stroke:none;stroke-width:1.5;stroke-miterlimit:4;stroke-dasharray:none"
       id="path3011"
       sodipodi:cx="500"
       sodipodi:cy="300"
       sodipodi:rx="224"
       sodipodi:ry="224"
       d="M 658.39191,141.60807 A 224,224 0 0 1 693.98969,187.99999 L 500,300 z" />
    <path
       sodipodi:end="6.0213859"
       sodipodi:start="5.7595865"
       sodipodi:type="arc"
       style="fill:#c06000;fill-opacity:1;fill-rule:nonzero;stroke:none;stroke-width:1.5;stroke-miterlimit:4;stroke-dasharray:none"
       id="path3013"
       sodipodi:cx="500"
       sodipodi:cy="300"
       sodipodi:rx="224"
       sodipodi:ry="224"
       d="M 693.98969,187.99999 A 224,224 0 0 1 716.36738,242.02453 L 500,300 z" />
    <path
       d="M 716.36738,242.02453 A 224,224 0 0 1 724,300 L 500,300 z"
       sodipodi:ry="224"
       sodipodi:rx="224"
       sodipodi:cy="300"
       sodipodi:cx="500"
       id="path3015"
       style="fill:#c03000;fill-opacity:1;fill-rule:nonzero;stroke:none;stroke-width:1.5;stroke-miterlimit:4;stroke-dasharray:none"
       sodipodi:type="arc"
       sodipodi:start="6.0213859"
       sodipodi:end="6.2831853" />
    <path
       sodipodi:type="arc"
       style="fill:#5b92e5;fill-opacity:1;fill-rule:nonzero;stroke:none;stroke-width:1.5;stroke-miterlimit:4;stroke-dasharray:none"
       id="path2963"
       sodipodi:cx="500"
       sodipodi:cy="300"
       sodipodi:rx="160"
       sodipodi:ry="160"
       d="M 660 300 A 160 160 0 1 1  340,300 A 160 160 0 1 1  660 300 z" />
    <path
       style="fill:none;fill-opacity:0.75;fill-rule:evenodd;stroke:white;stroke-width:5;stroke-linecap:butt;stroke-linejoin:miter;stroke-miterlimit:4;stroke-dasharray:none;stroke-opacity:1"
       d="M 276,300 L 724,300"
       id="path3017" />
    <path
       id="path3019"
       d="M 500,76 L 500,524"
       style="fill:none;fill-opacity:0.75;fill-rule:evenodd;stroke:white;stroke-width:5;stroke-linecap:butt;stroke-linejoin:miter;stroke-miterlimit:4;stroke-dasharray:none;stroke-opacity:1" />
    <path
       style="fill:none;fill-opacity:0.75;fill-rule:evenodd;stroke:white;stroke-width:5;stroke-linecap:butt;stroke-linejoin:miter;stroke-miterlimit:4;stroke-dasharray:none;stroke-opacity:1"
       d="M 276,300 L 340,300"
       id="path3027"
       transform="matrix(0.965926,-0.258819,0.258819,0.965926,-60.60852,139.6318)" />
    <path
       transform="matrix(0.707107,-0.707107,0.707107,0.707107,-65.68519,441.421)"
       id="path3031"
       d="M 276,300 L 340,300"
       style="fill:none;fill-opacity:0.75;fill-rule:evenodd;stroke:white;stroke-width:5;stroke-linecap:butt;stroke-linejoin:miter;stroke-miterlimit:4;stroke-dasharray:none;stroke-opacity:1" />
    <path
       style="fill:none;fill-opacity:0.75;fill-rule:evenodd;stroke:white;stroke-width:5;stroke-linecap:butt;stroke-linejoin:miter;stroke-miterlimit:4;stroke-dasharray:none;stroke-opacity:1"
       d="M 276,300 L 340,300"
       id="path3035"
       transform="matrix(0.258819,-0.965926,0.965926,0.258819,80.81289,705.3165)" />
    <path
       transform="matrix(-0.258819,-0.965926,0.965926,-0.258819,339.6324,860.6081)"
       id="path3037"
       d="M 276,300 L 340,300"
       style="fill:none;fill-opacity:0.75;fill-rule:evenodd;stroke:white;stroke-width:5;stroke-linecap:butt;stroke-linejoin:miter;stroke-miterlimit:4;stroke-dasharray:none;stroke-opacity:1" />
    <path
       style="fill:none;fill-opacity:0.75;fill-rule:evenodd;stroke:white;stroke-width:5;stroke-linecap:butt;stroke-linejoin:miter;stroke-miterlimit:4;stroke-dasharray:none;stroke-opacity:1"
       d="M 276,300 L 340,300"
       id="path3041"
       transform="matrix(-0.707107,-0.707107,0.707107,-0.707107,641.4216,865.6848)" />
    <path
       transform="matrix(-0.965926,-0.258819,0.258819,-0.965926,905.3171,719.1867)"
       id="path3045"
       d="M 276,300 L 340,300"
       style="fill:none;fill-opacity:0.75;fill-rule:evenodd;stroke:white;stroke-width:5;stroke-linecap:butt;stroke-linejoin:miter;stroke-miterlimit:4;stroke-dasharray:none;stroke-opacity:1" />
    <path
       style="fill:none;fill-opacity:0.75;fill-rule:evenodd;stroke:white;stroke-width:5;stroke-linecap:butt;stroke-linejoin:miter;stroke-miterlimit:4;stroke-dasharray:none;stroke-opacity:1"
       d="M 276,300 L 340,300"
       id="path3047"
       transform="matrix(-0.965926,0.258819,-0.258819,-0.965926,1060.609,460.368)" />
    <path
       transform="matrix(-0.707107,0.707107,-0.707107,-0.707107,1065.685,158.5788)"
       id="path3051"
       d="M 276,300 L 340,300"
       style="fill:none;fill-opacity:0.75;fill-rule:evenodd;stroke:white;stroke-width:5;stroke-linecap:butt;stroke-linejoin:miter;stroke-miterlimit:4;stroke-dasharray:none;stroke-opacity:1" />
    <path
       style="fill:none;fill-opacity:0.75;fill-rule:evenodd;stroke:white;stroke-width:5;stroke-linecap:butt;stroke-linejoin:miter;stroke-miterlimit:4;stroke-dasharray:none;stroke-opacity:1"
       d="M 276,300 L 340,300"
       id="path3055"
       transform="matrix(-0.258819,0.965926,-0.965926,-0.258819,919.1873,-105.3167)" />
    <path
       transform="matrix(0.258819,0.965926,-0.965926,0.258819,660.3694,-260.6086)"
       id="path3057"
       d="M 276,300 L 340,300"
       style="fill:none;fill-opacity:0.75;fill-rule:evenodd;stroke:white;stroke-width:5;stroke-linecap:butt;stroke-linejoin:miter;stroke-miterlimit:4;stroke-dasharray:none;stroke-opacity:1" />
    <path
       style="fill:none;fill-opacity:0.75;fill-rule:evenodd;stroke:white;stroke-width:5;stroke-linecap:butt;stroke-linejoin:miter;stroke-miterlimit:4;stroke-dasharray:none;stroke-opacity:1"
       d="M 276,300 L 340,300"
       id="path3061"
       transform="matrix(0.707107,0.707107,-0.707107,0.707107,358.5802,-265.6846)" />
    <path
       transform="matrix(0.965926,0.258819,-0.258819,0.965926,94.6847,-119.1869)"
       id="path3065"
       d="M 276,300 L 340,300"
       style="fill:none;fill-opacity:0.75;fill-rule:evenodd;stroke:white;stroke-width:5;stroke-linecap:butt;stroke-linejoin:miter;stroke-miterlimit:4;stroke-dasharray:none;stroke-opacity:1" />
    <path
       id="path3053"
       style="fill:none;fill-opacity:0.75;fill-rule:evenodd;stroke:white;stroke-width:5;stroke-linecap:butt;stroke-linejoin:miter;stroke-miterlimit:4;stroke-opacity:1"
       d="M 612.0005,106.0106 C 580.0005,161.4362 611.9984,106.0103 580.0005,161.4362 C 560.73157,194.81332 539.04797,211.94126 500,211.94126 C 460.95203,211.94126 439.26843,194.81332 419.9995,161.4362 C 388.0016,106.0103 419.9995,161.4362 387.9995,106.0106 M 693.9901,188.0002 C 638.5645,220.0002 693.98969,188.00001 638.5645,220.0002 C 598.6675,243.03506 548.94761,257.00005 500,257.00005 C 451.05239,257.00005 401.3325,243.03506 361.4355,220.0002 C 306.01031,188.00001 361.4355,220.0002 306.0099,188.0002"
       sodipodi:nodetypes="cszsccszsc" />
    <path
       sodipodi:nodetypes="cszsccszsc"
       d="M 612.0005,106.0106 C 580.0005,161.4362 611.9984,106.0103 580.0005,161.4362 C 560.73157,194.81332 539.04797,211.94126 500,211.94126 C 460.95203,211.94126 439.26843,194.81332 419.9995,161.4362 C 388.0016,106.0103 419.9995,161.4362 387.9995,106.0106 M 693.9901,188.0002 C 638.5645,220.0002 693.98969,188.00001 638.5645,220.0002 C 598.6675,243.03506 548.94761,257.00005 500,257.00005 C 451.05239,257.00005 401.3325,243.03506 361.4355,220.0002 C 306.01031,188.00001 361.4355,220.0002 306.0099,188.0002"
       style="fill:none;fill-opacity:0.75;fill-rule:evenodd;stroke:white;stroke-width:5;stroke-linecap:butt;stroke-linejoin:miter;stroke-miterlimit:4;stroke-opacity:1"
       id="path1931"
       transform="matrix(1,0,0,-1,0,600)" />
  </g>
</svg>
