<?xml version="1.0" encoding="UTF-8"?>
<!-- Created with Inkscape (http://www.inkscape.org/) -->
<svg id="flag_Anchorage" width="900" height="600" version="1.0" xmlns="http://www.w3.org/2000/svg" xmlns:cc="http://creativecommons.org/ns#" xmlns:dc="http://purl.org/dc/elements/1.1/" xmlns:rdf="http://www.w3.org/1999/02/22-rdf-syntax-ns#">
 <metadata id="metadata1">
  <rdf:RDF>
   <cc:Work rdf:about="">
    <dc:format>image/svg+xml</dc:format>
    <dc:type rdf:resource="http://purl.org/dc/dcmitype/StillImage"/>
   </cc:Work>
  </rdf:RDF>
 </metadata>
 <rect id="rect1" width="900" height="600" style="fill-rule:evenodd;fill:#f5dc0f"/>
 <g id="design">
  <g id="emblem">
   <circle id="blue2" cx="450" cy="300.078" r="177.65" style="fill-rule:evenodd;fill:#002673"/>
   <circle id="white2" cx="450" cy="300.078" r="171.578" style="fill-rule:evenodd;fill:#ffffff"/>
   <circle id="blue1" cx="450" cy="300.078" r="163.588" style="fill-rule:evenodd;fill:#002673"/>
   <circle id="white1" cx="450" cy="300.078" r="158.475" style="fill-rule:evenodd;fill:#ffffff"/>
   <path id="aircraft" d="m516.181 247.747-4.259 0.4203 6.72469 7.4253c-0.57108 0.25341-0.94893 0.4269-1.31693 0.67248v1.8213c-4.72609 0.34607-9.74615 1.52257-15.7192 4.56726-1.68159 0.85716-2.51803 2.3268 0.47637 3.02616 9.56197 2.23326 23.2854 2.41638 34.8288 1.84932l1.54115 0.33624c-0.53183 0.19774-0.8673 0.39801-1.20489 0.61643v2.18557c1.87169 1.10956 5.29772 1.34477 8.2939 1.1208v2.07347c3.20831 1.902 11.0004 1.33829 13.3376 0.0281 0.85835-0.48123 1.16161-0.99107 1.28887-1.51308l15.1588 3.16626 2.88615-2.57784-21.9117-6.36054 6.30446-0.19614 9.91913-2.04546 5.07162 1.93338 1.76523-1.73723-2.54978-1.76526 0.56034-2.99814 4.14695-5.80014c1.03582-1.44406 0.57444-3.01583-1.03671-3.02616l-6.24843-0.056 1.09273 1.40101c0.31568 0.40919 0.27452 0.74417-0.11205 1.1208l-5.43582 5.29577-1.84933-1.45704-4.11899 0.36427 1.09284 1.31693-31.6066-0.72851-0.39227-0.22416c-0.89157-1.46454-2.67592-2.53658-4.48321-2.74597z" style="fill-rule:evenodd;fill:#002673"/>
   <circle id="sun" cx="349.891" cy="262.25" r="19.3738" style="fill-rule:evenodd;fill:#f5dc0f"/>
   <path id="ship" d="m418.756 226.704-0.0841 8.91036h-14.2342c-3.89363 0-7.35225 6.05048-7.42531 9.55482-0.0555 2.65872 1.27274 6.37616 6.55668 6.27648l14.9627-0.2802v2.12952l-8.43401 0.22416c-2.35 0.0599-4.2524 1.22582-5.71608 4.17497-25.1232 23.7276-49.9124 49.521-72.0114 75.4578l-0.16812-0.056c-1.34452-0.43448-1.79829 1.22626-0.67248 1.59713l21.1271 6.97699v1.93337c0 1.35948 0.87246 1.5597 1.6812 1.73725l36.5381 11.6843v1.20485h-5.51993l1.1208 6.50064c0.40429 2.33917 1.22674 4.65717 3.67062 6.47262l5.604 4.17498c1.46926 1.09147 2.97389 1.99118 4.73538 5.43588l3.61458 7.03301c0.57363 1.16158 2.08653 2.25767 3.97884 1.1208 6.66841-4.00627 11.1245-5.6473 15.9994-6.02429 6.02495-0.46594 12.1309-0.40185 18.4372 1.48505l14.4022 4.28707c7.66344 3.06298 15.2288 3.31494 22.5281 0.47633l14.2622-5.54796c6.3795-2.48093 13.2576-2.8216 19.8942-0.33624 0.79036 0.29601 1.74343 0.87399 2.49376-0.33624l2.4658-4.00686c0.77527-1.25042 1.49675-1.70544 3.83877-3.75467l3.22229-2.802c1.64055-1.43551 2.32972-3.24521 3.02615-5.51994l1.20478-3.9228c0.42906-1.4014 1.23922-2.23085 3.44649-3.75468l4.79139-3.30635c0.45881-0.3167 0.72852-0.52473 0.72852-0.89665v-2.10149h-1.56909v-0.98071c0-0.76262-0.48677-0.72852-0.84058-0.72852h-6.38855l12.3007-28.104c0.38523-0.12738 0.74921-0.41192 0.92466-0.81258 0.32798-0.74889-0.0358-1.60548-0.78455-1.93338-0.18719-0.082-0.39663-0.13551-0.58841-0.14011-0.57544-0.0137-1.12706 0.30696-1.37296 0.86863-0.17545 0.40066-0.16773 0.83537 0 1.20486l-1.82137 4.203c-2.92003-1.48779-6.98401-2.64667-15.0747-2.6619-4.89639-9e-3 -9.34112-0.48724-12.3288-2.40972-4.976 1.77618-5.35654 4.9561-5.99627 8.01372-0.85388 4.08152-2.2709 6.69812-4.84741 7.67748-0.26268-2.25027-0.9893-4.71622-2.26967-7.45332-0.91192-1.9497-1.67679-4.03518-0.64444-5.91222l0.86864-1.59714c1.1889-2.16162 0.59445-5.30645-0.64443-7.76154l5.54787-3.05418c3.26399-1.79756 5.00373-6.14467 4.87558-12.0206 3.09828-1.29207 5.21162-3.87704 5.21162-6.78084v-3.36239c3.41339 0.0491 5.99628-3.15285 5.99628-6.50065v-5.51993c0-1.55472 0.0436-3.00294 1.03682-3.9228l-1.4291-1.03675-18.9414 24.1532c-8.71849-5.88508-11.0654-23.468 0.2241-45.1682l-8.518 0.22416-0.22421-24.6856h-4.25899l-0.22421 24.7977-10.2553 0.28021c-12.5632 9.51229-14.9782 27.3273-9.69493 42.4223 1.45973 4.17065 4.29086 4.74706 7.48128 5.18371l12.0766-0.33624-0.47637 53.8264h-20.0343l-3.69866 3.02617h-12.8051l-0.0839-2.99814h-25.4422l-0.0281-3.95083c3.57247 0.76598 7.28115 0.14996 10.8437-1.03674-8.43986-10.5352-7.62808-14.6103-7.8456-19.3898-0.28034-8.95532 2.94043-14.7648 6.64074-19.5299l-10.0031 0.2802-0.028-2.71794 9.44274-0.25218c-8.91058-17.0278-10.6979-34.0137-5.0436-51.0244 0.39794-1.1972 0.57054-2.23383-0.22416-2.21358l-4.65132 0.11208-0.1401-16.812c0.75289-0.29537 1.50984-0.53707 2.2416-0.75654h-2.2416l-0.0841-8.91035zm27.2635 7.45332c-4.4293 0.1561-7.24859 3.05128-9.05051 6.69678-2.62034 5.30134 2.36104 9.7746 7.78959 9.63888l19.2217-0.50436c-6.89734-7.43316-1.35551-12.2843 3.83877-15.8313h-20.9029c-0.30974-0.0147-0.60138-0.0101-0.89659 0zm-27.3756 4.39914-0.0841 11.5162c-3.70922-1.30813-6.04584-2.45597-5.63203-4.95953 0.40372-2.44251 2.75689-4.75042 5.71608-6.55669zm47.5499 13.4496-21.1831 0.53238c-4.05402 0.0975-5.77307-0.14458-8.15383 3.61458-13.9914 22.0924-6.13512 42.6634 1.70923 50.0437l33.7921-0.98069c-18.6678-12.7559-13.7766-39.2087-6.16446-53.21zm-62.6527 7.73352c-2.54762 6.49239-4.87009 13.3657-5.91222 21.7435-3.6683 4.20005-7.16772 8.4582-10.3114 12.8332 2.49946-16.2381 8.95688-27.3826 16.2236-34.5767zm-6.47262 29.393c-0.0765 3.24513 0.0143 6.6985 0.36427 10.4234 0.39031 4.15543 1.23187 7.6654 6.02429 7.53737l14.5984-0.39227-0.0281 2.71793-9.86304 0.28021c-11.0096 2.59277-15.9047 9.60085-16.6439 15.5511-0.77101 6.20681 0.0793 12.3865 8.57412 13.5337 1.51809 0.20499 2.16661 0.59067 2.63388 1.84932 1.30984 3.52831 3.33157 8.06758 12.3288 4.79142 0.84733-0.30854 1.58216-0.28046 2.63388 0.39228l-0.056 7.08907h-7.22915v2.60585h-8.65818c-17.0009-19.0232-17.5887-42.1445-4.67934-66.3794zm101.096 9.58284-5.94026 7.5654-0.0559-7.39728zm-22.2478 9.16254-34.6328 0.95268c-17.2208 13.663-14.5443 30.4123 7.2572 40.3768 17.4774 6.02932 26.5352 2.24694 34.8569-2.60586-15.4547-12.5517-14.6976-25.9122-7.48128-38.7236zm62.0643 20.1744-6.9489 15.8593c-1.5739-6.56903 0.34274-12.7512 6.9489-15.8593zm-181.177 0.11208c1.96486-0.0158 3.93671 0.0739 5.91222 0.28019-2.29006 3.65088-4.72432 7.48727-7.67748 12.0206l-21.3792-6.89292c7.00218-3.39003 14.9774-5.34218 23.1445-5.40785zm10.7597 9.83502c11.4295-0.39336 23.6273 8.58818 32.3911 17.5125h-2.29763l-39.7604-12.8612c0.10388-0.46319 0.21567-1.06885-0.47634-1.40101 3.22029-2.13861 6.65123-3.13014 10.1432-3.25031zm132.983 0.72851c2.36987 1.79747 7.27207 2.31619 14.3462 2.04547 9.28644-0.3554 13.1431 1.91683 15.4671 4.70735l-2.49376 5.71608h-32.8395v-1.51307c3.56503-2.85007 5.5898-6.39843 5.51991-10.9558z" style="fill-rule:evenodd;fill:#f5dc0f"/>
   <path id="wave" d="m427.582 391.377c-11.8342-0.17128-22.4123 4.59923-29.0567 12.1046l4.70736 4.17498c7.09723-8.01689 20.3808-12.6485 34.6888-8.34996l18.6613 5.604c10.0607 3.02249 19.2012 4.44579 28.6084 0.25218l13.2815-5.94024c5.01347-2.23495 12.2997-2.17038 21.5474 2.21358l2.6899-5.66004c-10.3932-4.92703-19.677-5.43916-26.7872-2.26961l-13.3095 5.91221c-7.59322 3.38496-14.6226 2.35612-24.2373-0.53238l-18.6333-5.60399c-4.1301-1.2408-8.21595-1.84828-12.1607-1.90536z" style="fill-rule:evenodd;fill:#f5dc0f"/>
   <path id="anchor" d="m449.998 149.845c-14.76 0-26.731 11.9711-26.7311 26.7311 0 12.7352 8.921 23.4241 20.8468 26.1146v11.5723h-94.2032l-16.756 17.4284h110.959v158.089c0 17.606-7.97916 26.4099-14.4583 31.0181-9.20927 6.55007-21.0843 7.84131-31.6626 3.25033-31.0131-13.4598-53.4277-34.4394-68.3408-64.7822 10.6666 4.82783 22.1795 7.24619 33.8482 7.06105-25.1419-18.9547-47.4265-41.0846-59.8507-74.0288-0.14468 2.72647-0.19614 5.05924-0.19614 7.78956 0 80.8915 65.6531 146.545 146.657 146.545 81.0035 0 146.657-65.6531 146.657-146.545 0-2.73032-0.0514-5.06309-0.19614-7.78956-12.4242 32.9442-34.7088 55.0741-59.8507 74.0288 11.6686 0.18516 23.1816-2.2332 33.8482-7.06105-14.9131 30.3429-37.2996 51.3224-68.3128 64.7822-10.5782 4.591-22.4532 3.29974-31.6625-3.25033-6.47913-4.60825-14.4863-13.4122-14.4863-31.0181v-158.089h110.735l-16.756-17.4284h-93.979v-11.6283c11.8125-2.77353 20.6226-13.4038 20.6227-26.0586 0-14.76-11.9712-26.7311-26.7311-26.7311zm0 13.2815c7.42414 0 13.4496 6.02543 13.4496 13.4496s-6.02536 13.4496-13.4496 13.4496c-7.42415 0-13.4496-6.02541-13.4496-13.4496-1e-5 -7.42418 6.02543-13.4496 13.4496-13.4496z" style="fill-rule:evenodd;fill:#002673"/>
  </g>
  <path id="Anchorage" d="m359.148 128.777 5.07633-2.60059-5.06916-5.19994c-0.15575-0.15695-0.39176-0.41807-0.70805-0.78338-0.31627-0.36529-0.72352-0.83463-1.22175-1.40807 0.125 0.51711 0.24121 1.01181 0.34865 1.48407 0.10743 0.47231 0.20401 0.92864 0.2897 1.36899zm-3.56457 10.6561-3.13279-22.0278 6.39333-3.27529 16.0601 15.4051-5.07631 2.60057-2.66247-2.86537-7.25006 3.7142 0.74448 3.84795zm21.2142-10.6879-7.20392-19.7611 5.19674-1.89448 11.1697 7.44286c0.21942 0.15449 0.60735 0.48455 1.16382 0.99022 0.55644 0.50569 1.19008 1.11828 1.90097 1.83781-0.40653-0.7795-0.75098-1.4797-1.03338-2.10057-0.28242-0.62086-0.51384-1.17874-0.69424-1.67369l-3.55767-9.75906 5.16973-1.88464 7.20392 19.7611-5.16974 1.88463-11.1844-7.48334c-0.22843-0.15118-0.62088-0.47962-1.17732-0.9853-0.55644-0.50566-1.18232-1.11089-1.87762-1.81573 0.40979 0.78853 0.75587 1.49322 1.03828 2.11406 0.28241 0.62087 0.51384 1.17878 0.69425 1.67369l3.55769 9.75906zm33.8678-31.3394 1.44377 6.09534c-0.96516-0.66709-1.87443-1.10873-2.72781-1.32493-0.85345-0.21617-1.71354-0.22161-2.58029-0.0163-1.60306 0.37973-2.77119 1.23469-3.50437 2.56488-0.73321 1.33024-0.89118 2.8761-0.47396 4.63758 0.38853 1.64035 1.21647 2.88131 2.48378 3.72292 1.2673 0.84162 2.68384 1.07698 4.24964 0.70609 0.86674-0.20529 1.63301-0.59596 2.29878-1.17199 0.66576-0.57601 1.27922-1.38325 1.84038-2.42174l1.44708 6.10932c-0.78388 0.63846-1.58847 1.1686-2.41377 1.59048-0.82531 0.42188-1.68534 0.7388-2.58006 0.95072-1.11843 0.26491-2.18208 0.37658-3.19098 0.33503-1.0089-0.0416-1.97349-0.23878-2.89371-0.59171-1.77136-0.66316-3.24211-1.67803-4.41232-3.04465-1.17018-1.36659-1.98598-3.02385-2.44737-4.97175-0.37086-1.56577-0.45411-3.04956-0.2497-4.45141 0.20441-1.40181 0.69558-2.74606 1.47353-4.03277 0.73307-1.22682 1.64927-2.23126 2.74854-3.01334 1.09925-0.782032 2.3945-1.34967 3.88571-1.7029 0.89472-0.211903 1.80553-0.314445 2.73239-0.307619 0.92686 0.0069 1.88377 0.119796 2.87074 0.338776zm7.87384 19.0208-2.49339-20.8849 5.69199-0.679555 0.96908 8.11715 7.58935-0.90607-0.9691-8.11715 5.70625-0.68126 2.49342 20.8849-5.70627 0.68127-1.01507-8.50234-7.58934 0.90608 1.01508 8.50232zm45.232-12.7431c-0.0201 1.51319-0.31673 2.92691-0.88976 4.24116-0.57307 1.31426-1.39808 2.48627-2.47499 3.51603-1.08642 1.02006-2.32291 1.80105-3.70944 2.34297-1.38658 0.54193-2.82208 0.80302-4.30651 0.78327-1.50363-0.02-2.93887-0.31928-4.30573-0.89783-1.36686-0.57853-2.56537-1.39192-3.59551-2.44013-1.06835-1.0583-1.87377-2.25679-2.41633-3.59546s-0.8039-2.75502-0.78403-4.24906c0.02-1.50359 0.31896-2.91489 0.89685-4.23389 0.57791-1.31896 1.41492-2.49321 2.51102-3.52274 1.05765-1.02042 2.27739-1.80164 3.65916-2.34364 1.38176-0.54196 2.82446-0.802952 4.32806-0.782972 1.49403 0.01989 2.92926 0.319166 4.30573 0.897814 1.37641 0.578689 2.5845 1.39219 3.62424 2.44052 1.0397 1.04836 1.83085 2.24187 2.37343 3.58052 0.54252 1.33869 0.8038 2.75983 0.78381 4.26343zm-11.3161 6.02782c1.58979 0.0212 2.91202-0.54558 3.9667-1.70017 1.05463-1.15457 1.59382-2.62254 1.61751-4.4039 0.0235-1.76218-0.48375-3.23927-1.52155-4.43128-1.03784-1.19198-2.33727-1.79837-3.89833-1.81915-1.58982-0.02113-2.91207 0.547983-3.9668 1.70734-1.05472 1.15939-1.59388 2.62497-1.61743 4.39672-0.024 1.80052 0.46874 3.28699 1.4781 4.45944 1.00931 1.17247 2.32325 1.76947 3.9418 1.791zm14.7465 4.94926 2.77108-20.8499 5.93882 0.789305c2.32612 0.309181 3.93311 0.63146 4.82095 0.966838 0.88782 0.335416 1.63059 0.798882 2.22835 1.3904 0.67434 0.669376 1.15458 1.47236 1.44076 2.40896 0.28615 0.936632 0.35856 1.93663 0.21726 3-0.21455 1.61407-0.78539 2.87399-1.71256 3.77979-0.9272 0.90579-2.17242 1.4239-3.73569 1.5543l4.56569 9.15786-6.42303-0.85367-3.70063-8.79649-1.08458 8.1605zm6.78768-10.2867 1.05387 0.14007c1.22478 0.16279 2.1474 0.0729 2.76787-0.26984 0.62042-0.34267 0.98994-0.96024 1.10858-1.85274 0.13879-1.04438-0.0259-1.82234-0.4942-2.33388-0.46827-0.511512-1.32428-0.849929-2.56806-1.01525l-1.13932-0.151426zm19.1412 6.63205 5.54222 1.34752-0.44064-7.24855c-0.0154-0.22057-0.0235-0.57246-0.0243-1.05566-8.3e-4 -0.48318-3e-3 -1.10459-5e-3 -1.86422-0.2432 0.47317-0.47841 0.92362-0.70559 1.35135-0.22724 0.42777-0.45226 0.83634-0.67506 1.22572zm-9.66043 5.73887 12.0191-18.7237 6.98013 1.69713 2.0947 22.1553-5.54223-1.34753-0.14376-3.90876-7.91546-1.92455-1.95027 3.39962zm35.1066 1.97709 1.53081-4.1365 10.5635 3.90934c-0.0409 0.13808-0.0891 0.28877-0.14433 0.45212-0.0554 0.16335-0.14123 0.40223-0.25757 0.71662-1.25658 3.39541-3.12743 5.69795-5.61254 6.90764-2.48515 1.20968-5.35356 1.21282-8.60526 0.01-1.5989-0.59174-2.93147-1.35808-3.99771-2.29906-1.06624-0.94096-1.90607-2.08669-2.5195-3.4371-0.58516-1.2889-0.89745-2.67342-0.93692-4.15357-0.0395-1.48014 0.20175-2.92534 0.72366-4.33562 0.54517-1.47313 1.29782-2.73418 2.25793-3.78314 0.96011-1.04893 2.12153-1.88295 3.48427-2.50205 1.34377-0.59546 2.7471-0.90336 4.20997-0.92371 1.46281-0.0203 2.93531 0.24376 4.41746 0.79225 1.93123 0.71473 3.4989 1.72893 4.70297 3.04261 1.20402 1.31369 2.03434 2.91289 2.49093 4.79759l-5.48971 0.51138c-0.27438-0.96962-0.69066-1.76963-1.24883-2.40005-0.55822-0.6304-1.26848-1.10516-2.13079-1.4243-1.60791-0.59504-3.07307-0.52705-4.39551 0.20396-1.32247 0.73104-2.32774 2.02624-3.01586 3.88562-0.69478 1.87738-0.77903 3.52621-0.25272 4.94651 0.52629 1.42032 1.59337 2.428 3.20127 3.02302 1.36534 0.5053 2.62772 0.59205 3.78713 0.26027 1.15936-0.3318 2.02151-1.02636 2.58644-2.08369zm11.0577 12.8274 9.38393-18.8239 11.5335 5.74957-2.05753 4.12737-6.5318-3.25617-1.62808 3.26589 6.15891 3.0703-2.01268 4.03736-6.1589-3.07029-1.58323 3.17587 6.53179 3.25618-2.10242 4.21739z" style="fill:#002673"/>
  <path id="Alaska" d="m394.316 491.332 5.49891 1.51462-0.2211-7.25857c-9e-3 -0.22093-6e-3 -0.57291 8e-3 -1.0559 0.0138-0.48298 0.0309-1.10416 0.0513-1.86353-0.25742 0.46559-0.50614 0.90872-0.74618 1.32939-0.24007 0.42068-0.47735 0.82225-0.71182 1.20472zm-9.82968 5.44389 12.5802-18.3514 6.92556 1.90757 1.42326 22.2086-5.4989-1.51462-0.0255-3.91131-7.8536-2.16321-2.05226 3.33905zm26.169 6.64359 3.45514-20.7475 5.65455 0.94167-2.64801 15.9008 7.02923 1.1706-0.80715 4.84675zm24.7684-4.65204 5.69345 0.34144-1.72143-7.05495c-0.0543-0.21433-0.1248-0.55919-0.21142-1.03458-0.0867-0.47533-0.19871-1.08656-0.3362-1.83364-0.15527 0.50885-0.30669 0.99392-0.45428 1.45522-0.14762 0.46132-0.29647 0.90337-0.44656 1.32614zm-8.4872 7.36385 8.50144-20.5612 7.17061 0.43004 5.99751 21.4307-5.69347-0.34146-0.83591-3.82103-8.13144-0.48765-1.31527 3.69202zm27.5763-5.75214c0.89913 0.92413 1.77427 1.60491 2.62539 2.04234 0.85111 0.43744 1.68801 0.63583 2.51072 0.59518 0.76529-0.0378 1.38412-0.27456 1.85648-0.71026 0.47233-0.43568 0.6929-0.96922 0.66172-1.60061-0.0345-0.69833-0.27395-1.22592-0.71832-1.58277-0.44438-0.35682-1.42744-0.69903-2.94919-1.02661-2.08417-0.45322-3.57395-1.10365-4.46929-1.95124-0.89537-0.84759-1.38134-2.04625-1.45789-3.59602-0.0993-2.0089 0.49182-3.68033 1.77327-5.01431 1.28144-1.33391 2.99358-2.05382 5.13644-2.15972 1.15751-0.0571 2.26293 0.044 3.31624 0.30365 1.05331 0.25966 2.05951 0.68222 3.01866 1.26773l-1.59021 4.20692c-0.67794-0.52268-1.36587-0.90825-2.0638-1.15667-0.69793-0.24841-1.38171-0.35606-2.05137-0.323-0.68876 0.034-1.24024 0.22672-1.65442 0.57801-0.41417 0.35133-0.6085 0.78527-0.58297 1.30183 0.026 0.52617 0.23572 0.93775 0.62919 1.23475 0.39346 0.29703 1.13778 0.56234 2.23295 0.7959 0.0679 0.0158 0.15519 0.0355 0.26185 0.059 2.36535 0.51606 3.93502 1.13376 4.70897 1.8531 0.52294 0.492 0.93144 1.09276 1.22542 1.80223 0.29395 0.70951 0.46269 1.50429 0.50619 2.38439 0.1101 2.22897-0.53321 4.0564-1.92997 5.48235-1.39677 1.42595-3.31484 2.19919-5.75426 2.31971-1.46365 0.0723-2.80803-0.11059-4.03319-0.54872-1.22515-0.43815-2.4188-1.16072-3.58095-2.16776zm19.7611 5.51657-3.32556-20.7687 5.60357-0.89727 1.51059 9.43385 5.05765-10.4856 6.59661-1.05627-6.05287 11.3579 10.0452 9.30401-7.06474 1.13123-8.25925-8.23685 1.4924 9.32038zm27.3989-13.4294 5.48506-1.564-3.96143-6.08626c-0.12227-0.18425-0.303-0.48628-0.54223-0.90611-0.23922-0.4198-0.54744-0.95937-0.92468-1.61872 0.0221 0.53154 0.0399 1.03939 0.0535 1.52353 0.0135 0.48418 0.0196 0.95058 0.018 1.39918zm-5.56838 9.75972 1.20972-22.2165 6.90814-1.96977 12.7586 18.2336-5.48507 1.56401-2.05457-3.32834-7.83382 2.23373-0.0179 3.91926z" style="fill:#002673"/>
 </g>
</svg>
