<?xml version="1.0" encoding="UTF-8"?>
<svg width="300" height="180" version="1.1" viewBox="0 0 79.375 47.625" xmlns="http://www.w3.org/2000/svg">
 <g transform="translate(73.671 -144.73)">
  <path d="m-73.671 192.35h79.375v-47.625h-79.375z" fill="#3661ad"/>
  <path d="m-73.671 184.49v7.8641h79.375v-7.8641l-9.9953-8.3785-7.0556 6.7616-16.243-16.39-7.276 7.0558-13.836-14.24z" fill="#db2f32"/>
  <g transform="matrix(.22049 0 0 -.22049 -48.67 147.46)">
   <path d="m0 0 8.5-36 19.5 9.5-9.344-19.875 35.844-8.063-36-8.395 9.91-20.254-20.636 11.128-7.857-34.166-7.549 33.884-21.752-10.968 10.717 20.376-36 8.395 36.334 7.938-9.834 20.333 20.167-10.166z" fill="#ffcc2d"/>
  </g>
  <path d="m-42.406 165.78-4.3844-2.2331-1.8744 8.0332-1.7692-8.0332-4.7147 2.26.23151-.22997 6.2287-6.1368z" fill="#fff"/>
  <path d="m-73.671 188.6h79.375v-1.7313h-79.375z" fill="#3661ad"/>
 </g>
</svg>
