<svg xmlns="http://www.w3.org/2000/svg" xmlns:xlink="http://www.w3.org/1999/xlink" viewBox="0 0 900 599.8" xmlns:v="https://vecta.io/nano"><style><![CDATA[.Aq{stroke-miterlimit:10}.Ar{fill-rule:evenodd}.As{stroke:#2c0114}.At{stroke-width:.567}.Au{fill:none}.Av{fill:#2c0114}.Aw{stroke-width:1.417}.Ax{fill:#ffca38}.Ay{fill:#2d6c35}.Az{stroke:#000}.BA{fill:#e0ae31}.BB{fill:#fffc44}.BC{stroke-width:.283}.BD{fill:#0c2e10}.BE{stroke:#61501c}.BF{fill:#fffa43}.BG{fill:#a60505}.BH{fill:#bf0606}.BI{fill:#ff0111}.BJ{fill:#fc5863}.BK{stroke:#5e0e0b}.BL{stroke-linecap:round}.BM{stroke-width:.216}.BN{fill:#fff}.BO{fill:#8a722c}.BP{stroke-width:.709}.BQ{fill:#ff8731}.BR{fill:#cf0f32}.BS{fill:#ee2c4e}.BT{fill:#f2b5b5}.BU{stroke-width:2.126}.BV{fill:#5e2904}.BW{fill:#ffa666}.BX{fill:#a52518}.BY{fill:#f90111}.BZ{stroke-linejoin:round}.Ba{fill:#964308}.Bb{fill:#ad4c07}.Bc{stroke:#753305}.Bd{stroke:#a52518}.Be{stroke-width:.535}]]></style><path d="M.3 0H900v224.9H.3z" fill="#74acdf"/><path d="M.3 374.9H900v224.9H.3z" fill="#00247d"/><path d="M.3 224.9H900v149.9H.3z" fill="#008033"/><path d="M510.772 58.844l13.32 20.346 23.665-6.341-15.424 18.937 13.32 20.346-22.923-8.662-15.424 18.937 1.362-24.28-22.826-8.688 23.569-6.315zm-94.111 76.806l19.713 14.24-24.505.105-7.635 23.2-7.407-23.163-24.424.046 19.835-14.382-7.407-23.163 19.713 14.24 19.835-14.382zm250.532-13.33l-1.362-24.28 22.826-8.688-23.665-6.341-1.362-24.28-13.32 20.346-23.665-6.341 15.424 18.937-13.32 20.346 22.826-8.688zm111.294 13.561l7.381-23.171-19.697 14.262-19.851-14.359 7.662 23.191-19.697 14.262 24.424.018 7.661 23.191 7.381-23.171 24.424.018z" class="Ar BN"/><path d="M0 599.8V0l399.9 299.9z"/><path d="M0 584.8V15l379.9 284.9z" fill="#784421"/><path d="M0 569.8V30l359.9 269.9z" fill="#fc0"/><path d="M0 554.8V45l339.9 254.9z" class="BN"/><path d="M0 539.8V60l319.9 239.9z" fill="#00247d"/><g class="Ar"><path d="M84.364 215.877l-13.4-11.1-15.3-1.2-6.7 6.8-.4 11.1-5.646 13.749 3.346 9.751 3.7-.6.4 11.1 2.6 6.2 4.819 4.303 8.401 1.127 3.96 4.022 3.319 9.952-5.619 7.775-14.678 10.403-10.975 5.128-10.297 6.537 24.722 10.745 36.911-10.367 2.428 8.149-7.026 3.418 7.679 20.058 13.466 12.339 4.284-8.639 11.67-4.114 13.134 13.598 6.736 3.381 4.84-1.683-.232-6.161 8.697-2.933 34.144-.225 9.96-8.097 6.882-.989 3.494-11.407 11.259-6.31-14.019-17.019-11.27-6.124-15.649-.225-5.55 8.02-16.345-5.542-10.179 1.235-6.434-2.337 23.27-.796 3.684-3.091-5.142-3.688h0l-6.232-11.141-3.114-5.296 5.879-12.154-5.678-6.252.019-5.896-4.049-8.919-7.446-4.001-8.801-4.751-9.548-3.381-15.075-11.852-5.2-5.6-10.5-2.5 4.1 6.8z" fill="#008033"/><path d="M249.9 27.4c3.5-6.4 11.5-8.7 17.8-5.2 6.4 3.5 8.7 11.5 5.2 17.8-3.5 6.4-11.5 8.7-17.8 5.2-6.4-3.5-8.7-11.4-5.2-17.8z" class="Aq As At BO"/><path d="M251.5 28.3c3-5.5 9.9-7.5 15.3-4.5s7.5 9.9 4.5 15.3c-3 5.5-9.9 7.5-15.4 4.5-5.4-3-7.4-9.8-4.4-15.3z" class="BN"/><path d="M246.3 25.6s2.6-.6 6.2-6.4l1.8 3.4s-2.9 1.7-4.5 4.9z" class="BB"/></g><path d="M249.8 27.5l-4.8-2.6m9.3-2.3l-2.6-4.8m-1.6 9l-2.6-1.6m6-2l-1.8-2.6m.7 3.5l-1.9-2.1m.3 3.9l-2.2-1.7m3 .8l-2-1.9" class="Aq As At Au"/><path d="M252.4 19.1s2.6.7 8.6-2.4l-.2 3.9s-3.5 0-6.5 2z" class="Ar BB"/><path d="M254.4 22.6l-2.7-4.8m3.5 4.3l-1.5-2.8m6.2 1.3l-.2-3.1m-1.2 3.4l-.6-2.8m-1.7 3.5l-1.1-2.5m2.3 2.1l-.8-2.6" class="Aq As At Au"/><path d="M261.1 16.6c.2.2 2.2 1.9 8.7 2.3l-2.1 3.3s-3.1-1.7-6.7-1.6z" class="Ar BB"/><path d="M267.6 22.2l3-4.7m-8.7 3l.2-3.1m4.7 4.3l1.3-2.8m-2.7 2.3l.9-2.6m-3.2 2.1l.3-2.8m.9 3l.6-2.7" class="Aq As At Au"/><path d="M269.8 18.8s.6 2.6 6.3 6.4l-3.4 1.9s-1.8-3.2-5-4.9z" class="Ar BB"/><path d="M267.7 22.2l2.9-4.7m2.1 9.6l4.4-2.5m-8.6-2l1.7-2.6m1.9 6.1l2.6-1.7m-3.5.6l2.1-1.9m-3.9.2l1.7-2.2m-.7 3.1l1.9-2" class="Aq As At Au"/><path d="M276.2 25.1s-.8 2.5 2.1 8.7l-3.9-.2s.1-3.3-1.8-6.4z" class="Ar BB"/><g class="Aq As At Au"><path d="M272.7 27.1l4.8-2.7m-3 9.1l5.5.4m-6.8-6.1l2.7-1.5"/><path d="M274.5 32.5l3.1-.2m-3.3-1.2l2.7-.5m-3.4-1.8l2.6-1m-2.3 2.2l2.7-.8"/></g><path d="M278.5 33.8s-2 1.8-2.5 8.6l-3.2-2.2s1.8-3 1.7-6.6z" class="Ar BB"/><path d="M274.5 33.6l5.5.2m-5.5.7l3.1.2m-4.3 4.6l2.7 1.4m-2.2-2.7l2.6.9m-2-3.2l2.7.4m-3 .8l2.7.7" class="Aq As At Au"/><path d="M276.1 42.4c-.3.1-2.8.9-6.5 6.2l-1.7-3.5s3.1-1.7 4.9-4.9z" class="Ar BB"/><path d="M272.3 41.1l2.6 1.7m-6.1 1.8l1.6 2.6m-.5-3.5l1.8 2.2m-.1-3.9l2.1 1.8m-3-.9l2 2" class="Aq As At Au"/><path d="M269.6 48.7s-2.5-.9-8.7 2l.3-3.9s3.5.1 6.6-1.7z" class="Ar BB"/><path d="M261.2 46.8l-.4 5.5m6.2-6.7l1.4 2.8m-6.2-1.5l.2 3m1.2-3.2l.5 2.7M266 46l1 2.6m-2.2-2.2l.7 2.7" class="Aq As At Au"/><path d="M262.4 50.8s-1.9-1.9-8.7-2l1.9-3.3s2.9 1.6 6.6 1.3z" class="Ar BB"/><path d="M262.2 46.8l.3 5.5m-6.8-6.8l-2.8 4.8m8.5-3.4l.1 3.1m-4.9-4l-1.3 2.8m2.6-2.4l-.7 2.7m3.1-2.3l-.2 2.8m-1.1-3l-.4 2.7" class="Aq As At Au"/><path d="M253.6 49s-.7-2.6-6.6-6.1l3.4-1.9s1.9 2.9 5.1 4.5z" class="Ar BB"/><path d="M255.6 45.5l-2.7 4.8m1.8-5.2l-1.5 2.7m-2.2-6l-2.5 1.9m3.5-.8l-2.1 1.9m3.9-.3l-1.6 2.2m.6-3.1l-1.8 2.2" class="Aq As At Au"/><path d="M247 43c.1-.3.5-2.9-2.6-8.6l3.9.1s.2 3.5 2.2 6.6z" class="Ar BB"/><path d="M248.3 34.5l-5.5-.1m7.1 5.8l-2.7 1.5m1.1-6.2l-3.1.3m3.4 1l-2.7.7m3.5 1.6l-2.5 1.2m2.1-2.4l-2.7.9" class="Aq As At Au"/><path d="M244.3 34.4s1.8-1.9 2-8.8l3.5 1.9s-1.8 3.2-1.5 6.8z" class="Ar BB"/><g class="Aq As At Au"><path d="M248.3 34.4h-5.5m7-6.9l-4.3-2.3"/><path d="M248.2 33.4h-3.1m4.1-4.8l-2.8-1.3m2.4 2.6l-2.7-.8m2.2 3.2l-2.8-.3m3.1-.9l-2.8-.6m15.2-9.9v-5.5M250.5 41l-4.8 2.7m22.2 1.4l2.4 5m2.5-9.9l4.6 3.1"/></g><g class="Ar"><path d="M280.3 74.4c.2-3.2.4-13.7 5.7-12.5 7.2 1.7 5.6 3.8 7.9 10 .5 1.3.3 3.7 1.6 5.7.1.1 3.2 13.9 3.2 15.4 0 1.7 0 10.1-1 10.9-1.3 1-12.6.4-13.9-2.4-2.5-5.4-2.4-10.1-3.2-16-.5-3.3.5-7.9-.1-9.6-.1-.1-.2-1.3-.2-1.5z" class="Av"/><path d="M238.7 129.1s1.8 13.1-8.6 10.6c-1.3-.3-5.1-3.3-6.1-3l2.2-1s-.7-1-1.4-1.2c1.8-.4 2.8 1 4 2 .9.8 2.2 1.6 3.6 1.4 2.4-.3 4.6-3.1 4.5-8.4zm46.9 0s-1.8 13.1 8.6 10.6c1.3-.3 5.1-3.3 6.1-3l-2.2-1s.7-1 1.4-1.2c-1.8-.4-2.8 1-4 2-.9.8-2.2 1.6-3.6 1.4-2.4-.3-4.6-3.1-4.5-8.4z" fill="#519660" class="Aq As Aw"/><path d="M238.7 132.5s-2.2 3.9-10 3.6c0 0 3.5-.5 6.1-3 0 0 .8-1.1 2.3-1.5 0 0-5.4.9-10.4-.3 0 0 2.6 0 4.1-.8s4.6-.2 5.7-.5c.2 0 .3-.1.5-.1.5.8 1.1 1.7 1.7 2.6z" class="BD"/><path d="M237.6 131.8s-2.8 3.2-4.6 3.3c0 0 2-.1 4-2.3l.8-.9zm-.9-1.4l-4.3.1c-.7 0-.8.3-2 .5.5.2 1.3-.3 2-.3l4.3-.1z" class="Ay"/><path d="M236.6 129s-4 .8-7.2-.3-5.3-.4-5.3-.4 1.9-1.4 5.6-.6 4.7-.3 4.7-.3-7.4-.9-10.5-2c-3.2-1.2-3.6-1.3-5.3-1.3s4-.7 7.7.3 7.8 1.2 8 1.2-6.9 1.2-14.5-8.3c0 0 2.6 1.2 4 2.4s4.6 4 6.7 4.4c0 0-4.3-2.8-5.3-5.5l-1.4-3.7 4.2 5.2s2.3 2.6 3.3 3.2c1.1.6-2.4-3.9-2.8-6.1-.4-2.1.9 1.9 3.9 4.6s3.8 2.8 3.8 2.8l1 .9c2.6 2.3 3.2 2.3 7.2 1.8 6.5-.8 8.1-.3 8.1-.3l-.8 1.1s-4.2-.2-9.4.8c-4.3.8-4-1-5.5.1z" class="BD"/><path d="M224.8 124.5s1.9 1 4.8 1.6c2.9.5 5.5.5 5.5.5l-.1-.3s-4.5.4-9.3-1.5zm4.8-5.7s2.1 3.9 4.7 5.4h-.8s-2.5-1.9-3.9-5.4zm-4.3-1.3s3.1 4.7 6.1 6.4l-.3.1s-1.7-.4-5-4.8c-.3-.5-.7-1.2-.8-1.7zm-3.1 1.5s5 5.4 10.6 5.7l.2.3c-.1 0-6.5-.4-10.8-6z" class="Ay"/><g class="Aq As"><path d="M230.5 28.8s1.6 1 1.9 2.5-.5 2-.5 2 .6-1.6-1-2.6c0 0 .6.5.7 1.3s0 1.8 0 1.8 0-1.4-.4-1.9c-.4-.4-.2.4-.2.4s.1 1.6.9 2.1c0 0-.8-.1-1.1-.4s-.5-.3-.5-.3.6.1.1 1.5c0 0 .1-.7-.4-1.2-.1-.1-.1.9.5 1.6.1.1-.4.2-.9-.2-.2-.1-.3-.8-.5-.9s-.4-.2-.5-.2c-1.2 0-2.9-.1-3.8.2-.1 0-.3.1-.3.2 0 .5-.2.7-.4.9-.1.1-.3.3-.6.4-.2.1-.5.1-.7.1-.4 0-.8-.2-.9-.3-.1 0 .3-.1.7-.2.5-.2.9-.6.8-.6-.4.1-.9.1-1.3-.1 0 0 .9-.9 1.1-1.3 0-.1.4-1 .3-1 0 0-.2.5-.5 1-.3.4-.8 1-.8.9.3-1.8.8-2.3 1.2-3 0 0-.8.6-1.1 1.7s.2-2.1 1.1-2.7c0 0-.3.1-.6.6s-.6 1.5-.6 1.5 0-2.2.9-2.6c0 0 .4-.3.4-.7v-.9s3.5-2.2 7 .4z" class="At BV"/><g class="Aw Ax"><g class="BZ"><path d="M199.9 108.5l3.6-5.1h21.1 94.3l4.4 5.1z"/><path d="M323.3 109.4H199.9v-.9h123.4z"/></g><path d="M262 119c3.9-5.7 6.4-5.6 16.3-7.2s13.1-8.5 13.6-9.2c.6-.7.3-1.1.3-1.1l-2.5-1.9c-4.4-2.4-3.2-15.1-3.2-15.1l.2-26.8c-.5-3.8 4.1-6.9 4.1-6.9-4.3-2.6-10.2-4.8-10.2-4.8s.7 6.1-5.4 6.6-6.6-5.1-6.6-5.1h-13.8s-.4 5.6-6.6 5.1c-6.1-.5-5.4-6.6-5.4-6.6s-5.9 2.2-10.2 4.8c0 0 4.5 3.1 4.1 6.9l.2 26.8s1.1 12.6-3.2 15.1l-2.5 1.9s-.2.4.3 1.1c.6.7 3.7 7.6 13.6 9.2 10 1.6 13 1.5 16.9 7.2z"/></g></g></g><path d="M261.8 115.5c3.7-5.4 6.2-3.8 15.6-5.3s11.5-6.8 12-7.4.3-1 .3-1l-2.5-2.2c-3.9-2.2-2.7-35.1-2.8-40.4-.5-3.6 1.9-7.5 2.8-7.7-4.1-2.5-4.6-2.1-4.6-2.1s-1.9 5.3-8 5.5c-5.8.2-7.8-5.3-7.8-5.3h-5.3-5.3s-2 5.4-7.8 5.3c-6.1-.2-8-5.5-8-5.5s-.5-.4-4.6 2.1c.9.3 3.2 4.1 2.8 7.7-.2 5.3 1.1 38.2-2.8 40.4l-2.5 2.2s-.2.3.3 1c.5.6 2.7 5.9 12 7.4 9.5 1.5 12.5-.1 16.2 5.3z" class="Aq At Au Az"/><g class="Ar"><g class="As Aw Aq"><path d="M261.8 115.5c3.7-5.4 6.2-3.8 15.6-5.3 3.7-.6 6.3-1.8 8.1-3h0l-46.8-46.7h0c-.2 5.3 1.1 37-2.8 39.1l-2.5 2.2s-.2.3.3 1c.5.6 2.7 5.9 12 7.4 9.4 1.5 12.4-.1 16.1 5.3z" class="Ax"/><path d="M284.7 90.9l-.2-31.7c-.5-3.6 1.9-7.5 2.8-7.7-4.1-2.5-4.6-2.1-4.6-2.1s-1.9 5.3-8 5.5c-5.8.2-7.8-5.3-7.8-5.3h-5.3-5.3s-1.8 5-7.1 5.3z" fill="#4276c9"/><path d="M285.5 107.1c2.7-1.9 3.6-4 4-4.4.5-.6.3-1 .3-1l-2.5-2.2c-1.8-2.2-1.7-4.2-2.3-8.3l-35.8-36.5h-.7c-6.1-.2-8-5.5-8-5.5s-.5-.4-4.6 2.1c.9.3 3.2 4.1 2.8 7.7v.9z" fill="#f71e2c"/><path d="M250 54.6L285 90l.1 2.5L248 54.7s1 .1 2-.1zm-11.3 4.7l47.4 47.4-1.2.9-46.2-46.7z" class="Ax"/></g><path d="M276.4 61.3l-1.4 2.4 1.4 2.4h-2.8l-1.4 2.4-1.5-2.4h-2.8l1.4-2.4-1.4-2.4h2.8l1.5-2.4 1.4 2.4z" fill="#fffd31" stroke-width="2.835" class="Aq Az"/><g class="As Aw Aq"><path d="M206.9 63.3c.1 1.3-.5 3.6.5 4.3.2.1.5 0 .5 0l.1-1.2c0-.4-.1-1.4.3-1.9.5-.5 1.7-.6 1.9 0 .3.6.3 1.3.2 1.8 0 .4 1.2-.7 1.5-1.5.3-.7 0-2.1 0-2.1s-.2-.5.6-1.4c.7-.8 4-10 4.9-14.3 1-4.4 1.8-7 1.8-7l-3.5 14.9c0 .9 3.1-1.7 8.1-.9s5 2.5 6.9-.3c1.9-2.9 2.8-3.8 2.8-7s-.1-6-.1-6-.5 9 1.6 8.6c2.1-.3 2.2-.9 2.5-2.4.2-1.5-.6-4.8-.6-4.8s.4-7-1.6-7.1-3.7 0-3.7 0c-1.2 0-1.9-.1-2.3-.3-1.1-.5-.4-1.5-.6-1.6-.7-.4-2.9-.7-3.5.2-.3.5.2 2-2.4 1.9 0 0-2-.3-3.4.1-1.2.3-2 1.3-2.2 2.1-.4 1.7-2.1 7-2.1 7l-.9 1.2c-1 1.5-2.2 2.6-2.6 6.6s-.6 4.6-.6 4.6.1 2.9-1.3 4c-1.6 1.3-2.6 1.3-2.8 2.5z" class="Ax"/><path d="M229.4 34.9c-.1 0-.1 0-.2-.1-.6-.3-.7-.7-.6-1.1-.3-.2-.6-.3-.9-.3-.8 0-2.1.3-2.8.8-.1.2-.2.5-.5.7 0 .2-.1 1.2 2.1 1.2 1.2.2 1.7-1.1 2.9-1.2z" class="Av"/></g><path d="M207.7 67.6h0c.1 0 .2-1.1.2-1.2 0-.4-.1-1.4.3-1.9.5-.5 1.7-.6 1.9 0 .3.6.3 1.3.2 1.8 0 .1.1.1.2 0 0 0 0-.1.1-.2v-.6c0-.1.3-.2.6-.6.3-.5.3-1 .3-1.1s-.1.4-.4.8c-.2.3-.5.3-.5.3 0-.1.3-.3.4-.7.2-.3.2-.8.2-.8 0-.1-.2.3-.4.4-.2.2-.4.2-.5 0s-.2-.5-.4-.6c-.3-.2-1.2-.3-1.6-.1-.6.3-.7.8-.7 1.5.1.4 0 2.5.1 3zm4.8-6.2s1.2-2.6 1.7-5 2.1-7.9 3.1-11.7c.4-1.3.1-2.2.4-3.3.5-2 1.3-3.5 1.7-3 .6.7.5 1.9.2 2.8-.2.9.3 2.9 2.5 2.8 2.1-.1 1.7.4 1.7.4-1 0-4-.2-4.6.6-.4.5-.2.4 0 .2.7-.3.9.4.8.4-.4-.6-1.2.1-1.2.4 0 .1.3-.2.6-.1.3 0 .5.3.4.3-.4-.1-1.1.2-1.1.6-.1.4 0 .1.4.1.3 0 .6.2.5.1-.2 0-.3 0-.5.1-.4.2-.7.5-.8.9 0 .1.3-.2.8-.3.3 0 .4 0 .4.1l-.7.2c-.6.3-.8.7-1 .9-.4.5-.4 1-.4 1.2.6 0 1.4-1.2 3.4-1.1.7 0 .8.1.6.2s-1.4 0-2.1.3c-1 .4-1.7 1.2-2.3 2.1-.3.4-.4 1.3-.4 1.3s-.1 2-.7 2.3c-.8.3-.6.7-1.1 2.1s-.6 2.2-2.3 4.1zm20.6-21s.3-.3.5.4c0 .2.1.4.1.7.1 1.5.2 7.7 1.5 8.1l-2.5 1.4s-2.3 4.2-3.4 4.4c0 0 .5-.2-.1-.8L228 53s1.5.5 1.7.8c.1.2.3-.3.5-.7.2-.5-.3-1-.8-1.2 0 0 .3-.2.8.1s.4.4.4.3c.1-.1.6-.6.2-1.1-.3-.5-.3-.3-.2-.3.5-.1.9.3.9.2.2-.2.4-.5.5-.9 0-.1.1-.5-.1-.6-.3-.2-.4-.2-.3-.2.4-.2.6.2.6 0 0-.8 1-1.5.6-2.8-.5-1.3-1 .2-2.2.2-.1 0 .9-.6.9-1 0-.1-1.1.1-1.1 0l.7-.2c.3-.1.6-.3.6-.3s-.2.1-.5.1c-.4.1-.9.1-.9.1s.5-.1.9-.3.8-.5.8-.6c0 0-.5.3-1 .4l-.9.2c-.1-.2-.1-.3-.2-.4-.4-.3-3.6-.4-3.6-.4-.2-.5.8-.1 3.2-.5 2.1-.3 2.8-.9 3.6-3.5zm-11.6 2.7c.2 0 .3 0 .3.1s-.1.1-.3.1-.3 0-.3-.1c0 0 .1-.1.3-.1zm7.6 0c.2 0 .3 0 .3.1s-.1.1-.3.1-.3 0-.3-.1c0 0 .2-.1.3-.1zm5.5-8s.9.8 1.1 1.8c.3 1.6.1 3.8.2 5.4.3 2.5.3 6.3 1.4 6.2s4.5-1.9 4.8-2.1c.3-.1 1.9-3.7.5-4.5s-3 .5-4.1.7-1.7.3-1.7-1.2.1-5.2-1.3-6.1a.96.96 0 0 0-.9-.2z" class="Av"/><path d="M238.8 43.6c-.3.1-1.1.1-1.4.1-.5.1-.6-.7-.1-.7.5-.1 1.1 0 1.7-.4s1.9-1 2.7-.7 1.3.7 1 1.7c-.2 1 0 2.2-1.2 2.5 0 0-.5.2-.6 0-.1-.1-.3-.2-.5-.2s-.2-.1-.4-.2-.4.2-.6-.2c-.3-.4-.6.2-.7.4s-.6 1.2-.7.8c0-.1 0-.2-.1-.3s-.2 0-.3 0c-.1.1-.2 0 .4-1.1.7-1.1.9-1.2 1-1.5.2 0 .2-.4-.2-.2z" class="Ax"/><g class="Av"><path d="M221.2 51.8s.4.3.6.5.6-.1.9-.4.3-.5-.3-.4c-.7 0-.7-.3-1.2.3z"/><use xlink:href="#B"/><use xlink:href="#B" x="-0.1" y="-0.6"/><use xlink:href="#B" x="-0.3" y="-1.1"/><use xlink:href="#C"/><use xlink:href="#B" x="-0.5" y="-1.9"/><use xlink:href="#B" x="-0.5" y="-2.3"/><use xlink:href="#B" x="-0.5" y="-2.7"/><use xlink:href="#B" x="-0.4" y="-3.1"/><use xlink:href="#B" x="-0.4" y="-3.4"/><use xlink:href="#D"/><path d="M241.3 46.1l.1-.3s.1.1-.1.3c0 .4-.1 0 0 0z"/><path d="M241.2 46l.1-.3c0 .1 0 .1-.1.3-.1.5-.1.1 0 0zm-.5-.1l.1-.3c0 .1.1.1-.1.3 0 .5-.1 0 0 0zm-.2 0l.1-.3c.1 0 .1 0-.1.3 0 .4 0 0 0 0z"/><use xlink:href="#D" x="-1.1" y="-0.3"/><path d="M240 45.7l.1-.3s0 .1-.1.3c-.1.4-.1 0 0 0zm-.2 0l.1-.3-.1.3c-.1.4-.1 0 0 0zm-.2-.1l.1-.3c.1 0 .1.1-.1.3 0 .4 0 0 0 0zm-25 12.3l-1.1 8.4c0 .9.6 1 1.7 1.5s2.9 4.7 3.9 5.4 1.6 1.2 1.8-.1 1.9-2.7 4-4c2-1.3 2.7.1 3 .6s1.1 2.1 1.1 2.1-.3 3.4-.7 4.2-.6 4.7-.7 5.2-.2 1.2.7 2 1.9 1.7 2 3.2-.2 2 .6 2.9 1.3.7 1.3 2.2c-.1 1.5-.7 2.2-1.4 2.6s-1.4 1.9-.8 2.9c.6 1.1 3.2.2 3.2.2s0-1-1.2-1.2-.1-1 1-1.7 2.1-2.1.7-4.8 1-2.9 1.5-2.9 1.8-.1 1.8-.1c0-1.2-.1-1.9-.1-1.9l-.2-26.8c.5-3.8-4.1-6.9-4.1-6.9-1.1.8-1.9 4.2-3.7 4.5 0 0-.5 0-1.8-.5-1.4-.5-3.8-1-5-1s-2.1-.1-4.8.8c0 0-1.1.4-1.5.4-.4-.1-1.1 1-1.2 2.8zm18.6-7.4c-.2.1-.4.2-.6.4.2-.2.4-.3.6-.4z"/></g><g class="BQ"><path d="M223.3 54.3s-.1.3.2.5 4.1 1.7 4.1 1.7 1.5.6 1.5-.4c0 0 0-.4-1.6-.9-1.7-.5-4-1.2-4.2-.9zm-.5 1s0 3.4.2 3.4 1 .7 2.1-2c0 0 .2-.3-.3-.8-.6-.4-2.1-1.3-2-.6z"/><path d="M225.6 56.6s-1.5 3.3-2.3 4.1c-.7.8-.3 2.3-.2 3.4.2 1.1.1 2.4.1 2.4s.2 2.1.5 1.4 1.4-3 2.4-4.3c1.1-1.2 2.7-4.3 2.4-6.5 0 0-.6-.3-1 0s-.5 1.3-.6 1.5c-.1.5-.9 4.4-3 6.3 0 0-.1-.4.2-1 .4-.5 1.9-2.3 2.5-5.6 0 0 .2-1.6-.3-1.7-.4-.2-.7 0-.7 0z"/><path d="M222.3 54.4l-.1 13.7s.3 1.5 1 1c.6-.5.3-.6.4-.6s.4.1.5.4.3.4-.4.9l-2.6 1.9s-1-.4-1.3-2.4c-.1-.7 1-12.8 1.3-13.8s0-1.1 1.2-1.1zm-1.3 0l-.9 7c-.3 3-1.6 7.3-1 8.9s1.7 2.6 1.4 3.1-.8-.1-1.5-.9c-.9-1-1.9-2.5-2.2-4.2-.2-1.1 0-2.5.4-3.3 0 0 1.6-1.7 1.1-1.5s-1.5 1.3-1.7.6-.3-3.9-.3-4.7c.1-.9.8-3 .8-3s-.5-.3-.9-.1-.5.8-.1.7 0 1.1-.1 2.4.3 6.8.3 7.5c0 .4.4 1.1.2 1.2-.1.1-1.3-.6-1.5-.9s.2-.7.2-1.1c0-.6-.3-1.2-.3-1.2s.1 1.9-.4 1.9-.4-1.4-.3-2.4l.7-3.8c.2-.8 0-4.3 1.3-5s3.7-1.3 3.7-1.1c.1.2-.4.6-.4.6s-2.3.5-1.1 1.2c0 0 .6-.1.5.6-.1.8-.7 2.7-.4 4.1.3 1.5.4.9.7-.3s.6-5.3.9-5.9c.2-.4.3-.4.9-.4zm7.9 5s-.6 2.2-2.3 4.1-2.5 4.1-2.1 4.9.7 0 1.2-.6 1.2-2.6 1.2-2.6-.5 2.6-.4 3 1 0 1.3-1.4c.2-1.4 1.2-3.7 1.1-7.4zm1.5 25s-1.6-2.4-1.8-3.1c0 0 1 1.6 1.6 1.8.7.3-.2-.8-.2-.8s-1.1-1.7-1.2-2.3c0 0 1.2 1.6 1.6 1.7s.1-1.2.1-1.2-1-1.2-1.5-2.6c0 0 1.4 1.8 1.7 1.8.4 0 .2-2.1-.1-2.4s-1.4-1.4-1.5-2.3c0 0 1 1.4 1.5 1.5.5.2.6-.2.4-1.1-.1-.6-.4-1.2-.7-1.7-.1-.2-.3-.2-.4-.4 0 0 .3 0 .4.2s.8 1.6.8 1.4.1-1.5 0-2.2c0-.1-.7-.4-.9-1.3-.1-.3.1-.7.1-.7 0 .3 0 .5.1.8.3.6.7 1.1.8 1 .2-.2.7-14.6.7-14.6s.5-.6.5.5-.2 12.3-.6 14.3-1 11.1-1 11.1-1 3.3-.6 4.2 1.5 1.8 1.5 1.8v-2.3c.1-.7.5-1.9.5-3.4s1.8-13.6 2-19.3c.1-5.6-.4-7.9-1.4-9-.9-1-1.4-.8-1.4-.8s.7-.2.7-.6-1.1-.9-1.1-.9-2 1.7-1.8 2.1c.1.4.6 1.4.6 2.4.2 4.7.4 4.3-.2 8.1-.2 1.5-.9 3.2-.9 4.9s-.8 8-1 8.9-.5 1.8.8 3.2c1.8 1.6 1.9 1.3 1.9 1.3zm2.5 4.3s1.4 2.1 1.2 3c-.2 1 .1 1.3-2 2.7s-.5 1.8.1 1.9.7.4.6.6-1 .3-1.5.2c-.5 0-1.6-.4-1-1.9 0 0 .3-.6 1.4-1.3 1.2-.7.8-2.6.8-3s0-2.2.4-2.2zm.4-3.4s.4.1.5.7 0 .6-.3.9c-.2.3-.5.9-.4 1.1 0 .2-.4-.1-.4-.7 0-.7 0-2.3.6-2z"/><path d="M233.3 84.8s.6.2.9 1c.2.8 2 .4 2.4.3.1-.1.3-.2.4-.4 0-.7-.1-1.2-.1-1.2l-.2-26.8c.1-.7 0-1.3-.2-1.9-.2-.3-.5-.6-.8-.7l-1.4-2.8-1.2-1.1c-.5.6-1.1 1.7-.9 2.1.3.6 1.9 2 2.2 2.6s1.2 4.8.9 8.7l-1.4 15.9z" class="Aq As Aw"/></g><path d="M233.3 84.7c0-.5.2-1.9.9-2.2.1-.1.4-.1.7 0 .4.2.7.7.9.7-1.1-2.1-1.9-1.2-2.3-.7-.3.3 1-2.6 2.4-1.4-.1-.8-.5-1.2-1.9-.6-.4.2-.3.2-.2-.3 0-.3.1-.3.2-.5.1-.3.4-.5.7-.5s.6.1 1.3.6c-.4-.9-1.6-1.5-2.1-1.1-.1-.2.5-1.2.7-1.4.4-.3 1.5-.3 1.6-.4 0 0-.5-.3-1.3-.3-1.2 0-1.3 1.4-1.4 2.9-.1 1.3-.3 2.6-.5 3.3 0 .1-.3 1.6-.1 1.7-.1-.2.4.2.4.2z" class="Av"/></g><g class="Aq As"><path d="M225.3 52.8c1.1.1 2.1.5 3 1.1.1 0 .1.1.2.1m-1.1-1.8c.6.2 1.2.1 1.8.6m-10.6-3.9c.4-.1 1.9-.5 2.2-.4m-2 1.7c.2-.1.6-.4.9-.4" class="Au BL BP"/><path d="M213.6 66.9s.2 9.6 3.7 16c0 0-.4 3 .3 4.8s3.9 8.2 3.6 11.6c0 0 0 .4.1 1.1.1 1.3-.8 2.4-1.8 3.2-.6.5-1.3.8-1.8 1-.3.1-.3.2-.5.3l-.4.2c-.1 0-.3.2-.3.3v.1c0 .1.1.1.2 0 0 0-.1 0 .2-.2.2-.1.4-.1.4-.1s-.2 0-.4.1c0 0-.2.1-.2.2-.1.1-.1.4 0 .3.2 0 .2-.1.2-.1.2-.2.6-.3.8-.3 0 0-.6.1-.7.2 0 .1-.1.1-.1.1 0 .1 0 .3.2.3s.1-.1.2-.2c.2-.1.8-.1.9-.2 0 0-.2 0-.4.1-.2 0-.4 0-.4.1-.5.2-.1.8.5.7.3 0 .6-.3 1-.3.2 0 .6 0 .9-.1s.5-.4.6-.5c.4-.3 1.2-.6 1.6-.6 1.2-.1 2.3.2 2.6-1.2.1-.6-.2-1.2-.2-1.5v-.7c0-.2-.2-.8-.2-.9l-.3-9c-.2-1.1-1.4-2.6-1.6-5.6s-1.4-3.8-1.3-6.7c.1-2.8-.1-6.7-.1-6.7-.1.2-.1.3-.1.4-.2 1.3-.8.8-1.8.1s-2.8-4.9-3.9-5.4c-.7-.4-1.3-.5-1.5-.9z" class="Ar Aw Ax"/></g><path d="M207.9 65.2l-.2 4.1c0 .1.1.4.1.5 0 .2-.1.2-.2.4 0 .1.1.2.1.3s-.1.1-.1.3c0 .1.1.3.1.4s-.1.1-.1.2l.1.3c0 .1-.1.1-.1.2s.1.3.1.4-.1 0-.1.2v.4c0 .1-.1.1-.1.2 0 .3.1.9.1 1.2l-.1 3c0 1 .2 2.1.2 3.1-.1.8-.3.6-.4 1.5v.7c0 .5-.2 1.1-.2 1.6v2.4c0 1 .3 1.5.3 1.7s-.4-.1-.4 1v1.6c0 .1-.4 0-.6.2-.2.1-.3.5-.3.6 0 .4.2.7.4.8.3.2.6 0 .6.1v6.7c0 .3.2.3.2.6 0 .2-.2.6-.2.8 0 .8.1 1.6.2 2.2.1 1.3.6.4.5.7-.3 1.2.6 2.4 1.8 2.5.7.1 1.5-.3 2-1.2.1-.2 0-.4.1-.7s.5-.6.5-.9c.1-.6.4-1.2.4-2.1 0-.2-.4-.8-.4-1 0-.3.6-.4.5-.8 0-.4-.5-.7-.6-1.2-.1-.8-.1-1.8-.2-2.9 0 0 .5 0 .4-.7 0-.1 0-.4-.2-.5-.1-.1-.3-.1-.3-.2v-.1c-.1-1-.4-1.9-.4-3l.1-2.6c0-.5-.6-.7-.5-.7.3.1.5-.2.5-.3 0-.5-.3-1-.3-1.5 0-.1.2-.6.2-.7-.1-1.3-.3-1.7-.4-2.3 0-.3.2-.6.2-1 0-.3-.2-.7-.2-1.1 0-.2.1-.6.1-.8 0-.3.3-.7.3-1.1s-.3-1-.3-1.5c0-.2.2-.4.2-1.2 0-.4-.4-.9-.4-1.3 0-.7-.1-1.3-.1-1.9-.1-1.5-.4-2.9-.5-4l-.1-3.5s-.1-1-.7-1.1c-.3-.1-1.5-.2-1.6 1z" class="Ar Av"/><path d="M208.1 65.3l-.2 3.6c0 .1 0 .5.1.7.1.3.7.2.7.3 0 .2-.8 0-.8.2 0 0 .1.2.3.3s.5 0 .5.1-.3.2-.5.2-.4 0-.4.1c0 0 .1.2.3.3h.5c0 .1-.3.2-.5.3h-.4s.1.2.3.3.5 0 .5 0l-.5.3h-.3a1.44 1.44 0 0 0 .2.3c.2.1.6-.1.6 0s-.3.3-.5.3h-.4l.3.3c.2.1.5 0 .5.1s-.8.1-.8.3.3.6.2 1.6l-.2 2.8c0 .8.2 1.7.2 2.6 0 .5-.3 1.1-.4 1.6 0 .7-.2 1.4-.2 2l-.1 2.7c0 .3-.1 1.2 1 2.7.2.3-1-1-1-.7v2.7c0 .1-.2-.1-.5-.1-.1 0-.6 0-.6.5 0 .7.3.8.6.8.2 0 .5-.3.5-.2l.1 7.1c0 .2.1.2.1.4s-.1.5-.1.7c.1 1.1.1 2.1.3 2.8 0 .2.2-.2.5-.4.4-.3 1-.3 1-.2s-.8.2-1 .6c-.3.6-.1 1.5 0 1.6 1 1.6 2.2 1.4 3.1-.1.1-.2 0-.4 0-.6.1-.2.3-.3.4-.5.2-.6.7-1.4.7-2.3 0-.1-.5-.9-.5-1.1 0-.3.4-.8.3-.9 0-.2-.3-.5-.3-.8-.1-.9-.1-2.1-.2-3.4 0-.1.2.1.4 0 .1-.1.2-.4.2-.5s-.1-.4-.2-.4c-.2-.1-.4.2-.4 0 0-1-.3-2.1-.4-3.3l.1-2.9c0-.1-.2 0-.4-.2-.3-.2-.5-.7-.5-.8s.3.2.6.3c.2.1.3-.1.3-.1 0-.2-.1-1.4-.7-1.5-.4-.1-.8-.7-.8-.9s.5.5.8.6.5-.2.5-.4c0-1-.3-1.4-.4-2.4 0-.1.3-.7.3-.8 0-.4-.2-.9-.2-1.3 0-.2.1-.4.1-.7 0-.2.3-.7.3-1 0-.6-.3-.9-.3-1.5 0-.5.2-.9.2-1.4s-.3-.7-.4-1.2c-.1-.6-.1-1.4-.1-2-.1-1.3-.4-2.6-.4-3.9v-3.5s-.1-1-.6-1.1-1.3-.2-1.4 1z" fill="#c2570a" class="Ar"/><path d="M209.3 102.8c-.9.2-1.2 1.1-.9 1.8.2.5.7 1.1 1.4 1 .4 0 .8-.3 1.2-.9.1-.2-.1-.5 0-.8.1-.2.5-.3.6-.6v-.2c.1-.5.5-1.1.5-1.9 0-.3-.4-.7-.4-1.1 0-.3.2-.6.2-.9s-.2-.5-.2-.8c0-.7-.1-1.2-.1-1.3s-.4-3.9-.5-6.4c-.1-1.3 0-2.3 0-2.3s-.8-1.1-1-2.2l-.3-2.5c.1.2 1.1 1.6 1.3 1.2.1-.3-.1-1.2-.2-1.9-.1-.4 0-.7 0-.7l.1-.9-.2-1.2c0-.3.1-.3.1-.7.1-.3.3-.5.2-.9l-.2-1.2c0-.6.3-1.3.1-1.9l-.4-1.2-.4-6.5s-.2-1.4-1-.6c-.9.8-.7 1.5-.7 1.5s.5 1 .5 1.3.3 2.3-.3 3.6-.7 3.1-.6 4.1c0 .3.3 1.4.2 2.5 0 .4-.3.9-.4 1.4 0 .6-.3 1.4-.3 2.1-.1 1.8.2 3.3.3 3.6.3.7.7 2.1 1 2.4s-1.2-.4-1.2 0-.3 9.4.1 11.6c0 0 .1 1.1.3 1.1.2-.1 1.4-.3 1.5-.1.1.3 0 .5-.3.5z" class="Ar BQ"/><path d="M210.6 98.1c-.5-.2-.5.5 0 .5.2 0 .1-.4-.1-.3 0 0-.1.1 0 .1m-.1.5c.1.6 0 1.1 0 1.7v.5m.5-.7c0-.6-.1-1.6.1-2.2.2-.5-.4-1.3-.4-2 0-.3-.1-2.1-.2-2.3m-.4.5c0 .6.1 3.1-.1 3.6-.1.2 0 .4.1.6m-1.3 2.8c0-1.5 0-1.4-.2-2.7-.2-1.4-.2-2.4.1-3.7v-.2m.9-21.2c0 1.1-.8 1.2-.2 3 .6 1.7.7-.3.4-.3-.1 0-.1.1-.1.4m.2 1.4l.1 2.4c.1.5-.1.7-.1 1.1m-.6-3.8c0 .5.1 1.1.1 1.6" class="Aq As At Au BL BZ"/><path d="M208 67.5c.6-.3 1.9-1.3 2.2-1.5l.1-.1v-.5s-.1-1-.6-1.1h-.4c-.5 0-1.1.2-1.2 1.1 0-.1 0 .7-.1 2.1z" class="Ar Ba"/><g class="As Aq Au BL"><path d="M209.1 89.4c-.2-1.4-.6-1.3-.6-3.4 0-.5.1-2 .3-2.4m1.3 4.6c.9 1.3.5 2.1.7 2.3m-2.2 4.3c0-1 .2-2.6-.1-3.5m2.3 12c0 1.5-2 1.8-1.6.5.2-.5 1.1 0 .7.3-.1.1-.4-.1-.2-.2" class="At BZ"/><g class="BP"><path d="M206.8 65.4c.1.2.2.3.4.5m.4.1c0 .1-.2.3-.3.3m-.5-.1c.1.2.2.4.5.6m-.4.3c.1 0 .3 0 .5-.1m4.1-1.4c0 .1-.4.1-.5-.1m.8-.4c-.1.1-.5.1-.6 0"/><path d="M207.6 66s.1-.4-.1-.6"/></g></g><g class="Ar"><g class="Av"><path d="M237.3 43s-.1.1 0 .2c.1 0 .3 0 .4-.2h-.3-.1z"/><use xlink:href="#B" x="-0.3" y="-4.3"/><use xlink:href="#C" x="-0.1" y="-3.2"/><use xlink:href="#B" x="-0.5" y="-5.1"/><use xlink:href="#B" x="-0.5" y="-5.5"/><use xlink:href="#B" x="-0.5" y="-5.9"/><use xlink:href="#B" x="-0.5" y="-6.3"/><use xlink:href="#B" x="-0.4" y="-6.6"/><use xlink:href="#B" x="-0.7" y="-7"/><use xlink:href="#B" x="-0.9" y="-7.4"/><use xlink:href="#B" x="-1.2" y="-7.9"/><use xlink:href="#B" x="-0.5" y="-3.8"/><use xlink:href="#E"/><use xlink:href="#E" y="0.6"/><use xlink:href="#E" y="1.1"/><use xlink:href="#F"/><use xlink:href="#E" x="-0.1" y="2"/><use xlink:href="#E" x="-0.1" y="2.4"/><use xlink:href="#E" x="-0.1" y="2.7"/><use xlink:href="#E" y="3.1"/><use xlink:href="#E" x="-0.1" y="3.5"/><use xlink:href="#E" x="-0.3" y="4.3"/><use xlink:href="#F" x="-0.1" y="3.2"/><use xlink:href="#E" x="-0.3" y="5.1"/><use xlink:href="#E" x="-0.3" y="5.5"/><use xlink:href="#E" x="-0.4" y="5.9"/><use xlink:href="#E" x="-0.5" y="6.3"/><use xlink:href="#E" x="-0.6" y="6.6"/><use xlink:href="#E" x="-0.4" y="7.1"/><use xlink:href="#E" x="-0.5" y="7.5"/><use xlink:href="#E" x="-0.6" y="8"/><use xlink:href="#E" x="-0.1" y="3.9"/><use xlink:href="#E" x="-0.7" y="8.6"/><use xlink:href="#G"/><use xlink:href="#G" y="0.6"/><use xlink:href="#G" y="1.1"/><use xlink:href="#G" x="-0.1" y="1.5"/><use xlink:href="#G" y="1.9"/><use xlink:href="#G" x="0.1" y="2.3"/><use xlink:href="#G" x="0.1" y="2.6"/><use xlink:href="#G" x="0.2" y="3.1"/><use xlink:href="#G" x="0.1" y="3.4"/><use xlink:href="#G" x="0.1" y="4.3"/><path d="M235.1 63.2s.1-.2.6.1c0 0 .1-.2-.6-.5-.7-.2-.2.6-.2.6z"/><use xlink:href="#G" x="0.1" y="5.1"/><use xlink:href="#G" x="0.1" y="5.5"/><use xlink:href="#G" y="5.9"/><use xlink:href="#G" y="6.3"/><use xlink:href="#G" y="6.7"/><use xlink:href="#G" x="0.1" y="7"/><use xlink:href="#G" x="0.1" y="7.5"/><use xlink:href="#G" y="8"/><use xlink:href="#G" x="0.2" y="3.8"/><use xlink:href="#G" y="8.6"/></g><path d="M256.2 72.3c1 .9-.8 2.7 2.5 1l.8.8c-1 .5-2.1 1-3.3.3-1-.5-1.3-.4-1.5-1.5 0-1.3.8-1.2 1.5-.6zm3.5.5c1.1-.6 2.2-1.1 3.4.4.6.7.4 2.1.2 3.3l-1-1c.1-.4.1-.9 0-1.3 0-.2-.3-.4-.4-.5-.2-.2-.7-.2-1.4.1zm3.3 4.8c0 .1-.1.3-.1.4-.2.7.1.9.3 1.1.4.3 1 .6 1.8.5l.6.6c-.3.1-.5.2-.9.3-.7.1-1.5.1-2.2-.5-.5-.5-.6-.8-.7-1.2-.1-.7 0-1.4.2-2.1zm3 1.6c.5-.4.7-1 .8-1.8.2 0 .6 1.3-.4 2.3z" class="Aq At BE BO"/><path d="M256.8 74.2c.2 0 .5 0 .9-.2.3-.1.6-.3 1-.4.3-.1.5-.3.8-.4l.6-.3c.6-.3 1.3-.5 1.7-.4 1 .2 1.7 1.4 1.5 2.6 0 .1-.2.9-.3 1.6-.2.6-.3 1.1-.3 1.1l-.8-.4.5-2.4c.3-1.8-.8-2-1.9-1.6-.1 0-.1 0-.2.1l-1.2.6c-.3.2-.5.3-.6.3-.6.1-1.6.5-2.4-.1s-1.3-.2-1.2-2c0 0-.1-.6.7-.3 0 0 .6.3.6.8v.7c0 .4.2.7.6.7z" class="BA"/><path d="M255.5 68.8s-.2-3.1-2.1-4.3c0 0 .2-1.6-.5-2.8l-.2-.3s.1 0 .1-.1c.4-.1.6-.1.7 0 .1 0 .2.1.3.1.1.1.1.2.2.2h.3a.55.55 0 0 1 .5.3c0 .1.1.1.1.2s.1.2.1.2c.2 0 .3.1.4.2.2.1.3.5.3.5a.55.55 0 0 1 .5.3c.1.1.2.4.2.5l.3.3c.1.2.1.2.2.6 0 0 .1 0 .2.1l.2.2v.2.2l.2.4c.1.2.1.4.1.4v.3c0 .1-.1.2-.1.2 0 .2 0 .5-.1.7s-.5.4-.6.6-.1.4-.2.6c-.2.4-.2.8-.3 1.1z" class="Aq BC BE BO"/></g><g class="Au BM Aq BE"><path d="M255.7 62.9s.7.2.6.9m-.9 1.6s.6-.6 1-1.7a.84.84 0 0 0 .4 1c-.3.7-1 1.3-1 1.3m-1.2-1.6s.4-.8.4-2.2c0 0 .7.1.7.8s-.7 1.8-.7 1.8"/><path d="M254.2 64.1s.2-1.1 0-2.5c0 0 .7-.2.9.7m2.2 2.9s.5.7.2 1.3m-1.3 1.3s.4-.2 1.3-1.3c0 0 .2.4-.3.9s-.5.4-.6 1"/><path d="M256.9 64.6s.6.2.4.8c-.3.7-1.2 1.5-1.2 1.5m-2.7-2.4s.1-1.8-.6-3.1c0 0 .9-.4 1.3.2"/></g><g class="Ar"><g class="BA"><path d="M253.1 61.5s.7 1.8.6 2.9c0 0 1.3 1.3 2 3 0 0 .2.2.4.1s0-.8-.6-1.6c-.5-.7-1-1.3-1.5-1.8V64c.1-.4.2-2.7-.9-2.5z"/><path d="M254.3 61.8s.3 1.8-.2 2.8c0 0 .2.1.3-.2.2-.3.8-2.6-.1-2.6zm.8.7s0 1.6-.7 2.4c0 0 .3.2.5 0s1.2-2.2.2-2.4zm.8.7s-.4 1.6-1.3 2.2c0 0 .3.3.5.1.3-.2 1.7-1.9.8-2.3zm.5.8s-.6 1.3-1.4 2c0 0 .3.3.5.1s1.8-1.7.9-2.1zm.5.7s-.1.9-1.6 1.9c0 0 .3.5.6.3.3-.4 1.8-1.6 1-2.2zm.4.9s-.8 1.2-1.6 1.7c0 0 .3.5.6.2s1.7-1.4 1-1.9z"/></g><path d="M257.3 65.8s-.3.6-.6.9c0 0 .2.2.3 0 .1-.1.6-.8.3-.9zm-.3-.9s-.3.6-.7.9c0 0 .1.2.3.1.2-.2.7-.8.4-1zm-.5-.7s-.2.7-.6 1c0 0 .2.2.3 0s.6-.9.3-1zm-.6-.8s-.1.7-.4 1c0 0 .2.2.3 0s.5-.9.1-1zm-.7-.7s0 .7-.2 1.1c0 0 .2.1.3-.1 0-.2.2-1-.1-1zm-.8-.8s.2.7 0 1.2c0 0 .2.1.3-.1 0-.3.1-1.1-.3-1.1zm-1.2-.2s.4.8.5 1.5c0 0 .3 0 .3-.3-.1-.3-.3-1.4-.8-1.2z" class="BF"/><path d="M255 69.2s-3.1-.3-4.3-2.2c0 0-1.7.1-2.8-.6l-.3-.2s0 .1-.1.1c-.1.4-.1.6-.1.7s0 .2.1.3.1.1.1.2v.3c0 .2.1.4.2.5.1 0 .1.1.2.1s.2.1.2.1c0 .2.1.3.2.4.1.2.5.3.5.3a.55.55 0 0 0 .3.5c.1.1.3.2.5.2 0 0 .2.3.3.3.2.1.2.1.6.2 0 0 0 .1.1.2l.2.2s.1 0 .2.1h.2l.4.2c.2.1.4.1.4.1h.3c.1 0 .2-.1.2-.1.2 0 .5 0 .7-.1s.4-.4.6-.6c.2-.1.4-.1.6-.2.4-.2.8-.2 1.1-.3z" class="Aq BC BE BO"/></g><g class="Au BM Aq BE"><path d="M249.1 69.3s.2.7.9.7m1.6-.9s-.7.5-1.7.9c0 0 .3.7 1 .4.7-.2 1.4-1 1.4-1m-1.6-1.2s-.9.3-2.3.3c0 0 .1.7.8.8.7 0 1.9-.6 1.9-.6"/><path d="M250.3 67.8s-1.1.2-2.5-.1c0 0-.3.7.7.9m2.9 2.4s.6.6 1.3.2m1.3-1.3s-.3.4-1.3 1.3c0 0 .4.2.9-.3s.4-.5 1-.6m-3.9.2s.1.6.8.4c.7-.3 1.5-1.1 1.5-1.1m-2.3-2.8s-1.8 0-3.1-.8c0 0-.5.8.2 1.3"/></g><g class="Ar"><g class="BA"><path d="M247.8 66.6s1.8.8 2.8.6c0 0 1.2 1.4 2.9 2.1 0 0 .2.2 0 .4-.1.2-.8-.1-1.6-.6-.7-.5-1.3-1-1.7-1.5h-.1c-.3.1-2.6.1-2.3-1z"/><path d="M248 67.8s1.8.4 2.8-.1c0 0 .1.2-.2.3-.2.2-2.6.8-2.6-.2zm.7.9s1.6 0 2.5-.6c0 0 .2.3 0 .5-.3.1-2.3 1-2.5.1zm.7.8s1.7-.3 2.3-1.2c0 0 .3.3.1.5-.3.2-2 1.6-2.4.7zm.7.5s1.3-.5 2.1-1.3c0 0 .3.3.1.5-.2.3-1.7 1.7-2.2.8zm.8.5s.9-.1 1.9-1.5c0 0 .5.4.2.6-.3.3-1.6 1.8-2.1.9zm.9.4s1.3-.7 1.8-1.6c0 0 .5.3.2.6-.4.5-1.5 1.8-2 1z"/></g><path d="M251.9 70.9s.6-.2.9-.6c0 0 .2.2 0 .3-.1.2-.7.7-.9.3zm-.8-.3s.6-.3.9-.6c0 0 .2.2 0 .3-.1.1-.7.7-.9.3zm-.7-.5s.7-.2 1-.5c0 0 .2.2 0 .3s-.9.5-1 .2zm-.8-.6s.7-.1 1.1-.4c0 0 .2.2 0 .3-.3.1-1 .5-1.1.1zm-.7-.8s.7.1 1.1-.1c0 0 .1.2-.1.3s-1 .2-1-.2zm-.7-.8s.7.2 1.2.1c0 0 .1.2-.1.3-.3-.1-1.2 0-1.1-.4zm-.2-1.2s.8.5 1.4.5c0 0 0 .3-.3.3-.3-.1-1.3-.3-1.1-.8z" class="BF"/><path d="M248.6 62c.4-.3 1-.3 1.4.2.3.3.4.7.3 1 .2 0 .4.1.6.3s.3.5.2.8c.3-.1.7 0 1 .3.2.2.3.5.3.8L270 83.2l.7.1 3.7 3.9.2.9c.3-.1.6 0 .9.3s.3.7.1 1c.3-.1.8.1 1.1.5.4.5.5 1.1.2 1.3-.3.3-.9.1-1.3-.4-.4-.4-.5-.9-.3-1.2-.3.2-.7.1-1-.2-.2-.2-.3-.5-.2-.7l-1-.2-3.8-3.8-.1-.7-17.7-18c-.3 0-.6-.1-.8-.3-.3-.3-.3-.7-.2-1-.3.1-.6 0-.8-.3-.2-.2-.2-.4-.2-.6-.3.1-.7-.1-1-.4a1.07 1.07 0 0 1 .1-1.4z" class="Aq BE BM BO"/><path d="M251.1 64.5c.2-.2.6-.2.9.1s.2.6 0 .9c-.2.2-.6.2-.9-.1s-.3-.7 0-.9z" class="BA"/><path d="M251.5 64.6c.1-.1.3-.1.4 0s.1.3 0 .4-.3.1-.4 0-.1-.3 0-.4z" class="BF"/><path d="M250.1 63.5c.2-.2.5-.1.6.1.2.2.2.5 0 .6-.2.2-.5.1-.6-.1s-.1-.5 0-.6z" class="BA"/><path d="M250.4 63.6c.1-.1.2-.1.3 0s.1.2 0 .3-.2.1-.3 0v-.3z" class="BF"/><path d="M248.8 62.2c.3-.3.8-.2 1.1.1s.3.8 0 1.1-.8.2-1.1-.1c-.3-.4-.3-.9 0-1.1z" class="BA"/><path d="M249.3 62.3c.1-.1.3-.1.5 0 .1.1.1.4 0 .5s-.3.1-.5 0-.2-.4 0-.5z" class="BF"/><path d="M274.6 88.4a.53.53 0 0 1 .8.1c.2.3.2.6 0 .8a.53.53 0 0 1-.8-.1.61.61 0 0 1 0-.8z" class="BA"/><path d="M275 88.6c.1-.1.3-.1.4 0s.1.3 0 .4-.3.1-.4 0c-.1-.2-.1-.3 0-.4z" class="BF"/><path d="M276 89.9c.2-.2.5-.1.7.2s.3.6.1.8-.5.1-.7-.2-.3-.6-.1-.8z" class="BA"/><path d="M276.4 90.1c.1-.1.2 0 .3.1s.1.3 0 .3c-.1.1-.2 0-.3-.1s-.1-.3 0-.3z" class="BF"/><path d="M269.7 84.6l3.5 3.6.9.2.3-.3h.1l-.4-.9-3.3-3.6-.6-.1-.3.2-.3.4z" class="BA"/><path d="M270.4 84.2l-.5-.5-.1.1.4.5 3.4 3.3.7.6v-.1l-.6-.7z" fill="#fffd31"/><path d="M252.1 65.8h0c.1-.1.2-.1.3 0l16.4 16.6c.1.1.1.3 0 .4h0c-.1.1-.2.1-.3 0l-16.4-16.6c-.1-.1-.1-.3 0-.4z" class="BA"/><path d="M258.6 70c.9 1 2.9-.9.7 3-.7 1.3-1.7 2.5 0 4 .7.6 2 .5 3.2.2l-1-1.1c-.4.1-.8.1-1.3 0-.2 0-.4-.3-.5-.4-.2-.2-.2-.9.2-1.7.6-1.1 1.5-2.5.8-3.9-.5-1-.3-1.3-1.5-1.5-1.3-.1-1.3.7-.6 1.4zm5.2 6.9c.2 0 .2-.1.3-.1.7-.2.9.1 1.1.3.3.4.6 1.1.4 1.8-.3 1.3-1.1 1.6-2.3 1.8 0 .3 2.5.9 3.2-2.1.2-.7.1-1.5-.4-2.2-.5-.5-.8-.6-1.2-.7-.7-.2-1.4 0-2.1.2z" class="Aq At BE BO"/><path d="M260.4 70.8c0 .2-.1.5-.3.9-.4 1.1-1.7 2.7-1.6 3.7s1.2 1.8 2.5 1.8c.1 0 1.2-.2 1.3-.2l-.7-.7s-.4 0-.5.1c-3.4.2-.7-3.2-.5-3.8s.5-1.6 0-2.4 0-1.3-1.9-1.4c0 0-.6-.1-.4.6 0 0 .2.6.7.7.2.1.5 0 .7 0 .4.1.7.3.7.7z" class="BA"/><path d="M258.4 69.8s.1.3.3.3-.5-.6-.3-.3zm.3-1.1s.2-.1.4.1-.7 0-.4-.1z"/><path d="M258.6 69.2l.4.4c.2.1.9.1 1.3.7s.1 1.1-.1 1.7c-.2.5-1.2 2.1-1.4 3.2-.1.6.2 1.1.7 1.4.6.4 1.3.5 2.1.3l.6-.1-.3-.2c-.7.2-1.6.2-2.3-.2-.6-.4-.8-.9-.6-1.5 0-.2.1-.4.3-.7.4-.8 1.7-2.9 1-3.9l-.4-.4-.8-.5c-.1-.2-.2-.3-.5-.2z" class="BF"/><path d="M256 72.1s.3.1.3.3-.6-.5-.3-.3zm-1.2.3s-.1.2.1.4 0-.7-.1-.4z"/><path d="M261.8 77.5l.5-2.2 1.1.3-.5 2.2c-.1.4-.9-.1-1.1-.3z" class="BO"/></g><path d="M261.8 77.5l.5-2.2m1.2.3l-.6 2.3" class="Aq At Au BE"/><g class="Ar"><path d="M262.4 75.3l-.5 2.1c-.2.9-.2 1.5.2 2 .6 1 2.1 1.4 3 .5l-.2-.2c-1.3.3-2.6-.6-2.1-2.1v-.2l.5-2z" class="BA"/><path d="M255.2 72.2s.3.3.4.5c0 .2 0 .9.5 1.4.6.4 1 .2 1.7.1.2 0 .5-.2 1-.3l-.1.2c-.9.3-2 .5-2.6.1-.1-.1-.3-.3-.4-.5 0 0-.3-.7-.4-.8-.1-.2-.2-.4-.1-.7zm5.3 1c.3-.1.5-.1.7-.1.7-.1 1.2 0 1.6.7.5.8-.3 2.6-.5 4-.1.9.2 2 1.3 2.2h.8c.3 0 .5-.2.5-.2h0c-.5.3-1.5.4-2.1-.1-.7-.5-.8-1.2-.7-2.1.2-1.4.9-3 .4-3.8-.1-.3-.4-.5-.6-.6-.3-.1-.8 0-1.2.1-.1 0-.3 0-.4.1z" class="BF"/><path d="M263.3 76.3l.1-.4c.4 0 .7-.1 1-.1.5 0 .9.1 1.2.3 1.8 1.3.5 5.2-1.9 4.7.5-.1 1-.3 1.3-.5 1.5-1.1 1.1-3.3-.3-3.7-.3-.1-.5 0-.9.1h-.2l-.1-.1zm3.2 3.1s0 .1.1-.1.5-.6.3-1.6l-.2.5c.1 0 .1.4-.2 1.2z" class="BA"/><path d="M263.4 76.5c.5-.1 1.1-.2 1.6 0a2.17 2.17 0 0 1 1 1.1c.4 1.1.2 2.4-1.5 3.2 0 0 1.3-.4 1.7-1.6.1-.5.2-1-.1-1.8-.3-.7-1.1-1.2-1.8-1.2-.3 0-.6 0-.9.1h0z" class="BF"/><g class="Ax"><path d="M221 72.7l.1 6.7c-.1 2.8 1.1 3.7 1.3 6.7.2 2.2.8 3.6 1.2 4.6l.2.2 2.4 6.5c.3 1 .6 2.5.5 3.8 0 .2-.1.5-.2.7 0 .3.3.7.2 1-.2.5-.1 1.1-.2 1.6 0 .2-.3.5-.3.7 0 .3-.1.6.1.7.3.3.7.3.8-.2.1-.4 0-.5.1-.5 0 0 0 .2-.1.5 0 .5.2.6.4.5.2 0 .2-.2.2-.2.1-.1.1-.8.1-.8 0 .4-.1 1 .3 1 0 0 .2 0 .3-.1.1-.3.1-.9.1-.9v.5c0 .3.1.5.4.5.2 0 .2-.2.2-.5l-.1-.6v.3c0 .2 0 .6.2.7 0 0 .2.1.3-.1 0-.1.1-.2.1-.3s-.1-.4-.1-.6.2-.9.1-1.2c-.1-.5.2-.8-.1-1.6 0 0 .1-.3-.1-.8-.1-.3-.3-.7-.4-1.1-.1-.7 0-1.5-.1-1.5-.2-.2-.2-2.6-.1-5.2s.3-7.1-.7-10.5c-.9-.8-.8-1.5-.7-2s.4-4.4.7-5.2c.4-.8.7-4.2.7-4.2s-.8-1.6-1.1-2.1-1-1.8-3-.6c-1.6 1.2-3.2 2.4-3.7 3.6z" class="Aq As Aw"/><path d="M226.8 99.9v1.3c0 .2-.1.5-.2.7 0 .3.3.7.2 1-.2.5-.1 1.1-.2 1.6 0 .2-.3.5-.3.7 0 .3-.1.5.1.7.3.3.7.3.8-.2.1-.4 0-.5.1-.5 0 0 0 .2-.1.5 0 .4.2.6.4.5s.2-.2.2-.2c.1-.1.1-.8.1-.7 0 .4-.1 1 .3 1 0 0 .2 0 .3-.1.1-.3.1-.9.1-.9v.5c0 .3.1.5.4.5.2 0 .2-.2.2-.5l-.1-.6v.3c0 .2 0 .6.2.7 0 0 .2.1.3-.1 0-.1.1-.2.1-.3s-.1-.4-.1-.6.2-.9.1-1.2c-.1-.5.2-.8-.1-1.6 0 0 .1-.3-.1-.8-.1-.3-.3-.7-.4-1.1v-.5c-.8-.1-1.6-.1-2.3-.1z"/></g><path d="M215.4 44s-.6 1.7-.7 2.8c0 0-.3-.6.1-1.9.5-1.2.3.1.6-.9z" class="Av"/><path d="M226.1 34.8c1.1 0 1.9-.3 2.6-1.2.4-.6.6-1.3.7-1.4 0-.1.2 0 .3 0s.3-.1.3-.2-.1-.1-.1-.3c0-.1.1-.2.1-.3 0-.2.2-.3.2-.5 0-.1-.1-.3-.1-.3l-.2-.1c-.1-1.1-.3-1.9-.9-2.1-1-.5-4.7-.9-5 1v.7.3.4c0 .6-.3.5-.1 1.3.1.6.3 1.5.7 2 .4.6.3.8 1.5.7z" class="Aq As At Ax"/><path d="M226.5 30.3s.3-.4 1.2-.2l.3.2s-1 .6-1.5 0z" class="BN"/><path d="M227 30c.1 0 .3.1.3.3 0 .1-.1.3-.3.3-.1 0-.3-.1-.3-.3s.2-.3.3-.3z" class="Ba"/><path d="M227 30.1c.1 0 .1.1.1.1 0 .1-.1.1-.1.1l-.1-.1s0-.1.1-.1z"/><path d="M226.3 29.3l-.1.4s0-.1.3-.2h1.4l.3.2s-.1-.3-.5-.4c-.3-.1-.9-.1-1.4 0zm-1.2 0l.1.3s0-.1-.2-.1h-1l-.2.2s.1-.2.3-.3c.3-.2.6-.1 1-.1z" class="Av"/></g><g class="Aq As At Au"><path d="M211.9 95.3s-.4-.1-.3-.4m-4.8-3.5c-.2 0-.4 0-.3.3 0 .2.3.5.4.2v-.2m5.2 2.8c.2.2 0 .5-.1.2m-2.5-1.7c-.2 1.2 0 1.6-.3 2.9-.1.3-.4 1.8-.1 2m1.6-5.2c-1.4-.1.6-.9-.7-1.2-.6-.1-.2-.8-.5-1.2h0m-1.4.6c.4 0 .5-.6.6-.2.2 0 .9-1.2.9-1.3m.1-1.1c-.2-.7-.4-.5-.2-1.2.1-.3-.2-1.4 0-2h-.1m-1.2-1.2c-.1.4-.5 1.9-.2 2.4.1.2-.1.3.1.7"/><path d="M208.9 85.4c-.4.7 0 .4 0 .8 0 .5 0 .9.2 1.3v.1m1.6 3.5c-.5-.8-.3-1.6-.4-1.7 0-.1-.1-.1-.2-.2m0-6.6v.6c0 .5.2 0 .1.6 0 .2.2-.1.2.4 0 .1.2.8.2 0v-.1m-.2-6c.2 1.4.1 1.3.1 2.2m-2-2.1c.2.1.3 1.4.3 1.7l-.1 2.4v.3m.6-2.2c-.7.9.2.4-.1 1.2-.1.3.2.7.2.7l-.1 1.3m-1.1-2.2s-.5 1.9-.2 2"/><path d="M208.8 74.2c-.1.4-.6 2.1-.5 2.5.1.6.2.8.2 1.5v.1m1.5-3.8c-.2.9.3.9.3 2.3v.2m-.8 23.4s-.2.6.1.8-.1.3.3.5c.1.1-.1.2.3.4 0 0 .1.5.1.2m1.1-1.3c-.1-.3-.2-.1-.2-.1-.3.8.1.3 0 .6s-.4 0 0 .4c.2.2-.2.2 0 .5.1.1-.1.3 0 .5v-.1m-.8 0c.6-.4.3-.4.3-.8m-2.3-.3c.7.4.3.1.7.3.1 0 .1.1.1.2m-1.2-6.6l-.1 3.6c-.1.4.1 1.2.1 1.7l.2-.3m1-1.1c0-.2.3-2.9.3-3m1.4-1.4c0 1.3.2 2 .4 3.3 0 .2.1 1.6 0 1.8M209.5 69c.2.6 0 1.4.2 2.3.1.3 0 1.1 0 1.5m-.8-4.3c-.1.5-.2 1 .3 1.1 0 .1-.1.3.1.5s-.1 1.2.1 1.3c.1.1-.1 1.6-.1 1.8m.8-3.2c-.1.7.2 2.7 0 3-.1.1-.2.4-.3.5"/></g><g class="Ar Av"><use xlink:href="#H"/><use xlink:href="#I"/><use xlink:href="#I" y="0.5"/><use xlink:href="#H" x="-0.1" y="1.3"/><use xlink:href="#I" y="1.3"/><use xlink:href="#I" x="-0.1" y="1.8"/><use xlink:href="#H" x="-0.2" y="2.7"/><use xlink:href="#I" x="-0.2" y="2.7"/><use xlink:href="#I" x="-0.2" y="3.3"/><use xlink:href="#I" x="-0.2" y="4.1"/><use xlink:href="#H" x="-0.4" y="5.1"/><use xlink:href="#I" x="-0.4" y="4.9"/><use xlink:href="#H" x="-0.5" y="5.8"/><use xlink:href="#I" x="-0.4" y="5.8"/><use xlink:href="#I" x="-0.4" y="6.1"/><use xlink:href="#I" x="-0.3" y="6.5"/><use xlink:href="#I" x="-0.6" y="6.9"/><use xlink:href="#I" x="-0.6" y="7.3"/><use xlink:href="#I" x="-0.5" y="7.9"/><use xlink:href="#H" x="-0.5" y="4.3"/><use xlink:href="#H" x="-0.6" y="9"/><path d="M232.2 58.3s0-.2-.6 0c0 0-.1-.2.6-.3s.1.6.1.6z"/><use xlink:href="#J"/><path d="M232.1 59.3s0-.2-.6 0c0 0-.1-.2.6-.4.7-.1.1.6.1.6z"/><path d="M232 59.7s0-.2-.6 0c0 0-.1-.2.7-.4.7-.1.1.6.1.6z"/><use xlink:href="#J" x="-0.1" y="1.3"/><use xlink:href="#J" y="1.7"/><use xlink:href="#J" x="-0.2" y="2.2"/><use xlink:href="#J" y="2.6"/><use xlink:href="#J" x="0.1" y="3"/><use xlink:href="#G" x="-3.3" y="19.9"/><use xlink:href="#G" x="-3.3" y="20.3"/><use xlink:href="#G" x="-3.3" y="20.8"/><use xlink:href="#K"/><use xlink:href="#G" x="-3.4" y="21.7"/><use xlink:href="#G" x="-3.4" y="22.1"/><use xlink:href="#G" x="-3.5" y="22.6"/><use xlink:href="#G" x="-3.5" y="23.4"/><use xlink:href="#G" x="-3.6" y="24.1"/><use xlink:href="#G" x="-3.6" y="24.6"/><use xlink:href="#K" x="-0.3" y="4"/><use xlink:href="#G" x="-3.9" y="25.7"/><use xlink:href="#G" x="-3.9" y="26.1"/><use xlink:href="#G" x="-4.1" y="26.6"/><use xlink:href="#G" x="-4.2" y="27.2"/><use xlink:href="#G" x="-4.2" y="27.7"/><use xlink:href="#G" x="-4.2" y="28.2"/><use xlink:href="#G" x="-4.4" y="28.8"/><use xlink:href="#L"/><use xlink:href="#L" x="-0.1" y="0.6"/><use xlink:href="#L" y="1"/><use xlink:href="#L" x="-0.2" y="1.4"/><use xlink:href="#L" x="-0.2" y="1.8"/><use xlink:href="#L" x="-0.2" y="2.2"/><use xlink:href="#L" x="-0.3" y="2.6"/><use xlink:href="#L" x="-0.3" y="3.1"/><use xlink:href="#L" x="-0.4" y="3.5"/></g><g class="Aq"><path d="M225 29.4c0 .1.3.2.5.4.1.3.1.6.1.7-.2.3-.7 1-.5 1.3.3.3.6.1.6.1s0-.2.3-.1 0 .2 0 .2.3 0 .3-.2-.2-.2-.4-.2" class="As Au BC"/><path d="M223.4 28.1s.3-2.1-2-3.1c0 0 1.1-3.5 6.1-3 0 0-.6 1.8-.2 3.5 0 0 0-2.8.6-3.6 0 0 4.5 1.3 5.8 4 0 0-2.7.8-3.1 2.8-.2-.2-1.3-1.4-3.3-1.5-2.2-.2-3.3.6-3.3.6z" fill="#411514" class="Ar At Az"/></g><path d="M224.7 33.2s.3-.1.5-.2c.2-.2.4 0 .4.1s.2-.2.4-.1c.3.2.5.3.7.3.2-.1-1.3.6-2-.1z" fill="#c9991e" class="Ar"/><path d="M225.5 32.4s-.1.2-.1.4m.5-.4s.1.2.1.4" class="Aq As Au BM"/><g class="Ar"><g class="Bb Bc Aq"><path d="M230.3 28.9s1.9 1.2 1.8 2.8c0-.1-1.1-1.9-2.3-1.7 0 0-.1 0-.1.1.2.2 1.1.8 1.3 1.4 0 0-.4-.4-.6-.1s.1 1.1.3 1.4c.1.2.2.6.3.9.1.2.3.3.3.4 0 0-.4-.3-.6-.4-.2-.2-.3-.4-.5-.4-.3-.1-.3.4-.1.6s.2.2.2.4c0 0-.1-.4-.4-.4s-.3.6-.2.7c-.5-.1-.4-.2-.7-.4-.1-.1 0 0 .3-.5.2-.4.2-.8.2-1.2 0-.1.4-.2.4-.2v-.4-1.3c-.3-.2-.6 0-.7.2s-.1.5-.1.7c0 .1-.1.1-.1.3v.2s-.2 0-.3-.1-.1-.1-.1-.2c.3-1-.2-3.1-.2-3.1.2-.1.4-.1 1.1.4h0z" class="At"/><path d="M223.8 28.6s.1 1.2-.4 1.5c0 0-.6.2-.8 1.1l-.1.6s.5-1.3 1-1.3l.2.1s-.4.2-.7.9c-.3.6-.4 1.1-.4 1.1s.5-1 1-1c.4-.1-.5 1-.6 1.2l-.5 1.4c.2-.1.7-1 .8-1.4 0 0 .5-.1.4.4s-.3 1.5-1.2 1.9c0 0 .4.1 1-.1 0 0-.1.2.2.2.5 0 .8-.3.8-.9 0 0-.5-.7-.6-1.6 0-.3-.2-.9-.1-1 .1-.2.2-.3.2-1.1 0-.4-.1-.6 0-1 0-.2.1-.5.2-.6z" class="BC"/></g><path d="M223.7 30.1c-.3 0-.7.4-.9.7-.2.4-.2.6-.2.6.1-.3.5-.9.9-1.1 0 0 .2-.1.2-.2zm0 .7c-.2.1-.4.3-.6.5s-.4.8-.4.8c0-.2.2-.4.4-.6.4-.6.6-.6.6-.7zm-.1 1.1s-.5.4-.9 1.6c0 0 .5-1.1.8-1.5zm.1 1.8s-.2.7-.7 1c0 0 .7-.2.8-.7zm6.5-.9s.4.4.5.7c0 0-.1-.5-.5-1zm0-3.6s1.1.7 1.6 1.8c-.6-.8-1.7-1.5-1.9-1.7zm-.2 1.3s.5.3.7.6c0 0-.2-.2-.7-.4zm-.5 2.7s0 .5-.1.9c0 0 .3-.4.3-.9z" class="BW"/></g><path d="M224.8 33.2h.6.3c.2-.1.7.1 1.1 0" class="Aq As Au BM"/><g class="Ar"><path d="M225.1 30.3s-.3-.4-1-.2v.3c.3.2.8.2 1-.1z" class="BN"/><path d="M224.4 30.1c-.1 0-.2.1-.2.2s.1.2.2.2.2-.1.2-.2-.1-.2-.2-.2z" class="Ba"/><path d="M224.4 30.2c-.1 0-.1.1-.1.1 0 .1 0 .1.1.1s.1-.1.1-.1c0-.1 0-.1-.1-.1z"/></g><path d="M201.4 107.6l23.1.1m-20.4-.9l23.2.1m-19.5.3l17.4.1m-22.6-.8h10.6m-10.7-.7l5.5.1m3.7 0l4.5.1" class="Aq As At Au"/><g class="Ar"><path d="M223.6 35.9s.3.1.3.3.4.2.5.6c0 .4.6-.1.9.6 0 0 .5-.1.7.1s.3-.2.8 0c.4.2.5-.4.9-.2s.2-.6.8-.5c.5.1.4-.8.9-.7s.3-.8.7-.8 1-.7.8-.2c-.1.5-.8 1.5-1 1.7-.3.2-.7.2-.9.5-.3.3-.5.5-.8.6s-.7.4-1.5.3l-.8-.2s.1.1-.4 0c-.5-.2-.9 0-1.1-.3-.1-.3-.6-.5-.7-.7-.1-.3-.7-.2-.6-.7.2-.6-.1-.6.5-.4z" class="Av"/><path d="M226.6 37.7c.3 0 .5.3.5.5s-.2.5-.5.5-.5-.3-.5-.5.2-.5.5-.5z" class="BG"/><path d="M226.6 37.8c.2 0 .4.2.4.4s-.2.4-.4.4-.4-.2-.4-.4c0-.3.2-.4.4-.4z" class="BH"/><path d="M226.7 37.8c.2 0 .3.1.3.3 0 .1-.1.3-.3.3s-.3-.1-.3-.3.1-.3.3-.3z" class="BI"/><path d="M226.7 38c.1 0 .1.1.1.1 0 .1-.1.1-.1.1-.1 0-.1-.1-.1-.1-.1-.1 0-.1.1-.1z" class="BJ"/><path d="M225.7 37.5c.3.1.4.5.3.6s-.4.3-.7.2-.4-.5-.3-.6.4-.3.7-.2z" class="BG"/><path d="M225.7 37.6c.2.1.3.3.2.5s-.3.3-.5.2-.3-.3-.2-.5.3-.3.5-.2z" class="BH"/><path d="M225.7 37.7c.2.1.2.2.2.4-.1.1-.2.2-.4.1s-.2-.2-.2-.4c.1-.1.3-.2.4-.1z" class="BI"/><path d="M225.7 37.8c.1 0 .1.1.1.2s-.1.1-.2.1-.1-.1-.1-.2.1-.1.2-.1z" class="BJ"/><path d="M227.5 37.5c-.3.1-.4.5-.3.6s.4.3.7.2.4-.5.3-.6-.4-.3-.7-.2z" class="BG"/><path d="M227.5 37.6c-.2.1-.3.3-.2.5s.3.3.5.2.3-.3.2-.5-.3-.3-.5-.2z" class="BH"/><path d="M227.5 37.7c-.1.1-.2.2-.2.4 0 .1.2.2.4.1.1-.1.2-.2.2-.4-.1-.1-.3-.2-.4-.1z" class="BI"/><path d="M227.5 37.8c-.1 0-.1.1-.1.2s.1.1.2.1.1-.1.1-.2-.1-.1-.2-.1z" class="BJ"/><path d="M228.4 37c-.3.2-.3.5-.2.7.1.1.4.3.7.1s.3-.5.2-.7c-.1-.1-.5-.2-.7-.1z" class="BG"/><path d="M228.4 37.1c-.2.1-.3.3-.1.5.1.2.3.2.5.1s.3-.3.1-.5c-.1-.1-.3-.2-.5-.1z" class="BH"/><path d="M228.4 37.2c-.1.1-.2.3-.1.4s.3.2.4.1.2-.3.1-.4c-.1-.2-.2-.2-.4-.1z" class="BI"/><path d="M228.5 37.3c-.1 0-.1.1-.1.2s.1.1.2 0c.1 0 .1-.1 0-.2h-.1z" class="BJ"/><path d="M224.8 37c.3.2.3.5.2.7-.1.1-.4.3-.7.1s-.3-.5-.2-.7c.1-.1.5-.2.7-.1z" class="BG"/><path d="M224.8 37.1c.2.1.3.3.1.5-.1.2-.3.2-.5.1s-.2-.3-.1-.5c.1-.1.3-.2.5-.1z" class="BH"/><path d="M224.8 37.2c.1.1.2.3.1.4s-.3.2-.4.1-.2-.3-.1-.4c.1-.2.3-.2.4-.1z" class="BI"/><path d="M224.7 37.3c.1 0 .1.1 0 .2 0 .1-.1.1-.2 0-.1 0-.1-.1-.1-.2h.3z" class="BJ"/><path d="M229.1 36.3c-.2.2-.2.6-.1.7s.5.2.7 0 .2-.6.1-.7-.5-.2-.7 0z" class="BG"/><path d="M229.1 36.4c-.2.1-.2.4 0 .5.1.1.4.2.5 0 .2-.1.2-.4 0-.5-.1-.1-.3-.1-.5 0z" class="BH"/><path d="M229.2 36.5c-.1.1-.1.3 0 .4s.3.1.4 0 .1-.3 0-.4c-.2-.1-.3-.1-.4 0z" class="BI"/><path d="M229.3 36.6c-.1 0-.1.1 0 .2 0 .1.1.1.2 0s.1-.1 0-.2-.2-.1-.2 0z" class="BJ"/><path d="M229.9 35.6c-.2.2-.2.6 0 .7.1.1.5.1.7-.1s.1-.6 0-.7-.5-.1-.7.1z" class="BG"/><path d="M229.9 35.7c-.2.2-.2.4 0 .5.1.1.4.1.5 0 .2-.2.2-.4 0-.5-.1-.2-.4-.2-.5 0z" class="BH"/><use xlink:href="#M" class="BI"/><path d="M230 35.8c0 .1-.1.1 0 .2h.2c0-.1.1-.1 0-.2h-.2z" class="BJ"/><path d="M230.6 34.8c-.2.2-.2.6 0 .7.1.1.5.2.7-.1s.1-.6 0-.7c0-.1-.5-.1-.7.1z" class="BG"/><path d="M230.7 34.9c-.1.2-.2.4 0 .5.1.1.4.1.5 0 .1-.2.2-.4 0-.5-.1-.2-.4-.2-.5 0z" class="BH"/><use xlink:href="#M" x="0.8" y="-0.8" class="BI"/><path d="M230.8 35c-.1.1-.1.1 0 .2h.2c.1 0 .1-.1 0-.2h-.2z" class="BJ"/><path d="M224.2 36.4c.2.2.1.6 0 .7s-.5.1-.7-.1-.1-.6 0-.7.5-.1.7.1z" class="BG"/><path d="M224.1 36.5c.1.2.1.4 0 .5-.2.1-.4.1-.5-.1s-.1-.4 0-.5c.2-.1.4-.1.5.1z" class="BH"/><path d="M224.1 36.5c.1.1.1.3 0 .4s-.3.1-.4 0-.1-.3 0-.4.3-.1.4 0z" class="BI"/><path d="M224 36.6v.2h-.2v-.2h.2z" class="BJ"/><path d="M223.6 35.7c.2.2.1.6 0 .7s-.5.1-.7-.1-.1-.6 0-.7c.1-.2.5-.2.7.1z" class="BG"/><path d="M223.5 35.7c.1.2.1.4 0 .5-.2.1-.4.1-.5-.1s-.1-.4 0-.5c.2-.1.4 0 .5.1z" class="BH"/><path d="M223.5 35.8c.1.1.1.3 0 .4s-.3.1-.4-.1c-.1-.1-.1-.3 0-.4s.3 0 .4.1z" class="BI"/><path d="M223.4 35.9v.2h-.2v-.2c.1-.1.2-.1.2 0z" class="BJ"/></g><g class="Aq At"><path d="M229.3 30.8c.1-.1.3-.2.4-.3.1 0 .3.1.3.3 0 .6-.3.8-.2 1 .1.1-.1.3-.3.3h-.3" class="As Au"/><path d="M227.2 27.1c2.2.2 3.4 1.6 3.4 1.6s-.3 1.2-1.1.6c-1.5-1.1-3.6-1.1-5.3-.5-.9.4-.9-.9-.9-.9 1.2-.8 2.5-1 3.9-.8z" fill="#ff001f" class="Ar Az"/></g><path d="M228.7 28.8l.2 1.7s.2.2.1-.2c-.1-.3 0-.7-.3-1.5z" class="Ar BW"/><path d="M226.5 30.3s.5-.6 1.6 0c0 0-.3.3-.8.3-.6 0-.7-.2-.8-.3zm-2.4-.2v.3c0 .1.8.2 1-.2 0 0-.2-.3-.7-.2 0 .1-.1.1-.3.1z" class="Aq Au Az BC"/><g class="Ar"><path d="M222.2 84.5s2.1 1.7 2.3 5.5c0 0 .3 1.4.5-5.1 0 0 .5-2.4 1.3-1.4s-.3-.6-.4-2.1-.8 1.6-1.7 1.9c-.9.2-2.2.3-3.1-2.8.2 1.6.8 2.5 1.1 4z" class="Av"/><path d="M221.4 99.6v.8c.1 1.3-.9 2.3-1.9 3.1-.6.5-1.3.8-1.7 1-.3.1-.3.2-.5.3l-.4.2c-.1 0-.3.2-.3.3v.1c0 .1.1.1.2 0 0 0-.1 0 .2-.2.2-.1.4-.1.4-.1s-.2 0-.4.1c0 0-.2.1-.2.2 0 0-.1.1-.1.2s.2.2.2.1c.1 0 .1-.1.1-.1.1-.2.6-.3.8-.3 0 0-.6.1-.7.2 0 .1-.1.1-.1.1 0 .1 0 .3.2.3s.1-.1.2-.2c.2-.1.8-.1.9-.2 0 0-.2 0-.4.1-.2 0-.3 0-.4.1-.4.2-.1.8.5.7.3 0 .6-.3.9-.3.2 0 .6 0 .9-.1s.5-.4.6-.5c.4-.3 1.2-.6 1.6-.6 1.1-.1 2.3.2 2.6-1.1.1-.6-.2-1.2-.2-1.4 0-.4-.2-1.1-.2-1.5v-1l-2.8-.3z" class="Ax"/><path d="M221.1 99c.3.2.9.3 1.7.3 1.1 0 1.2-.1 1.8-.3.2 0 .4.4.1.8-.3.6-3.3.6-3.7.1-.2-.2-.2-.4-.2-.7.1-.1.3-.3.3-.2z" fill="#900" class="Aq At BK"/><path d="M224.3 99.4h0c.2.7-3.1.7-2.6 0 .9.3 2.2 0 2.6 0z" fill="#d2393b"/><path d="M223 99.5c.4 0 .6.1.6.2s-.3.2-.6.2c-.4 0-.6-.1-.6-.2-.1-.1.2-.2.6-.2z" fill="#e68f90"/><path d="M217.4 105.7s.4.1.5.2c0 0 .2-.1.2-.2 0 0-.3-.2-.7 0zm-.5-.1s.1.1.2.1c.1.1.1-.4-.2-.1zm-.3-.1s.1.1.2.1c.1.1.2-.4-.2-.1zm-.2-.3s.1.1.2.1c.1.1.2-.3-.2-.1z" class="Av"/><path d="M226.5 99.3c.2.2.7.3 1.3.3.9 0 .9-.1 1.5-.3.2 0 .3.4.1.8-.3.6-2.6.6-2.9 0-.1-.2-.2-.4-.1-.7-.1 0 .1-.2.1-.1z" fill="#900" class="Aq At BK"/><path d="M229 99.7h0c.1.7-2.5.7-2.1 0 .7.3 1.8 0 2.1 0z" fill="#d2393b"/><path d="M228 99.8c.3 0 .5.1.5.2s-.2.2-.5.2-.5-.1-.5-.2c-.1-.1.2-.2.5-.2z" fill="#e68f90"/><g class="Av"><path d="M226.5 105.7s.4.1.5.2c0 0 .1-.3 0-.4-.1-.2-.5-.2-.5.2zm.8.3h.4s0-.3-.2-.4c-.1 0-.2.1-.2.4zm.7 0h.4s0-.3-.2-.3c-.1 0-.2.1-.2.3zm.7 0h.4s0-.3-.2-.3c-.1-.1-.2.1-.2.3z"/><path d="M229.3 105.9h.3s0-.2-.1-.2c-.2-.1-.2 0-.2.2zm-11.9-.2s.1-.1.1-.3v.2s.1-.1.1-.2 0 .1 0 .2.1-.1.2-.2c0-.1 0 0 0 0s.1.1 0 .1h0s.1 0 .1-.2c0-.1 0 .1 0 .1s.2-.1.2-.2 0 .1 0 .1.2-.1.2-.2v.1s.1 0 .2-.1c0-.1 0 .1 0 .1l-.1.1c-.1 0-.2 0-.3.1h-.2-.1-.1-.2c-.1.2-.1.3-.1.3z"/><path d="M217 105.5s.1-.2.1-.3v.2s.1-.1.1-.2.1.1 0 .1c0 0 .1-.1.1-.2s0 0 0 0 .1.1 0 .1h0s.1 0 .1-.1 0 .1 0 .1.1-.1.1-.2 0 .1 0 .1.2-.1.2-.2v.1s.1 0 .1-.1 0 .1 0 .1l-.1.1c-.1 0-.3 0-.4.1h-.1-.1c-.1 0-.1.1-.1.1v.2z"/><path d="M216.7 105.3s.1-.2.1-.3v.2s.1-.1.1-.2 0 .1 0 .1.1-.1.1-.2 0 0 0 0 .1.1 0 .1h0s.1 0 .1-.1 0 .1 0 .1.1-.1.1-.2 0 .1 0 .1.2-.1.1-.2v.1s.1 0 .1-.1 0 .2 0 .2l-.4.1s-.1.1-.2.1c0 .2-.1.2-.1.2zm11.2.4s0-.2-.1-.3h.1s0-.2-.1-.3c0 0 .1 0 .1.1s0-.2-.1-.2l.1.1v.6z"/><path d="M227.9 105.7s0-.2.1-.3h-.1c0 .1.1-.2.1-.2s-.1 0-.1.1.1-.2.1-.2l-.1.1c0-.1 0 .4 0 .5z"/></g></g><path d="M238.2 45.5c-.1.1-.3.2-.4.1m.8 0c-.1-.1-.2-.4-.1-.6m.7.4c-.1 0-.3.1-.4 0" class="Aq As Au BL BP"/><path d="M226.9 101.5c-.2.3-.2.7.1.9zm-2.9 0s0 .4-.5.6c0 0-.4 0-.2-.3 0 0-.2.3.1.4l.4.2s.3-.5.2-.9z" class="Ar Av"/><g class="Aq As Au"><path d="M229.6 31.2s-.1 0-.2.1v.2l.1.2s.2-.2 0-.4" class="BM"/><path d="M229.4 30.9s.2-.1.3 0 0 .3 0 .4-.1.5-.1.6c-.1 0-.2-.1-.2-.1" class="BC"/></g><g class="Ar"><g fill="#fc922c" class="At Bd Aq"><path d="M222.4 24.7s1.2 2.4 1.6 2.5c.3.1 0-.8-.6-1.8-.2-.3-1.6-2.4-1-.7z"/><path d="M223.1 23.9s-.1-1.1.6-.9c.3.1.5.9.8 1.7l.8 2c-.2.8-.8-.5-1.3-1.6l-.9-1.2zm1.5-.8s-.1-1.2.8-.5c.4.3.3 1.1.4 1.9.1 1 .4 1.9.4 1.9s-.3 1-.6-.1c-.5-1-1-3.2-1-3.2zm3.6-.7s.9-.6.8.9c0 .4-.3.9-.4 1.4-.3 1.2-.4 2.4-.6 2.3-.3-.1-.5-.4-.4-1.5 0-.3.2-.5.3-.8l.3-2.3zm1.9.8c-.2.3-.3 1.1-.7 1.9-.4.7-1 1.3-.9 1.6.2.7.4.6.6.5.4-.2.9-1.5 1-1.6.4-.9.9-1.6.8-1.8-.1-.3-.3-1-.8-.6zm-.6 4.1c.4-.5 1.1-.7 1.4-1.2l1-1.5s.5-.2.9.4c.1.2-.6.9-1.3 1.6-.6.7-1.2 1.4-1.5 1.3-.7-.6-.5-.6-.5-.6zm-3-5.1s-.3.2-.3.8c.1.5.1 3.3.3 3.4s.2.4.5.3.2-.6.2-.9c0-.2-.2-3.4-.2-3.4s-.2-.5-.5-.2z"/></g><path d="M233 25.4l-.4.4.7-.2c.1.1-.4-.4-.3-.2zm-11-1l.3.5h-.5c-.1 0-.1-.2.2-.5z" fill="#a7190d"/><path d="M221 74.1s.1-.3-.1-.4c-.6-.2-2-.4-2.3-.4-.1 0 1.5.8 1.4.8-.6 0-1.2-.1-1.6-.5-.8-.7.1 1 2.2 1 0 0-1.4.3-2.1-.3s.4 1.2 2 1c0 0-1 .3-1.7-.1-.6-.4.3.8 1.2.7 0 0 .5 0 .8-.1-.1.8-1.9.2-2.1.3-.3.1 1.5.9 2 .6.2-.1-.1.6-1.6.3-.1 0-.1-.1-.2.1 0 .2.1.5 1.6.4 0 0-.3.5-1.4.5 0 0-.3 0-.4-.1-.1 0-.1.4 1.4.4 0 0-.6.3-1.3.2 0 0 .3.4 1.3.4 0 0 0 .3-1.1.3 0 0 .1.3 1.4.3 0 0-.8.4-1.5.3 0 0 .2.6 1.4.5 0 0-.3.4-.8.4 0 0-.1.4.7.3l.5-.1s-.3.5-.9.6c0 0 .4.3.8.1 0 0-.4.5-.6.5-.2-.1.4.3.8.1 0 0 0 .3-.4.4-.4 0 .4.4.7.2.4-.2-.2.4-.8.4 0 0 .8.3 1.1.1 0 0-.3.3-.7.4 0 0 .4.2.8.1s-.2.3-.5.3c-.2 0 .2.2.6.2h.4s-.3.5-1 .5c-.7-.1.3.5.9.4s-.2.5-.6.5.4.7 1 .6c.7-.1-1 .5-1.3.5s.3.5 1 .3.2.5-.7.6.6.2 1.1.1-.3.7-.9.7.4.4 1.1.3c.7-.2-.2.6-.4.6s-1 .5.6.3c0 0 .1.2-.2.3-.2.1-.5.2-.5.2s.2.3.8.2.1.3.1.3l-.4.1s-.2.4.5.3.4.2.3.3c-.1 0-.4.5.1.5.5-.1.3.4.1.4-.1 0-.7.1-.7.1s.3.4.9.3c.5-.1-.1.4-.1.4s-.2.1-.5 0 .3.5.9.4c0 0 0 .2-.3.2s-.5-.1-.5-.1-.1.4.9.4c0 0-.3.4-.7.4 0 0 0 .3.7.3 0 0 0 .3-.6.3 0 0 0 .2.5.2 0 0-.1.4-.6.4 0 0 .1.3.6.3 0 0 0 .3-.5.3 0 0 0 .2.6.2 0 0-.2.4-.4.4s.1.4.5.2v-2.6l-.1-2.3-.9-2-.4-1.3-.3-1.6-.2-1-.4-2.4-.8-2.5-.1-3.1z" class="Av"/><path d="M223.7 22.8s.5.4.6.8c0 0 .1-.1 0-.5s.1-.5.1-.5-.3-.1-.7.2zm1.7-.5s.4.5.5.9 0-.7.2-1c.3-.2-.9 0-.7.1zm-2.5 1.1s-.1.4 0 .5.3.6.3.6-.3-.3-.6-.4-.2-.3 0-.4c0-.2.2-.3.3-.3zm1.4 3.3s0 .4-.1.5c0 .1.2 0 .4-.1.4-.1-.2-.4-.3-.4zm1.1-.1v.4c-.1.1.3 0 .3 0 0-.1-.2-.2-.3-.4zm.8-.2s0 .3-.1.4.2.1.4 0c.1 0-.2-.5-.3-.4zm1.1 0l-.2.4c-.1.1.3.1.4.1s0-.3-.2-.5zm1 .4l-.1.3s.2.1.3.1c.1-.1-.1-.3-.2-.4.1-.2 0-.2 0 0zm2.9-3l-1.2 2.7c-.2.3 1.6-2.4 2-2.3s-.9-.8-.8-.4zm-2.1-1.2c.1.5.1 1.7-.2 2.7-.3.9.7-2.2 1.2-2.2.5-.1-1-.7-1-.5zm1.4 5.2l-.4.1.3.3c.1.1.1-.3.2-.5.2 0 .1-.1-.1.1z" fill="#a7190d"/><path d="M260.1 119.3s.8.5 2.2-.1 2 .8 2.5.1-.3-1.3.9-1.9c1.1-.6.5 1 2.2.9 1.7 0 1.2-1.1 5.1-2.1 0 0 2.8-.6 5-.7l.6-.1s3.1 3.3 3.3 4-.2 3-3 3.7c0 0-1.5-.5-1.7-1.2 0 0-.6 1.8-2.8 3s-5 2-8.1 1.5-10.8-.4-10.8-.4-3.6-1.2-5.2-1.2c-1.5 0-4-.9-5-3.8 0 0 2.1-1.6 5 .2 3 1.8 3.7 2.9 3.7 2.9s1-.4-1.1-1.6c-2-1.2-3.6-1.8-4.5-3.6s-1.2-1.4-1.6-1.2c-.4.1-1.8 3.1-7.8-.9 0 0-.7-.4-1.1-.3-.4 0 .7-.4 3.3-.1 0 0 .9-.1 2.1-.4s2.4.4 2.4.4-1.3-1.5-1.7-1.5c-.4-.1-1.6.8-2.8.8s-3.1-.6-4.2-1.3c0 0 .1.3 1.5-.4s2.9-.7 2.9-.7-4.5-.8-5.7-2c0 0 2.6-.5 4.4.5 1.8.9 4.1 1.3 7.2 4.4s3 3.4 4 3.5c0 0 0-.8-.6-1.3s-2-2.1-3-2.8c0 0 .3-.9 1.1-.8.8 0 1.3.6 1.3.6s-.4-1.4 0-1.7c0 0 .8 1.2 1.3 1.6s2 2 2.1 1.9c.1-.2.2-1.4.2-1.4s.1-.1.3 0 .1.7.4.7.5-.8.9-.8.2 2.1.6 2.4 1.2-.9 1.6-.8c.5-.4 3.1.4 2.6 2zm-2.2 1.8l1.2 2s.4-1.7.8-2 .3-.7-.1-.7c-.4.1-2.4-.3-1.9.7zm30.9-10.7s-.8 1-2.4.8c-1.5-.2-3.2 1.5-3.5 2.1s2.7 1.1 4.4.1 1.5-3 1.5-3z" class="BD"/><path d="M283.6 113s1.5-1.5 2.8-1.6 2-.2 2.2-.6c0 0-.1 2.7-3.3 2.9 0 0-1.2 0-1.5-.2-.4-.2 3.2-.5 3.6-1.8 0 0-.9 1-2.5 1.2-1.8.3-1.3.3-1.3.1z" class="Ay"/><path d="M280.9 114.7s2.2-1.1 3.7-.2c1.6 1 1.5 1.4 1.5 1.4s-1.1 1.2-2.8 1.2c-1.8-.1-2.9-1.3-2.4-2.4z" class="BD"/><path d="M281.2 114.8s1.8-1 3.2-.1c1.3.8 1.3 1.2 1.3 1.2s-.9 1-2.4 1c-1.4 0-2.2-.9-2.1-1.7a4 4 0 0 0 .9.3c1 .2 2.5.3 2.5.3s-1.5-.2-2.4-.5c-.6-.2-1-.5-1-.5z" class="Ay"/><path d="M283.9 113.8s-1.3.2-2.5.7c-1.2.6-3.4 2.2-4.3 3-.9.7.6-1.3.6-1.3s3.3-2.3 5.4-3.2z" class="BD"/><path d="M258.4 125.7c-2.7-1.5-4.2-2.6-5.2-3.8-.9-1.1-1.2-2.4-2-3.5-.7-1-1.8-1.9-3.3-3 0 0 .6-.9 1.5-.3.9.5 1.3 1 1.3 1s-1-1.6-.6-2.2c0 0 1.8 2.8 3.5 3.8 1.7 1.1 5.6 5.1 5.6 8.2-.2.2-.3.1-.5.1.1-.1-.1-.3-.3-.3z" class="Ay"/><g class="Aq"><path d="M277.9 122.3c.9.7 1.2.8 1.8.4s2-1.3 2.1-2.6-2.1-1.5-2.7-1.5c-.6.1-.6-.3-.5-.8 0-.7-1.2.6-1.5 2-.2 1 .1 1.9.8 2.5z" class="At BK BX"/><path d="M278.6 117.7s.2-1.1.5-1.6c0 0 1.5 1.2 1 2.6 0 0-.4-.1-1-.1 0 0-.6.1-.5-.5z" stroke="#0c2e10" class="Ay BM"/></g><path d="M278.7 115.6s-2.8-1.7.3-3.7c0 0 .4-.2 1-.1 0 0-.1.4 0 .6.1.1.7-.3 1.3-1 0 0 1.3 0 1.3 1.9 0 0-.8.3-2.2 1.2z" class="BD"/><path d="M278.7 115.3s-2.9-1.8 1-3.3v.5s-1 .9-.6 1.5 1 .6 1.3.3.6-1 .6-1.5c.1-.4-.6 1.1-1 1.1s-.2-1.4.7-1.5c0 0-.3-.1.2-.4 0 0 .2-.1.3-.2.1-.2.2-.3.2-.3.2 0 .7.3.9.8.2.3.1.8 0 1.1l-3.3 1.9c-.1.1-.2.1-.3 0z" class="Ay"/><g class="Aq"><path d="M278.2 122c.7.6 1 .7 1.5.3.5-.3 1.6-1 1.7-2.1s-1.7-1.3-2.3-1.2c-.3 0-.5-.2-.9-.1-.2 0-.5-.1-.8 1.2a1.96 1.96 0 0 0 .8 1.9z" class="At BY Bd"/><path d="m 262.6,119 c 1.2,0 2.2,1 2.2,2.2 0,1.2 -1,2.2 -2.2,2.2 -1.2,0 -2.2,-1 -2.2,-2.2 0,-1.2 1,-2.2 2.2,-2.2 z" class="BK BP BX"/></g><path d="M262.3 119.2a1.79 1.79 0 1 1 0 3.6 1.79 1.79 0 1 1 0-3.6z" class="BY"/><path d="M266.5 116.5a1.54 1.54 0 0 1 1.5 1.5 1.47 1.47 0 0 1-1.5 1.5c-.9 0-1.5-.6-1.5-1.5a1.54 1.54 0 0 1 1.5-1.5z" class="Aq At BK BX"/><path d="M266.3 116.6c.6 0 1.2.5 1.2 1.2 0 .6-.5 1.2-1.2 1.2-.6 0-1.2-.5-1.2-1.2 0-.6.5-1.2 1.2-1.2z" class="BY"/><path d="M258.5 116.9c1.1 0 2 .9 2 2s-.9 2-2 2-2-.9-2-2c.1-1.1 1-2 2-2z" class="Aq BK BP BX"/><path d="M258.3 117.1a1.58 1.58 0 1 1 0 3.2 1.58 1.58 0 1 1 0-3.2z" class="BY"/><g class="Ay"><path d="M264.8 125.5s-1.4-.6-.8-1.8 1.2-.6 1.2-.6.6 1 .3 2.4zm-2.2-1.8s-1.4.8-1.5 1.3 1.5.5 2.1.4c.5-.1.7-1.9-.6-1.7zm2.4-3.8s1.2.5 1.3.8-.6 1.4-.6 1.9c0 .4-.5-.7-.7-2.7z"/><path d="M259.9 121.8s-.6 1.8-.2 3.5c0 0 .5.4.7.2.2-.1-.3-1.8-.2-2.5 0 0 .3 2.1.8 2.4 0 0 .7-.4.3-1.5-.6-1-1.4-2.4-1.4-2.1zm-7.3 2.2c0-.1-2.1-1.8-3.6-2 0 0-.7.2-.5.2s2.1 1 2.7 1.6c.6.5-3.1-.5-3.7-1.2 0 0 .1.7.7 1 .5.3 2.8.6 2.8.6s-.1.7-1.7.2a5.71 5.71 0 0 1-3.6-3.2s1.6-1 3.7-.2 3.9 2.8 3.9 2.8-.1.3-.7.2zm-6.6-6.9s-.6-1.1-2-1-2.4.6-2.8.6c-.5-.1.4.5 1.9.5s1.7.1 2.9-.1z"/><path d="M240.5 116.9s1.7.8 3.1.8h2.5s-.2.9-1.8.8c-1.7-.1-4.6-1.1-3.8-1.6zm2.5-3s-1.1-.6-1.7-.5-1.4.2-2.9.8c0 0-.4.3-.7.3 0 0 3.7 1.8 5.2.6 0 0 0-.5-.1-.5-.2 0-2.1.2-2.9.1v-.1s1.7.1 2.5-.3zm-6.5-2.6s1.3-.4 2.9.2c1.7.6 2.3 1.1 2.3 1.1s-1.8.5-5.2-1.3zm10.3 4.7s1.7 1.5 2.6 2.9c1 1.4 2 1.5 2 1.5s.8 1.4-.7.5c-1.5-1-3.3-4.1-3.9-4.9z"/></g><path d="M252.3 117.8s4.2 2.3 4.9 4.8c0 0 .4 1.8 1 2.3 0 0-1.2-1.3-1.9-1.5-.8-.2-3.2-2.6-4-5.6z" fill="#fdcb34"/></g><g stroke="#827e11" class="Aq At Au"><path d="M252.7 118.9l.5-.4m-.4.6l.7-.5m-.6.9l.9-.8m-.8 1.1l1-.9m-.8 1.2l1.2-.9m-1 1.3l1.3-1m-1 1.2l1.3-1m-.9 1.4l1.2-1m-.9 1.4l1.3-1m-1 1.4l1.3-1m-1 1.4l1.3-1m-.9 1.3l1.3-1m-1 1.4l1.2-1m-.9 1.3l1.1-.9m-.6 1.1l.8-.6m-.4.9l.5-.5"/><path d="M252.4 117.9l4.8 5.6m-4.7-5l4.8 5.5m.1-.6l-4-4.9m-.5 1l3.3 3.8m-2.8-2.9l2.3 2.7m-1.1-3.7l2.4 2.7"/></g><path d="M265.9 125.7s-.9-3.4 1.4-5.7c2.4-2.3 2.6-3.3 8-4l3.3-.4s.5 1.2-.7 2.3-1.1 2.5-1.1 3.4c.1 4.4-10.7 6-10.9 4.4z" fill="#fdcb34" class="Ar"/><g class="Aq At BK"><g class="Au"><path d="M276.6 116.5s-7.4 5.4-9 7.4m8.2-7.5s-7 5-8.6 7m7.3-6.8s-5.9 4-7.4 6.1"/><path d="M273.6 116.6s-4.9 3.3-6.5 5.3"/><path d="M272.5 116.8s-3.7 2.4-5.2 4.4"/><path d="M271.8 117.2l4.2-.3m-4.6.7l4.1-.3m-4.6.6l4.1-.3m-4.6.6l4.1-.3m-4.6.7l4.1-.3m-4.5.6l4.1-.3m-4.3.6l4.1-.3m-4.7.8l4.2-.3m4.2-1.9s-4.9 3.6-6.4 5.7"/></g><path d="M276.7 119s-2.5 2-4 4c-1.6 2.1.7.2 1.5-.7s2.9-2.3 2.5-3.3z" fill="#5e0e0b" class="Ar"/><path d="M276.4 121.2l-3 3" class="Au"/></g><g class="Ar"><path d="M279.7 115.4s-1.2 2.8 2 3.7c0 0 .9-1.4-.7-3.4 0 0-.4-.4-1.1-.4z" class="BD"/><path d="M279.7 115.7s-1 2.3 1.8 3.2c0 0 .8-1.3-.6-3 0 0-.3-.3-1-.3l.8 1.3.5 1.3-.7-1.3z" class="Ay"/><path d="M254.9 125.3h0c.9 1.1.8 3.2-.3 4.6-.5.7-1.1 1.1-1.8 1.4h0s7.8 1.8 9.2 4.5c1.4-2.6 9.2-4.5 9.2-4.5h0c-.7-.3-1.3-.8-1.8-1.4-1-1.4-1.1-3.5-.3-4.6h0c-1.3.7-12.8.7-14.2 0z" class="Aq As Aw Ax"/><g class="Av"><use xlink:href="#N"/><path d="M257.4 129.3s-.3 1.1-1 1.5c-.6.4-.1.5.3.1.3-.3.8-.7 1-1.6s-.3-.2-.3 0z"/><use xlink:href="#N" x="1.7" y="0.6"/><path d="M259 129.9s-.3 1.1-.9 1.5-.1.5.3.1c.3-.3.8-.7 1-1.6.1-.9-.4-.2-.4 0z"/><path d="M259.8 130s-.3 1-.8 1.6-.1.5.3.1c.3-.3.7-.8.9-1.8.1-.8-.4-.1-.4.1zm.8.2s-.3.9-.7 1.7 0 .6.3.1c.2-.5.6-.9.8-1.8.1-.9-.4-.1-.4 0zm.9.2s-.3.9-.7 1.7 0 .6.3.2c.2-.5.6-.9.8-1.8 0-1-.5-.3-.4-.1zm.4.8s0 1-.1 1.5.4.5.4 0v-1.5c.1-.8-.3-.4-.3 0zm5.9-2.2s.3 1.1 1 1.5c.6.4.1.5-.3.2-.3-.3-.8-.7-1-1.6-.2-1 .3-.3.3-.1zm-.9.3s.3 1.1 1 1.5c.6.4.1.5-.3.1-.3-.3-.8-.7-1-1.6s.3-.2.3 0z"/><path d="M266 129.6s.3 1.1.9 1.5.1.5-.3.2c-.3-.3-.8-.7-1-1.6 0-1 .5-.3.4-.1zm-.8.3s.3 1.1.9 1.5.1.5-.3.1c-.3-.3-.8-.7-1-1.6-.1-.9.4-.2.4 0zm-.7.1s.3 1 .8 1.6.1.5-.3.1c-.3-.3-.7-.8-.9-1.8-.1-.8.4-.1.4.1zm-.8.2s.3.9.7 1.7 0 .6-.3.1c-.2-.5-.6-.9-.8-1.8-.1-.9.4-.1.4 0zm-.9.2s.3.9.7 1.7 0 .6-.3.2c-.2-.5-.6-.9-.8-1.8-.1-1 .4-.3.4-.1z"/></g><path d="M320.4 109.4c-.8.7-2.5 2.6-2.5 5.8l-13.2.1s-1.5-3.4-6.7-3c-5.3.4-8.2 4.4-8.6 8.6l-3 2.7s-2.7-2.8-4-1c-1.4 1.8-3.6 8.1-6.4 8.8s-4.9.2-6.3-1.6-1.1-5 1-5.3 2.7.5 2.8 1.2c.1.8-.3 1.9-1.3 2s-1.3-.2-1.3-.2-.1.9 1.3 1.5 3.4 1.6 6-3 3.3-7 6.1-6.4c0 0 1.6.2 2.4 1.3l1-1.1s-.1-7.2 8.8-9.4c0 0 6.1-1.7 9.6 2.7h10s.7-2.7 1.8-3.9h2.5zm-116.7 0c.8.7 2.5 2.6 2.5 5.8l13.2.1s1.5-3.4 6.7-3c5.3.4 8.2 4.4 8.6 8.6l3 2.7s2.7-2.8 4-1c1.4 1.8 3.6 8.1 6.4 8.8s4.9.2 6.3-1.6 1.1-5-1-5.3-2.7.5-2.8 1.2c-.1.8.3 1.9 1.3 2s1.3-.2 1.3-.2.1.9-1.3 1.5-3.4 1.6-6-3c-2.5-4.6-3.3-7-6.1-6.4 0 0-1.6.2-2.4 1.3l-1-1.1s.1-7.2-8.8-9.4c0 0-6.1-1.7-9.6 2.7h-10s-.7-2.7-1.8-3.9h-2.5z" class="Aq As Aw Ax"/><path d="M290.7 128.1c.3 0 .6-.2.6-.5s-.3-.5-.6-.5-.6.2-.6.5c0 .2.3.5.6.5z" class="Aq At Az BR"/><path d="M290.7 128c.2 0 .4-.1.4-.3s-.2-.3-.4-.3-.4.1-.4.3c0 .1.2.3.4.3z" class="BS"/><path d="M290.7 127.9c.1 0 .2-.1.2-.1 0-.1-.1-.1-.2-.1s-.2.1-.2.1c.1.1.1.1.2.1z" class="BT"/><path d="M299.9 119s1.4-3.1.6-6.6c0 0-2.3 1.5-2.5 4.8s.4 3.1.4 3.1-.8 1-1.1.5-.9-3.7-1-5.6c0 0-2.3 1.9-2.4 3.8s.2 2.5 1.4 3.3l-2.8 2.5s.8-2.4-.3-4.8c0 0-4.6 3.4-1.5 5.7 0 0-.9.5-1.8.5-2.2.1-6.5.9-10.3 1.1-1.7.1-3.6-.4-4.9-.2-.4 0-.6-.1-.8.1-.5.6-.5.8-2.2.5-.1 0 0 .4 0 .4h.2c5.7.2 11.6 0 17.7-.5l3.9-1.1s0 1 .9 1.5 3.6 1.1 6.4-1.5c-.5-.2-1.7-.8-3.1-1-1.3-.2-3 .2-3.1.1 0 0 1.2-.9 1.6-.9 1.1 0 5.6-.1 7.2-2.7 0 0 .4-.7.4-1.1 0-.5-.6.7-2.6.7-1.9.1-2.6.5-2.6.5s.8-.4-.2.1-1.7 1.4-1.7 1.4 1.4-2.5 3.5-2.6c2.2-.1 3.6-1.2 5-2.8.4-.4 1.7-.9 1.7-1-2.1-1.4-5.1.6-6 1.8z" class="BD"/><g class="Ay"><path d="M298.5 120s-1.5-3.9 1.9-7.2c0 0 .9 2.8-.9 6.5 0 0-.7.2-.3-.6s1.3-2.2 1.1-3.4c0 0-.4 1.7-1.1 2.9s-.4 1.4-.4 1.5c-.1.1-.2.4-.3.3zm1.3-.2s2.3-3.7 5.5-2.6c0 0 .6.1-.5.5s-1.7 2-3.4 2.7-2.2.4-2.2.4 2.5-.7 3.4-2.1h0l-1.2 1.1 1.2-1.1-1.2 1.1zm-3.7 3.9s.9-1.4 3.5-1.7c0 0 2.2 0 3-.7 0 0 .2 1-1.6 2.1s-3.1 1.3-4.6 1.3c0 0 .8-.6 2.4-1.1s1.6-1 1.6-1-.6.5-1.8.7-1.6.6-2 .7c-.4 0-.7 0-.5-.3z"/><path d="M295.4 122.2s-.6-.2-.9-.8c-.2-.5-.6-1.3-.5-2.3s.8-2.2 2.1-3.3l.5 3.5c.2.5.4 1.7.4 1.7l-1.5-2.4c-.4-.4.5 1.2.7 1.8s.1 1.8-.8 1.8zm-1.6 4.2s2.1-1.5 5.5.3c0 0-.8 1.3-3.7 1.7 0 0-2.2 0-2.3-.9 0 0 2.4.1 3.7-.6 0 0-1.8.1-2.7 0-1.1-.2-.5-.5-.5-.5zm-2.9-.8s-2.9-1.5 1-4.9c0 0 1.1.9.4 4.2l-.6.4s.1-2.1-.1-2.8.1 1.6-.2 2.9z"/></g><path d="M291.8 127.8c.5 0 .9-.3.9-.7s-.4-.7-.9-.7-.9.3-.9.7.4.7.9.7z" class="Aq At Az BR"/><path d="M291.8 127.8c.4 0 .6-.2.6-.5s-.3-.5-.6-.5-.6.2-.6.5.3.5.6.5z" class="BS"/><path d="M291.8 127.6c.1 0 .3-.1.3-.2s-.1-.2-.3-.2-.3.1-.3.2.2.2.3.2z" class="BT"/><path d="M293 123.4c.4-.2.8-.1.9.1.1.3 0 .6-.4.8s-.8.1-.9-.1c-.1-.3 0-.6.4-.8z" class="Aq At Az BR"/><path d="M293 123.4c.3-.1.6-.1.7.1s0 .5-.3.6-.6.1-.7-.1 0-.4.3-.6z" class="BS"/><path d="M293.1 123.5c.1-.1.2 0 .3 0 0 .1 0 .2-.1.3s-.2 0-.3 0c-.1-.1-.1-.2.1-.3z" class="BT"/><path d="M297.3 120c.4-.2.8-.1.9.1.1.3 0 .6-.4.8s-.8.1-.9-.1.1-.6.4-.8z" class="Aq At Az BR"/><path d="M297.4 120.1c.3-.1.6-.1.7.1s0 .5-.3.6-.6.1-.7-.1 0-.5.3-.6z" class="BS"/><path d="M297.4 120.2c.1-.1.2 0 .3 0 0 .1 0 .2-.1.3s-.2 0-.3 0c-.1-.2 0-.3.1-.3z" class="BT"/><path d="M299.7 121c.3-.2.5-.6.3-.9s-.6-.3-.9 0c-.3.2-.5.6-.3.9.2.2.6.2.9 0z" class="Aq At Az BR"/><path d="M299.7 121c.2-.2.3-.5.2-.6-.1-.2-.4-.2-.7 0-.2.2-.3.4-.2.6.1.1.4.1.7 0z" class="BS"/><path d="M299.6 120.9c.1-.1.1-.2.1-.3s-.2-.1-.3 0-.1.2-.1.3h.3z" class="BT"/><path d="M287.7 128.8s1.9-.3 2.7-.1 1.4 1.1 2.7.5c0 0-.3 1.2-1.9 1.6-1.7.3-3.7.1-4.3-.5s.3-2 .8-1.5z" class="BD"/><path d="M287.6 129s1.6-.3 2.3-.3c.7.1 1.5 1.2 2.4.9s.1.6-1.1.8-2.9.4-3.7-.2v-.3s2.7.2 3.2 0-2.3.1-2.9-.2c-.7-.4-.2-.7-.2-.7z" class="Ay"/><g class="BD"><path d="M276.8 127.8s3-3.8 7.3-3.8c0 0-.6 3.4-3.7 4.7z"/><path d="M276.9 127.7s-1.3 2.3 1.5 3.9l2.6-2.6z"/></g><path d="M280.1 128.3s3-1.5 3.6-3.8c0 0-1.9-.9-6.1 2.8 0 0 .7.6 1.3.2.6-.5 1.9-1.9 3.4-2 0 0-1.8.7-2.7 2.1 0 0-.5.4.1.7zm-1.3 2.2s-1.2-1-1.2-1.6 1.2.9 1.6 1c.3.1 1.1-.7 1.1-.7s-1.5-.7-2.6-.9-.7.5-.4 1.2c.2.7.8 2.4 1.5 1z" class="Ay"/><g class="Av"><path d="M228.1 78.8s-.6.7-1.4.8c-.9.1.2.7 1 .4 0 0 .1.7-.8.9 0 0-.6.3.7.3 0 0-.1.4-1 .5 0 0-.3.6 1.1.3 0 0-.2.7-.9.7 0 0 .2.4 1 .1 0 0 0 .6-.6.6 0 0 .6.3 1.1 0 0 0 .3 1-.9 1 0 0 .1.4.9.2 0 0 .2.2-.1.3s-.8.4-.8.4.6.3 1.1 0c0 0-.4.6-.8.7s.5.3 1 .1c0 0 .2.7-.6.7 0 0 .2.3.7.1 0 0 .2.5-.3.5 0 0 .1.4.4.4.2-.1-.2.6-.7.5 0 0 .3.6.9.5 0 0-.3.7-.7.8 0 0 0 .4.6.4 0 0 0 .5-.4.6-.5.1.1.4.6.4 0 0 .2.4-.2.5s-.6 0-.6 0 0 .6.6.5c0 0-.3.2-.6.3-.3 0 .3.5.6.4 0 0-.4.6-.7.6s.2.3.6.3-.4.7-.6.7c-.3 0 .5.4.9.4 0 0-.5.4-.7.4s.2.2.5.2c0 0 0 .3-.3.3s.1.3.4.2l.1-3.7.1-2.3-.1-1.7-.1-1.8-.4-2.3-.3-1.4-.4-1.7c.7-2.9 0-2.5.1-2.1z"/><path d="M228.8 72.2s.1-.3-.1-.4c-.6-.3-2-.7-2.3-.7-.1 0 1.4 1 1.3 1-.6-.1-1.2-.3-1.5-.7-.7-.8-.1 1 2 1.3 0 0-1.5.1-2-.6-.6-.7.2 1.2 1.8 1.3 0 0-1.1.1-1.6-.4-.6-.5.2.8 1.1.9 0 0 .5.1.8 0-.2.8-1.9-.1-2.1-.1-.3.1 1.4 1.1 1.9.9.2-.1-.1.6-1.6.1-.1 0-.1-.1-.2 0-.1.2 0 .5 1.6.6 0 0-.4.5-1.5.2l-.3-.1c-.1-.1-.1.4 1.4.6 0 0-.7.2-1.3 0 0 0 .3.5 1.3.6 0 0-.1.3-1.1.1 0 0 .1.3 1.3.5 0 0-.8.3-1.6 0 0 0 .1.6 1.3.7 0 0-.4.3-.9.3 0 0-.1.3.7.4h.5l.3.1.4-3.1z"/><path d="M228.4 71.4s-.9-.2-1.8-.7c0 0 .9.4 1.8 0 0 0-1.3-.1-2.4-.8 0 0 .8.4 2.5.1 0 0-1.5-.1-2.5-.6 0 0 1.2.3 2.4-.4 0 0 .8 1.4.7 1.8-.3.2-.5.9-.7.6z"/></g><path d="M228.9 64.6s-.9 2.2-.9 3.7c0 0-.3.7.3.9.5.2.3-.6.3-.9 0-.2.5-2.8.7-3.3.3-.5-.3-.6-.4-.4z" class="BQ"/></g><g class="Aq As At Au"><path d="M211.6 104.4h3.5m-1-.4h3.5m-2.9 1.4h1.7m-.8.1h.9m-1.1.1h.9m-1.1.1h1.4m-2-.2h.9"/><path d="M215.7 105.6h.9m-3.4 0h3.3m-.5.3h.9m-1.1-.1h.9m-1.3.1h1.6m-2.3 0h.9m.9.4h.8m2.8.2h1.5m-3.2-.2h1.3m-1.5.1h.9m-1.5.2h1.4m-1.2-.1h2m-5.5-.1h3.6m-1.1.2h.9m-1.9-.5h1.5m-.1.6h2.5"/></g><g class="Ar Av"><path d="M227.2 105.6s0-.2-.1-.3c0 0 .1 0 .1.1s0-.2-.1-.3c0 0 .1 0 .1.1s0-.2-.1-.2l.1.1c.1-.1.1.4 0 .5z"/><path d="M227.2 105.6s0-.2.1-.3h-.1l.1-.2h-.1c0 .1.1-.2.1-.2l-.1.1c.1.1 0 .5 0 .6zm1.3 0s0-.2-.1-.3h.1c0 .1 0-.2-.1-.3 0 0 .1 0 .1.1s0-.2-.1-.2l.1.1s.1.5 0 .6z"/><path d="M228.5 105.6s0-.2.1-.3h-.1l.1-.2s-.1 0-.1.1 0-.2.1-.2l-.1.1v.5z"/><path d="M229.1 105.6s0-.2-.1-.3h.1c0 .1-.1-.2-.1-.2h.1c0 .1-.1-.2-.1-.2s.1.1.2.1c-.2 0-.1.5-.1.6z"/><path d="M229.1 105.6v-.3s-.1 0-.1.1 0-.2.1-.3c0 0-.1 0-.1.1s0-.2.1-.2l-.1.1c0-.1.1.4.1.5z"/></g><g class="As Aq Au"><g class="At"><path d="M219.2 106.2h1.2m-1.2.1h2.2m-1.8-.2h2.2m-1.8-.1h2.2m-2-.1h2.1"/><path d="M220.2 105.9h4.2m-4.1-.1h2.2m-2-.1h2.1m-2-.2h2.9m-2.5-.2h2.2m-2.3.1h2.1m-1.7-.2h2.2m-1.8-.1h2.1m.6-.7h1m-.8-.1h1.1m-1.2-.1h1.1m-.8-.2h1m-1.2-.1h1.1m-.8-.4h1.1m-1.3.2h1.1m-1.1.1h1m-1.4.8h1.1m-1.3.1h1m-1.6.2h1.1m-.4 0h1.1m-1.6.6h1m-.5-.3h1.1m-.6.6h1m-.8-1h1.1m-3.2 1.4h1.1m-2.3.1h1m-.9.4h1.5m-3.2 0h1.1m1.6-.2h1.1m-3.2-.5h4.1m-14 0h.9m1.7-1.1h-1.7m.6.2h-.7m1.2.1h-1.2m1.2.2h-1.5m2.6-.2h-.9m-.7.1h-.9m.7.2h-.8m.7.1h-.9m1.4.2h-1.5m2.8-.3h-.9m-1.6.6h-.9m.2.3l-2.5-.1m2.9 0h-1.3m1.4.1h-.9m1.6.2h-1.4m1.2-.1h-2m3.5-.2h-2.2m.8-.1h-.9m1.5-.3h-1.4m1.3.8h-2.5"/><path d="M210.1 106.1h-1.3m1.3.1h-2.2m1.8-.1h-2.2m1.4-.3h-2.8m2.9.1h-2.1m2-.2h-2.1m2-.1h-2.1m1.9-.1h-2.8m2.5-.2h-2.2m2.2.1h-2.1m1.8-.2h-2.2m1.9 1.1h-1.1m1.3.2h-1.1m2.5.1h-1.1"/></g><path d="M245.3 93s3.4 3 4.4 3c.9 0 2.9-.7 4.3.2s4.1 3.3 4.1 3.3 4 4.1 4.9 5.7 4.5 3.6 4.3 4.6c-.2 1.1-3.4-1.7-4.5-2.8s-4-4.5-4-4.5" class="BU"/></g><g class="Ar"><path d="M254.7 93l-.3 3.1c1.5 1.3 2.9 2.1 3.6 1.9s1.5-.7 1.9-.7c.4.1-1.4-1.8-1.4-1.8s.9-.3 2 1.1c1.2 1.4 1.7 2.2 2.3 2.1.5-.1.8-.6 1.1-.4.4.2.6.9.8 1.7s.6 1.8.9 2.2 1.5 2.1 2.3 2.6.8-.4 1.1.1c.2.4-.1 1.2 1.1 1.7s3.4 1.7 3.4 1.7-.3-.9-.6-1.1c-.2-.3 1.5.7 2.2 1.2s-.3.9-.8 1-3.1-.8-4.1-1.7-3.2-2.1-3.8-3c-.6-.8-1.5-2.9-2.1-3.4-.7-.5-3.6-3.4-4.1-3.5s-1.1.3-1.3.9-.3 1.1-2.1-.1c-1.8-1.3-2.8-3.1-5.5-2.6 0 0-1.4.4-2.5-.1s-3.5-2.6-3.5-2.6l-.1-.1c-.2-.3-.4-.5-.4-.6-.3-.4.8-.3 1-.3s.4-.5.4-.9-.1-.9.9-.9c.9 0 .5.7.5.7l1.1-.1s-.2-3 .2-3.3c.4-.4.9.4 1.1.5.1.1.2 1.4.6 1.7l1.7 1.2-.2-3.1s.3-.3 1.3-.2c.9.2 1.3 2.1 1.3 3.9V93z" class="Av"/><path d="M301.4 39.6s2.6 1.9 3.4 3v.1c0-.1-.1-.1-.1-.1-.7-.1-.2 1.4-3.3 1.1-3.2-.3-5.9-4.2-5.9-4.2 2.2-.4 3.5 1 4.2.2.5-.5 1.4-3.3 1-3.8 0 0-.1.1-.1.2h-.2c-.1 0-.2-.2-.3-.5 0-.2-.1-.5-.1-.8s-.1-.5 0-.7c.1-.3.5-.3.6-.2s.1.2.2.2c.3.1.3-1.8.2-2.5-.1-.6 2.5-1.6 2.9-1.4.2.1.4 1.1.4 1.7 0 .4-.2.8-.1 1.1 0 .5 1.2 1.3 1.2 1.3 0 .2-.1.7-.6.7 0 .1-.1.3 0 .4 0 .1.2.4-.1.5-.2.1-.4 0-.6.1h-.4.4c.2 0 .3 0 .4.1.2.2-.2.3-.1.6.3.8-.4 1.2-.9 1.3-.4.1-1.3.2-1.4.4-.7.6-.7.6-.7 1.2z" class="Aq As Ax BP"/><path d="M303.9 36.1h-.4s.9-.3 1-.4c0 0 .1.2.1.3s0 0-.1.1h-.6zm-.4.1h.5c.2 0 .3 0 .4.1s0 .2-.1.3c-.1 0-.2-.1-.8-.4z" fill="#c9991e"/><path d="M302.7 33.3s.3-.4.7-.4c0 0 .2.2 0 .5 0 0-.5.1-.7-.1z" class="Aq As BC BN"/><path d="M303.6 32.5s0-.2-.3-.2c-.4.1-.6.2-.7.3-.2.2-.2.3-.5.4 0 0 0-.3.2-.6.2-.2.5-.4.8-.4.5 0 .7-.1.5.5z" class="Av"/><path d="M303.3 32.9c-.1 0-.2.1-.2.3 0 .1.1.3.2.3s.2-.1.2-.3c-.1-.2-.1-.3-.2-.3z"/><g class="Aq"><path d="M303.7 30.3s-.5-1-1.7-.9-5.5 3.1-6.4 4.9c0 0 1.1 1.5.5 2.1s-2-.9-2.8 2c0 0 1.8.1 1.7 1v.1c.1 0 .2-.1.3-.1 2.2-.4 3.5 1 4.2.2.5-.5 1.4-3.3 1-3.8 0 0-.1.1-.1.2h-.2c-.1 0-.2-.2-.3-.5 0-.2-.1-.5-.1-.8s-.1-.5 0-.7c.1-.3.5-.3.6-.2s.1.2.2.2c.3.1.3-1.8.2-2.5 0-.4 2.5-1.4 2.9-1.2z" class="As At BV"/><path d="M300.5 31.9s-1.3.2-1.4 1 .4 1.8.5 2.4c.1.5.5 1.3.5 2.5 0 0 .2-.4.3-1.4.2-1.1.1-4.5.1-4.5z" class="BC Bb Bc"/></g><path d="M300.4 32s-.6.4-.8 1c-.2.4-.1.9-.1 1.3 0 0 0-.8.3-1.3.2-.4.6-.6.7-.6z" class="BW"/></g><g class="As Aq"><g class="At"><path d="M296.7 33.1c-.4.4-.8.9-.9 1.3h0 0s1 1.3.6 2.6c0 0 .7-.7.6-1.4s-.4-1.3-.3-2.5z" class="Au"/><g class="Ar BV"><path d="M303.9 30.6c-.2-.8-1.1-1.3-1.8-1.2s-1 .3-1.7.8c.5-.2 2.4.1 2.5.6.4-.2.8-.2 1-.2zm-5.3.8c-.7.5-1.4 1.1-1.9 1.7 0 2.6 1.7 4.5 2.1 5.4.3.7.2 1.1-.1 1.4.1 0 .2 0 .3.1.2-.3.4-.8.3-1.5-.2-2.1-2.4-4.8-.9-6.8 0-.1.1-.2.2-.3z"/><path d="M299.7 30.6c-.2.2-.5.3-.7.5-1.1.9-1.4 2.2-.9 3.3.4 1.1 1.2 3.1 1.3 4.3 0 .5-.1.9-.3 1.2.2 0 .4-.1.6-.2.1-.1.1-.2.1-.2h0 0s.1-.1.1-.2c.3-.7 0-2.4-.2-3.2-.6-1.9-1.7-4.6 1.2-4.4.8.2 1.3-.7 2-.9-1.1-.8-2.3-.7-3.2-.2z"/></g></g><path d="M283.5 47.2l2.4 1.1 3.9-4.3c2.1-2.3 4.1-3.6 5.4-4.5.1-.9-1.7-1-1.7-1-.6-.4-7.6 3.8-10 8.7z" class="Ar Aw BQ"/></g><path d="M228.5 22.8s0 1-.1 1.2-.4 1.8-.4 2.2m2.5-2.7s-1 2.5-1.5 3.1m3.2-1.8l-1 1.5c-.3.4-1.2 1.1-1.2 1.1m-7.5-2.8l1.3 2.1m-.3-3.1l.4.9 1.1 2.2m.1-3.8s0 .9.1 1.3l.5 2.1m.8-3.8l.3 3.6" class="At Au BL Bd Aq"/><g class="As Aq"><path d="M302.6 33.2s.2-.4.5-.5c.1 0 .2 0 .3.2" class="Au BM"/><g class="Ar At"><g class="BV"><path d="M296.6 36.6s.5 1.1-.1 1.7-1.1.7-1.1.7 1.9.1 2.3-.7c0 0 .5-.6-.1-1.4l-.8-1.8a2.44 2.44 0 0 0 .1.7s0 .3-.2.6z"/><path d="M297.2 38.7c.3.5-.5.8-.6 1 0 0 .3.2.8.2s1.2-.2 1.5-.7c0-.2-.1-.4-.2-.7s-.5-.8-.9-1.4c.3.7-.1 1.2-.1 1.2 0 .1-.2.3-.5.4z"/></g><path d="M295.7 34.5s-.3.1-.5-.4-.3-.9-.3-.9-.8-.8-.6-2-1.1-2.4 4.2-6.3c0 0 2.2-.5 2 1.1 0 0 .9.9 1 .9s1.7 1.5 1.4 2.4-2.9-.7-7.2 5.2z" fill="#6b1d0d"/></g></g><path d="M298.3 27.6s.6-.6 1.4-.9c.7-.3-.5-1.9-2.1-.6-1.3 1-3.5 3.4-2.7 4 .9.6.5 1.2.4 1.4-.1.1-.9.3-.3 1.3 0 0 0 .1.3 0s1.9-2.3 2.8-2.3c0 0 .2.1-.2.3l-.3.3s-1.4 1.1-1.8 1.7-.5 1-.2 1.2c0 0 2.3-2.5 3.4-3.3s2.5-1.7 3.7-1.4c0 0 .1-.6-.7-.6s-.3-.4-.3-.4.2-.7-.1-.7-1 .4-1 .4-2.8.4-2.3-.4z" fill="#ff0823" stroke="#8b2815" class="Aq Ar Aw"/><g class="BC Bb Bc Aq Ar"><path d="M302.6 30.8s-1.5-.8-2.5-.2c-.9.6-1.9 1-2.1 2.2-.2 1.1.4 2.5.7 3s.9 2.7.7 3.4c0 0 .3.2.2-1.2s-.5-2.3-.8-2.8-.8-2.6.4-3.2c0 0 .6-.5 1.7-.4.6-.1 1.2-.6 1.7-.8zm-1-.8c.3-.1 1.2-.3 1.3-.3.2-.1.8.6.8.8 0 0-.3 0-.7.1-.3-.4-.9-.6-1.4-.6-.2 0-.2 0 0 0z"/><path d="M297.5 32.6s-.6.5-.6.6-.4 1.1 1.6 4.4c0 0 .6.8.5 1.4 0 .6.2-.6-.3-1.9-.5-1.4-1-2.4-1-3.1-.1-.7-.1-1 0-1.5zm-1.5 1.8l.5-.7s-.1.7.2 1.7c0 0 .2.3.1.6s-.3.5-.3.5.1-.6-.5-2.1zm1.1 1.7l-.3.6s.4.7 0 1.3-.7.8-.7.8 1.2 0 1.5-.7c.4-.7.2-.8-.5-2z"/><path d="M298.2 38s-.3.6-.7.8c0 0 .2.2-.6.9 0 0 1.1.3 1.8-.5 0 0 0-.5-.2-.9zm-4.5.2s.4-1.4 1.2-1.5 1.1.2 1.3 0c0 0 0 .4-.2.5s.5.1.6-.3c0 0 .5.9-.7 1.4-1.2.7-1 .1-2.2-.1z"/></g><path d="M301.5 30.8s-2-.3-2.8 1.1c0 0 1-1.2 2.4-.9zm-4.4 2.2s0 .7.3 1.5a8.01 8.01 0 0 0 1 2.3s-.5-1.2-.8-2.4c-.2-.6-.2-1.3-.2-1.6zm-.9 1.2s.3 1 .3 1.4l-.2-1.5zm1 2.4s.1.4.1.8-.1.7-.2.8c0 0 .5-.8.3-1.3zm.8 1.8s0 .8-.4 1c0 0 .8-.5.9-.9l-.2-.4zm-2.3-1.2s-1-.5-1.6.7c0 0 .6-.9 1.4-.7z" class="BW Ar"/><g class="Aq As"><path d="M300.7 36.1c0-.1 0-.1-.1-.2 0 0-.1.1-.1.2h-.2c-.1 0-.2-.2-.3-.5 0-.2-.1-.5-.1-.8s-.1-.5 0-.7c.1-.3.5-.3.6-.2s.1.2.2.2.1-.1.2-.4c0 .1.1.2.1.2l.3 1z" class="Ar At Ax"/><path d="M300.3 35.7s-.1-.2.1-.2.3-.4.1-.8c0-.1 0-.1 0 0s.2.5 0 .6c-.2.2-.2.2 0 .1l.1-.2-.1.2h-.1" class="Au BC"/></g><g class="Ar Ax"><path d="M301.4 36.2s-.7.2-.7-.4.1-1.6.3-2.1c.2-.6.5.7.5.7l.5 1.6z"/><path d="M315.5 55.8s.6 1.7 1 2.1l3.3 4s1.4-.1 2.3.9c.8 1 1.5 1.3 1.9 1.3s.1.6-1 .4-.7-.2-.9-.3c0 0-.1.2 0 .3.2.4 1.4 1.6 1.8 2.1.5.5-.2.8-.6.4-.2-.2-.3-.5-1.1-1.2.5.4 1.3 1.5 1.3 1.5.5.5 0 .9-.5.4l-1.2-1.4 1.2 1.5c.3.5-.3.9-.6.4l-1.1-1.5 1.1 1.5c.3.2 0 .6-.4.3-.3-.3-1.8-2-1.8-2s-1.1-.6-1.6-2-3.8-2.6-4.5-4c-.4-.9-.6-4.5 1.4-4.7z" class="Aq As At"/></g><g class="Au Aq"><path d="M300.5 34.7c-.1-.1-.1-.3-.3-.2-.2 0-.1.5 0 .6v.2" class="As BC"/><g class="At"><path d="M208.4 105.1h-2.1m2-.1h-2.1m1.9-.7h-2.9m2.6.3h-2.2m2.2-.4h-2.1" class="As"/><path d="M207.8 104.5h-2.1m2.2.2h-2.2m2.2.1h-2.2m2.2-.8h-2.2m2.1-.2h-2.1m2.1-.2h-3.1" class="As"/><path d="M207.8 103.7h-2.1m2.1.2h-2.4m7.9.8h-1.7m1.2.1h-1.2m2.1-.9H212m.7.1h-.9m1.2.3h-1.4" class="As"/><path d="M212.5 104.2h-.9m.9.3h-.9m2.1-1H212m1.7.2H212m4.1.1h-2.3m-8 1.3h-2.1m1.4-.4H203m2.6-.5h-2.1m2.8 1.9h-2.2m17.8-1.1h2.2" class="As"/><path d="M252.3 117.8s3.1 1.7 4.3 3.5c0 0 .5.7.8 1.8 0 0 .2.8.4 1.2 0 0 0 .1-.3-.2s-.7-.6-1-.7c-.4-.1-.8-.3-1.2-.8-.6-.5-2.1-1.7-3-4.8z" stroke="#8a722c"/></g></g><g class="As Aq"><path d="M289.1 125.8l-4.3-1.6c-11.7 18.1-33.5 18.1-45.2 0l-4.3 1.6c8.8 24.4 44.8 24.2 53.8 0z" fill="#519660" class="Ar Aw"/><g class="At Au"><path d="M214.7 105.3h1.7m-1.8-.1h1.8m1-1.7h1.7m-5.2.1h3.4m-.5.2h2m-2.6.3h2m-2.3.1h2m-2.2.2h1.9m-3.3.2h3m-2.3.1h2m-2.1.1h1.9m-3.1.2h2.8m-10.9 3l23.1.1"/><path d="M225.4 103.5h1.2m-1.2.2h1.1"/><path d="M225.4 103.7h1.1m-1.1.2h1.1m-1.1.1h1.1m-1.1.1h1.1m-1.1.1h1.1m-1.1.2h1.1m-1.1.1h1.1m-1.1.1h1.1m-1.2.1h1.2m-1.3.3h1m-1-.1h1.1m-1.1.2h1m-1.1.2h1.1m-1.1.1h1.1m-1.1.2h1.1m-1.3.3h1.4m-1.1.4h2m-2.1-.1h1.9m-.7.2h1.4m-1.9.2h3.7m-1.9-.3h3.6m.3-2.1h-1m1.4-.7h-1.1m1.3 1.6H231m1 .2h-1m.6.6h-1.1m.9-1h-1.1m.5-1.3h-1.1m1.5.2h-1.5m1.6.1h-1.1m.7.1h-1.1m1.1.1h-1.1m1 .1h-1m1 .1h-1m1.1.2h-1.1"/><path d="M230.7 104.6h-1m1 .1h-1.1m1.1.2h-1m1 .3h-1.1"/><path d="M230.7 105.1h-1.1m1.1.3h-1m1.1.1h-1.1m1.2.2h-1.1m1 .1h-1.1m1.6.3H230m2.1 1.3h-1.9m-.2-.9h-1.4m1.9.2h-3.7m1.9-.3h-3.6m5.5.9h-4.9m7.6-.4h-1.9m2.1-.7h-1.1m.2-.5h-1.1m-20.1 2.1l23.1.1m-1.2-1.3h-1.1m.8-.6h-1m.5-1.5h-1.1m1.7.2H232m1.2.3l-1-.1m1.2.3h-1.1m2.8 2h-2.6m2.1-.1h-1.1m1.7.4h-1"/><path d="M233.8 107.6h-1.1m70-2.9h3.5m-4.1 1.7h.9m1.7-1.1H303m.5.1h-.6m1.2.1h-1.2m1.1.3h-1.4m2.6-.3h-.9m-.7.2h-.9m.7.2h-.9m.8.1h-.9m1.4.1h-1.5m2.8-.3h-.9m-1.6.7h-.9m.2.2h-2.6m2.9-.1H301m1.4.2h-.9m1.6.2h-1.4m1.1-.1h-1.9m4.6-.3h-2.2"/><path d="M303 106.6h-.9m1.5-.3h-1.5m1.4.7H301m.5-.5h-1.3m-3.4.4h-2.2m6.4-.5h-2.1m1.3-.2h-2.7m2.9.1h-2.1m2-.2h-2.2m2.1-.1H298m2-.1h-2.8m2.5-.2h-2.2m2.2.1h-2.1m1.7-.2l-2.1-.1m1.9 1.1H298m1.3.3h-1.1m2.5.1h-1.1m.2-1.6h-2.2m2.1-.1h-2.2m1.9-.6h-2.8m2.9.3h-2.2m2.1-.5h-2.2m2.2.4h-2.1m2.2.2h-2.2m2.1.1h-2.1m2-.8h-2.2m2.1-.2h-2.1m2.1-.3h-3.1m3.1.2H297m2.2.2h-2.5m7.8.8h-1.7m1.3.1h-1.3"/><path d="M304.4 104.2h-1.7m.9.2h-.9m1.4.2h-1.4m.8-.1h-.9m1.1.4h-.9m1.6-.9h-1.8m1.8.1h-1.7m-5.5 1.3H295m5.7 2.1h-8.9"/></g></g><g class="Av"><path d="M240.8 128.2c.1.1.1.2.2.3 0 .1.1.1.1.2.1.1.2.2.3.5v.1l-.1.1h0c-.1-.1-.1-.2-.2-.2 0 0-.1 0-.2.1l-1.5.9.3.5c.1.2.3.3.4.4.1 0 .3 0 .5-.1l.1.1-.7.3c-.1-.2-.3-.4-.4-.6a1.38 1.38 0 0 0-.3-.4c-.1-.2-.3-.5-.6-.9h0l.1-.1c.1.1.1.2.2.2 0 0 .1 0 .2-.1l1.3-.8c.1-.1.2-.1.2-.2 0 0 0-.1-.1-.3zm1.5 2.9l-.9.2.5.6zm.4-.2l.1.2-1.1 1.9c0 .1-.1.1 0 .2 0 0 0 .1.1.2l-.1.1c-.1-.1-.2-.2-.2-.3s-.1-.1-.1-.1-.1-.1-.1-.2c-.1-.1-.1-.2-.2-.3l.1-.1c.1.1.1.1.2.1h.1l.3-.5-.5-.7-.4.1c-.1 0-.2 0-.2.1 0 0-.1.1 0 .1 0 0 0 .1.1.2l-.1.1c0-.1-.1-.1-.1-.2l-.1-.1-.1-.1s-.1-.1-.1-.2l.1-.1c0 .1.1.1.1.1h.2zm1.4 3.1l.2.2c.2.1.3.2.4.2s.3 0 .4-.2a.76.76 0 0 0 .2-.4c0-.1-.1-.3-.3-.4l-.1-.1-.1-.1zm.2-1.4h0l.3.3.3.3.2.2c.3.3.5.5.5.7.1.2 0 .4-.1.5-.2.2-.3.2-.6.2-.2 0-.4-.2-.7-.4l-.1-.1-.2-.2-.5.4c-.1.1-.1.2-.1.2l.2.2h0l-.1.1-.3-.3-.2-.2s-.1-.1-.2-.1c-.1-.1-.2-.1-.3-.3l.1-.1c.1.1.2.1.2.2 0 0 .1 0 .2-.1l1.1-1.1c.1-.1.1-.2.1-.2.3.1.2 0 .2-.2zm2 2.4l-.9.4.6.5zm.4-.4l.2.1-.6 2.1v.2l.1.1-.1.1c-.1-.1-.2-.2-.3-.2s-.1-.1-.1-.1-.1-.1-.2-.1c-.1-.1-.2-.1-.3-.2l.1-.1c.1.1.1.1.2.1h.1l.2-.5-.7-.5-.4.2c-.1 0-.1.1-.2.1v.1l.1.1-.1.1c-.1 0-.1-.1-.2-.1s-.1-.1-.1-.1l-.1-.1s-.1-.1-.2-.1l.1-.1c.1.1.1.1.2.1h.2zm1 .8c.1 0 .2.1.2.1.1 0 .1.1.1.1l1.6.9h0l-2.6 1 .8.4c.2.1.4.2.5.2s.2-.1.4-.3l.1.1-.4.6-2.1-1.2h0l2.6-1-.7-.4c-.2-.1-.4-.2-.5-.2s-.2.1-.3.3l-.1-.1zm5.1 2.5c0 .1-.1.1-.1.2s-.1.2-.1.3h-.1v-.4c-.1-.1-.2-.2-.5-.3l-.6-.2-.3.8.3.1c.2.1.3.1.3.1.1 0 .1-.1.2-.2h.1s0 .1-.1.1c-.1.1-.1.2-.1.3s-.1.2-.1.4v.1h-.1c.1-.2.1-.3 0-.3s-.1-.1-.3-.2l-.3-.1-.4.9.7.3c.3.1.4.1.6.1.1 0 .2-.1.3-.3h.1c-.1.1-.1.2-.2.3 0 .1-.1.2-.1.3l-2.3-.9v-.1c.1.1.2.1.3.1 0 0 .1-.1.1-.2l.6-1.4v-.2s-.1-.1-.2-.1v-.1l.5.2.9.3c.5 0 .7.1.9.1zm.3.2c.1 0 .2.1.3.1s.1 0 .2.1h.2c.1 0 .2 0 .3.1l1 2 .4-1.1c0-.1.1-.2 0-.3 0 0-.1-.1-.3-.1v-.1c.1 0 .2.1.3.1s.1 0 .2.1h.1c.1 0 .1 0 .3.1v.1h-.3c-.1 0-.1.1-.1.2l-.3.9c-.1.2-.1.3-.2.5 0 .1-.1.3-.1.4l-.2-.1-1.2-2.4-.5 1.4c0 .2-.1.2 0 .3 0 0 .1.1.3.1v.1c-.1 0-.2-.1-.3-.1s-.1 0-.2-.1h-.1c-.1 0-.2 0-.3-.1v-.1c.1 0 .2.1.3 0 .1 0 .1-.1.2-.2l.5-1.4v-.2s-.1-.1-.3-.1h0zm4 1.1c.1 0 .2 0 .3.1h.2a1.76 1.76 0 0 1 .6.1h.1v.1h0-.3s-.1.1-.1.2l-.3 1.7.6.1h.6a1.38 1.38 0 0 0 .3-.4h.1l-.2.7c-.3 0-.5-.1-.7-.1s-.4-.1-.5-.1c-.2 0-.6-.1-1-.2h0v-.1h.3s.1-.1.1-.2l.3-1.5v-.2s-.1-.1-.3-.1zm3.2.9l-.4.8h.8zm.1-.6h.2l.9 2c0 .1.1.1.1.1h.2v.1h-.4-.2-.2-.4v-.1h.2s.1 0 .1-.1l-.2-.5h-.9l-.2.4c0 .1-.1.1-.1.2v.1h.2v.1h-.2-.2-.2-.2v-.1h.2l.1-.1zm2.6.1l2.3-.1v.3.3h-.1c0-.2-.1-.3-.2-.4s-.3-.1-.5-.1h-.6v.9h.3c.2 0 .3 0 .3-.1 0 0 .1-.1.1-.3h.1v.2.3.4.1h-.1c0-.2 0-.3-.1-.3s-.2-.1-.3-.1h-.3v.7c0 .1 0 .2.1.2h.3v.1h-1.2v-.1c.1 0 .2 0 .3-.1 0 0 .1-.1 0-.2l-.1-1.5c0-.1 0-.2-.1-.2h-.3zm4.7-.5c0 .1 0 .2.1.2 0 .1.1.2.1.3h-.1c-.1-.2-.1-.3-.2-.3h-.5l-.6.1.2.9h.3c.2 0 .3-.1.3-.1v-.3h.1v.1.3c0 .1 0 .2.1.4v.1h-.1c0-.2-.1-.3-.2-.3h-.3-.3l.2 1 .8-.1c.3 0 .4-.1.5-.2s.1-.2.1-.4h.1v.3.3l-2.4.4v-.1c.1 0 .2-.1.3-.1v-.2l-.3-1.5c0-.1-.1-.2-.1-.2h-.3v-.1l.5-.1c.4-.1.7-.1 1-.2.2-.1.5-.2.7-.2zm1.3-.1l.5 2 .3-.1c.2 0 .3-.1.4-.1s.2-.1.2-.1a1.38 1.38 0 0 0 .3-.4v-.6c-.1-.3-.2-.6-.4-.7s-.5-.1-.9 0zm-.9 0h.2c.1 0 .2 0 .3-.1.1 0 .2 0 .3-.1.2 0 .3-.1.4-.1.5-.1.9-.1 1.2 0s.5.4.6.7 0 .6-.2.9-.6.4-1 .5c-.1 0-.2 0-.4.1-.2 0-.3.1-.4.1s-.2 0-.3.1c-.1 0-.2 0-.3.1v-.1c.1 0 .2-.1.3-.1v-.2l-.4-1.4c0-.1-.1-.2-.1-.2h-.3zm4.9-1.5c0 .1.1.1.1.2s.1.2.2.3h-.1c-.1-.2-.2-.3-.3-.3s-.3 0-.5.1l-.6.2.3.8.3-.1c.2-.1.3-.1.3-.2v-.3h.1v.1c.1.1.1.2.1.3s.1.2.2.4v.1h-.1c-.1-.2-.1-.3-.2-.3h-.3l-.3.1.4.9.7-.3c.3-.1.4-.2.5-.3s.1-.3 0-.5h.1c0 .1.1.2.1.3s.1.2.1.3l-2.3.9v-.1c.1 0 .2-.1.2-.1v-.2l-.6-1.4c0-.1-.1-.2-.1-.2s-.1 0-.3.1v-.1l.5-.2c.3-.1.6-.2.9-.4.1.1.4 0 .6-.1zm1.6.5h0c.1-.1.2-.1.2-.1.2-.1.4-.2.4-.3.1-.1.1-.2 0-.4-.1-.1-.2-.2-.3-.2s-.3 0-.5.1c0 0-.1 0-.2.1zm-1.2-.6c.1 0 .2-.1.2-.1.1 0 .2-.1.2-.1.1 0 .2-.1.3-.1s.2-.1.3-.1c.3-.2.6-.2.8-.2s.3.1.4.3a.45.45 0 0 1 0 .5c-.1.1-.3.3-.5.4.3-.1.4-.1.6-.1a.76.76 0 0 1 .4.2s.1.1.1.2c.1.2.2.2.3.2 0 0 .1 0 .1-.1v-.2h.1v.3c0 .1-.1.2-.3.2-.2.1-.3.1-.4.1s-.2-.1-.3-.3v-.1-.1c-.1-.2-.2-.3-.3-.3s-.3 0-.5.1l-.2.1.3.6c.1.1.1.2.2.2 0 0 .1 0 .3-.1l.1.1c-.1.1-.3.1-.3.1-.1 0-.1.1-.2.1 0 0-.1.1-.2.1s-.2.1-.3.2l-.1-.1c.1-.1.2-.1.2-.2v-.2l-.7-1.3c0-.1-.1-.2-.1-.2s-.1 0-.3.1zm3.4-1.3l.2.9.6-.4zm-.3-.4l.2-.1 2 1.1c.1 0 .1.1.2 0 0 0 .1 0 .2-.1l.1.1c-.1.1-.3.2-.3.2-.1 0-.1.1-.2.1 0 0-.1.1-.2.1s-.2.1-.3.2l-.1-.1c.1-.1.1-.1.2-.1v-.1l-.5-.3-.7.5.1.4c0 .1 0 .2.1.2 0 0 .1.1.1 0 0 0 .1 0 .2-.1l.1.1c-.1 0-.1.1-.2.1s-.1.1-.1.1l-.1.1s-.1.1-.2.1l-.1-.1c.1 0 .1-.1.1-.1v-.2zm3.2-2l-.1-.1.1-.1v.1c.1.1.2.2.2.3l.2.2.1.1-.1.1c-.2-.2-.4-.3-.6-.3s-.4.1-.6.2c-.2.2-.4.4-.4.6a1.08 1.08 0 0 0 .3.7c.2.3.4.4.7.4.2 0 .5 0 .7-.2.2-.1.3-.3.3-.4.1-.2 0-.3 0-.5l.1-.1c.1.2.1.4 0 .6s-.2.4-.5.6c-.3.3-.7.4-1 .4s-.6-.1-.8-.4-.3-.6-.3-.9c.1-.3.3-.6.6-.9.1-.1.3-.2.4-.3.4 0 .6-.1.7-.1zm.1-.5l.1-.1c.2-.1.3-.2.3-.3l.3-.3.1-.1.1.1-.2.2s0 .1.1.2l1.1 1.1c.1.1.2.1.2.1l.2-.2.1.1c-.1.1-.2.2-.3.2-.1.1-.1.1-.2.1l-.2.2-.3.3-.1-.1.2-.2s0-.1-.1-.2l-1.1-1.1c-.1-.1-.2-.1-.2-.1.2.1.1.1-.1.1zm2-1.8c-.2.2-.2.4-.2.6s.2.5.4.7c.3.2.5.3.7.3s.5-.1.6-.3c.2-.2.2-.4.2-.6s-.2-.5-.4-.7c-.3-.2-.5-.3-.7-.3s-.4.1-.6.3zm0-.1c.3-.3.6-.5.9-.5s.6 0 .9.3c.3.2.4.5.4.8s-.2.7-.4 1-.6.5-.9.5-.6 0-.9-.3c-.3-.2-.4-.5-.4-.9-.1-.3.1-.6.4-.9zm.9-1l.2-.2c0-.1.1-.1.1-.2l.1-.1c0-.1.1-.1.1-.2l2.3-.4-1.1-.6c-.1-.1-.2-.1-.3-.1s-.1.1-.2.2l-.1-.1c.1-.1.1-.2.2-.2 0-.1.1-.1.1-.2 0 0 0-.1.1-.1 0 0 .1-.1.1-.2l.1.1c-.1.1-.1.2-.1.3l.2.2.8.5a1.38 1.38 0 0 1 .4.3c.1.1.2.1.4.2l-.1.2-2.7.5 1.3.8c.1.1.2.1.3.1l.2-.2.1.1c-.1.1-.1.2-.2.2 0 .1-.1.1-.1.2 0 0 0 .1-.1.1 0 0-.1.1-.2.3l-.1-.1c.1-.1.1-.2.1-.3s-.1-.1-.2-.2l-1.2-.8c-.1-.1-.2-.1-.2-.1l-.2.2h0z"/><path d="M281.8 130.8l-.1-.8-.3 1.3zm2.9-83.5s4.6-6.5 6.3-6.9-.6 1.6-.6 1.6l-4.8 5.2z" class="Ar"/></g><g class="As Aq Au"><path d="M297.9 106.4H289m2.5-.2h-2.2m5.2-2.1h-2.1" class="At"/><use xlink:href="#O" class="BU"/></g><g class="Ar"><use xlink:href="#O" class="Ax"/><g class="Av"><path d="M302.6 105.8s-.3.1-.4.1c0 0-.1-.3 0-.4s.4-.1.4.3zm-.8.2h-.3s0-.2.1-.3c.1 0 .2.1.2.3z"/><path d="M301.1 106.1h-.3s0-.2.1-.2c.2-.1.2 0 .2.2z"/><path d="M300.4 106h-.3s0-.2.1-.2c.2 0 .2.1.2.2zm-.5 0h-.2s0-.2.1-.2c0 0 .1 0 .1.2zm1.4-.2s0-.2.1-.3c0 0-.1 0-.1.1s0-.2.1-.3c0 0-.1 0-.1.1s0-.2.1-.2l-.1.1c-.1-.1 0 .4 0 .5z"/><path d="M301.3 105.8s0-.2-.1-.3h.1l-.1-.2s.1 0 .1.1-.1-.2-.1-.2l.1.1c0-.1 0 .4 0 .5zm.7-.1s0-.2.1-.3c0 0-.1 0-.1.1s0-.2.1-.3c0 0-.1 0-.1.1s0-.2.1-.2l-.1.1c-.1-.1-.1.4 0 .5z"/><path d="M301.9 105.7s0-.2-.1-.3h.1c0 .1-.1-.2-.1-.2h.1l-.1-.2.1.1s.1.5 0 .6zm-1.2 0s0-.2.1-.3h-.1c0 .1 0-.2.1-.2 0 0-.1 0-.1.1s0-.2.1-.2l-.1.1c-.1-.1-.1.4 0 .5z"/><path d="M300.6 105.7s0-.2-.1-.3h.1c0 .1 0-.2-.1-.2 0 0 .1 0 .1.1s-.1-.2-.1-.2l.1.1c.1-.1.1.4 0 .5z"/><path d="M300.1 105.7s0-.2.1-.3h-.1l.1-.2h-.1c0 .1.1-.2.1-.2s-.1 0-.1.1c.1 0 0 .5 0 .6z"/><path d="M300.1 105.7v-.3s.1 0 .1.1 0-.2-.1-.3c0 0 .1 0 .1.1s0-.2-.1-.2l.1.1c0-.1-.1.4-.1.5z"/></g></g><g class="As Aq"><g class="At Au"><path d="M304.3 103.8h-1.7m2.3-.2h-2.3m1.4 3.2h3.6m-1.5-.6h-2.2m2.2-.1h-2.2m-8.4-1.3h-2.2"/><path d="M295.5 104.4h-1.6m-1 .3h-1.6m1.5-.9h-1.5m1.1.6h-1.6m1.9-.3h-1.6m1.2.9h-1.9m1.1.6H290m1.8-.4h-1.6m-85.7 1.9h-1m3.1.2h-1.1m86.4-1.4h-2.1m1.7.2h-2.1m1.8.4h-2.1m1.8.3h-2.2m1.8.7h-2.2m2-.2h-2.2m1.4.6h-2.2m3.1-.8h-2.1"/><path d="M289.5 107.7h-2.1m5.1.3h-2.1m2.6-.7h-2.1m3.5-1.6h-2.1m2.7.4h-2.2m28 0h-8.9m7.1 1.1h-8.9"/><path d="M310.6 106.7h3.5m-.1-1.6h3.5m-1.9-.6h3.5m-8.7-.5h3.5m-4 .9h3.5m-7.2 2.5h3.5m6.4.5h3.5m-10.8.3h3.5m-7.4-.3H296"/><path d="M308.8 107.6h-8.9m14.3-1.2h-1.4m-.4-2.2H311m10.2 3.3h-1.4m-20.4-3.9h-3m19.3 2.1h3.6m-6.6-1.4h3.6m-3.5.3h3.5m-4.1 1.2h3.6m4.6 1.2h-7.2m3.9.6h-7.2m4.8-2.9h3.6m-3 .2h3.5m-2.8.4h3.6m-4.5 1.1h-1.4m2 .1h-1.4"/><path d="M314.1 107.4h-1.4m1.7-.1H313m2.5.2h-1.4m8.4.8h-1.4"/></g><path d="M302.8 40.5c.7-.1 2.5-.1 3.8 1.4 1.7 1.9 3.2 5.7 3.2 7.3 0 0 1.2 1 1.2 1.4s1.3.5 1.5 1.2.5 1.7 1.2 1.9 2.1 1.4 1.9 2.3 0 6.8 0 6.8.6 6.8-.7 9.5-.6 3-.7 3.7c-.2.6-1.6.6-1.6.6s-3.3 2-3.2 4.2c0 2.2.4 12.8-1.3 16.7 0 0-1.2 1.9.3 3.6 1.5 1.6 3.2 3.6 2.9 4.2s-.6 1.3-1.5 1.3c-.5 0-1-.6-1.4-.6-.2 0-.3.5-.6.6-.9.2-1.6-.1-1.6-.1s-2.5-3.6-4.5-3.3-4.2.5-4.2.5-2.8-.7-3-1.8c-.3-1-2.1-4.8-3.6-4.9-1.5-.2-.2-3.4 2.3-5 0 0-2.4-1.5-.9-3.5s1.6-5.4 1.5-5.7c0-.4-1.1-.8-1.1-.8s-.7-.6.3-1.5 1.2-.5 1.3-2.7l-.3.4s.3 1-.3 1.3c-.5.3-.7.2-.7.2l.2-1.2-.7.7s-.5 1.1-.8 1.1-1.3-.5-1.6-1.4 1.1-4.4 1.8-5.8.3-1.2.3-1.2l-.9.7s-.8 2.3-1.2 2.9c-.3.5-.7 2.1-.6 2.8.1.6-.5-1.4.2-3.5.7-2 1.2-3.6 1.2-3.9 0-.2-.5.2-.5.2s-1.5 3.4-1.7 5c0 0-.3-2.5 1.2-4.8 0 0-.8.1-1.2 1.2-.3 1.1-.4.6-.4.6v-1.8l-.3-.1-.2 1.5h-.6s-1.6-10.8 2.5-13.2c2.2-1.3 9.1-4.2 13.1-8.5 1.3-1.4 2-3.5 2.7-4.7.3-.4-.8-1.5-1.8-2.6.5-.4.5-.8.9-.8l.1.1v-.1c-.4-.5-1.3-1.3-2-1.9-.2-.5-.3-.5.1-.5z" fill="#f1a7cc" class="Ar Aw"/></g><g class="Av Ar"><path d="M309.3 80.8c0 1.8.3 9.4-.6 14.1-.1-.3-.1-.7-.1-1.2 0-2.9.1-8.4-.2-10.2s.6-11.1.6-14 .5.4.5.4-.4 4.3-.2 5.1c.3.9-1.2 2.4 0 5.8z"/><path d="M315.6 69.3c-.1 1.1-.3 2.2-.7 3-1.3 2.7-.6 3-.7 3.7-.2.6-1.6.6-1.6.6s-3.3 2-3.2 4.2v.5l-.5-.6.2-1.7c.2-1.7 2.5-4.2 3.9-5.7 1.3-1.4 2.6-4 2.6-4zm-5.1-19.5c.3.3.5.6.5.8 0 .3.9.4 1.3.9-.1.1-.3.1-.5 0-.5-.3-.8 0-.8 0-.6 1.1-1.3 4.4-1.1 6.7s.7 2.6 1 1.3l1.1-5.1c.3-.5.5-1.3.4-2.2v-.5.1c.2.7.5 1.7 1.2 1.9a3.85 3.85 0 0 1 1.6 1.3c-.3-.1-.7-.3-1.1-.6-.9-.6-1.6 0-2.3 1.9s-1.7 8.9-1.7 10.2.2 3.7-.8 4.5c-.9.8-.4-1.3-.4-1.3v-6.3s.5-2.6.2-4.7.4-4.4 1-6c.8-1.8.4-2.9.4-2.9zm-23.8 22.3s1 6.2 2.7 7.3 3.2 2.2 2.3 6.3c-.9 4-1.9-3.6-1.7-4.9s-.7-3.1-1.2-1.9c-.5 1.1-1.7.4-1.7.4l-.4 6.3c.1 1.4-.9 3.7 2.4 3.9 1.2.1 2.1-.2 2.7-.6.1-.2.2-.5.4-.7 1.5-2 1.6-5.4 1.5-5.7 0-.4-1.1-.8-1.1-.8s-.7-.6.3-1.5 1.2-.5 1.3-2.7l-.3.4s.3 1-.3 1.3c-.5.3-.7.2-.7.2l.2-1.2-.7.7s-.5 1.1-.8 1.1-1.3-.5-1.6-1.4 1.1-4.4 1.8-5.8.3-1.2.3-1.2l-.9.7s-.8 2.3-1.2 2.9c-.3.5-.7 2.1-.6 2.8.1.6-.5-1.4.2-3.5l1.2-3.9c0-.2-.5.2-.5.2s-1.5 3.4-1.7 5c0 0-.3-2.5 1.2-4.8 0 0-.8.1-1.2 1.2-.3 1.1-.4.6-.4.6V71l-.3-.1-.2 1.5h-.6l-.2-1.5zm17.4 28s-1.9-2.5-2.6-3 2.5 2 2.7 2.4.3 1.5-.1.6z"/><path d="M305.2 100.1s-1.5-1.4-1.8-2.3-.1-1.9.1-2.4c.2-.6.7-5.2-.1-5.8s-1.5-1.7-1.5-1.7l1.7 1.1c.2.2-.3-1.5-.3-1.5l-1.7-1.5 2.1 1.5s-.3-2.1-.8-3c-.6-.9-.3-1.1-.3-1.5s-1.4-.1-1.2-1.7c0 0 .4 1.1 1.3 1.3s.6 1 .6 1 1-1.9-1.8-3.4c0 0-.4-.7-.2-1.2.2-.4.8.9 1.3 1.3s.1-2.1-1.5-3.4c0 0 0-.4.2-.7s-2.2.3-2.5-1.7c0 0 .7 1.1 1.7 1 1.1-.1-.9-2.4-1.2-2.8-.2-.4-2.7-3.1-2.7-3.1l2.7 2-3.3-4.5s2 1.1 2.4 2.1c0 0-.6-3.1-3.7-4 0 0-.3-.6.5-.1s1.7.8 1.7.8l-2.2-2.6s0-.6.4-.5-1.6-2.1-2.2-2.2c-.7-.1-3.1-.6-4.1 1.7-.9 2.3-.7.9-.4-.2s1.4-2.2 2.8-2.4c1.4-.1 3.7 2 3.7 2s1.9 2.1 3 4.5l2.4 6.5c.4 1 2.4 3.9 2.7 5.5s.9 3.5 1.1 3.8c.1.3-.2-3.3-.6-4s-2.5-4.4-3.3-7.9-3.1-7-4.3-8.4c-1.3-1.4-3.9-2.7-4.6-2.5-.7.1.5-.7 2.6.2l.8-1.5-.4 1.7c-.1.3.6.7.9-.2s1.5-1.7 1.5-1.7-.9 1.6-1 2.4c-.1.7.8 1.1.8 1.1s-.3-1.3.9-3.3c0 0 .3-.3.2-.6-.1-.4.4-.1-.2 1.4s-.7 1.9-.4 2.8.9 1.8 1.2 2c.4.2 1.1-1.6.9-3.4s.1-2.7.1-2.7l.3 4.4c.3 1.1 0 1.8-.1 2.1s-.4 1-.3 1.3 1.2 1.3 1.1 1.8 0 1.3 0 1.3.6-.6.9-1.2c.2-.6.2-.9.2-.9s.2.8 0 1.5.2 2.3.2 2.3v.8l.4.9v-1s.4.5.5 1.1l.6 3.2.9 2.4s.5-2.1-.3-3c0 0 .8-.3.8 2.1s.2 1.7.3 1.3c.2-.4.6.6.5 1.2s-.2-.6-.4-.3.1 1.4.1 1.4.1 1.4 0 1.6.3 2.3.1 2.6l-.7 1.1s-.1 1.3.2 2.4 0 3.4 0 3.4L304 96s-.5 1 0 1.8.7.8 1.2 2.3zm-5.1-43.5s1.3 4.1.5 7c0 0 .8-2.4.5-3.8l-.5-3.1z"/><path d="M301.7 57.1s1.4 7.1.5 11.7c0 0 .2 1.1.4 1.1.3 0 .8-8.5-.4-12.7zm2.1 3.6s-.4-3.1-1.1-3.4c-.6-.3.5 0 1 1.1.5 1 1.6 9.6 1.5 14.1s.2 9.2.2 9.2-.3 5.3-1 7c0 0-.3-.2 0-1.4.3-1.1.9-4.5.6-7.6s-.1-6.3-.1-6.3-.2-6.7-.6-8.4c-.3-1.7-.5-4.3-.5-4.3zm.7 33.4s1.1-4.2 1.1-6 1.1-5.1 1.1-5.6l-.1-11.1c-.1-1.3-.3-10.5-.8-11.7 0 0 1 1.3 1.1 4.9l.5 15.2s0 4.6.4 5.9.2 9.6-.8 12.4c0 0 .3-2.4.5-4.8s-.6-4.5-.5-7.4c0 0-.1-1.4-.2-.9s-.7 1.6-.7 3.3-.7 4.3-1.6 5.8zm-.3-52.1l3 2.7s-1.1-.5-1.3-.7 1.3 1.9 1.8 2.1c0 0-.7-.2-.9-.5-.2-.2.3 1.3.7 1.6 0 0-.4 0-.5-.2s.5 1.5.9 1.8c0 0-.8-.1-1.1-.9 0 0 .2 1.3.9 1.8 0 0-1.4-.5-1.5-1 0 0 1.7 1.6 1.8 2.7s0 .6 0 .6l-.6-.5s-.6-1.6-1.4-1.9c-.7-.2 1 2.5 1.6 3.1.6.5-.3.2-.5.2-.1 0-1.6-1.3-1.7-2.4s-.9.6 1.5 3.4l1.4 1.8-.6-.1s-2.6-2.2-2.7-4.4c0 0-.3 1.5-.5 1.5 0 0-.1-.1-.2-.1.1-.8.2-1.7.5-2.9.3-1.3 1.7-2 1.7-3.6l-2-3.5v-.1c.1-.1-.1-.3-.3-.5zm.4.6zm0 0zm8.5 15s-.4 1.1-.7 5.3c-.2 4.2-1.6 8.9-1.6 8.9l-.7 1.5 1.1-4.9c.2-1.2.9-5.3.9-7.9s.5-3.2 1-2.9z"/><path d="M313 62.1l-.1 8.4s-.3 1.1-.8 1.5-2.2 2.7-2.2 2.7l.5-1.6s-.5.7-.7.8.5-2 .6-3.4l-.8 1.3c-.2.4-.5 1.8-.7 2.8-.2.9-.2 3-.2 3s1.1-1.9 2.3-3.4c1.2-1.4 2.5-2.3 2.6-3.1 0-.7.4-8.3-.5-9zm-8.6-8.7s1.7 3.2 3.2 4.1c0 0 .9 3.4.8 4.7l-1.1-3.7-.2-.2s-1.8-1.3-2.7-2.6zm2.3 21s2.1-6.3 1.7-8-1.9-5.4-2.6-6.2c0 0-.3-1.2.6-.5 0 0 1.5 3 2 5 .6 2 .5 2.5-1.3 10.8z"/></g><path d="M288.2 49.4c.4-.9 1.5-3.8 3.2-5.1 2.5-2 4 .7 3.8 2.2-.1.5-.3 1.1-.8 1 0 0-5.4 7.9-5.1 11.6 2.1-.6 5.5-2 10.4-2.3 3.4-.2 4.8 1 5.1.6.5-.6-1-3.1.3-7.7.3-1.3 1.7-2 1.7-3.6 0 0-2-3.6-2.1-3.6-.7-.1-.2 1.4-3.3 1.1-3.2-.3-5.9-4.2-5.9-4.2h-.3c-1.2 1-3.2 2.2-5.3 4.5-2.8 3-3.9 4.3-3.9 4.3z" class="Aq Ar As Aw BQ"/><g class="Av Ar"><path d="M302.1 47.6s3.6.8 4.6-1.2c0 0 0 1-1 2.1s-2 .1-3.8-.7c0 0-2.5.9-4.9.7-1.2-.5-1.4-1.1-.8-2.1 0 0 1.8 1.4 5.9 1.2z"/><path d="M300.7 47.7s1 0 1.2-2.3c0 0 .6 1.9.1 2.3zm-6.8.4s-.2.4.9.5c0 0-.6.2-1.2.1-.5-.1-.1.9 1.8.9 0 0-1.6.5-2.3 0 0 0 1.1 1.3 2.7 1.2 0 0-1.9.4-3.2-.6 0 0-.4 1.7 3 1.7 0 0-2.3.7-3.8-.4 0 0 1 2 3.4 1.5 0 0-2.9 1.4-4.1-.1 0 0 .2 1.2 1.8 1.2 0 0-2.1.2-2.3-.4 0 0 .3 1.2 1.3 1.2 0 0-1.3.4-1.7-.1-.5-.5.3 1 1 1 0 0-.8.7-1.6.4l.8-1.9 1.1-2.1 1.9-3.2zm10.3 9.6s1.3.1 1.9 4v-1.8c-.1 0-.5-1.9-1.9-2.2zm-6.9 46s1.6-2.1 3-2.1l-1.8-.1s1.3-1.5 2.7-1.8c0 0-1.3-.1-3.1 1.7l-.6.7s.4-.2.9-.2c.6 0-1 .9-1.1 1.8zm2-4.1s-2 1.1-2.4 1.9.2-1.6 2.4-1.9zm2.6 1.9s2.1.6 3.1 2.1c1.1 1.6 1.5 1.8 1.5 1.8s-2.5-3.6-2.3-4.4c0 0-.1.6-.9.5-.7-.2-1.4 0-1.4 0zm3.2-2.1s1.7 2.9 2.6 3.5c1 .5 2.5 2.4 2.5 2.4s.5 1-.4.8c-.8-.2-1.7-1-2-.6s-.8.6-1.1-.2c-.3-.9-.6-4.2-1.9-5.5-.9-1.2-.8-1.3.3-.4z"/><path d="M292.6 90s3-5.8 4.2-6.1c0 0-2.5.8-3.6 2.1l-1.9 3.1z"/><path d="M293.1 91.7s5.2 3.3 6.2 5.7-.1-.2-.1-.2-2.3-5-6.1-7.1c-3.8-2-3.1-1.6-2 .3 1 1.9 2 1.3 2 1.3z"/><path d="M291.5 93.1s4.2 3.3 4.6 4.5l.6-.3s-2.7-3.9-4.1-5.2z"/><path d="M290.6 95.5s3.6 4.6 5.1 5.7-.6-5.1-4.4-8z"/></g><use xlink:href="#P" class="Aq Au Az BU"/><use xlink:href="#P" class="Ar Ay"/><use xlink:href="#Q" class="Aq Au Az BU"/><g class="Ar"><use xlink:href="#Q" class="Ay"/><path d="M290.4 83.6s-1.4 2.5-1.8 5.9l.3-.4s-.2-.8 1.5-5.5zm2.1 1s-1.1 3-2.8 4.3.2.1.2.1 2-1.4 2.6-4.4zm-3.4 5.4s1.1-1 2.7-.1l2.3 1.4s-2.3-1.4-3.3-1.6c-1-.1-1.6.5-1.6.5zm-.6 4.2s.9-3.1 2.3-2.3 2.7 1.5 3.9 2.8-3-2.7-4.4-2.8c-.2 0-.5.2-.8.5s-.9 1.8-.9 1.8zm-.2-11.3s-1 3.3-1 8.3l.2-.3c.1 0-.1-2 .8-8zm.4 14.2s1.5-2.9 2.2-2.6 2.2 1.6 3 3.3c0 0-2-3-3.2-3.1 0 0-.4-.4-1.7 2.3z" class="BD"/><path d="M303.8 51.3s-.2 1-1.6 1.4l1.8-.3s-.6 1.1-.9 1.4c-.3.2 1.2-.5 1.2-.5l-.2 1.5s-.3.5-.6.6 1.1.4 1.1.4l-.1-1.4c.1-.2.3-3 .3-3s-.3-1-1-.1zm-16.6-3.6c-.1 0 .5.7.9-.1l.9-1.8s-.2.7-.2 1.1 1.6-3 3.4-3.6c1.9-.6 2.6.1 3 1 0 0 .5.9.5 1.4s.5-2.4-.6-3c0 0 1.8 1 1.9 2.1 0 0 .2-1.9-.9-2.4 0 0 1.6 1.2 3.2 1.7s-2.3-1.5-2.6-2.2c-.4-.7-1.3-1.7-1.3-1.7s-5.1 2.7-8.2 7.5zm-2.8-1.5s-.4.7-.2.7c.3 0 .6-.5.7-.6s3.5-5.3 6.3-6.3.3 1.3.3 1.3l-5.7 5.8s.3.3.9-.5 6.1-6.1 6.9-6.8c.8-.8.1-1.3-.6-1-.5.3-4 1.2-8.6 7.4z" class="Av"/><g class="Aq As Aw"><path d="M288.2 61.1s-.4 2.1.6 3 2.7 2.1 3 2.8c0 0 .1.5-1.1-.1s-1-.1-1-.1-.5 1.8.3 2.9c0 0 .3 0 .5-.4 0 0 .4-.2.6.1 0 0-.3.8-1.2 1.1-.6.2-.9-.9-1.1-1.7V68s-.1 1.4.3 2.3l.2-.2s.1.2.5.2c0 0-.5.6-.9.6s-1-.7-.9-2.6c.1-.8-.2 1.7.2 2.3h.2l.3.2s-.3.4-.9-.1c0 0-.6-.7-.4-2.4 0-.2.1-.5 0-.1-.1.3-.1 1 .1 2h.1l.1.3s-.2.2-.5-.1c0 0-.5-.4-.5-2.8l.1-9.8c-.5-3.8 4.1-6.9 4.1-6.9l-2.6-1.5h0c.4-.9 1.5-3.8 3.2-5.1 2.5-2 4 .7 3.8 2.2-.1.5-.3 1.1-.8 1-2 2.7-6.1 10.3-6.3 13.6z" class="Ax"/><path d="M289.8 69.2c.1 0 .3 0 .5.1 1.5.3 3.3 1.1 3.4 2.8.2 2.6-1.7 3-4 3.2-2.9.3 6.3 3.2 6.2-3.8 0-2.3-2.2-3.9-4.2-4.5-.1.1-.4.1-1.1-.3-1.2-.6-1-.1-1-.1s-.3 1.6.2 2.6z" fill="#ff9b24"/></g><path d="M289.9 66.5s-.2 1.2 0 1.8c0 0 0-1.5.2-1.7h.1s-.2 1.1-.1 2.1c0 0 .1-1.7.3-2l.2.1s-.3.3-.2 2c0 0 .1-1.6.4-1.9z" class="Av"/></g><path d="M304.3 34.7c-.1 0-.2.1-.2.2s0 .2.2.2c0 0 .1 0 .1-.1s-.1 0-.1 0v.1" class="Aq As Au BC"/><path d="M288.5 63.7s-1-1.2-1-2.1l.5.4c.1.1-.5-1.4-.4-1.7s.6 1.1.6 1.1-.4-2-.3-3l.5 1.6v-3l.4 1.2-.1-2s.3.7.5.8-.2-1.4-.2-1.4.6.8.6.9c.1 0-.3-.9-.3-1.4 0 0 .4.7.8.8s-.4-.4-.5-1.7c0 0 .4.5.9.6s-.3-.6-.4-1.3c-.1-.6.3.4.9.4.6.1-.5-1.7-.3-2.3.1-.6.4 1.1 1.1 1.2.8.1-.6-1.2-.4-2.4s-.1.7.9 1.1c1.1.4-.3-1.3-.2-2.5 0 0 .3.9 1 1.2s-.5-1.4-.4-2.2c0 0 .5 1.3.9 1.5 0 0-.3-1.4-.3-2.1 0 0 .3 1.1.6 1.2 0 0-.2-1-.2-1.6 0 0 .3.9.4.9l.1-1.1s.1.8.2.9c0 0 .3-1 .4-1.1 0 0-.1.9 0 1l-.5.4-.3.4-.4.5-1 1.8-1 1.8-.7 1.4-.3.7-.6 1.5-.6 1.2-.5 1.2-.3.9-.3 1.4-.2.7.1 1.2z" class="Ar Av"/><path d="M319.7 62.9s.9 1 1.5 1.2-1.3.2-1.7.5m.7.8s.7-.5 1.3-.4" class="Aq As At Au"/><g class="Ar"><path d="M323.4 64s-.1.1 0 .1.4.1.6 0c.2 0-.6-.1-.6-.1zm-76.9 37.6c1.2.9 3.3 4.3 3.5 5s.9-.3 3.3.8 6.9 5.6 7.4 6.9c.5 1.4-.6-2.7-1.9-3.9-1.3-1.1.3-1.8.3-1.8s-1.2-.9-2.2-.9-2.4-2.2-2.8-3.3-2.1-.6-1.6.2-.4.6-.4.6-2-1.8-2.8-5c0 0 .6 0 1.1.6s1.1.3 1.1.3l2.4.3-2.9-3.3c-.5-.4 1.5 2.4 1.5 2.4s-.9 0-2-2-1.4-.2-1.4-.2l-1.5-1.4-1.4-.6.8 1.6 1.7 2.7 1.6 3.2s.1 1.7-.4 1.1-.3-2.1-2.7-3.7c-14.9-10-9.9-6.1-.7.4zm-12.8 1.1s2.3 1 2.7 1.8.3-.8.3-.8 1.1.2 1.9 1.2c.8.9 2-.3 2.4 0 .4.2.2 1.3.5 1.6s.9.1.9.1.8-2.9 1.9-2.6c1.1.2 2.3 3.6 4.4 4.1s5.7 1.5 7.4 3.5l-1.1-.2-6.9-.7c-3-.5-6.2-1.1-9-2.5-1.5-.7-2.4-1.7-3.4-2.6-.8-.7-1.2-1-1.7-2.2-.1-.2-.2-.1-.1-.4z" class="Av"/><path d="M236.1 104.1c.2.1.3.3.4.4.2.3.3.3.3.1 1.5 2.2 3.2 2.9 5.7 3.6l8.1 2.1-8.4-2c-4.4-1.1-6.1-4.2-6.1-4.2z" class="Ax"/></g><g class="Aq As At Au"><path d="M309.5 106.5h-2.2"/><path d="M308.4 106.5h-1.1m2.1-.1h-1.1"/><path d="M308.9 106.4h-1.1m1.2-.1h-1.1m1-.1h-.9m1.1 0h-.9"/><path d="M309.1 106.2h-.9m1.1.1h-.9"/><path d="M309.3 106.3h-.9m.6-.2h-.9m.7-.1h-.7m.7-.1h-.7m-1.7.8h3.5m-3.3.3h3.5m2.1-3.1h-1.4m1.3-.2h-1.4m1.8.7h-1.4m1.5.1h-1.4m1.4.1h-1.4m1.5.1h-1.5m1.5.3h-1.4m1.4.1h-1.4m1.4.2h-1.4m1.2.2h-1.4m2.1-.1h-1.4m2.1-.3h-1.4m1.3-.5h-1.4m0 1.1H311"/><path d="M312.5 105.5h-1.4m1.3.3H311m1.3.1h-1.4m1.2.2h-1.4"/><path d="M312.3 105.9h-1.4m1 .3h-1.4m1.3.1h-1.4m.3.2h-1.4m2.2-.1h-1.4m1.4.2h-1.4m-6.5-2.3h-.9m.9-.4h-.9m1 .6h-.9m1 .3h-.9m1.3.6h-.8"/></g><g class="Ar"><path d="M251.8 98l4.7 5.8c.8.6 2.3 1.1 2.5 1.8.3.7 4.2 5.4 4 8.3l.5-.5s-1.5-4.8-4.1-8c0 0-.5-1.4-2.3-2.4s-2.4-3.9-4.2-4.7z" class="Av"/><g class="Aq"><path d="M238 93.1v-.3.3zm.1-.9h0s4.1-1.9 5.1-1.2c0 0 .3-.6 2.2-2.4l3.3-3.4s.1.9 1.2.9c1.1.1 3.3.3 3.3.6s.2-.8 1.1-1.1 1.4 1.3 3.2 1.9 5.4 3.2 6.1 4.3c.7 1 .6 2.5 1.4 2.5s1.5-1.3 2.1-.9 3.3 2.5 3.4 3c0 .4.8-.9 2.6-.7L238.7 61c-.1 4.5.5 21.2-.6 31.2z" fill="#d1f3fd" class="At Az"/><path d="M238.1 92.1s4.1-1.9 5.1-1.2c0 0 .3-.6 2.2-2.4l3.3-3.4s.1.9 1.2.9c1.1.1 3.3.3 3.3.6s.2-.8 1.1-1.1 1.4 1.3 3.2 1.9 5.4 3.2 6.1 4.3c.7 1 .6 2.5 1.4 2.5s1.5-1.3 2.1-.9 3.3 2.5 3.4 3c0 .4.8-.9 2.6-.7l4.7 4.7c-.1.3-.3.5-.7.5-2-.2-5.5-2.6-5.9-3.1s-.8.6-.3 1.7 1 2.7.5 3.2c-.5.4-1.5 1.8-2 1.8s-1-.9-1.3-1.6-2.6-3-3-3.7c-.4-.6-2.3-5.1-3-5.3s-.8-.5-.9.1c-.1.5-1.4.2-1.4.2s-.1-.8-.4-.5l-1.8 1.7s-.9-.4-1.3 0c-.4.5-1 .4-1 .4s-.6-2.1-.5-3.9-.3-3.7-1.3-3.9c-.9-.2-1.3.2-1.3.2l.2 3.1-1.7-1.2c-.4-.3-.4-1.6-.6-1.7-.1-.1-.7-.9-1.1-.5s-.2 3.3-.2 3.3l-1.1.1s.5-.8-.5-.7c-.9 0-.9.5-.9.9s-.2.9-.4.9-1.3-.2-1 .3c.3.4 2.6 3.3 2.7 3.9s-.2 1.1-.4 1-2.1-.7-2.1-.7-2.7-4.1-3.1-4.1c-.3 0-1 .9-1.1 1s.1-.1-.1.2c-.2.2-1.9 3.4-3.3 2.4l.6-4.2z" class="As Aw BN"/></g></g><g class="Au BL Aq"><path d="M244.5 99.8s-1.2.8-2.2-.1-2.6-2.1-3.3-2.5m6.7 3.5s-2.7.4-3.9-.6-3.5-1.8-4.2-2.2m9.4 3.8s-2.1 1-3.5.1c-1.4-1-5.5-1.9-6.3-2.3" class="BU As"/><path d="M271.4 102.5s2.1 2.1 3.8 3 3.7 1.6 3.7 1.6m-7.1-4.8c.7.4 1.4 1.2 2.1 1.6 1.6 1 3.3 1.6 5 2.6m-7.1-4.7l6.3 3.5m-6.5-4.2l6.2 3.4m-6.6-4.4l6.1 3.3m-6.4-4.3l6.4 3.4m-6.6-4.3l6.5 3.7" class="Aw As"/><g class="At"><path d="M237.1 103.8s1.4 2.6 4.6 3.6l8.5 2.4m-10.9-4.6s-.3 1 6.6 2.9c6.9 2 5.8 1.9 6.5 2.4m-9.9-4s9.8 2.8 10.9 4.2m-10.7-4.8s11.2 3.8 12.5 5.2m-20.1-7.7s2.4 5.4 13.2 7.1" stroke="#fdcb34"/><g stroke="#ffca38"><path d="M244.9 92.2s3 3.3 5 3.6m-4.6-3.7s2.6 3.1 5.5 3.5m-4.9-3.4s2.9 3 5.9 3.3m-5.5-3.7s2.3 2.5 6.5 3.7m-6.4-4s3.2 2.9 6.6 3.8m-6.6-4.5s4.4 3.6 6.9 4.2m-6.3-4.3s3.6 3.2 6.9 4m-5.6-3.6s3.7 2.9 5.8 3.4m-5.1-3.4s3.4 2.8 5.2 3m-5.1-3.7s1.6 2 5.2 3.4m-5.2-4.5s.3 1.7 5.4 4.3m-5-4.8s.9 2.5 4.9 4.1m-3.4-2.5s1.3 1.4 3.4 2.2m-1.8-1.6s1.1.9 1.8 1.2m-2-2.4s1.6 1.8 2.3 2.2"/><path d="M252.5 89.2l2.2 2.6m-1.9-3.3s1.4 2.3 1.8 2.6m-1.1-2.6s.6 1.5 1.1 2.1"/></g></g></g><g class="Ar"><g class="As Be Aq"><path d="M257.6 42.6s.1.9 2 .3c1.8-.5 4-1.8 5.9-1.3 0 0 .2.1.1-.5s-.6-2.6-.1-4.8c.5-2.1 2.3-3.2 2.2-5.8 0 0 0-1.1-.2-1.3s.4-1.3-.7-2.1-1.5-1.5-3.7-2c0 0-.3-.4-.6-.5-.3 0-.8.1-.8.1s-.4-.4-.7-.4-.8 0-1.5.5c-.6.5-.5.6-.5.6s-.8.2-.8.6.1.6 0 .9-.6.1-1 1.3l-.4 1.1c-.1.1-.1.5-.1 1s-.3.6-.6.9c-.2.2-.8 1.2-.9 1.5-.1.2-.2.5.1.6s.6.1.7.2.1.6 0 .8.1 0 .4.2.5.2.4 0c0-.1.1.1-.1.1-.2-.1-.5-.2-.7-.2-.2.1-.1.2-.1.3s.3.4.2.7c-.1.4-.6 1.2.3 1.5 0 0 .3.1.6 0 0 0 .5.3 1.5.3 0 0 .2.5.1.9s0 .9 0 1.3c0 .6-.3 2.3-1 3.2z" fill="#fac49e"/><path d="M265.4 36.4h0c.5-2.1 2.3-3.2 2.2-5.8 0 0 0-1.1-.2-1.3s.4-1.3-.7-2.1-1.5-1.5-3.7-2c0 0-.3-.4-.6-.5-.3 0-.8.1-.8.1s-.4-.4-.7-.4-.8 0-1.5.5c-.6.5-.5.6-.5.6s-.8.2-.8.6c0 .3.1.5 0 .7.2 0 .3-.1.5-.2 1.1-.6 1.2-.6 1.8.2s0 .6 0 .7.1.7.1.8c.1 0 .2 0 .2.5s0 1.1.2 1.6.1.7-.1.7-.3.1-.1.6c.2.4.6 1 1.1.3.5-.6 1.5-1.1 1.8 0 0 0 .2.6-.2 1.3-.4.6-.5.5-.3.7.1.2.2.3.2.7s.1.5.3.6 0 .3.4.5c.4.3.2.4.6.6l.4.2s.3-.3.4-.2z" fill="#630"/></g><g class="Av"><path d="M257 28.8c-.2.6-.2.5-.3.6 0 0 .3-.1.4-.2l.3-.3c0-.1-.2-.1-.4-.1zm.3 1.9s-.1.4 0 .4c.1.1.5 0 .7.1s-.3-.5-.7-.5z"/><path d="M257.3 30.7s-.1-.1-.1-.2.2-.2.4 0a12.38 12.38 0 0 1 .6.7s.1-.1-.2-.4l-.6-.6s-.5-.1-.5.3c.1 0 .2.2.4.2zm.1.4s-.1 0-.1.2v.6s-.6-.1-.4-.2c.1-.1.4-.6.5-.6zm-.6-1.4s.9-.4 1.3-.1 1 1.3 1 1.3.1-.6-.1-1.1c-.3-.5-.5-.6-.5-.6s0 .3-.1.3-.4-.2-.8-.2c-.4.1-.5.1-.8.4z"/></g></g><path d="M261.1 36.2s1-1.2.6-1.9c0 0-.1-.2.1-.1.2 0 .7-.1 1.1-.5s.8-.9.8-1.4-.1-.8-.5-1-.9.2-.9.2" class="Aq As Au Be"/><g class="Ar"><path d="M257.5 30.8s.1.1.1.2 0 .2-.1.2c0 0-.1-.1-.1-.2s.1-.2.1-.2z" fill="#fac49e"/><g fill="#401b01"><path d="M258.9 25.3c.3.1 1.5.2 1.5.8-.5-.6-.8-.5-1.5-.6l-.1-.1s0-.1.1-.1zm1-.1c.6.2.9.2 1.2.8h0c-.3-.1 0-.4-1.2-.7l-.1-.1h.1z"/><path d="M261 26.3c.3.4.3.6.7 1-.4-.2-.6-.5-.8-.9v-.1c0-.1.1-.1.1 0zm.7-1.1c0 .5 0 1.1.4 1.4-.5 0-.6-1.2-.6-1.5l.1-.1c0 .1.1.2.1.2z"/><path d="M261.9 25.4c.1.9.4 1.5 1.4 1.8h-.3c-.9-.3-1.2-.9-1.3-1.8.1 0 .1-.1.2 0 0-.1 0 0 0 0zm.5-.3c0 .6.7 1.1 1.3 1.2h.1c-.8.1-1.5-.6-1.6-1.2.1-.1.1-.1.2 0 0-.1 0-.1 0 0zm-1.6 2.2c1 .1 1.3.3 1.8 1.1 0 .2-.5-.9-1.8-1 0 .1 0 .1 0-.1 0 .1 0 0 0 0zm1.9 1.2zm-2.1-.9c1.5.1 1.4.9 1.5.9 0 .2-.3-.7-1.5-.7-.1-.1-.1-.1 0-.2-.1 0-.1 0 0 0z"/><path d="M260.6 27.8c.5.1.9.3 1.2.8-.3-.1-.2-.4-1.2-.6l-.1-.1.1-.1z"/><path d="M261.6 28.1c.7 1 .9.7 1.2 1h-.1 0c-.8-.3-.7-.3-1.3-.9v-.1c.1-.1.2-.1.2 0z"/><path d="M261.4 28.2c.3.7.4.9 1.2 1-.7.2-1.1-.6-1.4-1v-.1c.2 0 .2.1.2.1z"/><path d="M261.1 28.6c.4.6.6 1 1.3 1.1-.7.2-1.1-.5-1.5-1v-.1h.2zm1.8.5c.5.7.4.5 1.1.7h0c-.4.2-1-.3-1.2-.6v-.1c0-.1.1-.1.1 0z"/><path d="M263 28.7c.4.7.8.5 1.1.7v-.1c.2.4-.9 0-1.3-.6v-.1c.1 0 .2.1.2.1zm1.2.7zm-2.4-2c1 .1 1.5 1 2.3 1.1h.3c-1.3.1-1.6-.9-2.6-1-.1 0-.1 0 0-.1-.1 0-.1 0 0 0zm2.9.3c.2 0 1.9-.3 2 .2 0 0 0 .1-.1 0-.6-.4-1.3-.1-2 0 0-.1 0-.1.1-.2-.1 0-.1 0 0 0zm-.1-.4c.3-.1 2.2-.9 2.2-.3h0 0 0c-.3-.5-1.8.4-2.2.5 0 0-.1 0-.1-.1l.1-.1zm.6.8c.9 0 1.2 0 1.9.6-.9-.5-.9-.4-1.9-.4 0 0-.1 0 0-.2-.1.1 0 0 0 0z"/><path d="M265.2 28.3c.9.8.8.5 1.5.9h0c-.4.1-1.4-.6-1.6-.8v-.1h.1zm-.6.4c.5.7.9.9 1.7 1.1-.8.1-1.4-.4-1.9-1v-.1c.1-.1.2-.1.2 0z"/><path d="M264.6 29c.4.5 1.1 1.3 1.8 1.1v.1c-.7.3-1.5-.5-1.9-1v-.1c0-.1.1-.1.1-.1z"/><path d="M267.2 29.4c-.1.1-1.5 1.7-1.7 1.3 0 0 0-.1.1-.1v.1c.5 0 1.3-1 1.5-1.3 0 0 .1-.1.1 0 0-.1.1 0 0 0zm-1.6 1.3z"/><path d="M267.3 29.8c-.6.8-.8 1.2-1.8 1.5-.1 0-.1 0 0-.1 1-.5 1-.5 1.7-1.5h.1s.1 0 0 .1z"/><path d="M267.4 30.1c-.6 1-.9 1.2-1.7 1.8h.1c-.1.1-.2.1-.1 0 .8-.8 1-.8 1.6-1.9 0 0 .1-.1.1 0v.1z"/><path d="M267.4 30.6c-.7 1.3-.9 1.4-1.8 2.4-.3.3-.4.1-.3.1.1.1.2 0 .3-.1.9-1.1 1.1-1.2 1.7-2.4 0 0 .1-.1.1 0-.1-.1 0 0 0 0zm0 .3l-1.7 2.3h0c0-.1 1.3-1.8 1.6-2.3 0 0 .1-.1.1 0z"/><path d="M267.1 31.9c-.4.8-1.1 1.3-1.8 1.8h-.1.1c.7-.6 1.2-1 1.6-1.8 0 0 .1-.1.1 0 .1-.1.1-.1.1 0z"/><path d="M267 32.6c-.9 1.2-2 1.7-2.2 1.8v.1c-.1 0 0-.1 0-.1 1-.8 1.2-.7 2-1.8 0 0 .1-.1.1 0 .1-.1.1-.1.1 0zm-.6.9c-.1.4-.1.5-.3.8h.1c-.4.3 0-.7 0-.8 0 0 0-.1.2 0-.1-.1 0 0 0 0z"/><path d="M266.8 33.3c-.2.3-.1.2-.3.5 0-.4 0-.2.1-.5l.1-.1c.1 0 .1.1.1.1zm-.9.6c-.2.5-.1.3-.3.7.1-.5 0-.3.2-.8l.1-.1c0 .1.1.1 0 .2zm-.7.7s-1.5.3-1.4 0c.2.2 1.1-.1 1.4-.2.1 0 .1.1 0 .2h0z"/><path d="M265.3 34.8s-1.8.7-1.6.3c0-.1.1 0 .1 0 .4.1 1.4-.5 1.4-.5h.1c.1.1.1.2 0 .2zm-1.5.4h0 0zm1.8-.1c-.3.1-1.1.5-1.3.4h0c.6-.2.6-.2 1.2-.5h.1c.1 0 .1.1 0 .1z"/><path d="M265.6 35.4l-.6.6c.3-.5.1-.2.5-.7h.1v.1zm-.8-1.5c-.1.1-1.1.6-1.2.3v-.1c.5.1.7-.1 1.1-.4h.1c.1.1.1.2 0 .2zm.1-.3l-1.3.1h0l1.3-.3c.1 0 .1 0 0 .2.1-.1.1 0 0 0zm-1.4-2.7c.6.4-.3.5 1.6.9h-.2c-1.5-.1-1.2-.5-1.5-.7 0 0-.1-.1 0-.1 0-.1 0-.1.1-.1z"/><path d="M263.2 30.9c.9.9.5.9 1.5 1.1-.9.1-.9-.3-1.7-.9V31c.1-.1.2-.1.2-.1zm-.4-1.5c.3.1.3.5.9.7-.5.1-.7-.5-.9-.5-.1 0-.1 0 0-.2-.1.1-.1 0 0 0z"/><path d="M262.7 29.9c.5.3 1.2.9 1.6 1-.3.1-1.3-.6-1.7-.8 0 0-.1-.1 0-.1 0-.1.1-.1.1-.1z"/><path d="M262.8 30.3c.6.4.7.6 1.4.7-.7 0-.9-.2-1.5-.6 0 0-.1-.1 0-.1h.1zm-1.7-1.1c.4.3.1.4 1.1 1-1.1-.3-.8-.6-1.2-.8 0 0-.1-.1 0-.1 0-.1 0-.2.1-.1zm0 .5c.5.7.4.5 1 .8-.3.2-1-.6-1.2-.8v-.1c.1 0 .2.1.2.1z"/><path d="M261.3 30.4c.2.4.6.4 1 .4-.5.1-.9.1-1.2-.4v-.1c.1 0 .2 0 .2.1zm0 .4c.3.1 1 .4 1.3.3-.1.3-1.2-.1-1.3-.1l-.1-.1c0-.1 0-.1.1-.1zm0 .4c.2.2.2.3.5.3.2.3-.6-.1-.7-.2v-.1c.1-.1.1-.1.2 0z"/><path d="M260.9 31.2c.5.5.2.3.7.5h0c-.4 0-.5-.1-.8-.4v-.1h.1zm1.9-5.9c.8.3 1.2.2 1.7 1-.9-.9-.8-.5-1.8-.9l-.1-.1h.2zm-.2 1.1c.7.6 1.5.6 2.3.3h.1-.1c-.9.4-1.7.5-2.5-.2v-.1c.1-.1.1-.1.2 0zm.3 1.2c.8.2 1 .6 1.4.6h.1c0 .1-.1.1-.2.1-.3.1-.7-.3-1.4-.5l-.1-.1c.1-.1.1-.1.2-.1z"/><path d="M261.9 26.7c.1.3.3.4.6.6-.4-.1-.6-.2-.8-.5v-.1c.1-.1.2-.1.2 0z"/><path d="M262.5 26.9c.2.2.3.3.3.6-.2-.2-.2-.3-.4-.4V27c0-.1.1-.1.1-.1zm-2.6-2.3c.6.1.8.3.9.8-.3-.3-.2-.6-.9-.6 0 0-.1 0 0-.2-.1.1 0 0 0 0z"/><path d="M260.3 24.4c.6.2.5.3.6.8-.3-.2.1-.4-.7-.6l-.1-.1c.1-.1.1-.1.2-.1zm-1.9 2c.1-.4.7-.7 1-.6-.3.1-.8.2-.9.6l-.1.1v-.1z"/><path d="M258.1 26.1c.3-.4.3-.4.8-.3-.4.1-.4.1-.6.4h-.1c-.1 0-.1-.1-.1-.1z"/></g></g><path d="M258.5 40.2s2-3.4 3.4-4.5" class="Aq As Au Be"/><path d="M262.1 32.5s.2.3.1.5-.3.4-.1.4.4-.1.5 0c.1 0 .7-.7.1-1 0 0 .2-.1.3 0s.4.7-.4 1.2c0 0 .1.1.3-.1.3-.2.9-1.2.3-1.7a.54.54 0 0 0-.9.3c0 .2.2.5.4.5.3 0 0 .3-.6-.1z" class="Ar Av"/><g stroke="#00247d" stroke-width=".5" class="Au"><path d="M145.252 300.377l-.664 7.566-3.576 2.011-5.369-.424-4.201-.997-2.757 1.833-2.886 3.33-4.792-.154-2.354-4.634-5.681 1.847-1.693-5.199-4.682-2.305-3.799-1.117 3.352-1.788 10.656-.412 7.14 2.023 5.493 1.765 4.752 1.011 4.14.306 2.011.894zm-62.798-.226l3.791-8.042.55-9.165 1.755-7.755 6.401-2.467 5.654-3.888 3.101-4.335 2.339-6.009 1.149-6.006.388-6.89-2.239-4.58-4.223-5.29 2.611-3.881 2.358-5.259-1.632-5.259-3.392-4.502m-61.041 88.634l2.833 1.225h0l8.453-3.932 5.111-1.966 6.291 1.18 3.735-1.769 4.128 1.376.393 3.145 4.915.59 5.701.786 4.718-4.128 2.949-3.145h4.718l5.419 2.266 3.381 1.051"/><path d="M57.641 300.968l6.251-1.559 1.18-6.094 7.077 3.145 6.488 2.163 4.128 1.769 6.527-1.585M55.401 203.44l6.327 10.773.513 9.747-4.104 4.788.684 7.011 2.223 4.617-2.394 5.301-2.907 1.368-3.249 4.959-2.345-.229"/><path d="M62.185 224.031l2.052 1.539 7.182-1.539 11.114 3.078"/></g><defs ><path id="B" d="M236.3 43.2s0 .2-.6-.1c0 0-.1.2.6.4s.2-.6.2-.6z"/><path id="C" d="M235.9 41.7s0 .2-.6 0c0 0-.1.2.6.4s.2-.6.2-.6z"/><path id="D" d="M241.5 46.1l.1-.3c0 .1.1.1-.1.3-.1.5-.1.1 0 0z"/><path id="E" d="M234.9 67.7s.1-.2.6.2c0 0 .1-.2-.5-.5s-.3.6-.3.6z"/><path id="F" d="M234.7 69.2s.1-.2.6.2c0 0 .1-.2-.5-.5s-.3.5-.3.5z"/><path id="G" d="M235 58.5s.1-.2.6.1c0 0 .1-.2-.6-.5s-.2.6-.2.6z"/><path id="H" d="M232.2 62.2s0-.2-.6 0c0 0-.1-.2.6-.4s.2.6.2.6z"/><path id="I" d="M232.1 62.7s0-.2-.6.1c0 0-.1-.2.6-.4s.2.6.2.6z"/><path id="J" d="M232.1 58.8s0-.2-.6 0c0 0 0-.2.7-.4.7-.1.1.6.1.6z"/><path id="K" d="M231.6 79.7s.1-.2.6.1c0 0 .1-.2-.6-.5s-.2.5-.2.5z"/><path id="L" d="M232.2 74.5s0-.2.6.1c0 0 .1-.2-.6-.4s-.2.6-.2.6z"/><path id="M" d="M229.9 35.7c-.1.1-.1.3 0 .4s.3.1.4 0 .1-.3 0-.4-.3-.1-.4 0z"/><path id="N" d="M256.5 129s-.3 1.1-1 1.5c-.6.4-.1.5.3.2.3-.3.8-.7 1-1.6.2-1-.3-.3-.3-.1z"/><path id="O" d="M302.4 100.1v1.3c0 .2.1.5.2.7 0 .3-.3.7-.2 1 .2.5.1 1.1.2 1.6a.9.9 0 0 0 .1.5s.3.6.1.8c-.1.1-.2.2-.4.2s-.3.1-.4-.2c-.1-.4 0-.5-.1-.5a1.75 1.75 0 0 0 .1.5c0 .2 0 .2-.1.3-.1 0-.2.1-.3 0-.2 0-.2-.1-.2-.2-.1-.1-.1-.7-.1-.6 0 .4.1.8-.3.8 0 0-.2 0-.3-.1-.1-.3-.1-.8-.1-.7v.5c0 .3 0 .3-.4.3-.2 0-.2-.1-.2-.3l.1-.6v.3c0 .2 0 .5-.2.5 0 0-.3.1-.3-.1v-.2c0-.1.1-.5.1-.8 0-.2-.2-.7-.1-1.1.1-.5-.2-.8.1-1.6 0 0-.1-.3.1-.8.1-.3.3-.7.4-1.1v-.5l2.2.1z"/><path id="P" d="M288.8 98s1.6-3.1 2.1-3c.5 0 4.2 5 4.9 5.5.8.5-2.3-6-4.3-6.8-2-.7-2.3.8-3 1.8-.6 1-.2-.3-.2-.3s.9-2.7 2-2.9c1-.2 5.6 3.9 6 4.4.5.5-4.3-6.7-6.6-5.6-1.2.5-1.6 2.8-1.6 2.8s.3-5.1 3.5-3.5c1.8.9 2.7 1.1 4.1 2.3 0 0-2.1-2.7-4.9-3.4 0 0-.4-.1-.6-.1s2.9-2.5 2.8-6.4c0 0-1.5 3.8-3.3 5.7-1.7 1.9.6-5.5 2.3-6.4 0 0-2.6.4-3.5 5.4-.9 5.1-.7 2.8-.7 2.8.1-3.8.2-5.8 1-9.6 0 0-1 1.7-1.5 3.8-.5 2.3-.5 5.1-.5 5.9.3 1.6.4 7.5 2 7.6z"/><path id="Q" d="M292.3 87.1l-1.2 1.6c-.2.3.7.4.7.4s.6-.5.5-2z"/></defs></svg>